<?xml version="1.0" encoding="UTF-8" standalone="no"?>
<!-- Created with Inkscape (http://www.inkscape.org/) -->

<svg
   width="128.90753mm"
   height="40.888985mm"
   id="svg2"
   version="1.1"
   viewBox="0 0 456.75897 144.88223"
   xmlns="http://www.w3.org/2000/svg"
   xmlns:svg="http://www.w3.org/2000/svg"
   xmlns:rdf="http://www.w3.org/1999/02/22-rdf-syntax-ns#"
   xmlns:cc="http://creativecommons.org/ns#"
   xmlns:dc="http://purl.org/dc/elements/1.1/">
  <defs
     id="defs4">
    <marker
       orient="auto"
       refY="0"
       refX="0"
       id="StopM"
       style="overflow:visible">
      <path
         id="path3933"
         d="M 0,5.65 V -5.65"
         style="fill:none;fill-opacity:0.75;fill-rule:evenodd;stroke:#000000;stroke-width:1.00000003pt"
         transform="scale(0.4)" />
    </marker>
    <marker
       orient="auto"
       refY="0"
       refX="0"
       id="Arrow1Mend"
       style="overflow:visible">
      <path
         id="path3770"
         d="M 0,0 5,-5 -12.5,0 5,5 Z"
         style="fill-rule:evenodd;stroke:#000000;stroke-width:1.00000003pt"
         transform="matrix(-0.4,0,0,-0.4,-4,0)" />
    </marker>
  </defs>
  <metadata
     id="metadata7">
    <rdf:RDF>
      <cc:Work
         rdf:about="">
        <dc:format>image/svg+xml</dc:format>
        <dc:type
           rdf:resource="http://purl.org/dc/dcmitype/StillImage" />
        <dc:title />
      </cc:Work>
    </rdf:RDF>
  </metadata>
  <g
     id="layer1"
     transform="translate(-28.674112,-9.5439462)">
    <g
       id="g5968"
       transform="translate(159.44882,17.716531)"
       style="stroke:none">
      <path
         style="fill:#8d5fd3;stroke:none"
         d="m 180.70866,88.582655 3.54331,-10.629921 h 28.34646 l 3.5433,10.629921 -3.5433,10.629921 h -28.34646 z"
         id="path5970" />
      <g
         aria-label="Octet 4"
         id="text5972"
         style="line-height:0%;font-family:Iwona;-inkscape-font-specification:Iwona;text-align:center;letter-spacing:0px;word-spacing:0px;text-anchor:middle;fill:#ffffff">
        <path
           d="m 191.1948,88.582652 c 0,-1.696 -0.88,-2.88 -2.496,-2.88 -1.624,0 -2.504,1.184 -2.504,2.88 0,1.696 0.88,2.88 2.504,2.88 1.616,0 2.496,-1.184 2.496,-2.88 z m -0.784,0 c 0,1.4 -0.464,2.512 -1.712,2.512 -1.256,0 -1.72,-1.112 -1.72,-2.512 0,-1.4 0.464,-2.512 1.72,-2.512 1.248,0 1.712,1.112 1.712,2.512 z"
           style="font-size:8px;line-height:1.25"
           id="path75" />
        <path
           d="m 194.90679,88.614652 v -0.336 c -0.256,-0.36 -0.672,-0.576 -1.12,-0.576 -1,0 -1.672,0.752 -1.672,1.88 0,1.128 0.672,1.88 1.672,1.88 0.416,0 0.808,-0.208 1.04,-0.552 v -0.336 c -0.272,0.408 -0.552,0.552 -1.04,0.552 -0.576,0 -0.968,-0.616 -0.968,-1.544 0,-0.928 0.392,-1.544 0.968,-1.544 0.496,0 0.832,0.176 1.12,0.576 z"
           style="font-size:8px;line-height:1.25"
           id="path77" />
        <path
           d="m 197.44278,91.102652 v -0.24 c -0.128,0.128 -0.28,0.232 -0.464,0.232 -0.288,0 -0.304,-0.376 -0.304,-0.712 v -2.264 h 0.768 v -0.336 h -0.768 v -1.2 h -0.376 c 0,0.64 -0.368,1.24 -0.952,1.24 v 0.296 h 0.704 v 2.264 c 0,0.528 0.168,1.08 0.624,1.08 0.296,0 0.552,-0.16 0.768,-0.36 z"
           style="font-size:8px;line-height:1.25"
           id="path79" />
        <path
           d="m 201.21877,89.662652 v -0.08 c 0,-1.128 -0.616,-1.88 -1.544,-1.88 -0.936,0 -1.552,0.752 -1.552,1.88 0,1.128 0.616,1.88 1.552,1.88 0.4,0 0.792,-0.128 1.12,-0.36 v -0.336 c -0.376,0.24 -0.68,0.328 -1.12,0.328 -0.68,0 -0.848,-0.648 -0.848,-1.432 z m -0.704,-0.336 h -1.688 c 0,-0.64 0.272,-1.288 0.848,-1.288 0.568,0 0.84,0.648 0.84,1.288 z"
           style="font-size:8px;line-height:1.25"
           id="path81" />
        <path
           d="m 203.95476,91.102652 v -0.24 c -0.128,0.128 -0.28,0.232 -0.464,0.232 -0.288,0 -0.304,-0.376 -0.304,-0.712 v -2.264 h 0.768 v -0.336 h -0.768 v -1.2 h -0.376 c 0,0.64 -0.368,1.24 -0.952,1.24 v 0.296 h 0.704 v 2.264 c 0,0.528 0.168,1.08 0.624,1.08 0.296,0 0.552,-0.16 0.768,-0.36 z"
           style="font-size:8px;line-height:1.25"
           id="path83" />
        <path
           d="m 210.65873,89.462652 v -0.368 h -0.6 v -3.232 h -0.624 l -2.176,3.232 v 0.368 h 2.176 v 1.92 h 0.624 v -1.92 z m -1.224,-0.368 h -1.768 l 1.768,-2.632 z"
           style="font-size:8px;line-height:1.25"
           id="path85" />
      </g>
    </g>
    <g
       style="stroke:none"
       transform="translate(212.59842,17.716531)"
       id="g5976">
      <path
         id="path5978"
         d="m 180.70866,88.582655 3.54331,-10.629921 h 28.34646 l 3.5433,10.629921 -3.5433,10.629921 h -28.34646 z"
         style="fill:#7137c8;stroke:none" />
      <g
         aria-label="Octet 5"
         id="text5980"
         style="line-height:0%;font-family:Iwona;-inkscape-font-specification:Iwona;text-align:center;letter-spacing:0px;word-spacing:0px;text-anchor:middle;fill:#ffffff">
        <path
           d="m 191.38967,88.582652 c 0,-1.696 -0.88,-2.88 -2.496,-2.88 -1.624,0 -2.504,1.184 -2.504,2.88 0,1.696 0.88,2.88 2.504,2.88 1.616,0 2.496,-1.184 2.496,-2.88 z m -0.784,0 c 0,1.4 -0.464,2.512 -1.712,2.512 -1.256,0 -1.72,-1.112 -1.72,-2.512 0,-1.4 0.464,-2.512 1.72,-2.512 1.248,0 1.712,1.112 1.712,2.512 z"
           style="font-size:8px;line-height:1.25"
           id="path88" />
        <path
           d="m 195.10166,88.614652 v -0.336 c -0.256,-0.36 -0.672,-0.576 -1.12,-0.576 -1,0 -1.672,0.752 -1.672,1.88 0,1.128 0.672,1.88 1.672,1.88 0.416,0 0.808,-0.208 1.04,-0.552 v -0.336 c -0.272,0.408 -0.552,0.552 -1.04,0.552 -0.576,0 -0.968,-0.616 -0.968,-1.544 0,-0.928 0.392,-1.544 0.968,-1.544 0.496,0 0.832,0.176 1.12,0.576 z"
           style="font-size:8px;line-height:1.25"
           id="path90" />
        <path
           d="m 197.63765,91.102652 v -0.24 c -0.128,0.128 -0.28,0.232 -0.464,0.232 -0.288,0 -0.304,-0.376 -0.304,-0.712 v -2.264 h 0.768 v -0.336 h -0.768 v -1.2 h -0.376 c 0,0.64 -0.368,1.24 -0.952,1.24 v 0.296 h 0.704 v 2.264 c 0,0.528 0.168,1.08 0.624,1.08 0.296,0 0.552,-0.16 0.768,-0.36 z"
           style="font-size:8px;line-height:1.25"
           id="path92" />
        <path
           d="m 201.41364,89.662652 v -0.08 c 0,-1.128 -0.616,-1.88 -1.544,-1.88 -0.936,0 -1.552,0.752 -1.552,1.88 0,1.128 0.616,1.88 1.552,1.88 0.4,0 0.792,-0.128 1.12,-0.36 v -0.336 c -0.376,0.24 -0.68,0.328 -1.12,0.328 -0.68,0 -0.848,-0.648 -0.848,-1.432 z m -0.704,-0.336 h -1.688 c 0,-0.64 0.272,-1.288 0.848,-1.288 0.568,0 0.84,0.648 0.84,1.288 z"
           style="font-size:8px;line-height:1.25"
           id="path94" />
        <path
           d="m 204.14963,91.102652 v -0.24 c -0.128,0.128 -0.28,0.232 -0.464,0.232 -0.288,0 -0.304,-0.376 -0.304,-0.712 v -2.264 h 0.768 v -0.336 h -0.768 v -1.2 h -0.376 c 0,0.64 -0.368,1.24 -0.952,1.24 v 0.296 h 0.704 v 2.264 c 0,0.528 0.168,1.08 0.624,1.08 0.296,0 0.552,-0.16 0.768,-0.36 z"
           style="font-size:8px;line-height:1.25"
           id="path96" />
        <path
           d="m 210.8536,89.582652 c 0,-1.128 -0.68,-1.88 -1.696,-1.88 -0.464,0 -0.896,0.176 -1.232,0.472 l 0.08,-1.816 h 2.688 v -0.496 h -3 l -0.12,2.76 0.336,0.016 c 0.304,-0.376 0.76,-0.6 1.248,-0.6 0.592,0 0.992,0.616 0.992,1.544 0,0.928 -0.4,1.544 -0.992,1.544 -0.616,0 -1.216,-0.2 -1.704,-0.576 v 0.336 c 0.488,0.376 1.088,0.576 1.704,0.576 1.016,0 1.696,-0.752 1.696,-1.88 z"
           style="font-size:8px;line-height:1.25"
           id="path98" />
      </g>
    </g>
    <g
       style="stroke:none"
       transform="translate(106.29921,17.716531)"
       id="g5946">
      <path
         id="path5948"
         d="m 180.70866,88.582655 3.54331,-10.629921 h 28.34646 l 3.5433,10.629921 -3.5433,10.629921 h -28.34646 z"
         style="fill:#aa87de;stroke:none" />
      <g
         aria-label="Octet 3"
         id="text5950"
         style="line-height:0%;font-family:Iwona;-inkscape-font-specification:Iwona;text-align:center;letter-spacing:0px;word-spacing:0px;text-anchor:middle">
        <path
           d="m 191.1948,88.582652 c 0,-1.696 -0.88,-2.88 -2.496,-2.88 -1.624,0 -2.504,1.184 -2.504,2.88 0,1.696 0.88,2.88 2.504,2.88 1.616,0 2.496,-1.184 2.496,-2.88 z m -0.784,0 c 0,1.4 -0.464,2.512 -1.712,2.512 -1.256,0 -1.72,-1.112 -1.72,-2.512 0,-1.4 0.464,-2.512 1.72,-2.512 1.248,0 1.712,1.112 1.712,2.512 z"
           style="font-size:8px;line-height:1.25"
           id="path101" />
        <path
           d="m 194.90679,88.614652 v -0.336 c -0.256,-0.36 -0.672,-0.576 -1.12,-0.576 -1,0 -1.672,0.752 -1.672,1.88 0,1.128 0.672,1.88 1.672,1.88 0.416,0 0.808,-0.208 1.04,-0.552 v -0.336 c -0.272,0.408 -0.552,0.552 -1.04,0.552 -0.576,0 -0.968,-0.616 -0.968,-1.544 0,-0.928 0.392,-1.544 0.968,-1.544 0.496,0 0.832,0.176 1.12,0.576 z"
           style="font-size:8px;line-height:1.25"
           id="path103" />
        <path
           d="m 197.44278,91.102652 v -0.24 c -0.128,0.128 -0.28,0.232 -0.464,0.232 -0.288,0 -0.304,-0.376 -0.304,-0.712 v -2.264 h 0.768 v -0.336 h -0.768 v -1.2 h -0.376 c 0,0.64 -0.368,1.24 -0.952,1.24 v 0.296 h 0.704 v 2.264 c 0,0.528 0.168,1.08 0.624,1.08 0.296,0 0.552,-0.16 0.768,-0.36 z"
           style="font-size:8px;line-height:1.25"
           id="path105" />
        <path
           d="m 201.21877,89.662652 v -0.08 c 0,-1.128 -0.616,-1.88 -1.544,-1.88 -0.936,0 -1.552,0.752 -1.552,1.88 0,1.128 0.616,1.88 1.552,1.88 0.4,0 0.792,-0.128 1.12,-0.36 v -0.336 c -0.376,0.24 -0.68,0.328 -1.12,0.328 -0.68,0 -0.848,-0.648 -0.848,-1.432 z m -0.704,-0.336 h -1.688 c 0,-0.64 0.272,-1.288 0.848,-1.288 0.568,0 0.84,0.648 0.84,1.288 z"
           style="font-size:8px;line-height:1.25"
           id="path107" />
        <path
           d="m 203.95476,91.102652 v -0.24 c -0.128,0.128 -0.28,0.232 -0.464,0.232 -0.288,0 -0.304,-0.376 -0.304,-0.712 v -2.264 h 0.768 v -0.336 h -0.768 v -1.2 h -0.376 c 0,0.64 -0.368,1.24 -0.952,1.24 v 0.296 h 0.704 v 2.264 c 0,0.528 0.168,1.08 0.624,1.08 0.296,0 0.552,-0.16 0.768,-0.36 z"
           style="font-size:8px;line-height:1.25"
           id="path109" />
        <path
           d="m 210.65873,89.862652 c 0,-0.704 -0.496,-1.312 -1.184,-1.52 0.608,-0.176 0.984,-0.632 0.984,-1.24 0,-0.792 -0.64,-1.32 -1.6,-1.32 -0.52,0 -1.024,0.176 -1.432,0.496 v 0.336 c 0.408,-0.32 0.912,-0.496 1.432,-0.496 0.584,0 0.976,0.392 0.976,0.984 0,0.952 -0.44,1.2 -1.44,1.2 v 0.296 c 1.08,0 1.56,0.256 1.56,1.264 0,0.696 -0.448,1.264 -0.992,1.264 -0.608,0 -1.2,-0.176 -1.704,-0.496 v 0.336 c 0.504,0.32 1.096,0.496 1.704,0.496 0.928,0 1.696,-0.72 1.696,-1.6 z"
           style="font-size:8px;line-height:1.25"
           id="path111" />
      </g>
    </g>
    <g
       id="g5936"
       transform="translate(53.149605,17.716531)"
       style="stroke:none">
      <path
         style="fill:#c6afe9;stroke:none"
         d="m 180.70866,88.582655 3.54331,-10.629921 h 28.34646 l 3.5433,10.629921 -3.5433,10.629921 h -28.34646 z"
         id="path5938" />
      <g
         aria-label="Octet 2"
         id="text5940"
         style="line-height:0%;font-family:Iwona;-inkscape-font-specification:Iwona;text-align:center;letter-spacing:0px;word-spacing:0px;text-anchor:middle">
        <path
           d="m 191.1948,88.582652 c 0,-1.696 -0.88,-2.88 -2.496,-2.88 -1.624,0 -2.504,1.184 -2.504,2.88 0,1.696 0.88,2.88 2.504,2.88 1.616,0 2.496,-1.184 2.496,-2.88 z m -0.784,0 c 0,1.4 -0.464,2.512 -1.712,2.512 -1.256,0 -1.72,-1.112 -1.72,-2.512 0,-1.4 0.464,-2.512 1.72,-2.512 1.248,0 1.712,1.112 1.712,2.512 z"
           style="font-size:8px;line-height:1.25"
           id="path114" />
        <path
           d="m 194.90679,88.614652 v -0.336 c -0.256,-0.36 -0.672,-0.576 -1.12,-0.576 -1,0 -1.672,0.752 -1.672,1.88 0,1.128 0.672,1.88 1.672,1.88 0.416,0 0.808,-0.208 1.04,-0.552 v -0.336 c -0.272,0.408 -0.552,0.552 -1.04,0.552 -0.576,0 -0.968,-0.616 -0.968,-1.544 0,-0.928 0.392,-1.544 0.968,-1.544 0.496,0 0.832,0.176 1.12,0.576 z"
           style="font-size:8px;line-height:1.25"
           id="path116" />
        <path
           d="m 197.44278,91.102652 v -0.24 c -0.128,0.128 -0.28,0.232 -0.464,0.232 -0.288,0 -0.304,-0.376 -0.304,-0.712 v -2.264 h 0.768 v -0.336 h -0.768 v -1.2 h -0.376 c 0,0.64 -0.368,1.24 -0.952,1.24 v 0.296 h 0.704 v 2.264 c 0,0.528 0.168,1.08 0.624,1.08 0.296,0 0.552,-0.16 0.768,-0.36 z"
           style="font-size:8px;line-height:1.25"
           id="path118" />
        <path
           d="m 201.21877,89.662652 v -0.08 c 0,-1.128 -0.616,-1.88 -1.544,-1.88 -0.936,0 -1.552,0.752 -1.552,1.88 0,1.128 0.616,1.88 1.552,1.88 0.4,0 0.792,-0.128 1.12,-0.36 v -0.336 c -0.376,0.24 -0.68,0.328 -1.12,0.328 -0.68,0 -0.848,-0.648 -0.848,-1.432 z m -0.704,-0.336 h -1.688 c 0,-0.64 0.272,-1.288 0.848,-1.288 0.568,0 0.84,0.648 0.84,1.288 z"
           style="font-size:8px;line-height:1.25"
           id="path120" />
        <path
           d="m 203.95476,91.102652 v -0.24 c -0.128,0.128 -0.28,0.232 -0.464,0.232 -0.288,0 -0.304,-0.376 -0.304,-0.712 v -2.264 h 0.768 v -0.336 h -0.768 v -1.2 h -0.376 c 0,0.64 -0.368,1.24 -0.952,1.24 v 0.296 h 0.704 v 2.264 c 0,0.528 0.168,1.08 0.624,1.08 0.296,0 0.552,-0.16 0.768,-0.36 z"
           style="font-size:8px;line-height:1.25"
           id="path122" />
        <path
           d="m 210.65873,91.382652 v -0.496 h -2.824 l 1.472,-1.456 c 0.656,-0.656 1.272,-1.424 1.272,-2.352 0,-0.784 -0.776,-1.296 -1.616,-1.296 -0.632,0 -1.232,0.288 -1.624,0.776 v 0.336 c 0.408,-0.472 1,-0.744 1.624,-0.744 0.536,0 0.992,0.4 0.992,0.928 0,0.792 -0.368,1.528 -0.912,2.096 l -1.784,1.832 v 0.376 z"
           style="font-size:8px;line-height:1.25"
           id="path124" />
      </g>
    </g>
    <g
       id="g5931"
       style="stroke:none"
       transform="translate(-1.496063e-6,17.716531)">
      <path
         id="path5929"
         d="m 180.70866,88.582655 3.54331,-10.629921 h 28.34646 l 3.5433,10.629921 -3.5433,10.629921 h -28.34646 z"
         style="fill:#e5d5ff;stroke:none" />
      <g
         aria-label="Octet 1"
         id="text5923"
         style="line-height:0%;font-family:Iwona;-inkscape-font-specification:Iwona;text-align:center;letter-spacing:0px;word-spacing:0px;text-anchor:middle">
        <path
           d="m 191.77478,88.582652 c 0,-1.696 -0.88,-2.88 -2.496,-2.88 -1.624,0 -2.504,1.184 -2.504,2.88 0,1.696 0.88,2.88 2.504,2.88 1.616,0 2.496,-1.184 2.496,-2.88 z m -0.784,0 c 0,1.4 -0.464,2.512 -1.712,2.512 -1.256,0 -1.72,-1.112 -1.72,-2.512 0,-1.4 0.464,-2.512 1.72,-2.512 1.248,0 1.712,1.112 1.712,2.512 z"
           style="font-size:8px;line-height:1.25"
           id="path127" />
        <path
           d="m 195.48678,88.614652 v -0.336 c -0.256,-0.36 -0.672,-0.576 -1.12,-0.576 -1,0 -1.672,0.752 -1.672,1.88 0,1.128 0.672,1.88 1.672,1.88 0.416,0 0.808,-0.208 1.04,-0.552 v -0.336 c -0.272,0.408 -0.552,0.552 -1.04,0.552 -0.576,0 -0.968,-0.616 -0.968,-1.544 0,-0.928 0.392,-1.544 0.968,-1.544 0.496,0 0.832,0.176 1.12,0.576 z"
           style="font-size:8px;line-height:1.25"
           id="path129" />
        <path
           d="m 198.02277,91.102652 v -0.24 c -0.128,0.128 -0.28,0.232 -0.464,0.232 -0.288,0 -0.304,-0.376 -0.304,-0.712 v -2.264 h 0.768 v -0.336 h -0.768 v -1.2 h -0.376 c 0,0.64 -0.368,1.24 -0.952,1.24 v 0.296 h 0.704 v 2.264 c 0,0.528 0.168,1.08 0.624,1.08 0.296,0 0.552,-0.16 0.768,-0.36 z"
           style="font-size:8px;line-height:1.25"
           id="path131" />
        <path
           d="m 201.79876,89.662652 v -0.08 c 0,-1.128 -0.616,-1.88 -1.544,-1.88 -0.936,0 -1.552,0.752 -1.552,1.88 0,1.128 0.616,1.88 1.552,1.88 0.4,0 0.792,-0.128 1.12,-0.36 v -0.336 c -0.376,0.24 -0.68,0.328 -1.12,0.328 -0.68,0 -0.848,-0.648 -0.848,-1.432 z m -0.704,-0.336 h -1.688 c 0,-0.64 0.272,-1.288 0.848,-1.288 0.568,0 0.84,0.648 0.84,1.288 z"
           style="font-size:8px;line-height:1.25"
           id="path133" />
        <path
           d="m 204.53475,91.102652 v -0.24 c -0.128,0.128 -0.28,0.232 -0.464,0.232 -0.288,0 -0.304,-0.376 -0.304,-0.712 v -2.264 h 0.768 v -0.336 h -0.768 v -1.2 h -0.376 c 0,0.64 -0.368,1.24 -0.952,1.24 v 0.296 h 0.704 v 2.264 c 0,0.528 0.168,1.08 0.624,1.08 0.296,0 0.552,-0.16 0.768,-0.36 z"
           style="font-size:8px;line-height:1.25"
           id="path135" />
        <path
           d="m 210.07872,91.382652 v -5.52 h -0.464 c -0.44,0.504 -0.96,0.936 -1.536,1.272 v 0.336 c 0.488,-0.232 0.944,-0.504 1.376,-0.832 v 4.744 z"
           style="font-size:8px;line-height:1.25"
           id="path137" />
      </g>
    </g>
    <path
       style="fill:none;stroke:#000000;stroke-width:1px;stroke-linecap:butt;stroke-linejoin:miter;stroke-opacity:1"
       d="m 106.29921,42.519663 h 35.43307 l 7.08662,17.716535 c 105.11811,0 181.88976,0 287.00787,0 l 7.08662,-17.716535 h 10.62992 l 7.08661,17.716535 h 17.71654"
       id="path5435" />
    <g
       aria-label="≥ 15 µs"
       id="text5988"
       style="line-height:0%;font-family:Iwona;-inkscape-font-specification:Iwona;letter-spacing:0px;word-spacing:0px">
      <path
         d="m 157.08689,74.352736 v -0.54 l -7.068,-3.492 v 0.672 l 6.264,3.096 -6.264,3.12 v 0.672 z m -0.132,5.256 v -0.6 h -6.936 v 0.6 z"
         style="font-size:12px;line-height:1.25"
         id="path140" />
      <path
         d="m 166.11087,77.952736 v -8.28 h -0.696 c -0.66,0.756 -1.44,1.404 -2.304,1.908 v 0.504 c 0.732,-0.348 1.416,-0.756 2.064,-1.248 v 7.116 z"
         style="font-size:12px;line-height:1.25"
         id="path142" />
      <path
         d="m 174.15087,75.252736 c 0,-1.692 -1.02,-2.82 -2.544,-2.82 -0.696,0 -1.344,0.264 -1.848,0.708 l 0.12,-2.724 h 4.032 v -0.744 h -4.5 l -0.18,4.14 0.504,0.024 c 0.456,-0.564 1.14,-0.9 1.872,-0.9 0.888,0 1.488,0.924 1.488,2.316 0,1.392 -0.6,2.316 -1.488,2.316 -0.924,0 -1.824,-0.3 -2.556,-0.864 v 0.504 c 0.732,0.564 1.632,0.864 2.556,0.864 1.524,0 2.544,-1.128 2.544,-2.82 z"
         style="font-size:12px;line-height:1.25"
         id="path144" />
      <path
         d="m 183.99084,77.952736 v -5.4 h -0.936 v 4.236 c -0.408,0.408 -0.912,0.732 -1.476,0.732 -0.564,0 -0.996,-0.492 -0.996,-1.068 v -3.9 h -0.936 v 7.464 h 0.816 v -2.136 c 0.216,0.12 0.456,0.192 0.72,0.192 0.72,0 1.356,-0.408 1.872,-0.912 v 0.792 z"
         style="font-size:12px;line-height:1.25"
         id="path146" />
      <path
         d="m 189.55882,76.416736 c 0,-0.948 -1.008,-1.44 -1.992,-1.68 -0.576,-0.144 -1.2,-0.384 -1.2,-0.948 0,-0.516 0.528,-0.852 1.104,-0.852 0.636,0 1.272,0.192 1.8,0.54 v -0.504 c -0.528,-0.348 -1.164,-0.54 -1.8,-0.54 -1.044,0 -2.004,0.636 -2.004,1.608 0,0.876 0.972,1.284 1.896,1.512 0.636,0.156 1.296,0.492 1.296,1.104 0,0.564 -0.576,0.912 -1.188,0.912 -0.744,0 -1.464,-0.18 -2.1,-0.54 v 0.504 c 0.636,0.36 1.356,0.54 2.1,0.54 1.08,0 2.088,-0.648 2.088,-1.656 z"
         style="font-size:12px;line-height:1.25"
         id="path148" />
    </g>
    <path
       style="fill:none;stroke:#999999;stroke-width:1px;stroke-linecap:butt;stroke-linejoin:miter;stroke-opacity:1"
       d="m 145.27559,28.346425 v 60.23623 0 0"
       id="path5992" />
    <path
       id="path5994"
       d="m 180.70866,81.496045 v 38.976385 0 -9.74409"
       style="fill:none;stroke:#999999;stroke-width:1px;stroke-linecap:butt;stroke-linejoin:miter;stroke-opacity:1" />
    <path
       id="path6200"
       style="fill:none;stroke:#000000;stroke-width:1px;stroke-linecap:butt;stroke-linejoin:miter;stroke-opacity:1"
       d="m 106.29921,116.9291 h 70.86614 l 7.08662,-21.259831 h 28.34646 l 7.08661,21.259831 h 10.6721 l 7.04443,-21.259831 28.34646,1e-5 7.08662,21.259821 h 10.62992 l 7.08661,-21.259831 h 28.34646 l 7.08661,21.259831 h 10.62992 l 7.08661,-21.259836 h 28.34646 l 7.08661,21.259836 h 10.45476 l 7.26178,-21.259836 h 28.34646 l 7.08661,21.259836 h 46.063" />
    <path
       id="path6204"
       style="fill:none;stroke:#000000;stroke-width:1px;stroke-linecap:butt;stroke-linejoin:miter;stroke-opacity:1"
       d="m 478.34646,95.669269 h -46.063 l -7.08661,21.259831 h -28.34646 l -7.26178,-21.259831 h -10.45476 l -7.08661,21.259831 h -28.34646 l -7.08661,-21.259831 h -10.62992 l -7.08661,21.259831 h -28.34646 l -7.08661,-21.259831 h -10.62992 l -7.08662,21.259821 -28.34646,1e-5 -7.04443,-21.259831 h -10.6721 l -7.08661,21.259831 h -28.34646 l -7.08662,-21.259831 h -70.86614" />
    <path
       id="path6208"
       d="m 216.14173,92.125957 v 38.976373 0 0"
       style="fill:none;stroke:#999999;stroke-width:1px;stroke-linecap:butt;stroke-linejoin:miter;stroke-opacity:1" />
    <path
       style="fill:none;stroke:#999999;stroke-width:1px;stroke-linecap:butt;stroke-linejoin:miter;stroke-opacity:1"
       d="m 233.85827,92.125957 v 38.976373 0 0"
       id="path6210" />
    <g
       aria-label="≥ 10 µs"
       id="text6212"
       style="line-height:0%;font-family:Iwona;-inkscape-font-specification:Iwona;letter-spacing:0px;word-spacing:0px">
      <path
         d="m 213.77981,141.67556 v -0.54 l -7.068,-3.492 v 0.672 l 6.264,3.096 -6.264,3.12 v 0.672 z m -0.132,5.256 v -0.6 h -6.936 v 0.6 z"
         style="font-size:12px;line-height:1.25"
         id="path151" />
      <path
         d="m 222.80379,145.27556 v -8.28 h -0.696 c -0.66,0.756 -1.44,1.404 -2.304,1.908 v 0.504 c 0.732,-0.348 1.416,-0.756 2.064,-1.248 v 7.116 z"
         style="font-size:12px;line-height:1.25"
         id="path153" />
      <path
         d="m 230.92778,141.13556 c 0,-2.844 -0.876,-4.26 -2.628,-4.26 -1.752,0 -2.628,1.416 -2.628,4.26 0,2.844 0.876,4.26 2.628,4.26 1.752,0 2.628,-1.416 2.628,-4.26 z m -1.056,0 c 0,2.508 -0.528,3.756 -1.572,3.756 -1.044,0 -1.572,-1.248 -1.572,-3.756 0,-2.508 0.528,-3.756 1.572,-3.756 1.044,0 1.572,1.248 1.572,3.756 z"
         style="font-size:12px;line-height:1.25"
         id="path155" />
      <path
         d="m 240.68376,145.27556 v -5.4 h -0.936 v 4.236 c -0.408,0.408 -0.912,0.732 -1.476,0.732 -0.564,0 -0.996,-0.492 -0.996,-1.068 v -3.9 h -0.936 v 7.464 h 0.816 v -2.136 c 0.216,0.12 0.456,0.192 0.72,0.192 0.72,0 1.356,-0.408 1.872,-0.912 v 0.792 z"
         style="font-size:12px;line-height:1.25"
         id="path157" />
      <path
         d="m 246.25174,143.73956 c 0,-0.948 -1.008,-1.44 -1.992,-1.68 -0.576,-0.144 -1.2,-0.384 -1.2,-0.948 0,-0.516 0.528,-0.852 1.104,-0.852 0.636,0 1.272,0.192 1.8,0.54 v -0.504 c -0.528,-0.348 -1.164,-0.54 -1.8,-0.54 -1.044,0 -2.004,0.636 -2.004,1.608 0,0.876 0.972,1.284 1.896,1.512 0.636,0.156 1.296,0.492 1.296,1.104 0,0.564 -0.576,0.912 -1.188,0.912 -0.744,0 -1.464,-0.18 -2.1,-0.54 v 0.504 c 0.636,0.36 1.356,0.54 2.1,0.54 1.08,0 2.088,-0.648 2.088,-1.656 z"
         style="font-size:12px;line-height:1.25"
         id="path159" />
    </g>
    <path
       id="path5371"
       d="m 145.27559,85.039348 h 31.88976"
       style="fill:none;stroke:#000000;stroke-width:1px;stroke-linecap:butt;stroke-linejoin:miter;stroke-opacity:1;marker-start:url(#StopM);marker-end:url(#Arrow1Mend)" />
    <path
       style="fill:none;stroke:#000000;stroke-width:1px;stroke-linecap:butt;stroke-linejoin:miter;stroke-opacity:1;marker-start:url(#StopM);marker-end:url(#Arrow1Mend)"
       d="m 216.14174,127.55903 h 14.17322"
       id="path6206" />
    <g
       aria-label="Slave Select"
       id="text6422"
       style="line-height:0%;font-family:Iwona;-inkscape-font-specification:Iwona;text-align:end;letter-spacing:0px;word-spacing:0px;text-anchor:end">
      <path
         d="m 42.068773,54.25689 c 0,-1.476 -1.5,-2.352 -3.048,-2.676 -1.032,-0.216 -2.196,-0.48 -2.196,-1.44 0,-0.948 1.02,-1.488 2.076,-1.488 0.972,0 1.92,0.288 2.688,0.888 v -0.48 c -0.768,-0.6 -1.716,-0.96 -2.688,-0.96 -1.56,0 -3.024,0.876 -3.024,2.292 0,1.356 1.464,2.04 2.892,2.34 1.14,0.24 2.352,0.708 2.352,1.776 0,1.092 -1.068,1.824 -2.22,1.824 -1.116,0 -2.22,-0.288 -3.156,-0.888 v 0.48 c 0.948,0.6 2.028,0.96 3.156,0.96 1.656,0 3.168,-1.068 3.168,-2.628 z"
         style="font-size:12px;line-height:1.25"
         id="path162" />
      <path
         d="m 46.004765,56.27289 v -0.36 c -0.228,0.192 -0.492,0.348 -0.792,0.348 -0.444,0 -0.528,-0.552 -0.528,-1.068 v -6.9 h -0.936 v 6.9 c 0,0.804 0.312,1.62 1.02,1.62 0.456,0 0.888,-0.228 1.236,-0.54 z"
         style="font-size:12px;line-height:1.25"
         id="path164" />
      <path
         d="m 51.428743,56.69289 v -3.36 c 0,-1.128 -0.696,-2.16 -1.74,-2.16 -0.768,0 -1.488,0.264 -2.136,0.672 v 0.372 c 0.54,-0.3 1.14,-0.492 1.764,-0.492 0.744,0 1.176,0.792 1.176,1.608 v 0.216 c -0.468,-0.204 -0.972,-0.324 -1.476,-0.324 -1.284,0 -2.232,0.588 -2.232,1.8 0,1.152 0.84,1.788 2.052,1.788 0.612,0 1.176,-0.276 1.656,-0.66 v 0.54 z m -0.936,-1.044 c -0.36,0.36 -0.804,0.66 -1.32,0.66 -0.804,0 -1.332,-0.492 -1.332,-1.284 0,-0.732 0.6,-1.296 1.332,-1.296 0.456,0 0.912,0.12 1.32,0.324 z"
         style="font-size:12px;line-height:1.25"
         id="path166" />
      <path
         d="m 57.152733,51.29289 h -0.54 l -1.632,4.488 -1.584,-4.488 h -0.888 l 1.896,5.4 h 0.78 z"
         style="font-size:12px;line-height:1.25"
         id="path168" />
      <path
         d="m 62.576728,54.11289 v -0.12 c 0,-1.692 -0.924,-2.82 -2.316,-2.82 -1.404,0 -2.328,1.128 -2.328,2.82 0,1.692 0.924,2.82 2.328,2.82 0.6,0 1.188,-0.192 1.68,-0.54 v -0.504 c -0.564,0.36 -1.02,0.492 -1.68,0.492 -1.02,0 -1.272,-0.972 -1.272,-2.148 z m -1.056,-0.504 h -2.532 c 0,-0.96 0.408,-1.932 1.272,-1.932 0.852,0 1.26,0.972 1.26,1.932 z"
         style="font-size:12px;line-height:1.25"
         id="path170" />
      <path
         d="m 74.216691,54.25689 c 0,-1.476 -1.5,-2.352 -3.048,-2.676 -1.032,-0.216 -2.196,-0.48 -2.196,-1.44 0,-0.948 1.02,-1.488 2.076,-1.488 0.972,0 1.92,0.288 2.688,0.888 v -0.48 c -0.768,-0.6 -1.716,-0.96 -2.688,-0.96 -1.56,0 -3.024,0.876 -3.024,2.292 0,1.356 1.464,2.04 2.892,2.34 1.14,0.24 2.352,0.708 2.352,1.776 0,1.092 -1.068,1.824 -2.22,1.824 -1.116,0 -2.22,-0.288 -3.156,-0.888 v 0.48 c 0.948,0.6 2.028,0.96 3.156,0.96 1.656,0 3.168,-1.068 3.168,-2.628 z"
         style="font-size:12px;line-height:1.25"
         id="path172" />
      <path
         d="m 80.240684,54.11289 v -0.12 c 0,-1.692 -0.924,-2.82 -2.316,-2.82 -1.404,0 -2.328,1.128 -2.328,2.82 0,1.692 0.924,2.82 2.328,2.82 0.6,0 1.188,-0.192 1.68,-0.54 v -0.504 c -0.564,0.36 -1.02,0.492 -1.68,0.492 -1.02,0 -1.272,-0.972 -1.272,-2.148 z m -1.056,-0.504 h -2.532 c 0,-0.96 0.408,-1.932 1.272,-1.932 0.852,0 1.26,0.972 1.26,1.932 z"
         style="font-size:12px;line-height:1.25"
         id="path174" />
      <path
         d="m 84.056668,56.27289 v -0.36 c -0.228,0.192 -0.492,0.348 -0.792,0.348 -0.444,0 -0.528,-0.552 -0.528,-1.068 v -6.9 h -0.936 v 6.9 c 0,0.804 0.312,1.62 1.02,1.62 0.456,0 0.888,-0.228 1.236,-0.54 z"
         style="font-size:12px;line-height:1.25"
         id="path176" />
      <path
         d="m 89.600646,54.11289 v -0.12 c 0,-1.692 -0.924,-2.82 -2.316,-2.82 -1.404,0 -2.328,1.128 -2.328,2.82 0,1.692 0.924,2.82 2.328,2.82 0.6,0 1.188,-0.192 1.68,-0.54 v -0.504 c -0.564,0.36 -1.02,0.492 -1.68,0.492 -1.02,0 -1.272,-0.972 -1.272,-2.148 z m -1.056,-0.504 h -2.532 c 0,-0.96 0.408,-1.932 1.272,-1.932 0.852,0 1.26,0.972 1.26,1.932 z"
         style="font-size:12px;line-height:1.25"
         id="path178" />
      <path
         d="m 95.04863,52.54089 v -0.504 c -0.384,-0.54 -1.008,-0.864 -1.68,-0.864 -1.5,0 -2.508,1.128 -2.508,2.82 0,1.692 1.008,2.82 2.508,2.82 0.624,0 1.212,-0.312 1.56,-0.828 v -0.504 c -0.408,0.612 -0.828,0.828 -1.56,0.828 -0.864,0 -1.452,-0.924 -1.452,-2.316 0,-1.392 0.588,-2.316 1.452,-2.316 0.744,0 1.248,0.264 1.68,0.864 z"
         style="font-size:12px;line-height:1.25"
         id="path180" />
      <path
         d="m 98.852618,56.27289 v -0.36 c -0.192,0.192 -0.42,0.348 -0.696,0.348 -0.432,0 -0.456,-0.564 -0.456,-1.068 v -3.396 h 1.152 v -0.504 h -1.152 v -1.8 h -0.564 c 0,0.96 -0.552,1.86 -1.428,1.86 v 0.444 h 1.056 v 3.396 c 0,0.792 0.252,1.62 0.936,1.62 0.444,0 0.828,-0.24 1.152,-0.54 z"
         style="font-size:12px;line-height:1.25"
         id="path182" />
    </g>
    <g
       aria-label="Trames SPI"
       id="text6426"
       style="line-height:0%;font-family:Iwona;-inkscape-font-specification:Iwona;text-align:end;letter-spacing:0px;word-spacing:0px;text-anchor:end">
      <path
         d="m 47.036747,105.5378 v -0.552 h -6.6 v 0.552 h 2.808 v 7.848 h 0.984 v -7.848 z"
         style="font-size:12px;line-height:1.25"
         id="path185" />
      <path
         d="m 50.144724,108.7298 v -0.744 c -0.132,-0.048 -0.276,-0.084 -0.408,-0.084 -0.672,0 -1.212,0.468 -1.644,0.984 v -0.9 h -0.936 v 5.4 h 0.936 v -3.996 c 0.36,-0.42 0.816,-0.78 1.368,-0.78 0.228,0 0.468,0.048 0.684,0.12 z"
         style="font-size:12px;line-height:1.25"
         id="path187" />
      <path
         d="m 55.4247,113.3858 v -3.36 c 0,-1.128 -0.696,-2.16 -1.74,-2.16 -0.768,0 -1.488,0.264 -2.136,0.672 v 0.372 c 0.54,-0.3 1.14,-0.492 1.764,-0.492 0.744,0 1.176,0.792 1.176,1.608 v 0.216 c -0.468,-0.204 -0.972,-0.324 -1.476,-0.324 -1.284,0 -2.232,0.588 -2.232,1.8 0,1.152 0.84,1.788 2.052,1.788 0.612,0 1.176,-0.276 1.656,-0.66 v 0.54 z m -0.936,-1.044 c -0.36,0.36 -0.804,0.66 -1.32,0.66 -0.804,0 -1.332,-0.492 -1.332,-1.284 0,-0.732 0.6,-1.296 1.332,-1.296 0.456,0 0.912,0.12 1.32,0.324 z"
         style="font-size:12px;line-height:1.25"
         id="path189" />
      <path
         d="m 63.896689,113.3858 v -3.9 c 0,-0.84 -0.492,-1.62 -1.272,-1.62 -0.672,0 -1.296,0.348 -1.656,0.912 -0.192,-0.528 -0.6,-0.912 -1.152,-0.912 -0.624,0 -1.128,0.432 -1.536,0.912 v -0.792 h -0.936 v 5.4 h 0.936 v -4.248 c 0.288,-0.372 0.648,-0.72 1.116,-0.72 0.492,0 0.756,0.528 0.756,1.068 v 3.9 h 0.936 v -3.9 c 0,-0.144 -0.012,-0.276 -0.036,-0.42 0.288,-0.372 0.684,-0.648 1.152,-0.648 0.492,0 0.756,0.528 0.756,1.068 v 3.9 z"
         style="font-size:12px;line-height:1.25"
         id="path191" />
      <path
         d="m 70.100669,110.8058 v -0.12 c 0,-1.692 -0.924,-2.82 -2.316,-2.82 -1.404,0 -2.328,1.128 -2.328,2.82 0,1.692 0.924,2.82 2.328,2.82 0.6,0 1.188,-0.192 1.68,-0.54 v -0.504 c -0.564,0.36 -1.02,0.492 -1.68,0.492 -1.02,0 -1.272,-0.972 -1.272,-2.148 z m -1.056,-0.504 h -2.532 c 0,-0.96 0.408,-1.932 1.272,-1.932 0.852,0 1.26,0.972 1.26,1.932 z"
         style="font-size:12px;line-height:1.25"
         id="path193" />
      <path
         d="m 75.308653,111.8498 c 0,-0.948 -1.008,-1.44 -1.992,-1.68 -0.576,-0.144 -1.2,-0.384 -1.2,-0.948 0,-0.516 0.528,-0.852 1.104,-0.852 0.636,0 1.272,0.192 1.8,0.54 v -0.504 c -0.528,-0.348 -1.164,-0.54 -1.8,-0.54 -1.044,0 -2.004,0.636 -2.004,1.608 0,0.876 0.972,1.284 1.896,1.512 0.636,0.156 1.296,0.492 1.296,1.104 0,0.564 -0.576,0.912 -1.188,0.912 -0.744,0 -1.464,-0.18 -2.1,-0.54 v 0.504 c 0.636,0.36 1.356,0.54 2.1,0.54 1.08,0 2.088,-0.648 2.088,-1.656 z"
         style="font-size:12px;line-height:1.25"
         id="path195" />
      <path
         d="m 86.88862,110.9498 c 0,-1.476 -1.5,-2.352 -3.048,-2.676 -1.032,-0.216 -2.196,-0.48 -2.196,-1.44 0,-0.948 1.02,-1.488 2.076,-1.488 0.972,0 1.92,0.288 2.688,0.888 v -0.48 c -0.768,-0.6 -1.716,-0.96 -2.688,-0.96 -1.56,0 -3.024,0.876 -3.024,2.292 0,1.356 1.464,2.04 2.892,2.34 1.14,0.24 2.352,0.708 2.352,1.776 0,1.092 -1.068,1.824 -2.22,1.824 -1.116,0 -2.22,-0.288 -3.156,-0.888 v 0.48 c 0.948,0.6 2.028,0.96 3.156,0.96 1.656,0 3.168,-1.068 3.168,-2.628 z"
         style="font-size:12px;line-height:1.25"
         id="path197" />
      <path
         d="m 95.108612,107.2658 c 0,-1.692 -1.452,-2.4 -3.336,-2.4 -0.672,0 -1.344,0.036 -2.004,0.12 h -0.96 v 8.4 h 0.984 v -3.9 c 0.648,0.12 1.32,0.192 1.98,0.192 1.884,0 3.336,-0.708 3.336,-2.412 z m -1.176,0 c 0,1.092 -1.02,1.86 -2.16,1.86 -0.66,0 -1.332,-0.072 -1.98,-0.192 v -3.396 c 0.66,-0.084 1.32,-0.12 1.98,-0.12 1.14,0 2.16,0.768 2.16,1.848 z"
         style="font-size:12px;line-height:1.25"
         id="path199" />
      <path
         d="m 98.012606,113.3858 v -8.4 h -0.984 v 8.4 z"
         style="font-size:12px;line-height:1.25"
         id="path201" />
    </g>
    <path
       style="fill:none;stroke:#999999;stroke-width:1px;stroke-linecap:butt;stroke-linejoin:miter;stroke-opacity:1"
       d="m 439.37007,28.346435 v 35.43307 0 0"
       id="path3042" />
    <path
       id="path3044"
       d="m 457.08661,28.346435 v 35.43307 0 0"
       style="fill:none;stroke:#999999;stroke-width:1px;stroke-linecap:butt;stroke-linejoin:miter;stroke-opacity:1" />
    <g
       aria-label="≥ 25 µs"
       id="text3046"
       style="line-height:0%;font-family:Iwona;-inkscape-font-specification:Iwona;letter-spacing:0px;word-spacing:0px">
      <path
         d="m 437.8882,21.300597 v -0.525379 l -6.87663,-3.397455 v 0.653806 l 6.0944,3.012176 -6.0944,3.035526 v 0.653806 z m -0.12843,5.113694 v -0.583755 h -6.7482 v 0.583755 z"
         style="font-size:11.6751px;line-height:1.25"
         id="path204" />
      <path
         d="m 448.36074,24.803127 v -0.723856 h -4.12131 l 2.14822,-2.124868 c 0.95736,-0.957358 1.85634,-2.078168 1.85634,-3.43248 0,-1.14416 -1.13248,-1.891366 -2.35837,-1.891366 -0.92233,0 -1.79796,0.420304 -2.37004,1.132485 v 0.490354 c 0.59543,-0.688831 1.45938,-1.085784 2.37004,-1.085784 0.78223,0 1.44771,0.583755 1.44771,1.354311 0,1.155835 -0.53705,2.229944 -1.33096,3.058877 l -2.60355,2.673598 v 0.548729 z"
         style="font-size:11.6751px;line-height:1.25"
         id="path206" />
      <path
         d="m 454.49016,22.17623 c 0,-1.646189 -0.99238,-2.743649 -2.47512,-2.743649 -0.67715,0 -1.30761,0.256852 -1.79796,0.688831 l 0.11675,-2.650248 h 3.92283 v -0.723856 h -4.37816 l -0.17513,4.02791 0.49036,0.02335 c 0.44365,-0.54873 1.10913,-0.875633 1.82131,-0.875633 0.86396,0 1.44772,0.898983 1.44772,2.253295 0,1.354311 -0.58376,2.253294 -1.44772,2.253294 -0.89898,0 -1.77461,-0.291877 -2.48679,-0.840607 v 0.490354 c 0.71218,0.54873 1.58781,0.840607 2.48679,0.840607 1.48274,0 2.47512,-1.097459 2.47512,-2.743648 z"
         style="font-size:11.6751px;line-height:1.25"
         id="path208" />
      <path
         d="m 464.06372,24.803127 v -5.253795 h -0.91065 v 4.121311 c -0.39696,0.396953 -0.88731,0.712181 -1.43604,0.712181 -0.54873,0 -0.96904,-0.478679 -0.96904,-1.039084 v -3.794408 h -0.91065 v 7.261913 h 0.7939 v -2.078168 c 0.21016,0.116751 0.44366,0.186801 0.70051,0.186801 0.70051,0 1.31929,-0.396953 1.82132,-0.887307 v 0.770556 z"
         style="font-size:11.6751px;line-height:1.25"
         id="path210" />
      <path
         d="m 469.48095,23.308714 c 0,-0.922332 -0.98071,-1.401012 -1.93807,-1.634514 -0.5604,-0.140101 -1.16751,-0.373603 -1.16751,-0.922333 0,-0.502029 0.51371,-0.828932 1.07411,-0.828932 0.61878,0 1.23756,0.186802 1.75127,0.52538 v -0.490354 c -0.51371,-0.338578 -1.13249,-0.52538 -1.75127,-0.52538 -1.01573,0 -1.94974,0.61878 -1.94974,1.564464 0,0.852282 0.94568,1.249235 1.84467,1.471062 0.61878,0.151777 1.26091,0.478679 1.26091,1.074109 0,0.54873 -0.56041,0.887308 -1.15584,0.887308 -0.72385,0 -1.42436,-0.175126 -2.04314,-0.525379 v 0.490354 c 0.61878,0.350253 1.31929,0.525379 2.04314,0.525379 1.05076,0 2.03147,-0.630455 2.03147,-1.611164 z"
         style="font-size:11.6751px;line-height:1.25"
         id="path212" />
    </g>
    <path
       id="path3050"
       d="M 439.37008,31.889742 H 453.5433"
       style="fill:none;stroke:#000000;stroke-width:1px;stroke-linecap:butt;stroke-linejoin:miter;stroke-opacity:1;marker-start:url(#StopM);marker-end:url(#Arrow1Mend)" />
    <g
       aria-label="≥ 25 µs"
       id="text74"
       style="line-height:0%;font-family:Iwona;-inkscape-font-specification:Iwona;letter-spacing:0px;word-spacing:0px">
      <path
         d="m 114.34335,21.300588 v -0.52538 l -6.87663,-3.397454 v 0.653806 l 6.0944,3.012175 -6.0944,3.035527 v 0.653805 z m -0.12842,5.113694 v -0.583755 h -6.74821 v 0.583755 z"
         style="font-size:11.6751px;line-height:1.25"
         id="path215" />
      <path
         d="m 124.8159,24.803118 v -0.723856 h -4.12131 l 2.14821,-2.124869 c 0.95736,-0.957358 1.85635,-2.078168 1.85635,-3.432479 0,-1.14416 -1.13249,-1.891366 -2.35837,-1.891366 -0.92234,0 -1.79797,0.420303 -2.37005,1.132484 v 0.490354 c 0.59543,-0.68883 1.45939,-1.085784 2.37005,-1.085784 0.78223,0 1.44771,0.583755 1.44771,1.354312 0,1.155835 -0.53706,2.229944 -1.33096,3.058876 l -2.60355,2.673598 v 0.54873 z"
         style="font-size:11.6751px;line-height:1.25"
         id="path217" />
      <path
         d="m 130.94532,22.17622 c 0,-1.646189 -0.99238,-2.743648 -2.47512,-2.743648 -0.67716,0 -1.30761,0.256852 -1.79797,0.688831 l 0.11675,-2.650248 h 3.92284 v -0.723856 h -4.37817 l -0.17512,4.027909 0.49035,0.02335 c 0.44366,-0.548729 1.10914,-0.875632 1.82132,-0.875632 0.86396,0 1.44771,0.898983 1.44771,2.253294 0,1.354312 -0.58375,2.253295 -1.44771,2.253295 -0.89898,0 -1.77462,-0.291878 -2.4868,-0.840608 v 0.490355 c 0.71218,0.548729 1.58782,0.840607 2.4868,0.840607 1.48274,0 2.47512,-1.09746 2.47512,-2.743649 z"
         style="font-size:11.6751px;line-height:1.25"
         id="path219" />
      <path
         d="m 140.51888,24.803118 v -5.253795 h -0.91066 v 4.12131 c -0.39695,0.396953 -0.88731,0.712181 -1.43604,0.712181 -0.54873,0 -0.96903,-0.478679 -0.96903,-1.039084 v -3.794407 h -0.91066 v 7.261912 h 0.79391 v -2.078168 c 0.21015,0.116751 0.44365,0.186802 0.7005,0.186802 0.70051,0 1.31929,-0.396954 1.82132,-0.887308 v 0.770557 z"
         style="font-size:11.6751px;line-height:1.25"
         id="path221" />
      <path
         d="m 145.9361,23.308705 c 0,-0.922333 -0.9807,-1.401012 -1.93806,-1.634514 -0.56041,-0.140101 -1.16751,-0.373603 -1.16751,-0.922333 0,-0.502029 0.5137,-0.828932 1.07411,-0.828932 0.61878,0 1.23756,0.186801 1.75126,0.525379 v -0.490354 c -0.5137,-0.338578 -1.13248,-0.525379 -1.75126,-0.525379 -1.01574,0 -1.94975,0.61878 -1.94975,1.564463 0,0.852282 0.94569,1.249236 1.84467,1.471063 0.61878,0.151776 1.26091,0.478679 1.26091,1.074109 0,0.54873 -0.5604,0.887308 -1.15583,0.887308 -0.72386,0 -1.42437,-0.175127 -2.04315,-0.52538 v 0.490354 c 0.61878,0.350253 1.31929,0.52538 2.04315,0.52538 1.05076,0 2.03146,-0.630456 2.03146,-1.611164 z"
         style="font-size:11.6751px;line-height:1.25"
         id="path223" />
    </g>
    <path
       style="fill:none;stroke:#000000;stroke-width:1px;stroke-linecap:butt;stroke-linejoin:miter;stroke-opacity:1;marker-start:url(#StopM);marker-end:url(#Arrow1Mend)"
       d="m 106.29921,31.889732 35.43307,10e-6"
       id="path76" />
  </g>
</svg>
