<?xml version="1.0" encoding="UTF-8" standalone="no"?>
<!-- Created with Inkscape (http://www.inkscape.org/) -->

<svg
   width="293.28806mm"
   height="89.546806mm"
   id="svg4482"
   version="1.1"
   viewBox="0 0 1039.2097 317.29184"
   xmlns="http://www.w3.org/2000/svg"
   xmlns:svg="http://www.w3.org/2000/svg"
   xmlns:rdf="http://www.w3.org/1999/02/22-rdf-syntax-ns#"
   xmlns:cc="http://creativecommons.org/ns#"
   xmlns:dc="http://purl.org/dc/elements/1.1/">
  <defs
     id="defs4484" />
  <metadata
     id="metadata4488">
    <rdf:RDF>
      <cc:Work
         rdf:about="">
        <dc:format>image/svg+xml</dc:format>
        <dc:type
           rdf:resource="http://purl.org/dc/dcmitype/StillImage" />
        <dc:title />
      </cc:Work>
    </rdf:RDF>
  </metadata>
  <g
     id="layer1"
     transform="translate(-137.16827,25.740638)">
    <path
       id="rect5254"
       style="fill:#ffcc00;stroke-width:5.669"
       d="m 1151.5748,-17.716505 h 3.5433 c 0,0 0,1e-6 0,1e-6 V 283.46458 c 0,10e-6 0,10e-6 0,10e-6 h -3.5433 c 0,0 0,0 0,-10e-6 V -17.716504 c 0,0 0,-1e-6 0,-1e-6 z" />
    <path
       id="rect1949"
       style="fill:#ffcc00;stroke-width:5.669"
       d="m 1133.8583,-17.716505 h 3.5433 c 0,0 0,1e-6 0,1e-6 V 283.46458 c 0,10e-6 0,10e-6 0,10e-6 h -3.5433 c 0,0 0,0 0,-10e-6 V -17.716504 c 0,0 0,-1e-6 0,-1e-6 z" />
    <path
       id="rect1869"
       style="fill:#ffcc00;stroke-width:5.669"
       d="m 549.21265,-17.716505 h 3.5433 c 0,0 0,1e-6 0,1e-6 V 177.16536 c 0,0 0,0 0,0 h -3.5433 c 0,0 0,0 0,0 V -17.716504 c 0,0 0,-1e-6 0,-1e-6 z" />
    <path
       id="rect1871"
       style="fill:#ffcc00;stroke-width:5.669"
       d="m 531.4961,-17.716505 h 3.54329 c 0,0 10e-6,1e-6 10e-6,1e-6 V 177.16536 c 0,0 -10e-6,0 -10e-6,0 h -3.54329 c -10e-6,0 -10e-6,0 -10e-6,0 V -17.716504 c 0,0 0,-1e-6 10e-6,-1e-6 z" />
    <path
       id="rect1873"
       style="fill:#ffcc00;stroke-width:5.669"
       d="m 513.77954,-17.716505 h 3.5433 c 0,0 0,1e-6 0,1e-6 V 177.16536 c 0,0 0,0 0,0 h -3.5433 c 0,0 0,0 0,0 V -17.716504 c 0,0 0,-1e-6 0,-1e-6 z" />
    <path
       id="rect1875"
       style="fill:#ffcc00;stroke-width:5.669"
       d="m 496.06302,-17.716505 h 3.5433 c 0,0 0,1e-6 0,1e-6 V 230.31497 c 0,0 0,0 0,0 h -3.5433 c 0,0 0,0 0,0 V -17.716504 c 0,0 0,-1e-6 0,-1e-6 z" />
    <path
       id="rect1877"
       style="fill:#ffcc00;stroke-width:5.669"
       d="m 478.3465,-17.716505 h 3.5433 c 0,0 0,1e-6 0,1e-6 V 177.16536 c 0,0 0,0 0,0 h -3.5433 c 0,0 0,0 0,0 V -17.716504 c 0,0 0,-1e-6 0,-1e-6 z" />
    <path
       id="rect1881"
       style="fill:#ffcc00;stroke-width:5.669"
       d="m 442.91342,-17.716505 h 3.5433 c 0,0 0,1e-6 0,1e-6 V 177.16536 c 0,0 0,0 0,0 h -3.5433 c 0,0 0,0 0,0 V -17.716504 c 0,0 0,-1e-6 0,-1e-6 z" />
    <path
       id="rect1883"
       style="fill:#ffcc00;stroke-width:5.669"
       d="m 425.19687,-17.716505 h 3.5433 c 0,0 0,1e-6 0,1e-6 V 177.16536 c 0,0 0,0 0,0 h -3.5433 c 0,0 0,0 0,0 V -17.716504 c 0,0 0,-1e-6 0,-1e-6 z" />
    <path
       id="rect1933"
       style="fill:#ffcc00;stroke-width:5.669"
       d="m 1116.1418,-17.716505 h 3.5433 c 0,0 0,1e-6 0,1e-6 V 177.16536 c 0,0 0,0 0,0 h -3.5433 c 0,0 0,0 0,0 V -17.716504 c 0,0 0,-1e-6 0,-1e-6 z" />
    <path
       id="rect1937"
       style="fill:#ffcc00;stroke-width:5.669"
       d="m 1080.7087,-17.716505 h 3.5433 c 0,0 0,1e-6 0,1e-6 V 177.16536 c 0,0 0,0 0,0 h -3.5433 c 0,0 0,0 0,0 V -17.716504 c 0,0 0,-1e-6 0,-1e-6 z" />
    <path
       id="rect1939"
       style="fill:#ffcc00;stroke-width:5.669"
       d="m 1062.9922,-17.716505 h 3.5433 c 0,0 0,1e-6 0,1e-6 V 177.16536 c 0,0 0,0 0,0 h -3.5433 c 0,0 0,0 0,0 V -17.716504 c 0,0 0,-1e-6 0,-1e-6 z" />
    <path
       id="rect1941"
       style="fill:#ffcc00;stroke-width:5.669"
       d="m 1045.2756,-17.716505 h 3.5433 c 0,0 0,1e-6 0,1e-6 V 177.16536 c 0,0 0,0 0,0 h -3.5433 c 0,0 0,0 0,0 V -17.716504 c 0,0 0,-1e-6 0,-1e-6 z" />
    <path
       id="rect1943"
       style="fill:#ffcc00;stroke-width:5.669"
       d="m 1027.5591,-17.716505 h 3.5433 c 0,0 0,1e-6 0,1e-6 V 230.31497 c 0,0 0,0 0,0 h -3.5433 c 0,0 0,0 0,0 V -17.716504 c 0,0 0,-1e-6 0,-1e-6 z" />
    <path
       id="rect1945"
       style="fill:#ffcc00;stroke-width:5.669"
       d="m 1009.8425,-17.716505 h 3.5433 c 0,0 0,1e-6 0,1e-6 V 177.16536 c 0,0 0,0 0,0 h -3.5433 c 0,0 0,0 0,0 V -17.716504 c 0,0 0,-1e-6 0,-1e-6 z" />
    <path
       id="rect1917"
       style="fill:#ffcc00;stroke-width:5.669"
       d="m 974.40955,-17.716505 h 3.5433 c 0,0 0,1e-6 0,1e-6 V 177.16536 c 0,0 0,0 0,0 h -3.5433 c 0,0 0,0 0,0 V -17.716504 c 0,0 0,-1e-6 0,-1e-6 z" />
    <path
       id="rect1919"
       style="fill:#ffcc00;stroke-width:5.669"
       d="m 956.69299,-17.716505 h 3.5433 c 0,0 0,1e-6 0,1e-6 V 177.16536 c 0,0 0,0 0,0 h -3.5433 c 0,0 0,0 0,0 V -17.716504 c 0,0 0,-1e-6 0,-1e-6 z" />
    <path
       id="rect1921"
       style="fill:#ffcc00;stroke-width:5.669"
       d="m 938.97644,-17.716505 h 3.5433 c 0,0 0,1e-6 0,1e-6 V 177.16536 c 0,0 0,0 0,0 h -3.5433 c 0,0 0,0 0,0 V -17.716504 c 0,0 0,-1e-6 0,-1e-6 z" />
    <path
       id="rect1923"
       style="fill:#ffcc00;stroke-width:5.669"
       d="m 921.25989,-17.716505 h 3.5433 c 0,0 0,1e-6 0,1e-6 V 230.31497 c 0,0 0,0 0,0 h -3.5433 c 0,0 0,0 0,0 V -17.716504 c 0,0 0,-1e-6 0,-1e-6 z" />
    <path
       id="rect1925"
       style="fill:#ffcc00;stroke-width:5.669"
       d="m 903.5434,-17.716505 h 3.5433 c 0,0 0,1e-6 0,1e-6 V 177.16536 c 0,0 0,0 0,0 h -3.5433 c 0,0 0,0 0,0 V -17.716504 c 0,0 0,-1e-6 0,-1e-6 z" />
    <path
       id="rect1929"
       style="fill:#ffcc00;stroke-width:5.669"
       d="m 868.11029,-17.716505 h 3.5433 c 0,0 0,1e-6 0,1e-6 V 177.16536 c 0,0 0,0 0,0 h -3.5433 c 0,0 0,0 0,0 V -17.716504 c 0,0 0,-1e-6 0,-1e-6 z" />
    <path
       id="rect1931"
       style="fill:#ffcc00;stroke-width:5.669"
       d="m 850.39374,-17.716505 h 3.5433 c 0,0 0,1e-6 0,1e-6 V 177.16536 c 0,0 0,0 0,0 h -3.5433 c 0,0 0,0 0,0 V -17.716504 c 0,0 0,-1e-6 0,-1e-6 z" />
    <path
       id="rect1901"
       style="fill:#ffcc00;stroke-width:5.669"
       d="m 832.67725,-17.716505 h 3.5433 c 0,0 0,1e-6 0,1e-6 V 177.16536 c 0,0 0,0 0,0 h -3.5433 c 0,0 0,0 0,0 V -17.716504 c 0,0 0,-1e-6 0,-1e-6 z" />
    <path
       id="rect1903"
       style="fill:#ffcc00;stroke-width:5.669"
       d="m 814.96069,-17.716505 h 3.5433 c 0,0 10e-6,1e-6 10e-6,1e-6 V 230.31497 c 0,0 -10e-6,0 -10e-6,0 h -3.5433 c 0,0 0,0 0,0 V -17.716504 c 0,0 0,-1e-6 0,-1e-6 z" />
    <path
       id="rect1905"
       style="fill:#ffcc00;stroke-width:5.669"
       d="m 797.24414,-17.716505 h 3.5433 c 0,0 0,1e-6 0,1e-6 V 177.16536 c 0,0 0,0 0,0 h -3.5433 c 0,0 0,0 0,0 V -17.716504 c 0,0 0,-1e-6 0,-1e-6 z" />
    <path
       id="rect1909"
       style="fill:#ffcc00;stroke-width:5.669"
       d="m 761.8111,-17.716505 h 3.5433 c 0,0 0,1e-6 0,1e-6 V 177.16536 c 0,0 0,0 0,0 h -3.5433 c 0,0 0,0 0,0 V -17.716504 c 0,0 0,-1e-6 0,-1e-6 z" />
    <path
       id="rect1911"
       style="fill:#ffcc00;stroke-width:5.669"
       d="m 744.09454,-17.716505 h 3.5433 c 0,0 10e-6,1e-6 10e-6,1e-6 V 177.16536 c 0,0 -10e-6,0 -10e-6,0 h -3.5433 c 0,0 0,0 0,0 V -17.716504 c 0,0 0,-1e-6 0,-1e-6 z" />
    <path
       id="rect1913"
       style="fill:#ffcc00;stroke-width:5.669"
       d="m 726.37799,-17.716505 h 3.5433 c 0,0 0,1e-6 0,1e-6 V 177.16536 c 0,0 0,0 0,0 h -3.5433 c 0,0 0,0 0,0 V -17.716504 c 0,0 0,-1e-6 0,-1e-6 z" />
    <path
       id="rect1915"
       style="fill:#ffcc00;stroke-width:5.669"
       d="m 708.66144,-17.716505 h 3.5433 c 0,0 0,1e-6 0,1e-6 V 230.31497 c 0,0 0,0 0,0 h -3.5433 c 0,0 0,0 0,0 V -17.716504 c 0,0 0,-1e-6 0,-1e-6 z" />
    <path
       id="rect1885"
       style="fill:#ffcc00;stroke-width:5.669"
       d="m 690.94495,-17.716505 h 3.5433 c 0,0 0,1e-6 0,1e-6 V 177.16536 c 0,0 0,0 0,0 h -3.5433 c 0,0 0,0 0,0 V -17.716504 c 0,0 0,-1e-6 0,-1e-6 z" />
    <path
       id="rect1889"
       style="fill:#ffcc00;stroke-width:5.669"
       d="m 655.51184,-17.716505 h 3.5433 c 0,0 0,1e-6 0,1e-6 V 177.16536 c 0,0 0,0 0,0 h -3.5433 c 0,0 0,0 0,0 V -17.716504 c 0,0 0,-1e-6 0,-1e-6 z" />
    <path
       id="rect1891"
       style="fill:#ffcc00;stroke-width:5.669"
       d="m 637.79529,-17.716505 h 3.5433 c 0,0 0,1e-6 0,1e-6 V 177.16536 c 0,0 0,0 0,0 h -3.5433 c 0,0 0,0 0,0 V -17.716504 c 0,0 0,-1e-6 0,-1e-6 z" />
    <path
       id="rect1893"
       style="fill:#ffcc00;stroke-width:5.669"
       d="m 620.0788,-17.716505 h 3.5433 c 0,0 0,1e-6 0,1e-6 V 177.16536 c 0,0 0,0 0,0 h -3.5433 c 0,0 0,0 0,0 V -17.716504 c 0,0 0,-1e-6 0,-1e-6 z" />
    <path
       id="rect1895"
       style="fill:#ffcc00;stroke-width:5.669"
       d="m 602.36225,-17.716505 h 3.54329 c 0,0 10e-6,1e-6 10e-6,1e-6 V 230.31497 c 0,0 -10e-6,0 -10e-6,0 h -3.54329 c -10e-6,0 -10e-6,0 -10e-6,0 V -17.716504 c 0,0 0,-1e-6 10e-6,-1e-6 z" />
    <path
       id="rect1897"
       style="fill:#ffcc00;stroke-width:5.669"
       d="m 584.64569,-17.716505 h 3.5433 c 0,0 0,1e-6 0,1e-6 V 177.16536 c 0,0 0,0 0,0 h -3.5433 c 0,0 0,0 0,0 V -17.716504 c 0,0 0,-1e-6 0,-1e-6 z" />
    <path
       id="rect1823"
       style="fill:#ffcc00;stroke-width:5.669"
       d="m 407.48035,-17.716505 h 3.5433 c 0,0 0,1e-6 0,1e-6 V 177.16536 c 0,0 0,0 0,0 h -3.5433 c 0,0 0,0 0,0 V -17.716504 c 0,0 0,-1e-6 0,-1e-6 z" />
    <path
       id="rect1825"
       style="fill:#ffcc00;stroke-width:5.669"
       d="m 389.7638,-17.716505 h 3.54329 c 10e-6,0 10e-6,1e-6 10e-6,1e-6 V 230.31497 c 0,0 0,0 -10e-6,0 h -3.54329 c -1e-5,0 -1e-5,0 -1e-5,0 V -17.716504 c 0,0 0,-1e-6 1e-5,-1e-6 z" />
    <path
       id="rect1827"
       style="fill:#ffcc00;stroke-width:5.669"
       d="m 372.04727,-17.716505 h 3.5433 c 0,0 0,1e-6 0,1e-6 V 177.16536 c 0,0 0,0 0,0 h -3.5433 c 0,0 0,0 0,0 V -17.716504 c 0,0 0,-1e-6 0,-1e-6 z" />
    <path
       id="rect1817"
       style="fill:#ffcc00;stroke-width:5.669"
       d="m 336.6142,-17.716505 h 3.5433 c 0,0 0,1e-6 0,1e-6 V 177.16536 c 0,0 0,0 0,0 h -3.5433 c 0,0 0,0 0,0 V -17.716504 c 0,0 0,-1e-6 0,-1e-6 z" />
    <path
       id="rect1819"
       style="fill:#ffcc00;stroke-width:5.669"
       d="m 318.89765,-17.716505 h 3.54329 c 10e-6,0 10e-6,1e-6 10e-6,1e-6 V 177.16536 c 0,0 0,0 -10e-6,0 h -3.54329 c -10e-6,0 -10e-6,0 -10e-6,0 V -17.716504 c 0,0 0,-1e-6 10e-6,-1e-6 z" />
    <path
       id="rect1807"
       style="fill:#ffcc00;stroke-width:5.669"
       d="m 301.18112,-17.716505 h 3.5433 c 0,0 0,1e-6 0,1e-6 V 177.16536 c 0,0 0,0 0,0 h -3.5433 c 0,0 0,0 0,0 V -17.716504 c 0,0 0,-1e-6 0,-1e-6 z" />
    <path
       id="rect31670"
       style="fill:#ffcc00;stroke-width:5.669"
       d="m 283.46457,-17.716505 h 3.5433 c 0,0 0,1e-6 0,1e-6 V 124.01576 c 0,0 0,0 0,0 h -3.5433 c 0,0 0,0 0,0 V -17.716504 c 0,0 0,-1e-6 0,-1e-6 z" />
    <path
       style="fill:none;stroke:#000000;stroke-width:2;stroke-linecap:butt;stroke-linejoin:miter;stroke-miterlimit:4;stroke-dasharray:none;stroke-opacity:1"
       d="m 248.0315,230.31498 h 141.73229 l 3.54331,-35.43307 h 102.75591 l 3.54331,35.43307 h 102.7559 l 3.54331,-35.43307 h 102.75591 l 3.54331,35.43307 h 102.75591 l 3.5433,-35.43307 h 102.75591 l 3.54329,35.43306 h 7.08661 m 88.58273,0 7.0866,1e-5 3.5433,-35.43307 h 102.7559 l 3.5433,35.43307 h 31.8898"
       id="path3346" />
    <path
       id="path3104"
       d="m 248.0315,70.866135 24.80315,10e-7 3.54331,-35.433071 h 14.17323 l 3.5433,35.433071 875.19691,3.4e-5"
       style="fill:none;stroke:#000000;stroke-width:2;stroke-linecap:butt;stroke-linejoin:miter;stroke-miterlimit:4;stroke-dasharray:none;stroke-opacity:1" />
    <g
       aria-label="start_i"
       id="text3106"
       style="line-height:0%;font-family:Iwona;-inkscape-font-specification:Iwona;text-align:end;letter-spacing:0px;word-spacing:0px;text-anchor:end">
      <path
         d="m 184.80912,60.707522 c 0,-1.896 -2.016,-2.88 -3.984,-3.36 -1.152,-0.288 -2.4,-0.768 -2.4,-1.896 0,-1.032 1.056,-1.704 2.208,-1.704 1.272,0 2.544,0.384 3.6,1.08 v -1.008 c -1.056,-0.696 -2.328,-1.08 -3.6,-1.08 -2.088,0 -4.008,1.272 -4.008,3.216 0,1.752 1.944,2.568 3.792,3.024 1.272,0.312 2.592,0.984 2.592,2.208 0,1.128 -1.152,1.824 -2.376,1.824 -1.488,0 -2.928,-0.36 -4.2,-1.08 v 1.008 c 1.272,0.72 2.712,1.08 4.2,1.08 2.16,0 4.176,-1.296 4.176,-3.312 z"
         style="font-size:24px;line-height:1.25"
         id="path246" />
      <path
         d="m 192.8971,62.939522 v -0.72 c -0.384,0.384 -0.84,0.696 -1.392,0.696 -0.864,0 -0.912,-1.128 -0.912,-2.136 v -6.792 h 2.304 v -1.008 h -2.304 v -3.6 h -1.128 c 0,1.92 -1.104,3.72 -2.856,3.72 v 0.888 h 2.112 v 6.792 c 0,1.584 0.504,3.24 1.872,3.24 0.888,0 1.656,-0.48 2.304,-1.08 z"
         style="font-size:24px;line-height:1.25"
         id="path248" />
      <path
         d="m 203.98507,63.779522 v -6.72 c 0,-2.256 -1.392,-4.32 -3.48,-4.32 -1.536,0 -2.976,0.528 -4.272,1.344 v 0.744 c 1.08,-0.6 2.28,-0.984 3.528,-0.984 1.488,0 2.352,1.584 2.352,3.216 v 0.432 c -0.936,-0.408 -1.944,-0.648 -2.952,-0.648 -2.568,0 -4.464,1.176 -4.464,3.6 0,2.304 1.68,3.576 4.104,3.576 1.224,0 2.352,-0.552 3.312,-1.32 v 1.08 z m -1.872,-2.088 c -0.72,0.72 -1.608,1.32 -2.64,1.32 -1.608,0 -2.664,-0.984 -2.664,-2.568 0,-1.464 1.2,-2.592 2.664,-2.592 0.912,0 1.824,0.24 2.64,0.648 z"
         style="font-size:24px;line-height:1.25"
         id="path250" />
      <path
         d="m 213.80104,54.467522 v -1.488 c -0.264,-0.096 -0.552,-0.168 -0.816,-0.168 -1.344,0 -2.424,0.936 -3.288,1.968 v -1.8 h -1.872 v 10.8 h 1.872 v -7.992 c 0.72,-0.84 1.632,-1.56 2.736,-1.56 0.456,0 0.936,0.096 1.368,0.24 z"
         style="font-size:24px;line-height:1.25"
         id="path252" />
      <path
         d="m 221.43299,62.939522 v -0.72 c -0.384,0.384 -0.84,0.696 -1.392,0.696 -0.864,0 -0.912,-1.128 -0.912,-2.136 v -6.792 h 2.304 v -1.008 h -2.304 v -3.6 h -1.128 c 0,1.92 -1.104,3.72 -2.856,3.72 v 0.888 h 2.112 v 6.792 c 0,1.584 0.504,3.24 1.872,3.24 0.888,0 1.656,-0.48 2.304,-1.08 z"
         style="font-size:24px;line-height:1.25"
         id="path254" />
      <path
         d="m 234.15295,66.539522 v -1.2 h -12 v 1.2 z"
         style="font-size:24px;line-height:1.25"
         id="path256" />
      <path
         d="m 240.46491,62.939522 v -0.72 c -0.456,0.384 -0.984,0.696 -1.584,0.696 -0.888,0 -1.056,-1.104 -1.056,-2.136 v -7.8 h -1.872 v 7.8 c 0,1.608 0.624,3.24 2.04,3.24 0.912,0 1.776,-0.456 2.472,-1.08 z m -2.4,-13.704 c 0,-0.648 -0.528,-1.176 -1.176,-1.176 -0.648,0 -1.176,0.528 -1.176,1.176 0,0.648 0.528,1.176 1.176,1.176 0.648,0 1.176,-0.528 1.176,-1.176 z"
         style="font-size:24px;line-height:1.25"
         id="path258" />
    </g>
    <g
       aria-label="busy_reg"
       id="text102"
       style="line-height:0%;font-family:Iwona;-inkscape-font-specification:Iwona;text-align:end;letter-spacing:0px;word-spacing:0px;text-anchor:end">
      <path
         d="m 159.80112,112.96588 c 0,-3.192 -1.2,-5.64 -4.104,-5.64 -1.224,0 -2.352,0.552 -3.312,1.32 v -7.08 h -1.872 v 16.8 h 1.872 v -0.552 c 0.912,0.48 1.92,0.792 2.952,0.792 3,0 4.464,-2.4 4.464,-5.64 z m -2.112,0 c 0,2.256 -0.696,4.632 -2.664,4.632 -0.936,0 -1.848,-0.312 -2.64,-0.792 v -7.152 c 0.72,-0.72 1.608,-1.32 2.64,-1.32 2.184,0 2.664,2.112 2.664,4.632 z"
         style="font-size:24px;line-height:1.25"
         id="path261" />
      <path
         d="m 171.60911,118.36588 v -10.8 h -1.872 v 8.472 c -0.816,0.816 -1.824,1.464 -2.952,1.464 -1.128,0 -1.992,-0.984 -1.992,-2.136 v -7.8 h -1.872 v 7.8 c 0,1.752 1.344,3.24 3.072,3.24 1.44,0 2.712,-0.816 3.744,-1.824 v 1.584 z"
         style="font-size:24px;line-height:1.25"
         id="path263" />
      <path
         d="m 182.74507,115.29388 c 0,-1.896 -2.016,-2.88 -3.984,-3.36 -1.152,-0.288 -2.4,-0.768 -2.4,-1.896 0,-1.032 1.056,-1.704 2.208,-1.704 1.272,0 2.544,0.384 3.6,1.08 v -1.008 c -1.056,-0.696 -2.328,-1.08 -3.6,-1.08 -2.088,0 -4.008,1.272 -4.008,3.216 0,1.752 1.944,2.568 3.792,3.024 1.272,0.312 2.592,0.984 2.592,2.208 0,1.128 -1.152,1.824 -2.376,1.824 -1.488,0 -2.928,-0.36 -4.2,-1.08 v 1.008 c 1.272,0.72 2.712,1.08 4.2,1.08 2.16,0 4.176,-1.296 4.176,-3.312 z"
         style="font-size:24px;line-height:1.25"
         id="path265" />
      <path
         d="m 194.31304,119.80588 v -12.24 h -1.872 v 8.472 c -0.816,0.816 -1.824,1.464 -2.952,1.464 -1.128,0 -1.992,-0.984 -1.992,-2.136 v -7.8 h -1.872 v 7.8 c 0,1.752 1.344,3.24 3.072,3.24 1.44,0 2.712,-0.816 3.744,-1.824 v 3.024 c 0,1.608 -0.72,3.216 -2.16,3.216 -1.128,0 -2.208,-0.24 -3.24,-0.648 v 0.744 c 1.224,0.624 2.592,1.008 3.984,1.008 2.04,0 3.288,-2.112 3.288,-4.32 z"
         style="font-size:24px;line-height:1.25"
         id="path267" />
      <path
         d="m 208.233,121.12588 v -1.2 h -12 v 1.2 z"
         style="font-size:24px;line-height:1.25"
         id="path269" />
      <path
         d="m 216.12896,109.05388 v -1.488 c -0.264,-0.096 -0.552,-0.168 -0.816,-0.168 -1.344,0 -2.424,0.936 -3.288,1.968 v -1.8 h -1.872 v 10.8 h 1.872 v -7.992 c 0.72,-0.84 1.632,-1.56 2.736,-1.56 0.456,0 0.936,0.096 1.368,0.24 z"
         style="font-size:24px;line-height:1.25"
         id="path271" />
      <path
         d="m 227.21693,113.20588 v -0.24 c 0,-3.384 -1.848,-5.64 -4.632,-5.64 -2.808,0 -4.656,2.256 -4.656,5.64 0,3.384 1.848,5.64 4.656,5.64 1.2,0 2.376,-0.384 3.36,-1.08 v -1.008 c -1.128,0.72 -2.04,0.984 -3.36,0.984 -2.04,0 -2.544,-1.944 -2.544,-4.296 z m -2.112,-1.008 h -5.064 c 0,-1.92 0.816,-3.864 2.544,-3.864 1.704,0 2.52,1.944 2.52,3.864 z"
         style="font-size:24px;line-height:1.25"
         id="path273" />
      <path
         d="m 239.0249,119.80588 v -12.24 h -1.872 v 0.408 c -0.936,-0.408 -1.944,-0.648 -2.952,-0.648 -3,0 -4.464,2.4 -4.464,5.64 0,3.192 1.2,5.64 4.104,5.64 1.224,0 2.352,-0.552 3.312,-1.32 v 2.52 c 0,1.656 -0.912,3.216 -2.4,3.216 -1.224,0 -2.448,-0.24 -3.6,-0.648 v 0.744 c 1.344,0.624 2.832,1.008 4.32,1.008 2.112,0 3.552,-2.064 3.552,-4.32 z m -1.872,-3.528 c -0.72,0.72 -1.608,1.32 -2.64,1.32 -2.184,0 -2.664,-2.112 -2.664,-4.632 0,-2.256 0.696,-4.632 2.664,-4.632 0.912,0 1.824,0.24 2.64,0.648 z"
         style="font-size:24px;line-height:1.25"
         id="path275" />
    </g>
    <path
       style="fill:none;stroke:#000000;stroke-width:2;stroke-linecap:butt;stroke-linejoin:miter;stroke-miterlimit:4;stroke-dasharray:none;stroke-opacity:1"
       d="m 248.0315,124.01577 h 35.43308 l 3.54331,-35.43307 h 846.85041 l 3.5433,35.43307 h 31.8898"
       id="path104" />
    <g
       aria-label="timer_reg"
       id="text108"
       style="line-height:0%;font-family:Iwona;-inkscape-font-specification:Iwona;text-align:end;letter-spacing:0px;word-spacing:0px;text-anchor:end">
      <path
         d="m 151.71315,170.67549 v -0.72 c -0.384,0.384 -0.84,0.696 -1.392,0.696 -0.864,0 -0.912,-1.128 -0.912,-2.136 v -6.792 h 2.304 v -1.008 h -2.304 v -3.6 h -1.128 c 0,1.92 -1.104,3.72 -2.856,3.72 v 0.888 h 2.112 v 6.792 c 0,1.584 0.504,3.24 1.872,3.24 0.888,0 1.656,-0.48 2.304,-1.08 z"
         style="font-size:24px;line-height:1.25"
         id="path278" />
      <path
         d="m 158.74512,170.67549 v -0.72 c -0.456,0.384 -0.984,0.696 -1.584,0.696 -0.888,0 -1.056,-1.104 -1.056,-2.136 v -7.8 h -1.872 v 7.8 c 0,1.608 0.624,3.24 2.04,3.24 0.912,0 1.776,-0.456 2.472,-1.08 z m -2.4,-13.704 c 0,-0.648 -0.528,-1.176 -1.176,-1.176 -0.648,0 -1.176,0.528 -1.176,1.176 0,0.648 0.528,1.176 1.176,1.176 0.648,0 1.176,-0.528 1.176,-1.176 z"
         style="font-size:24px;line-height:1.25"
         id="path280" />
      <path
         d="m 174.2491,171.51549 v -7.8 c 0,-1.68 -0.984,-3.24 -2.544,-3.24 -1.344,0 -2.592,0.696 -3.312,1.824 -0.384,-1.056 -1.2,-1.824 -2.304,-1.824 -1.248,0 -2.256,0.864 -3.072,1.824 v -1.584 h -1.872 v 10.8 h 1.872 v -8.496 c 0.576,-0.744 1.296,-1.44 2.232,-1.44 0.984,0 1.512,1.056 1.512,2.136 v 7.8 h 1.872 v -7.8 c 0,-0.288 -0.024,-0.552 -0.072,-0.84 0.576,-0.744 1.368,-1.296 2.304,-1.296 0.984,0 1.512,1.056 1.512,2.136 v 7.8 z"
         style="font-size:24px;line-height:1.25"
         id="path282" />
      <path
         d="m 186.65706,166.35549 v -0.24 c 0,-3.384 -1.848,-5.64 -4.632,-5.64 -2.808,0 -4.656,2.256 -4.656,5.64 0,3.384 1.848,5.64 4.656,5.64 1.2,0 2.376,-0.384 3.36,-1.08 v -1.008 c -1.128,0.72 -2.04,0.984 -3.36,0.984 -2.04,0 -2.544,-1.944 -2.544,-4.296 z m -2.112,-1.008 h -5.064 c 0,-1.92 0.816,-3.864 2.544,-3.864 1.704,0 2.52,1.944 2.52,3.864 z"
         style="font-size:24px;line-height:1.25"
         id="path284" />
      <path
         d="m 195.75303,162.20349 v -1.488 c -0.264,-0.096 -0.552,-0.168 -0.816,-0.168 -1.344,0 -2.424,0.936 -3.288,1.968 v -1.8 h -1.872 v 10.8 h 1.872 v -7.992 c 0.72,-0.84 1.632,-1.56 2.736,-1.56 0.456,0 0.936,0.096 1.368,0.24 z"
         style="font-size:24px;line-height:1.25"
         id="path286" />
      <path
         d="m 208.233,174.27549 v -1.2 h -12 v 1.2 z"
         style="font-size:24px;line-height:1.25"
         id="path288" />
      <path
         d="m 216.12896,162.20349 v -1.488 c -0.264,-0.096 -0.552,-0.168 -0.816,-0.168 -1.344,0 -2.424,0.936 -3.288,1.968 v -1.8 h -1.872 v 10.8 h 1.872 v -7.992 c 0.72,-0.84 1.632,-1.56 2.736,-1.56 0.456,0 0.936,0.096 1.368,0.24 z"
         style="font-size:24px;line-height:1.25"
         id="path290" />
      <path
         d="m 227.21693,166.35549 v -0.24 c 0,-3.384 -1.848,-5.64 -4.632,-5.64 -2.808,0 -4.656,2.256 -4.656,5.64 0,3.384 1.848,5.64 4.656,5.64 1.2,0 2.376,-0.384 3.36,-1.08 v -1.008 c -1.128,0.72 -2.04,0.984 -3.36,0.984 -2.04,0 -2.544,-1.944 -2.544,-4.296 z m -2.112,-1.008 h -5.064 c 0,-1.92 0.816,-3.864 2.544,-3.864 1.704,0 2.52,1.944 2.52,3.864 z"
         style="font-size:24px;line-height:1.25"
         id="path292" />
      <path
         d="m 239.0249,172.95549 v -12.24 h -1.872 v 0.408 c -0.936,-0.408 -1.944,-0.648 -2.952,-0.648 -3,0 -4.464,2.4 -4.464,5.64 0,3.192 1.2,5.64 4.104,5.64 1.224,0 2.352,-0.552 3.312,-1.32 v 2.52 c 0,1.656 -0.912,3.216 -2.4,3.216 -1.224,0 -2.448,-0.24 -3.6,-0.648 v 0.744 c 1.344,0.624 2.832,1.008 4.32,1.008 2.112,0 3.552,-2.064 3.552,-4.32 z m -1.872,-3.528 c -0.72,0.72 -1.608,1.32 -2.64,1.32 -2.184,0 -2.664,-2.112 -2.664,-4.632 0,-2.256 0.696,-4.632 2.664,-4.632 0.912,0 1.824,0.24 2.64,0.648 z"
         style="font-size:24px;line-height:1.25"
         id="path294" />
    </g>
    <path
       id="path110"
       d="m 248.0315,141.73231 h 53.14962 l 3.54331,35.43307 h 14.17322 l 3.54331,-35.43307 h 14.17323 l 3.54331,35.43307 h 7.08661"
       style="fill:none;stroke:#000000;stroke-width:2;stroke-linecap:butt;stroke-linejoin:miter;stroke-miterlimit:4;stroke-dasharray:none;stroke-opacity:1" />
    <g
       aria-label="0"
       id="text979"
       style="font-size:15px;line-height:0%;font-family:Iwona;-inkscape-font-specification:Iwona;text-align:center;letter-spacing:0px;word-spacing:0px;text-anchor:middle">
      <path
         d="m 293.84368,159.44884 c 0,-3.555 -1.095,-5.325 -3.285,-5.325 -2.19,0 -3.285,1.77 -3.285,5.325 0,3.555 1.095,5.325 3.285,5.325 2.19,0 3.285,-1.77 3.285,-5.325 z m -1.32,0 c 0,3.135 -0.66,4.695 -1.965,4.695 -1.305,0 -1.965,-1.56 -1.965,-4.695 0,-3.135 0.66,-4.695 1.965,-4.695 1.305,0 1.965,1.56 1.965,4.695 z"
         style="line-height:1.25"
         id="path297" />
    </g>
    <g
       aria-label="1"
       id="text989"
       style="font-size:15px;line-height:0%;font-family:Iwona;-inkscape-font-specification:Iwona;text-align:center;letter-spacing:0px;word-spacing:0px;text-anchor:middle">
      <path
         d="m 312.82354,164.62384 v -10.35 h -0.87 c -0.825,0.945 -1.8,1.755 -2.88,2.385 v 0.63 c 0.915,-0.435 1.77,-0.945 2.58,-1.56 v 8.895 z"
         style="line-height:1.25"
         id="path300" />
    </g>
    <g
       aria-label="2"
       id="text993"
       style="font-size:15px;line-height:0%;font-family:Iwona;-inkscape-font-specification:Iwona;text-align:center;letter-spacing:0px;word-spacing:0px;text-anchor:middle">
      <path
         d="m 332.71509,164.69885 v -0.93 h -5.295 l 2.76,-2.73 c 1.23,-1.23 2.385,-2.67 2.385,-4.41 0,-1.47 -1.455,-2.43 -3.03,-2.43 -1.185,0 -2.31,0.54 -3.045,1.455 v 0.63 c 0.765,-0.885 1.875,-1.395 3.045,-1.395 1.005,0 1.86,0.75 1.86,1.74 0,1.485 -0.69,2.865 -1.71,3.93 l -3.345,3.435 v 0.705 z"
         style="line-height:1.25"
         id="path303" />
    </g>
    <path
       style="fill:none;stroke:#000000;stroke-width:2;stroke-linecap:butt;stroke-linejoin:miter;stroke-miterlimit:4;stroke-dasharray:none;stroke-opacity:1"
       d="m 248.0315,177.16538 h 53.14962 l 3.54331,-35.43307 h 14.17322 l 3.54331,35.43307 h 14.17323 l 3.54331,-35.43307 h 7.08661"
       id="path1021" />
    <path
       id="path985"
       d="m 364.96065,177.16538 h 7.08661 l 3.54331,-35.43307 h 14.17323 l 3.54331,35.43307 h 14.17322 l 3.54331,-35.43307 h 14.17323 l 3.54331,35.43307 h 14.17323 l 3.54331,-35.43307 h 7.08661"
       style="fill:none;stroke:#000000;stroke-width:2;stroke-linecap:butt;stroke-linejoin:miter;stroke-miterlimit:4;stroke-dasharray:none;stroke-opacity:1" />
    <g
       aria-label="TIMER_MAX"
       transform="rotate(-77.505844)"
       id="text1001"
       style="font-size:5.73557px;line-height:0%;font-family:Iwona;-inkscape-font-specification:Iwona;text-align:center;letter-spacing:0px;word-spacing:0px;text-anchor:middle">
      <path
         d="m -86.239592,405.54542 v -0.26384 h -3.154563 v 0.26384 h 1.342123 v 3.75106 h 0.470317 v -3.75106 z"
         style="line-height:1.25"
         id="path306" />
      <path
         d="m -85.081017,409.29648 v -4.0149 h -0.470317 v 4.0149 z"
         style="line-height:1.25"
         id="path308" />
      <path
         d="m -79.718261,409.29648 -0.229423,-4.0149 h -0.378548 l -1.611695,3.38972 -1.617431,-3.38972 h -0.378547 l -0.229423,4.0149 h 0.263836 l 0.183539,-3.25207 1.554339,3.25207 h 0.212216 l 1.571546,-3.29222 0.189274,3.29222 z"
         style="line-height:1.25"
         id="path310" />
      <path
         d="m -75.932794,409.29648 v -0.26384 h -2.397468 v -1.61169 h 1.823911 v -0.26384 h -1.823911 v -1.61169 h 2.259815 v -0.26384 h -2.730132 v 4.0149 z"
         style="line-height:1.25"
         id="path312" />
      <path
         d="m -71.894953,409.29648 -1.221676,-1.81818 c 0.625177,-0.12044 1.055345,-0.46458 1.055345,-1.10696 0,-0.80872 -0.694004,-1.14712 -1.594489,-1.14712 -0.321192,0 -0.642384,0.0172 -0.95784,0.0574 h -0.458846 v 4.0149 h 0.470317 v -1.86406 c 0.309721,0.0574 0.630913,0.0918 0.946369,0.0918 l 1.198734,1.77229 z m -0.728417,-2.92514 c 0,0.52193 -0.487524,0.88901 -1.032403,0.88901 -0.315456,0 -0.636648,-0.0344 -0.946369,-0.0918 v -1.62316 c 0.315457,-0.0401 0.630913,-0.0574 0.946369,-0.0574 0.544879,0 1.032403,0.36708 1.032403,0.88328 z"
         style="line-height:1.25"
         id="path314" />
      <path
         d="m -68.969815,409.95607 v -0.28678 H -71.8376 v 0.28678 z"
         style="line-height:1.25"
         id="path316" />
      <path
         d="m -64.180626,409.29648 -0.229423,-4.0149 h -0.378548 l -1.611695,3.38972 -1.617431,-3.38972 h -0.378547 l -0.229423,4.0149 h 0.263836 l 0.183538,-3.25207 1.55434,3.25207 h 0.212216 l 1.571546,-3.29222 0.189274,3.29222 z"
         style="line-height:1.25"
         id="path318" />
      <path
         d="m -60.337802,409.29648 -1.456835,-4.0149 h -0.498994 l -1.485513,4.0149 h 0.281043 l 0.521937,-1.40522 h 1.628902 l 0.510465,1.40522 z m -1.106965,-1.66905 h -1.433893 l 0.722682,-1.96157 z"
         style="line-height:1.25"
         id="path320" />
      <path
         d="m -56.73587,409.29648 -1.451099,-2.17952 1.313445,-1.83538 h -0.326927 l -1.141379,1.60022 -1.066816,-1.60022 h -0.562086 l 1.313446,1.97877 -1.451099,2.03613 h 0.326927 l 1.284768,-1.80097 1.198734,1.80097 z"
         style="line-height:1.25"
         id="path322" />
    </g>
    <g
       aria-label="0"
       id="text1005"
       style="font-size:15px;line-height:0%;font-family:Iwona;-inkscape-font-specification:Iwona;text-align:center;letter-spacing:0px;word-spacing:0px;text-anchor:middle">
      <path
         d="m 404.39788,159.44884 c 0,-3.555 -1.095,-5.325 -3.285,-5.325 -2.19,0 -3.285,1.77 -3.285,5.325 0,3.555 1.095,5.325 3.285,5.325 2.19,0 3.285,-1.77 3.285,-5.325 z m -1.32,0 c 0,3.135 -0.66,4.695 -1.965,4.695 -1.305,0 -1.965,-1.56 -1.965,-4.695 0,-3.135 0.66,-4.695 1.965,-4.695 1.305,0 1.965,1.56 1.965,4.695 z"
         style="line-height:1.25"
         id="path325" />
    </g>
    <g
       aria-label="1"
       id="text1009"
       style="font-size:15px;line-height:0%;font-family:Iwona;-inkscape-font-specification:Iwona;text-align:center;letter-spacing:0px;word-spacing:0px;text-anchor:middle">
      <path
         d="m 419.8344,164.62384 v -10.35 h -0.87 c -0.825,0.945 -1.8,1.755 -2.88,2.385 v 0.63 c 0.915,-0.435 1.77,-0.945 2.58,-1.56 v 8.895 z"
         style="line-height:1.25"
         id="path328" />
    </g>
    <g
       aria-label="2"
       id="text1013"
       style="font-size:15px;line-height:0%;font-family:Iwona;-inkscape-font-specification:Iwona;text-align:center;letter-spacing:0px;word-spacing:0px;text-anchor:middle">
      <path
         d="m 439.01432,164.69885 v -0.93 h -5.295 l 2.76,-2.73 c 1.23,-1.23 2.385,-2.67 2.385,-4.41 0,-1.47 -1.455,-2.43 -3.03,-2.43 -1.185,0 -2.31,0.54 -3.045,1.455 v 0.63 c 0.765,-0.885 1.875,-1.395 3.045,-1.395 1.005,0 1.86,0.75 1.86,1.74 0,1.485 -0.69,2.865 -1.71,3.93 l -3.345,3.435 v 0.705 z"
         style="line-height:1.25"
         id="path331" />
    </g>
    <path
       style="fill:none;stroke:#000000;stroke-width:1.99969;stroke-linecap:butt;stroke-linejoin:miter;stroke-miterlimit:4;stroke-dasharray:1.99969, 1.99969;stroke-dashoffset:0;stroke-opacity:1"
       d="m 347.24411,177.16538 h 14.17323"
       id="path1017" />
    <path
       style="fill:none;stroke:#000000;stroke-width:2;stroke-linecap:butt;stroke-linejoin:miter;stroke-miterlimit:4;stroke-dasharray:none;stroke-opacity:1"
       d="m 364.96065,141.73231 h 7.08661 l 3.54331,35.43307 h 14.17323 l 3.54331,-35.43307 h 14.17322 l 3.54331,35.43307 h 14.17323 l 3.54331,-35.43307 h 14.17323 l 3.54331,35.43307 h 7.08661"
       id="path1019" />
    <path
       id="path1023"
       d="m 347.24411,141.73231 h 14.17323"
       style="fill:none;stroke:#000000;stroke-width:1.99969;stroke-linecap:butt;stroke-linejoin:miter;stroke-miterlimit:4;stroke-dasharray:1.99969, 1.99969;stroke-dashoffset:0;stroke-opacity:1" />
    <path
       style="fill:none;stroke:#000000;stroke-width:2;stroke-linecap:butt;stroke-linejoin:miter;stroke-miterlimit:4;stroke-dasharray:none;stroke-opacity:1"
       d="m 471.25986,177.16538 h 7.08661 l 3.54331,-35.43307 h 14.17323 l 3.54331,35.43307 h 14.17322 l 3.54331,-35.43307 h 14.17323 l 3.54331,35.43307 h 14.17323 l 3.54331,-35.43307 h 7.08661"
       id="path1039" />
    <g
       aria-label="TIMER_MAX"
       transform="rotate(-77.505844)"
       id="text1043"
       style="font-size:5.73557px;line-height:0%;font-family:Iwona;-inkscape-font-specification:Iwona;text-align:center;letter-spacing:0px;word-spacing:0px;text-anchor:middle">
      <path
         d="m -63.242819,509.32725 v -0.26384 h -3.154564 v 0.26384 h 1.342124 v 3.75106 h 0.470316 v -3.75106 z"
         style="line-height:1.25"
         id="path334" />
      <path
         d="m -62.084244,513.07831 v -4.0149 h -0.470317 v 4.0149 z"
         style="line-height:1.25"
         id="path336" />
      <path
         d="m -56.721488,513.07831 -0.229423,-4.0149 h -0.378548 l -1.611695,3.38972 -1.617431,-3.38972 h -0.378547 l -0.229423,4.0149 h 0.263836 l 0.183538,-3.25207 1.55434,3.25207 h 0.212216 l 1.571546,-3.29222 0.189274,3.29222 z"
         style="line-height:1.25"
         id="path338" />
      <path
         d="m -52.936021,513.07831 v -0.26384 h -2.397468 v -1.61169 h 1.823911 v -0.26384 h -1.823911 v -1.61169 h 2.259814 v -0.26384 h -2.730131 v 4.0149 z"
         style="line-height:1.25"
         id="path340" />
      <path
         d="m -48.89818,513.07831 -1.221676,-1.81818 c 0.625177,-0.12044 1.055344,-0.46458 1.055344,-1.10696 0,-0.80872 -0.694004,-1.14712 -1.594488,-1.14712 -0.321192,0 -0.642384,0.0172 -0.95784,0.0574 h -0.458846 v 4.0149 h 0.470317 v -1.86406 c 0.309721,0.0573 0.630913,0.0918 0.946369,0.0918 l 1.198734,1.77229 z m -0.728417,-2.92514 c 0,0.52193 -0.487524,0.88901 -1.032403,0.88901 -0.315456,0 -0.636648,-0.0344 -0.946369,-0.0918 v -1.62316 c 0.315456,-0.0401 0.630913,-0.0574 0.946369,-0.0574 0.544879,0 1.032403,0.36708 1.032403,0.88328 z"
         style="line-height:1.25"
         id="path342" />
      <path
         d="m -45.973043,513.7379 v -0.28678 h -2.867785 v 0.28678 z"
         style="line-height:1.25"
         id="path344" />
      <path
         d="m -41.183854,513.07831 -0.229422,-4.0149 h -0.378548 l -1.611695,3.38972 -1.617431,-3.38972 h -0.378548 l -0.229422,4.0149 h 0.263836 l 0.183538,-3.25207 1.55434,3.25207 h 0.212216 l 1.571546,-3.29222 0.189274,3.29222 z"
         style="line-height:1.25"
         id="path346" />
      <path
         d="m -37.341029,513.07831 -1.456835,-4.0149 h -0.498995 l -1.485512,4.0149 h 0.281043 l 0.521936,-1.40522 h 1.628902 l 0.510466,1.40522 z m -1.106965,-1.66905 h -1.433893 l 0.722682,-1.96157 z"
         style="line-height:1.25"
         id="path348" />
      <path
         d="m -33.739097,513.07831 -1.4511,-2.17952 1.313446,-1.83538 h -0.326928 l -1.141378,1.60022 -1.066816,-1.60022 h -0.562086 l 1.313446,1.97877 -1.451099,2.03613 h 0.326927 l 1.284768,-1.80097 1.198734,1.80097 z"
         style="line-height:1.25"
         id="path350" />
    </g>
    <g
       aria-label="0"
       id="text1047"
       style="font-size:15px;line-height:0%;font-family:Iwona;-inkscape-font-specification:Iwona;text-align:center;letter-spacing:0px;word-spacing:0px;text-anchor:middle">
      <path
         d="m 510.6971,159.44884 c 0,-3.555 -1.095,-5.325 -3.285,-5.325 -2.19,0 -3.285,1.77 -3.285,5.325 0,3.555 1.095,5.325 3.285,5.325 2.19,0 3.285,-1.77 3.285,-5.325 z m -1.32,0 c 0,3.135 -0.66,4.695 -1.965,4.695 -1.305,0 -1.965,-1.56 -1.965,-4.695 0,-3.135 0.66,-4.695 1.965,-4.695 1.305,0 1.965,1.56 1.965,4.695 z"
         style="line-height:1.25"
         id="path353" />
    </g>
    <g
       aria-label="1"
       id="text1051"
       style="font-size:15px;line-height:0%;font-family:Iwona;-inkscape-font-specification:Iwona;text-align:center;letter-spacing:0px;word-spacing:0px;text-anchor:middle">
      <path
         d="m 526.1336,164.62384 v -10.35 h -0.87 c -0.825,0.945 -1.8,1.755 -2.88,2.385 v 0.63 c 0.915,-0.435 1.77,-0.945 2.58,-1.56 v 8.895 z"
         style="line-height:1.25"
         id="path356" />
    </g>
    <g
       aria-label="2"
       id="text1055"
       style="font-size:15px;line-height:0%;font-family:Iwona;-inkscape-font-specification:Iwona;text-align:center;letter-spacing:0px;word-spacing:0px;text-anchor:middle">
      <path
         d="m 545.31354,164.69885 v -0.93 h -5.295 l 2.76,-2.73 c 1.23,-1.23 2.385,-2.67 2.385,-4.41 0,-1.47 -1.455,-2.43 -3.03,-2.43 -1.185,0 -2.31,0.54 -3.045,1.455 v 0.63 c 0.765,-0.885 1.875,-1.395 3.045,-1.395 1.005,0 1.86,0.75 1.86,1.74 0,1.485 -0.69,2.865 -1.71,3.93 l -3.345,3.435 v 0.705 z"
         style="line-height:1.25"
         id="path359" />
    </g>
    <path
       id="path1057"
       d="m 453.54332,177.16538 h 14.17323"
       style="fill:none;stroke:#000000;stroke-width:1.99969;stroke-linecap:butt;stroke-linejoin:miter;stroke-miterlimit:4;stroke-dasharray:1.99969, 1.99969;stroke-dashoffset:0;stroke-opacity:1" />
    <path
       id="path1059"
       d="m 471.25986,141.73231 h 7.08661 l 3.54331,35.43307 h 14.17323 l 3.54331,-35.43307 h 14.17322 l 3.54331,35.43307 h 14.17323 l 3.54331,-35.43307 h 14.17323 l 3.54331,35.43307 h 7.08661"
       style="fill:none;stroke:#000000;stroke-width:2;stroke-linecap:butt;stroke-linejoin:miter;stroke-miterlimit:4;stroke-dasharray:none;stroke-opacity:1" />
    <path
       style="fill:none;stroke:#000000;stroke-width:1.99969;stroke-linecap:butt;stroke-linejoin:miter;stroke-miterlimit:4;stroke-dasharray:1.99969, 1.99969;stroke-dashoffset:0;stroke-opacity:1"
       d="m 453.54332,141.73231 h 14.17323"
       id="path1061" />
    <path
       id="path1065"
       d="m 577.55908,177.16538 h 7.08661 l 3.54331,-35.43307 h 14.17323 l 3.54331,35.43307 h 14.17322 l 3.54331,-35.43307 h 14.17323 l 3.54331,35.43307 h 14.17323 l 3.54331,-35.43307 h 7.08661"
       style="fill:none;stroke:#000000;stroke-width:2;stroke-linecap:butt;stroke-linejoin:miter;stroke-miterlimit:4;stroke-dasharray:none;stroke-opacity:1" />
    <g
       aria-label="TIMER_MAX"
       transform="rotate(-77.505844)"
       id="text1069"
       style="font-size:5.73557px;line-height:0%;font-family:Iwona;-inkscape-font-specification:Iwona;text-align:center;letter-spacing:0px;word-spacing:0px;text-anchor:middle">
      <path
         d="m -40.246041,613.10911 v -0.26384 h -3.154563 v 0.26384 h 1.342123 v 3.75106 h 0.470317 v -3.75106 z"
         style="line-height:1.25"
         id="path362" />
      <path
         d="m -39.087466,616.86017 v -4.0149 h -0.470316 v 4.0149 z"
         style="line-height:1.25"
         id="path364" />
      <path
         d="m -33.72471,616.86017 -0.229423,-4.0149 h -0.378547 l -1.611696,3.38972 -1.61743,-3.38972 h -0.378548 l -0.229423,4.0149 h 0.263837 l 0.183538,-3.25207 1.554339,3.25207 h 0.212216 l 1.571547,-3.29222 0.189273,3.29222 z"
         style="line-height:1.25"
         id="path366" />
      <path
         d="m -29.939242,616.86017 v -0.26384 h -2.397469 v -1.61169 h 1.823912 v -0.26384 h -1.823912 v -1.61169 h 2.259815 v -0.26384 h -2.730131 v 4.0149 z"
         style="line-height:1.25"
         id="path368" />
      <path
         d="m -25.901402,616.86017 -1.221676,-1.81818 c 0.625177,-0.12044 1.055345,-0.46458 1.055345,-1.10696 0,-0.80872 -0.694004,-1.14712 -1.594489,-1.14712 -0.321191,0 -0.642383,0.0172 -0.95784,0.0574 h -0.458845 v 4.0149 h 0.470316 v -1.86406 c 0.309721,0.0573 0.630913,0.0918 0.946369,0.0918 l 1.198735,1.77229 z m -0.728417,-2.92514 c 0,0.52193 -0.487523,0.88901 -1.032403,0.88901 -0.315456,0 -0.636648,-0.0344 -0.946369,-0.0918 v -1.62316 c 0.315457,-0.0402 0.630913,-0.0574 0.946369,-0.0574 0.54488,0 1.032403,0.36708 1.032403,0.88328 z"
         style="line-height:1.25"
         id="path370" />
      <path
         d="m -22.976264,617.51976 v -0.28678 h -2.867785 v 0.28678 z"
         style="line-height:1.25"
         id="path372" />
      <path
         d="m -18.187075,616.86017 -0.229423,-4.0149 h -0.378548 l -1.611695,3.38972 -1.61743,-3.38972 h -0.378548 l -0.229423,4.0149 h 0.263836 l 0.183539,-3.25207 1.554339,3.25207 h 0.212216 l 1.571546,-3.29222 0.189274,3.29222 z"
         style="line-height:1.25"
         id="path374" />
      <path
         d="m -14.344251,616.86017 -1.456835,-4.0149 h -0.498994 l -1.485513,4.0149 h 0.281043 l 0.521937,-1.40522 h 1.628902 l 0.510466,1.40522 z m -1.106965,-1.66905 h -1.433892 l 0.722681,-1.96157 z"
         style="line-height:1.25"
         id="path376" />
      <path
         d="m -10.742319,616.86017 -1.451099,-2.17952 1.313445,-1.83538 H -11.2069 l -1.141378,1.60022 -1.066816,-1.60022 h -0.562086 l 1.313445,1.97877 -1.451099,2.03613 h 0.326927 l 1.284768,-1.80097 1.198734,1.80097 z"
         style="line-height:1.25"
         id="path378" />
    </g>
    <g
       aria-label="0"
       id="text1073"
       style="font-size:15px;line-height:0%;font-family:Iwona;-inkscape-font-specification:Iwona;text-align:center;letter-spacing:0px;word-spacing:0px;text-anchor:middle">
      <path
         d="m 616.9963,159.44884 c 0,-3.555 -1.095,-5.325 -3.285,-5.325 -2.19,0 -3.285,1.77 -3.285,5.325 0,3.555 1.095,5.325 3.285,5.325 2.19,0 3.285,-1.77 3.285,-5.325 z m -1.32,0 c 0,3.135 -0.66,4.695 -1.965,4.695 -1.305,0 -1.965,-1.56 -1.965,-4.695 0,-3.135 0.66,-4.695 1.965,-4.695 1.305,0 1.965,1.56 1.965,4.695 z"
         style="line-height:1.25"
         id="path381" />
    </g>
    <g
       aria-label="1"
       id="text1077"
       style="font-size:15px;line-height:0%;font-family:Iwona;-inkscape-font-specification:Iwona;text-align:center;letter-spacing:0px;word-spacing:0px;text-anchor:middle">
      <path
         d="m 632.43285,164.62384 v -10.35 h -0.87 c -0.825,0.945 -1.8,1.755 -2.88,2.385 v 0.63 c 0.915,-0.435 1.77,-0.945 2.58,-1.56 v 8.895 z"
         style="line-height:1.25"
         id="path384" />
    </g>
    <g
       aria-label="2"
       id="text1081"
       style="font-size:15px;line-height:0%;font-family:Iwona;-inkscape-font-specification:Iwona;text-align:center;letter-spacing:0px;word-spacing:0px;text-anchor:middle">
      <path
         d="m 651.61273,164.69885 v -0.93 h -5.295 l 2.76,-2.73 c 1.23,-1.23 2.385,-2.67 2.385,-4.41 0,-1.47 -1.455,-2.43 -3.03,-2.43 -1.185,0 -2.31,0.54 -3.045,1.455 v 0.63 c 0.765,-0.885 1.875,-1.395 3.045,-1.395 1.005,0 1.86,0.75 1.86,1.74 0,1.485 -0.69,2.865 -1.71,3.93 l -3.345,3.435 v 0.705 z"
         style="line-height:1.25"
         id="path387" />
    </g>
    <path
       style="fill:none;stroke:#000000;stroke-width:1.99969;stroke-linecap:butt;stroke-linejoin:miter;stroke-miterlimit:4;stroke-dasharray:1.99969, 1.99969;stroke-dashoffset:0;stroke-opacity:1"
       d="m 559.84254,177.16538 h 14.17323"
       id="path1083" />
    <path
       style="fill:none;stroke:#000000;stroke-width:2;stroke-linecap:butt;stroke-linejoin:miter;stroke-miterlimit:4;stroke-dasharray:none;stroke-opacity:1"
       d="m 577.55908,141.73231 h 7.08661 l 3.54331,35.43307 h 14.17323 l 3.54331,-35.43307 h 14.17322 l 3.54331,35.43307 h 14.17323 l 3.54331,-35.43307 h 14.17323 l 3.54331,35.43307 h 7.08661"
       id="path1085" />
    <path
       id="path1087"
       d="m 559.84254,141.73231 h 14.17323"
       style="fill:none;stroke:#000000;stroke-width:1.99969;stroke-linecap:butt;stroke-linejoin:miter;stroke-miterlimit:4;stroke-dasharray:1.99969, 1.99969;stroke-dashoffset:0;stroke-opacity:1" />
    <path
       style="fill:none;stroke:#000000;stroke-width:2;stroke-linecap:butt;stroke-linejoin:miter;stroke-miterlimit:4;stroke-dasharray:none;stroke-opacity:1"
       d="m 683.85829,177.16538 h 7.08661 l 3.54331,-35.43307 h 14.17323 l 3.54331,35.43307 h 14.17322 l 3.54331,-35.43307 h 14.17323 l 3.54331,35.43307 h 14.17323 l 3.54331,-35.43307 h 7.08661"
       id="path1091" />
    <g
       aria-label="TIMER_MAX"
       transform="rotate(-77.505844)"
       id="text1095"
       style="font-size:5.73557px;line-height:0%;font-family:Iwona;-inkscape-font-specification:Iwona;text-align:center;letter-spacing:0px;word-spacing:0px;text-anchor:middle">
      <path
         d="m -17.249262,716.89097 v -0.26384 h -3.154563 v 0.26384 h 1.342123 v 3.75106 h 0.470317 v -3.75106 z"
         style="line-height:1.25"
         id="path390" />
      <path
         d="m -16.090687,720.64203 v -4.0149 h -0.470316 v 4.0149 z"
         style="line-height:1.25"
         id="path392" />
      <path
         d="m -10.727931,720.64203 -0.229423,-4.0149 h -0.378547 l -1.611696,3.38972 -1.61743,-3.38972 h -0.378548 l -0.229423,4.0149 h 0.263837 l 0.183538,-3.25207 1.554339,3.25207 h 0.212216 l 1.571546,-3.29222 0.189274,3.29222 z"
         style="line-height:1.25"
         id="path394" />
      <path
         d="m -6.9424634,720.64203 v -0.26384 h -2.3974682 v -1.61169 h 1.8239112 v -0.26384 h -1.8239112 v -1.61169 h 2.2598145 v -0.26384 h -2.7301313 v 4.0149 z"
         style="line-height:1.25"
         id="path396" />
      <path
         d="m -2.9046226,720.64203 -1.2216764,-1.81818 c 0.6251771,-0.12044 1.0553449,-0.46458 1.0553449,-1.10696 0,-0.80872 -0.694004,-1.14712 -1.5944885,-1.14712 -0.3211919,0 -0.6423838,0.0172 -0.9578401,0.0574 h -0.4588456 v 4.0149 h 0.4703167 v -1.86406 c 0.3097208,0.0574 0.6309127,0.0918 0.946369,0.0918 l 1.1987342,1.77229 z M -3.63304,717.71689 c 0,0.52193 -0.4875234,0.88901 -1.0324026,0.88901 -0.3154563,0 -0.6366482,-0.0344 -0.946369,-0.0918 v -1.62316 c 0.3154563,-0.0402 0.6309127,-0.0574 0.946369,-0.0574 0.5448792,0 1.0324026,0.36708 1.0324026,0.88328 z"
         style="line-height:1.25"
         id="path398" />
      <path
         d="m 0.02051488,721.30162 v -0.28678 H -2.8472701 v 0.28678 z"
         style="line-height:1.25"
         id="path400" />
      <path
         d="m 4.8097039,720.64203 -0.2294228,-4.0149 H 4.2017335 l -1.6116952,3.38972 -1.61743073,-3.38972 H 0.59405995 l -0.2294228,4.0149 h 0.26383622 l 0.18353824,-3.25207 1.55433949,3.25207 h 0.2122161 l 1.5715461,-3.29222 0.1892738,3.29222 z"
         style="line-height:1.25"
         id="path402" />
      <path
         d="m 8.6525281,720.64203 -1.4568348,-4.0149 H 6.6966988 l -1.4855127,4.0149 h 0.281043 l 0.5219368,-1.40522 h 1.6289019 l 0.5104657,1.40522 z m -1.106965,-1.66905 H 6.1116706 l 0.7226818,-1.96157 z"
         style="line-height:1.25"
         id="path404" />
      <path
         d="m 12.25446,720.64203 -1.451099,-2.17952 1.313445,-1.83538 h -0.326927 l -1.141378,1.60022 -1.0668165,-1.60022 H 9.0195987 l 1.3134453,1.97877 -1.451099,2.03613 h 0.3269275 l 1.2847675,-1.80097 1.198734,1.80097 z"
         style="line-height:1.25"
         id="path406" />
    </g>
    <g
       aria-label="0"
       id="text1099"
       style="font-size:15px;line-height:0%;font-family:Iwona;-inkscape-font-specification:Iwona;text-align:center;letter-spacing:0px;word-spacing:0px;text-anchor:middle">
      <path
         d="m 723.29549,159.44884 c 0,-3.555 -1.095,-5.325 -3.285,-5.325 -2.19,0 -3.285,1.77 -3.285,5.325 0,3.555 1.095,5.325 3.285,5.325 2.19,0 3.285,-1.77 3.285,-5.325 z m -1.32,0 c 0,3.135 -0.66,4.695 -1.965,4.695 -1.305,0 -1.965,-1.56 -1.965,-4.695 0,-3.135 0.66,-4.695 1.965,-4.695 1.305,0 1.965,1.56 1.965,4.695 z"
         style="line-height:1.25"
         id="path409" />
    </g>
    <g
       aria-label="1"
       id="text1103"
       style="font-size:15px;line-height:0%;font-family:Iwona;-inkscape-font-specification:Iwona;text-align:center;letter-spacing:0px;word-spacing:0px;text-anchor:middle">
      <path
         d="m 738.73205,164.62384 v -10.35 h -0.87 c -0.825,0.945 -1.8,1.755 -2.88,2.385 v 0.63 c 0.915,-0.435 1.77,-0.945 2.58,-1.56 v 8.895 z"
         style="line-height:1.25"
         id="path412" />
    </g>
    <g
       aria-label="2"
       id="text1107"
       style="font-size:15px;line-height:0%;font-family:Iwona;-inkscape-font-specification:Iwona;text-align:center;letter-spacing:0px;word-spacing:0px;text-anchor:middle">
      <path
         d="m 757.91193,164.69885 v -0.93 h -5.295 l 2.76,-2.73 c 1.23,-1.23 2.385,-2.67 2.385,-4.41 0,-1.47 -1.455,-2.43 -3.03,-2.43 -1.185,0 -2.31,0.54 -3.045,1.455 v 0.63 c 0.765,-0.885 1.875,-1.395 3.045,-1.395 1.005,0 1.86,0.75 1.86,1.74 0,1.485 -0.69,2.865 -1.71,3.93 l -3.345,3.435 v 0.705 z"
         style="line-height:1.25"
         id="path415" />
    </g>
    <path
       id="path1109"
       d="m 666.14175,177.16538 h 14.17323"
       style="fill:none;stroke:#000000;stroke-width:1.99969;stroke-linecap:butt;stroke-linejoin:miter;stroke-miterlimit:4;stroke-dasharray:1.99969, 1.99969;stroke-dashoffset:0;stroke-opacity:1" />
    <path
       id="path1111"
       d="m 683.85829,141.73231 h 7.08661 l 3.54331,35.43307 h 14.17323 l 3.54331,-35.43307 h 14.17322 l 3.54331,35.43307 h 14.17323 l 3.54331,-35.43307 h 14.17323 l 3.54331,35.43307 h 7.08661"
       style="fill:none;stroke:#000000;stroke-width:2;stroke-linecap:butt;stroke-linejoin:miter;stroke-miterlimit:4;stroke-dasharray:none;stroke-opacity:1" />
    <path
       style="fill:none;stroke:#000000;stroke-width:1.99969;stroke-linecap:butt;stroke-linejoin:miter;stroke-miterlimit:4;stroke-dasharray:1.99969, 1.99969;stroke-dashoffset:0;stroke-opacity:1"
       d="m 666.14175,141.73231 h 14.17323"
       id="path1113" />
    <path
       id="path1117"
       d="m 790.15751,177.16538 h 7.08661 l 3.54331,-35.43307 h 14.17323 l 3.54331,35.43307 h 14.17322 l 3.54331,-35.43307 h 14.17323 l 3.54331,35.43307 h 14.17323 l 3.54331,-35.43307 h 7.08661"
       style="fill:none;stroke:#000000;stroke-width:2;stroke-linecap:butt;stroke-linejoin:miter;stroke-miterlimit:4;stroke-dasharray:none;stroke-opacity:1" />
    <g
       aria-label="TIMER_MAX"
       transform="rotate(-77.505844)"
       id="text1121"
       style="font-size:5.73557px;line-height:0%;font-family:Iwona;-inkscape-font-specification:Iwona;text-align:center;letter-spacing:0px;word-spacing:0px;text-anchor:middle">
      <path
         d="m 5.7475048,820.67277 v -0.26384 H 2.5929413 v 0.26384 h 1.3421234 v 3.75106 h 0.4703167 v -3.75106 z"
         style="line-height:1.25"
         id="path418" />
      <path
         d="m 6.9060799,824.42383 v -4.0149 H 6.4357631 v 4.0149 z"
         style="line-height:1.25"
         id="path420" />
      <path
         d="m 12.268836,824.42383 -0.229423,-4.0149 h -0.378548 l -1.611695,3.38972 -1.6174307,-3.38972 H 8.0531917 l -0.2294228,4.0149 h 0.2638362 l 0.1835382,-3.25207 1.5543395,3.25207 h 0.2122162 l 1.571546,-3.29222 0.189274,3.29222 z"
         style="line-height:1.25"
         id="path422" />
      <path
         d="m 16.054303,824.42383 v -0.26384 h -2.397468 v -1.61169 h 1.823911 v -0.26384 h -1.823911 v -1.61169 h 2.259814 v -0.26384 h -2.730131 v 4.0149 z"
         style="line-height:1.25"
         id="path424" />
      <path
         d="m 20.092144,824.42383 -1.221676,-1.81818 c 0.625177,-0.12044 1.055344,-0.46458 1.055344,-1.10696 0,-0.80872 -0.694004,-1.14712 -1.594488,-1.14712 -0.321192,0 -0.642384,0.0172 -0.95784,0.0574 h -0.458846 v 4.0149 h 0.470317 v -1.86406 c 0.309721,0.0574 0.630913,0.0918 0.946369,0.0918 l 1.198734,1.77229 z m -0.728417,-2.92514 c 0,0.52193 -0.487524,0.88901 -1.032403,0.88901 -0.315456,0 -0.636648,-0.0344 -0.946369,-0.0918 v -1.62316 c 0.315456,-0.0402 0.630913,-0.0574 0.946369,-0.0574 0.544879,0 1.032403,0.36708 1.032403,0.88328 z"
         style="line-height:1.25"
         id="path426" />
      <path
         d="m 23.017281,825.08342 v -0.28678 h -2.867785 v 0.28678 z"
         style="line-height:1.25"
         id="path428" />
      <path
         d="m 27.80647,824.42383 -0.229422,-4.0149 H 27.1985 l -1.611695,3.38972 -1.617431,-3.38972 h -0.378547 l -0.229423,4.0149 h 0.263836 l 0.183538,-3.25207 1.55434,3.25207 h 0.212216 l 1.571546,-3.29222 0.189274,3.29222 z"
         style="line-height:1.25"
         id="path430" />
      <path
         d="m 31.649295,824.42383 -1.456835,-4.0149 h -0.498995 l -1.485512,4.0149 h 0.281043 l 0.521936,-1.40522 h 1.628902 l 0.510466,1.40522 z m -1.106965,-1.66905 h -1.433893 l 0.722682,-1.96157 z"
         style="line-height:1.25"
         id="path432" />
      <path
         d="m 35.251227,824.42383 -1.4511,-2.17952 1.313446,-1.83538 h -0.326927 l -1.141379,1.60022 -1.066816,-1.60022 h -0.562086 l 1.313446,1.97877 -1.451099,2.03613 h 0.326927 l 1.284768,-1.80097 1.198734,1.80097 z"
         style="line-height:1.25"
         id="path434" />
    </g>
    <g
       aria-label="0"
       id="text1125"
       style="font-size:15px;line-height:0%;font-family:Iwona;-inkscape-font-specification:Iwona;text-align:center;letter-spacing:0px;word-spacing:0px;text-anchor:middle">
      <path
         d="m 829.59475,159.44884 c 0,-3.555 -1.095,-5.325 -3.285,-5.325 -2.19,0 -3.285,1.77 -3.285,5.325 0,3.555 1.095,5.325 3.285,5.325 2.19,0 3.285,-1.77 3.285,-5.325 z m -1.32,0 c 0,3.135 -0.66,4.695 -1.965,4.695 -1.305,0 -1.965,-1.56 -1.965,-4.695 0,-3.135 0.66,-4.695 1.965,-4.695 1.305,0 1.965,1.56 1.965,4.695 z"
         style="line-height:1.25"
         id="path437" />
    </g>
    <g
       aria-label="1"
       id="text1129"
       style="font-size:15px;line-height:0%;font-family:Iwona;-inkscape-font-specification:Iwona;text-align:center;letter-spacing:0px;word-spacing:0px;text-anchor:middle">
      <path
         d="m 845.03124,164.62384 v -10.35 h -0.87 c -0.825,0.945 -1.8,1.755 -2.88,2.385 v 0.63 c 0.915,-0.435 1.77,-0.945 2.58,-1.56 v 8.895 z"
         style="line-height:1.25"
         id="path440" />
    </g>
    <g
       aria-label="2"
       id="text1133"
       style="font-size:15px;line-height:0%;font-family:Iwona;-inkscape-font-specification:Iwona;text-align:center;letter-spacing:0px;word-spacing:0px;text-anchor:middle">
      <path
         d="m 864.21118,164.69885 v -0.93 h -5.295 l 2.76,-2.73 c 1.23,-1.23 2.385,-2.67 2.385,-4.41 0,-1.47 -1.455,-2.43 -3.03,-2.43 -1.185,0 -2.31,0.54 -3.045,1.455 v 0.63 c 0.765,-0.885 1.875,-1.395 3.045,-1.395 1.005,0 1.86,0.75 1.86,1.74 0,1.485 -0.69,2.865 -1.71,3.93 l -3.345,3.435 v 0.705 z"
         style="line-height:1.25"
         id="path443" />
    </g>
    <path
       style="fill:none;stroke:#000000;stroke-width:1.99969;stroke-linecap:butt;stroke-linejoin:miter;stroke-miterlimit:4;stroke-dasharray:1.99969, 1.99969;stroke-dashoffset:0;stroke-opacity:1"
       d="M 772.44097,177.16538 H 786.6142"
       id="path1135" />
    <path
       style="fill:none;stroke:#000000;stroke-width:2;stroke-linecap:butt;stroke-linejoin:miter;stroke-miterlimit:4;stroke-dasharray:none;stroke-opacity:1"
       d="m 790.15751,141.73231 h 7.08661 l 3.54331,35.43307 h 14.17323 l 3.54331,-35.43307 h 14.17322 l 3.54331,35.43307 h 14.17323 l 3.54331,-35.43307 h 14.17323 l 3.54331,35.43307 h 7.08661"
       id="path1137" />
    <path
       id="path1139"
       d="M 772.44097,141.73231 H 786.6142"
       style="fill:none;stroke:#000000;stroke-width:1.99969;stroke-linecap:butt;stroke-linejoin:miter;stroke-miterlimit:4;stroke-dasharray:1.99969, 1.99969;stroke-dashoffset:0;stroke-opacity:1" />
    <path
       style="fill:none;stroke:#000000;stroke-width:2;stroke-linecap:butt;stroke-linejoin:miter;stroke-miterlimit:4;stroke-dasharray:none;stroke-opacity:1"
       d="m 896.45673,177.16538 h 7.08661 l 3.54331,-35.43307 h 14.17323 l 3.54331,35.43307 h 14.17322 l 3.54331,-35.43307 h 14.17323 l 3.54331,35.43307 h 14.17323 l 3.54331,-35.43307 h 7.08661"
       id="path1143" />
    <g
       aria-label="TIMER_MAX"
       transform="rotate(-77.505844)"
       id="text1147"
       style="font-size:5.73557px;line-height:0%;font-family:Iwona;-inkscape-font-specification:Iwona;text-align:center;letter-spacing:0px;word-spacing:0px;text-anchor:middle">
      <path
         d="m 28.744283,924.45463 v -0.26384 H 25.58972 v 0.26384 h 1.342123 v 3.75106 h 0.470317 v -3.75106 z"
         style="line-height:1.25"
         id="path446" />
      <path
         d="m 29.902858,928.20569 v -4.0149 h -0.470316 v 4.0149 z"
         style="line-height:1.25"
         id="path448" />
      <path
         d="m 35.265614,928.20569 -0.229423,-4.0149 h -0.378547 l -1.611696,3.38972 -1.61743,-3.38972 H 31.04997 l -0.229423,4.0149 h 0.263837 l 0.183538,-3.25207 1.554339,3.25207 h 0.212216 l 1.571547,-3.29222 0.189273,3.29222 z"
         style="line-height:1.25"
         id="path450" />
      <path
         d="m 39.051082,928.20569 v -0.26384 h -2.397469 v -1.61169 h 1.823912 v -0.26384 h -1.823912 v -1.61169 h 2.259815 v -0.26384 h -2.730131 v 4.0149 z"
         style="line-height:1.25"
         id="path452" />
      <path
         d="m 43.088922,928.20569 -1.221676,-1.81818 c 0.625177,-0.12044 1.055345,-0.46458 1.055345,-1.10696 0,-0.80872 -0.694004,-1.14712 -1.594489,-1.14712 -0.321191,0 -0.642383,0.0172 -0.95784,0.0574 h -0.458845 v 4.0149 h 0.470316 v -1.86406 c 0.309721,0.0574 0.630913,0.0918 0.946369,0.0918 l 1.198735,1.77229 z m -0.728417,-2.92514 c 0,0.52193 -0.487523,0.88901 -1.032403,0.88901 -0.315456,0 -0.636648,-0.0344 -0.946369,-0.0918 v -1.62316 c 0.315457,-0.0401 0.630913,-0.0574 0.946369,-0.0574 0.54488,0 1.032403,0.36708 1.032403,0.88328 z"
         style="line-height:1.25"
         id="path454" />
      <path
         d="m 46.01406,928.86528 v -0.28678 h -2.867785 v 0.28678 z"
         style="line-height:1.25"
         id="path456" />
      <path
         d="m 50.803249,928.20569 -0.229423,-4.0149 h -0.378547 l -1.611696,3.38972 -1.61743,-3.38972 h -0.378548 l -0.229423,4.0149 h 0.263836 l 0.183539,-3.25207 1.554339,3.25207 h 0.212216 l 1.571546,-3.29222 0.189274,3.29222 z"
         style="line-height:1.25"
         id="path458" />
      <path
         d="m 54.646073,928.20569 -1.456835,-4.0149 h -0.498994 l -1.485513,4.0149 h 0.281043 l 0.521937,-1.40522 h 1.628902 l 0.510466,1.40522 z m -1.106965,-1.66905 h -1.433892 l 0.722681,-1.96157 z"
         style="line-height:1.25"
         id="path460" />
      <path
         d="m 58.248005,928.20569 -1.451099,-2.17952 1.313445,-1.83538 h -0.326927 l -1.141378,1.60022 -1.066816,-1.60022 h -0.562086 l 1.313445,1.97877 -1.451099,2.03613 h 0.326928 l 1.284767,-1.80097 1.198734,1.80097 z"
         style="line-height:1.25"
         id="path462" />
    </g>
    <g
       aria-label="0"
       id="text1151"
       style="font-size:15px;line-height:0%;font-family:Iwona;-inkscape-font-specification:Iwona;text-align:center;letter-spacing:0px;word-spacing:0px;text-anchor:middle">
      <path
         d="m 935.89394,159.44884 c 0,-3.555 -1.095,-5.325 -3.285,-5.325 -2.19,0 -3.285,1.77 -3.285,5.325 0,3.555 1.095,5.325 3.285,5.325 2.19,0 3.285,-1.77 3.285,-5.325 z m -1.32,0 c 0,3.135 -0.66,4.695 -1.965,4.695 -1.305,0 -1.965,-1.56 -1.965,-4.695 0,-3.135 0.66,-4.695 1.965,-4.695 1.305,0 1.965,1.56 1.965,4.695 z"
         style="line-height:1.25"
         id="path465" />
    </g>
    <g
       aria-label="1"
       id="text1155"
       style="font-size:15px;line-height:0%;font-family:Iwona;-inkscape-font-specification:Iwona;text-align:center;letter-spacing:0px;word-spacing:0px;text-anchor:middle">
      <path
         d="m 951.3305,164.62384 v -10.35 h -0.87 c -0.825,0.945 -1.8,1.755 -2.88,2.385 v 0.63 c 0.915,-0.435 1.77,-0.945 2.58,-1.56 v 8.895 z"
         style="line-height:1.25"
         id="path468" />
    </g>
    <g
       aria-label="2"
       id="text1159"
       style="font-size:15px;line-height:0%;font-family:Iwona;-inkscape-font-specification:Iwona;text-align:center;letter-spacing:0px;word-spacing:0px;text-anchor:middle">
      <path
         d="m 970.51038,164.69885 v -0.93 h -5.295 l 2.76,-2.73 c 1.23,-1.23 2.385,-2.67 2.385,-4.41 0,-1.47 -1.455,-2.43 -3.03,-2.43 -1.185,0 -2.31,0.54 -3.045,1.455 v 0.63 c 0.765,-0.885 1.875,-1.395 3.045,-1.395 1.005,0 1.86,0.75 1.86,1.74 0,1.485 -0.69,2.865 -1.71,3.93 l -3.345,3.435 v 0.705 z"
         style="line-height:1.25"
         id="path471" />
    </g>
    <path
       id="path1161"
       d="m 878.74019,177.16538 h 14.17323"
       style="fill:none;stroke:#000000;stroke-width:1.99969;stroke-linecap:butt;stroke-linejoin:miter;stroke-miterlimit:4;stroke-dasharray:1.99969, 1.99969;stroke-dashoffset:0;stroke-opacity:1" />
    <path
       id="path1163"
       d="m 896.45673,141.73231 h 7.08661 l 3.54331,35.43307 h 14.17323 l 3.54331,-35.43307 h 14.17322 l 3.54331,35.43307 h 14.17323 l 3.54331,-35.43307 h 14.17323 l 3.54331,35.43307 h 7.08661"
       style="fill:none;stroke:#000000;stroke-width:2;stroke-linecap:butt;stroke-linejoin:miter;stroke-miterlimit:4;stroke-dasharray:none;stroke-opacity:1" />
    <path
       style="fill:none;stroke:#000000;stroke-width:1.99969;stroke-linecap:butt;stroke-linejoin:miter;stroke-miterlimit:4;stroke-dasharray:1.99969, 1.99969;stroke-dashoffset:0;stroke-opacity:1"
       d="m 878.74019,141.73231 h 14.17323"
       id="path1165" />
    <path
       id="path1169"
       d="m 1002.7559,177.16538 h 7.0867 l 3.5433,-35.43307 h 14.1732 l 3.5433,35.43307 h 14.1732 l 3.5433,-35.43307 h 14.1733 l 3.5433,35.43307 h 14.1732 l 3.5433,-35.43307 h 7.0866"
       style="fill:none;stroke:#000000;stroke-width:2;stroke-linecap:butt;stroke-linejoin:miter;stroke-miterlimit:4;stroke-dasharray:none;stroke-opacity:1" />
    <g
       aria-label="TIMER_MAX"
       transform="rotate(-77.505844)"
       id="text1173"
       style="font-size:5.73557px;line-height:0%;font-family:Iwona;-inkscape-font-specification:Iwona;text-align:center;letter-spacing:0px;word-spacing:0px;text-anchor:middle">
      <path
         d="m 51.741075,1028.2366 v -0.2638 h -3.154563 v 0.2638 h 1.342123 v 3.7511 h 0.470317 v -3.7511 z"
         style="line-height:1.25"
         id="path474" />
      <path
         d="m 52.89965,1031.9877 v -4.0149 h -0.470317 v 4.0149 z"
         style="line-height:1.25"
         id="path476" />
      <path
         d="m 58.262406,1031.9877 -0.229423,-4.0149 h -0.378548 l -1.611695,3.3897 -1.61743,-3.3897 h -0.378548 l -0.229423,4.0149 h 0.263836 l 0.183539,-3.2521 1.554339,3.2521 h 0.212216 l 1.571546,-3.2922 0.189274,3.2922 z"
         style="line-height:1.25"
         id="path478" />
      <path
         d="m 62.047874,1031.9877 v -0.2639 h -2.397469 v -1.6117 h 1.823912 v -0.2638 h -1.823912 v -1.6117 h 2.259815 v -0.2638 h -2.730131 v 4.0149 z"
         style="line-height:1.25"
         id="path480" />
      <path
         d="m 66.085714,1031.9877 -1.221676,-1.8182 c 0.625177,-0.1205 1.055345,-0.4646 1.055345,-1.107 0,-0.8087 -0.694004,-1.1471 -1.594489,-1.1471 -0.321192,0 -0.642383,0.017 -0.95784,0.057 h -0.458845 v 4.0149 h 0.470316 v -1.8641 c 0.309721,0.057 0.630913,0.092 0.946369,0.092 l 1.198734,1.7723 z m -0.728417,-2.9252 c 0,0.522 -0.487524,0.889 -1.032403,0.889 -0.315456,0 -0.636648,-0.034 -0.946369,-0.092 v -1.6232 c 0.315457,-0.04 0.630913,-0.057 0.946369,-0.057 0.544879,0 1.032403,0.367 1.032403,0.8832 z"
         style="line-height:1.25"
         id="path482" />
      <path
         d="m 69.010852,1032.6473 v -0.2868 h -2.867785 v 0.2868 z"
         style="line-height:1.25"
         id="path484" />
      <path
         d="m 73.800041,1031.9877 -0.229423,-4.0149 H 73.19207 l -1.611695,3.3897 -1.617431,-3.3897 h -0.378547 l -0.229423,4.0149 h 0.263836 l 0.183539,-3.2521 1.554339,3.2521 h 0.212216 l 1.571546,-3.2922 0.189274,3.2922 z"
         style="line-height:1.25"
         id="path486" />
      <path
         d="m 77.642865,1031.9877 -1.456835,-4.0149 h -0.498994 l -1.485513,4.0149 h 0.281043 l 0.521937,-1.4052 h 1.628902 l 0.510465,1.4052 z m -1.106965,-1.6691 h -1.433892 l 0.722681,-1.9615 z"
         style="line-height:1.25"
         id="path488" />
      <path
         d="m 81.244797,1031.9877 -1.451099,-2.1795 1.313445,-1.8354 h -0.326927 l -1.141379,1.6002 -1.066816,-1.6002 h -0.562085 l 1.313445,1.9787 -1.451099,2.0362 h 0.326927 l 1.284768,-1.801 1.198734,1.801 z"
         style="line-height:1.25"
         id="path490" />
    </g>
    <g
       aria-label="0"
       id="text1177"
       style="font-size:15px;line-height:0%;font-family:Iwona;-inkscape-font-specification:Iwona;text-align:center;letter-spacing:0px;word-spacing:0px;text-anchor:middle">
      <path
         d="m 1042.1931,159.44884 c 0,-3.555 -1.095,-5.325 -3.285,-5.325 -2.19,0 -3.285,1.77 -3.285,5.325 0,3.555 1.095,5.325 3.285,5.325 2.19,0 3.285,-1.77 3.285,-5.325 z m -1.32,0 c 0,3.135 -0.66,4.695 -1.965,4.695 -1.305,0 -1.965,-1.56 -1.965,-4.695 0,-3.135 0.66,-4.695 1.965,-4.695 1.305,0 1.965,1.56 1.965,4.695 z"
         style="line-height:1.25"
         id="path493" />
    </g>
    <g
       aria-label="1"
       id="text1181"
       style="font-size:15px;line-height:0%;font-family:Iwona;-inkscape-font-specification:Iwona;text-align:center;letter-spacing:0px;word-spacing:0px;text-anchor:middle">
      <path
         d="m 1057.6297,164.62384 v -10.35 h -0.87 c -0.825,0.945 -1.8,1.755 -2.88,2.385 v 0.63 c 0.915,-0.435 1.77,-0.945 2.58,-1.56 v 8.895 z"
         style="line-height:1.25"
         id="path496" />
    </g>
    <g
       aria-label="2"
       id="text1185"
       style="font-size:15px;line-height:0%;font-family:Iwona;-inkscape-font-specification:Iwona;text-align:center;letter-spacing:0px;word-spacing:0px;text-anchor:middle">
      <path
         d="m 1076.8096,164.69885 v -0.93 h -5.295 l 2.76,-2.73 c 1.23,-1.23 2.385,-2.67 2.385,-4.41 0,-1.47 -1.455,-2.43 -3.03,-2.43 -1.185,0 -2.31,0.54 -3.045,1.455 v 0.63 c 0.765,-0.885 1.875,-1.395 3.045,-1.395 1.005,0 1.86,0.75 1.86,1.74 0,1.485 -0.69,2.865 -1.71,3.93 l -3.345,3.435 v 0.705 z"
         style="line-height:1.25"
         id="path499" />
    </g>
    <path
       style="fill:none;stroke:#000000;stroke-width:1.99969;stroke-linecap:butt;stroke-linejoin:miter;stroke-miterlimit:4;stroke-dasharray:1.99969, 1.99969;stroke-dashoffset:0;stroke-opacity:1"
       d="m 985.0394,177.16538 h 14.17323"
       id="path1187" />
    <path
       style="fill:none;stroke:#000000;stroke-width:2;stroke-linecap:butt;stroke-linejoin:miter;stroke-miterlimit:4;stroke-dasharray:none;stroke-opacity:1"
       d="m 1002.7559,141.73231 h 7.0867 l 3.5433,35.43307 h 14.1732 l 3.5433,-35.43307 h 14.1732 l 3.5433,35.43307 h 14.1733 l 3.5433,-35.43307 h 14.1732 l 3.5433,35.43307 h 7.0866"
       id="path1189" />
    <path
       id="path1191"
       d="m 985.0394,141.73231 h 14.17323"
       style="fill:none;stroke:#000000;stroke-width:1.99969;stroke-linecap:butt;stroke-linejoin:miter;stroke-miterlimit:4;stroke-dasharray:1.99969, 1.99969;stroke-dashoffset:0;stroke-opacity:1" />
    <path
       style="fill:none;stroke:#000000;stroke-width:2;stroke-linecap:butt;stroke-linejoin:miter;stroke-miterlimit:4;stroke-dasharray:none;stroke-opacity:1"
       d="m 1109.0552,177.16538 h 7.0866 l 3.5433,-35.43307 h 14.1732 l 3.5433,35.43307 h 31.8898"
       id="path1195" />
    <g
       aria-label="TIMER_MAX"
       transform="rotate(-77.505844)"
       id="text1199"
       style="font-size:5.73557px;line-height:0%;font-family:Iwona;-inkscape-font-specification:Iwona;text-align:center;letter-spacing:0px;word-spacing:0px;text-anchor:middle">
      <path
         d="m 74.737825,1132.0183 v -0.2638 h -3.154563 v 0.2638 h 1.342123 v 3.7511 h 0.470317 v -3.7511 z"
         style="line-height:1.25"
         id="path502" />
      <path
         d="m 75.8964,1135.7694 v -4.0149 h -0.470317 v 4.0149 z"
         style="line-height:1.25"
         id="path504" />
      <path
         d="m 81.259156,1135.7694 -0.229423,-4.0149 h -0.378548 l -1.611695,3.3897 -1.617431,-3.3897 h -0.378547 l -0.229423,4.0149 h 0.263836 l 0.183539,-3.2521 1.554339,3.2521 h 0.212216 l 1.571546,-3.2922 0.189274,3.2922 z"
         style="line-height:1.25"
         id="path506" />
      <path
         d="m 85.044623,1135.7694 v -0.2638 h -2.397468 v -1.6117 h 1.823911 v -0.2639 h -1.823911 v -1.6117 h 2.259815 v -0.2638 h -2.730132 v 4.0149 z"
         style="line-height:1.25"
         id="path508" />
      <path
         d="m 89.082464,1135.7694 -1.221676,-1.8182 c 0.625177,-0.1204 1.055345,-0.4645 1.055345,-1.1069 0,-0.8087 -0.694004,-1.1471 -1.594489,-1.1471 -0.321192,0 -0.642384,0.017 -0.95784,0.057 h -0.458846 v 4.0149 h 0.470317 v -1.8641 c 0.309721,0.057 0.630913,0.092 0.946369,0.092 l 1.198734,1.7723 z m -0.728417,-2.9251 c 0,0.5219 -0.487524,0.889 -1.032403,0.889 -0.315456,0 -0.636648,-0.034 -0.946369,-0.092 v -1.6232 c 0.315457,-0.04 0.630913,-0.057 0.946369,-0.057 0.544879,0 1.032403,0.3671 1.032403,0.8833 z"
         style="line-height:1.25"
         id="path510" />
      <path
         d="m 92.007602,1136.429 v -0.2868 h -2.867785 v 0.2868 z"
         style="line-height:1.25"
         id="path512" />
      <path
         d="m 96.796791,1135.7694 -0.229423,-4.0149 H 96.18882 l -1.611695,3.3897 -1.617431,-3.3897 h -0.378547 l -0.229423,4.0149 h 0.263836 l 0.183538,-3.2521 1.55434,3.2521 h 0.212216 l 1.571546,-3.2922 0.189274,3.2922 z"
         style="line-height:1.25"
         id="path514" />
      <path
         d="m 100.63961,1135.7694 -1.45683,-4.0149 h -0.498994 l -1.485513,4.0149 h 0.281043 l 0.521937,-1.4052 h 1.628902 l 0.510465,1.4052 z m -1.10696,-1.669 h -1.433893 l 0.722682,-1.9616 z"
         style="line-height:1.25"
         id="path516" />
      <path
         d="m 104.24155,1135.7694 -1.4511,-2.1795 1.31344,-1.8354 h -0.32692 l -1.14138,1.6002 -1.06682,-1.6002 h -0.56208 l 1.31344,1.9788 -1.4511,2.0361 h 0.32693 l 1.28477,-1.801 1.19873,1.801 z"
         style="line-height:1.25"
         id="path518" />
    </g>
    <g
       aria-label="0"
       id="text1203"
       style="font-size:15px;line-height:0%;font-family:Iwona;-inkscape-font-specification:Iwona;text-align:center;letter-spacing:0px;word-spacing:0px;text-anchor:middle">
      <path
         d="m 1148.4923,159.44884 c 0,-3.555 -1.095,-5.325 -3.285,-5.325 -2.19,0 -3.285,1.77 -3.285,5.325 0,3.555 1.095,5.325 3.285,5.325 2.19,0 3.285,-1.77 3.285,-5.325 z m -1.32,0 c 0,3.135 -0.66,4.695 -1.965,4.695 -1.305,0 -1.965,-1.56 -1.965,-4.695 0,-3.135 0.66,-4.695 1.965,-4.695 1.305,0 1.965,1.56 1.965,4.695 z"
         style="line-height:1.25"
         id="path521" />
    </g>
    <path
       id="path1213"
       d="m 1091.3386,177.16538 h 14.1732"
       style="fill:none;stroke:#000000;stroke-width:1.99969;stroke-linecap:butt;stroke-linejoin:miter;stroke-miterlimit:4;stroke-dasharray:1.99969, 1.99969;stroke-dashoffset:0;stroke-opacity:1" />
    <path
       id="path1215"
       d="m 1109.0552,141.73231 h 7.0866 l 3.5433,35.43307 h 14.1732 l 3.5433,-35.43307 h 31.8898"
       style="fill:none;stroke:#000000;stroke-width:2;stroke-linecap:butt;stroke-linejoin:miter;stroke-miterlimit:4;stroke-dasharray:none;stroke-opacity:1" />
    <path
       style="fill:none;stroke:#000000;stroke-width:1.99969;stroke-linecap:butt;stroke-linejoin:miter;stroke-miterlimit:4;stroke-dasharray:1.99969, 1.99969;stroke-dashoffset:0;stroke-opacity:1"
       d="m 1091.3386,141.73231 h 14.1732"
       id="path1217" />
    <g
       aria-label="index_reg"
       id="text1223"
       style="line-height:0%;font-family:Iwona;-inkscape-font-specification:Iwona;text-align:end;letter-spacing:0px;word-spacing:0px;text-anchor:end">
      <path
         d="m 149.04918,222.38836 v -0.72 c -0.456,0.384 -0.984,0.696 -1.584,0.696 -0.888,0 -1.056,-1.104 -1.056,-2.136 v -7.8 h -1.872 v 7.8 c 0,1.608 0.624,3.24 2.04,3.24 0.912,0 1.776,-0.456 2.472,-1.08 z m -2.4,-13.704 c 0,-0.648 -0.528,-1.176 -1.176,-1.176 -0.648,0 -1.176,0.528 -1.176,1.176 0,0.648 0.528,1.176 1.176,1.176 0.648,0 1.176,-0.528 1.176,-1.176 z"
         style="font-size:24px;line-height:1.25"
         id="path524" />
      <path
         d="m 160.13716,223.22836 v -7.8 c 0,-1.752 -1.344,-3.24 -3.072,-3.24 -1.44,0 -2.712,0.816 -3.744,1.824 v -1.584 h -1.872 v 10.8 h 1.872 v -8.472 c 0.816,-0.816 1.824,-1.464 2.952,-1.464 1.128,0 1.992,0.984 1.992,2.136 v 7.8 z"
         style="font-size:24px;line-height:1.25"
         id="path526" />
      <path
         d="m 172.54512,223.22836 v -16.8 h -1.872 v 6.408 c -0.936,-0.408 -1.944,-0.648 -2.952,-0.648 -3,0 -4.464,2.4 -4.464,5.64 0,3.192 1.2,5.64 4.104,5.64 1.224,0 2.352,-0.552 3.312,-1.32 v 1.08 z m -1.872,-2.088 c -0.72,0.72 -1.608,1.32 -2.64,1.32 -2.184,0 -2.664,-2.112 -2.664,-4.632 0,-2.256 0.696,-4.632 2.664,-4.632 0.912,0 1.824,0.24 2.64,0.648 z"
         style="font-size:24px;line-height:1.25"
         id="path528" />
      <path
         d="m 185.0731,218.06836 v -0.24 c 0,-3.384 -1.848,-5.64 -4.632,-5.64 -2.808,0 -4.656,2.256 -4.656,5.64 0,3.384 1.848,5.64 4.656,5.64 1.2,0 2.376,-0.384 3.36,-1.08 v -1.008 c -1.128,0.72 -2.04,0.984 -3.36,0.984 -2.04,0 -2.544,-1.944 -2.544,-4.296 z m -2.112,-1.008 h -5.064 c 0,-1.92 0.816,-3.864 2.544,-3.864 1.704,0 2.52,1.944 2.52,3.864 z"
         style="font-size:24px;line-height:1.25"
         id="path530" />
      <path
         d="m 195.75305,223.22836 -3.768,-5.76 3.648,-5.04 h -1.248 l -2.976,4.128 -2.688,-4.128 h -2.016 l 3.576,5.496 -3.816,5.304 h 1.248 l 3.168,-4.392 2.856,4.392 z"
         style="font-size:24px;line-height:1.25"
         id="path532" />
      <path
         d="m 208.233,225.98836 v -1.2 h -12 v 1.2 z"
         style="font-size:24px;line-height:1.25"
         id="path534" />
      <path
         d="m 216.12896,213.91636 v -1.488 c -0.264,-0.096 -0.552,-0.168 -0.816,-0.168 -1.344,0 -2.424,0.936 -3.288,1.968 v -1.8 h -1.872 v 10.8 h 1.872 v -7.992 c 0.72,-0.84 1.632,-1.56 2.736,-1.56 0.456,0 0.936,0.096 1.368,0.24 z"
         style="font-size:24px;line-height:1.25"
         id="path536" />
      <path
         d="m 227.21693,218.06836 v -0.24 c 0,-3.384 -1.848,-5.64 -4.632,-5.64 -2.808,0 -4.656,2.256 -4.656,5.64 0,3.384 1.848,5.64 4.656,5.64 1.2,0 2.376,-0.384 3.36,-1.08 v -1.008 c -1.128,0.72 -2.04,0.984 -3.36,0.984 -2.04,0 -2.544,-1.944 -2.544,-4.296 z m -2.112,-1.008 h -5.064 c 0,-1.92 0.816,-3.864 2.544,-3.864 1.704,0 2.52,1.944 2.52,3.864 z"
         style="font-size:24px;line-height:1.25"
         id="path538" />
      <path
         d="m 239.0249,224.66836 v -12.24 h -1.872 v 0.408 c -0.936,-0.408 -1.944,-0.648 -2.952,-0.648 -3,0 -4.464,2.4 -4.464,5.64 0,3.192 1.2,5.64 4.104,5.64 1.224,0 2.352,-0.552 3.312,-1.32 v 2.52 c 0,1.656 -0.912,3.216 -2.4,3.216 -1.224,0 -2.448,-0.24 -3.6,-0.648 v 0.744 c 1.344,0.624 2.832,1.008 4.32,1.008 2.112,0 3.552,-2.064 3.552,-4.32 z m -1.872,-3.528 c -0.72,0.72 -1.608,1.32 -2.64,1.32 -2.184,0 -2.664,-2.112 -2.664,-4.632 0,-2.256 0.696,-4.632 2.664,-4.632 0.912,0 1.824,0.24 2.64,0.648 z"
         style="font-size:24px;line-height:1.25"
         id="path540" />
    </g>
    <g
       aria-label="0"
       id="text1227"
       style="font-size:15px;line-height:0%;font-family:Iwona;-inkscape-font-specification:Iwona;text-align:center;letter-spacing:0px;word-spacing:0px;text-anchor:middle">
      <path
         d="m 293.84368,214.51006 c 0,-3.555 -1.095,-5.325 -3.285,-5.325 -2.19,0 -3.285,1.77 -3.285,5.325 0,3.555 1.095,5.325 3.285,5.325 2.19,0 3.285,-1.77 3.285,-5.325 z m -1.32,0 c 0,3.135 -0.66,4.695 -1.965,4.695 -1.305,0 -1.965,-1.56 -1.965,-4.695 0,-3.135 0.66,-4.695 1.965,-4.695 1.305,0 1.965,1.56 1.965,4.695 z"
         style="line-height:1.25"
         id="path543" />
    </g>
    <g
       aria-label="1"
       id="text1231"
       style="font-size:15px;line-height:0%;font-family:Iwona;-inkscape-font-specification:Iwona;text-align:center;letter-spacing:0px;word-spacing:0px;text-anchor:middle">
      <path
         d="m 401.40621,219.68506 v -10.35 h -0.87 c -0.825,0.945 -1.8,1.755 -2.88,2.385 v 0.63 c 0.915,-0.435 1.77,-0.945 2.58,-1.56 v 8.895 z"
         style="line-height:1.25"
         id="path546" />
    </g>
    <g
       aria-label="2"
       id="text1235"
       style="font-size:15px;line-height:0%;font-family:Iwona;-inkscape-font-specification:Iwona;text-align:center;letter-spacing:0px;word-spacing:0px;text-anchor:middle">
      <path
         d="m 509.88043,219.68506 v -0.93 h -5.295 l 2.76,-2.73 c 1.23,-1.23 2.385,-2.67 2.385,-4.41 0,-1.47 -1.455,-2.43 -3.03,-2.43 -1.185,0 -2.31,0.54 -3.045,1.455 v 0.63 c 0.765,-0.885 1.875,-1.395 3.045,-1.395 1.005,0 1.86,0.75 1.86,1.74 0,1.485 -0.69,2.865 -1.71,3.93 l -3.345,3.435 v 0.705 z"
         style="line-height:1.25"
         id="path549" />
    </g>
    <g
       aria-label="3"
       id="text1239"
       style="font-size:15px;line-height:0%;font-family:Iwona;-inkscape-font-specification:Iwona;text-align:center;letter-spacing:0px;word-spacing:0px;text-anchor:middle">
      <path
         d="m 616.17963,216.83506 c 0,-1.32 -0.93,-2.46 -2.22,-2.85 1.14,-0.33 1.845,-1.185 1.845,-2.325 0,-1.485 -1.2,-2.475 -3,-2.475 -0.975,0 -1.92,0.33 -2.685,0.93 v 0.63 c 0.765,-0.6 1.71,-0.93 2.685,-0.93 1.095,0 1.83,0.735 1.83,1.845 0,1.785 -0.825,2.25 -2.7,2.25 v 0.555 c 2.025,0 2.925,0.48 2.925,2.37 0,1.305 -0.84,2.37 -1.86,2.37 -1.14,0 -2.25,-0.33 -3.195,-0.93 v 0.63 c 0.945,0.6 2.055,0.93 3.195,0.93 1.74,0 3.18,-1.35 3.18,-3 z"
         style="line-height:1.25"
         id="path552" />
    </g>
    <g
       aria-label="4"
       id="text1243"
       style="font-size:15px;line-height:0%;font-family:Iwona;-inkscape-font-specification:Iwona;text-align:center;letter-spacing:0px;word-spacing:0px;text-anchor:middle">
      <path
         d="m 722.47888,216.08506 v -0.69 h -1.125 v -6.06 h -1.17 l -4.08,6.06 v 0.69 h 4.08 v 3.6 h 1.17 v -3.6 z m -2.295,-0.69 h -3.315 l 3.315,-4.935 z"
         style="line-height:1.25"
         id="path555" />
    </g>
    <g
       aria-label="5"
       id="text1247"
       style="font-size:15px;line-height:0%;font-family:Iwona;-inkscape-font-specification:Iwona;text-align:center;letter-spacing:0px;word-spacing:0px;text-anchor:middle">
      <path
         d="m 828.77808,216.31006 c 0,-2.115 -1.275,-3.525 -3.18,-3.525 -0.87,0 -1.68,0.33 -2.31,0.885 l 0.15,-3.405 h 5.04 v -0.93 h -5.625 l -0.225,5.175 0.63,0.03 c 0.57,-0.705 1.425,-1.125 2.34,-1.125 1.11,0 1.86,1.155 1.86,2.895 0,1.74 -0.75,2.895 -1.86,2.895 -1.155,0 -2.28,-0.375 -3.195,-1.08 v 0.63 c 0.915,0.705 2.04,1.08 3.195,1.08 1.905,0 3.18,-1.41 3.18,-3.525 z"
         style="line-height:1.25"
         id="path558" />
    </g>
    <g
       aria-label="DATA_WIDTH - 1"
       id="text1255"
       style="font-size:12.5px;line-height:0%;font-family:Iwona;-inkscape-font-specification:Iwona;letter-spacing:0px;word-spacing:0px">
      <path
         d="m 1043.2456,215.31004 c 0,-2.675 -1.4625,-4.5 -4.0375,-4.5 -0.775,0 -1.55,0.0375 -2.3125,0.125 h -1 v 8.75 h 1 c 0.7625,0.0875 1.5375,0.125 2.3125,0.125 2.575,0 4.0375,-1.825 4.0375,-4.5 z m -1.225,0 c 0,1.9875 -1.0125,3.925 -2.8125,3.925 -0.7625,0 -1.525,-0.0375 -2.2875,-0.125 v -7.6 c 0.7625,-0.0875 1.525,-0.125 2.2875,-0.125 1.8,0 2.8125,1.9375 2.8125,3.925 z"
         style="line-height:1.25"
         id="path561" />
      <path
         d="m 1051.3206,219.68504 -3.175,-8.75 h -1.0875 l -3.2375,8.75 h 0.6125 l 1.1375,-3.0625 h 3.55 l 1.1125,3.0625 z m -2.4125,-3.6375 h -3.125 l 1.575,-4.275 z"
         style="line-height:1.25"
         id="path563" />
      <path
         d="m 1057.8956,211.51004 v -0.575 h -6.875 v 0.575 h 2.925 v 8.175 h 1.025 v -8.175 z"
         style="line-height:1.25"
         id="path565" />
      <path
         d="m 1065.0956,219.68504 -3.175,-8.75 h -1.0875 l -3.2375,8.75 h 0.6125 l 1.1375,-3.0625 h 3.55 l 1.1125,3.0625 z m -2.4125,-3.6375 h -3.125 l 1.575,-4.275 z"
         style="line-height:1.25"
         id="path567" />
      <path
         d="m 1071.4705,221.12254 v -0.625 h -6.25 v 0.625 z"
         style="line-height:1.25"
         id="path569" />
      <path
         d="m 1082.6455,210.93504 h -0.6 l -2.1625,7.125 -2.1625,-7.125 h -0.6 l -2.1625,7.125 -2.1625,-7.125 h -1.075 l 2.6625,8.75 h 0.675 l 2.125,-6.9875 2.125,6.9875 h 0.6875 z"
         style="line-height:1.25"
         id="path571" />
      <path
         d="m 1085.0455,219.68504 v -8.75 h -1.025 v 8.75 z"
         style="line-height:1.25"
         id="path573" />
      <path
         d="m 1094.8955,215.31004 c 0,-2.675 -1.4625,-4.5 -4.0375,-4.5 -0.775,0 -1.55,0.0375 -2.3125,0.125 h -1 v 8.75 h 1 c 0.7625,0.0875 1.5375,0.125 2.3125,0.125 2.575,0 4.0375,-1.825 4.0375,-4.5 z m -1.225,0 c 0,1.9875 -1.0125,3.925 -2.8125,3.925 -0.7625,0 -1.525,-0.0375 -2.2875,-0.125 v -7.6 c 0.7625,-0.0875 1.525,-0.125 2.2875,-0.125 1.8,0 2.8125,1.9375 2.8125,3.925 z"
         style="line-height:1.25"
         id="path575" />
      <path
         d="m 1102.4705,211.51004 v -0.575 h -6.875 v 0.575 h 2.925 v 8.175 h 1.025 v -8.175 z"
         style="line-height:1.25"
         id="path577" />
      <path
         d="m 1110.8455,219.68504 v -8.75 h -1.025 v 4.0875 h -4.825 v -4.0875 h -1.025 v 8.75 h 1.025 v -4.0875 h 4.825 v 4.0875 z"
         style="line-height:1.25"
         id="path579" />
      <path
         d="m 1120.8954,217.18504 v -0.625 h -4.1625 v 0.625 z"
         style="line-height:1.25"
         id="path581" />
      <path
         d="m 1129.6579,219.68504 v -8.625 h -0.725 c -0.6875,0.7875 -1.5,1.4625 -2.4,1.9875 v 0.525 c 0.7625,-0.3625 1.475,-0.7875 2.15,-1.3 v 7.4125 z"
         style="line-height:1.25"
         id="path583" />
    </g>
    <g
       aria-label="0"
       id="text1259"
       style="font-size:15px;line-height:0%;font-family:Iwona;-inkscape-font-specification:Iwona;text-align:center;letter-spacing:0px;word-spacing:0px;text-anchor:middle">
      <path
         d="m 1147.7808,214.51006 c 0,-3.555 -1.095,-5.325 -3.285,-5.325 -2.19,0 -3.285,1.77 -3.285,5.325 0,3.555 1.095,5.325 3.285,5.325 2.19,0 3.285,-1.77 3.285,-5.325 z m -1.32,0 c 0,3.135 -0.66,4.695 -1.965,4.695 -1.305,0 -1.965,-1.56 -1.965,-4.695 0,-3.135 0.66,-4.695 1.965,-4.695 1.305,0 1.965,1.56 1.965,4.695 z"
         style="line-height:1.25"
         id="path586" />
    </g>
    <path
       id="path1261"
       d="m 248.0315,194.88191 h 141.73229 l 3.54331,35.43307 h 102.75591 l 3.54331,-35.43307 h 102.7559 l 3.54331,35.43307 h 102.75591 l 3.54331,-35.43307 h 102.75591 l 3.5433,35.43307 h 102.75591 l 3.54329,-35.43308 h 7.08661 m 88.58273,0 7.0866,1e-5 3.5433,35.43307 h 102.7559 l 3.5433,-35.43307 h 31.8898"
       style="fill:none;stroke:#000000;stroke-width:2;stroke-linecap:butt;stroke-linejoin:miter;stroke-miterlimit:4;stroke-dasharray:none;stroke-opacity:1" />
    <g
       aria-label="clk_i"
       id="text1793"
       style="line-height:0%;font-family:Iwona;-inkscape-font-specification:Iwona;text-align:end;letter-spacing:0px;word-spacing:0px;text-anchor:end">
      <path
         d="m 203.19304,2.3259505 v -1.008 c -0.768,-1.07999998 -2.016,-1.72799998 -3.36,-1.72799998 -3,0 -5.016,2.25599998 -5.016,5.63999998 0,3.384 2.016,5.6400005 5.016,5.6400005 1.248,0 2.424,-0.624 3.12,-1.6560005 v -1.008 c -0.816,1.224 -1.656,1.656 -3.12,1.656 -1.728,0 -2.904,-1.848 -2.904,-4.632 0,-2.784 1.176,-4.63199998 2.904,-4.63199998 1.488,0 2.496,0.52799998 3.36,1.72799998 z"
         style="font-size:24px;line-height:1.25"
         id="path589" />
      <path
         d="m 210.22501,9.7899505 v -0.72 c -0.456,0.384 -0.984,0.696 -1.584,0.696 -0.888,0 -1.056,-1.104 -1.056,-2.136 v -13.8 h -1.872 v 13.8 c 0,1.608 0.624,3.2400005 2.04,3.2400005 0.912,0 1.776,-0.456 2.472,-1.0800005 z"
         style="font-size:24px;line-height:1.25"
         id="path591" />
      <path
         d="m 221.91297,10.629951 -5.568,-6.4080005 5.376,-4.39199998 h -1.488 l -5.736,4.70399998 v -10.704 h -1.872 V 10.629951 h 1.872 V 4.6539505 l 5.184,5.9760005 z"
         style="font-size:24px;line-height:1.25"
         id="path593" />
      <path
         d="m 234.15295,13.389951 v -1.2 h -12 v 1.2 z"
         style="font-size:24px;line-height:1.25"
         id="path595" />
      <path
         d="m 240.46491,9.7899505 v -0.72 c -0.456,0.384 -0.984,0.696 -1.584,0.696 -0.888,0 -1.056,-1.104 -1.056,-2.136 v -7.79999998 h -1.872 V 7.6299505 c 0,1.608 0.624,3.2400005 2.04,3.2400005 0.912,0 1.776,-0.456 2.472,-1.0800005 z m -2.4,-13.704 c 0,-0.648 -0.528,-1.176 -1.176,-1.176 -0.648,0 -1.176,0.528 -1.176,1.176 0,0.648 0.528,1.176 1.176,1.176 0.648,0 1.176,-0.528 1.176,-1.176 z"
         style="font-size:24px;line-height:1.25"
         id="path597" />
    </g>
    <path
       style="fill:none;stroke:#000000;stroke-width:1.875;stroke-linecap:butt;stroke-linejoin:miter;stroke-miterlimit:4;stroke-dasharray:none;stroke-opacity:1"
       d="m 248.03152,-17.716523 h 8.8582 v 35.43307 h 8.8583 v -35.43307 h 8.8582 l 4e-5,35.433079 8.85831,9e-6 v -35.43307 h 8.85827 v 35.43307 h 8.85826 v -35.43307 h 8.85827 v 35.43307 h 8.85827 v -35.43307 h 8.85827 v 35.43307 h 8.85826 v -35.43307 h 8.85827 v 35.43307 h 8.85827 v -35.43307 h 8.85827 v 35.43307 h 8.85826 v -35.43307 h 8.85827 v 35.43307 h 8.85827 v -35.43307 h 8.85827 v 35.43307 h 8.85826 v -35.43307 h 8.85827 v 35.43307 h 8.85827 v -35.43307 h 8.85827 v 35.43307 h 8.85826 v -35.43307 h 8.85827 v 35.43307 h 8.85827 v -35.43307 h 8.85827 v 35.43307 h 8.85826 v -35.43307 h 8.85827 v 35.43307 h 8.85827 v -35.43307 h 8.85827 v 35.43307 h 8.85826 v -35.43307 h 8.85827 v 35.43307 h 8.85827 v -35.43307 h 8.85827 v 35.43307 h 8.85826 v -35.43307 h 8.85827 l -1e-5,35.43307 h 8.85829 v -35.43307 h 8.8582 v 35.43307 h 8.8583 v -35.43307 h 8.8583 v 35.43307 h 8.8582 v -35.43307 h 8.8583 v 35.43307 h 8.8583 v -35.43307 h 8.8582 v 35.43307 h 8.8583 v -35.43307 h 8.8583 v 35.43307 h 8.8582 v -35.43307 h 8.8583 v 35.43307 h 8.8583 v -35.43307 h 8.8582 v 35.43307 h 8.8583 v -35.43307 h 8.8583 v 35.43307 h 8.8582 v -35.43307 h 8.8583 v 35.43307 h 8.8583 v -35.43307 h 8.8582 v 35.43307 h 8.8583 v -35.43307 h 8.8583 v 35.43307 h 8.8582 v -35.43307 h 8.8583 v 35.43307 h 8.8583 v -35.43307 h 8.8583 v 35.43307 h 8.8582 v -35.43307 h 8.85832 v 35.43307 h 8.8583 v -35.43307 h 8.8582 v 35.43307 h 8.8583 v -35.43307 h 8.8583 l -3e-5,35.43307 h 8.85825 v -35.43307 h 8.85827 v 35.43307 h 8.8583 v -35.43307 h 8.8582 v 35.43307 h 8.8583 v -35.43307 h 8.8583 v 35.43307 h 8.8582 v -35.43307 h 8.8583 v 35.43307 h 8.8583 v -35.43307 h 8.8582 v 35.43307 h 8.8583 v -35.43307 h 8.8583 v 35.43307 h 8.8582 v -35.43307 h 8.8583 v 35.43307 h 8.8583 v -35.43307 h 8.8582 v 35.43307 h 8.8583 v -35.43307 h 8.85835 v 35.43307 h 8.8582 v -35.43307 h 8.8583 v 35.43307 h 8.8583 v -35.43307 h 8.8583 v 35.43307 h 8.8582 v -35.43307 h 8.8583 v 35.43307 h 8.8583 v -35.43307 h 8.8582 v 35.43307 h 8.8583 v -35.43307 h 8.8583 v 35.43307 h 8.8582 v -35.43307 h 8.8583 v 35.43307 h 8.8583 v -35.43307 H 1125 v 35.43307 h 8.8583 v -35.43307 h 8.8582 v 35.43307 h 8.8583 v -35.43307 h 8.8583 v 35.43307 h 8.8582"
       id="path3032" />
    <path
       id="path4950"
       d="m 931.88977,230.31497 h 88.58273"
       style="fill:none;stroke:#000000;stroke-width:1.99969;stroke-linecap:butt;stroke-linejoin:miter;stroke-miterlimit:4;stroke-dasharray:1.99969, 1.99969;stroke-dashoffset:0;stroke-opacity:1" />
    <path
       style="fill:none;stroke:#000000;stroke-width:1.99969;stroke-linecap:butt;stroke-linejoin:miter;stroke-miterlimit:4;stroke-dasharray:1.99969, 1.99969;stroke-dashoffset:0;stroke-opacity:1"
       d="m 931.88977,194.8819 h 88.58273"
       id="path4952" />
    <path
       style="fill:none;stroke:#000000;stroke-width:2;stroke-linecap:butt;stroke-linejoin:miter;stroke-miterlimit:4;stroke-dasharray:none;stroke-opacity:1"
       d="m 248.0315,283.46457 h 885.8268 l 3.5433,-35.43307 h 14.1732 l 3.5433,35.43307 14.1733,4e-5"
       id="path5248" />
    <g
       aria-label="done_o"
       id="text5252"
       style="line-height:0%;font-family:Iwona;-inkscape-font-specification:Iwona;text-align:end;letter-spacing:0px;word-spacing:0px;text-anchor:end">
      <path
         d="m 178.95303,276.37796 v -16.8 h -1.872 v 6.408 c -0.936,-0.408 -1.944,-0.648 -2.952,-0.648 -3,0 -4.464,2.4 -4.464,5.64 0,3.192 1.2,5.64 4.104,5.64 1.224,0 2.352,-0.552 3.312,-1.32 v 1.08 z m -1.872,-2.088 c -0.72,0.72 -1.608,1.32 -2.64,1.32 -2.184,0 -2.664,-2.112 -2.664,-4.632 0,-2.256 0.696,-4.632 2.664,-4.632 0.912,0 1.824,0.24 2.64,0.648 z"
         style="font-size:24px;line-height:1.25"
         id="path600" />
      <path
         d="m 191.48102,270.97796 c 0,-3.672 -1.632,-5.64 -4.632,-5.64 -3.024,0 -4.656,1.968 -4.656,5.64 0,3.672 1.632,5.64 4.656,5.64 3,0 4.632,-1.968 4.632,-5.64 z m -2.112,0 c 0,3 -0.888,4.632 -2.52,4.632 -1.656,0 -2.544,-1.632 -2.544,-4.632 0,-3 0.888,-4.632 2.544,-4.632 1.632,0 2.52,1.632 2.52,4.632 z"
         style="font-size:24px;line-height:1.25"
         id="path602" />
      <path
         d="m 203.40901,276.37796 v -7.8 c 0,-1.752 -1.344,-3.24 -3.072,-3.24 -1.44,0 -2.712,0.816 -3.744,1.824 v -1.584 h -1.872 v 10.8 h 1.872 v -8.472 c 0.816,-0.816 1.824,-1.464 2.952,-1.464 1.128,0 1.992,0.984 1.992,2.136 v 7.8 z"
         style="font-size:24px;line-height:1.25"
         id="path604" />
      <path
         d="m 215.81697,271.21796 v -0.24 c 0,-3.384 -1.848,-5.64 -4.632,-5.64 -2.808,0 -4.656,2.256 -4.656,5.64 0,3.384 1.848,5.64 4.656,5.64 1.2,0 2.376,-0.384 3.36,-1.08 v -1.008 c -1.128,0.72 -2.04,0.984 -3.36,0.984 -2.04,0 -2.544,-1.944 -2.544,-4.296 z m -2.112,-1.008 h -5.064 c 0,-1.92 0.816,-3.864 2.544,-3.864 1.704,0 2.52,1.944 2.52,3.864 z"
         style="font-size:24px;line-height:1.25"
         id="path606" />
      <path
         d="m 229.01694,279.13796 v -1.2 h -12 v 1.2 z"
         style="font-size:24px;line-height:1.25"
         id="path608" />
      <path
         d="m 239.62489,270.97796 c 0,-3.672 -1.632,-5.64 -4.632,-5.64 -3.024,0 -4.656,1.968 -4.656,5.64 0,3.672 1.632,5.64 4.656,5.64 3,0 4.632,-1.968 4.632,-5.64 z m -2.112,0 c 0,3 -0.888,4.632 -2.52,4.632 -1.656,0 -2.544,-1.632 -2.544,-4.632 0,-3 0.888,-4.632 2.544,-4.632 1.632,0 2.52,1.632 2.52,4.632 z"
         style="font-size:24px;line-height:1.25"
         id="path610" />
    </g>
  </g>
</svg>
