<?xml version="1.0" encoding="UTF-8" standalone="no"?>
<!-- Created with Inkscape (http://www.inkscape.org/) -->

<svg
   width="107.59549mm"
   height="61.774109mm"
   id="svg2"
   version="1.1"
   viewBox="0 0 381.24389 218.88463"
   xmlns="http://www.w3.org/2000/svg"
   xmlns:svg="http://www.w3.org/2000/svg"
   xmlns:rdf="http://www.w3.org/1999/02/22-rdf-syntax-ns#"
   xmlns:cc="http://creativecommons.org/ns#"
   xmlns:dc="http://purl.org/dc/elements/1.1/">
  <defs
     id="defs4" />
  <metadata
     id="metadata7">
    <rdf:RDF>
      <cc:Work
         rdf:about="">
        <dc:format>image/svg+xml</dc:format>
        <dc:type
           rdf:resource="http://purl.org/dc/dcmitype/StillImage" />
      </cc:Work>
    </rdf:RDF>
  </metadata>
  <g
     id="layer1"
     transform="translate(-388.0967,-435.38386)">
    <path
       id="rect3112"
       style="fill:#afdde9;stroke:#000000;stroke-width:0.885827"
       d="M 496.06299,442.91339 H 761.81104 V 620.07874 H 496.06299 Z" />
    <g
       aria-label="VMemory"
       id="text3157"
       style="line-height:0%;font-family:Iwona;-inkscape-font-specification:Iwona;text-align:center;text-anchor:middle">
      <path
         d="m 573.31713,512.69604 h -1.96 l -9.28,23.76 -9.24,-23.76 h -3.52 l 10.92,28 h 2.16 z"
         style="font-size:40px;line-height:1.25"
         id="path48" />
      <path
         d="m 607.11709,540.69604 -1.6,-28 h -2.64 l -11.24,23.64 -11.28,-23.64 h -2.64 l -1.6,28 h 1.84 l 1.28,-22.68 10.84,22.68 h 1.48 l 10.96,-22.96 1.32,22.96 z"
         style="font-size:40px;line-height:1.25"
         id="path50" />
      <path
         d="m 627.19704,532.09604 v -0.4 c 0,-5.64 -3.08,-9.4 -7.72,-9.4 -4.68,0 -7.76,3.76 -7.76,9.4 0,5.64 3.08,9.4 7.76,9.4 2,0 3.96,-0.64 5.6,-1.8 v -1.68 c -1.88,1.2 -3.4,1.64 -5.6,1.64 -3.4,0 -4.24,-3.24 -4.24,-7.16 z m -3.52,-1.68 h -8.44 c 0,-3.2 1.36,-6.44 4.24,-6.44 2.84,0 4.2,3.24 4.2,6.44 z"
         style="font-size:40px;line-height:1.25"
         id="path52" />
      <path
         d="m 654.23698,540.69604 v -13 c 0,-2.8 -1.64,-5.4 -4.24,-5.4 -2.24,0 -4.32,1.16 -5.52,3.04 -0.64,-1.76 -2,-3.04 -3.84,-3.04 -2.08,0 -3.76,1.44 -5.12,3.04 v -2.64 h -3.12 v 18 h 3.12 v -14.16 c 0.96,-1.24 2.16,-2.4 3.72,-2.4 1.64,0 2.52,1.76 2.52,3.56 v 13 h 3.12 v -13 c 0,-0.48 -0.04,-0.92 -0.12,-1.4 0.96,-1.24 2.28,-2.16 3.84,-2.16 1.64,0 2.52,1.76 2.52,3.56 v 13 z"
         style="font-size:40px;line-height:1.25"
         id="path54" />
      <path
         d="m 674.91692,531.69604 c 0,-6.12 -2.72,-9.4 -7.72,-9.4 -5.04,0 -7.76,3.28 -7.76,9.4 0,6.12 2.72,9.4 7.76,9.4 5,0 7.72,-3.28 7.72,-9.4 z m -3.52,0 c 0,5 -1.48,7.72 -4.2,7.72 -2.76,0 -4.24,-2.72 -4.24,-7.72 0,-5 1.48,-7.72 4.24,-7.72 2.72,0 4.2,2.72 4.2,7.72 z"
         style="font-size:40px;line-height:1.25"
         id="path56" />
      <path
         d="m 690.27691,525.17604 v -2.48 c -0.44,-0.16 -0.92,-0.28 -1.36,-0.28 -2.24,0 -4.04,1.56 -5.48,3.28 v -3 h -3.12 v 18 h 3.12 v -13.32 c 1.2,-1.4 2.72,-2.6 4.56,-2.6 0.76,0 1.56,0.16 2.28,0.4 z"
         style="font-size:40px;line-height:1.25"
         id="path58" />
      <path
         d="m 708.55687,543.09604 v -20.4 h -3.12 v 14.12 c -1.36,1.36 -3.04,2.44 -4.92,2.44 -1.88,0 -3.32,-1.64 -3.32,-3.56 v -13 h -3.12 v 13 c 0,2.92 2.24,5.4 5.12,5.4 2.4,0 4.52,-1.36 6.24,-3.04 v 5.04 c 0,2.68 -1.2,5.36 -3.6,5.36 -1.88,0 -3.68,-0.4 -5.4,-1.08 v 1.24 c 2.04,1.04 4.32,1.68 6.64,1.68 3.4,0 5.48,-3.52 5.48,-7.2 z"
         style="font-size:40px;line-height:1.25"
         id="path60" />
    </g>
    <path
       style="fill:#afdde9;fill-opacity:1;fill-rule:evenodd;stroke:#000000;stroke-width:1px;stroke-linecap:butt;stroke-linejoin:miter;stroke-opacity:1"
       d="m 488.97636,450 v 21.25985 h 17.7165 l 10.63,-10.62992 L 506.69286,450 Z"
       id="path11157" />
    <g
       aria-label="valid_i"
       id="text11159"
       style="line-height:0%;font-family:Iwona;-inkscape-font-specification:Iwona;text-align:end;text-anchor:end">
      <path
         d="m 426.84325,458.27237 h -0.9 l -2.72,7.48 -2.64,-7.48 h -1.48 l 3.16,9 h 1.3 z"
         style="font-size:20px;line-height:1.25"
         id="path63" />
      <path
         d="m 435.68324,467.27237 v -5.6 c 0,-1.88 -1.16,-3.6 -2.9,-3.6 -1.28,0 -2.48,0.44 -3.56,1.12 v 0.62 c 0.9,-0.5 1.9,-0.82 2.94,-0.82 1.24,0 1.96,1.32 1.96,2.68 v 0.36 c -0.78,-0.34 -1.62,-0.54 -2.46,-0.54 -2.14,0 -3.72,0.98 -3.72,3 0,1.92 1.4,2.98 3.42,2.98 1.02,0 1.96,-0.46 2.76,-1.1 v 0.9 z m -1.56,-1.74 c -0.6,0.6 -1.34,1.1 -2.2,1.1 -1.34,0 -2.22,-0.82 -2.22,-2.14 0,-1.22 1,-2.16 2.22,-2.16 0.76,0 1.52,0.2 2.2,0.54 z"
         style="font-size:20px;line-height:1.25"
         id="path65" />
      <path
         d="m 442.64323,466.57237 v -0.6 c -0.38,0.32 -0.82,0.58 -1.32,0.58 -0.74,0 -0.88,-0.92 -0.88,-1.78 v -11.5 h -1.56 v 11.5 c 0,1.34 0.52,2.7 1.7,2.7 0.76,0 1.48,-0.38 2.06,-0.9 z"
         style="font-size:20px;line-height:1.25"
         id="path67" />
      <path
         d="m 448.30319,466.57237 v -0.6 c -0.38,0.32 -0.82,0.58 -1.32,0.58 -0.74,0 -0.88,-0.92 -0.88,-1.78 v -6.5 h -1.56 v 6.5 c 0,1.34 0.52,2.7 1.7,2.7 0.76,0 1.48,-0.38 2.06,-0.9 z m -2,-11.42 c 0,-0.54 -0.44,-0.98 -0.98,-0.98 -0.54,0 -0.98,0.44 -0.98,0.98 0,0.54 0.44,0.98 0.98,0.98 0.54,0 0.98,-0.44 0.98,-0.98 z"
         style="font-size:20px;line-height:1.25"
         id="path69" />
      <path
         d="m 457.54317,467.27237 v -14 h -1.56 v 5.34 c -0.78,-0.34 -1.62,-0.54 -2.46,-0.54 -2.5,0 -3.72,2 -3.72,4.7 0,2.66 1,4.7 3.42,4.7 1.02,0 1.96,-0.46 2.76,-1.1 v 0.9 z m -1.56,-1.74 c -0.6,0.6 -1.34,1.1 -2.2,1.1 -1.82,0 -2.22,-1.76 -2.22,-3.86 0,-1.88 0.58,-3.86 2.22,-3.86 0.76,0 1.52,0.2 2.2,0.54 z"
         style="font-size:20px;line-height:1.25"
         id="path71" />
      <path
         d="m 469.14316,469.57237 v -1 h -10 v 1 z"
         style="font-size:20px;line-height:1.25"
         id="path73" />
      <path
         d="m 474.40312,466.57237 v -0.6 c -0.38,0.32 -0.82,0.58 -1.32,0.58 -0.74,0 -0.88,-0.92 -0.88,-1.78 v -6.5 h -1.56 v 6.5 c 0,1.34 0.52,2.7 1.7,2.7 0.76,0 1.48,-0.38 2.06,-0.9 z m -2,-11.42 c 0,-0.54 -0.44,-0.98 -0.98,-0.98 -0.54,0 -0.98,0.44 -0.98,0.98 0,0.54 0.44,0.98 0.98,0.98 0.54,0 0.98,-0.44 0.98,-0.98 z"
         style="font-size:20px;line-height:1.25"
         id="path75" />
    </g>
    <path
       id="path3150"
       d="M 574.01575,627.16532 H 595.2756 V 609.4488 l -10.62992,-10.62993 -10.62993,10.62993 z"
       style="fill:#afdde9;fill-opacity:1;fill-rule:evenodd;stroke:#000000;stroke-width:1px;stroke-linecap:butt;stroke-linejoin:miter;stroke-opacity:1" />
    <g
       aria-label="clk_i"
       id="text3152"
       style="line-height:0%;font-family:Iwona;-inkscape-font-specification:Iwona;text-align:center;text-anchor:middle">
      <path
         d="m 572.95569,637.9619 v -0.84 c -0.64,-0.9 -1.68,-1.44 -2.8,-1.44 -2.5,0 -4.18,1.88 -4.18,4.7 0,2.82 1.68,4.7 4.18,4.7 1.04,0 2.02,-0.52 2.6,-1.38 v -0.84 c -0.68,1.02 -1.38,1.38 -2.6,1.38 -1.44,0 -2.42,-1.54 -2.42,-3.86 0,-2.32 0.98,-3.86 2.42,-3.86 1.24,0 2.08,0.44 2.8,1.44 z"
         style="font-size:20px;line-height:1.25"
         id="path78" />
      <path
         d="m 578.81567,644.1819 v -0.6 c -0.38,0.32 -0.82,0.58 -1.32,0.58 -0.74,0 -0.88,-0.92 -0.88,-1.78 v -11.5 h -1.56 v 11.5 c 0,1.34 0.52,2.7 1.7,2.7 0.76,0 1.48,-0.38 2.06,-0.9 z"
         style="font-size:20px;line-height:1.25"
         id="path80" />
      <path
         d="m 588.55564,644.8819 -4.64,-5.34 4.48,-3.66 h -1.24 l -4.78,3.92 v -8.92 h -1.56 v 14 h 1.56 v -4.98 l 4.32,4.98 z"
         style="font-size:20px;line-height:1.25"
         id="path82" />
      <path
         d="m 598.75562,647.1819 v -1 h -10 v 1 z"
         style="font-size:20px;line-height:1.25"
         id="path84" />
      <path
         d="m 604.01558,644.1819 v -0.6 c -0.38,0.32 -0.82,0.58 -1.32,0.58 -0.74,0 -0.88,-0.92 -0.88,-1.78 v -6.5 h -1.56 v 6.5 c 0,1.34 0.52,2.7 1.7,2.7 0.76,0 1.48,-0.38 2.06,-0.9 z m -2,-11.42 c 0,-0.54 -0.44,-0.98 -0.98,-0.98 -0.54,0 -0.98,0.44 -0.98,0.98 0,0.54 0.44,0.98 0.98,0.98 0.54,0 0.98,-0.44 0.98,-0.98 z"
         style="font-size:20px;line-height:1.25"
         id="path86" />
    </g>
    <path
       id="path3174"
       d="m 510.2362,478.34647 v 21.25984 h -17.7165 l -10.63,-10.62991 10.63,-10.62993 z"
       style="fill:#afdde9;fill-opacity:1;fill-rule:evenodd;stroke:#000000;stroke-width:1px;stroke-linecap:butt;stroke-linejoin:miter;stroke-opacity:1" />
    <g
       aria-label="ready_o"
       id="text3176"
       style="line-height:0%;font-family:Iwona;-inkscape-font-specification:Iwona;text-align:end;text-anchor:end">
      <path
         d="m 414.30327,487.8588 v -1.24 c -0.22,-0.08 -0.46,-0.14 -0.68,-0.14 -1.12,0 -2.02,0.78 -2.74,1.64 v -1.5 h -1.56 v 9 h 1.56 v -6.66 c 0.6,-0.7 1.36,-1.3 2.28,-1.3 0.38,0 0.78,0.08 1.14,0.2 z"
         style="font-size:20px;line-height:1.25"
         id="path89" />
      <path
         d="m 423.54325,491.3188 v -0.2 c 0,-2.82 -1.54,-4.7 -3.86,-4.7 -2.34,0 -3.88,1.88 -3.88,4.7 0,2.82 1.54,4.7 3.88,4.7 1,0 1.98,-0.32 2.8,-0.9 v -0.84 c -0.94,0.6 -1.7,0.82 -2.8,0.82 -1.7,0 -2.12,-1.62 -2.12,-3.58 z m -1.76,-0.84 h -4.22 c 0,-1.6 0.68,-3.22 2.12,-3.22 1.42,0 2.1,1.62 2.1,3.22 z"
         style="font-size:20px;line-height:1.25"
         id="path91" />
      <path
         d="m 433.18322,495.6188 v -5.6 c 0,-1.88 -1.16,-3.6 -2.9,-3.6 -1.28,0 -2.48,0.44 -3.56,1.12 v 0.62 c 0.9,-0.5 1.9,-0.82 2.94,-0.82 1.24,0 1.96,1.32 1.96,2.68 v 0.36 c -0.78,-0.34 -1.62,-0.54 -2.46,-0.54 -2.14,0 -3.72,0.98 -3.72,3 0,1.92 1.4,2.98 3.42,2.98 1.02,0 1.96,-0.46 2.76,-1.1 v 0.9 z m -1.56,-1.74 c -0.6,0.6 -1.34,1.1 -2.2,1.1 -1.34,0 -2.22,-0.82 -2.22,-2.14 0,-1.22 1,-2.16 2.22,-2.16 0.76,0 1.52,0.2 2.2,0.54 z"
         style="font-size:20px;line-height:1.25"
         id="path93" />
      <path
         d="m 443.6232,495.6188 v -14 h -1.56 v 5.34 c -0.78,-0.34 -1.62,-0.54 -2.46,-0.54 -2.5,0 -3.72,2 -3.72,4.7 0,2.66 1,4.7 3.42,4.7 1.02,0 1.96,-0.46 2.76,-1.1 v 0.9 z m -1.56,-1.74 c -0.6,0.6 -1.34,1.1 -2.2,1.1 -1.82,0 -2.22,-1.76 -2.22,-3.86 0,-1.88 0.58,-3.86 2.22,-3.86 0.76,0 1.52,0.2 2.2,0.54 z"
         style="font-size:20px;line-height:1.25"
         id="path95" />
      <path
         d="m 453.96319,496.8188 v -10.2 h -1.56 v 7.06 c -0.68,0.68 -1.52,1.22 -2.46,1.22 -0.94,0 -1.66,-0.82 -1.66,-1.78 v -6.5 h -1.56 v 6.5 c 0,1.46 1.12,2.7 2.56,2.7 1.2,0 2.26,-0.68 3.12,-1.52 v 2.52 c 0,1.34 -0.6,2.68 -1.8,2.68 -0.94,0 -1.84,-0.2 -2.7,-0.54 v 0.62 c 1.02,0.52 2.16,0.84 3.32,0.84 1.7,0 2.74,-1.76 2.74,-3.6 z"
         style="font-size:20px;line-height:1.25"
         id="path97" />
      <path
         d="m 465.56316,497.9188 v -1 h -10 v 1 z"
         style="font-size:20px;line-height:1.25"
         id="path99" />
      <path
         d="m 474.40312,491.1188 c 0,-3.06 -1.36,-4.7 -3.86,-4.7 -2.52,0 -3.88,1.64 -3.88,4.7 0,3.06 1.36,4.7 3.88,4.7 2.5,0 3.86,-1.64 3.86,-4.7 z m -1.76,0 c 0,2.5 -0.74,3.86 -2.1,3.86 -1.38,0 -2.12,-1.36 -2.12,-3.86 0,-2.5 0.74,-3.86 2.12,-3.86 1.36,0 2.1,1.36 2.1,3.86 z"
         style="font-size:20px;line-height:1.25"
         id="path101" />
    </g>
    <path
       style="fill:#afdde9;fill-opacity:1;fill-rule:evenodd;stroke:#000000;stroke-width:1px;stroke-linecap:butt;stroke-linejoin:miter;stroke-opacity:1"
       d="m 488.97632,506.69292 v 21.25984 h 17.7165 l 10.63,-10.62991 -10.63,-10.62993 z"
       id="path5931" />
    <g
       aria-label="address_i"
       id="text5933"
       style="line-height:0%;font-family:Iwona;-inkscape-font-specification:Iwona;text-align:end;text-anchor:end">
      <path
         d="m 402.92331,524.40942 v -5.6 c 0,-1.88 -1.16,-3.6 -2.9,-3.6 -1.28,0 -2.48,0.44 -3.56,1.12 v 0.62 c 0.9,-0.5 1.9,-0.82 2.94,-0.82 1.24,0 1.96,1.32 1.96,2.68 v 0.36 c -0.78,-0.34 -1.62,-0.54 -2.46,-0.54 -2.14,0 -3.72,0.98 -3.72,3 0,1.92 1.4,2.98 3.42,2.98 1.02,0 1.96,-0.46 2.76,-1.1 v 0.9 z m -1.56,-1.74 c -0.6,0.6 -1.34,1.1 -2.2,1.1 -1.34,0 -2.22,-0.82 -2.22,-2.14 0,-1.22 1,-2.16 2.22,-2.16 0.76,0 1.52,0.2 2.2,0.54 z"
         style="font-size:20px;line-height:1.25"
         id="path104" />
      <path
         d="m 413.36329,524.40942 v -14 h -1.56 v 5.34 c -0.78,-0.34 -1.62,-0.54 -2.46,-0.54 -2.5,0 -3.72,2 -3.72,4.7 0,2.66 1,4.7 3.42,4.7 1.02,0 1.96,-0.46 2.76,-1.1 v 0.9 z m -1.56,-1.74 c -0.6,0.6 -1.34,1.1 -2.2,1.1 -1.82,0 -2.22,-1.76 -2.22,-3.86 0,-1.88 0.58,-3.86 2.22,-3.86 0.76,0 1.52,0.2 2.2,0.54 z"
         style="font-size:20px;line-height:1.25"
         id="path106" />
      <path
         d="m 423.80328,524.40942 v -14 h -1.56 v 5.34 c -0.78,-0.34 -1.62,-0.54 -2.46,-0.54 -2.5,0 -3.72,2 -3.72,4.7 0,2.66 1,4.7 3.42,4.7 1.02,0 1.96,-0.46 2.76,-1.1 v 0.9 z m -1.56,-1.74 c -0.6,0.6 -1.34,1.1 -2.2,1.1 -1.82,0 -2.22,-1.76 -2.22,-3.86 0,-1.88 0.58,-3.86 2.22,-3.86 0.76,0 1.52,0.2 2.2,0.54 z"
         style="font-size:20px;line-height:1.25"
         id="path108" />
      <path
         d="m 431.98327,516.64942 v -1.24 c -0.22,-0.08 -0.46,-0.14 -0.68,-0.14 -1.12,0 -2.02,0.78 -2.74,1.64 v -1.5 h -1.56 v 9 h 1.56 v -6.66 c 0.6,-0.7 1.36,-1.3 2.28,-1.3 0.38,0 0.78,0.08 1.14,0.2 z"
         style="font-size:20px;line-height:1.25"
         id="path110" />
      <path
         d="m 441.22325,520.10942 v -0.2 c 0,-2.82 -1.54,-4.7 -3.86,-4.7 -2.34,0 -3.88,1.88 -3.88,4.7 0,2.82 1.54,4.7 3.88,4.7 1,0 1.98,-0.32 2.8,-0.9 v -0.84 c -0.94,0.6 -1.7,0.82 -2.8,0.82 -1.7,0 -2.12,-1.62 -2.12,-3.58 z m -1.76,-0.84 h -4.22 c 0,-1.6 0.68,-3.22 2.12,-3.22 1.42,0 2.1,1.62 2.1,3.22 z"
         style="font-size:20px;line-height:1.25"
         id="path112" />
      <path
         d="m 449.90322,521.84942 c 0,-1.58 -1.68,-2.4 -3.32,-2.8 -0.96,-0.24 -2,-0.64 -2,-1.58 0,-0.86 0.88,-1.42 1.84,-1.42 1.06,0 2.12,0.32 3,0.9 v -0.84 c -0.88,-0.58 -1.94,-0.9 -3,-0.9 -1.74,0 -3.34,1.06 -3.34,2.68 0,1.46 1.62,2.14 3.16,2.52 1.06,0.26 2.16,0.82 2.16,1.84 0,0.94 -0.96,1.52 -1.98,1.52 -1.24,0 -2.44,-0.3 -3.5,-0.9 v 0.84 c 1.06,0.6 2.26,0.9 3.5,0.9 1.8,0 3.48,-1.08 3.48,-2.76 z"
         style="font-size:20px;line-height:1.25"
         id="path114" />
      <path
         d="m 458.24318,521.84942 c 0,-1.58 -1.68,-2.4 -3.32,-2.8 -0.96,-0.24 -2,-0.64 -2,-1.58 0,-0.86 0.88,-1.42 1.84,-1.42 1.06,0 2.12,0.32 3,0.9 v -0.84 c -0.88,-0.58 -1.94,-0.9 -3,-0.9 -1.74,0 -3.34,1.06 -3.34,2.68 0,1.46 1.62,2.14 3.16,2.52 1.06,0.26 2.16,0.82 2.16,1.84 0,0.94 -0.96,1.52 -1.98,1.52 -1.24,0 -2.44,-0.3 -3.5,-0.9 v 0.84 c 1.06,0.6 2.26,0.9 3.5,0.9 1.8,0 3.48,-1.08 3.48,-2.76 z"
         style="font-size:20px;line-height:1.25"
         id="path116" />
      <path
         d="m 469.14316,526.70942 v -1 h -10 v 1 z"
         style="font-size:20px;line-height:1.25"
         id="path118" />
      <path
         d="m 474.40312,523.70942 v -0.6 c -0.38,0.32 -0.82,0.58 -1.32,0.58 -0.74,0 -0.88,-0.92 -0.88,-1.78 v -6.5 h -1.56 v 6.5 c 0,1.34 0.52,2.7 1.7,2.7 0.76,0 1.48,-0.38 2.06,-0.9 z m -2,-11.42 c 0,-0.54 -0.44,-0.98 -0.98,-0.98 -0.54,0 -0.98,0.44 -0.98,0.98 0,0.54 0.44,0.98 0.98,0.98 0.54,0 0.98,-0.44 0.98,-0.98 z"
         style="font-size:20px;line-height:1.25"
         id="path120" />
    </g>
    <path
       style="fill:#afdde9;fill-opacity:1;fill-rule:evenodd;stroke:#000000;stroke-width:1px;stroke-linecap:butt;stroke-linejoin:miter;stroke-opacity:1"
       d="m 644.88188,627.16532 h 21.25985 V 609.4488 l -10.62992,-10.62993 -10.62993,10.62993 z"
       id="path6153" />
    <g
       aria-label="reset_i"
       id="text6155"
       style="line-height:0%;font-family:Iwona;-inkscape-font-specification:Iwona;text-align:center;text-anchor:middle">
      <path
         d="m 633.42187,637.1219 v -1.24 c -0.22,-0.08 -0.46,-0.14 -0.68,-0.14 -1.12,0 -2.02,0.78 -2.74,1.64 v -1.5 h -1.56 v 9 h 1.56 v -6.66 c 0.6,-0.7 1.36,-1.3 2.28,-1.3 0.38,0 0.78,0.08 1.14,0.2 z"
         style="font-size:20px;line-height:1.25"
         id="path123" />
      <path
         d="m 642.66185,640.5819 v -0.2 c 0,-2.82 -1.54,-4.7 -3.86,-4.7 -2.34,0 -3.88,1.88 -3.88,4.7 0,2.82 1.54,4.7 3.88,4.7 1,0 1.98,-0.32 2.8,-0.9 v -0.84 c -0.94,0.6 -1.7,0.82 -2.8,0.82 -1.7,0 -2.12,-1.62 -2.12,-3.58 z m -1.76,-0.84 h -4.22 c 0,-1.6 0.68,-3.22 2.12,-3.22 1.42,0 2.1,1.62 2.1,3.22 z"
         style="font-size:20px;line-height:1.25"
         id="path125" />
      <path
         d="m 651.34182,642.3219 c 0,-1.58 -1.68,-2.4 -3.32,-2.8 -0.96,-0.24 -2,-0.64 -2,-1.58 0,-0.86 0.88,-1.42 1.84,-1.42 1.06,0 2.12,0.32 3,0.9 v -0.84 c -0.88,-0.58 -1.94,-0.9 -3,-0.9 -1.74,0 -3.34,1.06 -3.34,2.68 0,1.46 1.62,2.14 3.16,2.52 1.06,0.26 2.16,0.82 2.16,1.84 0,0.94 -0.96,1.52 -1.98,1.52 -1.24,0 -2.44,-0.3 -3.5,-0.9 v 0.84 c 1.06,0.6 2.26,0.9 3.5,0.9 1.8,0 3.48,-1.08 3.48,-2.76 z"
         style="font-size:20px;line-height:1.25"
         id="path127" />
      <path
         d="m 661.0818,640.5819 v -0.2 c 0,-2.82 -1.54,-4.7 -3.86,-4.7 -2.34,0 -3.88,1.88 -3.88,4.7 0,2.82 1.54,4.7 3.88,4.7 1,0 1.98,-0.32 2.8,-0.9 v -0.84 c -0.94,0.6 -1.7,0.82 -2.8,0.82 -1.7,0 -2.12,-1.62 -2.12,-3.58 z m -1.76,-0.84 h -4.22 c 0,-1.6 0.68,-3.22 2.12,-3.22 1.42,0 2.1,1.62 2.1,3.22 z"
         style="font-size:20px;line-height:1.25"
         id="path129" />
      <path
         d="m 667.92178,644.1819 v -0.6 c -0.32,0.32 -0.7,0.58 -1.16,0.58 -0.72,0 -0.76,-0.94 -0.76,-1.78 v -5.66 h 1.92 v -0.84 h -1.92 v -3 h -0.94 c 0,1.6 -0.92,3.1 -2.38,3.1 v 0.74 h 1.76 v 5.66 c 0,1.32 0.42,2.7 1.56,2.7 0.74,0 1.38,-0.4 1.92,-0.9 z"
         style="font-size:20px;line-height:1.25"
         id="path131" />
      <path
         d="m 678.52175,647.1819 v -1 h -10 v 1 z"
         style="font-size:20px;line-height:1.25"
         id="path133" />
      <path
         d="m 683.78171,644.1819 v -0.6 c -0.38,0.32 -0.82,0.58 -1.32,0.58 -0.74,0 -0.88,-0.92 -0.88,-1.78 v -6.5 h -1.56 v 6.5 c 0,1.34 0.52,2.7 1.7,2.7 0.76,0 1.48,-0.38 2.06,-0.9 z m -2,-11.42 c 0,-0.54 -0.44,-0.98 -0.98,-0.98 -0.54,0 -0.98,0.44 -0.98,0.98 0,0.54 0.44,0.98 0.98,0.98 0.54,0 0.98,-0.44 0.98,-0.98 z"
         style="font-size:20px;line-height:1.25"
         id="path135" />
    </g>
    <path
       style="fill:#afdde9;fill-opacity:1;fill-rule:evenodd;stroke:#000000;stroke-width:1px;stroke-linecap:butt;stroke-linejoin:miter;stroke-opacity:1"
       d="m 488.97632,535.03938 v 21.25984 h 17.7165 l 10.63,-10.62991 -10.63,-10.62992 z"
       id="path252043" />
    <g
       aria-label="write_i"
       id="text252047"
       style="line-height:0%;font-family:Iwona;-inkscape-font-specification:Iwona;text-align:end;text-anchor:end">
      <path
         d="m 429.82326,543.75586 h -0.88 l -2.36,7.3 -2.26,-7.3 h -1.08 l -2.36,7.3 -2.28,-7.3 h -1.46 l 2.8,9 h 1.26 l 2.26,-7 2.18,7 h 1.26 z"
         style="font-size:20px;line-height:1.25"
         id="path138" />
      <path
         d="m 436.80325,544.99586 v -1.24 c -0.22,-0.08 -0.46,-0.14 -0.68,-0.14 -1.12,0 -2.02,0.78 -2.74,1.64 v -1.5 h -1.56 v 9 h 1.56 v -6.66 c 0.6,-0.7 1.36,-1.3 2.28,-1.3 0.38,0 0.78,0.08 1.14,0.2 z"
         style="font-size:20px;line-height:1.25"
         id="path140" />
      <path
         d="m 442.46323,552.05586 v -0.6 c -0.38,0.32 -0.82,0.58 -1.32,0.58 -0.74,0 -0.88,-0.92 -0.88,-1.78 v -6.5 h -1.56 v 6.5 c 0,1.34 0.52,2.7 1.7,2.7 0.76,0 1.48,-0.38 2.06,-0.9 z m -2,-11.42 c 0,-0.54 -0.44,-0.98 -0.98,-0.98 -0.54,0 -0.98,0.44 -0.98,0.98 0,0.54 0.44,0.98 0.98,0.98 0.54,0 0.98,-0.44 0.98,-0.98 z"
         style="font-size:20px;line-height:1.25"
         id="path142" />
      <path
         d="m 448.70321,552.05586 v -0.6 c -0.32,0.32 -0.7,0.58 -1.16,0.58 -0.72,0 -0.76,-0.94 -0.76,-1.78 v -5.66 h 1.92 v -0.84 h -1.92 v -3 h -0.94 c 0,1.6 -0.92,3.1 -2.38,3.1 v 0.74 h 1.76 v 5.66 c 0,1.32 0.42,2.7 1.56,2.7 0.74,0 1.38,-0.4 1.92,-0.9 z"
         style="font-size:20px;line-height:1.25"
         id="path144" />
      <path
         d="m 458.14318,548.45586 v -0.2 c 0,-2.82 -1.54,-4.7 -3.86,-4.7 -2.34,0 -3.88,1.88 -3.88,4.7 0,2.82 1.54,4.7 3.88,4.7 1,0 1.98,-0.32 2.8,-0.9 v -0.84 c -0.94,0.6 -1.7,0.82 -2.8,0.82 -1.7,0 -2.12,-1.62 -2.12,-3.58 z m -1.76,-0.84 h -4.22 c 0,-1.6 0.68,-3.22 2.12,-3.22 1.42,0 2.1,1.62 2.1,3.22 z"
         style="font-size:20px;line-height:1.25"
         id="path146" />
      <path
         d="m 469.14316,555.05586 v -1 h -10 v 1 z"
         style="font-size:20px;line-height:1.25"
         id="path148" />
      <path
         d="m 474.40312,552.05586 v -0.6 c -0.38,0.32 -0.82,0.58 -1.32,0.58 -0.74,0 -0.88,-0.92 -0.88,-1.78 v -6.5 h -1.56 v 6.5 c 0,1.34 0.52,2.7 1.7,2.7 0.76,0 1.48,-0.38 2.06,-0.9 z m -2,-11.42 c 0,-0.54 -0.44,-0.98 -0.98,-0.98 -0.54,0 -0.98,0.44 -0.98,0.98 0,0.54 0.44,0.98 0.98,0.98 0.54,0 0.98,-0.44 0.98,-0.98 z"
         style="font-size:20px;line-height:1.25"
         id="path150" />
    </g>
    <path
       style="fill:#afdde9;fill-opacity:1;fill-rule:evenodd;stroke:#000000;stroke-width:1px;stroke-linecap:butt;stroke-linejoin:miter;stroke-opacity:1"
       d="m 488.97632,563.38584 v 21.25984 h 17.7165 l 10.63,-10.62991 -10.63,-10.62993 z"
       id="path252049" />
    <g
       aria-label="wdata_i"
       id="text252053"
       style="line-height:0%;font-family:Iwona;-inkscape-font-specification:Iwona;text-align:end;text-anchor:end">
      <path
         d="m 421.38324,572.10229 h -0.88 l -2.36,7.3 -2.26,-7.3 h -1.08 l -2.36,7.3 -2.28,-7.3 h -1.46 l 2.8,9 h 1.26 l 2.26,-7 2.18,7 h 1.26 z"
         style="font-size:20px;line-height:1.25"
         id="path153" />
      <path
         d="m 430.62323,581.10229 v -14 h -1.56 v 5.34 c -0.78,-0.34 -1.62,-0.54 -2.46,-0.54 -2.5,0 -3.72,2 -3.72,4.7 0,2.66 1,4.7 3.42,4.7 1.02,0 1.96,-0.46 2.76,-1.1 v 0.9 z m -1.56,-1.74 c -0.6,0.6 -1.34,1.1 -2.2,1.1 -1.82,0 -2.22,-1.76 -2.22,-3.86 0,-1.88 0.58,-3.86 2.22,-3.86 0.76,0 1.52,0.2 2.2,0.54 z"
         style="font-size:20px;line-height:1.25"
         id="path155" />
      <path
         d="m 440.86322,581.10229 v -5.6 c 0,-1.88 -1.16,-3.6 -2.9,-3.6 -1.28,0 -2.48,0.44 -3.56,1.12 v 0.62 c 0.9,-0.5 1.9,-0.82 2.94,-0.82 1.24,0 1.96,1.32 1.96,2.68 v 0.36 c -0.78,-0.34 -1.62,-0.54 -2.46,-0.54 -2.14,0 -3.72,0.98 -3.72,3 0,1.92 1.4,2.98 3.42,2.98 1.02,0 1.96,-0.46 2.76,-1.1 v 0.9 z m -1.56,-1.74 c -0.6,0.6 -1.34,1.1 -2.2,1.1 -1.34,0 -2.22,-0.82 -2.22,-2.14 0,-1.22 1,-2.16 2.22,-2.16 0.76,0 1.52,0.2 2.2,0.54 z"
         style="font-size:20px;line-height:1.25"
         id="path157" />
      <path
         d="m 448.3032,580.40229 v -0.6 c -0.32,0.32 -0.7,0.58 -1.16,0.58 -0.72,0 -0.76,-0.94 -0.76,-1.78 v -5.66 h 1.92 v -0.84 h -1.92 v -3 h -0.94 c 0,1.6 -0.92,3.1 -2.38,3.1 v 0.74 h 1.76 v 5.66 c 0,1.32 0.42,2.7 1.56,2.7 0.74,0 1.38,-0.4 1.92,-0.9 z"
         style="font-size:20px;line-height:1.25"
         id="path159" />
      <path
         d="m 457.54318,581.10229 v -5.6 c 0,-1.88 -1.16,-3.6 -2.9,-3.6 -1.28,0 -2.48,0.44 -3.56,1.12 v 0.62 c 0.9,-0.5 1.9,-0.82 2.94,-0.82 1.24,0 1.96,1.32 1.96,2.68 v 0.36 c -0.78,-0.34 -1.62,-0.54 -2.46,-0.54 -2.14,0 -3.72,0.98 -3.72,3 0,1.92 1.4,2.98 3.42,2.98 1.02,0 1.96,-0.46 2.76,-1.1 v 0.9 z m -1.56,-1.74 c -0.6,0.6 -1.34,1.1 -2.2,1.1 -1.34,0 -2.22,-0.82 -2.22,-2.14 0,-1.22 1,-2.16 2.22,-2.16 0.76,0 1.52,0.2 2.2,0.54 z"
         style="font-size:20px;line-height:1.25"
         id="path161" />
      <path
         d="m 469.14316,583.40229 v -1 h -10 v 1 z"
         style="font-size:20px;line-height:1.25"
         id="path163" />
      <path
         d="m 474.40312,580.40229 v -0.6 c -0.38,0.32 -0.82,0.58 -1.32,0.58 -0.74,0 -0.88,-0.92 -0.88,-1.78 v -6.5 h -1.56 v 6.5 c 0,1.34 0.52,2.7 1.7,2.7 0.76,0 1.48,-0.38 2.06,-0.9 z m -2,-11.42 c 0,-0.54 -0.44,-0.98 -0.98,-0.98 -0.54,0 -0.98,0.44 -0.98,0.98 0,0.54 0.44,0.98 0.98,0.98 0.54,0 0.98,-0.44 0.98,-0.98 z"
         style="font-size:20px;line-height:1.25"
         id="path165" />
    </g>
    <path
       id="path252055"
       d="m 510.2362,591.73229 v 21.25984 h -17.7165 l -10.63,-10.62991 10.63,-10.62992 z"
       style="fill:#afdde9;fill-opacity:1;fill-rule:evenodd;stroke:#000000;stroke-width:1px;stroke-linecap:butt;stroke-linejoin:miter;stroke-opacity:1" />
    <g
       aria-label="rdata_o"
       id="text252059"
       style="line-height:0%;font-family:Iwona;-inkscape-font-specification:Iwona;text-align:end;text-anchor:end">
      <path
         d="m 417.80325,601.24464 v -1.24 c -0.22,-0.08 -0.46,-0.14 -0.68,-0.14 -1.12,0 -2.02,0.78 -2.74,1.64 v -1.5 h -1.56 v 9 h 1.56 v -6.66 c 0.6,-0.7 1.36,-1.3 2.28,-1.3 0.38,0 0.78,0.08 1.14,0.2 z"
         style="font-size:20px;line-height:1.25"
         id="path168" />
      <path
         d="m 427.04323,609.00464 v -14 h -1.56 v 5.34 c -0.78,-0.34 -1.62,-0.54 -2.46,-0.54 -2.5,0 -3.72,2 -3.72,4.7 0,2.66 1,4.7 3.42,4.7 1.02,0 1.96,-0.46 2.76,-1.1 v 0.9 z m -1.56,-1.74 c -0.6,0.6 -1.34,1.1 -2.2,1.1 -1.82,0 -2.22,-1.76 -2.22,-3.86 0,-1.88 0.58,-3.86 2.22,-3.86 0.76,0 1.52,0.2 2.2,0.54 z"
         style="font-size:20px;line-height:1.25"
         id="path170" />
      <path
         d="m 437.28322,609.00464 v -5.6 c 0,-1.88 -1.16,-3.6 -2.9,-3.6 -1.28,0 -2.48,0.44 -3.56,1.12 v 0.62 c 0.9,-0.5 1.9,-0.82 2.94,-0.82 1.24,0 1.96,1.32 1.96,2.68 v 0.36 c -0.78,-0.34 -1.62,-0.54 -2.46,-0.54 -2.14,0 -3.72,0.98 -3.72,3 0,1.92 1.4,2.98 3.42,2.98 1.02,0 1.96,-0.46 2.76,-1.1 v 0.9 z m -1.56,-1.74 c -0.6,0.6 -1.34,1.1 -2.2,1.1 -1.34,0 -2.22,-0.82 -2.22,-2.14 0,-1.22 1,-2.16 2.22,-2.16 0.76,0 1.52,0.2 2.2,0.54 z"
         style="font-size:20px;line-height:1.25"
         id="path172" />
      <path
         d="m 444.7232,608.30464 v -0.6 c -0.32,0.32 -0.7,0.58 -1.16,0.58 -0.72,0 -0.76,-0.94 -0.76,-1.78 v -5.66 h 1.92 v -0.84 h -1.92 v -3 h -0.94 c 0,1.6 -0.92,3.1 -2.38,3.1 v 0.74 h 1.76 v 5.66 c 0,1.32 0.42,2.7 1.56,2.7 0.74,0 1.38,-0.4 1.92,-0.9 z"
         style="font-size:20px;line-height:1.25"
         id="path174" />
      <path
         d="m 453.96317,609.00464 v -5.6 c 0,-1.88 -1.16,-3.6 -2.9,-3.6 -1.28,0 -2.48,0.44 -3.56,1.12 v 0.62 c 0.9,-0.5 1.9,-0.82 2.94,-0.82 1.24,0 1.96,1.32 1.96,2.68 v 0.36 c -0.78,-0.34 -1.62,-0.54 -2.46,-0.54 -2.14,0 -3.72,0.98 -3.72,3 0,1.92 1.4,2.98 3.42,2.98 1.02,0 1.96,-0.46 2.76,-1.1 v 0.9 z m -1.56,-1.74 c -0.6,0.6 -1.34,1.1 -2.2,1.1 -1.34,0 -2.22,-0.82 -2.22,-2.14 0,-1.22 1,-2.16 2.22,-2.16 0.76,0 1.52,0.2 2.2,0.54 z"
         style="font-size:20px;line-height:1.25"
         id="path176" />
      <path
         d="m 465.56316,611.30464 v -1 h -10 v 1 z"
         style="font-size:20px;line-height:1.25"
         id="path178" />
      <path
         d="m 474.40312,604.50464 c 0,-3.06 -1.36,-4.7 -3.86,-4.7 -2.52,0 -3.88,1.64 -3.88,4.7 0,3.06 1.36,4.7 3.88,4.7 2.5,0 3.86,-1.64 3.86,-4.7 z m -1.76,0 c 0,2.5 -0.74,3.86 -2.1,3.86 -1.38,0 -2.12,-1.36 -2.12,-3.86 0,-2.5 0.74,-3.86 2.12,-3.86 1.36,0 2.1,1.36 2.1,3.86 z"
         style="font-size:20px;line-height:1.25"
         id="path180" />
    </g>
  </g>
</svg>
