<?xml version="1.0" encoding="UTF-8" standalone="no"?>
<!-- Created with Inkscape (http://www.inkscape.org/) -->

<svg
   width="88.803505mm"
   height="42.546806mm"
   viewBox="0 0 314.65809 150.7564"
   id="svg2"
   version="1.1"
   xmlns="http://www.w3.org/2000/svg"
   xmlns:svg="http://www.w3.org/2000/svg"
   xmlns:rdf="http://www.w3.org/1999/02/22-rdf-syntax-ns#"
   xmlns:cc="http://creativecommons.org/ns#"
   xmlns:dc="http://purl.org/dc/elements/1.1/">
  <defs
     id="defs4" />
  <metadata
     id="metadata7">
    <rdf:RDF>
      <cc:Work
         rdf:about="">
        <dc:format>image/svg+xml</dc:format>
        <dc:type
           rdf:resource="http://purl.org/dc/dcmitype/StillImage" />
        <dc:title />
      </cc:Work>
    </rdf:RDF>
  </metadata>
  <g
     id="layer1"
     transform="translate(-33.047053,-144.77558)">
    <g
       aria-label="ready_i"
       id="text3758"
       style="line-height:0%;font-family:Iwona;-inkscape-font-specification:Iwona;letter-spacing:0px;word-spacing:0px;stroke-width:1px">
      <path
         d="m 305.29362,243.18139 v -0.775 c -0.1375,-0.05 -0.2875,-0.0875 -0.425,-0.0875 -0.7,0 -1.2625,0.4875 -1.7125,1.025 v -0.9375 h -0.975 v 5.625 h 0.975 v -4.1625 c 0.375,-0.4375 0.85,-0.8125 1.425,-0.8125 0.2375,0 0.4875,0.05 0.7125,0.125 z"
         style="font-size:12.5px;line-height:1.25"
         id="path39" />
      <path
         d="m 311.06861,245.34389 v -0.125 c 0,-1.7625 -0.9625,-2.9375 -2.4125,-2.9375 -1.4625,0 -2.425,1.175 -2.425,2.9375 0,1.7625 0.9625,2.9375 2.425,2.9375 0.625,0 1.2375,-0.2 1.75,-0.5625 v -0.525 c -0.5875,0.375 -1.0625,0.5125 -1.75,0.5125 -1.0625,0 -1.325,-1.0125 -1.325,-2.2375 z m -1.1,-0.525 h -2.6375 c 0,-1 0.425,-2.0125 1.325,-2.0125 0.8875,0 1.3125,1.0125 1.3125,2.0125 z"
         style="font-size:12.5px;line-height:1.25"
         id="path41" />
      <path
         d="m 317.09359,248.03139 v -3.5 c 0,-1.175 -0.725,-2.25 -1.8125,-2.25 -0.8,0 -1.55,0.275 -2.225,0.7 v 0.3875 c 0.5625,-0.3125 1.1875,-0.5125 1.8375,-0.5125 0.775,0 1.225,0.825 1.225,1.675 v 0.225 c -0.4875,-0.2125 -1.0125,-0.3375 -1.5375,-0.3375 -1.3375,0 -2.325,0.6125 -2.325,1.875 0,1.2 0.875,1.8625 2.1375,1.8625 0.6375,0 1.225,-0.2875 1.725,-0.6875 v 0.5625 z m -0.975,-1.0875 c -0.375,0.375 -0.8375,0.6875 -1.375,0.6875 -0.8375,0 -1.3875,-0.5125 -1.3875,-1.3375 0,-0.7625 0.625,-1.35 1.3875,-1.35 0.475,0 0.95,0.125 1.375,0.3375 z"
         style="font-size:12.5px;line-height:1.25"
         id="path43" />
      <path
         d="m 323.61858,248.03139 v -8.75 h -0.975 v 3.3375 c -0.4875,-0.2125 -1.0125,-0.3375 -1.5375,-0.3375 -1.5625,0 -2.325,1.25 -2.325,2.9375 0,1.6625 0.625,2.9375 2.1375,2.9375 0.6375,0 1.225,-0.2875 1.725,-0.6875 v 0.5625 z m -0.975,-1.0875 c -0.375,0.375 -0.8375,0.6875 -1.375,0.6875 -1.1375,0 -1.3875,-1.1 -1.3875,-2.4125 0,-1.175 0.3625,-2.4125 1.3875,-2.4125 0.475,0 0.95,0.125 1.375,0.3375 z"
         style="font-size:12.5px;line-height:1.25"
         id="path45" />
      <path
         d="m 330.08107,248.78139 v -6.375 h -0.975 v 4.4125 c -0.425,0.425 -0.95,0.7625 -1.5375,0.7625 -0.5875,0 -1.0375,-0.5125 -1.0375,-1.1125 v -4.0625 h -0.975 v 4.0625 c 0,0.9125 0.7,1.6875 1.6,1.6875 0.75,0 1.4125,-0.425 1.95,-0.95 v 1.575 c 0,0.8375 -0.375,1.675 -1.125,1.675 -0.5875,0 -1.15,-0.125 -1.6875,-0.3375 v 0.3875 c 0.6375,0.325 1.35,0.525 2.075,0.525 1.0625,0 1.7125,-1.1 1.7125,-2.25 z"
         style="font-size:12.5px;line-height:1.25"
         id="path47" />
      <path
         d="m 337.33105,249.46889 v -0.625 h -6.25 v 0.625 z"
         style="font-size:12.5px;line-height:1.25"
         id="path49" />
      <path
         d="m 340.61853,247.59389 v -0.375 c -0.2375,0.2 -0.5125,0.3625 -0.825,0.3625 -0.4625,0 -0.55,-0.575 -0.55,-1.1125 v -4.0625 h -0.975 v 4.0625 c 0,0.8375 0.325,1.6875 1.0625,1.6875 0.475,0 0.925,-0.2375 1.2875,-0.5625 z m -1.25,-7.1375 c 0,-0.3375 -0.275,-0.6125 -0.6125,-0.6125 -0.3375,0 -0.6125,0.275 -0.6125,0.6125 0,0.3375 0.275,0.6125 0.6125,0.6125 0.3375,0 0.6125,-0.275 0.6125,-0.6125 z"
         style="font-size:12.5px;line-height:1.25"
         id="path51" />
    </g>
    <g
       aria-label="valid_o"
       id="text3762"
       style="line-height:0%;font-family:Iwona;-inkscape-font-specification:Iwona;letter-spacing:0px;word-spacing:0px;stroke-width:1px">
      <path
         d="m 306.14362,217.60326 h -0.5625 l -1.7,4.675 -1.65,-4.675 h -0.925 l 1.975,5.625 h 0.8125 z"
         style="font-size:12.5px;line-height:1.25"
         id="path54" />
      <path
         d="m 311.66862,223.22826 v -3.5 c 0,-1.175 -0.725,-2.25 -1.8125,-2.25 -0.8,0 -1.55,0.275 -2.225,0.7 v 0.3875 c 0.5625,-0.3125 1.1875,-0.5125 1.8375,-0.5125 0.775,0 1.225,0.825 1.225,1.675 v 0.225 c -0.4875,-0.2125 -1.0125,-0.3375 -1.5375,-0.3375 -1.3375,0 -2.325,0.6125 -2.325,1.875 0,1.2 0.875,1.8625 2.1375,1.8625 0.6375,0 1.225,-0.2875 1.725,-0.6875 v 0.5625 z m -0.975,-1.0875 c -0.375,0.375 -0.8375,0.6875 -1.375,0.6875 -0.8375,0 -1.3875,-0.5125 -1.3875,-1.3375 0,-0.7625 0.625,-1.35 1.3875,-1.35 0.475,0 0.95,0.125 1.375,0.3375 z"
         style="font-size:12.5px;line-height:1.25"
         id="path56" />
      <path
         d="m 316.01861,222.79076 v -0.375 c -0.2375,0.2 -0.5125,0.3625 -0.825,0.3625 -0.4625,0 -0.55,-0.575 -0.55,-1.1125 v -7.1875 h -0.975 v 7.1875 c 0,0.8375 0.325,1.6875 1.0625,1.6875 0.475,0 0.925,-0.2375 1.2875,-0.5625 z"
         style="font-size:12.5px;line-height:1.25"
         id="path58" />
      <path
         d="m 319.55608,222.79076 v -0.375 c -0.2375,0.2 -0.5125,0.3625 -0.825,0.3625 -0.4625,0 -0.55,-0.575 -0.55,-1.1125 v -4.0625 h -0.975 v 4.0625 c 0,0.8375 0.325,1.6875 1.0625,1.6875 0.475,0 0.925,-0.2375 1.2875,-0.5625 z m -1.25,-7.1375 c 0,-0.3375 -0.275,-0.6125 -0.6125,-0.6125 -0.3375,0 -0.6125,0.275 -0.6125,0.6125 0,0.3375 0.275,0.6125 0.6125,0.6125 0.3375,0 0.6125,-0.275 0.6125,-0.6125 z"
         style="font-size:12.5px;line-height:1.25"
         id="path60" />
      <path
         d="m 325.33107,223.22826 v -8.75 h -0.975 v 3.3375 c -0.4875,-0.2125 -1.0125,-0.3375 -1.5375,-0.3375 -1.5625,0 -2.325,1.25 -2.325,2.9375 0,1.6625 0.625,2.9375 2.1375,2.9375 0.6375,0 1.225,-0.2875 1.725,-0.6875 v 0.5625 z m -0.975,-1.0875 c -0.375,0.375 -0.8375,0.6875 -1.375,0.6875 -1.1375,0 -1.3875,-1.1 -1.3875,-2.4125 0,-1.175 0.3625,-2.4125 1.3875,-2.4125 0.475,0 0.95,0.125 1.375,0.3375 z"
         style="font-size:12.5px;line-height:1.25"
         id="path62" />
      <path
         d="m 332.58106,224.66576 v -0.625 h -6.25 v 0.625 z"
         style="font-size:12.5px;line-height:1.25"
         id="path64" />
      <path
         d="m 338.10604,220.41576 c 0,-1.9125 -0.85,-2.9375 -2.4125,-2.9375 -1.575,0 -2.425,1.025 -2.425,2.9375 0,1.9125 0.85,2.9375 2.425,2.9375 1.5625,0 2.4125,-1.025 2.4125,-2.9375 z m -1.1,0 c 0,1.5625 -0.4625,2.4125 -1.3125,2.4125 -0.8625,0 -1.325,-0.85 -1.325,-2.4125 0,-1.5625 0.4625,-2.4125 1.325,-2.4125 0.85,0 1.3125,0.85 1.3125,2.4125 z"
         style="font-size:12.5px;line-height:1.25"
         id="path66" />
    </g>
    <path
       id="rect4180"
       style="opacity:1;fill:#afdde9;stroke:#000000;stroke-linecap:round;stroke-linejoin:bevel"
       d="M 95.669289,152.3622 H 283.46456 V 265.74801 H 95.669289 Z" />
    <path
       style="fill:#afdde9;fill-opacity:1;stroke:#000000;stroke-width:1px;stroke-linecap:butt;stroke-linejoin:miter;stroke-opacity:1"
       d="m 290.55118,237.40149 h -10.62992 l -7.08661,7.0866 7.08661,7.08661 h 10.62992 z"
       id="path4182" />
    <path
       id="path4184"
       d="m 276.37795,212.59833 h 10.62992 l 7.08661,7.0866 -7.08661,7.08661 h -10.62992 z"
       style="fill:#afdde9;fill-opacity:1;stroke:#000000;stroke-width:1px;stroke-linecap:butt;stroke-linejoin:miter;stroke-opacity:1" />
    <path
       style="fill:#afdde9;fill-opacity:1;stroke:#000000;stroke-width:1px;stroke-linecap:butt;stroke-linejoin:miter;stroke-opacity:1"
       d="m 162.99212,272.83463 v -10.62992 l 7.0866,-7.08661 7.08661,7.08661 v 10.62992 z"
       id="path4186" />
    <g
       aria-label="BiquadFilter"
       id="text4290"
       style="font-size:15px;line-height:0%;font-family:Iwona;-inkscape-font-specification:Iwona;text-align:center;letter-spacing:0px;word-spacing:0px;text-anchor:middle;stroke-width:1px">
      <path
         d="m 158.18833,174.3153 c 0,-1.65 -1.08,-2.52 -2.655,-2.85 1.155,-0.345 1.92,-1.095 1.92,-2.37 0,-1.83 -1.575,-2.58 -3.6,-2.58 -0.78,0 -1.56,0.045 -2.34,0.15 h -1.2 v 10.5 h 1.2 l 2.34,0.15 c 2.43,0 4.335,-0.825 4.335,-3 z m -1.965,-5.22 c 0,1.515 -1.695,2.295 -3.39,2.295 h -1.29 v -4.035 c 0.765,-0.105 1.545,-0.15 2.31,-0.15 1.23,0 2.37,0.75 2.37,1.89 z m 0.495,5.22 c 0,1.38 -1.365,2.31 -2.865,2.31 -0.765,0 -1.545,-0.045 -2.31,-0.15 v -4.56 h 1.935 c 1.65,0 3.24,0.885 3.24,2.4 z"
         style="line-height:1.25"
         id="path70" />
      <path
         d="m 163.03332,176.6403 v -0.45 c -0.285,0.24 -0.615,0.435 -0.99,0.435 -0.555,0 -0.66,-0.69 -0.66,-1.335 v -4.875 h -1.17 v 4.875 c 0,1.005 0.39,2.025 1.275,2.025 0.57,0 1.11,-0.285 1.545,-0.675 z m -1.5,-8.565 c 0,-0.405 -0.33,-0.735 -0.735,-0.735 -0.405,0 -0.735,0.33 -0.735,0.735 0,0.405 0.33,0.735 0.735,0.735 0.405,0 0.735,-0.33 0.735,-0.735 z"
         style="line-height:1.25"
         id="path72" />
      <path
         d="m 169.96331,180.6153 v -10.2 h -1.17 v 0.255 c -0.585,-0.255 -1.215,-0.405 -1.845,-0.405 -1.875,0 -2.79,1.5 -2.79,3.525 0,1.995 0.75,3.525 2.565,3.525 0.765,0 1.47,-0.345 2.07,-0.825 v 4.125 z m -1.17,-4.755 c -0.45,0.45 -1.005,0.825 -1.65,0.825 -1.365,0 -1.665,-1.32 -1.665,-2.895 0,-1.41 0.435,-2.895 1.665,-2.895 0.57,0 1.14,0.15 1.65,0.405 z"
         style="line-height:1.25"
         id="path74" />
      <path
         d="m 177.7183,177.1653 v -6.75 h -1.17 v 5.295 c -0.51,0.51 -1.14,0.915 -1.845,0.915 -0.705,0 -1.245,-0.615 -1.245,-1.335 v -4.875 h -1.17 v 4.875 c 0,1.095 0.84,2.025 1.92,2.025 0.9,0 1.695,-0.51 2.34,-1.14 v 0.99 z"
         style="line-height:1.25"
         id="path76" />
      <path
         d="m 185.39827,177.1653 v -4.2 c 0,-1.41 -0.87,-2.7 -2.175,-2.7 -0.96,0 -1.86,0.33 -2.67,0.84 v 0.465 c 0.675,-0.375 1.425,-0.615 2.205,-0.615 0.93,0 1.47,0.99 1.47,2.01 v 0.27 c -0.585,-0.255 -1.215,-0.405 -1.845,-0.405 -1.605,0 -2.79,0.735 -2.79,2.25 0,1.44 1.05,2.235 2.565,2.235 0.765,0 1.47,-0.345 2.07,-0.825 v 0.675 z m -1.17,-1.305 c -0.45,0.45 -1.005,0.825 -1.65,0.825 -1.005,0 -1.665,-0.615 -1.665,-1.605 0,-0.915 0.75,-1.62 1.665,-1.62 0.57,0 1.14,0.15 1.65,0.405 z"
         style="line-height:1.25"
         id="path78" />
      <path
         d="m 193.22826,177.1653 v -10.5 h -1.17 v 4.005 c -0.585,-0.255 -1.215,-0.405 -1.845,-0.405 -1.875,0 -2.79,1.5 -2.79,3.525 0,1.995 0.75,3.525 2.565,3.525 0.765,0 1.47,-0.345 2.07,-0.825 v 0.675 z m -1.17,-1.305 c -0.45,0.45 -1.005,0.825 -1.65,0.825 -1.365,0 -1.665,-1.32 -1.665,-2.895 0,-1.41 0.435,-2.895 1.665,-2.895 0.57,0 1.14,0.15 1.65,0.405 z"
         style="line-height:1.25"
         id="path80" />
      <path
         d="m 203.06825,167.3553 v -0.69 h -7.14 v 10.5 h 1.23 v -4.905 h 4.77 v -0.69 h -4.77 v -4.215 z"
         style="line-height:1.25"
         id="path82" />
      <path
         d="m 207.76325,176.6403 v -0.45 c -0.285,0.24 -0.615,0.435 -0.99,0.435 -0.555,0 -0.66,-0.69 -0.66,-1.335 v -4.875 h -1.17 v 4.875 c 0,1.005 0.39,2.025 1.275,2.025 0.57,0 1.11,-0.285 1.545,-0.675 z m -1.5,-8.565 c 0,-0.405 -0.33,-0.735 -0.735,-0.735 -0.405,0 -0.735,0.33 -0.735,0.735 0,0.405 0.33,0.735 0.735,0.735 0.405,0 0.735,-0.33 0.735,-0.735 z"
         style="line-height:1.25"
         id="path84" />
      <path
         d="m 212.08323,176.6403 v -0.45 c -0.285,0.24 -0.615,0.435 -0.99,0.435 -0.555,0 -0.66,-0.69 -0.66,-1.335 v -8.625 h -1.17 v 8.625 c 0,1.005 0.39,2.025 1.275,2.025 0.57,0 1.11,-0.285 1.545,-0.675 z"
         style="line-height:1.25"
         id="path86" />
      <path
         d="m 216.7632,176.6403 v -0.45 c -0.24,0.24 -0.525,0.435 -0.87,0.435 -0.54,0 -0.57,-0.705 -0.57,-1.335 v -4.245 h 1.44 v -0.63 h -1.44 v -2.25 h -0.705 c 0,1.2 -0.69,2.325 -1.785,2.325 v 0.555 h 1.32 v 4.245 c 0,0.99 0.315,2.025 1.17,2.025 0.555,0 1.035,-0.3 1.44,-0.675 z"
         style="line-height:1.25"
         id="path88" />
      <path
         d="m 223.84318,173.9403 v -0.15 c 0,-2.115 -1.155,-3.525 -2.895,-3.525 -1.755,0 -2.91,1.41 -2.91,3.525 0,2.115 1.155,3.525 2.91,3.525 0.75,0 1.485,-0.24 2.1,-0.675 v -0.63 c -0.705,0.45 -1.275,0.615 -2.1,0.615 -1.275,0 -1.59,-1.215 -1.59,-2.685 z m -1.32,-0.63 h -3.165 c 0,-1.2 0.51,-2.415 1.59,-2.415 1.065,0 1.575,1.215 1.575,2.415 z"
         style="line-height:1.25"
         id="path90" />
      <path
         d="m 229.52816,171.3453 v -0.93 c -0.165,-0.06 -0.345,-0.105 -0.51,-0.105 -0.84,0 -1.515,0.585 -2.055,1.23 v -1.125 h -1.17 v 6.75 h 1.17 v -4.995 c 0.45,-0.525 1.02,-0.975 1.71,-0.975 0.285,0 0.585,0.06 0.855,0.15 z"
         style="line-height:1.25"
         id="path92" />
    </g>
    <path
       id="path4294"
       d="m 88.58266,187.79525 h 10.629938 l 7.086612,7.0866 -7.086612,7.08662 H 88.58266 Z"
       style="fill:#afdde9;fill-opacity:1;stroke:#000000;stroke-width:1px;stroke-linecap:butt;stroke-linejoin:miter;stroke-opacity:1" />
    <path
       id="path4298"
       d="m 201.9685,272.83463 v -10.62992 l 7.0866,-7.08661 7.08661,7.08661 v 10.62992 z"
       style="fill:#afdde9;fill-opacity:1;stroke:#000000;stroke-width:1px;stroke-linecap:butt;stroke-linejoin:miter;stroke-opacity:1" />
    <g
       aria-label="data_o"
       id="text4433"
       style="line-height:0%;font-family:Iwona;-inkscape-font-specification:Iwona;letter-spacing:0px;word-spacing:0px;stroke-width:1px">
      <path
         d="m 306.70612,198.42513 v -8.75 h -0.975 v 3.3375 c -0.4875,-0.2125 -1.0125,-0.3375 -1.5375,-0.3375 -1.5625,0 -2.325,1.25 -2.325,2.9375 0,1.6625 0.625,2.9375 2.1375,2.9375 0.6375,0 1.225,-0.2875 1.725,-0.6875 v 0.5625 z m -0.975,-1.0875 c -0.375,0.375 -0.8375,0.6875 -1.375,0.6875 -1.1375,0 -1.3875,-1.1 -1.3875,-2.4125 0,-1.175 0.3625,-2.4125 1.3875,-2.4125 0.475,0 0.95,0.125 1.375,0.3375 z"
         style="font-size:12.5px;line-height:1.25"
         id="path95" />
      <path
         d="m 313.10611,198.42513 v -3.5 c 0,-1.175 -0.725,-2.25 -1.8125,-2.25 -0.8,0 -1.55,0.275 -2.225,0.7 v 0.3875 c 0.5625,-0.3125 1.1875,-0.5125 1.8375,-0.5125 0.775,0 1.225,0.825 1.225,1.675 v 0.225 c -0.4875,-0.2125 -1.0125,-0.3375 -1.5375,-0.3375 -1.3375,0 -2.325,0.6125 -2.325,1.875 0,1.2 0.875,1.8625 2.1375,1.8625 0.6375,0 1.225,-0.2875 1.725,-0.6875 v 0.5625 z m -0.975,-1.0875 c -0.375,0.375 -0.8375,0.6875 -1.375,0.6875 -0.8375,0 -1.3875,-0.5125 -1.3875,-1.3375 0,-0.7625 0.625,-1.35 1.3875,-1.35 0.475,0 0.95,0.125 1.375,0.3375 z"
         style="font-size:12.5px;line-height:1.25"
         id="path97" />
      <path
         d="m 317.7561,197.98763 v -0.375 c -0.2,0.2 -0.4375,0.3625 -0.725,0.3625 -0.45,0 -0.475,-0.5875 -0.475,-1.1125 v -3.5375 h 1.2 v -0.525 h -1.2 v -1.875 h -0.5875 c 0,1 -0.575,1.9375 -1.4875,1.9375 v 0.4625 h 1.1 v 3.5375 c 0,0.825 0.2625,1.6875 0.975,1.6875 0.4625,0 0.8625,-0.25 1.2,-0.5625 z"
         style="font-size:12.5px;line-height:1.25"
         id="path99" />
      <path
         d="m 323.53108,198.42513 v -3.5 c 0,-1.175 -0.725,-2.25 -1.8125,-2.25 -0.8,0 -1.55,0.275 -2.225,0.7 v 0.3875 c 0.5625,-0.3125 1.1875,-0.5125 1.8375,-0.5125 0.775,0 1.225,0.825 1.225,1.675 v 0.225 c -0.4875,-0.2125 -1.0125,-0.3375 -1.5375,-0.3375 -1.3375,0 -2.325,0.6125 -2.325,1.875 0,1.2 0.875,1.8625 2.1375,1.8625 0.6375,0 1.225,-0.2875 1.725,-0.6875 v 0.5625 z m -0.975,-1.0875 c -0.375,0.375 -0.8375,0.6875 -1.375,0.6875 -0.8375,0 -1.3875,-0.5125 -1.3875,-1.3375 0,-0.7625 0.625,-1.35 1.3875,-1.35 0.475,0 0.95,0.125 1.375,0.3375 z"
         style="font-size:12.5px;line-height:1.25"
         id="path101" />
      <path
         d="m 330.78107,199.86263 v -0.625 h -6.25 v 0.625 z"
         style="font-size:12.5px;line-height:1.25"
         id="path103" />
      <path
         d="m 336.30605,195.61263 c 0,-1.9125 -0.85,-2.9375 -2.4125,-2.9375 -1.575,0 -2.425,1.025 -2.425,2.9375 0,1.9125 0.85,2.9375 2.425,2.9375 1.5625,0 2.4125,-1.025 2.4125,-2.9375 z m -1.1,0 c 0,1.5625 -0.4625,2.4125 -1.3125,2.4125 -0.8625,0 -1.325,-0.85 -1.325,-2.4125 0,-1.5625 0.4625,-2.4125 1.325,-2.4125 0.85,0 1.3125,0.85 1.3125,2.4125 z"
         style="font-size:12.5px;line-height:1.25"
         id="path105" />
    </g>
    <path
       id="path4437"
       d="m 276.37795,187.79521 h 10.62992 l 7.08661,7.08661 -7.08661,7.08661 h -10.62992 z"
       style="fill:#afdde9;fill-opacity:1;stroke:#000000;stroke-width:1px;stroke-linecap:butt;stroke-linejoin:miter;stroke-opacity:1" />
    <path
       style="fill:#afdde9;fill-opacity:1;stroke:#000000;stroke-width:1px;stroke-linecap:butt;stroke-linejoin:miter;stroke-opacity:1"
       d="M 102.75589,237.40156 H 92.125972 l -7.086612,7.0866 7.086612,7.08662 h 10.629918 z"
       id="path4445" />
    <g
       aria-label="clk_i"
       id="text4449"
       style="line-height:0%;font-family:Iwona;-inkscape-font-specification:Iwona;text-align:center;letter-spacing:0px;word-spacing:0px;text-anchor:middle;stroke-width:1px">
      <path
         d="m 162.77253,282.68287 v -0.525 c -0.4,-0.5625 -1.05,-0.9 -1.75,-0.9 -1.5625,0 -2.6125,1.175 -2.6125,2.9375 0,1.7625 1.05,2.9375 2.6125,2.9375 0.65,0 1.2625,-0.325 1.625,-0.8625 v -0.525 c -0.425,0.6375 -0.8625,0.8625 -1.625,0.8625 -0.9,0 -1.5125,-0.9625 -1.5125,-2.4125 0,-1.45 0.6125,-2.4125 1.5125,-2.4125 0.775,0 1.3,0.275 1.75,0.9 z"
         style="font-size:12.5px;line-height:1.25"
         id="path108" />
      <path
         d="m 166.43501,286.57037 v -0.375 c -0.2375,0.2 -0.5125,0.3625 -0.825,0.3625 -0.4625,0 -0.55,-0.575 -0.55,-1.1125 v -7.1875 h -0.975 v 7.1875 c 0,0.8375 0.325,1.6875 1.0625,1.6875 0.475,0 0.925,-0.2375 1.2875,-0.5625 z"
         style="font-size:12.5px;line-height:1.25"
         id="path110" />
      <path
         d="m 172.52249,287.00787 -2.9,-3.3375 2.8,-2.2875 h -0.775 l -2.9875,2.45 v -5.575 h -0.975 v 8.75 h 0.975 v -3.1125 l 2.7,3.1125 z"
         style="font-size:12.5px;line-height:1.25"
         id="path112" />
      <path
         d="m 178.89748,288.44537 v -0.625 h -6.25 v 0.625 z"
         style="font-size:12.5px;line-height:1.25"
         id="path114" />
      <path
         d="m 182.18496,286.57037 v -0.375 c -0.2375,0.2 -0.5125,0.3625 -0.825,0.3625 -0.4625,0 -0.55,-0.575 -0.55,-1.1125 v -4.0625 h -0.975 v 4.0625 c 0,0.8375 0.325,1.6875 1.0625,1.6875 0.475,0 0.925,-0.2375 1.2875,-0.5625 z m -1.25,-7.1375 c 0,-0.3375 -0.275,-0.6125 -0.6125,-0.6125 -0.3375,0 -0.6125,0.275 -0.6125,0.6125 0,0.3375 0.275,0.6125 0.6125,0.6125 0.3375,0 0.6125,-0.275 0.6125,-0.6125 z"
         style="font-size:12.5px;line-height:1.25"
         id="path116" />
    </g>
    <g
       aria-label="reset_i"
       id="text4453"
       style="line-height:0%;font-family:Iwona;-inkscape-font-specification:Iwona;text-align:center;letter-spacing:0px;word-spacing:0px;text-anchor:middle;stroke-width:1px">
      <path
         d="m 195.24892,282.15787 v -0.775 c -0.1375,-0.05 -0.2875,-0.0875 -0.425,-0.0875 -0.7,0 -1.2625,0.4875 -1.7125,1.025 v -0.9375 h -0.975 v 5.625 h 0.975 v -4.1625 c 0.375,-0.4375 0.85,-0.8125 1.425,-0.8125 0.2375,0 0.4875,0.05 0.7125,0.125 z"
         style="font-size:12.5px;line-height:1.25"
         id="path119" />
      <path
         d="m 201.02391,284.32037 v -0.125 c 0,-1.7625 -0.9625,-2.9375 -2.4125,-2.9375 -1.4625,0 -2.425,1.175 -2.425,2.9375 0,1.7625 0.9625,2.9375 2.425,2.9375 0.625,0 1.2375,-0.2 1.75,-0.5625 v -0.525 c -0.5875,0.375 -1.0625,0.5125 -1.75,0.5125 -1.0625,0 -1.325,-1.0125 -1.325,-2.2375 z m -1.1,-0.525 h -2.6375 c 0,-1 0.425,-2.0125 1.325,-2.0125 0.8875,0 1.3125,1.0125 1.3125,2.0125 z"
         style="font-size:12.5px;line-height:1.25"
         id="path121" />
      <path
         d="m 206.44889,285.40787 c 0,-0.9875 -1.05,-1.5 -2.075,-1.75 -0.6,-0.15 -1.25,-0.4 -1.25,-0.9875 0,-0.5375 0.55,-0.8875 1.15,-0.8875 0.6625,0 1.325,0.2 1.875,0.5625 v -0.525 c -0.55,-0.3625 -1.2125,-0.5625 -1.875,-0.5625 -1.0875,0 -2.0875,0.6625 -2.0875,1.675 0,0.9125 1.0125,1.3375 1.975,1.575 0.6625,0.1625 1.35,0.5125 1.35,1.15 0,0.5875 -0.6,0.95 -1.2375,0.95 -0.775,0 -1.525,-0.1875 -2.1875,-0.5625 v 0.525 c 0.6625,0.375 1.4125,0.5625 2.1875,0.5625 1.125,0 2.175,-0.675 2.175,-1.725 z"
         style="font-size:12.5px;line-height:1.25"
         id="path123" />
      <path
         d="m 212.53638,284.32037 v -0.125 c 0,-1.7625 -0.9625,-2.9375 -2.4125,-2.9375 -1.4625,0 -2.425,1.175 -2.425,2.9375 0,1.7625 0.9625,2.9375 2.425,2.9375 0.625,0 1.2375,-0.2 1.75,-0.5625 v -0.525 c -0.5875,0.375 -1.0625,0.5125 -1.75,0.5125 -1.0625,0 -1.325,-1.0125 -1.325,-2.2375 z m -1.1,-0.525 h -2.6375 c 0,-1 0.425,-2.0125 1.325,-2.0125 0.8875,0 1.3125,1.0125 1.3125,2.0125 z"
         style="font-size:12.5px;line-height:1.25"
         id="path125" />
      <path
         d="m 216.81136,286.57037 v -0.375 c -0.2,0.2 -0.4375,0.3625 -0.725,0.3625 -0.45,0 -0.475,-0.5875 -0.475,-1.1125 v -3.5375 h 1.2 v -0.525 h -1.2 v -1.875 h -0.5875 c 0,1 -0.575,1.9375 -1.4875,1.9375 v 0.4625 h 1.1 v 3.5375 c 0,0.825 0.2625,1.6875 0.975,1.6875 0.4625,0 0.8625,-0.25 1.2,-0.5625 z"
         style="font-size:12.5px;line-height:1.25"
         id="path127" />
      <path
         d="m 223.43634,288.44537 v -0.625 h -6.25 v 0.625 z"
         style="font-size:12.5px;line-height:1.25"
         id="path129" />
      <path
         d="m 226.72382,286.57037 v -0.375 c -0.2375,0.2 -0.5125,0.3625 -0.825,0.3625 -0.4625,0 -0.55,-0.575 -0.55,-1.1125 v -4.0625 h -0.975 v 4.0625 c 0,0.8375 0.325,1.6875 1.0625,1.6875 0.475,0 0.925,-0.2375 1.2875,-0.5625 z m -1.25,-7.1375 c 0,-0.3375 -0.275,-0.6125 -0.6125,-0.6125 -0.3375,0 -0.6125,0.275 -0.6125,0.6125 0,0.3375 0.275,0.6125 0.6125,0.6125 0.3375,0 0.6125,-0.275 0.6125,-0.6125 z"
         style="font-size:12.5px;line-height:1.25"
         id="path131" />
    </g>
    <g
       aria-label="data_i"
       id="text4457"
       style="line-height:0%;font-family:Iwona;-inkscape-font-specification:Iwona;text-align:end;letter-spacing:0px;word-spacing:0px;text-anchor:end;stroke-width:1px">
      <path
         d="m 53.883639,198.42517 v -8.75 h -0.975 v 3.3375 c -0.4875,-0.2125 -1.0125,-0.3375 -1.5375,-0.3375 -1.5625,0 -2.325,1.25 -2.325,2.9375 0,1.6625 0.625,2.9375 2.1375,2.9375 0.6375,0 1.225,-0.2875 1.725,-0.6875 v 0.5625 z m -0.975,-1.0875 c -0.375,0.375 -0.8375,0.6875 -1.375,0.6875 -1.1375,0 -1.3875,-1.1 -1.3875,-2.4125 0,-1.175 0.3625,-2.4125 1.3875,-2.4125 0.475,0 0.95,0.125 1.375,0.3375 z"
         style="font-size:12.5px;line-height:1.25"
         id="path134" />
      <path
         d="m 60.283631,198.42517 v -3.5 c 0,-1.175 -0.725,-2.25 -1.8125,-2.25 -0.8,0 -1.55,0.275 -2.225,0.7 v 0.3875 c 0.5625,-0.3125 1.1875,-0.5125 1.8375,-0.5125 0.775,0 1.225,0.825 1.225,1.675 v 0.225 c -0.4875,-0.2125 -1.0125,-0.3375 -1.5375,-0.3375 -1.3375,0 -2.325,0.6125 -2.325,1.875 0,1.2 0.875,1.8625 2.1375,1.8625 0.6375,0 1.225,-0.2875 1.725,-0.6875 v 0.5625 z m -0.975,-1.0875 c -0.375,0.375 -0.8375,0.6875 -1.375,0.6875 -0.8375,0 -1.3875,-0.5125 -1.3875,-1.3375 0,-0.7625 0.625,-1.35 1.3875,-1.35 0.475,0 0.95,0.125 1.375,0.3375 z"
         style="font-size:12.5px;line-height:1.25"
         id="path136" />
      <path
         d="m 64.93362,197.98767 v -0.375 c -0.2,0.2 -0.4375,0.3625 -0.725,0.3625 -0.45,0 -0.475,-0.5875 -0.475,-1.1125 v -3.5375 h 1.2 v -0.525 h -1.2 v -1.875 h -0.5875 c 0,1 -0.575,1.9375 -1.4875,1.9375 v 0.4625 h 1.1 v 3.5375 c 0,0.825 0.2625,1.6875 0.975,1.6875 0.4625,0 0.8625,-0.25 1.2,-0.5625 z"
         style="font-size:12.5px;line-height:1.25"
         id="path138" />
      <path
         d="m 70.708601,198.42517 v -3.5 c 0,-1.175 -0.725,-2.25 -1.8125,-2.25 -0.8,0 -1.55,0.275 -2.225,0.7 v 0.3875 c 0.5625,-0.3125 1.1875,-0.5125 1.8375,-0.5125 0.775,0 1.225,0.825 1.225,1.675 v 0.225 c -0.4875,-0.2125 -1.0125,-0.3375 -1.5375,-0.3375 -1.3375,0 -2.325,0.6125 -2.325,1.875 0,1.2 0.875,1.8625 2.1375,1.8625 0.6375,0 1.225,-0.2875 1.725,-0.6875 v 0.5625 z m -0.975,-1.0875 c -0.375,0.375 -0.8375,0.6875 -1.375,0.6875 -0.8375,0 -1.3875,-0.5125 -1.3875,-1.3375 0,-0.7625 0.625,-1.35 1.3875,-1.35 0.475,0 0.95,0.125 1.375,0.3375 z"
         style="font-size:12.5px;line-height:1.25"
         id="path140" />
      <path
         d="m 77.958591,199.86267 v -0.625 h -6.25 v 0.625 z"
         style="font-size:12.5px;line-height:1.25"
         id="path142" />
      <path
         d="m 81.246069,197.98767 v -0.375 c -0.2375,0.2 -0.5125,0.3625 -0.825,0.3625 -0.4625,0 -0.55,-0.575 -0.55,-1.1125 v -4.0625 h -0.975 v 4.0625 c 0,0.8375 0.325,1.6875 1.0625,1.6875 0.475,0 0.925,-0.2375 1.2875,-0.5625 z m -1.25,-7.1375 c 0,-0.3375 -0.275,-0.6125 -0.6125,-0.6125 -0.3375,0 -0.6125,0.275 -0.6125,0.6125 0,0.3375 0.275,0.6125 0.6125,0.6125 0.3375,0 0.6125,-0.275 0.6125,-0.6125 z"
         style="font-size:12.5px;line-height:1.25"
         id="path144" />
    </g>
    <g
       aria-label="ready_o"
       id="text4465"
       style="line-height:0%;font-family:Iwona;-inkscape-font-specification:Iwona;text-align:end;letter-spacing:0px;word-spacing:0px;text-anchor:end;stroke-width:1px">
      <path
         d="m 43.246167,243.18145 v -0.775 c -0.1375,-0.05 -0.2875,-0.0875 -0.425,-0.0875 -0.7,0 -1.2625,0.4875 -1.7125,1.025 v -0.9375 h -0.975 v 5.625 h 0.975 v -4.1625 c 0.375,-0.4375 0.85,-0.8125 1.425,-0.8125 0.2375,0 0.4875,0.05 0.7125,0.125 z"
         style="font-size:12.5px;line-height:1.25"
         id="path147" />
      <path
         d="m 49.021155,245.34395 v -0.125 c 0,-1.7625 -0.9625,-2.9375 -2.4125,-2.9375 -1.4625,0 -2.425,1.175 -2.425,2.9375 0,1.7625 0.9625,2.9375 2.425,2.9375 0.625,0 1.2375,-0.2 1.75,-0.5625 v -0.525 c -0.5875,0.375 -1.0625,0.5125 -1.75,0.5125 -1.0625,0 -1.325,-1.0125 -1.325,-2.2375 z m -1.1,-0.525 h -2.6375 c 0,-1 0.425,-2.0125 1.325,-2.0125 0.8875,0 1.3125,1.0125 1.3125,2.0125 z"
         style="font-size:12.5px;line-height:1.25"
         id="path149" />
      <path
         d="m 55.046138,248.03145 v -3.5 c 0,-1.175 -0.725,-2.25 -1.8125,-2.25 -0.8,0 -1.55,0.275 -2.225,0.7 v 0.3875 c 0.5625,-0.3125 1.1875,-0.5125 1.8375,-0.5125 0.775,0 1.225,0.825 1.225,1.675 v 0.225 c -0.4875,-0.2125 -1.0125,-0.3375 -1.5375,-0.3375 -1.3375,0 -2.325,0.6125 -2.325,1.875 0,1.2 0.875,1.8625 2.1375,1.8625 0.6375,0 1.225,-0.2875 1.725,-0.6875 v 0.5625 z m -0.975,-1.0875 c -0.375,0.375 -0.8375,0.6875 -1.375,0.6875 -0.8375,0 -1.3875,-0.5125 -1.3875,-1.3375 0,-0.7625 0.625,-1.35 1.3875,-1.35 0.475,0 0.95,0.125 1.375,0.3375 z"
         style="font-size:12.5px;line-height:1.25"
         id="path151" />
      <path
         d="m 61.571127,248.03145 v -8.75 h -0.975 v 3.3375 c -0.4875,-0.2125 -1.0125,-0.3375 -1.5375,-0.3375 -1.5625,0 -2.325,1.25 -2.325,2.9375 0,1.6625 0.625,2.9375 2.1375,2.9375 0.6375,0 1.225,-0.2875 1.725,-0.6875 v 0.5625 z m -0.975,-1.0875 c -0.375,0.375 -0.8375,0.6875 -1.375,0.6875 -1.1375,0 -1.3875,-1.1 -1.3875,-2.4125 0,-1.175 0.3625,-2.4125 1.3875,-2.4125 0.475,0 0.95,0.125 1.375,0.3375 z"
         style="font-size:12.5px;line-height:1.25"
         id="path153" />
      <path
         d="m 68.033619,248.78145 v -6.375 h -0.975 v 4.4125 c -0.425,0.425 -0.95,0.7625 -1.5375,0.7625 -0.5875,0 -1.0375,-0.5125 -1.0375,-1.1125 v -4.0625 h -0.975 v 4.0625 c 0,0.9125 0.7,1.6875 1.6,1.6875 0.75,0 1.4125,-0.425 1.95,-0.95 v 1.575 c 0,0.8375 -0.375,1.675 -1.125,1.675 -0.5875,0 -1.15,-0.125 -1.6875,-0.3375 v 0.3875 c 0.6375,0.325 1.35,0.525 2.075,0.525 1.0625,0 1.7125,-1.1 1.7125,-2.25 z"
         style="font-size:12.5px;line-height:1.25"
         id="path155" />
      <path
         d="m 75.283598,249.46895 v -0.625 h -6.25 v 0.625 z"
         style="font-size:12.5px;line-height:1.25"
         id="path157" />
      <path
         d="m 80.808573,245.21895 c 0,-1.9125 -0.85,-2.9375 -2.4125,-2.9375 -1.575,0 -2.425,1.025 -2.425,2.9375 0,1.9125 0.85,2.9375 2.425,2.9375 1.5625,0 2.4125,-1.025 2.4125,-2.9375 z m -1.1,0 c 0,1.5625 -0.4625,2.4125 -1.3125,2.4125 -0.8625,0 -1.325,-0.85 -1.325,-2.4125 0,-1.5625 0.4625,-2.4125 1.325,-2.4125 0.85,0 1.3125,0.85 1.3125,2.4125 z"
         style="font-size:12.5px;line-height:1.25"
         id="path159" />
    </g>
    <g
       id="g3327"
       transform="translate(70.869671,-24.803203)">
      <path
         id="rect4901"
         style="fill:#afdde9;stroke:#000000;stroke-width:0.999212;stroke-linecap:round;stroke-dasharray:0.999213, 1.99843"
         d="M 60.236217,230.31496 H 177.16536 v 31.88971 H 60.236217 Z" />
      <g
         aria-label="A1, A2, B0, B1, B2"
         id="text4903"
         style="line-height:0%;font-family:Iwona;-inkscape-font-specification:Iwona;letter-spacing:0px;word-spacing:0px">
        <path
           d="m 75.897362,249.97504 -3.175,-8.75 h -1.0875 l -3.2375,8.75 h 0.6125 l 1.1375,-3.0625 h 3.55 l 1.1125,3.0625 z m -2.4125,-3.6375 h -3.125 l 1.575,-4.275 z"
           style="font-size:12.5px;line-height:1.25"
           id="path163" />
        <path
           d="m 80.147348,249.97504 v -8.625 h -0.725 c -0.6875,0.7875 -1.5,1.4625 -2.4,1.9875 v 0.525 c 0.7625,-0.3625 1.475,-0.7875 2.15,-1.3 v 7.4125 z"
           style="font-size:12.5px;line-height:1.25"
           id="path165" />
        <path
           d="m 84.534844,248.75004 h -0.975 c 0,0.9 -0.15,1.8 -0.4375,2.6625 h 0.525 c 0.575,-0.7625 0.8875,-1.7 0.8875,-2.6625 z"
           style="font-size:12.5px;line-height:1.25"
           id="path167" />
        <path
           d="m 97.047306,249.97504 -3.175,-8.75 h -1.0875 l -3.2375,8.75 h 0.6125 l 1.1375,-3.0625 h 3.55 l 1.1125,3.0625 z m -2.4125,-3.6375 h -3.125 l 1.575,-4.275 z"
           style="font-size:12.5px;line-height:1.25"
           id="path169" />
        <path
           d="m 103.10979,249.97504 v -0.775 h -4.412495 l 2.299995,-2.275 c 1.025,-1.025 1.9875,-2.225 1.9875,-3.675 0,-1.225 -1.2125,-2.025 -2.525,-2.025 -0.987495,0 -1.924995,0.45 -2.537495,1.2125 v 0.525 c 0.6375,-0.7375 1.5625,-1.1625 2.537495,-1.1625 0.8375,0 1.55,0.625 1.55,1.45 0,1.2375 -0.575,2.3875 -1.425,3.275 l -2.787495,2.8625 v 0.5875 z"
           style="font-size:12.5px;line-height:1.25"
           id="path171" />
        <path
           d="m 105.68479,248.75004 h -0.975 c 0,0.9 -0.15,1.8 -0.4375,2.6625 h 0.525 c 0.575,-0.7625 0.8875,-1.7 0.8875,-2.6625 z"
           style="font-size:12.5px;line-height:1.25"
           id="path173" />
        <path
           d="m 118.38475,247.60004 c 0,-1.375 -0.9,-2.1 -2.2125,-2.375 0.9625,-0.2875 1.6,-0.9125 1.6,-1.975 0,-1.525 -1.3125,-2.15 -3,-2.15 -0.65,0 -1.3,0.0375 -1.95,0.125 h -1 v 8.75 h 1 l 1.95,0.125 c 2.025,0 3.6125,-0.6875 3.6125,-2.5 z m -1.6375,-4.35 c 0,1.2625 -1.4125,1.9125 -2.825,1.9125 h -1.075 v -3.3625 c 0.6375,-0.0875 1.2875,-0.125 1.925,-0.125 1.025,0 1.975,0.625 1.975,1.575 z m 0.4125,4.35 c 0,1.15 -1.1375,1.925 -2.3875,1.925 -0.6375,0 -1.2875,-0.0375 -1.925,-0.125 v -3.8 h 1.6125 c 1.375,0 2.7,0.7375 2.7,2 z"
           style="font-size:12.5px;line-height:1.25"
           id="path175" />
        <path
           d="m 125.15975,245.66254 c 0,-2.9625 -0.9125,-4.4375 -2.7375,-4.4375 -1.825,0 -2.7375,1.475 -2.7375,4.4375 0,2.9625 0.9125,4.4375 2.7375,4.4375 1.825,0 2.7375,-1.475 2.7375,-4.4375 z m -1.1,0 c 0,2.6125 -0.55,3.9125 -1.6375,3.9125 -1.0875,0 -1.6375,-1.3 -1.6375,-3.9125 0,-2.6125 0.55,-3.9125 1.6375,-3.9125 1.0875,0 1.6375,1.3 1.6375,3.9125 z"
           style="font-size:12.5px;line-height:1.25"
           id="path177" />
        <path
           d="m 127.64724,248.75004 h -0.975 c 0,0.9 -0.15,1.8 -0.4375,2.6625 h 0.525 c 0.575,-0.7625 0.8875,-1.7 0.8875,-2.6625 z"
           style="font-size:12.5px;line-height:1.25"
           id="path179" />
        <path
           d="m 140.34721,247.60004 c 0,-1.375 -0.9,-2.1 -2.2125,-2.375 0.9625,-0.2875 1.6,-0.9125 1.6,-1.975 0,-1.525 -1.3125,-2.15 -3,-2.15 -0.65,0 -1.3,0.0375 -1.95,0.125 h -1 v 8.75 h 1 l 1.95,0.125 c 2.025,0 3.6125,-0.6875 3.6125,-2.5 z m -1.6375,-4.35 c 0,1.2625 -1.4125,1.9125 -2.825,1.9125 h -1.075 v -3.3625 c 0.6375,-0.0875 1.2875,-0.125 1.925,-0.125 1.025,0 1.975,0.625 1.975,1.575 z m 0.4125,4.35 c 0,1.15 -1.1375,1.925 -2.3875,1.925 -0.6375,0 -1.2875,-0.0375 -1.925,-0.125 v -3.8 h 1.6125 c 1.375,0 2.7,0.7375 2.7,2 z"
           style="font-size:12.5px;line-height:1.25"
           id="path181" />
        <path
           d="m 145.2222,249.97504 v -8.625 h -0.725 c -0.6875,0.7875 -1.5,1.4625 -2.4,1.9875 v 0.525 c 0.7625,-0.3625 1.475,-0.7875 2.15,-1.3 v 7.4125 z"
           style="font-size:12.5px;line-height:1.25"
           id="path183" />
        <path
           d="m 149.60969,248.75004 h -0.975 c 0,0.9 -0.15,1.8 -0.4375,2.6625 h 0.525 c 0.575,-0.7625 0.8875,-1.7 0.8875,-2.6625 z"
           style="font-size:12.5px;line-height:1.25"
           id="path185" />
        <path
           d="m 162.30965,247.60004 c 0,-1.375 -0.9,-2.1 -2.2125,-2.375 0.9625,-0.2875 1.6,-0.9125 1.6,-1.975 0,-1.525 -1.3125,-2.15 -3,-2.15 -0.65,0 -1.3,0.0375 -1.95,0.125 h -1 v 8.75 h 1 l 1.95,0.125 c 2.025,0 3.6125,-0.6875 3.6125,-2.5 z m -1.6375,-4.35 c 0,1.2625 -1.4125,1.9125 -2.825,1.9125 h -1.075 v -3.3625 c 0.6375,-0.0875 1.2875,-0.125 1.925,-0.125 1.025,0 1.975,0.625 1.975,1.575 z m 0.4125,4.35 c 0,1.15 -1.1375,1.925 -2.3875,1.925 -0.6375,0 -1.2875,-0.0375 -1.925,-0.125 v -3.8 h 1.6125 c 1.375,0 2.7,0.7375 2.7,2 z"
           style="font-size:12.5px;line-height:1.25"
           id="path187" />
        <path
           d="m 168.99715,249.97504 v -0.775 h -4.4125 l 2.3,-2.275 c 1.025,-1.025 1.9875,-2.225 1.9875,-3.675 0,-1.225 -1.2125,-2.025 -2.525,-2.025 -0.9875,0 -1.925,0.45 -2.5375,1.2125 v 0.525 c 0.6375,-0.7375 1.5625,-1.1625 2.5375,-1.1625 0.8375,0 1.55,0.625 1.55,1.45 0,1.2375 -0.575,2.3875 -1.425,3.275 l -2.7875,2.8625 v 0.5875 z"
           style="font-size:12.5px;line-height:1.25"
           id="path189" />
      </g>
    </g>
    <path
       style="fill:#afdde9;fill-opacity:1;stroke:#000000;stroke-width:1px;stroke-linecap:butt;stroke-linejoin:miter;stroke-opacity:1"
       d="m 88.58266,212.59841 h 10.629933 l 7.086617,7.0866 -7.086617,7.08662 H 88.58266 Z"
       id="path3371" />
    <g
       aria-label="valid_i"
       id="text3373"
       style="line-height:0%;font-family:Iwona;-inkscape-font-specification:Iwona;text-align:end;letter-spacing:0px;word-spacing:0px;text-anchor:end;stroke-width:1px">
      <path
         d="m 51.521158,217.60333 h -0.5625 l -1.7,4.675 -1.65,-4.675 h -0.925 l 1.975,5.625 h 0.8125 z"
         style="font-size:12.5px;line-height:1.25"
         id="path192" />
      <path
         d="m 57.046152,223.22833 v -3.5 c 0,-1.175 -0.725,-2.25 -1.8125,-2.25 -0.8,0 -1.55,0.275 -2.225,0.7 v 0.3875 c 0.5625,-0.3125 1.1875,-0.5125 1.8375,-0.5125 0.775,0 1.225,0.825 1.225,1.675 v 0.225 c -0.4875,-0.2125 -1.0125,-0.3375 -1.5375,-0.3375 -1.3375,0 -2.325,0.6125 -2.325,1.875 0,1.2 0.875,1.8625 2.1375,1.8625 0.6375,0 1.225,-0.2875 1.725,-0.6875 v 0.5625 z m -0.975,-1.0875 c -0.375,0.375 -0.8375,0.6875 -1.375,0.6875 -0.8375,0 -1.3875,-0.5125 -1.3875,-1.3375 0,-0.7625 0.625,-1.35 1.3875,-1.35 0.475,0 0.95,0.125 1.375,0.3375 z"
         style="font-size:12.5px;line-height:1.25"
         id="path194" />
      <path
         d="m 61.396142,222.79083 v -0.375 c -0.2375,0.2 -0.5125,0.3625 -0.825,0.3625 -0.4625,0 -0.55,-0.575 -0.55,-1.1125 v -7.1875 h -0.975 v 7.1875 c 0,0.8375 0.325,1.6875 1.0625,1.6875 0.475,0 0.925,-0.2375 1.2875,-0.5625 z"
         style="font-size:12.5px;line-height:1.25"
         id="path196" />
      <path
         d="m 64.933619,222.79083 v -0.375 c -0.2375,0.2 -0.5125,0.3625 -0.825,0.3625 -0.4625,0 -0.55,-0.575 -0.55,-1.1125 v -4.0625 h -0.975 v 4.0625 c 0,0.8375 0.325,1.6875 1.0625,1.6875 0.475,0 0.925,-0.2375 1.2875,-0.5625 z m -1.25,-7.1375 c 0,-0.3375 -0.275,-0.6125 -0.6125,-0.6125 -0.3375,0 -0.6125,0.275 -0.6125,0.6125 0,0.3375 0.275,0.6125 0.6125,0.6125 0.3375,0 0.6125,-0.275 0.6125,-0.6125 z"
         style="font-size:12.5px;line-height:1.25"
         id="path198" />
      <path
         d="m 70.708608,223.22833 v -8.75 h -0.975 v 3.3375 c -0.4875,-0.2125 -1.0125,-0.3375 -1.5375,-0.3375 -1.5625,0 -2.325,1.25 -2.325,2.9375 0,1.6625 0.625,2.9375 2.1375,2.9375 0.6375,0 1.225,-0.2875 1.725,-0.6875 v 0.5625 z m -0.975,-1.0875 c -0.375,0.375 -0.8375,0.6875 -1.375,0.6875 -1.1375,0 -1.3875,-1.1 -1.3875,-2.4125 0,-1.175 0.3625,-2.4125 1.3875,-2.4125 0.475,0 0.95,0.125 1.375,0.3375 z"
         style="font-size:12.5px;line-height:1.25"
         id="path200" />
      <path
         d="m 77.958598,224.66583 v -0.625 h -6.25 v 0.625 z"
         style="font-size:12.5px;line-height:1.25"
         id="path202" />
      <path
         d="m 81.246075,222.79083 v -0.375 c -0.2375,0.2 -0.5125,0.3625 -0.825,0.3625 -0.4625,0 -0.55,-0.575 -0.55,-1.1125 v -4.0625 h -0.975 v 4.0625 c 0,0.8375 0.325,1.6875 1.0625,1.6875 0.475,0 0.925,-0.2375 1.2875,-0.5625 z m -1.25,-7.1375 c 0,-0.3375 -0.275,-0.6125 -0.6125,-0.6125 -0.3375,0 -0.6125,0.275 -0.6125,0.6125 0,0.3375 0.275,0.6125 0.6125,0.6125 0.3375,0 0.6125,-0.275 0.6125,-0.6125 z"
         style="font-size:12.5px;line-height:1.25"
         id="path204" />
    </g>
  </g>
</svg>
