<?xml version="1.0" encoding="UTF-8" standalone="no"?>
<!-- Created with Inkscape (http://www.inkscape.org/) -->

<svg
   width="113.23055mm"
   height="51.176388mm"
   viewBox="0 0 401.21057 181.33365"
   id="svg2"
   version="1.1"
   xmlns="http://www.w3.org/2000/svg"
   xmlns:svg="http://www.w3.org/2000/svg"
   xmlns:rdf="http://www.w3.org/1999/02/22-rdf-syntax-ns#"
   xmlns:cc="http://creativecommons.org/ns#"
   xmlns:dc="http://purl.org/dc/elements/1.1/">
  <defs
     id="defs4" />
  <metadata
     id="metadata7">
    <rdf:RDF>
      <cc:Work
         rdf:about="">
        <dc:format>image/svg+xml</dc:format>
        <dc:type
           rdf:resource="http://purl.org/dc/dcmitype/StillImage" />
        <dc:title />
      </cc:Work>
    </rdf:RDF>
  </metadata>
  <g
     id="layer1"
     transform="translate(-13.680918,-134.14566)">
    <path
       id="rect4180"
       style="opacity:1;fill:#afdde9;stroke:#000000;stroke-linecap:round;stroke-linejoin:bevel"
       d="M 95.669289,152.3622 H 304.72439 V 276.37794 H 95.669289 Z" />
    <path
       style="fill:#afdde9;fill-opacity:1;stroke:#000000;stroke-width:1px;stroke-linecap:butt;stroke-linejoin:miter;stroke-opacity:1"
       d="m 173.62203,283.46455 v -10.62992 l 7.0866,-7.08661 7.08661,7.08661 v 10.62992 z"
       id="path4186" />
    <g
       aria-label="Delay"
       id="text4290"
       style="line-height:0%;font-family:Iwona;-inkscape-font-specification:Iwona;text-align:center;letter-spacing:0px;word-spacing:0px;text-anchor:middle;stroke-width:1px">
      <path
         d="m 192.31944,169.24704 c 0,-2.675 -1.4625,-4.5 -4.0375,-4.5 -0.775,0 -1.55,0.0375 -2.3125,0.125 h -1 v 8.75 h 1 c 0.7625,0.0875 1.5375,0.125 2.3125,0.125 2.575,0 4.0375,-1.825 4.0375,-4.5 z m -1.225,0 c 0,1.9875 -1.0125,3.925 -2.8125,3.925 -0.7625,0 -1.525,-0.0375 -2.2875,-0.125 v -7.6 c 0.7625,-0.0875 1.525,-0.125 2.2875,-0.125 1.8,0 2.8125,1.9375 2.8125,3.925 z"
         style="font-size:12.5px;line-height:1.25"
         id="path34" />
      <path
         d="m 198.59443,170.93454 v -0.125 c 0,-1.7625 -0.9625,-2.9375 -2.4125,-2.9375 -1.4625,0 -2.425,1.175 -2.425,2.9375 0,1.7625 0.9625,2.9375 2.425,2.9375 0.625,0 1.2375,-0.2 1.75,-0.5625 v -0.525 c -0.5875,0.375 -1.0625,0.5125 -1.75,0.5125 -1.0625,0 -1.325,-1.0125 -1.325,-2.2375 z m -1.1,-0.525 h -2.6375 c 0,-1 0.425,-2.0125 1.325,-2.0125 0.8875,0 1.3125,1.0125 1.3125,2.0125 z"
         style="font-size:12.5px;line-height:1.25"
         id="path36" />
      <path
         d="m 202.56942,173.18454 v -0.375 c -0.2375,0.2 -0.5125,0.3625 -0.825,0.3625 -0.4625,0 -0.55,-0.575 -0.55,-1.1125 v -7.1875 h -0.975 v 7.1875 c 0,0.8375 0.325,1.6875 1.0625,1.6875 0.475,0 0.925,-0.2375 1.2875,-0.5625 z"
         style="font-size:12.5px;line-height:1.25"
         id="path38" />
      <path
         d="m 208.21939,173.62204 v -3.5 c 0,-1.175 -0.725,-2.25 -1.8125,-2.25 -0.8,0 -1.55,0.275 -2.225,0.7 v 0.3875 c 0.5625,-0.3125 1.1875,-0.5125 1.8375,-0.5125 0.775,0 1.225,0.825 1.225,1.675 v 0.225 c -0.4875,-0.2125 -1.0125,-0.3375 -1.5375,-0.3375 -1.3375,0 -2.325,0.6125 -2.325,1.875 0,1.2 0.875,1.8625 2.1375,1.8625 0.6375,0 1.225,-0.2875 1.725,-0.6875 v 0.5625 z m -0.975,-1.0875 c -0.375,0.375 -0.8375,0.6875 -1.375,0.6875 -0.8375,0 -1.3875,-0.5125 -1.3875,-1.3375 0,-0.7625 0.625,-1.35 1.3875,-1.35 0.475,0 0.95,0.125 1.375,0.3375 z"
         style="font-size:12.5px;line-height:1.25"
         id="path40" />
      <path
         d="m 214.68188,174.37204 v -6.375 h -0.975 v 4.4125 c -0.425,0.425 -0.95,0.7625 -1.5375,0.7625 -0.5875,0 -1.0375,-0.5125 -1.0375,-1.1125 v -4.0625 h -0.975 v 4.0625 c 0,0.9125 0.7,1.6875 1.6,1.6875 0.75,0 1.4125,-0.425 1.95,-0.95 v 1.575 c 0,0.8375 -0.375,1.675 -1.125,1.675 -0.5875,0 -1.15,-0.125 -1.6875,-0.3375 v 0.3875 c 0.6375,0.325 1.35,0.525 2.075,0.525 1.0625,0 1.7125,-1.1 1.7125,-2.25 z"
         style="font-size:12.5px;line-height:1.25"
         id="path42" />
    </g>
    <path
       id="path4298"
       d="m 212.59839,283.46455 v -10.62992 l 7.0866,-7.08661 7.08661,7.08661 v 10.62992 z"
       style="fill:#afdde9;fill-opacity:1;stroke:#000000;stroke-width:1px;stroke-linecap:butt;stroke-linejoin:miter;stroke-opacity:1" />
    <g
       aria-label="dataOut"
       id="text4433"
       style="line-height:0%;font-family:Iwona;-inkscape-font-specification:Iwona;letter-spacing:0px;word-spacing:0px;stroke-width:1px">
      <path
         d="m 327.96598,226.77161 v -8.75 h -0.975 v 3.3375 c -0.4875,-0.2125 -1.0125,-0.3375 -1.5375,-0.3375 -1.5625,0 -2.325,1.25 -2.325,2.9375 0,1.6625 0.625,2.9375 2.1375,2.9375 0.6375,0 1.225,-0.2875 1.725,-0.6875 v 0.5625 z m -0.975,-1.0875 c -0.375,0.375 -0.8375,0.6875 -1.375,0.6875 -1.1375,0 -1.3875,-1.1 -1.3875,-2.4125 0,-1.175 0.3625,-2.4125 1.3875,-2.4125 0.475,0 0.95,0.125 1.375,0.3375 z"
         style="font-size:12.5px;line-height:1.25"
         id="path45" />
      <path
         d="m 334.36597,226.77161 v -3.5 c 0,-1.175 -0.725,-2.25 -1.8125,-2.25 -0.8,0 -1.55,0.275 -2.225,0.7 v 0.3875 c 0.5625,-0.3125 1.1875,-0.5125 1.8375,-0.5125 0.775,0 1.225,0.825 1.225,1.675 v 0.225 c -0.4875,-0.2125 -1.0125,-0.3375 -1.5375,-0.3375 -1.3375,0 -2.325,0.6125 -2.325,1.875 0,1.2 0.875,1.8625 2.1375,1.8625 0.6375,0 1.225,-0.2875 1.725,-0.6875 v 0.5625 z m -0.975,-1.0875 c -0.375,0.375 -0.8375,0.6875 -1.375,0.6875 -0.8375,0 -1.3875,-0.5125 -1.3875,-1.3375 0,-0.7625 0.625,-1.35 1.3875,-1.35 0.475,0 0.95,0.125 1.375,0.3375 z"
         style="font-size:12.5px;line-height:1.25"
         id="path47" />
      <path
         d="m 339.01596,226.33411 v -0.375 c -0.2,0.2 -0.4375,0.3625 -0.725,0.3625 -0.45,0 -0.475,-0.5875 -0.475,-1.1125 v -3.5375 h 1.2 v -0.525 h -1.2 v -1.875 h -0.5875 c 0,1 -0.575,1.9375 -1.4875,1.9375 v 0.4625 h 1.1 v 3.5375 c 0,0.825 0.2625,1.6875 0.975,1.6875 0.4625,0 0.8625,-0.25 1.2,-0.5625 z"
         style="font-size:12.5px;line-height:1.25"
         id="path49" />
      <path
         d="m 344.79094,226.77161 v -3.5 c 0,-1.175 -0.725,-2.25 -1.8125,-2.25 -0.8,0 -1.55,0.275 -2.225,0.7 v 0.3875 c 0.5625,-0.3125 1.1875,-0.5125 1.8375,-0.5125 0.775,0 1.225,0.825 1.225,1.675 v 0.225 c -0.4875,-0.2125 -1.0125,-0.3375 -1.5375,-0.3375 -1.3375,0 -2.325,0.6125 -2.325,1.875 0,1.2 0.875,1.8625 2.1375,1.8625 0.6375,0 1.225,-0.2875 1.725,-0.6875 v 0.5625 z m -0.975,-1.0875 c -0.375,0.375 -0.8375,0.6875 -1.375,0.6875 -0.8375,0 -1.3875,-0.5125 -1.3875,-1.3375 0,-0.7625 0.625,-1.35 1.3875,-1.35 0.475,0 0.95,0.125 1.375,0.3375 z"
         style="font-size:12.5px;line-height:1.25"
         id="path51" />
      <path
         d="m 354.35343,222.39661 c 0,-2.65 -1.375,-4.5 -3.9,-4.5 -2.5375,0 -3.9125,1.85 -3.9125,4.5 0,2.65 1.375,4.5 3.9125,4.5 2.525,0 3.9,-1.85 3.9,-4.5 z m -1.225,0 c 0,2.1875 -0.725,3.925 -2.675,3.925 -1.9625,0 -2.6875,-1.7375 -2.6875,-3.925 0,-2.1875 0.725,-3.925 2.6875,-3.925 1.95,0 2.675,1.7375 2.675,3.925 z"
         style="font-size:12.5px;line-height:1.25"
         id="path53" />
      <path
         d="m 360.56592,226.77161 v -5.625 h -0.975 v 4.4125 c -0.425,0.425 -0.95,0.7625 -1.5375,0.7625 -0.5875,0 -1.0375,-0.5125 -1.0375,-1.1125 v -4.0625 h -0.975 v 4.0625 c 0,0.9125 0.7,1.6875 1.6,1.6875 0.75,0 1.4125,-0.425 1.95,-0.95 v 0.825 z"
         style="font-size:12.5px;line-height:1.25"
         id="path55" />
      <path
         d="m 365.2159,226.33411 v -0.375 c -0.2,0.2 -0.4375,0.3625 -0.725,0.3625 -0.45,0 -0.475,-0.5875 -0.475,-1.1125 v -3.5375 h 1.2 v -0.525 h -1.2 v -1.875 h -0.5875 c 0,1 -0.575,1.9375 -1.4875,1.9375 v 0.4625 h 1.1 v 3.5375 c 0,0.825 0.2625,1.6875 0.975,1.6875 0.4625,0 0.8625,-0.25 1.2,-0.5625 z"
         style="font-size:12.5px;line-height:1.25"
         id="path57" />
    </g>
    <path
       id="path4437"
       d="m 297.63779,216.1417 h 10.62992 l 7.08661,7.08661 -7.08661,7.08661 h -10.62992 z"
       style="fill:#afdde9;fill-opacity:1;stroke:#000000;stroke-width:1px;stroke-linecap:butt;stroke-linejoin:miter;stroke-opacity:1" />
    <path
       style="fill:#afdde9;fill-opacity:1;stroke:#000000;stroke-width:1px;stroke-linecap:butt;stroke-linejoin:miter;stroke-opacity:1"
       d="m 88.582678,166.53541 h 10.62992 l 7.086612,7.0866 -7.086612,7.08661 h -10.62992 z"
       id="path4447" />
    <g
       aria-label="clk"
       id="text4449"
       style="line-height:0%;font-family:Iwona;-inkscape-font-specification:Iwona;text-align:center;letter-spacing:0px;word-spacing:0px;text-anchor:middle;stroke-width:1px">
      <path
         d="m 178.29616,293.31279 v -0.525 c -0.4,-0.5625 -1.05,-0.9 -1.75,-0.9 -1.5625,0 -2.6125,1.175 -2.6125,2.9375 0,1.7625 1.05,2.9375 2.6125,2.9375 0.65,0 1.2625,-0.325 1.625,-0.8625 v -0.525 c -0.425,0.6375 -0.8625,0.8625 -1.625,0.8625 -0.9,0 -1.5125,-0.9625 -1.5125,-2.4125 0,-1.45 0.6125,-2.4125 1.5125,-2.4125 0.775,0 1.3,0.275 1.75,0.9 z"
         style="font-size:12.5px;line-height:1.25"
         id="path60" />
      <path
         d="m 181.95864,297.20029 v -0.375 c -0.2375,0.2 -0.5125,0.3625 -0.825,0.3625 -0.4625,0 -0.55,-0.575 -0.55,-1.1125 v -7.1875 h -0.975 v 7.1875 c 0,0.8375 0.325,1.6875 1.0625,1.6875 0.475,0 0.925,-0.2375 1.2875,-0.5625 z"
         style="font-size:12.5px;line-height:1.25"
         id="path62" />
      <path
         d="m 188.04612,297.63779 -2.9,-3.3375 2.8,-2.2875 h -0.775 l -2.9875,2.45 v -5.575 h -0.975 v 8.75 h 0.975 v -3.1125 l 2.7,3.1125 z"
         style="font-size:12.5px;line-height:1.25"
         id="path64" />
    </g>
    <g
       aria-label="reset"
       id="text4453"
       style="line-height:0%;font-family:Iwona;-inkscape-font-specification:Iwona;text-align:center;letter-spacing:0px;word-spacing:0px;text-anchor:middle;stroke-width:1px">
      <path
         d="m 210.77252,292.78779 v -0.775 c -0.1375,-0.05 -0.2875,-0.0875 -0.425,-0.0875 -0.7,0 -1.2625,0.4875 -1.7125,1.025 v -0.9375 h -0.975 v 5.625 h 0.975 v -4.1625 c 0.375,-0.4375 0.85,-0.8125 1.425,-0.8125 0.2375,0 0.4875,0.05 0.7125,0.125 z"
         style="font-size:12.5px;line-height:1.25"
         id="path67" />
      <path
         d="m 216.54751,294.95029 v -0.125 c 0,-1.7625 -0.9625,-2.9375 -2.4125,-2.9375 -1.4625,0 -2.425,1.175 -2.425,2.9375 0,1.7625 0.9625,2.9375 2.425,2.9375 0.625,0 1.2375,-0.2 1.75,-0.5625 v -0.525 c -0.5875,0.375 -1.0625,0.5125 -1.75,0.5125 -1.0625,0 -1.325,-1.0125 -1.325,-2.2375 z m -1.1,-0.525 h -2.6375 c 0,-1 0.425,-2.0125 1.325,-2.0125 0.8875,0 1.3125,1.0125 1.3125,2.0125 z"
         style="font-size:12.5px;line-height:1.25"
         id="path69" />
      <path
         d="m 221.97249,296.03779 c 0,-0.9875 -1.05,-1.5 -2.075,-1.75 -0.6,-0.15 -1.25,-0.4 -1.25,-0.9875 0,-0.5375 0.55,-0.8875 1.15,-0.8875 0.6625,0 1.325,0.2 1.875,0.5625 v -0.525 c -0.55,-0.3625 -1.2125,-0.5625 -1.875,-0.5625 -1.0875,0 -2.0875,0.6625 -2.0875,1.675 0,0.9125 1.0125,1.3375 1.975,1.575 0.6625,0.1625 1.35,0.5125 1.35,1.15 0,0.5875 -0.6,0.95 -1.2375,0.95 -0.775,0 -1.525,-0.1875 -2.1875,-0.5625 v 0.525 c 0.6625,0.375 1.4125,0.5625 2.1875,0.5625 1.125,0 2.175,-0.675 2.175,-1.725 z"
         style="font-size:12.5px;line-height:1.25"
         id="path71" />
      <path
         d="m 228.05998,294.95029 v -0.125 c 0,-1.7625 -0.9625,-2.9375 -2.4125,-2.9375 -1.4625,0 -2.425,1.175 -2.425,2.9375 0,1.7625 0.9625,2.9375 2.425,2.9375 0.625,0 1.2375,-0.2 1.75,-0.5625 v -0.525 c -0.5875,0.375 -1.0625,0.5125 -1.75,0.5125 -1.0625,0 -1.325,-1.0125 -1.325,-2.2375 z m -1.1,-0.525 h -2.6375 c 0,-1 0.425,-2.0125 1.325,-2.0125 0.8875,0 1.3125,1.0125 1.3125,2.0125 z"
         style="font-size:12.5px;line-height:1.25"
         id="path73" />
      <path
         d="m 232.33496,297.20029 v -0.375 c -0.2,0.2 -0.4375,0.3625 -0.725,0.3625 -0.45,0 -0.475,-0.5875 -0.475,-1.1125 v -3.5375 h 1.2 v -0.525 h -1.2 v -1.875 h -0.5875 c 0,1 -0.575,1.9375 -1.4875,1.9375 v 0.4625 h 1.1 v 3.5375 c 0,0.825 0.2625,1.6875 0.975,1.6875 0.4625,0 0.8625,-0.25 1.2,-0.5625 z"
         style="font-size:12.5px;line-height:1.25"
         id="path75" />
    </g>
    <g
       aria-label="enable"
       id="text4461"
       style="line-height:0%;font-family:Iwona;-inkscape-font-specification:Iwona;text-align:end;letter-spacing:0px;word-spacing:0px;text-anchor:end;stroke-width:1px">
      <path
         d="m 51.733667,174.47781 v -0.125 c 0,-1.7625 -0.9625,-2.9375 -2.4125,-2.9375 -1.4625,0 -2.425,1.175 -2.425,2.9375 0,1.7625 0.9625,2.9375 2.425,2.9375 0.625,0 1.2375,-0.2 1.75,-0.5625 v -0.525 c -0.5875,0.375 -1.0625,0.5125 -1.75,0.5125 -1.0625,0 -1.325,-1.0125 -1.325,-2.2375 z m -1.1,-0.525 h -2.6375 c 0,-1 0.425,-2.0125 1.325,-2.0125 0.8875,0 1.3125,1.0125 1.3125,2.0125 z"
         style="font-size:12.5px;line-height:1.25"
         id="path78" />
      <path
         d="m 57.88365,177.16531 v -4.0625 c 0,-0.9125 -0.7,-1.6875 -1.6,-1.6875 -0.75,0 -1.4125,0.425 -1.95,0.95 v -0.825 h -0.975 v 5.625 h 0.975 v -4.4125 c 0.425,-0.425 0.95,-0.7625 1.5375,-0.7625 0.5875,0 1.0375,0.5125 1.0375,1.1125 v 4.0625 z"
         style="font-size:12.5px;line-height:1.25"
         id="path80" />
      <path
         d="m 64.221129,177.16531 v -3.5 c 0,-1.175 -0.725,-2.25 -1.8125,-2.25 -0.8,0 -1.55,0.275 -2.225,0.7 v 0.3875 c 0.5625,-0.3125 1.1875,-0.5125 1.8375,-0.5125 0.775,0 1.225,0.825 1.225,1.675 v 0.225 c -0.4875,-0.2125 -1.0125,-0.3375 -1.5375,-0.3375 -1.3375,0 -2.325,0.6125 -2.325,1.875 0,1.2 0.875,1.8625 2.1375,1.8625 0.6375,0 1.225,-0.2875 1.725,-0.6875 v 0.5625 z m -0.975,-1.0875 c -0.375,0.375 -0.8375,0.6875 -1.375,0.6875 -0.8375,0 -1.3875,-0.5125 -1.3875,-1.3375 0,-0.7625 0.625,-1.35 1.3875,-1.35 0.475,0 0.95,0.125 1.375,0.3375 z"
         style="font-size:12.5px;line-height:1.25"
         id="path82" />
      <path
         d="m 71.058618,174.35281 c 0,-1.6625 -0.625,-2.9375 -2.1375,-2.9375 -0.6375,0 -1.225,0.2875 -1.725,0.6875 v -3.6875 h -0.975 v 8.75 h 0.975 v -0.2875 c 0.475,0.25 1,0.4125 1.5375,0.4125 1.5625,0 2.325,-1.25 2.325,-2.9375 z m -1.1,0 c 0,1.175 -0.3625,2.4125 -1.3875,2.4125 -0.4875,0 -0.9625,-0.1625 -1.375,-0.4125 v -3.725 c 0.375,-0.375 0.8375,-0.6875 1.375,-0.6875 1.1375,0 1.3875,1.1 1.3875,2.4125 z"
         style="font-size:12.5px;line-height:1.25"
         id="path84" />
      <path
         d="m 75.09611,176.72781 v -0.375 c -0.2375,0.2 -0.5125,0.3625 -0.825,0.3625 -0.4625,0 -0.55,-0.575 -0.55,-1.1125 v -7.1875 h -0.975 v 7.1875 c 0,0.8375 0.325,1.6875 1.0625,1.6875 0.475,0 0.925,-0.2375 1.2875,-0.5625 z"
         style="font-size:12.5px;line-height:1.25"
         id="path86" />
      <path
         d="m 80.871087,174.47781 v -0.125 c 0,-1.7625 -0.9625,-2.9375 -2.4125,-2.9375 -1.4625,0 -2.425,1.175 -2.425,2.9375 0,1.7625 0.9625,2.9375 2.425,2.9375 0.625,0 1.2375,-0.2 1.75,-0.5625 v -0.525 c -0.5875,0.375 -1.0625,0.5125 -1.75,0.5125 -1.0625,0 -1.325,-1.0125 -1.325,-2.2375 z m -1.1,-0.525 h -2.6375 c 0,-1 0.425,-2.0125 1.325,-2.0125 0.8875,0 1.3125,1.0125 1.3125,2.0125 z"
         style="font-size:12.5px;line-height:1.25"
         id="path88" />
    </g>
    <g
       id="g3327"
       transform="translate(56.692916,-46.063)">
      <path
         id="rect4901"
         style="fill:#afdde9;stroke:#000000;stroke-width:0.999212;stroke-linecap:round;stroke-dasharray:0.999213, 1.99843"
         d="M 60.236217,230.31496 H 230.31495 V 304.7244 H 60.236217 Z" />
      <g
         aria-label="BITS_PER_SAMPLE
DURATION
GAIN
ATTENUATION"
         id="text4903"
         style="line-height:0%;font-family:Iwona;-inkscape-font-specification:Iwona;letter-spacing:0px;word-spacing:0px">
        <path
           d="m 75.965195,246.68607 c 0,-1.375 -0.9,-2.1 -2.2125,-2.375 0.9625,-0.2875 1.6,-0.9125 1.6,-1.975 0,-1.525 -1.3125,-2.15 -3,-2.15 -0.65,0 -1.3,0.0375 -1.95,0.125 h -1 v 8.75 h 1 l 1.95,0.125 c 2.025,0 3.6125,-0.6875 3.6125,-2.5 z m -1.6375,-4.35 c 0,1.2625 -1.4125,1.9125 -2.825,1.9125 h -1.075 v -3.3625 c 0.6375,-0.0875 1.2875,-0.125 1.925,-0.125 1.025,0 1.975,0.625 1.975,1.575 z m 0.4125,4.35 c 0,1.15 -1.1375,1.925 -2.3875,1.925 -0.6375,0 -1.2875,-0.0375 -1.925,-0.125 v -3.8 h 1.6125 c 1.375,0 2.7,0.7375 2.7,2 z"
           style="font-size:12.5px;line-height:1.25"
           id="path92" />
        <path
           d="m 78.990188,249.06107 v -8.75 h -1.025 v 8.75 z"
           style="font-size:12.5px;line-height:1.25"
           id="path94" />
        <path
           d="m 87.365183,240.88607 v -0.575 h -6.875 v 0.575 h 2.925 v 8.175 h 1.025 v -8.175 z"
           style="font-size:12.5px;line-height:1.25"
           id="path96" />
        <path
           d="m 94.952662,246.52357 c 0,-1.5375 -1.5625,-2.45 -3.175,-2.7875 -1.075,-0.225 -2.2875,-0.5 -2.2875,-1.5 0,-0.9875 1.0625,-1.55 2.1625,-1.55 1.0125,0 2,0.3 2.8,0.925 v -0.5 c -0.8,-0.625 -1.7875,-1 -2.8,-1 -1.625,0 -3.15,0.9125 -3.15,2.3875 0,1.4125 1.525,2.125 3.0125,2.4375 1.1875,0.25 2.45,0.7375 2.45,1.85 0,1.1375 -1.1125,1.9 -2.3125,1.9 -1.1625,0 -2.3125,-0.3 -3.2875,-0.925 v 0.5 c 0.9875,0.625 2.1125,1 3.2875,1 1.725,0 3.3,-1.1125 3.3,-2.7375 z"
           style="font-size:12.5px;line-height:1.25"
           id="path98" />
        <path
           d="m 101.95265,250.49857 v -0.625 h -6.249998 v 0.625 z"
           style="font-size:12.5px;line-height:1.25"
           id="path100" />
        <path
           d="m 109.76513,242.68607 c 0,-1.7625 -1.5125,-2.5 -3.475,-2.5 -0.7,0 -1.4,0.0375 -2.0875,0.125 h -1 v 8.75 h 1.025 v -4.0625 c 0.675,0.125 1.375,0.2 2.0625,0.2 1.9625,0 3.475,-0.7375 3.475,-2.5125 z m -1.225,0 c 0,1.1375 -1.0625,1.9375 -2.25,1.9375 -0.6875,0 -1.3875,-0.075 -2.0625,-0.2 v -3.5375 c 0.6875,-0.0875 1.375,-0.125 2.0625,-0.125 1.1875,0 2.25,0.8 2.25,1.925 z"
           style="font-size:12.5px;line-height:1.25"
           id="path102" />
        <path
           d="m 118.01512,249.06107 v -0.575 h -5.225 v -3.5125 h 3.975 v -0.575 h -3.975 v -3.5125 h 4.925 v -0.575 h -5.95 v 8.75 z"
           style="font-size:12.5px;line-height:1.25"
           id="path104" />
        <path
           d="m 126.81512,249.06107 -2.6625,-3.9625 c 1.3625,-0.2625 2.3,-1.0125 2.3,-2.4125 0,-1.7625 -1.5125,-2.5 -3.475,-2.5 -0.7,0 -1.4,0.0375 -2.0875,0.125 h -1 v 8.75 h 1.025 v -4.0625 c 0.675,0.125 1.375,0.2 2.0625,0.2 l 2.6125,3.8625 z m -1.5875,-6.375 c 0,1.1375 -1.0625,1.9375 -2.25,1.9375 -0.6875,0 -1.3875,-0.075 -2.0625,-0.2 v -3.5375 c 0.6875,-0.0875 1.375,-0.125 2.0625,-0.125 1.1875,0 2.25,0.8 2.25,1.925 z"
           style="font-size:12.5px;line-height:1.25"
           id="path106" />
        <path
           d="m 133.19011,250.49857 v -0.625 h -6.25 v 0.625 z"
           style="font-size:12.5px;line-height:1.25"
           id="path108" />
        <path
           d="m 140.52759,246.52357 c 0,-1.5375 -1.5625,-2.45 -3.175,-2.7875 -1.075,-0.225 -2.2875,-0.5 -2.2875,-1.5 0,-0.9875 1.0625,-1.55 2.1625,-1.55 1.0125,0 2,0.3 2.8,0.925 v -0.5 c -0.8,-0.625 -1.7875,-1 -2.8,-1 -1.625,0 -3.15,0.9125 -3.15,2.3875 0,1.4125 1.525,2.125 3.0125,2.4375 1.1875,0.25 2.45,0.7375 2.45,1.85 0,1.1375 -1.1125,1.9 -2.3125,1.9 -1.1625,0 -2.3125,-0.3 -3.2875,-0.925 v 0.5 c 0.9875,0.625 2.1125,1 3.2875,1 1.725,0 3.3,-1.1125 3.3,-2.7375 z"
           style="font-size:12.5px;line-height:1.25"
           id="path110" />
        <path
           d="m 148.90258,249.06107 -3.175,-8.75 h -1.0875 l -3.2375,8.75 h 0.6125 l 1.1375,-3.0625 h 3.55 l 1.1125,3.0625 z m -2.4125,-3.6375 h -3.125 l 1.575,-4.275 z"
           style="font-size:12.5px;line-height:1.25"
           id="path112" />
        <path
           d="m 159.46507,249.06107 -0.5,-8.75 h -0.825 l -3.5125,7.3875 -3.525,-7.3875 h -0.825 l -0.5,8.75 h 0.575 l 0.4,-7.0875 3.3875,7.0875 h 0.4625 l 3.425,-7.175 0.4125,7.175 z"
           style="font-size:12.5px;line-height:1.25"
           id="path114" />
        <path
           d="m 168.02755,242.68607 c 0,-1.7625 -1.5125,-2.5 -3.475,-2.5 -0.7,0 -1.4,0.0375 -2.0875,0.125 h -1 v 8.75 h 1.025 v -4.0625 c 0.675,0.125 1.375,0.2 2.0625,0.2 1.9625,0 3.475,-0.7375 3.475,-2.5125 z m -1.225,0 c 0,1.1375 -1.0625,1.9375 -2.25,1.9375 -0.6875,0 -1.3875,-0.075 -2.0625,-0.2 v -3.5375 c 0.6875,-0.0875 1.375,-0.125 2.0625,-0.125 1.1875,0 2.25,0.8 2.25,1.925 z"
           style="font-size:12.5px;line-height:1.25"
           id="path116" />
        <path
           d="m 175.02754,249.06107 v -0.575 h -3.975 v -8.175 h -1.025 v 8.75 z"
           style="font-size:12.5px;line-height:1.25"
           id="path118" />
        <path
           d="m 182.77753,249.06107 v -0.575 h -5.225 v -3.5125 h 3.975 v -0.575 h -3.975 v -3.5125 h 4.925 v -0.575 h -5.95 v 8.75 z"
           style="font-size:12.5px;line-height:1.25"
           id="path120" />
        <path
           d="m 76.752695,260.31107 c 0,-2.675 -1.4625,-4.5 -4.0375,-4.5 -0.775,0 -1.55,0.0375 -2.3125,0.125 h -1 v 8.75 h 1 c 0.7625,0.0875 1.5375,0.125 2.3125,0.125 2.575,0 4.0375,-1.825 4.0375,-4.5 z m -1.225,0 c 0,1.9875 -1.0125,3.925 -2.8125,3.925 -0.7625,0 -1.525,-0.0375 -2.2875,-0.125 v -7.6 c 0.7625,-0.0875 1.525,-0.125 2.2875,-0.125 1.8,0 2.8125,1.9375 2.8125,3.925 z"
           style="font-size:12.5px;line-height:1.25"
           id="path122" />
        <path
           d="m 85.190185,262.23607 v -6.3 h -0.575 v 6.1 c 0,1.3 -1.15,2.275 -2.475,2.275 -1.3375,0 -2.4875,-0.975 -2.4875,-2.275 v -6.1 h -1.025 v 6.3 c 0,1.5875 1.575,2.65 3.2875,2.65 1.7,0 3.275,-1.0625 3.275,-2.65 z"
           style="font-size:12.5px;line-height:1.25"
           id="path124" />
        <path
           d="m 94.365184,264.68607 -2.6625,-3.9625 c 1.3625,-0.2625 2.3,-1.0125 2.3,-2.4125 0,-1.7625 -1.5125,-2.5 -3.475,-2.5 -0.7,0 -1.4,0.0375 -2.0875,0.125 h -1 v 8.75 h 1.025 v -4.0625 c 0.675,0.125 1.375,0.2 2.0625,0.2 l 2.6125,3.8625 z m -1.5875,-6.375 c 0,1.1375 -1.0625,1.9375 -2.25,1.9375 -0.6875,0 -1.3875,-0.075 -2.0625,-0.2 v -3.5375 c 0.6875,-0.0875 1.375,-0.125 2.0625,-0.125 1.1875,0 2.25,0.8 2.25,1.925 z"
           style="font-size:12.5px;line-height:1.25"
           id="path126" />
        <path
           d="m 102.11518,264.68607 -3.175005,-8.75 h -1.0875 l -3.2375,8.75 h 0.6125 l 1.1375,-3.0625 h 3.55 l 1.112505,3.0625 z m -2.412505,-3.6375 h -3.125 l 1.575,-4.275 z"
           style="font-size:12.5px;line-height:1.25"
           id="path128" />
        <path
           d="m 108.69015,256.51107 v -0.575 h -6.875 v 0.575 h 2.925 v 8.175 h 1.025 v -8.175 z"
           style="font-size:12.5px;line-height:1.25"
           id="path130" />
        <path
           d="m 111.21513,264.68607 v -8.75 h -1.025 v 8.75 z"
           style="font-size:12.5px;line-height:1.25"
           id="path132" />
        <path
           d="m 121.02763,260.31107 c 0,-2.65 -1.375,-4.5 -3.9,-4.5 -2.5375,0 -3.9125,1.85 -3.9125,4.5 0,2.65 1.375,4.5 3.9125,4.5 2.525,0 3.9,-1.85 3.9,-4.5 z m -1.225,0 c 0,2.1875 -0.725,3.925 -2.675,3.925 -1.9625,0 -2.6875,-1.7375 -2.6875,-3.925 0,-2.1875 0.725,-3.925 2.6875,-3.925 1.95,0 2.675,1.7375 2.675,3.925 z"
           style="font-size:12.5px;line-height:1.25"
           id="path134" />
        <path
           d="m 130.37761,264.68607 v -8.75 h -0.575 v 7.35 l -6.025,-7.35 h -0.75 v 8.75 h 0.575 v -7.35 l 6.025,7.35 z"
           style="font-size:12.5px;line-height:1.25"
           id="path136" />
        <path
           d="m 76.252695,280.31107 v -3.675 h -1.025 v 2.4125 c -0.65,0.525 -1.45,0.8125 -2.2875,0.8125 -1.9875,0 -2.8125,-1.7125 -2.8125,-3.925 0,-2.2125 0.825,-3.925 2.8125,-3.925 1.175,0 2.2875,0.4625 3.1125,1.3 v -0.575 c -0.825,-0.8375 -1.9375,-1.3 -3.1125,-1.3 -2.575,0 -4.0375,1.825 -4.0375,4.5 0,2.675 1.4625,4.5 4.0375,4.5 0.8375,0 1.6375,-0.2875 2.2875,-0.8125 v 0.6875 z"
           style="font-size:12.5px;line-height:1.25"
           id="path138" />
        <path
           d="m 84.877679,280.31107 -3.175,-8.75 h -1.0875 l -3.2375,8.75 h 0.6125 l 1.1375,-3.0625 h 3.55 l 1.1125,3.0625 z m -2.4125,-3.6375 h -3.125 l 1.575,-4.275 z"
           style="font-size:12.5px;line-height:1.25"
           id="path140" />
        <path
           d="m 87.277666,280.31107 v -8.75 h -1.025 v 8.75 z"
           style="font-size:12.5px;line-height:1.25"
           id="path142" />
        <path
           d="m 97.12766,280.31107 v -8.75 h -0.575 v 7.35 l -6.025,-7.35 h -0.75 v 8.75 h 0.575 v -7.35 l 6.025,7.35 z"
           style="font-size:12.5px;line-height:1.25"
           id="path144" />
        <path
           d="m 75.777695,295.93607 -3.175,-8.75 h -1.0875 l -3.2375,8.75 h 0.6125 l 1.1375,-3.0625 h 3.55 l 1.1125,3.0625 z m -2.4125,-3.6375 h -3.125 l 1.575,-4.275 z"
           style="font-size:12.5px;line-height:1.25"
           id="path146" />
        <path
           d="m 82.352671,287.76107 v -0.575 h -6.875 v 0.575 h 2.925 v 8.175 h 1.025 v -8.175 z"
           style="font-size:12.5px;line-height:1.25"
           id="path148" />
        <path
           d="m 89.727649,287.76107 v -0.575 h -6.875 v 0.575 h 2.925 v 8.175 h 1.025 v -8.175 z"
           style="font-size:12.5px;line-height:1.25"
           id="path150" />
        <path
           d="m 97.477627,295.93607 v -0.575 h -5.225 v -3.5125 h 3.975 v -0.575 h -3.975 v -3.5125 h 4.925 v -0.575 h -5.95 v 8.75 z"
           style="font-size:12.5px;line-height:1.25"
           id="path152" />
        <path
           d="m 106.82762,295.93607 v -8.75 h -0.575 v 7.35 l -6.025,-7.35 h -0.749995 v 8.75 h 0.574995 v -7.35 l 6.025,7.35 z"
           style="font-size:12.5px;line-height:1.25"
           id="path154" />
        <path
           d="m 115.7651,293.48607 v -6.3 h -0.575 v 6.1 c 0,1.3 -1.15,2.275 -2.475,2.275 -1.3375,0 -2.4875,-0.975 -2.4875,-2.275 v -6.1 h -1.025 v 6.3 c 0,1.5875 1.575,2.65 3.2875,2.65 1.7,0 3.275,-1.0625 3.275,-2.65 z"
           style="font-size:12.5px;line-height:1.25"
           id="path156" />
        <path
           d="m 124.36509,295.93607 -3.175,-8.75 h -1.0875 l -3.2375,8.75 h 0.6125 l 1.1375,-3.0625 h 3.55 l 1.1125,3.0625 z m -2.4125,-3.6375 h -3.125 l 1.575,-4.275 z"
           style="font-size:12.5px;line-height:1.25"
           id="path158" />
        <path
           d="m 130.94006,287.76107 v -0.575 h -6.875 v 0.575 h 2.925 v 8.175 h 1.025 v -8.175 z"
           style="font-size:12.5px;line-height:1.25"
           id="path160" />
        <path
           d="m 133.46504,295.93607 v -8.75 h -1.025 v 8.75 z"
           style="font-size:12.5px;line-height:1.25"
           id="path162" />
        <path
           d="m 143.27753,291.56107 c 0,-2.65 -1.375,-4.5 -3.9,-4.5 -2.5375,0 -3.9125,1.85 -3.9125,4.5 0,2.65 1.375,4.5 3.9125,4.5 2.525,0 3.9,-1.85 3.9,-4.5 z m -1.225,0 c 0,2.1875 -0.725,3.925 -2.675,3.925 -1.9625,0 -2.6875,-1.7375 -2.6875,-3.925 0,-2.1875 0.725,-3.925 2.6875,-3.925 1.95,0 2.675,1.7375 2.675,3.925 z"
           style="font-size:12.5px;line-height:1.25"
           id="path164" />
        <path
           d="m 152.62753,295.93607 v -8.75 h -0.575 v 7.35 l -6.025,-7.35 h -0.75 v 8.75 h 0.575 v -7.35 l 6.025,7.35 z"
           style="font-size:12.5px;line-height:1.25"
           id="path166" />
      </g>
    </g>
    <path
       style="fill:#afdde9;fill-opacity:1;stroke:#000000;stroke-width:1px;stroke-linecap:butt;stroke-linejoin:miter;stroke-opacity:1"
       d="m 88.582653,216.1417 h 10.629928 l 7.086609,7.0866 -7.086609,7.08662 H 88.582653 Z"
       id="path3371" />
    <g
       aria-label="dataIn"
       id="text3373"
       style="line-height:0%;font-family:Iwona;-inkscape-font-specification:Iwona;text-align:end;letter-spacing:0px;word-spacing:0px;text-anchor:end;stroke-width:1px">
      <path
         d="m 53.683645,226.77164 v -8.75 h -0.975 v 3.3375 c -0.4875,-0.2125 -1.0125,-0.3375 -1.5375,-0.3375 -1.5625,0 -2.325,1.25 -2.325,2.9375 0,1.6625 0.625,2.9375 2.1375,2.9375 0.6375,0 1.225,-0.2875 1.725,-0.6875 v 0.5625 z m -0.975,-1.0875 c -0.375,0.375 -0.8375,0.6875 -1.375,0.6875 -1.1375,0 -1.3875,-1.1 -1.3875,-2.4125 0,-1.175 0.3625,-2.4125 1.3875,-2.4125 0.475,0 0.95,0.125 1.375,0.3375 z"
         style="font-size:12.5px;line-height:1.25"
         id="path169" />
      <path
         d="m 60.083637,226.77164 v -3.5 c 0,-1.175 -0.725,-2.25 -1.8125,-2.25 -0.8,0 -1.55,0.275 -2.225,0.7 v 0.3875 c 0.5625,-0.3125 1.1875,-0.5125 1.8375,-0.5125 0.775,0 1.225,0.825 1.225,1.675 v 0.225 c -0.4875,-0.2125 -1.0125,-0.3375 -1.5375,-0.3375 -1.3375,0 -2.325,0.6125 -2.325,1.875 0,1.2 0.875,1.8625 2.1375,1.8625 0.6375,0 1.225,-0.2875 1.725,-0.6875 v 0.5625 z m -0.975,-1.0875 c -0.375,0.375 -0.8375,0.6875 -1.375,0.6875 -0.8375,0 -1.3875,-0.5125 -1.3875,-1.3375 0,-0.7625 0.625,-1.35 1.3875,-1.35 0.475,0 0.95,0.125 1.375,0.3375 z"
         style="font-size:12.5px;line-height:1.25"
         id="path171" />
      <path
         d="m 64.733626,226.33414 v -0.375 c -0.2,0.2 -0.4375,0.3625 -0.725,0.3625 -0.45,0 -0.475,-0.5875 -0.475,-1.1125 v -3.5375 h 1.2 v -0.525 h -1.2 v -1.875 h -0.5875 c 0,1 -0.575,1.9375 -1.4875,1.9375 v 0.4625 h 1.1 v 3.5375 c 0,0.825 0.2625,1.6875 0.975,1.6875 0.4625,0 0.8625,-0.25 1.2,-0.5625 z"
         style="font-size:12.5px;line-height:1.25"
         id="path173" />
      <path
         d="m 70.508607,226.77164 v -3.5 c 0,-1.175 -0.725,-2.25 -1.8125,-2.25 -0.8,0 -1.55,0.275 -2.225,0.7 v 0.3875 c 0.5625,-0.3125 1.1875,-0.5125 1.8375,-0.5125 0.775,0 1.225,0.825 1.225,1.675 v 0.225 c -0.4875,-0.2125 -1.0125,-0.3375 -1.5375,-0.3375 -1.3375,0 -2.325,0.6125 -2.325,1.875 0,1.2 0.875,1.8625 2.1375,1.8625 0.6375,0 1.225,-0.2875 1.725,-0.6875 v 0.5625 z m -0.975,-1.0875 c -0.375,0.375 -0.8375,0.6875 -1.375,0.6875 -0.8375,0 -1.3875,-0.5125 -1.3875,-1.3375 0,-0.7625 0.625,-1.35 1.3875,-1.35 0.475,0 0.95,0.125 1.375,0.3375 z"
         style="font-size:12.5px;line-height:1.25"
         id="path175" />
      <path
         d="m 73.783597,226.77164 v -8.75 h -1.025 v 8.75 z"
         style="font-size:12.5px;line-height:1.25"
         id="path177" />
      <path
         d="m 80.558591,226.77164 v -4.0625 c 0,-0.9125 -0.7,-1.6875 -1.6,-1.6875 -0.75,0 -1.4125,0.425 -1.95,0.95 v -0.825 h -0.975 v 5.625 h 0.975 v -4.4125 c 0.425,-0.425 0.95,-0.7625 1.5375,-0.7625 0.5875,0 1.0375,0.5125 1.0375,1.1125 v 4.0625 z"
         style="font-size:12.5px;line-height:1.25"
         id="path179" />
    </g>
  </g>
</svg>
