<?xml version="1.0" encoding="UTF-8" standalone="no"?>
<!-- Created with Inkscape (http://www.inkscape.org/) -->

<svg
   width="210mm"
   height="297mm"
   viewBox="0 0 744.09448819 1052.3622047"
   id="svg2"
   version="1.1"
   xmlns="http://www.w3.org/2000/svg"
   xmlns:svg="http://www.w3.org/2000/svg"
   xmlns:rdf="http://www.w3.org/1999/02/22-rdf-syntax-ns#"
   xmlns:cc="http://creativecommons.org/ns#"
   xmlns:dc="http://purl.org/dc/elements/1.1/">
  <defs
     id="defs4">
    <marker
       style="overflow:visible;"
       id="marker4554"
       refX="0.0"
       refY="0.0"
       orient="auto">
      <path
         transform="scale(0.4) rotate(180) translate(10,0)"
         style="fill-rule:evenodd;stroke:#000000;stroke-width:1pt;stroke-opacity:1;fill:#000000;fill-opacity:1"
         d="M 0.0,0.0 L 5.0,-5.0 L -12.5,0.0 L 5.0,5.0 L 0.0,0.0 z "
         id="path4556" />
    </marker>
    <marker
       orient="auto"
       refY="0.0"
       refX="0.0"
       id="Arrow1Mend"
       style="overflow:visible;">
      <path
         id="path4159"
         d="M 0.0,0.0 L 5.0,-5.0 L -12.5,0.0 L 5.0,5.0 L 0.0,0.0 z "
         style="fill-rule:evenodd;stroke:#000000;stroke-width:1pt;stroke-opacity:1;fill:#000000;fill-opacity:1"
         transform="scale(0.4) rotate(180) translate(10,0)" />
    </marker>
    <marker
       orient="auto"
       refY="0"
       refX="0"
       id="marker5268"
       style="overflow:visible">
      <path
         id="path5270"
         d="M 0,0 5,-5 -12.5,0 5,5 0,0 Z"
         style="fill:#000000;fill-opacity:1;fill-rule:evenodd;stroke:#000000;stroke-width:1pt;stroke-opacity:1"
         transform="matrix(-0.4,0,0,-0.4,-4,0)" />
    </marker>
  </defs>
  <metadata
     id="metadata7">
    <rdf:RDF>
      <cc:Work
         rdf:about="">
        <dc:format>image/svg+xml</dc:format>
        <dc:type
           rdf:resource="http://purl.org/dc/dcmitype/StillImage" />
        <dc:title />
      </cc:Work>
    </rdf:RDF>
  </metadata>
  <g
     id="layer1">
    <path
       id="rect3338"
       style="opacity:1;fill:#ffeeaa;stroke:#000000;stroke-linecap:round;stroke-linejoin:bevel"
       d="m 194.8819,60.236221 h 70.86614 V 102.75591 H 194.8819 Z" />
    <g
       aria-label="z-N"
       id="text3340"
       style="line-height:0%;font-family:Iwona;-inkscape-font-specification:Iwona;text-align:center;letter-spacing:0px;word-spacing:0px;text-anchor:middle;stroke-width:1px">
      <path
         d="m 227.64896,85.871063 v -0.525 h -3.4 l 3.4,-4.625 v -0.475 h -4.4 v 0.525 h 3.275 l -3.4,4.625 v 0.475 z"
         style="font-size:12.5px;line-height:1.25"
         id="path31" />
      <path
         d="m 231.03832,79.246063 v -0.40625 h -2.70562 v 0.40625 z"
         style="font-size:65%;baseline-shift:super"
         id="path33" />
      <path
         d="m 236.93706,80.871063 v -5.6875 h -0.37375 v 4.7775 l -3.91625,-4.7775 h -0.4875 v 5.6875 h 0.37375 v -4.7775 l 3.91625,4.7775 z"
         style="font-size:65%;baseline-shift:super"
         id="path35" />
    </g>
    <path
       style="fill:none;fill-rule:evenodd;stroke:#000000;stroke-width:1px;stroke-linecap:butt;stroke-linejoin:miter;stroke-opacity:1;marker-end:url(#Arrow1Mend)"
       d="m 159.44882,81.496063 h 35.43307"
       id="path3344" />
    <g
       aria-label="x"
       id="text5214"
       style="line-height:0%;font-family:Iwona;-inkscape-font-specification:Iwona;text-align:end;letter-spacing:0px;word-spacing:0px;text-anchor:end;stroke-width:1px">
      <path
         d="m 155.65554,85.039368 -1.9625,-3 1.9,-2.625 h -0.65 l -1.55,2.15 -1.4,-2.15 h -1.05 l 1.8625,2.8625 -1.9875,2.7625 h 0.65 l 1.65,-2.2875 1.4875,2.2875 z"
         style="font-size:12.5px;line-height:1.25"
         id="path38" />
    </g>
    <g
       aria-label="y"
       id="text5218"
       style="line-height:0%;font-family:Iwona;-inkscape-font-specification:Iwona;letter-spacing:0px;word-spacing:0px;stroke-width:1px">
      <path
         d="m 384.59635,85.789368 v -6.375 h -0.975 v 4.4125 c -0.425,0.425 -0.95,0.7625 -1.5375,0.7625 -0.5875,0 -1.0375,-0.5125 -1.0375,-1.1125 v -4.0625 h -0.975 v 4.0625 c 0,0.9125 0.7,1.6875 1.6,1.6875 0.75,0 1.4125,-0.425 1.95,-0.95 v 1.575 c 0,0.8375 -0.375,1.675 -1.125,1.675 -0.5875,0 -1.15,-0.125 -1.6875,-0.3375 v 0.3875 c 0.6375,0.325 1.35,0.525 2.075,0.525 1.0625,0 1.7125,-1.1 1.7125,-2.25 z"
         style="font-size:12.5px;line-height:1.25"
         id="path41" />
    </g>
    <path
       id="rect4918"
       style="opacity:1;fill:#ffeeaa;stroke:#000000;stroke-linecap:round;stroke-linejoin:bevel"
       d="m 301.18109,60.236221 h 35.43308 v 42.519689 h -35.43308 z" />
    <g
       aria-label="A"
       id="text4922"
       style="line-height:0%;font-family:Iwona;-inkscape-font-specification:Iwona;text-align:center;letter-spacing:0px;word-spacing:0px;text-anchor:middle;stroke-width:1px">
      <path
         d="m 322.08054,85.871063 -3.175,-8.75 h -1.0875 l -3.2375,8.75 h 0.6125 l 1.1375,-3.0625 h 3.55 l 1.1125,3.0625 z m -2.4125,-3.6375 h -3.125 l 1.575,-4.275 z"
         style="font-size:12.5px;line-height:1.25"
         id="path45" />
    </g>
    <path
       style="fill:none;fill-rule:evenodd;stroke:#000000;stroke-width:1px;stroke-linecap:butt;stroke-linejoin:miter;stroke-opacity:1;marker-end:url(#marker5268)"
       d="m 336.61419,81.496061 h 35.43307"
       id="path5266" />
    <path
       id="path4552"
       d="M 265.74803,81.496063 H 301.1811"
       style="fill:none;fill-rule:evenodd;stroke:#000000;stroke-width:1px;stroke-linecap:butt;stroke-linejoin:miter;stroke-opacity:1;marker-end:url(#marker4554)" />
  </g>
</svg>
