<?xml version="1.0" encoding="UTF-8" standalone="no"?>
<!-- Created with Inkscape (http://www.inkscape.org/) -->

<svg
   width="89.286018mm"
   height="28.282028mm"
   viewBox="0 0 316.36779 100.21191"
   id="svg2"
   version="1.1"
   xmlns="http://www.w3.org/2000/svg"
   xmlns:svg="http://www.w3.org/2000/svg"
   xmlns:rdf="http://www.w3.org/1999/02/22-rdf-syntax-ns#"
   xmlns:cc="http://creativecommons.org/ns#"
   xmlns:dc="http://purl.org/dc/elements/1.1/">
  <defs
     id="defs4" />
  <metadata
     id="metadata7">
    <rdf:RDF>
      <cc:Work
         rdf:about="">
        <dc:format>image/svg+xml</dc:format>
        <dc:type
           rdf:resource="http://purl.org/dc/dcmitype/StillImage" />
        <dc:title />
      </cc:Work>
    </rdf:RDF>
  </metadata>
  <g
     id="layer1"
     transform="translate(25.309871,-34.933413)">
    <g
       transform="translate(152.3622,-35.433053)"
       id="g3925">
      <path
         id="rect4876"
         d="M 131.10237,162.99211 H 42.519685 V 77.952738 l 88.582685,-10e-7"
         style="fill:#afdde9;fill-opacity:1;stroke:#000000;stroke-width:0.999213;stroke-linecap:round;stroke-linejoin:miter;stroke-miterlimit:4;stroke-dashoffset:0;stroke-opacity:1" />
      <path
         style="fill:#afdde9;fill-opacity:1;stroke:#000000;stroke-width:1px;stroke-linecap:butt;stroke-linejoin:miter;stroke-opacity:1"
         d="m 35.433076,88.582672 h 10.62992 l 7.08661,7.0866 -7.08661,7.086608 h -10.62992 z"
         id="path4840" />
      <path
         id="path3728"
         d="m 35.433076,113.38581 h 10.62992 l 7.08661,7.0866 -7.08661,7.08661 h -10.62992 z"
         style="fill:#afdde9;fill-opacity:1;stroke:#000000;stroke-width:1px;stroke-linecap:butt;stroke-linejoin:miter;stroke-opacity:1" />
      <path
         style="fill:#afdde9;fill-opacity:1;stroke:#000000;stroke-width:1px;stroke-linecap:butt;stroke-linejoin:miter;stroke-opacity:1"
         d="m 35.433076,138.18896 h 10.62992 l 7.08661,7.0866 -7.08661,7.08661 h -10.62992 z"
         id="path3730" />
      <g
         aria-label="Récepteur"
         id="text3754"
         style="line-height:0%;font-family:Iwona;-inkscape-font-specification:Iwona;letter-spacing:0px;word-spacing:0px;stroke-width:1px">
        <path
           d="m 75.372838,124.01572 -2.6625,-3.9625 c 1.3625,-0.2625 2.3,-1.0125 2.3,-2.4125 0,-1.7625 -1.5125,-2.5 -3.475,-2.5 -0.7,0 -1.4,0.0375 -2.0875,0.125 h -1 v 8.75 h 1.025 v -4.0625 c 0.675,0.125 1.375,0.2 2.0625,0.2 l 2.6125,3.8625 z m -1.5875,-6.375 c 0,1.1375 -1.0625,1.9375 -2.25,1.9375 -0.6875,0 -1.3875,-0.075 -2.0625,-0.2 v -3.5375 c 0.6875,-0.0875 1.375,-0.125 2.0625,-0.125 1.1875,0 2.25,0.8 2.25,1.925 z"
           style="font-size:12.5px;line-height:1.25"
           id="path31" />
        <path
           d="m 81.022829,121.32822 v -0.125 c 0,-1.7625 -0.9625,-2.9375 -2.4125,-2.9375 -1.4625,0 -2.425,1.175 -2.425,2.9375 0,1.7625 0.9625,2.9375 2.425,2.9375 0.625,0 1.2375,-0.2 1.75,-0.5625 v -0.525 c -0.5875,0.375 -1.0625,0.5125 -1.75,0.5125 -1.0625,0 -1.325,-1.0125 -1.325,-2.2375 z m -1.1,-0.525 h -2.6375 c 0,-1 0.425,-2.0125 1.325,-2.0125 0.8875,0 1.3125,1.0125 1.3125,2.0125 z m 0.0375,-5.5375 h -1.125 c 0,0.8375 -0.2625,1.6625 -0.75,2.3375 h 0.525 c 0.6625,-0.6625 1.35,-1.4 1.35,-2.3375 z"
           style="font-size:12.5px;line-height:1.25"
           id="path33" />
        <path
           d="m 86.697813,119.69072 v -0.525 c -0.4,-0.5625 -1.05,-0.9 -1.75,-0.9 -1.5625,0 -2.6125,1.175 -2.6125,2.9375 0,1.7625 1.05,2.9375 2.6125,2.9375 0.65,0 1.2625,-0.325 1.625,-0.8625 v -0.525 c -0.425,0.6375 -0.8625,0.8625 -1.625,0.8625 -0.9,0 -1.5125,-0.9625 -1.5125,-2.4125 0,-1.45 0.6125,-2.4125 1.5125,-2.4125 0.775,0 1.3,0.275 1.75,0.9 z"
           style="font-size:12.5px;line-height:1.25"
           id="path35" />
        <path
           d="m 92.5353,121.32822 v -0.125 c 0,-1.7625 -0.9625,-2.9375 -2.4125,-2.9375 -1.4625,0 -2.425,1.175 -2.425,2.9375 0,1.7625 0.9625,2.9375 2.425,2.9375 0.625,0 1.2375,-0.2 1.75,-0.5625 v -0.525 c -0.5875,0.375 -1.0625,0.5125 -1.75,0.5125 -1.0625,0 -1.325,-1.0125 -1.325,-2.2375 z m -1.1,-0.525 h -2.6375 c 0,-1 0.425,-2.0125 1.325,-2.0125 0.8875,0 1.3125,1.0125 1.3125,2.0125 z"
           style="font-size:12.5px;line-height:1.25"
           id="path37" />
        <path
           d="m 98.935282,121.20322 c 0,-1.6625 -0.625,-2.9375 -2.1375,-2.9375 -0.6375,0 -1.225,0.2875 -1.725,0.6875 v -0.5625 h -0.975 v 8.5 h 0.975 v -3.0875 c 0.4875,0.2125 1.0125,0.3375 1.5375,0.3375 1.5625,0 2.325,-1.25 2.325,-2.9375 z m -1.1,0 c 0,1.175 -0.3625,2.4125 -1.3875,2.4125 -0.475,0 -0.95,-0.125 -1.375,-0.3375 v -3.8 c 0.375,-0.375 0.8375,-0.6875 1.375,-0.6875 1.1375,0 1.3875,1.1 1.3875,2.4125 z"
           style="font-size:12.5px;line-height:1.25"
           id="path39" />
        <path
           d="m 103.27276,123.57822 v -0.375 c -0.2,0.2 -0.4375,0.3625 -0.725,0.3625 -0.45,0 -0.475,-0.5875 -0.475,-1.1125 v -3.5375 h 1.2 v -0.525 h -1.2 v -1.875 h -0.5875 c 0,1 -0.575,1.9375 -1.487499,1.9375 v 0.4625 h 1.099999 v 3.5375 c 0,0.825 0.2625,1.6875 0.975,1.6875 0.4625,0 0.8625,-0.25 1.2,-0.5625 z"
           style="font-size:12.5px;line-height:1.25"
           id="path41" />
        <path
           d="m 109.17274,121.32822 v -0.125 c 0,-1.7625 -0.9625,-2.9375 -2.4125,-2.9375 -1.4625,0 -2.425,1.175 -2.425,2.9375 0,1.7625 0.9625,2.9375 2.425,2.9375 0.625,0 1.2375,-0.2 1.75,-0.5625 v -0.525 c -0.5875,0.375 -1.0625,0.5125 -1.75,0.5125 -1.0625,0 -1.325,-1.0125 -1.325,-2.2375 z m -1.1,-0.525 h -2.6375 c 0,-1 0.425,-2.0125 1.325,-2.0125 0.8875,0 1.3125,1.0125 1.3125,2.0125 z"
           style="font-size:12.5px;line-height:1.25"
           id="path43" />
        <path
           d="m 115.26023,124.01572 v -5.625 h -0.975 v 4.4125 c -0.425,0.425 -0.95,0.7625 -1.5375,0.7625 -0.5875,0 -1.0375,-0.5125 -1.0375,-1.1125 v -4.0625 h -0.975 v 4.0625 c 0,0.9125 0.7,1.6875 1.6,1.6875 0.75,0 1.4125,-0.425 1.95,-0.95 v 0.825 z"
           style="font-size:12.5px;line-height:1.25"
           id="path45" />
        <path
           d="m 120.37271,119.16572 v -0.775 c -0.1375,-0.05 -0.2875,-0.0875 -0.425,-0.0875 -0.7,0 -1.2625,0.4875 -1.7125,1.025 v -0.9375 h -0.975 v 5.625 h 0.975 v -4.1625 c 0.375,-0.4375 0.85,-0.8125 1.425,-0.8125 0.2375,0 0.4875,0.05 0.7125,0.125 z"
           style="font-size:12.5px;line-height:1.25"
           id="path47" />
      </g>
    </g>
    <g
       transform="translate(14.17323,-88.582655)"
       id="g3929">
      <path
         style="fill:#afdde9;fill-opacity:1;stroke:#000000;stroke-width:0.999213;stroke-linecap:round;stroke-linejoin:miter;stroke-miterlimit:4;stroke-dashoffset:0;stroke-opacity:1"
         d="M -31.889765,216.14171 H 70.866142 V 131.10234 H -31.889765"
         id="path5358" />
      <path
         id="path5360"
         d="m 63.779529,141.73226 h 10.62992 l 7.08661,7.0866 -7.08661,7.08661 h -10.62992 z"
         style="fill:#afdde9;fill-opacity:1;stroke:#000000;stroke-width:1px;stroke-linecap:butt;stroke-linejoin:miter;stroke-opacity:1" />
      <path
         style="fill:#afdde9;fill-opacity:1;stroke:#000000;stroke-width:1px;stroke-linecap:butt;stroke-linejoin:miter;stroke-opacity:1"
         d="m 63.779529,166.53541 h 10.62992 l 7.08661,7.0866 -7.08661,7.08661 h -10.62992 z"
         id="path3724" />
      <path
         id="path3726"
         d="m 63.779529,191.33856 h 10.62992 l 7.08661,7.0866 -7.08661,7.08661 h -10.62992 z"
         style="fill:#afdde9;fill-opacity:1;stroke:#000000;stroke-width:1px;stroke-linecap:butt;stroke-linejoin:miter;stroke-opacity:1" />
      <g
         aria-label="Transmetteur"
         id="text3732"
         style="line-height:0%;font-family:Iwona;-inkscape-font-specification:Iwona;text-align:end;letter-spacing:0px;word-spacing:0px;text-anchor:end;stroke-width:1px">
        <path
           d="m -11.893486,168.99033 v -0.575 h -6.875 v 0.575 h 2.925 v 8.175 h 1.025 v -8.175 z"
           style="font-size:12.5px;line-height:1.25"
           id="path50" />
        <path
           d="m -8.6560099,172.31533 v -0.775 c -0.1375,-0.05 -0.2875,-0.0875 -0.425,-0.0875 -0.7,0 -1.2625001,0.4875 -1.7125001,1.025 v -0.9375 h -0.975 v 5.625 h 0.975 v -4.1625 c 0.375,-0.4375 0.8500001,-0.8125 1.4250001,-0.8125 0.2375,0 0.4875,0.05 0.7125,0.125 z"
           style="font-size:12.5px;line-height:1.25"
           id="path52" />
        <path
           d="m -3.156035,177.16533 v -3.5 c 0,-1.175 -0.725,-2.25 -1.8125,-2.25 -0.8,0 -1.55,0.275 -2.225,0.7 v 0.3875 c 0.5625,-0.3125 1.1875,-0.5125 1.8375,-0.5125 0.775,0 1.225,0.825 1.225,1.675 v 0.225 c -0.4875,-0.2125 -1.0125,-0.3375 -1.5375,-0.3375 -1.3375,0 -2.325,0.6125 -2.325,1.875 0,1.2 0.875,1.8625 2.1375,1.8625 0.6375,0 1.225,-0.2875 1.725,-0.6875 v 0.5625 z m -0.975,-1.0875 c -0.375,0.375 -0.8375,0.6875 -1.375,0.6875 -0.8375,0 -1.3875,-0.5125 -1.3875,-1.3375 0,-0.7625 0.625,-1.35 1.3875,-1.35 0.475,0 0.95,0.125 1.375,0.3375 z"
           style="font-size:12.5px;line-height:1.25"
           id="path54" />
        <path
           d="m 3.3689541,177.16533 v -4.0625 c 0,-0.9125 -0.7,-1.6875 -1.6,-1.6875 -0.75,0 -1.41250001,0.425 -1.95000001,0.95 v -0.825 H -1.1560459 v 5.625 h 0.97499999 v -4.4125 c 0.425,-0.425 0.95,-0.7625 1.53750001,-0.7625 0.5875,0 1.0375,0.5125 1.0375,1.1125 v 4.0625 z"
           style="font-size:12.5px;line-height:1.25"
           id="path56" />
        <path
           d="m 9.1064327,175.56533 c 0,-0.9875 -1.05,-1.5 -2.075,-1.75 -0.6,-0.15 -1.25,-0.4 -1.25,-0.9875 0,-0.5375 0.55,-0.8875 1.15,-0.8875 0.6625,0 1.325,0.2 1.875,0.5625 v -0.525 c -0.55,-0.3625 -1.2125,-0.5625 -1.875,-0.5625 -1.0875,0 -2.0875,0.6625 -2.0875,1.675 0,0.9125 1.0125,1.3375 1.975,1.575 0.6625,0.1625 1.35,0.5125 1.35,1.15 0,0.5875 -0.6,0.95 -1.2375,0.95 -0.775,0 -1.525,-0.1875 -2.1875,-0.5625 v 0.525 c 0.6625,0.375 1.4125,0.5625 2.1875,0.5625 1.125,0 2.175,-0.675 2.175,-1.725 z"
           style="font-size:12.5px;line-height:1.25"
           id="path58" />
        <path
           d="m 17.493919,177.16533 v -4.0625 c 0,-0.875 -0.5125,-1.6875 -1.325,-1.6875 -0.7,0 -1.35,0.3625 -1.725,0.95 -0.2,-0.55 -0.625,-0.95 -1.2,-0.95 -0.65,0 -1.175,0.45 -1.6,0.95 v -0.825 h -0.975 v 5.625 h 0.975 v -4.425 c 0.3,-0.3875 0.675,-0.75 1.1625,-0.75 0.5125,0 0.7875,0.55 0.7875,1.1125 v 4.0625 h 0.975 v -4.0625 c 0,-0.15 -0.0125,-0.2875 -0.0375,-0.4375 0.3,-0.3875 0.7125,-0.675 1.2,-0.675 0.5125,0 0.7875,0.55 0.7875,1.1125 v 4.0625 z"
           style="font-size:12.5px;line-height:1.25"
           id="path60" />
        <path
           d="m 23.956396,174.47783 v -0.125 c 0,-1.7625 -0.9625,-2.9375 -2.4125,-2.9375 -1.4625,0 -2.425,1.175 -2.425,2.9375 0,1.7625 0.9625,2.9375 2.425,2.9375 0.625,0 1.2375,-0.2 1.75,-0.5625 v -0.525 c -0.5875,0.375 -1.0625,0.5125 -1.75,0.5125 -1.0625,0 -1.325,-1.0125 -1.325,-2.2375 z m -1.1,-0.525 h -2.6375 c 0,-1 0.425,-2.0125 1.325,-2.0125 0.8875,0 1.3125,1.0125 1.3125,2.0125 z"
           style="font-size:12.5px;line-height:1.25"
           id="path62" />
        <path
           d="m 28.231383,176.72783 v -0.375 c -0.2,0.2 -0.4375,0.3625 -0.725,0.3625 -0.45,0 -0.475,-0.5875 -0.475,-1.1125 v -3.5375 h 1.2 v -0.525 h -1.2 v -1.875 h -0.5875 c 0,1 -0.575,1.9375 -1.4875,1.9375 v 0.4625 h 1.1 v 3.5375 c 0,0.825 0.2625,1.6875 0.975,1.6875 0.4625,0 0.8625,-0.25 1.2,-0.5625 z"
           style="font-size:12.5px;line-height:1.25"
           id="path64" />
        <path
           d="m 32.256365,176.72783 v -0.375 c -0.2,0.2 -0.4375,0.3625 -0.725,0.3625 -0.45,0 -0.475,-0.5875 -0.475,-1.1125 v -3.5375 h 1.2 v -0.525 h -1.2 v -1.875 h -0.5875 c 0,1 -0.575,1.9375 -1.4875,1.9375 v 0.4625 h 1.1 v 3.5375 c 0,0.825 0.2625,1.6875 0.975,1.6875 0.4625,0 0.8625,-0.25 1.2,-0.5625 z"
           style="font-size:12.5px;line-height:1.25"
           id="path66" />
        <path
           d="m 38.156348,174.47783 v -0.125 c 0,-1.7625 -0.9625,-2.9375 -2.4125,-2.9375 -1.4625,0 -2.425,1.175 -2.425,2.9375 0,1.7625 0.9625,2.9375 2.425,2.9375 0.625,0 1.2375,-0.2 1.75,-0.5625 v -0.525 c -0.5875,0.375 -1.0625,0.5125 -1.75,0.5125 -1.0625,0 -1.325,-1.0125 -1.325,-2.2375 z m -1.1,-0.525 h -2.6375 c 0,-1 0.425,-2.0125 1.325,-2.0125 0.8875,0 1.3125,1.0125 1.3125,2.0125 z"
           style="font-size:12.5px;line-height:1.25"
           id="path68" />
        <path
           d="m 44.24383,177.16533 v -5.625 h -0.975 v 4.4125 c -0.425,0.425 -0.95,0.7625 -1.5375,0.7625 -0.5875,0 -1.0375,-0.5125 -1.0375,-1.1125 v -4.0625 h -0.975 v 4.0625 c 0,0.9125 0.7,1.6875 1.6,1.6875 0.75,0 1.4125,-0.425 1.95,-0.95 v 0.825 z"
           style="font-size:12.5px;line-height:1.25"
           id="path70" />
        <path
           d="m 49.356313,172.31533 v -0.775 c -0.1375,-0.05 -0.2875,-0.0875 -0.425,-0.0875 -0.7,0 -1.2625,0.4875 -1.7125,1.025 v -0.9375 h -0.975 v 5.625 h 0.975 v -4.1625 c 0.375,-0.4375 0.85,-0.8125 1.425,-0.8125 0.2375,0 0.4875,0.05 0.7125,0.125 z"
           style="font-size:12.5px;line-height:1.25"
           id="path72" />
      </g>
    </g>
    <g
       aria-label="serial data"
       id="text3758"
       style="line-height:0%;font-family:Iwona;-inkscape-font-specification:Iwona;text-align:center;letter-spacing:0px;word-spacing:0px;text-anchor:middle;stroke-width:1px">
      <path
         d="m 118.06986,55.092913 c 0,-0.9875 -1.05,-1.5 -2.075,-1.75 -0.6,-0.15 -1.25,-0.4 -1.25,-0.9875 0,-0.5375 0.55,-0.8875 1.15,-0.8875 0.6625,0 1.325,0.2 1.875,0.5625 v -0.525 c -0.55,-0.3625 -1.2125,-0.5625 -1.875,-0.5625 -1.0875,0 -2.0875,0.6625 -2.0875,1.675 0,0.9125 1.0125,1.3375 1.975,1.575 0.6625,0.1625 1.35,0.5125 1.35,1.15 0,0.5875 -0.6,0.95 -1.2375,0.95 -0.775,0 -1.525,-0.1875 -2.1875,-0.5625 v 0.525 c 0.6625,0.375 1.4125,0.5625 2.1875,0.5625 1.125,0 2.175,-0.675 2.175,-1.725 z"
         style="font-size:12.5px;line-height:1.25"
         id="path75" />
      <path
         d="m 124.15735,54.005413 v -0.125 c 0,-1.7625 -0.9625,-2.9375 -2.4125,-2.9375 -1.4625,0 -2.425,1.175 -2.425,2.9375 0,1.7625 0.9625,2.9375 2.425,2.9375 0.625,0 1.2375,-0.2 1.75,-0.5625 v -0.525 c -0.5875,0.375 -1.0625,0.5125 -1.75,0.5125 -1.0625,0 -1.325,-1.0125 -1.325,-2.2375 z m -1.1,-0.525 h -2.6375 c 0,-1 0.425,-2.0125 1.325,-2.0125 0.8875,0 1.3125,1.0125 1.3125,2.0125 z"
         style="font-size:12.5px;line-height:1.25"
         id="path77" />
      <path
         d="m 128.89483,51.842913 v -0.775 c -0.1375,-0.05 -0.2875,-0.0875 -0.425,-0.0875 -0.7,0 -1.2625,0.4875 -1.7125,1.025 v -0.9375 h -0.975 v 5.625 h 0.975 v -4.1625 c 0.375,-0.4375 0.85,-0.8125 1.425,-0.8125 0.2375,0 0.4875,0.05 0.7125,0.125 z"
         style="font-size:12.5px;line-height:1.25"
         id="path79" />
      <path
         d="m 132.43232,56.255413 v -0.375 c -0.2375,0.2 -0.5125,0.3625 -0.825,0.3625 -0.4625,0 -0.55,-0.575 -0.55,-1.1125 v -4.0625 h -0.975 v 4.0625 c 0,0.8375 0.325,1.6875 1.0625,1.6875 0.475,0 0.925,-0.2375 1.2875,-0.5625 z m -1.25,-7.1375 c 0,-0.3375 -0.275,-0.6125 -0.6125,-0.6125 -0.3375,0 -0.6125,0.275 -0.6125,0.6125 0,0.3375 0.275,0.6125 0.6125,0.6125 0.3375,0 0.6125,-0.275 0.6125,-0.6125 z"
         style="font-size:12.5px;line-height:1.25"
         id="path81" />
      <path
         d="m 138.08231,56.692913 v -3.5 c 0,-1.175 -0.725,-2.25 -1.8125,-2.25 -0.8,0 -1.55,0.275 -2.225,0.7 v 0.3875 c 0.5625,-0.3125 1.1875,-0.5125 1.8375,-0.5125 0.775,0 1.225,0.825 1.225,1.675 v 0.225 c -0.4875,-0.2125 -1.0125,-0.3375 -1.5375,-0.3375 -1.3375,0 -2.325,0.6125 -2.325,1.875 0,1.2 0.875,1.8625 2.1375,1.8625 0.6375,0 1.225,-0.2875 1.725,-0.6875 v 0.5625 z m -0.975,-1.0875 c -0.375,0.375 -0.8375,0.6875 -1.375,0.6875 -0.8375,0 -1.3875,-0.5125 -1.3875,-1.3375 0,-0.7625 0.625,-1.35 1.3875,-1.35 0.475,0 0.95,0.125 1.375,0.3375 z"
         style="font-size:12.5px;line-height:1.25"
         id="path83" />
      <path
         d="m 142.4323,56.255413 v -0.375 c -0.2375,0.2 -0.5125,0.3625 -0.825,0.3625 -0.4625,0 -0.55,-0.575 -0.55,-1.1125 v -7.1875 h -0.975 v 7.1875 c 0,0.8375 0.325,1.6875 1.0625,1.6875 0.475,0 0.925,-0.2375 1.2875,-0.5625 z"
         style="font-size:12.5px;line-height:1.25"
         id="path85" />
      <path
         d="m 152.36975,56.692913 v -8.75 h -0.975 v 3.3375 c -0.4875,-0.2125 -1.0125,-0.3375 -1.5375,-0.3375 -1.5625,0 -2.325,1.25 -2.325,2.9375 0,1.6625 0.625,2.9375 2.1375,2.9375 0.6375,0 1.225,-0.2875 1.725,-0.6875 v 0.5625 z m -0.975,-1.0875 c -0.375,0.375 -0.8375,0.6875 -1.375,0.6875 -1.1375,0 -1.3875,-1.1 -1.3875,-2.4125 0,-1.175 0.3625,-2.4125 1.3875,-2.4125 0.475,0 0.95,0.125 1.375,0.3375 z"
         style="font-size:12.5px;line-height:1.25"
         id="path87" />
      <path
         d="m 158.76975,56.692913 v -3.5 c 0,-1.175 -0.725,-2.25 -1.8125,-2.25 -0.8,0 -1.55,0.275 -2.225,0.7 v 0.3875 c 0.5625,-0.3125 1.1875,-0.5125 1.8375,-0.5125 0.775,0 1.225,0.825 1.225,1.675 v 0.225 c -0.4875,-0.2125 -1.0125,-0.3375 -1.5375,-0.3375 -1.3375,0 -2.325,0.6125 -2.325,1.875 0,1.2 0.875,1.8625 2.1375,1.8625 0.6375,0 1.225,-0.2875 1.725,-0.6875 v 0.5625 z m -0.975,-1.0875 c -0.375,0.375 -0.8375,0.6875 -1.375,0.6875 -0.8375,0 -1.3875,-0.5125 -1.3875,-1.3375 0,-0.7625 0.625,-1.35 1.3875,-1.35 0.475,0 0.95,0.125 1.375,0.3375 z"
         style="font-size:12.5px;line-height:1.25"
         id="path89" />
      <path
         d="m 163.41973,56.255413 v -0.375 c -0.2,0.2 -0.4375,0.3625 -0.725,0.3625 -0.45,0 -0.475,-0.5875 -0.475,-1.1125 v -3.5375 h 1.2 v -0.525 h -1.2 v -1.875 h -0.5875 c 0,1 -0.575,1.9375 -1.4875,1.9375 v 0.4625 h 1.1 v 3.5375 c 0,0.825 0.2625,1.6875 0.975,1.6875 0.4625,0 0.8625,-0.25 1.2,-0.5625 z"
         style="font-size:12.5px;line-height:1.25"
         id="path91" />
      <path
         d="m 169.19472,56.692913 v -3.5 c 0,-1.175 -0.725,-2.25 -1.8125,-2.25 -0.8,0 -1.55,0.275 -2.225,0.7 v 0.3875 c 0.5625,-0.3125 1.1875,-0.5125 1.8375,-0.5125 0.775,0 1.225,0.825 1.225,1.675 v 0.225 c -0.4875,-0.2125 -1.0125,-0.3375 -1.5375,-0.3375 -1.3375,0 -2.325,0.6125 -2.325,1.875 0,1.2 0.875,1.8625 2.1375,1.8625 0.6375,0 1.225,-0.2875 1.725,-0.6875 v 0.5625 z m -0.975,-1.0875 c -0.375,0.375 -0.8375,0.6875 -1.375,0.6875 -0.8375,0 -1.3875,-0.5125 -1.3875,-1.3375 0,-0.7625 0.625,-1.35 1.3875,-1.35 0.475,0 0.95,0.125 1.375,0.3375 z"
         style="font-size:12.5px;line-height:1.25"
         id="path93" />
    </g>
    <g
       aria-label="serial clock"
       id="text3762"
       style="line-height:0%;font-family:Iwona;-inkscape-font-specification:Iwona;text-align:center;letter-spacing:0px;word-spacing:0px;text-anchor:middle;stroke-width:1px">
      <path
         d="m 116.49487,79.896063 c 0,-0.9875 -1.05,-1.5 -2.075,-1.75 -0.6,-0.15 -1.25,-0.4 -1.25,-0.9875 0,-0.5375 0.55,-0.8875 1.15,-0.8875 0.6625,0 1.325,0.2 1.875,0.5625 v -0.525 c -0.55,-0.3625 -1.2125,-0.5625 -1.875,-0.5625 -1.0875,0 -2.0875,0.6625 -2.0875,1.675 0,0.9125 1.0125,1.3375 1.975,1.575 0.6625,0.1625 1.35,0.5125 1.35,1.15 0,0.5875 -0.6,0.95 -1.2375,0.95 -0.775,0 -1.525,-0.1875 -2.1875,-0.5625 v 0.525 c 0.6625,0.375 1.4125,0.5625 2.1875,0.5625 1.125,0 2.175,-0.675 2.175,-1.725 z"
         style="font-size:12.5px;line-height:1.25"
         id="path96" />
      <path
         d="m 122.58236,78.808563 v -0.125 c 0,-1.7625 -0.9625,-2.9375 -2.4125,-2.9375 -1.4625,0 -2.425,1.175 -2.425,2.9375 0,1.7625 0.9625,2.9375 2.425,2.9375 0.625,0 1.2375,-0.2 1.75,-0.5625 v -0.525 c -0.5875,0.375 -1.0625,0.5125 -1.75,0.5125 -1.0625,0 -1.325,-1.0125 -1.325,-2.2375 z m -1.1,-0.525 h -2.6375 c 0,-1 0.425,-2.0125 1.325,-2.0125 0.8875,0 1.3125,1.0125 1.3125,2.0125 z"
         style="font-size:12.5px;line-height:1.25"
         id="path98" />
      <path
         d="m 127.31984,76.646063 v -0.775 c -0.1375,-0.05 -0.2875,-0.0875 -0.425,-0.0875 -0.7,0 -1.2625,0.4875 -1.7125,1.025 v -0.9375 h -0.975 v 5.625 h 0.975 v -4.1625 c 0.375,-0.4375 0.85,-0.8125 1.425,-0.8125 0.2375,0 0.4875,0.05 0.7125,0.125 z"
         style="font-size:12.5px;line-height:1.25"
         id="path100" />
      <path
         d="m 130.85733,81.058563 v -0.375 c -0.2375,0.2 -0.5125,0.3625 -0.825,0.3625 -0.4625,0 -0.55,-0.575 -0.55,-1.1125 v -4.0625 h -0.975 v 4.0625 c 0,0.8375 0.325,1.6875 1.0625,1.6875 0.475,0 0.925,-0.2375 1.2875,-0.5625 z m -1.25,-7.1375 c 0,-0.3375 -0.275,-0.6125 -0.6125,-0.6125 -0.3375,0 -0.6125,0.275 -0.6125,0.6125 0,0.3375 0.275,0.6125 0.6125,0.6125 0.3375,0 0.6125,-0.275 0.6125,-0.6125 z"
         style="font-size:12.5px;line-height:1.25"
         id="path102" />
      <path
         d="m 136.50731,81.496063 v -3.5 c 0,-1.175 -0.725,-2.25 -1.8125,-2.25 -0.8,0 -1.55,0.275 -2.225,0.7 v 0.3875 c 0.5625,-0.3125 1.1875,-0.5125 1.8375,-0.5125 0.775,0 1.225,0.825 1.225,1.675 v 0.225 c -0.4875,-0.2125 -1.0125,-0.3375 -1.5375,-0.3375 -1.3375,0 -2.325,0.6125 -2.325,1.875 0,1.2 0.875,1.8625 2.1375,1.8625 0.6375,0 1.225,-0.2875 1.725,-0.6875 v 0.5625 z m -0.975,-1.0875 c -0.375,0.375 -0.8375,0.6875 -1.375,0.6875 -0.8375,0 -1.3875,-0.5125 -1.3875,-1.3375 0,-0.7625 0.625,-1.35 1.3875,-1.35 0.475,0 0.95,0.125 1.375,0.3375 z"
         style="font-size:12.5px;line-height:1.25"
         id="path104" />
      <path
         d="m 140.8573,81.058563 v -0.375 c -0.2375,0.2 -0.5125,0.3625 -0.825,0.3625 -0.4625,0 -0.55,-0.575 -0.55,-1.1125 v -7.1875 h -0.975 v 7.1875 c 0,0.8375 0.325,1.6875 1.0625,1.6875 0.475,0 0.925,-0.2375 1.2875,-0.5625 z"
         style="font-size:12.5px;line-height:1.25"
         id="path106" />
      <path
         d="m 150.31976,77.171063 v -0.525 c -0.4,-0.5625 -1.05,-0.9 -1.75,-0.9 -1.5625,0 -2.6125,1.175 -2.6125,2.9375 0,1.7625 1.05,2.9375 2.6125,2.9375 0.65,0 1.2625,-0.325 1.625,-0.8625 v -0.525 c -0.425,0.6375 -0.8625,0.8625 -1.625,0.8625 -0.9,0 -1.5125,-0.9625 -1.5125,-2.4125 0,-1.45 0.6125,-2.4125 1.5125,-2.4125 0.775,0 1.3,0.275 1.75,0.9 z"
         style="font-size:12.5px;line-height:1.25"
         id="path108" />
      <path
         d="m 153.98225,81.058563 v -0.375 c -0.2375,0.2 -0.5125,0.3625 -0.825,0.3625 -0.4625,0 -0.55,-0.575 -0.55,-1.1125 v -7.1875 h -0.975 v 7.1875 c 0,0.8375 0.325,1.6875 1.0625,1.6875 0.475,0 0.925,-0.2375 1.2875,-0.5625 z"
         style="font-size:12.5px;line-height:1.25"
         id="path110" />
      <path
         d="m 159.75722,78.683563 c 0,-1.9125 -0.85,-2.9375 -2.4125,-2.9375 -1.575,0 -2.425,1.025 -2.425,2.9375 0,1.9125 0.85,2.9375 2.425,2.9375 1.5625,0 2.4125,-1.025 2.4125,-2.9375 z m -1.1,0 c 0,1.5625 -0.4625,2.4125 -1.3125,2.4125 -0.8625,0 -1.325,-0.85 -1.325,-2.4125 0,-1.5625 0.4625,-2.4125 1.325,-2.4125 0.85,0 1.3125,0.85 1.3125,2.4125 z"
         style="font-size:12.5px;line-height:1.25"
         id="path112" />
      <path
         d="m 165.49472,77.171063 v -0.525 c -0.4,-0.5625 -1.05,-0.9 -1.75,-0.9 -1.5625,0 -2.6125,1.175 -2.6125,2.9375 0,1.7625 1.05,2.9375 2.6125,2.9375 0.65,0 1.2625,-0.325 1.625,-0.8625 v -0.525 c -0.425,0.6375 -0.8625,0.8625 -1.625,0.8625 -0.9,0 -1.5125,-0.9625 -1.5125,-2.4125 0,-1.45 0.6125,-2.4125 1.5125,-2.4125 0.775,0 1.3,0.275 1.75,0.9 z"
         style="font-size:12.5px;line-height:1.25"
         id="path114" />
      <path
         d="m 171.64471,81.496063 -2.9,-3.3375 2.8,-2.2875 h -0.775 l -2.9875,2.45 v -5.575 h -0.975 v 8.75 h 0.975 v -3.1125 l 2.7,3.1125 z"
         style="font-size:12.5px;line-height:1.25"
         id="path116" />
    </g>
    <g
       aria-label="left-right clock"
       id="text3766"
       style="line-height:0%;font-family:Iwona;-inkscape-font-specification:Iwona;text-align:center;letter-spacing:0px;word-spacing:0px;text-anchor:middle;stroke-width:1px">
      <path
         d="m 106.31366,105.86171 v -0.375 c -0.2375,0.2 -0.5125,0.3625 -0.825,0.3625 -0.4625,0 -0.55,-0.575 -0.55,-1.1125 v -7.1875 h -0.975 v 7.1875 c 0,0.8375 0.325,1.6875 1.0625,1.6875 0.475,0 0.925,-0.2375 1.2875,-0.5625 z"
         style="font-size:12.5px;line-height:1.25"
         id="path119" />
      <path
         d="m 112.08864,103.61171 v -0.125 c 0,-1.7625 -0.9625,-2.9375 -2.4125,-2.9375 -1.4625,0 -2.425,1.175 -2.425,2.9375 0,1.7625 0.9625,2.9375 2.425,2.9375 0.625,0 1.2375,-0.2 1.75,-0.5625 v -0.525 c -0.5875,0.375 -1.0625,0.5125 -1.75,0.5125 -1.0625,0 -1.325,-1.0125 -1.325,-2.2375 z m -1.1,-0.525 h -2.6375 c 0,-1 0.425,-2.0125 1.325,-2.0125 0.8875,0 1.3125,1.0125 1.3125,2.0125 z"
         style="font-size:12.5px;line-height:1.25"
         id="path121" />
      <path
         d="m 116.21362,98.36171 v -0.3875 c -0.375,-0.3125 -0.825,-0.55 -1.3125,-0.55 -0.725,0 -1.0625,0.85 -1.0625,1.6875 v 1.5625 h -0.875 v 0.525 h 0.875 v 5.1 h 0.975 v -5.1 h 0.875 v -0.525 h -0.875 v -1.5625 c 0,-0.5375 0.1,-1.1125 0.5625,-1.1125 0.3125,0 0.6,0.15 0.8375,0.3625 z"
         style="font-size:12.5px;line-height:1.25"
         id="path123" />
      <path
         d="m 119.58861,105.86171 v -0.375 c -0.2,0.2 -0.4375,0.3625 -0.725,0.3625 -0.45,0 -0.475,-0.5875 -0.475,-1.1125 v -3.5375 h 1.2 v -0.525 h -1.2 v -1.875 h -0.5875 c 0,1 -0.575,1.9375 -1.4875,1.9375 v 0.4625 h 1.1 v 3.5375 c 0,0.825 0.2625,1.6875 0.975,1.6875 0.4625,0 0.8625,-0.25 1.2,-0.5625 z"
         style="font-size:12.5px;line-height:1.25"
         id="path125" />
      <path
         d="m 124.45108,103.79921 v -0.625 h -4.1625 v 0.625 z"
         style="font-size:12.5px;line-height:1.25"
         id="path127" />
      <path
         d="m 129.03856,101.44921 v -0.775 c -0.1375,-0.05 -0.2875,-0.0875 -0.425,-0.0875 -0.7,0 -1.2625,0.4875 -1.7125,1.025 v -0.9375 h -0.975 v 5.625 h 0.975 v -4.1625 c 0.375,-0.4375 0.85,-0.8125 1.425,-0.8125 0.2375,0 0.4875,0.05 0.7125,0.125 z"
         style="font-size:12.5px;line-height:1.25"
         id="path129" />
      <path
         d="m 132.57605,105.86171 v -0.375 c -0.2375,0.2 -0.5125,0.3625 -0.825,0.3625 -0.4625,0 -0.55,-0.575 -0.55,-1.1125 v -4.0625 h -0.975 v 4.0625 c 0,0.8375 0.325,1.6875 1.0625,1.6875 0.475,0 0.925,-0.2375 1.2875,-0.5625 z m -1.25,-7.1375 c 0,-0.3375 -0.275,-0.6125 -0.6125,-0.6125 -0.3375,0 -0.6125,0.275 -0.6125,0.6125 0,0.3375 0.275,0.6125 0.6125,0.6125 0.3375,0 0.6125,-0.275 0.6125,-0.6125 z"
         style="font-size:12.5px;line-height:1.25"
         id="path131" />
      <path
         d="m 138.35104,107.04921 v -6.375 h -0.975 v 0.2125 c -0.4875,-0.2125 -1.0125,-0.3375 -1.5375,-0.3375 -1.5625,0 -2.325,1.25 -2.325,2.9375 0,1.6625 0.625,2.9375 2.1375,2.9375 0.6375,0 1.225,-0.2875 1.725,-0.6875 v 1.3125 c 0,0.8625 -0.475,1.675 -1.25,1.675 -0.6375,0 -1.275,-0.125 -1.875,-0.3375 v 0.3875 c 0.7,0.325 1.475,0.525 2.25,0.525 1.1,0 1.85,-1.075 1.85,-2.25 z m -0.975,-1.8375 c -0.375,0.375 -0.8375,0.6875 -1.375,0.6875 -1.1375,0 -1.3875,-1.1 -1.3875,-2.4125 0,-1.175 0.3625,-2.4125 1.3875,-2.4125 0.475,0 0.95,0.125 1.375,0.3375 z"
         style="font-size:12.5px;line-height:1.25"
         id="path133" />
      <path
         d="m 144.87603,106.29921 v -4.0625 c 0,-0.9125 -0.7,-1.6875 -1.6,-1.6875 -0.75,0 -1.4125,0.425 -1.95,0.95 v -3.95 h -0.975 v 8.75 h 0.975 v -4.4125 c 0.425,-0.425 0.95,-0.7625 1.5375,-0.7625 0.5875,0 1.0375,0.5125 1.0375,1.1125 v 4.0625 z"
         style="font-size:12.5px;line-height:1.25"
         id="path135" />
      <path
         d="m 149.46351,105.86171 v -0.375 c -0.2,0.2 -0.4375,0.3625 -0.725,0.3625 -0.45,0 -0.475,-0.5875 -0.475,-1.1125 v -3.5375 h 1.2 v -0.525 h -1.2 v -1.875 h -0.5875 c 0,1 -0.575,1.9375 -1.4875,1.9375 v 0.4625 h 1.1 v 3.5375 c 0,0.825 0.2625,1.6875 0.975,1.6875 0.4625,0 0.8625,-0.25 1.2,-0.5625 z"
         style="font-size:12.5px;line-height:1.25"
         id="path137" />
      <path
         d="m 159.05097,101.97421 v -0.525 c -0.4,-0.5625 -1.05,-0.9 -1.75,-0.9 -1.5625,0 -2.6125,1.175 -2.6125,2.9375 0,1.7625 1.05,2.9375 2.6125,2.9375 0.65,0 1.2625,-0.325 1.625,-0.8625 v -0.525 c -0.425,0.6375 -0.8625,0.8625 -1.625,0.8625 -0.9,0 -1.5125,-0.9625 -1.5125,-2.4125 0,-1.45 0.6125,-2.4125 1.5125,-2.4125 0.775,0 1.3,0.275 1.75,0.9 z"
         style="font-size:12.5px;line-height:1.25"
         id="path139" />
      <path
         d="m 162.71346,105.86171 v -0.375 c -0.2375,0.2 -0.5125,0.3625 -0.825,0.3625 -0.4625,0 -0.55,-0.575 -0.55,-1.1125 v -7.1875 h -0.975 v 7.1875 c 0,0.8375 0.325,1.6875 1.0625,1.6875 0.475,0 0.925,-0.2375 1.2875,-0.5625 z"
         style="font-size:12.5px;line-height:1.25"
         id="path141" />
      <path
         d="m 168.48843,103.48671 c 0,-1.9125 -0.85,-2.9375 -2.4125,-2.9375 -1.575,0 -2.425,1.025 -2.425,2.9375 0,1.9125 0.85,2.9375 2.425,2.9375 1.5625,0 2.4125,-1.025 2.4125,-2.9375 z m -1.1,0 c 0,1.5625 -0.4625,2.4125 -1.3125,2.4125 -0.8625,0 -1.325,-0.85 -1.325,-2.4125 0,-1.5625 0.4625,-2.4125 1.325,-2.4125 0.85,0 1.3125,0.85 1.3125,2.4125 z"
         style="font-size:12.5px;line-height:1.25"
         id="path143" />
      <path
         d="m 174.22593,101.97421 v -0.525 c -0.4,-0.5625 -1.05,-0.9 -1.75,-0.9 -1.5625,0 -2.6125,1.175 -2.6125,2.9375 0,1.7625 1.05,2.9375 2.6125,2.9375 0.65,0 1.2625,-0.325 1.625,-0.8625 v -0.525 c -0.425,0.6375 -0.8625,0.8625 -1.625,0.8625 -0.9,0 -1.5125,-0.9625 -1.5125,-2.4125 0,-1.45 0.6125,-2.4125 1.5125,-2.4125 0.775,0 1.3,0.275 1.75,0.9 z"
         style="font-size:12.5px;line-height:1.25"
         id="path145" />
      <path
         d="m 180.37592,106.29921 -2.9,-3.3375 2.8,-2.2875 h -0.775 l -2.9875,2.45 v -5.575 h -0.975 v 8.75 h 0.975 v -3.1125 l 2.7,3.1125 z"
         style="font-size:12.5px;line-height:1.25"
         id="path147" />
    </g>
    <path
       style="fill:none;fill-rule:evenodd;stroke:#000000;stroke-width:1px;stroke-linecap:butt;stroke-linejoin:miter;stroke-opacity:1"
       d="M 95.669291,60.23622 H 187.79528"
       id="path3770" />
    <path
       id="path3772"
       d="M 95.669291,85.03937 H 187.79528"
       style="fill:none;fill-rule:evenodd;stroke:#000000;stroke-width:1px;stroke-linecap:butt;stroke-linejoin:miter;stroke-opacity:1" />
    <path
       style="fill:none;fill-rule:evenodd;stroke:#000000;stroke-width:1px;stroke-linecap:butt;stroke-linejoin:miter;stroke-opacity:1"
       d="M 95.669291,109.84252 H 187.79528"
       id="path3774" />
  </g>
</svg>
