<?xml version="1.0" encoding="UTF-8" standalone="no"?>
<!-- Created with Inkscape (http://www.inkscape.org/) -->

<svg
   width="112.75631mm"
   height="45.546806mm"
   viewBox="0 0 399.53021 161.38631"
   id="svg2"
   version="1.1"
   xmlns="http://www.w3.org/2000/svg"
   xmlns:svg="http://www.w3.org/2000/svg"
   xmlns:rdf="http://www.w3.org/1999/02/22-rdf-syntax-ns#"
   xmlns:cc="http://creativecommons.org/ns#"
   xmlns:dc="http://purl.org/dc/elements/1.1/">
  <defs
     id="defs4" />
  <metadata
     id="metadata7">
    <rdf:RDF>
      <cc:Work
         rdf:about="">
        <dc:format>image/svg+xml</dc:format>
        <dc:type
           rdf:resource="http://purl.org/dc/dcmitype/StillImage" />
        <dc:title />
      </cc:Work>
    </rdf:RDF>
  </metadata>
  <g
     id="layer1"
     transform="translate(-11.109635,-144.77558)">
    <g
       aria-label="master_clk_o"
       id="text3758"
       style="line-height:0%;font-family:Iwona;-inkscape-font-specification:Iwona;letter-spacing:0px;word-spacing:0px;stroke-width:1px">
      <path
         d="m 330.26598,184.25194 v -4.0625 c 0,-0.875 -0.5125,-1.6875 -1.325,-1.6875 -0.7,0 -1.35,0.3625 -1.725,0.95 -0.2,-0.55 -0.625,-0.95 -1.2,-0.95 -0.65,0 -1.175,0.45 -1.6,0.95 v -0.825 h -0.975 v 5.625 h 0.975 v -4.425 c 0.3,-0.3875 0.675,-0.75 1.1625,-0.75 0.5125,0 0.7875,0.55 0.7875,1.1125 v 4.0625 h 0.975 v -4.0625 c 0,-0.15 -0.0125,-0.2875 -0.0375,-0.4375 0.3,-0.3875 0.7125,-0.675 1.2,-0.675 0.5125,0 0.7875,0.55 0.7875,1.1125 v 4.0625 z"
         style="font-size:12.5px;line-height:1.25"
         id="path48" />
      <path
         d="m 336.60346,184.25194 v -3.5 c 0,-1.175 -0.725,-2.25 -1.8125,-2.25 -0.8,0 -1.55,0.275 -2.225,0.7 v 0.3875 c 0.5625,-0.3125 1.1875,-0.5125 1.8375,-0.5125 0.775,0 1.225,0.825 1.225,1.675 v 0.225 c -0.4875,-0.2125 -1.0125,-0.3375 -1.5375,-0.3375 -1.3375,0 -2.325,0.6125 -2.325,1.875 0,1.2 0.875,1.8625 2.1375,1.8625 0.6375,0 1.225,-0.2875 1.725,-0.6875 v 0.5625 z m -0.975,-1.0875 c -0.375,0.375 -0.8375,0.6875 -1.375,0.6875 -0.8375,0 -1.3875,-0.5125 -1.3875,-1.3375 0,-0.7625 0.625,-1.35 1.3875,-1.35 0.475,0 0.95,0.125 1.375,0.3375 z"
         style="font-size:12.5px;line-height:1.25"
         id="path50" />
      <path
         d="m 342.40345,182.65194 c 0,-0.9875 -1.05,-1.5 -2.075,-1.75 -0.6,-0.15 -1.25,-0.4 -1.25,-0.9875 0,-0.5375 0.55,-0.8875 1.15,-0.8875 0.6625,0 1.325,0.2 1.875,0.5625 v -0.525 c -0.55,-0.3625 -1.2125,-0.5625 -1.875,-0.5625 -1.0875,0 -2.0875,0.6625 -2.0875,1.675 0,0.9125 1.0125,1.3375 1.975,1.575 0.6625,0.1625 1.35,0.5125 1.35,1.15 0,0.5875 -0.6,0.95 -1.2375,0.95 -0.775,0 -1.525,-0.1875 -2.1875,-0.5625 v 0.525 c 0.6625,0.375 1.4125,0.5625 2.1875,0.5625 1.125,0 2.175,-0.675 2.175,-1.725 z"
         style="font-size:12.5px;line-height:1.25"
         id="path52" />
      <path
         d="m 346.61593,183.81444 v -0.375 c -0.2,0.2 -0.4375,0.3625 -0.725,0.3625 -0.45,0 -0.475,-0.5875 -0.475,-1.1125 v -3.5375 h 1.2 v -0.525 h -1.2 v -1.875 h -0.5875 c 0,1 -0.575,1.9375 -1.4875,1.9375 v 0.4625 h 1.1 v 3.5375 c 0,0.825 0.2625,1.6875 0.975,1.6875 0.4625,0 0.8625,-0.25 1.2,-0.5625 z"
         style="font-size:12.5px;line-height:1.25"
         id="path54" />
      <path
         d="m 352.51592,181.56444 v -0.125 c 0,-1.7625 -0.9625,-2.9375 -2.4125,-2.9375 -1.4625,0 -2.425,1.175 -2.425,2.9375 0,1.7625 0.9625,2.9375 2.425,2.9375 0.625,0 1.2375,-0.2 1.75,-0.5625 v -0.525 c -0.5875,0.375 -1.0625,0.5125 -1.75,0.5125 -1.0625,0 -1.325,-1.0125 -1.325,-2.2375 z m -1.1,-0.525 h -2.6375 c 0,-1 0.425,-2.0125 1.325,-2.0125 0.8875,0 1.3125,1.0125 1.3125,2.0125 z"
         style="font-size:12.5px;line-height:1.25"
         id="path56" />
      <path
         d="m 357.2534,179.40194 v -0.775 c -0.1375,-0.05 -0.2875,-0.0875 -0.425,-0.0875 -0.7,0 -1.2625,0.4875 -1.7125,1.025 v -0.9375 h -0.975 v 5.625 h 0.975 v -4.1625 c 0.375,-0.4375 0.85,-0.8125 1.425,-0.8125 0.2375,0 0.4875,0.05 0.7125,0.125 z"
         style="font-size:12.5px;line-height:1.25"
         id="path58" />
      <path
         d="m 363.75339,185.68944 v -0.625 h -6.25 v 0.625 z"
         style="font-size:12.5px;line-height:1.25"
         id="path60" />
      <path
         d="m 368.80336,179.92694 v -0.525 c -0.4,-0.5625 -1.05,-0.9 -1.75,-0.9 -1.5625,0 -2.6125,1.175 -2.6125,2.9375 0,1.7625 1.05,2.9375 2.6125,2.9375 0.65,0 1.2625,-0.325 1.625,-0.8625 v -0.525 c -0.425,0.6375 -0.8625,0.8625 -1.625,0.8625 -0.9,0 -1.5125,-0.9625 -1.5125,-2.4125 0,-1.45 0.6125,-2.4125 1.5125,-2.4125 0.775,0 1.3,0.275 1.75,0.9 z"
         style="font-size:12.5px;line-height:1.25"
         id="path62" />
      <path
         d="m 372.46585,183.81444 v -0.375 c -0.2375,0.2 -0.5125,0.3625 -0.825,0.3625 -0.4625,0 -0.55,-0.575 -0.55,-1.1125 v -7.1875 h -0.975 v 7.1875 c 0,0.8375 0.325,1.6875 1.0625,1.6875 0.475,0 0.925,-0.2375 1.2875,-0.5625 z"
         style="font-size:12.5px;line-height:1.25"
         id="path64" />
      <path
         d="m 378.55333,184.25194 -2.9,-3.3375 2.8,-2.2875 h -0.775 l -2.9875,2.45 v -5.575 h -0.975 v 8.75 h 0.975 v -3.1125 l 2.7,3.1125 z"
         style="font-size:12.5px;line-height:1.25"
         id="path66" />
      <path
         d="m 384.92832,185.68944 v -0.625 h -6.25 v 0.625 z"
         style="font-size:12.5px;line-height:1.25"
         id="path68" />
      <path
         d="m 390.4533,181.43944 c 0,-1.9125 -0.85,-2.9375 -2.4125,-2.9375 -1.575,0 -2.425,1.025 -2.425,2.9375 0,1.9125 0.85,2.9375 2.425,2.9375 1.5625,0 2.4125,-1.025 2.4125,-2.9375 z m -1.1,0 c 0,1.5625 -0.4625,2.4125 -1.3125,2.4125 -0.8625,0 -1.325,-0.85 -1.325,-2.4125 0,-1.5625 0.4625,-2.4125 1.325,-2.4125 0.85,0 1.3125,0.85 1.3125,2.4125 z"
         style="font-size:12.5px;line-height:1.25"
         id="path70" />
    </g>
    <g
       aria-label="serial_clk_o"
       id="text3762"
       style="line-height:0%;font-family:Iwona;-inkscape-font-specification:Iwona;letter-spacing:0px;word-spacing:0px;stroke-width:1px">
      <path
         d="m 327.24098,207.4551 c 0,-0.9875 -1.05,-1.5 -2.075,-1.75 -0.6,-0.15 -1.25,-0.4 -1.25,-0.9875 0,-0.5375 0.55,-0.8875 1.15,-0.8875 0.6625,0 1.325,0.2 1.875,0.5625 v -0.525 c -0.55,-0.3625 -1.2125,-0.5625 -1.875,-0.5625 -1.0875,0 -2.0875,0.6625 -2.0875,1.675 0,0.9125 1.0125,1.3375 1.975,1.575 0.6625,0.1625 1.35,0.5125 1.35,1.15 0,0.5875 -0.6,0.95 -1.2375,0.95 -0.775,0 -1.525,-0.1875 -2.1875,-0.5625 v 0.525 c 0.6625,0.375 1.4125,0.5625 2.1875,0.5625 1.125,0 2.175,-0.675 2.175,-1.725 z"
         style="font-size:12.5px;line-height:1.25"
         id="path73" />
      <path
         d="m 333.32847,206.3676 v -0.125 c 0,-1.7625 -0.9625,-2.9375 -2.4125,-2.9375 -1.4625,0 -2.425,1.175 -2.425,2.9375 0,1.7625 0.9625,2.9375 2.425,2.9375 0.625,0 1.2375,-0.2 1.75,-0.5625 v -0.525 c -0.5875,0.375 -1.0625,0.5125 -1.75,0.5125 -1.0625,0 -1.325,-1.0125 -1.325,-2.2375 z m -1.1,-0.525 h -2.6375 c 0,-1 0.425,-2.0125 1.325,-2.0125 0.8875,0 1.3125,1.0125 1.3125,2.0125 z"
         style="font-size:12.5px;line-height:1.25"
         id="path75" />
      <path
         d="m 338.06595,204.2051 v -0.775 c -0.1375,-0.05 -0.2875,-0.0875 -0.425,-0.0875 -0.7,0 -1.2625,0.4875 -1.7125,1.025 v -0.9375 h -0.975 v 5.625 h 0.975 v -4.1625 c 0.375,-0.4375 0.85,-0.8125 1.425,-0.8125 0.2375,0 0.4875,0.05 0.7125,0.125 z"
         style="font-size:12.5px;line-height:1.25"
         id="path77" />
      <path
         d="m 341.60344,208.6176 v -0.375 c -0.2375,0.2 -0.5125,0.3625 -0.825,0.3625 -0.4625,0 -0.55,-0.575 -0.55,-1.1125 v -4.0625 h -0.975 v 4.0625 c 0,0.8375 0.325,1.6875 1.0625,1.6875 0.475,0 0.925,-0.2375 1.2875,-0.5625 z m -1.25,-7.1375 c 0,-0.3375 -0.275,-0.6125 -0.6125,-0.6125 -0.3375,0 -0.6125,0.275 -0.6125,0.6125 0,0.3375 0.275,0.6125 0.6125,0.6125 0.3375,0 0.6125,-0.275 0.6125,-0.6125 z"
         style="font-size:12.5px;line-height:1.25"
         id="path79" />
      <path
         d="m 347.25342,209.0551 v -3.5 c 0,-1.175 -0.725,-2.25 -1.8125,-2.25 -0.8,0 -1.55,0.275 -2.225,0.7 v 0.3875 c 0.5625,-0.3125 1.1875,-0.5125 1.8375,-0.5125 0.775,0 1.225,0.825 1.225,1.675 v 0.225 c -0.4875,-0.2125 -1.0125,-0.3375 -1.5375,-0.3375 -1.3375,0 -2.325,0.6125 -2.325,1.875 0,1.2 0.875,1.8625 2.1375,1.8625 0.6375,0 1.225,-0.2875 1.725,-0.6875 v 0.5625 z m -0.975,-1.0875 c -0.375,0.375 -0.8375,0.6875 -1.375,0.6875 -0.8375,0 -1.3875,-0.5125 -1.3875,-1.3375 0,-0.7625 0.625,-1.35 1.3875,-1.35 0.475,0 0.95,0.125 1.375,0.3375 z"
         style="font-size:12.5px;line-height:1.25"
         id="path81" />
      <path
         d="m 351.60341,208.6176 v -0.375 c -0.2375,0.2 -0.5125,0.3625 -0.825,0.3625 -0.4625,0 -0.55,-0.575 -0.55,-1.1125 v -7.1875 h -0.975 v 7.1875 c 0,0.8375 0.325,1.6875 1.0625,1.6875 0.475,0 0.925,-0.2375 1.2875,-0.5625 z"
         style="font-size:12.5px;line-height:1.25"
         id="path83" />
      <path
         d="m 358.10339,210.4926 v -0.625 h -6.25 v 0.625 z"
         style="font-size:12.5px;line-height:1.25"
         id="path85" />
      <path
         d="m 363.15337,204.7301 v -0.525 c -0.4,-0.5625 -1.05,-0.9 -1.75,-0.9 -1.5625,0 -2.6125,1.175 -2.6125,2.9375 0,1.7625 1.05,2.9375 2.6125,2.9375 0.65,0 1.2625,-0.325 1.625,-0.8625 v -0.525 c -0.425,0.6375 -0.8625,0.8625 -1.625,0.8625 -0.9,0 -1.5125,-0.9625 -1.5125,-2.4125 0,-1.45 0.6125,-2.4125 1.5125,-2.4125 0.775,0 1.3,0.275 1.75,0.9 z"
         style="font-size:12.5px;line-height:1.25"
         id="path87" />
      <path
         d="m 366.81585,208.6176 v -0.375 c -0.2375,0.2 -0.5125,0.3625 -0.825,0.3625 -0.4625,0 -0.55,-0.575 -0.55,-1.1125 v -7.1875 h -0.975 v 7.1875 c 0,0.8375 0.325,1.6875 1.0625,1.6875 0.475,0 0.925,-0.2375 1.2875,-0.5625 z"
         style="font-size:12.5px;line-height:1.25"
         id="path89" />
      <path
         d="m 372.90333,209.0551 -2.9,-3.3375 2.8,-2.2875 h -0.775 l -2.9875,2.45 v -5.575 h -0.975 v 8.75 h 0.975 v -3.1125 l 2.7,3.1125 z"
         style="font-size:12.5px;line-height:1.25"
         id="path91" />
      <path
         d="m 379.27832,210.4926 v -0.625 h -6.25 v 0.625 z"
         style="font-size:12.5px;line-height:1.25"
         id="path93" />
      <path
         d="m 384.8033,206.2426 c 0,-1.9125 -0.85,-2.9375 -2.4125,-2.9375 -1.575,0 -2.425,1.025 -2.425,2.9375 0,1.9125 0.85,2.9375 2.425,2.9375 1.5625,0 2.4125,-1.025 2.4125,-2.9375 z m -1.1,0 c 0,1.5625 -0.4625,2.4125 -1.3125,2.4125 -0.8625,0 -1.325,-0.85 -1.325,-2.4125 0,-1.5625 0.4625,-2.4125 1.325,-2.4125 0.85,0 1.3125,0.85 1.3125,2.4125 z"
         style="font-size:12.5px;line-height:1.25"
         id="path95" />
    </g>
    <path
       id="rect4180"
       style="opacity:1;fill:#afdde9;stroke:#000000;stroke-linecap:round;stroke-linejoin:bevel"
       d="M 95.669289,152.3622 H 304.72439 V 276.37794 H 95.669289 Z" />
    <path
       style="fill:#afdde9;fill-opacity:1;stroke:#000000;stroke-width:1px;stroke-linecap:butt;stroke-linejoin:miter;stroke-opacity:1"
       d="m 297.6378,173.62204 h 10.62992 l 7.08661,7.0866 -7.08661,7.08661 H 297.6378 Z"
       id="path4182" />
    <path
       id="path4184"
       d="m 297.63779,198.42518 h 10.62992 l 7.08661,7.0866 -7.08661,7.08661 h -10.62992 z"
       style="fill:#afdde9;fill-opacity:1;stroke:#000000;stroke-width:1px;stroke-linecap:butt;stroke-linejoin:miter;stroke-opacity:1" />
    <path
       style="fill:#afdde9;fill-opacity:1;stroke:#000000;stroke-width:1px;stroke-linecap:butt;stroke-linejoin:miter;stroke-opacity:1"
       d="m 173.62203,283.46455 v -10.62992 l 7.0866,-7.08661 7.08661,7.08661 v 10.62992 z"
       id="path4186" />
    <g
       aria-label="I2STransmitter"
       id="text4290"
       style="line-height:0%;font-family:Iwona;-inkscape-font-specification:Iwona;text-align:center;letter-spacing:0px;word-spacing:0px;text-anchor:middle;stroke-width:1px">
      <path
         d="m 163.22577,173.62204 v -8.75 h -1.025 v 8.75 z"
         style="font-size:12.5px;line-height:1.25"
         id="path99" />
      <path
         d="m 170.41326,173.62204 v -0.775 h -4.4125 l 2.3,-2.275 c 1.025,-1.025 1.9875,-2.225 1.9875,-3.675 0,-1.225 -1.2125,-2.025 -2.525,-2.025 -0.9875,0 -1.925,0.45 -2.5375,1.2125 v 0.525 c 0.6375,-0.7375 1.5625,-1.1625 2.5375,-1.1625 0.8375,0 1.55,0.625 1.55,1.45 0,1.2375 -0.575,2.3875 -1.425,3.275 l -2.7875,2.8625 v 0.5875 z"
         style="font-size:12.5px;line-height:1.25"
         id="path101" />
      <path
         d="m 178.37576,171.08454 c 0,-1.5375 -1.5625,-2.45 -3.175,-2.7875 -1.075,-0.225 -2.2875,-0.5 -2.2875,-1.5 0,-0.9875 1.0625,-1.55 2.1625,-1.55 1.0125,0 2,0.3 2.8,0.925 v -0.5 c -0.8,-0.625 -1.7875,-1 -2.8,-1 -1.625,0 -3.15,0.9125 -3.15,2.3875 0,1.4125 1.525,2.125 3.0125,2.4375 1.1875,0.25 2.45,0.7375 2.45,1.85 0,1.1375 -1.1125,1.9 -2.3125,1.9 -1.1625,0 -2.3125,-0.3 -3.2875,-0.925 v 0.5 c 0.9875,0.625 2.1125,1 3.2875,1 1.725,0 3.3,-1.1125 3.3,-2.7375 z"
         style="font-size:12.5px;line-height:1.25"
         id="path103" />
      <path
         d="m 186.02573,165.44704 v -0.575 h -6.875 v 0.575 h 2.925 v 8.175 h 1.025 v -8.175 z"
         style="font-size:12.5px;line-height:1.25"
         id="path105" />
      <path
         d="m 189.26321,168.77204 v -0.775 c -0.1375,-0.05 -0.2875,-0.0875 -0.425,-0.0875 -0.7,0 -1.2625,0.4875 -1.7125,1.025 v -0.9375 h -0.975 v 5.625 h 0.975 v -4.1625 c 0.375,-0.4375 0.85,-0.8125 1.425,-0.8125 0.2375,0 0.4875,0.05 0.7125,0.125 z"
         style="font-size:12.5px;line-height:1.25"
         id="path107" />
      <path
         d="m 194.76318,173.62204 v -3.5 c 0,-1.175 -0.725,-2.25 -1.8125,-2.25 -0.8,0 -1.55,0.275 -2.225,0.7 v 0.3875 c 0.5625,-0.3125 1.1875,-0.5125 1.8375,-0.5125 0.775,0 1.225,0.825 1.225,1.675 v 0.225 c -0.4875,-0.2125 -1.0125,-0.3375 -1.5375,-0.3375 -1.3375,0 -2.325,0.6125 -2.325,1.875 0,1.2 0.875,1.8625 2.1375,1.8625 0.6375,0 1.225,-0.2875 1.725,-0.6875 v 0.5625 z m -0.975,-1.0875 c -0.375,0.375 -0.8375,0.6875 -1.375,0.6875 -0.8375,0 -1.3875,-0.5125 -1.3875,-1.3375 0,-0.7625 0.625,-1.35 1.3875,-1.35 0.475,0 0.95,0.125 1.375,0.3375 z"
         style="font-size:12.5px;line-height:1.25"
         id="path109" />
      <path
         d="m 201.28817,173.62204 v -4.0625 c 0,-0.9125 -0.7,-1.6875 -1.6,-1.6875 -0.75,0 -1.4125,0.425 -1.95,0.95 v -0.825 h -0.975 v 5.625 h 0.975 v -4.4125 c 0.425,-0.425 0.95,-0.7625 1.5375,-0.7625 0.5875,0 1.0375,0.5125 1.0375,1.1125 v 4.0625 z"
         style="font-size:12.5px;line-height:1.25"
         id="path111" />
      <path
         d="m 207.02565,172.02204 c 0,-0.9875 -1.05,-1.5 -2.075,-1.75 -0.6,-0.15 -1.25,-0.4 -1.25,-0.9875 0,-0.5375 0.55,-0.8875 1.15,-0.8875 0.6625,0 1.325,0.2 1.875,0.5625 v -0.525 c -0.55,-0.3625 -1.2125,-0.5625 -1.875,-0.5625 -1.0875,0 -2.0875,0.6625 -2.0875,1.675 0,0.9125 1.0125,1.3375 1.975,1.575 0.6625,0.1625 1.35,0.5125 1.35,1.15 0,0.5875 -0.6,0.95 -1.2375,0.95 -0.775,0 -1.525,-0.1875 -2.1875,-0.5625 v 0.525 c 0.6625,0.375 1.4125,0.5625 2.1875,0.5625 1.125,0 2.175,-0.675 2.175,-1.725 z"
         style="font-size:12.5px;line-height:1.25"
         id="path113" />
      <path
         d="m 215.41313,173.62204 v -4.0625 c 0,-0.875 -0.5125,-1.6875 -1.325,-1.6875 -0.7,0 -1.35,0.3625 -1.725,0.95 -0.2,-0.55 -0.625,-0.95 -1.2,-0.95 -0.65,0 -1.175,0.45 -1.6,0.95 v -0.825 h -0.975 v 5.625 h 0.975 v -4.425 c 0.3,-0.3875 0.675,-0.75 1.1625,-0.75 0.5125,0 0.7875,0.55 0.7875,1.1125 v 4.0625 h 0.975 v -4.0625 c 0,-0.15 -0.0125,-0.2875 -0.0375,-0.4375 0.3,-0.3875 0.7125,-0.675 1.2,-0.675 0.5125,0 0.7875,0.55 0.7875,1.1125 v 4.0625 z"
         style="font-size:12.5px;line-height:1.25"
         id="path115" />
      <path
         d="m 219.63812,173.18454 v -0.375 c -0.2375,0.2 -0.5125,0.3625 -0.825,0.3625 -0.4625,0 -0.55,-0.575 -0.55,-1.1125 v -4.0625 h -0.975 v 4.0625 c 0,0.8375 0.325,1.6875 1.0625,1.6875 0.475,0 0.925,-0.2375 1.2875,-0.5625 z m -1.25,-7.1375 c 0,-0.3375 -0.275,-0.6125 -0.6125,-0.6125 -0.3375,0 -0.6125,0.275 -0.6125,0.6125 0,0.3375 0.275,0.6125 0.6125,0.6125 0.3375,0 0.6125,-0.275 0.6125,-0.6125 z"
         style="font-size:12.5px;line-height:1.25"
         id="path117" />
      <path
         d="m 223.5381,173.18454 v -0.375 c -0.2,0.2 -0.4375,0.3625 -0.725,0.3625 -0.45,0 -0.475,-0.5875 -0.475,-1.1125 v -3.5375 h 1.2 v -0.525 h -1.2 v -1.875 h -0.5875 c 0,1 -0.575,1.9375 -1.4875,1.9375 v 0.4625 h 1.1 v 3.5375 c 0,0.825 0.2625,1.6875 0.975,1.6875 0.4625,0 0.8625,-0.25 1.2,-0.5625 z"
         style="font-size:12.5px;line-height:1.25"
         id="path119" />
      <path
         d="m 227.56309,173.18454 v -0.375 c -0.2,0.2 -0.4375,0.3625 -0.725,0.3625 -0.45,0 -0.475,-0.5875 -0.475,-1.1125 v -3.5375 h 1.2 v -0.525 h -1.2 v -1.875 h -0.5875 c 0,1 -0.575,1.9375 -1.4875,1.9375 v 0.4625 h 1.1 v 3.5375 c 0,0.825 0.2625,1.6875 0.975,1.6875 0.4625,0 0.8625,-0.25 1.2,-0.5625 z"
         style="font-size:12.5px;line-height:1.25"
         id="path121" />
      <path
         d="m 233.46306,170.93454 v -0.125 c 0,-1.7625 -0.9625,-2.9375 -2.4125,-2.9375 -1.4625,0 -2.425,1.175 -2.425,2.9375 0,1.7625 0.9625,2.9375 2.425,2.9375 0.625,0 1.2375,-0.2 1.75,-0.5625 v -0.525 c -0.5875,0.375 -1.0625,0.5125 -1.75,0.5125 -1.0625,0 -1.325,-1.0125 -1.325,-2.2375 z m -1.1,-0.525 h -2.6375 c 0,-1 0.425,-2.0125 1.325,-2.0125 0.8875,0 1.3125,1.0125 1.3125,2.0125 z"
         style="font-size:12.5px;line-height:1.25"
         id="path123" />
      <path
         d="m 238.20055,168.77204 v -0.775 c -0.1375,-0.05 -0.2875,-0.0875 -0.425,-0.0875 -0.7,0 -1.2625,0.4875 -1.7125,1.025 v -0.9375 h -0.975 v 5.625 h 0.975 v -4.1625 c 0.375,-0.4375 0.85,-0.8125 1.425,-0.8125 0.2375,0 0.4875,0.05 0.7125,0.125 z"
         style="font-size:12.5px;line-height:1.25"
         id="path125" />
    </g>
    <path
       id="path4294"
       d="M 102.75591,248.03147 H 92.125982 l -7.086612,7.0866 7.086612,7.08662 h 10.629928 z"
       style="fill:#afdde9;fill-opacity:1;stroke:#000000;stroke-width:1px;stroke-linecap:butt;stroke-linejoin:miter;stroke-opacity:1" />
    <path
       id="path4298"
       d="m 212.59839,283.46455 v -10.62992 l 7.0866,-7.08661 7.08661,7.08661 v 10.62992 z"
       style="fill:#afdde9;fill-opacity:1;stroke:#000000;stroke-width:1px;stroke-linecap:butt;stroke-linejoin:miter;stroke-opacity:1" />
    <g
       aria-label="serial_data_o"
       id="text4433"
       style="line-height:0%;font-family:Iwona;-inkscape-font-specification:Iwona;letter-spacing:0px;word-spacing:0px;stroke-width:1px">
      <path
         d="m 327.24098,232.25823 c 0,-0.9875 -1.05,-1.5 -2.075,-1.75 -0.6,-0.15 -1.25,-0.4 -1.25,-0.9875 0,-0.5375 0.55,-0.8875 1.15,-0.8875 0.6625,0 1.325,0.2 1.875,0.5625 v -0.525 c -0.55,-0.3625 -1.2125,-0.5625 -1.875,-0.5625 -1.0875,0 -2.0875,0.6625 -2.0875,1.675 0,0.9125 1.0125,1.3375 1.975,1.575 0.6625,0.1625 1.35,0.5125 1.35,1.15 0,0.5875 -0.6,0.95 -1.2375,0.95 -0.775,0 -1.525,-0.1875 -2.1875,-0.5625 v 0.525 c 0.6625,0.375 1.4125,0.5625 2.1875,0.5625 1.125,0 2.175,-0.675 2.175,-1.725 z"
         style="font-size:12.5px;line-height:1.25"
         id="path128" />
      <path
         d="m 333.32847,231.17073 v -0.125 c 0,-1.7625 -0.9625,-2.9375 -2.4125,-2.9375 -1.4625,0 -2.425,1.175 -2.425,2.9375 0,1.7625 0.9625,2.9375 2.425,2.9375 0.625,0 1.2375,-0.2 1.75,-0.5625 v -0.525 c -0.5875,0.375 -1.0625,0.5125 -1.75,0.5125 -1.0625,0 -1.325,-1.0125 -1.325,-2.2375 z m -1.1,-0.525 h -2.6375 c 0,-1 0.425,-2.0125 1.325,-2.0125 0.8875,0 1.3125,1.0125 1.3125,2.0125 z"
         style="font-size:12.5px;line-height:1.25"
         id="path130" />
      <path
         d="m 338.06595,229.00823 v -0.775 c -0.1375,-0.05 -0.2875,-0.0875 -0.425,-0.0875 -0.7,0 -1.2625,0.4875 -1.7125,1.025 v -0.9375 h -0.975 v 5.625 h 0.975 v -4.1625 c 0.375,-0.4375 0.85,-0.8125 1.425,-0.8125 0.2375,0 0.4875,0.05 0.7125,0.125 z"
         style="font-size:12.5px;line-height:1.25"
         id="path132" />
      <path
         d="m 341.60344,233.42073 v -0.375 c -0.2375,0.2 -0.5125,0.3625 -0.825,0.3625 -0.4625,0 -0.55,-0.575 -0.55,-1.1125 v -4.0625 h -0.975 v 4.0625 c 0,0.8375 0.325,1.6875 1.0625,1.6875 0.475,0 0.925,-0.2375 1.2875,-0.5625 z m -1.25,-7.1375 c 0,-0.3375 -0.275,-0.6125 -0.6125,-0.6125 -0.3375,0 -0.6125,0.275 -0.6125,0.6125 0,0.3375 0.275,0.6125 0.6125,0.6125 0.3375,0 0.6125,-0.275 0.6125,-0.6125 z"
         style="font-size:12.5px;line-height:1.25"
         id="path134" />
      <path
         d="m 347.25342,233.85823 v -3.5 c 0,-1.175 -0.725,-2.25 -1.8125,-2.25 -0.8,0 -1.55,0.275 -2.225,0.7 v 0.3875 c 0.5625,-0.3125 1.1875,-0.5125 1.8375,-0.5125 0.775,0 1.225,0.825 1.225,1.675 v 0.225 c -0.4875,-0.2125 -1.0125,-0.3375 -1.5375,-0.3375 -1.3375,0 -2.325,0.6125 -2.325,1.875 0,1.2 0.875,1.8625 2.1375,1.8625 0.6375,0 1.225,-0.2875 1.725,-0.6875 v 0.5625 z m -0.975,-1.0875 c -0.375,0.375 -0.8375,0.6875 -1.375,0.6875 -0.8375,0 -1.3875,-0.5125 -1.3875,-1.3375 0,-0.7625 0.625,-1.35 1.3875,-1.35 0.475,0 0.95,0.125 1.375,0.3375 z"
         style="font-size:12.5px;line-height:1.25"
         id="path136" />
      <path
         d="m 351.60341,233.42073 v -0.375 c -0.2375,0.2 -0.5125,0.3625 -0.825,0.3625 -0.4625,0 -0.55,-0.575 -0.55,-1.1125 v -7.1875 h -0.975 v 7.1875 c 0,0.8375 0.325,1.6875 1.0625,1.6875 0.475,0 0.925,-0.2375 1.2875,-0.5625 z"
         style="font-size:12.5px;line-height:1.25"
         id="path138" />
      <path
         d="m 358.10339,235.29573 v -0.625 h -6.25 v 0.625 z"
         style="font-size:12.5px;line-height:1.25"
         id="path140" />
      <path
         d="m 363.62837,233.85823 v -8.75 h -0.975 v 3.3375 c -0.4875,-0.2125 -1.0125,-0.3375 -1.5375,-0.3375 -1.5625,0 -2.325,1.25 -2.325,2.9375 0,1.6625 0.625,2.9375 2.1375,2.9375 0.6375,0 1.225,-0.2875 1.725,-0.6875 v 0.5625 z m -0.975,-1.0875 c -0.375,0.375 -0.8375,0.6875 -1.375,0.6875 -1.1375,0 -1.3875,-1.1 -1.3875,-2.4125 0,-1.175 0.3625,-2.4125 1.3875,-2.4125 0.475,0 0.95,0.125 1.375,0.3375 z"
         style="font-size:12.5px;line-height:1.25"
         id="path142" />
      <path
         d="m 370.02836,233.85823 v -3.5 c 0,-1.175 -0.725,-2.25 -1.8125,-2.25 -0.8,0 -1.55,0.275 -2.225,0.7 v 0.3875 c 0.5625,-0.3125 1.1875,-0.5125 1.8375,-0.5125 0.775,0 1.225,0.825 1.225,1.675 v 0.225 c -0.4875,-0.2125 -1.0125,-0.3375 -1.5375,-0.3375 -1.3375,0 -2.325,0.6125 -2.325,1.875 0,1.2 0.875,1.8625 2.1375,1.8625 0.6375,0 1.225,-0.2875 1.725,-0.6875 v 0.5625 z m -0.975,-1.0875 c -0.375,0.375 -0.8375,0.6875 -1.375,0.6875 -0.8375,0 -1.3875,-0.5125 -1.3875,-1.3375 0,-0.7625 0.625,-1.35 1.3875,-1.35 0.475,0 0.95,0.125 1.375,0.3375 z"
         style="font-size:12.5px;line-height:1.25"
         id="path144" />
      <path
         d="m 374.67835,233.42073 v -0.375 c -0.2,0.2 -0.4375,0.3625 -0.725,0.3625 -0.45,0 -0.475,-0.5875 -0.475,-1.1125 v -3.5375 h 1.2 v -0.525 h -1.2 v -1.875 h -0.5875 c 0,1 -0.575,1.9375 -1.4875,1.9375 v 0.4625 h 1.1 v 3.5375 c 0,0.825 0.2625,1.6875 0.975,1.6875 0.4625,0 0.8625,-0.25 1.2,-0.5625 z"
         style="font-size:12.5px;line-height:1.25"
         id="path146" />
      <path
         d="m 380.45333,233.85823 v -3.5 c 0,-1.175 -0.725,-2.25 -1.8125,-2.25 -0.8,0 -1.55,0.275 -2.225,0.7 v 0.3875 c 0.5625,-0.3125 1.1875,-0.5125 1.8375,-0.5125 0.775,0 1.225,0.825 1.225,1.675 v 0.225 c -0.4875,-0.2125 -1.0125,-0.3375 -1.5375,-0.3375 -1.3375,0 -2.325,0.6125 -2.325,1.875 0,1.2 0.875,1.8625 2.1375,1.8625 0.6375,0 1.225,-0.2875 1.725,-0.6875 v 0.5625 z m -0.975,-1.0875 c -0.375,0.375 -0.8375,0.6875 -1.375,0.6875 -0.8375,0 -1.3875,-0.5125 -1.3875,-1.3375 0,-0.7625 0.625,-1.35 1.3875,-1.35 0.475,0 0.95,0.125 1.375,0.3375 z"
         style="font-size:12.5px;line-height:1.25"
         id="path148" />
      <path
         d="m 387.70332,235.29573 v -0.625 h -6.25 v 0.625 z"
         style="font-size:12.5px;line-height:1.25"
         id="path150" />
      <path
         d="m 393.22829,231.04573 c 0,-1.9125 -0.85,-2.9375 -2.4125,-2.9375 -1.575,0 -2.425,1.025 -2.425,2.9375 0,1.9125 0.85,2.9375 2.425,2.9375 1.5625,0 2.4125,-1.025 2.4125,-2.9375 z m -1.1,0 c 0,1.5625 -0.4625,2.4125 -1.3125,2.4125 -0.8625,0 -1.325,-0.85 -1.325,-2.4125 0,-1.5625 0.4625,-2.4125 1.325,-2.4125 0.85,0 1.3125,0.85 1.3125,2.4125 z"
         style="font-size:12.5px;line-height:1.25"
         id="path152" />
    </g>
    <path
       id="path4437"
       d="m 297.63779,223.22833 h 10.62992 l 7.08661,7.08661 -7.08661,7.08661 h -10.62992 z"
       style="fill:#afdde9;fill-opacity:1;stroke:#000000;stroke-width:1px;stroke-linecap:butt;stroke-linejoin:miter;stroke-opacity:1" />
    <g
       aria-label="left_right_clk_o"
       id="text4439"
       style="line-height:0%;font-family:Iwona;-inkscape-font-specification:Iwona;letter-spacing:0px;word-spacing:0px;stroke-width:1px">
      <path
         d="m 325.79098,258.22391 v -0.375 c -0.2375,0.2 -0.5125,0.3625 -0.825,0.3625 -0.4625,0 -0.55,-0.575 -0.55,-1.1125 v -7.1875 h -0.975 v 7.1875 c 0,0.8375 0.325,1.6875 1.0625,1.6875 0.475,0 0.925,-0.2375 1.2875,-0.5625 z"
         style="font-size:12.5px;line-height:1.25"
         id="path155" />
      <path
         d="m 331.56596,255.97391 v -0.125 c 0,-1.7625 -0.9625,-2.9375 -2.4125,-2.9375 -1.4625,0 -2.425,1.175 -2.425,2.9375 0,1.7625 0.9625,2.9375 2.425,2.9375 0.625,0 1.2375,-0.2 1.75,-0.5625 v -0.525 c -0.5875,0.375 -1.0625,0.5125 -1.75,0.5125 -1.0625,0 -1.325,-1.0125 -1.325,-2.2375 z m -1.1,-0.525 h -2.6375 c 0,-1 0.425,-2.0125 1.325,-2.0125 0.8875,0 1.3125,1.0125 1.3125,2.0125 z"
         style="font-size:12.5px;line-height:1.25"
         id="path157" />
      <path
         d="m 335.69094,250.72391 v -0.3875 c -0.375,-0.3125 -0.825,-0.55 -1.3125,-0.55 -0.725,0 -1.0625,0.85 -1.0625,1.6875 v 1.5625 h -0.875 v 0.525 h 0.875 v 5.1 h 0.975 v -5.1 h 0.875 v -0.525 h -0.875 v -1.5625 c 0,-0.5375 0.1,-1.1125 0.5625,-1.1125 0.3125,0 0.6,0.15 0.8375,0.3625 z"
         style="font-size:12.5px;line-height:1.25"
         id="path159" />
      <path
         d="m 339.06593,258.22391 v -0.375 c -0.2,0.2 -0.4375,0.3625 -0.725,0.3625 -0.45,0 -0.475,-0.5875 -0.475,-1.1125 v -3.5375 h 1.2 v -0.525 h -1.2 v -1.875 h -0.5875 c 0,1 -0.575,1.9375 -1.4875,1.9375 v 0.4625 h 1.1 v 3.5375 c 0,0.825 0.2625,1.6875 0.975,1.6875 0.4625,0 0.8625,-0.25 1.2,-0.5625 z"
         style="font-size:12.5px;line-height:1.25"
         id="path161" />
      <path
         d="m 345.69091,260.09891 v -0.625 h -6.25 v 0.625 z"
         style="font-size:12.5px;line-height:1.25"
         id="path163" />
      <path
         d="m 349.80339,253.81141 v -0.775 c -0.1375,-0.05 -0.2875,-0.0875 -0.425,-0.0875 -0.7,0 -1.2625,0.4875 -1.7125,1.025 v -0.9375 h -0.975 v 5.625 h 0.975 v -4.1625 c 0.375,-0.4375 0.85,-0.8125 1.425,-0.8125 0.2375,0 0.4875,0.05 0.7125,0.125 z"
         style="font-size:12.5px;line-height:1.25"
         id="path165" />
      <path
         d="m 353.34088,258.22391 v -0.375 c -0.2375,0.2 -0.5125,0.3625 -0.825,0.3625 -0.4625,0 -0.55,-0.575 -0.55,-1.1125 v -4.0625 h -0.975 v 4.0625 c 0,0.8375 0.325,1.6875 1.0625,1.6875 0.475,0 0.925,-0.2375 1.2875,-0.5625 z m -1.25,-7.1375 c 0,-0.3375 -0.275,-0.6125 -0.6125,-0.6125 -0.3375,0 -0.6125,0.275 -0.6125,0.6125 0,0.3375 0.275,0.6125 0.6125,0.6125 0.3375,0 0.6125,-0.275 0.6125,-0.6125 z"
         style="font-size:12.5px;line-height:1.25"
         id="path167" />
      <path
         d="m 359.11587,259.41141 v -6.375 h -0.975 v 0.2125 c -0.4875,-0.2125 -1.0125,-0.3375 -1.5375,-0.3375 -1.5625,0 -2.325,1.25 -2.325,2.9375 0,1.6625 0.625,2.9375 2.1375,2.9375 0.6375,0 1.225,-0.2875 1.725,-0.6875 v 1.3125 c 0,0.8625 -0.475,1.675 -1.25,1.675 -0.6375,0 -1.275,-0.125 -1.875,-0.3375 v 0.3875 c 0.7,0.325 1.475,0.525 2.25,0.525 1.1,0 1.85,-1.075 1.85,-2.25 z m -0.975,-1.8375 c -0.375,0.375 -0.8375,0.6875 -1.375,0.6875 -1.1375,0 -1.3875,-1.1 -1.3875,-2.4125 0,-1.175 0.3625,-2.4125 1.3875,-2.4125 0.475,0 0.95,0.125 1.375,0.3375 z"
         style="font-size:12.5px;line-height:1.25"
         id="path169" />
      <path
         d="m 365.64086,258.66141 v -4.0625 c 0,-0.9125 -0.7,-1.6875 -1.6,-1.6875 -0.75,0 -1.4125,0.425 -1.95,0.95 v -3.95 h -0.975 v 8.75 h 0.975 v -4.4125 c 0.425,-0.425 0.95,-0.7625 1.5375,-0.7625 0.5875,0 1.0375,0.5125 1.0375,1.1125 v 4.0625 z"
         style="font-size:12.5px;line-height:1.25"
         id="path171" />
      <path
         d="m 370.22834,258.22391 v -0.375 c -0.2,0.2 -0.4375,0.3625 -0.725,0.3625 -0.45,0 -0.475,-0.5875 -0.475,-1.1125 v -3.5375 h 1.2 v -0.525 h -1.2 v -1.875 h -0.5875 c 0,1 -0.575,1.9375 -1.4875,1.9375 v 0.4625 h 1.1 v 3.5375 c 0,0.825 0.2625,1.6875 0.975,1.6875 0.4625,0 0.8625,-0.25 1.2,-0.5625 z"
         style="font-size:12.5px;line-height:1.25"
         id="path173" />
      <path
         d="m 376.85332,260.09891 v -0.625 h -6.25 v 0.625 z"
         style="font-size:12.5px;line-height:1.25"
         id="path175" />
      <path
         d="m 381.90329,254.33641 v -0.525 c -0.4,-0.5625 -1.05,-0.9 -1.75,-0.9 -1.5625,0 -2.6125,1.175 -2.6125,2.9375 0,1.7625 1.05,2.9375 2.6125,2.9375 0.65,0 1.2625,-0.325 1.625,-0.8625 v -0.525 c -0.425,0.6375 -0.8625,0.8625 -1.625,0.8625 -0.9,0 -1.5125,-0.9625 -1.5125,-2.4125 0,-1.45 0.6125,-2.4125 1.5125,-2.4125 0.775,0 1.3,0.275 1.75,0.9 z"
         style="font-size:12.5px;line-height:1.25"
         id="path177" />
      <path
         d="m 385.56578,258.22391 v -0.375 c -0.2375,0.2 -0.5125,0.3625 -0.825,0.3625 -0.4625,0 -0.55,-0.575 -0.55,-1.1125 v -7.1875 h -0.975 v 7.1875 c 0,0.8375 0.325,1.6875 1.0625,1.6875 0.475,0 0.925,-0.2375 1.2875,-0.5625 z"
         style="font-size:12.5px;line-height:1.25"
         id="path179" />
      <path
         d="m 391.65326,258.66141 -2.9,-3.3375 2.8,-2.2875 h -0.775 l -2.9875,2.45 v -5.575 h -0.975 v 8.75 h 0.975 v -3.1125 l 2.7,3.1125 z"
         style="font-size:12.5px;line-height:1.25"
         id="path181" />
      <path
         d="m 398.02825,260.09891 v -0.625 h -6.25 v 0.625 z"
         style="font-size:12.5px;line-height:1.25"
         id="path183" />
      <path
         d="m 403.55323,255.84891 c 0,-1.9125 -0.85,-2.9375 -2.4125,-2.9375 -1.575,0 -2.425,1.025 -2.425,2.9375 0,1.9125 0.85,2.9375 2.425,2.9375 1.5625,0 2.4125,-1.025 2.4125,-2.9375 z m -1.1,0 c 0,1.5625 -0.4625,2.4125 -1.3125,2.4125 -0.8625,0 -1.325,-0.85 -1.325,-2.4125 0,-1.5625 0.4625,-2.4125 1.325,-2.4125 0.85,0 1.3125,0.85 1.3125,2.4125 z"
         style="font-size:12.5px;line-height:1.25"
         id="path185" />
    </g>
    <path
       style="fill:#afdde9;fill-opacity:1;stroke:#000000;stroke-width:1px;stroke-linecap:butt;stroke-linejoin:miter;stroke-opacity:1"
       d="m 297.63779,248.03151 h 10.62992 l 7.08661,7.0866 -7.08661,7.08661 h -10.62992 z"
       id="path4443" />
    <path
       style="fill:#afdde9;fill-opacity:1;stroke:#000000;stroke-width:1px;stroke-linecap:butt;stroke-linejoin:miter;stroke-opacity:1"
       d="m 88.582678,198.42517 h 10.62992 l 7.086612,7.0866 -7.086612,7.08662 h -10.62992 z"
       id="path4445" />
    <path
       style="fill:#afdde9;fill-opacity:1;stroke:#000000;stroke-width:1px;stroke-linecap:butt;stroke-linejoin:miter;stroke-opacity:1"
       d="m 88.582678,173.62203 h 10.62992 l 7.086612,7.0866 -7.086612,7.08661 h -10.62992 z"
       id="path4447" />
    <g
       aria-label="clk_i"
       id="text4449"
       style="line-height:0%;font-family:Iwona;-inkscape-font-specification:Iwona;text-align:center;letter-spacing:0px;word-spacing:0px;text-anchor:middle;stroke-width:1px">
      <path
         d="m 173.40242,293.31279 v -0.525 c -0.4,-0.5625 -1.05,-0.9 -1.75,-0.9 -1.5625,0 -2.6125,1.175 -2.6125,2.9375 0,1.7625 1.05,2.9375 2.6125,2.9375 0.65,0 1.2625,-0.325 1.625,-0.8625 v -0.525 c -0.425,0.6375 -0.8625,0.8625 -1.625,0.8625 -0.9,0 -1.5125,-0.9625 -1.5125,-2.4125 0,-1.45 0.6125,-2.4125 1.5125,-2.4125 0.775,0 1.3,0.275 1.75,0.9 z"
         style="font-size:12.5px;line-height:1.25"
         id="path188" />
      <path
         d="m 177.06491,297.20029 v -0.375 c -0.2375,0.2 -0.5125,0.3625 -0.825,0.3625 -0.4625,0 -0.55,-0.575 -0.55,-1.1125 v -7.1875 h -0.975 v 7.1875 c 0,0.8375 0.325,1.6875 1.0625,1.6875 0.475,0 0.925,-0.2375 1.2875,-0.5625 z"
         style="font-size:12.5px;line-height:1.25"
         id="path190" />
      <path
         d="m 183.15239,297.63779 -2.9,-3.3375 2.8,-2.2875 h -0.775 l -2.9875,2.45 v -5.575 h -0.975 v 8.75 h 0.975 v -3.1125 l 2.7,3.1125 z"
         style="font-size:12.5px;line-height:1.25"
         id="path192" />
      <path
         d="m 189.52738,299.07529 v -0.625 h -6.25 v 0.625 z"
         style="font-size:12.5px;line-height:1.25"
         id="path194" />
      <path
         d="m 192.81485,297.20029 v -0.375 c -0.2375,0.2 -0.5125,0.3625 -0.825,0.3625 -0.4625,0 -0.55,-0.575 -0.55,-1.1125 v -4.0625 h -0.975 v 4.0625 c 0,0.8375 0.325,1.6875 1.0625,1.6875 0.475,0 0.925,-0.2375 1.2875,-0.5625 z m -1.25,-7.1375 c 0,-0.3375 -0.275,-0.6125 -0.6125,-0.6125 -0.3375,0 -0.6125,0.275 -0.6125,0.6125 0,0.3375 0.275,0.6125 0.6125,0.6125 0.3375,0 0.6125,-0.275 0.6125,-0.6125 z"
         style="font-size:12.5px;line-height:1.25"
         id="path196" />
    </g>
    <g
       aria-label="reset_i"
       id="text4453"
       style="line-height:0%;font-family:Iwona;-inkscape-font-specification:Iwona;text-align:center;letter-spacing:0px;word-spacing:0px;text-anchor:middle;stroke-width:1px">
      <path
         d="m 205.87879,292.78779 v -0.775 c -0.1375,-0.05 -0.2875,-0.0875 -0.425,-0.0875 -0.7,0 -1.2625,0.4875 -1.7125,1.025 v -0.9375 h -0.975 v 5.625 h 0.975 v -4.1625 c 0.375,-0.4375 0.85,-0.8125 1.425,-0.8125 0.2375,0 0.4875,0.05 0.7125,0.125 z"
         style="font-size:12.5px;line-height:1.25"
         id="path199" />
      <path
         d="m 211.65378,294.95029 v -0.125 c 0,-1.7625 -0.9625,-2.9375 -2.4125,-2.9375 -1.4625,0 -2.425,1.175 -2.425,2.9375 0,1.7625 0.9625,2.9375 2.425,2.9375 0.625,0 1.2375,-0.2 1.75,-0.5625 v -0.525 c -0.5875,0.375 -1.0625,0.5125 -1.75,0.5125 -1.0625,0 -1.325,-1.0125 -1.325,-2.2375 z m -1.1,-0.525 h -2.6375 c 0,-1 0.425,-2.0125 1.325,-2.0125 0.8875,0 1.3125,1.0125 1.3125,2.0125 z"
         style="font-size:12.5px;line-height:1.25"
         id="path201" />
      <path
         d="m 217.07876,296.03779 c 0,-0.9875 -1.05,-1.5 -2.075,-1.75 -0.6,-0.15 -1.25,-0.4 -1.25,-0.9875 0,-0.5375 0.55,-0.8875 1.15,-0.8875 0.6625,0 1.325,0.2 1.875,0.5625 v -0.525 c -0.55,-0.3625 -1.2125,-0.5625 -1.875,-0.5625 -1.0875,0 -2.0875,0.6625 -2.0875,1.675 0,0.9125 1.0125,1.3375 1.975,1.575 0.6625,0.1625 1.35,0.5125 1.35,1.15 0,0.5875 -0.6,0.95 -1.2375,0.95 -0.775,0 -1.525,-0.1875 -2.1875,-0.5625 v 0.525 c 0.6625,0.375 1.4125,0.5625 2.1875,0.5625 1.125,0 2.175,-0.675 2.175,-1.725 z"
         style="font-size:12.5px;line-height:1.25"
         id="path203" />
      <path
         d="m 223.16625,294.95029 v -0.125 c 0,-1.7625 -0.9625,-2.9375 -2.4125,-2.9375 -1.4625,0 -2.425,1.175 -2.425,2.9375 0,1.7625 0.9625,2.9375 2.425,2.9375 0.625,0 1.2375,-0.2 1.75,-0.5625 v -0.525 c -0.5875,0.375 -1.0625,0.5125 -1.75,0.5125 -1.0625,0 -1.325,-1.0125 -1.325,-2.2375 z m -1.1,-0.525 h -2.6375 c 0,-1 0.425,-2.0125 1.325,-2.0125 0.8875,0 1.3125,1.0125 1.3125,2.0125 z"
         style="font-size:12.5px;line-height:1.25"
         id="path205" />
      <path
         d="m 227.44123,297.20029 v -0.375 c -0.2,0.2 -0.4375,0.3625 -0.725,0.3625 -0.45,0 -0.475,-0.5875 -0.475,-1.1125 v -3.5375 h 1.2 v -0.525 h -1.2 v -1.875 h -0.5875 c 0,1 -0.575,1.9375 -1.4875,1.9375 v 0.4625 h 1.1 v 3.5375 c 0,0.825 0.2625,1.6875 0.975,1.6875 0.4625,0 0.8625,-0.25 1.2,-0.5625 z"
         style="font-size:12.5px;line-height:1.25"
         id="path207" />
      <path
         d="m 234.06621,299.07529 v -0.625 h -6.25 v 0.625 z"
         style="font-size:12.5px;line-height:1.25"
         id="path209" />
      <path
         d="m 237.35369,297.20029 v -0.375 c -0.2375,0.2 -0.5125,0.3625 -0.825,0.3625 -0.4625,0 -0.55,-0.575 -0.55,-1.1125 v -4.0625 h -0.975 v 4.0625 c 0,0.8375 0.325,1.6875 1.0625,1.6875 0.475,0 0.925,-0.2375 1.2875,-0.5625 z m -1.25,-7.1375 c 0,-0.3375 -0.275,-0.6125 -0.6125,-0.6125 -0.3375,0 -0.6125,0.275 -0.6125,0.6125 0,0.3375 0.275,0.6125 0.6125,0.6125 0.3375,0 0.6125,-0.275 0.6125,-0.6125 z"
         style="font-size:12.5px;line-height:1.25"
         id="path211" />
    </g>
    <g
       aria-label="ready_o"
       id="text4457"
       style="line-height:0%;font-family:Iwona;-inkscape-font-specification:Iwona;text-align:end;letter-spacing:0px;word-spacing:0px;text-anchor:end;stroke-width:1px">
      <path
         d="m 43.246167,253.81138 v -0.775 c -0.1375,-0.05 -0.2875,-0.0875 -0.425,-0.0875 -0.7,0 -1.2625,0.4875 -1.7125,1.025 v -0.9375 h -0.975 v 5.625 h 0.975 v -4.1625 c 0.375,-0.4375 0.85,-0.8125 1.425,-0.8125 0.2375,0 0.4875,0.05 0.7125,0.125 z"
         style="font-size:12.5px;line-height:1.25"
         id="path214" />
      <path
         d="m 49.021155,255.97388 v -0.125 c 0,-1.7625 -0.9625,-2.9375 -2.4125,-2.9375 -1.4625,0 -2.425,1.175 -2.425,2.9375 0,1.7625 0.9625,2.9375 2.425,2.9375 0.625,0 1.2375,-0.2 1.75,-0.5625 v -0.525 c -0.5875,0.375 -1.0625,0.5125 -1.75,0.5125 -1.0625,0 -1.325,-1.0125 -1.325,-2.2375 z m -1.1,-0.525 h -2.6375 c 0,-1 0.425,-2.0125 1.325,-2.0125 0.8875,0 1.3125,1.0125 1.3125,2.0125 z"
         style="font-size:12.5px;line-height:1.25"
         id="path216" />
      <path
         d="m 55.046138,258.66138 v -3.5 c 0,-1.175 -0.725,-2.25 -1.8125,-2.25 -0.8,0 -1.55,0.275 -2.225,0.7 v 0.3875 c 0.5625,-0.3125 1.1875,-0.5125 1.8375,-0.5125 0.775,0 1.225,0.825 1.225,1.675 v 0.225 c -0.4875,-0.2125 -1.0125,-0.3375 -1.5375,-0.3375 -1.3375,0 -2.325,0.6125 -2.325,1.875 0,1.2 0.875,1.8625 2.1375,1.8625 0.6375,0 1.225,-0.2875 1.725,-0.6875 v 0.5625 z m -0.975,-1.0875 c -0.375,0.375 -0.8375,0.6875 -1.375,0.6875 -0.8375,0 -1.3875,-0.5125 -1.3875,-1.3375 0,-0.7625 0.625,-1.35 1.3875,-1.35 0.475,0 0.95,0.125 1.375,0.3375 z"
         style="font-size:12.5px;line-height:1.25"
         id="path218" />
      <path
         d="m 61.571127,258.66138 v -8.75 h -0.975 v 3.3375 c -0.4875,-0.2125 -1.0125,-0.3375 -1.5375,-0.3375 -1.5625,0 -2.325,1.25 -2.325,2.9375 0,1.6625 0.625,2.9375 2.1375,2.9375 0.6375,0 1.225,-0.2875 1.725,-0.6875 v 0.5625 z m -0.975,-1.0875 c -0.375,0.375 -0.8375,0.6875 -1.375,0.6875 -1.1375,0 -1.3875,-1.1 -1.3875,-2.4125 0,-1.175 0.3625,-2.4125 1.3875,-2.4125 0.475,0 0.95,0.125 1.375,0.3375 z"
         style="font-size:12.5px;line-height:1.25"
         id="path220" />
      <path
         d="m 68.033619,259.41138 v -6.375 h -0.975 v 4.4125 c -0.425,0.425 -0.95,0.7625 -1.5375,0.7625 -0.5875,0 -1.0375,-0.5125 -1.0375,-1.1125 v -4.0625 h -0.975 v 4.0625 c 0,0.9125 0.7,1.6875 1.6,1.6875 0.75,0 1.4125,-0.425 1.95,-0.95 v 1.575 c 0,0.8375 -0.375,1.675 -1.125,1.675 -0.5875,0 -1.15,-0.125 -1.6875,-0.3375 v 0.3875 c 0.6375,0.325 1.35,0.525 2.075,0.525 1.0625,0 1.7125,-1.1 1.7125,-2.25 z"
         style="font-size:12.5px;line-height:1.25"
         id="path222" />
      <path
         d="m 75.283598,260.09888 v -0.625 h -6.25 v 0.625 z"
         style="font-size:12.5px;line-height:1.25"
         id="path224" />
      <path
         d="m 80.808573,255.84888 c 0,-1.9125 -0.85,-2.9375 -2.4125,-2.9375 -1.575,0 -2.425,1.025 -2.425,2.9375 0,1.9125 0.85,2.9375 2.425,2.9375 1.5625,0 2.4125,-1.025 2.4125,-2.9375 z m -1.1,0 c 0,1.5625 -0.4625,2.4125 -1.3125,2.4125 -0.8625,0 -1.325,-0.85 -1.325,-2.4125 0,-1.5625 0.4625,-2.4125 1.325,-2.4125 0.85,0 1.3125,0.85 1.3125,2.4125 z"
         style="font-size:12.5px;line-height:1.25"
         id="path226" />
    </g>
    <g
       aria-label="left_data_i"
       id="text4461"
       style="line-height:0%;font-family:Iwona;-inkscape-font-specification:Iwona;text-align:end;letter-spacing:0px;word-spacing:0px;text-anchor:end;stroke-width:1px">
      <path
         d="m 28.458742,183.81442 v -0.375 c -0.2375,0.2 -0.5125,0.3625 -0.825,0.3625 -0.4625,0 -0.55,-0.575 -0.55,-1.1125 v -7.1875 h -0.975 v 7.1875 c 0,0.8375 0.325,1.6875 1.0625,1.6875 0.475,0 0.925,-0.2375 1.2875,-0.5625 z"
         style="font-size:12.5px;line-height:1.25"
         id="path229" />
      <path
         d="m 34.233719,181.56442 v -0.125 c 0,-1.7625 -0.9625,-2.9375 -2.4125,-2.9375 -1.4625,0 -2.425,1.175 -2.425,2.9375 0,1.7625 0.9625,2.9375 2.425,2.9375 0.625,0 1.2375,-0.2 1.75,-0.5625 v -0.525 c -0.5875,0.375 -1.0625,0.5125 -1.75,0.5125 -1.0625,0 -1.325,-1.0125 -1.325,-2.2375 z m -1.1,-0.525 h -2.6375 c 0,-1 0.425,-2.0125 1.325,-2.0125 0.8875,0 1.3125,1.0125 1.3125,2.0125 z"
         style="font-size:12.5px;line-height:1.25"
         id="path231" />
      <path
         d="m 38.358703,176.31442 v -0.3875 c -0.375,-0.3125 -0.825,-0.55 -1.3125,-0.55 -0.725,0 -1.0625,0.85 -1.0625,1.6875 v 1.5625 h -0.875 v 0.525 h 0.875 v 5.1 h 0.975 v -5.1 h 0.875 v -0.525 h -0.875 v -1.5625 c 0,-0.5375 0.1,-1.1125 0.5625,-1.1125 0.3125,0 0.6,0.15 0.8375,0.3625 z"
         style="font-size:12.5px;line-height:1.25"
         id="path233" />
      <path
         d="m 41.733695,183.81442 v -0.375 c -0.2,0.2 -0.4375,0.3625 -0.725,0.3625 -0.45,0 -0.475,-0.5875 -0.475,-1.1125 v -3.5375 h 1.2 v -0.525 h -1.2 v -1.875 h -0.5875 c 0,1 -0.575,1.9375 -1.4875,1.9375 v 0.4625 h 1.1 v 3.5375 c 0,0.825 0.2625,1.6875 0.975,1.6875 0.4625,0 0.8625,-0.25 1.2,-0.5625 z"
         style="font-size:12.5px;line-height:1.25"
         id="path235" />
      <path
         d="m 48.358677,185.68942 v -0.625 h -6.25 v 0.625 z"
         style="font-size:12.5px;line-height:1.25"
         id="path237" />
      <path
         d="m 53.883654,184.25192 v -8.75 h -0.975 v 3.3375 c -0.4875,-0.2125 -1.0125,-0.3375 -1.5375,-0.3375 -1.5625,0 -2.325,1.25 -2.325,2.9375 0,1.6625 0.625,2.9375 2.1375,2.9375 0.6375,0 1.225,-0.2875 1.725,-0.6875 v 0.5625 z m -0.975,-1.0875 c -0.375,0.375 -0.8375,0.6875 -1.375,0.6875 -1.1375,0 -1.3875,-1.1 -1.3875,-2.4125 0,-1.175 0.3625,-2.4125 1.3875,-2.4125 0.475,0 0.95,0.125 1.375,0.3375 z"
         style="font-size:12.5px;line-height:1.25"
         id="path239" />
      <path
         d="m 60.283646,184.25192 v -3.5 c 0,-1.175 -0.725,-2.25 -1.8125,-2.25 -0.8,0 -1.55,0.275 -2.225,0.7 v 0.3875 c 0.5625,-0.3125 1.1875,-0.5125 1.8375,-0.5125 0.775,0 1.225,0.825 1.225,1.675 v 0.225 c -0.4875,-0.2125 -1.0125,-0.3375 -1.5375,-0.3375 -1.3375,0 -2.325,0.6125 -2.325,1.875 0,1.2 0.875,1.8625 2.1375,1.8625 0.6375,0 1.225,-0.2875 1.725,-0.6875 v 0.5625 z m -0.975,-1.0875 c -0.375,0.375 -0.8375,0.6875 -1.375,0.6875 -0.8375,0 -1.3875,-0.5125 -1.3875,-1.3375 0,-0.7625 0.625,-1.35 1.3875,-1.35 0.475,0 0.95,0.125 1.375,0.3375 z"
         style="font-size:12.5px;line-height:1.25"
         id="path241" />
      <path
         d="m 64.933634,183.81442 v -0.375 c -0.2,0.2 -0.4375,0.3625 -0.725,0.3625 -0.45,0 -0.475,-0.5875 -0.475,-1.1125 v -3.5375 h 1.2 v -0.525 h -1.2 v -1.875 h -0.5875 c 0,1 -0.575,1.9375 -1.4875,1.9375 v 0.4625 h 1.1 v 3.5375 c 0,0.825 0.2625,1.6875 0.975,1.6875 0.4625,0 0.8625,-0.25 1.2,-0.5625 z"
         style="font-size:12.5px;line-height:1.25"
         id="path243" />
      <path
         d="m 70.708617,184.25192 v -3.5 c 0,-1.175 -0.725,-2.25 -1.8125,-2.25 -0.8,0 -1.55,0.275 -2.225,0.7 v 0.3875 c 0.5625,-0.3125 1.1875,-0.5125 1.8375,-0.5125 0.775,0 1.225,0.825 1.225,1.675 v 0.225 c -0.4875,-0.2125 -1.0125,-0.3375 -1.5375,-0.3375 -1.3375,0 -2.325,0.6125 -2.325,1.875 0,1.2 0.875,1.8625 2.1375,1.8625 0.6375,0 1.225,-0.2875 1.725,-0.6875 v 0.5625 z m -0.975,-1.0875 c -0.375,0.375 -0.8375,0.6875 -1.375,0.6875 -0.8375,0 -1.3875,-0.5125 -1.3875,-1.3375 0,-0.7625 0.625,-1.35 1.3875,-1.35 0.475,0 0.95,0.125 1.375,0.3375 z"
         style="font-size:12.5px;line-height:1.25"
         id="path245" />
      <path
         d="m 77.958607,185.68942 v -0.625 h -6.25 v 0.625 z"
         style="font-size:12.5px;line-height:1.25"
         id="path247" />
      <path
         d="m 81.246084,183.81442 v -0.375 c -0.2375,0.2 -0.5125,0.3625 -0.825,0.3625 -0.4625,0 -0.55,-0.575 -0.55,-1.1125 v -4.0625 h -0.975 v 4.0625 c 0,0.8375 0.325,1.6875 1.0625,1.6875 0.475,0 0.925,-0.2375 1.2875,-0.5625 z m -1.25,-7.1375 c 0,-0.3375 -0.275,-0.6125 -0.6125,-0.6125 -0.3375,0 -0.6125,0.275 -0.6125,0.6125 0,0.3375 0.275,0.6125 0.6125,0.6125 0.3375,0 0.6125,-0.275 0.6125,-0.6125 z"
         style="font-size:12.5px;line-height:1.25"
         id="path249" />
    </g>
    <g
       aria-label="right_data_i"
       id="text4465"
       style="line-height:0%;font-family:Iwona;-inkscape-font-specification:Iwona;text-align:end;letter-spacing:0px;word-spacing:0px;text-anchor:end;stroke-width:1px">
      <path
         d="m 21.308749,204.20505 v -0.775 c -0.1375,-0.05 -0.2875,-0.0875 -0.425,-0.0875 -0.7,0 -1.2625,0.4875 -1.7125,1.025 v -0.9375 h -0.975 v 5.625 h 0.975 v -4.1625 c 0.375,-0.4375 0.85,-0.8125 1.425,-0.8125 0.2375,0 0.4875,0.05 0.7125,0.125 z"
         style="font-size:12.5px;line-height:1.25"
         id="path252" />
      <path
         d="m 24.846237,208.61755 v -0.375 c -0.2375,0.2 -0.5125,0.3625 -0.825,0.3625 -0.4625,0 -0.55,-0.575 -0.55,-1.1125 v -4.0625 h -0.975 v 4.0625 c 0,0.8375 0.325,1.6875 1.0625,1.6875 0.475,0 0.925,-0.2375 1.2875,-0.5625 z m -1.25,-7.1375 c 0,-0.3375 -0.275,-0.6125 -0.6125,-0.6125 -0.3375,0 -0.6125,0.275 -0.6125,0.6125 0,0.3375 0.275,0.6125 0.6125,0.6125 0.3375,0 0.6125,-0.275 0.6125,-0.6125 z"
         style="font-size:12.5px;line-height:1.25"
         id="path254" />
      <path
         d="m 30.621225,209.80505 v -6.375 h -0.975 v 0.2125 c -0.4875,-0.2125 -1.0125,-0.3375 -1.5375,-0.3375 -1.5625,0 -2.325,1.25 -2.325,2.9375 0,1.6625 0.625,2.9375 2.1375,2.9375 0.6375,0 1.225,-0.2875 1.725,-0.6875 v 1.3125 c 0,0.8625 -0.475,1.675 -1.25,1.675 -0.6375,0 -1.275,-0.125 -1.875,-0.3375 v 0.3875 c 0.7,0.325 1.475,0.525 2.25,0.525 1.1,0 1.85,-1.075 1.85,-2.25 z m -0.975,-1.8375 c -0.375,0.375 -0.8375,0.6875 -1.375,0.6875 -1.1375,0 -1.3875,-1.1 -1.3875,-2.4125 0,-1.175 0.3625,-2.4125 1.3875,-2.4125 0.475,0 0.95,0.125 1.375,0.3375 z"
         style="font-size:12.5px;line-height:1.25"
         id="path256" />
      <path
         d="m 37.146217,209.05505 v -4.0625 c 0,-0.9125 -0.7,-1.6875 -1.6,-1.6875 -0.75,0 -1.4125,0.425 -1.95,0.95 v -3.95 h -0.975 v 8.75 h 0.975 v -4.4125 c 0.425,-0.425 0.95,-0.7625 1.5375,-0.7625 0.5875,0 1.0375,0.5125 1.0375,1.1125 v 4.0625 z"
         style="font-size:12.5px;line-height:1.25"
         id="path258" />
      <path
         d="m 41.733696,208.61755 v -0.375 c -0.2,0.2 -0.4375,0.3625 -0.725,0.3625 -0.45,0 -0.475,-0.5875 -0.475,-1.1125 v -3.5375 h 1.2 v -0.525 h -1.2 v -1.875 h -0.5875 c 0,1 -0.575,1.9375 -1.4875,1.9375 v 0.4625 h 1.1 v 3.5375 c 0,0.825 0.2625,1.6875 0.975,1.6875 0.4625,0 0.8625,-0.25 1.2,-0.5625 z"
         style="font-size:12.5px;line-height:1.25"
         id="path260" />
      <path
         d="m 48.358679,210.49255 v -0.625 h -6.25 v 0.625 z"
         style="font-size:12.5px;line-height:1.25"
         id="path262" />
      <path
         d="m 53.883654,209.05505 v -8.75 h -0.975 v 3.3375 c -0.4875,-0.2125 -1.0125,-0.3375 -1.5375,-0.3375 -1.5625,0 -2.325,1.25 -2.325,2.9375 0,1.6625 0.625,2.9375 2.1375,2.9375 0.6375,0 1.225,-0.2875 1.725,-0.6875 v 0.5625 z m -0.975,-1.0875 c -0.375,0.375 -0.8375,0.6875 -1.375,0.6875 -1.1375,0 -1.3875,-1.1 -1.3875,-2.4125 0,-1.175 0.3625,-2.4125 1.3875,-2.4125 0.475,0 0.95,0.125 1.375,0.3375 z"
         style="font-size:12.5px;line-height:1.25"
         id="path264" />
      <path
         d="m 60.283646,209.05505 v -3.5 c 0,-1.175 -0.725,-2.25 -1.8125,-2.25 -0.8,0 -1.55,0.275 -2.225,0.7 v 0.3875 c 0.5625,-0.3125 1.1875,-0.5125 1.8375,-0.5125 0.775,0 1.225,0.825 1.225,1.675 v 0.225 c -0.4875,-0.2125 -1.0125,-0.3375 -1.5375,-0.3375 -1.3375,0 -2.325,0.6125 -2.325,1.875 0,1.2 0.875,1.8625 2.1375,1.8625 0.6375,0 1.225,-0.2875 1.725,-0.6875 v 0.5625 z m -0.975,-1.0875 c -0.375,0.375 -0.8375,0.6875 -1.375,0.6875 -0.8375,0 -1.3875,-0.5125 -1.3875,-1.3375 0,-0.7625 0.625,-1.35 1.3875,-1.35 0.475,0 0.95,0.125 1.375,0.3375 z"
         style="font-size:12.5px;line-height:1.25"
         id="path266" />
      <path
         d="m 64.933636,208.61755 v -0.375 c -0.2,0.2 -0.4375,0.3625 -0.725,0.3625 -0.45,0 -0.475,-0.5875 -0.475,-1.1125 v -3.5375 h 1.2 v -0.525 h -1.2 v -1.875 h -0.5875 c 0,1 -0.575,1.9375 -1.4875,1.9375 v 0.4625 h 1.1 v 3.5375 c 0,0.825 0.2625,1.6875 0.975,1.6875 0.4625,0 0.8625,-0.25 1.2,-0.5625 z"
         style="font-size:12.5px;line-height:1.25"
         id="path268" />
      <path
         d="m 70.708619,209.05505 v -3.5 c 0,-1.175 -0.725,-2.25 -1.8125,-2.25 -0.8,0 -1.55,0.275 -2.225,0.7 v 0.3875 c 0.5625,-0.3125 1.1875,-0.5125 1.8375,-0.5125 0.775,0 1.225,0.825 1.225,1.675 v 0.225 c -0.4875,-0.2125 -1.0125,-0.3375 -1.5375,-0.3375 -1.3375,0 -2.325,0.6125 -2.325,1.875 0,1.2 0.875,1.8625 2.1375,1.8625 0.6375,0 1.225,-0.2875 1.725,-0.6875 v 0.5625 z m -0.975,-1.0875 c -0.375,0.375 -0.8375,0.6875 -1.375,0.6875 -0.8375,0 -1.3875,-0.5125 -1.3875,-1.3375 0,-0.7625 0.625,-1.35 1.3875,-1.35 0.475,0 0.95,0.125 1.375,0.3375 z"
         style="font-size:12.5px;line-height:1.25"
         id="path270" />
      <path
         d="m 77.958609,210.49255 v -0.625 h -6.25 v 0.625 z"
         style="font-size:12.5px;line-height:1.25"
         id="path272" />
      <path
         d="m 81.246082,208.61755 v -0.375 c -0.2375,0.2 -0.5125,0.3625 -0.825,0.3625 -0.4625,0 -0.55,-0.575 -0.55,-1.1125 v -4.0625 h -0.975 v 4.0625 c 0,0.8375 0.325,1.6875 1.0625,1.6875 0.475,0 0.925,-0.2375 1.2875,-0.5625 z m -1.25,-7.1375 c 0,-0.3375 -0.275,-0.6125 -0.6125,-0.6125 -0.3375,0 -0.6125,0.275 -0.6125,0.6125 0,0.3375 0.275,0.6125 0.6125,0.6125 0.3375,0 0.6125,-0.275 0.6125,-0.6125 z"
         style="font-size:12.5px;line-height:1.25"
         id="path274" />
    </g>
    <g
       id="g3327"
       transform="translate(56.692916,-46.063)">
      <path
         id="rect4901"
         style="fill:#afdde9;stroke:#000000;stroke-width:0.999212;stroke-linecap:round;stroke-dasharray:0.999213, 1.99843"
         d="M 60.236217,230.31496 H 230.31495 V 304.7244 H 60.236217 Z" />
      <g
         aria-label="CLK_FREQUENCY_HZ
MASTER_FREQUENCY_HZ
SAMPLE_RATE_HZ
BITS_PER_SAMPLE"
         id="text4903"
         style="line-height:0%;font-family:Iwona;-inkscape-font-specification:Iwona;letter-spacing:0px;word-spacing:0px">
        <path
           d="m 75.777695,242.41107 v -0.675 c -0.675,-0.975 -1.7875,-1.55 -2.9625,-1.55 -2.5375,0 -3.9125,1.85 -3.9125,4.5 0,2.65 1.375,4.5 3.9125,4.5 0.975,0 1.9375,-0.2875 2.7625,-0.825 v -0.575 c -0.825,0.5375 -1.7875,0.825 -2.7625,0.825 -1.9625,0 -2.6875,-1.7375 -2.6875,-3.925 0,-2.1875 0.725,-3.925 2.6875,-3.925 1.2,0 2.325,0.625 2.9625,1.65 z"
           style="font-size:12.5px;line-height:1.25"
           id="path278" />
        <path
           d="m 82.402687,249.06107 v -0.575 h -3.975 v -8.175 h -1.025 v 8.75 z"
           style="font-size:12.5px;line-height:1.25"
           id="path280" />
        <path
           d="m 91.252669,249.06107 -5.5375,-4.95 5.2375,-3.8 h -0.9875 l -5.0375,3.6625 v -3.6625 h -1.025 v 8.75 h 1.025 v -4.275 l 4.7875,4.275 z"
           style="font-size:12.5px;line-height:1.25"
           id="path282" />
        <path
           d="m 97.627668,250.49857 v -0.625 h -6.25 v 0.625 z"
           style="font-size:12.5px;line-height:1.25"
           id="path284" />
        <path
           d="m 104.82764,240.88607 v -0.575 h -5.949996 v 8.75 h 1.025 v -4.0875 h 3.974996 v -0.575 h -3.974996 v -3.5125 z"
           style="font-size:12.5px;line-height:1.25"
           id="path286" />
        <path
           d="m 113.50264,249.06107 -2.6625,-3.9625 c 1.3625,-0.2625 2.3,-1.0125 2.3,-2.4125 0,-1.7625 -1.5125,-2.5 -3.475,-2.5 -0.7,0 -1.4,0.0375 -2.0875,0.125 h -1 v 8.75 h 1.025 v -4.0625 c 0.675,0.125 1.375,0.2 2.0625,0.2 l 2.6125,3.8625 z m -1.5875,-6.375 c 0,1.1375 -1.0625,1.9375 -2.25,1.9375 -0.6875,0 -1.3875,-0.075 -2.0625,-0.2 v -3.5375 c 0.6875,-0.0875 1.375,-0.125 2.0625,-0.125 1.1875,0 2.25,0.8 2.25,1.925 z"
           style="font-size:12.5px;line-height:1.25"
           id="path288" />
        <path
           d="m 121.12763,249.06107 v -0.575 h -5.225 v -3.5125 h 3.975 v -0.575 h -3.975 v -3.5125 h 4.925 v -0.575 h -5.95 v 8.75 z"
           style="font-size:12.5px;line-height:1.25"
           id="path290" />
        <path
           d="m 130.44013,244.68607 c 0,-2.65 -1.375,-4.5 -3.9,-4.5 -2.5375,0 -3.9125,1.85 -3.9125,4.5 0,2.65 1.375,4.5 3.9125,4.5 0.0875,1.0125 0.925,1.7875 1.95,1.7875 0.6375,0 0.8125,-0.0375 1.4,-0.3 v -0.375 c -0.2875,0.1625 -0.6,0.25 -0.9375,0.25 -1.1375,0 -1.5875,-0.4 -1.6,-1.4375 2,-0.35 3.0875,-2.075 3.0875,-4.425 z m -1.225,0 c 0,2.1875 -0.725,3.925 -2.675,3.925 -1.9625,0 -2.6875,-1.7375 -2.6875,-3.925 0,-2.1875 0.725,-3.925 2.6875,-3.925 1.95,0 2.675,1.7375 2.675,3.925 z"
           style="font-size:12.5px;line-height:1.25"
           id="path292" />
        <path
           d="m 138.87761,246.61107 v -6.3 h -0.575 v 6.1 c 0,1.3 -1.15,2.275 -2.475,2.275 -1.3375,0 -2.4875,-0.975 -2.4875,-2.275 v -6.1 h -1.025 v 6.3 c 0,1.5875 1.575,2.65 3.2875,2.65 1.7,0 3.275,-1.0625 3.275,-2.65 z"
           style="font-size:12.5px;line-height:1.25"
           id="path294" />
        <path
           d="m 147.50261,249.06107 v -0.575 h -5.225 v -3.5125 h 3.975 v -0.575 h -3.975 v -3.5125 h 4.925 v -0.575 h -5.95 v 8.75 z"
           style="font-size:12.5px;line-height:1.25"
           id="path296" />
        <path
           d="m 156.85261,249.06107 v -8.75 h -0.575 v 7.35 l -6.025,-7.35 h -0.75 v 8.75 h 0.575 v -7.35 l 6.025,7.35 z"
           style="font-size:12.5px;line-height:1.25"
           id="path298" />
        <path
           d="m 165.72758,242.41107 v -0.675 c -0.675,-0.975 -1.7875,-1.55 -2.9625,-1.55 -2.5375,0 -3.9125,1.85 -3.9125,4.5 0,2.65 1.375,4.5 3.9125,4.5 0.975,0 1.9375,-0.2875 2.7625,-0.825 v -0.575 c -0.825,0.5375 -1.7875,0.825 -2.7625,0.825 -1.9625,0 -2.6875,-1.7375 -2.6875,-3.925 0,-2.1875 0.725,-3.925 2.6875,-3.925 1.2,0 2.325,0.625 2.9625,1.65 z"
           style="font-size:12.5px;line-height:1.25"
           id="path300" />
        <path
           d="m 173.22758,240.31107 h -0.675 l -2.6625,4.425 -2.375,-4.425 h -1.1625 l 2.925,5.25 v 3.5 h 1.025 v -3.8875 z"
           style="font-size:12.5px;line-height:1.25"
           id="path302" />
        <path
           d="m 179.60258,250.49857 v -0.625 h -6.25 v 0.625 z"
           style="font-size:12.5px;line-height:1.25"
           id="path304" />
        <path
           d="m 187.72755,249.06107 v -8.75 h -1.025 v 4.0875 h -4.825 v -4.0875 h -1.025 v 8.75 h 1.025 v -4.0875 h 4.825 v 4.0875 z"
           style="font-size:12.5px;line-height:1.25"
           id="path306" />
        <path
           d="m 195.91503,249.06107 v -0.575 h -5.3 l 5.1,-7.6125 v -0.5625 h -6.1625 v 0.575 h 4.925 l -5.125,7.65 v 0.525 z"
           style="font-size:12.5px;line-height:1.25"
           id="path308" />
        <path
           d="m 78.590195,264.68607 -0.5,-8.75 h -0.825 l -3.5125,7.3875 -3.525,-7.3875 h -0.825 l -0.5,8.75 h 0.575 l 0.4,-7.0875 3.3875,7.0875 h 0.4625 l 3.425,-7.175 0.4125,7.175 z"
           style="font-size:12.5px;line-height:1.25"
           id="path310" />
        <path
           d="m 86.965177,264.68607 -3.175,-8.75 h -1.0875 l -3.2375,8.75 h 0.6125 l 1.1375,-3.0625 h 3.55 l 1.1125,3.0625 z m -2.4125,-3.6375 h -3.125 l 1.575,-4.275 z"
           style="font-size:12.5px;line-height:1.25"
           id="path312" />
        <path
           d="m 94.427664,262.14857 c 0,-1.5375 -1.5625,-2.45 -3.175,-2.7875 -1.075,-0.225 -2.2875,-0.5 -2.2875,-1.5 0,-0.9875 1.0625,-1.55 2.1625,-1.55 1.0125,0 2,0.3 2.8,0.925 v -0.5 c -0.8,-0.625 -1.7875,-1 -2.8,-1 -1.625,0 -3.15,0.9125 -3.15,2.3875 0,1.4125 1.525,2.125 3.0125,2.4375 1.1875,0.25 2.45,0.7375 2.45,1.85 0,1.1375 -1.1125,1.9 -2.3125,1.9 -1.1625,0 -2.3125,-0.3 -3.2875,-0.925 v 0.5 c 0.9875,0.625 2.1125,1 3.2875,1 1.725,0 3.3,-1.1125 3.3,-2.7375 z"
           style="font-size:12.5px;line-height:1.25"
           id="path314" />
        <path
           d="m 102.07764,256.51107 v -0.575 h -6.875003 v 0.575 h 2.925 v 8.175 h 1.025 v -8.175 z"
           style="font-size:12.5px;line-height:1.25"
           id="path316" />
        <path
           d="m 109.82761,264.68607 v -0.575 h -5.225 v -3.5125 h 3.975 v -0.575 h -3.975 v -3.5125 h 4.925 v -0.575 h -5.95 v 8.75 z"
           style="font-size:12.5px;line-height:1.25"
           id="path318" />
        <path
           d="m 118.62761,264.68607 -2.6625,-3.9625 c 1.3625,-0.2625 2.3,-1.0125 2.3,-2.4125 0,-1.7625 -1.5125,-2.5 -3.475,-2.5 -0.7,0 -1.4,0.0375 -2.0875,0.125 h -1 v 8.75 h 1.025 v -4.0625 c 0.675,0.125 1.375,0.2 2.0625,0.2 l 2.6125,3.8625 z m -1.5875,-6.375 c 0,1.1375 -1.0625,1.9375 -2.25,1.9375 -0.6875,0 -1.3875,-0.075 -2.0625,-0.2 v -3.5375 c 0.6875,-0.0875 1.375,-0.125 2.0625,-0.125 1.1875,0 2.25,0.8 2.25,1.925 z"
           style="font-size:12.5px;line-height:1.25"
           id="path320" />
        <path
           d="m 125.0026,266.12357 v -0.625 h -6.25 v 0.625 z"
           style="font-size:12.5px;line-height:1.25"
           id="path322" />
        <path
           d="m 132.20258,256.51107 v -0.575 h -5.95 v 8.75 h 1.025 v -4.0875 h 3.975 v -0.575 h -3.975 v -3.5125 z"
           style="font-size:12.5px;line-height:1.25"
           id="path324" />
        <path
           d="m 140.87758,264.68607 -2.6625,-3.9625 c 1.3625,-0.2625 2.3,-1.0125 2.3,-2.4125 0,-1.7625 -1.5125,-2.5 -3.475,-2.5 -0.7,0 -1.4,0.0375 -2.0875,0.125 h -1 v 8.75 h 1.025 v -4.0625 c 0.675,0.125 1.375,0.2 2.0625,0.2 l 2.6125,3.8625 z m -1.5875,-6.375 c 0,1.1375 -1.0625,1.9375 -2.25,1.9375 -0.6875,0 -1.3875,-0.075 -2.0625,-0.2 v -3.5375 c 0.6875,-0.0875 1.375,-0.125 2.0625,-0.125 1.1875,0 2.25,0.8 2.25,1.925 z"
           style="font-size:12.5px;line-height:1.25"
           id="path326" />
        <path
           d="m 148.50256,264.68607 v -0.575 h -5.225 v -3.5125 h 3.975 v -0.575 h -3.975 v -3.5125 h 4.925 v -0.575 h -5.95 v 8.75 z"
           style="font-size:12.5px;line-height:1.25"
           id="path328" />
        <path
           d="m 157.81506,260.31107 c 0,-2.65 -1.375,-4.5 -3.9,-4.5 -2.5375,0 -3.9125,1.85 -3.9125,4.5 0,2.65 1.375,4.5 3.9125,4.5 0.0875,1.0125 0.925,1.7875 1.95,1.7875 0.6375,0 0.8125,-0.0375 1.4,-0.3 v -0.375 c -0.2875,0.1625 -0.6,0.25 -0.9375,0.25 -1.1375,0 -1.5875,-0.4 -1.6,-1.4375 2,-0.35 3.0875,-2.075 3.0875,-4.425 z m -1.225,0 c 0,2.1875 -0.725,3.925 -2.675,3.925 -1.9625,0 -2.6875,-1.7375 -2.6875,-3.925 0,-2.1875 0.725,-3.925 2.6875,-3.925 1.95,0 2.675,1.7375 2.675,3.925 z"
           style="font-size:12.5px;line-height:1.25"
           id="path330" />
        <path
           d="m 166.25255,262.23607 v -6.3 h -0.575 v 6.1 c 0,1.3 -1.15,2.275 -2.475,2.275 -1.3375,0 -2.4875,-0.975 -2.4875,-2.275 v -6.1 h -1.025 v 6.3 c 0,1.5875 1.575,2.65 3.2875,2.65 1.7,0 3.275,-1.0625 3.275,-2.65 z"
           style="font-size:12.5px;line-height:1.25"
           id="path332" />
        <path
           d="m 174.87755,264.68607 v -0.575 h -5.225 v -3.5125 h 3.975 v -0.575 h -3.975 v -3.5125 h 4.925 v -0.575 h -5.95 v 8.75 z"
           style="font-size:12.5px;line-height:1.25"
           id="path334" />
        <path
           d="m 184.22755,264.68607 v -8.75 h -0.575 v 7.35 l -6.025,-7.35 h -0.75 v 8.75 h 0.575 v -7.35 l 6.025,7.35 z"
           style="font-size:12.5px;line-height:1.25"
           id="path336" />
        <path
           d="m 193.10252,258.03607 v -0.675 c -0.675,-0.975 -1.7875,-1.55 -2.9625,-1.55 -2.5375,0 -3.9125,1.85 -3.9125,4.5 0,2.65 1.375,4.5 3.9125,4.5 0.975,0 1.9375,-0.2875 2.7625,-0.825 v -0.575 c -0.825,0.5375 -1.7875,0.825 -2.7625,0.825 -1.9625,0 -2.6875,-1.7375 -2.6875,-3.925 0,-2.1875 0.725,-3.925 2.6875,-3.925 1.2,0 2.325,0.625 2.9625,1.65 z"
           style="font-size:12.5px;line-height:1.25"
           id="path338" />
        <path
           d="m 200.60252,255.93607 h -0.675 l -2.6625,4.425 -2.375,-4.425 h -1.1625 l 2.925,5.25 v 3.5 h 1.025 v -3.8875 z"
           style="font-size:12.5px;line-height:1.25"
           id="path340" />
        <path
           d="m 206.97751,266.12357 v -0.625 h -6.25 v 0.625 z"
           style="font-size:12.5px;line-height:1.25"
           id="path342" />
        <path
           d="m 215.10249,264.68607 v -8.75 h -1.025 v 4.0875 h -4.825 v -4.0875 h -1.025 v 8.75 h 1.025 v -4.0875 h 4.825 v 4.0875 z"
           style="font-size:12.5px;line-height:1.25"
           id="path344" />
        <path
           d="m 223.28996,264.68607 v -0.575 h -5.3 l 5.1,-7.6125 v -0.5625 h -6.1625 v 0.575 h 4.925 l -5.125,7.65 v 0.525 z"
           style="font-size:12.5px;line-height:1.25"
           id="path346" />
        <path
           d="m 75.490195,277.77357 c 0,-1.5375 -1.5625,-2.45 -3.175,-2.7875 -1.075,-0.225 -2.2875,-0.5 -2.2875,-1.5 0,-0.9875 1.0625,-1.55 2.1625,-1.55 1.0125,0 2,0.3 2.8,0.925 v -0.5 c -0.8,-0.625 -1.7875,-1 -2.8,-1 -1.625,0 -3.15,0.9125 -3.15,2.3875 0,1.4125 1.525,2.125 3.0125,2.4375 1.1875,0.25 2.45,0.7375 2.45,1.85 0,1.1375 -1.1125,1.9 -2.3125,1.9 -1.1625,0 -2.3125,-0.3 -3.2875,-0.925 v 0.5 c 0.9875,0.625 2.1125,1 3.2875,1 1.725,0 3.3,-1.1125 3.3,-2.7375 z"
           style="font-size:12.5px;line-height:1.25"
           id="path348" />
        <path
           d="m 83.865187,280.31107 -3.175,-8.75 h -1.0875 l -3.2375,8.75 h 0.6125 l 1.1375,-3.0625 h 3.55 l 1.1125,3.0625 z m -2.4125,-3.6375 h -3.125 l 1.575,-4.275 z"
           style="font-size:12.5px;line-height:1.25"
           id="path350" />
        <path
           d="m 94.427673,280.31107 -0.5,-8.75 h -0.825 l -3.5125,7.3875 -3.525,-7.3875 h -0.825 l -0.5,8.75 h 0.575 l 0.4,-7.0875 3.3875,7.0875 h 0.4625 l 3.425,-7.175 0.4125,7.175 z"
           style="font-size:12.5px;line-height:1.25"
           id="path352" />
        <path
           d="m 102.99015,273.93607 c 0,-1.7625 -1.5125,-2.5 -3.474996,-2.5 -0.7,0 -1.4,0.0375 -2.0875,0.125 h -1 v 8.75 h 1.025 v -4.0625 c 0.675,0.125 1.375,0.2 2.0625,0.2 1.962496,0 3.474996,-0.7375 3.474996,-2.5125 z m -1.225,0 c 0,1.1375 -1.0625,1.9375 -2.249996,1.9375 -0.6875,0 -1.3875,-0.075 -2.0625,-0.2 v -3.5375 c 0.6875,-0.0875 1.375,-0.125 2.0625,-0.125 1.187496,0 2.249996,0.8 2.249996,1.925 z"
           style="font-size:12.5px;line-height:1.25"
           id="path354" />
        <path
           d="m 109.99015,280.31107 v -0.575 h -3.975 v -8.175 h -1.025 v 8.75 z"
           style="font-size:12.5px;line-height:1.25"
           id="path356" />
        <path
           d="m 117.74013,280.31107 v -0.575 h -5.225 v -3.5125 h 3.975 v -0.575 h -3.975 v -3.5125 h 4.925 v -0.575 h -5.95 v 8.75 z"
           style="font-size:12.5px;line-height:1.25"
           id="path358" />
        <path
           d="m 124.74013,281.74857 v -0.625 h -6.25 v 0.625 z"
           style="font-size:12.5px;line-height:1.25"
           id="path360" />
        <path
           d="m 132.7901,280.31107 -2.6625,-3.9625 c 1.3625,-0.2625 2.3,-1.0125 2.3,-2.4125 0,-1.7625 -1.5125,-2.5 -3.475,-2.5 -0.7,0 -1.4,0.0375 -2.0875,0.125 h -1 v 8.75 h 1.025 v -4.0625 c 0.675,0.125 1.375,0.2 2.0625,0.2 l 2.6125,3.8625 z m -1.5875,-6.375 c 0,1.1375 -1.0625,1.9375 -2.25,1.9375 -0.6875,0 -1.3875,-0.075 -2.0625,-0.2 v -3.5375 c 0.6875,-0.0875 1.375,-0.125 2.0625,-0.125 1.1875,0 2.25,0.8 2.25,1.925 z"
           style="font-size:12.5px;line-height:1.25"
           id="path362" />
        <path
           d="m 140.5401,280.31107 -3.175,-8.75 h -1.0875 l -3.2375,8.75 h 0.6125 l 1.1375,-3.0625 h 3.55 l 1.1125,3.0625 z m -2.4125,-3.6375 h -3.125 l 1.575,-4.275 z"
           style="font-size:12.5px;line-height:1.25"
           id="path364" />
        <path
           d="m 147.11507,272.13607 v -0.575 h -6.875 v 0.575 h 2.925 v 8.175 h 1.025 v -8.175 z"
           style="font-size:12.5px;line-height:1.25"
           id="path366" />
        <path
           d="m 154.86505,280.31107 v -0.575 h -5.225 v -3.5125 h 3.975 v -0.575 h -3.975 v -3.5125 h 4.925 v -0.575 h -5.95 v 8.75 z"
           style="font-size:12.5px;line-height:1.25"
           id="path368" />
        <path
           d="m 161.86505,281.74857 v -0.625 h -6.25 v 0.625 z"
           style="font-size:12.5px;line-height:1.25"
           id="path370" />
        <path
           d="m 169.99002,280.31107 v -8.75 h -1.025 v 4.0875 h -4.825 v -4.0875 h -1.025 v 8.75 h 1.025 v -4.0875 h 4.825 v 4.0875 z"
           style="font-size:12.5px;line-height:1.25"
           id="path372" />
        <path
           d="m 178.1775,280.31107 v -0.575 h -5.3 l 5.1,-7.6125 v -0.5625 h -6.1625 v 0.575 h 4.925 l -5.125,7.65 v 0.525 z"
           style="font-size:12.5px;line-height:1.25"
           id="path374" />
        <path
           d="m 75.965195,293.56107 c 0,-1.375 -0.9,-2.1 -2.2125,-2.375 0.9625,-0.2875 1.6,-0.9125 1.6,-1.975 0,-1.525 -1.3125,-2.15 -3,-2.15 -0.65,0 -1.3,0.0375 -1.95,0.125 h -1 v 8.75 h 1 l 1.95,0.125 c 2.025,0 3.6125,-0.6875 3.6125,-2.5 z m -1.6375,-4.35 c 0,1.2625 -1.4125,1.9125 -2.825,1.9125 h -1.075 v -3.3625 c 0.6375,-0.0875 1.2875,-0.125 1.925,-0.125 1.025,0 1.975,0.625 1.975,1.575 z m 0.4125,4.35 c 0,1.15 -1.1375,1.925 -2.3875,1.925 -0.6375,0 -1.2875,-0.0375 -1.925,-0.125 v -3.8 h 1.6125 c 1.375,0 2.7,0.7375 2.7,2 z"
           style="font-size:12.5px;line-height:1.25"
           id="path376" />
        <path
           d="m 78.990188,295.93607 v -8.75 h -1.025 v 8.75 z"
           style="font-size:12.5px;line-height:1.25"
           id="path378" />
        <path
           d="m 87.365183,287.76107 v -0.575 h -6.875 v 0.575 h 2.925 v 8.175 h 1.025 v -8.175 z"
           style="font-size:12.5px;line-height:1.25"
           id="path380" />
        <path
           d="m 94.952662,293.39857 c 0,-1.5375 -1.5625,-2.45 -3.175,-2.7875 -1.075,-0.225 -2.2875,-0.5 -2.2875,-1.5 0,-0.9875 1.0625,-1.55 2.1625,-1.55 1.0125,0 2,0.3 2.8,0.925 v -0.5 c -0.8,-0.625 -1.7875,-1 -2.8,-1 -1.625,0 -3.15,0.9125 -3.15,2.3875 0,1.4125 1.525,2.125 3.0125,2.4375 1.1875,0.25 2.45,0.7375 2.45,1.85 0,1.1375 -1.1125,1.9 -2.3125,1.9 -1.1625,0 -2.3125,-0.3 -3.2875,-0.925 v 0.5 c 0.9875,0.625 2.1125,1 3.2875,1 1.725,0 3.3,-1.1125 3.3,-2.7375 z"
           style="font-size:12.5px;line-height:1.25"
           id="path382" />
        <path
           d="m 101.95265,297.37357 v -0.625 h -6.249998 v 0.625 z"
           style="font-size:12.5px;line-height:1.25"
           id="path384" />
        <path
           d="m 109.76513,289.56107 c 0,-1.7625 -1.5125,-2.5 -3.475,-2.5 -0.7,0 -1.4,0.0375 -2.0875,0.125 h -1 v 8.75 h 1.025 v -4.0625 c 0.675,0.125 1.375,0.2 2.0625,0.2 1.9625,0 3.475,-0.7375 3.475,-2.5125 z m -1.225,0 c 0,1.1375 -1.0625,1.9375 -2.25,1.9375 -0.6875,0 -1.3875,-0.075 -2.0625,-0.2 v -3.5375 c 0.6875,-0.0875 1.375,-0.125 2.0625,-0.125 1.1875,0 2.25,0.8 2.25,1.925 z"
           style="font-size:12.5px;line-height:1.25"
           id="path386" />
        <path
           d="m 118.01512,295.93607 v -0.575 h -5.225 v -3.5125 h 3.975 v -0.575 h -3.975 v -3.5125 h 4.925 v -0.575 h -5.95 v 8.75 z"
           style="font-size:12.5px;line-height:1.25"
           id="path388" />
        <path
           d="m 126.81512,295.93607 -2.6625,-3.9625 c 1.3625,-0.2625 2.3,-1.0125 2.3,-2.4125 0,-1.7625 -1.5125,-2.5 -3.475,-2.5 -0.7,0 -1.4,0.0375 -2.0875,0.125 h -1 v 8.75 h 1.025 v -4.0625 c 0.675,0.125 1.375,0.2 2.0625,0.2 l 2.6125,3.8625 z m -1.5875,-6.375 c 0,1.1375 -1.0625,1.9375 -2.25,1.9375 -0.6875,0 -1.3875,-0.075 -2.0625,-0.2 v -3.5375 c 0.6875,-0.0875 1.375,-0.125 2.0625,-0.125 1.1875,0 2.25,0.8 2.25,1.925 z"
           style="font-size:12.5px;line-height:1.25"
           id="path390" />
        <path
           d="m 133.19011,297.37357 v -0.625 h -6.25 v 0.625 z"
           style="font-size:12.5px;line-height:1.25"
           id="path392" />
        <path
           d="m 140.52759,293.39857 c 0,-1.5375 -1.5625,-2.45 -3.175,-2.7875 -1.075,-0.225 -2.2875,-0.5 -2.2875,-1.5 0,-0.9875 1.0625,-1.55 2.1625,-1.55 1.0125,0 2,0.3 2.8,0.925 v -0.5 c -0.8,-0.625 -1.7875,-1 -2.8,-1 -1.625,0 -3.15,0.9125 -3.15,2.3875 0,1.4125 1.525,2.125 3.0125,2.4375 1.1875,0.25 2.45,0.7375 2.45,1.85 0,1.1375 -1.1125,1.9 -2.3125,1.9 -1.1625,0 -2.3125,-0.3 -3.2875,-0.925 v 0.5 c 0.9875,0.625 2.1125,1 3.2875,1 1.725,0 3.3,-1.1125 3.3,-2.7375 z"
           style="font-size:12.5px;line-height:1.25"
           id="path394" />
        <path
           d="m 148.90258,295.93607 -3.175,-8.75 h -1.0875 l -3.2375,8.75 h 0.6125 l 1.1375,-3.0625 h 3.55 l 1.1125,3.0625 z m -2.4125,-3.6375 h -3.125 l 1.575,-4.275 z"
           style="font-size:12.5px;line-height:1.25"
           id="path396" />
        <path
           d="m 159.46507,295.93607 -0.5,-8.75 h -0.825 l -3.5125,7.3875 -3.525,-7.3875 h -0.825 l -0.5,8.75 h 0.575 l 0.4,-7.0875 3.3875,7.0875 h 0.4625 l 3.425,-7.175 0.4125,7.175 z"
           style="font-size:12.5px;line-height:1.25"
           id="path398" />
        <path
           d="m 168.02755,289.56107 c 0,-1.7625 -1.5125,-2.5 -3.475,-2.5 -0.7,0 -1.4,0.0375 -2.0875,0.125 h -1 v 8.75 h 1.025 v -4.0625 c 0.675,0.125 1.375,0.2 2.0625,0.2 1.9625,0 3.475,-0.7375 3.475,-2.5125 z m -1.225,0 c 0,1.1375 -1.0625,1.9375 -2.25,1.9375 -0.6875,0 -1.3875,-0.075 -2.0625,-0.2 v -3.5375 c 0.6875,-0.0875 1.375,-0.125 2.0625,-0.125 1.1875,0 2.25,0.8 2.25,1.925 z"
           style="font-size:12.5px;line-height:1.25"
           id="path400" />
        <path
           d="m 175.02754,295.93607 v -0.575 h -3.975 v -8.175 h -1.025 v 8.75 z"
           style="font-size:12.5px;line-height:1.25"
           id="path402" />
        <path
           d="m 182.77753,295.93607 v -0.575 h -5.225 v -3.5125 h 3.975 v -0.575 h -3.975 v -3.5125 h 4.925 v -0.575 h -5.95 v 8.75 z"
           style="font-size:12.5px;line-height:1.25"
           id="path404" />
      </g>
    </g>
    <path
       id="path45"
       d="m 88.582678,223.22827 h 10.62992 l 7.086612,7.0866 -7.086612,7.08662 h -10.62992 z"
       style="fill:#afdde9;fill-opacity:1;stroke:#000000;stroke-width:1px;stroke-linecap:butt;stroke-linejoin:miter;stroke-opacity:1" />
    <g
       aria-label="valid_i"
       id="text49"
       style="line-height:0%;font-family:Iwona;-inkscape-font-specification:Iwona;text-align:end;letter-spacing:0px;word-spacing:0px;text-anchor:end;stroke-width:1px">
      <path
         d="m 51.521165,228.23315 h -0.5625 l -1.7,4.675 -1.65,-4.675 h -0.925 l 1.975,5.625 h 0.8125 z"
         style="font-size:12.5px;line-height:1.25"
         id="path407" />
      <path
         d="m 57.04616,233.85815 v -3.5 c 0,-1.175 -0.725,-2.25 -1.8125,-2.25 -0.8,0 -1.55,0.275 -2.225,0.7 v 0.3875 c 0.5625,-0.3125 1.1875,-0.5125 1.8375,-0.5125 0.775,0 1.225,0.825 1.225,1.675 v 0.225 c -0.4875,-0.2125 -1.0125,-0.3375 -1.5375,-0.3375 -1.3375,0 -2.325,0.6125 -2.325,1.875 0,1.2 0.875,1.8625 2.1375,1.8625 0.6375,0 1.225,-0.2875 1.725,-0.6875 v 0.5625 z m -0.975,-1.0875 c -0.375,0.375 -0.8375,0.6875 -1.375,0.6875 -0.8375,0 -1.3875,-0.5125 -1.3875,-1.3375 0,-0.7625 0.625,-1.35 1.3875,-1.35 0.475,0 0.95,0.125 1.375,0.3375 z"
         style="font-size:12.5px;line-height:1.25"
         id="path409" />
      <path
         d="m 61.396149,233.42065 v -0.375 c -0.2375,0.2 -0.5125,0.3625 -0.825,0.3625 -0.4625,0 -0.55,-0.575 -0.55,-1.1125 v -7.1875 h -0.975 v 7.1875 c 0,0.8375 0.325,1.6875 1.0625,1.6875 0.475,0 0.925,-0.2375 1.2875,-0.5625 z"
         style="font-size:12.5px;line-height:1.25"
         id="path411" />
      <path
         d="m 64.933627,233.42065 v -0.375 c -0.2375,0.2 -0.5125,0.3625 -0.825,0.3625 -0.4625,0 -0.55,-0.575 -0.55,-1.1125 v -4.0625 h -0.975 v 4.0625 c 0,0.8375 0.325,1.6875 1.0625,1.6875 0.475,0 0.925,-0.2375 1.2875,-0.5625 z m -1.25,-7.1375 c 0,-0.3375 -0.275,-0.6125 -0.6125,-0.6125 -0.3375,0 -0.6125,0.275 -0.6125,0.6125 0,0.3375 0.275,0.6125 0.6125,0.6125 0.3375,0 0.6125,-0.275 0.6125,-0.6125 z"
         style="font-size:12.5px;line-height:1.25"
         id="path413" />
      <path
         d="m 70.708616,233.85815 v -8.75 h -0.975 v 3.3375 c -0.4875,-0.2125 -1.0125,-0.3375 -1.5375,-0.3375 -1.5625,0 -2.325,1.25 -2.325,2.9375 0,1.6625 0.625,2.9375 2.1375,2.9375 0.6375,0 1.225,-0.2875 1.725,-0.6875 v 0.5625 z m -0.975,-1.0875 c -0.375,0.375 -0.8375,0.6875 -1.375,0.6875 -1.1375,0 -1.3875,-1.1 -1.3875,-2.4125 0,-1.175 0.3625,-2.4125 1.3875,-2.4125 0.475,0 0.95,0.125 1.375,0.3375 z"
         style="font-size:12.5px;line-height:1.25"
         id="path415" />
      <path
         d="m 77.958606,235.29565 v -0.625 h -6.25 v 0.625 z"
         style="font-size:12.5px;line-height:1.25"
         id="path417" />
      <path
         d="m 81.246083,233.42065 v -0.375 c -0.2375,0.2 -0.5125,0.3625 -0.825,0.3625 -0.4625,0 -0.55,-0.575 -0.55,-1.1125 v -4.0625 h -0.975 v 4.0625 c 0,0.8375 0.325,1.6875 1.0625,1.6875 0.475,0 0.925,-0.2375 1.2875,-0.5625 z m -1.25,-7.1375 c 0,-0.3375 -0.275,-0.6125 -0.6125,-0.6125 -0.3375,0 -0.6125,0.275 -0.6125,0.6125 0,0.3375 0.275,0.6125 0.6125,0.6125 0.3375,0 0.6125,-0.275 0.6125,-0.6125 z"
         style="font-size:12.5px;line-height:1.25"
         id="path419" />
    </g>
  </g>
</svg>
