<?xml version="1.0" encoding="UTF-8" standalone="no"?>
<!-- Created with Inkscape (http://www.inkscape.org/) -->

<svg
   width="462.39151mm"
   height="56mm"
   viewBox="0 0 1638.3951 198.4252"
   id="svg2"
   version="1.1"
   xmlns="http://www.w3.org/2000/svg"
   xmlns:svg="http://www.w3.org/2000/svg"
   xmlns:rdf="http://www.w3.org/1999/02/22-rdf-syntax-ns#"
   xmlns:cc="http://creativecommons.org/ns#"
   xmlns:dc="http://purl.org/dc/elements/1.1/">
  <defs
     id="defs4">
    <marker
       orient="auto"
       refY="0"
       refX="0"
       id="Arrow1Mend"
       style="overflow:visible">
      <path
         id="path4328"
         d="M 0,0 5,-5 -12.5,0 5,5 Z"
         style="fill:#000000;fill-opacity:1;fill-rule:evenodd;stroke:#000000;stroke-width:1.00000003pt;stroke-opacity:1"
         transform="matrix(-0.4,0,0,-0.4,-4,0)" />
    </marker>
    <marker
       orient="auto"
       refY="0"
       refX="0"
       id="Arrow1Mstart"
       style="overflow:visible">
      <path
         id="path4325"
         d="M 0,0 5,-5 -12.5,0 5,5 Z"
         style="fill:#000000;fill-opacity:1;fill-rule:evenodd;stroke:#000000;stroke-width:1.00000003pt;stroke-opacity:1"
         transform="matrix(0.4,0,0,0.4,4,0)" />
    </marker>
  </defs>
  <metadata
     id="metadata7">
    <rdf:RDF>
      <cc:Work
         rdf:about="">
        <dc:format>image/svg+xml</dc:format>
        <dc:type
           rdf:resource="http://purl.org/dc/dcmitype/StillImage" />
        <dc:title />
      </cc:Work>
    </rdf:RDF>
  </metadata>
  <g
     id="layer1"
     transform="translate(58.080128,-31.889773)">
    <path
       id="rect4814"
       style="opacity:1;fill:#ffbd54;stroke-linecap:round;stroke-linejoin:bevel;stroke-dasharray:2, 4"
       d="m 1551.9685,38.976387 h 3.5433 v 95.669303 h -3.5433 z" />
    <path
       id="rect4816"
       style="opacity:1;fill:#ffbd54;stroke-linecap:round;stroke-linejoin:bevel;stroke-dasharray:2, 4"
       d="m 1495.2756,38.976387 h 3.5433 V 134.6457 h -3.5433 z" />
    <path
       id="rect4818"
       style="opacity:1;fill:#ffbd54;stroke-linecap:round;stroke-linejoin:bevel;stroke-dasharray:2, 4"
       d="m 1438.5828,42.519684 h 3.5433 V 223.22836 h -3.5433 z" />
    <path
       id="rect4820"
       style="opacity:1;fill:#ffbd54;stroke-linecap:round;stroke-linejoin:bevel;stroke-dasharray:2, 4"
       d="m 1381.8898,38.976387 h 3.5433 v 95.669303 h -3.5433 z" />
    <path
       id="rect4822"
       style="opacity:1;fill:#ffbd54;stroke-linecap:round;stroke-linejoin:bevel;stroke-dasharray:2, 4"
       d="m 1325.1969,38.976387 h 3.5433 v 95.669303 h -3.5433 z" />
    <path
       id="rect4824"
       style="opacity:1;fill:#ffbd54;stroke-linecap:round;stroke-linejoin:bevel;stroke-dasharray:2, 4"
       d="m 1268.5039,38.976387 h 3.5433 v 95.669303 h -3.5433 z" />
    <path
       id="rect4826"
       style="opacity:1;fill:#ffbd54;stroke-linecap:round;stroke-linejoin:bevel;stroke-dasharray:2, 4"
       d="m 1211.811,38.976387 h 3.5433 v 95.669303 h -3.5433 z" />
    <path
       id="rect4686"
       style="opacity:1;fill:#ffbd54;stroke-linecap:round;stroke-linejoin:bevel;stroke-dasharray:2, 4"
       d="m 1155.1182,38.976387 h 3.5433 v 95.669303 h -3.5433 z" />
    <path
       id="rect4688"
       style="opacity:1;fill:#ffbd54;stroke-linecap:round;stroke-linejoin:bevel;stroke-dasharray:2, 4"
       d="m 1098.4253,38.976387 h 3.5433 v 95.669303 h -3.5433 z" />
    <path
       id="rect4690"
       style="opacity:1;fill:#ffbd54;stroke-linecap:round;stroke-linejoin:bevel;stroke-dasharray:2, 4"
       d="m 1041.7323,38.976387 h 3.5433 V 134.6457 h -3.5433 z" />
    <path
       id="rect4692"
       style="opacity:1;fill:#ffbd54;stroke-linecap:round;stroke-linejoin:bevel;stroke-dasharray:2, 4"
       d="m 985.03937,42.519684 h 3.5433 V 223.22836 h -3.5433 z" />
    <path
       id="rect4694"
       style="opacity:1;fill:#ffbd54;stroke-linecap:round;stroke-linejoin:bevel;stroke-dasharray:2, 4"
       d="m 928.34644,38.976387 h 3.5433 v 95.669303 h -3.5433 z" />
    <path
       id="rect4696"
       style="opacity:1;fill:#ffbd54;stroke-linecap:round;stroke-linejoin:bevel;stroke-dasharray:2, 4"
       d="m 871.65356,38.976387 h 3.54331 v 95.669303 h -3.54331 z" />
    <path
       id="rect4698"
       style="opacity:1;fill:#ffbd54;stroke-linecap:round;stroke-linejoin:bevel;stroke-dasharray:2, 4"
       d="m 814.96063,38.976387 h 3.54331 v 95.669303 h -3.54331 z" />
    <path
       id="rect4700"
       style="opacity:1;fill:#ffbd54;stroke-linecap:round;stroke-linejoin:bevel;stroke-dasharray:2, 4"
       d="m 758.2677,38.976387 h 3.54331 v 95.669303 h -3.54331 z" />
    <path
       id="rect4702"
       style="opacity:1;fill:#ffbd54;stroke-linecap:round;stroke-linejoin:bevel;stroke-dasharray:2, 4"
       d="m 701.57483,38.976387 h 3.54331 v 95.669303 h -3.54331 z" />
    <path
       id="rect4704"
       style="opacity:1;fill:#ffbd54;stroke-linecap:round;stroke-linejoin:bevel;stroke-dasharray:2, 4"
       d="m 644.8819,38.976387 h 3.5433 v 95.669303 h -3.5433 z" />
    <path
       id="rect4311"
       style="opacity:1;fill:#ffbd54;stroke-linecap:round;stroke-linejoin:bevel;stroke-dasharray:2, 4"
       d="m 531.49609,42.519695 h 3.54331 V 223.22836 h -3.54331 z" />
    <path
       id="rect4305"
       style="opacity:1;fill:#ffbd54;stroke-linecap:round;stroke-linejoin:bevel;stroke-dasharray:2, 4"
       d="m 588.18896,38.976387 h 3.54331 v 95.669303 h -3.54331 z" />
    <path
       id="rect4307"
       style="opacity:1;fill:#ffbd54;stroke-linecap:round;stroke-linejoin:bevel;stroke-dasharray:2, 4"
       d="m 474.80316,38.976387 h 3.54331 v 95.669303 h -3.54331 z" />
    <path
       id="rect4309"
       style="opacity:1;fill:#ffbd54;stroke-linecap:round;stroke-linejoin:bevel;stroke-dasharray:2, 4"
       d="m 418.11026,38.976387 h 3.54331 v 95.669303 h -3.54331 z" />
    <path
       id="rect4299"
       style="opacity:1;fill:#ffbd54;stroke-linecap:round;stroke-linejoin:bevel;stroke-dasharray:2, 4"
       d="m 361.41733,38.976387 h 3.5433 v 95.669303 h -3.5433 z" />
    <path
       id="rect4301"
       style="opacity:1;fill:#ffbd54;stroke-linecap:round;stroke-linejoin:bevel;stroke-dasharray:2, 4"
       d="m 304.72443,38.976387 h 3.5433 v 95.669303 h -3.5433 z" />
    <path
       id="rect4303"
       style="opacity:1;fill:#ffbd54;stroke-linecap:round;stroke-linejoin:bevel;stroke-dasharray:2, 4"
       d="m 248.03151,38.976387 h 3.54331 v 95.669303 h -3.54331 z" />
    <path
       id="rect4297"
       style="opacity:1;fill:#ffbd54;stroke-linecap:round;stroke-linejoin:bevel;stroke-dasharray:2, 4"
       d="m 191.33859,38.976387 h 3.54331 v 95.669303 h -3.54331 z" />
    <path
       id="rect4295"
       style="opacity:1;fill:#ffbd54;stroke-linecap:round;stroke-linejoin:bevel;stroke-dasharray:2, 4"
       d="m 134.64568,38.976387 h 3.5433 V 134.6457 h -3.5433 z" />
    <g
       aria-label="clk_i"
       id="text3605"
       style="line-height:0%;font-family:Iwona;-inkscape-font-specification:Iwona;text-align:end;letter-spacing:0px;word-spacing:0px;text-anchor:end">
      <path
         d="m 35.473795,59.537838 v -0.945 c -0.72,-1.0125 -1.89,-1.62 -3.15,-1.62 -2.8125,0 -4.7025,2.115 -4.7025,5.2875 0,3.1725 1.89,5.2875 4.7025,5.2875 1.17,0 2.2725,-0.585 2.925,-1.5525 v -0.945 c -0.765,1.1475 -1.5525,1.5525 -2.925,1.5525 -1.62,0 -2.7225,-1.7325 -2.7225,-4.3425 0,-2.61 1.1025,-4.3425 2.7225,-4.3425 1.395,0 2.34,0.495 3.15,1.62 z"
         style="font-size:22.5px;line-height:1.25"
         id="path80" />
      <path
         d="m 42.066271,66.535338 v -0.675 c -0.4275,0.36 -0.9225,0.6525 -1.485,0.6525 -0.8325,0 -0.99,-1.035 -0.99,-2.0025 v -12.9375 h -1.755 v 12.9375 c 0,1.5075 0.585,3.0375 1.9125,3.0375 0.855,0 1.665,-0.4275 2.3175,-1.0125 z"
         style="font-size:22.5px;line-height:1.25"
         id="path82" />
      <path
         d="m 53.02373,67.322838 -5.22,-6.0075 5.04,-4.1175 h -1.395 l -5.3775,4.41 v -10.035 h -1.755 v 15.75 h 1.755 v -5.6025 l 4.86,5.6025 z"
         style="font-size:22.5px;line-height:1.25"
         id="path84" />
      <path
         d="m 64.498714,69.910338 v -1.125 h -11.25 v 1.125 z"
         style="font-size:22.5px;line-height:1.25"
         id="path86" />
      <path
         d="m 70.416171,66.535338 v -0.675 c -0.4275,0.36 -0.9225,0.6525 -1.485,0.6525 -0.8325,0 -0.99,-1.035 -0.99,-2.0025 v -7.3125 h -1.755 v 7.3125 c 0,1.5075 0.585,3.0375 1.9125,3.0375 0.855,0 1.665,-0.4275 2.3175,-1.0125 z m -2.25,-12.8475 c 0,-0.6075 -0.495,-1.1025 -1.1025,-1.1025 -0.6075,0 -1.1025,0.495 -1.1025,1.1025 0,0.6075 0.495,1.1025 1.1025,1.1025 0.6075,0 1.1025,-0.495 1.1025,-1.1025 z"
         style="font-size:22.5px;line-height:1.25"
         id="path88" />
    </g>
    <g
       aria-label="master_clk_o"
       id="text3352"
       style="line-height:0%;font-family:Iwona;-inkscape-font-specification:Iwona;text-align:end;letter-spacing:0px;word-spacing:0px;text-anchor:end">
      <path
         d="m -38.708513,120.47244 v -7.3125 c 0,-1.575 -0.9225,-3.0375 -2.385,-3.0375 -1.26,0 -2.43,0.6525 -3.105,1.71 -0.36,-0.99 -1.125,-1.71 -2.16,-1.71 -1.17,0 -2.115,0.81 -2.88,1.71 v -1.485 h -1.755 v 10.125 h 1.755 v -7.965 c 0.54,-0.6975 1.215,-1.35 2.0925,-1.35 0.9225,0 1.4175,0.99 1.4175,2.0025 v 7.3125 h 1.755 v -7.3125 c 0,-0.27 -0.0225,-0.5175 -0.0675,-0.7875 0.54,-0.6975 1.2825,-1.215 2.16,-1.215 0.9225,0 1.4175,0.99 1.4175,2.0025 v 7.3125 z"
         style="font-size:22.5px;line-height:1.25"
         id="path91" />
      <path
         d="m -27.301051,120.47244 v -6.3 c 0,-2.115 -1.305,-4.05 -3.2625,-4.05 -1.44,0 -2.79,0.495 -4.005,1.26 v 0.6975 c 1.0125,-0.5625 2.1375,-0.9225 3.3075,-0.9225 1.395,0 2.205,1.485 2.205,3.015 v 0.405 c -0.8775,-0.3825 -1.8225,-0.6075 -2.7675,-0.6075 -2.4075,0 -4.185,1.1025 -4.185,3.375 0,2.16 1.575,3.3525 3.8475,3.3525 1.1475,0 2.205,-0.5175 3.105,-1.2375 v 1.0125 z m -1.755,-1.9575 c -0.675,0.675 -1.5075,1.2375 -2.475,1.2375 -1.5075,0 -2.4975,-0.9225 -2.4975,-2.4075 0,-1.3725 1.125,-2.43 2.4975,-2.43 0.855,0 1.71,0.225 2.475,0.6075 z"
         style="font-size:22.5px;line-height:1.25"
         id="path93" />
      <path
         d="m -16.861071,117.59244 c 0,-1.7775 -1.89,-2.7 -3.735,-3.15 -1.08,-0.27 -2.25,-0.72 -2.25,-1.7775 0,-0.9675 0.99,-1.5975 2.07,-1.5975 1.1925,0 2.385,0.36 3.375,1.0125 v -0.945 c -0.99,-0.6525 -2.1825,-1.0125 -3.375,-1.0125 -1.9575,0 -3.7575,1.1925 -3.7575,3.015 0,1.6425 1.8225,2.4075 3.555,2.835 1.1925,0.2925 2.43,0.9225 2.43,2.07 0,1.0575 -1.08,1.71 -2.2275,1.71 -1.395,0 -2.745,-0.3375 -3.9375,-1.0125 v 0.945 c 1.1925,0.675 2.5425,1.0125 3.9375,1.0125 2.025,0 3.915,-1.215 3.915,-3.105 z"
         style="font-size:22.5px;line-height:1.25"
         id="path95" />
      <path
         d="m -9.2785937,119.68494 v -0.675 c -0.36,0.36 -0.7875003,0.6525 -1.3050003,0.6525 -0.81,0 -0.855,-1.0575 -0.855,-2.0025 v -6.3675 h 2.1600003 v -0.945 h -2.1600003 v -3.375 h -1.0575 c 0,1.8 -1.035,3.4875 -2.6775,3.4875 v 0.8325 h 1.98 v 6.3675 c 0,1.485 0.4725,3.0375 1.755,3.0375 0.8325,0 1.5525003,-0.45 2.1600003,-1.0125 z"
         style="font-size:22.5px;line-height:1.25"
         id="path97" />
      <path
         d="m 1.3413747,115.63494 v -0.225 c 0,-3.1725 -1.7325,-5.2875 -4.3425,-5.2875 -2.6325,0 -4.365,2.115 -4.365,5.2875 0,3.1725 1.7325,5.2875 4.365,5.2875 1.125,0 2.2275,-0.36 3.15,-1.0125 v -0.945 c -1.0575,0.675 -1.9125,0.9225 -3.15,0.9225 -1.9125,0 -2.385,-1.8225 -2.385,-4.0275 z m -1.98,-0.945 h -4.7475 c 0,-1.8 0.765,-3.6225 2.385,-3.6225 1.5975,0 2.3625,1.8225 2.3625,3.6225 z"
         style="font-size:22.5px;line-height:1.25"
         id="path99" />
      <path
         d="m 9.8688439,111.74244 v -1.395 c -0.2475,-0.09 -0.5175,-0.1575 -0.765,-0.1575 -1.26,0 -2.2725,0.8775 -3.0825,1.845 v -1.6875 h -1.755 v 10.125 h 1.755 v -7.4925 c 0.675,-0.7875 1.53,-1.4625 2.565,-1.4625 0.4275,0 0.8775,0.09 1.2825,0.225 z"
         style="font-size:22.5px;line-height:1.25"
         id="path101" />
      <path
         d="m 21.568822,123.05994 v -1.125 h -11.25 v 1.125 z"
         style="font-size:22.5px;line-height:1.25"
         id="path103" />
      <path
         d="m 30.658776,112.68744 v -0.945 c -0.72,-1.0125 -1.89,-1.62 -3.15,-1.62 -2.8125,0 -4.7025,2.115 -4.7025,5.2875 0,3.1725 1.89,5.2875 4.7025,5.2875 1.17,0 2.2725,-0.585 2.925,-1.5525 v -0.945 c -0.765,1.1475 -1.5525,1.5525 -2.925,1.5525 -1.62,0 -2.7225,-1.7325 -2.7225,-4.3425 0,-2.61 1.1025,-4.3425 2.7225,-4.3425 1.395,0 2.34,0.495 3.15,1.62 z"
         style="font-size:22.5px;line-height:1.25"
         id="path105" />
      <path
         d="m 37.251257,119.68494 v -0.675 c -0.4275,0.36 -0.9225,0.6525 -1.485,0.6525 -0.8325,0 -0.99,-1.035 -0.99,-2.0025 v -12.9375 h -1.755 v 12.9375 c 0,1.5075 0.585,3.0375 1.9125,3.0375 0.855,0 1.665,-0.4275 2.3175,-1.0125 z"
         style="font-size:22.5px;line-height:1.25"
         id="path107" />
      <path
         d="m 48.208715,120.47244 -5.22,-6.0075 5.04,-4.1175 h -1.395 l -5.3775,4.41 v -10.035 h -1.755 v 15.75 h 1.755 v -5.6025 l 4.86,5.6025 z"
         style="font-size:22.5px;line-height:1.25"
         id="path109" />
      <path
         d="m 59.683698,123.05994 v -1.125 h -11.25 v 1.125 z"
         style="font-size:22.5px;line-height:1.25"
         id="path111" />
      <path
         d="m 69.62866,115.40994 c 0,-3.4425 -1.53,-5.2875 -4.3425,-5.2875 -2.835,0 -4.365,1.845 -4.365,5.2875 0,3.4425 1.53,5.2875 4.365,5.2875 2.8125,0 4.3425,-1.845 4.3425,-5.2875 z m -1.98,0 c 0,2.8125 -0.8325,4.3425 -2.3625,4.3425 -1.5525,0 -2.385,-1.53 -2.385,-4.3425 0,-2.8125 0.8325,-4.3425 2.385,-4.3425 1.53,0 2.3625,1.53 2.3625,4.3425 z"
         style="font-size:22.5px;line-height:1.25"
         id="path113" />
    </g>
    <path
       style="fill:none;fill-rule:evenodd;stroke:#000000;stroke-width:1px;stroke-linecap:butt;stroke-linejoin:miter;stroke-opacity:1;marker-start:url(#Arrow1Mstart);marker-end:url(#Arrow1Mend)"
       d="M 531.49607,166.53543 H 1438.5827"
       id="path4313" />
    <g
       aria-label="?"
       id="text4627"
       style="line-height:0%;font-family:Iwona;-inkscape-font-specification:Iwona;text-align:center;letter-spacing:0px;word-spacing:0px;text-anchor:middle;stroke-width:1px">
      <path
         d="m 985.84059,161.88963 c 0,-0.6075 -0.495,-1.1025 -1.1025,-1.1025 -0.6075,0 -1.1025,0.495 -1.1025,1.1025 0,0.6075 0.495,1.1025 1.1025,1.1025 0.6075,0 1.1025,-0.495 1.1025,-1.1025 z m 3.3975,-11.4975 c 0,-1.9575 -2.0475,-3.15 -4.2075,-3.15 -1.62,0 -3.1725,0.72 -4.2075,1.9575 v 0.945 c 1.035,-1.2375 2.5875,-1.9575 4.2075,-1.9575 1.305,0 2.4525,0.945 2.4525,2.205 0,1.395 0.0225,1.845 -0.8325,2.9475 -0.72,0.9225 -1.5975,1.7325 -2.0475,2.835 -0.36,0.9225 -0.3375,1.935 -0.3375,2.925 h 0.945 c 0,-2.205 0.45,-2.7675 2.0025,-4.365 1.575,-1.575 2.025,-2.1375 2.025,-4.3425 z"
         style="font-size:22.5px;line-height:1.25"
         id="path116" />
    </g>
    <path
       d="M 81.496073,219.68505 H 531.49608 l 3.5433,-35.43308 h 450.00001 l 3.5433,35.43308 h 450.00001 l 3.5433,-35.43308 131.1024,1e-5"
       style="fill:none;stroke:#000000;stroke-width:2;stroke-linecap:butt;stroke-linejoin:miter;stroke-miterlimit:4;stroke-dasharray:none;stroke-opacity:1"
       id="path4662" />
    <g
       aria-label="serial_clk_o"
       id="text4664"
       style="line-height:0%;font-family:Iwona;-inkscape-font-specification:Iwona;text-align:end;letter-spacing:0px;word-spacing:0px;text-anchor:end">
      <path
         d="m -33.983521,206.17511 c 0,-1.7775 -1.89,-2.7 -3.735,-3.15 -1.08,-0.27 -2.25,-0.72 -2.25,-1.7775 0,-0.9675 0.99,-1.5975 2.07,-1.5975 1.1925,0 2.385,0.36 3.375,1.0125 v -0.945 c -0.99,-0.6525 -2.1825,-1.0125 -3.375,-1.0125 -1.9575,0 -3.7575,1.1925 -3.7575,3.015 0,1.6425 1.8225,2.4075 3.555,2.835 1.1925,0.2925 2.43,0.9225 2.43,2.07 0,1.0575 -1.08,1.71 -2.2275,1.71 -1.395,0 -2.745,-0.3375 -3.9375,-1.0125 v 0.945 c 1.1925,0.675 2.5425,1.0125 3.9375,1.0125 2.025,0 3.915,-1.215 3.915,-3.105 z"
         style="font-size:22.5px;line-height:1.25"
         id="path119" />
      <path
         d="m -23.026045,204.21761 v -0.225 c 0,-3.1725 -1.7325,-5.2875 -4.3425,-5.2875 -2.6325,0 -4.365,2.115 -4.365,5.2875 0,3.1725 1.7325,5.2875 4.365,5.2875 1.125,0 2.2275,-0.36 3.15,-1.0125 v -0.945 c -1.0575,0.675 -1.9125,0.9225 -3.15,0.9225 -1.9125,0 -2.385,-1.8225 -2.385,-4.0275 z m -1.98,-0.945 h -4.7475 c 0,-1.8 0.765,-3.6225 2.385,-3.6225 1.5975,0 2.3625,1.8225 2.3625,3.6225 z"
         style="font-size:22.5px;line-height:1.25"
         id="path121" />
      <path
         d="m -14.498574,200.32511 v -1.395 c -0.2475,-0.09 -0.5175,-0.1575 -0.765,-0.1575 -1.26,0 -2.2725,0.8775 -3.0825,1.845 v -1.6875 h -1.755 v 10.125 h 1.755 v -7.4925 c 0.675,-0.7875 1.53,-1.4625 2.565,-1.4625 0.4275,0 0.8775,0.09 1.2825,0.225 z"
         style="font-size:22.5px;line-height:1.25"
         id="path123" />
      <path
         d="m -8.1310964,208.26761 v -0.675 c -0.4275,0.36 -0.9225,0.6525 -1.485,0.6525 -0.8324996,0 -0.9899996,-1.035 -0.9899996,-2.0025 v -7.3125 h -1.755 v 7.3125 c 0,1.5075 0.585,3.0375 1.9125,3.0375 0.8549996,0 1.6649996,-0.4275 2.3174996,-1.0125 z m -2.2499996,-12.8475 c 0,-0.6075 -0.495,-1.1025 -1.1025,-1.1025 -0.6075,0 -1.1025,0.495 -1.1025,1.1025 0,0.6075 0.495,1.1025 1.1025,1.1025 0.6075,0 1.1025,-0.495 1.1025,-1.1025 z"
         style="font-size:22.5px;line-height:1.25"
         id="path125" />
      <path
         d="m 2.038881,209.05511 v -6.3 c 0,-2.115 -1.30499997,-4.05 -3.2625,-4.05 -1.44,0 -2.79,0.495 -4.005,1.26 v 0.6975 c 1.0125,-0.5625 2.1375,-0.9225 3.3075,-0.9225 1.39500003,0 2.20500003,1.485 2.20500003,3.015 v 0.405 c -0.8775,-0.3825 -1.82250003,-0.6075 -2.76750003,-0.6075 -2.4075,0 -4.185,1.1025 -4.185,3.375 0,2.16 1.575,3.3525 3.8475,3.3525 1.1475,0 2.20500003,-0.5175 3.10500003,-1.2375 v 1.0125 z m -1.75499997,-1.9575 c -0.675,0.675 -1.50750003,1.2375 -2.47500003,1.2375 -1.5075,0 -2.4975,-0.9225 -2.4975,-2.4075 0,-1.3725 1.125,-2.43 2.4975,-2.43 0.855,0 1.71000003,0.225 2.47500003,0.6075 z"
         style="font-size:22.5px;line-height:1.25"
         id="path127" />
      <path
         d="m 9.8688624,208.26761 v -0.675 c -0.4275,0.36 -0.9225,0.6525 -1.485,0.6525 -0.8325,0 -0.99,-1.035 -0.99,-2.0025 v -12.9375 h -1.755 v 12.9375 c 0,1.5075 0.585,3.0375 1.9125,3.0375 0.855,0 1.665,-0.4275 2.3175,-1.0125 z"
         style="font-size:22.5px;line-height:1.25"
         id="path129" />
      <path
         d="m 21.568824,211.64261 v -1.125 h -11.25 v 1.125 z"
         style="font-size:22.5px;line-height:1.25"
         id="path131" />
      <path
         d="m 30.658778,201.27011 v -0.945 c -0.72,-1.0125 -1.89,-1.62 -3.15,-1.62 -2.8125,0 -4.7025,2.115 -4.7025,5.2875 0,3.1725 1.89,5.2875 4.7025,5.2875 1.17,0 2.2725,-0.585 2.925,-1.5525 v -0.945 c -0.765,1.1475 -1.5525,1.5525 -2.925,1.5525 -1.62,0 -2.7225,-1.7325 -2.7225,-4.3425 0,-2.61 1.1025,-4.3425 2.7225,-4.3425 1.395,0 2.34,0.495 3.15,1.62 z"
         style="font-size:22.5px;line-height:1.25"
         id="path133" />
      <path
         d="m 37.251251,208.26761 v -0.675 c -0.4275,0.36 -0.9225,0.6525 -1.485,0.6525 -0.8325,0 -0.99,-1.035 -0.99,-2.0025 v -12.9375 h -1.755 v 12.9375 c 0,1.5075 0.585,3.0375 1.9125,3.0375 0.855,0 1.665,-0.4275 2.3175,-1.0125 z"
         style="font-size:22.5px;line-height:1.25"
         id="path135" />
      <path
         d="m 48.208717,209.05511 -5.22,-6.0075 5.04,-4.1175 h -1.395 l -5.3775,4.41 v -10.035 h -1.755 v 15.75 h 1.755 v -5.6025 l 4.86,5.6025 z"
         style="font-size:22.5px;line-height:1.25"
         id="path137" />
      <path
         d="m 59.6837,211.64261 v -1.125 h -11.25 v 1.125 z"
         style="font-size:22.5px;line-height:1.25"
         id="path139" />
      <path
         d="m 69.628654,203.99261 c 0,-3.4425 -1.53,-5.2875 -4.3425,-5.2875 -2.835,0 -4.365,1.845 -4.365,5.2875 0,3.4425 1.53,5.2875 4.365,5.2875 2.8125,0 4.3425,-1.845 4.3425,-5.2875 z m -1.98,0 c 0,2.8125 -0.8325,4.3425 -2.3625,4.3425 -1.5525,0 -2.385,-1.53 -2.385,-4.3425 0,-2.8125 0.8325,-4.3425 2.385,-4.3425 1.53,0 2.3625,1.53 2.3625,4.3425 z"
         style="font-size:22.5px;line-height:1.25"
         id="path141" />
    </g>
    <path
       id="path4782"
       style="fill:none;stroke:#000000;stroke-width:2;stroke-linecap:butt;stroke-linejoin:miter;stroke-miterlimit:4;stroke-dasharray:none;stroke-opacity:1"
       d="m 81.496077,131.10236 h 53.149613 l 3.5433,-35.433072 h 53.14961 l 3.54331,35.433072 h 53.1496 l 3.54331,-35.433072 h 53.14961 l 3.5433,35.433072 h 53.14961 l 3.54331,-35.433072 h 53.1496 l 3.54331,35.433072 h 53.14961 l 3.5433,-35.433072 h 53.14961 l 3.54331,35.433072 h 53.1496 l 3.54331,-35.433072 53.14962,1e-5 3.54331,35.433062 h 53.14961 l 3.5433,-35.433072 h 53.14961 l 3.54331,35.433072 h 53.1496 l 3.54331,-35.433072 h 53.14961 l 3.5433,35.433072 h 53.14961 l 3.54331,-35.433072 h 53.1496 l 3.5433,35.433072 h 53.1496 l 3.5433,-35.433072 h 53.1496 l 3.5433,35.433072 h 53.1496 l 3.5434,-35.433072 53.1495,1e-5 3.5433,35.433062 h 53.1496 l 3.5433,-35.433072 h 53.1496 l 3.5433,35.433072 h 53.1496 l 3.5434,-35.433072 h 53.1496 l 3.5433,35.433072 h 53.1496 l 3.5433,-35.433072 h 53.1496 l 3.5433,35.433072 17.7166,1e-5" />
    <path
       id="path4784"
       style="fill:none;fill-rule:evenodd;stroke:#000000;stroke-width:1.5;stroke-linecap:butt;stroke-linejoin:miter;stroke-miterlimit:4;stroke-dasharray:none;stroke-opacity:1"
       d="m 81.496074,42.519696 10.629955,-1.1e-5 V 77.952756 H 106.29926 V 42.519685 h 14.17322 v 35.433071 h 14.17323 V 42.519685 h 14.17324 v 35.433071 h 14.17322 V 42.519685 h 14.17322 v 35.433071 h 14.17322 V 42.519685 h 14.17324 v 35.433071 h 14.17322 V 42.519685 h 14.17322 v 35.433071 h 14.17324 V 42.519685 h 14.17324 v 35.433071 h 14.17322 V 42.519685 h 14.17321 v 35.433071 h 14.17324 V 42.519685 h 14.17322 v 35.433071 h 14.17322 V 42.519685 h 14.17324 v 35.433071 h 14.17322 V 42.519685 h 14.17324 V 77.952756 H 389.7638 V 42.519685 h 14.17322 v 35.433071 h 14.17322 V 42.519685 h 14.17324 V 77.952756 H 446.4567 V 42.519685 h 14.17322 v 35.433071 h 14.17324 V 42.519685 h 14.17324 v 35.433071 h 14.17321 V 42.519685 h 14.17322 v 35.433071 h 14.17322 V 42.519685 h 14.17322 v 35.433071 h 14.17324 V 42.519685 h 14.17322 v 35.433071 h 14.17322 V 42.519685 h 14.17324 v 35.433071 h 14.17322 V 42.519685 l 14.17326,-1e-6 V 77.952755 H 644.8819 V 42.519684 h 14.17323 v 35.433071 h 14.17322 V 42.519684 h 14.17323 v 35.433071 h 14.17324 V 42.519684 h 14.17322 v 35.433071 h 14.17322 V 42.519684 h 14.17322 v 35.433071 h 14.17324 V 42.519684 h 14.17322 v 35.433071 h 14.17322 V 42.519684 h 14.17324 v 35.433071 h 14.17324 V 42.519684 h 14.17322 v 35.433071 h 14.17321 V 42.519684 h 14.17324 v 35.433071 h 14.17322 V 42.519684 h 14.17322 v 35.433071 h 14.17324 V 42.519684 h 14.17322 v 35.433071 h 14.17324 V 42.519684 h 14.17322 v 35.433071 h 14.17322 V 42.519684 h 14.17322 v 35.433071 h 14.17324 V 42.519684 h 14.17322 v 35.433071 h 14.17323 V 42.519684 h 14.1732 v 35.433071 h 14.1733 V 42.519684 h 14.1732 v 35.433071 h 14.1732 V 42.519684 h 14.1732 v 35.433071 h 14.1732 V 42.519684 h 14.1733 v 35.433071 h 14.1732 V 42.519684 h 14.1732 v 35.433071 h 14.1733 V 42.519684 h 14.1732 v 35.433071 l 14.1734,10e-7 V 42.519685 h 14.1732 v 35.433071 h 14.1732 V 42.519685 h 14.1733 v 35.433071 h 14.1732 V 42.519685 h 14.1732 v 35.433071 h 14.1733 V 42.519685 h 14.1732 v 35.433071 h 14.1732 V 42.519685 h 14.1732 v 35.433071 h 14.1733 V 42.519685 h 14.1731 v 35.433071 h 14.1733 V 42.519685 h 14.1732 v 35.433071 h 14.1732 V 42.519685 h 14.1732 v 35.433071 h 14.1733 V 42.519685 h 14.1732 v 35.433071 h 14.1732 V 42.519685 h 14.1733 v 35.433071 h 14.1732 V 42.519685 h 14.1732 v 35.433071 h 14.1732 V 42.519685 h 14.1733 v 35.433071 h 14.1732 V 42.519685 h 14.1732 v 35.433071 h 14.1732 V 42.519685 h 14.1733 v 35.433071 l 7.0866,1.1e-5" />
  </g>
</svg>
