<?xml version="1.0" encoding="UTF-8" standalone="no"?>
<!-- Created with Inkscape (http://www.inkscape.org/) -->

<svg
   width="411.04626mm"
   height="46.000004mm"
   viewBox="0 0 1456.4632 162.99214"
   id="svg2"
   version="1.1"
   xmlns="http://www.w3.org/2000/svg"
   xmlns:svg="http://www.w3.org/2000/svg"
   xmlns:rdf="http://www.w3.org/1999/02/22-rdf-syntax-ns#"
   xmlns:cc="http://creativecommons.org/ns#"
   xmlns:dc="http://purl.org/dc/elements/1.1/">
  <defs
     id="defs4" />
  <metadata
     id="metadata7">
    <rdf:RDF>
      <cc:Work
         rdf:about="">
        <dc:format>image/svg+xml</dc:format>
        <dc:type
           rdf:resource="http://purl.org/dc/dcmitype/StillImage" />
        <dc:title />
      </cc:Work>
    </rdf:RDF>
  </metadata>
  <g
     id="layer2"
     transform="translate(21.033449,-43.269698)">
    <path
       id="rect3493"
       style="opacity:1;fill:#ffbd54;stroke-linecap:round;stroke-linejoin:bevel;stroke-dasharray:2, 4"
       d="m 150.98093,50.356312 h 3.5433 v 42.51968 h -3.5433 z" />
    <path
       id="rect8302"
       style="opacity:1;fill:#ffbd54;stroke-linecap:round;stroke-linejoin:bevel;stroke-dasharray:2, 4"
       d="m 163.38249,50.356312 h 3.54331 V 146.0256 h -3.54331 z" />
    <path
       id="rect8304"
       style="opacity:1;fill:#ffbd54;stroke-linecap:round;stroke-linejoin:bevel;stroke-dasharray:2, 4"
       d="m 175.78407,50.356312 h 3.54331 v 42.51968 h -3.54331 z" />
    <path
       id="rect8306"
       style="opacity:1;fill:#ffbd54;stroke-linecap:round;stroke-linejoin:bevel;stroke-dasharray:2, 4"
       d="m 188.18564,50.356312 h 3.54331 v 95.669298 h -3.54331 z" />
    <path
       id="rect8308"
       style="opacity:1;fill:#ffbd54;stroke-linecap:round;stroke-linejoin:bevel;stroke-dasharray:2, 4"
       d="m 200.58722,50.356312 h 3.54331 v 42.51968 h -3.54331 z" />
    <path
       id="rect8310"
       style="opacity:1;fill:#ffbd54;stroke-linecap:round;stroke-linejoin:bevel;stroke-dasharray:2, 4"
       d="m 212.98878,50.356312 h 3.54331 V 146.0256 h -3.54331 z" />
    <path
       id="rect8312"
       style="opacity:1;fill:#ffbd54;stroke-linecap:round;stroke-linejoin:bevel;stroke-dasharray:2, 4"
       d="m 225.39037,50.356312 h 3.5433 v 42.51968 h -3.5433 z" />
    <path
       id="rect8314"
       style="opacity:1;fill:#ffbd54;stroke-linecap:round;stroke-linejoin:bevel;stroke-dasharray:2, 4"
       d="m 237.79193,50.356312 h 3.54331 v 95.669298 h -3.54331 z" />
    <path
       id="rect8316"
       style="opacity:1;fill:#ffbd54;stroke-linecap:round;stroke-linejoin:bevel;stroke-dasharray:2, 4"
       d="m 250.19351,50.356312 h 3.54331 v 42.51968 h -3.54331 z" />
    <path
       id="rect8318"
       style="opacity:1;fill:#ffbd54;stroke-linecap:round;stroke-linejoin:bevel;stroke-dasharray:2, 4"
       d="m 262.59509,50.356312 h 3.54331 V 146.0256 h -3.54331 z" />
    <path
       id="rect8320"
       style="opacity:1;fill:#ffbd54;stroke-linecap:round;stroke-linejoin:bevel;stroke-dasharray:2, 4"
       d="m 274.99667,50.356312 h 3.54331 v 42.51968 h -3.54331 z" />
    <path
       id="rect8322"
       style="opacity:1;fill:#ffbd54;stroke-linecap:round;stroke-linejoin:bevel;stroke-dasharray:2, 4"
       d="m 287.39825,50.356312 h 3.54331 v 95.669298 h -3.54331 z" />
    <path
       id="rect8324"
       style="opacity:1;fill:#ffbd54;stroke-linecap:round;stroke-linejoin:bevel;stroke-dasharray:2, 4"
       d="m 299.79984,50.356312 h 3.5433 v 42.51968 h -3.5433 z" />
    <path
       id="rect8326"
       style="opacity:1;fill:#ffbd54;stroke-linecap:round;stroke-linejoin:bevel;stroke-dasharray:2, 4"
       d="m 312.20139,50.356312 h 3.5433 V 146.0256 h -3.5433 z" />
    <path
       id="rect8328"
       style="opacity:1;fill:#ffbd54;stroke-linecap:round;stroke-linejoin:bevel;stroke-dasharray:2, 4"
       d="m 324.60297,50.356312 h 3.5433 v 42.51968 h -3.5433 z" />
    <path
       id="rect8330"
       style="opacity:1;fill:#ffbd54;stroke-linecap:round;stroke-linejoin:bevel;stroke-dasharray:2, 4"
       d="m 337.00455,50.356312 h 3.5433 v 95.669298 h -3.5433 z" />
    <path
       id="rect8332"
       style="opacity:1;fill:#ffbd54;stroke-linecap:round;stroke-linejoin:bevel;stroke-dasharray:2, 4"
       d="m 349.40613,50.356312 h 3.5433 v 42.51968 h -3.5433 z" />
    <path
       id="rect8334"
       style="opacity:1;fill:#ffbd54;stroke-linecap:round;stroke-linejoin:bevel;stroke-dasharray:2, 4"
       d="m 361.80768,50.356312 h 3.54331 V 146.0256 h -3.54331 z" />
    <path
       id="rect8336"
       style="opacity:1;fill:#ffbd54;stroke-linecap:round;stroke-linejoin:bevel;stroke-dasharray:2, 4"
       d="m 374.20926,50.356312 h 3.54331 v 42.51968 h -3.54331 z" />
    <path
       id="rect8338"
       style="opacity:1;fill:#ffbd54;stroke-linecap:round;stroke-linejoin:bevel;stroke-dasharray:2, 4"
       d="m 386.61084,50.356312 h 3.54331 v 95.669298 h -3.54331 z" />
    <path
       id="rect8340"
       style="opacity:1;fill:#ffbd54;stroke-linecap:round;stroke-linejoin:bevel;stroke-dasharray:2, 4"
       d="m 399.01242,50.356312 h 3.54331 v 42.51968 h -3.54331 z" />
    <path
       id="rect8342"
       style="opacity:1;fill:#ffbd54;stroke-linecap:round;stroke-linejoin:bevel;stroke-dasharray:2, 4"
       d="m 411.41397,50.356312 h 3.54331 V 146.0256 h -3.54331 z" />
    <path
       id="rect8344"
       style="opacity:1;fill:#ffbd54;stroke-linecap:round;stroke-linejoin:bevel;stroke-dasharray:2, 4"
       d="m 423.81555,50.356312 h 3.54331 v 42.51968 h -3.54331 z" />
    <path
       id="rect8346"
       style="opacity:1;fill:#ffbd54;stroke-linecap:round;stroke-linejoin:bevel;stroke-dasharray:2, 4"
       d="m 436.21713,50.356312 h 3.54331 v 95.669298 h -3.54331 z" />
    <path
       id="rect8348"
       style="opacity:1;fill:#ffbd54;stroke-linecap:round;stroke-linejoin:bevel;stroke-dasharray:2, 4"
       d="m 448.61871,50.356312 h 3.54331 v 42.51968 h -3.54331 z" />
    <path
       id="rect8350"
       style="opacity:1;fill:#ffbd54;stroke-linecap:round;stroke-linejoin:bevel;stroke-dasharray:2, 4"
       d="m 461.02029,50.356312 h 3.54331 V 146.0256 h -3.54331 z" />
    <path
       id="rect8352"
       style="opacity:1;fill:#ffbd54;stroke-linecap:round;stroke-linejoin:bevel;stroke-dasharray:2, 4"
       d="m 473.42184,50.356312 h 3.54331 v 42.51968 h -3.54331 z" />
    <path
       id="rect8354"
       style="opacity:1;fill:#ffbd54;stroke-linecap:round;stroke-linejoin:bevel;stroke-dasharray:2, 4"
       d="m 485.82343,50.356312 h 3.5433 v 95.669298 h -3.5433 z" />
    <path
       id="rect8356"
       style="opacity:1;fill:#ffbd54;stroke-linecap:round;stroke-linejoin:bevel;stroke-dasharray:2, 4"
       d="m 498.22501,50.356312 h 3.5433 v 42.51968 h -3.5433 z" />
    <path
       id="rect8358"
       style="opacity:1;fill:#ffbd54;stroke-linecap:round;stroke-linejoin:bevel;stroke-dasharray:2, 4"
       d="m 510.62659,50.356312 h 3.5433 V 146.0256 h -3.5433 z" />
    <path
       id="rect8360"
       style="opacity:1;fill:#ffbd54;stroke-linecap:round;stroke-linejoin:bevel;stroke-dasharray:2, 4"
       d="m 523.02814,50.356312 h 3.5433 v 42.51968 h -3.5433 z" />
    <path
       id="rect8362"
       style="opacity:1;fill:#ffbd54;stroke-linecap:round;stroke-linejoin:bevel;stroke-dasharray:2, 4"
       d="m 535.42969,50.356312 h 3.5433 V 199.17522 h -3.5433 z" />
    <path
       id="rect8397"
       style="opacity:1;fill:#ffbd54;stroke-linecap:round;stroke-linejoin:bevel;stroke-dasharray:2, 4"
       d="m 547.8313,50.356312 h 3.54331 v 42.51968 h -3.54331 z" />
    <path
       id="rect8399"
       style="opacity:1;fill:#ffbd54;stroke-linecap:round;stroke-linejoin:bevel;stroke-dasharray:2, 4"
       d="m 560.23291,50.356312 h 3.54331 V 146.0256 h -3.54331 z" />
    <path
       id="rect8401"
       style="opacity:1;fill:#ffbd54;stroke-linecap:round;stroke-linejoin:bevel;stroke-dasharray:2, 4"
       d="m 572.63446,50.356312 h 3.54331 v 42.51968 h -3.54331 z" />
    <path
       id="rect8403"
       style="opacity:1;fill:#ffbd54;stroke-linecap:round;stroke-linejoin:bevel;stroke-dasharray:2, 4"
       d="m 585.03601,50.356312 h 3.54331 v 95.669298 h -3.54331 z" />
    <path
       id="rect8405"
       style="opacity:1;fill:#ffbd54;stroke-linecap:round;stroke-linejoin:bevel;stroke-dasharray:2, 4"
       d="m 597.43762,50.356312 h 3.54331 v 42.51968 h -3.54331 z" />
    <path
       id="rect8407"
       style="opacity:1;fill:#ffbd54;stroke-linecap:round;stroke-linejoin:bevel;stroke-dasharray:2, 4"
       d="m 609.83917,50.356312 h 3.54331 V 146.0256 h -3.54331 z" />
    <path
       id="rect8409"
       style="opacity:1;fill:#ffbd54;stroke-linecap:round;stroke-linejoin:bevel;stroke-dasharray:2, 4"
       d="m 622.24078,50.356312 h 3.54331 v 42.51968 h -3.54331 z" />
    <path
       id="rect8411"
       style="opacity:1;fill:#ffbd54;stroke-linecap:round;stroke-linejoin:bevel;stroke-dasharray:2, 4"
       d="m 634.64233,50.356312 h 3.54331 v 95.669298 h -3.54331 z" />
    <path
       id="rect8413"
       style="opacity:1;fill:#ffbd54;stroke-linecap:round;stroke-linejoin:bevel;stroke-dasharray:2, 4"
       d="m 647.04388,50.356312 h 3.54331 v 42.51968 h -3.54331 z" />
    <path
       id="rect8415"
       style="opacity:1;fill:#ffbd54;stroke-linecap:round;stroke-linejoin:bevel;stroke-dasharray:2, 4"
       d="m 659.4455,50.356312 h 3.5433 V 146.0256 h -3.5433 z" />
    <path
       id="rect8417"
       style="opacity:1;fill:#ffbd54;stroke-linecap:round;stroke-linejoin:bevel;stroke-dasharray:2, 4"
       d="m 671.84705,50.356312 h 3.5433 v 42.51968 h -3.5433 z" />
    <path
       id="rect8419"
       style="opacity:1;fill:#ffbd54;stroke-linecap:round;stroke-linejoin:bevel;stroke-dasharray:2, 4"
       d="m 684.24866,50.356312 h 3.5433 v 95.669298 h -3.5433 z" />
    <path
       id="rect8421"
       style="opacity:1;fill:#ffbd54;stroke-linecap:round;stroke-linejoin:bevel;stroke-dasharray:2, 4"
       d="m 696.65021,50.356312 h 3.5433 v 42.51968 h -3.5433 z" />
    <path
       id="rect8423"
       style="opacity:1;fill:#ffbd54;stroke-linecap:round;stroke-linejoin:bevel;stroke-dasharray:2, 4"
       d="m 709.05176,50.356312 h 3.5433 V 146.0256 h -3.5433 z" />
    <path
       id="rect8425"
       style="opacity:1;fill:#ffbd54;stroke-linecap:round;stroke-linejoin:bevel;stroke-dasharray:2, 4"
       d="m 721.45337,50.356312 h 3.54331 v 42.51968 h -3.54331 z" />
    <path
       id="rect8427"
       style="opacity:1;fill:#ffbd54;stroke-linecap:round;stroke-linejoin:bevel;stroke-dasharray:2, 4"
       d="m 733.85492,50.356312 h 3.54331 v 95.669298 h -3.54331 z" />
    <path
       id="rect8429"
       style="opacity:1;fill:#ffbd54;stroke-linecap:round;stroke-linejoin:bevel;stroke-dasharray:2, 4"
       d="m 746.25653,50.356312 h 3.54331 v 42.51968 h -3.54331 z" />
    <path
       id="rect8431"
       style="opacity:1;fill:#ffbd54;stroke-linecap:round;stroke-linejoin:bevel;stroke-dasharray:2, 4"
       d="m 758.65808,50.356312 h 3.54331 V 146.0256 h -3.54331 z" />
    <path
       id="rect8433"
       style="opacity:1;fill:#ffbd54;stroke-linecap:round;stroke-linejoin:bevel;stroke-dasharray:2, 4"
       d="m 771.05963,50.356312 h 3.54331 v 42.51968 h -3.54331 z" />
    <path
       id="rect8435"
       style="opacity:1;fill:#ffbd54;stroke-linecap:round;stroke-linejoin:bevel;stroke-dasharray:2, 4"
       d="m 783.46124,50.356312 h 3.54331 v 95.669298 h -3.54331 z" />
    <path
       id="rect8437"
       style="opacity:1;fill:#ffbd54;stroke-linecap:round;stroke-linejoin:bevel;stroke-dasharray:2, 4"
       d="m 795.86279,50.356312 h 3.54331 v 42.51968 h -3.54331 z" />
    <path
       id="rect8439"
       style="opacity:1;fill:#ffbd54;stroke-linecap:round;stroke-linejoin:bevel;stroke-dasharray:2, 4"
       d="m 808.26434,50.356312 h 3.54331 V 146.0256 h -3.54331 z" />
    <path
       id="rect8441"
       style="opacity:1;fill:#ffbd54;stroke-linecap:round;stroke-linejoin:bevel;stroke-dasharray:2, 4"
       d="m 820.66595,50.356312 h 3.54331 v 42.51968 h -3.54331 z" />
    <path
       id="rect8443"
       style="opacity:1;fill:#ffbd54;stroke-linecap:round;stroke-linejoin:bevel;stroke-dasharray:2, 4"
       d="m 833.0675,50.356312 h 3.54331 v 95.669298 h -3.54331 z" />
    <path
       id="rect8445"
       style="opacity:1;fill:#ffbd54;stroke-linecap:round;stroke-linejoin:bevel;stroke-dasharray:2, 4"
       d="m 845.46912,50.356312 h 3.5433 v 42.51968 h -3.5433 z" />
    <path
       id="rect8447"
       style="opacity:1;fill:#ffbd54;stroke-linecap:round;stroke-linejoin:bevel;stroke-dasharray:2, 4"
       d="m 857.87067,50.356312 h 3.5433 V 146.0256 h -3.5433 z" />
    <path
       id="rect8449"
       style="opacity:1;fill:#ffbd54;stroke-linecap:round;stroke-linejoin:bevel;stroke-dasharray:2, 4"
       d="m 870.27222,50.356312 h 3.5433 v 42.51968 h -3.5433 z" />
    <path
       id="rect8451"
       style="opacity:1;fill:#ffbd54;stroke-linecap:round;stroke-linejoin:bevel;stroke-dasharray:2, 4"
       d="m 882.67383,50.356312 h 3.54331 v 95.669298 h -3.54331 z" />
    <path
       id="rect8453"
       style="opacity:1;fill:#ffbd54;stroke-linecap:round;stroke-linejoin:bevel;stroke-dasharray:2, 4"
       d="m 895.07538,50.356312 h 3.54331 v 42.51968 h -3.54331 z" />
    <path
       id="rect8455"
       style="opacity:1;fill:#ffbd54;stroke-linecap:round;stroke-linejoin:bevel;stroke-dasharray:2, 4"
       d="m 907.47699,50.356312 h 3.54331 V 146.0256 h -3.54331 z" />
    <path
       id="rect8457"
       style="opacity:1;fill:#ffbd54;stroke-linecap:round;stroke-linejoin:bevel;stroke-dasharray:2, 4"
       d="m 919.87854,50.356312 h 3.54331 v 42.51968 h -3.54331 z" />
    <path
       id="rect8459"
       style="opacity:1;fill:#ffbd54;stroke-linecap:round;stroke-linejoin:bevel;stroke-dasharray:2, 4"
       d="m 932.28009,50.356312 h 3.54331 V 199.17522 h -3.54331 z" />
    <path
       id="rect8461"
       style="opacity:1;fill:#ffbd54;stroke-linecap:round;stroke-linejoin:bevel;stroke-dasharray:2, 4"
       d="m 944.6817,50.356312 h 3.54331 v 42.51968 h -3.54331 z" />
    <path
       id="rect8463"
       style="opacity:1;fill:#ffbd54;stroke-linecap:round;stroke-linejoin:bevel;stroke-dasharray:2, 4"
       d="m 957.08325,50.356312 h 3.54331 V 146.0256 h -3.54331 z" />
    <path
       id="rect8465"
       style="opacity:1;fill:#ffbd54;stroke-linecap:round;stroke-linejoin:bevel;stroke-dasharray:2, 4"
       d="m 969.48486,50.356312 h 3.54331 v 42.51968 h -3.54331 z" />
    <path
       id="rect8467"
       style="opacity:1;fill:#ffbd54;stroke-linecap:round;stroke-linejoin:bevel;stroke-dasharray:2, 4"
       d="m 981.88641,50.356312 h 3.54331 v 95.669298 h -3.54331 z" />
    <path
       id="rect8469"
       style="opacity:1;fill:#ffbd54;stroke-linecap:round;stroke-linejoin:bevel;stroke-dasharray:2, 4"
       d="m 994.28796,50.356312 h 3.54331 v 42.51968 h -3.54331 z" />
    <path
       id="rect8471"
       style="opacity:1;fill:#ffbd54;stroke-linecap:round;stroke-linejoin:bevel;stroke-dasharray:2, 4"
       d="m 1006.6895,50.356312 h 3.5433 V 146.0256 h -3.5433 z" />
    <path
       id="rect8473"
       style="opacity:1;fill:#ffbd54;stroke-linecap:round;stroke-linejoin:bevel;stroke-dasharray:2, 4"
       d="m 1019.0911,50.356312 h 3.5433 v 42.51968 h -3.5433 z" />
    <path
       id="rect8475"
       style="opacity:1;fill:#ffbd54;stroke-linecap:round;stroke-linejoin:bevel;stroke-dasharray:2, 4"
       d="m 1031.4926,50.356312 h 3.5433 v 95.669298 h -3.5433 z" />
    <path
       id="rect8477"
       style="opacity:1;fill:#ffbd54;stroke-linecap:round;stroke-linejoin:bevel;stroke-dasharray:2, 4"
       d="m 1043.894,50.356312 h 3.5434 v 42.51968 h -3.5434 z" />
    <path
       id="rect8479"
       style="opacity:1;fill:#ffbd54;stroke-linecap:round;stroke-linejoin:bevel;stroke-dasharray:2, 4"
       d="m 1056.2957,50.356312 h 3.5433 V 146.0256 h -3.5433 z" />
    <path
       id="rect8481"
       style="opacity:1;fill:#ffbd54;stroke-linecap:round;stroke-linejoin:bevel;stroke-dasharray:2, 4"
       d="m 1068.6973,50.356312 h 3.5433 v 42.51968 h -3.5433 z" />
    <path
       id="rect8483"
       style="opacity:1;fill:#ffbd54;stroke-linecap:round;stroke-linejoin:bevel;stroke-dasharray:2, 4"
       d="m 1081.0989,50.356312 h 3.5433 v 95.669298 h -3.5433 z" />
    <path
       id="rect8485"
       style="opacity:1;fill:#ffbd54;stroke-linecap:round;stroke-linejoin:bevel;stroke-dasharray:2, 4"
       d="m 1093.5004,50.356312 h 3.5433 v 42.51968 h -3.5433 z" />
    <path
       id="rect8487"
       style="opacity:1;fill:#ffbd54;stroke-linecap:round;stroke-linejoin:bevel;stroke-dasharray:2, 4"
       d="m 1105.902,50.356312 h 3.5433 V 146.0256 h -3.5433 z" />
    <path
       id="rect8489"
       style="opacity:1;fill:#ffbd54;stroke-linecap:round;stroke-linejoin:bevel;stroke-dasharray:2, 4"
       d="m 1118.3036,50.356312 h 3.5433 v 42.51968 h -3.5433 z" />
    <path
       id="rect8491"
       style="opacity:1;fill:#ffbd54;stroke-linecap:round;stroke-linejoin:bevel;stroke-dasharray:2, 4"
       d="m 1130.7051,50.356312 h 3.5433 v 95.669298 h -3.5433 z" />
    <path
       id="rect8493"
       style="opacity:1;fill:#ffbd54;stroke-linecap:round;stroke-linejoin:bevel;stroke-dasharray:2, 4"
       d="m 1143.1067,50.356312 h 3.5433 v 42.51968 h -3.5433 z" />
    <path
       id="rect8495"
       style="opacity:1;fill:#ffbd54;stroke-linecap:round;stroke-linejoin:bevel;stroke-dasharray:2, 4"
       d="m 1155.5083,50.356312 h 3.5433 V 146.0256 h -3.5433 z" />
    <path
       id="rect8497"
       style="opacity:1;fill:#ffbd54;stroke-linecap:round;stroke-linejoin:bevel;stroke-dasharray:2, 4"
       d="m 1167.9098,50.356312 h 3.5433 v 42.51968 h -3.5433 z" />
    <path
       id="rect8499"
       style="opacity:1;fill:#ffbd54;stroke-linecap:round;stroke-linejoin:bevel;stroke-dasharray:2, 4"
       d="m 1180.3114,50.356312 h 3.5433 v 95.669298 h -3.5433 z" />
    <path
       id="rect8501"
       style="opacity:1;fill:#ffbd54;stroke-linecap:round;stroke-linejoin:bevel;stroke-dasharray:2, 4"
       d="m 1192.713,50.356312 h 3.5433 v 42.51968 h -3.5433 z" />
    <path
       id="rect8503"
       style="opacity:1;fill:#ffbd54;stroke-linecap:round;stroke-linejoin:bevel;stroke-dasharray:2, 4"
       d="m 1205.1145,50.356312 h 3.5433 V 146.0256 h -3.5433 z" />
    <path
       id="rect8505"
       style="opacity:1;fill:#ffbd54;stroke-linecap:round;stroke-linejoin:bevel;stroke-dasharray:2, 4"
       d="m 1217.5161,50.356312 h 3.5433 v 42.51968 h -3.5433 z" />
    <path
       id="rect8507"
       style="opacity:1;fill:#ffbd54;stroke-linecap:round;stroke-linejoin:bevel;stroke-dasharray:2, 4"
       d="m 1229.9177,50.356312 h 3.5433 v 95.669298 h -3.5433 z" />
    <path
       id="rect8509"
       style="opacity:1;fill:#ffbd54;stroke-linecap:round;stroke-linejoin:bevel;stroke-dasharray:2, 4"
       d="m 1242.3193,50.356312 h 3.5433 v 42.51968 h -3.5433 z" />
    <path
       id="rect8511"
       style="opacity:1;fill:#ffbd54;stroke-linecap:round;stroke-linejoin:bevel;stroke-dasharray:2, 4"
       d="m 1254.7208,50.356312 h 3.5433 V 146.0256 h -3.5433 z" />
    <path
       id="rect8513"
       style="opacity:1;fill:#ffbd54;stroke-linecap:round;stroke-linejoin:bevel;stroke-dasharray:2, 4"
       d="m 1267.1224,50.356312 h 3.5433 v 42.51968 h -3.5433 z" />
    <path
       id="rect8515"
       style="opacity:1;fill:#ffbd54;stroke-linecap:round;stroke-linejoin:bevel;stroke-dasharray:2, 4"
       d="m 1279.524,50.356312 h 3.5434 v 95.669298 h -3.5434 z" />
    <path
       id="rect8517"
       style="opacity:1;fill:#ffbd54;stroke-linecap:round;stroke-linejoin:bevel;stroke-dasharray:2, 4"
       d="m 1291.9255,50.356312 h 3.5433 v 42.51968 h -3.5433 z" />
    <path
       id="rect8519"
       style="opacity:1;fill:#ffbd54;stroke-linecap:round;stroke-linejoin:bevel;stroke-dasharray:2, 4"
       d="m 1304.3271,50.356312 h 3.5434 V 146.0256 h -3.5434 z" />
    <path
       id="rect8521"
       style="opacity:1;fill:#ffbd54;stroke-linecap:round;stroke-linejoin:bevel;stroke-dasharray:2, 4"
       d="m 1316.7288,50.356312 h 3.5433 v 42.51968 h -3.5433 z" />
    <path
       id="rect8523"
       style="opacity:1;fill:#ffbd54;stroke-linecap:round;stroke-linejoin:bevel;stroke-dasharray:2, 4"
       d="m 1329.1302,50.356312 h 3.5434 V 199.17522 h -3.5434 z" />
    <path
       id="rect8525"
       style="opacity:1;fill:#ffbd54;stroke-linecap:round;stroke-linejoin:bevel;stroke-dasharray:2, 4"
       d="m 1341.532,50.356312 h 3.5433 v 42.51968 h -3.5433 z" />
    <path
       id="rect8527"
       style="opacity:1;fill:#ffbd54;stroke-linecap:round;stroke-linejoin:bevel;stroke-dasharray:2, 4"
       d="m 1353.9335,50.356312 h 3.5433 V 146.0256 h -3.5433 z" />
    <path
       id="rect8529"
       style="opacity:1;fill:#ffbd54;stroke-linecap:round;stroke-linejoin:bevel;stroke-dasharray:2, 4"
       d="m 1366.3351,50.356312 h 3.5433 v 42.51968 h -3.5433 z" />
    <path
       id="rect8531"
       style="opacity:1;fill:#ffbd54;stroke-linecap:round;stroke-linejoin:bevel;stroke-dasharray:2, 4"
       d="m 1378.7367,50.356312 h 3.5433 v 95.669298 h -3.5433 z" />
    <path
       id="rect8533"
       style="opacity:1;fill:#ffbd54;stroke-linecap:round;stroke-linejoin:bevel;stroke-dasharray:2, 4"
       d="m 1391.1382,50.356312 h 3.5433 v 42.51968 h -3.5433 z" />
    <path
       id="rect8535"
       style="opacity:1;fill:#ffbd54;stroke-linecap:round;stroke-linejoin:bevel;stroke-dasharray:2, 4"
       d="m 1403.5398,50.356312 h 3.5433 V 146.0256 h -3.5433 z" />
    <path
       id="rect8537"
       style="opacity:1;fill:#ffbd54;stroke-linecap:round;stroke-linejoin:bevel;stroke-dasharray:2, 4"
       d="m 1415.9414,50.356312 h 3.5433 v 42.51968 h -3.5433 z" />
  </g>
  <g
     id="layer1"
     transform="translate(92.289939,-67.322846)">
    <g
       aria-label="serial_clk_o"
       id="text3352"
       style="line-height:0%;font-family:Iwona;-inkscape-font-specification:Iwona;text-align:end;letter-spacing:0px;word-spacing:0px;text-anchor:end">
      <path
         d="m -44.613453,99.87592 c 0,-1.7775 -1.89,-2.7 -3.735,-3.15 -1.08,-0.27 -2.25,-0.72 -2.25,-1.7775 0,-0.9675 0.99,-1.5975 2.07,-1.5975 1.1925,0 2.385,0.36 3.375,1.0125 v -0.945 c -0.99,-0.6525 -2.1825,-1.0125 -3.375,-1.0125 -1.9575,0 -3.7575,1.1925 -3.7575,3.015 0,1.6425 1.8225,2.4075 3.555,2.835 1.1925,0.2925 2.43,0.9225 2.43,2.07 0,1.0575 -1.08,1.71 -2.2275,1.71 -1.395,0 -2.745,-0.3375 -3.9375,-1.0125 v 0.945 c 1.1925,0.675 2.5425,1.0125 3.9375,1.0125 2.025,0 3.915,-1.215 3.915,-3.105 z"
         style="font-size:22.5px;line-height:1.25"
         id="path338" />
      <path
         d="m -33.655977,97.91842 v -0.225 c 0,-3.1725 -1.7325,-5.2875 -4.3425,-5.2875 -2.6325,0 -4.365,2.115 -4.365,5.2875 0,3.1725 1.7325,5.2875 4.365,5.2875 1.125,0 2.2275,-0.36 3.15,-1.0125 v -0.945 c -1.0575,0.675 -1.9125,0.9225 -3.15,0.9225 -1.9125,0 -2.385,-1.8225 -2.385,-4.0275 z m -1.98,-0.945 h -4.7475 c 0,-1.8 0.765,-3.6225 2.385,-3.6225 1.5975,0 2.3625,1.8225 2.3625,3.6225 z"
         style="font-size:22.5px;line-height:1.25"
         id="path340" />
      <path
         d="m -25.128507,94.02592 v -1.395 c -0.2475,-0.09 -0.5175,-0.1575 -0.765,-0.1575 -1.26,0 -2.2725,0.8775 -3.0825,1.845 v -1.6875 h -1.755 v 10.125 h 1.755 v -7.4925 c 0.675,-0.7875 1.53,-1.4625 2.565,-1.4625 0.4275,0 0.8775,0.09 1.2825,0.225 z"
         style="font-size:22.5px;line-height:1.25"
         id="path342" />
      <path
         d="m -18.761029,101.96842 v -0.675 c -0.4275,0.36 -0.9225,0.6525 -1.485,0.6525 -0.8325,0 -0.99,-1.035 -0.99,-2.0025 v -7.3125 h -1.755 v 7.3125 c 0,1.5075 0.585,3.0375 1.9125,3.0375 0.855,0 1.665,-0.4275 2.3175,-1.0125 z m -2.25,-12.8475 c 0,-0.6075 -0.495,-1.1025 -1.1025,-1.1025 -0.6075,0 -1.1025,0.495 -1.1025,1.1025 0,0.6075 0.495,1.1025 1.1025,1.1025 0.6075,0 1.1025,-0.495 1.1025,-1.1025 z"
         style="font-size:22.5px;line-height:1.25"
         id="path344" />
      <path
         d="m -8.5910514,102.75592 v -6.3 c 0,-2.115 -1.305,-4.05 -3.2624996,-4.05 -1.44,0 -2.79,0.495 -4.005,1.26 v 0.6975 c 1.0125,-0.5625 2.1375,-0.9225 3.3075,-0.9225 1.395,0 2.205,1.485 2.205,3.015 v 0.405 c -0.8775,-0.3825 -1.8225,-0.6075 -2.7675,-0.6075 -2.4075,0 -4.185,1.1025 -4.185,3.375 0,2.16 1.575,3.3525 3.8475,3.3525 1.1475,0 2.205,-0.5175 3.105,-1.2375 v 1.0125 z m -1.7549996,-1.9575 c -0.675,0.675 -1.5075,1.2375 -2.475,1.2375 -1.5075,0 -2.4975,-0.9225 -2.4975,-2.4075 0,-1.3725 1.125,-2.43 2.4975,-2.43 0.855,0 1.71,0.225 2.475,0.6075 z"
         style="font-size:22.5px;line-height:1.25"
         id="path346" />
      <path
         d="m -0.76106998,101.96842 v -0.675 c -0.42750002,0.36 -0.92250002,0.6525 -1.48500002,0.6525 -0.8325,0 -0.99,-1.035 -0.99,-2.0025 v -12.9375 h -1.755 v 12.9375 c 0,1.5075 0.585,3.0375 1.9125,3.0375 0.855,0 1.665,-0.4275 2.31750002,-1.0125 z"
         style="font-size:22.5px;line-height:1.25"
         id="path348" />
      <path
         d="m 10.938891,105.34342 v -1.125 H -0.31110859 v 1.125 z"
         style="font-size:22.5px;line-height:1.25"
         id="path350" />
      <path
         d="m 20.028846,94.97092 v -0.945 c -0.72,-1.0125 -1.89,-1.62 -3.15,-1.62 -2.8125,0 -4.7025,2.115 -4.7025,5.2875 0,3.1725 1.89,5.2875 4.7025,5.2875 1.17,0 2.2725,-0.585 2.925,-1.5525 v -0.945 c -0.765,1.1475 -1.5525,1.5525 -2.925,1.5525 -1.62,0 -2.7225,-1.7325 -2.7225,-4.3425 0,-2.61 1.1025,-4.3425 2.7225,-4.3425 1.395,0 2.34,0.495 3.15,1.62 z"
         style="font-size:22.5px;line-height:1.25"
         id="path352" />
      <path
         d="m 26.621319,101.96842 v -0.675 c -0.4275,0.36 -0.9225,0.6525 -1.485,0.6525 -0.8325,0 -0.99,-1.035 -0.99,-2.0025 v -12.9375 h -1.755 v 12.9375 c 0,1.5075 0.585,3.0375 1.9125,3.0375 0.855,0 1.665,-0.4275 2.3175,-1.0125 z"
         style="font-size:22.5px;line-height:1.25"
         id="path354" />
      <path
         d="m 37.578784,102.75592 -5.22,-6.0075 5.04,-4.1175 h -1.395 l -5.3775,4.41 v -10.035 h -1.755 v 15.75 h 1.755 v -5.6025 l 4.86,5.6025 z"
         style="font-size:22.5px;line-height:1.25"
         id="path356" />
      <path
         d="m 49.053767,105.34342 v -1.125 h -11.25 v 1.125 z"
         style="font-size:22.5px;line-height:1.25"
         id="path358" />
      <path
         d="m 58.998721,97.69342 c 0,-3.4425 -1.53,-5.2875 -4.3425,-5.2875 -2.835,0 -4.365,1.845 -4.365,5.2875 0,3.4425 1.53,5.2875 4.365,5.2875 2.8125,0 4.3425,-1.845 4.3425,-5.2875 z m -1.98,0 c 0,2.8125 -0.8325,4.3425 -2.3625,4.3425 -1.5525,0 -2.385,-1.53 -2.385,-4.3425 0,-2.8125 0.8325,-4.3425 2.385,-4.3425 1.53,0 2.3625,1.53 2.3625,4.3425 z"
         style="font-size:22.5px;line-height:1.25"
         id="path360" />
    </g>
    <path
       d="M 70.866152,219.68505 H 464.17324 l 3.5433,-35.43308 h 393.30709 l 3.5433,35.43308 H 1257.874 l 3.5433,-35.43308 95.6693,1e-5"
       style="fill:none;stroke:#000000;stroke-width:2;stroke-linecap:butt;stroke-linejoin:miter;stroke-miterlimit:4;stroke-dasharray:none;stroke-opacity:1"
       id="path4662" />
    <g
       aria-label="left_right_clk_o"
       id="text4664"
       style="line-height:0%;font-family:Iwona;-inkscape-font-specification:Iwona;text-align:end;letter-spacing:0px;word-spacing:0px;text-anchor:end">
      <path
         d="m -80.973325,208.26761 v -0.675 c -0.4275,0.36 -0.9225,0.6525 -1.485,0.6525 -0.8325,0 -0.99,-1.035 -0.99,-2.0025 v -12.9375 h -1.755 v 12.9375 c 0,1.5075 0.585,3.0375 1.9125,3.0375 0.855,0 1.665,-0.4275 2.3175,-1.0125 z"
         style="font-size:22.5px;line-height:1.25"
         id="path363" />
      <path
         d="m -70.578365,204.21761 v -0.225 c 0,-3.1725 -1.7325,-5.2875 -4.3425,-5.2875 -2.6325,0 -4.365,2.115 -4.365,5.2875 0,3.1725 1.7325,5.2875 4.365,5.2875 1.125,0 2.2275,-0.36 3.15,-1.0125 v -0.945 c -1.0575,0.675 -1.9125,0.9225 -3.15,0.9225 -1.9125,0 -2.385,-1.8225 -2.385,-4.0275 z m -1.98,-0.945 h -4.7475 c 0,-1.8 0.765,-3.6225 2.385,-3.6225 1.5975,0 2.3625,1.8225 2.3625,3.6225 z"
         style="font-size:22.5px;line-height:1.25"
         id="path365" />
      <path
         d="m -63.153394,194.76761 v -0.6975 c -0.675,-0.5625 -1.485,-0.99 -2.3625,-0.99 -1.305,0 -1.9125,1.53 -1.9125,3.0375 v 2.8125 h -1.575 v 0.945 h 1.575 v 9.18 h 1.755 v -9.18 h 1.575 v -0.945 h -1.575 v -2.8125 c 0,-0.9675 0.18,-2.0025 1.0125,-2.0025 0.5625,0 1.08,0.27 1.5075,0.6525 z"
         style="font-size:22.5px;line-height:1.25"
         id="path367" />
      <path
         d="m -57.078409,208.26761 v -0.675 c -0.36,0.36 -0.7875,0.6525 -1.305,0.6525 -0.81,0 -0.855,-1.0575 -0.855,-2.0025 v -6.3675 h 2.16 v -0.945 h -2.16 v -3.375 h -1.0575 c 0,1.8 -1.035,3.4875 -2.6775,3.4875 v 0.8325 h 1.98 v 6.3675 c 0,1.485 0.4725,3.0375 1.755,3.0375 0.8325,0 1.5525,-0.45 2.16,-1.0125 z"
         style="font-size:22.5px;line-height:1.25"
         id="path369" />
      <path
         d="m -45.15344,211.64261 v -1.125 h -11.25 v 1.125 z"
         style="font-size:22.5px;line-height:1.25"
         id="path371" />
      <path
         d="m -37.750982,200.32511 v -1.395 c -0.2475,-0.09 -0.5175,-0.1575 -0.765,-0.1575 -1.26,0 -2.2725,0.8775 -3.0825,1.845 v -1.6875 h -1.755 v 10.125 h 1.755 v -7.4925 c 0.675,-0.7875 1.53,-1.4625 2.565,-1.4625 0.4275,0 0.8775,0.09 1.2825,0.225 z"
         style="font-size:22.5px;line-height:1.25"
         id="path373" />
      <path
         d="m -31.383504,208.26761 v -0.675 c -0.4275,0.36 -0.9225,0.6525 -1.485,0.6525 -0.8325,0 -0.99,-1.035 -0.99,-2.0025 v -7.3125 h -1.755 v 7.3125 c 0,1.5075 0.585,3.0375 1.9125,3.0375 0.855,0 1.665,-0.4275 2.3175,-1.0125 z m -2.25,-12.8475 c 0,-0.6075 -0.495,-1.1025 -1.1025,-1.1025 -0.6075,0 -1.1025,0.495 -1.1025,1.1025 0,0.6075 0.495,1.1025 1.1025,1.1025 0.6075,0 1.1025,-0.495 1.1025,-1.1025 z"
         style="font-size:22.5px;line-height:1.25"
         id="path375" />
      <path
         d="m -20.988527,210.40511 v -11.475 h -1.755 v 0.3825 c -0.8775,-0.3825 -1.8225,-0.6075 -2.7675,-0.6075 -2.8125,0 -4.185,2.25 -4.185,5.2875 0,2.9925 1.125,5.2875 3.8475,5.2875 1.1475,0 2.205,-0.5175 3.105,-1.2375 v 2.3625 c 0,1.5525 -0.855,3.015 -2.25,3.015 -1.1475,0 -2.295,-0.225 -3.375,-0.6075 v 0.6975 c 1.26,0.585 2.655,0.945 4.05,0.945 1.98,0 3.33,-1.935 3.33,-4.05 z m -1.755,-3.3075 c -0.675,0.675 -1.5075,1.2375 -2.475,1.2375 -2.0475,0 -2.4975,-1.98 -2.4975,-4.3425 0,-2.115 0.6525,-4.3425 2.4975,-4.3425 0.855,0 1.71,0.225 2.475,0.6075 z"
         style="font-size:22.5px;line-height:1.25"
         id="path377" />
      <path
         d="m -9.2435433,209.05511 v -7.3125 c 0,-1.6425 -1.2599997,-3.0375 -2.8799997,-3.0375 -1.35,0 -2.5425,0.765 -3.51,1.71 v -7.11 h -1.755 v 15.75 h 1.755 v -7.9425 c 0.765,-0.765 1.71,-1.3725 2.7675,-1.3725 1.0575,0 1.8675,0.9225 1.8675,2.0025 v 7.3125 z"
         style="font-size:22.5px;line-height:1.25"
         id="path379" />
      <path
         d="m -0.98608177,208.26761 v -0.675 c -0.36000003,0.36 -0.78750003,0.6525 -1.30500003,0.6525 -0.81,0 -0.855,-1.0575 -0.855,-2.0025 v -6.3675 h 2.16000003 v -0.945 H -3.1460818 v -3.375 h -1.0575 c 0,1.8 -1.035,3.4875 -2.6775,3.4875 v 0.8325 h 1.98 v 6.3675 c 0,1.485 0.4725,3.0375 1.755,3.0375 0.8325,0 1.5525,-0.45 2.16000003,-1.0125 z"
         style="font-size:22.5px;line-height:1.25"
         id="path381" />
      <path
         d="m 10.93889,211.64261 v -1.125 H -0.31110954 v 1.125 z"
         style="font-size:22.5px;line-height:1.25"
         id="path383" />
      <path
         d="m 20.028845,201.27011 v -0.945 c -0.72,-1.0125 -1.89,-1.62 -3.15,-1.62 -2.8125,0 -4.7025,2.115 -4.7025,5.2875 0,3.1725 1.89,5.2875 4.7025,5.2875 1.17,0 2.2725,-0.585 2.925,-1.5525 v -0.945 c -0.765,1.1475 -1.5525,1.5525 -2.925,1.5525 -1.62,0 -2.7225,-1.7325 -2.7225,-4.3425 0,-2.61 1.1025,-4.3425 2.7225,-4.3425 1.395,0 2.34,0.495 3.15,1.62 z"
         style="font-size:22.5px;line-height:1.25"
         id="path385" />
      <path
         d="m 26.621326,208.26761 v -0.675 c -0.4275,0.36 -0.9225,0.6525 -1.485,0.6525 -0.8325,0 -0.99,-1.035 -0.99,-2.0025 v -12.9375 h -1.755 v 12.9375 c 0,1.5075 0.585,3.0375 1.9125,3.0375 0.855,0 1.665,-0.4275 2.3175,-1.0125 z"
         style="font-size:22.5px;line-height:1.25"
         id="path387" />
      <path
         d="m 37.578783,209.05511 -5.22,-6.0075 5.04,-4.1175 h -1.395 l -5.3775,4.41 v -10.035 h -1.755 v 15.75 h 1.755 v -5.6025 l 4.86,5.6025 z"
         style="font-size:22.5px;line-height:1.25"
         id="path389" />
      <path
         d="m 49.053766,211.64261 v -1.125 h -11.25 v 1.125 z"
         style="font-size:22.5px;line-height:1.25"
         id="path391" />
      <path
         d="m 58.998728,203.99261 c 0,-3.4425 -1.53,-5.2875 -4.3425,-5.2875 -2.835,0 -4.365,1.845 -4.365,5.2875 0,3.4425 1.53,5.2875 4.365,5.2875 2.8125,0 4.3425,-1.845 4.3425,-5.2875 z m -1.98,0 c 0,2.8125 -0.8325,4.3425 -2.3625,4.3425 -1.5525,0 -2.385,-1.53 -2.385,-4.3425 0,-2.8125 0.8325,-4.3425 2.385,-4.3425 1.53,0 2.3625,1.53 2.3625,4.3425 z"
         style="font-size:22.5px;line-height:1.25"
         id="path393" />
    </g>
    <g
       aria-label="bit_index_reg"
       id="text7699"
       style="line-height:0%;font-family:Iwona;-inkscape-font-specification:Iwona;text-align:end;letter-spacing:0px;word-spacing:0px;text-anchor:end">
      <path
         d="m -57.933393,150.84302 c 0,-2.9925 -1.125,-5.2875 -3.8475,-5.2875 -1.1475,0 -2.205,0.5175 -3.105,1.2375 v -6.6375 h -1.755 v 15.75 h 1.755 v -0.5175 c 0.855,0.45 1.8,0.7425 2.7675,0.7425 2.8125,0 4.185,-2.25 4.185,-5.2875 z m -1.98,0 c 0,2.115 -0.6525,4.3425 -2.4975,4.3425 -0.8775,0 -1.7325,-0.2925 -2.475,-0.7425 v -6.705 c 0.675,-0.675 1.5075,-1.2375 2.475,-1.2375 2.0475,0 2.4975,1.98 2.4975,4.3425 z"
         style="font-size:22.5px;line-height:1.25"
         id="path396" />
      <path
         d="m -50.778408,155.11802 v -0.675 c -0.4275,0.36 -0.9225,0.6525 -1.485,0.6525 -0.8325,0 -0.99,-1.035 -0.99,-2.0025 v -7.3125 h -1.755 v 7.3125 c 0,1.5075 0.585,3.0375 1.9125,3.0375 0.855,0 1.665,-0.4275 2.3175,-1.0125 z m -2.25,-12.8475 c 0,-0.6075 -0.495,-1.1025 -1.1025,-1.1025 -0.6075,0 -1.1025,0.495 -1.1025,1.1025 0,0.6075 0.495,1.1025 1.1025,1.1025 0.6075,0 1.1025,-0.495 1.1025,-1.1025 z"
         style="font-size:22.5px;line-height:1.25"
         id="path398" />
      <path
         d="m -43.758428,155.11802 v -0.675 c -0.36,0.36 -0.7875,0.6525 -1.305,0.6525 -0.81,0 -0.855,-1.0575 -0.855,-2.0025 v -6.3675 h 2.16 v -0.945 h -2.16 v -3.375 h -1.0575 c 0,1.8 -1.035,3.4875 -2.6775,3.4875 v 0.8325 h 1.98 v 6.3675 c 0,1.485 0.4725,3.0375 1.755,3.0375 0.8325,0 1.5525,-0.45 2.16,-1.0125 z"
         style="font-size:22.5px;line-height:1.25"
         id="path400" />
      <path
         d="m -31.83346,158.49302 v -1.125 h -11.25 v 1.125 z"
         style="font-size:22.5px;line-height:1.25"
         id="path402" />
      <path
         d="m -25.916002,155.11802 v -0.675 c -0.4275,0.36 -0.9225,0.6525 -1.485,0.6525 -0.8325,0 -0.99,-1.035 -0.99,-2.0025 v -7.3125 h -1.755 v 7.3125 c 0,1.5075 0.585,3.0375 1.9125,3.0375 0.855,0 1.665,-0.4275 2.3175,-1.0125 z m -2.25,-12.8475 c 0,-0.6075 -0.495,-1.1025 -1.1025,-1.1025 -0.6075,0 -1.1025,0.495 -1.1025,1.1025 0,0.6075 0.495,1.1025 1.1025,1.1025 0.6075,0 1.1025,-0.495 1.1025,-1.1025 z"
         style="font-size:22.5px;line-height:1.25"
         id="path404" />
      <path
         d="m -15.521024,155.90552 v -7.3125 c 0,-1.6425 -1.26,-3.0375 -2.88,-3.0375 -1.35,0 -2.5425,0.765 -3.51,1.71 v -1.485 h -1.755 v 10.125 h 1.755 v -7.9425 c 0.765,-0.765 1.71,-1.3725 2.7675,-1.3725 1.0575,0 1.8675,0.9225 1.8675,2.0025 v 7.3125 z"
         style="font-size:22.5px;line-height:1.25"
         id="path406" />
      <path
         d="m -3.8885629,155.90552 v -15.75 h -1.755 v 6.0075 c -0.8775,-0.3825 -1.8225,-0.6075 -2.7675,-0.6075 -2.8125001,0 -4.1850001,2.25 -4.1850001,5.2875 0,2.9925 1.125,5.2875 3.8475001,5.2875 1.1475,0 2.205,-0.5175 3.105,-1.2375 v 1.0125 z m -1.755,-1.9575 c -0.675,0.675 -1.5075,1.2375 -2.475,1.2375 -2.0475001,0 -2.4975001,-1.98 -2.4975001,-4.3425 0,-2.115 0.6525001,-4.3425 2.4975001,-4.3425 0.855,0 1.71,0.225 2.475,0.6075 z"
         style="font-size:22.5px;line-height:1.25"
         id="path408" />
      <path
         d="m 7.8564246,151.06802 v -0.225 c 0,-3.1725 -1.7325,-5.2875 -4.3425,-5.2875 -2.63249996,0 -4.36499996,2.115 -4.36499996,5.2875 0,3.1725 1.7325,5.2875 4.36499996,5.2875 1.125,0 2.2275,-0.36 3.15,-1.0125 v -0.945 c -1.0575,0.675 -1.9125,0.9225 -3.15,0.9225 -1.9125,0 -2.385,-1.8225 -2.385,-4.0275 z m -1.98,-0.945 h -4.7475 c 0,-1.8 0.765,-3.6225 2.385,-3.6225 1.5975,0 2.3625,1.8225 2.3625,3.6225 z"
         style="font-size:22.5px;line-height:1.25"
         id="path410" />
      <path
         d="m 17.868867,155.90552 -3.5325,-5.4 3.42,-4.725 h -1.17 l -2.79,3.87 -2.52,-3.87 H 9.3863667 l 3.3525003,5.1525 -3.5775003,4.9725 h 1.1700003 l 2.97,-4.1175 2.6775,4.1175 z"
         style="font-size:22.5px;line-height:1.25"
         id="path412" />
      <path
         d="m 29.568827,158.49302 v -1.125 h -11.25 v 1.125 z"
         style="font-size:22.5px;line-height:1.25"
         id="path414" />
      <path
         d="m 36.971281,147.17552 v -1.395 c -0.2475,-0.09 -0.5175,-0.1575 -0.765,-0.1575 -1.26,0 -2.2725,0.8775 -3.0825,1.845 v -1.6875 h -1.755 v 10.125 h 1.755 v -7.4925 c 0.675,-0.7875 1.53,-1.4625 2.565,-1.4625 0.4275,0 0.8775,0.09 1.2825,0.225 z"
         style="font-size:22.5px;line-height:1.25"
         id="path416" />
      <path
         d="m 47.366259,151.06802 v -0.225 c 0,-3.1725 -1.7325,-5.2875 -4.3425,-5.2875 -2.6325,0 -4.365,2.115 -4.365,5.2875 0,3.1725 1.7325,5.2875 4.365,5.2875 1.125,0 2.2275,-0.36 3.15,-1.0125 v -0.945 c -1.0575,0.675 -1.9125,0.9225 -3.15,0.9225 -1.9125,0 -2.385,-1.8225 -2.385,-4.0275 z m -1.98,-0.945 h -4.7475 c 0,-1.8 0.765,-3.6225 2.385,-3.6225 1.5975,0 2.3625,1.8225 2.3625,3.6225 z"
         style="font-size:22.5px;line-height:1.25"
         id="path418" />
      <path
         d="m 58.436236,157.25552 v -11.475 h -1.755 v 0.3825 c -0.8775,-0.3825 -1.8225,-0.6075 -2.7675,-0.6075 -2.8125,0 -4.185,2.25 -4.185,5.2875 0,2.9925 1.125,5.2875 3.8475,5.2875 1.1475,0 2.205,-0.5175 3.105,-1.2375 v 2.3625 c 0,1.5525 -0.855,3.015 -2.25,3.015 -1.1475,0 -2.295,-0.225 -3.375,-0.6075 v 0.6975 c 1.26,0.585 2.655,0.945 4.05,0.945 1.98,0 3.33,-1.935 3.33,-4.05 z m -1.755,-3.3075 c -0.675,0.675 -1.5075,1.2375 -2.475,1.2375 -2.0475,0 -2.4975,-1.98 -2.4975,-4.3425 0,-2.115 0.6525,-4.3425 2.4975,-4.3425 0.855,0 1.71,0.225 2.475,0.6075 z"
         style="font-size:22.5px;line-height:1.25"
         id="path420" />
    </g>
    <g
       aria-label="0"
       id="text7703"
       style="line-height:0%;font-family:Iwona;-inkscape-font-specification:Iwona;text-align:center;letter-spacing:0px;word-spacing:0px;text-anchor:middle;stroke-width:1px">
      <path
         d="m 85.337324,149.86802 c 0,-4.1475 -1.2775,-6.2125 -3.8325,-6.2125 -2.555,0 -3.8325,2.065 -3.8325,6.2125 0,4.1475 1.2775,6.2125 3.8325,6.2125 2.555,0 3.8325,-2.065 3.8325,-6.2125 z m -1.54,0 c 0,3.6575 -0.77,5.4775 -2.2925,5.4775 -1.5225,0 -2.2925,-1.82 -2.2925,-5.4775 0,-3.6575 0.77,-5.4775 2.2925,-5.4775 1.5225,0 2.2925,1.82 2.2925,5.4775 z"
         style="font-size:17.5px;line-height:1.25"
         id="path423" />
    </g>
    <path
       id="path7721"
       style="fill:none;fill-rule:evenodd;stroke:#000000;stroke-width:2;stroke-linecap:butt;stroke-linejoin:miter;stroke-miterlimit:4;stroke-dasharray:none;stroke-opacity:1"
       d="m 70.866142,166.53544 h 21.259853 l 3.5433,-35.43307 h 21.259845 l 3.54331,35.43307 h 21.25984 l 3.5433,-35.43307 h 21.25985 l 3.54331,35.43307 h 21.25984 l 3.5433,-35.43307 h 21.25985 l 3.54331,35.43307 h 21.25984 l 3.5433,-35.43307 h 21.25985 l 3.54331,35.43307 h 21.25984 l 3.5433,-35.43307 h 21.25985 l 3.54331,35.43307 h 21.25984 l 3.5433,-35.43307 h 21.25985 l 3.54331,35.43307 h 21.25984 l 3.5433,-35.43307 h 21.25985 l 3.54331,35.43307 h 21.25984 l 3.5433,-35.43307 h 21.25985 l 3.54331,35.43307 h 21.25986 l 3.5433,-35.43307 h 21.25984 l 3.54331,35.43307 h 21.25984 l 3.5433,-35.43307 h 21.25985 l 3.54331,35.43307 H 588.189 l 3.5433,-35.43307 h 21.25985 l 3.54331,35.43307 h 21.25984 l 3.5433,-35.43307 h 21.25985 l 3.54331,35.43307 h 21.25984 l 3.5433,-35.43307 h 21.25985 l 3.54331,35.43307 h 21.25984 l 3.5433,-35.43307 h 21.25985 l 3.54331,35.43307 h 21.25984 l 3.5433,-35.43307 h 21.25985 l 3.54331,35.43307 h 21.25984 l 3.5433,-35.43307 h 21.25985 l 3.5433,35.43307 h 21.25985 l 3.5433,-35.43307 h 21.25984 l 3.54331,35.43307 h 21.25984 l 3.5433,-35.43307 h 21.25985 l 3.54331,35.43307 h 21.25984 l 3.5433,-35.43307 h 21.25981 l 3.5433,35.43307 h 21.2599 l 3.5433,-35.43307 h 21.2598 l 3.5433,35.43307 h 21.2599 l 3.5433,-35.43307 h 21.2598 l 3.5433,35.43307 h 21.2599 l 3.5433,-35.43307 h 21.2598 l 3.5433,35.43307 h 21.2599 l 3.5433,-35.43307 h 21.2598 l 3.5433,35.43307 h 21.2599 l 3.5433,-35.43307 h 21.2598 l 3.5433,35.43307 h 21.2599 l 3.5433,-35.43307 h 21.2598 l 3.5433,35.43307 h 21.2599 l 3.5433,-35.43307 h 21.2598" />
    <g
       aria-label="31"
       id="text7803"
       style="line-height:0%;font-family:Iwona;-inkscape-font-specification:Iwona;text-align:center;letter-spacing:0px;word-spacing:0px;text-anchor:middle;stroke-width:1px">
      <path
         d="m 105.42422,152.58052 c 0,-1.54 -1.085,-2.87 -2.59,-3.325 1.33,-0.385 2.1525,-1.3825 2.1525,-2.7125 0,-1.7325 -1.4,-2.8875 -3.5,-2.8875 -1.1375,0 -2.239996,0.385 -3.132496,1.085 v 0.735 c 0.8925,-0.7 1.994996,-1.085 3.132496,-1.085 1.2775,0 2.135,0.8575 2.135,2.1525 0,2.0825 -0.9625,2.625 -3.15,2.625 v 0.6475 c 2.3625,0 3.4125,0.56 3.4125,2.765 0,1.5225 -0.98,2.765 -2.17,2.765 -1.33,0 -2.624996,-0.385 -3.727496,-1.085 v 0.735 c 1.1025,0.7 2.397496,1.085 3.727496,1.085 2.03,0 3.71,-1.575 3.71,-3.5 z"
         style="font-size:17.5px;line-height:1.25"
         id="path426" />
      <path
         d="m 112.07422,155.90552 v -12.075 h -1.015 c -0.9625,1.1025 -2.1,2.0475 -3.36,2.7825 v 0.735 c 1.0675,-0.5075 2.065,-1.1025 3.01,-1.82 v 10.3775 z"
         style="font-size:17.5px;line-height:1.25"
         id="path428" />
    </g>
    <g
       aria-label="30"
       id="text7807"
       style="line-height:0%;font-family:Iwona;-inkscape-font-specification:Iwona;text-align:center;letter-spacing:0px;word-spacing:0px;text-anchor:middle;stroke-width:1px">
      <path
         d="m 130.22738,152.58052 c 0,-1.54 -1.085,-2.87 -2.59,-3.325 1.33,-0.385 2.1525,-1.3825 2.1525,-2.7125 0,-1.7325 -1.4,-2.8875 -3.5,-2.8875 -1.1375,0 -2.24,0.385 -3.1325,1.085 v 0.735 c 0.8925,-0.7 1.995,-1.085 3.1325,-1.085 1.2775,0 2.135,0.8575 2.135,2.1525 0,2.0825 -0.9625,2.625 -3.15,2.625 v 0.6475 c 2.3625,0 3.4125,0.56 3.4125,2.765 0,1.5225 -0.98,2.765 -2.17,2.765 -1.33,0 -2.625,-0.385 -3.7275,-1.085 v 0.735 c 1.1025,0.7 2.3975,1.085 3.7275,1.085 2.03,0 3.71,-1.575 3.71,-3.5 z"
         style="font-size:17.5px;line-height:1.25"
         id="path431" />
      <path
         d="m 139.53737,149.86802 c 0,-4.1475 -1.2775,-6.2125 -3.8325,-6.2125 -2.555,0 -3.8325,2.065 -3.8325,6.2125 0,4.1475 1.2775,6.2125 3.8325,6.2125 2.555,0 3.8325,-2.065 3.8325,-6.2125 z m -1.54,0 c 0,3.6575 -0.77,5.4775 -2.2925,5.4775 -1.5225,0 -2.2925,-1.82 -2.2925,-5.4775 0,-3.6575 0.77,-5.4775 2.2925,-5.4775 1.5225,0 2.2925,1.82 2.2925,5.4775 z"
         style="font-size:17.5px;line-height:1.25"
         id="path433" />
    </g>
    <g
       aria-label="29"
       id="text7811"
       style="line-height:0%;font-family:Iwona;-inkscape-font-specification:Iwona;text-align:center;letter-spacing:0px;word-spacing:0px;text-anchor:middle;stroke-width:1px">
      <path
         d="m 155.03052,155.90552 v -1.085 h -6.1775 l 3.22,-3.185 c 1.435,-1.435 2.7825,-3.115 2.7825,-5.145 0,-1.715 -1.6975,-2.835 -3.535,-2.835 -1.3825,0 -2.695,0.63 -3.5525,1.6975 v 0.735 c 0.8925,-1.0325 2.1875,-1.6275 3.5525,-1.6275 1.1725,0 2.17,0.875 2.17,2.03 0,1.7325 -0.805,3.3425 -1.995,4.585 l -3.9025,4.0075 v 0.8225 z"
         style="font-size:17.5px;line-height:1.25"
         id="path436" />
      <path
         d="m 164.21802,149.86802 c 0,-4.34 -1.12,-6.2125 -3.71,-6.2125 -2.24,0 -3.7275,1.645 -3.7275,4.1125 0,2.52 0.9975,4.1125 3.3425,4.1125 1.015,0 1.96,-0.4725 2.555,-1.2775 0,2.2925 -0.5775,4.7425 -2.555,4.7425 -0.8925,0 -1.7675,-0.2975 -2.4675,-0.8575 v 0.735 c 0.7,0.56 1.575,0.8575 2.4675,0.8575 2.7475,0 4.095,-3.115 4.095,-6.2125 z m -1.54,0 c -0.595,0.805 -1.54,1.2775 -2.555,1.2775 -1.4,0 -1.8025,-1.75 -1.8025,-3.3775 0,-2.03 0.875,-3.3775 2.1875,-3.3775 2.4325,0 2.17,2.6425 2.17,5.4775 z"
         style="font-size:17.5px;line-height:1.25"
         id="path438" />
    </g>
    <g
       aria-label="28"
       id="text7815"
       style="line-height:0%;font-family:Iwona;-inkscape-font-specification:Iwona;text-align:center;letter-spacing:0px;word-spacing:0px;text-anchor:middle;stroke-width:1px">
      <path
         d="m 179.83369,155.90552 v -1.085 h -6.1775 l 3.22,-3.185 c 1.435,-1.435 2.7825,-3.115 2.7825,-5.145 0,-1.715 -1.6975,-2.835 -3.535,-2.835 -1.3825,0 -2.695,0.63 -3.5525,1.6975 v 0.735 c 0.8925,-1.0325 2.1875,-1.6275 3.5525,-1.6275 1.1725,0 2.17,0.875 2.17,2.03 0,1.7325 -0.805,3.3425 -1.995,4.585 l -3.9025,4.0075 v 0.8225 z"
         style="font-size:17.5px;line-height:1.25"
         id="path441" />
      <path
         d="m 189.02118,152.52802 c 0,-1.645 -0.7875,-2.8175 -2.135,-3.3075 1.1375,-0.42 1.785,-1.365 1.785,-2.6425 0,-1.82 -1.2775,-2.9225 -3.36,-2.9225 -2.1,0 -3.3775,1.1025 -3.3775,2.9225 0,1.2775 0.6475,2.2225 1.785,2.6425 -1.3475,0.49 -2.135,1.6625 -2.135,3.3075 0,2.205 1.4175,3.5525 3.7275,3.5525 2.2925,0 3.71,-1.3475 3.71,-3.5525 z m -1.715,-5.95 c 0,1.3475 -0.77,2.1875 -1.995,2.1875 -1.2425,0 -2.0125,-0.84 -2.0125,-2.1875 0,-1.365 0.77,-2.1875 2.0125,-2.1875 1.225,0 1.995,0.8225 1.995,2.1875 z m 0.175,5.95 c 0,1.75 -0.8225,2.8175 -2.17,2.8175 -1.365,0 -2.1875,-1.0675 -2.1875,-2.8175 0,-1.75 0.8225,-2.8175 2.1875,-2.8175 1.3475,0 2.17,1.0675 2.17,2.8175 z"
         style="font-size:17.5px;line-height:1.25"
         id="path443" />
    </g>
    <g
       aria-label="27"
       id="text7819"
       style="line-height:0%;font-family:Iwona;-inkscape-font-specification:Iwona;text-align:center;letter-spacing:0px;word-spacing:0px;text-anchor:middle;stroke-width:1px">
      <path
         d="m 204.63683,155.90552 v -1.085 h -6.1775 l 3.22,-3.185 c 1.435,-1.435 2.7825,-3.115 2.7825,-5.145 0,-1.715 -1.6975,-2.835 -3.535,-2.835 -1.3825,0 -2.695,0.63 -3.5525,1.6975 v 0.735 c 0.8925,-1.0325 2.1875,-1.6275 3.5525,-1.6275 1.1725,0 2.17,0.875 2.17,2.03 0,1.7325 -0.805,3.3425 -1.995,4.585 l -3.9025,4.0075 v 0.8225 z"
         style="font-size:17.5px;line-height:1.25"
         id="path446" />
      <path
         d="m 213.82433,144.42552 v -0.595 h -7.4375 v 1.085 h 5.705 l -5.1625,10.99 h 1.505 z"
         style="font-size:17.5px;line-height:1.25"
         id="path448" />
    </g>
    <g
       aria-label="26"
       id="text7823"
       style="line-height:0%;font-family:Iwona;-inkscape-font-specification:Iwona;text-align:center;letter-spacing:0px;word-spacing:0px;text-anchor:middle;stroke-width:1px">
      <path
         d="m 229.43998,155.90552 v -1.085 h -6.1775 l 3.22,-3.185 c 1.435,-1.435 2.7825,-3.115 2.7825,-5.145 0,-1.715 -1.6975,-2.835 -3.535,-2.835 -1.3825,0 -2.695,0.63 -3.5525,1.6975 v 0.735 c 0.8925,-1.0325 2.1875,-1.6275 3.5525,-1.6275 1.1725,0 2.17,0.875 2.17,2.03 0,1.7325 -0.805,3.3425 -1.995,4.585 l -3.9025,4.0075 v 0.8225 z"
         style="font-size:17.5px;line-height:1.25"
         id="path451" />
      <path
         d="m 238.62747,151.96802 c 0,-2.52 -0.9975,-4.1125 -3.3425,-4.1125 -1.015,0 -1.96,0.4725 -2.555,1.2775 0,-2.2925 0.5775,-4.7425 2.555,-4.7425 0.8925,0 1.7675,0.2975 2.4675,0.8575 v -0.735 c -0.7,-0.56 -1.575,-0.8575 -2.4675,-0.8575 -2.7475,0 -4.095,3.115 -4.095,6.2125 0,4.34 1.12,6.2125 3.7275,6.2125 2.2225,0 3.71,-1.645 3.71,-4.1125 z m -1.54,0 c 0,2.03 -0.875,3.3775 -2.17,3.3775 -2.45,0 -2.1875,-2.6425 -2.1875,-5.4775 0.595,-0.805 1.54,-1.2775 2.555,-1.2775 1.4,0 1.8025,1.75 1.8025,3.3775 z"
         style="font-size:17.5px;line-height:1.25"
         id="path453" />
    </g>
    <g
       aria-label="25"
       id="text7827"
       style="line-height:0%;font-family:Iwona;-inkscape-font-specification:Iwona;text-align:center;letter-spacing:0px;word-spacing:0px;text-anchor:middle;stroke-width:1px">
      <path
         d="m 254.24312,155.90552 v -1.085 h -6.1775 l 3.22,-3.185 c 1.435,-1.435 2.7825,-3.115 2.7825,-5.145 0,-1.715 -1.6975,-2.835 -3.535,-2.835 -1.3825,0 -2.695,0.63 -3.5525,1.6975 v 0.735 c 0.8925,-1.0325 2.1875,-1.6275 3.5525,-1.6275 1.1725,0 2.17,0.875 2.17,2.03 0,1.7325 -0.805,3.3425 -1.995,4.585 l -3.9025,4.0075 v 0.8225 z"
         style="font-size:17.5px;line-height:1.25"
         id="path456" />
      <path
         d="m 263.43062,151.96802 c 0,-2.4675 -1.4875,-4.1125 -3.71,-4.1125 -1.015,0 -1.96,0.385 -2.695,1.0325 l 0.175,-3.9725 h 5.88 v -1.085 h -6.5625 l -0.2625,6.0375 0.735,0.035 c 0.665,-0.8225 1.6625,-1.3125 2.73,-1.3125 1.295,0 2.17,1.3475 2.17,3.3775 0,2.03 -0.875,3.3775 -2.17,3.3775 -1.3475,0 -2.66,-0.4375 -3.7275,-1.26 v 0.735 c 1.0675,0.8225 2.38,1.26 3.7275,1.26 2.2225,0 3.71,-1.645 3.71,-4.1125 z"
         style="font-size:17.5px;line-height:1.25"
         id="path458" />
    </g>
    <g
       aria-label="24"
       id="text7831"
       style="line-height:0%;font-family:Iwona;-inkscape-font-specification:Iwona;text-align:center;letter-spacing:0px;word-spacing:0px;text-anchor:middle;stroke-width:1px">
      <path
         d="m 279.04627,155.90552 v -1.085 h -6.1775 l 3.22,-3.185 c 1.435,-1.435 2.7825,-3.115 2.7825,-5.145 0,-1.715 -1.6975,-2.835 -3.535,-2.835 -1.3825,0 -2.695,0.63 -3.5525,1.6975 v 0.735 c 0.8925,-1.0325 2.1875,-1.6275 3.5525,-1.6275 1.1725,0 2.17,0.875 2.17,2.03 0,1.7325 -0.805,3.3425 -1.995,4.585 l -3.9025,4.0075 v 0.8225 z"
         style="font-size:17.5px;line-height:1.25"
         id="path461" />
      <path
         d="m 288.23376,151.70552 v -0.805 h -1.3125 v -7.07 h -1.365 l -4.76,7.07 v 0.805 h 4.76 v 4.2 h 1.365 v -4.2 z m -2.6775,-0.805 h -3.8675 l 3.8675,-5.7575 z"
         style="font-size:17.5px;line-height:1.25"
         id="path463" />
    </g>
    <g
       aria-label="23"
       id="text7835"
       style="line-height:0%;font-family:Iwona;-inkscape-font-specification:Iwona;text-align:center;letter-spacing:0px;word-spacing:0px;text-anchor:middle;stroke-width:1px">
      <path
         d="m 303.84943,155.90552 v -1.085 h -6.1775 l 3.22,-3.185 c 1.435,-1.435 2.7825,-3.115 2.7825,-5.145 0,-1.715 -1.6975,-2.835 -3.535,-2.835 -1.3825,0 -2.695,0.63 -3.5525,1.6975 v 0.735 c 0.8925,-1.0325 2.1875,-1.6275 3.5525,-1.6275 1.1725,0 2.17,0.875 2.17,2.03 0,1.7325 -0.805,3.3425 -1.995,4.585 l -3.9025,4.0075 v 0.8225 z"
         style="font-size:17.5px;line-height:1.25"
         id="path466" />
      <path
         d="m 313.03693,152.58052 c 0,-1.54 -1.085,-2.87 -2.59,-3.325 1.33,-0.385 2.1525,-1.3825 2.1525,-2.7125 0,-1.7325 -1.4,-2.8875 -3.5,-2.8875 -1.1375,0 -2.24,0.385 -3.1325,1.085 v 0.735 c 0.8925,-0.7 1.995,-1.085 3.1325,-1.085 1.2775,0 2.135,0.8575 2.135,2.1525 0,2.0825 -0.9625,2.625 -3.15,2.625 v 0.6475 c 2.3625,0 3.4125,0.56 3.4125,2.765 0,1.5225 -0.98,2.765 -2.17,2.765 -1.33,0 -2.625,-0.385 -3.7275,-1.085 v 0.735 c 1.1025,0.7 2.3975,1.085 3.7275,1.085 2.03,0 3.71,-1.575 3.71,-3.5 z"
         style="font-size:17.5px;line-height:1.25"
         id="path468" />
    </g>
    <g
       aria-label="22"
       id="text7839"
       style="line-height:0%;font-family:Iwona;-inkscape-font-specification:Iwona;text-align:center;letter-spacing:0px;word-spacing:0px;text-anchor:middle;stroke-width:1px">
      <path
         d="m 328.65256,155.90552 v -1.085 h -6.1775 l 3.22,-3.185 c 1.435,-1.435 2.7825,-3.115 2.7825,-5.145 0,-1.715 -1.6975,-2.835 -3.535,-2.835 -1.3825,0 -2.695,0.63 -3.5525,1.6975 v 0.735 c 0.8925,-1.0325 2.1875,-1.6275 3.5525,-1.6275 1.1725,0 2.17,0.875 2.17,2.03 0,1.7325 -0.805,3.3425 -1.995,4.585 l -3.9025,4.0075 v 0.8225 z"
         style="font-size:17.5px;line-height:1.25"
         id="path471" />
      <path
         d="m 337.84006,155.90552 v -1.085 h -6.1775 l 3.22,-3.185 c 1.435,-1.435 2.7825,-3.115 2.7825,-5.145 0,-1.715 -1.6975,-2.835 -3.535,-2.835 -1.3825,0 -2.695,0.63 -3.5525,1.6975 v 0.735 c 0.8925,-1.0325 2.1875,-1.6275 3.5525,-1.6275 1.1725,0 2.17,0.875 2.17,2.03 0,1.7325 -0.805,3.3425 -1.995,4.585 l -3.9025,4.0075 v 0.8225 z"
         style="font-size:17.5px;line-height:1.25"
         id="path473" />
    </g>
    <g
       aria-label="21"
       id="text7843"
       style="line-height:0%;font-family:Iwona;-inkscape-font-specification:Iwona;text-align:center;letter-spacing:0px;word-spacing:0px;text-anchor:middle;stroke-width:1px">
      <path
         d="m 353.45573,155.90552 v -1.085 h -6.1775 l 3.22,-3.185 c 1.435,-1.435 2.7825,-3.115 2.7825,-5.145 0,-1.715 -1.6975,-2.835 -3.535,-2.835 -1.3825,0 -2.695,0.63 -3.5525,1.6975 v 0.735 c 0.8925,-1.0325 2.1875,-1.6275 3.5525,-1.6275 1.1725,0 2.17,0.875 2.17,2.03 0,1.7325 -0.805,3.3425 -1.995,4.585 l -3.9025,4.0075 v 0.8225 z"
         style="font-size:17.5px;line-height:1.25"
         id="path476" />
      <path
         d="m 360.10572,155.90552 v -12.075 h -1.015 c -0.9625,1.1025 -2.1,2.0475 -3.36,2.7825 v 0.735 c 1.0675,-0.5075 2.065,-1.1025 3.01,-1.82 v 10.3775 z"
         style="font-size:17.5px;line-height:1.25"
         id="path478" />
    </g>
    <g
       aria-label="20"
       id="text7847"
       style="line-height:0%;font-family:Iwona;-inkscape-font-specification:Iwona;text-align:center;letter-spacing:0px;word-spacing:0px;text-anchor:middle;stroke-width:1px">
      <path
         d="m 378.25889,155.90552 v -1.085 h -6.1775 l 3.22,-3.185 c 1.435,-1.435 2.7825,-3.115 2.7825,-5.145 0,-1.715 -1.6975,-2.835 -3.535,-2.835 -1.3825,0 -2.695,0.63 -3.5525,1.6975 v 0.735 c 0.8925,-1.0325 2.1875,-1.6275 3.5525,-1.6275 1.1725,0 2.17,0.875 2.17,2.03 0,1.7325 -0.805,3.3425 -1.995,4.585 l -3.9025,4.0075 v 0.8225 z"
         style="font-size:17.5px;line-height:1.25"
         id="path481" />
      <path
         d="m 387.56888,149.86802 c 0,-4.1475 -1.2775,-6.2125 -3.8325,-6.2125 -2.555,0 -3.8325,2.065 -3.8325,6.2125 0,4.1475 1.2775,6.2125 3.8325,6.2125 2.555,0 3.8325,-2.065 3.8325,-6.2125 z m -1.54,0 c 0,3.6575 -0.77,5.4775 -2.2925,5.4775 -1.5225,0 -2.2925,-1.82 -2.2925,-5.4775 0,-3.6575 0.77,-5.4775 2.2925,-5.4775 1.5225,0 2.2925,1.82 2.2925,5.4775 z"
         style="font-size:17.5px;line-height:1.25"
         id="path483" />
    </g>
    <g
       aria-label="19"
       id="text7851"
       style="line-height:0%;font-family:Iwona;-inkscape-font-specification:Iwona;text-align:center;letter-spacing:0px;word-spacing:0px;text-anchor:middle;stroke-width:1px">
      <path
         d="m 400.52452,155.90552 v -12.075 h -1.015 c -0.9625,1.1025 -2.1,2.0475 -3.36,2.7825 v 0.735 c 1.0675,-0.5075 2.065,-1.1025 3.01,-1.82 v 10.3775 z"
         style="font-size:17.5px;line-height:1.25"
         id="path486" />
      <path
         d="m 412.24951,149.86802 c 0,-4.34 -1.12,-6.2125 -3.71,-6.2125 -2.24,0 -3.7275,1.645 -3.7275,4.1125 0,2.52 0.9975,4.1125 3.3425,4.1125 1.015,0 1.96,-0.4725 2.555,-1.2775 0,2.2925 -0.5775,4.7425 -2.555,4.7425 -0.8925,0 -1.7675,-0.2975 -2.4675,-0.8575 v 0.735 c 0.7,0.56 1.575,0.8575 2.4675,0.8575 2.7475,0 4.095,-3.115 4.095,-6.2125 z m -1.54,0 c -0.595,0.805 -1.54,1.2775 -2.555,1.2775 -1.4,0 -1.8025,-1.75 -1.8025,-3.3775 0,-2.03 0.875,-3.3775 2.1875,-3.3775 2.4325,0 2.17,2.6425 2.17,5.4775 z"
         style="font-size:17.5px;line-height:1.25"
         id="path488" />
    </g>
    <g
       aria-label="18"
       id="text7855"
       style="line-height:0%;font-family:Iwona;-inkscape-font-specification:Iwona;text-align:center;letter-spacing:0px;word-spacing:0px;text-anchor:middle;stroke-width:1px">
      <path
         d="m 425.32768,155.90552 v -12.075 h -1.015 c -0.9625,1.1025 -2.1,2.0475 -3.36,2.7825 v 0.735 c 1.0675,-0.5075 2.065,-1.1025 3.01,-1.82 v 10.3775 z"
         style="font-size:17.5px;line-height:1.25"
         id="path491" />
      <path
         d="m 437.05267,152.52802 c 0,-1.645 -0.7875,-2.8175 -2.135,-3.3075 1.1375,-0.42 1.785,-1.365 1.785,-2.6425 0,-1.82 -1.2775,-2.9225 -3.36,-2.9225 -2.1,0 -3.3775,1.1025 -3.3775,2.9225 0,1.2775 0.6475,2.2225 1.785,2.6425 -1.3475,0.49 -2.135,1.6625 -2.135,3.3075 0,2.205 1.4175,3.5525 3.7275,3.5525 2.2925,0 3.71,-1.3475 3.71,-3.5525 z m -1.715,-5.95 c 0,1.3475 -0.77,2.1875 -1.995,2.1875 -1.2425,0 -2.0125,-0.84 -2.0125,-2.1875 0,-1.365 0.77,-2.1875 2.0125,-2.1875 1.225,0 1.995,0.8225 1.995,2.1875 z m 0.175,5.95 c 0,1.75 -0.8225,2.8175 -2.17,2.8175 -1.365,0 -2.1875,-1.0675 -2.1875,-2.8175 0,-1.75 0.8225,-2.8175 2.1875,-2.8175 1.3475,0 2.17,1.0675 2.17,2.8175 z"
         style="font-size:17.5px;line-height:1.25"
         id="path493" />
    </g>
    <g
       aria-label="17"
       id="text7859"
       style="line-height:0%;font-family:Iwona;-inkscape-font-specification:Iwona;text-align:center;letter-spacing:0px;word-spacing:0px;text-anchor:middle;stroke-width:1px">
      <path
         d="m 450.13081,155.90552 v -12.075 h -1.015 c -0.9625,1.1025 -2.1,2.0475 -3.36,2.7825 v 0.735 c 1.0675,-0.5075 2.065,-1.1025 3.01,-1.82 v 10.3775 z"
         style="font-size:17.5px;line-height:1.25"
         id="path496" />
      <path
         d="m 461.8558,144.42552 v -0.595 h -7.4375 v 1.085 h 5.705 l -5.1625,10.99 h 1.505 z"
         style="font-size:17.5px;line-height:1.25"
         id="path498" />
    </g>
    <g
       aria-label="16"
       id="text7927"
       style="line-height:0%;font-family:Iwona;-inkscape-font-specification:Iwona;text-align:center;letter-spacing:0px;word-spacing:0px;text-anchor:middle;stroke-width:1px">
      <path
         d="m 474.93397,155.90552 v -12.075 h -1.015 c -0.9625,1.1025 -2.1,2.0475 -3.36,2.7825 v 0.735 c 1.0675,-0.5075 2.065,-1.1025 3.01,-1.82 v 10.3775 z"
         style="font-size:17.5px;line-height:1.25"
         id="path501" />
      <path
         d="m 486.65897,151.96802 c 0,-2.52 -0.9975,-4.1125 -3.3425,-4.1125 -1.015,0 -1.96,0.4725 -2.555,1.2775 0,-2.2925 0.5775,-4.7425 2.555,-4.7425 0.8925,0 1.7675,0.2975 2.4675,0.8575 v -0.735 c -0.7,-0.56 -1.575,-0.8575 -2.4675,-0.8575 -2.7475,0 -4.095,3.115 -4.095,6.2125 0,4.34 1.12,6.2125 3.7275,6.2125 2.2225,0 3.71,-1.645 3.71,-4.1125 z m -1.54,0 c 0,2.03 -0.875,3.3775 -2.17,3.3775 -2.45,0 -2.1875,-2.6425 -2.1875,-5.4775 0.595,-0.805 1.54,-1.2775 2.555,-1.2775 1.4,0 1.8025,1.75 1.8025,3.3775 z"
         style="font-size:17.5px;line-height:1.25"
         id="path503" />
    </g>
    <g
       aria-label="15"
       id="text7931"
       style="line-height:0%;font-family:Iwona;-inkscape-font-specification:Iwona;text-align:center;letter-spacing:0px;word-spacing:0px;text-anchor:middle;stroke-width:1px">
      <path
         d="m 499.73713,155.90552 v -12.075 h -1.015 c -0.9625,1.1025 -2.1,2.0475 -3.36,2.7825 v 0.735 c 1.0675,-0.5075 2.065,-1.1025 3.01,-1.82 v 10.3775 z"
         style="font-size:17.5px;line-height:1.25"
         id="path506" />
      <path
         d="m 511.46213,151.96802 c 0,-2.4675 -1.4875,-4.1125 -3.71,-4.1125 -1.015,0 -1.96,0.385 -2.695,1.0325 l 0.175,-3.9725 h 5.88 v -1.085 h -6.5625 l -0.2625,6.0375 0.735,0.035 c 0.665,-0.8225 1.6625,-1.3125 2.73,-1.3125 1.295,0 2.17,1.3475 2.17,3.3775 0,2.03 -0.875,3.3775 -2.17,3.3775 -1.3475,0 -2.66,-0.4375 -3.7275,-1.26 v 0.735 c 1.0675,0.8225 2.38,1.26 3.7275,1.26 2.2225,0 3.71,-1.645 3.71,-4.1125 z"
         style="font-size:17.5px;line-height:1.25"
         id="path508" />
    </g>
    <g
       aria-label="14"
       id="text7935"
       style="line-height:0%;font-family:Iwona;-inkscape-font-specification:Iwona;text-align:center;letter-spacing:0px;word-spacing:0px;text-anchor:middle;stroke-width:1px">
      <path
         d="m 524.54027,155.90552 v -12.075 h -1.015 c -0.9625,1.1025 -2.1,2.0475 -3.36,2.7825 v 0.735 c 1.0675,-0.5075 2.065,-1.1025 3.01,-1.82 v 10.3775 z"
         style="font-size:17.5px;line-height:1.25"
         id="path511" />
      <path
         d="m 536.26526,151.70552 v -0.805 h -1.3125 v -7.07 h -1.365 l -4.76,7.07 v 0.805 h 4.76 v 4.2 h 1.365 v -4.2 z m -2.6775,-0.805 h -3.8675 l 3.8675,-5.7575 z"
         style="font-size:17.5px;line-height:1.25"
         id="path513" />
    </g>
    <g
       aria-label="13"
       id="text7939"
       style="line-height:0%;font-family:Iwona;-inkscape-font-specification:Iwona;text-align:center;letter-spacing:0px;word-spacing:0px;text-anchor:middle;stroke-width:1px">
      <path
         d="m 549.34343,155.90552 v -12.075 h -1.015 c -0.9625,1.1025 -2.1,2.0475 -3.36,2.7825 v 0.735 c 1.0675,-0.5075 2.065,-1.1025 3.01,-1.82 v 10.3775 z"
         style="font-size:17.5px;line-height:1.25"
         id="path516" />
      <path
         d="m 561.06842,152.58052 c 0,-1.54 -1.085,-2.87 -2.59,-3.325 1.33,-0.385 2.1525,-1.3825 2.1525,-2.7125 0,-1.7325 -1.4,-2.8875 -3.5,-2.8875 -1.1375,0 -2.24,0.385 -3.1325,1.085 v 0.735 c 0.8925,-0.7 1.995,-1.085 3.1325,-1.085 1.2775,0 2.135,0.8575 2.135,2.1525 0,2.0825 -0.9625,2.625 -3.15,2.625 v 0.6475 c 2.3625,0 3.4125,0.56 3.4125,2.765 0,1.5225 -0.98,2.765 -2.17,2.765 -1.33,0 -2.625,-0.385 -3.7275,-1.085 v 0.735 c 1.1025,0.7 2.3975,1.085 3.7275,1.085 2.03,0 3.71,-1.575 3.71,-3.5 z"
         style="font-size:17.5px;line-height:1.25"
         id="path518" />
    </g>
    <g
       aria-label="12"
       id="text7943"
       style="line-height:0%;font-family:Iwona;-inkscape-font-specification:Iwona;text-align:center;letter-spacing:0px;word-spacing:0px;text-anchor:middle;stroke-width:1px">
      <path
         d="m 574.14659,155.90552 v -12.075 h -1.015 c -0.9625,1.1025 -2.1,2.0475 -3.36,2.7825 v 0.735 c 1.0675,-0.5075 2.065,-1.1025 3.01,-1.82 v 10.3775 z"
         style="font-size:17.5px;line-height:1.25"
         id="path521" />
      <path
         d="m 585.87158,155.90552 v -1.085 h -6.1775 l 3.22,-3.185 c 1.435,-1.435 2.7825,-3.115 2.7825,-5.145 0,-1.715 -1.6975,-2.835 -3.535,-2.835 -1.3825,0 -2.695,0.63 -3.5525,1.6975 v 0.735 c 0.8925,-1.0325 2.1875,-1.6275 3.5525,-1.6275 1.1725,0 2.17,0.875 2.17,2.03 0,1.7325 -0.805,3.3425 -1.995,4.585 l -3.9025,4.0075 v 0.8225 z"
         style="font-size:17.5px;line-height:1.25"
         id="path523" />
    </g>
    <g
       aria-label="11"
       id="text7947"
       style="line-height:0%;font-family:Iwona;-inkscape-font-specification:Iwona;text-align:center;letter-spacing:0px;word-spacing:0px;text-anchor:middle;stroke-width:1px">
      <path
         d="m 598.94975,155.90552 v -12.075 h -1.015 c -0.9625,1.1025 -2.1,2.0475 -3.36,2.7825 v 0.735 c 1.0675,-0.5075 2.065,-1.1025 3.01,-1.82 v 10.3775 z"
         style="font-size:17.5px;line-height:1.25"
         id="path526" />
      <path
         d="m 608.13724,155.90552 v -12.075 h -1.015 c -0.9625,1.1025 -2.1,2.0475 -3.36,2.7825 v 0.735 c 1.0675,-0.5075 2.065,-1.1025 3.01,-1.82 v 10.3775 z"
         style="font-size:17.5px;line-height:1.25"
         id="path528" />
    </g>
    <g
       aria-label="10"
       id="text7951"
       style="line-height:0%;font-family:Iwona;-inkscape-font-specification:Iwona;text-align:center;letter-spacing:0px;word-spacing:0px;text-anchor:middle;stroke-width:1px">
      <path
         d="m 623.75285,155.90552 v -12.075 h -1.015 c -0.9625,1.1025 -2.1,2.0475 -3.36,2.7825 v 0.735 c 1.0675,-0.5075 2.065,-1.1025 3.01,-1.82 v 10.3775 z"
         style="font-size:17.5px;line-height:1.25"
         id="path531" />
      <path
         d="m 635.60034,149.86802 c 0,-4.1475 -1.2775,-6.2125 -3.8325,-6.2125 -2.555,0 -3.8325,2.065 -3.8325,6.2125 0,4.1475 1.2775,6.2125 3.8325,6.2125 2.555,0 3.8325,-2.065 3.8325,-6.2125 z m -1.54,0 c 0,3.6575 -0.77,5.4775 -2.2925,5.4775 -1.5225,0 -2.2925,-1.82 -2.2925,-5.4775 0,-3.6575 0.77,-5.4775 2.2925,-5.4775 1.5225,0 2.2925,1.82 2.2925,5.4775 z"
         style="font-size:17.5px;line-height:1.25"
         id="path533" />
    </g>
    <g
       aria-label="9"
       id="text7955"
       style="line-height:0%;font-family:Iwona;-inkscape-font-specification:Iwona;text-align:center;letter-spacing:0px;word-spacing:0px;text-anchor:middle;stroke-width:1px">
      <path
         d="m 655.68726,149.86802 c 0,-4.34 -1.12,-6.2125 -3.71,-6.2125 -2.24,0 -3.7275,1.645 -3.7275,4.1125 0,2.52 0.9975,4.1125 3.3425,4.1125 1.015,0 1.96,-0.4725 2.555,-1.2775 0,2.2925 -0.5775,4.7425 -2.555,4.7425 -0.8925,0 -1.7675,-0.2975 -2.4675,-0.8575 v 0.735 c 0.7,0.56 1.575,0.8575 2.4675,0.8575 2.7475,0 4.095,-3.115 4.095,-6.2125 z m -1.54,0 c -0.595,0.805 -1.54,1.2775 -2.555,1.2775 -1.4,0 -1.8025,-1.75 -1.8025,-3.3775 0,-2.03 0.875,-3.3775 2.1875,-3.3775 2.4325,0 2.17,2.6425 2.17,5.4775 z"
         style="font-size:17.5px;line-height:1.25"
         id="path536" />
    </g>
    <g
       aria-label="8"
       id="text7959"
       style="line-height:0%;font-family:Iwona;-inkscape-font-specification:Iwona;text-align:center;letter-spacing:0px;word-spacing:0px;text-anchor:middle;stroke-width:1px">
      <path
         d="m 680.49042,152.52802 c 0,-1.645 -0.7875,-2.8175 -2.135,-3.3075 1.1375,-0.42 1.785,-1.365 1.785,-2.6425 0,-1.82 -1.2775,-2.9225 -3.36,-2.9225 -2.1,0 -3.3775,1.1025 -3.3775,2.9225 0,1.2775 0.6475,2.2225 1.785,2.6425 -1.3475,0.49 -2.135,1.6625 -2.135,3.3075 0,2.205 1.4175,3.5525 3.7275,3.5525 2.2925,0 3.71,-1.3475 3.71,-3.5525 z m -1.715,-5.95 c 0,1.3475 -0.77,2.1875 -1.995,2.1875 -1.2425,0 -2.0125,-0.84 -2.0125,-2.1875 0,-1.365 0.77,-2.1875 2.0125,-2.1875 1.225,0 1.995,0.8225 1.995,2.1875 z m 0.175,5.95 c 0,1.75 -0.8225,2.8175 -2.17,2.8175 -1.365,0 -2.1875,-1.0675 -2.1875,-2.8175 0,-1.75 0.8225,-2.8175 2.1875,-2.8175 1.3475,0 2.17,1.0675 2.17,2.8175 z"
         style="font-size:17.5px;line-height:1.25"
         id="path539" />
    </g>
    <g
       aria-label="7"
       id="text7963"
       style="line-height:0%;font-family:Iwona;-inkscape-font-specification:Iwona;text-align:center;letter-spacing:0px;word-spacing:0px;text-anchor:middle;stroke-width:1px">
      <path
         d="m 705.29358,144.42552 v -0.595 h -7.4375 v 1.085 h 5.705 l -5.1625,10.99 h 1.505 z"
         style="font-size:17.5px;line-height:1.25"
         id="path542" />
    </g>
    <g
       aria-label="6"
       id="text7967"
       style="line-height:0%;font-family:Iwona;-inkscape-font-specification:Iwona;text-align:center;letter-spacing:0px;word-spacing:0px;text-anchor:middle;stroke-width:1px">
      <path
         d="m 730.09668,151.96802 c 0,-2.52 -0.9975,-4.1125 -3.3425,-4.1125 -1.015,0 -1.96,0.4725 -2.555,1.2775 0,-2.2925 0.5775,-4.7425 2.555,-4.7425 0.8925,0 1.7675,0.2975 2.4675,0.8575 v -0.735 c -0.7,-0.56 -1.575,-0.8575 -2.4675,-0.8575 -2.7475,0 -4.095,3.115 -4.095,6.2125 0,4.34 1.12,6.2125 3.7275,6.2125 2.2225,0 3.71,-1.645 3.71,-4.1125 z m -1.54,0 c 0,2.03 -0.875,3.3775 -2.17,3.3775 -2.45,0 -2.1875,-2.6425 -2.1875,-5.4775 0.595,-0.805 1.54,-1.2775 2.555,-1.2775 1.4,0 1.8025,1.75 1.8025,3.3775 z"
         style="font-size:17.5px;line-height:1.25"
         id="path545" />
    </g>
    <g
       aria-label="5"
       id="text7971"
       style="line-height:0%;font-family:Iwona;-inkscape-font-specification:Iwona;text-align:center;letter-spacing:0px;word-spacing:0px;text-anchor:middle;stroke-width:1px">
      <path
         d="m 754.89984,151.96802 c 0,-2.4675 -1.4875,-4.1125 -3.71,-4.1125 -1.015,0 -1.96,0.385 -2.695,1.0325 l 0.175,-3.9725 h 5.88 v -1.085 h -6.5625 l -0.2625,6.0375 0.735,0.035 c 0.665,-0.8225 1.6625,-1.3125 2.73,-1.3125 1.295,0 2.17,1.3475 2.17,3.3775 0,2.03 -0.875,3.3775 -2.17,3.3775 -1.3475,0 -2.66,-0.4375 -3.7275,-1.26 v 0.735 c 1.0675,0.8225 2.38,1.26 3.7275,1.26 2.2225,0 3.71,-1.645 3.71,-4.1125 z"
         style="font-size:17.5px;line-height:1.25"
         id="path548" />
    </g>
    <g
       aria-label="4"
       id="text7975"
       style="line-height:0%;font-family:Iwona;-inkscape-font-specification:Iwona;text-align:center;letter-spacing:0px;word-spacing:0px;text-anchor:middle;stroke-width:1px">
      <path
         d="m 779.70301,151.70552 v -0.805 h -1.3125 v -7.07 h -1.365 l -4.76,7.07 v 0.805 h 4.76 v 4.2 h 1.365 v -4.2 z m -2.6775,-0.805 h -3.8675 l 3.8675,-5.7575 z"
         style="font-size:17.5px;line-height:1.25"
         id="path551" />
    </g>
    <g
       aria-label="3"
       id="text7979"
       style="line-height:0%;font-family:Iwona;-inkscape-font-specification:Iwona;text-align:center;letter-spacing:0px;word-spacing:0px;text-anchor:middle;stroke-width:1px">
      <path
         d="m 804.50617,152.58052 c 0,-1.54 -1.085,-2.87 -2.59,-3.325 1.33,-0.385 2.1525,-1.3825 2.1525,-2.7125 0,-1.7325 -1.4,-2.8875 -3.5,-2.8875 -1.1375,0 -2.24,0.385 -3.1325,1.085 v 0.735 c 0.8925,-0.7 1.995,-1.085 3.1325,-1.085 1.2775,0 2.135,0.8575 2.135,2.1525 0,2.0825 -0.9625,2.625 -3.15,2.625 v 0.6475 c 2.3625,0 3.4125,0.56 3.4125,2.765 0,1.5225 -0.98,2.765 -2.17,2.765 -1.33,0 -2.625,-0.385 -3.7275,-1.085 v 0.735 c 1.1025,0.7 2.3975,1.085 3.7275,1.085 2.03,0 3.71,-1.575 3.71,-3.5 z"
         style="font-size:17.5px;line-height:1.25"
         id="path554" />
    </g>
    <g
       aria-label="2"
       id="text7983"
       style="line-height:0%;font-family:Iwona;-inkscape-font-specification:Iwona;text-align:center;letter-spacing:0px;word-spacing:0px;text-anchor:middle;stroke-width:1px">
      <path
         d="m 829.30933,155.90552 v -1.085 h -6.1775 l 3.22,-3.185 c 1.435,-1.435 2.7825,-3.115 2.7825,-5.145 0,-1.715 -1.6975,-2.835 -3.535,-2.835 -1.3825,0 -2.695,0.63 -3.5525,1.6975 v 0.735 c 0.8925,-1.0325 2.1875,-1.6275 3.5525,-1.6275 1.1725,0 2.17,0.875 2.17,2.03 0,1.7325 -0.805,3.3425 -1.995,4.585 l -3.9025,4.0075 v 0.8225 z"
         style="font-size:17.5px;line-height:1.25"
         id="path557" />
    </g>
    <g
       aria-label="1"
       id="text7987"
       style="line-height:0%;font-family:Iwona;-inkscape-font-specification:Iwona;text-align:center;letter-spacing:0px;word-spacing:0px;text-anchor:middle;stroke-width:1px">
      <path
         d="m 851.57493,155.90552 v -12.075 h -1.015 c -0.9625,1.1025 -2.1,2.0475 -3.36,2.7825 v 0.735 c 1.0675,-0.5075 2.065,-1.1025 3.01,-1.82 v 10.3775 z"
         style="font-size:17.5px;line-height:1.25"
         id="path560" />
    </g>
    <g
       aria-label="0"
       id="text7991"
       style="line-height:0%;font-family:Iwona;-inkscape-font-specification:Iwona;text-align:center;letter-spacing:0px;word-spacing:0px;text-anchor:middle;stroke-width:1px">
      <path
         d="m 879.03809,149.86802 c 0,-4.1475 -1.2775,-6.2125 -3.8325,-6.2125 -2.555,0 -3.8325,2.065 -3.8325,6.2125 0,4.1475 1.2775,6.2125 3.8325,6.2125 2.555,0 3.8325,-2.065 3.8325,-6.2125 z m -1.54,0 c 0,3.6575 -0.77,5.4775 -2.2925,5.4775 -1.5225,0 -2.2925,-1.82 -2.2925,-5.4775 0,-3.6575 0.77,-5.4775 2.2925,-5.4775 1.5225,0 2.2925,1.82 2.2925,5.4775 z"
         style="font-size:17.5px;line-height:1.25"
         id="path563" />
    </g>
    <g
       aria-label="31"
       id="text7995"
       style="line-height:0%;font-family:Iwona;-inkscape-font-specification:Iwona;text-align:center;letter-spacing:0px;word-spacing:0px;text-anchor:middle;stroke-width:1px">
      <path
         d="m 899.12501,152.58052 c 0,-1.54 -1.085,-2.87 -2.59,-3.325 1.33,-0.385 2.1525,-1.3825 2.1525,-2.7125 0,-1.7325 -1.4,-2.8875 -3.5,-2.8875 -1.1375,0 -2.24,0.385 -3.1325,1.085 v 0.735 c 0.8925,-0.7 1.995,-1.085 3.1325,-1.085 1.2775,0 2.135,0.8575 2.135,2.1525 0,2.0825 -0.9625,2.625 -3.15,2.625 v 0.6475 c 2.3625,0 3.4125,0.56 3.4125,2.765 0,1.5225 -0.98,2.765 -2.17,2.765 -1.33,0 -2.625,-0.385 -3.7275,-1.085 v 0.735 c 1.1025,0.7 2.3975,1.085 3.7275,1.085 2.03,0 3.71,-1.575 3.71,-3.5 z"
         style="font-size:17.5px;line-height:1.25"
         id="path566" />
      <path
         d="m 905.775,155.90552 v -12.075 h -1.015 c -0.9625,1.1025 -2.1,2.0475 -3.36,2.7825 v 0.735 c 1.0675,-0.5075 2.065,-1.1025 3.01,-1.82 v 10.3775 z"
         style="font-size:17.5px;line-height:1.25"
         id="path568" />
    </g>
    <g
       aria-label="30"
       id="text7999"
       style="line-height:0%;font-family:Iwona;-inkscape-font-specification:Iwona;text-align:center;letter-spacing:0px;word-spacing:0px;text-anchor:middle;stroke-width:1px">
      <path
         d="m 923.92817,152.58052 c 0,-1.54 -1.085,-2.87 -2.59,-3.325 1.33,-0.385 2.1525,-1.3825 2.1525,-2.7125 0,-1.7325 -1.4,-2.8875 -3.5,-2.8875 -1.1375,0 -2.24,0.385 -3.1325,1.085 v 0.735 c 0.8925,-0.7 1.995,-1.085 3.1325,-1.085 1.2775,0 2.135,0.8575 2.135,2.1525 0,2.0825 -0.9625,2.625 -3.15,2.625 v 0.6475 c 2.3625,0 3.4125,0.56 3.4125,2.765 0,1.5225 -0.98,2.765 -2.17,2.765 -1.33,0 -2.625,-0.385 -3.7275,-1.085 v 0.735 c 1.1025,0.7 2.3975,1.085 3.7275,1.085 2.03,0 3.71,-1.575 3.71,-3.5 z"
         style="font-size:17.5px;line-height:1.25"
         id="path571" />
      <path
         d="m 933.23816,149.86802 c 0,-4.1475 -1.2775,-6.2125 -3.8325,-6.2125 -2.555,0 -3.8325,2.065 -3.8325,6.2125 0,4.1475 1.2775,6.2125 3.8325,6.2125 2.555,0 3.8325,-2.065 3.8325,-6.2125 z m -1.54,0 c 0,3.6575 -0.77,5.4775 -2.2925,5.4775 -1.5225,0 -2.2925,-1.82 -2.2925,-5.4775 0,-3.6575 0.77,-5.4775 2.2925,-5.4775 1.5225,0 2.2925,1.82 2.2925,5.4775 z"
         style="font-size:17.5px;line-height:1.25"
         id="path573" />
    </g>
    <g
       aria-label="29"
       id="text8003"
       style="line-height:0%;font-family:Iwona;-inkscape-font-specification:Iwona;text-align:center;letter-spacing:0px;word-spacing:0px;text-anchor:middle;stroke-width:1px">
      <path
         d="m 948.73133,155.90552 v -1.085 h -6.1775 l 3.22,-3.185 c 1.435,-1.435 2.7825,-3.115 2.7825,-5.145 0,-1.715 -1.6975,-2.835 -3.535,-2.835 -1.3825,0 -2.695,0.63 -3.5525,1.6975 v 0.735 c 0.8925,-1.0325 2.1875,-1.6275 3.5525,-1.6275 1.1725,0 2.17,0.875 2.17,2.03 0,1.7325 -0.805,3.3425 -1.995,4.585 l -3.9025,4.0075 v 0.8225 z"
         style="font-size:17.5px;line-height:1.25"
         id="path576" />
      <path
         d="m 957.91882,149.86802 c 0,-4.34 -1.12,-6.2125 -3.71,-6.2125 -2.24,0 -3.7275,1.645 -3.7275,4.1125 0,2.52 0.9975,4.1125 3.3425,4.1125 1.015,0 1.96,-0.4725 2.555,-1.2775 0,2.2925 -0.5775,4.7425 -2.555,4.7425 -0.8925,0 -1.7675,-0.2975 -2.4675,-0.8575 v 0.735 c 0.7,0.56 1.575,0.8575 2.4675,0.8575 2.7475,0 4.095,-3.115 4.095,-6.2125 z m -1.54,0 c -0.595,0.805 -1.54,1.2775 -2.555,1.2775 -1.4,0 -1.8025,-1.75 -1.8025,-3.3775 0,-2.03 0.875,-3.3775 2.1875,-3.3775 2.4325,0 2.17,2.6425 2.17,5.4775 z"
         style="font-size:17.5px;line-height:1.25"
         id="path578" />
    </g>
    <g
       aria-label="28"
       id="text8007"
       style="line-height:0%;font-family:Iwona;-inkscape-font-specification:Iwona;text-align:center;letter-spacing:0px;word-spacing:0px;text-anchor:middle;stroke-width:1px">
      <path
         d="m 973.53449,155.90552 v -1.085 h -6.1775 l 3.22,-3.185 c 1.435,-1.435 2.7825,-3.115 2.7825,-5.145 0,-1.715 -1.6975,-2.835 -3.535,-2.835 -1.3825,0 -2.695,0.63 -3.5525,1.6975 v 0.735 c 0.8925,-1.0325 2.1875,-1.6275 3.5525,-1.6275 1.1725,0 2.17,0.875 2.17,2.03 0,1.7325 -0.805,3.3425 -1.995,4.585 l -3.9025,4.0075 v 0.8225 z"
         style="font-size:17.5px;line-height:1.25"
         id="path581" />
      <path
         d="m 982.72198,152.52802 c 0,-1.645 -0.7875,-2.8175 -2.135,-3.3075 1.1375,-0.42 1.785,-1.365 1.785,-2.6425 0,-1.82 -1.2775,-2.9225 -3.36,-2.9225 -2.1,0 -3.3775,1.1025 -3.3775,2.9225 0,1.2775 0.6475,2.2225 1.785,2.6425 -1.3475,0.49 -2.135,1.6625 -2.135,3.3075 0,2.205 1.4175,3.5525 3.7275,3.5525 2.2925,0 3.71,-1.3475 3.71,-3.5525 z m -1.715,-5.95 c 0,1.3475 -0.77,2.1875 -1.995,2.1875 -1.2425,0 -2.0125,-0.84 -2.0125,-2.1875 0,-1.365 0.77,-2.1875 2.0125,-2.1875 1.225,0 1.995,0.8225 1.995,2.1875 z m 0.175,5.95 c 0,1.75 -0.8225,2.8175 -2.17,2.8175 -1.365,0 -2.1875,-1.0675 -2.1875,-2.8175 0,-1.75 0.8225,-2.8175 2.1875,-2.8175 1.3475,0 2.17,1.0675 2.17,2.8175 z"
         style="font-size:17.5px;line-height:1.25"
         id="path583" />
    </g>
    <g
       aria-label="27"
       id="text8011"
       style="line-height:0%;font-family:Iwona;-inkscape-font-specification:Iwona;text-align:center;letter-spacing:0px;word-spacing:0px;text-anchor:middle;stroke-width:1px">
      <path
         d="m 998.33765,155.90552 v -1.085 h -6.1775 l 3.22,-3.185 c 1.435,-1.435 2.7825,-3.115 2.7825,-5.145 0,-1.715 -1.6975,-2.835 -3.535,-2.835 -1.3825,0 -2.695,0.63 -3.5525,1.6975 v 0.735 c 0.8925,-1.0325 2.1875,-1.6275 3.5525,-1.6275 1.1725,0 2.17,0.875 2.17,2.03 0,1.7325 -0.805,3.3425 -1.995,4.585 l -3.9025,4.0075 v 0.8225 z"
         style="font-size:17.5px;line-height:1.25"
         id="path586" />
      <path
         d="m 1007.5251,144.42552 v -0.595 h -7.4375 v 1.085 h 5.705 l -5.1625,10.99 h 1.505 z"
         style="font-size:17.5px;line-height:1.25"
         id="path588" />
    </g>
    <g
       aria-label="26"
       id="text8015"
       style="line-height:0%;font-family:Iwona;-inkscape-font-specification:Iwona;text-align:center;letter-spacing:0px;word-spacing:0px;text-anchor:middle;stroke-width:1px">
      <path
         d="m 1023.1408,155.90552 v -1.085 h -6.1775 l 3.22,-3.185 c 1.435,-1.435 2.7825,-3.115 2.7825,-5.145 0,-1.715 -1.6975,-2.835 -3.535,-2.835 -1.3825,0 -2.695,0.63 -3.5525,1.6975 v 0.735 c 0.8925,-1.0325 2.1875,-1.6275 3.5525,-1.6275 1.1725,0 2.17,0.875 2.17,2.03 0,1.7325 -0.805,3.3425 -1.995,4.585 l -3.9025,4.0075 v 0.8225 z"
         style="font-size:17.5px;line-height:1.25"
         id="path591" />
      <path
         d="m 1032.3282,151.96802 c 0,-2.52 -0.9975,-4.1125 -3.3425,-4.1125 -1.015,0 -1.96,0.4725 -2.555,1.2775 0,-2.2925 0.5775,-4.7425 2.555,-4.7425 0.8925,0 1.7675,0.2975 2.4675,0.8575 v -0.735 c -0.7,-0.56 -1.575,-0.8575 -2.4675,-0.8575 -2.7475,0 -4.095,3.115 -4.095,6.2125 0,4.34 1.12,6.2125 3.7275,6.2125 2.2225,0 3.71,-1.645 3.71,-4.1125 z m -1.54,0 c 0,2.03 -0.875,3.3775 -2.17,3.3775 -2.45,0 -2.1875,-2.6425 -2.1875,-5.4775 0.595,-0.805 1.54,-1.2775 2.555,-1.2775 1.4,0 1.8025,1.75 1.8025,3.3775 z"
         style="font-size:17.5px;line-height:1.25"
         id="path593" />
    </g>
    <g
       aria-label="25"
       id="text8019"
       style="line-height:0%;font-family:Iwona;-inkscape-font-specification:Iwona;text-align:center;letter-spacing:0px;word-spacing:0px;text-anchor:middle;stroke-width:1px">
      <path
         d="m 1047.9439,155.90552 v -1.085 h -6.1775 l 3.22,-3.185 c 1.435,-1.435 2.7825,-3.115 2.7825,-5.145 0,-1.715 -1.6975,-2.835 -3.535,-2.835 -1.3825,0 -2.695,0.63 -3.5525,1.6975 v 0.735 c 0.8925,-1.0325 2.1875,-1.6275 3.5525,-1.6275 1.1725,0 2.17,0.875 2.17,2.03 0,1.7325 -0.805,3.3425 -1.995,4.585 l -3.9025,4.0075 v 0.8225 z"
         style="font-size:17.5px;line-height:1.25"
         id="path596" />
      <path
         d="m 1057.1313,151.96802 c 0,-2.4675 -1.4875,-4.1125 -3.71,-4.1125 -1.015,0 -1.96,0.385 -2.695,1.0325 l 0.175,-3.9725 h 5.88 v -1.085 h -6.5625 l -0.2625,6.0375 0.735,0.035 c 0.665,-0.8225 1.6625,-1.3125 2.73,-1.3125 1.295,0 2.17,1.3475 2.17,3.3775 0,2.03 -0.875,3.3775 -2.17,3.3775 -1.3475,0 -2.66,-0.4375 -3.7275,-1.26 v 0.735 c 1.0675,0.8225 2.38,1.26 3.7275,1.26 2.2225,0 3.71,-1.645 3.71,-4.1125 z"
         style="font-size:17.5px;line-height:1.25"
         id="path598" />
    </g>
    <g
       aria-label="24"
       id="text8023"
       style="line-height:0%;font-family:Iwona;-inkscape-font-specification:Iwona;text-align:center;letter-spacing:0px;word-spacing:0px;text-anchor:middle;stroke-width:1px">
      <path
         d="m 1072.7471,155.90552 v -1.085 h -6.1775 l 3.22,-3.185 c 1.435,-1.435 2.7825,-3.115 2.7825,-5.145 0,-1.715 -1.6975,-2.835 -3.535,-2.835 -1.3825,0 -2.695,0.63 -3.5525,1.6975 v 0.735 c 0.8925,-1.0325 2.1875,-1.6275 3.5525,-1.6275 1.1725,0 2.17,0.875 2.17,2.03 0,1.7325 -0.805,3.3425 -1.995,4.585 l -3.9025,4.0075 v 0.8225 z"
         style="font-size:17.5px;line-height:1.25"
         id="path601" />
      <path
         d="m 1081.9346,151.70552 v -0.805 h -1.3125 v -7.07 h -1.365 l -4.76,7.07 v 0.805 h 4.76 v 4.2 h 1.365 v -4.2 z m -2.6775,-0.805 h -3.8675 l 3.8675,-5.7575 z"
         style="font-size:17.5px;line-height:1.25"
         id="path603" />
    </g>
    <g
       aria-label="23"
       id="text8027"
       style="line-height:0%;font-family:Iwona;-inkscape-font-specification:Iwona;text-align:center;letter-spacing:0px;word-spacing:0px;text-anchor:middle;stroke-width:1px">
      <path
         d="m 1097.5502,155.90552 v -1.085 h -6.1775 l 3.22,-3.185 c 1.435,-1.435 2.7825,-3.115 2.7825,-5.145 0,-1.715 -1.6975,-2.835 -3.535,-2.835 -1.3825,0 -2.695,0.63 -3.5525,1.6975 v 0.735 c 0.8925,-1.0325 2.1875,-1.6275 3.5525,-1.6275 1.1725,0 2.17,0.875 2.17,2.03 0,1.7325 -0.805,3.3425 -1.995,4.585 l -3.9025,4.0075 v 0.8225 z"
         style="font-size:17.5px;line-height:1.25"
         id="path606" />
      <path
         d="m 1106.7377,152.58052 c 0,-1.54 -1.085,-2.87 -2.59,-3.325 1.33,-0.385 2.1525,-1.3825 2.1525,-2.7125 0,-1.7325 -1.4,-2.8875 -3.5,-2.8875 -1.1375,0 -2.24,0.385 -3.1325,1.085 v 0.735 c 0.8925,-0.7 1.995,-1.085 3.1325,-1.085 1.2775,0 2.135,0.8575 2.135,2.1525 0,2.0825 -0.9625,2.625 -3.15,2.625 v 0.6475 c 2.3625,0 3.4125,0.56 3.4125,2.765 0,1.5225 -0.98,2.765 -2.17,2.765 -1.33,0 -2.625,-0.385 -3.7275,-1.085 v 0.735 c 1.1025,0.7 2.3975,1.085 3.7275,1.085 2.03,0 3.71,-1.575 3.71,-3.5 z"
         style="font-size:17.5px;line-height:1.25"
         id="path608" />
    </g>
    <g
       aria-label="22"
       id="text8031"
       style="line-height:0%;font-family:Iwona;-inkscape-font-specification:Iwona;text-align:center;letter-spacing:0px;word-spacing:0px;text-anchor:middle;stroke-width:1px">
      <path
         d="m 1122.3533,155.90552 v -1.085 h -6.1775 l 3.22,-3.185 c 1.435,-1.435 2.7825,-3.115 2.7825,-5.145 0,-1.715 -1.6975,-2.835 -3.535,-2.835 -1.3825,0 -2.695,0.63 -3.5525,1.6975 v 0.735 c 0.8925,-1.0325 2.1875,-1.6275 3.5525,-1.6275 1.1725,0 2.17,0.875 2.17,2.03 0,1.7325 -0.805,3.3425 -1.995,4.585 l -3.9025,4.0075 v 0.8225 z"
         style="font-size:17.5px;line-height:1.25"
         id="path611" />
      <path
         d="m 1131.5408,155.90552 v -1.085 h -6.1775 l 3.22,-3.185 c 1.435,-1.435 2.7825,-3.115 2.7825,-5.145 0,-1.715 -1.6975,-2.835 -3.535,-2.835 -1.3825,0 -2.695,0.63 -3.5525,1.6975 v 0.735 c 0.8925,-1.0325 2.1875,-1.6275 3.5525,-1.6275 1.1725,0 2.17,0.875 2.17,2.03 0,1.7325 -0.805,3.3425 -1.995,4.585 l -3.9025,4.0075 v 0.8225 z"
         style="font-size:17.5px;line-height:1.25"
         id="path613" />
    </g>
    <g
       aria-label="21"
       id="text8035"
       style="line-height:0%;font-family:Iwona;-inkscape-font-specification:Iwona;text-align:center;letter-spacing:0px;word-spacing:0px;text-anchor:middle;stroke-width:1px">
      <path
         d="m 1147.1565,155.90552 v -1.085 h -6.1775 l 3.22,-3.185 c 1.435,-1.435 2.7825,-3.115 2.7825,-5.145 0,-1.715 -1.6975,-2.835 -3.535,-2.835 -1.3825,0 -2.695,0.63 -3.5525,1.6975 v 0.735 c 0.8925,-1.0325 2.1875,-1.6275 3.5525,-1.6275 1.1725,0 2.17,0.875 2.17,2.03 0,1.7325 -0.805,3.3425 -1.995,4.585 l -3.9025,4.0075 v 0.8225 z"
         style="font-size:17.5px;line-height:1.25"
         id="path616" />
      <path
         d="m 1153.8065,155.90552 v -12.075 h -1.015 c -0.9625,1.1025 -2.1,2.0475 -3.36,2.7825 v 0.735 c 1.0675,-0.5075 2.065,-1.1025 3.01,-1.82 v 10.3775 z"
         style="font-size:17.5px;line-height:1.25"
         id="path618" />
    </g>
    <g
       aria-label="20"
       id="text8039"
       style="line-height:0%;font-family:Iwona;-inkscape-font-specification:Iwona;text-align:center;letter-spacing:0px;word-spacing:0px;text-anchor:middle;stroke-width:1px">
      <path
         d="m 1171.9596,155.90552 v -1.085 h -6.1775 l 3.22,-3.185 c 1.435,-1.435 2.7825,-3.115 2.7825,-5.145 0,-1.715 -1.6975,-2.835 -3.535,-2.835 -1.3825,0 -2.695,0.63 -3.5525,1.6975 v 0.735 c 0.8925,-1.0325 2.1875,-1.6275 3.5525,-1.6275 1.1725,0 2.17,0.875 2.17,2.03 0,1.7325 -0.805,3.3425 -1.995,4.585 l -3.9025,4.0075 v 0.8225 z"
         style="font-size:17.5px;line-height:1.25"
         id="path621" />
      <path
         d="m 1181.2696,149.86802 c 0,-4.1475 -1.2775,-6.2125 -3.8325,-6.2125 -2.555,0 -3.8325,2.065 -3.8325,6.2125 0,4.1475 1.2775,6.2125 3.8325,6.2125 2.555,0 3.8325,-2.065 3.8325,-6.2125 z m -1.54,0 c 0,3.6575 -0.77,5.4775 -2.2925,5.4775 -1.5225,0 -2.2925,-1.82 -2.2925,-5.4775 0,-3.6575 0.77,-5.4775 2.2925,-5.4775 1.5225,0 2.2925,1.82 2.2925,5.4775 z"
         style="font-size:17.5px;line-height:1.25"
         id="path623" />
    </g>
    <g
       aria-label="19"
       id="text8043"
       style="line-height:0%;font-family:Iwona;-inkscape-font-specification:Iwona;text-align:center;letter-spacing:0px;word-spacing:0px;text-anchor:middle;stroke-width:1px">
      <path
         d="m 1194.2253,155.90552 v -12.075 h -1.015 c -0.9625,1.1025 -2.1,2.0475 -3.36,2.7825 v 0.735 c 1.0675,-0.5075 2.065,-1.1025 3.01,-1.82 v 10.3775 z"
         style="font-size:17.5px;line-height:1.25"
         id="path626" />
      <path
         d="m 1205.9503,149.86802 c 0,-4.34 -1.12,-6.2125 -3.71,-6.2125 -2.24,0 -3.7275,1.645 -3.7275,4.1125 0,2.52 0.9975,4.1125 3.3425,4.1125 1.015,0 1.96,-0.4725 2.555,-1.2775 0,2.2925 -0.5775,4.7425 -2.555,4.7425 -0.8925,0 -1.7675,-0.2975 -2.4675,-0.8575 v 0.735 c 0.7,0.56 1.575,0.8575 2.4675,0.8575 2.7475,0 4.095,-3.115 4.095,-6.2125 z m -1.54,0 c -0.595,0.805 -1.54,1.2775 -2.555,1.2775 -1.4,0 -1.8025,-1.75 -1.8025,-3.3775 0,-2.03 0.875,-3.3775 2.1875,-3.3775 2.4325,0 2.17,2.6425 2.17,5.4775 z"
         style="font-size:17.5px;line-height:1.25"
         id="path628" />
    </g>
    <g
       aria-label="18"
       id="text8047"
       style="line-height:0%;font-family:Iwona;-inkscape-font-specification:Iwona;text-align:center;letter-spacing:0px;word-spacing:0px;text-anchor:middle;stroke-width:1px">
      <path
         d="m 1219.0284,155.90552 v -12.075 h -1.015 c -0.9625,1.1025 -2.1,2.0475 -3.36,2.7825 v 0.735 c 1.0675,-0.5075 2.065,-1.1025 3.01,-1.82 v 10.3775 z"
         style="font-size:17.5px;line-height:1.25"
         id="path631" />
      <path
         d="m 1230.7534,152.52802 c 0,-1.645 -0.7875,-2.8175 -2.135,-3.3075 1.1375,-0.42 1.785,-1.365 1.785,-2.6425 0,-1.82 -1.2775,-2.9225 -3.36,-2.9225 -2.1,0 -3.3775,1.1025 -3.3775,2.9225 0,1.2775 0.6475,2.2225 1.785,2.6425 -1.3475,0.49 -2.135,1.6625 -2.135,3.3075 0,2.205 1.4175,3.5525 3.7275,3.5525 2.2925,0 3.71,-1.3475 3.71,-3.5525 z m -1.715,-5.95 c 0,1.3475 -0.77,2.1875 -1.995,2.1875 -1.2425,0 -2.0125,-0.84 -2.0125,-2.1875 0,-1.365 0.77,-2.1875 2.0125,-2.1875 1.225,0 1.995,0.8225 1.995,2.1875 z m 0.175,5.95 c 0,1.75 -0.8225,2.8175 -2.17,2.8175 -1.365,0 -2.1875,-1.0675 -2.1875,-2.8175 0,-1.75 0.8225,-2.8175 2.1875,-2.8175 1.3475,0 2.17,1.0675 2.17,2.8175 z"
         style="font-size:17.5px;line-height:1.25"
         id="path633" />
    </g>
    <g
       aria-label="17"
       id="text8051"
       style="line-height:0%;font-family:Iwona;-inkscape-font-specification:Iwona;text-align:center;letter-spacing:0px;word-spacing:0px;text-anchor:middle;stroke-width:1px">
      <path
         d="m 1243.8315,155.90552 v -12.075 h -1.015 c -0.9625,1.1025 -2.1,2.0475 -3.36,2.7825 v 0.735 c 1.0675,-0.5075 2.065,-1.1025 3.01,-1.82 v 10.3775 z"
         style="font-size:17.5px;line-height:1.25"
         id="path636" />
      <path
         d="m 1255.5565,144.42552 v -0.595 h -7.4375 v 1.085 h 5.705 l -5.1625,10.99 h 1.505 z"
         style="font-size:17.5px;line-height:1.25"
         id="path638" />
    </g>
    <g
       aria-label="16"
       id="text8055"
       style="line-height:0%;font-family:Iwona;-inkscape-font-specification:Iwona;text-align:center;letter-spacing:0px;word-spacing:0px;text-anchor:middle;stroke-width:1px">
      <path
         d="m 1268.6347,155.90552 v -12.075 h -1.015 c -0.9625,1.1025 -2.1,2.0475 -3.36,2.7825 v 0.735 c 1.0675,-0.5075 2.065,-1.1025 3.01,-1.82 v 10.3775 z"
         style="font-size:17.5px;line-height:1.25"
         id="path641" />
      <path
         d="m 1280.3597,151.96802 c 0,-2.52 -0.9975,-4.1125 -3.3425,-4.1125 -1.015,0 -1.96,0.4725 -2.555,1.2775 0,-2.2925 0.5775,-4.7425 2.555,-4.7425 0.8925,0 1.7675,0.2975 2.4675,0.8575 v -0.735 c -0.7,-0.56 -1.575,-0.8575 -2.4675,-0.8575 -2.7475,0 -4.095,3.115 -4.095,6.2125 0,4.34 1.12,6.2125 3.7275,6.2125 2.2225,0 3.71,-1.645 3.71,-4.1125 z m -1.54,0 c 0,2.03 -0.875,3.3775 -2.17,3.3775 -2.45,0 -2.1875,-2.6425 -2.1875,-5.4775 0.595,-0.805 1.54,-1.2775 2.555,-1.2775 1.4,0 1.8025,1.75 1.8025,3.3775 z"
         style="font-size:17.5px;line-height:1.25"
         id="path643" />
    </g>
    <g
       aria-label="15"
       id="text8059"
       style="line-height:0%;font-family:Iwona;-inkscape-font-specification:Iwona;text-align:center;letter-spacing:0px;word-spacing:0px;text-anchor:middle;stroke-width:1px">
      <path
         d="m 1293.4378,155.90552 v -12.075 h -1.015 c -0.9625,1.1025 -2.1,2.0475 -3.36,2.7825 v 0.735 c 1.0675,-0.5075 2.065,-1.1025 3.01,-1.82 v 10.3775 z"
         style="font-size:17.5px;line-height:1.25"
         id="path646" />
      <path
         d="m 1305.1628,151.96802 c 0,-2.4675 -1.4875,-4.1125 -3.71,-4.1125 -1.015,0 -1.96,0.385 -2.695,1.0325 l 0.175,-3.9725 h 5.88 v -1.085 h -6.5625 l -0.2625,6.0375 0.735,0.035 c 0.665,-0.8225 1.6625,-1.3125 2.73,-1.3125 1.295,0 2.17,1.3475 2.17,3.3775 0,2.03 -0.875,3.3775 -2.17,3.3775 -1.3475,0 -2.66,-0.4375 -3.7275,-1.26 v 0.735 c 1.0675,0.8225 2.38,1.26 3.7275,1.26 2.2225,0 3.71,-1.645 3.71,-4.1125 z"
         style="font-size:17.5px;line-height:1.25"
         id="path648" />
    </g>
    <g
       aria-label="14"
       id="text8063"
       style="line-height:0%;font-family:Iwona;-inkscape-font-specification:Iwona;text-align:center;letter-spacing:0px;word-spacing:0px;text-anchor:middle;stroke-width:1px">
      <path
         d="m 1318.2411,155.90552 v -12.075 h -1.015 c -0.9625,1.1025 -2.1,2.0475 -3.36,2.7825 v 0.735 c 1.0675,-0.5075 2.065,-1.1025 3.01,-1.82 v 10.3775 z"
         style="font-size:17.5px;line-height:1.25"
         id="path651" />
      <path
         d="m 1329.9661,151.70552 v -0.805 h -1.3125 v -7.07 h -1.365 l -4.76,7.07 v 0.805 h 4.76 v 4.2 h 1.365 v -4.2 z m -2.6775,-0.805 h -3.8675 l 3.8675,-5.7575 z"
         style="font-size:17.5px;line-height:1.25"
         id="path653" />
    </g>
    <g
       aria-label="13"
       id="text8067"
       style="line-height:0%;font-family:Iwona;-inkscape-font-specification:Iwona;text-align:center;letter-spacing:0px;word-spacing:0px;text-anchor:middle;stroke-width:1px">
      <path
         d="m 1343.0442,155.90552 v -12.075 h -1.015 c -0.9625,1.1025 -2.1,2.0475 -3.36,2.7825 v 0.735 c 1.0675,-0.5075 2.065,-1.1025 3.01,-1.82 v 10.3775 z"
         style="font-size:17.5px;line-height:1.25"
         id="path656" />
      <path
         d="m 1354.7692,152.58052 c 0,-1.54 -1.085,-2.87 -2.59,-3.325 1.33,-0.385 2.1525,-1.3825 2.1525,-2.7125 0,-1.7325 -1.4,-2.8875 -3.5,-2.8875 -1.1375,0 -2.24,0.385 -3.1325,1.085 v 0.735 c 0.8925,-0.7 1.995,-1.085 3.1325,-1.085 1.2775,0 2.135,0.8575 2.135,2.1525 0,2.0825 -0.9625,2.625 -3.15,2.625 v 0.6475 c 2.3625,0 3.4125,0.56 3.4125,2.765 0,1.5225 -0.98,2.765 -2.17,2.765 -1.33,0 -2.625,-0.385 -3.7275,-1.085 v 0.735 c 1.1025,0.7 2.3975,1.085 3.7275,1.085 2.03,0 3.71,-1.575 3.71,-3.5 z"
         style="font-size:17.5px;line-height:1.25"
         id="path658" />
    </g>
    <path
       d="m 70.866142,131.10236 h 21.259853 l 3.5433,35.43307 h 21.259845 l 3.54331,-35.43307 h 21.25984 l 3.5433,35.43307 h 21.25985 l 3.54331,-35.43307 h 21.25984 l 3.5433,35.43307 h 21.25985 l 3.54331,-35.43307 h 21.25984 l 3.5433,35.43307 h 21.25985 l 3.54331,-35.43307 h 21.25984 l 3.5433,35.43307 h 21.25985 l 3.54331,-35.43307 h 21.25984 l 3.5433,35.43307 h 21.25985 l 3.54331,-35.43307 h 21.25984 l 3.5433,35.43307 h 21.25985 l 3.54331,-35.43307 h 21.25984 l 3.5433,35.43307 h 21.25985 l 3.54331,-35.43307 h 21.25986 l 3.5433,35.43307 h 21.25984 l 3.54331,-35.43307 h 21.25984 l 3.5433,35.43307 h 21.25985 l 3.54331,-35.43307 H 588.189 l 3.5433,35.43307 h 21.25985 l 3.54331,-35.43307 h 21.25984 l 3.5433,35.43307 h 21.25985 l 3.54331,-35.43307 h 21.25984 l 3.5433,35.43307 h 21.25985 l 3.54331,-35.43307 h 21.25984 l 3.5433,35.43307 h 21.25985 l 3.54331,-35.43307 h 21.25984 l 3.5433,35.43307 h 21.25985 l 3.54331,-35.43307 h 21.25984 l 3.5433,35.43307 h 21.25985 l 3.5433,-35.43307 h 21.25985 l 3.5433,35.43307 h 21.25984 l 3.54331,-35.43307 h 21.25984 l 3.5433,35.43307 h 21.25985 l 3.54331,-35.43307 h 21.25984 l 3.5433,35.43307 h 21.25981 l 3.5433,-35.43307 h 21.2599 l 3.5433,35.43307 h 21.2598 l 3.5433,-35.43307 h 21.2599 l 3.5433,35.43307 h 21.2598 l 3.5433,-35.43307 h 21.2599 l 3.5433,35.43307 h 21.2598 l 3.5433,-35.43307 h 21.2599 l 3.5433,35.43307 h 21.2598 l 3.5433,-35.43307 h 21.2599 l 3.5433,35.43307 h 21.2598 l 3.5433,-35.43307 h 21.2599 l 3.5433,35.43307 h 21.2598 l 3.5433,-35.43307 h 21.2599 l 3.5433,35.43307 h 21.2598"
       style="fill:none;fill-rule:evenodd;stroke:#000000;stroke-width:2;stroke-linecap:butt;stroke-linejoin:miter;stroke-miterlimit:4;stroke-dasharray:none;stroke-opacity:1"
       id="path8122" />
    <path
       id="path8299"
       style="fill:none;fill-rule:evenodd;stroke:#000000;stroke-width:1.5;stroke-linecap:butt;stroke-linejoin:miter;stroke-miterlimit:4;stroke-dasharray:none;stroke-opacity:1"
       d="m 70.866147,113.38584 10.629934,1e-5 1.771645,-35.433078 10.62993,1e-5 1.771647,35.433058 10.629927,1e-5 1.77165,-35.433078 10.62993,1e-5 1.77164,35.433058 10.62993,1e-5 1.77165,-35.433078 10.62993,1e-5 1.77164,35.433058 10.62993,1e-5 1.77165,-35.433078 10.62993,1e-5 1.77165,35.433058 10.62993,1e-5 1.77165,-35.433078 10.62993,1e-5 1.77164,35.433058 10.62993,1e-5 1.77165,-35.433078 10.62993,1e-5 1.77164,35.433058 10.62993,1e-5 1.77165,-35.433078 10.62993,1e-5 1.77164,35.433058 10.62993,1e-5 1.77165,-35.433078 10.62993,1e-5 1.77164,35.433058 10.62992,1e-5 1.77164,-35.433078 10.62993,1e-5 1.77165,35.433058 10.62993,1e-5 1.77165,-35.433078 10.62993,1e-5 1.77164,35.433058 10.62993,1e-5 1.77165,-35.433078 10.62993,1e-5 1.77164,35.433058 10.62993,1e-5 1.77165,-35.433078 10.62993,1e-5 1.77165,35.433058 10.62993,1e-5 1.77165,-35.433078 10.62993,1e-5 1.77164,35.433058 10.62993,1e-5 1.77165,-35.433078 10.62993,1e-5 1.77164,35.433058 10.62993,1e-5 1.77165,-35.433078 10.62993,1e-5 1.77164,35.433058 10.62993,1e-5 1.77165,-35.433078 10.62993,1e-5 1.77164,35.433068 10.62993,10e-6 1.77164,-35.433078 10.62993,1e-5 1.77165,35.433058 10.62993,10e-6 1.77165,-35.433078 10.62993,1e-5 1.77164,35.433058 10.62993,10e-6 1.77165,-35.433078 10.62993,1e-5 1.77164,35.433058 10.62993,10e-6 1.77165,-35.433078 10.62993,1e-5 1.77165,35.433058 10.62993,10e-6 1.77165,-35.433078 10.62993,1e-5 1.77164,35.433058 10.62993,10e-6 1.77165,-35.433078 10.62993,1e-5 1.77164,35.433058 10.62993,10e-6 1.77165,-35.433078 10.62993,1e-5 1.77164,35.433058 10.62993,10e-6 1.77165,-35.433078 10.62993,1e-5 1.77164,35.433058 10.62992,10e-6 1.77164,-35.433078 10.62993,1e-5 1.77165,35.433058 10.62993,10e-6 1.77165,-35.433078 10.62993,1e-5 1.77164,35.433058 10.62993,10e-6 1.77165,-35.433078 10.62993,1e-5 1.77164,35.433058 10.62993,10e-6 1.77165,-35.433078 10.62993,1e-5 1.77165,35.433058 10.62993,10e-6 1.77165,-35.433078 10.62993,1e-5 1.77164,35.433058 10.62993,10e-6 1.77165,-35.433078 10.62993,1e-5 1.77164,35.433058 10.62993,10e-6 1.77165,-35.433078 10.62993,1e-5 1.77164,35.433058 10.62993,10e-6 1.77165,-35.433078 10.62993,1e-5 1.77163,35.433058 10.62992,10e-6 1.77165,-35.433075 10.62993,10e-6 1.77164,35.433055 10.62993,10e-6 1.77165,-35.433075 10.62993,10e-6 1.77164,35.433055 10.62993,10e-6 1.77165,-35.433075 10.62993,10e-6 1.77164,35.433055 10.62993,10e-6 1.77165,-35.433075 10.62993,10e-6 1.77165,35.433055 10.62998,10e-6 1.7716,-35.433075 10.6299,10e-6 1.7717,35.433055 10.6299,10e-6 1.77166,-35.433075 10.6299,10e-6 1.7716,35.433055 10.63,10e-6 1.7716,-35.433075 10.6299,10e-6 1.7717,35.433055 10.6299,10e-6 1.7717,-35.433075 10.6299,10e-6 1.7716,35.433055 10.6299,10e-6 1.7717,-35.433075 10.6299,10e-6 1.7717,35.433055 10.6299,10e-6 1.7716,-35.433075 10.63,10e-6 1.7716,35.433055 10.6299,10e-6 1.7717,-35.433075 10.6299,10e-6 1.7717,35.433055 10.6299,10e-6 1.7716,-35.433075 10.63,10e-6 1.7716,35.433055 10.63,10e-6 1.7716,-35.433075 10.6299,10e-6 1.7717,35.433055 10.6299,10e-6 1.7717,-35.433075 10.6299,10e-6 1.7716,35.433055 10.63,10e-6 1.7716,-35.433075 10.6299,10e-6 1.7717,35.433055 10.6299,10e-6 1.7717,-35.433075 10.6299,10e-6 1.7717,35.433065 10.6299,1e-5 1.7716,-35.433075 10.63,1e-5 1.7716,35.433055 10.6299,1e-5 1.7717,-35.433075 10.6299,1e-5 1.7717,35.433055 10.6299,1e-5 1.7716,-35.433075 10.63,1e-5 1.7716,35.433055 10.6299,1e-5 1.7717,-35.433075 8.8582,-1.3e-5" />
  </g>
</svg>
