<?xml version="1.0" encoding="UTF-8" standalone="no"?>
<!-- Created with Inkscape (http://www.inkscape.org/) -->

<svg
   width="276.80707mm"
   height="52.347797mm"
   viewBox="0 0 980.81243 185.48432"
   id="svg2"
   version="1.1"
   xmlns="http://www.w3.org/2000/svg"
   xmlns:svg="http://www.w3.org/2000/svg"
   xmlns:rdf="http://www.w3.org/1999/02/22-rdf-syntax-ns#"
   xmlns:cc="http://creativecommons.org/ns#"
   xmlns:dc="http://purl.org/dc/elements/1.1/">
  <defs
     id="defs4">
    <marker
       orient="auto"
       refY="0"
       refX="0"
       id="Arrow2Mstart"
       style="overflow:visible">
      <path
         id="path4666"
         style="fill:#000000;fill-opacity:1;fill-rule:evenodd;stroke:#000000;stroke-width:0.625;stroke-linejoin:round;stroke-opacity:1"
         d="M 8.7185878,4.0337352 -2.2072895,0.01601326 8.7185884,-4.0017078 c -1.7454984,2.3720609 -1.7354408,5.6174519 -6e-7,8.035443 z"
         transform="scale(0.6)" />
    </marker>
    <marker
       orient="auto"
       refY="0"
       refX="0"
       id="Arrow1Mend"
       style="overflow:visible">
      <path
         id="path4651"
         d="M 0,0 5,-5 -12.5,0 5,5 Z"
         style="fill:#000000;fill-opacity:1;fill-rule:evenodd;stroke:#000000;stroke-width:1.00000003pt;stroke-opacity:1"
         transform="matrix(-0.4,0,0,-0.4,-4,0)" />
    </marker>
  </defs>
  <metadata
     id="metadata7">
    <rdf:RDF>
      <cc:Work
         rdf:about="">
        <dc:format>image/svg+xml</dc:format>
        <dc:type
           rdf:resource="http://purl.org/dc/dcmitype/StillImage" />
        <dc:title />
      </cc:Work>
    </rdf:RDF>
  </metadata>
  <g
     id="layer1"
     transform="translate(-71.549808,71.04174)">
    <path
       id="rect8306"
       style="opacity:1;fill:#ffbd54;stroke-linecap:round;stroke-linejoin:bevel;stroke-dasharray:2, 4"
       d="m 287.0079,-49.606239 h 3.54331 v 95.669273 h -3.54331 z" />
    <path
       id="rect24751"
       style="opacity:1;fill:#ffbd54;stroke-linecap:round;stroke-linejoin:bevel;stroke-dasharray:2, 4"
       d="m 705.1181,3.5433488 h 3.54331 V 46.063033 h -3.54331 z" />
    <path
       id="rect24753"
       style="opacity:1;fill:#ffbd54;stroke-linecap:round;stroke-linejoin:bevel;stroke-dasharray:2, 4"
       d="m 733.46454,3.5433488 h 3.54331 V 46.063033 h -3.54331 z" />
    <path
       id="rect24755"
       style="opacity:1;fill:#ffbd54;stroke-linecap:round;stroke-linejoin:bevel;stroke-dasharray:2, 4"
       d="m 761.81104,3.5433488 h 3.5433 V 46.063033 h -3.5433 z" />
    <path
       id="rect24757"
       style="opacity:1;fill:#ffbd54;stroke-linecap:round;stroke-linejoin:bevel;stroke-dasharray:2, 4"
       d="m 790.15747,3.5433488 h 3.54331 V 46.063033 h -3.54331 z" />
    <path
       id="rect24759"
       style="opacity:1;fill:#ffbd54;stroke-linecap:round;stroke-linejoin:bevel;stroke-dasharray:2, 4"
       d="m 818.50391,3.5433488 h 3.5433 V 46.063033 h -3.5433 z" />
    <path
       id="rect24761"
       style="opacity:1;fill:#ffbd54;stroke-linecap:round;stroke-linejoin:bevel;stroke-dasharray:2, 4"
       d="m 846.8504,3.5433488 h 3.54331 V 46.063033 h -3.54331 z" />
    <path
       id="rect24763"
       style="opacity:1;fill:#ffbd54;stroke-linecap:round;stroke-linejoin:bevel;stroke-dasharray:2, 4"
       d="m 875.19684,3.5433488 h 3.54331 V 46.063033 h -3.54331 z" />
    <path
       id="rect24765"
       style="opacity:1;fill:#ffbd54;stroke-linecap:round;stroke-linejoin:bevel;stroke-dasharray:2, 4"
       d="m 903.54333,3.5433488 h 3.54331 V 46.063033 h -3.54331 z" />
    <path
       id="rect24767"
       style="opacity:1;fill:#ffbd54;stroke-linecap:round;stroke-linejoin:bevel;stroke-dasharray:2, 4"
       d="m 931.88971,-49.606255 h 3.54331 v 95.669289 h -3.54331 z" />
    <path
       id="rect24727"
       style="opacity:1;fill:#ffbd54;stroke-linecap:round;stroke-linejoin:bevel;stroke-dasharray:2, 4"
       d="m 315.35434,3.5433512 h 3.54331 V 46.063035 h -3.54331 z" />
    <path
       id="rect24729"
       style="opacity:1;fill:#ffbd54;stroke-linecap:round;stroke-linejoin:bevel;stroke-dasharray:2, 4"
       d="m 343.70081,3.5433512 h 3.5433 V 46.063035 h -3.5433 z" />
    <path
       id="rect24731"
       style="opacity:1;fill:#ffbd54;stroke-linecap:round;stroke-linejoin:bevel;stroke-dasharray:2, 4"
       d="m 372.04727,3.5433512 h 3.54331 V 46.063035 h -3.54331 z" />
    <path
       id="rect24733"
       style="opacity:1;fill:#ffbd54;stroke-linecap:round;stroke-linejoin:bevel;stroke-dasharray:2, 4"
       d="m 400.39374,3.5433512 h 3.5433 V 46.063035 h -3.5433 z" />
    <path
       id="rect24735"
       style="opacity:1;fill:#ffbd54;stroke-linecap:round;stroke-linejoin:bevel;stroke-dasharray:2, 4"
       d="m 428.74017,3.5433512 h 3.54331 V 46.063035 h -3.54331 z" />
    <path
       id="rect24737"
       style="opacity:1;fill:#ffbd54;stroke-linecap:round;stroke-linejoin:bevel;stroke-dasharray:2, 4"
       d="m 457.08664,3.5433512 h 3.54331 V 46.063035 h -3.54331 z" />
    <path
       id="rect24739"
       style="opacity:1;fill:#ffbd54;stroke-linecap:round;stroke-linejoin:bevel;stroke-dasharray:2, 4"
       d="m 485.43311,3.5433512 h 3.5433 V 46.063035 h -3.5433 z" />
    <path
       id="rect24741"
       style="opacity:1;fill:#ffbd54;stroke-linecap:round;stroke-linejoin:bevel;stroke-dasharray:2, 4"
       d="m 513.7796,3.5433512 h 3.54331 V 46.063035 h -3.54331 z" />
    <path
       id="rect24743"
       style="opacity:1;fill:#ffbd54;stroke-linecap:round;stroke-linejoin:bevel;stroke-dasharray:2, 4"
       d="m 542.12598,3.5433512 h 3.5433 V 46.063035 h -3.5433 z" />
    <path
       id="rect24745"
       style="opacity:1;fill:#ffbd54;stroke-linecap:round;stroke-linejoin:bevel;stroke-dasharray:2, 4"
       d="m 570.47247,3.5433512 h 3.54331 V 46.063035 h -3.54331 z" />
    <path
       id="rect24747"
       style="opacity:1;fill:#ffbd54;stroke-linecap:round;stroke-linejoin:bevel;stroke-dasharray:2, 4"
       d="m 598.81891,3.5433512 h 3.54331 V 46.063035 h -3.54331 z" />
    <path
       id="rect24749"
       style="opacity:1;fill:#ffbd54;stroke-linecap:round;stroke-linejoin:bevel;stroke-dasharray:2, 4"
       d="m 627.16541,3.5433512 h 3.5433 V 46.063035 h -3.5433 z" />
    <g
       aria-label="serial_clk_o"
       id="text3352"
       style="line-height:0%;font-family:Iwona;-inkscape-font-specification:Iwona;text-align:end;letter-spacing:0px;word-spacing:0px;text-anchor:end">
      <path
         d="m 86.488922,29.009755 c 0,-1.7775 -1.89,-2.7 -3.735,-3.15 -1.08,-0.27 -2.25,-0.72 -2.25,-1.7775 0,-0.9675 0.99,-1.5975 2.07,-1.5975 1.1925,0 2.385,0.36 3.375,1.0125 v -0.945 c -0.99,-0.6525 -2.1825,-1.0125 -3.375,-1.0125 -1.9575,0 -3.7575,1.1925 -3.7575,3.015 0,1.6425 1.8225,2.4075 3.555,2.835 1.1925,0.2925 2.43,0.9225 2.43,2.07 0,1.0575 -1.08,1.71 -2.2275,1.71 -1.395,0 -2.745,-0.3375 -3.9375,-1.0125 v 0.945 c 1.1925,0.675 2.5425,1.0125 3.9375,1.0125 2.025,0 3.915,-1.215 3.915,-3.105 z"
         style="font-size:22.5px;line-height:1.25"
         id="path80" />
      <path
         d="m 97.446398,27.052255 v -0.225 c 0,-3.1725 -1.7325,-5.2875 -4.3425,-5.2875 -2.6325,0 -4.365,2.115 -4.365,5.2875 0,3.1725 1.7325,5.2875 4.365,5.2875 1.125,0 2.2275,-0.36 3.15,-1.0125 v -0.945 c -1.0575,0.675 -1.9125,0.9225 -3.15,0.9225 -1.9125,0 -2.385,-1.8225 -2.385,-4.0275 z m -1.98,-0.945 h -4.7475 c 0,-1.8 0.765,-3.6225 2.385,-3.6225 1.5975,0 2.3625,1.8225 2.3625,3.6225 z"
         style="font-size:22.5px;line-height:1.25"
         id="path82" />
      <path
         d="m 105.97387,23.159755 v -1.395 c -0.2475,-0.09 -0.5175,-0.1575 -0.765,-0.1575 -1.26,0 -2.2725,0.8775 -3.0825,1.845 v -1.6875 h -1.755 v 10.125 h 1.755 v -7.4925 c 0.675,-0.7875 1.53,-1.4625 2.565,-1.4625 0.4275,0 0.8775,0.09 1.2825,0.225 z"
         style="font-size:22.5px;line-height:1.25"
         id="path84" />
      <path
         d="m 112.34135,31.102255 v -0.675 c -0.4275,0.36 -0.9225,0.6525 -1.485,0.6525 -0.8325,0 -0.99,-1.035 -0.99,-2.0025 v -7.3125 h -1.755 v 7.3125 c 0,1.5075 0.585,3.0375 1.9125,3.0375 0.855,0 1.665,-0.4275 2.3175,-1.0125 z m -2.25,-12.8475 c 0,-0.6075 -0.495,-1.1025 -1.1025,-1.1025 -0.6075,0 -1.1025,0.495 -1.1025,1.1025 0,0.6075 0.495,1.1025 1.1025,1.1025 0.6075,0 1.1025,-0.495 1.1025,-1.1025 z"
         style="font-size:22.5px;line-height:1.25"
         id="path86" />
      <path
         d="m 122.51132,31.889755 v -6.3 c 0,-2.115 -1.305,-4.05 -3.2625,-4.05 -1.44,0 -2.79,0.495 -4.005,1.26 v 0.6975 c 1.0125,-0.5625 2.1375,-0.9225 3.3075,-0.9225 1.395,0 2.205,1.485 2.205,3.015 v 0.405 c -0.8775,-0.3825 -1.8225,-0.6075 -2.7675,-0.6075 -2.4075,0 -4.185,1.1025 -4.185,3.375 0,2.16 1.575,3.3525 3.8475,3.3525 1.1475,0 2.205,-0.5175 3.105,-1.2375 v 1.0125 z m -1.755,-1.9575 c -0.675,0.675 -1.5075,1.2375 -2.475,1.2375 -1.5075,0 -2.4975,-0.9225 -2.4975,-2.4075 0,-1.3725 1.125,-2.43 2.4975,-2.43 0.855,0 1.71,0.225 2.475,0.6075 z"
         style="font-size:22.5px;line-height:1.25"
         id="path88" />
      <path
         d="m 130.34131,31.102255 v -0.675 c -0.4275,0.36 -0.9225,0.6525 -1.485,0.6525 -0.8325,0 -0.99,-1.035 -0.99,-2.0025 v -12.9375 h -1.755 v 12.9375 c 0,1.5075 0.585,3.0375 1.9125,3.0375 0.855,0 1.665,-0.4275 2.3175,-1.0125 z"
         style="font-size:22.5px;line-height:1.25"
         id="path90" />
      <path
         d="m 142.04127,34.477255 v -1.125 h -11.25 v 1.125 z"
         style="font-size:22.5px;line-height:1.25"
         id="path92" />
      <path
         d="m 151.13122,24.104755 v -0.945 c -0.72,-1.0125 -1.89,-1.62 -3.15,-1.62 -2.8125,0 -4.7025,2.115 -4.7025,5.2875 0,3.1725 1.89,5.2875 4.7025,5.2875 1.17,0 2.2725,-0.585 2.925,-1.5525 v -0.945 c -0.765,1.1475 -1.5525,1.5525 -2.925,1.5525 -1.62,0 -2.7225,-1.7325 -2.7225,-4.3425 0,-2.61 1.1025,-4.3425 2.7225,-4.3425 1.395,0 2.34,0.495 3.15,1.62 z"
         style="font-size:22.5px;line-height:1.25"
         id="path94" />
      <path
         d="m 157.72369,31.102255 v -0.675 c -0.4275,0.36 -0.9225,0.6525 -1.485,0.6525 -0.8325,0 -0.99,-1.035 -0.99,-2.0025 v -12.9375 h -1.755 v 12.9375 c 0,1.5075 0.585,3.0375 1.9125,3.0375 0.855,0 1.665,-0.4275 2.3175,-1.0125 z"
         style="font-size:22.5px;line-height:1.25"
         id="path96" />
      <path
         d="m 168.68116,31.889755 -5.22,-6.0075 5.04,-4.1175 h -1.395 l -5.3775,4.41 v -10.035 h -1.755 v 15.75 h 1.755 v -5.6025 l 4.86,5.6025 z"
         style="font-size:22.5px;line-height:1.25"
         id="path98" />
      <path
         d="m 180.15614,34.477255 v -1.125 h -11.25 v 1.125 z"
         style="font-size:22.5px;line-height:1.25"
         id="path100" />
      <path
         d="m 190.1011,26.827255 c 0,-3.4425 -1.53,-5.2875 -4.3425,-5.2875 -2.835,0 -4.365,1.845 -4.365,5.2875 0,3.4425 1.53,5.2875 4.365,5.2875 2.8125,0 4.3425,-1.845 4.3425,-5.2875 z m -1.98,0 c 0,2.8125 -0.8325,4.3425 -2.3625,4.3425 -1.5525,0 -2.385,-1.53 -2.385,-4.3425 0,-2.8125 0.8325,-4.3425 2.385,-4.3425 1.53,0 2.3625,1.53 2.3625,4.3425 z"
         style="font-size:22.5px;line-height:1.25"
         id="path102" />
    </g>
    <path
       id="path4558"
       style="fill:none;stroke:#000000;stroke-width:2;stroke-linecap:butt;stroke-linejoin:miter;stroke-miterlimit:4;stroke-dasharray:none;stroke-opacity:1"
       d="m 680.31498,42.519738 h 24.80315 l 3.54331,-35.4330697 h 24.80315 l 3.5433,35.4330697 h 24.80315 l 3.54331,-35.4330697 h 24.80315 l 3.5433,35.4330697 h 24.80316 l 3.54331,-35.4330697 h 24.80315 l 3.5433,35.4330697 h 24.80314 l 3.5433,-35.4330697 h 24.80323 l 3.5433,35.4330697 h 24.8031 l 3.5433,-35.4330697 109.84251,-1e-5" />
    <path
       style="fill:none;fill-rule:evenodd;stroke:#000000;stroke-width:1;stroke-linecap:butt;stroke-linejoin:miter;stroke-miterlimit:4;stroke-dasharray:1, 1;stroke-dashoffset:0;stroke-opacity:1"
       d="m 655.51183,-63.77948 c 0,-4e-6 -4.09146,10.62992 0,17.71653 4.09146,7.08662 3.54331,28.34646 0,35.43308 -3.54331,7.0866098 -3.54331,10.629919775285 0,17.7165298 3.54331,7.0866102 3.54331,28.3464602 0,35.4330802 -3.54331,7.086605 0,17.716525 0,17.716525"
       id="path4667" />
    <path
       id="path4669"
       d="m 680.31498,-63.779491 c 0,-4e-6 -4.09146,10.62992 0,17.71653 4.09146,7.08662 3.54331,28.34646 0,35.43308 -3.54331,7.0866103 -3.54331,10.629920275285 0,17.7165303 3.54331,7.0866097 3.54331,28.3464597 0,35.4330797 -3.54331,7.086605 0,17.716525 0,17.716525"
       style="fill:none;fill-rule:evenodd;stroke:#000000;stroke-width:1;stroke-linecap:butt;stroke-linejoin:miter;stroke-miterlimit:4;stroke-dasharray:1, 1;stroke-dashoffset:0;stroke-opacity:1" />
    <path
       id="path3800"
       style="fill:none;stroke:#000000;stroke-width:2;stroke-linecap:butt;stroke-linejoin:miter;stroke-miterlimit:4;stroke-dasharray:none;stroke-opacity:1"
       d="m 201.96852,7.0866583 h 113.38583 l 3.54331,35.4330697 h 24.80315 l 3.5433,-35.4330697 h 24.80315 l 3.54331,35.4330697 h 24.80315 l 3.5433,-35.4330697 h 24.80316 l 3.54331,35.4330697 h 24.80315 l 3.5433,-35.4330697 h 24.80315 l 3.54331,35.4330697 h 24.80315 l 3.5433,-35.4330697 H 542.126 l 3.54332,35.4330697 h 24.80311 L 574.0157,7.0866583 h 24.80323 l 3.5433,35.4330697 h 24.8031 l 3.5433,-35.4330697 h 24.8032" />
    <g
       aria-label="16 périodes"
       id="text3832"
       style="line-height:0%;font-family:Iwona;-inkscape-font-specification:Iwona;text-align:center;letter-spacing:0px;word-spacing:0px;text-anchor:middle">
      <path
         d="M 568.13607,102.75597 V 88.955966 h -1.16 c -1.1,1.26 -2.4,2.34 -3.84,3.18 v 0.84 c 1.22,-0.58 2.36,-1.26 3.44,-2.08 v 11.860004 z"
         style="font-size:20px;line-height:1.25"
         id="path105" />
      <path
         d="m 581.53606,98.255966 c 0,-2.88 -1.14,-4.7 -3.82,-4.7 -1.16,0 -2.24,0.54 -2.92,1.46 0,-2.62 0.66,-5.42 2.92,-5.42 1.02,0 2.02,0.34 2.82,0.98 v -0.84 c -0.8,-0.64 -1.8,-0.98 -2.82,-0.98 -3.14,0 -4.68,3.56 -4.68,7.1 0,4.960004 1.28,7.100004 4.26,7.100004 2.54,0 4.24,-1.88 4.24,-4.700004 z m -1.76,0 c 0,2.320004 -1,3.860004 -2.48,3.860004 -2.8,0 -2.5,-3.020004 -2.5,-6.260004 0.68,-0.92 1.76,-1.46 2.92,-1.46 1.6,0 2.06,2 2.06,3.86 z"
         style="font-size:20px;line-height:1.25"
         id="path107" />
      <path
         d="m 598.43602,98.255966 c 0,-2.66 -1,-4.7 -3.42,-4.7 -1.02,0 -1.96,0.46 -2.76,1.1 v -0.9 h -1.56 v 13.600004 h 1.56 v -4.94 c 0.78,0.34 1.62,0.54 2.46,0.54 2.5,0 3.72,-2 3.72,-4.700004 z m -1.76,0 c 0,1.880004 -0.58,3.860004 -2.22,3.860004 -0.76,0 -1.52,-0.2 -2.2,-0.54 v -6.080004 c 0.6,-0.6 1.34,-1.1 2.2,-1.1 1.82,0 2.22,1.76 2.22,3.86 z"
         style="font-size:20px;line-height:1.25"
         id="path109" />
      <path
         d="m 608.37599,98.455966 v -0.2 c 0,-2.82 -1.54,-4.7 -3.86,-4.7 -2.34,0 -3.88,1.88 -3.88,4.7 0,2.820004 1.54,4.700004 3.88,4.700004 1,0 1.98,-0.32 2.8,-0.9 v -0.84 c -0.94,0.6 -1.7,0.82 -2.8,0.82 -1.7,0 -2.12,-1.62 -2.12,-3.580004 z m -1.76,-0.84 h -4.22 c 0,-1.6 0.68,-3.22 2.12,-3.22 1.42,0 2.1,1.62 2.1,3.22 z m 0.06,-8.86 h -1.8 c 0,1.34 -0.42,2.66 -1.2,3.74 h 0.84 c 1.06,-1.06 2.16,-2.24 2.16,-3.74 z"
         style="font-size:20px;line-height:1.25"
         id="path111" />
      <path
         d="m 615.95596,94.995966 v -1.24 c -0.22,-0.08 -0.46,-0.14 -0.68,-0.14 -1.12,0 -2.02,0.78 -2.74,1.64 v -1.5 h -1.56 v 9.000004 h 1.56 v -6.660004 c 0.6,-0.7 1.36,-1.3 2.28,-1.3 0.38,0 0.78,0.08 1.14,0.2 z"
         style="font-size:20px;line-height:1.25"
         id="path113" />
      <path
         d="m 621.61594,102.05597 v -0.6 c -0.38,0.32 -0.82,0.58 -1.32,0.58 -0.74,0 -0.88,-0.92 -0.88,-1.78 v -6.500004 h -1.56 v 6.500004 c 0,1.34 0.52,2.7 1.7,2.7 0.76,0 1.48,-0.38 2.06,-0.9 z m -2,-11.420004 c 0,-0.54 -0.44,-0.98 -0.98,-0.98 -0.54,0 -0.98,0.44 -0.98,0.98 0,0.54 0.44,0.98 0.98,0.98 0.54,0 0.98,-0.44 0.98,-0.98 z"
         style="font-size:20px;line-height:1.25"
         id="path115" />
      <path
         d="m 630.85592,98.255966 c 0,-3.06 -1.36,-4.7 -3.86,-4.7 -2.52,0 -3.88,1.64 -3.88,4.7 0,3.060004 1.36,4.700004 3.88,4.700004 2.5,0 3.86,-1.64 3.86,-4.700004 z m -1.76,0 c 0,2.500004 -0.74,3.860004 -2.1,3.860004 -1.38,0 -2.12,-1.36 -2.12,-3.860004 0,-2.5 0.74,-3.86 2.12,-3.86 1.36,0 2.1,1.36 2.1,3.86 z"
         style="font-size:20px;line-height:1.25"
         id="path117" />
      <path
         d="M 640.79592,102.75597 V 88.755966 h -1.56 v 5.34 c -0.78,-0.34 -1.62,-0.54 -2.46,-0.54 -2.5,0 -3.72,2 -3.72,4.7 0,2.660004 1,4.700004 3.42,4.700004 1.02,0 1.96,-0.46 2.76,-1.1 v 0.9 z m -1.56,-1.74 c -0.6,0.6 -1.34,1.1 -2.2,1.1 -1.82,0 -2.22,-1.76 -2.22,-3.860004 0,-1.88 0.58,-3.86 2.22,-3.86 0.76,0 1.52,0.2 2.2,0.54 z"
         style="font-size:20px;line-height:1.25"
         id="path119" />
      <path
         d="m 651.2359,98.455966 v -0.2 c 0,-2.82 -1.54,-4.7 -3.86,-4.7 -2.34,0 -3.88,1.88 -3.88,4.7 0,2.820004 1.54,4.700004 3.88,4.700004 1,0 1.98,-0.32 2.8,-0.9 v -0.84 c -0.94,0.6 -1.7,0.82 -2.8,0.82 -1.7,0 -2.12,-1.62 -2.12,-3.580004 z m -1.76,-0.84 h -4.22 c 0,-1.6 0.68,-3.22 2.12,-3.22 1.42,0 2.1,1.62 2.1,3.22 z"
         style="font-size:20px;line-height:1.25"
         id="path121" />
      <path
         d="m 659.91588,100.19597 c 0,-1.580004 -1.68,-2.400004 -3.32,-2.800004 -0.96,-0.24 -2,-0.64 -2,-1.58 0,-0.86 0.88,-1.42 1.84,-1.42 1.06,0 2.12,0.32 3,0.9 v -0.84 c -0.88,-0.58 -1.94,-0.9 -3,-0.9 -1.74,0 -3.34,1.06 -3.34,2.68 0,1.46 1.62,2.14 3.16,2.52 1.06,0.26 2.16,0.82 2.16,1.840004 0,0.94 -0.96,1.52 -1.98,1.52 -1.24,0 -2.44,-0.3 -3.5,-0.9 v 0.84 c 1.06,0.6 2.26,0.9 3.5,0.9 1.8,0 3.48,-1.08 3.48,-2.76 z"
         style="font-size:20px;line-height:1.25"
         id="path123" />
    </g>
    <path
       style="fill:none;fill-rule:evenodd;stroke:#000000;stroke-width:1.5;stroke-linecap:butt;stroke-linejoin:miter;stroke-miterlimit:4;stroke-dasharray:none;stroke-opacity:1;marker-start:url(#Arrow2Mstart);marker-end:url(#Arrow1Mend)"
       d="M 290.55116,77.952823 H 931.88982"
       id="path3836" />
    <path
       id="path10589"
       style="fill:none;stroke:#000000;stroke-width:2;stroke-linecap:butt;stroke-linejoin:miter;stroke-miterlimit:4;stroke-dasharray:none;stroke-opacity:1"
       d="m 655.51183,-10.629877 -364.96065,9e-6 -3.54329,-35.43308 h -85.03938" />
    <g
       aria-label="state_reg"
       id="text10593"
       style="font-size:12px;line-height:0%;font-family:Iwona;-inkscape-font-specification:Iwona;text-align:end;letter-spacing:0px;word-spacing:0px;text-anchor:end">
      <path
         d="m 111.32882,-24.139804 c 0,-1.7775 -1.89,-2.7 -3.735,-3.15 -1.08,-0.27 -2.25,-0.72 -2.25,-1.7775 0,-0.9675 0.99,-1.5975 2.07,-1.5975 1.1925,0 2.385,0.36 3.375,1.0125 v -0.945 c -0.99,-0.6525 -2.1825,-1.0125 -3.375,-1.0125 -1.9575,0 -3.7575,1.1925 -3.7575,3.015 0,1.6425 1.8225,2.4075 3.555,2.835 1.1925,0.2925 2.43,0.9225 2.43,2.07 0,1.0575 -1.08,1.71 -2.2275,1.71 -1.395,0 -2.745,-0.3375 -3.9375,-1.0125 v 0.945 c 1.1925,0.675 2.5425,1.0125 3.9375,1.0125 2.025,0 3.915,-1.215 3.915,-3.105 z"
         style="font-size:22.5px;line-height:1.25"
         id="path126" />
      <path
         d="m 118.9113,-22.047304 v -0.675 c -0.36,0.36 -0.7875,0.6525 -1.305,0.6525 -0.81,0 -0.855,-1.0575 -0.855,-2.0025 v -6.3675 h 2.16 v -0.945 h -2.16 v -3.375 h -1.0575 c 0,1.8 -1.035,3.4875 -2.6775,3.4875 v 0.8325 h 1.98 v 6.3675 c 0,1.485 0.4725,3.0375 1.755,3.0375 0.8325,0 1.5525,-0.45 2.16,-1.0125 z"
         style="font-size:22.5px;line-height:1.25"
         id="path128" />
      <path
         d="m 129.30627,-21.259804 v -6.3 c 0,-2.115 -1.305,-4.05 -3.2625,-4.05 -1.44,0 -2.79,0.495 -4.005,1.26 v 0.6975 c 1.0125,-0.5625 2.1375,-0.9225 3.3075,-0.9225 1.395,0 2.205,1.485 2.205,3.015 v 0.405 c -0.8775,-0.3825 -1.8225,-0.6075 -2.7675,-0.6075 -2.4075,0 -4.185,1.1025 -4.185,3.375 0,2.16 1.575,3.3525 3.8475,3.3525 1.1475,0 2.205,-0.5175 3.105,-1.2375 v 1.0125 z m -1.755,-1.9575 c -0.675,0.675 -1.5075,1.2375 -2.475,1.2375 -1.5075,0 -2.4975,-0.9225 -2.4975,-2.4075 0,-1.3725 1.125,-2.43 2.4975,-2.43 0.855,0 1.71,0.225 2.475,0.6075 z"
         style="font-size:22.5px;line-height:1.25"
         id="path130" />
      <path
         d="m 137.67625,-22.047304 v -0.675 c -0.36,0.36 -0.7875,0.6525 -1.305,0.6525 -0.81,0 -0.855,-1.0575 -0.855,-2.0025 v -6.3675 h 2.16 v -0.945 h -2.16 v -3.375 h -1.0575 c 0,1.8 -1.035,3.4875 -2.6775,3.4875 v 0.8325 h 1.98 v 6.3675 c 0,1.485 0.4725,3.0375 1.755,3.0375 0.8325,0 1.5525,-0.45 2.16,-1.0125 z"
         style="font-size:22.5px;line-height:1.25"
         id="path132" />
      <path
         d="m 148.29621,-26.097304 v -0.225 c 0,-3.1725 -1.7325,-5.2875 -4.3425,-5.2875 -2.6325,0 -4.365,2.115 -4.365,5.2875 0,3.1725 1.7325,5.2875 4.365,5.2875 1.125,0 2.2275,-0.36 3.15,-1.0125 v -0.945 c -1.0575,0.675 -1.9125,0.9225 -3.15,0.9225 -1.9125,0 -2.385,-1.8225 -2.385,-4.0275 z m -1.98,-0.945 h -4.7475 c 0,-1.8 0.765,-3.6225 2.385,-3.6225 1.5975,0 2.3625,1.8225 2.3625,3.6225 z"
         style="font-size:22.5px;line-height:1.25"
         id="path134" />
      <path
         d="m 160.67119,-18.672304 v -1.125 h -11.25 v 1.125 z"
         style="font-size:22.5px;line-height:1.25"
         id="path136" />
      <path
         d="m 168.07365,-29.989804 v -1.395 c -0.2475,-0.09 -0.5175,-0.1575 -0.765,-0.1575 -1.26,0 -2.2725,0.8775 -3.0825,1.845 v -1.6875 h -1.755 v 10.125 h 1.755 v -7.4925 c 0.675,-0.7875 1.53,-1.4625 2.565,-1.4625 0.4275,0 0.8775,0.09 1.2825,0.225 z"
         style="font-size:22.5px;line-height:1.25"
         id="path138" />
      <path
         d="m 178.46862,-26.097304 v -0.225 c 0,-3.1725 -1.7325,-5.2875 -4.3425,-5.2875 -2.6325,0 -4.365,2.115 -4.365,5.2875 0,3.1725 1.7325,5.2875 4.365,5.2875 1.125,0 2.2275,-0.36 3.15,-1.0125 v -0.945 c -1.0575,0.675 -1.9125,0.9225 -3.15,0.9225 -1.9125,0 -2.385,-1.8225 -2.385,-4.0275 z m -1.98,-0.945 h -4.7475 c 0,-1.8 0.765,-3.6225 2.385,-3.6225 1.5975,0 2.3625,1.8225 2.3625,3.6225 z"
         style="font-size:22.5px;line-height:1.25"
         id="path140" />
      <path
         d="m 189.53859,-19.909804 v -11.475 h -1.755 v 0.3825 c -0.8775,-0.3825 -1.8225,-0.6075 -2.7675,-0.6075 -2.8125,0 -4.185,2.25 -4.185,5.2875 0,2.9925 1.125,5.2875 3.8475,5.2875 1.1475,0 2.205,-0.5175 3.105,-1.2375 v 2.3625 c 0,1.5525 -0.855,3.015 -2.25,3.015 -1.1475,0 -2.295,-0.225 -3.375,-0.6075 v 0.6975 c 1.26,0.585 2.655,0.945 4.05,0.945 1.98,0 3.33,-1.935 3.33,-4.05 z m -1.755,-3.3075 c -0.675,0.675 -1.5075,1.2375 -2.475,1.2375 -2.0475,0 -2.4975,-1.98 -2.4975,-4.3425 0,-2.115 0.6525,-4.3425 2.4975,-4.3425 0.855,0 1.71,0.225 2.475,0.6075 z"
         style="font-size:22.5px;line-height:1.25"
         id="path142" />
    </g>
    <path
       d="M 655.51183,-46.062948 H 290.55118 l -3.54329,35.43308 h -85.03938"
       style="fill:none;stroke:#000000;stroke-width:2;stroke-linecap:butt;stroke-linejoin:miter;stroke-miterlimit:4;stroke-dasharray:none;stroke-opacity:1"
       id="path10595" />
    <g
       aria-label="INIT_STATE"
       id="text10599"
       style="font-size:15px;line-height:0%;font-family:Iwona;-inkscape-font-specification:Iwona;text-align:center;letter-spacing:0px;word-spacing:0px;text-anchor:middle">
      <path
         d="m 206.5458,-21.259804 v -10.5 h -1.23 v 10.5 z"
         style="line-height:1.25"
         id="path145" />
      <path
         d="m 218.3658,-21.259804 v -10.5 h -0.69 v 8.82 l -7.23,-8.82 h -0.9 v 10.5 h 0.69 v -8.82 l 7.23,8.82 z"
         style="line-height:1.25"
         id="path147" />
      <path
         d="m 222.59577,-21.259804 v -10.5 h -1.23 v 10.5 z"
         style="line-height:1.25"
         id="path149" />
      <path
         d="m 232.64576,-31.069804 v -0.69 h -8.25 v 0.69 h 3.51 v 9.81 h 1.23 v -9.81 z"
         style="line-height:1.25"
         id="path151" />
      <path
         d="m 240.44574,-19.534804 v -0.75 h -7.5 v 0.75 z"
         style="line-height:1.25"
         id="path153" />
      <path
         d="m 249.25071,-24.304804 c 0,-1.845 -1.875,-2.94 -3.81,-3.345 -1.29,-0.27 -2.745,-0.6 -2.745,-1.8 0,-1.185 1.275,-1.86 2.595,-1.86 1.215,0 2.4,0.36 3.36,1.11 v -0.6 c -0.96,-0.75 -2.145,-1.2 -3.36,-1.2 -1.95,0 -3.78,1.095 -3.78,2.865 0,1.695 1.83,2.55 3.615,2.925 1.425,0.3 2.94,0.885 2.94,2.22 0,1.365 -1.335,2.28 -2.775,2.28 -1.395,0 -2.775,-0.36 -3.945,-1.11 v 0.6 c 1.185,0.75 2.535,1.2 3.945,1.2 2.07,0 3.96,-1.335 3.96,-3.285 z"
         style="line-height:1.25"
         id="path155" />
      <path
         d="m 258.43067,-31.069804 v -0.69 h -8.25 v 0.69 h 3.51 v 9.81 h 1.23 v -9.81 z"
         style="line-height:1.25"
         id="path157" />
      <path
         d="m 267.07064,-21.259804 -3.81,-10.5 h -1.305 l -3.885,10.5 h 0.735 l 1.365,-3.675 h 4.26 l 1.335,3.675 z m -2.895,-4.365 h -3.75 l 1.89,-5.13 z"
         style="line-height:1.25"
         id="path159" />
      <path
         d="m 274.9606,-31.069804 v -0.69 h -8.25 v 0.69 h 3.51 v 9.81 h 1.23 v -9.81 z"
         style="line-height:1.25"
         id="path161" />
      <path
         d="m 284.26058,-21.259804 v -0.69 h -6.27 v -4.215 h 4.77 v -0.69 h -4.77 v -4.215 h 5.91 v -0.69 h -7.14 v 10.5 z"
         style="line-height:1.25"
         id="path163" />
    </g>
    <g
       aria-label="BUSY_STATE"
       id="text10603"
       style="font-size:15px;line-height:0%;font-family:Iwona;-inkscape-font-specification:Iwona;text-align:center;letter-spacing:0px;word-spacing:0px;text-anchor:middle">
      <path
         d="m 459.83812,-24.109804 c 0,-1.65 -1.08,-2.52 -2.655,-2.85 1.155,-0.345 1.92,-1.095 1.92,-2.37 0,-1.83 -1.575,-2.58 -3.6,-2.58 -0.78,0 -1.56,0.045 -2.34,0.15 h -1.2 v 10.5 h 1.2 l 2.34,0.15 c 2.43,0 4.335,-0.825 4.335,-3 z m -1.965,-5.22 c 0,1.515 -1.695,2.295 -3.39,2.295 h -1.29 v -4.035 c 0.765,-0.105 1.545,-0.15 2.31,-0.15 1.23,0 2.37,0.75 2.37,1.89 z m 0.495,5.22 c 0,1.38 -1.365,2.31 -2.865,2.31 -0.765,0 -1.545,-0.045 -2.31,-0.15 v -4.56 h 1.935 c 1.65,0 3.24,0.885 3.24,2.4 z"
         style="line-height:1.25"
         id="path166" />
      <path
         d="m 469.96311,-24.199804 v -7.56 h -0.69 v 7.32 c 0,1.56 -1.38,2.73 -2.97,2.73 -1.605,0 -2.985,-1.17 -2.985,-2.73 v -7.32 h -1.23 v 7.56 c 0,1.905 1.89,3.18 3.945,3.18 2.04,0 3.93,-1.275 3.93,-3.18 z"
         style="line-height:1.25"
         id="path168" />
      <path
         d="m 480.11811,-24.304804 c 0,-1.845 -1.875,-2.94 -3.81,-3.345 -1.29,-0.27 -2.745,-0.6 -2.745,-1.8 0,-1.185 1.275,-1.86 2.595,-1.86 1.215,0 2.4,0.36 3.36,1.11 v -0.6 c -0.96,-0.75 -2.145,-1.2 -3.36,-1.2 -1.95,0 -3.78,1.095 -3.78,2.865 0,1.695 1.83,2.55 3.615,2.925 1.425,0.3 2.94,0.885 2.94,2.22 0,1.365 -1.335,2.28 -2.775,2.28 -1.395,0 -2.775,-0.36 -3.945,-1.11 v 0.6 c 1.185,0.75 2.535,1.2 3.945,1.2 2.07,0 3.96,-1.335 3.96,-3.285 z"
         style="line-height:1.25"
         id="path170" />
      <path
         d="m 489.29808,-31.759804 h -0.81 l -3.195,5.31 -2.85,-5.31 h -1.395 l 3.51,6.3 v 4.2 h 1.23 v -4.665 z"
         style="line-height:1.25"
         id="path172" />
      <path
         d="m 496.94807,-19.534804 v -0.75 h -7.5 v 0.75 z"
         style="line-height:1.25"
         id="path174" />
      <path
         d="m 505.75305,-24.304804 c 0,-1.845 -1.875,-2.94 -3.81,-3.345 -1.29,-0.27 -2.745,-0.6 -2.745,-1.8 0,-1.185 1.275,-1.86 2.595,-1.86 1.215,0 2.4,0.36 3.36,1.11 v -0.6 c -0.96,-0.75 -2.145,-1.2 -3.36,-1.2 -1.95,0 -3.78,1.095 -3.78,2.865 0,1.695 1.83,2.55 3.615,2.925 1.425,0.3 2.94,0.885 2.94,2.22 0,1.365 -1.335,2.28 -2.775,2.28 -1.395,0 -2.775,-0.36 -3.945,-1.11 v 0.6 c 1.185,0.75 2.535,1.2 3.945,1.2 2.07,0 3.96,-1.335 3.96,-3.285 z"
         style="line-height:1.25"
         id="path176" />
      <path
         d="m 514.93301,-31.069804 v -0.69 h -8.25 v 0.69 h 3.51 v 9.81 h 1.23 v -9.81 z"
         style="line-height:1.25"
         id="path178" />
      <path
         d="m 523.57297,-21.259804 -3.81,-10.5 h -1.305 l -3.885,10.5 h 0.735 l 1.365,-3.675 h 4.26 l 1.335,3.675 z m -2.895,-4.365 h -3.75 l 1.89,-5.13 z"
         style="line-height:1.25"
         id="path180" />
      <path
         d="m 531.46295,-31.069804 v -0.69 h -8.25 v 0.69 h 3.51 v 9.81 h 1.23 v -9.81 z"
         style="line-height:1.25"
         id="path182" />
      <path
         d="m 540.76292,-21.259804 v -0.69 h -6.27 v -4.215 h 4.77 v -0.69 h -4.77 v -4.215 h 5.91 v -0.69 h -7.14 v 10.5 z"
         style="line-height:1.25"
         id="path184" />
    </g>
    <g
       aria-label="VALID_STATE"
       id="text11363"
       style="font-size:15px;line-height:0%;font-family:Iwona;-inkscape-font-specification:Iwona;text-align:center;letter-spacing:0px;word-spacing:0px;text-anchor:middle">
      <path
         d="m 954.5436,-31.759798 h -0.735 l -3.48,8.91 -3.465,-8.91 h -1.32 l 4.095,10.5 h 0.81 z"
         style="line-height:1.25"
         id="path187" />
      <path
         d="m 963.39357,-21.259798 -3.81,-10.5 h -1.305 l -3.885,10.5 h 0.735 l 1.365,-3.675 h 4.26 l 1.335,3.675 z m -2.895,-4.365 h -3.75 l 1.89,-5.13 z"
         style="line-height:1.25"
         id="path189" />
      <path
         d="m 971.04356,-21.259798 v -0.69 h -4.77 v -9.81 h -1.23 v 10.5 z"
         style="line-height:1.25"
         id="path191" />
      <path
         d="m 974.07353,-21.259798 v -10.5 h -1.23 v 10.5 z"
         style="line-height:1.25"
         id="path193" />
      <path
         d="m 985.89353,-26.509798 c 0,-3.21 -1.755,-5.4 -4.845,-5.4 -0.93,0 -1.86,0.045 -2.775,0.15 h -1.2 v 10.5 h 1.2 c 0.915,0.105 1.845,0.15 2.775,0.15 3.09,0 4.845,-2.19 4.845,-5.4 z m -1.47,0 c 0,2.385 -1.215,4.71 -3.375,4.71 -0.915,0 -1.83,-0.045 -2.745,-0.15 v -9.12 c 0.915,-0.105 1.83,-0.15 2.745,-0.15 2.16,0 3.375,2.325 3.375,4.71 z"
         style="line-height:1.25"
         id="path195" />
      <path
         d="m 994.29351,-19.534798 v -0.75 h -7.5 v 0.75 z"
         style="line-height:1.25"
         id="path197" />
      <path
         d="m 1003.0985,-24.304798 c 0,-1.845 -1.875,-2.94 -3.81001,-3.345 -1.29,-0.27 -2.745,-0.6 -2.745,-1.8 0,-1.185 1.275,-1.86 2.595,-1.86 1.21501,0 2.40001,0.36 3.36001,1.11 v -0.6 c -0.96,-0.75 -2.145,-1.2 -3.36001,-1.2 -1.95,0 -3.78,1.095 -3.78,2.865 0,1.695 1.83,2.55 3.615,2.925 1.42501,0.3 2.94001,0.885 2.94001,2.22 0,1.365 -1.335,2.28 -2.77501,2.28 -1.395,0 -2.775,-0.36 -3.945,-1.11 v 0.6 c 1.185,0.75 2.535,1.2 3.945,1.2 2.07001,0 3.96001,-1.335 3.96001,-3.285 z"
         style="line-height:1.25"
         id="path199" />
      <path
         d="m 1012.2785,-31.069798 v -0.69 h -8.25 v 0.69 h 3.51 v 9.81 h 1.23 v -9.81 z"
         style="line-height:1.25"
         id="path201" />
      <path
         d="m 1020.9184,-21.259798 -3.81,-10.5 h -1.305 l -3.885,10.5 h 0.735 l 1.365,-3.675 h 4.26 l 1.335,3.675 z m -2.895,-4.365 h -3.75 l 1.89,-5.13 z"
         style="line-height:1.25"
         id="path203" />
      <path
         d="m 1028.8084,-31.069798 v -0.69 h -8.25 v 0.69 h 3.51 v 9.81 h 1.23 v -9.81 z"
         style="line-height:1.25"
         id="path205" />
      <path
         d="m 1038.1084,-21.259798 v -0.69 h -6.27 v -4.215 h 4.77 v -0.69 h -4.77 v -4.215 h 5.91 v -0.69 h -7.14 v 10.5 z"
         style="line-height:1.25"
         id="path207" />
    </g>
    <g
       aria-label="BUSY_STATE"
       id="text11367"
       style="font-size:15px;line-height:0%;font-family:Iwona;-inkscape-font-specification:Iwona;text-align:center;letter-spacing:0px;word-spacing:0px;text-anchor:middle">
      <path
         d="m 771.64912,-24.109798 c 0,-1.65 -1.08,-2.52 -2.655,-2.85 1.155,-0.345 1.92,-1.095 1.92,-2.37 0,-1.83 -1.575,-2.58 -3.6,-2.58 -0.78,0 -1.56,0.045 -2.34,0.15 h -1.2 v 10.5 h 1.2 l 2.34,0.15 c 2.43,0 4.335,-0.825 4.335,-3 z m -1.965,-5.22 c 0,1.515 -1.695,2.295 -3.39,2.295 h -1.29 v -4.035 c 0.765,-0.105 1.545,-0.15 2.31,-0.15 1.23,0 2.37,0.75 2.37,1.89 z m 0.495,5.22 c 0,1.38 -1.365,2.31 -2.865,2.31 -0.765,0 -1.545,-0.045 -2.31,-0.15 v -4.56 h 1.935 c 1.65,0 3.24,0.885 3.24,2.4 z"
         style="line-height:1.25"
         id="path210" />
      <path
         d="m 781.77412,-24.199798 v -7.56 h -0.69 v 7.32 c 0,1.56 -1.38,2.73 -2.97,2.73 -1.605,0 -2.985,-1.17 -2.985,-2.73 v -7.32 h -1.23 v 7.56 c 0,1.905 1.89,3.18 3.945,3.18 2.04,0 3.93,-1.275 3.93,-3.18 z"
         style="line-height:1.25"
         id="path212" />
      <path
         d="m 791.92911,-24.304798 c 0,-1.845 -1.875,-2.94 -3.81,-3.345 -1.29,-0.27 -2.745,-0.6 -2.745,-1.8 0,-1.185 1.275,-1.86 2.595,-1.86 1.215,0 2.4,0.36 3.36,1.11 v -0.6 c -0.96,-0.75 -2.145,-1.2 -3.36,-1.2 -1.95,0 -3.78,1.095 -3.78,2.865 0,1.695 1.83,2.55 3.615,2.925 1.425,0.3 2.94,0.885 2.94,2.22 0,1.365 -1.335,2.28 -2.775,2.28 -1.395,0 -2.775,-0.36 -3.945,-1.11 v 0.6 c 1.185,0.75 2.535,1.2 3.945,1.2 2.07,0 3.96,-1.335 3.96,-3.285 z"
         style="line-height:1.25"
         id="path214" />
      <path
         d="m 801.10908,-31.759798 h -0.81 l -3.195,5.31 -2.85,-5.31 h -1.395 l 3.51,6.3 v 4.2 h 1.23 v -4.665 z"
         style="line-height:1.25"
         id="path216" />
      <path
         d="m 808.75908,-19.534798 v -0.75 h -7.5 v 0.75 z"
         style="line-height:1.25"
         id="path218" />
      <path
         d="m 817.56405,-24.304798 c 0,-1.845 -1.875,-2.94 -3.81,-3.345 -1.29,-0.27 -2.745,-0.6 -2.745,-1.8 0,-1.185 1.275,-1.86 2.595,-1.86 1.215,0 2.4,0.36 3.36,1.11 v -0.6 c -0.96,-0.75 -2.145,-1.2 -3.36,-1.2 -1.95,0 -3.78,1.095 -3.78,2.865 0,1.695 1.83,2.55 3.615,2.925 1.425,0.3 2.94,0.885 2.94,2.22 0,1.365 -1.335,2.28 -2.775,2.28 -1.395,0 -2.775,-0.36 -3.945,-1.11 v 0.6 c 1.185,0.75 2.535,1.2 3.945,1.2 2.07,0 3.96,-1.335 3.96,-3.285 z"
         style="line-height:1.25"
         id="path220" />
      <path
         d="m 826.74402,-31.069798 v -0.69 h -8.25 v 0.69 h 3.51 v 9.81 h 1.23 v -9.81 z"
         style="line-height:1.25"
         id="path222" />
      <path
         d="m 835.38398,-21.259798 -3.81,-10.5 h -1.305 l -3.885,10.5 h 0.735 l 1.365,-3.675 h 4.26 l 1.335,3.675 z m -2.895,-4.365 h -3.75 l 1.89,-5.13 z"
         style="line-height:1.25"
         id="path224" />
      <path
         d="m 843.27395,-31.069798 v -0.69 h -8.25 v 0.69 h 3.51 v 9.81 h 1.23 v -9.81 z"
         style="line-height:1.25"
         id="path226" />
      <path
         d="m 852.57393,-21.259798 v -0.69 h -6.27 v -4.215 h 4.77 v -0.69 h -4.77 v -4.215 h 5.91 v -0.69 h -7.14 v 10.5 z"
         style="line-height:1.25"
         id="path228" />
    </g>
    <path
       d="m 1045.2756,-10.629877 -109.84253,9e-6 -3.54329,-35.43308 H 680.31497"
       style="fill:none;stroke:#000000;stroke-width:2;stroke-linecap:butt;stroke-linejoin:miter;stroke-miterlimit:4;stroke-dasharray:none;stroke-opacity:1"
       id="path24723" />
    <path
       id="path24725"
       style="fill:none;stroke:#000000;stroke-width:2;stroke-linecap:butt;stroke-linejoin:miter;stroke-miterlimit:4;stroke-dasharray:none;stroke-opacity:1"
       d="M 1045.2756,-46.062948 H 935.43307 l -3.54329,35.43308 H 680.31497" />
  </g>
</svg>
