<?xml version="1.0" encoding="UTF-8" standalone="no"?>
<!-- Created with Inkscape (http://www.inkscape.org/) -->

<svg
   width="249.27182mm"
   height="74.564445mm"
   viewBox="0 0 883.24661 264.20474"
   id="svg2"
   version="1.1"
   xmlns="http://www.w3.org/2000/svg"
   xmlns:svg="http://www.w3.org/2000/svg"
   xmlns:rdf="http://www.w3.org/1999/02/22-rdf-syntax-ns#"
   xmlns:cc="http://creativecommons.org/ns#"
   xmlns:dc="http://purl.org/dc/elements/1.1/">
  <defs
     id="defs4">
    <marker
       orient="auto"
       refY="0"
       refX="0"
       id="Arrow1Mend"
       style="overflow:visible">
      <path
         id="path4651"
         d="M 0,0 5,-5 -12.5,0 5,5 Z"
         style="fill:#000000;fill-opacity:1;fill-rule:evenodd;stroke:#000000;stroke-width:1.00000003pt;stroke-opacity:1"
         transform="matrix(-0.4,0,0,-0.4,-4,0)" />
    </marker>
    <marker
       orient="auto"
       refY="0"
       refX="0"
       id="Arrow2Mstart"
       style="overflow:visible">
      <path
         id="path4666"
         style="fill:#000000;fill-opacity:1;fill-rule:evenodd;stroke:#000000;stroke-width:0.625;stroke-linejoin:round;stroke-opacity:1"
         d="M 8.7185878,4.0337352 -2.2072895,0.01601326 8.7185884,-4.0017078 c -1.7454984,2.3720609 -1.7354408,5.6174519 -6e-7,8.035443 z"
         transform="scale(0.6)" />
    </marker>
  </defs>
  <metadata
     id="metadata7">
    <rdf:RDF>
      <cc:Work
         rdf:about="">
        <dc:format>image/svg+xml</dc:format>
        <dc:type
           rdf:resource="http://purl.org/dc/dcmitype/StillImage" />
        <dc:title />
      </cc:Work>
    </rdf:RDF>
  </metadata>
  <g
     id="layer1"
     transform="translate(-45.099866,178.16529)">
    <path
       id="rect20722"
       style="opacity:1;fill:#ffbd54;stroke-linecap:round;stroke-linejoin:bevel;stroke-dasharray:2, 4"
       d="m 758.2677,-120.47237 h 3.54331 v 42.519684 h -3.54331 z" />
    <path
       id="rect20720"
       style="opacity:1;fill:#ffbd54;stroke-linecap:round;stroke-linejoin:bevel;stroke-dasharray:2, 4"
       d="m 634.25201,-120.47237 h 3.54331 v 42.519684 h -3.54331 z" />
    <path
       id="rect8306"
       style="opacity:1;fill:#ffbd54;stroke-linecap:round;stroke-linejoin:bevel;stroke-dasharray:2, 4"
       d="m 297.63782,-120.47237 h 3.5433 v 42.519684 h -3.5433 z" />
    <g
       aria-label="chip_select_n_o"
       id="text3360"
       style="line-height:0%;font-family:Iwona;-inkscape-font-specification:Iwona;text-align:end;letter-spacing:0px;word-spacing:0px;text-anchor:end">
      <path
         d="m 60.03898,-46.761303 v -0.945 c -0.72,-1.0125 -1.89,-1.62 -3.15,-1.62 -2.8125,0 -4.7025,2.115 -4.7025,5.2875 0,3.1725 1.89,5.2875 4.7025,5.2875 1.17,0 2.2725,-0.585 2.925,-1.5525 v -0.945 c -0.765,1.1475 -1.5525,1.5525 -2.925,1.5525 -1.62,0 -2.7225,-1.7325 -2.7225,-4.3425 0,-2.61 1.1025,-4.3425 2.7225,-4.3425 1.395,0 2.34,0.495 3.15,1.62 z"
         style="font-size:22.5px;line-height:1.25"
         id="path50" />
      <path
         d="m 70.546457,-38.976303 v -7.3125 c 0,-1.6425 -1.26,-3.0375 -2.88,-3.0375 -1.35,0 -2.5425,0.765 -3.51,1.71 v -7.11 h -1.755 v 15.75 h 1.755 v -7.9425 c 0.765,-0.765 1.71,-1.3725 2.7675,-1.3725 1.0575,0 1.8675,0.9225 1.8675,2.0025 v 7.3125 z"
         style="font-size:22.5px;line-height:1.25"
         id="path52" />
      <path
         d="m 78.151419,-39.763803 v -0.675 c -0.4275,0.36 -0.9225,0.6525 -1.485,0.6525 -0.8325,0 -0.99,-1.035 -0.99,-2.0025 v -7.3125 h -1.755 v 7.3125 c 0,1.5075 0.585,3.0375 1.9125,3.0375 0.855,0 1.665,-0.4275 2.3175,-1.0125 z m -2.25,-12.8475 c 0,-0.6075 -0.495,-1.1025 -1.1025,-1.1025 -0.6075,0 -1.1025,0.495 -1.1025,1.1025 0,0.6075 0.495,1.1025 1.1025,1.1025 0.6075,0 1.1025,-0.495 1.1025,-1.1025 z"
         style="font-size:22.5px;line-height:1.25"
         id="path54" />
      <path
         d="m 88.996397,-44.038803 c 0,-2.9925 -1.125,-5.2875 -3.8475,-5.2875 -1.1475,0 -2.205,0.5175 -3.105,1.2375 v -1.0125 h -1.755 v 15.3 h 1.755 v -5.5575 c 0.8775,0.3825 1.8225,0.6075 2.7675,0.6075 2.8125,0 4.185,-2.25 4.185,-5.2875 z m -1.98,0 c 0,2.115 -0.6525,4.3425 -2.4975,4.3425 -0.855,0 -1.71,-0.225 -2.475,-0.6075 v -6.84 c 0.675,-0.675 1.5075,-1.2375 2.475,-1.2375 2.0475,0 2.4975,1.98 2.4975,4.3425 z"
         style="font-size:22.5px;line-height:1.25"
         id="path56" />
      <path
         d="m 101.48386,-36.388803 v -1.125 H 90.233858 v 1.125 z"
         style="font-size:22.5px;line-height:1.25"
         id="path58" />
      <path
         d="m 110.12382,-41.856303 c 0,-1.7775 -1.89,-2.7 -3.735,-3.15 -1.08,-0.27 -2.25,-0.72 -2.25,-1.7775 0,-0.9675 0.99,-1.5975 2.07,-1.5975 1.1925,0 2.385,0.36 3.375,1.0125 v -0.945 c -0.99,-0.6525 -2.1825,-1.0125 -3.375,-1.0125 -1.9575,0 -3.7575,1.1925 -3.7575,3.015 0,1.6425 1.8225,2.4075 3.555,2.835 1.1925,0.2925 2.43,0.9225 2.43,2.07 0,1.0575 -1.08,1.71 -2.2275,1.71 -1.395,0 -2.745,-0.3375 -3.9375,-1.0125 v 0.945 c 1.1925,0.675 2.5425,1.0125 3.9375,1.0125 2.025,0 3.915,-1.215 3.915,-3.105 z"
         style="font-size:22.5px;line-height:1.25"
         id="path60" />
      <path
         d="m 121.08129,-43.813803 v -0.225 c 0,-3.1725 -1.7325,-5.2875 -4.3425,-5.2875 -2.6325,0 -4.365,2.115 -4.365,5.2875 0,3.1725 1.7325,5.2875 4.365,5.2875 1.125,0 2.2275,-0.36 3.15,-1.0125 v -0.945 c -1.0575,0.675 -1.9125,0.9225 -3.15,0.9225 -1.9125,0 -2.385,-1.8225 -2.385,-4.0275 z m -1.98,-0.945 h -4.7475 c 0,-1.8 0.765,-3.6225 2.385,-3.6225 1.5975,0 2.3625,1.8225 2.3625,3.6225 z"
         style="font-size:22.5px;line-height:1.25"
         id="path62" />
      <path
         d="m 128.23626,-39.763803 v -0.675 c -0.4275,0.36 -0.9225,0.6525 -1.485,0.6525 -0.8325,0 -0.99,-1.035 -0.99,-2.0025 v -12.9375 h -1.755 v 12.9375 c 0,1.5075 0.585,3.0375 1.9125,3.0375 0.855,0 1.665,-0.4275 2.3175,-1.0125 z"
         style="font-size:22.5px;line-height:1.25"
         id="path64" />
      <path
         d="m 138.63122,-43.813803 v -0.225 c 0,-3.1725 -1.7325,-5.2875 -4.3425,-5.2875 -2.6325,0 -4.365,2.115 -4.365,5.2875 0,3.1725 1.7325,5.2875 4.365,5.2875 1.125,0 2.2275,-0.36 3.15,-1.0125 v -0.945 c -1.0575,0.675 -1.9125,0.9225 -3.15,0.9225 -1.9125,0 -2.385,-1.8225 -2.385,-4.0275 z m -1.98,-0.945 h -4.7475 c 0,-1.8 0.765,-3.6225 2.385,-3.6225 1.5975,0 2.3625,1.8225 2.3625,3.6225 z"
         style="font-size:22.5px;line-height:1.25"
         id="path66" />
      <path
         d="m 148.84619,-46.761303 v -0.945 c -0.72,-1.0125 -1.89,-1.62 -3.15,-1.62 -2.8125,0 -4.7025,2.115 -4.7025,5.2875 0,3.1725 1.89,5.2875 4.7025,5.2875 1.17,0 2.2725,-0.585 2.925,-1.5525 v -0.945 c -0.765,1.1475 -1.5525,1.5525 -2.925,1.5525 -1.62,0 -2.7225,-1.7325 -2.7225,-4.3425 0,-2.61 1.1025,-4.3425 2.7225,-4.3425 1.395,0 2.34,0.495 3.15,1.62 z"
         style="font-size:22.5px;line-height:1.25"
         id="path68" />
      <path
         d="m 155.97867,-39.763803 v -0.675 c -0.36,0.36 -0.7875,0.6525 -1.305,0.6525 -0.81,0 -0.855,-1.0575 -0.855,-2.0025 v -6.3675 h 2.16 v -0.945 h -2.16 v -3.375 h -1.0575 c 0,1.8 -1.035,3.4875 -2.6775,3.4875 v 0.8325 h 1.98 v 6.3675 c 0,1.485 0.4725,3.0375 1.755,3.0375 0.8325,0 1.5525,-0.45 2.16,-1.0125 z"
         style="font-size:22.5px;line-height:1.25"
         id="path70" />
      <path
         d="m 167.90364,-36.388803 v -1.125 h -11.25 v 1.125 z"
         style="font-size:22.5px;line-height:1.25"
         id="path72" />
      <path
         d="m 177.84859,-38.976303 v -7.3125 c 0,-1.6425 -1.26,-3.0375 -2.88,-3.0375 -1.35,0 -2.5425,0.765 -3.51,1.71 v -1.485 h -1.755 v 10.125 h 1.755 v -7.9425 c 0.765,-0.765 1.71,-1.3725 2.7675,-1.3725 1.0575,0 1.8675,0.9225 1.8675,2.0025 v 7.3125 z"
         style="font-size:22.5px;line-height:1.25"
         id="path74" />
      <path
         d="m 190.78605,-36.388803 v -1.125 h -11.25 v 1.125 z"
         style="font-size:22.5px;line-height:1.25"
         id="path76" />
      <path
         d="m 200.73102,-44.038803 c 0,-3.4425 -1.53,-5.2875 -4.3425,-5.2875 -2.835,0 -4.365,1.845 -4.365,5.2875 0,3.4425 1.53,5.2875 4.365,5.2875 2.8125,0 4.3425,-1.845 4.3425,-5.2875 z m -1.98,0 c 0,2.8125 -0.8325,4.3425 -2.3625,4.3425 -1.5525,0 -2.385,-1.53 -2.385,-4.3425 0,-2.8125 0.8325,-4.3425 2.385,-4.3425 1.53,0 2.3625,1.53 2.3625,4.3425 z"
         style="font-size:22.5px;line-height:1.25"
         id="path78" />
    </g>
    <path
       id="path3371"
       style="fill:none;stroke:#000000;stroke-width:2;stroke-linecap:butt;stroke-linejoin:miter;stroke-miterlimit:4;stroke-dasharray:none;stroke-opacity:1"
       d="M 921.25986,-28.346394 H 761.81105 l -3.54331,-35.433071 H 637.79528 l -3.54329,35.43307 c -115.74803,2e-6 -217.32284,0 -333.07088,0 l -3.54329,-35.43307 h -85.03938" />
    <g
       aria-label="reset_i"
       id="text3447"
       style="line-height:0%;font-family:Iwona;-inkscape-font-specification:Iwona;text-align:end;letter-spacing:0px;word-spacing:0px;text-anchor:end">
      <path
         d="m 144.86371,-154.00553 v -1.395 c -0.2475,-0.09 -0.5175,-0.1575 -0.765,-0.1575 -1.26,0 -2.2725,0.8775 -3.0825,1.845 v -1.6875 h -1.755 v 10.125 h 1.755 v -7.4925 c 0.675,-0.7875 1.53,-1.4625 2.565,-1.4625 0.4275,0 0.8775,0.09 1.2825,0.225 z"
         style="font-size:22.5px;line-height:1.25"
         id="path81" />
      <path
         d="m 155.25869,-150.11303 v -0.225 c 0,-3.1725 -1.7325,-5.2875 -4.3425,-5.2875 -2.6325,0 -4.365,2.115 -4.365,5.2875 0,3.1725 1.7325,5.2875 4.365,5.2875 1.125,0 2.2275,-0.36 3.15,-1.0125 v -0.945 c -1.0575,0.675 -1.9125,0.9225 -3.15,0.9225 -1.9125,0 -2.385,-1.8225 -2.385,-4.0275 z m -1.98,-0.945 h -4.7475 c 0,-1.8 0.765,-3.6225 2.385,-3.6225 1.5975,0 2.3625,1.8225 2.3625,3.6225 z"
         style="font-size:22.5px;line-height:1.25"
         id="path83" />
      <path
         d="m 165.02365,-148.15553 c 0,-1.7775 -1.89,-2.7 -3.735,-3.15 -1.08,-0.27 -2.25,-0.72 -2.25,-1.7775 0,-0.9675 0.99,-1.5975 2.07,-1.5975 1.1925,0 2.385,0.36 3.375,1.0125 v -0.945 c -0.99,-0.6525 -2.1825,-1.0125 -3.375,-1.0125 -1.9575,0 -3.7575,1.1925 -3.7575,3.015 0,1.6425 1.8225,2.4075 3.555,2.835 1.1925,0.2925 2.43,0.9225 2.43,2.07 0,1.0575 -1.08,1.71 -2.2275,1.71 -1.395,0 -2.745,-0.3375 -3.9375,-1.0125 v 0.945 c 1.1925,0.675 2.5425,1.0125 3.9375,1.0125 2.025,0 3.915,-1.215 3.915,-3.105 z"
         style="font-size:22.5px;line-height:1.25"
         id="path85" />
      <path
         d="m 175.98113,-150.11303 v -0.225 c 0,-3.1725 -1.7325,-5.2875 -4.3425,-5.2875 -2.6325,0 -4.365,2.115 -4.365,5.2875 0,3.1725 1.7325,5.2875 4.365,5.2875 1.125,0 2.2275,-0.36 3.15,-1.0125 v -0.945 c -1.0575,0.675 -1.9125,0.9225 -3.15,0.9225 -1.9125,0 -2.385,-1.8225 -2.385,-4.0275 z m -1.98,-0.945 h -4.7475 c 0,-1.8 0.765,-3.6225 2.385,-3.6225 1.5975,0 2.3625,1.8225 2.3625,3.6225 z"
         style="font-size:22.5px;line-height:1.25"
         id="path87" />
      <path
         d="m 183.6761,-146.06303 v -0.675 c -0.36,0.36 -0.7875,0.6525 -1.305,0.6525 -0.81,0 -0.855,-1.0575 -0.855,-2.0025 v -6.3675 h 2.16 v -0.945 h -2.16 v -3.375 h -1.0575 c 0,1.8 -1.035,3.4875 -2.6775,3.4875 v 0.8325 h 1.98 v 6.3675 c 0,1.485 0.4725,3.0375 1.755,3.0375 0.8325,0 1.5525,-0.45 2.16,-1.0125 z"
         style="font-size:22.5px;line-height:1.25"
         id="path89" />
      <path
         d="m 195.60107,-142.68803 v -1.125 h -11.25 v 1.125 z"
         style="font-size:22.5px;line-height:1.25"
         id="path91" />
      <path
         d="m 201.51853,-146.06303 v -0.675 c -0.4275,0.36 -0.9225,0.6525 -1.485,0.6525 -0.8325,0 -0.99,-1.035 -0.99,-2.0025 v -7.3125 h -1.755 v 7.3125 c 0,1.5075 0.585,3.0375 1.9125,3.0375 0.855,0 1.665,-0.4275 2.3175,-1.0125 z m -2.25,-12.8475 c 0,-0.6075 -0.495,-1.1025 -1.1025,-1.1025 -0.6075,0 -1.1025,0.495 -1.1025,1.1025 0,0.6075 0.495,1.1025 1.1025,1.1025 0.6075,0 1.1025,-0.495 1.1025,-1.1025 z"
         style="font-size:22.5px;line-height:1.25"
         id="path93" />
    </g>
    <path
       id="path3453"
       style="fill:none;stroke:#000000;stroke-width:2;stroke-linecap:butt;stroke-linejoin:miter;stroke-miterlimit:4;stroke-dasharray:none;stroke-opacity:1"
       d="m 212.59844,77.952819 h 535.03937 l 3.54331,-35.433071 h 7.08661 l 3.54331,35.433071 h 159.44882" />
    <g
       aria-label="16 bits"
       id="text3832"
       style="line-height:0%;font-family:Iwona;-inkscape-font-specification:Iwona;text-align:center;letter-spacing:0px;word-spacing:0px;text-anchor:middle">
      <path
         d="m 444.92073,-49.606236 v -13.8 h -1.16 c -1.1,1.26 -2.4,2.34 -3.84,3.18 v 0.84 c 1.22,-0.58 2.36,-1.26 3.44,-2.08 v 11.86 z"
         style="font-size:20px;line-height:1.25"
         id="path96" />
      <path
         d="m 458.32072,-54.106236 c 0,-2.88 -1.14,-4.7 -3.82,-4.7 -1.16,0 -2.24,0.54 -2.92,1.46 0,-2.62 0.66,-5.42 2.92,-5.42 1.02,0 2.02,0.34 2.82,0.98 v -0.84 c -0.8,-0.64 -1.8,-0.98 -2.82,-0.98 -3.14,0 -4.68,3.56 -4.68,7.1 0,4.96 1.28,7.1 4.26,7.1 2.54,0 4.24,-1.88 4.24,-4.7 z m -1.76,0 c 0,2.32 -1,3.86 -2.48,3.86 -2.8,0 -2.5,-3.02 -2.5,-6.26 0.68,-0.92 1.76,-1.46 2.92,-1.46 1.6,0 2.06,2 2.06,3.86 z"
         style="font-size:20px;line-height:1.25"
         id="path98" />
      <path
         d="m 475.32068,-54.106236 c 0,-2.66 -1,-4.7 -3.42,-4.7 -1.02,0 -1.96,0.46 -2.76,1.1 v -5.9 h -1.56 v 14 h 1.56 v -0.46 c 0.76,0.4 1.6,0.66 2.46,0.66 2.5,0 3.72,-2 3.72,-4.7 z m -1.76,0 c 0,1.88 -0.58,3.86 -2.22,3.86 -0.78,0 -1.54,-0.26 -2.2,-0.66 v -5.96 c 0.6,-0.6 1.34,-1.1 2.2,-1.1 1.82,0 2.22,1.76 2.22,3.86 z"
         style="font-size:20px;line-height:1.25"
         id="path100" />
      <path
         d="m 481.68067,-50.306236 v -0.6 c -0.38,0.32 -0.82,0.58 -1.32,0.58 -0.74,0 -0.88,-0.92 -0.88,-1.78 v -6.5 h -1.56 v 6.5 c 0,1.34 0.52,2.7 1.7,2.7 0.76,0 1.48,-0.38 2.06,-0.9 z m -2,-11.42 c 0,-0.54 -0.44,-0.98 -0.98,-0.98 -0.54,0 -0.98,0.44 -0.98,0.98 0,0.54 0.44,0.98 0.98,0.98 0.54,0 0.98,-0.44 0.98,-0.98 z"
         style="font-size:20px;line-height:1.25"
         id="path102" />
      <path
         d="m 487.92065,-50.306236 v -0.6 c -0.32,0.32 -0.7,0.58 -1.16,0.58 -0.72,0 -0.76,-0.94 -0.76,-1.78 v -5.66 h 1.92 v -0.84 h -1.92 v -3 h -0.94 c 0,1.6 -0.92,3.1 -2.38,3.1 v 0.74 h 1.76 v 5.66 c 0,1.32 0.42,2.7 1.56,2.7 0.74,0 1.38,-0.4 1.92,-0.9 z"
         style="font-size:20px;line-height:1.25"
         id="path104" />
      <path
         d="m 496.20062,-52.166236 c 0,-1.58 -1.68,-2.4 -3.32,-2.8 -0.96,-0.24 -2,-0.64 -2,-1.58 0,-0.86 0.88,-1.42 1.84,-1.42 1.06,0 2.12,0.32 3,0.9 v -0.84 c -0.88,-0.58 -1.94,-0.9 -3,-0.9 -1.74,0 -3.34,1.06 -3.34,2.68 0,1.46 1.62,2.14 3.16,2.52 1.06,0.26 2.16,0.82 2.16,1.84 0,0.94 -0.96,1.52 -1.98,1.52 -1.24,0 -2.44,-0.3 -3.5,-0.9 v 0.84 c 1.06,0.6 2.26,0.9 3.5,0.9 1.8,0 3.48,-1.08 3.48,-2.76 z"
         style="font-size:20px;line-height:1.25"
         id="path106" />
    </g>
    <path
       style="fill:none;fill-rule:evenodd;stroke:#000000;stroke-width:1.5;stroke-linecap:butt;stroke-linejoin:miter;stroke-miterlimit:4;stroke-dasharray:none;stroke-opacity:1;marker-start:url(#Arrow2Mstart);marker-end:url(#Arrow1Mend)"
       d="m 304.72443,-46.062929 325.98425,1.9e-5"
       id="path3836" />
    <path
       d="M 917.71655,-134.64561 H 651.96853 290.55118 l -3.54329,-35.43307 h -74.40945"
       style="fill:none;stroke:#000000;stroke-width:2;stroke-linecap:butt;stroke-linejoin:miter;stroke-miterlimit:4;stroke-dasharray:none;stroke-opacity:1"
       id="path10587" />
    <path
       id="path10589"
       style="fill:none;stroke:#000000;stroke-width:2;stroke-linecap:butt;stroke-linejoin:miter;stroke-miterlimit:4;stroke-dasharray:none;stroke-opacity:1"
       d="M 921.25986,-81.496 H 761.81105 l -3.54331,-35.43307 H 637.79528 L 634.25199,-81.496 H 301.18111 l -3.54329,-35.43307 h -85.03938" />
    <g
       aria-label="state_reg"
       id="text10593"
       style="line-height:0%;font-family:Iwona;-inkscape-font-specification:Iwona;text-align:end;letter-spacing:0px;word-spacing:0px;text-anchor:end">
      <path
         d="m 121.95875,-95.005923 c 0,-1.7775 -1.89,-2.7 -3.735,-3.15 -1.08,-0.27 -2.25,-0.72 -2.25,-1.7775 0,-0.967497 0.99,-1.597497 2.07,-1.597497 1.1925,0 2.385,0.36 3.375,1.0125 v -0.945 c -0.99,-0.6525 -2.1825,-1.0125 -3.375,-1.0125 -1.9575,0 -3.7575,1.1925 -3.7575,3.014997 0,1.6425 1.8225,2.4075 3.555,2.835 1.1925,0.2925 2.43,0.9225 2.43,2.07 0,1.0575 -1.08,1.71 -2.2275,1.71 -1.395,0 -2.745,-0.3375 -3.9375,-1.0125 v 0.945 c 1.1925,0.675 2.5425,1.0125 3.9375,1.0125 2.025,0 3.915,-1.215 3.915,-3.105 z"
         style="font-size:22.5px;line-height:1.25"
         id="path109" />
      <path
         d="m 129.54123,-92.913423 v -0.675 c -0.36,0.36 -0.7875,0.6525 -1.305,0.6525 -0.81,0 -0.855,-1.0575 -0.855,-2.0025 v -6.367497 h 2.16 v -0.945 h -2.16 v -3.375 h -1.0575 c 0,1.8 -1.035,3.4875 -2.6775,3.4875 v 0.8325 h 1.98 v 6.367497 c 0,1.485 0.4725,3.0375 1.755,3.0375 0.8325,0 1.5525,-0.45 2.16,-1.0125 z"
         style="font-size:22.5px;line-height:1.25"
         id="path111" />
      <path
         d="m 139.9362,-92.125923 v -6.3 c 0,-2.114997 -1.305,-4.049997 -3.2625,-4.049997 -1.44,0 -2.79,0.495 -4.005,1.26 v 0.6975 c 1.0125,-0.5625 2.1375,-0.9225 3.3075,-0.9225 1.395,0 2.205,1.484997 2.205,3.014997 v 0.405 c -0.8775,-0.3825 -1.8225,-0.6075 -2.7675,-0.6075 -2.4075,0 -4.185,1.1025 -4.185,3.375 0,2.16 1.575,3.3525 3.8475,3.3525 1.1475,0 2.205,-0.5175 3.105,-1.2375 v 1.0125 z m -1.755,-1.9575 c -0.675,0.675 -1.5075,1.2375 -2.475,1.2375 -1.5075,0 -2.4975,-0.9225 -2.4975,-2.4075 0,-1.3725 1.125,-2.43 2.4975,-2.43 0.855,0 1.71,0.225 2.475,0.6075 z"
         style="font-size:22.5px;line-height:1.25"
         id="path113" />
      <path
         d="m 148.30618,-92.913423 v -0.675 c -0.36,0.36 -0.7875,0.6525 -1.305,0.6525 -0.81,0 -0.855,-1.0575 -0.855,-2.0025 v -6.367497 h 2.16 v -0.945 h -2.16 v -3.375 h -1.0575 c 0,1.8 -1.035,3.4875 -2.6775,3.4875 v 0.8325 h 1.98 v 6.367497 c 0,1.485 0.4725,3.0375 1.755,3.0375 0.8325,0 1.5525,-0.45 2.16,-1.0125 z"
         style="font-size:22.5px;line-height:1.25"
         id="path115" />
      <path
         d="m 158.92614,-96.963423 v -0.225 c 0,-3.172497 -1.7325,-5.287497 -4.3425,-5.287497 -2.6325,0 -4.365,2.115 -4.365,5.287497 0,3.1725 1.7325,5.2875 4.365,5.2875 1.125,0 2.2275,-0.36 3.15,-1.0125 v -0.945 c -1.0575,0.675 -1.9125,0.9225 -3.15,0.9225 -1.9125,0 -2.385,-1.8225 -2.385,-4.0275 z m -1.98,-0.945 h -4.7475 c 0,-1.8 0.765,-3.622497 2.385,-3.622497 1.5975,0 2.3625,1.822497 2.3625,3.622497 z"
         style="font-size:22.5px;line-height:1.25"
         id="path117" />
      <path
         d="m 171.30112,-89.538423 v -1.125 h -11.25 v 1.125 z"
         style="font-size:22.5px;line-height:1.25"
         id="path119" />
      <path
         d="m 178.70357,-100.85592 v -1.395 c -0.2475,-0.09 -0.5175,-0.1575 -0.765,-0.1575 -1.26,0 -2.2725,0.8775 -3.0825,1.845 v -1.6875 h -1.755 v 10.124997 h 1.755 v -7.4925 c 0.675,-0.787497 1.53,-1.462497 2.565,-1.462497 0.4275,0 0.8775,0.09 1.2825,0.225 z"
         style="font-size:22.5px;line-height:1.25"
         id="path121" />
      <path
         d="m 189.09855,-96.963423 v -0.225 c 0,-3.172497 -1.7325,-5.287497 -4.3425,-5.287497 -2.6325,0 -4.365,2.115 -4.365,5.287497 0,3.1725 1.7325,5.2875 4.365,5.2875 1.125,0 2.2275,-0.36 3.15,-1.0125 v -0.945 c -1.0575,0.675 -1.9125,0.9225 -3.15,0.9225 -1.9125,0 -2.385,-1.8225 -2.385,-4.0275 z m -1.98,-0.945 h -4.7475 c 0,-1.8 0.765,-3.622497 2.385,-3.622497 1.5975,0 2.3625,1.822497 2.3625,3.622497 z"
         style="font-size:22.5px;line-height:1.25"
         id="path123" />
      <path
         d="m 200.16852,-90.775923 v -11.474997 h -1.755 v 0.3825 c -0.8775,-0.3825 -1.8225,-0.6075 -2.7675,-0.6075 -2.8125,0 -4.185,2.25 -4.185,5.287497 0,2.9925 1.125,5.2875 3.8475,5.2875 1.1475,0 2.205,-0.5175 3.105,-1.2375 v 2.3625 c 0,1.5525 -0.855,3.015 -2.25,3.015 -1.1475,0 -2.295,-0.225 -3.375,-0.6075 v 0.6975 c 1.26,0.585 2.655,0.945 4.05,0.945 1.98,0 3.33,-1.935 3.33,-4.05 z m -1.755,-3.3075 c -0.675,0.675 -1.5075,1.2375 -2.475,1.2375 -2.0475,0 -2.4975,-1.98 -2.4975,-4.3425 0,-2.115 0.6525,-4.342497 2.4975,-4.342497 0.855,0 1.71,0.225 2.475,0.6075 z"
         style="font-size:22.5px;line-height:1.25"
         id="path125" />
    </g>
    <path
       d="M 917.71655,-116.92907 H 761.81105 L 758.26774,-81.496 H 637.79528 l -3.54329,-35.43307 H 301.18111 l -3.54329,35.43307 h -85.03938"
       style="fill:none;stroke:#000000;stroke-width:2;stroke-linecap:butt;stroke-linejoin:miter;stroke-miterlimit:4;stroke-dasharray:none;stroke-opacity:1"
       id="path10595" />
    <g
       aria-label="INIT_STATE"
       id="text10599"
       style="font-size:15px;line-height:0%;font-family:Iwona;-inkscape-font-specification:Iwona;text-align:center;letter-spacing:0px;word-spacing:0px;text-anchor:middle">
      <path
         d="m 217.17575,-92.125923 v -10.499997 h -1.23 v 10.499997 z"
         style="line-height:1.25"
         id="path128" />
      <path
         d="m 228.99574,-92.125923 v -10.499997 h -0.69 v 8.819997 l -7.23,-8.819997 h -0.9 v 10.499997 h 0.69 v -8.819997 l 7.23,8.819997 z"
         style="line-height:1.25"
         id="path130" />
      <path
         d="m 233.22571,-92.125923 v -10.499997 h -1.23 v 10.499997 z"
         style="line-height:1.25"
         id="path132" />
      <path
         d="m 243.27571,-101.93592 v -0.69 h -8.25 v 0.69 h 3.51 v 9.809997 h 1.23 v -9.809997 z"
         style="line-height:1.25"
         id="path134" />
      <path
         d="m 251.07568,-90.400923 v -0.75 h -7.5 v 0.75 z"
         style="line-height:1.25"
         id="path136" />
      <path
         d="m 259.88065,-95.170923 c 0,-1.845 -1.875,-2.94 -3.81,-3.345 -1.29,-0.27 -2.745,-0.6 -2.745,-1.799997 0,-1.185 1.275,-1.86 2.595,-1.86 1.215,0 2.4,0.36 3.36,1.11 v -0.6 c -0.96,-0.75 -2.145,-1.2 -3.36,-1.2 -1.95,0 -3.78,1.095 -3.78,2.865 0,1.694997 1.83,2.549997 3.615,2.924997 1.425,0.3 2.94,0.885 2.94,2.22 0,1.365 -1.335,2.28 -2.775,2.28 -1.395,0 -2.775,-0.36 -3.945,-1.11 v 0.6 c 1.185,0.75 2.535,1.2 3.945,1.2 2.07,0 3.96,-1.335 3.96,-3.285 z"
         style="line-height:1.25"
         id="path138" />
      <path
         d="m 269.06062,-101.93592 v -0.69 h -8.25 v 0.69 h 3.51 v 9.809997 h 1.23 v -9.809997 z"
         style="line-height:1.25"
         id="path140" />
      <path
         d="m 277.70058,-92.125923 -3.81,-10.499997 h -1.305 l -3.885,10.499997 h 0.735 l 1.365,-3.675 h 4.26 l 1.335,3.675 z m -2.895,-4.365 h -3.75 l 1.89,-5.129997 z"
         style="line-height:1.25"
         id="path142" />
      <path
         d="m 285.59055,-101.93592 v -0.69 h -8.25 v 0.69 h 3.51 v 9.809997 h 1.23 v -9.809997 z"
         style="line-height:1.25"
         id="path144" />
      <path
         d="m 294.89052,-92.125923 v -0.69 h -6.27 v -4.215 h 4.77 v -0.69 h -4.77 v -4.214997 h 5.91 v -0.69 h -7.14 v 10.499997 z"
         style="line-height:1.25"
         id="path146" />
    </g>
    <g
       aria-label="BUSY_STATE"
       id="text10603"
       style="font-size:15px;line-height:0%;font-family:Iwona;-inkscape-font-specification:Iwona;text-align:center;letter-spacing:0px;word-spacing:0px;text-anchor:middle">
      <path
         d="m 431.53578,-94.975923 c 0,-1.65 -1.08,-2.52 -2.655,-2.85 1.155,-0.345 1.92,-1.095 1.92,-2.369997 0,-1.83 -1.575,-2.58 -3.6,-2.58 -0.78,0 -1.56,0.045 -2.34,0.15 h -1.2 v 10.499997 h 1.2 l 2.34,0.15 c 2.43,0 4.335,-0.825 4.335,-3 z m -1.965,-5.219997 c 0,1.514997 -1.695,2.294997 -3.39,2.294997 h -1.29 v -4.034997 c 0.765,-0.105 1.545,-0.15 2.31,-0.15 1.23,0 2.37,0.75 2.37,1.89 z m 0.495,5.219997 c 0,1.38 -1.365,2.31 -2.865,2.31 -0.765,0 -1.545,-0.045 -2.31,-0.15 v -4.56 h 1.935 c 1.65,0 3.24,0.885 3.24,2.4 z"
         style="line-height:1.25"
         id="path149" />
      <path
         d="m 441.66077,-95.065923 v -7.559997 h -0.69 v 7.319997 c 0,1.56 -1.38,2.73 -2.97,2.73 -1.605,0 -2.985,-1.17 -2.985,-2.73 v -7.319997 h -1.23 v 7.559997 c 0,1.905 1.89,3.18 3.945,3.18 2.04,0 3.93,-1.275 3.93,-3.18 z"
         style="line-height:1.25"
         id="path151" />
      <path
         d="m 451.81577,-95.170923 c 0,-1.845 -1.875,-2.94 -3.81,-3.345 -1.29,-0.27 -2.745,-0.6 -2.745,-1.799997 0,-1.185 1.275,-1.86 2.595,-1.86 1.215,0 2.4,0.36 3.36,1.11 v -0.6 c -0.96,-0.75 -2.145,-1.2 -3.36,-1.2 -1.95,0 -3.78,1.095 -3.78,2.865 0,1.694997 1.83,2.549997 3.615,2.924997 1.425,0.3 2.94,0.885 2.94,2.22 0,1.365 -1.335,2.28 -2.775,2.28 -1.395,0 -2.775,-0.36 -3.945,-1.11 v 0.6 c 1.185,0.75 2.535,1.2 3.945,1.2 2.07,0 3.96,-1.335 3.96,-3.285 z"
         style="line-height:1.25"
         id="path153" />
      <path
         d="m 460.99574,-102.62592 h -0.81 l -3.195,5.309997 -2.85,-5.309997 h -1.395 l 3.51,6.299997 v 4.2 h 1.23 v -4.665 z"
         style="line-height:1.25"
         id="path155" />
      <path
         d="m 468.64574,-90.400923 v -0.75 h -7.5 v 0.75 z"
         style="line-height:1.25"
         id="path157" />
      <path
         d="m 477.45071,-95.170923 c 0,-1.845 -1.875,-2.94 -3.81,-3.345 -1.29,-0.27 -2.745,-0.6 -2.745,-1.799997 0,-1.185 1.275,-1.86 2.595,-1.86 1.215,0 2.4,0.36 3.36,1.11 v -0.6 c -0.96,-0.75 -2.145,-1.2 -3.36,-1.2 -1.95,0 -3.78,1.095 -3.78,2.865 0,1.694997 1.83,2.549997 3.615,2.924997 1.425,0.3 2.94,0.885 2.94,2.22 0,1.365 -1.335,2.28 -2.775,2.28 -1.395,0 -2.775,-0.36 -3.945,-1.11 v 0.6 c 1.185,0.75 2.535,1.2 3.945,1.2 2.07,0 3.96,-1.335 3.96,-3.285 z"
         style="line-height:1.25"
         id="path159" />
      <path
         d="m 486.63068,-101.93592 v -0.69 h -8.25 v 0.69 h 3.51 v 9.809997 h 1.23 v -9.809997 z"
         style="line-height:1.25"
         id="path161" />
      <path
         d="m 495.27064,-92.125923 -3.81,-10.499997 h -1.305 l -3.885,10.499997 h 0.735 l 1.365,-3.675 h 4.26 l 1.335,3.675 z m -2.895,-4.365 h -3.75 l 1.89,-5.129997 z"
         style="line-height:1.25"
         id="path163" />
      <path
         d="m 503.16061,-101.93592 v -0.69 h -8.25 v 0.69 h 3.51 v 9.809997 h 1.23 v -9.809997 z"
         style="line-height:1.25"
         id="path165" />
      <path
         d="m 512.46059,-92.125923 v -0.69 h -6.27 v -4.215 h 4.77 v -0.69 h -4.77 v -4.214997 h 5.91 v -0.69 h -7.14 v 10.499997 z"
         style="line-height:1.25"
         id="path167" />
    </g>
    <g
       aria-label="VALID_STATE"
       id="text11363"
       style="font-size:15px;line-height:0%;font-family:Iwona;-inkscape-font-specification:Iwona;text-align:center;letter-spacing:0px;word-spacing:0px;text-anchor:middle">
      <path
         d="m 660.44917,-102.62592 h -0.735 l -3.48,8.909997 -3.465,-8.909997 h -1.32 l 4.095,10.499997 h 0.81 z"
         style="line-height:1.25"
         id="path170" />
      <path
         d="m 669.29915,-92.125923 -3.81,-10.499997 h -1.305 l -3.885,10.499997 h 0.735 l 1.365,-3.675 h 4.26 l 1.335,3.675 z m -2.895,-4.365 h -3.75 l 1.89,-5.129997 z"
         style="line-height:1.25"
         id="path172" />
      <path
         d="m 676.94913,-92.125923 v -0.69 h -4.77 v -9.809997 h -1.23 v 10.499997 z"
         style="line-height:1.25"
         id="path174" />
      <path
         d="m 679.97911,-92.125923 v -10.499997 h -1.23 v 10.499997 z"
         style="line-height:1.25"
         id="path176" />
      <path
         d="m 691.79911,-97.375923 c 0,-3.209997 -1.755,-5.399997 -4.845,-5.399997 -0.93,0 -1.86,0.045 -2.775,0.15 h -1.2 v 10.499997 h 1.2 c 0.915,0.105 1.845,0.15 2.775,0.15 3.09,0 4.845,-2.19 4.845,-5.4 z m -1.47,0 c 0,2.385 -1.215,4.71 -3.375,4.71 -0.915,0 -1.83,-0.045 -2.745,-0.15 v -9.119997 c 0.915,-0.105 1.83,-0.15 2.745,-0.15 2.16,0 3.375,2.324997 3.375,4.709997 z"
         style="line-height:1.25"
         id="path178" />
      <path
         d="m 700.19909,-90.400923 v -0.75 h -7.5 v 0.75 z"
         style="line-height:1.25"
         id="path180" />
      <path
         d="m 709.00407,-95.170923 c 0,-1.845 -1.875,-2.94 -3.81,-3.345 -1.29,-0.27 -2.745,-0.6 -2.745,-1.799997 0,-1.185 1.275,-1.86 2.595,-1.86 1.215,0 2.4,0.36 3.36,1.11 v -0.6 c -0.96,-0.75 -2.145,-1.2 -3.36,-1.2 -1.95,0 -3.78,1.095 -3.78,2.865 0,1.694997 1.83,2.549997 3.615,2.924997 1.425,0.3 2.94,0.885 2.94,2.22 0,1.365 -1.335,2.28 -2.775,2.28 -1.395,0 -2.775,-0.36 -3.945,-1.11 v 0.6 c 1.185,0.75 2.535,1.2 3.945,1.2 2.07,0 3.96,-1.335 3.96,-3.285 z"
         style="line-height:1.25"
         id="path182" />
      <path
         d="m 718.18403,-101.93592 v -0.69 h -8.25 v 0.69 h 3.51 v 9.809997 h 1.23 v -9.809997 z"
         style="line-height:1.25"
         id="path184" />
      <path
         d="m 726.82399,-92.125923 -3.81,-10.499997 h -1.305 l -3.885,10.499997 h 0.735 l 1.365,-3.675 h 4.26 l 1.335,3.675 z m -2.895,-4.365 h -3.75 l 1.89,-5.129997 z"
         style="line-height:1.25"
         id="path186" />
      <path
         d="m 734.71397,-101.93592 v -0.69 h -8.25 v 0.69 h 3.51 v 9.809997 h 1.23 v -9.809997 z"
         style="line-height:1.25"
         id="path188" />
      <path
         d="m 744.01394,-92.125923 v -0.69 h -6.27 v -4.215 h 4.77 v -0.69 h -4.77 v -4.214997 h 5.91 v -0.69 h -7.14 v 10.499997 z"
         style="line-height:1.25"
         id="path190" />
    </g>
    <g
       aria-label="BUSY_STATE"
       id="text11367"
       style="font-size:15px;line-height:0%;font-family:Iwona;-inkscape-font-specification:Iwona;text-align:center;letter-spacing:0px;word-spacing:0px;text-anchor:middle">
      <path
         d="m 817.71217,-94.975923 c 0,-1.65 -1.08,-2.52 -2.655,-2.85 1.155,-0.345 1.92,-1.095 1.92,-2.369997 0,-1.83 -1.575,-2.58 -3.6,-2.58 -0.78,0 -1.56,0.045 -2.34,0.15 h -1.2 v 10.499997 h 1.2 l 2.34,0.15 c 2.43,0 4.335,-0.825 4.335,-3 z m -1.965,-5.219997 c 0,1.514997 -1.695,2.294997 -3.39,2.294997 h -1.29 v -4.034997 c 0.765,-0.105 1.545,-0.15 2.31,-0.15 1.23,0 2.37,0.75 2.37,1.89 z m 0.495,5.219997 c 0,1.38 -1.365,2.31 -2.865,2.31 -0.765,0 -1.545,-0.045 -2.31,-0.15 v -4.56 h 1.935 c 1.65,0 3.24,0.885 3.24,2.4 z"
         style="line-height:1.25"
         id="path193" />
      <path
         d="m 827.83717,-95.065923 v -7.559997 h -0.69 v 7.319997 c 0,1.56 -1.38,2.73 -2.97,2.73 -1.605,0 -2.985,-1.17 -2.985,-2.73 v -7.319997 h -1.23 v 7.559997 c 0,1.905 1.89,3.18 3.945,3.18 2.04,0 3.93,-1.275 3.93,-3.18 z"
         style="line-height:1.25"
         id="path195" />
      <path
         d="m 837.99216,-95.170923 c 0,-1.845 -1.875,-2.94 -3.81,-3.345 -1.29,-0.27 -2.745,-0.6 -2.745,-1.799997 0,-1.185 1.275,-1.86 2.595,-1.86 1.215,0 2.4,0.36 3.36,1.11 v -0.6 c -0.96,-0.75 -2.145,-1.2 -3.36,-1.2 -1.95,0 -3.78,1.095 -3.78,2.865 0,1.694997 1.83,2.549997 3.615,2.924997 1.425,0.3 2.94,0.885 2.94,2.22 0,1.365 -1.335,2.28 -2.775,2.28 -1.395,0 -2.775,-0.36 -3.945,-1.11 v 0.6 c 1.185,0.75 2.535,1.2 3.945,1.2 2.07,0 3.96,-1.335 3.96,-3.285 z"
         style="line-height:1.25"
         id="path197" />
      <path
         d="m 847.17213,-102.62592 h -0.81 l -3.195,5.309997 -2.85,-5.309997 h -1.395 l 3.51,6.299997 v 4.2 h 1.23 v -4.665 z"
         style="line-height:1.25"
         id="path199" />
      <path
         d="m 854.82213,-90.400923 v -0.75 h -7.5 v 0.75 z"
         style="line-height:1.25"
         id="path201" />
      <path
         d="m 863.6271,-95.170923 c 0,-1.845 -1.875,-2.94 -3.81,-3.345 -1.29,-0.27 -2.745,-0.6 -2.745,-1.799997 0,-1.185 1.275,-1.86 2.595,-1.86 1.215,0 2.4,0.36 3.36,1.11 v -0.6 c -0.96,-0.75 -2.145,-1.2 -3.36,-1.2 -1.95,0 -3.78,1.095 -3.78,2.865 0,1.694997 1.83,2.549997 3.615,2.924997 1.425,0.3 2.94,0.885 2.94,2.22 0,1.365 -1.335,2.28 -2.775,2.28 -1.395,0 -2.775,-0.36 -3.945,-1.11 v 0.6 c 1.185,0.75 2.535,1.2 3.945,1.2 2.07,0 3.96,-1.335 3.96,-3.285 z"
         style="line-height:1.25"
         id="path203" />
      <path
         d="m 872.80707,-101.93592 v -0.69 h -8.25 v 0.69 h 3.51 v 9.809997 h 1.23 v -9.809997 z"
         style="line-height:1.25"
         id="path205" />
      <path
         d="m 881.44703,-92.125923 -3.81,-10.499997 h -1.305 l -3.885,10.499997 h 0.735 l 1.365,-3.675 h 4.26 l 1.335,3.675 z m -2.895,-4.365 h -3.75 l 1.89,-5.129997 z"
         style="line-height:1.25"
         id="path207" />
      <path
         d="m 889.337,-101.93592 v -0.69 h -8.25 v 0.69 h 3.51 v 9.809997 h 1.23 v -9.809997 z"
         style="line-height:1.25"
         id="path209" />
      <path
         d="m 898.63698,-92.125923 v -0.69 h -6.27 v -4.215 h 4.77 v -0.69 h -4.77 v -4.214997 h 5.91 v -0.69 h -7.14 v 10.499997 z"
         style="line-height:1.25"
         id="path211" />
    </g>
    <path
       d="M 921.25986,24.803213 H 761.81105 l -3.54331,-35.433071 H 637.79528 l -3.54329,35.43307 c -115.74803,2e-6 -305.9055,1e-6 -421.65354,1e-6"
       style="fill:none;stroke:#000000;stroke-width:2;stroke-linecap:butt;stroke-linejoin:miter;stroke-miterlimit:4;stroke-dasharray:none;stroke-opacity:1"
       id="path15797" />
    <g
       aria-label="valid_o"
       id="text18609"
       style="line-height:0%;font-family:Iwona;-inkscape-font-specification:Iwona;text-align:end;letter-spacing:0px;word-spacing:0px;text-anchor:end">
      <path
         d="m 143.19866,4.0482912 h -1.0125 l -3.06,8.4149998 -2.97,-8.4149998 h -1.665 l 3.555,10.1249998 h 1.4625 z"
         style="font-size:22.5px;line-height:1.25"
         id="path214" />
      <path
         d="M 153.14365,14.173291 V 7.8732912 c 0,-2.115 -1.305,-4.05 -3.2625,-4.05 -1.44,0 -2.79,0.495 -4.005,1.26 v 0.6975 c 1.0125,-0.5625 2.1375,-0.9225 3.3075,-0.9225 1.395,0 2.205,1.485 2.205,3.015 v 0.405 c -0.8775,-0.3825 -1.8225,-0.6075 -2.7675,-0.6075 -2.4075,0 -4.185,1.1025 -4.185,3.3749998 0,2.16 1.575,3.3525 3.8475,3.3525 1.1475,0 2.205,-0.5175 3.105,-1.2375 v 1.0125 z m -1.755,-1.9575 c -0.675,0.675 -1.5075,1.2375 -2.475,1.2375 -1.5075,0 -2.4975,-0.9225 -2.4975,-2.4075 0,-1.3724998 1.125,-2.4299998 2.4975,-2.4299998 0.855,0 1.71,0.225 2.475,0.6075 z"
         style="font-size:22.5px;line-height:1.25"
         id="path216" />
      <path
         d="m 160.97363,13.385791 v -0.675 c -0.4275,0.36 -0.9225,0.6525 -1.485,0.6525 -0.8325,0 -0.99,-1.035 -0.99,-2.0025 V -1.5767088 h -1.755 V 11.360791 c 0,1.5075 0.585,3.0375 1.9125,3.0375 0.855,0 1.665,-0.4275 2.3175,-1.0125 z"
         style="font-size:22.5px;line-height:1.25"
         id="path218" />
      <path
         d="m 167.34109,13.385791 v -0.675 c -0.4275,0.36 -0.9225,0.6525 -1.485,0.6525 -0.8325,0 -0.99,-1.035 -0.99,-2.0025 V 4.0482912 h -1.755 v 7.3124998 c 0,1.5075 0.585,3.0375 1.9125,3.0375 0.855,0 1.665,-0.4275 2.3175,-1.0125 z m -2.25,-12.84749979 c 0,-0.6075 -0.495,-1.1025 -1.1025,-1.1025 -0.6075,0 -1.1025,0.495 -1.1025,1.1025 0,0.60749999 0.495,1.10249999 1.1025,1.10249999 0.6075,0 1.1025,-0.495 1.1025,-1.10249999 z"
         style="font-size:22.5px;line-height:1.25"
         id="path220" />
      <path
         d="M 177.73607,14.173291 V -1.5767088 h -1.755 v 6.0075 c -0.8775,-0.3825 -1.8225,-0.6075 -2.7675,-0.6075 -2.8125,0 -4.185,2.25 -4.185,5.2875 0,2.9924998 1.125,5.2874998 3.8475,5.2874998 1.1475,0 2.205,-0.5175 3.105,-1.2375 v 1.0125 z m -1.755,-1.9575 c -0.675,0.675 -1.5075,1.2375 -2.475,1.2375 -2.0475,0 -2.4975,-1.98 -2.4975,-4.3424998 0,-2.115 0.6525,-4.3425 2.4975,-4.3425 0.855,0 1.71,0.225 2.475,0.6075 z"
         style="font-size:22.5px;line-height:1.25"
         id="path222" />
      <path
         d="m 190.78605,16.760791 v -1.125 h -11.25 v 1.125 z"
         style="font-size:22.5px;line-height:1.25"
         id="path224" />
      <path
         d="m 200.73101,9.1107912 c 0,-3.4425 -1.53,-5.2875 -4.3425,-5.2875 -2.835,0 -4.365,1.845 -4.365,5.2875 0,3.4424998 1.53,5.2874998 4.365,5.2874998 2.8125,0 4.3425,-1.845 4.3425,-5.2874998 z m -1.98,0 c 0,2.8124998 -0.8325,4.3424998 -2.3625,4.3424998 -1.5525,0 -2.385,-1.53 -2.385,-4.3424998 0,-2.8125 0.8325,-4.3425 2.385,-4.3425 1.53,0 2.3625,1.53 2.3625,4.3425 z"
         style="font-size:22.5px;line-height:1.25"
         id="path226" />
    </g>
    <g
       aria-label="ready_i"
       id="text18613"
       style="line-height:0%;font-family:Iwona;-inkscape-font-specification:Iwona;text-align:end;letter-spacing:0px;word-spacing:0px;text-anchor:end">
      <path
         d="m 137.93369,58.592899 v -1.395 c -0.2475,-0.09 -0.5175,-0.1575 -0.765,-0.1575 -1.26,0 -2.2725,0.8775 -3.0825,1.845 v -1.6875 h -1.755 v 10.125 h 1.755 v -7.4925 c 0.675,-0.7875 1.53,-1.4625 2.565,-1.4625 0.4275,0 0.8775,0.09 1.2825,0.225 z"
         style="font-size:22.5px;line-height:1.25"
         id="path229" />
      <path
         d="m 148.32867,62.485399 v -0.225 c 0,-3.1725 -1.7325,-5.2875 -4.3425,-5.2875 -2.6325,0 -4.365,2.115 -4.365,5.2875 0,3.1725 1.7325,5.2875 4.365,5.2875 1.125,0 2.2275,-0.36 3.15,-1.0125 v -0.945 c -1.0575,0.675 -1.9125,0.9225 -3.15,0.9225 -1.9125,0 -2.385,-1.8225 -2.385,-4.0275 z m -1.98,-0.945 h -4.7475 c 0,-1.8 0.765,-3.6225 2.385,-3.6225 1.5975,0 2.3625,1.8225 2.3625,3.6225 z"
         style="font-size:22.5px;line-height:1.25"
         id="path231" />
      <path
         d="m 159.17364,67.322899 v -6.3 c 0,-2.115 -1.305,-4.05 -3.2625,-4.05 -1.44,0 -2.79,0.495 -4.005,1.26 v 0.6975 c 1.0125,-0.5625 2.1375,-0.9225 3.3075,-0.9225 1.395,0 2.205,1.485 2.205,3.015 v 0.405 c -0.8775,-0.3825 -1.8225,-0.6075 -2.7675,-0.6075 -2.4075,0 -4.185,1.1025 -4.185,3.375 0,2.16 1.575,3.3525 3.8475,3.3525 1.1475,0 2.205,-0.5175 3.105,-1.2375 v 1.0125 z m -1.755,-1.9575 c -0.675,0.675 -1.5075,1.2375 -2.475,1.2375 -1.5075,0 -2.4975,-0.9225 -2.4975,-2.4075 0,-1.3725 1.125,-2.43 2.4975,-2.43 0.855,0 1.71,0.225 2.475,0.6075 z"
         style="font-size:22.5px;line-height:1.25"
         id="path233" />
      <path
         d="m 170.91862,67.322899 v -15.75 h -1.755 v 6.0075 c -0.8775,-0.3825 -1.8225,-0.6075 -2.7675,-0.6075 -2.8125,0 -4.185,2.25 -4.185,5.2875 0,2.9925 1.125,5.2875 3.8475,5.2875 1.1475,0 2.205,-0.5175 3.105,-1.2375 v 1.0125 z m -1.755,-1.9575 c -0.675,0.675 -1.5075,1.2375 -2.475,1.2375 -2.0475,0 -2.4975,-1.98 -2.4975,-4.3425 0,-2.115 0.6525,-4.3425 2.4975,-4.3425 0.855,0 1.71,0.225 2.475,0.6075 z"
         style="font-size:22.5px;line-height:1.25"
         id="path235" />
      <path
         d="m 182.55111,68.672899 v -11.475 h -1.755 v 7.9425 c -0.765,0.765 -1.71,1.3725 -2.7675,1.3725 -1.0575,0 -1.8675,-0.9225 -1.8675,-2.0025 v -7.3125 h -1.755 v 7.3125 c 0,1.6425 1.26,3.0375 2.88,3.0375 1.35,0 2.5425,-0.765 3.51,-1.71 v 2.835 c 0,1.5075 -0.675,3.015 -2.025,3.015 -1.0575,0 -2.07,-0.225 -3.0375,-0.6075 v 0.6975 c 1.1475,0.585 2.43,0.945 3.735,0.945 1.9125,0 3.0825,-1.98 3.0825,-4.05 z"
         style="font-size:22.5px;line-height:1.25"
         id="path237" />
      <path
         d="m 195.60107,69.910399 v -1.125 h -11.25 v 1.125 z"
         style="font-size:22.5px;line-height:1.25"
         id="path239" />
      <path
         d="m 201.51853,66.535399 v -0.675 c -0.4275,0.36 -0.9225,0.6525 -1.485,0.6525 -0.8325,0 -0.99,-1.035 -0.99,-2.0025 v -7.3125 h -1.755 v 7.3125 c 0,1.5075 0.585,3.0375 1.9125,3.0375 0.855,0 1.665,-0.4275 2.3175,-1.0125 z m -2.25,-12.8475 c 0,-0.6075 -0.495,-1.1025 -1.1025,-1.1025 -0.6075,0 -1.1025,0.495 -1.1025,1.1025 0,0.6075 0.495,1.1025 1.1025,1.1025 0.6075,0 1.1025,-0.495 1.1025,-1.1025 z"
         style="font-size:22.5px;line-height:1.25"
         id="path241" />
    </g>
  </g>
</svg>
