<?xml version="1.0" encoding="UTF-8" standalone="no"?>
<!-- Created with Inkscape (http://www.inkscape.org/) -->

<svg
   width="284.27182mm"
   height="99.086792mm"
   viewBox="0 0 1007.2623 351.09494"
   id="svg2"
   version="1.1"
   xmlns="http://www.w3.org/2000/svg"
   xmlns:svg="http://www.w3.org/2000/svg"
   xmlns:rdf="http://www.w3.org/1999/02/22-rdf-syntax-ns#"
   xmlns:cc="http://creativecommons.org/ns#"
   xmlns:dc="http://purl.org/dc/elements/1.1/">
  <defs
     id="defs4">
    <mask
       maskUnits="userSpaceOnUse"
       id="mask6955">
      <path
         style="fill:#b3b3b3;fill-opacity:1;fill-rule:evenodd;stroke:none;stroke-width:1px;stroke-linecap:butt;stroke-linejoin:miter;stroke-opacity:1"
         d="m 405.70865,131.10237 1.77166,-17.71653 h 10.62992 l -1.77163,17.71655 1.77163,17.71652 h -10.62992 z"
         id="path6957" />
    </mask>
  </defs>
  <metadata
     id="metadata7">
    <rdf:RDF>
      <cc:Work
         rdf:about="">
        <dc:format>image/svg+xml</dc:format>
        <dc:type
           rdf:resource="http://purl.org/dc/dcmitype/StillImage" />
        <dc:title />
      </cc:Work>
    </rdf:RDF>
  </metadata>
  <g
     id="layer1"
     transform="translate(-48.64317,71.020653)">
    <path
       id="path3809"
       d="m 905.315,131.10246 1.77166,-17.71653 h 102.75584 l 1.7717,17.71653 -1.7717,17.71654 H 907.08666 Z"
       style="fill:#ffcc00;fill-opacity:1;fill-rule:evenodd;stroke:none;stroke-width:1px;stroke-linecap:butt;stroke-linejoin:miter;stroke-opacity:1" />
    <path
       style="fill:#ffcc00;fill-opacity:1;fill-rule:evenodd;stroke:none;stroke-width:1px;stroke-linecap:butt;stroke-linejoin:miter;stroke-opacity:1"
       d="m 735.23624,77.952837 1.77166,-17.71653 h 53.1496 l 1.77165,17.71654 -1.77165,17.71653 h -53.1496 z"
       id="path4707" />
    <path
       id="path4709"
       d="m 791.92915,77.952837 1.77166,-17.71653 h 53.1496 l 1.77165,17.71654 -1.77165,17.71653 h -53.1496 z"
       style="fill:#ffcc00;fill-opacity:1;fill-rule:evenodd;stroke:none;stroke-width:1px;stroke-linecap:butt;stroke-linejoin:miter;stroke-opacity:1" />
    <path
       style="fill:#ffcc00;fill-opacity:1;fill-rule:evenodd;stroke:none;stroke-width:1px;stroke-linecap:butt;stroke-linejoin:miter;stroke-opacity:1"
       d="m 848.62206,77.952837 1.77166,-17.71653 h 53.14956 l 1.7717,17.71654 -1.7717,17.71653 h -53.14956 z"
       id="path4711" />
    <path
       id="path4713"
       d="m 735.23624,77.952837 -1.77166,-17.71653 h -53.1496 c 3.54331,7.08662 3.54331,28.34646 0,35.43307 h 53.1496 z"
       style="fill:#ffcc00;fill-opacity:1;fill-rule:evenodd;stroke:none;stroke-width:1px;stroke-linecap:butt;stroke-linejoin:miter;stroke-opacity:1" />
    <path
       id="path4691"
       d="m 487.20474,77.952837 1.77166,-17.71653 h 53.1496 l 1.77165,17.71654 -1.77165,17.71653 h -53.1496 z"
       style="fill:#ffcc00;fill-opacity:1;fill-rule:evenodd;stroke:none;stroke-width:1px;stroke-linecap:butt;stroke-linejoin:miter;stroke-opacity:1" />
    <path
       style="fill:#ffcc00;fill-opacity:1;fill-rule:evenodd;stroke:none;stroke-width:1px;stroke-linecap:butt;stroke-linejoin:miter;stroke-opacity:1"
       d="m 543.89765,77.952837 1.77166,-17.71653 h 53.1496 l 1.77165,17.71654 -1.77165,17.71653 h -53.1496 z"
       id="path4689" />
    <path
       id="path4687"
       d="m 600.59056,77.952837 1.77166,-17.71653 h 53.1496 c 3.54331,7.08661 3.54331,28.34645 0,35.43307 h -53.1496 z"
       style="fill:#ffcc00;fill-opacity:1;fill-rule:evenodd;stroke:none;stroke-width:1px;stroke-linecap:butt;stroke-linejoin:miter;stroke-opacity:1" />
    <g
       aria-label="serial_clk_o"
       id="text3352"
       style="line-height:0%;font-family:Iwona;-inkscape-font-specification:Iwona;text-align:end;letter-spacing:0px;word-spacing:0px;text-anchor:end">
      <path
         d="m 100.66214,29.009809 c 0,-1.7775 -1.89,-2.7 -3.735,-3.15 -1.08,-0.27 -2.25,-0.72 -2.25,-1.7775 0,-0.9675 0.99,-1.5975 2.07,-1.5975 1.1925,0 2.385,0.36 3.375,1.0125 v -0.945 c -0.99,-0.6525 -2.1825,-1.0125 -3.375,-1.0125 -1.9575,0 -3.7575,1.1925 -3.7575,3.015 0,1.6425 1.8225,2.4075 3.555,2.835 1.1925,0.2925 2.43,0.9225 2.43,2.07 0,1.0575 -1.08,1.71 -2.2275,1.71 -1.395,0 -2.745,-0.3375 -3.9375,-1.0125 v 0.945 c 1.1925,0.675 2.5425,1.0125 3.9375,1.0125 2.025,0 3.915,-1.215 3.915,-3.105 z"
         style="font-size:22.5px;line-height:1.25"
         id="path163" />
      <path
         d="m 111.61962,27.052309 v -0.225 c 0,-3.1725 -1.7325,-5.2875 -4.3425,-5.2875 -2.6325,0 -4.365,2.115 -4.365,5.2875 0,3.1725 1.7325,5.2875 4.365,5.2875 1.125,0 2.2275,-0.36 3.15,-1.0125 v -0.945 c -1.0575,0.675 -1.9125,0.9225 -3.15,0.9225 -1.9125,0 -2.385,-1.8225 -2.385,-4.0275 z m -1.98,-0.945 h -4.7475 c 0,-1.8 0.765,-3.6225 2.385,-3.6225 1.5975,0 2.3625,1.8225 2.3625,3.6225 z"
         style="font-size:22.5px;line-height:1.25"
         id="path165" />
      <path
         d="m 120.14709,23.159809 v -1.395 c -0.2475,-0.09 -0.5175,-0.1575 -0.765,-0.1575 -1.26,0 -2.2725,0.8775 -3.0825,1.845 v -1.6875 h -1.755 v 10.125 h 1.755 v -7.4925 c 0.675,-0.7875 1.53,-1.4625 2.565,-1.4625 0.4275,0 0.8775,0.09 1.2825,0.225 z"
         style="font-size:22.5px;line-height:1.25"
         id="path167" />
      <path
         d="m 126.51456,31.102309 v -0.675 c -0.4275,0.36 -0.9225,0.6525 -1.485,0.6525 -0.8325,0 -0.99,-1.035 -0.99,-2.0025 v -7.3125 h -1.755 v 7.3125 c 0,1.5075 0.585,3.0375 1.9125,3.0375 0.855,0 1.665,-0.4275 2.3175,-1.0125 z m -2.25,-12.8475 c 0,-0.6075 -0.495,-1.1025 -1.1025,-1.1025 -0.6075,0 -1.1025,0.495 -1.1025,1.1025 0,0.6075 0.495,1.1025 1.1025,1.1025 0.6075,0 1.1025,-0.495 1.1025,-1.1025 z"
         style="font-size:22.5px;line-height:1.25"
         id="path169" />
      <path
         d="m 136.68454,31.889809 v -6.3 c 0,-2.115 -1.305,-4.05 -3.2625,-4.05 -1.44,0 -2.79,0.495 -4.005,1.26 v 0.6975 c 1.0125,-0.5625 2.1375,-0.9225 3.3075,-0.9225 1.395,0 2.205,1.485 2.205,3.015 v 0.405 c -0.8775,-0.3825 -1.8225,-0.6075 -2.7675,-0.6075 -2.4075,0 -4.185,1.1025 -4.185,3.375 0,2.16 1.575,3.3525 3.8475,3.3525 1.1475,0 2.205,-0.5175 3.105,-1.2375 v 1.0125 z m -1.755,-1.9575 c -0.675,0.675 -1.5075,1.2375 -2.475,1.2375 -1.5075,0 -2.4975,-0.9225 -2.4975,-2.4075 0,-1.3725 1.125,-2.43 2.4975,-2.43 0.855,0 1.71,0.225 2.475,0.6075 z"
         style="font-size:22.5px;line-height:1.25"
         id="path171" />
      <path
         d="m 144.51452,31.102309 v -0.675 c -0.4275,0.36 -0.9225,0.6525 -1.485,0.6525 -0.8325,0 -0.99,-1.035 -0.99,-2.0025 v -12.9375 h -1.755 v 12.9375 c 0,1.5075 0.585,3.0375 1.9125,3.0375 0.855,0 1.665,-0.4275 2.3175,-1.0125 z"
         style="font-size:22.5px;line-height:1.25"
         id="path173" />
      <path
         d="m 156.21448,34.477309 v -1.125 h -11.25 v 1.125 z"
         style="font-size:22.5px;line-height:1.25"
         id="path175" />
      <path
         d="m 165.30444,24.104809 v -0.945 c -0.72,-1.0125 -1.89,-1.62 -3.15,-1.62 -2.8125,0 -4.7025,2.115 -4.7025,5.2875 0,3.1725 1.89,5.2875 4.7025,5.2875 1.17,0 2.2725,-0.585 2.925,-1.5525 v -0.945 c -0.765,1.1475 -1.5525,1.5525 -2.925,1.5525 -1.62,0 -2.7225,-1.7325 -2.7225,-4.3425 0,-2.61 1.1025,-4.3425 2.7225,-4.3425 1.395,0 2.34,0.495 3.15,1.62 z"
         style="font-size:22.5px;line-height:1.25"
         id="path177" />
      <path
         d="m 171.89691,31.102309 v -0.675 c -0.4275,0.36 -0.9225,0.6525 -1.485,0.6525 -0.8325,0 -0.99,-1.035 -0.99,-2.0025 v -12.9375 h -1.755 v 12.9375 c 0,1.5075 0.585,3.0375 1.9125,3.0375 0.855,0 1.665,-0.4275 2.3175,-1.0125 z"
         style="font-size:22.5px;line-height:1.25"
         id="path179" />
      <path
         d="m 182.85438,31.889809 -5.22,-6.0075 5.04,-4.1175 h -1.395 l -5.3775,4.41 v -10.035 h -1.755 v 15.75 h 1.755 v -5.6025 l 4.86,5.6025 z"
         style="font-size:22.5px;line-height:1.25"
         id="path181" />
      <path
         d="m 194.32936,34.477309 v -1.125 h -11.25 v 1.125 z"
         style="font-size:22.5px;line-height:1.25"
         id="path183" />
      <path
         d="m 204.27431,26.827309 c 0,-3.4425 -1.53,-5.2875 -4.3425,-5.2875 -2.835,0 -4.365,1.845 -4.365,5.2875 0,3.4425 1.53,5.2875 4.365,5.2875 2.8125,0 4.3425,-1.845 4.3425,-5.2875 z m -1.98,0 c 0,2.8125 -0.8325,4.3425 -2.3625,4.3425 -1.5525,0 -2.385,-1.53 -2.385,-4.3425 0,-2.8125 0.8325,-4.3425 2.385,-4.3425 1.53,0 2.3625,1.53 2.3625,4.3425 z"
         style="font-size:22.5px;line-height:1.25"
         id="path185" />
    </g>
    <path
       style="fill:none;stroke:#000000;stroke-width:2;stroke-linecap:butt;stroke-linejoin:miter;stroke-miterlimit:4;stroke-dasharray:none;stroke-opacity:1"
       d="m 216.14174,-46.062888 h 70.86615 l 3.54329,35.43307 h 364.96065"
       id="path3358" />
    <g
       aria-label="chip_select_n_o"
       id="text3360"
       style="line-height:0%;font-family:Iwona;-inkscape-font-specification:Iwona;text-align:end;letter-spacing:0px;word-spacing:0px;text-anchor:end">
      <path
         d="m 63.582285,-29.044727 v -0.945 c -0.72,-1.0125 -1.89,-1.62 -3.15,-1.62 -2.8125,0 -4.7025,2.115 -4.7025,5.2875 0,3.1725 1.89,5.2875 4.7025,5.2875 1.17,0 2.2725,-0.585 2.925,-1.5525 v -0.945 c -0.765,1.1475 -1.5525,1.5525 -2.925,1.5525 -1.62,0 -2.7225,-1.7325 -2.7225,-4.3425 0,-2.61 1.1025,-4.3425 2.7225,-4.3425 1.395,0 2.34,0.495 3.15,1.62 z"
         style="font-size:22.5px;line-height:1.25"
         id="path188" />
      <path
         d="m 74.089761,-21.259727 v -7.3125 c 0,-1.6425 -1.26,-3.0375 -2.88,-3.0375 -1.35,0 -2.5425,0.765 -3.51,1.71 v -7.11 h -1.755 v 15.75 h 1.755 v -7.9425 c 0.765,-0.765 1.71,-1.3725 2.7675,-1.3725 1.0575,0 1.8675,0.9225 1.8675,2.0025 v 7.3125 z"
         style="font-size:22.5px;line-height:1.25"
         id="path190" />
      <path
         d="m 81.694724,-22.047227 v -0.675 c -0.4275,0.36 -0.9225,0.6525 -1.485,0.6525 -0.8325,0 -0.99,-1.035 -0.99,-2.0025 v -7.3125 h -1.755 v 7.3125 c 0,1.5075 0.585,3.0375 1.9125,3.0375 0.855,0 1.665,-0.4275 2.3175,-1.0125 z m -2.25,-12.8475 c 0,-0.6075 -0.495,-1.1025 -1.1025,-1.1025 -0.6075,0 -1.1025,0.495 -1.1025,1.1025 0,0.6075 0.495,1.1025 1.1025,1.1025 0.6075,0 1.1025,-0.495 1.1025,-1.1025 z"
         style="font-size:22.5px;line-height:1.25"
         id="path192" />
      <path
         d="m 92.539701,-26.322227 c 0,-2.9925 -1.125,-5.2875 -3.8475,-5.2875 -1.1475,0 -2.205,0.5175 -3.105,1.2375 v -1.0125 h -1.755 v 15.3 h 1.755 v -5.5575 c 0.8775,0.3825 1.8225,0.6075 2.7675,0.6075 2.8125,0 4.185,-2.25 4.185,-5.2875 z m -1.98,0 c 0,2.115 -0.6525,4.3425 -2.4975,4.3425 -0.855,0 -1.71,-0.225 -2.475,-0.6075 v -6.84 c 0.675,-0.675 1.5075,-1.2375 2.475,-1.2375 2.0475,0 2.4975,1.98 2.4975,4.3425 z"
         style="font-size:22.5px;line-height:1.25"
         id="path194" />
      <path
         d="m 105.02716,-18.672227 v -1.125 H 93.777163 v 1.125 z"
         style="font-size:22.5px;line-height:1.25"
         id="path196" />
      <path
         d="m 113.66712,-24.139727 c 0,-1.7775 -1.89,-2.7 -3.735,-3.15 -1.08,-0.27 -2.25,-0.72 -2.25,-1.7775 0,-0.9675 0.99,-1.5975 2.07,-1.5975 1.1925,0 2.385,0.36 3.375,1.0125 v -0.945 c -0.99,-0.6525 -2.1825,-1.0125 -3.375,-1.0125 -1.9575,0 -3.7575,1.1925 -3.7575,3.015 0,1.6425 1.8225,2.4075 3.555,2.835 1.1925,0.2925 2.43,0.9225 2.43,2.07 0,1.0575 -1.08,1.71 -2.2275,1.71 -1.395,0 -2.745,-0.3375 -3.9375,-1.0125 v 0.945 c 1.1925,0.675 2.5425,1.0125 3.9375,1.0125 2.025,0 3.915,-1.215 3.915,-3.105 z"
         style="font-size:22.5px;line-height:1.25"
         id="path198" />
      <path
         d="m 124.62459,-26.097227 v -0.225 c 0,-3.1725 -1.7325,-5.2875 -4.3425,-5.2875 -2.6325,0 -4.365,2.115 -4.365,5.2875 0,3.1725 1.7325,5.2875 4.365,5.2875 1.125,0 2.2275,-0.36 3.15,-1.0125 v -0.945 c -1.0575,0.675 -1.9125,0.9225 -3.15,0.9225 -1.9125,0 -2.385,-1.8225 -2.385,-4.0275 z m -1.98,-0.945 h -4.7475 c 0,-1.8 0.765,-3.6225 2.385,-3.6225 1.5975,0 2.3625,1.8225 2.3625,3.6225 z"
         style="font-size:22.5px;line-height:1.25"
         id="path200" />
      <path
         d="m 131.77956,-22.047227 v -0.675 c -0.4275,0.36 -0.9225,0.6525 -1.485,0.6525 -0.8325,0 -0.99,-1.035 -0.99,-2.0025 v -12.9375 h -1.755 v 12.9375 c 0,1.5075 0.585,3.0375 1.9125,3.0375 0.855,0 1.665,-0.4275 2.3175,-1.0125 z"
         style="font-size:22.5px;line-height:1.25"
         id="path202" />
      <path
         d="m 142.17453,-26.097227 v -0.225 c 0,-3.1725 -1.7325,-5.2875 -4.3425,-5.2875 -2.6325,0 -4.365,2.115 -4.365,5.2875 0,3.1725 1.7325,5.2875 4.365,5.2875 1.125,0 2.2275,-0.36 3.15,-1.0125 v -0.945 c -1.0575,0.675 -1.9125,0.9225 -3.15,0.9225 -1.9125,0 -2.385,-1.8225 -2.385,-4.0275 z m -1.98,-0.945 h -4.7475 c 0,-1.8 0.765,-3.6225 2.385,-3.6225 1.5975,0 2.3625,1.8225 2.3625,3.6225 z"
         style="font-size:22.5px;line-height:1.25"
         id="path204" />
      <path
         d="m 152.3895,-29.044727 v -0.945 c -0.72,-1.0125 -1.89,-1.62 -3.15,-1.62 -2.8125,0 -4.7025,2.115 -4.7025,5.2875 0,3.1725 1.89,5.2875 4.7025,5.2875 1.17,0 2.2725,-0.585 2.925,-1.5525 v -0.945 c -0.765,1.1475 -1.5525,1.5525 -2.925,1.5525 -1.62,0 -2.7225,-1.7325 -2.7225,-4.3425 0,-2.61 1.1025,-4.3425 2.7225,-4.3425 1.395,0 2.34,0.495 3.15,1.62 z"
         style="font-size:22.5px;line-height:1.25"
         id="path206" />
      <path
         d="m 159.52197,-22.047227 v -0.675 c -0.36,0.36 -0.7875,0.6525 -1.305,0.6525 -0.81,0 -0.855,-1.0575 -0.855,-2.0025 v -6.3675 h 2.16 v -0.945 h -2.16 v -3.375 h -1.0575 c 0,1.8 -1.035,3.4875 -2.6775,3.4875 v 0.8325 h 1.98 v 6.3675 c 0,1.485 0.4725,3.0375 1.755,3.0375 0.8325,0 1.5525,-0.45 2.16,-1.0125 z"
         style="font-size:22.5px;line-height:1.25"
         id="path208" />
      <path
         d="m 171.44694,-18.672227 v -1.125 h -11.25 v 1.125 z"
         style="font-size:22.5px;line-height:1.25"
         id="path210" />
      <path
         d="m 181.3919,-21.259727 v -7.3125 c 0,-1.6425 -1.26,-3.0375 -2.88,-3.0375 -1.35,0 -2.5425,0.765 -3.51,1.71 v -1.485 h -1.755 v 10.125 h 1.755 v -7.9425 c 0.765,-0.765 1.71,-1.3725 2.7675,-1.3725 1.0575,0 1.8675,0.9225 1.8675,2.0025 v 7.3125 z"
         style="font-size:22.5px;line-height:1.25"
         id="path212" />
      <path
         d="m 194.32935,-18.672227 v -1.125 h -11.25 v 1.125 z"
         style="font-size:22.5px;line-height:1.25"
         id="path214" />
      <path
         d="m 204.27432,-26.322227 c 0,-3.4425 -1.53,-5.2875 -4.3425,-5.2875 -2.835,0 -4.365,1.845 -4.365,5.2875 0,3.4425 1.53,5.2875 4.365,5.2875 2.8125,0 4.3425,-1.845 4.3425,-5.2875 z m -1.98,0 c 0,2.8125 -0.8325,4.3425 -2.3625,4.3425 -1.5525,0 -2.385,-1.53 -2.385,-4.3425 0,-2.8125 0.8325,-4.3425 2.385,-4.3425 1.53,0 2.3625,1.53 2.3625,4.3425 z"
         style="font-size:22.5px;line-height:1.25"
         id="path216" />
    </g>
    <path
       id="path3371"
       d="m 1048.8189,-10.629823 -35.4331,9.3e-5 -3.5433,-35.433071 -74.40943,-8.7e-5 -3.54329,35.43307 h -251.5748"
       style="fill:none;stroke:#000000;stroke-width:2;stroke-linecap:butt;stroke-linejoin:miter;stroke-miterlimit:4;stroke-dasharray:none;stroke-opacity:1" />
    <g
       aria-label="serial_data_o"
       id="text4191"
       style="line-height:0%;font-family:Iwona;-inkscape-font-specification:Iwona;text-align:end;letter-spacing:0px;word-spacing:0px;text-anchor:end">
      <path
         d="m 85.497144,82.159467 c 0,-1.7775 -1.89,-2.7 -3.735,-3.15 -1.08,-0.27 -2.25,-0.72 -2.25,-1.7775 0,-0.9675 0.99,-1.5975 2.07,-1.5975 1.1925,0 2.385,0.36 3.375,1.0125 v -0.945 c -0.99,-0.6525 -2.1825,-1.0125 -3.375,-1.0125 -1.9575,0 -3.7575,1.1925 -3.7575,3.015 0,1.6425 1.8225,2.4075 3.555,2.835 1.1925,0.2925 2.43,0.9225 2.43,2.07 0,1.0575 -1.08,1.71 -2.2275,1.71 -1.395,0 -2.745,-0.3375 -3.9375,-1.0125 v 0.945 c 1.1925,0.675 2.5425,1.0125 3.9375,1.0125 2.025,0 3.915,-1.215 3.915,-3.105 z"
         style="font-size:22.5px;line-height:1.25"
         id="path219" />
      <path
         d="m 96.454621,80.201967 v -0.225 c 0,-3.1725 -1.7325,-5.2875 -4.3425,-5.2875 -2.6325,0 -4.365,2.115 -4.365,5.2875 0,3.1725 1.7325,5.2875 4.365,5.2875 1.125,0 2.2275,-0.36 3.15,-1.0125 v -0.945 c -1.0575,0.675 -1.9125,0.9225 -3.15,0.9225 -1.9125,0 -2.385,-1.8225 -2.385,-4.0275 z m -1.98,-0.945 h -4.7475 c 0,-1.8 0.765,-3.6225 2.385,-3.6225 1.5975,0 2.3625,1.8225 2.3625,3.6225 z"
         style="font-size:22.5px;line-height:1.25"
         id="path221" />
      <path
         d="m 104.98209,76.309467 v -1.395 c -0.2475,-0.09 -0.5175,-0.1575 -0.765,-0.1575 -1.26,0 -2.2725,0.8775 -3.0825,1.845 v -1.6875 h -1.754999 v 10.125 h 1.754999 v -7.4925 c 0.675,-0.7875 1.53,-1.4625 2.565,-1.4625 0.4275,0 0.8775,0.09 1.2825,0.225 z"
         style="font-size:22.5px;line-height:1.25"
         id="path223" />
      <path
         d="m 111.34957,84.251967 v -0.675 c -0.4275,0.36 -0.9225,0.6525 -1.485,0.6525 -0.8325,0 -0.99,-1.035 -0.99,-2.0025 v -7.3125 h -1.755 v 7.3125 c 0,1.5075 0.585,3.0375 1.9125,3.0375 0.855,0 1.665,-0.4275 2.3175,-1.0125 z m -2.25,-12.8475 c 0,-0.6075 -0.495,-1.1025 -1.1025,-1.1025 -0.6075,0 -1.1025,0.495 -1.1025,1.1025 0,0.6075 0.495,1.1025 1.1025,1.1025 0.6075,0 1.1025,-0.495 1.1025,-1.1025 z"
         style="font-size:22.5px;line-height:1.25"
         id="path225" />
      <path
         d="m 121.51955,85.039467 v -6.3 c 0,-2.115 -1.305,-4.05 -3.2625,-4.05 -1.44,0 -2.79,0.495 -4.005,1.26 v 0.6975 c 1.0125,-0.5625 2.1375,-0.9225 3.3075,-0.9225 1.395,0 2.205,1.485 2.205,3.015 v 0.405 c -0.8775,-0.3825 -1.8225,-0.6075 -2.7675,-0.6075 -2.4075,0 -4.185,1.1025 -4.185,3.375 0,2.16 1.575,3.3525 3.8475,3.3525 1.1475,0 2.205,-0.5175 3.105,-1.2375 v 1.0125 z m -1.755,-1.9575 c -0.675,0.675 -1.5075,1.2375 -2.475,1.2375 -1.5075,0 -2.4975,-0.9225 -2.4975,-2.4075 0,-1.3725 1.125,-2.43 2.4975,-2.43 0.855,0 1.71,0.225 2.475,0.6075 z"
         style="font-size:22.5px;line-height:1.25"
         id="path227" />
      <path
         d="m 129.34953,84.251967 v -0.675 c -0.4275,0.36 -0.9225,0.6525 -1.485,0.6525 -0.8325,0 -0.99,-1.035 -0.99,-2.0025 v -12.9375 h -1.755 v 12.9375 c 0,1.5075 0.585,3.0375 1.9125,3.0375 0.855,0 1.665,-0.4275 2.3175,-1.0125 z"
         style="font-size:22.5px;line-height:1.25"
         id="path229" />
      <path
         d="m 141.04949,87.626967 v -1.125 h -11.25 v 1.125 z"
         style="font-size:22.5px;line-height:1.25"
         id="path231" />
      <path
         d="m 150.99444,85.039467 v -15.75 h -1.755 v 6.0075 c -0.8775,-0.3825 -1.8225,-0.6075 -2.7675,-0.6075 -2.8125,0 -4.185,2.25 -4.185,5.2875 0,2.9925 1.125,5.2875 3.8475,5.2875 1.1475,0 2.205,-0.5175 3.105,-1.2375 v 1.0125 z m -1.755,-1.9575 c -0.675,0.675 -1.5075,1.2375 -2.475,1.2375 -2.0475,0 -2.4975,-1.98 -2.4975,-4.3425 0,-2.115 0.6525,-4.3425 2.4975,-4.3425 0.855,0 1.71,0.225 2.475,0.6075 z"
         style="font-size:22.5px;line-height:1.25"
         id="path233" />
      <path
         d="m 162.51443,85.039467 v -6.3 c 0,-2.115 -1.305,-4.05 -3.2625,-4.05 -1.44,0 -2.79,0.495 -4.005,1.26 v 0.6975 c 1.0125,-0.5625 2.1375,-0.9225 3.3075,-0.9225 1.395,0 2.205,1.485 2.205,3.015 v 0.405 c -0.8775,-0.3825 -1.8225,-0.6075 -2.7675,-0.6075 -2.4075,0 -4.185,1.1025 -4.185,3.375 0,2.16 1.575,3.3525 3.8475,3.3525 1.1475,0 2.205,-0.5175 3.105,-1.2375 v 1.0125 z m -1.755,-1.9575 c -0.675,0.675 -1.5075,1.2375 -2.475,1.2375 -1.5075,0 -2.4975,-0.9225 -2.4975,-2.4075 0,-1.3725 1.125,-2.43 2.4975,-2.43 0.855,0 1.71,0.225 2.475,0.6075 z"
         style="font-size:22.5px;line-height:1.25"
         id="path235" />
      <path
         d="m 170.88441,84.251967 v -0.675 c -0.36,0.36 -0.7875,0.6525 -1.305,0.6525 -0.81,0 -0.855,-1.0575 -0.855,-2.0025 v -6.3675 h 2.16 v -0.945 h -2.16 v -3.375 h -1.0575 c 0,1.8 -1.035,3.4875 -2.6775,3.4875 v 0.8325 h 1.98 v 6.3675 c 0,1.485 0.4725,3.0375 1.755,3.0375 0.8325,0 1.5525,-0.45 2.16,-1.0125 z"
         style="font-size:22.5px;line-height:1.25"
         id="path237" />
      <path
         d="m 181.27938,85.039467 v -6.3 c 0,-2.115 -1.305,-4.05 -3.2625,-4.05 -1.44,0 -2.79,0.495 -4.005,1.26 v 0.6975 c 1.0125,-0.5625 2.1375,-0.9225 3.3075,-0.9225 1.395,0 2.205,1.485 2.205,3.015 v 0.405 c -0.8775,-0.3825 -1.8225,-0.6075 -2.7675,-0.6075 -2.4075,0 -4.185,1.1025 -4.185,3.375 0,2.16 1.575,3.3525 3.8475,3.3525 1.1475,0 2.205,-0.5175 3.105,-1.2375 v 1.0125 z m -1.755,-1.9575 c -0.675,0.675 -1.5075,1.2375 -2.475,1.2375 -1.5075,0 -2.4975,-0.9225 -2.4975,-2.4075 0,-1.3725 1.125,-2.43 2.4975,-2.43 0.855,0 1.71,0.225 2.475,0.6075 z"
         style="font-size:22.5px;line-height:1.25"
         id="path239" />
      <path
         d="m 194.32936,87.626967 v -1.125 h -11.25 v 1.125 z"
         style="font-size:22.5px;line-height:1.25"
         id="path241" />
      <path
         d="m 204.27431,79.976967 c 0,-3.4425 -1.53,-5.2875 -4.3425,-5.2875 -2.835,0 -4.365,1.845 -4.365,5.2875 0,3.4425 1.53,5.2875 4.365,5.2875 2.8125,0 4.3425,-1.845 4.3425,-5.2875 z m -1.98,0 c 0,2.8125 -0.8325,4.3425 -2.3625,4.3425 -1.5525,0 -2.385,-1.53 -2.385,-4.3425 0,-2.8125 0.8325,-4.3425 2.385,-4.3425 1.53,0 2.3625,1.53 2.3625,4.3425 z"
         style="font-size:22.5px;line-height:1.25"
         id="path243" />
    </g>
    <g
       id="g6961"
       transform="translate(77.952765,-53.149513)">
      <g
         transform="translate(3.5433451)"
         mask="url(#mask6955)"
         id="g6913">
        <path
           style="fill:none;fill-rule:evenodd;stroke:#000000;stroke-width:1px;stroke-linecap:butt;stroke-linejoin:miter;stroke-opacity:1"
           d="m 403.93696,113.38583 14.17323,14.17323"
           id="path6889" />
        <path
           id="path6891"
           d="m 403.93696,116.92914 14.17323,14.17323"
           style="fill:none;fill-rule:evenodd;stroke:#000000;stroke-width:1px;stroke-linecap:butt;stroke-linejoin:miter;stroke-opacity:1" />
        <path
           id="path6893"
           d="m 403.93696,120.47245 14.17323,14.17323"
           style="fill:none;fill-rule:evenodd;stroke:#000000;stroke-width:1px;stroke-linecap:butt;stroke-linejoin:miter;stroke-opacity:1" />
        <path
           style="fill:none;fill-rule:evenodd;stroke:#000000;stroke-width:1px;stroke-linecap:butt;stroke-linejoin:miter;stroke-opacity:1"
           d="m 403.93696,124.01576 14.17323,14.17323"
           id="path6895" />
        <path
           style="fill:none;fill-rule:evenodd;stroke:#000000;stroke-width:1px;stroke-linecap:butt;stroke-linejoin:miter;stroke-opacity:1"
           d="m 403.93696,127.55906 14.17323,14.17323"
           id="path6897" />
        <path
           id="path6899"
           d="m 403.93696,131.10237 14.17323,14.17323"
           style="fill:none;fill-rule:evenodd;stroke:#000000;stroke-width:1px;stroke-linecap:butt;stroke-linejoin:miter;stroke-opacity:1" />
        <path
           style="fill:none;fill-rule:evenodd;stroke:#000000;stroke-width:1px;stroke-linecap:butt;stroke-linejoin:miter;stroke-opacity:1"
           d="m 403.93696,134.64568 14.17323,14.17323"
           id="path6901" />
        <path
           id="path6903"
           d="m 403.93696,109.84253 14.17323,14.17323"
           style="fill:none;fill-rule:evenodd;stroke:#000000;stroke-width:1px;stroke-linecap:butt;stroke-linejoin:miter;stroke-opacity:1" />
        <path
           style="fill:none;fill-rule:evenodd;stroke:#000000;stroke-width:1px;stroke-linecap:butt;stroke-linejoin:miter;stroke-opacity:1"
           d="m 403.93696,106.29922 14.17323,14.17323"
           id="path6905" />
        <path
           id="path6907"
           d="m 403.93696,102.75591 14.17323,14.17323"
           style="fill:none;fill-rule:evenodd;stroke:#000000;stroke-width:1px;stroke-linecap:butt;stroke-linejoin:miter;stroke-opacity:1" />
        <path
           id="path6909"
           d="m 403.93696,138.18899 14.17323,14.17323"
           style="fill:none;fill-rule:evenodd;stroke:#000000;stroke-width:1px;stroke-linecap:butt;stroke-linejoin:miter;stroke-opacity:1" />
        <path
           style="fill:none;fill-rule:evenodd;stroke:#000000;stroke-width:1px;stroke-linecap:butt;stroke-linejoin:miter;stroke-opacity:1"
           d="m 403.93696,141.7323 14.17323,14.17323"
           id="path6911" />
      </g>
      <path
         id="path6959"
         d="m 421.65349,113.38583 -1.77163,17.71653 1.77163,17.71654"
         style="fill:none;fill-rule:evenodd;stroke:#000000;stroke-width:1px;stroke-linecap:butt;stroke-linejoin:miter;stroke-opacity:1" />
    </g>
    <g
       transform="translate(134.64569,-53.149513)"
       id="g6977">
      <g
         id="g6979"
         mask="url(#mask6955)"
         transform="translate(3.5433451)">
        <path
           id="path6981"
           d="m 403.93696,113.38583 14.17323,14.17323"
           style="fill:none;fill-rule:evenodd;stroke:#000000;stroke-width:1px;stroke-linecap:butt;stroke-linejoin:miter;stroke-opacity:1" />
        <path
           style="fill:none;fill-rule:evenodd;stroke:#000000;stroke-width:1px;stroke-linecap:butt;stroke-linejoin:miter;stroke-opacity:1"
           d="m 403.93696,116.92914 14.17323,14.17323"
           id="path6983" />
        <path
           style="fill:none;fill-rule:evenodd;stroke:#000000;stroke-width:1px;stroke-linecap:butt;stroke-linejoin:miter;stroke-opacity:1"
           d="m 403.93696,120.47245 14.17323,14.17323"
           id="path6985" />
        <path
           id="path6987"
           d="m 403.93696,124.01576 14.17323,14.17323"
           style="fill:none;fill-rule:evenodd;stroke:#000000;stroke-width:1px;stroke-linecap:butt;stroke-linejoin:miter;stroke-opacity:1" />
        <path
           id="path6989"
           d="m 403.93696,127.55906 14.17323,14.17323"
           style="fill:none;fill-rule:evenodd;stroke:#000000;stroke-width:1px;stroke-linecap:butt;stroke-linejoin:miter;stroke-opacity:1" />
        <path
           style="fill:none;fill-rule:evenodd;stroke:#000000;stroke-width:1px;stroke-linecap:butt;stroke-linejoin:miter;stroke-opacity:1"
           d="m 403.93696,131.10237 14.17323,14.17323"
           id="path6991" />
        <path
           id="path6993"
           d="m 403.93696,134.64568 14.17323,14.17323"
           style="fill:none;fill-rule:evenodd;stroke:#000000;stroke-width:1px;stroke-linecap:butt;stroke-linejoin:miter;stroke-opacity:1" />
        <path
           style="fill:none;fill-rule:evenodd;stroke:#000000;stroke-width:1px;stroke-linecap:butt;stroke-linejoin:miter;stroke-opacity:1"
           d="m 403.93696,109.84253 14.17323,14.17323"
           id="path6995" />
        <path
           id="path6997"
           d="m 403.93696,106.29922 14.17323,14.17323"
           style="fill:none;fill-rule:evenodd;stroke:#000000;stroke-width:1px;stroke-linecap:butt;stroke-linejoin:miter;stroke-opacity:1" />
        <path
           style="fill:none;fill-rule:evenodd;stroke:#000000;stroke-width:1px;stroke-linecap:butt;stroke-linejoin:miter;stroke-opacity:1"
           d="m 403.93696,102.75591 14.17323,14.17323"
           id="path6999" />
        <path
           style="fill:none;fill-rule:evenodd;stroke:#000000;stroke-width:1px;stroke-linecap:butt;stroke-linejoin:miter;stroke-opacity:1"
           d="m 403.93696,138.18899 14.17323,14.17323"
           id="path7001" />
        <path
           id="path7003"
           d="m 403.93696,141.7323 14.17323,14.17323"
           style="fill:none;fill-rule:evenodd;stroke:#000000;stroke-width:1px;stroke-linecap:butt;stroke-linejoin:miter;stroke-opacity:1" />
      </g>
      <path
         style="fill:none;fill-rule:evenodd;stroke:#000000;stroke-width:1px;stroke-linecap:butt;stroke-linejoin:miter;stroke-opacity:1"
         d="m 421.65349,113.38583 -1.77163,17.71653 1.77163,17.71654"
         id="path7005" />
    </g>
    <path
       id="path4470"
       style="fill:none;fill-rule:evenodd;stroke:#000000;stroke-width:2;stroke-linecap:butt;stroke-linejoin:miter;stroke-miterlimit:4;stroke-dasharray:none;stroke-opacity:1"
       d="m 487.20474,77.952857 1.77163,17.71653 v 0 h 53.14961 l 3.5433,-35.43307 h 53.14962 l 3.5433,35.43307 h 53.14961" />
    <path
       d="m 216.14175,77.952857 h 79.72441 l 1.77166,17.71653 h 187.79527 l 3.5433,-35.43307 v 0 H 542.126 l 3.5433,35.43307 h 53.14962 l 3.5433,-35.43307 h 53.14961"
       style="fill:none;fill-rule:evenodd;stroke:#000000;stroke-width:2;stroke-linecap:butt;stroke-linejoin:miter;stroke-miterlimit:4;stroke-dasharray:none;stroke-opacity:1"
       id="path4473" />
    <g
       aria-label="D11"
       id="text4487"
       style="line-height:0%;font-family:Iwona;-inkscape-font-specification:Iwona;text-align:center;letter-spacing:0px;word-spacing:0px;text-anchor:middle;stroke-width:1px">
      <path
         d="m 520.42908,78.914467 c 0,-3.745 -2.0475,-6.3 -5.6525,-6.3 -1.085,0 -2.17,0.0525 -3.2375,0.175 h -1.4 v 12.25 h 1.4 c 1.0675,0.1225 2.1525,0.175 3.2375,0.175 3.605,0 5.6525,-2.555 5.6525,-6.3 z m -1.715,0 c 0,2.7825 -1.4175,5.495 -3.9375,5.495 -1.0675,0 -2.135,-0.0525 -3.2025,-0.175 v -10.64 c 1.0675,-0.1225 2.135,-0.175 3.2025,-0.175 2.52,0 3.9375,2.7125 3.9375,5.495 z"
         style="font-size:17.5px;line-height:1.25"
         id="path246" />
      <path
         d="m 525.23282,88.539467 v -7.84875 h -0.65975 c -0.62563,0.716625 -1.365,1.330875 -2.184,1.808625 v 0.47775 c 0.69387,-0.329875 1.34225,-0.716625 1.9565,-1.183 v 6.745375 z"
         style="font-size:65%;baseline-shift:sub"
         id="path248" />
      <path
         d="m 531.20469,88.539467 v -7.84875 h -0.65975 c -0.62563,0.716625 -1.365,1.330875 -2.184,1.808625 v 0.47775 c 0.69387,-0.329875 1.34225,-0.716625 1.9565,-1.183 v 6.745375 z"
         style="font-size:65%;baseline-shift:sub"
         id="path250" />
    </g>
    <g
       aria-label="D10"
       id="text4493"
       style="line-height:0%;font-family:Iwona;-inkscape-font-specification:Iwona;text-align:center;letter-spacing:0px;word-spacing:0px;text-anchor:middle;stroke-width:1px">
      <path
         d="m 577.12195,78.914467 c 0,-3.745 -2.0475,-6.3 -5.6525,-6.3 -1.085,0 -2.17,0.0525 -3.2375,0.175 h -1.4 v 12.25 h 1.4 c 1.0675,0.1225 2.1525,0.175 3.2375,0.175 3.605,0 5.6525,-2.555 5.6525,-6.3 z m -1.715,0 c 0,2.7825 -1.4175,5.495 -3.9375,5.495 -1.0675,0 -2.135,-0.0525 -3.2025,-0.175 v -10.64 c 1.0675,-0.1225 2.135,-0.175 3.2025,-0.175 2.52,0 3.9375,2.7125 3.9375,5.495 z"
         style="font-size:17.5px;line-height:1.25"
         id="path253" />
      <path
         d="m 581.92569,88.539467 v -7.84875 h -0.65975 c -0.62563,0.716625 -1.365,1.330875 -2.184,1.808625 v 0.47775 c 0.69387,-0.329875 1.34225,-0.716625 1.9565,-1.183 v 6.745375 z"
         style="font-size:65%;baseline-shift:sub"
         id="path255" />
      <path
         d="m 589.62656,84.615092 c 0,-2.695875 -0.83038,-4.038125 -2.49113,-4.038125 -1.66075,0 -2.49112,1.34225 -2.49112,4.038125 0,2.695875 0.83037,4.038125 2.49112,4.038125 1.66075,0 2.49113,-1.34225 2.49113,-4.038125 z m -1.001,0 c 0,2.377375 -0.5005,3.560375 -1.49013,3.560375 -0.98962,0 -1.49012,-1.183 -1.49012,-3.560375 0,-2.377375 0.5005,-3.560375 1.49012,-3.560375 0.98963,0 1.49013,1.183 1.49013,3.560375 z"
         style="font-size:65%;baseline-shift:sub"
         id="path257" />
    </g>
    <g
       aria-label="D9"
       id="text4499"
       style="line-height:0%;font-family:Iwona;-inkscape-font-specification:Iwona;text-align:center;letter-spacing:0px;word-spacing:0px;text-anchor:middle;stroke-width:1px">
      <path
         d="m 636.80082,78.914467 c 0,-3.745 -2.0475,-6.3 -5.6525,-6.3 -1.085,0 -2.17,0.0525 -3.2375,0.175 h -1.4 v 12.25 h 1.4 c 1.0675,0.1225 2.1525,0.175 3.2375,0.175 3.605,0 5.6525,-2.555 5.6525,-6.3 z m -1.715,0 c 0,2.7825 -1.4175,5.495 -3.9375,5.495 -1.0675,0 -2.135,-0.0525 -3.2025,-0.175 v -10.64 c 1.0675,-0.1225 2.135,-0.175 3.2025,-0.175 2.52,0 3.9375,2.7125 3.9375,5.495 z"
         style="font-size:17.5px;line-height:1.25"
         id="path260" />
      <path
         d="m 643.25393,84.615092 c 0,-2.821 -0.728,-4.038125 -2.4115,-4.038125 -1.456,0 -2.42287,1.06925 -2.42287,2.673125 0,1.638 0.64837,2.673125 2.17262,2.673125 0.65975,0 1.274,-0.307125 1.66075,-0.830375 0,1.490125 -0.37537,3.082625 -1.66075,3.082625 -0.58012,0 -1.14887,-0.193375 -1.60387,-0.557375 v 0.47775 c 0.455,0.364 1.02375,0.557375 1.60387,0.557375 1.78588,0 2.66175,-2.02475 2.66175,-4.038125 z m -1.001,0 c -0.38675,0.52325 -1.001,0.830375 -1.66075,0.830375 -0.91,0 -1.17162,-1.1375 -1.17162,-2.195375 0,-1.3195 0.56875,-2.195375 1.42187,-2.195375 1.58113,0 1.4105,1.717625 1.4105,3.560375 z"
         style="font-size:65%;baseline-shift:sub"
         id="path262" />
    </g>
    <path
       id="path4558"
       style="fill:none;stroke:#000000;stroke-width:2;stroke-linecap:butt;stroke-linejoin:miter;stroke-miterlimit:4;stroke-dasharray:none;stroke-opacity:1"
       d="m 680.31498,42.519792 h 24.80315 l 3.54331,-35.4330698 h 24.80315 l 3.5433,35.4330698 h 24.80315 l 3.54331,-35.4330698 h 24.80315 l 3.5433,35.4330698 h 24.80316 l 3.54331,-35.4330698 h 24.80315 l 3.5433,35.4330698 h 24.80314 l 3.5433,-35.4330698 h 24.80323 l 3.5433,35.4330698 h 24.8031 l 3.5433,-35.4330698 102.75591,-10e-6 3.5433,35.4330708 h 7.0866" />
    <g
       aria-label="D3"
       id="text4560"
       style="line-height:0%;font-family:Iwona;-inkscape-font-specification:Iwona;text-align:center;letter-spacing:0px;word-spacing:0px;text-anchor:middle;stroke-width:1px">
      <path
         d="m 708.8104,78.914467 c 0,-3.745 -2.0475,-6.3 -5.6525,-6.3 -1.085,0 -2.17,0.0525 -3.2375,0.175 h -1.4 v 12.25 h 1.4 c 1.0675,0.1225 2.1525,0.175 3.2375,0.175 3.605,0 5.6525,-2.555 5.6525,-6.3 z m -1.715,0 c 0,2.7825 -1.4175,5.495 -3.9375,5.495 -1.0675,0 -2.135,-0.0525 -3.2025,-0.175 v -10.64 c 1.0675,-0.1225 2.135,-0.175 3.2025,-0.175 2.52,0 3.9375,2.7125 3.9375,5.495 z"
         style="font-size:17.5px;line-height:1.25"
         id="path265" />
      <path
         d="m 715.26351,86.378217 c 0,-1.001 -0.70525,-1.8655 -1.6835,-2.16125 0.8645,-0.25025 1.39913,-0.898625 1.39913,-1.763125 0,-1.126125 -0.91,-1.876875 -2.275,-1.876875 -0.73938,0 -1.456,0.25025 -2.03613,0.70525 v 0.47775 c 0.58013,-0.455 1.29675,-0.70525 2.03613,-0.70525 0.83037,0 1.38775,0.557375 1.38775,1.399125 0,1.353625 -0.62563,1.70625 -2.0475,1.70625 v 0.420875 c 1.53562,0 2.21812,0.364 2.21812,1.79725 0,0.989625 -0.637,1.79725 -1.4105,1.79725 -0.8645,0 -1.70625,-0.25025 -2.42287,-0.70525 v 0.47775 c 0.71662,0.455 1.55837,0.70525 2.42287,0.70525 1.3195,0 2.4115,-1.02375 2.4115,-2.275 z"
         style="font-size:65%;baseline-shift:sub"
         id="path267" />
    </g>
    <g
       aria-label="D2"
       id="text4566"
       style="line-height:0%;font-family:Iwona;-inkscape-font-specification:Iwona;text-align:center;letter-spacing:0px;word-spacing:0px;text-anchor:middle;stroke-width:1px">
      <path
         d="m 771.44651,78.914467 c 0,-3.745 -2.0475,-6.3 -5.6525,-6.3 -1.085,0 -2.17,0.0525 -3.2375,0.175 h -1.4 v 12.25 h 1.4 c 1.0675,0.1225 2.1525,0.175 3.2375,0.175 3.605,0 5.6525,-2.555 5.6525,-6.3 z m -1.715,0 c 0,2.7825 -1.4175,5.495 -3.9375,5.495 -1.0675,0 -2.135,-0.0525 -3.2025,-0.175 v -10.64 c 1.0675,-0.1225 2.135,-0.175 3.2025,-0.175 2.52,0 3.9375,2.7125 3.9375,5.495 z"
         style="font-size:17.5px;line-height:1.25"
         id="path270" />
      <path
         d="m 777.89962,88.539467 v -0.70525 h -4.01537 l 2.093,-2.07025 c 0.93275,-0.93275 1.80862,-2.02475 1.80862,-3.34425 0,-1.11475 -1.10337,-1.84275 -2.29775,-1.84275 -0.89862,0 -1.75175,0.4095 -2.30912,1.103375 v 0.47775 c 0.58012,-0.671125 1.42187,-1.057875 2.30912,-1.057875 0.76213,0 1.4105,0.56875 1.4105,1.3195 0,1.126125 -0.52325,2.172625 -1.29675,2.98025 l -2.53662,2.604875 v 0.534625 z"
         style="font-size:65%;baseline-shift:sub"
         id="path272" />
    </g>
    <g
       aria-label="D1"
       id="text4572"
       style="line-height:0%;font-family:Iwona;-inkscape-font-specification:Iwona;text-align:center;letter-spacing:0px;word-spacing:0px;text-anchor:middle;stroke-width:1px">
      <path
         d="m 828.96409,78.914467 c 0,-3.745 -2.0475,-6.3 -5.6525,-6.3 -1.085,0 -2.17,0.0525 -3.2375,0.175 h -1.4 v 12.25 h 1.4 c 1.0675,0.1225 2.1525,0.175 3.2375,0.175 3.605,0 5.6525,-2.555 5.6525,-6.3 z m -1.715,0 c 0,2.7825 -1.4175,5.495 -3.9375,5.495 -1.0675,0 -2.135,-0.0525 -3.2025,-0.175 v -10.64 c 1.0675,-0.1225 2.135,-0.175 3.2025,-0.175 2.52,0 3.9375,2.7125 3.9375,5.495 z"
         style="font-size:17.5px;line-height:1.25"
         id="path275" />
      <path
         d="m 833.76782,88.539467 v -7.84875 h -0.65975 c -0.62562,0.716625 -1.365,1.330875 -2.184,1.808625 v 0.47775 c 0.69388,-0.329875 1.34225,-0.716625 1.9565,-1.183 v 6.745375 z"
         style="font-size:65%;baseline-shift:sub"
         id="path277" />
    </g>
    <g
       aria-label="D0"
       id="text4578"
       style="line-height:0%;font-family:Iwona;-inkscape-font-specification:Iwona;text-align:center;letter-spacing:0px;word-spacing:0px;text-anchor:middle;stroke-width:1px">
      <path
         d="m 884.79258,78.914467 c 0,-3.745 -2.0475,-6.3 -5.6525,-6.3 -1.085,0 -2.17,0.0525 -3.2375,0.175 h -1.4 v 12.25 h 1.4 c 1.0675,0.1225 2.1525,0.175 3.2375,0.175 3.605,0 5.6525,-2.555 5.6525,-6.3 z m -1.715,0 c 0,2.7825 -1.4175,5.495 -3.9375,5.495 -1.0675,0 -2.135,-0.0525 -3.2025,-0.175 v -10.64 c 1.0675,-0.1225 2.135,-0.175 3.2025,-0.175 2.52,0 3.9375,2.7125 3.9375,5.495 z"
         style="font-size:17.5px;line-height:1.25"
         id="path280" />
      <path
         d="m 891.32532,84.615092 c 0,-2.695875 -0.83038,-4.038125 -2.49113,-4.038125 -1.66075,0 -2.49112,1.34225 -2.49112,4.038125 0,2.695875 0.83037,4.038125 2.49112,4.038125 1.66075,0 2.49113,-1.34225 2.49113,-4.038125 z m -1.001,0 c 0,2.377375 -0.5005,3.560375 -1.49013,3.560375 -0.98962,0 -1.49012,-1.183 -1.49012,-3.560375 0,-2.377375 0.5005,-3.560375 1.49012,-3.560375 0.98963,0 1.49013,1.183 1.49013,3.560375 z"
         style="font-size:65%;baseline-shift:sub"
         id="path282" />
    </g>
    <path
       d="m 680.31496,60.236317 h 53.14961 l 3.5433,35.43307 h 53.14961 l 3.5433,-35.43307 v 0 h 53.14961 l 3.5433,35.43307 h 53.14969 l 1.77159,-17.71653 113.38583,-3e-5 1.7717,17.716563 h 28.3464"
       style="fill:none;fill-rule:evenodd;stroke:#000000;stroke-width:2;stroke-linecap:butt;stroke-linejoin:miter;stroke-miterlimit:4;stroke-dasharray:none;stroke-opacity:1"
       id="path4590" />
    <path
       id="path4592"
       style="fill:none;fill-rule:evenodd;stroke:#000000;stroke-width:2;stroke-linecap:butt;stroke-linejoin:miter;stroke-miterlimit:4;stroke-dasharray:none;stroke-opacity:1"
       d="m 680.31496,95.669387 h 53.14961 l 3.5433,-35.43307 h 53.14961 l 3.5433,35.43307 v 0 h 53.14961 l 3.5433,-35.43307 h 53.14969 l 1.77159,17.71654" />
    <g
       aria-label="data_o"
       id="text4623"
       style="line-height:0%;font-family:Iwona;-inkscape-font-specification:Iwona;text-align:end;letter-spacing:0px;word-spacing:0px;text-anchor:end">
      <path
         d="m 150.99444,138.18907 v -15.75 h -1.755 v 6.0075 c -0.8775,-0.3825 -1.8225,-0.6075 -2.7675,-0.6075 -2.8125,0 -4.185,2.25 -4.185,5.2875 0,2.9925 1.125,5.2875 3.8475,5.2875 1.1475,0 2.205,-0.5175 3.105,-1.2375 v 1.0125 z m -1.755,-1.9575 c -0.675,0.675 -1.5075,1.2375 -2.475,1.2375 -2.0475,0 -2.4975,-1.98 -2.4975,-4.3425 0,-2.115 0.6525,-4.3425 2.4975,-4.3425 0.855,0 1.71,0.225 2.475,0.6075 z"
         style="font-size:22.5px;line-height:1.25"
         id="path285" />
      <path
         d="m 162.51443,138.18907 v -6.3 c 0,-2.115 -1.305,-4.05 -3.2625,-4.05 -1.44,0 -2.79,0.495 -4.005,1.26 v 0.6975 c 1.0125,-0.5625 2.1375,-0.9225 3.3075,-0.9225 1.395,0 2.205,1.485 2.205,3.015 v 0.405 c -0.8775,-0.3825 -1.8225,-0.6075 -2.7675,-0.6075 -2.4075,0 -4.185,1.1025 -4.185,3.375 0,2.16 1.575,3.3525 3.8475,3.3525 1.1475,0 2.205,-0.5175 3.105,-1.2375 v 1.0125 z m -1.755,-1.9575 c -0.675,0.675 -1.5075,1.2375 -2.475,1.2375 -1.5075,0 -2.4975,-0.9225 -2.4975,-2.4075 0,-1.3725 1.125,-2.43 2.4975,-2.43 0.855,0 1.71,0.225 2.475,0.6075 z"
         style="font-size:22.5px;line-height:1.25"
         id="path287" />
      <path
         d="m 170.88441,137.40157 v -0.675 c -0.36,0.36 -0.7875,0.6525 -1.305,0.6525 -0.81,0 -0.855,-1.0575 -0.855,-2.0025 v -6.3675 h 2.16 v -0.945 h -2.16 v -3.375 h -1.0575 c 0,1.8 -1.035,3.4875 -2.6775,3.4875 v 0.8325 h 1.98 v 6.3675 c 0,1.485 0.4725,3.0375 1.755,3.0375 0.8325,0 1.5525,-0.45 2.16,-1.0125 z"
         style="font-size:22.5px;line-height:1.25"
         id="path289" />
      <path
         d="m 181.27938,138.18907 v -6.3 c 0,-2.115 -1.305,-4.05 -3.2625,-4.05 -1.44,0 -2.79,0.495 -4.005,1.26 v 0.6975 c 1.0125,-0.5625 2.1375,-0.9225 3.3075,-0.9225 1.395,0 2.205,1.485 2.205,3.015 v 0.405 c -0.8775,-0.3825 -1.8225,-0.6075 -2.7675,-0.6075 -2.4075,0 -4.185,1.1025 -4.185,3.375 0,2.16 1.575,3.3525 3.8475,3.3525 1.1475,0 2.205,-0.5175 3.105,-1.2375 v 1.0125 z m -1.755,-1.9575 c -0.675,0.675 -1.5075,1.2375 -2.475,1.2375 -1.5075,0 -2.4975,-0.9225 -2.4975,-2.4075 0,-1.3725 1.125,-2.43 2.4975,-2.43 0.855,0 1.71,0.225 2.475,0.6075 z"
         style="font-size:22.5px;line-height:1.25"
         id="path291" />
      <path
         d="m 194.32936,140.77657 v -1.125 h -11.25 v 1.125 z"
         style="font-size:22.5px;line-height:1.25"
         id="path293" />
      <path
         d="m 204.27432,133.12657 c 0,-3.4425 -1.53,-5.2875 -4.3425,-5.2875 -2.835,0 -4.365,1.845 -4.365,5.2875 0,3.4425 1.53,5.2875 4.365,5.2875 2.8125,0 4.3425,-1.845 4.3425,-5.2875 z m -1.98,0 c 0,2.8125 -0.8325,4.3425 -2.3625,4.3425 -1.5525,0 -2.385,-1.53 -2.385,-4.3425 0,-2.8125 0.8325,-4.3425 2.385,-4.3425 1.53,0 2.3625,1.53 2.3625,4.3425 z"
         style="font-size:22.5px;line-height:1.25"
         id="path295" />
    </g>
    <path
       style="fill:none;stroke:#000000;stroke-width:2;stroke-linecap:butt;stroke-linejoin:miter;stroke-miterlimit:4;stroke-dasharray:none;stroke-opacity:1"
       d="m 216.14175,113.38593 h 325.98424 l 3.54329,35.43307 h 53.14962 l 3.54331,-35.43307 h 53.1496"
       id="path4631" />
    <path
       id="path4633"
       d="m 216.14175,148.819 h 325.98424 l 3.54329,-35.43307 h 53.14962 l 3.54331,35.43307 h 53.1496"
       style="fill:none;stroke:#000000;stroke-width:2;stroke-linecap:butt;stroke-linejoin:miter;stroke-miterlimit:4;stroke-dasharray:none;stroke-opacity:1" />
    <g
       aria-label="D15..0"
       id="text4635"
       style="line-height:0%;font-family:Iwona;-inkscape-font-specification:Iwona;letter-spacing:0px;word-spacing:0px;stroke-width:1px">
      <path
         d="m 929.75661,132.06407 c 0,-3.745 -2.0475,-6.3 -5.6525,-6.3 -1.085,0 -2.17,0.0525 -3.2375,0.175 h -1.4 v 12.25 h 1.4 c 1.0675,0.1225 2.1525,0.175 3.2375,0.175 3.605,0 5.6525,-2.555 5.6525,-6.3 z m -1.715,0 c 0,2.7825 -1.4175,5.495 -3.9375,5.495 -1.0675,0 -2.135,-0.0525 -3.2025,-0.175 v -10.64 c 1.0675,-0.1225 2.135,-0.175 3.2025,-0.175 2.52,0 3.9375,2.7125 3.9375,5.495 z"
         style="font-size:17.5px;line-height:1.25"
         id="path298" />
      <path
         d="m 934.56035,141.68907 v -7.84875 h -0.65975 c -0.62563,0.71663 -1.365,1.33088 -2.184,1.80863 v 0.47775 c 0.69387,-0.32988 1.34225,-0.71663 1.9565,-1.183 v 6.74537 z"
         style="font-size:65%;baseline-shift:sub"
         id="path300" />
      <path
         d="m 942.18159,139.1297 c 0,-1.60388 -0.96687,-2.67313 -2.4115,-2.67313 -0.65975,0 -1.274,0.25025 -1.75175,0.67113 l 0.11375,-2.58213 h 3.822 v -0.70525 h -4.26562 l -0.17063,3.92438 0.47775,0.0228 c 0.43225,-0.53463 1.08063,-0.85313 1.7745,-0.85313 0.84175,0 1.4105,0.87588 1.4105,2.19538 0,1.3195 -0.56875,2.19537 -1.4105,2.19537 -0.87587,0 -1.729,-0.28437 -2.42287,-0.819 v 0.47775 c 0.69387,0.53463 1.547,0.819 2.42287,0.819 1.44463,0 2.4115,-1.06925 2.4115,-2.67312 z"
         style="font-size:65%;baseline-shift:sub"
         id="path302" />
      <path
         d="m 944.52484,141.1317 c 0,-0.30713 -0.25025,-0.55738 -0.55738,-0.55738 -0.30712,0 -0.55737,0.25025 -0.55737,0.55738 0,0.30712 0.25025,0.55737 0.55737,0.55737 0.30713,0 0.55738,-0.25025 0.55738,-0.55737 z"
         style="font-size:65%;baseline-shift:sub"
         id="path304" />
      <path
         d="m 946.95908,141.1317 c 0,-0.30713 -0.25025,-0.55738 -0.55738,-0.55738 -0.30712,0 -0.55737,0.25025 -0.55737,0.55738 0,0.30712 0.25025,0.55737 0.55737,0.55737 0.30713,0 0.55738,-0.25025 0.55738,-0.55737 z"
         style="font-size:65%;baseline-shift:sub"
         id="path306" />
      <path
         d="m 953.10156,137.7647 c 0,-2.69588 -0.83037,-4.03813 -2.49112,-4.03813 -1.66075,0 -2.49113,1.34225 -2.49113,4.03813 0,2.69587 0.83038,4.03812 2.49113,4.03812 1.66075,0 2.49112,-1.34225 2.49112,-4.03812 z m -1.001,0 c 0,2.37737 -0.5005,3.56037 -1.49012,3.56037 -0.98963,0 -1.49013,-1.183 -1.49013,-3.56037 0,-2.37738 0.5005,-3.56038 1.49013,-3.56038 0.98962,0 1.49012,1.183 1.49012,3.56038 z"
         style="font-size:65%;baseline-shift:sub"
         id="path308" />
    </g>
    <path
       style="fill:none;fill-rule:evenodd;stroke:#000000;stroke-width:1;stroke-linecap:butt;stroke-linejoin:miter;stroke-miterlimit:4;stroke-dasharray:1, 1;stroke-dashoffset:0;stroke-opacity:1"
       d="m 655.51183,-63.779525 c 0,0 -3.54331,10.62992 0,17.71654 3.54331,7.08661 3.54331,28.34646 0,35.43307 -3.54331,7.0866199 -4.09146,10.6299199345258 0,17.7165299 4.09146,7.0866201 3.54331,28.3464601 0,35.4330801 -3.54331,7.08661 -3.54331,10.62992 0,17.71653 3.54331,7.08661 3.54331,28.34646 0,35.43308 -3.54331,7.086605 -3.54331,10.629905 0,17.716525 3.54331,7.08661 3.54331,28.34645 0,35.43307 -3.54331,7.08662 -3.54331,10.62992 0,17.71654 3.54331,7.08662 3.54331,28.34646 0,35.43307 -3.54331,7.08661 -3.54331,10.62992 -0.0472,18.09039 3.49615,7.46048 3.05083,27.70178 -0.0994,34.65193 -3.39669,7.49391 0.1466,18.12382 0.14661,18.12383"
       id="path4667" />
    <path
       id="path4669"
       d="m 680.31498,-63.779525 c 0,0 -3.54331,10.62992 0,17.71654 3.54331,7.08661 3.54331,28.34646 0,35.43307 -3.54331,7.0866199 -4.09146,10.6299199345258 0,17.7165299 4.09146,7.0866201 3.54331,28.3464601 0,35.4330801 -3.54331,7.08661 -3.54331,10.62992 0,17.71653 3.54331,7.08661 3.54331,28.34646 0,35.43308 -3.54331,7.086605 -3.54331,10.629905 0,17.716525 3.54331,7.08661 3.54331,28.34645 0,35.43307 -3.54331,7.08662 -3.54331,10.62992 0,17.71654 3.54331,7.08662 3.54331,28.34646 0,35.43307 -3.54331,7.08661 -3.54331,10.62992 -0.0472,18.09039 3.49615,7.46048 3.45979,28.23406 0.0472,35.05922 -3.5433,7.08662 0,17.71653 0,17.71654"
       style="fill:none;fill-rule:evenodd;stroke:#000000;stroke-width:1;stroke-linecap:butt;stroke-linejoin:miter;stroke-miterlimit:4;stroke-dasharray:1, 1;stroke-dashoffset:0;stroke-opacity:1" />
    <path
       style="fill:none;stroke:#000000;stroke-width:2;stroke-linecap:butt;stroke-linejoin:miter;stroke-miterlimit:4;stroke-dasharray:none;stroke-opacity:1"
       d="M 216.14175,201.9686 H 655.51183"
       id="path3451" />
    <path
       style="fill:none;stroke:#000000;stroke-width:2;stroke-linecap:butt;stroke-linejoin:miter;stroke-miterlimit:4;stroke-dasharray:none;stroke-opacity:1"
       d="m 680.31498,201.9686 h 226.77168 l 3.54328,-35.43297 h 99.21256 l 3.5433,35.43317 35.4331,-2e-4"
       id="path3455" />
    <g
       aria-label="valid_o"
       id="text3457"
       style="line-height:0%;font-family:Iwona;-inkscape-font-specification:Iwona;text-align:end;letter-spacing:0px;word-spacing:0px;text-anchor:end">
      <path
         d="m 146.74196,181.21367 h -1.0125 l -3.06,8.415 -2.97,-8.415 h -1.665 l 3.555,10.125 h 1.4625 z"
         style="font-size:22.5px;line-height:1.25"
         id="path311" />
      <path
         d="m 156.68696,191.33867 v -6.3 c 0,-2.115 -1.305,-4.05 -3.2625,-4.05 -1.44,0 -2.79,0.495 -4.005,1.26 v 0.6975 c 1.0125,-0.5625 2.1375,-0.9225 3.3075,-0.9225 1.395,0 2.205,1.485 2.205,3.015 v 0.405 c -0.8775,-0.3825 -1.8225,-0.6075 -2.7675,-0.6075 -2.4075,0 -4.185,1.1025 -4.185,3.375 0,2.16 1.575,3.3525 3.8475,3.3525 1.1475,0 2.205,-0.5175 3.105,-1.2375 v 1.0125 z m -1.755,-1.9575 c -0.675,0.675 -1.5075,1.2375 -2.475,1.2375 -1.5075,0 -2.4975,-0.9225 -2.4975,-2.4075 0,-1.3725 1.125,-2.43 2.4975,-2.43 0.855,0 1.71,0.225 2.475,0.6075 z"
         style="font-size:22.5px;line-height:1.25"
         id="path313" />
      <path
         d="m 164.51694,190.55117 v -0.675 c -0.4275,0.36 -0.9225,0.6525 -1.485,0.6525 -0.8325,0 -0.99,-1.035 -0.99,-2.0025 v -12.9375 h -1.755 v 12.9375 c 0,1.5075 0.585,3.0375 1.9125,3.0375 0.855,0 1.665,-0.4275 2.3175,-1.0125 z"
         style="font-size:22.5px;line-height:1.25"
         id="path315" />
      <path
         d="m 170.8844,190.55117 v -0.675 c -0.4275,0.36 -0.9225,0.6525 -1.485,0.6525 -0.8325,0 -0.99,-1.035 -0.99,-2.0025 v -7.3125 h -1.755 v 7.3125 c 0,1.5075 0.585,3.0375 1.9125,3.0375 0.855,0 1.665,-0.4275 2.3175,-1.0125 z m -2.25,-12.8475 c 0,-0.6075 -0.495,-1.1025 -1.1025,-1.1025 -0.6075,0 -1.1025,0.495 -1.1025,1.1025 0,0.6075 0.495,1.1025 1.1025,1.1025 0.6075,0 1.1025,-0.495 1.1025,-1.1025 z"
         style="font-size:22.5px;line-height:1.25"
         id="path317" />
      <path
         d="m 181.27937,191.33867 v -15.75 h -1.755 v 6.0075 c -0.8775,-0.3825 -1.8225,-0.6075 -2.7675,-0.6075 -2.8125,0 -4.185,2.25 -4.185,5.2875 0,2.9925 1.125,5.2875 3.8475,5.2875 1.1475,0 2.205,-0.5175 3.105,-1.2375 v 1.0125 z m -1.755,-1.9575 c -0.675,0.675 -1.5075,1.2375 -2.475,1.2375 -2.0475,0 -2.4975,-1.98 -2.4975,-4.3425 0,-2.115 0.6525,-4.3425 2.4975,-4.3425 0.855,0 1.71,0.225 2.475,0.6075 z"
         style="font-size:22.5px;line-height:1.25"
         id="path319" />
      <path
         d="m 194.32936,193.92617 v -1.125 h -11.25 v 1.125 z"
         style="font-size:22.5px;line-height:1.25"
         id="path321" />
      <path
         d="m 204.27432,186.27617 c 0,-3.4425 -1.53,-5.2875 -4.3425,-5.2875 -2.835,0 -4.365,1.845 -4.365,5.2875 0,3.4425 1.53,5.2875 4.365,5.2875 2.8125,0 4.3425,-1.845 4.3425,-5.2875 z m -1.98,0 c 0,2.8125 -0.8325,4.3425 -2.3625,4.3425 -1.5525,0 -2.385,-1.53 -2.385,-4.3425 0,-2.8125 0.8325,-4.3425 2.385,-4.3425 1.53,0 2.3625,1.53 2.3625,4.3425 z"
         style="font-size:22.5px;line-height:1.25"
         id="path323" />
    </g>
    <path
       id="path3800"
       style="fill:none;stroke:#000000;stroke-width:2;stroke-linecap:butt;stroke-linejoin:miter;stroke-miterlimit:4;stroke-dasharray:none;stroke-opacity:1"
       d="m 216.14174,7.0867122 h 99.21261 l 3.54331,35.4330698 h 24.80315 l 3.5433,-35.4330698 h 24.80315 l 3.54331,35.4330698 h 24.80315 l 3.5433,-35.4330698 h 24.80316 l 3.54331,35.4330698 h 24.80315 l 3.5433,-35.4330698 h 24.80315 l 3.54331,35.4330698 h 24.80315 l 3.5433,-35.4330698 H 542.126 l 3.54332,35.4330698 h 24.80311 L 574.0157,7.0867122 h 24.80323 l 3.5433,35.4330698 h 24.8031 l 3.5433,-35.4330698 h 24.8032" />
    <path
       id="path3805"
       d="m 1048.8189,113.38593 h -35.4331 l -3.5433,35.43307 H 907.08664 l -3.54331,-35.43307 H 850.39369 L 846.8504,148.819 h -53.14962 l -3.54331,-35.43307 H 737.0079 l -3.5433,35.43307 h -53.14966"
       style="fill:none;stroke:#000000;stroke-width:2;stroke-linecap:butt;stroke-linejoin:miter;stroke-miterlimit:4;stroke-dasharray:none;stroke-opacity:1" />
    <path
       style="fill:none;stroke:#000000;stroke-width:2;stroke-linecap:butt;stroke-linejoin:miter;stroke-miterlimit:4;stroke-dasharray:none;stroke-opacity:1"
       d="m 1048.8189,148.819 h -35.4331 l -3.5433,-35.43307 H 907.08664 L 903.54333,148.819 H 850.39369 L 846.8504,113.38593 H 793.70078 L 790.15747,148.819 H 737.0079 l -3.5433,-35.43307 h -53.14966"
       id="path3807" />
    <g
       id="g7007"
       transform="translate(191.33861,-53.149513)">
      <g
         transform="translate(3.5433451)"
         mask="url(#mask6955)"
         id="g7009">
        <path
           style="fill:none;fill-rule:evenodd;stroke:#000000;stroke-width:1px;stroke-linecap:butt;stroke-linejoin:miter;stroke-opacity:1"
           d="m 403.93696,113.38583 14.17323,14.17323"
           id="path7011" />
        <path
           id="path7013"
           d="m 403.93696,116.92914 14.17323,14.17323"
           style="fill:none;fill-rule:evenodd;stroke:#000000;stroke-width:1px;stroke-linecap:butt;stroke-linejoin:miter;stroke-opacity:1" />
        <path
           id="path7015"
           d="m 403.93696,120.47245 14.17323,14.17323"
           style="fill:none;fill-rule:evenodd;stroke:#000000;stroke-width:1px;stroke-linecap:butt;stroke-linejoin:miter;stroke-opacity:1" />
        <path
           style="fill:none;fill-rule:evenodd;stroke:#000000;stroke-width:1px;stroke-linecap:butt;stroke-linejoin:miter;stroke-opacity:1"
           d="m 403.93696,124.01576 14.17323,14.17323"
           id="path7017" />
        <path
           style="fill:none;fill-rule:evenodd;stroke:#000000;stroke-width:1px;stroke-linecap:butt;stroke-linejoin:miter;stroke-opacity:1"
           d="m 403.93696,127.55906 14.17323,14.17323"
           id="path7019" />
        <path
           id="path7021"
           d="m 403.93696,131.10237 14.17323,14.17323"
           style="fill:none;fill-rule:evenodd;stroke:#000000;stroke-width:1px;stroke-linecap:butt;stroke-linejoin:miter;stroke-opacity:1" />
        <path
           style="fill:none;fill-rule:evenodd;stroke:#000000;stroke-width:1px;stroke-linecap:butt;stroke-linejoin:miter;stroke-opacity:1"
           d="m 403.93696,134.64568 14.17323,14.17323"
           id="path7023" />
        <path
           id="path7025"
           d="m 403.93696,109.84253 14.17323,14.17323"
           style="fill:none;fill-rule:evenodd;stroke:#000000;stroke-width:1px;stroke-linecap:butt;stroke-linejoin:miter;stroke-opacity:1" />
        <path
           style="fill:none;fill-rule:evenodd;stroke:#000000;stroke-width:1px;stroke-linecap:butt;stroke-linejoin:miter;stroke-opacity:1"
           d="m 403.93696,106.29922 14.17323,14.17323"
           id="path7027" />
        <path
           id="path7029"
           d="m 403.93696,102.75591 14.17323,14.17323"
           style="fill:none;fill-rule:evenodd;stroke:#000000;stroke-width:1px;stroke-linecap:butt;stroke-linejoin:miter;stroke-opacity:1" />
        <path
           id="path7031"
           d="m 403.93696,138.18899 14.17323,14.17323"
           style="fill:none;fill-rule:evenodd;stroke:#000000;stroke-width:1px;stroke-linecap:butt;stroke-linejoin:miter;stroke-opacity:1" />
        <path
           style="fill:none;fill-rule:evenodd;stroke:#000000;stroke-width:1px;stroke-linecap:butt;stroke-linejoin:miter;stroke-opacity:1"
           d="m 403.93696,141.7323 14.17323,14.17323"
           id="path7033" />
      </g>
      <path
         id="path7035"
         d="m 421.65349,113.38583 -1.77163,17.71653 1.77163,17.71654"
         style="fill:none;fill-rule:evenodd;stroke:#000000;stroke-width:1px;stroke-linecap:butt;stroke-linejoin:miter;stroke-opacity:1" />
    </g>
    <g
       transform="translate(325.98429,-53.149513)"
       id="g7037">
      <g
         id="g7039"
         mask="url(#mask6955)"
         transform="translate(3.5433451)">
        <path
           id="path7041"
           d="m 403.93696,113.38583 14.17323,14.17323"
           style="fill:none;fill-rule:evenodd;stroke:#000000;stroke-width:1px;stroke-linecap:butt;stroke-linejoin:miter;stroke-opacity:1" />
        <path
           style="fill:none;fill-rule:evenodd;stroke:#000000;stroke-width:1px;stroke-linecap:butt;stroke-linejoin:miter;stroke-opacity:1"
           d="m 403.93696,116.92914 14.17323,14.17323"
           id="path7043" />
        <path
           style="fill:none;fill-rule:evenodd;stroke:#000000;stroke-width:1px;stroke-linecap:butt;stroke-linejoin:miter;stroke-opacity:1"
           d="m 403.93696,120.47245 14.17323,14.17323"
           id="path7045" />
        <path
           id="path7047"
           d="m 403.93696,124.01576 14.17323,14.17323"
           style="fill:none;fill-rule:evenodd;stroke:#000000;stroke-width:1px;stroke-linecap:butt;stroke-linejoin:miter;stroke-opacity:1" />
        <path
           id="path7049"
           d="m 403.93696,127.55906 14.17323,14.17323"
           style="fill:none;fill-rule:evenodd;stroke:#000000;stroke-width:1px;stroke-linecap:butt;stroke-linejoin:miter;stroke-opacity:1" />
        <path
           style="fill:none;fill-rule:evenodd;stroke:#000000;stroke-width:1px;stroke-linecap:butt;stroke-linejoin:miter;stroke-opacity:1"
           d="m 403.93696,131.10237 14.17323,14.17323"
           id="path7051" />
        <path
           id="path7053"
           d="m 403.93696,134.64568 14.17323,14.17323"
           style="fill:none;fill-rule:evenodd;stroke:#000000;stroke-width:1px;stroke-linecap:butt;stroke-linejoin:miter;stroke-opacity:1" />
        <path
           style="fill:none;fill-rule:evenodd;stroke:#000000;stroke-width:1px;stroke-linecap:butt;stroke-linejoin:miter;stroke-opacity:1"
           d="m 403.93696,109.84253 14.17323,14.17323"
           id="path7055" />
        <path
           id="path7057"
           d="m 403.93696,106.29922 14.17323,14.17323"
           style="fill:none;fill-rule:evenodd;stroke:#000000;stroke-width:1px;stroke-linecap:butt;stroke-linejoin:miter;stroke-opacity:1" />
        <path
           style="fill:none;fill-rule:evenodd;stroke:#000000;stroke-width:1px;stroke-linecap:butt;stroke-linejoin:miter;stroke-opacity:1"
           d="m 403.93696,102.75591 14.17323,14.17323"
           id="path7059" />
        <path
           style="fill:none;fill-rule:evenodd;stroke:#000000;stroke-width:1px;stroke-linecap:butt;stroke-linejoin:miter;stroke-opacity:1"
           d="m 403.93696,138.18899 14.17323,14.17323"
           id="path7061" />
        <path
           id="path7063"
           d="m 403.93696,141.7323 14.17323,14.17323"
           style="fill:none;fill-rule:evenodd;stroke:#000000;stroke-width:1px;stroke-linecap:butt;stroke-linejoin:miter;stroke-opacity:1" />
      </g>
      <path
         style="fill:none;fill-rule:evenodd;stroke:#000000;stroke-width:1px;stroke-linecap:butt;stroke-linejoin:miter;stroke-opacity:1"
         d="m 421.65349,113.38583 -1.77163,17.71653 1.77163,17.71654"
         id="path7065" />
    </g>
    <g
       id="g7099"
       transform="translate(382.67721,-53.149513)">
      <g
         transform="translate(3.5433451)"
         mask="url(#mask6955)"
         id="g7101">
        <path
           style="fill:none;fill-rule:evenodd;stroke:#000000;stroke-width:1px;stroke-linecap:butt;stroke-linejoin:miter;stroke-opacity:1"
           d="m 403.93696,113.38583 14.17323,14.17323"
           id="path7103" />
        <path
           id="path7105"
           d="m 403.93696,116.92914 14.17323,14.17323"
           style="fill:none;fill-rule:evenodd;stroke:#000000;stroke-width:1px;stroke-linecap:butt;stroke-linejoin:miter;stroke-opacity:1" />
        <path
           id="path7107"
           d="m 403.93696,120.47245 14.17323,14.17323"
           style="fill:none;fill-rule:evenodd;stroke:#000000;stroke-width:1px;stroke-linecap:butt;stroke-linejoin:miter;stroke-opacity:1" />
        <path
           style="fill:none;fill-rule:evenodd;stroke:#000000;stroke-width:1px;stroke-linecap:butt;stroke-linejoin:miter;stroke-opacity:1"
           d="m 403.93696,124.01576 14.17323,14.17323"
           id="path7109" />
        <path
           style="fill:none;fill-rule:evenodd;stroke:#000000;stroke-width:1px;stroke-linecap:butt;stroke-linejoin:miter;stroke-opacity:1"
           d="m 403.93696,127.55906 14.17323,14.17323"
           id="path7111" />
        <path
           id="path7113"
           d="m 403.93696,131.10237 14.17323,14.17323"
           style="fill:none;fill-rule:evenodd;stroke:#000000;stroke-width:1px;stroke-linecap:butt;stroke-linejoin:miter;stroke-opacity:1" />
        <path
           style="fill:none;fill-rule:evenodd;stroke:#000000;stroke-width:1px;stroke-linecap:butt;stroke-linejoin:miter;stroke-opacity:1"
           d="m 403.93696,134.64568 14.17323,14.17323"
           id="path7115" />
        <path
           id="path7117"
           d="m 403.93696,109.84253 14.17323,14.17323"
           style="fill:none;fill-rule:evenodd;stroke:#000000;stroke-width:1px;stroke-linecap:butt;stroke-linejoin:miter;stroke-opacity:1" />
        <path
           style="fill:none;fill-rule:evenodd;stroke:#000000;stroke-width:1px;stroke-linecap:butt;stroke-linejoin:miter;stroke-opacity:1"
           d="m 403.93696,106.29922 14.17323,14.17323"
           id="path7119" />
        <path
           id="path7121"
           d="m 403.93696,102.75591 14.17323,14.17323"
           style="fill:none;fill-rule:evenodd;stroke:#000000;stroke-width:1px;stroke-linecap:butt;stroke-linejoin:miter;stroke-opacity:1" />
        <path
           id="path7123"
           d="m 403.93696,138.18899 14.17323,14.17323"
           style="fill:none;fill-rule:evenodd;stroke:#000000;stroke-width:1px;stroke-linecap:butt;stroke-linejoin:miter;stroke-opacity:1" />
        <path
           style="fill:none;fill-rule:evenodd;stroke:#000000;stroke-width:1px;stroke-linecap:butt;stroke-linejoin:miter;stroke-opacity:1"
           d="m 403.93696,141.7323 14.17323,14.17323"
           id="path7125" />
      </g>
      <path
         id="path7127"
         d="m 421.65349,113.38583 -1.77163,17.71653 1.77163,17.71654"
         style="fill:none;fill-rule:evenodd;stroke:#000000;stroke-width:1px;stroke-linecap:butt;stroke-linejoin:miter;stroke-opacity:1" />
    </g>
    <g
       transform="translate(439.37013,-53.149513)"
       id="g7129">
      <g
         id="g7131"
         mask="url(#mask6955)"
         transform="translate(3.5433451)">
        <path
           id="path7133"
           d="m 403.93696,113.38583 14.17323,14.17323"
           style="fill:none;fill-rule:evenodd;stroke:#000000;stroke-width:1px;stroke-linecap:butt;stroke-linejoin:miter;stroke-opacity:1" />
        <path
           style="fill:none;fill-rule:evenodd;stroke:#000000;stroke-width:1px;stroke-linecap:butt;stroke-linejoin:miter;stroke-opacity:1"
           d="m 403.93696,116.92914 14.17323,14.17323"
           id="path7135" />
        <path
           style="fill:none;fill-rule:evenodd;stroke:#000000;stroke-width:1px;stroke-linecap:butt;stroke-linejoin:miter;stroke-opacity:1"
           d="m 403.93696,120.47245 14.17323,14.17323"
           id="path7137" />
        <path
           id="path7139"
           d="m 403.93696,124.01576 14.17323,14.17323"
           style="fill:none;fill-rule:evenodd;stroke:#000000;stroke-width:1px;stroke-linecap:butt;stroke-linejoin:miter;stroke-opacity:1" />
        <path
           id="path7141"
           d="m 403.93696,127.55906 14.17323,14.17323"
           style="fill:none;fill-rule:evenodd;stroke:#000000;stroke-width:1px;stroke-linecap:butt;stroke-linejoin:miter;stroke-opacity:1" />
        <path
           style="fill:none;fill-rule:evenodd;stroke:#000000;stroke-width:1px;stroke-linecap:butt;stroke-linejoin:miter;stroke-opacity:1"
           d="m 403.93696,131.10237 14.17323,14.17323"
           id="path7143" />
        <path
           id="path7145"
           d="m 403.93696,134.64568 14.17323,14.17323"
           style="fill:none;fill-rule:evenodd;stroke:#000000;stroke-width:1px;stroke-linecap:butt;stroke-linejoin:miter;stroke-opacity:1" />
        <path
           style="fill:none;fill-rule:evenodd;stroke:#000000;stroke-width:1px;stroke-linecap:butt;stroke-linejoin:miter;stroke-opacity:1"
           d="m 403.93696,109.84253 14.17323,14.17323"
           id="path7147" />
        <path
           id="path7149"
           d="m 403.93696,106.29922 14.17323,14.17323"
           style="fill:none;fill-rule:evenodd;stroke:#000000;stroke-width:1px;stroke-linecap:butt;stroke-linejoin:miter;stroke-opacity:1" />
        <path
           style="fill:none;fill-rule:evenodd;stroke:#000000;stroke-width:1px;stroke-linecap:butt;stroke-linejoin:miter;stroke-opacity:1"
           d="m 403.93696,102.75591 14.17323,14.17323"
           id="path7151" />
        <path
           style="fill:none;fill-rule:evenodd;stroke:#000000;stroke-width:1px;stroke-linecap:butt;stroke-linejoin:miter;stroke-opacity:1"
           d="m 403.93696,138.18899 14.17323,14.17323"
           id="path7153" />
        <path
           id="path7155"
           d="m 403.93696,141.7323 14.17323,14.17323"
           style="fill:none;fill-rule:evenodd;stroke:#000000;stroke-width:1px;stroke-linecap:butt;stroke-linejoin:miter;stroke-opacity:1" />
      </g>
      <path
         style="fill:none;fill-rule:evenodd;stroke:#000000;stroke-width:1px;stroke-linecap:butt;stroke-linejoin:miter;stroke-opacity:1"
         d="m 421.65349,113.38583 -1.77163,17.71653 1.77163,17.71654"
         id="path7157" />
    </g>
    <path
       id="path8879"
       d="M 216.14175,255.11831 H 655.51183"
       style="fill:none;stroke:#000000;stroke-width:2;stroke-linecap:butt;stroke-linejoin:miter;stroke-miterlimit:4;stroke-dasharray:none;stroke-opacity:1" />
    <path
       id="path8881"
       d="m 680.31498,255.11831 h 318.89764 l 3.54318,-35.43307 h 7.0867 l 3.5433,35.43307 35.4331,-1e-4"
       style="fill:none;stroke:#000000;stroke-width:2;stroke-linecap:butt;stroke-linejoin:miter;stroke-miterlimit:4;stroke-dasharray:none;stroke-opacity:1" />
    <g
       aria-label="ready_i"
       id="text8885"
       style="line-height:0%;font-family:Iwona;-inkscape-font-specification:Iwona;text-align:end;letter-spacing:0px;word-spacing:0px;text-anchor:end">
      <path
         d="m 141.477,235.75837 v -1.395 c -0.2475,-0.09 -0.5175,-0.1575 -0.765,-0.1575 -1.26,0 -2.2725,0.8775 -3.0825,1.845 v -1.6875 h -1.755 v 10.125 h 1.755 v -7.4925 c 0.675,-0.7875 1.53,-1.4625 2.565,-1.4625 0.4275,0 0.8775,0.09 1.2825,0.225 z"
         style="font-size:22.5px;line-height:1.25"
         id="path326" />
      <path
         d="m 151.87198,239.65087 v -0.225 c 0,-3.1725 -1.7325,-5.2875 -4.3425,-5.2875 -2.6325,0 -4.365,2.115 -4.365,5.2875 0,3.1725 1.7325,5.2875 4.365,5.2875 1.125,0 2.2275,-0.36 3.15,-1.0125 v -0.945 c -1.0575,0.675 -1.9125,0.9225 -3.15,0.9225 -1.9125,0 -2.385,-1.8225 -2.385,-4.0275 z m -1.98,-0.945 h -4.7475 c 0,-1.8 0.765,-3.6225 2.385,-3.6225 1.5975,0 2.3625,1.8225 2.3625,3.6225 z"
         style="font-size:22.5px;line-height:1.25"
         id="path328" />
      <path
         d="m 162.71695,244.48837 v -6.3 c 0,-2.115 -1.305,-4.05 -3.2625,-4.05 -1.44,0 -2.79,0.495 -4.005,1.26 v 0.6975 c 1.0125,-0.5625 2.1375,-0.9225 3.3075,-0.9225 1.395,0 2.205,1.485 2.205,3.015 v 0.405 c -0.8775,-0.3825 -1.8225,-0.6075 -2.7675,-0.6075 -2.4075,0 -4.185,1.1025 -4.185,3.375 0,2.16 1.575,3.3525 3.8475,3.3525 1.1475,0 2.205,-0.5175 3.105,-1.2375 v 1.0125 z m -1.755,-1.9575 c -0.675,0.675 -1.5075,1.2375 -2.475,1.2375 -1.5075,0 -2.4975,-0.9225 -2.4975,-2.4075 0,-1.3725 1.125,-2.43 2.4975,-2.43 0.855,0 1.71,0.225 2.475,0.6075 z"
         style="font-size:22.5px;line-height:1.25"
         id="path330" />
      <path
         d="m 174.46193,244.48837 v -15.75 h -1.755 v 6.0075 c -0.8775,-0.3825 -1.8225,-0.6075 -2.7675,-0.6075 -2.8125,0 -4.185,2.25 -4.185,5.2875 0,2.9925 1.125,5.2875 3.8475,5.2875 1.1475,0 2.205,-0.5175 3.105,-1.2375 v 1.0125 z m -1.755,-1.9575 c -0.675,0.675 -1.5075,1.2375 -2.475,1.2375 -2.0475,0 -2.4975,-1.98 -2.4975,-4.3425 0,-2.115 0.6525,-4.3425 2.4975,-4.3425 0.855,0 1.71,0.225 2.475,0.6075 z"
         style="font-size:22.5px;line-height:1.25"
         id="path332" />
      <path
         d="m 186.09442,245.83837 v -11.475 h -1.755 v 7.9425 c -0.765,0.765 -1.71,1.3725 -2.7675,1.3725 -1.0575,0 -1.8675,-0.9225 -1.8675,-2.0025 v -7.3125 h -1.755 v 7.3125 c 0,1.6425 1.26,3.0375 2.88,3.0375 1.35,0 2.5425,-0.765 3.51,-1.71 v 2.835 c 0,1.5075 -0.675,3.015 -2.025,3.015 -1.0575,0 -2.07,-0.225 -3.0375,-0.6075 v 0.6975 c 1.1475,0.585 2.43,0.945 3.735,0.945 1.9125,0 3.0825,-1.98 3.0825,-4.05 z"
         style="font-size:22.5px;line-height:1.25"
         id="path334" />
      <path
         d="m 199.14438,247.07587 v -1.125 h -11.25 v 1.125 z"
         style="font-size:22.5px;line-height:1.25"
         id="path336" />
      <path
         d="m 205.06183,243.70087 v -0.675 c -0.4275,0.36 -0.9225,0.6525 -1.485,0.6525 -0.8325,0 -0.99,-1.035 -0.99,-2.0025 v -7.3125 h -1.755 v 7.3125 c 0,1.5075 0.585,3.0375 1.9125,3.0375 0.855,0 1.665,-0.4275 2.3175,-1.0125 z m -2.25,-12.8475 c 0,-0.6075 -0.495,-1.1025 -1.1025,-1.1025 -0.6075,0 -1.1025,0.495 -1.1025,1.1025 0,0.6075 0.495,1.1025 1.1025,1.1025 0.6075,0 1.1025,-0.495 1.1025,-1.1025 z"
         style="font-size:22.5px;line-height:1.25"
         id="path338" />
    </g>
  </g>
</svg>
