<?xml version="1.0" encoding="UTF-8" standalone="no"?>
<!-- Created with Inkscape (http://www.inkscape.org/) -->

<svg
   width="89.589005mm"
   height="35.282001mm"
   id="svg2"
   version="1.1"
   viewBox="0 0 317.44135 125.01497"
   xmlns="http://www.w3.org/2000/svg"
   xmlns:svg="http://www.w3.org/2000/svg"
   xmlns:rdf="http://www.w3.org/1999/02/22-rdf-syntax-ns#"
   xmlns:cc="http://creativecommons.org/ns#"
   xmlns:dc="http://purl.org/dc/elements/1.1/">
  <defs
     id="defs4" />
  <metadata
     id="metadata7">
    <rdf:RDF>
      <cc:Work
         rdf:about="">
        <dc:format>image/svg+xml</dc:format>
        <dc:type
           rdf:resource="http://purl.org/dc/dcmitype/StillImage" />
        <dc:title />
      </cc:Work>
    </rdf:RDF>
  </metadata>
  <g
     id="layer1"
     transform="translate(-139.63781,-77.453124)">
    <path
       id="rect4876"
       style="fill:#afdde9;stroke:#000000;stroke-width:0.999213;stroke-linecap:round"
       d="M 191.33858,85.039345 H 407.48032 V 194.88187 H 191.33858 Z" />
    <path
       id="path4828"
       d="m 400.3937,95.669272 h 10.62992 l 7.08661,7.086598 -7.08661,7.08661 H 400.3937 Z"
       style="fill:#afdde9;fill-opacity:1;stroke:#000000;stroke-width:1px;stroke-linecap:butt;stroke-linejoin:miter;stroke-opacity:1" />
    <g
       aria-label="evt_o"
       id="text4830"
       style="line-height:0%;font-family:Iwona;-inkscape-font-specification:Iwona;letter-spacing:0px;word-spacing:0px">
      <path
         d="m 427.03536,103.68138 v -0.12176 c 0,-1.71682 -0.93756,-2.86136 -2.34997,-2.86136 -1.42459,0 -2.36215,1.14454 -2.36215,2.86136 0,1.71681 0.93756,2.86136 2.36215,2.86136 0.6088,0 1.20542,-0.19482 1.70464,-0.54792 v -0.51139 c -0.57227,0.36528 -1.03496,0.49921 -1.70464,0.49921 -1.03496,0 -1.29066,-0.98625 -1.29066,-2.1795 z m -1.07149,-0.51139 h -2.56914 c 0,-0.97408 0.41399,-1.96034 1.29066,-1.96034 0.86449,0 1.27848,0.98626 1.27848,1.96034 z"
         style="font-size:12.176px;line-height:1.25"
         id="path28" />
      <path
         d="m 432.47801,100.82002 h -0.54792 l -1.65593,4.55382 -1.60724,-4.55382 h -0.90102 l 1.92381,5.4792 h 0.79144 z"
         style="font-size:12.176px;line-height:1.25"
         id="path30" />
      <path
         d="m 436.15516,105.87306 v -0.36528 c -0.19482,0.19481 -0.42616,0.3531 -0.70621,0.3531 -0.43833,0 -0.46269,-0.57227 -0.46269,-1.08366 v -3.44581 h 1.1689 v -0.51139 h -1.1689 v -1.826403 h -0.57227 c 0,0.97408 -0.56009,1.887283 -1.44894,1.887283 v 0.45051 h 1.07149 v 3.44581 c 0,0.80361 0.25569,1.64376 0.94972,1.64376 0.45052,0 0.84015,-0.24352 1.1689,-0.54792 z"
         style="font-size:12.176px;line-height:1.25"
         id="path32" />
      <path
         d="m 442.60842,107.69946 v -0.6088 h -6.088 v 0.6088 z"
         style="font-size:12.176px;line-height:1.25"
         id="path34" />
      <path
         d="m 447.99019,103.55962 c 0,-1.86293 -0.82797,-2.86136 -2.34997,-2.86136 -1.53417,0 -2.36214,0.99843 -2.36214,2.86136 0,1.86293 0.82797,2.86136 2.36214,2.86136 1.522,0 2.34997,-0.99843 2.34997,-2.86136 z m -1.07149,0 c 0,1.522 -0.45051,2.34997 -1.27848,2.34997 -0.84014,0 -1.29065,-0.82797 -1.29065,-2.34997 0,-1.522 0.45051,-2.34997 1.29065,-2.34997 0.82797,0 1.27848,0.82797 1.27848,2.34997 z"
         style="font-size:12.176px;line-height:1.25"
         id="path36" />
    </g>
    <path
       id="path4840"
       d="m 184.25198,95.669286 h 10.62992 l 7.08661,7.086604 -7.08661,7.08661 h -10.62992 z"
       style="fill:#afdde9;fill-opacity:1;stroke:#000000;stroke-width:1px;stroke-linecap:butt;stroke-linejoin:miter;stroke-opacity:1" />
    <g
       aria-label="btn_i"
       id="text4848"
       style="line-height:0%;font-family:Iwona;-inkscape-font-specification:Iwona;text-align:end;letter-spacing:0px;word-spacing:0px;text-anchor:end">
      <path
         d="m 160.28959,103.55959 c 0,-1.61941 -0.6088,-2.86136 -2.08209,-2.86136 -0.62098,0 -1.19325,0.28004 -1.68029,0.66968 v -3.591923 h -0.94973 v 8.523203 h 0.94973 v -0.28005 c 0.46269,0.24352 0.97408,0.40181 1.49765,0.40181 1.522,0 2.26473,-1.2176 2.26473,-2.86136 z m -1.07148,0 c 0,1.14454 -0.35311,2.34996 -1.35154,2.34996 -0.47486,0 -0.93755,-0.15828 -1.33936,-0.4018 v -3.62845 c 0.36528,-0.36528 0.81579,-0.66968 1.33936,-0.66968 1.10802,0 1.35154,1.07149 1.35154,2.34997 z"
         style="font-size:12.176px;line-height:1.25"
         id="path39" />
      <path
         d="m 164.51466,105.87303 v -0.36528 c -0.19482,0.19481 -0.42616,0.3531 -0.70621,0.3531 -0.43834,0 -0.46269,-0.57227 -0.46269,-1.08366 v -3.44581 h 1.1689 v -0.51139 h -1.1689 v -1.826403 h -0.57227 c 0,0.97408 -0.5601,1.887283 -1.44894,1.887283 v 0.45051 h 1.07148 v 3.44581 c 0,0.80361 0.2557,1.64376 0.94973,1.64376 0.45051,0 0.84015,-0.24352 1.1689,-0.54792 z"
         style="font-size:12.176px;line-height:1.25"
         id="path41" />
      <path
         d="m 170.26171,106.29919 v -3.9572 c 0,-0.88885 -0.68185,-1.64376 -1.55853,-1.64376 -0.73056,0 -1.37588,0.41398 -1.89945,0.92537 v -0.80361 H 165.854 v 5.4792 h 0.94973 v -4.29813 c 0.41398,-0.41399 0.92537,-0.74274 1.49765,-0.74274 0.57227,0 1.0106,0.49922 1.0106,1.08367 v 3.9572 z"
         style="font-size:12.176px;line-height:1.25"
         id="path43" />
      <path
         d="m 177.26289,107.69943 v -0.6088 h -6.088 v 0.6088 z"
         style="font-size:12.176px;line-height:1.25"
         id="path45" />
      <path
         d="m 180.46516,105.87303 v -0.36528 c -0.23135,0.19481 -0.49922,0.3531 -0.80362,0.3531 -0.45051,0 -0.53574,-0.5601 -0.53574,-1.08366 v -3.9572 h -0.94973 v 3.9572 c 0,0.81579 0.31657,1.64376 1.03496,1.64376 0.46269,0 0.90102,-0.23135 1.25413,-0.54792 z m -1.2176,-6.952499 c 0,-0.328752 -0.26788,-0.596624 -0.59663,-0.596624 -0.32875,0 -0.59662,0.267872 -0.59662,0.596624 0,0.328752 0.26787,0.596624 0.59662,0.596624 0.32875,0 0.59663,-0.267872 0.59663,-0.596624 z"
         style="font-size:12.176px;line-height:1.25"
         id="path47" />
    </g>
    <path
       id="path4864"
       d="m 184.25197,148.81888 h 10.62992 l 7.08661,7.0866 -7.08661,7.08661 h -10.62992 z"
       style="fill:#afdde9;fill-opacity:1;stroke:#000000;stroke-width:1px;stroke-linecap:butt;stroke-linejoin:miter;stroke-opacity:1" />
    <path
       style="fill:#afdde9;fill-opacity:1;stroke:#000000;stroke-width:1px;stroke-linecap:butt;stroke-linejoin:miter;stroke-opacity:1"
       d="m 184.25197,170.0787 h 10.62992 l 7.08661,7.0866 -7.08661,7.08661 h -10.62992 z"
       id="path4866" />
    <g
       aria-label="clk_i"
       id="text4868"
       style="line-height:0%;font-family:Iwona;-inkscape-font-specification:Iwona;text-align:end;letter-spacing:0px;word-spacing:0px;text-anchor:end">
      <path
         d="m 161.55589,155.2359 v -0.5114 c -0.38963,-0.54792 -1.02278,-0.87667 -1.70464,-0.87667 -1.52199,0 -2.54478,1.14455 -2.54478,2.86136 0,1.71682 1.02279,2.86136 2.54478,2.86136 0.63316,0 1.22978,-0.31657 1.58288,-0.84014 v -0.51139 c -0.41398,0.62097 -0.84014,0.84014 -1.58288,0.84014 -0.87667,0 -1.47329,-0.93755 -1.47329,-2.34997 0,-1.41241 0.59662,-2.34997 1.47329,-2.34997 0.75492,0 1.26631,0.26788 1.70464,0.87668 z"
         style="font-size:12.176px;line-height:1.25"
         id="path50" />
      <path
         d="m 165.12345,159.02263 v -0.36528 c -0.23134,0.19482 -0.49922,0.35311 -0.80362,0.35311 -0.45051,0 -0.53574,-0.5601 -0.53574,-1.08367 v -7.0012 h -0.94973 v 7.0012 c 0,0.81579 0.31658,1.64376 1.03496,1.64376 0.46269,0 0.90103,-0.23134 1.25413,-0.54792 z"
         style="font-size:12.176px;line-height:1.25"
         id="path52" />
      <path
         d="m 171.05314,159.44879 -2.82483,-3.25099 2.72742,-2.22821 h -0.75491 l -2.91006,2.3865 v -5.4305 h -0.94973 v 8.5232 h 0.94973 v -3.03182 l 2.63001,3.03182 z"
         style="font-size:12.176px;line-height:1.25"
         id="path54" />
      <path
         d="m 177.26289,160.84903 v -0.6088 h -6.088 v 0.6088 z"
         style="font-size:12.176px;line-height:1.25"
         id="path56" />
      <path
         d="m 180.46515,159.02263 v -0.36528 c -0.23134,0.19482 -0.49921,0.35311 -0.80361,0.35311 -0.45051,0 -0.53575,-0.5601 -0.53575,-1.08367 v -3.9572 h -0.94972 v 3.9572 c 0,0.81579 0.31657,1.64376 1.03496,1.64376 0.46268,0 0.90102,-0.23134 1.25412,-0.54792 z m -1.2176,-6.95249 c 0,-0.32876 -0.26787,-0.59663 -0.59662,-0.59663 -0.32875,0 -0.59662,0.26787 -0.59662,0.59663 0,0.32875 0.26787,0.59662 0.59662,0.59662 0.32875,0 0.59662,-0.26787 0.59662,-0.59662 z"
         style="font-size:12.176px;line-height:1.25"
         id="path58" />
    </g>
    <g
       aria-label="reset_i"
       id="text4872"
       style="line-height:0%;font-family:Iwona;-inkscape-font-specification:Iwona;text-align:end;letter-spacing:0px;word-spacing:0px;text-anchor:end">
      <path
         d="m 149.80609,175.98433 v -0.75491 c -0.13394,-0.0487 -0.28005,-0.0852 -0.41399,-0.0852 -0.68185,0 -1.22977,0.47486 -1.66811,0.99843 v -0.9132 h -0.94973 v 5.4792 h 0.94973 v -4.05461 c 0.36528,-0.42616 0.82797,-0.79144 1.38806,-0.79144 0.23135,0 0.47487,0.0487 0.69404,0.12176 z"
         style="font-size:12.176px;line-height:1.25"
         id="path61" />
      <path
         d="m 155.43139,178.09078 v -0.12176 c 0,-1.71682 -0.93756,-2.86136 -2.34997,-2.86136 -1.42459,0 -2.36215,1.14454 -2.36215,2.86136 0,1.71681 0.93756,2.86136 2.36215,2.86136 0.6088,0 1.20542,-0.19482 1.70464,-0.54792 v -0.51139 c -0.57227,0.36528 -1.03496,0.49921 -1.70464,0.49921 -1.03496,0 -1.29066,-0.98625 -1.29066,-2.1795 z m -1.07149,-0.51139 h -2.56914 c 0,-0.97408 0.41399,-1.96034 1.29066,-1.96034 0.86449,0 1.27848,0.98626 1.27848,1.96034 z"
         style="font-size:12.176px;line-height:1.25"
         id="path63" />
      <path
         d="m 160.71575,179.15009 c 0,-0.9619 -1.02278,-1.46112 -2.02121,-1.70464 -0.58445,-0.14611 -1.2176,-0.38963 -1.2176,-0.9619 0,-0.52357 0.53574,-0.8645 1.12019,-0.8645 0.64533,0 1.29066,0.19482 1.8264,0.54792 v -0.51139 c -0.53574,-0.35311 -1.18107,-0.54792 -1.8264,-0.54792 -1.05931,0 -2.03339,0.64533 -2.03339,1.63158 0,0.88885 0.98625,1.30283 1.92381,1.53418 0.64532,0.15829 1.315,0.49921 1.315,1.12019 0,0.57227 -0.58444,0.92538 -1.20542,0.92538 -0.75491,0 -1.48547,-0.18264 -2.1308,-0.54792 v 0.51139 c 0.64533,0.36528 1.37589,0.54792 2.1308,0.54792 1.09584,0 2.11862,-0.65751 2.11862,-1.68029 z"
         style="font-size:12.176px;line-height:1.25"
         id="path65" />
      <path
         d="m 166.64545,178.09078 v -0.12176 c 0,-1.71682 -0.93755,-2.86136 -2.34997,-2.86136 -1.42459,0 -2.36214,1.14454 -2.36214,2.86136 0,1.71681 0.93755,2.86136 2.36214,2.86136 0.6088,0 1.20543,-0.19482 1.70464,-0.54792 v -0.51139 c -0.57227,0.36528 -1.03496,0.49921 -1.70464,0.49921 -1.03495,0 -1.29065,-0.98625 -1.29065,-2.1795 z m -1.07149,-0.51139 h -2.56913 c 0,-0.97408 0.41398,-1.96034 1.29065,-1.96034 0.8645,0 1.27848,0.98626 1.27848,1.96034 z"
         style="font-size:12.176px;line-height:1.25"
         id="path67" />
      <path
         d="m 170.80963,180.28246 v -0.36528 c -0.19482,0.19481 -0.42616,0.3531 -0.70621,0.3531 -0.43833,0 -0.46269,-0.57227 -0.46269,-1.08366 v -3.44581 h 1.1689 v -0.51139 h -1.1689 v -1.8264 h -0.57227 c 0,0.97408 -0.56009,1.88728 -1.44894,1.88728 v 0.45051 h 1.07149 v 3.44581 c 0,0.80361 0.25569,1.64376 0.94972,1.64376 0.45052,0 0.84015,-0.24352 1.1689,-0.54792 z"
         style="font-size:12.176px;line-height:1.25"
         id="path69" />
      <path
         d="m 177.26289,182.10886 v -0.6088 h -6.088 v 0.6088 z"
         style="font-size:12.176px;line-height:1.25"
         id="path71" />
      <path
         d="m 180.46516,180.28246 v -0.36528 c -0.23135,0.19481 -0.49922,0.3531 -0.80362,0.3531 -0.45051,0 -0.53574,-0.56009 -0.53574,-1.08366 v -3.9572 h -0.94973 v 3.9572 c 0,0.81579 0.31657,1.64376 1.03496,1.64376 0.46269,0 0.90102,-0.23135 1.25413,-0.54792 z m -1.2176,-6.9525 c 0,-0.32875 -0.26788,-0.59662 -0.59663,-0.59662 -0.32875,0 -0.59662,0.26787 -0.59662,0.59662 0,0.32875 0.26787,0.59663 0.59662,0.59663 0.32875,0 0.59663,-0.26788 0.59663,-0.59663 z"
         style="font-size:12.176px;line-height:1.25"
         id="path73" />
    </g>
    <g
       aria-label="ButtonPressDetector"
       id="text4878"
       style="font-size:22.5px;line-height:0%;font-family:Iwona;-inkscape-font-specification:Iwona;text-align:center;letter-spacing:0px;word-spacing:0px;text-anchor:middle">
      <path
         d="m 212.69086,134.40814 c 0,-2.475 -1.62,-3.78 -3.9825,-4.275 1.7325,-0.5175 2.88,-1.6425 2.88,-3.555 0,-2.745 -2.3625,-3.87 -5.4,-3.87 -1.17,0 -2.34,0.0675 -3.51,0.225 h -1.8 v 15.75 h 1.8 l 3.51,0.225 c 3.645,0 6.5025,-1.2375 6.5025,-4.5 z m -2.9475,-7.83 c 0,2.2725 -2.5425,3.4425 -5.085,3.4425 h -1.935 v -6.0525 c 1.1475,-0.1575 2.3175,-0.225 3.465,-0.225 1.845,0 3.555,1.125 3.555,2.835 z m 0.7425,7.83 c 0,2.07 -2.0475,3.465 -4.2975,3.465 -1.1475,0 -2.3175,-0.0675 -3.465,-0.225 v -6.84 h 2.9025 c 2.475,0 4.86,1.3275 4.86,3.6 z"
         style="line-height:1.25"
         id="path76" />
      <path
         d="m 223.87335,138.68314 v -10.125 h -1.755 v 7.9425 c -0.765,0.765 -1.71,1.3725 -2.7675,1.3725 -1.0575,0 -1.8675,-0.9225 -1.8675,-2.0025 v -7.3125 h -1.755 v 7.3125 c 0,1.6425 1.26,3.0375 2.88,3.0375 1.35,0 2.5425,-0.765 3.51,-1.71 v 1.485 z"
         style="line-height:1.25"
         id="path78" />
      <path
         d="m 232.24331,137.89564 v -0.675 c -0.36,0.36 -0.7875,0.6525 -1.305,0.6525 -0.81,0 -0.855,-1.0575 -0.855,-2.0025 v -6.3675 h 2.16 v -0.945 h -2.16 v -3.375 h -1.0575 c 0,1.8 -1.035,3.4875 -2.6775,3.4875 v 0.8325 h 1.98 v 6.3675 c 0,1.485 0.4725,3.0375 1.755,3.0375 0.8325,0 1.5525,-0.45 2.16,-1.0125 z"
         style="line-height:1.25"
         id="path80" />
      <path
         d="m 239.48828,137.89564 v -0.675 c -0.36,0.36 -0.7875,0.6525 -1.305,0.6525 -0.81,0 -0.855,-1.0575 -0.855,-2.0025 v -6.3675 h 2.16 v -0.945 h -2.16 v -3.375 h -1.0575 c 0,1.8 -1.035,3.4875 -2.6775,3.4875 v 0.8325 h 1.98 v 6.3675 c 0,1.485 0.4725,3.0375 1.755,3.0375 0.8325,0 1.5525,-0.45 2.16,-1.0125 z"
         style="line-height:1.25"
         id="path82" />
      <path
         d="m 250.10825,133.62064 c 0,-3.4425 -1.53,-5.2875 -4.3425,-5.2875 -2.835,0 -4.365,1.845 -4.365,5.2875 0,3.4425 1.53,5.2875 4.365,5.2875 2.8125,0 4.3425,-1.845 4.3425,-5.2875 z m -1.98,0 c 0,2.8125 -0.8325,4.3425 -2.3625,4.3425 -1.5525,0 -2.385,-1.53 -2.385,-4.3425 0,-2.8125 0.8325,-4.3425 2.385,-4.3425 1.53,0 2.3625,1.53 2.3625,4.3425 z"
         style="line-height:1.25"
         id="path84" />
      <path
         d="m 261.29075,138.68314 v -7.3125 c 0,-1.6425 -1.26,-3.0375 -2.88,-3.0375 -1.35,0 -2.5425,0.765 -3.51,1.71 v -1.485 h -1.755 v 10.125 h 1.755 v -7.9425 c 0.765,-0.765 1.71,-1.3725 2.7675,-1.3725 1.0575,0 1.8675,0.9225 1.8675,2.0025 v 7.3125 z"
         style="line-height:1.25"
         id="path86" />
      <path
         d="m 277.0407,127.20814 c 0,-3.1725 -2.7225,-4.5 -6.255,-4.5 -1.26,0 -2.52,0.0675 -3.7575,0.225 h -1.8 v 15.75 h 1.845 v -7.3125 c 1.215,0.225 2.475,0.36 3.7125,0.36 3.5325,0 6.255,-1.3275 6.255,-4.5225 z m -2.205,0 c 0,2.0475 -1.9125,3.4875 -4.05,3.4875 -1.2375,0 -2.4975,-0.135 -3.7125,-0.36 v -6.3675 c 1.2375,-0.1575 2.475,-0.225 3.7125,-0.225 2.1375,0 4.05,1.44 4.05,3.465 z"
         style="line-height:1.25"
         id="path88" />
      <path
         d="m 285.25319,129.95314 v -1.395 c -0.2475,-0.09 -0.5175,-0.1575 -0.765,-0.1575 -1.26,0 -2.2725,0.8775 -3.0825,1.845 v -1.6875 h -1.755 v 10.125 h 1.755 v -7.4925 c 0.675,-0.7875 1.53,-1.4625 2.565,-1.4625 0.4275,0 0.8775,0.09 1.2825,0.225 z"
         style="line-height:1.25"
         id="path90" />
      <path
         d="m 295.64817,133.84564 v -0.225 c 0,-3.1725 -1.7325,-5.2875 -4.3425,-5.2875 -2.6325,0 -4.365,2.115 -4.365,5.2875 0,3.1725 1.7325,5.2875 4.365,5.2875 1.125,0 2.2275,-0.36 3.15,-1.0125 v -0.945 c -1.0575,0.675 -1.9125,0.9225 -3.15,0.9225 -1.9125,0 -2.385,-1.8225 -2.385,-4.0275 z m -1.98,-0.945 h -4.7475 c 0,-1.8 0.765,-3.6225 2.385,-3.6225 1.5975,0 2.3625,1.8225 2.3625,3.6225 z"
         style="line-height:1.25"
         id="path92" />
      <path
         d="m 305.41314,135.80314 c 0,-1.7775 -1.89,-2.7 -3.735,-3.15 -1.08,-0.27 -2.25,-0.72 -2.25,-1.7775 0,-0.9675 0.99,-1.5975 2.07,-1.5975 1.1925,0 2.385,0.36 3.375,1.0125 v -0.945 c -0.99,-0.6525 -2.1825,-1.0125 -3.375,-1.0125 -1.9575,0 -3.7575,1.1925 -3.7575,3.015 0,1.6425 1.8225,2.4075 3.555,2.835 1.1925,0.2925 2.43,0.9225 2.43,2.07 0,1.0575 -1.08,1.71 -2.2275,1.71 -1.395,0 -2.745,-0.3375 -3.9375,-1.0125 v 0.945 c 1.1925,0.675 2.5425,1.0125 3.9375,1.0125 2.025,0 3.915,-1.215 3.915,-3.105 z"
         style="line-height:1.25"
         id="path94" />
      <path
         d="m 314.79559,135.80314 c 0,-1.7775 -1.89,-2.7 -3.735,-3.15 -1.08,-0.27 -2.25,-0.72 -2.25,-1.7775 0,-0.9675 0.99,-1.5975 2.07,-1.5975 1.1925,0 2.385,0.36 3.375,1.0125 v -0.945 c -0.99,-0.6525 -2.1825,-1.0125 -3.375,-1.0125 -1.9575,0 -3.7575,1.1925 -3.7575,3.015 0,1.6425 1.8225,2.4075 3.555,2.835 1.1925,0.2925 2.43,0.9225 2.43,2.07 0,1.0575 -1.08,1.71 -2.2275,1.71 -1.395,0 -2.745,-0.3375 -3.9375,-1.0125 v 0.945 c 1.1925,0.675 2.5425,1.0125 3.9375,1.0125 2.025,0 3.915,-1.215 3.915,-3.105 z"
         style="line-height:1.25"
         id="path96" />
      <path
         d="m 331.28807,130.80814 c 0,-4.815 -2.6325,-8.1 -7.2675,-8.1 -1.395,0 -2.79,0.0675 -4.1625,0.225 h -1.8 v 15.75 h 1.8 c 1.3725,0.1575 2.7675,0.225 4.1625,0.225 4.635,0 7.2675,-3.285 7.2675,-8.1 z m -2.205,0 c 0,3.5775 -1.8225,7.065 -5.0625,7.065 -1.3725,0 -2.745,-0.0675 -4.1175,-0.225 v -13.68 c 1.3725,-0.1575 2.745,-0.225 4.1175,-0.225 3.24,0 5.0625,3.4875 5.0625,7.065 z"
         style="line-height:1.25"
         id="path98" />
      <path
         d="m 342.58305,133.84564 v -0.225 c 0,-3.1725 -1.7325,-5.2875 -4.3425,-5.2875 -2.6325,0 -4.365,2.115 -4.365,5.2875 0,3.1725 1.7325,5.2875 4.365,5.2875 1.125,0 2.2275,-0.36 3.15,-1.0125 v -0.945 c -1.0575,0.675 -1.9125,0.9225 -3.15,0.9225 -1.9125,0 -2.385,-1.8225 -2.385,-4.0275 z m -1.98,-0.945 h -4.7475 c 0,-1.8 0.765,-3.6225 2.385,-3.6225 1.5975,0 2.3625,1.8225 2.3625,3.6225 z"
         style="line-height:1.25"
         id="path100" />
      <path
         d="m 350.27802,137.89564 v -0.675 c -0.36,0.36 -0.7875,0.6525 -1.305,0.6525 -0.81,0 -0.855,-1.0575 -0.855,-2.0025 v -6.3675 h 2.16 v -0.945 h -2.16 v -3.375 h -1.0575 c 0,1.8 -1.035,3.4875 -2.6775,3.4875 v 0.8325 h 1.98 v 6.3675 c 0,1.485 0.4725,3.0375 1.755,3.0375 0.8325,0 1.5525,-0.45 2.16,-1.0125 z"
         style="line-height:1.25"
         id="path102" />
      <path
         d="m 360.898,133.84564 v -0.225 c 0,-3.1725 -1.7325,-5.2875 -4.3425,-5.2875 -2.6325,0 -4.365,2.115 -4.365,5.2875 0,3.1725 1.7325,5.2875 4.365,5.2875 1.125,0 2.2275,-0.36 3.15,-1.0125 v -0.945 c -1.0575,0.675 -1.9125,0.9225 -3.15,0.9225 -1.9125,0 -2.385,-1.8225 -2.385,-4.0275 z m -1.98,-0.945 h -4.7475 c 0,-1.8 0.765,-3.6225 2.385,-3.6225 1.5975,0 2.3625,1.8225 2.3625,3.6225 z"
         style="line-height:1.25"
         id="path104" />
      <path
         d="m 371.11296,130.89814 v -0.945 c -0.72,-1.0125 -1.89,-1.62 -3.15,-1.62 -2.8125,0 -4.7025,2.115 -4.7025,5.2875 0,3.1725 1.89,5.2875 4.7025,5.2875 1.17,0 2.2725,-0.585 2.925,-1.5525 v -0.945 c -0.765,1.1475 -1.5525,1.5525 -2.925,1.5525 -1.62,0 -2.7225,-1.7325 -2.7225,-4.3425 0,-2.61 1.1025,-4.3425 2.7225,-4.3425 1.395,0 2.34,0.495 3.15,1.62 z"
         style="line-height:1.25"
         id="path106" />
      <path
         d="m 378.24544,137.89564 v -0.675 c -0.36,0.36 -0.7875,0.6525 -1.305,0.6525 -0.81,0 -0.855,-1.0575 -0.855,-2.0025 v -6.3675 h 2.16 v -0.945 h -2.16 v -3.375 h -1.0575 c 0,1.8 -1.035,3.4875 -2.6775,3.4875 v 0.8325 h 1.98 v 6.3675 c 0,1.485 0.4725,3.0375 1.755,3.0375 0.8325,0 1.5525,-0.45 2.16,-1.0125 z"
         style="line-height:1.25"
         id="path108" />
      <path
         d="m 388.8654,133.62064 c 0,-3.4425 -1.53,-5.2875 -4.3425,-5.2875 -2.835,0 -4.365,1.845 -4.365,5.2875 0,3.4425 1.53,5.2875 4.365,5.2875 2.8125,0 4.3425,-1.845 4.3425,-5.2875 z m -1.98,0 c 0,2.8125 -0.8325,4.3425 -2.3625,4.3425 -1.5525,0 -2.385,-1.53 -2.385,-4.3425 0,-2.8125 0.8325,-4.3425 2.385,-4.3425 1.53,0 2.3625,1.53 2.3625,4.3425 z"
         style="line-height:1.25"
         id="path110" />
      <path
         d="m 397.5054,129.95314 v -1.395 c -0.2475,-0.09 -0.5175,-0.1575 -0.765,-0.1575 -1.26,0 -2.2725,0.8775 -3.0825,1.845 v -1.6875 h -1.755 v 10.125 h 1.755 v -7.4925 c 0.675,-0.7875 1.53,-1.4625 2.565,-1.4625 0.4275,0 0.8775,0.09 1.2825,0.225 z"
         style="line-height:1.25"
         id="path112" />
    </g>
  </g>
</svg>
