<?xml version="1.0" encoding="UTF-8" standalone="no"?>
<!-- Created with Inkscape (http://www.inkscape.org/) -->

<svg
   width="89.589005mm"
   height="35.282001mm"
   id="svg2"
   version="1.1"
   viewBox="0 0 317.44135 125.01497"
   xmlns="http://www.w3.org/2000/svg"
   xmlns:svg="http://www.w3.org/2000/svg"
   xmlns:rdf="http://www.w3.org/1999/02/22-rdf-syntax-ns#"
   xmlns:cc="http://creativecommons.org/ns#"
   xmlns:dc="http://purl.org/dc/elements/1.1/">
  <defs
     id="defs4" />
  <metadata
     id="metadata7">
    <rdf:RDF>
      <cc:Work
         rdf:about="">
        <dc:format>image/svg+xml</dc:format>
        <dc:type
           rdf:resource="http://purl.org/dc/dcmitype/StillImage" />
        <dc:title />
      </cc:Work>
    </rdf:RDF>
  </metadata>
  <g
     id="layer1"
     transform="translate(-139.63781,-77.453124)">
    <path
       id="rect4876"
       style="fill:#afdde9;stroke:#000000;stroke-width:0.999213;stroke-linecap:round"
       d="M 191.33858,85.039345 H 407.48032 V 194.88187 H 191.33858 Z" />
    <path
       id="path4828"
       d="m 400.3937,95.669272 h 10.62992 l 7.08661,7.086598 -7.08661,7.08661 H 400.3937 Z"
       style="fill:#afdde9;fill-opacity:1;stroke:#000000;stroke-width:1px;stroke-linecap:butt;stroke-linejoin:miter;stroke-opacity:1" />
    <g
       aria-label="appui"
       id="text4830"
       style="line-height:0%;font-family:Iwona;-inkscape-font-specification:Iwona;letter-spacing:0px;word-spacing:0px">
      <path
         d="m 426.9136,106.29922 v -3.40928 c 0,-1.14455 -0.70621,-2.19168 -1.76552,-2.19168 -0.77927,0 -1.50983,0.26787 -2.16733,0.68185 v 0.37746 c 0.54792,-0.3044 1.15672,-0.49922 1.78987,-0.49922 0.75491,0 1.19325,0.80362 1.19325,1.63159 v 0.21917 c -0.47487,-0.207 -0.98626,-0.32876 -1.49765,-0.32876 -1.30283,0 -2.26474,0.59663 -2.26474,1.8264 0,1.1689 0.85232,1.81423 2.0821,1.81423 0.62098,0 1.19325,-0.28005 1.68029,-0.66968 v 0.54792 z m -0.94973,-1.05931 c -0.36528,0.36528 -0.81579,0.66968 -1.33936,0.66968 -0.81579,0 -1.35154,-0.49922 -1.35154,-1.30284 0,-0.74273 0.6088,-1.315 1.35154,-1.315 0.46269,0 0.92537,0.12176 1.33936,0.32875 z"
         style="font-size:12.176px;line-height:1.25"
         id="path28" />
      <path
         d="m 433.51298,103.55962 c 0,-1.61941 -0.6088,-2.86136 -2.0821,-2.86136 -0.62097,0 -1.19325,0.28005 -1.68029,0.66968 v -0.54792 h -0.94972 v 8.27968 h 0.94972 v -3.00747 c 0.47487,0.20699 0.98626,0.32875 1.49765,0.32875 1.522,0 2.26474,-1.2176 2.26474,-2.86136 z m -1.07149,0 c 0,1.14454 -0.3531,2.34997 -1.35154,2.34997 -0.46268,0 -0.92537,-0.12176 -1.33936,-0.32876 v -3.7015 c 0.36528,-0.36528 0.8158,-0.66968 1.33936,-0.66968 1.10802,0 1.35154,1.07149 1.35154,2.34997 z"
         style="font-size:12.176px;line-height:1.25"
         id="path30" />
      <path
         d="m 439.80795,103.55962 c 0,-1.61941 -0.6088,-2.86136 -2.0821,-2.86136 -0.62097,0 -1.19325,0.28005 -1.68029,0.66968 v -0.54792 h -0.94972 v 8.27968 h 0.94972 v -3.00747 c 0.47487,0.20699 0.98626,0.32875 1.49765,0.32875 1.522,0 2.26474,-1.2176 2.26474,-2.86136 z m -1.07149,0 c 0,1.14454 -0.3531,2.34997 -1.35154,2.34997 -0.46268,0 -0.92537,-0.12176 -1.33936,-0.32876 v -3.7015 c 0.36528,-0.36528 0.8158,-0.66968 1.33936,-0.66968 1.10802,0 1.35154,1.07149 1.35154,2.34997 z"
         style="font-size:12.176px;line-height:1.25"
         id="path32" />
      <path
         d="m 445.79852,106.29922 v -5.4792 h -0.94973 v 4.29813 c -0.41398,0.41398 -0.92537,0.74273 -1.49765,0.74273 -0.57227,0 -1.0106,-0.49921 -1.0106,-1.08366 v -3.9572 h -0.94973 v 3.9572 c 0,0.88885 0.68185,1.64376 1.55853,1.64376 0.73056,0 1.37588,-0.41399 1.89945,-0.92538 v 0.80362 z"
         style="font-size:12.176px;line-height:1.25"
         id="path34" />
      <path
         d="m 449.97487,105.87306 v -0.36528 c -0.23135,0.19481 -0.49922,0.3531 -0.80362,0.3531 -0.45051,0 -0.53574,-0.56009 -0.53574,-1.08366 v -3.9572 h -0.94973 v 3.9572 c 0,0.81579 0.31658,1.64376 1.03496,1.64376 0.46269,0 0.90102,-0.23135 1.25413,-0.54792 z m -1.2176,-6.952499 c 0,-0.328752 -0.26787,-0.596624 -0.59663,-0.596624 -0.32875,0 -0.59662,0.267872 -0.59662,0.596624 0,0.328752 0.26787,0.596624 0.59662,0.596624 0.32876,0 0.59663,-0.267872 0.59663,-0.596624 z"
         style="font-size:12.176px;line-height:1.25"
         id="path36" />
    </g>
    <path
       id="path4840"
       d="m 184.25198,95.669286 h 10.62992 l 7.08661,7.086604 -7.08661,7.08661 h -10.62992 z"
       style="fill:#afdde9;fill-opacity:1;stroke:#000000;stroke-width:1px;stroke-linecap:butt;stroke-linejoin:miter;stroke-opacity:1" />
    <g
       aria-label="bouton"
       id="text4848"
       style="line-height:0%;font-family:Iwona;-inkscape-font-specification:Iwona;text-align:end;letter-spacing:0px;word-spacing:0px;text-anchor:end">
      <path
         d="m 151.42546,103.55959 c 0,-1.61941 -0.6088,-2.86136 -2.0821,-2.86136 -0.62097,0 -1.19325,0.28004 -1.68029,0.66968 v -3.591923 h -0.94972 v 8.523203 h 0.94972 v -0.28005 c 0.46269,0.24352 0.97408,0.40181 1.49765,0.40181 1.522,0 2.26474,-1.2176 2.26474,-2.86136 z m -1.07149,0 c 0,1.14454 -0.3531,2.34996 -1.35154,2.34996 -0.47486,0 -0.93755,-0.15828 -1.33936,-0.4018 v -3.62845 c 0.36528,-0.36528 0.8158,-0.66968 1.33936,-0.66968 1.10802,0 1.35154,1.07149 1.35154,2.34997 z"
         style="font-size:12.176px;line-height:1.25"
         id="path39" />
      <path
         d="m 157.47692,103.55959 c 0,-1.86293 -0.82797,-2.86136 -2.34997,-2.86136 -1.53417,0 -2.36214,0.99843 -2.36214,2.86136 0,1.86292 0.82797,2.86136 2.36214,2.86136 1.522,0 2.34997,-0.99844 2.34997,-2.86136 z m -1.07149,0 c 0,1.522 -0.45051,2.34996 -1.27848,2.34996 -0.84014,0 -1.29065,-0.82796 -1.29065,-2.34996 0,-1.522 0.45051,-2.34997 1.29065,-2.34997 0.82797,0 1.27848,0.82797 1.27848,2.34997 z"
         style="font-size:12.176px;line-height:1.25"
         id="path41" />
      <path
         d="m 163.46751,106.29919 v -5.4792 h -0.94973 v 4.29812 c -0.41398,0.41399 -0.92537,0.74274 -1.49764,0.74274 -0.57228,0 -1.01061,-0.49922 -1.01061,-1.08366 v -3.9572 h -0.94973 v 3.9572 c 0,0.88884 0.68186,1.64376 1.55853,1.64376 0.73056,0 1.37589,-0.41399 1.89945,-0.92538 v 0.80362 z"
         style="font-size:12.176px;line-height:1.25"
         id="path43" />
      <path
         d="m 167.99696,105.87303 v -0.36528 c -0.19481,0.19481 -0.42616,0.3531 -0.70621,0.3531 -0.43833,0 -0.46268,-0.57227 -0.46268,-1.08366 v -3.44581 h 1.16889 v -0.51139 h -1.16889 v -1.826403 h -0.57228 c 0,0.97408 -0.56009,1.887283 -1.44894,1.887283 v 0.45051 h 1.07149 v 3.44581 c 0,0.80361 0.25569,1.64376 0.94973,1.64376 0.45051,0 0.84014,-0.24352 1.16889,-0.54792 z"
         style="font-size:12.176px;line-height:1.25"
         id="path45" />
      <path
         d="m 173.74402,103.55959 c 0,-1.86293 -0.82797,-2.86136 -2.34997,-2.86136 -1.53418,0 -2.36215,0.99843 -2.36215,2.86136 0,1.86292 0.82797,2.86136 2.36215,2.86136 1.522,0 2.34997,-0.99844 2.34997,-2.86136 z m -1.07149,0 c 0,1.522 -0.45051,2.34996 -1.27848,2.34996 -0.84015,0 -1.29066,-0.82796 -1.29066,-2.34996 0,-1.522 0.45051,-2.34997 1.29066,-2.34997 0.82797,0 1.27848,0.82797 1.27848,2.34997 z"
         style="font-size:12.176px;line-height:1.25"
         id="path47" />
      <path
         d="m 179.79548,106.29919 v -3.9572 c 0,-0.88885 -0.68185,-1.64376 -1.55852,-1.64376 -0.73056,0 -1.37589,0.41398 -1.89946,0.92537 v -0.80361 h -0.94973 v 5.4792 h 0.94973 v -4.29813 c 0.41398,-0.41399 0.92538,-0.74274 1.49765,-0.74274 0.57227,0 1.01061,0.49922 1.01061,1.08367 v 3.9572 z"
         style="font-size:12.176px;line-height:1.25"
         id="path49" />
    </g>
    <path
       id="path4864"
       d="m 184.25197,148.81888 h 10.62992 l 7.08661,7.0866 -7.08661,7.08661 h -10.62992 z"
       style="fill:#afdde9;fill-opacity:1;stroke:#000000;stroke-width:1px;stroke-linecap:butt;stroke-linejoin:miter;stroke-opacity:1" />
    <path
       style="fill:#afdde9;fill-opacity:1;stroke:#000000;stroke-width:1px;stroke-linecap:butt;stroke-linejoin:miter;stroke-opacity:1"
       d="m 184.25197,170.0787 h 10.62992 l 7.08661,7.0866 -7.08661,7.08661 h -10.62992 z"
       id="path4866" />
    <g
       aria-label="clk"
       id="text4868"
       style="line-height:0%;font-family:Iwona;-inkscape-font-specification:Iwona;text-align:end;letter-spacing:0px;word-spacing:0px;text-anchor:end">
      <path
         d="m 171.08967,155.2359 v -0.5114 c -0.38963,-0.54792 -1.02279,-0.87667 -1.70464,-0.87667 -1.522,0 -2.54479,1.14455 -2.54479,2.86136 0,1.71682 1.02279,2.86136 2.54479,2.86136 0.63315,0 1.22977,-0.31657 1.58288,-0.84014 v -0.51139 c -0.41399,0.62097 -0.84015,0.84014 -1.58288,0.84014 -0.87667,0 -1.4733,-0.93755 -1.4733,-2.34997 0,-1.41241 0.59663,-2.34997 1.4733,-2.34997 0.75491,0 1.2663,0.26788 1.70464,0.87668 z"
         style="font-size:12.176px;line-height:1.25"
         id="path52" />
      <path
         d="m 174.65722,159.02263 v -0.36528 c -0.23134,0.19482 -0.49921,0.35311 -0.80361,0.35311 -0.45052,0 -0.53575,-0.5601 -0.53575,-1.08367 v -7.0012 h -0.94972 v 7.0012 c 0,0.81579 0.31657,1.64376 1.03495,1.64376 0.46269,0 0.90103,-0.23134 1.25413,-0.54792 z"
         style="font-size:12.176px;line-height:1.25"
         id="path54" />
      <path
         d="m 180.58691,159.44879 -2.82483,-3.25099 2.72742,-2.22821 h -0.75491 l -2.91006,2.3865 v -5.4305 h -0.94973 v 8.5232 h 0.94973 v -3.03182 l 2.63001,3.03182 z"
         style="font-size:12.176px;line-height:1.25"
         id="path56" />
    </g>
    <g
       aria-label="reset"
       id="text4872"
       style="line-height:0%;font-family:Iwona;-inkscape-font-specification:Iwona;text-align:end;letter-spacing:0px;word-spacing:0px;text-anchor:end">
      <path
         d="m 159.33986,175.98433 v -0.75491 c -0.13394,-0.0487 -0.28005,-0.0852 -0.41399,-0.0852 -0.68185,0 -1.22977,0.47486 -1.66811,0.99843 v -0.9132 h -0.94973 v 5.4792 h 0.94973 v -4.05461 c 0.36528,-0.42616 0.82797,-0.79144 1.38807,-0.79144 0.23134,0 0.47486,0.0487 0.69403,0.12176 z"
         style="font-size:12.176px;line-height:1.25"
         id="path59" />
      <path
         d="m 164.96516,178.09078 v -0.12176 c 0,-1.71682 -0.93755,-2.86136 -2.34997,-2.86136 -1.42459,0 -2.36214,1.14454 -2.36214,2.86136 0,1.71681 0.93755,2.86136 2.36214,2.86136 0.6088,0 1.20542,-0.19482 1.70464,-0.54792 v -0.51139 c -0.57227,0.36528 -1.03496,0.49921 -1.70464,0.49921 -1.03496,0 -1.29066,-0.98625 -1.29066,-2.1795 z m -1.07149,-0.51139 h -2.56914 c 0,-0.97408 0.41399,-1.96034 1.29066,-1.96034 0.8645,0 1.27848,0.98626 1.27848,1.96034 z"
         style="font-size:12.176px;line-height:1.25"
         id="path61" />
      <path
         d="m 170.24953,179.15009 c 0,-0.9619 -1.02279,-1.46112 -2.02122,-1.70464 -0.58445,-0.14611 -1.2176,-0.38963 -1.2176,-0.9619 0,-0.52357 0.53575,-0.8645 1.12019,-0.8645 0.64533,0 1.29066,0.19482 1.8264,0.54792 v -0.51139 c -0.53574,-0.35311 -1.18107,-0.54792 -1.8264,-0.54792 -1.05931,0 -2.03339,0.64533 -2.03339,1.63158 0,0.88885 0.98626,1.30283 1.92381,1.53418 0.64533,0.15829 1.31501,0.49921 1.31501,1.12019 0,0.57227 -0.58445,0.92538 -1.20543,0.92538 -0.75491,0 -1.48547,-0.18264 -2.1308,-0.54792 v 0.51139 c 0.64533,0.36528 1.37589,0.54792 2.1308,0.54792 1.09584,0 2.11863,-0.65751 2.11863,-1.68029 z"
         style="font-size:12.176px;line-height:1.25"
         id="path63" />
      <path
         d="m 176.17923,178.09078 v -0.12176 c 0,-1.71682 -0.93756,-2.86136 -2.34997,-2.86136 -1.42459,0 -2.36215,1.14454 -2.36215,2.86136 0,1.71681 0.93756,2.86136 2.36215,2.86136 0.6088,0 1.20542,-0.19482 1.70464,-0.54792 v -0.51139 c -0.57227,0.36528 -1.03496,0.49921 -1.70464,0.49921 -1.03496,0 -1.29066,-0.98625 -1.29066,-2.1795 z m -1.07149,-0.51139 h -2.56914 c 0,-0.97408 0.41399,-1.96034 1.29066,-1.96034 0.86449,0 1.27848,0.98626 1.27848,1.96034 z"
         style="font-size:12.176px;line-height:1.25"
         id="path65" />
      <path
         d="m 180.3434,180.28246 v -0.36528 c -0.19481,0.19481 -0.42616,0.3531 -0.70621,0.3531 -0.43833,0 -0.46268,-0.57227 -0.46268,-1.08366 v -3.44581 h 1.16889 v -0.51139 h -1.16889 v -1.8264 h -0.57228 c 0,0.97408 -0.56009,1.88728 -1.44894,1.88728 v 0.45051 h 1.07149 v 3.44581 c 0,0.80361 0.25569,1.64376 0.94973,1.64376 0.45051,0 0.84014,-0.24352 1.16889,-0.54792 z"
         style="font-size:12.176px;line-height:1.25"
         id="path67" />
    </g>
    <g
       aria-label="DetecteurAppui"
       id="text4878"
       style="line-height:0%;font-family:Iwona;-inkscape-font-specification:Iwona;text-align:center;letter-spacing:0px;word-spacing:0px;text-anchor:middle">
      <path
         d="m 224.89035,128.87943 c 0,-5.99427 -3.27724,-10.08382 -9.04742,-10.08382 -1.73666,0 -3.47331,0.084 -5.18196,0.28011 h -2.24085 v 19.60742 h 2.24085 c 1.70865,0.19607 3.4453,0.2801 5.18196,0.2801 5.77018,0 9.04742,-4.08955 9.04742,-10.08381 z m -2.74503,0 c 0,4.45368 -2.26886,8.79532 -6.30239,8.79532 -1.70865,0 -3.41729,-0.084 -5.12594,-0.2801 V 120.3642 c 1.70865,-0.19607 3.41729,-0.2801 5.12594,-0.2801 4.03353,0 6.30239,4.34164 6.30239,8.79533 z"
         style="font-size:28.0106px;line-height:1.25"
         id="path70" />
      <path
         d="m 238.95165,132.66086 v -0.28011 c 0,-3.94949 -2.15681,-6.58249 -5.40604,-6.58249 -3.27724,0 -5.43406,2.633 -5.43406,6.58249 0,3.9495 2.15682,6.58249 5.43406,6.58249 1.40053,0 2.77305,-0.44817 3.92148,-1.26047 v -1.17645 c -1.3165,0.84032 -2.3809,1.14843 -3.92148,1.14843 -2.3809,0 -2.96913,-2.26885 -2.96913,-5.01389 z m -2.46493,-1.17645 h -5.91024 c 0,-2.24085 0.95236,-4.5097 2.96913,-4.5097 1.98875,0 2.94111,2.26885 2.94111,4.5097 z"
         style="font-size:28.0106px;line-height:1.25"
         id="path72" />
      <path
         d="m 248.53124,137.70277 v -0.84032 c -0.44817,0.44817 -0.98037,0.8123 -1.62461,0.8123 -1.00838,0 -1.06441,-1.31649 -1.06441,-2.49294 v -7.927 h 2.68902 v -1.17644 h -2.68902 v -4.20159 h -1.31649 c 0,2.24084 -1.28849,4.34164 -3.33326,4.34164 v 1.03639 h 2.46493 v 7.927 c 0,1.8487 0.58822,3.78143 2.18482,3.78143 1.0364,0 1.93274,-0.56021 2.68902,-1.26047 z"
         style="font-size:28.0106px;line-height:1.25"
         id="path74" />
      <path
         d="m 261.7522,132.66086 v -0.28011 c 0,-3.94949 -2.15681,-6.58249 -5.40604,-6.58249 -3.27724,0 -5.43406,2.633 -5.43406,6.58249 0,3.9495 2.15682,6.58249 5.43406,6.58249 1.40053,0 2.77305,-0.44817 3.92148,-1.26047 v -1.17645 c -1.3165,0.84032 -2.3809,1.14843 -3.92148,1.14843 -2.3809,0 -2.96913,-2.26885 -2.96913,-5.01389 z m -2.46493,-1.17645 h -5.91024 c 0,-2.24085 0.95236,-4.5097 2.96913,-4.5097 1.98875,0 2.94111,2.26885 2.94111,4.5097 z"
         style="font-size:28.0106px;line-height:1.25"
         id="path76" />
      <path
         d="m 274.46898,128.99147 v -1.17645 c -0.89634,-1.26047 -2.35289,-2.01676 -3.92149,-2.01676 -3.50132,0 -5.85421,2.633 -5.85421,6.58249 0,3.9495 2.35289,6.58249 5.85421,6.58249 1.45656,0 2.82907,-0.72827 3.64138,-1.93273 v -1.17644 c -0.95236,1.42854 -1.93273,1.93273 -3.64138,1.93273 -2.01676,0 -3.38928,-2.15682 -3.38928,-5.40605 0,-3.24923 1.37252,-5.40604 3.38928,-5.40604 1.73666,0 2.91311,0.61623 3.92149,2.01676 z"
         style="font-size:28.0106px;line-height:1.25"
         id="path78" />
      <path
         d="m 283.34831,137.70277 v -0.84032 c -0.44817,0.44817 -0.98037,0.8123 -1.62461,0.8123 -1.00838,0 -1.06441,-1.31649 -1.06441,-2.49294 v -7.927 h 2.68902 v -1.17644 h -2.68902 v -4.20159 h -1.31649 c 0,2.24084 -1.28849,4.34164 -3.33326,4.34164 v 1.03639 h 2.46493 v 7.927 c 0,1.8487 0.58822,3.78143 2.18482,3.78143 1.0364,0 1.93274,-0.56021 2.68902,-1.26047 z"
         style="font-size:28.0106px;line-height:1.25"
         id="path80" />
      <path
         d="m 296.56927,132.66086 v -0.28011 c 0,-3.94949 -2.15681,-6.58249 -5.40604,-6.58249 -3.27724,0 -5.43406,2.633 -5.43406,6.58249 0,3.9495 2.15682,6.58249 5.43406,6.58249 1.40053,0 2.77305,-0.44817 3.92148,-1.26047 v -1.17645 c -1.3165,0.84032 -2.3809,1.14843 -3.92148,1.14843 -2.3809,0 -2.96913,-2.26885 -2.96913,-5.01389 z m -2.46493,-1.17645 h -5.91024 c 0,-2.24085 0.95236,-4.5097 2.96913,-4.5097 1.98875,0 2.94111,2.26885 2.94111,4.5097 z"
         style="font-size:28.0106px;line-height:1.25"
         id="path82" />
      <path
         d="m 310.2104,138.68314 v -12.60477 h -2.18483 v 9.88774 c -0.95236,0.95236 -2.1288,1.70864 -3.4453,1.70864 -1.3165,0 -2.32488,-1.14843 -2.32488,-2.49294 v -9.10344 h -2.18483 v 9.10344 c 0,2.04477 1.5686,3.78143 3.58536,3.78143 1.68064,0 3.1652,-0.95236 4.36965,-2.1288 v 1.8487 z"
         style="font-size:28.0106px;line-height:1.25"
         id="path84" />
      <path
         d="m 321.66669,127.81502 v -1.73665 c -0.30812,-0.11205 -0.64425,-0.19608 -0.95236,-0.19608 -1.5686,0 -2.82907,1.09242 -3.83746,2.29687 v -2.10079 h -2.18482 v 12.60477 h 2.18482 v -9.32753 c 0.84032,-0.98037 1.90473,-1.82069 3.19321,-1.82069 0.5322,0 1.09242,0.11204 1.59661,0.2801 z"
         style="font-size:28.0106px;line-height:1.25"
         id="path86" />
      <path
         d="m 339.31334,138.68314 -7.11469,-19.60742 h -2.43693 l -7.25474,19.60742 h 1.37252 l 2.54896,-6.8626 h 7.95501 l 2.49295,6.8626 z m -5.40605,-8.15109 h -7.00265 l 3.52934,-9.57962 z"
         style="font-size:28.0106px;line-height:1.25"
         id="path88" />
      <path
         d="m 352.53431,132.38075 c 0,-3.72541 -1.40053,-6.58249 -4.78981,-6.58249 -1.42854,0 -2.74504,0.64424 -3.86547,1.54058 v -1.26047 h -2.18482 v 19.0472 h 2.18482 v -6.91861 c 1.09242,0.47618 2.26886,0.75628 3.44531,0.75628 3.50132,0 5.20997,-2.80106 5.20997,-6.58249 z m -2.46493,0 c 0,2.633 -0.81231,5.40605 -3.10918,5.40605 -1.0644,0 -2.12881,-0.28011 -3.08117,-0.75629 v -8.51522 c 0.84032,-0.84032 1.87671,-1.54058 3.08117,-1.54058 2.54896,0 3.10918,2.46493 3.10918,5.40604 z"
         style="font-size:28.0106px;line-height:1.25"
         id="path90" />
      <path
         d="m 367.01574,132.38075 c 0,-3.72541 -1.40053,-6.58249 -4.78981,-6.58249 -1.42854,0 -2.74504,0.64424 -3.86547,1.54058 v -1.26047 h -2.18482 v 19.0472 h 2.18482 v -6.91861 c 1.09242,0.47618 2.26886,0.75628 3.44531,0.75628 3.50132,0 5.20997,-2.80106 5.20997,-6.58249 z m -2.46493,0 c 0,2.633 -0.81231,5.40605 -3.10918,5.40605 -1.0644,0 -2.12881,-0.28011 -3.08117,-0.75629 v -8.51522 c 0.84032,-0.84032 1.87671,-1.54058 3.08117,-1.54058 2.54896,0 3.10918,2.46493 3.10918,5.40604 z"
         style="font-size:28.0106px;line-height:1.25"
         id="path92" />
      <path
         d="m 380.7969,138.68314 v -12.60477 h -2.18482 v 9.88774 c -0.95236,0.95236 -2.12881,1.70864 -3.44531,1.70864 -1.31649,0 -2.32488,-1.14843 -2.32488,-2.49294 v -9.10344 h -2.18482 v 9.10344 c 0,2.04477 1.56859,3.78143 3.58535,3.78143 1.68064,0 3.1652,-0.95236 4.36966,-2.1288 v 1.8487 z"
         style="font-size:28.0106px;line-height:1.25"
         id="path94" />
      <path
         d="m 390.40449,137.70277 v -0.84032 c -0.5322,0.44817 -1.14843,0.8123 -1.8487,0.8123 -1.03639,0 -1.23247,-1.28848 -1.23247,-2.49294 v -9.10344 h -2.18482 v 9.10344 c 0,1.87671 0.72827,3.78143 2.3809,3.78143 1.0644,0 2.07278,-0.5322 2.88509,-1.26047 z m -2.80106,-15.99406 c 0,-0.75628 -0.61623,-1.37252 -1.37252,-1.37252 -0.75629,0 -1.37252,0.61624 -1.37252,1.37252 0,0.75629 0.61623,1.37252 1.37252,1.37252 0.75629,0 1.37252,-0.61623 1.37252,-1.37252 z"
         style="font-size:28.0106px;line-height:1.25"
         id="path96" />
    </g>
  </g>
</svg>
