<?xml version="1.0" encoding="UTF-8" standalone="no"?>
<!-- Created with Inkscape (http://www.inkscape.org/) -->

<svg
   width="170.46495mm"
   height="189.28223mm"
   id="svg2"
   version="1.1"
   viewBox="0 0 604.00967 670.68505"
   xmlns="http://www.w3.org/2000/svg"
   xmlns:svg="http://www.w3.org/2000/svg"
   xmlns:rdf="http://www.w3.org/1999/02/22-rdf-syntax-ns#"
   xmlns:cc="http://creativecommons.org/ns#"
   xmlns:dc="http://purl.org/dc/elements/1.1/">
  <defs
     id="defs4">
    <marker
       orient="auto"
       refY="0"
       refX="0"
       id="DotM"
       style="overflow:visible">
      <path
         id="path4169"
         d="m -2.5,-1 c 0,2.76 -2.24,5 -5,5 -2.76,0 -5,-2.24 -5,-5 0,-2.76 2.24,-5 5,-5 2.76,0 5,2.24 5,5 z"
         style="fill-rule:evenodd;stroke:#000000;stroke-width:1.00000003pt;marker-start:none;marker-end:none"
         transform="matrix(0.4,0,0,0.4,2.96,0.4)" />
    </marker>
    <marker
       orient="auto"
       refY="0"
       refX="0"
       id="Arrow1Mend"
       style="overflow:visible">
      <path
         id="path4113"
         d="M 0,0 5,-5 -12.5,0 5,5 Z"
         style="fill-rule:evenodd;stroke:#000000;stroke-width:1.00000003pt;marker-start:none"
         transform="matrix(-0.4,0,0,-0.4,-4,0)" />
    </marker>
  </defs>
  <metadata
     id="metadata7">
    <rdf:RDF>
      <cc:Work
         rdf:about="">
        <dc:format>image/svg+xml</dc:format>
        <dc:type
           rdf:resource="http://purl.org/dc/dcmitype/StillImage" />
        <dc:title />
      </cc:Work>
    </rdf:RDF>
  </metadata>
  <g
     id="layer1"
     transform="translate(-226.41808,-307.7677)">
    <path
       id="rect8205"
       style="fill:#faf0f0;stroke:#000000;stroke-linecap:round;stroke-linejoin:round;stroke-dasharray:2, 4"
       d="m 364.96066,896.45667 h 162.99207 c 5.88899,0 10.62994,4.74095 10.62994,10.62993 v 53.14958 c 0,5.88899 -4.74095,10.62994 -10.62994,10.62994 H 364.96066 c -5.88899,0 -10.62994,-4.74095 -10.62994,-10.62994 V 907.0866 c 0,-5.88898 4.74095,-10.62993 10.62994,-10.62993 z" />
    <path
       id="rect8201"
       style="fill:#faf0f0;stroke:#000000;stroke-linecap:round;stroke-linejoin:round;stroke-dasharray:2, 4"
       d="m 457.08663,595.27557 h 191.33868 c 5.88899,0 10.62994,4.74096 10.62994,10.62994 v 265.74751 c 0,5.88899 -4.74095,10.62994 -10.62994,10.62994 H 457.08663 c -5.88898,0 -10.62993,-4.74095 -10.62993,-10.62994 V 605.90551 c 0,-5.88898 4.74095,-10.62994 10.62993,-10.62994 z" />
    <path
       id="rect8179"
       style="fill:#faf0f0;stroke:#000000;stroke-linecap:round;stroke-linejoin:round;stroke-dasharray:2, 4"
       d="m 457.08663,403.93698 h 191.33856 c 5.88899,0 10.62994,4.74095 10.62994,10.62994 v 155.90545 c 0,5.88899 -4.74095,10.62994 -10.62994,10.62994 H 457.08663 c -5.88898,0 -10.62993,-4.74095 -10.62993,-10.62994 V 414.56692 c 0,-5.88899 4.74095,-10.62994 10.62993,-10.62994 z" />
    <path
       id="rect5807"
       style="fill:#faf0f0;stroke:#000000;stroke-linecap:round;stroke-linejoin:round;stroke-dasharray:2, 4"
       d="m 364.96069,315.35431 h 191.33856 c 5.88898,0 10.62993,4.74095 10.62993,10.62994 v 53.14957 c 0,5.88898 -4.74095,10.62994 -10.62993,10.62994 H 364.96069 c -5.88899,0 -10.62994,-4.74096 -10.62994,-10.62994 v -53.14957 c 0,-5.88899 4.74095,-10.62994 10.62994,-10.62994 z" />
    <g
       transform="translate(134.64569,396.85045)"
       id="g5631">
      <path
         id="path5633"
         d="m 180.70866,102.75588 7.08662,7.08662 -7.08662,7.08661 v 0"
         style="fill:none;stroke:#000000;stroke-width:1px;stroke-linecap:butt;stroke-linejoin:miter;stroke-opacity:1" />
      <path
         style="fill:none;stroke:#000000;stroke-width:1px;stroke-linecap:butt;stroke-linejoin:miter;stroke-opacity:1"
         d="m 184.25196,102.75588 7.08662,7.08662 -7.08662,7.08661 v 0"
         id="path5635" />
    </g>
    <path
       id="path9946"
       d="m 382.67719,499.60631 h 14.1732 v 14.1732 h -14.1732 z"
       style="fill:#afdde9;fill-opacity:1;stroke:#000000;stroke-width:1px;stroke-linecap:butt;stroke-linejoin:miter;stroke-opacity:1" />
    <g
       aria-label="evt_plus"
       id="text9948"
       style="line-height:0%;font-family:Iwona;-inkscape-font-specification:Iwona;text-align:center;letter-spacing:0px;word-spacing:0px;text-anchor:middle">
      <path
         d="m 374.00809,489.90197 v -0.12176 c 0,-1.71682 -0.93755,-2.86136 -2.34997,-2.86136 -1.42459,0 -2.36214,1.14454 -2.36214,2.86136 0,1.71681 0.93755,2.86136 2.36214,2.86136 0.6088,0 1.20542,-0.19482 1.70464,-0.54792 v -0.5114 c -0.57227,0.36528 -1.03496,0.49922 -1.70464,0.49922 -1.03496,0 -1.29066,-0.98626 -1.29066,-2.1795 z m -1.07149,-0.5114 h -2.56914 c 0,-0.97408 0.41399,-1.96033 1.29066,-1.96033 0.8645,0 1.27848,0.98625 1.27848,1.96033 z"
         style="font-size:12.176px;line-height:1.25"
         id="path162" />
      <path
         d="m 379.45074,487.04061 h -0.54792 l -1.65593,4.55382 -1.60723,-4.55382 h -0.90103 l 1.92381,5.4792 h 0.79144 z"
         style="font-size:12.176px;line-height:1.25"
         id="path164" />
      <path
         d="m 383.12789,492.09365 v -0.36528 c -0.19481,0.19481 -0.42616,0.3531 -0.70621,0.3531 -0.43833,0 -0.46268,-0.57227 -0.46268,-1.08366 V 487.552 h 1.16889 v -0.51139 H 381.959 v -1.8264 h -0.57228 c 0,0.97408 -0.56009,1.88728 -1.44894,1.88728 v 0.45051 h 1.07149 v 3.44581 c 0,0.80361 0.25569,1.64376 0.94973,1.64376 0.45051,0 0.84014,-0.24352 1.16889,-0.54792 z"
         style="font-size:12.176px;line-height:1.25"
         id="path166" />
      <path
         d="m 389.58115,493.92005 v -0.6088 h -6.088 v 0.6088 z"
         style="font-size:12.176px;line-height:1.25"
         id="path168" />
      <path
         d="m 395.20644,489.78021 c 0,-1.61941 -0.6088,-2.86136 -2.08209,-2.86136 -0.62098,0 -1.19325,0.28004 -1.68029,0.66968 v -0.54792 h -0.94973 v 8.27968 h 0.94973 v -3.00748 c 0.47486,0.207 0.98625,0.32876 1.49765,0.32876 1.522,0 2.26473,-1.2176 2.26473,-2.86136 z m -1.07149,0 c 0,1.14454 -0.3531,2.34996 -1.35153,2.34996 -0.46269,0 -0.92538,-0.12176 -1.33936,-0.32875 v -3.7015 c 0.36528,-0.36528 0.81579,-0.66968 1.33936,-0.66968 1.10801,0 1.35153,1.07149 1.35153,2.34997 z"
         style="font-size:12.176px;line-height:1.25"
         id="path170" />
      <path
         d="m 399.13927,492.09365 v -0.36528 c -0.23134,0.19481 -0.49922,0.3531 -0.80362,0.3531 -0.45051,0 -0.53574,-0.5601 -0.53574,-1.08366 v -7.0012 h -0.94973 v 7.0012 c 0,0.81579 0.31658,1.64376 1.03496,1.64376 0.46269,0 0.90103,-0.23135 1.25413,-0.54792 z"
         style="font-size:12.176px;line-height:1.25"
         id="path172" />
      <path
         d="m 404.70368,492.51981 v -5.4792 h -0.94973 v 4.29812 c -0.41398,0.41399 -0.92537,0.74274 -1.49765,0.74274 -0.57227,0 -1.0106,-0.49922 -1.0106,-1.08366 v -3.9572 h -0.94973 v 3.9572 c 0,0.88884 0.68185,1.64376 1.55853,1.64376 0.73056,0 1.37588,-0.41399 1.89945,-0.92538 v 0.80362 z"
         style="font-size:12.176px;line-height:1.25"
         id="path174" />
      <path
         d="m 410.35332,490.96128 c 0,-0.96191 -1.02278,-1.46112 -2.02121,-1.70464 -0.58445,-0.14611 -1.2176,-0.38963 -1.2176,-0.96191 0,-0.52356 0.53574,-0.86449 1.12019,-0.86449 0.64533,0 1.29065,0.19481 1.8264,0.54792 v -0.51139 c -0.53575,-0.35311 -1.18107,-0.54792 -1.8264,-0.54792 -1.05931,0 -2.03339,0.64532 -2.03339,1.63158 0,0.88885 0.98625,1.30283 1.9238,1.53418 0.64533,0.15828 1.31501,0.49921 1.31501,1.12019 0,0.57227 -0.58445,0.92537 -1.20542,0.92537 -0.75491,0 -1.48547,-0.18264 -2.1308,-0.54792 v 0.5114 c 0.64533,0.36528 1.37589,0.54792 2.1308,0.54792 1.09584,0 2.11862,-0.65751 2.11862,-1.68029 z"
         style="font-size:12.176px;line-height:1.25"
         id="path176" />
    </g>
    <path
       id="path9952"
       d="m 325.98429,506.69291 h 56.6929"
       style="fill:none;stroke:#000000;stroke-width:1px;stroke-linecap:butt;stroke-linejoin:miter;stroke-opacity:1;marker-end:url(#Arrow1Mend)" />
    <path
       id="path10004"
       d="m 279.92126,343.70078 h 14.1732 v 14.1732 h -14.1732 z"
       style="fill:#afdde9;fill-opacity:1;stroke:#000000;stroke-width:1px;stroke-linecap:butt;stroke-linejoin:miter;stroke-opacity:1" />
    <g
       aria-label="state_reg"
       id="text10006"
       style="line-height:0%;font-family:Iwona;-inkscape-font-specification:Iwona;text-align:center;letter-spacing:0px;word-spacing:0px;text-anchor:middle">
      <path
         d="m 267.69668,335.05573 c 0,-0.9619 -1.02278,-1.46112 -2.02121,-1.70464 -0.58445,-0.14611 -1.2176,-0.38963 -1.2176,-0.9619 0,-0.52357 0.53574,-0.8645 1.12019,-0.8645 0.64533,0 1.29065,0.19482 1.8264,0.54792 v -0.51139 c -0.53575,-0.35311 -1.18107,-0.54792 -1.8264,-0.54792 -1.05931,0 -2.03339,0.64533 -2.03339,1.63158 0,0.88885 0.98625,1.30283 1.9238,1.53418 0.64533,0.15829 1.31501,0.49921 1.31501,1.12019 0,0.57227 -0.58445,0.92538 -1.20542,0.92538 -0.75491,0 -1.48547,-0.18264 -2.1308,-0.54792 v 0.51139 c 0.64533,0.36528 1.37589,0.54792 2.1308,0.54792 1.09584,0 2.11862,-0.65751 2.11862,-1.68029 z"
         style="font-size:12.176px;line-height:1.25"
         id="path179" />
      <path
         d="m 271.79998,336.1881 v -0.36528 c -0.19481,0.19481 -0.42616,0.3531 -0.70621,0.3531 -0.43833,0 -0.46268,-0.57227 -0.46268,-1.08366 v -3.44581 h 1.16889 v -0.51139 h -1.16889 v -1.8264 h -0.57228 c 0,0.97408 -0.56009,1.88728 -1.44894,1.88728 v 0.45051 h 1.07149 v 3.44581 c 0,0.80361 0.25569,1.64376 0.94973,1.64376 0.45051,0 0.84014,-0.24352 1.16889,-0.54792 z"
         style="font-size:12.176px;line-height:1.25"
         id="path181" />
      <path
         d="m 277.42528,336.61426 v -3.40928 c 0,-1.14455 -0.70621,-2.19168 -1.76552,-2.19168 -0.77927,0 -1.50983,0.26787 -2.16733,0.68185 v 0.37746 c 0.54792,-0.3044 1.15672,-0.49922 1.78987,-0.49922 0.75491,0 1.19325,0.80362 1.19325,1.63159 v 0.21917 c -0.47487,-0.207 -0.98626,-0.32876 -1.49765,-0.32876 -1.30283,0 -2.26474,0.59663 -2.26474,1.8264 0,1.1689 0.85232,1.81423 2.0821,1.81423 0.62098,0 1.19325,-0.28005 1.68029,-0.66968 v 0.54792 z m -0.94973,-1.05931 c -0.36528,0.36528 -0.81579,0.66968 -1.33936,0.66968 -0.81579,0 -1.35154,-0.49922 -1.35154,-1.30284 0,-0.74273 0.6088,-1.315 1.35154,-1.315 0.46269,0 0.92537,0.12176 1.33936,0.32875 z"
         style="font-size:12.176px;line-height:1.25"
         id="path183" />
      <path
         d="m 281.95474,336.1881 v -0.36528 c -0.19482,0.19481 -0.42616,0.3531 -0.70621,0.3531 -0.43834,0 -0.46269,-0.57227 -0.46269,-1.08366 v -3.44581 h 1.1689 v -0.51139 h -1.1689 v -1.8264 h -0.57227 c 0,0.97408 -0.5601,1.88728 -1.44894,1.88728 v 0.45051 h 1.07148 v 3.44581 c 0,0.80361 0.2557,1.64376 0.94973,1.64376 0.45051,0 0.84015,-0.24352 1.1689,-0.54792 z"
         style="font-size:12.176px;line-height:1.25"
         id="path185" />
      <path
         d="m 287.70179,333.99642 v -0.12176 c 0,-1.71682 -0.93755,-2.86136 -2.34996,-2.86136 -1.4246,0 -2.36215,1.14454 -2.36215,2.86136 0,1.71681 0.93755,2.86136 2.36215,2.86136 0.60879,0 1.20542,-0.19482 1.70463,-0.54792 v -0.51139 c -0.57227,0.36528 -1.03496,0.49921 -1.70463,0.49921 -1.03496,0 -1.29066,-0.98625 -1.29066,-2.1795 z m -1.07149,-0.51139 h -2.56913 c 0,-0.97408 0.41398,-1.96034 1.29066,-1.96034 0.86449,0 1.27847,0.98626 1.27847,1.96034 z"
         style="font-size:12.176px;line-height:1.25"
         id="path187" />
      <path
         d="m 294.39858,338.0145 v -0.6088 h -6.088 v 0.6088 z"
         style="font-size:12.176px;line-height:1.25"
         id="path189" />
      <path
         d="m 298.40446,331.88997 v -0.75491 c -0.13394,-0.0487 -0.28005,-0.0852 -0.41399,-0.0852 -0.68185,0 -1.22977,0.47486 -1.66811,0.99843 v -0.9132 h -0.94973 v 5.4792 h 0.94973 v -4.05461 c 0.36528,-0.42616 0.82797,-0.79144 1.38807,-0.79144 0.23134,0 0.47486,0.0487 0.69403,0.12176 z"
         style="font-size:12.176px;line-height:1.25"
         id="path191" />
      <path
         d="m 304.02976,333.99642 v -0.12176 c 0,-1.71682 -0.93756,-2.86136 -2.34997,-2.86136 -1.42459,0 -2.36215,1.14454 -2.36215,2.86136 0,1.71681 0.93756,2.86136 2.36215,2.86136 0.6088,0 1.20542,-0.19482 1.70464,-0.54792 v -0.51139 c -0.57227,0.36528 -1.03496,0.49921 -1.70464,0.49921 -1.03496,0 -1.29066,-0.98625 -1.29066,-2.1795 z m -1.07149,-0.51139 h -2.56914 c 0,-0.97408 0.41399,-1.96034 1.29066,-1.96034 0.86449,0 1.27848,0.98626 1.27848,1.96034 z"
         style="font-size:12.176px;line-height:1.25"
         id="path193" />
      <path
         d="m 310.02033,337.34482 v -6.20976 h -0.94972 v 0.20699 c -0.47487,-0.20699 -0.98626,-0.32875 -1.49765,-0.32875 -1.522,0 -2.26474,1.2176 -2.26474,2.86136 0,1.61941 0.6088,2.86136 2.0821,2.86136 0.62097,0 1.19325,-0.28005 1.68029,-0.66968 v 1.27848 c 0,0.84014 -0.46269,1.63158 -1.2176,1.63158 -0.62098,0 -1.24196,-0.12176 -1.8264,-0.32875 v 0.37746 c 0.68185,0.31657 1.43676,0.51139 2.19168,0.51139 1.07148,0 1.80204,-1.04714 1.80204,-2.19168 z m -0.94972,-1.78987 c -0.36528,0.36528 -0.8158,0.66968 -1.33936,0.66968 -1.10802,0 -1.35154,-1.07149 -1.35154,-2.34997 0,-1.14455 0.3531,-2.34997 1.35154,-2.34997 0.46268,0 0.92537,0.12176 1.33936,0.32875 z"
         style="font-size:12.176px;line-height:1.25"
         id="path195" />
    </g>
    <path
       id="path10010"
       d="m 244.48809,350.78738 h 35.43317"
       style="fill:none;stroke:#000000;stroke-width:1px;stroke-linecap:butt;stroke-linejoin:miter;stroke-opacity:1;marker-end:url(#Arrow1Mend)" />
    <path
       style="fill:none;stroke:#000000;stroke-width:0.999213;stroke-linecap:butt;stroke-linejoin:miter;stroke-miterlimit:4;stroke-dasharray:none;stroke-opacity:1;marker-start:url(#DotM);marker-end:url(#Arrow1Mend)"
       d="m 287.00787,357.87399 v 85.03937 l 170.07872,2e-5"
       id="path6579" />
    <g
       transform="translate(365.46117,163.30717)"
       id="g7008">
      <path
         id="rect7010"
         style="fill:#f4d7d7;stroke:#000000;stroke-width:0.999212;stroke-linecap:round"
         d="M 6.5860786,162.67706 H 183.75141 v 53.1496 H 6.5860786 Z" />
      <g
         aria-label="≟ SET_MINUTES_TENS"
         id="text7012"
         style="font-size:15px;line-height:0%;font-family:Iwona;-inkscape-font-specification:Iwona;text-align:center;letter-spacing:0px;word-spacing:0px;text-anchor:middle">
        <path
           d="m 11.627829,188.00117 h 9.389648 v 1.23047 h -9.389648 z m 0,2.98829 h 9.389648 v 1.24511 h -9.389648 z m 4.130859,-4.38721 h 0.739746 v 0.93017 h -0.739746 z m 0.717773,-0.53467 h -0.6958 v -0.57129 q 0,-0.36621 0.102539,-0.60058 0.102539,-0.2417 0.432129,-0.55664 l 0.329589,-0.32227 q 0.205079,-0.19775 0.300293,-0.36621 0.09521,-0.17578 0.09521,-0.35156 0,-0.32959 -0.241699,-0.52735 -0.241699,-0.20508 -0.637207,-0.20508 -0.285645,0 -0.615234,0.13184 -0.32959,0.12451 -0.681153,0.36621 v -0.68848 q 0.344239,-0.20507 0.695801,-0.30761 0.351563,-0.10254 0.732422,-0.10254 0.673828,0 1.07666,0.35889 0.410156,0.35156 0.410156,0.93017 0,0.27832 -0.131836,0.53467 -0.131836,0.24902 -0.461425,0.56396 l -0.322266,0.31495 q -0.168457,0.16845 -0.241699,0.27099 -0.07324,0.0952 -0.102539,0.19043 -0.02197,0.0732 -0.03662,0.18311 -0.0073,0.10986 -0.0073,0.30029 z"
           style="line-height:1.25"
           id="path199" />
        <path
           d="m 36.179899,191.7677 c 0,-1.845 -1.875,-2.94 -3.81,-3.345 -1.29,-0.27 -2.745,-0.6 -2.745,-1.8 0,-1.185 1.275,-1.86 2.595,-1.86 1.215,0 2.4,0.36 3.36,1.11 v -0.6 c -0.96,-0.75 -2.145,-1.2 -3.36,-1.2 -1.95,0 -3.78,1.095 -3.78,2.865 0,1.695 1.83,2.55 3.615,2.925 1.425,0.3 2.94,0.885 2.94,2.22 0,1.365 -1.335,2.28 -2.775,2.28 -1.395,0 -2.775,-0.36 -3.945,-1.11 v 0.6 c 1.185,0.75 2.535,1.2 3.945,1.2 2.07,0 3.96,-1.335 3.96,-3.285 z"
           style="line-height:1.25"
           id="path201" />
        <path
           d="m 46.079889,194.8127 v -0.69 h -6.27 v -4.215 h 4.77 v -0.69 h -4.77 v -4.215 h 5.91 v -0.69 h -7.14 v 10.5 z"
           style="line-height:1.25"
           id="path203" />
        <path
           d="m 55.529887,185.0027 v -0.69 h -8.25 v 0.69 h 3.51 v 9.81 h 1.23 v -9.81 z"
           style="line-height:1.25"
           id="path205" />
        <path
           d="m 63.329863,196.5377 v -0.75 h -7.5 v 0.75 z"
           style="line-height:1.25"
           id="path207" />
        <path
           d="m 75.854832,194.8127 -0.6,-10.5 h -0.99 l -4.215,8.865 -4.23,-8.865 h -0.99 l -0.6,10.5 h 0.69 l 0.48,-8.505 4.065,8.505 h 0.555 l 4.11,-8.61 0.495,8.61 z"
           style="line-height:1.25"
           id="path209" />
        <path
           d="m 79.484812,194.8127 v -10.5 h -1.23 v 10.5 z"
           style="line-height:1.25"
           id="path211" />
        <path
           d="m 91.304808,194.8127 v -10.5 h -0.69 v 8.82 l -7.23,-8.82 h -0.9 v 10.5 h 0.69 v -8.82 l 7.23,8.82 z"
           style="line-height:1.25"
           id="path213" />
        <path
           d="m 102.02978,191.8727 v -7.56 h -0.69 v 7.32 c 0,1.56 -1.380003,2.73 -2.970003,2.73 -1.605,0 -2.985,-1.17 -2.985,-2.73 v -7.32 h -1.23 v 7.56 c 0,1.905 1.89,3.18 3.945,3.18 2.040003,0 3.930003,-1.275 3.930003,-3.18 z"
           style="line-height:1.25"
           id="path215" />
        <path
           d="m 111.92977,185.0027 v -0.69 h -8.25 v 0.69 h 3.51 v 9.81 h 1.23 v -9.81 z"
           style="line-height:1.25"
           id="path217" />
        <path
           d="m 121.22975,194.8127 v -0.69 h -6.27 v -4.215 h 4.77 v -0.69 h -4.77 v -4.215 h 5.91 v -0.69 h -7.14 v 10.5 z"
           style="line-height:1.25"
           id="path219" />
        <path
           d="m 130.93475,191.7677 c 0,-1.845 -1.875,-2.94 -3.81,-3.345 -1.29,-0.27 -2.745,-0.6 -2.745,-1.8 0,-1.185 1.275,-1.86 2.595,-1.86 1.215,0 2.4,0.36 3.36,1.11 v -0.6 c -0.96,-0.75 -2.145,-1.2 -3.36,-1.2 -1.95,0 -3.78,1.095 -3.78,2.865 0,1.695 1.83,2.55 3.615,2.925 1.425,0.3 2.94,0.885 2.94,2.22 0,1.365 -1.335,2.28 -2.775,2.28 -1.395,0 -2.775,-0.36 -3.945,-1.11 v 0.6 c 1.185,0.75 2.535,1.2 3.945,1.2 2.07,0 3.96,-1.335 3.96,-3.285 z"
           style="line-height:1.25"
           id="path221" />
        <path
           d="m 139.33474,196.5377 v -0.75 h -7.5 v 0.75 z"
           style="line-height:1.25"
           id="path223" />
        <path
           d="m 147.88471,185.0027 v -0.69 h -8.25 v 0.69 h 3.51 v 9.81 h 1.23 v -9.81 z"
           style="line-height:1.25"
           id="path225" />
        <path
           d="m 157.18468,194.8127 v -0.69 h -6.27 v -4.215 h 4.77 v -0.69 h -4.77 v -4.215 h 5.91 v -0.69 h -7.14 v 10.5 z"
           style="line-height:1.25"
           id="path227" />
        <path
           d="m 168.40468,194.8127 v -10.5 h -0.69 v 8.82 l -7.23,-8.82 h -0.9 v 10.5 h 0.69 v -8.82 l 7.23,8.82 z"
           style="line-height:1.25"
           id="path229" />
        <path
           d="m 178.70965,191.7677 c 0,-1.845 -1.875,-2.94 -3.81,-3.345 -1.29,-0.27 -2.745,-0.6 -2.745,-1.8 0,-1.185 1.275,-1.86 2.595,-1.86 1.215,0 2.4,0.36 3.36,1.11 v -0.6 c -0.96,-0.75 -2.145,-1.2 -3.36,-1.2 -1.95,0 -3.78,1.095 -3.78,2.865 0,1.695 1.83,2.55 3.615,2.925 1.425,0.3 2.94,0.885 2.94,2.22 0,1.365 -1.335,2.28 -2.775,2.28 -1.395,0 -2.775,-0.36 -3.945,-1.11 v 0.6 c 1.185,0.75 2.535,1.2 3.945,1.2 2.07,0 3.96,-1.335 3.96,-3.285 z"
           style="line-height:1.25"
           id="path231" />
      </g>
    </g>
    <path
       style="fill:none;stroke:#000000;stroke-width:1px;stroke-linecap:butt;stroke-linejoin:miter;stroke-opacity:1;marker-end:url(#Arrow1Mend)"
       d="m 294.09449,350.78738 h 77.95276"
       id="path11419" />
    <path
       id="path4810"
       d="m 698.0315,343.70078 h 10.62992 l 7.08661,7.0866 -7.08661,7.0866 H 698.0315 Z"
       style="fill:#afdde9;fill-opacity:1;stroke:#000000;stroke-width:1px;stroke-linecap:butt;stroke-linejoin:miter;stroke-opacity:1" />
    <g
       aria-label="led_minutes_tens_o"
       id="text4812"
       style="line-height:0%;font-family:Iwona;-inkscape-font-specification:Iwona;letter-spacing:0px;word-spacing:0px">
      <path
         d="m 722.55443,353.90465 v -0.36528 c -0.23135,0.19482 -0.49922,0.3531 -0.80362,0.3531 -0.45051,0 -0.53574,-0.56009 -0.53574,-1.08366 v -7.0012 h -0.94973 v 7.0012 c 0,0.81579 0.31658,1.64376 1.03496,1.64376 0.46269,0 0.90102,-0.23134 1.25413,-0.54792 z"
         style="font-size:12.176px;line-height:1.25"
         id="path234" />
      <path
         d="m 728.17972,351.71297 v -0.12176 c 0,-1.71682 -0.93755,-2.86136 -2.34997,-2.86136 -1.42459,0 -2.36214,1.14454 -2.36214,2.86136 0,1.71682 0.93755,2.86136 2.36214,2.86136 0.6088,0 1.20542,-0.19482 1.70464,-0.54792 v -0.51139 c -0.57227,0.36528 -1.03496,0.49921 -1.70464,0.49921 -1.03496,0 -1.29066,-0.98625 -1.29066,-2.1795 z m -1.07149,-0.51139 h -2.56914 c 0,-0.97408 0.41399,-1.96034 1.29066,-1.96034 0.8645,0 1.27848,0.98626 1.27848,1.96034 z"
         style="font-size:12.176px;line-height:1.25"
         id="path236" />
      <path
         d="m 734.17029,354.33081 v -8.5232 h -0.94972 v 3.25099 c -0.47487,-0.20699 -0.98626,-0.32875 -1.49765,-0.32875 -1.522,0 -2.26474,1.2176 -2.26474,2.86136 0,1.61941 0.6088,2.86136 2.0821,2.86136 0.62097,0 1.19325,-0.28005 1.68029,-0.66968 v 0.54792 z m -0.94972,-1.05931 c -0.36528,0.36528 -0.8158,0.66968 -1.33936,0.66968 -1.10802,0 -1.35154,-1.07149 -1.35154,-2.34997 0,-1.14454 0.3531,-2.34997 1.35154,-2.34997 0.46268,0 0.92537,0.12176 1.33936,0.32875 z"
         style="font-size:12.176px;line-height:1.25"
         id="path238" />
      <path
         d="m 741.23237,355.73105 v -0.6088 h -6.088 v 0.6088 z"
         style="font-size:12.176px;line-height:1.25"
         id="path240" />
      <path
         d="m 748.85452,354.33081 v -3.9572 c 0,-0.85232 -0.49922,-1.64376 -1.29066,-1.64376 -0.68185,0 -1.31501,0.3531 -1.68029,0.92538 -0.19481,-0.53575 -0.6088,-0.92538 -1.16889,-0.92538 -0.63315,0 -1.14455,0.43834 -1.55853,0.92538 v -0.80362 h -0.94973 v 5.4792 h 0.94973 v -4.3103 c 0.29222,-0.37746 0.6575,-0.73056 1.13237,-0.73056 0.49921,0 0.76709,0.53574 0.76709,1.08366 v 3.9572 h 0.94972 v -3.9572 c 0,-0.14611 -0.0122,-0.28005 -0.0365,-0.42616 0.29222,-0.37746 0.69403,-0.6575 1.16889,-0.6575 0.49922,0 0.76709,0.53574 0.76709,1.08366 v 3.9572 z"
         style="font-size:12.176px;line-height:1.25"
         id="path242" />
      <path
         d="m 752.96999,353.90465 v -0.36528 c -0.23135,0.19482 -0.49922,0.3531 -0.80362,0.3531 -0.45051,0 -0.53574,-0.56009 -0.53574,-1.08366 v -3.9572 h -0.94973 v 3.9572 c 0,0.81579 0.31657,1.64376 1.03496,1.64376 0.46269,0 0.90102,-0.23134 1.25413,-0.54792 z m -1.2176,-6.9525 c 0,-0.32875 -0.26788,-0.59662 -0.59663,-0.59662 -0.32875,0 -0.59662,0.26787 -0.59662,0.59662 0,0.32876 0.26787,0.59663 0.59662,0.59663 0.32875,0 0.59663,-0.26787 0.59663,-0.59663 z"
         style="font-size:12.176px;line-height:1.25"
         id="path244" />
      <path
         d="m 758.59529,354.33081 v -3.9572 c 0,-0.88885 -0.68186,-1.64376 -1.55853,-1.64376 -0.73056,0 -1.37589,0.41398 -1.89946,0.92538 v -0.80362 h -0.94973 v 5.4792 h 0.94973 v -4.29813 c 0.41399,-0.41398 0.92538,-0.74273 1.49765,-0.74273 0.57227,0 1.01061,0.49921 1.01061,1.08366 v 3.9572 z"
         style="font-size:12.176px;line-height:1.25"
         id="path246" />
      <path
         d="m 764.82938,354.33081 v -5.4792 h -0.94973 v 4.29813 c -0.41399,0.41398 -0.92538,0.74273 -1.49765,0.74273 -0.57227,0 -1.01061,-0.49921 -1.01061,-1.08366 v -3.9572 h -0.94973 v 3.9572 c 0,0.88885 0.68186,1.64376 1.55853,1.64376 0.73056,0 1.37589,-0.41398 1.89946,-0.92538 v 0.80362 z"
         style="font-size:12.176px;line-height:1.25"
         id="path248" />
      <path
         d="m 769.35883,353.90465 v -0.36528 c -0.19482,0.19482 -0.42616,0.3531 -0.70621,0.3531 -0.43834,0 -0.46269,-0.57227 -0.46269,-1.08366 V 349.363 h 1.1689 v -0.51139 h -1.1689 v -1.8264 h -0.57227 c 0,0.97408 -0.5601,1.88728 -1.44894,1.88728 v 0.45051 h 1.07148 v 3.44581 c 0,0.80362 0.2557,1.64376 0.94973,1.64376 0.45051,0 0.84015,-0.24352 1.1689,-0.54792 z"
         style="font-size:12.176px;line-height:1.25"
         id="path250" />
      <path
         d="m 775.10588,351.71297 v -0.12176 c 0,-1.71682 -0.93755,-2.86136 -2.34997,-2.86136 -1.42459,0 -2.36214,1.14454 -2.36214,2.86136 0,1.71682 0.93755,2.86136 2.36214,2.86136 0.6088,0 1.20543,-0.19482 1.70464,-0.54792 v -0.51139 c -0.57227,0.36528 -1.03496,0.49921 -1.70464,0.49921 -1.03496,0 -1.29065,-0.98625 -1.29065,-2.1795 z m -1.07149,-0.51139 h -2.56913 c 0,-0.97408 0.41398,-1.96034 1.29065,-1.96034 0.8645,0 1.27848,0.98626 1.27848,1.96034 z"
         style="font-size:12.176px;line-height:1.25"
         id="path252" />
      <path
         d="m 780.39025,352.77228 c 0,-0.9619 -1.02278,-1.46112 -2.02121,-1.70464 -0.58445,-0.14611 -1.2176,-0.38963 -1.2176,-0.9619 0,-0.52357 0.53574,-0.8645 1.12019,-0.8645 0.64533,0 1.29065,0.19482 1.8264,0.54792 v -0.51139 c -0.53575,-0.3531 -1.18107,-0.54792 -1.8264,-0.54792 -1.05931,0 -2.03339,0.64533 -2.03339,1.63158 0,0.88885 0.98625,1.30284 1.9238,1.53418 0.64533,0.15829 1.31501,0.49922 1.31501,1.12019 0,0.57227 -0.58445,0.92538 -1.20542,0.92538 -0.75491,0 -1.48547,-0.18264 -2.1308,-0.54792 v 0.51139 c 0.64533,0.36528 1.37589,0.54792 2.1308,0.54792 1.09584,0 2.11862,-0.6575 2.11862,-1.68029 z"
         style="font-size:12.176px;line-height:1.25"
         id="path254" />
      <path
         d="m 787.02616,355.73105 v -0.6088 h -6.088 v 0.6088 z"
         style="font-size:12.176px;line-height:1.25"
         id="path256" />
      <path
         d="m 790.58152,353.90465 v -0.36528 c -0.19481,0.19482 -0.42616,0.3531 -0.70621,0.3531 -0.43833,0 -0.46268,-0.57227 -0.46268,-1.08366 V 349.363 h 1.16889 v -0.51139 h -1.16889 v -1.8264 h -0.57228 c 0,0.97408 -0.56009,1.88728 -1.44894,1.88728 v 0.45051 h 1.07149 v 3.44581 c 0,0.80362 0.25569,1.64376 0.94973,1.64376 0.45051,0 0.84014,-0.24352 1.16889,-0.54792 z"
         style="font-size:12.176px;line-height:1.25"
         id="path258" />
      <path
         d="m 796.32858,351.71297 v -0.12176 c 0,-1.71682 -0.93755,-2.86136 -2.34996,-2.86136 -1.4246,0 -2.36215,1.14454 -2.36215,2.86136 0,1.71682 0.93755,2.86136 2.36215,2.86136 0.6088,0 1.20542,-0.19482 1.70464,-0.54792 v -0.51139 c -0.57228,0.36528 -1.03496,0.49921 -1.70464,0.49921 -1.03496,0 -1.29066,-0.98625 -1.29066,-2.1795 z m -1.07148,-0.51139 h -2.56914 c 0,-0.97408 0.41398,-1.96034 1.29066,-1.96034 0.86449,0 1.27848,0.98626 1.27848,1.96034 z"
         style="font-size:12.176px;line-height:1.25"
         id="path260" />
      <path
         d="m 802.31915,354.33081 v -3.9572 c 0,-0.88885 -0.68185,-1.64376 -1.55852,-1.64376 -0.73056,0 -1.37589,0.41398 -1.89946,0.92538 v -0.80362 h -0.94973 v 5.4792 h 0.94973 v -4.29813 c 0.41398,-0.41398 0.92538,-0.74273 1.49765,-0.74273 0.57227,0 1.01061,0.49921 1.01061,1.08366 v 3.9572 z"
         style="font-size:12.176px;line-height:1.25"
         id="path262" />
      <path
         d="m 807.90792,352.77228 c 0,-0.9619 -1.02278,-1.46112 -2.02121,-1.70464 -0.58445,-0.14611 -1.2176,-0.38963 -1.2176,-0.9619 0,-0.52357 0.53574,-0.8645 1.12019,-0.8645 0.64533,0 1.29065,0.19482 1.8264,0.54792 v -0.51139 c -0.53575,-0.3531 -1.18107,-0.54792 -1.8264,-0.54792 -1.05931,0 -2.03339,0.64533 -2.03339,1.63158 0,0.88885 0.98625,1.30284 1.9238,1.53418 0.64533,0.15829 1.31501,0.49922 1.31501,1.12019 0,0.57227 -0.58445,0.92538 -1.20542,0.92538 -0.75491,0 -1.48547,-0.18264 -2.1308,-0.54792 v 0.51139 c 0.64533,0.36528 1.37589,0.54792 2.1308,0.54792 1.09584,0 2.11862,-0.6575 2.11862,-1.68029 z"
         style="font-size:12.176px;line-height:1.25"
         id="path264" />
      <path
         d="m 814.54383,355.73105 v -0.6088 h -6.088 v 0.6088 z"
         style="font-size:12.176px;line-height:1.25"
         id="path266" />
      <path
         d="m 819.92559,351.59121 c 0,-1.86293 -0.82797,-2.86136 -2.34997,-2.86136 -1.53417,0 -2.36214,0.99843 -2.36214,2.86136 0,1.86293 0.82797,2.86136 2.36214,2.86136 1.522,0 2.34997,-0.99843 2.34997,-2.86136 z m -1.07149,0 c 0,1.522 -0.45051,2.34997 -1.27848,2.34997 -0.84014,0 -1.29065,-0.82797 -1.29065,-2.34997 0,-1.522 0.45051,-2.34997 1.29065,-2.34997 0.82797,0 1.27848,0.82797 1.27848,2.34997 z"
         style="font-size:12.176px;line-height:1.25"
         id="path268" />
    </g>
    <path
       id="path11530"
       d="M 566.92911,350.78739 H 698.03147"
       style="fill:none;stroke:#000000;stroke-width:1px;stroke-linecap:butt;stroke-linejoin:miter;stroke-opacity:1;marker-end:url(#Arrow1Mend)" />
    <g
       id="g11538"
       transform="translate(365.46117,744.40953)">
      <path
         id="rect11540"
         style="fill:#f4d7d7;stroke:#000000;stroke-width:0.999213;stroke-linecap:round"
         d="M 6.5860786,162.67706 H 155.40497 v 53.1496 H 6.5860786 Z" />
      <g
         aria-label="≟ RING_ALARM"
         id="text11542"
         style="line-height:0%;font-family:Iwona;-inkscape-font-specification:Iwona;text-align:center;letter-spacing:0px;word-spacing:0px;text-anchor:middle">
        <path
           d="m 22.990433,188.70981 h 10.015625 v 1.3125 H 22.990433 Z m 0,3.1875 h 10.015625 v 1.32812 H 22.990433 Z m 4.40625,-4.67969 h 0.789062 v 0.99219 h -0.789062 z m 0.765625,-0.57031 H 27.42012 v -0.60938 q 0,-0.39062 0.109375,-0.64062 0.109375,-0.25781 0.460938,-0.59375 l 0.351562,-0.34375 q 0.21875,-0.21094 0.320313,-0.39063 0.101562,-0.1875 0.101562,-0.375 0,-0.35156 -0.257812,-0.5625 -0.257813,-0.21875 -0.679688,-0.21875 -0.304687,0 -0.65625,0.14063 -0.351562,0.13281 -0.726562,0.39062 v -0.73437 q 0.367187,-0.21875 0.742187,-0.32813 0.375,-0.10937 0.78125,-0.10937 0.71875,0 1.148438,0.38281 0.4375,0.375 0.4375,0.99219 0,0.29687 -0.140625,0.57031 -0.140625,0.26563 -0.492188,0.60156 l -0.34375,0.33594 q -0.179687,0.17969 -0.257812,0.28906 -0.07813,0.10157 -0.109375,0.20313 -0.02344,0.0781 -0.03906,0.19531 -0.0078,0.11719 -0.0078,0.32031 z"
           style="font-size:16px;line-height:1.25"
           id="path272" />
        <path
           d="m 50.091308,195.97543 -3.408,-5.072 c 1.744,-0.336 2.944,-1.296 2.944,-3.088 0,-2.256 -1.936,-3.2 -4.448,-3.2 -0.896,0 -1.792,0.048 -2.672,0.16 h -1.28 v 11.2 h 1.312 v -5.2 c 0.864,0.16 1.76,0.256 2.64,0.256 l 3.344,4.944 z m -2.032,-8.16 c 0,1.456 -1.36,2.48 -2.88,2.48 -0.88,0 -1.776,-0.096 -2.64,-0.256 v -4.528 c 0.88,-0.112 1.76,-0.16 2.64,-0.16 1.52,0 2.88,1.024 2.88,2.464 z"
           style="font-size:16px;line-height:1.25"
           id="path274" />
        <path
           d="m 53.163297,195.97543 v -11.2 h -1.312 v 11.2 z"
           style="font-size:16px;line-height:1.25"
           id="path276" />
        <path
           d="m 65.77129,195.97543 v -11.2 h -0.736 v 9.408 l -7.712,-9.408 h -0.96 v 11.2 h 0.736 v -9.408 l 7.712,9.408 z"
           style="font-size:16px;line-height:1.25"
           id="path278" />
        <path
           d="m 77.739262,195.97543 v -4.704 h -1.312 v 3.088 c -0.832,0.672 -1.856,1.04 -2.928,1.04 -2.544,0 -3.6,-2.192 -3.6,-5.024 0,-2.832 1.056,-5.024 3.6,-5.024 1.504,0 2.928,0.592 3.984,1.664 v -0.736 c -1.056,-1.072 -2.48,-1.664 -3.984,-1.664 -3.296,0 -5.168,2.336 -5.168,5.76 0,3.424 1.872,5.76 5.168,5.76 1.072,0 2.096,-0.368 2.928,-1.04 v 0.88 z"
           style="font-size:16px;line-height:1.25"
           id="path280" />
        <path
           d="m 87.019241,197.81543 v -0.8 h -8 v 0.8 z"
           style="font-size:16px;line-height:1.25"
           id="path282" />
        <path
           d="m 96.779211,195.97543 -4.064,-11.2 h -1.392 l -4.144,11.2 h 0.784 l 1.456,-3.92 h 4.544 l 1.424,3.92 z m -3.088,-4.656 h -4 l 2.016,-5.472 z"
           style="font-size:16px;line-height:1.25"
           id="path284" />
        <path
           d="m 104.93919,195.97543 v -0.736 h -5.087996 v -10.464 h -1.312 v 11.2 z"
           style="font-size:16px;line-height:1.25"
           id="path286" />
        <path
           d="m 115.01917,195.97543 -4.064,-11.2 h -1.392 l -4.144,11.2 h 0.784 l 1.456,-3.92 h 4.544 l 1.424,3.92 z m -3.088,-4.656 h -4 l 2.016,-5.472 z"
           style="font-size:16px;line-height:1.25"
           id="path288" />
        <path
           d="m 125.48315,195.97543 -3.408,-5.072 c 1.744,-0.336 2.944,-1.296 2.944,-3.088 0,-2.256 -1.936,-3.2 -4.448,-3.2 -0.896,0 -1.792,0.048 -2.672,0.16 h -1.28 v 11.2 h 1.312 v -5.2 c 0.864,0.16 1.76,0.256 2.64,0.256 l 3.344,4.944 z m -2.032,-8.16 c 0,1.456 -1.36,2.48 -2.88,2.48 -0.88,0 -1.776,-0.096 -2.64,-0.256 v -4.528 c 0.88,-0.112 1.76,-0.16 2.64,-0.16 1.52,0 2.88,1.024 2.88,2.464 z"
           style="font-size:16px;line-height:1.25"
           id="path290" />
        <path
           d="m 139.00314,195.97543 -0.64,-11.2 h -1.056 l -4.496,9.456 -4.512,-9.456 h -1.056 l -0.64,11.2 h 0.736 l 0.512,-9.072 4.336,9.072 h 0.592 l 4.384,-9.184 0.528,9.184 z"
           style="font-size:16px;line-height:1.25"
           id="path292" />
      </g>
    </g>
    <path
       style="fill:#afdde9;fill-opacity:1;stroke:#000000;stroke-width:1px;stroke-linecap:butt;stroke-linejoin:miter;stroke-opacity:1"
       d="m 698.03157,928.34645 h 10.62992 l 7.08661,7.0866 -7.08661,7.0867 h -10.62992 z"
       id="path11548" />
    <g
       aria-label="alarm_o"
       id="text11550"
       style="line-height:0%;font-family:Iwona;-inkscape-font-specification:Iwona;letter-spacing:0px;word-spacing:0px">
      <path
         d="m 724.55141,938.97626 v -3.40928 c 0,-1.14455 -0.7062,-2.19168 -1.76552,-2.19168 -0.77926,0 -1.50982,0.26787 -2.16732,0.68185 v 0.37746 c 0.54792,-0.3044 1.15672,-0.49922 1.78987,-0.49922 0.75491,0 1.19325,0.80362 1.19325,1.63159 v 0.21917 c -0.47487,-0.207 -0.98626,-0.32876 -1.49765,-0.32876 -1.30283,0 -2.26474,0.59663 -2.26474,1.8264 0,1.1689 0.85232,1.81423 2.0821,1.81423 0.62097,0 1.19325,-0.28005 1.68029,-0.66968 v 0.54792 z m -0.94972,-1.05931 c -0.36528,0.36528 -0.8158,0.66968 -1.33936,0.66968 -0.8158,0 -1.35154,-0.49922 -1.35154,-1.30284 0,-0.74273 0.6088,-1.315 1.35154,-1.315 0.46268,0 0.92537,0.12176 1.33936,0.32875 z"
         style="font-size:12.176px;line-height:1.25"
         id="path295" />
      <path
         d="m 728.78865,938.5501 v -0.36528 c -0.23134,0.19481 -0.49921,0.3531 -0.80361,0.3531 -0.45052,0 -0.53575,-0.56009 -0.53575,-1.08366 v -7.0012 h -0.94973 v 7.0012 c 0,0.81579 0.31658,1.64376 1.03496,1.64376 0.46269,0 0.90103,-0.23135 1.25413,-0.54792 z"
         style="font-size:12.176px;line-height:1.25"
         id="path297" />
      <path
         d="m 734.29218,938.97626 v -3.40928 c 0,-1.14455 -0.70621,-2.19168 -1.76552,-2.19168 -0.77926,0 -1.50982,0.26787 -2.16733,0.68185 v 0.37746 c 0.54792,-0.3044 1.15672,-0.49922 1.78988,-0.49922 0.75491,0 1.19324,0.80362 1.19324,1.63159 v 0.21917 c -0.47486,-0.207 -0.98625,-0.32876 -1.49764,-0.32876 -1.30284,0 -2.26474,0.59663 -2.26474,1.8264 0,1.1689 0.85232,1.81423 2.0821,1.81423 0.62097,0 1.19324,-0.28005 1.68028,-0.66968 v 0.54792 z m -0.94973,-1.05931 c -0.36528,0.36528 -0.81579,0.66968 -1.33936,0.66968 -0.81579,0 -1.35153,-0.49922 -1.35153,-1.30284 0,-0.74273 0.6088,-1.315 1.35153,-1.315 0.46269,0 0.92538,0.12176 1.33936,0.32875 z"
         style="font-size:12.176px;line-height:1.25"
         id="path299" />
      <path
         d="m 739.27215,934.25197 v -0.75491 c -0.13393,-0.0487 -0.28004,-0.0852 -0.41398,-0.0852 -0.68186,0 -1.22978,0.47486 -1.66811,0.99843 v -0.9132 h -0.94973 v 5.4792 h 0.94973 v -4.05461 c 0.36528,-0.42616 0.82797,-0.79144 1.38806,-0.79144 0.23135,0 0.47487,0.0487 0.69403,0.12176 z"
         style="font-size:12.176px;line-height:1.25"
         id="path301" />
      <path
         d="m 747.13784,938.97626 v -3.9572 c 0,-0.85232 -0.49922,-1.64376 -1.29066,-1.64376 -0.68185,0 -1.31501,0.3531 -1.68028,0.92537 -0.19482,-0.53574 -0.6088,-0.92537 -1.1689,-0.92537 -0.63315,0 -1.14454,0.43833 -1.55853,0.92537 v -0.80361 h -0.94973 v 5.4792 h 0.94973 v -4.31031 c 0.29223,-0.37745 0.65751,-0.73056 1.13237,-0.73056 0.49922,0 0.76709,0.53575 0.76709,1.08367 v 3.9572 h 0.94973 v -3.9572 c 0,-0.14611 -0.0122,-0.28005 -0.0365,-0.42616 0.29222,-0.37746 0.69403,-0.65751 1.16889,-0.65751 0.49922,0 0.76709,0.53575 0.76709,1.08367 v 3.9572 z"
         style="font-size:12.176px;line-height:1.25"
         id="path303" />
      <path
         d="m 754.13902,940.3765 v -0.6088 h -6.088 v 0.6088 z"
         style="font-size:12.176px;line-height:1.25"
         id="path305" />
      <path
         d="m 759.52079,936.23666 c 0,-1.86293 -0.82797,-2.86136 -2.34997,-2.86136 -1.53418,0 -2.36214,0.99843 -2.36214,2.86136 0,1.86293 0.82796,2.86136 2.36214,2.86136 1.522,0 2.34997,-0.99843 2.34997,-2.86136 z m -1.07149,0 c 0,1.522 -0.45051,2.34997 -1.27848,2.34997 -0.84014,0 -1.29066,-0.82797 -1.29066,-2.34997 0,-1.522 0.45052,-2.34997 1.29066,-2.34997 0.82797,0 1.27848,0.82797 1.27848,2.34997 z"
         style="font-size:12.176px;line-height:1.25"
         id="path307" />
    </g>
    <path
       id="path11554"
       d="M 520.86614,935.43305 H 698.03157"
       style="fill:none;stroke:#000000;stroke-width:1px;stroke-linecap:butt;stroke-linejoin:miter;stroke-opacity:1;marker-end:url(#Arrow1Mend)" />
    <path
       id="path5745"
       d="m 698.03149,520.86613 h 14.1732 v 14.1732 h -14.1732 z"
       style="fill:#afdde9;fill-opacity:1;stroke:#000000;stroke-width:1px;stroke-linecap:butt;stroke-linejoin:miter;stroke-opacity:1" />
    <g
       aria-label="up_minutes_tens"
       id="text5747"
       style="line-height:0%;font-family:Iwona;-inkscape-font-specification:Iwona;text-align:center;letter-spacing:0px;word-spacing:0px;text-anchor:middle">
      <path
         d="m 667.48819,513.77954 v -5.4792 h -0.94973 v 4.29813 c -0.41398,0.41398 -0.92537,0.74274 -1.49764,0.74274 -0.57228,0 -1.01061,-0.49922 -1.01061,-1.08367 v -3.9572 h -0.94973 v 3.9572 c 0,0.88885 0.68186,1.64376 1.55853,1.64376 0.73056,0 1.37589,-0.41398 1.89945,-0.92537 v 0.80361 z"
         style="font-size:12.176px;line-height:1.25"
         id="path310" />
      <path
         d="m 674.08756,511.03994 c 0,-1.61941 -0.6088,-2.86136 -2.08209,-2.86136 -0.62098,0 -1.19325,0.28005 -1.68029,0.66968 v -0.54792 h -0.94973 v 8.27968 h 0.94973 v -3.00747 c 0.47486,0.20699 0.98625,0.32875 1.49765,0.32875 1.522,0 2.26473,-1.2176 2.26473,-2.86136 z m -1.07149,0 c 0,1.14455 -0.3531,2.34997 -1.35153,2.34997 -0.46269,0 -0.92538,-0.12176 -1.33936,-0.32875 v -3.70151 c 0.36528,-0.36528 0.81579,-0.66968 1.33936,-0.66968 1.10801,0 1.35153,1.07149 1.35153,2.34997 z"
         style="font-size:12.176px;line-height:1.25"
         id="path312" />
      <path
         d="m 680.84522,515.17978 v -0.6088 h -6.088 v 0.6088 z"
         style="font-size:12.176px;line-height:1.25"
         id="path314" />
      <path
         d="m 688.46737,513.77954 v -3.9572 c 0,-0.85232 -0.49921,-1.64376 -1.29065,-1.64376 -0.68186,0 -1.31501,0.35311 -1.68029,0.92538 -0.19482,-0.53575 -0.6088,-0.92538 -1.1689,-0.92538 -0.63315,0 -1.14454,0.43834 -1.55852,0.92538 v -0.80362 h -0.94973 v 5.4792 h 0.94973 v -4.3103 c 0.29222,-0.37746 0.6575,-0.73056 1.13236,-0.73056 0.49922,0 0.76709,0.53574 0.76709,1.08366 v 3.9572 h 0.94973 v -3.9572 c 0,-0.14611 -0.0122,-0.28005 -0.0365,-0.42616 0.29223,-0.37745 0.69403,-0.6575 1.1689,-0.6575 0.49921,0 0.76708,0.53574 0.76708,1.08366 v 3.9572 z"
         style="font-size:12.176px;line-height:1.25"
         id="path316" />
      <path
         d="m 692.58284,513.35338 v -0.36528 c -0.23134,0.19482 -0.49921,0.35311 -0.80361,0.35311 -0.45052,0 -0.53575,-0.5601 -0.53575,-1.08367 v -3.9572 h -0.94973 v 3.9572 c 0,0.81579 0.31658,1.64376 1.03496,1.64376 0.46269,0 0.90103,-0.23134 1.25413,-0.54792 z m -1.2176,-6.95249 c 0,-0.32876 -0.26787,-0.59663 -0.59662,-0.59663 -0.32875,0 -0.59663,0.26787 -0.59663,0.59663 0,0.32875 0.26788,0.59662 0.59663,0.59662 0.32875,0 0.59662,-0.26787 0.59662,-0.59662 z"
         style="font-size:12.176px;line-height:1.25"
         id="path318" />
      <path
         d="m 698.20814,513.77954 v -3.9572 c 0,-0.88885 -0.68185,-1.64376 -1.55853,-1.64376 -0.73056,0 -1.37588,0.41399 -1.89945,0.92538 v -0.80362 h -0.94973 v 5.4792 h 0.94973 v -4.29813 c 0.41398,-0.41398 0.92537,-0.74273 1.49765,-0.74273 0.57227,0 1.0106,0.49921 1.0106,1.08366 v 3.9572 z"
         style="font-size:12.176px;line-height:1.25"
         id="path320" />
      <path
         d="m 704.44223,513.77954 v -5.4792 h -0.94973 v 4.29813 c -0.41398,0.41398 -0.92537,0.74274 -1.49764,0.74274 -0.57228,0 -1.01061,-0.49922 -1.01061,-1.08367 v -3.9572 h -0.94973 v 3.9572 c 0,0.88885 0.68186,1.64376 1.55853,1.64376 0.73056,0 1.37589,-0.41398 1.89945,-0.92537 v 0.80361 z"
         style="font-size:12.176px;line-height:1.25"
         id="path322" />
      <path
         d="m 708.97168,513.35338 v -0.36528 c -0.19481,0.19482 -0.42616,0.35311 -0.7062,0.35311 -0.43834,0 -0.46269,-0.57228 -0.46269,-1.08367 v -3.44581 h 1.16889 v -0.51139 h -1.16889 v -1.8264 h -0.57227 c 0,0.97408 -0.5601,1.88728 -1.44895,1.88728 v 0.45051 h 1.07149 v 3.44581 c 0,0.80362 0.2557,1.64376 0.94973,1.64376 0.45051,0 0.84014,-0.24352 1.16889,-0.54792 z"
         style="font-size:12.176px;line-height:1.25"
         id="path324" />
      <path
         d="m 714.71874,511.1617 v -0.12176 c 0,-1.71681 -0.93755,-2.86136 -2.34997,-2.86136 -1.42459,0 -2.36214,1.14455 -2.36214,2.86136 0,1.71682 0.93755,2.86136 2.36214,2.86136 0.6088,0 1.20542,-0.19481 1.70464,-0.54792 v -0.51139 c -0.57227,0.36528 -1.03496,0.49922 -1.70464,0.49922 -1.03496,0 -1.29066,-0.98626 -1.29066,-2.17951 z m -1.07149,-0.51139 h -2.56914 c 0,-0.97408 0.41399,-1.96034 1.29066,-1.96034 0.8645,0 1.27848,0.98626 1.27848,1.96034 z"
         style="font-size:12.176px;line-height:1.25"
         id="path326" />
      <path
         d="m 720.00311,512.22101 c 0,-0.9619 -1.02279,-1.46112 -2.02122,-1.70464 -0.58445,-0.14611 -1.2176,-0.38963 -1.2176,-0.9619 0,-0.52357 0.53575,-0.8645 1.12019,-0.8645 0.64533,0 1.29066,0.19482 1.8264,0.54792 v -0.51139 c -0.53574,-0.3531 -1.18107,-0.54792 -1.8264,-0.54792 -1.05931,0 -2.03339,0.64533 -2.03339,1.63159 0,0.88884 0.98626,1.30283 1.92381,1.53417 0.64533,0.15829 1.31501,0.49922 1.31501,1.12019 0,0.57228 -0.58445,0.92538 -1.20543,0.92538 -0.75491,0 -1.48547,-0.18264 -2.1308,-0.54792 v 0.51139 c 0.64533,0.36528 1.37589,0.54792 2.1308,0.54792 1.09584,0 2.11863,-0.6575 2.11863,-1.68029 z"
         style="font-size:12.176px;line-height:1.25"
         id="path328" />
      <path
         d="m 726.63902,515.17978 v -0.6088 h -6.088 v 0.6088 z"
         style="font-size:12.176px;line-height:1.25"
         id="path330" />
      <path
         d="m 730.19438,513.35338 v -0.36528 c -0.19481,0.19482 -0.42616,0.35311 -0.70621,0.35311 -0.43833,0 -0.46268,-0.57228 -0.46268,-1.08367 v -3.44581 h 1.16889 v -0.51139 h -1.16889 v -1.8264 h -0.57228 c 0,0.97408 -0.56009,1.88728 -1.44894,1.88728 v 0.45051 h 1.07149 v 3.44581 c 0,0.80362 0.25569,1.64376 0.94973,1.64376 0.45051,0 0.84014,-0.24352 1.16889,-0.54792 z"
         style="font-size:12.176px;line-height:1.25"
         id="path332" />
      <path
         d="m 735.94144,511.1617 v -0.12176 c 0,-1.71681 -0.93756,-2.86136 -2.34997,-2.86136 -1.42459,0 -2.36215,1.14455 -2.36215,2.86136 0,1.71682 0.93756,2.86136 2.36215,2.86136 0.6088,0 1.20542,-0.19481 1.70464,-0.54792 v -0.51139 c -0.57227,0.36528 -1.03496,0.49922 -1.70464,0.49922 -1.03496,0 -1.29066,-0.98626 -1.29066,-2.17951 z m -1.07149,-0.51139 h -2.56914 c 0,-0.97408 0.41399,-1.96034 1.29066,-1.96034 0.86449,0 1.27848,0.98626 1.27848,1.96034 z"
         style="font-size:12.176px;line-height:1.25"
         id="path334" />
      <path
         d="m 741.93201,513.77954 v -3.9572 c 0,-0.88885 -0.68185,-1.64376 -1.55852,-1.64376 -0.73056,0 -1.37589,0.41399 -1.89946,0.92538 v -0.80362 h -0.94973 v 5.4792 h 0.94973 v -4.29813 c 0.41398,-0.41398 0.92538,-0.74273 1.49765,-0.74273 0.57227,0 1.01061,0.49921 1.01061,1.08366 v 3.9572 z"
         style="font-size:12.176px;line-height:1.25"
         id="path336" />
      <path
         d="m 747.52077,512.22101 c 0,-0.9619 -1.02278,-1.46112 -2.02121,-1.70464 -0.58445,-0.14611 -1.2176,-0.38963 -1.2176,-0.9619 0,-0.52357 0.53574,-0.8645 1.12019,-0.8645 0.64533,0 1.29066,0.19482 1.8264,0.54792 v -0.51139 c -0.53574,-0.3531 -1.18107,-0.54792 -1.8264,-0.54792 -1.05931,0 -2.03339,0.64533 -2.03339,1.63159 0,0.88884 0.98625,1.30283 1.92381,1.53417 0.64532,0.15829 1.315,0.49922 1.315,1.12019 0,0.57228 -0.58444,0.92538 -1.20542,0.92538 -0.75491,0 -1.48547,-0.18264 -2.1308,-0.54792 v 0.51139 c 0.64533,0.36528 1.37589,0.54792 2.1308,0.54792 1.09584,0 2.11862,-0.6575 2.11862,-1.68029 z"
         style="font-size:12.176px;line-height:1.25"
         id="path338" />
    </g>
    <path
       id="path5751"
       d="M 556.2992,527.95273 H 698.03149"
       style="fill:none;stroke:#000000;stroke-width:1px;stroke-linecap:butt;stroke-linejoin:miter;stroke-opacity:1;marker-end:url(#Arrow1Mend)" />
    <g
       aria-label="'0'"
       id="text5753"
       style="line-height:0%;font-family:Iwona;-inkscape-font-specification:Iwona;text-align:center;letter-spacing:0px;word-spacing:0px;text-anchor:middle">
      <path
         d="m 458.39819,543.80018 v -4.49706 h -0.88404 v 4.49706 z"
         style="font-size:19.2182px;line-height:1.25"
         id="path341" />
      <path
         d="m 468.39165,546.12558 c 0,-4.55471 -1.40293,-6.82246 -4.20879,-6.82246 -2.80586,0 -4.20878,2.26775 -4.20878,6.82246 0,4.55471 1.40292,6.82246 4.20878,6.82246 2.80586,0 4.20879,-2.26775 4.20879,-6.82246 z m -1.6912,0 c 0,4.0166 -0.84561,6.0153 -2.51759,6.0153 -1.67198,0 -2.51758,-1.9987 -2.51758,-6.0153 0,-4.0166 0.8456,-6.0153 2.51758,-6.0153 1.67198,0 2.51759,1.9987 2.51759,6.0153 z"
         style="font-size:19.2182px;line-height:1.25"
         id="path343" />
      <path
         d="m 470.83235,543.80018 v -4.49706 h -0.88404 v 4.49706 z"
         style="font-size:19.2182px;line-height:1.25"
         id="path345" />
    </g>
    <path
       style="fill:none;stroke:#000000;stroke-width:0.999213;stroke-linecap:butt;stroke-linejoin:miter;stroke-miterlimit:4;stroke-dasharray:none;stroke-opacity:1;marker-end:none"
       d="m 712.20469,527.95273 h 56.6929"
       id="path5813" />
    <g
       id="g6959"
       transform="translate(194.88189,148.81888)">
      <path
         style="fill:#f4d7d7;fill-opacity:1;stroke:#000000;stroke-width:1px;stroke-linecap:butt;stroke-linejoin:miter;stroke-opacity:1"
         d="m 336.61417,336.61417 24.80315,17.71652 v 49.6063 l -24.80315,17.71653 z"
         id="path6947" />
      <g
         aria-label="1"
         id="text6951"
         style="line-height:0%;font-family:Iwona;-inkscape-font-specification:Iwona;letter-spacing:0px;word-spacing:0px">
        <path
           d="m 345.43747,364.9606 v -11.04 h -0.928 c -0.88,1.008 -1.92,1.872 -3.072,2.544 v 0.672 c 0.976,-0.464 1.888,-1.008 2.752,-1.664 v 9.488 z"
           style="font-size:16px;line-height:1.25"
           id="path348" />
      </g>
      <g
         aria-label="0"
         id="text6955"
         style="line-height:0%;font-family:Iwona;-inkscape-font-specification:Iwona;letter-spacing:0px;word-spacing:0px">
        <path
           d="m 347.86947,398.41698 c 0,-3.792 -1.168,-5.68 -3.504,-5.68 -2.336,0 -3.504,1.888 -3.504,5.68 0,3.792 1.168,5.68 3.504,5.68 2.336,0 3.504,-1.888 3.504,-5.68 z m -1.408,0 c 0,3.344 -0.704,5.008 -2.096,5.008 -1.392,0 -2.096,-1.664 -2.096,-5.008 0,-3.344 0.704,-5.008 2.096,-5.008 1.392,0 2.096,1.664 2.096,5.008 z"
           style="font-size:16px;line-height:1.25"
           id="path351" />
      </g>
    </g>
    <path
       style="fill:none;stroke:#000000;stroke-width:1px;stroke-linecap:butt;stroke-linejoin:miter;stroke-opacity:1;marker-end:url(#Arrow1Mend)"
       d="m 396.85039,506.69289 134.64573,-6e-5"
       id="path9954" />
    <path
       id="path12406"
       d="m 474.80316,545.66923 h 56.6929"
       style="fill:none;stroke:#000000;stroke-width:1px;stroke-linecap:butt;stroke-linejoin:miter;stroke-opacity:1;marker-end:url(#Arrow1Mend)" />
    <g
       id="g12408"
       transform="translate(581.10233,418.11018)">
      <path
         style="fill:none;stroke:#000000;stroke-width:1px;stroke-linecap:butt;stroke-linejoin:miter;stroke-opacity:1"
         d="m 180.70866,102.75588 7.08662,7.08662 -7.08662,7.08661 v 0"
         id="path12410" />
      <path
         id="path12412"
         d="m 184.25196,102.75588 7.08662,7.08662 -7.08662,7.08661 v 0"
         style="fill:none;stroke:#000000;stroke-width:1px;stroke-linecap:butt;stroke-linejoin:miter;stroke-opacity:1" />
    </g>
    <g
       transform="translate(464.67377,443.22843)"
       id="g13254">
      <path
         id="rect13256"
         style="fill:#f4d7d7;stroke:#000000;stroke-width:0.999213;stroke-linecap:round"
         d="M 6.5860786,162.67706 H 155.40497 v 53.1496 H 6.5860786 Z" />
      <g
         aria-label="≟ COUNT_DOWN"
         id="text13258"
         style="line-height:0%;font-family:Iwona;-inkscape-font-specification:Iwona;text-align:center;letter-spacing:0px;word-spacing:0px;text-anchor:middle">
        <path
           d="m 15.854431,188.70981 h 10.015625 v 1.3125 H 15.854431 Z m 0,3.1875 h 10.015625 v 1.32812 H 15.854431 Z m 4.40625,-4.67969 h 0.789063 v 0.99219 h -0.789063 z m 0.765625,-0.57031 h -0.742187 v -0.60938 q 0,-0.39062 0.109375,-0.64062 0.109375,-0.25781 0.460937,-0.59375 l 0.351563,-0.34375 q 0.21875,-0.21094 0.320312,-0.39063 0.101563,-0.1875 0.101563,-0.375 0,-0.35156 -0.257813,-0.5625 -0.257812,-0.21875 -0.679687,-0.21875 -0.304688,0 -0.65625,0.14063 -0.351563,0.13281 -0.726563,0.39062 v -0.73437 q 0.367188,-0.21875 0.742188,-0.32813 0.375,-0.10937 0.78125,-0.10937 0.71875,0 1.148437,0.38281 0.4375,0.375 0.4375,0.99219 0,0.29687 -0.140625,0.57031 -0.140625,0.26563 -0.492187,0.60156 l -0.34375,0.33594 q -0.179688,0.17969 -0.257813,0.28906 -0.07813,0.10157 -0.109375,0.20313 -0.02344,0.0781 -0.03906,0.19531 -0.0078,0.11719 -0.0078,0.32031 z"
           style="font-size:16px;line-height:1.25"
           id="path355" />
        <path
           d="m 42.411306,187.46343 v -0.864 c -0.864,-1.248 -2.288,-1.984 -3.792,-1.984 -3.248,0 -5.008,2.368 -5.008,5.76 0,3.392 1.76,5.76 5.008,5.76 1.248,0 2.48,-0.368 3.536,-1.056 v -0.736 c -1.056,0.688 -2.288,1.056 -3.536,1.056 -2.512,0 -3.44,-2.224 -3.44,-5.024 0,-2.8 0.928,-5.024 3.44,-5.024 1.536,0 2.976,0.8 3.792,2.112 z"
           style="font-size:16px;line-height:1.25"
           id="path357" />
        <path
           d="m 53.851296,190.37543 c 0,-3.392 -1.76,-5.76 -4.992,-5.76 -3.248,0 -5.008,2.368 -5.008,5.76 0,3.392 1.76,5.76 5.008,5.76 3.232,0 4.992,-2.368 4.992,-5.76 z m -1.568,0 c 0,2.8 -0.928,5.024 -3.424,5.024 -2.512,0 -3.44,-2.224 -3.44,-5.024 0,-2.8 0.928,-5.024 3.44,-5.024 2.496,0 3.424,2.224 3.424,5.024 z"
           style="font-size:16px;line-height:1.25"
           id="path359" />
        <path
           d="m 64.651279,192.83943 v -8.064 h -0.736 v 7.808 c 0,1.664 -1.472,2.912 -3.168,2.912 -1.712,0 -3.184,-1.248 -3.184,-2.912 v -7.808 h -1.312 v 8.064 c 0,2.032 2.016,3.392 4.208,3.392 2.176,0 4.192,-1.36 4.192,-3.392 z"
           style="font-size:16px;line-height:1.25"
           id="path361" />
        <path
           d="m 77.099278,195.97543 v -11.2 h -0.736 v 9.408 l -7.712,-9.408 h -0.96 v 11.2 h 0.736 v -9.408 l 7.712,9.408 z"
           style="font-size:16px;line-height:1.25"
           id="path363" />
        <path
           d="m 87.819249,185.51143 v -0.736 h -8.8 v 0.736 h 3.744 v 10.464 h 1.312 v -10.464 z"
           style="font-size:16px;line-height:1.25"
           id="path365" />
        <path
           d="m 96.139221,197.81543 v -0.8 h -8 v 0.8 z"
           style="font-size:16px;line-height:1.25"
           id="path367" />
        <path
           d="m 107.14719,190.37543 c 0,-3.424 -1.872,-5.76 -5.168,-5.76 -0.992,0 -1.983999,0.048 -2.959999,0.16 h -1.28 v 11.2 h 1.28 c 0.976,0.112 1.967999,0.16 2.959999,0.16 3.296,0 5.168,-2.336 5.168,-5.76 z m -1.568,0 c 0,2.544 -1.296,5.024 -3.6,5.024 -0.976,0 -1.952,-0.048 -2.927999,-0.16 v -9.728 c 0.975999,-0.112 1.951999,-0.16 2.927999,-0.16 2.304,0 3.6,2.48 3.6,5.024 z"
           style="font-size:16px;line-height:1.25"
           id="path369" />
        <path
           d="m 119.06718,190.37543 c 0,-3.392 -1.76,-5.76 -4.992,-5.76 -3.248,0 -5.008,2.368 -5.008,5.76 0,3.392 1.76,5.76 5.008,5.76 3.232,0 4.992,-2.368 4.992,-5.76 z m -1.568,0 c 0,2.8 -0.928,5.024 -3.424,5.024 -2.512,0 -3.44,-2.224 -3.44,-5.024 0,-2.8 0.928,-5.024 3.44,-5.024 2.496,0 3.424,2.224 3.424,5.024 z"
           style="font-size:16px;line-height:1.25"
           id="path371" />
        <path
           d="m 134.33116,184.77543 h -0.768 l -2.768,9.12 -2.768,-9.12 h -0.768 l -2.768,9.12 -2.768,-9.12 h -1.376 l 3.408,11.2 h 0.864 l 2.72,-8.944 2.72,8.944 h 0.88 z"
           style="font-size:16px;line-height:1.25"
           id="path373" />
        <path
           d="m 145.49915,195.97543 v -11.2 h -0.736 v 9.408 l -7.712,-9.408 h -0.96 v 11.2 h 0.736 v -9.408 l 7.712,9.408 z"
           style="font-size:16px;line-height:1.25"
           id="path375" />
      </g>
    </g>
    <g
       transform="translate(198.42523,382.67717)"
       id="g13264">
      <path
         id="path13266"
         d="m 336.61417,336.61417 24.80315,17.71652 v 49.6063 l -24.80315,17.71653 z"
         style="fill:#f4d7d7;fill-opacity:1;stroke:#000000;stroke-width:1px;stroke-linecap:butt;stroke-linejoin:miter;stroke-opacity:1" />
      <g
         aria-label="1"
         id="text13268"
         style="line-height:0%;font-family:Iwona;-inkscape-font-specification:Iwona;letter-spacing:0px;word-spacing:0px">
        <path
           d="m 345.43747,364.9606 v -11.04 h -0.928 c -0.88,1.008 -1.92,1.872 -3.072,2.544 v 0.672 c 0.976,-0.464 1.888,-1.008 2.752,-1.664 v 9.488 z"
           style="font-size:16px;line-height:1.25"
           id="path378" />
      </g>
      <g
         aria-label="0"
         id="text13272"
         style="line-height:0%;font-family:Iwona;-inkscape-font-specification:Iwona;letter-spacing:0px;word-spacing:0px">
        <path
           d="m 347.86947,398.41698 c 0,-3.792 -1.168,-5.68 -3.504,-5.68 -2.336,0 -3.504,1.888 -3.504,5.68 0,3.792 1.168,5.68 3.504,5.68 2.336,0 3.504,-1.888 3.504,-5.68 z m -1.408,0 c 0,3.344 -0.704,5.008 -2.096,5.008 -1.392,0 -2.096,-1.664 -2.096,-5.008 0,-3.344 0.704,-5.008 2.096,-5.008 1.392,0 2.096,1.664 2.096,5.008 z"
           style="font-size:16px;line-height:1.25"
           id="path381" />
      </g>
    </g>
    <g
       aria-label="'0'"
       id="text13276"
       style="line-height:0%;font-family:Iwona;-inkscape-font-specification:Iwona;text-align:center;letter-spacing:0px;word-spacing:0px;text-anchor:middle">
      <path
         d="m 461.94146,781.20179 v -4.49706 h -0.88404 v 4.49706 z"
         style="font-size:19.2182px;line-height:1.25"
         id="path384" />
      <path
         d="m 471.93492,783.52719 c 0,-4.55471 -1.40293,-6.82246 -4.20879,-6.82246 -2.80585,0 -4.20878,2.26775 -4.20878,6.82246 0,4.55472 1.40293,6.82246 4.20878,6.82246 2.80586,0 4.20879,-2.26774 4.20879,-6.82246 z m -1.6912,0 c 0,4.01661 -0.8456,6.0153 -2.51759,6.0153 -1.67198,0 -2.51758,-1.99869 -2.51758,-6.0153 0,-4.0166 0.8456,-6.0153 2.51758,-6.0153 1.67199,0 2.51759,1.9987 2.51759,6.0153 z"
         style="font-size:19.2182px;line-height:1.25"
         id="path386" />
      <path
         d="m 474.37563,781.20179 v -4.49706 h -0.88404 v 4.49706 z"
         style="font-size:19.2182px;line-height:1.25"
         id="path388" />
    </g>
    <path
       style="fill:none;stroke:#000000;stroke-width:1px;stroke-linecap:butt;stroke-linejoin:miter;stroke-opacity:1;marker-end:url(#Arrow1Mend)"
       d="m 478.34647,783.07084 h 56.69289"
       id="path13280" />
    <g
       id="g13282"
       transform="translate(134.64557,634.25202)">
      <path
         style="fill:none;stroke:#000000;stroke-width:1px;stroke-linecap:butt;stroke-linejoin:miter;stroke-opacity:1"
         d="m 180.70866,102.75588 7.08662,7.08662 -7.08662,7.08661 v 0"
         id="path13284" />
      <path
         id="path13286"
         d="m 184.25196,102.75588 7.08662,7.08662 -7.08662,7.08661 v 0"
         style="fill:none;stroke:#000000;stroke-width:1px;stroke-linecap:butt;stroke-linejoin:miter;stroke-opacity:1" />
    </g>
    <path
       style="fill:#afdde9;fill-opacity:1;stroke:#000000;stroke-width:1px;stroke-linecap:butt;stroke-linejoin:miter;stroke-opacity:1"
       d="m 382.67711,737.00788 h 14.1732 v 14.1732 h -14.1732 z"
       id="path13288" />
    <g
       aria-label="evt_minus"
       id="text13290"
       style="line-height:0%;font-family:Iwona;-inkscape-font-specification:Iwona;text-align:center;letter-spacing:0px;word-spacing:0px;text-anchor:middle">
      <path
         d="m 369.77075,727.30361 v -0.12176 c 0,-1.71682 -0.93755,-2.86136 -2.34996,-2.86136 -1.4246,0 -2.36215,1.14454 -2.36215,2.86136 0,1.71681 0.93755,2.86136 2.36215,2.86136 0.6088,0 1.20542,-0.19482 1.70464,-0.54792 v -0.51139 c -0.57228,0.36528 -1.03496,0.49921 -1.70464,0.49921 -1.03496,0 -1.29066,-0.98625 -1.29066,-2.1795 z m -1.07148,-0.51139 h -2.56914 c 0,-0.97408 0.41398,-1.96034 1.29066,-1.96034 0.86449,0 1.27848,0.98626 1.27848,1.96034 z"
         style="font-size:12.176px;line-height:1.25"
         id="path391" />
      <path
         d="m 375.21341,724.44225 h -0.54792 l -1.65594,4.55382 -1.60723,-4.55382 h -0.90102 l 1.92381,5.4792 h 0.79144 z"
         style="font-size:12.176px;line-height:1.25"
         id="path393" />
      <path
         d="m 378.89056,729.49529 v -0.36528 c -0.19482,0.19481 -0.42616,0.3531 -0.70621,0.3531 -0.43834,0 -0.46269,-0.57227 -0.46269,-1.08366 v -3.44581 h 1.1689 v -0.51139 h -1.1689 v -1.8264 h -0.57227 c 0,0.97408 -0.5601,1.88728 -1.44894,1.88728 v 0.45051 h 1.07148 v 3.44581 c 0,0.80361 0.2557,1.64376 0.94973,1.64376 0.45051,0 0.84015,-0.24352 1.1689,-0.54792 z"
         style="font-size:12.176px;line-height:1.25"
         id="path395" />
      <path
         d="m 385.34382,731.32169 v -0.6088 h -6.088 v 0.6088 z"
         style="font-size:12.176px;line-height:1.25"
         id="path397" />
      <path
         d="m 392.96597,729.92145 v -3.9572 c 0,-0.85232 -0.49921,-1.64376 -1.29065,-1.64376 -0.68186,0 -1.31501,0.3531 -1.68029,0.92537 -0.19482,-0.53574 -0.6088,-0.92537 -1.1689,-0.92537 -0.63315,0 -1.14454,0.43833 -1.55853,0.92537 v -0.80361 h -0.94972 v 5.4792 h 0.94972 v -4.31031 c 0.29223,-0.37745 0.65751,-0.73056 1.13237,-0.73056 0.49922,0 0.76709,0.53575 0.76709,1.08367 v 3.9572 h 0.94973 v -3.9572 c 0,-0.14611 -0.0122,-0.28005 -0.0365,-0.42616 0.29222,-0.37746 0.69403,-0.65751 1.1689,-0.65751 0.49921,0 0.76708,0.53575 0.76708,1.08367 v 3.9572 z"
         style="font-size:12.176px;line-height:1.25"
         id="path399" />
      <path
         d="m 397.08144,729.49529 v -0.36528 c -0.23134,0.19481 -0.49922,0.3531 -0.80362,0.3531 -0.45051,0 -0.53574,-0.56009 -0.53574,-1.08366 v -3.9572 h -0.94973 v 3.9572 c 0,0.81579 0.31658,1.64376 1.03496,1.64376 0.46269,0 0.90103,-0.23135 1.25413,-0.54792 z m -1.2176,-6.9525 c 0,-0.32875 -0.26787,-0.59662 -0.59662,-0.59662 -0.32876,0 -0.59663,0.26787 -0.59663,0.59662 0,0.32875 0.26787,0.59663 0.59663,0.59663 0.32875,0 0.59662,-0.26788 0.59662,-0.59663 z"
         style="font-size:12.176px;line-height:1.25"
         id="path401" />
      <path
         d="m 402.70674,729.92145 v -3.9572 c 0,-0.88885 -0.68186,-1.64376 -1.55853,-1.64376 -0.73056,0 -1.37589,0.41398 -1.89945,0.92537 v -0.80361 h -0.94973 v 5.4792 h 0.94973 v -4.29813 c 0.41398,-0.41398 0.92537,-0.74274 1.49764,-0.74274 0.57228,0 1.01061,0.49922 1.01061,1.08367 v 3.9572 z"
         style="font-size:12.176px;line-height:1.25"
         id="path403" />
      <path
         d="m 408.94083,729.92145 v -5.4792 h -0.94973 v 4.29813 c -0.41398,0.41398 -0.92537,0.74273 -1.49764,0.74273 -0.57228,0 -1.01061,-0.49921 -1.01061,-1.08366 v -3.9572 h -0.94973 v 3.9572 c 0,0.88885 0.68186,1.64376 1.55853,1.64376 0.73056,0 1.37589,-0.41399 1.89945,-0.92538 v 0.80362 z"
         style="font-size:12.176px;line-height:1.25"
         id="path405" />
      <path
         d="m 414.59048,728.36292 c 0,-0.9619 -1.02279,-1.46112 -2.02122,-1.70464 -0.58445,-0.14611 -1.2176,-0.38963 -1.2176,-0.9619 0,-0.52357 0.53574,-0.8645 1.12019,-0.8645 0.64533,0 1.29066,0.19482 1.8264,0.54792 v -0.51139 c -0.53574,-0.35311 -1.18107,-0.54792 -1.8264,-0.54792 -1.05931,0 -2.03339,0.64533 -2.03339,1.63158 0,0.88885 0.98626,1.30283 1.92381,1.53418 0.64533,0.15829 1.31501,0.49921 1.31501,1.12019 0,0.57227 -0.58445,0.92538 -1.20543,0.92538 -0.75491,0 -1.48547,-0.18264 -2.1308,-0.54792 v 0.51139 c 0.64533,0.36528 1.37589,0.54792 2.1308,0.54792 1.09584,0 2.11863,-0.65751 2.11863,-1.68029 z"
         style="font-size:12.176px;line-height:1.25"
         id="path407" />
    </g>
    <path
       style="fill:none;stroke:#000000;stroke-width:1px;stroke-linecap:butt;stroke-linejoin:miter;stroke-opacity:1;marker-end:url(#Arrow1Mend)"
       d="m 325.98421,744.09448 h 56.6929"
       id="path13294" />
    <path
       id="path13296"
       d="m 396.85039,744.09447 138.18897,-10e-6"
       style="fill:none;stroke:#000000;stroke-width:1px;stroke-linecap:butt;stroke-linejoin:miter;stroke-opacity:1;marker-end:url(#Arrow1Mend)" />
    <g
       transform="translate(134.64567,588.18903)"
       id="g13298">
      <path
         id="path13300"
         d="m 180.70866,102.75588 7.08662,7.08662 -7.08662,7.08661 v 0"
         style="fill:none;stroke:#000000;stroke-width:1px;stroke-linecap:butt;stroke-linejoin:miter;stroke-opacity:1" />
      <path
         style="fill:none;stroke:#000000;stroke-width:1px;stroke-linecap:butt;stroke-linejoin:miter;stroke-opacity:1"
         d="m 184.25196,102.75588 7.08662,7.08662 -7.08662,7.08661 v 0"
         id="path13302" />
    </g>
    <path
       id="path13304"
       d="m 382.67717,690.94489 h 14.1732 v 14.1732 h -14.1732 z"
       style="fill:#afdde9;fill-opacity:1;stroke:#000000;stroke-width:1px;stroke-linecap:butt;stroke-linejoin:miter;stroke-opacity:1" />
    <g
       aria-label="cycle_minutes_ones"
       id="text13306"
       style="line-height:0%;font-family:Iwona;-inkscape-font-specification:Iwona;text-align:center;letter-spacing:0px;word-spacing:0px;text-anchor:middle">
      <path
         d="m 343.8421,679.64556 v -0.51139 c -0.38963,-0.54792 -1.02278,-0.87667 -1.70464,-0.87667 -1.522,0 -2.54478,1.14454 -2.54478,2.86136 0,1.71682 1.02278,2.86136 2.54478,2.86136 0.63315,0 1.22978,-0.31658 1.58288,-0.84014 v -0.5114 c -0.41398,0.62098 -0.84014,0.84015 -1.58288,0.84015 -0.87667,0 -1.47329,-0.93755 -1.47329,-2.34997 0,-1.41242 0.59662,-2.34997 1.47329,-2.34997 0.75491,0 1.26631,0.26787 1.70464,0.87667 z"
         style="font-size:12.176px;line-height:1.25"
         id="path410" />
      <path
         d="m 349.4674,684.58902 v -6.20976 h -0.94973 v 4.29813 c -0.41398,0.41398 -0.92537,0.74273 -1.49764,0.74273 -0.57228,0 -1.01061,-0.49921 -1.01061,-1.08366 v -3.9572 h -0.94973 v 3.9572 c 0,0.88885 0.68186,1.64376 1.55853,1.64376 0.73056,0 1.37589,-0.41398 1.89945,-0.92538 v 1.53418 c 0,0.81579 -0.36528,1.63158 -1.09584,1.63158 -0.57227,0 -1.12019,-0.12176 -1.64376,-0.32875 v 0.37746 c 0.62098,0.31657 1.31501,0.51139 2.02122,0.51139 1.03496,0 1.66811,-1.07149 1.66811,-2.19168 z"
         style="font-size:12.176px;line-height:1.25"
         id="path412" />
      <path
         d="m 355.36056,679.64556 v -0.51139 c -0.38963,-0.54792 -1.02278,-0.87667 -1.70464,-0.87667 -1.522,0 -2.54478,1.14454 -2.54478,2.86136 0,1.71682 1.02278,2.86136 2.54478,2.86136 0.63316,0 1.22978,-0.31658 1.58288,-0.84014 v -0.5114 c -0.41398,0.62098 -0.84014,0.84015 -1.58288,0.84015 -0.87667,0 -1.47329,-0.93755 -1.47329,-2.34997 0,-1.41242 0.59662,-2.34997 1.47329,-2.34997 0.75492,0 1.26631,0.26787 1.70464,0.87667 z"
         style="font-size:12.176px;line-height:1.25"
         id="path414" />
      <path
         d="m 358.92812,683.4323 v -0.36528 c -0.23134,0.19482 -0.49922,0.3531 -0.80362,0.3531 -0.45051,0 -0.53574,-0.56009 -0.53574,-1.08366 v -7.0012 h -0.94973 v 7.0012 c 0,0.81579 0.31658,1.64376 1.03496,1.64376 0.46269,0 0.90103,-0.23134 1.25413,-0.54792 z"
         style="font-size:12.176px;line-height:1.25"
         id="path416" />
      <path
         d="m 364.55341,681.24062 v -0.12176 c 0,-1.71682 -0.93755,-2.86136 -2.34997,-2.86136 -1.42459,0 -2.36214,1.14454 -2.36214,2.86136 0,1.71682 0.93755,2.86136 2.36214,2.86136 0.6088,0 1.20543,-0.19482 1.70464,-0.54792 v -0.51139 c -0.57227,0.36528 -1.03496,0.49921 -1.70464,0.49921 -1.03496,0 -1.29065,-0.98625 -1.29065,-2.1795 z m -1.07149,-0.51139 h -2.56913 c 0,-0.97408 0.41398,-1.96034 1.29065,-1.96034 0.8645,0 1.27848,0.98626 1.27848,1.96034 z"
         style="font-size:12.176px;line-height:1.25"
         id="path418" />
      <path
         d="m 371.25019,685.2587 v -0.6088 h -6.088 v 0.6088 z"
         style="font-size:12.176px;line-height:1.25"
         id="path420" />
      <path
         d="m 378.87235,683.85846 v -3.9572 c 0,-0.85232 -0.49922,-1.64376 -1.29066,-1.64376 -0.68186,0 -1.31501,0.3531 -1.68029,0.92538 -0.19481,-0.53575 -0.6088,-0.92538 -1.16889,-0.92538 -0.63316,0 -1.14455,0.43834 -1.55853,0.92538 v -0.80362 h -0.94973 v 5.4792 h 0.94973 v -4.3103 c 0.29222,-0.37746 0.6575,-0.73056 1.13237,-0.73056 0.49921,0 0.76708,0.53574 0.76708,1.08366 v 3.9572 h 0.94973 v -3.9572 c 0,-0.14611 -0.0122,-0.28005 -0.0365,-0.42616 0.29223,-0.37746 0.69404,-0.6575 1.1689,-0.6575 0.49922,0 0.76709,0.53574 0.76709,1.08366 v 3.9572 z"
         style="font-size:12.176px;line-height:1.25"
         id="path422" />
      <path
         d="m 382.98781,683.4323 v -0.36528 c -0.23134,0.19482 -0.49921,0.3531 -0.80361,0.3531 -0.45052,0 -0.53575,-0.56009 -0.53575,-1.08366 v -3.9572 h -0.94973 v 3.9572 c 0,0.81579 0.31658,1.64376 1.03496,1.64376 0.46269,0 0.90103,-0.23134 1.25413,-0.54792 z m -1.2176,-6.9525 c 0,-0.32875 -0.26787,-0.59662 -0.59662,-0.59662 -0.32875,0 -0.59663,0.26787 -0.59663,0.59662 0,0.32876 0.26788,0.59663 0.59663,0.59663 0.32875,0 0.59662,-0.26787 0.59662,-0.59663 z"
         style="font-size:12.176px;line-height:1.25"
         id="path424" />
      <path
         d="m 388.61311,683.85846 v -3.9572 c 0,-0.88885 -0.68185,-1.64376 -1.55852,-1.64376 -0.73056,0 -1.37589,0.41398 -1.89946,0.92538 v -0.80362 h -0.94973 v 5.4792 h 0.94973 v -4.29813 c 0.41398,-0.41398 0.92538,-0.74273 1.49765,-0.74273 0.57227,0 1.01061,0.49921 1.01061,1.08366 v 3.9572 z"
         style="font-size:12.176px;line-height:1.25"
         id="path426" />
      <path
         d="m 394.8472,683.85846 v -5.4792 h -0.94972 v 4.29813 c -0.41399,0.41398 -0.92538,0.74273 -1.49765,0.74273 -0.57227,0 -1.01061,-0.49921 -1.01061,-1.08366 v -3.9572 h -0.94973 v 3.9572 c 0,0.88885 0.68186,1.64376 1.55853,1.64376 0.73056,0 1.37589,-0.41398 1.89946,-0.92538 v 0.80362 z"
         style="font-size:12.176px;line-height:1.25"
         id="path428" />
      <path
         d="m 399.37666,683.4323 v -0.36528 c -0.19482,0.19482 -0.42616,0.3531 -0.70621,0.3531 -0.43834,0 -0.46269,-0.57227 -0.46269,-1.08366 v -3.44581 h 1.1689 v -0.51139 h -1.1689 v -1.8264 h -0.57227 c 0,0.97408 -0.5601,1.88728 -1.44895,1.88728 v 0.45051 h 1.07149 v 3.44581 c 0,0.80362 0.2557,1.64376 0.94973,1.64376 0.45051,0 0.84014,-0.24352 1.1689,-0.54792 z"
         style="font-size:12.176px;line-height:1.25"
         id="path430" />
      <path
         d="m 405.12371,681.24062 v -0.12176 c 0,-1.71682 -0.93755,-2.86136 -2.34997,-2.86136 -1.42459,0 -2.36214,1.14454 -2.36214,2.86136 0,1.71682 0.93755,2.86136 2.36214,2.86136 0.6088,0 1.20543,-0.19482 1.70464,-0.54792 v -0.51139 c -0.57227,0.36528 -1.03496,0.49921 -1.70464,0.49921 -1.03496,0 -1.29065,-0.98625 -1.29065,-2.1795 z m -1.07149,-0.51139 h -2.56913 c 0,-0.97408 0.41398,-1.96034 1.29065,-1.96034 0.8645,0 1.27848,0.98626 1.27848,1.96034 z"
         style="font-size:12.176px;line-height:1.25"
         id="path432" />
      <path
         d="m 410.40808,682.29993 c 0,-0.9619 -1.02279,-1.46112 -2.02122,-1.70464 -0.58445,-0.14611 -1.2176,-0.38963 -1.2176,-0.9619 0,-0.52357 0.53574,-0.8645 1.12019,-0.8645 0.64533,0 1.29066,0.19482 1.8264,0.54792 v -0.51139 c -0.53574,-0.3531 -1.18107,-0.54792 -1.8264,-0.54792 -1.05931,0 -2.03339,0.64533 -2.03339,1.63158 0,0.88885 0.98626,1.30284 1.92381,1.53418 0.64533,0.15829 1.31501,0.49922 1.31501,1.12019 0,0.57227 -0.58445,0.92538 -1.20543,0.92538 -0.75491,0 -1.48547,-0.18264 -2.1308,-0.54792 v 0.51139 c 0.64533,0.36528 1.37589,0.54792 2.1308,0.54792 1.09584,0 2.11863,-0.6575 2.11863,-1.68029 z"
         style="font-size:12.176px;line-height:1.25"
         id="path434" />
      <path
         d="m 417.04399,685.2587 v -0.6088 h -6.088 v 0.6088 z"
         style="font-size:12.176px;line-height:1.25"
         id="path436" />
      <path
         d="m 422.42575,681.11886 c 0,-1.86293 -0.82796,-2.86136 -2.34996,-2.86136 -1.53418,0 -2.36215,0.99843 -2.36215,2.86136 0,1.86293 0.82797,2.86136 2.36215,2.86136 1.522,0 2.34996,-0.99843 2.34996,-2.86136 z m -1.07148,0 c 0,1.522 -0.45052,2.34997 -1.27848,2.34997 -0.84015,0 -1.29066,-0.82797 -1.29066,-2.34997 0,-1.522 0.45051,-2.34997 1.29066,-2.34997 0.82796,0 1.27848,0.82797 1.27848,2.34997 z"
         style="font-size:12.176px;line-height:1.25"
         id="path438" />
      <path
         d="m 428.47722,683.85846 v -3.9572 c 0,-0.88885 -0.68185,-1.64376 -1.55853,-1.64376 -0.73056,0 -1.37588,0.41398 -1.89945,0.92538 v -0.80362 h -0.94973 v 5.4792 h 0.94973 v -4.29813 c 0.41398,-0.41398 0.92537,-0.74273 1.49765,-0.74273 0.57227,0 1.0106,0.49921 1.0106,1.08366 v 3.9572 z"
         style="font-size:12.176px;line-height:1.25"
         id="path440" />
      <path
         d="m 434.7722,681.24062 v -0.12176 c 0,-1.71682 -0.93755,-2.86136 -2.34997,-2.86136 -1.42459,0 -2.36214,1.14454 -2.36214,2.86136 0,1.71682 0.93755,2.86136 2.36214,2.86136 0.6088,0 1.20542,-0.19482 1.70464,-0.54792 v -0.51139 c -0.57227,0.36528 -1.03496,0.49921 -1.70464,0.49921 -1.03496,0 -1.29066,-0.98625 -1.29066,-2.1795 z m -1.07149,-0.51139 h -2.56914 c 0,-0.97408 0.41399,-1.96034 1.29066,-1.96034 0.8645,0 1.27848,0.98626 1.27848,1.96034 z"
         style="font-size:12.176px;line-height:1.25"
         id="path442" />
      <path
         d="m 440.05656,682.29993 c 0,-0.9619 -1.02278,-1.46112 -2.02122,-1.70464 -0.58444,-0.14611 -1.2176,-0.38963 -1.2176,-0.9619 0,-0.52357 0.53575,-0.8645 1.1202,-0.8645 0.64532,0 1.29065,0.19482 1.8264,0.54792 v -0.51139 c -0.53575,-0.3531 -1.18108,-0.54792 -1.8264,-0.54792 -1.05932,0 -2.0334,0.64533 -2.0334,1.63158 0,0.88885 0.98626,1.30284 1.92381,1.53418 0.64533,0.15829 1.31501,0.49922 1.31501,1.12019 0,0.57227 -0.58445,0.92538 -1.20542,0.92538 -0.75492,0 -1.48548,-0.18264 -2.1308,-0.54792 v 0.51139 c 0.64532,0.36528 1.37588,0.54792 2.1308,0.54792 1.09584,0 2.11862,-0.6575 2.11862,-1.68029 z"
         style="font-size:12.176px;line-height:1.25"
         id="path444" />
    </g>
    <path
       id="path13310"
       d="m 325.98427,698.03149 h 56.6929"
       style="fill:none;stroke:#000000;stroke-width:1px;stroke-linecap:butt;stroke-linejoin:miter;stroke-opacity:1;marker-end:url(#Arrow1Mend)" />
    <path
       style="fill:none;stroke:#000000;stroke-width:1px;stroke-linecap:butt;stroke-linejoin:miter;stroke-opacity:1;marker-end:url(#Arrow1Mend)"
       d="M 396.85039,698.03147 H 616.53543"
       id="path13312" />
    <g
       id="g13314"
       transform="translate(53.149587,240.94487)">
      <path
         style="fill:none;stroke:#000000;stroke-width:1px;stroke-linecap:butt;stroke-linejoin:miter;stroke-opacity:1"
         d="m 180.70866,102.75588 7.08662,7.08662 -7.08662,7.08661 v 0"
         id="path13316" />
      <path
         id="path13318"
         d="m 184.25196,102.75588 7.08662,7.08662 -7.08662,7.08661 v 0"
         style="fill:none;stroke:#000000;stroke-width:1px;stroke-linecap:butt;stroke-linejoin:miter;stroke-opacity:1" />
    </g>
    <g
       id="g13320"
       transform="translate(279.92123,361.41732)">
      <path
         style="fill:#f4d7d7;fill-opacity:1;stroke:#000000;stroke-width:1px;stroke-linecap:butt;stroke-linejoin:miter;stroke-opacity:1"
         d="m 336.61417,315.35432 24.80315,17.71652 v 70.86615 l -24.80315,17.71653 z"
         id="path13322" />
      <g
         aria-label="1"
         id="text13324"
         style="line-height:0%;font-family:Iwona;-inkscape-font-specification:Iwona;letter-spacing:0px;word-spacing:0px">
        <path
           d="m 345.43747,343.70078 v -11.04 h -0.928 c -0.88,1.008 -1.92,1.872 -3.072,2.544 v 0.672 c 0.976,-0.464 1.888,-1.008 2.752,-1.664 v 9.488 z"
           style="font-size:16px;line-height:1.25"
           id="path447" />
      </g>
      <g
         aria-label="0"
         id="text13328"
         style="line-height:0%;font-family:Iwona;-inkscape-font-specification:Iwona;letter-spacing:0px;word-spacing:0px">
        <path
           d="m 347.86947,398.41698 c 0,-3.792 -1.168,-5.68 -3.504,-5.68 -2.336,0 -3.504,1.888 -3.504,5.68 0,3.792 1.168,5.68 3.504,5.68 2.336,0 3.504,-1.888 3.504,-5.68 z m -1.408,0 c 0,3.344 -0.704,5.008 -2.096,5.008 -1.392,0 -2.096,-1.664 -2.096,-5.008 0,-3.344 0.704,-5.008 2.096,-5.008 1.392,0 2.096,1.664 2.096,5.008 z"
           style="font-size:16px;line-height:1.25"
           id="path450" />
      </g>
    </g>
    <path
       style="fill:none;stroke:#000000;stroke-width:1px;stroke-linecap:butt;stroke-linejoin:miter;stroke-opacity:1;marker-end:url(#Arrow1Mend)"
       d="m 559.84253,761.811 h 56.6929"
       id="path13332" />
    <path
       style="fill:#afdde9;fill-opacity:1;stroke:#000000;stroke-width:1px;stroke-linecap:butt;stroke-linejoin:miter;stroke-opacity:1"
       d="m 698.03154,722.83463 h 14.1732 v 14.1732 h -14.1732 z"
       id="path13338" />
    <g
       aria-label="down_minutes_tens"
       id="text13340"
       style="line-height:0%;font-family:Iwona;-inkscape-font-specification:Iwona;text-align:center;letter-spacing:0px;word-spacing:0px;text-anchor:middle">
      <path
         d="m 671.01959,715.74799 v -8.5232 h -0.94973 v 3.25099 c -0.47487,-0.20699 -0.98626,-0.32875 -1.49765,-0.32875 -1.522,0 -2.26474,1.2176 -2.26474,2.86136 0,1.6194 0.6088,2.86136 2.0821,2.86136 0.62098,0 1.19325,-0.28005 1.68029,-0.66968 v 0.54792 z m -0.94973,-1.05932 c -0.36528,0.36528 -0.81579,0.66968 -1.33936,0.66968 -1.10802,0 -1.35154,-1.07148 -1.35154,-2.34996 0,-1.14455 0.35311,-2.34997 1.35154,-2.34997 0.46269,0 0.92537,0.12176 1.33936,0.32875 z"
         style="font-size:12.176px;line-height:1.25"
         id="path453" />
      <path
         d="m 677.37545,713.00839 c 0,-1.86293 -0.82797,-2.86136 -2.34997,-2.86136 -1.53417,0 -2.36214,0.99843 -2.36214,2.86136 0,1.86292 0.82797,2.86136 2.36214,2.86136 1.522,0 2.34997,-0.99844 2.34997,-2.86136 z m -1.07149,0 c 0,1.522 -0.45051,2.34996 -1.27848,2.34996 -0.84014,0 -1.29065,-0.82796 -1.29065,-2.34996 0,-1.522 0.45051,-2.34997 1.29065,-2.34997 0.82797,0 1.27848,0.82797 1.27848,2.34997 z"
         style="font-size:12.176px;line-height:1.25"
         id="path455" />
      <path
         d="m 686.00823,710.26879 h -0.53574 l -1.43677,4.44424 -1.37589,-4.44424 h -0.6575 l -1.43677,4.44424 -1.38807,-4.44424 h -0.88884 l 1.70464,5.4792 h 0.76708 l 1.37589,-4.2616 1.32719,4.2616 h 0.76708 z"
         style="font-size:12.176px;line-height:1.25"
         id="path457" />
      <path
         d="m 691.63354,715.74799 v -3.9572 c 0,-0.88885 -0.68186,-1.64376 -1.55853,-1.64376 -0.73056,0 -1.37589,0.41398 -1.89945,0.92537 v -0.80361 h -0.94973 v 5.4792 h 0.94973 v -4.29813 c 0.41398,-0.41399 0.92537,-0.74274 1.49764,-0.74274 0.57228,0 1.01061,0.49922 1.01061,1.08367 v 3.9572 z"
         style="font-size:12.176px;line-height:1.25"
         id="path459" />
      <path
         d="m 698.63472,717.14823 v -0.6088 h -6.088 v 0.6088 z"
         style="font-size:12.176px;line-height:1.25"
         id="path461" />
      <path
         d="m 706.25687,715.74799 v -3.9572 c 0,-0.85232 -0.49921,-1.64376 -1.29065,-1.64376 -0.68186,0 -1.31501,0.3531 -1.68029,0.92537 -0.19482,-0.53574 -0.6088,-0.92537 -1.1689,-0.92537 -0.63315,0 -1.14454,0.43833 -1.55853,0.92537 v -0.80361 h -0.94972 v 5.4792 h 0.94972 v -4.31031 c 0.29223,-0.37745 0.65751,-0.73056 1.13237,-0.73056 0.49922,0 0.76709,0.53575 0.76709,1.08367 v 3.9572 h 0.94973 v -3.9572 c 0,-0.14612 -0.0122,-0.28005 -0.0365,-0.42616 0.29222,-0.37746 0.69403,-0.65751 1.1689,-0.65751 0.49921,0 0.76708,0.53575 0.76708,1.08367 v 3.9572 z"
         style="font-size:12.176px;line-height:1.25"
         id="path463" />
      <path
         d="m 710.37234,715.32183 v -0.36528 c -0.23135,0.19481 -0.49922,0.3531 -0.80362,0.3531 -0.45051,0 -0.53574,-0.5601 -0.53574,-1.08366 v -3.9572 h -0.94973 v 3.9572 c 0,0.81579 0.31658,1.64376 1.03496,1.64376 0.46269,0 0.90102,-0.23135 1.25413,-0.54792 z m -1.2176,-6.9525 c 0,-0.32875 -0.26787,-0.59662 -0.59663,-0.59662 -0.32875,0 -0.59662,0.26787 -0.59662,0.59662 0,0.32875 0.26787,0.59662 0.59662,0.59662 0.32876,0 0.59663,-0.26787 0.59663,-0.59662 z"
         style="font-size:12.176px;line-height:1.25"
         id="path465" />
      <path
         d="m 715.99764,715.74799 v -3.9572 c 0,-0.88885 -0.68186,-1.64376 -1.55853,-1.64376 -0.73056,0 -1.37589,0.41398 -1.89945,0.92537 v -0.80361 h -0.94973 v 5.4792 h 0.94973 v -4.29813 c 0.41398,-0.41399 0.92537,-0.74274 1.49764,-0.74274 0.57228,0 1.01061,0.49922 1.01061,1.08367 v 3.9572 z"
         style="font-size:12.176px;line-height:1.25"
         id="path467" />
      <path
         d="m 722.23173,715.74799 v -5.4792 H 721.282 v 4.29812 c -0.41398,0.41399 -0.92537,0.74274 -1.49765,0.74274 -0.57227,0 -1.0106,-0.49922 -1.0106,-1.08366 v -3.9572 h -0.94973 v 3.9572 c 0,0.88884 0.68185,1.64376 1.55853,1.64376 0.73056,0 1.37588,-0.41399 1.89945,-0.92538 v 0.80362 z"
         style="font-size:12.176px;line-height:1.25"
         id="path469" />
      <path
         d="m 726.76118,715.32183 v -0.36528 c -0.19481,0.19481 -0.42616,0.3531 -0.70621,0.3531 -0.43833,0 -0.46268,-0.57227 -0.46268,-1.08366 v -3.44581 h 1.16889 v -0.51139 h -1.16889 v -1.8264 h -0.57228 c 0,0.97408 -0.56009,1.88728 -1.44894,1.88728 v 0.45051 h 1.07149 v 3.44581 c 0,0.80361 0.25569,1.64376 0.94973,1.64376 0.45051,0 0.84014,-0.24352 1.16889,-0.54792 z"
         style="font-size:12.176px;line-height:1.25"
         id="path471" />
      <path
         d="m 732.50824,713.13015 v -0.12176 c 0,-1.71682 -0.93756,-2.86136 -2.34997,-2.86136 -1.42459,0 -2.36215,1.14454 -2.36215,2.86136 0,1.71681 0.93756,2.86136 2.36215,2.86136 0.6088,0 1.20542,-0.19482 1.70464,-0.54792 v -0.5114 c -0.57227,0.36528 -1.03496,0.49922 -1.70464,0.49922 -1.03496,0 -1.29066,-0.98626 -1.29066,-2.1795 z m -1.07149,-0.5114 h -2.56914 c 0,-0.97408 0.41399,-1.96033 1.29066,-1.96033 0.86449,0 1.27848,0.98625 1.27848,1.96033 z"
         style="font-size:12.176px;line-height:1.25"
         id="path473" />
      <path
         d="m 737.7926,714.18946 c 0,-0.96191 -1.02278,-1.46112 -2.02121,-1.70464 -0.58445,-0.14611 -1.2176,-0.38963 -1.2176,-0.96191 0,-0.52356 0.53574,-0.86449 1.12019,-0.86449 0.64533,0 1.29065,0.19481 1.8264,0.54792 v -0.51139 c -0.53575,-0.35311 -1.18107,-0.54792 -1.8264,-0.54792 -1.05931,0 -2.03339,0.64532 -2.03339,1.63158 0,0.88885 0.98625,1.30283 1.9238,1.53418 0.64533,0.15828 1.31501,0.49921 1.31501,1.12019 0,0.57227 -0.58445,0.92537 -1.20542,0.92537 -0.75491,0 -1.48547,-0.18264 -2.1308,-0.54792 v 0.5114 c 0.64533,0.36528 1.37589,0.54792 2.1308,0.54792 1.09584,0 2.11862,-0.65751 2.11862,-1.68029 z"
         style="font-size:12.176px;line-height:1.25"
         id="path475" />
      <path
         d="m 744.42851,717.14823 v -0.6088 h -6.088 v 0.6088 z"
         style="font-size:12.176px;line-height:1.25"
         id="path477" />
      <path
         d="m 747.98388,715.32183 v -0.36528 c -0.19482,0.19481 -0.42616,0.3531 -0.70621,0.3531 -0.43833,0 -0.46269,-0.57227 -0.46269,-1.08366 v -3.44581 h 1.1689 v -0.51139 h -1.1689 v -1.8264 h -0.57227 c 0,0.97408 -0.56009,1.88728 -1.44894,1.88728 v 0.45051 h 1.07149 v 3.44581 c 0,0.80361 0.25569,1.64376 0.94972,1.64376 0.45052,0 0.84015,-0.24352 1.1689,-0.54792 z"
         style="font-size:12.176px;line-height:1.25"
         id="path479" />
      <path
         d="m 753.73093,713.13015 v -0.12176 c 0,-1.71682 -0.93755,-2.86136 -2.34996,-2.86136 -1.4246,0 -2.36215,1.14454 -2.36215,2.86136 0,1.71681 0.93755,2.86136 2.36215,2.86136 0.6088,0 1.20542,-0.19482 1.70464,-0.54792 v -0.5114 c -0.57228,0.36528 -1.03496,0.49922 -1.70464,0.49922 -1.03496,0 -1.29066,-0.98626 -1.29066,-2.1795 z m -1.07148,-0.5114 h -2.56914 c 0,-0.97408 0.41398,-1.96033 1.29066,-1.96033 0.86449,0 1.27848,0.98625 1.27848,1.96033 z"
         style="font-size:12.176px;line-height:1.25"
         id="path481" />
      <path
         d="m 759.72151,715.74799 v -3.9572 c 0,-0.88885 -0.68185,-1.64376 -1.55853,-1.64376 -0.73056,0 -1.37588,0.41398 -1.89945,0.92537 v -0.80361 h -0.94973 v 5.4792 h 0.94973 v -4.29813 c 0.41398,-0.41399 0.92537,-0.74274 1.49765,-0.74274 0.57227,0 1.0106,0.49922 1.0106,1.08367 v 3.9572 z"
         style="font-size:12.176px;line-height:1.25"
         id="path483" />
      <path
         d="m 765.31027,714.18946 c 0,-0.96191 -1.02278,-1.46112 -2.02121,-1.70464 -0.58445,-0.14611 -1.2176,-0.38963 -1.2176,-0.96191 0,-0.52356 0.53574,-0.86449 1.12019,-0.86449 0.64533,0 1.29065,0.19481 1.8264,0.54792 v -0.51139 c -0.53575,-0.35311 -1.18107,-0.54792 -1.8264,-0.54792 -1.05931,0 -2.03339,0.64532 -2.03339,1.63158 0,0.88885 0.98625,1.30283 1.9238,1.53418 0.64533,0.15828 1.31501,0.49921 1.31501,1.12019 0,0.57227 -0.58445,0.92537 -1.20542,0.92537 -0.75491,0 -1.48547,-0.18264 -2.1308,-0.54792 v 0.5114 c 0.64533,0.36528 1.37589,0.54792 2.1308,0.54792 1.09584,0 2.11862,-0.65751 2.11862,-1.68029 z"
         style="font-size:12.176px;line-height:1.25"
         id="path485" />
    </g>
    <path
       style="fill:none;stroke:#000000;stroke-width:1px;stroke-linecap:butt;stroke-linejoin:miter;stroke-opacity:1;marker-end:url(#Arrow1Mend)"
       d="m 641.33858,729.92123 h 56.69296"
       id="path13344" />
    <path
       id="path13346"
       d="m 712.20474,729.92123 h 56.6929"
       style="fill:none;stroke:#000000;stroke-width:0.999213;stroke-linecap:butt;stroke-linejoin:miter;stroke-miterlimit:4;stroke-dasharray:none;stroke-opacity:1;marker-end:none" />
    <g
       transform="translate(581.10237,620.07871)"
       id="g13348">
      <path
         id="path13350"
         d="m 180.70866,102.75588 7.08662,7.08662 -7.08662,7.08661 v 0"
         style="fill:none;stroke:#000000;stroke-width:1px;stroke-linecap:butt;stroke-linejoin:miter;stroke-opacity:1" />
      <path
         style="fill:none;stroke:#000000;stroke-width:1px;stroke-linecap:butt;stroke-linejoin:miter;stroke-opacity:1"
         d="m 184.25196,102.75588 7.08662,7.08662 -7.08662,7.08661 v 0"
         id="path13352" />
    </g>
    <g
       id="g8167"
       transform="translate(464.67377,251.88985)">
      <path
         id="rect8169"
         style="fill:#f4d7d7;stroke:#000000;stroke-width:0.999213;stroke-linecap:round"
         d="M -7.5871768,162.67706 H 176.66478 v 53.1496 H -7.5871768 Z" />
      <g
         aria-label="≟ SET_MINUTES_TENS"
         id="text8171"
         style="font-size:15px;line-height:0%;font-family:Iwona;-inkscape-font-specification:Iwona;text-align:center;letter-spacing:0px;word-spacing:0px;text-anchor:middle">
        <path
           d="M 0.99788475,188.00117 H 10.387533 v 1.23047 H 0.99788475 Z m 0,2.98829 H 10.387533 v 1.24511 H 0.99788475 Z m 4.13085935,-4.38721 h 0.7397461 v 0.93017 H 5.1287441 Z m 0.7177735,-0.53467 H 5.1507168 v -0.57129 q 0,-0.36621 0.102539,-0.60058 0.1025391,-0.2417 0.432129,-0.55664 l 0.3295898,-0.32227 q 0.2050781,-0.19775 0.300293,-0.36621 0.095215,-0.17578 0.095215,-0.35156 0,-0.32959 -0.2416992,-0.52735 -0.2416992,-0.20508 -0.637207,-0.20508 -0.2856446,0 -0.6152344,0.13184 -0.3295899,0.12451 -0.6811524,0.36621 v -0.68848 q 0.3442383,-0.20507 0.6958008,-0.30761 0.3515625,-0.10254 0.7324219,-0.10254 0.6738281,0 1.0766602,0.35889 0.4101562,0.35156 0.4101562,0.93017 0,0.27832 -0.1318359,0.53467 -0.131836,0.24902 -0.4614258,0.56396 l -0.3222656,0.31495 q -0.1684571,0.16845 -0.2416993,0.27099 -0.073242,0.0952 -0.102539,0.19043 -0.021973,0.0732 -0.036621,0.18311 -0.00732,0.10986 -0.00732,0.30029 z"
           style="line-height:1.25"
           id="path489" />
        <path
           d="m 25.549955,191.7677 c 0,-1.845 -1.875,-2.94 -3.81,-3.345 -1.29,-0.27 -2.745,-0.6 -2.745,-1.8 0,-1.185 1.275,-1.86 2.595,-1.86 1.215,0 2.4,0.36 3.36,1.11 v -0.6 c -0.96,-0.75 -2.145,-1.2 -3.36,-1.2 -1.95,0 -3.78,1.095 -3.78,2.865 0,1.695 1.83,2.55 3.615,2.925 1.425,0.3 2.94,0.885 2.94,2.22 0,1.365 -1.335,2.28 -2.775,2.28 -1.395,0 -2.775,-0.36 -3.945,-1.11 v 0.6 c 1.185,0.75 2.535,1.2 3.945,1.2 2.07,0 3.96,-1.335 3.96,-3.285 z"
           style="line-height:1.25"
           id="path491" />
        <path
           d="m 35.449945,194.8127 v -0.69 h -6.27 v -4.215 h 4.77 v -0.69 h -4.77 v -4.215 h 5.91 v -0.69 h -7.14 v 10.5 z"
           style="line-height:1.25"
           id="path493" />
        <path
           d="m 44.899943,185.0027 v -0.69 h -8.25 v 0.69 h 3.51 v 9.81 h 1.23 v -9.81 z"
           style="line-height:1.25"
           id="path495" />
        <path
           d="m 52.699919,196.5377 v -0.75 h -7.5 v 0.75 z"
           style="line-height:1.25"
           id="path497" />
        <path
           d="m 65.224888,194.8127 -0.6,-10.5 h -0.99 l -4.215,8.865 -4.23,-8.865 h -0.99 l -0.6,10.5 h 0.69 l 0.48,-8.505 4.065,8.505 h 0.555 l 4.11,-8.61 0.495,8.61 z"
           style="line-height:1.25"
           id="path499" />
        <path
           d="m 68.854868,194.8127 v -10.5 h -1.23 v 10.5 z"
           style="line-height:1.25"
           id="path501" />
        <path
           d="m 80.674864,194.8127 v -10.5 h -0.69 v 8.82 l -7.23,-8.82 h -0.9 v 10.5 h 0.69 v -8.82 l 7.23,8.82 z"
           style="line-height:1.25"
           id="path503" />
        <path
           d="m 91.399833,191.8727 v -7.56 h -0.69 v 7.32 c 0,1.56 -1.38,2.73 -2.97,2.73 -1.605,0 -2.985,-1.17 -2.985,-2.73 v -7.32 h -1.23 v 7.56 c 0,1.905 1.89,3.18 3.945,3.18 2.04,0 3.93,-1.275 3.93,-3.18 z"
           style="line-height:1.25"
           id="path505" />
        <path
           d="m 101.29983,185.0027 v -0.69 h -8.25 v 0.69 h 3.51 v 9.81 h 1.23 v -9.81 z"
           style="line-height:1.25"
           id="path507" />
        <path
           d="m 110.59981,194.8127 v -0.69 h -6.27 v -4.215 h 4.77 v -0.69 h -4.77 v -4.215 h 5.91 v -0.69 h -7.14 v 10.5 z"
           style="line-height:1.25"
           id="path509" />
        <path
           d="m 120.30481,191.7677 c 0,-1.845 -1.875,-2.94 -3.81,-3.345 -1.29,-0.27 -2.745,-0.6 -2.745,-1.8 0,-1.185 1.275,-1.86 2.595,-1.86 1.215,0 2.4,0.36 3.36,1.11 v -0.6 c -0.96,-0.75 -2.145,-1.2 -3.36,-1.2 -1.95,0 -3.78,1.095 -3.78,2.865 0,1.695 1.83,2.55 3.615,2.925 1.425,0.3 2.94,0.885 2.94,2.22 0,1.365 -1.335,2.28 -2.775,2.28 -1.395,0 -2.775,-0.36 -3.945,-1.11 v 0.6 c 1.185,0.75 2.535,1.2 3.945,1.2 2.07,0 3.96,-1.335 3.96,-3.285 z"
           style="line-height:1.25"
           id="path511" />
        <path
           d="m 128.70479,196.5377 v -0.75 h -7.5 v 0.75 z"
           style="line-height:1.25"
           id="path513" />
        <path
           d="m 137.25476,185.0027 v -0.69 h -8.25 v 0.69 h 3.51 v 9.81 h 1.23 v -9.81 z"
           style="line-height:1.25"
           id="path515" />
        <path
           d="m 146.55474,194.8127 v -0.69 h -6.27 v -4.215 h 4.77 v -0.69 h -4.77 v -4.215 h 5.91 v -0.69 h -7.14 v 10.5 z"
           style="line-height:1.25"
           id="path517" />
        <path
           d="m 157.77473,194.8127 v -10.5 h -0.69 v 8.82 l -7.23,-8.82 h -0.9 v 10.5 h 0.69 v -8.82 l 7.23,8.82 z"
           style="line-height:1.25"
           id="path519" />
        <path
           d="m 168.07971,191.7677 c 0,-1.845 -1.875,-2.94 -3.81,-3.345 -1.29,-0.27 -2.745,-0.6 -2.745,-1.8 0,-1.185 1.275,-1.86 2.595,-1.86 1.215,0 2.4,0.36 3.36,1.11 v -0.6 c -0.96,-0.75 -2.145,-1.2 -3.36,-1.2 -1.95,0 -3.78,1.095 -3.78,2.865 0,1.695 1.83,2.55 3.615,2.925 1.425,0.3 2.94,0.885 2.94,2.22 0,1.365 -1.335,2.28 -2.775,2.28 -1.395,0 -2.775,-0.36 -3.945,-1.11 v 0.6 c 1.185,0.75 2.535,1.2 3.945,1.2 2.07,0 3.96,-1.335 3.96,-3.285 z"
           style="line-height:1.25"
           id="path521" />
      </g>
    </g>
    <path
       style="fill:none;stroke:#000000;stroke-width:1px;stroke-linecap:butt;stroke-linejoin:miter;stroke-opacity:1;marker-end:url(#Arrow1Mend)"
       d="m 545.66929,467.71651 v 28.34646"
       id="path8177" />
    <g
       transform="translate(468.21708,655.82685)"
       id="g8181">
      <path
         id="rect8183"
         style="fill:#f4d7d7;stroke:#000000;stroke-width:0.999213;stroke-linecap:round"
         d="M -11.130487,162.67706 H 172.62188 v 53.1496 H -11.130487 Z" />
      <g
         aria-label="≟ SET_MINUTES_TENS"
         id="text8185"
         style="font-size:15px;line-height:0%;font-family:Iwona;-inkscape-font-specification:Iwona;text-align:center;letter-spacing:0px;word-spacing:0px;text-anchor:middle">
        <path
           d="m -2.5194569,188.00117 h 9.3896485 v 1.23047 h -9.3896485 z m 0,2.98829 h 9.3896485 v 1.24511 h -9.3896485 z m 4.1308594,-4.38721 h 0.7397461 v 0.93017 H 1.6114025 Z m 0.7177734,-0.53467 H 1.6333752 v -0.57129 q 0,-0.36621 0.102539,-0.60058 0.1025391,-0.2417 0.4321289,-0.55664 L 2.497633,184.0168 q 0.2050781,-0.19775 0.3002929,-0.36621 0.095215,-0.17578 0.095215,-0.35156 0,-0.32959 -0.2416992,-0.52735 -0.2416992,-0.20508 -0.6372071,-0.20508 -0.2856445,0 -0.6152343,0.13184 -0.3295899,0.12451 -0.68115238,0.36621 v -0.68848 q 0.34423828,-0.20507 0.69580078,-0.30761 0.3515625,-0.10254 0.7324219,-0.10254 0.6738281,0 1.0766601,0.35889 0.4101563,0.35156 0.4101563,0.93017 0,0.27832 -0.131836,0.53467 -0.1318359,0.24902 -0.4614257,0.56396 l -0.3222657,0.31495 q -0.168457,0.16845 -0.2416992,0.27099 -0.073242,0.0952 -0.102539,0.19043 -0.021973,0.0732 -0.036621,0.18311 -0.00732,0.10986 -0.00732,0.30029 z"
           style="line-height:1.25"
           id="path525" />
        <path
           d="m 22.032613,191.7677 c 0,-1.845 -1.875,-2.94 -3.81,-3.345 -1.29,-0.27 -2.745,-0.6 -2.745,-1.8 0,-1.185 1.275,-1.86 2.595,-1.86 1.215,0 2.4,0.36 3.36,1.11 v -0.6 c -0.96,-0.75 -2.145,-1.2 -3.36,-1.2 -1.95,0 -3.78,1.095 -3.78,2.865 0,1.695 1.83,2.55 3.615,2.925 1.425,0.3 2.94,0.885 2.94,2.22 0,1.365 -1.335,2.28 -2.775,2.28 -1.395,0 -2.775,-0.36 -3.945,-1.11 v 0.6 c 1.185,0.75 2.535,1.2 3.945,1.2 2.07,0 3.96,-1.335 3.96,-3.285 z"
           style="line-height:1.25"
           id="path527" />
        <path
           d="m 31.932604,194.8127 v -0.69 h -6.27 v -4.215 h 4.77 v -0.69 h -4.77 v -4.215 h 5.91 v -0.69 h -7.14 v 10.5 z"
           style="line-height:1.25"
           id="path529" />
        <path
           d="m 41.382602,185.0027 v -0.69 h -8.25 v 0.69 h 3.51 v 9.81 h 1.23 v -9.81 z"
           style="line-height:1.25"
           id="path531" />
        <path
           d="m 49.182577,196.5377 v -0.75 h -7.5 v 0.75 z"
           style="line-height:1.25"
           id="path533" />
        <path
           d="m 61.707547,194.8127 -0.6,-10.5 h -0.99 l -4.215,8.865 -4.23,-8.865 h -0.99 l -0.6,10.5 h 0.69 l 0.48,-8.505 4.065,8.505 h 0.555 l 4.11,-8.61 0.495,8.61 z"
           style="line-height:1.25"
           id="path535" />
        <path
           d="m 65.337527,194.8127 v -10.5 h -1.23 v 10.5 z"
           style="line-height:1.25"
           id="path537" />
        <path
           d="m 77.157523,194.8127 v -10.5 h -0.69 v 8.82 l -7.23,-8.82 h -0.9 v 10.5 h 0.69 v -8.82 l 7.23,8.82 z"
           style="line-height:1.25"
           id="path539" />
        <path
           d="m 87.882492,191.8727 v -7.56 h -0.69 v 7.32 c 0,1.56 -1.38,2.73 -2.97,2.73 -1.605,0 -2.985,-1.17 -2.985,-2.73 v -7.32 h -1.23 v 7.56 c 0,1.905 1.89,3.18 3.945,3.18 2.04,0 3.93,-1.275 3.93,-3.18 z"
           style="line-height:1.25"
           id="path541" />
        <path
           d="m 97.782489,185.0027 v -0.69 h -8.25 v 0.69 h 3.51 v 9.81 h 1.23 v -9.81 z"
           style="line-height:1.25"
           id="path543" />
        <path
           d="m 107.08246,194.8127 v -0.69 h -6.27 v -4.215 h 4.77 v -0.69 h -4.77 v -4.215 h 5.91 v -0.69 h -7.139996 v 10.5 z"
           style="line-height:1.25"
           id="path545" />
        <path
           d="m 116.78747,191.7677 c 0,-1.845 -1.875,-2.94 -3.81,-3.345 -1.29,-0.27 -2.745,-0.6 -2.745,-1.8 0,-1.185 1.275,-1.86 2.595,-1.86 1.215,0 2.4,0.36 3.36,1.11 v -0.6 c -0.96,-0.75 -2.145,-1.2 -3.36,-1.2 -1.95,0 -3.78,1.095 -3.78,2.865 0,1.695 1.83,2.55 3.615,2.925 1.425,0.3 2.94,0.885 2.94,2.22 0,1.365 -1.335,2.28 -2.775,2.28 -1.395,0 -2.775,-0.36 -3.945,-1.11 v 0.6 c 1.185,0.75 2.535,1.2 3.945,1.2 2.07,0 3.96,-1.335 3.96,-3.285 z"
           style="line-height:1.25"
           id="path547" />
        <path
           d="m 125.18745,196.5377 v -0.75 h -7.5 v 0.75 z"
           style="line-height:1.25"
           id="path549" />
        <path
           d="m 133.73742,185.0027 v -0.69 h -8.25 v 0.69 h 3.51 v 9.81 h 1.23 v -9.81 z"
           style="line-height:1.25"
           id="path551" />
        <path
           d="m 143.0374,194.8127 v -0.69 h -6.27 v -4.215 h 4.77 v -0.69 h -4.77 v -4.215 h 5.91 v -0.69 h -7.14 v 10.5 z"
           style="line-height:1.25"
           id="path553" />
        <path
           d="m 154.25739,194.8127 v -10.5 h -0.69 v 8.82 l -7.23,-8.82 h -0.9 v 10.5 h 0.69 v -8.82 l 7.23,8.82 z"
           style="line-height:1.25"
           id="path555" />
        <path
           d="m 164.56237,191.7677 c 0,-1.845 -1.875,-2.94 -3.81,-3.345 -1.29,-0.27 -2.745,-0.6 -2.745,-1.8 0,-1.185 1.275,-1.86 2.595,-1.86 1.215,0 2.4,0.36 3.36,1.11 v -0.6 c -0.96,-0.75 -2.145,-1.2 -3.36,-1.2 -1.95,0 -3.78,1.095 -3.78,2.865 0,1.695 1.83,2.55 3.615,2.925 1.425,0.3 2.94,0.885 2.94,2.22 0,1.365 -1.335,2.28 -2.775,2.28 -1.395,0 -2.775,-0.36 -3.945,-1.11 v 0.6 c 1.185,0.75 2.535,1.2 3.945,1.2 2.07,0 3.96,-1.335 3.96,-3.285 z"
           style="line-height:1.25"
           id="path557" />
      </g>
    </g>
    <path
       id="path8193"
       d="m 620.07874,634.25195 10.62992,-10e-6 v 53.14961"
       style="fill:none;stroke:#000000;stroke-width:1px;stroke-linecap:butt;stroke-linejoin:miter;stroke-opacity:1;marker-end:url(#Arrow1Mend)" />
    <path
       style="fill:none;stroke:#000000;stroke-width:1px;stroke-linecap:butt;stroke-linejoin:miter;stroke-opacity:1;marker-end:url(#Arrow1Mend)"
       d="M 549.2126,818.50391 V 793.70076"
       id="path8195" />
    <path
       id="path8197"
       d="M 287.00787,442.91336 V 634.25195 H 471.25984"
       style="fill:none;stroke:#000000;stroke-width:0.999213;stroke-linecap:butt;stroke-linejoin:miter;stroke-miterlimit:4;stroke-dasharray:none;stroke-opacity:1;marker-start:url(#DotM);marker-end:url(#Arrow1Mend)" />
    <path
       style="fill:none;stroke:#000000;stroke-width:0.999213;stroke-linecap:butt;stroke-linejoin:miter;stroke-miterlimit:4;stroke-dasharray:none;stroke-opacity:1;marker-start:url(#DotM);marker-end:url(#Arrow1Mend)"
       d="M 287.00787,634.25195 V 846.85037 H 457.08659"
       id="path8199" />
    <path
       id="path8203"
       d="m 287.00787,846.85037 v 88.58268 h 85.03937"
       style="fill:none;stroke:#000000;stroke-width:0.999213;stroke-linecap:butt;stroke-linejoin:miter;stroke-miterlimit:4;stroke-dasharray:none;stroke-opacity:1;marker-start:url(#DotM);marker-end:url(#Arrow1Mend)" />
  </g>
</svg>
