<?xml version="1.0" encoding="UTF-8" standalone="no"?>
<!-- Created with Inkscape (http://www.inkscape.org/) -->

<svg
   width="88.947868mm"
   height="31.282mm"
   id="svg2"
   version="1.1"
   viewBox="0 0 315.17 110.84187"
   xmlns="http://www.w3.org/2000/svg"
   xmlns:svg="http://www.w3.org/2000/svg"
   xmlns:rdf="http://www.w3.org/1999/02/22-rdf-syntax-ns#"
   xmlns:cc="http://creativecommons.org/ns#"
   xmlns:dc="http://purl.org/dc/elements/1.1/">
  <defs
     id="defs4" />
  <metadata
     id="metadata7">
    <rdf:RDF>
      <cc:Work
         rdf:about="">
        <dc:format>image/svg+xml</dc:format>
        <dc:type
           rdf:resource="http://purl.org/dc/dcmitype/StillImage" />
      </cc:Work>
    </rdf:RDF>
  </metadata>
  <g
     id="layer1"
     transform="translate(-144.93565,-84.539738)">
    <path
       id="rect4876"
       style="fill:#afdde9;stroke:#000000;stroke-width:0.999213;stroke-linecap:round"
       d="M 191.33858,85.039345 H 407.48032 V 194.88187 H 191.33858 Z" />
    <path
       id="path4828"
       d="m 400.3937,106.29919 h 10.62992 l 7.08661,7.0866 -7.08661,7.08661 H 400.3937 Z"
       style="fill:#afdde9;fill-opacity:1;stroke:#000000;stroke-width:1px;stroke-linecap:butt;stroke-linejoin:miter;stroke-opacity:1" />
    <g
       aria-label="value_o"
       id="text4830"
       style="line-height:0%;font-family:Iwona;-inkscape-font-specification:Iwona;letter-spacing:0px;word-spacing:0px">
      <path
         d="m 426.48744,111.44993 h -0.54792 l -1.65594,4.55382 -1.60723,-4.55382 h -0.90103 l 1.92381,5.4792 h 0.79144 z"
         style="font-size:12.176px;line-height:1.25"
         id="path37" />
      <path
         d="m 431.86922,116.92913 v -3.40928 c 0,-1.14454 -0.7062,-2.19168 -1.76552,-2.19168 -0.77926,0 -1.50982,0.26787 -2.16732,0.68186 v 0.37745 c 0.54792,-0.3044 1.15672,-0.49921 1.78987,-0.49921 0.75491,0 1.19325,0.80361 1.19325,1.63158 v 0.21917 c -0.47487,-0.20699 -0.98626,-0.32875 -1.49765,-0.32875 -1.30283,0 -2.26474,0.59662 -2.26474,1.8264 0,1.16889 0.85232,1.81422 2.0821,1.81422 0.62097,0 1.19325,-0.28005 1.68029,-0.66968 v 0.54792 z m -0.94972,-1.05931 c -0.36528,0.36528 -0.8158,0.66968 -1.33936,0.66968 -0.8158,0 -1.35154,-0.49922 -1.35154,-1.30283 0,-0.74274 0.6088,-1.31501 1.35154,-1.31501 0.46268,0 0.92537,0.12176 1.33936,0.32875 z"
         style="font-size:12.176px;line-height:1.25"
         id="path39" />
      <path
         d="m 436.10646,116.50297 v -0.36528 c -0.23134,0.19482 -0.49922,0.3531 -0.80362,0.3531 -0.45051,0 -0.53574,-0.56009 -0.53574,-1.08366 v -7.0012 h -0.94973 v 7.0012 c 0,0.81579 0.31658,1.64376 1.03496,1.64376 0.46269,0 0.90103,-0.23134 1.25413,-0.54792 z"
         style="font-size:12.176px;line-height:1.25"
         id="path41" />
      <path
         d="m 441.67087,116.92913 v -5.4792 h -0.94973 v 4.29813 c -0.41398,0.41398 -0.92537,0.74273 -1.49765,0.74273 -0.57227,0 -1.0106,-0.49921 -1.0106,-1.08366 v -3.9572 h -0.94973 v 3.9572 c 0,0.88885 0.68185,1.64376 1.55853,1.64376 0.73056,0 1.37588,-0.41398 1.89945,-0.92538 v 0.80362 z"
         style="font-size:12.176px;line-height:1.25"
         id="path43" />
      <path
         d="m 448.02672,114.31129 v -0.12176 c 0,-1.71682 -0.93755,-2.86136 -2.34997,-2.86136 -1.42459,0 -2.36214,1.14454 -2.36214,2.86136 0,1.71682 0.93755,2.86136 2.36214,2.86136 0.6088,0 1.20543,-0.19482 1.70464,-0.54792 v -0.51139 c -0.57227,0.36528 -1.03496,0.49921 -1.70464,0.49921 -1.03496,0 -1.29065,-0.98625 -1.29065,-2.1795 z m -1.07149,-0.51139 h -2.56913 c 0,-0.97408 0.41398,-1.96034 1.29065,-1.96034 0.8645,0 1.27848,0.98626 1.27848,1.96034 z"
         style="font-size:12.176px;line-height:1.25"
         id="path45" />
      <path
         d="m 454.72351,118.32937 v -0.6088 h -6.088 v 0.6088 z"
         style="font-size:12.176px;line-height:1.25"
         id="path47" />
      <path
         d="m 460.10527,114.18953 c 0,-1.86293 -0.82797,-2.86136 -2.34997,-2.86136 -1.53417,0 -2.36214,0.99843 -2.36214,2.86136 0,1.86293 0.82797,2.86136 2.36214,2.86136 1.522,0 2.34997,-0.99843 2.34997,-2.86136 z m -1.07149,0 c 0,1.522 -0.45051,2.34997 -1.27848,2.34997 -0.84014,0 -1.29065,-0.82797 -1.29065,-2.34997 0,-1.522 0.45051,-2.34997 1.29065,-2.34997 0.82797,0 1.27848,0.82797 1.27848,2.34997 z"
         style="font-size:12.176px;line-height:1.25"
         id="path49" />
    </g>
    <path
       style="fill:#afdde9;fill-opacity:1;stroke:#000000;stroke-width:1px;stroke-linecap:butt;stroke-linejoin:miter;stroke-opacity:1"
       d="m 400.3937,159.44882 h 10.62992 l 7.08661,7.0866 -7.08661,7.08661 H 400.3937 Z"
       id="path4834" />
    <g
       aria-label="cycle_o"
       id="text4836"
       style="line-height:0%;font-family:Iwona;-inkscape-font-specification:Iwona;letter-spacing:0px;word-spacing:0px">
      <path
         d="m 426.57267,165.86584 v -0.51139 c -0.38963,-0.54792 -1.02279,-0.87667 -1.70464,-0.87667 -1.522,0 -2.54479,1.14454 -2.54479,2.86136 0,1.71681 1.02279,2.86136 2.54479,2.86136 0.63315,0 1.22977,-0.31658 1.58288,-0.84015 v -0.51139 c -0.41399,0.62098 -0.84015,0.84014 -1.58288,0.84014 -0.87667,0 -1.4733,-0.93755 -1.4733,-2.34996 0,-1.41242 0.59663,-2.34997 1.4733,-2.34997 0.75491,0 1.2663,0.26787 1.70464,0.87667 z"
         style="font-size:12.176px;line-height:1.25"
         id="path52" />
      <path
         d="m 432.19797,170.8093 v -6.20976 h -0.94973 v 4.29812 c -0.41398,0.41399 -0.92538,0.74274 -1.49765,0.74274 -0.57227,0 -1.01061,-0.49922 -1.01061,-1.08366 v -3.9572 h -0.94972 v 3.9572 c 0,0.88884 0.68185,1.64376 1.55852,1.64376 0.73056,0 1.37589,-0.41399 1.89946,-0.92538 v 1.53418 c 0,0.81579 -0.36528,1.63158 -1.09584,1.63158 -0.57227,0 -1.12019,-0.12176 -1.64376,-0.32875 v 0.37745 c 0.62098,0.31658 1.31501,0.5114 2.02122,0.5114 1.03496,0 1.66811,-1.07149 1.66811,-2.19168 z"
         style="font-size:12.176px;line-height:1.25"
         id="path54" />
      <path
         d="m 438.09113,165.86584 v -0.51139 c -0.38963,-0.54792 -1.02278,-0.87667 -1.70464,-0.87667 -1.522,0 -2.54478,1.14454 -2.54478,2.86136 0,1.71681 1.02278,2.86136 2.54478,2.86136 0.63315,0 1.22978,-0.31658 1.58288,-0.84015 v -0.51139 c -0.41398,0.62098 -0.84014,0.84014 -1.58288,0.84014 -0.87667,0 -1.4733,-0.93755 -1.4733,-2.34996 0,-1.41242 0.59663,-2.34997 1.4733,-2.34997 0.75491,0 1.2663,0.26787 1.70464,0.87667 z"
         style="font-size:12.176px;line-height:1.25"
         id="path56" />
      <path
         d="m 441.65869,169.65258 v -0.36528 c -0.23135,0.19481 -0.49922,0.3531 -0.80362,0.3531 -0.45051,0 -0.53574,-0.5601 -0.53574,-1.08366 v -7.0012 h -0.94973 v 7.0012 c 0,0.81579 0.31657,1.64376 1.03496,1.64376 0.46269,0 0.90102,-0.23135 1.25413,-0.54792 z"
         style="font-size:12.176px;line-height:1.25"
         id="path58" />
      <path
         d="m 447.28398,167.4609 v -0.12176 c 0,-1.71682 -0.93756,-2.86136 -2.34997,-2.86136 -1.42459,0 -2.36215,1.14454 -2.36215,2.86136 0,1.71681 0.93756,2.86136 2.36215,2.86136 0.6088,0 1.20542,-0.19482 1.70464,-0.54792 v -0.5114 c -0.57227,0.36528 -1.03496,0.49922 -1.70464,0.49922 -1.03496,0 -1.29066,-0.98626 -1.29066,-2.1795 z m -1.07149,-0.5114 h -2.56914 c 0,-0.97408 0.41399,-1.96033 1.29066,-1.96033 0.86449,0 1.27848,0.98625 1.27848,1.96033 z"
         style="font-size:12.176px;line-height:1.25"
         id="path60" />
      <path
         d="m 453.98076,171.47898 v -0.6088 h -6.088 v 0.6088 z"
         style="font-size:12.176px;line-height:1.25"
         id="path62" />
      <path
         d="m 459.36253,167.33914 c 0,-1.86293 -0.82797,-2.86136 -2.34997,-2.86136 -1.53418,0 -2.36214,0.99843 -2.36214,2.86136 0,1.86292 0.82796,2.86136 2.36214,2.86136 1.522,0 2.34997,-0.99844 2.34997,-2.86136 z m -1.07149,0 c 0,1.522 -0.45051,2.34996 -1.27848,2.34996 -0.84014,0 -1.29066,-0.82796 -1.29066,-2.34996 0,-1.522 0.45052,-2.34997 1.29066,-2.34997 0.82797,0 1.27848,0.82797 1.27848,2.34997 z"
         style="font-size:12.176px;line-height:1.25"
         id="path64" />
    </g>
    <path
       id="path4840"
       d="m 184.25198,95.669286 h 10.62992 l 7.08661,7.086604 -7.08661,7.08661 h -10.62992 z"
       style="fill:#afdde9;fill-opacity:1;stroke:#000000;stroke-width:1px;stroke-linecap:butt;stroke-linejoin:miter;stroke-opacity:1" />
    <path
       style="fill:#afdde9;fill-opacity:1;stroke:#000000;stroke-width:1px;stroke-linecap:butt;stroke-linejoin:miter;stroke-opacity:1"
       d="m 184.25198,116.92911 h 10.62992 l 7.08661,7.0866 -7.08661,7.08661 h -10.62992 z"
       id="path4842" />
    <g
       aria-label="up_i"
       id="text4848"
       style="line-height:0%;font-family:Iwona;-inkscape-font-specification:Iwona;text-align:end;letter-spacing:0px;word-spacing:0px;text-anchor:end">
      <path
         d="m 163.90586,106.29919 v -5.4792 h -0.94973 v 4.29812 c -0.41398,0.41399 -0.92537,0.74274 -1.49764,0.74274 -0.57228,0 -1.01061,-0.49922 -1.01061,-1.08366 v -3.9572 h -0.94973 v 3.9572 c 0,0.88884 0.68186,1.64376 1.55853,1.64376 0.73056,0 1.37589,-0.41399 1.89945,-0.92538 v 0.80362 z"
         style="font-size:12.176px;line-height:1.25"
         id="path67" />
      <path
         d="m 170.50523,103.55959 c 0,-1.61941 -0.6088,-2.86136 -2.08209,-2.86136 -0.62098,0 -1.19325,0.28004 -1.68029,0.66968 v -0.54792 h -0.94973 v 8.27968 h 0.94973 v -3.00748 c 0.47486,0.207 0.98625,0.32876 1.49765,0.32876 1.522,0 2.26473,-1.2176 2.26473,-2.86136 z m -1.07149,0 c 0,1.14454 -0.3531,2.34996 -1.35153,2.34996 -0.46269,0 -0.92538,-0.12176 -1.33936,-0.32875 v -3.7015 c 0.36528,-0.36528 0.81579,-0.66968 1.33936,-0.66968 1.10801,0 1.35153,1.07149 1.35153,2.34997 z"
         style="font-size:12.176px;line-height:1.25"
         id="path69" />
      <path
         d="m 177.26289,107.69943 v -0.6088 h -6.088 v 0.6088 z"
         style="font-size:12.176px;line-height:1.25"
         id="path71" />
      <path
         d="m 180.46515,105.87303 v -0.36528 c -0.23134,0.19481 -0.49921,0.3531 -0.80361,0.3531 -0.45051,0 -0.53575,-0.5601 -0.53575,-1.08366 v -3.9572 h -0.94972 v 3.9572 c 0,0.81579 0.31657,1.64376 1.03496,1.64376 0.46268,0 0.90102,-0.23135 1.25412,-0.54792 z m -1.2176,-6.952499 c 0,-0.328752 -0.26787,-0.596624 -0.59662,-0.596624 -0.32875,0 -0.59662,0.267872 -0.59662,0.596624 0,0.328752 0.26787,0.596624 0.59662,0.596624 0.32875,0 0.59662,-0.267872 0.59662,-0.596624 z"
         style="font-size:12.176px;line-height:1.25"
         id="path73" />
    </g>
    <g
       aria-label="down_i"
       id="text4852"
       style="line-height:0%;font-family:Iwona;-inkscape-font-specification:Iwona;text-align:end;letter-spacing:0px;word-spacing:0px;text-anchor:end">
      <path
         d="m 149.64776,127.55905 v -8.5232 h -0.94973 v 3.25099 c -0.47486,-0.20699 -0.98626,-0.32875 -1.49765,-0.32875 -1.522,0 -2.26473,1.2176 -2.26473,2.86136 0,1.61941 0.6088,2.86136 2.08209,2.86136 0.62098,0 1.19325,-0.28005 1.68029,-0.66968 v 0.54792 z m -0.94973,-1.05931 c -0.36528,0.36528 -0.81579,0.66968 -1.33936,0.66968 -1.10802,0 -1.35154,-1.07149 -1.35154,-2.34997 0,-1.14454 0.35311,-2.34997 1.35154,-2.34997 0.46269,0 0.92538,0.12176 1.33936,0.32876 z"
         style="font-size:12.176px;line-height:1.25"
         id="path76" />
      <path
         d="m 156.00362,124.81945 c 0,-1.86293 -0.82797,-2.86136 -2.34997,-2.86136 -1.53417,0 -2.36214,0.99843 -2.36214,2.86136 0,1.86293 0.82797,2.86136 2.36214,2.86136 1.522,0 2.34997,-0.99843 2.34997,-2.86136 z m -1.07149,0 c 0,1.522 -0.45051,2.34997 -1.27848,2.34997 -0.84014,0 -1.29065,-0.82797 -1.29065,-2.34997 0,-1.522 0.45051,-2.34997 1.29065,-2.34997 0.82797,0 1.27848,0.82797 1.27848,2.34997 z"
         style="font-size:12.176px;line-height:1.25"
         id="path78" />
      <path
         d="m 164.6364,122.07985 h -0.53574 l -1.43677,4.44424 -1.37589,-4.44424 h -0.6575 l -1.43677,4.44424 -1.38806,-4.44424 h -0.88885 l 1.70464,5.4792 h 0.76709 l 1.37589,-4.2616 1.32718,4.2616 h 0.76709 z"
         style="font-size:12.176px;line-height:1.25"
         id="path80" />
      <path
         d="m 170.26171,127.55905 v -3.9572 c 0,-0.88885 -0.68185,-1.64376 -1.55853,-1.64376 -0.73056,0 -1.37588,0.41399 -1.89945,0.92538 v -0.80362 H 165.854 v 5.4792 h 0.94973 v -4.29813 c 0.41398,-0.41398 0.92537,-0.74273 1.49765,-0.74273 0.57227,0 1.0106,0.49921 1.0106,1.08366 v 3.9572 z"
         style="font-size:12.176px;line-height:1.25"
         id="path82" />
      <path
         d="m 177.26289,128.95929 v -0.6088 h -6.088 v 0.6088 z"
         style="font-size:12.176px;line-height:1.25"
         id="path84" />
      <path
         d="m 180.46516,127.13289 v -0.36528 c -0.23135,0.19482 -0.49922,0.35311 -0.80362,0.35311 -0.45051,0 -0.53574,-0.5601 -0.53574,-1.08367 v -3.9572 h -0.94973 v 3.9572 c 0,0.81579 0.31657,1.64376 1.03496,1.64376 0.46269,0 0.90102,-0.23134 1.25413,-0.54792 z m -1.2176,-6.95249 c 0,-0.32876 -0.26788,-0.59663 -0.59663,-0.59663 -0.32875,0 -0.59662,0.26787 -0.59662,0.59663 0,0.32875 0.26787,0.59662 0.59662,0.59662 0.32875,0 0.59663,-0.26787 0.59663,-0.59662 z"
         style="font-size:12.176px;line-height:1.25"
         id="path86" />
    </g>
    <path
       id="path4864"
       d="m 184.25197,148.81888 h 10.62992 l 7.08661,7.0866 -7.08661,7.08661 h -10.62992 z"
       style="fill:#afdde9;fill-opacity:1;stroke:#000000;stroke-width:1px;stroke-linecap:butt;stroke-linejoin:miter;stroke-opacity:1" />
    <path
       style="fill:#afdde9;fill-opacity:1;stroke:#000000;stroke-width:1px;stroke-linecap:butt;stroke-linejoin:miter;stroke-opacity:1"
       d="m 184.25197,170.0787 h 10.62992 l 7.08661,7.0866 -7.08661,7.08661 h -10.62992 z"
       id="path4866" />
    <g
       aria-label="clk_i"
       id="text4868"
       style="line-height:0%;font-family:Iwona;-inkscape-font-specification:Iwona;text-align:end;letter-spacing:0px;word-spacing:0px;text-anchor:end">
      <path
         d="m 161.55589,155.2359 v -0.5114 c -0.38963,-0.54792 -1.02278,-0.87667 -1.70464,-0.87667 -1.52199,0 -2.54478,1.14455 -2.54478,2.86136 0,1.71682 1.02279,2.86136 2.54478,2.86136 0.63316,0 1.22978,-0.31657 1.58288,-0.84014 v -0.51139 c -0.41398,0.62097 -0.84014,0.84014 -1.58288,0.84014 -0.87667,0 -1.47329,-0.93755 -1.47329,-2.34997 0,-1.41241 0.59662,-2.34997 1.47329,-2.34997 0.75492,0 1.26631,0.26788 1.70464,0.87668 z"
         style="font-size:12.176px;line-height:1.25"
         id="path89" />
      <path
         d="m 165.12345,159.02263 v -0.36528 c -0.23134,0.19482 -0.49922,0.35311 -0.80362,0.35311 -0.45051,0 -0.53574,-0.5601 -0.53574,-1.08367 v -7.0012 h -0.94973 v 7.0012 c 0,0.81579 0.31658,1.64376 1.03496,1.64376 0.46269,0 0.90103,-0.23134 1.25413,-0.54792 z"
         style="font-size:12.176px;line-height:1.25"
         id="path91" />
      <path
         d="m 171.05314,159.44879 -2.82483,-3.25099 2.72742,-2.22821 h -0.75491 l -2.91006,2.3865 v -5.4305 h -0.94973 v 8.5232 h 0.94973 v -3.03182 l 2.63001,3.03182 z"
         style="font-size:12.176px;line-height:1.25"
         id="path93" />
      <path
         d="m 177.26289,160.84903 v -0.6088 h -6.088 v 0.6088 z"
         style="font-size:12.176px;line-height:1.25"
         id="path95" />
      <path
         d="m 180.46515,159.02263 v -0.36528 c -0.23134,0.19482 -0.49921,0.35311 -0.80361,0.35311 -0.45051,0 -0.53575,-0.5601 -0.53575,-1.08367 v -3.9572 h -0.94972 v 3.9572 c 0,0.81579 0.31657,1.64376 1.03496,1.64376 0.46268,0 0.90102,-0.23134 1.25412,-0.54792 z m -1.2176,-6.95249 c 0,-0.32876 -0.26787,-0.59663 -0.59662,-0.59663 -0.32875,0 -0.59662,0.26787 -0.59662,0.59663 0,0.32875 0.26787,0.59662 0.59662,0.59662 0.32875,0 0.59662,-0.26787 0.59662,-0.59662 z"
         style="font-size:12.176px;line-height:1.25"
         id="path97" />
    </g>
    <g
       aria-label="reset_i"
       id="text4872"
       style="line-height:0%;font-family:Iwona;-inkscape-font-specification:Iwona;text-align:end;letter-spacing:0px;word-spacing:0px;text-anchor:end">
      <path
         d="m 149.80609,175.98433 v -0.75491 c -0.13394,-0.0487 -0.28005,-0.0852 -0.41399,-0.0852 -0.68185,0 -1.22977,0.47486 -1.66811,0.99843 v -0.9132 h -0.94973 v 5.4792 h 0.94973 v -4.05461 c 0.36528,-0.42616 0.82797,-0.79144 1.38806,-0.79144 0.23135,0 0.47487,0.0487 0.69404,0.12176 z"
         style="font-size:12.176px;line-height:1.25"
         id="path100" />
      <path
         d="m 155.43139,178.09078 v -0.12176 c 0,-1.71682 -0.93756,-2.86136 -2.34997,-2.86136 -1.42459,0 -2.36215,1.14454 -2.36215,2.86136 0,1.71681 0.93756,2.86136 2.36215,2.86136 0.6088,0 1.20542,-0.19482 1.70464,-0.54792 v -0.51139 c -0.57227,0.36528 -1.03496,0.49921 -1.70464,0.49921 -1.03496,0 -1.29066,-0.98625 -1.29066,-2.1795 z m -1.07149,-0.51139 h -2.56914 c 0,-0.97408 0.41399,-1.96034 1.29066,-1.96034 0.86449,0 1.27848,0.98626 1.27848,1.96034 z"
         style="font-size:12.176px;line-height:1.25"
         id="path102" />
      <path
         d="m 160.71575,179.15009 c 0,-0.9619 -1.02278,-1.46112 -2.02121,-1.70464 -0.58445,-0.14611 -1.2176,-0.38963 -1.2176,-0.9619 0,-0.52357 0.53574,-0.8645 1.12019,-0.8645 0.64533,0 1.29066,0.19482 1.8264,0.54792 v -0.51139 c -0.53574,-0.35311 -1.18107,-0.54792 -1.8264,-0.54792 -1.05931,0 -2.03339,0.64533 -2.03339,1.63158 0,0.88885 0.98625,1.30283 1.92381,1.53418 0.64532,0.15829 1.315,0.49921 1.315,1.12019 0,0.57227 -0.58444,0.92538 -1.20542,0.92538 -0.75491,0 -1.48547,-0.18264 -2.1308,-0.54792 v 0.51139 c 0.64533,0.36528 1.37589,0.54792 2.1308,0.54792 1.09584,0 2.11862,-0.65751 2.11862,-1.68029 z"
         style="font-size:12.176px;line-height:1.25"
         id="path104" />
      <path
         d="m 166.64545,178.09078 v -0.12176 c 0,-1.71682 -0.93755,-2.86136 -2.34997,-2.86136 -1.42459,0 -2.36214,1.14454 -2.36214,2.86136 0,1.71681 0.93755,2.86136 2.36214,2.86136 0.6088,0 1.20543,-0.19482 1.70464,-0.54792 v -0.51139 c -0.57227,0.36528 -1.03496,0.49921 -1.70464,0.49921 -1.03495,0 -1.29065,-0.98625 -1.29065,-2.1795 z m -1.07149,-0.51139 h -2.56913 c 0,-0.97408 0.41398,-1.96034 1.29065,-1.96034 0.8645,0 1.27848,0.98626 1.27848,1.96034 z"
         style="font-size:12.176px;line-height:1.25"
         id="path106" />
      <path
         d="m 170.80963,180.28246 v -0.36528 c -0.19482,0.19481 -0.42616,0.3531 -0.70621,0.3531 -0.43833,0 -0.46269,-0.57227 -0.46269,-1.08366 v -3.44581 h 1.1689 v -0.51139 h -1.1689 v -1.8264 h -0.57227 c 0,0.97408 -0.56009,1.88728 -1.44894,1.88728 v 0.45051 h 1.07149 v 3.44581 c 0,0.80361 0.25569,1.64376 0.94972,1.64376 0.45052,0 0.84015,-0.24352 1.1689,-0.54792 z"
         style="font-size:12.176px;line-height:1.25"
         id="path108" />
      <path
         d="m 177.26289,182.10886 v -0.6088 h -6.088 v 0.6088 z"
         style="font-size:12.176px;line-height:1.25"
         id="path110" />
      <path
         d="m 180.46516,180.28246 v -0.36528 c -0.23135,0.19481 -0.49922,0.3531 -0.80362,0.3531 -0.45051,0 -0.53574,-0.56009 -0.53574,-1.08366 v -3.9572 h -0.94973 v 3.9572 c 0,0.81579 0.31657,1.64376 1.03496,1.64376 0.46269,0 0.90102,-0.23135 1.25413,-0.54792 z m -1.2176,-6.9525 c 0,-0.32875 -0.26788,-0.59662 -0.59663,-0.59662 -0.32875,0 -0.59662,0.26787 -0.59662,0.59662 0,0.32875 0.26787,0.59663 0.59662,0.59663 0.32875,0 0.59663,-0.26788 0.59663,-0.59663 z"
         style="font-size:12.176px;line-height:1.25"
         id="path112" />
    </g>
    <g
       aria-label="UpDownCounter"
       id="text4878"
       style="font-size:22.5px;line-height:0%;font-family:Iwona;-inkscape-font-specification:Iwona;text-align:center;letter-spacing:0px;word-spacing:0px;text-anchor:middle">
      <path
         d="m 233.99051,126.69234 v -11.34 h -1.035 v 10.98 c 0,2.34 -2.07,4.095 -4.455,4.095 -2.4075,0 -4.4775,-1.755 -4.4775,-4.095 v -10.98 h -1.845 v 11.34 c 0,2.8575 2.835,4.77 5.9175,4.77 3.06,0 5.895,-1.9125 5.895,-4.77 z"
         style="line-height:1.25"
         id="path115" />
      <path
         d="m 246.41051,126.03984 c 0,-2.9925 -1.125,-5.2875 -3.8475,-5.2875 -1.1475,0 -2.205,0.5175 -3.105,1.2375 v -1.0125 h -1.755 v 15.3 h 1.755 v -5.5575 c 0.8775,0.3825 1.8225,0.6075 2.7675,0.6075 2.8125,0 4.185,-2.25 4.185,-5.2875 z m -1.98,0 c 0,2.115 -0.6525,4.3425 -2.4975,4.3425 -0.855,0 -1.71,-0.225 -2.475,-0.6075 v -6.84 c 0.675,-0.675 1.5075,-1.2375 2.475,-1.2375 2.0475,0 2.4975,1.98 2.4975,4.3425 z"
         style="line-height:1.25"
         id="path117" />
      <path
         d="m 263.12797,123.22734 c 0,-4.815 -2.6325,-8.1 -7.2675,-8.1 -1.395,0 -2.79,0.0675 -4.1625,0.225 h -1.8 v 15.75 h 1.8 c 1.3725,0.1575 2.7675,0.225 4.1625,0.225 4.635,0 7.2675,-3.285 7.2675,-8.1 z m -2.205,0 c 0,3.5775 -1.8225,7.065 -5.0625,7.065 -1.3725,0 -2.745,-0.0675 -4.1175,-0.225 v -13.68 c 1.3725,-0.1575 2.745,-0.225 4.1175,-0.225 3.24,0 5.0625,3.4875 5.0625,7.065 z"
         style="line-height:1.25"
         id="path119" />
      <path
         d="m 274.42296,126.03984 c 0,-3.4425 -1.53,-5.2875 -4.3425,-5.2875 -2.835,0 -4.365,1.845 -4.365,5.2875 0,3.4425 1.53,5.2875 4.365,5.2875 2.8125,0 4.3425,-1.845 4.3425,-5.2875 z m -1.98,0 c 0,2.8125 -0.8325,4.3425 -2.3625,4.3425 -1.5525,0 -2.385,-1.53 -2.385,-4.3425 0,-2.8125 0.8325,-4.3425 2.385,-4.3425 1.53,0 2.3625,1.53 2.3625,4.3425 z"
         style="line-height:1.25"
         id="path121" />
      <path
         d="m 290.37545,120.97734 h -0.99 l -2.655,8.2125 -2.5425,-8.2125 h -1.215 l -2.655,8.2125 -2.565,-8.2125 h -1.6425 l 3.15,10.125 h 1.4175 l 2.5425,-7.875 2.4525,7.875 h 1.4175 z"
         style="line-height:1.25"
         id="path123" />
      <path
         d="m 300.77044,131.10234 v -7.3125 c 0,-1.6425 -1.26,-3.0375 -2.88,-3.0375 -1.35,0 -2.5425,0.765 -3.51,1.71 v -1.485 h -1.755 v 10.125 h 1.755 v -7.9425 c 0.765,-0.765 1.71,-1.3725 2.7675,-1.3725 1.0575,0 1.8675,0.9225 1.8675,2.0025 v 7.3125 z"
         style="line-height:1.25"
         id="path125" />
      <path
         d="m 316.18291,119.13234 v -1.215 c -1.215,-1.755 -3.2175,-2.79 -5.3325,-2.79 -4.5675,0 -7.0425,3.33 -7.0425,8.1 0,4.77 2.475,8.1 7.0425,8.1 1.755,0 3.4875,-0.5175 4.9725,-1.485 v -1.035 c -1.485,0.9675 -3.2175,1.485 -4.9725,1.485 -3.5325,0 -4.8375,-3.1275 -4.8375,-7.065 0,-3.9375 1.305,-7.065 4.8375,-7.065 2.16,0 4.185,1.125 5.3325,2.97 z"
         style="line-height:1.25"
         id="path127" />
      <path
         d="m 326.53287,126.03984 c 0,-3.4425 -1.53,-5.2875 -4.3425,-5.2875 -2.835,0 -4.365,1.845 -4.365,5.2875 0,3.4425 1.53,5.2875 4.365,5.2875 2.8125,0 4.3425,-1.845 4.3425,-5.2875 z m -1.98,0 c 0,2.8125 -0.8325,4.3425 -2.3625,4.3425 -1.5525,0 -2.385,-1.53 -2.385,-4.3425 0,-2.8125 0.8325,-4.3425 2.385,-4.3425 1.53,0 2.3625,1.53 2.3625,4.3425 z"
         style="line-height:1.25"
         id="path129" />
      <path
         d="m 337.60286,131.10234 v -10.125 h -1.755 v 7.9425 c -0.765,0.765 -1.71,1.3725 -2.7675,1.3725 -1.0575,0 -1.8675,-0.9225 -1.8675,-2.0025 v -7.3125 h -1.755 v 7.3125 c 0,1.6425 1.26,3.0375 2.88,3.0375 1.35,0 2.5425,-0.765 3.51,-1.71 v 1.485 z"
         style="line-height:1.25"
         id="path131" />
      <path
         d="m 349.34782,131.10234 v -7.3125 c 0,-1.6425 -1.26,-3.0375 -2.88,-3.0375 -1.35,0 -2.5425,0.765 -3.51,1.71 v -1.485 h -1.755 v 10.125 h 1.755 v -7.9425 c 0.765,-0.765 1.71,-1.3725 2.7675,-1.3725 1.0575,0 1.8675,0.9225 1.8675,2.0025 v 7.3125 z"
         style="line-height:1.25"
         id="path133" />
      <path
         d="m 357.60529,130.31484 v -0.675 c -0.36,0.36 -0.7875,0.6525 -1.305,0.6525 -0.81,0 -0.855,-1.0575 -0.855,-2.0025 v -6.3675 h 2.16 v -0.945 h -2.16 v -3.375 h -1.0575 c 0,1.8 -1.035,3.4875 -2.6775,3.4875 v 0.8325 h 1.98 v 6.3675 c 0,1.485 0.4725,3.0375 1.755,3.0375 0.8325,0 1.5525,-0.45 2.16,-1.0125 z"
         style="line-height:1.25"
         id="path135" />
      <path
         d="m 368.22525,126.26484 v -0.225 c 0,-3.1725 -1.7325,-5.2875 -4.3425,-5.2875 -2.6325,0 -4.365,2.115 -4.365,5.2875 0,3.1725 1.7325,5.2875 4.365,5.2875 1.125,0 2.2275,-0.36 3.15,-1.0125 v -0.945 c -1.0575,0.675 -1.9125,0.9225 -3.15,0.9225 -1.9125,0 -2.385,-1.8225 -2.385,-4.0275 z m -1.98,-0.945 h -4.7475 c 0,-1.8 0.765,-3.6225 2.385,-3.6225 1.5975,0 2.3625,1.8225 2.3625,3.6225 z"
         style="line-height:1.25"
         id="path137" />
      <path
         d="m 376.75272,122.37234 v -1.395 c -0.2475,-0.09 -0.5175,-0.1575 -0.765,-0.1575 -1.26,0 -2.2725,0.8775 -3.0825,1.845 v -1.6875 h -1.755 v 10.125 h 1.755 v -7.4925 c 0.675,-0.7875 1.53,-1.4625 2.565,-1.4625 0.4275,0 0.8775,0.09 1.2825,0.225 z"
         style="line-height:1.25"
         id="path139" />
    </g>
    <path
       id="rect4901"
       style="fill:none;stroke:#000000;stroke-width:0.999213;stroke-linecap:round;stroke-dasharray:0.999213, 1.99843"
       d="m 239.17323,159.44881 h 120.47243 v 28.34646 H 239.17323 Z" />
    <g
       aria-label="VALUE_MAX"
       id="text4903"
       style="line-height:0%;font-family:Iwona;-inkscape-font-specification:Iwona;text-align:center;letter-spacing:0px;word-spacing:0px;text-anchor:middle">
      <path
         d="m 264.78202,167.43522 h -0.75318 l -3.56607,9.13037 -3.5507,-9.13037 h -1.35265 l 4.19628,10.7597 h 0.83004 z"
         style="font-size:15.371px;line-height:1.25"
         id="path143" />
      <path
         d="m 273.85089,178.19492 -3.90424,-10.7597 h -1.33727 l -3.98109,10.7597 h 0.75318 l 1.39876,-3.7659 h 4.36536 l 1.36802,3.7659 z m -2.96661,-4.47297 h -3.84275 l 1.93675,-5.25688 z"
         style="font-size:15.371px;line-height:1.25"
         id="path145" />
      <path
         d="m 281.69008,178.19492 v -0.70707 h -4.88798 v -10.05263 h -1.26042 v 10.7597 z"
         style="font-size:15.371px;line-height:1.25"
         id="path147" />
      <path
         d="m 291.26618,175.1822 v -7.74698 h -0.70707 v 7.50104 c 0,1.59859 -1.41413,2.79753 -3.04346,2.79753 -1.6447,0 -3.05883,-1.19894 -3.05883,-2.79753 v -7.50104 h -1.26042 v 7.74698 c 0,1.95212 1.93675,3.25865 4.04257,3.25865 2.09046,0 4.02721,-1.30653 4.02721,-3.25865 z"
         style="font-size:15.371px;line-height:1.25"
         id="path149" />
      <path
         d="m 301.87216,178.19492 v -0.70707 h -6.42507 v -4.31925 h 4.88797 v -0.70707 h -4.88797 v -4.31925 h 6.05617 v -0.70706 h -7.3166 v 10.7597 z"
         style="font-size:15.371px;line-height:1.25"
         id="path151" />
      <path
         d="m 310.47992,179.96258 v -0.76855 h -7.6855 v 0.76855 z"
         style="font-size:15.371px;line-height:1.25"
         id="path153" />
      <path
         d="m 323.31468,178.19492 -0.61484,-10.7597 h -1.01449 l -4.31925,9.08426 -4.33462,-9.08426 h -1.01449 l -0.61484,10.7597 h 0.70707 l 0.49187,-8.71536 4.16554,8.71536 h 0.56873 l 4.21165,-8.82296 0.50725,8.82296 z"
         style="font-size:15.371px;line-height:1.25"
         id="path155" />
      <path
         d="m 333.61323,178.19492 -3.90424,-10.7597 h -1.33727 l -3.98109,10.7597 h 0.75318 l 1.39876,-3.7659 h 4.36536 l 1.36802,3.7659 z m -2.96661,-4.47297 h -3.84275 l 1.93675,-5.25688 z"
         style="font-size:15.371px;line-height:1.25"
         id="path157" />
      <path
         d="m 343.26619,178.19492 -3.88886,-5.84098 3.51996,-4.91872 h -0.87615 l -3.05883,4.2885 -2.859,-4.2885 h -1.50636 l 3.51996,5.30299 -3.88886,5.45671 h 0.87614 l 3.44311,-4.8265 3.21254,4.8265 z"
         style="font-size:15.371px;line-height:1.25"
         id="path159" />
    </g>
  </g>
</svg>
