<?xml version="1.0" encoding="UTF-8" standalone="no"?>
<!-- Created with Inkscape (http://www.inkscape.org/) -->

<svg
   width="185.99304mm"
   height="166.71516mm"
   id="svg2"
   version="1.1"
   viewBox="0 0 659.0305 590.72299"
   xmlns="http://www.w3.org/2000/svg"
   xmlns:svg="http://www.w3.org/2000/svg"
   xmlns:rdf="http://www.w3.org/1999/02/22-rdf-syntax-ns#"
   xmlns:cc="http://creativecommons.org/ns#"
   xmlns:dc="http://purl.org/dc/elements/1.1/">
  <defs
     id="defs4">
    <marker
       orient="auto"
       refY="0"
       refX="0"
       id="DotM"
       style="overflow:visible">
      <path
         id="path4169"
         d="m -2.5,-1 c 0,2.76 -2.24,5 -5,5 -2.76,0 -5,-2.24 -5,-5 0,-2.76 2.24,-5 5,-5 2.76,0 5,2.24 5,5 z"
         style="fill-rule:evenodd;stroke:#000000;stroke-width:1pt;marker-start:none;marker-end:none"
         transform="matrix(0.4,0,0,0.4,2.96,0.4)" />
    </marker>
    <marker
       orient="auto"
       refY="0"
       refX="0"
       id="Arrow1Mend"
       style="overflow:visible">
      <path
         id="path4113"
         d="M 0,0 5,-5 -12.5,0 5,5 Z"
         style="fill-rule:evenodd;stroke:#000000;stroke-width:1pt;marker-start:none"
         transform="matrix(-0.4,0,0,-0.4,-4,0)" />
    </marker>
    <marker
       style="overflow:visible"
       id="DotM-41"
       refX="0"
       refY="0"
       orient="auto">
      <path
         transform="matrix(0.4,0,0,0.4,2.96,0.4)"
         style="fill-rule:evenodd;stroke:#000000;stroke-width:1pt;marker-start:none;marker-end:none"
         d="m -2.5,-1 c 0,2.76 -2.24,5 -5,5 -2.76,0 -5,-2.24 -5,-5 0,-2.76 2.24,-5 5,-5 2.76,0 5,2.24 5,5 z"
         id="path3694-3" />
    </marker>
  </defs>
  <metadata
     id="metadata7">
    <rdf:RDF>
      <cc:Work
         rdf:about="">
        <dc:format>image/svg+xml</dc:format>
        <dc:type
           rdf:resource="http://purl.org/dc/dcmitype/StillImage" />
      </cc:Work>
    </rdf:RDF>
  </metadata>
  <g
     id="layer1"
     transform="translate(-123.51575,-325.48423)">
    <path
       id="rect6145"
       style="fill:#f4d7d7;stroke:#000000;stroke-linecap:round;stroke-linejoin:round;stroke-dasharray:2, 4"
       d="m 690.94489,524.40942 h 10.62991 c 3.92599,0 7.08662,3.16064 7.08662,7.08662 v 14.17323 c 0,3.92598 -3.16063,7.08661 -7.08662,7.08661 h -10.62991 c -3.92598,0 -7.08661,-3.16063 -7.08661,-7.08661 v -14.17323 c 0,-3.92598 3.16063,-7.08662 7.08661,-7.08662 z" />
    <path
       id="rect5807"
       style="fill:#faf0f0;stroke:#000000;stroke-linecap:round;stroke-linejoin:round;stroke-dasharray:2, 4"
       d="m 389.76378,705.1181 h 301.18109 c 9.81496,0 17.71654,7.90158 17.71654,17.71654 v 138.18895 c 0,9.81496 -7.90158,17.71654 -17.71654,17.71654 H 389.76378 c -9.81496,0 -17.71654,-7.90158 -17.71654,-17.71654 V 722.83464 c 0,-9.81496 7.90158,-17.71654 17.71654,-17.71654 z" />
    <path
       id="rect3923"
       style="fill:#faf0f0;stroke:#000000;stroke-linecap:round;stroke-linejoin:round"
       transform="translate(0,308.2677)"
       d="M 141.73228,17.71653 H 602.3622 c 9.81496,0 17.71654,7.901575 17.71654,17.716535 V 301.18109 c 0,9.81496 -7.90158,17.71653 -17.71654,17.71653 H 141.73228 c -9.81496,0 -17.71653,-7.90157 -17.71653,-17.71653 V 35.433065 c 0,-9.81496 7.90157,-17.716535 17.71653,-17.716535 z" />
    <path
       id="path4828"
       d="m 722.83464,531.49604 h 10.62992 l 7.08661,7.0866 -7.08661,7.08661 h -10.62992 z"
       style="fill:#afdde9;fill-opacity:1;stroke:#000000;stroke-width:1px;stroke-linecap:butt;stroke-linejoin:miter;stroke-opacity:1" />
    <g
       aria-label="value_o"
       id="text4830"
       style="line-height:0%;font-family:Iwona;-inkscape-font-specification:Iwona;letter-spacing:0px;word-spacing:0px">
      <path
         d="m 748.92835,536.64672 h -0.54792 l -1.65593,4.55382 -1.60723,-4.55382 h -0.90103 l 1.92381,5.4792 h 0.79144 z"
         style="font-size:12.176px;line-height:1.25"
         id="path301" />
      <path
         d="m 754.31014,542.12592 v -3.40928 c 0,-1.14455 -0.70621,-2.19168 -1.76552,-2.19168 -0.77926,0 -1.50982,0.26787 -2.16733,0.68185 v 0.37746 c 0.54792,-0.3044 1.15672,-0.49922 1.78988,-0.49922 0.75491,0 1.19324,0.80362 1.19324,1.63159 v 0.21916 c -0.47486,-0.20699 -0.98625,-0.32875 -1.49764,-0.32875 -1.30284,0 -2.26474,0.59663 -2.26474,1.8264 0,1.1689 0.85232,1.81423 2.0821,1.81423 0.62097,0 1.19324,-0.28005 1.68028,-0.66968 v 0.54792 z m -0.94973,-1.05932 c -0.36528,0.36528 -0.81579,0.66968 -1.33936,0.66968 -0.81579,0 -1.35153,-0.49921 -1.35153,-1.30283 0,-0.74273 0.6088,-1.31501 1.35153,-1.31501 0.46269,0 0.92538,0.12176 1.33936,0.32876 z"
         style="font-size:12.176px;line-height:1.25"
         id="path303" />
      <path
         d="m 758.54738,541.69976 v -0.36528 c -0.23135,0.19481 -0.49922,0.3531 -0.80362,0.3531 -0.45051,0 -0.53574,-0.5601 -0.53574,-1.08366 v -7.0012 h -0.94973 v 7.0012 c 0,0.81579 0.31658,1.64376 1.03496,1.64376 0.46269,0 0.90102,-0.23135 1.25413,-0.54792 z"
         style="font-size:12.176px;line-height:1.25"
         id="path305" />
      <path
         d="m 764.11179,542.12592 v -5.4792 h -0.94973 v 4.29812 c -0.41398,0.41399 -0.92538,0.74274 -1.49765,0.74274 -0.57227,0 -1.01061,-0.49922 -1.01061,-1.08366 v -3.9572 h -0.94972 v 3.9572 c 0,0.88884 0.68185,1.64376 1.55852,1.64376 0.73056,0 1.37589,-0.41399 1.89946,-0.92538 v 0.80362 z"
         style="font-size:12.176px;line-height:1.25"
         id="path307" />
      <path
         d="m 770.46764,539.50808 v -0.12176 c 0,-1.71682 -0.93755,-2.86136 -2.34997,-2.86136 -1.42459,0 -2.36214,1.14454 -2.36214,2.86136 0,1.71681 0.93755,2.86136 2.36214,2.86136 0.6088,0 1.20543,-0.19482 1.70464,-0.54792 v -0.5114 c -0.57227,0.36528 -1.03496,0.49922 -1.70464,0.49922 -1.03496,0 -1.29065,-0.98626 -1.29065,-2.1795 z m -1.07149,-0.5114 h -2.56913 c 0,-0.97408 0.41398,-1.96033 1.29065,-1.96033 0.8645,0 1.27848,0.98625 1.27848,1.96033 z"
         style="font-size:12.176px;line-height:1.25"
         id="path309" />
      <path
         d="m 777.16442,543.52616 v -0.6088 h -6.088 v 0.6088 z"
         style="font-size:12.176px;line-height:1.25"
         id="path311" />
      <path
         d="m 782.54619,539.38632 c 0,-1.86293 -0.82797,-2.86136 -2.34997,-2.86136 -1.53417,0 -2.36214,0.99843 -2.36214,2.86136 0,1.86292 0.82797,2.86136 2.36214,2.86136 1.522,0 2.34997,-0.99844 2.34997,-2.86136 z m -1.07149,0 c 0,1.522 -0.45051,2.34996 -1.27848,2.34996 -0.84014,0 -1.29065,-0.82796 -1.29065,-2.34996 0,-1.522 0.45051,-2.34997 1.29065,-2.34997 0.82797,0 1.27848,0.82797 1.27848,2.34997 z"
         style="font-size:12.176px;line-height:1.25"
         id="path313" />
    </g>
    <path
       style="fill:#afdde9;fill-opacity:1;stroke:#000000;stroke-width:1px;stroke-linecap:butt;stroke-linejoin:miter;stroke-opacity:1"
       d="m 722.83465,822.04722 h 10.62992 l 7.08661,7.0866 -7.08661,7.08661 h -10.62992 z"
       id="path4834" />
    <g
       aria-label="cycle_o"
       id="text4836"
       style="line-height:0%;font-family:Iwona;-inkscape-font-specification:Iwona;letter-spacing:0px;word-spacing:0px">
      <path
         d="m 749.01359,828.46423 v -0.51139 c -0.38964,-0.54792 -1.02279,-0.87668 -1.70464,-0.87668 -1.522,0 -2.54479,1.14455 -2.54479,2.86136 0,1.71682 1.02279,2.86136 2.54479,2.86136 0.63315,0 1.22977,-0.31657 1.58288,-0.84014 v -0.51139 c -0.41399,0.62097 -0.84015,0.84014 -1.58288,0.84014 -0.87668,0 -1.4733,-0.93755 -1.4733,-2.34997 0,-1.41241 0.59662,-2.34996 1.4733,-2.34996 0.75491,0 1.2663,0.26787 1.70464,0.87667 z"
         style="font-size:12.176px;line-height:1.25"
         id="path316" />
      <path
         d="m 754.63889,833.40768 v -6.20976 h -0.94973 v 4.29813 c -0.41399,0.41399 -0.92538,0.74274 -1.49765,0.74274 -0.57227,0 -1.01061,-0.49922 -1.01061,-1.08367 v -3.9572 h -0.94973 v 3.9572 c 0,0.88885 0.68186,1.64376 1.55853,1.64376 0.73056,0 1.37589,-0.41398 1.89946,-0.92537 v 1.53417 c 0,0.8158 -0.36528,1.63159 -1.09584,1.63159 -0.57227,0 -1.12019,-0.12176 -1.64376,-0.32875 v 0.37745 c 0.62097,0.31658 1.31501,0.51139 2.02121,0.51139 1.03496,0 1.66812,-1.07148 1.66812,-2.19168 z"
         style="font-size:12.176px;line-height:1.25"
         id="path318" />
      <path
         d="m 760.53205,828.46423 v -0.51139 c -0.38963,-0.54792 -1.02279,-0.87668 -1.70464,-0.87668 -1.522,0 -2.54479,1.14455 -2.54479,2.86136 0,1.71682 1.02279,2.86136 2.54479,2.86136 0.63315,0 1.22977,-0.31657 1.58288,-0.84014 v -0.51139 c -0.41399,0.62097 -0.84015,0.84014 -1.58288,0.84014 -0.87667,0 -1.4733,-0.93755 -1.4733,-2.34997 0,-1.41241 0.59663,-2.34996 1.4733,-2.34996 0.75491,0 1.2663,0.26787 1.70464,0.87667 z"
         style="font-size:12.176px;line-height:1.25"
         id="path320" />
      <path
         d="m 764.0996,832.25096 v -0.36528 c -0.23134,0.19482 -0.49921,0.35311 -0.80361,0.35311 -0.45051,0 -0.53575,-0.5601 -0.53575,-1.08367 v -7.0012 h -0.94972 v 7.0012 c 0,0.8158 0.31657,1.64376 1.03496,1.64376 0.46268,0 0.90102,-0.23134 1.25412,-0.54792 z"
         style="font-size:12.176px;line-height:1.25"
         id="path322" />
      <path
         d="m 769.72489,830.05928 v -0.12176 c 0,-1.71681 -0.93755,-2.86136 -2.34996,-2.86136 -1.4246,0 -2.36215,1.14455 -2.36215,2.86136 0,1.71682 0.93755,2.86136 2.36215,2.86136 0.6088,0 1.20542,-0.19481 1.70464,-0.54792 v -0.51139 c -0.57228,0.36528 -1.03496,0.49922 -1.70464,0.49922 -1.03496,0 -1.29066,-0.98626 -1.29066,-2.17951 z m -1.07148,-0.51139 h -2.56914 c 0,-0.97408 0.41398,-1.96033 1.29066,-1.96033 0.86449,0 1.27848,0.98625 1.27848,1.96033 z"
         style="font-size:12.176px;line-height:1.25"
         id="path324" />
      <path
         d="m 776.42168,834.07736 v -0.6088 h -6.088 v 0.6088 z"
         style="font-size:12.176px;line-height:1.25"
         id="path326" />
      <path
         d="m 781.80345,829.93752 c 0,-1.86292 -0.82797,-2.86136 -2.34997,-2.86136 -1.53418,0 -2.36215,0.99844 -2.36215,2.86136 0,1.86293 0.82797,2.86136 2.36215,2.86136 1.522,0 2.34997,-0.99843 2.34997,-2.86136 z m -1.07149,0 c 0,1.522 -0.45051,2.34997 -1.27848,2.34997 -0.84015,0 -1.29066,-0.82797 -1.29066,-2.34997 0,-1.522 0.45051,-2.34996 1.29066,-2.34996 0.82797,0 1.27848,0.82796 1.27848,2.34996 z"
         style="font-size:12.176px;line-height:1.25"
         id="path328" />
    </g>
    <path
       id="path4840"
       d="m 336.61417,687.40155 h 10.62992 l 7.0866,-7.08661 -7.0866,-7.08662 h -10.62992 z"
       style="fill:#afdde9;fill-opacity:1;stroke:#000000;stroke-width:1px;stroke-linecap:butt;stroke-linejoin:miter;stroke-opacity:1" />
    <path
       style="fill:#afdde9;fill-opacity:1;stroke:#000000;stroke-width:1px;stroke-linecap:butt;stroke-linejoin:miter;stroke-opacity:1"
       d="m 194.88189,673.22832 h 10.62992 l 7.08661,7.0866 -7.08661,7.08661 h -10.62992 z"
       id="path4842" />
    <g
       aria-label="up_i"
       id="text4848"
       style="line-height:0%;font-family:Iwona;-inkscape-font-specification:Iwona;text-align:end;letter-spacing:0px;word-spacing:0px;text-anchor:end">
      <path
         d="m 316.26806,683.85822 v -5.4792 h -0.94973 v 4.29812 c -0.41398,0.41399 -0.92538,0.74274 -1.49765,0.74274 -0.57227,0 -1.01061,-0.49922 -1.01061,-1.08366 v -3.9572 h -0.94972 v 3.9572 c 0,0.88884 0.68185,1.64376 1.55852,1.64376 0.73056,0 1.37589,-0.41399 1.89946,-0.92538 v 0.80362 z"
         style="font-size:12.176px;line-height:1.25"
         id="path331" />
      <path
         d="m 322.86743,681.11862 c 0,-1.61941 -0.6088,-2.86136 -2.0821,-2.86136 -0.62097,0 -1.19324,0.28004 -1.68028,0.66968 v -0.54792 h -0.94973 v 8.27968 h 0.94973 v -3.00748 c 0.47486,0.207 0.98625,0.32876 1.49764,0.32876 1.522,0 2.26474,-1.2176 2.26474,-2.86136 z m -1.07149,0 c 0,1.14454 -0.3531,2.34996 -1.35153,2.34996 -0.46269,0 -0.92538,-0.12176 -1.33936,-0.32875 v -3.7015 c 0.36528,-0.36528 0.81579,-0.66968 1.33936,-0.66968 1.10801,0 1.35153,1.07149 1.35153,2.34997 z"
         style="font-size:12.176px;line-height:1.25"
         id="path333" />
      <path
         d="m 329.62509,685.25846 v -0.6088 h -6.088 v 0.6088 z"
         style="font-size:12.176px;line-height:1.25"
         id="path335" />
      <path
         d="m 332.82735,683.43206 v -0.36528 c -0.23134,0.19481 -0.49921,0.3531 -0.80361,0.3531 -0.45052,0 -0.53575,-0.5601 -0.53575,-1.08366 v -3.9572 h -0.94973 v 3.9572 c 0,0.81579 0.31658,1.64376 1.03496,1.64376 0.46269,0 0.90103,-0.23135 1.25413,-0.54792 z m -1.2176,-6.9525 c 0,-0.32875 -0.26787,-0.59662 -0.59662,-0.59662 -0.32875,0 -0.59663,0.26787 -0.59663,0.59662 0,0.32875 0.26788,0.59662 0.59663,0.59662 0.32875,0 0.59662,-0.26787 0.59662,-0.59662 z"
         style="font-size:12.176px;line-height:1.25"
         id="path337" />
    </g>
    <g
       aria-label="down_i"
       id="text4852"
       style="line-height:0%;font-family:Iwona;-inkscape-font-specification:Iwona;text-align:end;letter-spacing:0px;word-spacing:0px;text-anchor:end">
      <path
         d="m 160.27767,683.85822 v -8.5232 h -0.94973 v 3.25099 c -0.47486,-0.20699 -0.98625,-0.32875 -1.49764,-0.32875 -1.522,0 -2.26474,1.2176 -2.26474,2.86136 0,1.6194 0.6088,2.86136 2.0821,2.86136 0.62097,0 1.19324,-0.28005 1.68028,-0.66968 v 0.54792 z m -0.94973,-1.05932 c -0.36528,0.36528 -0.81579,0.66968 -1.33936,0.66968 -1.10801,0 -1.35153,-1.07148 -1.35153,-2.34996 0,-1.14455 0.3531,-2.34997 1.35153,-2.34997 0.46269,0 0.92538,0.12176 1.33936,0.32875 z"
         style="font-size:12.176px;line-height:1.25"
         id="path340" />
      <path
         d="m 166.63354,681.11862 c 0,-1.86293 -0.82797,-2.86136 -2.34997,-2.86136 -1.53418,0 -2.36215,0.99843 -2.36215,2.86136 0,1.86292 0.82797,2.86136 2.36215,2.86136 1.522,0 2.34997,-0.99844 2.34997,-2.86136 z m -1.07149,0 c 0,1.522 -0.45051,2.34996 -1.27848,2.34996 -0.84015,0 -1.29066,-0.82796 -1.29066,-2.34996 0,-1.522 0.45051,-2.34997 1.29066,-2.34997 0.82797,0 1.27848,0.82797 1.27848,2.34997 z"
         style="font-size:12.176px;line-height:1.25"
         id="path342" />
      <path
         d="m 175.26632,678.37902 h -0.53575 l -1.43677,4.44424 -1.37588,-4.44424 h -0.65751 l -1.43677,4.44424 -1.38806,-4.44424 h -0.88885 l 1.70464,5.4792 h 0.76709 l 1.37589,-4.2616 1.32718,4.2616 h 0.76709 z"
         style="font-size:12.176px;line-height:1.25"
         id="path344" />
      <path
         d="m 180.89163,683.85822 v -3.9572 c 0,-0.88885 -0.68186,-1.64376 -1.55853,-1.64376 -0.73056,0 -1.37589,0.41398 -1.89946,0.92537 v -0.80361 h -0.94973 v 5.4792 h 0.94973 v -4.29813 c 0.41399,-0.41399 0.92538,-0.74274 1.49765,-0.74274 0.57227,0 1.01061,0.49922 1.01061,1.08367 v 3.9572 z"
         style="font-size:12.176px;line-height:1.25"
         id="path346" />
      <path
         d="m 187.8928,685.25846 v -0.6088 h -6.088 v 0.6088 z"
         style="font-size:12.176px;line-height:1.25"
         id="path348" />
      <path
         d="m 191.09507,683.43206 v -0.36528 c -0.23134,0.19481 -0.49922,0.3531 -0.80362,0.3531 -0.45051,0 -0.53574,-0.5601 -0.53574,-1.08366 v -3.9572 h -0.94973 v 3.9572 c 0,0.81579 0.31658,1.64376 1.03496,1.64376 0.46269,0 0.90103,-0.23135 1.25413,-0.54792 z m -1.2176,-6.9525 c 0,-0.32875 -0.26787,-0.59662 -0.59662,-0.59662 -0.32876,0 -0.59663,0.26787 -0.59663,0.59662 0,0.32875 0.26787,0.59662 0.59663,0.59662 0.32875,0 0.59662,-0.26787 0.59662,-0.59662 z"
         style="font-size:12.176px;line-height:1.25"
         id="path350" />
    </g>
    <path
       id="path4864"
       d="m 577.55906,680.31493 v -10.62992 l -7.0866,-7.08661 -7.08661,7.08661 v 10.62992 z"
       style="fill:#afdde9;fill-opacity:1;stroke:#000000;stroke-width:1px;stroke-linecap:butt;stroke-linejoin:miter;stroke-opacity:1" />
    <path
       style="fill:#afdde9;fill-opacity:1;stroke:#000000;stroke-width:1px;stroke-linecap:butt;stroke-linejoin:miter;stroke-opacity:1"
       d="m 538.58266,680.31493 v -10.62992 l -7.0866,-7.08661 -7.08661,7.08661 v 10.62992 z"
       id="path4866" />
    <g
       aria-label="clk_i"
       id="text4868"
       style="line-height:0%;font-family:Iwona;-inkscape-font-specification:Iwona;text-align:center;letter-spacing:0px;word-spacing:0px;text-anchor:middle">
      <path
         d="m 524.3792,690.27526 v -0.51139 c -0.38963,-0.54792 -1.02278,-0.87667 -1.70464,-0.87667 -1.522,0 -2.54478,1.14454 -2.54478,2.86136 0,1.71682 1.02278,2.86136 2.54478,2.86136 0.63315,0 1.22978,-0.31658 1.58288,-0.84014 v -0.5114 c -0.41398,0.62098 -0.84014,0.84015 -1.58288,0.84015 -0.87667,0 -1.4733,-0.93755 -1.4733,-2.34997 0,-1.41242 0.59663,-2.34997 1.4733,-2.34997 0.75491,0 1.2663,0.26787 1.70464,0.87667 z"
         style="font-size:12.176px;line-height:1.25"
         id="path353" />
      <path
         d="m 527.94676,694.062 v -0.36528 c -0.23135,0.19482 -0.49922,0.3531 -0.80362,0.3531 -0.45051,0 -0.53574,-0.56009 -0.53574,-1.08366 v -7.0012 h -0.94973 v 7.0012 c 0,0.81579 0.31657,1.64376 1.03496,1.64376 0.46269,0 0.90102,-0.23134 1.25413,-0.54792 z"
         style="font-size:12.176px;line-height:1.25"
         id="path355" />
      <path
         d="m 533.87645,694.48816 -2.82484,-3.25099 2.72743,-2.22821 h -0.75491 l -2.91007,2.3865 v -5.4305 h -0.94973 v 8.5232 h 0.94973 v -3.03182 l 2.63002,3.03182 z"
         style="font-size:12.176px;line-height:1.25"
         id="path357" />
      <path
         d="m 540.0862,695.8884 v -0.6088 h -6.088 v 0.6088 z"
         style="font-size:12.176px;line-height:1.25"
         id="path359" />
      <path
         d="m 543.28846,694.062 v -0.36528 c -0.23134,0.19482 -0.49922,0.3531 -0.80362,0.3531 -0.45051,0 -0.53574,-0.56009 -0.53574,-1.08366 v -3.9572 h -0.94973 v 3.9572 c 0,0.81579 0.31658,1.64376 1.03496,1.64376 0.46269,0 0.90103,-0.23134 1.25413,-0.54792 z m -1.2176,-6.9525 c 0,-0.32875 -0.26787,-0.59662 -0.59662,-0.59662 -0.32876,0 -0.59663,0.26787 -0.59663,0.59662 0,0.32876 0.26787,0.59663 0.59663,0.59663 0.32875,0 0.59662,-0.26787 0.59662,-0.59663 z"
         style="font-size:12.176px;line-height:1.25"
         id="path361" />
    </g>
    <g
       aria-label="reset_i"
       id="text4872"
       style="line-height:0%;font-family:Iwona;-inkscape-font-specification:Iwona;text-align:center;letter-spacing:0px;word-spacing:0px;text-anchor:middle">
      <path
         d="m 557.02408,689.76387 v -0.75491 c -0.13394,-0.0487 -0.28005,-0.0852 -0.41399,-0.0852 -0.68185,0 -1.22977,0.47486 -1.66811,0.99843 v -0.9132 h -0.94973 v 5.4792 h 0.94973 v -4.05461 c 0.36528,-0.42616 0.82797,-0.79144 1.38806,-0.79144 0.23135,0 0.47487,0.0487 0.69404,0.12176 z"
         style="font-size:12.176px;line-height:1.25"
         id="path364" />
      <path
         d="m 562.64938,691.87032 v -0.12176 c 0,-1.71682 -0.93756,-2.86136 -2.34997,-2.86136 -1.42459,0 -2.36215,1.14454 -2.36215,2.86136 0,1.71682 0.93756,2.86136 2.36215,2.86136 0.6088,0 1.20542,-0.19482 1.70464,-0.54792 v -0.51139 c -0.57227,0.36528 -1.03496,0.49921 -1.70464,0.49921 -1.03496,0 -1.29066,-0.98625 -1.29066,-2.1795 z m -1.07149,-0.51139 h -2.56914 c 0,-0.97408 0.41399,-1.96034 1.29066,-1.96034 0.86449,0 1.27848,0.98626 1.27848,1.96034 z"
         style="font-size:12.176px;line-height:1.25"
         id="path366" />
      <path
         d="m 567.93374,692.92963 c 0,-0.9619 -1.02278,-1.46112 -2.02121,-1.70464 -0.58445,-0.14611 -1.2176,-0.38963 -1.2176,-0.9619 0,-0.52357 0.53574,-0.8645 1.12019,-0.8645 0.64533,0 1.29066,0.19482 1.8264,0.54792 v -0.51139 c -0.53574,-0.3531 -1.18107,-0.54792 -1.8264,-0.54792 -1.05931,0 -2.03339,0.64533 -2.03339,1.63158 0,0.88885 0.98625,1.30284 1.92381,1.53418 0.64532,0.15829 1.315,0.49922 1.315,1.12019 0,0.57227 -0.58444,0.92538 -1.20542,0.92538 -0.75491,0 -1.48547,-0.18264 -2.1308,-0.54792 v 0.51139 c 0.64533,0.36528 1.37589,0.54792 2.1308,0.54792 1.09584,0 2.11862,-0.6575 2.11862,-1.68029 z"
         style="font-size:12.176px;line-height:1.25"
         id="path368" />
      <path
         d="m 573.86344,691.87032 v -0.12176 c 0,-1.71682 -0.93755,-2.86136 -2.34997,-2.86136 -1.42459,0 -2.36214,1.14454 -2.36214,2.86136 0,1.71682 0.93755,2.86136 2.36214,2.86136 0.6088,0 1.20543,-0.19482 1.70464,-0.54792 v -0.51139 c -0.57227,0.36528 -1.03496,0.49921 -1.70464,0.49921 -1.03496,0 -1.29065,-0.98625 -1.29065,-2.1795 z m -1.07149,-0.51139 h -2.56913 c 0,-0.97408 0.41398,-1.96034 1.29065,-1.96034 0.8645,0 1.27848,0.98626 1.27848,1.96034 z"
         style="font-size:12.176px;line-height:1.25"
         id="path370" />
      <path
         d="m 578.02762,694.062 v -0.36528 c -0.19482,0.19482 -0.42616,0.3531 -0.70621,0.3531 -0.43834,0 -0.46269,-0.57227 -0.46269,-1.08366 v -3.44581 h 1.1689 v -0.51139 h -1.1689 v -1.8264 h -0.57227 c 0,0.97408 -0.5601,1.88728 -1.44894,1.88728 v 0.45051 h 1.07148 v 3.44581 c 0,0.80362 0.2557,1.64376 0.94973,1.64376 0.45051,0 0.84015,-0.24352 1.1689,-0.54792 z"
         style="font-size:12.176px;line-height:1.25"
         id="path372" />
      <path
         d="m 584.48088,695.8884 v -0.6088 h -6.088 v 0.6088 z"
         style="font-size:12.176px;line-height:1.25"
         id="path374" />
      <path
         d="m 587.68315,694.062 v -0.36528 c -0.23135,0.19482 -0.49922,0.3531 -0.80362,0.3531 -0.45051,0 -0.53574,-0.56009 -0.53574,-1.08366 v -3.9572 h -0.94973 v 3.9572 c 0,0.81579 0.31657,1.64376 1.03496,1.64376 0.46269,0 0.90102,-0.23134 1.25413,-0.54792 z m -1.2176,-6.9525 c 0,-0.32875 -0.26788,-0.59662 -0.59663,-0.59662 -0.32875,0 -0.59662,0.26787 -0.59662,0.59662 0,0.32876 0.26787,0.59663 0.59662,0.59663 0.32875,0 0.59663,-0.26787 0.59663,-0.59663 z"
         style="font-size:12.176px;line-height:1.25"
         id="path376" />
    </g>
    <g
       aria-label="UpDownCounter(Behavioral)"
       id="text4878"
       style="line-height:0%;font-family:Iwona;-inkscape-font-specification:Iwona;letter-spacing:0px;word-spacing:0px">
      <path
         d="m 137.1541,905.877 v -12.2217 h -1.11547 v 11.83371 c 0,2.52194 -2.23094,4.41339 -4.80138,4.41339 -2.59469,0 -4.82563,-1.89145 -4.82563,-4.41339 V 893.6553 h -1.98845 v 12.2217 c 0,3.07967 3.05542,5.14087 6.37759,5.14087 3.29792,0 6.35334,-2.0612 6.35334,-5.14087 z"
         style="font-size:24.2494px;line-height:1.25"
         id="path379" />
      <path
         d="m 150.53977,905.17377 c 0,-3.22517 -1.21247,-5.69861 -4.14665,-5.69861 -1.23672,0 -2.37644,0.55774 -3.34641,1.33372 v -1.09123 h -1.89146 v 16.48959 h 1.89146 v -5.9896 c 0.94572,0.41224 1.9642,0.65474 2.98267,0.65474 3.03118,0 4.51039,-2.42494 4.51039,-5.69861 z m -2.13395,0 c 0,2.27944 -0.70323,4.68013 -2.69168,4.68013 -0.92148,0 -1.84295,-0.24249 -2.66743,-0.65473 v -7.37182 c 0.72748,-0.72748 1.62471,-1.33372 2.66743,-1.33372 2.2067,0 2.69168,2.13395 2.69168,4.68014 z"
         style="font-size:24.2494px;line-height:1.25"
         id="path381" />
      <path
         d="m 168.55703,902.14259 c 0,-5.18937 -2.83718,-8.72978 -7.83255,-8.72978 -1.50347,0 -3.00693,0.0727 -4.48614,0.24249 h -1.93995 v 16.97458 h 1.93995 c 1.47921,0.16975 2.98267,0.2425 4.48614,0.2425 4.99537,0 7.83255,-3.54042 7.83255,-8.72979 z m -2.37644,0 c 0,3.85566 -1.9642,7.61431 -5.45611,7.61431 -1.47922,0 -2.95843,-0.0727 -4.43764,-0.24249 v -14.74363 c 1.47921,-0.16975 2.95842,-0.2425 4.43764,-0.2425 3.49191,0 5.45611,3.75866 5.45611,7.61431 z"
         style="font-size:24.2494px;line-height:1.25"
         id="path383" />
      <path
         d="m 180.73021,905.17377 c 0,-3.71016 -1.64896,-5.69861 -4.68013,-5.69861 -3.05543,0 -4.70438,1.98845 -4.70438,5.69861 0,3.71016 1.64895,5.69861 4.70438,5.69861 3.03117,0 4.68013,-1.98845 4.68013,-5.69861 z m -2.13394,0 c 0,3.03117 -0.89723,4.68013 -2.54619,4.68013 -1.67321,0 -2.57044,-1.64896 -2.57044,-4.68013 0,-3.03118 0.89723,-4.68014 2.57044,-4.68014 1.64896,0 2.54619,1.64896 2.54619,4.68014 z"
         style="font-size:24.2494px;line-height:1.25"
         id="path385" />
      <path
         d="m 197.92303,899.71765 h -1.06698 l -2.86143,8.85103 -2.74018,-8.85103 h -1.30947 l -2.86143,8.85103 -2.76443,-8.85103 h -1.7702 l 3.39491,10.91223 h 1.52772 l 2.74018,-8.48729 2.64318,8.48729 h 1.52771 z"
         style="font-size:24.2494px;line-height:1.25"
         id="path387" />
      <path
         d="m 209.12625,910.62988 v -7.88105 c 0,-1.77021 -1.35797,-3.27367 -3.10393,-3.27367 -1.45496,0 -2.74018,0.82448 -3.7829,1.84295 v -1.60046 h -1.89146 v 10.91223 h 1.89146 v -8.56004 c 0.82448,-0.82447 1.84295,-1.47921 2.98267,-1.47921 1.13973,0 2.0127,0.99423 2.0127,2.1582 v 7.88105 z"
         style="font-size:24.2494px;line-height:1.25"
         id="path389" />
      <path
         d="m 225.73704,897.7292 v -1.30947 c -1.30947,-1.89145 -3.46766,-3.00692 -5.74711,-3.00692 -4.92262,0 -7.59006,3.58891 -7.59006,8.72978 0,5.14088 2.66744,8.72979 7.59006,8.72979 1.89146,0 3.75866,-0.55774 5.35912,-1.60046 v -1.11548 c -1.60046,1.04273 -3.46766,1.60046 -5.35912,1.60046 -3.80715,0 -5.21362,-3.37066 -5.21362,-7.61431 0,-4.24364 1.40647,-7.61431 5.21362,-7.61431 2.32795,0 4.51039,1.21247 5.74711,3.20092 z"
         style="font-size:24.2494px;line-height:1.25"
         id="path391" />
      <path
         d="m 236.89173,905.17377 c 0,-3.71016 -1.64896,-5.69861 -4.68014,-5.69861 -3.05542,0 -4.70438,1.98845 -4.70438,5.69861 0,3.71016 1.64896,5.69861 4.70438,5.69861 3.03118,0 4.68014,-1.98845 4.68014,-5.69861 z m -2.13395,0 c 0,3.03117 -0.89723,4.68013 -2.54619,4.68013 -1.67321,0 -2.57043,-1.64896 -2.57043,-4.68013 0,-3.03118 0.89722,-4.68014 2.57043,-4.68014 1.64896,0 2.54619,1.64896 2.54619,4.68014 z"
         style="font-size:24.2494px;line-height:1.25"
         id="path393" />
      <path
         d="m 248.82242,910.62988 v -10.91223 h -1.89145 v 8.56004 c -0.82448,0.82448 -1.84296,1.47921 -2.98268,1.47921 -1.13972,0 -2.0127,-0.99422 -2.0127,-2.15819 v -7.88106 h -1.89145 v 7.88106 c 0,1.7702 1.35796,3.27367 3.10392,3.27367 1.45497,0 2.74018,-0.82448 3.78291,-1.84296 v 1.60046 z"
         style="font-size:24.2494px;line-height:1.25"
         id="path395" />
      <path
         d="m 261.48056,910.62988 v -7.88105 c 0,-1.77021 -1.35796,-3.27367 -3.10392,-3.27367 -1.45496,0 -2.74018,0.82448 -3.78291,1.84295 v -1.60046 h -1.89145 v 10.91223 h 1.89145 v -8.56004 c 0.82448,-0.82447 1.84296,-1.47921 2.98268,-1.47921 1.13972,0 2.0127,0.99423 2.0127,2.1582 v 7.88105 z"
         style="font-size:24.2494px;line-height:1.25"
         id="path397" />
      <path
         d="m 270.38005,909.78115 v -0.72748 c -0.38799,0.38799 -0.84873,0.70323 -1.40647,0.70323 -0.87297,0 -0.92147,-1.13972 -0.92147,-2.15819 v -6.86258 h 2.32794 v -1.01848 h -2.32794 v -3.63741 h -1.13972 c 0,1.93996 -1.11548,3.75866 -2.88568,3.75866 v 0.89723 h 2.13394 v 6.86258 c 0,1.60046 0.50924,3.27367 1.89146,3.27367 0.89722,0 1.67321,-0.48499 2.32794,-1.09123 z"
         style="font-size:24.2494px;line-height:1.25"
         id="path399" />
      <path
         d="m 281.82573,905.41626 v -0.24249 c 0,-3.41917 -1.8672,-5.69861 -4.68013,-5.69861 -2.83718,0 -4.70438,2.27944 -4.70438,5.69861 0,3.41916 1.8672,5.69861 4.70438,5.69861 1.21247,0 2.40069,-0.38799 3.39491,-1.09123 v -1.01847 c -1.13972,0.72748 -2.06119,0.99422 -3.39491,0.99422 -2.0612,0 -2.57044,-1.9642 -2.57044,-4.34064 z m -2.13394,-1.01847 h -5.11663 c 0,-1.93995 0.82448,-3.90416 2.57044,-3.90416 1.72171,0 2.54619,1.96421 2.54619,3.90416 z"
         style="font-size:24.2494px;line-height:1.25"
         id="path401" />
      <path
         d="m 291.01623,901.22112 v -1.50347 c -0.26674,-0.097 -0.55774,-0.16974 -0.82448,-0.16974 -1.35797,0 -2.44919,0.94572 -3.32217,1.98845 v -1.81871 h -1.89145 v 10.91223 h 1.89145 v -8.07505 c 0.72748,-0.84873 1.64896,-1.57621 2.76443,-1.57621 0.46074,0 0.94573,0.097 1.38222,0.2425 z"
         style="font-size:24.2494px;line-height:1.25"
         id="path403" />
      <path
         d="m 297.75754,916.20724 c -1.77021,-3.9284 -2.42494,-6.95957 -2.42494,-11.27597 0,-4.31639 0.65473,-7.34756 2.42494,-11.27597 h -1.01848 c -2.40069,3.73441 -3.29792,6.83833 -3.29792,11.27597 0,4.43764 0.89723,7.54157 3.29792,11.27597 z"
         style="font-size:24.2494px;line-height:1.25"
         id="path405" />
      <path
         d="m 314.12585,906.0225 c 0,-2.66744 -1.74596,-4.0739 -4.29215,-4.60739 1.86721,-0.55774 3.10392,-1.77021 3.10392,-3.8314 0,-2.95843 -2.54618,-4.1709 -5.81985,-4.1709 -1.26097,0 -2.52194,0.0727 -3.78291,0.24249 h -1.93995 v 16.97458 h 1.93995 l 3.78291,0.2425 c 3.9284,0 7.00808,-1.33372 7.00808,-4.84988 z m -3.17668,-8.43879 c 0,2.44919 -2.74018,3.71015 -5.48036,3.71015 h -2.08545 v -6.52308 c 1.23672,-0.16975 2.49769,-0.2425 3.73441,-0.2425 1.98845,0 3.8314,1.21247 3.8314,3.05543 z m 0.80023,8.43879 c 0,2.23094 -2.20669,3.7344 -4.63163,3.7344 -1.23672,0 -2.49769,-0.0727 -3.73441,-0.24249 v -7.37182 h 3.12817 c 2.66744,0 5.23787,1.43072 5.23787,3.87991 z"
         style="font-size:24.2494px;line-height:1.25"
         id="path407" />
      <path
         d="m 326.29903,905.41626 v -0.24249 c 0,-3.41917 -1.8672,-5.69861 -4.68013,-5.69861 -2.83718,0 -4.70439,2.27944 -4.70439,5.69861 0,3.41916 1.86721,5.69861 4.70439,5.69861 1.21247,0 2.40069,-0.38799 3.39491,-1.09123 v -1.01847 c -1.13972,0.72748 -2.0612,0.99422 -3.39491,0.99422 -2.0612,0 -2.57044,-1.9642 -2.57044,-4.34064 z m -2.13395,-1.01847 h -5.11662 c 0,-1.93995 0.82448,-3.90416 2.57044,-3.90416 1.7217,0 2.54618,1.96421 2.54618,3.90416 z"
         style="font-size:24.2494px;line-height:1.25"
         id="path409" />
      <path
         d="m 338.22971,910.62988 v -7.88105 c 0,-1.77021 -1.35797,-3.27367 -3.10392,-3.27367 -1.45497,0 -2.74019,0.82448 -3.78291,1.84295 v -7.66281 h -1.89145 v 16.97458 h 1.89145 v -8.56004 c 0.82448,-0.82447 1.84295,-1.47921 2.98268,-1.47921 1.13972,0 2.0127,0.99423 2.0127,2.1582 v 7.88105 z"
         style="font-size:24.2494px;line-height:1.25"
         id="path411" />
      <path
         d="m 350.52411,910.62988 v -6.78983 c 0,-2.27944 -1.40646,-4.36489 -3.51616,-4.36489 -1.55196,0 -3.00693,0.53349 -4.3164,1.35797 v 0.75173 c 1.09123,-0.60624 2.3037,-0.99423 3.56467,-0.99423 1.50346,0 2.37644,1.60046 2.37644,3.24942 v 0.43649 c -0.94573,-0.41224 -1.9642,-0.65473 -2.98268,-0.65473 -2.59468,0 -4.51039,1.18822 -4.51039,3.63741 0,2.32794 1.69746,3.61316 4.14665,3.61316 1.23672,0 2.37644,-0.55774 3.34642,-1.33372 v 1.09122 z m -1.89145,-2.10969 c -0.72748,0.72748 -1.62471,1.33371 -2.66744,1.33371 -1.62471,0 -2.69168,-0.99422 -2.69168,-2.59468 0,-1.47922 1.21247,-2.61894 2.69168,-2.61894 0.92148,0 1.84296,0.2425 2.66744,0.65473 z"
         style="font-size:24.2494px;line-height:1.25"
         id="path413" />
      <path
         d="m 362.09105,899.71765 h -1.09123 l -3.29791,9.06928 -3.20093,-9.06928 h -1.79445 l 3.8314,10.91223 h 1.57622 z"
         style="font-size:24.2494px;line-height:1.25"
         id="path415" />
      <path
         d="m 368.71113,909.78115 v -0.72748 c -0.46073,0.38799 -0.99422,0.70323 -1.60046,0.70323 -0.89722,0 -1.06697,-1.11547 -1.06697,-2.15819 v -7.88106 h -1.89145 v 7.88106 c 0,1.62471 0.63048,3.27367 2.0612,3.27367 0.92147,0 1.79445,-0.46074 2.49768,-1.09123 z m -2.42494,-13.8464 c 0,-0.65474 -0.53348,-1.18822 -1.18822,-1.18822 -0.65473,0 -1.18822,0.53348 -1.18822,1.18822 0,0.65473 0.53349,1.18822 1.18822,1.18822 0.65474,0 1.18822,-0.53349 1.18822,-1.18822 z"
         style="font-size:24.2494px;line-height:1.25"
         id="path417" />
      <path
         d="m 379.91433,905.17377 c 0,-3.71016 -1.64896,-5.69861 -4.68014,-5.69861 -3.05542,0 -4.70438,1.98845 -4.70438,5.69861 0,3.71016 1.64896,5.69861 4.70438,5.69861 3.03118,0 4.68014,-1.98845 4.68014,-5.69861 z m -2.13395,0 c 0,3.03117 -0.89723,4.68013 -2.54619,4.68013 -1.67321,0 -2.57044,-1.64896 -2.57044,-4.68013 0,-3.03118 0.89723,-4.68014 2.57044,-4.68014 1.64896,0 2.54619,1.64896 2.54619,4.68014 z"
         style="font-size:24.2494px;line-height:1.25"
         id="path419" />
      <path
         d="m 389.2261,901.22112 v -1.50347 c -0.26674,-0.097 -0.55774,-0.16974 -0.82448,-0.16974 -1.35797,0 -2.44919,0.94572 -3.32217,1.98845 v -1.81871 H 383.188 v 10.91223 h 1.89145 v -8.07505 c 0.72748,-0.84873 1.64896,-1.57621 2.76443,-1.57621 0.46074,0 0.94573,0.097 1.38222,0.2425 z"
         style="font-size:24.2494px;line-height:1.25"
         id="path421" />
      <path
         d="m 399.89578,910.62988 v -6.78983 c 0,-2.27944 -1.40646,-4.36489 -3.51616,-4.36489 -1.55196,0 -3.00692,0.53349 -4.31639,1.35797 v 0.75173 c 1.09122,-0.60624 2.30369,-0.99423 3.56466,-0.99423 1.50346,0 2.37644,1.60046 2.37644,3.24942 v 0.43649 c -0.94573,-0.41224 -1.9642,-0.65473 -2.98267,-0.65473 -2.59469,0 -4.51039,1.18822 -4.51039,3.63741 0,2.32794 1.69745,3.61316 4.14664,3.61316 1.23672,0 2.37645,-0.55774 3.34642,-1.33372 v 1.09122 z m -1.89145,-2.10969 c -0.72748,0.72748 -1.62471,1.33371 -2.66743,1.33371 -1.62471,0 -2.69169,-0.99422 -2.69169,-2.59468 0,-1.47922 1.21247,-2.61894 2.69169,-2.61894 0.92147,0 1.84295,0.2425 2.66743,0.65473 z"
         style="font-size:24.2494px;line-height:1.25"
         id="path423" />
      <path
         d="m 408.33453,909.78115 v -0.72748 c -0.46074,0.38799 -0.99422,0.70323 -1.60046,0.70323 -0.89723,0 -1.06697,-1.11547 -1.06697,-2.15819 V 893.6553 h -1.89145 v 13.94341 c 0,1.62471 0.63048,3.27367 2.06119,3.27367 0.92148,0 1.79446,-0.46074 2.49769,-1.09123 z"
         style="font-size:24.2494px;line-height:1.25"
         id="path425" />
      <path
         d="m 414.63934,904.93127 c 0,-4.43764 -0.89723,-7.54156 -3.29792,-11.27597 h -1.01848 c 1.77021,3.92841 2.42494,6.95958 2.42494,11.27597 0,4.3164 -0.65473,7.34757 -2.42494,11.27597 h 1.01848 c 2.40069,-3.7344 3.29792,-6.83833 3.29792,-11.27597 z"
         style="font-size:24.2494px;line-height:1.25"
         id="path427" />
    </g>
    <path
       style="fill:#afdde9;fill-opacity:1;stroke:#000000;stroke-width:1px;stroke-linecap:butt;stroke-linejoin:miter;stroke-opacity:1"
       d="m 651.9685,531.49605 h 14.17323 v 14.1732 H 651.9685 Z"
       id="path5521" />
    <g
       aria-label="value_reg"
       id="text5525"
       style="line-height:0%;font-family:Iwona;-inkscape-font-specification:Iwona;text-align:center;letter-spacing:0px;word-spacing:0px;text-anchor:middle">
      <path
         d="m 631.96949,522.47356 h -0.54792 l -1.65593,4.55382 -1.60723,-4.55382 h -0.90103 l 1.92381,5.4792 h 0.79144 z"
         style="font-size:12.176px;line-height:1.25"
         id="path430" />
      <path
         d="m 637.35128,527.95276 v -3.40928 c 0,-1.14455 -0.70621,-2.19168 -1.76552,-2.19168 -0.77926,0 -1.50982,0.26787 -2.16733,0.68185 v 0.37746 c 0.54792,-0.3044 1.15672,-0.49922 1.78987,-0.49922 0.75492,0 1.19325,0.80362 1.19325,1.63159 v 0.21917 c -0.47486,-0.207 -0.98625,-0.32876 -1.49765,-0.32876 -1.30283,0 -2.26473,0.59663 -2.26473,1.8264 0,1.1689 0.85232,1.81423 2.08209,1.81423 0.62098,0 1.19325,-0.28005 1.68029,-0.66968 v 0.54792 z m -0.94973,-1.05931 c -0.36528,0.36528 -0.81579,0.66968 -1.33936,0.66968 -0.81579,0 -1.35153,-0.49922 -1.35153,-1.30284 0,-0.74273 0.6088,-1.315 1.35153,-1.315 0.46269,0 0.92538,0.12176 1.33936,0.32875 z"
         style="font-size:12.176px;line-height:1.25"
         id="path432" />
      <path
         d="m 641.58852,527.5266 v -0.36528 c -0.23135,0.19481 -0.49922,0.3531 -0.80362,0.3531 -0.45051,0 -0.53574,-0.56009 -0.53574,-1.08366 v -7.0012 h -0.94973 v 7.0012 c 0,0.81579 0.31658,1.64376 1.03496,1.64376 0.46269,0 0.90102,-0.23135 1.25413,-0.54792 z"
         style="font-size:12.176px;line-height:1.25"
         id="path434" />
      <path
         d="m 647.15293,527.95276 v -5.4792 h -0.94973 v 4.29813 c -0.41398,0.41398 -0.92538,0.74273 -1.49765,0.74273 -0.57227,0 -1.01061,-0.49921 -1.01061,-1.08366 v -3.9572 h -0.94972 v 3.9572 c 0,0.88885 0.68185,1.64376 1.55852,1.64376 0.73056,0 1.37589,-0.41399 1.89946,-0.92538 v 0.80362 z"
         style="font-size:12.176px;line-height:1.25"
         id="path436" />
      <path
         d="m 653.50878,525.33492 v -0.12176 c 0,-1.71682 -0.93755,-2.86136 -2.34997,-2.86136 -1.42459,0 -2.36214,1.14454 -2.36214,2.86136 0,1.71681 0.93755,2.86136 2.36214,2.86136 0.6088,0 1.20542,-0.19482 1.70464,-0.54792 v -0.51139 c -0.57227,0.36528 -1.03496,0.49921 -1.70464,0.49921 -1.03496,0 -1.29066,-0.98625 -1.29066,-2.1795 z m -1.07149,-0.51139 h -2.56914 c 0,-0.97408 0.41399,-1.96034 1.29066,-1.96034 0.8645,0 1.27848,0.98626 1.27848,1.96034 z"
         style="font-size:12.176px;line-height:1.25"
         id="path438" />
      <path
         d="m 660.20556,529.353 v -0.6088 h -6.088 v 0.6088 z"
         style="font-size:12.176px;line-height:1.25"
         id="path440" />
      <path
         d="m 664.21144,523.22847 v -0.75491 c -0.13393,-0.0487 -0.28005,-0.0852 -0.41398,-0.0852 -0.68186,0 -1.22978,0.47486 -1.66811,0.99843 v -0.9132 h -0.94973 v 5.4792 h 0.94973 v -4.05461 c 0.36528,-0.42616 0.82796,-0.79144 1.38806,-0.79144 0.23134,0 0.47486,0.0487 0.69403,0.12176 z"
         style="font-size:12.176px;line-height:1.25"
         id="path442" />
      <path
         d="m 669.83674,525.33492 v -0.12176 c 0,-1.71682 -0.93755,-2.86136 -2.34997,-2.86136 -1.42459,0 -2.36214,1.14454 -2.36214,2.86136 0,1.71681 0.93755,2.86136 2.36214,2.86136 0.6088,0 1.20543,-0.19482 1.70464,-0.54792 v -0.51139 c -0.57227,0.36528 -1.03496,0.49921 -1.70464,0.49921 -1.03496,0 -1.29065,-0.98625 -1.29065,-2.1795 z m -1.07149,-0.51139 h -2.56913 c 0,-0.97408 0.41398,-1.96034 1.29065,-1.96034 0.8645,0 1.27848,0.98626 1.27848,1.96034 z"
         style="font-size:12.176px;line-height:1.25"
         id="path444" />
      <path
         d="m 675.82732,528.68332 v -6.20976 h -0.94973 v 0.20699 c -0.47486,-0.20699 -0.98625,-0.32875 -1.49765,-0.32875 -1.522,0 -2.26473,1.2176 -2.26473,2.86136 0,1.61941 0.6088,2.86136 2.08209,2.86136 0.62098,0 1.19325,-0.28005 1.68029,-0.66968 v 1.27848 c 0,0.84014 -0.46269,1.63158 -1.2176,1.63158 -0.62097,0 -1.24195,-0.12176 -1.8264,-0.32875 v 0.37746 c 0.68186,0.31657 1.43677,0.51139 2.19168,0.51139 1.07149,0 1.80205,-1.04714 1.80205,-2.19168 z m -0.94973,-1.78987 c -0.36528,0.36528 -0.81579,0.66968 -1.33936,0.66968 -1.10801,0 -1.35153,-1.07149 -1.35153,-2.34997 0,-1.14455 0.3531,-2.34997 1.35153,-2.34997 0.46269,0 0.92538,0.12176 1.33936,0.32875 z"
         style="font-size:12.176px;line-height:1.25"
         id="path446" />
    </g>
    <path
       style="fill:none;stroke:#000000;stroke-width:1px;stroke-linecap:butt;stroke-linejoin:miter;stroke-opacity:1;marker-end:url(#Arrow1Mend)"
       d="m 595.27558,538.58264 h 56.69293"
       id="path5529" />
    <path
       id="path6850"
       d="m 666.14171,538.58265 h 56.69293"
       style="fill:none;stroke:#000000;stroke-width:1px;stroke-linecap:butt;stroke-linejoin:miter;stroke-opacity:1;marker-end:url(#Arrow1Mend)" />
    <g
       id="g6868"
       transform="translate(361.41732,272.83464)">
      <path
         id="rect6852"
         style="fill:#f4d7d7;stroke:#000000;stroke-width:0.999213;stroke-linecap:round"
         d="m 187.79527,248.03148 h 46.063 v 81.49606 h -46.063 z" />
      <g
         aria-label="Q"
         id="text6854"
         style="line-height:0%;font-family:Iwona;-inkscape-font-specification:Iwona;text-align:end;letter-spacing:0px;word-spacing:0px;text-anchor:end">
        <path
           d="m 229.58441,265.02972 c 0,-2.58131 -1.33936,-4.38336 -3.79891,-4.38336 -2.47173,0 -3.81109,1.80205 -3.81109,4.38336 0,2.58131 1.33936,4.38336 3.81109,4.38336 0.0852,0.98626 0.90102,1.74117 1.89945,1.74117 0.62098,0 0.79144,-0.0365 1.36372,-0.29223 v -0.36528 c -0.28005,0.15829 -0.58445,0.24352 -0.9132,0.24352 -1.10802,0 -1.54636,-0.38963 -1.55853,-1.40024 1.94816,-0.34092 3.00747,-2.02121 3.00747,-4.3103 z m -1.19325,0 c 0,2.1308 -0.70621,3.82326 -2.60566,3.82326 -1.91163,0 -2.61784,-1.69246 -2.61784,-3.82326 0,-2.1308 0.70621,-3.82326 2.61784,-3.82326 1.89945,0 2.60566,1.69246 2.60566,3.82326 z"
           style="font-size:12.176px;line-height:1.25"
           id="path450" />
      </g>
      <g
         aria-label="D"
         id="text6858"
         style="line-height:0%;font-family:Iwona;-inkscape-font-specification:Iwona;letter-spacing:0px;word-spacing:0px">
        <path
           d="m 199.71567,265.02972 c 0,-2.60566 -1.4246,-4.38336 -3.93285,-4.38336 -0.75491,0 -1.50983,0.0365 -2.25256,0.12176 h -0.97408 v 8.5232 h 0.97408 c 0.74273,0.0852 1.49765,0.12176 2.25256,0.12176 2.50825,0 3.93285,-1.7777 3.93285,-4.38336 z m -1.19325,0 c 0,1.93598 -0.98626,3.82326 -2.7396,3.82326 -0.74274,0 -1.48547,-0.0365 -2.22821,-0.12176 v -7.403 c 0.74274,-0.0852 1.48547,-0.12176 2.22821,-0.12176 1.75334,0 2.7396,1.88728 2.7396,3.82326 z"
           style="font-size:12.176px;line-height:1.25"
           id="path453" />
      </g>
      <g
         aria-label="CLK"
         id="text6862"
         style="line-height:0%;font-family:Iwona;-inkscape-font-specification:Iwona;letter-spacing:0px;word-spacing:0px">
        <path
           d="m 205.85256,298.24676 v -0.6575 c -0.6575,-0.94973 -1.74117,-1.50982 -2.88571,-1.50982 -2.47173,0 -3.81109,1.80204 -3.81109,4.38336 0,2.58131 1.33936,4.38336 3.81109,4.38336 0.94973,0 1.88728,-0.28005 2.6909,-0.80362 v -0.5601 c -0.80362,0.52357 -1.74117,0.80362 -2.6909,0.80362 -1.91163,0 -2.61784,-1.69246 -2.61784,-3.82326 0,-2.1308 0.70621,-3.82327 2.61784,-3.82327 1.1689,0 2.26474,0.6088 2.88571,1.60723 z"
           style="font-size:12.176px;line-height:1.25"
           id="path456" />
        <path
           d="m 212.30583,304.7244 v -0.5601 h -3.87196 v -7.9631 h -0.99844 v 8.5232 z"
           style="font-size:12.176px;line-height:1.25"
           id="path458" />
        <path
           d="m 220.92642,304.7244 -5.39396,-4.8217 5.10174,-3.7015 h -0.9619 l -4.90693,3.56756 v -3.56756 h -0.99843 v 8.5232 h 0.99843 v -4.1642 l 4.66341,4.1642 z"
           style="font-size:12.176px;line-height:1.25"
           id="path460" />
      </g>
      <path
         id="path6866"
         d="m 187.79528,294.09447 7.08661,7.08661 -7.08661,7.08661"
         style="fill:none;stroke:#000000;stroke-width:1px;stroke-linecap:butt;stroke-linejoin:miter;stroke-opacity:1" />
      <g
         aria-label="R"
         id="text6878"
         style="line-height:0%;font-family:Iwona;-inkscape-font-specification:Iwona;text-align:center;letter-spacing:0px;word-spacing:0px;text-anchor:middle">
        <path
           d="m 212.91491,325.98422 -2.59349,-3.85979 c 1.32719,-0.2557 2.24039,-0.98626 2.24039,-2.34997 0,-1.71681 -1.4733,-2.4352 -3.38493,-2.4352 -0.68186,0 -1.36371,0.0365 -2.03339,0.12176 h -0.97408 v 8.5232 h 0.99843 v -3.9572 c 0.6575,0.12176 1.33936,0.19482 2.00904,0.19482 l 2.54478,3.76238 z m -1.54635,-6.20976 c 0,1.10802 -1.03496,1.88728 -2.19168,1.88728 -0.66968,0 -1.35154,-0.0731 -2.00904,-0.19481 v -3.44581 c 0.66968,-0.0852 1.33936,-0.12176 2.00904,-0.12176 1.15672,0 2.19168,0.77926 2.19168,1.8751 z"
           style="font-size:12.176px;line-height:1.25"
           id="path463" />
      </g>
    </g>
    <path
       id="path6882"
       d="m 531.49606,620.07872 v -46.06299 l 17.71654,-10e-6"
       style="fill:none;stroke:#000000;stroke-width:1px;stroke-linecap:butt;stroke-linejoin:miter;stroke-opacity:1;marker-end:url(#Arrow1Mend)" />
    <path
       style="fill:none;stroke:#000000;stroke-width:1px;stroke-linecap:butt;stroke-linejoin:miter;stroke-opacity:1;marker-end:url(#Arrow1Mend)"
       d="M 570.47244,662.5984 V 602.36218"
       id="path6884" />
    <g
       id="g6927"
       transform="translate(255.15741,237.40158)">
      <path
         id="rect6929"
         style="fill:#f4d7d7;stroke:#000000;stroke-width:0.999213;stroke-linecap:round"
         d="m 63.77953,166.53542 h 35.433078 v 28.34646 H 63.77953 Z" />
      <g
         aria-label="+ 1"
         id="text6984"
         style="line-height:0%;font-family:Iwona;-inkscape-font-specification:Iwona;letter-spacing:0px;word-spacing:0px">
        <path
           d="m 80.61344,182.11664 v -0.8 h -4.624 v -4.624 h -0.8 v 4.624 h -4.624 v 0.8 h 4.624 v 4.624 h 0.8 v -4.624 z"
           style="font-size:16px;line-height:1.25"
           id="path467" />
        <path
           d="m 92.421411,185.71664 v -11.04 h -0.928 c -0.88,1.008 -1.92,1.872 -3.072,2.544 v 0.672 c 0.976,-0.464 1.888,-1.008 2.752,-1.664 v 9.488 z"
           style="font-size:16px;line-height:1.25"
           id="path469" />
      </g>
    </g>
    <path
       style="fill:none;stroke:#000000;stroke-width:1px;stroke-linecap:butt;stroke-linejoin:miter;stroke-opacity:1;marker-end:url(#Arrow1Mend)"
       d="m 400.3937,538.58265 148.81889,1e-5"
       id="path6949" />
    <g
       id="g6959"
       transform="translate(38.976381,159.44881)">
      <path
         style="fill:#f4d7d7;fill-opacity:1;stroke:#000000;stroke-width:1px;stroke-linecap:butt;stroke-linejoin:miter;stroke-opacity:1"
         d="m 336.61417,336.61417 24.80315,17.71652 v 49.6063 l -24.80315,17.71653 z"
         id="path6947" />
      <g
         aria-label="1"
         id="text6951"
         style="line-height:0%;font-family:Iwona;-inkscape-font-specification:Iwona;letter-spacing:0px;word-spacing:0px">
        <path
           d="m 345.43747,364.9606 v -11.04 h -0.928 c -0.88,1.008 -1.92,1.872 -3.072,2.544 v 0.672 c 0.976,-0.464 1.888,-1.008 2.752,-1.664 v 9.488 z"
           style="font-size:16px;line-height:1.25"
           id="path472" />
      </g>
      <g
         aria-label="0"
         id="text6955"
         style="line-height:0%;font-family:Iwona;-inkscape-font-specification:Iwona;letter-spacing:0px;word-spacing:0px">
        <path
           d="m 347.86947,398.41698 c 0,-3.792 -1.168,-5.68 -3.504,-5.68 -2.336,0 -3.504,1.888 -3.504,5.68 0,3.792 1.168,5.68 3.504,5.68 2.336,0 3.504,-1.888 3.504,-5.68 z m -1.408,0 c 0,3.344 -0.704,5.008 -2.096,5.008 -1.392,0 -2.096,-1.664 -2.096,-5.008 0,-3.344 0.704,-5.008 2.096,-5.008 1.392,0 2.096,1.664 2.096,5.008 z"
           style="font-size:16px;line-height:1.25"
           id="path475" />
      </g>
    </g>
    <path
       id="path6966"
       d="M 258.66142,559.8425 H 375.59055"
       style="fill:none;stroke:#000000;stroke-width:1px;stroke-linecap:butt;stroke-linejoin:miter;stroke-opacity:1;marker-end:url(#Arrow1Mend)" />
    <g
       id="g6968"
       transform="translate(-103.25645,180.39361)">
      <path
         id="path6970"
         d="m 336.61417,336.61417 24.80315,17.71652 v 49.6063 l -24.80315,17.71653 z"
         style="fill:#f4d7d7;fill-opacity:1;stroke:#000000;stroke-width:1px;stroke-linecap:butt;stroke-linejoin:miter;stroke-opacity:1" />
      <g
         aria-label="1"
         id="text6972"
         style="line-height:0%;font-family:Iwona;-inkscape-font-specification:Iwona;letter-spacing:0px;word-spacing:0px">
        <path
           d="m 345.43747,364.9606 v -11.04 h -0.928 c -0.88,1.008 -1.92,1.872 -3.072,2.544 v 0.672 c 0.976,-0.464 1.888,-1.008 2.752,-1.664 v 9.488 z"
           style="font-size:16px;line-height:1.25"
           id="path478" />
      </g>
      <g
         aria-label="0"
         id="text6976"
         style="line-height:0%;font-family:Iwona;-inkscape-font-specification:Iwona;letter-spacing:0px;word-spacing:0px">
        <path
           d="m 347.86947,398.41698 c 0,-3.792 -1.168,-5.68 -3.504,-5.68 -2.336,0 -3.504,1.888 -3.504,5.68 0,3.792 1.168,5.68 3.504,5.68 2.336,0 3.504,-1.888 3.504,-5.68 z m -1.408,0 c 0,3.344 -0.704,5.008 -2.096,5.008 -1.392,0 -2.096,-1.664 -2.096,-5.008 0,-3.344 0.704,-5.008 2.096,-5.008 1.392,0 2.096,1.664 2.096,5.008 z"
           style="font-size:16px;line-height:1.25"
           id="path481" />
      </g>
    </g>
    <path
       style="fill:none;stroke:#000000;stroke-width:1px;stroke-linecap:butt;stroke-linejoin:miter;stroke-opacity:1;marker-end:url(#Arrow1Mend)"
       d="m 354.33071,680.31494 h 31.88975 v -106.2992"
       id="path6980" />
    <path
       id="path6982"
       d="m 212.59843,680.31494 h 31.88976 v -85.03937"
       style="fill:none;stroke:#000000;stroke-width:1px;stroke-linecap:butt;stroke-linejoin:miter;stroke-opacity:1;marker-end:url(#Arrow1Mend)" />
    <g
       transform="translate(112.88529,237.08655)"
       id="g6988">
      <path
         id="rect6990"
         style="fill:#f4d7d7;stroke:#000000;stroke-width:0.999213;stroke-linecap:round"
         d="m 63.77953,166.53542 h 35.433071 v 28.34643 H 63.77953 Z" />
      <g
         aria-label="- 1"
         id="text6992"
         style="line-height:0%;font-family:Iwona;-inkscape-font-specification:Iwona;letter-spacing:0px;word-spacing:0px">
        <path
           d="m 78.550563,183.02865 v -0.8 h -5.328 v 0.8 z"
           style="font-size:16px;line-height:1.25"
           id="path485" />
        <path
           d="m 89.766511,186.22865 v -11.04 h -0.928 c -0.88,1.008 -1.92,1.872 -3.072,2.544 v 0.672 c 0.976,-0.464 1.888,-1.008 2.752,-1.664 v 9.488 z"
           style="font-size:16px;line-height:1.25"
           id="path487" />
      </g>
    </g>
    <g
       id="g6996"
       transform="translate(198.42519,237.40157)">
      <path
         id="rect6998"
         style="fill:#f4d7d7;stroke:#000000;stroke-width:0.999213;stroke-linecap:round"
         d="m 63.77953,166.53542 h 35.433071 v 28.34645 H 63.77953 Z" />
      <g
         aria-label="≟ 0"
         id="text7000"
         style="line-height:0%;font-family:Iwona;-inkscape-font-specification:Iwona;text-align:center;letter-spacing:0px;word-spacing:0px;text-anchor:middle">
        <path
           d="m 69.244751,180.21458 h 10.015625 v 1.3125 H 69.244751 Z m 0,3.1875 h 10.015625 v 1.32813 H 69.244751 Z m 4.40625,-4.67968 h 0.789062 v 0.99218 h -0.789062 z m 0.765625,-0.57032 h -0.742188 v -0.60937 q 0,-0.39063 0.109375,-0.64063 0.109375,-0.25781 0.460938,-0.59375 l 0.351562,-0.34375 q 0.21875,-0.21093 0.320313,-0.39062 0.101562,-0.1875 0.101562,-0.375 0,-0.35156 -0.257812,-0.5625 -0.257813,-0.21875 -0.679688,-0.21875 -0.304687,0 -0.65625,0.14062 -0.351562,0.13282 -0.726562,0.39063 v -0.73438 q 0.367187,-0.21875 0.742187,-0.32812 0.375,-0.10938 0.78125,-0.10938 0.71875,0 1.148438,0.38282 0.4375,0.375 0.4375,0.99218 0,0.29688 -0.140625,0.57032 -0.140625,0.26562 -0.492188,0.60156 l -0.34375,0.33594 q -0.179687,0.17968 -0.257812,0.28906 -0.07813,0.10156 -0.109375,0.20312 -0.02344,0.0781 -0.03906,0.19532 -0.0078,0.11718 -0.0078,0.32031 z"
           style="font-size:16px;line-height:1.25"
           id="path491" />
        <path
           d="m 93.753626,181.96021 c 0,-3.792 -1.168,-5.68 -3.504,-5.68 -2.336,0 -3.504,1.888 -3.504,5.68 0,3.792 1.168,5.68 3.504,5.68 2.336,0 3.504,-1.888 3.504,-5.68 z m -1.408,0 c 0,3.344 -0.704,5.008 -2.096,5.008 -1.392,0 -2.096,-1.664 -2.096,-5.008 0,-3.344 0.704,-5.008 2.096,-5.008 1.392,0 2.096,1.664 2.096,5.008 z"
           style="font-size:16px;line-height:1.25"
           id="path493" />
      </g>
    </g>
    <g
       transform="translate(386.72101,237.71662)"
       id="g7008">
      <path
         id="rect7010"
         style="fill:#f4d7d7;stroke:#000000;stroke-width:0.999213;stroke-linecap:round"
         d="M 17.716534,162.99211 H 145.27559 v 35.43307 H 17.716534 Z" />
      <g
         aria-label="≟ VALUE_MAX"
         id="text7012"
         style="line-height:0%;font-family:Iwona;-inkscape-font-specification:Iwona;text-align:center;letter-spacing:0px;word-spacing:0px;text-anchor:middle">
        <path
           d="M 27.396835,180.21458 H 37.41246 v 1.3125 H 27.396835 Z m 0,3.1875 H 37.41246 v 1.32813 H 27.396835 Z m 4.40625,-4.67968 h 0.789063 v 0.99218 h -0.789063 z m 0.765625,-0.57032 h -0.742187 v -0.60937 q 0,-0.39063 0.109375,-0.64063 0.109375,-0.25781 0.460937,-0.59375 l 0.351563,-0.34375 q 0.21875,-0.21093 0.320312,-0.39062 0.101563,-0.1875 0.101563,-0.375 0,-0.35156 -0.257813,-0.5625 -0.257812,-0.21875 -0.679687,-0.21875 -0.304688,0 -0.65625,0.14062 -0.351563,0.13282 -0.726563,0.39063 v -0.73438 q 0.367188,-0.21875 0.742188,-0.32812 0.375,-0.10938 0.78125,-0.10938 0.71875,0 1.148437,0.38282 0.4375,0.375 0.4375,0.99218 0,0.29688 -0.140625,0.57032 -0.140625,0.26562 -0.492187,0.60156 l -0.34375,0.33594 q -0.179688,0.17968 -0.257813,0.28906 -0.07813,0.10156 -0.109375,0.20312 -0.02344,0.0781 -0.03906,0.19532 -0.0078,0.11718 -0.0078,0.32031 z"
           style="font-size:16px;line-height:1.25"
           id="path497" />
        <path
           d="m 54.11371,176.28021 h -0.784 l -3.712,9.504 -3.696,-9.504 h -1.408 l 4.368,11.2 h 0.864 z"
           style="font-size:16px;line-height:1.25"
           id="path499" />
        <path
           d="m 63.553686,187.48021 -4.064,-11.2 h -1.392 l -4.144,11.2 h 0.784 l 1.456,-3.92 h 4.544 l 1.424,3.92 z m -3.088,-4.656 h -4 l 2.016,-5.472 z"
           style="font-size:16px;line-height:1.25"
           id="path501" />
        <path
           d="m 71.713669,187.48021 v -0.736 h -5.088 v -10.464 h -1.312 v 11.2 z"
           style="font-size:16px;line-height:1.25"
           id="path503" />
        <path
           d="m 81.681629,184.34421 v -8.064 h -0.736 v 7.808 c 0,1.664 -1.472,2.912 -3.168,2.912 -1.712,0 -3.184,-1.248 -3.184,-2.912 v -7.808 h -1.312 v 8.064 c 0,2.032 2.016,3.392 4.208,3.392 2.176,0 4.192,-1.36 4.192,-3.392 z"
           style="font-size:16px;line-height:1.25"
           id="path505" />
        <path
           d="m 92.721628,187.48021 v -0.736 h -6.688 v -4.496 h 5.088 v -0.736 h -5.088 v -4.496 h 6.304 v -0.736 h -7.616 v 11.2 z"
           style="font-size:16px;line-height:1.25"
           id="path507" />
        <path
           d="m 101.68163,189.32021 v -0.8 h -8.000005 v 0.8 z"
           style="font-size:16px;line-height:1.25"
           id="path509" />
        <path
           d="m 115.04159,187.48021 -0.64,-11.2 h -1.056 l -4.496,9.456 -4.512,-9.456 h -1.056 l -0.64,11.2 h 0.736 l 0.512,-9.072 4.336,9.072 h 0.592 l 4.384,-9.184 0.528,9.184 z"
           style="font-size:16px;line-height:1.25"
           id="path511" />
        <path
           d="m 125.76157,187.48021 -4.064,-11.2 h -1.392 l -4.144,11.2 h 0.784 l 1.456,-3.92 h 4.544 l 1.424,3.92 z m -3.088,-4.656 h -4 l 2.016,-5.472 z"
           style="font-size:16px;line-height:1.25"
           id="path513" />
        <path
           d="m 135.80955,187.48021 -4.048,-6.08 3.664,-5.12 h -0.912 l -3.184,4.464 -2.976,-4.464 h -1.568 l 3.664,5.52 -4.048,5.68 h 0.912 l 3.584,-5.024 3.344,5.024 z"
           style="font-size:16px;line-height:1.25"
           id="path515" />
      </g>
    </g>
    <path
       id="path7016"
       d="M 659.05511,531.49604 V 343.70077 H 141.73228 l 1e-5,237.40157 h 92.12598"
       style="fill:none;stroke:#000000;stroke-width:1px;stroke-linecap:butt;stroke-linejoin:miter;stroke-opacity:1;marker-end:url(#Arrow1Mend)" />
    <g
       id="g7018"
       transform="rotate(90,306.51571,430.53145)">
      <path
         id="path7020"
         d="m 336.61417,336.61417 24.80315,17.71652 v 49.6063 l -24.80315,17.71653 z"
         style="fill:#f4d7d7;fill-opacity:1;stroke:#000000;stroke-width:1px;stroke-linecap:butt;stroke-linejoin:miter;stroke-opacity:1" />
      <g
         aria-label="1"
         transform="rotate(-90)"
         id="text7022"
         style="line-height:0%;font-family:Iwona;-inkscape-font-specification:Iwona;text-align:center;letter-spacing:0px;word-spacing:0px;text-anchor:middle">
        <path
           d="m -356.79399,350.78738 v -11.04 h -0.928 c -0.88,1.008 -1.92,1.872 -3.072,2.544 v 0.672 c 0.976,-0.464 1.888,-1.008 2.752,-1.664 v 9.488 z"
           style="font-size:16px;line-height:1.25"
           id="path518" />
      </g>
      <g
         aria-label="0"
         transform="rotate(-90)"
         id="text7026"
         style="line-height:0%;font-family:Iwona;-inkscape-font-specification:Iwona;text-align:center;letter-spacing:0px;word-spacing:0px;text-anchor:middle">
        <path
           d="m -396.92098,345.26738 c 0,-3.792 -1.168,-5.68 -3.504,-5.68 -2.336,0 -3.504,1.888 -3.504,5.68 0,3.792 1.168,5.68 3.504,5.68 2.336,0 3.504,-1.888 3.504,-5.68 z m -1.408,0 c 0,3.344 -0.704,5.008 -2.096,5.008 -1.392,0 -2.096,-1.664 -2.096,-5.008 0,-3.344 0.704,-5.008 2.096,-5.008 1.392,0 2.096,1.664 2.096,5.008 z"
           style="font-size:16px;line-height:1.25"
           id="path521" />
      </g>
    </g>
    <path
       style="fill:none;stroke:#000000;stroke-width:1px;stroke-linecap:butt;stroke-linejoin:miter;stroke-opacity:1;marker-end:url(#Arrow1Mend)"
       d="m 357.87401,485.43305 v 35.43307 h 17.71653"
       id="path7030" />
    <g
       transform="rotate(90,235.53716,359.23784)"
       id="g7032">
      <path
         style="fill:#f4d7d7;fill-opacity:1;stroke:#000000;stroke-width:1px;stroke-linecap:butt;stroke-linejoin:miter;stroke-opacity:1"
         d="m 336.61417,336.61417 24.80315,17.71652 v 49.6063 l -24.80315,17.71653 z"
         id="path7034" />
      <g
         aria-label="1"
         transform="rotate(-90)"
         id="text7036"
         style="line-height:0%;font-family:Iwona;-inkscape-font-specification:Iwona;text-align:center;letter-spacing:0px;word-spacing:0px;text-anchor:middle">
        <path
           d="m -356.79399,350.78738 v -11.04 h -0.928 c -0.88,1.008 -1.92,1.872 -3.072,2.544 v 0.672 c 0.976,-0.464 1.888,-1.008 2.752,-1.664 v 9.488 z"
           style="font-size:16px;line-height:1.25"
           id="path524" />
      </g>
      <g
         aria-label="0"
         transform="rotate(-90)"
         id="text7040"
         style="line-height:0%;font-family:Iwona;-inkscape-font-specification:Iwona;text-align:center;letter-spacing:0px;word-spacing:0px;text-anchor:middle">
        <path
           d="m -396.88167,345.26738 c 0,-3.792 -1.168,-5.68 -3.504,-5.68 -2.336,0 -3.504,1.888 -3.504,5.68 0,3.792 1.168,5.68 3.504,5.68 2.336,0 3.504,-1.888 3.504,-5.68 z m -1.408,0 c 0,3.344 -0.704,5.008 -2.096,5.008 -1.392,0 -2.096,-1.664 -2.096,-5.008 0,-3.344 0.704,-5.008 2.096,-5.008 1.392,0 2.096,1.664 2.096,5.008 z"
           style="font-size:16px;line-height:1.25"
           id="path527" />
      </g>
    </g>
    <path
       id="path7044"
       d="m 215.64119,485.118 v 56.69291 h 17.71652"
       style="fill:none;stroke:#000000;stroke-width:1px;stroke-linecap:butt;stroke-linejoin:miter;stroke-opacity:1;marker-end:url(#Arrow1Mend)" />
    <path
       style="fill:none;stroke:#000000;stroke-width:1px;stroke-linecap:butt;stroke-linejoin:miter;stroke-opacity:1;marker-end:url(#Arrow1Mend)"
       d="m 467.71654,435.82675 v 38.97638 l -77.99206,10e-6"
       id="path7046" />
    <path
       id="path7048"
       d="m 336.65348,432.28346 v 28.34646"
       style="fill:none;stroke:#000000;stroke-width:1px;stroke-linecap:butt;stroke-linejoin:miter;stroke-opacity:1;marker-end:url(#Arrow1Mend)" />
    <path
       style="fill:none;stroke:#000000;stroke-width:1px;stroke-linecap:butt;stroke-linejoin:miter;stroke-opacity:1;marker-end:url(#Arrow1Mend)"
       d="m 379.17316,432.28346 v 28.34646"
       id="path7050" />
    <g
       aria-label="0"
       id="text7052"
       style="line-height:0%;font-family:Iwona;-inkscape-font-specification:Iwona;text-align:center;letter-spacing:0px;word-spacing:0px;text-anchor:middle">
      <path
         d="m 382.64588,423.22017 c 0,-3.792 -1.168,-5.68 -3.504,-5.68 -2.336,0 -3.504,1.888 -3.504,5.68 0,3.792 1.168,5.68 3.504,5.68 2.336,0 3.504,-1.888 3.504,-5.68 z m -1.408,0 c 0,3.344 -0.704,5.008 -2.096,5.008 -1.392,0 -2.096,-1.664 -2.096,-5.008 0,-3.344 0.704,-5.008 2.096,-5.008 1.392,0 2.096,1.664 2.096,5.008 z"
         style="font-size:16px;line-height:1.25"
         id="path530" />
    </g>
    <path
       id="path7056"
       d="m 279.42072,431.9684 v 42.51968 h -31.88976"
       style="fill:none;stroke:#000000;stroke-width:1px;stroke-linecap:butt;stroke-linejoin:miter;stroke-opacity:1;marker-end:url(#Arrow1Mend)" />
    <path
       id="path7058"
       d="m 236.90103,431.9684 v 28.34646"
       style="fill:none;stroke:#000000;stroke-width:1px;stroke-linecap:butt;stroke-linejoin:miter;stroke-opacity:1;marker-end:url(#Arrow1Mend)" />
    <g
       aria-label="VALUE_MAX"
       transform="rotate(-90)"
       id="text7060"
       style="line-height:0%;font-family:Iwona;-inkscape-font-specification:Iwona;text-align:center;letter-spacing:0px;word-spacing:0px;text-anchor:middle">
      <path
         d="m -417.39009,232.88071 h -0.52945 l -2.50681,6.41829 -2.496,-6.41829 h -0.95086 l 2.94982,7.56364 h 0.58348 z"
         style="font-size:10.8052px;line-height:1.25"
         id="path533" />
      <path
         d="m -411.01503,240.44435 -2.74453,-7.56364 h -0.94005 l -2.79854,7.56364 h 0.52945 l 0.98327,-2.64727 h 3.06868 l 0.96166,2.64727 z m -2.08541,-3.14431 h -2.7013 l 1.36146,-3.69538 z"
         style="font-size:10.8052px;line-height:1.25"
         id="path535" />
      <path
         d="m -405.50439,240.44435 v -0.49704 h -3.43606 v -7.0666 h -0.88602 v 7.56364 z"
         style="font-size:10.8052px;line-height:1.25"
         id="path537" />
      <path
         d="m -398.77278,238.32653 v -5.44582 h -0.49704 v 5.27294 c 0,1.12374 -0.99408,1.96655 -2.13943,1.96655 -1.15616,0 -2.15024,-0.84281 -2.15024,-1.96655 v -5.27294 h -0.88602 v 5.44582 c 0,1.37226 1.36145,2.2907 2.84177,2.2907 1.4695,0 2.83096,-0.91844 2.83096,-2.2907 z"
         style="font-size:10.8052px;line-height:1.25"
         id="path539" />
      <path
         d="m -391.3172,240.44435 v -0.49704 h -4.51657 v -3.03626 h 3.43605 v -0.49704 h -3.43605 v -3.03626 h 4.25725 v -0.49704 h -5.14328 v 7.56364 z"
         style="font-size:10.8052px;line-height:1.25"
         id="path541" />
      <path
         d="m -385.26628,241.68695 v -0.54026 h -5.4026 v 0.54026 z"
         style="font-size:10.8052px;line-height:1.25"
         id="path543" />
      <path
         d="m -376.24396,240.44435 -0.43221,-7.56364 h -0.71314 l -3.03626,6.38587 -3.04707,-6.38587 h -0.71314 l -0.43221,7.56364 h 0.49704 l 0.34576,-6.12655 2.92821,6.12655 h 0.39979 l 2.96063,-6.20218 0.35657,6.20218 z"
         style="font-size:10.8052px;line-height:1.25"
         id="path545" />
      <path
         d="m -369.0045,240.44435 -2.74452,-7.56364 h -0.94005 l -2.79855,7.56364 h 0.52946 l 0.98327,-2.64727 h 3.06868 l 0.96166,2.64727 z m -2.0854,-3.14431 h -2.7013 l 1.36145,-3.69538 z"
         style="font-size:10.8052px;line-height:1.25"
         id="path547" />
      <path
         d="m -362.21884,240.44435 -2.73372,-4.10597 2.47439,-3.45767 h -0.61589 l -2.15024,3.01465 -2.00976,-3.01465 h -1.05891 l 2.47439,3.7278 -2.73372,3.83584 h 0.6159 l 2.42036,-3.39283 2.25829,3.39283 z"
         style="font-size:10.8052px;line-height:1.25"
         id="path549" />
    </g>
    <path
       style="fill:none;stroke:#000000;stroke-width:1px;stroke-linecap:butt;stroke-linejoin:miter;stroke-opacity:1;marker-end:url(#Arrow1Mend)"
       d="m 194.38135,431.96839 v 28.34646"
       id="path7064" />
    <path
       style="fill:none;stroke:#000000;stroke-width:1px;stroke-linecap:butt;stroke-linejoin:miter;stroke-opacity:1;marker-start:url(#DotM);marker-end:url(#Arrow1Mend)"
       d="m 194.38135,343.38572 v 60.23622"
       id="path7066" />
    <path
       id="path7258"
       d="m 279.42071,343.38572 1e-5,60.23622"
       style="fill:none;stroke:#000000;stroke-width:1px;stroke-linecap:butt;stroke-linejoin:miter;stroke-opacity:1;marker-start:url(#DotM);marker-end:url(#Arrow1Mend)" />
    <path
       style="fill:none;stroke:#000000;stroke-width:1px;stroke-linecap:butt;stroke-linejoin:miter;stroke-opacity:1;marker-start:url(#DotM);marker-end:url(#Arrow1Mend)"
       d="m 336.61417,343.70077 0.0393,60.23624"
       id="path7260" />
    <path
       id="path7262"
       d="m 467.71654,343.70077 v 56.69291"
       style="fill:none;stroke:#000000;stroke-width:1px;stroke-linecap:butt;stroke-linejoin:miter;stroke-opacity:1;marker-start:url(#DotM);marker-end:url(#Arrow1Mend)" />
    <g
       id="g3782"
       transform="matrix(1,0,0,-1,611.03798,827.35221)">
      <path
         id="path3488"
         d="M -366.54979,147.03727 V -33.67139 l 347.244098,-2e-6"
         style="fill:none;stroke:#000000;stroke-width:1px;stroke-linecap:butt;stroke-linejoin:miter;stroke-opacity:1;marker-start:url(#DotM-41)" />
      <path
         id="path3512"
         d="m -18.769466,-40.758007 v 35.4330704 h 3.543306 c 3.543308,0 24.266925,1.3e-6 24.266925,-17.7165334 0,-17.716536 -20.723617,-17.716537 -24.266925,-17.716537 0,0 -3.543306,0 -3.543306,0 z"
         style="fill:#f4d7d7;fill-opacity:1;fill-rule:evenodd;stroke:#000000;stroke-width:1px;stroke-linecap:butt;stroke-linejoin:miter;stroke-opacity:1" />
      <path
         style="fill:none;stroke:#000000;stroke-width:1px;stroke-linecap:butt;stroke-linejoin:miter;stroke-opacity:1;marker-start:none"
         d="M -150.40806,58.454595 V -12.411549 H -19.305692"
         id="path3780" />
    </g>
    <g
       transform="matrix(1,0,0,-1,607.49467,784.83252)"
       id="g9056">
      <path
         style="fill:none;stroke:#000000;stroke-width:1px;stroke-linecap:butt;stroke-linejoin:miter;stroke-opacity:1;marker-start:url(#DotM-41)"
         d="M -221.2742,104.51758 V -33.671395 c 0,0 186.04323,-2e-6 205.511815,3e-6"
         id="path9058" />
      <path
         style="fill:#f4d7d7;fill-opacity:1;fill-rule:evenodd;stroke:#000000;stroke-width:1px;stroke-linecap:butt;stroke-linejoin:miter;stroke-opacity:1"
         d="m -15.226159,-40.758008 v 35.4330708 h 3.543306 c 3.5433075,0 24.266925,1.3e-6 24.266925,-17.7165338 0,-17.716536 -20.7236175,-17.716537 -24.266925,-17.716537 0,0 -3.543306,0 -3.543306,0 z"
         id="path9062" />
      <path
         id="path9064"
         d="m -33.478922,15.934905 -3e-6,-28.34645 18.252764,-7e-6"
         style="fill:none;stroke:#000000;stroke-width:1px;stroke-linecap:butt;stroke-linejoin:miter;stroke-opacity:1;marker-start:none" />
    </g>
    <g
       transform="translate(672.19422,851.6753)"
       id="layer1-4">
      <g
         id="g3795"
         style="fill:#f4d7d7;fill-opacity:1">
        <path
           style="fill:none;stroke:#000000;stroke-width:1px;stroke-linecap:butt;stroke-linejoin:miter;stroke-opacity:1"
           d="m -52.11548,-43.801307 h 17.716536 v 10.629922 l 28.3464633,-9e-6"
           id="path3488-9" />
        <path
           style="fill:#f4d7d7;fill-opacity:1;stroke:#000000;stroke-width:1px;stroke-linecap:butt;stroke-linejoin:miter;stroke-opacity:1"
           d="m 18.750666,-22.541473 31.88976,5e-6"
           id="path3490-8" />
        <path
           style="fill:#f4d7d7;fill-opacity:1;fill-rule:evenodd;stroke:#000000;stroke-width:1px;stroke-linecap:butt;stroke-linejoin:miter;stroke-opacity:1"
           d="m -9.5957887,-40.258008 c 7.0866146,10.629922 7.0866146,24.80315 0,35.4330705 7.0866146,4e-7 24.8031497,-3.5433067 28.3464567,-17.7165345 -3.543307,-14.173229 -21.2598421,-17.716536 -28.3464567,-17.716536 z"
           id="path3512-3" />
        <path
           id="path3793"
           d="m -52.11548,-1.2816215 h 17.716536 V -11.911543 l 28.3464633,-8e-6"
           style="fill:none;stroke:#000000;stroke-width:1px;stroke-linecap:butt;stroke-linejoin:miter;stroke-opacity:1" />
      </g>
    </g>
    <g
       transform="translate(379.63439,574.33079)"
       id="g3907">
      <path
         id="rect3909"
         style="fill:#f4d7d7;stroke:#000000;stroke-width:0.999213;stroke-linecap:round"
         d="m 63.77953,166.53542 h 35.433071 v 28.34645 H 63.77953 Z" />
      <g
         aria-label="≟ 0"
         id="text3911"
         style="line-height:0%;font-family:Iwona;-inkscape-font-specification:Iwona;text-align:center;letter-spacing:0px;word-spacing:0px;text-anchor:middle">
        <path
           d="m 69.244751,180.21458 h 10.015625 v 1.3125 H 69.244751 Z m 0,3.1875 h 10.015625 v 1.32813 H 69.244751 Z m 4.40625,-4.67968 h 0.789062 v 0.99218 h -0.789062 z m 0.765625,-0.57032 h -0.742188 v -0.60937 q 0,-0.39063 0.109375,-0.64063 0.109375,-0.25781 0.460938,-0.59375 l 0.351562,-0.34375 q 0.21875,-0.21093 0.320313,-0.39062 0.101562,-0.1875 0.101562,-0.375 0,-0.35156 -0.257812,-0.5625 -0.257813,-0.21875 -0.679688,-0.21875 -0.304687,0 -0.65625,0.14062 -0.351562,0.13282 -0.726562,0.39063 v -0.73438 q 0.367187,-0.21875 0.742187,-0.32812 0.375,-0.10938 0.78125,-0.10938 0.71875,0 1.148438,0.38282 0.4375,0.375 0.4375,0.99218 0,0.29688 -0.140625,0.57032 -0.140625,0.26562 -0.492188,0.60156 l -0.34375,0.33594 q -0.179687,0.17968 -0.257812,0.28906 -0.07813,0.10156 -0.109375,0.20312 -0.02344,0.0781 -0.03906,0.19532 -0.0078,0.11718 -0.0078,0.32031 z"
           style="font-size:16px;line-height:1.25"
           id="path553" />
        <path
           d="m 93.753626,181.96021 c 0,-3.792 -1.168,-5.68 -3.504,-5.68 -2.336,0 -3.504,1.888 -3.504,5.68 0,3.792 1.168,5.68 3.504,5.68 2.336,0 3.504,-1.888 3.504,-5.68 z m -1.408,0 c 0,3.344 -0.704,5.008 -2.096,5.008 -1.392,0 -2.096,-1.664 -2.096,-5.008 0,-3.344 0.704,-5.008 2.096,-5.008 1.392,0 2.096,1.664 2.096,5.008 z"
           style="font-size:16px;line-height:1.25"
           id="path555" />
      </g>
    </g>
    <g
       id="g3915"
       transform="translate(531.9966,570.78748)">
      <path
         id="rect3917"
         style="fill:#f4d7d7;stroke:#000000;stroke-width:0.999213;stroke-linecap:round"
         d="M 17.716534,162.99211 H 145.27559 v 35.43307 H 17.716534 Z" />
      <g
         aria-label="≟ VALUE_MAX"
         id="text3919"
         style="line-height:0%;font-family:Iwona;-inkscape-font-specification:Iwona;text-align:center;letter-spacing:0px;word-spacing:0px;text-anchor:middle">
        <path
           d="M 27.396835,180.21458 H 37.41246 v 1.3125 H 27.396835 Z m 0,3.1875 H 37.41246 v 1.32813 H 27.396835 Z m 4.40625,-4.67968 h 0.789063 v 0.99218 h -0.789063 z m 0.765625,-0.57032 h -0.742187 v -0.60937 q 0,-0.39063 0.109375,-0.64063 0.109375,-0.25781 0.460937,-0.59375 l 0.351563,-0.34375 q 0.21875,-0.21093 0.320312,-0.39062 0.101563,-0.1875 0.101563,-0.375 0,-0.35156 -0.257813,-0.5625 -0.257812,-0.21875 -0.679687,-0.21875 -0.304688,0 -0.65625,0.14062 -0.351563,0.13282 -0.726563,0.39063 v -0.73438 q 0.367188,-0.21875 0.742188,-0.32812 0.375,-0.10938 0.78125,-0.10938 0.71875,0 1.148437,0.38282 0.4375,0.375 0.4375,0.99218 0,0.29688 -0.140625,0.57032 -0.140625,0.26562 -0.492187,0.60156 l -0.34375,0.33594 q -0.179688,0.17968 -0.257813,0.28906 -0.07813,0.10156 -0.109375,0.20312 -0.02344,0.0781 -0.03906,0.19532 -0.0078,0.11718 -0.0078,0.32031 z"
           style="font-size:16px;line-height:1.25"
           id="path559" />
        <path
           d="m 54.11371,176.28021 h -0.784 l -3.712,9.504 -3.696,-9.504 h -1.408 l 4.368,11.2 h 0.864 z"
           style="font-size:16px;line-height:1.25"
           id="path561" />
        <path
           d="m 63.553686,187.48021 -4.064,-11.2 h -1.392 l -4.144,11.2 h 0.784 l 1.456,-3.92 h 4.544 l 1.424,3.92 z m -3.088,-4.656 h -4 l 2.016,-5.472 z"
           style="font-size:16px;line-height:1.25"
           id="path563" />
        <path
           d="m 71.713669,187.48021 v -0.736 h -5.088 v -10.464 h -1.312 v 11.2 z"
           style="font-size:16px;line-height:1.25"
           id="path565" />
        <path
           d="m 81.681629,184.34421 v -8.064 h -0.736 v 7.808 c 0,1.664 -1.472,2.912 -3.168,2.912 -1.712,0 -3.184,-1.248 -3.184,-2.912 v -7.808 h -1.312 v 8.064 c 0,2.032 2.016,3.392 4.208,3.392 2.176,0 4.192,-1.36 4.192,-3.392 z"
           style="font-size:16px;line-height:1.25"
           id="path567" />
        <path
           d="m 92.721628,187.48021 v -0.736 h -6.688 v -4.496 h 5.088 v -0.736 h -5.088 v -4.496 h 6.304 v -0.736 h -7.616 v 11.2 z"
           style="font-size:16px;line-height:1.25"
           id="path569" />
        <path
           d="m 101.68163,189.32021 v -0.8 h -8.000005 v 0.8 z"
           style="font-size:16px;line-height:1.25"
           id="path571" />
        <path
           d="m 115.04159,187.48021 -0.64,-11.2 h -1.056 l -4.496,9.456 -4.512,-9.456 h -1.056 l -0.64,11.2 h 0.736 l 0.512,-9.072 4.336,9.072 h 0.592 l 4.384,-9.184 0.528,9.184 z"
           style="font-size:16px;line-height:1.25"
           id="path573" />
        <path
           d="m 125.76157,187.48021 -4.064,-11.2 h -1.392 l -4.144,11.2 h 0.784 l 1.456,-3.92 h 4.544 l 1.424,3.92 z m -3.088,-4.656 h -4 l 2.016,-5.472 z"
           style="font-size:16px;line-height:1.25"
           id="path575" />
        <path
           d="m 135.80955,187.48021 -4.048,-6.08 3.664,-5.12 h -0.912 l -3.184,4.464 -2.976,-4.464 h -1.568 l 3.664,5.52 -4.048,5.68 h 0.912 l 3.584,-5.024 3.344,5.024 z"
           style="font-size:16px;line-height:1.25"
           id="path577" />
      </g>
    </g>
    <path
       style="fill:none;stroke:#000000;stroke-width:1px;stroke-linecap:butt;stroke-linejoin:miter;stroke-opacity:1"
       d="m 524.40945,627.16533 7.08661,-7.08662 7.08662,7.08662"
       id="path5793" />
    <path
       style="fill:none;stroke:#000000;stroke-width:1px;stroke-linecap:butt;stroke-linejoin:miter;stroke-opacity:1;marker-end:url(#Arrow1Mend)"
       d="M 659.05512,545.66927 V 733.46454"
       id="path5803" />
    <path
       id="path5805"
       d="m 659.05512,715.74801 h -198.4252 v 24.80315"
       style="fill:none;stroke:#000000;stroke-width:1px;stroke-linecap:butt;stroke-linejoin:miter;stroke-opacity:1;marker-start:url(#DotM);marker-end:url(#Arrow1Mend)" />
    <path
       id="path5809"
       d="M 531.49606,662.5984 V 627.16533"
       style="fill:none;stroke:#000000;stroke-width:1px;stroke-linecap:butt;stroke-linejoin:miter;stroke-opacity:1;marker-end:url(#Arrow1Mend)" />
    <g
       aria-label="p_value_reg"
       id="text5831"
       style="line-height:0%;font-family:Iwona;-inkscape-font-specification:Iwona;letter-spacing:0px;word-spacing:0px">
      <path
         d="m 489.54969,373.67774 c 0,-3.22517 -1.21247,-5.69861 -4.14665,-5.69861 -1.23672,0 -2.37644,0.55773 -3.34642,1.33371 v -1.09122 h -1.89145 v 16.48959 h 1.89145 v -5.9896 c 0.94573,0.41224 1.96421,0.65473 2.98268,0.65473 3.03118,0 4.51039,-2.42494 4.51039,-5.6986 z m -2.13395,0 c 0,2.27944 -0.70323,4.68013 -2.69168,4.68013 -0.92148,0 -1.84296,-0.24249 -2.66744,-0.65473 v -7.37182 c 0.72749,-0.72748 1.62471,-1.33372 2.66744,-1.33372 2.20669,0 2.69168,2.13395 2.69168,4.68014 z"
         style="font-size:24.2494px;line-height:1.25"
         id="path580" />
      <path
         d="m 503.00806,381.92253 v -1.21247 h -12.1247 v 1.21247 z"
         style="font-size:24.2494px;line-height:1.25"
         id="path582" />
      <path
         d="m 512.63503,368.22162 h -1.09122 l -3.29792,9.06928 -3.20092,-9.06928 h -1.79446 l 3.83141,10.91223 h 1.57621 z"
         style="font-size:24.2494px;line-height:1.25"
         id="path584" />
      <path
         d="m 523.35325,379.13385 v -6.78983 c 0,-2.27945 -1.40646,-4.36489 -3.51616,-4.36489 -1.55196,0 -3.00692,0.53348 -4.31639,1.35796 v 0.75173 c 1.09122,-0.60623 2.30369,-0.99422 3.56466,-0.99422 1.50346,0 2.37644,1.60046 2.37644,3.24942 v 0.43649 c -0.94573,-0.41224 -1.9642,-0.65474 -2.98267,-0.65474 -2.59469,0 -4.51039,1.18822 -4.51039,3.63741 0,2.32795 1.69745,3.61316 4.14664,3.61316 1.23672,0 2.37645,-0.55773 3.34642,-1.33371 v 1.09122 z m -1.89145,-2.1097 c -0.72748,0.72748 -1.62471,1.33372 -2.66743,1.33372 -1.62471,0 -2.69169,-0.99423 -2.69169,-2.59469 0,-1.47921 1.21247,-2.61893 2.69169,-2.61893 0.92147,0 1.84295,0.24249 2.66743,0.65473 z"
         style="font-size:24.2494px;line-height:1.25"
         id="path586" />
      <path
         d="m 531.79202,378.28512 v -0.72748 c -0.46074,0.38799 -0.99422,0.70323 -1.60046,0.70323 -0.89723,0 -1.06697,-1.11547 -1.06697,-2.15819 v -13.94341 h -1.89146 v 13.94341 c 0,1.6247 0.63049,3.27366 2.0612,3.27366 0.92148,0 1.79446,-0.46073 2.49769,-1.09122 z"
         style="font-size:24.2494px;line-height:1.25"
         id="path588" />
      <path
         d="m 542.87395,379.13385 v -10.91223 h -1.89145 v 8.56004 c -0.82448,0.82448 -1.84295,1.47921 -2.98268,1.47921 -1.13972,0 -2.0127,-0.99422 -2.0127,-2.15819 v -7.88106 h -1.89145 v 7.88106 c 0,1.7702 1.35797,3.27366 3.10392,3.27366 1.45497,0 2.74019,-0.82448 3.78291,-1.84295 v 1.60046 z"
         style="font-size:24.2494px;line-height:1.25"
         id="path590" />
      <path
         d="m 555.5321,373.92023 v -0.24249 c 0,-3.41917 -1.8672,-5.69861 -4.68013,-5.69861 -2.83718,0 -4.70439,2.27944 -4.70439,5.69861 0,3.41916 1.86721,5.6986 4.70439,5.6986 1.21247,0 2.40069,-0.38799 3.39491,-1.09122 v -1.01847 c -1.13972,0.72748 -2.0612,0.99422 -3.39491,0.99422 -2.0612,0 -2.57044,-1.9642 -2.57044,-4.34064 z m -2.13395,-1.01848 h -5.11662 c 0,-1.93995 0.82448,-3.90415 2.57044,-3.90415 1.7217,0 2.54618,1.9642 2.54618,3.90415 z"
         style="font-size:24.2494px;line-height:1.25"
         id="path592" />
      <path
         d="m 568.86924,381.92253 v -1.21247 h -12.1247 v 1.21247 z"
         style="font-size:24.2494px;line-height:1.25"
         id="path594" />
      <path
         d="m 576.84725,369.72508 v -1.50346 c -0.26675,-0.097 -0.55774,-0.16975 -0.82448,-0.16975 -1.35797,0 -2.44919,0.94573 -3.32217,1.98846 v -1.81871 h -1.89145 v 10.91223 h 1.89145 v -8.07505 c 0.72748,-0.84873 1.64896,-1.57621 2.76443,-1.57621 0.46074,0 0.94573,0.097 1.38222,0.24249 z"
         style="font-size:24.2494px;line-height:1.25"
         id="path596" />
      <path
         d="m 588.05044,373.92023 v -0.24249 c 0,-3.41917 -1.8672,-5.69861 -4.68013,-5.69861 -2.83718,0 -4.70439,2.27944 -4.70439,5.69861 0,3.41916 1.86721,5.6986 4.70439,5.6986 1.21247,0 2.40069,-0.38799 3.39491,-1.09122 v -1.01847 c -1.13972,0.72748 -2.0612,0.99422 -3.39491,0.99422 -2.0612,0 -2.57044,-1.9642 -2.57044,-4.34064 z m -2.13395,-1.01848 h -5.11662 c 0,-1.93995 0.82448,-3.90415 2.57044,-3.90415 1.7217,0 2.54618,1.9642 2.54618,3.90415 z"
         style="font-size:24.2494px;line-height:1.25"
         id="path598" />
      <path
         d="m 599.98111,380.58881 v -12.36719 h -1.89145 v 0.41224 c -0.94573,-0.41224 -1.9642,-0.65473 -2.98268,-0.65473 -3.03117,0 -4.51038,2.42494 -4.51038,5.69861 0,3.22517 1.21247,5.6986 4.14664,5.6986 1.23672,0 2.37644,-0.55773 3.34642,-1.33371 v 2.54618 c 0,1.67321 -0.92148,3.24942 -2.42494,3.24942 -1.23672,0 -2.47344,-0.24249 -3.63741,-0.65473 v 0.75173 c 1.35797,0.63049 2.86143,1.01848 4.36489,1.01848 2.13395,0 3.58891,-2.08545 3.58891,-4.3649 z m -1.89145,-3.56466 c -0.72748,0.72748 -1.62471,1.33372 -2.66743,1.33372 -2.2067,0 -2.69169,-2.13395 -2.69169,-4.68013 0,-2.27945 0.70324,-4.68014 2.69169,-4.68014 0.92147,0 1.84295,0.2425 2.66743,0.65474 z"
         style="font-size:24.2494px;line-height:1.25"
         id="path600" />
    </g>
  </g>
</svg>
