<?xml version="1.0" encoding="UTF-8" standalone="no"?>
<!-- Created with Inkscape (http://www.inkscape.org/) -->

<svg
   width="61.340668mm"
   height="55.279999mm"
   id="svg2"
   version="1.0"
   viewBox="0 0 217.34885 195.87401"
   xmlns="http://www.w3.org/2000/svg"
   xmlns:svg="http://www.w3.org/2000/svg"
   xmlns:rdf="http://www.w3.org/1999/02/22-rdf-syntax-ns#"
   xmlns:cc="http://creativecommons.org/ns#"
   xmlns:dc="http://purl.org/dc/elements/1.1/">
  <defs
     id="defs4" />
  <metadata
     id="metadata7">
    <rdf:RDF>
      <cc:Work
         rdf:about="">
        <dc:format>image/svg+xml</dc:format>
        <dc:type
           rdf:resource="http://purl.org/dc/dcmitype/StillImage" />
        <dc:title />
      </cc:Work>
    </rdf:RDF>
  </metadata>
  <g
     id="layer1"
     transform="translate(-144.77558,57.188997)">
    <path
       id="rect2385"
       style="fill:#afdde9;stroke:#000000;stroke-width:0.992126"
       d="M 159.44882,-49.606319 H 343.70074 V 131.10234 H 159.44882 Z" />
    <path
       style="fill:#afdde9;fill-opacity:1;fill-rule:evenodd;stroke:#000000;stroke-width:1px;stroke-linecap:butt;stroke-linejoin:miter;stroke-opacity:1"
       d="m 152.36221,-17.716557 v 14.1732284 h 10.62992 l 7.08662,-7.0866154 -7.08662,-7.086613 z"
       id="path2387" />
    <path
       id="path2393"
       d="m 336.61415,24.803123 v 14.173229 h 10.62992 l 7.08662,-7.08662 -7.08662,-7.086609 z"
       style="fill:#afdde9;fill-opacity:1;fill-rule:evenodd;stroke:#000000;stroke-width:1px;stroke-linecap:butt;stroke-linejoin:miter;stroke-opacity:1" />
    <g
       aria-label="clk_i"
       id="text2395"
       style="font-style:italic;line-height:0%;font-family:Iwona;-inkscape-font-specification:'Sans Italic'">
      <path
         d="m 178.47004,-11.238637 v -0.504 c -0.384,-0.54 -1.008,-0.864 -1.68,-0.864 -1.5,0 -2.508,1.128 -2.508,2.8200005 0,1.692 1.008,2.82 2.508,2.82 0.624,0 1.212,-0.312 1.56,-0.828 v -0.504 c -0.408,0.612 -0.828,0.828 -1.56,0.828 -0.864,0 -1.452,-0.924 -1.452,-2.316 0,-1.3920005 0.588,-2.3160005 1.452,-2.3160005 0.744,0 1.248,0.264 1.68,0.864 z"
         style="font-style:normal;font-size:12px;line-height:1.25"
         id="path44" />
      <path
         d="m 181.98603,-7.5066365 v -0.36 c -0.228,0.192 -0.492,0.348 -0.792,0.348 -0.444,0 -0.528,-0.552 -0.528,-1.068 v -6.9000005 h -0.936 v 6.9000005 c 0,0.804 0.312,1.62 1.02,1.62 0.456,0 0.888,-0.228 1.236,-0.54 z"
         style="font-style:normal;font-size:12px;line-height:1.25"
         id="path47" />
      <path
         d="m 187.83001,-7.0866365 -2.784,-3.2040005 2.688,-2.196 h -0.744 l -2.868,2.352 v -5.352 h -0.936 v 8.4000005 h 0.936 v -2.9880005 l 2.592,2.9880005 z"
         style="font-style:normal;font-size:12px;line-height:1.25"
         id="path49" />
      <path
         d="m 193.95,-5.7066365 v -0.6 h -6 v 0.6 z"
         style="font-style:normal;font-size:12px;line-height:1.25"
         id="path51" />
      <path
         d="m 197.10597,-7.5066365 v -0.36 c -0.228,0.192 -0.492,0.348 -0.792,0.348 -0.444,0 -0.528,-0.552 -0.528,-1.068 v -3.9000005 h -0.936 v 3.9000005 c 0,0.804 0.312,1.62 1.02,1.62 0.456,0 0.888,-0.228 1.236,-0.54 z m -1.2,-6.8520005 c 0,-0.324 -0.264,-0.588 -0.588,-0.588 -0.324,0 -0.588,0.264 -0.588,0.588 0,0.324 0.264,0.588 0.588,0.588 0.324,0 0.588,-0.264 0.588,-0.588 z"
         style="font-style:normal;font-size:12px;line-height:1.25"
         id="path53" />
    </g>
    <g
       aria-label="SquashDisplay"
       id="text2411"
       style="font-style:italic;line-height:0%;font-family:Iwona;-inkscape-font-specification:'Sans Italic';text-align:center;text-anchor:middle">
      <path
         d="m 209.58289,-31.594479 c 0,-1.968 -2,-3.136 -4.064,-3.568 -1.376,-0.288 -2.928,-0.64 -2.928,-1.92 0,-1.264 1.36,-1.984 2.768,-1.984 1.296,0 2.56,0.384 3.584,1.184 v -0.64 c -1.024,-0.8 -2.288,-1.28 -3.584,-1.28 -2.08,0 -4.032,1.168 -4.032,3.056 0,1.808 1.952,2.72 3.856,3.12 1.52,0.32 3.136,0.944 3.136,2.368 0,1.456 -1.424,2.432 -2.96,2.432 -1.488,0 -2.96,-0.384 -4.208,-1.184 v 0.64 c 1.264,0.8 2.704,1.28 4.208,1.28 2.208,0 4.224,-1.424 4.224,-3.504 z"
         style="font-style:normal;font-size:16px;line-height:1.25"
         id="path56" />
      <path
         d="m 217.61488,-24.666479 v -10.88 h -1.248 v 0.272 c -0.624,-0.272 -1.296,-0.432 -1.968,-0.432 -2,0 -2.976,1.6 -2.976,3.76 0,2.128 0.8,3.76 2.736,3.76 0.816,0 1.568,-0.368 2.208,-0.88 v 4.4 z m -1.248,-5.072 c -0.48,0.48 -1.072,0.88 -1.76,0.88 -1.456,0 -1.776,-1.408 -1.776,-3.088 0,-1.504 0.464,-3.088 1.776,-3.088 0.608,0 1.216,0.16 1.76,0.432 z"
         style="font-style:normal;font-size:16px;line-height:1.25"
         id="path58" />
      <path
         d="m 225.88687,-28.346479 v -7.2 h -1.248 v 5.648 c -0.544,0.544 -1.216,0.976 -1.968,0.976 -0.752,0 -1.328,-0.656 -1.328,-1.424 v -5.2 h -1.248 v 5.2 c 0,1.168 0.896,2.16 2.048,2.16 0.96,0 1.808,-0.544 2.496,-1.216 v 1.056 z"
         style="font-style:normal;font-size:16px;line-height:1.25"
         id="path60" />
      <path
         d="m 234.07884,-28.346479 v -4.48 c 0,-1.504 -0.928,-2.88 -2.32,-2.88 -1.024,0 -1.984,0.352 -2.848,0.896 v 0.496 c 0.72,-0.4 1.52,-0.656 2.352,-0.656 0.992,0 1.568,1.056 1.568,2.144 v 0.288 c -0.624,-0.272 -1.296,-0.432 -1.968,-0.432 -1.712,0 -2.976,0.784 -2.976,2.4 0,1.536 1.12,2.384 2.736,2.384 0.816,0 1.568,-0.368 2.208,-0.88 v 0.72 z m -1.248,-1.392 c -0.48,0.48 -1.072,0.88 -1.76,0.88 -1.072,0 -1.776,-0.656 -1.776,-1.712 0,-0.976 0.8,-1.728 1.776,-1.728 0.608,0 1.216,0.16 1.76,0.432 z"
         style="font-style:normal;font-size:16px;line-height:1.25"
         id="path62" />
      <path
         d="m 241.50283,-30.394479 c 0,-1.264 -1.344,-1.92 -2.656,-2.24 -0.768,-0.192 -1.6,-0.512 -1.6,-1.264 0,-0.688 0.704,-1.136 1.472,-1.136 0.848,0 1.696,0.256 2.4,0.72 v -0.672 c -0.704,-0.464 -1.552,-0.72 -2.4,-0.72 -1.392,0 -2.672,0.848 -2.672,2.144 0,1.168 1.296,1.712 2.528,2.016 0.848,0.208 1.728,0.656 1.728,1.472 0,0.752 -0.768,1.216 -1.584,1.216 -0.992,0 -1.952,-0.24 -2.8,-0.72 v 0.672 c 0.848,0.48 1.808,0.72 2.8,0.72 1.44,0 2.784,-0.864 2.784,-2.208 z"
         style="font-style:normal;font-size:16px;line-height:1.25"
         id="path64" />
      <path
         d="m 249.29481,-28.346479 v -5.2 c 0,-1.168 -0.896,-2.16 -2.048,-2.16 -0.96,0 -1.808,0.544 -2.496,1.216 v -5.056 h -1.248 v 11.2 h 1.248 v -5.648 c 0.544,-0.544 1.216,-0.976 1.968,-0.976 0.752,0 1.328,0.656 1.328,1.424 v 5.2 z"
         style="font-style:normal;font-size:16px;line-height:1.25"
         id="path66" />
      <path
         d="m 261.50278,-33.946479 c 0,-3.424 -1.872,-5.76 -5.168,-5.76 -0.992,0 -1.984,0.048 -2.96,0.16 h -1.28 v 11.2 h 1.28 c 0.976,0.112 1.968,0.16 2.96,0.16 3.296,0 5.168,-2.336 5.168,-5.76 z m -1.568,0 c 0,2.544 -1.296,5.024 -3.6,5.024 -0.976,0 -1.952,-0.048 -2.928,-0.16 v -9.728 c 0.976,-0.112 1.952,-0.16 2.928,-0.16 2.304,0 3.6,2.48 3.6,5.024 z"
         style="font-style:normal;font-size:16px;line-height:1.25"
         id="path68" />
      <path
         d="m 266.67077,-28.906479 v -0.48 c -0.304,0.256 -0.656,0.464 -1.056,0.464 -0.592,0 -0.704,-0.736 -0.704,-1.424 v -5.2 h -1.248 v 5.2 c 0,1.072 0.416,2.16 1.36,2.16 0.608,0 1.184,-0.304 1.648,-0.72 z m -1.6,-9.136 c 0,-0.432 -0.352,-0.784 -0.784,-0.784 -0.432,0 -0.784,0.352 -0.784,0.784 0,0.432 0.352,0.784 0.784,0.784 0.432,0 0.784,-0.352 0.784,-0.784 z"
         style="font-style:normal;font-size:16px;line-height:1.25"
         id="path70" />
      <path
         d="m 273.13475,-30.394479 c 0,-1.264 -1.344,-1.92 -2.656,-2.24 -0.768,-0.192 -1.6,-0.512 -1.6,-1.264 0,-0.688 0.704,-1.136 1.472,-1.136 0.848,0 1.696,0.256 2.4,0.72 v -0.672 c -0.704,-0.464 -1.552,-0.72 -2.4,-0.72 -1.392,0 -2.672,0.848 -2.672,2.144 0,1.168 1.296,1.712 2.528,2.016 0.848,0.208 1.728,0.656 1.728,1.472 0,0.752 -0.768,1.216 -1.584,1.216 -0.992,0 -1.952,-0.24 -2.8,-0.72 v 0.672 c 0.848,0.48 1.808,0.72 2.8,0.72 1.44,0 2.784,-0.864 2.784,-2.208 z"
         style="font-style:normal;font-size:16px;line-height:1.25"
         id="path72" />
      <path
         d="m 281.24674,-31.946479 c 0,-2.128 -0.8,-3.76 -2.736,-3.76 -0.816,0 -1.568,0.368 -2.208,0.88 v -0.72 h -1.248 v 10.88 h 1.248 v -3.952 c 0.624,0.272 1.296,0.432 1.968,0.432 2,0 2.976,-1.6 2.976,-3.76 z m -1.408,0 c 0,1.504 -0.464,3.088 -1.776,3.088 -0.608,0 -1.216,-0.16 -1.76,-0.432 v -4.864 c 0.48,-0.48 1.072,-0.88 1.76,-0.88 1.456,0 1.776,1.408 1.776,3.088 z"
         style="font-style:normal;font-size:16px;line-height:1.25"
         id="path74" />
      <path
         d="m 286.41471,-28.906479 v -0.48 c -0.304,0.256 -0.656,0.464 -1.056,0.464 -0.592,0 -0.704,-0.736 -0.704,-1.424 v -9.2 h -1.248 v 9.2 c 0,1.072 0.416,2.16 1.36,2.16 0.608,0 1.184,-0.304 1.648,-0.72 z"
         style="font-style:normal;font-size:16px;line-height:1.25"
         id="path76" />
      <path
         d="m 293.64668,-28.346479 v -4.48 c 0,-1.504 -0.928,-2.88 -2.32,-2.88 -1.024,0 -1.984,0.352 -2.848,0.896 v 0.496 c 0.72,-0.4 1.52,-0.656 2.352,-0.656 0.992,0 1.568,1.056 1.568,2.144 v 0.288 c -0.624,-0.272 -1.296,-0.432 -1.968,-0.432 -1.712,0 -2.976,0.784 -2.976,2.4 0,1.536 1.12,2.384 2.736,2.384 0.816,0 1.568,-0.368 2.208,-0.88 v 0.72 z m -1.248,-1.392 c -0.48,0.48 -1.072,0.88 -1.76,0.88 -1.072,0 -1.776,-0.656 -1.776,-1.712 0,-0.976 0.8,-1.728 1.776,-1.728 0.608,0 1.216,0.16 1.76,0.432 z"
         style="font-style:normal;font-size:16px;line-height:1.25"
         id="path78" />
      <path
         d="m 301.91867,-27.386479 v -8.16 h -1.248 v 5.648 c -0.544,0.544 -1.216,0.976 -1.968,0.976 -0.752,0 -1.328,-0.656 -1.328,-1.424 v -5.2 h -1.248 v 5.2 c 0,1.168 0.896,2.16 2.048,2.16 0.96,0 1.808,-0.544 2.496,-1.216 v 2.016 c 0,1.072 -0.48,2.144 -1.44,2.144 -0.752,0 -1.472,-0.16 -2.16,-0.432 v 0.496 c 0.816,0.416 1.728,0.672 2.656,0.672 1.36,0 2.192,-1.408 2.192,-2.88 z"
         style="font-style:normal;font-size:16px;line-height:1.25"
         id="path80" />
    </g>
    <g
       aria-label="vga_rgb_o"
       id="text2419"
       style="font-style:italic;line-height:0%;font-family:Iwona;-inkscape-font-specification:'Sans Italic';text-align:end;text-anchor:end">
      <path
         d="m 285.86293,30.033044 h -0.54 l -1.632,4.488 -1.584,-4.488 h -0.888 l 1.896,5.4 h 0.78 z"
         style="font-style:normal;font-size:12px;line-height:1.25"
         id="path83" />
      <path
         d="m 291.28693,36.153044 v -6.12 h -0.936 v 0.204 c -0.468,-0.204 -0.972,-0.324 -1.476,-0.324 -1.5,0 -2.232,1.2 -2.232,2.82 0,1.596 0.6,2.82 2.052,2.82 0.612,0 1.176,-0.276 1.656,-0.66 v 1.26 c 0,0.828 -0.456,1.608 -1.2,1.608 -0.612,0 -1.224,-0.12 -1.8,-0.324 v 0.372 c 0.672,0.312 1.416,0.504 2.16,0.504 1.056,0 1.776,-1.032 1.776,-2.16 z m -0.936,-1.764 c -0.36,0.36 -0.804,0.66 -1.32,0.66 -1.092,0 -1.332,-1.056 -1.332,-2.316 0,-1.128 0.348,-2.316 1.332,-2.316 0.456,0 0.912,0.12 1.32,0.324 z"
         style="font-style:normal;font-size:12px;line-height:1.25"
         id="path85" />
      <path
         d="m 297.43092,35.433044 v -3.36 c 0,-1.128 -0.696,-2.16 -1.74,-2.16 -0.768,0 -1.488,0.264 -2.136,0.672 v 0.372 c 0.54,-0.3 1.14,-0.492 1.764,-0.492 0.744,0 1.176,0.792 1.176,1.608 v 0.216 c -0.468,-0.204 -0.972,-0.324 -1.476,-0.324 -1.284,0 -2.232,0.588 -2.232,1.8 0,1.152 0.84,1.788 2.052,1.788 0.612,0 1.176,-0.276 1.656,-0.66 v 0.54 z m -0.936,-1.044 c -0.36,0.36 -0.804,0.66 -1.32,0.66 -0.804,0 -1.332,-0.492 -1.332,-1.284 0,-0.732 0.6,-1.296 1.332,-1.296 0.456,0 0.912,0.12 1.32,0.324 z"
         style="font-style:normal;font-size:12px;line-height:1.25"
         id="path87" />
      <path
         d="m 304.39091,36.813044 v -0.6 h -6 v 0.6 z"
         style="font-style:normal;font-size:12px;line-height:1.25"
         id="path89" />
      <path
         d="m 308.33888,30.777044 v -0.744 c -0.132,-0.048 -0.276,-0.084 -0.408,-0.084 -0.672,0 -1.212,0.468 -1.644,0.984 v -0.9 h -0.936 v 5.4 h 0.936 v -3.996 c 0.36,-0.42 0.816,-0.78 1.368,-0.78 0.228,0 0.468,0.048 0.684,0.12 z"
         style="font-style:normal;font-size:12px;line-height:1.25"
         id="path91" />
      <path
         d="m 313.88287,36.153044 v -6.12 h -0.936 v 0.204 c -0.468,-0.204 -0.972,-0.324 -1.476,-0.324 -1.5,0 -2.232,1.2 -2.232,2.82 0,1.596 0.6,2.82 2.052,2.82 0.612,0 1.176,-0.276 1.656,-0.66 v 1.26 c 0,0.828 -0.456,1.608 -1.2,1.608 -0.612,0 -1.224,-0.12 -1.8,-0.324 v 0.372 c 0.672,0.312 1.416,0.504 2.16,0.504 1.056,0 1.776,-1.032 1.776,-2.16 z m -0.936,-1.764 c -0.36,0.36 -0.804,0.66 -1.32,0.66 -1.092,0 -1.332,-1.056 -1.332,-2.316 0,-1.128 0.348,-2.316 1.332,-2.316 0.456,0 0.912,0.12 1.32,0.324 z"
         style="font-style:normal;font-size:12px;line-height:1.25"
         id="path93" />
      <path
         d="m 320.44686,32.733044 c 0,-1.596 -0.6,-2.82 -2.052,-2.82 -0.612,0 -1.176,0.276 -1.656,0.66 v -3.54 h -0.936 v 8.4 h 0.936 v -0.276 c 0.456,0.24 0.96,0.396 1.476,0.396 1.5,0 2.232,-1.2 2.232,-2.82 z m -1.056,0 c 0,1.128 -0.348,2.316 -1.332,2.316 -0.468,0 -0.924,-0.156 -1.32,-0.396 v -3.576 c 0.36,-0.36 0.804,-0.66 1.32,-0.66 1.092,0 1.332,1.056 1.332,2.316 z"
         style="font-style:normal;font-size:12px;line-height:1.25"
         id="path95" />
      <path
         d="m 327.10686,36.813044 v -0.6 h -6 v 0.6 z"
         style="font-style:normal;font-size:12px;line-height:1.25"
         id="path97" />
      <path
         d="m 332.41083,32.733044 c 0,-1.836 -0.816,-2.82 -2.316,-2.82 -1.512,0 -2.328,0.984 -2.328,2.82 0,1.836 0.816,2.82 2.328,2.82 1.5,0 2.316,-0.984 2.316,-2.82 z m -1.056,0 c 0,1.5 -0.444,2.316 -1.26,2.316 -0.828,0 -1.272,-0.816 -1.272,-2.316 0,-1.5 0.444,-2.316 1.272,-2.316 0.816,0 1.26,0.816 1.26,2.316 z"
         style="font-style:normal;font-size:12px;line-height:1.25"
         id="path99" />
    </g>
    <path
       id="path3529"
       d="M 152.36221,3.5432732 V 17.716502 h 10.62992 l 7.08662,-7.086615 -7.08662,-7.0866138 z"
       style="fill:#afdde9;fill-opacity:1;fill-rule:evenodd;stroke:#000000;stroke-width:1px;stroke-linecap:butt;stroke-linejoin:miter;stroke-opacity:1" />
    <g
       aria-label="ball_x_i"
       id="text3531"
       style="font-style:italic;line-height:0%;font-family:Iwona;-inkscape-font-specification:'Sans Italic'">
      <path
         d="m 179.22604,10.74989 c 0,-1.5959999 -0.6,-2.8199999 -2.052,-2.8199999 -0.612,0 -1.176,0.276 -1.656,0.66 v -3.54 h -0.936 V 13.44989 h 0.936 v -0.276 c 0.456,0.24 0.96,0.396 1.476,0.396 1.5,0 2.232,-1.2 2.232,-2.82 z m -1.056,0 c 0,1.128 -0.348,2.316 -1.332,2.316 -0.468,0 -0.924,-0.156 -1.32,-0.396 V 9.0938901 c 0.36,-0.36 0.804,-0.66 1.32,-0.66 1.092,0 1.332,1.056 1.332,2.3159999 z"
         style="font-style:normal;font-size:12px;line-height:1.25"
         id="path102" />
      <path
         d="m 185.07003,13.44989 v -3.36 c 0,-1.1279999 -0.696,-2.1599999 -1.74,-2.1599999 -0.768,0 -1.488,0.264 -2.136,0.672 v 0.372 c 0.54,-0.3 1.14,-0.492 1.764,-0.492 0.744,0 1.176,0.792 1.176,1.6079999 v 0.216 c -0.468,-0.204 -0.972,-0.3239999 -1.476,-0.3239999 -1.284,0 -2.232,0.5879999 -2.232,1.7999999 0,1.152 0.84,1.788 2.052,1.788 0.612,0 1.176,-0.276 1.656,-0.66 v 0.54 z m -0.936,-1.044 c -0.36,0.36 -0.804,0.66 -1.32,0.66 -0.804,0 -1.332,-0.492 -1.332,-1.284 0,-0.732 0.6,-1.296 1.332,-1.296 0.456,0 0.912,0.12 1.32,0.324 z"
         style="font-style:normal;font-size:12px;line-height:1.25"
         id="path104" />
      <path
         d="m 189.24602,13.02989 v -0.36 c -0.228,0.192 -0.492,0.348 -0.792,0.348 -0.444,0 -0.528,-0.552 -0.528,-1.068 V 5.0498901 h -0.936 V 11.94989 c 0,0.804 0.312,1.62 1.02,1.62 0.456,0 0.888,-0.228 1.236,-0.54 z"
         style="font-style:normal;font-size:12px;line-height:1.25"
         id="path106" />
      <path
         d="m 192.702,13.02989 v -0.36 c -0.228,0.192 -0.492,0.348 -0.792,0.348 -0.444,0 -0.528,-0.552 -0.528,-1.068 V 5.0498901 h -0.936 V 11.94989 c 0,0.804 0.312,1.62 1.02,1.62 0.456,0 0.888,-0.228 1.236,-0.54 z"
         style="font-style:normal;font-size:12px;line-height:1.25"
         id="path108" />
      <path
         d="m 198.94198,14.82989 v -0.6 h -6 v 0.6 z"
         style="font-style:normal;font-size:12px;line-height:1.25"
         id="path110" />
      <path
         d="m 203.82596,13.44989 -1.884,-2.88 1.824,-2.5199999 h -0.624 l -1.488,2.0639999 -1.344,-2.0639999 h -1.008 l 1.788,2.7479999 -1.908,2.652 h 0.624 l 1.584,-2.196 1.428,2.196 z"
         style="font-style:normal;font-size:12px;line-height:1.25"
         id="path112" />
      <path
         d="m 210.06593,14.82989 v -0.6 h -6 v 0.6 z"
         style="font-style:normal;font-size:12px;line-height:1.25"
         id="path114" />
      <path
         d="m 213.22191,13.02989 v -0.36 c -0.228,0.192 -0.492,0.348 -0.792,0.348 -0.444,0 -0.528,-0.552 -0.528,-1.068 V 8.0498901 h -0.936 V 11.94989 c 0,0.804 0.312,1.62 1.02,1.62 0.456,0 0.888,-0.228 1.236,-0.54 z m -1.2,-6.8519999 c 0,-0.324 -0.264,-0.588 -0.588,-0.588 -0.324,0 -0.588,0.264 -0.588,0.588 0,0.324 0.264,0.588 0.588,0.588 0.324,0 0.588,-0.264 0.588,-0.588 z"
         style="font-style:normal;font-size:12px;line-height:1.25"
         id="path116" />
    </g>
    <path
       id="path3000"
       d="m 152.36219,24.803123 v 14.173229 h 10.62992 l 7.08662,-7.086616 -7.08662,-7.086613 z"
       style="fill:#afdde9;fill-opacity:1;fill-rule:evenodd;stroke:#000000;stroke-width:1px;stroke-linecap:butt;stroke-linejoin:miter;stroke-opacity:1" />
    <g
       aria-label="ball_y_i"
       id="text3002"
       style="font-style:italic;line-height:0%;font-family:Iwona;-inkscape-font-specification:'Sans Italic'">
      <path
         d="m 179.22601,32.733044 c 0,-1.596 -0.6,-2.82 -2.052,-2.82 -0.612,0 -1.176,0.276 -1.656,0.66 v -3.54 h -0.936 v 8.4 h 0.936 v -0.276 c 0.456,0.24 0.96,0.396 1.476,0.396 1.5,0 2.232,-1.2 2.232,-2.82 z m -1.056,0 c 0,1.128 -0.348,2.316 -1.332,2.316 -0.468,0 -0.924,-0.156 -1.32,-0.396 v -3.576 c 0.36,-0.36 0.804,-0.66 1.32,-0.66 1.092,0 1.332,1.056 1.332,2.316 z"
         style="font-style:normal;font-size:12px;line-height:1.25"
         id="path119" />
      <path
         d="m 185.07,35.433044 v -3.36 c 0,-1.128 -0.696,-2.16 -1.74,-2.16 -0.768,0 -1.488,0.264 -2.136,0.672 v 0.372 c 0.54,-0.3 1.14,-0.492 1.764,-0.492 0.744,0 1.176,0.792 1.176,1.608 v 0.216 c -0.468,-0.204 -0.972,-0.324 -1.476,-0.324 -1.284,0 -2.232,0.588 -2.232,1.8 0,1.152 0.84,1.788 2.052,1.788 0.612,0 1.176,-0.276 1.656,-0.66 v 0.54 z m -0.936,-1.044 c -0.36,0.36 -0.804,0.66 -1.32,0.66 -0.804,0 -1.332,-0.492 -1.332,-1.284 0,-0.732 0.6,-1.296 1.332,-1.296 0.456,0 0.912,0.12 1.32,0.324 z"
         style="font-style:normal;font-size:12px;line-height:1.25"
         id="path121" />
      <path
         d="m 189.24599,35.013044 v -0.36 c -0.228,0.192 -0.492,0.348 -0.792,0.348 -0.444,0 -0.528,-0.552 -0.528,-1.068 v -6.9 h -0.936 v 6.9 c 0,0.804 0.312,1.62 1.02,1.62 0.456,0 0.888,-0.228 1.236,-0.54 z"
         style="font-style:normal;font-size:12px;line-height:1.25"
         id="path123" />
      <path
         d="m 192.70197,35.013044 v -0.36 c -0.228,0.192 -0.492,0.348 -0.792,0.348 -0.444,0 -0.528,-0.552 -0.528,-1.068 v -6.9 h -0.936 v 6.9 c 0,0.804 0.312,1.62 1.02,1.62 0.456,0 0.888,-0.228 1.236,-0.54 z"
         style="font-style:normal;font-size:12px;line-height:1.25"
         id="path125" />
      <path
         d="m 198.94195,36.813044 v -0.6 h -6 v 0.6 z"
         style="font-style:normal;font-size:12px;line-height:1.25"
         id="path127" />
      <path
         d="m 204.18593,36.153044 v -6.12 h -0.936 v 4.236 c -0.408,0.408 -0.912,0.732 -1.476,0.732 -0.564,0 -0.996,-0.492 -0.996,-1.068 v -3.9 h -0.936 v 3.9 c 0,0.876 0.672,1.62 1.536,1.62 0.72,0 1.356,-0.408 1.872,-0.912 v 1.512 c 0,0.804 -0.36,1.608 -1.08,1.608 -0.564,0 -1.104,-0.12 -1.62,-0.324 v 0.372 c 0.612,0.312 1.296,0.504 1.992,0.504 1.02,0 1.644,-1.056 1.644,-2.16 z"
         style="font-style:normal;font-size:12px;line-height:1.25"
         id="path129" />
      <path
         d="m 211.1459,36.813044 v -0.6 h -6 v 0.6 z"
         style="font-style:normal;font-size:12px;line-height:1.25"
         id="path131" />
      <path
         d="m 214.30188,35.013044 v -0.36 c -0.228,0.192 -0.492,0.348 -0.792,0.348 -0.444,0 -0.528,-0.552 -0.528,-1.068 v -3.9 h -0.936 v 3.9 c 0,0.804 0.312,1.62 1.02,1.62 0.456,0 0.888,-0.228 1.236,-0.54 z m -1.2,-6.852 c 0,-0.324 -0.264,-0.588 -0.588,-0.588 -0.324,0 -0.588,0.264 -0.588,0.588 0,0.324 0.264,0.588 0.588,0.588 0.324,0 0.588,-0.264 0.588,-0.588 z"
         style="font-style:normal;font-size:12px;line-height:1.25"
         id="path133" />
    </g>
    <path
       style="fill:#afdde9;fill-opacity:1;fill-rule:evenodd;stroke:#000000;stroke-width:1px;stroke-linecap:butt;stroke-linejoin:miter;stroke-opacity:1"
       d="m 152.36219,46.062966 v 14.173229 h 10.62992 l 7.08662,-7.086616 -7.08662,-7.086613 z"
       id="path173" />
    <g
       aria-label="paddle_x_i"
       id="text177"
       style="font-style:italic;line-height:0%;font-family:Iwona;-inkscape-font-specification:'Sans Italic'">
      <path
         d="m 179.16601,53.992886 c 0,-1.596 -0.6,-2.82 -2.052,-2.82 -0.612,0 -1.176,0.276 -1.656,0.66 v -0.54 h -0.936 v 8.16 h 0.936 v -2.964 c 0.468,0.204 0.972,0.324 1.476,0.324 1.5,0 2.232,-1.2 2.232,-2.82 z m -1.056,0 c 0,1.128 -0.348,2.316 -1.332,2.316 -0.456,0 -0.912,-0.12 -1.32,-0.324 v -3.648 c 0.36,-0.36 0.804,-0.66 1.32,-0.66 1.092,0 1.332,1.056 1.332,2.316 z"
         style="font-style:normal;font-size:12px;line-height:1.25"
         id="path136" />
      <path
         d="m 185.00999,56.692886 v -3.36 c 0,-1.128 -0.696,-2.16 -1.74,-2.16 -0.768,0 -1.488,0.264 -2.136,0.672 v 0.372 c 0.54,-0.3 1.14,-0.492 1.764,-0.492 0.744,0 1.176,0.792 1.176,1.608 v 0.216 c -0.468,-0.204 -0.972,-0.324 -1.476,-0.324 -1.284,0 -2.232,0.588 -2.232,1.8 0,1.152 0.84,1.788 2.052,1.788 0.612,0 1.176,-0.276 1.656,-0.66 v 0.54 z m -0.936,-1.044 c -0.36,0.36 -0.804,0.66 -1.32,0.66 -0.804,0 -1.332,-0.492 -1.332,-1.284 0,-0.732 0.6,-1.296 1.332,-1.296 0.456,0 0.912,0.12 1.32,0.324 z"
         style="font-style:normal;font-size:12px;line-height:1.25"
         id="path138" />
      <path
         d="m 191.27398,56.692886 v -8.4 h -0.936 v 3.204 c -0.468,-0.204 -0.972,-0.324 -1.476,-0.324 -1.5,0 -2.232,1.2 -2.232,2.82 0,1.596 0.6,2.82 2.052,2.82 0.612,0 1.176,-0.276 1.656,-0.66 v 0.54 z m -0.936,-1.044 c -0.36,0.36 -0.804,0.66 -1.32,0.66 -1.092,0 -1.332,-1.056 -1.332,-2.316 0,-1.128 0.348,-2.316 1.332,-2.316 0.456,0 0.912,0.12 1.32,0.324 z"
         style="font-style:normal;font-size:12px;line-height:1.25"
         id="path140" />
      <path
         d="m 197.53797,56.692886 v -8.4 h -0.936 v 3.204 c -0.468,-0.204 -0.972,-0.324 -1.476,-0.324 -1.5,0 -2.232,1.2 -2.232,2.82 0,1.596 0.6,2.82 2.052,2.82 0.612,0 1.176,-0.276 1.656,-0.66 v 0.54 z m -0.936,-1.044 c -0.36,0.36 -0.804,0.66 -1.32,0.66 -1.092,0 -1.332,-1.056 -1.332,-2.316 0,-1.128 0.348,-2.316 1.332,-2.316 0.456,0 0.912,0.12 1.32,0.324 z"
         style="font-style:normal;font-size:12px;line-height:1.25"
         id="path142" />
      <path
         d="m 201.71396,56.272886 v -0.36 c -0.228,0.192 -0.492,0.348 -0.792,0.348 -0.444,0 -0.528,-0.552 -0.528,-1.068 v -6.9 h -0.936 v 6.9 c 0,0.804 0.312,1.62 1.02,1.62 0.456,0 0.888,-0.228 1.236,-0.54 z"
         style="font-style:normal;font-size:12px;line-height:1.25"
         id="path144" />
      <path
         d="m 207.25794,54.112886 v -0.12 c 0,-1.692 -0.924,-2.82 -2.316,-2.82 -1.404,0 -2.328,1.128 -2.328,2.82 0,1.692 0.924,2.82 2.328,2.82 0.6,0 1.188,-0.192 1.68,-0.54 v -0.504 c -0.564,0.36 -1.02,0.492 -1.68,0.492 -1.02,0 -1.272,-0.972 -1.272,-2.148 z m -1.056,-0.504 h -2.532 c 0,-0.96 0.408,-1.932 1.272,-1.932 0.852,0 1.26,0.972 1.26,1.932 z"
         style="font-style:normal;font-size:12px;line-height:1.25"
         id="path146" />
      <path
         d="m 213.85793,58.072886 v -0.6 h -6 v 0.6 z"
         style="font-style:normal;font-size:12px;line-height:1.25"
         id="path148" />
      <path
         d="m 218.7419,56.692886 -1.884,-2.88 1.824,-2.52 h -0.624 l -1.488,2.064 -1.344,-2.064 h -1.008 l 1.788,2.748 -1.908,2.652 h 0.624 l 1.584,-2.196 1.428,2.196 z"
         style="font-style:normal;font-size:12px;line-height:1.25"
         id="path150" />
      <path
         d="m 224.98188,58.072886 v -0.6 h -6 v 0.6 z"
         style="font-style:normal;font-size:12px;line-height:1.25"
         id="path152" />
      <path
         d="m 228.13786,56.272886 v -0.36 c -0.228,0.192 -0.492,0.348 -0.792,0.348 -0.444,0 -0.528,-0.552 -0.528,-1.068 v -3.9 h -0.936 v 3.9 c 0,0.804 0.312,1.62 1.02,1.62 0.456,0 0.888,-0.228 1.236,-0.54 z m -1.2,-6.852 c 0,-0.324 -0.264,-0.588 -0.588,-0.588 -0.324,0 -0.588,0.264 -0.588,0.588 0,0.324 0.264,0.588 0.588,0.588 0.324,0 0.588,-0.264 0.588,-0.588 z"
         style="font-style:normal;font-size:12px;line-height:1.25"
         id="path154" />
    </g>
    <path
       id="path179"
       d="m 152.36219,67.322809 v 14.173226 h 10.62992 l 7.08662,-7.086613 -7.08662,-7.086613 z"
       style="fill:#afdde9;fill-opacity:1;fill-rule:evenodd;stroke:#000000;stroke-width:1px;stroke-linecap:butt;stroke-linejoin:miter;stroke-opacity:1" />
    <g
       aria-label="paddle_y_i"
       id="text183"
       style="font-style:italic;line-height:0%;font-family:Iwona;-inkscape-font-specification:'Sans Italic'">
      <path
         d="m 179.16601,75.252728 c 0,-1.596 -0.6,-2.82 -2.052,-2.82 -0.612,0 -1.176,0.276 -1.656,0.66 v -0.54 h -0.936 v 8.16 h 0.936 v -2.964 c 0.468,0.204 0.972,0.324 1.476,0.324 1.5,0 2.232,-1.2 2.232,-2.82 z m -1.056,0 c 0,1.128 -0.348,2.316 -1.332,2.316 -0.456,0 -0.912,-0.12 -1.32,-0.324 v -3.648 c 0.36,-0.36 0.804,-0.66 1.32,-0.66 1.092,0 1.332,1.056 1.332,2.316 z"
         style="font-style:normal;font-size:12px;line-height:1.25"
         id="path157" />
      <path
         d="m 185.00999,77.952728 v -3.36 c 0,-1.128 -0.696,-2.16 -1.74,-2.16 -0.768,0 -1.488,0.264 -2.136,0.672 v 0.372 c 0.54,-0.3 1.14,-0.492 1.764,-0.492 0.744,0 1.176,0.792 1.176,1.608 v 0.216 c -0.468,-0.204 -0.972,-0.324 -1.476,-0.324 -1.284,0 -2.232,0.588 -2.232,1.8 0,1.152 0.84,1.788 2.052,1.788 0.612,0 1.176,-0.276 1.656,-0.66 v 0.54 z m -0.936,-1.044 c -0.36,0.36 -0.804,0.66 -1.32,0.66 -0.804,0 -1.332,-0.492 -1.332,-1.284 0,-0.732 0.6,-1.296 1.332,-1.296 0.456,0 0.912,0.12 1.32,0.324 z"
         style="font-style:normal;font-size:12px;line-height:1.25"
         id="path159" />
      <path
         d="m 191.27398,77.952728 v -8.4 h -0.936 v 3.204 c -0.468,-0.204 -0.972,-0.324 -1.476,-0.324 -1.5,0 -2.232,1.2 -2.232,2.82 0,1.596 0.6,2.82 2.052,2.82 0.612,0 1.176,-0.276 1.656,-0.66 v 0.54 z m -0.936,-1.044 c -0.36,0.36 -0.804,0.66 -1.32,0.66 -1.092,0 -1.332,-1.056 -1.332,-2.316 0,-1.128 0.348,-2.316 1.332,-2.316 0.456,0 0.912,0.12 1.32,0.324 z"
         style="font-style:normal;font-size:12px;line-height:1.25"
         id="path161" />
      <path
         d="m 197.53797,77.952728 v -8.4 h -0.936 v 3.204 c -0.468,-0.204 -0.972,-0.324 -1.476,-0.324 -1.5,0 -2.232,1.2 -2.232,2.82 0,1.596 0.6,2.82 2.052,2.82 0.612,0 1.176,-0.276 1.656,-0.66 v 0.54 z m -0.936,-1.044 c -0.36,0.36 -0.804,0.66 -1.32,0.66 -1.092,0 -1.332,-1.056 -1.332,-2.316 0,-1.128 0.348,-2.316 1.332,-2.316 0.456,0 0.912,0.12 1.32,0.324 z"
         style="font-style:normal;font-size:12px;line-height:1.25"
         id="path163" />
      <path
         d="m 201.71396,77.532728 v -0.36 c -0.228,0.192 -0.492,0.348 -0.792,0.348 -0.444,0 -0.528,-0.552 -0.528,-1.068 v -6.9 h -0.936 v 6.9 c 0,0.804 0.312,1.62 1.02,1.62 0.456,0 0.888,-0.228 1.236,-0.54 z"
         style="font-style:normal;font-size:12px;line-height:1.25"
         id="path165" />
      <path
         d="m 207.25794,75.372728 v -0.12 c 0,-1.692 -0.924,-2.82 -2.316,-2.82 -1.404,0 -2.328,1.128 -2.328,2.82 0,1.692 0.924,2.82 2.328,2.82 0.6,0 1.188,-0.192 1.68,-0.54 v -0.504 c -0.564,0.36 -1.02,0.492 -1.68,0.492 -1.02,0 -1.272,-0.972 -1.272,-2.148 z m -1.056,-0.504 h -2.532 c 0,-0.96 0.408,-1.932 1.272,-1.932 0.852,0 1.26,0.972 1.26,1.932 z"
         style="font-style:normal;font-size:12px;line-height:1.25"
         id="path167" />
      <path
         d="m 213.85793,79.332728 v -0.6 h -6 v 0.6 z"
         style="font-style:normal;font-size:12px;line-height:1.25"
         id="path169" />
      <path
         d="m 219.1019,78.672728 v -6.12 h -0.936 v 4.236 c -0.408,0.408 -0.912,0.732 -1.476,0.732 -0.564,0 -0.996,-0.492 -0.996,-1.068 v -3.9 h -0.936 v 3.9 c 0,0.876 0.672,1.62 1.536,1.62 0.72,0 1.356,-0.408 1.872,-0.912 v 1.512 c 0,0.804 -0.36,1.608 -1.08,1.608 -0.564,0 -1.104,-0.12 -1.62,-0.324 v 0.372 c 0.612,0.312 1.296,0.504 1.992,0.504 1.02,0 1.644,-1.056 1.644,-2.16 z"
         style="font-style:normal;font-size:12px;line-height:1.25"
         id="path171" />
      <path
         d="m 226.06188,79.332728 v -0.6 h -6 v 0.6 z"
         style="font-style:normal;font-size:12px;line-height:1.25"
         id="path174" />
      <path
         d="m 229.21786,77.532728 v -0.36 c -0.228,0.192 -0.492,0.348 -0.792,0.348 -0.444,0 -0.528,-0.552 -0.528,-1.068 v -3.9 h -0.936 v 3.9 c 0,0.804 0.312,1.62 1.02,1.62 0.456,0 0.888,-0.228 1.236,-0.54 z m -1.2,-6.852 c 0,-0.324 -0.264,-0.588 -0.588,-0.588 -0.324,0 -0.588,0.264 -0.588,0.588 0,0.324 0.264,0.588 0.588,0.588 0.324,0 0.588,-0.264 0.588,-0.588 z"
         style="font-style:normal;font-size:12px;line-height:1.25"
         id="path176" />
    </g>
    <path
       style="fill:#afdde9;fill-opacity:1;fill-rule:evenodd;stroke:#000000;stroke-width:1px;stroke-linecap:butt;stroke-linejoin:miter;stroke-opacity:1"
       d="m 336.61415,46.062958 v 14.173229 h 10.62992 l 7.08662,-7.08662 -7.08662,-7.086609 z"
       id="path185" />
    <g
       aria-label="vga_hsync_n_o"
       id="text189"
       style="font-style:italic;line-height:0%;font-family:Iwona;-inkscape-font-specification:'Sans Italic';text-align:end;text-anchor:end">
      <path
         d="m 261.46703,51.292879 h -0.54 l -1.632,4.488 -1.584,-4.488 h -0.888 l 1.896,5.4 h 0.78 z"
         style="font-style:normal;font-size:12px;line-height:1.25"
         id="path180" />
      <path
         d="m 266.89103,57.412879 v -6.12 h -0.936 v 0.204 c -0.468,-0.204 -0.972,-0.324 -1.476,-0.324 -1.5,0 -2.232,1.2 -2.232,2.82 0,1.596 0.6,2.82 2.052,2.82 0.612,0 1.176,-0.276 1.656,-0.66 v 1.26 c 0,0.828 -0.456,1.608 -1.2,1.608 -0.612,0 -1.224,-0.12 -1.8,-0.324 v 0.372 c 0.672,0.312 1.416,0.504 2.16,0.504 1.056,0 1.776,-1.032 1.776,-2.16 z m -0.936,-1.764 c -0.36,0.36 -0.804,0.66 -1.32,0.66 -1.092,0 -1.332,-1.056 -1.332,-2.316 0,-1.128 0.348,-2.316 1.332,-2.316 0.456,0 0.912,0.12 1.32,0.324 z"
         style="font-style:normal;font-size:12px;line-height:1.25"
         id="path182" />
      <path
         d="m 273.03502,56.692879 v -3.36 c 0,-1.128 -0.696,-2.16 -1.74,-2.16 -0.768,0 -1.488,0.264 -2.136,0.672 v 0.372 c 0.54,-0.3 1.14,-0.492 1.764,-0.492 0.744,0 1.176,0.792 1.176,1.608 v 0.216 c -0.468,-0.204 -0.972,-0.324 -1.476,-0.324 -1.284,0 -2.232,0.588 -2.232,1.8 0,1.152 0.84,1.788 2.052,1.788 0.612,0 1.176,-0.276 1.656,-0.66 v 0.54 z m -0.936,-1.044 c -0.36,0.36 -0.804,0.66 -1.32,0.66 -0.804,0 -1.332,-0.492 -1.332,-1.284 0,-0.732 0.6,-1.296 1.332,-1.296 0.456,0 0.912,0.12 1.32,0.324 z"
         style="font-style:normal;font-size:12px;line-height:1.25"
         id="path184" />
      <path
         d="m 279.99501,58.072879 v -0.6 h -6 v 0.6 z"
         style="font-style:normal;font-size:12px;line-height:1.25"
         id="path186" />
      <path
         d="m 285.29899,56.692879 v -3.9 c 0,-0.876 -0.672,-1.62 -1.536,-1.62 -0.72,0 -1.356,0.408 -1.872,0.912 v -3.792 h -0.936 v 8.4 h 0.936 v -4.236 c 0.408,-0.408 0.912,-0.732 1.476,-0.732 0.564,0 0.996,0.492 0.996,1.068 v 3.9 z"
         style="font-style:normal;font-size:12px;line-height:1.25"
         id="path188" />
      <path
         d="m 290.80697,55.156879 c 0,-0.948 -1.008,-1.44 -1.992,-1.68 -0.576,-0.144 -1.2,-0.384 -1.2,-0.948 0,-0.516 0.528,-0.852 1.104,-0.852 0.636,0 1.272,0.192 1.8,0.54 v -0.504 c -0.528,-0.348 -1.164,-0.54 -1.8,-0.54 -1.044,0 -2.004,0.636 -2.004,1.608 0,0.876 0.972,1.284 1.896,1.512 0.636,0.156 1.296,0.492 1.296,1.104 0,0.564 -0.576,0.912 -1.188,0.912 -0.744,0 -1.464,-0.18 -2.1,-0.54 v 0.504 c 0.636,0.36 1.356,0.54 2.1,0.54 1.08,0 2.088,-0.648 2.088,-1.656 z"
         style="font-style:normal;font-size:12px;line-height:1.25"
         id="path190" />
      <path
         d="m 296.59095,57.412879 v -6.12 h -0.936 v 4.236 c -0.408,0.408 -0.912,0.732 -1.476,0.732 -0.564,0 -0.996,-0.492 -0.996,-1.068 v -3.9 h -0.936 v 3.9 c 0,0.876 0.672,1.62 1.536,1.62 0.72,0 1.356,-0.408 1.872,-0.912 v 1.512 c 0,0.804 -0.36,1.608 -1.08,1.608 -0.564,0 -1.104,-0.12 -1.62,-0.324 v 0.372 c 0.612,0.312 1.296,0.504 1.992,0.504 1.02,0 1.644,-1.056 1.644,-2.16 z"
         style="font-style:normal;font-size:12px;line-height:1.25"
         id="path192" />
      <path
         d="m 302.85493,56.692879 v -3.9 c 0,-0.876 -0.672,-1.62 -1.536,-1.62 -0.72,0 -1.356,0.408 -1.872,0.912 v -0.792 h -0.936 v 5.4 h 0.936 v -4.236 c 0.408,-0.408 0.912,-0.732 1.476,-0.732 0.564,0 0.996,0.492 0.996,1.068 v 3.9 z"
         style="font-style:normal;font-size:12px;line-height:1.25"
         id="path194" />
      <path
         d="m 308.60291,52.540879 v -0.504 c -0.384,-0.54 -1.008,-0.864 -1.68,-0.864 -1.5,0 -2.508,1.128 -2.508,2.82 0,1.692 1.008,2.82 2.508,2.82 0.624,0 1.212,-0.312 1.56,-0.828 v -0.504 c -0.408,0.612 -0.828,0.828 -1.56,0.828 -0.864,0 -1.452,-0.924 -1.452,-2.316 0,-1.392 0.588,-2.316 1.452,-2.316 0.744,0 1.248,0.264 1.68,0.864 z"
         style="font-style:normal;font-size:12px;line-height:1.25"
         id="path196" />
      <path
         d="m 314.9029,58.072879 v -0.6 h -6 v 0.6 z"
         style="font-style:normal;font-size:12px;line-height:1.25"
         id="path198" />
      <path
         d="m 320.20688,56.692879 v -3.9 c 0,-0.876 -0.672,-1.62 -1.536,-1.62 -0.72,0 -1.356,0.408 -1.872,0.912 v -0.792 h -0.936 v 5.4 h 0.936 v -4.236 c 0.408,-0.408 0.912,-0.732 1.476,-0.732 0.564,0 0.996,0.492 0.996,1.068 v 3.9 z"
         style="font-style:normal;font-size:12px;line-height:1.25"
         id="path200" />
      <path
         d="m 327.10686,58.072879 v -0.6 h -6 v 0.6 z"
         style="font-style:normal;font-size:12px;line-height:1.25"
         id="path202" />
      <path
         d="m 332.41083,53.992879 c 0,-1.836 -0.816,-2.82 -2.316,-2.82 -1.512,0 -2.328,0.984 -2.328,2.82 0,1.836 0.816,2.82 2.328,2.82 1.5,0 2.316,-0.984 2.316,-2.82 z m -1.056,0 c 0,1.5 -0.444,2.316 -1.26,2.316 -0.828,0 -1.272,-0.816 -1.272,-2.316 0,-1.5 0.444,-2.316 1.272,-2.316 0.816,0 1.26,0.816 1.26,2.316 z"
         style="font-style:normal;font-size:12px;line-height:1.25"
         id="path204" />
    </g>
    <path
       id="path191"
       d="m 336.61415,67.3228 v 14.173229 h 10.62992 l 7.08662,-7.08662 -7.08662,-7.086609 z"
       style="fill:#afdde9;fill-opacity:1;fill-rule:evenodd;stroke:#000000;stroke-width:1px;stroke-linecap:butt;stroke-linejoin:miter;stroke-opacity:1" />
    <g
       aria-label="vga_vsync_n_o"
       id="text195"
       style="font-style:italic;line-height:0%;font-family:Iwona;-inkscape-font-specification:'Sans Italic';text-align:end;text-anchor:end">
      <path
         d="m 262.78702,72.552721 h -0.54 l -1.632,4.488 -1.584,-4.488 h -0.888 l 1.896,5.4 h 0.78 z"
         style="font-style:normal;font-size:12px;line-height:1.25"
         id="path207" />
      <path
         d="m 268.21101,78.672721 v -6.12 h -0.936 v 0.204 c -0.468,-0.204 -0.972,-0.324 -1.476,-0.324 -1.5,0 -2.232,1.2 -2.232,2.82 0,1.596 0.6,2.82 2.052,2.82 0.612,0 1.176,-0.276 1.656,-0.66 v 1.26 c 0,0.828 -0.456,1.608 -1.2,1.608 -0.612,0 -1.224,-0.12 -1.8,-0.324 v 0.372 c 0.672,0.312 1.416,0.504 2.16,0.504 1.056,0 1.776,-1.032 1.776,-2.16 z m -0.936,-1.764 c -0.36,0.36 -0.804,0.66 -1.32,0.66 -1.092,0 -1.332,-1.056 -1.332,-2.316 0,-1.128 0.348,-2.316 1.332,-2.316 0.456,0 0.912,0.12 1.32,0.324 z"
         style="font-style:normal;font-size:12px;line-height:1.25"
         id="path209" />
      <path
         d="m 274.35501,77.952721 v -3.36 c 0,-1.128 -0.696,-2.16 -1.74,-2.16 -0.768,0 -1.488,0.264 -2.136,0.672 v 0.372 c 0.54,-0.3 1.14,-0.492 1.764,-0.492 0.744,0 1.176,0.792 1.176,1.608 v 0.216 c -0.468,-0.204 -0.972,-0.324 -1.476,-0.324 -1.284,0 -2.232,0.588 -2.232,1.8 0,1.152 0.84,1.788 2.052,1.788 0.612,0 1.176,-0.276 1.656,-0.66 v 0.54 z m -0.936,-1.044 c -0.36,0.36 -0.804,0.66 -1.32,0.66 -0.804,0 -1.332,-0.492 -1.332,-1.284 0,-0.732 0.6,-1.296 1.332,-1.296 0.456,0 0.912,0.12 1.32,0.324 z"
         style="font-style:normal;font-size:12px;line-height:1.25"
         id="path211" />
      <path
         d="m 281.31499,79.332721 v -0.6 h -6 v 0.6 z"
         style="font-style:normal;font-size:12px;line-height:1.25"
         id="path213" />
      <path
         d="m 286.07897,72.552721 h -0.54 l -1.632,4.488 -1.584,-4.488 h -0.888 l 1.896,5.4 h 0.78 z"
         style="font-style:normal;font-size:12px;line-height:1.25"
         id="path215" />
      <path
         d="m 290.80697,76.416721 c 0,-0.948 -1.008,-1.44 -1.992,-1.68 -0.576,-0.144 -1.2,-0.384 -1.2,-0.948 0,-0.516 0.528,-0.852 1.104,-0.852 0.636,0 1.272,0.192 1.8,0.54 v -0.504 c -0.528,-0.348 -1.164,-0.54 -1.8,-0.54 -1.044,0 -2.004,0.636 -2.004,1.608 0,0.876 0.972,1.284 1.896,1.512 0.636,0.156 1.296,0.492 1.296,1.104 0,0.564 -0.576,0.912 -1.188,0.912 -0.744,0 -1.464,-0.18 -2.1,-0.54 v 0.504 c 0.636,0.36 1.356,0.54 2.1,0.54 1.08,0 2.088,-0.648 2.088,-1.656 z"
         style="font-style:normal;font-size:12px;line-height:1.25"
         id="path217" />
      <path
         d="m 296.59095,78.672721 v -6.12 h -0.936 v 4.236 c -0.408,0.408 -0.912,0.732 -1.476,0.732 -0.564,0 -0.996,-0.492 -0.996,-1.068 v -3.9 h -0.936 v 3.9 c 0,0.876 0.672,1.62 1.536,1.62 0.72,0 1.356,-0.408 1.872,-0.912 v 1.512 c 0,0.804 -0.36,1.608 -1.08,1.608 -0.564,0 -1.104,-0.12 -1.62,-0.324 v 0.372 c 0.612,0.312 1.296,0.504 1.992,0.504 1.02,0 1.644,-1.056 1.644,-2.16 z"
         style="font-style:normal;font-size:12px;line-height:1.25"
         id="path219" />
      <path
         d="m 302.85493,77.952721 v -3.9 c 0,-0.876 -0.672,-1.62 -1.536,-1.62 -0.72,0 -1.356,0.408 -1.872,0.912 v -0.792 h -0.936 v 5.4 h 0.936 v -4.236 c 0.408,-0.408 0.912,-0.732 1.476,-0.732 0.564,0 0.996,0.492 0.996,1.068 v 3.9 z"
         style="font-style:normal;font-size:12px;line-height:1.25"
         id="path221" />
      <path
         d="m 308.60291,73.800721 v -0.504 c -0.384,-0.54 -1.008,-0.864 -1.68,-0.864 -1.5,0 -2.508,1.128 -2.508,2.82 0,1.692 1.008,2.82 2.508,2.82 0.624,0 1.212,-0.312 1.56,-0.828 v -0.504 c -0.408,0.612 -0.828,0.828 -1.56,0.828 -0.864,0 -1.452,-0.924 -1.452,-2.316 0,-1.392 0.588,-2.316 1.452,-2.316 0.744,0 1.248,0.264 1.68,0.864 z"
         style="font-style:normal;font-size:12px;line-height:1.25"
         id="path223" />
      <path
         d="m 314.9029,79.332721 v -0.6 h -6 v 0.6 z"
         style="font-style:normal;font-size:12px;line-height:1.25"
         id="path225" />
      <path
         d="m 320.20688,77.952721 v -3.9 c 0,-0.876 -0.672,-1.62 -1.536,-1.62 -0.72,0 -1.356,0.408 -1.872,0.912 v -0.792 h -0.936 v 5.4 h 0.936 v -4.236 c 0.408,-0.408 0.912,-0.732 1.476,-0.732 0.564,0 0.996,0.492 0.996,1.068 v 3.9 z"
         style="font-style:normal;font-size:12px;line-height:1.25"
         id="path227" />
      <path
         d="m 327.10686,79.332721 v -0.6 h -6 v 0.6 z"
         style="font-style:normal;font-size:12px;line-height:1.25"
         id="path229" />
      <path
         d="m 332.41083,75.252721 c 0,-1.836 -0.816,-2.82 -2.316,-2.82 -1.512,0 -2.328,0.984 -2.328,2.82 0,1.836 0.816,2.82 2.328,2.82 1.5,0 2.316,-0.984 2.316,-2.82 z m -1.056,0 c 0,1.5 -0.444,2.316 -1.26,2.316 -0.828,0 -1.272,-0.816 -1.272,-2.316 0,-1.5 0.444,-2.316 1.272,-2.316 0.816,0 1.26,0.816 1.26,2.316 z"
         style="font-style:normal;font-size:12px;line-height:1.25"
         id="path231" />
    </g>
    <path
       id="path46"
       d="m 152.36219,88.582651 v 14.173229 h 10.62992 l 7.08662,-7.086616 -7.08662,-7.086613 z"
       style="fill:#afdde9;fill-opacity:1;fill-rule:evenodd;stroke:#000000;stroke-width:1px;stroke-linecap:butt;stroke-linejoin:miter;stroke-opacity:1" />
    <g
       aria-label="game_over_i"
       id="text50"
       style="font-style:italic;line-height:0%;font-family:Iwona;-inkscape-font-specification:'Sans Italic'">
      <path
         d="m 178.92601,99.93257 v -6.12 h -0.936 v 0.204 c -0.468,-0.204 -0.972,-0.324 -1.476,-0.324 -1.5,0 -2.232,1.2 -2.232,2.82 0,1.596 0.6,2.82 2.052,2.82 0.612,0 1.176,-0.276 1.656,-0.66 v 1.26 c 0,0.828 -0.456,1.608 -1.2,1.608 -0.612,0 -1.224,-0.12 -1.8,-0.324 v 0.372 c 0.672,0.312 1.416,0.504 2.16,0.504 1.056,0 1.776,-1.032 1.776,-2.16 z m -0.936,-1.764 c -0.36,0.36 -0.804,0.66 -1.32,0.66 -1.092,0 -1.332,-1.056 -1.332,-2.316 0,-1.128 0.348,-2.316 1.332,-2.316 0.456,0 0.912,0.12 1.32,0.324 z"
         style="font-style:normal;font-size:12px;line-height:1.25"
         id="path234" />
      <path
         d="m 185.07,99.21257 v -3.36 c 0,-1.128 -0.696,-2.16 -1.74,-2.16 -0.768,0 -1.488,0.264 -2.136,0.672 v 0.372 c 0.54,-0.3 1.14,-0.492 1.764,-0.492 0.744,0 1.176,0.792 1.176,1.608 v 0.216 c -0.468,-0.204 -0.972,-0.324 -1.476,-0.324 -1.284,0 -2.232,0.588 -2.232,1.8 0,1.152 0.84,1.788 2.052,1.788 0.612,0 1.176,-0.276 1.656,-0.66 v 0.54 z m -0.936,-1.044 c -0.36,0.36 -0.804,0.66 -1.32,0.66 -0.804,0 -1.332,-0.492 -1.332,-1.284 0,-0.732 0.6,-1.296 1.332,-1.296 0.456,0 0.912,0.12 1.32,0.324 z"
         style="font-style:normal;font-size:12px;line-height:1.25"
         id="path236" />
      <path
         d="m 193.54199,99.21257 v -3.9 c 0,-0.84 -0.492,-1.62 -1.272,-1.62 -0.672,0 -1.296,0.348 -1.656,0.912 -0.192,-0.528 -0.6,-0.912 -1.152,-0.912 -0.624,0 -1.128,0.432 -1.536,0.912 v -0.792 h -0.936 v 5.4 h 0.936 v -4.248 c 0.288,-0.372 0.648,-0.72 1.116,-0.72 0.492,0 0.756,0.528 0.756,1.068 v 3.9 h 0.936 v -3.9 c 0,-0.144 -0.012,-0.276 -0.036,-0.42 0.288,-0.372 0.684,-0.648 1.152,-0.648 0.492,0 0.756,0.528 0.756,1.068 v 3.9 z"
         style="font-style:normal;font-size:12px;line-height:1.25"
         id="path238" />
      <path
         d="m 199.74597,96.63257 v -0.12 c 0,-1.692 -0.924,-2.82 -2.316,-2.82 -1.404,0 -2.328,1.128 -2.328,2.82 0,1.692 0.924,2.82 2.328,2.82 0.6,0 1.188,-0.192 1.68,-0.54 v -0.504 c -0.564,0.36 -1.02,0.492 -1.68,0.492 -1.02,0 -1.272,-0.972 -1.272,-2.148 z m -1.056,-0.504 h -2.532 c 0,-0.96 0.408,-1.932 1.272,-1.932 0.852,0 1.26,0.972 1.26,1.932 z"
         style="font-style:normal;font-size:12px;line-height:1.25"
         id="path240" />
      <path
         d="m 206.34595,100.59257 v -0.6 h -6 v 0.6 z"
         style="font-style:normal;font-size:12px;line-height:1.25"
         id="path242" />
      <path
         d="m 211.64993,96.51257 c 0,-1.836 -0.816,-2.82 -2.316,-2.82 -1.512,0 -2.328,0.984 -2.328,2.82 0,1.836 0.816,2.82 2.328,2.82 1.5,0 2.316,-0.984 2.316,-2.82 z m -1.056,0 c 0,1.5 -0.444,2.316 -1.26,2.316 -0.828,0 -1.272,-0.816 -1.272,-2.316 0,-1.5 0.444,-2.316 1.272,-2.316 0.816,0 1.26,0.816 1.26,2.316 z"
         style="font-style:normal;font-size:12px;line-height:1.25"
         id="path244" />
      <path
         d="m 217.07393,93.81257 h -0.54 l -1.632,4.488 -1.584,-4.488 h -0.888 l 1.896,5.4 h 0.78 z"
         style="font-style:normal;font-size:12px;line-height:1.25"
         id="path246" />
      <path
         d="m 222.49792,96.63257 v -0.12 c 0,-1.692 -0.924,-2.82 -2.316,-2.82 -1.404,0 -2.328,1.128 -2.328,2.82 0,1.692 0.924,2.82 2.328,2.82 0.6,0 1.188,-0.192 1.68,-0.54 v -0.504 c -0.564,0.36 -1.02,0.492 -1.68,0.492 -1.02,0 -1.272,-0.972 -1.272,-2.148 z m -1.056,-0.504 h -2.532 c 0,-0.96 0.408,-1.932 1.272,-1.932 0.852,0 1.26,0.972 1.26,1.932 z"
         style="font-style:normal;font-size:12px;line-height:1.25"
         id="path248" />
      <path
         d="m 227.04591,94.55657 v -0.744 c -0.132,-0.048 -0.276,-0.084 -0.408,-0.084 -0.672,0 -1.212,0.468 -1.644,0.984 v -0.9 h -0.936 v 5.4 h 0.936 v -3.996 c 0.36,-0.42 0.816,-0.78 1.368,-0.78 0.228,0 0.468,0.048 0.684,0.12 z"
         style="font-style:normal;font-size:12px;line-height:1.25"
         id="path250" />
      <path
         d="m 233.2859,100.59257 v -0.6 h -6 v 0.6 z"
         style="font-style:normal;font-size:12px;line-height:1.25"
         id="path252" />
      <path
         d="m 236.44187,98.79257 v -0.36 c -0.228,0.192 -0.492,0.348 -0.792,0.348 -0.444,0 -0.528,-0.552 -0.528,-1.068 v -3.9 h -0.936 v 3.9 c 0,0.804 0.312,1.62 1.02,1.62 0.456,0 0.888,-0.228 1.236,-0.54 z m -1.2,-6.852 c 0,-0.324 -0.264,-0.588 -0.588,-0.588 -0.324,0 -0.588,0.264 -0.588,0.588 0,0.324 0.264,0.588 0.588,0.588 0.324,0 0.588,-0.264 0.588,-0.588 z"
         style="font-style:normal;font-size:12px;line-height:1.25"
         id="path254" />
    </g>
    <path
       style="fill:#afdde9;fill-opacity:1;fill-rule:evenodd;stroke:#000000;stroke-width:1px;stroke-linecap:butt;stroke-linejoin:miter;stroke-opacity:1"
       d="m 152.36219,109.84249 v 14.17323 h 10.62992 l 7.08662,-7.08661 -7.08662,-7.08662 z"
       id="path52" />
    <g
       aria-label="success_i"
       id="text56"
       style="font-style:italic;line-height:0%;font-family:Iwona;-inkscape-font-specification:'Sans Italic'">
      <path
         d="m 178.23001,118.93641 c 0,-0.948 -1.008,-1.44 -1.992,-1.68 -0.576,-0.144 -1.2,-0.384 -1.2,-0.948 0,-0.516 0.528,-0.852 1.104,-0.852 0.636,0 1.272,0.192 1.8,0.54 v -0.504 c -0.528,-0.348 -1.164,-0.54 -1.8,-0.54 -1.044,0 -2.004,0.636 -2.004,1.608 0,0.876 0.972,1.284 1.896,1.512 0.636,0.156 1.296,0.492 1.296,1.104 0,0.564 -0.576,0.912 -1.188,0.912 -0.744,0 -1.464,-0.18 -2.1,-0.54 v 0.504 c 0.636,0.36 1.356,0.54 2.1,0.54 1.08,0 2.088,-0.648 2.088,-1.656 z"
         style="font-style:normal;font-size:12px;line-height:1.25"
         id="path257" />
      <path
         d="m 184.014,120.47241 v -5.4 h -0.936 v 4.236 c -0.408,0.408 -0.912,0.732 -1.476,0.732 -0.564,0 -0.996,-0.492 -0.996,-1.068 v -3.9 h -0.936 v 3.9 c 0,0.876 0.672,1.62 1.536,1.62 0.72,0 1.356,-0.408 1.872,-0.912 v 0.792 z"
         style="font-style:normal;font-size:12px;line-height:1.25"
         id="path259" />
      <path
         d="m 189.82198,116.32041 v -0.504 c -0.384,-0.54 -1.008,-0.864 -1.68,-0.864 -1.5,0 -2.508,1.128 -2.508,2.82 0,1.692 1.008,2.82 2.508,2.82 0.624,0 1.212,-0.312 1.56,-0.828 v -0.504 c -0.408,0.612 -0.828,0.828 -1.56,0.828 -0.864,0 -1.452,-0.924 -1.452,-2.316 0,-1.392 0.588,-2.316 1.452,-2.316 0.744,0 1.248,0.264 1.68,0.864 z"
         style="font-style:normal;font-size:12px;line-height:1.25"
         id="path261" />
      <path
         d="m 194.96996,116.32041 v -0.504 c -0.384,-0.54 -1.008,-0.864 -1.68,-0.864 -1.5,0 -2.508,1.128 -2.508,2.82 0,1.692 1.008,2.82 2.508,2.82 0.624,0 1.212,-0.312 1.56,-0.828 v -0.504 c -0.408,0.612 -0.828,0.828 -1.56,0.828 -0.864,0 -1.452,-0.924 -1.452,-2.316 0,-1.392 0.588,-2.316 1.452,-2.316 0.744,0 1.248,0.264 1.68,0.864 z"
         style="font-style:normal;font-size:12px;line-height:1.25"
         id="path263" />
      <path
         d="m 200.57395,117.89241 v -0.12 c 0,-1.692 -0.924,-2.82 -2.316,-2.82 -1.404,0 -2.328,1.128 -2.328,2.82 0,1.692 0.924,2.82 2.328,2.82 0.6,0 1.188,-0.192 1.68,-0.54 v -0.504 c -0.564,0.36 -1.02,0.492 -1.68,0.492 -1.02,0 -1.272,-0.972 -1.272,-2.148 z m -1.056,-0.504 h -2.532 c 0,-0.96 0.408,-1.932 1.272,-1.932 0.852,0 1.26,0.972 1.26,1.932 z"
         style="font-style:normal;font-size:12px;line-height:1.25"
         id="path265" />
      <path
         d="m 205.78193,118.93641 c 0,-0.948 -1.008,-1.44 -1.992,-1.68 -0.576,-0.144 -1.2,-0.384 -1.2,-0.948 0,-0.516 0.528,-0.852 1.104,-0.852 0.636,0 1.272,0.192 1.8,0.54 v -0.504 c -0.528,-0.348 -1.164,-0.54 -1.8,-0.54 -1.044,0 -2.004,0.636 -2.004,1.608 0,0.876 0.972,1.284 1.896,1.512 0.636,0.156 1.296,0.492 1.296,1.104 0,0.564 -0.576,0.912 -1.188,0.912 -0.744,0 -1.464,-0.18 -2.1,-0.54 v 0.504 c 0.636,0.36 1.356,0.54 2.1,0.54 1.08,0 2.088,-0.648 2.088,-1.656 z"
         style="font-style:normal;font-size:12px;line-height:1.25"
         id="path267" />
      <path
         d="m 210.78591,118.93641 c 0,-0.948 -1.008,-1.44 -1.992,-1.68 -0.576,-0.144 -1.2,-0.384 -1.2,-0.948 0,-0.516 0.528,-0.852 1.104,-0.852 0.636,0 1.272,0.192 1.8,0.54 v -0.504 c -0.528,-0.348 -1.164,-0.54 -1.8,-0.54 -1.044,0 -2.004,0.636 -2.004,1.608 0,0.876 0.972,1.284 1.896,1.512 0.636,0.156 1.296,0.492 1.296,1.104 0,0.564 -0.576,0.912 -1.188,0.912 -0.744,0 -1.464,-0.18 -2.1,-0.54 v 0.504 c 0.636,0.36 1.356,0.54 2.1,0.54 1.08,0 2.088,-0.648 2.088,-1.656 z"
         style="font-style:normal;font-size:12px;line-height:1.25"
         id="path269" />
      <path
         d="m 217.3259,121.85241 v -0.6 h -6 v 0.6 z"
         style="font-style:normal;font-size:12px;line-height:1.25"
         id="path271" />
      <path
         d="m 220.48187,120.05241 v -0.36 c -0.228,0.192 -0.492,0.348 -0.792,0.348 -0.444,0 -0.528,-0.552 -0.528,-1.068 v -3.9 h -0.936 v 3.9 c 0,0.804 0.312,1.62 1.02,1.62 0.456,0 0.888,-0.228 1.236,-0.54 z m -1.2,-6.852 c 0,-0.324 -0.264,-0.588 -0.588,-0.588 -0.324,0 -0.588,0.264 -0.588,0.588 0,0.324 0.264,0.588 0.588,0.588 0.324,0 0.588,-0.264 0.588,-0.588 z"
         style="font-style:normal;font-size:12px;line-height:1.25"
         id="path273" />
    </g>
  </g>
</svg>
