<?xml version="1.0" encoding="UTF-8" standalone="no"?>
<svg
   width="61.340664mm"
   height="43.279999mm"
   id="svg2"
   version="1.0"
   viewBox="0 0 217.34884 153.35433"
   xmlns="http://www.w3.org/2000/svg"
   xmlns:svg="http://www.w3.org/2000/svg"
   xmlns:rdf="http://www.w3.org/1999/02/22-rdf-syntax-ns#"
   xmlns:cc="http://creativecommons.org/ns#"
   xmlns:dc="http://purl.org/dc/elements/1.1/">
  <defs
     id="defs4" />
  <metadata
     id="metadata7">
    <rdf:RDF>
      <cc:Work
         rdf:about="">
        <dc:format>image/svg+xml</dc:format>
        <dc:type
           rdf:resource="http://purl.org/dc/dcmitype/StillImage" />
        <dc:title />
      </cc:Work>
    </rdf:RDF>
  </metadata>
  <g
     id="layer1"
     transform="translate(-144.7756,57.188997)">
    <path
       id="rect2385"
       style="fill:#afdde9;stroke:#000000;stroke-width:0.992126"
       d="M 159.44882,-49.606319 H 343.70074 V 88.582661 H 159.44882 Z" />
    <path
       style="fill:#afdde9;fill-opacity:1;fill-rule:evenodd;stroke:#000000;stroke-width:1px;stroke-linecap:butt;stroke-linejoin:miter;stroke-opacity:1"
       d="m 152.36221,24.803134 v 14.173228 h 10.62992 l 7.08662,-7.086615 -7.08662,-7.086613 z"
       id="path2387" />
    <path
       id="path2393"
       d="m 336.61415,24.803123 v 14.173229 h 10.62992 l 7.08662,-7.08662 -7.08662,-7.086609 z"
       style="fill:#afdde9;fill-opacity:1;fill-rule:evenodd;stroke:#000000;stroke-width:1px;stroke-linecap:butt;stroke-linejoin:miter;stroke-opacity:1" />
    <g
       aria-label="clk_i"
       id="text2395"
       style="font-style:italic;line-height:0%;font-family:Iwona;-inkscape-font-specification:'Sans Italic'">
      <path
         d="m 178.47004,31.281056 v -0.504 c -0.384,-0.54 -1.008,-0.864 -1.68,-0.864 -1.5,0 -2.508,1.128 -2.508,2.82 0,1.692 1.008,2.82 2.508,2.82 0.624,0 1.212,-0.312 1.56,-0.828 v -0.504 c -0.408,0.612 -0.828,0.828 -1.56,0.828 -0.864,0 -1.452,-0.924 -1.452,-2.316 0,-1.392 0.588,-2.316 1.452,-2.316 0.744,0 1.248,0.264 1.68,0.864 z"
         style="font-style:normal;font-size:12px;line-height:1.25"
         id="path32" />
      <path
         d="m 181.98603,35.013056 v -0.36 c -0.228,0.192 -0.492,0.348 -0.792,0.348 -0.444,0 -0.528,-0.552 -0.528,-1.068 v -6.9 h -0.936 v 6.9 c 0,0.804 0.312,1.62 1.02,1.62 0.456,0 0.888,-0.228 1.236,-0.54 z"
         style="font-style:normal;font-size:12px;line-height:1.25"
         id="path34" />
      <path
         d="m 187.83001,35.433056 -2.784,-3.204 2.688,-2.196 h -0.744 l -2.868,2.352 v -5.352 h -0.936 v 8.4 h 0.936 v -2.988 l 2.592,2.988 z"
         style="font-style:normal;font-size:12px;line-height:1.25"
         id="path36" />
      <path
         d="m 193.95,36.813056 v -0.6 h -6 v 0.6 z"
         style="font-style:normal;font-size:12px;line-height:1.25"
         id="path38" />
      <path
         d="m 197.10597,35.013056 v -0.36 c -0.228,0.192 -0.492,0.348 -0.792,0.348 -0.444,0 -0.528,-0.552 -0.528,-1.068 v -3.9 h -0.936 v 3.9 c 0,0.804 0.312,1.62 1.02,1.62 0.456,0 0.888,-0.228 1.236,-0.54 z m -1.2,-6.852 c 0,-0.324 -0.264,-0.588 -0.588,-0.588 -0.324,0 -0.588,0.264 -0.588,0.588 0,0.324 0.264,0.588 0.588,0.588 0.324,0 0.588,-0.264 0.588,-0.588 z"
         style="font-style:normal;font-size:12px;line-height:1.25"
         id="path40" />
    </g>
    <g
       aria-label="VGAController"
       id="text2411"
       style="font-style:italic;line-height:0%;font-family:Iwona;-inkscape-font-specification:'Sans Italic';text-align:center;text-anchor:middle">
      <path
         d="m 212.07089,-39.546479 h -0.784 l -3.712,9.504 -3.696,-9.504 h -1.408 l 4.368,11.2 h 0.864 z"
         style="font-style:normal;font-size:16px;line-height:1.25"
         id="path43" />
      <path
         d="m 222.40686,-28.346479 v -4.704 h -1.312 v 3.088 c -0.832,0.672 -1.856,1.04 -2.928,1.04 -2.544,0 -3.6,-2.192 -3.6,-5.024 0,-2.832 1.056,-5.024 3.6,-5.024 1.504,0 2.928,0.592 3.984,1.664 v -0.736 c -1.056,-1.072 -2.48,-1.664 -3.984,-1.664 -3.296,0 -5.168,2.336 -5.168,5.76 0,3.424 1.872,5.76 5.168,5.76 1.072,0 2.096,-0.368 2.928,-1.04 v 0.88 z"
         style="font-style:normal;font-size:16px;line-height:1.25"
         id="path45" />
      <path
         d="m 233.44684,-28.346479 -4.064,-11.2 h -1.392 l -4.144,11.2 h 0.784 l 1.456,-3.92 h 4.544 l 1.424,3.92 z m -3.088,-4.656 h -4 l 2.016,-5.472 z"
         style="font-style:normal;font-size:16px;line-height:1.25"
         id="path47" />
      <path
         d="m 243.36683,-36.858479 v -0.864 c -0.864,-1.248 -2.288,-1.984 -3.792,-1.984 -3.248,0 -5.008,2.368 -5.008,5.76 0,3.392 1.76,5.76 5.008,5.76 1.248,0 2.48,-0.368 3.536,-1.056 v -0.736 c -1.056,0.688 -2.288,1.056 -3.536,1.056 -2.512,0 -3.44,-2.224 -3.44,-5.024 0,-2.8 0.928,-5.024 3.44,-5.024 1.536,0 2.976,0.8 3.792,2.112 z"
         style="font-style:normal;font-size:16px;line-height:1.25"
         id="path49" />
      <path
         d="m 250.7268,-31.946479 c 0,-2.448 -1.088,-3.76 -3.088,-3.76 -2.016,0 -3.104,1.312 -3.104,3.76 0,2.448 1.088,3.76 3.104,3.76 2,0 3.088,-1.312 3.088,-3.76 z m -1.408,0 c 0,2 -0.592,3.088 -1.68,3.088 -1.104,0 -1.696,-1.088 -1.696,-3.088 0,-2 0.592,-3.088 1.696,-3.088 1.088,0 1.68,1.088 1.68,3.088 z"
         style="font-style:normal;font-size:16px;line-height:1.25"
         id="path51" />
      <path
         d="m 258.6788,-28.346479 v -5.2 c 0,-1.168 -0.896,-2.16 -2.048,-2.16 -0.96,0 -1.808,0.544 -2.496,1.216 v -1.056 h -1.248 v 7.2 h 1.248 v -5.648 c 0.544,-0.544 1.216,-0.976 1.968,-0.976 0.752,0 1.328,0.656 1.328,1.424 v 5.2 z"
         style="font-style:normal;font-size:16px;line-height:1.25"
         id="path53" />
      <path
         d="m 264.55077,-28.906479 v -0.48 c -0.256,0.256 -0.56,0.464 -0.928,0.464 -0.576,0 -0.608,-0.752 -0.608,-1.424 v -4.528 h 1.536 v -0.672 h -1.536 v -2.4 h -0.752 c 0,1.28 -0.736,2.48 -1.904,2.48 v 0.592 h 1.408 v 4.528 c 0,1.056 0.336,2.16 1.248,2.16 0.592,0 1.104,-0.32 1.536,-0.72 z"
         style="font-style:normal;font-size:16px;line-height:1.25"
         id="path55" />
      <path
         d="m 270.29475,-34.554479 v -0.992 c -0.176,-0.064 -0.368,-0.112 -0.544,-0.112 -0.896,0 -1.616,0.624 -2.192,1.312 v -1.2 h -1.248 v 7.2 h 1.248 v -5.328 c 0.48,-0.56 1.088,-1.04 1.824,-1.04 0.304,0 0.624,0.064 0.912,0.16 z"
         style="font-style:normal;font-size:16px;line-height:1.25"
         id="path57" />
      <path
         d="m 277.68673,-31.946479 c 0,-2.448 -1.088,-3.76 -3.088,-3.76 -2.016,0 -3.104,1.312 -3.104,3.76 0,2.448 1.088,3.76 3.104,3.76 2,0 3.088,-1.312 3.088,-3.76 z m -1.408,0 c 0,2 -0.592,3.088 -1.68,3.088 -1.104,0 -1.696,-1.088 -1.696,-3.088 0,-2 0.592,-3.088 1.696,-3.088 1.088,0 1.68,1.088 1.68,3.088 z"
         style="font-style:normal;font-size:16px;line-height:1.25"
         id="path59" />
      <path
         d="m 282.85473,-28.906479 v -0.48 c -0.304,0.256 -0.656,0.464 -1.056,0.464 -0.592,0 -0.704,-0.736 -0.704,-1.424 v -9.2 h -1.248 v 9.2 c 0,1.072 0.416,2.16 1.36,2.16 0.608,0 1.184,-0.304 1.648,-0.72 z"
         style="font-style:normal;font-size:16px;line-height:1.25"
         id="path61" />
      <path
         d="m 287.4627,-28.906479 v -0.48 c -0.304,0.256 -0.656,0.464 -1.056,0.464 -0.592,0 -0.704,-0.736 -0.704,-1.424 v -9.2 h -1.248 v 9.2 c 0,1.072 0.416,2.16 1.36,2.16 0.608,0 1.184,-0.304 1.648,-0.72 z"
         style="font-style:normal;font-size:16px;line-height:1.25"
         id="path63" />
      <path
         d="m 294.85467,-31.786479 v -0.16 c 0,-2.256 -1.232,-3.76 -3.088,-3.76 -1.872,0 -3.104,1.504 -3.104,3.76 0,2.256 1.232,3.76 3.104,3.76 0.8,0 1.584,-0.256 2.24,-0.72 v -0.672 c -0.752,0.48 -1.36,0.656 -2.24,0.656 -1.36,0 -1.696,-1.296 -1.696,-2.864 z m -1.408,-0.672 h -3.376 c 0,-1.28 0.544,-2.576 1.696,-2.576 1.136,0 1.68,1.296 1.68,2.576 z"
         style="font-style:normal;font-size:16px;line-height:1.25"
         id="path65" />
      <path
         d="m 300.91865,-34.554479 v -0.992 c -0.176,-0.064 -0.368,-0.112 -0.544,-0.112 -0.896,0 -1.616,0.624 -2.192,1.312 v -1.2 h -1.248 v 7.2 h 1.248 v -5.328 c 0.48,-0.56 1.088,-1.04 1.824,-1.04 0.304,0 0.624,0.064 0.912,0.16 z"
         style="font-style:normal;font-size:16px;line-height:1.25"
         id="path67" />
    </g>
    <g
       aria-label="blanking_o"
       id="text2419"
       style="font-style:italic;line-height:0%;font-family:Iwona;-inkscape-font-specification:'Sans Italic';text-align:end;text-anchor:end">
      <path
         d="m 283.05497,32.733044 c 0,-1.596 -0.6,-2.82 -2.052,-2.82 -0.612,0 -1.176,0.276 -1.656,0.66 v -3.54 h -0.936 v 8.4 h 0.936 v -0.276 c 0.456,0.24 0.96,0.396 1.476,0.396 1.5,0 2.232,-1.2 2.232,-2.82 z m -1.056,0 c 0,1.128 -0.348,2.316 -1.332,2.316 -0.468,0 -0.924,-0.156 -1.32,-0.396 v -3.576 c 0.36,-0.36 0.804,-0.66 1.32,-0.66 1.092,0 1.332,1.056 1.332,2.316 z"
         style="font-style:normal;font-size:12px;line-height:1.25"
         id="path70" />
      <path
         d="m 286.93096,35.013044 v -0.36 c -0.228,0.192 -0.492,0.348 -0.792,0.348 -0.444,0 -0.528,-0.552 -0.528,-1.068 v -6.9 h -0.936 v 6.9 c 0,0.804 0.312,1.62 1.02,1.62 0.456,0 0.888,-0.228 1.236,-0.54 z"
         style="font-style:normal;font-size:12px;line-height:1.25"
         id="path72" />
      <path
         d="m 292.35494,35.433044 v -3.36 c 0,-1.128 -0.696,-2.16 -1.74,-2.16 -0.768,0 -1.488,0.264 -2.136,0.672 v 0.372 c 0.54,-0.3 1.14,-0.492 1.764,-0.492 0.744,0 1.176,0.792 1.176,1.608 v 0.216 c -0.468,-0.204 -0.972,-0.324 -1.476,-0.324 -1.284,0 -2.232,0.588 -2.232,1.8 0,1.152 0.84,1.788 2.052,1.788 0.612,0 1.176,-0.276 1.656,-0.66 v 0.54 z m -0.936,-1.044 c -0.36,0.36 -0.804,0.66 -1.32,0.66 -0.804,0 -1.332,-0.492 -1.332,-1.284 0,-0.732 0.6,-1.296 1.332,-1.296 0.456,0 0.912,0.12 1.32,0.324 z"
         style="font-style:normal;font-size:12px;line-height:1.25"
         id="path74" />
      <path
         d="m 298.61893,35.433044 v -3.9 c 0,-0.876 -0.672,-1.62 -1.536,-1.62 -0.72,0 -1.356,0.408 -1.872,0.912 v -0.792 h -0.936 v 5.4 h 0.936 v -4.236 c 0.408,-0.408 0.912,-0.732 1.476,-0.732 0.564,0 0.996,0.492 0.996,1.068 v 3.9 z"
         style="font-style:normal;font-size:12px;line-height:1.25"
         id="path76" />
      <path
         d="m 305.12291,35.433044 -2.784,-3.204 2.688,-2.196 h -0.744 l -2.868,2.352 v -5.352 h -0.936 v 8.4 h 0.936 v -2.988 l 2.592,2.988 z"
         style="font-style:normal;font-size:12px;line-height:1.25"
         id="path78" />
      <path
         d="m 308.3989,35.013044 v -0.36 c -0.228,0.192 -0.492,0.348 -0.792,0.348 -0.444,0 -0.528,-0.552 -0.528,-1.068 v -3.9 h -0.936 v 3.9 c 0,0.804 0.312,1.62 1.02,1.62 0.456,0 0.888,-0.228 1.236,-0.54 z m -1.2,-6.852 c 0,-0.324 -0.264,-0.588 -0.588,-0.588 -0.324,0 -0.588,0.264 -0.588,0.588 0,0.324 0.264,0.588 0.588,0.588 0.324,0 0.588,-0.264 0.588,-0.588 z"
         style="font-style:normal;font-size:12px;line-height:1.25"
         id="path80" />
      <path
         d="m 313.94289,35.433044 v -3.9 c 0,-0.876 -0.672,-1.62 -1.536,-1.62 -0.72,0 -1.356,0.408 -1.872,0.912 v -0.792 h -0.936 v 5.4 h 0.936 v -4.236 c 0.408,-0.408 0.912,-0.732 1.476,-0.732 0.564,0 0.996,0.492 0.996,1.068 v 3.9 z"
         style="font-style:normal;font-size:12px;line-height:1.25"
         id="path82" />
      <path
         d="m 320.14686,36.153044 v -6.12 h -0.936 v 0.204 c -0.468,-0.204 -0.972,-0.324 -1.476,-0.324 -1.5,0 -2.232,1.2 -2.232,2.82 0,1.596 0.6,2.82 2.052,2.82 0.612,0 1.176,-0.276 1.656,-0.66 v 1.26 c 0,0.828 -0.456,1.608 -1.2,1.608 -0.612,0 -1.224,-0.12 -1.8,-0.324 v 0.372 c 0.672,0.312 1.416,0.504 2.16,0.504 1.056,0 1.776,-1.032 1.776,-2.16 z m -0.936,-1.764 c -0.36,0.36 -0.804,0.66 -1.32,0.66 -1.092,0 -1.332,-1.056 -1.332,-2.316 0,-1.128 0.348,-2.316 1.332,-2.316 0.456,0 0.912,0.12 1.32,0.324 z"
         style="font-style:normal;font-size:12px;line-height:1.25"
         id="path84" />
      <path
         d="m 327.10686,36.813044 v -0.6 h -6 v 0.6 z"
         style="font-style:normal;font-size:12px;line-height:1.25"
         id="path86" />
      <path
         d="m 332.41083,32.733044 c 0,-1.836 -0.816,-2.82 -2.316,-2.82 -1.512,0 -2.328,0.984 -2.328,2.82 0,1.836 0.816,2.82 2.328,2.82 1.5,0 2.316,-0.984 2.316,-2.82 z m -1.056,0 c 0,1.5 -0.444,2.316 -1.26,2.316 -0.828,0 -1.272,-0.816 -1.272,-2.316 0,-1.5 0.444,-2.316 1.272,-2.316 0.816,0 1.26,0.816 1.26,2.316 z"
         style="font-style:normal;font-size:12px;line-height:1.25"
         id="path88" />
    </g>
    <path
       style="fill:#afdde9;fill-opacity:1;fill-rule:evenodd;stroke:#000000;stroke-width:1px;stroke-linecap:butt;stroke-linejoin:miter;stroke-opacity:1"
       d="m 336.61415,46.062958 v 14.173229 h 10.62992 l 7.08662,-7.08662 -7.08662,-7.086609 z"
       id="path185" />
    <g
       aria-label="hsync_n_o"
       id="text189"
       style="font-style:italic;line-height:0%;font-family:Iwona;-inkscape-font-specification:'Sans Italic';text-align:end;text-anchor:end">
      <path
         d="m 285.29899,56.692879 v -3.9 c 0,-0.876 -0.672,-1.62 -1.536,-1.62 -0.72,0 -1.356,0.408 -1.872,0.912 v -3.792 h -0.936 v 8.4 h 0.936 v -4.236 c 0.408,-0.408 0.912,-0.732 1.476,-0.732 0.564,0 0.996,0.492 0.996,1.068 v 3.9 z"
         style="font-style:normal;font-size:12px;line-height:1.25"
         id="path91" />
      <path
         d="m 290.80697,55.156879 c 0,-0.948 -1.008,-1.44 -1.992,-1.68 -0.576,-0.144 -1.2,-0.384 -1.2,-0.948 0,-0.516 0.528,-0.852 1.104,-0.852 0.636,0 1.272,0.192 1.8,0.54 v -0.504 c -0.528,-0.348 -1.164,-0.54 -1.8,-0.54 -1.044,0 -2.004,0.636 -2.004,1.608 0,0.876 0.972,1.284 1.896,1.512 0.636,0.156 1.296,0.492 1.296,1.104 0,0.564 -0.576,0.912 -1.188,0.912 -0.744,0 -1.464,-0.18 -2.1,-0.54 v 0.504 c 0.636,0.36 1.356,0.54 2.1,0.54 1.08,0 2.088,-0.648 2.088,-1.656 z"
         style="font-style:normal;font-size:12px;line-height:1.25"
         id="path93" />
      <path
         d="m 296.59095,57.412879 v -6.12 h -0.936 v 4.236 c -0.408,0.408 -0.912,0.732 -1.476,0.732 -0.564,0 -0.996,-0.492 -0.996,-1.068 v -3.9 h -0.936 v 3.9 c 0,0.876 0.672,1.62 1.536,1.62 0.72,0 1.356,-0.408 1.872,-0.912 v 1.512 c 0,0.804 -0.36,1.608 -1.08,1.608 -0.564,0 -1.104,-0.12 -1.62,-0.324 v 0.372 c 0.612,0.312 1.296,0.504 1.992,0.504 1.02,0 1.644,-1.056 1.644,-2.16 z"
         style="font-style:normal;font-size:12px;line-height:1.25"
         id="path95" />
      <path
         d="m 302.85493,56.692879 v -3.9 c 0,-0.876 -0.672,-1.62 -1.536,-1.62 -0.72,0 -1.356,0.408 -1.872,0.912 v -0.792 h -0.936 v 5.4 h 0.936 v -4.236 c 0.408,-0.408 0.912,-0.732 1.476,-0.732 0.564,0 0.996,0.492 0.996,1.068 v 3.9 z"
         style="font-style:normal;font-size:12px;line-height:1.25"
         id="path97" />
      <path
         d="m 308.60291,52.540879 v -0.504 c -0.384,-0.54 -1.008,-0.864 -1.68,-0.864 -1.5,0 -2.508,1.128 -2.508,2.82 0,1.692 1.008,2.82 2.508,2.82 0.624,0 1.212,-0.312 1.56,-0.828 v -0.504 c -0.408,0.612 -0.828,0.828 -1.56,0.828 -0.864,0 -1.452,-0.924 -1.452,-2.316 0,-1.392 0.588,-2.316 1.452,-2.316 0.744,0 1.248,0.264 1.68,0.864 z"
         style="font-style:normal;font-size:12px;line-height:1.25"
         id="path99" />
      <path
         d="m 314.9029,58.072879 v -0.6 h -6 v 0.6 z"
         style="font-style:normal;font-size:12px;line-height:1.25"
         id="path101" />
      <path
         d="m 320.20688,56.692879 v -3.9 c 0,-0.876 -0.672,-1.62 -1.536,-1.62 -0.72,0 -1.356,0.408 -1.872,0.912 v -0.792 h -0.936 v 5.4 h 0.936 v -4.236 c 0.408,-0.408 0.912,-0.732 1.476,-0.732 0.564,0 0.996,0.492 0.996,1.068 v 3.9 z"
         style="font-style:normal;font-size:12px;line-height:1.25"
         id="path103" />
      <path
         d="m 327.10686,58.072879 v -0.6 h -6 v 0.6 z"
         style="font-style:normal;font-size:12px;line-height:1.25"
         id="path105" />
      <path
         d="m 332.41083,53.992879 c 0,-1.836 -0.816,-2.82 -2.316,-2.82 -1.512,0 -2.328,0.984 -2.328,2.82 0,1.836 0.816,2.82 2.328,2.82 1.5,0 2.316,-0.984 2.316,-2.82 z m -1.056,0 c 0,1.5 -0.444,2.316 -1.26,2.316 -0.828,0 -1.272,-0.816 -1.272,-2.316 0,-1.5 0.444,-2.316 1.272,-2.316 0.816,0 1.26,0.816 1.26,2.316 z"
         style="font-style:normal;font-size:12px;line-height:1.25"
         id="path107" />
    </g>
    <path
       id="path191"
       d="m 336.61415,67.3228 v 14.173229 h 10.62992 l 7.08662,-7.08662 -7.08662,-7.086609 z"
       style="fill:#afdde9;fill-opacity:1;fill-rule:evenodd;stroke:#000000;stroke-width:1px;stroke-linecap:butt;stroke-linejoin:miter;stroke-opacity:1" />
    <g
       aria-label="vsync_n_o"
       id="text195"
       style="font-style:italic;line-height:0%;font-family:Iwona;-inkscape-font-specification:'Sans Italic';text-align:end;text-anchor:end">
      <path
         d="m 286.07897,72.552721 h -0.54 l -1.632,4.488 -1.584,-4.488 h -0.888 l 1.896,5.4 h 0.78 z"
         style="font-style:normal;font-size:12px;line-height:1.25"
         id="path110" />
      <path
         d="m 290.80697,76.416721 c 0,-0.948 -1.008,-1.44 -1.992,-1.68 -0.576,-0.144 -1.2,-0.384 -1.2,-0.948 0,-0.516 0.528,-0.852 1.104,-0.852 0.636,0 1.272,0.192 1.8,0.54 v -0.504 c -0.528,-0.348 -1.164,-0.54 -1.8,-0.54 -1.044,0 -2.004,0.636 -2.004,1.608 0,0.876 0.972,1.284 1.896,1.512 0.636,0.156 1.296,0.492 1.296,1.104 0,0.564 -0.576,0.912 -1.188,0.912 -0.744,0 -1.464,-0.18 -2.1,-0.54 v 0.504 c 0.636,0.36 1.356,0.54 2.1,0.54 1.08,0 2.088,-0.648 2.088,-1.656 z"
         style="font-style:normal;font-size:12px;line-height:1.25"
         id="path112" />
      <path
         d="m 296.59095,78.672721 v -6.12 h -0.936 v 4.236 c -0.408,0.408 -0.912,0.732 -1.476,0.732 -0.564,0 -0.996,-0.492 -0.996,-1.068 v -3.9 h -0.936 v 3.9 c 0,0.876 0.672,1.62 1.536,1.62 0.72,0 1.356,-0.408 1.872,-0.912 v 1.512 c 0,0.804 -0.36,1.608 -1.08,1.608 -0.564,0 -1.104,-0.12 -1.62,-0.324 v 0.372 c 0.612,0.312 1.296,0.504 1.992,0.504 1.02,0 1.644,-1.056 1.644,-2.16 z"
         style="font-style:normal;font-size:12px;line-height:1.25"
         id="path114" />
      <path
         d="m 302.85493,77.952721 v -3.9 c 0,-0.876 -0.672,-1.62 -1.536,-1.62 -0.72,0 -1.356,0.408 -1.872,0.912 v -0.792 h -0.936 v 5.4 h 0.936 v -4.236 c 0.408,-0.408 0.912,-0.732 1.476,-0.732 0.564,0 0.996,0.492 0.996,1.068 v 3.9 z"
         style="font-style:normal;font-size:12px;line-height:1.25"
         id="path116" />
      <path
         d="m 308.60291,73.800721 v -0.504 c -0.384,-0.54 -1.008,-0.864 -1.68,-0.864 -1.5,0 -2.508,1.128 -2.508,2.82 0,1.692 1.008,2.82 2.508,2.82 0.624,0 1.212,-0.312 1.56,-0.828 v -0.504 c -0.408,0.612 -0.828,0.828 -1.56,0.828 -0.864,0 -1.452,-0.924 -1.452,-2.316 0,-1.392 0.588,-2.316 1.452,-2.316 0.744,0 1.248,0.264 1.68,0.864 z"
         style="font-style:normal;font-size:12px;line-height:1.25"
         id="path118" />
      <path
         d="m 314.9029,79.332721 v -0.6 h -6 v 0.6 z"
         style="font-style:normal;font-size:12px;line-height:1.25"
         id="path120" />
      <path
         d="m 320.20688,77.952721 v -3.9 c 0,-0.876 -0.672,-1.62 -1.536,-1.62 -0.72,0 -1.356,0.408 -1.872,0.912 v -0.792 h -0.936 v 5.4 h 0.936 v -4.236 c 0.408,-0.408 0.912,-0.732 1.476,-0.732 0.564,0 0.996,0.492 0.996,1.068 v 3.9 z"
         style="font-style:normal;font-size:12px;line-height:1.25"
         id="path122" />
      <path
         d="m 327.10686,79.332721 v -0.6 h -6 v 0.6 z"
         style="font-style:normal;font-size:12px;line-height:1.25"
         id="path124" />
      <path
         d="m 332.41083,75.252721 c 0,-1.836 -0.816,-2.82 -2.316,-2.82 -1.512,0 -2.328,0.984 -2.328,2.82 0,1.836 0.816,2.82 2.328,2.82 1.5,0 2.316,-0.984 2.316,-2.82 z m -1.056,0 c 0,1.5 -0.444,2.316 -1.26,2.316 -0.828,0 -1.272,-0.816 -1.272,-2.316 0,-1.5 0.444,-2.316 1.272,-2.316 0.816,0 1.26,0.816 1.26,2.316 z"
         style="font-style:normal;font-size:12px;line-height:1.25"
         id="path126" />
    </g>
    <path
       id="path5469"
       d="M 336.61415,3.543291 V 17.71652 h 10.62992 l 7.08662,-7.08662 -7.08662,-7.086609 z"
       style="fill:#afdde9;fill-opacity:1;fill-rule:evenodd;stroke:#000000;stroke-width:1px;stroke-linecap:butt;stroke-linejoin:miter;stroke-opacity:1" />
    <g
       aria-label="y_o"
       id="text5473"
       style="font-style:italic;line-height:0%;font-family:Iwona;-inkscape-font-specification:'Sans Italic';text-align:end;text-anchor:end">
      <path
         d="M 320.14688,14.893212 V 8.7732121 h -0.936 v 4.2359999 c -0.408,0.408 -0.912,0.732 -1.476,0.732 -0.564,0 -0.996,-0.492 -0.996,-1.068 V 8.7732121 h -0.936 v 3.8999999 c 0,0.876 0.672,1.62 1.536,1.62 0.72,0 1.356,-0.408 1.872,-0.912 v 1.512 c 0,0.804 -0.36,1.608 -1.08,1.608 -0.564,0 -1.104,-0.12 -1.62,-0.324 v 0.372 c 0.612,0.312 1.296,0.504 1.992,0.504 1.02,0 1.644,-1.056 1.644,-2.16 z"
         style="font-style:normal;font-size:12px;line-height:1.25"
         id="path129" />
      <path
         d="m 327.10686,15.553212 v -0.6 h -6 v 0.6 z"
         style="font-style:normal;font-size:12px;line-height:1.25"
         id="path131" />
      <path
         d="m 332.41083,11.473212 c 0,-1.8359999 -0.816,-2.8199999 -2.316,-2.8199999 -1.512,0 -2.328,0.984 -2.328,2.8199999 0,1.836 0.816,2.82 2.328,2.82 1.5,0 2.316,-0.984 2.316,-2.82 z m -1.056,0 c 0,1.5 -0.444,2.316 -1.26,2.316 -0.828,0 -1.272,-0.816 -1.272,-2.316 0,-1.4999999 0.444,-2.3159999 1.272,-2.3159999 0.816,0 1.26,0.816 1.26,2.3159999 z"
         style="font-style:normal;font-size:12px;line-height:1.25"
         id="path133" />
    </g>
    <path
       id="path5475"
       d="m 336.61415,-17.716551 v 14.1732288 h 10.62992 l 7.08662,-7.0866198 -7.08662,-7.086609 z"
       style="fill:#afdde9;fill-opacity:1;fill-rule:evenodd;stroke:#000000;stroke-width:1px;stroke-linecap:butt;stroke-linejoin:miter;stroke-opacity:1" />
    <g
       aria-label="x_o"
       id="text5479"
       style="font-style:italic;line-height:0%;font-family:Iwona;-inkscape-font-specification:'Sans Italic';text-align:end;text-anchor:end">
      <path
         d="m 320.86688,-7.0866303 -1.884,-2.88 1.824,-2.5199997 h -0.624 l -1.488,2.064 -1.344,-2.064 h -1.008 l 1.788,2.7479997 -1.908,2.652 h 0.624 l 1.584,-2.196 1.428,2.196 z"
         style="font-style:normal;font-size:12px;line-height:1.25"
         id="path136" />
      <path
         d="m 327.10686,-5.7066303 v -0.6 h -6 v 0.6 z"
         style="font-style:normal;font-size:12px;line-height:1.25"
         id="path138" />
      <path
         d="m 332.41083,-9.7866303 c 0,-1.8359997 -0.816,-2.8199997 -2.316,-2.8199997 -1.512,0 -2.328,0.984 -2.328,2.8199997 0,1.836 0.816,2.82 2.328,2.82 1.5,0 2.316,-0.984 2.316,-2.82 z m -1.056,0 c 0,1.5 -0.444,2.316 -1.26,2.316 -0.828,0 -1.272,-0.816 -1.272,-2.316 0,-1.4999997 0.444,-2.3159997 1.272,-2.3159997 0.816,0 1.26,0.816 1.26,2.3159997 z"
         style="font-style:normal;font-size:12px;line-height:1.25"
         id="path140" />
    </g>
  </g>
</svg>
