<?xml version="1.0" encoding="UTF-8" standalone="no"?>
<!-- Created with Inkscape (http://www.inkscape.org/) -->

<svg
   width="22.876993mm"
   height="30.211992mm"
   id="svg5234"
   version="1.1"
   xmlns="http://www.w3.org/2000/svg"
   xmlns:svg="http://www.w3.org/2000/svg"
   xmlns:rdf="http://www.w3.org/1999/02/22-rdf-syntax-ns#"
   xmlns:cc="http://creativecommons.org/ns#"
   xmlns:dc="http://purl.org/dc/elements/1.1/">
  <defs
     id="defs5236" />
  <metadata
     id="metadata5239">
    <rdf:RDF>
      <cc:Work
         rdf:about="">
        <dc:format>image/svg+xml</dc:format>
        <dc:type
           rdf:resource="http://purl.org/dc/dcmitype/StillImage" />
        <dc:title />
      </cc:Work>
    </rdf:RDF>
  </metadata>
  <g
     id="layer1"
     transform="translate(-424.46235,-228.32854)">
    <path
       style="fill:#ff0000;fill-opacity:1;stroke:none"
       d="m 456,248.91969 -4.77981,4.77982 4.77981,4.77983 h 23.89914 l 4.77982,-4.77983 -4.77982,-4.77982 z"
       id="path4891-7-7" />
    <path
       id="path5013-7-4"
       d="m 456,287.15829 -4.77981,4.77983 4.77981,4.77982 h 23.89914 l 4.77982,-4.77982 -4.77982,-4.77983 z"
       style="fill:#ff0000;fill-opacity:1;stroke:none" />
    <path
       style="fill:#ff0000;fill-opacity:1;stroke:none"
       d="m 456,325.39689 -4.77981,4.77983 4.77981,4.77982 h 23.89914 l 4.77982,-4.77982 -4.77982,-4.77983 z"
       id="path5015-3-0" />
    <path
       id="path5017-9-9"
       d="m 491.8487,263.174 -4.77982,-4.77983 -4.77982,4.77983 v 19.1193 l 4.77982,4.77981 4.77982,-4.77981 z"
       style="fill:#b3b3b3;fill-opacity:1;stroke:none" />
    <path
       style="fill:#ff0000;stroke:none"
       d="m 491.8487,301.4126 -4.77982,-4.77983 -4.77982,4.77983 v 19.1193 l 4.77982,4.77982 4.77982,-4.77982 z"
       id="path5019-1-6" />
    <path
       style="fill:#ff0000;fill-opacity:1;stroke:none"
       d="m 453.61008,263.174 -4.77981,-4.77983 -4.77982,4.77983 v 19.1193 l 4.77982,4.77981 4.77981,-4.77981 z"
       id="path5021-7-2" />
    <path
       id="path5023-8-1"
       d="m 453.61008,301.4126 -4.77981,-4.77983 -4.77982,4.77983 v 19.1193 l 4.77982,4.77982 4.77981,-4.77982 z"
       style="fill:#b3b3b3;stroke:none" />
    <g
       aria-label="s0"
       id="text5098-3"
       style="line-height:0%;font-family:'DejaVu Sans';-inkscape-font-specification:'DejaVu Sans';text-align:center;text-anchor:middle">
      <path
         d="m 466.20407,238.73969 v 1.1461 q -0.51377,-0.26347 -1.06706,-0.39521 -0.55329,-0.13173 -1.1461,-0.13173 -0.90239,0 -1.35687,0.27664 -0.4479,0.27664 -0.4479,0.82993 0,0.42156 0.32275,0.66527 0.32275,0.23712 1.29759,0.45448 l 0.41497,0.0922 q 1.291,0.27664 1.83112,0.78382 0.5467,0.5006 0.5467,1.40298 0,1.02754 -0.81676,1.62694 -0.81017,0.59939 -2.23291,0.59939 -0.59281,0 -1.23831,-0.11856 -0.63892,-0.11197 -1.35029,-0.34251 v -1.25149 q 0.67185,0.3491 1.32394,0.52694 0.65209,0.17126 1.29101,0.17126 0.85627,0 1.31735,-0.28982 0.46107,-0.2964 0.46107,-0.82993 0,-0.49401 -0.33592,-0.75748 -0.32934,-0.26347 -1.45568,-0.50718 l -0.42155,-0.0988 q -1.12634,-0.23713 -1.62693,-0.72455 -0.5006,-0.494 -0.5006,-1.35028 0,-1.04071 0.73772,-1.60717 0.73772,-0.56647 2.09459,-0.56647 0.67185,0 1.26466,0.0988 0.59281,0.0988 1.09341,0.29641 z"
         style="font-size:13.4897px;line-height:1.25"
         id="path29" />
      <path
         d="m 471.54593,236.9415 q -1.02753,0 -1.54789,1.01436 -0.51376,1.00778 -0.51376,3.0365 0,2.02214 0.51376,3.0365 0.52036,1.00778 1.54789,1.00778 1.03413,0 1.54789,-1.00778 0.52036,-1.01436 0.52036,-3.0365 0,-2.02872 -0.52036,-3.0365 -0.51376,-1.01436 -1.54789,-1.01436 z m 0,-1.05388 q 1.65328,0 2.52274,1.31077 0.87604,1.30418 0.87604,3.79397 0,2.48322 -0.87604,3.79398 -0.86946,1.30418 -2.52274,1.30418 -1.65327,0 -2.52932,-1.30418 -0.86945,-1.31076 -0.86945,-3.79398 0,-2.48979 0.86945,-3.79397 0.87605,-1.31077 2.52932,-1.31077 z"
         style="font-size:13.4897px;line-height:1.25"
         id="path31" />
    </g>
    <g
       aria-label="s1"
       transform="rotate(90)"
       id="text5102-0"
       style="line-height:0%;font-family:'DejaVu Sans';-inkscape-font-specification:'DejaVu Sans';text-align:center;text-anchor:middle">
      <path
         d="m 271.16268,-500.69326 v 1.14609 q -0.51376,-0.26347 -1.06705,-0.3952 -0.55329,-0.13174 -1.1461,-0.13174 -0.90239,0 -1.35687,0.27665 -0.4479,0.27664 -0.4479,0.82993 0,0.42155 0.32275,0.66526 0.32275,0.23713 1.29759,0.45449 l 0.41497,0.0922 q 1.291,0.27665 1.83112,0.78383 0.5467,0.50059 0.5467,1.40298 0,1.02754 -0.81676,1.62693 -0.81017,0.5994 -2.23291,0.5994 -0.59281,0 -1.23832,-0.11856 -0.63891,-0.11198 -1.35028,-0.34251 v -1.25149 q 0.67185,0.3491 1.32394,0.52694 0.65209,0.17126 1.291,0.17126 0.85628,0 1.31736,-0.28982 0.46107,-0.29641 0.46107,-0.82993 0,-0.49401 -0.33592,-0.75748 -0.32934,-0.26347 -1.45568,-0.50718 l -0.42155,-0.0988 q -1.12634,-0.23713 -1.62694,-0.72455 -0.50059,-0.49401 -0.50059,-1.35029 0,-1.04071 0.73772,-1.60717 0.73772,-0.56646 2.09459,-0.56646 0.67185,0 1.26466,0.0988 0.59281,0.0988 1.0934,0.29641 z"
         style="font-size:13.4897px;line-height:1.25"
         id="path34" />
      <path
         d="m 273.88961,-494.6532 h 2.17363 v -7.50233 l -2.36465,0.47425 v -1.21196 l 2.35147,-0.47425 h 1.33053 v 8.71429 h 2.17364 v 1.11975 h -5.66462 z"
         style="font-size:13.4897px;line-height:1.25"
         id="path36" />
    </g>
    <g
       aria-label="s2"
       transform="rotate(90)"
       id="text5106-0"
       style="line-height:0%;font-family:'DejaVu Sans';-inkscape-font-specification:'DejaVu Sans';text-align:center;text-anchor:middle">
      <path
         d="m 309.45397,-500.4667 v 1.1461 q -0.51376,-0.26347 -1.06705,-0.39521 -0.55329,-0.13174 -1.1461,-0.13174 -0.90239,0 -1.35687,0.27665 -0.4479,0.27664 -0.4479,0.82993 0,0.42155 0.32275,0.66527 0.32275,0.23712 1.29759,0.45448 l 0.41497,0.0922 q 1.291,0.27664 1.83112,0.78382 0.5467,0.5006 0.5467,1.40298 0,1.02754 -0.81676,1.62694 -0.81017,0.59939 -2.23291,0.59939 -0.59281,0 -1.23832,-0.11856 -0.63891,-0.11198 -1.35028,-0.34251 v -1.25149 q 0.67185,0.3491 1.32394,0.52694 0.65209,0.17126 1.291,0.17126 0.85628,0 1.31736,-0.28982 0.46107,-0.2964 0.46107,-0.82993 0,-0.49401 -0.33592,-0.75748 -0.32934,-0.26347 -1.45568,-0.50718 l -0.42155,-0.0988 q -1.12634,-0.23713 -1.62693,-0.72455 -0.5006,-0.494 -0.5006,-1.35028 0,-1.04071 0.73772,-1.60718 0.73772,-0.56646 2.09459,-0.56646 0.67185,0 1.26466,0.0988 0.59281,0.0988 1.0934,0.29641 z"
         style="font-size:13.4897px;line-height:1.25"
         id="path39" />
      <path
         d="m 313.09646,-494.42664 h 4.64367 v 1.11976 h -6.24426 v -1.11976 q 0.75748,-0.78382 2.06166,-2.10117 1.31077,-1.32394 1.64669,-1.70598 0.63892,-0.71795 0.88922,-1.21196 0.25688,-0.5006 0.25688,-0.98143 0,-0.78383 -0.55329,-1.27783 -0.5467,-0.49401 -1.42933,-0.49401 -0.62574,0 -1.32394,0.21736 -0.69161,0.21737 -1.48202,0.65868 v -1.3437 q 0.80358,-0.32275 1.50178,-0.48742 0.6982,-0.16467 1.27784,-0.16467 1.52813,0 2.4371,0.76406 0.90897,0.76407 0.90897,2.0419 0,0.60598 -0.23053,1.15269 -0.22395,0.54011 -0.82335,1.27783 -0.16467,0.19101 -1.0473,1.10658 -0.88262,0.90897 -2.48979,2.54907 z"
         style="font-size:13.4897px;line-height:1.25"
         id="path41" />
    </g>
    <g
       aria-label="s3"
       id="text5110-3"
       style="line-height:0%;font-family:'DejaVu Sans';-inkscape-font-specification:'DejaVu Sans';text-align:center;text-anchor:middle">
      <path
         d="m 466.29629,314.74955 v 1.14609 q -0.51377,-0.26347 -1.06706,-0.3952 -0.55329,-0.13174 -1.14609,-0.13174 -0.90239,0 -1.35688,0.27665 -0.4479,0.27664 -0.4479,0.82993 0,0.42155 0.32275,0.66526 0.32275,0.23713 1.2976,0.45449 l 0.41496,0.0922 q 1.29101,0.27665 1.83112,0.78383 0.54671,0.50059 0.54671,1.40298 0,1.02754 -0.81676,1.62693 -0.81018,0.5994 -2.23292,0.5994 -0.59281,0 -1.23831,-0.11856 -0.63892,-0.11198 -1.35029,-0.34251 v -1.25149 q 0.67185,0.3491 1.32394,0.52694 0.65209,0.17126 1.29101,0.17126 0.85628,0 1.31735,-0.28982 0.46108,-0.29641 0.46108,-0.82993 0,-0.49401 -0.33593,-0.75748 -0.32934,-0.26347 -1.45567,-0.50718 l -0.42156,-0.0988 q -1.12633,-0.23713 -1.62693,-0.72455 -0.50059,-0.49401 -0.50059,-1.35029 0,-1.04071 0.73771,-1.60717 0.73772,-0.56646 2.0946,-0.56646 0.67185,0 1.26466,0.0988 0.59281,0.0988 1.0934,0.29641 z"
         style="font-size:13.4897px;line-height:1.25"
         id="path44" />
      <path
         d="m 472.82378,316.60701 q 0.95508,0.20419 1.48861,0.8497 0.54011,0.6455 0.54011,1.594 0,1.45567 -1.00119,2.25267 -1.00119,0.797 -2.84548,0.797 -0.61916,0 -1.27783,-0.12515 -0.65209,-0.11856 -1.35029,-0.36227 v -1.28442 q 0.55329,0.32275 1.21196,0.48742 0.65868,0.16467 1.37664,0.16467 1.25148,0 1.90357,-0.49401 0.65868,-0.49401 0.65868,-1.43591 0,-0.86946 -0.61257,-1.35688 -0.60598,-0.49401 -1.6928,-0.49401 h -1.1461 v -1.0934 h 1.1988 q 0.98142,0 1.50178,-0.38862 0.52035,-0.3952 0.52035,-1.13292 0,-0.75748 -0.54011,-1.15927 -0.53353,-0.40838 -1.53472,-0.40838 -0.5467,0 -1.17244,0.11856 -0.62575,0.11856 -1.37664,0.36886 v -1.18562 q 0.75748,-0.21078 1.41616,-0.31617 0.66526,-0.10538 1.25148,-0.10538 1.51496,0 2.39759,0.69161 0.88262,0.68502 0.88262,1.85746 0,0.81676 -0.46766,1.38323 -0.46766,0.55987 -1.33052,0.77723 z"
         style="font-size:13.4897px;line-height:1.25"
         id="path46" />
    </g>
    <g
       aria-label="s4"
       transform="rotate(-90)"
       id="text5114-1"
       style="line-height:0%;font-family:'DejaVu Sans';-inkscape-font-specification:'DejaVu Sans';text-align:center;text-anchor:middle">
      <path
         d="m -313.02778,434.69565 v 1.1461 q -0.51376,-0.26347 -1.06705,-0.39521 -0.55329,-0.13173 -1.1461,-0.13173 -0.90239,0 -1.35687,0.27664 -0.44791,0.27665 -0.44791,0.82994 0,0.42155 0.32276,0.66526 0.32275,0.23712 1.29759,0.45449 l 0.41497,0.0922 q 1.291,0.27664 1.83112,0.78383 0.5467,0.50059 0.5467,1.40298 0,1.02753 -0.81676,1.62693 -0.81017,0.5994 -2.23291,0.5994 -0.59281,0 -1.23832,-0.11857 -0.63891,-0.11197 -1.35028,-0.34251 v -1.25148 q 0.67185,0.34909 1.32394,0.52694 0.65209,0.17125 1.291,0.17125 0.85628,0 1.31736,-0.28981 0.46107,-0.29641 0.46107,-0.82994 0,-0.49401 -0.33592,-0.75748 -0.32934,-0.26347 -1.45568,-0.50718 l -0.42155,-0.0988 q -1.12634,-0.23712 -1.62694,-0.72454 -0.50059,-0.49401 -0.50059,-1.35029 0,-1.04071 0.73772,-1.60717 0.73772,-0.56646 2.09459,-0.56646 0.67185,0 1.26466,0.0988 0.59281,0.0988 1.0934,0.2964 z"
         style="font-size:13.4897px;line-height:1.25"
         id="path49" />
      <path
         d="m -306.87574,433.1807 -3.35925,5.24965 h 3.35925 z m -0.34909,-1.15928 h 1.67303 v 6.40893 h 1.40299 v 1.10658 h -1.40299 v 2.31854 h -1.32394 v -2.31854 h -4.43948 v -1.28442 z"
         style="font-size:13.4897px;line-height:1.25"
         id="path51" />
    </g>
    <g
       aria-label="s5"
       transform="rotate(-90)"
       id="text5118-7"
       style="line-height:0%;font-family:'DejaVu Sans';-inkscape-font-specification:'DejaVu Sans';text-align:center;text-anchor:middle">
      <path
         d="m -274.57841,434.84012 v 1.1461 q -0.51376,-0.26347 -1.06705,-0.39521 -0.55329,-0.13173 -1.1461,-0.13173 -0.90239,0 -1.35687,0.27664 -0.4479,0.27665 -0.4479,0.82994 0,0.42155 0.32275,0.66526 0.32275,0.23712 1.29759,0.45449 l 0.41497,0.0922 q 1.291,0.27665 1.83112,0.78383 0.5467,0.50059 0.5467,1.40298 0,1.02753 -0.81676,1.62693 -0.81017,0.5994 -2.23291,0.5994 -0.59281,0 -1.23832,-0.11857 -0.63891,-0.11197 -1.35028,-0.34251 v -1.25148 q 0.67185,0.34909 1.32394,0.52694 0.65209,0.17125 1.291,0.17125 0.85628,0 1.31736,-0.28981 0.46107,-0.29641 0.46107,-0.82994 0,-0.49401 -0.33592,-0.75748 -0.32934,-0.26347 -1.45568,-0.50718 l -0.42155,-0.0988 q -1.12634,-0.23712 -1.62693,-0.72454 -0.5006,-0.49401 -0.5006,-1.35029 0,-1.04071 0.73772,-1.60717 0.73772,-0.56646 2.09459,-0.56646 0.67185,0 1.26466,0.0988 0.59281,0.0988 1.0934,0.2964 z"
         style="font-size:13.4897px;line-height:1.25"
         id="path54" />
      <path
         d="m -272.06885,432.16589 h 5.22331 v 1.11976 h -4.00476 v 2.41075 q 0.28982,-0.0988 0.57964,-0.14491 0.28982,-0.0527 0.57964,-0.0527 1.64669,0 2.60836,0.90239 0.96166,0.90238 0.96166,2.44369 0,1.58741 -0.98801,2.47004 -0.98802,0.87604 -2.7862,0.87604 -0.61916,0 -1.26466,-0.10539 -0.63892,-0.10539 -1.32394,-0.31617 v -1.33711 q 0.59281,0.32275 1.22514,0.48083 0.63233,0.15808 1.33711,0.15808 1.13951,0 1.80477,-0.59939 0.66527,-0.5994 0.66527,-1.62693 0,-1.02754 -0.66527,-1.62693 -0.66526,-0.5994 -1.80477,-0.5994 -0.53353,0 -1.06706,0.11856 -0.52694,0.11856 -1.08023,0.36886 z"
         style="font-size:13.4897px;line-height:1.25"
         id="path56" />
    </g>
    <g
       aria-label="s6"
       id="text5122-5"
       style="line-height:0%;font-family:'DejaVu Sans';-inkscape-font-specification:'DejaVu Sans';text-align:center;text-anchor:middle">
      <path
         d="m 466.18102,276.97828 v 1.14609 q -0.51376,-0.26347 -1.06705,-0.3952 -0.55329,-0.13174 -1.1461,-0.13174 -0.90239,0 -1.35687,0.27665 -0.4479,0.27664 -0.4479,0.82993 0,0.42155 0.32275,0.66526 0.32275,0.23713 1.29759,0.45449 l 0.41497,0.0922 q 1.291,0.27665 1.83112,0.78383 0.5467,0.50059 0.5467,1.40298 0,1.02754 -0.81676,1.62693 -0.81017,0.5994 -2.23291,0.5994 -0.59281,0 -1.23832,-0.11856 -0.63891,-0.11198 -1.35028,-0.34252 v -1.25148 q 0.67185,0.3491 1.32394,0.52694 0.65209,0.17126 1.291,0.17126 0.85628,0 1.31736,-0.28982 0.46107,-0.29641 0.46107,-0.82993 0,-0.49401 -0.33592,-0.75748 -0.32934,-0.26347 -1.45568,-0.50718 l -0.42155,-0.0988 q -1.12634,-0.23712 -1.62693,-0.72454 -0.5006,-0.49401 -0.5006,-1.35029 0,-1.04071 0.73772,-1.60717 0.73772,-0.56646 2.09459,-0.56646 0.67185,0 1.26466,0.0988 0.59281,0.0988 1.0934,0.29641 z"
         style="font-size:13.4897px;line-height:1.25"
         id="path59" />
      <path
         d="m 471.68756,278.69084 q -0.8958,0 -1.42274,0.61256 -0.52035,0.61257 -0.52035,1.67963 0,1.06047 0.52035,1.67963 0.52694,0.61257 1.42274,0.61257 0.8958,0 1.41616,-0.61257 0.52694,-0.61916 0.52694,-1.67963 0,-1.06706 -0.52694,-1.67963 -0.52036,-0.61256 -1.41616,-0.61256 z m 2.6413,-4.16943 v 1.21197 q -0.5006,-0.23713 -1.01437,-0.36228 -0.50718,-0.12514 -1.00777,-0.12514 -1.31736,0 -2.01555,0.88921 -0.69161,0.88921 -0.79041,2.6874 0.38861,-0.57305 0.97484,-0.87604 0.58622,-0.30958 1.291,-0.30958 1.48203,0 2.33831,0.90239 0.86286,0.8958 0.86286,2.44369 0,1.51496 -0.8958,2.43052 -0.8958,0.91556 -2.38441,0.91556 -1.70597,0 -2.60836,-1.30418 -0.90239,-1.31077 -0.90239,-3.79398 0,-2.33172 1.10658,-3.71494 1.10658,-1.3898 2.97063,-1.3898 0.5006,0 1.00778,0.0988 0.51377,0.0988 1.06706,0.2964 z"
         style="font-size:13.4897px;line-height:1.25"
         id="path61" />
    </g>
  </g>
</svg>
