<?xml version="1.0" encoding="UTF-8" standalone="no"?>
<!-- Created with Inkscape (http://www.inkscape.org/) -->

<svg
   width="115.74268mm"
   height="47.999996mm"
   viewBox="0 0 410.11184 170.07873"
   id="svg7930"
   version="1.1"
   xmlns="http://www.w3.org/2000/svg"
   xmlns:svg="http://www.w3.org/2000/svg"
   xmlns:rdf="http://www.w3.org/1999/02/22-rdf-syntax-ns#"
   xmlns:cc="http://creativecommons.org/ns#"
   xmlns:dc="http://purl.org/dc/elements/1.1/">
  <defs
     id="defs7932">
    <marker
       orient="auto"
       refY="0"
       refX="0"
       id="Arrow1Mendr"
       style="overflow:visible">
      <path
         id="path91234"
         d="M 0,0 5,-5 -12.5,0 5,5 Z"
         style="fill:#0000ff;fill-rule:evenodd;stroke:#0000ff;stroke-width:1.00000003pt;marker-start:none"
         transform="matrix(-0.4,0,0,-0.4,-4,0)" />
    </marker>
  </defs>
  <metadata
     id="metadata7935">
    <rdf:RDF>
      <cc:Work
         rdf:about="">
        <dc:format>image/svg+xml</dc:format>
        <dc:type
           rdf:resource="http://purl.org/dc/dcmitype/StillImage" />
        <dc:title />
      </cc:Work>
    </rdf:RDF>
  </metadata>
  <g
     id="layer1"
     transform="translate(-40.557758,-17.716486)">
    <g
       id="g91836"
       transform="translate(-389.76378,8769.6973)">
      <path
         style="fill:none;stroke:#636363;stroke-width:1.5;stroke-linecap:butt;stroke-linejoin:miter;stroke-miterlimit:4;stroke-dasharray:1.5, 1.5;stroke-dashoffset:0;stroke-opacity:1"
         d="m 481.88976,-8744.8942 v 155.9055"
         id="path90303" />
      <path
         id="path90305"
         d="m 623.62204,-8744.8942 v 155.9055"
         style="fill:none;stroke:#636363;stroke-width:1.5;stroke-linecap:butt;stroke-linejoin:miter;stroke-miterlimit:4;stroke-dasharray:1.5, 1.5;stroke-dashoffset:0;stroke-opacity:1" />
      <path
         style="fill:none;stroke:#636363;stroke-width:1.5;stroke-linecap:butt;stroke-linejoin:miter;stroke-miterlimit:4;stroke-dasharray:1.5, 1.5;stroke-dashoffset:0;stroke-opacity:1"
         d="m 552.7559,-8744.8942 v 155.9055"
         id="path90307" />
      <path
         style="fill:none;stroke:#800080;stroke-width:1.5;stroke-linecap:butt;stroke-linejoin:miter;stroke-miterlimit:4;stroke-dasharray:none;stroke-opacity:1"
         d="m 460.62992,-8656.3115 h 49.6063 l 7.08661,-21.2599 h 53.14961 l 7.08662,21.2599 h 95.66929"
         id="path88725" />
      <path
         id="path90287"
         d="m 460.62992,-8709.4611 h 14.17323 l 7.08661,-21.2599 h 28.34646 l 7.08661,21.2599 h 28.34646 l 7.08662,-21.2599 h 28.34646 l 7.08661,21.2599 h 27.88245 l 7.55062,-21.2599 h 28.34645 l 7.08662,21.2599 h 14.17323"
         style="fill:none;stroke:#800080;stroke-width:1.5;stroke-linecap:butt;stroke-linejoin:miter;stroke-miterlimit:4;stroke-dasharray:none;stroke-opacity:1" />
      <g
         aria-label="clk"
         id="text90289"
         style="line-height:0%;font-family:Iwona;-inkscape-font-specification:Iwona;text-align:end;text-anchor:end">
        <path
           d="m 443.32417,-8718.8807 v -0.7133 c -0.54343,-0.7642 -1.4265,-1.2227 -2.3775,-1.2227 -2.12278,0 -3.54928,1.5963 -3.54928,3.9908 0,2.3945 1.4265,3.9908 3.54928,3.9908 0.88307,0 1.7152,-0.4415 2.20768,-1.1717 v -0.7133 c -0.57739,0.8661 -1.17177,1.1718 -2.20768,1.1718 -1.22272,0 -2.05485,-1.3076 -2.05485,-3.2776 0,-1.9699 0.83213,-3.2775 2.05485,-3.2775 1.05289,0 1.76614,0.3736 2.3775,1.2227 z"
           style="font-size:16.9822px;line-height:1.25"
           id="path59" />
        <path
           d="m 448.29994,-8713.5993 v -0.5094 c -0.32266,0.2717 -0.69627,0.4925 -1.12083,0.4925 -0.62834,0 -0.74721,-0.7812 -0.74721,-1.5115 v -9.7647 h -1.32461 v 9.7647 c 0,1.1378 0.44153,2.2926 1.44348,2.2926 0.64533,0 1.25669,-0.3226 1.74917,-0.7642 z"
           style="font-size:16.9822px;line-height:1.25"
           id="path61" />
        <path
           d="m 456.57024,-8713.0049 -3.93987,-4.5342 3.80401,-3.1078 h -1.05289 l -4.05875,3.3285 v -7.574 h -1.32461 v 11.8875 h 1.32461 v -4.2286 l 3.66816,4.2286 z"
           style="font-size:16.9822px;line-height:1.25"
           id="path63" />
      </g>
      <g
         aria-label="x"
         id="text90293"
         style="line-height:0%;font-family:Iwona;-inkscape-font-specification:Iwona;text-align:end;text-anchor:end">
        <path
           d="m 455.2773,-8659.8545 -2.66621,-4.0757 2.5813,-3.5663 h -0.88307 l -2.1058,2.921 -1.902,-2.921 h -1.42651 l 2.53035,3.8889 -2.70017,3.7531 h 0.88307 l 2.24165,-3.1077 2.02089,3.1077 z"
           style="font-size:16.9822px;line-height:1.25"
           id="path66" />
      </g>
      <path
         id="path90297"
         d="m 460.62992,-8603.1619 h 92.12599 l 7.08661,-21.2599 h 63.77953 l 7.08662,21.2599 h 42.51968"
         style="fill:none;stroke:#784421;stroke-width:1.5;stroke-linecap:butt;stroke-linejoin:miter;stroke-miterlimit:4;stroke-dasharray:none;stroke-opacity:1" />
      <g
         aria-label="y"
         id="text90299"
         style="line-height:0%;font-family:Iwona;-inkscape-font-specification:Iwona;text-align:end;text-anchor:end;fill:#502d16">
        <path
           d="m 454.25837,-8605.6861 v -8.661 h -1.32462 v 5.9947 c -0.57739,0.5774 -1.29064,1.036 -2.08881,1.036 -0.79816,0 -1.40952,-0.6963 -1.40952,-1.5115 v -5.5192 h -1.32461 v 5.5192 c 0,1.2397 0.951,2.2926 2.17372,2.2926 1.01893,0 1.91899,-0.5774 2.64922,-1.2906 v 2.1398 c 0,1.1378 -0.50946,2.2756 -1.52839,2.2756 -0.79817,0 -1.56237,-0.1699 -2.2926,-0.4586 v 0.5265 c 0.86609,0.4415 1.83408,0.7133 2.81904,0.7133 1.44349,0 2.32657,-1.4945 2.32657,-3.0568 z"
           style="font-size:16.9822px;line-height:1.25"
           id="path69" />
      </g>
      <path
         id="path90309"
         style="fill:none;stroke:#0000ff;stroke-linecap:round"
         d="m 485.43308,-8656.3115 a 3.5433071,3.5433071 0 0 1 -3.54331,3.5433 3.5433071,3.5433071 0 0 1 -3.54331,-3.5433 3.5433071,3.5433071 0 0 1 3.54331,-3.5433 3.5433071,3.5433071 0 0 1 3.54331,3.5433 z" />
      <path
         id="path90311"
         style="fill:none;stroke:#0000ff;stroke-linecap:round"
         d="m 556.29923,-8677.5713 a 3.5433071,3.5433071 0 0 1 -3.54331,3.5433 3.5433071,3.5433071 0 0 1 -3.54331,-3.5433 3.5433071,3.5433071 0 0 1 3.54331,-3.5433 3.5433071,3.5433071 0 0 1 3.54331,3.5433 z" />
      <path
         id="path90313"
         style="fill:none;stroke:#0000ff;stroke-linecap:round"
         d="m 627.16538,-8656.3115 a 3.5433071,3.5433071 0 0 1 -3.54331,3.5433 3.5433071,3.5433071 0 0 1 -3.54331,-3.5433 3.5433071,3.5433071 0 0 1 3.54331,-3.5433 3.5433071,3.5433071 0 0 1 3.54331,3.5433 z" />
      <path
         style="fill:none;stroke:#0000ff;stroke-width:1px;stroke-linecap:butt;stroke-linejoin:miter;stroke-opacity:1;marker-end:url(#Arrow1Mendr)"
         d="m 481.88976,-8652.7682 c 7.08661,10.6299 7.08662,46.063 7.08662,46.063"
         id="path90315" />
      <path
         id="path91832"
         d="m 552.75591,-8674.0281 c 7.08661,10.63 7.08661,46.0631 7.08661,46.0631"
         style="fill:none;stroke:#0000ff;stroke-width:1px;stroke-linecap:butt;stroke-linejoin:miter;stroke-opacity:1;marker-end:url(#Arrow1Mendr)" />
      <path
         style="fill:none;stroke:#0000ff;stroke-width:1px;stroke-linecap:butt;stroke-linejoin:miter;stroke-opacity:1;marker-end:url(#Arrow1Mendr)"
         d="m 623.62205,-8652.7682 c 7.08661,10.63 7.08661,46.063 7.08661,46.063"
         id="path91834" />
    </g>
    <g
       id="g8457"
       transform="translate(-35.263461,0.02785091)">
      <g
         id="g88621"
         transform="translate(158.61023,910.17132)">
        <g
           id="g88623"
           transform="translate(97.713382,-848.8949)">
          <path
             id="rect88625"
             style="fill:#fff6d5;stroke:#000000;stroke-width:0.999213"
             d="m 129.72725,-1.0402113 h 60.23622 V 87.542468 h -60.23622 z" />
          <g
             id="g88627"
             transform="translate(277.79303,-113.38582)">
            <g
               aria-label="D"
               id="text88629"
               style="font-style:italic;line-height:0%;font-family:'Bitstream Vera Sans';-inkscape-font-specification:'Sans Italic'">
              <path
                 d="m -141.99153,125.83006 v 6.80274 h 1.42969 q 1.81054,0 2.64843,-0.82032 0.84375,-0.82031 0.84375,-2.58984 0,-1.75781 -0.84375,-2.57226 -0.83789,-0.82032 -2.64843,-0.82032 z m -1.1836,-0.97265 h 2.43165 q 2.54296,0 3.73242,1.06054 1.18945,1.05469 1.18945,3.30469 0,2.26172 -1.19531,3.32227 -1.19531,1.06054 -3.72656,1.06054 h -2.43165 z"
                 style="font-style:normal;font-size:12px;line-height:1.25"
                 id="path76" />
            </g>
          </g>
          <g
             id="g88633"
             transform="translate(283.79303,-60.692907)">
            <g
               aria-label="CLK"
               id="text88635"
               style="font-style:italic;line-height:0%;font-family:'Bitstream Vera Sans';-inkscape-font-specification:'Sans Italic'">
              <path
                 d="m -136.12044,125.53123 v 1.24805 q -0.59765,-0.55664 -1.27734,-0.83203 -0.67383,-0.27539 -1.43555,-0.27539 -1.5,0 -2.29687,0.91992 -0.79688,0.91406 -0.79688,2.64844 0,1.72851 0.79688,2.64844 0.79687,0.91406 2.29687,0.91406 0.76172,0 1.43555,-0.27539 0.67969,-0.27539 1.27734,-0.83203 v 1.23633 q -0.62109,0.42187 -1.31836,0.63281 -0.6914,0.21094 -1.46484,0.21094 -1.98633,0 -3.12891,-1.2129 -1.14258,-1.21875 -1.14258,-3.32226 0,-2.10938 1.14258,-3.32227 1.14258,-1.21875 3.12891,-1.21875 0.78516,0 1.47656,0.21094 0.69727,0.20508 1.30664,0.62109 z"
                 style="font-style:normal;font-size:12px;line-height:1.25"
                 id="path79" />
              <path
                 d="m -134.29231,124.85741 h 1.18359 v 7.75195 h 4.25977 v 0.99609 h -5.44336 z"
                 style="font-style:normal;font-size:12px;line-height:1.25"
                 id="path81" />
              <path
                 d="m -127.60677,124.85741 h 1.1836 v 3.69726 l 3.92578,-3.69726 h 1.52344 l -4.3418,4.07812 4.65234,4.66992 h -1.55859 l -4.20117,-4.21289 v 4.21289 h -1.1836 z"
                 style="font-style:normal;font-size:12px;line-height:1.25"
                 id="path83" />
            </g>
          </g>
          <g
             aria-label="Q"
             id="text88639"
             style="font-style:italic;line-height:0%;font-family:'Bitstream Vera Sans';-inkscape-font-specification:'Sans Italic'">
            <path
               d="m 180.63591,12.274317 q -1.28906,0 -2.05078,0.960937 -0.75586,0.960938 -0.75586,2.619141 0,1.652344 0.75586,2.613281 0.76172,0.960938 2.05078,0.960938 1.28906,0 2.03906,-0.960938 0.75586,-0.960937 0.75586,-2.613281 0,-1.658203 -0.75586,-2.619141 -0.75,-0.960937 -2.03906,-0.960937 z m 1.6582,7.787109 1.5586,1.705078 h -1.42969 l -1.29492,-1.40039 q -0.19336,0.01172 -0.29883,0.01758 -0.0996,0.0059 -0.19336,0.0059 -1.8457,0 -2.95312,-1.230469 -1.10157,-1.236328 -1.10157,-3.304687 0,-2.074219 1.10157,-3.304688 1.10742,-1.236328 2.95312,-1.236328 1.83984,0 2.94141,1.236328 1.10156,1.230469 1.10156,3.304688 0,1.523437 -0.61524,2.607422 -0.60937,1.083984 -1.76953,1.599609 z"
               style="font-style:normal;font-size:12px;line-height:1.25"
               id="path86" />
          </g>
          <path
             style="fill:none;stroke:#000000;stroke-width:1px;stroke-linecap:butt;stroke-linejoin:miter;stroke-opacity:1"
             d="m 129.72724,62.282626 7.08662,7.086614 -7.08662,7.086614"
             id="path88643" />
        </g>
        <path
           style="fill:none;stroke:#000000;stroke-width:1px;stroke-linecap:butt;stroke-linejoin:miter;stroke-opacity:1"
           d="m 209.311,-832.67527 h 17.71654"
           id="path88651" />
        <path
           id="path88653"
           d="M 287.26376,-832.67527 H 304.9803"
           style="fill:none;stroke:#000000;stroke-width:1px;stroke-linecap:butt;stroke-linejoin:miter;stroke-opacity:1" />
        <path
           id="path88655"
           d="m 209.311,-779.52566 h 17.71654"
           style="fill:none;stroke:#000000;stroke-width:1px;stroke-linecap:butt;stroke-linejoin:miter;stroke-opacity:1" />
      </g>
      <g
         aria-label="clk"
         id="text90289-0"
         style="line-height:0%;font-family:Iwona;-inkscape-font-specification:Iwona;text-align:center;text-anchor:middle">
        <path
           d="m 357.75396,114.59659 v -0.71326 c -0.54343,-0.7642 -1.42651,-1.22271 -2.37751,-1.22271 -2.12277,0 -3.54928,1.59632 -3.54928,3.99081 0,2.39449 1.42651,3.99082 3.54928,3.99082 0.88308,0 1.7152,-0.44154 2.20769,-1.17177 v -0.71325 c -0.5774,0.86609 -1.17177,1.17177 -2.20769,1.17177 -1.22272,0 -2.05484,-1.30763 -2.05484,-3.27757 0,-1.96993 0.83212,-3.27756 2.05484,-3.27756 1.0529,0 1.76615,0.37361 2.37751,1.22272 z"
           style="font-size:16.9822px;line-height:1.25"
           id="path89" />
        <path
           d="m 362.72973,119.87805 v -0.50947 c -0.32267,0.27172 -0.69627,0.49249 -1.12083,0.49249 -0.62834,0 -0.74722,-0.78118 -0.74722,-1.51142 v -9.76476 h -1.32461 v 9.76476 c 0,1.13781 0.44154,2.2926 1.44349,2.2926 0.64532,0 1.25668,-0.32266 1.74917,-0.7642 z"
           style="font-size:16.9822px;line-height:1.25"
           id="path91" />
        <path
           d="m 371.00003,120.47243 -3.93987,-4.53425 3.80401,-3.10774 h -1.0529 l -4.05874,3.32851 v -7.57406 h -1.32461 v 11.88754 h 1.32461 v -4.22857 l 3.66815,4.22857 z"
           style="font-size:16.9822px;line-height:1.25"
           id="path93" />
      </g>
      <g
         aria-label="x"
         id="text90293-9"
         style="line-height:0%;font-family:Iwona;-inkscape-font-specification:Iwona;text-align:center;text-anchor:middle">
        <path
           d="m 364.70963,63.779514 -2.66621,-4.075728 2.58129,-3.566262 h -0.88307 l -2.10579,2.920939 -1.90201,-2.920939 h -1.4265 l 2.53034,3.888924 -2.70017,3.753066 h 0.88308 l 2.24165,-3.107742 2.02088,3.107742 z"
           style="font-size:16.9822px;line-height:1.25"
           id="path96" />
      </g>
      <g
         aria-label="y"
         id="text90299-7"
         style="line-height:0%;font-family:Iwona;-inkscape-font-specification:Iwona;text-align:center;text-anchor:middle;fill:#502d16">
        <path
           d="m 474.33853,64.798446 v -8.660922 h -1.32461 v 5.994717 c -0.5774,0.577395 -1.29065,1.035914 -2.08882,1.035914 -0.79816,0 -1.40952,-0.69627 -1.40952,-1.511416 v -5.519215 h -1.32461 v 5.519215 c 0,1.239701 0.951,2.292597 2.17372,2.292597 1.01893,0 1.91899,-0.577395 2.64923,-1.290647 v 2.139757 c 0,1.137808 -0.50947,2.275615 -1.5284,2.275615 -0.79817,0 -1.56236,-0.169822 -2.2926,-0.458519 v 0.526448 c 0.86609,0.441537 1.83408,0.713252 2.81905,0.713252 1.44348,0 2.32656,-1.494433 2.32656,-3.056796 z"
           style="font-size:16.9822px;line-height:1.25"
           id="path99" />
      </g>
      <path
         style="fill:#afdde9;fill-opacity:1;fill-rule:evenodd;stroke:#000000;stroke-width:1px;stroke-linecap:butt;stroke-linejoin:miter;stroke-opacity:1"
         d="m 354.3307,70.866128 v 14.17323 h 14.17324 v -14.17323 z"
         id="path5193" />
      <path
         id="path8453"
         d="m 354.3307,124.01573 v 14.17323 h 14.17324 v -14.17323 z"
         style="fill:#afdde9;fill-opacity:1;fill-rule:evenodd;stroke:#000000;stroke-width:1px;stroke-linecap:butt;stroke-linejoin:miter;stroke-opacity:1" />
      <path
         style="fill:#afdde9;fill-opacity:1;fill-rule:evenodd;stroke:#000000;stroke-width:1px;stroke-linecap:butt;stroke-linejoin:miter;stroke-opacity:1"
         d="m 464.17321,70.866129 v 14.17323 h 14.17324 v -14.17323 z"
         id="path8455" />
    </g>
  </g>
</svg>
