<?xml version="1.0" encoding="UTF-8" standalone="no"?>
<!-- Created with Inkscape (http://www.inkscape.org/) -->

<svg
   width="139.85292mm"
   height="62.999992mm"
   viewBox="0 0 495.54184 223.22832"
   id="svg7930"
   version="1.1"
   xmlns="http://www.w3.org/2000/svg"
   xmlns:svg="http://www.w3.org/2000/svg"
   xmlns:rdf="http://www.w3.org/1999/02/22-rdf-syntax-ns#"
   xmlns:cc="http://creativecommons.org/ns#"
   xmlns:dc="http://purl.org/dc/elements/1.1/">
  <defs
     id="defs7932">
    <marker
       orient="auto"
       refY="0"
       refX="0"
       id="Arrow1Mendr-6"
       style="overflow:visible">
      <path
         id="path91234-9"
         d="M 0,0 5,-5 -12.5,0 5,5 Z"
         style="fill:#0000ff;fill-rule:evenodd;stroke:#0000ff;stroke-width:1.00000003pt;marker-start:none"
         transform="matrix(-0.4,0,0,-0.4,-4,0)" />
    </marker>
  </defs>
  <metadata
     id="metadata7935">
    <rdf:RDF>
      <cc:Work
         rdf:about="">
        <dc:format>image/svg+xml</dc:format>
        <dc:type
           rdf:resource="http://purl.org/dc/dcmitype/StillImage" />
        <dc:title />
      </cc:Work>
    </rdf:RDF>
  </metadata>
  <g
     id="layer1"
     transform="translate(-61.257391,-194.88179)">
    <g
       id="g91904"
       transform="translate(-361.41733,9000.0122)">
      <path
         id="path91906"
         d="m 467.71654,-8656.3115 h 49.6063 l 7.08661,-21.2599 194.4179,1e-4 7.08662,21.2599 25.26714,-10e-5"
         style="fill:none;stroke:#800080;stroke-width:1.5;stroke-linecap:butt;stroke-linejoin:miter;stroke-miterlimit:4;stroke-dasharray:none;stroke-opacity:1" />
      <path
         style="fill:none;stroke:#800080;stroke-width:1.5;stroke-linecap:butt;stroke-linejoin:miter;stroke-miterlimit:4;stroke-dasharray:none;stroke-opacity:1"
         d="m 467.71654,-8709.4611 134.18168,1e-4 7.08661,-21.2599 h 60.23623 l 7.08661,21.2599 h 74.40945"
         id="path91908" />
      <g
         aria-label="reset"
         id="text91910"
         style="line-height:0%;font-family:Iwona;-inkscape-font-specification:Iwona;text-align:end;text-anchor:end">
        <path
           d="m 434.023,-8719.594 v -1.0529 c -0.1868,-0.068 -0.39059,-0.1188 -0.57739,-0.1188 -0.95101,0 -1.71521,0.6623 -2.32656,1.3925 v -1.2737 h -1.32462 v 7.642 h 1.32462 v -5.6551 c 0.50946,-0.5943 1.15478,-1.1038 1.93597,-1.1038 0.32266,0 0.6623,0.068 0.96798,0.1698 z"
           style="font-size:16.9822px;line-height:1.25"
           id="path89" />
        <path
           d="m 441.86876,-8716.6561 v -0.1698 c 0,-2.3945 -1.30763,-3.9908 -3.27756,-3.9908 -1.98692,0 -3.29455,1.5963 -3.29455,3.9908 0,2.3945 1.30763,3.9908 3.29455,3.9908 0.84911,0 1.68123,-0.2717 2.37751,-0.7642 v -0.7132 c -0.79817,0.5095 -1.44349,0.6963 -2.37751,0.6963 -1.44349,0 -1.80012,-1.3756 -1.80012,-3.0399 z m -1.49443,-0.7132 h -3.58325 c 0,-1.3586 0.5774,-2.7341 1.80012,-2.7341 1.20573,0 1.78313,1.3755 1.78313,2.7341 z"
           style="font-size:16.9822px;line-height:1.25"
           id="path91" />
        <path
           d="m 449.23901,-8715.1786 c 0,-1.3416 -1.4265,-2.0379 -2.81904,-2.3775 -0.81515,-0.2038 -1.69822,-0.5434 -1.69822,-1.3416 0,-0.7302 0.74722,-1.2057 1.56236,-1.2057 0.90006,0 1.80011,0.2717 2.54733,0.7642 v -0.7133 c -0.74722,-0.4925 -1.64727,-0.7642 -2.54733,-0.7642 -1.47745,0 -2.83603,0.9001 -2.83603,2.2756 0,1.2397 1.37556,1.8171 2.68319,2.1398 0.90006,0.2207 1.83408,0.6962 1.83408,1.5623 0,0.7982 -0.81515,1.2907 -1.68124,1.2907 -1.05289,0 -2.07183,-0.2547 -2.97188,-0.7642 v 0.7132 c 0.90005,0.5095 1.91899,0.7642 2.97188,0.7642 1.5284,0 2.9549,-0.917 2.9549,-2.3435 z"
           style="font-size:16.9822px;line-height:1.25"
           id="path93" />
        <path
           d="m 457.50933,-8716.6561 v -0.1698 c 0,-2.3945 -1.30763,-3.9908 -3.27757,-3.9908 -1.98692,0 -3.29454,1.5963 -3.29454,3.9908 0,2.3945 1.30762,3.9908 3.29454,3.9908 0.84911,0 1.68124,-0.2717 2.37751,-0.7642 v -0.7132 c -0.79816,0.5095 -1.44349,0.6963 -2.37751,0.6963 -1.44348,0 -1.80011,-1.3756 -1.80011,-3.0399 z m -1.49444,-0.7132 h -3.58324 c 0,-1.3586 0.57739,-2.7341 1.80011,-2.7341 1.20574,0 1.78313,1.3755 1.78313,2.7341 z"
           style="font-size:16.9822px;line-height:1.25"
           id="path95" />
        <path
           d="m 463.31722,-8713.5993 v -0.5094 c -0.27172,0.2717 -0.59438,0.4925 -0.98497,0.4925 -0.61136,0 -0.64532,-0.7982 -0.64532,-1.5115 v -4.8059 h 1.63029 v -0.7133 h -1.63029 v -2.5473 h -0.79817 c 0,1.3586 -0.78118,2.6322 -2.02088,2.6322 v 0.6284 h 1.49443 v 4.8059 c 0,1.1209 0.35663,2.2926 1.32462,2.2926 0.62834,0 1.17177,-0.3396 1.63029,-0.7642 z"
           style="font-size:16.9822px;line-height:1.25"
           id="path97" />
      </g>
      <g
         aria-label="x"
         id="text91914"
         style="line-height:0%;font-family:Iwona;-inkscape-font-specification:Iwona;text-align:end;text-anchor:end">
        <path
           d="m 462.36391,-8659.8545 -2.66621,-4.0757 2.5813,-3.5663 h -0.88308 l -2.10579,2.921 -1.90201,-2.921 h -1.4265 l 2.53035,3.8889 -2.70017,3.7531 h 0.88307 l 2.24165,-3.1077 2.02088,3.1077 z"
           style="font-size:16.9822px;line-height:1.25"
           id="path100" />
      </g>
      <path
         style="fill:none;stroke:#784421;stroke-width:1.5;stroke-linecap:butt;stroke-linejoin:miter;stroke-miterlimit:4;stroke-dasharray:none;stroke-opacity:1"
         d="m 467.71654,-8603.1618 92.12599,-10e-5 7.08661,-21.2599 42.51969,10e-5 7.08661,21.2599 h 84.57538 l 7.08662,-21.2598 h 49.6063"
         id="path91918" />
      <g
         aria-label="y"
         id="text91920"
         style="line-height:0%;font-family:Iwona;-inkscape-font-specification:Iwona;text-align:end;text-anchor:end">
        <path
           d="m 461.34497,-8605.6861 v -8.661 h -1.32461 v 5.9947 c -0.57739,0.5774 -1.29064,1.036 -2.08881,1.036 -0.79816,0 -1.40952,-0.6963 -1.40952,-1.5115 v -5.5192 h -1.32461 v 5.5192 c 0,1.2397 0.951,2.2926 2.17372,2.2926 1.01893,0 1.91899,-0.5774 2.64922,-1.2906 v 2.1398 c 0,1.1378 -0.50946,2.2756 -1.5284,2.2756 -0.79816,0 -1.56236,-0.1699 -2.29259,-0.4586 v 0.5265 c 0.86609,0.4415 1.83408,0.7133 2.81904,0.7133 1.44349,0 2.32656,-1.4945 2.32656,-3.0568 z"
           style="font-size:16.9822px;line-height:1.25"
           id="path103" />
      </g>
      <path
         id="path91924"
         d="m 488.97638,-8798.0438 v 209.0551"
         style="fill:none;stroke:#636363;stroke-width:1.5;stroke-linecap:butt;stroke-linejoin:miter;stroke-miterlimit:4;stroke-dasharray:1.5, 1.5;stroke-dashoffset:0;stroke-opacity:1" />
      <path
         style="fill:none;stroke:#636363;stroke-width:1.5;stroke-linecap:butt;stroke-linejoin:miter;stroke-miterlimit:4;stroke-dasharray:1.5, 1.5;stroke-dashoffset:0;stroke-opacity:1"
         d="m 630.70867,-8798.0438 -10e-6,209.0551"
         id="path91926" />
      <path
         id="path91928"
         d="m 559.84252,-8798.0438 v 209.0551"
         style="fill:none;stroke:#636363;stroke-width:1.5;stroke-linecap:butt;stroke-linejoin:miter;stroke-miterlimit:4;stroke-dasharray:1.5, 1.5;stroke-dashoffset:0;stroke-opacity:1" />
      <path
         id="path91930"
         style="fill:none;stroke:#0000ff;stroke-linecap:round"
         d="m 562.62046,-8677.5713 a 3.5433071,3.5433071 0 0 1 -3.54331,3.5433 3.5433071,3.5433071 0 0 1 -3.54331,-3.5433 3.5433071,3.5433071 0 0 1 3.54331,-3.5433 3.5433071,3.5433071 0 0 1 3.54331,3.5433 z" />
      <path
         id="path91932"
         style="fill:none;stroke:#0000ff;stroke-linecap:round"
         d="m 703.88871,-8677.5713 a 3.5433071,3.5433071 0 0 1 -3.54331,3.5433 3.5433071,3.5433071 0 0 1 -3.54331,-3.5433 3.5433071,3.5433071 0 0 1 3.54331,-3.5433 3.5433071,3.5433071 0 0 1 3.54331,3.5433 z" />
      <path
         style="fill:none;stroke:#0000ff;stroke-width:1px;stroke-linecap:butt;stroke-linejoin:miter;stroke-opacity:1;marker-end:url(#Arrow1Mendr-6)"
         d="m 559.84253,-8674.0281 c 7.08661,10.63 7.08661,46.0631 7.08661,46.0631"
         id="path91934" />
      <path
         id="path91936"
         d="m 701.11082,-8674.0279 c 7.08661,10.63 7.5506,46.0629 7.5506,46.0629"
         style="fill:none;stroke:#0000ff;stroke-width:1px;stroke-linecap:butt;stroke-linejoin:miter;stroke-opacity:1;marker-end:url(#Arrow1Mendr-6)" />
      <path
         id="path91938"
         d="m 467.71655,-8762.6106 h 14.17323 l 7.08661,-21.2599 h 28.34646 l 7.08661,21.2599 h 28.34646 l 7.08662,-21.2599 H 588.189 l 7.08661,21.2599 h 27.88245 l 7.55062,-21.2599 h 28.34645 l 7.08662,21.2599 28.34644,-10e-5 7.12317,-21.2599 c -0.13217,0 28.21428,0 28.21428,0 l 6.80541,21.2598 14.55006,1e-4"
         style="fill:none;stroke:#800080;stroke-width:1.5;stroke-linecap:butt;stroke-linejoin:miter;stroke-miterlimit:4;stroke-dasharray:none;stroke-opacity:1" />
      <g
         aria-label="clk"
         id="text91940"
         style="line-height:0%;font-family:Iwona;-inkscape-font-specification:Iwona;text-align:end;text-anchor:end">
        <path
           d="m 450.41078,-8772.0301 v -0.7133 c -0.54343,-0.7642 -1.4265,-1.2227 -2.37751,-1.2227 -2.12277,0 -3.54928,1.5963 -3.54928,3.9908 0,2.3945 1.42651,3.9908 3.54928,3.9908 0.88308,0 1.71521,-0.4415 2.20769,-1.1717 v -0.7133 c -0.57739,0.8661 -1.17177,1.1718 -2.20769,1.1718 -1.22271,0 -2.05484,-1.3077 -2.05484,-3.2776 0,-1.9699 0.83213,-3.2776 2.05484,-3.2776 1.0529,0 1.76615,0.3737 2.37751,1.2228 z"
           style="font-size:16.9822px;line-height:1.25"
           id="path108" />
        <path
           d="m 455.38655,-8766.7487 v -0.5094 c -0.32266,0.2717 -0.69627,0.4924 -1.12083,0.4924 -0.62834,0 -0.74721,-0.7811 -0.74721,-1.5114 v -9.7647 h -1.32461 v 9.7647 c 0,1.1378 0.44153,2.2926 1.44348,2.2926 0.64533,0 1.25669,-0.3226 1.74917,-0.7642 z"
           style="font-size:16.9822px;line-height:1.25"
           id="path110" />
        <path
           d="m 463.65685,-8766.1543 -3.93987,-4.5342 3.80401,-3.1078 h -1.05289 l -4.05875,3.3285 v -7.574 h -1.32461 v 11.8875 h 1.32461 v -4.2286 l 3.66816,4.2286 z"
           style="font-size:16.9822px;line-height:1.25"
           id="path112" />
      </g>
      <path
         id="path91944"
         d="m 701.5748,-8798.0438 -10e-6,209.0551"
         style="fill:none;stroke:#636363;stroke-width:1.5;stroke-linecap:butt;stroke-linejoin:miter;stroke-miterlimit:4;stroke-dasharray:1.5, 1.5;stroke-dashoffset:0;stroke-opacity:1" />
      <path
         id="path91946"
         d="m 605.44152,-8720.0909 c 17.71654,38.9764 11.09392,113.3858 11.09392,113.3858"
         style="fill:none;stroke:#0000ff;stroke-width:1px;stroke-linecap:butt;stroke-linejoin:miter;stroke-opacity:1;marker-end:url(#Arrow1Mendr-6)" />
      <path
         id="path91948"
         d="m 602.81496,-8624.4216 27.89371,-1e-4 7.08661,21.2599"
         style="fill:none;stroke:#784421;stroke-width:1.5;stroke-linecap:butt;stroke-linejoin:miter;stroke-miterlimit:4;stroke-dasharray:3, 1.5, 0.75, 1.5;stroke-dashoffset:0;stroke-opacity:1" />
      <path
         style="fill:none;stroke:#0000ff;stroke-width:1;stroke-linecap:butt;stroke-linejoin:miter;stroke-miterlimit:4;stroke-dasharray:2, 1, 0.5, 1;stroke-dashoffset:0;stroke-opacity:1;marker-end:url(#Arrow1Mendr-6)"
         d="m 630.70869,-8730.7209 c 35.43308,53.1496 7.08659,124.0158 7.08659,124.0158"
         id="path91950" />
      <g
         aria-label="Reset
asynchrone"
         id="text91952"
         style="line-height:0%;font-family:Iwona;-inkscape-font-specification:Iwona;text-align:center;text-anchor:middle">
        <path
           d="m 582.66201,-8698.8311 -1.83892,-2.7367 c 0.94104,-0.1813 1.58855,-0.6994 1.58855,-1.6663 0,-1.2173 -1.04465,-1.7267 -2.40009,-1.7267 -0.48347,0 -0.96694,0.026 -1.44178,0.086 h -0.69067 v 6.0433 h 0.70794 v -2.8058 c 0.4662,0.086 0.94967,0.1381 1.42451,0.1381 l 1.80438,2.6677 z m -1.09645,-4.403 c 0,0.7856 -0.73384,1.3382 -1.55401,1.3382 -0.47484,0 -0.95831,-0.052 -1.42451,-0.1381 v -2.4433 c 0.47483,-0.06 0.94967,-0.086 1.42451,-0.086 0.82017,0 1.55401,0.5525 1.55401,1.3295 z"
           style="font-size:8.63341px;line-height:1.25"
           id="path115" />
        <path
           d="m 586.5643,-8700.6872 v -0.086 c 0,-1.2173 -0.66477,-2.0288 -1.66625,-2.0288 -1.01011,0 -1.67488,0.8115 -1.67488,2.0288 0,1.2173 0.66477,2.0289 1.67488,2.0289 0.43167,0 0.85471,-0.1382 1.20868,-0.3885 v -0.3626 c -0.40577,0.259 -0.73384,0.3539 -1.20868,0.3539 -0.73384,0 -0.91514,-0.6993 -0.91514,-1.5453 z m -0.75974,-0.3626 h -1.82165 c 0,-0.6907 0.29354,-1.39 0.91514,-1.39 0.61297,0 0.90651,0.6993 0.90651,1.39 z"
           style="font-size:8.63341px;line-height:1.25"
           id="path117" />
        <path
           d="m 590.31119,-8699.9361 c 0,-0.6821 -0.72521,-1.036 -1.43315,-1.2087 -0.4144,-0.1036 -0.86334,-0.2763 -0.86334,-0.682 0,-0.3713 0.37987,-0.613 0.79428,-0.613 0.45757,0 0.91514,0.1381 1.29501,0.3885 v -0.3626 c -0.37987,-0.2504 -0.83744,-0.3885 -1.29501,-0.3885 -0.75111,0 -1.44178,0.4575 -1.44178,1.1569 0,0.6302 0.6993,0.9237 1.36408,1.0878 0.45757,0.1122 0.9324,0.3539 0.9324,0.7942 0,0.4058 -0.4144,0.6562 -0.8547,0.6562 -0.53527,0 -1.05328,-0.1295 -1.51085,-0.3885 v 0.3626 c 0.45757,0.259 0.97558,0.3885 1.51085,0.3885 0.777,0 1.50221,-0.4662 1.50221,-1.1914 z"
           style="font-size:8.63341px;line-height:1.25"
           id="path119" />
        <path
           d="m 594.51565,-8700.6872 v -0.086 c 0,-1.2173 -0.66477,-2.0288 -1.66625,-2.0288 -1.01011,0 -1.67488,0.8115 -1.67488,2.0288 0,1.2173 0.66477,2.0289 1.67488,2.0289 0.43167,0 0.85471,-0.1382 1.20868,-0.3885 v -0.3626 c -0.40577,0.259 -0.73384,0.3539 -1.20868,0.3539 -0.73384,0 -0.91514,-0.6993 -0.91514,-1.5453 z m -0.75974,-0.3626 h -1.82165 c 0,-0.6907 0.29354,-1.39 0.91514,-1.39 0.61298,0 0.90651,0.6993 0.90651,1.39 z"
           style="font-size:8.63341px;line-height:1.25"
           id="path121" />
        <path
           d="m 597.46827,-8699.1332 v -0.259 c -0.13814,0.1381 -0.30217,0.2503 -0.50074,0.2503 -0.31081,0 -0.32807,-0.4057 -0.32807,-0.7683 v -2.4433 h 0.82881 v -0.3626 h -0.82881 v -1.295 h -0.40577 c 0,0.6907 -0.39714,1.3382 -1.02738,1.3382 v 0.3194 h 0.75974 v 2.4433 c 0,0.5698 0.1813,1.1655 0.67341,1.1655 0.31943,0 0.5957,-0.1727 0.82881,-0.3885 z"
           style="font-size:8.63341px;line-height:1.25"
           id="path123" />
        <path
           d="m 569.97523,-8688.0393 v -2.4173 c 0,-0.8289 -0.58707,-1.5541 -1.38134,-1.5541 -0.59571,0 -1.17415,0.19 -1.69215,0.4835 v 0.3799 c 0.39714,-0.1813 0.83744,-0.2936 1.27774,-0.2936 0.49211,0 0.84608,0.4662 0.84608,0.9843 v 0.1554 c -0.3367,-0.1468 -0.69931,-0.2331 -1.06191,-0.2331 -0.93241,0 -1.61445,0.423 -1.61445,1.295 0,0.8288 0.60434,1.2863 1.47631,1.2863 0.44031,0 0.85471,-0.1985 1.20005,-0.4748 v 0.3885 z m -0.94967,-1.8475 v 1.0446 c -0.2331,0.2072 -0.50937,0.3712 -0.81154,0.3712 -0.44894,0 -0.82881,-0.3367 -0.82881,-0.7683 0,-0.4403 0.37987,-0.777 0.82881,-0.777 0.27627,0 0.5439,0.043 0.81154,0.1295 z"
           style="font-weight:bold;fill:#d45500"
           id="path125" />
        <path
           d="m 574.14516,-8689.2221 c 0,-0.7252 -0.78564,-1.0791 -1.54538,-1.2518 -0.34533,-0.078 -0.71657,-0.2245 -0.71657,-0.5526 0,-0.2935 0.30217,-0.4662 0.63024,-0.4662 0.48347,0 0.96694,0.1036 1.41588,0.3108 v -0.518 c -0.44894,-0.2072 -0.93241,-0.3108 -1.41588,-0.3108 -0.80291,0 -1.54538,0.4835 -1.54538,1.226 0,0.6734 0.74247,0.9842 1.45041,1.1396 0.39714,0.095 0.81154,0.2849 0.81154,0.6734 0,0.3194 -0.35397,0.5007 -0.71657,0.5007 -0.56117,0 -1.12235,-0.1036 -1.64035,-0.3108 v 0.518 c 0.518,0.2072 1.07918,0.3108 1.64035,0.3108 0.83744,0 1.63171,-0.4921 1.63171,-1.2691 z"
           style="font-weight:bold;fill:#d45500"
           id="path127" />
        <path
           d="m 578.47049,-8687.5213 v -4.403 h -0.94968 v 3.0044 c -0.25037,0.2245 -0.55254,0.3971 -0.88924,0.3971 -0.3367,0 -0.60434,-0.2676 -0.60434,-0.5957 v -2.8058 h -0.94967 v 2.8058 c 0,0.6303 0.48347,1.1655 1.10507,1.1655 0.50074,0 0.95831,-0.2503 1.33818,-0.587 v 1.0187 c 0,0.5008 -0.24173,0.9842 -0.69067,0.9842 -0.35397,0 -0.70794,-0.06 -1.03601,-0.1726 v 0.3798 c 0.45757,0.2245 0.95831,0.3626 1.46768,0.3626 0.74247,0 1.20868,-0.7511 1.20868,-1.554 z"
           style="font-weight:bold;fill:#d45500"
           id="path129" />
        <path
           d="m 583.10662,-8688.0393 v -2.8059 c 0,-0.6302 -0.48347,-1.1655 -1.10508,-1.1655 -0.52663,0 -0.97557,0.3367 -1.33817,0.7339 v -0.6475 h -0.94968 v 3.885 h 0.94968 v -2.8577 c 0.2331,-0.2849 0.52663,-0.5439 0.88924,-0.5439 0.3367,0 0.60434,0.2677 0.60434,0.5957 v 2.8059 z"
           style="font-weight:bold;fill:#d45500"
           id="path131" />
        <path
           d="m 587.39742,-8690.802 v -0.518 c -0.29354,-0.4317 -0.78564,-0.6907 -1.31228,-0.6907 -1.17415,0 -1.95979,0.8116 -1.95979,2.0289 0,1.2173 0.78564,2.0288 1.95979,2.0288 0.4921,0 0.95831,-0.2503 1.22594,-0.6561 v -0.518 c -0.31943,0.4835 -0.6475,0.6561 -1.22594,0.6561 -0.55254,0 -0.92378,-0.6043 -0.92378,-1.5108 0,-0.9065 0.37124,-1.5109 0.92378,-1.5109 0.58707,0 0.98421,0.2159 1.31228,0.6907 z"
           style="font-weight:bold;fill:#d45500"
           id="path133" />
        <path
           d="m 591.60187,-8688.0393 v -2.8059 c 0,-0.6302 -0.48347,-1.1655 -1.10507,-1.1655 -0.52664,0 -0.97558,0.3367 -1.33818,0.7339 v -2.8059 h -0.94968 v 6.0434 h 0.94968 v -2.8577 c 0.2331,-0.2849 0.52664,-0.5439 0.88924,-0.5439 0.3367,0 0.60434,0.2677 0.60434,0.5957 v 2.8059 z"
           style="font-weight:bold;fill:#d45500"
           id="path135" />
        <path
           d="m 595.1502,-8691.1646 v -0.7597 c -0.0863,-0.035 -0.1813,-0.06 -0.27627,-0.06 -0.48347,0 -0.82881,0.3885 -1.11371,0.7857 v -0.7252 h -0.94968 v 3.885 h 0.94968 v -2.6418 c 0.24173,-0.3022 0.5439,-0.5871 0.92377,-0.5871 0.16404,0 0.31944,0.034 0.46621,0.1036 z"
           style="font-weight:bold;fill:#d45500"
           id="path137" />
        <path
           d="m 599.36328,-8689.9818 c 0,-1.3209 -0.63887,-2.0289 -1.81301,-2.0289 -1.17415,0 -1.81302,0.708 -1.81302,2.0289 0,1.3209 0.63887,2.0288 1.81302,2.0288 1.17414,0 1.81301,-0.7079 1.81301,-2.0288 z m -1.036,0 c 0,0.9842 -0.27627,1.5108 -0.77701,1.5108 -0.50074,0 -0.77701,-0.5266 -0.77701,-1.5108 0,-0.9842 0.27627,-1.5109 0.77701,-1.5109 0.50074,0 0.77701,0.5267 0.77701,1.5109 z"
           style="font-weight:bold;fill:#d45500"
           id="path139" />
        <path
           d="m 603.80085,-8688.0393 v -2.8059 c 0,-0.6302 -0.48347,-1.1655 -1.10508,-1.1655 -0.52663,0 -0.97557,0.3367 -1.33817,0.7339 v -0.6475 h -0.94968 v 3.885 h 0.94968 v -2.8577 c 0.2331,-0.2849 0.52663,-0.5439 0.88924,-0.5439 0.3367,0 0.60434,0.2677 0.60434,0.5957 v 2.8059 z"
           style="font-weight:bold;fill:#d45500"
           id="path141" />
        <path
           d="m 608.44562,-8689.8955 v -0.086 c 0,-1.2173 -0.72521,-2.0289 -1.81302,-2.0289 -1.08781,0 -1.81301,0.8116 -1.81301,2.0289 0,1.2173 0.7252,2.0288 1.81301,2.0288 0.46621,0 0.91514,-0.1295 1.31228,-0.3712 v -0.518 c -0.44894,0.2331 -0.80291,0.3194 -1.31228,0.3194 -0.6475,0 -0.777,-0.6302 -0.777,-1.3727 z m -1.03601,-0.4144 h -1.55401 c 0,-0.5871 0.25036,-1.1828 0.777,-1.1828 0.52664,0 0.77701,0.5957 0.77701,1.1828 z"
           style="font-weight:bold;fill:#d45500"
           id="path143" />
      </g>
      <g
         aria-label="Reset
synchrone"
         id="text91962"
         style="line-height:0%;font-family:Iwona;-inkscape-font-specification:Iwona;text-align:center;text-anchor:middle">
        <path
           d="m 664.93239,-8698.8311 -1.83892,-2.7367 c 0.94105,-0.1813 1.58855,-0.6994 1.58855,-1.6663 0,-1.2173 -1.04464,-1.7267 -2.40009,-1.7267 -0.48347,0 -0.96694,0.026 -1.44178,0.086 h -0.69067 v 6.0433 h 0.70794 v -2.8058 c 0.46621,0.086 0.94968,0.1381 1.42451,0.1381 l 1.80439,2.6677 z m -1.09644,-4.403 c 0,0.7856 -0.73384,1.3382 -1.55402,1.3382 -0.47483,0 -0.9583,-0.052 -1.42451,-0.1381 v -2.4433 c 0.47484,-0.06 0.94968,-0.086 1.42451,-0.086 0.82018,0 1.55402,0.5525 1.55402,1.3295 z"
           style="font-size:8.63341px;line-height:1.25"
           id="path146" />
        <path
           d="m 668.83469,-8700.6872 v -0.086 c 0,-1.2173 -0.66478,-2.0288 -1.66625,-2.0288 -1.01011,0 -1.67488,0.8115 -1.67488,2.0288 0,1.2173 0.66477,2.0289 1.67488,2.0289 0.43167,0 0.85471,-0.1382 1.20868,-0.3885 v -0.3626 c -0.40577,0.259 -0.73384,0.3539 -1.20868,0.3539 -0.73384,0 -0.91514,-0.6993 -0.91514,-1.5453 z m -0.75974,-0.3626 h -1.82165 c 0,-0.6907 0.29353,-1.39 0.91514,-1.39 0.61297,0 0.90651,0.6993 0.90651,1.39 z"
           style="font-size:8.63341px;line-height:1.25"
           id="path148" />
        <path
           d="m 672.58158,-8699.9361 c 0,-0.6821 -0.72521,-1.036 -1.43315,-1.2087 -0.4144,-0.1036 -0.86334,-0.2763 -0.86334,-0.682 0,-0.3713 0.37987,-0.613 0.79427,-0.613 0.45757,0 0.91514,0.1381 1.29501,0.3885 v -0.3626 c -0.37987,-0.2504 -0.83744,-0.3885 -1.29501,-0.3885 -0.7511,0 -1.44178,0.4575 -1.44178,1.1569 0,0.6302 0.69931,0.9237 1.36408,1.0878 0.45757,0.1122 0.93241,0.3539 0.93241,0.7942 0,0.4058 -0.4144,0.6562 -0.85471,0.6562 -0.53527,0 -1.05327,-0.1295 -1.51084,-0.3885 v 0.3626 c 0.45757,0.259 0.97557,0.3885 1.51084,0.3885 0.77701,0 1.50222,-0.4662 1.50222,-1.1914 z"
           style="font-size:8.63341px;line-height:1.25"
           id="path150" />
        <path
           d="m 676.78604,-8700.6872 v -0.086 c 0,-1.2173 -0.66478,-2.0288 -1.66625,-2.0288 -1.01011,0 -1.67488,0.8115 -1.67488,2.0288 0,1.2173 0.66477,2.0289 1.67488,2.0289 0.43167,0 0.85471,-0.1382 1.20868,-0.3885 v -0.3626 c -0.40577,0.259 -0.73384,0.3539 -1.20868,0.3539 -0.73384,0 -0.91514,-0.6993 -0.91514,-1.5453 z m -0.75974,-0.3626 h -1.82165 c 0,-0.6907 0.29353,-1.39 0.91514,-1.39 0.61297,0 0.90651,0.6993 0.90651,1.39 z"
           style="font-size:8.63341px;line-height:1.25"
           id="path152" />
        <path
           d="m 679.73865,-8699.1332 v -0.259 c -0.13813,0.1381 -0.30217,0.2503 -0.50074,0.2503 -0.3108,0 -0.32807,-0.4057 -0.32807,-0.7683 v -2.4433 h 0.82881 v -0.3626 h -0.82881 v -1.295 h -0.40577 c 0,0.6907 -0.39713,1.3382 -1.02737,1.3382 v 0.3194 h 0.75974 v 2.4433 c 0,0.5698 0.1813,1.1655 0.6734,1.1655 0.31944,0 0.59571,-0.1727 0.82881,-0.3885 z"
           style="font-size:8.63341px;line-height:1.25"
           id="path154" />
        <path
           d="m 654.11475,-8689.2221 c 0,-0.7252 -0.78564,-1.0791 -1.54538,-1.2518 -0.34534,-0.078 -0.71657,-0.2245 -0.71657,-0.5526 0,-0.2935 0.30216,-0.4662 0.63023,-0.4662 0.48347,0 0.96695,0.1036 1.41588,0.3108 v -0.518 c -0.44893,-0.2072 -0.93241,-0.3108 -1.41588,-0.3108 -0.8029,0 -1.54538,0.4835 -1.54538,1.226 0,0.6734 0.74248,0.9842 1.45042,1.1396 0.39713,0.095 0.81154,0.2849 0.81154,0.6734 0,0.3194 -0.35397,0.5007 -0.71658,0.5007 -0.56117,0 -1.12234,-0.1036 -1.64034,-0.3108 v 0.518 c 0.518,0.2072 1.07917,0.3108 1.64034,0.3108 0.83744,0 1.63172,-0.4921 1.63172,-1.2691 z"
           style="font-weight:bold;fill:#d45500"
           id="path156" />
        <path
           d="m 658.44007,-8687.5213 v -4.403 h -0.94967 v 3.0044 c -0.25037,0.2245 -0.55254,0.3971 -0.88924,0.3971 -0.33671,0 -0.60434,-0.2676 -0.60434,-0.5957 v -2.8058 h -0.94968 v 2.8058 c 0,0.6303 0.48347,1.1655 1.10508,1.1655 0.50074,0 0.95831,-0.2503 1.33818,-0.587 v 1.0187 c 0,0.5008 -0.24174,0.9842 -0.69068,0.9842 -0.35397,0 -0.70794,-0.06 -1.036,-0.1726 v 0.3798 c 0.45757,0.2245 0.9583,0.3626 1.46768,0.3626 0.74247,0 1.20867,-0.7511 1.20867,-1.554 z"
           style="font-weight:bold;fill:#d45500"
           id="path158" />
        <path
           d="m 663.07621,-8688.0393 v -2.8059 c 0,-0.6302 -0.48348,-1.1655 -1.10508,-1.1655 -0.52664,0 -0.97558,0.3367 -1.33818,0.7339 v -0.6475 h -0.94967 v 3.885 h 0.94967 v -2.8577 c 0.2331,-0.2849 0.52664,-0.5439 0.88924,-0.5439 0.3367,0 0.60434,0.2677 0.60434,0.5957 v 2.8059 z"
           style="font-weight:bold;fill:#d45500"
           id="path160" />
        <path
           d="m 667.367,-8690.802 v -0.518 c -0.29353,-0.4317 -0.78564,-0.6907 -1.31228,-0.6907 -1.17414,0 -1.95978,0.8116 -1.95978,2.0289 0,1.2173 0.78564,2.0288 1.95978,2.0288 0.49211,0 0.95831,-0.2503 1.22595,-0.6561 v -0.518 c -0.31944,0.4835 -0.64751,0.6561 -1.22595,0.6561 -0.55253,0 -0.92377,-0.6043 -0.92377,-1.5108 0,-0.9065 0.37124,-1.5109 0.92377,-1.5109 0.58708,0 0.98421,0.2159 1.31228,0.6907 z"
           style="font-weight:bold;fill:#d45500"
           id="path162" />
        <path
           d="m 671.57146,-8688.0393 v -2.8059 c 0,-0.6302 -0.48347,-1.1655 -1.10508,-1.1655 -0.52664,0 -0.97557,0.3367 -1.33818,0.7339 v -2.8059 h -0.94967 v 6.0434 h 0.94967 v -2.8577 c 0.2331,-0.2849 0.52664,-0.5439 0.88924,-0.5439 0.33671,0 0.60434,0.2677 0.60434,0.5957 v 2.8059 z"
           style="font-weight:bold;fill:#d45500"
           id="path164" />
        <path
           d="m 675.11978,-8691.1646 v -0.7597 c -0.0863,-0.035 -0.1813,-0.06 -0.27627,-0.06 -0.48347,0 -0.8288,0.3885 -1.11371,0.7857 v -0.7252 h -0.94967 v 3.885 h 0.94967 v -2.6418 c 0.24174,-0.3022 0.54391,-0.5871 0.92378,-0.5871 0.16403,0 0.31943,0.034 0.4662,0.1036 z"
           style="font-weight:bold;fill:#d45500"
           id="path166" />
        <path
           d="m 679.33287,-8689.9818 c 0,-1.3209 -0.63887,-2.0289 -1.81301,-2.0289 -1.17415,0 -1.81302,0.708 -1.81302,2.0289 0,1.3209 0.63887,2.0288 1.81302,2.0288 1.17414,0 1.81301,-0.7079 1.81301,-2.0288 z m -1.03601,0 c 0,0.9842 -0.27627,1.5108 -0.777,1.5108 -0.50074,0 -0.77701,-0.5266 -0.77701,-1.5108 0,-0.9842 0.27627,-1.5109 0.77701,-1.5109 0.50073,0 0.777,0.5267 0.777,1.5109 z"
           style="font-weight:bold;fill:#d45500"
           id="path168" />
        <path
           d="m 683.77044,-8688.0393 v -2.8059 c 0,-0.6302 -0.48347,-1.1655 -1.10508,-1.1655 -0.52664,0 -0.97558,0.3367 -1.33818,0.7339 v -0.6475 h -0.94967 v 3.885 h 0.94967 v -2.8577 c 0.2331,-0.2849 0.52664,-0.5439 0.88924,-0.5439 0.33671,0 0.60434,0.2677 0.60434,0.5957 v 2.8059 z"
           style="font-weight:bold;fill:#d45500"
           id="path170" />
        <path
           d="m 688.4152,-8689.8955 v -0.086 c 0,-1.2173 -0.7252,-2.0289 -1.81301,-2.0289 -1.08781,0 -1.81302,0.8116 -1.81302,2.0289 0,1.2173 0.72521,2.0288 1.81302,2.0288 0.4662,0 0.91514,-0.1295 1.31228,-0.3712 v -0.518 c -0.44894,0.2331 -0.80291,0.3194 -1.31228,0.3194 -0.64751,0 -0.77701,-0.6302 -0.77701,-1.3727 z m -1.03601,-0.4144 h -1.55401 c 0,-0.5871 0.25037,-1.1828 0.77701,-1.1828 0.52664,0 0.777,0.5957 0.777,1.1828 z"
           style="font-weight:bold;fill:#d45500"
           id="path172" />
      </g>
    </g>
    <g
       id="g8791"
       transform="translate(17.71655,-13.980541)">
      <g
         id="g88673"
         transform="translate(211.92953,1105.0532)">
        <g
           id="g88675"
           transform="translate(97.713382,-848.8949)">
          <path
             id="rect88677"
             style="fill:#fff6d5;stroke:#000000;stroke-width:0.999213"
             d="m 129.72725,-1.0402113 h 60.23622 V 87.542468 h -60.23622 z" />
          <g
             id="g88679"
             transform="translate(277.79303,-113.38582)">
            <g
               aria-label="D"
               id="text88681"
               style="font-style:italic;line-height:0%;font-family:'Bitstream Vera Sans';-inkscape-font-specification:'Sans Italic'">
              <path
                 d="m -141.99153,125.83006 v 6.80274 h 1.42969 q 1.81054,0 2.64843,-0.82032 0.84375,-0.82031 0.84375,-2.58984 0,-1.75781 -0.84375,-2.57226 -0.83789,-0.82032 -2.64843,-0.82032 z m -1.1836,-0.97265 h 2.43165 q 2.54296,0 3.73242,1.06054 1.18945,1.05469 1.18945,3.30469 0,2.26172 -1.19531,3.32227 -1.19531,1.06054 -3.72656,1.06054 h -2.43165 z"
                 style="font-style:normal;font-size:12px;line-height:1.25"
                 id="path176" />
            </g>
          </g>
          <g
             id="g88685"
             transform="translate(283.79303,-60.692907)">
            <g
               aria-label="CLK"
               id="text88687"
               style="font-style:italic;line-height:0%;font-family:'Bitstream Vera Sans';-inkscape-font-specification:'Sans Italic'">
              <path
                 d="m -136.12044,125.53123 v 1.24805 q -0.59765,-0.55664 -1.27734,-0.83203 -0.67383,-0.27539 -1.43555,-0.27539 -1.5,0 -2.29687,0.91992 -0.79688,0.91406 -0.79688,2.64844 0,1.72851 0.79688,2.64844 0.79687,0.91406 2.29687,0.91406 0.76172,0 1.43555,-0.27539 0.67969,-0.27539 1.27734,-0.83203 v 1.23633 q -0.62109,0.42187 -1.31836,0.63281 -0.6914,0.21094 -1.46484,0.21094 -1.98633,0 -3.12891,-1.2129 -1.14258,-1.21875 -1.14258,-3.32226 0,-2.10938 1.14258,-3.32227 1.14258,-1.21875 3.12891,-1.21875 0.78516,0 1.47656,0.21094 0.69727,0.20508 1.30664,0.62109 z"
                 style="font-style:normal;font-size:12px;line-height:1.25"
                 id="path179" />
              <path
                 d="m -134.29231,124.85741 h 1.18359 v 7.75195 h 4.25977 v 0.99609 h -5.44336 z"
                 style="font-style:normal;font-size:12px;line-height:1.25"
                 id="path181" />
              <path
                 d="m -127.60677,124.85741 h 1.1836 v 3.69726 l 3.92578,-3.69726 h 1.52344 l -4.3418,4.07812 4.65234,4.66992 h -1.55859 l -4.20117,-4.21289 v 4.21289 h -1.1836 z"
                 style="font-style:normal;font-size:12px;line-height:1.25"
                 id="path183" />
            </g>
          </g>
          <g
             aria-label="Q"
             id="text88691"
             style="font-style:italic;line-height:0%;font-family:'Bitstream Vera Sans';-inkscape-font-specification:'Sans Italic'">
            <path
               d="m 180.63591,12.274317 q -1.28906,0 -2.05078,0.960937 -0.75586,0.960938 -0.75586,2.619141 0,1.652344 0.75586,2.613281 0.76172,0.960938 2.05078,0.960938 1.28906,0 2.03906,-0.960938 0.75586,-0.960937 0.75586,-2.613281 0,-1.658203 -0.75586,-2.619141 -0.75,-0.960937 -2.03906,-0.960937 z m 1.6582,7.787109 1.5586,1.705078 h -1.42969 l -1.29492,-1.40039 q -0.19336,0.01172 -0.29883,0.01758 -0.0996,0.0059 -0.19336,0.0059 -1.8457,0 -2.95312,-1.230469 -1.10157,-1.236328 -1.10157,-3.304687 0,-2.074219 1.10157,-3.304688 1.10742,-1.236328 2.95312,-1.236328 1.83984,0 2.94141,1.236328 1.10156,1.230469 1.10156,3.304688 0,1.523437 -0.61524,2.607422 -0.60937,1.083984 -1.76953,1.599609 z"
               style="font-style:normal;font-size:12px;line-height:1.25"
               id="path186" />
          </g>
          <path
             style="fill:none;stroke:#000000;stroke-width:1px;stroke-linecap:butt;stroke-linejoin:miter;stroke-opacity:1"
             d="m 129.72724,62.282626 7.08662,7.086614 -7.08662,7.086614"
             id="path88695" />
          <g
             aria-label="R"
             id="text88709"
             style="font-style:italic;line-height:0%;font-family:'Bitstream Vera Sans';-inkscape-font-specification:'Sans Italic'">
            <path
               d="m 174.02971,79.897598 q 0.38086,0.128907 0.73828,0.550782 0.36328,0.421875 0.72656,1.160156 l 1.20117,2.390625 h -1.27148 L 174.3051,81.75502 q -0.43359,-0.878906 -0.84375,-1.166015 -0.4043,-0.28711 -1.10742,-0.28711 h -1.28906 v 3.697266 h -1.1836 v -8.748047 h 2.67188 q 1.5,0 2.23828,0.626953 0.73828,0.626953 0.73828,1.892578 0,0.826172 -0.38672,1.371094 -0.38086,0.544922 -1.11328,0.755859 z m -2.96484,-3.673828 v 3.105469 h 1.48828 q 0.85547,0 1.28906,-0.392578 0.43945,-0.398438 0.43945,-1.166016 0,-0.767578 -0.43945,-1.154297 -0.43359,-0.392578 -1.28906,-0.392578 z"
               style="font-style:normal;font-size:12px;line-height:1.25"
               id="path189" />
          </g>
        </g>
        <path
           style="fill:none;stroke:#000000;stroke-width:1px;stroke-linecap:butt;stroke-linejoin:miter;stroke-opacity:1"
           d="m 209.311,-832.67527 h 17.71654"
           id="path88713" />
        <path
           id="path88715"
           d="M 287.26376,-832.67527 H 304.9803"
           style="fill:none;stroke:#000000;stroke-width:1px;stroke-linecap:butt;stroke-linejoin:miter;stroke-opacity:1" />
        <path
           id="path88717"
           d="m 209.311,-779.52566 h 17.71654"
           style="fill:none;stroke:#000000;stroke-width:1px;stroke-linecap:butt;stroke-linejoin:miter;stroke-opacity:1" />
        <path
           style="fill:none;stroke:#000000;stroke-width:1px;stroke-linecap:butt;stroke-linejoin:miter;stroke-opacity:1"
           d="m 269.96023,-761.35243 v 17.71654"
           id="path88723" />
      </g>
      <g
         transform="translate(-35.263461)"
         id="g8457">
        <g
           aria-label="clk"
           id="text90289-0"
           style="line-height:0%;font-family:Iwona;-inkscape-font-specification:Iwona;text-align:center;text-anchor:middle">
          <path
             d="m 446.16702,309.4785 v -0.71325 c -0.54344,-0.7642 -1.42651,-1.22272 -2.37751,-1.22272 -2.12278,0 -3.54928,1.59632 -3.54928,3.99081 0,2.39449 1.4265,3.99082 3.54928,3.99082 0.88307,0 1.7152,-0.44154 2.20768,-1.17177 v -0.71325 c -0.57739,0.86609 -1.17177,1.17177 -2.20768,1.17177 -1.22272,0 -2.05485,-1.30763 -2.05485,-3.27757 0,-1.96993 0.83213,-3.27756 2.05485,-3.27756 1.05289,0 1.76615,0.37361 2.37751,1.22272 z"
             style="font-size:16.9822px;line-height:1.25"
             id="path192" />
          <path
             d="m 451.14278,314.75996 v -0.50946 c -0.32266,0.27171 -0.69627,0.49248 -1.12082,0.49248 -0.62834,0 -0.74722,-0.78118 -0.74722,-1.51142 v -9.76476 h -1.32461 v 9.76476 c 0,1.13781 0.44154,2.2926 1.44349,2.2926 0.64532,0 1.25668,-0.32266 1.74916,-0.7642 z"
             style="font-size:16.9822px;line-height:1.25"
             id="path194" />
          <path
             d="m 459.41308,315.35434 -3.93987,-4.53425 3.80402,-3.10774 h -1.0529 l -4.05875,3.32851 v -7.57406 h -1.32461 v 11.88754 h 1.32461 v -4.22857 l 3.66816,4.22857 z"
             style="font-size:16.9822px;line-height:1.25"
             id="path196" />
        </g>
        <g
           aria-label="x"
           id="text90293-9"
           style="line-height:0%;font-family:Iwona;-inkscape-font-specification:Iwona;text-align:center;text-anchor:middle">
          <path
             d="m 453.12268,258.66141 -2.6662,-4.07573 2.58129,-3.56626 h -0.88307 l -2.1058,2.92094 -1.902,-2.92094 h -1.42651 l 2.53035,3.88892 -2.70017,3.75307 h 0.88307 l 2.24165,-3.10775 2.02089,3.10775 z"
             style="font-size:16.9822px;line-height:1.25"
             id="path199" />
        </g>
        <g
           aria-label="y"
           id="text90299-7"
           style="line-height:0%;font-family:Iwona;-inkscape-font-specification:Iwona;text-align:center;text-anchor:middle;fill:#502d16">
          <path
             d="m 562.75161,259.68034 v -8.66092 H 561.427 v 5.99471 c -0.57739,0.5774 -1.29065,1.03592 -2.08881,1.03592 -0.79816,0 -1.40952,-0.69627 -1.40952,-1.51142 v -5.51921 h -1.32461 v 5.51921 c 0,1.2397 0.951,2.2926 2.17372,2.2926 1.01893,0 1.91899,-0.5774 2.64922,-1.29065 v 2.13976 c 0,1.13781 -0.50946,2.27561 -1.5284,2.27561 -0.79816,0 -1.56236,-0.16982 -2.29259,-0.45852 v 0.52645 c 0.86609,0.44154 1.83407,0.71326 2.81904,0.71326 1.44349,0 2.32656,-1.49444 2.32656,-3.0568 z"
             style="font-size:16.9822px;line-height:1.25"
             id="path202" />
        </g>
        <path
           id="path5193"
           d="m 442.74376,265.74802 v 14.17323 H 456.917 v -14.17323 z"
           style="fill:#afdde9;fill-opacity:1;fill-rule:evenodd;stroke:#000000;stroke-width:1px;stroke-linecap:butt;stroke-linejoin:miter;stroke-opacity:1" />
        <path
           style="fill:#afdde9;fill-opacity:1;fill-rule:evenodd;stroke:#000000;stroke-width:1px;stroke-linecap:butt;stroke-linejoin:miter;stroke-opacity:1"
           d="m 442.74376,318.89762 v 14.17323 H 456.917 v -14.17323 z"
           id="path8453" />
        <path
           id="path8455"
           d="m 552.58629,265.74802 v 14.17323 h 14.17324 v -14.17323 z"
           style="fill:#afdde9;fill-opacity:1;fill-rule:evenodd;stroke:#000000;stroke-width:1px;stroke-linecap:butt;stroke-linejoin:miter;stroke-opacity:1" />
        <path
           style="fill:#afdde9;fill-opacity:1;fill-rule:evenodd;stroke:#000000;stroke-width:1px;stroke-linecap:butt;stroke-linejoin:miter;stroke-opacity:1"
           d="m 510.06661,361.41731 v 14.17323 h 14.17324 v -14.17323 z"
           id="path8733" />
        <g
           aria-label="reset"
           id="text8735"
           style="line-height:0%;font-family:Iwona;-inkscape-font-specification:Iwona;text-align:center;text-anchor:middle">
          <path
             d="m 505.04494,383.17467 v -1.0529 c -0.1868,-0.0679 -0.39059,-0.11887 -0.57739,-0.11887 -0.95101,0 -1.71521,0.6623 -2.32657,1.39254 v -1.27367 h -1.32461 v 7.64199 h 1.32461 v -5.65507 c 0.50947,-0.59438 1.15479,-1.10384 1.93598,-1.10384 0.32266,0 0.6623,0.0679 0.96798,0.16982 z"
             style="font-size:16.9822px;line-height:1.25"
             id="path205" />
          <path
             d="m 512.8907,386.11259 v -0.16982 c 0,-2.39449 -1.30763,-3.99082 -3.27756,-3.99082 -1.98692,0 -3.29455,1.59633 -3.29455,3.99082 0,2.39449 1.30763,3.99082 3.29455,3.99082 0.84911,0 1.68123,-0.27172 2.3775,-0.7642 v -0.71326 c -0.79816,0.50947 -1.44348,0.69627 -2.3775,0.69627 -1.44349,0 -1.80012,-1.37555 -1.80012,-3.03981 z m -1.49443,-0.71325 h -3.58325 c 0,-1.35858 0.5774,-2.73414 1.80012,-2.73414 1.20573,0 1.78313,1.37556 1.78313,2.73414 z"
             style="font-size:16.9822px;line-height:1.25"
             id="path207" />
          <path
             d="m 520.26095,387.59004 c 0,-1.34159 -1.4265,-2.03786 -2.81904,-2.37751 -0.81515,-0.20378 -1.69822,-0.54343 -1.69822,-1.34159 0,-0.73023 0.74722,-1.20574 1.56236,-1.20574 0.90006,0 1.80011,0.27172 2.54733,0.7642 v -0.71325 c -0.74722,-0.49248 -1.64727,-0.7642 -2.54733,-0.7642 -1.47745,0 -2.83603,0.90006 -2.83603,2.27562 0,1.2397 1.37556,1.81709 2.68319,2.13975 0.90006,0.22077 1.83408,0.69627 1.83408,1.56237 0,0.79816 -0.81515,1.29064 -1.68124,1.29064 -1.0529,0 -2.07183,-0.25473 -2.97188,-0.7642 v 0.71326 c 0.90005,0.50946 1.91898,0.7642 2.97188,0.7642 1.5284,0 2.9549,-0.91704 2.9549,-2.34355 z"
             style="font-size:16.9822px;line-height:1.25"
             id="path209" />
          <path
             d="m 528.53127,386.11259 v -0.16982 c 0,-2.39449 -1.30763,-3.99082 -3.27757,-3.99082 -1.98692,0 -3.29455,1.59633 -3.29455,3.99082 0,2.39449 1.30763,3.99082 3.29455,3.99082 0.84911,0 1.68124,-0.27172 2.37751,-0.7642 v -0.71326 c -0.79816,0.50947 -1.44349,0.69627 -2.37751,0.69627 -1.44349,0 -1.80011,-1.37555 -1.80011,-3.03981 z m -1.49444,-0.71325 h -3.58324 c 0,-1.35858 0.57739,-2.73414 1.80011,-2.73414 1.20574,0 1.78313,1.37556 1.78313,2.73414 z"
             style="font-size:16.9822px;line-height:1.25"
             id="path211" />
          <path
             d="m 534.33916,389.16939 v -0.50947 c -0.27172,0.27172 -0.59438,0.49248 -0.98497,0.49248 -0.61136,0 -0.64532,-0.79816 -0.64532,-1.51141 v -4.80596 h 1.63029 v -0.71326 h -1.63029 v -2.54733 h -0.79817 c 0,1.35858 -0.78118,2.63224 -2.02088,2.63224 v 0.62835 h 1.49443 v 4.80596 c 0,1.12082 0.35663,2.2926 1.32462,2.2926 0.62834,0 1.17177,-0.33965 1.63029,-0.7642 z"
             style="font-size:16.9822px;line-height:1.25"
             id="path213" />
        </g>
      </g>
    </g>
  </g>
</svg>
