<?xml version="1.0" encoding="UTF-8" standalone="no"?>
<!-- Created with Inkscape (http://www.inkscape.org/) -->

<svg
   width="197.28471mm"
   height="49.773083mm"
   viewBox="0 0 699.04031 176.36131"
   id="svg19691"
   version="1.1"
   xmlns="http://www.w3.org/2000/svg"
   xmlns:svg="http://www.w3.org/2000/svg"
   xmlns:rdf="http://www.w3.org/1999/02/22-rdf-syntax-ns#"
   xmlns:cc="http://creativecommons.org/ns#"
   xmlns:dc="http://purl.org/dc/elements/1.1/">
  <defs
     id="defs19693">
    <marker
       orient="auto"
       refY="0"
       refX="0"
       id="marker2557"
       style="overflow:visible">
      <path
         id="path2555"
         d="M 0,0 5,-5 -12.5,0 5,5 Z"
         style="fill:#6600ff;fill-opacity:1;fill-rule:evenodd;stroke:#6600ff;stroke-width:1.00000003pt;stroke-opacity:1"
         transform="matrix(-0.4,0,0,-0.4,-4,0)" />
    </marker>
    <marker
       style="overflow:visible"
       id="marker2315"
       refX="0"
       refY="0"
       orient="auto">
      <path
         transform="matrix(-0.4,0,0,-0.4,-4,0)"
         style="fill:#ff6600;fill-opacity:1;fill-rule:evenodd;stroke:#ff6600;stroke-width:1.00000003pt;stroke-opacity:1"
         d="M 0,0 5,-5 -12.5,0 5,5 Z"
         id="path2313" />
    </marker>
    <marker
       orient="auto"
       refY="0"
       refX="0"
       id="Arrow1Mend"
       style="overflow:visible">
      <path
         id="path1780"
         d="M 0,0 5,-5 -12.5,0 5,5 Z"
         style="fill:#ff6600;fill-opacity:1;fill-rule:evenodd;stroke:#ff6600;stroke-width:1.00000003pt;stroke-opacity:1"
         transform="matrix(-0.4,0,0,-0.4,-4,0)" />
    </marker>
  </defs>
  <metadata
     id="metadata19696">
    <rdf:RDF>
      <cc:Work
         rdf:about="">
        <dc:format>image/svg+xml</dc:format>
        <dc:type
           rdf:resource="http://purl.org/dc/dcmitype/StillImage" />
        <dc:title />
      </cc:Work>
    </rdf:RDF>
  </metadata>
  <g
     id="layer1"
     transform="translate(8.0954048,-27.846443)">
    <path
       id="path772"
       d="m 92.125984,99.21259 v 28.34645 h -3.54331 l 7.08661,7.08662 7.086616,-7.08662 H 99.212593 V 99.21259 Z"
       style="fill:#80e5ff;fill-rule:evenodd;stroke:none;stroke-width:1px;stroke-linecap:butt;stroke-linejoin:miter;stroke-opacity:1" />
    <path
       style="fill:#80e5ff;fill-rule:evenodd;stroke:none;stroke-width:1px;stroke-linecap:butt;stroke-linejoin:miter;stroke-opacity:1"
       d="m 574.01575,99.21259 v 7.08653 h -3.54331 l 7.08661,7.08662 7.08662,-7.08662 h -3.54331 v -7.08653 z"
       id="path32318" />
    <path
       id="path32320"
       d="m 602.3622,99.212588 v 7.086532 h -3.54331 l 7.08661,7.08662 7.08662,-7.08662 h -3.54331 v -7.086532 z"
       style="fill:#80e5ff;fill-rule:evenodd;stroke:none;stroke-width:1px;stroke-linecap:butt;stroke-linejoin:miter;stroke-opacity:1" />
    <path
       style="fill:#80e5ff;fill-rule:evenodd;stroke:none;stroke-width:1px;stroke-linecap:butt;stroke-linejoin:miter;stroke-opacity:1"
       d="m 403.93701,99.21259 v 7.08653 h -3.54331 l 7.08661,7.08662 7.08662,-7.08662 h -3.54331 v -7.08653 z"
       id="path32290" />
    <path
       id="path32292"
       d="m 432.28346,99.21259 v 7.08661 h -3.54331 l 7.08661,7.08662 7.08662,-7.08662 h -3.54331 v -7.08661 z"
       style="fill:#80e5ff;fill-rule:evenodd;stroke:none;stroke-width:1px;stroke-linecap:butt;stroke-linejoin:miter;stroke-opacity:1" />
    <path
       style="fill:#80e5ff;fill-rule:evenodd;stroke:none;stroke-width:1px;stroke-linecap:butt;stroke-linejoin:miter;stroke-opacity:1"
       d="m 460.62992,99.21259 v 7.08653 h -3.54331 l 7.08661,7.08662 7.08662,-7.08662 h -3.54331 v -7.08653 z"
       id="path32294" />
    <path
       id="path32296"
       d="m 488.97638,99.21259 v 7.08653 h -3.54331 l 7.08661,7.08662 7.08662,-7.08662 h -3.54331 v -7.08653 z"
       style="fill:#80e5ff;fill-rule:evenodd;stroke:none;stroke-width:1px;stroke-linecap:butt;stroke-linejoin:miter;stroke-opacity:1" />
    <path
       id="path32298"
       d="m 517.32283,99.212588 v 7.086612 h -3.54331 l 7.08661,7.08662 7.08662,-7.08662 h -3.54331 v -7.086612 z"
       style="fill:#80e5ff;fill-rule:evenodd;stroke:none;stroke-width:1px;stroke-linecap:butt;stroke-linejoin:miter;stroke-opacity:1" />
    <path
       style="fill:#80e5ff;fill-rule:evenodd;stroke:none;stroke-width:1px;stroke-linecap:butt;stroke-linejoin:miter;stroke-opacity:1"
       d="m 545.66929,99.212588 v 28.346452 h -3.54331 l 7.08661,7.08662 7.08662,-7.08662 H 552.7559 V 99.212588 Z"
       id="path32300" />
    <path
       id="path32302"
       d="m 347.24409,99.212588 v 7.086612 h -3.54331 l 7.08661,7.08662 7.08662,-7.08662 h -3.54331 v -7.086612 z"
       style="fill:#80e5ff;fill-rule:evenodd;stroke:none;stroke-width:1px;stroke-linecap:butt;stroke-linejoin:miter;stroke-opacity:1" />
    <path
       style="fill:#80e5ff;fill-rule:evenodd;stroke:none;stroke-width:1px;stroke-linecap:butt;stroke-linejoin:miter;stroke-opacity:1"
       d="m 375.59055,99.21259 v 28.34645 h -3.54331 l 7.08661,7.08662 7.08662,-7.08662 h -3.54331 V 99.21259 Z"
       id="path32304" />
    <path
       id="path32278"
       d="m 177.16536,99.212588 v 7.086612 h -3.54331 l 7.08661,7.08662 7.08662,-7.08662 h -3.54331 v -7.086612 z"
       style="fill:#80e5ff;fill-rule:evenodd;stroke:none;stroke-width:1px;stroke-linecap:butt;stroke-linejoin:miter;stroke-opacity:1" />
    <path
       style="fill:#80e5ff;fill-rule:evenodd;stroke:none;stroke-width:1px;stroke-linecap:butt;stroke-linejoin:miter;stroke-opacity:1"
       d="m 205.51181,99.21259 v 7.08653 h -3.54331 l 7.08661,7.08662 7.08662,-7.08662 h -3.54331 v -7.08653 z"
       id="path32280" />
    <path
       id="path32282"
       d="m 233.85827,99.212588 v 28.346452 h -3.54331 l 7.08661,7.08662 7.08662,-7.08662 h -3.54331 V 99.212588 Z"
       style="fill:#80e5ff;fill-rule:evenodd;stroke:none;stroke-width:1px;stroke-linecap:butt;stroke-linejoin:miter;stroke-opacity:1" />
    <path
       style="fill:#80e5ff;fill-rule:evenodd;stroke:none;stroke-width:1px;stroke-linecap:butt;stroke-linejoin:miter;stroke-opacity:1"
       d="m 262.20473,99.21259 v 7.08661 h -3.54331 l 7.08661,7.08662 7.08662,-7.08662 h -3.54331 v -7.08661 z"
       id="path32284" />
    <path
       style="fill:#80e5ff;fill-rule:evenodd;stroke:none;stroke-width:1px;stroke-linecap:butt;stroke-linejoin:miter;stroke-opacity:1"
       d="m 290.55118,99.21259 v 7.08653 h -3.54331 l 7.08661,7.08662 7.08662,-7.08662 h -3.54331 v -7.08653 z"
       id="path32286" />
    <path
       id="path32288"
       d="m 318.89764,99.21259 v 7.08653 h -3.54331 l 7.08661,7.08662 7.08662,-7.08662 h -3.54331 v -7.08653 z"
       style="fill:#80e5ff;fill-rule:evenodd;stroke:none;stroke-width:1px;stroke-linecap:butt;stroke-linejoin:miter;stroke-opacity:1" />
    <path
       style="fill:#80e5ff;fill-rule:evenodd;stroke:none;stroke-width:1px;stroke-linecap:butt;stroke-linejoin:miter;stroke-opacity:1"
       d="m 120.47244,99.21259 v 7.08653 h -3.54331 l 7.08661,7.08662 7.08662,-7.08662 h -3.54331 v -7.08653 z"
       id="path32274" />
    <path
       id="path32276"
       d="m 148.8189,99.212588 v 7.086532 h -3.54331 l 7.08661,7.08662 7.08662,-7.08662 h -3.54331 v -7.086532 z"
       style="fill:#80e5ff;fill-rule:evenodd;stroke:none;stroke-width:1px;stroke-linecap:butt;stroke-linejoin:miter;stroke-opacity:1" />
    <path
       id="path32306"
       d="m 630.70866,99.212588 v 7.086612 h -3.54331 l 7.08661,7.08662 7.08662,-7.08662 h -3.54331 v -7.086612 z"
       style="fill:#80e5ff;fill-rule:evenodd;stroke:none;stroke-width:1px;stroke-linecap:butt;stroke-linejoin:miter;stroke-opacity:1" />
    <path
       style="fill:#80e5ff;fill-rule:evenodd;stroke:none;stroke-width:1px;stroke-linecap:butt;stroke-linejoin:miter;stroke-opacity:1"
       d="m 659.05512,99.212588 v 7.086532 h -3.54331 l 7.08661,7.08662 7.08662,-7.08662 h -3.54331 v -7.086532 z"
       id="path32308" />
    <g
       aria-label="cycle"
       id="text24487"
       style="line-height:0%;font-family:Iwona;-inkscape-font-specification:Iwona;text-align:end;letter-spacing:0px;word-spacing:0px;text-anchor:end;stroke-width:1px">
      <path
         d="m 52.891092,36.4646 v -0.735 c -0.56,-0.7875 -1.47,-1.26 -2.45,-1.26 -2.1875,0 -3.6575,1.645 -3.6575,4.1125 0,2.4675 1.47,4.1125 3.6575,4.1125 0.91,0 1.7675,-0.455 2.275,-1.2075 v -0.735 c -0.595,0.8925 -1.2075,1.2075 -2.275,1.2075 -1.26,0 -2.1175,-1.3475 -2.1175,-3.3775 0,-2.03 0.8575,-3.3775 2.1175,-3.3775 1.085,0 1.82,0.385 2.45,1.26 z"
         style="font-size:17.5px;line-height:10"
         id="path173" />
      <path
         d="m 60.976073,43.5696 v -8.925 h -1.365 v 6.1775 c -0.595,0.595 -1.33,1.0675 -2.1525,1.0675 -0.8225,0 -1.4525,-0.7175 -1.4525,-1.5575 v -5.6875 h -1.365 v 5.6875 c 0,1.2775 0.98,2.3625 2.24,2.3625 1.05,0 1.9775,-0.595 2.73,-1.33 v 2.205 c 0,1.1725 -0.525,2.345 -1.575,2.345 -0.8225,0 -1.61,-0.175 -2.3625,-0.4725 v 0.5425 c 0.8925,0.455 1.89,0.735 2.905,0.735 1.4875,0 2.3975,-1.54 2.3975,-3.15 z"
         style="font-size:17.5px;line-height:10"
         id="path175" />
      <path
         d="m 69.446042,36.4646 v -0.735 c -0.56,-0.7875 -1.47,-1.26 -2.45,-1.26 -2.1875,0 -3.6575,1.645 -3.6575,4.1125 0,2.4675 1.47,4.1125 3.6575,4.1125 0.91,0 1.7675,-0.455 2.275,-1.2075 v -0.735 c -0.595,0.8925 -1.2075,1.2075 -2.275,1.2075 -1.26,0 -2.1175,-1.3475 -2.1175,-3.3775 0,-2.03 0.8575,-3.3775 2.1175,-3.3775 1.085,0 1.82,0.385 2.45,1.26 z"
         style="font-size:17.5px;line-height:10"
         id="path177" />
      <path
         d="m 74.573525,41.9071 v -0.525 c -0.3325,0.28 -0.7175,0.5075 -1.155,0.5075 -0.6475,0 -0.77,-0.805 -0.77,-1.5575 V 30.2696 h -1.365 v 10.0625 c 0,1.1725 0.455,2.3625 1.4875,2.3625 0.665,0 1.295,-0.3325 1.8025,-0.7875 z"
         style="font-size:17.5px;line-height:10"
         id="path179" />
      <path
         d="m 82.658493,38.7571 v -0.175 c 0,-2.4675 -1.3475,-4.1125 -3.3775,-4.1125 -2.0475,0 -3.395,1.645 -3.395,4.1125 0,2.4675 1.3475,4.1125 3.395,4.1125 0.875,0 1.7325,-0.28 2.45,-0.7875 v -0.735 c -0.8225,0.525 -1.4875,0.7175 -2.45,0.7175 -1.4875,0 -1.855,-1.4175 -1.855,-3.1325 z m -1.54,-0.735 h -3.6925 c 0,-1.4 0.595,-2.8175 1.855,-2.8175 1.2425,0 1.8375,1.4175 1.8375,2.8175 z"
         style="font-size:17.5px;line-height:10"
         id="path181" />
    </g>
    <g
       aria-label="epsilon_reg"
       id="text24491"
       style="line-height:0%;font-family:Iwona;-inkscape-font-specification:Iwona;text-align:end;letter-spacing:0px;word-spacing:0px;text-anchor:end;stroke-width:1px">
      <path
         d="m 5.7637094,88.363477 v -0.175 c 0,-2.4675 -1.3475,-4.1125 -3.3775,-4.1125 -2.04749999,0 -3.395,1.645 -3.395,4.1125 0,2.4675 1.34750001,4.1125 3.395,4.1125 0.875,0 1.7325,-0.28 2.45,-0.7875 v -0.735 c -0.8225,0.525 -1.4875,0.7175 -2.45,0.7175 -1.48749999,0 -1.85499999,-1.4175 -1.85499999,-3.1325 z m -1.54,-0.735 H 0.53120941 c 0,-1.4 0.59499999,-2.8175 1.85499999,-2.8175 1.2425,0 1.8375,1.4175 1.8375,2.8175 z"
         style="font-size:17.5px;line-height:10"
         id="path184" />
      <path
         d="m 14.723686,88.188477 c 0,-2.3275 -0.875,-4.1125 -2.9925,-4.1125 -0.8925,0 -1.715,0.4025 -2.4149998,0.9625 v -0.7875 h -1.365 v 11.9 h 1.365 v -4.3225 c 0.6825,0.2975 1.4174998,0.4725 2.1524998,0.4725 2.1875,0 3.255,-1.75 3.255,-4.1125 z m -1.54,0 c 0,1.645 -0.5075,3.3775 -1.9425,3.3775 -0.665,0 -1.3299998,-0.175 -1.9249998,-0.4725 v -5.32 c 0.525,-0.525 1.1724998,-0.9625 1.9249998,-0.9625 1.5925,0 1.9425,1.54 1.9425,3.3775 z"
         style="font-size:17.5px;line-height:10"
         id="path187" />
      <path
         d="m 22.406157,89.885977 c 0,-1.3825 -1.47,-2.1 -2.905,-2.45 -0.84,-0.21 -1.75,-0.56 -1.75,-1.3825 0,-0.7525 0.77,-1.2425 1.61,-1.2425 0.9275,0 1.855,0.28 2.625,0.7875 v -0.735 c -0.77,-0.5075 -1.6975,-0.7875 -2.625,-0.7875 -1.5225,0 -2.9225,0.9275 -2.9225,2.345 0,1.2775 1.4175,1.8725 2.765,2.205 0.9275,0.2275 1.89,0.7175 1.89,1.61 0,0.8225 -0.84,1.33 -1.7325,1.33 -1.085,0 -2.135,-0.2625 -3.0625,-0.7875 v 0.735 c 0.9275,0.525 1.9775,0.7875 3.0625,0.7875 1.575,0 3.045,-0.945 3.045,-2.415 z"
         style="font-size:17.5px;line-height:10"
         id="path189" />
      <path
         d="m 27.796138,91.513477 v -0.525 c -0.3325,0.28 -0.7175,0.5075 -1.155,0.5075 -0.6475,0 -0.77,-0.805 -0.77,-1.5575 v -5.6875 h -1.365 v 5.6875 c 0,1.1725 0.455,2.3625 1.4875,2.3625 0.665,0 1.295,-0.3325 1.8025,-0.7875 z m -1.75,-9.9925 c 0,-0.4725 -0.385,-0.8575 -0.8575,-0.8575 -0.4725,0 -0.8575,0.385 -0.8575,0.8575 0,0.4725 0.385,0.8575 0.8575,0.8575 0.4725,0 0.8575,-0.385 0.8575,-0.8575 z"
         style="font-size:17.5px;line-height:10"
         id="path191" />
      <path
         d="m 32.836122,91.513477 v -0.525 c -0.3325,0.28 -0.7175,0.5075 -1.155,0.5075 -0.6475,0 -0.77,-0.805 -0.77,-1.5575 v -10.0625 h -1.365 v 10.0625 c 0,1.1725 0.455,2.3625 1.4875,2.3625 0.665,0 1.295,-0.3325 1.8025,-0.7875 z"
         style="font-size:17.5px;line-height:10"
         id="path193" />
      <path
         d="m 40.921089,88.188477 c 0,-2.6775 -1.19,-4.1125 -3.3775,-4.1125 -2.205,0 -3.395,1.435 -3.395,4.1125 0,2.6775 1.19,4.1125 3.395,4.1125 2.1875,0 3.3775,-1.435 3.3775,-4.1125 z m -1.54,0 c 0,2.1875 -0.6475,3.3775 -1.8375,3.3775 -1.2075,0 -1.855,-1.19 -1.855,-3.3775 0,-2.1875 0.6475,-3.3775 1.855,-3.3775 1.19,0 1.8375,1.19 1.8375,3.3775 z"
         style="font-size:17.5px;line-height:10"
         id="path195" />
      <path
         d="m 49.618583,92.125977 v -5.6875 c 0,-1.2775 -0.98,-2.3625 -2.24,-2.3625 -1.05,0 -1.9775,0.595 -2.73,1.33 v -1.155 h -1.365 v 7.875 h 1.365 v -6.1775 c 0.595,-0.595 1.33,-1.0675 2.1525,-1.0675 0.8225,0 1.4525,0.7175 1.4525,1.5575 v 5.6875 z"
         style="font-size:17.5px;line-height:10"
         id="path197" />
      <path
         d="m 59.681053,94.138477 v -0.875 h -8.75 v 0.875 z"
         style="font-size:17.5px;line-height:10"
         id="path199" />
      <path
         d="m 65.438523,85.335977 v -1.085 c -0.1925,-0.07 -0.4025,-0.1225 -0.595,-0.1225 -0.98,0 -1.7675,0.6825 -2.3975,1.435 v -1.3125 h -1.365 v 7.875 h 1.365 v -5.8275 c 0.525,-0.6125 1.19,-1.1375 1.995,-1.1375 0.3325,0 0.6825,0.07 0.9975,0.175 z"
         style="font-size:17.5px;line-height:10"
         id="path201" />
      <path
         d="m 73.523506,88.363477 v -0.175 c 0,-2.4675 -1.3475,-4.1125 -3.3775,-4.1125 -2.0475,0 -3.395,1.645 -3.395,4.1125 0,2.4675 1.3475,4.1125 3.395,4.1125 0.875,0 1.7325,-0.28 2.45,-0.7875 v -0.735 c -0.8225,0.525 -1.4875,0.7175 -2.45,0.7175 -1.4875,0 -1.855,-1.4175 -1.855,-3.1325 z m -1.54,-0.735 h -3.6925 c 0,-1.4 0.595,-2.8175 1.855,-2.8175 1.2425,0 1.8375,1.4175 1.8375,2.8175 z"
         style="font-size:17.5px;line-height:10"
         id="path203" />
      <path
         d="m 82.133483,93.175977 v -8.925 h -1.365 v 0.2975 c -0.6825,-0.2975 -1.4175,-0.4725 -2.1525,-0.4725 -2.1875,0 -3.255,1.75 -3.255,4.1125 0,2.3275 0.875,4.1125 2.9925,4.1125 0.8925,0 1.715,-0.4025 2.415,-0.9625 v 1.8375 c 0,1.2075 -0.665,2.345 -1.75,2.345 -0.8925,0 -1.785,-0.175 -2.625,-0.4725 v 0.5425 c 0.98,0.455 2.065,0.735 3.15,0.735 1.54,0 2.59,-1.505 2.59,-3.15 z m -1.365,-2.5725 c -0.525,0.525 -1.1725,0.9625 -1.925,0.9625 -1.5925,0 -1.9425,-1.54 -1.9425,-3.3775 0,-1.645 0.5075,-3.3775 1.9425,-3.3775 0.665,0 1.33,0.175 1.925,0.4725 z"
         style="font-size:17.5px;line-height:10"
         id="path205" />
    </g>
    <path
       style="fill:none;fill-rule:evenodd;stroke:#000000;stroke-width:1px;stroke-linecap:butt;stroke-linejoin:miter;stroke-opacity:1"
       d="M 88.582676,49.606215 H 113.38583 V 28.346372 h 7.08661 v 21.259843 h 21.25985 V 28.346372 h 7.08661 v 21.259843 h 21.25984 V 28.346372 h 7.08661 V 49.606215 H 198.4252 V 28.346372 h 7.08661 v 21.259843 h 21.25985 V 28.346372 h 7.08661 v 21.259843 h 21.25984 V 28.346372 h 7.08661 v 21.259843 h 21.25985 V 28.346372 h 7.08661 v 21.259843 h 21.25984 V 28.346372 h 7.08661 l 1e-5,21.259843 h 21.25984 V 28.346372 h 7.08661 v 21.259843 h 21.25985 V 28.346372 h 7.08661 V 49.606215 H 396.8504 V 28.346372 h 7.08661 v 21.259843 h 21.25985 V 28.346372 h 7.08661 v 21.259843 h 21.25984 V 28.346372 h 7.08661 v 21.259843 h 21.25985 V 28.346372 h 7.08661 v 21.259843 h 21.25984 V 28.346372 h 7.08661 v 21.259843 h 21.25984 V 28.346372 h 7.08661 l 1e-5,21.259843 h 21.25985 V 28.346372 h 7.08661 v 21.259843 h 21.25984 V 28.346372 h 7.08661 v 21.259843 h 21.25985 V 28.346372 h 7.08661 V 49.606215 H 651.9685 V 28.346372 h 7.08661 v 21.259843 h 24.80316"
       id="path29163" />
    <path
       id="path29175"
       d="m 88.582684,99.212588 h 28.346466 l 3.54328,-21.259843 h 24.80316 l 3.54328,21.259843 h 24.80318 l 3.54328,-21.259843 h 24.80316 l 3.54328,21.259843 h 24.8032 l 3.54328,-21.259843 h 24.80317 l 3.54328,21.259843 h 24.80318 l 3.54328,-21.259843 h 24.80316 l 3.54328,21.259843 h 24.8032 l 3.54328,-21.259843 h 24.80316 l 3.54328,21.259843 h 24.80318 l 3.54328,-21.259843 h 24.80316 l 3.54328,21.259843 h 24.8032 l 3.54328,-21.259843 h 24.80317 l 3.54328,21.259843 h 24.80318 l 3.54328,-21.259843 h 24.80316 l 3.54328,21.259843 h 24.80322 l 3.54328,-21.259843 h 24.80316 l 3.54328,21.259843 h 24.80318 l 3.54328,-21.259843 h 24.80316 l 3.54328,21.259843 h 24.80321"
       style="fill:none;fill-rule:evenodd;stroke:#000000;stroke-width:1px;stroke-linecap:butt;stroke-linejoin:miter;stroke-opacity:1" />
    <path
       style="fill:none;fill-rule:evenodd;stroke:#000000;stroke-width:1px;stroke-linecap:butt;stroke-linejoin:miter;stroke-opacity:1"
       d="m 88.582684,77.952745 h 28.346466 l 3.54328,21.259843 h 24.80316 l 3.54328,-21.259843 h 24.80318 l 3.54328,21.259843 h 24.80316 l 3.54328,-21.259843 h 24.8032 l 3.54328,21.259843 h 24.80317 l 3.54328,-21.259843 h 24.80318 l 3.54328,21.259843 h 24.80316 l 3.54328,-21.259843 h 24.8032 l 3.54328,21.259843 h 24.80316 l 3.54328,-21.259843 h 24.80318 l 3.54328,21.259843 h 24.80316 l 3.54328,-21.259843 h 24.8032 l 3.54328,21.259843 h 24.80317 l 3.54328,-21.259843 h 24.80318 l 3.54328,21.259843 h 24.80316 l 3.54328,-21.259843 h 24.80322 l 3.54328,21.259843 h 24.80316 l 3.54328,-21.259843 h 24.80318 l 3.54328,21.259843 h 24.80316 l 3.54328,-21.259843 h 24.80321"
       id="path29177" />
    <g
       aria-label="16"
       id="text29183"
       style="font-size:16.25px;line-height:0%;font-family:Iwona;-inkscape-font-specification:Iwona;letter-spacing:0px;word-spacing:0px;stroke-width:1px">
      <path
         d="m 97.488484,94.188919 v -11.2125 h -0.9425 c -0.89375,1.02375 -1.95,1.90125 -3.12,2.58375 v 0.6825 c 0.99125,-0.47125 1.9175,-1.02375 2.795,-1.69 v 9.63625 z"
         style="line-height:10"
         id="path209" />
      <path
         d="m 108.37598,90.532669 c 0,-2.34 -0.92625,-3.81875 -3.10375,-3.81875 -0.9425,0 -1.82,0.43875 -2.3725,1.18625 0,-2.12875 0.53625,-4.40375 2.3725,-4.40375 0.82875,0 1.64125,0.27625 2.29125,0.79625 v -0.6825 c -0.65,-0.52 -1.4625,-0.79625 -2.29125,-0.79625 -2.55125,0 -3.8025,2.8925 -3.8025,5.76875 0,4.03 1.04,5.76875 3.46125,5.76875 2.06375,0 3.445,-1.5275 3.445,-3.81875 z m -1.43,0 c 0,1.885 -0.8125,3.13625 -2.015,3.13625 -2.275,0 -2.03125,-2.45375 -2.03125,-5.08625 0.5525,-0.7475 1.43,-1.18625 2.3725,-1.18625 1.3,0 1.67375,1.625 1.67375,3.13625 z"
         style="line-height:10"
         id="path211" />
    </g>
    <g
       aria-label="3"
       id="text29187"
       style="font-size:16.25px;line-height:0%;font-family:Iwona;-inkscape-font-specification:Iwona;letter-spacing:0px;word-spacing:0px;stroke-width:1px">
      <path
         d="m 131.7345,91.101419 c 0,-1.43 -1.0075,-2.665 -2.405,-3.0875 1.235,-0.3575 1.99875,-1.28375 1.99875,-2.51875 0,-1.60875 -1.3,-2.68125 -3.25,-2.68125 -1.05625,0 -2.08,0.3575 -2.90875,1.0075 v 0.6825 c 0.82875,-0.65 1.8525,-1.0075 2.90875,-1.0075 1.18625,0 1.9825,0.79625 1.9825,1.99875 0,1.93375 -0.89375,2.4375 -2.925,2.4375 v 0.60125 c 2.19375,0 3.16875,0.52 3.16875,2.5675 0,1.41375 -0.91,2.5675 -2.015,2.5675 -1.235,0 -2.4375,-0.3575 -3.46125,-1.0075 v 0.6825 c 1.02375,0.65 2.22625,1.0075 3.46125,1.0075 1.885,0 3.445,-1.4625 3.445,-3.25 z"
         style="line-height:10"
         id="path214" />
    </g>
    <g
       aria-label="6"
       id="text29191"
       style="font-size:16.25px;line-height:0%;font-family:Iwona;-inkscape-font-specification:Iwona;letter-spacing:0px;word-spacing:0px;stroke-width:1px">
      <path
         d="m 160.08095,90.532669 c 0,-2.34 -0.92625,-3.81875 -3.10375,-3.81875 -0.9425,0 -1.82,0.43875 -2.3725,1.18625 0,-2.12875 0.53625,-4.40375 2.3725,-4.40375 0.82875,0 1.64125,0.27625 2.29125,0.79625 v -0.6825 c -0.65,-0.52 -1.4625,-0.79625 -2.29125,-0.79625 -2.55125,0 -3.8025,2.8925 -3.8025,5.76875 0,4.03 1.04,5.76875 3.46125,5.76875 2.06375,0 3.445,-1.5275 3.445,-3.81875 z m -1.43,0 c 0,1.885 -0.8125,3.13625 -2.015,3.13625 -2.275,0 -2.03125,-2.45375 -2.03125,-5.08625 0.5525,-0.7475 1.43,-1.18625 2.3725,-1.18625 1.3,0 1.67375,1.625 1.67375,3.13625 z"
         style="line-height:10"
         id="path217" />
    </g>
    <g
       aria-label="9"
       id="text29195"
       style="font-size:16.25px;line-height:0%;font-family:Iwona;-inkscape-font-specification:Iwona;letter-spacing:0px;word-spacing:0px;stroke-width:1px">
      <path
         d="m 188.42741,88.582669 c 0,-4.03 -1.04,-5.76875 -3.445,-5.76875 -2.08,0 -3.46125,1.5275 -3.46125,3.81875 0,2.34 0.92625,3.81875 3.10375,3.81875 0.9425,0 1.82,-0.43875 2.3725,-1.18625 0,2.12875 -0.53625,4.40375 -2.3725,4.40375 -0.82875,0 -1.64125,-0.27625 -2.29125,-0.79625 v 0.6825 c 0.65,0.52 1.4625,0.79625 2.29125,0.79625 2.55125,0 3.8025,-2.8925 3.8025,-5.76875 z m -1.43,0 c -0.5525,0.7475 -1.43,1.18625 -2.3725,1.18625 -1.3,0 -1.67375,-1.625 -1.67375,-3.13625 0,-1.885 0.8125,-3.13625 2.03125,-3.13625 2.25875,0 2.015,2.45375 2.015,5.08625 z"
         style="line-height:10"
         id="path220" />
    </g>
    <g
       aria-label="12"
       id="text29199"
       style="font-size:16.25px;line-height:0%;font-family:Iwona;-inkscape-font-specification:Iwona;letter-spacing:0px;word-spacing:0px;stroke-width:1px">
      <path
         d="m 214.41761,94.270164 v -11.2125 h -0.9425 c -0.89375,1.02375 -1.95,1.90125 -3.12,2.58375 v 0.6825 c 0.99125,-0.47125 1.9175,-1.02375 2.795,-1.69 v 9.63625 z"
         style="line-height:10"
         id="path223" />
      <path
         d="m 225.30511,94.270164 v -1.0075 h -5.73625 l 2.99,-2.9575 c 1.3325,-1.3325 2.58375,-2.8925 2.58375,-4.7775 0,-1.5925 -1.57625,-2.6325 -3.2825,-2.6325 -1.28375,0 -2.5025,0.585 -3.29875,1.57625 v 0.6825 c 0.82875,-0.95875 2.03125,-1.51125 3.29875,-1.51125 1.08875,0 2.015,0.8125 2.015,1.885 0,1.60875 -0.7475,3.10375 -1.8525,4.2575 l -3.62375,3.72125 v 0.76375 z"
         style="line-height:10"
         id="path225" />
    </g>
    <g
       aria-label="15"
       id="text29203"
       style="font-size:16.25px;line-height:0%;font-family:Iwona;-inkscape-font-specification:Iwona;letter-spacing:0px;word-spacing:0px;stroke-width:1px">
      <path
         d="m 242.76408,94.188919 v -11.2125 h -0.9425 c -0.89375,1.02375 -1.95,1.90125 -3.12,2.58375 v 0.6825 c 0.99125,-0.47125 1.9175,-1.02375 2.795,-1.69 v 9.63625 z"
         style="line-height:10"
         id="path228" />
      <path
         d="m 253.65158,90.532669 c 0,-2.29125 -1.38125,-3.81875 -3.445,-3.81875 -0.9425,0 -1.82,0.3575 -2.5025,0.95875 l 0.1625,-3.68875 h 5.46 v -1.0075 h -6.09375 l -0.24375,5.60625 0.6825,0.0325 c 0.6175,-0.76375 1.54375,-1.21875 2.535,-1.21875 1.2025,0 2.015,1.25125 2.015,3.13625 0,1.885 -0.8125,3.13625 -2.015,3.13625 -1.25125,0 -2.47,-0.40625 -3.46125,-1.17 v 0.6825 c 0.99125,0.76375 2.21,1.17 3.46125,1.17 2.06375,0 3.445,-1.5275 3.445,-3.81875 z"
         style="line-height:10"
         id="path230" />
    </g>
    <g
       aria-label="2"
       id="text29207"
       style="font-size:16.25px;line-height:0%;font-family:Iwona;-inkscape-font-specification:Iwona;letter-spacing:0px;word-spacing:0px;stroke-width:1px">
      <path
         d="m 273.46677,94.270164 v -1.0075 h -5.73625 l 2.99,-2.9575 c 1.3325,-1.3325 2.58375,-2.8925 2.58375,-4.7775 0,-1.5925 -1.57625,-2.6325 -3.2825,-2.6325 -1.28375,0 -2.5025,0.585 -3.29875,1.57625 v 0.6825 c 0.82875,-0.95875 2.03125,-1.51125 3.29875,-1.51125 1.08875,0 2.015,0.8125 2.015,1.885 0,1.60875 -0.7475,3.10375 -1.8525,4.2575 l -3.62375,3.72125 v 0.76375 z"
         style="line-height:10"
         id="path233" />
    </g>
    <g
       aria-label="5"
       id="text29211"
       style="font-size:16.25px;line-height:0%;font-family:Iwona;-inkscape-font-specification:Iwona;letter-spacing:0px;word-spacing:0px;stroke-width:1px">
      <path
         d="m 301.81323,90.532669 c 0,-2.29125 -1.38125,-3.81875 -3.445,-3.81875 -0.9425,0 -1.82,0.3575 -2.5025,0.95875 l 0.1625,-3.68875 h 5.46 v -1.0075 h -6.09375 l -0.24375,5.60625 0.6825,0.0325 c 0.6175,-0.76375 1.54375,-1.21875 2.535,-1.21875 1.2025,0 2.015,1.25125 2.015,3.13625 0,1.885 -0.8125,3.13625 -2.015,3.13625 -1.25125,0 -2.47,-0.40625 -3.46125,-1.17 v 0.6825 c 0.99125,0.76375 2.21,1.17 3.46125,1.17 2.06375,0 3.445,-1.5275 3.445,-3.81875 z"
         style="line-height:10"
         id="path236" />
    </g>
    <g
       aria-label="8"
       id="text29215"
       style="font-size:16.25px;line-height:0%;font-family:Iwona;-inkscape-font-specification:Iwona;letter-spacing:0px;word-spacing:0px;stroke-width:1px">
      <path
         d="m 330.1597,91.052669 c 0,-1.5275 -0.73125,-2.61625 -1.9825,-3.07125 1.05625,-0.39 1.6575,-1.2675 1.6575,-2.45375 0,-1.69 -1.18625,-2.71375 -3.12,-2.71375 -1.95,0 -3.13625,1.02375 -3.13625,2.71375 0,1.18625 0.60125,2.06375 1.6575,2.45375 -1.25125,0.455 -1.9825,1.54375 -1.9825,3.07125 0,2.0475 1.31625,3.29875 3.46125,3.29875 2.12875,0 3.445,-1.25125 3.445,-3.29875 z m -1.5925,-5.525 c 0,1.25125 -0.715,2.03125 -1.8525,2.03125 -1.15375,0 -1.86875,-0.78 -1.86875,-2.03125 0,-1.2675 0.715,-2.03125 1.86875,-2.03125 1.1375,0 1.8525,0.76375 1.8525,2.03125 z m 0.1625,5.525 c 0,1.625 -0.76375,2.61625 -2.015,2.61625 -1.2675,0 -2.03125,-0.99125 -2.03125,-2.61625 0,-1.625 0.76375,-2.61625 2.03125,-2.61625 1.25125,0 2.015,0.99125 2.015,2.61625 z"
         style="line-height:10"
         id="path239" />
    </g>
    <g
       aria-label="11"
       id="text29219"
       style="font-size:16.25px;line-height:0%;font-family:Iwona;-inkscape-font-specification:Iwona;letter-spacing:0px;word-spacing:0px;stroke-width:1px">
      <path
         d="m 356.14991,94.188919 v -11.2125 h -0.9425 c -0.89375,1.02375 -1.95,1.90125 -3.12,2.58375 v 0.6825 c 0.99125,-0.47125 1.9175,-1.02375 2.795,-1.69 v 9.63625 z"
         style="line-height:10"
         id="path242" />
      <path
         d="m 364.68116,94.188919 v -11.2125 h -0.9425 c -0.89375,1.02375 -1.95,1.90125 -3.12,2.58375 v 0.6825 c 0.99125,-0.47125 1.9175,-1.02375 2.795,-1.69 v 9.63625 z"
         style="line-height:10"
         id="path244" />
    </g>
    <g
       aria-label="leds_o(i)"
       id="text31530"
       style="line-height:0%;font-family:Iwona;-inkscape-font-specification:Iwona;text-align:end;letter-spacing:0px;word-spacing:0px;text-anchor:end;stroke-width:1px">
      <path
         d="m 24.751156,126.94654 v -0.525 c -0.3325,0.28 -0.7175,0.5075 -1.155,0.5075 -0.6475,0 -0.77,-0.805 -0.77,-1.5575 v -10.0625 h -1.365 v 10.0625 c 0,1.1725 0.455,2.3625 1.4875,2.3625 0.665,0 1.295,-0.3325 1.8025,-0.7875 z"
         style="font-size:17.5px;line-height:10"
         id="path247" />
      <path
         d="m 32.836125,123.79654 v -0.175 c 0,-2.4675 -1.3475,-4.1125 -3.3775,-4.1125 -2.0475,0 -3.395,1.645 -3.395,4.1125 0,2.4675 1.3475,4.1125 3.395,4.1125 0.875,0 1.7325,-0.28 2.45,-0.7875 v -0.735 c -0.8225,0.525 -1.4875,0.7175 -2.45,0.7175 -1.4875,0 -1.855,-1.4175 -1.855,-3.1325 z m -1.54,-0.735 h -3.6925 c 0,-1.4 0.595,-2.8175 1.855,-2.8175 1.2425,0 1.8375,1.4175 1.8375,2.8175 z"
         style="font-size:17.5px;line-height:10"
         id="path249" />
      <path
         d="m 41.446102,127.55904 v -12.25 h -1.365 v 4.6725 c -0.6825,-0.2975 -1.4175,-0.4725 -2.1525,-0.4725 -2.1875,0 -3.255,1.75 -3.255,4.1125 0,2.3275 0.875,4.1125 2.9925,4.1125 0.8925,0 1.715,-0.4025 2.415,-0.9625 v 0.7875 z m -1.365,-1.5225 c -0.525,0.525 -1.1725,0.9625 -1.925,0.9625 -1.5925,0 -1.9425,-1.54 -1.9425,-3.3775 0,-1.645 0.5075,-3.3775 1.9425,-3.3775 0.665,0 1.33,0.175 1.925,0.4725 z"
         style="font-size:17.5px;line-height:10"
         id="path251" />
      <path
         d="m 49.566091,125.31904 c 0,-1.3825 -1.47,-2.1 -2.905,-2.45 -0.84,-0.21 -1.75,-0.56 -1.75,-1.3825 0,-0.7525 0.77,-1.2425 1.61,-1.2425 0.9275,0 1.855,0.28 2.625,0.7875 v -0.735 c -0.77,-0.5075 -1.6975,-0.7875 -2.625,-0.7875 -1.5225,0 -2.9225,0.9275 -2.9225,2.345 0,1.2775 1.4175,1.8725 2.765,2.205 0.9275,0.2275 1.89,0.7175 1.89,1.61 0,0.8225 -0.84,1.33 -1.7325,1.33 -1.085,0 -2.135,-0.2625 -3.0625,-0.7875 v 0.735 c 0.9275,0.525 1.9775,0.7875 3.0625,0.7875 1.575,0 3.045,-0.945 3.045,-2.415 z"
         style="font-size:17.5px;line-height:10"
         id="path253" />
      <path
         d="m 59.103572,129.57154 v -0.875 h -8.75 v 0.875 z"
         style="font-size:17.5px;line-height:10"
         id="path255" />
      <path
         d="m 66.838538,123.62154 c 0,-2.6775 -1.19,-4.1125 -3.3775,-4.1125 -2.205,0 -3.395,1.435 -3.395,4.1125 0,2.6775 1.19,4.1125 3.395,4.1125 2.1875,0 3.3775,-1.435 3.3775,-4.1125 z m -1.54,0 c 0,2.1875 -0.6475,3.3775 -1.8375,3.3775 -1.2075,0 -1.855,-1.19 -1.855,-3.3775 0,-2.1875 0.6475,-3.3775 1.855,-3.3775 1.19,0 1.8375,1.19 1.8375,3.3775 z"
         style="font-size:17.5px;line-height:10"
         id="path257" />
      <path
         d="m 72.316032,131.58404 c -1.2775,-2.835 -1.75,-5.0225 -1.75,-8.1375 0,-3.115 0.4725,-5.3025 1.75,-8.1375 h -0.735 c -1.7325,2.695 -2.38,4.935 -2.38,8.1375 0,3.2025 0.6475,5.4425 2.38,8.1375 z"
         style="font-size:17.5px;line-height:10"
         id="path259" />
      <path
         d="m 77.793509,126.94654 v -0.525 c -0.3325,0.28 -0.7175,0.5075 -1.155,0.5075 -0.6475,0 -0.77,-0.805 -0.77,-1.5575 v -5.6875 h -1.365 v 5.6875 c 0,1.1725 0.455,2.3625 1.4875,2.3625 0.665,0 1.295,-0.3325 1.8025,-0.7875 z m -1.75,-9.9925 c 0,-0.4725 -0.385,-0.8575 -0.8575,-0.8575 -0.4725,0 -0.8575,0.385 -0.8575,0.8575 0,0.4725 0.385,0.8575 0.8575,0.8575 0.4725,0 0.8575,-0.385 0.8575,-0.8575 z"
         style="font-size:17.5px;line-height:10"
         id="path261" />
      <path
         d="m 82.133493,123.44654 c 0,-3.2025 -0.6475,-5.4425 -2.38,-8.1375 h -0.735 c 1.2775,2.835 1.75,5.0225 1.75,8.1375 0,3.115 -0.4725,5.3025 -1.75,8.1375 h 0.735 c 1.7325,-2.695 2.38,-4.935 2.38,-8.1375 z"
         style="font-size:17.5px;line-height:10"
         id="path263" />
    </g>
    <path
       style="fill:none;fill-rule:evenodd;stroke:#000000;stroke-width:1px;stroke-linecap:butt;stroke-linejoin:miter;stroke-opacity:1"
       d="m 88.582676,134.64566 h 31.889764 l 3.54328,-21.25984 h 109.84255 l 3.54328,21.25984 h 24.80317 l 3.54328,-21.25984 h 109.84257 l 3.54328,21.25984 h 24.80316 l 3.54328,-21.25984 h 138.189 l 3.54328,21.25984 h 21.25987 l 3.54328,-21.25984 h 109.84255"
       id="path31534" />
    <g
       aria-label="14"
       id="text217"
       style="font-size:16.25px;line-height:0%;font-family:Iwona;-inkscape-font-specification:Iwona;letter-spacing:0px;word-spacing:0px;stroke-width:1px">
      <path
         d="m 384.49635,94.188919 v -11.2125 h -0.9425 c -0.89375,1.02375 -1.95,1.90125 -3.12,2.58375 v 0.6825 c 0.99125,-0.47125 1.9175,-1.02375 2.795,-1.69 v 9.63625 z"
         style="line-height:10"
         id="path266" />
      <path
         d="m 395.38384,90.288919 v -0.7475 h -1.21875 v -6.565 h -1.2675 l -4.42,6.565 v 0.7475 h 4.42 v 3.9 h 1.2675 v -3.9 z m -2.48625,-0.7475 h -3.59125 l 3.59125,-5.34625 z"
         style="line-height:10"
         id="path268" />
    </g>
    <g
       aria-label="1"
       id="text221"
       style="font-size:16.25px;line-height:0%;font-family:Iwona;-inkscape-font-specification:Iwona;letter-spacing:0px;word-spacing:0px;stroke-width:1px">
      <path
         d="m 412.84282,94.188919 v -11.2125 h -0.9425 c -0.89375,1.02375 -1.95,1.90125 -3.12,2.58375 v 0.6825 c 0.99125,-0.47125 1.9175,-1.02375 2.795,-1.69 v 9.63625 z"
         style="line-height:10"
         id="path271" />
    </g>
    <g
       aria-label="4"
       id="text225"
       style="font-size:16.25px;line-height:0%;font-family:Iwona;-inkscape-font-specification:Iwona;letter-spacing:0px;word-spacing:0px;stroke-width:1px">
      <path
         d="m 443.54553,90.288919 v -0.7475 h -1.21875 v -6.565 h -1.2675 l -4.42,6.565 v 0.7475 h 4.42 v 3.9 h 1.2675 v -3.9 z m -2.48625,-0.7475 h -3.59125 l 3.59125,-5.34625 z"
         style="line-height:10"
         id="path274" />
    </g>
    <g
       aria-label="7"
       id="text229"
       style="font-size:16.25px;line-height:0%;font-family:Iwona;-inkscape-font-specification:Iwona;letter-spacing:0px;word-spacing:0px;stroke-width:1px">
      <path
         d="m 471.89197,83.447666 v -0.5525 h -6.90625 v 1.0075 h 5.2975 l -4.79375,10.205 h 1.3975 z"
         style="line-height:10"
         id="path277" />
    </g>
    <g
       aria-label="10"
       id="text233"
       style="font-size:16.25px;line-height:0%;font-family:Iwona;-inkscape-font-specification:Iwona;letter-spacing:0px;word-spacing:0px;stroke-width:1px">
      <path
         d="m 497.88218,94.188919 v -11.2125 h -0.9425 c -0.89375,1.02375 -1.95,1.90125 -3.12,2.58375 v 0.6825 c 0.99125,-0.47125 1.9175,-1.02375 2.795,-1.69 v 9.63625 z"
         style="line-height:10"
         id="path280" />
      <path
         d="m 508.88343,88.582669 c 0,-3.85125 -1.18625,-5.76875 -3.55875,-5.76875 -2.3725,0 -3.55875,1.9175 -3.55875,5.76875 0,3.85125 1.18625,5.76875 3.55875,5.76875 2.3725,0 3.55875,-1.9175 3.55875,-5.76875 z m -1.43,0 c 0,3.39625 -0.715,5.08625 -2.12875,5.08625 -1.41375,0 -2.12875,-1.69 -2.12875,-5.08625 0,-3.39625 0.715,-5.08625 2.12875,-5.08625 1.41375,0 2.12875,1.69 2.12875,5.08625 z"
         style="line-height:10"
         id="path282" />
    </g>
    <g
       aria-label="13"
       id="text237"
       style="font-size:16.25px;line-height:0%;font-family:Iwona;-inkscape-font-specification:Iwona;letter-spacing:0px;word-spacing:0px;stroke-width:1px">
      <path
         d="m 526.22865,94.107666 v -11.2125 h -0.9425 c -0.89375,1.02375 -1.95,1.90125 -3.12,2.58375 v 0.6825 c 0.99125,-0.47125 1.9175,-1.02375 2.795,-1.69 v 9.63625 z"
         style="line-height:10"
         id="path285" />
      <path
         d="m 537.11614,91.020166 c 0,-1.43 -1.0075,-2.665 -2.405,-3.0875 1.235,-0.3575 1.99875,-1.28375 1.99875,-2.51875 0,-1.60875 -1.3,-2.68125 -3.25,-2.68125 -1.05625,0 -2.08,0.3575 -2.90875,1.0075 v 0.6825 c 0.82875,-0.65 1.8525,-1.0075 2.90875,-1.0075 1.18625,0 1.9825,0.79625 1.9825,1.99875 0,1.93375 -0.89375,2.4375 -2.925,2.4375 v 0.60125 c 2.19375,0 3.16875,0.52 3.16875,2.5675 0,1.41375 -0.91,2.5675 -2.015,2.5675 -1.235,0 -2.4375,-0.3575 -3.46125,-1.0075 v 0.6825 c 1.02375,0.65 2.22625,1.0075 3.46125,1.0075 1.885,0 3.445,-1.4625 3.445,-3.25 z"
         style="line-height:10"
         id="path287" />
    </g>
    <g
       aria-label="16"
       id="text241"
       style="font-size:16.25px;line-height:0%;font-family:Iwona;-inkscape-font-specification:Iwona;letter-spacing:0px;word-spacing:0px;stroke-width:1px">
      <path
         d="m 554.57509,94.188919 v -11.2125 h -0.9425 c -0.89375,1.02375 -1.95,1.90125 -3.12,2.58375 v 0.6825 c 0.99125,-0.47125 1.9175,-1.02375 2.795,-1.69 v 9.63625 z"
         style="line-height:10"
         id="path290" />
      <path
         d="m 565.46258,90.532669 c 0,-2.34 -0.92625,-3.81875 -3.10375,-3.81875 -0.9425,0 -1.82,0.43875 -2.3725,1.18625 0,-2.12875 0.53625,-4.40375 2.3725,-4.40375 0.82875,0 1.64125,0.27625 2.29125,0.79625 v -0.6825 c -0.65,-0.52 -1.4625,-0.79625 -2.29125,-0.79625 -2.55125,0 -3.8025,2.8925 -3.8025,5.76875 0,4.03 1.04,5.76875 3.46125,5.76875 2.06375,0 3.445,-1.5275 3.445,-3.81875 z m -1.43,0 c 0,1.885 -0.8125,3.13625 -2.015,3.13625 -2.275,0 -2.03125,-2.45375 -2.03125,-5.08625 0.5525,-0.7475 1.43,-1.18625 2.3725,-1.18625 1.3,0 1.67375,1.625 1.67375,3.13625 z"
         style="line-height:10"
         id="path292" />
    </g>
    <g
       aria-label="3"
       id="text245"
       style="font-size:16.25px;line-height:0%;font-family:Iwona;-inkscape-font-specification:Iwona;letter-spacing:0px;word-spacing:0px;stroke-width:1px">
      <path
         d="m 585.27783,91.101419 c 0,-1.43 -1.0075,-2.665 -2.405,-3.0875 1.235,-0.3575 1.99875,-1.28375 1.99875,-2.51875 0,-1.60875 -1.3,-2.68125 -3.25,-2.68125 -1.05625,0 -2.08,0.3575 -2.90875,1.0075 v 0.6825 c 0.82875,-0.65 1.8525,-1.0075 2.90875,-1.0075 1.18625,0 1.9825,0.79625 1.9825,1.99875 0,1.93375 -0.89375,2.4375 -2.925,2.4375 v 0.60125 c 2.19375,0 3.16875,0.52 3.16875,2.5675 0,1.41375 -0.91,2.5675 -2.015,2.5675 -1.235,0 -2.4375,-0.3575 -3.46125,-1.0075 v 0.6825 c 1.02375,0.65 2.22625,1.0075 3.46125,1.0075 1.885,0 3.445,-1.4625 3.445,-3.25 z"
         style="line-height:10"
         id="path295" />
    </g>
    <g
       aria-label="6"
       id="text249"
       style="font-size:16.25px;line-height:0%;font-family:Iwona;-inkscape-font-specification:Iwona;letter-spacing:0px;word-spacing:0px;stroke-width:1px">
      <path
         d="m 613.62427,90.532669 c 0,-2.34 -0.92625,-3.81875 -3.10375,-3.81875 -0.9425,0 -1.82,0.43875 -2.3725,1.18625 0,-2.12875 0.53625,-4.40375 2.3725,-4.40375 0.82875,0 1.64125,0.27625 2.29125,0.79625 v -0.6825 c -0.65,-0.52 -1.4625,-0.79625 -2.29125,-0.79625 -2.55125,0 -3.8025,2.8925 -3.8025,5.76875 0,4.03 1.04,5.76875 3.46125,5.76875 2.06375,0 3.445,-1.5275 3.445,-3.81875 z m -1.43,0 c 0,1.885 -0.8125,3.13625 -2.015,3.13625 -2.275,0 -2.03125,-2.45375 -2.03125,-5.08625 0.5525,-0.7475 1.43,-1.18625 2.3725,-1.18625 1.3,0 1.67375,1.625 1.67375,3.13625 z"
         style="line-height:10"
         id="path299" />
    </g>
    <g
       aria-label="9"
       id="text253"
       style="font-size:16.25px;line-height:0%;font-family:Iwona;-inkscape-font-specification:Iwona;letter-spacing:0px;word-spacing:0px;stroke-width:1px">
      <path
         d="m 641.9707,88.582669 c 0,-4.03 -1.04,-5.76875 -3.445,-5.76875 -2.08,0 -3.46125,1.5275 -3.46125,3.81875 0,2.34 0.92625,3.81875 3.10375,3.81875 0.9425,0 1.82,-0.43875 2.3725,-1.18625 0,2.12875 -0.53625,4.40375 -2.3725,4.40375 -0.82875,0 -1.64125,-0.27625 -2.29125,-0.79625 v 0.6825 c 0.65,0.52 1.4625,0.79625 2.29125,0.79625 2.55125,0 3.8025,-2.8925 3.8025,-5.76875 z m -1.43,0 c -0.5525,0.7475 -1.43,1.18625 -2.3725,1.18625 -1.3,0 -1.67375,-1.625 -1.67375,-3.13625 0,-1.885 0.8125,-3.13625 2.03125,-3.13625 2.25875,0 2.015,2.45375 2.015,5.08625 z"
         style="line-height:10"
         id="path302" />
    </g>
    <g
       aria-label="12"
       id="text337"
       style="font-size:16.25px;line-height:0%;font-family:Iwona;-inkscape-font-specification:Iwona;letter-spacing:0px;word-spacing:0px;stroke-width:1px">
      <path
         d="m 667.96095,94.270164 v -11.2125 h -0.9425 c -0.89375,1.02375 -1.95,1.90125 -3.12,2.58375 v 0.6825 c 0.99125,-0.47125 1.9175,-1.02375 2.795,-1.69 v 9.63625 z"
         style="line-height:10"
         id="path305" />
      <path
         d="m 678.84844,94.270164 v -1.0075 h -5.73625 l 2.99,-2.9575 c 1.3325,-1.3325 2.58375,-2.8925 2.58375,-4.7775 0,-1.5925 -1.57625,-2.6325 -3.2825,-2.6325 -1.28375,0 -2.5025,0.585 -3.29875,1.57625 v 0.6825 c 0.82875,-0.95875 2.03125,-1.51125 3.29875,-1.51125 1.08875,0 2.015,0.8125 2.015,1.885 0,1.60875 -0.7475,3.10375 -1.8525,4.2575 l -3.62375,3.72125 v 0.76375 z"
         style="line-height:10"
         id="path307" />
    </g>
    <path
       style="fill:none;fill-rule:evenodd;stroke:#ff6600;stroke-width:1.21875;stroke-linecap:butt;stroke-linejoin:miter;stroke-miterlimit:4;stroke-dasharray:none;stroke-opacity:1"
       d="m 88.582677,141.73227 c -10e-7,24.80315 230.314963,0 230.314963,21.25984 0,-21.25984 230.31496,3.54331 230.31496,-21.25984"
       id="path950" />
    <g
       aria-label="16 millisecondes
13 millisecondes à '1'"
       id="text1759"
       style="font-size:16.25px;line-height:1;font-family:Iwona;-inkscape-font-specification:Iwona;text-align:center;letter-spacing:0px;word-spacing:0px;text-anchor:middle;stroke-width:1px">
      <path
         d="m 267.11717,180.70865 v -11.2125 h -0.9425 c -0.89375,1.02375 -1.95,1.90125 -3.12,2.58375 v 0.6825 c 0.99125,-0.47125 1.9175,-1.02375 2.795,-1.69 v 9.63625 z"
         id="path310" />
      <path
         d="m 278.00466,177.0524 c 0,-2.34 -0.92625,-3.81875 -3.10375,-3.81875 -0.9425,0 -1.82,0.43875 -2.3725,1.18625 0,-2.12875 0.53625,-4.40375 2.3725,-4.40375 0.82875,0 1.64125,0.27625 2.29125,0.79625 v -0.6825 c -0.65,-0.52 -1.4625,-0.79625 -2.29125,-0.79625 -2.55125,0 -3.8025,2.8925 -3.8025,5.76875 0,4.03 1.04,5.76875 3.46125,5.76875 2.06375,0 3.445,-1.5275 3.445,-3.81875 z m -1.43,0 c 0,1.885 -0.8125,3.13625 -2.015,3.13625 -2.275,0 -2.03125,-2.45375 -2.03125,-5.08625 0.5525,-0.7475 1.43,-1.18625 2.3725,-1.18625 1.3,0 1.67375,1.625 1.67375,3.13625 z"
         id="path312" />
      <path
         d="m 294.40088,180.70865 v -5.28125 c 0,-1.1375 -0.66625,-2.19375 -1.7225,-2.19375 -0.91,0 -1.755,0.47125 -2.2425,1.235 -0.26,-0.715 -0.8125,-1.235 -1.56,-1.235 -0.845,0 -1.5275,0.585 -2.08,1.235 v -1.0725 h -1.2675 v 7.3125 h 1.2675 v -5.7525 c 0.39,-0.50375 0.8775,-0.975 1.51125,-0.975 0.66625,0 1.02375,0.715 1.02375,1.44625 v 5.28125 h 1.2675 v -5.28125 c 0,-0.195 -0.0163,-0.37375 -0.0488,-0.56875 0.39,-0.50375 0.92625,-0.8775 1.56,-0.8775 0.66625,0 1.02375,0.715 1.02375,1.44625 v 5.28125 z"
         id="path314" />
      <path
         d="m 299.89335,180.1399 v -0.4875 c -0.30875,0.26 -0.66625,0.47125 -1.0725,0.47125 -0.60125,0 -0.715,-0.7475 -0.715,-1.44625 v -5.28125 h -1.2675 v 5.28125 c 0,1.08875 0.4225,2.19375 1.38125,2.19375 0.6175,0 1.2025,-0.30875 1.67375,-0.73125 z m -1.625,-9.27875 c 0,-0.43875 -0.3575,-0.79625 -0.79625,-0.79625 -0.43875,0 -0.79625,0.3575 -0.79625,0.79625 0,0.43875 0.3575,0.79625 0.79625,0.79625 0.43875,0 0.79625,-0.3575 0.79625,-0.79625 z"
         id="path317" />
      <path
         d="m 304.57334,180.1399 v -0.4875 c -0.30875,0.26 -0.66625,0.47125 -1.0725,0.47125 -0.60125,0 -0.715,-0.7475 -0.715,-1.44625 v -9.34375 h -1.2675 v 9.34375 c 0,1.08875 0.4225,2.19375 1.38125,2.19375 0.6175,0 1.2025,-0.30875 1.67375,-0.73125 z"
         id="path319" />
      <path
         d="m 309.2533,180.1399 v -0.4875 c -0.30875,0.26 -0.66625,0.47125 -1.0725,0.47125 -0.60125,0 -0.715,-0.7475 -0.715,-1.44625 v -9.34375 h -1.2675 v 9.34375 c 0,1.08875 0.4225,2.19375 1.38125,2.19375 0.6175,0 1.2025,-0.30875 1.67375,-0.73125 z"
         id="path321" />
      <path
         d="m 313.85202,180.1399 v -0.4875 c -0.30875,0.26 -0.66625,0.47125 -1.0725,0.47125 -0.60125,0 -0.715,-0.7475 -0.715,-1.44625 v -5.28125 h -1.2675 v 5.28125 c 0,1.08875 0.4225,2.19375 1.38125,2.19375 0.6175,0 1.2025,-0.30875 1.67375,-0.73125 z m -1.625,-9.27875 c 0,-0.43875 -0.3575,-0.79625 -0.79625,-0.79625 -0.43875,0 -0.79625,0.3575 -0.79625,0.79625 0,0.43875 0.3575,0.79625 0.79625,0.79625 0.43875,0 0.79625,-0.3575 0.79625,-0.79625 z"
         id="path323" />
      <path
         d="m 320.41701,178.62865 c 0,-1.28375 -1.365,-1.95 -2.6975,-2.275 -0.78,-0.195 -1.625,-0.52 -1.625,-1.28375 0,-0.69875 0.715,-1.15375 1.495,-1.15375 0.86125,0 1.7225,0.26 2.4375,0.73125 v -0.6825 c -0.715,-0.47125 -1.57625,-0.73125 -2.4375,-0.73125 -1.41375,0 -2.71375,0.86125 -2.71375,2.1775 0,1.18625 1.31625,1.73875 2.5675,2.0475 0.86125,0.21125 1.755,0.66625 1.755,1.495 0,0.76375 -0.78,1.235 -1.60875,1.235 -1.0075,0 -1.9825,-0.24375 -2.84375,-0.73125 v 0.6825 c 0.86125,0.4875 1.83625,0.73125 2.84375,0.73125 1.4625,0 2.8275,-0.8775 2.8275,-2.2425 z"
         id="path325" />
      <path
         d="m 328.33074,177.2149 v -0.1625 c 0,-2.29125 -1.25125,-3.81875 -3.13625,-3.81875 -1.90125,0 -3.1525,1.5275 -3.1525,3.81875 0,2.29125 1.25125,3.81875 3.1525,3.81875 0.8125,0 1.60875,-0.26 2.275,-0.73125 v -0.6825 c -0.76375,0.4875 -1.38125,0.66625 -2.275,0.66625 -1.38125,0 -1.7225,-1.31625 -1.7225,-2.90875 z m -1.43,-0.6825 h -3.42875 c 0,-1.3 0.5525,-2.61625 1.7225,-2.61625 1.15375,0 1.70625,1.31625 1.70625,2.61625 z"
         id="path327" />
      <path
         d="m 335.70822,175.08615 v -0.6825 c -0.52,-0.73125 -1.365,-1.17 -2.275,-1.17 -2.03125,0 -3.39625,1.5275 -3.39625,3.81875 0,2.29125 1.365,3.81875 3.39625,3.81875 0.845,0 1.64125,-0.4225 2.1125,-1.12125 v -0.6825 c -0.5525,0.82875 -1.12125,1.12125 -2.1125,1.12125 -1.17,0 -1.96625,-1.25125 -1.96625,-3.13625 0,-1.885 0.79625,-3.13625 1.96625,-3.13625 1.0075,0 1.69,0.3575 2.275,1.17 z"
         id="path329" />
      <path
         d="m 343.29695,177.0524 c 0,-2.48625 -1.105,-3.81875 -3.13625,-3.81875 -2.0475,0 -3.1525,1.3325 -3.1525,3.81875 0,2.48625 1.105,3.81875 3.1525,3.81875 2.03125,0 3.13625,-1.3325 3.13625,-3.81875 z m -1.43,0 c 0,2.03125 -0.60125,3.13625 -1.70625,3.13625 -1.12125,0 -1.7225,-1.105 -1.7225,-3.13625 0,-2.03125 0.60125,-3.13625 1.7225,-3.13625 1.105,0 1.70625,1.105 1.70625,3.13625 z"
         id="path331" />
      <path
         d="m 351.3732,180.70865 v -5.28125 c 0,-1.18625 -0.91,-2.19375 -2.08,-2.19375 -0.975,0 -1.83625,0.5525 -2.535,1.235 v -1.0725 h -1.2675 v 7.3125 h 1.2675 v -5.73625 c 0.5525,-0.5525 1.235,-0.99125 1.99875,-0.99125 0.76375,0 1.34875,0.66625 1.34875,1.44625 v 5.28125 z"
         id="path333" />
      <path
         d="m 359.77442,180.70865 v -11.375 h -1.2675 v 4.33875 c -0.63375,-0.27625 -1.31625,-0.43875 -1.99875,-0.43875 -2.03125,0 -3.0225,1.625 -3.0225,3.81875 0,2.16125 0.8125,3.81875 2.77875,3.81875 0.82875,0 1.5925,-0.37375 2.2425,-0.89375 v 0.73125 z m -1.2675,-1.41375 c -0.4875,0.4875 -1.08875,0.89375 -1.7875,0.89375 -1.47875,0 -1.80375,-1.43 -1.80375,-3.13625 0,-1.5275 0.47125,-3.13625 1.80375,-3.13625 0.6175,0 1.235,0.1625 1.7875,0.43875 z"
         id="path335" />
      <path
         d="m 368.25691,177.2149 v -0.1625 c 0,-2.29125 -1.25125,-3.81875 -3.13625,-3.81875 -1.90125,0 -3.1525,1.5275 -3.1525,3.81875 0,2.29125 1.25125,3.81875 3.1525,3.81875 0.8125,0 1.60875,-0.26 2.275,-0.73125 v -0.6825 c -0.76375,0.4875 -1.38125,0.66625 -2.275,0.66625 -1.38125,0 -1.7225,-1.31625 -1.7225,-2.90875 z m -1.43,-0.6825 h -3.42875 c 0,-1.3 0.5525,-2.61625 1.7225,-2.61625 1.15375,0 1.70625,1.31625 1.70625,2.61625 z"
         id="path337" />
      <path
         d="m 375.30939,178.62865 c 0,-1.28375 -1.365,-1.95 -2.6975,-2.275 -0.78,-0.195 -1.625,-0.52 -1.625,-1.28375 0,-0.69875 0.715,-1.15375 1.495,-1.15375 0.86125,0 1.7225,0.26 2.4375,0.73125 v -0.6825 c -0.715,-0.47125 -1.57625,-0.73125 -2.4375,-0.73125 -1.41375,0 -2.71375,0.86125 -2.71375,2.1775 0,1.18625 1.31625,1.73875 2.5675,2.0475 0.86125,0.21125 1.755,0.66625 1.755,1.495 0,0.76375 -0.78,1.235 -1.60875,1.235 -1.0075,0 -1.9825,-0.24375 -2.84375,-0.73125 v 0.6825 c 0.86125,0.4875 1.83625,0.73125 2.84375,0.73125 1.4625,0 2.8275,-0.8775 2.8275,-2.2425 z"
         id="path339" />
      <path
         d="m 251.29783,196.95865 v -11.2125 h -0.9425 c -0.89375,1.02375 -1.95,1.90125 -3.12,2.58375 v 0.6825 c 0.99125,-0.47125 1.9175,-1.02375 2.795,-1.69 v 9.63625 z"
         id="path341" />
      <path
         d="m 262.18533,193.87115 c 0,-1.43 -1.0075,-2.665 -2.405,-3.0875 1.235,-0.3575 1.99875,-1.28375 1.99875,-2.51875 0,-1.60875 -1.3,-2.68125 -3.25,-2.68125 -1.05625,0 -2.08,0.3575 -2.90875,1.0075 v 0.6825 c 0.82875,-0.65 1.8525,-1.0075 2.90875,-1.0075 1.18625,0 1.9825,0.79625 1.9825,1.99875 0,1.93375 -0.89375,2.4375 -2.925,2.4375 v 0.60125 c 2.19375,0 3.16875,0.52 3.16875,2.5675 0,1.41375 -0.91,2.5675 -2.015,2.5675 -1.235,0 -2.4375,-0.3575 -3.46125,-1.0075 v 0.6825 c 1.02375,0.65 2.22625,1.0075 3.46125,1.0075 1.885,0 3.445,-1.4625 3.445,-3.25 z"
         id="path343" />
      <path
         d="m 278.58154,196.95865 v -5.28125 c 0,-1.1375 -0.66625,-2.19375 -1.7225,-2.19375 -0.91,0 -1.755,0.47125 -2.2425,1.235 -0.26,-0.715 -0.8125,-1.235 -1.56,-1.235 -0.845,0 -1.5275,0.585 -2.08,1.235 v -1.0725 h -1.2675 v 7.3125 h 1.2675 v -5.7525 c 0.39,-0.50375 0.8775,-0.975 1.51125,-0.975 0.66625,0 1.02375,0.715 1.02375,1.44625 v 5.28125 h 1.2675 v -5.28125 c 0,-0.195 -0.0163,-0.37375 -0.0487,-0.56875 0.39,-0.50375 0.92625,-0.8775 1.56,-0.8775 0.66625,0 1.02375,0.715 1.02375,1.44625 v 5.28125 z"
         id="path345" />
      <path
         d="m 284.07402,196.3899 v -0.4875 c -0.30875,0.26 -0.66625,0.47125 -1.0725,0.47125 -0.60125,0 -0.715,-0.7475 -0.715,-1.44625 v -5.28125 h -1.2675 v 5.28125 c 0,1.08875 0.4225,2.19375 1.38125,2.19375 0.6175,0 1.2025,-0.30875 1.67375,-0.73125 z m -1.625,-9.27875 c 0,-0.43875 -0.3575,-0.79625 -0.79625,-0.79625 -0.43875,0 -0.79625,0.3575 -0.79625,0.79625 0,0.43875 0.3575,0.79625 0.79625,0.79625 0.43875,0 0.79625,-0.3575 0.79625,-0.79625 z"
         id="path347" />
      <path
         d="m 288.754,196.3899 v -0.4875 c -0.30875,0.26 -0.66625,0.47125 -1.0725,0.47125 -0.60125,0 -0.715,-0.7475 -0.715,-1.44625 v -9.34375 h -1.2675 v 9.34375 c 0,1.08875 0.4225,2.19375 1.38125,2.19375 0.6175,0 1.2025,-0.30875 1.67375,-0.73125 z"
         id="path349" />
      <path
         d="m 293.43397,196.3899 v -0.4875 c -0.30875,0.26 -0.66625,0.47125 -1.0725,0.47125 -0.60125,0 -0.715,-0.7475 -0.715,-1.44625 v -9.34375 h -1.2675 v 9.34375 c 0,1.08875 0.4225,2.19375 1.38125,2.19375 0.6175,0 1.2025,-0.30875 1.67375,-0.73125 z"
         id="path351" />
      <path
         d="m 298.03269,196.3899 v -0.4875 c -0.30875,0.26 -0.66625,0.47125 -1.0725,0.47125 -0.60125,0 -0.715,-0.7475 -0.715,-1.44625 v -5.28125 h -1.2675 v 5.28125 c 0,1.08875 0.4225,2.19375 1.38125,2.19375 0.6175,0 1.2025,-0.30875 1.67375,-0.73125 z m -1.625,-9.27875 c 0,-0.43875 -0.3575,-0.79625 -0.79625,-0.79625 -0.43875,0 -0.79625,0.3575 -0.79625,0.79625 0,0.43875 0.3575,0.79625 0.79625,0.79625 0.43875,0 0.79625,-0.3575 0.79625,-0.79625 z"
         id="path353" />
      <path
         d="m 304.59768,194.87865 c 0,-1.28375 -1.365,-1.95 -2.6975,-2.275 -0.78,-0.195 -1.625,-0.52 -1.625,-1.28375 0,-0.69875 0.715,-1.15375 1.495,-1.15375 0.86125,0 1.7225,0.26 2.4375,0.73125 v -0.6825 c -0.715,-0.47125 -1.57625,-0.73125 -2.4375,-0.73125 -1.41375,0 -2.71375,0.86125 -2.71375,2.1775 0,1.18625 1.31625,1.73875 2.5675,2.0475 0.86125,0.21125 1.755,0.66625 1.755,1.495 0,0.76375 -0.78,1.235 -1.60875,1.235 -1.0075,0 -1.9825,-0.24375 -2.84375,-0.73125 v 0.6825 c 0.86125,0.4875 1.83625,0.73125 2.84375,0.73125 1.4625,0 2.8275,-0.8775 2.8275,-2.2425 z"
         id="path355" />
      <path
         d="m 312.51141,193.4649 v -0.1625 c 0,-2.29125 -1.25125,-3.81875 -3.13625,-3.81875 -1.90125,0 -3.1525,1.5275 -3.1525,3.81875 0,2.29125 1.25125,3.81875 3.1525,3.81875 0.8125,0 1.60875,-0.26 2.275,-0.73125 v -0.6825 c -0.76375,0.4875 -1.38125,0.66625 -2.275,0.66625 -1.38125,0 -1.7225,-1.31625 -1.7225,-2.90875 z m -1.43,-0.6825 h -3.42875 c 0,-1.3 0.5525,-2.61625 1.7225,-2.61625 1.15375,0 1.70625,1.31625 1.70625,2.61625 z"
         id="path357" />
      <path
         d="m 319.88889,191.33615 v -0.6825 c -0.52,-0.73125 -1.365,-1.17 -2.275,-1.17 -2.03125,0 -3.39625,1.5275 -3.39625,3.81875 0,2.29125 1.365,3.81875 3.39625,3.81875 0.845,0 1.64125,-0.4225 2.1125,-1.12125 v -0.6825 c -0.5525,0.82875 -1.12125,1.12125 -2.1125,1.12125 -1.17,0 -1.96625,-1.25125 -1.96625,-3.13625 0,-1.885 0.79625,-3.13625 1.96625,-3.13625 1.0075,0 1.69,0.3575 2.275,1.17 z"
         id="path359" />
      <path
         d="m 327.47762,193.3024 c 0,-2.48625 -1.105,-3.81875 -3.13625,-3.81875 -2.0475,0 -3.1525,1.3325 -3.1525,3.81875 0,2.48625 1.105,3.81875 3.1525,3.81875 2.03125,0 3.13625,-1.3325 3.13625,-3.81875 z m -1.43,0 c 0,2.03125 -0.60125,3.13625 -1.70625,3.13625 -1.12125,0 -1.7225,-1.105 -1.7225,-3.13625 0,-2.03125 0.60125,-3.13625 1.7225,-3.13625 1.105,0 1.70625,1.105 1.70625,3.13625 z"
         id="path361" />
      <path
         d="m 335.55387,196.95865 v -5.28125 c 0,-1.18625 -0.91,-2.19375 -2.08,-2.19375 -0.975,0 -1.83625,0.5525 -2.535,1.235 v -1.0725 h -1.2675 v 7.3125 h 1.2675 v -5.73625 c 0.5525,-0.5525 1.235,-0.99125 1.99875,-0.99125 0.76375,0 1.34875,0.66625 1.34875,1.44625 v 5.28125 z"
         id="path363" />
      <path
         d="m 343.95509,196.95865 v -11.375 h -1.2675 v 4.33875 c -0.63375,-0.27625 -1.31625,-0.43875 -1.99875,-0.43875 -2.03125,0 -3.0225,1.625 -3.0225,3.81875 0,2.16125 0.8125,3.81875 2.77875,3.81875 0.82875,0 1.5925,-0.37375 2.2425,-0.89375 v 0.73125 z m -1.2675,-1.41375 c -0.4875,0.4875 -1.08875,0.89375 -1.7875,0.89375 -1.47875,0 -1.80375,-1.43 -1.80375,-3.13625 0,-1.5275 0.47125,-3.13625 1.80375,-3.13625 0.6175,0 1.235,0.1625 1.7875,0.43875 z"
         id="path365" />
      <path
         d="m 352.43758,193.4649 v -0.1625 c 0,-2.29125 -1.25125,-3.81875 -3.13625,-3.81875 -1.90125,0 -3.1525,1.5275 -3.1525,3.81875 0,2.29125 1.25125,3.81875 3.1525,3.81875 0.8125,0 1.60875,-0.26 2.275,-0.73125 v -0.6825 c -0.76375,0.4875 -1.38125,0.66625 -2.275,0.66625 -1.38125,0 -1.7225,-1.31625 -1.7225,-2.90875 z m -1.43,-0.6825 h -3.42875 c 0,-1.3 0.5525,-2.61625 1.7225,-2.61625 1.15375,0 1.70625,1.31625 1.70625,2.61625 z"
         id="path367" />
      <path
         d="m 359.49005,194.87865 c 0,-1.28375 -1.365,-1.95 -2.6975,-2.275 -0.78,-0.195 -1.625,-0.52 -1.625,-1.28375 0,-0.69875 0.715,-1.15375 1.495,-1.15375 0.86125,0 1.7225,0.26 2.4375,0.73125 v -0.6825 c -0.715,-0.47125 -1.57625,-0.73125 -2.4375,-0.73125 -1.41375,0 -2.71375,0.86125 -2.71375,2.1775 0,1.18625 1.31625,1.73875 2.5675,2.0475 0.86125,0.21125 1.755,0.66625 1.755,1.495 0,0.76375 -0.78,1.235 -1.60875,1.235 -1.0075,0 -1.9825,-0.24375 -2.84375,-0.73125 v 0.6825 c 0.86125,0.4875 1.83625,0.73125 2.84375,0.73125 1.4625,0 2.8275,-0.8775 2.8275,-2.2425 z"
         id="path369" />
      <path
         d="m 372.65252,196.95865 v -4.55 c 0,-1.5275 -0.9425,-2.925 -2.35625,-2.925 -1.04,0 -2.015,0.3575 -2.8925,0.91 v 0.50375 c 0.73125,-0.40625 1.54375,-0.66625 2.38875,-0.66625 1.0075,0 1.5925,1.0725 1.5925,2.1775 v 0.2925 c -0.63375,-0.27625 -1.31625,-0.43875 -1.99875,-0.43875 -1.73875,0 -3.0225,0.79625 -3.0225,2.4375 0,1.56 1.1375,2.42125 2.77875,2.42125 0.82875,0 1.5925,-0.37375 2.2425,-0.89375 v 0.73125 z m -1.2675,-1.41375 c -0.4875,0.4875 -1.08875,0.89375 -1.7875,0.89375 -1.08875,0 -1.80375,-0.66625 -1.80375,-1.73875 0,-0.99125 0.8125,-1.755 1.80375,-1.755 0.6175,0 1.235,0.1625 1.7875,0.43875 z m -0.91,-6.9225 c -0.63375,-0.8775 -0.975,-1.95 -0.975,-3.03875 h -1.4625 c 0,1.21875 0.89375,2.1775 1.755,3.03875 z"
         id="path371" />
      <path
         d="m 380.72872,189.38615 v -3.8025 h -0.7475 v 3.8025 z"
         id="path373" />
      <path
         d="m 386.70872,196.95865 v -11.2125 h -0.9425 c -0.89375,1.02375 -1.95,1.90125 -3.12,2.58375 v 0.6825 c 0.99125,-0.47125 1.9175,-1.02375 2.795,-1.69 v 9.63625 z"
         id="path375" />
      <path
         d="m 391.24246,189.38615 v -3.8025 h -0.7475 v 3.8025 z"
         id="path377" />
    </g>
    <g
       aria-label="-13"
       id="text1767"
       style="font-size:11.25px;line-height:0%;font-family:Iwona;-inkscape-font-specification:Iwona;text-align:center;letter-spacing:0px;word-spacing:0px;text-anchor:middle;fill:#ff6600;stroke-width:1px">
      <path
         d="m 115.19336,68.616127 v -0.5625 h -3.74625 v 0.5625 z"
         style="line-height:10"
         id="path380" />
      <path
         d="m 119.33334,70.866127 v -7.7625 h -0.6525 c -0.61875,0.70875 -1.35,1.31625 -2.16,1.78875 v 0.4725 c 0.68625,-0.32625 1.3275,-0.70875 1.935,-1.17 v 6.67125 z"
         style="line-height:10"
         id="path382" />
      <path
         d="m 126.87084,68.728627 c 0,-0.99 -0.6975,-1.845 -1.665,-2.1375 0.855,-0.2475 1.38375,-0.88875 1.38375,-1.74375 0,-1.11375 -0.9,-1.85625 -2.25,-1.85625 -0.73125,0 -1.44,0.2475 -2.01375,0.6975 v 0.4725 c 0.57375,-0.45 1.2825,-0.6975 2.01375,-0.6975 0.82125,0 1.3725,0.55125 1.3725,1.38375 0,1.33875 -0.61875,1.6875 -2.025,1.6875 v 0.41625 c 1.51875,0 2.19375,0.36 2.19375,1.7775 0,0.97875 -0.63,1.7775 -1.395,1.7775 -0.855,0 -1.6875,-0.2475 -2.39625,-0.6975 v 0.4725 c 0.70875,0.45 1.54125,0.6975 2.39625,0.6975 1.305,0 2.385,-1.0125 2.385,-2.25 z"
         style="line-height:10"
         id="path384" />
    </g>
    <path
       style="fill:none;fill-rule:evenodd;stroke:#ff6600;stroke-width:0.9375px;stroke-linecap:butt;stroke-linejoin:miter;stroke-opacity:1;marker-end:url(#Arrow1Mend)"
       d="m 109.84252,77.952743 c 0,0 7.08662,-10.629922 17.71653,0"
       id="path1769" />
    <g
       aria-label="-13"
       id="text2409"
       style="font-size:11.25px;line-height:0%;font-family:Iwona;-inkscape-font-specification:Iwona;text-align:center;letter-spacing:0px;word-spacing:0px;text-anchor:middle;fill:#ff6600;stroke-width:1px">
      <path
         d="m 256.92563,68.616127 v -0.5625 h -3.74625 v 0.5625 z"
         style="line-height:10"
         id="path387" />
      <path
         d="m 261.06561,70.866127 v -7.7625 h -0.6525 c -0.61875,0.70875 -1.35,1.31625 -2.16,1.78875 v 0.4725 c 0.68625,-0.32625 1.3275,-0.70875 1.935,-1.17 v 6.67125 z"
         style="line-height:10"
         id="path389" />
      <path
         d="m 268.60311,68.728627 c 0,-0.99 -0.6975,-1.845 -1.665,-2.1375 0.855,-0.2475 1.38375,-0.88875 1.38375,-1.74375 0,-1.11375 -0.9,-1.85625 -2.25,-1.85625 -0.73125,0 -1.44,0.2475 -2.01375,0.6975 v 0.4725 c 0.57375,-0.45 1.2825,-0.6975 2.01375,-0.6975 0.82125,0 1.3725,0.55125 1.3725,1.38375 0,1.33875 -0.61875,1.6875 -2.025,1.6875 v 0.41625 c 1.51875,0 2.19375,0.36 2.19375,1.7775 0,0.97875 -0.63,1.7775 -1.395,1.7775 -0.855,0 -1.6875,-0.2475 -2.39625,-0.6975 v 0.4725 c 0.70875,0.45 1.54125,0.6975 2.39625,0.6975 1.305,0 2.385,-1.0125 2.385,-2.25 z"
         style="line-height:10"
         id="path391" />
    </g>
    <path
       style="fill:none;fill-rule:evenodd;stroke:#ff6600;stroke-width:0.9375px;stroke-linecap:butt;stroke-linejoin:miter;stroke-opacity:1;marker-end:url(#marker2315)"
       d="m 251.57481,77.952743 c 0,0 7.08662,-10.629922 17.71653,0"
       id="path2411" />
    <path
       id="path2553"
       d="m 138.18898,77.952743 c 0,0 7.08662,-10.629922 17.71653,0"
       style="fill:none;fill-rule:evenodd;stroke:#6600ff;stroke-width:0.9375px;stroke-linecap:butt;stroke-linejoin:miter;stroke-opacity:1;marker-end:url(#marker2557)" />
    <g
       aria-label="+16
-13"
       id="text2891"
       style="font-size:10px;line-height:1;font-family:Iwona;-inkscape-font-specification:Iwona;text-align:end;letter-spacing:0px;word-spacing:0px;text-anchor:end;fill:#6600ff;stroke-width:1px">
      <path
         d="m 145.27043,57.986137 v -0.5 h -2.89 v -2.89 h -0.5 v 2.89 h -2.89 v 0.5 h 2.89 v 2.89 h 0.5 v -2.89 z"
         id="path394" />
      <path
         d="m 149.32042,60.236137 v -6.9 h -0.58 c -0.55,0.63 -1.2,1.17 -1.92,1.59 v 0.42 c 0.61,-0.29 1.18,-0.63 1.72,-1.04 v 5.93 z"
         id="path396" />
      <path
         d="m 156.02042,57.986137 c 0,-1.44 -0.57,-2.35 -1.91,-2.35 -0.58,0 -1.12,0.27 -1.46,0.73 0,-1.31 0.33,-2.71 1.46,-2.71 0.51,0 1.01,0.17 1.41,0.49 v -0.42 c -0.4,-0.32 -0.9,-0.49 -1.41,-0.49 -1.57,0 -2.34,1.78 -2.34,3.55 0,2.48 0.64,3.55 2.13,3.55 1.27,0 2.12,-0.94 2.12,-2.35 z m -0.88,0 c 0,1.16 -0.5,1.93 -1.24,1.93 -1.4,0 -1.25,-1.51 -1.25,-3.13 0.34,-0.46 0.88,-0.73 1.46,-0.73 0.8,0 1.03,1 1.03,1.93 z"
         id="path398" />
      <path
         d="m 145.64044,68.236137 v -0.5 h -3.33 v 0.5 z"
         id="path400" />
      <path
         d="m 149.32042,70.236137 v -6.9 h -0.58 c -0.55,0.63 -1.2,1.17 -1.92,1.59 v 0.42 c 0.61,-0.29 1.18,-0.63 1.72,-1.04 v 5.93 z"
         id="path402" />
      <path
         d="m 156.02042,68.336137 c 0,-0.88 -0.62,-1.64 -1.48,-1.9 0.76,-0.22 1.23,-0.79 1.23,-1.55 0,-0.99 -0.8,-1.65 -2,-1.65 -0.65,0 -1.28,0.22 -1.79,0.62 v 0.42 c 0.51,-0.4 1.14,-0.62 1.79,-0.62 0.73,0 1.22,0.49 1.22,1.23 0,1.19 -0.55,1.5 -1.8,1.5 v 0.37 c 1.35,0 1.95,0.32 1.95,1.58 0,0.87 -0.56,1.58 -1.24,1.58 -0.76,0 -1.5,-0.22 -2.13,-0.62 v 0.42 c 0.63,0.4 1.37,0.62 2.13,0.62 1.16,0 2.12,-0.9 2.12,-2 z"
         id="path404" />
    </g>
    <path
       style="fill:none;fill-rule:evenodd;stroke:#6600ff;stroke-width:0.9375px;stroke-linecap:butt;stroke-linejoin:miter;stroke-opacity:1;marker-end:url(#marker2557)"
       d="m 166.53544,77.952743 c 0,0 7.08662,-10.629922 17.71653,0"
       id="path186" />
    <g
       aria-label="+16
-13"
       id="text198"
       style="font-size:10px;line-height:1;font-family:Iwona;-inkscape-font-specification:Iwona;text-align:end;letter-spacing:0px;word-spacing:0px;text-anchor:end;fill:#6600ff;stroke-width:1px">
      <path
         d="m 173.61689,57.986137 v -0.5 h -2.89 v -2.89 h -0.5 v 2.89 h -2.89 v 0.5 h 2.89 v 2.89 h 0.5 v -2.89 z"
         id="path407" />
      <path
         d="m 177.66689,60.236137 v -6.9 h -0.58 c -0.55,0.63 -1.2,1.17 -1.92,1.59 v 0.42 c 0.61,-0.29 1.18,-0.63 1.72,-1.04 v 5.93 z"
         id="path409" />
      <path
         d="m 184.36689,57.986137 c 0,-1.44 -0.57,-2.35 -1.91,-2.35 -0.58,0 -1.12,0.27 -1.46,0.73 0,-1.31 0.33,-2.71 1.46,-2.71 0.51,0 1.01,0.17 1.41,0.49 v -0.42 c -0.4,-0.32 -0.9,-0.49 -1.41,-0.49 -1.57,0 -2.34,1.78 -2.34,3.55 0,2.48 0.64,3.55 2.13,3.55 1.27,0 2.12,-0.94 2.12,-2.35 z m -0.88,0 c 0,1.16 -0.5,1.93 -1.24,1.93 -1.4,0 -1.25,-1.51 -1.25,-3.13 0.34,-0.46 0.88,-0.73 1.46,-0.73 0.8,0 1.03,1 1.03,1.93 z"
         id="path411" />
      <path
         d="m 173.98691,68.236137 v -0.5 h -3.33 v 0.5 z"
         id="path413" />
      <path
         d="m 177.66689,70.236137 v -6.9 h -0.58 c -0.55,0.63 -1.2,1.17 -1.92,1.59 v 0.42 c 0.61,-0.29 1.18,-0.63 1.72,-1.04 v 5.93 z"
         id="path415" />
      <path
         d="m 184.36689,68.336137 c 0,-0.88 -0.62,-1.64 -1.48,-1.9 0.76,-0.22 1.23,-0.79 1.23,-1.55 0,-0.99 -0.8,-1.65 -2,-1.65 -0.65,0 -1.28,0.22 -1.79,0.62 v 0.42 c 0.51,-0.4 1.14,-0.62 1.79,-0.62 0.73,0 1.22,0.49 1.22,1.23 0,1.19 -0.55,1.5 -1.8,1.5 v 0.37 c 1.35,0 1.95,0.32 1.95,1.58 0,0.87 -0.56,1.58 -1.24,1.58 -0.76,0 -1.5,-0.22 -2.13,-0.62 v 0.42 c 0.63,0.4 1.37,0.62 2.13,0.62 1.16,0 2.12,-0.9 2.12,-2 z"
         id="path417" />
    </g>
    <path
       id="path200"
       d="m 194.88189,77.952743 c 0,0 7.08662,-10.629922 17.71653,0"
       style="fill:none;fill-rule:evenodd;stroke:#6600ff;stroke-width:0.9375px;stroke-linecap:butt;stroke-linejoin:miter;stroke-opacity:1;marker-end:url(#marker2557)" />
    <g
       aria-label="+16
-13"
       id="text206"
       style="font-size:10px;line-height:1;font-family:Iwona;-inkscape-font-specification:Iwona;text-align:end;letter-spacing:0px;word-spacing:0px;text-anchor:end;fill:#6600ff;stroke-width:1px">
      <path
         d="m 201.96334,57.986137 v -0.5 h -2.89 v -2.89 h -0.5 v 2.89 h -2.89 v 0.5 h 2.89 v 2.89 h 0.5 v -2.89 z"
         id="path420" />
      <path
         d="m 206.01334,60.236137 v -6.9 h -0.58 c -0.55,0.63 -1.2,1.17 -1.92,1.59 v 0.42 c 0.61,-0.29 1.18,-0.63 1.72,-1.04 v 5.93 z"
         id="path422" />
      <path
         d="m 212.71334,57.986137 c 0,-1.44 -0.57,-2.35 -1.91,-2.35 -0.58,0 -1.12,0.27 -1.46,0.73 0,-1.31 0.33,-2.71 1.46,-2.71 0.51,0 1.01,0.17 1.41,0.49 v -0.42 c -0.4,-0.32 -0.9,-0.49 -1.41,-0.49 -1.57,0 -2.34,1.78 -2.34,3.55 0,2.48 0.64,3.55 2.13,3.55 1.27,0 2.12,-0.94 2.12,-2.35 z m -0.88,0 c 0,1.16 -0.5,1.93 -1.24,1.93 -1.4,0 -1.25,-1.51 -1.25,-3.13 0.34,-0.46 0.88,-0.73 1.46,-0.73 0.8,0 1.03,1 1.03,1.93 z"
         id="path424" />
      <path
         d="m 202.33336,68.236137 v -0.5 h -3.33 v 0.5 z"
         id="path426" />
      <path
         d="m 206.01334,70.236137 v -6.9 h -0.58 c -0.55,0.63 -1.2,1.17 -1.92,1.59 v 0.42 c 0.61,-0.29 1.18,-0.63 1.72,-1.04 v 5.93 z"
         id="path428" />
      <path
         d="m 212.71334,68.336137 c 0,-0.88 -0.62,-1.64 -1.48,-1.9 0.76,-0.22 1.23,-0.79 1.23,-1.55 0,-0.99 -0.8,-1.65 -2,-1.65 -0.65,0 -1.28,0.22 -1.79,0.62 v 0.42 c 0.51,-0.4 1.14,-0.62 1.79,-0.62 0.73,0 1.22,0.49 1.22,1.23 0,1.19 -0.55,1.5 -1.8,1.5 v 0.37 c 1.35,0 1.95,0.32 1.95,1.58 0,0.87 -0.56,1.58 -1.24,1.58 -0.76,0 -1.5,-0.22 -2.13,-0.62 v 0.42 c 0.63,0.4 1.37,0.62 2.13,0.62 1.16,0 2.12,-0.9 2.12,-2 z"
         id="path430" />
    </g>
    <path
       style="fill:none;fill-rule:evenodd;stroke:#6600ff;stroke-width:0.9375px;stroke-linecap:butt;stroke-linejoin:miter;stroke-opacity:1;marker-end:url(#marker2557)"
       d="m 223.22835,77.952743 c 0,0 7.08662,-10.629922 17.71653,0"
       id="path208" />
    <g
       aria-label="+16
-13"
       id="text214"
       style="font-size:10px;line-height:1;font-family:Iwona;-inkscape-font-specification:Iwona;text-align:end;letter-spacing:0px;word-spacing:0px;text-anchor:end;fill:#6600ff;stroke-width:1px">
      <path
         d="m 230.30979,57.986137 v -0.5 h -2.89 v -2.89 h -0.5 v 2.89 h -2.89 v 0.5 h 2.89 v 2.89 h 0.5 v -2.89 z"
         id="path433" />
      <path
         d="m 234.35979,60.236137 v -6.9 h -0.58 c -0.55,0.63 -1.2,1.17 -1.92,1.59 v 0.42 c 0.61,-0.29 1.18,-0.63 1.72,-1.04 v 5.93 z"
         id="path435" />
      <path
         d="m 241.05979,57.986137 c 0,-1.44 -0.57,-2.35 -1.91,-2.35 -0.58,0 -1.12,0.27 -1.46,0.73 0,-1.31 0.33,-2.71 1.46,-2.71 0.51,0 1.01,0.17 1.41,0.49 v -0.42 c -0.4,-0.32 -0.9,-0.49 -1.41,-0.49 -1.57,0 -2.34,1.78 -2.34,3.55 0,2.48 0.64,3.55 2.13,3.55 1.27,0 2.12,-0.94 2.12,-2.35 z m -0.88,0 c 0,1.16 -0.5,1.93 -1.24,1.93 -1.4,0 -1.25,-1.51 -1.25,-3.13 0.34,-0.46 0.88,-0.73 1.46,-0.73 0.8,0 1.03,1 1.03,1.93 z"
         id="path437" />
      <path
         d="m 230.67981,68.236137 v -0.5 h -3.33 v 0.5 z"
         id="path439" />
      <path
         d="m 234.35979,70.236137 v -6.9 h -0.58 c -0.55,0.63 -1.2,1.17 -1.92,1.59 v 0.42 c 0.61,-0.29 1.18,-0.63 1.72,-1.04 v 5.93 z"
         id="path441" />
      <path
         d="m 241.05979,68.336137 c 0,-0.88 -0.62,-1.64 -1.48,-1.9 0.76,-0.22 1.23,-0.79 1.23,-1.55 0,-0.99 -0.8,-1.65 -2,-1.65 -0.65,0 -1.28,0.22 -1.79,0.62 v 0.42 c 0.51,-0.4 1.14,-0.62 1.79,-0.62 0.73,0 1.22,0.49 1.22,1.23 0,1.19 -0.55,1.5 -1.8,1.5 v 0.37 c 1.35,0 1.95,0.32 1.95,1.58 0,0.87 -0.56,1.58 -1.24,1.58 -0.76,0 -1.5,-0.22 -2.13,-0.62 v 0.42 c 0.63,0.4 1.37,0.62 2.13,0.62 1.16,0 2.12,-0.9 2.12,-2 z"
         id="path443" />
    </g>
    <path
       style="fill:none;fill-rule:evenodd;stroke:#6600ff;stroke-width:0.9375px;stroke-linecap:butt;stroke-linejoin:miter;stroke-opacity:1;marker-end:url(#marker2557)"
       d="m 279.92126,77.952743 c 0,0 7.08662,-10.629922 17.71653,0"
       id="path216" />
    <g
       aria-label="+16
-13"
       id="text222"
       style="font-size:10px;line-height:1;font-family:Iwona;-inkscape-font-specification:Iwona;text-align:end;letter-spacing:0px;word-spacing:0px;text-anchor:end;fill:#6600ff;stroke-width:1px">
      <path
         d="m 287.00269,57.986137 v -0.5 h -2.89 v -2.89 h -0.5 v 2.89 h -2.89 v 0.5 h 2.89 v 2.89 h 0.5 v -2.89 z"
         id="path446" />
      <path
         d="m 291.05269,60.236137 v -6.9 h -0.58 c -0.55,0.63 -1.2,1.17 -1.92,1.59 v 0.42 c 0.61,-0.29 1.18,-0.63 1.72,-1.04 v 5.93 z"
         id="path448" />
      <path
         d="m 297.75269,57.986137 c 0,-1.44 -0.57,-2.35 -1.91,-2.35 -0.58,0 -1.12,0.27 -1.46,0.73 0,-1.31 0.33,-2.71 1.46,-2.71 0.51,0 1.01,0.17 1.41,0.49 v -0.42 c -0.4,-0.32 -0.9,-0.49 -1.41,-0.49 -1.57,0 -2.34,1.78 -2.34,3.55 0,2.48 0.64,3.55 2.13,3.55 1.27,0 2.12,-0.94 2.12,-2.35 z m -0.88,0 c 0,1.16 -0.5,1.93 -1.24,1.93 -1.4,0 -1.25,-1.51 -1.25,-3.13 0.34,-0.46 0.88,-0.73 1.46,-0.73 0.8,0 1.03,1 1.03,1.93 z"
         id="path450" />
      <path
         d="m 287.37271,68.236137 v -0.5 h -3.33 v 0.5 z"
         id="path452" />
      <path
         d="m 291.05269,70.236137 v -6.9 h -0.58 c -0.55,0.63 -1.2,1.17 -1.92,1.59 v 0.42 c 0.61,-0.29 1.18,-0.63 1.72,-1.04 v 5.93 z"
         id="path454" />
      <path
         d="m 297.75269,68.336137 c 0,-0.88 -0.62,-1.64 -1.48,-1.9 0.76,-0.22 1.23,-0.79 1.23,-1.55 0,-0.99 -0.8,-1.65 -2,-1.65 -0.65,0 -1.28,0.22 -1.79,0.62 v 0.42 c 0.51,-0.4 1.14,-0.62 1.79,-0.62 0.73,0 1.22,0.49 1.22,1.23 0,1.19 -0.55,1.5 -1.8,1.5 v 0.37 c 1.35,0 1.95,0.32 1.95,1.58 0,0.87 -0.56,1.58 -1.24,1.58 -0.76,0 -1.5,-0.22 -2.13,-0.62 v 0.42 c 0.63,0.4 1.37,0.62 2.13,0.62 1.16,0 2.12,-0.9 2.12,-2 z"
         id="path456" />
    </g>
    <path
       id="path224"
       d="m 308.26772,77.952743 c 0,0 7.08662,-10.629922 17.71653,0"
       style="fill:none;fill-rule:evenodd;stroke:#6600ff;stroke-width:0.9375px;stroke-linecap:butt;stroke-linejoin:miter;stroke-opacity:1;marker-end:url(#marker2557)" />
    <g
       aria-label="+16
-13"
       id="text230"
       style="font-size:10px;line-height:1;font-family:Iwona;-inkscape-font-specification:Iwona;text-align:end;letter-spacing:0px;word-spacing:0px;text-anchor:end;fill:#6600ff;stroke-width:1px">
      <path
         d="m 315.34916,57.986137 v -0.5 h -2.89 v -2.89 h -0.5 v 2.89 h -2.89 v 0.5 h 2.89 v 2.89 h 0.5 v -2.89 z"
         id="path459" />
      <path
         d="m 319.39916,60.236137 v -6.9 h -0.58 c -0.55,0.63 -1.2,1.17 -1.92,1.59 v 0.42 c 0.61,-0.29 1.18,-0.63 1.72,-1.04 v 5.93 z"
         id="path461" />
      <path
         d="m 326.09916,57.986137 c 0,-1.44 -0.57,-2.35 -1.91,-2.35 -0.58,0 -1.12,0.27 -1.46,0.73 0,-1.31 0.33,-2.71 1.46,-2.71 0.51,0 1.01,0.17 1.41,0.49 v -0.42 c -0.4,-0.32 -0.9,-0.49 -1.41,-0.49 -1.57,0 -2.34,1.78 -2.34,3.55 0,2.48 0.64,3.55 2.13,3.55 1.27,0 2.12,-0.94 2.12,-2.35 z m -0.88,0 c 0,1.16 -0.5,1.93 -1.24,1.93 -1.4,0 -1.25,-1.51 -1.25,-3.13 0.34,-0.46 0.88,-0.73 1.46,-0.73 0.8,0 1.03,1 1.03,1.93 z"
         id="path463" />
      <path
         d="m 315.71917,68.236137 v -0.5 h -3.33 v 0.5 z"
         id="path465" />
      <path
         d="m 319.39916,70.236137 v -6.9 h -0.58 c -0.55,0.63 -1.2,1.17 -1.92,1.59 v 0.42 c 0.61,-0.29 1.18,-0.63 1.72,-1.04 v 5.93 z"
         id="path467" />
      <path
         d="m 326.09916,68.336137 c 0,-0.88 -0.62,-1.64 -1.48,-1.9 0.76,-0.22 1.23,-0.79 1.23,-1.55 0,-0.99 -0.8,-1.65 -2,-1.65 -0.65,0 -1.28,0.22 -1.79,0.62 v 0.42 c 0.51,-0.4 1.14,-0.62 1.79,-0.62 0.73,0 1.22,0.49 1.22,1.23 0,1.19 -0.55,1.5 -1.8,1.5 v 0.37 c 1.35,0 1.95,0.32 1.95,1.58 0,0.87 -0.56,1.58 -1.24,1.58 -0.76,0 -1.5,-0.22 -2.13,-0.62 v 0.42 c 0.63,0.4 1.37,0.62 2.13,0.62 1.16,0 2.12,-0.9 2.12,-2 z"
         id="path469" />
    </g>
    <path
       style="fill:none;fill-rule:evenodd;stroke:#6600ff;stroke-width:0.9375px;stroke-linecap:butt;stroke-linejoin:miter;stroke-opacity:1;marker-end:url(#marker2557)"
       d="m 336.61417,77.952743 c 0,0 7.08662,-10.629922 17.71653,0"
       id="path232" />
    <g
       aria-label="+16
-13"
       id="text238"
       style="font-size:10px;line-height:1;font-family:Iwona;-inkscape-font-specification:Iwona;text-align:end;letter-spacing:0px;word-spacing:0px;text-anchor:end;fill:#6600ff;stroke-width:1px">
      <path
         d="m 343.69563,57.986137 v -0.5 h -2.89 v -2.89 h -0.5 v 2.89 h -2.89 v 0.5 h 2.89 v 2.89 h 0.5 v -2.89 z"
         id="path472" />
      <path
         d="m 347.74563,60.236137 v -6.9 h -0.58 c -0.55,0.63 -1.2,1.17 -1.92,1.59 v 0.42 c 0.61,-0.29 1.18,-0.63 1.72,-1.04 v 5.93 z"
         id="path474" />
      <path
         d="m 354.44562,57.986137 c 0,-1.44 -0.57,-2.35 -1.91,-2.35 -0.58,0 -1.12,0.27 -1.46,0.73 0,-1.31 0.33,-2.71 1.46,-2.71 0.51,0 1.01,0.17 1.41,0.49 v -0.42 c -0.4,-0.32 -0.9,-0.49 -1.41,-0.49 -1.57,0 -2.34,1.78 -2.34,3.55 0,2.48 0.64,3.55 2.13,3.55 1.27,0 2.12,-0.94 2.12,-2.35 z m -0.88,0 c 0,1.16 -0.5,1.93 -1.24,1.93 -1.4,0 -1.25,-1.51 -1.25,-3.13 0.34,-0.46 0.88,-0.73 1.46,-0.73 0.8,0 1.03,1 1.03,1.93 z"
         id="path476" />
      <path
         d="m 344.06564,68.236137 v -0.5 h -3.33 v 0.5 z"
         id="path478" />
      <path
         d="m 347.74563,70.236137 v -6.9 h -0.58 c -0.55,0.63 -1.2,1.17 -1.92,1.59 v 0.42 c 0.61,-0.29 1.18,-0.63 1.72,-1.04 v 5.93 z"
         id="path480" />
      <path
         d="m 354.44562,68.336137 c 0,-0.88 -0.62,-1.64 -1.48,-1.9 0.76,-0.22 1.23,-0.79 1.23,-1.55 0,-0.99 -0.8,-1.65 -2,-1.65 -0.65,0 -1.28,0.22 -1.79,0.62 v 0.42 c 0.51,-0.4 1.14,-0.62 1.79,-0.62 0.73,0 1.22,0.49 1.22,1.23 0,1.19 -0.55,1.5 -1.8,1.5 v 0.37 c 1.35,0 1.95,0.32 1.95,1.58 0,0.87 -0.56,1.58 -1.24,1.58 -0.76,0 -1.5,-0.22 -2.13,-0.62 v 0.42 c 0.63,0.4 1.37,0.62 2.13,0.62 1.16,0 2.12,-0.9 2.12,-2 z"
         id="path482" />
    </g>
    <path
       id="path240"
       d="m 364.96063,77.952743 c 0,0 7.08662,-10.629922 17.71653,0"
       style="fill:none;fill-rule:evenodd;stroke:#6600ff;stroke-width:0.9375px;stroke-linecap:butt;stroke-linejoin:miter;stroke-opacity:1;marker-end:url(#marker2557)" />
    <g
       aria-label="+16
-13"
       id="text246"
       style="font-size:10px;line-height:1;font-family:Iwona;-inkscape-font-specification:Iwona;text-align:end;letter-spacing:0px;word-spacing:0px;text-anchor:end;fill:#6600ff;stroke-width:1px">
      <path
         d="m 372.04209,57.986137 v -0.5 h -2.89 v -2.89 h -0.5 v 2.89 h -2.89 v 0.5 h 2.89 v 2.89 h 0.5 v -2.89 z"
         id="path485" />
      <path
         d="m 376.09209,60.236137 v -6.9 h -0.58 c -0.55,0.63 -1.2,1.17 -1.92,1.59 v 0.42 c 0.61,-0.29 1.18,-0.63 1.72,-1.04 v 5.93 z"
         id="path487" />
      <path
         d="m 382.79209,57.986137 c 0,-1.44 -0.57,-2.35 -1.91,-2.35 -0.58,0 -1.12,0.27 -1.46,0.73 0,-1.31 0.33,-2.71 1.46,-2.71 0.51,0 1.01,0.17 1.41,0.49 v -0.42 c -0.4,-0.32 -0.9,-0.49 -1.41,-0.49 -1.57,0 -2.34,1.78 -2.34,3.55 0,2.48 0.64,3.55 2.13,3.55 1.27,0 2.12,-0.94 2.12,-2.35 z m -0.88,0 c 0,1.16 -0.5,1.93 -1.24,1.93 -1.4,0 -1.25,-1.51 -1.25,-3.13 0.34,-0.46 0.88,-0.73 1.46,-0.73 0.8,0 1.03,1 1.03,1.93 z"
         id="path489" />
      <path
         d="m 372.41211,68.236137 v -0.5 h -3.33 v 0.5 z"
         id="path491" />
      <path
         d="m 376.09209,70.236137 v -6.9 h -0.58 c -0.55,0.63 -1.2,1.17 -1.92,1.59 v 0.42 c 0.61,-0.29 1.18,-0.63 1.72,-1.04 v 5.93 z"
         id="path493" />
      <path
         d="m 382.79209,68.336137 c 0,-0.88 -0.62,-1.64 -1.48,-1.9 0.76,-0.22 1.23,-0.79 1.23,-1.55 0,-0.99 -0.8,-1.65 -2,-1.65 -0.65,0 -1.28,0.22 -1.79,0.62 v 0.42 c 0.51,-0.4 1.14,-0.62 1.79,-0.62 0.73,0 1.22,0.49 1.22,1.23 0,1.19 -0.55,1.5 -1.8,1.5 v 0.37 c 1.35,0 1.95,0.32 1.95,1.58 0,0.87 -0.56,1.58 -1.24,1.58 -0.76,0 -1.5,-0.22 -2.13,-0.62 v 0.42 c 0.63,0.4 1.37,0.62 2.13,0.62 1.16,0 2.12,-0.9 2.12,-2 z"
         id="path495" />
    </g>
    <g
       aria-label="-13"
       id="text250"
       style="font-size:11.25px;line-height:0%;font-family:Iwona;-inkscape-font-specification:Iwona;text-align:center;letter-spacing:0px;word-spacing:0px;text-anchor:middle;fill:#ff6600;stroke-width:1px">
      <path
         d="m 398.6579,68.616127 v -0.5625 h -3.74625 v 0.5625 z"
         style="line-height:10"
         id="path498" />
      <path
         d="m 402.79788,70.866127 v -7.7625 h -0.6525 c -0.61875,0.70875 -1.35,1.31625 -2.16,1.78875 v 0.4725 c 0.68625,-0.32625 1.3275,-0.70875 1.935,-1.17 v 6.67125 z"
         style="line-height:10"
         id="path500" />
      <path
         d="m 410.33538,68.728627 c 0,-0.99 -0.6975,-1.845 -1.665,-2.1375 0.855,-0.2475 1.38375,-0.88875 1.38375,-1.74375 0,-1.11375 -0.9,-1.85625 -2.25,-1.85625 -0.73125,0 -1.44,0.2475 -2.01375,0.6975 v 0.4725 c 0.57375,-0.45 1.2825,-0.6975 2.01375,-0.6975 0.82125,0 1.3725,0.55125 1.3725,1.38375 0,1.33875 -0.61875,1.6875 -2.025,1.6875 v 0.41625 c 1.51875,0 2.19375,0.36 2.19375,1.7775 0,0.97875 -0.63,1.7775 -1.395,1.7775 -0.855,0 -1.6875,-0.2475 -2.39625,-0.6975 v 0.4725 c 0.70875,0.45 1.54125,0.6975 2.39625,0.6975 1.305,0 2.385,-1.0125 2.385,-2.25 z"
         style="line-height:10"
         id="path502" />
    </g>
    <path
       id="path252"
       d="m 393.30709,77.952743 c 0,0 7.08662,-10.629922 17.71653,0"
       style="fill:none;fill-rule:evenodd;stroke:#ff6600;stroke-width:0.9375px;stroke-linecap:butt;stroke-linejoin:miter;stroke-opacity:1;marker-end:url(#marker2315)" />
    <path
       style="fill:none;fill-rule:evenodd;stroke:#6600ff;stroke-width:0.9375px;stroke-linecap:butt;stroke-linejoin:miter;stroke-opacity:1;marker-end:url(#marker2557)"
       d="m 421.65354,77.952743 c 0,0 7.08662,-10.629922 17.71653,0"
       id="path254" />
    <g
       aria-label="+16
-13"
       id="text260"
       style="font-size:10px;line-height:1;font-family:Iwona;-inkscape-font-specification:Iwona;text-align:end;letter-spacing:0px;word-spacing:0px;text-anchor:end;fill:#6600ff;stroke-width:1px">
      <path
         d="m 428.73499,57.986137 v -0.5 h -2.89 v -2.89 h -0.5 v 2.89 h -2.89 v 0.5 h 2.89 v 2.89 h 0.5 v -2.89 z"
         id="path505" />
      <path
         d="m 432.78499,60.236137 v -6.9 h -0.58 c -0.55,0.63 -1.2,1.17 -1.92,1.59 v 0.42 c 0.61,-0.29 1.18,-0.63 1.72,-1.04 v 5.93 z"
         id="path507" />
      <path
         d="m 439.48499,57.986137 c 0,-1.44 -0.57,-2.35 -1.91,-2.35 -0.58,0 -1.12,0.27 -1.46,0.73 0,-1.31 0.33,-2.71 1.46,-2.71 0.51,0 1.01,0.17 1.41,0.49 v -0.42 c -0.4,-0.32 -0.9,-0.49 -1.41,-0.49 -1.57,0 -2.34,1.78 -2.34,3.55 0,2.48 0.64,3.55 2.13,3.55 1.27,0 2.12,-0.94 2.12,-2.35 z m -0.88,0 c 0,1.16 -0.5,1.93 -1.24,1.93 -1.4,0 -1.25,-1.51 -1.25,-3.13 0.34,-0.46 0.88,-0.73 1.46,-0.73 0.8,0 1.03,1 1.03,1.93 z"
         id="path509" />
      <path
         d="m 429.10501,68.236137 v -0.5 h -3.33 v 0.5 z"
         id="path511" />
      <path
         d="m 432.78499,70.236137 v -6.9 h -0.58 c -0.55,0.63 -1.2,1.17 -1.92,1.59 v 0.42 c 0.61,-0.29 1.18,-0.63 1.72,-1.04 v 5.93 z"
         id="path513" />
      <path
         d="m 439.48499,68.336137 c 0,-0.88 -0.62,-1.64 -1.48,-1.9 0.76,-0.22 1.23,-0.79 1.23,-1.55 0,-0.99 -0.8,-1.65 -2,-1.65 -0.65,0 -1.28,0.22 -1.79,0.62 v 0.42 c 0.51,-0.4 1.14,-0.62 1.79,-0.62 0.73,0 1.22,0.49 1.22,1.23 0,1.19 -0.55,1.5 -1.8,1.5 v 0.37 c 1.35,0 1.95,0.32 1.95,1.58 0,0.87 -0.56,1.58 -1.24,1.58 -0.76,0 -1.5,-0.22 -2.13,-0.62 v 0.42 c 0.63,0.4 1.37,0.62 2.13,0.62 1.16,0 2.12,-0.9 2.12,-2 z"
         id="path515" />
    </g>
    <path
       id="path262"
       d="m 450,77.952743 c 0,0 7.08662,-10.629922 17.71653,0"
       style="fill:none;fill-rule:evenodd;stroke:#6600ff;stroke-width:0.9375px;stroke-linecap:butt;stroke-linejoin:miter;stroke-opacity:1;marker-end:url(#marker2557)" />
    <g
       aria-label="+16
-13"
       id="text268"
       style="font-size:10px;line-height:1;font-family:Iwona;-inkscape-font-specification:Iwona;text-align:end;letter-spacing:0px;word-spacing:0px;text-anchor:end;fill:#6600ff;stroke-width:1px">
      <path
         d="m 457.08146,57.986137 v -0.5 h -2.89 v -2.89 h -0.5 v 2.89 h -2.89 v 0.5 h 2.89 v 2.89 h 0.5 v -2.89 z"
         id="path518" />
      <path
         d="m 461.13146,60.236137 v -6.9 h -0.58 c -0.55,0.63 -1.2,1.17 -1.92,1.59 v 0.42 c 0.61,-0.29 1.18,-0.63 1.72,-1.04 v 5.93 z"
         id="path520" />
      <path
         d="m 467.83146,57.986137 c 0,-1.44 -0.57,-2.35 -1.91,-2.35 -0.58,0 -1.12,0.27 -1.46,0.73 0,-1.31 0.33,-2.71 1.46,-2.71 0.51,0 1.01,0.17 1.41,0.49 v -0.42 c -0.4,-0.32 -0.9,-0.49 -1.41,-0.49 -1.57,0 -2.34,1.78 -2.34,3.55 0,2.48 0.64,3.55 2.13,3.55 1.27,0 2.12,-0.94 2.12,-2.35 z m -0.88,0 c 0,1.16 -0.5,1.93 -1.24,1.93 -1.4,0 -1.25,-1.51 -1.25,-3.13 0.34,-0.46 0.88,-0.73 1.46,-0.73 0.8,0 1.03,1 1.03,1.93 z"
         id="path522" />
      <path
         d="m 457.45147,68.236137 v -0.5 h -3.33 v 0.5 z"
         id="path524" />
      <path
         d="m 461.13146,70.236137 v -6.9 h -0.58 c -0.55,0.63 -1.2,1.17 -1.92,1.59 v 0.42 c 0.61,-0.29 1.18,-0.63 1.72,-1.04 v 5.93 z"
         id="path526" />
      <path
         d="m 467.83146,68.336137 c 0,-0.88 -0.62,-1.64 -1.48,-1.9 0.76,-0.22 1.23,-0.79 1.23,-1.55 0,-0.99 -0.8,-1.65 -2,-1.65 -0.65,0 -1.28,0.22 -1.79,0.62 v 0.42 c 0.51,-0.4 1.14,-0.62 1.79,-0.62 0.73,0 1.22,0.49 1.22,1.23 0,1.19 -0.55,1.5 -1.8,1.5 v 0.37 c 1.35,0 1.95,0.32 1.95,1.58 0,0.87 -0.56,1.58 -1.24,1.58 -0.76,0 -1.5,-0.22 -2.13,-0.62 v 0.42 c 0.63,0.4 1.37,0.62 2.13,0.62 1.16,0 2.12,-0.9 2.12,-2 z"
         id="path528" />
    </g>
    <path
       style="fill:none;fill-rule:evenodd;stroke:#6600ff;stroke-width:0.9375px;stroke-linecap:butt;stroke-linejoin:miter;stroke-opacity:1;marker-end:url(#marker2557)"
       d="m 478.34646,77.952743 c 0,0 7.08662,-10.629922 17.71653,0"
       id="path270" />
    <g
       aria-label="+16
-13"
       id="text276"
       style="font-size:10px;line-height:1;font-family:Iwona;-inkscape-font-specification:Iwona;text-align:end;letter-spacing:0px;word-spacing:0px;text-anchor:end;fill:#6600ff;stroke-width:1px">
      <path
         d="m 485.42793,57.986137 v -0.5 h -2.89 v -2.89 h -0.5 v 2.89 h -2.89 v 0.5 h 2.89 v 2.89 h 0.5 v -2.89 z"
         id="path531" />
      <path
         d="m 489.47793,60.236137 v -6.9 h -0.58 c -0.55,0.63 -1.2,1.17 -1.92,1.59 v 0.42 c 0.61,-0.29 1.18,-0.63 1.72,-1.04 v 5.93 z"
         id="path533" />
      <path
         d="m 496.17792,57.986137 c 0,-1.44 -0.57,-2.35 -1.91,-2.35 -0.58,0 -1.12,0.27 -1.46,0.73 0,-1.31 0.33,-2.71 1.46,-2.71 0.51,0 1.01,0.17 1.41,0.49 v -0.42 c -0.4,-0.32 -0.9,-0.49 -1.41,-0.49 -1.57,0 -2.34,1.78 -2.34,3.55 0,2.48 0.64,3.55 2.13,3.55 1.27,0 2.12,-0.94 2.12,-2.35 z m -0.88,0 c 0,1.16 -0.5,1.93 -1.24,1.93 -1.4,0 -1.25,-1.51 -1.25,-3.13 0.34,-0.46 0.88,-0.73 1.46,-0.73 0.8,0 1.03,1 1.03,1.93 z"
         id="path535" />
      <path
         d="m 485.79794,68.236137 v -0.5 h -3.33 v 0.5 z"
         id="path537" />
      <path
         d="m 489.47793,70.236137 v -6.9 h -0.58 c -0.55,0.63 -1.2,1.17 -1.92,1.59 v 0.42 c 0.61,-0.29 1.18,-0.63 1.72,-1.04 v 5.93 z"
         id="path539" />
      <path
         d="m 496.17792,68.336137 c 0,-0.88 -0.62,-1.64 -1.48,-1.9 0.76,-0.22 1.23,-0.79 1.23,-1.55 0,-0.99 -0.8,-1.65 -2,-1.65 -0.65,0 -1.28,0.22 -1.79,0.62 v 0.42 c 0.51,-0.4 1.14,-0.62 1.79,-0.62 0.73,0 1.22,0.49 1.22,1.23 0,1.19 -0.55,1.5 -1.8,1.5 v 0.37 c 1.35,0 1.95,0.32 1.95,1.58 0,0.87 -0.56,1.58 -1.24,1.58 -0.76,0 -1.5,-0.22 -2.13,-0.62 v 0.42 c 0.63,0.4 1.37,0.62 2.13,0.62 1.16,0 2.12,-0.9 2.12,-2 z"
         id="path541" />
    </g>
    <path
       id="path278"
       d="m 506.69291,77.952743 c 0,0 7.08662,-10.629922 17.71653,0"
       style="fill:none;fill-rule:evenodd;stroke:#6600ff;stroke-width:0.9375px;stroke-linecap:butt;stroke-linejoin:miter;stroke-opacity:1;marker-end:url(#marker2557)" />
    <g
       aria-label="+16
-13"
       id="text284"
       style="font-size:10px;line-height:1;font-family:Iwona;-inkscape-font-specification:Iwona;text-align:end;letter-spacing:0px;word-spacing:0px;text-anchor:end;fill:#6600ff;stroke-width:1px">
      <path
         d="m 513.77436,57.986137 v -0.5 h -2.89 v -2.89 h -0.5 v 2.89 h -2.89 v 0.5 h 2.89 v 2.89 h 0.5 v -2.89 z"
         id="path544" />
      <path
         d="m 517.82436,60.236137 v -6.9 h -0.58 c -0.55,0.63 -1.2,1.17 -1.92,1.59 v 0.42 c 0.61,-0.29 1.18,-0.63 1.72,-1.04 v 5.93 z"
         id="path546" />
      <path
         d="m 524.52436,57.986137 c 0,-1.44 -0.57,-2.35 -1.91,-2.35 -0.58,0 -1.12,0.27 -1.46,0.73 0,-1.31 0.33,-2.71 1.46,-2.71 0.51,0 1.01,0.17 1.41,0.49 v -0.42 c -0.4,-0.32 -0.9,-0.49 -1.41,-0.49 -1.57,0 -2.34,1.78 -2.34,3.55 0,2.48 0.64,3.55 2.13,3.55 1.27,0 2.12,-0.94 2.12,-2.35 z m -0.88,0 c 0,1.16 -0.5,1.93 -1.24,1.93 -1.4,0 -1.25,-1.51 -1.25,-3.13 0.34,-0.46 0.88,-0.73 1.46,-0.73 0.8,0 1.03,1 1.03,1.93 z"
         id="path548" />
      <path
         d="m 514.14438,68.236137 v -0.5 h -3.33 v 0.5 z"
         id="path550" />
      <path
         d="m 517.82436,70.236137 v -6.9 h -0.58 c -0.55,0.63 -1.2,1.17 -1.92,1.59 v 0.42 c 0.61,-0.29 1.18,-0.63 1.72,-1.04 v 5.93 z"
         id="path552" />
      <path
         d="m 524.52436,68.336137 c 0,-0.88 -0.62,-1.64 -1.48,-1.9 0.76,-0.22 1.23,-0.79 1.23,-1.55 0,-0.99 -0.8,-1.65 -2,-1.65 -0.65,0 -1.28,0.22 -1.79,0.62 v 0.42 c 0.51,-0.4 1.14,-0.62 1.79,-0.62 0.73,0 1.22,0.49 1.22,1.23 0,1.19 -0.55,1.5 -1.8,1.5 v 0.37 c 1.35,0 1.95,0.32 1.95,1.58 0,0.87 -0.56,1.58 -1.24,1.58 -0.76,0 -1.5,-0.22 -2.13,-0.62 v 0.42 c 0.63,0.4 1.37,0.62 2.13,0.62 1.16,0 2.12,-0.9 2.12,-2 z"
         id="path554" />
    </g>
    <path
       style="fill:none;fill-rule:evenodd;stroke:#6600ff;stroke-width:0.9375px;stroke-linecap:butt;stroke-linejoin:miter;stroke-opacity:1;marker-end:url(#marker2557)"
       d="m 535.03937,77.952743 c 0,0 7.08662,-10.629922 17.71653,0"
       id="path286" />
    <g
       aria-label="+16
-13"
       id="text292"
       style="font-size:10px;line-height:1;font-family:Iwona;-inkscape-font-specification:Iwona;text-align:end;letter-spacing:0px;word-spacing:0px;text-anchor:end;fill:#6600ff;stroke-width:1px">
      <path
         d="m 542.1208,57.986137 v -0.5 h -2.89 v -2.89 h -0.5 v 2.89 h -2.89 v 0.5 h 2.89 v 2.89 h 0.5 v -2.89 z"
         id="path557" />
      <path
         d="m 546.1708,60.236137 v -6.9 h -0.58 c -0.55,0.63 -1.2,1.17 -1.92,1.59 v 0.42 c 0.61,-0.29 1.18,-0.63 1.72,-1.04 v 5.93 z"
         id="path559" />
      <path
         d="m 552.87079,57.986137 c 0,-1.44 -0.57,-2.35 -1.91,-2.35 -0.58,0 -1.12,0.27 -1.46,0.73 0,-1.31 0.33,-2.71 1.46,-2.71 0.51,0 1.01,0.17 1.41,0.49 v -0.42 c -0.4,-0.32 -0.9,-0.49 -1.41,-0.49 -1.57,0 -2.34,1.78 -2.34,3.55 0,2.48 0.64,3.55 2.13,3.55 1.27,0 2.12,-0.94 2.12,-2.35 z m -0.88,0 c 0,1.16 -0.5,1.93 -1.24,1.93 -1.4,0 -1.25,-1.51 -1.25,-3.13 0.34,-0.46 0.88,-0.73 1.46,-0.73 0.8,0 1.03,1 1.03,1.93 z"
         id="path561" />
      <path
         d="m 542.49081,68.236137 v -0.5 h -3.33 v 0.5 z"
         id="path563" />
      <path
         d="m 546.1708,70.236137 v -6.9 h -0.58 c -0.55,0.63 -1.2,1.17 -1.92,1.59 v 0.42 c 0.61,-0.29 1.18,-0.63 1.72,-1.04 v 5.93 z"
         id="path565" />
      <path
         d="m 552.87079,68.336137 c 0,-0.88 -0.62,-1.64 -1.48,-1.9 0.76,-0.22 1.23,-0.79 1.23,-1.55 0,-0.99 -0.8,-1.65 -2,-1.65 -0.65,0 -1.28,0.22 -1.79,0.62 v 0.42 c 0.51,-0.4 1.14,-0.62 1.79,-0.62 0.73,0 1.22,0.49 1.22,1.23 0,1.19 -0.55,1.5 -1.8,1.5 v 0.37 c 1.35,0 1.95,0.32 1.95,1.58 0,0.87 -0.56,1.58 -1.24,1.58 -0.76,0 -1.5,-0.22 -2.13,-0.62 v 0.42 c 0.63,0.4 1.37,0.62 2.13,0.62 1.16,0 2.12,-0.9 2.12,-2 z"
         id="path567" />
    </g>
    <g
       aria-label="-13"
       id="text296"
       style="font-size:11.25px;line-height:0%;font-family:Iwona;-inkscape-font-specification:Iwona;text-align:center;letter-spacing:0px;word-spacing:0px;text-anchor:middle;fill:#ff6600;stroke-width:1px">
      <path
         d="m 568.73666,68.616127 v -0.5625 h -3.74625 v 0.5625 z"
         style="line-height:10"
         id="path570" />
      <path
         d="m 572.87665,70.866127 v -7.7625 h -0.6525 c -0.61875,0.70875 -1.35,1.31625 -2.16,1.78875 v 0.4725 c 0.68625,-0.32625 1.3275,-0.70875 1.935,-1.17 v 6.67125 z"
         style="line-height:10"
         id="path572" />
      <path
         d="m 580.41414,68.728627 c 0,-0.99 -0.6975,-1.845 -1.665,-2.1375 0.855,-0.2475 1.38375,-0.88875 1.38375,-1.74375 0,-1.11375 -0.9,-1.85625 -2.25,-1.85625 -0.73125,0 -1.44,0.2475 -2.01375,0.6975 v 0.4725 c 0.57375,-0.45 1.2825,-0.6975 2.01375,-0.6975 0.82125,0 1.3725,0.55125 1.3725,1.38375 0,1.33875 -0.61875,1.6875 -2.025,1.6875 v 0.41625 c 1.51875,0 2.19375,0.36 2.19375,1.7775 0,0.97875 -0.63,1.7775 -1.395,1.7775 -0.855,0 -1.6875,-0.2475 -2.39625,-0.6975 v 0.4725 c 0.70875,0.45 1.54125,0.6975 2.39625,0.6975 1.305,0 2.385,-1.0125 2.385,-2.25 z"
         style="line-height:10"
         id="path574" />
    </g>
    <path
       id="path298"
       d="m 563.38583,77.952743 c 0,0 7.08662,-10.629922 17.71653,0"
       style="fill:none;fill-rule:evenodd;stroke:#ff6600;stroke-width:0.9375px;stroke-linecap:butt;stroke-linejoin:miter;stroke-opacity:1;marker-end:url(#Arrow1Mend)" />
    <path
       style="fill:none;fill-rule:evenodd;stroke:#6600ff;stroke-width:0.9375px;stroke-linecap:butt;stroke-linejoin:miter;stroke-opacity:1;marker-end:url(#marker2557)"
       d="m 591.73229,77.952743 c 0,0 7.08662,-10.629922 17.71653,0"
       id="path300" />
    <g
       aria-label="+16
-13"
       id="text306"
       style="font-size:10px;line-height:1;font-family:Iwona;-inkscape-font-specification:Iwona;text-align:end;letter-spacing:0px;word-spacing:0px;text-anchor:end;fill:#6600ff;stroke-width:1px">
      <path
         d="m 598.81373,57.986137 v -0.5 h -2.89 v -2.89 h -0.5 v 2.89 h -2.89 v 0.5 h 2.89 v 2.89 h 0.5 v -2.89 z"
         id="path577" />
      <path
         d="m 602.86373,60.236137 v -6.9 h -0.58 c -0.55,0.63 -1.2,1.17 -1.92,1.59 v 0.42 c 0.61,-0.29 1.18,-0.63 1.72,-1.04 v 5.93 z"
         id="path579" />
      <path
         d="m 609.56372,57.986137 c 0,-1.44 -0.57,-2.35 -1.91,-2.35 -0.58,0 -1.12,0.27 -1.46,0.73 0,-1.31 0.33,-2.71 1.46,-2.71 0.51,0 1.01,0.17 1.41,0.49 v -0.42 c -0.4,-0.32 -0.9,-0.49 -1.41,-0.49 -1.57,0 -2.34,1.78 -2.34,3.55 0,2.48 0.64,3.55 2.13,3.55 1.27,0 2.12,-0.94 2.12,-2.35 z m -0.88,0 c 0,1.16 -0.5,1.93 -1.24,1.93 -1.4,0 -1.25,-1.51 -1.25,-3.13 0.34,-0.46 0.88,-0.73 1.46,-0.73 0.8,0 1.03,1 1.03,1.93 z"
         id="path581" />
      <path
         d="m 599.18374,68.236137 v -0.5 h -3.33 v 0.5 z"
         id="path583" />
      <path
         d="m 602.86373,70.236137 v -6.9 h -0.58 c -0.55,0.63 -1.2,1.17 -1.92,1.59 v 0.42 c 0.61,-0.29 1.18,-0.63 1.72,-1.04 v 5.93 z"
         id="path585" />
      <path
         d="m 609.56372,68.336137 c 0,-0.88 -0.62,-1.64 -1.48,-1.9 0.76,-0.22 1.23,-0.79 1.23,-1.55 0,-0.99 -0.8,-1.65 -2,-1.65 -0.65,0 -1.28,0.22 -1.79,0.62 v 0.42 c 0.51,-0.4 1.14,-0.62 1.79,-0.62 0.73,0 1.22,0.49 1.22,1.23 0,1.19 -0.55,1.5 -1.8,1.5 v 0.37 c 1.35,0 1.95,0.32 1.95,1.58 0,0.87 -0.56,1.58 -1.24,1.58 -0.76,0 -1.5,-0.22 -2.13,-0.62 v 0.42 c 0.63,0.4 1.37,0.62 2.13,0.62 1.16,0 2.12,-0.9 2.12,-2 z"
         id="path587" />
    </g>
    <path
       id="path308"
       d="m 620.07875,77.952743 c 0,0 7.08662,-10.629922 17.71653,0"
       style="fill:none;fill-rule:evenodd;stroke:#6600ff;stroke-width:0.9375px;stroke-linecap:butt;stroke-linejoin:miter;stroke-opacity:1;marker-end:url(#marker2557)" />
    <g
       aria-label="+16
-13"
       id="text314"
       style="font-size:10px;line-height:1;font-family:Iwona;-inkscape-font-specification:Iwona;text-align:end;letter-spacing:0px;word-spacing:0px;text-anchor:end;fill:#6600ff;stroke-width:1px">
      <path
         d="m 627.16017,57.986137 v -0.5 h -2.89 v -2.89 h -0.5 v 2.89 h -2.89 v 0.5 h 2.89 v 2.89 h 0.5 v -2.89 z"
         id="path590" />
      <path
         d="m 631.21016,60.236137 v -6.9 h -0.58 c -0.55,0.63 -1.2,1.17 -1.92,1.59 v 0.42 c 0.61,-0.29 1.18,-0.63 1.72,-1.04 v 5.93 z"
         id="path592" />
      <path
         d="m 637.91016,57.986137 c 0,-1.44 -0.57,-2.35 -1.91,-2.35 -0.58,0 -1.12,0.27 -1.46,0.73 0,-1.31 0.33,-2.71 1.46,-2.71 0.51,0 1.01,0.17 1.41,0.49 v -0.42 c -0.4,-0.32 -0.9,-0.49 -1.41,-0.49 -1.57,0 -2.34,1.78 -2.34,3.55 0,2.48 0.64,3.55 2.13,3.55 1.27,0 2.12,-0.94 2.12,-2.35 z m -0.88,0 c 0,1.16 -0.5,1.93 -1.24,1.93 -1.4,0 -1.25,-1.51 -1.25,-3.13 0.34,-0.46 0.88,-0.73 1.46,-0.73 0.8,0 1.03,1 1.03,1.93 z"
         id="path594" />
      <path
         d="m 627.53018,68.236137 v -0.5 h -3.33 v 0.5 z"
         id="path596" />
      <path
         d="m 631.21016,70.236137 v -6.9 h -0.58 c -0.55,0.63 -1.2,1.17 -1.92,1.59 v 0.42 c 0.61,-0.29 1.18,-0.63 1.72,-1.04 v 5.93 z"
         id="path598" />
      <path
         d="m 637.91016,68.336137 c 0,-0.88 -0.62,-1.64 -1.48,-1.9 0.76,-0.22 1.23,-0.79 1.23,-1.55 0,-0.99 -0.8,-1.65 -2,-1.65 -0.65,0 -1.28,0.22 -1.79,0.62 v 0.42 c 0.51,-0.4 1.14,-0.62 1.79,-0.62 0.73,0 1.22,0.49 1.22,1.23 0,1.19 -0.55,1.5 -1.8,1.5 v 0.37 c 1.35,0 1.95,0.32 1.95,1.58 0,0.87 -0.56,1.58 -1.24,1.58 -0.76,0 -1.5,-0.22 -2.13,-0.62 v 0.42 c 0.63,0.4 1.37,0.62 2.13,0.62 1.16,0 2.12,-0.9 2.12,-2 z"
         id="path600" />
    </g>
    <path
       style="fill:none;fill-rule:evenodd;stroke:#6600ff;stroke-width:0.9375px;stroke-linecap:butt;stroke-linejoin:miter;stroke-opacity:1;marker-end:url(#marker2557)"
       d="m 648.4252,77.952743 c 0,0 7.08662,-10.629922 17.71653,0"
       id="path316" />
    <g
       aria-label="+16
-13"
       id="text322"
       style="font-size:10px;line-height:1;font-family:Iwona;-inkscape-font-specification:Iwona;text-align:end;letter-spacing:0px;word-spacing:0px;text-anchor:end;fill:#6600ff;stroke-width:1px">
      <path
         d="m 655.5066,57.986137 v -0.5 h -2.89 v -2.89 h -0.5 v 2.89 h -2.89 v 0.5 h 2.89 v 2.89 h 0.5 v -2.89 z"
         id="path603" />
      <path
         d="m 659.5566,60.236137 v -6.9 h -0.58 c -0.55,0.63 -1.2,1.17 -1.92,1.59 v 0.42 c 0.61,-0.29 1.18,-0.63 1.72,-1.04 v 5.93 z"
         id="path605" />
      <path
         d="m 666.2566,57.986137 c 0,-1.44 -0.57,-2.35 -1.91,-2.35 -0.58,0 -1.12,0.27 -1.46,0.73 0,-1.31 0.33,-2.71 1.46,-2.71 0.51,0 1.01,0.17 1.41,0.49 v -0.42 c -0.4,-0.32 -0.9,-0.49 -1.41,-0.49 -1.57,0 -2.34,1.78 -2.34,3.55 0,2.48 0.64,3.55 2.13,3.55 1.27,0 2.12,-0.94 2.12,-2.35 z m -0.88,0 c 0,1.16 -0.5,1.93 -1.24,1.93 -1.4,0 -1.25,-1.51 -1.25,-3.13 0.34,-0.46 0.88,-0.73 1.46,-0.73 0.8,0 1.03,1 1.03,1.93 z"
         id="path607" />
      <path
         d="m 655.87661,68.236137 v -0.5 h -3.33 v 0.5 z"
         id="path609" />
      <path
         d="m 659.5566,70.236137 v -6.9 h -0.58 c -0.55,0.63 -1.2,1.17 -1.92,1.59 v 0.42 c 0.61,-0.29 1.18,-0.63 1.72,-1.04 v 5.93 z"
         id="path611" />
      <path
         d="m 666.2566,68.336137 c 0,-0.88 -0.62,-1.64 -1.48,-1.9 0.76,-0.22 1.23,-0.79 1.23,-1.55 0,-0.99 -0.8,-1.65 -2,-1.65 -0.65,0 -1.28,0.22 -1.79,0.62 v 0.42 c 0.51,-0.4 1.14,-0.62 1.79,-0.62 0.73,0 1.22,0.49 1.22,1.23 0,1.19 -0.55,1.5 -1.8,1.5 v 0.37 c 1.35,0 1.95,0.32 1.95,1.58 0,0.87 -0.56,1.58 -1.24,1.58 -0.76,0 -1.5,-0.22 -2.13,-0.62 v 0.42 c 0.63,0.4 1.37,0.62 2.13,0.62 1.16,0 2.12,-0.9 2.12,-2 z"
         id="path613" />
    </g>
  </g>
</svg>
