<?xml version="1.0" encoding="UTF-8" standalone="no"?>
<!-- Created with Inkscape (http://www.inkscape.org/) -->

<svg
   width="288.09027mm"
   height="52mm"
   viewBox="0 0 1020.7923 184.25196"
   id="svg19691"
   version="1.1"
   xmlns="http://www.w3.org/2000/svg"
   xmlns:svg="http://www.w3.org/2000/svg"
   xmlns:rdf="http://www.w3.org/1999/02/22-rdf-syntax-ns#"
   xmlns:cc="http://creativecommons.org/ns#"
   xmlns:dc="http://purl.org/dc/elements/1.1/">
  <defs
     id="defs19693" />
  <metadata
     id="metadata19696">
    <rdf:RDF>
      <cc:Work
         rdf:about="">
        <dc:format>image/svg+xml</dc:format>
        <dc:type
           rdf:resource="http://purl.org/dc/dcmitype/StillImage" />
        <dc:title />
      </cc:Work>
    </rdf:RDF>
  </metadata>
  <g
     id="layer1"
     transform="translate(-6.766778,-31.88972)">
    <path
       id="rect103"
       style="display:inline;opacity:1;fill:#ffbd54;stroke-linecap:round;stroke-linejoin:bevel;stroke-dasharray:2, 4"
       d="m 995.66925,38.976349 h 3.54331 V 209.05507 h -3.54331 z" />
    <path
       id="rect99"
       style="display:inline;opacity:1;fill:#ffbd54;stroke-linecap:round;stroke-linejoin:bevel;stroke-dasharray:2, 4"
       d="m 768.89764,38.976349 h 3.54331 V 209.05507 h -3.54331 z" />
    <path
       id="rect97"
       style="display:inline;opacity:1;fill:#ffbd54;stroke-linecap:round;stroke-linejoin:bevel;stroke-dasharray:2, 4"
       d="m 542.12598,38.976334 h 3.5433 V 209.05507 h -3.5433 z" />
    <path
       id="rect8302"
       style="display:inline;opacity:1;fill:#ffbd54;stroke-linecap:round;stroke-linejoin:bevel;stroke-dasharray:2, 4"
       d="m 315.35434,38.976345 h 3.54331 V 209.05507 h -3.54331 z" />
    <g
       aria-label="clk"
       id="text24487"
       style="line-height:0%;font-family:Iwona;-inkscape-font-specification:Iwona;text-align:end;letter-spacing:0px;word-spacing:0px;text-anchor:end;stroke-width:1px">
      <path
         d="m 69.708533,54.18121 v -0.735 c -0.56,-0.7875 -1.47,-1.26 -2.45,-1.26 -2.1875,0 -3.6575,1.645 -3.6575,4.1125 0,2.4675 1.47,4.1125 3.6575,4.1125 0.91,0 1.7675,-0.455 2.275,-1.2075 v -0.735 c -0.595,0.8925 -1.2075,1.2075 -2.275,1.2075 -1.26,0 -2.1175,-1.3475 -2.1175,-3.3775 0,-2.03 0.8575,-3.3775 2.1175,-3.3775 1.085,0 1.82,0.385 2.45,1.26 z"
         style="font-size:17.5px;line-height:10"
         id="path98" />
      <path
         d="m 74.836014,59.62371 v -0.525 c -0.3325,0.28 -0.7175,0.5075 -1.155,0.5075 -0.6475,0 -0.77,-0.805 -0.77,-1.5575 v -10.0625 h -1.365 v 10.0625 c 0,1.1725 0.455,2.3625 1.4875,2.3625 0.665,0 1.295,-0.3325 1.8025,-0.7875 z"
         style="font-size:17.5px;line-height:10"
         id="path101" />
      <path
         d="m 83.358483,60.23621 -4.06,-4.6725 3.92,-3.2025 h -1.085 l -4.1825,3.43 v -7.805 h -1.365 v 12.25 h 1.365 v -4.3575 l 3.78,4.3575 z"
         style="font-size:17.5px;line-height:10"
         id="path103" />
    </g>
    <g
       aria-label="timer_reg"
       id="text24491"
       style="line-height:0%;font-family:Iwona;-inkscape-font-specification:Iwona;text-align:end;letter-spacing:0px;word-spacing:0px;text-anchor:end;stroke-width:1px">
      <path
         d="m 18.468666,95.056728 v -0.525 c -0.28,0.28 -0.6125,0.5075 -1.015,0.5075 -0.63,0 -0.665,-0.8225 -0.665,-1.5575 v -4.9525 h 1.68 v -0.735 h -1.68 v -2.625 h -0.8225 c 0,1.4 -0.805,2.7125 -2.0825,2.7125 v 0.6475 h 1.54 v 4.9525 c 0,1.155 0.3675,2.3625 1.365,2.3625 0.6475,0 1.2075,-0.35 1.68,-0.7875 z"
         style="font-size:17.5px;line-height:10"
         id="path106" />
      <path
         d="m 23.596142,95.056728 v -0.525 c -0.3325,0.28 -0.7175,0.5075 -1.155,0.5075 -0.6475,0 -0.77,-0.805 -0.77,-1.5575 v -5.6875 h -1.365 v 5.6875 c 0,1.1725 0.455,2.3625 1.4875,2.3625 0.665,0 1.295,-0.3325 1.8025,-0.7875 z m -1.75,-9.9925 c 0,-0.4725 -0.385,-0.8575 -0.8575,-0.8575 -0.4725,0 -0.8575,0.385 -0.8575,0.8575 0,0.4725 0.385,0.8575 0.8575,0.8575 0.4725,0 0.8575,-0.385 0.8575,-0.8575 z"
         style="font-size:17.5px;line-height:10"
         id="path108" />
      <path
         d="m 34.901125,95.669228 v -5.6875 c 0,-1.225 -0.7175,-2.3625 -1.855,-2.3625 -0.98,0 -1.89,0.5075 -2.415,1.33 -0.28,-0.77 -0.875,-1.33 -1.68,-1.33 -0.91,0 -1.645,0.63 -2.24,1.33 v -1.155 h -1.365 v 7.875 h 1.365 v -6.195 c 0.42,-0.5425 0.945,-1.05 1.6275,-1.05 0.7175,0 1.1025,0.77 1.1025,1.5575 v 5.6875 h 1.365 v -5.6875 c 0,-0.21 -0.0175,-0.4025 -0.0525,-0.6125 0.42,-0.5425 0.9975,-0.945 1.68,-0.945 0.7175,0 1.1025,0.77 1.1025,1.5575 v 5.6875 z"
         style="font-size:17.5px;line-height:10"
         id="path110" />
      <path
         d="m 43.948595,91.906728 v -0.175 c 0,-2.4675 -1.3475,-4.1125 -3.3775,-4.1125 -2.0475,0 -3.395,1.645 -3.395,4.1125 0,2.4675 1.3475,4.1125 3.395,4.1125 0.875,0 1.7325,-0.28 2.45,-0.7875 v -0.735 c -0.8225,0.525 -1.4875,0.7175 -2.45,0.7175 -1.4875,0 -1.855,-1.4175 -1.855,-3.1325 z m -1.54,-0.735 h -3.6925 c 0,-1.4 0.595,-2.8175 1.855,-2.8175 1.2425,0 1.8375,1.4175 1.8375,2.8175 z"
         style="font-size:17.5px;line-height:10"
         id="path112" />
      <path
         d="m 50.581071,88.879228 v -1.085 c -0.1925,-0.07 -0.4025,-0.1225 -0.595,-0.1225 -0.98,0 -1.7675,0.6825 -2.3975,1.435 v -1.3125 h -1.365 v 7.875 h 1.365 v -5.8275 c 0.525,-0.6125 1.19,-1.1375 1.995,-1.1375 0.3325,0 0.6825,0.07 0.9975,0.175 z"
         style="font-size:17.5px;line-height:10"
         id="path114" />
      <path
         d="m 59.681054,97.681728 v -0.875 h -8.75 v 0.875 z"
         style="font-size:17.5px;line-height:10"
         id="path116" />
      <path
         d="m 65.438524,88.879228 v -1.085 c -0.1925,-0.07 -0.4025,-0.1225 -0.595,-0.1225 -0.98,0 -1.7675,0.6825 -2.3975,1.435 v -1.3125 h -1.365 v 7.875 h 1.365 v -5.8275 c 0.525,-0.6125 1.19,-1.1375 1.995,-1.1375 0.3325,0 0.6825,0.07 0.9975,0.175 z"
         style="font-size:17.5px;line-height:10"
         id="path118" />
      <path
         d="m 73.523507,91.906728 v -0.175 c 0,-2.4675 -1.3475,-4.1125 -3.3775,-4.1125 -2.0475,0 -3.395,1.645 -3.395,4.1125 0,2.4675 1.3475,4.1125 3.395,4.1125 0.875,0 1.7325,-0.28 2.45,-0.7875 v -0.735 c -0.8225,0.525 -1.4875,0.7175 -2.45,0.7175 -1.4875,0 -1.855,-1.4175 -1.855,-3.1325 z m -1.54,-0.735 h -3.6925 c 0,-1.4 0.595,-2.8175 1.855,-2.8175 1.2425,0 1.8375,1.4175 1.8375,2.8175 z"
         style="font-size:17.5px;line-height:10"
         id="path120" />
      <path
         d="m 82.13348,96.719228 v -8.925 h -1.365 v 0.2975 c -0.6825,-0.2975 -1.4175,-0.4725 -2.1525,-0.4725 -2.1875,0 -3.255,1.75 -3.255,4.1125 0,2.3275 0.875,4.1125 2.9925,4.1125 0.8925,0 1.715,-0.4025 2.415,-0.9625 v 1.8375 c 0,1.2075 -0.665,2.345 -1.75,2.345 -0.8925,0 -1.785,-0.175 -2.625,-0.4725 v 0.5425 c 0.98,0.455 2.065,0.735 3.15,0.735 1.54,0 2.59,-1.505 2.59,-3.15 z m -1.365,-2.5725 c -0.525,0.525 -1.1725,0.9625 -1.925,0.9625 -1.5925,0 -1.9425,-1.54 -1.9425,-3.3775 0,-1.645 0.5075,-3.3775 1.9425,-3.3775 0.665,0 1.33,0.175 1.925,0.4725 z"
         style="font-size:17.5px;line-height:10"
         id="path122" />
    </g>
    <path
       style="fill:none;fill-rule:evenodd;stroke:#000000;stroke-width:1px;stroke-linecap:butt;stroke-linejoin:miter;stroke-opacity:1"
       d="m 88.582677,42.519674 h 14.173233 v 21.259843 h 14.17322 V 42.519674 h 14.17323 v 21.259843 h 14.17322 V 42.519674 h 14.17324 v 21.259843 h 14.17322 V 42.519674 h 14.17323 v 21.259843 h 14.17322 V 42.519674 h 14.17324 v 21.259843 h 14.17322 V 42.519674 h 14.17323 V 63.779517 H 258.6614 V 42.519674 h 14.17324 v 21.259843 h 14.17322 V 42.519674 h 14.17323 v 21.259843 h 14.17322 V 42.519674 h 14.17325 v 21.259843 h 14.17322 V 42.519674 h 14.17323 v 21.259843 h 14.17322 V 42.519674 h 14.17324 v 21.259843 h 14.17322 V 42.519674 h 14.17323 v 21.259843 h 14.17322 V 42.519674 h 14.17324 V 63.779517 H 457.0866 V 42.519674 h 14.17323 v 21.259843 h 14.17322 V 42.519674 h 14.17324 v 21.259843 h 14.17322 V 42.519674 h 14.17323 v 21.259843 h 14.17322 l 1e-5,-21.259843 h 14.17324 v 21.259843 h 14.17322 V 42.519674 h 14.17323 v 21.259843 h 14.17322 V 42.519674 h 14.17324 v 21.259843 h 14.17322 V 42.519674 h 14.17323 v 21.259843 h 14.17322 V 42.519674 h 14.17324 v 21.259843 h 14.17322 V 42.519674 h 14.17323 V 63.779517 H 712.2047 V 42.519674 h 14.17324 v 21.259843 h 14.17322 V 42.519674 h 14.17323 v 21.259843 h 14.17322 V 42.519674 h 14.17325 v 21.259843 h 14.17322 V 42.519674 h 14.17323 v 21.259843 h 14.17322 V 42.519674 h 14.17324 v 21.259843 h 14.17322 V 42.519674 h 14.17323 v 21.259843 h 14.17322 V 42.519674 h 14.17324 V 63.779517 H 910.6299 V 42.519674 h 14.17324 v 21.259843 h 14.1732 V 42.519674 h 14.1733 v 21.259843 h 14.1732 V 42.519674 h 14.1732 v 21.259843 h 14.17325 V 42.519674 h 14.17321 v 21.259843 h 10.6299"
       id="path29163" />
    <path
       id="path29175"
       d="m 88.582684,99.212588 h 28.346466 l 3.54328,-21.259843 h 24.80316 l 3.54328,21.259843 h 24.80318 l 3.54328,-21.259843 h 24.80316 l 3.54328,21.259843 h 24.8032 l 3.54328,-21.259843 h 24.80317 l 3.54328,21.259843 h 24.80318 l 3.54328,-21.259843 h 24.80316 l 3.54328,21.259843 h 24.8032 l 3.54328,-21.259843 h 24.80316 l 3.54328,21.259843 h 24.80318 l 3.54328,-21.259843 h 24.80316 l 3.54328,21.259843 h 24.8032 l 3.54328,-21.259843 h 24.80317 l 3.54328,21.259843 h 24.80318 l 3.54328,-21.259843 h 24.80316 l 3.54328,21.259843 h 24.80322 l 3.54328,-21.259843 h 24.80316 l 3.54328,21.259843 h 24.80318 l 3.54328,-21.259843 h 24.80316 l 3.54328,21.259843 h 24.80321 l 3.54328,-21.259843 h 24.80316 l 3.54328,21.259843 h 24.80318 l 3.54328,-21.259843 h 24.80316 l 3.54328,21.259843 h 24.80321 l 3.54328,-21.259843 h 24.80315 l 3.54328,21.259843 h 24.80318 l 3.54328,-21.259843 h 24.80317 l 3.54328,21.259843 h 24.80321 l 3.54328,-21.259843 h 24.80316 l 3.54328,21.259843 h 24.80318 l 3.54328,-21.259843 h 24.6392 l 3.70725,21.259843 h 21.25981"
       style="fill:none;fill-rule:evenodd;stroke:#000000;stroke-width:1px;stroke-linecap:butt;stroke-linejoin:miter;stroke-opacity:1" />
    <path
       style="fill:none;fill-rule:evenodd;stroke:#000000;stroke-width:1px;stroke-linecap:butt;stroke-linejoin:miter;stroke-opacity:1"
       d="m 88.582684,77.952745 h 28.346466 l 3.54328,21.259843 h 24.80316 l 3.54328,-21.259843 h 24.80318 l 3.54328,21.259843 h 24.80316 l 3.54328,-21.259843 h 24.8032 l 3.54328,21.259843 h 24.80317 l 3.54328,-21.259843 h 24.80318 l 3.54328,21.259843 h 24.80316 l 3.54328,-21.259843 h 24.8032 l 3.54328,21.259843 h 24.80316 l 3.54328,-21.259843 h 24.80318 l 3.54328,21.259843 h 24.80316 l 3.54328,-21.259843 h 24.8032 l 3.54328,21.259843 h 24.80317 l 3.54328,-21.259843 h 24.80318 l 3.54328,21.259843 h 24.80316 l 3.54328,-21.259843 h 24.80322 l 3.54328,21.259843 h 24.80316 l 3.54328,-21.259843 h 24.80318 l 3.54328,21.259843 h 24.80316 l 3.54328,-21.259843 h 24.80321 l 3.54328,21.259843 h 24.80316 l 3.54328,-21.259843 h 24.80318 l 3.54328,21.259843 h 24.80316 l 3.54328,-21.259843 h 24.80321 l 3.54328,21.259843 h 24.80315 l 3.54328,-21.259843 h 24.80318 l 3.54328,21.259843 h 24.80317 l 3.54328,-21.259843 h 24.80321 l 3.54328,21.259843 h 24.80316 l 3.54328,-21.259843 h 24.80318 l 3.54328,21.259843 h 24.80315 l 3.5433,-21.259843 h 21.25981"
       id="path29177" />
    <g
       aria-label="15"
       id="text29179"
       style="line-height:0%;font-family:Iwona;-inkscape-font-specification:Iwona;text-align:center;letter-spacing:0px;word-spacing:0px;text-anchor:middle;stroke-width:1px">
      <path
         d="m 978.08354,95.669281 v -12.075 h -1.015 c -0.9625,1.1025 -2.1,2.0475 -3.36,2.7825 v 0.735 c 1.0675,-0.5075 2.065,-1.1025 3.01,-1.82 v 10.3775 z"
         style="font-size:17.5px;line-height:10"
         id="path125" />
      <path
         d="m 989.80853,91.731781 c 0,-2.4675 -1.4875,-4.1125 -3.71,-4.1125 -1.015,0 -1.96,0.385 -2.695,1.0325 l 0.175,-3.9725 h 5.88 v -1.085 h -6.5625 l -0.2625,6.0375 0.735,0.035 c 0.665,-0.8225 1.6625,-1.3125 2.73,-1.3125 1.295,0 2.17,1.3475 2.17,3.3775 0,2.03 -0.875,3.3775 -2.17,3.3775 -1.3475,0 -2.66,-0.4375 -3.7275,-1.26 v 0.735 c 1.0675,0.8225 2.38,1.26 3.7275,1.26 2.2225,0 3.71,-1.645 3.71,-4.1125 z"
         style="font-size:17.5px;line-height:10"
         id="path127" />
    </g>
    <g
       aria-label="0"
       id="text29183"
       style="line-height:0%;font-family:Iwona;-inkscape-font-specification:Iwona;text-align:center;letter-spacing:0px;word-spacing:0px;text-anchor:middle;stroke-width:1px">
      <path
         d="m 106.59717,89.631781 c 0,-4.1475 -1.2775,-6.2125 -3.8325,-6.2125 -2.555,0 -3.832504,2.065 -3.832504,6.2125 0,4.1475 1.277504,6.2125 3.832504,6.2125 2.555,0 3.8325,-2.065 3.8325,-6.2125 z m -1.54,0 c 0,3.6575 -0.77,5.4775 -2.2925,5.4775 -1.5225,0 -2.2925,-1.82 -2.2925,-5.4775 0,-3.6575 0.77,-5.4775 2.2925,-5.4775 1.5225,0 2.2925,1.82 2.2925,5.4775 z"
         style="font-size:17.5px;line-height:10"
         id="path130" />
    </g>
    <g
       aria-label="1"
       id="text29187"
       style="line-height:0%;font-family:Iwona;-inkscape-font-specification:Iwona;text-align:center;letter-spacing:0px;word-spacing:0px;text-anchor:middle;stroke-width:1px">
      <path
         d="m 132.28362,95.669281 v -12.075 h -1.015 c -0.9625,1.1025 -2.1,2.0475 -3.36,2.7825 v 0.735 c 1.0675,-0.5075 2.065,-1.1025 3.01,-1.82 v 10.3775 z"
         style="font-size:17.5px;line-height:10"
         id="path133" />
    </g>
    <g
       aria-label="2"
       id="text29191"
       style="line-height:0%;font-family:Iwona;-inkscape-font-specification:Iwona;text-align:center;letter-spacing:0px;word-spacing:0px;text-anchor:middle;stroke-width:1px">
      <path
         d="m 163.16758,95.669281 v -1.085 h -6.1775 l 3.22,-3.185 c 1.435,-1.435 2.7825,-3.115 2.7825,-5.145 0,-1.715 -1.6975,-2.835 -3.535,-2.835 -1.3825,0 -2.695,0.63 -3.5525,1.6975 v 0.735 c 0.8925,-1.0325 2.1875,-1.6275 3.5525,-1.6275 1.1725,0 2.17,0.875 2.17,2.03 0,1.7325 -0.805,3.3425 -1.995,4.585 l -3.9025,4.0075 v 0.8225 z"
         style="font-size:17.5px;line-height:10"
         id="path136" />
    </g>
    <g
       aria-label="3"
       id="text29195"
       style="line-height:0%;font-family:Iwona;-inkscape-font-specification:Iwona;text-align:center;letter-spacing:0px;word-spacing:0px;text-anchor:middle;stroke-width:1px">
      <path
         d="m 191.51404,92.344281 c 0,-1.54 -1.085,-2.87 -2.59,-3.325 1.33,-0.385 2.1525,-1.3825 2.1525,-2.7125 0,-1.7325 -1.4,-2.8875 -3.5,-2.8875 -1.1375,0 -2.24,0.385 -3.1325,1.085 v 0.735 c 0.8925,-0.7 1.995,-1.085 3.1325,-1.085 1.2775,0 2.135,0.8575 2.135,2.1525 0,2.0825 -0.9625,2.625 -3.15,2.625 v 0.6475 c 2.3625,0 3.4125,0.56 3.4125,2.765 0,1.5225 -0.98,2.765 -2.17,2.765 -1.33,0 -2.625,-0.385 -3.7275,-1.085 v 0.735 c 1.1025,0.7 2.3975,1.085 3.7275,1.085 2.03,0 3.71,-1.575 3.71,-3.5 z"
         style="font-size:17.5px;line-height:10"
         id="path139" />
    </g>
    <g
       aria-label="4"
       id="text29199"
       style="line-height:0%;font-family:Iwona;-inkscape-font-specification:Iwona;text-align:center;letter-spacing:0px;word-spacing:0px;text-anchor:middle;stroke-width:1px">
      <path
         d="m 219.86049,91.469281 v -0.805 h -1.3125 v -7.07 h -1.365 l -4.76,7.07 v 0.805 h 4.76 v 4.2 h 1.365 v -4.2 z m -2.6775,-0.805 h -3.8675 l 3.8675,-5.7575 z"
         style="font-size:17.5px;line-height:10"
         id="path142" />
    </g>
    <g
       aria-label="5"
       id="text29203"
       style="line-height:0%;font-family:Iwona;-inkscape-font-specification:Iwona;text-align:center;letter-spacing:0px;word-spacing:0px;text-anchor:middle;stroke-width:1px">
      <path
         d="m 248.20696,91.731781 c 0,-2.4675 -1.4875,-4.1125 -3.71,-4.1125 -1.015,0 -1.96,0.385 -2.695,1.0325 l 0.175,-3.9725 h 5.88 v -1.085 h -6.5625 l -0.2625,6.0375 0.735,0.035 c 0.665,-0.8225 1.6625,-1.3125 2.73,-1.3125 1.295,0 2.17,1.3475 2.17,3.3775 0,2.03 -0.875,3.3775 -2.17,3.3775 -1.3475,0 -2.66,-0.4375 -3.7275,-1.26 v 0.735 c 1.0675,0.8225 2.38,1.26 3.7275,1.26 2.2225,0 3.71,-1.645 3.71,-4.1125 z"
         style="font-size:17.5px;line-height:10"
         id="path145" />
    </g>
    <g
       aria-label="6"
       id="text29207"
       style="line-height:0%;font-family:Iwona;-inkscape-font-specification:Iwona;text-align:center;letter-spacing:0px;word-spacing:0px;text-anchor:middle;stroke-width:1px">
      <path
         d="m 276.55338,91.731781 c 0,-2.52 -0.9975,-4.1125 -3.3425,-4.1125 -1.015,0 -1.96,0.4725 -2.555,1.2775 0,-2.2925 0.5775,-4.7425 2.555,-4.7425 0.8925,0 1.7675,0.2975 2.4675,0.8575 v -0.735 c -0.7,-0.56 -1.575,-0.8575 -2.4675,-0.8575 -2.7475,0 -4.095,3.115 -4.095,6.2125 0,4.34 1.12,6.2125 3.7275,6.2125 2.2225,0 3.71,-1.645 3.71,-4.1125 z m -1.54,0 c 0,2.03 -0.875,3.3775 -2.17,3.3775 -2.45,0 -2.1875,-2.6425 -2.1875,-5.4775 0.595,-0.805 1.54,-1.2775 2.555,-1.2775 1.4,0 1.8025,1.75 1.8025,3.3775 z"
         style="font-size:17.5px;line-height:10"
         id="path148" />
    </g>
    <g
       aria-label="7"
       id="text29211"
       style="line-height:0%;font-family:Iwona;-inkscape-font-specification:Iwona;text-align:center;letter-spacing:0px;word-spacing:0px;text-anchor:middle;stroke-width:1px">
      <path
         d="m 304.89984,84.189281 v -0.595 h -7.4375 v 1.085 h 5.705 l -5.1625,10.99 h 1.505 z"
         style="font-size:17.5px;line-height:10"
         id="path151" />
    </g>
    <g
       aria-label="8"
       id="text29215"
       style="line-height:0%;font-family:Iwona;-inkscape-font-specification:Iwona;text-align:center;letter-spacing:0px;word-spacing:0px;text-anchor:middle;stroke-width:1px">
      <path
         d="m 333.24631,92.291781 c 0,-1.645 -0.7875,-2.8175 -2.135,-3.3075 1.1375,-0.42 1.785,-1.365 1.785,-2.6425 0,-1.82 -1.2775,-2.9225 -3.36,-2.9225 -2.1,0 -3.3775,1.1025 -3.3775,2.9225 0,1.2775 0.6475,2.2225 1.785,2.6425 -1.3475,0.49 -2.135,1.6625 -2.135,3.3075 0,2.205 1.4175,3.5525 3.7275,3.5525 2.2925,0 3.71,-1.3475 3.71,-3.5525 z m -1.715,-5.95 c 0,1.3475 -0.77,2.1875 -1.995,2.1875 -1.2425,0 -2.0125,-0.84 -2.0125,-2.1875 0,-1.365 0.77,-2.1875 2.0125,-2.1875 1.225,0 1.995,0.8225 1.995,2.1875 z m 0.175,5.95 c 0,1.75 -0.8225,2.8175 -2.17,2.8175 -1.365,0 -2.1875,-1.0675 -2.1875,-2.8175 0,-1.75 0.8225,-2.8175 2.1875,-2.8175 1.3475,0 2.17,1.0675 2.17,2.8175 z"
         style="font-size:17.5px;line-height:10"
         id="path154" />
    </g>
    <g
       aria-label="9"
       id="text29219"
       style="line-height:0%;font-family:Iwona;-inkscape-font-specification:Iwona;text-align:center;letter-spacing:0px;word-spacing:0px;text-anchor:middle;stroke-width:1px">
      <path
         d="m 361.59278,89.631781 c 0,-4.34 -1.12,-6.2125 -3.71,-6.2125 -2.24,0 -3.7275,1.645 -3.7275,4.1125 0,2.52 0.9975,4.1125 3.3425,4.1125 1.015,0 1.96,-0.4725 2.555,-1.2775 0,2.2925 -0.5775,4.7425 -2.555,4.7425 -0.8925,0 -1.7675,-0.2975 -2.4675,-0.8575 v 0.735 c 0.7,0.56 1.575,0.8575 2.4675,0.8575 2.7475,0 4.095,-3.115 4.095,-6.2125 z m -1.54,0 c -0.595,0.805 -1.54,1.2775 -2.555,1.2775 -1.4,0 -1.8025,-1.75 -1.8025,-3.3775 0,-2.03 0.875,-3.3775 2.1875,-3.3775 2.4325,0 2.17,2.6425 2.17,5.4775 z"
         style="font-size:17.5px;line-height:10"
         id="path157" />
    </g>
    <g
       aria-label="10"
       id="text29223"
       style="line-height:0%;font-family:Iwona;-inkscape-font-specification:Iwona;text-align:center;letter-spacing:0px;word-spacing:0px;text-anchor:middle;stroke-width:1px">
      <path
         d="m 382.80797,95.669281 v -12.075 h -1.015 c -0.9625,1.1025 -2.1,2.0475 -3.36,2.7825 v 0.735 c 1.0675,-0.5075 2.065,-1.1025 3.01,-1.82 v 10.3775 z"
         style="font-size:17.5px;line-height:10"
         id="path160" />
      <path
         d="m 394.65546,89.631781 c 0,-4.1475 -1.2775,-6.2125 -3.8325,-6.2125 -2.555,0 -3.8325,2.065 -3.8325,6.2125 0,4.1475 1.2775,6.2125 3.8325,6.2125 2.555,0 3.8325,-2.065 3.8325,-6.2125 z m -1.54,0 c 0,3.6575 -0.77,5.4775 -2.2925,5.4775 -1.5225,0 -2.2925,-1.82 -2.2925,-5.4775 0,-3.6575 0.77,-5.4775 2.2925,-5.4775 1.5225,0 2.2925,1.82 2.2925,5.4775 z"
         style="font-size:17.5px;line-height:10"
         id="path162" />
    </g>
    <g
       aria-label="11"
       id="text29227"
       style="line-height:0%;font-family:Iwona;-inkscape-font-specification:Iwona;text-align:center;letter-spacing:0px;word-spacing:0px;text-anchor:middle;stroke-width:1px">
      <path
         d="m 411.15443,95.669281 v -12.075 h -1.015 c -0.9625,1.1025 -2.1,2.0475 -3.36,2.7825 v 0.735 c 1.0675,-0.5075 2.065,-1.1025 3.01,-1.82 v 10.3775 z"
         style="font-size:17.5px;line-height:10"
         id="path165" />
      <path
         d="m 420.34193,95.669281 v -12.075 h -1.015 c -0.9625,1.1025 -2.1,2.0475 -3.36,2.7825 v 0.735 c 1.0675,-0.5075 2.065,-1.1025 3.01,-1.82 v 10.3775 z"
         style="font-size:17.5px;line-height:10"
         id="path167" />
    </g>
    <g
       aria-label="12"
       id="text29231"
       style="line-height:0%;font-family:Iwona;-inkscape-font-specification:Iwona;text-align:center;letter-spacing:0px;word-spacing:0px;text-anchor:middle;stroke-width:1px">
      <path
         d="m 439.5009,95.669281 v -12.075 h -1.015 c -0.9625,1.1025 -2.1,2.0475 -3.36,2.7825 v 0.735 c 1.0675,-0.5075 2.065,-1.1025 3.01,-1.82 v 10.3775 z"
         style="font-size:17.5px;line-height:10"
         id="path170" />
      <path
         d="m 451.22589,95.669281 v -1.085 h -6.1775 l 3.22,-3.185 c 1.435,-1.435 2.7825,-3.115 2.7825,-5.145 0,-1.715 -1.6975,-2.835 -3.535,-2.835 -1.3825,0 -2.695,0.63 -3.5525,1.6975 v 0.735 c 0.8925,-1.0325 2.1875,-1.6275 3.5525,-1.6275 1.1725,0 2.17,0.875 2.17,2.03 0,1.7325 -0.805,3.3425 -1.995,4.585 l -3.9025,4.0075 v 0.8225 z"
         style="font-size:17.5px;line-height:10"
         id="path172" />
    </g>
    <g
       aria-label="13"
       id="text29235"
       style="line-height:0%;font-family:Iwona;-inkscape-font-specification:Iwona;text-align:center;letter-spacing:0px;word-spacing:0px;text-anchor:middle;stroke-width:1px">
      <path
         d="m 467.84736,95.669281 v -12.075 h -1.015 c -0.9625,1.1025 -2.1,2.0475 -3.36,2.7825 v 0.735 c 1.0675,-0.5075 2.065,-1.1025 3.01,-1.82 v 10.3775 z"
         style="font-size:17.5px;line-height:10"
         id="path175" />
      <path
         d="m 479.57236,92.344281 c 0,-1.54 -1.085,-2.87 -2.59,-3.325 1.33,-0.385 2.1525,-1.3825 2.1525,-2.7125 0,-1.7325 -1.4,-2.8875 -3.5,-2.8875 -1.1375,0 -2.24,0.385 -3.1325,1.085 v 0.735 c 0.8925,-0.7 1.995,-1.085 3.1325,-1.085 1.2775,0 2.135,0.8575 2.135,2.1525 0,2.0825 -0.9625,2.625 -3.15,2.625 v 0.6475 c 2.3625,0 3.4125,0.56 3.4125,2.765 0,1.5225 -0.98,2.765 -2.17,2.765 -1.33,0 -2.625,-0.385 -3.7275,-1.085 v 0.735 c 1.1025,0.7 2.3975,1.085 3.7275,1.085 2.03,0 3.71,-1.575 3.71,-3.5 z"
         style="font-size:17.5px;line-height:10"
         id="path177" />
    </g>
    <g
       aria-label="14"
       id="text29239"
       style="line-height:0%;font-family:Iwona;-inkscape-font-specification:Iwona;text-align:center;letter-spacing:0px;word-spacing:0px;text-anchor:middle;stroke-width:1px">
      <path
         d="m 496.19374,95.669281 v -12.075 h -1.015 c -0.9625,1.1025 -2.1,2.0475 -3.36,2.7825 v 0.735 c 1.0675,-0.5075 2.065,-1.1025 3.01,-1.82 v 10.3775 z"
         style="font-size:17.5px;line-height:10"
         id="path180" />
      <path
         d="m 507.91873,91.469281 v -0.805 h -1.3125 v -7.07 h -1.365 l -4.76,7.07 v 0.805 h 4.76 v 4.2 h 1.365 v -4.2 z m -2.6775,-0.805 h -3.8675 l 3.8675,-5.7575 z"
         style="font-size:17.5px;line-height:10"
         id="path182" />
    </g>
    <g
       aria-label="15"
       id="text29243"
       style="line-height:0%;font-family:Iwona;-inkscape-font-specification:Iwona;text-align:center;letter-spacing:0px;word-spacing:0px;text-anchor:middle;stroke-width:1px">
      <path
         d="m 524.54027,95.669281 v -12.075 h -1.015 c -0.9625,1.1025 -2.1,2.0475 -3.36,2.7825 v 0.735 c 1.0675,-0.5075 2.065,-1.1025 3.01,-1.82 v 10.3775 z"
         style="font-size:17.5px;line-height:10"
         id="path185" />
      <path
         d="m 536.26526,91.731781 c 0,-2.4675 -1.4875,-4.1125 -3.71,-4.1125 -1.015,0 -1.96,0.385 -2.695,1.0325 l 0.175,-3.9725 h 5.88 v -1.085 h -6.5625 l -0.2625,6.0375 0.735,0.035 c 0.665,-0.8225 1.6625,-1.3125 2.73,-1.3125 1.295,0 2.17,1.3475 2.17,3.3775 0,2.03 -0.875,3.3775 -2.17,3.3775 -1.3475,0 -2.66,-0.4375 -3.7275,-1.26 v 0.735 c 1.0675,0.8225 2.38,1.26 3.7275,1.26 2.2225,0 3.71,-1.645 3.71,-4.1125 z"
         style="font-size:17.5px;line-height:10"
         id="path187" />
    </g>
    <g
       aria-label="0"
       id="text29247"
       style="line-height:0%;font-family:Iwona;-inkscape-font-specification:Iwona;text-align:center;letter-spacing:0px;word-spacing:0px;text-anchor:middle;stroke-width:1px">
      <path
         d="m 560.14051,89.631781 c 0,-4.1475 -1.2775,-6.2125 -3.8325,-6.2125 -2.555,0 -3.8325,2.065 -3.8325,6.2125 0,4.1475 1.2775,6.2125 3.8325,6.2125 2.555,0 3.8325,-2.065 3.8325,-6.2125 z m -1.54,0 c 0,3.6575 -0.77,5.4775 -2.2925,5.4775 -1.5225,0 -2.2925,-1.82 -2.2925,-5.4775 0,-3.6575 0.77,-5.4775 2.2925,-5.4775 1.5225,0 2.2925,1.82 2.2925,5.4775 z"
         style="font-size:17.5px;line-height:10"
         id="path190" />
    </g>
    <g
       aria-label="1"
       id="text29251"
       style="line-height:0%;font-family:Iwona;-inkscape-font-specification:Iwona;text-align:center;letter-spacing:0px;word-spacing:0px;text-anchor:middle;stroke-width:1px">
      <path
         d="m 585.82694,95.669281 v -12.075 h -1.015 c -0.9625,1.1025 -2.1,2.0475 -3.36,2.7825 v 0.735 c 1.0675,-0.5075 2.065,-1.1025 3.01,-1.82 v 10.3775 z"
         style="font-size:17.5px;line-height:10"
         id="path193" />
    </g>
    <g
       aria-label="2"
       id="text29255"
       style="line-height:0%;font-family:Iwona;-inkscape-font-specification:Iwona;text-align:center;letter-spacing:0px;word-spacing:0px;text-anchor:middle;stroke-width:1px">
      <path
         d="m 616.71088,95.669281 v -1.085 h -6.1775 l 3.22,-3.185 c 1.435,-1.435 2.7825,-3.115 2.7825,-5.145 0,-1.715 -1.6975,-2.835 -3.535,-2.835 -1.3825,0 -2.695,0.63 -3.5525,1.6975 v 0.735 c 0.8925,-1.0325 2.1875,-1.6275 3.5525,-1.6275 1.1725,0 2.17,0.875 2.17,2.03 0,1.7325 -0.805,3.3425 -1.995,4.585 l -3.9025,4.0075 v 0.8225 z"
         style="font-size:17.5px;line-height:10"
         id="path196" />
    </g>
    <g
       aria-label="3"
       id="text29259"
       style="line-height:0%;font-family:Iwona;-inkscape-font-specification:Iwona;text-align:center;letter-spacing:0px;word-spacing:0px;text-anchor:middle;stroke-width:1px">
      <path
         d="m 645.05738,92.344281 c 0,-1.54 -1.085,-2.87 -2.59,-3.325 1.33,-0.385 2.1525,-1.3825 2.1525,-2.7125 0,-1.7325 -1.4,-2.8875 -3.5,-2.8875 -1.1375,0 -2.24,0.385 -3.1325,1.085 v 0.735 c 0.8925,-0.7 1.995,-1.085 3.1325,-1.085 1.2775,0 2.135,0.8575 2.135,2.1525 0,2.0825 -0.9625,2.625 -3.15,2.625 v 0.6475 c 2.3625,0 3.4125,0.56 3.4125,2.765 0,1.5225 -0.98,2.765 -2.17,2.765 -1.33,0 -2.625,-0.385 -3.7275,-1.085 v 0.735 c 1.1025,0.7 2.3975,1.085 3.7275,1.085 2.03,0 3.71,-1.575 3.71,-3.5 z"
         style="font-size:17.5px;line-height:10"
         id="path199" />
    </g>
    <g
       aria-label="4"
       id="text29263"
       style="line-height:0%;font-family:Iwona;-inkscape-font-specification:Iwona;text-align:center;letter-spacing:0px;word-spacing:0px;text-anchor:middle;stroke-width:1px">
      <path
         d="m 673.40381,91.469281 v -0.805 h -1.3125 v -7.07 h -1.365 l -4.76,7.07 v 0.805 h 4.76 v 4.2 h 1.365 v -4.2 z m -2.6775,-0.805 h -3.8675 l 3.8675,-5.7575 z"
         style="font-size:17.5px;line-height:10"
         id="path202" />
    </g>
    <g
       aria-label="5"
       id="text29267"
       style="line-height:0%;font-family:Iwona;-inkscape-font-specification:Iwona;text-align:center;letter-spacing:0px;word-spacing:0px;text-anchor:middle;stroke-width:1px">
      <path
         d="m 701.75031,91.731781 c 0,-2.4675 -1.4875,-4.1125 -3.71,-4.1125 -1.015,0 -1.96,0.385 -2.695,1.0325 l 0.175,-3.9725 h 5.88 v -1.085 h -6.5625 l -0.2625,6.0375 0.735,0.035 c 0.665,-0.8225 1.6625,-1.3125 2.73,-1.3125 1.295,0 2.17,1.3475 2.17,3.3775 0,2.03 -0.875,3.3775 -2.17,3.3775 -1.3475,0 -2.66,-0.4375 -3.7275,-1.26 v 0.735 c 1.0675,0.8225 2.38,1.26 3.7275,1.26 2.2225,0 3.71,-1.645 3.71,-4.1125 z"
         style="font-size:17.5px;line-height:10"
         id="path205" />
    </g>
    <g
       aria-label="6"
       id="text29271"
       style="line-height:0%;font-family:Iwona;-inkscape-font-specification:Iwona;text-align:center;letter-spacing:0px;word-spacing:0px;text-anchor:middle;stroke-width:1px">
      <path
         d="m 730.09668,91.731781 c 0,-2.52 -0.9975,-4.1125 -3.3425,-4.1125 -1.015,0 -1.96,0.4725 -2.555,1.2775 0,-2.2925 0.5775,-4.7425 2.555,-4.7425 0.8925,0 1.7675,0.2975 2.4675,0.8575 v -0.735 c -0.7,-0.56 -1.575,-0.8575 -2.4675,-0.8575 -2.7475,0 -4.095,3.115 -4.095,6.2125 0,4.34 1.12,6.2125 3.7275,6.2125 2.2225,0 3.71,-1.645 3.71,-4.1125 z m -1.54,0 c 0,2.03 -0.875,3.3775 -2.17,3.3775 -2.45,0 -2.1875,-2.6425 -2.1875,-5.4775 0.595,-0.805 1.54,-1.2775 2.555,-1.2775 1.4,0 1.8025,1.75 1.8025,3.3775 z"
         style="font-size:17.5px;line-height:10"
         id="path208" />
    </g>
    <g
       aria-label="7"
       id="text29275"
       style="line-height:0%;font-family:Iwona;-inkscape-font-specification:Iwona;text-align:center;letter-spacing:0px;word-spacing:0px;text-anchor:middle;stroke-width:1px">
      <path
         d="m 758.44318,84.189281 v -0.595 h -7.4375 v 1.085 h 5.705 l -5.1625,10.99 h 1.505 z"
         style="font-size:17.5px;line-height:10"
         id="path211" />
    </g>
    <g
       aria-label="8"
       id="text29279"
       style="line-height:0%;font-family:Iwona;-inkscape-font-specification:Iwona;text-align:center;letter-spacing:0px;word-spacing:0px;text-anchor:middle;stroke-width:1px">
      <path
         d="m 786.78962,92.291781 c 0,-1.645 -0.7875,-2.8175 -2.135,-3.3075 1.1375,-0.42 1.785,-1.365 1.785,-2.6425 0,-1.82 -1.2775,-2.9225 -3.36,-2.9225 -2.1,0 -3.3775,1.1025 -3.3775,2.9225 0,1.2775 0.6475,2.2225 1.785,2.6425 -1.3475,0.49 -2.135,1.6625 -2.135,3.3075 0,2.205 1.4175,3.5525 3.7275,3.5525 2.2925,0 3.71,-1.3475 3.71,-3.5525 z m -1.715,-5.95 c 0,1.3475 -0.77,2.1875 -1.995,2.1875 -1.2425,0 -2.0125,-0.84 -2.0125,-2.1875 0,-1.365 0.77,-2.1875 2.0125,-2.1875 1.225,0 1.995,0.8225 1.995,2.1875 z m 0.175,5.95 c 0,1.75 -0.8225,2.8175 -2.17,2.8175 -1.365,0 -2.1875,-1.0675 -2.1875,-2.8175 0,-1.75 0.8225,-2.8175 2.1875,-2.8175 1.3475,0 2.17,1.0675 2.17,2.8175 z"
         style="font-size:17.5px;line-height:10"
         id="path214" />
    </g>
    <g
       aria-label="9"
       id="text29283"
       style="line-height:0%;font-family:Iwona;-inkscape-font-specification:Iwona;text-align:center;letter-spacing:0px;word-spacing:0px;text-anchor:middle;stroke-width:1px">
      <path
         d="m 815.13605,89.631781 c 0,-4.34 -1.12,-6.2125 -3.71,-6.2125 -2.24,0 -3.7275,1.645 -3.7275,4.1125 0,2.52 0.9975,4.1125 3.3425,4.1125 1.015,0 1.96,-0.4725 2.555,-1.2775 0,2.2925 -0.5775,4.7425 -2.555,4.7425 -0.8925,0 -1.7675,-0.2975 -2.4675,-0.8575 v 0.735 c 0.7,0.56 1.575,0.8575 2.4675,0.8575 2.7475,0 4.095,-3.115 4.095,-6.2125 z m -1.54,0 c -0.595,0.805 -1.54,1.2775 -2.555,1.2775 -1.4,0 -1.8025,-1.75 -1.8025,-3.3775 0,-2.03 0.875,-3.3775 2.1875,-3.3775 2.4325,0 2.17,2.6425 2.17,5.4775 z"
         style="font-size:17.5px;line-height:10"
         id="path217" />
    </g>
    <g
       aria-label="10"
       id="text29287"
       style="line-height:0%;font-family:Iwona;-inkscape-font-specification:Iwona;text-align:center;letter-spacing:0px;word-spacing:0px;text-anchor:middle;stroke-width:1px">
      <path
         d="m 836.35124,95.669281 v -12.075 h -1.015 c -0.9625,1.1025 -2.1,2.0475 -3.36,2.7825 v 0.735 c 1.0675,-0.5075 2.065,-1.1025 3.01,-1.82 v 10.3775 z"
         style="font-size:17.5px;line-height:10"
         id="path220" />
      <path
         d="m 848.19873,89.631781 c 0,-4.1475 -1.2775,-6.2125 -3.8325,-6.2125 -2.555,0 -3.8325,2.065 -3.8325,6.2125 0,4.1475 1.2775,6.2125 3.8325,6.2125 2.555,0 3.8325,-2.065 3.8325,-6.2125 z m -1.54,0 c 0,3.6575 -0.77,5.4775 -2.2925,5.4775 -1.5225,0 -2.2925,-1.82 -2.2925,-5.4775 0,-3.6575 0.77,-5.4775 2.2925,-5.4775 1.5225,0 2.2925,1.82 2.2925,5.4775 z"
         style="font-size:17.5px;line-height:10"
         id="path222" />
    </g>
    <g
       aria-label="11"
       id="text29291"
       style="line-height:0%;font-family:Iwona;-inkscape-font-specification:Iwona;text-align:center;letter-spacing:0px;word-spacing:0px;text-anchor:middle;stroke-width:1px">
      <path
         d="m 864.69774,95.669281 v -12.075 h -1.015 c -0.9625,1.1025 -2.1,2.0475 -3.36,2.7825 v 0.735 c 1.0675,-0.5075 2.065,-1.1025 3.01,-1.82 v 10.3775 z"
         style="font-size:17.5px;line-height:10"
         id="path225" />
      <path
         d="m 873.88523,95.669281 v -12.075 h -1.015 c -0.9625,1.1025 -2.1,2.0475 -3.36,2.7825 v 0.735 c 1.0675,-0.5075 2.065,-1.1025 3.01,-1.82 v 10.3775 z"
         style="font-size:17.5px;line-height:10"
         id="path227" />
    </g>
    <g
       aria-label="12"
       id="text29295"
       style="line-height:0%;font-family:Iwona;-inkscape-font-specification:Iwona;text-align:center;letter-spacing:0px;word-spacing:0px;text-anchor:middle;stroke-width:1px">
      <path
         d="m 893.04417,95.669281 v -12.075 h -1.015 c -0.9625,1.1025 -2.1,2.0475 -3.36,2.7825 v 0.735 c 1.0675,-0.5075 2.065,-1.1025 3.01,-1.82 v 10.3775 z"
         style="font-size:17.5px;line-height:10"
         id="path230" />
      <path
         d="m 904.76917,95.669281 v -1.085 h -6.1775 l 3.22,-3.185 c 1.435,-1.435 2.7825,-3.115 2.7825,-5.145 0,-1.715 -1.6975,-2.835 -3.535,-2.835 -1.3825,0 -2.695,0.63 -3.5525,1.6975 v 0.735 c 0.8925,-1.0325 2.1875,-1.6275 3.5525,-1.6275 1.1725,0 2.17,0.875 2.17,2.03 0,1.7325 -0.805,3.3425 -1.995,4.585 l -3.9025,4.0075 v 0.8225 z"
         style="font-size:17.5px;line-height:10"
         id="path232" />
    </g>
    <g
       aria-label="13"
       id="text29299"
       style="line-height:0%;font-family:Iwona;-inkscape-font-specification:Iwona;text-align:center;letter-spacing:0px;word-spacing:0px;text-anchor:middle;stroke-width:1px">
      <path
         d="m 921.39067,95.669281 v -12.075 h -1.015 c -0.9625,1.1025 -2.1,2.0475 -3.36,2.7825 v 0.735 c 1.0675,-0.5075 2.065,-1.1025 3.01,-1.82 v 10.3775 z"
         style="font-size:17.5px;line-height:10"
         id="path235" />
      <path
         d="m 933.11566,92.344281 c 0,-1.54 -1.085,-2.87 -2.59,-3.325 1.33,-0.385 2.1525,-1.3825 2.1525,-2.7125 0,-1.7325 -1.4,-2.8875 -3.5,-2.8875 -1.1375,0 -2.24,0.385 -3.1325,1.085 v 0.735 c 0.8925,-0.7 1.995,-1.085 3.1325,-1.085 1.2775,0 2.135,0.8575 2.135,2.1525 0,2.0825 -0.9625,2.625 -3.15,2.625 v 0.6475 c 2.3625,0 3.4125,0.56 3.4125,2.765 0,1.5225 -0.98,2.765 -2.17,2.765 -1.33,0 -2.625,-0.385 -3.7275,-1.085 v 0.735 c 1.1025,0.7 2.3975,1.085 3.7275,1.085 2.03,0 3.71,-1.575 3.71,-3.5 z"
         style="font-size:17.5px;line-height:10"
         id="path237" />
    </g>
    <g
       aria-label="14"
       id="text29303"
       style="line-height:0%;font-family:Iwona;-inkscape-font-specification:Iwona;text-align:center;letter-spacing:0px;word-spacing:0px;text-anchor:middle;stroke-width:1px">
      <path
         d="m 949.73704,95.669281 v -12.075 h -1.015 c -0.9625,1.1025 -2.1,2.0475 -3.36,2.7825 v 0.735 c 1.0675,-0.5075 2.065,-1.1025 3.01,-1.82 v 10.3775 z"
         style="font-size:17.5px;line-height:10"
         id="path240" />
      <path
         d="m 961.46204,91.469281 v -0.805 h -1.3125 v -7.07 h -1.365 l -4.76,7.07 v 0.805 h 4.76 v 4.2 h 1.365 v -4.2 z m -2.6775,-0.805 h -3.8675 l 3.8675,-5.7575 z"
         style="font-size:17.5px;line-height:10"
         id="path242" />
    </g>
    <g
       aria-label="0"
       id="text29313"
       style="line-height:0%;font-family:Iwona;-inkscape-font-specification:Iwona;text-align:center;letter-spacing:0px;word-spacing:0px;text-anchor:middle;stroke-width:1px">
      <path
         d="m 1013.6838,89.631781 c 0,-4.1475 -1.2775,-6.2125 -3.8325,-6.2125 -2.555,0 -3.8325,2.065 -3.8325,6.2125 0,4.1475 1.2775,6.2125 3.8325,6.2125 2.555,0 3.8325,-2.065 3.8325,-6.2125 z m -1.54,0 c 0,3.6575 -0.77,5.4775 -2.2925,5.4775 -1.5225,0 -2.2925,-1.82 -2.2925,-5.4775 0,-3.6575 0.77,-5.4775 2.2925,-5.4775 1.5225,0 2.2925,1.82 2.2925,5.4775 z"
         style="font-size:17.5px;line-height:10"
         id="path245" />
    </g>
    <g
       aria-label="clk16_reg"
       id="text98"
       style="line-height:0%;font-family:Iwona;-inkscape-font-specification:Iwona;text-align:end;letter-spacing:0px;word-spacing:0px;text-anchor:end;stroke-width:1px">
      <path
         d="m 20.237028,195.91344 v -0.735 c -0.56,-0.7875 -1.47,-1.26 -2.45,-1.26 -2.1875,0 -3.6575,1.645 -3.6575,4.1125 0,2.4675 1.47,4.1125 3.6575,4.1125 0.91,0 1.7675,-0.455 2.275,-1.2075 v -0.735 c -0.595,0.8925 -1.2075,1.2075 -2.275,1.2075 -1.26,0 -2.1175,-1.3475 -2.1175,-3.3775 0,-2.03 0.8575,-3.3775 2.1175,-3.3775 1.085,0 1.82,0.385 2.45,1.26 z"
         style="font-size:17.5px;line-height:10"
         id="path248" />
      <path
         d="m 25.36451,201.35594 v -0.525 c -0.3325,0.28 -0.7175,0.5075 -1.155,0.5075 -0.6475,0 -0.77,-0.805 -0.77,-1.5575 v -10.0625 h -1.365 v 10.0625 c 0,1.1725 0.455,2.3625 1.4875,2.3625 0.665,0 1.295,-0.3325 1.8025,-0.7875 z"
         style="font-size:17.5px;line-height:10"
         id="path250" />
      <path
         d="m 33.886978,201.96844 -4.06,-4.6725 3.92,-3.2025 h -1.085 l -4.1825,3.43 v -7.805 h -1.365 v 12.25 h 1.365 v -4.3575 l 3.78,4.3575 z"
         style="font-size:17.5px;line-height:10"
         id="path252" />
      <path
         d="m 39.836966,201.96844 v -12.075 h -1.015 c -0.9625,1.1025 -2.1,2.0475 -3.36,2.7825 v 0.735 c 1.0675,-0.5075 2.065,-1.1025 3.01,-1.82 v 10.3775 z"
         style="font-size:17.5px;line-height:10"
         id="path254" />
      <path
         d="m 51.56196,198.03094 c 0,-2.52 -0.9975,-4.1125 -3.3425,-4.1125 -1.015,0 -1.96,0.4725 -2.555,1.2775 0,-2.2925 0.5775,-4.7425 2.555,-4.7425 0.8925,0 1.7675,0.2975 2.4675,0.8575 v -0.735 c -0.7,-0.56 -1.575,-0.8575 -2.4675,-0.8575 -2.7475,0 -4.095,3.115 -4.095,6.2125 0,4.34 1.12,6.2125 3.7275,6.2125 2.2225,0 3.71,-1.645 3.71,-4.1125 z m -1.54,0 c 0,2.03 -0.875,3.3775 -2.17,3.3775 -2.45,0 -2.1875,-2.6425 -2.1875,-5.4775 0.595,-0.805 1.54,-1.2775 2.555,-1.2775 1.4,0 1.8025,1.75 1.8025,3.3775 z"
         style="font-size:17.5px;line-height:10"
         id="path256" />
      <path
         d="m 61.186953,203.98094 v -0.875 h -8.75 v 0.875 z"
         style="font-size:17.5px;line-height:10"
         id="path258" />
      <path
         d="m 66.944418,195.17844 v -1.085 c -0.1925,-0.07 -0.4025,-0.1225 -0.595,-0.1225 -0.98,0 -1.7675,0.6825 -2.3975,1.435 v -1.3125 h -1.365 v 7.875 h 1.365 v -5.8275 c 0.525,-0.6125 1.19,-1.1375 1.995,-1.1375 0.3325,0 0.6825,0.07 0.9975,0.175 z"
         style="font-size:17.5px;line-height:10"
         id="path260" />
      <path
         d="m 75.029401,198.20594 v -0.175 c 0,-2.4675 -1.3475,-4.1125 -3.3775,-4.1125 -2.0475,0 -3.395,1.645 -3.395,4.1125 0,2.4675 1.3475,4.1125 3.395,4.1125 0.875,0 1.7325,-0.28 2.45,-0.7875 v -0.735 c -0.8225,0.525 -1.4875,0.7175 -2.45,0.7175 -1.4875,0 -1.855,-1.4175 -1.855,-3.1325 z m -1.54,-0.735 h -3.6925 c 0,-1.4 0.595,-2.8175 1.855,-2.8175 1.2425,0 1.8375,1.4175 1.8375,2.8175 z"
         style="font-size:17.5px;line-height:10"
         id="path262" />
      <path
         d="m 83.639379,203.01844 v -8.925 h -1.365 v 0.2975 c -0.6825,-0.2975 -1.4175,-0.4725 -2.1525,-0.4725 -2.1875,0 -3.255,1.75 -3.255,4.1125 0,2.3275 0.875,4.1125 2.9925,4.1125 0.8925,0 1.715,-0.4025 2.415,-0.9625 v 1.8375 c 0,1.2075 -0.665,2.345 -1.75,2.345 -0.8925,0 -1.785,-0.175 -2.625,-0.4725 v 0.5425 c 0.98,0.455 2.065,0.735 3.15,0.735 1.54,0 2.59,-1.505 2.59,-3.15 z m -1.365,-2.5725 c -0.525,0.525 -1.1725,0.9625 -1.925,0.9625 -1.5925,0 -1.9425,-1.54 -1.9425,-3.3775 0,-1.645 0.5075,-3.3775 1.9425,-3.3775 0.665,0 1.33,0.175 1.925,0.4725 z"
         style="font-size:17.5px;line-height:10"
         id="path264" />
    </g>
    <path
       id="path100"
       d="M 88.582678,205.51175 H 315.35433 l 3.54328,-21.25984 h 223.22833 l 3.54328,21.25984 h 223.22837 l 3.54328,-21.25984 h 223.22832 l 3.54328,21.25984 h 21.25993"
       style="fill:none;fill-rule:evenodd;stroke:#000000;stroke-width:1px;stroke-linecap:butt;stroke-linejoin:miter;stroke-opacity:1" />
    <path
       style="fill:none;fill-rule:evenodd;stroke:#000000;stroke-width:1px;stroke-linecap:butt;stroke-linejoin:miter;stroke-opacity:1"
       d="M 88.582678,134.6456 H 290.55118 l 3.54328,-21.25984 h 24.80317 l 3.54328,21.25984 h 421.65358 l 3.54328,-21.25984 h 24.80321 l 3.54328,21.25984 h 244.48814"
       id="path105" />
    <path
       id="path107"
       d="M 88.582678,170.07867 H 517.32284 l 3.54328,-21.25984 h 24.80313 l 3.54328,21.25984 h 421.65362 l 3.54328,-21.25984 h 24.80307 l 3.5433,21.25984 h 17.7166"
       style="fill:none;fill-rule:evenodd;stroke:#000000;stroke-width:1px;stroke-linecap:butt;stroke-linejoin:miter;stroke-opacity:1" />
    <g
       aria-label="half"
       id="text111"
       style="line-height:0%;font-family:Iwona;-inkscape-font-specification:Iwona;text-align:end;letter-spacing:0px;word-spacing:0px;text-anchor:end;stroke-width:1px">
      <path
         d="m 65.211954,131.10229 v -5.6875 c 0,-1.2775 -0.98,-2.3625 -2.24,-2.3625 -1.05,0 -1.9775,0.595 -2.73,1.33 v -5.53 h -1.365 v 12.25 h 1.365 v -6.1775 c 0.595,-0.595 1.33,-1.0675 2.1525,-1.0675 0.8225,0 1.4525,0.7175 1.4525,1.5575 v 5.6875 z"
         style="font-size:17.5px;line-height:10"
         id="path267" />
      <path
         d="m 74.084425,131.10229 v -4.9 c 0,-1.645 -1.015,-3.15 -2.5375,-3.15 -1.12,0 -2.17,0.385 -3.115,0.98 v 0.5425 c 0.7875,-0.4375 1.6625,-0.7175 2.5725,-0.7175 1.085,0 1.715,1.155 1.715,2.345 v 0.315 c -0.6825,-0.2975 -1.4175,-0.4725 -2.1525,-0.4725 -1.8725,0 -3.255,0.8575 -3.255,2.625 0,1.68 1.225,2.6075 2.9925,2.6075 0.8925,0 1.715,-0.4025 2.415,-0.9625 v 0.7875 z m -1.365,-1.5225 c -0.525,0.525 -1.1725,0.9625 -1.925,0.9625 -1.1725,0 -1.9425,-0.7175 -1.9425,-1.8725 0,-1.0675 0.875,-1.89 1.9425,-1.89 0.665,0 1.33,0.175 1.925,0.4725 z"
         style="font-size:17.5px;line-height:10"
         id="path269" />
      <path
         d="m 80.174408,130.48979 v -0.525 c -0.3325,0.28 -0.7175,0.5075 -1.155,0.5075 -0.6475,0 -0.77,-0.805 -0.77,-1.5575 v -10.0625 h -1.365 v 10.0625 c 0,1.1725 0.455,2.3625 1.4875,2.3625 0.665,0 1.295,-0.3325 1.8025,-0.7875 z"
         style="font-size:17.5px;line-height:10"
         id="path271" />
      <path
         d="m 85.424379,119.98979 v -0.5425 c -0.525,-0.4375 -1.155,-0.77 -1.8375,-0.77 -1.015,0 -1.4875,1.19 -1.4875,2.3625 v 2.1875 h -1.225 v 0.735 h 1.225 v 7.14 h 1.365 v -7.14 h 1.225 v -0.735 h -1.225 v -2.1875 c 0,-0.7525 0.14,-1.5575 0.7875,-1.5575 0.4375,0 0.84,0.21 1.1725,0.5075 z"
         style="font-size:17.5px;line-height:10"
         id="path273" />
    </g>
    <g
       aria-label="cycle"
       id="text115"
       style="line-height:0%;font-family:Iwona;-inkscape-font-specification:Iwona;text-align:end;letter-spacing:0px;word-spacing:0px;text-anchor:end;stroke-width:1px">
      <path
         d="m 54.396989,160.48037 v -0.735 c -0.56,-0.7875 -1.47,-1.26 -2.45,-1.26 -2.1875,0 -3.6575,1.645 -3.6575,4.1125 0,2.4675 1.47,4.1125 3.6575,4.1125 0.91,0 1.7675,-0.455 2.275,-1.2075 v -0.735 c -0.595,0.8925 -1.2075,1.2075 -2.275,1.2075 -1.26,0 -2.1175,-1.3475 -2.1175,-3.3775 0,-2.03 0.8575,-3.3775 2.1175,-3.3775 1.085,0 1.82,0.385 2.45,1.26 z"
         style="font-size:17.5px;line-height:10"
         id="path276" />
      <path
         d="m 62.481971,167.58537 v -8.925 h -1.365 v 6.1775 c -0.595,0.595 -1.33,1.0675 -2.1525,1.0675 -0.8225,0 -1.4525,-0.7175 -1.4525,-1.5575 v -5.6875 h -1.365 v 5.6875 c 0,1.2775 0.98,2.3625 2.24,2.3625 1.05,0 1.9775,-0.595 2.73,-1.33 v 2.205 c 0,1.1725 -0.525,2.345 -1.575,2.345 -0.8225,0 -1.61,-0.175 -2.3625,-0.4725 v 0.5425 c 0.8925,0.455 1.89,0.735 2.905,0.735 1.4875,0 2.3975,-1.54 2.3975,-3.15 z"
         style="font-size:17.5px;line-height:10"
         id="path278" />
      <path
         d="m 70.95194,160.48037 v -0.735 c -0.56,-0.7875 -1.47,-1.26 -2.45,-1.26 -2.1875,0 -3.6575,1.645 -3.6575,4.1125 0,2.4675 1.47,4.1125 3.6575,4.1125 0.91,0 1.7675,-0.455 2.275,-1.2075 v -0.735 c -0.595,0.8925 -1.2075,1.2075 -2.275,1.2075 -1.26,0 -2.1175,-1.3475 -2.1175,-3.3775 0,-2.03 0.8575,-3.3775 2.1175,-3.3775 1.085,0 1.82,0.385 2.45,1.26 z"
         style="font-size:17.5px;line-height:10"
         id="path280" />
      <path
         d="m 76.079422,165.92287 v -0.525 c -0.3325,0.28 -0.7175,0.5075 -1.155,0.5075 -0.6475,0 -0.77,-0.805 -0.77,-1.5575 v -10.0625 h -1.365 v 10.0625 c 0,1.1725 0.455,2.3625 1.4875,2.3625 0.665,0 1.295,-0.3325 1.8025,-0.7875 z"
         style="font-size:17.5px;line-height:10"
         id="path282" />
      <path
         d="m 84.164391,162.77287 v -0.175 c 0,-2.4675 -1.3475,-4.1125 -3.3775,-4.1125 -2.0475,0 -3.395,1.645 -3.395,4.1125 0,2.4675 1.3475,4.1125 3.395,4.1125 0.875,0 1.7325,-0.28 2.45,-0.7875 v -0.735 c -0.8225,0.525 -1.4875,0.7175 -2.45,0.7175 -1.4875,0 -1.855,-1.4175 -1.855,-3.1325 z m -1.54,-0.735 h -3.6925 c 0,-1.4 0.595,-2.8175 1.855,-2.8175 1.2425,0 1.8375,1.4175 1.8375,2.8175 z"
         style="font-size:17.5px;line-height:10"
         id="path284" />
    </g>
  </g>
</svg>
