<?xml version="1.0" encoding="UTF-8" standalone="no"?>
<!-- Created with Inkscape (http://www.inkscape.org/) -->

<svg
   width="201.8896mm"
   height="50.286232mm"
   viewBox="0 0 715.35686 178.17956"
   id="svg19691"
   version="1.1"
   xmlns="http://www.w3.org/2000/svg"
   xmlns:svg="http://www.w3.org/2000/svg"
   xmlns:rdf="http://www.w3.org/1999/02/22-rdf-syntax-ns#"
   xmlns:cc="http://creativecommons.org/ns#"
   xmlns:dc="http://purl.org/dc/elements/1.1/">
  <defs
     id="defs19693" />
  <metadata
     id="metadata19696">
    <rdf:RDF>
      <cc:Work
         rdf:about="">
        <dc:format>image/svg+xml</dc:format>
        <dc:type
           rdf:resource="http://purl.org/dc/dcmitype/StillImage" />
        <dc:title />
      </cc:Work>
    </rdf:RDF>
  </metadata>
  <g
     id="layer1"
     transform="translate(24.411933,-34.93306)">
    <path
       style="fill:#80e5ff;fill-rule:evenodd;stroke:none;stroke-width:1px;stroke-linecap:butt;stroke-linejoin:miter;stroke-opacity:1"
       d="m 630.70867,99.21259 v 42.51966 h -3.54331 l 7.08661,7.08662 7.08662,-7.08662 h -3.54331 V 99.21259 Z"
       id="path32318" />
    <path
       style="fill:#80e5ff;fill-rule:evenodd;stroke:none;stroke-width:1px;stroke-linecap:butt;stroke-linejoin:miter;stroke-opacity:1"
       d="m 488.97638,99.21259 v 7.08661 h -3.54331 l 7.08661,7.08662 7.08662,-7.08662 h -3.54331 v -7.08661 z"
       id="path32294" />
    <path
       id="path32278"
       d="m 205.51181,99.212588 v 7.086612 h -3.54331 l 7.08661,7.08662 7.08662,-7.08662 h -3.54331 v -7.086612 z"
       style="fill:#80e5ff;fill-rule:evenodd;stroke:none;stroke-width:1px;stroke-linecap:butt;stroke-linejoin:miter;stroke-opacity:1" />
    <path
       style="fill:#80e5ff;fill-rule:evenodd;stroke:none;stroke-width:1px;stroke-linecap:butt;stroke-linejoin:miter;stroke-opacity:1"
       d="m 347.2441,99.212571 v 42.519659 h -3.54331 l 7.08661,7.08662 7.08662,-7.08662 h -3.54331 V 99.212571 Z"
       id="path32286" />
    <path
       id="rect31670"
       style="fill:#ffcc00;stroke-width:5.669"
       d="m 116.92913,42.519672 h 3.5433 c 0,0 0,10e-7 0,2e-6 v 56.69291 c 0,10e-7 0,10e-7 0,10e-7 h -3.5433 c 0,0 0,0 0,-10e-7 v -56.69291 c 0,-1e-6 0,-2e-6 0,-2e-6 z" />
    <path
       id="rect32212"
       style="fill:#ffcc00;stroke-width:5.669"
       d="m 145.27559,42.519672 h 3.5433 c 0,0 0,10e-7 0,2e-6 v 56.69291 c 0,10e-7 0,10e-7 0,10e-7 h -3.5433 c 0,0 0,0 0,-10e-7 v -56.69291 c 0,-1e-6 0,-2e-6 0,-2e-6 z" />
    <path
       id="rect32214"
       style="fill:#ffcc00;stroke-width:5.669"
       d="m 173.62206,42.519672 h 3.5433 c 0,0 0,10e-7 0,2e-6 v 56.69291 c 0,10e-7 0,10e-7 0,10e-7 h -3.5433 c 0,0 0,0 0,-10e-7 v -56.69291 c 0,-1e-6 0,-2e-6 0,-2e-6 z" />
    <path
       id="rect32216"
       style="fill:#ffcc00;stroke-width:5.669"
       d="m 201.96851,42.519672 h 3.5433 c 0,0 0,10e-7 0,2e-6 v 56.692895 c 0,10e-7 0,10e-7 0,10e-7 h -3.5433 c 0,0 0,0 0,-10e-7 V 42.519674 c 0,-1e-6 0,-2e-6 0,-2e-6 z" />
    <path
       id="rect32218"
       style="fill:#ffcc00;stroke-width:5.669"
       d="m 230.35265,42.519672 h 3.46791 c 0,0 0,10e-7 0,2e-6 V 205.51178 c 0,0 0,0 0,0 h -3.46791 c 0,0 0,0 0,0 V 42.519674 c 0,-1e-6 0,-2e-6 0,-2e-6 z" />
    <path
       id="rect32220"
       style="fill:#ffcc00;stroke-width:5.669"
       d="m 258.66141,42.519672 h 3.5433 c 0,0 0,10e-7 0,2e-6 v 56.69291 c 0,10e-7 0,10e-7 0,10e-7 h -3.5433 c 0,0 0,0 0,-10e-7 v -56.69291 c 0,-1e-6 0,-2e-6 0,-2e-6 z" />
    <path
       id="rect32222"
       style="fill:#ffcc00;stroke-width:5.669"
       d="m 287.00788,42.519684 h 3.54329 c 0,0 10e-6,1e-6 10e-6,1e-6 v 56.692887 c 0,1e-6 -10e-6,2e-6 -10e-6,2e-6 h -3.54329 c -10e-6,0 -10e-6,-10e-7 -10e-6,-2e-6 V 42.519685 c 0,0 0,-1e-6 10e-6,-1e-6 z" />
    <path
       id="rect32224"
       style="fill:#ffcc00;stroke-width:5.669"
       d="m 315.35434,42.519672 h 3.5433 c 0,0 0,10e-7 0,2e-6 v 56.692898 c 0,1e-6 0,2e-6 0,2e-6 h -3.5433 c 0,0 0,-10e-7 0,-2e-6 V 42.519674 c 0,-1e-6 0,-2e-6 0,-2e-6 z" />
    <path
       id="rect32226"
       style="fill:#ffcc00;stroke-width:5.669"
       d="m 343.70078,42.519672 h 3.5433 c 0,0 0,10e-7 0,2e-6 v 56.69291 c 0,10e-7 0,10e-7 0,10e-7 h -3.5433 c 0,0 0,0 0,-10e-7 v -56.69291 c 0,-1e-6 0,-2e-6 0,-2e-6 z" />
    <path
       id="rect32228"
       style="fill:#ffcc00;stroke-width:5.669"
       d="m 372.08493,42.519672 h 3.46791 c 0,0 0,10e-7 0,2e-6 V 205.51178 c 0,0 0,0 0,0 h -3.46791 c 0,0 0,0 0,0 V 42.519674 c 0,-1e-6 0,-2e-6 0,-2e-6 z" />
    <path
       id="rect32230"
       style="fill:#ffcc00;stroke-width:5.669"
       d="m 400.39371,42.519672 h 3.5433 c 0,0 0,10e-7 0,2e-6 v 56.69291 c 0,10e-7 0,10e-7 0,10e-7 h -3.5433 c 0,0 0,0 0,-10e-7 v -56.69291 c 0,-1e-6 0,-2e-6 0,-2e-6 z" />
    <path
       id="rect32232"
       style="fill:#ffcc00;stroke-width:5.669"
       d="m 428.74014,42.519672 h 3.5433 c 0,0 0,10e-7 0,2e-6 v 56.69291 c 0,10e-7 0,10e-7 0,10e-7 h -3.5433 c 0,0 0,0 0,-10e-7 v -56.69291 c 0,-1e-6 0,-2e-6 0,-2e-6 z" />
    <path
       id="rect32234"
       style="fill:#ffcc00;stroke-width:5.669"
       d="m 457.08661,42.519672 h 3.5433 c 0,0 0,10e-7 0,2e-6 v 56.69291 c 0,10e-7 0,10e-7 0,10e-7 h -3.5433 c 0,0 0,0 0,-10e-7 v -56.69291 c 0,-1e-6 0,-2e-6 0,-2e-6 z" />
    <path
       id="rect32236"
       style="fill:#ffcc00;stroke-width:5.669"
       d="m 485.43305,42.519672 h 3.54329 c 1e-5,0 1e-5,10e-7 1e-5,2e-6 v 56.692895 c 0,10e-7 0,10e-7 -1e-5,10e-7 h -3.54329 c 0,0 -10e-6,0 -10e-6,-10e-7 V 42.519674 c 0,-1e-6 10e-6,-2e-6 10e-6,-2e-6 z" />
    <path
       id="rect32238"
       style="fill:#ffcc00;stroke-width:5.669"
       d="m 513.77954,42.519672 h 3.5433 c 0,0 0,10e-7 0,2e-6 V 205.51178 c 0,0 0,0 0,0 h -3.5433 c 0,0 0,0 0,0 V 42.519674 c 0,-1e-6 0,-2e-6 0,-2e-6 z" />
    <path
       id="rect32240"
       style="fill:#ffcc00;stroke-width:5.669"
       d="m 542.12598,42.519672 h 3.5433 c 0,0 0,10e-7 0,2e-6 v 56.69291 c 0,10e-7 0,10e-7 0,10e-7 h -3.5433 c 0,0 0,0 0,-10e-7 v -56.69291 c 0,-1e-6 0,-2e-6 0,-2e-6 z" />
    <path
       id="rect32242"
       style="fill:#ffcc00;stroke-width:5.669"
       d="m 570.47247,42.519672 h 3.5433 c 0,0 0,10e-7 0,2e-6 v 56.69291 c 0,10e-7 0,10e-7 0,10e-7 h -3.5433 c 0,0 0,0 0,-10e-7 v -56.69291 c 0,-1e-6 0,-2e-6 0,-2e-6 z" />
    <path
       id="rect32244"
       style="fill:#ffcc00;stroke-width:5.669"
       d="m 598.81897,42.519672 h 3.5433 c 0,0 0,10e-7 0,2e-6 v 56.692895 c 0,10e-7 0,10e-7 0,10e-7 h -3.5433 c 0,0 0,0 0,-10e-7 V 42.519674 c 0,-1e-6 0,-2e-6 0,-2e-6 z" />
    <path
       id="rect32246"
       style="fill:#ffcc00;stroke-width:5.669"
       d="m 627.16541,42.519672 h 3.5433 c 0,0 0,10e-7 0,2e-6 v 56.69291 c 0,10e-7 0,10e-7 0,10e-7 h -3.5433 c 0,0 0,0 0,-10e-7 v -56.69291 c 0,-1e-6 0,-2e-6 0,-2e-6 z" />
    <path
       id="rect32248"
       style="fill:#ffcc00;stroke-width:5.669"
       d="m 655.51184,42.519672 h 3.5433 c 0,0 0,10e-7 0,2e-6 V 205.51178 c 0,0 0,0 0,0 h -3.5433 c 0,0 0,0 0,0 V 42.519674 c 0,-1e-6 0,-2e-6 0,-2e-6 z" />
    <g
       aria-label="clk_i"
       id="text24487"
       style="line-height:0%;font-family:Iwona;-inkscape-font-specification:Iwona;text-align:end;letter-spacing:0px;word-spacing:0px;text-anchor:end;stroke-width:1px">
      <path
         d="m 56.006083,54.18121 v -0.735 c -0.56,-0.7875 -1.47,-1.26 -2.45,-1.26 -2.1875,0 -3.6575,1.645 -3.6575,4.1125 0,2.4675 1.47,4.1125 3.6575,4.1125 0.91,0 1.7675,-0.455 2.275,-1.2075 v -0.735 c -0.595,0.8925 -1.2075,1.2075 -2.275,1.2075 -1.26,0 -2.1175,-1.3475 -2.1175,-3.3775 0,-2.03 0.8575,-3.3775 2.1175,-3.3775 1.085,0 1.82,0.385 2.45,1.26 z"
         style="font-size:17.5px;line-height:10"
         id="path110" />
      <path
         d="m 61.133564,59.62371 v -0.525 c -0.3325,0.28 -0.7175,0.5075 -1.155,0.5075 -0.6475,0 -0.77,-0.805 -0.77,-1.5575 v -10.0625 h -1.365 v 10.0625 c 0,1.1725 0.455,2.3625 1.4875,2.3625 0.665,0 1.295,-0.3325 1.8025,-0.7875 z"
         style="font-size:17.5px;line-height:10"
         id="path112" />
      <path
         d="m 69.656033,60.23621 -4.06,-4.6725 3.92,-3.2025 h -1.085 l -4.1825,3.43 v -7.805 h -1.365 v 12.25 h 1.365 v -4.3575 l 3.78,4.3575 z"
         style="font-size:17.5px;line-height:10"
         id="path114" />
      <path
         d="m 78.58102,62.24871 v -0.875 h -8.75 v 0.875 z"
         style="font-size:17.5px;line-height:10"
         id="path116" />
      <path
         d="m 83.183488,59.62371 v -0.525 c -0.3325,0.28 -0.7175,0.5075 -1.155,0.5075 -0.6475,0 -0.77,-0.805 -0.77,-1.5575 v -5.6875 h -1.365 v 5.6875 c 0,1.1725 0.455,2.3625 1.4875,2.3625 0.665,0 1.295,-0.3325 1.8025,-0.7875 z m -1.75,-9.9925 c 0,-0.4725 -0.385,-0.8575 -0.8575,-0.8575 -0.4725,0 -0.8575,0.385 -0.8575,0.8575 0,0.4725 0.385,0.8575 0.8575,0.8575 0.4725,0 0.8575,-0.385 0.8575,-0.8575 z"
         style="font-size:17.5px;line-height:10"
         id="path118" />
    </g>
    <g
       aria-label="timer_reg"
       id="text24491"
       style="line-height:0%;font-family:Iwona;-inkscape-font-specification:Iwona;text-align:end;letter-spacing:0px;word-spacing:0px;text-anchor:end;stroke-width:1px">
      <path
         d="m 18.468666,91.513477 v -0.525 c -0.28,0.28 -0.6125,0.5075 -1.015,0.5075 -0.63,0 -0.665,-0.8225 -0.665,-1.5575 v -4.9525 h 1.68 v -0.735 h -1.68 v -2.625 h -0.8225 c 0,1.4 -0.805,2.7125 -2.0825,2.7125 v 0.6475 h 1.54 v 4.9525 c 0,1.155 0.3675,2.3625 1.365,2.3625 0.6475,0 1.2075,-0.35 1.68,-0.7875 z"
         style="font-size:17.5px;line-height:10"
         id="path121" />
      <path
         d="m 23.596142,91.513477 v -0.525 c -0.3325,0.28 -0.7175,0.5075 -1.155,0.5075 -0.6475,0 -0.77,-0.805 -0.77,-1.5575 v -5.6875 h -1.365 v 5.6875 c 0,1.1725 0.455,2.3625 1.4875,2.3625 0.665,0 1.295,-0.3325 1.8025,-0.7875 z m -1.75,-9.9925 c 0,-0.4725 -0.385,-0.8575 -0.8575,-0.8575 -0.4725,0 -0.8575,0.385 -0.8575,0.8575 0,0.4725 0.385,0.8575 0.8575,0.8575 0.4725,0 0.8575,-0.385 0.8575,-0.8575 z"
         style="font-size:17.5px;line-height:10"
         id="path123" />
      <path
         d="m 34.901125,92.125977 v -5.6875 c 0,-1.225 -0.7175,-2.3625 -1.855,-2.3625 -0.98,0 -1.89,0.5075 -2.415,1.33 -0.28,-0.77 -0.875,-1.33 -1.68,-1.33 -0.91,0 -1.645,0.63 -2.24,1.33 v -1.155 h -1.365 v 7.875 h 1.365 v -6.195 c 0.42,-0.5425 0.945,-1.05 1.6275,-1.05 0.7175,0 1.1025,0.77 1.1025,1.5575 v 5.6875 h 1.365 v -5.6875 c 0,-0.21 -0.0175,-0.4025 -0.0525,-0.6125 0.42,-0.5425 0.9975,-0.945 1.68,-0.945 0.7175,0 1.1025,0.77 1.1025,1.5575 v 5.6875 z"
         style="font-size:17.5px;line-height:10"
         id="path125" />
      <path
         d="m 43.948595,88.363477 v -0.175 c 0,-2.4675 -1.3475,-4.1125 -3.3775,-4.1125 -2.0475,0 -3.395,1.645 -3.395,4.1125 0,2.4675 1.3475,4.1125 3.395,4.1125 0.875,0 1.7325,-0.28 2.45,-0.7875 v -0.735 c -0.8225,0.525 -1.4875,0.7175 -2.45,0.7175 -1.4875,0 -1.855,-1.4175 -1.855,-3.1325 z m -1.54,-0.735 h -3.6925 c 0,-1.4 0.595,-2.8175 1.855,-2.8175 1.2425,0 1.8375,1.4175 1.8375,2.8175 z"
         style="font-size:17.5px;line-height:10"
         id="path127" />
      <path
         d="m 50.581071,85.335977 v -1.085 c -0.1925,-0.07 -0.4025,-0.1225 -0.595,-0.1225 -0.98,0 -1.7675,0.6825 -2.3975,1.435 v -1.3125 h -1.365 v 7.875 h 1.365 v -5.8275 c 0.525,-0.6125 1.19,-1.1375 1.995,-1.1375 0.3325,0 0.6825,0.07 0.9975,0.175 z"
         style="font-size:17.5px;line-height:10"
         id="path129" />
      <path
         d="m 59.681054,94.138477 v -0.875 h -8.75 v 0.875 z"
         style="font-size:17.5px;line-height:10"
         id="path131" />
      <path
         d="m 65.438524,85.335977 v -1.085 c -0.1925,-0.07 -0.4025,-0.1225 -0.595,-0.1225 -0.98,0 -1.7675,0.6825 -2.3975,1.435 v -1.3125 h -1.365 v 7.875 h 1.365 v -5.8275 c 0.525,-0.6125 1.19,-1.1375 1.995,-1.1375 0.3325,0 0.6825,0.07 0.9975,0.175 z"
         style="font-size:17.5px;line-height:10"
         id="path133" />
      <path
         d="m 73.523507,88.363477 v -0.175 c 0,-2.4675 -1.3475,-4.1125 -3.3775,-4.1125 -2.0475,0 -3.395,1.645 -3.395,4.1125 0,2.4675 1.3475,4.1125 3.395,4.1125 0.875,0 1.7325,-0.28 2.45,-0.7875 v -0.735 c -0.8225,0.525 -1.4875,0.7175 -2.45,0.7175 -1.4875,0 -1.855,-1.4175 -1.855,-3.1325 z m -1.54,-0.735 h -3.6925 c 0,-1.4 0.595,-2.8175 1.855,-2.8175 1.2425,0 1.8375,1.4175 1.8375,2.8175 z"
         style="font-size:17.5px;line-height:10"
         id="path135" />
      <path
         d="m 82.13348,93.175977 v -8.925 h -1.365 v 0.2975 c -0.6825,-0.2975 -1.4175,-0.4725 -2.1525,-0.4725 -2.1875,0 -3.255,1.75 -3.255,4.1125 0,2.3275 0.875,4.1125 2.9925,4.1125 0.8925,0 1.715,-0.4025 2.415,-0.9625 v 1.8375 c 0,1.2075 -0.665,2.345 -1.75,2.345 -0.8925,0 -1.785,-0.175 -2.625,-0.4725 v 0.5425 c 0.98,0.455 2.065,0.735 3.15,0.735 1.54,0 2.59,-1.505 2.59,-3.15 z m -1.365,-2.5725 c -0.525,0.525 -1.1725,0.9625 -1.925,0.9625 -1.5925,0 -1.9425,-1.54 -1.9425,-3.3775 0,-1.645 0.5075,-3.3775 1.9425,-3.3775 0.665,0 1.33,0.175 1.925,0.4725 z"
         style="font-size:17.5px;line-height:10"
         id="path137" />
    </g>
    <path
       style="fill:none;fill-rule:evenodd;stroke:#000000;stroke-width:1px;stroke-linecap:butt;stroke-linejoin:miter;stroke-opacity:1"
       d="m 88.582677,42.519674 h 14.173233 v 21.259843 h 14.17322 V 42.519674 h 14.17323 v 21.259843 h 14.17322 V 42.519674 h 14.17324 v 21.259843 h 14.17322 V 42.519674 h 14.17323 v 21.259843 h 14.17322 V 42.519674 h 14.17324 v 21.259843 h 14.17322 V 42.519674 h 14.17323 V 63.779517 H 258.6614 V 42.519674 h 14.17324 v 21.259843 h 14.17322 V 42.519674 h 14.17323 v 21.259843 h 14.17322 V 42.519674 h 14.17325 v 21.259843 h 14.17322 V 42.519674 h 14.17323 v 21.259843 h 14.17322 V 42.519674 h 14.17324 v 21.259843 h 14.17322 V 42.519674 h 14.17323 v 21.259843 h 14.17322 V 42.519674 h 14.17324 V 63.779517 H 457.0866 V 42.519674 h 14.17323 v 21.259843 h 14.17322 V 42.519674 h 14.17324 v 21.259843 h 14.17322 V 42.519674 h 14.17323 v 21.259843 h 14.17322 l 1e-5,-21.259843 h 14.17324 v 21.259843 h 14.17322 V 42.519674 h 14.17323 v 21.259843 h 14.17322 V 42.519674 h 14.17324 v 21.259843 h 14.17322 V 42.519674 h 14.17323 v 21.259843 h 14.17322 V 42.519674 h 14.17324 v 21.259843 h 14.17322"
       id="path29163" />
    <path
       id="path29175"
       d="m 88.582684,99.212588 h 28.346466 l 3.54328,-21.259843 h 24.80316 l 3.54328,21.259843 h 24.80318 l 3.54328,-21.259843 h 24.80316 l 3.54328,21.259843 h 24.8032 l 3.54328,-21.259843 h 24.80317 l 3.54328,21.259843 h 24.80318 l 3.54328,-21.259843 h 24.80316 l 3.54328,21.259843 h 24.8032 l 3.54328,-21.259843 h 24.80316 l 3.54328,21.259843 h 24.80318 l 3.54328,-21.259843 h 24.80316 l 3.54328,21.259843 h 24.8032 l 3.54328,-21.259843 h 24.80317 l 3.54328,21.259843 h 24.80318 l 3.54328,-21.259843 h 24.80316 l 3.54328,21.259843 h 24.80322 l 3.54328,-21.259843 h 24.80316 l 3.54328,21.259843 h 24.80318 l 3.54328,-21.259843 h 24.80316 l 3.54328,21.259843 h 24.80321"
       style="fill:none;fill-rule:evenodd;stroke:#000000;stroke-width:1px;stroke-linecap:butt;stroke-linejoin:miter;stroke-opacity:1" />
    <path
       style="fill:none;fill-rule:evenodd;stroke:#000000;stroke-width:1px;stroke-linecap:butt;stroke-linejoin:miter;stroke-opacity:1"
       d="m 88.582684,77.952745 h 28.346466 l 3.54328,21.259843 h 24.80316 l 3.54328,-21.259843 h 24.80318 l 3.54328,21.259843 h 24.80316 l 3.54328,-21.259843 h 24.8032 l 3.54328,21.259843 h 24.80317 l 3.54328,-21.259843 h 24.80318 l 3.54328,21.259843 h 24.80316 l 3.54328,-21.259843 h 24.8032 l 3.54328,21.259843 h 24.80316 l 3.54328,-21.259843 h 24.80318 l 3.54328,21.259843 h 24.80316 l 3.54328,-21.259843 h 24.8032 l 3.54328,21.259843 h 24.80317 l 3.54328,-21.259843 h 24.80318 l 3.54328,21.259843 h 24.80316 l 3.54328,-21.259843 h 24.80322 l 3.54328,21.259843 h 24.80316 l 3.54328,-21.259843 h 24.80318 l 3.54328,21.259843 h 24.80316 l 3.54328,-21.259843 h 24.80321"
       id="path29177" />
    <g
       aria-label="0"
       id="text29183"
       style="line-height:0%;font-family:Iwona;-inkscape-font-specification:Iwona;text-align:center;letter-spacing:0px;word-spacing:0px;text-anchor:middle;stroke-width:1px">
      <path
         d="m 106.59717,89.631781 c 0,-4.1475 -1.2775,-6.2125 -3.8325,-6.2125 -2.555,0 -3.832504,2.065 -3.832504,6.2125 0,4.1475 1.277504,6.2125 3.832504,6.2125 2.555,0 3.8325,-2.065 3.8325,-6.2125 z m -1.54,0 c 0,3.6575 -0.77,5.4775 -2.2925,5.4775 -1.5225,0 -2.2925,-1.82 -2.2925,-5.4775 0,-3.6575 0.77,-5.4775 2.2925,-5.4775 1.5225,0 2.2925,1.82 2.2925,5.4775 z"
         style="font-size:17.5px;line-height:10"
         id="path140" />
    </g>
    <g
       aria-label="1"
       id="text29187"
       style="line-height:0%;font-family:Iwona;-inkscape-font-specification:Iwona;text-align:center;letter-spacing:0px;word-spacing:0px;text-anchor:middle;stroke-width:1px">
      <path
         d="m 132.28362,95.669281 v -12.075 h -1.015 c -0.9625,1.1025 -2.1,2.0475 -3.36,2.7825 v 0.735 c 1.0675,-0.5075 2.065,-1.1025 3.01,-1.82 v 10.3775 z"
         style="font-size:17.5px;line-height:10"
         id="path143" />
    </g>
    <g
       aria-label="2"
       id="text29191"
       style="line-height:0%;font-family:Iwona;-inkscape-font-specification:Iwona;text-align:center;letter-spacing:0px;word-spacing:0px;text-anchor:middle;stroke-width:1px">
      <path
         d="m 163.16758,95.669281 v -1.085 h -6.1775 l 3.22,-3.185 c 1.435,-1.435 2.7825,-3.115 2.7825,-5.145 0,-1.715 -1.6975,-2.835 -3.535,-2.835 -1.3825,0 -2.695,0.63 -3.5525,1.6975 v 0.735 c 0.8925,-1.0325 2.1875,-1.6275 3.5525,-1.6275 1.1725,0 2.17,0.875 2.17,2.03 0,1.7325 -0.805,3.3425 -1.995,4.585 l -3.9025,4.0075 v 0.8225 z"
         style="font-size:17.5px;line-height:10"
         id="path146" />
    </g>
    <g
       aria-label="3"
       id="text29195"
       style="line-height:0%;font-family:Iwona;-inkscape-font-specification:Iwona;text-align:center;letter-spacing:0px;word-spacing:0px;text-anchor:middle;stroke-width:1px">
      <path
         d="m 191.51404,92.344281 c 0,-1.54 -1.085,-2.87 -2.59,-3.325 1.33,-0.385 2.1525,-1.3825 2.1525,-2.7125 0,-1.7325 -1.4,-2.8875 -3.5,-2.8875 -1.1375,0 -2.24,0.385 -3.1325,1.085 v 0.735 c 0.8925,-0.7 1.995,-1.085 3.1325,-1.085 1.2775,0 2.135,0.8575 2.135,2.1525 0,2.0825 -0.9625,2.625 -3.15,2.625 v 0.6475 c 2.3625,0 3.4125,0.56 3.4125,2.765 0,1.5225 -0.98,2.765 -2.17,2.765 -1.33,0 -2.625,-0.385 -3.7275,-1.085 v 0.735 c 1.1025,0.7 2.3975,1.085 3.7275,1.085 2.03,0 3.71,-1.575 3.71,-3.5 z"
         style="font-size:17.5px;line-height:10"
         id="path149" />
    </g>
    <g
       aria-label="4"
       id="text29199"
       style="line-height:0%;font-family:Iwona;-inkscape-font-specification:Iwona;text-align:center;letter-spacing:0px;word-spacing:0px;text-anchor:middle;stroke-width:1px">
      <path
         d="m 219.86049,91.469281 v -0.805 h -1.3125 v -7.07 h -1.365 l -4.76,7.07 v 0.805 h 4.76 v 4.2 h 1.365 v -4.2 z m -2.6775,-0.805 h -3.8675 l 3.8675,-5.7575 z"
         style="font-size:17.5px;line-height:10"
         id="path152" />
    </g>
    <g
       aria-label="5"
       id="text29203"
       style="line-height:0%;font-family:Iwona;-inkscape-font-specification:Iwona;text-align:center;letter-spacing:0px;word-spacing:0px;text-anchor:middle;stroke-width:1px">
      <path
         d="m 248.20696,91.731781 c 0,-2.4675 -1.4875,-4.1125 -3.71,-4.1125 -1.015,0 -1.96,0.385 -2.695,1.0325 l 0.175,-3.9725 h 5.88 v -1.085 h -6.5625 l -0.2625,6.0375 0.735,0.035 c 0.665,-0.8225 1.6625,-1.3125 2.73,-1.3125 1.295,0 2.17,1.3475 2.17,3.3775 0,2.03 -0.875,3.3775 -2.17,3.3775 -1.3475,0 -2.66,-0.4375 -3.7275,-1.26 v 0.735 c 1.0675,0.8225 2.38,1.26 3.7275,1.26 2.2225,0 3.71,-1.645 3.71,-4.1125 z"
         style="font-size:17.5px;line-height:10"
         id="path155" />
    </g>
    <g
       aria-label="6"
       id="text29207"
       style="line-height:0%;font-family:Iwona;-inkscape-font-specification:Iwona;text-align:center;letter-spacing:0px;word-spacing:0px;text-anchor:middle;stroke-width:1px">
      <path
         d="m 276.55338,91.731781 c 0,-2.52 -0.9975,-4.1125 -3.3425,-4.1125 -1.015,0 -1.96,0.4725 -2.555,1.2775 0,-2.2925 0.5775,-4.7425 2.555,-4.7425 0.8925,0 1.7675,0.2975 2.4675,0.8575 v -0.735 c -0.7,-0.56 -1.575,-0.8575 -2.4675,-0.8575 -2.7475,0 -4.095,3.115 -4.095,6.2125 0,4.34 1.12,6.2125 3.7275,6.2125 2.2225,0 3.71,-1.645 3.71,-4.1125 z m -1.54,0 c 0,2.03 -0.875,3.3775 -2.17,3.3775 -2.45,0 -2.1875,-2.6425 -2.1875,-5.4775 0.595,-0.805 1.54,-1.2775 2.555,-1.2775 1.4,0 1.8025,1.75 1.8025,3.3775 z"
         style="font-size:17.5px;line-height:10"
         id="path158" />
    </g>
    <g
       aria-label="7"
       id="text29211"
       style="line-height:0%;font-family:Iwona;-inkscape-font-specification:Iwona;text-align:center;letter-spacing:0px;word-spacing:0px;text-anchor:middle;stroke-width:1px">
      <path
         d="m 304.89984,84.189281 v -0.595 h -7.4375 v 1.085 h 5.705 l -5.1625,10.99 h 1.505 z"
         style="font-size:17.5px;line-height:10"
         id="path161" />
    </g>
    <g
       aria-label="8"
       id="text29215"
       style="line-height:0%;font-family:Iwona;-inkscape-font-specification:Iwona;text-align:center;letter-spacing:0px;word-spacing:0px;text-anchor:middle;stroke-width:1px">
      <path
         d="m 333.24631,92.291781 c 0,-1.645 -0.7875,-2.8175 -2.135,-3.3075 1.1375,-0.42 1.785,-1.365 1.785,-2.6425 0,-1.82 -1.2775,-2.9225 -3.36,-2.9225 -2.1,0 -3.3775,1.1025 -3.3775,2.9225 0,1.2775 0.6475,2.2225 1.785,2.6425 -1.3475,0.49 -2.135,1.6625 -2.135,3.3075 0,2.205 1.4175,3.5525 3.7275,3.5525 2.2925,0 3.71,-1.3475 3.71,-3.5525 z m -1.715,-5.95 c 0,1.3475 -0.77,2.1875 -1.995,2.1875 -1.2425,0 -2.0125,-0.84 -2.0125,-2.1875 0,-1.365 0.77,-2.1875 2.0125,-2.1875 1.225,0 1.995,0.8225 1.995,2.1875 z m 0.175,5.95 c 0,1.75 -0.8225,2.8175 -2.17,2.8175 -1.365,0 -2.1875,-1.0675 -2.1875,-2.8175 0,-1.75 0.8225,-2.8175 2.1875,-2.8175 1.3475,0 2.17,1.0675 2.17,2.8175 z"
         style="font-size:17.5px;line-height:10"
         id="path164" />
    </g>
    <g
       aria-label="9"
       id="text29219"
       style="line-height:0%;font-family:Iwona;-inkscape-font-specification:Iwona;text-align:center;letter-spacing:0px;word-spacing:0px;text-anchor:middle;stroke-width:1px">
      <path
         d="m 361.59278,89.631781 c 0,-4.34 -1.12,-6.2125 -3.71,-6.2125 -2.24,0 -3.7275,1.645 -3.7275,4.1125 0,2.52 0.9975,4.1125 3.3425,4.1125 1.015,0 1.96,-0.4725 2.555,-1.2775 0,2.2925 -0.5775,4.7425 -2.555,4.7425 -0.8925,0 -1.7675,-0.2975 -2.4675,-0.8575 v 0.735 c 0.7,0.56 1.575,0.8575 2.4675,0.8575 2.7475,0 4.095,-3.115 4.095,-6.2125 z m -1.54,0 c -0.595,0.805 -1.54,1.2775 -2.555,1.2775 -1.4,0 -1.8025,-1.75 -1.8025,-3.3775 0,-2.03 0.875,-3.3775 2.1875,-3.3775 2.4325,0 2.17,2.6425 2.17,5.4775 z"
         style="font-size:17.5px;line-height:10"
         id="path167" />
    </g>
    <g
       aria-label="half"
       id="text31530"
       style="line-height:0%;font-family:Iwona;-inkscape-font-specification:Iwona;text-align:end;letter-spacing:0px;word-spacing:0px;text-anchor:end;stroke-width:1px">
      <path
         d="m 63.706057,127.55904 v -5.6875 c 0,-1.2775 -0.98,-2.3625 -2.24,-2.3625 -1.05,0 -1.9775,0.595 -2.73,1.33 v -5.53 h -1.365 v 12.25 h 1.365 v -6.1775 c 0.595,-0.595 1.33,-1.0675 2.1525,-1.0675 0.8225,0 1.4525,0.7175 1.4525,1.5575 v 5.6875 z"
         style="font-size:17.5px;line-height:10"
         id="path170" />
      <path
         d="m 72.578527,127.55904 v -4.9 c 0,-1.645 -1.015,-3.15 -2.5375,-3.15 -1.12,0 -2.17,0.385 -3.115,0.98 v 0.5425 c 0.7875,-0.4375 1.6625,-0.7175 2.5725,-0.7175 1.085,0 1.715,1.155 1.715,2.345 v 0.315 c -0.6825,-0.2975 -1.4175,-0.4725 -2.1525,-0.4725 -1.8725,0 -3.255,0.8575 -3.255,2.625 0,1.68 1.225,2.6075 2.9925,2.6075 0.8925,0 1.715,-0.4025 2.415,-0.9625 v 0.7875 z m -1.365,-1.5225 c -0.525,0.525 -1.1725,0.9625 -1.925,0.9625 -1.1725,0 -1.9425,-0.7175 -1.9425,-1.8725 0,-1.0675 0.875,-1.89 1.9425,-1.89 0.665,0 1.33,0.175 1.925,0.4725 z"
         style="font-size:17.5px;line-height:10"
         id="path172" />
      <path
         d="m 78.668511,126.94654 v -0.525 c -0.3325,0.28 -0.7175,0.5075 -1.155,0.5075 -0.6475,0 -0.77,-0.805 -0.77,-1.5575 v -10.0625 h -1.365 v 10.0625 c 0,1.1725 0.455,2.3625 1.4875,2.3625 0.665,0 1.295,-0.3325 1.8025,-0.7875 z"
         style="font-size:17.5px;line-height:10"
         id="path174" />
      <path
         d="m 83.918481,116.44654 v -0.5425 c -0.525,-0.4375 -1.155,-0.77 -1.8375,-0.77 -1.015,0 -1.4875,1.19 -1.4875,2.3625 v 2.1875 h -1.225 v 0.735 h 1.225 v 7.14 h 1.365 v -7.14 h 1.225 v -0.735 h -1.225 v -2.1875 c 0,-0.7525 0.14,-1.5575 0.7875,-1.5575 0.4375,0 0.84,0.21 1.1725,0.5075 z"
         style="font-size:17.5px;line-height:10"
         id="path176" />
    </g>
    <path
       style="fill:none;fill-rule:evenodd;stroke:#000000;stroke-width:1px;stroke-linecap:butt;stroke-linejoin:miter;stroke-opacity:1"
       d="m 88.582677,134.64566 c 1.170673,0.032 116.929153,0 116.929153,0 l 3.54328,-21.25984 h 24.80316 l 3.54328,21.25984 H 488.9764 l 3.54328,-21.25984 h 24.80317 l 3.54328,21.25984 162.99214,-2e-5"
       id="path31534" />
    <g
       aria-label="0"
       id="text217"
       style="line-height:0%;font-family:Iwona;-inkscape-font-specification:Iwona;text-align:center;letter-spacing:0px;word-spacing:0px;text-anchor:middle;stroke-width:1px">
      <path
         d="m 390.06171,89.631781 c 0,-4.1475 -1.2775,-6.2125 -3.8325,-6.2125 -2.555,0 -3.8325,2.065 -3.8325,6.2125 0,4.1475 1.2775,6.2125 3.8325,6.2125 2.555,0 3.8325,-2.065 3.8325,-6.2125 z m -1.54,0 c 0,3.6575 -0.77,5.4775 -2.2925,5.4775 -1.5225,0 -2.2925,-1.82 -2.2925,-5.4775 0,-3.6575 0.77,-5.4775 2.2925,-5.4775 1.5225,0 2.2925,1.82 2.2925,5.4775 z"
         style="font-size:17.5px;line-height:10"
         id="path179" />
    </g>
    <g
       aria-label="1"
       id="text221"
       style="line-height:0%;font-family:Iwona;-inkscape-font-specification:Iwona;text-align:center;letter-spacing:0px;word-spacing:0px;text-anchor:middle;stroke-width:1px">
      <path
         d="m 415.74818,95.669281 v -12.075 h -1.015 c -0.9625,1.1025 -2.1,2.0475 -3.36,2.7825 v 0.735 c 1.0675,-0.5075 2.065,-1.1025 3.01,-1.82 v 10.3775 z"
         style="font-size:17.5px;line-height:10"
         id="path182" />
    </g>
    <g
       aria-label="2"
       id="text225"
       style="line-height:0%;font-family:Iwona;-inkscape-font-specification:Iwona;text-align:center;letter-spacing:0px;word-spacing:0px;text-anchor:middle;stroke-width:1px">
      <path
         d="m 446.63214,95.669281 v -1.085 h -6.1775 l 3.22,-3.185 c 1.435,-1.435 2.7825,-3.115 2.7825,-5.145 0,-1.715 -1.6975,-2.835 -3.535,-2.835 -1.3825,0 -2.695,0.63 -3.5525,1.6975 v 0.735 c 0.8925,-1.0325 2.1875,-1.6275 3.5525,-1.6275 1.1725,0 2.17,0.875 2.17,2.03 0,1.7325 -0.805,3.3425 -1.995,4.585 l -3.9025,4.0075 v 0.8225 z"
         style="font-size:17.5px;line-height:10"
         id="path185" />
    </g>
    <g
       aria-label="3"
       id="text229"
       style="line-height:0%;font-family:Iwona;-inkscape-font-specification:Iwona;text-align:center;letter-spacing:0px;word-spacing:0px;text-anchor:middle;stroke-width:1px">
      <path
         d="m 474.97861,92.344281 c 0,-1.54 -1.085,-2.87 -2.59,-3.325 1.33,-0.385 2.1525,-1.3825 2.1525,-2.7125 0,-1.7325 -1.4,-2.8875 -3.5,-2.8875 -1.1375,0 -2.24,0.385 -3.1325,1.085 v 0.735 c 0.8925,-0.7 1.995,-1.085 3.1325,-1.085 1.2775,0 2.135,0.8575 2.135,2.1525 0,2.0825 -0.9625,2.625 -3.15,2.625 v 0.6475 c 2.3625,0 3.4125,0.56 3.4125,2.765 0,1.5225 -0.98,2.765 -2.17,2.765 -1.33,0 -2.625,-0.385 -3.7275,-1.085 v 0.735 c 1.1025,0.7 2.3975,1.085 3.7275,1.085 2.03,0 3.71,-1.575 3.71,-3.5 z"
         style="font-size:17.5px;line-height:10"
         id="path188" />
    </g>
    <g
       aria-label="4"
       id="text233"
       style="line-height:0%;font-family:Iwona;-inkscape-font-specification:Iwona;text-align:center;letter-spacing:0px;word-spacing:0px;text-anchor:middle;stroke-width:1px">
      <path
         d="m 503.32505,91.469281 v -0.805 h -1.3125 v -7.07 h -1.365 l -4.76,7.07 v 0.805 h 4.76 v 4.2 h 1.365 v -4.2 z m -2.6775,-0.805 h -3.8675 l 3.8675,-5.7575 z"
         style="font-size:17.5px;line-height:10"
         id="path191" />
    </g>
    <g
       aria-label="5"
       id="text237"
       style="line-height:0%;font-family:Iwona;-inkscape-font-specification:Iwona;text-align:center;letter-spacing:0px;word-spacing:0px;text-anchor:middle;stroke-width:1px">
      <path
         d="m 531.67151,91.731781 c 0,-2.4675 -1.4875,-4.1125 -3.71,-4.1125 -1.015,0 -1.96,0.385 -2.695,1.0325 l 0.175,-3.9725 h 5.88 v -1.085 h -6.5625 l -0.2625,6.0375 0.735,0.035 c 0.665,-0.8225 1.6625,-1.3125 2.73,-1.3125 1.295,0 2.17,1.3475 2.17,3.3775 0,2.03 -0.875,3.3775 -2.17,3.3775 -1.3475,0 -2.66,-0.4375 -3.7275,-1.26 v 0.735 c 1.0675,0.8225 2.38,1.26 3.7275,1.26 2.2225,0 3.71,-1.645 3.71,-4.1125 z"
         style="font-size:17.5px;line-height:10"
         id="path194" />
    </g>
    <g
       aria-label="6"
       id="text241"
       style="line-height:0%;font-family:Iwona;-inkscape-font-specification:Iwona;text-align:center;letter-spacing:0px;word-spacing:0px;text-anchor:middle;stroke-width:1px">
      <path
         d="m 560.01795,91.731781 c 0,-2.52 -0.9975,-4.1125 -3.3425,-4.1125 -1.015,0 -1.96,0.4725 -2.555,1.2775 0,-2.2925 0.5775,-4.7425 2.555,-4.7425 0.8925,0 1.7675,0.2975 2.4675,0.8575 v -0.735 c -0.7,-0.56 -1.575,-0.8575 -2.4675,-0.8575 -2.7475,0 -4.095,3.115 -4.095,6.2125 0,4.34 1.12,6.2125 3.7275,6.2125 2.2225,0 3.71,-1.645 3.71,-4.1125 z m -1.54,0 c 0,2.03 -0.875,3.3775 -2.17,3.3775 -2.45,0 -2.1875,-2.6425 -2.1875,-5.4775 0.595,-0.805 1.54,-1.2775 2.555,-1.2775 1.4,0 1.8025,1.75 1.8025,3.3775 z"
         style="font-size:17.5px;line-height:10"
         id="path197" />
    </g>
    <g
       aria-label="7"
       id="text245"
       style="line-height:0%;font-family:Iwona;-inkscape-font-specification:Iwona;text-align:center;letter-spacing:0px;word-spacing:0px;text-anchor:middle;stroke-width:1px">
      <path
         d="m 588.36438,84.189281 v -0.595 h -7.4375 v 1.085 h 5.705 l -5.1625,10.99 h 1.505 z"
         style="font-size:17.5px;line-height:10"
         id="path200" />
    </g>
    <g
       aria-label="8"
       id="text249"
       style="line-height:0%;font-family:Iwona;-inkscape-font-specification:Iwona;text-align:center;letter-spacing:0px;word-spacing:0px;text-anchor:middle;stroke-width:1px">
      <path
         d="m 616.71088,92.291781 c 0,-1.645 -0.7875,-2.8175 -2.135,-3.3075 1.1375,-0.42 1.785,-1.365 1.785,-2.6425 0,-1.82 -1.2775,-2.9225 -3.36,-2.9225 -2.1,0 -3.3775,1.1025 -3.3775,2.9225 0,1.2775 0.6475,2.2225 1.785,2.6425 -1.3475,0.49 -2.135,1.6625 -2.135,3.3075 0,2.205 1.4175,3.5525 3.7275,3.5525 2.2925,0 3.71,-1.3475 3.71,-3.5525 z m -1.715,-5.95 c 0,1.3475 -0.77,2.1875 -1.995,2.1875 -1.2425,0 -2.0125,-0.84 -2.0125,-2.1875 0,-1.365 0.77,-2.1875 2.0125,-2.1875 1.225,0 1.995,0.8225 1.995,2.1875 z m 0.175,5.95 c 0,1.75 -0.8225,2.8175 -2.17,2.8175 -1.365,0 -2.1875,-1.0675 -2.1875,-2.8175 0,-1.75 0.8225,-2.8175 2.1875,-2.8175 1.3475,0 2.17,1.0675 2.17,2.8175 z"
         style="font-size:17.5px;line-height:10"
         id="path203" />
    </g>
    <g
       aria-label="9"
       id="text253"
       style="line-height:0%;font-family:Iwona;-inkscape-font-specification:Iwona;text-align:center;letter-spacing:0px;word-spacing:0px;text-anchor:middle;stroke-width:1px">
      <path
         d="m 645.05732,89.631781 c 0,-4.34 -1.12,-6.2125 -3.71,-6.2125 -2.24,0 -3.7275,1.645 -3.7275,4.1125 0,2.52 0.9975,4.1125 3.3425,4.1125 1.015,0 1.96,-0.4725 2.555,-1.2775 0,2.2925 -0.5775,4.7425 -2.555,4.7425 -0.8925,0 -1.7675,-0.2975 -2.4675,-0.8575 v 0.735 c 0.7,0.56 1.575,0.8575 2.4675,0.8575 2.7475,0 4.095,-3.115 4.095,-6.2125 z m -1.54,0 c -0.595,0.805 -1.54,1.2775 -2.555,1.2775 -1.4,0 -1.8025,-1.75 -1.8025,-3.3775 0,-2.03 0.875,-3.3775 2.1875,-3.3775 2.4325,0 2.17,2.6425 2.17,5.4775 z"
         style="font-size:17.5px;line-height:10"
         id="path206" />
    </g>
    <g
       aria-label="0"
       id="text337"
       style="line-height:0%;font-family:Iwona;-inkscape-font-specification:Iwona;text-align:center;letter-spacing:0px;word-spacing:0px;text-anchor:middle;stroke-width:1px">
      <path
         d="m 673.52631,89.631781 c 0,-4.1475 -1.2775,-6.2125 -3.8325,-6.2125 -2.555,0 -3.8325,2.065 -3.8325,6.2125 0,4.1475 1.2775,6.2125 3.8325,6.2125 2.555,0 3.8325,-2.065 3.8325,-6.2125 z m -1.54,0 c 0,3.6575 -0.77,5.4775 -2.2925,5.4775 -1.5225,0 -2.2925,-1.82 -2.2925,-5.4775 0,-3.6575 0.77,-5.4775 2.2925,-5.4775 1.5225,0 2.2925,1.82 2.2925,5.4775 z"
         style="font-size:17.5px;line-height:10"
         id="path209" />
    </g>
    <g
       aria-label="cycle"
       id="text272"
       style="line-height:0%;font-family:Iwona;-inkscape-font-specification:Iwona;text-align:end;letter-spacing:0px;word-spacing:0px;text-anchor:end;stroke-width:1px">
      <path
         d="m 52.891092,156.9371 v -0.735 c -0.56,-0.7875 -1.47,-1.26 -2.45,-1.26 -2.1875,0 -3.6575,1.645 -3.6575,4.1125 0,2.4675 1.47,4.1125 3.6575,4.1125 0.91,0 1.7675,-0.455 2.275,-1.2075 v -0.735 c -0.595,0.8925 -1.2075,1.2075 -2.275,1.2075 -1.26,0 -2.1175,-1.3475 -2.1175,-3.3775 0,-2.03 0.8575,-3.3775 2.1175,-3.3775 1.085,0 1.82,0.385 2.45,1.26 z"
         style="font-size:17.5px;line-height:10"
         id="path212" />
      <path
         d="m 60.976073,164.0421 v -8.925 h -1.365 v 6.1775 c -0.595,0.595 -1.33,1.0675 -2.1525,1.0675 -0.8225,0 -1.4525,-0.7175 -1.4525,-1.5575 v -5.6875 h -1.365 v 5.6875 c 0,1.2775 0.98,2.3625 2.24,2.3625 1.05,0 1.9775,-0.595 2.73,-1.33 v 2.205 c 0,1.1725 -0.525,2.345 -1.575,2.345 -0.8225,0 -1.61,-0.175 -2.3625,-0.4725 v 0.5425 c 0.8925,0.455 1.89,0.735 2.905,0.735 1.4875,0 2.3975,-1.54 2.3975,-3.15 z"
         style="font-size:17.5px;line-height:10"
         id="path214" />
      <path
         d="m 69.446042,156.9371 v -0.735 c -0.56,-0.7875 -1.47,-1.26 -2.45,-1.26 -2.1875,0 -3.6575,1.645 -3.6575,4.1125 0,2.4675 1.47,4.1125 3.6575,4.1125 0.91,0 1.7675,-0.455 2.275,-1.2075 v -0.735 c -0.595,0.8925 -1.2075,1.2075 -2.275,1.2075 -1.26,0 -2.1175,-1.3475 -2.1175,-3.3775 0,-2.03 0.8575,-3.3775 2.1175,-3.3775 1.085,0 1.82,0.385 2.45,1.26 z"
         style="font-size:17.5px;line-height:10"
         id="path216" />
      <path
         d="m 74.573525,162.3796 v -0.525 c -0.3325,0.28 -0.7175,0.5075 -1.155,0.5075 -0.6475,0 -0.77,-0.805 -0.77,-1.5575 v -10.0625 h -1.365 v 10.0625 c 0,1.1725 0.455,2.3625 1.4875,2.3625 0.665,0 1.295,-0.3325 1.8025,-0.7875 z"
         style="font-size:17.5px;line-height:10"
         id="path218" />
      <path
         d="m 82.658493,159.2296 v -0.175 c 0,-2.4675 -1.3475,-4.1125 -3.3775,-4.1125 -2.0475,0 -3.395,1.645 -3.395,4.1125 0,2.4675 1.3475,4.1125 3.395,4.1125 0.875,0 1.7325,-0.28 2.45,-0.7875 v -0.735 c -0.8225,0.525 -1.4875,0.7175 -2.45,0.7175 -1.4875,0 -1.855,-1.4175 -1.855,-3.1325 z m -1.54,-0.735 h -3.6925 c 0,-1.4 0.595,-2.8175 1.855,-2.8175 1.2425,0 1.8375,1.4175 1.8375,2.8175 z"
         style="font-size:17.5px;line-height:10"
         id="path220" />
    </g>
    <path
       id="path274"
       d="m 88.582677,170.07871 c 1.170673,0.032 258.661413,-2e-5 258.661443,0 l 3.54328,-21.25984 h 24.80316 l 3.54328,21.25984 c 0,0 251.57481,-2e-5 251.57485,0 l 3.54328,-21.25984 h 24.80317 l 3.54328,21.25984 21.25985,-2e-5"
       style="fill:none;fill-rule:evenodd;stroke:#000000;stroke-width:1px;stroke-linecap:butt;stroke-linejoin:miter;stroke-opacity:1" />
    <g
       aria-label="clk_div10_reg"
       id="text278"
       style="line-height:0%;font-family:Iwona;-inkscape-font-specification:Iwona;text-align:end;letter-spacing:0px;word-spacing:0px;text-anchor:end;stroke-width:1px">
      <path
         d="m -11.2288,192.37017 v -0.735 c -0.56,-0.7875 -1.47,-1.26 -2.45,-1.26 -2.1875,0 -3.6575,1.645 -3.6575,4.1125 0,2.4675 1.47,4.1125 3.6575,4.1125 0.91,0 1.7675,-0.455 2.275,-1.2075 v -0.735 c -0.595,0.8925 -1.2075,1.2075 -2.275,1.2075 -1.26,0 -2.1175,-1.3475 -2.1175,-3.3775 0,-2.03 0.8575,-3.3775 2.1175,-3.3775 1.085,0 1.82,0.385 2.45,1.26 z"
         style="font-size:17.5px;line-height:10"
         id="path223" />
      <path
         d="m -6.1013189,197.81267 v -0.525 c -0.3325,0.28 -0.7175,0.5075 -1.155,0.5075 -0.6475,0 -0.77,-0.805 -0.77,-1.5575 v -10.0625 h -1.365 v 10.0625 c 0,1.1725 0.455,2.3625 1.4875,2.3625 0.665,0 1.295,-0.3325 1.8025,-0.7875 z"
         style="font-size:17.5px;line-height:10"
         id="path225" />
      <path
         d="m 2.4211496,198.42517 -4.06,-4.6725 3.92,-3.2025 h -1.085 l -4.1825,3.43 v -7.805 h -1.365 v 12.25 h 1.365 v -4.3575 l 3.78,4.3575 z"
         style="font-size:17.5px;line-height:10"
         id="path227" />
      <path
         d="m 11.346137,200.43767 v -0.875 h -8.75 v 0.875 z"
         style="font-size:17.5px;line-height:10"
         id="path229" />
      <path
         d="m 19.081105,198.42517 v -12.25 h -1.365 v 4.6725 c -0.6825,-0.2975 -1.4175,-0.4725 -2.1525,-0.4725 -2.1875,0 -3.255,1.75 -3.255,4.1125 0,2.3275 0.875,4.1125 2.9925,4.1125 0.8925,0 1.715,-0.4025 2.415,-0.9625 v 0.7875 z m -1.365,-1.5225 c -0.525,0.525 -1.1725,0.9625 -1.925,0.9625 -1.5925,0 -1.9425,-1.54 -1.9425,-3.3775 0,-1.645 0.5075,-3.3775 1.9425,-3.3775 0.665,0 1.33,0.175 1.925,0.4725 z"
         style="font-size:17.5px;line-height:10"
         id="path231" />
      <path
         d="m 25.083591,197.81267 v -0.525 c -0.3325,0.28 -0.7175,0.5075 -1.155,0.5075 -0.6475,0 -0.77,-0.805 -0.77,-1.5575 v -5.6875 h -1.365 v 5.6875 c 0,1.1725 0.455,2.3625 1.4875,2.3625 0.665,0 1.295,-0.3325 1.8025,-0.7875 z m -1.75,-9.9925 c 0,-0.4725 -0.385,-0.8575 -0.8575,-0.8575 -0.4725,0 -0.8575,0.385 -0.8575,0.8575 0,0.4725 0.385,0.8575 0.8575,0.8575 0.4725,0 0.8575,-0.385 0.8575,-0.8575 z"
         style="font-size:17.5px;line-height:10"
         id="path233" />
      <path
         d="m 32.381076,190.55017 h -0.7875 l -2.38,6.545 -2.31,-6.545 h -1.295 l 2.765,7.875 h 1.1375 z"
         style="font-size:17.5px;line-height:10"
         id="path235" />
      <path
         d="m 38.331069,198.42517 v -12.075 h -1.015 c -0.9625,1.1025 -2.1,2.0475 -3.36,2.7825 v 0.735 c 1.0675,-0.5075 2.065,-1.1025 3.01,-1.82 v 10.3775 z"
         style="font-size:17.5px;line-height:10"
         id="path237" />
      <path
         d="m 50.178562,192.38767 c 0,-4.1475 -1.2775,-6.2125 -3.8325,-6.2125 -2.555,0 -3.8325,2.065 -3.8325,6.2125 0,4.1475 1.2775,6.2125 3.8325,6.2125 2.555,0 3.8325,-2.065 3.8325,-6.2125 z m -1.54,0 c 0,3.6575 -0.77,5.4775 -2.2925,5.4775 -1.5225,0 -2.2925,-1.82 -2.2925,-5.4775 0,-3.6575 0.77,-5.4775 2.2925,-5.4775 1.5225,0 2.2925,1.82 2.2925,5.4775 z"
         style="font-size:17.5px;line-height:10"
         id="path239" />
      <path
         d="m 59.681058,200.43767 v -0.875 h -8.75 v 0.875 z"
         style="font-size:17.5px;line-height:10"
         id="path241" />
      <path
         d="m 65.43852,191.63517 v -1.085 c -0.1925,-0.07 -0.4025,-0.1225 -0.595,-0.1225 -0.98,0 -1.7675,0.6825 -2.3975,1.435 v -1.3125 h -1.365 v 7.875 h 1.365 v -5.8275 c 0.525,-0.6125 1.19,-1.1375 1.995,-1.1375 0.3325,0 0.6825,0.07 0.9975,0.175 z"
         style="font-size:17.5px;line-height:10"
         id="path243" />
      <path
         d="m 73.523503,194.66267 v -0.175 c 0,-2.4675 -1.3475,-4.1125 -3.3775,-4.1125 -2.0475,0 -3.395,1.645 -3.395,4.1125 0,2.4675 1.3475,4.1125 3.395,4.1125 0.875,0 1.7325,-0.28 2.45,-0.7875 v -0.735 c -0.8225,0.525 -1.4875,0.7175 -2.45,0.7175 -1.4875,0 -1.855,-1.4175 -1.855,-3.1325 z m -1.54,-0.735 h -3.6925 c 0,-1.4 0.595,-2.8175 1.855,-2.8175 1.2425,0 1.8375,1.4175 1.8375,2.8175 z"
         style="font-size:17.5px;line-height:10"
         id="path245" />
      <path
         d="m 82.13348,199.47517 v -8.925 h -1.365 v 0.2975 c -0.6825,-0.2975 -1.4175,-0.4725 -2.1525,-0.4725 -2.1875,0 -3.255,1.75 -3.255,4.1125 0,2.3275 0.875,4.1125 2.9925,4.1125 0.8925,0 1.715,-0.4025 2.415,-0.9625 v 1.8375 c 0,1.2075 -0.665,2.345 -1.75,2.345 -0.8925,0 -1.785,-0.175 -2.625,-0.4725 v 0.5425 c 0.98,0.455 2.065,0.735 3.15,0.735 1.54,0 2.59,-1.505 2.59,-3.15 z m -1.365,-2.5725 c -0.525,0.525 -1.1725,0.9625 -1.925,0.9625 -1.5925,0 -1.9425,-1.54 -1.9425,-3.3775 0,-1.645 0.5075,-3.3775 1.9425,-3.3775 0.665,0 1.33,0.175 1.925,0.4725 z"
         style="font-size:17.5px;line-height:10"
         id="path247" />
    </g>
    <path
       style="fill:none;fill-rule:evenodd;stroke:#000000;stroke-width:1px;stroke-linecap:butt;stroke-linejoin:miter;stroke-opacity:1"
       d="m 88.582677,205.51178 c 1.170673,0.032 141.732313,0 141.732313,0 l 3.54328,-21.25984 h 138.18898 l 3.54328,21.25984 h 138.189 l 3.54328,-21.25984 h 138.18903 l 3.54328,21.25984 24.80315,-2e-5"
       id="path280" />
  </g>
</svg>
