<?xml version="1.0" encoding="UTF-8" standalone="no"?>
<!-- Created with Inkscape (http://www.inkscape.org/) -->

<svg
   width="87.247421mm"
   height="38.104462mm"
   viewBox="0 0 309.14444 135.01582"
   id="svg2"
   version="1.1"
   xmlns="http://www.w3.org/2000/svg"
   xmlns:svg="http://www.w3.org/2000/svg"
   xmlns:rdf="http://www.w3.org/1999/02/22-rdf-syntax-ns#"
   xmlns:cc="http://creativecommons.org/ns#"
   xmlns:dc="http://purl.org/dc/elements/1.1/">
  <defs
     id="defs4">
    <marker
       orient="auto"
       refY="0"
       refX="0"
       id="marker9002"
       style="overflow:visible">
      <path
         id="path9004"
         d="m -2.5,-1 c 0,2.76 -2.24,5 -5,5 -2.76,0 -5,-2.24 -5,-5 0,-2.76 2.24,-5 5,-5 2.76,0 5,2.24 5,5 z"
         style="fill:#000000;fill-opacity:1;fill-rule:evenodd;stroke:#000000;stroke-width:1.00000003pt;stroke-opacity:1"
         transform="matrix(0.4,0,0,0.4,2.96,0.4)" />
    </marker>
    <marker
       orient="auto"
       refY="0"
       refX="0"
       id="marker8962"
       style="overflow:visible">
      <path
         id="path8964"
         d="m -2.5,-1 c 0,2.76 -2.24,5 -5,5 -2.76,0 -5,-2.24 -5,-5 0,-2.76 2.24,-5 5,-5 2.76,0 5,2.24 5,5 z"
         style="fill:#000000;fill-opacity:1;fill-rule:evenodd;stroke:#000000;stroke-width:1.00000003pt;stroke-opacity:1"
         transform="matrix(0.4,0,0,0.4,2.96,0.4)" />
    </marker>
    <marker
       orient="auto"
       refY="0"
       refX="0"
       id="DotM"
       style="overflow:visible">
      <path
         id="path8643"
         d="m -2.5,-1 c 0,2.76 -2.24,5 -5,5 -2.76,0 -5,-2.24 -5,-5 0,-2.76 2.24,-5 5,-5 2.76,0 5,2.24 5,5 z"
         style="fill:#000000;fill-opacity:1;fill-rule:evenodd;stroke:#000000;stroke-width:1.00000003pt;stroke-opacity:1"
         transform="matrix(0.4,0,0,0.4,2.96,0.4)" />
    </marker>
    <marker
       orient="auto"
       refY="0"
       refX="0"
       id="Arrow1Mend-3"
       style="overflow:visible">
      <path
         id="path17924-5"
         d="M 0,0 5,-5 -12.5,0 5,5 Z"
         style="fill-rule:evenodd;stroke:#000000;stroke-width:1.00000003pt;marker-start:none"
         transform="matrix(-0.4,0,0,-0.4,-4,0)" />
    </marker>
    <marker
       orient="auto"
       refY="0"
       refX="0"
       id="Arrow1Mend-3-52-0"
       style="overflow:visible">
      <path
         id="path17924-5-0-6"
         d="M 0,0 5,-5 -12.5,0 5,5 Z"
         style="fill-rule:evenodd;stroke:#000000;stroke-width:1.00000003pt;marker-start:none"
         transform="matrix(-0.4,0,0,-0.4,-4,0)" />
    </marker>
    <marker
       orient="auto"
       refY="0"
       refX="0"
       id="Arrow1Mend-3-52-0-8"
       style="overflow:visible">
      <path
         id="path17924-5-0-6-4"
         d="M 0,0 5,-5 -12.5,0 5,5 Z"
         style="fill-rule:evenodd;stroke:#000000;stroke-width:1.00000003pt;marker-start:none"
         transform="matrix(-0.4,0,0,-0.4,-4,0)" />
    </marker>
  </defs>
  <metadata
     id="metadata7">
    <rdf:RDF>
      <cc:Work
         rdf:about="">
        <dc:format>image/svg+xml</dc:format>
        <dc:type
           rdf:resource="http://purl.org/dc/dcmitype/StillImage" />
        <dc:title />
      </cc:Work>
    </rdf:RDF>
  </metadata>
  <g
     id="layer1"
     transform="translate(-13.140928,-152.49215)">
    <g
       transform="translate(-67.32278,20.759723)"
       id="layer1-7">
      <g
         transform="translate(-3.5433568,0.50015174)"
         id="g3342">
        <path
           style="fill:none;stroke:#000000;stroke-width:1px;stroke-linecap:butt;stroke-linejoin:miter;stroke-opacity:1;marker-end:url(#Arrow1Mend-3)"
           d="m 216.14173,159.44882 24.80314,-1e-5"
           id="path52636" />
        <path
           style="fill:#ffeeaa;fill-rule:evenodd;stroke:#000000;stroke-width:1px;stroke-linecap:butt;stroke-linejoin:miter;stroke-opacity:1"
           d="m 194.88193,145.27559 v 28.3466 h 3.515 c 7.1149,-1e-4 17.7448,-3.5435 17.7167,-14.1733 -0.028,-10.63 -10.6018,-14.1733 -17.7167,-14.1733 z"
           id="path56366" />
        <path
           id="path6106"
           d="m 131.10235,152.3622 h 63.77953"
           style="fill:none;stroke:#000000;stroke-width:1px;stroke-linecap:butt;stroke-linejoin:miter;stroke-opacity:1;marker-end:url(#Arrow1Mend-3)" />
        <path
           style="fill:none;stroke:#000000;stroke-width:1;stroke-linecap:butt;stroke-linejoin:miter;stroke-miterlimit:4;stroke-dasharray:none;stroke-opacity:1;marker-start:url(#DotM);marker-end:url(#Arrow1Mend-3)"
           d="m 159.44881,194.88181 v -28.34638 h 35.43307"
           id="path3455" />
      </g>
    </g>
    <g
       id="g3921"
       transform="translate(28.346449,56.192865)">
      <path
         id="path3923"
         d="m 191.33858,152.86224 c 7.0866,8.5039 7.0866,19.8426 0,28.3465 7.0866,0 21.2598,0 28.3464,-14.1733 -7.0866,-14.1732 -21.2598,-14.1732 -28.3464,-14.1732 z"
         style="fill:#ffeeaa;fill-rule:evenodd;stroke:#000000;stroke-width:1px;stroke-linecap:butt;stroke-linejoin:miter;stroke-opacity:1" />
      <path
         style="fill:none;stroke:#000000;stroke-width:1px;stroke-linecap:butt;stroke-linejoin:miter;stroke-opacity:1;marker-end:url(#Arrow1Mend-3-52-0)"
         d="m 219.68499,167.03548 21.25984,-1e-5"
         id="path3925" />
    </g>
    <g
       aria-label="m_o"
       id="text4018"
       style="line-height:0%;font-family:Iwona;-inkscape-font-specification:Iwona;letter-spacing:0px;word-spacing:0px;stroke-width:1px">
      <path
         d="m 299.94118,226.77161 v -4.875 c 0,-1.05 -0.615,-2.025 -1.59,-2.025 -0.84,0 -1.62,0.435 -2.07,1.14 -0.24,-0.66 -0.75,-1.14 -1.44,-1.14 -0.78,0 -1.41,0.54 -1.92,1.14 v -0.99 h -1.17 v 6.75 h 1.17 v -5.31 c 0.36,-0.465 0.81,-0.9 1.395,-0.9 0.615,0 0.945,0.66 0.945,1.335 v 4.875 h 1.17 v -4.875 c 0,-0.18 -0.015,-0.345 -0.045,-0.525 0.36,-0.465 0.855,-0.81 1.44,-0.81 0.615,0 0.945,0.66 0.945,1.335 v 4.875 z"
         style="font-size:15px;line-height:1.25"
         id="path68" />
      <path
         d="m 308.56615,228.49661 v -0.75 h -7.5 v 0.75 z"
         style="font-size:15px;line-height:1.25"
         id="path70" />
      <path
         d="m 315.19612,223.39661 c 0,-2.295 -1.02,-3.525 -2.895,-3.525 -1.89,0 -2.91,1.23 -2.91,3.525 0,2.295 1.02,3.525 2.91,3.525 1.875,0 2.895,-1.23 2.895,-3.525 z m -1.32,0 c 0,1.875 -0.555,2.895 -1.575,2.895 -1.035,0 -1.59,-1.02 -1.59,-2.895 0,-1.875 0.555,-2.895 1.59,-2.895 1.02,0 1.575,1.02 1.575,2.895 z"
         style="font-size:15px;line-height:1.25"
         id="path72" />
    </g>
    <g
       aria-label="ab"
       id="text4028"
       style="line-height:0%;font-family:Iwona;-inkscape-font-specification:Iwona;text-align:center;letter-spacing:0px;word-spacing:0px;text-anchor:middle;stroke-width:1px">
      <path
         d="m 175.89037,170.07877 v -4.2 c 0,-1.41 -0.87,-2.7 -2.175,-2.7 -0.96,0 -1.86,0.33 -2.67,0.84 v 0.465 c 0.675,-0.375 1.425,-0.615 2.205,-0.615 0.93,0 1.47,0.99 1.47,2.01 v 0.27 c -0.585,-0.255 -1.215,-0.405 -1.845,-0.405 -1.605,0 -2.79,0.735 -2.79,2.25 0,1.44 1.05,2.235 2.565,2.235 0.765,0 1.47,-0.345 2.07,-0.825 v 0.675 z m -1.17,-1.305 c -0.45,0.45 -1.005,0.825 -1.65,0.825 -1.005,0 -1.665,-0.615 -1.665,-1.605 0,-0.915 0.75,-1.62 1.665,-1.62 0.57,0 1.14,0.15 1.65,0.405 z"
         style="font-size:15px;line-height:1.25"
         id="path75" />
      <path
         d="m 184.09536,166.70377 c 0,-1.995 -0.75,-3.525 -2.565,-3.525 -0.765,0 -1.47,0.345 -2.07,0.825 v -4.425 h -1.17 v 10.5 h 1.17 v -0.345 c 0.57,0.3 1.2,0.495 1.845,0.495 1.875,0 2.79,-1.5 2.79,-3.525 z m -1.32,0 c 0,1.41 -0.435,2.895 -1.665,2.895 -0.585,0 -1.155,-0.195 -1.65,-0.495 v -4.47 c 0.45,-0.45 1.005,-0.825 1.65,-0.825 1.365,0 1.665,1.32 1.665,2.895 z"
         style="font-size:15px;line-height:1.25"
         id="path77" />
    </g>
    <g
       id="g7748"
       transform="translate(-3.5433051,-10.629919)">
      <g
         aria-label="a_i"
         id="text4014"
         style="line-height:0%;font-family:Iwona;-inkscape-font-specification:Iwona;text-align:end;letter-spacing:0px;word-spacing:0px;text-anchor:end;stroke-width:1px">
        <path
           d="m 29.574732,187.7953 v -4.2 c 0,-1.41 -0.87,-2.7 -2.175,-2.7 -0.96,0 -1.86,0.33 -2.67,0.84 v 0.465 c 0.675,-0.375 1.425,-0.615 2.205,-0.615 0.93,0 1.47,0.99 1.47,2.01 v 0.27 c -0.585,-0.255 -1.215,-0.405 -1.845,-0.405 -1.605,0 -2.79,0.735 -2.79,2.25 0,1.44 1.05,2.235 2.565,2.235 0.765,0 1.47,-0.345 2.07,-0.825 v 0.675 z m -1.17,-1.305 c -0.45,0.45 -1.005,0.825 -1.65,0.825 -1.005,0 -1.665,-0.615 -1.665,-1.605 0,-0.915 0.75,-1.62 1.665,-1.62 0.57,0 1.14,0.15 1.65,0.405 z"
           style="font-size:15px;line-height:1.25"
           id="path80" />
        <path
           d="m 38.274719,189.5203 v -0.75 h -7.5 v 0.75 z"
           style="font-size:15px;line-height:1.25"
           id="path82" />
        <path
           d="m 42.219691,187.2703 v -0.45 c -0.285,0.24 -0.615,0.435 -0.99,0.435 -0.555,0 -0.66,-0.69 -0.66,-1.335 v -4.875 h -1.17 v 4.875 c 0,1.005 0.39,2.025 1.275,2.025 0.57,0 1.11,-0.285 1.545,-0.675 z m -1.5,-8.565 c 0,-0.405 -0.33,-0.735 -0.735,-0.735 -0.405,0 -0.735,0.33 -0.735,0.735 0,0.405 0.33,0.735 0.735,0.735 0.405,0 0.735,-0.33 0.735,-0.735 z"
           style="font-size:15px;line-height:1.25"
           id="path84" />
      </g>
      <path
         id="path3179"
         d="m 46.062983,177.16538 v 14.17324 h 10.62992 l 7.08662,-7.08663 -7.08662,-7.08661 z"
         style="fill:#afdde9;fill-opacity:1;fill-rule:evenodd;stroke:#000000;stroke-width:1px;stroke-linecap:butt;stroke-linejoin:miter;stroke-opacity:1" />
    </g>
    <g
       id="g7753"
       transform="translate(-3.5433051,7.0865408)">
      <g
         aria-label="b_i"
         id="text4022"
         style="line-height:0%;font-family:Iwona;-inkscape-font-specification:Iwona;text-align:end;letter-spacing:0px;word-spacing:0px;text-anchor:end;stroke-width:1px">
        <path
           d="m 29.949729,209.22345 c 0,-1.995 -0.75,-3.525 -2.565,-3.525 -0.765,0 -1.47,0.345 -2.07,0.825 v -4.425 h -1.17 v 10.5 h 1.17 v -0.345 c 0.57,0.3 1.2,0.495 1.845,0.495 1.875,0 2.79,-1.5 2.79,-3.525 z m -1.32,0 c 0,1.41 -0.435,2.895 -1.665,2.895 -0.585,0 -1.155,-0.195 -1.65,-0.495 v -4.47 c 0.45,-0.45 1.005,-0.825 1.65,-0.825 1.365,0 1.665,1.32 1.665,2.895 z"
           style="font-size:15px;line-height:1.25"
           id="path87" />
        <path
           d="m 38.274719,214.32345 v -0.75 h -7.5 v 0.75 z"
           style="font-size:15px;line-height:1.25"
           id="path89" />
        <path
           d="m 42.219691,212.07345 v -0.45 c -0.285,0.24 -0.615,0.435 -0.99,0.435 -0.555,0 -0.66,-0.69 -0.66,-1.335 v -4.875 h -1.17 v 4.875 c 0,1.005 0.39,2.025 1.275,2.025 0.57,0 1.11,-0.285 1.545,-0.675 z m -1.5,-8.565 c 0,-0.405 -0.33,-0.735 -0.735,-0.735 -0.405,0 -0.735,0.33 -0.735,0.735 0,0.405 0.33,0.735 0.735,0.735 0.405,0 0.735,-0.33 0.735,-0.735 z"
           style="font-size:15px;line-height:1.25"
           id="path91" />
      </g>
      <path
         style="fill:#afdde9;fill-opacity:1;fill-rule:evenodd;stroke:#000000;stroke-width:1px;stroke-linecap:butt;stroke-linejoin:miter;stroke-opacity:1"
         d="m 46.062983,201.96853 v 14.17324 h 10.62992 l 7.08662,-7.08663 -7.08662,-7.08661 z"
         id="path7716" />
    </g>
    <g
       id="g7758"
       transform="translate(-3.5433069,38.976307)">
      <path
         id="path7718"
         d="m 46.062983,226.77168 v 14.17324 h 10.62992 l 7.08662,-7.08663 -7.08662,-7.08661 z"
         style="fill:#afdde9;fill-opacity:1;fill-rule:evenodd;stroke:#000000;stroke-width:1px;stroke-linecap:butt;stroke-linejoin:miter;stroke-opacity:1" />
      <g
         aria-label="c_i"
         id="text7720"
         style="line-height:0%;font-family:Iwona;-inkscape-font-specification:Iwona;text-align:end;letter-spacing:0px;word-spacing:0px;text-anchor:end;stroke-width:1px">
        <path
           d="m 30.399735,232.21161 v -0.63 c -0.48,-0.675 -1.26,-1.08 -2.1,-1.08 -1.875,0 -3.135,1.41 -3.135,3.525 0,2.115 1.26,3.525 3.135,3.525 0.78,0 1.515,-0.39 1.95,-1.035 v -0.63 c -0.51,0.765 -1.035,1.035 -1.95,1.035 -1.08,0 -1.815,-1.155 -1.815,-2.895 0,-1.74 0.735,-2.895 1.815,-2.895 0.93,0 1.56,0.33 2.1,1.08 z"
           style="font-size:15px;line-height:1.25"
           id="path94" />
        <path
           d="m 38.274719,239.12661 v -0.75 h -7.5 v 0.75 z"
           style="font-size:15px;line-height:1.25"
           id="path96" />
        <path
           d="m 42.219691,236.87661 v -0.45 c -0.285,0.24 -0.615,0.435 -0.99,0.435 -0.555,0 -0.66,-0.69 -0.66,-1.335 v -4.875 h -1.17 v 4.875 c 0,1.005 0.39,2.025 1.275,2.025 0.57,0 1.11,-0.285 1.545,-0.675 z m -1.5,-8.565 c 0,-0.405 -0.33,-0.735 -0.735,-0.735 -0.405,0 -0.735,0.33 -0.735,0.735 0,0.405 0.33,0.735 0.735,0.735 0.405,0 0.735,-0.33 0.735,-0.735 z"
           style="font-size:15px;line-height:1.25"
           id="path98" />
      </g>
    </g>
    <g
       id="g7724"
       transform="translate(-67.32278,105.79902)">
      <g
         id="g7726"
         transform="translate(-3.5433568,0.50015174)">
        <path
           id="path7728"
           d="m 216.14173,159.44882 24.80314,-1e-5"
           style="fill:none;stroke:#000000;stroke-width:1px;stroke-linecap:butt;stroke-linejoin:miter;stroke-opacity:1;marker-end:url(#Arrow1Mend-3)" />
        <path
           id="path7730"
           d="m 194.88193,145.27559 v 28.3466 h 3.515 c 7.1149,-1e-4 17.7448,-3.5435 17.7167,-14.1733 -0.028,-10.63 -10.6018,-14.1733 -17.7167,-14.1733 z"
           style="fill:#ffeeaa;fill-rule:evenodd;stroke:#000000;stroke-width:1px;stroke-linecap:butt;stroke-linejoin:miter;stroke-opacity:1" />
        <path
           style="fill:none;stroke:#000000;stroke-width:1px;stroke-linecap:butt;stroke-linejoin:miter;stroke-opacity:1;marker-start:url(#marker9002);marker-end:url(#Arrow1Mend-3)"
           d="M 141.73227,67.322827 V 152.3622 h 53.14961"
           id="path7732" />
        <path
           id="path7734"
           d="m 131.10235,166.53543 h 63.77953"
           style="fill:none;stroke:#000000;stroke-width:1px;stroke-linecap:butt;stroke-linejoin:miter;stroke-opacity:1;marker-end:url(#Arrow1Mend-3)" />
      </g>
    </g>
    <g
       id="g7736"
       transform="translate(-67.32278,63.279333)">
      <g
         id="g7738"
         transform="translate(-3.5433568,0.50015174)">
        <path
           id="path7740"
           d="m 216.14173,159.44882 24.80314,-1e-5"
           style="fill:none;stroke:#000000;stroke-width:1px;stroke-linecap:butt;stroke-linejoin:miter;stroke-opacity:1;marker-end:url(#Arrow1Mend-3)" />
        <path
           id="path7742"
           d="m 194.88193,145.27559 v 28.3466 h 3.515 c 7.1149,-1e-4 17.7448,-3.5435 17.7167,-14.1733 -0.028,-10.63 -10.6018,-14.1733 -17.7167,-14.1733 z"
           style="fill:#ffeeaa;fill-rule:evenodd;stroke:#000000;stroke-width:1px;stroke-linecap:butt;stroke-linejoin:miter;stroke-opacity:1" />
        <path
           style="fill:none;stroke:#000000;stroke-width:1px;stroke-linecap:butt;stroke-linejoin:miter;stroke-opacity:1;marker-end:url(#Arrow1Mend-3)"
           d="m 131.10235,152.3622 h 63.77953"
           id="path7744" />
        <path
           id="path7746"
           d="m 159.44881,209.05512 v -42.51969 h 35.43307"
           style="fill:none;stroke:#000000;stroke-width:1px;stroke-linecap:butt;stroke-linejoin:miter;stroke-opacity:1;marker-start:url(#marker8962);marker-end:url(#Arrow1Mend-3)" />
      </g>
    </g>
    <path
       style="fill:#afdde9;fill-opacity:1;fill-rule:evenodd;stroke:#000000;stroke-width:1px;stroke-linecap:butt;stroke-linejoin:miter;stroke-opacity:1"
       d="m 269.29133,216.14169 v 14.17324 h 10.62993 l 7.08662,-7.08663 -7.08662,-7.08661 z"
       id="path3179-8" />
    <path
       id="path8879"
       d="m 170.07874,173.62208 v 14.17323 h 14.17324 v -14.17323 z"
       style="fill:#afdde9;fill-opacity:1;fill-rule:evenodd;stroke:#000000;stroke-width:1px;stroke-linecap:butt;stroke-linejoin:miter;stroke-opacity:1" />
    <path
       style="fill:#afdde9;fill-opacity:1;fill-rule:evenodd;stroke:#000000;stroke-width:1px;stroke-linecap:butt;stroke-linejoin:miter;stroke-opacity:1"
       d="m 170.07874,216.14169 v 14.17323 h 14.17324 v -14.17323 z"
       id="path8950" />
    <path
       id="path8952"
       d="m 170.07873,258.66137 v 14.17323 h 14.17324 v -14.17323 z"
       style="fill:#afdde9;fill-opacity:1;fill-rule:evenodd;stroke:#000000;stroke-width:1px;stroke-linecap:butt;stroke-linejoin:miter;stroke-opacity:1" />
    <g
       aria-label="bc"
       id="text8954"
       style="line-height:0%;font-family:Iwona;-inkscape-font-specification:Iwona;text-align:center;letter-spacing:0px;word-spacing:0px;text-anchor:middle;stroke-width:1px">
      <path
         d="m 177.03787,209.22339 c 0,-1.995 -0.75,-3.525 -2.565,-3.525 -0.765,0 -1.47,0.345 -2.07,0.825 v -4.425 h -1.17 v 10.5 h 1.17 v -0.345 c 0.57,0.3 1.2,0.495 1.845,0.495 1.875,0 2.79,-1.5 2.79,-3.525 z m -1.32,0 c 0,1.41 -0.435,2.895 -1.665,2.895 -0.585,0 -1.155,-0.195 -1.65,-0.495 v -4.47 c 0.45,-0.45 1.005,-0.825 1.65,-0.825 1.365,0 1.665,1.32 1.665,2.895 z"
         style="font-size:15px;line-height:1.25"
         id="path101" />
      <path
         d="m 183.92286,207.40839 v -0.63 c -0.48,-0.675 -1.26,-1.08 -2.1,-1.08 -1.875,0 -3.135,1.41 -3.135,3.525 0,2.115 1.26,3.525 3.135,3.525 0.78,0 1.515,-0.39 1.95,-1.035 v -0.63 c -0.51,0.765 -1.035,1.035 -1.95,1.035 -1.08,0 -1.815,-1.155 -1.815,-2.895 0,-1.74 0.735,-2.895 1.815,-2.895 0.93,0 1.56,0.33 2.1,1.08 z"
         style="font-size:15px;line-height:1.25"
         id="path103" />
    </g>
    <g
       aria-label="ac"
       id="text8958"
       style="line-height:0%;font-family:Iwona;-inkscape-font-specification:Iwona;text-align:center;letter-spacing:0px;word-spacing:0px;text-anchor:middle;stroke-width:1px">
      <path
         d="m 176.58787,255.11806 v -4.2 c 0,-1.41 -0.87,-2.7 -2.175,-2.7 -0.96,0 -1.86,0.33 -2.67,0.84 v 0.465 c 0.675,-0.375 1.425,-0.615 2.205,-0.615 0.93,0 1.47,0.99 1.47,2.01 v 0.27 c -0.585,-0.255 -1.215,-0.405 -1.845,-0.405 -1.605,0 -2.79,0.735 -2.79,2.25 0,1.44 1.05,2.235 2.565,2.235 0.765,0 1.47,-0.345 2.07,-0.825 v 0.675 z m -1.17,-1.305 c -0.45,0.45 -1.005,0.825 -1.65,0.825 -1.005,0 -1.665,-0.615 -1.665,-1.605 0,-0.915 0.75,-1.62 1.665,-1.62 0.57,0 1.14,0.15 1.65,0.405 z"
         style="font-size:15px;line-height:1.25"
         id="path106" />
      <path
         d="m 183.84786,249.92806 v -0.63 c -0.48,-0.675 -1.26,-1.08 -2.1,-1.08 -1.875,0 -3.135,1.41 -3.135,3.525 0,2.115 1.26,3.525 3.135,3.525 0.78,0 1.515,-0.39 1.95,-1.035 v -0.63 c -0.51,0.765 -1.035,1.035 -1.95,1.035 -1.08,0 -1.815,-1.155 -1.815,-2.895 0,-1.74 0.735,-2.895 1.815,-2.895 0.93,0 1.56,0.33 2.1,1.08 z"
         style="font-size:15px;line-height:1.25"
         id="path108" />
    </g>
    <path
       style="fill:none;stroke:#000000;stroke-width:1px;stroke-linecap:butt;stroke-linejoin:miter;stroke-opacity:1;marker-end:url(#Arrow1Mend-3-52-0-8)"
       d="m 184.25196,180.70862 17.71653,-1e-5 v 35.43308 h 21.25985"
       id="path3925-3" />
    <path
       id="path9117"
       d="m 184.25196,223.22824 38.97638,-1e-5"
       style="fill:none;stroke:#000000;stroke-width:1px;stroke-linecap:butt;stroke-linejoin:miter;stroke-opacity:1;marker-end:url(#Arrow1Mend-3-52-0-8)" />
    <path
       id="path9119"
       d="m 184.25196,265.74791 17.71653,1e-5 v -35.433 h 21.25985"
       style="fill:none;stroke:#000000;stroke-width:1px;stroke-linecap:butt;stroke-linejoin:miter;stroke-opacity:1;marker-end:url(#Arrow1Mend-3-52-0-8)" />
  </g>
</svg>
