<?xml version="1.0" encoding="UTF-8" standalone="no"?>
<!-- Created with Inkscape (http://www.inkscape.org/) -->

<svg
   width="107.28223mm"
   height="105.28223mm"
   id="svg2"
   version="1.0"
   xmlns="http://www.w3.org/2000/svg"
   xmlns:svg="http://www.w3.org/2000/svg"
   xmlns:rdf="http://www.w3.org/1999/02/22-rdf-syntax-ns#"
   xmlns:cc="http://creativecommons.org/ns#"
   xmlns:dc="http://purl.org/dc/elements/1.1/">
  <defs
     id="defs4">
    <marker
       orient="auto"
       refY="0"
       refX="0"
       id="marker90575"
       style="overflow:visible">
      <path
         id="path90577"
         d="M 4.2666667,0 6.4,-2.1333333 -1.0666667,0 6.4,2.1333333 Z"
         style="fill:#000000;fill-opacity:1;fill-rule:evenodd;stroke:#000000;stroke-width:0.42666668pt;stroke-opacity:1;marker-start:none" />
    </marker>
    <marker
       orient="auto"
       refY="0"
       refX="0"
       id="marker89257"
       style="overflow:visible">
      <path
         id="path89259"
         d="M 4.2666667,0 6.4,-2.1333333 -1.0666667,0 6.4,2.1333333 Z"
         style="fill:#000000;fill-opacity:1;fill-rule:evenodd;stroke:#000000;stroke-width:0.42666668pt;stroke-opacity:1;marker-start:none" />
    </marker>
    <marker
       orient="auto"
       refY="0"
       refX="0"
       id="marker83097"
       style="overflow:visible">
      <path
         id="path83099"
         d="M -4.2666667,0 -6.4,2.1333333 1.0666667,0 -6.4,-2.1333333 Z"
         style="fill:#000000;fill-opacity:1;fill-rule:evenodd;stroke:#000000;stroke-width:0.42666668pt;stroke-opacity:1;marker-start:none" />
    </marker>
    <marker
       style="overflow:visible"
       id="marker81465"
       refX="0"
       refY="0"
       orient="auto">
      <path
         style="fill:#000000;fill-opacity:1;fill-rule:evenodd;stroke:#000000;stroke-width:0.42666668pt;stroke-opacity:1;marker-start:none"
         d="M -4.2666667,0 -6.4,2.1333333 1.0666667,0 -6.4,-2.1333333 Z"
         id="path81467" />
    </marker>
    <marker
       orient="auto"
       refY="0"
       refX="0"
       id="marker61042"
       style="overflow:visible">
      <path
         id="path61044"
         d="M -4.2666667,0 -6.4,2.1333333 1.0666667,0 -6.4,-2.1333333 Z"
         style="fill:#000000;fill-opacity:1;fill-rule:evenodd;stroke:#000000;stroke-width:0.42666668pt;stroke-opacity:1;marker-start:none" />
    </marker>
    <marker
       style="overflow:visible"
       id="marker55464"
       refX="0"
       refY="0"
       orient="auto">
      <path
         style="fill:#000000;fill-opacity:1;fill-rule:evenodd;stroke:#000000;stroke-width:0.42666668pt;stroke-opacity:1;marker-start:none"
         d="M -4.2666667,0 -6.4,2.1333333 1.0666667,0 -6.4,-2.1333333 Z"
         id="path55466" />
    </marker>
    <marker
       style="overflow:visible"
       id="marker54212"
       refX="0"
       refY="0"
       orient="auto">
      <path
         style="fill:#000000;fill-opacity:1;fill-rule:evenodd;stroke:#000000;stroke-width:0.42666668pt;stroke-opacity:1;marker-start:none"
         d="M -4.2666667,0 -6.4,2.1333333 1.0666667,0 -6.4,-2.1333333 Z"
         id="path54214" />
    </marker>
    <marker
       style="overflow:visible"
       id="marker54202"
       refX="0"
       refY="0"
       orient="auto">
      <path
         style="fill:#000000;fill-opacity:1;fill-rule:evenodd;stroke:#000000;stroke-width:0.42666668pt;stroke-opacity:1;marker-start:none"
         d="M -4.2666667,0 -6.4,2.1333333 1.0666667,0 -6.4,-2.1333333 Z"
         id="path54204" />
    </marker>
    <marker
       style="overflow:visible"
       id="marker52956"
       refX="0"
       refY="0"
       orient="auto">
      <path
         style="fill:#000000;fill-opacity:1;fill-rule:evenodd;stroke:#000000;stroke-width:0.42666668pt;stroke-opacity:1;marker-start:none"
         d="M -4.2666667,0 -6.4,2.1333333 1.0666667,0 -6.4,-2.1333333 Z"
         id="path52958" />
    </marker>
    <marker
       style="overflow:visible"
       id="marker51716"
       refX="0"
       refY="0"
       orient="auto">
      <path
         style="fill:#000000;fill-opacity:1;fill-rule:evenodd;stroke:#000000;stroke-width:0.42666668pt;stroke-opacity:1;marker-start:none"
         d="M -4.2666667,0 -6.4,2.1333333 1.0666667,0 -6.4,-2.1333333 Z"
         id="path51718" />
    </marker>
    <marker
       style="overflow:visible"
       id="marker50482"
       refX="0"
       refY="0"
       orient="auto">
      <path
         style="fill:#000000;fill-opacity:1;fill-rule:evenodd;stroke:#000000;stroke-width:0.42666668pt;stroke-opacity:1;marker-start:none"
         d="M -4.2666667,0 -6.4,2.1333333 1.0666667,0 -6.4,-2.1333333 Z"
         id="path50484" />
    </marker>
    <marker
       style="overflow:visible"
       id="marker46776"
       refX="0"
       refY="0"
       orient="auto">
      <path
         style="fill:#000000;fill-opacity:1;fill-rule:evenodd;stroke:#000000;stroke-width:0.42666668pt;stroke-opacity:1;marker-start:none"
         d="M -4.2666667,0 -6.4,2.1333333 1.0666667,0 -6.4,-2.1333333 Z"
         id="path46778" />
    </marker>
    <marker
       style="overflow:visible"
       id="marker45566"
       refX="0"
       refY="0"
       orient="auto">
      <path
         style="fill:#000000;fill-opacity:1;fill-rule:evenodd;stroke:#000000;stroke-width:0.42666668pt;stroke-opacity:1;marker-start:none"
         d="M -4.2666667,0 -6.4,2.1333333 1.0666667,0 -6.4,-2.1333333 Z"
         id="path45568" />
    </marker>
    <marker
       style="overflow:visible"
       id="Arrow1Mstart"
       refX="0"
       refY="0"
       orient="auto">
      <path
         style="fill:#000000;fill-opacity:1;fill-rule:evenodd;stroke:#000000;stroke-width:0.42666668pt;stroke-opacity:1;marker-start:none"
         d="M 4.2666667,0 6.4,-2.1333333 -1.0666667,0 6.4,2.1333333 Z"
         id="path3635" />
    </marker>
    <marker
       orient="auto"
       refY="0"
       refX="0"
       id="marker10197"
       style="overflow:visible">
      <path
         id="path10199"
         d="M -4.2666667,0 -6.4,2.1333333 1.0666667,0 -6.4,-2.1333333 Z"
         style="fill:#000000;fill-opacity:1;fill-rule:evenodd;stroke:#000000;stroke-width:0.42666668pt;stroke-opacity:1;marker-start:none" />
    </marker>
    <marker
       orient="auto"
       refY="0"
       refX="0"
       id="marker10197C-9"
       style="overflow:visible">
      <path
         id="path12941-7"
         d="M -4.2666667,0 -6.4,2.1333333 1.0666667,0 -6.4,-2.1333333 Z"
         style="fill:#ff0000;fill-rule:evenodd;stroke:#ff0000;stroke-width:0.42666668pt;marker-start:none" />
    </marker>
    <marker
       orient="auto"
       refY="0"
       refX="0"
       id="marker10197I-3"
       style="overflow:visible">
      <path
         id="path12935-3"
         d="M -4.2666667,0 -6.4,2.1333333 1.0666667,0 -6.4,-2.1333333 Z"
         style="fill:#ff0000;fill-rule:evenodd;stroke:#ff0000;stroke-width:0.42666668pt;marker-start:none" />
    </marker>
    <marker
       orient="auto"
       refY="0"
       refX="0"
       id="marker10197E-4"
       style="overflow:visible">
      <path
         id="path12938-3"
         d="M -4.2666667,0 -6.4,2.1333333 1.0666667,0 -6.4,-2.1333333 Z"
         style="fill:#ff0000;fill-rule:evenodd;stroke:#ff0000;stroke-width:0.42666668pt;marker-start:none" />
    </marker>
    <marker
       orient="auto"
       refY="0"
       refX="0"
       id="marker7037"
       style="overflow:visible">
      <path
         id="path6790"
         d="M -4.2666667,0 -6.4,2.1333333 1.0666667,0 -6.4,-2.1333333 Z"
         style="fill:#000000;fill-opacity:1;fill-rule:evenodd;stroke:#000000;stroke-width:0.42666668pt;stroke-opacity:1" />
    </marker>
  </defs>
  <metadata
     id="metadata7">
    <rdf:RDF>
      <cc:Work
         rdf:about="">
        <dc:format>image/svg+xml</dc:format>
        <dc:type
           rdf:resource="http://purl.org/dc/dcmitype/StillImage" />
        <dc:title />
      </cc:Work>
    </rdf:RDF>
  </metadata>
  <g
     transform="translate(-219.39284,-27.433862)"
     id="layer1">
    <g
       transform="translate(251.44409,225.6122)"
       id="g10880">
      <path
         id="rect9030"
         style="opacity:1;fill:#ffeeaa;stroke:#000000;stroke-width:1.06583"
         d="M 138.37573,-1.1095539 H 202.6277 V 93.378636 h -64.25197 z" />
      <g
         transform="translate(296.31257,-120.94487)"
         id="g10852">
        <g
           aria-label="Q"
           id="text10854"
           style="font-size:12.8px;line-height:0%;font-family:Iwona;-inkscape-font-specification:Iwona;stroke-width:1.06667px">
          <path
             d="m -145.20838,138.03248 c 0,-2.7136 -1.408,-4.608 -3.9936,-4.608 -2.5984,0 -4.0064,1.8944 -4.0064,4.608 0,2.7136 1.408,4.608 4.0064,4.608 0.0896,1.0368 0.9472,1.8304 1.9968,1.8304 0.6528,0 0.832,-0.0384 1.4336,-0.3072 v -0.384 c -0.2944,0.1664 -0.6144,0.256 -0.96,0.256 -1.1648,0 -1.6256,-0.4096 -1.6384,-1.472 2.048,-0.3584 3.1616,-2.1248 3.1616,-4.5312 z m -1.2544,0 c 0,2.24 -0.7424,4.0192 -2.7392,4.0192 -2.0096,0 -2.752,-1.7792 -2.752,-4.0192 0,-2.24 0.7424,-4.0192 2.752,-4.0192 1.9968,0 2.7392,1.7792 2.7392,4.0192 z"
             style="line-height:1.25"
             id="path550" />
        </g>
      </g>
      <g
         aria-label="CLK"
         id="text10862"
         style="font-size:12.8px;line-height:0%;font-family:Iwona;-inkscape-font-specification:Iwona;text-align:end;text-anchor:end;stroke-width:1.06667px">
        <path
           d="m 175.31475,71.450913 v -0.6912 c -0.6912,-0.9984 -1.8304,-1.5872 -3.0336,-1.5872 -2.5984,0 -4.0064,1.8944 -4.0064,4.608 0,2.7136 1.408,4.608 4.0064,4.608 0.9984,0 1.984,-0.2944 2.8288,-0.8448 v -0.5888 c -0.8448,0.5504 -1.8304,0.8448 -2.8288,0.8448 -2.0096,0 -2.752,-1.7792 -2.752,-4.0192 0,-2.24 0.7424,-4.0192 2.752,-4.0192 1.2288,0 2.3808,0.64 3.0336,1.6896 z"
           style="line-height:1.25"
           id="path553" />
        <path
           d="m 182.09874,78.260513 v -0.5888 h -4.0704 v -8.3712 h -1.0496 v 8.96 z"
           style="line-height:1.25"
           id="path555" />
        <path
           d="m 191.16113,78.260513 -5.67041,-5.0688 5.36321,-3.8912 h -1.0112 l -5.15841,3.7504 v -3.7504 h -1.0496 v 8.96 h 1.0496 v -4.3776 l 4.90241,4.3776 z"
           style="line-height:1.25"
           id="path557" />
      </g>
      <g
         aria-label="D"
         id="text10868"
         style="font-size:12.8px;line-height:0%;font-family:Iwona;-inkscape-font-specification:Iwona;stroke-width:1.06667px">
        <path
           d="m 196.44095,17.087604 c 0,-2.7392 -1.4976,-4.608 -4.1344,-4.608 -0.7936,0 -1.5872,0.0384 -2.368,0.128 h -1.024 v 8.96 h 1.024 c 0.7808,0.0896 1.5744,0.128 2.368,0.128 2.6368,0 4.1344,-1.8688 4.1344,-4.608 z m -1.2544,0 c 0,2.0352 -1.0368,4.0192 -2.88,4.0192 -0.7808,0 -1.5616,-0.0384 -2.3424,-0.128 v -7.7824 c 0.7808,-0.0896 1.5616,-0.128 2.3424,-0.128 1.8432,0 2.88,1.984 2.88,4.0192 z"
           style="line-height:1.25"
           id="path560" />
      </g>
      <path
         id="path14967"
         d="m 202.6277,66.921932 -7.55906,7.559055 7.55906,7.559055"
         style="fill:none;fill-rule:evenodd;stroke:#000000;stroke-width:1.06667px;stroke-linecap:butt;stroke-linejoin:miter;stroke-opacity:1" />
    </g>
    <path
       id="path84883"
       d="m 454.07179,235.84122 h 49.13387 v -64.25197 h -45.35433"
       style="fill:none;fill-rule:evenodd;stroke:#000000;stroke-width:1.06583;stroke-linecap:butt;stroke-linejoin:miter;stroke-miterlimit:4;stroke-dasharray:none;stroke-opacity:1;marker-start:url(#marker90575)" />
    <path
       style="fill:none;fill-rule:evenodd;stroke:#000000;stroke-width:1.06583;stroke-linecap:butt;stroke-linejoin:miter;stroke-miterlimit:4;stroke-dasharray:none;stroke-opacity:1;marker-start:url(#Arrow1Mstart)"
       d="m 454.07179,243.40028 h 56.69292 V 164.0302 h -49.13385"
       id="path84885" />
    <path
       id="path84887"
       d="m 454.07179,250.95933 h 64.25198 v -94.48819 h -56.69291"
       style="fill:none;fill-rule:evenodd;stroke:#000000;stroke-width:1.06583;stroke-linecap:butt;stroke-linejoin:miter;stroke-miterlimit:4;stroke-dasharray:none;stroke-opacity:1;marker-start:url(#marker89257)" />
    <path
       style="fill:none;fill-rule:evenodd;stroke:#000000;stroke-width:1.06583;stroke-linecap:butt;stroke-linejoin:miter;stroke-miterlimit:4;stroke-dasharray:none;stroke-opacity:1;marker-end:url(#marker54212)"
       d="M 461.63086,107.33728 H 548.56"
       id="path9322" />
    <path
       id="path9324"
       d="M 472.96945,114.89634 H 548.56"
       style="fill:none;fill-rule:evenodd;stroke:#000000;stroke-width:1.06583;stroke-linecap:butt;stroke-linejoin:miter;stroke-miterlimit:4;stroke-dasharray:none;stroke-opacity:1;marker-end:url(#marker54202)" />
    <path
       style="fill:none;fill-rule:evenodd;stroke:#000000;stroke-width:1.06583;stroke-linecap:butt;stroke-linejoin:miter;stroke-miterlimit:4;stroke-dasharray:none;stroke-opacity:1;marker-end:url(#marker52956)"
       d="M 469.18992,122.45539 H 548.56"
       id="path9326" />
    <path
       id="path31536"
       d="M 461.63086,99.778226 H 548.56"
       style="fill:none;fill-rule:evenodd;stroke:#000000;stroke-width:1.06583;stroke-linecap:butt;stroke-linejoin:miter;stroke-miterlimit:4;stroke-dasharray:none;stroke-opacity:1;marker-end:url(#marker51716)" />
    <path
       id="path32946"
       d="M 461.63086,129.7374 H 548.56"
       style="fill:none;fill-rule:evenodd;stroke:#000000;stroke-width:1.06583;stroke-linecap:butt;stroke-linejoin:miter;stroke-miterlimit:4;stroke-dasharray:none;stroke-opacity:1;marker-end:url(#marker50482)" />
    <path
       id="path2798"
       d="m 291.55211,109.85004 h 86.92915"
       style="fill:none;fill-rule:evenodd;stroke:#000000;stroke-width:1.06583;stroke-linecap:butt;stroke-linejoin:miter;stroke-miterlimit:4;stroke-dasharray:none;stroke-opacity:1;marker-end:url(#marker45566)" />
    <path
       style="fill:none;fill-rule:evenodd;stroke:#000000;stroke-width:1.06583;stroke-linecap:butt;stroke-linejoin:miter;stroke-miterlimit:4;stroke-dasharray:none;stroke-opacity:1;marker-end:url(#marker10197)"
       d="m 291.55211,119.92171 h 79.3701"
       id="path7738" />
    <path
       id="path7740"
       d="m 291.55211,129.7875 79.37008,0.22694"
       style="fill:none;fill-rule:evenodd;stroke:#000000;stroke-width:1.06583;stroke-linecap:butt;stroke-linejoin:miter;stroke-miterlimit:4;stroke-dasharray:none;stroke-opacity:1;marker-end:url(#marker55464)" />
    <path
       style="fill:none;fill-rule:evenodd;stroke:#000000;stroke-width:1.06583;stroke-linecap:butt;stroke-linejoin:miter;stroke-miterlimit:4;stroke-dasharray:none;stroke-opacity:1;marker-end:url(#marker46776)"
       d="m 291.55213,99.778226 h 90.70865"
       id="path7742" />
    <g
       id="g12522"
       transform="translate(-106.01184,-122.63723)">
      <path
         style="fill:#ffd5f6;fill-rule:evenodd;stroke:#000000;stroke-width:1.06667px;stroke-linecap:butt;stroke-linejoin:miter;stroke-opacity:1"
         d="m 620.55609,339.58081 18.89764,64.25197 h -15.1181 c -3.77953,0 -3.77953,3.77953 -3.77953,3.77953 v 30.23621 c 0,0 0,3.77953 3.67289,3.77953 h 94.59482 c 3.77953,0 3.77953,-3.77953 3.77953,-3.77953 v -30.23621 c 0,0 0,-3.77953 -3.77953,-3.77953 h -71.81102 z"
         id="path12514" />
      <g
         id="g12516"
         transform="translate(782.6,283.99746)">
        <g
           aria-label="L'état suivant"
           id="text12518"
           style="font-size:12.8px;line-height:0%;font-family:Iwona;-inkscape-font-specification:Iwona;stroke-width:1.06667px">
          <path
             d="m -145.97224,142.51248 v -0.68693 h -4.74879 v -9.76638 h -1.22453 v 10.45331 z"
             style="font-size:14.9333px;line-height:1.25"
             id="path563" />
          <path
             d="m -144.4192,135.55356 v -3.49439 h -0.68693 v 3.49439 z"
             style="font-size:14.9333px;line-height:1.25"
             id="path565" />
          <path
             d="m -137.25122,139.30182 v -0.14933 c 0,-2.1056 -1.14986,-3.50933 -2.88212,-3.50933 -1.7472,0 -2.89706,1.40373 -2.89706,3.50933 0,2.10559 1.14986,3.50932 2.89706,3.50932 0.74666,0 1.47839,-0.23893 2.09066,-0.67199 v -0.6272 c -0.70187,0.448 -1.26933,0.61226 -2.09066,0.61226 -1.26933,0 -1.58293,-1.20959 -1.58293,-2.67306 z m -1.31413,-0.6272 h -3.15092 c 0,-1.19466 0.50773,-2.40426 1.58293,-2.40426 1.06026,0 1.56799,1.2096 1.56799,2.40426 z m 0.0448,-6.61545 h -1.34399 c 0,1.00053 -0.3136,1.98613 -0.896,2.79253 h 0.6272 c 0.79146,-0.79147 1.61279,-1.67253 1.61279,-2.79253 z"
             style="font-size:14.9333px;line-height:1.25"
             id="path567" />
          <path
             d="m -132.14405,141.98982 v -0.448 c -0.23893,0.23893 -0.52266,0.43306 -0.86613,0.43306 -0.5376,0 -0.56747,-0.70186 -0.56747,-1.32906 v -4.22612 h 1.4336 v -0.6272 h -1.4336 v -2.24 h -0.70186 c 0,1.19467 -0.68693,2.31466 -1.77706,2.31466 v 0.55254 h 1.31413 v 4.22612 c 0,0.9856 0.3136,2.01599 1.16479,2.01599 0.55254,0 1.0304,-0.29866 1.4336,-0.67199 z"
             style="font-size:14.9333px;line-height:1.25"
             id="path569" />
          <path
             d="m -125.24488,142.51248 v -4.18132 c 0,-1.40373 -0.86614,-2.688 -2.16533,-2.688 -0.95573,0 -1.85173,0.32854 -2.65813,0.83627 v 0.46293 c 0.672,-0.37333 1.41866,-0.61226 2.1952,-0.61226 0.92586,0 1.46346,0.98559 1.46346,2.00106 v 0.2688 c -0.5824,-0.25387 -1.2096,-0.4032 -1.8368,-0.4032 -1.59786,0 -2.77759,0.73173 -2.77759,2.23999 0,1.4336 1.04533,2.22506 2.55359,2.22506 0.7616,0 1.46347,-0.34346 2.0608,-0.82133 v 0.672 z m -1.1648,-1.2992 c -0.448,0.448 -1.00053,0.82134 -1.64266,0.82134 -1.00054,0 -1.6576,-0.61227 -1.6576,-1.59787 0,-0.91093 0.74666,-1.61279 1.6576,-1.61279 0.56746,0 1.13493,0.14933 1.64266,0.4032 z"
             style="font-size:14.9333px;line-height:1.25"
             id="path571" />
          <path
             d="m -119.68971,141.98982 v -0.448 c -0.23893,0.23893 -0.52267,0.43306 -0.86613,0.43306 -0.5376,0 -0.56747,-0.70186 -0.56747,-1.32906 v -4.22612 h 1.4336 v -0.6272 h -1.4336 v -2.24 h -0.70186 c 0,1.19467 -0.68693,2.31466 -1.77706,2.31466 v 0.55254 h 1.31413 v 4.22612 c 0,0.9856 0.31359,2.01599 1.16479,2.01599 0.55254,0 1.0304,-0.29866 1.4336,-0.67199 z"
             style="font-size:14.9333px;line-height:1.25"
             id="path573" />
          <path
             d="m -108.53458,140.60102 c 0,-1.17973 -1.2544,-1.792 -2.47893,-2.09066 -0.7168,-0.1792 -1.49333,-0.47787 -1.49333,-1.17973 0,-0.64214 0.65707,-1.06027 1.37387,-1.06027 0.79146,0 1.58293,0.23894 2.23999,0.672 v -0.6272 c -0.65706,-0.43306 -1.44853,-0.672 -2.23999,-0.672 -1.2992,0 -2.49386,0.79147 -2.49386,2.00107 0,1.09013 1.20959,1.59786 2.35946,1.88159 0.79146,0.19413 1.61279,0.61227 1.61279,1.37387 0,0.70186 -0.7168,1.13493 -1.47839,1.13493 -0.92587,0 -1.82187,-0.224 -2.61333,-0.672 v 0.6272 c 0.79146,0.448 1.68746,0.67199 2.61333,0.67199 1.34399,0 2.59839,-0.80639 2.59839,-2.06079 z"
             style="font-size:14.9333px;line-height:1.25"
             id="path575" />
          <path
             d="m -101.33675,142.51248 v -6.71998 h -1.16479 v 5.27145 c -0.50774,0.50773 -1.13493,0.91093 -1.8368,0.91093 -0.70186,0 -1.23946,-0.61226 -1.23946,-1.32906 v -4.85332 h -1.1648 v 4.85332 c 0,1.09013 0.83626,2.01599 1.91146,2.01599 0.896,0 1.68746,-0.50773 2.3296,-1.13493 v 0.9856 z"
             style="font-size:14.9333px;line-height:1.25"
             id="path577" />
          <path
             d="m -96.214651,141.98982 v -0.448 c -0.283733,0.23893 -0.612265,0.43306 -0.985598,0.43306 -0.552532,0 -0.657065,-0.68693 -0.657065,-1.32906 v -4.85332 h -1.164797 v 4.85332 c 0,1.00053 0.388265,2.01599 1.26933,2.01599 0.567465,0 1.105064,-0.28373 1.53813,-0.67199 z m -1.49333,-8.52692 c 0,-0.4032 -0.328533,-0.73173 -0.731732,-0.73173 -0.403199,0 -0.731731,0.32853 -0.731731,0.73173 0,0.4032 0.328532,0.73173 0.731731,0.73173 0.403199,0 0.731732,-0.32853 0.731732,-0.73173 z"
             style="font-size:14.9333px;line-height:1.25"
             id="path579" />
          <path
             d="m -89.987476,135.7925 h -0.671999 l -2.030929,5.58505 -1.971195,-5.58505 h -1.105065 l 2.359462,6.71998 h 0.970664 z"
             style="font-size:14.9333px;line-height:1.25"
             id="path581" />
          <path
             d="m -83.386964,142.51248 v -4.18132 c 0,-1.40373 -0.866132,-2.688 -2.165329,-2.688 -0.955731,0 -1.851729,0.32854 -2.658127,0.83627 v 0.46293 c 0.671998,-0.37333 1.418663,-0.61226 2.195195,-0.61226 0.925864,0 1.463463,0.98559 1.463463,2.00106 v 0.2688 c -0.582399,-0.25387 -1.209597,-0.4032 -1.836796,-0.4032 -1.597863,0 -2.777594,0.73173 -2.777594,2.23999 0,1.4336 1.045331,2.22506 2.553595,2.22506 0.761598,0 1.463463,-0.34346 2.060795,-0.82133 v 0.672 z m -1.164798,-1.2992 c -0.447999,0.448 -1.000531,0.82134 -1.642663,0.82134 -1.000531,0 -1.657596,-0.61227 -1.657596,-1.59787 0,-0.91093 0.746665,-1.61279 1.657596,-1.61279 0.567466,0 1.134931,0.14933 1.642663,0.4032 z"
             style="font-size:14.9333px;line-height:1.25"
             id="path583" />
          <path
             d="m -75.591796,142.51248 v -4.85332 c 0,-1.09013 -0.836264,-2.016 -1.911462,-2.016 -0.895998,0 -1.687463,0.50774 -2.329595,1.13493 v -0.98559 h -1.164797 v 6.71998 h 1.164797 v -5.27145 c 0.507732,-0.50774 1.134931,-0.91093 1.836796,-0.91093 0.701865,0 1.239464,0.61226 1.239464,1.32906 v 4.85332 z"
             style="font-size:14.9333px;line-height:1.25"
             id="path585" />
          <path
             d="m -70.111301,141.98982 v -0.448 c -0.238933,0.23893 -0.522666,0.43306 -0.866131,0.43306 -0.537599,0 -0.567466,-0.70186 -0.567466,-1.32906 v -4.22612 h 1.433597 v -0.6272 h -1.433597 v -2.24 h -0.701865 c 0,1.19467 -0.686932,2.31466 -1.777063,2.31466 v 0.55254 h 1.314131 v 4.22612 c 0,0.9856 0.313599,2.01599 1.164797,2.01599 0.552532,0 1.030398,-0.29866 1.433597,-0.67199 z"
             style="font-size:14.9333px;line-height:1.25"
             id="path587" />
        </g>
      </g>
    </g>
    <g
       transform="translate(-393.25595,-122.63723)"
       id="g12528">
      <path
         id="path12530"
         d="m 726.38287,339.58081 -34.01574,64.25198 -68.0315,-10e-6 c -3.77953,0 -3.77953,3.77953 -3.77953,3.77953 v 30.23621 c 0,0 0,3.77953 3.67289,3.77953 h 94.59482 c 3.77953,0 3.77953,-3.77953 3.77953,-3.77953 v -30.23621 c 0,0 0,-3.77953 -3.77953,-3.77953 l -18.89763,10e-6 z"
         style="fill:#ffd5f6;fill-rule:evenodd;stroke:#000000;stroke-width:1.06667px;stroke-linecap:butt;stroke-linejoin:miter;stroke-opacity:1" />
      <g
         transform="translate(783.39051,283.99746)"
         id="g12532">
        <g
           aria-label="L'état courant"
           id="text12534"
           style="font-size:12.8px;line-height:0%;font-family:Iwona;-inkscape-font-specification:Iwona;stroke-width:1.06667px">
          <path
             d="m -145.97224,142.51248 v -0.68693 h -4.74879 v -9.76638 h -1.22453 v 10.45331 z"
             style="font-size:14.9333px;line-height:1.25"
             id="path590" />
          <path
             d="m -144.4192,135.55356 v -3.49439 h -0.68693 v 3.49439 z"
             style="font-size:14.9333px;line-height:1.25"
             id="path592" />
          <path
             d="m -137.25122,139.30182 v -0.14933 c 0,-2.1056 -1.14986,-3.50933 -2.88212,-3.50933 -1.7472,0 -2.89706,1.40373 -2.89706,3.50933 0,2.10559 1.14986,3.50932 2.89706,3.50932 0.74666,0 1.47839,-0.23893 2.09066,-0.67199 v -0.6272 c -0.70187,0.448 -1.26933,0.61226 -2.09066,0.61226 -1.26933,0 -1.58293,-1.20959 -1.58293,-2.67306 z m -1.31413,-0.6272 h -3.15092 c 0,-1.19466 0.50773,-2.40426 1.58293,-2.40426 1.06026,0 1.56799,1.2096 1.56799,2.40426 z m 0.0448,-6.61545 h -1.34399 c 0,1.00053 -0.3136,1.98613 -0.896,2.79253 h 0.6272 c 0.79146,-0.79147 1.61279,-1.67253 1.61279,-2.79253 z"
             style="font-size:14.9333px;line-height:1.25"
             id="path594" />
          <path
             d="m -132.14405,141.98982 v -0.448 c -0.23893,0.23893 -0.52266,0.43306 -0.86613,0.43306 -0.5376,0 -0.56747,-0.70186 -0.56747,-1.32906 v -4.22612 h 1.4336 v -0.6272 h -1.4336 v -2.24 h -0.70186 c 0,1.19467 -0.68693,2.31466 -1.77706,2.31466 v 0.55254 h 1.31413 v 4.22612 c 0,0.9856 0.3136,2.01599 1.16479,2.01599 0.55254,0 1.0304,-0.29866 1.4336,-0.67199 z"
             style="font-size:14.9333px;line-height:1.25"
             id="path596" />
          <path
             d="m -125.24488,142.51248 v -4.18132 c 0,-1.40373 -0.86614,-2.688 -2.16533,-2.688 -0.95573,0 -1.85173,0.32854 -2.65813,0.83627 v 0.46293 c 0.672,-0.37333 1.41866,-0.61226 2.1952,-0.61226 0.92586,0 1.46346,0.98559 1.46346,2.00106 v 0.2688 c -0.5824,-0.25387 -1.2096,-0.4032 -1.8368,-0.4032 -1.59786,0 -2.77759,0.73173 -2.77759,2.23999 0,1.4336 1.04533,2.22506 2.55359,2.22506 0.7616,0 1.46347,-0.34346 2.0608,-0.82133 v 0.672 z m -1.1648,-1.2992 c -0.448,0.448 -1.00053,0.82134 -1.64266,0.82134 -1.00054,0 -1.6576,-0.61227 -1.6576,-1.59787 0,-0.91093 0.74666,-1.61279 1.6576,-1.61279 0.56746,0 1.13493,0.14933 1.64266,0.4032 z"
             style="font-size:14.9333px;line-height:1.25"
             id="path598" />
          <path
             d="m -119.68971,141.98982 v -0.448 c -0.23893,0.23893 -0.52267,0.43306 -0.86613,0.43306 -0.5376,0 -0.56747,-0.70186 -0.56747,-1.32906 v -4.22612 h 1.4336 v -0.6272 h -1.4336 v -2.24 h -0.70186 c 0,1.19467 -0.68693,2.31466 -1.77706,2.31466 v 0.55254 h 1.31413 v 4.22612 c 0,0.9856 0.31359,2.01599 1.16479,2.01599 0.55254,0 1.0304,-0.29866 1.4336,-0.67199 z"
             style="font-size:14.9333px;line-height:1.25"
             id="path600" />
          <path
             d="m -108.23591,137.34556 v -0.6272 c -0.47787,-0.672 -1.2544,-1.0752 -2.09067,-1.0752 -1.86666,0 -3.12106,1.40373 -3.12106,3.50933 0,2.10559 1.2544,3.50932 3.12106,3.50932 0.77654,0 1.50827,-0.38826 1.94133,-1.03039 v -0.6272 c -0.50773,0.7616 -1.03039,1.0304 -1.94133,1.0304 -1.07519,0 -1.80692,-1.14987 -1.80692,-2.88213 0,-1.73226 0.73173,-2.88213 1.80692,-2.88213 0.92587,0 1.55307,0.32853 2.09067,1.0752 z"
             style="font-size:14.9333px;line-height:1.25"
             id="path602" />
          <path
             d="m -101.26208,139.15249 c 0,-2.2848 -1.01546,-3.50933 -2.88213,-3.50933 -1.88159,0 -2.89706,1.22453 -2.89706,3.50933 0,2.28479 1.01547,3.50932 2.89706,3.50932 1.86667,0 2.88213,-1.22453 2.88213,-3.50932 z m -1.31413,0 c 0,1.86666 -0.55253,2.88213 -1.568,2.88213 -1.03039,0 -1.58293,-1.01547 -1.58293,-2.88213 0,-1.86666 0.55254,-2.88213 1.58293,-2.88213 1.01547,0 1.568,1.01547 1.568,2.88213 z"
             style="font-size:14.9333px;line-height:1.25"
             id="path604" />
          <path
             d="m -93.914898,142.51248 v -6.71998 h -1.164797 v 5.27145 c -0.507733,0.50773 -1.134931,0.91093 -1.836796,0.91093 -0.701865,0 -1.239464,-0.61226 -1.239464,-1.32906 v -4.85332 h -1.164798 v 4.85332 c 0,1.09013 0.836265,2.01599 1.911463,2.01599 0.895998,0 1.687463,-0.50773 2.329595,-1.13493 v 0.9856 z"
             style="font-size:14.9333px;line-height:1.25"
             id="path606" />
          <path
             d="m -87.807205,136.71836 v -0.92586 c -0.164266,-0.0597 -0.343466,-0.10454 -0.507732,-0.10454 -0.836265,0 -1.508263,0.5824 -2.045862,1.22453 v -1.11999 h -1.164798 v 6.71998 h 1.164798 v -4.97279 c 0.447999,-0.52266 1.015464,-0.97066 1.702396,-0.97066 0.283733,0 0.582399,0.0597 0.851198,0.14933 z"
             style="font-size:14.9333px;line-height:1.25"
             id="path608" />
          <path
             d="m -81.236581,142.51248 v -4.18132 c 0,-1.40373 -0.866132,-2.688 -2.165329,-2.688 -0.955731,0 -1.851729,0.32854 -2.658127,0.83627 v 0.46293 c 0.671998,-0.37333 1.418663,-0.61226 2.195195,-0.61226 0.925864,0 1.463463,0.98559 1.463463,2.00106 v 0.2688 c -0.582399,-0.25387 -1.209597,-0.4032 -1.836796,-0.4032 -1.597863,0 -2.777594,0.73173 -2.777594,2.23999 0,1.4336 1.045331,2.22506 2.553595,2.22506 0.761598,0 1.463463,-0.34346 2.060795,-0.82133 v 0.672 z m -1.164798,-1.2992 c -0.447999,0.448 -1.000531,0.82134 -1.642663,0.82134 -1.000531,0 -1.657596,-0.61227 -1.657596,-1.59787 0,-0.91093 0.746665,-1.61279 1.657596,-1.61279 0.567466,0 1.134931,0.14933 1.642663,0.4032 z"
             style="font-size:14.9333px;line-height:1.25"
             id="path610" />
          <path
             d="m -73.441413,142.51248 v -4.85332 c 0,-1.09013 -0.836264,-2.016 -1.911462,-2.016 -0.895998,0 -1.687463,0.50774 -2.329595,1.13493 v -0.98559 h -1.164797 v 6.71998 h 1.164797 v -5.27145 c 0.507732,-0.50774 1.134931,-0.91093 1.836796,-0.91093 0.701865,0 1.239464,0.61226 1.239464,1.32906 v 4.85332 z"
             style="font-size:14.9333px;line-height:1.25"
             id="path612" />
          <path
             d="m -67.960918,141.98982 v -0.448 c -0.238933,0.23893 -0.522666,0.43306 -0.866131,0.43306 -0.537599,0 -0.567466,-0.70186 -0.567466,-1.32906 v -4.22612 h 1.433597 v -0.6272 h -1.433597 v -2.24 h -0.701865 c 0,1.19467 -0.686932,2.31466 -1.777063,2.31466 v 0.55254 h 1.314131 v 4.22612 c 0,0.9856 0.313599,2.01599 1.164797,2.01599 0.552532,0 1.030398,-0.29866 1.433597,-0.67199 z"
             style="font-size:14.9333px;line-height:1.25"
             id="path614" />
        </g>
      </g>
    </g>
    <g
       id="g13461"
       transform="translate(-108.10171,-368.30651)">
      <path
         id="path13463"
         d="m 633.98453,479.42332 5.36256,-37.79528 h -15.1181 c -3.77953,0 -3.77953,-3.77953 -3.77953,-3.77953 V 407.6123 c 0,0 0,-3.77953 3.6729,-3.77953 h 71.91765 c 3.77953,0 3.77953,3.77953 3.77953,3.77953 v 30.23621 c 0,0 0,3.77953 -3.77953,3.77953 h -49.13386 z"
         style="fill:#ffd5f6;fill-rule:evenodd;stroke:#000000;stroke-width:1.06667px;stroke-linecap:butt;stroke-linejoin:miter;stroke-opacity:1" />
      <g
         transform="translate(779.55327,283.99746)"
         id="g13465">
        <g
           aria-label="Les sorties"
           id="text13467"
           style="font-size:12.8px;line-height:0%;font-family:Iwona;-inkscape-font-specification:Iwona;stroke-width:1.06667px">
          <path
             d="m -145.97224,142.51248 v -0.68693 h -4.74879 v -9.76638 h -1.22453 v 10.45331 z"
             style="font-size:14.9333px;line-height:1.25"
             id="path617" />
          <path
             d="m -139.3419,139.30182 v -0.14933 c 0,-2.1056 -1.14986,-3.50933 -2.88212,-3.50933 -1.7472,0 -2.89707,1.40373 -2.89707,3.50933 0,2.10559 1.14987,3.50932 2.89707,3.50932 0.74666,0 1.47839,-0.23893 2.09066,-0.67199 v -0.6272 c -0.70187,0.448 -1.26933,0.61226 -2.09066,0.61226 -1.26934,0 -1.58293,-1.20959 -1.58293,-2.67306 z m -1.31413,-0.6272 h -3.15092 c 0,-1.19466 0.50773,-2.40426 1.58293,-2.40426 1.06026,0 1.56799,1.2096 1.56799,2.40426 z"
             style="font-size:14.9333px;line-height:1.25"
             id="path619" />
          <path
             d="m -132.86087,140.60102 c 0,-1.17973 -1.25439,-1.792 -2.47892,-2.09066 -0.7168,-0.1792 -1.49333,-0.47787 -1.49333,-1.17973 0,-0.64214 0.65706,-1.06027 1.37386,-1.06027 0.79146,0 1.58293,0.23894 2.24,0.672 v -0.6272 c -0.65707,-0.43306 -1.44854,-0.672 -2.24,-0.672 -1.2992,0 -2.49386,0.79147 -2.49386,2.00107 0,1.09013 1.2096,1.59786 2.35946,1.88159 0.79147,0.19413 1.6128,0.61227 1.6128,1.37387 0,0.70186 -0.7168,1.13493 -1.4784,1.13493 -0.92586,0 -1.82186,-0.224 -2.61333,-0.672 v 0.6272 c 0.79147,0.448 1.68747,0.67199 2.61333,0.67199 1.344,0 2.59839,-0.80639 2.59839,-2.06079 z"
             style="font-size:14.9333px;line-height:1.25"
             id="path621" />
          <path
             d="m -121.48173,140.60102 c 0,-1.17973 -1.2544,-1.792 -2.47893,-2.09066 -0.7168,-0.1792 -1.49333,-0.47787 -1.49333,-1.17973 0,-0.64214 0.65706,-1.06027 1.37386,-1.06027 0.79147,0 1.58293,0.23894 2.24,0.672 v -0.6272 c -0.65707,-0.43306 -1.44853,-0.672 -2.24,-0.672 -1.29919,0 -2.49386,0.79147 -2.49386,2.00107 0,1.09013 1.2096,1.59786 2.35946,1.88159 0.79147,0.19413 1.6128,0.61227 1.6128,1.37387 0,0.70186 -0.7168,1.13493 -1.4784,1.13493 -0.92586,0 -1.82186,-0.224 -2.61332,-0.672 v 0.6272 c 0.79146,0.448 1.68746,0.67199 2.61332,0.67199 1.344,0 2.5984,-0.80639 2.5984,-2.06079 z"
             style="font-size:14.9333px;line-height:1.25"
             id="path623" />
          <path
             d="m -114.20923,139.15249 c 0,-2.2848 -1.01547,-3.50933 -2.88213,-3.50933 -1.88159,0 -2.89706,1.22453 -2.89706,3.50933 0,2.28479 1.01547,3.50932 2.89706,3.50932 1.86666,0 2.88213,-1.22453 2.88213,-3.50932 z m -1.31413,0 c 0,1.86666 -0.55253,2.88213 -1.568,2.88213 -1.0304,0 -1.58293,-1.01547 -1.58293,-2.88213 0,-1.86666 0.55253,-2.88213 1.58293,-2.88213 1.01547,0 1.568,1.01547 1.568,2.88213 z"
             style="font-size:14.9333px;line-height:1.25"
             id="path625" />
          <path
             d="m -108.47485,136.71836 v -0.92586 c -0.16426,-0.0597 -0.34346,-0.10454 -0.50773,-0.10454 -0.83626,0 -1.50826,0.5824 -2.04586,1.22453 v -1.11999 h -1.1648 v 6.71998 h 1.1648 v -4.97279 c 0.448,-0.52266 1.01546,-0.97066 1.7024,-0.97066 0.28373,0 0.58239,0.0597 0.85119,0.14933 z"
             style="font-size:14.9333px;line-height:1.25"
             id="path627" />
          <path
             d="m -103.72609,141.98982 v -0.448 c -0.23894,0.23893 -0.52267,0.43306 -0.86613,0.43306 -0.5376,0 -0.56747,-0.70186 -0.56747,-1.32906 v -4.22612 h 1.4336 v -0.6272 h -1.4336 v -2.24 h -0.70186 c 0,1.19467 -0.68694,2.31466 -1.77707,2.31466 v 0.55254 h 1.31413 v 4.22612 c 0,0.9856 0.3136,2.01599 1.1648,2.01599 0.55253,0 1.0304,-0.29866 1.4336,-0.67199 z"
             style="font-size:14.9333px;line-height:1.25"
             id="path629" />
          <path
             d="m -99.350656,141.98982 v -0.448 c -0.283733,0.23893 -0.612266,0.43306 -0.985594,0.43306 -0.55254,0 -0.65707,-0.68693 -0.65707,-1.32906 v -4.85332 h -1.1648 v 4.85332 c 0,1.00053 0.38827,2.01599 1.26933,2.01599 0.56747,0 1.105068,-0.28373 1.538134,-0.67199 z m -1.493334,-8.52692 c 0,-0.4032 -0.32853,-0.73173 -0.73173,-0.73173 -0.4032,0 -0.73173,0.32853 -0.73173,0.73173 0,0.4032 0.32853,0.73173 0.73173,0.73173 0.4032,0 0.73173,-0.32853 0.73173,-0.73173 z"
             style="font-size:14.9333px;line-height:1.25"
             id="path631" />
          <path
             d="m -92.451487,139.30182 v -0.14933 c 0,-2.1056 -1.149864,-3.50933 -2.882127,-3.50933 -1.747196,0 -2.89706,1.40373 -2.89706,3.50933 0,2.10559 1.149864,3.50932 2.89706,3.50932 0.746665,0 1.478397,-0.23893 2.090662,-0.67199 v -0.6272 c -0.701865,0.448 -1.269331,0.61226 -2.090662,0.61226 -1.269331,0 -1.58293,-1.20959 -1.58293,-2.67306 z m -1.314131,-0.6272 h -3.150926 c 0,-1.19466 0.507732,-2.40426 1.58293,-2.40426 1.060264,0 1.567996,1.2096 1.567996,2.40426 z"
             style="font-size:14.9333px;line-height:1.25"
             id="path633" />
          <path
             d="m -85.970454,140.60102 c 0,-1.17973 -1.254398,-1.792 -2.478928,-2.09066 -0.716799,-0.1792 -1.49333,-0.47787 -1.49333,-1.17973 0,-0.64214 0.657065,-1.06027 1.373863,-1.06027 0.791465,0 1.58293,0.23894 2.239995,0.672 v -0.6272 c -0.657065,-0.43306 -1.44853,-0.672 -2.239995,-0.672 -1.299197,0 -2.493861,0.79147 -2.493861,2.00107 0,1.09013 1.209598,1.59786 2.359462,1.88159 0.791465,0.19413 1.612796,0.61227 1.612796,1.37387 0,0.70186 -0.716798,1.13493 -1.478397,1.13493 -0.925864,0 -1.821862,-0.224 -2.613327,-0.672 v 0.6272 c 0.791465,0.448 1.687463,0.67199 2.613327,0.67199 1.343997,0 2.598395,-0.80639 2.598395,-2.06079 z"
             style="font-size:14.9333px;line-height:1.25"
             id="path635" />
        </g>
      </g>
    </g>
    <g
       transform="translate(-391.16522,-368.30651)"
       id="g13471">
      <path
         style="fill:#ffd5f6;fill-rule:evenodd;stroke:#000000;stroke-width:1.06667px;stroke-linecap:butt;stroke-linejoin:miter;stroke-opacity:1"
         d="m 697.83545,483.20285 -28.25214,-41.57481 h -45.35432 c -3.77953,0 -3.77953,-3.77953 -3.77953,-3.77953 V 407.6123 c 0,0 0,-3.77953 3.6729,-3.77953 l 79.47669,-10e-6 c 3.77953,0 3.77953,3.77953 3.77953,3.77953 v 30.23621 c 0,0 0,3.77953 -3.77953,3.77953 l -26.45668,10e-6 z"
         id="path13473" />
      <g
         id="g13475"
         transform="translate(779.55327,283.99746)">
        <g
           aria-label="Les entrées"
           id="text13477"
           style="font-size:12.8px;line-height:0%;font-family:Iwona;-inkscape-font-specification:Iwona;stroke-width:1.06667px">
          <path
             d="m -145.97224,142.51248 v -0.68693 h -4.74879 v -9.76638 h -1.22453 v 10.45331 z"
             style="font-size:14.9333px;line-height:1.25"
             id="path638" />
          <path
             d="m -139.3419,139.30182 v -0.14933 c 0,-2.1056 -1.14986,-3.50933 -2.88212,-3.50933 -1.7472,0 -2.89707,1.40373 -2.89707,3.50933 0,2.10559 1.14987,3.50932 2.89707,3.50932 0.74666,0 1.47839,-0.23893 2.09066,-0.67199 v -0.6272 c -0.70187,0.448 -1.26933,0.61226 -2.09066,0.61226 -1.26934,0 -1.58293,-1.20959 -1.58293,-2.67306 z m -1.31413,-0.6272 h -3.15092 c 0,-1.19466 0.50773,-2.40426 1.58293,-2.40426 1.06026,0 1.56799,1.2096 1.56799,2.40426 z"
             style="font-size:14.9333px;line-height:1.25"
             id="path640" />
          <path
             d="m -132.86087,140.60102 c 0,-1.17973 -1.25439,-1.792 -2.47892,-2.09066 -0.7168,-0.1792 -1.49333,-0.47787 -1.49333,-1.17973 0,-0.64214 0.65706,-1.06027 1.37386,-1.06027 0.79146,0 1.58293,0.23894 2.24,0.672 v -0.6272 c -0.65707,-0.43306 -1.44854,-0.672 -2.24,-0.672 -1.2992,0 -2.49386,0.79147 -2.49386,2.00107 0,1.09013 1.2096,1.59786 2.35946,1.88159 0.79147,0.19413 1.6128,0.61227 1.6128,1.37387 0,0.70186 -0.7168,1.13493 -1.4784,1.13493 -0.92586,0 -1.82186,-0.224 -2.61333,-0.672 v 0.6272 c 0.79147,0.448 1.68747,0.67199 2.61333,0.67199 1.344,0 2.59839,-0.80639 2.59839,-2.06079 z"
             style="font-size:14.9333px;line-height:1.25"
             id="path642" />
          <path
             d="m -120.6156,139.30182 v -0.14933 c 0,-2.1056 -1.14987,-3.50933 -2.88213,-3.50933 -1.74719,0 -2.89706,1.40373 -2.89706,3.50933 0,2.10559 1.14987,3.50932 2.89706,3.50932 0.74667,0 1.4784,-0.23893 2.09066,-0.67199 v -0.6272 c -0.70186,0.448 -1.26933,0.61226 -2.09066,0.61226 -1.26933,0 -1.58293,-1.20959 -1.58293,-2.67306 z m -1.31413,-0.6272 h -3.15093 c 0,-1.19466 0.50773,-2.40426 1.58293,-2.40426 1.06027,0 1.568,1.2096 1.568,2.40426 z"
             style="font-size:14.9333px;line-height:1.25"
             id="path644" />
          <path
             d="m -113.26844,142.51248 v -4.85332 c 0,-1.09013 -0.83626,-2.016 -1.91146,-2.016 -0.896,0 -1.68746,0.50774 -2.3296,1.13493 v -0.98559 h -1.16479 v 6.71998 h 1.16479 v -5.27145 c 0.50774,-0.50774 1.13493,-0.91093 1.8368,-0.91093 0.70186,0 1.23946,0.61226 1.23946,1.32906 v 4.85332 z"
             style="font-size:14.9333px;line-height:1.25"
             id="path646" />
          <path
             d="m -107.78794,141.98982 v -0.448 c -0.23893,0.23893 -0.52267,0.43306 -0.86613,0.43306 -0.5376,0 -0.56747,-0.70186 -0.56747,-1.32906 v -4.22612 h 1.4336 v -0.6272 h -1.4336 v -2.24 h -0.70186 c 0,1.19467 -0.68693,2.31466 -1.77707,2.31466 v 0.55254 h 1.31414 v 4.22612 c 0,0.9856 0.31359,2.01599 1.16479,2.01599 0.55253,0 1.0304,-0.29866 1.4336,-0.67199 z"
             style="font-size:14.9333px;line-height:1.25"
             id="path648" />
          <path
             d="m -102.42691,136.71836 v -0.92586 c -0.16427,-0.0597 -0.34347,-0.10454 -0.50773,-0.10454 -0.83627,0 -1.50827,0.5824 -2.04586,1.22453 v -1.11999 h -1.1648 v 6.71998 h 1.1648 v -4.97279 c 0.44799,-0.52266 1.01546,-0.97066 1.70239,-0.97066 0.28373,0 0.5824,0.0597 0.8512,0.14933 z"
             style="font-size:14.9333px;line-height:1.25"
             id="path650" />
          <path
             d="m -95.527739,139.30182 v -0.14933 c 0,-2.1056 -1.149864,-3.50933 -2.882127,-3.50933 -1.747194,0 -2.897064,1.40373 -2.897064,3.50933 0,2.10559 1.14987,3.50932 2.897064,3.50932 0.746665,0 1.478397,-0.23893 2.090662,-0.67199 v -0.6272 c -0.701865,0.448 -1.269331,0.61226 -2.090662,0.61226 -1.269331,0 -1.58293,-1.20959 -1.58293,-2.67306 z m -1.314131,-0.6272 h -3.150926 c 0,-1.19466 0.507732,-2.40426 1.58293,-2.40426 1.060264,0 1.567996,1.2096 1.567996,2.40426 z m 0.0448,-6.61545 h -1.343997 c 0,1.00053 -0.313599,1.98613 -0.895998,2.79253 h 0.627199 c 0.791465,-0.79147 1.612796,-1.67253 1.612796,-2.79253 z"
             style="font-size:14.9333px;line-height:1.25"
             id="path652" />
          <path
             d="m -88.180575,139.30182 v -0.14933 c 0,-2.1056 -1.149864,-3.50933 -2.882127,-3.50933 -1.747196,0 -2.89706,1.40373 -2.89706,3.50933 0,2.10559 1.149864,3.50932 2.89706,3.50932 0.746665,0 1.478397,-0.23893 2.090662,-0.67199 v -0.6272 c -0.701865,0.448 -1.26933,0.61226 -2.090662,0.61226 -1.26933,0 -1.58293,-1.20959 -1.58293,-2.67306 z m -1.31413,-0.6272 h -3.150927 c 0,-1.19466 0.507733,-2.40426 1.58293,-2.40426 1.060264,0 1.567997,1.2096 1.567997,2.40426 z"
             style="font-size:14.9333px;line-height:1.25"
             id="path654" />
          <path
             d="m -81.699542,140.60102 c 0,-1.17973 -1.254397,-1.792 -2.478928,-2.09066 -0.716798,-0.1792 -1.49333,-0.47787 -1.49333,-1.17973 0,-0.64214 0.657065,-1.06027 1.373864,-1.06027 0.791464,0 1.582929,0.23894 2.239995,0.672 v -0.6272 c -0.657066,-0.43306 -1.448531,-0.672 -2.239995,-0.672 -1.299198,0 -2.493862,0.79147 -2.493862,2.00107 0,1.09013 1.209598,1.59786 2.359462,1.88159 0.791465,0.19413 1.612796,0.61227 1.612796,1.37387 0,0.70186 -0.716798,1.13493 -1.478396,1.13493 -0.925865,0 -1.821863,-0.224 -2.613328,-0.672 v 0.6272 c 0.791465,0.448 1.687463,0.67199 2.613328,0.67199 1.343997,0 2.598394,-0.80639 2.598394,-2.06079 z"
             style="font-size:14.9333px;line-height:1.25"
             id="path656" />
        </g>
      </g>
    </g>
    <g
       aria-label="s*"
       id="text3441"
       style="font-size:12.8px;line-height:0%;font-family:Purisa;-inkscape-font-specification:Purisa;letter-spacing:0px;word-spacing:0px;stroke-width:1.06667">
      <path
         d="m 479.02031,225.00537 c 0,-2.0224 -2.1504,-3.072 -4.2496,-3.584 -1.2288,-0.3072 -2.56,-0.8192 -2.56,-2.0224 0,-1.1008 1.1264,-1.8176 2.3552,-1.8176 1.3568,0 2.7136,0.4096 3.84,1.152 v -1.0752 c -1.1264,-0.7424 -2.4832,-1.152 -3.84,-1.152 -2.2272,0 -4.2752,1.3568 -4.2752,3.4304 0,1.8688 2.0736,2.7392 4.0448,3.2256 1.3568,0.3328 2.7648,1.0496 2.7648,2.3552 0,1.2032 -1.2288,1.9456 -2.5344,1.9456 -1.5872,0 -3.1232,-0.384 -4.48,-1.152 v 1.0752 c 1.3568,0.768 2.8928,1.152 4.48,1.152 2.304,0 4.4544,-1.3824 4.4544,-3.5328 z"
         style="font-size:25.6px;line-height:1.25;font-family:Iwona;-inkscape-font-specification:Iwona"
         id="path659" />
      <path
         d="m 485.72748,209.51737 -1.7408,0.9984 c 0.3584,0.7936 0.512,1.664 0.4352,2.5344 l 0.6144,-0.3584 c 0.2816,-1.0496 0.512,-2.0992 0.6912,-3.1744 z m -1.3824,4.4032 v -0.7168 c -0.768,-0.768 -1.5616,-1.4848 -2.4064,-2.176 v 1.9968 c 0.8704,0.1024 1.6896,0.4096 2.4064,0.896 z m 0.6912,0.512 -0.6144,-0.3584 c -1.024,0.2816 -2.0736,0.6144 -3.072,0.9984 l 1.7408,0.9984 c 0.4864,-0.6912 1.1776,-1.2544 1.9456,-1.6384 z m 1.2544,2.176 c -0.3584,-0.7936 -0.512,-1.664 -0.4352,-2.5344 l -0.6144,0.3584 c -0.2816,1.0496 -0.512,2.0992 -0.6912,3.1744 z m 2.048,-0.5376 v -1.9968 c -0.8704,-0.0768 -1.6896,-0.384 -2.3808,-0.8704 v 0.7168 c 0.7424,0.768 1.536,1.4848 2.3808,2.1504 z m 0.5888,-4.0192 -1.7408,-0.9984 c -0.4864,0.6912 -1.1776,1.2544 -1.9456,1.6384 l 0.6144,0.3584 c 1.024,-0.2816 2.0736,-0.6144 3.072,-0.9984 z"
         style="font-size:25.6px;line-height:1.25;font-family:Iwona;-inkscape-font-specification:Iwona"
         id="path661" />
    </g>
    <g
       aria-label="s"
       id="text3445"
       style="font-size:12.8px;line-height:0%;font-family:Purisa;-inkscape-font-specification:Purisa;text-align:end;letter-spacing:0px;word-spacing:0px;text-anchor:end;stroke-width:1.06667">
      <path
         d="m 381.1088,225.00537 c 0,-2.0224 -2.1504,-3.072 -4.2496,-3.584 -1.2288,-0.3072 -2.56,-0.8192 -2.56,-2.0224 0,-1.1008 1.1264,-1.8176 2.3552,-1.8176 1.3568,0 2.7136,0.4096 3.84,1.152 v -1.0752 c -1.1264,-0.7424 -2.4832,-1.152 -3.84,-1.152 -2.2272,0 -4.2752,1.3568 -4.2752,3.4304 0,1.8688 2.0736,2.7392 4.0448,3.2256 1.3568,0.3328 2.7648,1.0496 2.7648,2.3552 0,1.2032 -1.2288,1.9456 -2.5344,1.9456 -1.5872,0 -3.1232,-0.384 -4.48,-1.152 v 1.0752 c 1.3568,0.768 2.8928,1.152 4.48,1.152 2.304,0 4.4544,-1.3824 4.4544,-3.5328 z"
         style="font-size:25.6px;line-height:1.25;font-family:Iwona;-inkscape-font-specification:Iwona"
         id="path664" />
    </g>
    <path
       style="fill:none;fill-rule:evenodd;stroke:#000000;stroke-width:1.06583;stroke-linecap:butt;stroke-linejoin:miter;stroke-miterlimit:4;stroke-dasharray:none;stroke-opacity:1;marker-end:url(#marker61042)"
       d="M 389.81984,235.84122 H 344.4655 v -64.25197 h 41.57481"
       id="path61040" />
    <path
       id="path81463"
       d="M 389.81984,243.40028 H 336.90645 V 164.0302 h 46.25204"
       style="fill:none;fill-rule:evenodd;stroke:#000000;stroke-width:1.06583;stroke-linecap:butt;stroke-linejoin:miter;stroke-miterlimit:4;stroke-dasharray:none;stroke-opacity:1;marker-end:url(#marker81465)" />
    <path
       style="fill:none;fill-rule:evenodd;stroke:#000000;stroke-width:1.06583;stroke-linecap:butt;stroke-linejoin:miter;stroke-miterlimit:4;stroke-dasharray:none;stroke-opacity:1;marker-end:url(#marker83097)"
       d="m 389.81984,250.95933 h -60.47245 v -94.48819 h 52.91339"
       id="path83095" />
    <g
       id="g92133"
       transform="translate(-0.1850838,2.0871783)">
      <path
         id="path2796"
         d="m 386.22539,105.2501 c -11.33858,-18.897641 18.89764,-37.795273 37.79527,-18.897641 18.89764,-18.897632 49.13387,0 37.79529,18.897641 22.67716,0 22.67716,45.35433 0,45.35433 11.33858,18.89764 -18.89765,37.79527 -37.79529,18.89764 -18.89763,18.89763 -49.13385,0 -37.79527,-18.89764 -22.67717,0 -22.67717,-45.35433 0,-45.35433 z"
         style="fill:#d5f6ff;fill-rule:evenodd;stroke:#000000;stroke-width:1.06667px;stroke-linecap:butt;stroke-linejoin:miter;stroke-opacity:1" />
      <g
         aria-label="Comb"
         id="text4312-6"
         style="font-size:12.8px;line-height:0%;font-family:Iwona;-inkscape-font-specification:Iwona;text-align:center;letter-spacing:0px;word-spacing:0px;text-anchor:middle;stroke-width:1.06667px">
        <path
           d="m 410.47086,123.55926 v -1.296 c -1.296,-1.872 -3.432,-2.976 -5.688,-2.976 -4.872,0 -7.512,3.552 -7.512,8.64 0,5.088 2.64,8.64 7.512,8.64 1.872,0 3.72,-0.552 5.304,-1.584 v -1.104 c -1.584,1.032 -3.432,1.584 -5.304,1.584 -3.768,0 -5.16,-3.336 -5.16,-7.536 0,-4.2 1.392,-7.536 5.16,-7.536 2.304,0 4.464,1.2 5.688,3.168 z"
           style="font-size:24px;line-height:1.25"
           id="path667" />
        <path
           d="m 421.51082,130.92726 c 0,-3.672 -1.632,-5.64 -4.632,-5.64 -3.024,0 -4.656,1.968 -4.656,5.64 0,3.672 1.632,5.64 4.656,5.64 3,0 4.632,-1.968 4.632,-5.64 z m -2.112,0 c 0,3 -0.888,4.632 -2.52,4.632 -1.656,0 -2.544,-1.632 -2.544,-4.632 0,-3 0.888,-4.632 2.544,-4.632 1.632,0 2.52,1.632 2.52,4.632 z"
           style="font-size:24px;line-height:1.25"
           id="path669" />
        <path
           d="m 437.85481,136.32726 v -7.8 c 0,-1.68 -0.984,-3.24 -2.544,-3.24 -1.344,0 -2.592,0.696 -3.312,1.824 -0.384,-1.056 -1.2,-1.824 -2.304,-1.824 -1.248,0 -2.256,0.864 -3.072,1.824 v -1.584 h -1.872 v 10.8 h 1.872 v -8.496 c 0.576,-0.744 1.296,-1.44 2.232,-1.44 0.984,0 1.512,1.056 1.512,2.136 v 7.8 h 1.872 v -7.8 c 0,-0.288 -0.024,-0.552 -0.072,-0.84 0.576,-0.744 1.368,-1.296 2.304,-1.296 0.984,0 1.512,1.056 1.512,2.136 v 7.8 z"
           style="font-size:24px;line-height:1.25"
           id="path671" />
        <path
           d="m 450.86277,130.92726 c 0,-3.192 -1.2,-5.64 -4.104,-5.64 -1.224,0 -2.352,0.552 -3.312,1.32 v -7.08 h -1.872 v 16.8 h 1.872 v -0.552 c 0.912,0.48 1.92,0.792 2.952,0.792 3,0 4.464,-2.4 4.464,-5.64 z m -2.112,0 c 0,2.256 -0.696,4.632 -2.664,4.632 -0.936,0 -1.848,-0.312 -2.64,-0.792 v -7.152 c 0.72,-0.72 1.608,-1.32 2.64,-1.32 2.184,0 2.664,2.112 2.664,4.632 z"
           style="font-size:24px;line-height:1.25"
           id="path673" />
      </g>
    </g>
    <path
       id="path9336"
       d="M 491.86707,345.44752 V 300.09319 H 454.0718"
       style="fill:none;fill-rule:evenodd;stroke:#000000;stroke-width:1.06583;stroke-linecap:butt;stroke-linejoin:miter;stroke-miterlimit:4;stroke-dasharray:none;stroke-opacity:1;marker-start:none;marker-end:url(#marker7037)" />
    <g
       transform="translate(173.67318,-107.51912)"
       id="g12500">
      <path
         style="fill:none;fill-rule:evenodd;stroke:#000000;stroke-width:1.06667px;stroke-linecap:butt;stroke-linejoin:miter;stroke-opacity:1"
         d="m 272.83956,479.42333 h 7.55906 V 460.5257 h 18.89763 v 18.89763 h 18.89764 V 460.5257 h 18.89764 v 18.89763 h 18.89763 V 460.5257 h 7.55906"
         id="path10933" />
      <path
         style="fill:none;fill-rule:evenodd;stroke:#ff0000;stroke-width:1.06667px;stroke-linecap:butt;stroke-linejoin:miter;stroke-opacity:1;marker-end:url(#marker10197C-9)"
         d="m 280.39862,475.6438 v -7.55905"
         id="path10935" />
      <path
         id="path12496"
         d="m 318.19389,475.6438 v -7.55905"
         style="fill:none;fill-rule:evenodd;stroke:#ff0000;stroke-width:1.06667px;stroke-linecap:butt;stroke-linejoin:miter;stroke-opacity:1;marker-end:url(#marker10197I-3)" />
      <path
         style="fill:none;fill-rule:evenodd;stroke:#ff0000;stroke-width:1.06667px;stroke-linecap:butt;stroke-linejoin:miter;stroke-opacity:1;marker-end:url(#marker10197E-4)"
         d="m 355.98916,475.64381 v -7.55905"
         id="path12498" />
    </g>
    <g
       id="g12538"
       transform="translate(-387.47566,-28.149035)">
      <path
         style="fill:#ffd5f6;fill-rule:evenodd;stroke:#000000;stroke-width:1.06667px;stroke-linecap:butt;stroke-linejoin:miter;stroke-opacity:1"
         d="m 837.76794,339.58081 -44.36419,64.25198 -171.06889,-10e-6 c -3.77953,0 -3.77953,3.77953 -3.77953,3.77953 v 34.01574 c 0,0 0,3.77953 3.67289,3.77953 l 196.64207,1e-5 c 3.77953,0 3.77953,-3.77953 3.77953,-3.77953 v -34.01575 c 0,0 0,-3.77953 -3.77953,-3.77953 l -17.90748,10e-6 z"
         id="path12540" />
      <g
         id="g12542"
         transform="translate(777.63233,276.43841)">
        <g
           aria-label="L'état est mis à jour à chaque
front montant de clk."
           id="text12544"
           style="font-size:12.8px;line-height:0%;font-family:Iwona;-inkscape-font-specification:Iwona;stroke-width:1.06667">
          <path
             d="m -145.97224,142.51248 v -0.68693 h -4.74879 v -9.76638 h -1.22453 v 10.45331 z"
             style="font-size:14.9333px;line-height:1.25"
             id="path676" />
          <path
             d="m -144.4192,135.55356 v -3.49439 h -0.68693 v 3.49439 z"
             style="font-size:14.9333px;line-height:1.25"
             id="path678" />
          <path
             d="m -137.25122,139.30182 v -0.14933 c 0,-2.1056 -1.14986,-3.50933 -2.88212,-3.50933 -1.7472,0 -2.89706,1.40373 -2.89706,3.50933 0,2.10559 1.14986,3.50932 2.89706,3.50932 0.74666,0 1.47839,-0.23893 2.09066,-0.67199 v -0.6272 c -0.70187,0.448 -1.26933,0.61226 -2.09066,0.61226 -1.26933,0 -1.58293,-1.20959 -1.58293,-2.67306 z m -1.31413,-0.6272 h -3.15092 c 0,-1.19466 0.50773,-2.40426 1.58293,-2.40426 1.06026,0 1.56799,1.2096 1.56799,2.40426 z m 0.0448,-6.61545 h -1.34399 c 0,1.00053 -0.3136,1.98613 -0.896,2.79253 h 0.6272 c 0.79146,-0.79147 1.61279,-1.67253 1.61279,-2.79253 z"
             style="font-size:14.9333px;line-height:1.25"
             id="path680" />
          <path
             d="m -132.14405,141.98982 v -0.448 c -0.23893,0.23893 -0.52266,0.43306 -0.86613,0.43306 -0.5376,0 -0.56747,-0.70186 -0.56747,-1.32906 v -4.22612 h 1.4336 v -0.6272 h -1.4336 v -2.24 h -0.70186 c 0,1.19467 -0.68693,2.31466 -1.77706,2.31466 v 0.55254 h 1.31413 v 4.22612 c 0,0.9856 0.3136,2.01599 1.16479,2.01599 0.55254,0 1.0304,-0.29866 1.4336,-0.67199 z"
             style="font-size:14.9333px;line-height:1.25"
             id="path682" />
          <path
             d="m -125.24488,142.51248 v -4.18132 c 0,-1.40373 -0.86614,-2.688 -2.16533,-2.688 -0.95573,0 -1.85173,0.32854 -2.65813,0.83627 v 0.46293 c 0.672,-0.37333 1.41866,-0.61226 2.1952,-0.61226 0.92586,0 1.46346,0.98559 1.46346,2.00106 v 0.2688 c -0.5824,-0.25387 -1.2096,-0.4032 -1.8368,-0.4032 -1.59786,0 -2.77759,0.73173 -2.77759,2.23999 0,1.4336 1.04533,2.22506 2.55359,2.22506 0.7616,0 1.46347,-0.34346 2.0608,-0.82133 v 0.672 z m -1.1648,-1.2992 c -0.448,0.448 -1.00053,0.82134 -1.64266,0.82134 -1.00054,0 -1.6576,-0.61227 -1.6576,-1.59787 0,-0.91093 0.74666,-1.61279 1.6576,-1.61279 0.56746,0 1.13493,0.14933 1.64266,0.4032 z"
             style="font-size:14.9333px;line-height:1.25"
             id="path684" />
          <path
             d="m -119.68971,141.98982 v -0.448 c -0.23893,0.23893 -0.52267,0.43306 -0.86613,0.43306 -0.5376,0 -0.56747,-0.70186 -0.56747,-1.32906 v -4.22612 h 1.4336 v -0.6272 h -1.4336 v -2.24 h -0.70186 c 0,1.19467 -0.68693,2.31466 -1.77706,2.31466 v 0.55254 h 1.31413 v 4.22612 c 0,0.9856 0.31359,2.01599 1.16479,2.01599 0.55254,0 1.0304,-0.29866 1.4336,-0.67199 z"
             style="font-size:14.9333px;line-height:1.25"
             id="path686" />
          <path
             d="m -107.66845,139.30182 v -0.14933 c 0,-2.1056 -1.14986,-3.50933 -2.88212,-3.50933 -1.7472,0 -2.89707,1.40373 -2.89707,3.50933 0,2.10559 1.14987,3.50932 2.89707,3.50932 0.74666,0 1.47839,-0.23893 2.09066,-0.67199 v -0.6272 c -0.70187,0.448 -1.26933,0.61226 -2.09066,0.61226 -1.26934,0 -1.58293,-1.20959 -1.58293,-2.67306 z m -1.31413,-0.6272 h -3.15092 c 0,-1.19466 0.50773,-2.40426 1.58293,-2.40426 1.06026,0 1.56799,1.2096 1.56799,2.40426 z"
             style="font-size:14.9333px;line-height:1.25"
             id="path688" />
          <path
             d="m -101.18742,140.60102 c 0,-1.17973 -1.2544,-1.792 -2.47893,-2.09066 -0.7168,-0.1792 -1.49333,-0.47787 -1.49333,-1.17973 0,-0.64214 0.65707,-1.06027 1.37387,-1.06027 0.79146,0 1.58293,0.23894 2.23999,0.672 v -0.6272 c -0.65706,-0.43306 -1.44853,-0.672 -2.23999,-0.672 -1.2992,0 -2.49386,0.79147 -2.49386,2.00107 0,1.09013 1.20959,1.59786 2.35946,1.88159 0.79146,0.19413 1.61279,0.61227 1.61279,1.37387 0,0.70186 -0.7168,1.13493 -1.47839,1.13493 -0.92587,0 -1.82187,-0.224 -2.61333,-0.672 v 0.6272 c 0.79146,0.448 1.68746,0.67199 2.61333,0.67199 1.34399,0 2.59839,-0.80639 2.59839,-2.06079 z"
             style="font-size:14.9333px;line-height:1.25"
             id="path690" />
          <path
             d="m -96.154911,141.98982 v -0.448 c -0.238932,0.23893 -0.522665,0.43306 -0.866131,0.43306 -0.537599,0 -0.567465,-0.70186 -0.567465,-1.32906 v -4.22612 h 1.433596 v -0.6272 h -1.433596 v -2.24 h -0.701866 c 0,1.19467 -0.686931,2.31466 -1.777067,2.31466 v 0.55254 h 1.314135 v 4.22612 c 0,0.9856 0.313599,2.01599 1.164798,2.01599 0.552532,0 1.030397,-0.29866 1.433596,-0.67199 z"
             style="font-size:14.9333px;line-height:1.25"
             id="path692" />
          <path
             d="m -81.385923,142.51248 v -4.85332 c 0,-1.04533 -0.612265,-2.016 -1.58293,-2.016 -0.836265,0 -1.612796,0.43307 -2.060795,1.13493 -0.238933,-0.65706 -0.746665,-1.13493 -1.433597,-1.13493 -0.776532,0 -1.40373,0.5376 -1.911463,1.13493 v -0.98559 h -1.164797 v 6.71998 h 1.164797 v -5.28639 c 0.3584,-0.46293 0.806399,-0.89599 1.388797,-0.89599 0.612266,0 0.940798,0.65706 0.940798,1.32906 v 4.85332 h 1.164798 v -4.85332 c 0,-0.1792 -0.01493,-0.34347 -0.0448,-0.52267 0.358399,-0.46293 0.851198,-0.80639 1.433597,-0.80639 0.612265,0 0.940797,0.65706 0.940797,1.32906 v 4.85332 z"
             style="font-size:14.9333px;line-height:1.25"
             id="path694" />
          <path
             d="m -76.338495,141.98982 v -0.448 c -0.283733,0.23893 -0.612265,0.43306 -0.985598,0.43306 -0.552532,0 -0.657065,-0.68693 -0.657065,-1.32906 v -4.85332 h -1.164798 v 4.85332 c 0,1.00053 0.388266,2.01599 1.269331,2.01599 0.567465,0 1.105064,-0.28373 1.53813,-0.67199 z m -1.49333,-8.52692 c 0,-0.4032 -0.328533,-0.73173 -0.731732,-0.73173 -0.403199,0 -0.731732,0.32853 -0.731732,0.73173 0,0.4032 0.328533,0.73173 0.731732,0.73173 0.403199,0 0.731732,-0.32853 0.731732,-0.73173 z"
             style="font-size:14.9333px;line-height:1.25"
             id="path696" />
          <path
             d="m -70.305453,140.60102 c 0,-1.17973 -1.254398,-1.792 -2.478928,-2.09066 -0.716799,-0.1792 -1.49333,-0.47787 -1.49333,-1.17973 0,-0.64214 0.657065,-1.06027 1.373863,-1.06027 0.791465,0 1.58293,0.23894 2.239995,0.672 v -0.6272 c -0.657065,-0.43306 -1.44853,-0.672 -2.239995,-0.672 -1.299197,0 -2.493861,0.79147 -2.493861,2.00107 0,1.09013 1.209598,1.59786 2.359462,1.88159 0.791465,0.19413 1.612796,0.61227 1.612796,1.37387 0,0.70186 -0.716798,1.13493 -1.478397,1.13493 -0.925864,0 -1.821862,-0.224 -2.613327,-0.672 v 0.6272 c 0.791465,0.448 1.687463,0.67199 2.613327,0.67199 1.343997,0 2.598395,-0.80639 2.598395,-2.06079 z"
             style="font-size:14.9333px;line-height:1.25"
             id="path698" />
          <path
             d="m -58.20952,142.51248 v -4.18132 c 0,-1.40373 -0.866131,-2.688 -2.165328,-2.688 -0.955732,0 -1.85173,0.32854 -2.658128,0.83627 v 0.46293 c 0.671999,-0.37333 1.418664,-0.61226 2.195195,-0.61226 0.925865,0 1.463464,0.98559 1.463464,2.00106 v 0.2688 c -0.582399,-0.25387 -1.209598,-0.4032 -1.836796,-0.4032 -1.597863,0 -2.777594,0.73173 -2.777594,2.23999 0,1.4336 1.045331,2.22506 2.553594,2.22506 0.761599,0 1.463464,-0.34346 2.060796,-0.82133 v 0.672 z m -1.164797,-1.2992 c -0.447999,0.448 -1.000531,0.82134 -1.642663,0.82134 -1.000531,0 -1.657597,-0.61227 -1.657597,-1.59787 0,-0.91093 0.746665,-1.61279 1.657597,-1.61279 0.567465,0 1.13493,0.14933 1.642663,0.4032 z m -0.836265,-6.36158 c -0.582399,-0.8064 -0.895998,-1.792 -0.895998,-2.79253 h -1.343997 c 0,1.12 0.821331,2.00106 1.612796,2.79253 z"
             style="font-size:14.9333px;line-height:1.25"
             id="path700" />
          <path
             d="m -49.682645,144.08048 v -8.28798 h -1.164798 v 8.28798 c 0,0.6272 -0.05973,1.32906 -0.597332,1.32906 -0.328532,0 -0.627198,-0.1792 -0.881064,-0.4032 v 0.46294 c 0.418132,0.35839 0.910931,0.62719 1.44853,0.62719 0.866131,0 1.194664,-1.03039 1.194664,-2.01599 z m 0.149333,-10.61758 c 0,-0.4032 -0.328533,-0.73173 -0.731732,-0.73173 -0.403199,0 -0.731732,0.32853 -0.731732,0.73173 0,0.4032 0.328533,0.73173 0.731732,0.73173 0.403199,0 0.731732,-0.32853 0.731732,-0.73173 z"
             style="font-size:14.9333px;line-height:1.25"
             id="path702" />
          <path
             d="m -41.88748,139.15249 c 0,-2.2848 -1.015465,-3.50933 -2.882127,-3.50933 -1.881596,0 -2.89706,1.22453 -2.89706,3.50933 0,2.28479 1.015464,3.50932 2.89706,3.50932 1.866662,0 2.882127,-1.22453 2.882127,-3.50932 z m -1.314131,0 c 0,1.86666 -0.552532,2.88213 -1.567996,2.88213 -1.030398,0 -1.58293,-1.01547 -1.58293,-2.88213 0,-1.86666 0.552532,-2.88213 1.58293,-2.88213 1.015464,0 1.567996,1.01547 1.567996,2.88213 z"
             style="font-size:14.9333px;line-height:1.25"
             id="path704" />
          <path
             d="M -34.540302,142.51248 V 135.7925 H -35.7051 v 5.27145 c -0.507732,0.50773 -1.134931,0.91093 -1.836796,0.91093 -0.701865,0 -1.239464,-0.61226 -1.239464,-1.32906 v -4.85332 h -1.164797 v 4.85332 c 0,1.09013 0.836265,2.01599 1.911462,2.01599 0.895998,0 1.687463,-0.50773 2.329595,-1.13493 v 0.9856 z"
             style="font-size:14.9333px;line-height:1.25"
             id="path706" />
          <path
             d="m -28.432609,136.71836 v -0.92586 c -0.164267,-0.0597 -0.343466,-0.10454 -0.507732,-0.10454 -0.836265,0 -1.508264,0.5824 -2.045863,1.22453 v -1.11999 h -1.164797 v 6.71998 h 1.164797 v -4.97279 c 0.447999,-0.52266 1.015465,-0.97066 1.702397,-0.97066 0.283732,0 0.582398,0.0597 0.851198,0.14933 z"
             style="font-size:14.9333px;line-height:1.25"
             id="path708" />
          <path
             d="m -16.710008,142.51248 v -4.18132 c 0,-1.40373 -0.866132,-2.688 -2.165329,-2.688 -0.955731,0 -1.851729,0.32854 -2.658127,0.83627 v 0.46293 c 0.671998,-0.37333 1.418663,-0.61226 2.195195,-0.61226 0.925865,0 1.463463,0.98559 1.463463,2.00106 v 0.2688 c -0.582398,-0.25387 -1.209597,-0.4032 -1.836796,-0.4032 -1.597863,0 -2.777593,0.73173 -2.777593,2.23999 0,1.4336 1.045331,2.22506 2.553594,2.22506 0.761598,0 1.463463,-0.34346 2.060795,-0.82133 v 0.672 z m -1.164798,-1.2992 c -0.447999,0.448 -1.000531,0.82134 -1.642663,0.82134 -1.000531,0 -1.657596,-0.61227 -1.657596,-1.59787 0,-0.91093 0.746665,-1.61279 1.657596,-1.61279 0.567466,0 1.134931,0.14933 1.642663,0.4032 z m -0.836264,-6.36158 c -0.582399,-0.8064 -0.895998,-1.792 -0.895998,-2.79253 h -1.343997 c 0,1.12 0.821331,2.00106 1.612796,2.79253 z"
             style="font-size:14.9333px;line-height:1.25"
             id="path710" />
          <path
             d="m -4.5095341,137.34556 v -0.6272 c -0.4778656,-0.672 -1.2543972,-1.0752 -2.090662,-1.0752 -1.8666625,0 -3.1210597,1.40373 -3.1210597,3.50933 0,2.10559 1.2543972,3.50932 3.1210597,3.50932 0.7765316,0 1.5082633,-0.38826 1.941329,-1.03039 v -0.6272 c -0.5077322,0.7616 -1.0303977,1.0304 -1.941329,1.0304 -1.0751976,0 -1.8069293,-1.14987 -1.8069293,-2.88213 0,-1.73226 0.7317317,-2.88213 1.8069293,-2.88213 0.9258646,0 1.5530632,0.32853 2.090662,1.0752 z"
             style="font-size:14.9333px;line-height:1.25"
             id="path712" />
          <path
             d="m 2.4643034,142.51248 v -4.85332 c 0,-1.09013 -0.8362648,-2.016 -1.9114624,-2.016 -0.89599801,0 -1.6874629,0.50774 -2.3295948,1.13493 v -4.71892 h -1.1647974 v 10.45331 h 1.1647974 v -5.27145 c 0.5077322,-0.50774 1.13493079,-0.91093 1.8367959,-0.91093 0.7018651,0 1.2394639,0.61226 1.2394639,1.32906 v 4.85332 z"
             style="font-size:14.9333px;line-height:1.25"
             id="path714" />
          <path
             d="m 10.03546,142.51248 v -4.18132 c 0,-1.40373 -0.8661315,-2.688 -2.1653286,-2.688 -0.9557312,0 -1.8517292,0.32854 -2.6581274,0.83627 v 0.46293 c 0.6719985,-0.37333 1.4186635,-0.61226 2.1951951,-0.61226 0.9258646,0 1.4634634,0.98559 1.4634634,2.00106 v 0.2688 c -0.5823987,-0.25387 -1.2095973,-0.4032 -1.8367959,-0.4032 -1.5978631,0 -2.7775938,0.73173 -2.7775938,2.23999 0,1.4336 1.045331,2.22506 2.5535943,2.22506 0.7615983,0 1.4634634,-0.34346 2.0607954,-0.82133 v 0.672 z m -1.1647975,-1.2992 c -0.447999,0.448 -1.0005311,0.82134 -1.642663,0.82134 -1.0005311,0 -1.6575963,-0.61227 -1.6575963,-1.59787 0,-0.91093 0.746665,-1.61279 1.6575963,-1.61279 0.5674654,0 1.1349308,0.14933 1.642663,0.4032 z"
             style="font-size:14.9333px;line-height:1.25"
             id="path716" />
          <path
             d="M 17.830621,145.94714 V 135.7925 h -1.164797 v 0.25386 c -0.582399,-0.25386 -1.209598,-0.4032 -1.836796,-0.4032 -1.866663,0 -2.777594,1.49333 -2.777594,3.50933 0,1.98613 0.746665,3.50932 2.553594,3.50932 0.761599,0 1.463464,-0.34346 2.060796,-0.82133 v 4.10666 z m -1.164797,-4.73386 c -0.447999,0.448 -1.000531,0.82134 -1.642663,0.82134 -1.358931,0 -1.657597,-1.31413 -1.657597,-2.88213 0,-1.40373 0.433066,-2.88213 1.657597,-2.88213 0.567465,0 1.134931,0.14934 1.642663,0.4032 z"
             style="font-size:14.9333px;line-height:1.25"
             id="path718" />
          <path
             d="m 25.551136,142.51248 v -6.71998 h -1.164797 v 5.27145 c -0.507733,0.50773 -1.134931,0.91093 -1.836796,0.91093 -0.701865,0 -1.239464,-0.61226 -1.239464,-1.32906 v -4.85332 h -1.164798 v 4.85332 c 0,1.09013 0.836265,2.01599 1.911463,2.01599 0.895998,0 1.687463,-0.50773 2.329595,-1.13493 v 0.9856 z"
             style="font-size:14.9333px;line-height:1.25"
             id="path720" />
          <path
             d="m 33.346292,139.30182 v -0.14933 c 0,-2.1056 -1.149864,-3.50933 -2.882127,-3.50933 -1.747196,0 -2.89706,1.40373 -2.89706,3.50933 0,2.10559 1.149864,3.50932 2.89706,3.50932 0.746665,0 1.478397,-0.23893 2.090662,-0.67199 v -0.6272 c -0.701865,0.448 -1.26933,0.61226 -2.090662,0.61226 -1.26933,0 -1.58293,-1.20959 -1.58293,-2.67306 z m -1.31413,-0.6272 h -3.150927 c 0,-1.19466 0.507732,-2.40426 1.58293,-2.40426 1.060264,0 1.567997,1.2096 1.567997,2.40426 z"
             style="font-size:14.9333px;line-height:1.25"
             id="path722" />
          <path
             d="m -149.25756,151.69646 v -0.46293 c -0.448,-0.37333 -0.9856,-0.65707 -1.568,-0.65707 -0.86613,0 -1.26933,1.01547 -1.26933,2.016 v 1.86666 h -1.04533 v 0.6272 h 1.04533 v 6.09279 h 1.1648 v -6.09279 h 1.04533 v -0.6272 h -1.04533 v -1.86666 c 0,-0.64213 0.11946,-1.32906 0.67199,-1.32906 0.37334,0 0.7168,0.1792 1.00054,0.43306 z"
             style="font-size:14.9333px;line-height:1.25"
             id="path724" />
          <path
             d="m -144.67305,155.38499 v -0.92587 c -0.16427,-0.0597 -0.34347,-0.10453 -0.50773,-0.10453 -0.83627,0 -1.50827,0.5824 -2.04586,1.22453 v -1.12 h -1.1648 v 6.71999 h 1.1648 v -4.97279 c 0.44799,-0.52267 1.01546,-0.97067 1.70239,-0.97067 0.28373,0 0.5824,0.0597 0.8512,0.14934 z"
             style="font-size:14.9333px;line-height:1.25"
             id="path726" />
          <path
             d="m -137.77388,157.81911 c 0,-2.28479 -1.01546,-3.50932 -2.88213,-3.50932 -1.88159,0 -2.89706,1.22453 -2.89706,3.50932 0,2.2848 1.01547,3.50933 2.89706,3.50933 1.86667,0 2.88213,-1.22453 2.88213,-3.50933 z m -1.31413,0 c 0,1.86667 -0.55253,2.88213 -1.568,2.88213 -1.0304,0 -1.58293,-1.01546 -1.58293,-2.88213 0,-1.86666 0.55253,-2.88212 1.58293,-2.88212 1.01547,0 1.568,1.01546 1.568,2.88212 z"
             style="font-size:14.9333px;line-height:1.25"
             id="path728" />
          <path
             d="m -130.35203,161.17911 v -4.85333 c 0,-1.09013 -0.83627,-2.01599 -1.91147,-2.01599 -0.89599,0 -1.68746,0.50773 -2.32959,1.13493 v -0.9856 h -1.1648 v 6.71999 h 1.1648 v -5.27146 c 0.50773,-0.50773 1.13493,-0.91093 1.83679,-0.91093 0.70187,0 1.23947,0.61227 1.23947,1.32906 v 4.85333 z"
             style="font-size:14.9333px;line-height:1.25"
             id="path730" />
          <path
             d="m -124.87154,160.65644 v -0.448 c -0.23893,0.23894 -0.52266,0.43307 -0.86613,0.43307 -0.5376,0 -0.56746,-0.70187 -0.56746,-1.32907 v -4.22612 h 1.43359 v -0.6272 h -1.43359 v -2.23999 h -0.70187 c 0,1.19466 -0.68693,2.31466 -1.77706,2.31466 v 0.55253 h 1.31413 v 4.22612 c 0,0.9856 0.3136,2.016 1.1648,2.016 0.55253,0 1.03039,-0.29867 1.43359,-0.672 z"
             style="font-size:14.9333px;line-height:1.25"
             id="path732" />
          <path
             d="m -110.10255,161.17911 v -4.85333 c 0,-1.04533 -0.61227,-2.01599 -1.58293,-2.01599 -0.83627,0 -1.6128,0.43306 -2.0608,1.13493 -0.23893,-0.65707 -0.74666,-1.13493 -1.43359,-1.13493 -0.77654,0 -1.40373,0.5376 -1.91147,1.13493 v -0.9856 h -1.16479 v 6.71999 h 1.16479 v -5.28639 c 0.3584,-0.46293 0.8064,-0.896 1.3888,-0.896 0.61227,0 0.9408,0.65707 0.9408,1.32906 v 4.85333 h 1.1648 v -4.85333 c 0,-0.1792 -0.0149,-0.34346 -0.0448,-0.52266 0.35839,-0.46293 0.85119,-0.8064 1.43359,-0.8064 0.61227,0 0.9408,0.65707 0.9408,1.32906 v 4.85333 z"
             style="font-size:14.9333px;line-height:1.25"
             id="path734" />
          <path
             d="m -102.38206,157.81911 c 0,-2.28479 -1.01546,-3.50932 -2.88213,-3.50932 -1.88159,0 -2.89706,1.22453 -2.89706,3.50932 0,2.2848 1.01547,3.50933 2.89706,3.50933 1.86667,0 2.88213,-1.22453 2.88213,-3.50933 z m -1.31413,0 c 0,1.86667 -0.55253,2.88213 -1.568,2.88213 -1.03039,0 -1.58293,-1.01546 -1.58293,-2.88213 0,-1.86666 0.55254,-2.88212 1.58293,-2.88212 1.01547,0 1.568,1.01546 1.568,2.88212 z"
             style="font-size:14.9333px;line-height:1.25"
             id="path736" />
          <path
             d="m -94.960215,161.17911 v -4.85333 c 0,-1.09013 -0.836265,-2.01599 -1.911463,-2.01599 -0.895998,0 -1.687462,0.50773 -2.329594,1.13493 v -0.9856 h -1.164798 v 6.71999 h 1.164798 v -5.27146 c 0.507732,-0.50773 1.13493,-0.91093 1.836796,-0.91093 0.701865,0 1.239463,0.61227 1.239463,1.32906 v 4.85333 z"
             style="font-size:14.9333px;line-height:1.25"
             id="path738" />
          <path
             d="m -89.479717,160.65644 v -0.448 c -0.238933,0.23894 -0.522665,0.43307 -0.866131,0.43307 -0.537599,0 -0.567466,-0.70187 -0.567466,-1.32907 v -4.22612 h 1.433597 v -0.6272 h -1.433597 v -2.23999 h -0.701865 c 0,1.19466 -0.686932,2.31466 -1.777062,2.31466 v 0.55253 h 1.31413 v 4.22612 c 0,0.9856 0.313599,2.016 1.164797,2.016 0.552532,0 1.030398,-0.29867 1.433597,-0.672 z"
             style="font-size:14.9333px;line-height:1.25"
             id="path740" />
          <path
             d="m -82.580553,161.17911 v -4.18133 c 0,-1.40373 -0.866131,-2.68799 -2.165328,-2.68799 -0.955731,0 -1.851729,0.32853 -2.658128,0.83626 v 0.46294 c 0.671999,-0.37334 1.418664,-0.61227 2.195196,-0.61227 0.925864,0 1.463463,0.9856 1.463463,2.00106 v 0.2688 c -0.582399,-0.25386 -1.209597,-0.4032 -1.836796,-0.4032 -1.597863,0 -2.777594,0.73173 -2.777594,2.24 0,1.43359 1.045331,2.22506 2.553595,2.22506 0.761598,0 1.463463,-0.34347 2.060795,-0.82133 v 0.672 z m -1.164797,-1.2992 c -0.447999,0.448 -1.000531,0.82133 -1.642663,0.82133 -1.000531,0 -1.657596,-0.61226 -1.657596,-1.59786 0,-0.91093 0.746665,-1.6128 1.657596,-1.6128 0.567465,0 1.134931,0.14933 1.642663,0.4032 z"
             style="font-size:14.9333px;line-height:1.25"
             id="path742" />
          <path
             d="m -74.785384,161.17911 v -4.85333 c 0,-1.09013 -0.836265,-2.01599 -1.911462,-2.01599 -0.895998,0 -1.687463,0.50773 -2.329595,1.13493 v -0.9856 h -1.164797 v 6.71999 h 1.164797 v -5.27146 c 0.507732,-0.50773 1.134931,-0.91093 1.836796,-0.91093 0.701865,0 1.239464,0.61227 1.239464,1.32906 v 4.85333 z"
             style="font-size:14.9333px;line-height:1.25"
             id="path744" />
          <path
             d="m -69.304889,160.65644 v -0.448 c -0.238933,0.23894 -0.522666,0.43307 -0.866132,0.43307 -0.537598,0 -0.567465,-0.70187 -0.567465,-1.32907 v -4.22612 h 1.433597 v -0.6272 h -1.433597 v -2.23999 h -0.701865 c 0,1.19466 -0.686932,2.31466 -1.777063,2.31466 v 0.55253 h 1.31413 v 4.22612 c 0,0.9856 0.3136,2.016 1.164798,2.016 0.552532,0 1.030398,-0.29867 1.433597,-0.672 z"
             style="font-size:14.9333px;line-height:1.25"
             id="path746" />
          <path
             d="M -57.283629,161.17911 V 150.7258 h -1.164797 v 3.98719 c -0.582399,-0.25387 -1.209598,-0.4032 -1.836796,-0.4032 -1.866663,0 -2.777594,1.49333 -2.777594,3.50932 0,1.98613 0.746665,3.50933 2.553594,3.50933 0.761598,0 1.463464,-0.34347 2.060796,-0.82133 v 0.672 z m -1.164797,-1.2992 c -0.447999,0.448 -1.000532,0.82133 -1.642663,0.82133 -1.358931,0 -1.657597,-1.31413 -1.657597,-2.88213 0,-1.40373 0.433066,-2.88212 1.657597,-2.88212 0.567465,0 1.13493,0.14933 1.642663,0.4032 z"
             style="font-size:14.9333px;line-height:1.25"
             id="path748" />
          <path
             d="m -49.488455,157.96845 v -0.14934 c 0,-2.10559 -1.149864,-3.50932 -2.882127,-3.50932 -1.747196,0 -2.89706,1.40373 -2.89706,3.50932 0,2.1056 1.149864,3.50933 2.89706,3.50933 0.746665,0 1.478396,-0.23893 2.090662,-0.672 v -0.6272 c -0.701865,0.448 -1.269331,0.61227 -2.090662,0.61227 -1.269331,0 -1.58293,-1.2096 -1.58293,-2.67306 z m -1.314131,-0.6272 h -3.150926 c 0,-1.19467 0.507732,-2.40426 1.58293,-2.40426 1.060264,0 1.567996,1.20959 1.567996,2.40426 z"
             style="font-size:14.9333px;line-height:1.25"
             id="path750" />
          <path
             d="m -37.735997,156.01218 v -0.62719 c -0.477866,-0.672 -1.254398,-1.0752 -2.090662,-1.0752 -1.866663,0 -3.12106,1.40373 -3.12106,3.50932 0,2.1056 1.254397,3.50933 3.12106,3.50933 0.776531,0 1.508263,-0.38827 1.941329,-1.0304 v -0.6272 c -0.507733,0.7616 -1.030398,1.0304 -1.941329,1.0304 -1.075198,0 -1.80693,-1.14986 -1.80693,-2.88213 0,-1.73226 0.731732,-2.88212 1.80693,-2.88212 0.925864,0 1.553063,0.32853 2.090662,1.07519 z"
             style="font-size:14.9333px;line-height:1.25"
             id="path752" />
          <path
             d="m -33.360554,160.65644 v -0.448 c -0.283733,0.23894 -0.612265,0.43307 -0.985598,0.43307 -0.552532,0 -0.657065,-0.68693 -0.657065,-1.32907 v -8.58664 h -1.164798 v 8.58664 c 0,1.00054 0.388266,2.016 1.269331,2.016 0.567465,0 1.105064,-0.28373 1.53813,-0.672 z"
             style="font-size:14.9333px;line-height:1.25"
             id="path754" />
          <path
             d="m -26.088061,161.17911 -3.464526,-3.98719 3.345059,-2.7328 h -0.925864 l -3.569059,2.92693 v -6.66025 h -1.164798 v 10.45331 h 1.164798 v -3.71839 l 3.225593,3.71839 z"
             style="font-size:14.9333px;line-height:1.25"
             id="path756" />
          <path
             d="m -23.609149,160.44738 c 0,-0.4032 -0.328532,-0.73174 -0.731731,-0.73174 -0.4032,0 -0.731732,0.32854 -0.731732,0.73174 0,0.40319 0.328532,0.73173 0.731732,0.73173 0.403199,0 0.731731,-0.32854 0.731731,-0.73173 z"
             style="font-size:14.9333px;line-height:1.25"
             id="path758" />
        </g>
      </g>
    </g>
  </g>
</svg>
