<?xml version="1.0" encoding="UTF-8" standalone="no"?>
<!-- Created with Inkscape (http://www.inkscape.org/) -->

<svg
   width="31.454765mm"
   height="38.95396mm"
   id="svg2"
   version="1.0"
   xmlns="http://www.w3.org/2000/svg"
   xmlns:svg="http://www.w3.org/2000/svg"
   xmlns:rdf="http://www.w3.org/1999/02/22-rdf-syntax-ns#"
   xmlns:cc="http://creativecommons.org/ns#"
   xmlns:dc="http://purl.org/dc/elements/1.1/">
  <defs
     id="defs4">
    <marker
       style="overflow:visible"
       id="marker10953"
       refX="0"
       refY="0"
       orient="auto">
      <path
         d="M -5.5798962,-2.5815905 1.4126653,-0.01024849 -5.5798966,2.561093 c 1.117119,-1.518119 1.1106821,-3.5951692 4e-7,-5.1426835 z"
         style="font-size:12px;fill:#000000;fill-opacity:1;fill-rule:evenodd;stroke:#000000;stroke-width:0.40000001;stroke-linejoin:round;stroke-opacity:1"
         id="path10955" />
    </marker>
    <marker
       style="overflow:visible"
       id="marker9869"
       refX="0"
       refY="0"
       orient="auto">
      <path
         d="M -5.5798962,-2.5815905 1.4126653,-0.01024849 -5.5798966,2.561093 c 1.117119,-1.518119 1.1106821,-3.5951692 4e-7,-5.1426835 z"
         style="font-size:12px;fill:#000000;fill-opacity:1;fill-rule:evenodd;stroke:#000000;stroke-width:0.40000001;stroke-linejoin:round;stroke-opacity:1"
         id="path9871" />
    </marker>
    <marker
       style="overflow:visible"
       id="marker8791"
       refX="0"
       refY="0"
       orient="auto">
      <path
         d="M -5.5798962,-2.5815905 1.4126653,-0.01024849 -5.5798966,2.561093 c 1.117119,-1.518119 1.1106821,-3.5951692 4e-7,-5.1426835 z"
         style="font-size:12px;fill:#000000;fill-opacity:1;fill-rule:evenodd;stroke:#000000;stroke-width:0.40000001;stroke-linejoin:round;stroke-opacity:1"
         id="path8793" />
    </marker>
    <marker
       style="overflow:visible"
       id="marker7719"
       refX="0"
       refY="0"
       orient="auto">
      <path
         d="M -5.5798962,-2.5815905 1.4126653,-0.01024849 -5.5798966,2.561093 c 1.117119,-1.518119 1.1106821,-3.5951692 4e-7,-5.1426835 z"
         style="font-size:12px;fill:#000000;fill-opacity:1;fill-rule:evenodd;stroke:#000000;stroke-width:0.40000001;stroke-linejoin:round;stroke-opacity:1"
         id="path7721" />
    </marker>
    <marker
       style="overflow:visible"
       id="marker6653"
       refX="0"
       refY="0"
       orient="auto">
      <path
         d="M -5.5798962,-2.5815905 1.4126653,-0.01024849 -5.5798966,2.561093 c 1.117119,-1.518119 1.1106821,-3.5951692 4e-7,-5.1426835 z"
         style="font-size:12px;fill:#000000;fill-opacity:1;fill-rule:evenodd;stroke:#000000;stroke-width:0.40000001;stroke-linejoin:round;stroke-opacity:1"
         id="path6655" />
    </marker>
    <marker
       orient="auto"
       refY="0"
       refX="0"
       id="Arrow2Mend"
       style="overflow:visible">
      <path
         id="path3203"
         style="font-size:12px;fill:#000000;fill-opacity:1;fill-rule:evenodd;stroke:#000000;stroke-width:0.40000001;stroke-linejoin:round;stroke-opacity:1"
         d="M -5.5798962,-2.5815905 1.4126653,-0.01024849 -5.5798966,2.561093 c 1.117119,-1.518119 1.1106821,-3.5951692 4e-7,-5.1426835 z" />
    </marker>
  </defs>
  <metadata
     id="metadata7">
    <rdf:RDF>
      <cc:Work
         rdf:about="">
        <dc:format>image/svg+xml</dc:format>
        <dc:type
           rdf:resource="http://purl.org/dc/dcmitype/StillImage" />
        <dc:title />
      </cc:Work>
    </rdf:RDF>
  </metadata>
  <g
     id="layer1"
     transform="translate(-216.14664,933.05415)">
    <g
       id="g10880"
       transform="translate(104.22761,-905.48789)">
      <path
         id="rect9030"
         style="fill:#ffeeaa;stroke:#000000;stroke-width:1.06583"
         d="M 138.37573,-1.1095587 H 202.6277 V 93.378631 h -64.25197 z" />
      <g
         id="g10852"
         transform="translate(296.75319,-116.67821)">
        <g
           aria-label="D"
           id="text10854"
           style="font-size:12.8px;line-height:0%;font-family:Iwona;-inkscape-font-specification:Iwona;stroke-width:1.06667">
          <path
             d="m -145.16998,138.03248 c 0,-2.7392 -1.4976,-4.608 -4.1344,-4.608 -0.7936,0 -1.5872,0.0384 -2.368,0.128 h -1.024 v 8.96 h 1.024 c 0.7808,0.0896 1.5744,0.128 2.368,0.128 2.6368,0 4.1344,-1.8688 4.1344,-4.608 z m -1.2544,0 c 0,2.0352 -1.0368,4.0192 -2.88,4.0192 -0.7808,0 -1.5616,-0.0384 -2.3424,-0.128 v -7.7824 c 0.7808,-0.0896 1.5616,-0.128 2.3424,-0.128 1.8432,0 2.88,1.984 2.88,4.0192 z"
             style="line-height:1.25"
             id="path426" />
        </g>
      </g>
      <g
         id="g10860"
         transform="translate(303.15321,-71.811021)">
        <g
           aria-label="CLK"
           id="text10862"
           style="font-size:12.8px;line-height:0%;font-family:Iwona;-inkscape-font-specification:Iwona;stroke-width:1.06667">
          <path
             d="m -145.63089,135.70288 v -0.6912 c -0.6912,-0.9984 -1.8304,-1.5872 -3.0336,-1.5872 -2.5984,0 -4.0064,1.8944 -4.0064,4.608 0,2.7136 1.408,4.608 4.0064,4.608 0.9984,0 1.984,-0.2944 2.8288,-0.8448 v -0.5888 c -0.8448,0.5504 -1.8304,0.8448 -2.8288,0.8448 -2.0096,0 -2.752,-1.7792 -2.752,-4.0192 0,-2.24 0.7424,-4.0192 2.752,-4.0192 1.2288,0 2.3808,0.64 3.0336,1.6896 z"
             style="line-height:1.25"
             id="path429" />
          <path
             d="m -138.8469,142.51248 v -0.5888 h -4.0704 v -8.3712 h -1.0496 v 8.96 z"
             style="line-height:1.25"
             id="path431" />
          <path
             d="m -129.78451,142.51248 -5.6704,-5.0688 5.3632,-3.8912 h -1.0112 l -5.1584,3.7504 v -3.7504 h -1.0496 v 8.96 h 1.0496 v -4.3776 l 4.9024,4.3776 z"
             style="line-height:1.25"
             id="path433" />
        </g>
      </g>
      <g
         aria-label="Q"
         id="text10868"
         style="font-size:12.8px;line-height:0%;font-family:Iwona;-inkscape-font-specification:Iwona;stroke-width:1.06667">
        <path
           d="m 196.84318,21.35427 c 0,-2.7136 -1.408,-4.608 -3.9936,-4.608 -2.5984,0 -4.0064,1.8944 -4.0064,4.608 0,2.7136 1.408,4.608 4.0064,4.608 0.0896,1.0368 0.9472,1.830401 1.9968,1.830401 0.6528,0 0.832,-0.0384 1.4336,-0.3072 V 27.10147 c -0.2944,0.1664 -0.6144,0.256 -0.96,0.256 -1.1648,0 -1.6256,-0.4096 -1.6384,-1.472 2.048,-0.3584 3.1616,-2.1248 3.1616,-4.5312 z m -1.2544,0 c 0,2.24 -0.7424,4.0192 -2.7392,4.0192 -2.0096,0 -2.752,-1.7792 -2.752,-4.0192 0,-2.24 0.7424,-4.0192 2.752,-4.0192 1.9968,0 2.7392,1.7792 2.7392,4.0192 z"
           style="line-height:1.25"
           id="path436" />
      </g>
      <g
         transform="translate(346.33422,-71.811021)"
         id="g10872">
        <g
           aria-label="Q"
           id="text10874"
           style="font-size:12.8px;line-height:0%;font-family:Iwona;-inkscape-font-specification:Iwona;stroke-width:1.06667">
          <path
             d="m -149.43888,138.03248 c 0,-2.7136 -1.408,-4.608 -3.9936,-4.608 -2.5984,0 -4.0064,1.8944 -4.0064,4.608 0,2.7136 1.408,4.608 4.0064,4.608 0.0896,1.0368 0.9472,1.8304 1.9968,1.8304 0.6528,0 0.832,-0.0384 1.4336,-0.3072 v -0.384 c -0.2944,0.1664 -0.6144,0.256 -0.96,0.256 -1.1648,0 -1.6256,-0.4096 -1.6384,-1.472 2.048,-0.3584 3.1616,-2.1248 3.1616,-4.5312 z m -1.2544,0 c 0,2.24 -0.7424,4.0192 -2.7392,4.0192 -2.0096,0 -2.752,-1.7792 -2.752,-4.0192 0,-2.24 0.7424,-4.0192 2.752,-4.0192 1.9968,0 2.7392,1.7792 2.7392,4.0192 z"
             style="line-height:1.25;text-align:center;text-anchor:middle"
             id="path439" />
        </g>
        <path
           style="fill:none;stroke:#000000;stroke-width:1.06667px;stroke-linecap:butt;stroke-linejoin:miter;stroke-opacity:1"
           d="m -156.77778,131.1739 h 7.55905"
           id="path10878" />
      </g>
      <path
         style="fill:none;stroke:#000000;stroke-width:1.06667px;stroke-linecap:butt;stroke-linejoin:miter;stroke-opacity:1"
         d="m 138.81636,59.362881 7.55906,7.559055 -7.55906,7.559055"
         id="path14967" />
      <g
         transform="translate(319.66681,-130.79498)"
         id="g3238">
        <g
           aria-label="S"
           id="text3240"
           style="font-size:12.8px;line-height:0%;font-family:Iwona;-inkscape-font-specification:Iwona;text-align:center;text-anchor:middle;stroke-width:1.06667">
          <path
             d="m -145.79559,139.91408 c 0,-1.5744 -1.6,-2.5088 -3.2512,-2.8544 -1.1008,-0.2304 -2.3424,-0.512 -2.3424,-1.536 0,-1.0112 1.088,-1.5872 2.2144,-1.5872 1.0368,0 2.048,0.3072 2.8672,0.9472 v -0.512 c -0.8192,-0.64 -1.8304,-1.024 -2.8672,-1.024 -1.664,0 -3.2256,0.9344 -3.2256,2.4448 0,1.4464 1.5616,2.176 3.0848,2.496 1.216,0.256 2.5088,0.7552 2.5088,1.8944 0,1.1648 -1.1392,1.9456 -2.368,1.9456 -1.1904,0 -2.368,-0.3072 -3.3664,-0.9472 v 0.512 c 1.0112,0.64 2.1632,1.024 3.3664,1.024 1.7664,0 3.3792,-1.1392 3.3792,-2.8032 z"
             style="line-height:1.25"
             id="path442" />
        </g>
      </g>
      <g
         id="g3267"
         transform="translate(315.86652,-53.400522)">
        <g
           aria-label="R"
           id="text3269"
           style="font-size:12.8px;line-height:0%;font-family:Iwona;-inkscape-font-specification:Iwona;text-align:center;text-anchor:middle;stroke-width:1.06667">
          <path
             d="m -141.8173,142.51248 -2.7264,-4.0576 c 1.3952,-0.2688 2.3552,-1.0368 2.3552,-2.4704 0,-1.8048 -1.5488,-2.56 -3.5584,-2.56 -0.7168,0 -1.4336,0.0384 -2.1376,0.128 h -1.024 v 8.96 h 1.0496 v -4.16 c 0.6912,0.128 1.408,0.2048 2.112,0.2048 l 2.6752,3.9552 z m -1.6256,-6.528 c 0,1.1648 -1.088,1.984 -2.304,1.984 -0.704,0 -1.4208,-0.0768 -2.112,-0.2048 v -3.6224 c 0.704,-0.0896 1.408,-0.128 2.112,-0.128 1.216,0 2.304,0.8192 2.304,1.9712 z"
             style="line-height:1.25"
             id="path445" />
        </g>
      </g>
    </g>
    <path
       style="fill:none;stroke:#000000;stroke-width:1.06583;stroke-linecap:butt;stroke-linejoin:miter;stroke-miterlimit:4;stroke-dasharray:none;stroke-opacity:1;marker-end:url(#marker8791)"
       d="m 223.7057,-883.92029 h 18.89764"
       id="path3458" />
    <path
       id="path3460"
       d="m 306.85531,-883.92029 h 18.89764"
       style="fill:none;stroke:#000000;stroke-width:1.06583;stroke-linecap:butt;stroke-linejoin:miter;stroke-miterlimit:4;stroke-dasharray:none;stroke-opacity:1;marker-end:url(#marker10953)" />
    <path
       style="fill:none;stroke:#000000;stroke-width:1.06583;stroke-linecap:butt;stroke-linejoin:miter;stroke-miterlimit:4;stroke-dasharray:none;stroke-opacity:1;marker-end:url(#Arrow2Mend)"
       d="m 306.85532,-838.56595 h 18.89764"
       id="path3462" />
    <path
       id="path3464"
       d="m 223.70571,-838.56595 h 18.89764"
       style="fill:none;stroke:#000000;stroke-width:1.06583;stroke-linecap:butt;stroke-linejoin:miter;stroke-miterlimit:4;stroke-dasharray:none;stroke-opacity:1;marker-end:url(#marker7719)" />
    <path
       id="path3244"
       d="m 274.72932,-925.49509 v 18.89764"
       style="fill:none;stroke:#000000;stroke-width:1.06583;stroke-linecap:butt;stroke-linejoin:miter;stroke-miterlimit:4;stroke-dasharray:none;stroke-opacity:1;marker-end:url(#marker9869)" />
    <path
       style="fill:none;stroke:#000000;stroke-width:1.06583;stroke-linecap:butt;stroke-linejoin:miter;stroke-miterlimit:4;stroke-dasharray:none;stroke-opacity:1;marker-end:url(#marker6653)"
       d="m 274.72932,-793.38564 v -18.89765"
       id="path3273" />
  </g>
</svg>
