<?xml version="1.0" encoding="UTF-8" standalone="no"?>
<!-- Created with Inkscape (http://www.inkscape.org/) -->

<svg
   width="128.11636mm"
   height="32.000019mm"
   viewBox="0 0 453.95562 113.38589"
   id="svg10086"
   version="1.1"
   xmlns="http://www.w3.org/2000/svg"
   xmlns:svg="http://www.w3.org/2000/svg"
   xmlns:rdf="http://www.w3.org/1999/02/22-rdf-syntax-ns#"
   xmlns:cc="http://creativecommons.org/ns#"
   xmlns:dc="http://purl.org/dc/elements/1.1/">
  <defs
     id="defs10088" />
  <metadata
     id="metadata10091">
    <rdf:RDF>
      <cc:Work
         rdf:about="">
        <dc:format>image/svg+xml</dc:format>
        <dc:type
           rdf:resource="http://purl.org/dc/dcmitype/StillImage" />
        <dc:title />
      </cc:Work>
    </rdf:RDF>
  </metadata>
  <g
     id="layer1"
     transform="translate(-63.367237,-159.44882)">
    <path
       id="rect3423"
       style="fill:#ffb380"
       d="m 457.08661,166.53543 h 7.08662 v 99.21266 h -7.08662 z" />
    <path
       id="rect3425"
       style="fill:#ffb380"
       d="m 386.22046,166.53543 h 7.08661 v 99.21266 h -7.08661 z" />
    <g
       id="g235156"
       transform="translate(-890.65684,-1591.6741)" />
    <path
       id="rect3444"
       style="fill:#ffb380"
       d="m 315.35434,166.53543 h 7.08663 v 99.21266 h -7.08663 z" />
    <path
       id="rect3442"
       style="fill:#ffb380"
       d="m 244.48819,166.53543 h 7.08661 v 99.21266 h -7.08661 z" />
    <path
       id="rect265683-0"
       style="fill:#ffb380"
       d="m 173.62204,166.53545 h 7.08661 v 99.21265 h -7.08661 z" />
    <path
       id="path235054"
       d="m 106.29921,170.07874 h 35.43307 v 21.25984 h 35.43307 l 0.23508,-21.25984 h 35.198 l -1e-5,21.25984 h 35.198 l 0.23508,-21.25984 h 35.43307 v 21.25984 h 35.19799 l 0.23508,-21.25984 h 35.43307 v 21.25984 h 35.43307 v -21.25984 h 35.43307 v 21.25984 h 35.43307 v -21.25984 h 35.43307 v 21.25984 h 14.17323"
       style="fill:none;stroke:#000000;stroke-width:1.5;stroke-linecap:butt;stroke-linejoin:miter;stroke-miterlimit:4;stroke-dasharray:none;stroke-opacity:1" />
    <path
       id="path235058"
       d="m 106.29921,226.77165 h 21.25985 l 7.0866,-21.2599 h 134.64568 l 7.0866,21.2599 63.77954,-1e-4 7.0867,-21.2598 h 63.77944 l 7.0866,21.2598 92.126,1e-4"
       style="fill:none;stroke:#000000;stroke-width:1.5;stroke-linecap:butt;stroke-linejoin:miter;stroke-miterlimit:4;stroke-dasharray:none;stroke-opacity:1" />
    <path
       id="path235060"
       d="m 106.29921,262.20475 74.40945,4e-5 7.0866,-21.2599 c 0.23509,2e-5 134.64568,2e-5 134.64568,2e-5 l 7.08661,21.25984 63.77954,-3e-5 7.08661,-21.25984 h 63.77953 l 7.08661,21.25984 h 38.97638"
       style="fill:none;stroke:#000000;stroke-width:1.5;stroke-linecap:butt;stroke-linejoin:miter;stroke-miterlimit:4;stroke-dasharray:none;stroke-opacity:1" />
    <g
       aria-label="CLK"
       id="text235084"
       style="line-height:0%;font-family:Iwona;-inkscape-font-specification:Sans;text-align:end;letter-spacing:0px;word-spacing:0px;text-anchor:end">
      <path
         d="m 79.244634,179.2833 v -0.864 c -0.864,-1.248 -2.288,-1.984 -3.792,-1.984 -3.248,0 -5.008,2.368 -5.008,5.76 0,3.392 1.76,5.76 5.008,5.76 1.248,0 2.48,-0.368 3.536,-1.056 v -0.736 c -1.056,0.688 -2.288,1.056 -3.536,1.056 -2.512,0 -3.44,-2.224 -3.44,-5.024 0,-2.8 0.928,-5.024 3.44,-5.024 1.536,0 2.976,0.8 3.792,2.112 z"
         style="font-size:16px;line-height:1.25"
         id="path28" />
      <path
         d="m 87.724625,187.7953 v -0.736 h -5.088 v -10.464 h -1.312 v 11.2 z"
         style="font-size:16px;line-height:1.25"
         id="path30" />
      <path
         d="m 99.052601,187.7953 -7.088,-6.336 6.704,-4.864 h -1.264 l -6.448,4.688 v -4.688 h -1.312 v 11.2 h 1.312 v -5.472 l 6.128,5.472 z"
         style="font-size:16px;line-height:1.25"
         id="path32" />
    </g>
    <g
       aria-label="D"
       id="text235088"
       style="line-height:0%;font-family:Iwona;-inkscape-font-specification:Sans;text-align:end;letter-spacing:0px;word-spacing:0px;text-anchor:end">
      <path
         d="m 98.252614,217.62829 c 0,-3.424 -1.872,-5.76 -5.168,-5.76 -0.992,0 -1.984,0.048 -2.96,0.16 h -1.28 v 11.2 h 1.28 c 0.976,0.112 1.968,0.16 2.96,0.16 3.296,0 5.168,-2.336 5.168,-5.76 z m -1.568,0 c 0,2.544 -1.296,5.024 -3.6,5.024 -0.976,0 -1.952,-0.048 -2.928,-0.16 v -9.728 c 0.976,-0.112 1.952,-0.16 2.928,-0.16 2.304,0 3.6,2.48 3.6,5.024 z"
         style="font-size:16px;line-height:1.25"
         id="path35" />
    </g>
    <g
       aria-label="Q"
       id="text235092"
       style="line-height:0%;font-family:Iwona;-inkscape-font-specification:Sans;text-align:end;letter-spacing:0px;word-spacing:0px;text-anchor:end">
      <path
         d="m 98.252618,253.06138 c 0,-3.392 -1.76,-5.76 -4.992,-5.76 -3.248,0 -5.008,2.368 -5.008,5.76 0,3.392 1.76,5.76 5.008,5.76 0.112,1.296 1.184,2.288 2.496,2.288 0.816,0 1.04,-0.048 1.792,-0.384 v -0.48 c -0.368,0.208 -0.768,0.32 -1.2,0.32 -1.456,0 -2.032,-0.512 -2.048,-1.84 2.56,-0.448 3.952,-2.656 3.952,-5.664 z m -1.568,0 c 0,2.8 -0.928,5.024 -3.424,5.024 -2.512,0 -3.44,-2.224 -3.44,-5.024 0,-2.8 0.928,-5.024 3.44,-5.024 2.496,0 3.424,2.224 3.424,5.024 z"
         style="font-size:16px;line-height:1.25"
         id="path38" />
    </g>
  </g>
</svg>
