<?xml version="1.0" encoding="UTF-8" standalone="no"?>
<!-- Created with Inkscape (http://www.inkscape.org/) -->

<svg
   width="117.18271mm"
   height="32.000015mm"
   viewBox="0 0 415.21432 113.38588"
   id="svg10086"
   version="1.1"
   xmlns="http://www.w3.org/2000/svg"
   xmlns:svg="http://www.w3.org/2000/svg"
   xmlns:rdf="http://www.w3.org/1999/02/22-rdf-syntax-ns#"
   xmlns:cc="http://creativecommons.org/ns#"
   xmlns:dc="http://purl.org/dc/elements/1.1/">
  <defs
     id="defs10088" />
  <metadata
     id="metadata10091">
    <rdf:RDF>
      <cc:Work
         rdf:about="">
        <dc:format>image/svg+xml</dc:format>
        <dc:type
           rdf:resource="http://purl.org/dc/dcmitype/StillImage" />
        <dc:title />
      </cc:Work>
    </rdf:RDF>
  </metadata>
  <g
     id="layer1"
     transform="translate(-84.156894,-159.44888)">
    <g
       id="g235156"
       transform="translate(-890.65684,-1591.6741)" />
    <path
       id="rect3444"
       style="fill:#ffb380"
       d="m 386.22046,166.53549 h 7.08663 v 99.21266 h -7.08663 z" />
    <path
       id="rect3442"
       style="fill:#ffb380"
       d="m 279.92126,166.53549 h 7.08661 v 99.21266 h -7.08661 z" />
    <path
       id="rect265683-0"
       style="fill:#ffb380"
       d="m 173.62204,166.53549 h 7.08661 v 99.21266 h -7.08661 z" />
    <path
       id="path235054"
       d="m 123.54556,191.33858 53.61979,4e-5 0.23508,-21.25984 h 52.91454 l -10e-6,21.25984 h 53.1496 l 0.23508,-21.25984 h 52.91454 v 21.25984 h 52.91452 l 0.23508,-21.25984 h 53.14961 v 21.25984 h 49.37122"
       style="fill:none;stroke:#000000;stroke-width:1.5;stroke-linecap:butt;stroke-linejoin:miter;stroke-miterlimit:4;stroke-dasharray:none;stroke-opacity:1" />
    <path
       id="path235058"
       d="m 123.54556,205.51178 h 17.95165 l 7.0866,21.2599 h 38.97639 l 7.0866,-21.2599 17.71655,1e-4 7.0867,21.2598 h 17.71646 l 7.0866,-21.2598 h 10.62993 l 7.08661,21.25981 h 7.08661 l 7.08662,-21.25984 h 35.43307 l 7.08661,21.25984 h 42.51969 l 7.08661,-21.25984 h 38.97638 l 7.08661,21.25984 h 14.17323 l 7.08662,-21.25984 h 28.34645 l 7.08662,21.25984 h 21.25984"
       style="fill:none;stroke:#000000;stroke-width:1.5;stroke-linecap:butt;stroke-linejoin:miter;stroke-miterlimit:4;stroke-dasharray:none;stroke-opacity:1" />
    <path
       id="path235060"
       d="m 123.54556,240.94498 57.1631,-10e-5 7.0866,21.2599 c 0.23509,-2e-5 45.15233,0 99.21262,-2e-5 l 7.08661,-21.25984 h 198.19012"
       style="fill:none;stroke:#000000;stroke-width:1.5;stroke-linecap:butt;stroke-linejoin:miter;stroke-miterlimit:4;stroke-dasharray:none;stroke-opacity:1" />
    <g
       aria-label="CLK"
       id="text235084"
       style="line-height:0%;font-family:Iwona;-inkscape-font-specification:Sans;text-align:end;letter-spacing:0px;word-spacing:0px;text-anchor:end">
      <path
         d="m 100.03429,179.28335 v -0.864 c -0.863998,-1.248 -2.287998,-1.984 -3.791998,-1.984 -3.248,0 -5.008,2.368 -5.008,5.76 0,3.392 1.76,5.76 5.008,5.76 1.248,0 2.48,-0.368 3.536,-1.056 v -0.736 c -1.056,0.688 -2.288,1.056 -3.536,1.056 -2.512,0 -3.44,-2.224 -3.44,-5.024 0,-2.8 0.928,-5.024 3.44,-5.024 1.536,0 2.976,0.8 3.791998,2.112 z"
         style="font-size:16px;line-height:1.25"
         id="path24" />
      <path
         d="m 108.51428,187.79535 v -0.736 h -5.088 v -10.464 h -1.312 v 11.2 z"
         style="font-size:16px;line-height:1.25"
         id="path26" />
      <path
         d="m 119.84226,187.79535 -7.088,-6.336 6.704,-4.864 h -1.264 l -6.448,4.688 v -4.688 h -1.312 v 11.2 h 1.312 v -5.472 l 6.128,5.472 z"
         style="font-size:16px;line-height:1.25"
         id="path28" />
    </g>
    <g
       aria-label="D"
       id="text235088"
       style="line-height:0%;font-family:Iwona;-inkscape-font-specification:Sans;text-align:end;letter-spacing:0px;word-spacing:0px;text-anchor:end">
      <path
         d="m 119.04227,217.62833 c 0,-3.424 -1.872,-5.76 -5.168,-5.76 -0.992,0 -1.984,0.048 -2.96,0.16 h -1.28 v 11.2 h 1.28 c 0.976,0.112 1.968,0.16 2.96,0.16 3.296,0 5.168,-2.336 5.168,-5.76 z m -1.568,0 c 0,2.544 -1.296,5.024 -3.6,5.024 -0.976,0 -1.952,-0.048 -2.928,-0.16 v -9.728 c 0.976,-0.112 1.952,-0.16 2.928,-0.16 2.304,0 3.6,2.48 3.6,5.024 z"
         style="font-size:16px;line-height:1.25"
         id="path31" />
    </g>
    <g
       aria-label="Q"
       id="text235092"
       style="line-height:0%;font-family:Iwona;-inkscape-font-specification:Sans;text-align:end;letter-spacing:0px;word-spacing:0px;text-anchor:end">
      <path
         d="m 119.04228,253.06141 c 0,-3.392 -1.76,-5.76 -4.992,-5.76 -3.248,0 -5.008,2.368 -5.008,5.76 0,3.392 1.76,5.76 5.008,5.76 0.112,1.296 1.184,2.288 2.496,2.288 0.816,0 1.04,-0.048 1.792,-0.384 v -0.48 c -0.368,0.208 -0.768,0.32 -1.2,0.32 -1.456,0 -2.032,-0.512 -2.048,-1.84 2.56,-0.448 3.952,-2.656 3.952,-5.664 z m -1.568,0 c 0,2.8 -0.928,5.024 -3.424,5.024 -2.512,0 -3.44,-2.224 -3.44,-5.024 0,-2.8 0.928,-5.024 3.44,-5.024 2.496,0 3.424,2.224 3.424,5.024 z"
         style="font-size:16px;line-height:1.25"
         id="path34" />
    </g>
  </g>
</svg>
