<?xml version="1.0" encoding="UTF-8" standalone="no"?>
<!-- Created with Inkscape (http://www.inkscape.org/) -->

<svg
   width="96.782944mm"
   height="45.719257mm"
   viewBox="0 0 342.93169 161.99737"
   id="svg9945"
   version="1.1"
   xmlns="http://www.w3.org/2000/svg"
   xmlns:svg="http://www.w3.org/2000/svg"
   xmlns:rdf="http://www.w3.org/1999/02/22-rdf-syntax-ns#"
   xmlns:cc="http://creativecommons.org/ns#"
   xmlns:dc="http://purl.org/dc/elements/1.1/">
  <defs
     id="defs9947">
    <marker
       style="overflow:visible"
       id="StopM"
       refX="0"
       refY="0"
       orient="auto">
      <path
         transform="scale(0.4)"
         style="fill:none;fill-opacity:0.75;fill-rule:evenodd;stroke:#000000;stroke-width:1.00000003pt"
         d="M 0,5.65 V -5.65"
         id="path278873" />
    </marker>
    <marker
       orient="auto"
       refY="0"
       refX="0"
       id="marker9715-1"
       style="overflow:visible">
      <path
         id="path9717-5"
         d="M 0,0 5,-5 -12.5,0 5,5 Z"
         style="fill-rule:evenodd;stroke:#000000;stroke-width:1.00000003pt;marker-start:none"
         transform="matrix(-0.4,0,0,-0.4,-4,0)" />
    </marker>
  </defs>
  <metadata
     id="metadata9950">
    <rdf:RDF>
      <cc:Work
         rdf:about="">
        <dc:format>image/svg+xml</dc:format>
        <dc:type
           rdf:resource="http://purl.org/dc/dcmitype/StillImage" />
        <dc:title />
      </cc:Work>
    </rdf:RDF>
  </metadata>
  <g
     id="layer1"
     transform="translate(-142.50158,-219.18507)">
    <path
       id="path275178"
       d="m 325.98425,226.72028 3.5433,-1e-4 v 131.1538 h -7.0866 v -109.8425 l 3.5433,-0.051 z"
       style="fill:#ff9955;fill-opacity:1;stroke:none" />
    <path
       d="m 177.16525,248.03148 h 148.819 v -21.2598 h 152.3622"
       style="fill:none;stroke:#000000;stroke-width:1px;stroke-linecap:butt;stroke-linejoin:miter;stroke-opacity:1"
       id="path275204" />
    <g
       aria-label="clk"
       id="text275206"
       style="line-height:0%;font-family:Iwona;-inkscape-font-specification:Iwona;text-align:end;letter-spacing:0px;word-spacing:0px;text-anchor:end">
      <path
         d="m 155.85872,235.61514 v -0.756 c -0.576,-0.81 -1.512,-1.296 -2.52,-1.296 -2.25,0 -3.762,1.692 -3.762,4.23 0,2.538 1.512,4.23 3.762,4.23 0.936,0 1.818,-0.468 2.34,-1.242 v -0.756 c -0.612,0.918 -1.242,1.242 -2.34,1.242 -1.296,0 -2.178,-1.386 -2.178,-3.474 0,-2.088 0.882,-3.474 2.178,-3.474 1.116,0 1.872,0.396 2.52,1.296 z"
         style="font-size:18px;line-height:1.25"
         id="path116" />
      <path
         d="m 161.1327,241.21314 v -0.54 c -0.342,0.288 -0.738,0.522 -1.188,0.522 -0.666,0 -0.792,-0.828 -0.792,-1.602 v -10.35 h -1.404 v 10.35 c 0,1.206 0.468,2.43 1.53,2.43 0.684,0 1.332,-0.342 1.854,-0.81 z"
         style="font-size:18px;line-height:1.25"
         id="path118" />
      <path
         d="m 169.89867,241.84314 -4.176,-4.806 4.032,-3.294 h -1.116 l -4.302,3.528 v -8.028 h -1.404 v 12.6 h 1.404 v -4.482 l 3.888,4.482 z"
         style="font-size:18px;line-height:1.25"
         id="path120" />
    </g>
    <g
       aria-label="Q"
       id="text275272"
       style="line-height:0%;font-family:Iwona;-inkscape-font-specification:Iwona;text-align:end;letter-spacing:0px;word-spacing:0px;text-anchor:end">
      <path
         d="m 168.99868,334.36589 c 0,-3.816 -1.98,-6.48 -5.616,-6.48 -3.654,0 -5.634,2.664 -5.634,6.48 0,3.816 1.98,6.48 5.634,6.48 0.126,1.458 1.332,2.574 2.808,2.574 0.918,0 1.17,-0.054 2.016,-0.432 v -0.54 c -0.414,0.234 -0.864,0.36 -1.35,0.36 -1.638,0 -2.286,-0.576 -2.304,-2.07 2.88,-0.504 4.446,-2.988 4.446,-6.372 z m -1.764,0 c 0,3.15 -1.044,5.652 -3.852,5.652 -2.826,0 -3.87,-2.502 -3.87,-5.652 0,-3.15 1.044,-5.652 3.87,-5.652 2.808,0 3.852,2.502 3.852,5.652 z"
         style="font-size:18px;line-height:1.25"
         id="path123" />
    </g>
    <g
       aria-label="D"
       id="text275212"
       style="line-height:0%;font-family:Iwona;-inkscape-font-specification:Iwona;text-align:end;letter-spacing:0px;word-spacing:0px;text-anchor:end">
      <path
         d="m 168.99867,298.93132 c 0,-3.852 -2.106,-6.48 -5.814,-6.48 -1.116,0 -2.232,0.054 -3.33,0.18 h -1.44 v 12.6 h 1.44 c 1.098,0.126 2.214,0.18 3.33,0.18 3.708,0 5.814,-2.628 5.814,-6.48 z m -1.764,0 c 0,2.862 -1.458,5.652 -4.05,5.652 -1.098,0 -2.196,-0.054 -3.294,-0.18 v -10.944 c 1.098,-0.126 2.196,-0.18 3.294,-0.18 2.592,0 4.05,2.79 4.05,5.652 z"
         style="font-size:18px;line-height:1.25"
         id="path126" />
    </g>
    <path
       style="fill:none;stroke:#000000;stroke-width:1px;stroke-linecap:butt;stroke-linejoin:miter;stroke-opacity:1;marker-start:url(#StopM);marker-end:url(#marker9715-1)"
       d="m 272.83465,283.46428 49.6063,2e-4"
       id="path275339" />
    <path
       id="path282317"
       d="m 325.98425,283.46448 h 31.8898"
       style="fill:none;stroke:#000000;stroke-width:1px;stroke-linecap:butt;stroke-linejoin:miter;stroke-opacity:1;marker-start:url(#StopM);marker-end:url(#marker9715-1)" />
    <path
       id="path282319"
       d="m 325.98425,354.33048 63.7796,2e-4"
       style="fill:none;stroke:#000000;stroke-width:1px;stroke-linecap:butt;stroke-linejoin:miter;stroke-opacity:1;marker-start:url(#StopM);marker-end:url(#marker9715-1)" />
    <g
       aria-label="tsu"
       id="text282321"
       style="line-height:0%;font-family:Purisa;-inkscape-font-specification:Purisa;letter-spacing:0px;word-spacing:0px">
      <path
         d="m 295.2233,275.81781 v -0.48 c -0.256,0.256 -0.56,0.464 -0.928,0.464 -0.576,0 -0.608,-0.752 -0.608,-1.424 v -4.528 h 1.536 v -0.672 h -1.536 v -2.4 h -0.752 c 0,1.28 -0.736,2.48 -1.904,2.48 v 0.592 h 1.408 v 4.528 c 0,1.056 0.336,2.16 1.248,2.16 0.592,0 1.104,-0.32 1.536,-0.72 z"
         style="font-size:16px;line-height:1.25;font-family:Iwona;-inkscape-font-specification:Iwona"
         id="path129" />
      <path
         d="m 299.69693,278.24659 c 0,-0.82161 -0.87361,-1.24802 -1.72642,-1.45602 -0.49921,-0.1248 -1.04002,-0.33281 -1.04002,-0.82161 0,-0.44721 0.45761,-0.73841 0.95682,-0.73841 0.55121,0 1.10241,0.1664 1.56002,0.468 v -0.4368 c -0.45761,-0.30161 -1.00881,-0.46801 -1.56002,-0.46801 -0.90481,0 -1.73683,0.55121 -1.73683,1.39362 0,0.75921 0.84242,1.11282 1.64323,1.31042 0.5512,0.1352 1.12321,0.4264 1.12321,0.95681 0,0.48881 -0.4992,0.79041 -1.02961,0.79041 -0.64481,0 -1.26882,-0.156 -1.82003,-0.468 v 0.4368 c 0.55121,0.31201 1.17522,0.46801 1.82003,0.46801 0.93601,0 1.80962,-0.56161 1.80962,-1.43522 z"
         style="font-size:65.0009%;baseline-shift:sub"
         id="path131" />
      <path
         d="m 304.70979,279.57781 v -4.68007 h -0.81121 v 3.67125 c -0.3536,0.35361 -0.79041,0.63441 -1.27922,0.63441 -0.4888,0 -0.86321,-0.4264 -0.86321,-0.92561 v -3.38005 h -0.81121 v 3.38005 c 0,0.75921 0.58241,1.40402 1.33122,1.40402 0.62401,0 1.17521,-0.35361 1.62242,-0.79041 v 0.68641 z"
         style="font-size:65.0009%;baseline-shift:sub"
         id="path133" />
    </g>
    <g
       aria-label="th"
       id="text282327"
       style="line-height:0%;font-family:Purisa;-inkscape-font-specification:Purisa;letter-spacing:0px;word-spacing:0px">
      <path
         d="m 344.8295,275.81781 v -0.48 c -0.256,0.256 -0.56,0.464 -0.928,0.464 -0.576,0 -0.608,-0.752 -0.608,-1.424 v -4.528 h 1.536 v -0.672 h -1.536 v -2.4 h -0.752 c 0,1.28 -0.736,2.48 -1.904,2.48 v 0.592 h 1.408 v 4.528 c 0,1.056 0.336,2.16 1.248,2.16 0.592,0 1.104,-0.32 1.536,-0.72 z"
         style="font-size:16px;line-height:1.25;font-family:Iwona;-inkscape-font-specification:Iwona"
         id="path136" />
      <path
         d="m 349.90634,279.57781 v -3.38005 c 0,-0.75921 -0.58241,-1.40402 -1.33122,-1.40402 -0.624,0 -1.17521,0.35361 -1.62242,0.79041 v -3.28644 h -0.81121 v 7.2801 h 0.81121 v -3.67125 c 0.35361,-0.35361 0.79041,-0.63441 1.27922,-0.63441 0.48881,0 0.86321,0.4264 0.86321,0.92561 v 3.38005 z"
         style="font-size:65.0009%;baseline-shift:sub"
         id="path138" />
    </g>
    <g
       aria-label="tp"
       id="text282333"
       style="line-height:0%;font-family:Purisa;-inkscape-font-specification:Purisa;letter-spacing:0px;word-spacing:0px">
      <path
         d="m 351.91617,367.94378 v -0.48 c -0.256,0.256 -0.56,0.464 -0.928,0.464 -0.576,0 -0.608,-0.752 -0.608,-1.424 v -4.528 h 1.536 v -0.672 h -1.536 v -2.4 h -0.752 c 0,1.28 -0.736,2.48 -1.904,2.48 v 0.592 h 1.408 v 4.528 c 0,1.056 0.336,2.16 1.248,2.16 0.592,0 1.104,-0.32 1.536,-0.72 z"
         style="font-size:16px;line-height:1.25;font-family:Iwona;-inkscape-font-specification:Iwona"
         id="path141" />
      <path
         d="m 357.20102,369.36375 c 0,-1.38322 -0.52001,-2.44403 -1.77843,-2.44403 -0.53041,0 -1.01921,0.2392 -1.43522,0.57201 v -0.46801 h -0.81121 v 7.0721 h 0.81121 v -2.56884 c 0.40561,0.1768 0.84241,0.28081 1.27922,0.28081 1.30002,0 1.93443,-1.04002 1.93443,-2.44404 z m -0.91522,0 c 0,0.97762 -0.3016,2.00723 -1.15441,2.00723 -0.39521,0 -0.79041,-0.104 -1.14402,-0.2808 v -3.16165 c 0.312,-0.312 0.69681,-0.57201 1.14402,-0.57201 0.94641,0 1.15441,0.91522 1.15441,2.00723 z"
         style="font-size:65.0009%;baseline-shift:sub"
         id="path143" />
    </g>
    <path
       id="path275184"
       d="m 177.16536,325.98428 h 212.5985 l 3.5433,10.6299 -3.5433,10.6299 h -212.5985 v -10.6299 z"
       style="display:inline;fill:#88ff00;fill-opacity:1;stroke:none" />
    <path
       style="display:inline;fill:#00ccff;fill-opacity:1;stroke:none"
       d="m 478.34646,325.98428 h -81.496 l -3.5433,10.6299 3.5433,10.6299 h 81.496 v -10.6299 z"
       id="path275194" />
    <path
       d="m 177.16536,325.98428 h 212.5985 l 7.0866,21.2598 h 81.496 m -301.1811,0 h 212.5985 l 7.0866,-21.2598 h 81.496"
       style="display:inline;fill:none;stroke:#000000;stroke-width:1px;stroke-linecap:butt;stroke-linejoin:miter;stroke-opacity:1"
       id="path275248" />
    <path
       style="display:inline;fill:#ff8800;fill-opacity:1;stroke:none"
       d="m 177.16536,290.55118 h 74.4095 l 3.5433,10.6299 -3.5433,10.6299 h -74.4095 v -10.6299 z"
       id="path275164" />
    <path
       id="path275166"
       d="m 258.66142,290.55118 h 113.38582 l 3.5433,10.6299 -3.5433,10.6299 H 258.66142 l -3.5433,-10.6299 z"
       style="display:inline;fill:#00ccff;fill-opacity:1;stroke:none" />
    <path
       style="display:inline;fill:#ff88cc;fill-opacity:1;stroke:none"
       d="m 379.13386,290.55118 h 99.2127 l 10e-5,10.6281 -10e-5,10.6317 h -99.2127 l -3.5433,-10.6299 z"
       id="path275258" />
    <path
       id="path275304"
       style="display:inline;fill:none;stroke:#000000;stroke-width:1px;stroke-linecap:butt;stroke-linejoin:miter;stroke-opacity:1"
       d="m 177.16536,290.55118 h 74.4095 l 7.0866,21.2598 113.38578,4e-5 7.08662,-21.25984 h 99.21259 m -301.18109,21.2598 h 74.4095 l 7.0866,-21.2598 h 113.38578 l 7.08662,21.25984 h 99.21259" />
    <path
       style="fill:none;fill-rule:evenodd;stroke:#000000;stroke-width:1;stroke-linecap:butt;stroke-linejoin:miter;stroke-miterlimit:4;stroke-dasharray:2, 2;stroke-dashoffset:0;stroke-opacity:1"
       d="m 272.83464,226.77165 v 92.12599"
       id="path10461" />
    <path
       id="path11299"
       d="m 357.87401,226.77165 v 92.12599"
       style="fill:none;fill-rule:evenodd;stroke:#000000;stroke-width:1;stroke-linecap:butt;stroke-linejoin:miter;stroke-miterlimit:4;stroke-dasharray:2, 2;stroke-dashoffset:0;stroke-opacity:1" />
  </g>
</svg>
