<?xml version="1.0" encoding="UTF-8" standalone="no"?>
<!-- Created with Inkscape (http://www.inkscape.org/) -->

<svg
   width="117.24905mm"
   height="41.999992mm"
   viewBox="0 0 415.4494 148.81887"
   id="svg10086"
   version="1.1"
   xmlns="http://www.w3.org/2000/svg"
   xmlns:svg="http://www.w3.org/2000/svg"
   xmlns:rdf="http://www.w3.org/1999/02/22-rdf-syntax-ns#"
   xmlns:cc="http://creativecommons.org/ns#"
   xmlns:dc="http://purl.org/dc/elements/1.1/">
  <defs
     id="defs10088" />
  <metadata
     id="metadata10091">
    <rdf:RDF>
      <cc:Work
         rdf:about="">
        <dc:format>image/svg+xml</dc:format>
        <dc:type
           rdf:resource="http://purl.org/dc/dcmitype/StillImage" />
        <dc:title />
      </cc:Work>
    </rdf:RDF>
  </metadata>
  <g
     id="layer1"
     transform="translate(-84.156894,-159.44883)">
    <path
       id="rect3384"
       style="fill:#afdde9"
       d="m 442.91339,187.79527 h 49.60628 v 77.95276 h -49.60628 z" />
    <path
       id="rect3382"
       style="fill:#afdde9"
       d="m 336.61417,187.79527 h 53.14964 v 77.95284 h -53.14964 z" />
    <path
       id="rect3380"
       style="fill:#afdde9"
       d="m 124.01571,187.79527 h 53.14964 v 77.95276 h -53.14964 z" />
    <path
       id="rect3378"
       style="fill:#afdde9"
       d="m 230.31496,187.79527 h 53.14964 v 77.95276 h -53.14964 z" />
    <g
       id="g235156"
       transform="translate(-890.65684,-1591.6741)" />
    <path
       id="rect3444"
       style="fill:#ffb380"
       d="m 389.76379,166.53545 h 53.14949 v 134.64564 h -53.14949 z" />
    <path
       id="rect3442"
       style="fill:#ffb380"
       d="m 283.46457,166.53545 h 53.1496 v 134.64564 h -53.1496 z" />
    <path
       id="rect265683-0"
       style="fill:#ffb380"
       d="M 177.16536,166.53545 H 230.315 v 134.64564 h -53.14964 z" />
    <path
       id="path235054"
       d="m 123.54556,191.33854 50.07649,4e-5 7.08661,-21.25984 h 45.82792 l 7.08661,21.25984 h 46.29807 l 7.08661,-21.25984 h 45.82792 l 7.08662,21.25984 h 46.06299 l 7.08661,-21.25984 H 439.135 l 7.08662,21.25984 h 46.06299"
       style="fill:none;stroke:#000000;stroke-width:1.5;stroke-linecap:butt;stroke-linejoin:miter;stroke-miterlimit:4;stroke-dasharray:none;stroke-opacity:1" />
    <path
       id="path235058"
       d="m 123.54556,205.51174 h 17.95165 l 7.0866,21.2599 h 38.97639 l 7.0866,-21.2599 17.71655,1e-4 7.0867,21.2598 h 17.71646 l 7.0866,-21.2598 h 10.62993 l 7.08661,21.25981 h 7.08661 l 7.08662,-21.25984 h 35.43307 l 7.08661,21.25984 h 42.51969 l 7.08661,-21.25984 h 38.97638 l 7.08661,21.25984 h 14.17323 l 7.08662,-21.25984 h 28.34645 l 7.08662,21.25984 h 21.25984"
       style="fill:none;stroke:#000000;stroke-width:1.5;stroke-linecap:butt;stroke-linejoin:miter;stroke-miterlimit:4;stroke-dasharray:none;stroke-opacity:1" />
    <path
       id="path235060"
       d="m 123.54556,276.37795 49.84141,-10e-5 7.0866,21.2599 c 0.23509,-2e-5 45.15233,0 99.21262,-2e-5 l 7.08661,-21.25984 205.74688,6e-5"
       style="fill:none;stroke:#000000;stroke-width:1.5;stroke-linecap:butt;stroke-linejoin:miter;stroke-miterlimit:4;stroke-dasharray:none;stroke-opacity:1" />
    <g
       aria-label="CLK"
       id="text235084"
       style="line-height:0%;font-family:Iwona;-inkscape-font-specification:Sans;text-align:end;letter-spacing:0px;word-spacing:0px;text-anchor:end">
      <path
         d="m 100.03429,179.2833 v -0.864 c -0.863998,-1.248 -2.287998,-1.984 -3.791998,-1.984 -3.248,0 -5.008,2.368 -5.008,5.76 0,3.392 1.76,5.76 5.008,5.76 1.248,0 2.48,-0.368 3.536,-1.056 v -0.736 c -1.056,0.688 -2.288,1.056 -3.536,1.056 -2.512,0 -3.44,-2.224 -3.44,-5.024 0,-2.8 0.928,-5.024 3.44,-5.024 1.536,0 2.976,0.8 3.791998,2.112 z"
         style="font-size:16px;line-height:1.25"
         id="path36" />
      <path
         d="m 108.51428,187.7953 v -0.736 h -5.088 v -10.464 h -1.312 v 11.2 z"
         style="font-size:16px;line-height:1.25"
         id="path38" />
      <path
         d="m 119.84226,187.7953 -7.088,-6.336 6.704,-4.864 h -1.264 l -6.448,4.688 v -4.688 h -1.312 v 11.2 h 1.312 v -5.472 l 6.128,5.472 z"
         style="font-size:16px;line-height:1.25"
         id="path40" />
    </g>
    <g
       aria-label="D"
       id="text235088"
       style="line-height:0%;font-family:Iwona;-inkscape-font-specification:Sans;text-align:end;letter-spacing:0px;word-spacing:0px;text-anchor:end">
      <path
         d="m 119.04227,217.62829 c 0,-3.424 -1.872,-5.76 -5.168,-5.76 -0.992,0 -1.984,0.048 -2.96,0.16 h -1.28 v 11.2 h 1.28 c 0.976,0.112 1.968,0.16 2.96,0.16 3.296,0 5.168,-2.336 5.168,-5.76 z m -1.568,0 c 0,2.544 -1.296,5.024 -3.6,5.024 -0.976,0 -1.952,-0.048 -2.928,-0.16 v -9.728 c 0.976,-0.112 1.952,-0.16 2.928,-0.16 2.304,0 3.6,2.48 3.6,5.024 z"
         style="font-size:16px;line-height:1.25"
         id="path43" />
    </g>
    <g
       aria-label="Q"
       id="text235092"
       style="line-height:0%;font-family:Iwona;-inkscape-font-specification:Sans;text-align:end;letter-spacing:0px;word-spacing:0px;text-anchor:end">
      <path
         d="m 119.04228,288.49439 c 0,-3.392 -1.76,-5.76 -4.992,-5.76 -3.248,0 -5.008,2.368 -5.008,5.76 0,3.392 1.76,5.76 5.008,5.76 0.112,1.296 1.184,2.288 2.496,2.288 0.816,0 1.04,-0.048 1.792,-0.384 v -0.48 c -0.368,0.208 -0.768,0.32 -1.2,0.32 -1.456,0 -2.032,-0.512 -2.048,-1.84 2.56,-0.448 3.952,-2.656 3.952,-5.664 z m -1.568,0 c 0,2.8 -0.928,5.024 -3.424,5.024 -2.512,0 -3.44,-2.224 -3.44,-5.024 0,-2.8 0.928,-5.024 3.44,-5.024 2.496,0 3.424,2.224 3.424,5.024 z"
         style="font-size:16px;line-height:1.25"
         id="path46" />
    </g>
    <path
       id="path235060-6"
       d="m 123.78063,240.94494 17.95165,-1e-4 7.0866,21.2599 h 85.03939 l 7.0866,-21.2599 14.17324,4e-5 7.08661,21.25984 h 7.08662 l 7.08661,-21.25984 h 56.69292 l 7.08661,21.25984 h 21.25984 l 7.08661,-21.25984 h 95.6693 l 7.42759,21.25984 h 20.91887"
       style="fill:none;stroke:#000000;stroke-width:1.5;stroke-linecap:butt;stroke-linejoin:miter;stroke-miterlimit:4;stroke-dasharray:none;stroke-opacity:1" />
    <g
       aria-label="Qm"
       id="text235092-9"
       style="line-height:0%;font-family:Iwona;-inkscape-font-specification:Sans;text-align:end;letter-spacing:0px;word-spacing:0px;text-anchor:end">
      <path
         d="m 111.98698,253.06138 c 0,-3.392 -1.76,-5.76 -4.992,-5.76 -3.248,0 -5.008,2.368 -5.008,5.76 0,3.392 1.76,5.76 5.008,5.76 0.112,1.296 1.184,2.288 2.496,2.288 0.816,0 1.04,-0.048 1.792,-0.384 v -0.48 c -0.368,0.208 -0.768,0.32 -1.2,0.32 -1.456,0 -2.032,-0.512 -2.048,-1.84 2.56,-0.448 3.952,-2.656 3.952,-5.664 z m -1.568,0 c 0,2.8 -0.928,5.024 -3.424,5.024 -2.512,0 -3.44,-2.224 -3.44,-5.024 0,-2.8 0.928,-5.024 3.44,-5.024 2.496,0 3.424,2.224 3.424,5.024 z"
         style="font-size:16px;line-height:1.25"
         id="path49" />
      <path
         d="m 119.45736,261.86138 v -3.38 c 0,-0.728 -0.4264,-1.404 -1.1024,-1.404 -0.5824,0 -1.1232,0.3016 -1.4352,0.7904 -0.1664,-0.4576 -0.52,-0.7904 -0.9984,-0.7904 -0.5408,0 -0.9776,0.3744 -1.3312,0.7904 v -0.6864 h -0.8112 v 4.68 h 0.8112 v -3.6816 c 0.2496,-0.3224 0.5616,-0.624 0.9672,-0.624 0.4264,0 0.6552,0.4576 0.6552,0.9256 v 3.38 h 0.8112 v -3.38 c 0,-0.1248 -0.0104,-0.2392 -0.0312,-0.364 0.2496,-0.3224 0.5928,-0.5616 0.9984,-0.5616 0.4264,0 0.6552,0.4576 0.6552,0.9256 v 3.38 z"
         style="font-size:65%;baseline-shift:sub"
         id="path51" />
    </g>
  </g>
</svg>
