<?xml version="1.0" encoding="UTF-8" standalone="no"?>
<!-- Created with Inkscape (http://www.inkscape.org/) -->

<svg
   width="257.84619mm"
   height="144.09222mm"
   viewBox="0 0 913.62824 510.563"
   id="svg10609"
   version="1.1"
   xmlns="http://www.w3.org/2000/svg"
   xmlns:svg="http://www.w3.org/2000/svg"
   xmlns:rdf="http://www.w3.org/1999/02/22-rdf-syntax-ns#"
   xmlns:cc="http://creativecommons.org/ns#"
   xmlns:dc="http://purl.org/dc/elements/1.1/">
  <defs
     id="defs10611">
    <marker
       orient="auto"
       refY="0"
       refX="0"
       id="marker11053"
       style="overflow:visible">
      <path
         id="path11055"
         d="M 0,0 5,-5 -12.5,0 5,5 Z"
         style="fill:#000000;fill-opacity:1;fill-rule:evenodd;stroke:#000000;stroke-width:1.00000003pt;stroke-opacity:1;marker-start:none"
         transform="matrix(-0.4,0,0,-0.4,-4,0)" />
    </marker>
    <marker
       orient="auto"
       refY="0"
       refX="0"
       id="marker10101"
       style="overflow:visible">
      <path
         id="path10103"
         d="M 0,0 5,-5 -12.5,0 5,5 Z"
         style="fill:#000000;fill-opacity:1;fill-rule:evenodd;stroke:#000000;stroke-width:1.00000003pt;stroke-opacity:1"
         transform="matrix(0.4,0,0,0.4,4,0)" />
    </marker>
    <marker
       style="overflow:visible"
       id="marker8841"
       refX="0"
       refY="0"
       orient="auto">
      <path
         transform="matrix(-0.4,0,0,-0.4,-4,0)"
         style="fill:#000000;fill-opacity:1;fill-rule:evenodd;stroke:#000000;stroke-width:1.00000003pt;stroke-opacity:1;marker-start:none"
         d="M 0,0 5,-5 -12.5,0 5,5 Z"
         id="path8843" />
    </marker>
    <marker
       style="overflow:visible"
       id="marker7901"
       refX="0"
       refY="0"
       orient="auto">
      <path
         transform="matrix(0.4,0,0,0.4,4,0)"
         style="fill:#000000;fill-opacity:1;fill-rule:evenodd;stroke:#000000;stroke-width:1.00000003pt;stroke-opacity:1"
         d="M 0,0 5,-5 -12.5,0 5,5 Z"
         id="path7903" />
    </marker>
    <marker
       orient="auto"
       refY="0"
       refX="0"
       id="Arrow1Mstart"
       style="overflow:visible">
      <path
         id="path5507"
         d="M 0,0 5,-5 -12.5,0 5,5 Z"
         style="fill:#000000;fill-opacity:1;fill-rule:evenodd;stroke:#000000;stroke-width:1.00000003pt;stroke-opacity:1"
         transform="matrix(0.4,0,0,0.4,4,0)" />
    </marker>
    <marker
       orient="auto"
       refY="0"
       refX="0"
       id="marker161170"
       style="overflow:visible">
      <path
         id="path161172"
         d="M 0,0 5,-5 -12.5,0 5,5 Z"
         style="fill:#000000;fill-opacity:1;fill-rule:evenodd;stroke:#000000;stroke-width:1.00000003pt;stroke-opacity:1;marker-start:none"
         transform="matrix(-0.4,0,0,-0.4,-4,0)" />
    </marker>
  </defs>
  <metadata
     id="metadata10614">
    <rdf:RDF>
      <cc:Work
         rdf:about="">
        <dc:format>image/svg+xml</dc:format>
        <dc:type
           rdf:resource="http://purl.org/dc/dcmitype/StillImage" />
        <dc:title />
      </cc:Work>
    </rdf:RDF>
  </metadata>
  <g
     id="layer1"
     transform="translate(139.18818,-89.255915)">
    <path
       style="fill:#afdde9;fill-opacity:1;stroke:#000000;stroke-width:1;stroke-linecap:round;stroke-linejoin:bevel;stroke-miterlimit:4;stroke-dasharray:none;stroke-dashoffset:0;stroke-opacity:1"
       d="m 229.81536,149.31892 h 53.14958 l 3e-5,38.97637 h 17.71653 v -7.08662 l 17.71654,28.34646 -17.71654,28.34645 v -7.08661 h -17.71653 v 81.49606 h 17.71653 v -7.08661 l 17.71654,28.34646 -17.71654,28.34645 v -7.08661 h -17.71653 v 127.55905 h 17.71653 v -7.08661 l 17.71654,28.34646 -17.71654,28.34645 v -7.08661 h -17.71653 l -3e-5,67.32283 h -53.14958 v -67.32283 h -17.71653 v 7.08661 l -17.71654,-28.34645 17.71654,-28.34646 v 7.08661 h 17.71653 V 354.83072 h -17.71653 v 7.08661 l -17.71654,-28.34645 17.71654,-28.34646 v 7.08661 h 17.71653 v -81.49606 h -17.71653 v 7.08661 l -17.71654,-28.34645 17.71654,-28.34646 v 7.08662 l 17.71653,0.11258 z"
       id="rect177682" />
    <path
       id="path177714"
       d="m 442.41379,407.98032 v 51.94789"
       style="fill:none;stroke:#000000;stroke-width:2;stroke-linecap:butt;stroke-linejoin:miter;stroke-miterlimit:4;stroke-dasharray:2, 4;stroke-dashoffset:0;stroke-opacity:1" />
    <g
       id="g3694"
       transform="translate(-35.932695,0.50000876)">
      <path
         id="rect177800"
         style="fill:#ffeeaa;fill-opacity:0.588235;stroke:#000000"
         d="M 17.716536,166.53543 H 194.88191 V 255.1181 H 17.716536 Z" />
      <g
         aria-label="Bloc n°1"
         id="text177810"
         style="line-height:0%;font-family:Iwona;-inkscape-font-specification:Sans;text-align:center;letter-spacing:0px;word-spacing:0px;text-anchor:middle">
        <path
           d="m 68.801605,215.94676 c 0,-3.52 -2.304,-5.376 -5.664,-6.08 2.464,-0.736 4.096,-2.336 4.096,-5.056 0,-3.904 -3.36,-5.504 -7.68,-5.504 -1.664,0 -3.328,0.096 -4.992,0.32 h -2.56 v 22.4 h 2.56 l 4.992,0.32 c 5.184,0 9.248,-1.76 9.248,-6.4 z m -4.192,-11.136 c 0,3.232 -3.616,4.896 -7.232,4.896 h -2.752 v -8.608 c 1.632,-0.224 3.296,-0.32 4.928,-0.32 2.624,0 5.056,1.6 5.056,4.032 z m 1.056,11.136 c 0,2.944 -2.912,4.928 -6.112,4.928 -1.632,0 -3.296,-0.096 -4.928,-0.32 v -9.728 h 4.128 c 3.52,0 6.912,1.888 6.912,5.12 z"
           style="font-size:32px;line-height:1.25"
           id="path463" />
        <path
           d="m 79.297588,220.90676 v -0.96 c -0.608,0.512 -1.312,0.928 -2.112,0.928 -1.184,0 -1.408,-1.472 -1.408,-2.848 v -18.4 h -2.496 v 18.4 c 0,2.144 0.832,4.32 2.72,4.32 1.216,0 2.368,-0.608 3.296,-1.44 z"
           style="font-size:32px;line-height:1.25"
           id="path465" />
        <path
           d="m 94.081531,214.82676 c 0,-4.896 -2.176,-7.52 -6.176,-7.52 -4.032,0 -6.208,2.624 -6.208,7.52 0,4.896 2.176,7.52 6.208,7.52 4,0 6.176,-2.624 6.176,-7.52 z m -2.816,0 c 0,4 -1.184,6.176 -3.36,6.176 -2.208,0 -3.392,-2.176 -3.392,-6.176 0,-4 1.184,-6.176 3.392,-6.176 2.176,0 3.36,2.176 3.36,6.176 z"
           style="font-size:32px;line-height:1.25"
           id="path467" />
        <path
           d="m 108.76952,210.95476 v -1.344 c -1.024,-1.44 -2.688,-2.304 -4.48,-2.304 -4,0 -6.687998,3.008 -6.687998,7.52 0,4.512 2.687998,7.52 6.687998,7.52 1.664,0 3.232,-0.832 4.16,-2.208 v -1.344 c -1.088,1.632 -2.208,2.208 -4.16,2.208 -2.304,0 -3.872,-2.464 -3.872,-6.176 0,-3.712 1.568,-6.176 3.872,-6.176 1.984,0 3.328,0.704 4.48,2.304 z"
           style="font-size:32px;line-height:1.25"
           id="path469" />
        <path
           d="m 134.36943,222.02676 v -10.4 c 0,-2.336 -1.792,-4.32 -4.096,-4.32 -1.92,0 -3.616,1.088 -4.992,2.432 v -2.112 h -2.496 v 14.4 h 2.496 v -11.296 c 1.088,-1.088 2.432,-1.952 3.936,-1.952 1.504,0 2.656,1.312 2.656,2.848 v 10.4 z"
           style="font-size:32px;line-height:1.25"
           id="path471" />
        <path
           d="m 147.61738,204.74676 c 0,-2.304 -1.888,-4.192 -4.224,-4.192 -2.304,0 -4.192,1.888 -4.192,4.192 0,2.304 1.888,4.192 4.192,4.192 2.336,0 4.224,-1.888 4.224,-4.192 z m -1.344,0 c 0,1.568 -1.28,2.848 -2.88,2.848 -1.568,0 -2.848,-1.28 -2.848,-2.848 0,-1.568 1.28,-2.848 2.848,-2.848 1.6,0 2.88,1.28 2.88,2.848 z"
           style="font-size:32px;line-height:1.25"
           id="path473" />
        <path
           d="m 160.60935,222.02676 v -22.08 h -1.856 c -1.76,2.016 -3.84,3.744 -6.144,5.088 v 1.344 c 1.952,-0.928 3.776,-2.016 5.504,-3.328 v 18.976 z"
           style="font-size:32px;line-height:1.25"
           id="path475" />
      </g>
    </g>
    <g
       aria-label="Matrice de connexions
configurables"
       id="text177728"
       style="line-height:0%;font-family:Iwona;-inkscape-font-specification:Sans;text-align:center;letter-spacing:0px;word-spacing:0px;text-anchor:middle">
      <path
         d="m 177.3973,110.34253 -0.8,-14.000001 h -1.32 l -5.62,11.820001 -5.64,-11.820001 h -1.32 l -0.8,14.000001 h 0.92 l 0.64,-11.340001 5.42,11.340001 h 0.74 l 5.48,-11.480001 0.66,11.480001 z"
         style="font-size:20px;line-height:1.25"
         id="path478" />
      <path
         d="m 187.23727,110.34253 v -5.6 c 0,-1.88 -1.16,-3.6 -2.9,-3.6 -1.28,0 -2.48,0.44 -3.56,1.12 v 0.62 c 0.9,-0.5 1.9,-0.82 2.94,-0.82 1.24,0 1.96,1.32 1.96,2.68 v 0.36 c -0.78,-0.34 -1.62,-0.54 -2.46,-0.54 -2.14,0 -3.72,0.98 -3.72,3 0,1.92 1.4,2.98 3.42,2.98 1.02,0 1.96,-0.46 2.76,-1.1 v 0.9 z m -1.56,-1.74 c -0.6,0.6 -1.34,1.1 -2.2,1.1 -1.34,0 -2.22,-0.82 -2.22,-2.14 0,-1.22 1,-2.16 2.22,-2.16 0.76,0 1.52,0.2 2.2,0.54 z"
         style="font-size:20px;line-height:1.25"
         id="path480" />
      <path
         d="m 194.67726,109.64253 v -0.6 c -0.32,0.32 -0.7,0.58 -1.16,0.58 -0.72,0 -0.76,-0.94 -0.76,-1.78 v -5.66 h 1.92 v -0.84 h -1.92 v -3.000001 h -0.94 c 0,1.6 -0.92,3.100001 -2.38,3.100001 v 0.74 h 1.76 v 5.66 c 0,1.32 0.42,2.7 1.56,2.7 0.74,0 1.38,-0.4 1.92,-0.9 z"
         style="font-size:20px;line-height:1.25"
         id="path482" />
      <path
         d="m 201.85723,102.58253 v -1.24 c -0.22,-0.08 -0.46,-0.14 -0.68,-0.14 -1.12,0 -2.02,0.78 -2.74,1.64 v -1.5 h -1.56 v 9 h 1.56 v -6.66 c 0.6,-0.7 1.36,-1.3 2.28,-1.3 0.38,0 0.78,0.08 1.14,0.2 z"
         style="font-size:20px;line-height:1.25"
         id="path484" />
      <path
         d="m 207.51721,109.64253 v -0.6 c -0.38,0.32 -0.82,0.58 -1.32,0.58 -0.74,0 -0.88,-0.92 -0.88,-1.78 v -6.5 h -1.56 v 6.5 c 0,1.34 0.52,2.7 1.7,2.7 0.76,0 1.48,-0.38 2.06,-0.9 z m -2,-11.420001 c 0,-0.54 -0.44,-0.98 -0.98,-0.98 -0.54,0 -0.98,0.44 -0.98,0.98 0,0.54 0.44,0.98 0.98,0.98 0.54,0 0.98,-0.44 0.98,-0.98 z"
         style="font-size:20px;line-height:1.25"
         id="path486" />
      <path
         d="m 215.99719,103.42253 v -0.84 c -0.64,-0.9 -1.68,-1.44 -2.8,-1.44 -2.5,0 -4.18,1.88 -4.18,4.7 0,2.82 1.68,4.7 4.18,4.7 1.04,0 2.02,-0.52 2.6,-1.38 v -0.84 c -0.68,1.02 -1.38,1.38 -2.6,1.38 -1.44,0 -2.42,-1.54 -2.42,-3.86 0,-2.32 0.98,-3.86 2.42,-3.86 1.24,0 2.08,0.44 2.8,1.44 z"
         style="font-size:20px;line-height:1.25"
         id="path488" />
      <path
         d="m 225.33717,106.04253 v -0.2 c 0,-2.82 -1.54,-4.7 -3.86,-4.7 -2.34,0 -3.88,1.88 -3.88,4.7 0,2.82 1.54,4.7 3.88,4.7 1,0 1.98,-0.32 2.8,-0.9 v -0.84 c -0.94,0.6 -1.7,0.82 -2.8,0.82 -1.7,0 -2.12,-1.62 -2.12,-3.58 z m -1.76,-0.84 h -4.22 c 0,-1.6 0.68,-3.22 2.12,-3.22 1.42,0 2.1,1.62 2.1,3.22 z"
         style="font-size:20px;line-height:1.25"
         id="path490" />
      <path
         d="M 241.83711,110.34253 V 96.342529 h -1.56 v 5.340001 c -0.78,-0.34 -1.62,-0.54 -2.46,-0.54 -2.5,0 -3.72,2 -3.72,4.7 0,2.66 1,4.7 3.42,4.7 1.02,0 1.96,-0.46 2.76,-1.1 v 0.9 z m -1.56,-1.74 c -0.6,0.6 -1.34,1.1 -2.2,1.1 -1.82,0 -2.22,-1.76 -2.22,-3.86 0,-1.88 0.58,-3.86 2.22,-3.86 0.76,0 1.52,0.2 2.2,0.54 z"
         style="font-size:20px;line-height:1.25"
         id="path492" />
      <path
         d="m 252.2771,106.04253 v -0.2 c 0,-2.82 -1.54,-4.7 -3.86,-4.7 -2.34,0 -3.88,1.88 -3.88,4.7 0,2.82 1.54,4.7 3.88,4.7 1,0 1.98,-0.32 2.8,-0.9 v -0.84 c -0.94,0.6 -1.7,0.82 -2.8,0.82 -1.7,0 -2.12,-1.62 -2.12,-3.58 z m -1.76,-0.84 h -4.22 c 0,-1.6 0.68,-3.22 2.12,-3.22 1.42,0 2.1,1.62 2.1,3.22 z"
         style="font-size:20px;line-height:1.25"
         id="path494" />
      <path
         d="m 268.01703,103.42253 v -0.84 c -0.64,-0.9 -1.68,-1.44 -2.8,-1.44 -2.5,0 -4.18,1.88 -4.18,4.7 0,2.82 1.68,4.7 4.18,4.7 1.04,0 2.02,-0.52 2.6,-1.38 v -0.84 c -0.68,1.02 -1.38,1.38 -2.6,1.38 -1.44,0 -2.42,-1.54 -2.42,-3.86 0,-2.32 0.98,-3.86 2.42,-3.86 1.24,0 2.08,0.44 2.8,1.44 z"
         style="font-size:20px;line-height:1.25"
         id="path496" />
      <path
         d="m 277.35701,105.84253 c 0,-3.06 -1.36,-4.7 -3.86,-4.7 -2.52,0 -3.88,1.64 -3.88,4.7 0,3.06 1.36,4.7 3.88,4.7 2.5,0 3.86,-1.64 3.86,-4.7 z m -1.76,0 c 0,2.5 -0.74,3.86 -2.1,3.86 -1.38,0 -2.12,-1.36 -2.12,-3.86 0,-2.5 0.74,-3.86 2.12,-3.86 1.36,0 2.1,1.36 2.1,3.86 z"
         style="font-size:20px;line-height:1.25"
         id="path498" />
      <path
         d="m 287.29701,110.34253 v -6.5 c 0,-1.46 -1.12,-2.7 -2.56,-2.7 -1.2,0 -2.26,0.68 -3.12,1.52 v -1.32 h -1.56 v 9 h 1.56 v -7.06 c 0.68,-0.68 1.52,-1.22 2.46,-1.22 0.94,0 1.66,0.82 1.66,1.78 v 6.5 z"
         style="font-size:20px;line-height:1.25"
         id="path500" />
      <path
         d="m 297.63697,110.34253 v -6.5 c 0,-1.46 -1.12,-2.7 -2.56,-2.7 -1.2,0 -2.26,0.68 -3.12,1.52 v -1.32 h -1.56 v 9 h 1.56 v -7.06 c 0.68,-0.68 1.52,-1.22 2.46,-1.22 0.94,0 1.66,0.82 1.66,1.78 v 6.5 z"
         style="font-size:20px;line-height:1.25"
         id="path502" />
      <path
         d="m 307.97694,106.04253 v -0.2 c 0,-2.82 -1.54,-4.7 -3.86,-4.7 -2.34,0 -3.88,1.88 -3.88,4.7 0,2.82 1.54,4.7 3.88,4.7 1,0 1.98,-0.32 2.8,-0.9 v -0.84 c -0.94,0.6 -1.7,0.82 -2.8,0.82 -1.7,0 -2.12,-1.62 -2.12,-3.58 z m -1.76,-0.84 h -4.22 c 0,-1.6 0.68,-3.22 2.12,-3.22 1.42,0 2.1,1.62 2.1,3.22 z"
         style="font-size:20px;line-height:1.25"
         id="path504" />
      <path
         d="m 316.87689,110.34253 -3.14,-4.8 3.04,-4.2 h -1.04 l -2.48,3.44 -2.24,-3.44 h -1.68 l 2.98,4.58 -3.18,4.42 h 1.04 l 2.64,-3.66 2.38,3.66 z"
         style="font-size:20px;line-height:1.25"
         id="path506" />
      <path
         d="m 322.53686,109.64253 v -0.6 c -0.38,0.32 -0.82,0.58 -1.32,0.58 -0.74,0 -0.88,-0.92 -0.88,-1.78 v -6.5 h -1.56 v 6.5 c 0,1.34 0.52,2.7 1.7,2.7 0.76,0 1.48,-0.38 2.06,-0.9 z m -2,-11.420001 c 0,-0.54 -0.44,-0.98 -0.98,-0.98 -0.54,0 -0.98,0.44 -0.98,0.98 0,0.54 0.44,0.98 0.98,0.98 0.54,0 0.98,-0.44 0.98,-0.98 z"
         style="font-size:20px;line-height:1.25"
         id="path508" />
      <path
         d="m 331.77684,105.84253 c 0,-3.06 -1.36,-4.7 -3.86,-4.7 -2.52,0 -3.88,1.64 -3.88,4.7 0,3.06 1.36,4.7 3.88,4.7 2.5,0 3.86,-1.64 3.86,-4.7 z m -1.76,0 c 0,2.5 -0.74,3.86 -2.1,3.86 -1.38,0 -2.12,-1.36 -2.12,-3.86 0,-2.5 0.74,-3.86 2.12,-3.86 1.36,0 2.1,1.36 2.1,3.86 z"
         style="font-size:20px;line-height:1.25"
         id="path510" />
      <path
         d="m 341.71684,110.34253 v -6.5 c 0,-1.46 -1.12,-2.7 -2.56,-2.7 -1.2,0 -2.26,0.68 -3.12,1.52 v -1.32 h -1.56 v 9 h 1.56 v -7.06 c 0.68,-0.68 1.52,-1.22 2.46,-1.22 0.94,0 1.66,0.82 1.66,1.78 v 6.5 z"
         style="font-size:20px;line-height:1.25"
         id="path512" />
      <path
         d="m 350.8968,107.78253 c 0,-1.58 -1.68,-2.4 -3.32,-2.8 -0.96,-0.24 -2,-0.64 -2,-1.58 0,-0.86 0.88,-1.42 1.84,-1.42 1.06,0 2.12,0.32 3,0.9 v -0.84 c -0.88,-0.58 -1.94,-0.9 -3,-0.9 -1.74,0 -3.34,1.06 -3.34,2.68 0,1.46 1.62,2.14 3.16,2.52 1.06,0.26 2.16,0.82 2.16,1.84 0,0.94 -0.96,1.52 -1.98,1.52 -1.24,0 -2.44,-0.3 -3.5,-0.9 v 0.84 c 1.06,0.6 2.26,0.9 3.5,0.9 1.8,0 3.48,-1.08 3.48,-2.76 z"
         style="font-size:20px;line-height:1.25"
         id="path514" />
      <path
         d="m 208.38717,128.42253 v -0.84 c -0.64,-0.9 -1.68,-1.44 -2.8,-1.44 -2.5,0 -4.18,1.88 -4.18,4.7 0,2.82 1.68,4.7 4.18,4.7 1.04,0 2.02,-0.52 2.6,-1.38 v -0.84 c -0.68,1.02 -1.38,1.38 -2.6,1.38 -1.44,0 -2.42,-1.54 -2.42,-3.86 0,-2.32 0.98,-3.86 2.42,-3.86 1.24,0 2.08,0.44 2.8,1.44 z"
         style="font-size:20px;line-height:1.25"
         id="path516" />
      <path
         d="m 217.72715,130.84253 c 0,-3.06 -1.36,-4.7 -3.86,-4.7 -2.52,0 -3.88,1.64 -3.88,4.7 0,3.06 1.36,4.7 3.88,4.7 2.5,0 3.86,-1.64 3.86,-4.7 z m -1.76,0 c 0,2.5 -0.74,3.86 -2.1,3.86 -1.38,0 -2.12,-1.36 -2.12,-3.86 0,-2.5 0.74,-3.86 2.12,-3.86 1.36,0 2.1,1.36 2.1,3.86 z"
         style="font-size:20px;line-height:1.25"
         id="path518" />
      <path
         d="m 227.66715,135.34253 v -6.5 c 0,-1.46 -1.12,-2.7 -2.56,-2.7 -1.2,0 -2.26,0.68 -3.12,1.52 v -1.32 h -1.56 v 9 h 1.56 v -7.06 c 0.68,-0.68 1.52,-1.22 2.46,-1.22 0.94,0 1.66,0.82 1.66,1.78 v 6.5 z"
         style="font-size:20px;line-height:1.25"
         id="path520" />
      <path
         d="m 239.40711,134.64253 v -0.6 c -0.38,0.32 -0.82,0.58 -1.32,0.58 -0.74,0 -0.88,-0.92 -0.88,-1.78 v -6.5 h -4.88 v -2.5 c 0,-0.86 0.16,-1.78 0.9,-1.78 0.5,0 0.96,0.24 1.34,0.58 v -0.62 c -0.6,-0.5 -1.32,-0.88 -2.1,-0.88 -1.16,0 -1.7,1.36 -1.7,2.7 v 2.5 h -1.4 v 0.84 h 1.4 v 8.16 h 1.56 v -8.16 h 3.32 v 5.66 c 0,1.34 0.52,2.7 1.7,2.7 0.76,0 1.48,-0.38 2.06,-0.9 z m -2,-11.42 c 0,-0.54 -0.44,-0.98 -0.98,-0.98 -0.54,0 -0.98,0.44 -0.98,0.98 0,0.54 0.44,0.98 0.98,0.98 0.54,0 0.98,-0.44 0.98,-0.98 z"
         style="font-size:20px;line-height:1.25"
         id="path522" />
      <path
         d="m 248.64711,136.54253 v -10.2 h -1.56 v 0.34 c -0.78,-0.34 -1.62,-0.54 -2.46,-0.54 -2.5,0 -3.72,2 -3.72,4.7 0,2.66 1,4.7 3.42,4.7 1.02,0 1.96,-0.46 2.76,-1.1 v 2.1 c 0,1.38 -0.76,2.68 -2,2.68 -1.02,0 -2.04,-0.2 -3,-0.54 v 0.62 c 1.12,0.52 2.36,0.84 3.6,0.84 1.76,0 2.96,-1.72 2.96,-3.6 z m -1.56,-2.94 c -0.6,0.6 -1.34,1.1 -2.2,1.1 -1.82,0 -2.22,-1.76 -2.22,-3.86 0,-1.88 0.58,-3.86 2.22,-3.86 0.76,0 1.52,0.2 2.2,0.54 z"
         style="font-size:20px;line-height:1.25"
         id="path524" />
      <path
         d="m 258.98709,135.34253 v -9 h -1.56 v 7.06 c -0.68,0.68 -1.52,1.22 -2.46,1.22 -0.94,0 -1.66,-0.82 -1.66,-1.78 v -6.5 h -1.56 v 6.5 c 0,1.46 1.12,2.7 2.56,2.7 1.2,0 2.26,-0.68 3.12,-1.52 v 1.32 z"
         style="font-size:20px;line-height:1.25"
         id="path526" />
      <path
         d="m 267.16706,127.58253 v -1.24 c -0.22,-0.08 -0.46,-0.14 -0.68,-0.14 -1.12,0 -2.02,0.78 -2.74,1.64 v -1.5 h -1.56 v 9 h 1.56 v -6.66 c 0.6,-0.7 1.36,-1.3 2.28,-1.3 0.38,0 0.78,0.08 1.14,0.2 z"
         style="font-size:20px;line-height:1.25"
         id="path528" />
      <path
         d="m 275.96702,135.34253 v -5.6 c 0,-1.88 -1.16,-3.6 -2.9,-3.6 -1.28,0 -2.48,0.44 -3.56,1.12 v 0.62 c 0.9,-0.5 1.9,-0.82 2.94,-0.82 1.24,0 1.96,1.32 1.96,2.68 v 0.36 c -0.78,-0.34 -1.62,-0.54 -2.46,-0.54 -2.14,0 -3.72,0.98 -3.72,3 0,1.92 1.4,2.98 3.42,2.98 1.02,0 1.96,-0.46 2.76,-1.1 v 0.9 z m -1.56,-1.74 c -0.6,0.6 -1.34,1.1 -2.2,1.1 -1.34,0 -2.22,-0.82 -2.22,-2.14 0,-1.22 1,-2.16 2.22,-2.16 0.76,0 1.52,0.2 2.2,0.54 z"
         style="font-size:20px;line-height:1.25"
         id="path530" />
      <path
         d="m 286.907,130.84253 c 0,-2.66 -1,-4.7 -3.42,-4.7 -1.02,0 -1.96,0.46 -2.76,1.1 v -5.9 h -1.56 v 14 h 1.56 v -0.46 c 0.76,0.4 1.6,0.66 2.46,0.66 2.5,0 3.72,-2 3.72,-4.7 z m -1.76,0 c 0,1.88 -0.58,3.86 -2.22,3.86 -0.78,0 -1.54,-0.26 -2.2,-0.66 v -5.96 c 0.6,-0.6 1.34,-1.1 2.2,-1.1 1.82,0 2.22,1.76 2.22,3.86 z"
         style="font-size:20px;line-height:1.25"
         id="path532" />
      <path
         d="m 293.36699,134.64253 v -0.6 c -0.38,0.32 -0.82,0.58 -1.32,0.58 -0.74,0 -0.88,-0.92 -0.88,-1.78 v -11.5 h -1.56 v 11.5 c 0,1.34 0.52,2.7 1.7,2.7 0.76,0 1.48,-0.38 2.06,-0.9 z"
         style="font-size:20px;line-height:1.25"
         id="path534" />
      <path
         d="m 302.60695,131.04253 v -0.2 c 0,-2.82 -1.54,-4.7 -3.86,-4.7 -2.34,0 -3.88,1.88 -3.88,4.7 0,2.82 1.54,4.7 3.88,4.7 1,0 1.98,-0.32 2.8,-0.9 v -0.84 c -0.94,0.6 -1.7,0.82 -2.8,0.82 -1.7,0 -2.12,-1.62 -2.12,-3.58 z m -1.76,-0.84 h -4.22 c 0,-1.6 0.68,-3.22 2.12,-3.22 1.42,0 2.1,1.62 2.1,3.22 z"
         style="font-size:20px;line-height:1.25"
         id="path536" />
      <path
         d="m 311.28693,132.78253 c 0,-1.58 -1.68,-2.4 -3.32,-2.8 -0.96,-0.24 -2,-0.64 -2,-1.58 0,-0.86 0.88,-1.42 1.84,-1.42 1.06,0 2.12,0.32 3,0.9 v -0.84 c -0.88,-0.58 -1.94,-0.9 -3,-0.9 -1.74,0 -3.34,1.06 -3.34,2.68 0,1.46 1.62,2.14 3.16,2.52 1.06,0.26 2.16,0.82 2.16,1.84 0,0.94 -0.96,1.52 -1.98,1.52 -1.24,0 -2.44,-0.3 -3.5,-0.9 v 0.84 c 1.06,0.6 2.26,0.9 3.5,0.9 1.8,0 3.48,-1.08 3.48,-2.76 z"
         style="font-size:20px;line-height:1.25"
         id="path538" />
    </g>
    <g
       id="g3699"
       transform="translate(-35.932695,124.51576)">
      <path
         id="rect3701"
         style="fill:#ffeeaa;fill-opacity:0.588235;stroke:#000000"
         d="M 17.716536,166.53543 H 194.88191 V 255.1181 H 17.716536 Z" />
      <g
         aria-label="Bloc n°3"
         id="text3703"
         style="line-height:0%;font-family:Iwona;-inkscape-font-specification:Sans;text-align:center;letter-spacing:0px;word-spacing:0px;text-anchor:middle">
        <path
           d="m 68.801605,215.94676 c 0,-3.52 -2.304,-5.376 -5.664,-6.08 2.464,-0.736 4.096,-2.336 4.096,-5.056 0,-3.904 -3.36,-5.504 -7.68,-5.504 -1.664,0 -3.328,0.096 -4.992,0.32 h -2.56 v 22.4 h 2.56 l 4.992,0.32 c 5.184,0 9.248,-1.76 9.248,-6.4 z m -4.192,-11.136 c 0,3.232 -3.616,4.896 -7.232,4.896 h -2.752 v -8.608 c 1.632,-0.224 3.296,-0.32 4.928,-0.32 2.624,0 5.056,1.6 5.056,4.032 z m 1.056,11.136 c 0,2.944 -2.912,4.928 -6.112,4.928 -1.632,0 -3.296,-0.096 -4.928,-0.32 v -9.728 h 4.128 c 3.52,0 6.912,1.888 6.912,5.12 z"
           style="font-size:32px;line-height:1.25"
           id="path542" />
        <path
           d="m 79.297588,220.90676 v -0.96 c -0.608,0.512 -1.312,0.928 -2.112,0.928 -1.184,0 -1.408,-1.472 -1.408,-2.848 v -18.4 h -2.496 v 18.4 c 0,2.144 0.832,4.32 2.72,4.32 1.216,0 2.368,-0.608 3.296,-1.44 z"
           style="font-size:32px;line-height:1.25"
           id="path544" />
        <path
           d="m 94.081531,214.82676 c 0,-4.896 -2.176,-7.52 -6.176,-7.52 -4.032,0 -6.208,2.624 -6.208,7.52 0,4.896 2.176,7.52 6.208,7.52 4,0 6.176,-2.624 6.176,-7.52 z m -2.816,0 c 0,4 -1.184,6.176 -3.36,6.176 -2.208,0 -3.392,-2.176 -3.392,-6.176 0,-4 1.184,-6.176 3.392,-6.176 2.176,0 3.36,2.176 3.36,6.176 z"
           style="font-size:32px;line-height:1.25"
           id="path546" />
        <path
           d="m 108.76952,210.95476 v -1.344 c -1.024,-1.44 -2.688,-2.304 -4.48,-2.304 -4,0 -6.687998,3.008 -6.687998,7.52 0,4.512 2.687998,7.52 6.687998,7.52 1.664,0 3.232,-0.832 4.16,-2.208 v -1.344 c -1.088,1.632 -2.208,2.208 -4.16,2.208 -2.304,0 -3.872,-2.464 -3.872,-6.176 0,-3.712 1.568,-6.176 3.872,-6.176 1.984,0 3.328,0.704 4.48,2.304 z"
           style="font-size:32px;line-height:1.25"
           id="path548" />
        <path
           d="m 134.36943,222.02676 v -10.4 c 0,-2.336 -1.792,-4.32 -4.096,-4.32 -1.92,0 -3.616,1.088 -4.992,2.432 v -2.112 h -2.496 v 14.4 h 2.496 v -11.296 c 1.088,-1.088 2.432,-1.952 3.936,-1.952 1.504,0 2.656,1.312 2.656,2.848 v 10.4 z"
           style="font-size:32px;line-height:1.25"
           id="path550" />
        <path
           d="m 147.61738,204.74676 c 0,-2.304 -1.888,-4.192 -4.224,-4.192 -2.304,0 -4.192,1.888 -4.192,4.192 0,2.304 1.888,4.192 4.192,4.192 2.336,0 4.224,-1.888 4.224,-4.192 z m -1.344,0 c 0,1.568 -1.28,2.848 -2.88,2.848 -1.568,0 -2.848,-1.28 -2.848,-2.848 0,-1.568 1.28,-2.848 2.848,-2.848 1.6,0 2.88,1.28 2.88,2.848 z"
           style="font-size:32px;line-height:1.25"
           id="path552" />
        <path
           d="m 165.24935,215.94676 c 0,-2.816 -1.984,-5.248 -4.736,-6.08 2.432,-0.704 3.936,-2.528 3.936,-4.96 0,-3.168 -2.56,-5.28 -6.4,-5.28 -2.08,0 -4.096,0.704 -5.728,1.984 v 1.344 c 1.632,-1.28 3.648,-1.984 5.728,-1.984 2.336,0 3.904,1.568 3.904,3.936 0,3.808 -1.76,4.8 -5.76,4.8 v 1.184 c 4.32,0 6.24,1.024 6.24,5.056 0,2.784 -1.792,5.056 -3.968,5.056 -2.432,0 -4.8,-0.704 -6.816,-1.984 v 1.344 c 2.016,1.28 4.384,1.984 6.816,1.984 3.712,0 6.784,-2.88 6.784,-6.4 z"
           style="font-size:32px;line-height:1.25"
           id="path554" />
      </g>
    </g>
    <g
       id="g3707"
       transform="translate(336.11457,0.50000876)">
      <path
         id="rect3709"
         style="fill:#ffeeaa;fill-opacity:0.588235;stroke:#000000"
         d="M 17.716536,166.53543 H 194.88191 V 255.1181 H 17.716536 Z" />
      <g
         aria-label="Bloc n°2"
         id="text3711"
         style="line-height:0%;font-family:Iwona;-inkscape-font-specification:Sans;text-align:center;letter-spacing:0px;word-spacing:0px;text-anchor:middle">
        <path
           d="m 68.801605,215.94676 c 0,-3.52 -2.304,-5.376 -5.664,-6.08 2.464,-0.736 4.096,-2.336 4.096,-5.056 0,-3.904 -3.36,-5.504 -7.68,-5.504 -1.664,0 -3.328,0.096 -4.992,0.32 h -2.56 v 22.4 h 2.56 l 4.992,0.32 c 5.184,0 9.248,-1.76 9.248,-6.4 z m -4.192,-11.136 c 0,3.232 -3.616,4.896 -7.232,4.896 h -2.752 v -8.608 c 1.632,-0.224 3.296,-0.32 4.928,-0.32 2.624,0 5.056,1.6 5.056,4.032 z m 1.056,11.136 c 0,2.944 -2.912,4.928 -6.112,4.928 -1.632,0 -3.296,-0.096 -4.928,-0.32 v -9.728 h 4.128 c 3.52,0 6.912,1.888 6.912,5.12 z"
           style="font-size:32px;line-height:1.25"
           id="path558" />
        <path
           d="m 79.297588,220.90676 v -0.96 c -0.608,0.512 -1.312,0.928 -2.112,0.928 -1.184,0 -1.408,-1.472 -1.408,-2.848 v -18.4 h -2.496 v 18.4 c 0,2.144 0.832,4.32 2.72,4.32 1.216,0 2.368,-0.608 3.296,-1.44 z"
           style="font-size:32px;line-height:1.25"
           id="path560" />
        <path
           d="m 94.081531,214.82676 c 0,-4.896 -2.176,-7.52 -6.176,-7.52 -4.032,0 -6.208,2.624 -6.208,7.52 0,4.896 2.176,7.52 6.208,7.52 4,0 6.176,-2.624 6.176,-7.52 z m -2.816,0 c 0,4 -1.184,6.176 -3.36,6.176 -2.208,0 -3.392,-2.176 -3.392,-6.176 0,-4 1.184,-6.176 3.392,-6.176 2.176,0 3.36,2.176 3.36,6.176 z"
           style="font-size:32px;line-height:1.25"
           id="path562" />
        <path
           d="m 108.76952,210.95476 v -1.344 c -1.024,-1.44 -2.688,-2.304 -4.48,-2.304 -4,0 -6.687998,3.008 -6.687998,7.52 0,4.512 2.687998,7.52 6.687998,7.52 1.664,0 3.232,-0.832 4.16,-2.208 v -1.344 c -1.088,1.632 -2.208,2.208 -4.16,2.208 -2.304,0 -3.872,-2.464 -3.872,-6.176 0,-3.712 1.568,-6.176 3.872,-6.176 1.984,0 3.328,0.704 4.48,2.304 z"
           style="font-size:32px;line-height:1.25"
           id="path564" />
        <path
           d="m 134.36943,222.02676 v -10.4 c 0,-2.336 -1.792,-4.32 -4.096,-4.32 -1.92,0 -3.616,1.088 -4.992,2.432 v -2.112 h -2.496 v 14.4 h 2.496 v -11.296 c 1.088,-1.088 2.432,-1.952 3.936,-1.952 1.504,0 2.656,1.312 2.656,2.848 v 10.4 z"
           style="font-size:32px;line-height:1.25"
           id="path566" />
        <path
           d="m 147.61738,204.74676 c 0,-2.304 -1.888,-4.192 -4.224,-4.192 -2.304,0 -4.192,1.888 -4.192,4.192 0,2.304 1.888,4.192 4.192,4.192 2.336,0 4.224,-1.888 4.224,-4.192 z m -1.344,0 c 0,1.568 -1.28,2.848 -2.88,2.848 -1.568,0 -2.848,-1.28 -2.848,-2.848 0,-1.568 1.28,-2.848 2.848,-2.848 1.6,0 2.88,1.28 2.88,2.848 z"
           style="font-size:32px;line-height:1.25"
           id="path568" />
        <path
           d="m 165.24935,222.02676 v -1.984 h -11.296 l 5.888,-5.824 c 2.624,-2.624 5.088,-5.696 5.088,-9.408 0,-3.136 -3.104,-5.184 -6.464,-5.184 -2.528,0 -4.928,1.152 -6.496,3.104 v 1.344 c 1.632,-1.888 4,-2.976 6.496,-2.976 2.144,0 3.968,1.6 3.968,3.712 0,3.168 -1.472,6.112 -3.648,8.384 l -7.136,7.328 v 1.504 z"
           style="font-size:32px;line-height:1.25"
           id="path570" />
      </g>
    </g>
    <g
       transform="translate(336.11457,124.51576)"
       id="g3715">
      <path
         id="rect3717"
         style="fill:#ffeeaa;fill-opacity:0.588235;stroke:#000000"
         d="M 17.716536,166.53543 H 194.88191 V 255.1181 H 17.716536 Z" />
      <g
         aria-label="Bloc n°4"
         id="text3719"
         style="line-height:0%;font-family:Iwona;-inkscape-font-specification:Sans;text-align:center;letter-spacing:0px;word-spacing:0px;text-anchor:middle">
        <path
           d="m 68.801605,215.94676 c 0,-3.52 -2.304,-5.376 -5.664,-6.08 2.464,-0.736 4.096,-2.336 4.096,-5.056 0,-3.904 -3.36,-5.504 -7.68,-5.504 -1.664,0 -3.328,0.096 -4.992,0.32 h -2.56 v 22.4 h 2.56 l 4.992,0.32 c 5.184,0 9.248,-1.76 9.248,-6.4 z m -4.192,-11.136 c 0,3.232 -3.616,4.896 -7.232,4.896 h -2.752 v -8.608 c 1.632,-0.224 3.296,-0.32 4.928,-0.32 2.624,0 5.056,1.6 5.056,4.032 z m 1.056,11.136 c 0,2.944 -2.912,4.928 -6.112,4.928 -1.632,0 -3.296,-0.096 -4.928,-0.32 v -9.728 h 4.128 c 3.52,0 6.912,1.888 6.912,5.12 z"
           style="font-size:32px;line-height:1.25"
           id="path574" />
        <path
           d="m 79.297588,220.90676 v -0.96 c -0.608,0.512 -1.312,0.928 -2.112,0.928 -1.184,0 -1.408,-1.472 -1.408,-2.848 v -18.4 h -2.496 v 18.4 c 0,2.144 0.832,4.32 2.72,4.32 1.216,0 2.368,-0.608 3.296,-1.44 z"
           style="font-size:32px;line-height:1.25"
           id="path576" />
        <path
           d="m 94.081531,214.82676 c 0,-4.896 -2.176,-7.52 -6.176,-7.52 -4.032,0 -6.208,2.624 -6.208,7.52 0,4.896 2.176,7.52 6.208,7.52 4,0 6.176,-2.624 6.176,-7.52 z m -2.816,0 c 0,4 -1.184,6.176 -3.36,6.176 -2.208,0 -3.392,-2.176 -3.392,-6.176 0,-4 1.184,-6.176 3.392,-6.176 2.176,0 3.36,2.176 3.36,6.176 z"
           style="font-size:32px;line-height:1.25"
           id="path578" />
        <path
           d="m 108.76952,210.95476 v -1.344 c -1.024,-1.44 -2.688,-2.304 -4.48,-2.304 -4,0 -6.687998,3.008 -6.687998,7.52 0,4.512 2.687998,7.52 6.687998,7.52 1.664,0 3.232,-0.832 4.16,-2.208 v -1.344 c -1.088,1.632 -2.208,2.208 -4.16,2.208 -2.304,0 -3.872,-2.464 -3.872,-6.176 0,-3.712 1.568,-6.176 3.872,-6.176 1.984,0 3.328,0.704 4.48,2.304 z"
           style="font-size:32px;line-height:1.25"
           id="path580" />
        <path
           d="m 134.36943,222.02676 v -10.4 c 0,-2.336 -1.792,-4.32 -4.096,-4.32 -1.92,0 -3.616,1.088 -4.992,2.432 v -2.112 h -2.496 v 14.4 h 2.496 v -11.296 c 1.088,-1.088 2.432,-1.952 3.936,-1.952 1.504,0 2.656,1.312 2.656,2.848 v 10.4 z"
           style="font-size:32px;line-height:1.25"
           id="path582" />
        <path
           d="m 147.61738,204.74676 c 0,-2.304 -1.888,-4.192 -4.224,-4.192 -2.304,0 -4.192,1.888 -4.192,4.192 0,2.304 1.888,4.192 4.192,4.192 2.336,0 4.224,-1.888 4.224,-4.192 z m -1.344,0 c 0,1.568 -1.28,2.848 -2.88,2.848 -1.568,0 -2.848,-1.28 -2.848,-2.848 0,-1.568 1.28,-2.848 2.848,-2.848 1.6,0 2.88,1.28 2.88,2.848 z"
           style="font-size:32px;line-height:1.25"
           id="path584" />
        <path
           d="m 165.24935,214.34676 v -1.472 h -2.4 v -12.928 h -2.496 l -8.704,12.928 v 1.472 h 8.704 v 7.68 h 2.496 v -7.68 z m -4.896,-1.472 h -7.072 l 7.072,-10.528 z"
           style="font-size:32px;line-height:1.25"
           id="path586" />
      </g>
    </g>
    <g
       transform="translate(-35.932695,294.59449)"
       id="g3723">
      <path
         id="rect3725"
         style="fill:#ffeeaa;fill-opacity:0.588235;stroke:#000000"
         d="M 17.716536,166.53543 H 194.88191 V 255.1181 H 17.716536 Z" />
      <g
         aria-label="Bloc n°N-1"
         id="text3727"
         style="line-height:0%;font-family:Iwona;-inkscape-font-specification:Sans;text-align:center;letter-spacing:0px;word-spacing:0px;text-anchor:middle">
        <path
           d="m 49.649658,215.94676 c 0,-3.52 -2.304,-5.376 -5.664,-6.08 2.464,-0.736 4.096,-2.336 4.096,-5.056 0,-3.904 -3.36,-5.504 -7.68,-5.504 -1.664,0 -3.328,0.096 -4.992,0.32 h -2.56 v 22.4 h 2.56 l 4.992,0.32 c 5.184,0 9.248,-1.76 9.248,-6.4 z m -4.192,-11.136 c 0,3.232 -3.616,4.896 -7.232,4.896 h -2.752 v -8.608 c 1.632,-0.224 3.296,-0.32 4.928,-0.32 2.624,0 5.056,1.6 5.056,4.032 z m 1.056,11.136 c 0,2.944 -2.912,4.928 -6.112,4.928 -1.632,0 -3.296,-0.096 -4.928,-0.32 v -9.728 h 4.128 c 3.52,0 6.912,1.888 6.912,5.12 z"
           style="font-size:32px;line-height:1.25"
           id="path590" />
        <path
           d="m 60.145641,220.90676 v -0.96 c -0.608,0.512 -1.312,0.928 -2.112,0.928 -1.184,0 -1.408,-1.472 -1.408,-2.848 v -18.4 h -2.496 v 18.4 c 0,2.144 0.832,4.32 2.72,4.32 1.216,0 2.368,-0.608 3.296,-1.44 z"
           style="font-size:32px;line-height:1.25"
           id="path592" />
        <path
           d="m 74.929583,214.82676 c 0,-4.896 -2.176,-7.52 -6.176,-7.52 -4.032,0 -6.208,2.624 -6.208,7.52 0,4.896 2.176,7.52 6.208,7.52 4,0 6.176,-2.624 6.176,-7.52 z m -2.816,0 c 0,4 -1.184,6.176 -3.36,6.176 -2.208,0 -3.392,-2.176 -3.392,-6.176 0,-4 1.184,-6.176 3.392,-6.176 2.176,0 3.36,2.176 3.36,6.176 z"
           style="font-size:32px;line-height:1.25"
           id="path594" />
        <path
           d="m 89.617575,210.95476 v -1.344 c -1.024,-1.44 -2.688,-2.304 -4.48,-2.304 -4,0 -6.688,3.008 -6.688,7.52 0,4.512 2.688,7.52 6.688,7.52 1.664,0 3.232,-0.832 4.16,-2.208 v -1.344 c -1.088,1.632 -2.208,2.208 -4.16,2.208 -2.304,0 -3.872,-2.464 -3.872,-6.176 0,-3.712 1.568,-6.176 3.872,-6.176 1.984,0 3.328,0.704 4.48,2.304 z"
           style="font-size:32px;line-height:1.25"
           id="path596" />
        <path
           d="m 115.21749,222.02676 v -10.4 c 0,-2.336 -1.792,-4.32 -4.096,-4.32 -1.92,0 -3.616,1.088 -4.992,2.432 v -2.112 h -2.496 v 14.4 h 2.496 v -11.296 c 1.088,-1.088 2.432,-1.952 3.936,-1.952 1.504,0 2.656,1.312 2.656,2.848 v 10.4 z"
           style="font-size:32px;line-height:1.25"
           id="path598" />
        <path
           d="m 128.46543,204.74676 c 0,-2.304 -1.888,-4.192 -4.224,-4.192 -2.304,0 -4.192,1.888 -4.192,4.192 0,2.304 1.888,4.192 4.192,4.192 2.336,0 4.224,-1.888 4.224,-4.192 z m -1.344,0 c 0,1.568 -1.28,2.848 -2.88,2.848 -1.568,0 -2.848,-1.28 -2.848,-2.848 0,-1.568 1.28,-2.848 2.848,-2.848 1.6,0 2.88,1.28 2.88,2.848 z"
           style="font-size:32px;line-height:1.25"
           id="path600" />
        <path
           d="m 152.9134,222.02676 v -22.4 h -1.472 v 18.816 l -15.424,-18.816 h -1.92 v 22.4 h 1.472 v -18.816 l 15.424,18.816 z"
           style="font-size:32px;line-height:1.25"
           id="path602" />
        <path
           d="m 167.98534,215.62676 v -1.6 h -10.656 v 1.6 z"
           style="font-size:32px;line-height:1.25"
           id="path604" />
        <path
           d="m 179.76129,222.02676 v -22.08 h -1.856 c -1.76,2.016 -3.84,3.744 -6.144,5.088 v 1.344 c 1.952,-0.928 3.776,-2.016 5.504,-3.328 v 18.976 z"
           style="font-size:32px;line-height:1.25"
           id="path606" />
      </g>
    </g>
    <g
       id="g3731"
       transform="translate(336.11457,294.59449)">
      <path
         id="rect3733"
         style="fill:#ffeeaa;fill-opacity:0.588235;stroke:#000000"
         d="M 17.716536,166.53543 H 194.88191 V 255.1181 H 17.716536 Z" />
      <g
         aria-label="Bloc n°N"
         id="text3735"
         style="line-height:0%;font-family:Iwona;-inkscape-font-specification:Sans;text-align:center;letter-spacing:0px;word-spacing:0px;text-anchor:middle">
        <path
           d="m 64.593628,215.94676 c 0,-3.52 -2.304,-5.376 -5.664,-6.08 2.464,-0.736 4.096,-2.336 4.096,-5.056 0,-3.904 -3.36,-5.504 -7.68,-5.504 -1.664,0 -3.328,0.096 -4.992,0.32 h -2.56 v 22.4 h 2.56 l 4.992,0.32 c 5.184,0 9.248,-1.76 9.248,-6.4 z m -4.192,-11.136 c 0,3.232 -3.616,4.896 -7.232,4.896 h -2.752 v -8.608 c 1.632,-0.224 3.296,-0.32 4.928,-0.32 2.624,0 5.056,1.6 5.056,4.032 z m 1.056,11.136 c 0,2.944 -2.912,4.928 -6.112,4.928 -1.632,0 -3.296,-0.096 -4.928,-0.32 v -9.728 h 4.128 c 3.52,0 6.912,1.888 6.912,5.12 z"
           style="font-size:32px;line-height:1.25"
           id="path610" />
        <path
           d="m 75.089611,220.90676 v -0.96 c -0.608,0.512 -1.312,0.928 -2.112,0.928 -1.184,0 -1.408,-1.472 -1.408,-2.848 v -18.4 h -2.496 v 18.4 c 0,2.144 0.832,4.32 2.72,4.32 1.216,0 2.368,-0.608 3.296,-1.44 z"
           style="font-size:32px;line-height:1.25"
           id="path612" />
        <path
           d="m 89.873553,214.82676 c 0,-4.896 -2.176,-7.52 -6.176,-7.52 -4.032,0 -6.208,2.624 -6.208,7.52 0,4.896 2.176,7.52 6.208,7.52 4,0 6.176,-2.624 6.176,-7.52 z m -2.816,0 c 0,4 -1.184,6.176 -3.36,6.176 -2.208,0 -3.392,-2.176 -3.392,-6.176 0,-4 1.184,-6.176 3.392,-6.176 2.176,0 3.36,2.176 3.36,6.176 z"
           style="font-size:32px;line-height:1.25"
           id="path614" />
        <path
           d="m 104.56154,210.95476 v -1.344 c -1.024,-1.44 -2.688,-2.304 -4.48,-2.304 -3.999995,0 -6.687995,3.008 -6.687995,7.52 0,4.512 2.688,7.52 6.687995,7.52 1.664,0 3.232,-0.832 4.16,-2.208 v -1.344 c -1.088,1.632 -2.208,2.208 -4.16,2.208 -2.303995,0 -3.871995,-2.464 -3.871995,-6.176 0,-3.712 1.568,-6.176 3.871995,-6.176 1.984,0 3.328,0.704 4.48,2.304 z"
           style="font-size:32px;line-height:1.25"
           id="path616" />
        <path
           d="m 130.16146,222.02676 v -10.4 c 0,-2.336 -1.792,-4.32 -4.096,-4.32 -1.92,0 -3.616,1.088 -4.992,2.432 v -2.112 h -2.496 v 14.4 h 2.496 v -11.296 c 1.088,-1.088 2.432,-1.952 3.936,-1.952 1.504,0 2.656,1.312 2.656,2.848 v 10.4 z"
           style="font-size:32px;line-height:1.25"
           id="path618" />
        <path
           d="m 143.4094,204.74676 c 0,-2.304 -1.888,-4.192 -4.224,-4.192 -2.304,0 -4.192,1.888 -4.192,4.192 0,2.304 1.888,4.192 4.192,4.192 2.336,0 4.224,-1.888 4.224,-4.192 z m -1.344,0 c 0,1.568 -1.28,2.848 -2.88,2.848 -1.568,0 -2.848,-1.28 -2.848,-2.848 0,-1.568 1.28,-2.848 2.848,-2.848 1.6,0 2.88,1.28 2.88,2.848 z"
           style="font-size:32px;line-height:1.25"
           id="path620" />
        <path
           d="m 167.85737,222.02676 v -22.4 h -1.472 v 18.816 l -15.424,-18.816 h -1.92 v 22.4 h 1.472 v -18.816 l 15.424,18.816 z"
           style="font-size:32px;line-height:1.25"
           id="path622" />
      </g>
    </g>
    <path
       style="fill:none;stroke:#000000;stroke-width:2;stroke-linecap:butt;stroke-linejoin:miter;stroke-miterlimit:4;stroke-dasharray:2, 4;stroke-dashoffset:0;stroke-opacity:1"
       d="m 70.366515,407.98032 v 51.94789"
       id="path3739" />
    <path
       style="fill:#ffeeaa;fill-opacity:0.588235;fill-rule:evenodd;stroke:#000000;stroke-width:1px;stroke-linecap:butt;stroke-linejoin:miter;stroke-opacity:1"
       d="m 194.38229,188.29529 -10.62992,7.08661 v 28.34646 l 10.62992,7.08661 z"
       id="path3742" />
    <path
       id="path3744"
       d="m 194.38229,312.31104 -10.62992,7.08661 v 28.34646 l 10.62992,7.08661 z"
       style="fill:#ffeeaa;fill-opacity:0.588235;fill-rule:evenodd;stroke:#000000;stroke-width:1px;stroke-linecap:butt;stroke-linejoin:miter;stroke-opacity:1" />
    <path
       style="fill:#ffeeaa;fill-opacity:0.588235;fill-rule:evenodd;stroke:#000000;stroke-width:1px;stroke-linecap:butt;stroke-linejoin:miter;stroke-opacity:1"
       d="m 194.38229,482.38977 -10.62992,7.08661 v 28.34646 l 10.62992,7.08661 z"
       id="path3746" />
    <path
       style="fill:#afdde9;fill-opacity:1;fill-rule:evenodd;stroke:#000000;stroke-width:1px;stroke-linecap:butt;stroke-linejoin:miter;stroke-opacity:1"
       d="m 183.75237,202.46851 h -17.71654 v -3.5433 l -7.08661,10.62992 7.08661,10.62992 v -3.54331 h 17.71654 z"
       id="path3748" />
    <path
       id="path3750"
       d="m 183.75237,326.48426 h -17.71654 v -3.5433 l -7.08661,10.62992 7.08661,10.62992 v -3.54331 h 17.71654 z"
       style="fill:#afdde9;fill-opacity:1;fill-rule:evenodd;stroke:#000000;stroke-width:1px;stroke-linecap:butt;stroke-linejoin:miter;stroke-opacity:1" />
    <path
       style="fill:#afdde9;fill-opacity:1;fill-rule:evenodd;stroke:#000000;stroke-width:1px;stroke-linecap:butt;stroke-linejoin:miter;stroke-opacity:1"
       d="m 183.75237,496.56299 h -17.71654 v -3.5433 l -7.08661,10.62992 7.08661,10.62992 v -3.54331 h 17.71654 z"
       id="path3752" />
    <path
       id="path3754"
       d="m 318.39804,188.29529 10.62992,7.08661 v 28.34646 l -10.62992,7.08661 z"
       style="fill:#ffeeaa;fill-opacity:0.588235;fill-rule:evenodd;stroke:#000000;stroke-width:1px;stroke-linecap:butt;stroke-linejoin:miter;stroke-opacity:1" />
    <path
       style="fill:#ffeeaa;fill-opacity:0.588235;fill-rule:evenodd;stroke:#000000;stroke-width:1px;stroke-linecap:butt;stroke-linejoin:miter;stroke-opacity:1"
       d="m 318.39804,312.31104 10.62992,7.08661 v 28.34646 l -10.62992,7.08661 z"
       id="path3756" />
    <path
       id="path3758"
       d="m 318.39804,482.38977 10.62992,7.08661 v 28.34646 l -10.62992,7.08661 z"
       style="fill:#ffeeaa;fill-opacity:0.588235;fill-rule:evenodd;stroke:#000000;stroke-width:1px;stroke-linecap:butt;stroke-linejoin:miter;stroke-opacity:1" />
    <path
       id="path3760"
       d="m 329.02796,202.46851 h 17.71654 v -3.5433 l 7.08661,10.62992 -7.08661,10.62992 v -3.54331 h -17.71654 z"
       style="fill:#afdde9;fill-opacity:1;fill-rule:evenodd;stroke:#000000;stroke-width:1px;stroke-linecap:butt;stroke-linejoin:miter;stroke-opacity:1" />
    <path
       style="fill:#afdde9;fill-opacity:1;fill-rule:evenodd;stroke:#000000;stroke-width:1px;stroke-linecap:butt;stroke-linejoin:miter;stroke-opacity:1"
       d="m 329.02796,326.48426 h 17.71654 v -3.5433 l 7.08661,10.62992 -7.08661,10.62992 v -3.54331 h -17.71654 z"
       id="path3762" />
    <path
       id="path3764"
       d="m 329.02796,496.56299 h 17.71654 v -3.5433 l 7.08661,10.62992 -7.08661,10.62992 v -3.54331 h -17.71654 z"
       style="fill:#afdde9;fill-opacity:1;fill-rule:evenodd;stroke:#000000;stroke-width:1px;stroke-linecap:butt;stroke-linejoin:miter;stroke-opacity:1" />
    <path
       style="fill:#afdde9;fill-opacity:1;fill-rule:evenodd;stroke:#000000;stroke-width:1px;stroke-linecap:butt;stroke-linejoin:miter;stroke-opacity:1"
       d="m -71.365744,202.46851 h 53.149607 v 14.17323 h -17.716536 l -0.360647,49.6063 h 259.02207 v -3.5433 l 7.08661,10.62992 -7.08661,10.62992 v -3.54331 H -50.105901 v -63.77953 h -21.259843 v 3.54331 l -7.086614,-10.62992 7.086614,-10.62992 z"
       id="path3766" />
    <path
       id="path3768"
       d="m -71.365744,326.48426 h 53.149607 v 14.17323 h -17.716536 l -0.360647,49.6063 h 259.02207 v -3.5433 l 7.08661,10.62992 -7.08661,10.62992 v -3.54331 H -50.105901 v -63.77953 h -21.259843 v 3.54331 l -7.086614,-10.62992 7.086614,-10.62992 z"
       style="fill:#afdde9;fill-opacity:1;fill-rule:evenodd;stroke:#000000;stroke-width:1px;stroke-linecap:butt;stroke-linejoin:miter;stroke-opacity:1" />
    <path
       style="fill:#afdde9;fill-opacity:1;fill-rule:evenodd;stroke:#000000;stroke-width:1px;stroke-linecap:butt;stroke-linejoin:miter;stroke-opacity:1"
       d="m -71.365744,496.56299 h 53.149607 v 14.17323 h -17.716536 l -0.360647,49.6063 h 259.02207 v -3.5433 l 7.08661,10.62992 -7.08661,10.62992 v -3.54331 H -50.105901 v -63.77953 h -21.259843 v 3.54331 l -7.086614,-10.62992 7.086614,-10.62992 z"
       id="path3770" />
    <path
       id="path3772"
       d="m 584.14607,202.46851 h -53.14961 v 14.17323 h 17.71653 l 0.36065,49.6063 H 290.05157 v -3.5433 l -7.08661,10.62992 7.08661,10.62992 v -3.54331 h 272.83465 v -63.77953 h 21.25985 v 3.54331 l 7.08661,-10.62992 -7.08661,-10.62992 z"
       style="fill:#afdde9;fill-opacity:1;fill-rule:evenodd;stroke:#000000;stroke-width:1px;stroke-linecap:butt;stroke-linejoin:miter;stroke-opacity:1" />
    <path
       style="fill:#afdde9;fill-opacity:1;fill-rule:evenodd;stroke:#000000;stroke-width:1px;stroke-linecap:butt;stroke-linejoin:miter;stroke-opacity:1"
       d="m 584.14607,326.48426 h -53.14961 v 14.17323 h 17.71653 l 0.36065,49.6063 H 290.05157 v -3.5433 l -7.08661,10.62992 7.08661,10.62992 v -3.54331 h 272.83465 v -63.77953 h 21.25985 v 3.54331 l 7.08661,-10.62992 -7.08661,-10.62992 z"
       id="path3774" />
    <path
       id="path3776"
       d="m 584.14607,496.56299 h -53.14961 v 14.17323 h 17.71653 l 0.36065,49.6063 H 290.05157 v -3.5433 l -7.08661,10.62992 7.08661,10.62992 v -3.54331 h 272.83465 v -63.77953 h 21.25985 v 3.54331 l 7.08661,-10.62992 -7.08661,-10.62992 z"
       style="fill:#afdde9;fill-opacity:1;fill-rule:evenodd;stroke:#000000;stroke-width:1px;stroke-linecap:butt;stroke-linejoin:miter;stroke-opacity:1" />
    <g
       aria-label="Broches
d'entrée/sortie"
       id="text3841"
       style="line-height:0%;font-family:Iwona;-inkscape-font-specification:Sans;text-align:center;letter-spacing:0px;word-spacing:0px;text-anchor:middle">
      <path
         d="m 686.68193,199.20513 c 0,-2.2 -1.44,-3.36 -3.54,-3.8 1.54,-0.46 2.56,-1.46 2.56,-3.16 0,-2.44 -2.1,-3.44 -4.8,-3.44 -1.04,0 -2.08,0.06 -3.12,0.2 h -1.6 v 14 h 1.6 l 3.12,0.2 c 3.24,0 5.78,-1.1 5.78,-4 z m -2.62,-6.96 c 0,2.02 -2.26,3.06 -4.52,3.06 h -1.72 v -5.38 c 1.02,-0.14 2.06,-0.2 3.08,-0.2 1.64,0 3.16,1 3.16,2.52 z m 0.66,6.96 c 0,1.84 -1.82,3.08 -3.82,3.08 -1.02,0 -2.06,-0.06 -3.08,-0.2 v -6.08 h 2.58 c 2.2,0 4.32,1.18 4.32,3.2 z"
         style="font-size:20px;line-height:1.25"
         id="path625" />
      <path
         d="m 694.46192,195.24513 v -1.24 c -0.22,-0.08 -0.46,-0.14 -0.68,-0.14 -1.12,0 -2.02,0.78 -2.74,1.64 v -1.5 h -1.56 v 9 h 1.56 v -6.66 c 0.6,-0.7 1.36,-1.3 2.28,-1.3 0.38,0 0.78,0.08 1.14,0.2 z"
         style="font-size:20px;line-height:1.25"
         id="path627" />
      <path
         d="m 703.7019,198.50513 c 0,-3.06 -1.36,-4.7 -3.86,-4.7 -2.52,0 -3.88,1.64 -3.88,4.7 0,3.06 1.36,4.7 3.88,4.7 2.5,0 3.86,-1.64 3.86,-4.7 z m -1.76,0 c 0,2.5 -0.74,3.86 -2.1,3.86 -1.38,0 -2.12,-1.36 -2.12,-3.86 0,-2.5 0.74,-3.86 2.12,-3.86 1.36,0 2.1,1.36 2.1,3.86 z"
         style="font-size:20px;line-height:1.25"
         id="path629" />
      <path
         d="m 712.8819,196.08513 v -0.84 c -0.64,-0.9 -1.68,-1.44 -2.8,-1.44 -2.5,0 -4.18,1.88 -4.18,4.7 0,2.82 1.68,4.7 4.18,4.7 1.04,0 2.02,-0.52 2.6,-1.38 v -0.84 c -0.68,1.02 -1.38,1.38 -2.6,1.38 -1.44,0 -2.42,-1.54 -2.42,-3.86 0,-2.32 0.98,-3.86 2.42,-3.86 1.24,0 2.08,0.44 2.8,1.44 z"
         style="font-size:20px;line-height:1.25"
         id="path631" />
      <path
         d="m 722.22188,203.00513 v -6.5 c 0,-1.46 -1.12,-2.7 -2.56,-2.7 -1.2,0 -2.26,0.68 -3.12,1.52 v -6.32 h -1.56 v 14 h 1.56 v -7.06 c 0.68,-0.68 1.52,-1.22 2.46,-1.22 0.94,0 1.66,0.82 1.66,1.78 v 6.5 z"
         style="font-size:20px;line-height:1.25"
         id="path633" />
      <path
         d="m 732.56184,198.70513 v -0.2 c 0,-2.82 -1.54,-4.7 -3.86,-4.7 -2.34,0 -3.88,1.88 -3.88,4.7 0,2.82 1.54,4.7 3.88,4.7 1,0 1.98,-0.32 2.8,-0.9 v -0.84 c -0.94,0.6 -1.7,0.82 -2.8,0.82 -1.7,0 -2.12,-1.62 -2.12,-3.58 z m -1.76,-0.84 h -4.22 c 0,-1.6 0.68,-3.22 2.12,-3.22 1.42,0 2.1,1.62 2.1,3.22 z"
         style="font-size:20px;line-height:1.25"
         id="path635" />
      <path
         d="m 741.24182,200.44513 c 0,-1.58 -1.68,-2.4 -3.32,-2.8 -0.96,-0.24 -2,-0.64 -2,-1.58 0,-0.86 0.88,-1.42 1.84,-1.42 1.06,0 2.12,0.32 3,0.9 v -0.84 c -0.88,-0.58 -1.94,-0.9 -3,-0.9 -1.74,0 -3.34,1.06 -3.34,2.68 0,1.46 1.62,2.14 3.16,2.52 1.06,0.26 2.16,0.82 2.16,1.84 0,0.94 -0.96,1.52 -1.98,1.52 -1.24,0 -2.44,-0.3 -3.5,-0.9 v 0.84 c 1.06,0.6 2.26,0.9 3.5,0.9 1.8,0 3.48,-1.08 3.48,-2.76 z"
         style="font-size:20px;line-height:1.25"
         id="path637" />
      <path
         d="m 656.82204,228.00513 v -14 h -1.56 v 5.34 c -0.78,-0.34 -1.62,-0.54 -2.46,-0.54 -2.5,0 -3.72,2 -3.72,4.7 0,2.66 1,4.7 3.42,4.7 1.02,0 1.96,-0.46 2.76,-1.1 v 0.9 z m -1.56,-1.74 c -0.6,0.6 -1.34,1.1 -2.2,1.1 -1.82,0 -2.22,-1.76 -2.22,-3.86 0,-1.88 0.58,-3.86 2.22,-3.86 0.76,0 1.52,0.2 2.2,0.54 z"
         style="font-size:20px;line-height:1.25"
         id="path639" />
      <path
         d="m 660.10203,218.68513 v -4.68 h -0.92 v 4.68 z"
         style="font-size:20px;line-height:1.25"
         id="path641" />
      <path
         d="m 669.70202,223.70513 v -0.2 c 0,-2.82 -1.54,-4.7 -3.86,-4.7 -2.34,0 -3.88,1.88 -3.88,4.7 0,2.82 1.54,4.7 3.88,4.7 1,0 1.98,-0.32 2.8,-0.9 v -0.84 c -0.94,0.6 -1.7,0.82 -2.8,0.82 -1.7,0 -2.12,-1.62 -2.12,-3.58 z m -1.76,-0.84 h -4.22 c 0,-1.6 0.68,-3.22 2.12,-3.22 1.42,0 2.1,1.62 2.1,3.22 z"
         style="font-size:20px;line-height:1.25"
         id="path643" />
      <path
         d="m 679.542,228.00513 v -6.5 c 0,-1.46 -1.12,-2.7 -2.56,-2.7 -1.2,0 -2.26,0.68 -3.12,1.52 v -1.32 h -1.56 v 9 h 1.56 v -7.06 c 0.68,-0.68 1.52,-1.22 2.46,-1.22 0.94,0 1.66,0.82 1.66,1.78 v 6.5 z"
         style="font-size:20px;line-height:1.25"
         id="path645" />
      <path
         d="m 686.88196,227.30513 v -0.6 c -0.32,0.32 -0.7,0.58 -1.16,0.58 -0.72,0 -0.76,-0.94 -0.76,-1.78 v -5.66 h 1.92 v -0.84 h -1.92 v -3 h -0.94 c 0,1.6 -0.92,3.1 -2.38,3.1 v 0.74 h 1.76 v 5.66 c 0,1.32 0.42,2.7 1.56,2.7 0.74,0 1.38,-0.4 1.92,-0.9 z"
         style="font-size:20px;line-height:1.25"
         id="path647" />
      <path
         d="m 694.06193,220.24513 v -1.24 c -0.22,-0.08 -0.46,-0.14 -0.68,-0.14 -1.12,0 -2.02,0.78 -2.74,1.64 v -1.5 h -1.56 v 9 h 1.56 v -6.66 c 0.6,-0.7 1.36,-1.3 2.28,-1.3 0.38,0 0.78,0.08 1.14,0.2 z"
         style="font-size:20px;line-height:1.25"
         id="path649" />
      <path
         d="m 703.30191,223.70513 v -0.2 c 0,-2.82 -1.54,-4.7 -3.86,-4.7 -2.34,0 -3.88,1.88 -3.88,4.7 0,2.82 1.54,4.7 3.88,4.7 1,0 1.98,-0.32 2.8,-0.9 v -0.84 c -0.94,0.6 -1.7,0.82 -2.8,0.82 -1.7,0 -2.12,-1.62 -2.12,-3.58 z m -1.76,-0.84 h -4.22 c 0,-1.6 0.68,-3.22 2.12,-3.22 1.42,0 2.1,1.62 2.1,3.22 z m 0.06,-8.86 h -1.8 c 0,1.34 -0.42,2.66 -1.2,3.74 h 0.84 c 1.06,-1.06 2.16,-2.24 2.16,-3.74 z"
         style="font-size:20px;line-height:1.25"
         id="path651" />
      <path
         d="m 713.14189,223.70513 v -0.2 c 0,-2.82 -1.54,-4.7 -3.86,-4.7 -2.34,0 -3.88,1.88 -3.88,4.7 0,2.82 1.54,4.7 3.88,4.7 1,0 1.98,-0.32 2.8,-0.9 v -0.84 c -0.94,0.6 -1.7,0.82 -2.8,0.82 -1.7,0 -2.12,-1.62 -2.12,-3.58 z m -1.76,-0.84 h -4.22 c 0,-1.6 0.68,-3.22 2.12,-3.22 1.42,0 2.1,1.62 2.1,3.22 z"
         style="font-size:20px;line-height:1.25"
         id="path653" />
      <path
         d="m 720.02186,214.00513 h -1.04 l -4.08,16.3 h 1.04 z"
         style="font-size:20px;line-height:1.25"
         id="path655" />
      <path
         d="m 728.46184,225.44513 c 0,-1.58 -1.68,-2.4 -3.32,-2.8 -0.96,-0.24 -2,-0.64 -2,-1.58 0,-0.86 0.88,-1.42 1.84,-1.42 1.06,0 2.12,0.32 3,0.9 v -0.84 c -0.88,-0.58 -1.94,-0.9 -3,-0.9 -1.74,0 -3.34,1.06 -3.34,2.68 0,1.46 1.62,2.14 3.16,2.52 1.06,0.26 2.16,0.82 2.16,1.84 0,0.94 -0.96,1.52 -1.98,1.52 -1.24,0 -2.44,-0.3 -3.5,-0.9 v 0.84 c 1.06,0.6 2.26,0.9 3.5,0.9 1.8,0 3.48,-1.08 3.48,-2.76 z"
         style="font-size:20px;line-height:1.25"
         id="path657" />
      <path
         d="m 738.20182,223.50513 c 0,-3.06 -1.36,-4.7 -3.86,-4.7 -2.52,0 -3.88,1.64 -3.88,4.7 0,3.06 1.36,4.7 3.88,4.7 2.5,0 3.86,-1.64 3.86,-4.7 z m -1.76,0 c 0,2.5 -0.74,3.86 -2.1,3.86 -1.38,0 -2.12,-1.36 -2.12,-3.86 0,-2.5 0.74,-3.86 2.12,-3.86 1.36,0 2.1,1.36 2.1,3.86 z"
         style="font-size:20px;line-height:1.25"
         id="path659" />
      <path
         d="m 745.88181,220.24513 v -1.24 c -0.22,-0.08 -0.46,-0.14 -0.68,-0.14 -1.12,0 -2.02,0.78 -2.74,1.64 v -1.5 h -1.56 v 9 h 1.56 v -6.66 c 0.6,-0.7 1.36,-1.3 2.28,-1.3 0.38,0 0.78,0.08 1.14,0.2 z"
         style="font-size:20px;line-height:1.25"
         id="path661" />
      <path
         d="m 752.24176,227.30513 v -0.6 c -0.32,0.32 -0.7,0.58 -1.16,0.58 -0.72,0 -0.76,-0.94 -0.76,-1.78 v -5.66 h 1.92 v -0.84 h -1.92 v -3 h -0.94 c 0,1.6 -0.92,3.1 -2.38,3.1 v 0.74 h 1.76 v 5.66 c 0,1.32 0.42,2.7 1.56,2.7 0.74,0 1.38,-0.4 1.92,-0.9 z"
         style="font-size:20px;line-height:1.25"
         id="path663" />
      <path
         d="m 758.10174,227.30513 v -0.6 c -0.38,0.32 -0.82,0.58 -1.32,0.58 -0.74,0 -0.88,-0.92 -0.88,-1.78 v -6.5 h -1.56 v 6.5 c 0,1.34 0.52,2.7 1.7,2.7 0.76,0 1.48,-0.38 2.06,-0.9 z m -2,-11.42 c 0,-0.54 -0.44,-0.98 -0.98,-0.98 -0.54,0 -0.98,0.44 -0.98,0.98 0,0.54 0.44,0.98 0.98,0.98 0.54,0 0.98,-0.44 0.98,-0.98 z"
         style="font-size:20px;line-height:1.25"
         id="path665" />
      <path
         d="m 767.34172,223.70513 v -0.2 c 0,-2.82 -1.54,-4.7 -3.86,-4.7 -2.34,0 -3.88,1.88 -3.88,4.7 0,2.82 1.54,4.7 3.88,4.7 1,0 1.98,-0.32 2.8,-0.9 v -0.84 c -0.94,0.6 -1.7,0.82 -2.8,0.82 -1.7,0 -2.12,-1.62 -2.12,-3.58 z m -1.76,-0.84 h -4.22 c 0,-1.6 0.68,-3.22 2.12,-3.22 1.42,0 2.1,1.62 2.1,3.22 z"
         style="font-size:20px;line-height:1.25"
         id="path667" />
    </g>
    <path
       id="rect3749"
       style="opacity:1;fill:#ffeeaa;fill-opacity:0.588235;stroke:#000000;stroke-linecap:round"
       d="m -96.1689,167.03546 h 17.716532 v 88.58268 H -96.1689 Z" />
    <g
       id="g5479"
       transform="translate(-7.5862172,0.50000876)">
      <path
         id="rect3763"
         style="opacity:1;fill:#ffeeaa;fill-opacity:0.588235;stroke:#000000;stroke-width:0.999213;stroke-linecap:round"
         d="m -124.01575,166.53545 h 14.17323 v 14.17322 h -14.17323 z" />
      <path
         id="path3765"
         d="m -124.01576,173.62206 7.08662,-7.08662 7.08661,7.08662 -7.08661,7.08662 z"
         style="fill:none;fill-rule:evenodd;stroke:#000000;stroke-width:1px;stroke-linecap:butt;stroke-linejoin:bevel;stroke-opacity:1" />
    </g>
    <g
       id="g5483"
       transform="translate(-7.5862172,21.759845)">
      <path
         id="rect5485"
         style="opacity:1;fill:#ffeeaa;fill-opacity:0.588235;stroke:#000000;stroke-width:0.999213;stroke-linecap:round"
         d="m -124.01575,166.53545 h 14.17323 v 14.17322 h -14.17323 z" />
      <path
         style="fill:none;fill-rule:evenodd;stroke:#000000;stroke-width:1px;stroke-linecap:butt;stroke-linejoin:bevel;stroke-opacity:1"
         d="m -124.01576,173.62206 7.08662,-7.08662 7.08661,7.08662 -7.08661,7.08662 z"
         id="path5487" />
    </g>
    <g
       transform="translate(-7.586213,74.909457)"
       id="g5489">
      <path
         id="rect5491"
         style="opacity:1;fill:#ffeeaa;fill-opacity:0.588235;stroke:#000000;stroke-width:0.999213;stroke-linecap:round"
         d="m -124.01575,166.53545 h 14.17323 v 14.17322 h -14.17323 z" />
      <path
         id="path5493"
         d="m -124.01576,173.62206 7.08662,-7.08662 7.08661,7.08662 -7.08661,7.08662 z"
         style="fill:none;fill-rule:evenodd;stroke:#000000;stroke-width:1px;stroke-linecap:butt;stroke-linejoin:bevel;stroke-opacity:1" />
    </g>
    <path
       style="fill:none;fill-rule:evenodd;stroke:#000000;stroke-width:1px;stroke-linecap:butt;stroke-linejoin:miter;stroke-opacity:1;marker-start:url(#Arrow1Mstart);marker-end:url(#marker161170)"
       d="M -117.42874,174.12207 H -96.1689"
       id="path5495" />
    <path
       style="fill:none;fill-rule:evenodd;stroke:#000000;stroke-width:1;stroke-linecap:butt;stroke-linejoin:miter;stroke-miterlimit:4;stroke-dasharray:1, 3;stroke-dashoffset:0;stroke-opacity:1"
       d="M -124.51536,206.01184 V 237.9016"
       id="path7885" />
    <path
       id="path7899"
       d="M -117.42874,195.38191 H -96.1689"
       style="fill:none;fill-rule:evenodd;stroke:#000000;stroke-width:1px;stroke-linecap:butt;stroke-linejoin:miter;stroke-opacity:1;marker-start:url(#marker7901);marker-end:url(#marker8841)" />
    <path
       style="fill:none;fill-rule:evenodd;stroke:#000000;stroke-width:1px;stroke-linecap:butt;stroke-linejoin:miter;stroke-opacity:1;marker-start:url(#marker10101);marker-end:url(#marker11053)"
       d="M -117.42874,248.53152 H -96.1689"
       id="path10099" />
    <path
       id="rect12359"
       style="opacity:1;fill:#ffeeaa;fill-opacity:0.588235;stroke:#000000;stroke-linecap:round"
       d="m -96.1689,291.05118 h 17.716532 v 88.58268 H -96.1689 Z" />
    <g
       transform="translate(-7.5862172,124.51576)"
       id="g12361">
      <path
         id="rect12363"
         style="opacity:1;fill:#ffeeaa;fill-opacity:0.588235;stroke:#000000;stroke-width:0.999213;stroke-linecap:round"
         d="m -124.01575,166.53545 h 14.17323 v 14.17322 h -14.17323 z" />
      <path
         style="fill:none;fill-rule:evenodd;stroke:#000000;stroke-width:1px;stroke-linecap:butt;stroke-linejoin:bevel;stroke-opacity:1"
         d="m -124.01576,173.62206 7.08662,-7.08662 7.08661,7.08662 -7.08661,7.08662 z"
         id="path12365" />
    </g>
    <g
       transform="translate(-7.5862172,145.77559)"
       id="g12367">
      <path
         id="rect12369"
         style="opacity:1;fill:#ffeeaa;fill-opacity:0.588235;stroke:#000000;stroke-width:0.999213;stroke-linecap:round"
         d="m -124.01575,166.53545 h 14.17323 v 14.17322 h -14.17323 z" />
      <path
         id="path12371"
         d="m -124.01576,173.62206 7.08662,-7.08662 7.08661,7.08662 -7.08661,7.08662 z"
         style="fill:none;fill-rule:evenodd;stroke:#000000;stroke-width:1px;stroke-linecap:butt;stroke-linejoin:bevel;stroke-opacity:1" />
    </g>
    <g
       id="g12373"
       transform="translate(-7.586213,198.9252)">
      <path
         id="rect12375"
         style="opacity:1;fill:#ffeeaa;fill-opacity:0.588235;stroke:#000000;stroke-width:0.999213;stroke-linecap:round"
         d="m -124.01575,166.53545 h 14.17323 v 14.17322 h -14.17323 z" />
      <path
         style="fill:none;fill-rule:evenodd;stroke:#000000;stroke-width:1px;stroke-linecap:butt;stroke-linejoin:bevel;stroke-opacity:1"
         d="m -124.01576,173.62206 7.08662,-7.08662 7.08661,7.08662 -7.08661,7.08662 z"
         id="path12377" />
    </g>
    <path
       id="path12379"
       d="M -117.42874,298.13782 H -96.1689"
       style="fill:none;fill-rule:evenodd;stroke:#000000;stroke-width:1px;stroke-linecap:butt;stroke-linejoin:miter;stroke-opacity:1;marker-start:url(#Arrow1Mstart);marker-end:url(#marker161170)" />
    <path
       id="path12381"
       d="m -124.51536,330.02759 v 31.88976"
       style="fill:none;fill-rule:evenodd;stroke:#000000;stroke-width:1;stroke-linecap:butt;stroke-linejoin:miter;stroke-miterlimit:4;stroke-dasharray:1, 3;stroke-dashoffset:0;stroke-opacity:1" />
    <path
       style="fill:none;fill-rule:evenodd;stroke:#000000;stroke-width:1px;stroke-linecap:butt;stroke-linejoin:miter;stroke-opacity:1;marker-start:url(#marker7901);marker-end:url(#marker8841)"
       d="M -117.42874,319.39766 H -96.1689"
       id="path12383" />
    <path
       id="path12385"
       d="M -117.42874,372.54727 H -96.1689"
       style="fill:none;fill-rule:evenodd;stroke:#000000;stroke-width:1px;stroke-linecap:butt;stroke-linejoin:miter;stroke-opacity:1;marker-start:url(#marker10101);marker-end:url(#marker11053)" />
    <path
       id="rect12387"
       style="opacity:1;fill:#ffeeaa;fill-opacity:0.588235;stroke:#000000;stroke-linecap:round"
       d="m -96.1689,461.12991 h 17.716532 v 88.58268 H -96.1689 Z" />
    <g
       id="g12389"
       transform="translate(-7.5862172,294.5945)">
      <path
         id="rect12391"
         style="opacity:1;fill:#ffeeaa;fill-opacity:0.588235;stroke:#000000;stroke-width:0.999213;stroke-linecap:round"
         d="m -124.01575,166.53545 h 14.17323 v 14.17322 h -14.17323 z" />
      <path
         id="path12393"
         d="m -124.01576,173.62206 7.08662,-7.08662 7.08661,7.08662 -7.08661,7.08662 z"
         style="fill:none;fill-rule:evenodd;stroke:#000000;stroke-width:1px;stroke-linecap:butt;stroke-linejoin:bevel;stroke-opacity:1" />
    </g>
    <g
       id="g12395"
       transform="translate(-7.5862172,315.85433)">
      <path
         id="rect12397"
         style="opacity:1;fill:#ffeeaa;fill-opacity:0.588235;stroke:#000000;stroke-width:0.999213;stroke-linecap:round"
         d="m -124.01575,166.53545 h 14.17323 v 14.17322 h -14.17323 z" />
      <path
         style="fill:none;fill-rule:evenodd;stroke:#000000;stroke-width:1px;stroke-linecap:butt;stroke-linejoin:bevel;stroke-opacity:1"
         d="m -124.01576,173.62206 7.08662,-7.08662 7.08661,7.08662 -7.08661,7.08662 z"
         id="path12399" />
    </g>
    <g
       transform="translate(-7.586213,369.00394)"
       id="g12401">
      <path
         id="rect12403"
         style="opacity:1;fill:#ffeeaa;fill-opacity:0.588235;stroke:#000000;stroke-width:0.999213;stroke-linecap:round"
         d="m -124.01575,166.53545 h 14.17323 v 14.17322 h -14.17323 z" />
      <path
         id="path12405"
         d="m -124.01576,173.62206 7.08662,-7.08662 7.08661,7.08662 -7.08661,7.08662 z"
         style="fill:none;fill-rule:evenodd;stroke:#000000;stroke-width:1px;stroke-linecap:butt;stroke-linejoin:bevel;stroke-opacity:1" />
    </g>
    <path
       style="fill:none;fill-rule:evenodd;stroke:#000000;stroke-width:1px;stroke-linecap:butt;stroke-linejoin:miter;stroke-opacity:1;marker-start:url(#Arrow1Mstart);marker-end:url(#marker161170)"
       d="M -117.42874,468.21656 H -96.1689"
       id="path12407" />
    <path
       style="fill:none;fill-rule:evenodd;stroke:#000000;stroke-width:1;stroke-linecap:butt;stroke-linejoin:miter;stroke-miterlimit:4;stroke-dasharray:1, 3;stroke-dashoffset:0;stroke-opacity:1"
       d="m -124.51536,500.10633 v 31.88976"
       id="path12409" />
    <path
       id="path12411"
       d="M -117.42874,489.4764 H -96.1689"
       style="fill:none;fill-rule:evenodd;stroke:#000000;stroke-width:1px;stroke-linecap:butt;stroke-linejoin:miter;stroke-opacity:1;marker-start:url(#marker7901);marker-end:url(#marker8841)" />
    <path
       style="fill:none;fill-rule:evenodd;stroke:#000000;stroke-width:1px;stroke-linecap:butt;stroke-linejoin:miter;stroke-opacity:1;marker-start:url(#marker10101);marker-end:url(#marker11053)"
       d="M -117.42874,542.62601 H -96.1689"
       id="path12413" />
    <path
       id="rect12415"
       style="opacity:1;fill:#ffeeaa;fill-opacity:0.588235;stroke:#000000;stroke-linecap:round"
       transform="scale(-1,1)"
       d="m -608.94928,461.12991 h 17.71653 v 88.58268 h -17.71653 z" />
    <g
       transform="matrix(-1,0,0,1,520.36653,294.5945)"
       id="g12417">
      <path
         id="rect12419"
         style="opacity:1;fill:#ffeeaa;fill-opacity:0.588235;stroke:#000000;stroke-width:0.999213;stroke-linecap:round"
         d="m -124.01575,166.53545 h 14.17323 v 14.17322 h -14.17323 z" />
      <path
         style="fill:none;fill-rule:evenodd;stroke:#000000;stroke-width:1px;stroke-linecap:butt;stroke-linejoin:bevel;stroke-opacity:1"
         d="m -124.01576,173.62206 7.08662,-7.08662 7.08661,7.08662 -7.08661,7.08662 z"
         id="path12421" />
    </g>
    <g
       transform="matrix(-1,0,0,1,520.36653,315.85433)"
       id="g12423">
      <path
         id="rect12425"
         style="opacity:1;fill:#ffeeaa;fill-opacity:0.588235;stroke:#000000;stroke-width:0.999213;stroke-linecap:round"
         d="m -124.01575,166.53545 h 14.17323 v 14.17322 h -14.17323 z" />
      <path
         id="path12427"
         d="m -124.01576,173.62206 7.08662,-7.08662 7.08661,7.08662 -7.08661,7.08662 z"
         style="fill:none;fill-rule:evenodd;stroke:#000000;stroke-width:1px;stroke-linecap:butt;stroke-linejoin:bevel;stroke-opacity:1" />
    </g>
    <g
       id="g12429"
       transform="matrix(-1,0,0,1,520.36652,369.00394)">
      <path
         id="rect12431"
         style="opacity:1;fill:#ffeeaa;fill-opacity:0.588235;stroke:#000000;stroke-width:0.999213;stroke-linecap:round"
         d="m -124.01575,166.53545 h 14.17323 v 14.17322 h -14.17323 z" />
      <path
         style="fill:none;fill-rule:evenodd;stroke:#000000;stroke-width:1px;stroke-linecap:butt;stroke-linejoin:bevel;stroke-opacity:1"
         d="m -124.01576,173.62206 7.08662,-7.08662 7.08661,7.08662 -7.08661,7.08662 z"
         id="path12433" />
    </g>
    <path
       id="path12435"
       d="M 630.20905,468.21656 H 608.94921"
       style="fill:none;fill-rule:evenodd;stroke:#000000;stroke-width:1px;stroke-linecap:butt;stroke-linejoin:miter;stroke-opacity:1;marker-start:url(#Arrow1Mstart);marker-end:url(#marker161170)" />
    <path
       id="path12437"
       d="m 637.29567,500.10633 v 31.88976"
       style="fill:none;fill-rule:evenodd;stroke:#000000;stroke-width:1;stroke-linecap:butt;stroke-linejoin:miter;stroke-miterlimit:4;stroke-dasharray:1, 3;stroke-dashoffset:0;stroke-opacity:1" />
    <path
       style="fill:none;fill-rule:evenodd;stroke:#000000;stroke-width:1px;stroke-linecap:butt;stroke-linejoin:miter;stroke-opacity:1;marker-start:url(#marker7901);marker-end:url(#marker8841)"
       d="M 630.20905,489.4764 H 608.94921"
       id="path12439" />
    <path
       id="path12441"
       d="M 630.20905,542.62601 H 608.94921"
       style="fill:none;fill-rule:evenodd;stroke:#000000;stroke-width:1px;stroke-linecap:butt;stroke-linejoin:miter;stroke-opacity:1;marker-start:url(#marker10101);marker-end:url(#marker11053)" />
    <path
       id="rect12443"
       style="opacity:1;fill:#ffeeaa;fill-opacity:0.588235;stroke:#000000;stroke-linecap:round"
       transform="scale(-1,1)"
       d="m -608.94928,291.05118 h 17.71653 v 88.58268 h -17.71653 z" />
    <g
       id="g12445"
       transform="matrix(-1,0,0,1,520.36653,124.51576)">
      <path
         id="rect12447"
         style="opacity:1;fill:#ffeeaa;fill-opacity:0.588235;stroke:#000000;stroke-width:0.999213;stroke-linecap:round"
         d="m -124.01575,166.53545 h 14.17323 v 14.17322 h -14.17323 z" />
      <path
         id="path12449"
         d="m -124.01576,173.62206 7.08662,-7.08662 7.08661,7.08662 -7.08661,7.08662 z"
         style="fill:none;fill-rule:evenodd;stroke:#000000;stroke-width:1px;stroke-linecap:butt;stroke-linejoin:bevel;stroke-opacity:1" />
    </g>
    <g
       id="g12451"
       transform="matrix(-1,0,0,1,520.36653,145.77559)">
      <path
         id="rect12453"
         style="opacity:1;fill:#ffeeaa;fill-opacity:0.588235;stroke:#000000;stroke-width:0.999213;stroke-linecap:round"
         d="m -124.01575,166.53545 h 14.17323 v 14.17322 h -14.17323 z" />
      <path
         style="fill:none;fill-rule:evenodd;stroke:#000000;stroke-width:1px;stroke-linecap:butt;stroke-linejoin:bevel;stroke-opacity:1"
         d="m -124.01576,173.62206 7.08662,-7.08662 7.08661,7.08662 -7.08661,7.08662 z"
         id="path12455" />
    </g>
    <g
       transform="matrix(-1,0,0,1,520.36652,198.9252)"
       id="g12457">
      <path
         id="rect12459"
         style="opacity:1;fill:#ffeeaa;fill-opacity:0.588235;stroke:#000000;stroke-width:0.999213;stroke-linecap:round"
         d="m -124.01575,166.53545 h 14.17323 v 14.17322 h -14.17323 z" />
      <path
         id="path12461"
         d="m -124.01576,173.62206 7.08662,-7.08662 7.08661,7.08662 -7.08661,7.08662 z"
         style="fill:none;fill-rule:evenodd;stroke:#000000;stroke-width:1px;stroke-linecap:butt;stroke-linejoin:bevel;stroke-opacity:1" />
    </g>
    <path
       style="fill:none;fill-rule:evenodd;stroke:#000000;stroke-width:1px;stroke-linecap:butt;stroke-linejoin:miter;stroke-opacity:1;marker-start:url(#Arrow1Mstart);marker-end:url(#marker161170)"
       d="M 630.20905,298.13782 H 608.94921"
       id="path12463" />
    <path
       style="fill:none;fill-rule:evenodd;stroke:#000000;stroke-width:1;stroke-linecap:butt;stroke-linejoin:miter;stroke-miterlimit:4;stroke-dasharray:1, 3;stroke-dashoffset:0;stroke-opacity:1"
       d="m 637.29567,330.02759 v 31.88976"
       id="path12465" />
    <path
       id="path12467"
       d="M 630.20905,319.39766 H 608.94921"
       style="fill:none;fill-rule:evenodd;stroke:#000000;stroke-width:1px;stroke-linecap:butt;stroke-linejoin:miter;stroke-opacity:1;marker-start:url(#marker7901);marker-end:url(#marker8841)" />
    <path
       style="fill:none;fill-rule:evenodd;stroke:#000000;stroke-width:1px;stroke-linecap:butt;stroke-linejoin:miter;stroke-opacity:1;marker-start:url(#marker10101);marker-end:url(#marker11053)"
       d="M 630.20905,372.54727 H 608.94921"
       id="path12469" />
    <path
       id="rect12471"
       style="opacity:1;fill:#ffeeaa;fill-opacity:0.588235;stroke:#000000;stroke-linecap:round"
       transform="scale(-1,1)"
       d="m -608.94928,167.03546 h 17.71653 v 88.58268 h -17.71653 z" />
    <g
       transform="matrix(-1,0,0,1,520.36653,0.50001917)"
       id="g12473">
      <path
         id="rect12475"
         style="opacity:1;fill:#ffeeaa;fill-opacity:0.588235;stroke:#000000;stroke-width:0.999213;stroke-linecap:round"
         d="m -124.01575,166.53545 h 14.17323 v 14.17322 h -14.17323 z" />
      <path
         style="fill:none;fill-rule:evenodd;stroke:#000000;stroke-width:1px;stroke-linecap:butt;stroke-linejoin:bevel;stroke-opacity:1"
         d="m -124.01576,173.62206 7.08662,-7.08662 7.08661,7.08662 -7.08661,7.08662 z"
         id="path12477" />
    </g>
    <g
       transform="matrix(-1,0,0,1,520.36653,21.759849)"
       id="g12479">
      <path
         id="rect12481"
         style="opacity:1;fill:#ffeeaa;fill-opacity:0.588235;stroke:#000000;stroke-width:0.999213;stroke-linecap:round"
         d="m -124.01575,166.53545 h 14.17323 v 14.17322 h -14.17323 z" />
      <path
         id="path12483"
         d="m -124.01576,173.62206 7.08662,-7.08662 7.08661,7.08662 -7.08661,7.08662 z"
         style="fill:none;fill-rule:evenodd;stroke:#000000;stroke-width:1px;stroke-linecap:butt;stroke-linejoin:bevel;stroke-opacity:1" />
    </g>
    <g
       id="g12485"
       transform="matrix(-1,0,0,1,520.36652,74.909459)">
      <path
         id="rect12487"
         style="opacity:1;fill:#ffeeaa;fill-opacity:0.588235;stroke:#000000;stroke-width:0.999213;stroke-linecap:round"
         d="m -124.01575,166.53545 h 14.17323 v 14.17322 h -14.17323 z" />
      <path
         style="fill:none;fill-rule:evenodd;stroke:#000000;stroke-width:1px;stroke-linecap:butt;stroke-linejoin:bevel;stroke-opacity:1"
         d="m -124.01576,173.62206 7.08662,-7.08662 7.08661,7.08662 -7.08661,7.08662 z"
         id="path12489" />
    </g>
    <path
       id="path12491"
       d="M 630.20905,174.12208 H 608.94921"
       style="fill:none;fill-rule:evenodd;stroke:#000000;stroke-width:1px;stroke-linecap:butt;stroke-linejoin:miter;stroke-opacity:1;marker-start:url(#Arrow1Mstart);marker-end:url(#marker161170)" />
    <path
       id="path12493"
       d="m 637.29567,206.01185 v 31.88976"
       style="fill:none;fill-rule:evenodd;stroke:#000000;stroke-width:1;stroke-linecap:butt;stroke-linejoin:miter;stroke-miterlimit:4;stroke-dasharray:1, 3;stroke-dashoffset:0;stroke-opacity:1" />
    <path
       style="fill:none;fill-rule:evenodd;stroke:#000000;stroke-width:1px;stroke-linecap:butt;stroke-linejoin:miter;stroke-opacity:1;marker-start:url(#marker7901);marker-end:url(#marker8841)"
       d="M 630.20905,195.38192 H 608.94921"
       id="path12495" />
    <path
       id="path12497"
       d="M 630.20905,248.53153 H 608.94921"
       style="fill:none;fill-rule:evenodd;stroke:#000000;stroke-width:1px;stroke-linecap:butt;stroke-linejoin:miter;stroke-opacity:1;marker-start:url(#marker10101);marker-end:url(#marker11053)" />
    <g
       aria-label="Blocs de sélection
des entrées/sorties"
       id="text12499"
       style="line-height:0%;font-family:Iwona;-inkscape-font-specification:Sans;text-align:center;letter-spacing:0px;word-spacing:0px;text-anchor:middle">
      <path
         d="m 534.92807,124.25908 c 0,-2.2 -1.44,-3.36 -3.54,-3.8 1.54,-0.46 2.56,-1.46 2.56,-3.16 0,-2.44 -2.1,-3.44 -4.8,-3.44 -1.04,0 -2.08,0.06 -3.12,0.2 h -1.6 v 14 h 1.6 l 3.12,0.2 c 3.24,0 5.78,-1.1 5.78,-4 z m -2.62,-6.96 c 0,2.02 -2.26,3.06 -4.52,3.06 h -1.72 v -5.38 c 1.02,-0.14 2.06,-0.2 3.08,-0.2 1.64,0 3.16,1 3.16,2.52 z m 0.66,6.96 c 0,1.84 -1.82,3.08 -3.82,3.08 -1.02,0 -2.06,-0.06 -3.08,-0.2 v -6.08 h 2.58 c 2.2,0 4.32,1.18 4.32,3.2 z"
         style="font-size:20px;line-height:1.25"
         id="path694" />
      <path
         d="m 541.48806,127.35908 v -0.6 c -0.38,0.32 -0.82,0.58 -1.32,0.58 -0.74,0 -0.88,-0.92 -0.88,-1.78 v -11.5 h -1.56 v 11.5 c 0,1.34 0.52,2.7 1.7,2.7 0.76,0 1.48,-0.38 2.06,-0.9 z"
         style="font-size:20px;line-height:1.25"
         id="path696" />
      <path
         d="m 550.72803,123.55908 c 0,-3.06 -1.36,-4.7 -3.86,-4.7 -2.52,0 -3.88,1.64 -3.88,4.7 0,3.06 1.36,4.7 3.88,4.7 2.5,0 3.86,-1.64 3.86,-4.7 z m -1.76,0 c 0,2.5 -0.74,3.86 -2.1,3.86 -1.38,0 -2.12,-1.36 -2.12,-3.86 0,-2.5 0.74,-3.86 2.12,-3.86 1.36,0 2.1,1.36 2.1,3.86 z"
         style="font-size:20px;line-height:1.25"
         id="path698" />
      <path
         d="m 559.90802,121.13908 v -0.84 c -0.64,-0.9 -1.68,-1.44 -2.8,-1.44 -2.5,0 -4.18,1.88 -4.18,4.7 0,2.82 1.68,4.7 4.18,4.7 1.04,0 2.02,-0.52 2.6,-1.38 v -0.84 c -0.68,1.02 -1.38,1.38 -2.6,1.38 -1.44,0 -2.42,-1.54 -2.42,-3.86 0,-2.32 0.98,-3.86 2.42,-3.86 1.24,0 2.08,0.44 2.8,1.44 z"
         style="font-size:20px;line-height:1.25"
         id="path700" />
      <path
         d="m 568.088,125.49908 c 0,-1.58 -1.68,-2.4 -3.32,-2.8 -0.96,-0.24 -2,-0.64 -2,-1.58 0,-0.86 0.88,-1.42 1.84,-1.42 1.06,0 2.12,0.32 3,0.9 v -0.84 c -0.88,-0.58 -1.94,-0.9 -3,-0.9 -1.74,0 -3.34,1.06 -3.34,2.68 0,1.46 1.62,2.14 3.16,2.52 1.06,0.26 2.16,0.82 2.16,1.84 0,0.94 -0.96,1.52 -1.98,1.52 -1.24,0 -2.44,-0.3 -3.5,-0.9 v 0.84 c 1.06,0.6 2.26,0.9 3.5,0.9 1.8,0 3.48,-1.08 3.48,-2.76 z"
         style="font-size:20px;line-height:1.25"
         id="path702" />
      <path
         d="m 584.48795,128.05908 v -14 h -1.56 v 5.34 c -0.78,-0.34 -1.62,-0.54 -2.46,-0.54 -2.5,0 -3.72,2 -3.72,4.7 0,2.66 1,4.7 3.42,4.7 1.02,0 1.96,-0.46 2.76,-1.1 v 0.9 z m -1.56,-1.74 c -0.6,0.6 -1.34,1.1 -2.2,1.1 -1.82,0 -2.22,-1.76 -2.22,-3.86 0,-1.88 0.58,-3.86 2.22,-3.86 0.76,0 1.52,0.2 2.2,0.54 z"
         style="font-size:20px;line-height:1.25"
         id="path704" />
      <path
         d="m 594.92793,123.75908 v -0.2 c 0,-2.82 -1.54,-4.7 -3.86,-4.7 -2.34,0 -3.88,1.88 -3.88,4.7 0,2.82 1.54,4.7 3.88,4.7 1,0 1.98,-0.32 2.8,-0.9 v -0.84 c -0.94,0.6 -1.7,0.82 -2.8,0.82 -1.7,0 -2.12,-1.62 -2.12,-3.58 z m -1.76,-0.84 h -4.22 c 0,-1.6 0.68,-3.22 2.12,-3.22 1.42,0 2.1,1.62 2.1,3.22 z"
         style="font-size:20px;line-height:1.25"
         id="path706" />
      <path
         d="m 610.26787,125.49908 c 0,-1.58 -1.68,-2.4 -3.32,-2.8 -0.96,-0.24 -2,-0.64 -2,-1.58 0,-0.86 0.88,-1.42 1.84,-1.42 1.06,0 2.12,0.32 3,0.9 v -0.84 c -0.88,-0.58 -1.94,-0.9 -3,-0.9 -1.74,0 -3.34,1.06 -3.34,2.68 0,1.46 1.62,2.14 3.16,2.52 1.06,0.26 2.16,0.82 2.16,1.84 0,0.94 -0.96,1.52 -1.98,1.52 -1.24,0 -2.44,-0.3 -3.5,-0.9 v 0.84 c 1.06,0.6 2.26,0.9 3.5,0.9 1.8,0 3.48,-1.08 3.48,-2.76 z"
         style="font-size:20px;line-height:1.25"
         id="path708" />
      <path
         d="m 620.00785,123.75908 v -0.2 c 0,-2.82 -1.54,-4.7 -3.86,-4.7 -2.34,0 -3.88,1.88 -3.88,4.7 0,2.82 1.54,4.7 3.88,4.7 1,0 1.98,-0.32 2.8,-0.9 v -0.84 c -0.94,0.6 -1.7,0.82 -2.8,0.82 -1.7,0 -2.12,-1.62 -2.12,-3.58 z m -1.76,-0.84 h -4.22 c 0,-1.6 0.68,-3.22 2.12,-3.22 1.42,0 2.1,1.62 2.1,3.22 z m 0.06,-8.86 h -1.8 c 0,1.34 -0.42,2.66 -1.2,3.74 h 0.84 c 1.06,-1.06 2.16,-2.24 2.16,-3.74 z"
         style="font-size:20px;line-height:1.25"
         id="path710" />
      <path
         d="m 626.36782,127.35908 v -0.6 c -0.38,0.32 -0.82,0.58 -1.32,0.58 -0.74,0 -0.88,-0.92 -0.88,-1.78 v -11.5 h -1.56 v 11.5 c 0,1.34 0.52,2.7 1.7,2.7 0.76,0 1.48,-0.38 2.06,-0.9 z"
         style="font-size:20px;line-height:1.25"
         id="path712" />
      <path
         d="m 635.60779,123.75908 v -0.2 c 0,-2.82 -1.54,-4.7 -3.86,-4.7 -2.34,0 -3.88,1.88 -3.88,4.7 0,2.82 1.54,4.7 3.88,4.7 1,0 1.98,-0.32 2.8,-0.9 v -0.84 c -0.94,0.6 -1.7,0.82 -2.8,0.82 -1.7,0 -2.12,-1.62 -2.12,-3.58 z m -1.76,-0.84 h -4.22 c 0,-1.6 0.68,-3.22 2.12,-3.22 1.42,0 2.1,1.62 2.1,3.22 z"
         style="font-size:20px;line-height:1.25"
         id="path714" />
      <path
         d="m 644.68776,121.13908 v -0.84 c -0.64,-0.9 -1.68,-1.44 -2.8,-1.44 -2.5,0 -4.18,1.88 -4.18,4.7 0,2.82 1.68,4.7 4.18,4.7 1.04,0 2.02,-0.52 2.6,-1.38 v -0.84 c -0.68,1.02 -1.38,1.38 -2.6,1.38 -1.44,0 -2.42,-1.54 -2.42,-3.86 0,-2.32 0.98,-3.86 2.42,-3.86 1.24,0 2.08,0.44 2.8,1.44 z"
         style="font-size:20px;line-height:1.25"
         id="path716" />
      <path
         d="m 651.02774,127.35908 v -0.6 c -0.32,0.32 -0.7,0.58 -1.16,0.58 -0.72,0 -0.76,-0.94 -0.76,-1.78 v -5.66 h 1.92 v -0.84 h -1.92 v -3 h -0.94 c 0,1.6 -0.92,3.1 -2.38,3.1 v 0.74 h 1.76 v 5.66 c 0,1.32 0.42,2.7 1.56,2.7 0.74,0 1.38,-0.4 1.92,-0.9 z"
         style="font-size:20px;line-height:1.25"
         id="path718" />
      <path
         d="m 656.88772,127.35908 v -0.6 c -0.38,0.32 -0.82,0.58 -1.32,0.58 -0.74,0 -0.88,-0.92 -0.88,-1.78 v -6.5 h -1.56 v 6.5 c 0,1.34 0.52,2.7 1.7,2.7 0.76,0 1.48,-0.38 2.06,-0.9 z m -2,-11.42 c 0,-0.54 -0.44,-0.98 -0.98,-0.98 -0.54,0 -0.98,0.44 -0.98,0.98 0,0.54 0.44,0.98 0.98,0.98 0.54,0 0.98,-0.44 0.98,-0.98 z"
         style="font-size:20px;line-height:1.25"
         id="path720" />
      <path
         d="m 666.12769,123.55908 c 0,-3.06 -1.36,-4.7 -3.86,-4.7 -2.52,0 -3.88,1.64 -3.88,4.7 0,3.06 1.36,4.7 3.88,4.7 2.5,0 3.86,-1.64 3.86,-4.7 z m -1.76,0 c 0,2.5 -0.74,3.86 -2.1,3.86 -1.38,0 -2.12,-1.36 -2.12,-3.86 0,-2.5 0.74,-3.86 2.12,-3.86 1.36,0 2.1,1.36 2.1,3.86 z"
         style="font-size:20px;line-height:1.25"
         id="path722" />
      <path
         d="m 676.0677,128.05908 v -6.5 c 0,-1.46 -1.12,-2.7 -2.56,-2.7 -1.2,0 -2.26,0.68 -3.12,1.52 v -1.32 h -1.56 v 9 h 1.56 v -7.06 c 0.68,-0.68 1.52,-1.22 2.46,-1.22 0.94,0 1.66,0.82 1.66,1.78 v 6.5 z"
         style="font-size:20px;line-height:1.25"
         id="path724" />
      <path
         d="m 528.7581,153.05908 v -14 h -1.56 v 5.34 c -0.78,-0.34 -1.62,-0.54 -2.46,-0.54 -2.5,0 -3.72,2 -3.72,4.7 0,2.66 1,4.7 3.42,4.7 1.02,0 1.96,-0.46 2.76,-1.1 v 0.9 z m -1.56,-1.74 c -0.6,0.6 -1.34,1.1 -2.2,1.1 -1.82,0 -2.22,-1.76 -2.22,-3.86 0,-1.88 0.58,-3.86 2.22,-3.86 0.76,0 1.52,0.2 2.2,0.54 z"
         style="font-size:20px;line-height:1.25"
         id="path726" />
      <path
         d="m 539.19809,148.75908 v -0.2 c 0,-2.82 -1.54,-4.7 -3.86,-4.7 -2.34,0 -3.88,1.88 -3.88,4.7 0,2.82 1.54,4.7 3.88,4.7 1,0 1.98,-0.32 2.8,-0.9 v -0.84 c -0.94,0.6 -1.7,0.82 -2.8,0.82 -1.7,0 -2.12,-1.62 -2.12,-3.58 z m -1.76,-0.84 h -4.22 c 0,-1.6 0.68,-3.22 2.12,-3.22 1.42,0 2.1,1.62 2.1,3.22 z"
         style="font-size:20px;line-height:1.25"
         id="path728" />
      <path
         d="m 547.87806,150.49908 c 0,-1.58 -1.68,-2.4 -3.32,-2.8 -0.96,-0.24 -2,-0.64 -2,-1.58 0,-0.86 0.88,-1.42 1.84,-1.42 1.06,0 2.12,0.32 3,0.9 v -0.84 c -0.88,-0.58 -1.94,-0.9 -3,-0.9 -1.74,0 -3.34,1.06 -3.34,2.68 0,1.46 1.62,2.14 3.16,2.52 1.06,0.26 2.16,0.82 2.16,1.84 0,0.94 -0.96,1.52 -1.98,1.52 -1.24,0 -2.44,-0.3 -3.5,-0.9 v 0.84 c 1.06,0.6 2.26,0.9 3.5,0.9 1.8,0 3.48,-1.08 3.48,-2.76 z"
         style="font-size:20px;line-height:1.25"
         id="path730" />
      <path
         d="m 564.278,148.75908 v -0.2 c 0,-2.82 -1.54,-4.7 -3.86,-4.7 -2.34,0 -3.88,1.88 -3.88,4.7 0,2.82 1.54,4.7 3.88,4.7 1,0 1.98,-0.32 2.8,-0.9 v -0.84 c -0.94,0.6 -1.7,0.82 -2.8,0.82 -1.7,0 -2.12,-1.62 -2.12,-3.58 z m -1.76,-0.84 h -4.22 c 0,-1.6 0.68,-3.22 2.12,-3.22 1.42,0 2.1,1.62 2.1,3.22 z"
         style="font-size:20px;line-height:1.25"
         id="path732" />
      <path
         d="m 574.11798,153.05908 v -6.5 c 0,-1.46 -1.12,-2.7 -2.56,-2.7 -1.2,0 -2.26,0.68 -3.12,1.52 v -1.32 h -1.56 v 9 h 1.56 v -7.06 c 0.68,-0.68 1.52,-1.22 2.46,-1.22 0.94,0 1.66,0.82 1.66,1.78 v 6.5 z"
         style="font-size:20px;line-height:1.25"
         id="path734" />
      <path
         d="m 581.45794,152.35908 v -0.6 c -0.32,0.32 -0.7,0.58 -1.16,0.58 -0.72,0 -0.76,-0.94 -0.76,-1.78 v -5.66 h 1.92 v -0.84 h -1.92 v -3 h -0.94 c 0,1.6 -0.92,3.1 -2.38,3.1 v 0.74 h 1.76 v 5.66 c 0,1.32 0.42,2.7 1.56,2.7 0.74,0 1.38,-0.4 1.92,-0.9 z"
         style="font-size:20px;line-height:1.25"
         id="path736" />
      <path
         d="m 588.63791,145.29908 v -1.24 c -0.22,-0.08 -0.46,-0.14 -0.68,-0.14 -1.12,0 -2.02,0.78 -2.74,1.64 v -1.5 h -1.56 v 9 h 1.56 v -6.66 c 0.6,-0.7 1.36,-1.3 2.28,-1.3 0.38,0 0.78,0.08 1.14,0.2 z"
         style="font-size:20px;line-height:1.25"
         id="path738" />
      <path
         d="m 597.8779,148.75908 v -0.2 c 0,-2.82 -1.54,-4.7 -3.86,-4.7 -2.34,0 -3.88,1.88 -3.88,4.7 0,2.82 1.54,4.7 3.88,4.7 1,0 1.98,-0.32 2.8,-0.9 v -0.84 c -0.94,0.6 -1.7,0.82 -2.8,0.82 -1.7,0 -2.12,-1.62 -2.12,-3.58 z m -1.76,-0.84 h -4.22 c 0,-1.6 0.68,-3.22 2.12,-3.22 1.42,0 2.1,1.62 2.1,3.22 z m 0.06,-8.86 h -1.8 c 0,1.34 -0.42,2.66 -1.2,3.74 h 0.84 c 1.06,-1.06 2.16,-2.24 2.16,-3.74 z"
         style="font-size:20px;line-height:1.25"
         id="path740" />
      <path
         d="m 607.71787,148.75908 v -0.2 c 0,-2.82 -1.54,-4.7 -3.86,-4.7 -2.34,0 -3.88,1.88 -3.88,4.7 0,2.82 1.54,4.7 3.88,4.7 1,0 1.98,-0.32 2.8,-0.9 v -0.84 c -0.94,0.6 -1.7,0.82 -2.8,0.82 -1.7,0 -2.12,-1.62 -2.12,-3.58 z m -1.76,-0.84 h -4.22 c 0,-1.6 0.68,-3.22 2.12,-3.22 1.42,0 2.1,1.62 2.1,3.22 z"
         style="font-size:20px;line-height:1.25"
         id="path742" />
      <path
         d="m 616.39784,150.49908 c 0,-1.58 -1.68,-2.4 -3.32,-2.8 -0.96,-0.24 -2,-0.64 -2,-1.58 0,-0.86 0.88,-1.42 1.84,-1.42 1.06,0 2.12,0.32 3,0.9 v -0.84 c -0.88,-0.58 -1.94,-0.9 -3,-0.9 -1.74,0 -3.34,1.06 -3.34,2.68 0,1.46 1.62,2.14 3.16,2.52 1.06,0.26 2.16,0.82 2.16,1.84 0,0.94 -0.96,1.52 -1.98,1.52 -1.24,0 -2.44,-0.3 -3.5,-0.9 v 0.84 c 1.06,0.6 2.26,0.9 3.5,0.9 1.8,0 3.48,-1.08 3.48,-2.76 z"
         style="font-size:20px;line-height:1.25"
         id="path744" />
      <path
         d="m 623.17782,139.05908 h -1.04 l -4.08,16.3 h 1.04 z"
         style="font-size:20px;line-height:1.25"
         id="path746" />
      <path
         d="m 631.6178,150.49908 c 0,-1.58 -1.68,-2.4 -3.32,-2.8 -0.96,-0.24 -2,-0.64 -2,-1.58 0,-0.86 0.88,-1.42 1.84,-1.42 1.06,0 2.12,0.32 3,0.9 v -0.84 c -0.88,-0.58 -1.94,-0.9 -3,-0.9 -1.74,0 -3.34,1.06 -3.34,2.68 0,1.46 1.62,2.14 3.16,2.52 1.06,0.26 2.16,0.82 2.16,1.84 0,0.94 -0.96,1.52 -1.98,1.52 -1.24,0 -2.44,-0.3 -3.5,-0.9 v 0.84 c 1.06,0.6 2.26,0.9 3.5,0.9 1.8,0 3.48,-1.08 3.48,-2.76 z"
         style="font-size:20px;line-height:1.25"
         id="path748" />
      <path
         d="m 641.35778,148.55908 c 0,-3.06 -1.36,-4.7 -3.86,-4.7 -2.52,0 -3.88,1.64 -3.88,4.7 0,3.06 1.36,4.7 3.88,4.7 2.5,0 3.86,-1.64 3.86,-4.7 z m -1.76,0 c 0,2.5 -0.74,3.86 -2.1,3.86 -1.38,0 -2.12,-1.36 -2.12,-3.86 0,-2.5 0.74,-3.86 2.12,-3.86 1.36,0 2.1,1.36 2.1,3.86 z"
         style="font-size:20px;line-height:1.25"
         id="path750" />
      <path
         d="m 649.03777,145.29908 v -1.24 c -0.22,-0.08 -0.46,-0.14 -0.68,-0.14 -1.12,0 -2.02,0.78 -2.74,1.64 v -1.5 h -1.56 v 9 h 1.56 v -6.66 c 0.6,-0.7 1.36,-1.3 2.28,-1.3 0.38,0 0.78,0.08 1.14,0.2 z"
         style="font-size:20px;line-height:1.25"
         id="path752" />
      <path
         d="m 655.39772,152.35908 v -0.6 c -0.32,0.32 -0.7,0.58 -1.16,0.58 -0.72,0 -0.76,-0.94 -0.76,-1.78 v -5.66 h 1.92 v -0.84 h -1.92 v -3 h -0.94 c 0,1.6 -0.92,3.1 -2.38,3.1 v 0.74 h 1.76 v 5.66 c 0,1.32 0.42,2.7 1.56,2.7 0.74,0 1.38,-0.4 1.92,-0.9 z"
         style="font-size:20px;line-height:1.25"
         id="path754" />
      <path
         d="m 661.25769,152.35908 v -0.6 c -0.38,0.32 -0.82,0.58 -1.32,0.58 -0.74,0 -0.88,-0.92 -0.88,-1.78 v -6.5 h -1.56 v 6.5 c 0,1.34 0.52,2.7 1.7,2.7 0.76,0 1.48,-0.38 2.06,-0.9 z m -2,-11.42 c 0,-0.54 -0.44,-0.98 -0.98,-0.98 -0.54,0 -0.98,0.44 -0.98,0.98 0,0.54 0.44,0.98 0.98,0.98 0.54,0 0.98,-0.44 0.98,-0.98 z"
         style="font-size:20px;line-height:1.25"
         id="path756" />
      <path
         d="m 670.49768,148.75908 v -0.2 c 0,-2.82 -1.54,-4.7 -3.86,-4.7 -2.34,0 -3.88,1.88 -3.88,4.7 0,2.82 1.54,4.7 3.88,4.7 1,0 1.98,-0.32 2.8,-0.9 v -0.84 c -0.94,0.6 -1.7,0.82 -2.8,0.82 -1.7,0 -2.12,-1.62 -2.12,-3.58 z m -1.76,-0.84 h -4.22 c 0,-1.6 0.68,-3.22 2.12,-3.22 1.42,0 2.1,1.62 2.1,3.22 z"
         style="font-size:20px;line-height:1.25"
         id="path758" />
      <path
         d="m 679.17766,150.49908 c 0,-1.58 -1.68,-2.4 -3.32,-2.8 -0.96,-0.24 -2,-0.64 -2,-1.58 0,-0.86 0.88,-1.42 1.84,-1.42 1.06,0 2.12,0.32 3,0.9 v -0.84 c -0.88,-0.58 -1.94,-0.9 -3,-0.9 -1.74,0 -3.34,1.06 -3.34,2.68 0,1.46 1.62,2.14 3.16,2.52 1.06,0.26 2.16,0.82 2.16,1.84 0,0.94 -0.96,1.52 -1.98,1.52 -1.24,0 -2.44,-0.3 -3.5,-0.9 v 0.84 c 1.06,0.6 2.26,0.9 3.5,0.9 1.8,0 3.48,-1.08 3.48,-2.76 z"
         style="font-size:20px;line-height:1.25"
         id="path760" />
    </g>
  </g>
</svg>
