<?xml version="1.0" encoding="UTF-8" standalone="no"?>
<!-- Created with Inkscape (http://www.inkscape.org/) -->

<svg
   width="181.06879mm"
   height="61.141109mm"
   viewBox="0 0 641.58231 216.64173"
   id="svg19691"
   version="1.1"
   xmlns="http://www.w3.org/2000/svg"
   xmlns:svg="http://www.w3.org/2000/svg"
   xmlns:rdf="http://www.w3.org/1999/02/22-rdf-syntax-ns#"
   xmlns:cc="http://creativecommons.org/ns#"
   xmlns:dc="http://purl.org/dc/elements/1.1/">
  <defs
     id="defs19693" />
  <metadata
     id="metadata19696">
    <rdf:RDF>
      <cc:Work
         rdf:about="">
        <dc:format>image/svg+xml</dc:format>
        <dc:type
           rdf:resource="http://purl.org/dc/dcmitype/StillImage" />
        <dc:title />
      </cc:Work>
    </rdf:RDF>
  </metadata>
  <g
     id="layer1"
     transform="translate(-56.449195,-31.889754)">
    <path
       id="rect6453"
       style="display:inline;fill:#ff9d37;stroke-width:0.9375"
       d="m 620.0788,38.97644 h 6.64369 v 134.64568 h -6.64369 z" />
    <path
       id="rect6455"
       style="display:inline;fill:#ff9d37;stroke-width:0.9375"
       d="m 592.17523,38.976437 h 6.6437 V 173.62211 h -6.6437 z" />
    <path
       id="rect6451"
       style="display:inline;fill:#ff9d37;stroke-width:0.9375"
       d="m 279.92126,38.97644 h 6.6437 v 134.64568 h -6.6437 z" />
    <path
       id="rect265683-8-2"
       style="display:inline;fill:#ff9d37;stroke-width:0.9375"
       d="m 252.01773,38.976437 h 6.6437 V 173.62211 h -6.6437 z" />
    <path
       id="path10082"
       d="m 262.4261,177.6085 6.64369,6.64353 6.64369,-6.64353 h -3.32185 l 10e-5,-67.76593 h -6.64369 l -9e-5,67.76593 z"
       style="display:inline;opacity:1;fill:#2ad4ff;fill-opacity:1;stroke:none;stroke-width:0.936762;stroke-linecap:round;stroke-linejoin:miter;stroke-miterlimit:4;stroke-dasharray:none;stroke-dashoffset:0;stroke-opacity:1" />
    <g
       aria-label="clk"
       id="text24487"
       style="line-height:0%;font-family:Iwona;-inkscape-font-specification:Iwona;text-align:end;letter-spacing:0px;word-spacing:0px;text-anchor:end;stroke-width:1px">
      <path
         d="m 122.85814,54.18121 v -0.735 c -0.56,-0.7875 -1.47,-1.26 -2.45,-1.26 -2.1875,0 -3.6575,1.645 -3.6575,4.1125 0,2.4675 1.47,4.1125 3.6575,4.1125 0.91,0 1.7675,-0.455 2.275,-1.2075 v -0.735 c -0.595,0.8925 -1.2075,1.2075 -2.275,1.2075 -1.26,0 -2.1175,-1.3475 -2.1175,-3.3775 0,-2.03 0.8575,-3.3775 2.1175,-3.3775 1.085,0 1.82,0.385 2.45,1.26 z"
         style="font-size:17.5px;line-height:10"
         id="path32" />
      <path
         d="m 127.98562,59.62371 v -0.525 c -0.3325,0.28 -0.7175,0.5075 -1.155,0.5075 -0.6475,0 -0.77,-0.805 -0.77,-1.5575 v -10.0625 h -1.365 v 10.0625 c 0,1.1725 0.455,2.3625 1.4875,2.3625 0.665,0 1.295,-0.3325 1.8025,-0.7875 z"
         style="font-size:17.5px;line-height:10"
         id="path34" />
      <path
         d="m 136.50809,60.23621 -4.06,-4.6725 3.92,-3.2025 h -1.085 l -4.1825,3.43 v -7.805 h -1.365 v 12.25 h 1.365 v -4.3575 l 3.78,4.3575 z"
         style="font-size:17.5px;line-height:10"
         id="path36" />
    </g>
    <g
       aria-label="x"
       id="text24495"
       style="line-height:0%;font-family:Iwona;-inkscape-font-specification:Iwona;text-align:end;letter-spacing:0px;word-spacing:0px;text-anchor:end;stroke-width:1px">
      <path
         d="m 136.33311,95.669281 -2.7475,-4.2 2.66,-3.675 h -0.91 l -2.17,3.01 -1.96,-3.01 h -1.47 l 2.6075,4.0075 -2.7825,3.8675 h 0.91 l 2.31,-3.2025 2.0825,3.2025 z"
         style="font-size:17.5px;line-height:10"
         id="path39" />
    </g>
    <g
       aria-label="e"
       id="text24499"
       style="line-height:0%;font-family:Iwona;-inkscape-font-specification:Iwona;text-align:end;letter-spacing:0px;word-spacing:0px;text-anchor:end;stroke-width:1px">
      <path
         d="m 135.8081,198.20599 v -0.175 c 0,-2.4675 -1.3475,-4.1125 -3.3775,-4.1125 -2.0475,0 -3.395,1.645 -3.395,4.1125 0,2.4675 1.3475,4.1125 3.395,4.1125 0.875,0 1.7325,-0.28 2.45,-0.7875 v -0.735 c -0.8225,0.525 -1.4875,0.7175 -2.45,0.7175 -1.4875,0 -1.855,-1.4175 -1.855,-3.1325 z m -1.54,-0.735 h -3.6925 c 0,-1.4 0.595,-2.8175 1.855,-2.8175 1.2425,0 1.8375,1.4175 1.8375,2.8175 z"
         style="font-size:17.5px;line-height:10"
         id="path42" />
    </g>
    <path
       style="fill:none;fill-rule:evenodd;stroke:#000000;stroke-width:1px;stroke-linecap:butt;stroke-linejoin:miter;stroke-opacity:1"
       d="m 141.73228,42.519674 h 14.17324 v 21.259843 h 14.17322 V 42.519674 h 14.17323 v 21.259843 h 14.17322 V 42.519674 h 14.17324 v 21.259843 h 14.17322 V 42.519674 h 14.17323 V 63.779517 H 255.1181 V 42.519674 h 14.17324 v 21.259843 h 14.17322 V 42.519674 h 14.17323 v 21.259843 h 14.17322 V 42.519674 h 14.17324 v 21.259843 h 14.17322 V 42.519674 h 14.17323 v 21.259843 h 14.17322 V 42.519674 h 14.17325 v 21.259843 h 14.17322 V 42.519674 h 14.17323 v 21.259843 h 14.17322 V 42.519674 h 14.17324 V 63.779517 H 453.5433 V 42.519674 h 14.17323 v 21.259843 h 14.17322 V 42.519674 h 14.17324 v 21.259843 h 14.17322 V 42.519674 h 14.17323 v 21.259843 h 14.17322 V 42.519674 h 14.17324 v 21.259843 h 14.17322 V 42.519674 h 14.17323 v 21.259843 h 14.17322 l 10e-6,-21.259843 h 14.17324 v 21.259843 h 14.17322 V 42.519674 h 14.17323 v 21.259843 h 14.17322 V 42.519674 h 14.17324 v 21.259843 h 14.17322 V 42.519674 h 10.62993"
       id="path29163" />
    <path
       style="fill:none;fill-rule:evenodd;stroke:#000000;stroke-width:1px;stroke-linecap:butt;stroke-linejoin:miter;stroke-opacity:1"
       d="m 141.73229,99.212585 h 95.66929 l 3.54328,-21.25984 h 343.70081 l 3.54328,21.25984 h 102.75593"
       id="path29311" />
    <path
       id="path29317"
       d="m 141.73229,205.5118 h 113.38582 l 3.54328,-21.25984 h 24.80318 l 3.54328,21.25984 h 403.93703"
       style="fill:none;fill-rule:evenodd;stroke:#000000;stroke-width:1px;stroke-linecap:butt;stroke-linejoin:miter;stroke-opacity:1" />
    <g
       aria-label="x1"
       id="text3454"
       style="line-height:0%;font-family:Iwona;-inkscape-font-specification:Iwona;text-align:end;letter-spacing:0px;word-spacing:0px;text-anchor:end;stroke-width:1px">
      <path
         d="m 127.14561,131.10236 -2.7475,-4.2 2.66,-3.675 h -0.91 l -2.17,3.01 -1.96,-3.01 h -1.47 l 2.6075,4.0075 -2.7825,3.8675 h 0.91 l 2.31,-3.2025 2.0825,3.2025 z"
         style="font-size:17.5px;line-height:10"
         id="path45" />
      <path
         d="m 133.27058,131.10236 v -12.075 h -1.015 c -0.9625,1.1025 -2.1,2.0475 -3.36,2.7825 v 0.735 c 1.0675,-0.5075 2.065,-1.1025 3.01,-1.82 v 10.3775 z"
         style="font-size:17.5px;line-height:10"
         id="path47" />
    </g>
    <path
       id="path3458"
       d="m 141.73229,134.64566 h 113.38582 l 3.54328,-21.25984 h 336.6142 l 3.54328,21.25984 h 92.12601"
       style="fill:none;fill-rule:evenodd;stroke:#000000;stroke-width:1px;stroke-linecap:butt;stroke-linejoin:miter;stroke-opacity:1" />
    <g
       aria-label="x2"
       id="text3460"
       style="line-height:0%;font-family:Iwona;-inkscape-font-specification:Iwona;text-align:end;letter-spacing:0px;word-spacing:0px;text-anchor:end;stroke-width:1px">
      <path
         d="m 127.14561,166.53543 -2.7475,-4.2 2.66,-3.675 h -0.91 l -2.17,3.01 -1.96,-3.01 h -1.47 l 2.6075,4.0075 -2.7825,3.8675 h 0.91 l 2.31,-3.2025 2.0825,3.2025 z"
         style="font-size:17.5px;line-height:10"
         id="path50" />
      <path
         d="m 135.80808,166.53543 v -1.085 h -6.1775 l 3.22,-3.185 c 1.435,-1.435 2.7825,-3.115 2.7825,-5.145 0,-1.715 -1.6975,-2.835 -3.535,-2.835 -1.3825,0 -2.695,0.63 -3.5525,1.6975 v 0.735 c 0.8925,-1.0325 2.1875,-1.6275 3.5525,-1.6275 1.1725,0 2.17,0.875 2.17,2.03 0,1.7325 -0.805,3.3425 -1.995,4.585 l -3.9025,4.0075 v 0.8225 z"
         style="font-size:17.5px;line-height:10"
         id="path52" />
    </g>
    <path
       style="fill:none;fill-rule:evenodd;stroke:#000000;stroke-width:1px;stroke-linecap:butt;stroke-linejoin:miter;stroke-opacity:1"
       d="m 141.73229,170.07873 h 141.73228 l 3.54328,-21.25984 h 336.6142 l 3.54328,21.25984 h 63.77955"
       id="path3464" />
  </g>
</svg>
