<?xml version="1.0" encoding="UTF-8" standalone="no"?>
<!-- Created with Inkscape (http://www.inkscape.org/) -->

<svg
   width="194.28191mm"
   height="108.56689mm"
   viewBox="0 0 688.40046 384.68582"
   id="svg10609"
   version="1.1"
   xmlns="http://www.w3.org/2000/svg"
   xmlns:svg="http://www.w3.org/2000/svg"
   xmlns:rdf="http://www.w3.org/1999/02/22-rdf-syntax-ns#"
   xmlns:cc="http://creativecommons.org/ns#"
   xmlns:dc="http://purl.org/dc/elements/1.1/">
  <defs
     id="defs10611">
    <marker
       style="overflow:visible"
       id="DotM"
       refX="0"
       refY="0"
       orient="auto">
      <path
         transform="matrix(0.4,0,0,0.4,2.96,0.4)"
         style="fill-rule:evenodd;stroke:#000000;stroke-width:1.00000003pt;marker-start:none;marker-end:none"
         d="m -2.5,-1 c 0,2.76 -2.24,5 -5,5 -2.76,0 -5,-2.24 -5,-5 0,-2.76 2.24,-5 5,-5 2.76,0 5,2.24 5,5 z"
         id="path3694" />
    </marker>
  </defs>
  <metadata
     id="metadata10614">
    <rdf:RDF>
      <cc:Work
         rdf:about="">
        <dc:format>image/svg+xml</dc:format>
        <dc:type
           rdf:resource="http://purl.org/dc/dcmitype/StillImage" />
        <dc:title />
      </cc:Work>
    </rdf:RDF>
  </metadata>
  <g
     id="layer1"
     transform="translate(-10.130311,-123.51618)">
    <path
       id="rect2693"
       style="fill:#fff6d5;stroke:#000000;stroke-width:0.999213"
       d="M 17.716532,131.1024 H 361.41731 V 471.25987 H 17.716532 Z" />
    <path
       id="rect2385"
       style="fill:#d4aa00;stroke:#000000;stroke-width:0.999213"
       d="m 56.692909,166.53548 h 42.519688 v 42.51968 H 56.692909 Z" />
    <path
       id="rect2387"
       style="fill:#d4aa00;stroke:#000000;stroke-width:0.999213"
       d="m 53.149612,134.64572 h 21.259844 v 17.71654 H 53.149612 Z" />
    <path
       id="rect2389"
       style="fill:#d4aa00;stroke:#000000;stroke-width:0.999213"
       d="m 81.496071,134.64572 h 21.259839 v 17.71654 H 81.496071 Z" />
    <path
       id="rect2491"
       style="fill:#0088aa"
       d="m 102.75591,162.99217 h 7.08661 v 276.37796 h -7.08661 z" />
    <path
       id="rect2493"
       style="fill:#0088aa;stroke-width:0.999213"
       d="m 159.44882,162.99217 h 7.08661 v 276.37796 h -7.08661 z" />
    <path
       id="rect2495"
       style="fill:#d4aa00;stroke:#000000;stroke-width:0.999213"
       d="m 113.38581,166.53548 h 42.51969 v 42.51968 h -42.51969 z" />
    <path
       id="rect2497"
       style="fill:#d4aa00;stroke:#000000;stroke-width:0.999213"
       d="m 109.84251,134.64572 h 21.25984 v 17.71654 h -21.25984 z" />
    <path
       id="rect2499"
       style="fill:#d4aa00;stroke:#000000;stroke-width:0.999213"
       d="m 138.18898,134.64572 h 21.25984 v 17.71654 h -21.25984 z" />
    <path
       id="rect2501"
       style="fill:#d4aa00;stroke:#000000;stroke-width:0.999213"
       d="m 170.07874,166.53548 h 42.51968 v 42.51968 h -42.51968 z" />
    <path
       id="rect2503"
       style="fill:#d4aa00;stroke:#000000;stroke-width:0.999213"
       d="m 166.53543,134.64572 h 21.25984 v 17.71654 h -21.25984 z" />
    <path
       id="rect2505"
       style="fill:#d4aa00;stroke:#000000;stroke-width:0.999213"
       d="m 194.88188,134.64572 h 21.25984 v 17.71654 h -21.25984 z" />
    <path
       id="rect2507"
       style="fill:#0088aa"
       d="m 216.14172,162.99217 h 7.08662 v 276.37796 h -7.08662 z" />
    <path
       id="rect2509"
       style="fill:#0088aa"
       d="m 272.83466,162.99217 h 7.0866 v 276.37796 h -7.0866 z" />
    <path
       id="rect2511"
       style="fill:#d4aa00;stroke:#000000;stroke-width:0.999213"
       d="m 226.77164,166.53548 h 42.51968 v 42.51968 h -42.51968 z" />
    <path
       id="rect2513"
       style="fill:#d4aa00;stroke:#000000;stroke-width:0.999213"
       d="m 223.22833,134.64572 h 21.25985 v 17.71654 h -21.25985 z" />
    <path
       id="rect2515"
       style="fill:#d4aa00;stroke:#000000;stroke-width:0.999213"
       d="m 251.5748,134.64572 h 21.25984 v 17.71654 H 251.5748 Z" />
    <path
       id="rect2517"
       style="fill:#d4aa00;stroke:#000000;stroke-width:0.999213"
       d="m 283.46457,166.53548 h 42.51969 v 42.51968 h -42.51969 z" />
    <path
       id="rect2519"
       style="fill:#d4aa00;stroke:#000000;stroke-width:0.999213"
       d="m 279.92126,134.64572 h 21.25985 v 17.71654 h -21.25985 z" />
    <path
       id="rect2521"
       style="fill:#d4aa00;stroke:#000000;stroke-width:0.999213"
       d="m 308.2677,134.64572 h 21.25984 v 17.71654 H 308.2677 Z" />
    <path
       id="rect2523"
       style="fill:#0088aa"
       d="m 329.52756,162.99217 h 7.08661 v 276.37796 h -7.08661 z" />
    <path
       id="rect2533"
       style="fill:#d4aa00;stroke:#000000;stroke-width:0.999213"
       transform="rotate(-90)"
       d="m -184.25201,24.803144 h 21.25984 V 42.51968 h -21.25984 z" />
    <path
       id="rect2535"
       style="fill:#d4aa00;stroke:#000000;stroke-width:0.999213"
       transform="rotate(-90)"
       d="m -212.59848,24.803144 h 21.25984 V 42.51968 h -21.25984 z" />
    <path
       id="rect2537"
       style="fill:#0088aa"
       transform="rotate(-90)"
       d="m -219.68509,53.149605 h 7.08661 V 336.61417 h -7.08661 z" />
    <path
       id="rect2539"
       style="fill:#0088aa"
       transform="rotate(-90)"
       d="m -162.99217,53.149605 h 7.08661 V 336.61417 h -7.08661 z" />
    <path
       id="rect2541"
       style="fill:#0088aa"
       d="m 46.062992,155.90555 h 7.086612 v 290.55118 h -7.086612 z" />
    <path
       id="rect2543"
       style="fill:#d4aa00;stroke:#000000;stroke-width:0.999213"
       transform="rotate(-90)"
       d="m -184.25201,24.803144 h 21.25984 V 42.51968 h -21.25984 z" />
    <path
       id="rect2545"
       style="fill:#d4aa00;stroke:#000000;stroke-width:0.999213"
       transform="rotate(-90)"
       d="m -212.59848,24.803144 h 21.25984 V 42.51968 h -21.25984 z" />
    <path
       id="rect2547"
       style="fill:#d4aa00;stroke:#000000;stroke-width:0.999213"
       d="m 56.692917,223.22841 h 42.519688 v 42.51968 H 56.692917 Z" />
    <path
       id="rect2549"
       style="fill:#d4aa00;stroke:#000000;stroke-width:0.999213"
       d="m 113.38582,223.22842 h 42.51969 v 42.51969 h -42.51969 z" />
    <path
       id="rect2551"
       style="fill:#d4aa00;stroke:#000000;stroke-width:0.999213"
       d="m 170.07875,223.22841 h 42.51969 v 42.51968 h -42.51969 z" />
    <path
       id="rect2553"
       style="fill:#d4aa00;stroke:#000000;stroke-width:0.999213"
       d="m 226.77165,223.22841 h 42.51969 v 42.51968 h -42.51969 z" />
    <path
       id="rect2555"
       style="fill:#d4aa00;stroke:#000000;stroke-width:0.999213"
       d="m 283.46457,223.22842 h 42.51969 v 42.51969 h -42.51969 z" />
    <path
       id="rect2559"
       style="fill:#d4aa00;stroke:#000000;stroke-width:0.999213"
       transform="rotate(-90)"
       d="m -240.94495,24.803152 h 21.25985 v 17.716536 h -21.25985 z" />
    <path
       id="rect2561"
       style="fill:#d4aa00;stroke:#000000;stroke-width:0.999213"
       transform="rotate(-90)"
       d="m -269.29144,24.803152 h 21.25984 v 17.716536 h -21.25984 z" />
    <path
       id="rect2563"
       style="fill:#0088aa"
       transform="rotate(-90)"
       d="m -276.37805,53.149612 h 7.08664 V 336.61418 h -7.08664 z" />
    <path
       id="rect2565"
       style="fill:#d4aa00;stroke:#000000;stroke-width:0.999213"
       transform="rotate(-90)"
       d="m -240.94495,24.803152 h 21.25985 v 17.716536 h -21.25985 z" />
    <path
       id="rect2567"
       style="fill:#d4aa00;stroke:#000000;stroke-width:0.999213"
       transform="rotate(-90)"
       d="m -269.29144,24.803152 h 21.25984 v 17.716536 h -21.25984 z" />
    <path
       id="rect2569"
       style="fill:#d4aa00;stroke:#000000;stroke-width:0.999213"
       d="m 56.692902,279.92133 h 42.519687 v 42.51968 H 56.692902 Z" />
    <path
       id="rect2571"
       style="fill:#d4aa00;stroke:#000000;stroke-width:0.999213"
       d="m 113.38581,279.92133 h 42.51969 v 42.51968 h -42.51969 z" />
    <path
       id="rect2573"
       style="fill:#d4aa00;stroke:#000000;stroke-width:0.999213"
       d="m 170.07874,279.92133 h 42.51968 v 42.51968 h -42.51968 z" />
    <path
       id="rect2575"
       style="fill:#d4aa00;stroke:#000000;stroke-width:0.999213"
       d="m 226.77164,279.92133 h 42.51968 v 42.51968 h -42.51968 z" />
    <path
       id="rect2577"
       style="fill:#d4aa00;stroke:#000000;stroke-width:0.999213"
       d="m 283.46454,279.92133 h 42.51969 v 42.51968 h -42.51969 z" />
    <path
       id="rect2581"
       style="fill:#d4aa00;stroke:#000000;stroke-width:0.999213"
       transform="rotate(-90)"
       d="m -297.63788,24.803137 h 21.25985 v 17.716535 h -21.25985 z" />
    <path
       id="rect2583"
       style="fill:#d4aa00;stroke:#000000;stroke-width:0.999213"
       transform="rotate(-90)"
       d="m -325.98434,24.803137 h 21.25984 v 17.716535 h -21.25984 z" />
    <path
       id="rect2585"
       style="fill:#0088aa"
       transform="rotate(-90)"
       d="m -333.07095,53.149597 h 7.08662 V 336.61417 h -7.08662 z" />
    <path
       id="rect2587"
       style="fill:#d4aa00;stroke:#000000;stroke-width:0.999213"
       transform="rotate(-90)"
       d="m -297.63788,24.803137 h 21.25985 v 17.716535 h -21.25985 z" />
    <path
       id="rect2589"
       style="fill:#d4aa00;stroke:#000000;stroke-width:0.999213"
       transform="rotate(-90)"
       d="m -325.98434,24.803137 h 21.25984 v 17.716535 h -21.25984 z" />
    <path
       id="rect2591"
       style="fill:#d4aa00;stroke:#000000;stroke-width:0.999213"
       d="m 56.692902,336.61423 h 42.519687 v 42.51968 H 56.692902 Z" />
    <path
       id="rect2593"
       style="fill:#d4aa00;stroke:#000000;stroke-width:0.999213"
       d="m 113.38581,336.61423 h 42.51969 v 42.51968 h -42.51969 z" />
    <path
       id="rect2595"
       style="fill:#d4aa00;stroke:#000000;stroke-width:0.999213"
       d="m 170.07874,336.61423 h 42.51968 v 42.51968 h -42.51968 z" />
    <path
       id="rect2597"
       style="fill:#d4aa00;stroke:#000000;stroke-width:0.999213"
       d="m 226.77164,336.61423 h 42.51968 v 42.51968 h -42.51968 z" />
    <path
       id="rect2599"
       style="fill:#d4aa00;stroke:#000000;stroke-width:0.999213"
       d="m 283.46454,336.61423 h 42.51969 v 42.51968 h -42.51969 z" />
    <path
       id="rect2603"
       style="fill:#d4aa00;stroke:#000000;stroke-width:0.999213"
       transform="rotate(-90)"
       d="m -354.33078,24.803137 h 21.25984 v 17.716535 h -21.25984 z" />
    <path
       id="rect2605"
       style="fill:#d4aa00;stroke:#000000;stroke-width:0.999213"
       transform="rotate(-90)"
       d="m -382.67725,24.803137 h 21.25985 v 17.716535 h -21.25985 z" />
    <path
       id="rect2607"
       style="fill:#0088aa"
       transform="rotate(-90)"
       d="m -389.76385,53.149597 h 7.08661 V 336.61417 h -7.08661 z" />
    <path
       id="rect2609"
       style="fill:#d4aa00;stroke:#000000;stroke-width:0.999213"
       transform="rotate(-90)"
       d="m -354.33078,24.803137 h 21.25984 v 17.716535 h -21.25984 z" />
    <path
       id="rect2611"
       style="fill:#d4aa00;stroke:#000000;stroke-width:0.999213"
       transform="rotate(-90)"
       d="m -382.67725,24.803137 h 21.25985 v 17.716535 h -21.25985 z" />
    <path
       id="rect2613"
       style="fill:#d4aa00;stroke:#000000;stroke-width:0.999213"
       d="m 56.692909,393.30716 h 42.519688 v 42.51968 H 56.692909 Z" />
    <path
       id="rect2615"
       style="fill:#d4aa00;stroke:#000000;stroke-width:0.999213"
       d="m 113.38581,393.30716 h 42.51969 v 42.51968 h -42.51969 z" />
    <path
       id="rect2617"
       style="fill:#d4aa00;stroke:#000000;stroke-width:0.999213"
       d="m 170.07875,393.30716 h 42.51969 v 42.51968 h -42.51969 z" />
    <path
       id="rect2619"
       style="fill:#d4aa00;stroke:#000000;stroke-width:0.999213"
       d="m 226.77165,393.30716 h 42.51969 v 42.51968 h -42.51969 z" />
    <path
       id="rect2621"
       style="fill:#d4aa00;stroke:#000000;stroke-width:0.999213"
       d="m 283.46454,393.30716 h 42.51969 v 42.51968 h -42.51969 z" />
    <path
       id="rect2623"
       style="fill:#d4aa00;stroke:#000000;stroke-width:0.999213"
       transform="rotate(-90)"
       d="m -411.02368,24.803144 h 21.25984 V 42.51968 h -21.25984 z" />
    <path
       id="rect2625"
       style="fill:#d4aa00;stroke:#000000;stroke-width:0.999213"
       transform="rotate(-90)"
       d="m -439.37015,24.803144 h 21.25985 V 42.51968 h -21.25985 z" />
    <path
       id="rect2627"
       style="fill:#0088aa"
       transform="rotate(-90)"
       d="m -446.45676,53.149605 h 7.08662 V 336.61417 h -7.08662 z" />
    <path
       id="rect2629"
       style="fill:#d4aa00;stroke:#000000;stroke-width:0.999213"
       transform="rotate(-90)"
       d="m -411.02368,24.803144 h 21.25984 V 42.51968 h -21.25984 z" />
    <path
       id="rect2631"
       style="fill:#d4aa00;stroke:#000000;stroke-width:0.999213"
       transform="rotate(-90)"
       d="m -439.37015,24.803144 h 21.25985 V 42.51968 h -21.25985 z" />
    <path
       id="rect2633"
       style="fill:#d4aa00;stroke:#000000;stroke-width:0.999213"
       transform="rotate(-90)"
       d="m -184.25198,340.15747 h 21.25984 v 17.71654 h -21.25984 z" />
    <path
       id="rect2635"
       style="fill:#d4aa00;stroke:#000000;stroke-width:0.999213"
       transform="rotate(-90)"
       d="m -212.59845,340.15747 h 21.25984 v 17.71654 h -21.25984 z" />
    <path
       id="rect2637"
       style="fill:#d4aa00;stroke:#000000;stroke-width:0.999213"
       transform="rotate(-90)"
       d="m -184.25198,340.15747 h 21.25984 v 17.71654 h -21.25984 z" />
    <path
       id="rect2639"
       style="fill:#d4aa00;stroke:#000000;stroke-width:0.999213"
       transform="rotate(-90)"
       d="m -212.59845,340.15747 h 21.25984 v 17.71654 h -21.25984 z" />
    <path
       id="rect2641"
       style="fill:#d4aa00;stroke:#000000;stroke-width:0.999213"
       transform="rotate(-90)"
       d="m -240.94493,340.15747 h 21.25984 v 17.71654 h -21.25984 z" />
    <path
       id="rect2643"
       style="fill:#d4aa00;stroke:#000000;stroke-width:0.999213"
       transform="rotate(-90)"
       d="m -269.29141,340.15747 h 21.25984 v 17.71654 h -21.25984 z" />
    <path
       id="rect2645"
       style="fill:#d4aa00;stroke:#000000;stroke-width:0.999213"
       transform="rotate(-90)"
       d="m -240.94493,340.15747 h 21.25984 v 17.71654 h -21.25984 z" />
    <path
       id="rect2647"
       style="fill:#d4aa00;stroke:#000000;stroke-width:0.999213"
       transform="rotate(-90)"
       d="m -269.29141,340.15747 h 21.25984 v 17.71654 h -21.25984 z" />
    <path
       id="rect2649"
       style="fill:#d4aa00;stroke:#000000;stroke-width:0.999213"
       transform="rotate(-90)"
       d="m -297.63785,340.15747 h 21.25985 v 17.71654 h -21.25985 z" />
    <path
       id="rect2651"
       style="fill:#d4aa00;stroke:#000000;stroke-width:0.999213"
       transform="rotate(-90)"
       d="m -325.98431,340.15747 h 21.25984 v 17.71654 h -21.25984 z" />
    <path
       id="rect2653"
       style="fill:#d4aa00;stroke:#000000;stroke-width:0.999213"
       transform="rotate(-90)"
       d="m -297.63785,340.15747 h 21.25985 v 17.71654 h -21.25985 z" />
    <path
       id="rect2655"
       style="fill:#d4aa00;stroke:#000000;stroke-width:0.999213"
       transform="rotate(-90)"
       d="m -325.98431,340.15747 h 21.25984 v 17.71654 h -21.25984 z" />
    <path
       id="rect2657"
       style="fill:#d4aa00;stroke:#000000;stroke-width:0.999213"
       transform="rotate(-90)"
       d="m -354.33075,340.15747 h 21.25984 v 17.71654 h -21.25984 z" />
    <path
       id="rect2659"
       style="fill:#d4aa00;stroke:#000000;stroke-width:0.999213"
       transform="rotate(-90)"
       d="m -382.67722,340.15747 h 21.25985 v 17.71654 h -21.25985 z" />
    <path
       id="rect2661"
       style="fill:#d4aa00;stroke:#000000;stroke-width:0.999213"
       transform="rotate(-90)"
       d="m -354.33075,340.15747 h 21.25984 v 17.71654 h -21.25984 z" />
    <path
       id="rect2663"
       style="fill:#d4aa00;stroke:#000000;stroke-width:0.999213"
       transform="rotate(-90)"
       d="m -382.67722,340.15747 h 21.25985 v 17.71654 h -21.25985 z" />
    <path
       id="rect2665"
       style="fill:#d4aa00;stroke:#000000;stroke-width:0.999213"
       transform="rotate(-90)"
       d="m -411.02365,340.15747 h 21.25984 v 17.71654 h -21.25984 z" />
    <path
       id="rect2667"
       style="fill:#d4aa00;stroke:#000000;stroke-width:0.999213"
       transform="rotate(-90)"
       d="m -439.37012,340.15747 h 21.25985 v 17.71654 h -21.25985 z" />
    <path
       id="rect2669"
       style="fill:#d4aa00;stroke:#000000;stroke-width:0.999213"
       transform="rotate(-90)"
       d="m -411.02365,340.15747 h 21.25984 v 17.71654 h -21.25984 z" />
    <path
       id="rect2671"
       style="fill:#d4aa00;stroke:#000000;stroke-width:0.999213"
       transform="rotate(-90)"
       d="m -439.37012,340.15747 h 21.25985 v 17.71654 h -21.25985 z" />
    <path
       id="rect2673"
       style="fill:#d4aa00;stroke:#000000;stroke-width:0.999213"
       d="M 53.149605,450.00006 H 74.409449 V 467.7166 H 53.149605 Z" />
    <path
       id="rect2675"
       style="fill:#d4aa00;stroke:#000000;stroke-width:0.999213"
       d="M 81.496063,450.00006 H 102.75591 V 467.7166 H 81.496063 Z" />
    <path
       id="rect2677"
       style="fill:#d4aa00;stroke:#000000;stroke-width:0.999213"
       d="m 109.84251,450.00006 h 21.25984 v 17.71654 h -21.25984 z" />
    <path
       id="rect2679"
       style="fill:#d4aa00;stroke:#000000;stroke-width:0.999213"
       d="m 138.18896,450.00006 h 21.25985 v 17.71654 h -21.25985 z" />
    <path
       id="rect2681"
       style="fill:#d4aa00;stroke:#000000;stroke-width:0.999213"
       d="m 166.53542,450.00006 h 21.25984 v 17.71654 h -21.25984 z" />
    <path
       id="rect2683"
       style="fill:#d4aa00;stroke:#000000;stroke-width:0.999213"
       d="m 194.88187,450.00006 h 21.25984 v 17.71654 h -21.25984 z" />
    <path
       id="rect2685"
       style="fill:#d4aa00;stroke:#000000;stroke-width:0.999213"
       d="m 223.22832,450.00006 h 21.25984 v 17.71654 h -21.25984 z" />
    <path
       id="rect2687"
       style="fill:#d4aa00;stroke:#000000;stroke-width:0.999213"
       d="m 251.57478,450.00006 h 21.25985 v 17.71654 h -21.25985 z" />
    <path
       id="rect2689"
       style="fill:#d4aa00;stroke:#000000;stroke-width:0.999213"
       d="m 279.92126,450.00006 h 21.25985 v 17.71654 h -21.25985 z" />
    <path
       id="rect2691"
       style="fill:#d4aa00;stroke:#000000;stroke-width:0.999213"
       d="m 308.2677,450.00006 h 21.25984 V 467.7166 H 308.2677 Z" />
    <path
       id="path2715-3"
       d="M 283.46457,223.2284 407.48031,184.25202"
       style="fill:none;stroke:#000000;stroke-width:0.999213;stroke-linecap:butt;stroke-linejoin:miter;stroke-miterlimit:4;stroke-dasharray:0.999213, 0.999213;stroke-dashoffset:0;stroke-opacity:1" />
    <path
       style="fill:none;stroke:#000000;stroke-width:0.999213;stroke-linecap:butt;stroke-linejoin:miter;stroke-miterlimit:4;stroke-dasharray:0.999213, 0.999213;stroke-dashoffset:0;stroke-opacity:1"
       d="m 283.46457,265.74808 124.01574,24.80315"
       id="path5307" />
    <path
       id="rect5309"
       style="fill:#d4aa00;stroke:#000000;stroke-width:0.999213"
       d="M 407.48032,184.25201 H 513.77953 V 290.55122 H 407.48032 Z" />
    <g
       aria-label="CLB
(Configurable Logic Block)"
       id="text5311"
       style="line-height:0%;font-family:Iwona;-inkscape-font-specification:Iwona;text-align:center;text-anchor:middle">
      <path
         d="m 456.64846,148.48017 v -0.864 c -0.864,-1.248 -2.288,-1.984 -3.792,-1.984 -3.248,0 -5.008,2.368 -5.008,5.76 0,3.392 1.76,5.76 5.008,5.76 1.248,0 2.48,-0.368 3.536,-1.056 v -0.736 c -1.056,0.688 -2.288,1.056 -3.536,1.056 -2.512,0 -3.44,-2.224 -3.44,-5.024 0,-2.8 0.928,-5.024 3.44,-5.024 1.536,0 2.976,0.8 3.792,2.112 z"
         style="font-size:16px;line-height:1.25"
         id="path557" />
      <path
         d="m 465.12845,156.99217 v -0.736 h -5.088 v -10.464 h -1.312 v 11.2 z"
         style="font-size:16px;line-height:1.25"
         id="path559" />
      <path
         d="m 475.44843,153.95217 c 0,-1.76 -1.152,-2.688 -2.832,-3.04 1.232,-0.368 2.048,-1.168 2.048,-2.528 0,-1.952 -1.68,-2.752 -3.84,-2.752 -0.832,0 -1.664,0.048 -2.496,0.16 h -1.28 v 11.2 h 1.28 l 2.496,0.16 c 2.592,0 4.624,-0.88 4.624,-3.2 z m -2.096,-5.568 c 0,1.616 -1.808,2.448 -3.616,2.448 h -1.376 v -4.304 c 0.816,-0.112 1.648,-0.16 2.464,-0.16 1.312,0 2.528,0.8 2.528,2.016 z m 0.528,5.568 c 0,1.472 -1.456,2.464 -3.056,2.464 -0.816,0 -1.648,-0.048 -2.464,-0.16 v -4.864 h 2.064 c 1.76,0 3.456,0.944 3.456,2.56 z"
         style="font-size:16px;line-height:1.25"
         id="path561" />
      <path
         d="m 375.73667,180.67217 c -1.168,-2.592 -1.6,-4.592 -1.6,-7.44 0,-2.848 0.432,-4.848 1.6,-7.44 h -0.672 c -1.584,2.464 -2.176,4.512 -2.176,7.44 0,2.928 0.592,4.976 2.176,7.44 z"
         style="font-size:16px;line-height:1.25"
         id="path563" />
      <path
         d="m 386.29665,168.48017 v -0.864 c -0.864,-1.248 -2.288,-1.984 -3.792,-1.984 -3.248,0 -5.008,2.368 -5.008,5.76 0,3.392 1.76,5.76 5.008,5.76 1.248,0 2.48,-0.368 3.536,-1.056 v -0.736 c -1.056,0.688 -2.288,1.056 -3.536,1.056 -2.512,0 -3.44,-2.224 -3.44,-5.024 0,-2.8 0.928,-5.024 3.44,-5.024 1.536,0 2.976,0.8 3.792,2.112 z"
         style="font-size:16px;line-height:1.25"
         id="path565" />
      <path
         d="m 393.65663,173.39217 c 0,-2.448 -1.088,-3.76 -3.088,-3.76 -2.016,0 -3.104,1.312 -3.104,3.76 0,2.448 1.088,3.76 3.104,3.76 2,0 3.088,-1.312 3.088,-3.76 z m -1.408,0 c 0,2 -0.592,3.088 -1.68,3.088 -1.104,0 -1.696,-1.088 -1.696,-3.088 0,-2 0.592,-3.088 1.696,-3.088 1.088,0 1.68,1.088 1.68,3.088 z"
         style="font-size:16px;line-height:1.25"
         id="path567" />
      <path
         d="m 401.60862,176.99217 v -5.2 c 0,-1.168 -0.896,-2.16 -2.048,-2.16 -0.96,0 -1.808,0.544 -2.496,1.216 v -1.056 h -1.248 v 7.2 h 1.248 v -5.648 c 0.544,-0.544 1.216,-0.976 1.968,-0.976 0.752,0 1.328,0.656 1.328,1.424 v 5.2 z"
         style="font-size:16px;line-height:1.25"
         id="path569" />
      <path
         d="m 411.00059,176.43217 v -0.48 c -0.304,0.256 -0.656,0.464 -1.056,0.464 -0.592,0 -0.704,-0.736 -0.704,-1.424 v -5.2 h -3.904 v -2 c 0,-0.688 0.128,-1.424 0.72,-1.424 0.4,0 0.768,0.192 1.072,0.464 v -0.496 c -0.48,-0.4 -1.056,-0.704 -1.68,-0.704 -0.928,0 -1.36,1.088 -1.36,2.16 v 2 h -1.12 v 0.672 h 1.12 v 6.528 h 1.248 v -6.528 h 2.656 v 4.528 c 0,1.072 0.416,2.16 1.36,2.16 0.608,0 1.184,-0.304 1.648,-0.72 z m -1.6,-9.136 c 0,-0.432 -0.352,-0.784 -0.784,-0.784 -0.432,0 -0.784,0.352 -0.784,0.784 0,0.432 0.352,0.784 0.784,0.784 0.432,0 0.784,-0.352 0.784,-0.784 z"
         style="font-size:16px;line-height:1.25"
         id="path571" />
      <path
         d="m 418.39259,177.95217 v -8.16 h -1.248 v 0.272 c -0.624,-0.272 -1.296,-0.432 -1.968,-0.432 -2,0 -2.976,1.6 -2.976,3.76 0,2.128 0.8,3.76 2.736,3.76 0.816,0 1.568,-0.368 2.208,-0.88 v 1.68 c 0,1.104 -0.608,2.144 -1.6,2.144 -0.816,0 -1.632,-0.16 -2.4,-0.432 v 0.496 c 0.896,0.416 1.888,0.672 2.88,0.672 1.408,0 2.368,-1.376 2.368,-2.88 z m -1.248,-2.352 c -0.48,0.48 -1.072,0.88 -1.76,0.88 -1.456,0 -1.776,-1.408 -1.776,-3.088 0,-1.504 0.464,-3.088 1.776,-3.088 0.608,0 1.216,0.16 1.76,0.432 z"
         style="font-size:16px;line-height:1.25"
         id="path573" />
      <path
         d="m 426.66458,176.99217 v -7.2 h -1.248 v 5.648 c -0.544,0.544 -1.216,0.976 -1.968,0.976 -0.752,0 -1.328,-0.656 -1.328,-1.424 v -5.2 h -1.248 v 5.2 c 0,1.168 0.896,2.16 2.048,2.16 0.96,0 1.808,-0.544 2.496,-1.216 v 1.056 z"
         style="font-size:16px;line-height:1.25"
         id="path575" />
      <path
         d="m 433.20855,170.78417 v -0.992 c -0.176,-0.064 -0.368,-0.112 -0.544,-0.112 -0.896,0 -1.616,0.624 -2.192,1.312 v -1.2 h -1.248 v 7.2 h 1.248 v -5.328 c 0.48,-0.56 1.088,-1.04 1.824,-1.04 0.304,0 0.624,0.064 0.912,0.16 z"
         style="font-size:16px;line-height:1.25"
         id="path577" />
      <path
         d="m 440.24852,176.99217 v -4.48 c 0,-1.504 -0.928,-2.88 -2.32,-2.88 -1.024,0 -1.984,0.352 -2.848,0.896 v 0.496 c 0.72,-0.4 1.52,-0.656 2.352,-0.656 0.992,0 1.568,1.056 1.568,2.144 v 0.288 c -0.624,-0.272 -1.296,-0.432 -1.968,-0.432 -1.712,0 -2.976,0.784 -2.976,2.4 0,1.536 1.12,2.384 2.736,2.384 0.816,0 1.568,-0.368 2.208,-0.88 v 0.72 z m -1.248,-1.392 c -0.48,0.48 -1.072,0.88 -1.76,0.88 -1.072,0 -1.776,-0.656 -1.776,-1.712 0,-0.976 0.8,-1.728 1.776,-1.728 0.608,0 1.216,0.16 1.76,0.432 z"
         style="font-size:16px;line-height:1.25"
         id="path579" />
      <path
         d="m 449.0005,173.39217 c 0,-2.128 -0.8,-3.76 -2.736,-3.76 -0.816,0 -1.568,0.368 -2.208,0.88 v -4.72 h -1.248 v 11.2 h 1.248 v -0.368 c 0.608,0.32 1.28,0.528 1.968,0.528 2,0 2.976,-1.6 2.976,-3.76 z m -1.408,0 c 0,1.504 -0.464,3.088 -1.776,3.088 -0.624,0 -1.232,-0.208 -1.76,-0.528 v -4.768 c 0.48,-0.48 1.072,-0.88 1.76,-0.88 1.456,0 1.776,1.408 1.776,3.088 z"
         style="font-size:16px;line-height:1.25"
         id="path581" />
      <path
         d="m 454.16849,176.43217 v -0.48 c -0.304,0.256 -0.656,0.464 -1.056,0.464 -0.592,0 -0.704,-0.736 -0.704,-1.424 v -9.2 h -1.248 v 9.2 c 0,1.072 0.416,2.16 1.36,2.16 0.608,0 1.184,-0.304 1.648,-0.72 z"
         style="font-size:16px;line-height:1.25"
         id="path583" />
      <path
         d="m 461.56046,173.55217 v -0.16 c 0,-2.256 -1.232,-3.76 -3.088,-3.76 -1.872,0 -3.104,1.504 -3.104,3.76 0,2.256 1.232,3.76 3.104,3.76 0.8,0 1.584,-0.256 2.24,-0.72 v -0.672 c -0.752,0.48 -1.36,0.656 -2.24,0.656 -1.36,0 -1.696,-1.296 -1.696,-2.864 z m -1.408,-0.672 h -3.376 c 0,-1.28 0.544,-2.576 1.696,-2.576 1.136,0 1.68,1.296 1.68,2.576 z"
         style="font-size:16px;line-height:1.25"
         id="path585" />
      <path
         d="m 475.68842,176.99217 v -0.736 h -5.088 v -10.464 h -1.312 v 11.2 z"
         style="font-size:16px;line-height:1.25"
         id="path587" />
      <path
         d="m 482.79237,173.39217 c 0,-2.448 -1.088,-3.76 -3.088,-3.76 -2.016,0 -3.104,1.312 -3.104,3.76 0,2.448 1.088,3.76 3.104,3.76 2,0 3.088,-1.312 3.088,-3.76 z m -1.408,0 c 0,2 -0.592,3.088 -1.68,3.088 -1.104,0 -1.696,-1.088 -1.696,-3.088 0,-2 0.592,-3.088 1.696,-3.088 1.088,0 1.68,1.088 1.68,3.088 z"
         style="font-size:16px;line-height:1.25"
         id="path589" />
      <path
         d="m 490.74436,177.95217 v -8.16 h -1.248 v 0.272 c -0.624,-0.272 -1.296,-0.432 -1.968,-0.432 -2,0 -2.976,1.6 -2.976,3.76 0,2.128 0.8,3.76 2.736,3.76 0.816,0 1.568,-0.368 2.208,-0.88 v 1.68 c 0,1.104 -0.608,2.144 -1.6,2.144 -0.816,0 -1.632,-0.16 -2.4,-0.432 v 0.496 c 0.896,0.416 1.888,0.672 2.88,0.672 1.408,0 2.368,-1.376 2.368,-2.88 z m -1.248,-2.352 c -0.48,0.48 -1.072,0.88 -1.76,0.88 -1.456,0 -1.776,-1.408 -1.776,-3.088 0,-1.504 0.464,-3.088 1.776,-3.088 0.608,0 1.216,0.16 1.76,0.432 z"
         style="font-size:16px;line-height:1.25"
         id="path591" />
      <path
         d="m 496.23235,176.43217 v -0.48 c -0.304,0.256 -0.656,0.464 -1.056,0.464 -0.592,0 -0.704,-0.736 -0.704,-1.424 v -5.2 h -1.248 v 5.2 c 0,1.072 0.416,2.16 1.36,2.16 0.608,0 1.184,-0.304 1.648,-0.72 z m -1.6,-9.136 c 0,-0.432 -0.352,-0.784 -0.784,-0.784 -0.432,0 -0.784,0.352 -0.784,0.784 0,0.432 0.352,0.784 0.784,0.784 0.432,0 0.784,-0.352 0.784,-0.784 z"
         style="font-size:16px;line-height:1.25"
         id="path593" />
      <path
         d="m 503.01634,171.45617 v -0.672 c -0.512,-0.72 -1.344,-1.152 -2.24,-1.152 -2,0 -3.344,1.504 -3.344,3.76 0,2.256 1.344,3.76 3.344,3.76 0.832,0 1.616,-0.416 2.08,-1.104 v -0.672 c -0.544,0.816 -1.104,1.104 -2.08,1.104 -1.152,0 -1.936,-1.232 -1.936,-3.088 0,-1.856 0.784,-3.088 1.936,-3.088 0.992,0 1.664,0.352 2.24,1.152 z"
         style="font-size:16px;line-height:1.25"
         id="path595" />
      <path
         d="m 518.74429,173.95217 c 0,-1.76 -1.152,-2.688 -2.832,-3.04 1.232,-0.368 2.048,-1.168 2.048,-2.528 0,-1.952 -1.68,-2.752 -3.84,-2.752 -0.832,0 -1.664,0.048 -2.496,0.16 h -1.28 v 11.2 h 1.28 l 2.496,0.16 c 2.592,0 4.624,-0.88 4.624,-3.2 z m -2.096,-5.568 c 0,1.616 -1.808,2.448 -3.616,2.448 h -1.376 v -4.304 c 0.816,-0.112 1.648,-0.16 2.464,-0.16 1.312,0 2.528,0.8 2.528,2.016 z m 0.528,5.568 c 0,1.472 -1.456,2.464 -3.056,2.464 -0.816,0 -1.648,-0.048 -2.464,-0.16 v -4.864 h 2.064 c 1.76,0 3.456,0.944 3.456,2.56 z"
         style="font-size:16px;line-height:1.25"
         id="path597" />
      <path
         d="m 523.99228,176.43217 v -0.48 c -0.304,0.256 -0.656,0.464 -1.056,0.464 -0.592,0 -0.704,-0.736 -0.704,-1.424 v -9.2 h -1.248 v 9.2 c 0,1.072 0.416,2.16 1.36,2.16 0.608,0 1.184,-0.304 1.648,-0.72 z"
         style="font-size:16px;line-height:1.25"
         id="path599" />
      <path
         d="m 531.38426,173.39217 c 0,-2.448 -1.088,-3.76 -3.088,-3.76 -2.016,0 -3.104,1.312 -3.104,3.76 0,2.448 1.088,3.76 3.104,3.76 2,0 3.088,-1.312 3.088,-3.76 z m -1.408,0 c 0,2 -0.592,3.088 -1.68,3.088 -1.104,0 -1.696,-1.088 -1.696,-3.088 0,-2 0.592,-3.088 1.696,-3.088 1.088,0 1.68,1.088 1.68,3.088 z"
         style="font-size:16px;line-height:1.25"
         id="path601" />
      <path
         d="m 538.72825,171.45617 v -0.672 c -0.512,-0.72 -1.344,-1.152 -2.24,-1.152 -2,0 -3.344,1.504 -3.344,3.76 0,2.256 1.344,3.76 3.344,3.76 0.832,0 1.616,-0.416 2.08,-1.104 v -0.672 c -0.544,0.816 -1.104,1.104 -2.08,1.104 -1.152,0 -1.936,-1.232 -1.936,-3.088 0,-1.856 0.784,-3.088 1.936,-3.088 0.992,0 1.664,0.352 2.24,1.152 z"
         style="font-size:16px;line-height:1.25"
         id="path603" />
      <path
         d="m 546.60023,176.99217 -3.712,-4.272 3.584,-2.928 h -0.992 l -3.824,3.136 v -7.136 h -1.248 v 11.2 h 1.248 v -3.984 l 3.456,3.984 z"
         style="font-size:16px;line-height:1.25"
         id="path605" />
      <path
         d="m 550.40822,173.23217 c 0,-2.928 -0.592,-4.976 -2.176,-7.44 h -0.672 c 1.168,2.592 1.6,4.592 1.6,7.44 0,2.848 -0.432,4.848 -1.6,7.44 h 0.672 c 1.584,-2.464 2.176,-4.512 2.176,-7.44 z"
         style="font-size:16px;line-height:1.25"
         id="path607" />
    </g>
    <path
       id="rect5317"
       style="fill:#ffcc00;stroke:#000000;stroke-width:0.999213"
       d="m 411.02362,240.94495 h 46.06299 v 46.06298 h -46.06299 z" />
    <path
       id="rect5319"
       style="fill:#ffcc00;stroke:#000000;stroke-width:0.999213"
       d="m 464.17322,187.79532 h 46.06292 v 46.06299 h -46.06292 z" />
    <path
       style="fill:none;stroke:#000000;stroke-width:0.999213;stroke-linecap:butt;stroke-linejoin:miter;stroke-miterlimit:4;stroke-dasharray:0.999213, 0.999213;stroke-dashoffset:0;stroke-opacity:1"
       d="m 510.23622,187.79532 135.6053,51.11959"
       id="path5321" />
    <path
       id="path5323"
       d="m 464.17323,233.85832 69.16829,108.18159"
       style="fill:none;stroke:#000000;stroke-width:0.999213;stroke-linecap:butt;stroke-linejoin:miter;stroke-miterlimit:4;stroke-dasharray:0.999213, 0.999213;stroke-dashoffset:0;stroke-opacity:1" />
    <path
       id="rect5325"
       style="fill:#ffcc00;stroke:#000000;stroke-width:0.999213"
       d="M 533.34155,238.9149 H 645.84153 V 342.03989 H 533.34155 Z" />
    <g
       aria-label="Slice"
       id="text5327"
       style="line-height:0%;font-family:Iwona;-inkscape-font-specification:Iwona;text-align:center;text-anchor:middle">
      <path
         d="m 583.97194,228.61032 c 0,-1.968 -2,-3.136 -4.064,-3.568 -1.376,-0.288 -2.928,-0.64 -2.928,-1.92 0,-1.264 1.36,-1.984 2.768,-1.984 1.296,0 2.56,0.384 3.584,1.184 v -0.64 c -1.024,-0.8 -2.288,-1.28 -3.584,-1.28 -2.08,0 -4.032,1.168 -4.032,3.056 0,1.808 1.952,2.72 3.856,3.12 1.52,0.32 3.136,0.944 3.136,2.368 0,1.456 -1.424,2.432 -2.96,2.432 -1.488,0 -2.96,-0.384 -4.208,-1.184 v 0.64 c 1.264,0.8 2.704,1.28 4.208,1.28 2.208,0 4.224,-1.424 4.224,-3.504 z"
         style="font-size:16px;line-height:1.25"
         id="path613" />
      <path
         d="m 589.21993,231.29832 v -0.48 c -0.304,0.256 -0.656,0.464 -1.056,0.464 -0.592,0 -0.704,-0.736 -0.704,-1.424 v -9.2 h -1.248 v 9.2 c 0,1.072 0.416,2.16 1.36,2.16 0.608,0 1.184,-0.304 1.648,-0.72 z"
         style="font-size:16px;line-height:1.25"
         id="path615" />
      <path
         d="m 593.7479,231.29832 v -0.48 c -0.304,0.256 -0.656,0.464 -1.056,0.464 -0.592,0 -0.704,-0.736 -0.704,-1.424 v -5.2 h -1.248 v 5.2 c 0,1.072 0.416,2.16 1.36,2.16 0.608,0 1.184,-0.304 1.648,-0.72 z m -1.6,-9.136 c 0,-0.432 -0.352,-0.784 -0.784,-0.784 -0.432,0 -0.784,0.352 -0.784,0.784 0,0.432 0.352,0.784 0.784,0.784 0.432,0 0.784,-0.352 0.784,-0.784 z"
         style="font-size:16px;line-height:1.25"
         id="path617" />
      <path
         d="m 600.53189,226.32232 v -0.672 c -0.512,-0.72 -1.344,-1.152 -2.24,-1.152 -2,0 -3.344,1.504 -3.344,3.76 0,2.256 1.344,3.76 3.344,3.76 0.832,0 1.616,-0.416 2.08,-1.104 v -0.672 c -0.544,0.816 -1.104,1.104 -2.08,1.104 -1.152,0 -1.936,-1.232 -1.936,-3.088 0,-1.856 0.784,-3.088 1.936,-3.088 0.992,0 1.664,0.352 2.24,1.152 z"
         style="font-size:16px;line-height:1.25"
         id="path619" />
      <path
         d="m 608.00387,228.41832 v -0.16 c 0,-2.256 -1.232,-3.76 -3.088,-3.76 -1.872,0 -3.104,1.504 -3.104,3.76 0,2.256 1.232,3.76 3.104,3.76 0.8,0 1.584,-0.256 2.24,-0.72 v -0.672 c -0.752,0.48 -1.36,0.656 -2.24,0.656 -1.36,0 -1.696,-1.296 -1.696,-2.864 z m -1.408,-0.672 h -3.376 c 0,-1.28 0.544,-2.576 1.696,-2.576 1.136,0 1.68,1.296 1.68,2.576 z"
         style="font-size:16px;line-height:1.25"
         id="path621" />
    </g>
    <path
       id="rect5335"
       style="fill:#ffdd55;stroke:#000000;stroke-width:0.999213"
       d="m 535.21655,240.7899 h 108.75003 v 23.43749 H 535.21655 Z" />
    <path
       style="fill:none;stroke:#000000;stroke-width:0.999213;stroke-linecap:butt;stroke-linejoin:miter;stroke-miterlimit:4;stroke-dasharray:0.999213, 0.999213;stroke-dashoffset:0;stroke-opacity:1"
       d="M 535.21652,340.16491 549.2126,457.08666"
       id="path5339" />
    <path
       id="path5341"
       d="m 643.96652,316.72741 46.97836,73.03642"
       style="fill:none;stroke:#000000;stroke-width:0.999213;stroke-linecap:butt;stroke-linejoin:miter;stroke-miterlimit:4;stroke-dasharray:0.999213, 0.999213;stroke-dashoffset:0;stroke-opacity:1" />
    <path
       id="rect5343"
       style="fill:#ffdd55;stroke:#000000;stroke-width:0.999213"
       d="m 549.21259,389.76385 h 141.73196 v 67.32306 H 549.21259 Z" />
    <g
       aria-label="Cellule logique"
       id="text5347"
       style="line-height:0%;font-family:Iwona;-inkscape-font-specification:Iwona;text-align:center;text-anchor:middle">
      <path
         d="m 447.12014,416.68493 v -0.864 c -0.864,-1.248 -2.288,-1.984 -3.792,-1.984 -3.248,0 -5.008,2.368 -5.008,5.76 0,3.392 1.76,5.76 5.008,5.76 1.248,0 2.48,-0.368 3.536,-1.056 v -0.736 c -1.056,0.688 -2.288,1.056 -3.536,1.056 -2.512,0 -3.44,-2.224 -3.44,-5.024 0,-2.8 0.928,-5.024 3.44,-5.024 1.536,0 2.976,0.8 3.792,2.112 z"
         style="font-size:16px;line-height:1.25"
         id="path626" />
      <path
         d="m 454.48011,421.75693 v -0.16 c 0,-2.256 -1.232,-3.76 -3.088,-3.76 -1.872,0 -3.104,1.504 -3.104,3.76 0,2.256 1.232,3.76 3.104,3.76 0.8,0 1.584,-0.256 2.24,-0.72 v -0.672 c -0.752,0.48 -1.36,0.656 -2.24,0.656 -1.36,0 -1.696,-1.296 -1.696,-2.864 z m -1.408,-0.672 h -3.376 c 0,-1.28 0.544,-2.576 1.696,-2.576 1.136,0 1.68,1.296 1.68,2.576 z"
         style="font-size:16px;line-height:1.25"
         id="path628" />
      <path
         d="m 459.56809,424.63693 v -0.48 c -0.304,0.256 -0.656,0.464 -1.056,0.464 -0.592,0 -0.704,-0.736 -0.704,-1.424 v -9.2 h -1.248 v 9.2 c 0,1.072 0.416,2.16 1.36,2.16 0.608,0 1.184,-0.304 1.648,-0.72 z"
         style="font-size:16px;line-height:1.25"
         id="path630" />
      <path
         d="m 464.17606,424.63693 v -0.48 c -0.304,0.256 -0.656,0.464 -1.056,0.464 -0.592,0 -0.704,-0.736 -0.704,-1.424 v -9.2 h -1.248 v 9.2 c 0,1.072 0.416,2.16 1.36,2.16 0.608,0 1.184,-0.304 1.648,-0.72 z"
         style="font-size:16px;line-height:1.25"
         id="path632" />
      <path
         d="m 471.48803,425.19693 v -7.2 h -1.248 v 5.648 c -0.544,0.544 -1.216,0.976 -1.968,0.976 -0.752,0 -1.328,-0.656 -1.328,-1.424 v -5.2 h -1.248 v 5.2 c 0,1.168 0.896,2.16 2.048,2.16 0.96,0 1.808,-0.544 2.496,-1.216 v 1.056 z"
         style="font-size:16px;line-height:1.25"
         id="path634" />
      <path
         d="m 477.05601,424.63693 v -0.48 c -0.304,0.256 -0.656,0.464 -1.056,0.464 -0.592,0 -0.704,-0.736 -0.704,-1.424 v -9.2 h -1.248 v 9.2 c 0,1.072 0.416,2.16 1.36,2.16 0.608,0 1.184,-0.304 1.648,-0.72 z"
         style="font-size:16px;line-height:1.25"
         id="path636" />
      <path
         d="m 484.44798,421.75693 v -0.16 c 0,-2.256 -1.232,-3.76 -3.088,-3.76 -1.872,0 -3.104,1.504 -3.104,3.76 0,2.256 1.232,3.76 3.104,3.76 0.8,0 1.584,-0.256 2.24,-0.72 v -0.672 c -0.752,0.48 -1.36,0.656 -2.24,0.656 -1.36,0 -1.696,-1.296 -1.696,-2.864 z m -1.408,-0.672 h -3.376 c 0,-1.28 0.544,-2.576 1.696,-2.576 1.136,0 1.68,1.296 1.68,2.576 z"
         style="font-size:16px;line-height:1.25"
         id="path638" />
      <path
         d="m 494.86393,424.63693 v -0.48 c -0.304,0.256 -0.656,0.464 -1.056,0.464 -0.592,0 -0.704,-0.736 -0.704,-1.424 v -9.2 h -1.248 v 9.2 c 0,1.072 0.416,2.16 1.36,2.16 0.608,0 1.184,-0.304 1.648,-0.72 z"
         style="font-size:16px;line-height:1.25"
         id="path640" />
      <path
         d="m 502.2559,421.59693 c 0,-2.448 -1.088,-3.76 -3.088,-3.76 -2.016,0 -3.104,1.312 -3.104,3.76 0,2.448 1.088,3.76 3.104,3.76 2,0 3.088,-1.312 3.088,-3.76 z m -1.408,0 c 0,2 -0.592,3.088 -1.68,3.088 -1.104,0 -1.696,-1.088 -1.696,-3.088 0,-2 0.592,-3.088 1.696,-3.088 1.088,0 1.68,1.088 1.68,3.088 z"
         style="font-size:16px;line-height:1.25"
         id="path642" />
      <path
         d="m 510.20789,426.15693 v -8.16 h -1.248 v 0.272 c -0.624,-0.272 -1.296,-0.432 -1.968,-0.432 -2,0 -2.976,1.6 -2.976,3.76 0,2.128 0.8,3.76 2.736,3.76 0.816,0 1.568,-0.368 2.208,-0.88 v 1.68 c 0,1.104 -0.608,2.144 -1.6,2.144 -0.816,0 -1.632,-0.16 -2.4,-0.432 v 0.496 c 0.896,0.416 1.888,0.672 2.88,0.672 1.408,0 2.368,-1.376 2.368,-2.88 z m -1.248,-2.352 c -0.48,0.48 -1.072,0.88 -1.76,0.88 -1.456,0 -1.776,-1.408 -1.776,-3.088 0,-1.504 0.464,-3.088 1.776,-3.088 0.608,0 1.216,0.16 1.76,0.432 z"
         style="font-size:16px;line-height:1.25"
         id="path644" />
      <path
         d="m 515.69588,424.63693 v -0.48 c -0.304,0.256 -0.656,0.464 -1.056,0.464 -0.592,0 -0.704,-0.736 -0.704,-1.424 v -5.2 h -1.248 v 5.2 c 0,1.072 0.416,2.16 1.36,2.16 0.608,0 1.184,-0.304 1.648,-0.72 z m -1.6,-9.136 c 0,-0.432 -0.352,-0.784 -0.784,-0.784 -0.432,0 -0.784,0.352 -0.784,0.784 0,0.432 0.352,0.784 0.784,0.784 0.432,0 0.784,-0.352 0.784,-0.784 z"
         style="font-size:16px;line-height:1.25"
         id="path646" />
      <path
         d="m 523.08787,428.87693 v -10.88 h -1.248 v 0.272 c -0.624,-0.272 -1.296,-0.432 -1.968,-0.432 -2,0 -2.976,1.6 -2.976,3.76 0,2.128 0.8,3.76 2.736,3.76 0.816,0 1.568,-0.368 2.208,-0.88 v 4.4 z m -1.248,-5.072 c -0.48,0.48 -1.072,0.88 -1.76,0.88 -1.456,0 -1.776,-1.408 -1.776,-3.088 0,-1.504 0.464,-3.088 1.776,-3.088 0.608,0 1.216,0.16 1.76,0.432 z"
         style="font-size:16px;line-height:1.25"
         id="path648" />
      <path
         d="m 531.35986,425.19693 v -7.2 h -1.248 v 5.648 c -0.544,0.544 -1.216,0.976 -1.968,0.976 -0.752,0 -1.328,-0.656 -1.328,-1.424 v -5.2 h -1.248 v 5.2 c 0,1.168 0.896,2.16 2.048,2.16 0.96,0 1.808,-0.544 2.496,-1.216 v 1.056 z"
         style="font-size:16px;line-height:1.25"
         id="path650" />
      <path
         d="m 539.71183,421.75693 v -0.16 c 0,-2.256 -1.232,-3.76 -3.088,-3.76 -1.872,0 -3.104,1.504 -3.104,3.76 0,2.256 1.232,3.76 3.104,3.76 0.8,0 1.584,-0.256 2.24,-0.72 v -0.672 c -0.752,0.48 -1.36,0.656 -2.24,0.656 -1.36,0 -1.696,-1.296 -1.696,-2.864 z m -1.408,-0.672 h -3.376 c 0,-1.28 0.544,-2.576 1.696,-2.576 1.136,0 1.68,1.296 1.68,2.576 z"
         style="font-size:16px;line-height:1.25"
         id="path652" />
    </g>
    <path
       id="rect5351"
       style="fill:#fff6d5;stroke:#000000;stroke-width:0.999213"
       d="m 556.29919,396.85046 h 53.14961 v 53.14961 h -53.14961 z" />
    <g
       aria-label="LUT"
       id="text5353"
       style="line-height:0%;font-family:Iwona;-inkscape-font-specification:Iwona;text-align:center;text-anchor:middle">
      <path
         d="m 575.90221,427.71432 v -0.736 h -5.088 v -10.464 h -1.312 v 11.2 z"
         style="font-size:16px;line-height:1.25"
         id="path656" />
      <path
         d="m 585.87017,424.57832 v -8.064 h -0.736 v 7.808 c 0,1.664 -1.472,2.912 -3.168,2.912 -1.712,0 -3.184,-1.248 -3.184,-2.912 v -7.808 h -1.312 v 8.064 c 0,2.032 2.016,3.392 4.208,3.392 2.176,0 4.192,-1.36 4.192,-3.392 z"
         style="font-size:16px;line-height:1.25"
         id="path658" />
      <path
         d="m 596.43017,417.25032 v -0.736 h -8.8 v 0.736 h 3.744 v 10.464 h 1.312 v -10.464 z"
         style="font-size:16px;line-height:1.25"
         id="path660" />
    </g>
    <path
       id="path5357"
       d="m 623.62205,403.93706 17.71653,10.62992 v 17.71653 l -17.71653,10.62993 z"
       style="fill:#fff6d5;fill-rule:evenodd;stroke:#000000;stroke-width:1px;stroke-linecap:butt;stroke-linejoin:miter;stroke-opacity:1" />
    <path
       id="rect5359"
       style="fill:#fff6d5;stroke:#000000;stroke-width:0.999213"
       d="m 655.51178,400.39377 h 28.34647 v 46.06299 h -28.34647 z" />
    <path
       id="path5361"
       d="m 655.51181,432.28352 7.08661,3.5433 -7.08661,3.54331"
       style="fill:none;stroke:#000000;stroke-width:1px;stroke-linecap:butt;stroke-linejoin:miter;stroke-opacity:1" />
    <g
       aria-label="D"
       id="text5363"
       style="line-height:0%;font-family:Iwona;-inkscape-font-specification:Iwona;text-align:center;text-anchor:middle">
      <path
         d="m 666.9106,412.51029 c 0,-3.424 -1.872,-5.76 -5.168,-5.76 -0.992,0 -1.984,0.048 -2.96,0.16 h -1.28 v 11.2 h 1.28 c 0.976,0.112 1.968,0.16 2.96,0.16 3.296,0 5.168,-2.336 5.168,-5.76 z m -1.568,0 c 0,2.544 -1.296,5.024 -3.6,5.024 -0.976,0 -1.952,-0.048 -2.928,-0.16 v -9.728 c 0.976,-0.112 1.952,-0.16 2.928,-0.16 2.304,0 3.6,2.48 3.6,5.024 z"
         style="font-size:16px;line-height:1.25"
         id="path664" />
    </g>
    <g
       aria-label="Q"
       id="text5367"
       style="line-height:0%;font-family:Iwona;-inkscape-font-specification:Iwona;text-align:center;text-anchor:middle">
      <path
         d="m 682.84553,412.51029 c 0,-3.392 -1.76,-5.76 -4.992,-5.76 -3.248,0 -5.008,2.368 -5.008,5.76 0,3.392 1.76,5.76 5.008,5.76 0.112,1.296 1.184,2.288 2.496,2.288 0.816,0 1.04,-0.048 1.792,-0.384 v -0.48 c -0.368,0.208 -0.768,0.32 -1.2,0.32 -1.456,0 -2.032,-0.512 -2.048,-1.84 2.56,-0.448 3.952,-2.656 3.952,-5.664 z m -1.568,0 c 0,2.8 -0.928,5.024 -3.424,5.024 -2.512,0 -3.44,-2.224 -3.44,-5.024 0,-2.8 0.928,-5.024 3.44,-5.024 2.496,0 3.424,2.224 3.424,5.024 z"
         style="font-size:16px;line-height:1.25"
         id="path667" />
    </g>
    <g
       aria-label="IOB (Input/Output Block)"
       id="text5371"
       style="line-height:0%;font-family:Iwona;-inkscape-font-specification:Iwona;text-align:center;text-anchor:middle">
      <path
         d="m 26.437078,497.43539 v -11.2 h -1.312 v 11.2 z"
         style="font-size:16px;line-height:1.25"
         id="path670" />
      <path
         d="m 38.997071,491.83539 c 0,-3.392 -1.76,-5.76 -4.992,-5.76 -3.248,0 -5.008,2.368 -5.008,5.76 0,3.392 1.76,5.76 5.008,5.76 3.232,0 4.992,-2.368 4.992,-5.76 z m -1.568,0 c 0,2.8 -0.928,5.024 -3.424,5.024 -2.512,0 -3.44,-2.224 -3.44,-5.024 0,-2.8 0.928,-5.024 3.44,-5.024 2.496,0 3.424,2.224 3.424,5.024 z"
         style="font-size:16px;line-height:1.25"
         id="path672" />
      <path
         d="m 49.957054,494.39539 c 0,-1.76 -1.152,-2.688 -2.832,-3.04 1.232,-0.368 2.048,-1.168 2.048,-2.528 0,-1.952 -1.68,-2.752 -3.84,-2.752 -0.832,0 -1.664,0.048 -2.496,0.16 h -1.28 v 11.2 h 1.28 l 2.496,0.16 c 2.592,0 4.624,-0.88 4.624,-3.2 z m -2.096,-5.568 c 0,1.616 -1.808,2.448 -3.616,2.448 h -1.376 v -4.304 c 0.816,-0.112 1.648,-0.16 2.464,-0.16 1.312,0 2.528,0.8 2.528,2.016 z m 0.528,5.568 c 0,1.472 -1.456,2.464 -3.056,2.464 -0.816,0 -1.648,-0.048 -2.464,-0.16 v -4.864 h 2.064 c 1.76,0 3.456,0.944 3.456,2.56 z"
         style="font-size:16px;line-height:1.25"
         id="path674" />
      <path
         d="m 60.373018,501.11539 c -1.168,-2.592 -1.6,-4.592 -1.6,-7.44 0,-2.848 0.432,-4.848 1.6,-7.44 h -0.672 c -1.584,2.464 -2.176,4.512 -2.176,7.44 0,2.928 0.592,4.976 2.176,7.44 z"
         style="font-size:16px;line-height:1.25"
         id="path676" />
      <path
         d="m 64.084997,497.43539 v -11.2 h -1.312 v 11.2 z"
         style="font-size:16px;line-height:1.25"
         id="path678" />
      <path
         d="m 72.75699,497.43539 v -5.2 c 0,-1.168 -0.896,-2.16 -2.048,-2.16 -0.96,0 -1.808,0.544 -2.496,1.216 v -1.056 h -1.248 v 7.2 h 1.248 v -5.648 c 0.544,-0.544 1.216,-0.976 1.968,-0.976 0.752,0 1.328,0.656 1.328,1.424 v 5.2 z"
         style="font-size:16px;line-height:1.25"
         id="path680" />
      <path
         d="m 81.348963,493.83539 c 0,-2.128 -0.8,-3.76 -2.736,-3.76 -0.816,0 -1.568,0.368 -2.208,0.88 v -0.72 h -1.248 v 10.88 h 1.248 v -3.952 c 0.624,0.272 1.296,0.432 1.968,0.432 2,0 2.976,-1.6 2.976,-3.76 z m -1.408,0 c 0,1.504 -0.464,3.088 -1.776,3.088 -0.608,0 -1.216,-0.16 -1.76,-0.432 v -4.864 c 0.48,-0.48 1.072,-0.88 1.76,-0.88 1.456,0 1.776,1.408 1.776,3.088 z"
         style="font-size:16px;line-height:1.25"
         id="path682" />
      <path
         d="m 89.220935,497.43539 v -7.2 h -1.248 v 5.648 c -0.544,0.544 -1.216,0.976 -1.968,0.976 -0.752,0 -1.328,-0.656 -1.328,-1.424 v -5.2 h -1.248 v 5.2 c 0,1.168 0.896,2.16 2.048,2.16 0.96,0 1.808,-0.544 2.496,-1.216 v 1.056 z"
         style="font-size:16px;line-height:1.25"
         id="path684" />
      <path
         d="m 95.172908,496.87539 v -0.48 c -0.256,0.256 -0.56,0.464 -0.928,0.464 -0.576,0 -0.608,-0.752 -0.608,-1.424 v -4.528 h 1.536 v -0.672 h -1.536 v -2.4 h -0.752 c 0,1.28 -0.736,2.48 -1.904,2.48 v 0.592 h 1.408 v 4.528 c 0,1.056 0.336,2.16 1.248,2.16 0.592,0 1.104,-0.32 1.536,-0.72 z"
         style="font-size:16px;line-height:1.25"
         id="path686" />
      <path
         d="m 100.35689,486.23539 h -0.832005 l -3.264,13.04 h 0.832 z"
         style="font-size:16px;line-height:1.25"
         id="path688" />
      <path
         d="m 111.92487,491.83539 c 0,-3.392 -1.76,-5.76 -4.992,-5.76 -3.248,0 -5.008,2.368 -5.008,5.76 0,3.392 1.76,5.76 5.008,5.76 3.232,0 4.992,-2.368 4.992,-5.76 z m -1.568,0 c 0,2.8 -0.928,5.024 -3.424,5.024 -2.512,0 -3.44,-2.224 -3.44,-5.024 0,-2.8 0.928,-5.024 3.44,-5.024 2.496,0 3.424,2.224 3.424,5.024 z"
         style="font-size:16px;line-height:1.25"
         id="path690" />
      <path
         d="m 119.87685,497.43539 v -7.2 h -1.248 v 5.648 c -0.544,0.544 -1.216,0.976 -1.968,0.976 -0.752,0 -1.328,-0.656 -1.328,-1.424 v -5.2 h -1.248 v 5.2 c 0,1.168 0.896,2.16 2.048,2.16 0.96,0 1.808,-0.544 2.496,-1.216 v 1.056 z"
         style="font-size:16px;line-height:1.25"
         id="path692" />
      <path
         d="m 125.82882,496.87539 v -0.48 c -0.256,0.256 -0.56,0.464 -0.928,0.464 -0.576,0 -0.608,-0.752 -0.608,-1.424 v -4.528 h 1.536 v -0.672 h -1.536 v -2.4 h -0.752 c 0,1.28 -0.736,2.48 -1.904,2.48 v 0.592 h 1.408 v 4.528 c 0,1.056 0.336,2.16 1.248,2.16 0.592,0 1.104,-0.32 1.536,-0.72 z"
         style="font-size:16px;line-height:1.25"
         id="path694" />
      <path
         d="m 133.7008,493.83539 c 0,-2.128 -0.8,-3.76 -2.736,-3.76 -0.816,0 -1.568,0.368 -2.208,0.88 v -0.72 h -1.248 v 10.88 h 1.248 v -3.952 c 0.624,0.272 1.296,0.432 1.968,0.432 2,0 2.976,-1.6 2.976,-3.76 z m -1.408,0 c 0,1.504 -0.464,3.088 -1.776,3.088 -0.608,0 -1.216,-0.16 -1.76,-0.432 v -4.864 c 0.48,-0.48 1.072,-0.88 1.76,-0.88 1.456,0 1.776,1.408 1.776,3.088 z"
         style="font-size:16px;line-height:1.25"
         id="path696" />
      <path
         d="m 141.57277,497.43539 v -7.2 h -1.248 v 5.648 c -0.544,0.544 -1.216,0.976 -1.968,0.976 -0.752,0 -1.328,-0.656 -1.328,-1.424 v -5.2 h -1.248 v 5.2 c 0,1.168 0.896,2.16 2.048,2.16 0.96,0 1.808,-0.544 2.496,-1.216 v 1.056 z"
         style="font-size:16px;line-height:1.25"
         id="path698" />
      <path
         d="m 147.52475,496.87539 v -0.48 c -0.256,0.256 -0.56,0.464 -0.928,0.464 -0.576,0 -0.608,-0.752 -0.608,-1.424 v -4.528 h 1.536 v -0.672 h -1.536 v -2.4 h -0.752 c 0,1.28 -0.736,2.48 -1.904,2.48 v 0.592 h 1.408 v 4.528 c 0,1.056 0.336,2.16 1.248,2.16 0.592,0 1.104,-0.32 1.536,-0.72 z"
         style="font-size:16px;line-height:1.25"
         id="path700" />
      <path
         d="m 163.3327,494.39539 c 0,-1.76 -1.152,-2.688 -2.832,-3.04 1.232,-0.368 2.048,-1.168 2.048,-2.528 0,-1.952 -1.68,-2.752 -3.84,-2.752 -0.832,0 -1.664,0.048 -2.496,0.16 h -1.28 v 11.2 h 1.28 l 2.496,0.16 c 2.592,0 4.624,-0.88 4.624,-3.2 z m -2.096,-5.568 c 0,1.616 -1.808,2.448 -3.616,2.448 h -1.376 v -4.304 c 0.816,-0.112 1.648,-0.16 2.464,-0.16 1.312,0 2.528,0.8 2.528,2.016 z m 0.528,5.568 c 0,1.472 -1.456,2.464 -3.056,2.464 -0.816,0 -1.648,-0.048 -2.464,-0.16 v -4.864 h 2.064 c 1.76,0 3.456,0.944 3.456,2.56 z"
         style="font-size:16px;line-height:1.25"
         id="path702" />
      <path
         d="m 168.58069,496.87539 v -0.48 c -0.304,0.256 -0.656,0.464 -1.056,0.464 -0.592,0 -0.704,-0.736 -0.704,-1.424 v -9.2 h -1.248 v 9.2 c 0,1.072 0.416,2.16 1.36,2.16 0.608,0 1.184,-0.304 1.648,-0.72 z"
         style="font-size:16px;line-height:1.25"
         id="path704" />
      <path
         d="m 175.97266,493.83539 c 0,-2.448 -1.088,-3.76 -3.088,-3.76 -2.016,0 -3.104,1.312 -3.104,3.76 0,2.448 1.088,3.76 3.104,3.76 2,0 3.088,-1.312 3.088,-3.76 z m -1.408,0 c 0,2 -0.592,3.088 -1.68,3.088 -1.104,0 -1.696,-1.088 -1.696,-3.088 0,-2 0.592,-3.088 1.696,-3.088 1.088,0 1.68,1.088 1.68,3.088 z"
         style="font-size:16px;line-height:1.25"
         id="path706" />
      <path
         d="m 183.31665,491.89939 v -0.672 c -0.512,-0.72 -1.344,-1.152 -2.24,-1.152 -2,0 -3.344,1.504 -3.344,3.76 0,2.256 1.344,3.76 3.344,3.76 0.832,0 1.616,-0.416 2.08,-1.104 v -0.672 c -0.544,0.816 -1.104,1.104 -2.08,1.104 -1.152,0 -1.936,-1.232 -1.936,-3.088 0,-1.856 0.784,-3.088 1.936,-3.088 0.992,0 1.664,0.352 2.24,1.152 z"
         style="font-size:16px;line-height:1.25"
         id="path708" />
      <path
         d="m 191.18864,497.43539 -3.712,-4.272 3.584,-2.928 h -0.992 l -3.824,3.136 v -7.136 h -1.248 v 11.2 h 1.248 v -3.984 l 3.456,3.984 z"
         style="font-size:16px;line-height:1.25"
         id="path710" />
      <path
         d="m 194.99663,493.67539 c 0,-2.928 -0.592,-4.976 -2.176,-7.44 h -0.672 c 1.168,2.592 1.6,4.592 1.6,7.44 0,2.848 -0.432,4.848 -1.6,7.44 h 0.672 c 1.584,-2.464 2.176,-4.512 2.176,-7.44 z"
         style="font-size:16px;line-height:1.25"
         id="path712" />
    </g>
    <path
       id="path5375"
       d="m 92.812496,460.62997 -14.17323,24.80315"
       style="fill:none;stroke:#000000;stroke-width:1px;stroke-linecap:butt;stroke-linejoin:miter;stroke-opacity:1;marker-start:url(#DotM);marker-end:none" />
    <path
       style="fill:none;stroke:#000000;stroke-width:1px;stroke-linecap:butt;stroke-linejoin:miter;stroke-opacity:1;marker-start:url(#DotM);marker-end:none"
       d="m 332.81249,442.98725 98.4375,42.1875"
       id="path3274" />
    <g
       aria-label="Rseau d'interconnexion"
       id="text3278"
       style="line-height:0%;font-family:Iwona;-inkscape-font-specification:Iwona;text-align:center;text-anchor:middle">
      <path
         d="m 350.57922,497.43539 -3.408,-5.072 c 1.744,-0.336 2.944,-1.296 2.944,-3.088 0,-2.256 -1.936,-3.2 -4.448,-3.2 -0.896,0 -1.792,0.048 -2.672,0.16 h -1.28 v 11.2 h 1.312 v -5.2 c 0.864,0.16 1.76,0.256 2.64,0.256 l 3.344,4.944 z m -2.032,-8.16 c 0,1.456 -1.36,2.48 -2.88,2.48 -0.88,0 -1.776,-0.096 -2.64,-0.256 v -4.528 c 0.88,-0.112 1.76,-0.16 2.64,-0.16 1.52,0 2.88,1.024 2.88,2.464 z"
         style="font-size:16px;line-height:1.25"
         id="path715" />
      <path
         d="m 357.81121,493.99539 v -0.16 c 0,-2.256 -1.232,-3.76 -3.088,-3.76 -1.872,0 -3.104,1.504 -3.104,3.76 0,2.256 1.232,3.76 3.104,3.76 0.8,0 1.584,-0.256 2.24,-0.72 v -0.672 c -0.752,0.48 -1.36,0.656 -2.24,0.656 -1.36,0 -1.696,-1.296 -1.696,-2.864 z m -1.408,-0.672 h -3.376 c 0,-1.28 0.544,-2.576 1.696,-2.576 1.136,0 1.68,1.296 1.68,2.576 z m 0.048,-7.088 h -1.44 c 0,1.072 -0.336,2.128 -0.96,2.992 h 0.672 c 0.848,-0.848 1.728,-1.792 1.728,-2.992 z"
         style="font-size:16px;line-height:1.25"
         id="path717" />
      <path
         d="m 364.75519,495.38739 c 0,-1.264 -1.344,-1.92 -2.656,-2.24 -0.768,-0.192 -1.6,-0.512 -1.6,-1.264 0,-0.688 0.704,-1.136 1.472,-1.136 0.848,0 1.696,0.256 2.4,0.72 v -0.672 c -0.704,-0.464 -1.552,-0.72 -2.4,-0.72 -1.392,0 -2.672,0.848 -2.672,2.144 0,1.168 1.296,1.712 2.528,2.016 0.848,0.208 1.728,0.656 1.728,1.472 0,0.752 -0.768,1.216 -1.584,1.216 -0.992,0 -1.952,-0.24 -2.8,-0.72 v 0.672 c 0.848,0.48 1.808,0.72 2.8,0.72 1.44,0 2.784,-0.864 2.784,-2.208 z"
         style="font-size:16px;line-height:1.25"
         id="path719" />
      <path
         d="m 372.54717,493.99539 v -0.16 c 0,-2.256 -1.232,-3.76 -3.088,-3.76 -1.872,0 -3.104,1.504 -3.104,3.76 0,2.256 1.232,3.76 3.104,3.76 0.8,0 1.584,-0.256 2.24,-0.72 v -0.672 c -0.752,0.48 -1.36,0.656 -2.24,0.656 -1.36,0 -1.696,-1.296 -1.696,-2.864 z m -1.408,-0.672 h -3.376 c 0,-1.28 0.544,-2.576 1.696,-2.576 1.136,0 1.68,1.296 1.68,2.576 z"
         style="font-size:16px;line-height:1.25"
         id="path721" />
      <path
         d="m 380.25915,497.43539 v -4.48 c 0,-1.504 -0.928,-2.88 -2.32,-2.88 -1.024,0 -1.984,0.352 -2.848,0.896 v 0.496 c 0.72,-0.4 1.52,-0.656 2.352,-0.656 0.992,0 1.568,1.056 1.568,2.144 v 0.288 c -0.624,-0.272 -1.296,-0.432 -1.968,-0.432 -1.712,0 -2.976,0.784 -2.976,2.4 0,1.536 1.12,2.384 2.736,2.384 0.816,0 1.568,-0.368 2.208,-0.88 v 0.72 z m -1.248,-1.392 c -0.48,0.48 -1.072,0.88 -1.76,0.88 -1.072,0 -1.776,-0.656 -1.776,-1.712 0,-0.976 0.8,-1.728 1.776,-1.728 0.608,0 1.216,0.16 1.76,0.432 z"
         style="font-size:16px;line-height:1.25"
         id="path723" />
      <path
         d="m 388.53114,497.43539 v -7.2 h -1.248 v 5.648 c -0.544,0.544 -1.216,0.976 -1.968,0.976 -0.752,0 -1.328,-0.656 -1.328,-1.424 v -5.2 h -1.248 v 5.2 c 0,1.168 0.896,2.16 2.048,2.16 0.96,0 1.808,-0.544 2.496,-1.216 v 1.056 z"
         style="font-size:16px;line-height:1.25"
         id="path725" />
      <path
         d="m 402.21108,497.43539 v -11.2 h -1.248 v 4.272 c -0.624,-0.272 -1.296,-0.432 -1.968,-0.432 -2,0 -2.976,1.6 -2.976,3.76 0,2.128 0.8,3.76 2.736,3.76 0.816,0 1.568,-0.368 2.208,-0.88 v 0.72 z m -1.248,-1.392 c -0.48,0.48 -1.072,0.88 -1.76,0.88 -1.456,0 -1.776,-1.408 -1.776,-3.088 0,-1.504 0.464,-3.088 1.776,-3.088 0.608,0 1.216,0.16 1.76,0.432 z"
         style="font-size:16px;line-height:1.25"
         id="path727" />
      <path
         d="m 404.83507,489.97939 v -3.744 h -0.736 v 3.744 z"
         style="font-size:16px;line-height:1.25"
         id="path729" />
      <path
         d="m 409.65107,496.87539 v -0.48 c -0.304,0.256 -0.656,0.464 -1.056,0.464 -0.592,0 -0.704,-0.736 -0.704,-1.424 v -5.2 h -1.248 v 5.2 c 0,1.072 0.416,2.16 1.36,2.16 0.608,0 1.184,-0.304 1.648,-0.72 z m -1.6,-9.136 c 0,-0.432 -0.352,-0.784 -0.784,-0.784 -0.432,0 -0.784,0.352 -0.784,0.784 0,0.432 0.352,0.784 0.784,0.784 0.432,0 0.784,-0.352 0.784,-0.784 z"
         style="font-size:16px;line-height:1.25"
         id="path731" />
      <path
         d="m 417.04305,497.43539 v -5.2 c 0,-1.168 -0.896,-2.16 -2.048,-2.16 -0.96,0 -1.808,0.544 -2.496,1.216 v -1.056 h -1.248 v 7.2 h 1.248 v -5.648 c 0.544,-0.544 1.216,-0.976 1.968,-0.976 0.752,0 1.328,0.656 1.328,1.424 v 5.2 z"
         style="font-size:16px;line-height:1.25"
         id="path733" />
      <path
         d="m 422.91503,496.87539 v -0.48 c -0.256,0.256 -0.56,0.464 -0.928,0.464 -0.576,0 -0.608,-0.752 -0.608,-1.424 v -4.528 h 1.536 v -0.672 h -1.536 v -2.4 h -0.752 c 0,1.28 -0.736,2.48 -1.904,2.48 v 0.592 h 1.408 v 4.528 c 0,1.056 0.336,2.16 1.248,2.16 0.592,0 1.104,-0.32 1.536,-0.72 z"
         style="font-size:16px;line-height:1.25"
         id="path735" />
      <path
         d="m 430.467,493.99539 v -0.16 c 0,-2.256 -1.232,-3.76 -3.088,-3.76 -1.872,0 -3.104,1.504 -3.104,3.76 0,2.256 1.232,3.76 3.104,3.76 0.8,0 1.584,-0.256 2.24,-0.72 v -0.672 c -0.752,0.48 -1.36,0.656 -2.24,0.656 -1.36,0 -1.696,-1.296 -1.696,-2.864 z m -1.408,-0.672 h -3.376 c 0,-1.28 0.544,-2.576 1.696,-2.576 1.136,0 1.68,1.296 1.68,2.576 z"
         style="font-size:16px;line-height:1.25"
         id="path737" />
      <path
         d="m 436.53098,491.22739 v -0.992 c -0.176,-0.064 -0.368,-0.112 -0.544,-0.112 -0.896,0 -1.616,0.624 -2.192,1.312 v -1.2 h -1.248 v 7.2 h 1.248 v -5.328 c 0.48,-0.56 1.088,-1.04 1.824,-1.04 0.304,0 0.624,0.064 0.912,0.16 z"
         style="font-size:16px;line-height:1.25"
         id="path739" />
      <path
         d="m 443.31497,491.89939 v -0.672 c -0.512,-0.72 -1.344,-1.152 -2.24,-1.152 -2,0 -3.344,1.504 -3.344,3.76 0,2.256 1.344,3.76 3.344,3.76 0.832,0 1.616,-0.416 2.08,-1.104 v -0.672 c -0.544,0.816 -1.104,1.104 -2.08,1.104 -1.152,0 -1.936,-1.232 -1.936,-3.088 0,-1.856 0.784,-3.088 1.936,-3.088 0.992,0 1.664,0.352 2.24,1.152 z"
         style="font-size:16px;line-height:1.25"
         id="path741" />
      <path
         d="m 450.78695,493.83539 c 0,-2.448 -1.088,-3.76 -3.088,-3.76 -2.016,0 -3.104,1.312 -3.104,3.76 0,2.448 1.088,3.76 3.104,3.76 2,0 3.088,-1.312 3.088,-3.76 z m -1.408,0 c 0,2 -0.592,3.088 -1.68,3.088 -1.104,0 -1.696,-1.088 -1.696,-3.088 0,-2 0.592,-3.088 1.696,-3.088 1.088,0 1.68,1.088 1.68,3.088 z"
         style="font-size:16px;line-height:1.25"
         id="path743" />
      <path
         d="m 458.73895,497.43539 v -5.2 c 0,-1.168 -0.896,-2.16 -2.048,-2.16 -0.96,0 -1.808,0.544 -2.496,1.216 v -1.056 h -1.248 v 7.2 h 1.248 v -5.648 c 0.544,-0.544 1.216,-0.976 1.968,-0.976 0.752,0 1.328,0.656 1.328,1.424 v 5.2 z"
         style="font-size:16px;line-height:1.25"
         id="path745" />
      <path
         d="m 467.01092,497.43539 v -5.2 c 0,-1.168 -0.896,-2.16 -2.048,-2.16 -0.96,0 -1.808,0.544 -2.496,1.216 v -1.056 h -1.248 v 7.2 h 1.248 v -5.648 c 0.544,-0.544 1.216,-0.976 1.968,-0.976 0.752,0 1.328,0.656 1.328,1.424 v 5.2 z"
         style="font-size:16px;line-height:1.25"
         id="path747" />
      <path
         d="m 475.28289,493.99539 v -0.16 c 0,-2.256 -1.232,-3.76 -3.088,-3.76 -1.872,0 -3.104,1.504 -3.104,3.76 0,2.256 1.232,3.76 3.104,3.76 0.8,0 1.584,-0.256 2.24,-0.72 v -0.672 c -0.752,0.48 -1.36,0.656 -2.24,0.656 -1.36,0 -1.696,-1.296 -1.696,-2.864 z m -1.408,-0.672 h -3.376 c 0,-1.28 0.544,-2.576 1.696,-2.576 1.136,0 1.68,1.296 1.68,2.576 z"
         style="font-size:16px;line-height:1.25"
         id="path749" />
      <path
         d="m 482.40285,497.43539 -2.512,-3.84 2.432,-3.36 h -0.832 l -1.984,2.752 -1.792,-2.752 h -1.344 l 2.384,3.664 -2.544,3.536 h 0.832 l 2.112,-2.928 1.904,2.928 z"
         style="font-size:16px;line-height:1.25"
         id="path751" />
      <path
         d="m 486.93082,496.87539 v -0.48 c -0.304,0.256 -0.656,0.464 -1.056,0.464 -0.592,0 -0.704,-0.736 -0.704,-1.424 v -5.2 h -1.248 v 5.2 c 0,1.072 0.416,2.16 1.36,2.16 0.608,0 1.184,-0.304 1.648,-0.72 z m -1.6,-9.136 c 0,-0.432 -0.352,-0.784 -0.784,-0.784 -0.432,0 -0.784,0.352 -0.784,0.784 0,0.432 0.352,0.784 0.784,0.784 0.432,0 0.784,-0.352 0.784,-0.784 z"
         style="font-size:16px;line-height:1.25"
         id="path753" />
      <path
         d="m 494.32281,493.83539 c 0,-2.448 -1.088,-3.76 -3.088,-3.76 -2.016,0 -3.104,1.312 -3.104,3.76 0,2.448 1.088,3.76 3.104,3.76 2,0 3.088,-1.312 3.088,-3.76 z m -1.408,0 c 0,2 -0.592,3.088 -1.68,3.088 -1.104,0 -1.696,-1.088 -1.696,-3.088 0,-2 0.592,-3.088 1.696,-3.088 1.088,0 1.68,1.088 1.68,3.088 z"
         style="font-size:16px;line-height:1.25"
         id="path755" />
      <path
         d="m 502.2748,497.43539 v -5.2 c 0,-1.168 -0.896,-2.16 -2.048,-2.16 -0.96,0 -1.808,0.544 -2.496,1.216 v -1.056 h -1.248 v 7.2 h 1.248 v -5.648 c 0.544,-0.544 1.216,-0.976 1.968,-0.976 0.752,0 1.328,0.656 1.328,1.424 v 5.2 z"
         style="font-size:16px;line-height:1.25"
         id="path757" />
    </g>
    <path
       id="rect3280"
       style="fill:#ffdd55;stroke:#000000;stroke-width:0.999213"
       d="M 535.21655,266.10242 H 643.96658 V 289.5399 H 535.21655 Z" />
    <path
       id="rect3282"
       style="fill:#ffdd55;stroke:#000000;stroke-width:0.999213"
       d="M 535.21655,291.41492 H 643.96658 V 314.8524 H 535.21655 Z" />
    <path
       id="rect3284"
       style="fill:#ffdd55;stroke:#000000;stroke-width:0.999213"
       d="m 535.21655,316.72739 h 108.75003 v 23.28248 H 535.21655 Z" />
  </g>
</svg>
