<?xml version="1.0" encoding="UTF-8" standalone="no"?>
<!-- Created with Inkscape (http://www.inkscape.org/) -->

<svg
   width="148.33803mm"
   height="102.65289mm"
   viewBox="0 0 148.33803 102.65289"
   version="1.1"
   id="svg8"
   xmlns="http://www.w3.org/2000/svg"
   xmlns:svg="http://www.w3.org/2000/svg"
   xmlns:rdf="http://www.w3.org/1999/02/22-rdf-syntax-ns#"
   xmlns:cc="http://creativecommons.org/ns#"
   xmlns:dc="http://purl.org/dc/elements/1.1/">
  <defs
     id="defs2">
    <marker
       style="overflow:visible"
       id="marker60947"
       refX="0"
       refY="0"
       orient="auto">
      <path
         transform="matrix(-0.2,0,0,-0.2,-1.2,0)"
         style="fill:#000000;fill-opacity:1;fill-rule:evenodd;stroke:#000000;stroke-width:1.00000003pt;stroke-opacity:1"
         d="M 0,0 5,-5 -12.5,0 5,5 Z"
         id="path60945" />
    </marker>
    <marker
       style="overflow:visible"
       id="marker43807"
       refX="0"
       refY="0"
       orient="auto">
      <path
         transform="matrix(-0.4,0,0,-0.4,-4,0)"
         style="fill:#000000;fill-opacity:1;fill-rule:evenodd;stroke:#000000;stroke-width:1.00000003pt;stroke-opacity:1"
         d="M 0,0 5,-5 -12.5,0 5,5 Z"
         id="path43805" />
    </marker>
    <marker
       orient="auto"
       refY="0"
       refX="0"
       id="marker40233"
       style="overflow:visible">
      <path
         id="path40231"
         d="M 0,0 5,-5 -12.5,0 5,5 Z"
         style="fill:#ff7f2a;fill-opacity:1;fill-rule:evenodd;stroke:#ff7f2a;stroke-width:1.00000003pt;stroke-opacity:1"
         transform="matrix(-0.2,0,0,-0.2,-1.2,0)" />
    </marker>
    <marker
       orient="auto"
       refY="0"
       refX="0"
       id="marker33484"
       style="overflow:visible">
      <path
         id="path33482"
         d="M 0,0 5,-5 -12.5,0 5,5 Z"
         style="fill:#000000;fill-opacity:1;fill-rule:evenodd;stroke:#000000;stroke-width:1.00000003pt;stroke-opacity:1"
         transform="matrix(-0.4,0,0,-0.4,-4,0)" />
    </marker>
    <marker
       orient="auto"
       refY="0"
       refX="0"
       id="marker30870"
       style="overflow:visible">
      <path
         id="path30868"
         d="M 0,0 5,-5 -12.5,0 5,5 Z"
         style="fill:#000000;fill-opacity:1;fill-rule:evenodd;stroke:#000000;stroke-width:1.00000003pt;stroke-opacity:1"
         transform="matrix(-0.2,0,0,-0.2,-1.2,0)" />
    </marker>
    <marker
       style="overflow:visible"
       id="marker29810"
       refX="0"
       refY="0"
       orient="auto">
      <path
         transform="matrix(-0.2,0,0,-0.2,-1.2,0)"
         style="fill:#ff7f2a;fill-opacity:1;fill-rule:evenodd;stroke:#ff7f2a;stroke-width:1.00000003pt;stroke-opacity:1"
         d="M 0,0 5,-5 -12.5,0 5,5 Z"
         id="path29808" />
    </marker>
    <marker
       orient="auto"
       refY="0"
       refX="0"
       id="Arrow1Send"
       style="overflow:visible">
      <path
         id="path858"
         d="M 0,0 5,-5 -12.5,0 5,5 Z"
         style="fill:#000000;fill-opacity:1;fill-rule:evenodd;stroke:#000000;stroke-width:1.00000003pt;stroke-opacity:1"
         transform="matrix(-0.2,0,0,-0.2,-1.2,0)" />
    </marker>
    <marker
       style="overflow:visible"
       id="marker15460"
       refX="0"
       refY="0"
       orient="auto">
      <path
         transform="matrix(-0.4,0,0,-0.4,-4,0)"
         style="fill:#000000;fill-opacity:1;fill-rule:evenodd;stroke:#000000;stroke-width:1.00000003pt;stroke-opacity:1"
         d="M 0,0 5,-5 -12.5,0 5,5 Z"
         id="path15458" />
    </marker>
    <marker
       style="overflow:visible"
       id="marker14689"
       refX="0"
       refY="0"
       orient="auto">
      <path
         transform="matrix(-0.4,0,0,-0.4,-4,0)"
         style="fill:#000000;fill-opacity:1;fill-rule:evenodd;stroke:#000000;stroke-width:1.00000003pt;stroke-opacity:1"
         d="M 0,0 5,-5 -12.5,0 5,5 Z"
         id="path14687" />
    </marker>
    <marker
       orient="auto"
       refY="0"
       refX="0"
       id="marker12418"
       style="overflow:visible">
      <path
         id="path12416"
         d="M 0,0 5,-5 -12.5,0 5,5 Z"
         style="fill:#000000;fill-opacity:1;fill-rule:evenodd;stroke:#000000;stroke-width:1.00000003pt;stroke-opacity:1"
         transform="matrix(-0.4,0,0,-0.4,-4,0)" />
    </marker>
    <marker
       orient="auto"
       refY="0"
       refX="0"
       id="marker11197"
       style="overflow:visible">
      <path
         id="path11195"
         d="M 0,0 5,-5 -12.5,0 5,5 Z"
         style="fill:#000000;fill-opacity:1;fill-rule:evenodd;stroke:#000000;stroke-width:1.00000003pt;stroke-opacity:1"
         transform="matrix(-0.4,0,0,-0.4,-4,0)" />
    </marker>
    <marker
       style="overflow:visible"
       id="marker10642"
       refX="0"
       refY="0"
       orient="auto">
      <path
         transform="matrix(-0.4,0,0,-0.4,-4,0)"
         style="fill:#000000;fill-opacity:1;fill-rule:evenodd;stroke:#000000;stroke-width:1.00000003pt;stroke-opacity:1"
         d="M 0,0 5,-5 -12.5,0 5,5 Z"
         id="path10640" />
    </marker>
    <marker
       style="overflow:visible"
       id="marker10201"
       refX="0"
       refY="0"
       orient="auto">
      <path
         transform="matrix(-0.4,0,0,-0.4,-4,0)"
         style="fill:#000000;fill-opacity:1;fill-rule:evenodd;stroke:#000000;stroke-width:1.00000003pt;stroke-opacity:1"
         d="M 0,0 5,-5 -12.5,0 5,5 Z"
         id="path10199" />
    </marker>
    <marker
       orient="auto"
       refY="0"
       refX="0"
       id="marker9868"
       style="overflow:visible">
      <path
         id="path9866"
         d="M 0,0 5,-5 -12.5,0 5,5 Z"
         style="fill:#000000;fill-opacity:1;fill-rule:evenodd;stroke:#000000;stroke-width:1.00000003pt;stroke-opacity:1"
         transform="matrix(-0.4,0,0,-0.4,-4,0)" />
    </marker>
    <marker
       style="overflow:visible"
       id="marker9583"
       refX="0"
       refY="0"
       orient="auto">
      <path
         transform="matrix(-0.4,0,0,-0.4,-4,0)"
         style="fill:#000000;fill-opacity:1;fill-rule:evenodd;stroke:#000000;stroke-width:1.00000003pt;stroke-opacity:1"
         d="M 0,0 5,-5 -12.5,0 5,5 Z"
         id="path9581" />
    </marker>
    <marker
       orient="auto"
       refY="0"
       refX="0"
       id="marker9316"
       style="overflow:visible">
      <path
         id="path9314"
         d="M 0,0 5,-5 -12.5,0 5,5 Z"
         style="fill:#000000;fill-opacity:1;fill-rule:evenodd;stroke:#000000;stroke-width:1.00000003pt;stroke-opacity:1"
         transform="matrix(-0.4,0,0,-0.4,-4,0)" />
    </marker>
    <marker
       style="overflow:visible"
       id="marker8851"
       refX="0"
       refY="0"
       orient="auto">
      <path
         transform="matrix(-0.4,0,0,-0.4,-4,0)"
         style="fill:#000000;fill-opacity:1;fill-rule:evenodd;stroke:#000000;stroke-width:1.00000003pt;stroke-opacity:1"
         d="M 0,0 5,-5 -12.5,0 5,5 Z"
         id="path8849" />
    </marker>
    <marker
       orient="auto"
       refY="0"
       refX="0"
       id="marker8470"
       style="overflow:visible">
      <path
         id="path8468"
         d="M 0,0 5,-5 -12.5,0 5,5 Z"
         style="fill:#000000;fill-opacity:1;fill-rule:evenodd;stroke:#000000;stroke-width:1.00000003pt;stroke-opacity:1"
         transform="matrix(-0.4,0,0,-0.4,-4,0)" />
    </marker>
    <marker
       style="overflow:visible"
       id="marker8173"
       refX="0"
       refY="0"
       orient="auto">
      <path
         transform="matrix(-0.4,0,0,-0.4,-4,0)"
         style="fill:#000000;fill-opacity:1;fill-rule:evenodd;stroke:#000000;stroke-width:1.00000003pt;stroke-opacity:1"
         d="M 0,0 5,-5 -12.5,0 5,5 Z"
         id="path8171" />
    </marker>
    <marker
       orient="auto"
       refY="0"
       refX="0"
       id="marker1985"
       style="overflow:visible">
      <path
         id="path1983"
         d="M 0,0 5,-5 -12.5,0 5,5 Z"
         style="fill:#000000;fill-opacity:1;fill-rule:evenodd;stroke:#000000;stroke-width:1.00000003pt;stroke-opacity:1"
         transform="matrix(-0.4,0,0,-0.4,-4,0)" />
    </marker>
    <marker
       orient="auto"
       refY="0"
       refX="0"
       id="marker1935"
       style="overflow:visible">
      <path
         id="path1933"
         d="M 0,0 5,-5 -12.5,0 5,5 Z"
         style="fill:#000000;fill-opacity:1;fill-rule:evenodd;stroke:#000000;stroke-width:1.00000003pt;stroke-opacity:1"
         transform="matrix(-0.4,0,0,-0.4,-4,0)" />
    </marker>
    <marker
       orient="auto"
       refY="0"
       refX="0"
       id="marker1655"
       style="overflow:visible">
      <path
         id="path1653"
         d="M 0,0 5,-5 -12.5,0 5,5 Z"
         style="fill:#000000;fill-opacity:1;fill-rule:evenodd;stroke:#000000;stroke-width:1.00000003pt;stroke-opacity:1"
         transform="matrix(-0.4,0,0,-0.4,-4,0)" />
    </marker>
    <marker
       style="overflow:visible"
       id="marker1329"
       refX="0"
       refY="0"
       orient="auto">
      <path
         transform="matrix(-0.4,0,0,-0.4,-4,0)"
         style="fill:#000000;fill-opacity:1;fill-rule:evenodd;stroke:#000000;stroke-width:1.00000003pt;stroke-opacity:1"
         d="M 0,0 5,-5 -12.5,0 5,5 Z"
         id="path1327" />
    </marker>
    <marker
       style="overflow:visible"
       id="marker1135"
       refX="0"
       refY="0"
       orient="auto">
      <path
         transform="matrix(-0.4,0,0,-0.4,-4,0)"
         style="fill:#000000;fill-opacity:1;fill-rule:evenodd;stroke:#000000;stroke-width:1.00000003pt;stroke-opacity:1"
         d="M 0,0 5,-5 -12.5,0 5,5 Z"
         id="path1133" />
    </marker>
    <marker
       orient="auto"
       refY="0"
       refX="0"
       id="Arrow1Mend"
       style="overflow:visible">
      <path
         id="path852"
         d="M 0,0 5,-5 -12.5,0 5,5 Z"
         style="fill:#000000;fill-opacity:1;fill-rule:evenodd;stroke:#000000;stroke-width:1.00000003pt;stroke-opacity:1"
         transform="matrix(-0.4,0,0,-0.4,-4,0)" />
    </marker>
    <marker
       orient="auto"
       refY="0"
       refX="0"
       id="marker1985-3"
       style="overflow:visible">
      <path
         id="path1983-6"
         d="M 0,0 5,-5 -12.5,0 5,5 Z"
         style="fill:#000000;fill-opacity:1;fill-rule:evenodd;stroke:#000000;stroke-width:1.00000003pt;stroke-opacity:1"
         transform="matrix(-0.4,0,0,-0.4,-4,0)" />
    </marker>
  </defs>
  <metadata
     id="metadata5">
    <rdf:RDF>
      <cc:Work
         rdf:about="">
        <dc:format>image/svg+xml</dc:format>
        <dc:type
           rdf:resource="http://purl.org/dc/dcmitype/StillImage" />
        <dc:title />
      </cc:Work>
    </rdf:RDF>
  </metadata>
  <g
     id="layer1"
     transform="translate(-2.102658,-2.9962222)">
    <path
       id="rect60931"
       style="fill:#fff6d5;stroke-width:0.264583;stroke-dasharray:0.264583, 0.264583"
       d="m 125,75 h 4 v 20 h -4 z" />
    <g
       id="g19981"
       transform="translate(0,16)">
      <path
         style="fill:#fff6d5;fill-opacity:1;stroke:#000000;stroke-width:0.264583px;stroke-linecap:butt;stroke-linejoin:miter;stroke-opacity:1"
         d="M 84.999999,15 85,25 89,23 v -6 z"
         id="path11944" />
      <g
         aria-label="1"
         id="text19181"
         style="font-size:2.11667px;line-height:1.25;font-family:Iwona;-inkscape-font-specification:Iwona;letter-spacing:0px;word-spacing:0px;stroke-width:0.264583">
        <path
           d="m 86.698501,22.730249 v -1.460502 h -0.122767 c -0.116417,0.13335 -0.254,0.247651 -0.4064,0.336551 v 0.0889 c 0.129116,-0.06138 0.249767,-0.13335 0.364067,-0.220134 v 1.255185 z"
           id="path314" />
      </g>
      <g
         aria-label="0"
         id="text19185"
         style="font-size:2.11667px;line-height:1.25;font-family:Iwona;-inkscape-font-specification:Iwona;letter-spacing:0px;word-spacing:0px;stroke-width:0.264583">
        <path
           d="m 87.020235,17.999998 c 0,-0.50165 -0.154517,-0.751418 -0.463551,-0.751418 -0.309034,0 -0.463551,0.249768 -0.463551,0.751418 0,0.501651 0.154517,0.751418 0.463551,0.751418 0.309034,0 0.463551,-0.249767 0.463551,-0.751418 z m -0.186267,0 c 0,0.442384 -0.09313,0.662518 -0.277284,0.662518 -0.18415,0 -0.277284,-0.220134 -0.277284,-0.662518 0,-0.442384 0.09313,-0.662517 0.277284,-0.662517 0.18415,0 0.277284,0.220133 0.277284,0.662517 z"
           id="path317" />
      </g>
    </g>
    <path
       id="rect7500"
       style="fill:#fff6d5;stroke-width:0.264583;stroke-dasharray:0.264583, 0.264583"
       d="m 61,8 h 4 v 40 h -4 z" />
    <g
       id="g7498"
       transform="translate(-5.0000003,9)">
      <path
         id="rect31"
         style="fill:#fff6d5;stroke:#000000;stroke-width:0.28231"
         d="M 15,10 H 35 V 29.000002 H 15 Z" />
      <path
         id="path33"
         d="m 10,12 h 5"
         style="fill:none;stroke:#000000;stroke-width:0.265;stroke-linecap:butt;stroke-linejoin:miter;stroke-miterlimit:4;stroke-dasharray:none;stroke-opacity:1;marker-end:url(#Arrow1Mend)" />
      <path
         style="fill:none;stroke:#000000;stroke-width:0.265;stroke-linecap:butt;stroke-linejoin:miter;stroke-miterlimit:4;stroke-dasharray:none;stroke-opacity:1;marker-end:url(#marker1135)"
         d="m 10,15 h 5"
         id="path1131" />
      <path
         style="fill:none;stroke:#000000;stroke-width:0.265;stroke-linecap:butt;stroke-linejoin:miter;stroke-miterlimit:4;stroke-dasharray:none;stroke-opacity:1;marker-end:url(#marker1329)"
         d="m 10,18 h 5"
         id="path1323" />
      <path
         id="path1325"
         d="m 10,21 h 5"
         style="fill:none;stroke:#000000;stroke-width:0.265;stroke-linecap:butt;stroke-linejoin:miter;stroke-miterlimit:4;stroke-dasharray:none;stroke-opacity:1;marker-end:url(#marker1935)" />
      <path
         id="path1649"
         d="m 10,24 h 5"
         style="fill:none;stroke:#000000;stroke-width:0.265;stroke-linecap:butt;stroke-linejoin:miter;stroke-miterlimit:4;stroke-dasharray:none;stroke-opacity:1;marker-end:url(#marker1655)" />
      <path
         style="fill:none;stroke:#000000;stroke-width:0.265;stroke-linecap:butt;stroke-linejoin:miter;stroke-miterlimit:4;stroke-dasharray:none;stroke-opacity:1;marker-end:url(#marker1135)"
         d="m 10,27 h 5"
         id="path1651" />
      <path
         id="path1979"
         d="m 35,18 h 5"
         style="fill:none;stroke:#000000;stroke-width:0.265;stroke-linecap:butt;stroke-linejoin:miter;stroke-miterlimit:4;stroke-dasharray:none;stroke-opacity:1;marker-end:url(#marker1985)" />
      <path
         style="fill:none;stroke:#000000;stroke-width:0.265;stroke-linecap:butt;stroke-linejoin:miter;stroke-miterlimit:4;stroke-dasharray:none;stroke-opacity:1;marker-end:url(#marker1935)"
         d="m 35,21 h 5"
         id="path1981" />
      <g
         aria-label="A1"
         id="text2529"
         style="font-size:2.82222px;line-height:1.25;font-family:Iwona;-inkscape-font-specification:Iwona;letter-spacing:0px;word-spacing:0px;stroke-width:0.264583">
        <path
           d="M 17.721554,13 17.00471,11.024446 H 16.759177 L 16.028222,13 h 0.138289 l 0.256822,-0.691444 h 0.801511 L 17.476021,13 Z m -0.544688,-0.821266 h -0.705555 l 0.355599,-0.965199 z"
           id="path322" />
        <path
           d="m 18.681106,13 v -1.947332 h -0.163689 c -0.155222,0.1778 -0.338666,0.3302 -0.541866,0.448733 v 0.118533 c 0.172155,-0.08184 0.333022,-0.177799 0.485422,-0.293511 V 13 Z"
           id="path324" />
      </g>
      <g
         aria-label="A2"
         id="text2533"
         style="font-size:2.82222px;line-height:1.25;font-family:Iwona;-inkscape-font-specification:Iwona;letter-spacing:0px;word-spacing:0px;stroke-width:0.264583">
        <path
           d="M 17.721554,16 17.00471,14.024446 H 16.759177 L 16.028222,16 h 0.138289 l 0.256822,-0.691444 h 0.801511 L 17.476021,16 Z m -0.544688,-0.821266 h -0.705555 l 0.355599,-0.965199 z"
           id="path327" />
        <path
           d="m 19.090328,16 v -0.174978 h -0.996244 l 0.519289,-0.513644 c 0.231422,-0.231422 0.448733,-0.502355 0.448733,-0.829732 0,-0.276578 -0.273756,-0.4572 -0.570089,-0.4572 -0.222955,0 -0.434622,0.1016 -0.57291,0.273755 v 0.118534 c 0.143933,-0.166511 0.352777,-0.262467 0.57291,-0.262467 0.189089,0 0.349956,0.141111 0.349956,0.327378 0,0.279399 -0.129823,0.539044 -0.321734,0.739421 l -0.629355,0.646289 V 16 Z"
           id="path329" />
      </g>
      <g
         aria-label="A3"
         id="text2537"
         style="font-size:2.82222px;line-height:1.25;font-family:Iwona;-inkscape-font-specification:Iwona;letter-spacing:0px;word-spacing:0px;stroke-width:0.264583">
        <path
           d="M 17.721554,19 17.00471,17.024446 H 16.759177 L 16.028222,19 h 0.138289 l 0.256822,-0.691444 h 0.801511 L 17.476021,19 Z m -0.544688,-0.821266 h -0.705555 l 0.355599,-0.965199 z"
           id="path332" />
        <path
           d="m 19.090328,18.463778 c 0,-0.248355 -0.174978,-0.462844 -0.417689,-0.536222 0.214489,-0.06209 0.347133,-0.222955 0.347133,-0.437444 0,-0.2794 -0.225777,-0.465666 -0.564444,-0.465666 -0.183444,0 -0.361244,0.06209 -0.505177,0.174978 v 0.118533 c 0.143933,-0.112889 0.321733,-0.174978 0.505177,-0.174978 0.206022,0 0.344311,0.138289 0.344311,0.347133 0,0.335844 -0.155222,0.423333 -0.507999,0.423333 v 0.104422 c 0.380999,0 0.550333,0.09031 0.550333,0.445911 0,0.245533 -0.158045,0.445911 -0.349956,0.445911 -0.214488,0 -0.423333,-0.06209 -0.601133,-0.174978 v 0.118534 c 0.1778,0.112888 0.386645,0.174977 0.601133,0.174977 0.327378,0 0.598311,-0.254 0.598311,-0.564444 z"
           id="path334" />
      </g>
      <g
         aria-label="A4"
         id="text2541"
         style="font-size:2.82222px;line-height:1.25;font-family:Iwona;-inkscape-font-specification:Iwona;letter-spacing:0px;word-spacing:0px;stroke-width:0.264583">
        <path
           d="M 17.721554,22 17.00471,20.024446 H 16.759177 L 16.028222,22 h 0.138289 l 0.256822,-0.691444 h 0.801511 L 17.476021,22 Z m -0.544688,-0.821266 h -0.705555 l 0.355599,-0.965199 z"
           id="path337" />
        <path
           d="m 19.090328,21.322667 v -0.129822 h -0.211667 v -1.140177 h -0.220133 l -0.767644,1.140177 v 0.129822 h 0.767644 V 22 h 0.220133 v -0.677333 z m -0.4318,-0.129822 h -0.62371 l 0.62371,-0.92851 z"
           id="path339" />
      </g>
      <g
         aria-label="A5"
         id="text2545"
         style="font-size:2.82222px;line-height:1.25;font-family:Iwona;-inkscape-font-specification:Iwona;letter-spacing:0px;word-spacing:0px;stroke-width:0.264583">
        <path
           d="M 17.721554,25 17.00471,23.024446 H 16.759177 L 16.028222,25 h 0.138289 l 0.256822,-0.691444 h 0.801511 L 17.476021,25 Z m -0.544688,-0.821266 h -0.705555 l 0.355599,-0.965199 z"
           id="path342" />
        <path
           d="m 19.090328,24.365 c 0,-0.397933 -0.239889,-0.663221 -0.598311,-0.663221 -0.163688,0 -0.316088,0.06209 -0.434622,0.166511 l 0.02822,-0.640644 h 0.948266 v -0.174978 h -1.058333 l -0.04233,0.973666 0.118533,0.0056 c 0.107244,-0.132645 0.268111,-0.211667 0.440266,-0.211667 0.208845,0 0.349956,0.217311 0.349956,0.544688 0,0.327378 -0.141111,0.544689 -0.349956,0.544689 -0.217311,0 -0.428977,-0.07056 -0.601133,-0.2032 v 0.118533 c 0.172156,0.132645 0.383822,0.2032 0.601133,0.2032 0.358422,0 0.598311,-0.265288 0.598311,-0.663222 z"
           id="path344" />
      </g>
      <g
         aria-label="A6"
         id="text2549"
         style="font-size:2.82222px;line-height:1.25;font-family:Iwona;-inkscape-font-specification:Iwona;letter-spacing:0px;word-spacing:0px;stroke-width:0.264583">
        <path
           d="M 17.721554,28 17.00471,26.024446 H 16.759177 L 16.028222,28 h 0.138289 l 0.256822,-0.691444 h 0.801511 L 17.476021,28 Z m -0.544688,-0.821266 h -0.705555 l 0.355599,-0.965199 z"
           id="path347" />
        <path
           d="m 19.090328,27.365 c 0,-0.406399 -0.160867,-0.663221 -0.539044,-0.663221 -0.163689,0 -0.316089,0.0762 -0.412044,0.206022 0,-0.369711 0.09313,-0.764822 0.412044,-0.764822 0.143933,0 0.285044,0.04798 0.397933,0.138289 v -0.118533 c -0.112889,-0.09031 -0.254,-0.138289 -0.397933,-0.138289 -0.443089,0 -0.6604,0.502355 -0.6604,1.001888 0,0.699911 0.180622,1.001888 0.601133,1.001888 0.358422,0 0.598311,-0.265288 0.598311,-0.663222 z m -0.248355,0 c 0,0.327378 -0.141111,0.544689 -0.349956,0.544689 -0.395111,0 -0.352777,-0.426155 -0.352777,-0.883355 0.09596,-0.129822 0.248355,-0.206022 0.412044,-0.206022 0.225777,0 0.290689,0.282222 0.290689,0.544688 z"
           id="path349" />
      </g>
      <g
         aria-label="O5"
         id="text2553"
         style="font-size:2.82222px;line-height:1.25;font-family:Iwona;-inkscape-font-specification:Iwona;text-align:end;letter-spacing:0px;word-spacing:0px;text-anchor:end;stroke-width:0.264583">
        <path
           d="m 32.349005,18.012223 c 0,-0.598311 -0.310444,-1.015999 -0.880532,-1.015999 -0.572911,0 -0.883355,0.417688 -0.883355,1.015999 0,0.598311 0.310444,1.015999 0.883355,1.015999 0.570088,0 0.880532,-0.417688 0.880532,-1.015999 z m -0.276577,0 c 0,0.493888 -0.163689,0.886177 -0.603955,0.886177 -0.443089,0 -0.606778,-0.392289 -0.606778,-0.886177 0,-0.493889 0.163689,-0.886177 0.606778,-0.886177 0.440266,0 0.603955,0.392288 0.603955,0.886177 z"
           id="path352" />
        <path
           d="m 33.85889,18.365 c 0,-0.397933 -0.239889,-0.663221 -0.598311,-0.663221 -0.163688,0 -0.316088,0.06209 -0.434621,0.166511 l 0.02822,-0.640644 h 0.948266 v -0.174978 h -1.058333 l -0.04233,0.973666 0.118533,0.0056 c 0.107244,-0.132645 0.268111,-0.211667 0.440266,-0.211667 0.208845,0 0.349956,0.217311 0.349956,0.544688 0,0.327378 -0.141111,0.544689 -0.349956,0.544689 -0.21731,0 -0.428977,-0.07056 -0.601132,-0.2032 v 0.118533 c 0.172155,0.132645 0.383822,0.2032 0.601132,0.2032 0.358422,0 0.598311,-0.265288 0.598311,-0.663222 z"
           id="path354" />
      </g>
      <g
         aria-label="O6"
         id="text2557"
         style="font-size:2.82222px;line-height:1.25;font-family:Iwona;-inkscape-font-specification:Iwona;text-align:end;letter-spacing:0px;word-spacing:0px;text-anchor:end;stroke-width:0.264583">
        <path
           d="m 32.349005,21.012223 c 0,-0.598311 -0.310444,-1.015999 -0.880532,-1.015999 -0.572911,0 -0.883355,0.417688 -0.883355,1.015999 0,0.598311 0.310444,1.015999 0.883355,1.015999 0.570088,0 0.880532,-0.417688 0.880532,-1.015999 z m -0.276577,0 c 0,0.493888 -0.163689,0.886177 -0.603955,0.886177 -0.443089,0 -0.606778,-0.392289 -0.606778,-0.886177 0,-0.493889 0.163689,-0.886177 0.606778,-0.886177 0.440266,0 0.603955,0.392288 0.603955,0.886177 z"
           id="path357" />
        <path
           d="m 33.85889,21.365 c 0,-0.406399 -0.160866,-0.663221 -0.539044,-0.663221 -0.163689,0 -0.316089,0.0762 -0.412044,0.206022 0,-0.369711 0.09313,-0.764822 0.412044,-0.764822 0.143933,0 0.285044,0.04798 0.397933,0.138289 v -0.118533 c -0.112889,-0.09031 -0.254,-0.138289 -0.397933,-0.138289 -0.443088,0 -0.660399,0.502355 -0.660399,1.001888 0,0.699911 0.180622,1.001888 0.601132,1.001888 0.358422,0 0.598311,-0.265288 0.598311,-0.663222 z m -0.248355,0 c 0,0.327378 -0.141111,0.544689 -0.349956,0.544689 -0.39511,0 -0.352777,-0.426155 -0.352777,-0.883355 0.09596,-0.129822 0.248355,-0.206022 0.412044,-0.206022 0.225778,0 0.290689,0.282222 0.290689,0.544688 z"
           id="path359" />
      </g>
      <g
         aria-label="LUT"
         id="text2561"
         style="font-size:2.82222px;line-height:1.25;font-family:Iwona;-inkscape-font-specification:Iwona;text-align:center;letter-spacing:0px;word-spacing:0px;text-anchor:middle;stroke-width:0.264583">
        <path
           d="M 23.866885,14 V 13.870178 H 22.969419 V 12.024446 H 22.737997 V 14 Z"
           id="path362" />
        <path
           d="m 25.625121,13.446845 v -1.422399 h -0.129822 v 1.377243 c 0,0.293511 -0.259645,0.513644 -0.5588,0.513644 -0.301977,0 -0.561622,-0.220133 -0.561622,-0.513644 v -1.377243 h -0.231422 v 1.422399 c 0,0.358422 0.3556,0.598311 0.742244,0.598311 0.383822,0 0.739422,-0.239889 0.739422,-0.598311 z"
           id="path364" />
        <path
           d="m 27.487786,12.154268 v -0.129822 h -1.552221 v 0.129822 h 0.660399 V 14 h 0.231422 v -1.845732 z"
           id="path366" />
      </g>
    </g>
    <path
       id="rect2563"
       style="fill:none;stroke:#000000;stroke-width:0.265"
       d="m 61,8 h 3.999998 V 20 H 61 Z" />
    <path
       style="fill:none;stroke:#000000;stroke-width:0.264583px;stroke-linecap:butt;stroke-linejoin:miter;stroke-opacity:1"
       d="m 61,12 h 3.999999"
       id="path2565" />
    <path
       id="path2567"
       d="m 61,16 h 3.999999"
       style="fill:none;stroke:#000000;stroke-width:0.264583px;stroke-linecap:butt;stroke-linejoin:miter;stroke-opacity:1" />
    <path
       style="fill:none;stroke:#000000;stroke-width:0.264583;stroke-linecap:butt;stroke-linejoin:miter;stroke-miterlimit:4;stroke-dasharray:0.264583, 0.264583;stroke-dashoffset:0;stroke-opacity:1"
       d="m 61,20 v 3.999999"
       id="path7455" />
    <path
       id="path7457"
       d="M 65,20.000001 V 24"
       style="fill:none;stroke:#000000;stroke-width:0.264583;stroke-linecap:butt;stroke-linejoin:miter;stroke-miterlimit:4;stroke-dasharray:0.264583, 0.264583;stroke-dashoffset:0;stroke-opacity:1" />
    <path
       id="rect7459"
       style="fill:none;stroke:#000000;stroke-width:0.265"
       d="m 61,24 h 4 v 16 h -4 z" />
    <path
       id="path7461"
       d="m 61,40 v 4"
       style="fill:none;stroke:#000000;stroke-width:0.264583;stroke-linecap:butt;stroke-linejoin:miter;stroke-miterlimit:4;stroke-dasharray:0.264583, 0.264583;stroke-dashoffset:0;stroke-opacity:1" />
    <path
       style="fill:none;stroke:#000000;stroke-width:0.264583;stroke-linecap:butt;stroke-linejoin:miter;stroke-miterlimit:4;stroke-dasharray:0.264583, 0.264583;stroke-dashoffset:0;stroke-opacity:1"
       d="m 65,40 v 4"
       id="path7463" />
    <path
       id="rect7465"
       style="fill:none;stroke:#000000;stroke-width:0.265"
       d="m 61,44 h 4 v 4 h -4 z" />
    <path
       id="path7467"
       d="M 60.999999,28 H 65"
       style="fill:none;stroke:#000000;stroke-width:0.264583px;stroke-linecap:butt;stroke-linejoin:miter;stroke-opacity:1" />
    <path
       style="fill:none;stroke:#000000;stroke-width:0.264583px;stroke-linecap:butt;stroke-linejoin:miter;stroke-opacity:1"
       d="M 60.999999,32 H 65"
       id="path7469" />
    <path
       style="fill:#fff6d5;fill-opacity:1;stroke:none;stroke-width:0.264583px;stroke-linecap:butt;stroke-linejoin:miter;stroke-opacity:1"
       d="M 69.999999,7.9999997 V 28 L 74,26 V 10 Z"
       id="path7502" />
    <path
       id="path7504"
       d="M 69.999999,28 V 48 L 74,46 V 30 Z"
       style="fill:#fff6d5;fill-opacity:1;stroke:none;stroke-width:0.264583px;stroke-linecap:butt;stroke-linejoin:miter;stroke-opacity:1" />
    <path
       id="path7506"
       d="M 60.999999,36 H 65"
       style="fill:none;stroke:#000000;stroke-width:0.264583px;stroke-linecap:butt;stroke-linejoin:miter;stroke-opacity:1" />
    <path
       id="path1979-7"
       d="m 65,10 h 5"
       style="fill:none;stroke:#000000;stroke-width:0.265;stroke-linecap:butt;stroke-linejoin:miter;stroke-miterlimit:4;stroke-dasharray:none;stroke-opacity:1;marker-end:url(#marker1985-3)" />
    <path
       style="fill:none;stroke:#000000;stroke-width:0.265;stroke-linecap:butt;stroke-linejoin:miter;stroke-miterlimit:4;stroke-dasharray:none;stroke-opacity:1;marker-end:url(#marker8173)"
       d="m 65,14 h 5"
       id="path8169" />
    <path
       id="path8466"
       d="m 65,18 h 5"
       style="fill:none;stroke:#000000;stroke-width:0.265;stroke-linecap:butt;stroke-linejoin:miter;stroke-miterlimit:4;stroke-dasharray:none;stroke-opacity:1;marker-end:url(#marker8470)" />
    <path
       style="fill:none;stroke:#000000;stroke-width:0.265;stroke-linecap:butt;stroke-linejoin:miter;stroke-miterlimit:4;stroke-dasharray:none;stroke-opacity:1;marker-end:url(#marker8851)"
       d="m 65,26 h 5"
       id="path8847" />
    <path
       id="path9312"
       d="m 65,30 h 5"
       style="fill:none;stroke:#000000;stroke-width:0.265;stroke-linecap:butt;stroke-linejoin:miter;stroke-miterlimit:4;stroke-dasharray:none;stroke-opacity:1;marker-end:url(#marker9316)" />
    <path
       style="fill:none;stroke:#000000;stroke-width:0.265;stroke-linecap:butt;stroke-linejoin:miter;stroke-miterlimit:4;stroke-dasharray:none;stroke-opacity:1;marker-end:url(#marker9583)"
       d="m 65,34 h 5"
       id="path9579" />
    <path
       id="path9864"
       d="m 65,38 h 5"
       style="fill:none;stroke:#000000;stroke-width:0.265;stroke-linecap:butt;stroke-linejoin:miter;stroke-miterlimit:4;stroke-dasharray:none;stroke-opacity:1;marker-end:url(#marker9868)" />
    <path
       style="fill:none;stroke:#000000;stroke-width:0.265;stroke-linecap:butt;stroke-linejoin:miter;stroke-miterlimit:4;stroke-dasharray:none;stroke-opacity:1;marker-end:url(#marker10201)"
       d="m 65,46 h 5"
       id="path10197" />
    <path
       style="fill:none;stroke:#000000;stroke-width:0.265;stroke-linecap:butt;stroke-linejoin:miter;stroke-miterlimit:4;stroke-dasharray:none;stroke-opacity:1;marker-end:url(#marker10642)"
       d="M 74,38 H 85"
       id="path10638" />
    <path
       id="path11193"
       d="M 74,18 H 94"
       style="fill:none;stroke:#000000;stroke-width:0.265;stroke-linecap:butt;stroke-linejoin:miter;stroke-miterlimit:4;stroke-dasharray:none;stroke-opacity:1;marker-end:url(#marker11197)" />
    <path
       style="fill:none;stroke:#000000;stroke-width:0.264583px;stroke-linecap:butt;stroke-linejoin:miter;stroke-opacity:1"
       d="M 69.999999,20 V 7.9999998 L 74,10 l -10e-7,10"
       id="path11928" />
    <path
       id="path11930"
       d="M 70,40 V 28 l 4,2 v 10"
       style="fill:none;stroke:#000000;stroke-width:0.264583px;stroke-linecap:butt;stroke-linejoin:miter;stroke-opacity:1" />
    <path
       style="fill:none;stroke:#000000;stroke-width:0.264583px;stroke-linecap:butt;stroke-linejoin:miter;stroke-opacity:1"
       d="m 70,24 v 4 l 4,-2 v -2"
       id="path11932" />
    <path
       id="path11934"
       d="m 70,44 v 4 l 4,-2 v -2"
       style="fill:none;stroke:#000000;stroke-width:0.264583px;stroke-linecap:butt;stroke-linejoin:miter;stroke-opacity:1" />
    <path
       id="path11936"
       d="m 70,19.999999 v 3.999999"
       style="fill:none;stroke:#000000;stroke-width:0.264583;stroke-linecap:butt;stroke-linejoin:miter;stroke-miterlimit:4;stroke-dasharray:0.264583, 0.264583;stroke-dashoffset:0;stroke-opacity:1" />
    <path
       style="fill:none;stroke:#000000;stroke-width:0.264583;stroke-linecap:butt;stroke-linejoin:miter;stroke-miterlimit:4;stroke-dasharray:0.264583, 0.264583;stroke-dashoffset:0;stroke-opacity:1"
       d="m 74,20 v 3.999999"
       id="path11938" />
    <path
       style="fill:none;stroke:#000000;stroke-width:0.264583;stroke-linecap:butt;stroke-linejoin:miter;stroke-miterlimit:4;stroke-dasharray:0.264583, 0.264583;stroke-dashoffset:0;stroke-opacity:1"
       d="m 70,39.999999 v 3.999999"
       id="path11940" />
    <path
       id="path11942"
       d="m 74,40 v 3.999999"
       style="fill:none;stroke:#000000;stroke-width:0.264583;stroke-linecap:butt;stroke-linejoin:miter;stroke-miterlimit:4;stroke-dasharray:0.264583, 0.264583;stroke-dashoffset:0;stroke-opacity:1" />
    <path
       id="path12414"
       d="m 80,18 v 16 h 5"
       style="fill:none;stroke:#000000;stroke-width:0.265;stroke-linecap:butt;stroke-linejoin:miter;stroke-miterlimit:4;stroke-dasharray:none;stroke-opacity:1;marker-end:url(#marker12418)" />
    <path
       style="fill:none;stroke:#000000;stroke-width:0.265;stroke-linecap:butt;stroke-linejoin:miter;stroke-miterlimit:4;stroke-dasharray:none;stroke-opacity:1;marker-end:url(#marker14689)"
       d="m 89,36 h 5"
       id="path14685" />
    <path
       style="fill:none;stroke:#000000;stroke-width:0.265;stroke-linecap:butt;stroke-linejoin:miter;stroke-miterlimit:4;stroke-dasharray:none;stroke-opacity:1;marker-end:url(#marker15460)"
       d="m 85,52 2,-2 V 40"
       id="path15456" />
    <path
       id="path17871"
       d="m 71,52 1,-1 v -3"
       style="fill:none;stroke:#000000;stroke-width:0.529167;stroke-linecap:butt;stroke-linejoin:miter;stroke-miterlimit:4;stroke-dasharray:none;stroke-opacity:1;marker-end:url(#Arrow1Send)" />
    <path
       style="fill:none;stroke:#000000;stroke-width:0.79375;stroke-linecap:butt;stroke-linejoin:miter;stroke-miterlimit:4;stroke-dasharray:none;stroke-opacity:1"
       d="M 55,52 H 86"
       id="path19031" />
    <g
       aria-label="A6..1"
       id="text2529-5"
       style="font-size:2.82222px;line-height:1.25;font-family:Iwona;-inkscape-font-specification:Iwona;text-align:end;letter-spacing:0px;word-spacing:0px;text-anchor:end;stroke-width:0.264583">
      <path
         d="M 49.800548,53 49.083705,51.024446 H 48.838171 L 48.107216,53 h 0.138289 l 0.256822,-0.691444 h 0.801511 L 49.555015,53 Z M 49.25586,52.178734 h -0.705555 l 0.3556,-0.965199 z"
         id="path372" />
      <path
         d="m 51.169322,52.365 c 0,-0.406399 -0.160866,-0.663221 -0.539044,-0.663221 -0.163689,0 -0.316089,0.0762 -0.412044,0.206022 0,-0.369711 0.09313,-0.764822 0.412044,-0.764822 0.143933,0 0.285044,0.04798 0.397933,0.138289 v -0.118533 c -0.112889,-0.09031 -0.254,-0.138289 -0.397933,-0.138289 -0.443088,0 -0.660399,0.502355 -0.660399,1.001888 0,0.699911 0.180622,1.001888 0.601132,1.001888 0.358422,0 0.598311,-0.265288 0.598311,-0.663222 z m -0.248355,0 c 0,0.327378 -0.141111,0.544689 -0.349956,0.544689 -0.39511,0 -0.352777,-0.426155 -0.352777,-0.883355 0.09595,-0.129822 0.248355,-0.206022 0.412044,-0.206022 0.225778,0 0.290689,0.282222 0.290689,0.544688 z"
         id="path374" />
      <path
         d="m 51.750698,52.861711 c 0,-0.0762 -0.06209,-0.138289 -0.138289,-0.138289 -0.0762,0 -0.138288,0.06209 -0.138288,0.138289 0,0.0762 0.06209,0.138289 0.138288,0.138289 0.0762,0 0.138289,-0.06209 0.138289,-0.138289 z"
         id="path376" />
      <path
         d="m 52.35465,52.861711 c 0,-0.0762 -0.06209,-0.138289 -0.138289,-0.138289 -0.0762,0 -0.138288,0.06209 -0.138288,0.138289 0,0.0762 0.06209,0.138289 0.138288,0.138289 0.0762,0 0.138289,-0.06209 0.138289,-0.138289 z"
         id="path378" />
      <path
         d="m 53.449668,53 v -1.947332 h -0.163689 c -0.155222,0.1778 -0.338666,0.3302 -0.541866,0.448733 v 0.118533 c 0.172155,-0.08184 0.333022,-0.177799 0.485422,-0.293511 V 53 Z"
         id="path380" />
    </g>
    <g
       aria-label="A5..1"
       id="text19053"
       style="font-size:2.82222px;line-height:1.25;font-family:Iwona;-inkscape-font-specification:Iwona;letter-spacing:0px;word-spacing:0px;stroke-width:0.264583">
      <path
         d="M 74.721554,51 74.00471,49.024446 H 73.759177 L 73.028222,51 h 0.138289 l 0.256822,-0.691444 h 0.801511 L 74.476021,51 Z m -0.544688,-0.821266 h -0.705555 l 0.355599,-0.965199 z"
         id="path383" />
      <path
         d="m 76.090328,50.365 c 0,-0.397933 -0.239889,-0.663221 -0.598311,-0.663221 -0.163688,0 -0.316088,0.06209 -0.434622,0.166511 l 0.02822,-0.640644 h 0.948266 v -0.174978 h -1.058333 l -0.04233,0.973666 0.118533,0.0056 c 0.107244,-0.132645 0.268111,-0.211667 0.440266,-0.211667 0.208845,0 0.349956,0.217311 0.349956,0.544688 0,0.327378 -0.141111,0.544689 -0.349956,0.544689 -0.217311,0 -0.428977,-0.07056 -0.601133,-0.2032 v 0.118533 c 0.172156,0.132645 0.383822,0.2032 0.601133,0.2032 0.358422,0 0.598311,-0.265288 0.598311,-0.663222 z"
         id="path385" />
      <path
         d="m 76.671704,50.861711 c 0,-0.0762 -0.06209,-0.138289 -0.138289,-0.138289 -0.0762,0 -0.138289,0.06209 -0.138289,0.138289 0,0.0762 0.06209,0.138289 0.138289,0.138289 0.0762,0 0.138289,-0.06209 0.138289,-0.138289 z"
         id="path387" />
      <path
         d="m 77.275656,50.861711 c 0,-0.0762 -0.06209,-0.138289 -0.138289,-0.138289 -0.0762,0 -0.138289,0.06209 -0.138289,0.138289 0,0.0762 0.06209,0.138289 0.138289,0.138289 0.0762,0 0.138289,-0.06209 0.138289,-0.138289 z"
         id="path389" />
      <path
         d="m 78.370674,51 v -1.947332 h -0.163689 c -0.155222,0.1778 -0.338666,0.3302 -0.541866,0.448733 v 0.118533 c 0.172155,-0.08184 0.333022,-0.177799 0.485422,-0.293511 V 51 Z"
         id="path391" />
    </g>
    <g
       aria-label="A6"
       id="text19057"
       style="font-size:2.82222px;line-height:1.25;font-family:Iwona;-inkscape-font-specification:Iwona;letter-spacing:0px;word-spacing:0px;stroke-width:0.264583">
      <path
         d="M 89.721554,51 89.00471,49.024446 H 88.759177 L 88.028222,51 h 0.138289 l 0.256822,-0.691444 h 0.801511 L 89.476021,51 Z m -0.544688,-0.821266 h -0.705555 l 0.355599,-0.965199 z"
         id="path394" />
      <path
         d="m 91.090328,50.365 c 0,-0.406399 -0.160867,-0.663221 -0.539044,-0.663221 -0.163689,0 -0.316089,0.0762 -0.412044,0.206022 0,-0.369711 0.09313,-0.764822 0.412044,-0.764822 0.143933,0 0.285044,0.04798 0.397933,0.138289 v -0.118533 c -0.112889,-0.09031 -0.254,-0.138289 -0.397933,-0.138289 -0.443089,0 -0.6604,0.502355 -0.6604,1.001888 0,0.699911 0.180622,1.001888 0.601133,1.001888 0.358422,0 0.598311,-0.265288 0.598311,-0.663222 z m -0.248355,0 c 0,0.327378 -0.141111,0.544689 -0.349956,0.544689 -0.395111,0 -0.352777,-0.426155 -0.352777,-0.883355 0.09596,-0.129822 0.248355,-0.206022 0.412044,-0.206022 0.225777,0 0.290689,0.282222 0.290689,0.544688 z"
         id="path396" />
    </g>
    <g
       aria-label="O5"
       id="text21059"
       style="font-size:2.82222px;line-height:1.25;font-family:Iwona;-inkscape-font-specification:Iwona;letter-spacing:0px;word-spacing:0px;stroke-width:0.264583">
      <path
         d="m 96.933221,18.012223 c 0,-0.598311 -0.310444,-1.015999 -0.880533,-1.015999 -0.572911,0 -0.883355,0.417688 -0.883355,1.015999 0,0.598311 0.310444,1.015999 0.883355,1.015999 0.570089,0 0.880533,-0.417688 0.880533,-1.015999 z m -0.276578,0 c 0,0.493888 -0.163689,0.886177 -0.603955,0.886177 -0.443088,0 -0.606777,-0.392289 -0.606777,-0.886177 0,-0.493889 0.163689,-0.886177 0.606777,-0.886177 0.440266,0 0.603955,0.392288 0.603955,0.886177 z"
         id="path399" />
      <path
         d="m 98.443106,18.365 c 0,-0.397933 -0.239889,-0.663221 -0.598311,-0.663221 -0.163689,0 -0.316089,0.06209 -0.434622,0.166511 l 0.02822,-0.640644 h 0.948266 v -0.174978 h -1.058332 l -0.04233,0.973666 0.118534,0.0056 c 0.107244,-0.132645 0.26811,-0.211667 0.440266,-0.211667 0.208844,0 0.349955,0.217311 0.349955,0.544688 0,0.327378 -0.141111,0.544689 -0.349955,0.544689 -0.217311,0 -0.428978,-0.07056 -0.601133,-0.2032 v 0.118533 c 0.172155,0.132645 0.383822,0.2032 0.601133,0.2032 0.358422,0 0.598311,-0.265288 0.598311,-0.663222 z"
         id="path401" />
    </g>
    <g
       aria-label="O6"
       id="text21063"
       style="font-size:2.82222px;line-height:1.25;font-family:Iwona;-inkscape-font-specification:Iwona;letter-spacing:0px;word-spacing:0px;stroke-width:0.264583">
      <path
         d="m 96.933221,36.012223 c 0,-0.598311 -0.310444,-1.015999 -0.880533,-1.015999 -0.572911,0 -0.883355,0.417688 -0.883355,1.015999 0,0.598311 0.310444,1.015999 0.883355,1.015999 0.570089,0 0.880533,-0.417688 0.880533,-1.015999 z m -0.276578,0 c 0,0.493888 -0.163689,0.886177 -0.603955,0.886177 -0.443088,0 -0.606777,-0.392289 -0.606777,-0.886177 0,-0.493889 0.163689,-0.886177 0.606777,-0.886177 0.440266,0 0.603955,0.392288 0.603955,0.886177 z"
         id="path404" />
      <path
         d="m 98.443106,36.365 c 0,-0.406399 -0.160867,-0.663221 -0.539045,-0.663221 -0.163688,0 -0.316088,0.0762 -0.412044,0.206022 0,-0.369711 0.09313,-0.764822 0.412044,-0.764822 0.143934,0 0.285045,0.04798 0.397934,0.138289 v -0.118533 c -0.112889,-0.09031 -0.254,-0.138289 -0.397934,-0.138289 -0.443088,0 -0.660399,0.502355 -0.660399,1.001888 0,0.699911 0.180622,1.001888 0.601133,1.001888 0.358422,0 0.598311,-0.265288 0.598311,-0.663222 z m -0.248356,0 c 0,0.327378 -0.141111,0.544689 -0.349955,0.544689 -0.395111,0 -0.352778,-0.426155 -0.352778,-0.883355 0.09596,-0.129822 0.248356,-0.206022 0.412044,-0.206022 0.225778,0 0.290689,0.282222 0.290689,0.544688 z"
         id="path406" />
    </g>
    <g
       aria-label="0"
       id="text21637"
       style="font-size:2.11667px;line-height:1.25;font-family:Iwona;-inkscape-font-specification:Iwona;letter-spacing:0px;word-spacing:0px;stroke-width:0.264583">
      <path
         d="m 71.520235,9.9999992 c 0,-0.5016507 -0.154517,-0.7514178 -0.463551,-0.7514178 -0.309034,0 -0.463551,0.2497671 -0.463551,0.7514178 0,0.5016508 0.154517,0.7514178 0.463551,0.7514178 0.309034,0 0.463551,-0.249767 0.463551,-0.7514178 z m -0.186267,0 c 0,0.4423838 -0.09313,0.6625178 -0.277284,0.6625178 -0.18415,0 -0.277284,-0.220134 -0.277284,-0.6625178 0,-0.442384 0.09313,-0.6625176 0.277284,-0.6625176 0.18415,0 0.277284,0.2201336 0.277284,0.6625176 z"
         id="path409" />
    </g>
    <g
       aria-label="1"
       id="text21641"
       style="font-size:2.11667px;line-height:1.25;font-family:Iwona;-inkscape-font-specification:Iwona;letter-spacing:0px;word-spacing:0px;stroke-width:0.264583">
      <path
         d="m 71.198501,14.73025 v -1.460502 h -0.122767 c -0.116417,0.13335 -0.254,0.247651 -0.4064,0.336551 v 0.0889 c 0.129116,-0.06138 0.249767,-0.13335 0.364067,-0.220134 v 1.255185 z"
         id="path412" />
    </g>
    <g
       aria-label="2"
       id="text21645"
       style="font-size:2.11667px;line-height:1.25;font-family:Iwona;-inkscape-font-specification:Iwona;letter-spacing:0px;word-spacing:0px;stroke-width:0.264583">
      <path
         d="M 71.505418,18.740833 V 18.6096 h -0.747184 l 0.389467,-0.385234 c 0.173567,-0.173567 0.336551,-0.376767 0.336551,-0.622301 0,-0.207434 -0.205317,-0.342901 -0.427568,-0.342901 -0.167217,0 -0.325967,0.0762 -0.429684,0.205317 v 0.0889 c 0.10795,-0.124883 0.264584,-0.19685 0.429684,-0.19685 0.141817,0 0.262467,0.105834 0.262467,0.245534 0,0.20955 -0.09737,0.404284 -0.2413,0.554567 l -0.472018,0.484718 v 0.09948 z"
         id="path415" />
    </g>
    <g
       aria-label="31"
       id="text21649"
       style="font-size:2.11667px;line-height:1.25;font-family:Iwona;-inkscape-font-specification:Iwona;letter-spacing:0px;word-spacing:0px;stroke-width:0.264583">
      <path
         d="m 71.505418,26.328082 c 0,-0.186267 -0.131233,-0.347134 -0.313267,-0.402167 0.160867,-0.04657 0.26035,-0.167217 0.26035,-0.328084 0,-0.20955 -0.169333,-0.349251 -0.423334,-0.349251 -0.137583,0 -0.270933,0.04657 -0.378883,0.131234 v 0.0889 c 0.10795,-0.08467 0.2413,-0.131233 0.378883,-0.131233 0.154517,0 0.258234,0.103716 0.258234,0.26035 0,0.251884 -0.116417,0.3175 -0.381,0.3175 v 0.07832 c 0.28575,0 0.41275,0.06773 0.41275,0.334434 0,0.18415 -0.118533,0.334434 -0.262467,0.334434 -0.160867,0 -0.3175,-0.04657 -0.450851,-0.131234 v 0.0889 c 0.133351,0.08467 0.289984,0.131233 0.450851,0.131233 0.245534,0 0.448734,-0.1905 0.448734,-0.423334 z"
         id="path418" />
      <path
         d="m 72.309752,26.730249 v -1.460502 h -0.122767 c -0.116417,0.13335 -0.254,0.247651 -0.406401,0.336551 v 0.0889 c 0.129117,-0.06138 0.249768,-0.13335 0.364068,-0.220134 v 1.255185 z"
         id="path420" />
    </g>
    <g
       aria-label="0"
       id="text21763"
       style="font-size:2.11667px;line-height:1.25;font-family:Iwona;-inkscape-font-specification:Iwona;letter-spacing:0px;word-spacing:0px;stroke-width:0.264583">
      <path
         d="m 71.520235,29.999998 c 0,-0.50165 -0.154517,-0.751418 -0.463551,-0.751418 -0.309034,0 -0.463551,0.249768 -0.463551,0.751418 0,0.501651 0.154517,0.751418 0.463551,0.751418 0.309034,0 0.463551,-0.249767 0.463551,-0.751418 z m -0.186267,0 c 0,0.442384 -0.09313,0.662518 -0.277284,0.662518 -0.18415,0 -0.277284,-0.220134 -0.277284,-0.662518 0,-0.442384 0.09313,-0.662517 0.277284,-0.662517 0.18415,0 0.277284,0.220133 0.277284,0.662517 z"
         id="path423" />
    </g>
    <g
       aria-label="1"
       id="text21767"
       style="font-size:2.11667px;line-height:1.25;font-family:Iwona;-inkscape-font-specification:Iwona;letter-spacing:0px;word-spacing:0px;stroke-width:0.264583">
      <path
         d="m 71.198501,34.730251 v -1.460502 h -0.122767 c -0.116417,0.13335 -0.254,0.24765 -0.4064,0.336551 v 0.0889 c 0.129116,-0.06138 0.249767,-0.13335 0.364067,-0.220134 v 1.255185 z"
         id="path426" />
    </g>
    <g
       aria-label="2"
       id="text21771"
       style="font-size:2.11667px;line-height:1.25;font-family:Iwona;-inkscape-font-specification:Iwona;letter-spacing:0px;word-spacing:0px;stroke-width:0.264583">
      <path
         d="M 71.505418,38.740833 V 38.6096 h -0.747184 l 0.389467,-0.385234 c 0.173567,-0.173567 0.336551,-0.376767 0.336551,-0.622301 0,-0.207434 -0.205317,-0.342901 -0.427568,-0.342901 -0.167217,0 -0.325967,0.0762 -0.429684,0.205317 v 0.0889 c 0.10795,-0.124883 0.264584,-0.19685 0.429684,-0.19685 0.141817,0 0.262467,0.105834 0.262467,0.245534 0,0.20955 -0.09737,0.404284 -0.2413,0.554567 l -0.472018,0.484718 v 0.09948 z"
         id="path429" />
    </g>
    <g
       aria-label="31"
       id="text21775"
       style="font-size:2.11667px;line-height:1.25;font-family:Iwona;-inkscape-font-specification:Iwona;letter-spacing:0px;word-spacing:0px;stroke-width:0.264583">
      <path
         d="m 71.505418,46.328084 c 0,-0.186267 -0.131233,-0.347134 -0.313267,-0.402167 0.160867,-0.04657 0.26035,-0.167217 0.26035,-0.328084 0,-0.20955 -0.169333,-0.349251 -0.423334,-0.349251 -0.137583,0 -0.270933,0.04657 -0.378883,0.131234 v 0.0889 c 0.10795,-0.08467 0.2413,-0.131233 0.378883,-0.131233 0.154517,0 0.258234,0.103716 0.258234,0.26035 0,0.251884 -0.116417,0.3175 -0.381,0.3175 v 0.07832 c 0.28575,0 0.41275,0.06773 0.41275,0.334434 0,0.18415 -0.118533,0.334434 -0.262467,0.334434 -0.160867,0 -0.3175,-0.04657 -0.450851,-0.131234 v 0.0889 c 0.133351,0.08467 0.289984,0.131234 0.450851,0.131234 0.245534,0 0.448734,-0.1905 0.448734,-0.423334 z"
         id="path432" />
      <path
         d="m 72.309752,46.730251 v -1.460502 h -0.122767 c -0.116417,0.13335 -0.254,0.24765 -0.406401,0.336551 v 0.0889 c 0.129117,-0.06138 0.249768,-0.13335 0.364068,-0.220134 v 1.255185 z"
         id="path434" />
    </g>
    <g
       aria-label="RAM"
       id="text21809"
       style="font-size:2.82222px;line-height:1.25;font-family:Iwona;-inkscape-font-specification:Iwona;text-align:center;letter-spacing:0px;word-spacing:0px;text-anchor:middle;stroke-width:0.264583">
      <path
         d="M 61.713821,7 61.112688,6.1053562 c 0.307622,-0.059267 0.519289,-0.2285998 0.519289,-0.5446884 0,-0.3979331 -0.341489,-0.5644441 -0.784577,-0.5644441 -0.158045,0 -0.316089,0.00847 -0.471311,0.028222 H 60.150311 V 7 h 0.231422 V 6.0827785 c 0.1524,0.028222 0.310444,0.045155 0.465667,0.045155 L 61.437244,7 Z M 61.355399,5.5606678 c 0,0.256822 -0.239889,0.4374441 -0.507999,0.4374441 -0.155223,0 -0.313267,-0.016933 -0.465667,-0.045156 V 5.1542681 c 0.155222,-0.019756 0.310444,-0.028222 0.465667,-0.028222 0.26811,0 0.507999,0.180622 0.507999,0.4346219 z"
         id="path437" />
      <path
         d="M 63.463596,7 62.746752,5.0244459 H 62.501219 L 61.770264,7 h 0.138288 l 0.256822,-0.6914439 h 0.801511 L 63.218063,7 Z M 62.918907,6.178734 h -0.705555 l 0.3556,-0.9651993 z"
         id="path439" />
      <path
         d="M 65.848368,7 65.73548,5.0244459 H 65.549213 L 64.756169,6.692378 63.960303,5.0244459 H 63.774037 L 63.661148,7 H 63.79097 L 63.881281,5.3998012 64.646103,7 h 0.104422 L 65.523813,5.3800457 65.616946,7 Z"
         id="path441" />
    </g>
    <path
       id="rect28964"
       style="fill:#fff6d5;stroke-width:0.264583;stroke-dasharray:0.264583, 0.264583"
       d="m 17,55 h 4 v 40 h -4 z" />
    <path
       id="rect28966"
       style="fill:none;stroke:#000000;stroke-width:0.265"
       d="m 17,55 h 3.999998 V 67 H 17 Z" />
    <path
       id="path28968"
       d="m 17,59 h 4"
       style="fill:none;stroke:#000000;stroke-width:0.264583px;stroke-linecap:butt;stroke-linejoin:miter;stroke-opacity:1" />
    <path
       style="fill:none;stroke:#000000;stroke-width:0.264583px;stroke-linecap:butt;stroke-linejoin:miter;stroke-opacity:1"
       d="m 17,63 h 4"
       id="path28970" />
    <path
       id="path28972"
       d="m 17,67 v 3.999999"
       style="fill:none;stroke:#000000;stroke-width:0.264583;stroke-linecap:butt;stroke-linejoin:miter;stroke-miterlimit:4;stroke-dasharray:0.264583, 0.264583;stroke-dashoffset:0;stroke-opacity:1" />
    <path
       style="fill:none;stroke:#000000;stroke-width:0.264583;stroke-linecap:butt;stroke-linejoin:miter;stroke-miterlimit:4;stroke-dasharray:0.264583, 0.264583;stroke-dashoffset:0;stroke-opacity:1"
       d="M 21,67.000001 V 71"
       id="path28974" />
    <path
       id="rect28976"
       style="fill:none;stroke:#000000;stroke-width:0.265"
       d="m 17,71 h 4 v 16 h -4 z" />
    <path
       style="fill:none;stroke:#000000;stroke-width:0.264583;stroke-linecap:butt;stroke-linejoin:miter;stroke-miterlimit:4;stroke-dasharray:0.264583, 0.264583;stroke-dashoffset:0;stroke-opacity:1"
       d="m 17,87 v 4"
       id="path28978" />
    <path
       id="path28980"
       d="m 21,87 v 4"
       style="fill:none;stroke:#000000;stroke-width:0.264583;stroke-linecap:butt;stroke-linejoin:miter;stroke-miterlimit:4;stroke-dasharray:0.264583, 0.264583;stroke-dashoffset:0;stroke-opacity:1" />
    <path
       id="rect28982"
       style="fill:none;stroke:#000000;stroke-width:0.265"
       d="m 17,91 h 4 v 4 h -4 z" />
    <path
       style="fill:none;stroke:#000000;stroke-width:0.264583px;stroke-linecap:butt;stroke-linejoin:miter;stroke-opacity:1"
       d="m 17,75 h 4"
       id="path28984" />
    <path
       id="path28986"
       d="m 17,79 h 4"
       style="fill:none;stroke:#000000;stroke-width:0.264583px;stroke-linecap:butt;stroke-linejoin:miter;stroke-opacity:1" />
    <path
       id="path28988"
       d="m 26,55 v 40 l 4,-2 V 57 Z"
       style="fill:#fff6d5;fill-opacity:1;stroke:none;stroke-width:0.264583px;stroke-linecap:butt;stroke-linejoin:miter;stroke-opacity:1" />
    <path
       style="fill:none;stroke:#000000;stroke-width:0.264583px;stroke-linecap:butt;stroke-linejoin:miter;stroke-opacity:1"
       d="m 17,83 h 4"
       id="path28992" />
    <path
       style="fill:none;stroke:#000000;stroke-width:0.265;stroke-linecap:butt;stroke-linejoin:miter;stroke-miterlimit:4;stroke-dasharray:none;stroke-opacity:1;marker-end:url(#marker1985-3)"
       d="m 21,57 h 5"
       id="path28994" />
    <path
       id="path28996"
       d="m 21,61 h 5"
       style="fill:none;stroke:#000000;stroke-width:0.265;stroke-linecap:butt;stroke-linejoin:miter;stroke-miterlimit:4;stroke-dasharray:none;stroke-opacity:1;marker-end:url(#marker8173)" />
    <path
       style="fill:none;stroke:#000000;stroke-width:0.265;stroke-linecap:butt;stroke-linejoin:miter;stroke-miterlimit:4;stroke-dasharray:none;stroke-opacity:1;marker-end:url(#marker8470)"
       d="m 21,65 h 5"
       id="path28998" />
    <path
       id="path29000"
       d="m 21,73 h 5"
       style="fill:none;stroke:#000000;stroke-width:0.265;stroke-linecap:butt;stroke-linejoin:miter;stroke-miterlimit:4;stroke-dasharray:none;stroke-opacity:1;marker-end:url(#marker8851)" />
    <path
       style="fill:none;stroke:#000000;stroke-width:0.265;stroke-linecap:butt;stroke-linejoin:miter;stroke-miterlimit:4;stroke-dasharray:none;stroke-opacity:1;marker-end:url(#marker9316)"
       d="m 21,77 h 5"
       id="path29002" />
    <path
       id="path29004"
       d="m 21,81 h 5"
       style="fill:none;stroke:#000000;stroke-width:0.265;stroke-linecap:butt;stroke-linejoin:miter;stroke-miterlimit:4;stroke-dasharray:none;stroke-opacity:1;marker-end:url(#marker9583)" />
    <path
       style="fill:none;stroke:#000000;stroke-width:0.265;stroke-linecap:butt;stroke-linejoin:miter;stroke-miterlimit:4;stroke-dasharray:none;stroke-opacity:1;marker-end:url(#marker9868)"
       d="m 21,85 h 5"
       id="path29006" />
    <path
       id="path29008"
       d="m 21,93 h 5"
       style="fill:none;stroke:#000000;stroke-width:0.265;stroke-linecap:butt;stroke-linejoin:miter;stroke-miterlimit:4;stroke-dasharray:none;stroke-opacity:1;marker-end:url(#marker10201)" />
    <path
       id="path29014"
       d="M 26,67 V 55 l 4,2 v 10"
       style="fill:none;stroke:#000000;stroke-width:0.264583px;stroke-linecap:butt;stroke-linejoin:miter;stroke-opacity:1" />
    <path
       id="path29018"
       d="m 26,91 v 4 l 4,-2 v -2"
       style="fill:none;stroke:#000000;stroke-width:0.264583px;stroke-linecap:butt;stroke-linejoin:miter;stroke-opacity:1" />
    <path
       style="fill:none;stroke:#000000;stroke-width:0.264583;stroke-linecap:butt;stroke-linejoin:miter;stroke-miterlimit:4;stroke-dasharray:0.264583, 0.264583;stroke-dashoffset:0;stroke-opacity:1"
       d="m 26,66.999999 v 3.999999"
       id="path29022" />
    <path
       id="path29024"
       d="m 30,67 v 3.999999"
       style="fill:none;stroke:#000000;stroke-width:0.264583;stroke-linecap:butt;stroke-linejoin:miter;stroke-miterlimit:4;stroke-dasharray:0.264583, 0.264583;stroke-dashoffset:0;stroke-opacity:1" />
    <path
       id="path29032"
       d="m 30,75 h 5"
       style="fill:none;stroke:#000000;stroke-width:0.265;stroke-linecap:butt;stroke-linejoin:miter;stroke-miterlimit:4;stroke-dasharray:none;stroke-opacity:1;marker-end:url(#marker14689)" />
    <path
       style="fill:none;stroke:#000000;stroke-width:0.79375;stroke-linecap:butt;stroke-linejoin:miter;stroke-miterlimit:4;stroke-dasharray:none;stroke-opacity:1;marker-end:url(#marker30870)"
       d="M 11,99 H 28 V 95"
       id="path29036" />
    <g
       aria-label="A6..1"
       id="text29042"
       style="font-size:2.82222px;line-height:1.25;font-family:Iwona;-inkscape-font-specification:Iwona;text-align:end;letter-spacing:0px;word-spacing:0px;text-anchor:end;stroke-width:0.264583">
      <path
         d="M 5.8005485,100 5.0837046,98.024446 H 4.8381714 L 4.1072164,100 h 0.1382888 l 0.256822,-0.691444 H 5.3038377 L 5.5550153,100 Z M 5.25586,99.178734 H 4.550305 l 0.3555997,-0.965199 z"
         id="path448" />
      <path
         d="m 7.1693222,99.365 c 0,-0.406399 -0.1608666,-0.663221 -0.5390441,-0.663221 -0.1636887,0 -0.3160886,0.0762 -0.4120441,0.206022 0,-0.369711 0.093133,-0.764822 0.4120441,-0.764822 0.1439332,0 0.2850442,0.04798 0.397933,0.138289 v -0.118533 c -0.1128888,-0.09031 -0.2539998,-0.138289 -0.397933,-0.138289 -0.4430885,0 -0.6603995,0.502355 -0.6603995,1.001888 0,0.699911 0.1806221,1.001886 0.6011329,1.001886 0.3584219,0 0.5983107,-0.265286 0.5983107,-0.66322 z m -0.2483554,0 c 0,0.327378 -0.141111,0.544689 -0.3499553,0.544689 -0.3951108,0 -0.3527775,-0.426155 -0.3527775,-0.883355 0.095956,-0.129822 0.2483554,-0.206022 0.4120441,-0.206022 0.2257776,0 0.2906887,0.282222 0.2906887,0.544688 z"
         id="path450" />
      <path
         d="m 7.7506982,99.861711 c 0,-0.0762 -0.062089,-0.138289 -0.1382887,-0.138289 -0.0762,0 -0.1382888,0.06209 -0.1382888,0.138289 0,0.0762 0.062089,0.138289 0.1382888,0.138289 0.0762,0 0.1382887,-0.06209 0.1382887,-0.138289 z"
         id="path452" />
      <path
         d="m 8.3546502,99.861711 c 0,-0.0762 -0.062089,-0.138289 -0.1382888,-0.138289 -0.0762,0 -0.1382888,0.06209 -0.1382888,0.138289 0,0.0762 0.062089,0.138289 0.1382888,0.138289 0.0762,0 0.1382888,-0.06209 0.1382888,-0.138289 z"
         id="path454" />
      <path
         d="M 9.4496679,100 V 98.052668 H 9.2859792 c -0.1552221,0.1778 -0.3386664,0.3302 -0.5418663,0.448733 v 0.118533 c 0.1721554,-0.08184 0.333022,-0.177799 0.4854219,-0.293511 V 100 Z"
         id="path456" />
    </g>
    <g
       aria-label="O6"
       id="text29058"
       style="font-size:2.82222px;line-height:1.25;font-family:Iwona;-inkscape-font-specification:Iwona;letter-spacing:0px;word-spacing:0px;stroke-width:0.264583">
      <path
         d="m 37.933221,75.012223 c 0,-0.598311 -0.310444,-1.015999 -0.880533,-1.015999 -0.572911,0 -0.883355,0.417688 -0.883355,1.015999 0,0.598311 0.310444,1.015999 0.883355,1.015999 0.570089,0 0.880533,-0.417688 0.880533,-1.015999 z m -0.276578,0 c 0,0.493888 -0.163689,0.886177 -0.603955,0.886177 -0.443088,0 -0.606777,-0.392289 -0.606777,-0.886177 0,-0.493889 0.163689,-0.886177 0.606777,-0.886177 0.440266,0 0.603955,0.392288 0.603955,0.886177 z"
         id="path459" />
      <path
         d="m 39.443106,75.365 c 0,-0.406399 -0.160867,-0.663221 -0.539045,-0.663221 -0.163688,0 -0.316088,0.0762 -0.412044,0.206022 0,-0.369711 0.09313,-0.764822 0.412044,-0.764822 0.143934,0 0.285045,0.04798 0.397934,0.138289 v -0.118533 c -0.112889,-0.09031 -0.254,-0.138289 -0.397934,-0.138289 -0.443088,0 -0.660399,0.502355 -0.660399,1.001888 0,0.699911 0.180622,1.001888 0.601133,1.001888 0.358422,0 0.598311,-0.265288 0.598311,-0.663222 z m -0.248356,0 c 0,0.327378 -0.141111,0.544689 -0.349955,0.544689 -0.395111,0 -0.352778,-0.426155 -0.352778,-0.883355 0.09596,-0.129822 0.248356,-0.206022 0.412044,-0.206022 0.225778,0 0.290689,0.282222 0.290689,0.544688 z"
         id="path461" />
    </g>
    <g
       aria-label="0"
       id="text29062"
       style="font-size:2.11667px;line-height:1.25;font-family:Iwona;-inkscape-font-specification:Iwona;letter-spacing:0px;word-spacing:0px;stroke-width:0.264583">
      <path
         d="m 27.520235,56.999996 c 0,-0.50165 -0.154517,-0.751417 -0.463551,-0.751417 -0.309034,0 -0.463551,0.249767 -0.463551,0.751417 0,0.501651 0.154517,0.751418 0.463551,0.751418 0.309034,0 0.463551,-0.249767 0.463551,-0.751418 z m -0.186267,0 c 0,0.442384 -0.09313,0.662518 -0.277284,0.662518 -0.18415,0 -0.277284,-0.220134 -0.277284,-0.662518 0,-0.442384 0.09313,-0.662517 0.277284,-0.662517 0.18415,0 0.277284,0.220133 0.277284,0.662517 z"
         id="path464" />
    </g>
    <g
       aria-label="1"
       id="text29066"
       style="font-size:2.11667px;line-height:1.25;font-family:Iwona;-inkscape-font-specification:Iwona;letter-spacing:0px;word-spacing:0px;stroke-width:0.264583">
      <path
         d="m 27.198501,61.730247 v -1.460502 h -0.122767 c -0.116417,0.13335 -0.254,0.247651 -0.4064,0.336551 v 0.0889 c 0.129116,-0.06138 0.249767,-0.13335 0.364067,-0.220134 v 1.255185 z"
         id="path467" />
    </g>
    <g
       aria-label="2"
       id="text29070"
       style="font-size:2.11667px;line-height:1.25;font-family:Iwona;-inkscape-font-specification:Iwona;letter-spacing:0px;word-spacing:0px;stroke-width:0.264583">
      <path
         d="m 27.505418,65.740837 v -0.131233 h -0.747184 l 0.389467,-0.385234 c 0.173567,-0.173567 0.336551,-0.376768 0.336551,-0.622301 0,-0.207434 -0.205317,-0.342901 -0.427568,-0.342901 -0.167217,0 -0.325967,0.0762 -0.429684,0.205317 v 0.0889 c 0.10795,-0.124883 0.264584,-0.19685 0.429684,-0.19685 0.141817,0 0.262467,0.105833 0.262467,0.245534 0,0.20955 -0.09737,0.404284 -0.2413,0.554567 l -0.472018,0.484718 v 0.09948 z"
         id="path470" />
    </g>
    <g
       aria-label="31"
       id="text29074"
       style="font-size:2.11667px;line-height:1.25;font-family:Iwona;-inkscape-font-specification:Iwona;letter-spacing:0px;word-spacing:0px;stroke-width:0.264583">
      <path
         d="m 27.505418,73.32808 c 0,-0.186267 -0.131233,-0.347134 -0.313267,-0.402167 0.160867,-0.04657 0.26035,-0.167217 0.26035,-0.328084 0,-0.20955 -0.169333,-0.34925 -0.423334,-0.34925 -0.137583,0 -0.270933,0.04657 -0.378883,0.131233 v 0.0889 c 0.10795,-0.08467 0.2413,-0.131233 0.378883,-0.131233 0.154517,0 0.258234,0.103717 0.258234,0.26035 0,0.251884 -0.116417,0.317501 -0.381,0.317501 v 0.07832 c 0.28575,0 0.41275,0.06773 0.41275,0.334434 0,0.18415 -0.118533,0.334434 -0.262467,0.334434 -0.160867,0 -0.3175,-0.04657 -0.450851,-0.131233 v 0.0889 c 0.133351,0.08467 0.289984,0.131233 0.450851,0.131233 0.245534,0 0.448734,-0.1905 0.448734,-0.423334 z"
         id="path473" />
      <path
         d="m 28.309752,73.730247 v -1.460502 h -0.122767 c -0.116417,0.13335 -0.254,0.247651 -0.406401,0.336551 v 0.0889 c 0.129117,-0.06138 0.249768,-0.13335 0.364068,-0.220134 v 1.255185 z"
         id="path475" />
    </g>
    <g
       aria-label="32"
       id="text29078"
       style="font-size:2.11667px;line-height:1.25;font-family:Iwona;-inkscape-font-specification:Iwona;letter-spacing:0px;word-spacing:0px;stroke-width:0.264583">
      <path
         d="m 27.505418,77.32808 c 0,-0.186267 -0.131233,-0.347134 -0.313267,-0.402167 0.160867,-0.04657 0.26035,-0.167217 0.26035,-0.328084 0,-0.20955 -0.169333,-0.34925 -0.423334,-0.34925 -0.137583,0 -0.270933,0.04657 -0.378883,0.131233 v 0.0889 c 0.10795,-0.08467 0.2413,-0.131233 0.378883,-0.131233 0.154517,0 0.258234,0.103717 0.258234,0.26035 0,0.251884 -0.116417,0.317501 -0.381,0.317501 v 0.07832 c 0.28575,0 0.41275,0.06773 0.41275,0.334434 0,0.18415 -0.118533,0.334434 -0.262467,0.334434 -0.160867,0 -0.3175,-0.04657 -0.450851,-0.131233 v 0.0889 c 0.133351,0.08467 0.289984,0.131233 0.450851,0.131233 0.245534,0 0.448734,-0.1905 0.448734,-0.423334 z"
         id="path478" />
      <path
         d="m 28.616669,77.730247 v -0.131233 h -0.747184 l 0.389467,-0.385234 c 0.173567,-0.173567 0.33655,-0.376767 0.33655,-0.622301 0,-0.207434 -0.205317,-0.3429 -0.427567,-0.3429 -0.167217,0 -0.325967,0.0762 -0.429684,0.205317 v 0.0889 c 0.10795,-0.124884 0.264584,-0.196851 0.429684,-0.196851 0.141817,0 0.262467,0.105834 0.262467,0.245534 0,0.20955 -0.09737,0.404284 -0.2413,0.554568 l -0.472018,0.484717 v 0.09948 z"
         id="path480" />
    </g>
    <g
       aria-label="33"
       id="text29082"
       style="font-size:2.11667px;line-height:1.25;font-family:Iwona;-inkscape-font-specification:Iwona;letter-spacing:0px;word-spacing:0px;stroke-width:0.264583">
      <path
         d="m 27.505418,81.328088 c 0,-0.186267 -0.131233,-0.347134 -0.313267,-0.402167 0.160867,-0.04657 0.26035,-0.167217 0.26035,-0.328084 0,-0.209551 -0.169333,-0.349251 -0.423334,-0.349251 -0.137583,0 -0.270933,0.04657 -0.378883,0.131234 v 0.0889 c 0.10795,-0.08467 0.2413,-0.131234 0.378883,-0.131234 0.154517,0 0.258234,0.103717 0.258234,0.260351 0,0.251883 -0.116417,0.3175 -0.381,0.3175 v 0.07832 c 0.28575,0 0.41275,0.06773 0.41275,0.334434 0,0.18415 -0.118533,0.334434 -0.262467,0.334434 -0.160867,0 -0.3175,-0.04657 -0.450851,-0.131234 v 0.0889 c 0.133351,0.08467 0.289984,0.131234 0.450851,0.131234 0.245534,0 0.448734,-0.1905 0.448734,-0.423334 z"
         id="path483" />
      <path
         d="m 28.616669,81.328088 c 0,-0.186267 -0.131233,-0.347134 -0.313267,-0.402167 0.160867,-0.04657 0.26035,-0.167217 0.26035,-0.328084 0,-0.209551 -0.169333,-0.349251 -0.423334,-0.349251 -0.137583,0 -0.270933,0.04657 -0.378884,0.131234 v 0.0889 c 0.107951,-0.08467 0.241301,-0.131234 0.378884,-0.131234 0.154517,0 0.258234,0.103717 0.258234,0.260351 0,0.251883 -0.116417,0.3175 -0.381001,0.3175 v 0.07832 c 0.285751,0 0.412751,0.06773 0.412751,0.334434 0,0.18415 -0.118533,0.334434 -0.262467,0.334434 -0.160867,0 -0.3175,-0.04657 -0.450851,-0.131234 v 0.0889 c 0.133351,0.08467 0.289984,0.131234 0.450851,0.131234 0.245534,0 0.448734,-0.1905 0.448734,-0.423334 z"
         id="path485" />
    </g>
    <g
       aria-label="34"
       id="text29086"
       style="font-size:2.11667px;line-height:1.25;font-family:Iwona;-inkscape-font-specification:Iwona;letter-spacing:0px;word-spacing:0px;stroke-width:0.264583">
      <path
         d="m 27.505418,85.33867 c 0,-0.186267 -0.131233,-0.347134 -0.313267,-0.402167 0.160867,-0.04657 0.26035,-0.167217 0.26035,-0.328084 0,-0.209551 -0.169333,-0.349251 -0.423334,-0.349251 -0.137583,0 -0.270933,0.04657 -0.378883,0.131234 v 0.0889 c 0.10795,-0.08467 0.2413,-0.131234 0.378883,-0.131234 0.154517,0 0.258234,0.103717 0.258234,0.260351 0,0.251883 -0.116417,0.3175 -0.381,0.3175 v 0.07832 c 0.28575,0 0.41275,0.06773 0.41275,0.334434 0,0.18415 -0.118533,0.334434 -0.262467,0.334434 -0.160867,0 -0.3175,-0.04657 -0.450851,-0.131234 v 0.0889 c 0.133351,0.08467 0.289984,0.131234 0.450851,0.131234 0.245534,0 0.448734,-0.1905 0.448734,-0.423334 z"
         id="path488" />
      <path
         d="m 28.616669,85.232836 v -0.09737 h -0.15875 v -0.855135 h -0.1651 l -0.575735,0.855135 v 0.09737 h 0.575735 v 0.508001 h 0.1651 v -0.508001 z m -0.32385,-0.09737 h -0.467784 l 0.467784,-0.696385 z"
         id="path490" />
    </g>
    <g
       aria-label="63"
       id="text29090"
       style="font-size:2.11667px;line-height:1.25;font-family:Iwona;-inkscape-font-specification:Iwona;letter-spacing:0px;word-spacing:0px;stroke-width:0.264583">
      <path
         d="m 27.505418,93.254012 c 0,-0.3048 -0.12065,-0.497417 -0.404284,-0.497417 -0.122767,0 -0.237067,0.05715 -0.309034,0.154517 0,-0.277284 0.06985,-0.573618 0.309034,-0.573618 0.10795,0 0.213784,0.03598 0.298451,0.103717 v -0.0889 c -0.08467,-0.06773 -0.190501,-0.103717 -0.298451,-0.103717 -0.332317,0 -0.495301,0.376767 -0.495301,0.751418 0,0.524934 0.135467,0.751417 0.450851,0.751417 0.268817,0 0.448734,-0.198967 0.448734,-0.497417 z m -0.186267,0 c 0,0.245534 -0.105833,0.408517 -0.262467,0.408517 -0.296334,0 -0.264584,-0.319617 -0.264584,-0.662517 0.07197,-0.09737 0.186267,-0.154517 0.309034,-0.154517 0.169334,0 0.218017,0.211667 0.218017,0.408517 z"
         id="path493" />
      <path
         d="m 28.616669,93.328095 c 0,-0.186266 -0.131233,-0.347133 -0.313267,-0.402167 0.160867,-0.04657 0.26035,-0.167217 0.26035,-0.328084 0,-0.20955 -0.169333,-0.34925 -0.423334,-0.34925 -0.137583,0 -0.270933,0.04657 -0.378884,0.131233 v 0.0889 c 0.107951,-0.08467 0.241301,-0.131233 0.378884,-0.131233 0.154517,0 0.258234,0.103717 0.258234,0.26035 0,0.251884 -0.116417,0.317501 -0.381001,0.317501 v 0.07832 c 0.285751,0 0.412751,0.06773 0.412751,0.334433 0,0.184151 -0.118533,0.334434 -0.262467,0.334434 -0.160867,0 -0.3175,-0.04657 -0.450851,-0.131233 v 0.0889 c 0.133351,0.08467 0.289984,0.131233 0.450851,0.131233 0.245534,0 0.448734,-0.1905 0.448734,-0.423334 z"
         id="path495" />
    </g>
    <g
       aria-label="RAM"
       id="text29094"
       style="font-size:2.82222px;line-height:1.25;font-family:Iwona;-inkscape-font-specification:Iwona;text-align:center;letter-spacing:0px;word-spacing:0px;text-anchor:middle;stroke-width:0.264583">
      <path
         d="m 17.713817,54 -0.601133,-0.894644 c 0.307622,-0.05927 0.519289,-0.2286 0.519289,-0.544688 0,-0.397933 -0.341489,-0.564444 -0.784577,-0.564444 -0.158045,0 -0.316089,0.0085 -0.471311,0.02822 H 16.150307 V 54 h 0.231422 v -0.917222 c 0.1524,0.02822 0.310445,0.04516 0.465667,0.04516 L 17.43724,54 Z m -0.358422,-1.439332 c 0,0.256822 -0.239888,0.437444 -0.507999,0.437444 -0.155222,0 -0.313267,-0.01693 -0.465667,-0.04516 v -0.798688 c 0.155223,-0.01976 0.310445,-0.02822 0.465667,-0.02822 0.268111,0 0.507999,0.180622 0.507999,0.434622 z"
         id="path498" />
      <path
         d="M 19.463592,54 18.746748,52.024446 H 18.501215 L 17.77026,54 h 0.138289 l 0.256822,-0.691444 h 0.80151 L 19.218059,54 Z m -0.544689,-0.821266 h -0.705555 l 0.3556,-0.965199 z"
         id="path500" />
      <path
         d="m 21.848365,54 -0.112889,-1.975554 h -0.186267 l -0.793044,1.667932 -0.795866,-1.667932 H 19.774033 L 19.661144,54 h 0.129822 L 19.881277,52.399801 20.646099,54 h 0.104422 L 21.523809,52.380046 21.616943,54 Z"
         id="path502" />
    </g>
    <path
       id="path32840"
       d="m 26,86.999999 v 3.999999"
       style="fill:none;stroke:#000000;stroke-width:0.264583;stroke-linecap:butt;stroke-linejoin:miter;stroke-miterlimit:4;stroke-dasharray:0.264583, 0.264583;stroke-dashoffset:0;stroke-opacity:1" />
    <path
       style="fill:none;stroke:#000000;stroke-width:0.264583;stroke-linecap:butt;stroke-linejoin:miter;stroke-miterlimit:4;stroke-dasharray:0.264583, 0.264583;stroke-dashoffset:0;stroke-opacity:1"
       d="m 30,87 v 3.999999"
       id="path32842" />
    <path
       style="fill:none;stroke:#000000;stroke-width:0.264583px;stroke-linecap:butt;stroke-linejoin:miter;stroke-opacity:1"
       d="M 26,71 V 86.999999"
       id="path32844" />
    <path
       id="path32846"
       d="M 30,71 V 86.999999"
       style="fill:none;stroke:#000000;stroke-width:0.264583px;stroke-linecap:butt;stroke-linejoin:miter;stroke-opacity:1" />
    <path
       id="rect32944"
       style="fill:#fff6d5;stroke-width:0.264583;stroke-dasharray:0.264583, 0.264583"
       d="m 96,75 h 4 v 20 h -4 z" />
    <path
       id="rect32946"
       style="fill:none;stroke:#000000;stroke-width:0.265"
       d="m 125,75 h 4 v 12 h -4 z" />
    <path
       id="path32948"
       d="m 125,79 h 4"
       style="fill:none;stroke:#000000;stroke-width:0.264583px;stroke-linecap:butt;stroke-linejoin:miter;stroke-opacity:1" />
    <path
       style="fill:none;stroke:#000000;stroke-width:0.264583px;stroke-linecap:butt;stroke-linejoin:miter;stroke-opacity:1"
       d="m 125,83 h 4"
       id="path32950" />
    <path
       id="path32952"
       d="m 125,87 v 3.999999"
       style="fill:none;stroke:#000000;stroke-width:0.264583;stroke-linecap:butt;stroke-linejoin:miter;stroke-miterlimit:4;stroke-dasharray:0.264583, 0.264583;stroke-dashoffset:0;stroke-opacity:1" />
    <path
       style="fill:none;stroke:#000000;stroke-width:0.264583;stroke-linecap:butt;stroke-linejoin:miter;stroke-miterlimit:4;stroke-dasharray:0.264583, 0.264583;stroke-dashoffset:0;stroke-opacity:1"
       d="M 129,87.000001 V 91"
       id="path32954" />
    <path
       id="rect32956"
       style="fill:none;stroke:#000000;stroke-width:0.265"
       d="m 96,75 h 4 v 12 h -4 z" />
    <path
       style="fill:none;stroke:#000000;stroke-width:0.264583;stroke-linecap:butt;stroke-linejoin:miter;stroke-miterlimit:4;stroke-dasharray:0.264583, 0.264583;stroke-dashoffset:0;stroke-opacity:1"
       d="m 96,87 v 4"
       id="path32958" />
    <path
       id="path32960"
       d="m 100,87 v 4"
       style="fill:none;stroke:#000000;stroke-width:0.264583;stroke-linecap:butt;stroke-linejoin:miter;stroke-miterlimit:4;stroke-dasharray:0.264583, 0.264583;stroke-dashoffset:0;stroke-opacity:1" />
    <path
       id="rect32962"
       style="fill:none;stroke:#000000;stroke-width:0.265"
       d="m 96,91 h 4 v 4 h -4 z" />
    <path
       id="path32966"
       d="m 96,79 h 4"
       style="fill:none;stroke:#000000;stroke-width:0.264583px;stroke-linecap:butt;stroke-linejoin:miter;stroke-opacity:1" />
    <path
       id="path32968"
       d="m 134,75 v 20 l 4,-2 V 77 Z"
       style="fill:#fff6d5;fill-opacity:1;stroke:none;stroke-width:0.264583px;stroke-linecap:butt;stroke-linejoin:miter;stroke-opacity:1" />
    <path
       style="fill:#fff6d5;fill-opacity:1;stroke:none;stroke-width:0.264583px;stroke-linecap:butt;stroke-linejoin:miter;stroke-opacity:1"
       d="m 105,75 v 20 l 4,-2 V 77 Z"
       id="path32970" />
    <path
       style="fill:none;stroke:#000000;stroke-width:0.264583px;stroke-linecap:butt;stroke-linejoin:miter;stroke-opacity:1"
       d="m 96,83 h 4"
       id="path32972" />
    <path
       style="fill:none;stroke:#000000;stroke-width:0.265;stroke-linecap:butt;stroke-linejoin:miter;stroke-miterlimit:4;stroke-dasharray:none;stroke-opacity:1;marker-end:url(#marker1985-3)"
       d="m 129,77 h 5"
       id="path32974" />
    <path
       id="path32976"
       d="m 129,81 h 5"
       style="fill:none;stroke:#000000;stroke-width:0.265;stroke-linecap:butt;stroke-linejoin:miter;stroke-miterlimit:4;stroke-dasharray:none;stroke-opacity:1;marker-end:url(#marker8173)" />
    <path
       style="fill:none;stroke:#000000;stroke-width:0.265;stroke-linecap:butt;stroke-linejoin:miter;stroke-miterlimit:4;stroke-dasharray:none;stroke-opacity:1;marker-end:url(#marker8470)"
       d="m 129,85 h 5"
       id="path32978" />
    <path
       id="path32980"
       d="m 129,93 h 5"
       style="fill:none;stroke:#000000;stroke-width:0.265;stroke-linecap:butt;stroke-linejoin:miter;stroke-miterlimit:4;stroke-dasharray:none;stroke-opacity:1;marker-end:url(#marker8851)" />
    <path
       style="fill:none;stroke:#000000;stroke-width:0.265;stroke-linecap:butt;stroke-linejoin:miter;stroke-miterlimit:4;stroke-dasharray:none;stroke-opacity:1;marker-end:url(#marker9316)"
       d="m 100,77 h 5"
       id="path32982" />
    <path
       id="path32984"
       d="m 100,81 h 5"
       style="fill:none;stroke:#000000;stroke-width:0.265;stroke-linecap:butt;stroke-linejoin:miter;stroke-miterlimit:4;stroke-dasharray:none;stroke-opacity:1;marker-end:url(#marker9583)" />
    <path
       style="fill:none;stroke:#000000;stroke-width:0.265;stroke-linecap:butt;stroke-linejoin:miter;stroke-miterlimit:4;stroke-dasharray:none;stroke-opacity:1;marker-end:url(#marker9868)"
       d="m 100,85 h 5"
       id="path32986" />
    <path
       id="path32988"
       d="m 100,93 h 5"
       style="fill:none;stroke:#000000;stroke-width:0.265;stroke-linecap:butt;stroke-linejoin:miter;stroke-miterlimit:4;stroke-dasharray:none;stroke-opacity:1;marker-end:url(#marker10201)" />
    <path
       id="path32990"
       d="m 109,85 h 6"
       style="fill:none;stroke:#000000;stroke-width:0.265;stroke-linecap:butt;stroke-linejoin:miter;stroke-miterlimit:4;stroke-dasharray:none;stroke-opacity:1;marker-end:url(#marker33484)" />
    <path
       style="fill:none;stroke:#000000;stroke-width:0.265;stroke-linecap:butt;stroke-linejoin:miter;stroke-miterlimit:4;stroke-dasharray:none;stroke-opacity:1;marker-end:url(#marker43807)"
       d="m 138,85 h 6"
       id="path32992" />
    <path
       id="path32994"
       d="M 134,87 V 75 l 4,2 v 10"
       style="fill:none;stroke:#000000;stroke-width:0.264583px;stroke-linecap:butt;stroke-linejoin:miter;stroke-opacity:1" />
    <path
       style="fill:none;stroke:#000000;stroke-width:0.264583px;stroke-linecap:butt;stroke-linejoin:miter;stroke-opacity:1"
       d="M 105,87 V 75 l 4,2 v 10"
       id="path32996" />
    <path
       id="path32998"
       d="m 134,91 v 4 l 4,-2 v -2"
       style="fill:none;stroke:#000000;stroke-width:0.264583px;stroke-linecap:butt;stroke-linejoin:miter;stroke-opacity:1" />
    <path
       style="fill:none;stroke:#000000;stroke-width:0.264583px;stroke-linecap:butt;stroke-linejoin:miter;stroke-opacity:1"
       d="m 105,91 v 4 l 4,-2 v -2"
       id="path33000" />
    <path
       style="fill:none;stroke:#000000;stroke-width:0.264583;stroke-linecap:butt;stroke-linejoin:miter;stroke-miterlimit:4;stroke-dasharray:0.264583, 0.264583;stroke-dashoffset:0;stroke-opacity:1"
       d="m 134,86.999999 v 3.999999"
       id="path33002" />
    <path
       id="path33004"
       d="m 138,87 v 3.999999"
       style="fill:none;stroke:#000000;stroke-width:0.264583;stroke-linecap:butt;stroke-linejoin:miter;stroke-miterlimit:4;stroke-dasharray:0.264583, 0.264583;stroke-dashoffset:0;stroke-opacity:1" />
    <path
       id="path33006"
       d="m 105,86.999999 v 3.999999"
       style="fill:none;stroke:#000000;stroke-width:0.264583;stroke-linecap:butt;stroke-linejoin:miter;stroke-miterlimit:4;stroke-dasharray:0.264583, 0.264583;stroke-dashoffset:0;stroke-opacity:1" />
    <path
       style="fill:none;stroke:#000000;stroke-width:0.264583;stroke-linecap:butt;stroke-linejoin:miter;stroke-miterlimit:4;stroke-dasharray:0.264583, 0.264583;stroke-dashoffset:0;stroke-opacity:1"
       d="m 109,87 v 3.999999"
       id="path33008" />
    <path
       style="fill:none;stroke:#000000;stroke-width:0.529167;stroke-linecap:butt;stroke-linejoin:miter;stroke-miterlimit:4;stroke-dasharray:none;stroke-opacity:1;marker-end:url(#Arrow1Send)"
       d="m 106,99 1,-1 v -3"
       id="path33016" />
    <path
       id="path33018"
       d="M 90.000006,99 H 136.00001"
       style="fill:none;stroke:#000000;stroke-width:0.79375;stroke-linecap:butt;stroke-linejoin:miter;stroke-miterlimit:4;stroke-dasharray:none;stroke-opacity:1" />
    <g
       aria-label="A6..1"
       id="text33022"
       style="font-size:2.82222px;line-height:1.25;font-family:Iwona;-inkscape-font-specification:Iwona;text-align:end;letter-spacing:0px;word-spacing:0px;text-anchor:end;stroke-width:0.264583">
      <path
         d="M 84.800548,100 84.083705,98.024446 H 83.838171 L 83.107216,100 h 0.138289 l 0.256822,-0.691444 h 0.801511 L 84.555015,100 Z M 84.25586,99.178734 h -0.705555 l 0.3556,-0.965199 z"
         id="path509" />
      <path
         d="m 86.169322,99.365 c 0,-0.406399 -0.160866,-0.663221 -0.539044,-0.663221 -0.163689,0 -0.316089,0.0762 -0.412044,0.206022 0,-0.369711 0.09313,-0.764822 0.412044,-0.764822 0.143933,0 0.285044,0.04798 0.397933,0.138289 v -0.118533 c -0.112889,-0.09031 -0.254,-0.138289 -0.397933,-0.138289 -0.443088,0 -0.660399,0.502355 -0.660399,1.001888 0,0.699911 0.180622,1.001886 0.601132,1.001886 0.358422,0 0.598311,-0.265286 0.598311,-0.66322 z m -0.248355,0 c 0,0.327378 -0.141111,0.544689 -0.349956,0.544689 -0.39511,0 -0.352777,-0.426155 -0.352777,-0.883355 0.09596,-0.129822 0.248355,-0.206022 0.412044,-0.206022 0.225778,0 0.290689,0.282222 0.290689,0.544688 z"
         id="path511" />
      <path
         d="m 86.750698,99.861711 c 0,-0.0762 -0.06209,-0.138289 -0.138289,-0.138289 -0.0762,0 -0.138288,0.06209 -0.138288,0.138289 0,0.0762 0.06209,0.138289 0.138288,0.138289 0.0762,0 0.138289,-0.06209 0.138289,-0.138289 z"
         id="path513" />
      <path
         d="m 87.35465,99.861711 c 0,-0.0762 -0.06209,-0.138289 -0.138289,-0.138289 -0.0762,0 -0.138288,0.06209 -0.138288,0.138289 0,0.0762 0.06209,0.138289 0.138288,0.138289 0.0762,0 0.138289,-0.06209 0.138289,-0.138289 z"
         id="path515" />
      <path
         d="m 88.449668,100 v -1.947332 h -0.163689 c -0.155222,0.1778 -0.338666,0.3302 -0.541866,0.448733 v 0.118533 c 0.172155,-0.08184 0.333022,-0.177799 0.485422,-0.293511 V 100 Z"
         id="path517" />
    </g>
    <g
       aria-label="A5..1"
       id="text33026"
       style="font-size:2.82222px;line-height:1.25;font-family:Iwona;-inkscape-font-specification:Iwona;letter-spacing:0px;word-spacing:0px;stroke-width:0.264583">
      <path
         d="m 109.72155,98 -0.71684,-1.975554 h -0.24553 L 108.02822,98 h 0.13829 l 0.25682,-0.691444 h 0.80151 L 109.47602,98 Z m -0.54468,-0.821266 h -0.70556 l 0.3556,-0.965199 z"
         id="path520" />
      <path
         d="m 111.09033,97.365 c 0,-0.397933 -0.23989,-0.663221 -0.59831,-0.663221 -0.16369,0 -0.31609,0.06209 -0.43462,0.166511 l 0.0282,-0.640644 h 0.94826 v -0.174978 h -1.05833 l -0.0423,0.973666 0.11853,0.0056 c 0.10725,-0.132645 0.26811,-0.211667 0.44027,-0.211667 0.20884,0 0.34995,0.217311 0.34995,0.544688 0,0.327378 -0.14111,0.544689 -0.34995,0.544689 -0.21731,0 -0.42898,-0.07056 -0.60114,-0.2032 v 0.118533 c 0.17216,0.132645 0.38383,0.2032 0.60114,0.2032 0.35842,0 0.59831,-0.265288 0.59831,-0.663222 z"
         id="path522" />
      <path
         d="m 111.6717,97.861711 c 0,-0.0762 -0.0621,-0.138289 -0.13828,-0.138289 -0.0762,0 -0.13829,0.06209 -0.13829,0.138289 0,0.0762 0.0621,0.138289 0.13829,0.138289 0.0762,0 0.13828,-0.06209 0.13828,-0.138289 z"
         id="path524" />
      <path
         d="m 112.27566,97.861711 c 0,-0.0762 -0.0621,-0.138289 -0.13829,-0.138289 -0.0762,0 -0.13829,0.06209 -0.13829,0.138289 0,0.0762 0.0621,0.138289 0.13829,0.138289 0.0762,0 0.13829,-0.06209 0.13829,-0.138289 z"
         id="path526" />
      <path
         d="m 113.37067,98 v -1.947332 h -0.16369 c -0.15522,0.1778 -0.33866,0.3302 -0.54186,0.448733 v 0.118533 c 0.17215,-0.08184 0.33302,-0.177799 0.48542,-0.293511 V 98 Z"
         id="path528" />
    </g>
    <g
       aria-label="(A6 = 1)"
       id="text33030"
       style="font-size:2.82222px;line-height:1.25;font-family:Iwona;-inkscape-font-specification:Iwona;letter-spacing:0px;word-spacing:0px;stroke-width:0.264583">
      <path
         d="m 81.728133,103.64911 c -0.206022,-0.4572 -0.282222,-0.80998 -0.282222,-1.31233 0,-0.50236 0.0762,-0.85513 0.282222,-1.31233 H 81.6096 c -0.2794,0.43462 -0.383822,0.79586 -0.383822,1.31233 0,0.51646 0.104422,0.87771 0.383822,1.31233 z"
         id="path531" />
      <path
         d="M 83.590794,103 82.87395,101.02445 H 82.628417 L 81.897462,103 h 0.138289 l 0.256822,-0.69144 h 0.801511 L 83.345261,103 Z m -0.544688,-0.82127 h -0.705555 l 0.355599,-0.9652 z"
         id="path533" />
      <path
         d="m 84.959568,102.365 c 0,-0.4064 -0.160867,-0.66322 -0.539044,-0.66322 -0.163689,0 -0.316089,0.0762 -0.412044,0.20602 0,-0.36971 0.09313,-0.76482 0.412044,-0.76482 0.143933,0 0.285044,0.048 0.397933,0.13829 v -0.11854 c -0.112889,-0.0903 -0.254,-0.13828 -0.397933,-0.13828 -0.443089,0 -0.6604,0.50235 -0.6604,1.00188 0,0.69991 0.180622,1.00189 0.601133,1.00189 0.358422,0 0.598311,-0.26529 0.598311,-0.66322 z m -0.248356,0 c 0,0.32738 -0.141111,0.54469 -0.349955,0.54469 -0.395111,0 -0.352777,-0.42616 -0.352777,-0.88336 0.09595,-0.12982 0.248355,-0.20602 0.412044,-0.20602 0.225777,0 0.290688,0.28222 0.290688,0.54469 z"
         id="path535" />
      <path
         d="m 88.024493,102.08278 v -0.14111 h -1.772354 v 0.14111 z m 0,0.56444 v -0.14111 h -1.772354 v 0.14111 z"
         id="path537" />
      <path
         d="m 90.107286,103 v -1.94733 h -0.163688 c -0.155222,0.1778 -0.338667,0.3302 -0.541867,0.44873 v 0.11853 c 0.172156,-0.0818 0.333022,-0.1778 0.485422,-0.29351 V 103 Z"
         id="path539" />
      <path
         d="m 91.301084,102.33678 c 0,-0.51647 -0.104422,-0.87771 -0.383822,-1.31233 h -0.118533 c 0.206022,0.4572 0.282222,0.80997 0.282222,1.31233 0,0.50235 -0.0762,0.85513 -0.282222,1.31233 h 0.118533 c 0.2794,-0.43462 0.383822,-0.79587 0.383822,-1.31233 z"
         id="path541" />
    </g>
    <g
       aria-label="O5"
       id="text33034"
       style="font-size:2.82222px;line-height:1.25;font-family:Iwona;-inkscape-font-specification:Iwona;letter-spacing:0px;word-spacing:0px;stroke-width:0.264583">
      <path
         d="m 146.93322,85.012223 c 0,-0.598311 -0.31044,-1.015999 -0.88053,-1.015999 -0.57291,0 -0.88336,0.417688 -0.88336,1.015999 0,0.598311 0.31045,1.015999 0.88336,1.015999 0.57009,0 0.88053,-0.417688 0.88053,-1.015999 z m -0.27658,0 c 0,0.493888 -0.16369,0.886177 -0.60395,0.886177 -0.44309,0 -0.60678,-0.392289 -0.60678,-0.886177 0,-0.493889 0.16369,-0.886177 0.60678,-0.886177 0.44026,0 0.60395,0.392288 0.60395,0.886177 z"
         id="path544" />
      <path
         d="m 148.44311,85.365 c 0,-0.397933 -0.23989,-0.663221 -0.59832,-0.663221 -0.16368,0 -0.31608,0.06209 -0.43462,0.166511 l 0.0282,-0.640644 h 0.94826 v -0.174978 h -1.05833 l -0.0423,0.973666 0.11853,0.0056 c 0.10724,-0.132645 0.26811,-0.211667 0.44026,-0.211667 0.20885,0 0.34996,0.217311 0.34996,0.544688 0,0.327378 -0.14111,0.544689 -0.34996,0.544689 -0.21731,0 -0.42897,-0.07056 -0.60113,-0.2032 v 0.118533 c 0.17216,0.132645 0.38382,0.2032 0.60113,0.2032 0.35843,0 0.59832,-0.265288 0.59832,-0.663222 z"
         id="path546" />
    </g>
    <g
       aria-label="O6"
       id="text33038"
       style="font-size:2.82222px;line-height:1.25;font-family:Iwona;-inkscape-font-specification:Iwona;letter-spacing:0px;word-spacing:0px;stroke-width:0.264583">
      <path
         d="m 117.93322,85.012223 c 0,-0.598311 -0.31044,-1.015999 -0.88053,-1.015999 -0.57291,0 -0.88336,0.417688 -0.88336,1.015999 0,0.598311 0.31045,1.015999 0.88336,1.015999 0.57009,0 0.88053,-0.417688 0.88053,-1.015999 z m -0.27658,0 c 0,0.493888 -0.16369,0.886177 -0.60395,0.886177 -0.44309,0 -0.60678,-0.392289 -0.60678,-0.886177 0,-0.493889 0.16369,-0.886177 0.60678,-0.886177 0.44026,0 0.60395,0.392288 0.60395,0.886177 z"
         id="path549" />
      <path
         d="m 119.44311,85.365 c 0,-0.406399 -0.16087,-0.663221 -0.53905,-0.663221 -0.16369,0 -0.31609,0.0762 -0.41204,0.206022 0,-0.369711 0.0931,-0.764822 0.41204,-0.764822 0.14393,0 0.28505,0.04798 0.39793,0.138289 v -0.118533 c -0.11288,-0.09031 -0.254,-0.138289 -0.39793,-0.138289 -0.44309,0 -0.6604,0.502355 -0.6604,1.001888 0,0.699911 0.18062,1.001888 0.60113,1.001888 0.35843,0 0.59832,-0.265288 0.59832,-0.663222 z m -0.24836,0 c 0,0.327378 -0.14111,0.544689 -0.34996,0.544689 -0.39511,0 -0.35277,-0.426155 -0.35277,-0.883355 0.096,-0.129822 0.24835,-0.206022 0.41204,-0.206022 0.22578,0 0.29069,0.282222 0.29069,0.544688 z"
         id="path551" />
    </g>
    <g
       aria-label="0"
       id="text33042"
       style="font-size:2.11667px;line-height:1.25;font-family:Iwona;-inkscape-font-specification:Iwona;letter-spacing:0px;word-spacing:0px;stroke-width:0.264583">
      <path
         d="m 135.52023,77.000004 c 0,-0.501651 -0.15451,-0.751418 -0.46355,-0.751418 -0.30903,0 -0.46355,0.249767 -0.46355,0.751418 0,0.501651 0.15452,0.751418 0.46355,0.751418 0.30904,0 0.46355,-0.249767 0.46355,-0.751418 z m -0.18626,0 c 0,0.442384 -0.0931,0.662518 -0.27729,0.662518 -0.18415,0 -0.27728,-0.220134 -0.27728,-0.662518 0,-0.442384 0.0931,-0.662518 0.27728,-0.662518 0.18415,0 0.27729,0.220134 0.27729,0.662518 z"
         id="path554" />
    </g>
    <g
       aria-label="1"
       id="text33046"
       style="font-size:2.11667px;line-height:1.25;font-family:Iwona;-inkscape-font-specification:Iwona;letter-spacing:0px;word-spacing:0px;stroke-width:0.264583">
      <path
         d="m 135.1985,81.730247 v -1.460502 h -0.12277 c -0.11641,0.13335 -0.254,0.247651 -0.4064,0.336551 v 0.0889 c 0.12912,-0.06138 0.24977,-0.13335 0.36407,-0.220134 v 1.255185 z"
         id="path557" />
    </g>
    <g
       aria-label="2"
       id="text33050"
       style="font-size:2.11667px;line-height:1.25;font-family:Iwona;-inkscape-font-specification:Iwona;letter-spacing:0px;word-spacing:0px;stroke-width:0.264583">
      <path
         d="m 135.50542,85.740837 v -0.131233 h -0.74719 l 0.38947,-0.385234 c 0.17357,-0.173567 0.33655,-0.376768 0.33655,-0.622301 0,-0.207434 -0.20532,-0.342901 -0.42757,-0.342901 -0.16721,0 -0.32596,0.0762 -0.42968,0.205317 v 0.0889 c 0.10795,-0.124883 0.26458,-0.19685 0.42968,-0.19685 0.14182,0 0.26247,0.105833 0.26247,0.245534 0,0.20955 -0.0974,0.404284 -0.2413,0.554567 l -0.47202,0.484718 v 0.09948 z"
         id="path560" />
    </g>
    <g
       aria-label="31"
       id="text33054"
       style="font-size:2.11667px;line-height:1.25;font-family:Iwona;-inkscape-font-specification:Iwona;letter-spacing:0px;word-spacing:0px;stroke-width:0.264583">
      <path
         d="m 135.50542,93.32808 c 0,-0.186267 -0.13124,-0.347134 -0.31327,-0.402167 0.16087,-0.04657 0.26035,-0.167217 0.26035,-0.328084 0,-0.20955 -0.16933,-0.34925 -0.42333,-0.34925 -0.13759,0 -0.27094,0.04657 -0.37889,0.131233 v 0.0889 c 0.10795,-0.08467 0.2413,-0.131233 0.37889,-0.131233 0.15451,0 0.25823,0.103717 0.25823,0.26035 0,0.251884 -0.11642,0.317501 -0.381,0.317501 v 0.07832 c 0.28575,0 0.41275,0.06773 0.41275,0.334434 0,0.18415 -0.11853,0.334434 -0.26247,0.334434 -0.16086,0 -0.3175,-0.04657 -0.45085,-0.131233 v 0.0889 c 0.13335,0.08467 0.28999,0.131233 0.45085,0.131233 0.24554,0 0.44874,-0.1905 0.44874,-0.423334 z"
         id="path563" />
      <path
         d="m 136.30975,93.730247 v -1.460502 h -0.12276 c -0.11642,0.13335 -0.25401,0.247651 -0.40641,0.336551 v 0.0889 c 0.12912,-0.06138 0.24977,-0.13335 0.36407,-0.220134 v 1.255185 z"
         id="path565" />
    </g>
    <g
       aria-label="0"
       id="text33058"
       style="font-size:2.11667px;line-height:1.25;font-family:Iwona;-inkscape-font-specification:Iwona;letter-spacing:0px;word-spacing:0px;stroke-width:0.264583">
      <path
         d="m 106.52023,76.999996 c 0,-0.50165 -0.15451,-0.751417 -0.46355,-0.751417 -0.30903,0 -0.46355,0.249767 -0.46355,0.751417 0,0.501651 0.15452,0.751418 0.46355,0.751418 0.30904,0 0.46355,-0.249767 0.46355,-0.751418 z m -0.18626,0 c 0,0.442384 -0.0931,0.662518 -0.27729,0.662518 -0.18415,0 -0.27728,-0.220134 -0.27728,-0.662518 0,-0.442384 0.0931,-0.662517 0.27728,-0.662517 0.18415,0 0.27729,0.220133 0.27729,0.662517 z"
         id="path568" />
    </g>
    <g
       aria-label="1"
       id="text33062"
       style="font-size:2.11667px;line-height:1.25;font-family:Iwona;-inkscape-font-specification:Iwona;letter-spacing:0px;word-spacing:0px;stroke-width:0.264583">
      <path
         d="m 106.1985,81.730255 v -1.460502 h -0.12277 c -0.11641,0.13335 -0.254,0.24765 -0.4064,0.33655 v 0.0889 c 0.12912,-0.06138 0.24977,-0.133351 0.36407,-0.220134 v 1.255185 z"
         id="path571" />
    </g>
    <g
       aria-label="2"
       id="text33066"
       style="font-size:2.11667px;line-height:1.25;font-family:Iwona;-inkscape-font-specification:Iwona;letter-spacing:0px;word-spacing:0px;stroke-width:0.264583">
      <path
         d="m 106.50542,85.740837 v -0.131233 h -0.74719 l 0.38947,-0.385234 c 0.17357,-0.173567 0.33655,-0.376768 0.33655,-0.622301 0,-0.207434 -0.20532,-0.342901 -0.42757,-0.342901 -0.16721,0 -0.32596,0.0762 -0.42968,0.205317 v 0.0889 c 0.10795,-0.124883 0.26458,-0.19685 0.42968,-0.19685 0.14182,0 0.26247,0.105833 0.26247,0.245534 0,0.20955 -0.0974,0.404284 -0.2413,0.554567 l -0.47202,0.484718 v 0.09948 z"
         id="path574" />
    </g>
    <g
       aria-label="31"
       id="text33070"
       style="font-size:2.11667px;line-height:1.25;font-family:Iwona;-inkscape-font-specification:Iwona;letter-spacing:0px;word-spacing:0px;stroke-width:0.264583">
      <path
         d="m 106.50542,93.328095 c 0,-0.186266 -0.13124,-0.347133 -0.31327,-0.402167 0.16087,-0.04657 0.26035,-0.167217 0.26035,-0.328084 0,-0.20955 -0.16933,-0.34925 -0.42333,-0.34925 -0.13759,0 -0.27094,0.04657 -0.37889,0.131233 v 0.0889 c 0.10795,-0.08467 0.2413,-0.131233 0.37889,-0.131233 0.15451,0 0.25823,0.103717 0.25823,0.26035 0,0.251884 -0.11642,0.317501 -0.381,0.317501 v 0.07832 c 0.28575,0 0.41275,0.06773 0.41275,0.334433 0,0.184151 -0.11853,0.334434 -0.26247,0.334434 -0.16086,0 -0.3175,-0.04657 -0.45085,-0.131233 v 0.0889 c 0.13335,0.08467 0.28999,0.131233 0.45085,0.131233 0.24554,0 0.44874,-0.1905 0.44874,-0.423334 z"
         id="path577" />
      <path
         d="m 107.30975,93.730263 v -1.460502 h -0.12276 c -0.11642,0.13335 -0.25401,0.24765 -0.40641,0.33655 v 0.0889 c 0.12912,-0.06138 0.24977,-0.13335 0.36407,-0.220133 v 1.255185 z"
         id="path579" />
    </g>
    <g
       aria-label="RAM"
       id="text33074"
       style="font-size:2.82222px;line-height:1.25;font-family:Iwona;-inkscape-font-specification:Iwona;text-align:center;letter-spacing:0px;word-spacing:0px;text-anchor:middle;stroke-width:0.264583">
      <path
         d="m 96.713817,74 -0.601133,-0.894644 c 0.307622,-0.05927 0.519289,-0.2286 0.519289,-0.544688 0,-0.397933 -0.341489,-0.564444 -0.784577,-0.564444 -0.158045,0 -0.316089,0.0085 -0.471311,0.02822 H 95.150307 V 74 h 0.231422 v -0.917222 c 0.1524,0.02822 0.310445,0.04516 0.465667,0.04516 L 96.43724,74 Z m -0.358422,-1.439332 c 0,0.256822 -0.239888,0.437444 -0.507999,0.437444 -0.155222,0 -0.313267,-0.01693 -0.465667,-0.04516 v -0.798688 c 0.155223,-0.01976 0.310445,-0.02822 0.465667,-0.02822 0.268111,0 0.507999,0.180622 0.507999,0.434622 z"
         id="path582" />
      <path
         d="M 98.463592,74 97.746748,72.024446 H 97.501215 L 96.77026,74 h 0.138289 l 0.256822,-0.691444 h 0.80151 L 98.218059,74 Z m -0.544689,-0.821266 h -0.705555 l 0.3556,-0.965199 z"
         id="path584" />
      <path
         d="m 100.84836,74 -0.11288,-1.975554 h -0.18627 l -0.793045,1.667932 -0.795866,-1.667932 H 98.774033 L 98.661144,74 h 0.129822 L 98.881277,72.399801 99.646099,74 h 0.104422 L 100.52381,72.380046 100.61694,74 Z"
         id="path586" />
    </g>
    <path
       style="fill:none;stroke:#ff7f2a;stroke-width:0.529167;stroke-linecap:butt;stroke-linejoin:miter;stroke-miterlimit:4;stroke-dasharray:none;stroke-opacity:1;marker-end:url(#marker40233)"
       d="m 65,55 c 0,0 0,15 -20,20"
       id="path35828" />
    <path
       id="path38678"
       d="m 71,55 c 0,0 0,15 20,20"
       style="fill:none;stroke:#ff7f2a;stroke-width:0.529167;stroke-linecap:butt;stroke-linejoin:miter;stroke-miterlimit:4;stroke-dasharray:none;stroke-opacity:1;marker-end:url(#marker29810)" />
    <g
       aria-label="(1)"
       id="text44765"
       style="font-size:2.82222px;line-height:1.25;font-family:Iwona;-inkscape-font-specification:Iwona;letter-spacing:0px;word-spacing:0px;fill:#d45500;stroke-width:0.264583">
      <path
         d="m 53.728133,68.649111 c -0.206022,-0.4572 -0.282222,-0.809978 -0.282222,-1.312333 0,-0.502355 0.0762,-0.855132 0.282222,-1.312332 H 53.6096 c -0.2794,0.434622 -0.383822,0.795866 -0.383822,1.312332 0,0.516467 0.104422,0.877711 0.383822,1.312333 z"
         id="path589" />
      <path
         d="m 54.800573,68 v -1.947332 h -0.163689 c -0.155222,0.1778 -0.338667,0.3302 -0.541866,0.448733 v 0.118533 c 0.172155,-0.08184 0.333022,-0.177799 0.485421,-0.293511 V 68 Z"
         id="path591" />
      <path
         d="m 55.994371,67.336778 c 0,-0.516466 -0.104422,-0.87771 -0.383822,-1.312332 h -0.118534 c 0.206023,0.4572 0.282222,0.809977 0.282222,1.312332 0,0.502355 -0.0762,0.855133 -0.282222,1.312333 h 0.118534 c 0.2794,-0.434622 0.383822,-0.795866 0.383822,-1.312333 z"
         id="path593" />
    </g>
    <g
       aria-label="(2)"
       id="text44781"
       style="font-size:2.82222px;line-height:1.25;font-family:Iwona;-inkscape-font-specification:Iwona;letter-spacing:0px;word-spacing:0px;fill:#d45500;stroke-width:0.264583">
      <path
         d="m 80.728133,68.649111 c -0.206022,-0.4572 -0.282222,-0.809978 -0.282222,-1.312333 0,-0.502355 0.0762,-0.855132 0.282222,-1.312332 H 80.6096 c -0.2794,0.434622 -0.383822,0.795866 -0.383822,1.312332 0,0.516467 0.104422,0.877711 0.383822,1.312333 z"
         id="path596" />
      <path
         d="m 82.209795,68 v -0.174978 h -0.996244 l 0.519288,-0.513644 c 0.231422,-0.231422 0.448733,-0.502355 0.448733,-0.829732 0,-0.276578 -0.273755,-0.4572 -0.570088,-0.4572 -0.222956,0 -0.434622,0.1016 -0.572911,0.273755 v 0.118534 c 0.143933,-0.166511 0.352778,-0.262467 0.572911,-0.262467 0.189089,0 0.349955,0.141111 0.349955,0.327378 0,0.279399 -0.129822,0.539044 -0.321733,0.739421 l -0.629355,0.646289 V 68 Z"
         id="path598" />
      <path
         d="m 82.994371,67.336778 c 0,-0.516466 -0.104422,-0.87771 -0.383822,-1.312332 h -0.118534 c 0.206023,0.4572 0.282222,0.809977 0.282222,1.312332 0,0.502355 -0.0762,0.855133 -0.282222,1.312333 h 0.118534 c 0.2794,-0.434622 0.383822,-0.795866 0.383822,-1.312333 z"
         id="path600" />
    </g>
    <path
       id="rect60933"
       style="fill:none;stroke:#000000;stroke-width:0.265"
       d="m 125,91 h 4 v 4 h -4 z" />
    <g
       aria-label="RAM"
       id="text60937"
       style="font-size:2.82222px;line-height:1.25;font-family:Iwona;-inkscape-font-specification:Iwona;text-align:center;letter-spacing:0px;word-spacing:0px;text-anchor:middle;stroke-width:0.264583">
      <path
         d="m 125.75682,74 -0.60114,-0.894644 c 0.30763,-0.05927 0.51929,-0.2286 0.51929,-0.544688 0,-0.397933 -0.34149,-0.564444 -0.78458,-0.564444 -0.15804,0 -0.31608,0.0085 -0.47131,0.02822 h -0.22577 V 74 h 0.23142 v -0.917222 c 0.1524,0.02822 0.31044,0.04516 0.46566,0.04516 L 125.48024,74 Z m -0.35843,-1.439332 c 0,0.256822 -0.23988,0.437444 -0.508,0.437444 -0.15522,0 -0.31326,-0.01693 -0.46566,-0.04516 v -0.798688 c 0.15522,-0.01976 0.31044,-0.02822 0.46566,-0.02822 0.26812,0 0.508,0.180622 0.508,0.434622 z"
         id="path604" />
      <path
         d="m 127.50659,74 -0.71684,-1.975554 h -0.24554 L 125.81326,74 h 0.13829 l 0.25682,-0.691444 h 0.80151 L 127.26106,74 Z m -0.54469,-0.821266 h -0.70555 l 0.3556,-0.965199 z"
         id="path606" />
      <path
         d="m 129.89136,74 -0.11288,-1.975554 h -0.18627 l -0.79305,1.667932 -0.79586,-1.667932 h -0.18627 L 127.70414,74 h 0.12983 l 0.0903,-1.600199 L 128.6891,74 h 0.10442 L 129.56681,72.380046 129.65994,74 Z"
         id="path608" />
    </g>
    <path
       id="path60939"
       d="m 135,99 1,-1 v -3"
       style="fill:none;stroke:#000000;stroke-width:0.529167;stroke-linecap:butt;stroke-linejoin:miter;stroke-miterlimit:4;stroke-dasharray:none;stroke-opacity:1;marker-end:url(#marker60947)" />
    <g
       aria-label="A5..1"
       id="text60943"
       style="font-size:2.82222px;line-height:1.25;font-family:Iwona;-inkscape-font-specification:Iwona;letter-spacing:0px;word-spacing:0px;stroke-width:0.264583">
      <path
         d="m 138.72155,98 -0.71684,-1.975554 h -0.24553 L 137.02822,98 h 0.13829 l 0.25682,-0.691444 h 0.80151 L 138.47602,98 Z m -0.54468,-0.821266 h -0.70556 l 0.3556,-0.965199 z"
         id="path611" />
      <path
         d="m 140.09033,97.365 c 0,-0.397933 -0.23989,-0.663221 -0.59831,-0.663221 -0.16369,0 -0.31609,0.06209 -0.43462,0.166511 l 0.0282,-0.640644 h 0.94826 v -0.174978 h -1.05833 l -0.0423,0.973666 0.11853,0.0056 c 0.10725,-0.132645 0.26811,-0.211667 0.44027,-0.211667 0.20884,0 0.34995,0.217311 0.34995,0.544688 0,0.327378 -0.14111,0.544689 -0.34995,0.544689 -0.21731,0 -0.42898,-0.07056 -0.60114,-0.2032 v 0.118533 c 0.17216,0.132645 0.38383,0.2032 0.60114,0.2032 0.35842,0 0.59831,-0.265288 0.59831,-0.663222 z"
         id="path613" />
      <path
         d="m 140.6717,97.861711 c 0,-0.0762 -0.0621,-0.138289 -0.13828,-0.138289 -0.0762,0 -0.13829,0.06209 -0.13829,0.138289 0,0.0762 0.0621,0.138289 0.13829,0.138289 0.0762,0 0.13828,-0.06209 0.13828,-0.138289 z"
         id="path615" />
      <path
         d="m 141.27566,97.861711 c 0,-0.0762 -0.0621,-0.138289 -0.13829,-0.138289 -0.0762,0 -0.13829,0.06209 -0.13829,0.138289 0,0.0762 0.0621,0.138289 0.13829,0.138289 0.0762,0 0.13829,-0.06209 0.13829,-0.138289 z"
         id="path617" />
      <path
         d="m 142.37067,98 v -1.947332 h -0.16369 c -0.15522,0.1778 -0.33866,0.3302 -0.54186,0.448733 v 0.118533 c 0.17215,-0.08184 0.33302,-0.177799 0.48542,-0.293511 V 98 Z"
         id="path619" />
    </g>
  </g>
</svg>
