<?xml version="1.0" encoding="UTF-8" standalone="no"?>
<!-- Created with Inkscape (http://www.inkscape.org/) -->

<svg
   width="171.30521mm"
   height="55.843754mm"
   id="svg2"
   version="1.0"
   xmlns="http://www.w3.org/2000/svg"
   xmlns:svg="http://www.w3.org/2000/svg"
   xmlns:rdf="http://www.w3.org/1999/02/22-rdf-syntax-ns#"
   xmlns:cc="http://creativecommons.org/ns#"
   xmlns:dc="http://purl.org/dc/elements/1.1/">
  <defs
     id="defs4">
    <marker
       orient="auto"
       refY="0"
       refX="0"
       id="DotL"
       style="overflow:visible">
      <path
         id="path3955"
         d="m -2.5,-1 c 0,2.76 -2.24,5 -5,5 -2.76,0 -5,-2.24 -5,-5 0,-2.76 2.24,-5 5,-5 2.76,0 5,2.24 5,5 z"
         style="fill-rule:evenodd;stroke:#000000;stroke-width:1.00000003pt"
         transform="matrix(0.8,0,0,0.8,5.92,0.8)" />
    </marker>
    <marker
       orient="auto"
       refY="0"
       refX="0"
       id="Arrow1Lend"
       style="overflow:visible">
      <path
         id="path5647"
         d="M 0,0 5,-5 -12.5,0 5,5 Z"
         style="fill-rule:evenodd;stroke:#000000;stroke-width:1.00000003pt;marker-start:none"
         transform="matrix(-0.8,0,0,-0.8,-10,0)" />
    </marker>
  </defs>
  <metadata
     id="metadata7">
    <rdf:RDF>
      <cc:Work
         rdf:about="">
        <dc:format>image/svg+xml</dc:format>
        <dc:type
           rdf:resource="http://purl.org/dc/dcmitype/StillImage" />
        <dc:title />
      </cc:Work>
    </rdf:RDF>
  </metadata>
  <g
     id="layer1"
     transform="translate(-163.16929,-19.074814)">
    <g
       aria-label=" "
       id="text4251"
       style="line-height:0%;font-family:Iwona;-inkscape-font-specification:Iwona;text-align:center;text-anchor:middle;stroke-width:1px" />
    <g
       transform="translate(-248.62204,-111.64791)"
       id="g2637">
      <path
         id="path2639"
         style="fill:#ffeeaa;stroke:#000000;stroke-width:1.06299"
         transform="translate(-118.70078,142.35661)"
         d="m 683.85825,95.669266 a 72.637794,35.433075 0 0 1 -72.63779,35.433074 72.637794,35.433075 0 0 1 -72.6378,-35.433074 72.637794,35.433075 0 0 1 72.6378,-35.433075 72.637794,35.433075 0 0 1 72.63779,35.433075 z" />
      <path
         id="path2641"
         d="M 423.42519,227.39596 H 561.61417"
         style="fill:none;stroke:#000000;stroke-width:1px;stroke-linecap:butt;stroke-linejoin:miter;stroke-opacity:1" />
      <g
         aria-label="Nom de l'état"
         transform="scale(0.9541662,1.0480354)"
         id="text2643"
         style="line-height:0%;font-family:Iwona;-inkscape-font-specification:Iwona;text-align:center;text-anchor:middle">
        <path
           d="m 488.78107,212.39587 v -9.1 h -0.598 v 7.644 l -6.266,-7.644 h -0.78 v 9.1 h 0.598 v -7.644 l 6.266,7.644 z"
           style="font-size:13px;line-height:1.25"
           id="path53" />
        <path
           d="m 495.82705,209.47087 c 0,-1.989 -0.884,-3.055 -2.509,-3.055 -1.638,0 -2.522,1.066 -2.522,3.055 0,1.989 0.884,3.055 2.522,3.055 1.625,0 2.509,-1.066 2.509,-3.055 z m -1.144,0 c 0,1.625 -0.481,2.509 -1.365,2.509 -0.897,0 -1.378,-0.884 -1.378,-2.509 0,-1.625 0.481,-2.509 1.378,-2.509 0.884,0 1.365,0.884 1.365,2.509 z"
           style="font-size:13px;line-height:1.25"
           id="path55" />
        <path
           d="m 504.68005,212.39587 v -4.225 c 0,-0.91 -0.533,-1.755 -1.378,-1.755 -0.728,0 -1.404,0.377 -1.794,0.988 -0.208,-0.572 -0.65,-0.988 -1.248,-0.988 -0.676,0 -1.222,0.468 -1.664,0.988 v -0.858 h -1.014 v 5.85 h 1.014 v -4.602 c 0.312,-0.403 0.702,-0.78 1.209,-0.78 0.533,0 0.819,0.572 0.819,1.157 v 4.225 h 1.014 v -4.225 c 0,-0.156 -0.013,-0.299 -0.039,-0.455 0.312,-0.403 0.741,-0.702 1.248,-0.702 0.533,0 0.819,0.572 0.819,1.157 v 4.225 z"
           style="font-size:13px;line-height:1.25"
           id="path57" />
        <path
           d="m 515.73,212.39587 v -9.1 h -1.014 v 3.471 c -0.507,-0.221 -1.053,-0.351 -1.599,-0.351 -1.625,0 -2.418,1.3 -2.418,3.055 0,1.729 0.65,3.055 2.223,3.055 0.663,0 1.274,-0.299 1.794,-0.715 v 0.585 z m -1.014,-1.131 c -0.39,0.39 -0.871,0.715 -1.43,0.715 -1.183,0 -1.443,-1.144 -1.443,-2.509 0,-1.222 0.377,-2.509 1.443,-2.509 0.494,0 0.988,0.13 1.43,0.351 z"
           style="font-size:13px;line-height:1.25"
           id="path59" />
        <path
           d="m 522.516,209.60087 v -0.13 c 0,-1.833 -1.001,-3.055 -2.509,-3.055 -1.521,0 -2.522,1.222 -2.522,3.055 0,1.833 1.001,3.055 2.522,3.055 0.65,0 1.287,-0.208 1.82,-0.585 v -0.546 c -0.611,0.39 -1.105,0.533 -1.82,0.533 -1.105,0 -1.378,-1.053 -1.378,-2.327 z m -1.144,-0.546 h -2.743 c 0,-1.04 0.442,-2.093 1.378,-2.093 0.923,0 1.365,1.053 1.365,2.093 z"
           style="font-size:13px;line-height:1.25"
           id="path61" />
        <path
           d="m 530.97896,211.94087 v -0.39 c -0.247,0.208 -0.533,0.377 -0.858,0.377 -0.481,0 -0.572,-0.598 -0.572,-1.157 v -7.475 h -1.014 v 7.475 c 0,0.871 0.338,1.755 1.105,1.755 0.494,0 0.962,-0.247 1.339,-0.585 z"
           style="font-size:13px;line-height:1.25"
           id="path63" />
        <path
           d="m 532.33093,206.33787 v -3.042 h -0.598 v 3.042 z"
           style="font-size:13px;line-height:1.25"
           id="path65" />
        <path
           d="m 538.57093,209.60087 v -0.13 c 0,-1.833 -1.001,-3.055 -2.509,-3.055 -1.521,0 -2.522,1.222 -2.522,3.055 0,1.833 1.001,3.055 2.522,3.055 0.65,0 1.287,-0.208 1.82,-0.585 v -0.546 c -0.611,0.39 -1.105,0.533 -1.82,0.533 -1.105,0 -1.378,-1.053 -1.378,-2.327 z m -1.144,-0.546 h -2.743 c 0,-1.04 0.442,-2.093 1.378,-2.093 0.923,0 1.365,1.053 1.365,2.093 z m 0.039,-5.759 h -1.17 c 0,0.871 -0.273,1.729 -0.78,2.431 h 0.546 c 0.689,-0.689 1.404,-1.456 1.404,-2.431 z"
           style="font-size:13px;line-height:1.25"
           id="path67" />
        <path
           d="m 543.01691,211.94087 v -0.39 c -0.208,0.208 -0.455,0.377 -0.754,0.377 -0.468,0 -0.494,-0.611 -0.494,-1.157 v -3.679 h 1.248 v -0.546 h -1.248 v -1.95 h -0.611 c 0,1.04 -0.598,2.015 -1.547,2.015 v 0.481 h 1.144 v 3.679 c 0,0.858 0.273,1.755 1.014,1.755 0.481,0 0.897,-0.26 1.248,-0.585 z"
           style="font-size:13px;line-height:1.25"
           id="path69" />
        <path
           d="m 549.02289,212.39587 v -3.64 c 0,-1.222 -0.754,-2.34 -1.885,-2.34 -0.832,0 -1.612,0.286 -2.314,0.728 v 0.403 c 0.585,-0.325 1.235,-0.533 1.911,-0.533 0.806,0 1.274,0.858 1.274,1.742 v 0.234 c -0.507,-0.221 -1.053,-0.351 -1.599,-0.351 -1.391,0 -2.418,0.637 -2.418,1.95 0,1.248 0.91,1.937 2.223,1.937 0.663,0 1.274,-0.299 1.794,-0.715 v 0.585 z m -1.014,-1.131 c -0.39,0.39 -0.871,0.715 -1.43,0.715 -0.871,0 -1.443,-0.533 -1.443,-1.391 0,-0.793 0.65,-1.404 1.443,-1.404 0.494,0 0.988,0.13 1.43,0.351 z"
           style="font-size:13px;line-height:1.25"
           id="path71" />
        <path
           d="m 553.85888,211.94087 v -0.39 c -0.208,0.208 -0.455,0.377 -0.754,0.377 -0.468,0 -0.494,-0.611 -0.494,-1.157 v -3.679 h 1.248 v -0.546 h -1.248 v -1.95 h -0.611 c 0,1.04 -0.598,2.015 -1.547,2.015 v 0.481 h 1.144 v 3.679 c 0,0.858 0.273,1.755 1.014,1.755 0.481,0 0.897,-0.26 1.248,-0.585 z"
           style="font-size:13px;line-height:1.25"
           id="path73" />
      </g>
      <g
         aria-label="Actions à effectuer
dans cet état"
         transform="scale(0.95416623,1.0480354)"
         id="text3443"
         style="line-height:0%;font-family:Iwona;-inkscape-font-specification:Iwona;text-align:center;text-anchor:middle">
        <path
           d="m 473.94812,232.69853 -3.302,-9.1 h -1.131 l -3.367,9.1 h 0.637 l 1.183,-3.185 h 3.692 l 1.157,3.185 z m -2.509,-3.783 h -3.25 l 1.638,-4.446 z"
           style="font-size:13px;line-height:1.25"
           id="path76" />
        <path
           d="m 479.3301,228.20053 v -0.546 c -0.416,-0.585 -1.092,-0.936 -1.82,-0.936 -1.625,0 -2.717,1.222 -2.717,3.055 0,1.833 1.092,3.055 2.717,3.055 0.676,0 1.313,-0.338 1.69,-0.897 v -0.546 c -0.442,0.663 -0.897,0.897 -1.69,0.897 -0.936,0 -1.573,-1.001 -1.573,-2.509 0,-1.508 0.637,-2.509 1.573,-2.509 0.806,0 1.352,0.286 1.82,0.936 z"
           style="font-size:13px;line-height:1.25"
           id="path78" />
        <path
           d="m 483.45109,232.24353 v -0.39 c -0.208,0.208 -0.455,0.377 -0.754,0.377 -0.468,0 -0.494,-0.611 -0.494,-1.157 v -3.679 h 1.248 v -0.546 h -1.248 v -1.95 h -0.611 c 0,1.04 -0.598,2.015 -1.547,2.015 v 0.481 h 1.144 v 3.679 c 0,0.858 0.273,1.755 1.014,1.755 0.481,0 0.897,-0.26 1.248,-0.585 z"
           style="font-size:13px;line-height:1.25"
           id="path80" />
        <path
           d="m 487.26007,232.24353 v -0.39 c -0.247,0.208 -0.533,0.377 -0.858,0.377 -0.481,0 -0.572,-0.598 -0.572,-1.157 v -4.225 h -1.014 v 4.225 c 0,0.871 0.338,1.755 1.105,1.755 0.494,0 0.962,-0.247 1.339,-0.585 z m -1.3,-7.423 c 0,-0.351 -0.286,-0.637 -0.637,-0.637 -0.351,0 -0.637,0.286 -0.637,0.637 0,0.351 0.286,0.637 0.637,0.637 0.351,0 0.637,-0.286 0.637,-0.637 z"
           style="font-size:13px;line-height:1.25"
           id="path82" />
        <path
           d="m 493.26606,229.77353 c 0,-1.989 -0.884,-3.055 -2.509,-3.055 -1.638,0 -2.522,1.066 -2.522,3.055 0,1.989 0.884,3.055 2.522,3.055 1.625,0 2.509,-1.066 2.509,-3.055 z m -1.144,0 c 0,1.625 -0.481,2.509 -1.365,2.509 -0.897,0 -1.378,-0.884 -1.378,-2.509 0,-1.625 0.481,-2.509 1.378,-2.509 0.884,0 1.365,0.884 1.365,2.509 z"
           style="font-size:13px;line-height:1.25"
           id="path84" />
        <path
           d="m 499.72705,232.69853 v -4.225 c 0,-0.949 -0.728,-1.755 -1.664,-1.755 -0.78,0 -1.469,0.442 -2.028,0.988 v -0.858 h -1.014 v 5.85 h 1.014 v -4.589 c 0.442,-0.442 0.988,-0.793 1.599,-0.793 0.611,0 1.079,0.533 1.079,1.157 v 4.225 z"
           style="font-size:13px;line-height:1.25"
           id="path86" />
        <path
           d="m 505.69403,231.03453 c 0,-1.027 -1.092,-1.56 -2.158,-1.82 -0.624,-0.156 -1.3,-0.416 -1.3,-1.027 0,-0.559 0.572,-0.923 1.196,-0.923 0.689,0 1.378,0.208 1.95,0.585 v -0.546 c -0.572,-0.377 -1.261,-0.585 -1.95,-0.585 -1.131,0 -2.171,0.689 -2.171,1.742 0,0.949 1.053,1.391 2.054,1.638 0.689,0.169 1.404,0.533 1.404,1.196 0,0.611 -0.624,0.988 -1.287,0.988 -0.806,0 -1.586,-0.195 -2.275,-0.585 v 0.546 c 0.689,0.39 1.469,0.585 2.275,0.585 1.17,0 2.262,-0.702 2.262,-1.794 z"
           style="font-size:13px;line-height:1.25"
           id="path88" />
        <path
           d="m 516.224,232.69853 v -3.64 c 0,-1.222 -0.754,-2.34 -1.885,-2.34 -0.832,0 -1.612,0.286 -2.314,0.728 v 0.403 c 0.585,-0.325 1.235,-0.533 1.911,-0.533 0.806,0 1.274,0.858 1.274,1.742 v 0.234 c -0.507,-0.221 -1.053,-0.351 -1.599,-0.351 -1.391,0 -2.418,0.637 -2.418,1.95 0,1.248 0.91,1.937 2.223,1.937 0.663,0 1.274,-0.299 1.794,-0.715 v 0.585 z m -1.014,-1.131 c -0.39,0.39 -0.871,0.715 -1.43,0.715 -0.871,0 -1.443,-0.533 -1.443,-1.391 0,-0.793 0.65,-1.404 1.443,-1.404 0.494,0 0.988,0.13 1.43,0.351 z m -0.728,-5.538 c -0.507,-0.702 -0.78,-1.56 -0.78,-2.431 h -1.17 c 0,0.975 0.715,1.742 1.404,2.431 z"
           style="font-size:13px;line-height:1.25"
           id="path90" />
        <path
           d="m 527.33896,229.90353 v -0.13 c 0,-1.833 -1.001,-3.055 -2.509,-3.055 -1.521,0 -2.522,1.222 -2.522,3.055 0,1.833 1.001,3.055 2.522,3.055 0.65,0 1.287,-0.208 1.82,-0.585 v -0.546 c -0.611,0.39 -1.105,0.533 -1.82,0.533 -1.105,0 -1.378,-1.053 -1.378,-2.327 z m -1.144,-0.546 h -2.743 c 0,-1.04 0.442,-2.093 1.378,-2.093 0.923,0 1.365,1.053 1.365,2.093 z"
           style="font-size:13px;line-height:1.25"
           id="path92" />
        <path
           d="m 534.67094,224.44353 v -0.403 c -0.39,-0.325 -0.858,-0.572 -1.365,-0.572 -0.754,0 -1.105,0.884 -1.105,1.755 v 1.625 h -2.158 v -1.625 c 0,-0.559 0.104,-1.157 0.585,-1.157 0.325,0 0.624,0.156 0.871,0.377 v -0.403 c -0.39,-0.325 -0.858,-0.572 -1.365,-0.572 -0.754,0 -1.105,0.884 -1.105,1.755 v 1.625 h -0.91 v 0.546 h 0.91 v 5.304 h 1.014 v -5.304 h 2.158 v 5.304 h 1.014 v -5.304 h 0.91 v -0.546 h -0.91 v -1.625 c 0,-0.559 0.104,-1.157 0.585,-1.157 0.325,0 0.624,0.156 0.871,0.377 z"
           style="font-size:13px;line-height:1.25"
           id="path94" />
        <path
           d="m 540.00092,229.90353 v -0.13 c 0,-1.833 -1.001,-3.055 -2.509,-3.055 -1.521,0 -2.522,1.222 -2.522,3.055 0,1.833 1.001,3.055 2.522,3.055 0.65,0 1.287,-0.208 1.82,-0.585 v -0.546 c -0.611,0.39 -1.105,0.533 -1.82,0.533 -1.105,0 -1.378,-1.053 -1.378,-2.327 z m -1.144,-0.546 h -2.743 c 0,-1.04 0.442,-2.093 1.378,-2.093 0.923,0 1.365,1.053 1.365,2.093 z"
           style="font-size:13px;line-height:1.25"
           id="path96" />
        <path
           d="m 545.9029,228.20053 v -0.546 c -0.416,-0.585 -1.092,-0.936 -1.82,-0.936 -1.625,0 -2.717,1.222 -2.717,3.055 0,1.833 1.092,3.055 2.717,3.055 0.676,0 1.313,-0.338 1.69,-0.897 v -0.546 c -0.442,0.663 -0.897,0.897 -1.69,0.897 -0.936,0 -1.573,-1.001 -1.573,-2.509 0,-1.508 0.637,-2.509 1.573,-2.509 0.806,0 1.352,0.286 1.82,0.936 z"
           style="font-size:13px;line-height:1.25"
           id="path98" />
        <path
           d="m 550.02389,232.24353 v -0.39 c -0.208,0.208 -0.455,0.377 -0.754,0.377 -0.468,0 -0.494,-0.611 -0.494,-1.157 v -3.679 h 1.248 v -0.546 h -1.248 v -1.95 h -0.611 c 0,1.04 -0.598,2.015 -1.547,2.015 v 0.481 h 1.144 v 3.679 c 0,0.858 0.273,1.755 1.014,1.755 0.481,0 0.897,-0.26 1.248,-0.585 z"
           style="font-size:13px;line-height:1.25"
           id="path100" />
        <path
           d="m 556.09487,232.69853 v -5.85 h -1.014 v 4.589 c -0.442,0.442 -0.988,0.793 -1.599,0.793 -0.611,0 -1.079,-0.533 -1.079,-1.157 v -4.225 h -1.014 v 4.225 c 0,0.949 0.728,1.755 1.664,1.755 0.78,0 1.469,-0.442 2.028,-0.988 v 0.858 z"
           style="font-size:13px;line-height:1.25"
           id="path102" />
        <path
           d="m 562.88085,229.90353 v -0.13 c 0,-1.833 -1.001,-3.055 -2.509,-3.055 -1.521,0 -2.522,1.222 -2.522,3.055 0,1.833 1.001,3.055 2.522,3.055 0.65,0 1.287,-0.208 1.82,-0.585 v -0.546 c -0.611,0.39 -1.105,0.533 -1.82,0.533 -1.105,0 -1.378,-1.053 -1.378,-2.327 z m -1.144,-0.546 h -2.743 c 0,-1.04 0.442,-2.093 1.378,-2.093 0.923,0 1.365,1.053 1.365,2.093 z"
           style="font-size:13px;line-height:1.25"
           id="path104" />
        <path
           d="m 567.80783,227.65453 v -0.806 c -0.143,-0.052 -0.299,-0.091 -0.442,-0.091 -0.728,0 -1.313,0.507 -1.781,1.066 v -0.975 h -1.014 v 5.85 h 1.014 v -4.329 c 0.39,-0.455 0.884,-0.845 1.482,-0.845 0.247,0 0.507,0.052 0.741,0.13 z"
           style="font-size:13px;line-height:1.25"
           id="path106" />
        <path
           d="m 486.79858,248.94853 v -9.1 h -1.014 v 3.471 c -0.507,-0.221 -1.053,-0.351 -1.599,-0.351 -1.625,0 -2.418,1.3 -2.418,3.055 0,1.729 0.65,3.055 2.223,3.055 0.663,0 1.274,-0.299 1.794,-0.715 v 0.585 z m -1.014,-1.131 c -0.39,0.39 -0.871,0.715 -1.43,0.715 -1.183,0 -1.443,-1.144 -1.443,-2.509 0,-1.222 0.377,-2.509 1.443,-2.509 0.494,0 0.988,0.13 1.43,0.351 z"
           style="font-size:13px;line-height:1.25"
           id="path108" />
        <path
           d="m 493.45457,248.94853 v -3.64 c 0,-1.222 -0.754,-2.34 -1.885,-2.34 -0.832,0 -1.612,0.286 -2.314,0.728 v 0.403 c 0.585,-0.325 1.235,-0.533 1.911,-0.533 0.806,0 1.274,0.858 1.274,1.742 v 0.234 c -0.507,-0.221 -1.053,-0.351 -1.599,-0.351 -1.391,0 -2.418,0.637 -2.418,1.95 0,1.248 0.91,1.937 2.223,1.937 0.663,0 1.274,-0.299 1.794,-0.715 v 0.585 z m -1.014,-1.131 c -0.39,0.39 -0.871,0.715 -1.43,0.715 -0.871,0 -1.443,-0.533 -1.443,-1.391 0,-0.793 0.65,-1.404 1.443,-1.404 0.494,0 0.988,0.13 1.43,0.351 z"
           style="font-size:13px;line-height:1.25"
           id="path110" />
        <path
           d="m 500.24056,248.94853 v -4.225 c 0,-0.949 -0.728,-1.755 -1.664,-1.755 -0.78,0 -1.469,0.442 -2.028,0.988 v -0.858 h -1.014 v 5.85 h 1.014 v -4.589 c 0.442,-0.442 0.988,-0.793 1.599,-0.793 0.611,0 1.079,0.533 1.079,1.157 v 4.225 z"
           style="font-size:13px;line-height:1.25"
           id="path112" />
        <path
           d="m 506.20753,247.28453 c 0,-1.027 -1.092,-1.56 -2.158,-1.82 -0.624,-0.156 -1.3,-0.416 -1.3,-1.027 0,-0.559 0.572,-0.923 1.196,-0.923 0.689,0 1.378,0.208 1.95,0.585 v -0.546 c -0.572,-0.377 -1.261,-0.585 -1.95,-0.585 -1.131,0 -2.171,0.689 -2.171,1.742 0,0.949 1.053,1.391 2.054,1.638 0.689,0.169 1.404,0.533 1.404,1.196 0,0.611 -0.624,0.988 -1.287,0.988 -0.806,0 -1.586,-0.195 -2.275,-0.585 v 0.546 c 0.689,0.39 1.469,0.585 2.275,0.585 1.17,0 2.262,-0.702 2.262,-1.794 z"
           style="font-size:13px;line-height:1.25"
           id="path114" />
        <path
           d="m 516.3735,244.45053 v -0.546 c -0.416,-0.585 -1.092,-0.936 -1.82,-0.936 -1.625,0 -2.717,1.222 -2.717,3.055 0,1.833 1.092,3.055 2.717,3.055 0.676,0 1.313,-0.338 1.69,-0.897 v -0.546 c -0.442,0.663 -0.897,0.897 -1.69,0.897 -0.936,0 -1.573,-1.001 -1.573,-2.509 0,-1.508 0.637,-2.509 1.573,-2.509 0.806,0 1.352,0.286 1.82,0.936 z"
           style="font-size:13px;line-height:1.25"
           id="path116" />
        <path
           d="m 522.44448,246.15353 v -0.13 c 0,-1.833 -1.001,-3.055 -2.509,-3.055 -1.521,0 -2.522,1.222 -2.522,3.055 0,1.833 1.001,3.055 2.522,3.055 0.65,0 1.287,-0.208 1.82,-0.585 v -0.546 c -0.611,0.39 -1.105,0.533 -1.82,0.533 -1.105,0 -1.378,-1.053 -1.378,-2.327 z m -1.144,-0.546 h -2.743 c 0,-1.04 0.442,-2.093 1.378,-2.093 0.923,0 1.365,1.053 1.365,2.093 z"
           style="font-size:13px;line-height:1.25"
           id="path118" />
        <path
           d="m 526.89047,248.49353 v -0.39 c -0.208,0.208 -0.455,0.377 -0.754,0.377 -0.468,0 -0.494,-0.611 -0.494,-1.157 v -3.679 h 1.248 v -0.546 h -1.248 v -1.95 h -0.611 c 0,1.04 -0.598,2.015 -1.547,2.015 v 0.481 h 1.144 v 3.679 c 0,0.858 0.273,1.755 1.014,1.755 0.481,0 0.897,-0.26 1.248,-0.585 z"
           style="font-size:13px;line-height:1.25"
           id="path120" />
        <path
           d="m 537.35543,246.15353 v -0.13 c 0,-1.833 -1.001,-3.055 -2.509,-3.055 -1.521,0 -2.522,1.222 -2.522,3.055 0,1.833 1.001,3.055 2.522,3.055 0.65,0 1.287,-0.208 1.82,-0.585 v -0.546 c -0.611,0.39 -1.105,0.533 -1.82,0.533 -1.105,0 -1.378,-1.053 -1.378,-2.327 z m -1.144,-0.546 h -2.743 c 0,-1.04 0.442,-2.093 1.378,-2.093 0.923,0 1.365,1.053 1.365,2.093 z m 0.039,-5.759 h -1.17 c 0,0.871 -0.273,1.729 -0.78,2.431 h 0.546 c 0.689,-0.689 1.404,-1.456 1.404,-2.431 z"
           style="font-size:13px;line-height:1.25"
           id="path122" />
        <path
           d="m 541.80141,248.49353 v -0.39 c -0.208,0.208 -0.455,0.377 -0.754,0.377 -0.468,0 -0.494,-0.611 -0.494,-1.157 v -3.679 h 1.248 v -0.546 h -1.248 v -1.95 h -0.611 c 0,1.04 -0.598,2.015 -1.547,2.015 v 0.481 h 1.144 v 3.679 c 0,0.858 0.273,1.755 1.014,1.755 0.481,0 0.897,-0.26 1.248,-0.585 z"
           style="font-size:13px;line-height:1.25"
           id="path124" />
        <path
           d="m 547.80739,248.94853 v -3.64 c 0,-1.222 -0.754,-2.34 -1.885,-2.34 -0.832,0 -1.612,0.286 -2.314,0.728 v 0.403 c 0.585,-0.325 1.235,-0.533 1.911,-0.533 0.806,0 1.274,0.858 1.274,1.742 v 0.234 c -0.507,-0.221 -1.053,-0.351 -1.599,-0.351 -1.391,0 -2.418,0.637 -2.418,1.95 0,1.248 0.91,1.937 2.223,1.937 0.663,0 1.274,-0.299 1.794,-0.715 v 0.585 z m -1.014,-1.131 c -0.39,0.39 -0.871,0.715 -1.43,0.715 -0.871,0 -1.443,-0.533 -1.443,-1.391 0,-0.793 0.65,-1.404 1.443,-1.404 0.494,0 0.988,0.13 1.43,0.351 z"
           style="font-size:13px;line-height:1.25"
           id="path126" />
        <path
           d="m 552.64338,248.49353 v -0.39 c -0.208,0.208 -0.455,0.377 -0.754,0.377 -0.468,0 -0.494,-0.611 -0.494,-1.157 v -3.679 h 1.248 v -0.546 h -1.248 v -1.95 h -0.611 c 0,1.04 -0.598,2.015 -1.547,2.015 v 0.481 h 1.144 v 3.679 c 0,0.858 0.273,1.755 1.014,1.755 0.481,0 0.897,-0.26 1.248,-0.585 z"
           style="font-size:13px;line-height:1.25"
           id="path128" />
      </g>
    </g>
    <g
       id="g3519"
       transform="translate(-12.992124,2.3622215)">
      <path
         id="path13117"
         d="m 428.74016,42.519681 c 21.25984,0 38.97638,10.62992 49.6063,46.06299"
         style="fill:none;stroke:#000000;stroke-width:1px;stroke-linecap:butt;stroke-linejoin:miter;stroke-opacity:1;marker-start:url(#DotL);marker-end:url(#Arrow1Lend)" />
      <g
         transform="translate(-14.173222,-114.01013)"
         id="g3449">
        <path
           id="path3451"
           style="fill:#ffeeaa;stroke:#000000;stroke-width:1.06299"
           transform="translate(-118.70078,142.35661)"
           d="m 683.85825,95.669266 a 72.637794,35.433075 0 0 1 -72.63779,35.433074 72.637794,35.433075 0 0 1 -72.6378,-35.433074 72.637794,35.433075 0 0 1 72.6378,-35.433075 72.637794,35.433075 0 0 1 72.63779,35.433075 z" />
        <path
           id="path3453"
           d="M 423.42519,227.39596 H 561.61417"
           style="fill:none;stroke:#000000;stroke-width:1px;stroke-linecap:butt;stroke-linejoin:miter;stroke-opacity:1" />
        <g
           aria-label="État initial"
           id="text3455"
           style="line-height:0%;font-family:Iwona;-inkscape-font-specification:Iwona;text-align:center;text-anchor:middle">
          <path
             d="m 469.88118,220.5984 v -0.598 h -5.434 v -3.653 h 4.134 v -0.598 h -4.134 v -3.653 h 5.122 v -0.598 h -6.188 v 9.1 z m -1.417,-11.44 h -1.17 c -0.312,0.702 -0.78,1.313 -1.365,1.807 h 0.546 c 0.741,-0.52 1.404,-1.118 1.989,-1.807 z"
             style="font-size:13px;line-height:1.25"
             id="path132" />
          <path
             d="m 474.45718,220.1434 v -0.39 c -0.208,0.208 -0.455,0.377 -0.754,0.377 -0.468,0 -0.494,-0.611 -0.494,-1.157 v -3.679 h 1.248 v -0.546 h -1.248 v -1.95 h -0.611 c 0,1.04 -0.598,2.015 -1.547,2.015 v 0.481 h 1.144 v 3.679 c 0,0.858 0.273,1.755 1.014,1.755 0.481,0 0.897,-0.26 1.248,-0.585 z"
             style="font-size:13px;line-height:1.25"
             id="path134" />
          <path
             d="m 480.46316,220.5984 v -3.64 c 0,-1.222 -0.754,-2.34 -1.885,-2.34 -0.832,0 -1.612,0.286 -2.314,0.728 v 0.403 c 0.585,-0.325 1.235,-0.533 1.911,-0.533 0.806,0 1.274,0.858 1.274,1.742 v 0.234 c -0.507,-0.221 -1.053,-0.351 -1.599,-0.351 -1.391,0 -2.418,0.637 -2.418,1.95 0,1.248 0.91,1.937 2.223,1.937 0.663,0 1.274,-0.299 1.794,-0.715 v 0.585 z m -1.014,-1.131 c -0.39,0.39 -0.871,0.715 -1.43,0.715 -0.871,0 -1.443,-0.533 -1.443,-1.391 0,-0.793 0.65,-1.404 1.443,-1.404 0.494,0 0.988,0.13 1.43,0.351 z"
             style="font-size:13px;line-height:1.25"
             id="path136" />
          <path
             d="m 485.29915,220.1434 v -0.39 c -0.208,0.208 -0.455,0.377 -0.754,0.377 -0.468,0 -0.494,-0.611 -0.494,-1.157 v -3.679 h 1.248 v -0.546 h -1.248 v -1.95 h -0.611 c 0,1.04 -0.598,2.015 -1.547,2.015 v 0.481 h 1.144 v 3.679 c 0,0.858 0.273,1.755 1.014,1.755 0.481,0 0.897,-0.26 1.248,-0.585 z"
             style="font-size:13px;line-height:1.25"
             id="path138" />
          <path
             d="m 493.43711,220.1434 v -0.39 c -0.247,0.208 -0.533,0.377 -0.858,0.377 -0.481,0 -0.572,-0.598 -0.572,-1.157 v -4.225 h -1.014 v 4.225 c 0,0.871 0.338,1.755 1.105,1.755 0.494,0 0.962,-0.247 1.339,-0.585 z m -1.3,-7.423 c 0,-0.351 -0.286,-0.637 -0.637,-0.637 -0.351,0 -0.637,0.286 -0.637,0.637 0,0.351 0.286,0.637 0.637,0.637 0.351,0 0.637,-0.286 0.637,-0.637 z"
             style="font-size:13px;line-height:1.25"
             id="path140" />
          <path
             d="m 499.4431,220.5984 v -4.225 c 0,-0.949 -0.728,-1.755 -1.664,-1.755 -0.78,0 -1.469,0.442 -2.028,0.988 v -0.858 h -1.014 v 5.85 h 1.014 v -4.589 c 0.442,-0.442 0.988,-0.793 1.599,-0.793 0.611,0 1.079,0.533 1.079,1.157 v 4.225 z"
             style="font-size:13px;line-height:1.25"
             id="path142" />
          <path
             d="m 503.83707,220.1434 v -0.39 c -0.247,0.208 -0.533,0.377 -0.858,0.377 -0.481,0 -0.572,-0.598 -0.572,-1.157 v -4.225 h -1.014 v 4.225 c 0,0.871 0.338,1.755 1.105,1.755 0.494,0 0.962,-0.247 1.339,-0.585 z m -1.3,-7.423 c 0,-0.351 -0.286,-0.637 -0.637,-0.637 -0.351,0 -0.637,0.286 -0.637,0.637 0,0.351 0.286,0.637 0.637,0.637 0.351,0 0.637,-0.286 0.637,-0.637 z"
             style="font-size:13px;line-height:1.25"
             id="path144" />
          <path
             d="m 507.89306,220.1434 v -0.39 c -0.208,0.208 -0.455,0.377 -0.754,0.377 -0.468,0 -0.494,-0.611 -0.494,-1.157 v -3.679 h 1.248 v -0.546 h -1.248 v -1.95 h -0.611 c 0,1.04 -0.598,2.015 -1.547,2.015 v 0.481 h 1.144 v 3.679 c 0,0.858 0.273,1.755 1.014,1.755 0.481,0 0.897,-0.26 1.248,-0.585 z"
             style="font-size:13px;line-height:1.25"
             id="path146" />
          <path
             d="m 511.70204,220.1434 v -0.39 c -0.247,0.208 -0.533,0.377 -0.858,0.377 -0.481,0 -0.572,-0.598 -0.572,-1.157 v -4.225 h -1.014 v 4.225 c 0,0.871 0.338,1.755 1.105,1.755 0.494,0 0.962,-0.247 1.339,-0.585 z m -1.3,-7.423 c 0,-0.351 -0.286,-0.637 -0.637,-0.637 -0.351,0 -0.637,0.286 -0.637,0.637 0,0.351 0.286,0.637 0.637,0.637 0.351,0 0.637,-0.286 0.637,-0.637 z"
             style="font-size:13px;line-height:1.25"
             id="path148" />
          <path
             d="m 517.57803,220.5984 v -3.64 c 0,-1.222 -0.754,-2.34 -1.885,-2.34 -0.832,0 -1.612,0.286 -2.314,0.728 v 0.403 c 0.585,-0.325 1.235,-0.533 1.911,-0.533 0.806,0 1.274,0.858 1.274,1.742 v 0.234 c -0.507,-0.221 -1.053,-0.351 -1.599,-0.351 -1.391,0 -2.418,0.637 -2.418,1.95 0,1.248 0.91,1.937 2.223,1.937 0.663,0 1.274,-0.299 1.794,-0.715 v 0.585 z m -1.014,-1.131 c -0.39,0.39 -0.871,0.715 -1.43,0.715 -0.871,0 -1.443,-0.533 -1.443,-1.391 0,-0.793 0.65,-1.404 1.443,-1.404 0.494,0 0.988,0.13 1.43,0.351 z"
             style="font-size:13px;line-height:1.25"
             id="path150" />
          <path
             d="m 522.10202,220.1434 v -0.39 c -0.247,0.208 -0.533,0.377 -0.858,0.377 -0.481,0 -0.572,-0.598 -0.572,-1.157 v -7.475 h -1.014 v 7.475 c 0,0.871 0.338,1.755 1.105,1.755 0.494,0 0.962,-0.247 1.339,-0.585 z"
             style="font-size:13px;line-height:1.25"
             id="path152" />
        </g>
      </g>
    </g>
    <g
       id="g3503"
       transform="translate(-2.3622309,-1.1810755)">
      <path
         id="path12898"
         d="M 689.17323,99.212592 V 152.36219"
         style="fill:none;stroke:#000000;stroke-width:1px;stroke-linecap:butt;stroke-linejoin:miter;stroke-opacity:1;marker-end:url(#Arrow1Lend)" />
      <g
         id="g2621"
         transform="translate(196.65355,-174.24636)">
        <path
           id="path2623"
           style="fill:#ffeeaa;stroke:#000000;stroke-width:1.06299"
           transform="translate(-118.70078,142.35661)"
           d="m 683.85825,95.669266 a 72.637794,35.433075 0 0 1 -72.63779,35.433074 72.637794,35.433075 0 0 1 -72.6378,-35.433074 72.637794,35.433075 0 0 1 72.6378,-35.433075 72.637794,35.433075 0 0 1 72.63779,35.433075 z" />
        <path
           style="fill:none;stroke:#000000;stroke-width:1px;stroke-linecap:butt;stroke-linejoin:miter;stroke-opacity:1"
           d="M 423.42519,227.39596 H 561.61417"
           id="path2625" />
        <g
           aria-label="Origine"
           id="text2627"
           style="line-height:0%;font-family:Iwona;-inkscape-font-specification:Iwona;text-align:center;text-anchor:middle">
          <path
             d="m 480.38514,216.0484 c 0,-2.756 -1.43,-4.68 -4.056,-4.68 -2.639,0 -4.069,1.924 -4.069,4.68 0,2.756 1.43,4.68 4.069,4.68 2.626,0 4.056,-1.924 4.056,-4.68 z m -1.274,0 c 0,2.275 -0.754,4.082 -2.782,4.082 -2.041,0 -2.795,-1.807 -2.795,-4.082 0,-2.275 0.754,-4.082 2.795,-4.082 2.028,0 2.782,1.807 2.782,4.082 z"
             style="font-size:13px;line-height:1.25"
             id="path156" />
          <path
             d="m 485.44212,215.5544 v -0.806 c -0.143,-0.052 -0.299,-0.091 -0.442,-0.091 -0.728,0 -1.313,0.507 -1.781,1.066 v -0.975 h -1.014 v 5.85 h 1.014 v -4.329 c 0.39,-0.455 0.884,-0.845 1.482,-0.845 0.247,0 0.507,0.052 0.741,0.13 z"
             style="font-size:13px;line-height:1.25"
             id="path158" />
          <path
             d="m 489.12111,220.1434 v -0.39 c -0.247,0.208 -0.533,0.377 -0.858,0.377 -0.481,0 -0.572,-0.598 -0.572,-1.157 v -4.225 h -1.014 v 4.225 c 0,0.871 0.338,1.755 1.105,1.755 0.494,0 0.962,-0.247 1.339,-0.585 z m -1.3,-7.423 c 0,-0.351 -0.286,-0.637 -0.637,-0.637 -0.351,0 -0.637,0.286 -0.637,0.637 0,0.351 0.286,0.637 0.637,0.637 0.351,0 0.637,-0.286 0.637,-0.637 z"
             style="font-size:13px;line-height:1.25"
             id="path160" />
          <path
             d="m 495.1271,221.3784 v -6.63 h -1.014 v 0.221 c -0.507,-0.221 -1.053,-0.351 -1.599,-0.351 -1.625,0 -2.418,1.3 -2.418,3.055 0,1.729 0.65,3.055 2.223,3.055 0.663,0 1.274,-0.299 1.794,-0.715 v 1.365 c 0,0.897 -0.494,1.742 -1.3,1.742 -0.663,0 -1.326,-0.13 -1.95,-0.351 v 0.403 c 0.728,0.338 1.534,0.546 2.34,0.546 1.144,0 1.924,-1.118 1.924,-2.34 z m -1.014,-1.911 c -0.39,0.39 -0.871,0.715 -1.43,0.715 -1.183,0 -1.443,-1.144 -1.443,-2.509 0,-1.222 0.377,-2.509 1.443,-2.509 0.494,0 0.988,0.13 1.43,0.351 z"
             style="font-size:13px;line-height:1.25"
             id="path162" />
          <path
             d="m 499.58609,220.1434 v -0.39 c -0.247,0.208 -0.533,0.377 -0.858,0.377 -0.481,0 -0.572,-0.598 -0.572,-1.157 v -4.225 h -1.014 v 4.225 c 0,0.871 0.338,1.755 1.105,1.755 0.494,0 0.962,-0.247 1.339,-0.585 z m -1.3,-7.423 c 0,-0.351 -0.286,-0.637 -0.637,-0.637 -0.351,0 -0.637,0.286 -0.637,0.637 0,0.351 0.286,0.637 0.637,0.637 0.351,0 0.637,-0.286 0.637,-0.637 z"
             style="font-size:13px;line-height:1.25"
             id="path164" />
          <path
             d="m 505.59208,220.5984 v -4.225 c 0,-0.949 -0.728,-1.755 -1.664,-1.755 -0.78,0 -1.469,0.442 -2.028,0.988 v -0.858 h -1.014 v 5.85 h 1.014 v -4.589 c 0.442,-0.442 0.988,-0.793 1.599,-0.793 0.611,0 1.079,0.533 1.079,1.157 v 4.225 z"
             style="font-size:13px;line-height:1.25"
             id="path166" />
          <path
             d="m 512.31306,217.8034 v -0.13 c 0,-1.833 -1.001,-3.055 -2.509,-3.055 -1.521,0 -2.522,1.222 -2.522,3.055 0,1.833 1.001,3.055 2.522,3.055 0.65,0 1.287,-0.208 1.82,-0.585 v -0.546 c -0.611,0.39 -1.105,0.533 -1.82,0.533 -1.105,0 -1.378,-1.053 -1.378,-2.327 z m -1.144,-0.546 h -2.743 c 0,-1.04 0.442,-2.093 1.378,-2.093 0.923,0 1.365,1.053 1.365,2.093 z"
             style="font-size:13px;line-height:1.25"
             id="path168" />
        </g>
      </g>
      <g
         aria-label="Condition / Actions"
         id="text4660"
         style="line-height:0%;font-family:Iwona;-inkscape-font-specification:Iwona;text-align:center;text-anchor:middle">
        <path
           d="m 707.8364,117.09975 v -0.702 c -0.702,-1.014 -1.859,-1.612 -3.081,-1.612 -2.639,0 -4.069,1.924 -4.069,4.68 0,2.756 1.43,4.68 4.069,4.68 1.014,0 2.015,-0.299 2.873,-0.858 v -0.598 c -0.858,0.559 -1.859,0.858 -2.873,0.858 -2.041,0 -2.795,-1.807 -2.795,-4.082 0,-2.275 0.754,-4.082 2.795,-4.082 1.248,0 2.418,0.65 3.081,1.716 z"
           style="fill:#000000"
           id="path171" />
        <path
           d="m 713.81638,121.09075 c 0,-1.989 -0.884,-3.055 -2.509,-3.055 -1.638,0 -2.522,1.066 -2.522,3.055 0,1.989 0.884,3.055 2.522,3.055 1.625,0 2.509,-1.066 2.509,-3.055 z m -1.144,0 c 0,1.625 -0.481,2.509 -1.365,2.509 -0.897,0 -1.378,-0.884 -1.378,-2.509 0,-1.625 0.481,-2.509 1.378,-2.509 0.884,0 1.365,0.884 1.365,2.509 z"
           style="fill:#000000"
           id="path173" />
        <path
           d="m 720.27737,124.01575 v -4.225 c 0,-0.949 -0.728,-1.755 -1.664,-1.755 -0.78,0 -1.469,0.442 -2.028,0.988 v -0.858 h -1.014 v 5.85 h 1.014 v -4.589 c 0.442,-0.442 0.988,-0.793 1.599,-0.793 0.611,0 1.079,0.533 1.079,1.157 v 4.225 z"
           style="fill:#000000"
           id="path175" />
        <path
           d="m 726.99835,124.01575 v -9.1 h -1.014 v 3.471 c -0.507,-0.221 -1.053,-0.351 -1.599,-0.351 -1.625,0 -2.418,1.3 -2.418,3.055 0,1.729 0.65,3.055 2.223,3.055 0.663,0 1.274,-0.299 1.794,-0.715 v 0.585 z m -1.014,-1.131 c -0.39,0.39 -0.871,0.715 -1.43,0.715 -1.183,0 -1.443,-1.144 -1.443,-2.509 0,-1.222 0.377,-2.509 1.443,-2.509 0.494,0 0.988,0.13 1.43,0.351 z"
           style="fill:#000000"
           id="path177" />
        <path
           d="m 731.45734,123.56075 v -0.39 c -0.247,0.208 -0.533,0.377 -0.858,0.377 -0.481,0 -0.572,-0.598 -0.572,-1.157 v -4.225 h -1.014 v 4.225 c 0,0.871 0.338,1.755 1.105,1.755 0.494,0 0.962,-0.247 1.339,-0.585 z m -1.3,-7.423 c 0,-0.351 -0.286,-0.637 -0.637,-0.637 -0.351,0 -0.637,0.286 -0.637,0.637 0,0.351 0.286,0.637 0.637,0.637 0.351,0 0.637,-0.286 0.637,-0.637 z"
           style="fill:#000000"
           id="path179" />
        <path
           d="m 735.51333,123.56075 v -0.39 c -0.208,0.208 -0.455,0.377 -0.754,0.377 -0.468,0 -0.494,-0.611 -0.494,-1.157 v -3.679 h 1.248 v -0.546 h -1.248 v -1.95 h -0.611 c 0,1.04 -0.598,2.015 -1.547,2.015 v 0.481 h 1.144 v 3.679 c 0,0.858 0.273,1.755 1.014,1.755 0.481,0 0.897,-0.26 1.248,-0.585 z"
           style="fill:#000000"
           id="path181" />
        <path
           d="m 739.32231,123.56075 v -0.39 c -0.247,0.208 -0.533,0.377 -0.858,0.377 -0.481,0 -0.572,-0.598 -0.572,-1.157 v -4.225 h -1.014 v 4.225 c 0,0.871 0.338,1.755 1.105,1.755 0.494,0 0.962,-0.247 1.339,-0.585 z m -1.3,-7.423 c 0,-0.351 -0.286,-0.637 -0.637,-0.637 -0.351,0 -0.637,0.286 -0.637,0.637 0,0.351 0.286,0.637 0.637,0.637 0.351,0 0.637,-0.286 0.637,-0.637 z"
           style="fill:#000000"
           id="path183" />
        <path
           d="m 745.3283,121.09075 c 0,-1.989 -0.884,-3.055 -2.509,-3.055 -1.638,0 -2.522,1.066 -2.522,3.055 0,1.989 0.884,3.055 2.522,3.055 1.625,0 2.509,-1.066 2.509,-3.055 z m -1.144,0 c 0,1.625 -0.481,2.509 -1.365,2.509 -0.897,0 -1.378,-0.884 -1.378,-2.509 0,-1.625 0.481,-2.509 1.378,-2.509 0.884,0 1.365,0.884 1.365,2.509 z"
           style="fill:#000000"
           id="path185" />
        <path
           d="m 751.7893,124.01575 v -4.225 c 0,-0.949 -0.728,-1.755 -1.664,-1.755 -0.78,0 -1.469,0.442 -2.028,0.988 v -0.858 h -1.014 v 5.85 h 1.014 v -4.589 c 0.442,-0.442 0.988,-0.793 1.599,-0.793 0.611,0 1.079,0.533 1.079,1.157 v 4.225 z"
           style="fill:#000000"
           id="path187" />
        <path
           d="m 760.91525,114.91575 h -0.676 l -2.652,10.595 h 0.676 z"
           style="font-size:13px;line-height:1.25;fill:#ff0000"
           id="path189" />
        <path
           d="m 773.66822,124.01575 -3.302,-9.1 h -1.131 l -3.367,9.1 h 0.637 l 1.183,-3.185 h 3.692 l 1.157,3.185 z m -2.509,-3.783 h -3.25 l 1.638,-4.446 z"
           style="font-size:13px;line-height:1.25;fill:#ff0000"
           id="path191" />
        <path
           d="m 779.0502,119.51775 v -0.546 c -0.416,-0.585 -1.092,-0.936 -1.82,-0.936 -1.625,0 -2.717,1.222 -2.717,3.055 0,1.833 1.092,3.055 2.717,3.055 0.676,0 1.313,-0.338 1.69,-0.897 v -0.546 c -0.442,0.663 -0.897,0.897 -1.69,0.897 -0.936,0 -1.573,-1.001 -1.573,-2.509 0,-1.508 0.637,-2.509 1.573,-2.509 0.806,0 1.352,0.286 1.82,0.936 z"
           style="font-size:13px;line-height:1.25;fill:#ff0000"
           id="path193" />
        <path
           d="m 783.17119,123.56075 v -0.39 c -0.208,0.208 -0.455,0.377 -0.754,0.377 -0.468,0 -0.494,-0.611 -0.494,-1.157 v -3.679 h 1.248 v -0.546 h -1.248 v -1.95 h -0.611 c 0,1.04 -0.598,2.015 -1.547,2.015 v 0.481 h 1.144 v 3.679 c 0,0.858 0.273,1.755 1.014,1.755 0.481,0 0.897,-0.26 1.248,-0.585 z"
           style="font-size:13px;line-height:1.25;fill:#ff0000"
           id="path195" />
        <path
           d="m 786.98017,123.56075 v -0.39 c -0.247,0.208 -0.533,0.377 -0.858,0.377 -0.481,0 -0.572,-0.598 -0.572,-1.157 v -4.225 h -1.014 v 4.225 c 0,0.871 0.338,1.755 1.105,1.755 0.494,0 0.962,-0.247 1.339,-0.585 z m -1.3,-7.423 c 0,-0.351 -0.286,-0.637 -0.637,-0.637 -0.351,0 -0.637,0.286 -0.637,0.637 0,0.351 0.286,0.637 0.637,0.637 0.351,0 0.637,-0.286 0.637,-0.637 z"
           style="font-size:13px;line-height:1.25;fill:#ff0000"
           id="path197" />
        <path
           d="m 792.98616,121.09075 c 0,-1.989 -0.884,-3.055 -2.509,-3.055 -1.638,0 -2.522,1.066 -2.522,3.055 0,1.989 0.884,3.055 2.522,3.055 1.625,0 2.509,-1.066 2.509,-3.055 z m -1.144,0 c 0,1.625 -0.481,2.509 -1.365,2.509 -0.897,0 -1.378,-0.884 -1.378,-2.509 0,-1.625 0.481,-2.509 1.378,-2.509 0.884,0 1.365,0.884 1.365,2.509 z"
           style="font-size:13px;line-height:1.25;fill:#ff0000"
           id="path199" />
        <path
           d="m 799.44715,124.01575 v -4.225 c 0,-0.949 -0.728,-1.755 -1.664,-1.755 -0.78,0 -1.469,0.442 -2.028,0.988 v -0.858 h -1.014 v 5.85 h 1.014 v -4.589 c 0.442,-0.442 0.988,-0.793 1.599,-0.793 0.611,0 1.079,0.533 1.079,1.157 v 4.225 z"
           style="font-size:13px;line-height:1.25;fill:#ff0000"
           id="path201" />
        <path
           d="m 805.41413,122.35175 c 0,-1.027 -1.092,-1.56 -2.158,-1.82 -0.624,-0.156 -1.3,-0.416 -1.3,-1.027 0,-0.559 0.572,-0.923 1.196,-0.923 0.689,0 1.378,0.208 1.95,0.585 v -0.546 c -0.572,-0.377 -1.261,-0.585 -1.95,-0.585 -1.131,0 -2.171,0.689 -2.171,1.742 0,0.949 1.053,1.391 2.054,1.638 0.689,0.169 1.404,0.533 1.404,1.196 0,0.611 -0.624,0.988 -1.287,0.988 -0.806,0 -1.586,-0.195 -2.275,-0.585 v 0.546 c 0.689,0.39 1.469,0.585 2.275,0.585 1.17,0 2.262,-0.702 2.262,-1.794 z"
           style="font-size:13px;line-height:1.25;fill:#ff0000"
           id="path203" />
      </g>
      <g
         transform="translate(196.65355,-50.230608)"
         id="g3459">
        <path
           id="ellipse3461"
           style="fill:#ffeeaa;stroke:#000000;stroke-width:1.06299"
           transform="translate(-118.70078,142.35661)"
           d="m 683.85825,95.669266 a 72.637794,35.433075 0 0 1 -72.63779,35.433074 72.637794,35.433075 0 0 1 -72.6378,-35.433074 72.637794,35.433075 0 0 1 72.6378,-35.433075 72.637794,35.433075 0 0 1 72.63779,35.433075 z" />
        <path
           id="path3463"
           d="M 423.42519,227.39596 H 561.61417"
           style="fill:none;stroke:#000000;stroke-width:1px;stroke-linecap:butt;stroke-linejoin:miter;stroke-opacity:1" />
        <g
           aria-label="Destination"
           id="text3465"
           style="line-height:0%;font-family:Iwona;-inkscape-font-specification:Iwona;text-align:center;text-anchor:middle">
          <path
             d="m 469.17267,216.0484 c 0,-2.782 -1.521,-4.68 -4.199,-4.68 -0.806,0 -1.612,0.039 -2.405,0.13 h -1.04 v 9.1 h 1.04 c 0.793,0.091 1.599,0.13 2.405,0.13 2.678,0 4.199,-1.898 4.199,-4.68 z m -1.274,0 c 0,2.067 -1.053,4.082 -2.925,4.082 -0.793,0 -1.586,-0.039 -2.379,-0.13 v -7.904 c 0.793,-0.091 1.586,-0.13 2.379,-0.13 1.872,0 2.925,2.015 2.925,4.082 z"
             style="font-size:13px;line-height:1.25"
             id="path207" />
          <path
             d="m 475.69866,217.8034 v -0.13 c 0,-1.833 -1.001,-3.055 -2.509,-3.055 -1.521,0 -2.522,1.222 -2.522,3.055 0,1.833 1.001,3.055 2.522,3.055 0.65,0 1.287,-0.208 1.82,-0.585 v -0.546 c -0.611,0.39 -1.105,0.533 -1.82,0.533 -1.105,0 -1.378,-1.053 -1.378,-2.327 z m -1.144,-0.546 h -2.743 c 0,-1.04 0.442,-2.093 1.378,-2.093 0.923,0 1.365,1.053 1.365,2.093 z"
             style="font-size:13px;line-height:1.25"
             id="path209" />
          <path
             d="m 481.34064,218.9344 c 0,-1.027 -1.092,-1.56 -2.158,-1.82 -0.624,-0.156 -1.3,-0.416 -1.3,-1.027 0,-0.559 0.572,-0.923 1.196,-0.923 0.689,0 1.378,0.208 1.95,0.585 v -0.546 c -0.572,-0.377 -1.261,-0.585 -1.95,-0.585 -1.131,0 -2.171,0.689 -2.171,1.742 0,0.949 1.053,1.391 2.054,1.638 0.689,0.169 1.404,0.533 1.404,1.196 0,0.611 -0.624,0.988 -1.287,0.988 -0.806,0 -1.586,-0.195 -2.275,-0.585 v 0.546 c 0.689,0.39 1.469,0.585 2.275,0.585 1.17,0 2.262,-0.702 2.262,-1.794 z"
             style="font-size:13px;line-height:1.25"
             id="path211" />
          <path
             d="m 485.72163,220.1434 v -0.39 c -0.208,0.208 -0.455,0.377 -0.754,0.377 -0.468,0 -0.494,-0.611 -0.494,-1.157 v -3.679 h 1.248 v -0.546 h -1.248 v -1.95 h -0.611 c 0,1.04 -0.598,2.015 -1.547,2.015 v 0.481 h 1.144 v 3.679 c 0,0.858 0.273,1.755 1.014,1.755 0.481,0 0.897,-0.26 1.248,-0.585 z"
             style="font-size:13px;line-height:1.25"
             id="path213" />
          <path
             d="m 489.53061,220.1434 v -0.39 c -0.247,0.208 -0.533,0.377 -0.858,0.377 -0.481,0 -0.572,-0.598 -0.572,-1.157 v -4.225 h -1.014 v 4.225 c 0,0.871 0.338,1.755 1.105,1.755 0.494,0 0.962,-0.247 1.339,-0.585 z m -1.3,-7.423 c 0,-0.351 -0.286,-0.637 -0.637,-0.637 -0.351,0 -0.637,0.286 -0.637,0.637 0,0.351 0.286,0.637 0.637,0.637 0.351,0 0.637,-0.286 0.637,-0.637 z"
             style="font-size:13px;line-height:1.25"
             id="path215" />
          <path
             d="m 495.5366,220.5984 v -4.225 c 0,-0.949 -0.728,-1.755 -1.664,-1.755 -0.78,0 -1.469,0.442 -2.028,0.988 v -0.858 h -1.014 v 5.85 h 1.014 v -4.589 c 0.442,-0.442 0.988,-0.793 1.599,-0.793 0.611,0 1.079,0.533 1.079,1.157 v 4.225 z"
             style="font-size:13px;line-height:1.25"
             id="path217" />
          <path
             d="m 502.12757,220.5984 v -3.64 c 0,-1.222 -0.754,-2.34 -1.885,-2.34 -0.832,0 -1.612,0.286 -2.314,0.728 v 0.403 c 0.585,-0.325 1.235,-0.533 1.911,-0.533 0.806,0 1.274,0.858 1.274,1.742 v 0.234 c -0.507,-0.221 -1.053,-0.351 -1.599,-0.351 -1.391,0 -2.418,0.637 -2.418,1.95 0,1.248 0.91,1.937 2.223,1.937 0.663,0 1.274,-0.299 1.794,-0.715 v 0.585 z m -1.014,-1.131 c -0.39,0.39 -0.871,0.715 -1.43,0.715 -0.871,0 -1.443,-0.533 -1.443,-1.391 0,-0.793 0.65,-1.404 1.443,-1.404 0.494,0 0.988,0.13 1.43,0.351 z"
             style="font-size:13px;line-height:1.25"
             id="path219" />
          <path
             d="m 506.96357,220.1434 v -0.39 c -0.208,0.208 -0.455,0.377 -0.754,0.377 -0.468,0 -0.494,-0.611 -0.494,-1.157 v -3.679 h 1.248 v -0.546 h -1.248 v -1.95 h -0.611 c 0,1.04 -0.598,2.015 -1.547,2.015 v 0.481 h 1.144 v 3.679 c 0,0.858 0.273,1.755 1.014,1.755 0.481,0 0.897,-0.26 1.248,-0.585 z"
             style="font-size:13px;line-height:1.25"
             id="path221" />
          <path
             d="m 510.77255,220.1434 v -0.39 c -0.247,0.208 -0.533,0.377 -0.858,0.377 -0.481,0 -0.572,-0.598 -0.572,-1.157 v -4.225 h -1.014 v 4.225 c 0,0.871 0.338,1.755 1.105,1.755 0.494,0 0.962,-0.247 1.339,-0.585 z m -1.3,-7.423 c 0,-0.351 -0.286,-0.637 -0.637,-0.637 -0.351,0 -0.637,0.286 -0.637,0.637 0,0.351 0.286,0.637 0.637,0.637 0.351,0 0.637,-0.286 0.637,-0.637 z"
             style="font-size:13px;line-height:1.25"
             id="path223" />
          <path
             d="m 516.77853,217.6734 c 0,-1.989 -0.884,-3.055 -2.509,-3.055 -1.638,0 -2.522,1.066 -2.522,3.055 0,1.989 0.884,3.055 2.522,3.055 1.625,0 2.509,-1.066 2.509,-3.055 z m -1.144,0 c 0,1.625 -0.481,2.509 -1.365,2.509 -0.897,0 -1.378,-0.884 -1.378,-2.509 0,-1.625 0.481,-2.509 1.378,-2.509 0.884,0 1.365,0.884 1.365,2.509 z"
             style="font-size:13px;line-height:1.25"
             id="path225" />
          <path
             d="m 523.23953,220.5984 v -4.225 c 0,-0.949 -0.728,-1.755 -1.664,-1.755 -0.78,0 -1.469,0.442 -2.028,0.988 v -0.858 h -1.014 v 5.85 h 1.014 v -4.589 c 0.442,-0.442 0.988,-0.793 1.599,-0.793 0.611,0 1.079,0.533 1.079,1.157 v 4.225 z"
             style="font-size:13px;line-height:1.25"
             id="path227" />
        </g>
      </g>
    </g>
  </g>
</svg>
