<?xml version="1.0" encoding="UTF-8" standalone="no"?>
<!-- Created with Inkscape (http://www.inkscape.org/) -->

<svg
   width="90.110237mm"
   height="46.864407mm"
   viewBox="0 0 319.28824 166.05498"
   id="svg4698"
   version="1.1"
   xmlns="http://www.w3.org/2000/svg"
   xmlns:svg="http://www.w3.org/2000/svg"
   xmlns:rdf="http://www.w3.org/1999/02/22-rdf-syntax-ns#"
   xmlns:cc="http://creativecommons.org/ns#"
   xmlns:dc="http://purl.org/dc/elements/1.1/">
  <defs
     id="defs4700" />
  <metadata
     id="metadata4703">
    <rdf:RDF>
      <cc:Work
         rdf:about="">
        <dc:format>image/svg+xml</dc:format>
        <dc:type
           rdf:resource="http://purl.org/dc/dcmitype/StillImage" />
        <dc:title />
      </cc:Work>
    </rdf:RDF>
  </metadata>
  <g
     id="layer1"
     transform="translate(-16.916011,-70.203281)">
    <g
       transform="translate(61.919989,152.75595)"
       id="layer1-5-0">
      <g
         aria-label="e0"
         id="text2897-3-1"
         style="font-weight:bold;line-height:0%;font-family:Iwona;-inkscape-font-specification:'Iwona Bold';text-align:end;text-anchor:end">
        <path
           d="m -33.268048,-22.404938 v -0.12 c 0,-1.692 -0.924,-2.82 -2.316,-2.82 -1.404,0 -2.328,1.128 -2.328,2.82 0,1.692 0.924,2.82 2.328,2.82 0.6,0 1.188,-0.192 1.68,-0.54 v -0.504 c -0.564,0.36 -1.02,0.492 -1.68,0.492 -1.02,0 -1.272,-0.972 -1.272,-2.148 z m -1.056,-0.504 h -2.532 c 0,-0.96 0.408,-1.932 1.272,-1.932 0.852,0 1.26,0.972 1.26,1.932 z"
           style="font-weight:normal;font-size:12px;line-height:1.25;-inkscape-font-specification:Iwona"
           id="path130" />
        <path
           d="m -28.908464,-20.115938 c 0,-1.8486 -0.5694,-2.769 -1.7082,-2.769 -1.1388,0 -1.7082,0.9204 -1.7082,2.769 0,1.8486 0.5694,2.769 1.7082,2.769 1.1388,0 1.7082,-0.9204 1.7082,-2.769 z m -0.6864,0 c 0,1.6302 -0.3432,2.4414 -1.0218,2.4414 -0.6786,0 -1.0218,-0.8112 -1.0218,-2.4414 0,-1.6302 0.3432,-2.4414 1.0218,-2.4414 0.6786,0 1.0218,0.8112 1.0218,2.4414 z"
           style="font-size:65%;baseline-shift:sub"
           id="path132" />
      </g>
      <g
         aria-label="s"
         id="text2901-6-6"
         style="font-style:italic;line-height:0%;font-family:'Bitstream Vera Sans';-inkscape-font-specification:'Sans Italic'">
        <path
           d="m 33.339375,-7.18771 c 0,-0.948 -1.008,-1.44 -1.992,-1.68 -0.576,-0.144 -1.2,-0.384 -1.2,-0.948 0,-0.516 0.528,-0.852 1.104,-0.852 0.636,0 1.272,0.192 1.8,0.54 v -0.504 c -0.528,-0.348 -1.164,-0.54 -1.8,-0.54 -1.044,0 -2.004,0.636 -2.004,1.608 0,0.876 0.972,1.284 1.896,1.512 0.636,0.156 1.296,0.492 1.296,1.104 0,0.564 -0.576,0.912 -1.188,0.912 -0.744,0 -1.464,-0.18 -2.1,-0.54 v 0.504 c 0.636,0.36 1.356,0.54 2.1,0.54 1.08,0 2.088,-0.648 2.088,-1.656 z"
           style="font-style:normal;font-size:12px;line-height:1.25;font-family:Iwona;-inkscape-font-specification:Iwona"
           id="path135" />
      </g>
      <path
         id="path2504-0"
         d="M -8.7703827,-34.671396 V 14.934903 L 12.48946,7.8482892 V -27.584782 Z"
         style="fill:#ffeeaa;fill-rule:evenodd;stroke:#000000;stroke-width:1px;stroke-linecap:butt;stroke-linejoin:miter;stroke-opacity:1" />
      <path
         transform="translate(-44.203438,-91.419854)"
         id="path3488-8-5"
         d="M 17.716535,67.37838 H 35.433071"
         style="fill:none;stroke:#000000;stroke-width:1px;stroke-linecap:butt;stroke-linejoin:miter;stroke-opacity:1" />
      <path
         id="path3490-88-3"
         d="M 12.48946,-9.8682462 H 26.662688"
         style="fill:none;stroke:#000000;stroke-width:1px;stroke-linecap:butt;stroke-linejoin:miter;stroke-opacity:1" />
      <g
         aria-label="e1"
         id="text19488"
         style="font-weight:bold;line-height:0%;font-family:Iwona;-inkscape-font-specification:'Iwona Bold';text-align:end;text-anchor:end">
        <path
           d="m -33.268048,5.9415187 v -0.12 c 0,-1.692 -0.924,-2.82 -2.316,-2.82 -1.404,0 -2.328,1.128 -2.328,2.82 0,1.692 0.924,2.82 2.328,2.82 0.6,0 1.188,-0.192 1.68,-0.54 v -0.504 c -0.564,0.36 -1.02,0.492 -1.68,0.492 -1.02,0 -1.272,-0.972 -1.272,-2.148 z m -1.056,-0.504 h -2.532 c 0,-0.96 0.408,-1.932 1.272,-1.932 0.852,0 1.26,0.972 1.26,1.932 z"
           style="font-weight:normal;font-size:12px;line-height:1.25;-inkscape-font-specification:Iwona"
           id="path138" />
        <path
           d="m -30.094064,10.921519 v -5.382 h -0.4524 c -0.429,0.4914 -0.936,0.9126 -1.4976,1.2402 v 0.3275999 c 0.4758,-0.2261999 0.9204,-0.4913999 1.3416,-0.8111999 v 4.6254 z"
           style="font-size:65%;baseline-shift:sub"
           id="path140" />
      </g>
      <path
         style="fill:none;stroke:#000000;stroke-width:1px;stroke-linecap:butt;stroke-linejoin:miter;stroke-opacity:1"
         d="M -26.486903,4.3049821 H -8.770367"
         id="path19492" />
      <g
         aria-label="0"
         id="text19494"
         style="font-weight:bold;line-height:0%;font-family:Iwona;-inkscape-font-specification:'Iwona Bold'">
        <path
           d="m -0.40707558,-23.948167 c 0,-2.37 -0.73000002,-3.55 -2.19000002,-3.55 -1.46,0 -2.19,1.18 -2.19,3.55 0,2.37 0.73,3.55 2.19,3.55 1.46,0 2.19000002,-1.18 2.19000002,-3.55 z m -0.88000002,0 c 0,2.09 -0.44,3.13 -1.31,3.13 -0.87,0 -1.31,-1.04 -1.31,-3.13 0,-2.09 0.44,-3.13 1.31,-3.13 0.87,0 1.31,1.04 1.31,3.13 z"
           style="font-weight:normal;font-size:10px;line-height:1.25;-inkscape-font-specification:Iwona"
           id="path143" />
      </g>
      <g
         aria-label="1"
         id="text19498"
         style="font-weight:bold;line-height:0%;font-family:Iwona;-inkscape-font-specification:'Iwona Bold'">
        <path
           d="M -1.9270756,7.848289 V 0.94828901 h -0.58 c -0.55,0.62999999 -1.2,1.16999999 -1.92,1.58999999 v 0.42 c 0.61,-0.29 1.18,-0.63 1.72,-1.04 v 5.93 z"
           style="font-weight:normal;font-size:10px;line-height:1.25;-inkscape-font-specification:Iwona"
           id="path146" />
      </g>
      <path
         id="path19502"
         d="M 1.8595386,25.564825 V 11.391596"
         style="fill:none;stroke:#000000;stroke-width:1px;stroke-linecap:butt;stroke-linejoin:miter;stroke-opacity:1" />
      <g
         aria-label="a"
         id="text19504"
         style="font-weight:bold;line-height:0%;font-family:Iwona;-inkscape-font-specification:'Iwona Bold';text-align:center;text-anchor:middle">
        <path
           d="m 3.9715438,36.194744 v -3.36 c 0,-1.128 -0.696,-2.16 -1.74,-2.16 -0.768,0 -1.48800003,0.264 -2.13600003,0.672 v 0.372 c 0.54,-0.3 1.14000003,-0.492 1.76400003,-0.492 0.744,0 1.176,0.792 1.176,1.608 v 0.216 c -0.468,-0.204 -0.972,-0.324 -1.476,-0.324 -1.28400003,0 -2.23200003,0.588 -2.23200003,1.8 0,1.152 0.84,1.788 2.05200003,1.788 0.612,0 1.176,-0.276 1.656,-0.66 v 0.54 z m -0.936,-1.044 c -0.36,0.36 -0.804,0.66 -1.32,0.66 -0.80400003,0 -1.33200003,-0.492 -1.33200003,-1.284 0,-0.732 0.6,-1.296 1.33200003,-1.296 0.456,0 0.912,0.12 1.32,0.324 z"
           style="font-weight:normal;font-size:12px;line-height:1.25;-inkscape-font-specification:Iwona"
           id="path149" />
      </g>
    </g>
    <g
       id="g26836"
       transform="translate(168.2192,140.94703)">
      <path
         style="fill:none;stroke:#000000;stroke-width:1px;stroke-linecap:butt;stroke-linejoin:miter;stroke-opacity:1"
         d="M -1.6827293,50.367973 V 36.194744"
         id="path26866" />
      <g
         aria-label="e0"
         id="text26838"
         style="font-weight:bold;line-height:0%;font-family:Iwona;-inkscape-font-specification:'Iwona Bold';text-align:end;text-anchor:end">
        <path
           d="m -33.268048,-22.404938 v -0.12 c 0,-1.692 -0.924,-2.82 -2.316,-2.82 -1.404,0 -2.328,1.128 -2.328,2.82 0,1.692 0.924,2.82 2.328,2.82 0.6,0 1.188,-0.192 1.68,-0.54 v -0.504 c -0.564,0.36 -1.02,0.492 -1.68,0.492 -1.02,0 -1.272,-0.972 -1.272,-2.148 z m -1.056,-0.504 h -2.532 c 0,-0.96 0.408,-1.932 1.272,-1.932 0.852,0 1.26,0.972 1.26,1.932 z"
           style="font-weight:normal;font-size:12px;line-height:1.25;-inkscape-font-specification:Iwona"
           id="path152" />
        <path
           d="m -28.908464,-20.115938 c 0,-1.8486 -0.5694,-2.769 -1.7082,-2.769 -1.1388,0 -1.7082,0.9204 -1.7082,2.769 0,1.8486 0.5694,2.769 1.7082,2.769 1.1388,0 1.7082,-0.9204 1.7082,-2.769 z m -0.6864,0 c 0,1.6302 -0.3432,2.4414 -1.0218,2.4414 -0.6786,0 -1.0218,-0.8112 -1.0218,-2.4414 0,-1.6302 0.3432,-2.4414 1.0218,-2.4414 0.6786,0 1.0218,0.8112 1.0218,2.4414 z"
           style="font-size:65%;baseline-shift:sub"
           id="path154" />
      </g>
      <g
         aria-label="s"
         id="text26842"
         style="font-style:italic;line-height:0%;font-family:'Bitstream Vera Sans';-inkscape-font-specification:'Sans Italic'">
        <path
           d="m 33.339375,5.1973274 c 0,-0.948 -1.008,-1.44 -1.992,-1.68 -0.576,-0.144 -1.2,-0.384 -1.2,-0.948 0,-0.516 0.528,-0.852 1.104,-0.852 0.636,0 1.272,0.192 1.8,0.54 v -0.504 c -0.528,-0.348 -1.164,-0.54 -1.8,-0.54 -1.044,0 -2.004,0.636 -2.004,1.608 0,0.876 0.972,1.284 1.896,1.512 0.636,0.156 1.296,0.492 1.296,1.104 0,0.564 -0.576,0.912 -1.188,0.912 -0.744,0 -1.464,-0.18 -2.1,-0.54 v 0.504 c 0.636,0.36 1.356,0.54 2.1,0.54 1.08,0 2.088,-0.648 2.088,-1.656 z"
           style="font-style:normal;font-size:12px;line-height:1.25;font-family:Iwona;-inkscape-font-specification:Iwona"
           id="path157" />
      </g>
      <path
         style="fill:#ffeeaa;fill-rule:evenodd;stroke:#000000;stroke-width:1px;stroke-linecap:butt;stroke-linejoin:miter;stroke-opacity:1"
         d="M -8.7703827,-34.671396 V 39.738051 L 12.48946,32.651437 v -60.236219 z"
         id="path26846" />
      <path
         style="fill:none;stroke:#000000;stroke-width:1px;stroke-linecap:butt;stroke-linejoin:miter;stroke-opacity:1"
         d="M 17.716535,67.37838 H 35.433071"
         id="path26848"
         transform="translate(-44.203438,-91.419854)" />
      <path
         style="fill:none;stroke:#000000;stroke-width:1px;stroke-linecap:butt;stroke-linejoin:miter;stroke-opacity:1"
         d="M 12.48946,2.5333275 H 26.662688"
         id="path26850" />
      <g
         aria-label="e1"
         id="text26852"
         style="font-weight:bold;line-height:0%;font-family:Iwona;-inkscape-font-specification:'Iwona Bold';text-align:end;text-anchor:end">
        <path
           d="m -33.268048,-4.6884049 v -0.12 c 0,-1.692 -0.924,-2.82 -2.316,-2.82 -1.404,0 -2.328,1.128 -2.328,2.82 0,1.692 0.924,2.82 2.328,2.82 0.6,0 1.188,-0.192 1.68,-0.54 v -0.504 c -0.564,0.36 -1.02,0.492 -1.68,0.492 -1.02,0 -1.272,-0.972 -1.272,-2.148 z m -1.056,-0.504 h -2.532 c 0,-0.96 0.408,-1.932 1.272,-1.932 0.852,0 1.26,0.972 1.26,1.932 z"
           style="font-weight:normal;font-size:12px;line-height:1.25;-inkscape-font-specification:Iwona"
           id="path160" />
        <path
           d="M -30.094064,0.29159522 V -5.0904046 h -0.4524 c -0.429,0.4914 -0.936,0.9126 -1.4976,1.2402 v 0.3276 c 0.4758,-0.2262 0.9204,-0.4914 1.3416,-0.8112 v 4.62539982 z"
           style="font-size:65%;baseline-shift:sub"
           id="path162" />
      </g>
      <path
         id="path26856"
         d="M -26.486903,-6.3249414 H -8.770367"
         style="fill:none;stroke:#000000;stroke-width:1px;stroke-linecap:butt;stroke-linejoin:miter;stroke-opacity:1" />
      <g
         aria-label="00"
         id="text26858"
         style="font-weight:bold;line-height:0%;font-family:Iwona;-inkscape-font-specification:'Iwona Bold'">
        <path
           d="m -0.40707558,-23.948167 c 0,-2.37 -0.73000002,-3.55 -2.19000002,-3.55 -1.46,0 -2.19,1.18 -2.19,3.55 0,2.37 0.73,3.55 2.19,3.55 1.46,0 2.19000002,-1.18 2.19000002,-3.55 z m -0.88000002,0 c 0,2.09 -0.44,3.13 -1.31,3.13 -0.87,0 -1.31,-1.04 -1.31,-3.13 0,-2.09 0.44,-3.13 1.31,-3.13 0.87,0 1.31,1.04 1.31,3.13 z"
           style="font-weight:normal;font-size:10px;line-height:1.25;-inkscape-font-specification:Iwona"
           id="path165" />
        <path
           d="m 4.8429206,-23.948167 c 0,-2.37 -0.73,-3.55 -2.19,-3.55 -1.46,0 -2.18999999,1.18 -2.18999999,3.55 0,2.37 0.72999999,3.55 2.18999999,3.55 1.46,0 2.19,-1.18 2.19,-3.55 z m -0.88,0 c 0,2.09 -0.44,3.13 -1.31,3.13 -0.87,0 -1.31,-1.04 -1.31,-3.13 0,-2.09 0.44,-3.13 1.31,-3.13 0.87,0 1.31,1.04 1.31,3.13 z"
           style="font-weight:normal;font-size:10px;line-height:1.25;-inkscape-font-specification:Iwona"
           id="path167" />
      </g>
      <g
         aria-label="01"
         id="text26862"
         style="font-weight:bold;line-height:0%;font-family:Iwona;-inkscape-font-specification:'Iwona Bold'">
        <path
           d="m -0.40707558,-6.2316346 c 0,-2.37 -0.73000002,-3.55 -2.19000002,-3.55 -1.46,0 -2.19,1.18 -2.19,3.55 0,2.37 0.73,3.55 2.19,3.55 1.46,0 2.19000002,-1.18 2.19000002,-3.55 z m -0.88000002,0 c 0,2.09 -0.44,3.13 -1.31,3.13 -0.87,0 -1.31,-1.04 -1.31,-3.13 0,-2.09 0.44,-3.13 1.31,-3.13 0.87,0 1.31,1.04 1.31,3.13 z"
           style="font-weight:normal;font-size:10px;line-height:1.25;-inkscape-font-specification:Iwona"
           id="path170" />
        <path
           d="m 3.3229206,-2.7816346 v -6.9 h -0.58 c -0.55,0.63 -1.2,1.17 -1.91999999,1.59 v 0.42 c 0.60999999,-0.29 1.17999999,-0.63 1.71999999,-1.04 v 5.93 z"
           style="font-weight:normal;font-size:10px;line-height:1.25;-inkscape-font-specification:Iwona"
           id="path172" />
      </g>
      <g
         aria-label="a1"
         id="text26868"
         style="font-weight:bold;line-height:0%;font-family:Iwona;-inkscape-font-specification:'Iwona Bold';text-align:end;text-anchor:end">
        <path
           d="m -9.0184235,57.454586 v -3.36 c 0,-1.128 -0.696,-2.16 -1.7400005,-2.16 -0.768,0 -1.488,0.264 -2.136,0.672 v 0.372 c 0.54,-0.3 1.14,-0.492 1.764,-0.492 0.744,0 1.1760005,0.792 1.1760005,1.608 v 0.216 c -0.4680005,-0.204 -0.9720005,-0.324 -1.4760005,-0.324 -1.284,0 -2.232,0.588 -2.232,1.8 0,1.152 0.84,1.788 2.052,1.788 0.612,0 1.176,-0.276 1.6560005,-0.66 v 0.54 z m -0.936,-1.044 c -0.3600005,0.36 -0.8040005,0.66 -1.3200005,0.66 -0.804,0 -1.332,-0.492 -1.332,-1.284 0,-0.732 0.6,-1.296 1.332,-1.296 0.456,0 0.912,0.12 1.3200005,0.324 z"
           style="font-weight:normal;font-size:12px;line-height:1.25;-inkscape-font-specification:Iwona"
           id="path175" />
        <path
           d="m -5.484434,59.854586 v -5.382 h -0.4524 c -0.429,0.4914 -0.936,0.9126 -1.4976,1.2402 v 0.3276 c 0.4758,-0.2262 0.9204,-0.4914 1.3416,-0.8112 v 4.6254 z"
           style="font-size:65%;baseline-shift:sub"
           id="path177" />
      </g>
      <g
         aria-label="e2"
         id="text26872"
         style="font-weight:bold;line-height:0%;font-family:Iwona;-inkscape-font-specification:'Iwona Bold';text-align:end;text-anchor:end">
        <path
           d="m -33.268048,13.02813 v -0.12 c 0,-1.692 -0.924,-2.82 -2.316,-2.82 -1.404,0 -2.328,1.128 -2.328,2.82 0,1.692 0.924,2.82 2.328,2.82 0.6,0 1.188,-0.192 1.68,-0.54 v -0.504 c -0.564,0.36 -1.02,0.492 -1.68,0.492 -1.02,0 -1.272,-0.972 -1.272,-2.148 z m -1.056,-0.504 h -2.532 c 0,-0.96 0.408,-1.932 1.272,-1.932 0.852,0 1.26,0.972 1.26,1.932 z"
           style="font-weight:normal;font-size:12px;line-height:1.25;-inkscape-font-specification:Iwona"
           id="path180" />
        <path
           d="m -28.963064,18.008131 v -0.4836 h -2.7534 l 1.4352,-1.4196 c 0.6396,-0.6396 1.2402,-1.3884 1.2402,-2.2932 0,-0.7644 -0.7566,-1.2636 -1.5756,-1.2636 -0.6162,0 -1.2012,0.2808 -1.5834,0.7566 v 0.3276 c 0.3978,-0.4602 0.975,-0.7254 1.5834,-0.7254 0.5226,0 0.9672,0.39 0.9672,0.9048 0,0.7722 -0.3588,1.4898 -0.8892,2.0436 l -1.7394,1.7862 v 0.3666 z"
           style="font-size:65%;baseline-shift:sub"
           id="path182" />
      </g>
      <path
         style="fill:none;stroke:#000000;stroke-width:1px;stroke-linecap:butt;stroke-linejoin:miter;stroke-opacity:1"
         d="M -26.486903,11.391594 H -8.770367"
         id="path26876" />
      <g
         aria-label="10"
         id="text26878"
         style="font-weight:bold;line-height:0%;font-family:Iwona;-inkscape-font-specification:'Iwona Bold'">
        <path
           d="M -1.9270756,14.934901 V 8.0349012 h -0.58 c -0.55,0.63 -1.2,1.17 -1.92,1.59 v 0.4199998 c 0.61,-0.2899998 1.18,-0.6299998 1.72,-1.0399998 v 5.9299998 z"
           style="font-weight:normal;font-size:10px;line-height:1.25;-inkscape-font-specification:Iwona"
           id="path185" />
        <path
           d="m 4.8429206,11.484901 c 0,-2.3699998 -0.73,-3.5499998 -2.19,-3.5499998 -1.46,0 -2.18999999,1.18 -2.18999999,3.5499998 0,2.37 0.72999999,3.55 2.18999999,3.55 1.46,0 2.19,-1.18 2.19,-3.55 z m -0.88,0 c 0,2.09 -0.44,3.13 -1.31,3.13 -0.87,0 -1.31,-1.04 -1.31,-3.13 0,-2.0899998 0.44,-3.1299998 1.31,-3.1299998 0.87,0 1.31,1.04 1.31,3.1299998 z"
           style="font-weight:normal;font-size:10px;line-height:1.25;-inkscape-font-specification:Iwona"
           id="path187" />
      </g>
      <g
         aria-label="e3"
         id="text26882"
         style="font-weight:bold;line-height:0%;font-family:Iwona;-inkscape-font-specification:'Iwona Bold';text-align:end;text-anchor:end">
        <path
           d="m -33.268048,30.744665 v -0.12 c 0,-1.692 -0.924,-2.82 -2.316,-2.82 -1.404,0 -2.328,1.128 -2.328,2.82 0,1.692 0.924,2.82 2.328,2.82 0.6,0 1.188,-0.192 1.68,-0.54 v -0.504 c -0.564,0.36 -1.02,0.492 -1.68,0.492 -1.02,0 -1.272,-0.972 -1.272,-2.148 z m -1.056,-0.504 h -2.532 c 0,-0.96 0.408,-1.932 1.272,-1.932 0.852,0 1.26,0.972 1.26,1.932 z"
           style="font-weight:normal;font-size:12px;line-height:1.25;-inkscape-font-specification:Iwona"
           id="path190" />
        <path
           d="m -28.963064,34.242665 c 0,-0.6864 -0.4836,-1.2792 -1.1544,-1.482 0.5928,-0.1716 0.9594,-0.6162 0.9594,-1.209 0,-0.7722 -0.624,-1.287 -1.56,-1.287 -0.507,0 -0.9984,0.1716 -1.3962,0.4836 v 0.3276 c 0.3978,-0.312 0.8892,-0.4836 1.3962,-0.4836 0.5694,0 0.9516,0.3822 0.9516,0.9594 0,0.9282 -0.429,1.17 -1.404,1.17 v 0.2886 c 1.053,0 1.521,0.2496 1.521,1.2324 0,0.6786 -0.4368,1.2324 -0.9672,1.2324 -0.5928,0 -1.17,-0.1716 -1.6614,-0.4836 v 0.3276 c 0.4914,0.312 1.0686,0.4836 1.6614,0.4836 0.9048,0 1.6536,-0.702 1.6536,-1.56 z"
           style="font-size:65%;baseline-shift:sub"
           id="path192" />
      </g>
      <path
         id="path26886"
         d="M -26.486903,29.108129 H -8.770367"
         style="fill:none;stroke:#000000;stroke-width:1px;stroke-linecap:butt;stroke-linejoin:miter;stroke-opacity:1" />
      <g
         aria-label="11"
         id="text26888"
         style="font-weight:bold;line-height:0%;font-family:Iwona;-inkscape-font-specification:'Iwona Bold'">
        <path
           d="m -1.9270756,32.651436 v -6.9 h -0.58 c -0.55,0.63 -1.2,1.17 -1.92,1.59 v 0.42 c 0.61,-0.29 1.18,-0.63 1.72,-1.04 v 5.93 z"
           style="font-weight:normal;font-size:10px;line-height:1.25;-inkscape-font-specification:Iwona"
           id="path195" />
        <path
           d="m 3.3229206,32.651436 v -6.9 h -0.58 c -0.55,0.63 -1.2,1.17 -1.91999999,1.59 v 0.42 c 0.60999999,-0.29 1.17999999,-0.63 1.71999999,-1.04 v 5.93 z"
           style="font-weight:normal;font-size:10px;line-height:1.25;-inkscape-font-specification:Iwona"
           id="path197" />
      </g>
      <path
         id="path26892"
         d="M 1.8605778,50.367973 V 36.194744"
         style="fill:none;stroke:#000000;stroke-width:1px;stroke-linecap:butt;stroke-linejoin:miter;stroke-opacity:1" />
      <g
         aria-label="a0"
         id="text26894"
         style="font-weight:bold;line-height:0%;font-family:Iwona;-inkscape-font-specification:'Iwona Bold'">
        <path
           d="m 10.587885,57.454586 v -3.36 c 0,-1.128 -0.6960001,-2.16 -1.7400001,-2.16 -0.768,0 -1.488,0.264 -2.136,0.672 v 0.372 c 0.54,-0.3 1.14,-0.492 1.764,-0.492 0.744,0 1.176,0.792 1.176,1.608 v 0.216 c -0.468,-0.204 -0.972,-0.324 -1.476,-0.324 -1.284,0 -2.232,0.588 -2.232,1.8 0,1.152 0.84,1.788 2.052,1.788 0.612,0 1.176,-0.276 1.656,-0.66 v 0.54 z m -0.9360001,-1.044 c -0.36,0.36 -0.804,0.66 -1.32,0.66 -0.804,0 -1.332,-0.492 -1.332,-1.284 0,-0.732 0.6,-1.296 1.332,-1.296 0.456,0 0.912,0.12 1.32,0.324 z"
           style="font-weight:normal;font-size:12px;line-height:1.25;-inkscape-font-specification:Iwona"
           id="path200" />
        <path
           d="m 15.307474,57.163586 c 0,-1.8486 -0.5694,-2.769 -1.7082,-2.769 -1.1388,0 -1.7082,0.9204 -1.7082,2.769 0,1.8486 0.5694,2.769 1.7082,2.769 1.1388,0 1.7082,-0.9204 1.7082,-2.769 z m -0.6864,0 c 0,1.6302 -0.3432,2.4414 -1.0218,2.4414 -0.6786,0 -1.0218,-0.8112 -1.0218,-2.4414 0,-1.6302 0.3432,-2.4414 1.0218,-2.4414 0.6786,0 1.0218,0.8112 1.0218,2.4414 z"
           style="font-size:65%;baseline-shift:sub"
           id="path202" />
      </g>
    </g>
    <g
       id="g27141"
       transform="translate(-634.25197,-609.44881)">
      <path
         style="fill:none;stroke:#000000;stroke-width:1px;stroke-linecap:butt;stroke-linejoin:miter;stroke-opacity:1"
         d="M 931.88976,825.59055 V 807.87401"
         id="path26960" />
      <path
         id="path27008"
         d="M 924.80315,825.59055 V 811.41732"
         style="fill:none;stroke:#000000;stroke-width:1px;stroke-linecap:butt;stroke-linejoin:miter;stroke-opacity:1" />
      <path
         id="path26904"
         d="M 928.34646,825.59055 V 811.41732"
         style="fill:none;stroke:#000000;stroke-width:1px;stroke-linecap:butt;stroke-linejoin:miter;stroke-opacity:1" />
      <g
         aria-label="e0"
         id="text26906"
         style="font-weight:bold;line-height:0%;font-family:Iwona;-inkscape-font-specification:'Iwona Bold';text-align:end;text-anchor:end">
        <path
           d="m 893.2189,703.21132 v -0.12 c 0,-1.692 -0.924,-2.82 -2.316,-2.82 -1.404,0 -2.328,1.128 -2.328,2.82 0,1.692 0.924,2.82 2.328,2.82 0.6,0 1.188,-0.192 1.68,-0.54 v -0.504 c -0.564,0.36 -1.02,0.492 -1.68,0.492 -1.02,0 -1.272,-0.972 -1.272,-2.148 z m -1.056,-0.504 h -2.532 c 0,-0.96 0.408,-1.932 1.272,-1.932 0.852,0 1.26,0.972 1.26,1.932 z"
           style="font-weight:normal;font-size:12px;line-height:1.25;-inkscape-font-specification:Iwona"
           id="path205" />
        <path
           d="m 897.57848,705.50032 c 0,-1.8486 -0.5694,-2.769 -1.7082,-2.769 -1.1388,0 -1.7082,0.9204 -1.7082,2.769 0,1.8486 0.5694,2.769 1.7082,2.769 1.1388,0 1.7082,-0.9204 1.7082,-2.769 z m -0.6864,0 c 0,1.6302 -0.3432,2.4414 -1.0218,2.4414 -0.6786,0 -1.0218,-0.8112 -1.0218,-2.4414 0,-1.6302 0.3432,-2.4414 1.0218,-2.4414 0.6786,0 1.0218,0.8112 1.0218,2.4414 z"
           style="font-size:65%;baseline-shift:sub"
           id="path207" />
      </g>
      <g
         aria-label="s"
         id="text26910"
         style="font-style:italic;line-height:0%;font-family:'Bitstream Vera Sans';-inkscape-font-specification:'Sans Italic'">
        <path
           d="m 963.3696,753.8451 c 0,-0.948 -1.008,-1.44 -1.992,-1.68 -0.576,-0.144 -1.2,-0.384 -1.2,-0.948 0,-0.516 0.528,-0.852 1.104,-0.852 0.636,0 1.272,0.192 1.8,0.54 v -0.504 c -0.528,-0.348 -1.164,-0.54 -1.8,-0.54 -1.044,0 -2.004,0.636 -2.004,1.608 0,0.876 0.972,1.284 1.896,1.512 0.636,0.156 1.296,0.492 1.296,1.104 0,0.564 -0.576,0.912 -1.188,0.912 -0.744,0 -1.464,-0.18 -2.1,-0.54 v 0.504 c 0.636,0.36 1.356,0.54 2.1,0.54 1.08,0 2.088,-0.648 2.088,-1.656 z"
           style="font-style:normal;font-size:12px;line-height:1.25;font-family:Iwona;-inkscape-font-specification:Iwona"
           id="path210" />
      </g>
      <path
         id="path26914"
         d="m 917.71654,687.40157 v 127.55906 l 24.80315,-7.08661 V 694.48819 Z"
         style="fill:#ffeeaa;fill-rule:evenodd;stroke:#000000;stroke-width:1px;stroke-linecap:butt;stroke-linejoin:miter;stroke-opacity:1" />
      <path
         id="path26916"
         d="m 900.00002,701.57481 h 17.71653"
         style="fill:none;stroke:#000000;stroke-width:1px;stroke-linecap:butt;stroke-linejoin:miter;stroke-opacity:1" />
      <path
         id="path26918"
         d="m 942.51969,751.1811 h 14.17322"
         style="fill:none;stroke:#000000;stroke-width:1px;stroke-linecap:butt;stroke-linejoin:miter;stroke-opacity:1" />
      <g
         aria-label="e1"
         id="text26920"
         style="font-weight:bold;line-height:0%;font-family:Iwona;-inkscape-font-specification:'Iwona Bold';text-align:end;text-anchor:end">
        <path
           d="m 893.2189,717.38454 v -0.12 c 0,-1.692 -0.924,-2.82 -2.316,-2.82 -1.404,0 -2.328,1.128 -2.328,2.82 0,1.692 0.924,2.82 2.328,2.82 0.6,0 1.188,-0.192 1.68,-0.54 v -0.504 c -0.564,0.36 -1.02,0.492 -1.68,0.492 -1.02,0 -1.272,-0.972 -1.272,-2.148 z m -1.056,-0.504 h -2.532 c 0,-0.96 0.408,-1.932 1.272,-1.932 0.852,0 1.26,0.972 1.26,1.932 z"
           style="font-weight:normal;font-size:12px;line-height:1.25;-inkscape-font-specification:Iwona"
           id="path213" />
        <path
           d="m 896.39288,722.36454 v -5.382 h -0.4524 c -0.429,0.4914 -0.936,0.9126 -1.4976,1.2402 v 0.3276 c 0.4758,-0.2262 0.9204,-0.4914 1.3416,-0.8112 v 4.6254 z"
           style="font-size:65%;baseline-shift:sub"
           id="path215" />
      </g>
      <path
         style="fill:none;stroke:#000000;stroke-width:1px;stroke-linecap:butt;stroke-linejoin:miter;stroke-opacity:1"
         d="m 900.00002,715.74803 h 17.71653"
         id="path26924" />
      <g
         aria-label="000"
         id="text26926"
         style="font-weight:bold;line-height:0%;font-family:Iwona;-inkscape-font-specification:'Iwona Bold'">
        <path
           d="m 926.07983,701.6681 c 0,-2.37 -0.73,-3.55 -2.19,-3.55 -1.46,0 -2.19,1.18 -2.19,3.55 0,2.37 0.73,3.55 2.19,3.55 1.46,0 2.19,-1.18 2.19,-3.55 z m -0.88,0 c 0,2.09 -0.44,3.13 -1.31,3.13 -0.87,0 -1.31,-1.04 -1.31,-3.13 0,-2.09 0.44,-3.13 1.31,-3.13 0.87,0 1.31,1.04 1.31,3.13 z"
           style="font-weight:normal;font-size:10px;line-height:1.25;-inkscape-font-specification:Iwona"
           id="path218" />
        <path
           d="m 931.32982,701.6681 c 0,-2.37 -0.73,-3.55 -2.19,-3.55 -1.46,0 -2.19,1.18 -2.19,3.55 0,2.37 0.73,3.55 2.19,3.55 1.46,0 2.19,-1.18 2.19,-3.55 z m -0.88,0 c 0,2.09 -0.44,3.13 -1.31,3.13 -0.87,0 -1.31,-1.04 -1.31,-3.13 0,-2.09 0.44,-3.13 1.31,-3.13 0.87,0 1.31,1.04 1.31,3.13 z"
           style="font-weight:normal;font-size:10px;line-height:1.25;-inkscape-font-specification:Iwona"
           id="path220" />
        <path
           d="m 936.57982,701.6681 c 0,-2.37 -0.73,-3.55 -2.19,-3.55 -1.46,0 -2.19,1.18 -2.19,3.55 0,2.37 0.73,3.55 2.19,3.55 1.46,0 2.19,-1.18 2.19,-3.55 z m -0.88,0 c 0,2.09 -0.44,3.13 -1.31,3.13 -0.87,0 -1.31,-1.04 -1.31,-3.13 0,-2.09 0.44,-3.13 1.31,-3.13 0.87,0 1.31,1.04 1.31,3.13 z"
           style="font-weight:normal;font-size:10px;line-height:1.25;-inkscape-font-specification:Iwona"
           id="path222" />
      </g>
      <g
         aria-label="001"
         id="text26930"
         style="font-weight:bold;line-height:0%;font-family:Iwona;-inkscape-font-specification:'Iwona Bold'">
        <path
           d="m 926.07983,715.84132 c 0,-2.37 -0.73,-3.55 -2.19,-3.55 -1.46,0 -2.19,1.18 -2.19,3.55 0,2.37 0.73,3.55 2.19,3.55 1.46,0 2.19,-1.18 2.19,-3.55 z m -0.88,0 c 0,2.09 -0.44,3.13 -1.31,3.13 -0.87,0 -1.31,-1.04 -1.31,-3.13 0,-2.09 0.44,-3.13 1.31,-3.13 0.87,0 1.31,1.04 1.31,3.13 z"
           style="font-weight:normal;font-size:10px;line-height:1.25;-inkscape-font-specification:Iwona"
           id="path225" />
        <path
           d="m 931.32982,715.84132 c 0,-2.37 -0.73,-3.55 -2.19,-3.55 -1.46,0 -2.19,1.18 -2.19,3.55 0,2.37 0.73,3.55 2.19,3.55 1.46,0 2.19,-1.18 2.19,-3.55 z m -0.88,0 c 0,2.09 -0.44,3.13 -1.31,3.13 -0.87,0 -1.31,-1.04 -1.31,-3.13 0,-2.09 0.44,-3.13 1.31,-3.13 0.87,0 1.31,1.04 1.31,3.13 z"
           style="font-weight:normal;font-size:10px;line-height:1.25;-inkscape-font-specification:Iwona"
           id="path227" />
        <path
           d="m 935.05982,719.29132 v -6.9 h -0.58 c -0.55,0.63 -1.2,1.17 -1.92,1.59 v 0.42 c 0.61,-0.29 1.18,-0.63 1.72,-1.04 v 5.93 z"
           style="font-weight:normal;font-size:10px;line-height:1.25;-inkscape-font-specification:Iwona"
           id="path229" />
      </g>
      <g
         aria-label="a2"
         id="text26934"
         style="font-weight:bold;line-height:0%;font-family:Iwona;-inkscape-font-specification:'Iwona Bold';text-align:end;text-anchor:end">
        <path
           d="m 916.20484,829.13385 v -3.36 c 0,-1.128 -0.696,-2.16 -1.74,-2.16 -0.768,0 -1.488,0.264 -2.136,0.672 v 0.372 c 0.54,-0.3 1.14,-0.492 1.764,-0.492 0.744,0 1.176,0.792 1.176,1.608 v 0.216 c -0.468,-0.204 -0.972,-0.324 -1.476,-0.324 -1.284,0 -2.232,0.588 -2.232,1.8 0,1.152 0.84,1.788 2.052,1.788 0.612,0 1.176,-0.276 1.656,-0.66 v 0.54 z m -0.936,-1.044 c -0.36,0.36 -0.804,0.66 -1.32,0.66 -0.804,0 -1.332,-0.492 -1.332,-1.284 0,-0.732 0.6,-1.296 1.332,-1.296 0.456,0 0.912,0.12 1.32,0.324 z"
           style="font-weight:normal;font-size:12px;line-height:1.25;-inkscape-font-specification:Iwona"
           id="path232" />
        <path
           d="m 920.86983,831.53385 v -0.4836 h -2.7534 l 1.4352,-1.4196 c 0.6396,-0.6396 1.2402,-1.3884 1.2402,-2.2932 0,-0.7644 -0.7566,-1.2636 -1.5756,-1.2636 -0.6162,0 -1.2012,0.2808 -1.5834,0.7566 v 0.3276 c 0.3978,-0.4602 0.975,-0.7254 1.5834,-0.7254 0.5226,0 0.9672,0.39 0.9672,0.9048 0,0.7722 -0.3588,1.4898 -0.8892,2.0436 l -1.7394,1.7862 v 0.3666 z"
           style="font-size:65%;baseline-shift:sub"
           id="path234" />
      </g>
      <g
         aria-label="e2"
         id="text26940"
         style="font-weight:bold;line-height:0%;font-family:Iwona;-inkscape-font-specification:'Iwona Bold';text-align:end;text-anchor:end">
        <path
           d="m 893.2189,731.55782 v -0.12 c 0,-1.692 -0.924,-2.82 -2.316,-2.82 -1.404,0 -2.328,1.128 -2.328,2.82 0,1.692 0.924,2.82 2.328,2.82 0.6,0 1.188,-0.192 1.68,-0.54 v -0.504 c -0.564,0.36 -1.02,0.492 -1.68,0.492 -1.02,0 -1.272,-0.972 -1.272,-2.148 z m -1.056,-0.504 h -2.532 c 0,-0.96 0.408,-1.932 1.272,-1.932 0.852,0 1.26,0.972 1.26,1.932 z"
           style="font-weight:normal;font-size:12px;line-height:1.25;-inkscape-font-specification:Iwona"
           id="path237" />
        <path
           d="m 897.52388,736.53782 v -0.4836 h -2.7534 l 1.4352,-1.4196 c 0.6396,-0.6396 1.2402,-1.3884 1.2402,-2.2932 0,-0.7644 -0.7566,-1.2636 -1.5756,-1.2636 -0.6162,0 -1.2012,0.2808 -1.5834,0.7566 v 0.3276 c 0.3978,-0.4602 0.975,-0.7254 1.5834,-0.7254 0.5226,0 0.9672,0.39 0.9672,0.9048 0,0.7722 -0.3588,1.4898 -0.8892,2.0436 l -1.7394,1.7862 v 0.3666 z"
           style="font-size:65%;baseline-shift:sub"
           id="path239" />
      </g>
      <path
         id="path26944"
         d="m 900.00002,729.92126 h 17.71653"
         style="fill:none;stroke:#000000;stroke-width:1px;stroke-linecap:butt;stroke-linejoin:miter;stroke-opacity:1" />
      <g
         aria-label="010"
         id="text26946"
         style="font-weight:bold;line-height:0%;font-family:Iwona;-inkscape-font-specification:'Iwona Bold'">
        <path
           d="m 926.07983,730.01454 c 0,-2.37 -0.73,-3.55 -2.19,-3.55 -1.46,0 -2.19,1.18 -2.19,3.55 0,2.37 0.73,3.55 2.19,3.55 1.46,0 2.19,-1.18 2.19,-3.55 z m -0.88,0 c 0,2.09 -0.44,3.13 -1.31,3.13 -0.87,0 -1.31,-1.04 -1.31,-3.13 0,-2.09 0.44,-3.13 1.31,-3.13 0.87,0 1.31,1.04 1.31,3.13 z"
           style="font-weight:normal;font-size:10px;line-height:1.25;-inkscape-font-specification:Iwona"
           id="path242" />
        <path
           d="m 929.80982,733.46454 v -6.9 h -0.58 c -0.55,0.63 -1.2,1.17 -1.92,1.59 v 0.42 c 0.61,-0.29 1.18,-0.63 1.72,-1.04 v 5.93 z"
           style="font-weight:normal;font-size:10px;line-height:1.25;-inkscape-font-specification:Iwona"
           id="path244" />
        <path
           d="m 936.57982,730.01454 c 0,-2.37 -0.73,-3.55 -2.19,-3.55 -1.46,0 -2.19,1.18 -2.19,3.55 0,2.37 0.73,3.55 2.19,3.55 1.46,0 2.19,-1.18 2.19,-3.55 z m -0.88,0 c 0,2.09 -0.44,3.13 -1.31,3.13 -0.87,0 -1.31,-1.04 -1.31,-3.13 0,-2.09 0.44,-3.13 1.31,-3.13 0.87,0 1.31,1.04 1.31,3.13 z"
           style="font-weight:normal;font-size:10px;line-height:1.25;-inkscape-font-specification:Iwona"
           id="path246" />
      </g>
      <g
         aria-label="e3"
         id="text26950"
         style="font-weight:bold;line-height:0%;font-family:Iwona;-inkscape-font-specification:'Iwona Bold';text-align:end;text-anchor:end">
        <path
           d="m 893.2189,745.73104 v -0.12 c 0,-1.692 -0.924,-2.82 -2.316,-2.82 -1.404,0 -2.328,1.128 -2.328,2.82 0,1.692 0.924,2.82 2.328,2.82 0.6,0 1.188,-0.192 1.68,-0.54 v -0.504 c -0.564,0.36 -1.02,0.492 -1.68,0.492 -1.02,0 -1.272,-0.972 -1.272,-2.148 z m -1.056,-0.504 h -2.532 c 0,-0.96 0.408,-1.932 1.272,-1.932 0.852,0 1.26,0.972 1.26,1.932 z"
           style="font-weight:normal;font-size:12px;line-height:1.25;-inkscape-font-specification:Iwona"
           id="path249" />
        <path
           d="m 897.52388,749.22904 c 0,-0.6864 -0.4836,-1.2792 -1.1544,-1.482 0.5928,-0.1716 0.9594,-0.6162 0.9594,-1.209 0,-0.7722 -0.624,-1.287 -1.56,-1.287 -0.507,0 -0.9984,0.1716 -1.3962,0.4836 v 0.3276 c 0.3978,-0.312 0.8892,-0.4836 1.3962,-0.4836 0.5694,0 0.9516,0.3822 0.9516,0.9594 0,0.9282 -0.429,1.17 -1.404,1.17 v 0.2886 c 1.053,0 1.521,0.2496 1.521,1.2324 0,0.6786 -0.4368,1.2324 -0.9672,1.2324 -0.5928,0 -1.17,-0.1716 -1.6614,-0.4836 v 0.3276 c 0.4914,0.312 1.0686,0.4836 1.6614,0.4836 0.9048,0 1.6536,-0.702 1.6536,-1.56 z"
           style="font-size:65%;baseline-shift:sub"
           id="path251" />
      </g>
      <path
         style="fill:none;stroke:#000000;stroke-width:1px;stroke-linecap:butt;stroke-linejoin:miter;stroke-opacity:1"
         d="m 900.00002,744.09449 h 17.71653"
         id="path26954" />
      <g
         aria-label="011"
         id="text26956"
         style="font-weight:bold;line-height:0%;font-family:Iwona;-inkscape-font-specification:'Iwona Bold'">
        <path
           d="m 926.07983,744.18782 c 0,-2.37 -0.73,-3.55 -2.19,-3.55 -1.46,0 -2.19,1.18 -2.19,3.55 0,2.37 0.73,3.55 2.19,3.55 1.46,0 2.19,-1.18 2.19,-3.55 z m -0.88,0 c 0,2.09 -0.44,3.13 -1.31,3.13 -0.87,0 -1.31,-1.04 -1.31,-3.13 0,-2.09 0.44,-3.13 1.31,-3.13 0.87,0 1.31,1.04 1.31,3.13 z"
           style="font-weight:normal;font-size:10px;line-height:1.25;-inkscape-font-specification:Iwona"
           id="path254" />
        <path
           d="m 929.80982,747.63782 v -6.9 h -0.58 c -0.55,0.63 -1.2,1.17 -1.92,1.59 v 0.42 c 0.61,-0.29 1.18,-0.63 1.72,-1.04 v 5.93 z"
           style="font-weight:normal;font-size:10px;line-height:1.25;-inkscape-font-specification:Iwona"
           id="path256" />
        <path
           d="m 935.05982,747.63782 v -6.9 h -0.58 c -0.55,0.63 -1.2,1.17 -1.92,1.59 v 0.42 c 0.61,-0.29 1.18,-0.63 1.72,-1.04 v 5.93 z"
           style="font-weight:normal;font-size:10px;line-height:1.25;-inkscape-font-specification:Iwona"
           id="path258" />
      </g>
      <g
         aria-label="a0"
         id="text26962"
         style="font-weight:bold;line-height:0%;font-family:Iwona;-inkscape-font-specification:'Iwona Bold'">
        <path
           d="m 940.61704,829.13385 v -3.36 c 0,-1.128 -0.696,-2.16 -1.74,-2.16 -0.768,0 -1.488,0.264 -2.136,0.672 v 0.372 c 0.54,-0.3 1.14,-0.492 1.764,-0.492 0.744,0 1.176,0.792 1.176,1.608 v 0.216 c -0.468,-0.204 -0.972,-0.324 -1.476,-0.324 -1.284,0 -2.232,0.588 -2.232,1.8 0,1.152 0.84,1.788 2.052,1.788 0.612,0 1.176,-0.276 1.656,-0.66 v 0.54 z m -0.936,-1.044 c -0.36,0.36 -0.804,0.66 -1.32,0.66 -0.804,0 -1.332,-0.492 -1.332,-1.284 0,-0.732 0.6,-1.296 1.332,-1.296 0.456,0 0.912,0.12 1.32,0.324 z"
           style="font-weight:normal;font-size:12px;line-height:1.25;-inkscape-font-specification:Iwona"
           id="path261" />
        <path
           d="m 945.33663,828.84285 c 0,-1.8486 -0.5694,-2.769 -1.7082,-2.769 -1.1388,0 -1.7082,0.9204 -1.7082,2.769 0,1.8486 0.5694,2.769 1.7082,2.769 1.1388,0 1.7082,-0.9204 1.7082,-2.769 z m -0.6864,0 c 0,1.6302 -0.3432,2.4414 -1.0218,2.4414 -0.6786,0 -1.0218,-0.8112 -1.0218,-2.4414 0,-1.6302 0.3432,-2.4414 1.0218,-2.4414 0.6786,0 1.0218,0.8112 1.0218,2.4414 z"
           style="font-size:65%;baseline-shift:sub"
           id="path263" />
      </g>
      <g
         aria-label="e4"
         id="text26968"
         style="font-weight:bold;line-height:0%;font-family:Iwona;-inkscape-font-specification:'Iwona Bold';text-align:end;text-anchor:end">
        <path
           d="m 893.2189,759.23104 v -0.12 c 0,-1.692 -0.924,-2.82 -2.316,-2.82 -1.404,0 -2.328,1.128 -2.328,2.82 0,1.692 0.924,2.82 2.328,2.82 0.6,0 1.188,-0.192 1.68,-0.54 v -0.504 c -0.564,0.36 -1.02,0.492 -1.68,0.492 -1.02,0 -1.272,-0.972 -1.272,-2.148 z m -1.056,-0.504 h -2.532 c 0,-0.96 0.408,-1.932 1.272,-1.932 0.852,0 1.26,0.972 1.26,1.932 z"
           style="font-weight:normal;font-size:12px;line-height:1.25;-inkscape-font-specification:Iwona"
           id="path266" />
        <path
           d="m 897.52388,762.33904 v -0.3588 h -0.585 v -3.1512 h -0.6084 l -2.1216,3.1512 v 0.3588 h 2.1216 v 1.872 h 0.6084 v -1.872 z m -1.1934,-0.3588 h -1.7238 l 1.7238,-2.5662 z"
           style="font-size:65%;baseline-shift:sub"
           id="path268" />
      </g>
      <path
         style="fill:none;stroke:#000000;stroke-width:1px;stroke-linecap:butt;stroke-linejoin:miter;stroke-opacity:1"
         d="m 900.00002,757.59449 h 17.71653"
         id="path26972" />
      <g
         aria-label="e5"
         id="text26974"
         style="font-weight:bold;line-height:0%;font-family:Iwona;-inkscape-font-specification:'Iwona Bold';text-align:end;text-anchor:end">
        <path
           d="m 893.2189,773.40425 v -0.12 c 0,-1.692 -0.924,-2.82 -2.316,-2.82 -1.404,0 -2.328,1.128 -2.328,2.82 0,1.692 0.924,2.82 2.328,2.82 0.6,0 1.188,-0.192 1.68,-0.54 v -0.504 c -0.564,0.36 -1.02,0.492 -1.68,0.492 -1.02,0 -1.272,-0.972 -1.272,-2.148 z m -1.056,-0.504 h -2.532 c 0,-0.96 0.408,-1.932 1.272,-1.932 0.852,0 1.26,0.972 1.26,1.932 z"
           style="font-weight:normal;font-size:12px;line-height:1.25;-inkscape-font-specification:Iwona"
           id="path271" />
        <path
           d="m 897.52388,776.62925 c 0,-1.0998 -0.663,-1.833 -1.6536,-1.833 -0.4524,0 -0.8736,0.1716 -1.2012,0.4602 l 0.078,-1.7706 h 2.6208 v -0.4836 h -2.925 l -0.117,2.691 0.3276,0.0156 c 0.2964,-0.3666 0.741,-0.585 1.2168,-0.585 0.5772,0 0.9672,0.6006 0.9672,1.5054 0,0.9048 -0.39,1.5054 -0.9672,1.5054 -0.6006,0 -1.1856,-0.195 -1.6614,-0.5616 v 0.3276 c 0.4758,0.3666 1.0608,0.5616 1.6614,0.5616 0.9906,0 1.6536,-0.7332 1.6536,-1.833 z"
           style="font-size:65%;baseline-shift:sub"
           id="path273" />
      </g>
      <path
         id="path26978"
         d="m 900.00002,771.76771 h 17.71653"
         style="fill:none;stroke:#000000;stroke-width:1px;stroke-linecap:butt;stroke-linejoin:miter;stroke-opacity:1" />
      <g
         aria-label="100"
         id="text26980"
         style="font-weight:bold;line-height:0%;font-family:Iwona;-inkscape-font-specification:'Iwona Bold'">
        <path
           d="m 924.55983,761.13782 v -6.9 h -0.58 c -0.55,0.63 -1.2,1.17 -1.92,1.59 v 0.42 c 0.61,-0.29 1.18,-0.63 1.72,-1.04 v 5.93 z"
           style="font-weight:normal;font-size:10px;line-height:1.25;-inkscape-font-specification:Iwona"
           id="path276" />
        <path
           d="m 931.32982,757.68782 c 0,-2.37 -0.73,-3.55 -2.19,-3.55 -1.46,0 -2.19,1.18 -2.19,3.55 0,2.37 0.73,3.55 2.19,3.55 1.46,0 2.19,-1.18 2.19,-3.55 z m -0.88,0 c 0,2.09 -0.44,3.13 -1.31,3.13 -0.87,0 -1.31,-1.04 -1.31,-3.13 0,-2.09 0.44,-3.13 1.31,-3.13 0.87,0 1.31,1.04 1.31,3.13 z"
           style="font-weight:normal;font-size:10px;line-height:1.25;-inkscape-font-specification:Iwona"
           id="path278" />
        <path
           d="m 936.57982,757.68782 c 0,-2.37 -0.73,-3.55 -2.19,-3.55 -1.46,0 -2.19,1.18 -2.19,3.55 0,2.37 0.73,3.55 2.19,3.55 1.46,0 2.19,-1.18 2.19,-3.55 z m -0.88,0 c 0,2.09 -0.44,3.13 -1.31,3.13 -0.87,0 -1.31,-1.04 -1.31,-3.13 0,-2.09 0.44,-3.13 1.31,-3.13 0.87,0 1.31,1.04 1.31,3.13 z"
           style="font-weight:normal;font-size:10px;line-height:1.25;-inkscape-font-specification:Iwona"
           id="path280" />
      </g>
      <g
         aria-label="101"
         id="text26984"
         style="font-weight:bold;line-height:0%;font-family:Iwona;-inkscape-font-specification:'Iwona Bold'">
        <path
           d="m 924.55983,775.31104 v -6.9 h -0.58 c -0.55,0.63 -1.2,1.17 -1.92,1.59 v 0.42 c 0.61,-0.29 1.18,-0.63 1.72,-1.04 v 5.93 z"
           style="font-weight:normal;font-size:10px;line-height:1.25;-inkscape-font-specification:Iwona"
           id="path283" />
        <path
           d="m 931.32982,771.86104 c 0,-2.37 -0.73,-3.55 -2.19,-3.55 -1.46,0 -2.19,1.18 -2.19,3.55 0,2.37 0.73,3.55 2.19,3.55 1.46,0 2.19,-1.18 2.19,-3.55 z m -0.88,0 c 0,2.09 -0.44,3.13 -1.31,3.13 -0.87,0 -1.31,-1.04 -1.31,-3.13 0,-2.09 0.44,-3.13 1.31,-3.13 0.87,0 1.31,1.04 1.31,3.13 z"
           style="font-weight:normal;font-size:10px;line-height:1.25;-inkscape-font-specification:Iwona"
           id="path285" />
        <path
           d="m 935.05982,775.31104 v -6.9 h -0.58 c -0.55,0.63 -1.2,1.17 -1.92,1.59 v 0.42 c 0.61,-0.29 1.18,-0.63 1.72,-1.04 v 5.93 z"
           style="font-weight:normal;font-size:10px;line-height:1.25;-inkscape-font-specification:Iwona"
           id="path287" />
      </g>
      <g
         aria-label="e6"
         id="text26988"
         style="font-weight:bold;line-height:0%;font-family:Iwona;-inkscape-font-specification:'Iwona Bold';text-align:end;text-anchor:end">
        <path
           d="m 893.2189,787.57747 v -0.12 c 0,-1.692 -0.924,-2.82 -2.316,-2.82 -1.404,0 -2.328,1.128 -2.328,2.82 0,1.692 0.924,2.82 2.328,2.82 0.6,0 1.188,-0.192 1.68,-0.54 v -0.504 c -0.564,0.36 -1.02,0.492 -1.68,0.492 -1.02,0 -1.272,-0.972 -1.272,-2.148 z m -1.056,-0.504 h -2.532 c 0,-0.96 0.408,-1.932 1.272,-1.932 0.852,0 1.26,0.972 1.26,1.932 z"
           style="font-weight:normal;font-size:12px;line-height:1.25;-inkscape-font-specification:Iwona"
           id="path290" />
        <path
           d="m 897.52388,790.80247 c 0,-1.1232 -0.4446,-1.833 -1.4898,-1.833 -0.4524,0 -0.8736,0.2106 -1.1388,0.5694 0,-1.0218 0.2574,-2.1138 1.1388,-2.1138 0.3978,0 0.7878,0.1326 1.0998,0.3822 v -0.3276 c -0.312,-0.2496 -0.702,-0.3822 -1.0998,-0.3822 -1.2246,0 -1.8252,1.3884 -1.8252,2.769 0,1.9344 0.4992,2.769 1.6614,2.769 0.9906,0 1.6536,-0.7332 1.6536,-1.833 z m -0.6864,0 c 0,0.9048 -0.39,1.5054 -0.9672,1.5054 -1.092,0 -0.975,-1.1778 -0.975,-2.4414 0.2652,-0.3588 0.6864,-0.5694 1.1388,-0.5694 0.624,0 0.8034,0.78 0.8034,1.5054 z"
           style="font-size:65%;baseline-shift:sub"
           id="path292" />
      </g>
      <path
         style="fill:none;stroke:#000000;stroke-width:1px;stroke-linecap:butt;stroke-linejoin:miter;stroke-opacity:1"
         d="m 900.00002,785.94094 h 17.71653"
         id="path26992" />
      <g
         aria-label="110"
         id="text26994"
         style="font-weight:bold;line-height:0%;font-family:Iwona;-inkscape-font-specification:'Iwona Bold'">
        <path
           d="m 924.55983,789.48425 v -6.9 h -0.58 c -0.55,0.63 -1.2,1.17 -1.92,1.59 v 0.42 c 0.61,-0.29 1.18,-0.63 1.72,-1.04 v 5.93 z"
           style="font-weight:normal;font-size:10px;line-height:1.25;-inkscape-font-specification:Iwona"
           id="path295" />
        <path
           d="m 929.80982,789.48425 v -6.9 h -0.58 c -0.55,0.63 -1.2,1.17 -1.92,1.59 v 0.42 c 0.61,-0.29 1.18,-0.63 1.72,-1.04 v 5.93 z"
           style="font-weight:normal;font-size:10px;line-height:1.25;-inkscape-font-specification:Iwona"
           id="path297" />
        <path
           d="m 936.57982,786.03425 c 0,-2.37 -0.73,-3.55 -2.19,-3.55 -1.46,0 -2.19,1.18 -2.19,3.55 0,2.37 0.73,3.55 2.19,3.55 1.46,0 2.19,-1.18 2.19,-3.55 z m -0.88,0 c 0,2.09 -0.44,3.13 -1.31,3.13 -0.87,0 -1.31,-1.04 -1.31,-3.13 0,-2.09 0.44,-3.13 1.31,-3.13 0.87,0 1.31,1.04 1.31,3.13 z"
           style="font-weight:normal;font-size:10px;line-height:1.25;-inkscape-font-specification:Iwona"
           id="path299" />
      </g>
      <g
         aria-label="e7"
         id="text26998"
         style="font-weight:bold;line-height:0%;font-family:Iwona;-inkscape-font-specification:'Iwona Bold';text-align:end;text-anchor:end">
        <path
           d="m 893.2189,801.75069 v -0.12 c 0,-1.692 -0.924,-2.82 -2.316,-2.82 -1.404,0 -2.328,1.128 -2.328,2.82 0,1.692 0.924,2.82 2.328,2.82 0.6,0 1.188,-0.192 1.68,-0.54 v -0.504 c -0.564,0.36 -1.02,0.492 -1.68,0.492 -1.02,0 -1.272,-0.972 -1.272,-2.148 z m -1.056,-0.504 h -2.532 c 0,-0.96 0.408,-1.932 1.272,-1.932 0.852,0 1.26,0.972 1.26,1.932 z"
           style="font-weight:normal;font-size:12px;line-height:1.25;-inkscape-font-specification:Iwona"
           id="path302" />
        <path
           d="m 897.52388,801.61389 v -0.2652 h -3.315 v 0.4836 h 2.5428 l -2.301,4.8984 h 0.6708 z"
           style="font-size:65%;baseline-shift:sub"
           id="path304" />
      </g>
      <path
         id="path27002"
         d="m 900.00002,800.11417 h 17.71653"
         style="fill:none;stroke:#000000;stroke-width:1px;stroke-linecap:butt;stroke-linejoin:miter;stroke-opacity:1" />
      <g
         aria-label="111"
         id="text27004"
         style="font-weight:bold;line-height:0%;font-family:Iwona;-inkscape-font-specification:'Iwona Bold'">
        <path
           d="m 924.55983,803.65747 v -6.9 h -0.58 c -0.55,0.63 -1.2,1.17 -1.92,1.59 v 0.42 c 0.61,-0.29 1.18,-0.63 1.72,-1.04 v 5.93 z"
           style="font-weight:normal;font-size:10px;line-height:1.25;-inkscape-font-specification:Iwona"
           id="path307" />
        <path
           d="m 929.80982,803.65747 v -6.9 h -0.58 c -0.55,0.63 -1.2,1.17 -1.92,1.59 v 0.42 c 0.61,-0.29 1.18,-0.63 1.72,-1.04 v 5.93 z"
           style="font-weight:normal;font-size:10px;line-height:1.25;-inkscape-font-specification:Iwona"
           id="path309" />
        <path
           d="m 935.05982,803.65747 v -6.9 h -0.58 c -0.55,0.63 -1.2,1.17 -1.92,1.59 v 0.42 c 0.61,-0.29 1.18,-0.63 1.72,-1.04 v 5.93 z"
           style="font-weight:normal;font-size:10px;line-height:1.25;-inkscape-font-specification:Iwona"
           id="path311" />
      </g>
      <g
         aria-label="a1"
         id="text27010"
         style="font-weight:bold;line-height:0%;font-family:Iwona;-inkscape-font-specification:'Iwona Bold';text-align:end;text-anchor:end">
        <path
           d="m 930.37806,836.22046 v -3.36 c 0,-1.128 -0.696,-2.16 -1.74,-2.16 -0.768,0 -1.488,0.264 -2.136,0.672 v 0.372 c 0.54,-0.3 1.14,-0.492 1.764,-0.492 0.744,0 1.176,0.792 1.176,1.608 v 0.216 c -0.468,-0.204 -0.972,-0.324 -1.476,-0.324 -1.284,0 -2.232,0.588 -2.232,1.8 0,1.152 0.84,1.788 2.052,1.788 0.612,0 1.176,-0.276 1.656,-0.66 v 0.54 z m -0.936,-1.044 c -0.36,0.36 -0.804,0.66 -1.32,0.66 -0.804,0 -1.332,-0.492 -1.332,-1.284 0,-0.732 0.6,-1.296 1.332,-1.296 0.456,0 0.912,0.12 1.32,0.324 z"
           style="font-weight:normal;font-size:12px;line-height:1.25;-inkscape-font-specification:Iwona"
           id="path314" />
        <path
           d="m 933.91205,838.62046 v -5.382 h -0.4524 c -0.429,0.4914 -0.936,0.9126 -1.4976,1.2402 v 0.3276 c 0.4758,-0.2262 0.9204,-0.4914 1.3416,-0.8112 v 4.6254 z"
           style="font-size:65%;baseline-shift:sub"
           id="path316" />
      </g>
    </g>
  </g>
</svg>
