<?xml version="1.0" encoding="UTF-8" standalone="no"?>
<!-- Created with Inkscape (http://www.inkscape.org/) -->

<svg
   width="139mm"
   height="168.63399mm"
   id="svg19791"
   version="1.0"
   viewBox="0 0 492.51968 597.522"
   xmlns="http://www.w3.org/2000/svg"
   xmlns:svg="http://www.w3.org/2000/svg"
   xmlns:rdf="http://www.w3.org/1999/02/22-rdf-syntax-ns#"
   xmlns:cc="http://creativecommons.org/ns#"
   xmlns:dc="http://purl.org/dc/elements/1.1/">
  <defs
     id="defs3">
    <marker
       style="overflow:visible"
       id="marker22529"
       refX="0"
       refY="0"
       orient="auto">
      <path
         transform="matrix(0.4,0,0,0.4,2.96,0.4)"
         style="fill-rule:evenodd;stroke:#000000;stroke-width:1.00000003pt;marker-start:none;marker-end:none"
         d="m -2.5,-1 c 0,2.76 -2.24,5 -5,5 -2.76,0 -5,-2.24 -5,-5 0,-2.76 2.24,-5 5,-5 2.76,0 5,2.24 5,5 z"
         id="path22531" />
    </marker>
  </defs>
  <metadata
     id="metadata4">
    <rdf:RDF>
      <cc:Work
         rdf:about="">
        <dc:format>image/svg+xml</dc:format>
        <dc:type
           rdf:resource="http://purl.org/dc/dcmitype/StillImage" />
        <dc:title />
      </cc:Work>
    </rdf:RDF>
  </metadata>
  <g
     id="layer1"
     transform="translate(-28.582666,-66.122858)">
    <g
       transform="rotate(90,-105.64345,441.2122)"
       id="g56126">
      <path
         style="fill:none;stroke:#000000;stroke-width:1px;stroke-linecap:butt;stroke-linejoin:miter;stroke-opacity:1"
         d="m 16.734921,-22.541473 56.692918,7e-6"
         id="path56130" />
      <path
         id="path13997"
         d="m -351.76902,-22.541476 347.2440985,3e-6"
         style="fill:none;stroke:#000000;stroke-width:1px;stroke-linecap:butt;stroke-linejoin:miter;stroke-opacity:1;marker-start:none" />
      <path
         style="fill:#ffeeaa;fill-opacity:1;stroke:#000000;stroke-width:1px;stroke-linecap:butt;stroke-linejoin:miter;stroke-opacity:1"
         d="m -11.611536,-40.258009 c 7.0866149,10.629922 7.0866149,24.80315 0,35.4330707 7.0866149,4e-7 24.80315,-3.5433067 28.346457,-17.7165347 -3.543307,-14.173229 -21.2598421,-17.716536 -28.346457,-17.716536 z"
         id="path56132" />
    </g>
    <g
       id="g24313"
       transform="rotate(90,-84.383602,462.47205)">
      <path
         id="path24315"
         d="m 16.734921,-22.541473 56.692918,7e-6"
         style="fill:none;stroke:#000000;stroke-width:1px;stroke-linecap:butt;stroke-linejoin:miter;stroke-opacity:1" />
      <path
         style="fill:none;stroke:#000000;stroke-width:1px;stroke-linecap:butt;stroke-linejoin:miter;stroke-opacity:1;marker-start:none"
         d="m -351.76902,-22.541476 347.2440985,3e-6"
         id="path24317" />
      <path
         id="path24319"
         d="m -11.611536,-40.258009 c 7.0866149,10.629922 7.0866149,24.80315 0,35.4330707 7.0866149,4e-7 24.80315,-3.5433067 28.346457,-17.7165347 -3.543307,-14.173229 -21.2598421,-17.716536 -28.346457,-17.716536 z"
         style="fill:#ffeeaa;fill-opacity:1;stroke:#000000;stroke-width:1px;stroke-linecap:butt;stroke-linejoin:miter;stroke-opacity:1" />
    </g>
    <g
       transform="rotate(90,-63.123757,483.73189)"
       id="g24321">
      <path
         style="fill:none;stroke:#000000;stroke-width:1px;stroke-linecap:butt;stroke-linejoin:miter;stroke-opacity:1"
         d="m 16.734921,-22.541473 56.692918,7e-6"
         id="path24323" />
      <path
         id="path24325"
         d="m -351.76902,-22.541476 347.2440985,3e-6"
         style="fill:none;stroke:#000000;stroke-width:1px;stroke-linecap:butt;stroke-linejoin:miter;stroke-opacity:1;marker-start:none" />
      <path
         style="fill:#ffeeaa;fill-opacity:1;stroke:#000000;stroke-width:1px;stroke-linecap:butt;stroke-linejoin:miter;stroke-opacity:1"
         d="m -11.611536,-40.258009 c 7.0866149,10.629922 7.0866149,24.80315 0,35.4330707 7.0866149,4e-7 24.80315,-3.5433067 28.346457,-17.7165347 -3.543307,-14.173229 -21.2598421,-17.716536 -28.346457,-17.716536 z"
         id="path24327" />
    </g>
    <g
       id="g24329"
       transform="rotate(90,-41.863917,504.99173)">
      <path
         id="path24331"
         d="m 16.734921,-22.541473 56.692918,7e-6"
         style="fill:none;stroke:#000000;stroke-width:1px;stroke-linecap:butt;stroke-linejoin:miter;stroke-opacity:1" />
      <path
         style="fill:none;stroke:#000000;stroke-width:1px;stroke-linecap:butt;stroke-linejoin:miter;stroke-opacity:1;marker-start:none"
         d="m -351.76902,-22.541476 347.2440985,3e-6"
         id="path24333" />
      <path
         id="path24335"
         d="m -11.611536,-40.258009 c 7.0866149,10.629922 7.0866149,24.80315 0,35.4330707 7.0866149,4e-7 24.80315,-3.5433067 28.346457,-17.7165347 -3.543307,-14.173229 -21.2598421,-17.716536 -28.346457,-17.716536 z"
         style="fill:#ffeeaa;fill-opacity:1;stroke:#000000;stroke-width:1px;stroke-linecap:butt;stroke-linejoin:miter;stroke-opacity:1" />
    </g>
    <g
       id="g23385"
       transform="translate(302.78475,508.83283)">
      <path
         id="path23387"
         d="M -267.11547,-22.628091 H -26.170587"
         style="fill:none;stroke:#000000;stroke-width:0.999213;stroke-linecap:butt;stroke-linejoin:miter;stroke-miterlimit:4;stroke-dasharray:none;stroke-opacity:1;marker-start:none" />
      <path
         id="path23389"
         d="M 2.1758694,-22.628091 H 211.23099"
         style="fill:none;stroke:#000000;stroke-width:1px;stroke-linecap:butt;stroke-linejoin:miter;stroke-opacity:1" />
      <path
         id="path23391"
         d="m -26.170587,-40.911555 v 35.9999999 h 3.543306 c 3.543307,0 24.2669248,1.3e-6 24.2669248,-17.9999989 0,-18 -20.7236178,-18.000001 -24.2669248,-18.000001 0,0 -3.543306,0 -3.543306,0 z"
         style="fill:#ffeeaa;fill-opacity:1;stroke:#000000;stroke-width:1px;stroke-linecap:butt;stroke-linejoin:miter;stroke-opacity:1" />
    </g>
    <g
       transform="translate(302.78475,469.28953)"
       id="g23393">
      <path
         style="fill:none;stroke:#000000;stroke-width:0.999213;stroke-linecap:butt;stroke-linejoin:miter;stroke-miterlimit:4;stroke-dasharray:none;stroke-opacity:1;marker-start:none"
         d="M -267.11547,-22.628091 H -26.170587"
         id="path23395" />
      <path
         style="fill:none;stroke:#000000;stroke-width:1px;stroke-linecap:butt;stroke-linejoin:miter;stroke-opacity:1"
         d="M 2.1758694,-22.628091 H 211.23099"
         id="path23397" />
      <path
         style="fill:#ffeeaa;fill-opacity:1;stroke:#000000;stroke-width:1px;stroke-linecap:butt;stroke-linejoin:miter;stroke-opacity:1"
         d="m -26.170587,-40.911555 v 35.9999999 h 3.543306 c 3.543307,0 24.2669248,1.3e-6 24.2669248,-17.9999989 0,-18 -20.7236178,-18.000001 -24.2669248,-18.000001 0,0 -3.543306,0 -3.543306,0 z"
         id="path23399" />
    </g>
    <g
       transform="translate(302.78475,430.31315)"
       id="g23401">
      <path
         style="fill:none;stroke:#000000;stroke-width:0.999213;stroke-linecap:butt;stroke-linejoin:miter;stroke-miterlimit:4;stroke-dasharray:none;stroke-opacity:1;marker-start:none"
         d="M -267.11547,-22.628091 H -26.170587"
         id="path23403" />
      <path
         style="fill:none;stroke:#000000;stroke-width:1px;stroke-linecap:butt;stroke-linejoin:miter;stroke-opacity:1"
         d="M 2.1758694,-22.628091 H 211.23099"
         id="path23405" />
      <path
         style="fill:#ffeeaa;fill-opacity:1;stroke:#000000;stroke-width:1px;stroke-linecap:butt;stroke-linejoin:miter;stroke-opacity:1"
         d="m -26.170587,-40.911555 v 35.9999999 h 3.543306 c 3.543307,0 24.2669248,1.3e-6 24.2669248,-17.9999989 0,-18 -20.7236178,-18.000001 -24.2669248,-18.000001 0,0 -3.543306,0 -3.543306,0 z"
         id="path23407" />
    </g>
    <g
       id="g23409"
       transform="translate(302.78475,391.33677)">
      <path
         id="path23411"
         d="M -267.11547,-22.628091 H -26.170587"
         style="fill:none;stroke:#000000;stroke-width:0.999213;stroke-linecap:butt;stroke-linejoin:miter;stroke-miterlimit:4;stroke-dasharray:none;stroke-opacity:1;marker-start:none" />
      <path
         id="path23413"
         d="M 2.1758694,-22.628091 H 211.23099"
         style="fill:none;stroke:#000000;stroke-width:1px;stroke-linecap:butt;stroke-linejoin:miter;stroke-opacity:1" />
      <path
         id="path23415"
         d="m -26.170587,-40.911555 v 35.9999999 h 3.543306 c 3.543307,0 24.2669248,1.3e-6 24.2669248,-17.9999989 0,-18 -20.7236178,-18.000001 -24.2669248,-18.000001 0,0 -3.543306,0 -3.543306,0 z"
         style="fill:#ffeeaa;fill-opacity:1;stroke:#000000;stroke-width:1px;stroke-linecap:butt;stroke-linejoin:miter;stroke-opacity:1" />
    </g>
    <g
       transform="translate(302.78475,352.36039)"
       id="g23369">
      <path
         style="fill:none;stroke:#000000;stroke-width:0.999213;stroke-linecap:butt;stroke-linejoin:miter;stroke-miterlimit:4;stroke-dasharray:none;stroke-opacity:1;marker-start:none"
         d="M -267.11547,-22.628091 H -26.170587"
         id="path23371" />
      <path
         style="fill:none;stroke:#000000;stroke-width:1px;stroke-linecap:butt;stroke-linejoin:miter;stroke-opacity:1"
         d="M 2.1758694,-22.628091 H 211.23099"
         id="path23373" />
      <path
         style="fill:#ffeeaa;fill-opacity:1;stroke:#000000;stroke-width:1px;stroke-linecap:butt;stroke-linejoin:miter;stroke-opacity:1"
         d="m -26.170587,-40.911555 v 35.9999999 h 3.543306 c 3.543307,0 24.2669248,1.3e-6 24.2669248,-17.9999989 0,-18 -20.7236178,-18.000001 -24.2669248,-18.000001 0,0 -3.543306,0 -3.543306,0 z"
         id="path23375" />
    </g>
    <g
       id="g23377"
       transform="translate(302.78475,313.95094)">
      <path
         id="path23379"
         d="M -267.11547,-22.628091 H -26.170587"
         style="fill:none;stroke:#000000;stroke-width:0.999213;stroke-linecap:butt;stroke-linejoin:miter;stroke-miterlimit:4;stroke-dasharray:none;stroke-opacity:1;marker-start:none" />
      <path
         id="path23381"
         d="M 2.1758694,-22.628091 H 211.23099"
         style="fill:none;stroke:#000000;stroke-width:1px;stroke-linecap:butt;stroke-linejoin:miter;stroke-opacity:1" />
      <path
         id="path23383"
         d="m -26.170587,-40.911555 v 35.9999999 h 3.543306 c 3.543307,0 24.2669248,1.3e-6 24.2669248,-17.9999989 0,-18 -20.7236178,-18.000001 -24.2669248,-18.000001 0,0 -3.543306,0 -3.543306,0 z"
         style="fill:#ffeeaa;fill-opacity:1;stroke:#000000;stroke-width:1px;stroke-linecap:butt;stroke-linejoin:miter;stroke-opacity:1" />
    </g>
    <g
       id="g23361"
       transform="translate(302.78475,274.40764)">
      <path
         id="path23363"
         d="M -267.11547,-22.628091 H -26.170587"
         style="fill:none;stroke:#000000;stroke-width:0.999213;stroke-linecap:butt;stroke-linejoin:miter;stroke-miterlimit:4;stroke-dasharray:none;stroke-opacity:1;marker-start:none" />
      <path
         id="path23365"
         d="M 2.1758694,-22.628091 H 211.23099"
         style="fill:none;stroke:#000000;stroke-width:1px;stroke-linecap:butt;stroke-linejoin:miter;stroke-opacity:1" />
      <path
         id="path23367"
         d="m -26.170587,-40.911555 v 35.9999999 h 3.543306 c 3.543307,0 24.2669248,1.3e-6 24.2669248,-17.9999989 0,-18 -20.7236178,-18.000001 -24.2669248,-18.000001 0,0 -3.543306,0 -3.543306,0 z"
         style="fill:#ffeeaa;fill-opacity:1;stroke:#000000;stroke-width:1px;stroke-linecap:butt;stroke-linejoin:miter;stroke-opacity:1" />
    </g>
    <g
       id="g53853"
       transform="rotate(90,-44.752387,98.663661)">
      <path
         style="fill:#ffeeaa;fill-opacity:1;fill-rule:evenodd;stroke:#000000;stroke-width:1px;stroke-linecap:butt;stroke-linejoin:miter;stroke-opacity:1"
         d="M 51.377951,56.360653 V 77.620495 L 70.866142,67.37838 Z"
         id="path53855"
         transform="translate(-44.203438,-91.419854)" />
      <path
         id="path53857"
         style="fill:#ffeeaa;stroke:#000000;stroke-width:0.999213"
         transform="translate(-44.203438,-91.419854)"
         d="m 77.952754,67.37838 a 3.5433071,3.5433071 0 0 1 -3.543307,3.543307 3.5433071,3.5433071 0 0 1 -3.543307,-3.543307 3.5433071,3.5433071 0 0 1 3.543307,-3.543307 3.5433071,3.5433071 0 0 1 3.543307,3.543307 z" />
      <path
         style="fill:none;stroke:#000000;stroke-width:1px;stroke-linecap:butt;stroke-linejoin:miter;stroke-opacity:1;marker-start:url(#marker22529)"
         d="M 24.803153,85.094915 V 67.37838 l 26.574798,-0.387806"
         id="path53859"
         transform="translate(-44.203438,-91.419854)" />
      <path
         style="fill:none;stroke:#000000;stroke-width:1px;stroke-linecap:butt;stroke-linejoin:miter;stroke-opacity:1"
         d="M 77.952756,67.37838 414.77166,67.142158"
         id="path53861"
         transform="translate(-44.203438,-91.419854)" />
    </g>
    <path
       style="fill:none;stroke:#000000;stroke-width:1px;stroke-linecap:butt;stroke-linejoin:miter;stroke-opacity:1"
       d="m 60.236214,106.29923 0.23622,407.68504"
       id="path9016" />
    <path
       id="path9018"
       d="m 113.38582,106.29923 0.23622,407.68504"
       style="fill:none;stroke:#000000;stroke-width:1px;stroke-linecap:butt;stroke-linejoin:miter;stroke-opacity:1" />
    <path
       style="fill:none;stroke:#000000;stroke-width:1px;stroke-linecap:butt;stroke-linejoin:miter;stroke-opacity:1"
       d="m 166.53542,106.29923 0.23622,407.68504"
       id="path9020" />
    <path
       id="path9187"
       d="m 219.68503,106.29923 0.23622,407.68504"
       style="fill:none;stroke:#000000;stroke-width:1px;stroke-linecap:butt;stroke-linejoin:miter;stroke-opacity:1" />
    <g
       transform="rotate(90,-18.177582,125.23846)"
       id="g12436">
      <path
         transform="translate(-44.203438,-91.419854)"
         id="path12438"
         d="M 51.377951,56.360653 V 77.620495 L 70.866142,67.37838 Z"
         style="fill:#ffeeaa;fill-opacity:1;fill-rule:evenodd;stroke:#000000;stroke-width:1px;stroke-linecap:butt;stroke-linejoin:miter;stroke-opacity:1" />
      <path
         id="path12440"
         style="fill:#ffeeaa;stroke:#000000;stroke-width:0.999213"
         transform="translate(-44.203438,-91.419854)"
         d="m 77.952754,67.37838 a 3.5433071,3.5433071 0 0 1 -3.543307,3.543307 3.5433071,3.5433071 0 0 1 -3.543307,-3.543307 3.5433071,3.5433071 0 0 1 3.543307,-3.543307 3.5433071,3.5433071 0 0 1 3.543307,3.543307 z" />
      <path
         transform="translate(-44.203438,-91.419854)"
         id="path12442"
         d="M 24.803153,85.094915 V 67.37838 l 26.574798,-0.387806"
         style="fill:none;stroke:#000000;stroke-width:1px;stroke-linecap:butt;stroke-linejoin:miter;stroke-opacity:1;marker-start:url(#marker22529)" />
      <path
         transform="translate(-44.203438,-91.419854)"
         id="path12444"
         d="M 77.952756,67.37838 414.77166,67.142162"
         style="fill:none;stroke:#000000;stroke-width:1px;stroke-linecap:butt;stroke-linejoin:miter;stroke-opacity:1" />
    </g>
    <g
       id="g12446"
       transform="rotate(90,8.3972228,151.81327)">
      <path
         style="fill:#ffeeaa;fill-opacity:1;fill-rule:evenodd;stroke:#000000;stroke-width:1px;stroke-linecap:butt;stroke-linejoin:miter;stroke-opacity:1"
         d="M 51.377951,56.360653 V 77.620495 L 70.866142,67.37838 Z"
         id="path12448"
         transform="translate(-44.203438,-91.419854)" />
      <path
         id="path12450"
         style="fill:#ffeeaa;stroke:#000000;stroke-width:0.999213"
         transform="translate(-44.203438,-91.419854)"
         d="m 77.952754,67.37838 a 3.5433071,3.5433071 0 0 1 -3.543307,3.543307 3.5433071,3.5433071 0 0 1 -3.543307,-3.543307 3.5433071,3.5433071 0 0 1 3.543307,-3.543307 3.5433071,3.5433071 0 0 1 3.543307,3.543307 z" />
      <path
         style="fill:none;stroke:#000000;stroke-width:1px;stroke-linecap:butt;stroke-linejoin:miter;stroke-opacity:1;marker-start:url(#marker22529)"
         d="M 24.803153,85.094915 V 67.37838 l 26.574798,-0.387806"
         id="path12452"
         transform="translate(-44.203438,-91.419854)" />
      <path
         style="fill:none;stroke:#000000;stroke-width:1px;stroke-linecap:butt;stroke-linejoin:miter;stroke-opacity:1"
         d="M 77.952756,67.37838 414.77166,67.142165"
         id="path12454"
         transform="translate(-44.203438,-91.419854)" />
    </g>
    <g
       transform="rotate(90,34.972023,178.38807)"
       id="g12456">
      <path
         transform="translate(-44.203438,-91.419854)"
         id="path12458"
         d="M 51.377951,56.360653 V 77.620495 L 70.866142,67.37838 Z"
         style="fill:#ffeeaa;fill-opacity:1;fill-rule:evenodd;stroke:#000000;stroke-width:1px;stroke-linecap:butt;stroke-linejoin:miter;stroke-opacity:1" />
      <path
         id="path12460"
         style="fill:#ffeeaa;stroke:#000000;stroke-width:0.999213"
         transform="translate(-44.203438,-91.419854)"
         d="m 77.952754,67.37838 a 3.5433071,3.5433071 0 0 1 -3.543307,3.543307 3.5433071,3.5433071 0 0 1 -3.543307,-3.543307 3.5433071,3.5433071 0 0 1 3.543307,-3.543307 3.5433071,3.5433071 0 0 1 3.543307,3.543307 z" />
      <path
         transform="translate(-44.203438,-91.419854)"
         id="path12462"
         d="M 24.803153,85.094915 V 67.37838 l 26.574798,-0.387806"
         style="fill:none;stroke:#000000;stroke-width:1px;stroke-linecap:butt;stroke-linejoin:miter;stroke-opacity:1;marker-start:url(#marker22529)" />
      <path
         transform="translate(-44.203438,-91.419854)"
         id="path12464"
         d="M 77.952756,67.37838 414.77166,67.142159"
         style="fill:none;stroke:#000000;stroke-width:1px;stroke-linecap:butt;stroke-linejoin:miter;stroke-opacity:1" />
    </g>
    <g
       transform="translate(-10.629926,-17.716504)"
       id="g12724">
      <g
         aria-label="I3"
         id="text12420"
         style="line-height:0%;font-family:Iwona;-inkscape-font-specification:Iwona;text-align:center;text-anchor:middle">
        <path
           d="M 66.780164,102.12598 V 90.925977 h -1.312 v 11.200003 z"
           style="font-size:16px;line-height:1.25"
           id="path928" />
        <path
           d="m 75.980157,99.085977 c 0,-1.408 -0.992,-2.624 -2.368,-3.04 1.216,-0.352 1.968,-1.264 1.968,-2.48 0,-1.584 -1.28,-2.64 -3.2,-2.64 -1.04,0 -2.048,0.352 -2.864,0.992 v 0.672 c 0.816,-0.64 1.824,-0.992 2.864,-0.992 1.168,0 1.952,0.784 1.952,1.968 0,1.904 -0.88,2.4 -2.88,2.4 v 0.592 c 2.16,0 3.12,0.512 3.12,2.528 0,1.392003 -0.896,2.528003 -1.984,2.528003 -1.216,0 -2.4,-0.352 -3.408,-0.992 v 0.672 c 1.008,0.64 2.192,0.992 3.408,0.992 1.856,0 3.392,-1.44 3.392,-3.200003 z"
           style="font-size:16px;line-height:1.25"
           id="path930" />
      </g>
      <g
         transform="translate(-318.89764,-159.44881)"
         id="g12716">
        <path
           id="path12722"
           d="m 396.8504,265.74802 h -14.17322 v 10.62992 l 7.08661,7.08661 7.08661,-7.08661 z"
           style="fill:#d5f6ff;fill-opacity:1;stroke:#000000;stroke-width:1px;stroke-linecap:butt;stroke-linejoin:miter;stroke-opacity:1" />
      </g>
    </g>
    <g
       id="g12730"
       transform="translate(42.519674,-17.716504)">
      <g
         aria-label="I2"
         id="text12732"
         style="line-height:0%;font-family:Iwona;-inkscape-font-specification:Iwona;text-align:center;text-anchor:middle">
        <path
           d="M 66.780164,102.12598 V 90.925977 h -1.312 v 11.200003 z"
           style="font-size:16px;line-height:1.25"
           id="path933" />
        <path
           d="m 75.980157,102.12598 v -0.992 h -5.648 l 2.944,-2.912003 c 1.312,-1.312 2.544,-2.848 2.544,-4.704 0,-1.568 -1.552,-2.592 -3.232,-2.592 -1.264,0 -2.464,0.576 -3.248,1.552 v 0.672 c 0.816,-0.944 2,-1.488 3.248,-1.488 1.072,0 1.984,0.8 1.984,1.856 0,1.584 -0.736,3.056 -1.824,4.192 l -3.568,3.664003 v 0.752 z"
           style="font-size:16px;line-height:1.25"
           id="path935" />
      </g>
      <g
         id="g12736"
         transform="translate(-318.89764,-159.44881)">
        <path
           style="fill:#d5f6ff;fill-opacity:1;stroke:#000000;stroke-width:1px;stroke-linecap:butt;stroke-linejoin:miter;stroke-opacity:1"
           d="m 396.8504,265.74802 h -14.17322 v 10.62992 l 7.08661,7.08661 7.08661,-7.08661 z"
           id="path12738" />
      </g>
    </g>
    <g
       transform="translate(95.669284,-17.716504)"
       id="g12740">
      <g
         aria-label="I1"
         id="text12742"
         style="line-height:0%;font-family:Iwona;-inkscape-font-specification:Iwona;text-align:center;text-anchor:middle">
        <path
           d="M 66.780164,102.12598 V 90.925977 h -1.312 v 11.200003 z"
           style="font-size:16px;line-height:1.25"
           id="path938" />
        <path
           d="M 73.660157,102.12598 V 91.085977 h -0.928 c -0.88,1.008 -1.92,1.872 -3.072,2.544 v 0.672 c 0.976,-0.464 1.888,-1.008 2.752,-1.664 v 9.488003 z"
           style="font-size:16px;line-height:1.25"
           id="path940" />
      </g>
      <g
         transform="translate(-318.89764,-159.44881)"
         id="g12746">
        <path
           id="path12748"
           d="m 396.8504,265.74802 h -14.17322 v 10.62992 l 7.08661,7.08661 7.08661,-7.08661 z"
           style="fill:#d5f6ff;fill-opacity:1;stroke:#000000;stroke-width:1px;stroke-linecap:butt;stroke-linejoin:miter;stroke-opacity:1" />
      </g>
    </g>
    <g
       id="g12750"
       transform="translate(148.81888,-17.716504)">
      <g
         aria-label="I0"
         id="text12752"
         style="line-height:0%;font-family:Iwona;-inkscape-font-specification:Iwona;text-align:center;text-anchor:middle">
        <path
           d="M 66.780164,102.12598 V 90.925977 h -1.312 v 11.200003 z"
           style="font-size:16px;line-height:1.25"
           id="path943" />
        <path
           d="m 76.092157,96.605977 c 0,-3.792 -1.168,-5.68 -3.504,-5.68 -2.336,0 -3.504,1.888 -3.504,5.68 0,3.792003 1.168,5.680003 3.504,5.680003 2.336,0 3.504,-1.888 3.504,-5.680003 z m -1.408,0 c 0,3.344 -0.704,5.008003 -2.096,5.008003 -1.392,0 -2.096,-1.664003 -2.096,-5.008003 0,-3.344 0.704,-5.008 2.096,-5.008 1.392,0 2.096,1.664 2.096,5.008 z"
           style="font-size:16px;line-height:1.25"
           id="path945" />
      </g>
      <g
         id="g12756"
         transform="translate(-318.89764,-159.44881)">
        <path
           style="fill:#d5f6ff;fill-opacity:1;stroke:#000000;stroke-width:1px;stroke-linecap:butt;stroke-linejoin:miter;stroke-opacity:1"
           d="m 396.8504,265.74802 h -14.17322 v 10.62992 l 7.08661,7.08661 7.08661,-7.08661 z"
           id="path12758" />
      </g>
    </g>
    <g
       transform="translate(302.78475,235.43126)"
       id="g12488">
      <path
         style="fill:none;stroke:#000000;stroke-width:0.999213;stroke-linecap:butt;stroke-linejoin:miter;stroke-miterlimit:4;stroke-dasharray:none;stroke-opacity:1;marker-start:none"
         d="M -267.11547,-22.628091 H -26.170587"
         id="path12490" />
      <path
         style="fill:none;stroke:#000000;stroke-width:1px;stroke-linecap:butt;stroke-linejoin:miter;stroke-opacity:1"
         d="M 2.1758694,-22.628091 H 211.23099"
         id="path12492" />
      <path
         style="fill:#ffeeaa;fill-opacity:1;stroke:#000000;stroke-width:1px;stroke-linecap:butt;stroke-linejoin:miter;stroke-opacity:1"
         d="m -26.170587,-40.911555 v 35.9999999 h 3.543306 c 3.543307,0 24.2669248,1.3e-6 24.2669248,-17.9999989 0,-18 -20.7236178,-18.000001 -24.2669248,-18.000001 0,0 -3.543306,0 -3.543306,0 z"
         id="path12494" />
    </g>
    <g
       id="g6686"
       transform="translate(24.645646,-18.181078)">
      <g
         aria-label="Q3"
         id="text6631"
         style="line-height:0%;font-family:Iwona;-inkscape-font-specification:Iwona;text-align:center;text-anchor:middle">
        <path
           d="m 333.72259,666.69132 c 0,-3.392 -1.76,-5.76 -4.992,-5.76 -3.248,0 -5.008,2.368 -5.008,5.76 0,3.392 1.76,5.76 5.008,5.76 0.112,1.296 1.184,2.288 2.496,2.288 0.816,0 1.04,-0.048 1.792,-0.384 v -0.48 c -0.368,0.208 -0.768,0.32 -1.2,0.32 -1.456,0 -2.032,-0.512 -2.048,-1.84 2.56,-0.448 3.952,-2.656 3.952,-5.664 z m -1.568,0 c 0,2.8 -0.928,5.024 -3.424,5.024 -2.512,0 -3.44,-2.224 -3.44,-5.024 0,-2.8 0.928,-5.024 3.44,-5.024 2.496,0 3.424,2.224 3.424,5.024 z"
           style="font-size:16px;line-height:1.25"
           id="path948" />
        <path
           d="m 342.28257,669.25132 c 0,-1.408 -0.992,-2.624 -2.368,-3.04 1.216,-0.352 1.968,-1.264 1.968,-2.48 0,-1.584 -1.28,-2.64 -3.2,-2.64 -1.04,0 -2.048,0.352 -2.864,0.992 v 0.672 c 0.816,-0.64 1.824,-0.992 2.864,-0.992 1.168,0 1.952,0.784 1.952,1.968 0,1.904 -0.88,2.4 -2.88,2.4 v 0.592 c 2.16,0 3.12,0.512 3.12,2.528 0,1.392 -0.896,2.528 -1.984,2.528 -1.216,0 -2.4,-0.352 -3.408,-0.992 v 0.672 c 1.008,0.64 2.192,0.992 3.408,0.992 1.856,0 3.392,-1.44 3.392,-3.2 z"
           style="font-size:16px;line-height:1.25"
           id="path950" />
      </g>
      <g
         id="g6635"
         transform="translate(-56.29921,372.71654)">
        <path
           style="fill:#d5f6ff;fill-opacity:1;stroke:#000000;stroke-width:1px;stroke-linecap:butt;stroke-linejoin:miter;stroke-opacity:1"
           d="m 396.8504,265.74802 h -14.17322 v 10.62992 l 7.08661,7.08661 7.08661,-7.08661 z"
           id="path6637" />
      </g>
    </g>
    <g
       id="g6692"
       transform="translate(14.015739,-18.181076)">
      <g
         aria-label="Q2"
         id="text6641"
         style="line-height:0%;font-family:Iwona;-inkscape-font-specification:Iwona;text-align:center;text-anchor:middle">
        <path
           d="m 386.87219,666.69132 c 0,-3.392 -1.76,-5.76 -4.992,-5.76 -3.248,0 -5.008,2.368 -5.008,5.76 0,3.392 1.76,5.76 5.008,5.76 0.112,1.296 1.184,2.288 2.496,2.288 0.816,0 1.04,-0.048 1.792,-0.384 v -0.48 c -0.368,0.208 -0.768,0.32 -1.2,0.32 -1.456,0 -2.032,-0.512 -2.048,-1.84 2.56,-0.448 3.952,-2.656 3.952,-5.664 z m -1.568,0 c 0,2.8 -0.928,5.024 -3.424,5.024 -2.512,0 -3.44,-2.224 -3.44,-5.024 0,-2.8 0.928,-5.024 3.44,-5.024 2.496,0 3.424,2.224 3.424,5.024 z"
           style="font-size:16px;line-height:1.25"
           id="path953" />
        <path
           d="m 395.43217,672.29132 v -0.992 h -5.648 l 2.944,-2.912 c 1.312,-1.312 2.544,-2.848 2.544,-4.704 0,-1.568 -1.552,-2.592 -3.232,-2.592 -1.264,0 -2.464,0.576 -3.248,1.552 v 0.672 c 0.816,-0.944 2,-1.488 3.248,-1.488 1.072,0 1.984,0.8 1.984,1.856 0,1.584 -0.736,3.056 -1.824,4.192 l -3.568,3.664 v 0.752 z"
           style="font-size:16px;line-height:1.25"
           id="path955" />
      </g>
      <g
         transform="translate(-3.14961,372.71654)"
         id="g6645">
        <path
           id="path6647"
           d="m 396.8504,265.74802 h -14.17322 v 10.62992 l 7.08661,7.08661 7.08661,-7.08661 z"
           style="fill:#d5f6ff;fill-opacity:1;stroke:#000000;stroke-width:1px;stroke-linecap:butt;stroke-linejoin:miter;stroke-opacity:1" />
      </g>
    </g>
    <g
       id="g6698"
       transform="translate(3.3858057,-18.181076)">
      <g
         aria-label="Q1"
         id="text6651"
         style="line-height:0%;font-family:Iwona;-inkscape-font-specification:Iwona;text-align:center;text-anchor:middle">
        <path
           d="m 440.02181,666.69132 c 0,-3.392 -1.76,-5.76 -4.992,-5.76 -3.248,0 -5.008,2.368 -5.008,5.76 0,3.392 1.76,5.76 5.008,5.76 0.112,1.296 1.184,2.288 2.496,2.288 0.816,0 1.04,-0.048 1.792,-0.384 v -0.48 c -0.368,0.208 -0.768,0.32 -1.2,0.32 -1.456,0 -2.032,-0.512 -2.048,-1.84 2.56,-0.448 3.952,-2.656 3.952,-5.664 z m -1.568,0 c 0,2.8 -0.928,5.024 -3.424,5.024 -2.512,0 -3.44,-2.224 -3.44,-5.024 0,-2.8 0.928,-5.024 3.44,-5.024 2.496,0 3.424,2.224 3.424,5.024 z"
           style="font-size:16px;line-height:1.25"
           id="path958" />
        <path
           d="m 446.2618,672.29132 v -11.04 h -0.928 c -0.88,1.008 -1.92,1.872 -3.072,2.544 v 0.672 c 0.976,-0.464 1.888,-1.008 2.752,-1.664 v 9.488 z"
           style="font-size:16px;line-height:1.25"
           id="path960" />
      </g>
      <path
         id="path6657"
         d="m 446.8504,638.46456 h -14.17322 v 10.62992 l 7.08661,7.08661 7.08661,-7.08661 z"
         style="fill:#d5f6ff;fill-opacity:1;stroke:#000000;stroke-width:1px;stroke-linecap:butt;stroke-linejoin:miter;stroke-opacity:1" />
    </g>
    <g
       id="g6703"
       transform="translate(-7.244101,-18.181076)">
      <g
         aria-label="Q0"
         id="text6661"
         style="line-height:0%;font-family:Iwona;-inkscape-font-specification:Iwona;text-align:center;text-anchor:middle">
        <path
           d="m 493.17141,666.69132 c 0,-3.392 -1.76,-5.76 -4.992,-5.76 -3.248,0 -5.008,2.368 -5.008,5.76 0,3.392 1.76,5.76 5.008,5.76 0.112,1.296 1.184,2.288 2.496,2.288 0.816,0 1.04,-0.048 1.792,-0.384 v -0.48 c -0.368,0.208 -0.768,0.32 -1.2,0.32 -1.456,0 -2.032,-0.512 -2.048,-1.84 2.56,-0.448 3.952,-2.656 3.952,-5.664 z m -1.568,0 c 0,2.8 -0.928,5.024 -3.424,5.024 -2.512,0 -3.44,-2.224 -3.44,-5.024 0,-2.8 0.928,-5.024 3.44,-5.024 2.496,0 3.424,2.224 3.424,5.024 z"
           style="font-size:16px;line-height:1.25"
           id="path963" />
        <path
           d="m 501.84339,666.77132 c 0,-3.792 -1.168,-5.68 -3.504,-5.68 -2.336,0 -3.504,1.888 -3.504,5.68 0,3.792 1.168,5.68 3.504,5.68 2.336,0 3.504,-1.888 3.504,-5.68 z m -1.408,0 c 0,3.344 -0.704,5.008 -2.096,5.008 -1.392,0 -2.096,-1.664 -2.096,-5.008 0,-3.344 0.704,-5.008 2.096,-5.008 1.392,0 2.096,1.664 2.096,5.008 z"
           style="font-size:16px;line-height:1.25"
           id="path965" />
      </g>
      <g
         transform="translate(103.1496,372.71654)"
         id="g6665">
        <path
           id="path6667"
           d="m 396.8504,265.74802 h -14.17322 v 10.62992 l 7.08661,7.08661 7.08661,-7.08661 z"
           style="fill:#d5f6ff;fill-opacity:1;stroke:#000000;stroke-width:1px;stroke-linecap:butt;stroke-linejoin:miter;stroke-opacity:1" />
      </g>
    </g>
    <path
       id="path19941"
       style="fill:none;stroke:#ff0000;stroke-width:0.992126;stroke-linecap:round;stroke-linejoin:bevel"
       d="m 64.015742,212.80316 a 3.5433071,3.5433071 0 0 1 -3.543307,3.54331 3.5433071,3.5433071 0 0 1 -3.543307,-3.54331 3.5433071,3.5433071 0 0 1 3.543307,-3.54331 3.5433071,3.5433071 0 0 1 3.543307,3.54331 z" />
    <path
       id="path19943"
       style="fill:none;stroke:#ff0000;stroke-width:0.992126;stroke-linecap:round;stroke-linejoin:bevel"
       d="m 81.73228,212.80316 a 3.5433071,3.5433071 0 0 1 -3.543308,3.54331 3.5433071,3.5433071 0 0 1 -3.543307,-3.54331 3.5433071,3.5433071 0 0 1 3.543307,-3.54331 3.5433071,3.5433071 0 0 1 3.543308,3.54331 z" />
    <path
       id="path19945"
       style="fill:none;stroke:#ff0000;stroke-width:0.992126;stroke-linecap:round;stroke-linejoin:bevel"
       d="m 117.16535,212.80316 a 3.5433071,3.5433071 0 0 1 -3.54331,3.54331 3.5433071,3.5433071 0 0 1 -3.54331,-3.54331 3.5433071,3.5433071 0 0 1 3.54331,-3.54331 3.5433071,3.5433071 0 0 1 3.54331,3.54331 z" />
    <path
       id="path19947"
       style="fill:none;stroke:#ff0000;stroke-width:0.992126;stroke-linecap:round;stroke-linejoin:bevel"
       d="m 134.88188,212.80316 a 3.5433071,3.5433071 0 0 1 -3.5433,3.54331 3.5433071,3.5433071 0 0 1 -3.54331,-3.54331 3.5433071,3.5433071 0 0 1 3.54331,-3.54331 3.5433071,3.5433071 0 0 1 3.5433,3.54331 z" />
    <path
       id="path19949"
       style="fill:none;stroke:#ff0000;stroke-width:0.992126;stroke-linecap:round;stroke-linejoin:bevel"
       d="m 170.31496,212.80316 a 3.5433071,3.5433071 0 0 1 -3.54331,3.54331 3.5433071,3.5433071 0 0 1 -3.5433,-3.54331 3.5433071,3.5433071 0 0 1 3.5433,-3.54331 3.5433071,3.5433071 0 0 1 3.54331,3.54331 z" />
    <path
       id="path19951"
       style="fill:none;stroke:#ff0000;stroke-width:0.992126;stroke-linecap:round;stroke-linejoin:bevel"
       d="m 188.0315,212.80316 a 3.5433071,3.5433071 0 0 1 -3.54331,3.54331 3.5433071,3.5433071 0 0 1 -3.54331,-3.54331 3.5433071,3.5433071 0 0 1 3.54331,-3.54331 3.5433071,3.5433071 0 0 1 3.54331,3.54331 z" />
    <path
       id="path19953"
       style="fill:none;stroke:#ff0000;stroke-width:0.992126;stroke-linecap:round;stroke-linejoin:bevel"
       d="m 223.46456,212.80316 a 3.5433071,3.5433071 0 0 1 -3.54331,3.54331 3.5433071,3.5433071 0 0 1 -3.54331,-3.54331 3.5433071,3.5433071 0 0 1 3.54331,-3.54331 3.5433071,3.5433071 0 0 1 3.54331,3.54331 z" />
    <path
       id="path19955"
       style="fill:none;stroke:#ff0000;stroke-width:0.992126;stroke-linecap:round;stroke-linejoin:bevel"
       d="m 241.18109,212.80316 a 3.5433071,3.5433071 0 0 1 -3.5433,3.54331 3.5433071,3.5433071 0 0 1 -3.54331,-3.54331 3.5433071,3.5433071 0 0 1 3.54331,-3.54331 3.5433071,3.5433071 0 0 1 3.5433,3.54331 z" />
    <path
       id="path19957"
       style="fill:none;stroke:#ff0000;stroke-width:0.992126;stroke-linecap:round;stroke-linejoin:bevel"
       d="m 64.015742,251.77954 a 3.5433071,3.5433071 0 0 1 -3.543307,3.54331 3.5433071,3.5433071 0 0 1 -3.543307,-3.54331 3.5433071,3.5433071 0 0 1 3.543307,-3.54331 3.5433071,3.5433071 0 0 1 3.543307,3.54331 z" />
    <path
       id="path19959"
       style="fill:none;stroke:#ff0000;stroke-width:0.992126;stroke-linecap:round;stroke-linejoin:bevel"
       d="m 81.73228,251.77954 a 3.5433071,3.5433071 0 0 1 -3.543308,3.54331 3.5433071,3.5433071 0 0 1 -3.543307,-3.54331 3.5433071,3.5433071 0 0 1 3.543307,-3.54331 3.5433071,3.5433071 0 0 1 3.543308,3.54331 z" />
    <path
       id="path19961"
       style="fill:none;stroke:#ff0000;stroke-width:0.992126;stroke-linecap:round;stroke-linejoin:bevel"
       d="m 117.16535,251.77954 a 3.5433071,3.5433071 0 0 1 -3.54331,3.54331 3.5433071,3.5433071 0 0 1 -3.54331,-3.54331 3.5433071,3.5433071 0 0 1 3.54331,-3.54331 3.5433071,3.5433071 0 0 1 3.54331,3.54331 z" />
    <path
       id="path19963"
       style="fill:none;stroke:#ff0000;stroke-width:0.992126;stroke-linecap:round;stroke-linejoin:bevel"
       d="m 134.88188,251.77954 a 3.5433071,3.5433071 0 0 1 -3.5433,3.54331 3.5433071,3.5433071 0 0 1 -3.54331,-3.54331 3.5433071,3.5433071 0 0 1 3.54331,-3.54331 3.5433071,3.5433071 0 0 1 3.5433,3.54331 z" />
    <path
       id="path19965"
       style="fill:none;stroke:#ff0000;stroke-width:0.992126;stroke-linecap:round;stroke-linejoin:bevel"
       d="m 170.31496,251.77954 a 3.5433071,3.5433071 0 0 1 -3.54331,3.54331 3.5433071,3.5433071 0 0 1 -3.5433,-3.54331 3.5433071,3.5433071 0 0 1 3.5433,-3.54331 3.5433071,3.5433071 0 0 1 3.54331,3.54331 z" />
    <path
       id="path19967"
       style="fill:none;stroke:#ff0000;stroke-width:0.992126;stroke-linecap:round;stroke-linejoin:bevel"
       d="m 188.0315,251.77954 a 3.5433071,3.5433071 0 0 1 -3.54331,3.54331 3.5433071,3.5433071 0 0 1 -3.54331,-3.54331 3.5433071,3.5433071 0 0 1 3.54331,-3.54331 3.5433071,3.5433071 0 0 1 3.54331,3.54331 z" />
    <path
       id="path19969"
       style="fill:none;stroke:#ff0000;stroke-width:0.992126;stroke-linecap:round;stroke-linejoin:bevel"
       d="m 223.46456,251.77954 a 3.5433071,3.5433071 0 0 1 -3.54331,3.54331 3.5433071,3.5433071 0 0 1 -3.54331,-3.54331 3.5433071,3.5433071 0 0 1 3.54331,-3.54331 3.5433071,3.5433071 0 0 1 3.54331,3.54331 z" />
    <path
       id="path19971"
       style="fill:none;stroke:#ff0000;stroke-width:0.992126;stroke-linecap:round;stroke-linejoin:bevel"
       d="m 241.18109,251.77954 a 3.5433071,3.5433071 0 0 1 -3.5433,3.54331 3.5433071,3.5433071 0 0 1 -3.54331,-3.54331 3.5433071,3.5433071 0 0 1 3.54331,-3.54331 3.5433071,3.5433071 0 0 1 3.5433,3.54331 z" />
    <path
       id="path19973"
       style="fill:none;stroke:#ff0000;stroke-width:0.992126;stroke-linecap:round;stroke-linejoin:bevel"
       d="m 64.015742,290.75592 a 3.5433071,3.5433071 0 0 1 -3.543307,3.54331 3.5433071,3.5433071 0 0 1 -3.543307,-3.54331 3.5433071,3.5433071 0 0 1 3.543307,-3.54331 3.5433071,3.5433071 0 0 1 3.543307,3.54331 z" />
    <path
       id="path19975"
       style="fill:none;stroke:#ff0000;stroke-width:0.992126;stroke-linecap:round;stroke-linejoin:bevel"
       d="m 81.73228,290.75592 a 3.5433071,3.5433071 0 0 1 -3.543308,3.54331 3.5433071,3.5433071 0 0 1 -3.543307,-3.54331 3.5433071,3.5433071 0 0 1 3.543307,-3.54331 3.5433071,3.5433071 0 0 1 3.543308,3.54331 z" />
    <path
       id="path19977"
       style="fill:none;stroke:#ff0000;stroke-width:0.992126;stroke-linecap:round;stroke-linejoin:bevel"
       d="m 117.16535,290.75592 a 3.5433071,3.5433071 0 0 1 -3.54331,3.54331 3.5433071,3.5433071 0 0 1 -3.54331,-3.54331 3.5433071,3.5433071 0 0 1 3.54331,-3.54331 3.5433071,3.5433071 0 0 1 3.54331,3.54331 z" />
    <path
       id="path19979"
       style="fill:none;stroke:#ff0000;stroke-width:0.992126;stroke-linecap:round;stroke-linejoin:bevel"
       d="m 134.88188,290.75592 a 3.5433071,3.5433071 0 0 1 -3.5433,3.54331 3.5433071,3.5433071 0 0 1 -3.54331,-3.54331 3.5433071,3.5433071 0 0 1 3.54331,-3.54331 3.5433071,3.5433071 0 0 1 3.5433,3.54331 z" />
    <path
       id="path19981"
       style="fill:none;stroke:#ff0000;stroke-width:0.992126;stroke-linecap:round;stroke-linejoin:bevel"
       d="m 170.31496,290.75592 a 3.5433071,3.5433071 0 0 1 -3.54331,3.54331 3.5433071,3.5433071 0 0 1 -3.5433,-3.54331 3.5433071,3.5433071 0 0 1 3.5433,-3.54331 3.5433071,3.5433071 0 0 1 3.54331,3.54331 z" />
    <path
       id="path19983"
       style="fill:none;stroke:#ff0000;stroke-width:0.992126;stroke-linecap:round;stroke-linejoin:bevel"
       d="m 188.0315,290.75592 a 3.5433071,3.5433071 0 0 1 -3.54331,3.54331 3.5433071,3.5433071 0 0 1 -3.54331,-3.54331 3.5433071,3.5433071 0 0 1 3.54331,-3.54331 3.5433071,3.5433071 0 0 1 3.54331,3.54331 z" />
    <path
       id="path19985"
       style="fill:none;stroke:#ff0000;stroke-width:0.992126;stroke-linecap:round;stroke-linejoin:bevel"
       d="m 223.46456,290.75592 a 3.5433071,3.5433071 0 0 1 -3.54331,3.54331 3.5433071,3.5433071 0 0 1 -3.54331,-3.54331 3.5433071,3.5433071 0 0 1 3.54331,-3.54331 3.5433071,3.5433071 0 0 1 3.54331,3.54331 z" />
    <path
       id="path19987"
       style="fill:none;stroke:#ff0000;stroke-width:0.992126;stroke-linecap:round;stroke-linejoin:bevel"
       d="m 241.18109,290.75592 a 3.5433071,3.5433071 0 0 1 -3.5433,3.54331 3.5433071,3.5433071 0 0 1 -3.54331,-3.54331 3.5433071,3.5433071 0 0 1 3.54331,-3.54331 3.5433071,3.5433071 0 0 1 3.5433,3.54331 z" />
    <path
       id="path19989"
       style="fill:none;stroke:#ff0000;stroke-width:0.992126;stroke-linecap:round;stroke-linejoin:bevel"
       d="m 64.015742,329.7323 a 3.5433071,3.5433071 0 0 1 -3.543307,3.54331 3.5433071,3.5433071 0 0 1 -3.543307,-3.54331 3.5433071,3.5433071 0 0 1 3.543307,-3.54331 3.5433071,3.5433071 0 0 1 3.543307,3.54331 z" />
    <path
       id="path19991"
       style="fill:none;stroke:#ff0000;stroke-width:0.992126;stroke-linecap:round;stroke-linejoin:bevel"
       d="m 81.73228,329.7323 a 3.5433071,3.5433071 0 0 1 -3.543308,3.54331 3.5433071,3.5433071 0 0 1 -3.543307,-3.54331 3.5433071,3.5433071 0 0 1 3.543307,-3.54331 3.5433071,3.5433071 0 0 1 3.543308,3.54331 z" />
    <path
       id="path19993"
       style="fill:none;stroke:#ff0000;stroke-width:0.992126;stroke-linecap:round;stroke-linejoin:bevel"
       d="m 117.16535,329.7323 a 3.5433071,3.5433071 0 0 1 -3.54331,3.54331 3.5433071,3.5433071 0 0 1 -3.54331,-3.54331 3.5433071,3.5433071 0 0 1 3.54331,-3.54331 3.5433071,3.5433071 0 0 1 3.54331,3.54331 z" />
    <path
       id="path19995"
       style="fill:none;stroke:#ff0000;stroke-width:0.992126;stroke-linecap:round;stroke-linejoin:bevel"
       d="m 134.88188,329.7323 a 3.5433071,3.5433071 0 0 1 -3.5433,3.54331 3.5433071,3.5433071 0 0 1 -3.54331,-3.54331 3.5433071,3.5433071 0 0 1 3.54331,-3.54331 3.5433071,3.5433071 0 0 1 3.5433,3.54331 z" />
    <path
       id="path19997"
       style="fill:none;stroke:#ff0000;stroke-width:0.992126;stroke-linecap:round;stroke-linejoin:bevel"
       d="m 170.31496,329.7323 a 3.5433071,3.5433071 0 0 1 -3.54331,3.54331 3.5433071,3.5433071 0 0 1 -3.5433,-3.54331 3.5433071,3.5433071 0 0 1 3.5433,-3.54331 3.5433071,3.5433071 0 0 1 3.54331,3.54331 z" />
    <path
       id="path19999"
       style="fill:none;stroke:#ff0000;stroke-width:0.992126;stroke-linecap:round;stroke-linejoin:bevel"
       d="m 188.0315,329.7323 a 3.5433071,3.5433071 0 0 1 -3.54331,3.54331 3.5433071,3.5433071 0 0 1 -3.54331,-3.54331 3.5433071,3.5433071 0 0 1 3.54331,-3.54331 3.5433071,3.5433071 0 0 1 3.54331,3.54331 z" />
    <path
       id="path20001"
       style="fill:none;stroke:#ff0000;stroke-width:0.992126;stroke-linecap:round;stroke-linejoin:bevel"
       d="m 223.46456,329.7323 a 3.5433071,3.5433071 0 0 1 -3.54331,3.54331 3.5433071,3.5433071 0 0 1 -3.54331,-3.54331 3.5433071,3.5433071 0 0 1 3.54331,-3.54331 3.5433071,3.5433071 0 0 1 3.54331,3.54331 z" />
    <path
       id="path20003"
       style="fill:none;stroke:#ff0000;stroke-width:0.992126;stroke-linecap:round;stroke-linejoin:bevel"
       d="m 241.18109,329.7323 a 3.5433071,3.5433071 0 0 1 -3.5433,3.54331 3.5433071,3.5433071 0 0 1 -3.54331,-3.54331 3.5433071,3.5433071 0 0 1 3.54331,-3.54331 3.5433071,3.5433071 0 0 1 3.5433,3.54331 z" />
    <path
       id="path20005"
       style="fill:none;stroke:#ff0000;stroke-width:0.992126;stroke-linecap:round;stroke-linejoin:bevel"
       d="m 64.015742,368.70868 a 3.5433071,3.5433071 0 0 1 -3.543307,3.54331 3.5433071,3.5433071 0 0 1 -3.543307,-3.54331 3.5433071,3.5433071 0 0 1 3.543307,-3.54331 3.5433071,3.5433071 0 0 1 3.543307,3.54331 z" />
    <path
       id="path20007"
       style="fill:none;stroke:#ff0000;stroke-width:0.992126;stroke-linecap:round;stroke-linejoin:bevel"
       d="m 81.73228,368.70868 a 3.5433071,3.5433071 0 0 1 -3.543308,3.54331 3.5433071,3.5433071 0 0 1 -3.543307,-3.54331 3.5433071,3.5433071 0 0 1 3.543307,-3.54331 3.5433071,3.5433071 0 0 1 3.543308,3.54331 z" />
    <path
       id="path20009"
       style="fill:none;stroke:#ff0000;stroke-width:0.992126;stroke-linecap:round;stroke-linejoin:bevel"
       d="m 117.16535,368.70868 a 3.5433071,3.5433071 0 0 1 -3.54331,3.54331 3.5433071,3.5433071 0 0 1 -3.54331,-3.54331 3.5433071,3.5433071 0 0 1 3.54331,-3.54331 3.5433071,3.5433071 0 0 1 3.54331,3.54331 z" />
    <path
       id="path20011"
       style="fill:none;stroke:#ff0000;stroke-width:0.992126;stroke-linecap:round;stroke-linejoin:bevel"
       d="m 134.88188,368.70868 a 3.5433071,3.5433071 0 0 1 -3.5433,3.54331 3.5433071,3.5433071 0 0 1 -3.54331,-3.54331 3.5433071,3.5433071 0 0 1 3.54331,-3.54331 3.5433071,3.5433071 0 0 1 3.5433,3.54331 z" />
    <path
       id="path20013"
       style="fill:none;stroke:#ff0000;stroke-width:0.992126;stroke-linecap:round;stroke-linejoin:bevel"
       d="m 170.31496,368.70868 a 3.5433071,3.5433071 0 0 1 -3.54331,3.54331 3.5433071,3.5433071 0 0 1 -3.5433,-3.54331 3.5433071,3.5433071 0 0 1 3.5433,-3.54331 3.5433071,3.5433071 0 0 1 3.54331,3.54331 z" />
    <path
       id="path20015"
       style="fill:none;stroke:#ff0000;stroke-width:0.992126;stroke-linecap:round;stroke-linejoin:bevel"
       d="m 188.0315,368.70868 a 3.5433071,3.5433071 0 0 1 -3.54331,3.54331 3.5433071,3.5433071 0 0 1 -3.54331,-3.54331 3.5433071,3.5433071 0 0 1 3.54331,-3.54331 3.5433071,3.5433071 0 0 1 3.54331,3.54331 z" />
    <path
       id="path20017"
       style="fill:none;stroke:#ff0000;stroke-width:0.992126;stroke-linecap:round;stroke-linejoin:bevel"
       d="m 223.46456,368.70868 a 3.5433071,3.5433071 0 0 1 -3.54331,3.54331 3.5433071,3.5433071 0 0 1 -3.54331,-3.54331 3.5433071,3.5433071 0 0 1 3.54331,-3.54331 3.5433071,3.5433071 0 0 1 3.54331,3.54331 z" />
    <path
       id="path20019"
       style="fill:none;stroke:#ff0000;stroke-width:0.992126;stroke-linecap:round;stroke-linejoin:bevel"
       d="m 241.18109,368.70868 a 3.5433071,3.5433071 0 0 1 -3.5433,3.54331 3.5433071,3.5433071 0 0 1 -3.54331,-3.54331 3.5433071,3.5433071 0 0 1 3.54331,-3.54331 3.5433071,3.5433071 0 0 1 3.5433,3.54331 z" />
    <path
       id="path20021"
       style="fill:none;stroke:#ff0000;stroke-width:0.992126;stroke-linecap:round;stroke-linejoin:bevel"
       d="m 64.015742,407.68506 a 3.5433071,3.5433071 0 0 1 -3.543307,3.54331 3.5433071,3.5433071 0 0 1 -3.543307,-3.54331 3.5433071,3.5433071 0 0 1 3.543307,-3.54331 3.5433071,3.5433071 0 0 1 3.543307,3.54331 z" />
    <path
       id="path20023"
       style="fill:none;stroke:#ff0000;stroke-width:0.992126;stroke-linecap:round;stroke-linejoin:bevel"
       d="m 81.732272,407.68506 a 3.5433071,3.5433071 0 0 1 -3.543307,3.54331 3.5433071,3.5433071 0 0 1 -3.543307,-3.54331 3.5433071,3.5433071 0 0 1 3.543307,-3.54331 3.5433071,3.5433071 0 0 1 3.543307,3.54331 z" />
    <path
       id="path20025"
       style="fill:none;stroke:#ff0000;stroke-width:0.992126;stroke-linecap:round;stroke-linejoin:bevel"
       d="m 117.16535,407.68506 a 3.5433071,3.5433071 0 0 1 -3.54331,3.54331 3.5433071,3.5433071 0 0 1 -3.54331,-3.54331 3.5433071,3.5433071 0 0 1 3.54331,-3.54331 3.5433071,3.5433071 0 0 1 3.54331,3.54331 z" />
    <path
       id="path20027"
       style="fill:none;stroke:#ff0000;stroke-width:0.992126;stroke-linecap:round;stroke-linejoin:bevel"
       d="m 134.88188,407.68506 a 3.5433071,3.5433071 0 0 1 -3.5433,3.54331 3.5433071,3.5433071 0 0 1 -3.54331,-3.54331 3.5433071,3.5433071 0 0 1 3.54331,-3.54331 3.5433071,3.5433071 0 0 1 3.5433,3.54331 z" />
    <path
       id="path20029"
       style="fill:none;stroke:#ff0000;stroke-width:0.992126;stroke-linecap:round;stroke-linejoin:bevel"
       d="m 170.31496,407.68506 a 3.5433071,3.5433071 0 0 1 -3.54331,3.54331 3.5433071,3.5433071 0 0 1 -3.5433,-3.54331 3.5433071,3.5433071 0 0 1 3.5433,-3.54331 3.5433071,3.5433071 0 0 1 3.54331,3.54331 z" />
    <path
       id="path20031"
       style="fill:none;stroke:#ff0000;stroke-width:0.992126;stroke-linecap:round;stroke-linejoin:bevel"
       d="m 188.0315,407.68506 a 3.5433071,3.5433071 0 0 1 -3.54331,3.54331 3.5433071,3.5433071 0 0 1 -3.54331,-3.54331 3.5433071,3.5433071 0 0 1 3.54331,-3.54331 3.5433071,3.5433071 0 0 1 3.54331,3.54331 z" />
    <path
       id="path20033"
       style="fill:none;stroke:#ff0000;stroke-width:0.992126;stroke-linecap:round;stroke-linejoin:bevel"
       d="m 223.46456,407.68506 a 3.5433071,3.5433071 0 0 1 -3.54331,3.54331 3.5433071,3.5433071 0 0 1 -3.54331,-3.54331 3.5433071,3.5433071 0 0 1 3.54331,-3.54331 3.5433071,3.5433071 0 0 1 3.54331,3.54331 z" />
    <path
       id="path20035"
       style="fill:none;stroke:#ff0000;stroke-width:0.992126;stroke-linecap:round;stroke-linejoin:bevel"
       d="m 241.18109,407.68506 a 3.5433071,3.5433071 0 0 1 -3.5433,3.54331 3.5433071,3.5433071 0 0 1 -3.54331,-3.54331 3.5433071,3.5433071 0 0 1 3.54331,-3.54331 3.5433071,3.5433071 0 0 1 3.5433,3.54331 z" />
    <path
       id="path20037"
       style="fill:none;stroke:#ff0000;stroke-width:0.992126;stroke-linecap:round;stroke-linejoin:bevel"
       d="m 64.015742,446.66144 a 3.5433071,3.5433071 0 0 1 -3.543307,3.54331 3.5433071,3.5433071 0 0 1 -3.543307,-3.54331 3.5433071,3.5433071 0 0 1 3.543307,-3.54331 3.5433071,3.5433071 0 0 1 3.543307,3.54331 z" />
    <path
       id="path20039"
       style="fill:none;stroke:#ff0000;stroke-width:0.992126;stroke-linecap:round;stroke-linejoin:bevel"
       d="m 81.73228,446.66144 a 3.5433071,3.5433071 0 0 1 -3.543308,3.54331 3.5433071,3.5433071 0 0 1 -3.543307,-3.54331 3.5433071,3.5433071 0 0 1 3.543307,-3.54331 3.5433071,3.5433071 0 0 1 3.543308,3.54331 z" />
    <path
       id="path20041"
       style="fill:none;stroke:#ff0000;stroke-width:0.992126;stroke-linecap:round;stroke-linejoin:bevel"
       d="m 117.16535,446.66144 a 3.5433071,3.5433071 0 0 1 -3.54331,3.54331 3.5433071,3.5433071 0 0 1 -3.54331,-3.54331 3.5433071,3.5433071 0 0 1 3.54331,-3.54331 3.5433071,3.5433071 0 0 1 3.54331,3.54331 z" />
    <path
       id="path20043"
       style="fill:none;stroke:#ff0000;stroke-width:0.992126;stroke-linecap:round;stroke-linejoin:bevel"
       d="m 134.88188,446.66144 a 3.5433071,3.5433071 0 0 1 -3.5433,3.54331 3.5433071,3.5433071 0 0 1 -3.54331,-3.54331 3.5433071,3.5433071 0 0 1 3.54331,-3.54331 3.5433071,3.5433071 0 0 1 3.5433,3.54331 z" />
    <path
       id="path20045"
       style="fill:none;stroke:#ff0000;stroke-width:0.992126;stroke-linecap:round;stroke-linejoin:bevel"
       d="m 170.31496,446.66144 a 3.5433071,3.5433071 0 0 1 -3.54331,3.54331 3.5433071,3.5433071 0 0 1 -3.5433,-3.54331 3.5433071,3.5433071 0 0 1 3.5433,-3.54331 3.5433071,3.5433071 0 0 1 3.54331,3.54331 z" />
    <path
       id="path20047"
       style="fill:none;stroke:#ff0000;stroke-width:0.992126;stroke-linecap:round;stroke-linejoin:bevel"
       d="m 188.0315,446.66144 a 3.5433071,3.5433071 0 0 1 -3.54331,3.54331 3.5433071,3.5433071 0 0 1 -3.54331,-3.54331 3.5433071,3.5433071 0 0 1 3.54331,-3.54331 3.5433071,3.5433071 0 0 1 3.54331,3.54331 z" />
    <path
       id="path20049"
       style="fill:none;stroke:#ff0000;stroke-width:0.992126;stroke-linecap:round;stroke-linejoin:bevel"
       d="m 223.46456,446.66144 a 3.5433071,3.5433071 0 0 1 -3.54331,3.54331 3.5433071,3.5433071 0 0 1 -3.54331,-3.54331 3.5433071,3.5433071 0 0 1 3.54331,-3.54331 3.5433071,3.5433071 0 0 1 3.54331,3.54331 z" />
    <path
       id="path20051"
       style="fill:none;stroke:#ff0000;stroke-width:0.992126;stroke-linecap:round;stroke-linejoin:bevel"
       d="m 241.18109,446.66144 a 3.5433071,3.5433071 0 0 1 -3.5433,3.54331 3.5433071,3.5433071 0 0 1 -3.54331,-3.54331 3.5433071,3.5433071 0 0 1 3.54331,-3.54331 3.5433071,3.5433071 0 0 1 3.5433,3.54331 z" />
    <path
       id="path20053"
       style="fill:none;stroke:#ff0000;stroke-width:0.992126;stroke-linecap:round;stroke-linejoin:bevel"
       d="m 64.015742,485.63782 a 3.5433071,3.5433071 0 0 1 -3.543307,3.5433 3.5433071,3.5433071 0 0 1 -3.543307,-3.5433 3.5433071,3.5433071 0 0 1 3.543307,-3.54331 3.5433071,3.5433071 0 0 1 3.543307,3.54331 z" />
    <path
       id="path20055"
       style="fill:none;stroke:#ff0000;stroke-width:0.992126;stroke-linecap:round;stroke-linejoin:bevel"
       d="m 81.73228,485.63782 a 3.5433071,3.5433071 0 0 1 -3.543308,3.5433 3.5433071,3.5433071 0 0 1 -3.543307,-3.5433 3.5433071,3.5433071 0 0 1 3.543307,-3.54331 3.5433071,3.5433071 0 0 1 3.543308,3.54331 z" />
    <path
       id="path20057"
       style="fill:none;stroke:#ff0000;stroke-width:0.992126;stroke-linecap:round;stroke-linejoin:bevel"
       d="m 117.16535,485.63782 a 3.5433071,3.5433071 0 0 1 -3.54331,3.5433 3.5433071,3.5433071 0 0 1 -3.54331,-3.5433 3.5433071,3.5433071 0 0 1 3.54331,-3.54331 3.5433071,3.5433071 0 0 1 3.54331,3.54331 z" />
    <path
       id="path20059"
       style="fill:none;stroke:#ff0000;stroke-width:0.992126;stroke-linecap:round;stroke-linejoin:bevel"
       d="m 134.88188,485.63782 a 3.5433071,3.5433071 0 0 1 -3.5433,3.5433 3.5433071,3.5433071 0 0 1 -3.54331,-3.5433 3.5433071,3.5433071 0 0 1 3.54331,-3.54331 3.5433071,3.5433071 0 0 1 3.5433,3.54331 z" />
    <path
       id="path20061"
       style="fill:none;stroke:#ff0000;stroke-width:0.992126;stroke-linecap:round;stroke-linejoin:bevel"
       d="m 170.31496,485.63782 a 3.5433071,3.5433071 0 0 1 -3.54331,3.5433 3.5433071,3.5433071 0 0 1 -3.5433,-3.5433 3.5433071,3.5433071 0 0 1 3.5433,-3.54331 3.5433071,3.5433071 0 0 1 3.54331,3.54331 z" />
    <path
       id="path20063"
       style="fill:none;stroke:#ff0000;stroke-width:0.992126;stroke-linecap:round;stroke-linejoin:bevel"
       d="m 188.0315,485.63782 a 3.5433071,3.5433071 0 0 1 -3.54331,3.5433 3.5433071,3.5433071 0 0 1 -3.54331,-3.5433 3.5433071,3.5433071 0 0 1 3.54331,-3.54331 3.5433071,3.5433071 0 0 1 3.54331,3.54331 z" />
    <path
       id="path20065"
       style="fill:none;stroke:#ff0000;stroke-width:0.992126;stroke-linecap:round;stroke-linejoin:bevel"
       d="m 223.46456,485.63782 a 3.5433071,3.5433071 0 0 1 -3.54331,3.5433 3.5433071,3.5433071 0 0 1 -3.54331,-3.5433 3.5433071,3.5433071 0 0 1 3.54331,-3.54331 3.5433071,3.5433071 0 0 1 3.54331,3.54331 z" />
    <path
       id="path20067"
       style="fill:none;stroke:#ff0000;stroke-width:0.992126;stroke-linecap:round;stroke-linejoin:bevel"
       d="m 241.18109,485.63782 a 3.5433071,3.5433071 0 0 1 -3.5433,3.5433 3.5433071,3.5433071 0 0 1 -3.54331,-3.5433 3.5433071,3.5433071 0 0 1 3.54331,-3.54331 3.5433071,3.5433071 0 0 1 3.5433,3.54331 z" />
    <path
       id="path23417"
       style="fill:none;stroke:#ff0000;stroke-width:0.992126;stroke-linecap:round;stroke-linejoin:bevel"
       d="m 361.65354,212.80316 a 3.5433071,3.5433071 0 0 1 -3.54331,3.54331 3.5433071,3.5433071 0 0 1 -3.54331,-3.54331 3.5433071,3.5433071 0 0 1 3.54331,-3.54331 3.5433071,3.5433071 0 0 1 3.54331,3.54331 z" />
    <path
       id="path23419"
       style="fill:none;stroke:#ff0000;stroke-width:0.992126;stroke-linecap:round;stroke-linejoin:bevel"
       d="m 361.65354,251.77954 a 3.5433071,3.5433071 0 0 1 -3.54331,3.54331 3.5433071,3.5433071 0 0 1 -3.54331,-3.54331 3.5433071,3.5433071 0 0 1 3.54331,-3.54331 3.5433071,3.5433071 0 0 1 3.54331,3.54331 z" />
    <path
       id="path23421"
       style="fill:none;stroke:#ff0000;stroke-width:0.992126;stroke-linecap:round;stroke-linejoin:bevel"
       d="m 361.65354,290.75592 a 3.5433071,3.5433071 0 0 1 -3.54331,3.54331 3.5433071,3.5433071 0 0 1 -3.54331,-3.54331 3.5433071,3.5433071 0 0 1 3.54331,-3.54331 3.5433071,3.5433071 0 0 1 3.54331,3.54331 z" />
    <path
       id="path23423"
       style="fill:none;stroke:#ff0000;stroke-width:0.992126;stroke-linecap:round;stroke-linejoin:bevel"
       d="m 361.65354,329.7323 a 3.5433071,3.5433071 0 0 1 -3.54331,3.54331 3.5433071,3.5433071 0 0 1 -3.54331,-3.54331 3.5433071,3.5433071 0 0 1 3.54331,-3.54331 3.5433071,3.5433071 0 0 1 3.54331,3.54331 z" />
    <path
       id="path23425"
       style="fill:none;stroke:#ff0000;stroke-width:0.992126;stroke-linecap:round;stroke-linejoin:bevel"
       d="m 404.17322,212.80316 a 3.5433071,3.5433071 0 0 1 -3.54331,3.54331 3.5433071,3.5433071 0 0 1 -3.5433,-3.54331 3.5433071,3.5433071 0 0 1 3.5433,-3.54331 3.5433071,3.5433071 0 0 1 3.54331,3.54331 z" />
    <path
       id="path23427"
       style="fill:none;stroke:#ff0000;stroke-width:0.992126;stroke-linecap:round;stroke-linejoin:bevel"
       d="m 404.17322,251.77954 a 3.5433071,3.5433071 0 0 1 -3.54331,3.54331 3.5433071,3.5433071 0 0 1 -3.5433,-3.54331 3.5433071,3.5433071 0 0 1 3.5433,-3.54331 3.5433071,3.5433071 0 0 1 3.54331,3.54331 z" />
    <path
       id="path23429"
       style="fill:none;stroke:#ff0000;stroke-width:0.992126;stroke-linecap:round;stroke-linejoin:bevel"
       d="m 404.17322,290.75592 a 3.5433071,3.5433071 0 0 1 -3.54331,3.54331 3.5433071,3.5433071 0 0 1 -3.5433,-3.54331 3.5433071,3.5433071 0 0 1 3.5433,-3.54331 3.5433071,3.5433071 0 0 1 3.54331,3.54331 z" />
    <path
       id="path23431"
       style="fill:none;stroke:#ff0000;stroke-width:0.992126;stroke-linecap:round;stroke-linejoin:bevel"
       d="m 404.17322,329.7323 a 3.5433071,3.5433071 0 0 1 -3.54331,3.54331 3.5433071,3.5433071 0 0 1 -3.5433,-3.54331 3.5433071,3.5433071 0 0 1 3.5433,-3.54331 3.5433071,3.5433071 0 0 1 3.54331,3.54331 z" />
    <path
       id="path23433"
       style="fill:none;stroke:#ff0000;stroke-width:0.992126;stroke-linecap:round;stroke-linejoin:bevel"
       d="m 446.6929,212.80316 a 3.5433071,3.5433071 0 0 1 -3.5433,3.54331 3.5433071,3.5433071 0 0 1 -3.54331,-3.54331 3.5433071,3.5433071 0 0 1 3.54331,-3.54331 3.5433071,3.5433071 0 0 1 3.5433,3.54331 z" />
    <path
       id="path23435"
       style="fill:none;stroke:#ff0000;stroke-width:0.992126;stroke-linecap:round;stroke-linejoin:bevel"
       d="m 446.6929,251.77954 a 3.5433071,3.5433071 0 0 1 -3.5433,3.54331 3.5433071,3.5433071 0 0 1 -3.54331,-3.54331 3.5433071,3.5433071 0 0 1 3.54331,-3.54331 3.5433071,3.5433071 0 0 1 3.5433,3.54331 z" />
    <path
       id="path23437"
       style="fill:none;stroke:#ff0000;stroke-width:0.992126;stroke-linecap:round;stroke-linejoin:bevel"
       d="m 446.6929,290.75592 a 3.5433071,3.5433071 0 0 1 -3.5433,3.54331 3.5433071,3.5433071 0 0 1 -3.54331,-3.54331 3.5433071,3.5433071 0 0 1 3.54331,-3.54331 3.5433071,3.5433071 0 0 1 3.5433,3.54331 z" />
    <path
       id="path23439"
       style="fill:none;stroke:#ff0000;stroke-width:0.992126;stroke-linecap:round;stroke-linejoin:bevel"
       d="m 446.6929,329.7323 a 3.5433071,3.5433071 0 0 1 -3.5433,3.54331 3.5433071,3.5433071 0 0 1 -3.54331,-3.54331 3.5433071,3.5433071 0 0 1 3.54331,-3.54331 3.5433071,3.5433071 0 0 1 3.5433,3.54331 z" />
    <path
       id="path23441"
       style="fill:none;stroke:#ff0000;stroke-width:0.992126;stroke-linecap:round;stroke-linejoin:bevel"
       d="m 489.21259,212.80316 a 3.5433071,3.5433071 0 0 1 -3.54331,3.54331 3.5433071,3.5433071 0 0 1 -3.54331,-3.54331 3.5433071,3.5433071 0 0 1 3.54331,-3.54331 3.5433071,3.5433071 0 0 1 3.54331,3.54331 z" />
    <path
       id="path23443"
       style="fill:none;stroke:#ff0000;stroke-width:0.992126;stroke-linecap:round;stroke-linejoin:bevel"
       d="m 489.21259,251.77954 a 3.5433071,3.5433071 0 0 1 -3.54331,3.54331 3.5433071,3.5433071 0 0 1 -3.54331,-3.54331 3.5433071,3.5433071 0 0 1 3.54331,-3.54331 3.5433071,3.5433071 0 0 1 3.54331,3.54331 z" />
    <path
       id="path23445"
       style="fill:none;stroke:#ff0000;stroke-width:0.992126;stroke-linecap:round;stroke-linejoin:bevel"
       d="m 489.21259,290.75592 a 3.5433071,3.5433071 0 0 1 -3.54331,3.54331 3.5433071,3.5433071 0 0 1 -3.54331,-3.54331 3.5433071,3.5433071 0 0 1 3.54331,-3.54331 3.5433071,3.5433071 0 0 1 3.54331,3.54331 z" />
    <path
       id="path23447"
       style="fill:none;stroke:#ff0000;stroke-width:0.992126;stroke-linecap:round;stroke-linejoin:bevel"
       d="m 489.21259,329.7323 a 3.5433071,3.5433071 0 0 1 -3.54331,3.54331 3.5433071,3.5433071 0 0 1 -3.54331,-3.54331 3.5433071,3.5433071 0 0 1 3.54331,-3.54331 3.5433071,3.5433071 0 0 1 3.54331,3.54331 z" />
    <path
       id="path23449"
       style="fill:none;stroke:#ff0000;stroke-width:0.992126;stroke-linecap:round;stroke-linejoin:bevel"
       d="m 361.65354,368.70868 a 3.5433071,3.5433071 0 0 1 -3.54331,3.54331 3.5433071,3.5433071 0 0 1 -3.54331,-3.54331 3.5433071,3.5433071 0 0 1 3.54331,-3.54331 3.5433071,3.5433071 0 0 1 3.54331,3.54331 z" />
    <path
       id="path23451"
       style="fill:none;stroke:#ff0000;stroke-width:0.992126;stroke-linecap:round;stroke-linejoin:bevel"
       d="m 361.65354,407.68506 a 3.5433071,3.5433071 0 0 1 -3.54331,3.54331 3.5433071,3.5433071 0 0 1 -3.54331,-3.54331 3.5433071,3.5433071 0 0 1 3.54331,-3.54331 3.5433071,3.5433071 0 0 1 3.54331,3.54331 z" />
    <path
       id="path23453"
       style="fill:none;stroke:#ff0000;stroke-width:0.992126;stroke-linecap:round;stroke-linejoin:bevel"
       d="m 361.65354,446.66144 a 3.5433071,3.5433071 0 0 1 -3.54331,3.54331 3.5433071,3.5433071 0 0 1 -3.54331,-3.54331 3.5433071,3.5433071 0 0 1 3.54331,-3.54331 3.5433071,3.5433071 0 0 1 3.54331,3.54331 z" />
    <path
       id="path23455"
       style="fill:none;stroke:#ff0000;stroke-width:0.992126;stroke-linecap:round;stroke-linejoin:bevel"
       d="m 361.65354,485.63782 a 3.5433071,3.5433071 0 0 1 -3.54331,3.5433 3.5433071,3.5433071 0 0 1 -3.54331,-3.5433 3.5433071,3.5433071 0 0 1 3.54331,-3.54331 3.5433071,3.5433071 0 0 1 3.54331,3.54331 z" />
    <path
       id="path23457"
       style="fill:none;stroke:#ff0000;stroke-width:0.992126;stroke-linecap:round;stroke-linejoin:bevel"
       d="m 404.17322,368.70868 a 3.5433071,3.5433071 0 0 1 -3.54331,3.54331 3.5433071,3.5433071 0 0 1 -3.5433,-3.54331 3.5433071,3.5433071 0 0 1 3.5433,-3.54331 3.5433071,3.5433071 0 0 1 3.54331,3.54331 z" />
    <path
       id="path23459"
       style="fill:none;stroke:#ff0000;stroke-width:0.992126;stroke-linecap:round;stroke-linejoin:bevel"
       d="m 404.17322,407.68506 a 3.5433071,3.5433071 0 0 1 -3.54331,3.54331 3.5433071,3.5433071 0 0 1 -3.5433,-3.54331 3.5433071,3.5433071 0 0 1 3.5433,-3.54331 3.5433071,3.5433071 0 0 1 3.54331,3.54331 z" />
    <path
       id="path23461"
       style="fill:none;stroke:#ff0000;stroke-width:0.992126;stroke-linecap:round;stroke-linejoin:bevel"
       d="m 404.17322,446.66144 a 3.5433071,3.5433071 0 0 1 -3.54331,3.54331 3.5433071,3.5433071 0 0 1 -3.5433,-3.54331 3.5433071,3.5433071 0 0 1 3.5433,-3.54331 3.5433071,3.5433071 0 0 1 3.54331,3.54331 z" />
    <path
       id="path23463"
       style="fill:none;stroke:#ff0000;stroke-width:0.992126;stroke-linecap:round;stroke-linejoin:bevel"
       d="m 404.17322,485.63782 a 3.5433071,3.5433071 0 0 1 -3.54331,3.5433 3.5433071,3.5433071 0 0 1 -3.5433,-3.5433 3.5433071,3.5433071 0 0 1 3.5433,-3.54331 3.5433071,3.5433071 0 0 1 3.54331,3.54331 z" />
    <path
       id="path23465"
       style="fill:none;stroke:#ff0000;stroke-width:0.992126;stroke-linecap:round;stroke-linejoin:bevel"
       d="m 446.6929,368.70868 a 3.5433071,3.5433071 0 0 1 -3.5433,3.54331 3.5433071,3.5433071 0 0 1 -3.54331,-3.54331 3.5433071,3.5433071 0 0 1 3.54331,-3.54331 3.5433071,3.5433071 0 0 1 3.5433,3.54331 z" />
    <path
       id="path23467"
       style="fill:none;stroke:#ff0000;stroke-width:0.992126;stroke-linecap:round;stroke-linejoin:bevel"
       d="m 446.6929,407.68506 a 3.5433071,3.5433071 0 0 1 -3.5433,3.54331 3.5433071,3.5433071 0 0 1 -3.54331,-3.54331 3.5433071,3.5433071 0 0 1 3.54331,-3.54331 3.5433071,3.5433071 0 0 1 3.5433,3.54331 z" />
    <path
       id="path23469"
       style="fill:none;stroke:#ff0000;stroke-width:0.992126;stroke-linecap:round;stroke-linejoin:bevel"
       d="m 446.6929,446.66144 a 3.5433071,3.5433071 0 0 1 -3.5433,3.54331 3.5433071,3.5433071 0 0 1 -3.54331,-3.54331 3.5433071,3.5433071 0 0 1 3.54331,-3.54331 3.5433071,3.5433071 0 0 1 3.5433,3.54331 z" />
    <path
       id="path23471"
       style="fill:none;stroke:#ff0000;stroke-width:0.992126;stroke-linecap:round;stroke-linejoin:bevel"
       d="m 446.6929,485.63782 a 3.5433071,3.5433071 0 0 1 -3.5433,3.5433 3.5433071,3.5433071 0 0 1 -3.54331,-3.5433 3.5433071,3.5433071 0 0 1 3.54331,-3.54331 3.5433071,3.5433071 0 0 1 3.5433,3.54331 z" />
    <path
       id="path23473"
       style="fill:none;stroke:#ff0000;stroke-width:0.992126;stroke-linecap:round;stroke-linejoin:bevel"
       d="m 489.21259,368.70868 a 3.5433071,3.5433071 0 0 1 -3.54331,3.54331 3.5433071,3.5433071 0 0 1 -3.54331,-3.54331 3.5433071,3.5433071 0 0 1 3.54331,-3.54331 3.5433071,3.5433071 0 0 1 3.54331,3.54331 z" />
    <path
       id="path23475"
       style="fill:none;stroke:#ff0000;stroke-width:0.992126;stroke-linecap:round;stroke-linejoin:bevel"
       d="m 489.21259,407.68506 a 3.5433071,3.5433071 0 0 1 -3.54331,3.54331 3.5433071,3.5433071 0 0 1 -3.54331,-3.54331 3.5433071,3.5433071 0 0 1 3.54331,-3.54331 3.5433071,3.5433071 0 0 1 3.54331,3.54331 z" />
    <path
       id="path23477"
       style="fill:none;stroke:#ff0000;stroke-width:0.992126;stroke-linecap:round;stroke-linejoin:bevel"
       d="m 489.21259,446.66144 a 3.5433071,3.5433071 0 0 1 -3.54331,3.54331 3.5433071,3.5433071 0 0 1 -3.54331,-3.54331 3.5433071,3.5433071 0 0 1 3.54331,-3.54331 3.5433071,3.5433071 0 0 1 3.54331,3.54331 z" />
    <path
       id="path23479"
       style="fill:none;stroke:#ff0000;stroke-width:0.992126;stroke-linecap:round;stroke-linejoin:bevel"
       d="m 489.21259,485.63782 a 3.5433071,3.5433071 0 0 1 -3.54331,3.5433 3.5433071,3.5433071 0 0 1 -3.54331,-3.5433 3.5433071,3.5433071 0 0 1 3.54331,-3.54331 3.5433071,3.5433071 0 0 1 3.54331,3.54331 z" />
  </g>
</svg>
