<?xml version="1.0" encoding="UTF-8" standalone="no"?>
<!-- Created with Inkscape (http://www.inkscape.org/) -->

<svg
   width="195.06445mm"
   height="78.950073mm"
   id="svg19791"
   version="1.0"
   viewBox="0 0 691.17326 279.74435"
   xmlns="http://www.w3.org/2000/svg"
   xmlns:svg="http://www.w3.org/2000/svg"
   xmlns:rdf="http://www.w3.org/1999/02/22-rdf-syntax-ns#"
   xmlns:cc="http://creativecommons.org/ns#"
   xmlns:dc="http://purl.org/dc/elements/1.1/">
  <defs
     id="defs3">
    <marker
       style="overflow:visible"
       id="marker22529"
       refX="0"
       refY="0"
       orient="auto">
      <path
         transform="matrix(0.4,0,0,0.4,2.96,0.4)"
         style="fill-rule:evenodd;stroke:#000000;stroke-width:1.00000003pt;marker-start:none;marker-end:none"
         d="m -2.5,-1 c 0,2.76 -2.24,5 -5,5 -2.76,0 -5,-2.24 -5,-5 0,-2.76 2.24,-5 5,-5 2.76,0 5,2.24 5,5 z"
         id="path22531" />
    </marker>
    <marker
       style="overflow:visible"
       id="marker18753"
       refX="0"
       refY="0"
       orient="auto">
      <path
         transform="matrix(0.4,0,0,0.4,2.96,0.4)"
         style="fill-rule:evenodd;stroke:#000000;stroke-width:1.00000003pt;marker-start:none;marker-end:none"
         d="m -2.5,-1 c 0,2.76 -2.24,5 -5,5 -2.76,0 -5,-2.24 -5,-5 0,-2.76 2.24,-5 5,-5 2.76,0 5,2.24 5,5 z"
         id="path18755" />
    </marker>
  </defs>
  <metadata
     id="metadata4">
    <rdf:RDF>
      <cc:Work
         rdf:about="">
        <dc:format>image/svg+xml</dc:format>
        <dc:type
           rdf:resource="http://purl.org/dc/dcmitype/StillImage" />
        <dc:title />
      </cc:Work>
    </rdf:RDF>
  </metadata>
  <g
     id="layer1"
     transform="translate(-94.193305,-92.802539)">
    <g
       id="g53853"
       transform="rotate(90,66.861802,227.99438)">
      <path
         style="fill:#ffeeaa;fill-rule:evenodd;stroke:#000000;stroke-width:1px;stroke-linecap:butt;stroke-linejoin:miter;stroke-opacity:1"
         d="M 51.377951,56.360653 V 77.620495 L 70.866142,67.37838 Z"
         id="path53855"
         transform="translate(-44.203438,-91.419854)" />
      <path
         id="path53857"
         style="fill:#ffeeaa;stroke:#000000;stroke-width:0.999213"
         transform="translate(-44.203438,-91.419854)"
         d="m 77.952754,67.37838 a 3.5433071,3.5433071 0 0 1 -3.543307,3.543307 3.5433071,3.5433071 0 0 1 -3.543307,-3.543307 3.5433071,3.5433071 0 0 1 3.543307,-3.543307 3.5433071,3.5433071 0 0 1 3.543307,3.543307 z" />
      <path
         style="fill:none;stroke:#000000;stroke-width:1px;stroke-linecap:butt;stroke-linejoin:miter;stroke-opacity:1;marker-start:url(#marker22529)"
         d="m 24.803156,138.24452 -3e-6,-70.86614 26.574798,-0.387806"
         id="path53859"
         transform="translate(-44.203438,-91.419854)" />
      <path
         style="fill:none;stroke:#000000;stroke-width:1px;stroke-linecap:butt;stroke-linejoin:miter;stroke-opacity:1"
         d="m 77.952756,67.37838 53.149614,-5e-6"
         id="path53861"
         transform="translate(-44.203438,-91.419854)" />
    </g>
    <path
       style="fill:none;stroke:#000000;stroke-width:1px;stroke-linecap:butt;stroke-linejoin:miter;stroke-opacity:1"
       d="m 616.53546,290.5512 55.97862,-2e-5"
       id="path53907" />
    <path
       style="fill:#ffeeaa;stroke:#000000;stroke-width:0.999213;stroke-linecap:butt;stroke-linejoin:miter;stroke-miterlimit:4;stroke-dasharray:none;stroke-opacity:1"
       d="m 549.21262,212.59845 v 152.36221 h 8.84546 c 17.69092,0 59.24102,-12.69678 59.24102,-76.18103 0,-63.48425 -41.5501,-76.18118 -59.24102,-76.18118 0,0 -8.84546,0 -8.84546,0 z"
       id="path53909" />
    <path
       id="path16559"
       d="m 180.70869,194.8819 v 28.34646 h 368.50393"
       style="fill:none;stroke:#000000;stroke-width:1px;stroke-linecap:butt;stroke-linejoin:miter;stroke-opacity:1;marker-start:none" />
    <path
       style="fill:none;stroke:#000000;stroke-width:1px;stroke-linecap:butt;stroke-linejoin:miter;stroke-opacity:1;marker-start:none"
       d="m 162.99216,194.8819 v 70.86615 h 386.22045"
       id="path16565" />
    <path
       id="path6176"
       d="M 145.27562,194.8819 V 308.26773 H 549.21261"
       style="fill:none;stroke:#000000;stroke-width:1px;stroke-linecap:butt;stroke-linejoin:miter;stroke-opacity:1;marker-start:none" />
    <g
       id="g3949"
       transform="matrix(-0.73899976,-0.7323609,-0.73899976,0.7323609,488.47674,36.835067)">
      <path
         style="fill:none;stroke:#ff0000;stroke-width:0.960413;stroke-linecap:butt;stroke-linejoin:miter;stroke-miterlimit:4;stroke-dasharray:none;stroke-opacity:1"
         d="m 49.606299,265.74803 c 0,0 -1.67912,3.5433 -3.543307,3.5433 -3.543307,0 -3.543307,-7.08661 -7.086614,-7.08661 -3.543307,0 -3.543307,7.08661 -7.086614,7.08661 -3.543307,0 -2.856357,-7.08661 -7.086614,-7.08661 -1.908855,0 -3.543307,3.54331 -3.543307,3.54331"
         id="path6180" />
      <path
         style="fill:none;stroke:#000000;stroke-width:0.96117px;stroke-linecap:butt;stroke-linejoin:miter;stroke-opacity:1;marker-end:url(#marker18753)"
         d="M 21.259849,265.74803 H 11.237863"
         id="path6182" />
      <path
         id="path8645"
         d="m 49.361517,265.74802 10.021996,1e-5"
         style="fill:none;stroke:#000000;stroke-width:0.96117px;stroke-linecap:butt;stroke-linejoin:miter;stroke-opacity:1;marker-end:url(#marker18753)" />
    </g>
    <g
       id="g7166"
       transform="matrix(-1,0,0,1,673.22836,2.632119e-5)">
      <g
         id="g8704"
         transform="rotate(-45,433.53306,-420.54409)">
        <path
           style="fill:none;stroke:#000000;stroke-width:1px;stroke-linecap:butt;stroke-linejoin:miter;stroke-opacity:1;marker-end:url(#marker18753)"
           d="m -122.78624,-16.321779 -10.02198,-6e-6"
           id="path8649" />
        <path
           id="path8651"
           d="m -92.720281,-16.321788 10.021988,1e-5"
           style="fill:none;stroke:#000000;stroke-width:1px;stroke-linecap:butt;stroke-linejoin:miter;stroke-opacity:1;marker-end:url(#marker18753)" />
      </g>
      <g
         id="g8693"
         transform="matrix(1.1392403,-1.1392403,0.7071068,0.7071068,452.50742,215.35263)">
        <g
           transform="rotate(-22.499999,16.477502,6.7589428)"
           id="g8669">
          <path
             id="path8667"
             d="m -33.909497,-92.204021 v -3.543308"
             style="fill:none;stroke:#ff0000;stroke-width:0.787214;stroke-linecap:butt;stroke-linejoin:miter;stroke-miterlimit:4;stroke-dasharray:none;stroke-opacity:1" />
          <path
             style="fill:none;stroke:#ff0000;stroke-width:0.787214;stroke-linecap:butt;stroke-linejoin:miter;stroke-miterlimit:4;stroke-dasharray:none;stroke-opacity:1"
             d="m -33.909497,-74.487484 v -3.543308"
             id="path8679" />
          <path
             style="fill:none;stroke:#ff0000;stroke-width:0.787214;stroke-linecap:butt;stroke-linejoin:miter;stroke-miterlimit:4;stroke-dasharray:none;stroke-opacity:1"
             d="m -38.92049,-90.1284 -2.505497,-2.505497"
             id="path8681" />
          <path
             id="path8683"
             d="m -26.393007,-77.600916 -2.505497,-2.505497"
             style="fill:none;stroke:#ff0000;stroke-width:0.787214;stroke-linecap:butt;stroke-linejoin:miter;stroke-miterlimit:4;stroke-dasharray:none;stroke-opacity:1" />
          <path
             id="path8685"
             d="m -40.996112,-85.117407 h -3.543307"
             style="fill:none;stroke:#ff0000;stroke-width:0.787214;stroke-linecap:butt;stroke-linejoin:miter;stroke-miterlimit:4;stroke-dasharray:none;stroke-opacity:1" />
          <path
             style="fill:none;stroke:#ff0000;stroke-width:0.787214;stroke-linecap:butt;stroke-linejoin:miter;stroke-miterlimit:4;stroke-dasharray:none;stroke-opacity:1"
             d="m -23.279575,-85.117406 h -3.543307"
             id="path8687" />
          <path
             style="fill:none;stroke:#ff0000;stroke-width:0.787214;stroke-linecap:butt;stroke-linejoin:miter;stroke-miterlimit:4;stroke-dasharray:none;stroke-opacity:1"
             d="m -38.92049,-80.106414 -2.505497,2.505497"
             id="path8689" />
          <path
             id="path8691"
             d="m -26.393007,-92.633896 -2.505497,2.505497"
             style="fill:none;stroke:#ff0000;stroke-width:0.787214;stroke-linecap:butt;stroke-linejoin:miter;stroke-miterlimit:4;stroke-dasharray:none;stroke-opacity:1" />
        </g>
      </g>
    </g>
    <path
       style="fill:none;stroke:#000000;stroke-width:1px;stroke-linecap:butt;stroke-linejoin:miter;stroke-opacity:1"
       d="m 248.03152,123.7815 1e-5,81.73033"
       id="path9016" />
    <g
       aria-label="A"
       id="text11661"
       style="line-height:0%;font-family:Iwona;-inkscape-font-specification:Iwona;text-align:center;text-anchor:middle">
      <path
         d="m 255.13779,116.92915 -6.096,-16.8 h -2.088 l -6.216,16.8 h 1.176 l 2.184,-5.88 h 6.816 l 2.136,5.88 z m -4.632,-6.984 h -6 l 3.024,-8.208 z"
         style="font-size:24px;line-height:1.25"
         id="path800" />
    </g>
    <g
       transform="rotate(90,137.72794,298.86052)"
       id="g6377">
      <path
         transform="translate(-44.203438,-91.419854)"
         id="path6379"
         d="M 51.377951,56.360653 V 77.620495 L 70.866142,67.37838 Z"
         style="fill:#ffeeaa;stroke:#000000;stroke-width:1px;stroke-linecap:butt;stroke-linejoin:miter;stroke-opacity:1" />
      <path
         id="path6381"
         style="fill:#ffeeaa;stroke:#000000;stroke-width:0.999213"
         transform="translate(-44.203438,-91.419854)"
         d="m 77.952754,67.37838 a 3.5433071,3.5433071 0 0 1 -3.543307,3.543307 3.5433071,3.5433071 0 0 1 -3.543307,-3.543307 3.5433071,3.5433071 0 0 1 3.543307,-3.543307 3.5433071,3.5433071 0 0 1 3.543307,3.543307 z" />
      <path
         transform="translate(-44.203438,-91.419854)"
         id="path6383"
         d="m 24.803156,138.24452 -3e-6,-70.86614 26.574798,-0.387806"
         style="fill:none;stroke:#000000;stroke-width:1px;stroke-linecap:butt;stroke-linejoin:miter;stroke-opacity:1;marker-start:url(#marker22529)" />
      <path
         transform="translate(-44.203438,-91.419854)"
         id="path6385"
         d="m 77.952756,67.37838 141.732294,-8e-6"
         style="fill:none;stroke:#000000;stroke-width:1px;stroke-linecap:butt;stroke-linejoin:miter;stroke-opacity:1" />
    </g>
    <g
       transform="matrix(-0.73899963,-0.73236086,-0.73899963,0.73236086,701.07513,167.93744)"
       id="g6387">
      <path
         id="path6389"
         d="m 49.606299,265.74803 c 0,0 -1.67912,3.5433 -3.543307,3.5433 -3.543307,0 -3.543307,-7.08661 -7.086614,-7.08661 -3.543307,0 -3.543307,7.08661 -7.086614,7.08661 -3.543307,0 -2.856357,-7.08661 -7.086614,-7.08661 -1.908855,0 -3.543307,3.54331 -3.543307,3.54331"
         style="fill:none;stroke:#ff0000;stroke-width:0.960414;stroke-linecap:butt;stroke-linejoin:miter;stroke-miterlimit:4;stroke-dasharray:none;stroke-opacity:1" />
      <path
         id="path6391"
         d="M 21.259849,265.74803 H 11.237863"
         style="fill:none;stroke:#000000;stroke-width:0.96117px;stroke-linecap:butt;stroke-linejoin:miter;stroke-opacity:1;marker-end:url(#marker18753)" />
      <path
         style="fill:none;stroke:#000000;stroke-width:0.96117px;stroke-linecap:butt;stroke-linejoin:miter;stroke-opacity:1;marker-end:url(#marker18753)"
         d="m 49.361517,265.74802 10.021996,1e-5"
         id="path6393" />
    </g>
    <g
       id="g7181"
       transform="matrix(-1,0,0,1,814.96065,2.136056e-5)">
      <g
         transform="rotate(-45,520.29193,-484.82724)"
         id="g6395">
        <path
           id="path6397"
           d="m -122.78624,-16.321779 -10.02198,-6e-6"
           style="fill:none;stroke:#000000;stroke-width:1px;stroke-linecap:butt;stroke-linejoin:miter;stroke-opacity:1;marker-end:url(#marker18753)" />
        <path
           style="fill:none;stroke:#000000;stroke-width:1px;stroke-linecap:butt;stroke-linejoin:miter;stroke-opacity:1;marker-end:url(#marker18753)"
           d="m -92.720281,-16.321788 10.021988,1e-5"
           id="path6399" />
      </g>
      <g
         transform="matrix(1.1392403,-1.1392403,0.7071068,0.7071068,523.37356,257.87232)"
         id="g6401">
        <g
           id="g6403"
           transform="rotate(-22.499999,16.477502,6.7589428)">
          <path
             style="fill:none;stroke:#ff0000;stroke-width:0.787214;stroke-linecap:butt;stroke-linejoin:miter;stroke-miterlimit:4;stroke-dasharray:none;stroke-opacity:1"
             d="m -33.909497,-92.204021 v -3.543308"
             id="path6405" />
          <path
             id="path6407"
             d="m -33.909497,-74.487484 v -3.543308"
             style="fill:none;stroke:#ff0000;stroke-width:0.787214;stroke-linecap:butt;stroke-linejoin:miter;stroke-miterlimit:4;stroke-dasharray:none;stroke-opacity:1" />
          <path
             id="path6409"
             d="m -38.92049,-90.1284 -2.505497,-2.505497"
             style="fill:none;stroke:#ff0000;stroke-width:0.787214;stroke-linecap:butt;stroke-linejoin:miter;stroke-miterlimit:4;stroke-dasharray:none;stroke-opacity:1" />
          <path
             style="fill:none;stroke:#ff0000;stroke-width:0.787214;stroke-linecap:butt;stroke-linejoin:miter;stroke-miterlimit:4;stroke-dasharray:none;stroke-opacity:1"
             d="m -26.393007,-77.600916 -2.505497,-2.505497"
             id="path6411" />
          <path
             style="fill:none;stroke:#ff0000;stroke-width:0.787214;stroke-linecap:butt;stroke-linejoin:miter;stroke-miterlimit:4;stroke-dasharray:none;stroke-opacity:1"
             d="m -40.996112,-85.117407 h -3.543307"
             id="path6413" />
          <path
             id="path6415"
             d="m -23.279575,-85.117406 h -3.543307"
             style="fill:none;stroke:#ff0000;stroke-width:0.787214;stroke-linecap:butt;stroke-linejoin:miter;stroke-miterlimit:4;stroke-dasharray:none;stroke-opacity:1" />
          <path
             id="path6417"
             d="m -38.92049,-80.106414 -2.505497,2.505497"
             style="fill:none;stroke:#ff0000;stroke-width:0.787214;stroke-linecap:butt;stroke-linejoin:miter;stroke-miterlimit:4;stroke-dasharray:none;stroke-opacity:1" />
          <path
             style="fill:none;stroke:#ff0000;stroke-width:0.787214;stroke-linecap:butt;stroke-linejoin:miter;stroke-miterlimit:4;stroke-dasharray:none;stroke-opacity:1"
             d="m -26.393007,-92.633896 -2.505497,2.505497"
             id="path6419" />
        </g>
      </g>
    </g>
    <path
       id="path6421"
       d="m 389.7638,124.01576 10e-6,166.53544"
       style="fill:none;stroke:#000000;stroke-width:1px;stroke-linecap:butt;stroke-linejoin:miter;stroke-opacity:1" />
    <g
       aria-label="B"
       id="text6423"
       style="line-height:0%;font-family:Iwona;-inkscape-font-specification:Iwona;text-align:center;text-anchor:middle">
      <path
         d="m 395.54478,112.36915 c 0,-2.64 -1.728,-4.032 -4.248,-4.56 1.848,-0.552 3.072,-1.752 3.072,-3.792 0,-2.928 -2.52,-4.127997 -5.76,-4.127997 -1.248,0 -2.496,0.072 -3.744,0.239997 h -1.92 v 16.8 h 1.92 l 3.744,0.24 c 3.888,0 6.936,-1.32 6.936,-4.8 z m -3.144,-8.352 c 0,2.424 -2.712,3.672 -5.424,3.672 h -2.064 v -6.456 c 1.224,-0.168 2.472,-0.24 3.696,-0.24 1.968,0 3.792,1.2 3.792,3.024 z m 0.792,8.352 c 0,2.208 -2.184,3.696 -4.584,3.696 -1.224,0 -2.472,-0.072 -3.696,-0.24 v -7.296 h 3.096 c 2.64,0 5.184,1.416 5.184,3.84 z"
         style="font-size:24px;line-height:1.25"
         id="path804" />
    </g>
    <path
       style="fill:none;stroke:#000000;stroke-width:1px;stroke-linecap:butt;stroke-linejoin:miter;stroke-opacity:1;marker-start:none"
       d="M 127.55909,194.8819 V 354.33072 H 549.21262"
       id="path6427" />
    <g
       id="g6435"
       transform="translate(232.61068,3.5433286)">
      <g
         aria-label="Y = A . B"
         id="text6429"
         style="line-height:0%;font-family:Iwona;-inkscape-font-specification:Iwona;text-align:center;text-anchor:middle">
        <path
           d="m 456.93942,277.29448 h -1.296 l -5.112,8.496 -4.56,-8.496 h -2.232 l 5.616,10.08 v 6.72 h 1.968 v -7.464 z"
           style="font-size:24px;line-height:1.25"
           id="path807" />
        <path
           d="m 482.04338,286.29448 v -1.2 h -15.072 v 1.2 z m 0,4.8 v -1.2 h -15.072 v 1.2 z"
           style="font-size:24px;line-height:1.25"
           id="path809" />
        <path
           d="m 506.47533,294.09448 -6.096,-16.8 h -2.088 l -6.216,16.8 h 1.176 l 2.184,-5.88 h 6.816 l 2.136,5.88 z m -4.632,-6.984 h -6 l 3.024,-8.208 z"
           style="font-size:24px;line-height:1.25"
           id="path811" />
        <path
           d="m 518.45127,292.91848 c 0,-0.648 -0.528,-1.176 -1.176,-1.176 -0.648,0 -1.176,0.528 -1.176,1.176 0,0.648 0.528,1.176 1.176,1.176 0.648,0 1.176,-0.528 1.176,-1.176 z"
           style="font-size:24px;line-height:1.25"
           id="path813" />
        <path
           d="m 542.8352,289.53448 c 0,-2.64 -1.728,-4.032 -4.248,-4.56 1.848,-0.552 3.072,-1.752 3.072,-3.792 0,-2.928 -2.52,-4.128 -5.76,-4.128 -1.248,0 -2.496,0.072 -3.744,0.24 h -1.92 v 16.8 h 1.92 l 3.744,0.24 c 3.888,0 6.936,-1.32 6.936,-4.8 z m -3.144,-8.352 c 0,2.424 -2.712,3.672 -5.424,3.672 h -2.064 v -6.456 c 1.224,-0.168 2.472,-0.24 3.696,-0.24 1.968,0 3.792,1.2 3.792,3.024 z m 0.792,8.352 c 0,2.208 -2.184,3.696 -4.584,3.696 -1.224,0 -2.472,-0.072 -3.696,-0.24 v -7.296 h 3.096 c 2.64,0 5.184,1.416 5.184,3.84 z"
           style="font-size:24px;line-height:1.25"
           id="path815" />
      </g>
      <path
         id="path6433"
         d="m 527.95276,272.83464 h 17.71653"
         style="fill:none;stroke:#000000;stroke-width:1px;stroke-linecap:butt;stroke-linejoin:miter;stroke-opacity:1" />
    </g>
    <g
       aria-label="VDD"
       id="text3590"
       style="line-height:0%;font-family:Iwona;-inkscape-font-specification:Iwona;text-align:center;text-anchor:middle">
      <path
         d="m 115.69139,100.12915 h -1.176 l -5.568,14.256 -5.544,-14.256 h -2.112 l 6.552,16.8 h 1.296 z"
         style="font-size:24px;line-height:1.25"
         id="path818" />
      <path
         d="m 132.44337,108.52915 c 0,-5.136 -2.808,-8.639997 -7.752,-8.639997 -1.488,0 -2.976,0.072 -4.44,0.239997 h -1.92 v 16.8 h 1.92 c 1.464,0.168 2.952,0.24 4.44,0.24 4.944,0 7.752,-3.504 7.752,-8.64 z m -2.352,0 c 0,3.816 -1.944,7.536 -5.4,7.536 -1.464,0 -2.928,-0.072 -4.392,-0.24 v -14.592 c 1.464,-0.168 2.928,-0.24 4.392,-0.24 3.456,0 5.4,3.72 5.4,7.536 z"
         style="font-size:24px;line-height:1.25"
         id="path820" />
      <path
         d="m 150.39535,108.52915 c 0,-5.136 -2.808,-8.639997 -7.752,-8.639997 -1.488,0 -2.976,0.072 -4.44,0.239997 h -1.92 v 16.8 h 1.92 c 1.464,0.168 2.952,0.24 4.44,0.24 4.944,0 7.752,-3.504 7.752,-8.64 z m -2.352,0 c 0,3.816 -1.944,7.536 -5.4,7.536 -1.464,0 -2.928,-0.072 -4.392,-0.24 v -14.592 c 1.464,-0.168 2.928,-0.24 4.392,-0.24 3.456,0 5.4,3.72 5.4,7.536 z"
         style="font-size:24px;line-height:1.25"
         id="path822" />
    </g>
    <path
       id="rect3594"
       style="fill:#ffeeaa;stroke:#000000;stroke-width:0.999213;stroke-linecap:round;stroke-linejoin:bevel"
       d="m 177.16539,159.44882 h 7.08661 v 35.43307 h -7.08661 z" />
    <path
       id="rect6318"
       style="fill:#ffeeaa;stroke:#000000;stroke-width:0.999213;stroke-linecap:round;stroke-linejoin:bevel"
       d="m 159.44885,159.44882 h 7.08662 v 35.43307 h -7.08662 z" />
    <path
       id="rect6320"
       style="fill:#ffeeaa;stroke:#000000;stroke-width:0.999213;stroke-linecap:round;stroke-linejoin:bevel"
       d="m 141.73232,159.44882 h 7.08661 v 35.43307 h -7.08661 z" />
    <path
       id="rect6322"
       style="fill:#ffeeaa;stroke:#000000;stroke-width:0.999213;stroke-linecap:round;stroke-linejoin:bevel"
       d="m 124.01577,159.44882 h 7.08661 v 35.43307 h -7.08661 z" />
    <path
       id="path6324"
       d="M 180.70869,159.44883 V 141.7323 h -53.1496 v 17.71653"
       style="fill:none;stroke:#000000;stroke-width:1px;stroke-linecap:butt;stroke-linejoin:miter;stroke-opacity:1" />
    <path
       style="fill:none;stroke:#000000;stroke-width:1px;stroke-linecap:butt;stroke-linejoin:miter;stroke-opacity:1;marker-end:url(#marker18753)"
       d="M 145.27562,159.44883 V 141.7323"
       id="path6326" />
    <path
       id="path7160"
       d="M 162.99216,159.44883 V 141.7323"
       style="fill:none;stroke:#000000;stroke-width:1px;stroke-linecap:butt;stroke-linejoin:miter;stroke-opacity:1;marker-end:url(#marker18753)" />
    <path
       style="fill:none;stroke:#000000;stroke-width:1px;stroke-linecap:butt;stroke-linejoin:miter;stroke-opacity:1;marker-end:url(#marker18753)"
       d="m 127.55909,124.01576 v 17.71653"
       id="path7162" />
    <path
       style="fill:none;stroke:#000000;stroke-width:2.65748;stroke-linecap:butt;stroke-linejoin:miter;stroke-miterlimit:4;stroke-dasharray:none;stroke-opacity:1"
       d="m 116.92916,124.01576 h 21.25985"
       id="path7164" />
    <g
       aria-label="A"
       id="text7196"
       style="line-height:0%;font-family:Iwona;-inkscape-font-specification:Iwona;text-align:center;text-anchor:middle">
      <path
         d="m 532.07398,216.14174 -6.096,-16.8 h -2.088 l -6.216,16.8 h 1.176 l 2.184,-5.88 h 6.816 l 2.136,5.88 z m -4.632,-6.984 h -6 l 3.024,-8.208 z"
         style="font-size:24px;line-height:1.25"
         id="path829" />
    </g>
    <g
       aria-label="1"
       id="text7204"
       style="line-height:0%;font-family:Iwona;-inkscape-font-specification:Iwona;text-align:center;text-anchor:middle">
      <path
         d="m 525.09065,301.18112 v -16.56 h -1.392 c -1.32,1.512 -2.88,2.808 -4.608,3.816 v 1.008 c 1.464,-0.696 2.832,-1.512 4.128,-2.496 v 14.232 z"
         style="font-size:24px;line-height:1.25"
         id="path832" />
    </g>
    <g
       aria-label="1"
       id="text7208"
       style="line-height:0%;font-family:Iwona;-inkscape-font-specification:Iwona;text-align:center;text-anchor:middle">
      <path
         d="m 525.09065,258.66144 v -16.56 h -1.392 c -1.32,1.512 -2.88,2.808 -4.608,3.816 v 1.008 c 1.464,-0.696 2.832,-1.512 4.128,-2.496 v 14.232 z"
         style="font-size:24px;line-height:1.25"
         id="path835" />
    </g>
    <g
       id="g7214"
       transform="translate(2.6000046e-5,2.1497729e-5)">
      <g
         aria-label="B"
         id="text7200"
         style="line-height:0%;font-family:Iwona;-inkscape-font-specification:Iwona;text-align:center;text-anchor:middle">
        <path
           d="m 530.7487,342.68408 c 0,-2.64 -1.728,-4.032 -4.248,-4.56 1.848,-0.552 3.072,-1.752 3.072,-3.792 0,-2.928 -2.52,-4.128 -5.76,-4.128 -1.248,0 -2.496,0.072 -3.744,0.24 h -1.92 v 16.8 h 1.92 l 3.744,0.24 c 3.888,0 6.936,-1.32 6.936,-4.8 z m -3.144,-8.352 c 0,2.424 -2.712,3.672 -5.424,3.672 h -2.064 v -6.456 c 1.224,-0.168 2.472,-0.24 3.696,-0.24 1.968,0 3.792,1.2 3.792,3.024 z m 0.792,8.352 c 0,2.208 -2.184,3.696 -4.584,3.696 -1.224,0 -2.472,-0.072 -3.696,-0.24 v -7.296 h 3.096 c 2.64,0 5.184,1.416 5.184,3.84 z"
           style="font-size:24px;line-height:1.25"
           id="path838" />
      </g>
      <path
         id="path7212"
         d="m 517.32282,325.98425 h 14.17324"
         style="fill:none;stroke:#000000;stroke-width:1px;stroke-linecap:butt;stroke-linejoin:miter;stroke-opacity:1" />
    </g>
  </g>
</svg>
