<?xml version="1.0" encoding="UTF-8" standalone="no"?>
<!-- Created with Inkscape (http://www.inkscape.org/) -->

<svg
   width="163.88348mm"
   height="96.477921mm"
   viewBox="0 0 580.68951 341.8509"
   id="svg10783"
   version="1.1"
   xmlns="http://www.w3.org/2000/svg"
   xmlns:svg="http://www.w3.org/2000/svg"
   xmlns:rdf="http://www.w3.org/1999/02/22-rdf-syntax-ns#"
   xmlns:cc="http://creativecommons.org/ns#"
   xmlns:dc="http://purl.org/dc/elements/1.1/">
  <defs
     id="defs10785">
    <marker
       style="overflow:visible"
       id="marker10185-38"
       refX="0"
       refY="0"
       orient="auto">
      <path
         transform="matrix(0.4,0,0,0.4,4,0)"
         style="fill-rule:evenodd;stroke:#000000;stroke-width:1.00000003pt;marker-start:none"
         d="M 0,0 5,-5 -12.5,0 5,5 Z"
         id="path10187-62" />
    </marker>
    <marker
       orient="auto"
       refY="0"
       refX="0"
       id="marker9715"
       style="overflow:visible">
      <path
         id="path9717"
         d="M 0,0 5,-5 -12.5,0 5,5 Z"
         style="fill-rule:evenodd;stroke:#000000;stroke-width:1.00000003pt;marker-start:none"
         transform="matrix(-0.4,0,0,-0.4,-4,0)" />
    </marker>
  </defs>
  <metadata
     id="metadata10788">
    <rdf:RDF>
      <cc:Work
         rdf:about="">
        <dc:format>image/svg+xml</dc:format>
        <dc:type
           rdf:resource="http://purl.org/dc/dcmitype/StillImage" />
        <dc:title />
      </cc:Work>
    </rdf:RDF>
  </metadata>
  <g
     id="layer1"
     transform="translate(-78.865618,-239.75152)">
    <g
       style="display:inline"
       transform="translate(-1959.4488,7476.3779)"
       id="g87352">
      <path
         id="path8343-2"
         d="m 2366.9292,-7207.0865 3.5433,-10e-5 v 28.3465 h 3.5433 l -7.0866,7.0866 -7.0866,-7.0866 h 3.5433 v -7.0354 l 3.5433,-0.051 z"
         style="display:inline;fill:#ff9955;fill-opacity:1;stroke:none" />
      <path
         style="display:inline;fill:#ff9955;fill-opacity:1;stroke:none"
         d="m 2189.7638,-7207.0865 3.5433,-10e-5 v 28.3465 h 3.5433 l -7.0866,7.0866 -7.0866,-7.0866 h 3.5433 v -7.0354 l 3.5433,-0.051 z"
         id="path8413" />
      <path
         id="path8393"
         d="m 2437.7953,-6973.2283 h 28.3465 c 0,38.9763 0,24.8032 0,24.8032 l -14.1733,-10.6299 h -14.1732 z"
         style="display:inline;fill:#aa87de;fill-opacity:1;stroke:none" />
      <path
         style="display:inline;fill:#aa87de;fill-opacity:1;stroke:none"
         d="m 2451.9685,-7012.2046 h 14.1733 c 0,38.9763 0,38.9763 0,38.9763 l -28.3465,-21.2598 v -24.8032 z"
         id="path8271-2" />
      <path
         style="display:inline;fill:#aa87de;fill-opacity:1;stroke:none"
         d="m 2466.1418,-6948.4251 14.1732,24.8031 v 3.5433 h -14.1732 l -14.1733,7.0867 -14.1732,-24.8032 v -3.5433 h 14.1732 z"
         id="path8391" />
      <path
         id="path8389"
         d="m 2466.1418,-7083.0708 v 53.1496 h -14.1733 l -14.1732,10.6299 v -63.7796 z"
         style="display:inline;fill:#aa87de;fill-opacity:1;stroke:none" />
      <path
         style="display:inline;fill:#87cdde;fill-opacity:1;stroke:none"
         d="m 2101.1811,-7012.2046 h 322.441 l 14.1732,-7.0866 14.1732,35.433 -14.1732,-7.0866 -336.6142,1e-4 z"
         id="path8387" />
      <path
         id="path8385"
         d="m 2101.1811,-7083.0708 h 294.0945 l 14.1732,-7.0866 14.1732,35.433 -14.1732,-7.0866 -308.2677,10e-5 z"
         style="display:inline;fill:#87cdde;fill-opacity:1;stroke:none" />
      <path
         id="path8377"
         d="m 2420.0788,-7058.2677 7.0866,7.0866 v 14.1733 h 3.5433 l -7.0866,7.0866 -7.0866,-7.0866 h 3.5433 z"
         style="display:inline;fill:#ff9955;fill-opacity:1;stroke:none" />
      <path
         style="display:inline;fill:#87cdde;fill-opacity:1;stroke:none"
         d="m 2218.1103,-7153.9369 h 148.8189 l 14.1732,-7.0866 14.1732,35.433 -14.1732,-7.0866 h -148.8189 l -14.1732,7.0866 -14.1733,-35.433 z"
         id="path39521-2" />
      <path
         style="display:inline;fill:#ff9955;fill-opacity:1;stroke:none"
         d="m 2391.7323,-7129.1338 7.0866,7.0866 v 14.1733 h 3.5433 l -7.0866,7.0866 -7.0866,-7.0866 h 3.5433 z"
         id="path8245" />
      <path
         id="path87598"
         d="m 2101.1811,-6959.055 h 350.7873 l 14.1734,10.6299 -14.1734,10.6299 h -350.7873 l 1e-4,-10.6299 z"
         style="fill:#f5c400;fill-opacity:0.392157;stroke:none" />
      <path
         style="fill:#f5c400;fill-opacity:0.392157;stroke:none"
         d="m 2544.0945,-6923.6219 -77.9527,-1e-4 -14.1733,10.63 -14.1732,10.6299 h 106.2992 l -1e-4,-10.6299 z"
         id="path87782" />
      <path
         id="path87504"
         d="m 2101.1811,-7114.9606 h 102.756 l 28.3464,-21.2598 h 148.8189 l 28.3464,21.2598 h 134.6457"
         style="fill:#f5c400;fill-opacity:0.392157;stroke:#000000;stroke-width:1px;stroke-linecap:butt;stroke-linejoin:miter;stroke-opacity:1" />
      <path
         id="path87632"
         d="m 2101.1811,-6994.488 336.6142,-10e-5 14.1732,10.6299 14.1733,10.6299 -364.9607,1e-4 1e-4,-10.6299 z"
         style="fill:#f5c400;fill-opacity:0.392157;stroke:none" />
      <path
         style="fill:#f5c400;fill-opacity:0.392157;stroke:none"
         d="m 2101.1811,-7065.3542 308.2677,-1e-4 14.1733,10.63 14.1732,10.6299 h -336.6142 l 1e-4,-10.6299 z"
         id="path87630" />
      <path
         style="fill:#f5c400;fill-opacity:0.392157;stroke:none"
         d="m 2101.1811,-7029.9212 h 322.441 l 14.1732,10.6299 -14.1732,10.63 -322.441,-1e-4 1e-4,-10.6299 z"
         id="path87566" />
      <path
         id="path87354"
         d="m 2101.1811,-7100.7873 h 294.0945 l 14.1732,10.6299 -14.1732,10.6299 h -294.0945 l 1e-4,-10.6299 z"
         style="fill:#f5c400;fill-opacity:0.392157;stroke:none" />
      <path
         style="fill:#f5c400;fill-opacity:0.392157;stroke:none"
         d="m 2423.6221,-7100.7873 120.4724,-1e-4 v 10.63 10.6298 l -120.4724,1e-4 -14.1733,-10.6299 z"
         id="path87356" />
      <path
         id="path87358"
         d="M 2575.9843,-7090.1574 Z"
         style="fill:#ffeeaa;stroke:none" />
      <path
         id="path87360"
         d="m 2101.1811,-7171.6535 h 88.5827 l 14.1732,10.63 -14.1732,10.6298 h -88.5827 v -10.6299 z"
         style="fill:#f5c400;fill-opacity:0.392157;stroke:none" />
      <path
         style="fill:#f5c400;fill-opacity:0.392157;stroke:none"
         d="m 2218.1103,-7171.6535 h 148.8189 l 14.1732,10.63 -14.1732,10.6298 h -148.8189 l -14.1733,-10.6298 z"
         id="path87362" />
      <path
         id="path87364"
         d="m 2395.2756,-7171.6535 h 148.8189 v 10.63 10.6298 h -148.8189 l -14.1732,-10.6298 z"
         style="fill:#f5c400;fill-opacity:0.392157;stroke:none" />
      <path
         id="path87404"
         style="fill:none;stroke:#000000;stroke-width:1px;stroke-linecap:butt;stroke-linejoin:miter;stroke-opacity:1"
         d="m 2101.1811,-7185.8267 h 88.5827 v -21.2598 h 88.5827 v 21.2598 h 88.5827 v -21.2598 h 88.5826 v 21.2598 h 88.5827" />
      <g
         aria-label="clkms"
         id="text87406"
         style="line-height:0%;font-family:Iwona;-inkscape-font-specification:Iwona;text-align:end;letter-spacing:0px;word-spacing:0px;text-anchor:end">
        <path
           d="m 2056.0235,-7198.2431 v -0.756 c -0.576,-0.81 -1.512,-1.296 -2.52,-1.296 -2.25,0 -3.762,1.692 -3.762,4.23 0,2.538 1.512,4.23 3.762,4.23 0.936,0 1.818,-0.468 2.34,-1.242 v -0.756 c -0.612,0.918 -1.242,1.242 -2.34,1.242 -1.296,0 -2.178,-1.386 -2.178,-3.474 0,-2.088 0.882,-3.474 2.178,-3.474 1.116,0 1.872,0.396 2.52,1.296 z"
           style="font-size:18px;line-height:1.25"
           id="path109" />
        <path
           d="m 2061.2975,-7192.6451 v -0.54 c -0.342,0.288 -0.738,0.522 -1.188,0.522 -0.666,0 -0.792,-0.828 -0.792,-1.602 v -10.35 h -1.404 v 10.35 c 0,1.206 0.468,2.43 1.53,2.43 0.684,0 1.332,-0.342 1.854,-0.81 z"
           style="font-size:18px;line-height:1.25"
           id="path111" />
        <path
           d="m 2070.0635,-7192.0151 -4.176,-4.806 4.032,-3.294 h -1.116 l -4.302,3.528 v -8.028 h -1.404 v 12.6 h 1.404 v -4.482 l 3.888,4.482 z"
           style="font-size:18px;line-height:1.25"
           id="path113" />
        <path
           d="m 2077.5678,-7188.4151 v -3.8026 c 0,-0.819 -0.4798,-1.5795 -1.2403,-1.5795 -0.6552,0 -1.2636,0.3393 -1.6146,0.8892 -0.1872,-0.5148 -0.585,-0.8892 -1.1232,-0.8892 -0.6084,0 -1.0998,0.4212 -1.4976,0.8892 v -0.7722 h -0.9126 v 5.2651 h 0.9126 v -4.1419 c 0.2808,-0.3627 0.6318,-0.702 1.0881,-0.702 0.4797,0 0.7371,0.5148 0.7371,1.0413 v 3.8026 h 0.9126 v -3.8026 c 0,-0.1404 -0.012,-0.2691 -0.035,-0.4095 0.2808,-0.3627 0.6669,-0.6318 1.1232,-0.6318 0.4797,0 0.7371,0.5148 0.7371,1.0413 v 3.8026 z"
           style="font-size:65.0009%;baseline-shift:sub"
           id="path115" />
        <path
           d="m 2082.9381,-7189.9128 c 0,-0.9243 -0.9828,-1.404 -1.9422,-1.638 -0.5616,-0.1404 -1.17,-0.3744 -1.17,-0.9243 0,-0.5031 0.5148,-0.8307 1.0764,-0.8307 0.6201,0 1.2402,0.1872 1.755,0.5265 v -0.4914 c -0.5148,-0.3393 -1.1349,-0.5265 -1.755,-0.5265 -1.0179,0 -1.954,0.6201 -1.954,1.5678 0,0.8541 0.9478,1.2519 1.8487,1.4742 0.6201,0.1521 1.2636,0.4797 1.2636,1.0764 0,0.55 -0.5616,0.8893 -1.1583,0.8893 -0.7254,0 -1.4274,-0.1755 -2.0476,-0.5265 v 0.4914 c 0.6202,0.351 1.3222,0.5265 2.0476,0.5265 1.053,0 2.0358,-0.6318 2.0358,-1.6147 z"
           style="font-size:65.0009%;baseline-shift:sub"
           id="path117" />
      </g>
      <g
         aria-label="ms"
         id="text87412"
         style="line-height:0%;font-family:Iwona;-inkscape-font-specification:Iwona;text-align:end;letter-spacing:0px;word-spacing:0px;text-anchor:end">
        <path
           d="m 2074.3926,-7156.9736 v -5.85 c 0,-1.26 -0.738,-2.43 -1.908,-2.43 -1.008,0 -1.944,0.522 -2.484,1.368 -0.288,-0.792 -0.9,-1.368 -1.728,-1.368 -0.936,0 -1.692,0.648 -2.304,1.368 v -1.188 h -1.404 v 8.1 h 1.404 v -6.372 c 0.432,-0.558 0.972,-1.08 1.674,-1.08 0.738,0 1.134,0.792 1.134,1.602 v 5.85 h 1.404 v -5.85 c 0,-0.216 -0.018,-0.414 -0.054,-0.63 0.432,-0.558 1.026,-0.972 1.728,-0.972 0.738,0 1.134,0.792 1.134,1.602 v 5.85 z"
           style="font-size:18px;line-height:1.25"
           id="path120" />
        <path
           d="m 2082.6546,-7159.2776 c 0,-1.422 -1.512,-2.16 -2.988,-2.52 -0.864,-0.216 -1.8,-0.576 -1.8,-1.422 0,-0.774 0.792,-1.278 1.656,-1.278 0.954,0 1.908,0.288 2.7,0.81 v -0.756 c -0.792,-0.522 -1.746,-0.81 -2.7,-0.81 -1.566,0 -3.006,0.954 -3.006,2.412 0,1.314 1.458,1.926 2.844,2.268 0.954,0.234 1.944,0.738 1.944,1.656 0,0.846 -0.864,1.368 -1.782,1.368 -1.116,0 -2.196,-0.27 -3.15,-0.81 v 0.756 c 0.954,0.54 2.034,0.81 3.15,0.81 1.62,0 3.132,-0.972 3.132,-2.484 z"
           style="font-size:18px;line-height:1.25"
           id="path122" />
      </g>
      <g
         aria-label="998"
         id="text87416"
         style="line-height:0%;font-family:Iwona;-inkscape-font-specification:Iwona;letter-spacing:0px;word-spacing:0px">
        <path
           d="m 2111.3744,-7161.0238 c 0,-3.472 -0.896,-4.97 -2.968,-4.97 -1.792,0 -2.982,1.316 -2.982,3.29 0,2.016 0.798,3.29 2.674,3.29 0.812,0 1.568,-0.378 2.044,-1.022 0,1.834 -0.462,3.794 -2.044,3.794 -0.714,0 -1.414,-0.238 -1.974,-0.686 v 0.588 c 0.56,0.448 1.26,0.686 1.974,0.686 2.198,0 3.276,-2.492 3.276,-4.97 z m -1.232,0 c -0.476,0.644 -1.232,1.022 -2.044,1.022 -1.12,0 -1.442,-1.4 -1.442,-2.702 0,-1.624 0.7,-2.702 1.75,-2.702 1.946,0 1.736,2.114 1.736,4.382 z"
           style="font-size:14px;line-height:1.25"
           id="path125" />
        <path
           d="m 2118.7244,-7161.0238 c 0,-3.472 -0.896,-4.97 -2.968,-4.97 -1.792,0 -2.982,1.316 -2.982,3.29 0,2.016 0.798,3.29 2.674,3.29 0.812,0 1.568,-0.378 2.044,-1.022 0,1.834 -0.462,3.794 -2.044,3.794 -0.714,0 -1.414,-0.238 -1.974,-0.686 v 0.588 c 0.56,0.448 1.26,0.686 1.974,0.686 2.198,0 3.276,-2.492 3.276,-4.97 z m -1.232,0 c -0.476,0.644 -1.232,1.022 -2.044,1.022 -1.12,0 -1.442,-1.4 -1.442,-2.702 0,-1.624 0.7,-2.702 1.75,-2.702 1.946,0 1.736,2.114 1.736,4.382 z"
           style="font-size:14px;line-height:1.25"
           id="path127" />
        <path
           d="m 2126.0744,-7158.8958 c 0,-1.316 -0.63,-2.254 -1.708,-2.646 0.91,-0.336 1.428,-1.092 1.428,-2.114 0,-1.456 -1.022,-2.338 -2.688,-2.338 -1.68,0 -2.702,0.882 -2.702,2.338 0,1.022 0.518,1.778 1.428,2.114 -1.078,0.392 -1.708,1.33 -1.708,2.646 0,1.764 1.134,2.842 2.982,2.842 1.834,0 2.968,-1.078 2.968,-2.842 z m -1.372,-4.76 c 0,1.078 -0.616,1.75 -1.596,1.75 -0.994,0 -1.61,-0.672 -1.61,-1.75 0,-1.092 0.616,-1.75 1.61,-1.75 0.98,0 1.596,0.658 1.596,1.75 z m 0.14,4.76 c 0,1.4 -0.658,2.254 -1.736,2.254 -1.092,0 -1.75,-0.854 -1.75,-2.254 0,-1.4 0.658,-2.254 1.75,-2.254 1.078,0 1.736,0.854 1.736,2.254 z"
           style="font-size:14px;line-height:1.25"
           id="path129" />
      </g>
      <g
         aria-label="999"
         id="text87420"
         style="line-height:0%;font-family:Iwona;-inkscape-font-specification:Iwona;letter-spacing:0px;word-spacing:0px">
        <path
           d="m 2228.3036,-7161.0238 c 0,-3.472 -0.896,-4.97 -2.968,-4.97 -1.792,0 -2.982,1.316 -2.982,3.29 0,2.016 0.798,3.29 2.674,3.29 0.812,0 1.568,-0.378 2.044,-1.022 0,1.834 -0.462,3.794 -2.044,3.794 -0.714,0 -1.414,-0.238 -1.974,-0.686 v 0.588 c 0.56,0.448 1.26,0.686 1.974,0.686 2.198,0 3.276,-2.492 3.276,-4.97 z m -1.232,0 c -0.476,0.644 -1.232,1.022 -2.044,1.022 -1.12,0 -1.442,-1.4 -1.442,-2.702 0,-1.624 0.7,-2.702 1.75,-2.702 1.946,0 1.736,2.114 1.736,4.382 z"
           style="font-size:14px;line-height:1.25"
           id="path132" />
        <path
           d="m 2235.6536,-7161.0238 c 0,-3.472 -0.896,-4.97 -2.968,-4.97 -1.792,0 -2.982,1.316 -2.982,3.29 0,2.016 0.798,3.29 2.674,3.29 0.812,0 1.568,-0.378 2.044,-1.022 0,1.834 -0.462,3.794 -2.044,3.794 -0.714,0 -1.414,-0.238 -1.974,-0.686 v 0.588 c 0.56,0.448 1.26,0.686 1.974,0.686 2.198,0 3.276,-2.492 3.276,-4.97 z m -1.232,0 c -0.476,0.644 -1.232,1.022 -2.044,1.022 -1.12,0 -1.442,-1.4 -1.442,-2.702 0,-1.624 0.7,-2.702 1.75,-2.702 1.946,0 1.736,2.114 1.736,4.382 z"
           style="font-size:14px;line-height:1.25"
           id="path134" />
        <path
           d="m 2243.0036,-7161.0238 c 0,-3.472 -0.896,-4.97 -2.968,-4.97 -1.792,0 -2.982,1.316 -2.982,3.29 0,2.016 0.798,3.29 2.674,3.29 0.812,0 1.568,-0.378 2.044,-1.022 0,1.834 -0.462,3.794 -2.044,3.794 -0.714,0 -1.414,-0.238 -1.974,-0.686 v 0.588 c 0.56,0.448 1.26,0.686 1.974,0.686 2.198,0 3.276,-2.492 3.276,-4.97 z m -1.232,0 c -0.476,0.644 -1.232,1.022 -2.044,1.022 -1.12,0 -1.442,-1.4 -1.442,-2.702 0,-1.624 0.7,-2.702 1.75,-2.702 1.946,0 1.736,2.114 1.736,4.382 z"
           style="font-size:14px;line-height:1.25"
           id="path136" />
      </g>
      <g
         aria-label="0"
         id="text87424"
         style="line-height:0%;font-family:Iwona;-inkscape-font-specification:Iwona;letter-spacing:0px;word-spacing:0px">
        <path
           d="m 2405.5668,-7161.0238 c 0,-3.318 -1.022,-4.97 -3.066,-4.97 -2.044,0 -3.066,1.652 -3.066,4.97 0,3.318 1.022,4.97 3.066,4.97 2.044,0 3.066,-1.652 3.066,-4.97 z m -1.232,0 c 0,2.926 -0.616,4.382 -1.834,4.382 -1.218,0 -1.834,-1.456 -1.834,-4.382 0,-2.926 0.616,-4.382 1.834,-4.382 1.218,0 1.834,1.456 1.834,4.382 z"
           style="font-size:14px;line-height:1.25"
           id="path139" />
      </g>
      <path
         d="m 2101.1811,-7171.6535 h 88.5827 l 28.3465,21.2598 h 148.8189 l 28.3464,-21.2597 148.8189,-1e-4 m -442.9134,21.2598 h 88.5827 l 28.3465,-21.2598 h 148.8189 l 28.3464,21.2599 148.8189,-10e-5"
         style="fill:none;stroke:#000000;stroke-width:1px;stroke-linecap:butt;stroke-linejoin:miter;stroke-opacity:1"
         id="path87472" />
      <g
         aria-label="clksec"
         id="text87506"
         style="line-height:0%;font-family:Iwona;-inkscape-font-specification:Iwona;text-align:end;letter-spacing:0px;word-spacing:0px;text-anchor:end">
        <path
           d="m 2053.4495,-7127.3769 v -0.756 c -0.576,-0.81 -1.512,-1.296 -2.52,-1.296 -2.25,0 -3.762,1.692 -3.762,4.23 0,2.538 1.512,4.23 3.762,4.23 0.936,0 1.818,-0.468 2.34,-1.242 v -0.756 c -0.612,0.918 -1.242,1.242 -2.34,1.242 -1.296,0 -2.178,-1.386 -2.178,-3.474 0,-2.088 0.882,-3.474 2.178,-3.474 1.116,0 1.872,0.396 2.52,1.296 z"
           style="font-size:18px;line-height:1.25"
           id="path142" />
        <path
           d="m 2058.7235,-7121.7789 v -0.54 c -0.342,0.288 -0.738,0.522 -1.188,0.522 -0.666,0 -0.792,-0.828 -0.792,-1.602 v -10.35 h -1.404 v 10.35 c 0,1.206 0.468,2.43 1.53,2.43 0.684,0 1.332,-0.342 1.854,-0.81 z"
           style="font-size:18px;line-height:1.25"
           id="path144" />
        <path
           d="m 2067.4894,-7121.1489 -4.176,-4.806 4.032,-3.294 h -1.116 l -4.302,3.528 v -8.028 h -1.404 v 12.6 h 1.404 v -4.482 l 3.888,4.482 z"
           style="font-size:18px;line-height:1.25"
           id="path146" />
        <path
           d="m 2072.1623,-7119.0465 c 0,-0.9244 -0.9828,-1.4041 -1.9422,-1.6381 -0.5617,-0.1404 -1.1701,-0.3744 -1.1701,-0.9243 0,-0.5031 0.5148,-0.8307 1.0765,-0.8307 0.6201,0 1.2402,0.1872 1.755,0.5265 v -0.4914 c -0.5148,-0.3393 -1.1349,-0.5265 -1.755,-0.5265 -1.018,0 -1.954,0.6201 -1.954,1.5678 0,0.8541 0.9477,1.2519 1.8487,1.4742 0.6201,0.1521 1.2636,0.4797 1.2636,1.0765 0,0.5499 -0.5616,0.8892 -1.1583,0.8892 -0.7255,0 -1.4275,-0.1755 -2.0476,-0.5265 v 0.4914 c 0.6201,0.351 1.3221,0.5265 2.0476,0.5265 1.053,0 2.0358,-0.6318 2.0358,-1.6146 z"
           style="font-size:65.0009%;baseline-shift:sub"
           id="path148" />
        <path
           d="m 2077.8603,-7120.0645 v -0.117 c 0,-1.6497 -0.901,-2.7495 -2.2582,-2.7495 -1.3689,0 -2.2698,1.0998 -2.2698,2.7495 0,1.6498 0.9009,2.7496 2.2698,2.7496 0.585,0 1.1583,-0.1872 1.638,-0.5265 v -0.4914 c -0.5499,0.351 -0.9945,0.4797 -1.638,0.4797 -0.9945,0 -1.2402,-0.9477 -1.2402,-2.0944 z m -1.0297,-0.4914 h -2.4687 c 0,-0.936 0.3978,-1.8837 1.2402,-1.8837 0.8307,0 1.2285,0.9477 1.2285,1.8837 z"
           style="font-size:65.0009%;baseline-shift:sub"
           id="path150" />
        <path
           d="m 2083.1721,-7121.5972 v -0.4914 c -0.3744,-0.5265 -0.9828,-0.8424 -1.638,-0.8424 -1.4625,0 -2.4453,1.0998 -2.4453,2.7495 0,1.6498 0.9828,2.7496 2.4453,2.7496 0.6084,0 1.1817,-0.3042 1.521,-0.8073 v -0.4914 c -0.3978,0.5967 -0.8073,0.8073 -1.521,0.8073 -0.8424,0 -1.4157,-0.9009 -1.4157,-2.2582 0,-1.3572 0.5733,-2.2581 1.4157,-2.2581 0.7254,0 1.2168,0.2574 1.638,0.8424 z"
           style="font-size:65.0009%;baseline-shift:sub"
           id="path152" />
      </g>
      <g
         aria-label="1 ms"
         id="text87512"
         style="line-height:0%;font-family:Iwona;-inkscape-font-specification:Sans;text-align:center;letter-spacing:0px;word-spacing:0px;text-anchor:middle;display:inline">
        <path
           d="m 2270.1727,-7221.2598 v -8.28 h -0.696 c -0.66,0.756 -1.44,1.404 -2.304,1.908 v 0.504 c 0.732,-0.348 1.416,-0.756 2.064,-1.248 v 7.116 z"
           style="font-size:12px;line-height:1.25"
           id="path155" />
        <path
           d="m 2284.0206,-7221.2598 v -3.9 c 0,-0.84 -0.492,-1.62 -1.272,-1.62 -0.672,0 -1.296,0.348 -1.656,0.912 -0.192,-0.528 -0.6,-0.912 -1.152,-0.912 -0.624,0 -1.128,0.432 -1.536,0.912 v -0.792 h -0.936 v 5.4 h 0.936 v -4.248 c 0.288,-0.372 0.648,-0.72 1.116,-0.72 0.492,0 0.756,0.528 0.756,1.068 v 3.9 h 0.936 v -3.9 c 0,-0.144 -0.012,-0.276 -0.036,-0.42 0.288,-0.372 0.684,-0.648 1.152,-0.648 0.492,0 0.756,0.528 0.756,1.068 v 3.9 z"
           style="font-size:12px;line-height:1.25"
           id="path157" />
        <path
           d="m 2289.5286,-7222.7958 c 0,-0.948 -1.008,-1.44 -1.992,-1.68 -0.576,-0.144 -1.2,-0.384 -1.2,-0.948 0,-0.516 0.528,-0.852 1.104,-0.852 0.636,0 1.272,0.192 1.8,0.54 v -0.504 c -0.528,-0.348 -1.164,-0.54 -1.8,-0.54 -1.044,0 -2.004,0.636 -2.004,1.608 0,0.876 0.972,1.284 1.896,1.512 0.636,0.156 1.296,0.492 1.296,1.104 0,0.564 -0.576,0.912 -1.188,0.912 -0.744,0 -1.464,-0.18 -2.1,-0.54 v 0.504 c 0.636,0.36 1.356,0.54 2.1,0.54 1.08,0 2.088,-0.648 2.088,-1.656 z"
           style="font-size:12px;line-height:1.25"
           id="path159" />
      </g>
      <path
         style="display:inline;fill:none;stroke:#000000;stroke-width:0.999213;stroke-linecap:butt;stroke-linejoin:miter;stroke-miterlimit:4;stroke-dasharray:none;stroke-opacity:1;marker-start:url(#marker10185-38);marker-end:url(#marker9715)"
         d="M 2193.3072,-7214.1731 H 2363.386"
         id="path87516" />
      <g
         aria-label="sec"
         id="text87528"
         style="line-height:0%;font-family:Iwona;-inkscape-font-specification:Iwona;text-align:end;letter-spacing:0px;word-spacing:0px;text-anchor:end">
        <path
           d="m 2066.0767,-7088.4114 c 0,-1.422 -1.512,-2.16 -2.988,-2.52 -0.864,-0.216 -1.8,-0.576 -1.8,-1.422 0,-0.774 0.792,-1.278 1.656,-1.278 0.954,0 1.908,0.288 2.7,0.81 v -0.756 c -0.792,-0.522 -1.746,-0.81 -2.7,-0.81 -1.566,0 -3.006,0.954 -3.006,2.412 0,1.314 1.458,1.926 2.844,2.268 0.954,0.234 1.944,0.738 1.944,1.656 0,0.846 -0.864,1.368 -1.782,1.368 -1.116,0 -2.196,-0.27 -3.15,-0.81 v 0.756 c 0.954,0.54 2.034,0.81 3.15,0.81 1.62,0 3.132,-0.972 3.132,-2.484 z"
           style="font-size:18px;line-height:1.25"
           id="path162" />
        <path
           d="m 2074.8426,-7089.9774 v -0.18 c 0,-2.538 -1.386,-4.23 -3.474,-4.23 -2.106,0 -3.492,1.692 -3.492,4.23 0,2.538 1.386,4.23 3.492,4.23 0.9,0 1.782,-0.288 2.52,-0.81 v -0.756 c -0.846,0.54 -1.53,0.738 -2.52,0.738 -1.53,0 -1.908,-1.458 -1.908,-3.222 z m -1.584,-0.756 h -3.798 c 0,-1.44 0.612,-2.898 1.908,-2.898 1.278,0 1.89,1.458 1.89,2.898 z"
           style="font-size:18px;line-height:1.25"
           id="path164" />
        <path
           d="m 2083.0146,-7092.3354 v -0.756 c -0.576,-0.81 -1.512,-1.296 -2.52,-1.296 -2.25,0 -3.762,1.692 -3.762,4.23 0,2.538 1.512,4.23 3.762,4.23 0.936,0 1.818,-0.468 2.34,-1.242 v -0.756 c -0.612,0.918 -1.242,1.242 -2.34,1.242 -1.296,0 -2.178,-1.386 -2.178,-3.474 0,-2.088 0.882,-3.474 2.178,-3.474 1.116,0 1.872,0.396 2.52,1.296 z"
           style="font-size:18px;line-height:1.25"
           id="path166" />
      </g>
      <path
         d="m 2101.1811,-7100.7873 h 294.0945 l 28.3465,21.2598 120.4724,-1e-4 m -442.9134,1e-4 h 294.0945 l 28.3465,-21.2598 120.4724,-1e-4"
         style="fill:none;stroke:#000000;stroke-width:1px;stroke-linecap:butt;stroke-linejoin:miter;stroke-opacity:1"
         id="path87532" />
      <g
         aria-label="59"
         id="text87534"
         style="line-height:0%;font-family:Iwona;-inkscape-font-specification:Iwona;letter-spacing:0px;word-spacing:0px">
        <path
           d="m 2111.3744,-7088.4776 c 0,-1.974 -1.19,-3.29 -2.968,-3.29 -0.812,0 -1.568,0.308 -2.156,0.826 l 0.14,-3.178 h 4.704 v -0.868 h -5.25 l -0.21,4.83 0.588,0.028 c 0.532,-0.658 1.33,-1.05 2.184,-1.05 1.036,0 1.736,1.078 1.736,2.702 0,1.624 -0.7,2.702 -1.736,2.702 -1.078,0 -2.128,-0.35 -2.982,-1.008 v 0.588 c 0.854,0.658 1.904,1.008 2.982,1.008 1.778,0 2.968,-1.316 2.968,-3.29 z"
           style="font-size:14px;line-height:1.25"
           id="path169" />
        <path
           d="m 2118.7244,-7090.1576 c 0,-3.472 -0.896,-4.97 -2.968,-4.97 -1.792,0 -2.982,1.316 -2.982,3.29 0,2.016 0.798,3.29 2.674,3.29 0.812,0 1.568,-0.378 2.044,-1.022 0,1.834 -0.462,3.794 -2.044,3.794 -0.714,0 -1.414,-0.238 -1.974,-0.686 v 0.588 c 0.56,0.448 1.26,0.686 1.974,0.686 2.198,0 3.276,-2.492 3.276,-4.97 z m -1.232,0 c -0.476,0.644 -1.232,1.022 -2.044,1.022 -1.12,0 -1.442,-1.4 -1.442,-2.702 0,-1.624 0.7,-2.702 1.75,-2.702 1.946,0 1.736,2.114 1.736,4.382 z"
           style="font-size:14px;line-height:1.25"
           id="path171" />
      </g>
      <g
         aria-label="0"
         id="text87538"
         style="line-height:0%;font-family:Iwona;-inkscape-font-specification:Iwona;letter-spacing:0px;word-spacing:0px">
        <path
           d="m 2433.9133,-7090.1576 c 0,-3.318 -1.022,-4.97 -3.066,-4.97 -2.044,0 -3.066,1.652 -3.066,4.97 0,3.318 1.022,4.97 3.066,4.97 2.044,0 3.066,-1.652 3.066,-4.97 z m -1.232,0 c 0,2.926 -0.616,4.382 -1.834,4.382 -1.218,0 -1.834,-1.456 -1.834,-4.382 0,-2.926 0.616,-4.382 1.834,-4.382 1.218,0 1.834,1.456 1.834,4.382 z"
           style="font-size:14px;line-height:1.25"
           id="path174" />
      </g>
      <path
         style="fill:none;stroke:#000000;stroke-width:1px;stroke-linecap:butt;stroke-linejoin:miter;stroke-opacity:1"
         d="m 2101.1811,-7065.3543 h 308.2677 l 28.3465,21.2599 h 106.2992"
         id="path87550" />
      <g
         aria-label="clkmin"
         id="text87552"
         style="line-height:0%;font-family:Iwona;-inkscape-font-specification:Iwona;text-align:end;letter-spacing:0px;word-spacing:0px;text-anchor:end">
        <path
           d="m 2051.6828,-7056.5107 v -0.756 c -0.576,-0.81 -1.512,-1.296 -2.52,-1.296 -2.25,0 -3.762,1.692 -3.762,4.23 0,2.538 1.512,4.23 3.762,4.23 0.936,0 1.818,-0.468 2.34,-1.242 v -0.756 c -0.612,0.918 -1.242,1.242 -2.34,1.242 -1.296,0 -2.178,-1.386 -2.178,-3.474 0,-2.088 0.882,-3.474 2.178,-3.474 1.116,0 1.872,0.396 2.52,1.296 z"
           style="font-size:18px;line-height:1.25"
           id="path177" />
        <path
           d="m 2056.9568,-7050.9127 v -0.54 c -0.342,0.288 -0.738,0.522 -1.188,0.522 -0.666,0 -0.792,-0.828 -0.792,-1.602 v -10.35 h -1.404 v 10.35 c 0,1.206 0.468,2.43 1.53,2.43 0.684,0 1.332,-0.342 1.854,-0.81 z"
           style="font-size:18px;line-height:1.25"
           id="path179" />
        <path
           d="m 2065.7227,-7050.2827 -4.176,-4.806 4.032,-3.294 h -1.116 l -4.302,3.528 v -8.028 h -1.404 v 12.6 h 1.404 v -4.482 l 3.888,4.482 z"
           style="font-size:18px;line-height:1.25"
           id="path181" />
        <path
           d="m 2073.227,-7046.6827 v -3.8026 c 0,-0.819 -0.4797,-1.5795 -1.2402,-1.5795 -0.6552,0 -1.2636,0.3393 -1.6146,0.8892 -0.1872,-0.5148 -0.585,-0.8892 -1.1232,-0.8892 -0.6085,0 -1.0999,0.4212 -1.4977,0.8892 v -0.7722 h -0.9126 v 5.2651 h 0.9126 v -4.1419 c 0.2808,-0.3627 0.6318,-0.702 1.0881,-0.702 0.4798,0 0.7372,0.5148 0.7372,1.0413 v 3.8026 h 0.9126 v -3.8026 c 0,-0.1404 -0.012,-0.2691 -0.035,-0.4095 0.2808,-0.3627 0.6669,-0.6318 1.1232,-0.6318 0.4797,0 0.7371,0.5148 0.7371,1.0413 v 3.8026 z"
           style="font-size:65.0009%;baseline-shift:sub"
           id="path183" />
        <path
           d="m 2077.1816,-7047.0922 v -0.351 c -0.2223,0.1872 -0.4797,0.3393 -0.7722,0.3393 -0.4329,0 -0.5148,-0.5382 -0.5148,-1.0413 v -3.8026 h -0.9126 v 3.8026 c 0,0.7839 0.3042,1.5795 0.9945,1.5795 0.4446,0 0.8658,-0.2223 1.2051,-0.5265 z m -1.17,-6.6808 c 0,-0.3159 -0.2574,-0.5733 -0.5733,-0.5733 -0.3159,0 -0.5733,0.2574 -0.5733,0.5733 0,0.3159 0.2574,0.5733 0.5733,0.5733 0.3159,0 0.5733,-0.2574 0.5733,-0.5733 z"
           style="font-size:65.0009%;baseline-shift:sub"
           id="path185" />
        <path
           d="m 2082.5871,-7046.6827 v -3.8026 c 0,-0.8541 -0.6552,-1.5795 -1.4976,-1.5795 -0.702,0 -1.3221,0.3978 -1.8252,0.8892 v -0.7722 h -0.9127 v 5.2651 h 0.9127 v -4.1302 c 0.3978,-0.3978 0.8892,-0.7137 1.4391,-0.7137 0.5499,0 0.9711,0.4797 0.9711,1.0413 v 3.8026 z"
           style="font-size:65.0009%;baseline-shift:sub"
           id="path187" />
      </g>
      <path
         id="path87568"
         d="m 2451.9685,-7029.9212 92.126,-1e-4 v 10.63 10.6298 l -92.126,2e-4 -14.1732,-10.63 z"
         style="fill:#f5c400;fill-opacity:0.392157;stroke:none" />
      <g
         aria-label="min"
         id="text87570"
         style="line-height:0%;font-family:Iwona;-inkscape-font-specification:Iwona;text-align:end;letter-spacing:0px;word-spacing:0px;text-anchor:end">
        <path
           d="m 2067.7147,-7015.2412 v -5.85 c 0,-1.26 -0.738,-2.43 -1.908,-2.43 -1.008,0 -1.944,0.522 -2.484,1.368 -0.288,-0.792 -0.9,-1.368 -1.728,-1.368 -0.936,0 -1.692,0.648 -2.304,1.368 v -1.188 h -1.404 v 8.1 h 1.404 v -6.372 c 0.432,-0.558 0.972,-1.08 1.674,-1.08 0.738,0 1.134,0.792 1.134,1.602 v 5.85 h 1.404 v -5.85 c 0,-0.216 -0.018,-0.414 -0.054,-0.63 0.432,-0.558 1.026,-0.972 1.728,-0.972 0.738,0 1.134,0.792 1.134,1.602 v 5.85 z"
           style="font-size:18px;line-height:1.25"
           id="path190" />
        <path
           d="m 2073.7986,-7015.8712 v -0.54 c -0.342,0.288 -0.738,0.522 -1.188,0.522 -0.666,0 -0.792,-0.828 -0.792,-1.602 v -5.85 h -1.404 v 5.85 c 0,1.206 0.468,2.43 1.53,2.43 0.684,0 1.332,-0.342 1.854,-0.81 z m -1.8,-10.278 c 0,-0.486 -0.396,-0.882 -0.882,-0.882 -0.486,0 -0.882,0.396 -0.882,0.882 0,0.486 0.396,0.882 0.882,0.882 0.486,0 0.882,-0.396 0.882,-0.882 z"
           style="font-size:18px;line-height:1.25"
           id="path192" />
        <path
           d="m 2082.1146,-7015.2412 v -5.85 c 0,-1.314 -1.008,-2.43 -2.304,-2.43 -1.08,0 -2.034,0.612 -2.808,1.368 v -1.188 h -1.404 v 8.1 h 1.404 v -6.354 c 0.612,-0.612 1.368,-1.098 2.214,-1.098 0.846,0 1.494,0.738 1.494,1.602 v 5.85 z"
           style="font-size:18px;line-height:1.25"
           id="path194" />
      </g>
      <path
         id="path87574"
         style="fill:none;stroke:#000000;stroke-width:1px;stroke-linecap:butt;stroke-linejoin:miter;stroke-opacity:1"
         d="m 2101.1811,-7029.9212 h 322.441 l 28.3464,21.2598 92.126,-1e-4 m -442.9134,1e-4 h 322.441 l 28.3464,-21.2598 92.126,-1e-4" />
      <g
         aria-label="59"
         id="text87576"
         style="line-height:0%;font-family:Iwona;-inkscape-font-specification:Iwona;letter-spacing:0px;word-spacing:0px">
        <path
           d="m 2111.3744,-7017.6114 c 0,-1.974 -1.19,-3.29 -2.968,-3.29 -0.812,0 -1.568,0.308 -2.156,0.826 l 0.14,-3.178 h 4.704 v -0.868 h -5.25 l -0.21,4.83 0.588,0.028 c 0.532,-0.658 1.33,-1.05 2.184,-1.05 1.036,0 1.736,1.078 1.736,2.702 0,1.624 -0.7,2.702 -1.736,2.702 -1.078,0 -2.128,-0.35 -2.982,-1.008 v 0.588 c 0.854,0.658 1.904,1.008 2.982,1.008 1.778,0 2.968,-1.316 2.968,-3.29 z"
           style="font-size:14px;line-height:1.25"
           id="path197" />
        <path
           d="m 2118.7244,-7019.2914 c 0,-3.472 -0.896,-4.97 -2.968,-4.97 -1.792,0 -2.982,1.316 -2.982,3.29 0,2.016 0.798,3.29 2.674,3.29 0.812,0 1.568,-0.378 2.044,-1.022 0,1.834 -0.462,3.794 -2.044,3.794 -0.714,0 -1.414,-0.238 -1.974,-0.686 v 0.588 c 0.56,0.448 1.26,0.686 1.974,0.686 2.198,0 3.276,-2.492 3.276,-4.97 z m -1.232,0 c -0.476,0.644 -1.232,1.022 -2.044,1.022 -1.12,0 -1.442,-1.4 -1.442,-2.702 0,-1.624 0.7,-2.702 1.75,-2.702 1.946,0 1.736,2.114 1.736,4.382 z"
           style="font-size:14px;line-height:1.25"
           id="path199" />
      </g>
      <g
         aria-label="0"
         id="text87580"
         style="line-height:0%;font-family:Iwona;-inkscape-font-specification:Iwona;letter-spacing:0px;word-spacing:0px">
        <path
           d="m 2462.2597,-7019.2914 c 0,-3.318 -1.022,-4.97 -3.066,-4.97 -2.044,0 -3.066,1.652 -3.066,4.97 0,3.318 1.022,4.97 3.066,4.97 2.044,0 3.066,-1.652 3.066,-4.97 z m -1.232,0 c 0,2.926 -0.616,4.382 -1.834,4.382 -1.218,0 -1.834,-1.456 -1.834,-4.382 0,-2.926 0.616,-4.382 1.834,-4.382 1.218,0 1.834,1.456 1.834,4.382 z"
           style="font-size:14px;line-height:1.25"
           id="path202" />
      </g>
      <path
         style="display:inline;fill:#ff9955;fill-opacity:1;stroke:none"
         d="m 2448.4252,-6987.4016 7.0866,7.0866 v 14.1733 h 3.5433 l -7.0866,7.0866 -7.0866,-7.0866 h 3.5433 z"
         id="path8379" />
      <path
         id="path87584"
         d="m 2101.1811,-6994.4882 336.6142,1e-4 28.3465,21.2598 h 77.9527"
         style="fill:none;stroke:#000000;stroke-width:1px;stroke-linecap:butt;stroke-linejoin:miter;stroke-opacity:1" />
      <g
         aria-label="clkhr"
         id="text87586"
         style="line-height:0%;font-family:Iwona;-inkscape-font-specification:Iwona;text-align:end;letter-spacing:0px;word-spacing:0px;text-anchor:end">
        <path
           d="m 2059.1124,-6985.6445 v -0.756 c -0.576,-0.81 -1.512,-1.296 -2.52,-1.296 -2.25,0 -3.762,1.692 -3.762,4.23 0,2.538 1.512,4.23 3.762,4.23 0.936,0 1.818,-0.468 2.34,-1.242 v -0.756 c -0.612,0.918 -1.242,1.242 -2.34,1.242 -1.296,0 -2.178,-1.386 -2.178,-3.474 0,-2.088 0.882,-3.474 2.178,-3.474 1.116,0 1.872,0.396 2.52,1.296 z"
           style="font-size:18px;line-height:1.25"
           id="path205" />
        <path
           d="m 2064.3863,-6980.0465 v -0.54 c -0.342,0.288 -0.738,0.522 -1.188,0.522 -0.666,0 -0.792,-0.828 -0.792,-1.602 v -10.35 h -1.404 v 10.35 c 0,1.206 0.468,2.43 1.53,2.43 0.684,0 1.332,-0.342 1.854,-0.81 z"
           style="font-size:18px;line-height:1.25"
           id="path207" />
        <path
           d="m 2073.1523,-6979.4165 -4.176,-4.806 4.032,-3.294 h -1.116 l -4.302,3.528 v -8.028 h -1.404 v 12.6 h 1.404 v -4.482 l 3.888,4.482 z"
           style="font-size:18px;line-height:1.25"
           id="path209" />
        <path
           d="m 2078.5038,-6975.8165 v -3.8026 c 0,-0.8541 -0.6552,-1.5795 -1.4977,-1.5795 -0.702,0 -1.3221,0.3978 -1.8252,0.8892 v -3.6972 h -0.9126 v 8.1901 h 0.9126 v -4.1302 c 0.3978,-0.3978 0.8892,-0.7137 1.4391,-0.7137 0.5499,0 0.9711,0.4797 0.9711,1.0413 v 3.8026 z"
           style="font-size:65.0009%;baseline-shift:sub"
           id="path211" />
        <path
           d="m 2083.2306,-6980.3562 v -0.7254 c -0.1287,-0.047 -0.2691,-0.082 -0.3978,-0.082 -0.6552,0 -1.1817,0.4563 -1.6029,0.9594 v -0.8775 h -0.9126 v 5.2651 h 0.9126 v -3.8962 c 0.351,-0.4095 0.7956,-0.7605 1.3338,-0.7605 0.2223,0 0.4563,0.047 0.6669,0.117 z"
           style="font-size:65.0009%;baseline-shift:sub"
           id="path213" />
      </g>
      <path
         style="fill:#f5c400;fill-opacity:0.392157;stroke:none"
         d="m 2480.315,-6959.055 63.7795,-10e-5 v 10.63 10.6298 l -63.7795,1e-4 -14.1732,-10.6299 z"
         id="path87600" />
      <g
         aria-label="hr"
         id="text87602"
         style="line-height:0%;font-family:Iwona;-inkscape-font-specification:Iwona;text-align:end;letter-spacing:0px;word-spacing:0px;text-anchor:end">
        <path
           d="m 2075.8326,-6944.375 v -5.85 c 0,-1.314 -1.008,-2.43 -2.304,-2.43 -1.08,0 -2.034,0.612 -2.808,1.368 v -5.688 h -1.404 v 12.6 h 1.404 v -6.354 c 0.612,-0.612 1.368,-1.098 2.214,-1.098 0.846,0 1.494,0.738 1.494,1.602 v 5.85 z"
           style="font-size:18px;line-height:1.25"
           id="path216" />
        <path
           d="m 2083.1046,-6951.359 v -1.116 c -0.198,-0.072 -0.414,-0.126 -0.612,-0.126 -1.008,0 -1.818,0.702 -2.466,1.476 v -1.35 h -1.404 v 8.1 h 1.404 v -5.994 c 0.54,-0.63 1.224,-1.17 2.052,-1.17 0.342,0 0.702,0.072 1.026,0.18 z"
           style="font-size:18px;line-height:1.25"
           id="path218" />
      </g>
      <path
         d="m 2101.1811,-6959.055 h 350.7873 l 28.3466,21.2598 63.7795,-1e-4 m -442.9134,1e-4 h 350.7873 l 28.3466,-21.2598 63.7795,-10e-5"
         style="fill:none;stroke:#000000;stroke-width:1px;stroke-linecap:butt;stroke-linejoin:miter;stroke-opacity:1"
         id="path87606" />
      <g
         aria-label="7"
         id="text87608"
         style="line-height:0%;font-family:Iwona;-inkscape-font-specification:Iwona;letter-spacing:0px;word-spacing:0px">
        <path
           d="m 2111.3744,-6952.7792 v -0.476 h -5.95 v 0.868 h 4.564 l -4.13,8.792 h 1.204 z"
           style="font-size:14px;line-height:1.25"
           id="path221" />
      </g>
      <g
         aria-label="8"
         id="text87612"
         style="line-height:0%;font-family:Iwona;-inkscape-font-specification:Iwona;letter-spacing:0px;word-spacing:0px">
        <path
           d="m 2490.5084,-6946.2972 c 0,-1.316 -0.63,-2.254 -1.708,-2.646 0.91,-0.336 1.428,-1.092 1.428,-2.114 0,-1.456 -1.022,-2.338 -2.688,-2.338 -1.68,0 -2.702,0.882 -2.702,2.338 0,1.022 0.518,1.778 1.428,2.114 -1.078,0.392 -1.708,1.33 -1.708,2.646 0,1.764 1.134,2.842 2.982,2.842 1.834,0 2.968,-1.078 2.968,-2.842 z m -1.372,-4.76 c 0,1.078 -0.616,1.75 -1.596,1.75 -0.994,0 -1.61,-0.672 -1.61,-1.75 0,-1.092 0.616,-1.75 1.61,-1.75 0.98,0 1.596,0.658 1.596,1.75 z m 0.14,4.76 c 0,1.4 -0.658,2.254 -1.736,2.254 -1.092,0 -1.75,-0.854 -1.75,-2.254 0,-1.4 0.658,-2.254 1.75,-2.254 1.078,0 1.736,0.854 1.736,2.254 z"
           style="font-size:14px;line-height:1.25"
           id="path224" />
      </g>
      <g
         transform="translate(0,-173.62209)"
         id="g87645">
        <path
           transform="translate(-148.81887,-9790.157)"
           style="fill:#f2f2f2;fill-opacity:1;stroke:#999999;stroke-width:1;stroke-linecap:round;stroke-linejoin:bevel;stroke-miterlimit:4;stroke-dashoffset:0;stroke-opacity:1"
           d="m 2338.5827,2905.5114 h 109.8425 c 3.926,0 7.0866,3.1606 7.0866,7.0866 v 10.63 c 0,3.9259 -3.1606,7.0866 -7.0866,7.0866 h -84.8538 l -17.9021,14.1732 7.0866,-14.1732 h -14.1732 c -3.926,0 -7.0866,-3.1607 -7.0866,-7.0866 v -10.63 c 0,-3.926 3.1606,-7.0866 7.0866,-7.0866 z"
           id="rect87642" />
        <g
           aria-label="Il est 7:59:59"
           id="text87636"
           style="line-height:0%;font-family:Iwona;-inkscape-font-specification:Iwona;letter-spacing:0px;word-spacing:0px">
          <path
             d="m 2196.5831,-6866.9292 v -12.6 h -1.476 v 12.6 z"
             style="font-size:18px;line-height:1.25"
             id="path227" />
          <path
             d="m 2203.2071,-6867.5592 v -0.54 c -0.342,0.288 -0.738,0.522 -1.188,0.522 -0.666,0 -0.792,-0.828 -0.792,-1.602 v -10.35 h -1.404 v 10.35 c 0,1.206 0.468,2.43 1.53,2.43 0.684,0 1.332,-0.342 1.854,-0.81 z"
             style="font-size:18px;line-height:1.25"
             id="path229" />
          <path
             d="m 2217.5171,-6870.7992 v -0.18 c 0,-2.538 -1.386,-4.23 -3.474,-4.23 -2.106,0 -3.492,1.692 -3.492,4.23 0,2.538 1.386,4.23 3.492,4.23 0.9,0 1.782,-0.288 2.52,-0.81 v -0.756 c -0.846,0.54 -1.53,0.738 -2.52,0.738 -1.53,0 -1.908,-1.458 -1.908,-3.222 z m -1.584,-0.756 h -3.798 c 0,-1.44 0.612,-2.898 1.908,-2.898 1.278,0 1.89,1.458 1.89,2.898 z"
             style="font-size:18px;line-height:1.25"
             id="path231" />
          <path
             d="m 2225.329,-6869.2332 c 0,-1.422 -1.512,-2.16 -2.988,-2.52 -0.864,-0.216 -1.8,-0.576 -1.8,-1.422 0,-0.774 0.792,-1.278 1.656,-1.278 0.954,0 1.908,0.288 2.7,0.81 v -0.756 c -0.792,-0.522 -1.746,-0.81 -2.7,-0.81 -1.566,0 -3.006,0.954 -3.006,2.412 0,1.314 1.458,1.926 2.844,2.268 0.954,0.234 1.944,0.738 1.944,1.656 0,0.846 -0.864,1.368 -1.782,1.368 -1.116,0 -2.196,-0.27 -3.15,-0.81 v 0.756 c 0.954,0.54 2.034,0.81 3.15,0.81 1.62,0 3.132,-0.972 3.132,-2.484 z"
             style="font-size:18px;line-height:1.25"
             id="path233" />
          <path
             d="m 2231.395,-6867.5592 v -0.54 c -0.288,0.288 -0.63,0.522 -1.044,0.522 -0.648,0 -0.684,-0.846 -0.684,-1.602 v -5.094 h 1.728 v -0.756 h -1.728 v -2.7 h -0.846 c 0,1.44 -0.828,2.79 -2.142,2.79 v 0.666 h 1.584 v 5.094 c 0,1.188 0.378,2.43 1.404,2.43 0.666,0 1.242,-0.36 1.728,-0.81 z"
             style="font-size:18px;line-height:1.25"
             id="path235" />
          <path
             d="m 2246.479,-6878.7372 v -0.612 h -7.65 v 1.116 h 5.868 l -5.31,11.304 h 1.548 z"
             style="font-size:18px;line-height:1.25"
             id="path237" />
          <path
             d="m 2250.583,-6874.1472 c 0,-0.486 -0.396,-0.882 -0.882,-0.882 -0.486,0 -0.882,0.396 -0.882,0.882 0,0.486 0.396,0.882 0.882,0.882 0.486,0 0.882,-0.396 0.882,-0.882 z m 0,6.336 c 0,-0.486 -0.396,-0.882 -0.882,-0.882 -0.486,0 -0.882,0.396 -0.882,0.882 0,0.486 0.396,0.882 0.882,0.882 0.486,0 0.882,-0.396 0.882,-0.882 z"
             style="font-size:18px;line-height:1.25"
             id="path239" />
          <path
             d="m 2260.5729,-6870.9792 c 0,-2.538 -1.53,-4.23 -3.816,-4.23 -1.044,0 -2.016,0.396 -2.772,1.062 l 0.18,-4.086 h 6.048 v -1.116 h -6.75 l -0.27,6.21 0.756,0.036 c 0.684,-0.846 1.71,-1.35 2.808,-1.35 1.332,0 2.232,1.386 2.232,3.474 0,2.088 -0.9,3.474 -2.232,3.474 -1.386,0 -2.736,-0.45 -3.834,-1.296 v 0.756 c 1.098,0.846 2.448,1.296 3.834,1.296 2.286,0 3.816,-1.692 3.816,-4.23 z"
             style="font-size:18px;line-height:1.25"
             id="path241" />
          <path
             d="m 2270.0229,-6873.1392 c 0,-4.464 -1.152,-6.39 -3.816,-6.39 -2.304,0 -3.834,1.692 -3.834,4.23 0,2.592 1.026,4.23 3.438,4.23 1.044,0 2.016,-0.486 2.628,-1.314 0,2.358 -0.594,4.878 -2.628,4.878 -0.918,0 -1.818,-0.306 -2.538,-0.882 v 0.756 c 0.72,0.576 1.62,0.882 2.538,0.882 2.826,0 4.212,-3.204 4.212,-6.39 z m -1.584,0 c -0.612,0.828 -1.584,1.314 -2.628,1.314 -1.44,0 -1.854,-1.8 -1.854,-3.474 0,-2.088 0.9,-3.474 2.25,-3.474 2.502,0 2.232,2.718 2.232,5.634 z"
             style="font-size:18px;line-height:1.25"
             id="path243" />
          <path
             d="m 2274.1269,-6874.1472 c 0,-0.486 -0.396,-0.882 -0.882,-0.882 -0.486,0 -0.882,0.396 -0.882,0.882 0,0.486 0.396,0.882 0.882,0.882 0.486,0 0.882,-0.396 0.882,-0.882 z m 0,6.336 c 0,-0.486 -0.396,-0.882 -0.882,-0.882 -0.486,0 -0.882,0.396 -0.882,0.882 0,0.486 0.396,0.882 0.882,0.882 0.486,0 0.882,-0.396 0.882,-0.882 z"
             style="font-size:18px;line-height:1.25"
             id="path245" />
          <path
             d="m 2284.1169,-6870.9792 c 0,-2.538 -1.53,-4.23 -3.816,-4.23 -1.044,0 -2.016,0.396 -2.772,1.062 l 0.18,-4.086 h 6.048 v -1.116 h -6.75 l -0.27,6.21 0.756,0.036 c 0.684,-0.846 1.71,-1.35 2.808,-1.35 1.332,0 2.232,1.386 2.232,3.474 0,2.088 -0.9,3.474 -2.232,3.474 -1.386,0 -2.736,-0.45 -3.834,-1.296 v 0.756 c 1.098,0.846 2.448,1.296 3.834,1.296 2.286,0 3.816,-1.692 3.816,-4.23 z"
             style="font-size:18px;line-height:1.25"
             id="path247" />
          <path
             d="m 2293.5669,-6873.1392 c 0,-4.464 -1.152,-6.39 -3.816,-6.39 -2.304,0 -3.834,1.692 -3.834,4.23 0,2.592 1.026,4.23 3.438,4.23 1.044,0 2.016,-0.486 2.628,-1.314 0,2.358 -0.594,4.878 -2.628,4.878 -0.918,0 -1.818,-0.306 -2.538,-0.882 v 0.756 c 0.72,0.576 1.62,0.882 2.538,0.882 2.826,0 4.212,-3.204 4.212,-6.39 z m -1.584,0 c -0.612,0.828 -1.584,1.314 -2.628,1.314 -1.44,0 -1.854,-1.8 -1.854,-3.474 0,-2.088 0.9,-3.474 2.25,-3.474 2.502,0 2.232,2.718 2.232,5.634 z"
             style="font-size:18px;line-height:1.25"
             id="path249" />
        </g>
      </g>
      <g
         id="g87658"
         transform="translate(248.03148,-258.66146)">
        <path
           id="path87660"
           d="m 2338.5827,2905.5114 h 109.8425 c 3.926,0 7.0866,3.1606 7.0866,7.0866 v 10.63 c 0,3.9259 -3.1606,7.0866 -7.0866,7.0866 h -84.8538 l -35.6186,14.1732 17.7165,-14.1732 h -7.0866 c -3.926,0 -7.0866,-3.1607 -7.0866,-7.0866 v -10.63 c 0,-3.926 3.1606,-7.0866 7.0866,-7.0866 z"
           style="fill:#f2f2f2;fill-opacity:1;stroke:#999999;stroke-width:1;stroke-linecap:round;stroke-linejoin:bevel;stroke-miterlimit:4;stroke-dashoffset:0;stroke-opacity:1"
           transform="translate(-148.81887,-9790.157)" />
        <g
           aria-label="Il est 7:59:00"
           id="text87662"
           style="line-height:0%;font-family:Iwona;-inkscape-font-specification:Iwona;letter-spacing:0px;word-spacing:0px">
          <path
             d="m 2196.5831,-6866.9292 v -12.6 h -1.476 v 12.6 z"
             style="font-size:18px;line-height:1.25"
             id="path252" />
          <path
             d="m 2203.2071,-6867.5592 v -0.54 c -0.342,0.288 -0.738,0.522 -1.188,0.522 -0.666,0 -0.792,-0.828 -0.792,-1.602 v -10.35 h -1.404 v 10.35 c 0,1.206 0.468,2.43 1.53,2.43 0.684,0 1.332,-0.342 1.854,-0.81 z"
             style="font-size:18px;line-height:1.25"
             id="path254" />
          <path
             d="m 2217.5171,-6870.7992 v -0.18 c 0,-2.538 -1.386,-4.23 -3.474,-4.23 -2.106,0 -3.492,1.692 -3.492,4.23 0,2.538 1.386,4.23 3.492,4.23 0.9,0 1.782,-0.288 2.52,-0.81 v -0.756 c -0.846,0.54 -1.53,0.738 -2.52,0.738 -1.53,0 -1.908,-1.458 -1.908,-3.222 z m -1.584,-0.756 h -3.798 c 0,-1.44 0.612,-2.898 1.908,-2.898 1.278,0 1.89,1.458 1.89,2.898 z"
             style="font-size:18px;line-height:1.25"
             id="path256" />
          <path
             d="m 2225.329,-6869.2332 c 0,-1.422 -1.512,-2.16 -2.988,-2.52 -0.864,-0.216 -1.8,-0.576 -1.8,-1.422 0,-0.774 0.792,-1.278 1.656,-1.278 0.954,0 1.908,0.288 2.7,0.81 v -0.756 c -0.792,-0.522 -1.746,-0.81 -2.7,-0.81 -1.566,0 -3.006,0.954 -3.006,2.412 0,1.314 1.458,1.926 2.844,2.268 0.954,0.234 1.944,0.738 1.944,1.656 0,0.846 -0.864,1.368 -1.782,1.368 -1.116,0 -2.196,-0.27 -3.15,-0.81 v 0.756 c 0.954,0.54 2.034,0.81 3.15,0.81 1.62,0 3.132,-0.972 3.132,-2.484 z"
             style="font-size:18px;line-height:1.25"
             id="path258" />
          <path
             d="m 2231.395,-6867.5592 v -0.54 c -0.288,0.288 -0.63,0.522 -1.044,0.522 -0.648,0 -0.684,-0.846 -0.684,-1.602 v -5.094 h 1.728 v -0.756 h -1.728 v -2.7 h -0.846 c 0,1.44 -0.828,2.79 -2.142,2.79 v 0.666 h 1.584 v 5.094 c 0,1.188 0.378,2.43 1.404,2.43 0.666,0 1.242,-0.36 1.728,-0.81 z"
             style="font-size:18px;line-height:1.25"
             id="path260" />
          <path
             d="m 2246.479,-6878.7372 v -0.612 h -7.65 v 1.116 h 5.868 l -5.31,11.304 h 1.548 z"
             style="font-size:18px;line-height:1.25"
             id="path262" />
          <path
             d="m 2250.583,-6874.1472 c 0,-0.486 -0.396,-0.882 -0.882,-0.882 -0.486,0 -0.882,0.396 -0.882,0.882 0,0.486 0.396,0.882 0.882,0.882 0.486,0 0.882,-0.396 0.882,-0.882 z m 0,6.336 c 0,-0.486 -0.396,-0.882 -0.882,-0.882 -0.486,0 -0.882,0.396 -0.882,0.882 0,0.486 0.396,0.882 0.882,0.882 0.486,0 0.882,-0.396 0.882,-0.882 z"
             style="font-size:18px;line-height:1.25"
             id="path264" />
          <path
             d="m 2260.5729,-6870.9792 c 0,-2.538 -1.53,-4.23 -3.816,-4.23 -1.044,0 -2.016,0.396 -2.772,1.062 l 0.18,-4.086 h 6.048 v -1.116 h -6.75 l -0.27,6.21 0.756,0.036 c 0.684,-0.846 1.71,-1.35 2.808,-1.35 1.332,0 2.232,1.386 2.232,3.474 0,2.088 -0.9,3.474 -2.232,3.474 -1.386,0 -2.736,-0.45 -3.834,-1.296 v 0.756 c 1.098,0.846 2.448,1.296 3.834,1.296 2.286,0 3.816,-1.692 3.816,-4.23 z"
             style="font-size:18px;line-height:1.25"
             id="path266" />
          <path
             d="m 2270.0229,-6873.1392 c 0,-4.464 -1.152,-6.39 -3.816,-6.39 -2.304,0 -3.834,1.692 -3.834,4.23 0,2.592 1.026,4.23 3.438,4.23 1.044,0 2.016,-0.486 2.628,-1.314 0,2.358 -0.594,4.878 -2.628,4.878 -0.918,0 -1.818,-0.306 -2.538,-0.882 v 0.756 c 0.72,0.576 1.62,0.882 2.538,0.882 2.826,0 4.212,-3.204 4.212,-6.39 z m -1.584,0 c -0.612,0.828 -1.584,1.314 -2.628,1.314 -1.44,0 -1.854,-1.8 -1.854,-3.474 0,-2.088 0.9,-3.474 2.25,-3.474 2.502,0 2.232,2.718 2.232,5.634 z"
             style="font-size:18px;line-height:1.25"
             id="path268" />
          <path
             d="m 2274.1269,-6874.1472 c 0,-0.486 -0.396,-0.882 -0.882,-0.882 -0.486,0 -0.882,0.396 -0.882,0.882 0,0.486 0.396,0.882 0.882,0.882 0.486,0 0.882,-0.396 0.882,-0.882 z m 0,6.336 c 0,-0.486 -0.396,-0.882 -0.882,-0.882 -0.486,0 -0.882,0.396 -0.882,0.882 0,0.486 0.396,0.882 0.882,0.882 0.486,0 0.882,-0.396 0.882,-0.882 z"
             style="font-size:18px;line-height:1.25"
             id="path270" />
          <path
             d="m 2284.2429,-6873.1392 c 0,-4.266 -1.314,-6.39 -3.942,-6.39 -2.628,0 -3.942,2.124 -3.942,6.39 0,4.266 1.314,6.39 3.942,6.39 2.628,0 3.942,-2.124 3.942,-6.39 z m -1.584,0 c 0,3.762 -0.792,5.634 -2.358,5.634 -1.566,0 -2.358,-1.872 -2.358,-5.634 0,-3.762 0.792,-5.634 2.358,-5.634 1.566,0 2.358,1.872 2.358,5.634 z"
             style="fill:#0088aa"
             id="path272" />
          <path
             d="m 2293.6929,-6873.1392 c 0,-4.266 -1.314,-6.39 -3.942,-6.39 -2.628,0 -3.942,2.124 -3.942,6.39 0,4.266 1.314,6.39 3.942,6.39 2.628,0 3.942,-2.124 3.942,-6.39 z m -1.584,0 c 0,3.762 -0.792,5.634 -2.358,5.634 -1.566,0 -2.358,-1.872 -2.358,-5.634 0,-3.762 0.792,-5.634 2.358,-5.634 1.566,0 2.358,1.872 2.358,5.634 z"
             style="fill:#0088aa"
             id="path274" />
        </g>
      </g>
      <g
         transform="translate(276.19238,-187.79532)"
         id="g87666">
        <path
           transform="translate(-148.81887,-9790.157)"
           style="fill:#f2f2f2;fill-opacity:1;stroke:#999999;stroke-width:1;stroke-linecap:round;stroke-linejoin:bevel;stroke-miterlimit:4;stroke-dashoffset:0;stroke-opacity:1"
           d="m 2338.5827,2905.5114 h 109.8425 c 3.926,0 7.0866,3.1606 7.0866,7.0866 v 10.63 c 0,3.9259 -3.1606,7.0866 -7.0866,7.0866 h -84.8538 l -35.6186,14.1732 17.7165,-14.1732 h -7.0866 c -3.926,0 -7.0866,-3.1607 -7.0866,-7.0866 v -10.63 c 0,-3.926 3.1606,-7.0866 7.0866,-7.0866 z"
           id="path87668" />
        <g
           aria-label="Il est 7:00:00"
           id="text87670"
           style="line-height:0%;font-family:Iwona;-inkscape-font-specification:Iwona;letter-spacing:0px;word-spacing:0px">
          <path
             d="m 2196.5831,-6866.9292 v -12.6 h -1.476 v 12.6 z"
             style="font-size:18px;line-height:1.25"
             id="path277" />
          <path
             d="m 2203.2071,-6867.5592 v -0.54 c -0.342,0.288 -0.738,0.522 -1.188,0.522 -0.666,0 -0.792,-0.828 -0.792,-1.602 v -10.35 h -1.404 v 10.35 c 0,1.206 0.468,2.43 1.53,2.43 0.684,0 1.332,-0.342 1.854,-0.81 z"
             style="font-size:18px;line-height:1.25"
             id="path279" />
          <path
             d="m 2217.5171,-6870.7992 v -0.18 c 0,-2.538 -1.386,-4.23 -3.474,-4.23 -2.106,0 -3.492,1.692 -3.492,4.23 0,2.538 1.386,4.23 3.492,4.23 0.9,0 1.782,-0.288 2.52,-0.81 v -0.756 c -0.846,0.54 -1.53,0.738 -2.52,0.738 -1.53,0 -1.908,-1.458 -1.908,-3.222 z m -1.584,-0.756 h -3.798 c 0,-1.44 0.612,-2.898 1.908,-2.898 1.278,0 1.89,1.458 1.89,2.898 z"
             style="font-size:18px;line-height:1.25"
             id="path281" />
          <path
             d="m 2225.329,-6869.2332 c 0,-1.422 -1.512,-2.16 -2.988,-2.52 -0.864,-0.216 -1.8,-0.576 -1.8,-1.422 0,-0.774 0.792,-1.278 1.656,-1.278 0.954,0 1.908,0.288 2.7,0.81 v -0.756 c -0.792,-0.522 -1.746,-0.81 -2.7,-0.81 -1.566,0 -3.006,0.954 -3.006,2.412 0,1.314 1.458,1.926 2.844,2.268 0.954,0.234 1.944,0.738 1.944,1.656 0,0.846 -0.864,1.368 -1.782,1.368 -1.116,0 -2.196,-0.27 -3.15,-0.81 v 0.756 c 0.954,0.54 2.034,0.81 3.15,0.81 1.62,0 3.132,-0.972 3.132,-2.484 z"
             style="font-size:18px;line-height:1.25"
             id="path283" />
          <path
             d="m 2231.395,-6867.5592 v -0.54 c -0.288,0.288 -0.63,0.522 -1.044,0.522 -0.648,0 -0.684,-0.846 -0.684,-1.602 v -5.094 h 1.728 v -0.756 h -1.728 v -2.7 h -0.846 c 0,1.44 -0.828,2.79 -2.142,2.79 v 0.666 h 1.584 v 5.094 c 0,1.188 0.378,2.43 1.404,2.43 0.666,0 1.242,-0.36 1.728,-0.81 z"
             style="font-size:18px;line-height:1.25"
             id="path285" />
          <path
             d="m 2246.479,-6878.7372 v -0.612 h -7.65 v 1.116 h 5.868 l -5.31,11.304 h 1.548 z"
             style="font-size:18px;line-height:1.25"
             id="path287" />
          <path
             d="m 2250.583,-6874.1472 c 0,-0.486 -0.396,-0.882 -0.882,-0.882 -0.486,0 -0.882,0.396 -0.882,0.882 0,0.486 0.396,0.882 0.882,0.882 0.486,0 0.882,-0.396 0.882,-0.882 z m 0,6.336 c 0,-0.486 -0.396,-0.882 -0.882,-0.882 -0.486,0 -0.882,0.396 -0.882,0.882 0,0.486 0.396,0.882 0.882,0.882 0.486,0 0.882,-0.396 0.882,-0.882 z"
             style="font-size:18px;line-height:1.25"
             id="path289" />
          <path
             d="m 2260.6989,-6873.1392 c 0,-4.266 -1.314,-6.39 -3.942,-6.39 -2.628,0 -3.942,2.124 -3.942,6.39 0,4.266 1.314,6.39 3.942,6.39 2.628,0 3.942,-2.124 3.942,-6.39 z m -1.584,0 c 0,3.762 -0.792,5.634 -2.358,5.634 -1.566,0 -2.358,-1.872 -2.358,-5.634 0,-3.762 0.792,-5.634 2.358,-5.634 1.566,0 2.358,1.872 2.358,5.634 z"
             style="fill:#0088aa"
             id="path291" />
          <path
             d="m 2270.1489,-6873.1392 c 0,-4.266 -1.314,-6.39 -3.942,-6.39 -2.628,0 -3.942,2.124 -3.942,6.39 0,4.266 1.314,6.39 3.942,6.39 2.628,0 3.942,-2.124 3.942,-6.39 z m -1.584,0 c 0,3.762 -0.792,5.634 -2.358,5.634 -1.566,0 -2.358,-1.872 -2.358,-5.634 0,-3.762 0.792,-5.634 2.358,-5.634 1.566,0 2.358,1.872 2.358,5.634 z"
             style="fill:#0088aa"
             id="path293" />
          <path
             d="m 2274.1269,-6874.1472 c 0,-0.486 -0.396,-0.882 -0.882,-0.882 -0.486,0 -0.882,0.396 -0.882,0.882 0,0.486 0.396,0.882 0.882,0.882 0.486,0 0.882,-0.396 0.882,-0.882 z m 0,6.336 c 0,-0.486 -0.396,-0.882 -0.882,-0.882 -0.486,0 -0.882,0.396 -0.882,0.882 0,0.486 0.396,0.882 0.882,0.882 0.486,0 0.882,-0.396 0.882,-0.882 z"
             style="font-size:18px;line-height:1.25"
             id="path295" />
          <path
             d="m 2284.2429,-6873.1392 c 0,-4.266 -1.314,-6.39 -3.942,-6.39 -2.628,0 -3.942,2.124 -3.942,6.39 0,4.266 1.314,6.39 3.942,6.39 2.628,0 3.942,-2.124 3.942,-6.39 z m -1.584,0 c 0,3.762 -0.792,5.634 -2.358,5.634 -1.566,0 -2.358,-1.872 -2.358,-5.634 0,-3.762 0.792,-5.634 2.358,-5.634 1.566,0 2.358,1.872 2.358,5.634 z"
             style="font-size:18px;line-height:1.25"
             id="path297" />
          <path
             d="m 2293.6929,-6873.1392 c 0,-4.266 -1.314,-6.39 -3.942,-6.39 -2.628,0 -3.942,2.124 -3.942,6.39 0,4.266 1.314,6.39 3.942,6.39 2.628,0 3.942,-2.124 3.942,-6.39 z m -1.584,0 c 0,3.762 -0.792,5.634 -2.358,5.634 -1.566,0 -2.358,-1.872 -2.358,-5.634 0,-3.762 0.792,-5.634 2.358,-5.634 1.566,0 2.358,1.872 2.358,5.634 z"
             style="font-size:18px;line-height:1.25"
             id="path299" />
        </g>
      </g>
      <g
         id="g87674"
         transform="translate(304.72439,-116.92915)">
        <path
           id="path87676"
           d="m 2338.5827,2905.5114 h 109.8425 c 3.926,0 7.0866,3.1606 7.0866,7.0866 v 10.63 c 0,3.9259 -3.1606,7.0866 -7.0866,7.0866 h -84.8538 l -35.6186,14.1732 17.7165,-14.1732 h -7.0866 c -3.926,0 -7.0866,-3.1607 -7.0866,-7.0866 v -10.63 c 0,-3.926 3.1606,-7.0866 7.0866,-7.0866 z"
           style="fill:#f2f2f2;fill-opacity:1;stroke:#999999;stroke-width:1;stroke-linecap:round;stroke-linejoin:bevel;stroke-miterlimit:4;stroke-dashoffset:0;stroke-opacity:1"
           transform="translate(-148.81887,-9790.157)" />
        <g
           aria-label="Il est 8:00:00"
           id="text87678"
           style="line-height:0%;font-family:Iwona;-inkscape-font-specification:Iwona;letter-spacing:0px;word-spacing:0px">
          <path
             d="m 2196.5831,-6866.9292 v -12.6 h -1.476 v 12.6 z"
             style="font-size:18px;line-height:1.25"
             id="path302" />
          <path
             d="m 2203.2071,-6867.5592 v -0.54 c -0.342,0.288 -0.738,0.522 -1.188,0.522 -0.666,0 -0.792,-0.828 -0.792,-1.602 v -10.35 h -1.404 v 10.35 c 0,1.206 0.468,2.43 1.53,2.43 0.684,0 1.332,-0.342 1.854,-0.81 z"
             style="font-size:18px;line-height:1.25"
             id="path304" />
          <path
             d="m 2217.5171,-6870.7992 v -0.18 c 0,-2.538 -1.386,-4.23 -3.474,-4.23 -2.106,0 -3.492,1.692 -3.492,4.23 0,2.538 1.386,4.23 3.492,4.23 0.9,0 1.782,-0.288 2.52,-0.81 v -0.756 c -0.846,0.54 -1.53,0.738 -2.52,0.738 -1.53,0 -1.908,-1.458 -1.908,-3.222 z m -1.584,-0.756 h -3.798 c 0,-1.44 0.612,-2.898 1.908,-2.898 1.278,0 1.89,1.458 1.89,2.898 z"
             style="font-size:18px;line-height:1.25"
             id="path306" />
          <path
             d="m 2225.329,-6869.2332 c 0,-1.422 -1.512,-2.16 -2.988,-2.52 -0.864,-0.216 -1.8,-0.576 -1.8,-1.422 0,-0.774 0.792,-1.278 1.656,-1.278 0.954,0 1.908,0.288 2.7,0.81 v -0.756 c -0.792,-0.522 -1.746,-0.81 -2.7,-0.81 -1.566,0 -3.006,0.954 -3.006,2.412 0,1.314 1.458,1.926 2.844,2.268 0.954,0.234 1.944,0.738 1.944,1.656 0,0.846 -0.864,1.368 -1.782,1.368 -1.116,0 -2.196,-0.27 -3.15,-0.81 v 0.756 c 0.954,0.54 2.034,0.81 3.15,0.81 1.62,0 3.132,-0.972 3.132,-2.484 z"
             style="font-size:18px;line-height:1.25"
             id="path308" />
          <path
             d="m 2231.395,-6867.5592 v -0.54 c -0.288,0.288 -0.63,0.522 -1.044,0.522 -0.648,0 -0.684,-0.846 -0.684,-1.602 v -5.094 h 1.728 v -0.756 h -1.728 v -2.7 h -0.846 c 0,1.44 -0.828,2.79 -2.142,2.79 v 0.666 h 1.584 v 5.094 c 0,1.188 0.378,2.43 1.404,2.43 0.666,0 1.242,-0.36 1.728,-0.81 z"
             style="font-size:18px;line-height:1.25"
             id="path310" />
          <path
             d="m 2246.479,-6870.4032 c 0,-1.692 -0.81,-2.898 -2.196,-3.402 1.17,-0.432 1.836,-1.404 1.836,-2.718 0,-1.872 -1.314,-3.006 -3.456,-3.006 -2.16,0 -3.474,1.134 -3.474,3.006 0,1.314 0.666,2.286 1.836,2.718 -1.386,0.504 -2.196,1.71 -2.196,3.402 0,2.268 1.458,3.654 3.834,3.654 2.358,0 3.816,-1.386 3.816,-3.654 z m -1.764,-6.12 c 0,1.386 -0.792,2.25 -2.052,2.25 -1.278,0 -2.07,-0.864 -2.07,-2.25 0,-1.404 0.792,-2.25 2.07,-2.25 1.26,0 2.052,0.846 2.052,2.25 z m 0.18,6.12 c 0,1.8 -0.846,2.898 -2.232,2.898 -1.404,0 -2.25,-1.098 -2.25,-2.898 0,-1.8 0.846,-2.898 2.25,-2.898 1.386,0 2.232,1.098 2.232,2.898 z"
             style="fill:#0088aa"
             id="path312" />
          <path
             d="m 2250.583,-6874.1472 c 0,-0.486 -0.396,-0.882 -0.882,-0.882 -0.486,0 -0.882,0.396 -0.882,0.882 0,0.486 0.396,0.882 0.882,0.882 0.486,0 0.882,-0.396 0.882,-0.882 z m 0,6.336 c 0,-0.486 -0.396,-0.882 -0.882,-0.882 -0.486,0 -0.882,0.396 -0.882,0.882 0,0.486 0.396,0.882 0.882,0.882 0.486,0 0.882,-0.396 0.882,-0.882 z"
             style="font-size:18px;line-height:1.25"
             id="path314" />
          <path
             d="m 2260.6989,-6873.1392 c 0,-4.266 -1.314,-6.39 -3.942,-6.39 -2.628,0 -3.942,2.124 -3.942,6.39 0,4.266 1.314,6.39 3.942,6.39 2.628,0 3.942,-2.124 3.942,-6.39 z m -1.584,0 c 0,3.762 -0.792,5.634 -2.358,5.634 -1.566,0 -2.358,-1.872 -2.358,-5.634 0,-3.762 0.792,-5.634 2.358,-5.634 1.566,0 2.358,1.872 2.358,5.634 z"
             style="font-size:18px;line-height:1.25"
             id="path316" />
          <path
             d="m 2270.1489,-6873.1392 c 0,-4.266 -1.314,-6.39 -3.942,-6.39 -2.628,0 -3.942,2.124 -3.942,6.39 0,4.266 1.314,6.39 3.942,6.39 2.628,0 3.942,-2.124 3.942,-6.39 z m -1.584,0 c 0,3.762 -0.792,5.634 -2.358,5.634 -1.566,0 -2.358,-1.872 -2.358,-5.634 0,-3.762 0.792,-5.634 2.358,-5.634 1.566,0 2.358,1.872 2.358,5.634 z"
             style="font-size:18px;line-height:1.25"
             id="path318" />
          <path
             d="m 2274.1269,-6874.1472 c 0,-0.486 -0.396,-0.882 -0.882,-0.882 -0.486,0 -0.882,0.396 -0.882,0.882 0,0.486 0.396,0.882 0.882,0.882 0.486,0 0.882,-0.396 0.882,-0.882 z m 0,6.336 c 0,-0.486 -0.396,-0.882 -0.882,-0.882 -0.486,0 -0.882,0.396 -0.882,0.882 0,0.486 0.396,0.882 0.882,0.882 0.486,0 0.882,-0.396 0.882,-0.882 z"
             style="font-size:18px;line-height:1.25"
             id="path320" />
          <path
             d="m 2284.2429,-6873.1392 c 0,-4.266 -1.314,-6.39 -3.942,-6.39 -2.628,0 -3.942,2.124 -3.942,6.39 0,4.266 1.314,6.39 3.942,6.39 2.628,0 3.942,-2.124 3.942,-6.39 z m -1.584,0 c 0,3.762 -0.792,5.634 -2.358,5.634 -1.566,0 -2.358,-1.872 -2.358,-5.634 0,-3.762 0.792,-5.634 2.358,-5.634 1.566,0 2.358,1.872 2.358,5.634 z"
             style="font-size:18px;line-height:1.25"
             id="path322" />
          <path
             d="m 2293.6929,-6873.1392 c 0,-4.266 -1.314,-6.39 -3.942,-6.39 -2.628,0 -3.942,2.124 -3.942,6.39 0,4.266 1.314,6.39 3.942,6.39 2.628,0 3.942,-2.124 3.942,-6.39 z m -1.584,0 c 0,3.762 -0.792,5.634 -2.358,5.634 -1.566,0 -2.358,-1.872 -2.358,-5.634 0,-3.762 0.792,-5.634 2.358,-5.634 1.566,0 2.358,1.872 2.358,5.634 z"
             style="font-size:18px;line-height:1.25"
             id="path324" />
        </g>
      </g>
      <path
         style="fill:none;stroke:#000000;stroke-width:1px;stroke-linecap:butt;stroke-linejoin:miter;stroke-opacity:1"
         d="m 2544.0945,-6923.6221 -77.9527,10e-5 -28.3465,21.2599 -336.6142,-10e-5"
         id="path87784" />
      <g
         aria-label="buzz"
         id="text87786"
         style="line-height:0%;font-family:Iwona;-inkscape-font-specification:Iwona;text-align:end;letter-spacing:0px;word-spacing:0px;text-anchor:end">
        <path
           d="m 2057.9767,-6910.7424 c 0,-2.394 -0.9,-4.23 -3.078,-4.23 -0.918,0 -1.764,0.414 -2.484,0.99 v -5.31 h -1.404 v 12.6 h 1.404 v -0.414 c 0.684,0.36 1.44,0.594 2.214,0.594 2.25,0 3.348,-1.8 3.348,-4.23 z m -1.584,0 c 0,1.692 -0.522,3.474 -1.998,3.474 -0.702,0 -1.386,-0.234 -1.98,-0.594 v -5.364 c 0.54,-0.54 1.206,-0.99 1.98,-0.99 1.638,0 1.998,1.584 1.998,3.474 z"
           style="font-size:18px;line-height:1.25"
           id="path327" />
        <path
           d="m 2066.8327,-6906.6924 v -8.1 h -1.404 v 6.354 c -0.612,0.612 -1.368,1.098 -2.214,1.098 -0.846,0 -1.494,-0.738 -1.494,-1.602 v -5.85 h -1.404 v 5.85 c 0,1.314 1.008,2.43 2.304,2.43 1.08,0 2.034,-0.612 2.808,-1.368 v 1.188 z"
           style="font-size:18px;line-height:1.25"
           id="path329" />
        <path
           d="m 2075.3286,-6906.6924 v -0.756 h -4.896 l 4.896,-6.66 v -0.684 h -6.336 v 0.756 h 4.716 l -4.896,6.66 v 0.684 z"
           style="font-size:18px;line-height:1.25"
           id="path331" />
        <path
           d="m 2082.9246,-6906.6924 v -0.756 h -4.896 l 4.896,-6.66 v -0.684 h -6.336 v 0.756 h 4.716 l -4.896,6.66 v 0.684 z"
           style="font-size:18px;line-height:1.25"
           id="path333" />
      </g>
    </g>
  </g>
</svg>
