<?xml version="1.0" encoding="UTF-8" standalone="no"?>
<!-- Created with Inkscape (http://www.inkscape.org/) -->

<svg
   width="167.80975mm"
   height="96.477951mm"
   viewBox="0 0 594.60149 341.85101"
   id="svg11330"
   version="1.1"
   xmlns="http://www.w3.org/2000/svg"
   xmlns:svg="http://www.w3.org/2000/svg"
   xmlns:rdf="http://www.w3.org/1999/02/22-rdf-syntax-ns#"
   xmlns:cc="http://creativecommons.org/ns#"
   xmlns:dc="http://purl.org/dc/elements/1.1/">
  <defs
     id="defs11332">
    <marker
       style="overflow:visible"
       id="marker10185-38"
       refX="0"
       refY="0"
       orient="auto">
      <path
         transform="matrix(0.4,0,0,0.4,4,0)"
         style="fill-rule:evenodd;stroke:#000000;stroke-width:1.00000003pt;marker-start:none"
         d="M 0,0 5,-5 -12.5,0 5,5 Z"
         id="path10187-62" />
    </marker>
    <marker
       orient="auto"
       refY="0"
       refX="0"
       id="marker9715"
       style="overflow:visible">
      <path
         id="path9717"
         d="M 0,0 5,-5 -12.5,0 5,5 Z"
         style="fill-rule:evenodd;stroke:#000000;stroke-width:1.00000003pt;marker-start:none"
         transform="matrix(-0.4,0,0,-0.4,-4,0)" />
    </marker>
  </defs>
  <metadata
     id="metadata11335">
    <rdf:RDF>
      <cc:Work
         rdf:about="">
        <dc:format>image/svg+xml</dc:format>
        <dc:type
           rdf:resource="http://purl.org/dc/dcmitype/StillImage" />
        <dc:title />
      </cc:Work>
    </rdf:RDF>
  </metadata>
  <g
     id="layer1"
     transform="translate(-39.65055,-239.7513)">
    <g
       style="display:inline"
       id="g8012"
       transform="translate(-2014.1292,7474.406)">
      <path
         id="path8495"
         d="m 2336.5702,-7112.9886 v 7.0866 h 3.5433 l -7.0866,7.0866 -7.0866,-7.0866 h 3.5433 v -3.5433 z"
         style="display:inline;fill:#ff9955;fill-opacity:1;stroke:none" />
      <path
         id="path8483"
         d="m 2552.7119,-7081.0989 h 28.3465 l 3.5433,-7.0866 3.5433,35.433 -3.5433,-7.0866 h -24.8032 l -3.5433,7.0866 -3.5433,-24.8031 z"
         style="display:inline;fill:#eeaaff;fill-opacity:1;stroke:none" />
      <path
         style="display:inline;fill:#aade87;fill-opacity:1;stroke:none"
         d="m 2556.2552,-7081.0989 h 24.8032 l 3.5433,-7.0866 v 14.1732 10.63 l -24.8032,-1e-4 -3.5433,10.63 v -21.2599 z"
         id="path8493" />
      <path
         id="path8491"
         d="m 2556.2552,-7045.6659 h 28.3465 v 3.5433 24.8032 l -3.5433,-10.6299 h -17.7166 -7.0866 v -10.63 z"
         style="display:inline;fill:#aade87;fill-opacity:1;stroke:none" />
      <path
         style="display:inline;fill:#aade87;fill-opacity:1;stroke:none"
         d="m 2556.2552,-7010.2327 h 24.8032 l 3.5433,-7.0866 3.5433,35.433 -3.5433,-7.0866 h -21.2599 l -3.5433,7.0866 -3.5433,-24.8031 z"
         id="path8489" />
      <path
         style="display:inline;fill:#eeaaff;fill-opacity:1;stroke:none"
         d="m 2552.7119,-7116.532 h 31.8898 v 3.5433 24.8032 l -3.5433,-10.6299 h -21.2599 -7.0866 v -10.63 z"
         id="path8487" />
      <path
         id="path8481"
         d="m 2552.7119,-7151.965 h 28.3465 l 3.5433,-7.0866 3.5433,35.433 -3.5433,-7.0866 h -28.3465 l -3.5433,7.0866 -3.5433,-35.433 z"
         style="display:inline;fill:#87cdde;fill-opacity:1;stroke:none" />
      <path
         style="display:inline;fill:#87cdde;fill-opacity:1;stroke:none"
         d="m 2304.6804,-7151.965 h 28.3465 l 3.5433,-7.0866 3.5433,35.433 -3.5433,-7.0866 h -28.3465 l -3.5433,7.0866 -3.5433,-35.433 z"
         id="path39521-5" />
      <path
         style="display:inline;fill:#cccccc;fill-opacity:1;stroke:none"
         d="m 2120.4284,-7205.1146 3.5433,-1e-4 v 28.3465 h 3.5433 l -7.0866,7.0866 -7.0866,-7.0866 h 3.5433 v -7.0354 l 3.5433,-0.051 z"
         id="path8359-8" />
      <path
         id="path8343-9"
         d="m 2297.5938,-7205.1146 3.5433,-1e-4 v 28.3465 h 3.5433 l -7.0866,7.0866 -7.0866,-7.0866 h 3.5433 v -7.0354 l 3.5433,-0.051 z"
         style="display:inline;fill:#ff9955;fill-opacity:1;stroke:none" />
      <path
         id="path8436"
         d="m 2155.8615,-7205.1146 3.5433,-1e-4 v 28.3465 h 3.5433 l -7.0866,7.0866 -7.0866,-7.0866 h 3.5433 v -7.0354 l 3.5433,-0.051 z"
         style="display:inline;fill:#cccccc;fill-opacity:1;stroke:none" />
      <path
         style="display:inline;fill:#cccccc;fill-opacity:1;stroke:none"
         d="m 2191.2946,-7205.1146 3.5433,-1e-4 v 28.3465 h 3.5433 l -7.0866,7.0866 -7.0866,-7.0866 h 3.5433 v -7.0354 l 3.5433,-0.051 z"
         id="path8438" />
      <path
         id="path8440"
         d="m 2226.7277,-7205.1146 3.5433,-1e-4 v 28.3465 h 3.5433 l -7.0866,7.0866 -7.0866,-7.0866 h 3.5433 v -7.0354 l 3.5433,-0.051 z"
         style="display:inline;fill:#cccccc;fill-opacity:1;stroke:none" />
      <path
         style="display:inline;fill:#cccccc;fill-opacity:1;stroke:none"
         d="m 2262.1607,-7205.1146 3.5433,-1e-4 v 28.3465 h 3.5433 l -7.0866,7.0866 -7.0866,-7.0866 h 3.5433 v -7.0354 l 3.5433,-0.051 z"
         id="path8442" />
      <path
         style="display:inline;fill:#ff9955;fill-opacity:1;stroke:none"
         d="m 2333.0269,-7205.1146 3.5433,-1e-4 v 28.3465 h 3.5433 l -7.0866,7.0866 -7.0866,-7.0866 h 3.5433 v -7.0354 l 3.5433,-0.051 z"
         id="path8444" />
      <path
         id="path8446"
         d="m 2368.46,-7205.1146 3.5433,-1e-4 v 28.3465 h 3.5433 l -7.0866,7.0866 -7.0866,-7.0866 h 3.5433 v -7.0354 l 3.5433,-0.051 z"
         style="display:inline;fill:#cccccc;fill-opacity:1;stroke:none" />
      <path
         style="display:inline;fill:#cccccc;fill-opacity:1;stroke:none"
         d="m 2403.893,-7205.1146 3.5433,-1e-4 v 28.3465 h 3.5433 l -7.0866,7.0866 -7.0866,-7.0866 h 3.5433 v -7.0354 l 3.5433,-0.051 z"
         id="path8449" />
      <path
         id="path8451"
         d="m 2439.3261,-7205.1146 3.5433,-1e-4 v 28.3465 h 3.5433 l -7.0866,7.0866 -7.0866,-7.0866 h 3.5433 v -7.0354 l 3.5433,-0.051 z"
         style="display:inline;fill:#cccccc;fill-opacity:1;stroke:none" />
      <path
         style="display:inline;fill:#cccccc;fill-opacity:1;stroke:none"
         d="m 2474.7592,-7205.1146 3.5433,-1e-4 v 28.3465 h 3.5433 l -7.0866,7.0866 -7.0866,-7.0866 h 3.5433 v -7.0354 l 3.5433,-0.051 z"
         id="path8453" />
      <path
         id="path8455"
         d="m 2510.1922,-7205.1146 3.5433,-1e-4 v 28.3465 h 3.5433 l -7.0866,7.0866 -7.0866,-7.0866 h 3.5433 v -7.0354 l 3.5433,-0.051 z"
         style="display:inline;fill:#cccccc;fill-opacity:1;stroke:none" />
      <path
         id="path8457"
         d="m 2545.6253,-7205.1146 3.5433,-1e-4 v 28.3465 h 3.5433 l -7.0866,7.0866 -7.0866,-7.0866 h 3.5433 v -7.0354 l 3.5433,-0.051 z"
         style="display:inline;fill:#ff9955;fill-opacity:1;stroke:none" />
      <path
         style="display:inline;fill:#ff9955;fill-opacity:1;stroke:none"
         d="m 2581.0584,-7205.1146 3.5433,-1e-4 v 28.3465 h 3.5433 l -7.0866,7.0866 -7.0866,-7.0866 h 3.5433 v -7.0354 l 3.5433,-0.051 z"
         id="path8459" />
      <path
         style="display:inline;fill:#cccccc;fill-opacity:1;stroke:none"
         d="m 2616.4914,-7205.1146 3.5433,-1e-4 v 28.3465 h 3.5433 l -7.0866,7.0866 -7.0866,-7.0866 h 3.5433 v -7.0354 l 3.5433,-0.051 z"
         id="path8461" />
      <path
         id="path8308"
         d="m 2102.7119,-6971.2564 h 453.5434 l 7.0866,-21.2598 h 21.2598 l 7.0866,21.2598 h 49.6063"
         style="fill:#f5c400;fill-opacity:0.392157;stroke:#000000;stroke-width:1px;stroke-linecap:butt;stroke-linejoin:miter;stroke-opacity:1" />
      <path
         style="fill:#f5c400;fill-opacity:0.392157;stroke:none"
         d="m 2102.7119,-6957.0832 h 478.3466 l 3.5433,10.6299 -3.5433,10.6299 h -478.3466 l 1e-4,-10.6298 z"
         id="path8014" />
      <path
         id="path8018"
         d="m 2102.7119,-7112.9887 h 198.4252 l 7.0866,-21.2598 h 28.3465 l 7.0866,21.2598 c 0,0 205.5118,0 205.5118,0 l 7.0866,-21.2599 h 28.3464 l 7.0867,21.2599 h 49.6063"
         style="fill:#f5c400;fill-opacity:0.392157;stroke:#000000;stroke-width:1px;stroke-linecap:butt;stroke-linejoin:miter;stroke-opacity:1" />
      <path
         id="path8020"
         d="m 2102.7118,-7098.8155 h 230.3151 l 3.5433,10.6299 -3.5433,10.6299 h -230.3151 l 10e-5,-10.6299 z"
         style="fill:#f5c400;fill-opacity:0.392157;stroke:none" />
      <path
         style="fill:#f5c400;fill-opacity:0.392157;stroke:none"
         d="m 2340.1134,-7098.8155 h 240.945 l 3.5433,10.6299 -3.5433,10.6299 h -240.945 l -3.5432,-10.6299 z"
         id="path8022" />
      <path
         id="path8024"
         d="m 2588.145,-7098.8155 h 53.1496 v 10.6299 10.6299 h -53.1496 l -3.5432,-10.6299 z"
         style="fill:#f5c400;fill-opacity:0.392157;stroke:none" />
      <path
         id="path8026"
         d="m 2102.7119,-7169.6816 h 17.7165 l 3.5433,10.6299 -3.5433,10.6299 h -17.7165 v -10.6299 z"
         style="fill:#f5c400;fill-opacity:0.392157;stroke:none" />
      <path
         style="fill:#f5c400;fill-opacity:0.392157;stroke:none"
         d="m 2127.515,-7169.6816 h 28.3465 l 3.5433,10.6299 -3.5433,10.6299 h -28.3465 l -3.5433,-10.6299 z"
         id="path8028" />
      <path
         id="path8030"
         d="m 2162.9481,-7169.6816 h 28.3465 l 3.5433,10.6299 -3.5433,10.6299 h -28.3465 l -3.5433,-10.6299 z"
         style="fill:#f5c400;fill-opacity:0.392157;stroke:none" />
      <path
         style="fill:#f5c400;fill-opacity:0.392157;stroke:none"
         d="m 2198.3812,-7169.6816 h 28.3465 l 3.5433,10.6299 -3.5433,10.6299 h -28.3465 l -3.5433,-10.6299 z"
         id="path8032" />
      <path
         id="path8034"
         d="m 2255.0741,-7169.6816 h 7.0866 l 3.5433,10.6299 -3.5433,10.6299 h -7.0866 v -10.6299 z"
         style="fill:#f5c400;fill-opacity:0.392157;stroke:none" />
      <path
         style="fill:#f5c400;fill-opacity:0.392157;stroke:none"
         d="m 2237.3576,-7169.6816 h -3.5434 l -3.5433,10.6299 3.5433,10.6299 h 3.5434 v -10.6299 z"
         id="path8036" />
      <path
         id="path8038"
         d="m 2269.2473,-7169.6816 h 28.3465 l 3.5433,10.6299 -3.5433,10.6299 h -28.3465 l -3.5433,-10.6299 z"
         style="fill:#f5c400;fill-opacity:0.392157;stroke:none" />
      <path
         style="fill:#f5c400;fill-opacity:0.392157;stroke:none"
         d="m 2304.6804,-7169.6816 h 28.3465 l 3.5433,10.6299 -3.5433,10.6299 h -28.3465 l -3.5433,-10.6299 z"
         id="path8040" />
      <path
         style="fill:#f5c400;fill-opacity:0.392157;stroke:none"
         d="m 2340.1135,-7169.6816 h 28.3465 l 3.5433,10.6299 -3.5433,10.6299 h -28.3465 l -3.5433,-10.6299 z"
         id="path8042" />
      <path
         id="path8044"
         d="m 2375.5466,-7169.6816 h 28.3465 l 3.5433,10.6299 -3.5433,10.6299 h -28.3465 l -3.5433,-10.6299 z"
         style="fill:#f5c400;fill-opacity:0.392157;stroke:none" />
      <path
         id="path8046"
         d="m 2410.9796,-7169.6816 h 28.3465 l 3.5433,10.6299 -3.5433,10.6299 h -28.3465 l -3.5433,-10.6299 z"
         style="fill:#f5c400;fill-opacity:0.392157;stroke:none" />
      <path
         style="fill:#f5c400;fill-opacity:0.392157;stroke:none"
         d="m 2446.4127,-7169.6816 h 28.3465 l 3.5433,10.6299 -3.5433,10.6299 h -28.3465 l -3.5433,-10.6299 z"
         id="path8048" />
      <path
         id="path8050"
         d="m 2503.1056,-7169.6816 h 7.0866 l 3.5433,10.6299 -3.5433,10.6299 h -7.0866 v -10.6299 z"
         style="fill:#f5c400;fill-opacity:0.392157;stroke:none" />
      <path
         style="fill:#f5c400;fill-opacity:0.392157;stroke:none"
         d="m 2485.389,-7169.6816 h -3.5432 l -3.5433,10.6299 3.5433,10.6299 h 3.5432 v -10.6299 z"
         id="path8052" />
      <path
         style="fill:#f5c400;fill-opacity:0.392157;stroke:none"
         d="m 2517.2788,-7169.6816 h 28.3465 l 3.5433,10.6299 -3.5433,10.6299 h -28.3465 l -3.5433,-10.6299 z"
         id="path8054" />
      <path
         id="path8056"
         d="m 2552.7119,-7169.6816 h 28.3465 l 3.5433,10.6299 -3.5433,10.6299 h -28.3465 l -3.5433,-10.6299 z"
         style="fill:#f5c400;fill-opacity:0.392157;stroke:none" />
      <path
         id="path8058"
         d="m 2588.1449,-7169.6816 h 28.3465 l 3.5433,10.6299 -3.5433,10.6299 h -28.3465 l -3.5433,-10.6299 z"
         style="fill:#f5c400;fill-opacity:0.392157;stroke:none" />
      <path
         style="fill:#f5c400;fill-opacity:0.392157;stroke:none"
         d="m 2623.578,-7169.6816 h 17.7166 l -1e-4,10.6298 1e-4,10.63 h -17.7166 l -3.5433,-10.6299 z"
         id="path8060" />
      <path
         id="path8070"
         style="fill:none;stroke:#000000;stroke-width:1px;stroke-linecap:butt;stroke-linejoin:miter;stroke-opacity:1"
         d="m 2102.7119,-7183.8549 h 17.7165 v -21.2598 h 17.7165 v 21.2598 h 17.7166 v -21.2598 h 17.7165 v 21.2598 h 17.7165 v -21.2598 h 17.7165 v 21.2598 h 17.7166 v -21.2598 h 10.63 m 17.7165,21.2598 h 7.0866 v -21.2598 h 17.7165 v 21.2598 h 17.7166 v -21.2598 h 17.7165 v 21.2598 h 17.7165 v -21.2598 h 17.7165 v 21.2598 h 17.7166 v -21.2598 h 17.7165 l 1e-4,21.2598 h 17.7165 v -21.2598 h 17.7165 v 21.2598 h 17.7166 v -21.2598 h 17.7165 v 21.2598 h 17.7165 v -21.2598 h 10.6299 m 17.7166,21.2598 h 7.0866 v -21.2598 h 17.7165 l 1e-4,21.2598 h 17.7165 v -21.2598 h 17.7165 v 21.2598 h 17.7166 v -21.2598 h 17.7165 v 21.2598 h 17.7165 v -21.2598 h 17.7165 v 21.2598 h 7.0867" />
      <g
         aria-label="clkms"
         id="text8072"
         style="line-height:0%;font-family:Iwona;-inkscape-font-specification:Iwona;text-align:end;letter-spacing:0px;word-spacing:0px;text-anchor:end">
        <path
           d="m 2068.1842,-7196.2715 v -0.756 c -0.576,-0.81 -1.512,-1.296 -2.52,-1.296 -2.25,0 -3.762,1.692 -3.762,4.23 0,2.538 1.512,4.23 3.762,4.23 0.936,0 1.818,-0.468 2.34,-1.242 v -0.756 c -0.612,0.918 -1.242,1.242 -2.34,1.242 -1.296,0 -2.178,-1.386 -2.178,-3.474 0,-2.088 0.882,-3.474 2.178,-3.474 1.116,0 1.872,0.396 2.52,1.296 z"
           style="font-size:18px;line-height:1.25"
           id="path149" />
        <path
           d="m 2073.4581,-7190.6735 v -0.54 c -0.342,0.288 -0.738,0.522 -1.188,0.522 -0.666,0 -0.792,-0.828 -0.792,-1.602 v -10.35 h -1.404 v 10.35 c 0,1.206 0.468,2.43 1.53,2.43 0.684,0 1.332,-0.342 1.854,-0.81 z"
           style="font-size:18px;line-height:1.25"
           id="path151" />
        <path
           d="m 2082.2241,-7190.0435 -4.176,-4.806 4.032,-3.294 h -1.116 l -4.302,3.528 v -8.028 h -1.404 v 12.6 h 1.404 v -4.482 l 3.888,4.482 z"
           style="font-size:18px;line-height:1.25"
           id="path153" />
        <path
           d="m 2089.7284,-7186.4435 v -3.8025 c 0,-0.819 -0.4797,-1.5795 -1.2402,-1.5795 -0.6552,0 -1.2636,0.3393 -1.6146,0.8892 -0.1872,-0.5148 -0.5851,-0.8892 -1.1233,-0.8892 -0.6084,0 -1.0998,0.4212 -1.4976,0.8892 v -0.7722 h -0.9126 v 5.265 h 0.9126 v -4.1418 c 0.2808,-0.3627 0.6318,-0.702 1.0881,-0.702 0.4797,0 0.7371,0.5148 0.7371,1.0413 v 3.8025 h 0.9127 v -3.8025 c 0,-0.1404 -0.012,-0.2691 -0.035,-0.4095 0.2808,-0.3627 0.6669,-0.6318 1.1232,-0.6318 0.4797,0 0.7371,0.5148 0.7371,1.0413 v 3.8025 z"
           style="font-size:65.0009%;baseline-shift:sub"
           id="path155" />
        <path
           d="m 2095.0987,-7187.9411 c 0,-0.9243 -0.9828,-1.404 -1.9422,-1.638 -0.5616,-0.1404 -1.17,-0.3744 -1.17,-0.9243 0,-0.5031 0.5148,-0.8307 1.0764,-0.8307 0.6201,0 1.2402,0.1872 1.755,0.5265 v -0.4914 c -0.5148,-0.3393 -1.1349,-0.5265 -1.755,-0.5265 -1.0179,0 -1.9539,0.6201 -1.9539,1.5678 0,0.8541 0.9477,1.2519 1.8486,1.4742 0.6201,0.1521 1.2636,0.4797 1.2636,1.0764 0,0.5499 -0.5616,0.8892 -1.1583,0.8892 -0.7254,0 -1.4274,-0.1755 -2.0475,-0.5265 v 0.4914 c 0.6201,0.351 1.3221,0.5265 2.0475,0.5265 1.053,0 2.0358,-0.6318 2.0358,-1.6146 z"
           style="font-size:65.0009%;baseline-shift:sub"
           id="path157" />
      </g>
      <g
         aria-label="ms"
         id="text8078"
         style="line-height:0%;font-family:Iwona;-inkscape-font-specification:Iwona;text-align:end;letter-spacing:0px;word-spacing:0px;text-anchor:end">
        <path
           d="m 2086.5533,-7155.002 v -5.85 c 0,-1.26 -0.738,-2.43 -1.908,-2.43 -1.008,0 -1.944,0.522 -2.484,1.368 -0.288,-0.792 -0.9,-1.368 -1.728,-1.368 -0.936,0 -1.692,0.648 -2.304,1.368 v -1.188 h -1.404 v 8.1 h 1.404 v -6.372 c 0.432,-0.558 0.972,-1.08 1.674,-1.08 0.738,0 1.134,0.792 1.134,1.602 v 5.85 h 1.404 v -5.85 c 0,-0.216 -0.018,-0.414 -0.054,-0.63 0.432,-0.558 1.026,-0.972 1.728,-0.972 0.738,0 1.134,0.792 1.134,1.602 v 5.85 z"
           style="font-size:18px;line-height:1.25"
           id="path160" />
        <path
           d="m 2094.8153,-7157.306 c 0,-1.422 -1.512,-2.16 -2.988,-2.52 -0.864,-0.216 -1.8,-0.576 -1.8,-1.422 0,-0.774 0.792,-1.278 1.656,-1.278 0.954,0 1.908,0.288 2.7,0.81 v -0.756 c -0.792,-0.522 -1.746,-0.81 -2.7,-0.81 -1.566,0 -3.006,0.954 -3.006,2.412 0,1.314 1.458,1.926 2.844,2.268 0.954,0.234 1.944,0.738 1.944,1.656 0,0.846 -0.864,1.368 -1.782,1.368 -1.116,0 -2.196,-0.27 -3.15,-0.81 v 0.756 c 0.954,0.54 2.034,0.81 3.15,0.81 1.62,0 3.132,-0.972 3.132,-2.484 z"
           style="font-size:18px;line-height:1.25"
           id="path162" />
      </g>
      <g
         aria-label="0"
         id="text8082"
         style="line-height:0%;font-family:Iwona;-inkscape-font-specification:Iwona;letter-spacing:0px;word-spacing:0px">
        <path
           d="m 2113.0031,-7159.0522 c 0,-3.318 -1.022,-4.97 -3.066,-4.97 -2.044,0 -3.066,1.652 -3.066,4.97 0,3.318 1.022,4.97 3.066,4.97 2.044,0 3.066,-1.652 3.066,-4.97 z m -1.232,0 c 0,2.926 -0.616,4.382 -1.834,4.382 -1.218,0 -1.834,-1.456 -1.834,-4.382 0,-2.926 0.616,-4.382 1.834,-4.382 1.218,0 1.834,1.456 1.834,4.382 z"
           style="font-size:14px;line-height:1.25"
           id="path165" />
      </g>
      <g
         aria-label="1"
         id="text8086"
         style="line-height:0%;font-family:Iwona;-inkscape-font-specification:Iwona;letter-spacing:0px;word-spacing:0px">
        <path
           d="m 2135.6783,-7154.2222 v -9.66 h -0.812 c -0.77,0.882 -1.68,1.638 -2.688,2.226 v 0.588 c 0.854,-0.406 1.652,-0.882 2.408,-1.456 v 8.302 z"
           style="font-size:14px;line-height:1.25"
           id="path168" />
      </g>
      <g
         aria-label="3"
         id="text8090"
         style="line-height:0%;font-family:Iwona;-inkscape-font-specification:Iwona;letter-spacing:0px;word-spacing:0px">
        <path
           d="m 2208.5743,-7156.8822 c 0,-1.232 -0.868,-2.296 -2.072,-2.66 1.064,-0.308 1.722,-1.106 1.722,-2.17 0,-1.386 -1.12,-2.31 -2.8,-2.31 -0.91,0 -1.792,0.308 -2.506,0.868 v 0.588 c 0.714,-0.56 1.596,-0.868 2.506,-0.868 1.022,0 1.708,0.686 1.708,1.722 0,1.666 -0.77,2.1 -2.52,2.1 v 0.518 c 1.89,0 2.73,0.448 2.73,2.212 0,1.218 -0.784,2.212 -1.736,2.212 -1.064,0 -2.1,-0.308 -2.982,-0.868 v 0.588 c 0.882,0.56 1.918,0.868 2.982,0.868 1.624,0 2.968,-1.26 2.968,-2.8 z"
           style="font-size:14px;line-height:1.25"
           id="path171" />
      </g>
      <g
         aria-label="2"
         id="text8094"
         style="line-height:0%;font-family:Iwona;-inkscape-font-specification:Iwona;letter-spacing:0px;word-spacing:0px">
        <path
           d="m 2173.1415,-7154.1519 v -0.868 h -4.942 l 2.576,-2.548 c 1.148,-1.148 2.226,-2.492 2.226,-4.116 0,-1.372 -1.358,-2.268 -2.828,-2.268 -1.106,0 -2.156,0.504 -2.842,1.358 v 0.588 c 0.714,-0.826 1.75,-1.302 2.842,-1.302 0.938,0 1.736,0.7 1.736,1.624 0,1.386 -0.644,2.674 -1.596,3.668 l -3.122,3.206 v 0.658 z"
           style="font-size:14px;line-height:1.25"
           id="path174" />
      </g>
      <g
         aria-label="998"
         id="text8098"
         style="line-height:0%;font-family:Iwona;-inkscape-font-specification:Iwona;letter-spacing:0px;word-spacing:0px">
        <path
           d="m 2279.4405,-7159.0522 c 0,-3.472 -0.896,-4.97 -2.968,-4.97 -1.792,0 -2.982,1.316 -2.982,3.29 0,2.016 0.798,3.29 2.674,3.29 0.812,0 1.568,-0.378 2.044,-1.022 0,1.834 -0.462,3.794 -2.044,3.794 -0.714,0 -1.414,-0.238 -1.974,-0.686 v 0.588 c 0.56,0.448 1.26,0.686 1.974,0.686 2.198,0 3.276,-2.492 3.276,-4.97 z m -1.232,0 c -0.476,0.644 -1.232,1.022 -2.044,1.022 -1.12,0 -1.442,-1.4 -1.442,-2.702 0,-1.624 0.7,-2.702 1.75,-2.702 1.946,0 1.736,2.114 1.736,4.382 z"
           style="font-size:14px;line-height:1.25"
           id="path177" />
        <path
           d="m 2286.7905,-7159.0522 c 0,-3.472 -0.896,-4.97 -2.968,-4.97 -1.792,0 -2.982,1.316 -2.982,3.29 0,2.016 0.798,3.29 2.674,3.29 0.812,0 1.568,-0.378 2.044,-1.022 0,1.834 -0.462,3.794 -2.044,3.794 -0.714,0 -1.414,-0.238 -1.974,-0.686 v 0.588 c 0.56,0.448 1.26,0.686 1.974,0.686 2.198,0 3.276,-2.492 3.276,-4.97 z m -1.232,0 c -0.476,0.644 -1.232,1.022 -2.044,1.022 -1.12,0 -1.442,-1.4 -1.442,-2.702 0,-1.624 0.7,-2.702 1.75,-2.702 1.946,0 1.736,2.114 1.736,4.382 z"
           style="font-size:14px;line-height:1.25"
           id="path179" />
        <path
           d="m 2294.1405,-7156.9242 c 0,-1.316 -0.63,-2.254 -1.708,-2.646 0.91,-0.336 1.428,-1.092 1.428,-2.114 0,-1.456 -1.022,-2.338 -2.688,-2.338 -1.68,0 -2.702,0.882 -2.702,2.338 0,1.022 0.518,1.778 1.428,2.114 -1.078,0.392 -1.708,1.33 -1.708,2.646 0,1.764 1.134,2.842 2.982,2.842 1.834,0 2.968,-1.078 2.968,-2.842 z m -1.372,-4.76 c 0,1.078 -0.616,1.75 -1.596,1.75 -0.994,0 -1.61,-0.672 -1.61,-1.75 0,-1.092 0.616,-1.75 1.61,-1.75 0.98,0 1.596,0.658 1.596,1.75 z m 0.14,4.76 c 0,1.4 -0.658,2.254 -1.736,2.254 -1.092,0 -1.75,-0.854 -1.75,-2.254 0,-1.4 0.658,-2.254 1.75,-2.254 1.078,0 1.736,0.854 1.736,2.254 z"
           style="font-size:14px;line-height:1.25"
           id="path181" />
      </g>
      <g
         aria-label="999"
         id="text8102"
         style="line-height:0%;font-family:Iwona;-inkscape-font-specification:Iwona;letter-spacing:0px;word-spacing:0px">
        <path
           d="m 2314.8739,-7159.0522 c 0,-3.472 -0.896,-4.97 -2.968,-4.97 -1.792,0 -2.982,1.316 -2.982,3.29 0,2.016 0.798,3.29 2.674,3.29 0.812,0 1.568,-0.378 2.044,-1.022 0,1.834 -0.462,3.794 -2.044,3.794 -0.714,0 -1.414,-0.238 -1.974,-0.686 v 0.588 c 0.56,0.448 1.26,0.686 1.974,0.686 2.198,0 3.276,-2.492 3.276,-4.97 z m -1.232,0 c -0.476,0.644 -1.232,1.022 -2.044,1.022 -1.12,0 -1.442,-1.4 -1.442,-2.702 0,-1.624 0.7,-2.702 1.75,-2.702 1.946,0 1.736,2.114 1.736,4.382 z"
           style="font-size:14px;line-height:1.25"
           id="path184" />
        <path
           d="m 2322.2239,-7159.0522 c 0,-3.472 -0.896,-4.97 -2.968,-4.97 -1.792,0 -2.982,1.316 -2.982,3.29 0,2.016 0.798,3.29 2.674,3.29 0.812,0 1.568,-0.378 2.044,-1.022 0,1.834 -0.462,3.794 -2.044,3.794 -0.714,0 -1.414,-0.238 -1.974,-0.686 v 0.588 c 0.56,0.448 1.26,0.686 1.974,0.686 2.198,0 3.276,-2.492 3.276,-4.97 z m -1.232,0 c -0.476,0.644 -1.232,1.022 -2.044,1.022 -1.12,0 -1.442,-1.4 -1.442,-2.702 0,-1.624 0.7,-2.702 1.75,-2.702 1.946,0 1.736,2.114 1.736,4.382 z"
           style="font-size:14px;line-height:1.25"
           id="path186" />
        <path
           d="m 2329.5739,-7159.0522 c 0,-3.472 -0.896,-4.97 -2.968,-4.97 -1.792,0 -2.982,1.316 -2.982,3.29 0,2.016 0.798,3.29 2.674,3.29 0.812,0 1.568,-0.378 2.044,-1.022 0,1.834 -0.462,3.794 -2.044,3.794 -0.714,0 -1.414,-0.238 -1.974,-0.686 v 0.588 c 0.56,0.448 1.26,0.686 1.974,0.686 2.198,0 3.276,-2.492 3.276,-4.97 z m -1.232,0 c -0.476,0.644 -1.232,1.022 -2.044,1.022 -1.12,0 -1.442,-1.4 -1.442,-2.702 0,-1.624 0.7,-2.702 1.75,-2.702 1.946,0 1.736,2.114 1.736,4.382 z"
           style="font-size:14px;line-height:1.25"
           id="path188" />
      </g>
      <g
         aria-label="1"
         id="text8106"
         style="line-height:0%;font-family:Iwona;-inkscape-font-specification:Iwona;letter-spacing:0px;word-spacing:0px">
        <path
           d="m 2383.7098,-7154.2222 v -9.66 h -0.812 c -0.77,0.882 -1.68,1.638 -2.688,2.226 v 0.588 c 0.854,-0.406 1.652,-0.882 2.408,-1.456 v 8.302 z"
           style="font-size:14px;line-height:1.25"
           id="path191" />
      </g>
      <g
         aria-label="0"
         id="text8110"
         style="line-height:0%;font-family:Iwona;-inkscape-font-specification:Iwona;letter-spacing:0px;word-spacing:0px">
        <path
           d="m 2364.5781,-7159.0522 c 0,-3.318 -1.022,-4.97 -3.066,-4.97 -2.044,0 -3.066,1.652 -3.066,4.97 0,3.318 1.022,4.97 3.066,4.97 2.044,0 3.066,-1.652 3.066,-4.97 z m -1.232,0 c 0,2.926 -0.616,4.382 -1.834,4.382 -1.218,0 -1.834,-1.456 -1.834,-4.382 0,-2.926 0.616,-4.382 1.834,-4.382 1.218,0 1.834,1.456 1.834,4.382 z"
           style="font-size:14px;line-height:1.25"
           id="path194" />
      </g>
      <g
         aria-label="2"
         id="text8114"
         style="line-height:0%;font-family:Iwona;-inkscape-font-specification:Iwona;letter-spacing:0px;word-spacing:0px">
        <path
           d="m 2421.1732,-7154.1519 v -0.868 h -4.942 l 2.576,-2.548 c 1.148,-1.148 2.226,-2.492 2.226,-4.116 0,-1.372 -1.358,-2.268 -2.828,-2.268 -1.106,0 -2.156,0.504 -2.842,1.358 v 0.588 c 0.714,-0.826 1.75,-1.302 2.842,-1.302 0.938,0 1.736,0.7 1.736,1.624 0,1.386 -0.644,2.674 -1.596,3.668 l -3.122,3.206 v 0.658 z"
           style="font-size:14px;line-height:1.25"
           id="path197" />
      </g>
      <g
         aria-label="3"
         id="text8118"
         style="line-height:0%;font-family:Iwona;-inkscape-font-specification:Iwona;letter-spacing:0px;word-spacing:0px">
        <path
           d="m 2456.6063,-7156.8822 c 0,-1.232 -0.868,-2.296 -2.072,-2.66 1.064,-0.308 1.722,-1.106 1.722,-2.17 0,-1.386 -1.12,-2.31 -2.8,-2.31 -0.91,0 -1.792,0.308 -2.506,0.868 v 0.588 c 0.714,-0.56 1.596,-0.868 2.506,-0.868 1.022,0 1.708,0.686 1.708,1.722 0,1.666 -0.77,2.1 -2.52,2.1 v 0.518 c 1.89,0 2.73,0.448 2.73,2.212 0,1.218 -0.784,2.212 -1.736,2.212 -1.064,0 -2.1,-0.308 -2.982,-0.868 v 0.588 c 0.882,0.56 1.918,0.868 2.982,0.868 1.624,0 2.968,-1.26 2.968,-2.8 z"
           style="font-size:14px;line-height:1.25"
           id="path200" />
      </g>
      <g
         aria-label="998"
         id="text8122"
         style="line-height:0%;font-family:Iwona;-inkscape-font-specification:Iwona;letter-spacing:0px;word-spacing:0px">
        <path
           d="m 2527.4723,-7159.0522 c 0,-3.472 -0.896,-4.97 -2.968,-4.97 -1.792,0 -2.982,1.316 -2.982,3.29 0,2.016 0.798,3.29 2.674,3.29 0.812,0 1.568,-0.378 2.044,-1.022 0,1.834 -0.462,3.794 -2.044,3.794 -0.714,0 -1.414,-0.238 -1.974,-0.686 v 0.588 c 0.56,0.448 1.26,0.686 1.974,0.686 2.198,0 3.276,-2.492 3.276,-4.97 z m -1.232,0 c -0.476,0.644 -1.232,1.022 -2.044,1.022 -1.12,0 -1.442,-1.4 -1.442,-2.702 0,-1.624 0.7,-2.702 1.75,-2.702 1.946,0 1.736,2.114 1.736,4.382 z"
           style="font-size:14px;line-height:1.25"
           id="path203" />
        <path
           d="m 2534.8223,-7159.0522 c 0,-3.472 -0.896,-4.97 -2.968,-4.97 -1.792,0 -2.982,1.316 -2.982,3.29 0,2.016 0.798,3.29 2.674,3.29 0.812,0 1.568,-0.378 2.044,-1.022 0,1.834 -0.462,3.794 -2.044,3.794 -0.714,0 -1.414,-0.238 -1.974,-0.686 v 0.588 c 0.56,0.448 1.26,0.686 1.974,0.686 2.198,0 3.276,-2.492 3.276,-4.97 z m -1.232,0 c -0.476,0.644 -1.232,1.022 -2.044,1.022 -1.12,0 -1.442,-1.4 -1.442,-2.702 0,-1.624 0.7,-2.702 1.75,-2.702 1.946,0 1.736,2.114 1.736,4.382 z"
           style="font-size:14px;line-height:1.25"
           id="path205" />
        <path
           d="m 2542.1723,-7156.9242 c 0,-1.316 -0.63,-2.254 -1.708,-2.646 0.91,-0.336 1.428,-1.092 1.428,-2.114 0,-1.456 -1.022,-2.338 -2.688,-2.338 -1.68,0 -2.702,0.882 -2.702,2.338 0,1.022 0.518,1.778 1.428,2.114 -1.078,0.392 -1.708,1.33 -1.708,2.646 0,1.764 1.134,2.842 2.982,2.842 1.834,0 2.968,-1.078 2.968,-2.842 z m -1.372,-4.76 c 0,1.078 -0.616,1.75 -1.596,1.75 -0.994,0 -1.61,-0.672 -1.61,-1.75 0,-1.092 0.616,-1.75 1.61,-1.75 0.98,0 1.596,0.658 1.596,1.75 z m 0.14,4.76 c 0,1.4 -0.658,2.254 -1.736,2.254 -1.092,0 -1.75,-0.854 -1.75,-2.254 0,-1.4 0.658,-2.254 1.75,-2.254 1.078,0 1.736,0.854 1.736,2.254 z"
           style="font-size:14px;line-height:1.25"
           id="path207" />
      </g>
      <g
         aria-label="0"
         id="text8126"
         style="line-height:0%;font-family:Iwona;-inkscape-font-specification:Iwona;letter-spacing:0px;word-spacing:0px">
        <path
           d="m 2598.4362,-7159.0522 c 0,-3.318 -1.022,-4.97 -3.066,-4.97 -2.044,0 -3.066,1.652 -3.066,4.97 0,3.318 1.022,4.97 3.066,4.97 2.044,0 3.066,-1.652 3.066,-4.97 z m -1.232,0 c 0,2.926 -0.616,4.382 -1.834,4.382 -1.218,0 -1.834,-1.456 -1.834,-4.382 0,-2.926 0.616,-4.382 1.834,-4.382 1.218,0 1.834,1.456 1.834,4.382 z"
           style="font-size:14px;line-height:1.25"
           id="path210" />
      </g>
      <g
         aria-label="999"
         id="text8130"
         style="line-height:0%;font-family:Iwona;-inkscape-font-specification:Iwona;letter-spacing:0px;word-spacing:0px">
        <path
           d="m 2562.9054,-7159.0522 c 0,-3.472 -0.896,-4.97 -2.968,-4.97 -1.792,0 -2.982,1.316 -2.982,3.29 0,2.016 0.798,3.29 2.674,3.29 0.812,0 1.568,-0.378 2.044,-1.022 0,1.834 -0.462,3.794 -2.044,3.794 -0.714,0 -1.414,-0.238 -1.974,-0.686 v 0.588 c 0.56,0.448 1.26,0.686 1.974,0.686 2.198,0 3.276,-2.492 3.276,-4.97 z m -1.232,0 c -0.476,0.644 -1.232,1.022 -2.044,1.022 -1.12,0 -1.442,-1.4 -1.442,-2.702 0,-1.624 0.7,-2.702 1.75,-2.702 1.946,0 1.736,2.114 1.736,4.382 z"
           style="font-size:14px;line-height:1.25"
           id="path213" />
        <path
           d="m 2570.2554,-7159.0522 c 0,-3.472 -0.896,-4.97 -2.968,-4.97 -1.792,0 -2.982,1.316 -2.982,3.29 0,2.016 0.798,3.29 2.674,3.29 0.812,0 1.568,-0.378 2.044,-1.022 0,1.834 -0.462,3.794 -2.044,3.794 -0.714,0 -1.414,-0.238 -1.974,-0.686 v 0.588 c 0.56,0.448 1.26,0.686 1.974,0.686 2.198,0 3.276,-2.492 3.276,-4.97 z m -1.232,0 c -0.476,0.644 -1.232,1.022 -2.044,1.022 -1.12,0 -1.442,-1.4 -1.442,-2.702 0,-1.624 0.7,-2.702 1.75,-2.702 1.946,0 1.736,2.114 1.736,4.382 z"
           style="font-size:14px;line-height:1.25"
           id="path215" />
        <path
           d="m 2577.6054,-7159.0522 c 0,-3.472 -0.896,-4.97 -2.968,-4.97 -1.792,0 -2.982,1.316 -2.982,3.29 0,2.016 0.798,3.29 2.674,3.29 0.812,0 1.568,-0.378 2.044,-1.022 0,1.834 -0.462,3.794 -2.044,3.794 -0.714,0 -1.414,-0.238 -1.974,-0.686 v 0.588 c 0.56,0.448 1.26,0.686 1.974,0.686 2.198,0 3.276,-2.492 3.276,-4.97 z m -1.232,0 c -0.476,0.644 -1.232,1.022 -2.044,1.022 -1.12,0 -1.442,-1.4 -1.442,-2.702 0,-1.624 0.7,-2.702 1.75,-2.702 1.946,0 1.736,2.114 1.736,4.382 z"
           style="font-size:14px;line-height:1.25"
           id="path217" />
      </g>
      <g
         aria-label="1"
         id="text8134"
         style="line-height:0%;font-family:Iwona;-inkscape-font-specification:Iwona;letter-spacing:0px;word-spacing:0px">
        <path
           d="m 2631.7413,-7154.2222 v -9.66 h -0.812 c -0.77,0.882 -1.68,1.638 -2.688,2.226 v 0.588 c 0.854,-0.406 1.652,-0.882 2.408,-1.456 v 8.302 z"
           style="font-size:14px;line-height:1.25"
           id="path220" />
      </g>
      <path
         d="m 2102.7119,-7169.6816 h 17.7165 l 7.0866,21.2598 h 28.3465 l 7.0866,-21.2598 h 28.3465 l 7.0866,21.2598 h 28.3465 l 7.0866,-21.2598 h 3.5433 m 17.7165,0 h 7.0866 l 7.0866,21.2598 h 28.3465 l 7.0866,-21.2598 h 28.3465 l 7.0866,21.2598 h 28.3465 l 7.0866,-21.2598 h 28.3464 l 7.0866,21.2598 h 28.3465 l 7.0866,-21.2598 h 28.3465 l 7.0866,21.2598 h 3.5432 m 17.7166,0 h 7.0867 l 7.0866,-21.2598 h 28.3464 l 7.0866,21.2598 h 28.3465 l 7.0866,-21.2598 h 28.3465 l 7.0866,21.2598 h 17.7165 m -538.5827,0 h 17.7165 l 7.0866,-21.2598 h 28.3465 l 7.0866,21.2598 h 28.3465 l 7.0866,-21.2598 h 28.3465 l 7.0866,21.2598 h 3.5433 m 17.7165,0 h 7.0866 l 7.0866,-21.2598 h 28.3465 l 7.0866,21.2598 h 28.3465 l 7.0866,-21.2598 h 28.3465 l 7.0866,21.2598 h 28.3464 l 7.0866,-21.2598 h 28.3465 l 7.0866,21.2598 h 28.3465 l 7.0866,-21.2598 h 3.5432 m 17.7166,0 h 7.0867 l 7.0866,21.2598 h 28.3464 l 7.0866,-21.2598 h 28.3465 l 7.0866,21.2598 h 28.3465 l 7.0866,-21.2598 h 17.7165"
         style="fill:none;stroke:#000000;stroke-width:1px;stroke-linecap:butt;stroke-linejoin:miter;stroke-opacity:1"
         id="path8138" />
      <g
         aria-label="ensec"
         id="text8170"
         style="line-height:0%;font-family:Iwona;-inkscape-font-specification:Iwona;text-align:end;letter-spacing:0px;word-spacing:0px;text-anchor:end">
        <path
           d="m 2069.6241,-7123.0472 v -0.18 c 0,-2.538 -1.386,-4.23 -3.474,-4.23 -2.106,0 -3.492,1.692 -3.492,4.23 0,2.538 1.386,4.23 3.492,4.23 0.9,0 1.782,-0.288 2.52,-0.81 v -0.756 c -0.846,0.54 -1.53,0.738 -2.52,0.738 -1.53,0 -1.908,-1.458 -1.908,-3.222 z m -1.584,-0.756 h -3.798 c 0,-1.44 0.612,-2.898 1.908,-2.898 1.278,0 1.89,1.458 1.89,2.898 z"
           style="font-size:18px;line-height:1.25"
           id="path223" />
        <path
           d="m 2078.4801,-7119.1772 v -5.85 c 0,-1.314 -1.008,-2.43 -2.304,-2.43 -1.08,0 -2.034,0.612 -2.808,1.368 v -1.188 h -1.404 v 8.1 h 1.404 v -6.354 c 0.612,-0.612 1.368,-1.098 2.214,-1.098 0.846,0 1.494,0.738 1.494,1.602 v 5.85 z"
           style="font-size:18px;line-height:1.25"
           id="path225" />
        <path
           d="m 2084.3229,-7117.0749 c 0,-0.9243 -0.9828,-1.404 -1.9422,-1.638 -0.5616,-0.1404 -1.17,-0.3744 -1.17,-0.9243 0,-0.5031 0.5148,-0.8307 1.0764,-0.8307 0.6201,0 1.2402,0.1872 1.755,0.5265 v -0.4914 c -0.5148,-0.3393 -1.1349,-0.5265 -1.755,-0.5265 -1.0179,0 -1.9539,0.6201 -1.9539,1.5678 0,0.8541 0.9477,1.2519 1.8486,1.4742 0.6201,0.1521 1.2636,0.4797 1.2636,1.0764 0,0.5499 -0.5616,0.8892 -1.1583,0.8892 -0.7254,0 -1.4274,-0.1755 -2.0475,-0.5265 v 0.4914 c 0.6201,0.3511 1.3221,0.5266 2.0475,0.5266 1.053,0 2.0358,-0.6319 2.0358,-1.6147 z"
           style="font-size:65.0009%;baseline-shift:sub"
           id="path227" />
        <path
           d="m 2090.0209,-7118.0928 v -0.117 c 0,-1.6497 -0.9009,-2.7495 -2.2581,-2.7495 -1.369,0 -2.2699,1.0998 -2.2699,2.7495 0,1.6497 0.9009,2.7496 2.2699,2.7496 0.585,0 1.1583,-0.1872 1.638,-0.5266 v -0.4914 c -0.5499,0.351 -0.9945,0.4797 -1.638,0.4797 -0.9946,0 -1.2403,-0.9477 -1.2403,-2.0943 z m -1.0296,-0.4914 h -2.4688 c 0,-0.936 0.3979,-1.8837 1.2403,-1.8837 0.8307,0 1.2285,0.9477 1.2285,1.8837 z"
           style="font-size:65.0009%;baseline-shift:sub"
           id="path229" />
        <path
           d="m 2095.3328,-7119.6255 v -0.4914 c -0.3745,-0.5265 -0.9829,-0.8424 -1.6381,-0.8424 -1.4625,0 -2.4453,1.0998 -2.4453,2.7495 0,1.6497 0.9828,2.7496 2.4453,2.7496 0.6084,0 1.1817,-0.3042 1.5211,-0.8074 v -0.4914 c -0.3979,0.5967 -0.8074,0.8073 -1.5211,0.8073 -0.8424,0 -1.4157,-0.9009 -1.4157,-2.2581 0,-1.3572 0.5733,-2.2581 1.4157,-2.2581 0.7254,0 1.2168,0.2574 1.6381,0.8424 z"
           style="font-size:65.0009%;baseline-shift:sub"
           id="path231" />
      </g>
      <g
         aria-label="1 ms"
         id="text8176"
         style="line-height:0%;font-family:Iwona;-inkscape-font-specification:Sans;text-align:center;letter-spacing:0px;word-spacing:0px;text-anchor:middle;display:inline">
        <path
           d="m 2165.6102,-7219.2881 v -8.28 h -0.696 c -0.66,0.756 -1.44,1.404 -2.304,1.908 v 0.504 c 0.732,-0.348 1.416,-0.756 2.064,-1.248 v 7.116 z"
           style="font-size:12px;line-height:1.25"
           id="path234" />
        <path
           d="m 2179.4581,-7219.2881 v -3.9 c 0,-0.84 -0.492,-1.62 -1.272,-1.62 -0.672,0 -1.296,0.348 -1.656,0.912 -0.192,-0.528 -0.6,-0.912 -1.152,-0.912 -0.624,0 -1.128,0.432 -1.536,0.912 v -0.792 h -0.936 v 5.4 h 0.936 v -4.248 c 0.288,-0.372 0.648,-0.72 1.116,-0.72 0.492,0 0.756,0.528 0.756,1.068 v 3.9 h 0.936 v -3.9 c 0,-0.144 -0.012,-0.276 -0.036,-0.42 0.288,-0.372 0.684,-0.648 1.152,-0.648 0.492,0 0.756,0.528 0.756,1.068 v 3.9 z"
           style="font-size:12px;line-height:1.25"
           id="path236" />
        <path
           d="m 2184.9661,-7220.8241 c 0,-0.948 -1.008,-1.44 -1.992,-1.68 -0.576,-0.144 -1.2,-0.384 -1.2,-0.948 0,-0.516 0.528,-0.852 1.104,-0.852 0.636,0 1.272,0.192 1.8,0.54 v -0.504 c -0.528,-0.348 -1.164,-0.54 -1.8,-0.54 -1.044,0 -2.004,0.636 -2.004,1.608 0,0.876 0.972,1.284 1.896,1.512 0.636,0.156 1.296,0.492 1.296,1.104 0,0.564 -0.576,0.912 -1.188,0.912 -0.744,0 -1.464,-0.18 -2.1,-0.54 v 0.504 c 0.636,0.36 1.356,0.54 2.1,0.54 1.08,0 2.088,-0.648 2.088,-1.656 z"
           style="font-size:12px;line-height:1.25"
           id="path238" />
      </g>
      <path
         style="display:inline;fill:none;stroke:#000000;stroke-width:0.999213;stroke-linecap:butt;stroke-linejoin:miter;stroke-miterlimit:4;stroke-dasharray:none;stroke-opacity:1;marker-start:url(#marker10185-38);marker-end:url(#marker9715)"
         d="m 2156.1368,-7212.2013 h 35.4331"
         id="path8180" />
      <g
         aria-label="1 s"
         id="text8182"
         style="line-height:0%;font-family:Iwona;-inkscape-font-specification:Sans;text-align:center;letter-spacing:0px;word-spacing:0px;text-anchor:middle;display:inline">
        <path
           d="m 2460.1614,-7127.1621 v -8.28 h -0.696 c -0.66,0.756 -1.44,1.404 -2.304,1.908 v 0.504 c 0.732,-0.348 1.416,-0.756 2.064,-1.248 v 7.116 z"
           style="font-size:12px;line-height:1.25"
           id="path241" />
        <path
           d="m 2471.1053,-7128.6981 c 0,-0.948 -1.008,-1.44 -1.992,-1.68 -0.576,-0.144 -1.2,-0.384 -1.2,-0.948 0,-0.516 0.528,-0.852 1.104,-0.852 0.636,0 1.272,0.192 1.8,0.54 v -0.504 c -0.528,-0.348 -1.164,-0.54 -1.8,-0.54 -1.044,0 -2.004,0.636 -2.004,1.608 0,0.876 0.972,1.284 1.896,1.512 0.636,0.156 1.296,0.492 1.296,1.104 0,0.564 -0.576,0.912 -1.188,0.912 -0.744,0 -1.464,-0.18 -2.1,-0.54 v 0.504 c 0.636,0.36 1.356,0.54 2.1,0.54 1.08,0 2.088,-0.648 2.088,-1.656 z"
           style="font-size:12px;line-height:1.25"
           id="path243" />
      </g>
      <g
         aria-label="sec"
         id="text8192"
         style="line-height:0%;font-family:Iwona;-inkscape-font-specification:Iwona;text-align:end;letter-spacing:0px;word-spacing:0px;text-anchor:end">
        <path
           d="m 2078.2373,-7086.4397 c 0,-1.422 -1.512,-2.16 -2.988,-2.52 -0.864,-0.216 -1.8,-0.576 -1.8,-1.422 0,-0.774 0.792,-1.278 1.656,-1.278 0.954,0 1.908,0.288 2.7,0.81 v -0.756 c -0.792,-0.522 -1.746,-0.81 -2.7,-0.81 -1.566,0 -3.006,0.954 -3.006,2.412 0,1.314 1.458,1.926 2.844,2.268 0.954,0.234 1.944,0.738 1.944,1.656 0,0.846 -0.864,1.368 -1.782,1.368 -1.116,0 -2.196,-0.27 -3.15,-0.81 v 0.756 c 0.954,0.54 2.034,0.81 3.15,0.81 1.62,0 3.132,-0.972 3.132,-2.484 z"
           style="font-size:18px;line-height:1.25"
           id="path246" />
        <path
           d="m 2087.0033,-7088.0057 v -0.18 c 0,-2.538 -1.386,-4.23 -3.474,-4.23 -2.106,0 -3.492,1.692 -3.492,4.23 0,2.538 1.386,4.23 3.492,4.23 0.9,0 1.782,-0.288 2.52,-0.81 v -0.756 c -0.846,0.54 -1.53,0.738 -2.52,0.738 -1.53,0 -1.908,-1.458 -1.908,-3.222 z m -1.584,-0.756 h -3.798 c 0,-1.44 0.612,-2.898 1.908,-2.898 1.278,0 1.89,1.458 1.89,2.898 z"
           style="font-size:18px;line-height:1.25"
           id="path248" />
        <path
           d="m 2095.1753,-7090.3637 v -0.756 c -0.576,-0.81 -1.512,-1.296 -2.52,-1.296 -2.25,0 -3.762,1.692 -3.762,4.23 0,2.538 1.512,4.23 3.762,4.23 0.936,0 1.818,-0.468 2.34,-1.242 v -0.756 c -0.612,0.918 -1.242,1.242 -2.34,1.242 -1.296,0 -2.178,-1.386 -2.178,-3.474 0,-2.088 0.882,-3.474 2.178,-3.474 1.116,0 1.872,0.396 2.52,1.296 z"
           style="font-size:18px;line-height:1.25"
           id="path250" />
      </g>
      <path
         d="m 2102.7119,-7098.8155 h 230.315 l 7.0866,21.2598 h 240.9449 l 7.0866,-21.2598 h 53.1496 m -538.5827,21.2598 h 230.315 l 7.0866,-21.2598 h 240.9449 l 7.0866,21.2598 h 53.1496"
         style="fill:none;stroke:#000000;stroke-width:1px;stroke-linecap:butt;stroke-linejoin:miter;stroke-opacity:1"
         id="path8196" />
      <g
         aria-label="58"
         id="text8198"
         style="line-height:0%;font-family:Iwona;-inkscape-font-specification:Iwona;letter-spacing:0px;word-spacing:0px">
        <path
           d="m 2297.1571,-7086.506 c 0,-1.974 -1.19,-3.29 -2.968,-3.29 -0.812,0 -1.568,0.308 -2.156,0.826 l 0.14,-3.178 h 4.704 v -0.868 h -5.25 l -0.21,4.83 0.588,0.028 c 0.532,-0.658 1.33,-1.05 2.184,-1.05 1.036,0 1.736,1.078 1.736,2.702 0,1.624 -0.7,2.702 -1.736,2.702 -1.078,0 -2.128,-0.35 -2.982,-1.008 v 0.588 c 0.854,0.658 1.904,1.008 2.982,1.008 1.778,0 2.968,-1.316 2.968,-3.29 z"
           style="font-size:14px;line-height:1.25"
           id="path253" />
        <path
           d="m 2304.5071,-7086.058 c 0,-1.316 -0.63,-2.254 -1.708,-2.646 0.91,-0.336 1.428,-1.092 1.428,-2.114 0,-1.456 -1.022,-2.338 -2.688,-2.338 -1.68,0 -2.702,0.882 -2.702,2.338 0,1.022 0.518,1.778 1.428,2.114 -1.078,0.392 -1.708,1.33 -1.708,2.646 0,1.764 1.134,2.842 2.982,2.842 1.834,0 2.968,-1.078 2.968,-2.842 z m -1.372,-4.76 c 0,1.078 -0.616,1.75 -1.596,1.75 -0.994,0 -1.61,-0.672 -1.61,-1.75 0,-1.092 0.616,-1.75 1.61,-1.75 0.98,0 1.596,0.658 1.596,1.75 z m 0.14,4.76 c 0,1.4 -0.658,2.254 -1.736,2.254 -1.092,0 -1.75,-0.854 -1.75,-2.254 0,-1.4 0.658,-2.254 1.75,-2.254 1.078,0 1.736,0.854 1.736,2.254 z"
           style="font-size:14px;line-height:1.25"
           id="path255" />
      </g>
      <g
         aria-label="59"
         id="text8202"
         style="line-height:0%;font-family:Iwona;-inkscape-font-specification:Iwona;letter-spacing:0px;word-spacing:0px">
        <path
           d="m 2357.3934,-7086.506 c 0,-1.974 -1.19,-3.29 -2.968,-3.29 -0.812,0 -1.568,0.308 -2.156,0.826 l 0.14,-3.178 h 4.704 v -0.868 h -5.25 l -0.21,4.83 0.588,0.028 c 0.532,-0.658 1.33,-1.05 2.184,-1.05 1.036,0 1.736,1.078 1.736,2.702 0,1.624 -0.7,2.702 -1.736,2.702 -1.078,0 -2.128,-0.35 -2.982,-1.008 v 0.588 c 0.854,0.658 1.904,1.008 2.982,1.008 1.778,0 2.968,-1.316 2.968,-3.29 z"
           style="font-size:14px;line-height:1.25"
           id="path258" />
        <path
           d="m 2364.7434,-7088.186 c 0,-3.472 -0.896,-4.97 -2.968,-4.97 -1.792,0 -2.982,1.316 -2.982,3.29 0,2.016 0.798,3.29 2.674,3.29 0.812,0 1.568,-0.378 2.044,-1.022 0,1.834 -0.462,3.794 -2.044,3.794 -0.714,0 -1.414,-0.238 -1.974,-0.686 v 0.588 c 0.56,0.448 1.26,0.686 1.974,0.686 2.198,0 3.276,-2.492 3.276,-4.97 z m -1.232,0 c -0.476,0.644 -1.232,1.022 -2.044,1.022 -1.12,0 -1.442,-1.4 -1.442,-2.702 0,-1.624 0.7,-2.702 1.75,-2.702 1.946,0 1.736,2.114 1.736,4.382 z"
           style="font-size:14px;line-height:1.25"
           id="path260" />
      </g>
      <g
         aria-label="0"
         id="text8206"
         style="line-height:0%;font-family:Iwona;-inkscape-font-specification:Iwona;letter-spacing:0px;word-spacing:0px">
        <path
           d="m 2605.5229,-7088.186 c 0,-3.318 -1.022,-4.97 -3.066,-4.97 -2.044,0 -3.066,1.652 -3.066,4.97 0,3.318 1.022,4.97 3.066,4.97 2.044,0 3.066,-1.652 3.066,-4.97 z m -1.232,0 c 0,2.926 -0.616,4.382 -1.834,4.382 -1.218,0 -1.834,-1.456 -1.834,-4.382 0,-2.926 0.616,-4.382 1.834,-4.382 1.218,0 1.834,1.456 1.834,4.382 z"
           style="font-size:14px;line-height:1.25"
           id="path263" />
      </g>
      <path
         style="fill:#f5c400;fill-opacity:0.392157;stroke:#000000;stroke-width:1px;stroke-linecap:butt;stroke-linejoin:miter;stroke-opacity:1"
         d="m 2102.7119,-7042.1226 h 450.0001 l 7.0866,-21.2598 h 24.8031 l 7.0866,21.2598 49.6063,10e-5"
         id="path8214" />
      <g
         aria-label="enmin"
         id="text8228"
         style="line-height:0%;font-family:Iwona;-inkscape-font-specification:Iwona;text-align:end;letter-spacing:0px;word-spacing:0px;text-anchor:end">
        <path
           d="m 2067.8574,-7053.0795 v -0.18 c 0,-2.538 -1.386,-4.23 -3.474,-4.23 -2.106,0 -3.492,1.692 -3.492,4.23 0,2.538 1.386,4.23 3.492,4.23 0.9,0 1.782,-0.288 2.52,-0.81 v -0.756 c -0.846,0.54 -1.53,0.738 -2.52,0.738 -1.53,0 -1.908,-1.458 -1.908,-3.222 z m -1.584,-0.756 h -3.798 c 0,-1.44 0.612,-2.898 1.908,-2.898 1.278,0 1.89,1.458 1.89,2.898 z"
           style="font-size:18px;line-height:1.25"
           id="path266" />
        <path
           d="m 2076.7134,-7049.2095 v -5.85 c 0,-1.314 -1.008,-2.43 -2.304,-2.43 -1.08,0 -2.034,0.612 -2.808,1.368 v -1.188 h -1.404 v 8.1 h 1.404 v -6.354 c 0.612,-0.612 1.368,-1.098 2.214,-1.098 0.846,0 1.494,0.738 1.494,1.602 v 5.85 z"
           style="font-size:18px;line-height:1.25"
           id="path268" />
        <path
           d="m 2085.3877,-7045.6095 v -3.8025 c 0,-0.819 -0.4798,-1.5795 -1.2403,-1.5795 -0.6552,0 -1.2636,0.3393 -1.6146,0.8892 -0.1872,-0.5148 -0.585,-0.8892 -1.1232,-0.8892 -0.6084,0 -1.0998,0.4212 -1.4976,0.8892 v -0.7722 h -0.9126 v 5.265 h 0.9126 v -4.1418 c 0.2808,-0.3627 0.6318,-0.702 1.0881,-0.702 0.4797,0 0.7371,0.5148 0.7371,1.0413 v 3.8025 h 0.9126 v -3.8025 c 0,-0.1404 -0.012,-0.2691 -0.035,-0.4095 0.2808,-0.3627 0.6669,-0.6318 1.1232,-0.6318 0.4797,0 0.7371,0.5148 0.7371,1.0413 v 3.8025 z"
           style="font-size:65.0009%;baseline-shift:sub"
           id="path270" />
        <path
           d="m 2089.3423,-7046.019 v -0.351 c -0.2223,0.1872 -0.4797,0.3393 -0.7722,0.3393 -0.4329,0 -0.5148,-0.5382 -0.5148,-1.0413 v -3.8025 h -0.9126 v 3.8025 c 0,0.7839 0.3042,1.5795 0.9945,1.5795 0.4446,0 0.8658,-0.2223 1.2051,-0.5265 z m -1.17,-6.6808 c 0,-0.3159 -0.2574,-0.5733 -0.5733,-0.5733 -0.3159,0 -0.5733,0.2574 -0.5733,0.5733 0,0.3159 0.2574,0.5733 0.5733,0.5733 0.3159,0 0.5733,-0.2574 0.5733,-0.5733 z"
           style="font-size:65.0009%;baseline-shift:sub"
           id="path272" />
        <path
           d="m 2094.7478,-7045.6095 v -3.8025 c 0,-0.8541 -0.6553,-1.5795 -1.4977,-1.5795 -0.702,0 -1.3221,0.3978 -1.8252,0.8892 v -0.7722 h -0.9126 v 5.265 h 0.9126 v -4.1301 c 0.3978,-0.3978 0.8892,-0.7137 1.4391,-0.7137 0.5499,0 0.9711,0.4797 0.9711,1.0413 v 3.8025 z"
           style="font-size:65.0009%;baseline-shift:sub"
           id="path274" />
      </g>
      <path
         id="path8236"
         d="m 2102.7119,-7027.9494 h 478.3465 l 3.5433,10.6299 -3.5433,10.6299 h -478.3465 l 1e-4,-10.6298 z"
         style="fill:#f5c400;fill-opacity:0.392157;stroke:none" />
      <path
         style="fill:#f5c400;fill-opacity:0.392157;stroke:none"
         d="m 2588.145,-7027.9494 h 53.1496 v 10.6299 10.6299 h -53.1496 l -3.5432,-10.6299 z"
         id="path8238" />
      <g
         aria-label="min"
         id="text8240"
         style="line-height:0%;font-family:Iwona;-inkscape-font-specification:Iwona;text-align:end;letter-spacing:0px;word-spacing:0px;text-anchor:end">
        <path
           d="m 2079.8753,-7013.2695 v -5.85 c 0,-1.26 -0.738,-2.43 -1.908,-2.43 -1.008,0 -1.944,0.522 -2.484,1.368 -0.288,-0.792 -0.9,-1.368 -1.728,-1.368 -0.936,0 -1.692,0.648 -2.304,1.368 v -1.188 h -1.404 v 8.1 h 1.404 v -6.372 c 0.432,-0.558 0.972,-1.08 1.674,-1.08 0.738,0 1.134,0.792 1.134,1.602 v 5.85 h 1.404 v -5.85 c 0,-0.216 -0.018,-0.414 -0.054,-0.63 0.432,-0.558 1.026,-0.972 1.728,-0.972 0.738,0 1.134,0.792 1.134,1.602 v 5.85 z"
           style="font-size:18px;line-height:1.25"
           id="path277" />
        <path
           d="m 2085.9593,-7013.8995 v -0.54 c -0.342,0.288 -0.738,0.522 -1.188,0.522 -0.666,0 -0.792,-0.828 -0.792,-1.602 v -5.85 h -1.404 v 5.85 c 0,1.206 0.468,2.43 1.53,2.43 0.684,0 1.332,-0.342 1.854,-0.81 z m -1.8,-10.278 c 0,-0.486 -0.396,-0.882 -0.882,-0.882 -0.486,0 -0.882,0.396 -0.882,0.882 0,0.486 0.396,0.882 0.882,0.882 0.486,0 0.882,-0.396 0.882,-0.882 z"
           style="font-size:18px;line-height:1.25"
           id="path279" />
        <path
           d="m 2094.2753,-7013.2695 v -5.85 c 0,-1.314 -1.008,-2.43 -2.304,-2.43 -1.08,0 -2.034,0.612 -2.808,1.368 v -1.188 h -1.404 v 8.1 h 1.404 v -6.354 c 0.612,-0.612 1.368,-1.098 2.214,-1.098 0.846,0 1.494,0.738 1.494,1.602 v 5.85 z"
           style="font-size:18px;line-height:1.25"
           id="path281" />
      </g>
      <path
         id="path8244"
         style="fill:none;stroke:#000000;stroke-width:1px;stroke-linecap:butt;stroke-linejoin:miter;stroke-opacity:1"
         d="m 2102.7119,-7006.6896 h 478.3465 l 7.0866,-21.2598 h 53.1496 m -538.5827,0 h 478.3465 l 7.0866,21.2598 h 53.1496" />
      <g
         aria-label="59"
         id="text8246"
         style="line-height:0%;font-family:Iwona;-inkscape-font-specification:Iwona;letter-spacing:0px;word-spacing:0px">
        <path
           d="m 2297.1571,-7015.6397 c 0,-1.974 -1.19,-3.29 -2.968,-3.29 -0.812,0 -1.568,0.308 -2.156,0.826 l 0.14,-3.178 h 4.704 v -0.868 h -5.25 l -0.21,4.83 0.588,0.028 c 0.532,-0.658 1.33,-1.05 2.184,-1.05 1.036,0 1.736,1.078 1.736,2.702 0,1.624 -0.7,2.702 -1.736,2.702 -1.078,0 -2.128,-0.35 -2.982,-1.008 v 0.588 c 0.854,0.658 1.904,1.008 2.982,1.008 1.778,0 2.968,-1.316 2.968,-3.29 z"
           style="font-size:14px;line-height:1.25"
           id="path284" />
        <path
           d="m 2304.5071,-7017.3197 c 0,-3.472 -0.896,-4.97 -2.968,-4.97 -1.792,0 -2.982,1.316 -2.982,3.29 0,2.016 0.798,3.29 2.674,3.29 0.812,0 1.568,-0.378 2.044,-1.022 0,1.834 -0.462,3.794 -2.044,3.794 -0.714,0 -1.414,-0.238 -1.974,-0.686 v 0.588 c 0.56,0.448 1.26,0.686 1.974,0.686 2.198,0 3.276,-2.492 3.276,-4.97 z m -1.232,0 c -0.476,0.644 -1.232,1.022 -2.044,1.022 -1.12,0 -1.442,-1.4 -1.442,-2.702 0,-1.624 0.7,-2.702 1.75,-2.702 1.946,0 1.736,2.114 1.736,4.382 z"
           style="font-size:14px;line-height:1.25"
           id="path286" />
      </g>
      <g
         aria-label="0"
         id="text8250"
         style="line-height:0%;font-family:Iwona;-inkscape-font-specification:Iwona;letter-spacing:0px;word-spacing:0px">
        <path
           d="m 2612.6096,-7017.3197 c 0,-3.318 -1.022,-4.97 -3.066,-4.97 -2.044,0 -3.066,1.652 -3.066,4.97 0,3.318 1.022,4.97 3.066,4.97 2.044,0 3.066,-1.652 3.066,-4.97 z m -1.232,0 c 0,2.926 -0.616,4.382 -1.834,4.382 -1.218,0 -1.834,-1.456 -1.834,-4.382 0,-2.926 0.616,-4.382 1.834,-4.382 1.218,0 1.834,1.456 1.834,4.382 z"
           style="font-size:14px;line-height:1.25"
           id="path289" />
      </g>
      <g
         aria-label="enhr"
         id="text8258"
         style="line-height:0%;font-family:Iwona;-inkscape-font-specification:Iwona;text-align:end;letter-spacing:0px;word-spacing:0px;text-anchor:end">
        <path
           d="m 2075.287,-6982.2133 v -0.18 c 0,-2.538 -1.386,-4.23 -3.474,-4.23 -2.106,0 -3.492,1.692 -3.492,4.23 0,2.538 1.386,4.23 3.492,4.23 0.9,0 1.782,-0.288 2.52,-0.81 v -0.756 c -0.846,0.54 -1.53,0.738 -2.52,0.738 -1.53,0 -1.908,-1.458 -1.908,-3.222 z m -1.584,-0.756 h -3.798 c 0,-1.44 0.612,-2.898 1.908,-2.898 1.278,0 1.89,1.458 1.89,2.898 z"
           style="font-size:18px;line-height:1.25"
           id="path292" />
        <path
           d="m 2084.143,-6978.3433 v -5.85 c 0,-1.314 -1.008,-2.43 -2.304,-2.43 -1.08,0 -2.034,0.612 -2.808,1.368 v -1.188 h -1.404 v 8.1 h 1.404 v -6.354 c 0.612,-0.612 1.368,-1.098 2.214,-1.098 0.846,0 1.494,0.738 1.494,1.602 v 5.85 z"
           style="font-size:18px;line-height:1.25"
           id="path294" />
        <path
           d="m 2090.6644,-6974.7433 v -3.8025 c 0,-0.8541 -0.6552,-1.5795 -1.4976,-1.5795 -0.702,0 -1.3221,0.3978 -1.8252,0.8892 v -3.6973 h -0.9127 v 8.1901 h 0.9127 v -4.1301 c 0.3978,-0.3978 0.8892,-0.7137 1.4391,-0.7137 0.5499,0 0.9711,0.4797 0.9711,1.0413 v 3.8025 z"
           style="font-size:65.0009%;baseline-shift:sub"
           id="path296" />
        <path
           d="m 2095.3913,-6979.2829 v -0.7254 c -0.1287,-0.047 -0.2692,-0.082 -0.3979,-0.082 -0.6552,0 -1.1817,0.4563 -1.6029,0.9594 v -0.8775 h -0.9126 v 5.265 h 0.9126 v -3.8961 c 0.351,-0.4095 0.7956,-0.7605 1.3338,-0.7605 0.2223,0 0.4563,0.047 0.667,0.117 z"
           style="font-size:65.0009%;baseline-shift:sub"
           id="path298" />
      </g>
      <path
         id="path8268"
         d="m 2588.145,-6957.0832 h 53.1496 v 10.6299 10.6299 h -53.1496 l -3.5432,-10.6299 z"
         style="fill:#f5c400;fill-opacity:0.392157;stroke:none" />
      <g
         aria-label="hr"
         id="text8270"
         style="line-height:0%;font-family:Iwona;-inkscape-font-specification:Iwona;text-align:end;letter-spacing:0px;word-spacing:0px;text-anchor:end">
        <path
           d="m 2087.9933,-6942.4033 v -5.85 c 0,-1.314 -1.008,-2.43 -2.304,-2.43 -1.08,0 -2.034,0.612 -2.808,1.368 v -5.688 h -1.404 v 12.6 h 1.404 v -6.354 c 0.612,-0.612 1.368,-1.098 2.214,-1.098 0.846,0 1.494,0.738 1.494,1.602 v 5.85 z"
           style="font-size:18px;line-height:1.25"
           id="path301" />
        <path
           d="m 2095.2653,-6949.3873 v -1.116 c -0.198,-0.072 -0.414,-0.126 -0.612,-0.126 -1.008,0 -1.818,0.702 -2.466,1.476 v -1.35 h -1.404 v 8.1 h 1.404 v -5.994 c 0.54,-0.63 1.224,-1.17 2.052,-1.17 0.342,0 0.702,0.072 1.026,0.18 z"
           style="font-size:18px;line-height:1.25"
           id="path303" />
      </g>
      <path
         d="m 2102.7119,-6935.8234 h 478.3465 l 7.0866,-21.2598 h 53.1496 m -538.5827,0 h 478.3465 l 7.0866,21.2598 h 53.1496"
         style="fill:none;stroke:#000000;stroke-width:1px;stroke-linecap:butt;stroke-linejoin:miter;stroke-opacity:1"
         id="path8274" />
      <g
         aria-label="6"
         id="text8276"
         style="line-height:0%;font-family:Iwona;-inkscape-font-specification:Iwona;letter-spacing:0px;word-spacing:0px">
        <path
           d="m 2297.1571,-6944.7735 c 0,-2.016 -0.798,-3.29 -2.674,-3.29 -0.812,0 -1.568,0.378 -2.044,1.022 0,-1.834 0.462,-3.794 2.044,-3.794 0.714,0 1.414,0.238 1.974,0.686 v -0.588 c -0.56,-0.448 -1.26,-0.686 -1.974,-0.686 -2.198,0 -3.276,2.492 -3.276,4.97 0,3.472 0.896,4.97 2.982,4.97 1.778,0 2.968,-1.316 2.968,-3.29 z m -1.232,0 c 0,1.624 -0.7,2.702 -1.736,2.702 -1.96,0 -1.75,-2.114 -1.75,-4.382 0.476,-0.644 1.232,-1.022 2.044,-1.022 1.12,0 1.442,1.4 1.442,2.702 z"
           style="font-size:14px;line-height:1.25"
           id="path306" />
      </g>
      <g
         aria-label="7"
         id="text8280"
         style="line-height:0%;font-family:Iwona;-inkscape-font-specification:Iwona;letter-spacing:0px;word-spacing:0px">
        <path
           d="m 2619.598,-6950.8075 v -0.476 h -5.95 v 0.868 h 4.564 l -4.13,8.792 h 1.204 z"
           style="font-size:14px;line-height:1.25"
           id="path309" />
      </g>
      <path
         id="path8288"
         d="m 2591.6883,-6921.6502 h 49.6063 v 10.63 10.6299 h -56.6929 l 3.5433,-10.6299 z"
         style="fill:#f5c400;fill-opacity:0.392157;stroke:none" />
      <path
         style="fill:none;stroke:#000000;stroke-width:1px;stroke-linecap:butt;stroke-linejoin:miter;stroke-opacity:1"
         d="m 2102.7119,-6900.3903 h 481.8898 l 7.0866,-21.2598 h 49.6063"
         id="path8290" />
      <g
         aria-label="buzz"
         id="text8292"
         style="line-height:0%;font-family:Iwona;-inkscape-font-specification:Iwona;text-align:end;letter-spacing:0px;word-spacing:0px;text-anchor:end">
        <path
           d="m 2070.1373,-6911.5271 c 0,-2.394 -0.9,-4.23 -3.078,-4.23 -0.918,0 -1.764,0.414 -2.484,0.99 v -5.31 h -1.404 v 12.6 h 1.404 v -0.414 c 0.684,0.36 1.44,0.594 2.214,0.594 2.25,0 3.348,-1.8 3.348,-4.23 z m -1.584,0 c 0,1.692 -0.522,3.474 -1.998,3.474 -0.702,0 -1.386,-0.234 -1.98,-0.594 v -5.364 c 0.54,-0.54 1.206,-0.99 1.98,-0.99 1.638,0 1.998,1.584 1.998,3.474 z"
           style="font-size:18px;line-height:1.25"
           id="path312" />
        <path
           d="m 2078.9933,-6907.4771 v -8.1 h -1.404 v 6.354 c -0.612,0.612 -1.368,1.098 -2.214,1.098 -0.846,0 -1.494,-0.738 -1.494,-1.602 v -5.85 h -1.404 v 5.85 c 0,1.314 1.008,2.43 2.304,2.43 1.08,0 2.034,-0.612 2.808,-1.368 v 1.188 z"
           style="font-size:18px;line-height:1.25"
           id="path314" />
        <path
           d="m 2087.4893,-6907.4771 v -0.756 h -4.896 l 4.896,-6.66 v -0.684 h -6.336 v 0.756 h 4.716 l -4.896,6.66 v 0.684 z"
           style="font-size:18px;line-height:1.25"
           id="path316" />
        <path
           d="m 2095.0853,-6907.4771 v -0.756 h -4.896 l 4.896,-6.66 v -0.684 h -6.336 v 0.756 h 4.716 l -4.896,6.66 v 0.684 z"
           style="font-size:18px;line-height:1.25"
           id="path318" />
      </g>
      <path
         id="path8186"
         d="m 2343.6568,-7123.6187 h 240.9448"
         style="display:inline;fill:none;stroke:#000000;stroke-width:0.999213;stroke-linecap:butt;stroke-linejoin:miter;stroke-miterlimit:4;stroke-dasharray:none;stroke-opacity:1;marker-start:url(#marker10185-38);marker-end:url(#marker9715)" />
      <path
         style="display:inline;fill:#ff7f2a;fill-opacity:1;stroke:none"
         d="m 2584.6017,-7112.9886 v 7.0866 h 3.5433 l -7.0866,7.0866 -7.0866,-7.0866 h 3.5433 v -3.5433 z"
         id="path8507" />
      <path
         id="path8509"
         d="m 2584.6017,-7042.1225 v 7.0866 h 3.5433 l -7.0866,7.0866 -7.0866,-7.0866 h 3.5433 v -3.5433 z"
         style="display:inline;fill:#ff7f2a;fill-opacity:1;stroke:none" />
      <path
         style="display:inline;fill:#ff9955;fill-opacity:1;stroke:none"
         d="m 2584.6017,-6971.2564 v 7.0866 h 3.5433 l -7.0866,7.0866 -7.0866,-7.0866 h 3.5433 v -3.5433 z"
         id="path8511" />
      <path
         id="path8513"
         d="m 2584.6017,-6935.8233 v 7.0866 h 3.5433 l -7.0866,7.0866 -7.0866,-7.0866 h 3.5433 v -3.5433 z"
         style="display:inline;fill:#ff9955;fill-opacity:1;stroke:none" />
    </g>
  </g>
</svg>
