<?xml version="1.0" encoding="UTF-8" standalone="no"?>
<!-- Created with Inkscape (http://www.inkscape.org/) -->

<svg
   width="143.47914mm"
   height="44.232956mm"
   id="svg9806"
   version="1.1"
   viewBox="0 0 508.39066 156.73095"
   xmlns="http://www.w3.org/2000/svg"
   xmlns:svg="http://www.w3.org/2000/svg"
   xmlns:rdf="http://www.w3.org/1999/02/22-rdf-syntax-ns#"
   xmlns:cc="http://creativecommons.org/ns#"
   xmlns:dc="http://purl.org/dc/elements/1.1/">
  <defs
     id="defs9808">
    <marker
       style="overflow:visible"
       id="marker10197"
       refX="0"
       refY="0"
       orient="auto">
      <path
         transform="matrix(-0.4,0,0,-0.4,-4,0)"
         style="fill:#000000;fill-opacity:1;fill-rule:evenodd;stroke:#000000;stroke-width:1.00000003pt;stroke-opacity:1;marker-start:none"
         d="M 0,0 5,-5 -12.5,0 5,5 Z"
         id="path10199" />
    </marker>
  </defs>
  <metadata
     id="metadata9811">
    <rdf:RDF>
      <cc:Work
         rdf:about="">
        <dc:format>image/svg+xml</dc:format>
        <dc:type
           rdf:resource="http://purl.org/dc/dcmitype/StillImage" />
        <dc:title />
      </cc:Work>
    </rdf:RDF>
  </metadata>
  <g
     id="layer1"
     transform="translate(-111.38694,-134.64567)">
    <path
       id="path5473"
       d="m 481.88976,159.44883 v 74.40945"
       style="fill:none;stroke:#666666;stroke-width:1;stroke-linecap:butt;stroke-linejoin:miter;stroke-miterlimit:4;stroke-dasharray:1, 2;stroke-dashoffset:0;stroke-opacity:1" />
    <path
       style="fill:none;stroke:#666666;stroke-width:1;stroke-linecap:butt;stroke-linejoin:miter;stroke-miterlimit:4;stroke-dasharray:1, 2;stroke-dashoffset:0;stroke-opacity:1"
       d="m 488.97637,159.44883 v 74.40945"
       id="path5475" />
    <path
       style="fill:none;stroke:#666666;stroke-width:1;stroke-linecap:butt;stroke-linejoin:miter;stroke-miterlimit:4;stroke-dasharray:1, 2;stroke-dashoffset:0;stroke-opacity:1"
       d="m 520.86614,159.44883 v 74.40945"
       id="path5477" />
    <path
       id="path5479"
       d="m 527.95275,159.44883 v 74.40945"
       style="fill:none;stroke:#666666;stroke-width:1;stroke-linecap:butt;stroke-linejoin:miter;stroke-miterlimit:4;stroke-dasharray:1, 2;stroke-dashoffset:0;stroke-opacity:1" />
    <path
       style="fill:none;stroke:#666666;stroke-width:1;stroke-linecap:butt;stroke-linejoin:miter;stroke-miterlimit:4;stroke-dasharray:1, 2;stroke-dashoffset:0;stroke-opacity:1"
       d="m 400.3937,159.44883 v 74.40945"
       id="path5465" />
    <path
       id="path5467"
       d="m 407.48031,159.44883 v 74.40945"
       style="fill:none;stroke:#666666;stroke-width:1;stroke-linecap:butt;stroke-linejoin:miter;stroke-miterlimit:4;stroke-dasharray:1, 2;stroke-dashoffset:0;stroke-opacity:1" />
    <path
       id="path5469"
       d="m 439.37008,159.44883 v 74.40945"
       style="fill:none;stroke:#666666;stroke-width:1;stroke-linecap:butt;stroke-linejoin:miter;stroke-miterlimit:4;stroke-dasharray:1, 2;stroke-dashoffset:0;stroke-opacity:1" />
    <path
       style="fill:none;stroke:#666666;stroke-width:1;stroke-linecap:butt;stroke-linejoin:miter;stroke-miterlimit:4;stroke-dasharray:1, 2;stroke-dashoffset:0;stroke-opacity:1"
       d="m 446.45669,159.44883 v 74.40945"
       id="path5471" />
    <path
       id="path5457"
       d="m 322.44094,159.44883 v 74.40945"
       style="fill:none;stroke:#666666;stroke-width:1;stroke-linecap:butt;stroke-linejoin:miter;stroke-miterlimit:4;stroke-dasharray:1, 2;stroke-dashoffset:0;stroke-opacity:1" />
    <path
       style="fill:none;stroke:#666666;stroke-width:1;stroke-linecap:butt;stroke-linejoin:miter;stroke-miterlimit:4;stroke-dasharray:1, 2;stroke-dashoffset:0;stroke-opacity:1"
       d="m 329.52755,159.44883 v 74.40945"
       id="path5459" />
    <path
       style="fill:none;stroke:#666666;stroke-width:1;stroke-linecap:butt;stroke-linejoin:miter;stroke-miterlimit:4;stroke-dasharray:1, 2;stroke-dashoffset:0;stroke-opacity:1"
       d="m 361.41732,159.44883 v 74.40945"
       id="path5461" />
    <path
       id="path5463"
       d="m 368.50393,159.44883 v 74.40945"
       style="fill:none;stroke:#666666;stroke-width:1;stroke-linecap:butt;stroke-linejoin:miter;stroke-miterlimit:4;stroke-dasharray:1, 2;stroke-dashoffset:0;stroke-opacity:1" />
    <path
       style="fill:none;stroke:#666666;stroke-width:1;stroke-linecap:butt;stroke-linejoin:miter;stroke-miterlimit:4;stroke-dasharray:1, 2;stroke-dashoffset:0;stroke-opacity:1"
       d="m 240.94488,159.44883 v 74.40945"
       id="path5449" />
    <path
       id="path5451"
       d="m 248.03149,159.44883 v 74.40945"
       style="fill:none;stroke:#666666;stroke-width:1;stroke-linecap:butt;stroke-linejoin:miter;stroke-miterlimit:4;stroke-dasharray:1, 2;stroke-dashoffset:0;stroke-opacity:1" />
    <path
       id="path5453"
       d="m 279.92126,159.44883 v 74.40945"
       style="fill:none;stroke:#666666;stroke-width:1;stroke-linecap:butt;stroke-linejoin:miter;stroke-miterlimit:4;stroke-dasharray:1, 2;stroke-dashoffset:0;stroke-opacity:1" />
    <path
       style="fill:none;stroke:#666666;stroke-width:1;stroke-linecap:butt;stroke-linejoin:miter;stroke-miterlimit:4;stroke-dasharray:1, 2;stroke-dashoffset:0;stroke-opacity:1"
       d="m 287.00787,159.44883 v 74.40945"
       id="path5455" />
    <path
       id="path4788"
       d="m 187.79528,159.44883 v 74.40945"
       style="fill:none;stroke:#666666;stroke-width:1;stroke-linecap:butt;stroke-linejoin:miter;stroke-miterlimit:4;stroke-dasharray:1, 2;stroke-dashoffset:0;stroke-opacity:1" />
    <path
       id="path4681-4"
       d="m 184.25197,226.77166 3.54331,-3.54331 3.5433,3.54331 -3.5433,3.54331 z"
       style="fill:#0000ff;fill-opacity:1;fill-rule:evenodd;stroke:none;stroke-width:1px;stroke-linecap:butt;stroke-linejoin:miter;stroke-opacity:1" />
    <path
       style="fill:#ff0000;fill-opacity:1;fill-rule:evenodd;stroke:none;stroke-width:1px;stroke-linecap:butt;stroke-linejoin:miter;stroke-opacity:1"
       d="m 191.33858,226.77166 3.54331,-3.5433 3.5433,3.5433 -3.5433,3.54332 z"
       id="path4683-0" />
    <path
       style="fill:#0000ff;fill-opacity:1;fill-rule:evenodd;stroke:none;stroke-width:1px;stroke-linecap:butt;stroke-linejoin:miter;stroke-opacity:1"
       d="m 237.40157,226.77165 3.54331,-3.54331 3.5433,3.54331 -3.5433,3.54331 z"
       id="path4756" />
    <path
       id="path4758"
       d="m 244.48818,205.5118 3.54331,-3.5433 3.5433,3.5433 -3.5433,3.54332 z"
       style="fill:#ff0000;fill-opacity:1;fill-rule:evenodd;stroke:none;stroke-width:1px;stroke-linecap:butt;stroke-linejoin:miter;stroke-opacity:1" />
    <path
       id="path4760"
       d="m 276.37795,205.5118 3.54331,-3.54331 3.5433,3.54331 -3.5433,3.54331 z"
       style="fill:#0000ff;fill-opacity:1;fill-rule:evenodd;stroke:none;stroke-width:1px;stroke-linecap:butt;stroke-linejoin:miter;stroke-opacity:1" />
    <path
       style="fill:#ff0000;fill-opacity:1;fill-rule:evenodd;stroke:none;stroke-width:1px;stroke-linecap:butt;stroke-linejoin:miter;stroke-opacity:1"
       d="m 283.46456,205.5118 3.54331,-3.5433 3.5433,3.5433 -3.5433,3.54332 z"
       id="path4762" />
    <path
       style="fill:#0000ff;fill-opacity:1;fill-rule:evenodd;stroke:none;stroke-width:1px;stroke-linecap:butt;stroke-linejoin:miter;stroke-opacity:1"
       d="m 318.89763,205.5118 3.54331,-3.54331 3.5433,3.54331 -3.5433,3.54331 z"
       id="path4764" />
    <path
       id="path4766"
       d="m 325.98424,205.5118 3.54331,-3.5433 3.5433,3.5433 -3.5433,3.54332 z"
       style="fill:#ff0000;fill-opacity:1;fill-rule:evenodd;stroke:none;stroke-width:1px;stroke-linecap:butt;stroke-linejoin:miter;stroke-opacity:1" />
    <path
       id="path4768"
       d="m 357.87401,205.5118 3.54331,-3.54331 3.5433,3.54331 -3.5433,3.54331 z"
       style="fill:#0000ff;fill-opacity:1;fill-rule:evenodd;stroke:none;stroke-width:1px;stroke-linecap:butt;stroke-linejoin:miter;stroke-opacity:1" />
    <path
       style="fill:#ff0000;fill-opacity:1;fill-rule:evenodd;stroke:none;stroke-width:1px;stroke-linecap:butt;stroke-linejoin:miter;stroke-opacity:1"
       d="m 364.96062,205.5118 3.54331,-3.5433 3.5433,3.5433 -3.5433,3.54332 z"
       id="path4770" />
    <path
       style="fill:#0000ff;fill-opacity:1;fill-rule:evenodd;stroke:none;stroke-width:1px;stroke-linecap:butt;stroke-linejoin:miter;stroke-opacity:1"
       d="m 396.8504,205.5118 3.54331,-3.54331 3.5433,3.54331 -3.5433,3.54331 z"
       id="path4772" />
    <path
       id="path4774"
       d="m 403.93701,226.77165 3.54331,-3.5433 3.5433,3.5433 -3.5433,3.54332 z"
       style="fill:#ff0000;fill-opacity:1;fill-rule:evenodd;stroke:none;stroke-width:1px;stroke-linecap:butt;stroke-linejoin:miter;stroke-opacity:1" />
    <path
       id="path4776"
       d="m 435.82678,226.77165 3.54331,-3.54331 3.5433,3.54331 -3.5433,3.54331 z"
       style="fill:#0000ff;fill-opacity:1;fill-rule:evenodd;stroke:none;stroke-width:1px;stroke-linecap:butt;stroke-linejoin:miter;stroke-opacity:1" />
    <path
       style="fill:#ff0000;fill-opacity:1;fill-rule:evenodd;stroke:none;stroke-width:1px;stroke-linecap:butt;stroke-linejoin:miter;stroke-opacity:1"
       d="m 442.91339,226.77165 3.54331,-3.5433 3.5433,3.5433 -3.5433,3.54332 z"
       id="path4778" />
    <path
       style="fill:#0000ff;fill-opacity:1;fill-rule:evenodd;stroke:none;stroke-width:1px;stroke-linecap:butt;stroke-linejoin:miter;stroke-opacity:1"
       d="m 478.34646,226.77165 3.54331,-3.54331 3.5433,3.54331 -3.5433,3.54331 z"
       id="path4780" />
    <path
       id="path4782"
       d="m 485.43307,226.77165 3.54331,-3.5433 3.5433,3.5433 -3.5433,3.54332 z"
       style="fill:#ff0000;fill-opacity:1;fill-rule:evenodd;stroke:none;stroke-width:1px;stroke-linecap:butt;stroke-linejoin:miter;stroke-opacity:1" />
    <path
       id="path4784"
       d="m 517.32287,226.77165 3.54331,-3.54331 3.5433,3.54331 -3.5433,3.54331 z"
       style="fill:#0000ff;fill-opacity:1;fill-rule:evenodd;stroke:none;stroke-width:1px;stroke-linecap:butt;stroke-linejoin:miter;stroke-opacity:1" />
    <path
       style="fill:#ff0000;fill-opacity:1;fill-rule:evenodd;stroke:none;stroke-width:1px;stroke-linecap:butt;stroke-linejoin:miter;stroke-opacity:1"
       d="m 524.40948,226.77165 3.54331,-3.5433 3.5433,3.5433 -3.5433,3.54332 z"
       id="path4786" />
    <path
       style="fill:none;stroke:#666666;stroke-width:1;stroke-linecap:butt;stroke-linejoin:miter;stroke-miterlimit:4;stroke-dasharray:1, 2;stroke-dashoffset:0;stroke-opacity:1"
       d="M 145.27559,226.77166 H 570.47243"
       id="path4430" />
    <path
       id="path4432"
       d="M 145.27559,205.51181 H 570.47243"
       style="fill:none;stroke:#666666;stroke-width:1;stroke-linecap:butt;stroke-linejoin:miter;stroke-miterlimit:4;stroke-dasharray:1, 2;stroke-dashoffset:0;stroke-opacity:1" />
    <path
       id="path4428"
       d="M 145.27559,187.79528 H 570.47243"
       style="fill:none;stroke:#666666;stroke-width:1;stroke-linecap:butt;stroke-linejoin:miter;stroke-miterlimit:4;stroke-dasharray:1, 3;stroke-dashoffset:0;stroke-opacity:1" />
    <path
       style="fill:none;stroke:#666666;stroke-width:1;stroke-linecap:butt;stroke-linejoin:miter;stroke-miterlimit:4;stroke-dasharray:1, 2;stroke-dashoffset:0;stroke-opacity:1"
       d="M 145.27559,166.53543 H 570.47243"
       id="path3556" />
    <g
       aria-label="BA"
       id="text230563"
       style="line-height:0%;font-family:Iwona;-inkscape-font-specification:Sans;text-align:end;letter-spacing:0px;word-spacing:0px;text-anchor:end">
      <path
         d="m 130.85233,181.21212 c 0,-1.76 -1.152,-2.688 -2.832,-3.04 1.232,-0.368 2.048,-1.168 2.048,-2.528 0,-1.952 -1.68,-2.752 -3.84,-2.752 -0.832,0 -1.664,0.048 -2.496,0.16 h -1.28 v 11.2 h 1.28 l 2.496,0.16 c 2.592,0 4.624,-0.88 4.624,-3.2 z m -2.096,-5.568 c 0,1.616 -1.808,2.448 -3.616,2.448 h -1.376 v -4.304 c 0.816,-0.112 1.648,-0.16 2.464,-0.16 1.312,0 2.528,0.8 2.528,2.016 z m 0.528,5.568 c 0,1.472 -1.456,2.464 -3.056,2.464 -0.816,0 -1.648,-0.048 -2.464,-0.16 v -4.864 h 2.064 c 1.76,0 3.456,0.944 3.456,2.56 z"
         style="font-size:16px;line-height:1.25"
         id="path143" />
      <path
         d="m 141.57232,184.25212 -4.064,-11.2 h -1.392 l -4.144,11.2 h 0.784 l 1.456,-3.92 h 4.544 l 1.424,3.92 z m -3.088,-4.656 h -4 l 2.016,-5.472 z"
         style="font-size:16px;line-height:1.25"
         id="path145" />
    </g>
    <g
       aria-label="MA"
       id="text230567"
       style="line-height:0%;font-family:Iwona;-inkscape-font-specification:Sans;text-align:end;letter-spacing:0px;word-spacing:0px;text-anchor:end">
      <path
         d="m 130.85234,219.68523 -0.64,-11.2 h -1.056 l -4.496,9.456 -4.512,-9.456 h -1.056 l -0.64,11.2 h 0.736 l 0.512,-9.072 4.336,9.072 h 0.592 l 4.384,-9.184 0.528,9.184 z"
         style="font-size:16px;line-height:1.25"
         id="path148" />
      <path
         d="m 141.57232,219.68523 -4.064,-11.2 h -1.392 l -4.144,11.2 h 0.784 l 1.456,-3.92 h 4.544 l 1.424,3.92 z m -3.088,-4.656 h -4 l 2.016,-5.472 z"
         style="font-size:16px;line-height:1.25"
         id="path150" />
    </g>
    <g
       id="g3352"
       transform="translate(24.803163,-10.629918)">
      <path
         id="path3350"
         style="opacity:1;fill:#ff6600;stroke-width:4;stroke-linecap:round;stroke-linejoin:bevel"
         d="m 173.62205,159.44882 a 7.0866184,7.0866203 0 0 1 -7.08662,7.08662 7.0866184,7.0866203 0 0 1 -7.08662,-7.08662 7.0866184,7.0866203 0 0 1 7.08662,-7.08662 7.0866184,7.0866203 0 0 1 7.08662,7.08662 z" />
      <g
         aria-label="1"
         id="text3346"
         style="line-height:0%;font-family:Iwona;-inkscape-font-specification:Iwona;text-align:center;letter-spacing:0px;word-spacing:0px;text-anchor:middle;fill:#ffffff;stroke-width:1px">
        <path
           d="m 168.10037,163.76132 v -8.625 h -0.725 c -0.6875,0.7875 -1.5,1.4625 -2.4,1.9875 v 0.525 c 0.7625,-0.3625 1.475,-0.7875 2.15,-1.3 v 7.4125 z"
           style="font-size:12.5px;line-height:1.25"
           id="path154" />
      </g>
    </g>
    <g
       transform="translate(77.952769,-10.629918)"
       id="g3357">
      <path
         id="ellipse3359"
         style="opacity:1;fill:#ff6600;stroke-width:4;stroke-linecap:round;stroke-linejoin:bevel"
         d="m 173.62205,159.44882 a 7.0866184,7.0866203 0 0 1 -7.08662,7.08662 7.0866184,7.0866203 0 0 1 -7.08662,-7.08662 7.0866184,7.0866203 0 0 1 7.08662,-7.08662 7.0866184,7.0866203 0 0 1 7.08662,7.08662 z" />
      <g
         aria-label="2"
         id="text3361"
         style="line-height:0%;font-family:Iwona;-inkscape-font-specification:Iwona;text-align:center;letter-spacing:0px;word-spacing:0px;text-anchor:middle;fill:#ffffff;stroke-width:1px">
        <path
           d="m 169.19412,163.76132 v -0.775 h -4.4125 l 2.3,-2.275 c 1.025,-1.025 1.9875,-2.225 1.9875,-3.675 0,-1.225 -1.2125,-2.025 -2.525,-2.025 -0.9875,0 -1.925,0.45 -2.5375,1.2125 v 0.525 c 0.6375,-0.7375 1.5625,-1.1625 2.5375,-1.1625 0.8375,0 1.55,0.625 1.55,1.45 0,1.2375 -0.575,2.3875 -1.425,3.275 l -2.7875,2.8625 v 0.5875 z"
           style="font-size:12.5px;line-height:1.25"
           id="path158" />
      </g>
    </g>
    <g
       transform="translate(116.92914,-10.629918)"
       id="g3365">
      <path
         id="ellipse3367"
         style="opacity:1;fill:#ff6600;stroke-width:4;stroke-linecap:round;stroke-linejoin:bevel"
         d="m 173.62205,159.44882 a 7.0866184,7.0866203 0 0 1 -7.08662,7.08662 7.0866184,7.0866203 0 0 1 -7.08662,-7.08662 7.0866184,7.0866203 0 0 1 7.08662,-7.08662 7.0866184,7.0866203 0 0 1 7.08662,7.08662 z" />
      <g
         aria-label="3"
         id="text3369"
         style="line-height:0%;font-family:Iwona;-inkscape-font-specification:Iwona;text-align:center;letter-spacing:0px;word-spacing:0px;text-anchor:middle;fill:#ffffff;stroke-width:1px">
        <path
           d="m 169.19412,161.38632 c 0,-1.1 -0.775,-2.05 -1.85,-2.375 0.95,-0.275 1.5375,-0.9875 1.5375,-1.9375 0,-1.2375 -1,-2.0625 -2.5,-2.0625 -0.8125,0 -1.6,0.275 -2.2375,0.775 v 0.525 c 0.6375,-0.5 1.425,-0.775 2.2375,-0.775 0.9125,0 1.525,0.6125 1.525,1.5375 0,1.4875 -0.6875,1.875 -2.25,1.875 v 0.4625 c 1.6875,0 2.4375,0.4 2.4375,1.975 0,1.0875 -0.7,1.975 -1.55,1.975 -0.95,0 -1.875,-0.275 -2.6625,-0.775 v 0.525 c 0.7875,0.5 1.7125,0.775 2.6625,0.775 1.45,0 2.65,-1.125 2.65,-2.5 z"
           style="font-size:12.5px;line-height:1.25"
           id="path162" />
      </g>
    </g>
    <g
       id="g3373"
       transform="translate(159.44882,-10.629918)">
      <path
         id="ellipse3375"
         style="opacity:1;fill:#ff6600;stroke-width:4;stroke-linecap:round;stroke-linejoin:bevel"
         d="m 173.62205,159.44882 a 7.0866184,7.0866203 0 0 1 -7.08662,7.08662 7.0866184,7.0866203 0 0 1 -7.08662,-7.08662 7.0866184,7.0866203 0 0 1 7.08662,-7.08662 7.0866184,7.0866203 0 0 1 7.08662,7.08662 z" />
      <g
         aria-label="4"
         id="text3377"
         style="line-height:0%;font-family:Iwona;-inkscape-font-specification:Iwona;text-align:center;letter-spacing:0px;word-spacing:0px;text-anchor:middle;fill:#ffffff;stroke-width:1px">
        <path
           d="m 169.19412,160.76132 v -0.575 h -0.9375 v -5.05 h -0.975 l -3.4,5.05 v 0.575 h 3.4 v 3 h 0.975 v -3 z m -1.9125,-0.575 h -2.7625 l 2.7625,-4.1125 z"
           style="font-size:12.5px;line-height:1.25"
           id="path166" />
      </g>
    </g>
    <g
       transform="translate(198.4252,-10.629918)"
       id="g3381">
      <path
         id="ellipse3383"
         style="opacity:1;fill:#ff6600;stroke-width:4;stroke-linecap:round;stroke-linejoin:bevel"
         d="m 173.62205,159.44882 a 7.0866184,7.0866203 0 0 1 -7.08662,7.08662 7.0866184,7.0866203 0 0 1 -7.08662,-7.08662 7.0866184,7.0866203 0 0 1 7.08662,-7.08662 7.0866184,7.0866203 0 0 1 7.08662,7.08662 z" />
      <g
         aria-label="5"
         id="text3385"
         style="line-height:0%;font-family:Iwona;-inkscape-font-specification:Iwona;text-align:center;letter-spacing:0px;word-spacing:0px;text-anchor:middle;fill:#ffffff;stroke-width:1px">
        <path
           d="m 169.19412,160.94882 c 0,-1.7625 -1.0625,-2.9375 -2.65,-2.9375 -0.725,0 -1.4,0.275 -1.925,0.7375 l 0.125,-2.8375 h 4.2 v -0.775 h -4.6875 l -0.1875,4.3125 0.525,0.025 c 0.475,-0.5875 1.1875,-0.9375 1.95,-0.9375 0.925,0 1.55,0.9625 1.55,2.4125 0,1.45 -0.625,2.4125 -1.55,2.4125 -0.9625,0 -1.9,-0.3125 -2.6625,-0.9 v 0.525 c 0.7625,0.5875 1.7,0.9 2.6625,0.9 1.5875,0 2.65,-1.175 2.65,-2.9375 z"
           style="font-size:12.5px;line-height:1.25"
           id="path170" />
      </g>
    </g>
    <g
       id="g3389"
       transform="translate(237.40157,-10.629918)">
      <path
         id="ellipse3391"
         style="opacity:1;fill:#ff6600;stroke-width:4;stroke-linecap:round;stroke-linejoin:bevel"
         d="m 173.62205,159.44882 a 7.0866184,7.0866203 0 0 1 -7.08662,7.08662 7.0866184,7.0866203 0 0 1 -7.08662,-7.08662 7.0866184,7.0866203 0 0 1 7.08662,-7.08662 7.0866184,7.0866203 0 0 1 7.08662,7.08662 z" />
      <g
         aria-label="6"
         id="text3393"
         style="line-height:0%;font-family:Iwona;-inkscape-font-specification:Iwona;text-align:center;letter-spacing:0px;word-spacing:0px;text-anchor:middle;fill:#ffffff;stroke-width:1px">
        <path
           d="m 169.19412,160.94882 c 0,-1.8 -0.7125,-2.9375 -2.3875,-2.9375 -0.725,0 -1.4,0.3375 -1.825,0.9125 0,-1.6375 0.4125,-3.3875 1.825,-3.3875 0.6375,0 1.2625,0.2125 1.7625,0.6125 v -0.525 c -0.5,-0.4 -1.125,-0.6125 -1.7625,-0.6125 -1.9625,0 -2.925,2.225 -2.925,4.4375 0,3.1 0.8,4.4375 2.6625,4.4375 1.5875,0 2.65,-1.175 2.65,-2.9375 z m -1.1,0 c 0,1.45 -0.625,2.4125 -1.55,2.4125 -1.75,0 -1.5625,-1.8875 -1.5625,-3.9125 0.425,-0.575 1.1,-0.9125 1.825,-0.9125 1,0 1.2875,1.25 1.2875,2.4125 z"
           style="font-size:12.5px;line-height:1.25"
           id="path174" />
      </g>
    </g>
    <g
       transform="translate(276.37797,-10.629918)"
       id="g3397">
      <path
         id="ellipse3399"
         style="opacity:1;fill:#ff6600;stroke-width:4;stroke-linecap:round;stroke-linejoin:bevel"
         d="m 173.62205,159.44882 a 7.0866184,7.0866203 0 0 1 -7.08662,7.08662 7.0866184,7.0866203 0 0 1 -7.08662,-7.08662 7.0866184,7.0866203 0 0 1 7.08662,-7.08662 7.0866184,7.0866203 0 0 1 7.08662,7.08662 z" />
      <g
         aria-label="7"
         id="text3401"
         style="line-height:0%;font-family:Iwona;-inkscape-font-specification:Iwona;text-align:center;letter-spacing:0px;word-spacing:0px;text-anchor:middle;fill:#ffffff;stroke-width:1px">
        <path
           d="m 169.19412,155.56132 v -0.425 h -5.3125 v 0.775 h 4.075 l -3.6875,7.85 h 1.075 z"
           style="font-size:12.5px;line-height:1.25"
           id="path178" />
      </g>
    </g>
    <g
       id="g3405"
       transform="translate(315.35433,-10.629918)">
      <path
         id="ellipse3407"
         style="opacity:1;fill:#ff6600;stroke-width:4;stroke-linecap:round;stroke-linejoin:bevel"
         d="m 173.62205,159.44882 a 7.0866184,7.0866203 0 0 1 -7.08662,7.08662 7.0866184,7.0866203 0 0 1 -7.08662,-7.08662 7.0866184,7.0866203 0 0 1 7.08662,-7.08662 7.0866184,7.0866203 0 0 1 7.08662,7.08662 z" />
      <g
         aria-label="8"
         id="text3409"
         style="line-height:0%;font-family:Iwona;-inkscape-font-specification:Iwona;text-align:center;letter-spacing:0px;word-spacing:0px;text-anchor:middle;fill:#ffffff;stroke-width:1px">
        <path
           d="m 169.19412,161.34882 c 0,-1.175 -0.5625,-2.0125 -1.525,-2.3625 0.8125,-0.3 1.275,-0.975 1.275,-1.8875 0,-1.3 -0.9125,-2.0875 -2.4,-2.0875 -1.5,0 -2.4125,0.7875 -2.4125,2.0875 0,0.9125 0.4625,1.5875 1.275,1.8875 -0.9625,0.35 -1.525,1.1875 -1.525,2.3625 0,1.575 1.0125,2.5375 2.6625,2.5375 1.6375,0 2.65,-0.9625 2.65,-2.5375 z m -1.225,-4.25 c 0,0.9625 -0.55,1.5625 -1.425,1.5625 -0.8875,0 -1.4375,-0.6 -1.4375,-1.5625 0,-0.975 0.55,-1.5625 1.4375,-1.5625 0.875,0 1.425,0.5875 1.425,1.5625 z m 0.125,4.25 c 0,1.25 -0.5875,2.0125 -1.55,2.0125 -0.975,0 -1.5625,-0.7625 -1.5625,-2.0125 0,-1.25 0.5875,-2.0125 1.5625,-2.0125 0.9625,0 1.55,0.7625 1.55,2.0125 z"
           style="font-size:12.5px;line-height:1.25"
           id="path182" />
      </g>
    </g>
    <g
       transform="translate(357.87401,-10.629918)"
       id="g3413">
      <path
         id="ellipse3415"
         style="opacity:1;fill:#ff6600;stroke-width:4;stroke-linecap:round;stroke-linejoin:bevel"
         d="m 173.62205,159.44882 a 7.0866184,7.0866203 0 0 1 -7.08662,7.08662 7.0866184,7.0866203 0 0 1 -7.08662,-7.08662 7.0866184,7.0866203 0 0 1 7.08662,-7.08662 7.0866184,7.0866203 0 0 1 7.08662,7.08662 z" />
      <g
         aria-label="1"
         id="text3417"
         style="line-height:0%;font-family:Iwona;-inkscape-font-specification:Iwona;text-align:center;letter-spacing:0px;word-spacing:0px;text-anchor:middle;fill:#ffffff;stroke-width:1px">
        <path
           d="m 168.10037,163.76132 v -8.625 h -0.725 c -0.6875,0.7875 -1.5,1.4625 -2.4,1.9875 v 0.525 c 0.7625,-0.3625 1.475,-0.7875 2.15,-1.3 v 7.4125 z"
           style="font-size:12.5px;line-height:1.25"
           id="path186" />
      </g>
    </g>
    <path
       id="path3421"
       style="opacity:1;fill:#0000ff;stroke-width:4;stroke-linecap:round;stroke-linejoin:bevel"
       d="m 191.33858,187.79527 a 3.5433071,3.5433071 0 0 1 -3.54331,3.54331 3.5433071,3.5433071 0 0 1 -3.5433,-3.54331 3.5433071,3.5433071 0 0 1 3.5433,-3.5433 3.5433071,3.5433071 0 0 1 3.54331,3.5433 z" />
    <path
       id="circle3425"
       style="opacity:1;fill:#ff0000;stroke-width:4;stroke-linecap:round;stroke-linejoin:bevel"
       d="m 198.4252,187.79527 a 3.5433071,3.5433071 0 0 1 -3.5433,3.54331 3.5433071,3.5433071 0 0 1 -3.54331,-3.54331 3.5433071,3.5433071 0 0 1 3.54331,-3.5433 3.5433071,3.5433071 0 0 1 3.5433,3.5433 z" />
    <path
       id="circle3429"
       style="opacity:1;fill:#0000ff;stroke-width:4;stroke-linecap:round;stroke-linejoin:bevel"
       d="m 244.48819,187.79527 a 3.5433071,3.5433071 0 0 1 -3.5433,3.54331 3.5433071,3.5433071 0 0 1 -3.54331,-3.54331 3.5433071,3.5433071 0 0 1 3.54331,-3.5433 3.5433071,3.5433071 0 0 1 3.5433,3.5433 z" />
    <path
       id="circle3433"
       style="opacity:1;fill:#ff0000;stroke-width:4;stroke-linecap:round;stroke-linejoin:bevel"
       d="m 251.5748,166.53543 a 3.5433071,3.5433071 0 0 1 -3.54331,3.54331 3.5433071,3.5433071 0 0 1 -3.5433,-3.54331 3.5433071,3.5433071 0 0 1 3.5433,-3.54331 3.5433071,3.5433071 0 0 1 3.54331,3.54331 z" />
    <path
       id="circle3437"
       style="opacity:1;fill:#0000ff;stroke-width:4;stroke-linecap:round;stroke-linejoin:bevel"
       d="m 283.46457,166.53543 a 3.5433071,3.5433071 0 0 1 -3.54331,3.54331 3.5433071,3.5433071 0 0 1 -3.5433,-3.54331 3.5433071,3.5433071 0 0 1 3.5433,-3.54331 3.5433071,3.5433071 0 0 1 3.54331,3.54331 z" />
    <path
       id="circle3441"
       style="opacity:1;fill:#ff0000;stroke-width:4;stroke-linecap:round;stroke-linejoin:bevel"
       d="m 290.55118,166.53543 a 3.5433071,3.5433071 0 0 1 -3.54331,3.54331 3.5433071,3.5433071 0 0 1 -3.5433,-3.54331 3.5433071,3.5433071 0 0 1 3.5433,-3.54331 3.5433071,3.5433071 0 0 1 3.54331,3.54331 z" />
    <path
       id="circle3445"
       style="opacity:1;fill:#0000ff;stroke-width:4;stroke-linecap:round;stroke-linejoin:bevel"
       d="m 325.98426,166.53543 a 3.5433071,3.5433071 0 0 1 -3.54331,3.54331 3.5433071,3.5433071 0 0 1 -3.54331,-3.54331 3.5433071,3.5433071 0 0 1 3.54331,-3.54331 3.5433071,3.5433071 0 0 1 3.54331,3.54331 z" />
    <path
       id="circle3449"
       style="opacity:1;fill:#ff0000;stroke-width:4;stroke-linecap:round;stroke-linejoin:bevel"
       d="m 333.07086,187.79527 a 3.5433071,3.5433071 0 0 1 -3.5433,3.54331 3.5433071,3.5433071 0 0 1 -3.54331,-3.54331 3.5433071,3.5433071 0 0 1 3.54331,-3.5433 3.5433071,3.5433071 0 0 1 3.5433,3.5433 z" />
    <path
       id="circle3453"
       style="opacity:1;fill:#0000ff;stroke-width:4;stroke-linecap:round;stroke-linejoin:bevel"
       d="m 403.93701,187.79527 a 3.5433071,3.5433071 0 0 1 -3.5433,3.54331 3.5433071,3.5433071 0 0 1 -3.54331,-3.54331 3.5433071,3.5433071 0 0 1 3.54331,-3.5433 3.5433071,3.5433071 0 0 1 3.5433,3.5433 z" />
    <path
       id="circle3455"
       style="opacity:1;fill:#ff0000;stroke-width:4;stroke-linecap:round;stroke-linejoin:bevel"
       d="m 411.02362,166.53543 a 3.5433071,3.5433071 0 0 1 -3.5433,3.54331 3.5433071,3.5433071 0 0 1 -3.54331,-3.54331 3.5433071,3.5433071 0 0 1 3.54331,-3.54331 3.5433071,3.5433071 0 0 1 3.5433,3.54331 z" />
    <path
       id="circle3457"
       style="opacity:1;fill:#0000ff;stroke-width:4;stroke-linecap:round;stroke-linejoin:bevel"
       d="m 442.91339,166.53543 a 3.5433071,3.5433071 0 0 1 -3.5433,3.54331 3.5433071,3.5433071 0 0 1 -3.54331,-3.54331 3.5433071,3.5433071 0 0 1 3.54331,-3.54331 3.5433071,3.5433071 0 0 1 3.5433,3.54331 z" />
    <path
       id="circle3459"
       style="opacity:1;fill:#ff0000;stroke-width:4;stroke-linecap:round;stroke-linejoin:bevel"
       d="m 450,166.53543 a 3.5433071,3.5433071 0 0 1 -3.5433,3.54331 3.5433071,3.5433071 0 0 1 -3.54331,-3.54331 3.5433071,3.5433071 0 0 1 3.54331,-3.54331 3.5433071,3.5433071 0 0 1 3.5433,3.54331 z" />
    <path
       id="circle3461"
       style="opacity:1;fill:#0000ff;stroke-width:4;stroke-linecap:round;stroke-linejoin:bevel"
       d="m 485.43308,166.53543 a 3.5433071,3.5433071 0 0 1 -3.54331,3.54331 3.5433071,3.5433071 0 0 1 -3.54331,-3.54331 3.5433071,3.5433071 0 0 1 3.54331,-3.54331 3.5433071,3.5433071 0 0 1 3.54331,3.54331 z" />
    <path
       id="circle3463"
       style="opacity:1;fill:#ff0000;stroke-width:4;stroke-linecap:round;stroke-linejoin:bevel"
       d="m 492.51969,187.79527 a 3.5433071,3.5433071 0 0 1 -3.54331,3.54331 3.5433071,3.5433071 0 0 1 -3.54331,-3.54331 3.5433071,3.5433071 0 0 1 3.54331,-3.5433 3.5433071,3.5433071 0 0 1 3.54331,3.5433 z" />
    <path
       id="circle3481"
       style="opacity:1;fill:#0000ff;stroke-width:4;stroke-linecap:round;stroke-linejoin:bevel"
       d="m 524.40946,187.79527 a 3.5433071,3.5433071 0 0 1 -3.54331,3.54331 3.5433071,3.5433071 0 0 1 -3.54331,-3.54331 3.5433071,3.5433071 0 0 1 3.54331,-3.5433 3.5433071,3.5433071 0 0 1 3.54331,3.5433 z" />
    <path
       id="circle3483"
       style="opacity:1;fill:#ff0000;stroke-width:4;stroke-linecap:round;stroke-linejoin:bevel"
       d="m 531.49607,187.79527 a 3.5433071,3.5433071 0 0 1 -3.54331,3.54331 3.5433071,3.5433071 0 0 1 -3.54331,-3.54331 3.5433071,3.5433071 0 0 1 3.54331,-3.5433 3.5433071,3.5433071 0 0 1 3.54331,3.5433 z" />
    <path
       id="circle3489"
       style="opacity:1;fill:#0000ff;stroke-width:4;stroke-linecap:round;stroke-linejoin:bevel"
       d="m 364.96063,187.79527 a 3.5433071,3.5433071 0 0 1 -3.5433,3.54331 3.5433071,3.5433071 0 0 1 -3.54331,-3.54331 3.5433071,3.5433071 0 0 1 3.54331,-3.5433 3.5433071,3.5433071 0 0 1 3.5433,3.5433 z" />
    <path
       id="circle3491"
       style="opacity:1;fill:#ff0000;stroke-width:4;stroke-linecap:round;stroke-linejoin:bevel"
       d="m 372.04724,187.79527 a 3.5433071,3.5433071 0 0 1 -3.5433,3.54331 3.5433071,3.5433071 0 0 1 -3.54331,-3.54331 3.5433071,3.5433071 0 0 1 3.54331,-3.5433 3.5433071,3.5433071 0 0 1 3.5433,3.5433 z" />
    <path
       id="path230571"
       d="m 145.2756,187.79531 h 95.6693 l 7.0866,-21.2599 h 74.4094 l 7.0866,21.2599 h 70.8662 l 7.0866,-21.2599 73.96913,0.22165 7.0866,21.2599 71.30647,-0.22165"
       style="fill:none;stroke:#501616;stroke-width:1.5;stroke-linecap:butt;stroke-linejoin:miter;stroke-miterlimit:4;stroke-dasharray:none;stroke-opacity:1" />
    <path
       style="fill:none;stroke:#501616;stroke-width:1.5;stroke-linecap:butt;stroke-linejoin:miter;stroke-miterlimit:4;stroke-dasharray:none;stroke-opacity:1"
       d="m 145.2756,226.77171 h 95.6693 l 7.0866,-21.2599 h 152.3622 l 7.0866,21.2599 h 152.3622"
       id="path230573" />
    <path
       id="path228499"
       d="M 145.27559,255.11811 H 570.47243"
       style="fill:none;stroke:#000000;stroke-width:1px;stroke-linecap:butt;stroke-linejoin:miter;stroke-opacity:1;marker-end:url(#marker10197)" />
    <g
       aria-label="temps"
       id="text229675"
       style="line-height:0%;font-family:Iwona;-inkscape-font-specification:Sans;letter-spacing:0px;word-spacing:0px">
      <path
         d="m 578.68775,258.10144 v -0.48 c -0.256,0.256 -0.56,0.464 -0.928,0.464 -0.576,0 -0.608,-0.752 -0.608,-1.424 v -4.528 h 1.536 v -0.672 h -1.536 v -2.4 h -0.752 c 0,1.28 -0.736,2.48 -1.904,2.48 v 0.592 h 1.408 v 4.528 c 0,1.056 0.336,2.16 1.248,2.16 0.592,0 1.104,-0.32 1.536,-0.72 z"
         style="font-size:16px;line-height:1.25"
         id="path207" />
      <path
         d="m 586.23972,255.22144 v -0.16 c 0,-2.256 -1.232,-3.76 -3.088,-3.76 -1.872,0 -3.104,1.504 -3.104,3.76 0,2.256 1.232,3.76 3.104,3.76 0.8,0 1.584,-0.256 2.24,-0.72 v -0.672 c -0.752,0.48 -1.36,0.656 -2.24,0.656 -1.36,0 -1.696,-1.296 -1.696,-2.864 z m -1.408,-0.672 h -3.376 c 0,-1.28 0.544,-2.576 1.696,-2.576 1.136,0 1.68,1.296 1.68,2.576 z"
         style="font-size:16px;line-height:1.25"
         id="path209" />
      <path
         d="m 597.0557,258.66144 v -5.2 c 0,-1.12 -0.656,-2.16 -1.696,-2.16 -0.896,0 -1.728,0.464 -2.208,1.216 -0.256,-0.704 -0.8,-1.216 -1.536,-1.216 -0.832,0 -1.504,0.576 -2.048,1.216 v -1.056 h -1.248 v 7.2 h 1.248 v -5.664 c 0.384,-0.496 0.864,-0.96 1.488,-0.96 0.656,0 1.008,0.704 1.008,1.424 v 5.2 h 1.248 v -5.2 c 0,-0.192 -0.016,-0.368 -0.048,-0.56 0.384,-0.496 0.912,-0.864 1.536,-0.864 0.656,0 1.008,0.704 1.008,1.424 v 5.2 z"
         style="font-size:16px;line-height:1.25"
         id="path211" />
      <path
         d="m 605.64768,255.06144 c 0,-2.128 -0.8,-3.76 -2.736,-3.76 -0.816,0 -1.568,0.368 -2.208,0.88 v -0.72 h -1.248 v 10.88 h 1.248 v -3.952 c 0.624,0.272 1.296,0.432 1.968,0.432 2,0 2.976,-1.6 2.976,-3.76 z m -1.408,0 c 0,1.504 -0.464,3.088 -1.776,3.088 -0.608,0 -1.216,-0.16 -1.76,-0.432 v -4.864 c 0.48,-0.48 1.072,-0.88 1.76,-0.88 1.456,0 1.776,1.408 1.776,3.088 z"
         style="font-size:16px;line-height:1.25"
         id="path213" />
      <path
         d="m 612.67165,256.61344 c 0,-1.264 -1.344,-1.92 -2.656,-2.24 -0.768,-0.192 -1.6,-0.512 -1.6,-1.264 0,-0.688 0.704,-1.136 1.472,-1.136 0.848,0 1.696,0.256 2.4,0.72 v -0.672 c -0.704,-0.464 -1.552,-0.72 -2.4,-0.72 -1.392,0 -2.672,0.848 -2.672,2.144 0,1.168 1.296,1.712 2.528,2.016 0.848,0.208 1.728,0.656 1.728,1.472 0,0.752 -0.768,1.216 -1.584,1.216 -0.992,0 -1.952,-0.24 -2.8,-0.72 v 0.672 c 0.848,0.48 1.808,0.72 2.8,0.72 1.44,0 2.784,-0.864 2.784,-2.208 z"
         style="font-size:16px;line-height:1.25"
         id="path215" />
    </g>
    <g
       aria-label="0"
       id="text4434"
       style="line-height:0%;font-family:Iwona;-inkscape-font-specification:Sans;letter-spacing:0px;word-spacing:0px">
      <path
         d="m 578.83575,187.88858 c 0,-2.37 -0.73,-3.55 -2.19,-3.55 -1.46,0 -2.19,1.18 -2.19,3.55 0,2.37 0.73,3.55 2.19,3.55 1.46,0 2.19,-1.18 2.19,-3.55 z m -0.88,0 c 0,2.09 -0.44,3.13 -1.31,3.13 -0.87,0 -1.31,-1.04 -1.31,-3.13 0,-2.09 0.44,-3.13 1.31,-3.13 0.87,0 1.31,1.04 1.31,3.13 z"
         style="font-size:10px;line-height:1.25"
         id="path218" />
    </g>
    <g
       aria-label="1"
       id="text4438"
       style="line-height:0%;font-family:Iwona;-inkscape-font-specification:Sans;letter-spacing:0px;word-spacing:0px">
      <path
         d="m 577.31575,170.07874 v -6.9 h -0.58 c -0.55,0.63 -1.2,1.17 -1.92,1.59 v 0.42 c 0.61,-0.29 1.18,-0.63 1.72,-1.04 v 5.93 z"
         style="font-size:10px;line-height:1.25"
         id="path221" />
    </g>
    <g
       aria-label="0"
       id="text4442"
       style="line-height:0%;font-family:Iwona;-inkscape-font-specification:Sans;letter-spacing:0px;word-spacing:0px">
      <path
         d="m 578.83575,226.86496 c 0,-2.37 -0.73,-3.55 -2.19,-3.55 -1.46,0 -2.19,1.18 -2.19,3.55 0,2.37 0.73,3.55 2.19,3.55 1.46,0 2.19,-1.18 2.19,-3.55 z m -0.88,0 c 0,2.09 -0.44,3.13 -1.31,3.13 -0.87,0 -1.31,-1.04 -1.31,-3.13 0,-2.09 0.44,-3.13 1.31,-3.13 0.87,0 1.31,1.04 1.31,3.13 z"
         style="font-size:10px;line-height:1.25"
         id="path224" />
    </g>
    <g
       aria-label="1"
       id="text4446"
       style="line-height:0%;font-family:Iwona;-inkscape-font-specification:Sans;letter-spacing:0px;word-spacing:0px">
      <path
         d="m 577.31575,209.05511 v -6.9 h -0.58 c -0.55,0.63 -1.2,1.17 -1.92,1.59 v 0.42 c 0.61,-0.29 1.18,-0.63 1.72,-1.04 v 5.93 z"
         style="font-size:10px;line-height:1.25"
         id="path227" />
    </g>
    <g
       id="g4697"
       transform="translate(80.134354,7.0866015)">
      <path
         id="circle4663"
         style="opacity:1;fill:#0000ff;stroke-width:4;stroke-linecap:round;stroke-linejoin:bevel"
         d="m 191.33858,269.29135 a 3.5433071,3.5433071 0 0 1 -3.54331,3.54331 3.5433071,3.5433071 0 0 1 -3.5433,-3.54331 3.5433071,3.5433071 0 0 1 3.5433,-3.54331 3.5433071,3.5433071 0 0 1 3.54331,3.54331 z" />
      <path
         id="circle4665"
         style="opacity:1;fill:#ff0000;stroke-width:4;stroke-linecap:round;stroke-linejoin:bevel"
         d="m 244.48818,269.29135 a 3.5433071,3.5433071 0 0 1 -3.54331,3.54331 3.5433071,3.5433071 0 0 1 -3.54331,-3.54331 3.5433071,3.5433071 0 0 1 3.54331,-3.54331 3.5433071,3.5433071 0 0 1 3.54331,3.54331 z" />
      <g
         aria-label="BAprec"
         id="text4667"
         style="line-height:0%;font-family:Iwona;-inkscape-font-specification:Sans;letter-spacing:0px;word-spacing:0px">
        <path
           d="m 202.69438,270.45966 c 0,-1.375 -0.9,-2.1 -2.2125,-2.375 0.9625,-0.2875 1.6,-0.9125 1.6,-1.975 0,-1.525 -1.3125,-2.15 -3,-2.15 -0.65,0 -1.3,0.0375 -1.95,0.125 h -1 v 8.75 h 1 l 1.95,0.125 c 2.025,0 3.6125,-0.6875 3.6125,-2.5 z m -1.6375,-4.35 c 0,1.2625 -1.4125,1.9125 -2.825,1.9125 h -1.075 v -3.3625 c 0.6375,-0.0875 1.2875,-0.125 1.925,-0.125 1.025,0 1.975,0.625 1.975,1.575 z m 0.4125,4.35 c 0,1.15 -1.1375,1.925 -2.3875,1.925 -0.6375,0 -1.2875,-0.0375 -1.925,-0.125 v -3.8 h 1.6125 c 1.375,0 2.7,0.7375 2.7,2 z"
           style="font-size:12.5px;line-height:1.25"
           id="path232" />
        <path
           d="m 211.06938,272.83466 -3.175,-8.75 h -1.0875 l -3.2375,8.75 h 0.6125 l 1.1375,-3.0625 h 3.55 l 1.1125,3.0625 z m -2.4125,-3.6375 h -3.125 l 1.575,-4.275 z"
           style="font-size:12.5px;line-height:1.25"
           id="path234" />
        <path
           d="m 214.94811,273.50653 c 0,-1.08062 -0.40625,-1.90937 -1.38937,-1.90937 -0.41438,0 -0.79625,0.18687 -1.12125,0.44687 v -0.36562 h -0.63375 v 5.525 h 0.63375 v -2.00688 c 0.31687,0.13813 0.65812,0.21938 0.99937,0.21938 1.01563,0 1.51125,-0.8125 1.51125,-1.90938 z m -0.715,0 c 0,0.76375 -0.23562,1.56813 -0.90187,1.56813 -0.30875,0 -0.6175,-0.0813 -0.89375,-0.21938 v -2.47 c 0.24375,-0.24375 0.54437,-0.44687 0.89375,-0.44687 0.73937,0 0.90187,0.715 0.90187,1.56812 z"
           style="font-size:65%;baseline-shift:sub"
           id="path236" />
        <path
           d="m 218.0681,272.18216 v -0.50375 c -0.0894,-0.0325 -0.18688,-0.0569 -0.27625,-0.0569 -0.455,0 -0.82063,0.31688 -1.11313,0.66625 v -0.60937 h -0.63375 v 3.65625 h 0.63375 v -2.70563 c 0.24375,-0.28437 0.5525,-0.52812 0.92625,-0.52812 0.15438,0 0.31688,0.0325 0.46313,0.0813 z"
           style="font-size:65%;baseline-shift:sub"
           id="path238" />
        <path
           d="m 221.82184,273.58778 v -0.0813 c 0,-1.14562 -0.62562,-1.90937 -1.56812,-1.90937 -0.95063,0 -1.57625,0.76375 -1.57625,1.90937 0,1.14563 0.62562,1.90938 1.57625,1.90938 0.40625,0 0.80437,-0.13 1.1375,-0.36563 v -0.34125 c -0.38188,0.24375 -0.69063,0.33313 -1.1375,0.33313 -0.69063,0 -0.86125,-0.65813 -0.86125,-1.45438 z m -0.715,-0.34125 h -1.71437 c 0,-0.65 0.27625,-1.30812 0.86125,-1.30812 0.57687,0 0.85312,0.65812 0.85312,1.30812 z"
           style="font-size:65%;baseline-shift:sub"
           id="path240" />
        <path
           d="m 225.51058,272.52341 v -0.34125 c -0.26,-0.36563 -0.6825,-0.585 -1.1375,-0.585 -1.01563,0 -1.69813,0.76375 -1.69813,1.90937 0,1.14563 0.6825,1.90938 1.69813,1.90938 0.4225,0 0.82062,-0.21125 1.05625,-0.56063 v -0.34125 c -0.27625,0.41438 -0.56063,0.56063 -1.05625,0.56063 -0.585,0 -0.98313,-0.62563 -0.98313,-1.56813 0,-0.9425 0.39813,-1.56812 0.98313,-1.56812 0.50375,0 0.845,0.17875 1.1375,0.585 z"
           style="font-size:65%;baseline-shift:sub"
           id="path242" />
      </g>
      <g
         aria-label="BA"
         id="text4675"
         style="line-height:0%;font-family:Iwona;-inkscape-font-specification:Sans;letter-spacing:0px;word-spacing:0px">
        <path
           d="m 255.84398,270.45966 c 0,-1.375 -0.9,-2.1 -2.2125,-2.375 0.9625,-0.2875 1.6,-0.9125 1.6,-1.975 0,-1.525 -1.3125,-2.15 -3,-2.15 -0.65,0 -1.3,0.0375 -1.95,0.125 h -1 v 8.75 h 1 l 1.95,0.125 c 2.025,0 3.6125,-0.6875 3.6125,-2.5 z m -1.6375,-4.35 c 0,1.2625 -1.4125,1.9125 -2.825,1.9125 h -1.075 v -3.3625 c 0.6375,-0.0875 1.2875,-0.125 1.925,-0.125 1.025,0 1.975,0.625 1.975,1.575 z m 0.4125,4.35 c 0,1.15 -1.1375,1.925 -2.3875,1.925 -0.6375,0 -1.2875,-0.0375 -1.925,-0.125 v -3.8 h 1.6125 c 1.375,0 2.7,0.7375 2.7,2 z"
           style="font-size:12.5px;line-height:1.25"
           id="path245" />
        <path
           d="m 264.21897,272.83466 -3.175,-8.75 h -1.0875 l -3.2375,8.75 h 0.6125 l 1.1375,-3.0625 h 3.55 l 1.1125,3.0625 z m -2.4125,-3.6375 h -3.125 l 1.575,-4.275 z"
           style="font-size:12.5px;line-height:1.25"
           id="path247" />
      </g>
      <path
         id="path4681"
         d="m 290.55118,269.29134 3.54331,-3.54331 3.5433,3.54331 -3.5433,3.54331 z"
         style="fill:#0000ff;fill-opacity:1;fill-rule:evenodd;stroke:none;stroke-width:1px;stroke-linecap:butt;stroke-linejoin:miter;stroke-opacity:1" />
      <path
         style="fill:#ff0000;fill-opacity:1;fill-rule:evenodd;stroke:none;stroke-width:1px;stroke-linecap:butt;stroke-linejoin:miter;stroke-opacity:1"
         d="m 343.70079,269.29134 3.54331,-3.5433 3.5433,3.5433 -3.5433,3.54332 z"
         id="path4683" />
      <g
         aria-label="MAprec"
         id="text4685"
         style="line-height:0%;font-family:Iwona;-inkscape-font-specification:Sans;letter-spacing:0px;word-spacing:0px">
        <path
           d="m 311.61862,272.83466 -0.5,-8.75 h -0.825 l -3.5125,7.3875 -3.525,-7.3875 h -0.825 l -0.5,8.75 h 0.575 l 0.4,-7.0875 3.3875,7.0875 h 0.4625 l 3.425,-7.175 0.4125,7.175 z"
           style="font-size:12.5px;line-height:1.25"
           id="path250" />
        <path
           d="m 319.9936,272.83466 -3.175,-8.75 h -1.0875 l -3.2375,8.75 h 0.6125 l 1.1375,-3.0625 h 3.55 l 1.1125,3.0625 z m -2.4125,-3.6375 h -3.125 l 1.575,-4.275 z"
           style="font-size:12.5px;line-height:1.25"
           id="path252" />
        <path
           d="m 323.87234,273.50653 c 0,-1.08062 -0.40625,-1.90937 -1.38937,-1.90937 -0.41438,0 -0.79625,0.18687 -1.12125,0.44687 v -0.36562 h -0.63375 v 5.525 h 0.63375 v -2.00688 c 0.31687,0.13813 0.65812,0.21938 0.99937,0.21938 1.01563,0 1.51125,-0.8125 1.51125,-1.90938 z m -0.715,0 c 0,0.76375 -0.23562,1.56813 -0.90187,1.56813 -0.30875,0 -0.6175,-0.0813 -0.89375,-0.21938 v -2.47 c 0.24375,-0.24375 0.54437,-0.44687 0.89375,-0.44687 0.73937,0 0.90187,0.715 0.90187,1.56812 z"
           style="font-size:65%;baseline-shift:sub"
           id="path254" />
        <path
           d="m 326.99233,272.18216 v -0.50375 c -0.0894,-0.0325 -0.18688,-0.0569 -0.27625,-0.0569 -0.455,0 -0.82063,0.31688 -1.11313,0.66625 v -0.60937 h -0.63375 v 3.65625 h 0.63375 v -2.70563 c 0.24375,-0.28437 0.5525,-0.52812 0.92625,-0.52812 0.15438,0 0.31688,0.0325 0.46313,0.0813 z"
           style="font-size:65%;baseline-shift:sub"
           id="path256" />
        <path
           d="m 330.74607,273.58778 v -0.0813 c 0,-1.14562 -0.62563,-1.90937 -1.56813,-1.90937 -0.95062,0 -1.57625,0.76375 -1.57625,1.90937 0,1.14563 0.62563,1.90938 1.57625,1.90938 0.40625,0 0.80438,-0.13 1.1375,-0.36563 v -0.34125 c -0.38187,0.24375 -0.69062,0.33313 -1.1375,0.33313 -0.69062,0 -0.86125,-0.65813 -0.86125,-1.45438 z m -0.715,-0.34125 h -1.71438 c 0,-0.65 0.27625,-1.30812 0.86125,-1.30812 0.57688,0 0.85313,0.65812 0.85313,1.30812 z"
           style="font-size:65%;baseline-shift:sub"
           id="path258" />
        <path
           d="m 334.43481,272.52341 v -0.34125 c -0.26,-0.36563 -0.6825,-0.585 -1.1375,-0.585 -1.01563,0 -1.69813,0.76375 -1.69813,1.90937 0,1.14563 0.6825,1.90938 1.69813,1.90938 0.4225,0 0.82062,-0.21125 1.05625,-0.56063 v -0.34125 c -0.27625,0.41438 -0.56063,0.56063 -1.05625,0.56063 -0.585,0 -0.98313,-0.62563 -0.98313,-1.56813 0,-0.9425 0.39813,-1.56812 0.98313,-1.56812 0.50375,0 0.845,0.17875 1.1375,0.585 z"
           style="font-size:65%;baseline-shift:sub"
           id="path260" />
      </g>
      <g
         aria-label="MA"
         id="text4691"
         style="line-height:0%;font-family:Iwona;-inkscape-font-specification:Sans;letter-spacing:0px;word-spacing:0px">
        <path
           d="m 364.76822,272.83466 -0.5,-8.75 h -0.825 l -3.5125,7.3875 -3.525,-7.3875 h -0.825 l -0.5,8.75 h 0.575 l 0.4,-7.0875 3.3875,7.0875 h 0.4625 l 3.425,-7.175 0.4125,7.175 z"
           style="font-size:12.5px;line-height:1.25"
           id="path263" />
        <path
           d="m 373.1432,272.83466 -3.175,-8.75 h -1.0875 l -3.2375,8.75 h 0.6125 l 1.1375,-3.0625 h 3.55 l 1.1125,3.0625 z m -2.4125,-3.6375 h -3.125 l 1.575,-4.275 z"
           style="font-size:12.5px;line-height:1.25"
           id="path265" />
      </g>
    </g>
    <path
       style="fill:none;stroke:#666666;stroke-width:1;stroke-linecap:butt;stroke-linejoin:miter;stroke-miterlimit:4;stroke-dasharray:1, 2;stroke-dashoffset:0;stroke-opacity:1"
       d="m 194.88189,159.44883 v 74.40945"
       id="path4790" />
  </g>
</svg>
