<?xml version="1.0" encoding="UTF-8" standalone="no"?>
<!-- Created with Inkscape (http://www.inkscape.org/) -->

<svg
   width="134.28555mm"
   height="162.22061mm"
   id="svg19791"
   version="1.0"
   viewBox="0 0 475.81495 574.79744"
   xmlns="http://www.w3.org/2000/svg"
   xmlns:svg="http://www.w3.org/2000/svg"
   xmlns:rdf="http://www.w3.org/1999/02/22-rdf-syntax-ns#"
   xmlns:cc="http://creativecommons.org/ns#"
   xmlns:dc="http://purl.org/dc/elements/1.1/">
  <defs
     id="defs3">
    <marker
       style="overflow:visible"
       id="marker22529"
       refX="0"
       refY="0"
       orient="auto">
      <path
         transform="matrix(0.4,0,0,0.4,2.96,0.4)"
         style="fill-rule:evenodd;stroke:#000000;stroke-width:1.00000003pt;marker-start:none;marker-end:none"
         d="m -2.5,-1 c 0,2.76 -2.24,5 -5,5 -2.76,0 -5,-2.24 -5,-5 0,-2.76 2.24,-5 5,-5 2.76,0 5,2.24 5,5 z"
         id="path22531" />
    </marker>
    <marker
       style="overflow:visible"
       id="marker18753"
       refX="0"
       refY="0"
       orient="auto">
      <path
         transform="matrix(0.4,0,0,0.4,2.96,0.4)"
         style="fill-rule:evenodd;stroke:#000000;stroke-width:1.00000003pt;marker-start:none;marker-end:none"
         d="m -2.5,-1 c 0,2.76 -2.24,5 -5,5 -2.76,0 -5,-2.24 -5,-5 0,-2.76 2.24,-5 5,-5 2.76,0 5,2.24 5,5 z"
         id="path18755" />
    </marker>
  </defs>
  <metadata
     id="metadata4">
    <rdf:RDF>
      <cc:Work
         rdf:about="">
        <dc:format>image/svg+xml</dc:format>
        <dc:type
           rdf:resource="http://purl.org/dc/dcmitype/StillImage" />
        <dc:title />
      </cc:Work>
    </rdf:RDF>
  </metadata>
  <g
     id="layer1"
     transform="translate(-45.326786,-68.59811)">
    <g
       transform="rotate(90,-105.65918,440.99172)"
       id="g56126">
      <path
         style="fill:none;stroke:#000000;stroke-width:1px;stroke-linecap:butt;stroke-linejoin:miter;stroke-opacity:1"
         d="m 16.734921,-22.541473 38.976378,-3e-6"
         id="path56130" />
      <path
         id="path56134"
         d="m -334.05248,-11.911554 329.5275585,2e-6"
         style="fill:none;stroke:#000000;stroke-width:1px;stroke-linecap:butt;stroke-linejoin:miter;stroke-opacity:1;marker-start:url(#marker18753)" />
      <path
         style="fill:none;stroke:#000000;stroke-width:1px;stroke-linecap:butt;stroke-linejoin:miter;stroke-opacity:1;marker-start:url(#marker18753)"
         d="m -139.17059,-33.171397 134.6456685,3e-6"
         id="path11603" />
      <path
         id="path13997"
         d="m -217.12335,-22.541476 212.5984285,3e-6"
         style="fill:none;stroke:#000000;stroke-width:1px;stroke-linecap:butt;stroke-linejoin:miter;stroke-opacity:1;marker-start:url(#marker18753)" />
      <path
         style="fill:#ffeeaa;fill-opacity:1;stroke:#000000;stroke-width:1px;stroke-linecap:butt;stroke-linejoin:miter;stroke-opacity:1"
         d="m -11.611536,-40.258009 c 7.0866149,10.629922 7.0866149,24.80315 0,35.4330707 7.0866149,4e-7 24.80315,-3.5433067 28.346457,-17.7165347 -3.543307,-14.173229 -21.2598421,-17.716536 -28.346457,-17.716536 z"
         id="path56132" />
    </g>
    <g
       id="g53853"
       transform="rotate(90,-44.76812,98.44318)">
      <path
         style="fill:#ffeeaa;fill-opacity:1;fill-rule:evenodd;stroke:#000000;stroke-width:1px;stroke-linecap:butt;stroke-linejoin:miter;stroke-opacity:1"
         d="M 51.377951,56.360653 V 77.620495 L 70.866142,67.37838 Z"
         id="path53855"
         transform="translate(-44.203438,-91.419854)" />
      <path
         id="path53857"
         style="fill:#ffeeaa;stroke:#000000;stroke-width:0.999213"
         transform="translate(-44.203438,-91.419854)"
         d="m 77.952754,67.37838 a 3.5433071,3.5433071 0 0 1 -3.543307,3.543307 3.5433071,3.5433071 0 0 1 -3.543307,-3.543307 3.5433071,3.5433071 0 0 1 3.543307,-3.543307 3.5433071,3.5433071 0 0 1 3.543307,3.543307 z" />
      <path
         style="fill:none;stroke:#000000;stroke-width:1px;stroke-linecap:butt;stroke-linejoin:miter;stroke-opacity:1;marker-start:url(#marker22529)"
         d="M 24.803153,85.094915 V 67.37838 l 26.574798,-0.387806"
         id="path53859"
         transform="translate(-44.203438,-91.419854)" />
      <path
         style="fill:none;stroke:#000000;stroke-width:1px;stroke-linecap:butt;stroke-linejoin:miter;stroke-opacity:1"
         d="M 77.952756,67.37838 414.77166,67.142158"
         id="path53861"
         transform="translate(-44.203438,-91.419854)" />
    </g>
    <path
       style="fill:none;stroke:#000000;stroke-width:1px;stroke-linecap:butt;stroke-linejoin:miter;stroke-opacity:1"
       d="m 60,106.09448 0.23622,407.68504"
       id="path9016" />
    <path
       id="path9018"
       d="m 113.14961,106.09448 0.23622,407.68504"
       style="fill:none;stroke:#000000;stroke-width:1px;stroke-linecap:butt;stroke-linejoin:miter;stroke-opacity:1" />
    <path
       style="fill:none;stroke:#000000;stroke-width:1px;stroke-linecap:butt;stroke-linejoin:miter;stroke-opacity:1"
       d="m 166.29921,106.09448 0.23622,407.68504"
       id="path9020" />
    <path
       id="path9187"
       d="m 219.44882,106.09448 0.23622,407.68504"
       style="fill:none;stroke:#000000;stroke-width:1px;stroke-linecap:butt;stroke-linejoin:miter;stroke-opacity:1" />
    <g
       transform="rotate(90,-18.193315,125.01798)"
       id="g12436">
      <path
         transform="translate(-44.203438,-91.419854)"
         id="path12438"
         d="M 51.377951,56.360653 V 77.620495 L 70.866142,67.37838 Z"
         style="fill:#ffeeaa;fill-opacity:1;fill-rule:evenodd;stroke:#000000;stroke-width:1px;stroke-linecap:butt;stroke-linejoin:miter;stroke-opacity:1" />
      <path
         id="path12440"
         style="fill:#ffeeaa;stroke:#000000;stroke-width:0.999213"
         transform="translate(-44.203438,-91.419854)"
         d="m 77.952754,67.37838 a 3.5433071,3.5433071 0 0 1 -3.543307,3.543307 3.5433071,3.5433071 0 0 1 -3.543307,-3.543307 3.5433071,3.5433071 0 0 1 3.543307,-3.543307 3.5433071,3.5433071 0 0 1 3.543307,3.543307 z" />
      <path
         transform="translate(-44.203438,-91.419854)"
         id="path12442"
         d="M 24.803153,85.094915 V 67.37838 l 26.574798,-0.387806"
         style="fill:none;stroke:#000000;stroke-width:1px;stroke-linecap:butt;stroke-linejoin:miter;stroke-opacity:1;marker-start:url(#marker22529)" />
      <path
         transform="translate(-44.203438,-91.419854)"
         id="path12444"
         d="M 77.952756,67.37838 414.77166,67.142162"
         style="fill:none;stroke:#000000;stroke-width:1px;stroke-linecap:butt;stroke-linejoin:miter;stroke-opacity:1" />
    </g>
    <g
       id="g12446"
       transform="rotate(90,8.38149,151.59279)">
      <path
         style="fill:#ffeeaa;fill-opacity:1;fill-rule:evenodd;stroke:#000000;stroke-width:1px;stroke-linecap:butt;stroke-linejoin:miter;stroke-opacity:1"
         d="M 51.377951,56.360653 V 77.620495 L 70.866142,67.37838 Z"
         id="path12448"
         transform="translate(-44.203438,-91.419854)" />
      <path
         id="path12450"
         style="fill:#ffeeaa;stroke:#000000;stroke-width:0.999213"
         transform="translate(-44.203438,-91.419854)"
         d="m 77.952754,67.37838 a 3.5433071,3.5433071 0 0 1 -3.543307,3.543307 3.5433071,3.5433071 0 0 1 -3.543307,-3.543307 3.5433071,3.5433071 0 0 1 3.543307,-3.543307 3.5433071,3.5433071 0 0 1 3.543307,3.543307 z" />
      <path
         style="fill:none;stroke:#000000;stroke-width:1px;stroke-linecap:butt;stroke-linejoin:miter;stroke-opacity:1;marker-start:url(#marker22529)"
         d="M 24.803153,85.094915 V 67.37838 l 26.574798,-0.387806"
         id="path12452"
         transform="translate(-44.203438,-91.419854)" />
      <path
         style="fill:none;stroke:#000000;stroke-width:1px;stroke-linecap:butt;stroke-linejoin:miter;stroke-opacity:1"
         d="M 77.952756,67.37838 414.77166,67.142165"
         id="path12454"
         transform="translate(-44.203438,-91.419854)" />
    </g>
    <g
       transform="rotate(90,34.95629,178.16759)"
       id="g12456">
      <path
         transform="translate(-44.203438,-91.419854)"
         id="path12458"
         d="M 51.377951,56.360653 V 77.620495 L 70.866142,67.37838 Z"
         style="fill:#ffeeaa;fill-opacity:1;fill-rule:evenodd;stroke:#000000;stroke-width:1px;stroke-linecap:butt;stroke-linejoin:miter;stroke-opacity:1" />
      <path
         id="path12460"
         style="fill:#ffeeaa;stroke:#000000;stroke-width:0.999213"
         transform="translate(-44.203438,-91.419854)"
         d="m 77.952754,67.37838 a 3.5433071,3.5433071 0 0 1 -3.543307,3.543307 3.5433071,3.5433071 0 0 1 -3.543307,-3.543307 3.5433071,3.5433071 0 0 1 3.543307,-3.543307 3.5433071,3.5433071 0 0 1 3.543307,3.543307 z" />
      <path
         transform="translate(-44.203438,-91.419854)"
         id="path12462"
         d="M 24.803153,85.094915 V 67.37838 l 26.574798,-0.387806"
         style="fill:none;stroke:#000000;stroke-width:1px;stroke-linecap:butt;stroke-linejoin:miter;stroke-opacity:1;marker-start:url(#marker22529)" />
      <path
         transform="translate(-44.203438,-91.419854)"
         id="path12464"
         d="M 77.952756,67.37838 414.77166,67.142159"
         style="fill:none;stroke:#000000;stroke-width:1px;stroke-linecap:butt;stroke-linejoin:miter;stroke-opacity:1" />
    </g>
    <g
       transform="translate(-10.86614,-17.921252)"
       id="g12724">
      <g
         aria-label="BA"
         id="text12420"
         style="line-height:0%;font-family:Iwona;-inkscape-font-specification:Iwona;text-align:center;text-anchor:middle">
        <path
           d="m 69.994167,99.845977 c 0,-1.32 -0.864,-2.016 -2.124,-2.28 0.924,-0.276 1.536,-0.876 1.536,-1.896 0,-1.464 -1.26,-2.064 -2.88,-2.064 -0.624,0 -1.248,0.036 -1.872,0.12 h -0.96 v 8.400003 h 0.96 l 1.872,0.12 c 1.944,0 3.468,-0.66 3.468,-2.400003 z m -1.572,-4.176 c 0,1.212 -1.356,1.836 -2.712,1.836 h -1.032 v -3.228 c 0.612,-0.084 1.236,-0.12 1.848,-0.12 0.984,0 1.896,0.6 1.896,1.512 z m 0.396,4.176 c 0,1.104003 -1.092,1.848003 -2.292,1.848003 -0.612,0 -1.236,-0.036 -1.848,-0.12 v -3.648003 h 1.548 c 1.32,0 2.592,0.708 2.592,1.92 z"
           style="font-size:12px;line-height:1.25"
           id="path864" />
        <path
           d="m 78.034161,102.12598 -3.048,-8.400003 h -1.044 l -3.108,8.400003 h 0.588 l 1.092,-2.940003 h 3.408 l 1.068,2.940003 z m -2.316,-3.492003 h -3 l 1.512,-4.104 z"
           style="font-size:12px;line-height:1.25"
           id="path866" />
      </g>
      <g
         transform="translate(-318.89764,-159.44881)"
         id="g12716">
        <path
           id="path12722"
           d="m 396.8504,265.74802 h -14.17322 v 10.62992 l 7.08661,7.08661 7.08661,-7.08661 z"
           style="fill:#d5f6ff;fill-opacity:1;stroke:#000000;stroke-width:1px;stroke-linecap:butt;stroke-linejoin:miter;stroke-opacity:1" />
      </g>
    </g>
    <g
       id="g12730"
       transform="translate(42.28346,-17.921252)">
      <g
         aria-label="BR"
         id="text12732"
         style="line-height:0%;font-family:Iwona;-inkscape-font-specification:Iwona;text-align:center;text-anchor:middle">
        <path
           d="m 69.790165,99.845977 c 0,-1.32 -0.864,-2.016 -2.124,-2.28 0.924,-0.276 1.536,-0.876 1.536,-1.896 0,-1.464 -1.26,-2.064 -2.88,-2.064 -0.624,0 -1.248,0.036 -1.872,0.12 h -0.96 v 8.400003 h 0.96 l 1.872,0.12 c 1.944,0 3.468,-0.66 3.468,-2.400003 z m -1.572,-4.176 c 0,1.212 -1.356,1.836 -2.712,1.836 h -1.032 v -3.228 c 0.612,-0.084 1.236,-0.12 1.848,-0.12 0.984,0 1.896,0.6 1.896,1.512 z m 0.396,4.176 c 0,1.104003 -1.092,1.848003 -2.292,1.848003 -0.612,0 -1.236,-0.036 -1.848,-0.12 v -3.648003 h 1.548 c 1.32,0 2.592,0.708 2.592,1.92 z"
           style="font-size:12px;line-height:1.25"
           id="path869" />
        <path
           d="m 78.238159,102.12598 -2.556,-3.804003 c 1.308,-0.252 2.208,-0.972 2.208,-2.316 0,-1.692 -1.452,-2.4 -3.336,-2.4 -0.672,0 -1.344,0.036 -2.004,0.12 h -0.96 v 8.400003 h 0.984 v -3.900003 c 0.648,0.12 1.32,0.192 1.98,0.192 l 2.508,3.708003 z m -1.524,-6.120003 c 0,1.092 -1.02,1.86 -2.16,1.86 -0.66,0 -1.332,-0.072 -1.98,-0.192 v -3.396 c 0.66,-0.084 1.32,-0.12 1.98,-0.12 1.14,0 2.16,0.768 2.16,1.848 z"
           style="font-size:12px;line-height:1.25"
           id="path871" />
      </g>
      <g
         id="g12736"
         transform="translate(-318.89764,-159.44881)">
        <path
           style="fill:#d5f6ff;fill-opacity:1;stroke:#000000;stroke-width:1px;stroke-linecap:butt;stroke-linejoin:miter;stroke-opacity:1"
           d="m 396.8504,265.74802 h -14.17322 v 10.62992 l 7.08661,7.08661 7.08661,-7.08661 z"
           id="path12738" />
      </g>
    </g>
    <g
       transform="translate(95.43307,-17.921252)"
       id="g12740">
      <g
         aria-label="BG"
         id="text12742"
         style="line-height:0%;font-family:Iwona;-inkscape-font-specification:Iwona;text-align:center;text-anchor:middle">
        <path
           d="m 69.346169,99.845977 c 0,-1.32 -0.864,-2.016 -2.124,-2.28 0.924,-0.276 1.536,-0.876 1.536,-1.896 0,-1.464 -1.26,-2.064 -2.88,-2.064 -0.624,0 -1.248,0.036 -1.872,0.12 h -0.96 v 8.400003 h 0.96 l 1.872,0.12 c 1.944,0 3.468,-0.66 3.468,-2.400003 z m -1.572,-4.176 c 0,1.212 -1.356,1.836 -2.712,1.836 h -1.032 v -3.228 c 0.612,-0.084 1.236,-0.12 1.848,-0.12 0.984,0 1.896,0.6 1.896,1.512 z m 0.396,4.176 c 0,1.104003 -1.092,1.848003 -2.292,1.848003 -0.612,0 -1.236,-0.036 -1.848,-0.12 v -3.648003 h 1.548 c 1.32,0 2.592,0.708 2.592,1.92 z"
           style="font-size:12px;line-height:1.25"
           id="path874" />
        <path
           d="m 77.842162,102.12598 v -3.528003 h -0.984 v 2.316003 c -0.624,0.504 -1.392,0.78 -2.196,0.78 -1.908,0 -2.7,-1.644 -2.7,-3.768003 0,-2.124 0.792,-3.768 2.7,-3.768 1.128,0 2.196,0.444 2.988,1.248 v -0.552 c -0.792,-0.804 -1.86,-1.248 -2.988,-1.248 -2.472,0 -3.876,1.752 -3.876,4.32 0,2.568003 1.404,4.320003 3.876,4.320003 0.804,0 1.572,-0.276 2.196,-0.78 v 0.66 z"
           style="font-size:12px;line-height:1.25"
           id="path876" />
      </g>
      <g
         transform="translate(-318.89764,-159.44881)"
         id="g12746">
        <path
           id="path12748"
           d="m 396.8504,265.74802 h -14.17322 v 10.62992 l 7.08661,7.08661 7.08661,-7.08661 z"
           style="fill:#d5f6ff;fill-opacity:1;stroke:#000000;stroke-width:1px;stroke-linecap:butt;stroke-linejoin:miter;stroke-opacity:1" />
      </g>
    </g>
    <g
       id="g12750"
       transform="translate(148.58267,-17.921252)">
      <g
         aria-label="BD"
         id="text12752"
         style="line-height:0%;font-family:Iwona;-inkscape-font-specification:Iwona;text-align:center;text-anchor:middle">
        <path
           d="m 69.226166,99.845977 c 0,-1.32 -0.864,-2.016 -2.124,-2.28 0.924,-0.276 1.536,-0.876 1.536,-1.896 0,-1.464 -1.26,-2.064 -2.88,-2.064 -0.624,0 -1.248,0.036 -1.872,0.12 h -0.96 v 8.400003 h 0.96 l 1.872,0.12 c 1.944,0 3.468,-0.66 3.468,-2.400003 z m -1.572,-4.176 c 0,1.212 -1.356,1.836 -2.712,1.836 h -1.032 v -3.228 c 0.612,-0.084 1.236,-0.12 1.848,-0.12 0.984,0 1.896,0.6 1.896,1.512 z m 0.396,4.176 c 0,1.104003 -1.092,1.848003 -2.292,1.848003 -0.612,0 -1.236,-0.036 -1.848,-0.12 v -3.648003 h 1.548 c 1.32,0 2.592,0.708 2.592,1.92 z"
           style="font-size:12px;line-height:1.25"
           id="path879" />
        <path
           d="m 78.202159,97.925977 c 0,-2.568 -1.404,-4.32 -3.876,-4.32 -0.744,0 -1.488,0.036 -2.22,0.12 h -0.96 v 8.400003 h 0.96 c 0.732,0.084 1.476,0.12 2.22,0.12 2.472,0 3.876,-1.752 3.876,-4.320003 z m -1.176,0 c 0,1.908 -0.972,3.768003 -2.7,3.768003 -0.732,0 -1.464,-0.036 -2.196,-0.12 v -7.296003 c 0.732,-0.084 1.464,-0.12 2.196,-0.12 1.728,0 2.7,1.86 2.7,3.768 z"
           style="font-size:12px;line-height:1.25"
           id="path881" />
      </g>
      <g
         id="g12756"
         transform="translate(-318.89764,-159.44881)">
        <path
           style="fill:#d5f6ff;fill-opacity:1;stroke:#000000;stroke-width:1px;stroke-linecap:butt;stroke-linejoin:miter;stroke-opacity:1"
           d="m 396.8504,265.74802 h -14.17322 v 10.62992 l 7.08661,7.08661 7.08661,-7.08661 z"
           id="path12758" />
      </g>
    </g>
    <g
       transform="translate(302.54854,235.22651)"
       id="g12488">
      <path
         style="fill:none;stroke:#000000;stroke-width:1px;stroke-linecap:butt;stroke-linejoin:miter;stroke-opacity:1;marker-start:url(#marker22529)"
         d="M -242.31232,-33.258012 H -26.170587"
         id="path12490" />
      <path
         style="fill:none;stroke:#000000;stroke-width:1px;stroke-linecap:butt;stroke-linejoin:miter;stroke-opacity:1"
         d="M 2.1758694,-22.628091 H 211.23099"
         id="path12492" />
      <path
         style="fill:#ffeeaa;fill-opacity:1;stroke:#000000;stroke-width:1px;stroke-linecap:butt;stroke-linejoin:miter;stroke-opacity:1"
         d="m -26.170587,-40.911555 v 35.9999999 h 3.543306 c 3.543307,0 24.2669248,1.3e-6 24.2669248,-17.9999989 0,-18 -20.7236178,-18.000001 -24.2669248,-18.000001 0,0 -3.543306,0 -3.543306,0 z"
         id="path12494" />
      <path
         style="fill:none;stroke:#000000;stroke-width:0.999213;stroke-linecap:butt;stroke-linejoin:miter;stroke-miterlimit:4;stroke-dasharray:none;stroke-opacity:1;marker-start:url(#marker18753)"
         d="M -171.44618,-26.171398 H -26.446178"
         id="path12496" />
      <path
         id="path12498"
         d="m -65.146965,-11.998169 h 38.976378"
         style="fill:none;stroke:#000000;stroke-width:0.999213;stroke-linecap:butt;stroke-linejoin:miter;stroke-miterlimit:4;stroke-dasharray:none;stroke-opacity:1;marker-start:url(#marker18753)" />
      <path
         style="fill:none;stroke:#000000;stroke-width:0.999213;stroke-linecap:butt;stroke-linejoin:miter;stroke-miterlimit:4;stroke-dasharray:none;stroke-opacity:1;marker-start:url(#marker18753)"
         d="m -118.29657,-19.084783 h 92.125983"
         id="path6483" />
    </g>
    <g
       id="g6686"
       transform="translate(24.409432,-36.102361)">
      <g
         aria-label="MGA"
         id="text6631"
         style="line-height:0%;font-family:Iwona;-inkscape-font-specification:Iwona;text-align:center;text-anchor:middle">
        <path
           d="m 329.4846,672.29132 -0.48,-8.4 h -0.792 l -3.372,7.092 -3.384,-7.092 h -0.792 l -0.48,8.4 h 0.552 l 0.384,-6.804 3.252,6.804 h 0.444 l 3.288,-6.888 0.396,6.888 z"
           style="font-size:12px;line-height:1.25"
           id="path884" />
        <path
           d="m 337.98058,672.29132 v -3.528 h -0.984 v 2.316 c -0.624,0.504 -1.392,0.78 -2.196,0.78 -1.908,0 -2.7,-1.644 -2.7,-3.768 0,-2.124 0.792,-3.768 2.7,-3.768 1.128,0 2.196,0.444 2.988,1.248 v -0.552 c -0.792,-0.804 -1.86,-1.248 -2.988,-1.248 -2.472,0 -3.876,1.752 -3.876,4.32 0,2.568 1.404,4.32 3.876,4.32 0.804,0 1.572,-0.276 2.196,-0.78 v 0.66 z"
           style="font-size:12px;line-height:1.25"
           id="path886" />
        <path
           d="m 346.26057,672.29132 -3.048,-8.4 h -1.044 l -3.108,8.4 h 0.588 l 1.092,-2.94 h 3.408 l 1.068,2.94 z m -2.316,-3.492 h -3 l 1.512,-4.104 z"
           style="font-size:12px;line-height:1.25"
           id="path888" />
      </g>
      <g
         id="g6635"
         transform="translate(-56.29921,372.71654)">
        <path
           style="fill:#d5f6ff;fill-opacity:1;stroke:#000000;stroke-width:1px;stroke-linecap:butt;stroke-linejoin:miter;stroke-opacity:1"
           d="m 396.8504,265.74802 h -14.17322 v 10.62992 l 7.08661,7.08661 7.08661,-7.08661 z"
           id="path6637" />
      </g>
    </g>
    <g
       id="g6692"
       transform="translate(13.779525,-36.102359)">
      <g
         aria-label="MGR"
         id="text6641"
         style="line-height:0%;font-family:Iwona;-inkscape-font-specification:Iwona;text-align:center;text-anchor:middle">
        <path
           d="m 382.43019,672.29132 -0.48,-8.4 h -0.792 l -3.372,7.092 -3.384,-7.092 h -0.792 l -0.48,8.4 h 0.552 l 0.384,-6.804 3.252,6.804 h 0.444 l 3.288,-6.888 0.396,6.888 z"
           style="font-size:12px;line-height:1.25"
           id="path891" />
        <path
           d="m 390.92618,672.29132 v -3.528 h -0.984 v 2.316 c -0.624,0.504 -1.392,0.78 -2.196,0.78 -1.908,0 -2.7,-1.644 -2.7,-3.768 0,-2.124 0.792,-3.768 2.7,-3.768 1.128,0 2.196,0.444 2.988,1.248 v -0.552 c -0.792,-0.804 -1.86,-1.248 -2.988,-1.248 -2.472,0 -3.876,1.752 -3.876,4.32 0,2.568 1.404,4.32 3.876,4.32 0.804,0 1.572,-0.276 2.196,-0.78 v 0.66 z"
           style="font-size:12px;line-height:1.25"
           id="path893" />
        <path
           d="m 399.61416,672.29132 -2.556,-3.804 c 1.308,-0.252 2.208,-0.972 2.208,-2.316 0,-1.692 -1.452,-2.4 -3.336,-2.4 -0.672,0 -1.344,0.036 -2.004,0.12 h -0.96 v 8.4 h 0.984 v -3.9 c 0.648,0.12 1.32,0.192 1.98,0.192 l 2.508,3.708 z m -1.524,-6.12 c 0,1.092 -1.02,1.86 -2.16,1.86 -0.66,0 -1.332,-0.072 -1.98,-0.192 v -3.396 c 0.66,-0.084 1.32,-0.12 1.98,-0.12 1.14,0 2.16,0.768 2.16,1.848 z"
           style="font-size:12px;line-height:1.25"
           id="path895" />
      </g>
      <g
         transform="translate(-3.14961,372.71654)"
         id="g6645">
        <path
           id="path6647"
           d="m 396.8504,265.74802 h -14.17322 v 10.62992 l 7.08661,7.08661 7.08661,-7.08661 z"
           style="fill:#d5f6ff;fill-opacity:1;stroke:#000000;stroke-width:1px;stroke-linecap:butt;stroke-linejoin:miter;stroke-opacity:1" />
      </g>
    </g>
    <g
       id="g6698"
       transform="translate(3.1495913,-36.102359)">
      <g
         aria-label="MDA"
         id="text6651"
         style="line-height:0%;font-family:Iwona;-inkscape-font-specification:Iwona;text-align:center;text-anchor:middle">
        <path
           d="m 435.80782,672.29132 -0.48,-8.4 h -0.792 l -3.372,7.092 -3.384,-7.092 h -0.792 l -0.48,8.4 h 0.552 l 0.384,-6.804 3.252,6.804 h 0.444 l 3.288,-6.888 0.396,6.888 z"
           style="font-size:12px;line-height:1.25"
           id="path898" />
        <path
           d="m 444.78381,668.09132 c 0,-2.568 -1.404,-4.32 -3.876,-4.32 -0.744,0 -1.488,0.036 -2.22,0.12 h -0.96 v 8.4 h 0.96 c 0.732,0.084 1.476,0.12 2.22,0.12 2.472,0 3.876,-1.752 3.876,-4.32 z m -1.176,0 c 0,1.908 -0.972,3.768 -2.7,3.768 -0.732,0 -1.464,-0.036 -2.196,-0.12 v -7.296 c 0.732,-0.084 1.464,-0.12 2.196,-0.12 1.728,0 2.7,1.86 2.7,3.768 z"
           style="font-size:12px;line-height:1.25"
           id="path900" />
        <path
           d="m 452.53579,672.29132 -3.048,-8.4 h -1.044 l -3.108,8.4 h 0.588 l 1.092,-2.94 h 3.408 l 1.068,2.94 z m -2.316,-3.492 h -3 l 1.512,-4.104 z"
           style="font-size:12px;line-height:1.25"
           id="path902" />
      </g>
      <path
         id="path6657"
         d="m 446.8504,638.46456 h -14.17322 v 10.62992 l 7.08661,7.08661 7.08661,-7.08661 z"
         style="fill:#d5f6ff;fill-opacity:1;stroke:#000000;stroke-width:1px;stroke-linecap:butt;stroke-linejoin:miter;stroke-opacity:1" />
    </g>
    <g
       id="g6703"
       transform="translate(-7.4803154,-36.102359)">
      <g
         aria-label="MDR"
         id="text6661"
         style="line-height:0%;font-family:Iwona;-inkscape-font-specification:Iwona;text-align:center;text-anchor:middle">
        <path
           d="m 488.60942,672.29132 -0.48,-8.4 h -0.792 l -3.372,7.092 -3.384,-7.092 h -0.792 l -0.48,8.4 h 0.552 l 0.384,-6.804 3.252,6.804 h 0.444 l 3.288,-6.888 0.396,6.888 z"
           style="font-size:12px;line-height:1.25"
           id="path905" />
        <path
           d="m 497.5854,668.09132 c 0,-2.568 -1.404,-4.32 -3.876,-4.32 -0.744,0 -1.488,0.036 -2.22,0.12 h -0.96 v 8.4 h 0.96 c 0.732,0.084 1.476,0.12 2.22,0.12 2.472,0 3.876,-1.752 3.876,-4.32 z m -1.176,0 c 0,1.908 -0.972,3.768 -2.7,3.768 -0.732,0 -1.464,-0.036 -2.196,-0.12 v -7.296 c 0.732,-0.084 1.464,-0.12 2.196,-0.12 1.728,0 2.7,1.86 2.7,3.768 z"
           style="font-size:12px;line-height:1.25"
           id="path907" />
        <path
           d="m 506.03339,672.29132 -2.556,-3.804 c 1.308,-0.252 2.208,-0.972 2.208,-2.316 0,-1.692 -1.452,-2.4 -3.336,-2.4 -0.672,0 -1.344,0.036 -2.004,0.12 h -0.96 v 8.4 h 0.984 v -3.9 c 0.648,0.12 1.32,0.192 1.98,0.192 l 2.508,3.708 z m -1.524,-6.12 c 0,1.092 -1.02,1.86 -2.16,1.86 -0.66,0 -1.332,-0.072 -1.98,-0.192 v -3.396 c 0.66,-0.084 1.32,-0.12 1.98,-0.12 1.14,0 2.16,0.768 2.16,1.848 z"
           style="font-size:12px;line-height:1.25"
           id="path909" />
      </g>
      <g
         transform="translate(103.1496,372.71654)"
         id="g6665">
        <path
           id="path6667"
           d="m 396.8504,265.74802 h -14.17322 v 10.62992 l 7.08661,7.08661 7.08661,-7.08661 z"
           style="fill:#d5f6ff;fill-opacity:1;stroke:#000000;stroke-width:1px;stroke-linecap:butt;stroke-linejoin:miter;stroke-opacity:1" />
      </g>
    </g>
    <g
       id="g13899"
       transform="translate(302.54854,274.20289)">
      <path
         id="path13901"
         d="m -224.59578,-33.258014 198.425193,2e-6"
         style="fill:none;stroke:#000000;stroke-width:1px;stroke-linecap:butt;stroke-linejoin:miter;stroke-opacity:1;marker-start:url(#marker22529)" />
      <path
         id="path13903"
         d="M 2.1758694,-22.628091 H 211.23099"
         style="fill:none;stroke:#000000;stroke-width:1px;stroke-linecap:butt;stroke-linejoin:miter;stroke-opacity:1" />
      <path
         id="path13905"
         d="m -26.170587,-40.911555 v 35.9999999 h 3.543306 c 3.543307,0 24.2669248,1.3e-6 24.2669248,-17.9999989 0,-18 -20.7236178,-18.000001 -24.2669248,-18.000001 0,0 -3.543306,0 -3.543306,0 z"
         style="fill:#ffeeaa;fill-opacity:1;stroke:#000000;stroke-width:1px;stroke-linecap:butt;stroke-linejoin:miter;stroke-opacity:1" />
      <path
         id="path13907"
         d="m -189.16271,-26.1714 162.716532,2e-6"
         style="fill:none;stroke:#000000;stroke-width:0.999213;stroke-linecap:butt;stroke-linejoin:miter;stroke-miterlimit:4;stroke-dasharray:none;stroke-opacity:1;marker-start:url(#marker18753)" />
      <path
         style="fill:none;stroke:#000000;stroke-width:0.999213;stroke-linecap:butt;stroke-linejoin:miter;stroke-miterlimit:4;stroke-dasharray:none;stroke-opacity:1;marker-start:url(#marker18753)"
         d="m -65.146965,-11.998169 h 38.976378"
         id="path13909" />
      <path
         id="path13911"
         d="m -118.29657,-19.084783 h 92.125983"
         style="fill:none;stroke:#000000;stroke-width:0.999213;stroke-linecap:butt;stroke-linejoin:miter;stroke-miterlimit:4;stroke-dasharray:none;stroke-opacity:1;marker-start:url(#marker18753)" />
    </g>
    <g
       transform="translate(302.54854,313.17927)"
       id="g13913">
      <path
         style="fill:none;stroke:#000000;stroke-width:1px;stroke-linecap:butt;stroke-linejoin:miter;stroke-opacity:1;marker-start:url(#marker22529)"
         d="m -224.59578,-33.258014 198.425193,2e-6"
         id="path13915" />
      <path
         style="fill:none;stroke:#000000;stroke-width:1px;stroke-linecap:butt;stroke-linejoin:miter;stroke-opacity:1"
         d="M 2.1758694,-22.628091 H 211.23099"
         id="path13917" />
      <path
         style="fill:#ffeeaa;fill-opacity:1;stroke:#000000;stroke-width:1px;stroke-linecap:butt;stroke-linejoin:miter;stroke-opacity:1"
         d="m -26.170587,-40.911555 v 35.9999999 h 3.543306 c 3.543307,0 24.2669248,1.3e-6 24.2669248,-17.9999989 0,-18 -20.7236178,-18.000001 -24.2669248,-18.000001 0,0 -3.543306,0 -3.543306,0 z"
         id="path13919" />
      <path
         style="fill:none;stroke:#000000;stroke-width:0.999213;stroke-linecap:butt;stroke-linejoin:miter;stroke-miterlimit:4;stroke-dasharray:none;stroke-opacity:1;marker-start:url(#marker18753)"
         d="m -171.44618,-26.171402 145.000002,4e-6"
         id="path13921" />
      <path
         id="path13923"
         d="m -65.146965,-11.998169 h 38.976378"
         style="fill:none;stroke:#000000;stroke-width:0.999213;stroke-linecap:butt;stroke-linejoin:miter;stroke-miterlimit:4;stroke-dasharray:none;stroke-opacity:1;marker-start:url(#marker18753)" />
      <path
         style="fill:none;stroke:#000000;stroke-width:0.999213;stroke-linecap:butt;stroke-linejoin:miter;stroke-miterlimit:4;stroke-dasharray:none;stroke-opacity:1;marker-start:url(#marker18753)"
         d="m -136.01311,-19.084788 109.842523,5e-6"
         id="path13925" />
    </g>
    <g
       id="g13927"
       transform="translate(302.54854,352.15564)">
      <path
         id="path13929"
         d="m -224.59578,-33.258014 198.425193,2e-6"
         style="fill:none;stroke:#000000;stroke-width:1px;stroke-linecap:butt;stroke-linejoin:miter;stroke-opacity:1;marker-start:url(#marker22529)" />
      <path
         id="path13931"
         d="M 2.1758694,-22.628091 H 211.23099"
         style="fill:none;stroke:#000000;stroke-width:1px;stroke-linecap:butt;stroke-linejoin:miter;stroke-opacity:1" />
      <path
         id="path13933"
         d="m -26.170587,-40.911555 v 35.9999999 h 3.543306 c 3.543307,0 24.2669248,1.3e-6 24.2669248,-17.9999989 0,-18 -20.7236178,-18.000001 -24.2669248,-18.000001 0,0 -3.543306,0 -3.543306,0 z"
         style="fill:#ffeeaa;fill-opacity:1;stroke:#000000;stroke-width:1px;stroke-linecap:butt;stroke-linejoin:miter;stroke-opacity:1" />
      <path
         id="path13935"
         d="m -171.44618,-26.171402 145.000002,4e-6"
         style="fill:none;stroke:#000000;stroke-width:0.999213;stroke-linecap:butt;stroke-linejoin:miter;stroke-miterlimit:4;stroke-dasharray:none;stroke-opacity:1;marker-start:url(#marker18753)" />
      <path
         style="fill:none;stroke:#000000;stroke-width:0.999213;stroke-linecap:butt;stroke-linejoin:miter;stroke-miterlimit:4;stroke-dasharray:none;stroke-opacity:1;marker-start:url(#marker18753)"
         d="m -82.863501,-11.998165 56.692914,-4e-6"
         id="path13937" />
      <path
         id="path13939"
         d="m -118.29657,-19.08478 92.125983,-3e-6"
         style="fill:none;stroke:#000000;stroke-width:0.999213;stroke-linecap:butt;stroke-linejoin:miter;stroke-miterlimit:4;stroke-dasharray:none;stroke-opacity:1;marker-start:url(#marker18753)" />
    </g>
    <g
       transform="translate(302.54854,391.13202)"
       id="g13941">
      <path
         style="fill:none;stroke:#000000;stroke-width:1px;stroke-linecap:butt;stroke-linejoin:miter;stroke-opacity:1;marker-start:url(#marker22529)"
         d="m -242.31232,-33.25801 216.141733,-2e-6"
         id="path13943" />
      <path
         style="fill:none;stroke:#000000;stroke-width:1px;stroke-linecap:butt;stroke-linejoin:miter;stroke-opacity:1"
         d="M 2.1758694,-22.628091 H 211.23099"
         id="path13945" />
      <path
         style="fill:#ffeeaa;fill-opacity:1;stroke:#000000;stroke-width:1px;stroke-linecap:butt;stroke-linejoin:miter;stroke-opacity:1"
         d="m -26.170587,-40.911555 v 35.9999999 h 3.543306 c 3.543307,0 24.2669248,1.3e-6 24.2669248,-17.9999989 0,-18 -20.7236178,-18.000001 -24.2669248,-18.000001 0,0 -3.543306,0 -3.543306,0 z"
         id="path13947" />
      <path
         style="fill:none;stroke:#000000;stroke-width:0.999213;stroke-linecap:butt;stroke-linejoin:miter;stroke-miterlimit:4;stroke-dasharray:none;stroke-opacity:1;marker-start:url(#marker18753)"
         d="m -171.44618,-26.171402 145.000002,4e-6"
         id="path13949" />
      <path
         id="path13951"
         d="m -65.146965,-11.998167 38.976378,-2e-6"
         style="fill:none;stroke:#000000;stroke-width:0.999213;stroke-linecap:butt;stroke-linejoin:miter;stroke-miterlimit:4;stroke-dasharray:none;stroke-opacity:1;marker-start:url(#marker18753)" />
      <path
         style="fill:none;stroke:#000000;stroke-width:0.999213;stroke-linecap:butt;stroke-linejoin:miter;stroke-miterlimit:4;stroke-dasharray:none;stroke-opacity:1;marker-start:url(#marker18753)"
         d="m -136.01311,-19.084782 109.842523,-1e-6"
         id="path13953" />
    </g>
    <g
       id="g13955"
       transform="translate(302.82413,430.1084)">
      <path
         id="path13957"
         d="m -242.31232,-33.25801 216.141733,-2e-6"
         style="fill:none;stroke:#000000;stroke-width:1px;stroke-linecap:butt;stroke-linejoin:miter;stroke-opacity:1;marker-start:url(#marker22529)" />
      <path
         id="path13959"
         d="M 2.1758694,-22.628091 H 211.23099"
         style="fill:none;stroke:#000000;stroke-width:1px;stroke-linecap:butt;stroke-linejoin:miter;stroke-opacity:1" />
      <path
         id="path13961"
         d="m -26.170587,-40.911555 v 35.9999999 h 3.543306 c 3.543307,0 24.2669248,1.3e-6 24.2669248,-17.9999989 0,-18 -20.7236178,-18.000001 -24.2669248,-18.000001 0,0 -3.543306,0 -3.543306,0 z"
         style="fill:#ffeeaa;fill-opacity:1;stroke:#000000;stroke-width:1px;stroke-linecap:butt;stroke-linejoin:miter;stroke-opacity:1" />
      <path
         id="path13963"
         d="m -171.44618,-26.171402 145.000002,4e-6"
         style="fill:none;stroke:#000000;stroke-width:0.999213;stroke-linecap:butt;stroke-linejoin:miter;stroke-miterlimit:4;stroke-dasharray:none;stroke-opacity:1;marker-start:url(#marker18753)" />
      <path
         style="fill:none;stroke:#000000;stroke-width:0.999213;stroke-linecap:butt;stroke-linejoin:miter;stroke-miterlimit:4;stroke-dasharray:none;stroke-opacity:1;marker-start:url(#marker18753)"
         d="m -83.139091,-11.99817 56.968504,10e-7"
         id="path13965" />
      <path
         id="path13967"
         d="m -118.57216,-19.084784 92.401573,10e-7"
         style="fill:none;stroke:#000000;stroke-width:0.999213;stroke-linecap:butt;stroke-linejoin:miter;stroke-miterlimit:4;stroke-dasharray:none;stroke-opacity:1;marker-start:url(#marker18753)" />
    </g>
    <g
       id="g13969"
       transform="translate(302.54854,469.08478)">
      <path
         id="path13971"
         d="m -224.59578,-33.258014 198.425193,2e-6"
         style="fill:none;stroke:#000000;stroke-width:1px;stroke-linecap:butt;stroke-linejoin:miter;stroke-opacity:1;marker-start:url(#marker22529)" />
      <path
         id="path13973"
         d="M 2.1758694,-22.628091 H 211.23099"
         style="fill:none;stroke:#000000;stroke-width:1px;stroke-linecap:butt;stroke-linejoin:miter;stroke-opacity:1" />
      <path
         id="path13975"
         d="m -26.170587,-40.911555 v 35.9999999 h 3.543306 c 3.543307,0 24.2669248,1.3e-6 24.2669248,-17.9999989 0,-18 -20.7236178,-18.000001 -24.2669248,-18.000001 0,0 -3.543306,0 -3.543306,0 z"
         style="fill:#ffeeaa;fill-opacity:1;stroke:#000000;stroke-width:1px;stroke-linecap:butt;stroke-linejoin:miter;stroke-opacity:1" />
      <path
         id="path13977"
         d="m -189.16271,-26.1714 162.716532,2e-6"
         style="fill:none;stroke:#000000;stroke-width:0.999213;stroke-linecap:butt;stroke-linejoin:miter;stroke-miterlimit:4;stroke-dasharray:none;stroke-opacity:1;marker-start:url(#marker18753)" />
      <path
         style="fill:none;stroke:#000000;stroke-width:0.999213;stroke-linecap:butt;stroke-linejoin:miter;stroke-miterlimit:4;stroke-dasharray:none;stroke-opacity:1;marker-start:url(#marker18753)"
         d="m -65.146965,-11.998167 38.976378,-2e-6"
         id="path13979" />
      <path
         id="path13981"
         d="m -136.01311,-19.084782 109.842523,-1e-6"
         style="fill:none;stroke:#000000;stroke-width:0.999213;stroke-linecap:butt;stroke-linejoin:miter;stroke-miterlimit:4;stroke-dasharray:none;stroke-opacity:1;marker-start:url(#marker18753)" />
    </g>
    <g
       transform="translate(302.82413,508.06116)"
       id="g13983">
      <path
         style="fill:none;stroke:#000000;stroke-width:1px;stroke-linecap:butt;stroke-linejoin:miter;stroke-opacity:1;marker-start:url(#marker22529)"
         d="m -224.87137,-33.258016 198.700783,4e-6"
         id="path13985" />
      <path
         style="fill:none;stroke:#000000;stroke-width:1px;stroke-linecap:butt;stroke-linejoin:miter;stroke-opacity:1"
         d="M 2.1758694,-22.628091 H 211.23099"
         id="path13987" />
      <path
         style="fill:#ffeeaa;fill-opacity:1;stroke:#000000;stroke-width:1px;stroke-linecap:butt;stroke-linejoin:miter;stroke-opacity:1"
         d="m -26.170587,-40.911555 v 35.9999999 h 3.543306 c 3.543307,0 24.2669248,1.3e-6 24.2669248,-17.9999989 0,-18 -20.7236178,-18.000001 -24.2669248,-18.000001 0,0 -3.543306,0 -3.543306,0 z"
         id="path13989" />
      <path
         style="fill:none;stroke:#000000;stroke-width:0.999213;stroke-linecap:butt;stroke-linejoin:miter;stroke-miterlimit:4;stroke-dasharray:none;stroke-opacity:1;marker-start:url(#marker18753)"
         d="m -189.4383,-26.171402 162.992122,4e-6"
         id="path13991" />
      <path
         id="path13993"
         d="m -83.139091,-11.99817 56.968504,10e-7"
         style="fill:none;stroke:#000000;stroke-width:0.999213;stroke-linecap:butt;stroke-linejoin:miter;stroke-miterlimit:4;stroke-dasharray:none;stroke-opacity:1;marker-start:url(#marker18753)" />
      <path
         style="fill:none;stroke:#000000;stroke-width:0.999213;stroke-linecap:butt;stroke-linejoin:miter;stroke-miterlimit:4;stroke-dasharray:none;stroke-opacity:1;marker-start:url(#marker18753)"
         d="m -118.57216,-19.084784 92.401573,10e-7"
         id="path13995" />
    </g>
    <g
       id="g13999"
       transform="rotate(90,-84.399335,462.25157)">
      <path
         id="path14001"
         d="m 16.734921,-22.541473 38.976378,2e-6"
         style="fill:none;stroke:#000000;stroke-width:1px;stroke-linecap:butt;stroke-linejoin:miter;stroke-opacity:1" />
      <path
         style="fill:none;stroke:#000000;stroke-width:1px;stroke-linecap:butt;stroke-linejoin:miter;stroke-opacity:1;marker-start:url(#marker18753)"
         d="m -295.0761,-11.91155 290.5511785,-2e-6"
         id="path14003" />
      <path
         id="path14005"
         d="m -61.217835,-33.171392 56.6929135,-2e-6"
         style="fill:none;stroke:#000000;stroke-width:1px;stroke-linecap:butt;stroke-linejoin:miter;stroke-opacity:1;marker-start:url(#marker18753)" />
      <path
         style="fill:none;stroke:#000000;stroke-width:1px;stroke-linecap:butt;stroke-linejoin:miter;stroke-opacity:1;marker-start:url(#marker18753)"
         d="m -256.09972,-22.541471 251.5747985,-2e-6"
         id="path14007" />
      <path
         id="path14009"
         d="m -11.611536,-40.258009 c 7.0866149,10.629922 7.0866149,24.80315 0,35.4330707 7.0866149,4e-7 24.80315,-3.5433067 28.346457,-17.7165347 -3.543307,-14.173229 -21.2598421,-17.716536 -28.346457,-17.716536 z"
         style="fill:#ffeeaa;fill-opacity:1;stroke:#000000;stroke-width:1px;stroke-linecap:butt;stroke-linejoin:miter;stroke-opacity:1" />
    </g>
    <g
       transform="rotate(90,-63.139495,483.5114)"
       id="g14011">
      <path
         style="fill:none;stroke:#000000;stroke-width:1px;stroke-linecap:butt;stroke-linejoin:miter;stroke-opacity:1"
         d="m 16.734921,-22.541473 38.976378,-3e-6"
         id="path14013" />
      <path
         id="path14015"
         d="m -334.05248,-11.911555 329.5275585,3e-6"
         style="fill:none;stroke:#000000;stroke-width:1px;stroke-linecap:butt;stroke-linejoin:miter;stroke-opacity:1;marker-start:url(#marker18753)" />
      <path
         style="fill:none;stroke:#000000;stroke-width:1px;stroke-linecap:butt;stroke-linejoin:miter;stroke-opacity:1;marker-start:url(#marker18753)"
         d="m -178.14697,-33.171397 173.6220485,3e-6"
         id="path14017" />
      <path
         id="path14019"
         d="m -256.09972,-22.541476 251.5747985,3e-6"
         style="fill:none;stroke:#000000;stroke-width:1px;stroke-linecap:butt;stroke-linejoin:miter;stroke-opacity:1;marker-start:url(#marker18753)" />
      <path
         style="fill:#ffeeaa;fill-opacity:1;stroke:#000000;stroke-width:1px;stroke-linecap:butt;stroke-linejoin:miter;stroke-opacity:1"
         d="m -11.611536,-40.258009 c 7.0866149,10.629922 7.0866149,24.80315 0,35.4330707 7.0866149,4e-7 24.80315,-3.5433067 28.346457,-17.7165347 -3.543307,-14.173229 -21.2598421,-17.716536 -28.346457,-17.716536 z"
         id="path14021" />
    </g>
    <g
       id="g14023"
       transform="rotate(90,-41.87965,504.77125)">
      <path
         id="path14025"
         d="m 16.734921,-22.541473 38.976378,2e-6"
         style="fill:none;stroke:#000000;stroke-width:1px;stroke-linecap:butt;stroke-linejoin:miter;stroke-opacity:1" />
      <path
         style="fill:none;stroke:#000000;stroke-width:1px;stroke-linecap:butt;stroke-linejoin:miter;stroke-opacity:1;marker-start:url(#marker18753)"
         d="m -295.0761,-11.91155 290.5511785,-2e-6"
         id="path14027" />
      <path
         id="path14029"
         d="m -100.19421,-33.171392 95.6692885,-2e-6"
         style="fill:none;stroke:#000000;stroke-width:1px;stroke-linecap:butt;stroke-linejoin:miter;stroke-opacity:1;marker-start:url(#marker18753)" />
      <path
         style="fill:none;stroke:#000000;stroke-width:1px;stroke-linecap:butt;stroke-linejoin:miter;stroke-opacity:1;marker-start:url(#marker18753)"
         d="m -217.12335,-22.541471 212.5984285,-2e-6"
         id="path14031" />
      <path
         id="path14033"
         d="m -11.611536,-40.258009 c 7.0866149,10.629922 7.0866149,24.80315 0,35.4330707 7.0866149,4e-7 24.80315,-3.5433067 28.346457,-17.7165347 -3.543307,-14.173229 -21.2598421,-17.716536 -28.346457,-17.716536 z"
         style="fill:#ffeeaa;fill-opacity:1;stroke:#000000;stroke-width:1px;stroke-linecap:butt;stroke-linejoin:miter;stroke-opacity:1" />
    </g>
  </g>
</svg>
