<?xml version="1.0" encoding="UTF-8" standalone="no"?>
<!-- Created with Inkscape (http://www.inkscape.org/) -->

<svg
   width="294.14117mm"
   height="241.30574mm"
   id="svg19791"
   version="1.0"
   viewBox="0 0 1042.2325 855.02033"
   xmlns="http://www.w3.org/2000/svg"
   xmlns:svg="http://www.w3.org/2000/svg"
   xmlns:rdf="http://www.w3.org/1999/02/22-rdf-syntax-ns#"
   xmlns:cc="http://creativecommons.org/ns#"
   xmlns:dc="http://purl.org/dc/elements/1.1/">
  <defs
     id="defs3">
    <marker
       orient="auto"
       refY="0"
       refX="0"
       id="marker10197"
       style="overflow:visible">
      <path
         id="path10199"
         d="M 0,0 5,-5 -12.5,0 5,5 Z"
         style="fill-rule:evenodd;stroke:#000000;stroke-width:1.00000003pt;marker-start:none"
         transform="matrix(-0.4,0,0,-0.4,-4,0)" />
    </marker>
    <marker
       style="overflow:visible"
       id="marker22529"
       refX="0"
       refY="0"
       orient="auto">
      <path
         transform="matrix(0.4,0,0,0.4,2.96,0.4)"
         style="fill-rule:evenodd;stroke:#000000;stroke-width:1.00000003pt;marker-start:none;marker-end:none"
         d="m -2.5,-1 c 0,2.76 -2.24,5 -5,5 -2.76,0 -5,-2.24 -5,-5 0,-2.76 2.24,-5 5,-5 2.76,0 5,2.24 5,5 z"
         id="path22531" />
    </marker>
    <marker
       style="overflow:visible"
       id="DotL"
       refX="0"
       refY="0"
       orient="auto">
      <path
         transform="matrix(0.8,0,0,0.8,5.92,0.8)"
         style="fill-rule:evenodd;stroke:#000000;stroke-width:1.00000003pt;marker-start:none;marker-end:none"
         d="m -2.5,-1 c 0,2.76 -2.24,5 -5,5 -2.76,0 -5,-2.24 -5,-5 0,-2.76 2.24,-5 5,-5 2.76,0 5,2.24 5,5 z"
         id="path23717" />
    </marker>
    <marker
       style="overflow:visible"
       id="marker10197C"
       refX="0"
       refY="0"
       orient="auto">
      <path
         transform="matrix(-0.4,0,0,-0.4,-4,0)"
         style="fill:#ff0000;fill-rule:evenodd;stroke:#ff0000;stroke-width:1.00000003pt;marker-start:none"
         d="M 0,0 5,-5 -12.5,0 5,5 Z"
         id="path12941" />
    </marker>
    <marker
       style="overflow:visible"
       id="marker10197I"
       refX="0"
       refY="0"
       orient="auto">
      <path
         transform="matrix(-0.4,0,0,-0.4,-4,0)"
         style="fill:#ff0000;fill-rule:evenodd;stroke:#ff0000;stroke-width:1.00000003pt;marker-start:none"
         d="M 0,0 5,-5 -12.5,0 5,5 Z"
         id="path12935" />
    </marker>
    <marker
       style="overflow:visible"
       id="marker10197E"
       refX="0"
       refY="0"
       orient="auto">
      <path
         transform="matrix(-0.4,0,0,-0.4,-4,0)"
         style="fill:#ff0000;fill-rule:evenodd;stroke:#ff0000;stroke-width:1.00000003pt;marker-start:none"
         d="M 0,0 5,-5 -12.5,0 5,5 Z"
         id="path12938" />
    </marker>
    <marker
       style="overflow:visible"
       id="marker23455"
       refX="0"
       refY="0"
       orient="auto">
      <path
         transform="matrix(0.4,0,0,0.4,2.96,0.4)"
         style="fill-rule:evenodd;stroke:#000000;stroke-width:1.00000003pt;marker-start:none;marker-end:none"
         d="m -2.5,-1 c 0,2.76 -2.24,5 -5,5 -2.76,0 -5,-2.24 -5,-5 0,-2.76 2.24,-5 5,-5 2.76,0 5,2.24 5,5 z"
         id="path23457" />
    </marker>
  </defs>
  <metadata
     id="metadata4">
    <rdf:RDF>
      <cc:Work
         rdf:about="">
        <dc:format>image/svg+xml</dc:format>
        <dc:type
           rdf:resource="http://purl.org/dc/dcmitype/StillImage" />
      </cc:Work>
    </rdf:RDF>
  </metadata>
  <g
     id="layer1"
     transform="translate(-10.129922,60.819488)">
    <g
       transform="translate(1732.6772,-1341.6137)"
       id="g4614"
       style="fill:#afdde9;fill-opacity:1">
      <path
         id="rect4612"
         d="m -871.65361,1673.597 h 24.80317 c 7.85197,0 14.17323,6.3213 14.17323,14.1733 v 14.1732 c 0,7.852 -6.32126,14.1733 -14.17323,14.1733 h -24.80317 c -7.85197,0 -14.17323,-6.3213 -14.17323,-14.1733 v -14.1732 c 0,-7.852 6.32126,-14.1733 14.17323,-14.1733 z" />
    </g>
    <g
       transform="translate(1803.5434,-1341.6137)"
       id="g4618"
       style="fill:#afdde9;fill-opacity:1">
      <path
         id="rect4616"
         d="m -871.65361,1673.597 h 24.80317 c 7.85197,0 14.17323,6.3213 14.17323,14.1733 v 14.1732 c 0,7.852 -6.32126,14.1733 -14.17323,14.1733 h -24.80317 c -7.85197,0 -14.17323,-6.3213 -14.17323,-14.1733 v -14.1732 c 0,-7.852 6.32126,-14.1733 14.17323,-14.1733 z" />
    </g>
    <g
       transform="translate(1661.8111,-1412.9365)"
       id="g4610"
       style="fill:#afdde9;fill-opacity:1">
      <path
         id="rect4608"
         d="m -871.65361,1673.597 h 24.80317 c 7.85197,0 14.17323,6.3213 14.17323,14.1733 v 14.1732 c 0,7.852 -6.32126,14.1733 -14.17323,14.1733 h -24.80317 c -7.85197,0 -14.17323,-6.3213 -14.17323,-14.1733 v -14.1732 c 0,-7.852 6.32126,-14.1733 14.17323,-14.1733 z" />
    </g>
    <g
       transform="translate(1732.6773,-1483.8024)"
       id="g4606"
       style="fill:#afdde9;fill-opacity:1">
      <path
         id="rect4604"
         d="m -871.65361,1673.597 h 24.80317 c 7.85197,0 14.17323,6.3213 14.17323,14.1733 v 14.1732 c 0,7.852 -6.32126,14.1733 -14.17323,14.1733 h -24.80317 c -7.85197,0 -14.17323,-6.3213 -14.17323,-14.1733 v -14.1732 c 0,-7.852 6.32126,-14.1733 14.17323,-14.1733 z" />
    </g>
    <g
       transform="translate(1874.4096,-1483.8024)"
       id="g4598"
       style="fill:#afdde9;fill-opacity:1">
      <path
         id="rect4596"
         d="m -871.65361,1673.597 h 24.80317 c 7.85197,0 14.17323,6.3213 14.17323,14.1733 v 14.1732 c 0,7.852 -6.32126,14.1733 -14.17323,14.1733 h -24.80317 c -7.85197,0 -14.17323,-6.3213 -14.17323,-14.1733 v -14.1732 c 0,-7.852 6.32126,-14.1733 14.17323,-14.1733 z" />
    </g>
    <g
       transform="translate(1659.8113,-1554.8962)"
       id="g11554">
      <path
         id="rect11556"
         style="fill:#ffaaaa"
         d="m -871.65361,1673.597 h 24.80317 c 7.85197,0 14.17323,6.3213 14.17323,14.1733 v 14.1732 c 0,7.852 -6.32126,14.1733 -14.17323,14.1733 h -24.80317 c -7.85197,0 -14.17323,-6.3213 -14.17323,-14.1733 v -14.1732 c 0,-7.852 6.32126,-14.1733 14.17323,-14.1733 z" />
    </g>
    <g
       id="g11562"
       transform="translate(1802.459,-1554.8962)">
      <path
         id="rect11564"
         style="fill:#ffaaaa"
         d="m -871.65361,1673.597 h 24.80317 c 7.85197,0 14.17323,6.3213 14.17323,14.1733 v 14.1732 c 0,7.852 -6.32126,14.1733 -14.17323,14.1733 h -24.80317 c -7.85197,0 -14.17323,-6.3213 -14.17323,-14.1733 v -14.1732 c 0,-7.852 6.32126,-14.1733 14.17323,-14.1733 z" />
    </g>
    <g
       transform="translate(1731.5823,-1498.2032)"
       id="g11570" />
    <g
       id="g11578"
       transform="translate(1873.3146,-1498.2032)" />
    <g
       transform="translate(1802.459,-1483.8024)"
       id="g11596">
      <path
         id="rect11598"
         style="fill:#ffaaaa"
         d="m -871.65361,1673.597 h 24.80317 c 7.85197,0 14.17323,6.3213 14.17323,14.1733 v 14.1732 c 0,7.852 -6.32126,14.1733 -14.17323,14.1733 h -24.80317 c -7.85197,0 -14.17323,-6.3213 -14.17323,-14.1733 v -14.1732 c 0,-7.852 6.32126,-14.1733 14.17323,-14.1733 z" />
    </g>
    <g
       id="g11604"
       transform="translate(1659.8113,-1483.8024)">
      <path
         id="rect11606"
         style="fill:#ffaaaa"
         d="m -871.65361,1673.597 h 24.80317 c 7.85197,0 14.17323,6.3213 14.17323,14.1733 v 14.1732 c 0,7.852 -6.32126,14.1733 -14.17323,14.1733 h -24.80317 c -7.85197,0 -14.17323,-6.3213 -14.17323,-14.1733 v -14.1732 c 0,-7.852 6.32126,-14.1733 14.17323,-14.1733 z" />
    </g>
    <g
       transform="translate(1873.3146,-1427.1084)"
       id="g11612" />
    <g
       id="g11620"
       transform="translate(1731.5823,-1427.1084)" />
    <g
       transform="translate(1731.5823,-1412.9362)"
       id="g11638">
      <path
         id="rect11640"
         style="fill:#ffaaaa"
         d="m -871.65361,1673.5968 h 24.80317 c 7.85197,0 14.17323,6.3213 14.17323,14.1733 v 14.1731 c 0,7.852 -6.32126,14.1733 -14.17323,14.1733 h -24.80317 c -7.85197,0 -14.17323,-6.3213 -14.17323,-14.1733 v -14.1731 c 0,-7.852 6.32126,-14.1733 14.17323,-14.1733 z" />
    </g>
    <g
       id="g11646"
       transform="translate(1802.459,-1412.9362)">
      <path
         id="rect11648"
         style="fill:#ffaaaa"
         d="m -871.65361,1673.5968 h 24.80317 c 7.85197,0 14.17323,6.3213 14.17323,14.1733 v 14.1731 c 0,7.852 -6.32126,14.1733 -14.17323,14.1733 h -24.80317 c -7.85197,0 -14.17323,-6.3213 -14.17323,-14.1733 v -14.1731 c 0,-7.852 6.32126,-14.1733 14.17323,-14.1733 z" />
    </g>
    <g
       transform="translate(1659.8113,-1356.2432)"
       id="g11654" />
    <g
       id="g11662"
       transform="translate(1873.3146,-1356.2432)" />
    <g
       transform="translate(1873.3146,-1341.6133)"
       id="g11680">
      <path
         id="rect11682"
         style="fill:#ffaaaa"
         d="m -871.65361,1673.5967 h 24.80317 c 7.85197,0 14.17323,6.3213 14.17323,14.1732 v 14.1732 c 0,7.852 -6.32126,14.1733 -14.17323,14.1733 h -24.80317 c -7.85197,0 -14.17323,-6.3213 -14.17323,-14.1733 v -14.1732 c 0,-7.8519 6.32126,-14.1732 14.17323,-14.1732 z" />
    </g>
    <g
       id="g11688"
       transform="translate(1659.8113,-1341.6133)">
      <path
         id="rect11690"
         style="fill:#ffaaaa"
         d="m -871.65361,1673.5967 h 24.80317 c 7.85197,0 14.17323,6.3213 14.17323,14.1732 v 14.1732 c 0,7.852 -6.32126,14.1733 -14.17323,14.1733 h -24.80317 c -7.85197,0 -14.17323,-6.3213 -14.17323,-14.1733 v -14.1732 c 0,-7.8519 6.32126,-14.1732 14.17323,-14.1732 z" />
    </g>
    <g
       id="g11696"
       transform="translate(1731.5823,-1284.9203)" />
    <g
       transform="translate(1802.459,-1284.9203)"
       id="g11704" />
    <path
       id="rect11896"
       style="fill:#ffeeaa;stroke:#000000"
       d="M 35.433092,106.29921 H 265.748 c 9.81497,0 17.71655,7.90158 17.71655,17.71656 v 31.88964 c 0,9.81498 -7.90158,17.71656 -17.71655,17.71656 H 35.433092 c -9.814972,0 -17.716556,-7.90158 -17.716556,-17.71656 v -31.88964 c 0,-9.81498 7.901584,-17.71656 17.716556,-17.71656 z" />
    <g
       transform="matrix(1,0,0,1.1538441,1162.1988,-1750.2258)"
       id="g11898">
      <path
         id="rect11900"
         style="fill:#afdde9"
         d="m -977.94665,1615.1329 h 24.80317 c 7.85196,0 14.17322,5.4785 14.17322,12.2835 v 21.496 c 0,6.8051 -6.32126,12.2835 -14.17322,12.2835 h -24.80317 c -7.85196,0 -14.17322,-5.4784 -14.17322,-12.2835 v -21.496 c 0,-6.805 6.32126,-12.2835 14.17322,-12.2835 z" />
      <g
         aria-label=" "
         id="text11902"
         style="line-height:0%;font-family:Iwona;-inkscape-font-specification:Sans;text-align:center;letter-spacing:0px;word-spacing:0px;text-anchor:middle" />
    </g>
    <path
       id="rect11906"
       style="fill:#ffeeaa;stroke:#000000"
       d="M 35.433092,248.03113 H 265.748 c 9.81497,0 17.71655,7.90158 17.71655,17.71655 v 31.88983 c 0,9.81497 -7.90158,17.71655 -17.71655,17.71655 H 35.433092 c -9.814972,0 -17.716556,-7.90158 -17.716556,-17.71655 v -31.88983 c 0,-9.81497 7.901584,-17.71655 17.716556,-17.71655 z" />
    <path
       id="rect11908"
       style="fill:#ffeeaa;stroke:#000000"
       d="M 35.433092,318.89734 H 265.748 c 9.81497,0 17.71655,7.90158 17.71655,17.71656 v 31.88975 c 0,9.81497 -7.90158,17.71656 -17.71655,17.71656 H 35.433092 c -9.814972,0 -17.716556,-7.90159 -17.716556,-17.71656 V 336.6139 c 0,-9.81498 7.901584,-17.71656 17.716556,-17.71656 z" />
    <path
       id="rect11910"
       style="fill:#ffeeaa;stroke:#000000"
       d="M 35.433092,177.16542 H 265.748 c 9.81497,0 17.71655,7.90158 17.71655,17.71656 v 31.88965 c 0,9.81497 -7.90158,17.71655 -17.71655,17.71655 H 35.433092 c -9.814972,0 -17.716556,-7.90158 -17.716556,-17.71655 v -31.88965 c 0,-9.81498 7.901584,-17.71656 17.716556,-17.71656 z" />
    <g
       id="g11912"
       transform="matrix(1,0,0,1.1538467,1162.1988,-1679.364)">
      <path
         id="rect11914"
         style="fill:#afdde9"
         d="m -977.94665,1615.1329 h 24.80317 c 7.85196,0 14.17322,5.4784 14.17322,12.2835 v 21.4961 c 0,6.805 -6.32126,12.2834 -14.17322,12.2834 h -24.80317 c -7.85196,0 -14.17322,-5.4784 -14.17322,-12.2834 v -21.4961 c 0,-6.8051 6.32126,-12.2835 14.17322,-12.2835 z" />
      <g
         aria-label=" "
         id="text11916"
         style="line-height:0%;font-family:Iwona;-inkscape-font-specification:Sans;text-align:center;letter-spacing:0px;word-spacing:0px;text-anchor:middle" />
    </g>
    <g
       transform="matrix(1,0,0,1.1538467,1215.3546,-2022.7924)"
       id="g11920">
      <path
         id="rect11922"
         style="fill:#ffaaaa"
         d="m -974.40947,1912.7709 h 24.80315 c 7.85197,0 14.17323,5.4784 14.17323,12.2835 v 21.496 c 0,6.805 -6.32126,12.2835 -14.17323,12.2835 h -24.80315 c -7.85197,0 -14.17323,-5.4785 -14.17323,-12.2835 v -21.496 c 0,-6.8051 6.32126,-12.2835 14.17323,-12.2835 z" />
      <g
         aria-label=" "
         id="text11924"
         style="line-height:0%;font-family:Iwona;-inkscape-font-specification:Sans;text-align:center;letter-spacing:0px;word-spacing:0px;text-anchor:middle" />
    </g>
    <g
       id="g11928"
       transform="matrix(1,0,0,1.1538481,1158.6618,-1951.9291)">
      <path
         id="rect11930"
         style="fill:#ffaaaa"
         d="m -974.40947,1912.7709 h 24.80315 c 7.85197,0 14.17323,5.4784 14.17323,12.2835 v 21.496 c 0,6.805 -6.32126,12.2835 -14.17323,12.2835 h -24.80315 c -7.85197,0 -14.17323,-5.4785 -14.17323,-12.2835 v -21.496 c 0,-6.8051 6.32126,-12.2835 14.17323,-12.2835 z" />
      <g
         aria-label=" "
         id="text11932"
         style="line-height:0%;font-family:Iwona;-inkscape-font-specification:Sans;text-align:center;letter-spacing:0px;word-spacing:0px;text-anchor:middle" />
    </g>
    <g
       transform="matrix(1,0,0,1.1538481,1218.8918,-1608.5001)"
       id="g11936">
      <path
         id="rect11938"
         style="fill:#afdde9"
         d="m -977.94665,1615.1329 h 24.80317 c 7.85196,0 14.17322,5.4784 14.17322,12.2835 v 21.4961 c 0,6.805 -6.32126,12.2834 -14.17322,12.2834 h -24.80317 c -7.85196,0 -14.17322,-5.4784 -14.17322,-12.2834 v -21.4961 c 0,-6.8051 6.32126,-12.2835 14.17322,-12.2835 z" />
      <g
         aria-label=" "
         id="text11940"
         style="line-height:0%;font-family:Iwona;-inkscape-font-specification:Sans;text-align:center;letter-spacing:0px;word-spacing:0px;text-anchor:middle" />
    </g>
    <g
       transform="matrix(1,0,0,1.1538475,1158.6617,-1881.0617)"
       id="g11944">
      <path
         id="rect11946"
         style="fill:#ffaaaa"
         d="m -974.40947,1912.7709 h 24.80315 c 7.85197,0 14.17323,5.4784 14.17323,12.2835 v 21.496 c 0,6.805 -6.32126,12.2835 -14.17323,12.2835 h -24.80315 c -7.85197,0 -14.17323,-5.4785 -14.17323,-12.2835 v -21.496 c 0,-6.8051 6.32126,-12.2835 14.17323,-12.2835 z" />
      <g
         aria-label=" "
         id="text11948"
         style="line-height:0%;font-family:Iwona;-inkscape-font-specification:Sans;text-align:center;letter-spacing:0px;word-spacing:0px;text-anchor:middle" />
    </g>
    <g
       id="g11952"
       transform="matrix(1,0,0,1.1538475,1215.3546,-1881.0617)">
      <path
         id="rect11954"
         style="fill:#ffaaaa"
         d="m -974.40947,1912.7709 h 24.80315 c 7.85197,0 14.17323,5.4784 14.17323,12.2835 v 21.496 c 0,6.805 -6.32126,12.2835 -14.17323,12.2835 h -24.80315 c -7.85197,0 -14.17323,-5.4785 -14.17323,-12.2835 v -21.496 c 0,-6.8051 6.32126,-12.2835 14.17323,-12.2835 z" />
      <g
         aria-label=" "
         id="text11956"
         style="line-height:0%;font-family:Iwona;-inkscape-font-specification:Sans;text-align:center;letter-spacing:0px;word-spacing:0px;text-anchor:middle" />
    </g>
    <g
       aria-label="Suivi
d'un mur"
       id="text11960"
       style="line-height:0%;font-family:Iwona;-inkscape-font-specification:Sans;letter-spacing:0px;word-spacing:0px">
      <path
         d="m 49.208838,199.42672 c 0,-2.952 -3,-4.704 -6.096,-5.352 -2.064,-0.432 -4.392,-0.96 -4.392,-2.88 0,-1.896 2.04,-2.976 4.152,-2.976 1.944,0 3.84,0.576 5.376,1.776 v -0.96 c -1.536,-1.2 -3.432,-1.92 -5.376,-1.92 -3.12,0 -6.048,1.752 -6.048,4.584 0,2.712 2.928,4.08 5.784,4.68 2.28,0.48 4.704,1.416 4.704,3.552 0,2.184 -2.136,3.648 -4.44,3.648 -2.232,0 -4.44,-0.576 -6.312,-1.776 v 0.96 c 1.896,1.2 4.056,1.92 6.312,1.92 3.312,0 6.336,-2.136 6.336,-5.256 z"
         style="font-size:24px;line-height:1.25"
         id="path967" />
      <path
         d="m 61.136823,204.29872 v -10.8 h -1.872 v 8.472 c -0.816,0.816 -1.824,1.464 -2.952,1.464 -1.128,0 -1.992,-0.984 -1.992,-2.136 v -7.8 h -1.872 v 7.8 c 0,1.752 1.344,3.24 3.072,3.24 1.44,0 2.712,-0.816 3.744,-1.824 v 1.584 z"
         style="font-size:24px;line-height:1.25"
         id="path969" />
      <path
         d="m 69.368782,203.45872 v -0.72 c -0.456,0.384 -0.984,0.696 -1.584,0.696 -0.888,0 -1.056,-1.104 -1.056,-2.136 v -7.8 h -1.872 v 7.8 c 0,1.608 0.624,3.24 2.04,3.24 0.912,0 1.776,-0.456 2.472,-1.08 z m -2.4,-13.704 c 0,-0.648 -0.528,-1.176 -1.176,-1.176 -0.648,0 -1.176,0.528 -1.176,1.176 0,0.648 0.528,1.176 1.176,1.176 0.648,0 1.176,-0.528 1.176,-1.176 z"
         style="font-size:24px;line-height:1.25"
         id="path971" />
      <path
         d="m 79.376759,193.49872 h -1.08 l -3.264,8.976 -3.168,-8.976 h -1.776 l 3.792,10.8 h 1.56 z"
         style="font-size:24px;line-height:1.25"
         id="path973" />
      <path
         d="m 85.928749,203.45872 v -0.72 c -0.456,0.384 -0.984,0.696 -1.584,0.696 -0.888,0 -1.056,-1.104 -1.056,-2.136 v -7.8 h -1.872 v 7.8 c 0,1.608 0.624,3.24 2.04,3.24 0.912,0 1.776,-0.456 2.472,-1.08 z m -2.4,-13.704 c 0,-0.648 -0.528,-1.176 -1.176,-1.176 -0.648,0 -1.176,0.528 -1.176,1.176 0,0.648 0.528,1.176 1.176,1.176 0.648,0 1.176,-0.528 1.176,-1.176 z"
         style="font-size:24px;line-height:1.25"
         id="path975" />
      <path
         d="m 45.728838,234.29872 v -16.8 h -1.872 v 6.408 c -0.936,-0.408 -1.944,-0.648 -2.952,-0.648 -3,0 -4.464,2.4 -4.464,5.64 0,3.192 1.2,5.64 4.104,5.64 1.224,0 2.352,-0.552 3.312,-1.32 v 1.08 z m -1.872,-2.088 c -0.72,0.72 -1.608,1.32 -2.64,1.32 -2.184,0 -2.664,-2.112 -2.664,-4.632 0,-2.256 0.696,-4.632 2.664,-4.632 0.912,0 1.824,0.24 2.64,0.648 z"
         style="font-size:24px;line-height:1.25"
         id="path977" />
      <path
         d="m 49.664823,223.11472 v -5.616 h -1.104 v 5.616 z"
         style="font-size:24px;line-height:1.25"
         id="path979" />
      <path
         d="m 61.064817,234.29872 v -10.8 h -1.872 v 8.472 c -0.816,0.816 -1.824,1.464 -2.952,1.464 -1.128,0 -1.992,-0.984 -1.992,-2.136 v -7.8 h -1.872 v 7.8 c 0,1.752 1.344,3.24 3.072,3.24 1.44,0 2.712,-0.816 3.744,-1.824 v 1.584 z"
         style="font-size:24px;line-height:1.25"
         id="path981" />
      <path
         d="m 73.592776,234.29872 v -7.8 c 0,-1.752 -1.344,-3.24 -3.072,-3.24 -1.44,0 -2.712,0.816 -3.744,1.824 v -1.584 h -1.872 v 10.8 h 1.872 v -8.472 c 0.816,-0.816 1.824,-1.464 2.952,-1.464 1.128,0 1.992,0.984 1.992,2.136 v 7.8 z"
         style="font-size:24px;line-height:1.25"
         id="path983" />
      <path
         d="m 98.408693,234.29872 v -7.8 c 0,-1.68 -0.984,-3.24 -2.544,-3.24 -1.344,0 -2.592,0.696 -3.312,1.824 -0.384,-1.056 -1.2,-1.824 -2.304,-1.824 -1.248,0 -2.256,0.864 -3.072,1.824 v -1.584 h -1.872 v 10.8 h 1.872 v -8.496 c 0.576,-0.744 1.296,-1.44 2.232,-1.44 0.984,0 1.512,1.056 1.512,2.136 v 7.8 h 1.872 v -7.8 c 0,-0.288 -0.024,-0.552 -0.072,-0.84 0.576,-0.744 1.368,-1.296 2.304,-1.296 0.984,0 1.512,1.056 1.512,2.136 v 7.8 z"
         style="font-size:24px;line-height:1.25"
         id="path985" />
      <path
         d="m 110.69665,234.29872 v -10.8 h -1.872 v 8.472 c -0.816,0.816 -1.824,1.464 -2.952,1.464 -1.128,0 -1.992,-0.984 -1.992,-2.136 v -7.8 h -1.872 v 7.8 c 0,1.752 1.344,3.24 3.072,3.24 1.44,0 2.712,-0.816 3.744,-1.824 v 1.584 z"
         style="font-size:24px;line-height:1.25"
         id="path987" />
      <path
         d="m 120.51261,224.98672 v -1.488 c -0.264,-0.096 -0.552,-0.168 -0.816,-0.168 -1.344,0 -2.424,0.936 -3.288,1.968 v -1.8 h -1.872 v 10.8 h 1.872 v -7.992 c 0.72,-0.84 1.632,-1.56 2.736,-1.56 0.456,0 0.936,0.096 1.368,0.24 z"
         style="font-size:24px;line-height:1.25"
         id="path989" />
    </g>
    <g
       aria-label="Rotation
à gauche"
       id="text11966"
       style="line-height:0%;font-family:Iwona;-inkscape-font-specification:Sans;letter-spacing:0px;word-spacing:0px">
      <path
         d="m 50.576838,272.33289 -5.112,-7.608 c 2.616,-0.504 4.416,-1.944 4.416,-4.632 0,-3.384 -2.904,-4.8 -6.672,-4.8 -1.344,0 -2.688,0.072 -4.008,0.24 h -1.92 v 16.8 h 1.968 v -7.8 c 1.296,0.24 2.64,0.384 3.96,0.384 l 5.016,7.416 z m -3.048,-12.24 c 0,2.184 -2.04,3.72 -4.32,3.72 -1.32,0 -2.664,-0.144 -3.96,-0.384 v -6.792 c 1.32,-0.168 2.64,-0.24 3.96,-0.24 2.28,0 4.32,1.536 4.32,3.696 z"
         style="font-size:24px;line-height:1.25"
         id="path992" />
      <path
         d="m 61.424822,266.93289 c 0,-3.672 -1.632,-5.64 -4.632,-5.64 -3.024,0 -4.656,1.968 -4.656,5.64 0,3.672 1.632,5.64 4.656,5.64 3,0 4.632,-1.968 4.632,-5.64 z m -2.112,0 c 0,3 -0.888,4.632 -2.52,4.632 -1.656,0 -2.544,-1.632 -2.544,-4.632 0,-3 0.888,-4.632 2.544,-4.632 1.632,0 2.52,1.632 2.52,4.632 z"
         style="font-size:24px;line-height:1.25"
         id="path994" />
      <path
         d="m 69.752816,271.49289 v -0.72 c -0.384,0.384 -0.84,0.696 -1.392,0.696 -0.864,0 -0.912,-1.128 -0.912,-2.136 v -6.792 h 2.304 v -1.008 h -2.304 v -3.6 h -1.128 c 0,1.92 -1.104,3.72 -2.856,3.72 v 0.888 h 2.112 v 6.792 c 0,1.584 0.504,3.24 1.872,3.24 0.888,0 1.656,-0.48 2.304,-1.08 z"
         style="font-size:24px;line-height:1.25"
         id="path996" />
      <path
         d="m 80.840782,272.33289 v -6.72 c 0,-2.256 -1.392,-4.32 -3.48,-4.32 -1.536,0 -2.976,0.528 -4.272,1.344 v 0.744 c 1.08,-0.6 2.28,-0.984 3.528,-0.984 1.488,0 2.352,1.584 2.352,3.216 v 0.432 c -0.936,-0.408 -1.944,-0.648 -2.952,-0.648 -2.568,0 -4.464,1.176 -4.464,3.6 0,2.304 1.68,3.576 4.104,3.576 1.224,0 2.352,-0.552 3.312,-1.32 v 1.08 z m -1.872,-2.088 c -0.72,0.72 -1.608,1.32 -2.64,1.32 -1.608,0 -2.664,-0.984 -2.664,-2.568 0,-1.464 1.2,-2.592 2.664,-2.592 0.912,0 1.824,0.24 2.64,0.648 z"
         style="font-size:24px;line-height:1.25"
         id="path998" />
      <path
         d="m 89.768761,271.49289 v -0.72 c -0.384,0.384 -0.84,0.696 -1.392,0.696 -0.864,0 -0.912,-1.128 -0.912,-2.136 v -6.792 h 2.304 v -1.008 h -2.304 v -3.6 h -1.128 c 0,1.92 -1.104,3.72 -2.856,3.72 v 0.888 h 2.112 v 6.792 c 0,1.584 0.504,3.24 1.872,3.24 0.888,0 1.656,-0.48 2.304,-1.08 z"
         style="font-size:24px;line-height:1.25"
         id="path1000" />
      <path
         d="m 96.800728,271.49289 v -0.72 c -0.456,0.384 -0.984,0.696 -1.584,0.696 -0.888,0 -1.056,-1.104 -1.056,-2.136 v -7.8 h -1.872 v 7.8 c 0,1.608 0.624,3.24 2.04,3.24 0.912,0 1.776,-0.456 2.472,-1.08 z m -2.4,-13.704 c 0,-0.648 -0.528,-1.176 -1.176,-1.176 -0.648,0 -1.176,0.528 -1.176,1.176 0,0.648 0.528,1.176 1.176,1.176 0.648,0 1.176,-0.528 1.176,-1.176 z"
         style="font-size:24px;line-height:1.25"
         id="path1002" />
      <path
         d="m 107.8887,266.93289 c 0,-3.672 -1.632,-5.64 -4.632,-5.64 -3.024,0 -4.655996,1.968 -4.655996,5.64 0,3.672 1.631996,5.64 4.655996,5.64 3,0 4.632,-1.968 4.632,-5.64 z m -2.112,0 c 0,3 -0.888,4.632 -2.52,4.632 -1.656,0 -2.544,-1.632 -2.544,-4.632 0,-3 0.888,-4.632 2.544,-4.632 1.632,0 2.52,1.632 2.52,4.632 z"
         style="font-size:24px;line-height:1.25"
         id="path1004" />
      <path
         d="m 119.8167,272.33289 v -7.8 c 0,-1.752 -1.344,-3.24 -3.072,-3.24 -1.44,0 -2.712,0.816 -3.744,1.824 v -1.584 h -1.872 v 10.8 h 1.872 v -8.472 c 0.816,-0.816 1.824,-1.464 2.952,-1.464 1.128,0 1.992,0.984 1.992,2.136 v 7.8 z"
         style="font-size:24px;line-height:1.25"
         id="path1006" />
      <path
         d="m 45.488838,302.33289 v -6.72 c 0,-2.256 -1.392,-4.32 -3.48,-4.32 -1.536,0 -2.976,0.528 -4.272,1.344 v 0.744 c 1.08,-0.6 2.28,-0.984 3.528,-0.984 1.488,0 2.352,1.584 2.352,3.216 v 0.432 c -0.936,-0.408 -1.944,-0.648 -2.952,-0.648 -2.568,0 -4.464,1.176 -4.464,3.6 0,2.304 1.68,3.576 4.104,3.576 1.224,0 2.352,-0.552 3.312,-1.32 v 1.08 z m -1.872,-2.088 c -0.72,0.72 -1.608,1.32 -2.64,1.32 -1.608,0 -2.664,-0.984 -2.664,-2.568 0,-1.464 1.2,-2.592 2.664,-2.592 0.912,0 1.824,0.24 2.64,0.648 z m -1.344,-10.224 c -0.936,-1.296 -1.44,-2.88 -1.44,-4.488 h -2.16 c 0,1.8 1.32,3.216 2.592,4.488 z"
         style="font-size:24px;line-height:1.25"
         id="path1008" />
      <path
         d="m 66.008776,303.77289 v -12.24 h -1.872 v 0.408 c -0.936,-0.408 -1.944,-0.648 -2.952,-0.648 -3,0 -4.464,2.4 -4.464,5.64 0,3.192 1.2,5.64 4.104,5.64 1.224,0 2.352,-0.552 3.312,-1.32 v 2.52 c 0,1.656 -0.912,3.216 -2.4,3.216 -1.224,0 -2.448,-0.24 -3.6,-0.648 v 0.744 c 1.344,0.624 2.832,1.008 4.32,1.008 2.112,0 3.552,-2.064 3.552,-4.32 z m -1.872,-3.528 c -0.72,0.72 -1.608,1.32 -2.64,1.32 -2.184,0 -2.664,-2.112 -2.664,-4.632 0,-2.256 0.696,-4.632 2.664,-4.632 0.912,0 1.824,0.24 2.64,0.648 z"
         style="font-size:24px;line-height:1.25"
         id="path1010" />
      <path
         d="m 78.296761,302.33289 v -6.72 c 0,-2.256 -1.392,-4.32 -3.48,-4.32 -1.536,0 -2.976,0.528 -4.272,1.344 v 0.744 c 1.08,-0.6 2.28,-0.984 3.528,-0.984 1.488,0 2.352,1.584 2.352,3.216 v 0.432 c -0.936,-0.408 -1.944,-0.648 -2.952,-0.648 -2.568,0 -4.464,1.176 -4.464,3.6 0,2.304 1.68,3.576 4.104,3.576 1.224,0 2.352,-0.552 3.312,-1.32 v 1.08 z m -1.872,-2.088 c -0.72,0.72 -1.608,1.32 -2.64,1.32 -1.608,0 -2.664,-0.984 -2.664,-2.568 0,-1.464 1.2,-2.592 2.664,-2.592 0.912,0 1.824,0.24 2.64,0.648 z"
         style="font-size:24px;line-height:1.25"
         id="path1012" />
      <path
         d="m 90.70474,302.33289 v -10.8 h -1.872 v 8.472 c -0.816,0.816 -1.824,1.464 -2.952,1.464 -1.128,0 -1.992,-0.984 -1.992,-2.136 v -7.8 h -1.872 v 7.8 c 0,1.752 1.344,3.24 3.072,3.24 1.44,0 2.712,-0.816 3.744,-1.824 v 1.584 z"
         style="font-size:24px;line-height:1.25"
         id="path1014" />
      <path
         d="m 102.3207,294.02889 v -1.008 c -0.768,-1.08 -2.016,-1.728 -3.360001,-1.728 -3,0 -5.016,2.256 -5.016,5.64 0,3.384 2.016,5.64 5.016,5.64 1.248001,0 2.424001,-0.624 3.120001,-1.656 v -1.008 c -0.816,1.224 -1.656,1.656 -3.120001,1.656 -1.728,0 -2.904,-1.848 -2.904,-4.632 0,-2.784 1.176,-4.632 2.904,-4.632 1.488001,0 2.496001,0.528 3.360001,1.728 z"
         style="font-size:24px;line-height:1.25"
         id="path1016" />
      <path
         d="m 113.52867,302.33289 v -7.8 c 0,-1.752 -1.344,-3.24 -3.072,-3.24 -1.44,0 -2.712,0.816 -3.744,1.824 v -7.584 h -1.872 v 16.8 h 1.872 v -8.472 c 0.816,-0.816 1.824,-1.464 2.952,-1.464 1.128,0 1.992,0.984 1.992,2.136 v 7.8 z"
         style="font-size:24px;line-height:1.25"
         id="path1018" />
      <path
         d="m 125.93663,297.17289 v -0.24 c 0,-3.384 -1.848,-5.64 -4.632,-5.64 -2.808,0 -4.656,2.256 -4.656,5.64 0,3.384 1.848,5.64 4.656,5.64 1.2,0 2.376,-0.384 3.36,-1.08 v -1.008 c -1.128,0.72 -2.04,0.984 -3.36,0.984 -2.04,0 -2.544,-1.944 -2.544,-4.296 z m -2.112,-1.008 h -5.064 c 0,-1.92 0.816,-3.864 2.544,-3.864 1.704,0 2.52,1.944 2.52,3.864 z"
         style="font-size:24px;line-height:1.25"
         id="path1020" />
    </g>
    <g
       aria-label="Rotation
à droite"
       id="text11972"
       style="line-height:0%;font-family:Iwona;-inkscape-font-specification:Sans;letter-spacing:0px;word-spacing:0px">
      <path
         d="m 50.576838,345.95886 -5.112,-7.608 c 2.616,-0.504 4.416,-1.944 4.416,-4.632 0,-3.384 -2.904,-4.8 -6.672,-4.8 -1.344,0 -2.688,0.072 -4.008,0.24 h -1.92 v 16.8 h 1.968 v -7.8 c 1.296,0.24 2.64,0.384 3.96,0.384 l 5.016,7.416 z m -3.048,-12.24 c 0,2.184 -2.04,3.72 -4.32,3.72 -1.32,0 -2.664,-0.144 -3.96,-0.384 v -6.792 c 1.32,-0.168 2.64,-0.24 3.96,-0.24 2.28,0 4.32,1.536 4.32,3.696 z"
         style="font-size:24px;line-height:1.25"
         id="path1023" />
      <path
         d="m 61.424822,340.55886 c 0,-3.672 -1.632,-5.64 -4.632,-5.64 -3.024,0 -4.656,1.968 -4.656,5.64 0,3.672 1.632,5.64 4.656,5.64 3,0 4.632,-1.968 4.632,-5.64 z m -2.112,0 c 0,3 -0.888,4.632 -2.52,4.632 -1.656,0 -2.544,-1.632 -2.544,-4.632 0,-3 0.888,-4.632 2.544,-4.632 1.632,0 2.52,1.632 2.52,4.632 z"
         style="font-size:24px;line-height:1.25"
         id="path1025" />
      <path
         d="m 69.752816,345.11886 v -0.72 c -0.384,0.384 -0.84,0.696 -1.392,0.696 -0.864,0 -0.912,-1.128 -0.912,-2.136 v -6.792 h 2.304 v -1.008 h -2.304 v -3.6 h -1.128 c 0,1.92 -1.104,3.72 -2.856,3.72 v 0.888 h 2.112 v 6.792 c 0,1.584 0.504,3.24 1.872,3.24 0.888,0 1.656,-0.48 2.304,-1.08 z"
         style="font-size:24px;line-height:1.25"
         id="path1027" />
      <path
         d="m 80.840782,345.95886 v -6.72 c 0,-2.256 -1.392,-4.32 -3.48,-4.32 -1.536,0 -2.976,0.528 -4.272,1.344 v 0.744 c 1.08,-0.6 2.28,-0.984 3.528,-0.984 1.488,0 2.352,1.584 2.352,3.216 v 0.432 c -0.936,-0.408 -1.944,-0.648 -2.952,-0.648 -2.568,0 -4.464,1.176 -4.464,3.6 0,2.304 1.68,3.576 4.104,3.576 1.224,0 2.352,-0.552 3.312,-1.32 v 1.08 z m -1.872,-2.088 c -0.72,0.72 -1.608,1.32 -2.64,1.32 -1.608,0 -2.664,-0.984 -2.664,-2.568 0,-1.464 1.2,-2.592 2.664,-2.592 0.912,0 1.824,0.24 2.64,0.648 z"
         style="font-size:24px;line-height:1.25"
         id="path1029" />
      <path
         d="m 89.768761,345.11886 v -0.72 c -0.384,0.384 -0.84,0.696 -1.392,0.696 -0.864,0 -0.912,-1.128 -0.912,-2.136 v -6.792 h 2.304 v -1.008 h -2.304 v -3.6 h -1.128 c 0,1.92 -1.104,3.72 -2.856,3.72 v 0.888 h 2.112 v 6.792 c 0,1.584 0.504,3.24 1.872,3.24 0.888,0 1.656,-0.48 2.304,-1.08 z"
         style="font-size:24px;line-height:1.25"
         id="path1031" />
      <path
         d="m 96.800728,345.11886 v -0.72 c -0.456,0.384 -0.984,0.696 -1.584,0.696 -0.888,0 -1.056,-1.104 -1.056,-2.136 v -7.8 h -1.872 v 7.8 c 0,1.608 0.624,3.24 2.04,3.24 0.912,0 1.776,-0.456 2.472,-1.08 z m -2.4,-13.704 c 0,-0.648 -0.528,-1.176 -1.176,-1.176 -0.648,0 -1.176,0.528 -1.176,1.176 0,0.648 0.528,1.176 1.176,1.176 0.648,0 1.176,-0.528 1.176,-1.176 z"
         style="font-size:24px;line-height:1.25"
         id="path1033" />
      <path
         d="m 107.8887,340.55886 c 0,-3.672 -1.632,-5.64 -4.632,-5.64 -3.024,0 -4.655996,1.968 -4.655996,5.64 0,3.672 1.631996,5.64 4.655996,5.64 3,0 4.632,-1.968 4.632,-5.64 z m -2.112,0 c 0,3 -0.888,4.632 -2.52,4.632 -1.656,0 -2.544,-1.632 -2.544,-4.632 0,-3 0.888,-4.632 2.544,-4.632 1.632,0 2.52,1.632 2.52,4.632 z"
         style="font-size:24px;line-height:1.25"
         id="path1035" />
      <path
         d="m 119.8167,345.95886 v -7.8 c 0,-1.752 -1.344,-3.24 -3.072,-3.24 -1.44,0 -2.712,0.816 -3.744,1.824 v -1.584 h -1.872 v 10.8 h 1.872 v -8.472 c 0.816,-0.816 1.824,-1.464 2.952,-1.464 1.128,0 1.992,0.984 1.992,2.136 v 7.8 z"
         style="font-size:24px;line-height:1.25"
         id="path1037" />
      <path
         d="m 45.488838,375.95886 v -6.72 c 0,-2.256 -1.392,-4.32 -3.48,-4.32 -1.536,0 -2.976,0.528 -4.272,1.344 v 0.744 c 1.08,-0.6 2.28,-0.984 3.528,-0.984 1.488,0 2.352,1.584 2.352,3.216 v 0.432 c -0.936,-0.408 -1.944,-0.648 -2.952,-0.648 -2.568,0 -4.464,1.176 -4.464,3.6 0,2.304 1.68,3.576 4.104,3.576 1.224,0 2.352,-0.552 3.312,-1.32 v 1.08 z m -1.872,-2.088 c -0.72,0.72 -1.608,1.32 -2.64,1.32 -1.608,0 -2.664,-0.984 -2.664,-2.568 0,-1.464 1.2,-2.592 2.664,-2.592 0.912,0 1.824,0.24 2.64,0.648 z m -1.344,-10.224 c -0.936,-1.296 -1.44,-2.88 -1.44,-4.488 h -2.16 c 0,1.8 1.32,3.216 2.592,4.488 z"
         style="font-size:24px;line-height:1.25"
         id="path1039" />
      <path
         d="m 66.008776,375.95886 v -16.8 h -1.872 v 6.408 c -0.936,-0.408 -1.944,-0.648 -2.952,-0.648 -3,0 -4.464,2.4 -4.464,5.64 0,3.192 1.2,5.64 4.104,5.64 1.224,0 2.352,-0.552 3.312,-1.32 v 1.08 z m -1.872,-2.088 c -0.72,0.72 -1.608,1.32 -2.64,1.32 -2.184,0 -2.664,-2.112 -2.664,-4.632 0,-2.256 0.696,-4.632 2.664,-4.632 0.912,0 1.824,0.24 2.64,0.648 z"
         style="font-size:24px;line-height:1.25"
         id="path1041" />
      <path
         d="m 75.824761,366.64686 v -1.488 c -0.264,-0.096 -0.552,-0.168 -0.816,-0.168 -1.344,0 -2.424,0.936 -3.288,1.968 v -1.8 h -1.872 v 10.8 h 1.872 v -7.992 c 0.72,-0.84 1.632,-1.56 2.736,-1.56 0.456,0 0.936,0.096 1.368,0.24 z"
         style="font-size:24px;line-height:1.25"
         id="path1043" />
      <path
         d="m 86.912737,370.55886 c 0,-3.672 -1.632,-5.64 -4.632,-5.64 -3.024,0 -4.656,1.968 -4.656,5.64 0,3.672 1.632,5.64 4.656,5.64 3,0 4.632,-1.968 4.632,-5.64 z m -2.112,0 c 0,3 -0.888,4.632 -2.52,4.632 -1.656,0 -2.544,-1.632 -2.544,-4.632 0,-3 0.888,-4.632 2.544,-4.632 1.632,0 2.52,1.632 2.52,4.632 z"
         style="font-size:24px;line-height:1.25"
         id="path1045" />
      <path
         d="m 94.544731,375.11886 v -0.72 c -0.456,0.384 -0.984,0.696 -1.584,0.696 -0.888,0 -1.056,-1.104 -1.056,-2.136 v -7.8 h -1.872 v 7.8 c 0,1.608 0.624,3.24 2.04,3.24 0.912,0 1.776,-0.456 2.472,-1.08 z m -2.4,-13.704 c 0,-0.648 -0.528,-1.176 -1.176,-1.176 -0.648,0 -1.176,0.528 -1.176,1.176 0,0.648 0.528,1.176 1.176,1.176 0.648,0 1.176,-0.528 1.176,-1.176 z"
         style="font-size:24px;line-height:1.25"
         id="path1047" />
      <path
         d="m 102.03271,375.11886 v -0.72 c -0.384,0.384 -0.84,0.696 -1.392,0.696 -0.864002,0 -0.912002,-1.128 -0.912002,-2.136 v -6.792 h 2.304002 v -1.008 h -2.304002 v -3.6 h -1.128 c 0,1.92 -1.104,3.72 -2.856,3.72 v 0.888 h 2.112 v 6.792 c 0,1.584 0.504,3.24 1.872,3.24 0.888002,0 1.656002,-0.48 2.304002,-1.08 z"
         style="font-size:24px;line-height:1.25"
         id="path1049" />
      <path
         d="m 113.36067,370.79886 v -0.24 c 0,-3.384 -1.848,-5.64 -4.632,-5.64 -2.808,0 -4.656,2.256 -4.656,5.64 0,3.384 1.848,5.64 4.656,5.64 1.2,0 2.376,-0.384 3.36,-1.08 v -1.008 c -1.128,0.72 -2.04,0.984 -3.36,0.984 -2.04,0 -2.544,-1.944 -2.544,-4.296 z m -2.112,-1.008 h -5.064 c 0,-1.92 0.816,-3.864 2.544,-3.864 1.704,0 2.52,1.944 2.52,3.864 z"
         style="font-size:24px;line-height:1.25"
         id="path1051" />
    </g>
    <g
       style="fill:#afdde9;fill-opacity:1"
       id="g11978"
       transform="matrix(1,0,0,1.1538455,1215.3546,-2093.6563)">
      <path
         id="rect11980"
         d="m -974.40947,1912.7709 h 24.80315 c 7.85197,0 14.17323,5.4784 14.17323,12.2835 v 21.496 c 0,6.805 -6.32126,12.2835 -14.17323,12.2835 h -24.80315 c -7.85197,0 -14.17323,-5.4785 -14.17323,-12.2835 v -21.496 c 0,-6.8051 6.32126,-12.2835 14.17323,-12.2835 z" />
      <g
         aria-label=" "
         id="text11982"
         style="line-height:0%;font-family:Iwona;-inkscape-font-specification:Sans;text-align:center;letter-spacing:0px;word-spacing:0px;text-anchor:middle" />
    </g>
    <g
       aria-label="Recherche
d'un mur"
       id="text11986"
       style="line-height:0%;font-family:Iwona;-inkscape-font-specification:Sans;letter-spacing:0px;word-spacing:0px">
      <path
         d="m 50.576838,133.43251 -5.112,-7.608 c 2.616,-0.504 4.416,-1.944 4.416,-4.632 0,-3.384 -2.904,-4.8 -6.672,-4.8 -1.344,0 -2.688,0.072 -4.008,0.24 h -1.92 v 16.8 h 1.968 v -7.8 c 1.296,0.24 2.64,0.384 3.96,0.384 l 5.016,7.416 z m -3.048,-12.24 c 0,2.184 -2.04,3.72 -4.32,3.72 -1.32,0 -2.664,-0.144 -3.96,-0.384 v -6.792 c 1.32,-0.168 2.64,-0.24 3.96,-0.24 2.28,0 4.32,1.536 4.32,3.696 z"
         style="font-size:24px;line-height:1.25"
         id="path1056" />
      <path
         d="m 61.424822,128.27251 v -0.24 c 0,-3.384 -1.848,-5.64 -4.632,-5.64 -2.808,0 -4.656,2.256 -4.656,5.64 0,3.384 1.848,5.64 4.656,5.64 1.2,0 2.376,-0.384 3.36,-1.08 v -1.008 c -1.128,0.72 -2.04,0.984 -3.36,0.984 -2.04,0 -2.544,-1.944 -2.544,-4.296 z m -2.112,-1.008 h -5.064 c 0,-1.92 0.816,-3.864 2.544,-3.864 1.704,0 2.52,1.944 2.52,3.864 z"
         style="font-size:24px;line-height:1.25"
         id="path1058" />
      <path
         d="m 72.32079,125.12851 v -1.008 c -0.768,-1.08 -2.016,-1.728 -3.36,-1.728 -3,0 -5.016,2.256 -5.016,5.64 0,3.384 2.016,5.64 5.016,5.64 1.248,0 2.424,-0.624 3.12,-1.656 v -1.008 c -0.816,1.224 -1.656,1.656 -3.12,1.656 -1.728,0 -2.904,-1.848 -2.904,-4.632 0,-2.784 1.176,-4.632 2.904,-4.632 1.488,0 2.496,0.528 3.36,1.728 z"
         style="font-size:24px;line-height:1.25"
         id="path1060" />
      <path
         d="m 83.528765,133.43251 v -7.8 c 0,-1.752 -1.344,-3.24 -3.072,-3.24 -1.44,0 -2.712,0.816 -3.744,1.824 v -7.584 h -1.872 v 16.8 h 1.872 v -8.472 c 0.816,-0.816 1.824,-1.464 2.952,-1.464 1.128,0 1.992,0.984 1.992,2.136 v 7.8 z"
         style="font-size:24px;line-height:1.25"
         id="path1062" />
      <path
         d="m 95.936724,128.27251 v -0.24 c 0,-3.384 -1.848,-5.64 -4.632,-5.64 -2.808,0 -4.656,2.256 -4.656,5.64 0,3.384 1.848,5.64 4.656,5.64 1.2,0 2.376,-0.384 3.36,-1.08 v -1.008 c -1.128,0.72 -2.04,0.984 -3.36,0.984 -2.04,0 -2.544,-1.944 -2.544,-4.296 z m -2.112,-1.008 h -5.064 c 0,-1.92 0.816,-3.864 2.544,-3.864 1.704,0 2.52,1.944 2.52,3.864 z"
         style="font-size:24px;line-height:1.25"
         id="path1064" />
      <path
         d="m 105.03269,124.12051 v -1.488 c -0.264,-0.096 -0.552,-0.168 -0.816,-0.168 -1.344,0 -2.424,0.936 -3.288,1.968 v -1.8 h -1.871998 v 10.8 h 1.871998 v -7.992 c 0.72,-0.84 1.632,-1.56 2.736,-1.56 0.456,0 0.936,0.096 1.368,0.24 z"
         style="font-size:24px;line-height:1.25"
         id="path1066" />
      <path
         d="m 115.20867,125.12851 v -1.008 c -0.768,-1.08 -2.016,-1.728 -3.36,-1.728 -3,0 -5.016,2.256 -5.016,5.64 0,3.384 2.016,5.64 5.016,5.64 1.248,0 2.424,-0.624 3.12,-1.656 v -1.008 c -0.816,1.224 -1.656,1.656 -3.12,1.656 -1.728,0 -2.904,-1.848 -2.904,-4.632 0,-2.784 1.176,-4.632 2.904,-4.632 1.488,0 2.496,0.528 3.36,1.728 z"
         style="font-size:24px;line-height:1.25"
         id="path1068" />
      <path
         d="m 126.41664,133.43251 v -7.8 c 0,-1.752 -1.344,-3.24 -3.072,-3.24 -1.44,0 -2.712,0.816 -3.744,1.824 v -7.584 h -1.872 v 16.8 h 1.872 v -8.472 c 0.816,-0.816 1.824,-1.464 2.952,-1.464 1.128,0 1.992,0.984 1.992,2.136 v 7.8 z"
         style="font-size:24px;line-height:1.25"
         id="path1070" />
      <path
         d="m 138.8246,128.27251 v -0.24 c 0,-3.384 -1.848,-5.64 -4.632,-5.64 -2.808,0 -4.656,2.256 -4.656,5.64 0,3.384 1.848,5.64 4.656,5.64 1.2,0 2.376,-0.384 3.36,-1.08 v -1.008 c -1.128,0.72 -2.04,0.984 -3.36,0.984 -2.04,0 -2.544,-1.944 -2.544,-4.296 z m -2.112,-1.008 h -5.064 c 0,-1.92 0.816,-3.864 2.544,-3.864 1.704,0 2.52,1.944 2.52,3.864 z"
         style="font-size:24px;line-height:1.25"
         id="path1072" />
      <path
         d="m 45.728838,163.43251 v -16.8 h -1.872 v 6.408 c -0.936,-0.408 -1.944,-0.648 -2.952,-0.648 -3,0 -4.464,2.4 -4.464,5.64 0,3.192 1.2,5.64 4.104,5.64 1.224,0 2.352,-0.552 3.312,-1.32 v 1.08 z m -1.872,-2.088 c -0.72,0.72 -1.608,1.32 -2.64,1.32 -2.184,0 -2.664,-2.112 -2.664,-4.632 0,-2.256 0.696,-4.632 2.664,-4.632 0.912,0 1.824,0.24 2.64,0.648 z"
         style="font-size:24px;line-height:1.25"
         id="path1074" />
      <path
         d="m 49.664823,152.24851 v -5.616 h -1.104 v 5.616 z"
         style="font-size:24px;line-height:1.25"
         id="path1076" />
      <path
         d="m 61.064817,163.43251 v -10.8 h -1.872 v 8.472 c -0.816,0.816 -1.824,1.464 -2.952,1.464 -1.128,0 -1.992,-0.984 -1.992,-2.136 v -7.8 h -1.872 v 7.8 c 0,1.752 1.344,3.24 3.072,3.24 1.44,0 2.712,-0.816 3.744,-1.824 v 1.584 z"
         style="font-size:24px;line-height:1.25"
         id="path1078" />
      <path
         d="m 73.592776,163.43251 v -7.8 c 0,-1.752 -1.344,-3.24 -3.072,-3.24 -1.44,0 -2.712,0.816 -3.744,1.824 v -1.584 h -1.872 v 10.8 h 1.872 v -8.472 c 0.816,-0.816 1.824,-1.464 2.952,-1.464 1.128,0 1.992,0.984 1.992,2.136 v 7.8 z"
         style="font-size:24px;line-height:1.25"
         id="path1080" />
      <path
         d="m 98.408693,163.43251 v -7.8 c 0,-1.68 -0.984,-3.24 -2.544,-3.24 -1.344,0 -2.592,0.696 -3.312,1.824 -0.384,-1.056 -1.2,-1.824 -2.304,-1.824 -1.248,0 -2.256,0.864 -3.072,1.824 v -1.584 h -1.872 v 10.8 h 1.872 v -8.496 c 0.576,-0.744 1.296,-1.44 2.232,-1.44 0.984,0 1.512,1.056 1.512,2.136 v 7.8 h 1.872 v -7.8 c 0,-0.288 -0.024,-0.552 -0.072,-0.84 0.576,-0.744 1.368,-1.296 2.304,-1.296 0.984,0 1.512,1.056 1.512,2.136 v 7.8 z"
         style="font-size:24px;line-height:1.25"
         id="path1082" />
      <path
         d="m 110.69665,163.43251 v -10.8 h -1.872 v 8.472 c -0.816,0.816 -1.824,1.464 -2.952,1.464 -1.128,0 -1.992,-0.984 -1.992,-2.136 v -7.8 h -1.872 v 7.8 c 0,1.752 1.344,3.24 3.072,3.24 1.44,0 2.712,-0.816 3.744,-1.824 v 1.584 z"
         style="font-size:24px;line-height:1.25"
         id="path1084" />
      <path
         d="m 120.51261,154.12051 v -1.488 c -0.264,-0.096 -0.552,-0.168 -0.816,-0.168 -1.344,0 -2.424,0.936 -3.288,1.968 v -1.8 h -1.872 v 10.8 h 1.872 v -7.992 c 0.72,-0.84 1.632,-1.56 2.736,-1.56 0.456,0 0.936,0.096 1.368,0.24 z"
         style="font-size:24px;line-height:1.25"
         id="path1086" />
    </g>
    <g
       id="g11058"
       transform="matrix(1,0,0,0.48387264,1311.0179,-666.41813)">
      <path
         id="rect11060"
         style="fill:#afdde9"
         d="m -977.94665,1611.5896 h 24.80315 c 7.85197,0 14.17323,13.0639 14.17323,29.2912 v 51.2595 c 0,16.2273 -6.32126,29.2912 -14.17323,29.2912 h -24.80315 c -7.85196,0 -14.17322,-13.0639 -14.17322,-29.2912 v -51.2595 c 0,-16.2273 6.32126,-29.2912 14.17322,-29.2912 z" />
    </g>
    <g
       id="g11074"
       transform="translate(1311.024,-1611.5897)">
      <path
         id="rect11076"
         style="fill:#afdde9"
         d="m -977.95281,1795.8417 h 24.80316 c 7.85197,0 14.17323,6.3212 14.17323,14.1732 v 24.8032 c 0,7.8519 -6.32126,14.1732 -14.17323,14.1732 h -24.80316 c -7.85197,0 -14.17323,-6.3213 -14.17323,-14.1732 v -24.8032 c 0,-7.852 6.32126,-14.1732 14.17323,-14.1732 z" />
    </g>
    <g
       id="g11078"
       transform="translate(1311.024,-1611.5898)">
      <path
         id="rect11080"
         style="fill:#ffaaaa"
         d="m -871.65361,1795.8417 h 24.80317 c 7.85197,0 14.17323,6.3213 14.17323,14.1732 v 24.8032 c 0,7.8519 -6.32126,14.1732 -14.17323,14.1732 h -24.80317 c -7.85197,0 -14.17323,-6.3213 -14.17323,-14.1732 v -24.8032 c 0,-7.8519 6.32126,-14.1732 14.17323,-14.1732 z" />
    </g>
    <g
       id="g11094"
       transform="translate(1311.024,-1724.9759)">
      <path
         id="rect11096"
         style="fill:#afdde9"
         d="m -765.35436,1980.0936 h 24.80316 c 7.85197,0 14.17323,6.3213 14.17323,14.1732 v 24.8032 c 0,7.852 -6.32126,14.1732 -14.17323,14.1732 h -24.80316 c -7.85197,0 -14.17323,-6.3212 -14.17323,-14.1732 v -24.8032 c 0,-7.8519 6.32126,-14.1732 14.17323,-14.1732 z" />
    </g>
    <g
       id="g11102"
       transform="translate(1311.024,-1781.6689)">
      <path
         id="rect11104"
         style="fill:#afdde9"
         d="m -765.35436,2107.6528 h 24.80316 c 7.85197,0 14.17323,6.3213 14.17323,14.1732 v 24.8032 c 0,7.852 -6.32126,14.1732 -14.17323,14.1732 h -24.80316 c -7.85197,0 -14.17323,-6.3212 -14.17323,-14.1732 v -24.8032 c 0,-7.8519 6.32126,-14.1732 14.17323,-14.1732 z" />
    </g>
    <g
       id="g11260"
       transform="rotate(90,143.04298,187.24646)">
      <path
         style="fill:#d5f6ff;fill-opacity:1;fill-rule:evenodd;stroke:#000000;stroke-width:1px;stroke-linecap:butt;stroke-linejoin:miter;stroke-opacity:1"
         d="M 51.377951,56.360653 V 77.620495 L 70.866142,67.37838 Z"
         id="path11262"
         transform="translate(-44.203438,-91.419854)" />
      <path
         id="path11264"
         style="fill:#d5f6ff;stroke:#000000;stroke-width:0.999213"
         transform="translate(-44.203438,-91.419854)"
         d="m 77.952754,67.37838 a 3.5433071,3.5433071 0 0 1 -3.543307,3.543307 3.5433071,3.5433071 0 0 1 -3.543307,-3.543307 3.5433071,3.5433071 0 0 1 3.543307,-3.543307 3.5433071,3.5433071 0 0 1 3.543307,3.543307 z" />
      <path
         style="fill:none;stroke:#000000;stroke-width:1px;stroke-linecap:butt;stroke-linejoin:miter;stroke-opacity:1;marker-start:url(#marker22529)"
         d="M 24.803153,85.094915 V 67.37838 l 26.574798,-0.387806"
         id="path11266"
         transform="translate(-44.203438,-91.419854)" />
      <path
         style="fill:none;stroke:#000000;stroke-width:1px;stroke-linecap:butt;stroke-linejoin:miter;stroke-opacity:1"
         d="M 77.952756,67.37838 H 396.85038"
         id="path11268"
         transform="translate(-44.203438,-91.419854)" />
    </g>
    <path
       style="fill:none;stroke:#000000;stroke-width:1px;stroke-linecap:butt;stroke-linejoin:miter;stroke-opacity:1"
       d="M 336.61444,7.0866801 V 396.85047"
       id="path11270" />
    <g
       transform="matrix(2.0000011,0,0,2.0000011,194.88204,-240.94493)"
       id="g11272">
      <g
         aria-label="CA"
         id="text11274"
         style="line-height:0%;font-family:Iwona;-inkscape-font-specification:Iwona;text-align:center;text-anchor:middle">
        <path
           d="m 70.084168,95.741977 v -0.648 c -0.648,-0.936 -1.716,-1.488 -2.844,-1.488 -2.436,0 -3.756,1.776 -3.756,4.32 0,2.544003 1.32,4.320003 3.756,4.320003 0.936,0 1.86,-0.276 2.652,-0.792 v -0.552 c -0.792,0.516 -1.716,0.792 -2.652,0.792 -1.884,0 -2.58,-1.668 -2.58,-3.768003 0,-2.1 0.696,-3.768 2.58,-3.768 1.152,0 2.232,0.6 2.844,1.584 z"
           style="font-size:12px;line-height:1.25"
           id="path1095" />
        <path
           d="m 77.76416,102.12598 -3.048,-8.400003 h -1.044 l -3.108,8.400003 h 0.588 l 1.092,-2.940003 h 3.408 l 1.068,2.940003 z m -2.316,-3.492003 h -3 l 1.512,-4.104 z"
           style="font-size:12px;line-height:1.25"
           id="path1097" />
      </g>
      <g
         transform="translate(-318.89764,-159.44881)"
         id="g11278">
        <path
           id="path11280"
           d="m 396.8504,265.74803 h -14.17322 v 10.62991 l 7.08661,7.08661 7.08661,-7.08661 z"
           style="fill:#d5f6ff;fill-opacity:1;stroke:#000000;stroke-width:0.5px;stroke-linecap:butt;stroke-linejoin:miter;stroke-opacity:1" />
      </g>
    </g>
    <g
       id="g11282"
       transform="matrix(2.0000011,0,0,2.0000011,301.18124,-240.94493)">
      <g
         aria-label="CG"
         id="text11284"
         style="line-height:0%;font-family:Iwona;-inkscape-font-specification:Iwona;text-align:center;text-anchor:middle">
        <path
           d="m 69.436169,95.741977 v -0.648 c -0.648,-0.936 -1.716,-1.488 -2.844,-1.488 -2.436,0 -3.756,1.776 -3.756,4.32 0,2.544003 1.32,4.320003 3.756,4.320003 0.936,0 1.86,-0.276 2.652,-0.792 v -0.552 c -0.792,0.516 -1.716,0.792 -2.652,0.792 -1.884,0 -2.58,-1.668 -2.58,-3.768003 0,-2.1 0.696,-3.768 2.58,-3.768 1.152,0 2.232,0.6 2.844,1.584 z"
           style="font-size:12px;line-height:1.25"
           id="path1100" />
        <path
           d="m 77.572162,102.12598 v -3.528003 h -0.984 v 2.316003 c -0.624,0.504 -1.392,0.78 -2.196,0.78 -1.908,0 -2.7,-1.644 -2.7,-3.768003 0,-2.124 0.792,-3.768 2.7,-3.768 1.128,0 2.196,0.444 2.988,1.248 v -0.552 c -0.792,-0.804 -1.86,-1.248 -2.988,-1.248 -2.472,0 -3.876,1.752 -3.876,4.32 0,2.568003 1.404,4.320003 3.876,4.320003 0.804,0 1.572,-0.276 2.196,-0.78 v 0.66 z"
           style="font-size:12px;line-height:1.25"
           id="path1102" />
      </g>
      <g
         id="g11288"
         transform="translate(-318.89764,-159.44881)">
        <path
           style="fill:#d5f6ff;fill-opacity:1;stroke:#000000;stroke-width:0.5px;stroke-linecap:butt;stroke-linejoin:miter;stroke-opacity:1"
           d="m 396.8504,265.74803 h -14.17322 v 10.62991 l 7.08661,7.08661 7.08661,-7.08661 z"
           id="path11290" />
      </g>
    </g>
    <g
       transform="matrix(2.0000011,0,0,2.0000011,407.48044,-240.94493)"
       id="g11292">
      <g
         aria-label="FR"
         id="text11294"
         style="line-height:0%;font-family:Iwona;-inkscape-font-specification:Iwona;text-align:center;text-anchor:middle">
        <path
           d="m 69.556165,94.277977 v -0.552 h -5.712 v 8.400003 h 0.984 v -3.924003 h 3.816 v -0.552 h -3.816 v -3.372 z"
           style="font-size:12px;line-height:1.25"
           id="path1105" />
        <path
           d="m 77.884158,102.12598 -2.556,-3.804003 c 1.308,-0.252 2.208,-0.972 2.208,-2.316 0,-1.692 -1.452,-2.4 -3.336,-2.4 -0.672,0 -1.344,0.036 -2.004,0.12 h -0.96 v 8.400003 h 0.984 v -3.900003 c 0.648,0.12 1.32,0.192 1.98,0.192 l 2.508,3.708003 z m -1.524,-6.120003 c 0,1.092 -1.02,1.86 -2.16,1.86 -0.66,0 -1.332,-0.072 -1.98,-0.192 v -3.396 c 0.66,-0.084 1.32,-0.12 1.98,-0.12 1.14,0 2.16,0.768 2.16,1.848 z"
           style="font-size:12px;line-height:1.25"
           id="path1107" />
      </g>
      <g
         transform="translate(-318.89764,-159.44881)"
         id="g11298">
        <path
           id="path11300"
           d="m 396.8504,265.74803 h -14.17322 v 10.62991 l 7.08661,7.08661 7.08661,-7.08661 z"
           style="fill:#d5f6ff;fill-opacity:1;stroke:#000000;stroke-width:0.5px;stroke-linecap:butt;stroke-linejoin:miter;stroke-opacity:1" />
      </g>
    </g>
    <g
       transform="rotate(90,196.19263,240.39611)"
       id="g11302">
      <path
         transform="translate(-44.203438,-91.419854)"
         id="path11304"
         d="M 51.377951,56.360653 V 77.620495 L 70.866142,67.37838 Z"
         style="fill:#d5f6ff;fill-opacity:1;fill-rule:evenodd;stroke:#000000;stroke-width:1px;stroke-linecap:butt;stroke-linejoin:miter;stroke-opacity:1" />
      <path
         id="path11306"
         style="fill:#d5f6ff;stroke:#000000;stroke-width:0.999213"
         transform="translate(-44.203438,-91.419854)"
         d="m 77.952754,67.37838 a 3.5433071,3.5433071 0 0 1 -3.543307,3.543307 3.5433071,3.5433071 0 0 1 -3.543307,-3.543307 3.5433071,3.5433071 0 0 1 3.543307,-3.543307 3.5433071,3.5433071 0 0 1 3.543307,3.543307 z" />
      <path
         transform="translate(-44.203438,-91.419854)"
         id="path11308"
         d="M 24.803153,85.094915 V 67.37838 l 26.574798,-0.387806"
         style="fill:none;stroke:#000000;stroke-width:1px;stroke-linecap:butt;stroke-linejoin:miter;stroke-opacity:1;marker-start:url(#marker22529)" />
      <path
         id="path11310"
         d="M 77.952756,67.37838 H 396.85038"
         style="fill:none;stroke:#000000;stroke-width:1px;stroke-linecap:butt;stroke-linejoin:miter;stroke-opacity:1"
         transform="translate(-44.203438,-91.419854)" />
    </g>
    <path
       id="path11312"
       d="M 442.91364,7.0866801 V 396.85047"
       style="fill:none;stroke:#000000;stroke-width:1px;stroke-linecap:butt;stroke-linejoin:miter;stroke-opacity:1" />
    <g
       id="g11314"
       transform="rotate(90,249.34223,293.54571)">
      <path
         style="fill:#d5f6ff;fill-opacity:1;fill-rule:evenodd;stroke:#000000;stroke-width:1px;stroke-linecap:butt;stroke-linejoin:miter;stroke-opacity:1"
         d="M 51.377951,56.360653 V 77.620495 L 70.866142,67.37838 Z"
         id="path11316"
         transform="translate(-44.203438,-91.419854)" />
      <path
         id="path11318"
         style="fill:#d5f6ff;stroke:#000000;stroke-width:0.999213"
         transform="translate(-44.203438,-91.419854)"
         d="m 77.952754,67.37838 a 3.5433071,3.5433071 0 0 1 -3.543307,3.543307 3.5433071,3.5433071 0 0 1 -3.543307,-3.543307 3.5433071,3.5433071 0 0 1 3.543307,-3.543307 3.5433071,3.5433071 0 0 1 3.543307,3.543307 z" />
      <path
         style="fill:none;stroke:#000000;stroke-width:1px;stroke-linecap:butt;stroke-linejoin:miter;stroke-opacity:1;marker-start:url(#marker22529)"
         d="M 24.803153,85.094915 V 67.37838 l 26.574798,-0.387806"
         id="path11320"
         transform="translate(-44.203438,-91.419854)" />
      <path
         style="fill:none;stroke:#000000;stroke-width:1px;stroke-linecap:butt;stroke-linejoin:miter;stroke-opacity:1"
         d="M 77.952756,67.37838 H 396.85038"
         id="path11322"
         transform="translate(-44.203438,-91.419854)" />
    </g>
    <path
       style="fill:none;stroke:#000000;stroke-width:1px;stroke-linecap:butt;stroke-linejoin:miter;stroke-opacity:1"
       d="M 549.21284,7.0866801 V 396.85047"
       id="path11324" />
    <path
       id="path11326"
       d="m 244.48844,95.669373 1e-4,620.078697 h 198.4251"
       style="fill:none;stroke:#000000;stroke-width:1px;stroke-linecap:butt;stroke-linejoin:miter;stroke-opacity:1" />
    <g
       transform="matrix(0,-1,-1,0,181.47054,457.17457)"
       id="g11328">
      <path
         transform="translate(-44.203438,-91.419854)"
         id="path11330"
         d="M 51.377951,56.360653 V 77.620495 L 70.866142,67.37838 Z"
         style="fill:#d5f6ff;fill-opacity:1;fill-rule:evenodd;stroke:#000000;stroke-width:1px;stroke-linecap:butt;stroke-linejoin:miter;stroke-opacity:1" />
      <path
         id="path11332"
         style="fill:#d5f6ff;stroke:#000000;stroke-width:0.999213"
         transform="translate(-44.203438,-91.419854)"
         d="m 77.952754,67.37838 a 3.5433071,3.5433071 0 0 1 -3.543307,3.543307 3.5433071,3.5433071 0 0 1 -3.543307,-3.543307 3.5433071,3.5433071 0 0 1 3.543307,-3.543307 3.5433071,3.5433071 0 0 1 3.543307,3.543307 z" />
      <path
         transform="translate(-44.203438,-91.419854)"
         id="path11334"
         d="M 24.803153,85.094915 V 67.37838 l 26.574798,-0.387806"
         style="fill:none;stroke:#000000;stroke-width:1px;stroke-linecap:butt;stroke-linejoin:miter;stroke-opacity:1;marker-start:url(#marker22529)" />
      <path
         transform="translate(-44.203438,-91.419854)"
         id="path11336"
         d="M 77.952756,67.37838 H 405.70868"
         style="fill:none;stroke:#000000;stroke-width:1px;stroke-linecap:butt;stroke-linejoin:miter;stroke-opacity:1" />
    </g>
    <path
       style="fill:none;stroke:#000000;stroke-width:1px;stroke-linecap:butt;stroke-linejoin:miter;stroke-opacity:1"
       d="m 187.79554,95.669373 1e-4,566.929097 h 255.118"
       id="path11338" />
    <g
       id="g11340"
       transform="matrix(0,-1,-1,0,238.16344,457.17457)">
      <path
         style="fill:#d5f6ff;fill-opacity:1;fill-rule:evenodd;stroke:#000000;stroke-width:1px;stroke-linecap:butt;stroke-linejoin:miter;stroke-opacity:1"
         d="M 51.377951,56.360653 V 77.620495 L 70.866142,67.37838 Z"
         id="path11342"
         transform="translate(-44.203438,-91.419854)" />
      <path
         id="path11344"
         style="fill:#d5f6ff;stroke:#000000;stroke-width:0.999213"
         transform="translate(-44.203438,-91.419854)"
         d="m 77.952754,67.37838 a 3.5433071,3.5433071 0 0 1 -3.543307,3.543307 3.5433071,3.5433071 0 0 1 -3.543307,-3.543307 3.5433071,3.5433071 0 0 1 3.543307,-3.543307 3.5433071,3.5433071 0 0 1 3.543307,3.543307 z" />
      <path
         style="fill:none;stroke:#000000;stroke-width:1px;stroke-linecap:butt;stroke-linejoin:miter;stroke-opacity:1;marker-start:url(#marker22529)"
         d="M 24.803153,85.094915 V 67.37838 l 26.574798,-0.387806"
         id="path11346"
         transform="translate(-44.203438,-91.419854)" />
      <path
         style="fill:none;stroke:#000000;stroke-width:1px;stroke-linecap:butt;stroke-linejoin:miter;stroke-opacity:1"
         d="M 77.952756,67.37838 H 405.70868"
         id="path11348"
         transform="translate(-44.203438,-91.419854)" />
    </g>
    <g
       transform="translate(1732.6773,-1554.8962)"
       id="g922"
       style="fill:#afdde9;fill-opacity:1">
      <path
         id="rect920"
         d="m -871.65361,1673.597 h 24.80317 c 7.85197,0 14.17323,6.3213 14.17323,14.1733 v 14.1732 c 0,7.852 -6.32126,14.1733 -14.17323,14.1733 h -24.80317 c -7.85197,0 -14.17323,-6.3213 -14.17323,-14.1733 v -14.1732 c 0,-7.852 6.32126,-14.1733 14.17323,-14.1733 z" />
    </g>
    <g
       transform="translate(1874.4096,-1554.8962)"
       id="g4594"
       style="fill:#afdde9;fill-opacity:1">
      <path
         id="rect4592"
         d="m -871.65361,1673.597 h 24.80317 c 7.85197,0 14.17323,6.3213 14.17323,14.1733 v 14.1732 c 0,7.852 -6.32126,14.1733 -14.17323,14.1733 h -24.80317 c -7.85197,0 -14.17323,-6.3213 -14.17323,-14.1733 v -14.1732 c 0,-7.852 6.32126,-14.1733 14.17323,-14.1733 z" />
    </g>
    <g
       id="g11350"
       transform="translate(663.96614,154.29737)">
      <path
         id="path11352"
         d="m -458.45405,-30.281626 432.283461,-1.3e-5"
         style="fill:none;stroke:#000000;stroke-width:1px;stroke-linecap:butt;stroke-linejoin:miter;stroke-opacity:1;marker-start:url(#DotL)" />
      <path
         id="path11354"
         d="M 9.2624824,-14.336754 H 381.30971"
         style="fill:none;stroke:#000000;stroke-width:1px;stroke-linecap:butt;stroke-linejoin:miter;stroke-opacity:1" />
      <path
         id="path11356"
         d="m -26.170585,-40.911554 v 53.1496 h 4.514533 c 4.514534,0 30.9185342,2e-6 30.9185342,-26.574799 0,-26.5748 -26.4040002,-26.574801 -30.9185342,-26.574801 0,0 -4.514533,0 -4.514533,0 z"
         style="fill:#d5f6ff;fill-opacity:1;stroke:#000000;stroke-width:1px;stroke-linecap:butt;stroke-linejoin:miter;stroke-opacity:1" />
      <path
         style="fill:none;stroke:#000000;stroke-width:1;stroke-linecap:butt;stroke-linejoin:miter;stroke-miterlimit:4;stroke-dasharray:none;stroke-opacity:1;marker-start:url(#DotL)"
         d="m -221.05248,1.6081377 194.881891,-1.34e-5"
         id="path11358" />
      <path
         style="fill:none;stroke:#000000;stroke-width:1;stroke-linecap:butt;stroke-linejoin:miter;stroke-miterlimit:4;stroke-dasharray:none;stroke-opacity:1;marker-start:url(#DotL)"
         d="m -401.76114,-19.651705 375.590559,-1.3e-5"
         id="path11360" />
      <path
         id="path11362"
         d="m -309.63542,-9.104962 283.464831,0.083165"
         style="fill:none;stroke:#000000;stroke-width:1;stroke-linecap:butt;stroke-linejoin:miter;stroke-miterlimit:4;stroke-dasharray:none;stroke-opacity:1;marker-start:url(#DotL)" />
    </g>
    <g
       id="g11376"
       transform="translate(663.96614,225.16357)">
      <path
         id="path11378"
         d="m -458.45405,-30.281671 432.283461,3.2e-5"
         style="fill:none;stroke:#000000;stroke-width:1;stroke-linecap:butt;stroke-linejoin:miter;stroke-miterlimit:4;stroke-dasharray:none;stroke-opacity:1;marker-start:url(#DotL)" />
      <path
         id="path11380"
         d="M 9.2624822,-14.336754 H 381.3097"
         style="fill:none;stroke:#000000;stroke-width:1px;stroke-linecap:butt;stroke-linejoin:miter;stroke-opacity:1" />
      <path
         id="path11382"
         d="m -26.170585,-40.911554 v 53.1496 h 4.514533 c 4.514534,0 30.9185342,2e-6 30.9185342,-26.574799 0,-26.5748 -26.4040002,-26.574801 -30.9185342,-26.574801 0,0 -4.514533,0 -4.514533,0 z"
         style="fill:#d5f6ff;fill-opacity:1;stroke:#000000;stroke-width:1px;stroke-linecap:butt;stroke-linejoin:miter;stroke-opacity:1" />
      <path
         style="fill:none;stroke:#000000;stroke-width:1;stroke-linecap:butt;stroke-linejoin:miter;stroke-miterlimit:4;stroke-dasharray:none;stroke-opacity:1;marker-start:url(#DotL)"
         d="m -221.05248,1.6080929 194.881891,3.14e-5"
         id="path11384" />
      <path
         style="fill:none;stroke:#000000;stroke-width:1;stroke-linecap:butt;stroke-linejoin:miter;stroke-miterlimit:4;stroke-dasharray:none;stroke-opacity:1;marker-start:url(#DotL)"
         d="m -419.47768,-19.65175 393.307099,3.2e-5"
         id="path11386" />
      <path
         id="path11388"
         d="M -309.63517,-9.0217969 H -26.170589"
         style="fill:none;stroke:#000000;stroke-width:1;stroke-linecap:butt;stroke-linejoin:miter;stroke-miterlimit:4;stroke-dasharray:none;stroke-opacity:1;marker-start:url(#DotL)" />
    </g>
    <g
       transform="translate(1874.4096,-1412.9365)"
       id="g4602"
       style="fill:#afdde9;fill-opacity:1">
      <path
         id="rect4600"
         d="m -871.65361,1673.597 h 24.80317 c 7.85197,0 14.17323,6.3213 14.17323,14.1733 v 14.1732 c 0,7.852 -6.32126,14.1733 -14.17323,14.1733 h -24.80317 c -7.85197,0 -14.17323,-6.3213 -14.17323,-14.1733 v -14.1732 c 0,-7.852 6.32126,-14.1733 14.17323,-14.1733 z" />
    </g>
    <g
       transform="translate(663.96614,296.02937)"
       id="g11416">
      <path
         style="fill:none;stroke:#000000;stroke-width:1;stroke-linecap:butt;stroke-linejoin:miter;stroke-miterlimit:4;stroke-dasharray:none;stroke-opacity:1;marker-start:url(#DotL)"
         d="m -476.17059,-30.281602 450.000001,-3.7e-5"
         id="path11418" />
      <path
         style="fill:none;stroke:#000000;stroke-width:1px;stroke-linecap:butt;stroke-linejoin:miter;stroke-opacity:1"
         d="M 9.2624822,-14.336754 H 381.3097"
         id="path11420" />
      <path
         style="fill:#d5f6ff;fill-opacity:1;stroke:#000000;stroke-width:1px;stroke-linecap:butt;stroke-linejoin:miter;stroke-opacity:1"
         d="m -26.170585,-40.911554 v 53.1496 h 4.514533 c 4.514534,0 30.9185342,2e-6 30.9185342,-26.574799 0,-26.5748 -26.4040002,-26.574801 -30.9185342,-26.574801 0,0 -4.514533,0 -4.514533,0 z"
         id="path11422" />
      <path
         id="path11424"
         d="M -401.76114,-14.336754 H -26.17059"
         style="fill:none;stroke:#000000;stroke-width:1;stroke-linecap:butt;stroke-linejoin:miter;stroke-miterlimit:4;stroke-dasharray:none;stroke-opacity:1;marker-start:url(#DotL)" />
      <path
         style="fill:none;stroke:#000000;stroke-width:1px;stroke-linecap:butt;stroke-linejoin:miter;stroke-opacity:1;marker-start:url(#DotL)"
         d="m -97.03673,1.6081614 70.866141,-1.03e-5"
         id="path11426" />
    </g>
    <g
       id="g11428"
       transform="translate(663.96614,366.89557)">
      <path
         id="path11430"
         d="m -476.17059,-30.281647 450.000001,8e-6"
         style="fill:none;stroke:#000000;stroke-width:1;stroke-linecap:butt;stroke-linejoin:miter;stroke-miterlimit:4;stroke-dasharray:none;stroke-opacity:1;marker-start:url(#DotL)" />
      <path
         id="path11432"
         d="M 9.2624822,-14.336754 H 349.41992 V 168.14384"
         style="fill:none;stroke:#000000;stroke-width:1px;stroke-linecap:butt;stroke-linejoin:miter;stroke-opacity:1" />
      <path
         id="path11434"
         d="m -26.170585,-40.911554 v 53.1496 h 4.514533 c 4.514534,0 30.9185342,2e-6 30.9185342,-26.574799 0,-26.5748 -26.4040002,-26.574801 -30.9185342,-26.574801 0,0 -4.514533,0 -4.514533,0 z"
         style="fill:#d5f6ff;fill-opacity:1;stroke:#000000;stroke-width:1px;stroke-linecap:butt;stroke-linejoin:miter;stroke-opacity:1" />
      <path
         style="fill:none;stroke:#000000;stroke-width:1;stroke-linecap:butt;stroke-linejoin:miter;stroke-miterlimit:4;stroke-dasharray:none;stroke-opacity:1;marker-start:url(#DotL)"
         d="M -419.47767,-14.336754 H -26.170591"
         id="path11436" />
      <path
         id="path11438"
         d="m -97.03673,1.6081614 70.866141,-1.03e-5"
         style="fill:none;stroke:#000000;stroke-width:1px;stroke-linecap:butt;stroke-linejoin:miter;stroke-opacity:1;marker-start:url(#DotL)" />
    </g>
    <g
       transform="translate(348.44984,606.94577)"
       id="g11454">
      <path
         id="rect11456"
         style="fill:#fff6d5;stroke:#000000;stroke-width:0.999213"
         d="m 129.89687,37.936165 h 60.06636 v 49.606323 h -60.06636 z" />
      <g
         transform="translate(277.79303,-74.409443)"
         id="g11458">
        <g
           aria-label="Q"
           id="text11460"
           style="line-height:0%;font-family:Iwona;-inkscape-font-specification:Iwona">
          <path
             d="m -136.13286,129.40545 c 0,-2.544 -1.32,-4.32 -3.744,-4.32 -2.436,0 -3.756,1.776 -3.756,4.32 0,2.544 1.32,4.32 3.756,4.32 0.084,0.972 0.888,1.716 1.872,1.716 0.612,0 0.78,-0.036 1.344,-0.288 v -0.36 c -0.276,0.156 -0.576,0.24 -0.9,0.24 -1.092,0 -1.524,-0.384 -1.536,-1.38 1.92,-0.336 2.964,-1.992 2.964,-4.248 z m -1.176,0 c 0,2.1 -0.696,3.768 -2.568,3.768 -1.884,0 -2.58,-1.668 -2.58,-3.768 0,-2.1 0.696,-3.768 2.58,-3.768 1.872,0 2.568,1.668 2.568,3.768 z"
             style="font-size:12px;line-height:1.25"
             id="path1118" />
        </g>
      </g>
      <g
         transform="translate(305.63559,-53.1496)"
         id="g11464">
        <g
           aria-label="CLK"
           id="text11466"
           style="line-height:0%;font-family:Iwona;-inkscape-font-specification:Iwona;text-align:center;text-anchor:middle">
          <path
             d="m -140.59033,127.22145 v -0.648 c -0.648,-0.936 -1.716,-1.488 -2.844,-1.488 -2.436,0 -3.756,1.776 -3.756,4.32 0,2.544 1.32,4.32 3.756,4.32 0.936,0 1.86,-0.276 2.652,-0.792 v -0.552 c -0.792,0.516 -1.716,0.792 -2.652,0.792 -1.884,0 -2.58,-1.668 -2.58,-3.768 0,-2.1 0.696,-3.768 2.58,-3.768 1.152,0 2.232,0.6 2.844,1.584 z"
             style="font-size:12px;line-height:1.25"
             id="path1121" />
          <path
             d="m -134.23034,133.60545 v -0.552 h -3.816 v -7.848 h -0.984 v 8.4 z"
             style="font-size:12px;line-height:1.25"
             id="path1123" />
          <path
             d="m -125.73436,133.60545 -5.316,-4.752 5.028,-3.648 h -0.948 l -4.836,3.516 v -3.516 h -0.984 v 8.4 h 0.984 v -4.104 l 4.596,4.104 z"
             style="font-size:12px;line-height:1.25"
             id="path1125" />
        </g>
      </g>
      <g
         aria-label="D"
         id="text11470"
         style="line-height:0%;font-family:Iwona;-inkscape-font-specification:Iwona">
        <path
           d="m 184.16339,54.996007 c 0,-2.568 -1.404,-4.32 -3.876,-4.32 -0.744,0 -1.488,0.036 -2.22,0.12 h -0.96 v 8.4 h 0.96 c 0.732,0.084 1.476,0.12 2.22,0.12 2.472,0 3.876,-1.752 3.876,-4.32 z m -1.176,0 c 0,1.908 -0.972,3.768 -2.7,3.768 -0.732,0 -1.464,-0.036 -2.196,-0.12 v -7.296 c 0.732,-0.084 1.464,-0.12 2.196,-0.12 1.728,0 2.7,1.86 2.7,3.768 z"
           style="font-size:12px;line-height:1.25"
           id="path1128" />
      </g>
      <path
         id="path11474"
         d="m 190.13309,69.82594 -7.08662,7.08661 7.08662,7.08661"
         style="fill:none;stroke:#000000;stroke-width:1px;stroke-linecap:butt;stroke-linejoin:miter;stroke-opacity:1" />
    </g>
    <path
       id="path11478"
       d="m 478.34674,662.59847 h -53.1496"
       style="fill:none;stroke:#000000;stroke-width:1px;stroke-linecap:butt;stroke-linejoin:miter;stroke-opacity:1;marker-end:url(#marker10197)" />
    <path
       style="fill:none;stroke:#000000;stroke-width:1px;stroke-linecap:butt;stroke-linejoin:miter;stroke-opacity:1;marker-end:url(#marker10197)"
       d="m 602.36244,779.52772 h -35.4331 v -95.66935 h -28.3464"
       id="path11480" />
    <g
       id="g11482"
       transform="translate(992.12625,-3915.3543)">
      <path
         id="rect11484"
         style="fill:#fff6d5;stroke:#000000;stroke-width:0.999213"
         d="m -513.72705,4613.3857 h 60.06636 v 49.6064 h -60.06636 z" />
      <g
         id="g11486"
         transform="translate(-365.8309,4501.0402)">
        <g
           aria-label="Q"
           id="text11488"
           style="line-height:0%;font-family:Iwona;-inkscape-font-specification:Iwona">
          <path
             d="m -136.13286,129.40545 c 0,-2.544 -1.32,-4.32 -3.744,-4.32 -2.436,0 -3.756,1.776 -3.756,4.32 0,2.544 1.32,4.32 3.756,4.32 0.084,0.972 0.888,1.716 1.872,1.716 0.612,0 0.78,-0.036 1.344,-0.288 v -0.36 c -0.276,0.156 -0.576,0.24 -0.9,0.24 -1.092,0 -1.524,-0.384 -1.536,-1.38 1.92,-0.336 2.964,-1.992 2.964,-4.248 z m -1.176,0 c 0,2.1 -0.696,3.768 -2.568,3.768 -1.884,0 -2.58,-1.668 -2.58,-3.768 0,-2.1 0.696,-3.768 2.58,-3.768 1.872,0 2.568,1.668 2.568,3.768 z"
             style="font-size:12px;line-height:1.25"
             id="path1132" />
        </g>
      </g>
      <g
         id="g11492"
         transform="translate(-337.98834,4522.3)">
        <g
           aria-label="CLK"
           id="text11494"
           style="line-height:0%;font-family:Iwona;-inkscape-font-specification:Iwona;text-align:center;text-anchor:middle">
          <path
             d="m -140.59033,127.22145 v -0.648 c -0.648,-0.936 -1.716,-1.488 -2.844,-1.488 -2.436,0 -3.756,1.776 -3.756,4.32 0,2.544 1.32,4.32 3.756,4.32 0.936,0 1.86,-0.276 2.652,-0.792 v -0.552 c -0.792,0.516 -1.716,0.792 -2.652,0.792 -1.884,0 -2.58,-1.668 -2.58,-3.768 0,-2.1 0.696,-3.768 2.58,-3.768 1.152,0 2.232,0.6 2.844,1.584 z"
             style="font-size:12px;line-height:1.25"
             id="path1135" />
          <path
             d="m -134.23034,133.60545 v -0.552 h -3.816 v -7.848 h -0.984 v 8.4 z"
             style="font-size:12px;line-height:1.25"
             id="path1137" />
          <path
             d="m -125.73436,133.60545 -5.316,-4.752 5.028,-3.648 h -0.948 l -4.836,3.516 v -3.516 h -0.984 v 8.4 h 0.984 v -4.104 l 4.596,4.104 z"
             style="font-size:12px;line-height:1.25"
             id="path1139" />
        </g>
      </g>
      <g
         aria-label="D"
         id="text11498"
         style="line-height:0%;font-family:Iwona;-inkscape-font-specification:Iwona">
        <path
           d="m -459.46052,4630.4455 c 0,-2.568 -1.404,-4.32 -3.876,-4.32 -0.744,0 -1.488,0.036 -2.22,0.12 h -0.96 v 8.4 h 0.96 c 0.732,0.084 1.476,0.12 2.22,0.12 2.472,0 3.876,-1.752 3.876,-4.32 z m -1.176,0 c 0,1.908 -0.972,3.768 -2.7,3.768 -0.732,0 -1.464,-0.036 -2.196,-0.12 v -7.296 c 0.732,-0.084 1.464,-0.12 2.196,-0.12 1.728,0 2.7,1.86 2.7,3.768 z"
           style="font-size:12px;line-height:1.25"
           id="path1142" />
      </g>
      <path
         style="fill:none;stroke:#000000;stroke-width:1px;stroke-linecap:butt;stroke-linejoin:miter;stroke-opacity:1"
         d="m -453.49084,4645.2755 -7.08662,7.0866 7.08662,7.0867"
         id="path11502" />
    </g>
    <path
       style="fill:none;stroke:#000000;stroke-width:1px;stroke-linecap:butt;stroke-linejoin:miter;stroke-opacity:1;marker-end:url(#marker10197)"
       d="m 478.34674,715.74807 h -53.1496"
       id="path11506" />
    <path
       id="path11508"
       d="m 566.92934,737.00797 h -28.3464"
       style="fill:none;stroke:#000000;stroke-width:1px;stroke-linecap:butt;stroke-linejoin:miter;stroke-opacity:1;marker-start:url(#marker23455);marker-end:url(#marker10197)" />
    <g
       aria-label="s1"
       id="text11510"
       style="line-height:0%;font-family:Iwona;-inkscape-font-specification:Sans;text-align:center;letter-spacing:0px;word-spacing:0px;text-anchor:middle">
      <path
         d="m 141.67857,525.35252 c 0,-3.792 -4.032,-5.76 -7.968,-6.72 -2.304,-0.576 -4.8,-1.536 -4.8,-3.792 0,-2.064 2.112,-3.408 4.416,-3.408 2.544,0 5.088,0.768 7.2,2.16 v -2.016 c -2.112,-1.392 -4.656,-2.16 -7.2,-2.16 -4.176,0 -8.016,2.544 -8.016,6.432 0,3.504 3.888,5.136 7.584,6.048 2.544,0.624 5.184,1.968 5.184,4.416 0,2.256 -2.304,3.648 -4.752,3.648 -2.976,0 -5.856,-0.72 -8.4,-2.16 v 2.016 c 2.544,1.44 5.424,2.16 8.4,2.16 4.32,0 8.352,-2.592 8.352,-6.624 z"
         style="font-size:48px;line-height:1.25"
         id="path1145" />
      <path
         d="m 154.13466,541.09652 v -21.5283 h -1.80962 c -1.71603,1.96563 -3.74406,3.65045 -5.99049,4.96087 v 1.31042 c 1.90323,-0.90481 3.68165,-1.96563 5.36648,-3.24484 v 18.50185 z"
         style="font-size:65.0009%;baseline-shift:sub"
         id="path1147" />
    </g>
    <g
       aria-label="s0"
       id="text11516"
       style="line-height:0%;font-family:Iwona;-inkscape-font-specification:Sans;text-align:center;letter-spacing:0px;word-spacing:0px;text-anchor:middle">
      <path
         d="m 283.41098,525.19676 c 0,-3.792 -4.032,-5.76 -7.968,-6.72 -2.304,-0.576 -4.8,-1.536 -4.8,-3.792 0,-2.064 2.112,-3.408 4.416,-3.408 2.544,0 5.088,0.768 7.2,2.16 v -2.016 c -2.112,-1.392 -4.656,-2.16 -7.2,-2.16 -4.176,0 -8.016,2.544 -8.016,6.432 0,3.504 3.888,5.136 7.584,6.048 2.544,0.624 5.184,1.968 5.184,4.416 0,2.256 -2.304,3.648 -4.752,3.648 -2.976,0 -5.856,-0.72 -8.4,-2.16 v 2.016 c 2.544,1.44 5.424,2.16 8.4,2.16 4.32,0 8.352,-2.592 8.352,-6.624 z"
         style="font-size:48px;line-height:1.25"
         id="path1150" />
      <path
         d="m 300.60953,530.17661 c 0,-7.3945 -2.27763,-11.07615 -6.83289,-11.07615 -4.55526,0 -6.8329,3.68165 -6.8329,11.07615 0,7.3945 2.27764,11.07615 6.8329,11.07615 4.55526,0 6.83289,-3.68165 6.83289,-11.07615 z m -2.74564,0 c 0,6.52089 -1.37281,9.76574 -4.08725,9.76574 -2.71444,0 -4.08726,-3.24485 -4.08726,-9.76574 0,-6.52089 1.37282,-9.76573 4.08726,-9.76573 2.71444,0 4.08725,3.24484 4.08725,9.76573 z"
         style="font-size:65.0009%;baseline-shift:sub"
         id="path1152" />
    </g>
    <g
       id="g11534"
       transform="translate(360.74864,337.15487)">
      <path
         transform="translate(192.00756,88.042072)"
         id="path11536"
         d="m 63.779528,361.4173 h 7.086614 v -17.71653 h 17.716535 v 17.71653 h 17.716533 v -17.71653 h 17.71654 v 17.71653 h 17.71653 v -17.71653 h 7.08662"
         style="fill:none;stroke:#000000;stroke-width:1px;stroke-linecap:butt;stroke-linejoin:miter;stroke-opacity:1" />
      <path
         transform="translate(192.00756,88.042072)"
         id="path11538"
         d="m 70.866142,357.87399 v -7.08661"
         style="fill:none;stroke:#ff0000;stroke-width:1px;stroke-linecap:butt;stroke-linejoin:miter;stroke-opacity:1;marker-end:url(#marker10197C)" />
      <path
         style="fill:none;stroke:#ff0000;stroke-width:1px;stroke-linecap:butt;stroke-linejoin:miter;stroke-opacity:1;marker-end:url(#marker10197I)"
         d="m 298.30677,445.91606 v -7.08661"
         id="path11540" />
      <path
         id="path11542"
         d="m 333.73984,445.91607 v -7.08661"
         style="fill:none;stroke:#ff0000;stroke-width:1px;stroke-linecap:butt;stroke-linejoin:miter;stroke-opacity:1;marker-end:url(#marker10197E)" />
    </g>
    <path
       style="fill:none;stroke:#000000;stroke-width:1px;stroke-linecap:butt;stroke-linejoin:miter;stroke-opacity:1;marker-end:url(#marker10197)"
       d="m 584.64594,662.59847 h -46.063"
       id="path11880" />
    <g
       id="g11882"
       transform="translate(70.866437,-2398.8188)">
      <path
         style="fill:none;stroke:#000000;stroke-width:1px;stroke-linecap:butt;stroke-linejoin:miter;stroke-opacity:1"
         d="m 839.76378,4375.9842 -7.08661,7.0866 7.08661,7.0867"
         id="path11884"
         transform="translate(-318.89768,-1321.6536)" />
      <path
         id="path11886"
         d="m 524.40941,3054.3306 -7.08661,7.0866 7.08661,7.0867"
         style="fill:none;stroke:#000000;stroke-width:1px;stroke-linecap:butt;stroke-linejoin:miter;stroke-opacity:1" />
    </g>
    <path
       id="path11888"
       d="m 584.64594,715.74807 h -46.063"
       style="fill:none;stroke:#000000;stroke-width:1px;stroke-linecap:butt;stroke-linejoin:miter;stroke-opacity:1;marker-end:url(#marker10197)" />
    <g
       transform="translate(70.866437,-2345.6692)"
       id="g11890">
      <path
         transform="translate(-318.89768,-1321.6536)"
         id="path11892"
         d="m 839.76378,4375.9842 -7.08661,7.0866 7.08661,7.0867"
         style="fill:none;stroke:#000000;stroke-width:1px;stroke-linecap:butt;stroke-linejoin:miter;stroke-opacity:1" />
      <path
         style="fill:none;stroke:#000000;stroke-width:1px;stroke-linecap:butt;stroke-linejoin:miter;stroke-opacity:1"
         d="m 524.40941,3054.3306 -7.08661,7.0866 7.08661,7.0867"
         id="path11894" />
    </g>
    <g
       transform="rotate(90,141.60078,626.01545)"
       id="g12002">
      <path
         id="path12004"
         d="M -344.80241,-15.45486 H -41.501288"
         style="fill:none;stroke:#000000;stroke-width:1px;stroke-linecap:butt;stroke-linejoin:miter;stroke-opacity:1;marker-start:url(#DotL)" />
      <path
         style="fill:none;stroke:#000000;stroke-width:1px;stroke-linecap:butt;stroke-linejoin:miter;stroke-opacity:1;marker-start:url(#DotL)"
         d="M -273.81625,-33.171395 H -37.957981"
         id="path12006" />
      <path
         style="fill:none;stroke:#000000;stroke-width:1px;stroke-linecap:butt;stroke-linejoin:miter;stroke-opacity:1;marker-start:url(#DotL)"
         d="m -132.08401,-50.887934 90.582722,3e-6"
         id="path12008" />
      <path
         style="fill:#d5f6ff;fill-opacity:1;stroke:#000000;stroke-width:1px;stroke-linecap:butt;stroke-linejoin:miter;stroke-opacity:1"
         d="m -47.879239,-61.517851 c 11.338584,17.007874 11.338584,39.685038 0,56.6929096 11.338584,6e-7 39.6850377,-5.6692906 45.3543287,-28.3464536 -5.669291,-22.677165 -34.0157447,-28.346456 -45.3543287,-28.346456 z"
         id="path12010" />
    </g>
    <g
       id="g12012"
       transform="rotate(90,212.46693,696.88161)">
      <path
         style="fill:none;stroke:#000000;stroke-width:1px;stroke-linecap:butt;stroke-linejoin:miter;stroke-opacity:1;marker-start:url(#DotL)"
         d="m -344.63937,-15.45486 303.138082,3e-6"
         id="path12014" />
      <path
         id="path12016"
         d="m -273.81625,-33.171395 235.858269,2e-6"
         style="fill:none;stroke:#000000;stroke-width:1px;stroke-linecap:butt;stroke-linejoin:miter;stroke-opacity:1;marker-start:url(#DotL)" />
      <path
         id="path12018"
         d="M -202.95011,-50.887928 H -41.501288"
         style="fill:none;stroke:#000000;stroke-width:1px;stroke-linecap:butt;stroke-linejoin:miter;stroke-opacity:1;marker-start:url(#DotL)" />
      <path
         id="path12020"
         d="m -47.879239,-61.517849 c 11.338583,17.007874 11.338583,39.685038 0,56.6929104 11.338583,6e-7 39.6850377,-5.6692904 45.3543287,-28.3464544 -5.669291,-22.677165 -34.0157457,-28.346456 -45.3543287,-28.346456 z"
         style="fill:#d5f6ff;fill-opacity:1;stroke:#000000;stroke-width:1px;stroke-linecap:butt;stroke-linejoin:miter;stroke-opacity:1" />
    </g>
    <path
       style="fill:none;stroke:#000000;stroke-width:1px;stroke-linecap:butt;stroke-linejoin:miter;stroke-opacity:1;marker-start:url(#DotL)"
       d="m 871.19704,281.46457 v 253.5748"
       id="path12022" />
    <path
       id="path12024"
       d="m 800.78764,481.88977 v 53.1496"
       style="fill:none;stroke:#000000;stroke-width:1px;stroke-linecap:butt;stroke-linejoin:miter;stroke-opacity:1" />
    <path
       style="fill:none;stroke:#000000;stroke-width:1px;stroke-linecap:butt;stroke-linejoin:miter;stroke-opacity:1"
       d="m 942.51995,481.88977 v 53.1496"
       id="path12026" />
    <g
       id="g12028"
       transform="matrix(2.0000011,0,0,2.0000011,659.05524,322.44077)">
      <g
         aria-label="MGA"
         id="text12030"
         style="line-height:0%;font-family:Iwona;-inkscape-font-specification:Iwona;text-align:center;text-anchor:middle">
        <path
           d="m 67.428173,136.41731 -0.48,-8.4 h -0.792 l -3.372,7.092 -3.384,-7.092 h -0.792 l -0.48,8.4 h 0.552 l 0.384,-6.804 3.252,6.804 h 0.444 l 3.288,-6.888 0.396,6.888 z"
           style="font-size:12px;line-height:1.25"
           id="path1155" />
        <path
           d="m 75.924155,136.41731 v -3.528 h -0.984 v 2.316 c -0.624,0.504 -1.392,0.78 -2.196,0.78 -1.908,0 -2.7,-1.644 -2.7,-3.768 0,-2.124 0.792,-3.768 2.7,-3.768 1.128,0 2.196,0.444 2.988,1.248 v -0.552 c -0.792,-0.804 -1.86,-1.248 -2.988,-1.248 -2.472,0 -3.876,1.752 -3.876,4.32 0,2.568 1.404,4.32 3.876,4.32 0.804,0 1.572,-0.276 2.196,-0.78 v 0.66 z"
           style="font-size:12px;line-height:1.25"
           id="path1157" />
        <path
           d="m 84.20414,136.41731 -3.048,-8.4 h -1.044 l -3.108,8.4 h 0.588 l 1.092,-2.94 h 3.408 l 1.068,2.94 z m -2.316,-3.492 h -3 l 1.512,-4.104 z"
           style="font-size:12px;line-height:1.25"
           id="path1159" />
      </g>
      <g
         id="g12034"
         transform="translate(-318.89764,-159.44881)">
        <path
           style="fill:#d5f6ff;fill-opacity:1;stroke:#000000;stroke-width:0.5px;stroke-linecap:butt;stroke-linejoin:miter;stroke-opacity:1"
           d="m 396.8504,265.74803 h -14.17322 v 10.62991 l 7.08661,7.08661 7.08661,-7.08661 z"
           id="path12036" />
      </g>
    </g>
    <g
       transform="matrix(2.0000011,0,0,2.0000011,729.46474,322.44077)"
       id="g12038">
      <g
         aria-label="MGR"
         id="text12040"
         style="line-height:0%;font-family:Iwona;-inkscape-font-specification:Iwona;text-align:center;text-anchor:middle">
        <path
           d="m 67.22417,136.41731 -0.48,-8.4 h -0.792 l -3.372,7.092 -3.384,-7.092 h -0.792 l -0.48,8.4 h 0.552 l 0.384,-6.804 3.252,6.804 h 0.444 l 3.288,-6.888 0.396,6.888 z"
           style="font-size:12px;line-height:1.25"
           id="path1162" />
        <path
           d="m 75.720153,136.41731 v -3.528 h -0.984 v 2.316 c -0.624,0.504 -1.392,0.78 -2.196,0.78 -1.908,0 -2.7,-1.644 -2.7,-3.768 0,-2.124 0.792,-3.768 2.7,-3.768 1.128,0 2.196,0.444 2.988,1.248 v -0.552 c -0.792,-0.804 -1.86,-1.248 -2.988,-1.248 -2.472,0 -3.876,1.752 -3.876,4.32 0,2.568 1.404,4.32 3.876,4.32 0.804,0 1.572,-0.276 2.196,-0.78 v 0.66 z"
           style="font-size:12px;line-height:1.25"
           id="path1164" />
        <path
           d="m 84.408138,136.41731 -2.556,-3.804 c 1.308,-0.252 2.208,-0.972 2.208,-2.316 0,-1.692 -1.452,-2.4 -3.336,-2.4 -0.672,0 -1.344,0.036 -2.004,0.12 h -0.96 v 8.4 h 0.984 v -3.9 c 0.648,0.12 1.32,0.192 1.98,0.192 l 2.508,3.708 z m -1.524,-6.12 c 0,1.092 -1.02,1.86 -2.16,1.86 -0.66,0 -1.332,-0.072 -1.98,-0.192 v -3.396 c 0.66,-0.084 1.32,-0.12 1.98,-0.12 1.14,0 2.16,0.768 2.16,1.848 z"
           style="font-size:12px;line-height:1.25"
           id="path1166" />
      </g>
      <g
         transform="translate(-318.89764,-159.44881)"
         id="g12044">
        <path
           id="path12046"
           d="m 396.8504,265.74803 h -14.17322 v 10.62991 l 7.08661,7.08661 7.08661,-7.08661 z"
           style="fill:#d5f6ff;fill-opacity:1;stroke:#000000;stroke-width:0.5px;stroke-linecap:butt;stroke-linejoin:miter;stroke-opacity:1" />
      </g>
    </g>
    <g
       id="g12048"
       transform="matrix(2.0000011,0,0,2.0000011,800.78754,322.44087)">
      <g
         aria-label="MDA"
         id="text12050"
         style="line-height:0%;font-family:Iwona;-inkscape-font-specification:Iwona;text-align:center;text-anchor:middle">
        <path
           d="m 67.452171,136.41731 -0.48,-8.4 h -0.792 l -3.372,7.092 -3.384,-7.092 h -0.792 l -0.48,8.4 h 0.552 l 0.384,-6.804 3.252,6.804 h 0.444 l 3.288,-6.888 0.396,6.888 z"
           style="font-size:12px;line-height:1.25"
           id="path1169" />
        <path
           d="m 76.428153,132.21731 c 0,-2.568 -1.404,-4.32 -3.876,-4.32 -0.744,0 -1.488,0.036 -2.22,0.12 h -0.96 v 8.4 h 0.96 c 0.732,0.084 1.476,0.12 2.22,0.12 2.472,0 3.876,-1.752 3.876,-4.32 z m -1.176,0 c 0,1.908 -0.972,3.768 -2.7,3.768 -0.732,0 -1.464,-0.036 -2.196,-0.12 v -7.296 c 0.732,-0.084 1.464,-0.12 2.196,-0.12 1.728,0 2.7,1.86 2.7,3.768 z"
           style="font-size:12px;line-height:1.25"
           id="path1171" />
        <path
           d="m 84.180142,136.41731 -3.048,-8.4 h -1.044 l -3.108,8.4 h 0.588 l 1.092,-2.94 h 3.408 l 1.068,2.94 z m -2.316,-3.492 h -3 l 1.512,-4.104 z"
           style="font-size:12px;line-height:1.25"
           id="path1173" />
      </g>
      <g
         id="g12054"
         transform="translate(-318.89764,-159.44881)">
        <path
           style="fill:#d5f6ff;fill-opacity:1;stroke:#000000;stroke-width:0.5px;stroke-linecap:butt;stroke-linejoin:miter;stroke-opacity:1"
           d="m 396.8504,265.74803 h -14.17322 v 10.62991 l 7.08661,7.08661 7.08661,-7.08661 z"
           id="path12056" />
      </g>
    </g>
    <g
       transform="matrix(2.0000011,0,0,2.0000011,871.19694,322.44087)"
       id="g12058">
      <g
         aria-label="MDR"
         id="text12060"
         style="line-height:0%;font-family:Iwona;-inkscape-font-specification:Iwona;text-align:center;text-anchor:middle">
        <path
           d="m 67.104167,136.41731 -0.48,-8.4 h -0.792 l -3.372,7.092 -3.384,-7.092 h -0.792 l -0.48,8.4 h 0.552 l 0.384,-6.804 3.252,6.804 h 0.444 l 3.288,-6.888 0.396,6.888 z"
           style="font-size:12px;line-height:1.25"
           id="path1176" />
        <path
           d="m 76.08015,132.21731 c 0,-2.568 -1.404,-4.32 -3.876,-4.32 -0.744,0 -1.488,0.036 -2.22,0.12 h -0.96 v 8.4 h 0.96 c 0.732,0.084 1.476,0.12 2.22,0.12 2.472,0 3.876,-1.752 3.876,-4.32 z m -1.176,0 c 0,1.908 -0.972,3.768 -2.7,3.768 -0.732,0 -1.464,-0.036 -2.196,-0.12 v -7.296 c 0.732,-0.084 1.464,-0.12 2.196,-0.12 1.728,0 2.7,1.86 2.7,3.768 z"
           style="font-size:12px;line-height:1.25"
           id="path1178" />
        <path
           d="m 84.52814,136.41731 -2.556,-3.804 c 1.308,-0.252 2.208,-0.972 2.208,-2.316 0,-1.692 -1.452,-2.4 -3.336,-2.4 -0.672,0 -1.344,0.036 -2.004,0.12 h -0.96 v 8.4 h 0.984 v -3.9 c 0.648,0.12 1.32,0.192 1.98,0.192 l 2.508,3.708 z m -1.524,-6.12 c 0,1.092 -1.02,1.86 -2.16,1.86 -0.66,0 -1.332,-0.072 -1.98,-0.192 v -3.396 c 0.66,-0.084 1.32,-0.12 1.98,-0.12 1.14,0 2.16,0.768 2.16,1.848 z"
           style="font-size:12px;line-height:1.25"
           id="path1180" />
      </g>
      <g
         transform="translate(-318.89764,-159.44881)"
         id="g12064">
        <path
           id="path12066"
           d="m 396.8504,265.74803 h -14.17322 v 10.62991 l 7.08661,7.08661 7.08661,-7.08661 z"
           style="fill:#d5f6ff;fill-opacity:1;stroke:#000000;stroke-width:0.5px;stroke-linecap:butt;stroke-linejoin:miter;stroke-opacity:1" />
      </g>
    </g>
  </g>
</svg>
