<?xml version="1.0" encoding="UTF-8" standalone="no"?>
<!-- Created with Inkscape (http://www.inkscape.org/) -->

<svg
   width="181.31824mm"
   height="339.20911mm"
   viewBox="0 0 642.4662 1201.9221"
   id="svg11099"
   version="1.1"
   xmlns="http://www.w3.org/2000/svg"
   xmlns:svg="http://www.w3.org/2000/svg"
   xmlns:rdf="http://www.w3.org/1999/02/22-rdf-syntax-ns#"
   xmlns:cc="http://creativecommons.org/ns#"
   xmlns:dc="http://purl.org/dc/elements/1.1/">
  <defs
     id="defs11101">
    <marker
       style="overflow:visible"
       id="marker22529"
       refX="0"
       refY="0"
       orient="auto">
      <path
         transform="matrix(0.4,0,0,0.4,2.96,0.4)"
         style="fill-rule:evenodd;stroke:#000000;stroke-width:1pt;marker-start:none;marker-end:none"
         d="m -2.5,-1 c 0,2.76 -2.24,5 -5,5 -2.76,0 -5,-2.24 -5,-5 0,-2.76 2.24,-5 5,-5 2.76,0 5,2.24 5,5 z"
         id="path22531" />
    </marker>
    <marker
       style="overflow:visible"
       id="marker18753"
       refX="0"
       refY="0"
       orient="auto">
      <path
         transform="matrix(0.4,0,0,0.4,2.96,0.4)"
         style="fill-rule:evenodd;stroke:#000000;stroke-width:1pt;marker-start:none;marker-end:none"
         d="m -2.5,-1 c 0,2.76 -2.24,5 -5,5 -2.76,0 -5,-2.24 -5,-5 0,-2.76 2.24,-5 5,-5 2.76,0 5,2.24 5,5 z"
         id="path18755" />
    </marker>
  </defs>
  <metadata
     id="metadata11104">
    <rdf:RDF>
      <cc:Work
         rdf:about="">
        <dc:format>image/svg+xml</dc:format>
        <dc:type
           rdf:resource="http://purl.org/dc/dcmitype/StillImage" />
      </cc:Work>
    </rdf:RDF>
  </metadata>
  <g
     id="layer1"
     transform="translate(-10.629921,142.43307)">
    <path
       id="rect36427"
       style="fill:#afdde9"
       d="m 255.11785,766.31476 h 3.54358 c 11.77793,0 21.2598,9.48187 21.2598,21.2598 v 10.6302 c 0,11.77793 -9.48187,21.2598 -21.2598,21.2598 h -3.54358 c -11.77793,0 -21.2598,-9.48187 -21.2598,-21.2598 v -10.6302 c 0,-11.77793 9.48187,-21.2598 21.2598,-21.2598 z" />
    <path
       id="rect36429"
       style="fill:#ffaaaa"
       d="m 255.11785,713.16534 h 3.54358 c 11.77793,0 21.2598,9.48188 21.2598,21.25981 v 10.62987 c 0,11.77793 -9.48187,21.2598 -21.2598,21.2598 h -3.54358 c -11.77793,0 -21.2598,-9.48187 -21.2598,-21.2598 v -10.62987 c 0,-11.77793 9.48187,-21.25981 21.2598,-21.25981 z" />
    <path
       id="rect36423"
       style="fill:#afdde9"
       d="m 255.11785,550.17316 h 3.54358 c 11.77793,0 21.2598,9.48187 21.2598,21.2598 v 14.17337 c 0,11.77793 -9.48187,21.2598 -21.2598,21.2598 h -3.54358 c -11.77793,0 -21.2598,-9.48187 -21.2598,-21.2598 v -14.17337 c 0,-11.77793 9.48187,-21.2598 21.2598,-21.2598 z" />
    <path
       id="rect36425"
       style="fill:#ffaaaa"
       d="m 255.11785,500.56668 h 3.54358 c 11.77793,0 21.2598,9.48187 21.2598,21.2598 v 7.08691 c 0,11.77793 -9.48187,21.2598 -21.2598,21.2598 h -3.54358 c -11.77793,0 -21.2598,-9.48187 -21.2598,-21.2598 v -7.08691 c 0,-11.77793 9.48187,-21.2598 21.2598,-21.2598 z" />
    <path
       id="rect36419"
       style="fill:#afdde9"
       transform="scale(1,-1)"
       d="m 180.70852,-766.31476 h 7.08674 c 11.77793,0 21.2598,9.48187 21.2598,21.2598 v 63.7798 c 0,11.77793 -9.48187,21.2598 -21.2598,21.2598 h -7.08674 c -11.77793,0 -21.2598,-9.48187 -21.2598,-21.2598 v -63.7798 c 0,-11.77793 9.48187,-21.2598 21.2598,-21.2598 z" />
    <path
       id="rect36421"
       style="fill:#afdde9"
       transform="scale(1,-1)"
       d="m 180.70852,-713.16486 h 77.95284 c 11.77793,0 21.2598,9.48188 21.2598,21.25981 v 10.62994 c 0,11.77793 -9.48187,21.25981 -21.2598,21.25981 h -77.95284 c -11.77793,0 -21.2598,-9.48188 -21.2598,-21.25981 v -10.62994 c 0,-11.77793 9.48187,-21.25981 21.2598,-21.25981 z" />
    <path
       id="rect36417"
       style="fill:#afdde9"
       transform="scale(1,-1)"
       d="m 180.70852,-344.66141 h 7.08674 c 11.77793,0 21.2598,9.48187 21.2598,21.2598 v 67.32258 c 0,11.77793 -9.48187,21.2598 -21.2598,21.2598 h -7.08674 c -11.77793,0 -21.2598,-9.48187 -21.2598,-21.2598 v -67.32258 c 0,-11.77793 9.48187,-21.2598 21.2598,-21.2598 z" />
    <path
       id="rect36415"
       style="fill:#afdde9"
       transform="scale(1,-1)"
       d="m 255.11809,-394.26785 h 3.54359 c 11.77793,0 21.2598,9.48187 21.2598,21.2598 v 7.08687 c 0,11.77793 -9.48187,21.2598 -21.2598,21.2598 h -3.54359 c -11.77793,0 -21.2598,-9.48187 -21.2598,-21.2598 v -7.08687 c 0,-11.77793 9.48187,-21.2598 21.2598,-21.2598 z" />
    <path
       id="rect36411"
       style="fill:#afdde9"
       transform="scale(1,-1)"
       d="m 180.70852,-288.73318 h 77.95284 c 11.77793,0 21.2598,9.48187 21.2598,21.2598 v 10.62994 c 0,11.77793 -9.48187,21.25981 -21.2598,21.25981 h -77.95284 c -11.77793,0 -21.2598,-9.48188 -21.2598,-21.25981 v -10.62994 c 0,-11.77793 9.48187,-21.2598 21.2598,-21.2598 z" />
    <path
       id="rect36413"
       style="fill:#ffaaaa"
       transform="scale(1,-1)"
       d="m 255.11785,-344.66141 h 3.54358 c 11.77793,0 21.2598,9.48187 21.2598,21.2598 v 14.17339 c 0,11.77793 -9.48187,21.25981 -21.2598,21.25981 h -3.54358 c -11.77793,0 -21.2598,-9.48188 -21.2598,-21.25981 v -14.17339 c 0,-11.77793 9.48187,-21.2598 21.2598,-21.2598 z" />
    <path
       id="rect36409"
       style="fill:#ffaaaa"
       d="m 180.70852,606.86603 h 77.95288 c 11.77793,0 21.2598,9.48187 21.2598,21.2598 v 10.62999 c 0,11.77793 -9.48187,21.2598 -21.2598,21.2598 h -77.95288 c -11.77793,0 -21.2598,-9.48187 -21.2598,-21.2598 v -10.62999 c 0,-11.77793 9.48187,-21.2598 21.2598,-21.2598 z" />
    <path
       id="rect36407"
       style="fill:#ffaaaa"
       d="m 180.70852,185.21268 h 77.95288 c 11.77793,0 21.2598,9.48187 21.2598,21.2598 v 7.08664 c 0,11.77793 -9.48187,21.2598 -21.2598,21.2598 h -77.95288 c -11.77793,0 -21.2598,-9.48187 -21.2598,-21.2598 v -7.08664 c 0,-11.77793 9.48187,-21.2598 21.2598,-21.2598 z" />
    <path
       id="rect36405"
       style="fill:#ffaaaa"
       d="m 180.70852,550.17316 h 7.08674 c 11.77793,0 21.2598,9.48187 21.2598,21.2598 v 63.77957 c 0,11.77793 -9.48187,21.25981 -21.2598,21.25981 h -7.08674 c -11.77793,0 -21.2598,-9.48188 -21.2598,-21.25981 v -63.77957 c 0,-11.77793 9.48187,-21.2598 21.2598,-21.2598 z" />
    <path
       id="rect36403"
       style="fill:#ffaaaa"
       d="m 109.84242,344.66141 h 77.95283 c 11.77793,0 21.2598,9.48187 21.2598,21.2598 v 60.23626 c 0,11.77793 -9.48187,21.2598 -21.2598,21.2598 h -77.95283 c -11.777931,0 -21.259801,-9.48187 -21.259801,-21.2598 v -60.23626 c 0,-11.77793 9.48187,-21.2598 21.259801,-21.2598 z" />
    <path
       id="rect36401"
       style="fill:#ffaaaa"
       d="M 42.519548,819.46466 H 258.66139 c 11.77793,0 21.2598,9.48187 21.2598,21.2598 v 7.08669 c 0,11.77793 -9.48187,21.2598 -21.2598,21.2598 H 42.519548 c -11.777929,0 -21.2598,-9.48187 -21.2598,-21.2598 v -7.08669 c 0,-11.77793 9.481871,-21.2598 21.2598,-21.2598 z" />
    <path
       id="rect36399"
       style="fill:#ffaaaa"
       d="M 42.519548,766.31476 H 187.79525 c 11.77793,0 21.2598,9.48187 21.2598,21.2598 v 60.23629 c 0,11.77793 -9.48187,21.25981 -21.2598,21.25981 H 42.519548 c -11.777929,0 -21.2598,-9.48188 -21.2598,-21.25981 v -60.23629 c 0,-11.77793 9.481871,-21.2598 21.2598,-21.2598 z" />
    <path
       id="rect36393"
       style="fill:#ffaaaa"
       d="m 42.519548,660.01593 h 74.409532 c 11.77793,0 21.2598,9.48187 21.2598,21.2598 v 166.53531 c 0,11.77793 -9.48187,21.25981 -21.2598,21.25981 H 42.519548 c -11.777929,0 -21.2598,-9.48188 -21.2598,-21.25981 V 681.27573 c 0,-11.77793 9.481871,-21.2598 21.2598,-21.2598 z" />
    <path
       id="rect36397"
       style="fill:#afdde9"
       d="m 109.84242,448.08963 h 148.81899 c 11.77793,0 21.2598,9.48187 21.2598,21.2598 v 10.62998 c 0,11.77793 -9.48187,21.2598 -21.2598,21.2598 H 109.84242 c -11.77793,0 -21.259801,-9.48187 -21.259801,-21.2598 v -10.62998 c 0,-11.77793 9.481871,-21.2598 21.259801,-21.2598 z" />
    <path
       id="rect36395"
       style="fill:#afdde9"
       d="m 109.84242,447.41727 h 85.03946 c 11.77793,0 21.25981,9.48187 21.25981,21.2598 v 60.23609 c 0,11.77793 -9.48188,21.25981 -21.25981,21.25981 h -85.03946 c -11.77793,0 -21.259801,-9.48188 -21.259801,-21.25981 v -60.23609 c 0,-11.77793 9.481871,-21.2598 21.259801,-21.2598 z" />
    <path
       id="rect36391"
       style="fill:#ffaaaa"
       d="m 109.84242,234.81863 h 7.08669 c 11.77793,0 21.2598,9.48188 21.2598,21.25981 v 170.07902 c 0,11.77793 -9.48187,21.25981 -21.2598,21.25981 h -7.08669 c -11.777931,0 -21.259801,-9.48188 -21.259801,-21.25981 V 256.07844 c 0,-11.77793 9.48187,-21.25981 21.259801,-21.25981 z" />
    <path
       id="rect36389"
       style="fill:#afdde9"
       d="m 109.84242,447.41727 h 7.08669 c 11.77793,0 21.2598,9.48187 21.2598,21.2598 V 638.7559 c 0,11.77793 -9.48187,21.2598 -21.2598,21.2598 h -7.08669 c -11.777931,0 -21.259801,-9.48187 -21.259801,-21.2598 V 468.67707 c 0,-11.77793 9.48187,-21.2598 21.259801,-21.2598 z" />
    <path
       id="rect226807"
       style="fill:#ffaaaa"
       d="m 547.26304,554.01398 h 10.63009 c 11.77793,0 21.2598,9.48187 21.2598,21.2598 v 10.62996 c 0,11.77793 -9.48187,21.2598 -21.2598,21.2598 h -10.63009 c -11.77793,0 -21.25981,-9.48187 -21.25981,-21.2598 v -10.62996 c 0,-11.77793 9.48188,-21.2598 21.25981,-21.2598 z" />
    <path
       id="rect226803"
       style="fill:#ffaaaa"
       d="m 604.13389,342.88992 h 10.63009 c 11.77793,0 21.2598,9.48187 21.2598,21.2598 v 10.62997 c 0,11.77793 -9.48187,21.2598 -21.2598,21.2598 h -10.63009 c -11.77793,0 -21.25981,-9.48187 -21.25981,-21.2598 v -10.62997 c 0,-11.77793 9.48188,-21.2598 21.25981,-21.2598 z" />
    <path
       id="rect226799"
       style="fill:#ffaaaa"
       d="m 423.42509,448.08963 h 10.63009 c 11.77793,0 21.2598,9.48187 21.2598,21.2598 v 63.10727 c 0,11.77793 -9.48187,21.2598 -21.2598,21.2598 h -10.63009 c -11.77793,0 -21.25981,-9.48187 -21.25981,-21.2598 v -63.10727 c 0,-11.77793 9.48188,-21.2598 21.25981,-21.2598 z" />
    <path
       id="rect226801"
       style="fill:#ffaaaa"
       d="m 604.13389,235.58377 h 10.63009 c 11.77793,0 21.2598,9.48187 21.2598,21.2598 v 10.62997 c 0,11.77793 -9.48187,21.2598 -21.2598,21.2598 h -10.63009 c -11.77793,0 -21.25981,-9.48187 -21.25981,-21.2598 v -10.62997 c 0,-11.77793 9.48188,-21.2598 21.25981,-21.2598 z" />
    <path
       id="rect226793"
       style="fill:#ffaaaa"
       d="m 485.4329,234.81863 h 10.63009 c 11.77793,0 21.2598,9.48188 21.2598,21.25981 v 63.77983 c 0,11.77793 -9.48187,21.2598 -21.2598,21.2598 H 485.4329 c -11.77793,0 -21.2598,-9.48187 -21.2598,-21.2598 v -63.77983 c 0,-11.77793 9.48187,-21.25981 21.2598,-21.25981 z" />
    <path
       id="rect226795"
       style="fill:#ffaaaa"
       d="m 487.20487,129.65945 h 63.77951 c 11.77793,0 21.25981,9.48188 21.25981,21.25981 v 10.62996 c 0,11.77793 -9.48188,21.2598 -21.25981,21.2598 h -63.77951 c -11.77793,0 -21.2598,-9.48187 -21.2598,-21.2598 v -10.62996 c 0,-11.77793 9.48187,-21.25981 21.2598,-21.25981 z" />
    <path
       id="rect226797"
       style="fill:#ffaaaa"
       d="m 604.13389,76.697556 h 10.63009 c 11.77793,0 21.2598,9.481871 21.2598,21.259801 v 10.629963 c 0,11.77793 -9.48187,21.2598 -21.2598,21.2598 h -10.63009 c -11.77793,0 -21.25981,-9.48187 -21.25981,-21.2598 V 97.957357 c 0,-11.77793 9.48188,-21.259801 21.25981,-21.259801 z" />
    <path
       id="rect226791"
       style="fill:#ffaaaa"
       d="m 547.26304,448.08963 h 10.63009 c 11.77793,0 21.2598,9.48187 21.2598,21.2598 v 10.62996 c 0,11.77794 -9.48187,21.25981 -21.2598,21.25981 h -10.63009 c -11.77793,0 -21.25981,-9.48187 -21.25981,-21.25981 v -10.62996 c 0,-11.77793 9.48188,-21.2598 21.25981,-21.2598 z" />
    <path
       id="rect226789"
       style="fill:#ffaaaa"
       d="m 423.42509,76.697556 h 10.63009 c 11.77793,0 21.2598,9.481871 21.2598,21.259801 v 10.629963 c 0,11.77793 -9.48187,21.2598 -21.2598,21.2598 h -10.63009 c -11.77793,0 -21.25981,-9.48187 -21.25981,-21.2598 V 97.957357 c 0,-11.77793 9.48188,-21.259801 21.25981,-21.259801 z" />
    <path
       id="rect226765"
       style="fill:#ffaaaa"
       d="m 180.70852,128.51981 h 7.08674 c 11.77793,0 21.2598,9.48187 21.2598,21.2598 v 63.77957 c 0,11.77793 -9.48187,21.2598 -21.2598,21.2598 h -7.08674 c -11.77793,0 -21.2598,-9.48187 -21.2598,-21.2598 v -63.77957 c 0,-11.77793 9.48187,-21.2598 21.2598,-21.2598 z" />
    <path
       id="rect226773"
       style="fill:#ffaaaa"
       d="m 109.84242,394.26785 h 148.81899 c 11.77793,0 21.2598,9.48187 21.2598,21.2598 v 10.62997 c 0,11.77793 -9.48187,21.2598 -21.2598,21.2598 H 109.84242 c -11.77793,0 -21.259801,-9.48187 -21.259801,-21.2598 v -10.62997 c 0,-11.77793 9.481871,-21.2598 21.259801,-21.2598 z" />
    <path
       id="rect226785"
       style="fill:#afdde9"
       d="m 255.11785,129.65945 h 3.54358 c 11.77793,0 21.2598,9.48188 21.2598,21.25981 v 10.62994 c 0,11.77793 -9.48187,21.25981 -21.2598,21.25981 h -3.54358 c -11.77793,0 -21.2598,-9.48188 -21.2598,-21.25981 v -10.62994 c 0,-11.77793 9.48187,-21.25981 21.2598,-21.25981 z" />
    <path
       id="rect226746"
       style="fill:#afdde9"
       d="m 113.38576,25.763968 h 148.81899 c 11.77793,0 21.2598,9.481872 21.2598,21.259803 v 10.629975 c 0,11.777931 -9.48187,21.259803 -21.2598,21.259803 H 113.38576 c -11.77793,0 -21.259799,-9.481872 -21.259799,-21.259803 V 47.023771 c 0,-11.777931 9.481869,-21.259803 21.259799,-21.259803 z" />
    <path
       id="rect226742"
       style="fill:#afdde9"
       d="m 38.976336,25.763968 h 77.952844 c 11.77793,0 21.2598,9.481872 21.2598,21.259803 V 213.55908 c 0,11.77793 -9.48187,21.2598 -21.2598,21.2598 H 38.976336 c -11.77793,0 -21.2598,-9.48187 -21.2598,-21.2598 V 47.023771 c 0,-11.777931 9.48187,-21.259803 21.2598,-21.259803 z" />
    <path
       id="rect226740"
       style="fill:#ffaaaa"
       d="m 255.11785,78.913376 h 3.54358 c 11.77793,0 21.2598,9.481871 21.2598,21.259804 v 10.62996 c 0,11.77793 -9.48187,21.2598 -21.2598,21.2598 h -3.54358 c -11.77793,0 -21.2598,-9.48187 -21.2598,-21.2598 v -10.62996 c 0,-11.777933 9.48187,-21.259804 21.2598,-21.259804 z" />
    <path
       id="rect226721"
       style="fill:#afdde9"
       d="m 38.976336,25.763968 h 3.543392 c 11.777929,0 21.2598,9.481872 21.2598,21.259803 V 426.15773 c 0,11.77793 -9.481871,21.2598 -21.2598,21.2598 h -3.543392 c -11.77793,0 -21.2598,-9.48187 -21.2598,-21.2598 V 47.023771 c 0,-11.777931 9.48187,-21.259803 21.2598,-21.259803 z" />
    <path
       id="rect226719"
       style="fill:#afdde9"
       d="m 102.75575,25.763968 h 85.03946 c 11.77793,0 21.25981,9.481872 21.25981,21.259803 v 60.236089 c 0,11.77793 -9.48188,21.25981 -21.25981,21.25981 h -85.03946 c -11.77793,0 -21.259801,-9.48188 -21.259801,-21.25981 V 47.023771 c 0,-11.777931 9.481871,-21.259803 21.259801,-21.259803 z" />
    <path
       id="rect216832-0-5"
       style="fill:#ffaaaa"
       d="m 42.51955,447.41727 h 8.4e-5 c 11.77793,0 21.259802,9.48187 21.259802,21.2598 v 379.13396 c 0,11.77793 -9.481872,21.2598 -21.259802,21.2598 h -8.4e-5 c -11.77793,0 -21.259802,-9.48187 -21.259802,-21.2598 V 468.67707 c 0,-11.77793 9.481872,-21.2598 21.259802,-21.2598 z" />
    <g
       id="g56126"
       transform="matrix(0,1.3588251,-1.3588251,0,398.11013,931.55784)">
      <path
         id="path56130"
         d="m 16.734921,-22.541473 38.976378,-3e-6"
         style="fill:none;stroke:#000000;stroke-width:1px;stroke-linecap:butt;stroke-linejoin:miter;stroke-opacity:1" />
      <path
         style="fill:none;stroke:#000000;stroke-width:1px;stroke-linecap:butt;stroke-linejoin:miter;stroke-opacity:1;marker-start:none"
         d="m -658.77807,-22.541476 654.2531485,3e-6"
         id="path13997" />
      <path
         id="path56132"
         d="m -11.611536,-40.258009 c 7.0866149,10.629922 7.0866149,24.80315 0,35.4330707 7.0866149,4e-7 24.80315,-3.5433067 28.346457,-17.7165347 -3.543307,-14.173229 -21.2598421,-17.716536 -28.346457,-17.716536 z"
         style="fill:#ffeeaa;fill-opacity:1;stroke:#000000;stroke-width:1px;stroke-linecap:butt;stroke-linejoin:miter;stroke-opacity:1" />
    </g>
    <g
       transform="matrix(0,1.3588251,-1.3588251,0,19.70072,-43.58971)"
       id="g53853">
      <path
         id="path53855"
         d="m 6.7097928,-35.059201 v 21.259842 L 26.197984,-24.041474 Z"
         style="fill:#ffeeaa;fill-opacity:1;fill-rule:evenodd;stroke:#000000;stroke-width:1px;stroke-linecap:butt;stroke-linejoin:miter;stroke-opacity:1" />
      <path
         id="path53857"
         style="fill:#ffeeaa;stroke:#000000;stroke-width:0.999213"
         d="m 33.284596,-24.041473 a 3.5433071,3.5433071 0 0 1 -3.543307,3.543307 3.5433071,3.5433071 0 0 1 -3.543307,-3.543307 3.5433071,3.5433071 0 0 1 3.543307,-3.543307 3.5433071,3.5433071 0 0 1 3.543307,3.543307 z" />
      <path
         transform="translate(-44.203438,-91.419854)"
         id="path53859"
         d="M 24.803153,85.094915 V 67.37838 l 26.574798,-0.387806"
         style="fill:none;stroke:#000000;stroke-width:1px;stroke-linecap:butt;stroke-linejoin:miter;stroke-opacity:1;marker-start:url(#marker22529)" />
      <path
         id="path53861"
         d="M 32.785936,-24.041474 671.65422,-24.277696"
         style="fill:none;stroke:#000000;stroke-width:1px;stroke-linecap:butt;stroke-linejoin:miter;stroke-opacity:1" />
    </g>
    <path
       id="path9016"
       d="m 28.29522,-94.02501 0.321,963.09585"
       style="fill:none;stroke:#000000;stroke-width:1.35883px;stroke-linecap:butt;stroke-linejoin:miter;stroke-opacity:1" />
    <path
       style="fill:none;stroke:#000000;stroke-width:1.35883px;stroke-linecap:butt;stroke-linejoin:miter;stroke-opacity:1"
       d="m 100.51622,-94.02501 0.321,963.09585"
       id="path9018" />
    <path
       id="path9020"
       d="m 172.73723,-94.02501 0.321,963.09585"
       style="fill:none;stroke:#000000;stroke-width:1.35883px;stroke-linecap:butt;stroke-linejoin:miter;stroke-opacity:1" />
    <path
       style="fill:none;stroke:#000000;stroke-width:1.35883px;stroke-linecap:butt;stroke-linejoin:miter;stroke-opacity:1"
       d="m 244.95833,-94.02501 0.3209,963.09585"
       id="path9187" />
    <g
       id="g12436"
       transform="matrix(0,1.3588251,-1.3588251,0,91.92172,-43.58971)">
      <path
         style="fill:#ffeeaa;fill-opacity:1;fill-rule:evenodd;stroke:#000000;stroke-width:1px;stroke-linecap:butt;stroke-linejoin:miter;stroke-opacity:1"
         d="m 6.7097928,-35.059201 v 21.259842 L 26.197984,-24.041474 Z"
         id="path12438" />
      <path
         id="path12440"
         style="fill:#ffeeaa;stroke:#000000;stroke-width:0.999213"
         d="m 33.284596,-24.041473 a 3.5433071,3.5433071 0 0 1 -3.543307,3.543307 3.5433071,3.5433071 0 0 1 -3.543307,-3.543307 3.5433071,3.5433071 0 0 1 3.543307,-3.543307 3.5433071,3.5433071 0 0 1 3.543307,3.543307 z" />
      <path
         style="fill:none;stroke:#000000;stroke-width:1px;stroke-linecap:butt;stroke-linejoin:miter;stroke-opacity:1;marker-start:url(#marker22529)"
         d="M 24.803153,85.094915 V 67.37838 l 26.574798,-0.387806"
         id="path12442"
         transform="translate(-44.203438,-91.419854)" />
      <path
         style="fill:none;stroke:#000000;stroke-width:1px;stroke-linecap:butt;stroke-linejoin:miter;stroke-opacity:1"
         d="M 32.785936,-24.041474 671.65422,-24.277692"
         id="path12444" />
    </g>
    <g
       transform="matrix(0,1.3588251,-1.3588251,0,164.14283,-43.58971)"
       id="g12446">
      <path
         id="path12448"
         d="m 6.7097928,-35.059201 v 21.259842 L 26.197984,-24.041474 Z"
         style="fill:#ffeeaa;fill-opacity:1;fill-rule:evenodd;stroke:#000000;stroke-width:1px;stroke-linecap:butt;stroke-linejoin:miter;stroke-opacity:1" />
      <path
         id="path12450"
         style="fill:#ffeeaa;stroke:#000000;stroke-width:0.999213"
         d="m 33.284596,-24.041473 a 3.5433071,3.5433071 0 0 1 -3.543307,3.543307 3.5433071,3.5433071 0 0 1 -3.543307,-3.543307 3.5433071,3.5433071 0 0 1 3.543307,-3.543307 3.5433071,3.5433071 0 0 1 3.543307,3.543307 z" />
      <path
         transform="translate(-44.203438,-91.419854)"
         id="path12452"
         d="M 24.803153,85.094915 V 67.37838 l 26.574798,-0.387806"
         style="fill:none;stroke:#000000;stroke-width:1px;stroke-linecap:butt;stroke-linejoin:miter;stroke-opacity:1;marker-start:url(#marker22529)" />
      <path
         id="path12454"
         d="M 32.785936,-24.041474 671.65422,-24.277689"
         style="fill:none;stroke:#000000;stroke-width:1px;stroke-linecap:butt;stroke-linejoin:miter;stroke-opacity:1" />
    </g>
    <g
       id="g12456"
       transform="matrix(0,1.3588251,-1.3588251,0,236.36383,-43.58971)">
      <path
         style="fill:#ffeeaa;fill-opacity:1;fill-rule:evenodd;stroke:#000000;stroke-width:1px;stroke-linecap:butt;stroke-linejoin:miter;stroke-opacity:1"
         d="m 6.7097928,-35.059201 v 21.259842 L 26.197984,-24.041474 Z"
         id="path12458" />
      <path
         id="path12460"
         style="fill:#ffeeaa;stroke:#000000;stroke-width:0.999213"
         d="m 33.284596,-24.041473 a 3.5433071,3.5433071 0 0 1 -3.543307,3.543307 3.5433071,3.5433071 0 0 1 -3.543307,-3.543307 3.5433071,3.5433071 0 0 1 3.543307,-3.543307 3.5433071,3.5433071 0 0 1 3.543307,3.543307 z" />
      <path
         style="fill:none;stroke:#000000;stroke-width:1px;stroke-linecap:butt;stroke-linejoin:miter;stroke-opacity:1;marker-start:url(#marker22529)"
         d="M 24.803153,85.094915 V 67.37838 l 26.574798,-0.387806"
         id="path12462"
         transform="translate(-44.203438,-91.419854)" />
      <path
         style="fill:none;stroke:#000000;stroke-width:1px;stroke-linecap:butt;stroke-linejoin:miter;stroke-opacity:1"
         d="M 32.785936,-24.041474 671.65422,-24.277695"
         id="path12464" />
    </g>
    <g
       id="g12724"
       transform="matrix(1.3588251,0,0,1.3588251,-67.99948,-262.54061)">
      <g
         aria-label="BA"
         id="text12420"
         style="line-height:0%;font-family:Iwona;-inkscape-font-specification:Iwona;text-align:center;text-anchor:middle">
        <path
           d="m 69.994167,99.845977 c 0,-1.32 -0.864,-2.016 -2.124,-2.28 0.924,-0.276 1.536,-0.876 1.536,-1.896 0,-1.464 -1.26,-2.064 -2.88,-2.064 -0.624,0 -1.248,0.036 -1.872,0.12 h -0.96 v 8.400003 h 0.96 l 1.872,0.12 c 1.944,0 3.468,-0.66 3.468,-2.400003 z m -1.572,-4.176 c 0,1.212 -1.356,1.836 -2.712,1.836 h -1.032 v -3.228 c 0.612,-0.084 1.236,-0.12 1.848,-0.12 0.984,0 1.896,0.6 1.896,1.512 z m 0.396,4.176 c 0,1.104003 -1.092,1.848003 -2.292,1.848003 -0.612,0 -1.236,-0.036 -1.848,-0.12 v -3.648003 h 1.548 c 1.32,0 2.592,0.708 2.592,1.92 z"
           style="font-size:12px;line-height:1.25"
           id="path481" />
        <path
           d="m 78.034161,102.12598 -3.048,-8.400003 h -1.044 l -3.108,8.400003 h 0.588 l 1.092,-2.940003 h 3.408 l 1.068,2.940003 z m -2.316,-3.492003 h -3 l 1.512,-4.104 z"
           style="font-size:12px;line-height:1.25"
           id="path483" />
      </g>
      <g
         id="g12716"
         transform="translate(-318.89764,-159.44881)">
        <path
           style="fill:#d5f6ff;fill-opacity:1;stroke:#000000;stroke-width:1px;stroke-linecap:butt;stroke-linejoin:miter;stroke-opacity:1"
           d="m 396.8504,265.74802 h -14.17322 v 10.62992 l 7.08661,7.08661 7.08661,-7.08661 z"
           id="path12722" />
      </g>
    </g>
    <g
       transform="matrix(1.3588251,0,0,1.3588251,4.2215199,-262.54061)"
       id="g12730">
      <g
         aria-label="BR"
         id="text12732"
         style="line-height:0%;font-family:Iwona;-inkscape-font-specification:Iwona;text-align:center;text-anchor:middle">
        <path
           d="m 69.790165,99.845977 c 0,-1.32 -0.864,-2.016 -2.124,-2.28 0.924,-0.276 1.536,-0.876 1.536,-1.896 0,-1.464 -1.26,-2.064 -2.88,-2.064 -0.624,0 -1.248,0.036 -1.872,0.12 h -0.96 v 8.400003 h 0.96 l 1.872,0.12 c 1.944,0 3.468,-0.66 3.468,-2.400003 z m -1.572,-4.176 c 0,1.212 -1.356,1.836 -2.712,1.836 h -1.032 v -3.228 c 0.612,-0.084 1.236,-0.12 1.848,-0.12 0.984,0 1.896,0.6 1.896,1.512 z m 0.396,4.176 c 0,1.104003 -1.092,1.848003 -2.292,1.848003 -0.612,0 -1.236,-0.036 -1.848,-0.12 v -3.648003 h 1.548 c 1.32,0 2.592,0.708 2.592,1.92 z"
           style="font-size:12px;line-height:1.25"
           id="path486" />
        <path
           d="m 78.238159,102.12598 -2.556,-3.804003 c 1.308,-0.252 2.208,-0.972 2.208,-2.316 0,-1.692 -1.452,-2.4 -3.336,-2.4 -0.672,0 -1.344,0.036 -2.004,0.12 h -0.96 v 8.400003 h 0.984 v -3.900003 c 0.648,0.12 1.32,0.192 1.98,0.192 l 2.508,3.708003 z m -1.524,-6.120003 c 0,1.092 -1.02,1.86 -2.16,1.86 -0.66,0 -1.332,-0.072 -1.98,-0.192 v -3.396 c 0.66,-0.084 1.32,-0.12 1.98,-0.12 1.14,0 2.16,0.768 2.16,1.848 z"
           style="font-size:12px;line-height:1.25"
           id="path488" />
      </g>
      <g
         transform="translate(-318.89764,-159.44881)"
         id="g12736">
        <path
           id="path12738"
           d="m 396.8504,265.74802 h -14.17322 v 10.62992 l 7.08661,7.08661 7.08661,-7.08661 z"
           style="fill:#d5f6ff;fill-opacity:1;stroke:#000000;stroke-width:1px;stroke-linecap:butt;stroke-linejoin:miter;stroke-opacity:1" />
      </g>
    </g>
    <g
       id="g12740"
       transform="matrix(1.3588251,0,0,1.3588251,76.44262,-262.54061)">
      <g
         aria-label="BG"
         id="text12742"
         style="line-height:0%;font-family:Iwona;-inkscape-font-specification:Iwona;text-align:center;text-anchor:middle">
        <path
           d="m 69.346169,99.845977 c 0,-1.32 -0.864,-2.016 -2.124,-2.28 0.924,-0.276 1.536,-0.876 1.536,-1.896 0,-1.464 -1.26,-2.064 -2.88,-2.064 -0.624,0 -1.248,0.036 -1.872,0.12 h -0.96 v 8.400003 h 0.96 l 1.872,0.12 c 1.944,0 3.468,-0.66 3.468,-2.400003 z m -1.572,-4.176 c 0,1.212 -1.356,1.836 -2.712,1.836 h -1.032 v -3.228 c 0.612,-0.084 1.236,-0.12 1.848,-0.12 0.984,0 1.896,0.6 1.896,1.512 z m 0.396,4.176 c 0,1.104003 -1.092,1.848003 -2.292,1.848003 -0.612,0 -1.236,-0.036 -1.848,-0.12 v -3.648003 h 1.548 c 1.32,0 2.592,0.708 2.592,1.92 z"
           style="font-size:12px;line-height:1.25"
           id="path491" />
        <path
           d="m 77.842162,102.12598 v -3.528003 h -0.984 v 2.316003 c -0.624,0.504 -1.392,0.78 -2.196,0.78 -1.908,0 -2.7,-1.644 -2.7,-3.768003 0,-2.124 0.792,-3.768 2.7,-3.768 1.128,0 2.196,0.444 2.988,1.248 v -0.552 c -0.792,-0.804 -1.86,-1.248 -2.988,-1.248 -2.472,0 -3.876,1.752 -3.876,4.32 0,2.568003 1.404,4.320003 3.876,4.320003 0.804,0 1.572,-0.276 2.196,-0.78 v 0.66 z"
           style="font-size:12px;line-height:1.25"
           id="path493" />
      </g>
      <g
         id="g12746"
         transform="translate(-318.89764,-159.44881)">
        <path
           style="fill:#d5f6ff;fill-opacity:1;stroke:#000000;stroke-width:1px;stroke-linecap:butt;stroke-linejoin:miter;stroke-opacity:1"
           d="m 396.8504,265.74802 h -14.17322 v 10.62992 l 7.08661,7.08661 7.08661,-7.08661 z"
           id="path12748" />
      </g>
    </g>
    <g
       transform="matrix(1.3588251,0,0,1.3588251,148.66363,-262.54061)"
       id="g12750">
      <g
         aria-label="BD"
         id="text12752"
         style="line-height:0%;font-family:Iwona;-inkscape-font-specification:Iwona;text-align:center;text-anchor:middle">
        <path
           d="m 69.226166,99.845977 c 0,-1.32 -0.864,-2.016 -2.124,-2.28 0.924,-0.276 1.536,-0.876 1.536,-1.896 0,-1.464 -1.26,-2.064 -2.88,-2.064 -0.624,0 -1.248,0.036 -1.872,0.12 h -0.96 v 8.400003 h 0.96 l 1.872,0.12 c 1.944,0 3.468,-0.66 3.468,-2.400003 z m -1.572,-4.176 c 0,1.212 -1.356,1.836 -2.712,1.836 h -1.032 v -3.228 c 0.612,-0.084 1.236,-0.12 1.848,-0.12 0.984,0 1.896,0.6 1.896,1.512 z m 0.396,4.176 c 0,1.104003 -1.092,1.848003 -2.292,1.848003 -0.612,0 -1.236,-0.036 -1.848,-0.12 v -3.648003 h 1.548 c 1.32,0 2.592,0.708 2.592,1.92 z"
           style="font-size:12px;line-height:1.25"
           id="path496" />
        <path
           d="m 78.202159,97.925977 c 0,-2.568 -1.404,-4.32 -3.876,-4.32 -0.744,0 -1.488,0.036 -2.22,0.12 h -0.96 v 8.400003 h 0.96 c 0.732,0.084 1.476,0.12 2.22,0.12 2.472,0 3.876,-1.752 3.876,-4.320003 z m -1.176,0 c 0,1.908 -0.972,3.768003 -2.7,3.768003 -0.732,0 -1.464,-0.036 -2.196,-0.12 v -7.296003 c 0.732,-0.084 1.464,-0.12 2.196,-0.12 1.728,0 2.7,1.86 2.7,3.768 z"
           style="font-size:12px;line-height:1.25"
           id="path498" />
      </g>
      <g
         transform="translate(-318.89764,-159.44881)"
         id="g12756">
        <path
           id="path12758"
           d="m 396.8504,265.74802 h -14.17322 v 10.62992 l 7.08661,7.08661 7.08661,-7.08661 z"
           style="fill:#d5f6ff;fill-opacity:1;stroke:#000000;stroke-width:1px;stroke-linecap:butt;stroke-linejoin:miter;stroke-opacity:1" />
      </g>
    </g>
    <g
       id="g12488"
       transform="matrix(1.3588251,0,0,1.3588251,357.87633,81.44289)">
      <path
         id="path12490"
         d="m -224.25756,-33.153038 198.086973,-0.104974"
         style="fill:none;stroke:#000000;stroke-width:1px;stroke-linecap:butt;stroke-linejoin:miter;stroke-opacity:1;marker-start:url(#marker22529)" />
      <path
         id="path12492"
         d="M 2.1758694,-22.628091 H 211.23099"
         style="fill:none;stroke:#000000;stroke-width:1px;stroke-linecap:butt;stroke-linejoin:miter;stroke-opacity:1" />
      <path
         id="path12494"
         d="m -26.170587,-40.911555 v 35.9999999 h 3.543306 c 3.543307,0 24.2669248,1.3e-6 24.2669248,-17.9999989 0,-18 -20.7236178,-18.000001 -24.2669248,-18.000001 0,0 -3.543306,0 -3.543306,0 z"
         style="fill:#ffeeaa;fill-opacity:1;stroke:#000000;stroke-width:1px;stroke-linecap:butt;stroke-linejoin:miter;stroke-opacity:1" />
      <path
         id="path12496"
         d="M -171.44618,-26.171398 H -26.446178"
         style="fill:none;stroke:#000000;stroke-width:0.999213;stroke-linecap:butt;stroke-linejoin:miter;stroke-miterlimit:4;stroke-dasharray:none;stroke-opacity:1;marker-start:url(#marker18753)" />
      <path
         style="fill:none;stroke:#000000;stroke-width:0.999213;stroke-linecap:butt;stroke-linejoin:miter;stroke-miterlimit:4;stroke-dasharray:none;stroke-opacity:1;marker-start:url(#marker18753)"
         d="m -65.146965,-11.998169 h 38.976378"
         id="path12498" />
      <path
         id="path6483"
         d="m -118.29657,-19.084783 h 92.125983"
         style="fill:none;stroke:#000000;stroke-width:0.999213;stroke-linecap:butt;stroke-linejoin:miter;stroke-miterlimit:4;stroke-dasharray:none;stroke-opacity:1;marker-start:url(#marker18753)" />
    </g>
    <g
       transform="matrix(1.3588251,0,0,1.3588251,357.87633,134.40499)"
       id="g13899">
      <path
         style="fill:none;stroke:#000000;stroke-width:1px;stroke-linecap:butt;stroke-linejoin:miter;stroke-opacity:1;marker-start:url(#marker22529)"
         d="m -224.59578,-33.258014 198.425193,2e-6"
         id="path13901" />
      <path
         style="fill:none;stroke:#000000;stroke-width:1px;stroke-linecap:butt;stroke-linejoin:miter;stroke-opacity:1"
         d="M 2.1758694,-22.628091 H 211.23099"
         id="path13903" />
      <path
         style="fill:#ffeeaa;fill-opacity:1;stroke:#000000;stroke-width:1px;stroke-linecap:butt;stroke-linejoin:miter;stroke-opacity:1"
         d="m -26.170587,-40.911555 v 35.9999999 h 3.543306 c 3.543307,0 24.2669248,1.3e-6 24.2669248,-17.9999989 0,-18 -20.7236178,-18.000001 -24.2669248,-18.000001 0,0 -3.543306,0 -3.543306,0 z"
         id="path13905" />
      <path
         style="fill:none;stroke:#000000;stroke-width:0.999213;stroke-linecap:butt;stroke-linejoin:miter;stroke-miterlimit:4;stroke-dasharray:none;stroke-opacity:1;marker-start:url(#marker18753)"
         d="m -189.16271,-26.1714 162.716532,2e-6"
         id="path13907" />
      <path
         id="path13909"
         d="m -65.146965,-11.998169 h 38.976378"
         style="fill:none;stroke:#000000;stroke-width:0.999213;stroke-linecap:butt;stroke-linejoin:miter;stroke-miterlimit:4;stroke-dasharray:none;stroke-opacity:1;marker-start:url(#marker18753)" />
      <path
         style="fill:none;stroke:#000000;stroke-width:0.999213;stroke-linecap:butt;stroke-linejoin:miter;stroke-miterlimit:4;stroke-dasharray:none;stroke-opacity:1;marker-start:url(#marker18753)"
         d="m -118.29657,-19.084783 h 92.125983"
         id="path13911" />
    </g>
    <g
       id="g13913"
       transform="matrix(1.3588251,0,0,1.3588251,357.87633,187.36709)">
      <path
         id="path13915"
         d="m -224.59578,-33.258014 198.425193,2e-6"
         style="fill:none;stroke:#000000;stroke-width:1px;stroke-linecap:butt;stroke-linejoin:miter;stroke-opacity:1;marker-start:url(#marker22529)" />
      <path
         id="path13917"
         d="M 2.1758694,-22.628091 H 211.23099"
         style="fill:none;stroke:#000000;stroke-width:1px;stroke-linecap:butt;stroke-linejoin:miter;stroke-opacity:1" />
      <path
         id="path13919"
         d="m -26.170587,-40.911555 v 35.9999999 h 3.543306 c 3.543307,0 24.2669248,1.3e-6 24.2669248,-17.9999989 0,-18 -20.7236178,-18.000001 -24.2669248,-18.000001 0,0 -3.543306,0 -3.543306,0 z"
         style="fill:#ffeeaa;fill-opacity:1;stroke:#000000;stroke-width:1px;stroke-linecap:butt;stroke-linejoin:miter;stroke-opacity:1" />
      <path
         id="path13921"
         d="m -171.44618,-26.171402 145.000002,4e-6"
         style="fill:none;stroke:#000000;stroke-width:0.999213;stroke-linecap:butt;stroke-linejoin:miter;stroke-miterlimit:4;stroke-dasharray:none;stroke-opacity:1;marker-start:url(#marker18753)" />
      <path
         style="fill:none;stroke:#000000;stroke-width:0.999213;stroke-linecap:butt;stroke-linejoin:miter;stroke-miterlimit:4;stroke-dasharray:none;stroke-opacity:1;marker-start:url(#marker18753)"
         d="m -65.146965,-11.998169 h 38.976378"
         id="path13923" />
      <path
         id="path13925"
         d="m -136.01311,-19.084788 109.842523,5e-6"
         style="fill:none;stroke:#000000;stroke-width:0.999213;stroke-linecap:butt;stroke-linejoin:miter;stroke-miterlimit:4;stroke-dasharray:none;stroke-opacity:1;marker-start:url(#marker18753)" />
    </g>
    <g
       transform="matrix(1.3588251,0,0,1.3588251,357.87633,240.32909)"
       id="g13927">
      <path
         style="fill:none;stroke:#000000;stroke-width:1px;stroke-linecap:butt;stroke-linejoin:miter;stroke-opacity:1;marker-start:url(#marker22529)"
         d="m -224.59578,-33.258014 198.425193,2e-6"
         id="path13929" />
      <path
         style="fill:none;stroke:#000000;stroke-width:1px;stroke-linecap:butt;stroke-linejoin:miter;stroke-opacity:1"
         d="M 2.1758694,-22.628091 H 211.23099"
         id="path13931" />
      <path
         style="fill:#ffeeaa;fill-opacity:1;stroke:#000000;stroke-width:1px;stroke-linecap:butt;stroke-linejoin:miter;stroke-opacity:1"
         d="m -26.170587,-40.911555 v 35.9999999 h 3.543306 c 3.543307,0 24.2669248,1.3e-6 24.2669248,-17.9999989 0,-18 -20.7236178,-18.000001 -24.2669248,-18.000001 0,0 -3.543306,0 -3.543306,0 z"
         id="path13933" />
      <path
         style="fill:none;stroke:#000000;stroke-width:0.999213;stroke-linecap:butt;stroke-linejoin:miter;stroke-miterlimit:4;stroke-dasharray:none;stroke-opacity:1;marker-start:url(#marker18753)"
         d="m -171.44618,-26.171402 145.000002,4e-6"
         id="path13935" />
      <path
         id="path13937"
         d="m -82.863501,-11.998165 56.692914,-4e-6"
         style="fill:none;stroke:#000000;stroke-width:0.999213;stroke-linecap:butt;stroke-linejoin:miter;stroke-miterlimit:4;stroke-dasharray:none;stroke-opacity:1;marker-start:url(#marker18753)" />
      <path
         style="fill:none;stroke:#000000;stroke-width:0.999213;stroke-linecap:butt;stroke-linejoin:miter;stroke-miterlimit:4;stroke-dasharray:none;stroke-opacity:1;marker-start:url(#marker18753)"
         d="m -118.29657,-19.08478 92.125983,-3e-6"
         id="path13939" />
    </g>
    <g
       id="g13941"
       transform="matrix(1.3588251,0,0,1.3588251,358.46063,293.91299)">
      <path
         id="path13943"
         d="m -224.25756,-33.25801 198.086973,-2e-6"
         style="fill:none;stroke:#000000;stroke-width:1px;stroke-linecap:butt;stroke-linejoin:miter;stroke-opacity:1;marker-start:url(#marker22529)" />
      <path
         id="path13945"
         d="M 2.1758694,-22.628091 H 211.23099"
         style="fill:none;stroke:#000000;stroke-width:1px;stroke-linecap:butt;stroke-linejoin:miter;stroke-opacity:1" />
      <path
         id="path13947"
         d="m -26.170587,-40.911555 v 35.9999999 h 3.543306 c 3.543307,0 24.2669248,1.3e-6 24.2669248,-17.9999989 0,-18 -20.7236178,-18.000001 -24.2669248,-18.000001 0,0 -3.543306,0 -3.543306,0 z"
         style="fill:#ffeeaa;fill-opacity:1;stroke:#000000;stroke-width:1px;stroke-linecap:butt;stroke-linejoin:miter;stroke-opacity:1" />
      <path
         id="path13949"
         d="m -171.44618,-26.171402 145.000002,4e-6"
         style="fill:none;stroke:#000000;stroke-width:0.999213;stroke-linecap:butt;stroke-linejoin:miter;stroke-miterlimit:4;stroke-dasharray:none;stroke-opacity:1;marker-start:url(#marker18753)" />
      <path
         style="fill:none;stroke:#000000;stroke-width:0.999213;stroke-linecap:butt;stroke-linejoin:miter;stroke-miterlimit:4;stroke-dasharray:none;stroke-opacity:1;marker-start:url(#marker18753)"
         d="m -65.146965,-11.998167 38.976378,-2e-6"
         id="path13951" />
      <path
         id="path13953"
         d="m -136.01311,-19.084782 109.842523,-1e-6"
         style="fill:none;stroke:#000000;stroke-width:0.999213;stroke-linecap:butt;stroke-linejoin:miter;stroke-miterlimit:4;stroke-dasharray:none;stroke-opacity:1;marker-start:url(#marker18753)" />
    </g>
    <g
       transform="matrix(1.3588251,0,0,1.3588251,358.46063,347.06259)"
       id="g13955">
      <path
         style="fill:none;stroke:#000000;stroke-width:1px;stroke-linecap:butt;stroke-linejoin:miter;stroke-opacity:1;marker-start:url(#marker22529)"
         d="m -224.5331,-33.25801 198.362513,-2e-6"
         id="path13957" />
      <path
         style="fill:none;stroke:#000000;stroke-width:1px;stroke-linecap:butt;stroke-linejoin:miter;stroke-opacity:1"
         d="M 2.1758694,-22.628091 H 211.23099"
         id="path13959" />
      <path
         style="fill:#ffeeaa;fill-opacity:1;stroke:#000000;stroke-width:1px;stroke-linecap:butt;stroke-linejoin:miter;stroke-opacity:1"
         d="m -26.170587,-40.911555 v 35.9999999 h 3.543306 c 3.543307,0 24.2669248,1.3e-6 24.2669248,-17.9999989 0,-18 -20.7236178,-18.000001 -24.2669248,-18.000001 0,0 -3.543306,0 -3.543306,0 z"
         id="path13961" />
      <path
         style="fill:none;stroke:#000000;stroke-width:0.999213;stroke-linecap:butt;stroke-linejoin:miter;stroke-miterlimit:4;stroke-dasharray:none;stroke-opacity:1;marker-start:url(#marker18753)"
         d="m -171.44618,-26.171402 145.000002,4e-6"
         id="path13963" />
      <path
         id="path13965"
         d="m -83.139091,-11.99817 56.968504,10e-7"
         style="fill:none;stroke:#000000;stroke-width:0.999213;stroke-linecap:butt;stroke-linejoin:miter;stroke-miterlimit:4;stroke-dasharray:none;stroke-opacity:1;marker-start:url(#marker18753)" />
      <path
         style="fill:none;stroke:#000000;stroke-width:0.999213;stroke-linecap:butt;stroke-linejoin:miter;stroke-miterlimit:4;stroke-dasharray:none;stroke-opacity:1;marker-start:url(#marker18753)"
         d="m -118.57216,-19.084784 92.401573,10e-7"
         id="path13967" />
    </g>
    <g
       transform="matrix(1.3588251,0,0,1.3588251,357.87633,400.59749)"
       id="g13969">
      <path
         style="fill:none;stroke:#000000;stroke-width:1px;stroke-linecap:butt;stroke-linejoin:miter;stroke-opacity:1;marker-start:url(#marker22529)"
         d="m -224.59578,-33.258014 198.425193,2e-6"
         id="path13971" />
      <path
         style="fill:none;stroke:#000000;stroke-width:1px;stroke-linecap:butt;stroke-linejoin:miter;stroke-opacity:1"
         d="M 2.1758694,-22.628091 H 211.23099"
         id="path13973" />
      <path
         style="fill:#ffeeaa;fill-opacity:1;stroke:#000000;stroke-width:1px;stroke-linecap:butt;stroke-linejoin:miter;stroke-opacity:1"
         d="m -26.170587,-40.911555 v 35.9999999 h 3.543306 c 3.543307,0 24.2669248,1.3e-6 24.2669248,-17.9999989 0,-18 -20.7236178,-18.000001 -24.2669248,-18.000001 0,0 -3.543306,0 -3.543306,0 z"
         id="path13975" />
      <path
         style="fill:none;stroke:#000000;stroke-width:0.999213;stroke-linecap:butt;stroke-linejoin:miter;stroke-miterlimit:4;stroke-dasharray:none;stroke-opacity:1;marker-start:url(#marker18753)"
         d="m -189.16271,-26.1714 162.716532,2e-6"
         id="path13977" />
      <path
         id="path13979"
         d="m -65.146965,-11.998167 38.976378,-2e-6"
         style="fill:none;stroke:#000000;stroke-width:0.999213;stroke-linecap:butt;stroke-linejoin:miter;stroke-miterlimit:4;stroke-dasharray:none;stroke-opacity:1;marker-start:url(#marker18753)" />
      <path
         style="fill:none;stroke:#000000;stroke-width:0.999213;stroke-linecap:butt;stroke-linejoin:miter;stroke-miterlimit:4;stroke-dasharray:none;stroke-opacity:1;marker-start:url(#marker18753)"
         d="m -136.01311,-19.084782 109.842523,-1e-6"
         id="path13981" />
    </g>
    <g
       id="g13983"
       transform="matrix(1.3588251,0,0,1.3588251,358.46063,453.36179)">
      <path
         id="path13985"
         d="m -224.87137,-33.258016 198.700783,4e-6"
         style="fill:none;stroke:#000000;stroke-width:1px;stroke-linecap:butt;stroke-linejoin:miter;stroke-opacity:1;marker-start:url(#marker22529)" />
      <path
         id="path13987"
         d="M 2.1758694,-22.628091 H 211.23099"
         style="fill:none;stroke:#000000;stroke-width:1px;stroke-linecap:butt;stroke-linejoin:miter;stroke-opacity:1" />
      <path
         id="path13989"
         d="m -26.170587,-40.911555 v 35.9999999 h 3.543306 c 3.543307,0 24.2669248,1.3e-6 24.2669248,-17.9999989 0,-18 -20.7236178,-18.000001 -24.2669248,-18.000001 0,0 -3.543306,0 -3.543306,0 z"
         style="fill:#ffeeaa;fill-opacity:1;stroke:#000000;stroke-width:1px;stroke-linecap:butt;stroke-linejoin:miter;stroke-opacity:1" />
      <path
         id="path13991"
         d="m -189.4383,-26.171402 162.992122,4e-6"
         style="fill:none;stroke:#000000;stroke-width:0.999213;stroke-linecap:butt;stroke-linejoin:miter;stroke-miterlimit:4;stroke-dasharray:none;stroke-opacity:1;marker-start:url(#marker18753)" />
      <path
         style="fill:none;stroke:#000000;stroke-width:0.999213;stroke-linecap:butt;stroke-linejoin:miter;stroke-miterlimit:4;stroke-dasharray:none;stroke-opacity:1;marker-start:url(#marker18753)"
         d="m -83.139091,-11.99817 56.968504,10e-7"
         id="path13993" />
      <path
         id="path13995"
         d="m -118.57216,-19.084784 92.401573,10e-7"
         style="fill:none;stroke:#000000;stroke-width:0.999213;stroke-linecap:butt;stroke-linejoin:miter;stroke-miterlimit:4;stroke-dasharray:none;stroke-opacity:1;marker-start:url(#marker18753)" />
    </g>
    <g
       transform="matrix(0,1.3588251,-1.3588251,0,461.88973,931.55784)"
       id="g13999">
      <path
         style="fill:none;stroke:#000000;stroke-width:1px;stroke-linecap:butt;stroke-linejoin:miter;stroke-opacity:1"
         d="m 16.734921,-22.541473 38.976378,2e-6"
         id="path14001" />
      <path
         id="path14007"
         d="m -658.77807,-22.541471 654.2531485,-2e-6"
         style="fill:none;stroke:#000000;stroke-width:1px;stroke-linecap:butt;stroke-linejoin:miter;stroke-opacity:1;marker-start:none" />
      <path
         style="fill:#ffeeaa;fill-opacity:1;stroke:#000000;stroke-width:1px;stroke-linecap:butt;stroke-linejoin:miter;stroke-opacity:1"
         d="m -11.611536,-40.258009 c 7.0866149,10.629922 7.0866149,24.80315 0,35.4330707 7.0866149,4e-7 24.80315,-3.5433067 28.346457,-17.7165347 -3.543307,-14.173229 -21.2598421,-17.716536 -28.346457,-17.716536 z"
         id="path14009" />
    </g>
    <g
       id="g14011"
       transform="matrix(0,1.3588251,-1.3588251,0,521.94803,931.55804)">
      <path
         id="path14013"
         d="m 16.734921,-22.541473 38.976378,-3e-6"
         style="fill:none;stroke:#000000;stroke-width:1px;stroke-linecap:butt;stroke-linejoin:miter;stroke-opacity:1" />
      <path
         style="fill:none;stroke:#000000;stroke-width:1px;stroke-linecap:butt;stroke-linejoin:miter;stroke-opacity:1;marker-start:none"
         d="m -658.77822,-22.541476 654.2532985,3e-6"
         id="path14019" />
      <path
         id="path14021"
         d="m -11.611536,-40.258009 c 7.0866149,10.629922 7.0866149,24.80315 0,35.4330707 7.0866149,4e-7 24.80315,-3.5433067 28.346457,-17.7165347 -3.543307,-14.173229 -21.2598421,-17.716536 -28.346457,-17.716536 z"
         style="fill:#ffeeaa;fill-opacity:1;stroke:#000000;stroke-width:1px;stroke-linecap:butt;stroke-linejoin:miter;stroke-opacity:1" />
    </g>
    <g
       transform="matrix(0,1.3588251,-1.3588251,0,578.81883,931.55784)"
       id="g14023">
      <path
         style="fill:none;stroke:#000000;stroke-width:1px;stroke-linecap:butt;stroke-linejoin:miter;stroke-opacity:1"
         d="m 16.734921,-22.541473 38.976378,2e-6"
         id="path14025" />
      <path
         id="path14031"
         d="m -658.77807,-22.541471 654.2531485,-2e-6"
         style="fill:none;stroke:#000000;stroke-width:1px;stroke-linecap:butt;stroke-linejoin:miter;stroke-opacity:1;marker-start:none" />
      <path
         style="fill:#ffeeaa;fill-opacity:1;stroke:#000000;stroke-width:1px;stroke-linecap:butt;stroke-linejoin:miter;stroke-opacity:1"
         d="m -11.611536,-40.258009 c 7.0866149,10.629922 7.0866149,24.80315 0,35.4330707 7.0866149,4e-7 24.80315,-3.5433067 28.346457,-17.7165347 -3.543307,-14.173229 -21.2598421,-17.716536 -28.346457,-17.716536 z"
         id="path14033" />
    </g>
    <g
       transform="matrix(1.3588251,0,0,1.3588251,358.80493,506.89699)"
       id="g36277">
      <path
         style="fill:none;stroke:#000000;stroke-width:1px;stroke-linecap:butt;stroke-linejoin:miter;stroke-opacity:1;marker-start:url(#marker22529)"
         d="M -242.31232,-33.258012 H -26.170587"
         id="path36279" />
      <path
         style="fill:none;stroke:#000000;stroke-width:1px;stroke-linecap:butt;stroke-linejoin:miter;stroke-opacity:1"
         d="M 2.1758694,-22.628091 H 211.23099"
         id="path36281" />
      <path
         style="fill:#ffeeaa;fill-opacity:1;stroke:#000000;stroke-width:1px;stroke-linecap:butt;stroke-linejoin:miter;stroke-opacity:1"
         d="m -26.170587,-40.911555 v 35.9999999 h 3.543306 c 3.543307,0 24.2669248,1.3e-6 24.2669248,-17.9999989 0,-18 -20.7236178,-18.000001 -24.2669248,-18.000001 0,0 -3.543306,0 -3.543306,0 z"
         id="path36283" />
      <path
         style="fill:none;stroke:#000000;stroke-width:0.999213;stroke-linecap:butt;stroke-linejoin:miter;stroke-miterlimit:4;stroke-dasharray:none;stroke-opacity:1;marker-start:url(#marker18753)"
         d="M -171.44618,-26.171398 H -26.446178"
         id="path36285" />
      <path
         id="path36287"
         d="m -65.146965,-11.998169 h 38.976378"
         style="fill:none;stroke:#000000;stroke-width:0.999213;stroke-linecap:butt;stroke-linejoin:miter;stroke-miterlimit:4;stroke-dasharray:none;stroke-opacity:1;marker-start:url(#marker18753)" />
      <path
         style="fill:none;stroke:#000000;stroke-width:0.999213;stroke-linecap:butt;stroke-linejoin:miter;stroke-miterlimit:4;stroke-dasharray:none;stroke-opacity:1;marker-start:url(#marker18753)"
         d="m -118.29657,-19.084783 h 92.125983"
         id="path36289" />
    </g>
    <g
       id="g36291"
       transform="matrix(1.3588251,0,0,1.3588251,358.46063,559.66099)">
      <path
         id="path36293"
         d="m -243.19433,-33.258014 217.023742,2e-6"
         style="fill:none;stroke:#000000;stroke-width:1px;stroke-linecap:butt;stroke-linejoin:miter;stroke-opacity:1;marker-start:url(#marker22529)" />
      <path
         id="path36295"
         d="M 2.1758694,-22.628091 H 211.23099"
         style="fill:none;stroke:#000000;stroke-width:1px;stroke-linecap:butt;stroke-linejoin:miter;stroke-opacity:1" />
      <path
         id="path36297"
         d="m -26.170587,-40.911555 v 35.9999999 h 3.543306 c 3.543307,0 24.2669248,1.3e-6 24.2669248,-17.9999989 0,-18 -20.7236178,-18.000001 -24.2669248,-18.000001 0,0 -3.543306,0 -3.543306,0 z"
         style="fill:#ffeeaa;fill-opacity:1;stroke:#000000;stroke-width:1px;stroke-linecap:butt;stroke-linejoin:miter;stroke-opacity:1" />
      <path
         id="path36299"
         d="m -189.16271,-26.1714 162.716532,2e-6"
         style="fill:none;stroke:#000000;stroke-width:0.999213;stroke-linecap:butt;stroke-linejoin:miter;stroke-miterlimit:4;stroke-dasharray:none;stroke-opacity:1;marker-start:url(#marker18753)" />
      <path
         style="fill:none;stroke:#000000;stroke-width:0.999213;stroke-linecap:butt;stroke-linejoin:miter;stroke-miterlimit:4;stroke-dasharray:none;stroke-opacity:1;marker-start:url(#marker18753)"
         d="m -65.146965,-11.998169 h 38.976378"
         id="path36301" />
      <path
         id="path36303"
         d="m -118.29657,-19.084783 h 92.125983"
         style="fill:none;stroke:#000000;stroke-width:0.999213;stroke-linecap:butt;stroke-linejoin:miter;stroke-miterlimit:4;stroke-dasharray:none;stroke-opacity:1;marker-start:url(#marker18753)" />
    </g>
    <g
       transform="matrix(1.3588251,0,0,1.3588251,358.46063,612.81059)"
       id="g36305">
      <path
         style="fill:none;stroke:#000000;stroke-width:1px;stroke-linecap:butt;stroke-linejoin:miter;stroke-opacity:1;marker-start:url(#marker22529)"
         d="m -243.19433,-33.258014 217.023742,2e-6"
         id="path36307" />
      <path
         style="fill:none;stroke:#000000;stroke-width:1px;stroke-linecap:butt;stroke-linejoin:miter;stroke-opacity:1"
         d="M 2.1758694,-22.628091 H 211.23099"
         id="path36309" />
      <path
         style="fill:#ffeeaa;fill-opacity:1;stroke:#000000;stroke-width:1px;stroke-linecap:butt;stroke-linejoin:miter;stroke-opacity:1"
         d="m -26.170587,-40.911555 v 35.9999999 h 3.543306 c 3.543307,0 24.2669248,1.3e-6 24.2669248,-17.9999989 0,-18 -20.7236178,-18.000001 -24.2669248,-18.000001 0,0 -3.543306,0 -3.543306,0 z"
         id="path36311" />
      <path
         style="fill:none;stroke:#000000;stroke-width:0.999213;stroke-linecap:butt;stroke-linejoin:miter;stroke-miterlimit:4;stroke-dasharray:none;stroke-opacity:1;marker-start:url(#marker18753)"
         d="m -171.44618,-26.171402 145.000002,4e-6"
         id="path36313" />
      <path
         id="path36315"
         d="m -65.146965,-11.998169 h 38.976378"
         style="fill:none;stroke:#000000;stroke-width:0.999213;stroke-linecap:butt;stroke-linejoin:miter;stroke-miterlimit:4;stroke-dasharray:none;stroke-opacity:1;marker-start:url(#marker18753)" />
      <path
         style="fill:none;stroke:#000000;stroke-width:0.999213;stroke-linecap:butt;stroke-linejoin:miter;stroke-miterlimit:4;stroke-dasharray:none;stroke-opacity:1;marker-start:url(#marker18753)"
         d="m -136.01311,-19.084788 109.842523,5e-6"
         id="path36317" />
    </g>
    <g
       id="g36319"
       transform="matrix(1.3588251,0,0,1.3588251,358.98353,665.75479)">
      <path
         id="path36321"
         d="m -243.19433,-33.258014 217.023742,2e-6"
         style="fill:none;stroke:#000000;stroke-width:1px;stroke-linecap:butt;stroke-linejoin:miter;stroke-opacity:1;marker-start:url(#marker22529)" />
      <path
         id="path36323"
         d="M 2.1758694,-22.628091 H 211.23099"
         style="fill:none;stroke:#000000;stroke-width:1px;stroke-linecap:butt;stroke-linejoin:miter;stroke-opacity:1" />
      <path
         id="path36325"
         d="m -26.170587,-40.911555 v 35.9999999 h 3.543306 c 3.543307,0 24.2669248,1.3e-6 24.2669248,-17.9999989 0,-18 -20.7236178,-18.000001 -24.2669248,-18.000001 0,0 -3.543306,0 -3.543306,0 z"
         style="fill:#ffeeaa;fill-opacity:1;stroke:#000000;stroke-width:1px;stroke-linecap:butt;stroke-linejoin:miter;stroke-opacity:1" />
      <path
         id="path36327"
         d="m -171.44618,-26.171402 145.000002,4e-6"
         style="fill:none;stroke:#000000;stroke-width:0.999213;stroke-linecap:butt;stroke-linejoin:miter;stroke-miterlimit:4;stroke-dasharray:none;stroke-opacity:1;marker-start:url(#marker18753)" />
      <path
         style="fill:none;stroke:#000000;stroke-width:0.999213;stroke-linecap:butt;stroke-linejoin:miter;stroke-miterlimit:4;stroke-dasharray:none;stroke-opacity:1;marker-start:url(#marker18753)"
         d="m -82.863501,-11.998165 56.692914,-4e-6"
         id="path36329" />
      <path
         id="path36331"
         d="m -118.29657,-19.08478 92.125983,-3e-6"
         style="fill:none;stroke:#000000;stroke-width:0.999213;stroke-linecap:butt;stroke-linejoin:miter;stroke-miterlimit:4;stroke-dasharray:none;stroke-opacity:1;marker-start:url(#marker18753)" />
    </g>
    <g
       transform="matrix(1.3588251,0,0,1.3588251,358.46063,719.10979)"
       id="g36333">
      <path
         style="fill:none;stroke:#000000;stroke-width:1px;stroke-linecap:butt;stroke-linejoin:miter;stroke-opacity:1;marker-start:url(#marker22529)"
         d="m -242.31232,-33.25801 216.141733,-2e-6"
         id="path36335" />
      <path
         style="fill:none;stroke:#000000;stroke-width:1px;stroke-linecap:butt;stroke-linejoin:miter;stroke-opacity:1"
         d="M 2.1758694,-22.628091 H 211.23099"
         id="path36337" />
      <path
         style="fill:#ffeeaa;fill-opacity:1;stroke:#000000;stroke-width:1px;stroke-linecap:butt;stroke-linejoin:miter;stroke-opacity:1"
         d="m -26.170587,-40.911555 v 35.9999999 h 3.543306 c 3.543307,0 24.2669248,1.3e-6 24.2669248,-17.9999989 0,-18 -20.7236178,-18.000001 -24.2669248,-18.000001 0,0 -3.543306,0 -3.543306,0 z"
         id="path36339" />
      <path
         style="fill:none;stroke:#000000;stroke-width:0.999213;stroke-linecap:butt;stroke-linejoin:miter;stroke-miterlimit:4;stroke-dasharray:none;stroke-opacity:1;marker-start:url(#marker18753)"
         d="m -171.44618,-26.171402 145.000002,4e-6"
         id="path36341" />
      <path
         id="path36343"
         d="m -65.146965,-11.998167 38.976378,-2e-6"
         style="fill:none;stroke:#000000;stroke-width:0.999213;stroke-linecap:butt;stroke-linejoin:miter;stroke-miterlimit:4;stroke-dasharray:none;stroke-opacity:1;marker-start:url(#marker18753)" />
      <path
         style="fill:none;stroke:#000000;stroke-width:0.999213;stroke-linecap:butt;stroke-linejoin:miter;stroke-miterlimit:4;stroke-dasharray:none;stroke-opacity:1;marker-start:url(#marker18753)"
         d="m -136.01311,-19.084782 109.842523,-1e-6"
         id="path36345" />
    </g>
    <g
       id="g36347"
       transform="matrix(1.3588251,0,0,1.3588251,358.46063,772.25939)">
      <path
         id="path36349"
         d="m -242.31232,-33.25801 216.141733,-2e-6"
         style="fill:none;stroke:#000000;stroke-width:1px;stroke-linecap:butt;stroke-linejoin:miter;stroke-opacity:1;marker-start:url(#marker22529)" />
      <path
         id="path36351"
         d="M 2.1758694,-22.628091 H 211.23099"
         style="fill:none;stroke:#000000;stroke-width:1px;stroke-linecap:butt;stroke-linejoin:miter;stroke-opacity:1" />
      <path
         id="path36353"
         d="m -26.170587,-40.911555 v 35.9999999 h 3.543306 c 3.543307,0 24.2669248,1.3e-6 24.2669248,-17.9999989 0,-18 -20.7236178,-18.000001 -24.2669248,-18.000001 0,0 -3.543306,0 -3.543306,0 z"
         style="fill:#ffeeaa;fill-opacity:1;stroke:#000000;stroke-width:1px;stroke-linecap:butt;stroke-linejoin:miter;stroke-opacity:1" />
      <path
         id="path36355"
         d="m -171.44618,-26.171402 145.000002,4e-6"
         style="fill:none;stroke:#000000;stroke-width:0.999213;stroke-linecap:butt;stroke-linejoin:miter;stroke-miterlimit:4;stroke-dasharray:none;stroke-opacity:1;marker-start:url(#marker18753)" />
      <path
         style="fill:none;stroke:#000000;stroke-width:0.999213;stroke-linecap:butt;stroke-linejoin:miter;stroke-miterlimit:4;stroke-dasharray:none;stroke-opacity:1;marker-start:url(#marker18753)"
         d="m -83.139091,-11.99817 56.968504,10e-7"
         id="path36357" />
      <path
         id="path36359"
         d="m -118.57216,-19.084784 92.401573,10e-7"
         style="fill:none;stroke:#000000;stroke-width:0.999213;stroke-linecap:butt;stroke-linejoin:miter;stroke-miterlimit:4;stroke-dasharray:none;stroke-opacity:1;marker-start:url(#marker18753)" />
    </g>
    <g
       id="g36361"
       transform="matrix(1.3588251,0,0,1.3588251,358.46063,825.40909)">
      <path
         id="path36363"
         d="m -243.19427,-33.258014 216.997893,2e-6"
         style="fill:none;stroke:#000000;stroke-width:1px;stroke-linecap:butt;stroke-linejoin:miter;stroke-opacity:1;marker-start:url(#marker22529)" />
      <path
         id="path36365"
         d="M 2.1758694,-22.628091 H 211.23099"
         style="fill:none;stroke:#000000;stroke-width:1px;stroke-linecap:butt;stroke-linejoin:miter;stroke-opacity:1" />
      <path
         id="path36367"
         d="m -26.170587,-40.911555 v 35.9999999 h 3.543306 c 3.543307,0 24.2669248,1.3e-6 24.2669248,-17.9999989 0,-18 -20.7236178,-18.000001 -24.2669248,-18.000001 0,0 -3.543306,0 -3.543306,0 z"
         style="fill:#ffeeaa;fill-opacity:1;stroke:#000000;stroke-width:1px;stroke-linecap:butt;stroke-linejoin:miter;stroke-opacity:1" />
      <path
         id="path36369"
         d="m -189.16271,-26.1714 162.716532,2e-6"
         style="fill:none;stroke:#000000;stroke-width:0.999213;stroke-linecap:butt;stroke-linejoin:miter;stroke-miterlimit:4;stroke-dasharray:none;stroke-opacity:1;marker-start:url(#marker18753)" />
      <path
         style="fill:none;stroke:#000000;stroke-width:0.999213;stroke-linecap:butt;stroke-linejoin:miter;stroke-miterlimit:4;stroke-dasharray:none;stroke-opacity:1;marker-start:url(#marker18753)"
         d="m -65.146965,-11.998167 38.976378,-2e-6"
         id="path36371" />
      <path
         id="path36373"
         d="m -136.01311,-19.084782 109.842523,-1e-6"
         style="fill:none;stroke:#000000;stroke-width:0.999213;stroke-linecap:butt;stroke-linejoin:miter;stroke-miterlimit:4;stroke-dasharray:none;stroke-opacity:1;marker-start:url(#marker18753)" />
    </g>
    <g
       transform="matrix(1.3588251,0,0,1.3588251,358.46063,878.55864)"
       id="g36375">
      <path
         style="fill:none;stroke:#000000;stroke-width:1px;stroke-linecap:butt;stroke-linejoin:miter;stroke-opacity:1;marker-start:url(#marker22529)"
         d="m -243.46986,-33.258016 217.299273,4e-6"
         id="path36377" />
      <path
         style="fill:none;stroke:#000000;stroke-width:1px;stroke-linecap:butt;stroke-linejoin:miter;stroke-opacity:1"
         d="M 2.1758694,-22.628091 H 211.23099"
         id="path36379" />
      <path
         style="fill:#ffeeaa;fill-opacity:1;stroke:#000000;stroke-width:1px;stroke-linecap:butt;stroke-linejoin:miter;stroke-opacity:1"
         d="m -26.170587,-40.911555 v 35.9999999 h 3.543306 c 3.543307,0 24.2669248,1.3e-6 24.2669248,-17.9999989 0,-18 -20.7236178,-18.000001 -24.2669248,-18.000001 0,0 -3.543306,0 -3.543306,0 z"
         id="path36381" />
      <path
         style="fill:none;stroke:#000000;stroke-width:0.999213;stroke-linecap:butt;stroke-linejoin:miter;stroke-miterlimit:4;stroke-dasharray:none;stroke-opacity:1;marker-start:url(#marker18753)"
         d="m -189.4383,-26.171402 162.992122,4e-6"
         id="path36383" />
      <path
         id="path36385"
         d="m -83.139091,-11.99817 56.968504,10e-7"
         style="fill:none;stroke:#000000;stroke-width:0.999213;stroke-linecap:butt;stroke-linejoin:miter;stroke-miterlimit:4;stroke-dasharray:none;stroke-opacity:1;marker-start:url(#marker18753)" />
      <path
         style="fill:none;stroke:#000000;stroke-width:0.999213;stroke-linecap:butt;stroke-linejoin:miter;stroke-miterlimit:4;stroke-dasharray:none;stroke-opacity:1;marker-start:url(#marker18753)"
         d="m -118.57216,-19.084784 92.401573,10e-7"
         id="path36387" />
    </g>
    <path
       id="path173858"
       style="fill:#ff0000;fill-opacity:0.117647;stroke:#ff0000;stroke-width:0.999213;stroke-linecap:round;stroke-linejoin:bevel;stroke-opacity:0.847059"
       d="m 435.82663,50.567238 a 7.086575,7.0865593 0 0 1 -7.08658,7.086559 7.086575,7.0865593 0 0 1 -7.08657,-7.086559 7.086575,7.0865593 0 0 1 7.08657,-7.086559 7.086575,7.0865593 0 0 1 7.08658,7.086559 z" />
    <path
       id="path173862"
       style="stroke:#ff0000;stroke-width:0.999213;stroke-linecap:round;stroke-linejoin:bevel;stroke-opacity:0.847059"
       d="m 435.82663,103.71618 a 7.086575,7.0868626 0 0 1 -7.08658,7.08686 7.086575,7.0868626 0 0 1 -7.08657,-7.08686 7.086575,7.0868626 0 0 1 7.08657,-7.086864 7.086575,7.0868626 0 0 1 7.08658,7.086864 z" />
    <path
       id="path36778"
       style="fill:#ff0000;fill-opacity:0.117647;stroke:#ff0000;stroke-width:0.999213;stroke-linecap:round;stroke-linejoin:bevel;stroke-opacity:0.847059"
       d="m 499.60623,50.567238 a 7.086575,7.0865593 0 0 1 -7.08658,7.086559 7.086575,7.0865593 0 0 1 -7.08657,-7.086559 7.086575,7.0865593 0 0 1 7.08657,-7.086559 7.086575,7.0865593 0 0 1 7.08658,7.086559 z" />
    <path
       id="path36780"
       style="fill:#ff0000;fill-opacity:0.117647;stroke:#ff0000;stroke-width:0.999213;stroke-linecap:round;stroke-linejoin:bevel;stroke-opacity:0.847059"
       d="m 559.84243,50.567238 a 7.086575,7.0865593 0 0 1 -7.08657,7.086559 7.086575,7.0865593 0 0 1 -7.08658,-7.086559 7.086575,7.0865593 0 0 1 7.08658,-7.086559 7.086575,7.0865593 0 0 1 7.08657,7.086559 z" />
    <path
       id="path36782"
       style="fill:#ff0000;fill-opacity:0.117647;stroke:#ff0000;stroke-width:0.999213;stroke-linecap:round;stroke-linejoin:bevel;stroke-opacity:0.847059"
       d="m 616.53537,50.567238 a 7.086575,7.0865593 0 0 1 -7.08658,7.086559 7.086575,7.0865593 0 0 1 -7.08657,-7.086559 7.086575,7.0865593 0 0 1 7.08657,-7.086559 7.086575,7.0865593 0 0 1 7.08658,7.086559 z" />
    <path
       id="path36784"
       style="fill:#ff0000;fill-opacity:0.117647;stroke:#ff0000;stroke-width:0.999213;stroke-linecap:round;stroke-linejoin:bevel;stroke-opacity:0.847059"
       d="m 435.82669,156.86624 a 7.086575,7.0865593 0 0 1 -7.08658,7.08656 7.086575,7.0865593 0 0 1 -7.08657,-7.08656 7.086575,7.0865593 0 0 1 7.08657,-7.08656 7.086575,7.0865593 0 0 1 7.08658,7.08656 z" />
    <path
       id="path36790"
       style="fill:#ff0000;fill-opacity:0.117647;stroke:#ff0000;stroke-width:0.999213;stroke-linecap:round;stroke-linejoin:bevel;stroke-opacity:0.847059"
       d="m 616.53543,156.86624 a 7.086575,7.0865593 0 0 1 -7.08658,7.08656 7.086575,7.0865593 0 0 1 -7.08657,-7.08656 7.086575,7.0865593 0 0 1 7.08657,-7.08656 7.086575,7.0865593 0 0 1 7.08658,7.08656 z" />
    <path
       id="path36792"
       style="fill:#ff0000;fill-opacity:0.117647;stroke:#ff0000;stroke-width:0.999213;stroke-linecap:round;stroke-linejoin:bevel;stroke-opacity:0.847059"
       d="m 435.82663,210.01624 a 7.086575,7.0865593 0 0 1 -7.08658,7.08655 7.086575,7.0865593 0 0 1 -7.08657,-7.08655 7.086575,7.0865593 0 0 1 7.08657,-7.08656 7.086575,7.0865593 0 0 1 7.08658,7.08656 z" />
    <path
       id="path36794"
       style="fill:#ff0000;fill-opacity:0.117647;stroke:#ff0000;stroke-width:0.999213;stroke-linecap:round;stroke-linejoin:bevel;stroke-opacity:0.847059"
       d="m 499.60617,210.01624 a 7.086575,7.0865593 0 0 1 -7.08658,7.08655 7.086575,7.0865593 0 0 1 -7.08657,-7.08655 7.086575,7.0865593 0 0 1 7.08657,-7.08656 7.086575,7.0865593 0 0 1 7.08658,7.08656 z" />
    <path
       id="path36796"
       style="fill:#ff0000;fill-opacity:0.117647;stroke:#ff0000;stroke-width:0.999213;stroke-linecap:round;stroke-linejoin:bevel;stroke-opacity:0.847059"
       d="m 559.84243,210.01624 a 7.086575,7.0865593 0 0 1 -7.08657,7.08655 7.086575,7.0865593 0 0 1 -7.08658,-7.08655 7.086575,7.0865593 0 0 1 7.08658,-7.08656 7.086575,7.0865593 0 0 1 7.08657,7.08656 z" />
    <path
       id="path36798"
       style="fill:#ff0000;fill-opacity:0.117647;stroke:#ff0000;stroke-width:0.999213;stroke-linecap:round;stroke-linejoin:bevel;stroke-opacity:0.847059"
       d="m 616.53537,210.01624 a 7.086575,7.0865593 0 0 1 -7.08658,7.08655 7.086575,7.0865593 0 0 1 -7.08657,-7.08655 7.086575,7.0865593 0 0 1 7.08657,-7.08656 7.086575,7.0865593 0 0 1 7.08658,7.08656 z" />
    <path
       id="path36800"
       style="fill:#ff0000;fill-opacity:0.117647;stroke:#ff0000;stroke-width:0.999213;stroke-linecap:round;stroke-linejoin:bevel;stroke-opacity:0.847059"
       d="m 435.82663,369.46423 a 7.086575,7.0865593 0 0 1 -7.08658,7.08656 7.086575,7.0865593 0 0 1 -7.08657,-7.08656 7.086575,7.0865593 0 0 1 7.08657,-7.08656 7.086575,7.0865593 0 0 1 7.08658,7.08656 z" />
    <path
       id="path36802"
       style="fill:#ff0000;fill-opacity:0.117647;stroke:#ff0000;stroke-width:0.999213;stroke-linecap:round;stroke-linejoin:bevel;stroke-opacity:0.847059"
       d="m 499.60617,369.46423 a 7.086575,7.0865593 0 0 1 -7.08658,7.08656 7.086575,7.0865593 0 0 1 -7.08657,-7.08656 7.086575,7.0865593 0 0 1 7.08657,-7.08656 7.086575,7.0865593 0 0 1 7.08658,7.08656 z" />
    <path
       id="path36804"
       style="fill:#ff0000;fill-opacity:0.117647;stroke:#ff0000;stroke-width:0.999213;stroke-linecap:round;stroke-linejoin:bevel;stroke-opacity:0.847059"
       d="m 559.84243,369.46423 a 7.086575,7.0865593 0 0 1 -7.08657,7.08656 7.086575,7.0865593 0 0 1 -7.08658,-7.08656 7.086575,7.0865593 0 0 1 7.08658,-7.08656 7.086575,7.0865593 0 0 1 7.08657,7.08656 z" />
    <path
       id="path36806"
       style="fill:#ff0000;fill-opacity:0.117647;stroke:#ff0000;stroke-width:0.999213;stroke-linecap:round;stroke-linejoin:bevel;stroke-opacity:0.847059"
       d="m 616.53543,422.61423 a 7.086575,7.0865593 0 0 1 -7.08658,7.08656 7.086575,7.0865593 0 0 1 -7.08657,-7.08656 7.086575,7.0865593 0 0 1 7.08657,-7.08656 7.086575,7.0865593 0 0 1 7.08658,7.08656 z" />
    <path
       id="path36808"
       style="fill:#ff0000;fill-opacity:0.117647;stroke:#ff0000;stroke-width:0.999213;stroke-linecap:round;stroke-linejoin:bevel;stroke-opacity:0.847059"
       d="m 435.82669,635.21228 a 7.086575,7.0865593 0 0 1 -7.08658,7.08656 7.086575,7.0865593 0 0 1 -7.08657,-7.08656 7.086575,7.0865593 0 0 1 7.08657,-7.08656 7.086575,7.0865593 0 0 1 7.08658,7.08656 z" />
    <path
       id="path36810"
       style="fill:#ff0000;fill-opacity:0.117647;stroke:#ff0000;stroke-width:0.999213;stroke-linecap:round;stroke-linejoin:bevel;stroke-opacity:0.847059"
       d="m 499.60623,635.21228 a 7.086575,7.0865593 0 0 1 -7.08658,7.08656 7.086575,7.0865593 0 0 1 -7.08657,-7.08656 7.086575,7.0865593 0 0 1 7.08657,-7.08656 7.086575,7.0865593 0 0 1 7.08658,7.08656 z" />
    <path
       id="path36812"
       style="fill:#ff0000;fill-opacity:0.117647;stroke:#ff0000;stroke-width:0.999213;stroke-linecap:round;stroke-linejoin:bevel;stroke-opacity:0.847059"
       d="m 559.8425,635.21228 a 7.086575,7.0865593 0 0 1 -7.08658,7.08656 7.086575,7.0865593 0 0 1 -7.08657,-7.08656 7.086575,7.0865593 0 0 1 7.08657,-7.08656 7.086575,7.0865593 0 0 1 7.08658,7.08656 z" />
    <path
       id="path36814"
       style="fill:#ff0000;fill-opacity:0.117647;stroke:#ff0000;stroke-width:0.999213;stroke-linecap:round;stroke-linejoin:bevel;stroke-opacity:0.847059"
       d="m 616.53543,635.21228 a 7.086575,7.0865593 0 0 1 -7.08658,7.08656 7.086575,7.0865593 0 0 1 -7.08657,-7.08656 7.086575,7.0865593 0 0 1 7.08657,-7.08656 7.086575,7.0865593 0 0 1 7.08658,7.08656 z" />
    <path
       id="path36816"
       style="fill:#ff0000;fill-opacity:0.117647;stroke:#ff0000;stroke-width:0.999213;stroke-linecap:round;stroke-linejoin:bevel;stroke-opacity:0.847059"
       d="m 435.82663,688.36224 a 7.086575,7.0865593 0 0 1 -7.08658,7.08656 7.086575,7.0865593 0 0 1 -7.08657,-7.08656 7.086575,7.0865593 0 0 1 7.08657,-7.08656 7.086575,7.0865593 0 0 1 7.08658,7.08656 z" />
    <path
       id="path36818"
       style="fill:#ff0000;fill-opacity:0.117647;stroke:#ff0000;stroke-width:0.999213;stroke-linecap:round;stroke-linejoin:bevel;stroke-opacity:0.847059"
       d="m 499.60617,688.36224 a 7.086575,7.0865593 0 0 1 -7.08658,7.08656 7.086575,7.0865593 0 0 1 -7.08657,-7.08656 7.086575,7.0865593 0 0 1 7.08657,-7.08656 7.086575,7.0865593 0 0 1 7.08658,7.08656 z" />
    <path
       id="path36820"
       style="fill:#ff0000;fill-opacity:0.117647;stroke:#ff0000;stroke-width:0.999213;stroke-linecap:round;stroke-linejoin:bevel;stroke-opacity:0.847059"
       d="m 559.84243,688.36224 a 7.086575,7.0865593 0 0 1 -7.08657,7.08656 7.086575,7.0865593 0 0 1 -7.08658,-7.08656 7.086575,7.0865593 0 0 1 7.08658,-7.08656 7.086575,7.0865593 0 0 1 7.08657,7.08656 z" />
    <path
       id="path36822"
       style="fill:#ff0000;fill-opacity:0.117647;stroke:#ff0000;stroke-width:0.999213;stroke-linecap:round;stroke-linejoin:bevel;stroke-opacity:0.847059"
       d="m 616.53537,688.36224 a 7.086575,7.0865593 0 0 1 -7.08658,7.08656 7.086575,7.0865593 0 0 1 -7.08657,-7.08656 7.086575,7.0865593 0 0 1 7.08657,-7.08656 7.086575,7.0865593 0 0 1 7.08658,7.08656 z" />
    <path
       id="path36824"
       style="fill:#ff0000;fill-opacity:0.117647;stroke:#ff0000;stroke-width:0.999213;stroke-linecap:round;stroke-linejoin:bevel;stroke-opacity:0.847059"
       d="m 435.82669,741.51227 a 7.086575,7.0865593 0 0 1 -7.08658,7.08656 7.086575,7.0865593 0 0 1 -7.08657,-7.08656 7.086575,7.0865593 0 0 1 7.08657,-7.08656 7.086575,7.0865593 0 0 1 7.08658,7.08656 z" />
    <path
       id="path36826"
       style="fill:#ff0000;fill-opacity:0.117647;stroke:#ff0000;stroke-width:0.999213;stroke-linecap:round;stroke-linejoin:bevel;stroke-opacity:0.847059"
       d="m 499.60623,741.51227 a 7.086575,7.0865593 0 0 1 -7.08658,7.08656 7.086575,7.0865593 0 0 1 -7.08657,-7.08656 7.086575,7.0865593 0 0 1 7.08657,-7.08656 7.086575,7.0865593 0 0 1 7.08658,7.08656 z" />
    <path
       id="path36828"
       style="fill:#ff0000;fill-opacity:0.117647;stroke:#ff0000;stroke-width:0.999213;stroke-linecap:round;stroke-linejoin:bevel;stroke-opacity:0.847059"
       d="m 559.8425,741.51227 a 7.086575,7.0865593 0 0 1 -7.08658,7.08656 7.086575,7.0865593 0 0 1 -7.08657,-7.08656 7.086575,7.0865593 0 0 1 7.08657,-7.08656 7.086575,7.0865593 0 0 1 7.08658,7.08656 z" />
    <path
       id="path36830"
       style="fill:#ff0000;fill-opacity:0.117647;stroke:#ff0000;stroke-width:0.999213;stroke-linecap:round;stroke-linejoin:bevel;stroke-opacity:0.847059"
       d="m 616.53543,741.51227 a 7.086575,7.0865593 0 0 1 -7.08658,7.08656 7.086575,7.0865593 0 0 1 -7.08657,-7.08656 7.086575,7.0865593 0 0 1 7.08657,-7.08656 7.086575,7.0865593 0 0 1 7.08658,7.08656 z" />
    <path
       id="path36832"
       style="fill:#ff0000;fill-opacity:0.117647;stroke:#ff0000;stroke-width:0.999213;stroke-linecap:round;stroke-linejoin:bevel;stroke-opacity:0.847059"
       d="m 435.82663,794.66125 a 7.086575,7.0865593 0 0 1 -7.08658,7.08656 7.086575,7.0865593 0 0 1 -7.08657,-7.08656 7.086575,7.0865593 0 0 1 7.08657,-7.08655 7.086575,7.0865593 0 0 1 7.08658,7.08655 z" />
    <path
       id="path36834"
       style="fill:#ff0000;fill-opacity:0.117647;stroke:#ff0000;stroke-width:0.999213;stroke-linecap:round;stroke-linejoin:bevel;stroke-opacity:0.847059"
       d="m 499.60617,794.66125 a 7.086575,7.0865593 0 0 1 -7.08658,7.08656 7.086575,7.0865593 0 0 1 -7.08657,-7.08656 7.086575,7.0865593 0 0 1 7.08657,-7.08655 7.086575,7.0865593 0 0 1 7.08658,7.08655 z" />
    <path
       id="path36836"
       style="fill:#ff0000;fill-opacity:0.117647;stroke:#ff0000;stroke-width:0.999213;stroke-linecap:round;stroke-linejoin:bevel;stroke-opacity:0.847059"
       d="m 559.84243,794.66125 a 7.086575,7.0865593 0 0 1 -7.08657,7.08656 7.086575,7.0865593 0 0 1 -7.08658,-7.08656 7.086575,7.0865593 0 0 1 7.08658,-7.08655 7.086575,7.0865593 0 0 1 7.08657,7.08655 z" />
    <path
       id="path36838"
       style="fill:#ff0000;fill-opacity:0.117647;stroke:#ff0000;stroke-width:0.999213;stroke-linecap:round;stroke-linejoin:bevel;stroke-opacity:0.847059"
       d="m 616.53537,794.66125 a 7.086575,7.0865593 0 0 1 -7.08658,7.08656 7.086575,7.0865593 0 0 1 -7.08657,-7.08656 7.086575,7.0865593 0 0 1 7.08657,-7.08655 7.086575,7.0865593 0 0 1 7.08658,7.08655 z" />
    <path
       id="path36840"
       style="fill:#ff0000;fill-opacity:0.117647;stroke:#ff0000;stroke-width:0.999213;stroke-linecap:round;stroke-linejoin:bevel;stroke-opacity:0.847059"
       d="m 435.82663,847.81128 a 7.086575,7.0865593 0 0 1 -7.08658,7.08656 7.086575,7.0865593 0 0 1 -7.08657,-7.08656 7.086575,7.0865593 0 0 1 7.08657,-7.08656 7.086575,7.0865593 0 0 1 7.08658,7.08656 z" />
    <path
       id="path36842"
       style="fill:#ff0000;fill-opacity:0.117647;stroke:#ff0000;stroke-width:0.999213;stroke-linecap:round;stroke-linejoin:bevel;stroke-opacity:0.847059"
       d="m 499.60617,847.81128 a 7.086575,7.0865593 0 0 1 -7.08658,7.08656 7.086575,7.0865593 0 0 1 -7.08657,-7.08656 7.086575,7.0865593 0 0 1 7.08657,-7.08656 7.086575,7.0865593 0 0 1 7.08658,7.08656 z" />
    <path
       id="path36844"
       style="fill:#ff0000;fill-opacity:0.117647;stroke:#ff0000;stroke-width:0.999213;stroke-linecap:round;stroke-linejoin:bevel;stroke-opacity:0.847059"
       d="m 559.84243,847.81128 a 7.086575,7.0865593 0 0 1 -7.08657,7.08656 7.086575,7.0865593 0 0 1 -7.08658,-7.08656 7.086575,7.0865593 0 0 1 7.08658,-7.08656 7.086575,7.0865593 0 0 1 7.08657,7.08656 z" />
    <path
       id="path36846"
       style="fill:#ff0000;fill-opacity:0.117647;stroke:#ff0000;stroke-width:0.999213;stroke-linecap:round;stroke-linejoin:bevel;stroke-opacity:0.847059"
       d="m 616.53537,847.81128 a 7.086575,7.0865593 0 0 1 -7.08658,7.08656 7.086575,7.0865593 0 0 1 -7.08657,-7.08656 7.086575,7.0865593 0 0 1 7.08657,-7.08656 7.086575,7.0865593 0 0 1 7.08658,7.08656 z" />
    <path
       id="path36848"
       style="fill:#ff0000;fill-opacity:0.117647;stroke:#ff0000;stroke-width:0.999213;stroke-linecap:round;stroke-linejoin:bevel;stroke-opacity:0.847059"
       d="m 499.60623,528.91327 a 7.086575,7.0865593 0 0 1 -7.08658,7.08656 7.086575,7.0865593 0 0 1 -7.08657,-7.08656 7.086575,7.0865593 0 0 1 7.08657,-7.08656 7.086575,7.0865593 0 0 1 7.08658,7.08656 z" />
    <path
       id="path36850"
       style="fill:#ff0000;fill-opacity:0.117647;stroke:#ff0000;stroke-width:0.999213;stroke-linecap:round;stroke-linejoin:bevel;stroke-opacity:0.847059"
       d="m 559.84243,528.91327 a 7.086575,7.0865593 0 0 1 -7.08657,7.08656 7.086575,7.0865593 0 0 1 -7.08658,-7.08656 7.086575,7.0865593 0 0 1 7.08658,-7.08656 7.086575,7.0865593 0 0 1 7.08657,7.08656 z" />
    <path
       id="path36852"
       style="fill:#ff0000;fill-opacity:0.117647;stroke:#ff0000;stroke-width:0.999213;stroke-linecap:round;stroke-linejoin:bevel;stroke-opacity:0.847059"
       d="m 616.53537,528.91327 a 7.086575,7.0865593 0 0 1 -7.08658,7.08656 7.086575,7.0865593 0 0 1 -7.08657,-7.08656 7.086575,7.0865593 0 0 1 7.08657,-7.08656 7.086575,7.0865593 0 0 1 7.08658,7.08656 z" />
    <path
       id="path36854"
       style="fill:#ff0000;fill-opacity:0.117647;stroke:#ff0000;stroke-width:0.999213;stroke-linecap:round;stroke-linejoin:bevel;stroke-opacity:0.847059"
       d="m 435.82663,582.06323 a 7.086575,7.0865593 0 0 1 -7.08658,7.08656 7.086575,7.0865593 0 0 1 -7.08657,-7.08656 7.086575,7.0865593 0 0 1 7.08657,-7.08656 7.086575,7.0865593 0 0 1 7.08658,7.08656 z" />
    <path
       id="path36856"
       style="fill:#ff0000;fill-opacity:0.117647;stroke:#ff0000;stroke-width:0.999213;stroke-linecap:round;stroke-linejoin:bevel;stroke-opacity:0.847059"
       d="m 499.60623,582.06323 a 7.086575,7.0865593 0 0 1 -7.08658,7.08656 7.086575,7.0865593 0 0 1 -7.08657,-7.08656 7.086575,7.0865593 0 0 1 7.08657,-7.08656 7.086575,7.0865593 0 0 1 7.08658,7.08656 z" />
    <path
       id="path36858"
       style="fill:#ff0000;fill-opacity:0.117647;stroke:#ff0000;stroke-width:0.999213;stroke-linecap:round;stroke-linejoin:bevel;stroke-opacity:0.847059"
       d="m 616.53537,582.06323 a 7.086575,7.0865593 0 0 1 -7.08658,7.08656 7.086575,7.0865593 0 0 1 -7.08657,-7.08656 7.086575,7.0865593 0 0 1 7.08657,-7.08656 7.086575,7.0865593 0 0 1 7.08658,7.08656 z" />
    <path
       id="path36860"
       style="fill:#ff0000;fill-opacity:0.117647;stroke:#ff0000;stroke-width:0.999213;stroke-linecap:round;stroke-linejoin:bevel;stroke-opacity:0.847059"
       d="m 616.53531,475.76425 a 7.086575,7.0865593 0 0 1 -7.08658,7.08656 7.086575,7.0865593 0 0 1 -7.08657,-7.08656 7.086575,7.0865593 0 0 1 7.08657,-7.08656 7.086575,7.0865593 0 0 1 7.08658,7.08656 z" />
    <path
       id="path36862"
       style="fill:#ff0000;fill-opacity:0.117647;stroke:#ff0000;stroke-width:0.999213;stroke-linecap:round;stroke-linejoin:bevel;stroke-opacity:0.847059"
       d="m 435.82663,422.61423 a 7.086575,7.0865593 0 0 1 -7.08658,7.08656 7.086575,7.0865593 0 0 1 -7.08657,-7.08656 7.086575,7.0865593 0 0 1 7.08657,-7.08656 7.086575,7.0865593 0 0 1 7.08658,7.08656 z" />
    <path
       id="path36864"
       style="fill:#ff0000;fill-opacity:0.117647;stroke:#ff0000;stroke-width:0.999213;stroke-linecap:round;stroke-linejoin:bevel;stroke-opacity:0.847059"
       d="m 499.60617,422.61423 a 7.086575,7.0865593 0 0 1 -7.08658,7.08656 7.086575,7.0865593 0 0 1 -7.08657,-7.08656 7.086575,7.0865593 0 0 1 7.08657,-7.08656 7.086575,7.0865593 0 0 1 7.08658,7.08656 z" />
    <path
       id="path36866"
       style="fill:#ff0000;fill-opacity:0.117647;stroke:#ff0000;stroke-width:0.999213;stroke-linecap:round;stroke-linejoin:bevel;stroke-opacity:0.847059"
       d="m 559.84243,422.61423 a 7.086575,7.0865593 0 0 1 -7.08657,7.08656 7.086575,7.0865593 0 0 1 -7.08658,-7.08656 7.086575,7.0865593 0 0 1 7.08658,-7.08656 7.086575,7.0865593 0 0 1 7.08657,7.08656 z" />
    <path
       id="path36868"
       style="fill:#ff0000;fill-opacity:0.117647;stroke:#ff0000;stroke-width:0.999213;stroke-linecap:round;stroke-linejoin:bevel;stroke-opacity:0.847059"
       d="m 435.82663,263.16522 a 7.086575,7.0865593 0 0 1 -7.08658,7.08656 7.086575,7.0865593 0 0 1 -7.08657,-7.08656 7.086575,7.0865593 0 0 1 7.08657,-7.08656 7.086575,7.0865593 0 0 1 7.08658,7.08656 z" />
    <path
       id="path36870"
       style="fill:#ff0000;fill-opacity:0.117647;stroke:#ff0000;stroke-width:0.999213;stroke-linecap:round;stroke-linejoin:bevel;stroke-opacity:0.847059"
       d="m 435.82663,316.31522 a 7.086575,7.0865593 0 0 1 -7.08658,7.08656 7.086575,7.0865593 0 0 1 -7.08657,-7.08656 7.086575,7.0865593 0 0 1 7.08657,-7.08656 7.086575,7.0865593 0 0 1 7.08658,7.08656 z" />
    <path
       id="path36872"
       style="fill:#ff0000;fill-opacity:0.117647;stroke:#ff0000;stroke-width:0.999213;stroke-linecap:round;stroke-linejoin:bevel;stroke-opacity:0.847059"
       d="m 559.84243,263.16522 a 7.086575,7.0865593 0 0 1 -7.08657,7.08656 7.086575,7.0865593 0 0 1 -7.08658,-7.08656 7.086575,7.0865593 0 0 1 7.08658,-7.08656 7.086575,7.0865593 0 0 1 7.08657,7.08656 z" />
    <path
       id="path36874"
       style="fill:#ff0000;fill-opacity:0.117647;stroke:#ff0000;stroke-width:0.999213;stroke-linecap:round;stroke-linejoin:bevel;stroke-opacity:0.847059"
       d="m 559.84243,316.31522 a 7.086575,7.0865593 0 0 1 -7.08657,7.08656 7.086575,7.0865593 0 0 1 -7.08658,-7.08656 7.086575,7.0865593 0 0 1 7.08658,-7.08656 7.086575,7.0865593 0 0 1 7.08657,7.08656 z" />
    <path
       id="path36876"
       style="fill:#ff0000;fill-opacity:0.117647;stroke:#ff0000;stroke-width:0.999213;stroke-linecap:round;stroke-linejoin:bevel;stroke-opacity:0.847059"
       d="m 616.53537,316.31522 a 7.086575,7.0865593 0 0 1 -7.08658,7.08656 7.086575,7.0865593 0 0 1 -7.08657,-7.08656 7.086575,7.0865593 0 0 1 7.08657,-7.08656 7.086575,7.0865593 0 0 1 7.08658,7.08656 z" />
    <path
       id="path36878"
       style="fill:#ff0000;fill-opacity:0.117647;stroke:#ff0000;stroke-width:0.999213;stroke-linecap:round;stroke-linejoin:bevel;stroke-opacity:0.847059"
       d="m 499.60623,103.71623 a 7.086575,7.0865593 0 0 1 -7.08658,7.08656 7.086575,7.0865593 0 0 1 -7.08657,-7.08656 7.086575,7.0865593 0 0 1 7.08657,-7.086557 7.086575,7.0865593 0 0 1 7.08658,7.086557 z" />
    <path
       id="path36880"
       style="fill:#ff0000;fill-opacity:0.117647;stroke:#ff0000;stroke-width:0.999213;stroke-linecap:round;stroke-linejoin:bevel;stroke-opacity:0.847059"
       d="m 559.84243,103.71623 a 7.086575,7.0865593 0 0 1 -7.08657,7.08656 7.086575,7.0865593 0 0 1 -7.08658,-7.08656 7.086575,7.0865593 0 0 1 7.08658,-7.086557 7.086575,7.0865593 0 0 1 7.08657,7.086557 z" />
    <path
       id="path36882"
       style="stroke:#ff0000;stroke-width:0.999213;stroke-linecap:round;stroke-linejoin:bevel;stroke-opacity:0.847059"
       d="m 616.53537,103.71618 a 7.086575,7.0868626 0 0 1 -7.08658,7.08686 7.086575,7.0868626 0 0 1 -7.08657,-7.08686 7.086575,7.0868626 0 0 1 7.08657,-7.086864 7.086575,7.0868626 0 0 1 7.08658,7.086864 z" />
    <path
       id="path36884"
       style="stroke:#ff0000;stroke-width:0.999213;stroke-linecap:round;stroke-linejoin:bevel;stroke-opacity:0.847059"
       d="m 499.60623,156.86618 a 7.086575,7.0868626 0 0 1 -7.08658,7.08686 7.086575,7.0868626 0 0 1 -7.08657,-7.08686 7.086575,7.0868626 0 0 1 7.08657,-7.08686 7.086575,7.0868626 0 0 1 7.08658,7.08686 z" />
    <path
       id="path36886"
       style="stroke:#ff0000;stroke-width:0.999213;stroke-linecap:round;stroke-linejoin:bevel;stroke-opacity:0.847059"
       d="m 559.8425,156.86618 a 7.086575,7.0868626 0 0 1 -7.08658,7.08686 7.086575,7.0868626 0 0 1 -7.08657,-7.08686 7.086575,7.0868626 0 0 1 7.08657,-7.08686 7.086575,7.0868626 0 0 1 7.08658,7.08686 z" />
    <path
       id="path36888"
       style="stroke:#ff0000;stroke-width:0.999213;stroke-linecap:round;stroke-linejoin:bevel;stroke-opacity:0.847059"
       d="m 616.53543,263.16516 a 7.086575,7.0868626 0 0 1 -7.08658,7.08686 7.086575,7.0868626 0 0 1 -7.08657,-7.08686 7.086575,7.0868626 0 0 1 7.08657,-7.08686 7.086575,7.0868626 0 0 1 7.08658,7.08686 z" />
    <path
       id="path36890"
       style="stroke:#ff0000;stroke-width:0.999213;stroke-linecap:round;stroke-linejoin:bevel;stroke-opacity:0.847059"
       d="m 499.60623,263.16516 a 7.086575,7.0868626 0 0 1 -7.08658,7.08686 7.086575,7.0868626 0 0 1 -7.08657,-7.08686 7.086575,7.0868626 0 0 1 7.08657,-7.08686 7.086575,7.0868626 0 0 1 7.08658,7.08686 z" />
    <path
       id="path36892"
       style="stroke:#ff0000;stroke-width:0.999213;stroke-linecap:round;stroke-linejoin:bevel;stroke-opacity:0.847059"
       d="m 499.60617,316.31519 a 7.086575,7.0868626 0 0 1 -7.08658,7.08686 7.086575,7.0868626 0 0 1 -7.08657,-7.08686 7.086575,7.0868626 0 0 1 7.08657,-7.08687 7.086575,7.0868626 0 0 1 7.08658,7.08687 z" />
    <path
       id="path36894"
       style="stroke:#ff0000;stroke-width:0.999213;stroke-linecap:round;stroke-linejoin:bevel;stroke-opacity:0.847059"
       d="m 616.53537,369.46518 a 7.086575,7.0868626 0 0 1 -7.08658,7.08686 7.086575,7.0868626 0 0 1 -7.08657,-7.08686 7.086575,7.0868626 0 0 1 7.08657,-7.08686 7.086575,7.0868626 0 0 1 7.08658,7.08686 z" />
    <path
       id="path36896"
       style="stroke:#ff0000;stroke-width:0.999213;stroke-linecap:round;stroke-linejoin:bevel;stroke-opacity:0.847059"
       d="m 559.84243,475.76419 a 7.086575,7.0868626 0 0 1 -7.08657,7.08686 7.086575,7.0868626 0 0 1 -7.08658,-7.08686 7.086575,7.0868626 0 0 1 7.08658,-7.08686 7.086575,7.0868626 0 0 1 7.08657,7.08686 z" />
    <path
       id="path36898"
       style="stroke:#ff0000;stroke-width:0.999213;stroke-linecap:round;stroke-linejoin:bevel;stroke-opacity:0.847059"
       d="m 435.82663,475.76419 a 7.086575,7.0868626 0 0 1 -7.08658,7.08686 7.086575,7.0868626 0 0 1 -7.08657,-7.08686 7.086575,7.0868626 0 0 1 7.08657,-7.08686 7.086575,7.0868626 0 0 1 7.08658,7.08686 z" />
    <path
       id="path36900"
       style="stroke:#ff0000;stroke-width:0.999213;stroke-linecap:round;stroke-linejoin:bevel;stroke-opacity:0.847059"
       d="m 435.82669,528.91321 a 7.086575,7.0868626 0 0 1 -7.08658,7.08686 7.086575,7.0868626 0 0 1 -7.08657,-7.08686 7.086575,7.0868626 0 0 1 7.08657,-7.08686 7.086575,7.0868626 0 0 1 7.08658,7.08686 z" />
    <path
       id="path36902"
       style="stroke:#ff0000;stroke-width:0.999213;stroke-linecap:round;stroke-linejoin:bevel;stroke-opacity:0.847059"
       d="m 559.84243,582.06317 a 7.086575,7.0868626 0 0 1 -7.08657,7.08686 7.086575,7.0868626 0 0 1 -7.08658,-7.08686 7.086575,7.0868626 0 0 1 7.08658,-7.08686 7.086575,7.0868626 0 0 1 7.08657,7.08686 z" />
    <g
       transform="matrix(1.3588251,0,0,1.3588251,-23.37948,138.71299)"
       id="g6686">
      <g
         aria-label="MGA"
         id="text6631"
         style="line-height:0%;font-family:Iwona;-inkscape-font-specification:Iwona;text-align:center;text-anchor:middle">
        <path
           d="m 329.4846,672.29132 -0.48,-8.4 h -0.792 l -3.372,7.092 -3.384,-7.092 h -0.792 l -0.48,8.4 h 0.552 l 0.384,-6.804 3.252,6.804 h 0.444 l 3.288,-6.888 0.396,6.888 z"
           style="font-size:12px;line-height:1.25"
           id="path564" />
        <path
           d="m 337.98058,672.29132 v -3.528 h -0.984 v 2.316 c -0.624,0.504 -1.392,0.78 -2.196,0.78 -1.908,0 -2.7,-1.644 -2.7,-3.768 0,-2.124 0.792,-3.768 2.7,-3.768 1.128,0 2.196,0.444 2.988,1.248 v -0.552 c -0.792,-0.804 -1.86,-1.248 -2.988,-1.248 -2.472,0 -3.876,1.752 -3.876,4.32 0,2.568 1.404,4.32 3.876,4.32 0.804,0 1.572,-0.276 2.196,-0.78 v 0.66 z"
           style="font-size:12px;line-height:1.25"
           id="path566" />
        <path
           d="m 346.26057,672.29132 -3.048,-8.4 h -1.044 l -3.108,8.4 h 0.588 l 1.092,-2.94 h 3.408 l 1.068,2.94 z m -2.316,-3.492 h -3 l 1.512,-4.104 z"
           style="font-size:12px;line-height:1.25"
           id="path568" />
      </g>
      <g
         transform="translate(-56.29921,372.71654)"
         id="g6635">
        <path
           id="path6637"
           d="m 396.8504,265.74802 h -14.17322 v 10.62992 l 7.08661,7.08661 7.08661,-7.08661 z"
           style="fill:#d5f6ff;fill-opacity:1;stroke:#000000;stroke-width:1px;stroke-linecap:butt;stroke-linejoin:miter;stroke-opacity:1" />
      </g>
    </g>
    <g
       transform="matrix(1.3588251,0,0,1.3588251,-32.49018,138.71299)"
       id="g6692">
      <g
         aria-label="MGR"
         id="text6641"
         style="line-height:0%;font-family:Iwona;-inkscape-font-specification:Iwona;text-align:center;text-anchor:middle">
        <path
           d="m 382.43019,672.29132 -0.48,-8.4 h -0.792 l -3.372,7.092 -3.384,-7.092 h -0.792 l -0.48,8.4 h 0.552 l 0.384,-6.804 3.252,6.804 h 0.444 l 3.288,-6.888 0.396,6.888 z"
           style="font-size:12px;line-height:1.25"
           id="path571" />
        <path
           d="m 390.92618,672.29132 v -3.528 h -0.984 v 2.316 c -0.624,0.504 -1.392,0.78 -2.196,0.78 -1.908,0 -2.7,-1.644 -2.7,-3.768 0,-2.124 0.792,-3.768 2.7,-3.768 1.128,0 2.196,0.444 2.988,1.248 v -0.552 c -0.792,-0.804 -1.86,-1.248 -2.988,-1.248 -2.472,0 -3.876,1.752 -3.876,4.32 0,2.568 1.404,4.32 3.876,4.32 0.804,0 1.572,-0.276 2.196,-0.78 v 0.66 z"
           style="font-size:12px;line-height:1.25"
           id="path573" />
        <path
           d="m 399.61416,672.29132 -2.556,-3.804 c 1.308,-0.252 2.208,-0.972 2.208,-2.316 0,-1.692 -1.452,-2.4 -3.336,-2.4 -0.672,0 -1.344,0.036 -2.004,0.12 h -0.96 v 8.4 h 0.984 v -3.9 c 0.648,0.12 1.32,0.192 1.98,0.192 l 2.508,3.708 z m -1.524,-6.12 c 0,1.092 -1.02,1.86 -2.16,1.86 -0.66,0 -1.332,-0.072 -1.98,-0.192 v -3.396 c 0.66,-0.084 1.32,-0.12 1.98,-0.12 1.14,0 2.16,0.768 2.16,1.848 z"
           style="font-size:12px;line-height:1.25"
           id="path575" />
      </g>
      <g
         id="g6645"
         transform="translate(-3.14961,372.71654)">
        <path
           style="fill:#d5f6ff;fill-opacity:1;stroke:#000000;stroke-width:1px;stroke-linecap:butt;stroke-linejoin:miter;stroke-opacity:1"
           d="m 396.8504,265.74802 h -14.17322 v 10.62992 l 7.08661,7.08661 7.08661,-7.08661 z"
           id="path6647" />
      </g>
    </g>
    <g
       transform="matrix(1.3588251,0,0,1.3588251,-44.66228,138.71299)"
       id="g6698">
      <g
         aria-label="MDA"
         id="text6651"
         style="line-height:0%;font-family:Iwona;-inkscape-font-specification:Iwona;text-align:center;text-anchor:middle">
        <path
           d="m 435.80782,672.29132 -0.48,-8.4 h -0.792 l -3.372,7.092 -3.384,-7.092 h -0.792 l -0.48,8.4 h 0.552 l 0.384,-6.804 3.252,6.804 h 0.444 l 3.288,-6.888 0.396,6.888 z"
           style="font-size:12px;line-height:1.25"
           id="path578" />
        <path
           d="m 444.78381,668.09132 c 0,-2.568 -1.404,-4.32 -3.876,-4.32 -0.744,0 -1.488,0.036 -2.22,0.12 h -0.96 v 8.4 h 0.96 c 0.732,0.084 1.476,0.12 2.22,0.12 2.472,0 3.876,-1.752 3.876,-4.32 z m -1.176,0 c 0,1.908 -0.972,3.768 -2.7,3.768 -0.732,0 -1.464,-0.036 -2.196,-0.12 v -7.296 c 0.732,-0.084 1.464,-0.12 2.196,-0.12 1.728,0 2.7,1.86 2.7,3.768 z"
           style="font-size:12px;line-height:1.25"
           id="path580" />
        <path
           d="m 452.53579,672.29132 -3.048,-8.4 h -1.044 l -3.108,8.4 h 0.588 l 1.092,-2.94 h 3.408 l 1.068,2.94 z m -2.316,-3.492 h -3 l 1.512,-4.104 z"
           style="font-size:12px;line-height:1.25"
           id="path582" />
      </g>
      <path
         style="fill:#d5f6ff;fill-opacity:1;stroke:#000000;stroke-width:1px;stroke-linecap:butt;stroke-linejoin:miter;stroke-opacity:1"
         d="m 446.8504,638.46456 h -14.17322 v 10.62992 l 7.08661,7.08661 7.08661,-7.08661 z"
         id="path6657" />
    </g>
    <g
       transform="matrix(1.3588251,0,0,1.3588251,-60.00308,138.71299)"
       id="g6703">
      <g
         aria-label="MDR"
         id="text6661"
         style="line-height:0%;font-family:Iwona;-inkscape-font-specification:Iwona;text-align:center;text-anchor:middle">
        <path
           d="m 488.60942,672.29132 -0.48,-8.4 h -0.792 l -3.372,7.092 -3.384,-7.092 h -0.792 l -0.48,8.4 h 0.552 l 0.384,-6.804 3.252,6.804 h 0.444 l 3.288,-6.888 0.396,6.888 z"
           style="font-size:12px;line-height:1.25"
           id="path585" />
        <path
           d="m 497.5854,668.09132 c 0,-2.568 -1.404,-4.32 -3.876,-4.32 -0.744,0 -1.488,0.036 -2.22,0.12 h -0.96 v 8.4 h 0.96 c 0.732,0.084 1.476,0.12 2.22,0.12 2.472,0 3.876,-1.752 3.876,-4.32 z m -1.176,0 c 0,1.908 -0.972,3.768 -2.7,3.768 -0.732,0 -1.464,-0.036 -2.196,-0.12 v -7.296 c 0.732,-0.084 1.464,-0.12 2.196,-0.12 1.728,0 2.7,1.86 2.7,3.768 z"
           style="font-size:12px;line-height:1.25"
           id="path587" />
        <path
           d="m 506.03339,672.29132 -2.556,-3.804 c 1.308,-0.252 2.208,-0.972 2.208,-2.316 0,-1.692 -1.452,-2.4 -3.336,-2.4 -0.672,0 -1.344,0.036 -2.004,0.12 h -0.96 v 8.4 h 0.984 v -3.9 c 0.648,0.12 1.32,0.192 1.98,0.192 l 2.508,3.708 z m -1.524,-6.12 c 0,1.092 -1.02,1.86 -2.16,1.86 -0.66,0 -1.332,-0.072 -1.98,-0.192 v -3.396 c 0.66,-0.084 1.32,-0.12 1.98,-0.12 1.14,0 2.16,0.768 2.16,1.848 z"
           style="font-size:12px;line-height:1.25"
           id="path589" />
      </g>
      <g
         id="g6665"
         transform="translate(103.1496,372.71654)">
        <path
           style="fill:#d5f6ff;fill-opacity:1;stroke:#000000;stroke-width:1px;stroke-linecap:butt;stroke-linejoin:miter;stroke-opacity:1"
           d="m 396.8504,265.74802 h -14.17322 v 10.62992 l 7.08661,7.08661 7.08661,-7.08661 z"
           id="path6667" />
      </g>
    </g>
    <path
       id="ellipse437"
       style="fill:#ff0000;fill-opacity:0.117647;stroke:#ff0000;stroke-width:0.999213;stroke-linecap:round;stroke-linejoin:bevel;stroke-opacity:0.847059"
       d="m 499.60617,475.76419 a 7.086575,7.0865593 0 0 1 -7.08658,7.08656 7.086575,7.0865593 0 0 1 -7.08657,-7.08656 7.086575,7.0865593 0 0 1 7.08657,-7.08656 7.086575,7.0865593 0 0 1 7.08658,7.08656 z" />
  </g>
</svg>
