<?xml version="1.0" encoding="UTF-8" standalone="no"?>
<!-- Created with Inkscape (http://www.inkscape.org/) -->

<svg
   width="188.17068mm"
   height="219.47424mm"
   viewBox="0 0 666.74653 777.66466"
   id="svg11099"
   version="1.1"
   xmlns="http://www.w3.org/2000/svg"
   xmlns:svg="http://www.w3.org/2000/svg"
   xmlns:rdf="http://www.w3.org/1999/02/22-rdf-syntax-ns#"
   xmlns:cc="http://creativecommons.org/ns#"
   xmlns:dc="http://purl.org/dc/elements/1.1/">
  <defs
     id="defs11101">
    <marker
       style="overflow:visible"
       id="marker22529-3"
       refX="0"
       refY="0"
       orient="auto">
      <path
         transform="matrix(0.4,0,0,0.4,2.96,0.4)"
         style="fill-rule:evenodd;stroke:#000000;stroke-width:1.00000003pt;marker-start:none;marker-end:none"
         d="m -2.5,-1 c 0,2.76 -2.24,5 -5,5 -2.76,0 -5,-2.24 -5,-5 0,-2.76 2.24,-5 5,-5 2.76,0 5,2.24 5,5 z"
         id="path22531-0" />
    </marker>
  </defs>
  <metadata
     id="metadata11104">
    <rdf:RDF>
      <cc:Work
         rdf:about="">
        <dc:format>image/svg+xml</dc:format>
        <dc:type
           rdf:resource="http://purl.org/dc/dcmitype/StillImage" />
        <dc:title />
      </cc:Work>
    </rdf:RDF>
  </metadata>
  <g
     id="layer1"
     transform="translate(-21.259841,153.97791)">
    <path
       id="rect74971"
       style="fill:#ffaaaa"
       d="m 524.50898,172.07152 h 7.08678 c 11.77793,0 21.2598,9.48187 21.2598,21.2598 v 7.08661 c 0,11.77793 -9.48187,21.2598 -21.2598,21.2598 h -7.08678 c -11.77793,0 -21.2598,-9.48187 -21.2598,-21.2598 v -7.08661 c 0,-11.77793 9.48187,-21.2598 21.2598,-21.2598 z" />
    <path
       id="rect74979"
       style="fill:#afdde9"
       d="m 74.409405,172.07108 h 3.642975 c 11.777929,0 21.2598,9.48187 21.2598,21.2598 v 7.08712 c 0,11.77793 -9.481871,21.2598 -21.2598,21.2598 h -3.642975 c -11.777929,0 -21.2598,-9.48187 -21.2598,-21.2598 v -7.08712 c 0,-11.77793 9.481871,-21.2598 21.2598,-21.2598 z" />
    <path
       id="rect74969"
       style="fill:#afdde9"
       d="m 148.81886,65.771858 h 78.05244 c 11.77793,0 21.2598,9.481873 21.2598,21.259804 v 60.236808 c 0,11.77793 -9.48187,21.2598 -21.2598,21.2598 h -78.05244 c -11.77793,0 -21.2598,-9.48187 -21.2598,-21.2598 V 87.031662 c 0,-11.777931 9.48187,-21.259804 21.2598,-21.259804 z" />
    <path
       id="rect52396"
       style="fill:#ffaaaa"
       d="m 464.17304,278.53436 h 7.08681 c 11.77793,0 21.2598,9.48187 21.2598,21.2598 v 7.0866 c 0,11.77793 -9.48187,21.2598 -21.2598,21.2598 h -7.08681 c -11.77793,0 -21.2598,-9.48187 -21.2598,-21.2598 v -7.0866 c 0,-11.77793 9.48187,-21.2598 21.2598,-21.2598 z" />
    <path
       id="rect52398"
       style="fill:#ffaaaa"
       d="m 584.64536,225.38451 h 7.08678 c 11.77793,0 21.25981,9.48187 21.25981,21.2598 v 7.08679 c 0,11.77793 -9.48188,21.25981 -21.25981,21.25981 h -7.08678 c -11.77793,0 -21.2598,-9.48188 -21.2598,-21.25981 v -7.08679 c 0,-11.77793 9.48187,-21.2598 21.2598,-21.2598 z" />
    <path
       id="rect52400"
       style="fill:#ffaaaa"
       d="m 524.40937,384.83368 h 7.08665 c 11.77793,0 21.25981,9.48187 21.25981,21.2598 v 7.0865 c 0,11.77793 -9.48188,21.2598 -21.25981,21.2598 h -7.08665 c -11.77793,0 -21.2598,-9.48187 -21.2598,-21.2598 v -7.0865 c 0,-11.77793 9.48187,-21.2598 21.2598,-21.2598 z" />
    <path
       id="rect52402"
       style="fill:#ffaaaa"
       d="m 644.88169,331.68378 h 7.08664 c 11.77794,0 21.25981,9.48187 21.25981,21.2598 v 7.08641 c 0,11.77793 -9.48187,21.2598 -21.25981,21.2598 h -7.08664 c -11.77793,0 -21.2598,-9.48187 -21.2598,-21.2598 v -7.08641 c 0,-11.77793 9.48187,-21.2598 21.2598,-21.2598 z" />
    <path
       id="rect52406"
       style="fill:#ffaaaa"
       d="m 644.9813,65.773163 h 7.08664 c 11.77793,0 21.25981,9.481871 21.25981,21.259802 v 7.086502 c 0,11.777933 -9.48188,21.259803 -21.25981,21.259803 h -7.08664 c -11.77793,0 -21.2598,-9.48187 -21.2598,-21.259803 v -7.086502 c 0,-11.777931 9.48187,-21.259802 21.2598,-21.259802 z" />
    <path
       id="rect52408"
       style="fill:#ffaaaa"
       d="m 464.27265,65.772186 h 6.98723 c 11.77794,0 21.25981,9.481872 21.25981,21.259802 v 60.235972 c 0,11.77793 -9.48187,21.2598 -21.25981,21.2598 h -6.98723 c -11.77793,0 -21.2598,-9.48187 -21.2598,-21.2598 V 87.031988 c 0,-11.77793 9.48187,-21.259802 21.2598,-21.259802 z" />
    <path
       id="rect52410"
       style="fill:#ffaaaa"
       d="m 524.50898,12.623754 h 61.17261 c 11.77794,0 21.25981,9.481871 21.25981,21.259801 v 7.08651 c 0,11.77793 -9.48187,21.259802 -21.25981,21.259802 h -61.17261 c -11.77793,0 -21.2598,-9.481872 -21.2598,-21.259802 v -7.08651 c 0,-11.77793 9.48187,-21.259801 21.2598,-21.259801 z" />
    <path
       id="rect52412"
       style="fill:#ffaaaa"
       d="m 644.9813,172.07249 h 7.08689 c 11.77793,0 21.2598,9.48188 21.2598,21.25981 v 7.08688 c 0,11.77793 -9.48187,21.2598 -21.2598,21.2598 h -7.08689 c -11.77793,0 -21.2598,-9.48187 -21.2598,-21.2598 v -7.08688 c 0,-11.77793 9.48187,-21.25981 21.2598,-21.25981 z" />
    <path
       id="rect52414"
       style="fill:#ffaaaa"
       d="m 584.74497,118.92306 h 7.08678 c 11.77793,0 21.25981,9.48187 21.25981,21.2598 v 7.08661 c 0,11.77793 -9.48188,21.2598 -21.25981,21.2598 h -7.08678 c -11.77793,0 -21.2598,-9.48187 -21.2598,-21.2598 v -7.08661 c 0,-11.77793 9.48187,-21.2598 21.2598,-21.2598 z" />
    <path
       id="rect52418"
       style="fill:#ffaaaa"
       d="m 74.409407,225.22067 h 3.642894 c 11.777931,0 21.259802,9.48187 21.259802,21.2598 v 60.23686 c 0,11.77793 -9.481871,21.2598 -21.259802,21.2598 h -3.642894 c -11.777931,0 -21.259802,-9.48187 -21.259802,-21.2598 v -60.23686 c 0,-11.77793 9.481871,-21.2598 21.259802,-21.2598 z" />
    <path
       id="rect52420"
       style="fill:#ffaaaa"
       d="m 148.81886,331.5199 h 3.6429 c 11.77793,0 21.2598,9.48187 21.2598,21.2598 v 60.23693 c 0,11.77793 -9.48187,21.25981 -21.2598,21.25981 h -3.6429 c -11.77793,0 -21.2598,-9.48188 -21.2598,-21.25981 V 352.7797 c 0,-11.77793 9.48187,-21.2598 21.2598,-21.2598 z" />
    <path
       id="rect52422"
       style="fill:#ffaaaa"
       d="m 223.22831,225.22067 h 3.64287 c 11.77793,0 21.2598,9.48187 21.2598,21.2598 v 7.08675 c 0,11.77793 -9.48187,21.2598 -21.2598,21.2598 h -3.64287 c -11.77793,0 -21.2598,-9.48187 -21.2598,-21.2598 v -7.08675 c 0,-11.77793 9.48187,-21.2598 21.2598,-21.2598 z" />
    <path
       id="rect52424"
       style="fill:#ffaaaa"
       d="m 297.63776,278.3703 h 3.64288 c 11.77793,0 21.2598,9.48187 21.2598,21.2598 v 7.08698 c 0,11.77793 -9.48187,21.2598 -21.2598,21.2598 h -3.64288 c -11.77793,0 -21.2598,-9.48187 -21.2598,-21.2598 v -7.08698 c 0,-11.77793 9.48187,-21.2598 21.2598,-21.2598 z" />
    <path
       id="rect52426"
       style="fill:#ffaaaa"
       d="m 148.81886,331.5199 h 78.0524 c 11.77793,0 21.25981,9.48187 21.25981,21.2598 v 7.08727 c 0,11.77793 -9.48188,21.2598 -21.25981,21.2598 h -78.0524 c -11.77793,0 -21.2598,-9.48187 -21.2598,-21.2598 v -7.08727 c 0,-11.77793 9.48187,-21.2598 21.2598,-21.2598 z" />
    <path
       id="rect52428"
       style="fill:#ffaaaa"
       d="m 297.63776,384.66949 h 3.64288 c 11.77793,0 21.2598,9.48188 21.2598,21.25981 v 7.08711 c 0,11.77793 -9.48187,21.2598 -21.2598,21.2598 h -3.64288 c -11.77793,0 -21.2598,-9.48187 -21.2598,-21.2598 v -7.08711 c 0,-11.77793 9.48187,-21.25981 21.2598,-21.25981 z" />
    <path
       id="rect52430"
       style="fill:#afdde9"
       d="m 74.409407,331.5199 h 3.642894 c 11.777931,0 21.259802,9.48187 21.259802,21.2598 v 60.23748 c 0,11.77793 -9.481871,21.25981 -21.259802,21.25981 h -3.642894 c -11.777931,0 -21.259802,-9.48188 -21.259802,-21.25981 V 352.7797 c 0,-11.77793 9.481871,-21.2598 21.259802,-21.2598 z" />
    <path
       id="rect52432"
       style="fill:#afdde9"
       d="m 223.22831,384.66949 h 3.64287 c 11.77793,0 21.2598,9.48188 21.2598,21.25981 v 7.08708 c 0,11.77793 -9.48187,21.2598 -21.2598,21.2598 h -3.64287 c -11.77793,0 -21.2598,-9.48187 -21.2598,-21.2598 v -7.08708 c 0,-11.77793 9.48187,-21.25981 21.2598,-21.25981 z" />
    <path
       id="rect52434"
       style="fill:#afdde9"
       d="m 297.63776,331.5199 h 3.643 c 11.77793,0 21.25981,9.48187 21.25981,21.2598 v 7.08727 c 0,11.77793 -9.48188,21.2598 -21.25981,21.2598 h -3.643 c -11.77793,0 -21.2598,-9.48187 -21.2598,-21.2598 v -7.08727 c 0,-11.77793 9.48187,-21.2598 21.2598,-21.2598 z" />
    <path
       id="rect52436"
       style="fill:#afdde9"
       d="m 148.81886,278.3703 h 78.0524 c 11.77793,0 21.25981,9.48187 21.25981,21.2598 v 7.08747 c 0,11.77793 -9.48188,21.2598 -21.25981,21.2598 h -78.0524 c -11.77793,0 -21.2598,-9.48187 -21.2598,-21.2598 v -7.08747 c 0,-11.77793 9.48187,-21.2598 21.2598,-21.2598 z" />
    <path
       id="rect52438"
       style="fill:#afdde9"
       d="m 297.63776,225.22067 h 3.643 c 11.77793,0 21.25981,9.48187 21.25981,21.2598 v 7.08724 c 0,11.77793 -9.48188,21.2598 -21.25981,21.2598 h -3.643 c -11.77793,0 -21.2598,-9.48187 -21.2598,-21.2598 v -7.08724 c 0,-11.77793 9.48187,-21.2598 21.2598,-21.2598 z" />
    <path
       id="rect52440"
       style="fill:#afdde9"
       d="m 148.81886,225.22067 h 3.6429 c 11.77793,0 21.2598,9.48187 21.2598,21.2598 v 60.23686 c 0,11.77793 -9.48187,21.2598 -21.2598,21.2598 h -3.6429 c -11.77793,0 -21.2598,-9.48187 -21.2598,-21.2598 v -60.23686 c 0,-11.77793 9.48187,-21.2598 21.2598,-21.2598 z" />
    <path
       id="rect52442"
       style="fill:#afdde9"
       d="m 74.409407,12.622252 h 74.608723 c 11.77793,0 21.2598,9.481873 21.2598,21.259804 v 60.074616 c 0,11.777928 -9.48187,21.259808 -21.2598,21.259808 H 74.409407 c -11.777931,0 -21.259802,-9.48188 -21.259802,-21.259808 V 33.882056 c 0,-11.777931 9.481871,-21.259804 21.259802,-21.259804 z" />
    <path
       id="rect52444"
       style="fill:#afdde9"
       d="M 74.409407,65.771858 H 226.9708 c 11.77793,0 21.2598,9.481873 21.2598,21.259804 v 6.924744 c 0,11.777934 -9.48187,21.259804 -21.2598,21.259804 H 74.409407 c -11.777931,0 -21.259802,-9.48187 -21.259802,-21.259804 v -6.924744 c 0,-11.777931 9.481871,-21.259804 21.259802,-21.259804 z" />
    <path
       id="rect52446"
       style="fill:#afdde9"
       d="m 297.63776,12.622252 h 3.64288 c 11.77793,0 21.2598,9.481873 21.2598,21.259804 v 7.0872 c 0,11.777932 -9.48187,21.259804 -21.2598,21.259804 h -3.64288 c -11.77793,0 -21.2598,-9.481872 -21.2598,-21.259804 v -7.0872 c 0,-11.777931 9.48187,-21.259804 21.2598,-21.259804 z" />
    <path
       id="rect52448"
       style="fill:#ffaaaa"
       d="m 223.22831,12.622252 h 3.74249 c 11.77793,0 21.25981,9.481872 21.25981,21.259802 v 6.924435 c 0,11.77793 -9.48188,21.259802 -21.25981,21.259802 h -3.74249 c -11.77793,0 -21.2598,-9.481872 -21.2598,-21.259802 v -6.924435 c 0,-11.77793 9.48187,-21.259802 21.2598,-21.259802 z" />
    <path
       id="rect52450"
       style="fill:#ffaaaa"
       d="m 297.63776,65.771858 h 3.74261 c 11.77793,0 21.2598,9.481872 21.2598,21.259802 v 6.924725 c 0,11.777925 -9.48187,21.259805 -21.2598,21.259805 h -3.74261 c -11.77793,0 -21.2598,-9.48188 -21.2598,-21.259805 V 87.03166 c 0,-11.77793 9.48187,-21.259802 21.2598,-21.259802 z" />
    <path
       id="rect52454"
       style="fill:#ffaaaa"
       d="m 148.81886,172.07108 h 3.74248 c 11.77793,0 21.2598,9.48187 21.2598,21.2598 v 6.92486 c 0,11.77793 -9.48187,21.2598 -21.2598,21.2598 h -3.74248 c -11.77793,0 -21.2598,-9.48187 -21.2598,-21.2598 v -6.92486 c 0,-11.77793 9.48187,-21.2598 21.2598,-21.2598 z" />
    <path
       id="rect52456"
       style="fill:#afdde9"
       d="m 223.22831,118.92146 h 74.60875 c 11.77793,0 21.2598,9.48188 21.2598,21.25981 v 60.07422 c 0,11.77793 -9.48187,21.2598 -21.2598,21.2598 h -74.60875 c -11.77793,0 -21.2598,-9.48187 -21.2598,-21.2598 v -60.07422 c 0,-11.77793 9.48187,-21.25981 21.2598,-21.25981 z" />
    <path
       id="rect52458"
       style="fill:#afdde9"
       d="m 148.81886,118.92146 h 149.0183 c 11.77793,0 21.2598,9.48188 21.2598,21.25981 v 6.92452 c 0,11.77793 -9.48187,21.25981 -21.2598,21.25981 h -149.0183 c -11.77793,0 -21.2598,-9.48188 -21.2598,-21.25981 v -6.92452 c 0,-11.77793 9.48187,-21.25981 21.2598,-21.25981 z" />
    <path
       id="rect52460"
       style="fill:#ffaaaa"
       d="m 74.409407,118.92146 h 3.742481 c 11.77793,0 21.259802,9.48187 21.259802,21.2598 v 6.92453 c 0,11.77794 -9.481872,21.25981 -21.259802,21.25981 h -3.742481 c -11.777931,0 -21.259802,-9.48187 -21.259802,-21.25981 v -6.92453 c 0,-11.77793 9.481871,-21.2598 21.259802,-21.2598 z" />
    <g
       transform="matrix(1.3588251,0,0,1.3588251,-17.81388,-250.64635)"
       id="g52462">
      <g
         transform="rotate(90,-106.51969,441.29457)"
         id="g52464">
        <path
           style="fill:none;stroke:#000000;stroke-width:1px;stroke-linecap:butt;stroke-linejoin:miter;stroke-opacity:1"
           d="m 16.734921,-22.541473 38.976378,-3e-6"
           id="path52466" />
        <path
           id="path52468"
           d="M -372.20012,-22.541473 H -4.5249215"
           style="fill:none;stroke:#000000;stroke-width:1px;stroke-linecap:butt;stroke-linejoin:miter;stroke-opacity:1;marker-start:none" />
        <path
           style="fill:#ffeeaa;fill-opacity:1;stroke:#000000;stroke-width:1px;stroke-linecap:butt;stroke-linejoin:miter;stroke-opacity:1"
           d="m -11.611536,-40.258009 c 7.0866149,10.629922 7.0866149,24.80315 0,35.4330707 7.0866149,4e-7 24.80315,-3.5433067 28.346457,-17.7165347 -3.543307,-14.173229 -21.2598421,-17.716536 -28.346457,-17.716536 z"
           id="path52470" />
      </g>
      <g
         id="g52472"
         transform="rotate(90,-44.301489,98.560421)">
        <path
           style="fill:#ffeeaa;fill-opacity:1;fill-rule:evenodd;stroke:#000000;stroke-width:1px;stroke-linecap:butt;stroke-linejoin:miter;stroke-opacity:1"
           d="M 51.377951,56.360653 V 77.620495 L 70.866142,67.37838 Z"
           id="path52474"
           transform="translate(-44.203438,-91.419854)" />
        <path
           id="path52476"
           style="fill:#ffeeaa;stroke:#000000;stroke-width:0.999213"
           transform="translate(-44.203438,-91.419854)"
           d="m 77.952754,67.37838 a 3.5433071,3.5433071 0 0 1 -3.543307,3.543307 3.5433071,3.5433071 0 0 1 -3.543307,-3.543307 3.5433071,3.5433071 0 0 1 3.543307,-3.543307 3.5433071,3.5433071 0 0 1 3.543307,3.543307 z" />
        <path
           style="fill:none;stroke:#000000;stroke-width:1px;stroke-linecap:butt;stroke-linejoin:miter;stroke-opacity:1;marker-start:url(#marker22529-3)"
           d="M 24.803153,85.094915 V 67.37838 l 26.574798,-0.387806"
           id="path52478"
           transform="translate(-44.203438,-91.419854)" />
        <path
           style="fill:none;stroke:#000000;stroke-width:1px;stroke-linecap:butt;stroke-linejoin:miter;stroke-opacity:1"
           d="M 77.952756,67.37838 414.77166,67.142158"
           id="path52480"
           transform="translate(-44.203438,-91.419854)" />
      </g>
      <path
         style="fill:none;stroke:#000000;stroke-width:1px;stroke-linecap:butt;stroke-linejoin:miter;stroke-opacity:1"
         d="m 60.583872,105.74509 0.23622,407.68504"
         id="path52482" />
      <path
         id="path52484"
         d="m 115.34401,105.74509 0.23622,407.68504"
         style="fill:none;stroke:#000000;stroke-width:1px;stroke-linecap:butt;stroke-linejoin:miter;stroke-opacity:1" />
      <path
         style="fill:none;stroke:#000000;stroke-width:1px;stroke-linecap:butt;stroke-linejoin:miter;stroke-opacity:1"
         d="m 169.56729,105.74509 0.23622,407.68504"
         id="path52486" />
      <path
         id="path52488"
         d="m 224.86428,105.74509 0.23622,407.68504"
         style="fill:none;stroke:#000000;stroke-width:1px;stroke-linecap:butt;stroke-linejoin:miter;stroke-opacity:1" />
      <g
         transform="rotate(90,-16.92142,125.94049)"
         id="g52490">
        <path
           transform="translate(-44.203438,-91.419854)"
           id="path52492"
           d="M 51.377951,56.360653 V 77.620495 L 70.866142,67.37838 Z"
           style="fill:#ffeeaa;fill-opacity:1;fill-rule:evenodd;stroke:#000000;stroke-width:1px;stroke-linecap:butt;stroke-linejoin:miter;stroke-opacity:1" />
        <path
           id="path52494"
           style="fill:#ffeeaa;stroke:#000000;stroke-width:0.999213"
           transform="translate(-44.203438,-91.419854)"
           d="m 77.952754,67.37838 a 3.5433071,3.5433071 0 0 1 -3.543307,3.543307 3.5433071,3.5433071 0 0 1 -3.543307,-3.543307 3.5433071,3.5433071 0 0 1 3.543307,-3.543307 3.5433071,3.5433071 0 0 1 3.543307,3.543307 z" />
        <path
           transform="translate(-44.203438,-91.419854)"
           id="path52496"
           d="M 24.803153,85.094915 V 67.37838 l 26.574798,-0.387806"
           style="fill:none;stroke:#000000;stroke-width:1px;stroke-linecap:butt;stroke-linejoin:miter;stroke-opacity:1;marker-start:url(#marker22529-3)" />
        <path
           transform="translate(-44.203438,-91.419854)"
           id="path52498"
           d="M 77.952756,67.37838 414.77166,67.142162"
           style="fill:none;stroke:#000000;stroke-width:1px;stroke-linecap:butt;stroke-linejoin:miter;stroke-opacity:1" />
      </g>
      <g
         id="g52500"
         transform="rotate(90,10.190225,153.05213)">
        <path
           style="fill:#ffeeaa;fill-opacity:1;fill-rule:evenodd;stroke:#000000;stroke-width:1px;stroke-linecap:butt;stroke-linejoin:miter;stroke-opacity:1"
           d="M 51.377951,56.360653 V 77.620495 L 70.866142,67.37838 Z"
           id="path52502"
           transform="translate(-44.203438,-91.419854)" />
        <path
           id="path52504"
           style="fill:#ffeeaa;stroke:#000000;stroke-width:0.999213"
           transform="translate(-44.203438,-91.419854)"
           d="m 77.952754,67.37838 a 3.5433071,3.5433071 0 0 1 -3.543307,3.543307 3.5433071,3.5433071 0 0 1 -3.543307,-3.543307 3.5433071,3.5433071 0 0 1 3.543307,-3.543307 3.5433071,3.5433071 0 0 1 3.543307,3.543307 z" />
        <path
           style="fill:none;stroke:#000000;stroke-width:1px;stroke-linecap:butt;stroke-linejoin:miter;stroke-opacity:1;marker-start:url(#marker22529-3)"
           d="M 24.803153,85.094915 V 67.37838 l 26.574798,-0.387806"
           id="path52506"
           transform="translate(-44.203438,-91.419854)" />
        <path
           style="fill:none;stroke:#000000;stroke-width:1px;stroke-linecap:butt;stroke-linejoin:miter;stroke-opacity:1"
           d="M 77.952756,67.37838 414.77166,67.142165"
           id="path52508"
           transform="translate(-44.203438,-91.419854)" />
      </g>
      <g
         transform="rotate(90,37.838715,180.70062)"
         id="g52510">
        <path
           transform="translate(-44.203438,-91.419854)"
           id="path52512"
           d="M 51.377951,56.360653 V 77.620495 L 70.866142,67.37838 Z"
           style="fill:#ffeeaa;fill-opacity:1;fill-rule:evenodd;stroke:#000000;stroke-width:1px;stroke-linecap:butt;stroke-linejoin:miter;stroke-opacity:1" />
        <path
           id="path52514"
           style="fill:#ffeeaa;stroke:#000000;stroke-width:0.999213"
           transform="translate(-44.203438,-91.419854)"
           d="m 77.952754,67.37838 a 3.5433071,3.5433071 0 0 1 -3.543307,3.543307 3.5433071,3.5433071 0 0 1 -3.543307,-3.543307 3.5433071,3.5433071 0 0 1 3.543307,-3.543307 3.5433071,3.5433071 0 0 1 3.543307,3.543307 z" />
        <path
           transform="translate(-44.203438,-91.419854)"
           id="path52516"
           d="M 24.803153,85.094915 V 67.37838 l 26.574798,-0.387806"
           style="fill:none;stroke:#000000;stroke-width:1px;stroke-linecap:butt;stroke-linejoin:miter;stroke-opacity:1;marker-start:url(#marker22529-3)" />
        <path
           transform="translate(-44.203438,-91.419854)"
           id="path52518"
           d="M 77.952756,67.37838 414.77166,67.142159"
           style="fill:none;stroke:#000000;stroke-width:1px;stroke-linecap:butt;stroke-linejoin:miter;stroke-opacity:1" />
      </g>
      <g
         transform="translate(-10.282268,-18.270642)"
         id="g52520">
        <g
           aria-label="BA"
           id="text52522"
           style="line-height:0%;font-family:Iwona;-inkscape-font-specification:Iwona;text-align:center;text-anchor:middle">
          <path
             d="m 69.994167,99.845977 c 0,-1.32 -0.864,-2.016 -2.124,-2.28 0.924,-0.276 1.536,-0.876 1.536,-1.896 0,-1.464 -1.26,-2.064 -2.88,-2.064 -0.624,0 -1.248,0.036 -1.872,0.12 h -0.96 v 8.400003 h 0.96 l 1.872,0.12 c 1.944,0 3.468,-0.66 3.468,-2.400003 z m -1.572,-4.176 c 0,1.212 -1.356,1.836 -2.712,1.836 h -1.032 v -3.228 c 0.612,-0.084 1.236,-0.12 1.848,-0.12 0.984,0 1.896,0.6 1.896,1.512 z m 0.396,4.176 c 0,1.104003 -1.092,1.848003 -2.292,1.848003 -0.612,0 -1.236,-0.036 -1.848,-0.12 v -3.648003 h 1.548 c 1.32,0 2.592,0.708 2.592,1.92 z"
             style="font-size:12px;line-height:1.25"
             id="path430" />
          <path
             d="m 78.034161,102.12598 -3.048,-8.400003 h -1.044 l -3.108,8.400003 h 0.588 l 1.092,-2.940003 h 3.408 l 1.068,2.940003 z m -2.316,-3.492003 h -3 l 1.512,-4.104 z"
             style="font-size:12px;line-height:1.25"
             id="path432" />
        </g>
        <g
           transform="translate(-318.89764,-159.44881)"
           id="g52526">
          <path
             id="path52528"
             d="m 396.8504,265.74802 h -14.17322 v 10.62992 l 7.08661,7.08661 7.08661,-7.08661 z"
             style="fill:#d5f6ff;fill-opacity:1;stroke:#000000;stroke-width:1px;stroke-linecap:butt;stroke-linejoin:miter;stroke-opacity:1" />
        </g>
      </g>
      <g
         id="g52530"
         transform="translate(44.477861,-18.27064)">
        <g
           aria-label="BR"
           id="text52532"
           style="line-height:0%;font-family:Iwona;-inkscape-font-specification:Iwona;text-align:center;text-anchor:middle">
          <path
             d="m 69.790165,99.845977 c 0,-1.32 -0.864,-2.016 -2.124,-2.28 0.924,-0.276 1.536,-0.876 1.536,-1.896 0,-1.464 -1.26,-2.064 -2.88,-2.064 -0.624,0 -1.248,0.036 -1.872,0.12 h -0.96 v 8.400003 h 0.96 l 1.872,0.12 c 1.944,0 3.468,-0.66 3.468,-2.400003 z m -1.572,-4.176 c 0,1.212 -1.356,1.836 -2.712,1.836 h -1.032 v -3.228 c 0.612,-0.084 1.236,-0.12 1.848,-0.12 0.984,0 1.896,0.6 1.896,1.512 z m 0.396,4.176 c 0,1.104003 -1.092,1.848003 -2.292,1.848003 -0.612,0 -1.236,-0.036 -1.848,-0.12 v -3.648003 h 1.548 c 1.32,0 2.592,0.708 2.592,1.92 z"
             style="font-size:12px;line-height:1.25"
             id="path435" />
          <path
             d="m 78.238159,102.12598 -2.556,-3.804003 c 1.308,-0.252 2.208,-0.972 2.208,-2.316 0,-1.692 -1.452,-2.4 -3.336,-2.4 -0.672,0 -1.344,0.036 -2.004,0.12 h -0.96 v 8.400003 h 0.984 v -3.900003 c 0.648,0.12 1.32,0.192 1.98,0.192 l 2.508,3.708003 z m -1.524,-6.120003 c 0,1.092 -1.02,1.86 -2.16,1.86 -0.66,0 -1.332,-0.072 -1.98,-0.192 v -3.396 c 0.66,-0.084 1.32,-0.12 1.98,-0.12 1.14,0 2.16,0.768 2.16,1.848 z"
             style="font-size:12px;line-height:1.25"
             id="path437" />
        </g>
        <g
           id="g52536"
           transform="translate(-318.89764,-159.44881)">
          <path
             style="fill:#d5f6ff;fill-opacity:1;stroke:#000000;stroke-width:1px;stroke-linecap:butt;stroke-linejoin:miter;stroke-opacity:1"
             d="m 396.8504,265.74802 h -14.17322 v 10.62992 l 7.08661,7.08661 7.08661,-7.08661 z"
             id="path52538" />
        </g>
      </g>
      <g
         transform="translate(98.701154,-18.270642)"
         id="g52540">
        <g
           aria-label="BG"
           id="text52542"
           style="line-height:0%;font-family:Iwona;-inkscape-font-specification:Iwona;text-align:center;text-anchor:middle">
          <path
             d="m 69.346169,99.845977 c 0,-1.32 -0.864,-2.016 -2.124,-2.28 0.924,-0.276 1.536,-0.876 1.536,-1.896 0,-1.464 -1.26,-2.064 -2.88,-2.064 -0.624,0 -1.248,0.036 -1.872,0.12 h -0.96 v 8.400003 h 0.96 l 1.872,0.12 c 1.944,0 3.468,-0.66 3.468,-2.400003 z m -1.572,-4.176 c 0,1.212 -1.356,1.836 -2.712,1.836 h -1.032 v -3.228 c 0.612,-0.084 1.236,-0.12 1.848,-0.12 0.984,0 1.896,0.6 1.896,1.512 z m 0.396,4.176 c 0,1.104003 -1.092,1.848003 -2.292,1.848003 -0.612,0 -1.236,-0.036 -1.848,-0.12 v -3.648003 h 1.548 c 1.32,0 2.592,0.708 2.592,1.92 z"
             style="font-size:12px;line-height:1.25"
             id="path440" />
          <path
             d="m 77.842162,102.12598 v -3.528003 h -0.984 v 2.316003 c -0.624,0.504 -1.392,0.78 -2.196,0.78 -1.908,0 -2.7,-1.644 -2.7,-3.768003 0,-2.124 0.792,-3.768 2.7,-3.768 1.128,0 2.196,0.444 2.988,1.248 v -0.552 c -0.792,-0.804 -1.86,-1.248 -2.988,-1.248 -2.472,0 -3.876,1.752 -3.876,4.32 0,2.568003 1.404,4.320003 3.876,4.320003 0.804,0 1.572,-0.276 2.196,-0.78 v 0.66 z"
             style="font-size:12px;line-height:1.25"
             id="path442" />
        </g>
        <g
           transform="translate(-318.89764,-159.44881)"
           id="g52546">
          <path
             id="path52548"
             d="m 396.8504,265.74802 h -14.17322 v 10.62992 l 7.08661,7.08661 7.08661,-7.08661 z"
             style="fill:#d5f6ff;fill-opacity:1;stroke:#000000;stroke-width:1px;stroke-linecap:butt;stroke-linejoin:miter;stroke-opacity:1" />
        </g>
      </g>
      <g
         id="g52550"
         transform="translate(153.99813,-18.270642)">
        <g
           aria-label="BD"
           id="text52552"
           style="line-height:0%;font-family:Iwona;-inkscape-font-specification:Iwona;text-align:center;text-anchor:middle">
          <path
             d="m 69.226166,99.845977 c 0,-1.32 -0.864,-2.016 -2.124,-2.28 0.924,-0.276 1.536,-0.876 1.536,-1.896 0,-1.464 -1.26,-2.064 -2.88,-2.064 -0.624,0 -1.248,0.036 -1.872,0.12 h -0.96 v 8.400003 h 0.96 l 1.872,0.12 c 1.944,0 3.468,-0.66 3.468,-2.400003 z m -1.572,-4.176 c 0,1.212 -1.356,1.836 -2.712,1.836 h -1.032 v -3.228 c 0.612,-0.084 1.236,-0.12 1.848,-0.12 0.984,0 1.896,0.6 1.896,1.512 z m 0.396,4.176 c 0,1.104003 -1.092,1.848003 -2.292,1.848003 -0.612,0 -1.236,-0.036 -1.848,-0.12 v -3.648003 h 1.548 c 1.32,0 2.592,0.708 2.592,1.92 z"
             style="font-size:12px;line-height:1.25"
             id="path445" />
          <path
             d="m 78.202159,97.925977 c 0,-2.568 -1.404,-4.32 -3.876,-4.32 -0.744,0 -1.488,0.036 -2.22,0.12 h -0.96 v 8.400003 h 0.96 c 0.732,0.084 1.476,0.12 2.22,0.12 2.472,0 3.876,-1.752 3.876,-4.320003 z m -1.176,0 c 0,1.908 -0.972,3.768003 -2.7,3.768003 -0.732,0 -1.464,-0.036 -2.196,-0.12 v -7.296003 c 0.732,-0.084 1.464,-0.12 2.196,-0.12 1.728,0 2.7,1.86 2.7,3.768 z"
             style="font-size:12px;line-height:1.25"
             id="path447" />
        </g>
        <g
           id="g52556"
           transform="translate(-318.89764,-159.44881)">
          <path
             style="fill:#d5f6ff;fill-opacity:1;stroke:#000000;stroke-width:1px;stroke-linecap:butt;stroke-linejoin:miter;stroke-opacity:1"
             d="m 396.8504,265.74802 h -14.17322 v 10.62992 l 7.08661,7.08661 7.08661,-7.08661 z"
             id="path52558" />
        </g>
      </g>
      <g
         transform="translate(302.98796,234.74899)"
         id="g52560">
        <path
           style="fill:none;stroke:#000000;stroke-width:1px;stroke-linecap:butt;stroke-linejoin:miter;stroke-opacity:1"
           d="M 2.1758694,-22.628091 H 211.23099"
           id="path52562" />
        <path
           style="fill:#ffeeaa;fill-opacity:1;stroke:#000000;stroke-width:1px;stroke-linecap:butt;stroke-linejoin:miter;stroke-opacity:1"
           d="m -26.170587,-40.911555 v 35.9999999 h 3.543306 c 3.543307,0 24.2669248,1.3e-6 24.2669248,-17.9999989 0,-18 -20.7236178,-18.000001 -24.2669248,-18.000001 0,0 -3.543306,0 -3.543306,0 z"
           id="path52564" />
        <path
           style="fill:none;stroke:#000000;stroke-width:0.999213;stroke-linecap:butt;stroke-linejoin:miter;stroke-miterlimit:4;stroke-dasharray:none;stroke-opacity:1;marker-start:none"
           d="M -268.67977,-22.658175 H -26.17059"
           id="path52566" />
      </g>
      <g
         id="g52568"
         transform="translate(24.08861,-35.399246)">
        <g
           aria-label="MGA"
           id="text52570"
           style="line-height:0%;font-family:Iwona;-inkscape-font-specification:Iwona;text-align:center;text-anchor:middle">
          <path
             d="m 329.4846,672.29132 -0.48,-8.4 h -0.792 l -3.372,7.092 -3.384,-7.092 h -0.792 l -0.48,8.4 h 0.552 l 0.384,-6.804 3.252,6.804 h 0.444 l 3.288,-6.888 0.396,6.888 z"
             style="font-size:12px;line-height:1.25"
             id="path450" />
          <path
             d="m 337.98058,672.29132 v -3.528 h -0.984 v 2.316 c -0.624,0.504 -1.392,0.78 -2.196,0.78 -1.908,0 -2.7,-1.644 -2.7,-3.768 0,-2.124 0.792,-3.768 2.7,-3.768 1.128,0 2.196,0.444 2.988,1.248 v -0.552 c -0.792,-0.804 -1.86,-1.248 -2.988,-1.248 -2.472,0 -3.876,1.752 -3.876,4.32 0,2.568 1.404,4.32 3.876,4.32 0.804,0 1.572,-0.276 2.196,-0.78 v 0.66 z"
             style="font-size:12px;line-height:1.25"
             id="path452" />
          <path
             d="m 346.26057,672.29132 -3.048,-8.4 h -1.044 l -3.108,8.4 h 0.588 l 1.092,-2.94 h 3.408 l 1.068,2.94 z m -2.316,-3.492 h -3 l 1.512,-4.104 z"
             style="font-size:12px;line-height:1.25"
             id="path454" />
        </g>
        <g
           id="g52574"
           transform="translate(-56.29921,372.71654)">
          <path
             style="fill:#d5f6ff;fill-opacity:1;stroke:#000000;stroke-width:1px;stroke-linecap:butt;stroke-linejoin:miter;stroke-opacity:1"
             d="m 396.8504,265.74802 h -14.17322 v 10.62992 l 7.08661,7.08661 7.08661,-7.08661 z"
             id="path52576" />
        </g>
      </g>
      <g
         id="g52578"
         transform="translate(15.275591,-35.399246)">
        <g
           aria-label="MGR"
           id="text52580"
           style="line-height:0%;font-family:Iwona;-inkscape-font-specification:Iwona;text-align:center;text-anchor:middle">
          <path
             d="m 382.43019,672.29132 -0.48,-8.4 h -0.792 l -3.372,7.092 -3.384,-7.092 h -0.792 l -0.48,8.4 h 0.552 l 0.384,-6.804 3.252,6.804 h 0.444 l 3.288,-6.888 0.396,6.888 z"
             style="font-size:12px;line-height:1.25"
             id="path457" />
          <path
             d="m 390.92618,672.29132 v -3.528 h -0.984 v 2.316 c -0.624,0.504 -1.392,0.78 -2.196,0.78 -1.908,0 -2.7,-1.644 -2.7,-3.768 0,-2.124 0.792,-3.768 2.7,-3.768 1.128,0 2.196,0.444 2.988,1.248 v -0.552 c -0.792,-0.804 -1.86,-1.248 -2.988,-1.248 -2.472,0 -3.876,1.752 -3.876,4.32 0,2.568 1.404,4.32 3.876,4.32 0.804,0 1.572,-0.276 2.196,-0.78 v 0.66 z"
             style="font-size:12px;line-height:1.25"
             id="path459" />
          <path
             d="m 399.61416,672.29132 -2.556,-3.804 c 1.308,-0.252 2.208,-0.972 2.208,-2.316 0,-1.692 -1.452,-2.4 -3.336,-2.4 -0.672,0 -1.344,0.036 -2.004,0.12 h -0.96 v 8.4 h 0.984 v -3.9 c 0.648,0.12 1.32,0.192 1.98,0.192 l 2.508,3.708 z m -1.524,-6.12 c 0,1.092 -1.02,1.86 -2.16,1.86 -0.66,0 -1.332,-0.072 -1.98,-0.192 v -3.396 c 0.66,-0.084 1.32,-0.12 1.98,-0.12 1.14,0 2.16,0.768 2.16,1.848 z"
             style="font-size:12px;line-height:1.25"
             id="path461" />
        </g>
        <g
           transform="translate(-3.14961,372.71654)"
           id="g52584">
          <path
             id="path52586"
             d="m 396.8504,265.74802 h -14.17322 v 10.62992 l 7.08661,7.08661 7.08661,-7.08661 z"
             style="fill:#d5f6ff;fill-opacity:1;stroke:#000000;stroke-width:1px;stroke-linecap:butt;stroke-linejoin:miter;stroke-opacity:1" />
        </g>
      </g>
      <g
         id="g52588"
         transform="translate(6.4486556,-35.399246)">
        <g
           aria-label="MDA"
           id="text52590"
           style="line-height:0%;font-family:Iwona;-inkscape-font-specification:Iwona;text-align:center;text-anchor:middle">
          <path
             d="m 435.80782,672.29132 -0.48,-8.4 h -0.792 l -3.372,7.092 -3.384,-7.092 h -0.792 l -0.48,8.4 h 0.552 l 0.384,-6.804 3.252,6.804 h 0.444 l 3.288,-6.888 0.396,6.888 z"
             style="font-size:12px;line-height:1.25"
             id="path464" />
          <path
             d="m 444.78381,668.09132 c 0,-2.568 -1.404,-4.32 -3.876,-4.32 -0.744,0 -1.488,0.036 -2.22,0.12 h -0.96 v 8.4 h 0.96 c 0.732,0.084 1.476,0.12 2.22,0.12 2.472,0 3.876,-1.752 3.876,-4.32 z m -1.176,0 c 0,1.908 -0.972,3.768 -2.7,3.768 -0.732,0 -1.464,-0.036 -2.196,-0.12 v -7.296 c 0.732,-0.084 1.464,-0.12 2.196,-0.12 1.728,0 2.7,1.86 2.7,3.768 z"
             style="font-size:12px;line-height:1.25"
             id="path466" />
          <path
             d="m 452.53579,672.29132 -3.048,-8.4 h -1.044 l -3.108,8.4 h 0.588 l 1.092,-2.94 h 3.408 l 1.068,2.94 z m -2.316,-3.492 h -3 l 1.512,-4.104 z"
             style="font-size:12px;line-height:1.25"
             id="path468" />
        </g>
        <path
           id="path52594"
           d="m 446.8504,638.46456 h -14.17322 v 10.62992 l 7.08661,7.08661 7.08661,-7.08661 z"
           style="fill:#d5f6ff;fill-opacity:1;stroke:#000000;stroke-width:1px;stroke-linecap:butt;stroke-linejoin:miter;stroke-opacity:1" />
      </g>
      <g
         id="g52596"
         transform="translate(-2.364374,-35.199829)">
        <g
           aria-label="MDR"
           id="text52598"
           style="line-height:0%;font-family:Iwona;-inkscape-font-specification:Iwona;text-align:center;text-anchor:middle">
          <path
             d="m 488.60942,672.29132 -0.48,-8.4 h -0.792 l -3.372,7.092 -3.384,-7.092 h -0.792 l -0.48,8.4 h 0.552 l 0.384,-6.804 3.252,6.804 h 0.444 l 3.288,-6.888 0.396,6.888 z"
             style="font-size:12px;line-height:1.25"
             id="path471" />
          <path
             d="m 497.5854,668.09132 c 0,-2.568 -1.404,-4.32 -3.876,-4.32 -0.744,0 -1.488,0.036 -2.22,0.12 h -0.96 v 8.4 h 0.96 c 0.732,0.084 1.476,0.12 2.22,0.12 2.472,0 3.876,-1.752 3.876,-4.32 z m -1.176,0 c 0,1.908 -0.972,3.768 -2.7,3.768 -0.732,0 -1.464,-0.036 -2.196,-0.12 v -7.296 c 0.732,-0.084 1.464,-0.12 2.196,-0.12 1.728,0 2.7,1.86 2.7,3.768 z"
             style="font-size:12px;line-height:1.25"
             id="path473" />
          <path
             d="m 506.03339,672.29132 -2.556,-3.804 c 1.308,-0.252 2.208,-0.972 2.208,-2.316 0,-1.692 -1.452,-2.4 -3.336,-2.4 -0.672,0 -1.344,0.036 -2.004,0.12 h -0.96 v 8.4 h 0.984 v -3.9 c 0.648,0.12 1.32,0.192 1.98,0.192 l 2.508,3.708 z m -1.524,-6.12 c 0,1.092 -1.02,1.86 -2.16,1.86 -0.66,0 -1.332,-0.072 -1.98,-0.192 v -3.396 c 0.66,-0.084 1.32,-0.12 1.98,-0.12 1.14,0 2.16,0.768 2.16,1.848 z"
             style="font-size:12px;line-height:1.25"
             id="path475" />
        </g>
        <g
           transform="translate(103.1496,372.71654)"
           id="g52602">
          <path
             id="path52604"
             d="m 396.8504,265.74802 h -14.17322 v 10.62992 l 7.08661,7.08661 7.08661,-7.08661 z"
             style="fill:#d5f6ff;fill-opacity:1;stroke:#000000;stroke-width:1px;stroke-linecap:butt;stroke-linejoin:miter;stroke-opacity:1" />
        </g>
      </g>
      <g
         id="g52606"
         transform="translate(302.98796,273.86337)">
        <path
           id="path52608"
           d="M 2.1758694,-22.628091 H 211.23099"
           style="fill:none;stroke:#000000;stroke-width:1px;stroke-linecap:butt;stroke-linejoin:miter;stroke-opacity:1" />
        <path
           id="path52610"
           d="m -26.170587,-40.911555 v 35.9999999 h 3.543306 c 3.543307,0 24.2669248,1.3e-6 24.2669248,-17.9999989 0,-18 -20.7236178,-18.000001 -24.2669248,-18.000001 0,0 -3.543306,0 -3.543306,0 z"
           style="fill:#ffeeaa;fill-opacity:1;stroke:#000000;stroke-width:1px;stroke-linecap:butt;stroke-linejoin:miter;stroke-opacity:1" />
        <path
           id="path52612"
           d="M -269.01719,-22.628092 H -26.50801"
           style="fill:none;stroke:#000000;stroke-width:0.999213;stroke-linecap:butt;stroke-linejoin:miter;stroke-miterlimit:4;stroke-dasharray:none;stroke-opacity:1;marker-start:none" />
      </g>
      <g
         transform="translate(302.98796,312.97775)"
         id="g52614">
        <path
           style="fill:none;stroke:#000000;stroke-width:1px;stroke-linecap:butt;stroke-linejoin:miter;stroke-opacity:1"
           d="M 2.1758694,-22.628091 H 211.23099"
           id="path52616" />
        <path
           style="fill:#ffeeaa;fill-opacity:1;stroke:#000000;stroke-width:1px;stroke-linecap:butt;stroke-linejoin:miter;stroke-opacity:1"
           d="m -26.170587,-40.911555 v 35.9999999 h 3.543306 c 3.543307,0 24.2669248,1.3e-6 24.2669248,-17.9999989 0,-18 -20.7236178,-18.000001 -24.2669248,-18.000001 0,0 -3.543306,0 -3.543306,0 z"
           id="path52618" />
        <path
           style="fill:none;stroke:#000000;stroke-width:0.999213;stroke-linecap:butt;stroke-linejoin:miter;stroke-miterlimit:4;stroke-dasharray:none;stroke-opacity:1;marker-start:none"
           d="M -269.01719,-22.628092 H -26.50801"
           id="path52620" />
      </g>
      <g
         id="g52622"
         transform="translate(302.98796,352.09214)">
        <path
           id="path52624"
           d="M 2.1758694,-22.628091 H 211.23099"
           style="fill:none;stroke:#000000;stroke-width:1px;stroke-linecap:butt;stroke-linejoin:miter;stroke-opacity:1" />
        <path
           id="path52626"
           d="m -26.170587,-40.911555 v 35.9999999 h 3.543306 c 3.543307,0 24.2669248,1.3e-6 24.2669248,-17.9999989 0,-18 -20.7236178,-18.000001 -24.2669248,-18.000001 0,0 -3.543306,0 -3.543306,0 z"
           style="fill:#ffeeaa;fill-opacity:1;stroke:#000000;stroke-width:1px;stroke-linecap:butt;stroke-linejoin:miter;stroke-opacity:1" />
        <path
           id="path52628"
           d="M -269.01719,-22.628092 H -26.50801"
           style="fill:none;stroke:#000000;stroke-width:0.999213;stroke-linecap:butt;stroke-linejoin:miter;stroke-miterlimit:4;stroke-dasharray:none;stroke-opacity:1;marker-start:none" />
      </g>
      <g
         id="g52630"
         transform="translate(302.98796,391.20652)">
        <path
           id="path52632"
           d="M 2.1758694,-22.628091 H 211.23099"
           style="fill:none;stroke:#000000;stroke-width:1px;stroke-linecap:butt;stroke-linejoin:miter;stroke-opacity:1" />
        <path
           id="path52634"
           d="m -26.170587,-40.911555 v 35.9999999 h 3.543306 c 3.543307,0 24.2669248,1.3e-6 24.2669248,-17.9999989 0,-18 -20.7236178,-18.000001 -24.2669248,-18.000001 0,0 -3.543306,0 -3.543306,0 z"
           style="fill:#ffeeaa;fill-opacity:1;stroke:#000000;stroke-width:1px;stroke-linecap:butt;stroke-linejoin:miter;stroke-opacity:1" />
        <path
           id="path52636"
           d="M -268.67977,-22.658175 H -26.17059"
           style="fill:none;stroke:#000000;stroke-width:0.999213;stroke-linecap:butt;stroke-linejoin:miter;stroke-miterlimit:4;stroke-dasharray:none;stroke-opacity:1;marker-start:none" />
      </g>
      <g
         transform="translate(302.98796,430.3209)"
         id="g52638">
        <path
           style="fill:none;stroke:#000000;stroke-width:1px;stroke-linecap:butt;stroke-linejoin:miter;stroke-opacity:1"
           d="M 2.1758694,-22.628091 H 211.23099"
           id="path52640" />
        <path
           style="fill:#ffeeaa;fill-opacity:1;stroke:#000000;stroke-width:1px;stroke-linecap:butt;stroke-linejoin:miter;stroke-opacity:1"
           d="m -26.170587,-40.911555 v 35.9999999 h 3.543306 c 3.543307,0 24.2669248,1.3e-6 24.2669248,-17.9999989 0,-18 -20.7236178,-18.000001 -24.2669248,-18.000001 0,0 -3.543306,0 -3.543306,0 z"
           id="path52642" />
        <path
           style="fill:none;stroke:#000000;stroke-width:0.999213;stroke-linecap:butt;stroke-linejoin:miter;stroke-miterlimit:4;stroke-dasharray:none;stroke-opacity:1;marker-start:none"
           d="M -269.01719,-22.628092 H -26.50801"
           id="path52644" />
      </g>
      <g
         id="g52646"
         transform="translate(302.98796,469.43528)">
        <path
           id="path52648"
           d="M 2.1758694,-22.628091 H 211.23099"
           style="fill:none;stroke:#000000;stroke-width:1px;stroke-linecap:butt;stroke-linejoin:miter;stroke-opacity:1" />
        <path
           id="path52650"
           d="m -26.170587,-40.911555 v 35.9999999 h 3.543306 c 3.543307,0 24.2669248,1.3e-6 24.2669248,-17.9999989 0,-18 -20.7236178,-18.000001 -24.2669248,-18.000001 0,0 -3.543306,0 -3.543306,0 z"
           style="fill:#ffeeaa;fill-opacity:1;stroke:#000000;stroke-width:1px;stroke-linecap:butt;stroke-linejoin:miter;stroke-opacity:1" />
        <path
           id="path52652"
           d="M -269.01719,-22.628092 H -26.50801"
           style="fill:none;stroke:#000000;stroke-width:0.999213;stroke-linecap:butt;stroke-linejoin:miter;stroke-miterlimit:4;stroke-dasharray:none;stroke-opacity:1;marker-start:none" />
      </g>
      <g
         transform="translate(302.98796,508.54967)"
         id="g52654">
        <path
           style="fill:none;stroke:#000000;stroke-width:1px;stroke-linecap:butt;stroke-linejoin:miter;stroke-opacity:1"
           d="M 2.1758694,-22.628091 H 211.23099"
           id="path52656" />
        <path
           style="fill:#ffeeaa;fill-opacity:1;stroke:#000000;stroke-width:1px;stroke-linecap:butt;stroke-linejoin:miter;stroke-opacity:1"
           d="m -26.170587,-40.911555 v 35.9999999 h 3.543306 c 3.543307,0 24.2669248,1.3e-6 24.2669248,-17.9999989 0,-18 -20.7236178,-18.000001 -24.2669248,-18.000001 0,0 -3.543306,0 -3.543306,0 z"
           id="path52658" />
        <path
           style="fill:none;stroke:#000000;stroke-width:0.999213;stroke-linecap:butt;stroke-linejoin:miter;stroke-miterlimit:4;stroke-dasharray:none;stroke-opacity:1;marker-start:none"
           d="M -269.01719,-22.628092 H -26.50801"
           id="path52660" />
      </g>
      <g
         id="g52662"
         transform="rotate(90,-84.15546,463.25997)">
        <path
           id="path52664"
           d="m 16.734921,-22.541473 38.976378,-3e-6"
           style="fill:none;stroke:#000000;stroke-width:1px;stroke-linecap:butt;stroke-linejoin:miter;stroke-opacity:1" />
        <path
           style="fill:none;stroke:#000000;stroke-width:1px;stroke-linecap:butt;stroke-linejoin:miter;stroke-opacity:1;marker-start:none"
           d="M -372.20012,-22.541473 H -4.5249215"
           id="path52666" />
        <path
           id="path52668"
           d="m -11.611536,-40.258009 c 7.0866149,10.629922 7.0866149,24.80315 0,35.4330707 7.0866149,4e-7 24.80315,-3.5433067 28.346457,-17.7165347 -3.543307,-14.173229 -21.2598421,-17.716536 -28.346457,-17.716536 z"
           style="fill:#ffeeaa;fill-opacity:1;stroke:#000000;stroke-width:1px;stroke-linecap:butt;stroke-linejoin:miter;stroke-opacity:1" />
      </g>
      <g
         transform="rotate(90,-61.990645,485.42479)"
         id="g52670">
        <path
           style="fill:none;stroke:#000000;stroke-width:1px;stroke-linecap:butt;stroke-linejoin:miter;stroke-opacity:1"
           d="m 16.734921,-22.541473 38.976378,-3e-6"
           id="path52672" />
        <path
           id="path52674"
           d="M -372.20012,-22.541473 H -4.5249215"
           style="fill:none;stroke:#000000;stroke-width:1px;stroke-linecap:butt;stroke-linejoin:miter;stroke-opacity:1;marker-start:none" />
        <path
           style="fill:#ffeeaa;fill-opacity:1;stroke:#000000;stroke-width:1px;stroke-linecap:butt;stroke-linejoin:miter;stroke-opacity:1"
           d="m -11.611536,-40.258009 c 7.0866149,10.629922 7.0866149,24.80315 0,35.4330707 7.0866149,4e-7 24.80315,-3.5433067 28.346457,-17.7165347 -3.543307,-14.173229 -21.2598421,-17.716536 -28.346457,-17.716536 z"
           id="path52676" />
      </g>
      <g
         id="g52678"
         transform="rotate(90,-39.82583,507.5896)">
        <path
           id="path52680"
           d="m 16.734921,-22.541473 38.976378,-3e-6"
           style="fill:none;stroke:#000000;stroke-width:1px;stroke-linecap:butt;stroke-linejoin:miter;stroke-opacity:1" />
        <path
           style="fill:none;stroke:#000000;stroke-width:1px;stroke-linecap:butt;stroke-linejoin:miter;stroke-opacity:1;marker-start:none"
           d="M -372.20012,-22.541473 H -4.5249215"
           id="path52682" />
        <path
           id="path52684"
           d="m -11.611536,-40.258009 c 7.0866149,10.629922 7.0866149,24.80315 0,35.4330707 7.0866149,4e-7 24.80315,-3.5433067 28.346457,-17.7165347 -3.543307,-14.173229 -21.2598421,-17.716536 -28.346457,-17.716536 z"
           style="fill:#ffeeaa;fill-opacity:1;stroke:#000000;stroke-width:1px;stroke-linecap:butt;stroke-linejoin:miter;stroke-opacity:1" />
      </g>
    </g>
    <path
       id="path52686"
       style="stroke:#ff0000;stroke-width:0.999213;stroke-linecap:round;stroke-linejoin:bevel;stroke-opacity:0.847059"
       d="m 474.90265,143.72542 a 7.086575,7.0865593 0 0 1 -7.08658,7.08656 7.086575,7.0865593 0 0 1 -7.08657,-7.08656 7.086575,7.0865593 0 0 1 7.08657,-7.08656 7.086575,7.0865593 0 0 1 7.08658,7.08656 z" />
    <path
       id="path52688"
       style="fill:#ff0000;fill-opacity:0.117647;stroke:#ff0000;stroke-width:0.999213;stroke-linecap:round;stroke-linejoin:bevel;stroke-opacity:0.847059"
       d="m 535.13888,143.72542 a 7.086575,7.0865593 0 0 1 -7.08657,7.08656 7.086575,7.0865593 0 0 1 -7.08658,-7.08656 7.086575,7.0865593 0 0 1 7.08658,-7.08656 7.086575,7.0865593 0 0 1 7.08657,7.08656 z" />
    <path
       id="path52690"
       style="stroke:#ff0000;stroke-width:0.999213;stroke-linecap:round;stroke-linejoin:bevel;stroke-opacity:0.847059"
       d="m 595.27554,143.72542 a 7.086575,7.0865593 0 0 1 -7.08658,7.08656 7.086575,7.0865593 0 0 1 -7.08657,-7.08656 7.086575,7.0865593 0 0 1 7.08657,-7.08656 7.086575,7.0865593 0 0 1 7.08658,7.08656 z" />
    <path
       id="path52692"
       style="fill:#ff0000;fill-opacity:0.117647;stroke:#ff0000;stroke-width:0.999213;stroke-linecap:round;stroke-linejoin:bevel;stroke-opacity:0.847059"
       d="m 655.61129,143.72542 a 7.086575,7.0865593 0 0 1 -7.08657,7.08656 7.086575,7.0865593 0 0 1 -7.08658,-7.08656 7.086575,7.0865593 0 0 1 7.08658,-7.08656 7.086575,7.0865593 0 0 1 7.08657,7.08656 z" />
    <path
       id="path52694"
       style="fill:#ff0000;fill-opacity:0.117647;stroke:#ff0000;stroke-width:0.999213;stroke-linecap:round;stroke-linejoin:bevel;stroke-opacity:0.847059"
       d="m 474.90271,196.8744 a 7.086575,7.0865593 0 0 1 -7.08658,7.08656 7.086575,7.0865593 0 0 1 -7.08657,-7.08656 7.086575,7.0865593 0 0 1 7.08657,-7.08655 7.086575,7.0865593 0 0 1 7.08658,7.08655 z" />
    <path
       id="path52696"
       style="stroke:#ff0000;stroke-width:0.999213;stroke-linecap:round;stroke-linejoin:bevel;stroke-opacity:0.847059"
       d="m 535.139,196.8744 a 7.086575,7.0865593 0 0 1 -7.08657,7.08656 7.086575,7.0865593 0 0 1 -7.08658,-7.08656 7.086575,7.0865593 0 0 1 7.08658,-7.08655 7.086575,7.0865593 0 0 1 7.08657,7.08655 z" />
    <path
       id="path52698"
       style="fill:#ff0000;fill-opacity:0.117647;stroke:#ff0000;stroke-width:0.999213;stroke-linecap:round;stroke-linejoin:bevel;stroke-opacity:0.847059"
       d="m 595.27554,196.8744 a 7.086575,7.0865593 0 0 1 -7.08658,7.08656 7.086575,7.0865593 0 0 1 -7.08657,-7.08656 7.086575,7.0865593 0 0 1 7.08657,-7.08655 7.086575,7.0865593 0 0 1 7.08658,7.08655 z" />
    <path
       id="path52700"
       style="stroke:#ff0000;stroke-width:0.999213;stroke-linecap:round;stroke-linejoin:bevel;stroke-opacity:0.847059"
       d="m 655.61142,196.8744 a 7.086575,7.0865593 0 0 1 -7.08658,7.08656 7.086575,7.0865593 0 0 1 -7.08657,-7.08656 7.086575,7.0865593 0 0 1 7.08657,-7.08655 7.086575,7.0865593 0 0 1 7.08658,7.08655 z" />
    <path
       id="path52702"
       style="fill:#ff0000;fill-opacity:0.117647;stroke:#ff0000;stroke-width:0.999213;stroke-linecap:round;stroke-linejoin:bevel;stroke-opacity:0.847059"
       d="m 474.90258,37.425404 a 7.086575,7.0865593 0 0 1 -7.08657,7.086559 7.086575,7.0865593 0 0 1 -7.08658,-7.086559 7.086575,7.0865593 0 0 1 7.08658,-7.08656 7.086575,7.0865593 0 0 1 7.08657,7.08656 z" />
    <path
       id="path52704"
       style="stroke:#ff0000;stroke-width:0.999213;stroke-linecap:round;stroke-linejoin:bevel;stroke-opacity:0.847059"
       d="m 535.13888,37.425404 a 7.086575,7.0865593 0 0 1 -7.08657,7.086559 7.086575,7.0865593 0 0 1 -7.08658,-7.086559 7.086575,7.0865593 0 0 1 7.08658,-7.08656 7.086575,7.0865593 0 0 1 7.08657,7.08656 z" />
    <path
       id="path52706"
       style="stroke:#ff0000;stroke-width:0.999213;stroke-linecap:round;stroke-linejoin:bevel;stroke-opacity:0.847059"
       d="m 595.2756,37.425404 a 7.086575,7.0865593 0 0 1 -7.08657,7.086559 7.086575,7.0865593 0 0 1 -7.08658,-7.086559 7.086575,7.0865593 0 0 1 7.08658,-7.08656 7.086575,7.0865593 0 0 1 7.08657,7.08656 z" />
    <path
       id="path52708"
       style="fill:#ff0000;fill-opacity:0.117647;stroke:#ff0000;stroke-width:0.999213;stroke-linecap:round;stroke-linejoin:bevel;stroke-opacity:0.847059"
       d="m 655.61117,37.425404 a 7.086575,7.0865593 0 0 1 -7.08657,7.086559 7.086575,7.0865593 0 0 1 -7.08658,-7.086559 7.086575,7.0865593 0 0 1 7.08658,-7.08656 7.086575,7.0865593 0 0 1 7.08657,7.08656 z" />
    <path
       id="path52710"
       style="stroke:#ff0000;stroke-width:0.999213;stroke-linecap:round;stroke-linejoin:bevel;stroke-opacity:0.847059"
       d="m 474.90271,90.574394 a 7.086575,7.0865593 0 0 1 -7.08658,7.08656 7.086575,7.0865593 0 0 1 -7.08657,-7.08656 7.086575,7.0865593 0 0 1 7.08657,-7.086559 7.086575,7.0865593 0 0 1 7.08658,7.086559 z" />
    <path
       id="path52712"
       style="fill:#ff0000;fill-opacity:0.117647;stroke:#ff0000;stroke-width:0.999213;stroke-linecap:round;stroke-linejoin:bevel;stroke-opacity:0.847059"
       d="m 535.139,90.574394 a 7.086575,7.0865593 0 0 1 -7.08657,7.08656 7.086575,7.0865593 0 0 1 -7.08658,-7.08656 7.086575,7.0865593 0 0 1 7.08658,-7.086559 7.086575,7.0865593 0 0 1 7.08657,7.086559 z" />
    <path
       id="path52714"
       style="fill:#ff0000;fill-opacity:0.117647;stroke:#ff0000;stroke-width:0.999213;stroke-linecap:round;stroke-linejoin:bevel;stroke-opacity:0.847059"
       d="m 595.27554,90.574394 a 7.086575,7.0865593 0 0 1 -7.08658,7.08656 7.086575,7.0865593 0 0 1 -7.08657,-7.08656 7.086575,7.0865593 0 0 1 7.08657,-7.086559 7.086575,7.0865593 0 0 1 7.08658,7.086559 z" />
    <path
       id="path52716"
       style="stroke:#ff0000;stroke-width:0.999213;stroke-linecap:round;stroke-linejoin:bevel;stroke-opacity:0.847059"
       d="m 655.61129,90.574394 a 7.086575,7.0865593 0 0 1 -7.08657,7.08656 7.086575,7.0865593 0 0 1 -7.08658,-7.08656 7.086575,7.0865593 0 0 1 7.08658,-7.086559 7.086575,7.0865593 0 0 1 7.08657,7.086559 z" />
    <path
       id="path52718"
       style="fill:#ff0000;fill-opacity:0.117647;stroke:#ff0000;stroke-width:0.999213;stroke-linecap:round;stroke-linejoin:bevel;stroke-opacity:0.847059"
       d="m 474.80304,250.18639 a 7.086575,7.0865593 0 0 1 -7.08658,7.08656 7.086575,7.0865593 0 0 1 -7.08657,-7.08656 7.086575,7.0865593 0 0 1 7.08657,-7.08656 7.086575,7.0865593 0 0 1 7.08658,7.08656 z" />
    <path
       id="path52720"
       style="fill:#ff0000;fill-opacity:0.117647;stroke:#ff0000;stroke-width:0.999213;stroke-linecap:round;stroke-linejoin:bevel;stroke-opacity:0.847059"
       d="m 535.03927,250.18639 a 7.086575,7.0865593 0 0 1 -7.08657,7.08656 7.086575,7.0865593 0 0 1 -7.08658,-7.08656 7.086575,7.0865593 0 0 1 7.08658,-7.08656 7.086575,7.0865593 0 0 1 7.08657,7.08656 z" />
    <path
       id="path52722"
       style="stroke:#ff0000;stroke-width:0.999213;stroke-linecap:round;stroke-linejoin:bevel;stroke-opacity:0.847059"
       d="m 598.81881,250.18639 a 7.086575,7.0865593 0 0 1 -7.08657,7.08656 7.086575,7.0865593 0 0 1 -7.08658,-7.08656 7.086575,7.0865593 0 0 1 7.08658,-7.08656 7.086575,7.0865593 0 0 1 7.08657,7.08656 z" />
    <path
       id="path52724"
       style="fill:#ff0000;fill-opacity:0.117647;stroke:#ff0000;stroke-width:0.999213;stroke-linecap:round;stroke-linejoin:bevel;stroke-opacity:0.847059"
       d="m 655.51168,250.18639 a 7.086575,7.0865593 0 0 1 -7.08657,7.08656 7.086575,7.0865593 0 0 1 -7.08658,-7.08656 7.086575,7.0865593 0 0 1 7.08658,-7.08656 7.086575,7.0865593 0 0 1 7.08657,7.08656 z" />
    <path
       id="path52726"
       style="stroke:#ff0000;stroke-width:0.999213;stroke-linecap:round;stroke-linejoin:bevel;stroke-opacity:0.847059"
       d="m 474.80316,303.33536 a 7.086575,7.0865593 0 0 1 -7.08658,7.08656 7.086575,7.0865593 0 0 1 -7.08657,-7.08656 7.086575,7.0865593 0 0 1 7.08657,-7.08656 7.086575,7.0865593 0 0 1 7.08658,7.08656 z" />
    <path
       id="path52728"
       style="fill:#ff0000;fill-opacity:0.117647;stroke:#ff0000;stroke-width:0.999213;stroke-linecap:round;stroke-linejoin:bevel;stroke-opacity:0.847059"
       d="m 535.03939,303.33536 a 7.086575,7.0865593 0 0 1 -7.08657,7.08656 7.086575,7.0865593 0 0 1 -7.08658,-7.08656 7.086575,7.0865593 0 0 1 7.08658,-7.08656 7.086575,7.0865593 0 0 1 7.08657,7.08656 z" />
    <path
       id="path52730"
       style="fill:#ff0000;fill-opacity:0.117647;stroke:#ff0000;stroke-width:0.999213;stroke-linecap:round;stroke-linejoin:bevel;stroke-opacity:0.847059"
       d="m 595.2756,303.33536 a 7.086575,7.0865593 0 0 1 -7.08657,7.08656 7.086575,7.0865593 0 0 1 -7.08658,-7.08656 7.086575,7.0865593 0 0 1 7.08658,-7.08656 7.086575,7.0865593 0 0 1 7.08657,7.08656 z" />
    <path
       id="path52732"
       style="fill:#ff0000;fill-opacity:0.117647;stroke:#ff0000;stroke-width:0.999213;stroke-linecap:round;stroke-linejoin:bevel;stroke-opacity:0.847059"
       d="m 655.51181,303.33536 a 7.086575,7.0865593 0 0 1 -7.08658,7.08656 7.086575,7.0865593 0 0 1 -7.08657,-7.08656 7.086575,7.0865593 0 0 1 7.08657,-7.08656 7.086575,7.0865593 0 0 1 7.08658,7.08656 z" />
    <path
       id="path52734"
       style="fill:#ff0000;fill-opacity:0.117647;stroke:#ff0000;stroke-width:0.999213;stroke-linecap:round;stroke-linejoin:bevel;stroke-opacity:0.847059"
       d="m 474.80316,356.48538 a 7.086575,7.0865593 0 0 1 -7.08658,7.08656 7.086575,7.0865593 0 0 1 -7.08657,-7.08656 7.086575,7.0865593 0 0 1 7.08657,-7.08656 7.086575,7.0865593 0 0 1 7.08658,7.08656 z" />
    <path
       id="path52736"
       style="fill:#ff0000;fill-opacity:0.117647;stroke:#ff0000;stroke-width:0.999213;stroke-linecap:round;stroke-linejoin:bevel;stroke-opacity:0.847059"
       d="m 535.03939,356.48538 a 7.086575,7.0865593 0 0 1 -7.08657,7.08656 7.086575,7.0865593 0 0 1 -7.08658,-7.08656 7.086575,7.0865593 0 0 1 7.08658,-7.08656 7.086575,7.0865593 0 0 1 7.08657,7.08656 z" />
    <path
       id="path52738"
       style="fill:#ff0000;fill-opacity:0.117647;stroke:#ff0000;stroke-width:0.999213;stroke-linecap:round;stroke-linejoin:bevel;stroke-opacity:0.847059"
       d="m 595.27554,356.48538 a 7.086575,7.0865593 0 0 1 -7.08658,7.08656 7.086575,7.0865593 0 0 1 -7.08657,-7.08656 7.086575,7.0865593 0 0 1 7.08657,-7.08656 7.086575,7.0865593 0 0 1 7.08658,7.08656 z" />
    <path
       id="path52740"
       style="stroke:#ff0000;stroke-width:0.999213;stroke-linecap:round;stroke-linejoin:bevel;stroke-opacity:0.847059"
       d="m 655.51181,356.48538 a 7.086575,7.0865593 0 0 1 -7.08658,7.08656 7.086575,7.0865593 0 0 1 -7.08657,-7.08656 7.086575,7.0865593 0 0 1 7.08657,-7.08656 7.086575,7.0865593 0 0 1 7.08658,7.08656 z" />
    <path
       id="path52742"
       style="fill:#ff0000;fill-opacity:0.117647;stroke:#ff0000;stroke-width:0.999213;stroke-linecap:round;stroke-linejoin:bevel;stroke-opacity:0.847059"
       d="m 474.80328,409.6344 a 7.086575,7.0865593 0 0 1 -7.08657,7.08656 7.086575,7.0865593 0 0 1 -7.08658,-7.08656 7.086575,7.0865593 0 0 1 7.08658,-7.08656 7.086575,7.0865593 0 0 1 7.08657,7.08656 z" />
    <path
       id="path52744"
       style="stroke:#ff0000;stroke-width:0.999213;stroke-linecap:round;stroke-linejoin:bevel;stroke-opacity:0.847059"
       d="m 535.03952,409.6344 a 7.086575,7.0865593 0 0 1 -7.08658,7.08656 7.086575,7.0865593 0 0 1 -7.08657,-7.08656 7.086575,7.0865593 0 0 1 7.08657,-7.08656 7.086575,7.0865593 0 0 1 7.08658,7.08656 z" />
    <path
       id="path52746"
       style="fill:#ff0000;fill-opacity:0.117647;stroke:#ff0000;stroke-width:0.999213;stroke-linecap:round;stroke-linejoin:bevel;stroke-opacity:0.847059"
       d="m 595.27554,409.6344 a 7.086575,7.0865593 0 0 1 -7.08658,7.08656 7.086575,7.0865593 0 0 1 -7.08657,-7.08656 7.086575,7.0865593 0 0 1 7.08657,-7.08656 7.086575,7.0865593 0 0 1 7.08658,7.08656 z" />
    <path
       id="path52748"
       style="fill:#ff0000;fill-opacity:0.117647;stroke:#ff0000;stroke-width:0.999213;stroke-linecap:round;stroke-linejoin:bevel;stroke-opacity:0.847059"
       d="m 655.51193,409.6344 a 7.086575,7.0865593 0 0 1 -7.08658,7.08656 7.086575,7.0865593 0 0 1 -7.08657,-7.08656 7.086575,7.0865593 0 0 1 7.08657,-7.08656 7.086575,7.0865593 0 0 1 7.08658,7.08656 z" />
    <path
       id="path52750"
       style="stroke:#ff0000;stroke-width:0.999213;stroke-linecap:round;stroke-linejoin:bevel;stroke-opacity:0.847059"
       d="m 70.965645,143.72542 a 7.086575,7.0865593 0 0 1 -7.086575,7.08656 7.086575,7.0865593 0 0 1 -7.086575,-7.08656 7.086575,7.0865593 0 0 1 7.086575,-7.08656 7.086575,7.0865593 0 0 1 7.086575,7.08656 z" />
    <path
       id="path52752"
       style="fill:#ff0000;fill-opacity:0.117647;stroke:#ff0000;stroke-width:0.999213;stroke-linecap:round;stroke-linejoin:bevel;stroke-opacity:0.847059"
       d="m 70.965706,196.8744 a 7.086575,7.0865593 0 0 1 -7.086575,7.08656 7.086575,7.0865593 0 0 1 -7.086575,-7.08656 7.086575,7.0865593 0 0 1 7.086575,-7.08655 7.086575,7.0865593 0 0 1 7.086575,7.08655 z" />
    <path
       id="path52754"
       style="fill:#ff0000;fill-opacity:0.117647;stroke:#ff0000;stroke-width:0.999213;stroke-linecap:round;stroke-linejoin:bevel;stroke-opacity:0.847059"
       d="m 70.965584,37.425404 a 7.086575,7.0865593 0 0 1 -7.086575,7.086559 7.086575,7.0865593 0 0 1 -7.086575,-7.086559 7.086575,7.0865593 0 0 1 7.086575,-7.08656 7.086575,7.0865593 0 0 1 7.086575,7.08656 z" />
    <path
       id="path52756"
       style="fill:#ff0000;fill-opacity:0.117647;stroke:#ff0000;stroke-width:0.999213;stroke-linecap:round;stroke-linejoin:bevel;stroke-opacity:0.847059"
       d="m 70.965706,90.574394 a 7.086575,7.0865593 0 0 1 -7.086575,7.08656 7.086575,7.0865593 0 0 1 -7.086575,-7.08656 7.086575,7.0865593 0 0 1 7.086575,-7.086559 7.086575,7.0865593 0 0 1 7.086575,7.086559 z" />
    <path
       id="path52758"
       style="stroke:#ff0000;stroke-width:0.999213;stroke-linecap:round;stroke-linejoin:bevel;stroke-opacity:0.847059"
       d="m 70.866036,250.18639 a 7.086575,7.0865593 0 0 1 -7.086575,7.08656 7.086575,7.0865593 0 0 1 -7.086575,-7.08656 7.086575,7.0865593 0 0 1 7.086575,-7.08656 7.086575,7.0865593 0 0 1 7.086575,7.08656 z" />
    <path
       id="path52760"
       style="stroke:#ff0000;stroke-width:0.999213;stroke-linecap:round;stroke-linejoin:bevel;stroke-opacity:0.847059"
       d="m 70.866158,303.33536 a 7.086575,7.0865593 0 0 1 -7.086575,7.08656 7.086575,7.0865593 0 0 1 -7.086575,-7.08656 7.086575,7.0865593 0 0 1 7.086575,-7.08656 7.086575,7.0865593 0 0 1 7.086575,7.08656 z" />
    <path
       id="path52762"
       style="fill:#ff0000;fill-opacity:0.117647;stroke:#ff0000;stroke-width:0.999213;stroke-linecap:round;stroke-linejoin:bevel;stroke-opacity:0.847059"
       d="m 70.866158,356.48538 a 7.086575,7.0865593 0 0 1 -7.086575,7.08656 7.086575,7.0865593 0 0 1 -7.086575,-7.08656 7.086575,7.0865593 0 0 1 7.086575,-7.08656 7.086575,7.0865593 0 0 1 7.086575,7.08656 z" />
    <path
       id="path52764"
       style="fill:#ff0000;fill-opacity:0.117647;stroke:#ff0000;stroke-width:0.999213;stroke-linecap:round;stroke-linejoin:bevel;stroke-opacity:0.847059"
       d="m 70.86628,409.6344 a 7.086575,7.0865593 0 0 1 -7.086575,7.08656 7.086575,7.0865593 0 0 1 -7.086575,-7.08656 7.086575,7.0865593 0 0 1 7.086575,-7.08656 7.086575,7.0865593 0 0 1 7.086575,7.08656 z" />
    <path
       id="path52766"
       style="fill:#ff0000;fill-opacity:0.117647;stroke:#ff0000;stroke-width:0.999213;stroke-linecap:round;stroke-linejoin:bevel;stroke-opacity:0.847059"
       d="m 95.76875,143.72542 a 7.086575,7.0865593 0 0 1 -7.086575,7.08656 7.086575,7.0865593 0 0 1 -7.086575,-7.08656 7.086575,7.0865593 0 0 1 7.086575,-7.08656 7.086575,7.0865593 0 0 1 7.086575,7.08656 z" />
    <path
       id="path52768"
       style="stroke:#ff0000;stroke-width:0.999213;stroke-linecap:round;stroke-linejoin:bevel;stroke-opacity:0.847059"
       d="m 95.768811,196.8744 a 7.086575,7.0865593 0 0 1 -7.086575,7.08656 7.086575,7.0865593 0 0 1 -7.086575,-7.08656 7.086575,7.0865593 0 0 1 7.086575,-7.08655 7.086575,7.0865593 0 0 1 7.086575,7.08655 z" />
    <path
       id="path52770"
       style="stroke:#ff0000;stroke-width:0.999213;stroke-linecap:round;stroke-linejoin:bevel;stroke-opacity:0.847059"
       d="m 95.768689,37.425404 a 7.086575,7.0865593 0 0 1 -7.086575,7.086559 7.086575,7.0865593 0 0 1 -7.086575,-7.086559 7.086575,7.0865593 0 0 1 7.086575,-7.08656 7.086575,7.0865593 0 0 1 7.086575,7.08656 z" />
    <path
       id="path52772"
       style="stroke:#ff0000;stroke-width:0.999213;stroke-linecap:round;stroke-linejoin:bevel;stroke-opacity:0.847059"
       d="m 95.76875,90.574394 a 7.086575,7.0865593 0 0 1 -7.086575,7.08656 7.086575,7.0865593 0 0 1 -7.086575,-7.08656 7.086575,7.0865593 0 0 1 7.086575,-7.086559 7.086575,7.0865593 0 0 1 7.086575,7.086559 z" />
    <path
       id="path52774"
       style="fill:#ff0000;fill-opacity:0.117647;stroke:#ff0000;stroke-width:0.999213;stroke-linecap:round;stroke-linejoin:bevel;stroke-opacity:0.847059"
       d="m 95.66914,250.18639 a 7.086575,7.0865593 0 0 1 -7.086575,7.08656 7.086575,7.0865593 0 0 1 -7.086575,-7.08656 7.086575,7.0865593 0 0 1 7.086575,-7.08656 7.086575,7.0865593 0 0 1 7.086575,7.08656 z" />
    <path
       id="path52776"
       style="fill:#ff0000;fill-opacity:0.117647;stroke:#ff0000;stroke-width:0.999213;stroke-linecap:round;stroke-linejoin:bevel;stroke-opacity:0.847059"
       d="m 95.669262,303.33536 a 7.086575,7.0865593 0 0 1 -7.086575,7.08656 7.086575,7.0865593 0 0 1 -7.086575,-7.08656 7.086575,7.0865593 0 0 1 7.086575,-7.08656 7.086575,7.0865593 0 0 1 7.086575,7.08656 z" />
    <path
       id="path52778"
       style="stroke:#ff0000;stroke-width:0.999213;stroke-linecap:round;stroke-linejoin:bevel;stroke-opacity:0.847059"
       d="m 95.669262,356.48538 a 7.086575,7.0865593 0 0 1 -7.086575,7.08656 7.086575,7.0865593 0 0 1 -7.086575,-7.08656 7.086575,7.0865593 0 0 1 7.086575,-7.08656 7.086575,7.0865593 0 0 1 7.086575,7.08656 z" />
    <path
       id="path52780"
       style="stroke:#ff0000;stroke-width:0.999213;stroke-linecap:round;stroke-linejoin:bevel;stroke-opacity:0.847059"
       d="m 95.669384,409.6344 a 7.086575,7.0865593 0 0 1 -7.086575,7.08656 7.086575,7.0865593 0 0 1 -7.086575,-7.08656 7.086575,7.0865593 0 0 1 7.086575,-7.08656 7.086575,7.0865593 0 0 1 7.086575,7.08656 z" />
    <path
       id="path52782"
       style="fill:#ff0000;fill-opacity:0.117647;stroke:#ff0000;stroke-width:0.999213;stroke-linecap:round;stroke-linejoin:bevel;stroke-opacity:0.847059"
       d="m 145.37501,143.72542 a 7.086575,7.0865593 0 0 1 -7.08657,7.08656 7.086575,7.0865593 0 0 1 -7.08658,-7.08656 7.086575,7.0865593 0 0 1 7.08658,-7.08656 7.086575,7.0865593 0 0 1 7.08657,7.08656 z" />
    <path
       id="path52784"
       style="stroke:#ff0000;stroke-width:0.999213;stroke-linecap:round;stroke-linejoin:bevel;stroke-opacity:0.847059"
       d="m 145.37513,196.8744 a 7.086575,7.0865593 0 0 1 -7.08657,7.08656 7.086575,7.0865593 0 0 1 -7.08658,-7.08656 7.086575,7.0865593 0 0 1 7.08658,-7.08655 7.086575,7.0865593 0 0 1 7.08657,7.08655 z" />
    <path
       id="path52786"
       style="fill:#ff0000;fill-opacity:0.117647;stroke:#ff0000;stroke-width:0.999213;stroke-linecap:round;stroke-linejoin:bevel;stroke-opacity:0.847059"
       d="m 145.37501,37.425404 a 7.086575,7.0865593 0 0 1 -7.08657,7.086559 7.086575,7.0865593 0 0 1 -7.08658,-7.086559 7.086575,7.0865593 0 0 1 7.08658,-7.08656 7.086575,7.0865593 0 0 1 7.08657,7.08656 z" />
    <path
       id="path52788"
       style="fill:#ff0000;fill-opacity:0.117647;stroke:#ff0000;stroke-width:0.999213;stroke-linecap:round;stroke-linejoin:bevel;stroke-opacity:0.847059"
       d="m 145.37507,90.574394 a 7.086575,7.0865593 0 0 1 -7.08657,7.08656 7.086575,7.0865593 0 0 1 -7.08658,-7.08656 7.086575,7.0865593 0 0 1 7.08658,-7.086559 7.086575,7.0865593 0 0 1 7.08657,7.086559 z" />
    <path
       id="path52790"
       style="fill:#ff0000;fill-opacity:0.117647;stroke:#ff0000;stroke-width:0.999213;stroke-linecap:round;stroke-linejoin:bevel;stroke-opacity:0.847059"
       d="m 145.27546,250.18639 a 7.086575,7.0865593 0 0 1 -7.08657,7.08656 7.086575,7.0865593 0 0 1 -7.08658,-7.08656 7.086575,7.0865593 0 0 1 7.08658,-7.08656 7.086575,7.0865593 0 0 1 7.08657,7.08656 z" />
    <path
       id="path52792"
       style="fill:#ff0000;fill-opacity:0.117647;stroke:#ff0000;stroke-width:0.999213;stroke-linecap:round;stroke-linejoin:bevel;stroke-opacity:0.847059"
       d="m 145.27559,303.33536 a 7.086575,7.0865593 0 0 1 -7.08658,7.08656 7.086575,7.0865593 0 0 1 -7.08657,-7.08656 7.086575,7.0865593 0 0 1 7.08657,-7.08656 7.086575,7.0865593 0 0 1 7.08658,7.08656 z" />
    <path
       id="path52794"
       style="stroke:#ff0000;stroke-width:0.999213;stroke-linecap:round;stroke-linejoin:bevel;stroke-opacity:0.847059"
       d="m 145.27559,356.48538 a 7.086575,7.0865593 0 0 1 -7.08658,7.08656 7.086575,7.0865593 0 0 1 -7.08657,-7.08656 7.086575,7.0865593 0 0 1 7.08657,-7.08656 7.086575,7.0865593 0 0 1 7.08658,7.08656 z" />
    <path
       id="path52796"
       style="stroke:#ff0000;stroke-width:0.999213;stroke-linecap:round;stroke-linejoin:bevel;stroke-opacity:0.847059"
       d="m 145.27565,409.6344 a 7.086575,7.0865593 0 0 1 -7.08658,7.08656 7.086575,7.0865593 0 0 1 -7.08657,-7.08656 7.086575,7.0865593 0 0 1 7.08657,-7.08656 7.086575,7.0865593 0 0 1 7.08658,7.08656 z" />
    <path
       id="path52798"
       style="stroke:#ff0000;stroke-width:0.999213;stroke-linecap:round;stroke-linejoin:bevel;stroke-opacity:0.847059"
       d="m 170.17823,143.72542 a 7.086575,7.0865593 0 0 1 -7.08657,7.08656 7.086575,7.0865593 0 0 1 -7.08658,-7.08656 7.086575,7.0865593 0 0 1 7.08658,-7.08656 7.086575,7.0865593 0 0 1 7.08657,7.08656 z" />
    <path
       id="path52800"
       style="fill:#ff0000;fill-opacity:0.117647;stroke:#ff0000;stroke-width:0.999213;stroke-linecap:round;stroke-linejoin:bevel;stroke-opacity:0.847059"
       d="m 170.17836,196.8744 a 7.086575,7.0865593 0 0 1 -7.08658,7.08656 7.086575,7.0865593 0 0 1 -7.08657,-7.08656 7.086575,7.0865593 0 0 1 7.08657,-7.08655 7.086575,7.0865593 0 0 1 7.08658,7.08655 z" />
    <path
       id="path52802"
       style="stroke:#ff0000;stroke-width:0.999213;stroke-linecap:round;stroke-linejoin:bevel;stroke-opacity:0.847059"
       d="m 170.17817,37.425404 a 7.086575,7.0865593 0 0 1 -7.08657,7.086559 7.086575,7.0865593 0 0 1 -7.08658,-7.086559 7.086575,7.0865593 0 0 1 7.08658,-7.08656 7.086575,7.0865593 0 0 1 7.08657,7.08656 z" />
    <path
       id="path52804"
       style="stroke:#ff0000;stroke-width:0.999213;stroke-linecap:round;stroke-linejoin:bevel;stroke-opacity:0.847059"
       d="m 170.1783,90.574394 a 7.086575,7.0865593 0 0 1 -7.08658,7.08656 7.086575,7.0865593 0 0 1 -7.08657,-7.08656 7.086575,7.0865593 0 0 1 7.08657,-7.086559 7.086575,7.0865593 0 0 1 7.08658,7.086559 z" />
    <path
       id="path52806"
       style="stroke:#ff0000;stroke-width:0.999213;stroke-linecap:round;stroke-linejoin:bevel;stroke-opacity:0.847059"
       d="m 170.07869,250.18639 a 7.086575,7.0865593 0 0 1 -7.08658,7.08656 7.086575,7.0865593 0 0 1 -7.08657,-7.08656 7.086575,7.0865593 0 0 1 7.08657,-7.08656 7.086575,7.0865593 0 0 1 7.08658,7.08656 z" />
    <path
       id="path52808"
       style="stroke:#ff0000;stroke-width:0.999213;stroke-linecap:round;stroke-linejoin:bevel;stroke-opacity:0.847059"
       d="m 170.07875,303.33536 a 7.086575,7.0865593 0 0 1 -7.08658,7.08656 7.086575,7.0865593 0 0 1 -7.08657,-7.08656 7.086575,7.0865593 0 0 1 7.08657,-7.08656 7.086575,7.0865593 0 0 1 7.08658,7.08656 z" />
    <path
       id="path52810"
       style="fill:#ff0000;fill-opacity:0.117647;stroke:#ff0000;stroke-width:0.999213;stroke-linecap:round;stroke-linejoin:bevel;stroke-opacity:0.847059"
       d="m 170.07875,356.48538 a 7.086575,7.0865593 0 0 1 -7.08658,7.08656 7.086575,7.0865593 0 0 1 -7.08657,-7.08656 7.086575,7.0865593 0 0 1 7.08657,-7.08656 7.086575,7.0865593 0 0 1 7.08658,7.08656 z" />
    <path
       id="path52812"
       style="fill:#ff0000;fill-opacity:0.117647;stroke:#ff0000;stroke-width:0.999213;stroke-linecap:round;stroke-linejoin:bevel;stroke-opacity:0.847059"
       d="m 170.07887,409.6344 a 7.086575,7.0865593 0 0 1 -7.08658,7.08656 7.086575,7.0865593 0 0 1 -7.08657,-7.08656 7.086575,7.0865593 0 0 1 7.08657,-7.08656 7.086575,7.0865593 0 0 1 7.08658,7.08656 z" />
    <path
       id="path52814"
       style="fill:#ff0000;fill-opacity:0.117647;stroke:#ff0000;stroke-width:0.999213;stroke-linecap:round;stroke-linejoin:bevel;stroke-opacity:0.847059"
       d="m 219.78456,143.72542 a 7.086575,7.0865593 0 0 1 -7.08658,7.08656 7.086575,7.0865593 0 0 1 -7.08657,-7.08656 7.086575,7.0865593 0 0 1 7.08657,-7.08656 7.086575,7.0865593 0 0 1 7.08658,7.08656 z" />
    <path
       id="path52816"
       style="fill:#ff0000;fill-opacity:0.117647;stroke:#ff0000;stroke-width:0.999213;stroke-linecap:round;stroke-linejoin:bevel;stroke-opacity:0.847059"
       d="m 219.78462,196.8744 a 7.086575,7.0865593 0 0 1 -7.08658,7.08656 7.086575,7.0865593 0 0 1 -7.08657,-7.08656 7.086575,7.0865593 0 0 1 7.08657,-7.08655 7.086575,7.0865593 0 0 1 7.08658,7.08655 z" />
    <path
       id="path52818"
       style="stroke:#ff0000;stroke-width:0.999213;stroke-linecap:round;stroke-linejoin:bevel;stroke-opacity:0.847059"
       d="m 219.7845,37.425404 a 7.086575,7.0865593 0 0 1 -7.08658,7.086559 7.086575,7.0865593 0 0 1 -7.08657,-7.086559 7.086575,7.0865593 0 0 1 7.08657,-7.08656 7.086575,7.0865593 0 0 1 7.08658,7.08656 z" />
    <path
       id="path52820"
       style="fill:#ff0000;fill-opacity:0.117647;stroke:#ff0000;stroke-width:0.999213;stroke-linecap:round;stroke-linejoin:bevel;stroke-opacity:0.847059"
       d="m 219.78456,90.574394 a 7.086575,7.0865593 0 0 1 -7.08658,7.08656 7.086575,7.0865593 0 0 1 -7.08657,-7.08656 7.086575,7.0865593 0 0 1 7.08657,-7.086559 7.086575,7.0865593 0 0 1 7.08658,7.086559 z" />
    <path
       id="path52822"
       style="stroke:#ff0000;stroke-width:0.999213;stroke-linecap:round;stroke-linejoin:bevel;stroke-opacity:0.847059"
       d="m 219.68495,250.18639 a 7.086575,7.0865593 0 0 1 -7.08658,7.08656 7.086575,7.0865593 0 0 1 -7.08657,-7.08656 7.086575,7.0865593 0 0 1 7.08657,-7.08656 7.086575,7.0865593 0 0 1 7.08658,7.08656 z" />
    <path
       id="path52824"
       style="fill:#ff0000;fill-opacity:0.117647;stroke:#ff0000;stroke-width:0.999213;stroke-linecap:round;stroke-linejoin:bevel;stroke-opacity:0.847059"
       d="m 219.68507,303.33536 a 7.086575,7.0865593 0 0 1 -7.08657,7.08656 7.086575,7.0865593 0 0 1 -7.08658,-7.08656 7.086575,7.0865593 0 0 1 7.08658,-7.08656 7.086575,7.0865593 0 0 1 7.08657,7.08656 z" />
    <path
       id="path52826"
       style="stroke:#ff0000;stroke-width:0.999213;stroke-linecap:round;stroke-linejoin:bevel;stroke-opacity:0.847059"
       d="m 219.68507,356.48538 a 7.086575,7.0865593 0 0 1 -7.08657,7.08656 7.086575,7.0865593 0 0 1 -7.08658,-7.08656 7.086575,7.0865593 0 0 1 7.08658,-7.08656 7.086575,7.0865593 0 0 1 7.08657,7.08656 z" />
    <path
       id="path52828"
       style="fill:#ff0000;fill-opacity:0.117647;stroke:#ff0000;stroke-width:0.999213;stroke-linecap:round;stroke-linejoin:bevel;stroke-opacity:0.847059"
       d="m 219.68519,409.6344 a 7.086575,7.0865593 0 0 1 -7.08657,7.08656 7.086575,7.0865593 0 0 1 -7.08658,-7.08656 7.086575,7.0865593 0 0 1 7.08658,-7.08656 7.086575,7.0865593 0 0 1 7.08657,7.08656 z" />
    <path
       id="path52830"
       style="stroke:#ff0000;stroke-width:0.999213;stroke-linecap:round;stroke-linejoin:bevel;stroke-opacity:0.847059"
       d="m 244.58766,143.72542 a 7.086575,7.0865593 0 0 1 -7.08658,7.08656 7.086575,7.0865593 0 0 1 -7.08657,-7.08656 7.086575,7.0865593 0 0 1 7.08657,-7.08656 7.086575,7.0865593 0 0 1 7.08658,7.08656 z" />
    <path
       id="path52832"
       style="stroke:#ff0000;stroke-width:0.999213;stroke-linecap:round;stroke-linejoin:bevel;stroke-opacity:0.847059"
       d="m 244.58772,196.8744 a 7.086575,7.0865593 0 0 1 -7.08658,7.08656 7.086575,7.0865593 0 0 1 -7.08657,-7.08656 7.086575,7.0865593 0 0 1 7.08657,-7.08655 7.086575,7.0865593 0 0 1 7.08658,7.08655 z" />
    <path
       id="path52834"
       style="fill:#ff0000;fill-opacity:0.117647;stroke:#ff0000;stroke-width:0.999213;stroke-linecap:round;stroke-linejoin:bevel;stroke-opacity:0.847059"
       d="m 244.5876,37.425404 a 7.086575,7.0865593 0 0 1 -7.08658,7.086559 7.086575,7.0865593 0 0 1 -7.08657,-7.086559 7.086575,7.0865593 0 0 1 7.08657,-7.08656 7.086575,7.0865593 0 0 1 7.08658,7.08656 z" />
    <path
       id="path52836"
       style="stroke:#ff0000;stroke-width:0.999213;stroke-linecap:round;stroke-linejoin:bevel;stroke-opacity:0.847059"
       d="m 244.58766,90.574394 a 7.086575,7.0865593 0 0 1 -7.08658,7.08656 7.086575,7.0865593 0 0 1 -7.08657,-7.08656 7.086575,7.0865593 0 0 1 7.08657,-7.086559 7.086575,7.0865593 0 0 1 7.08658,7.086559 z" />
    <path
       id="path52838"
       style="fill:#ff0000;fill-opacity:0.117647;stroke:#ff0000;stroke-width:0.999213;stroke-linecap:round;stroke-linejoin:bevel;stroke-opacity:0.847059"
       d="m 244.48805,250.18639 a 7.086575,7.0865593 0 0 1 -7.08658,7.08656 7.086575,7.0865593 0 0 1 -7.08657,-7.08656 7.086575,7.0865593 0 0 1 7.08657,-7.08656 7.086575,7.0865593 0 0 1 7.08658,7.08656 z" />
    <path
       id="path52840"
       style="stroke:#ff0000;stroke-width:0.999213;stroke-linecap:round;stroke-linejoin:bevel;stroke-opacity:0.847059"
       d="m 244.48817,303.33536 a 7.086575,7.0865593 0 0 1 -7.08657,7.08656 7.086575,7.0865593 0 0 1 -7.08658,-7.08656 7.086575,7.0865593 0 0 1 7.08658,-7.08656 7.086575,7.0865593 0 0 1 7.08657,7.08656 z" />
    <path
       id="path52842"
       style="fill:#ff0000;fill-opacity:0.117647;stroke:#ff0000;stroke-width:0.999213;stroke-linecap:round;stroke-linejoin:bevel;stroke-opacity:0.847059"
       d="m 244.48817,356.48538 a 7.086575,7.0865593 0 0 1 -7.08657,7.08656 7.086575,7.0865593 0 0 1 -7.08658,-7.08656 7.086575,7.0865593 0 0 1 7.08658,-7.08656 7.086575,7.0865593 0 0 1 7.08657,7.08656 z" />
    <path
       id="path52844"
       style="stroke:#ff0000;stroke-width:0.999213;stroke-linecap:round;stroke-linejoin:bevel;stroke-opacity:0.847059"
       d="m 244.48829,409.6344 a 7.086575,7.0865593 0 0 1 -7.08657,7.08656 7.086575,7.0865593 0 0 1 -7.08658,-7.08656 7.086575,7.0865593 0 0 1 7.08658,-7.08656 7.086575,7.0865593 0 0 1 7.08657,7.08656 z" />
    <path
       id="path52846"
       style="fill:#ff0000;fill-opacity:0.117647;stroke:#ff0000;stroke-width:0.999213;stroke-linecap:round;stroke-linejoin:bevel;stroke-opacity:0.847059"
       d="m 294.19391,143.72542 a 7.086575,7.0865593 0 0 1 -7.08658,7.08656 7.086575,7.0865593 0 0 1 -7.08657,-7.08656 7.086575,7.0865593 0 0 1 7.08657,-7.08656 7.086575,7.0865593 0 0 1 7.08658,7.08656 z" />
    <path
       id="path52848"
       style="fill:#ff0000;fill-opacity:0.117647;stroke:#ff0000;stroke-width:0.999213;stroke-linecap:round;stroke-linejoin:bevel;stroke-opacity:0.847059"
       d="m 294.19403,196.8744 a 7.086575,7.0865593 0 0 1 -7.08658,7.08656 7.086575,7.0865593 0 0 1 -7.08657,-7.08656 7.086575,7.0865593 0 0 1 7.08657,-7.08655 7.086575,7.0865593 0 0 1 7.08658,7.08655 z" />
    <path
       id="path52850"
       style="fill:#ff0000;fill-opacity:0.117647;stroke:#ff0000;stroke-width:0.999213;stroke-linecap:round;stroke-linejoin:bevel;stroke-opacity:0.847059"
       d="m 294.19391,37.425404 a 7.086575,7.0865593 0 0 1 -7.08658,7.086559 7.086575,7.0865593 0 0 1 -7.08657,-7.086559 7.086575,7.0865593 0 0 1 7.08657,-7.08656 7.086575,7.0865593 0 0 1 7.08658,7.08656 z" />
    <path
       id="path52852"
       style="stroke:#ff0000;stroke-width:0.999213;stroke-linecap:round;stroke-linejoin:bevel;stroke-opacity:0.847059"
       d="m 294.19397,90.574394 a 7.086575,7.0865593 0 0 1 -7.08658,7.08656 7.086575,7.0865593 0 0 1 -7.08657,-7.08656 7.086575,7.0865593 0 0 1 7.08657,-7.086559 7.086575,7.0865593 0 0 1 7.08658,7.086559 z" />
    <path
       id="path52854"
       style="fill:#ff0000;fill-opacity:0.117647;stroke:#ff0000;stroke-width:0.999213;stroke-linecap:round;stroke-linejoin:bevel;stroke-opacity:0.847059"
       d="m 294.09436,250.18639 a 7.086575,7.0865593 0 0 1 -7.08658,7.08656 7.086575,7.0865593 0 0 1 -7.08657,-7.08656 7.086575,7.0865593 0 0 1 7.08657,-7.08656 7.086575,7.0865593 0 0 1 7.08658,7.08656 z" />
    <path
       id="path52856"
       style="stroke:#ff0000;stroke-width:0.999213;stroke-linecap:round;stroke-linejoin:bevel;stroke-opacity:0.847059"
       d="m 294.09448,303.33536 a 7.086575,7.0865593 0 0 1 -7.08658,7.08656 7.086575,7.0865593 0 0 1 -7.08657,-7.08656 7.086575,7.0865593 0 0 1 7.08657,-7.08656 7.086575,7.0865593 0 0 1 7.08658,7.08656 z" />
    <path
       id="path52858"
       style="fill:#ff0000;fill-opacity:0.117647;stroke:#ff0000;stroke-width:0.999213;stroke-linecap:round;stroke-linejoin:bevel;stroke-opacity:0.847059"
       d="m 294.09448,356.48538 a 7.086575,7.0865593 0 0 1 -7.08658,7.08656 7.086575,7.0865593 0 0 1 -7.08657,-7.08656 7.086575,7.0865593 0 0 1 7.08657,-7.08656 7.086575,7.0865593 0 0 1 7.08658,7.08656 z" />
    <path
       id="path52860"
       style="stroke:#ff0000;stroke-width:0.999213;stroke-linecap:round;stroke-linejoin:bevel;stroke-opacity:0.847059"
       d="m 294.09454,409.6344 a 7.086575,7.0865593 0 0 1 -7.08657,7.08656 7.086575,7.0865593 0 0 1 -7.08658,-7.08656 7.086575,7.0865593 0 0 1 7.08658,-7.08656 7.086575,7.0865593 0 0 1 7.08657,7.08656 z" />
    <path
       id="path52862"
       style="stroke:#ff0000;stroke-width:0.999213;stroke-linecap:round;stroke-linejoin:bevel;stroke-opacity:0.847059"
       d="m 318.99701,143.72542 a 7.086575,7.0865593 0 0 1 -7.08658,7.08656 7.086575,7.0865593 0 0 1 -7.08657,-7.08656 7.086575,7.0865593 0 0 1 7.08657,-7.08656 7.086575,7.0865593 0 0 1 7.08658,7.08656 z" />
    <path
       id="path52864"
       style="stroke:#ff0000;stroke-width:0.999213;stroke-linecap:round;stroke-linejoin:bevel;stroke-opacity:0.847059"
       d="m 318.99713,196.8744 a 7.086575,7.0865593 0 0 1 -7.08658,7.08656 7.086575,7.0865593 0 0 1 -7.08657,-7.08656 7.086575,7.0865593 0 0 1 7.08657,-7.08655 7.086575,7.0865593 0 0 1 7.08658,7.08655 z" />
    <path
       id="path52866"
       style="stroke:#ff0000;stroke-width:0.999213;stroke-linecap:round;stroke-linejoin:bevel;stroke-opacity:0.847059"
       d="m 318.99701,37.425404 a 7.086575,7.0865593 0 0 1 -7.08658,7.086559 7.086575,7.0865593 0 0 1 -7.08657,-7.086559 7.086575,7.0865593 0 0 1 7.08657,-7.08656 7.086575,7.0865593 0 0 1 7.08658,7.08656 z" />
    <path
       id="path52868"
       style="fill:#ff0000;fill-opacity:0.117647;stroke:#ff0000;stroke-width:0.999213;stroke-linecap:round;stroke-linejoin:bevel;stroke-opacity:0.847059"
       d="m 318.99707,90.574394 a 7.086575,7.0865593 0 0 1 -7.08658,7.08656 7.086575,7.0865593 0 0 1 -7.08657,-7.08656 7.086575,7.0865593 0 0 1 7.08657,-7.086559 7.086575,7.0865593 0 0 1 7.08658,7.086559 z" />
    <path
       id="path52870"
       style="stroke:#ff0000;stroke-width:0.999213;stroke-linecap:round;stroke-linejoin:bevel;stroke-opacity:0.847059"
       d="m 318.89746,250.18639 a 7.086575,7.0865593 0 0 1 -7.08658,7.08656 7.086575,7.0865593 0 0 1 -7.08657,-7.08656 7.086575,7.0865593 0 0 1 7.08657,-7.08656 7.086575,7.0865593 0 0 1 7.08658,7.08656 z" />
    <path
       id="path52872"
       style="fill:#ff0000;fill-opacity:0.117647;stroke:#ff0000;stroke-width:0.999213;stroke-linecap:round;stroke-linejoin:bevel;stroke-opacity:0.847059"
       d="m 318.89758,303.33536 a 7.086575,7.0865593 0 0 1 -7.08658,7.08656 7.086575,7.0865593 0 0 1 -7.08657,-7.08656 7.086575,7.0865593 0 0 1 7.08657,-7.08656 7.086575,7.0865593 0 0 1 7.08658,7.08656 z" />
    <path
       id="path52874"
       style="stroke:#ff0000;stroke-width:0.999213;stroke-linecap:round;stroke-linejoin:bevel;stroke-opacity:0.847059"
       d="m 318.89758,356.48538 a 7.086575,7.0865593 0 0 1 -7.08658,7.08656 7.086575,7.0865593 0 0 1 -7.08657,-7.08656 7.086575,7.0865593 0 0 1 7.08657,-7.08656 7.086575,7.0865593 0 0 1 7.08658,7.08656 z" />
    <path
       id="path52876"
       style="fill:#ff0000;fill-opacity:0.117647;stroke:#ff0000;stroke-width:0.999213;stroke-linecap:round;stroke-linejoin:bevel;stroke-opacity:0.847059"
       d="m 318.89764,409.6344 a 7.086575,7.0865593 0 0 1 -7.08657,7.08656 7.086575,7.0865593 0 0 1 -7.08658,-7.08656 7.086575,7.0865593 0 0 1 7.08658,-7.08656 7.086575,7.0865593 0 0 1 7.08657,7.08656 z" />
  </g>
</svg>
