<?xml version="1.0" encoding="UTF-8" standalone="no"?>
<!-- Created with Inkscape (http://www.inkscape.org/) -->

<svg
   width="106.51643mm"
   height="89.651085mm"
   id="svg19791"
   version="1.0"
   viewBox="0 0 377.42043 317.66132"
   xmlns="http://www.w3.org/2000/svg"
   xmlns:svg="http://www.w3.org/2000/svg"
   xmlns:rdf="http://www.w3.org/1999/02/22-rdf-syntax-ns#"
   xmlns:cc="http://creativecommons.org/ns#"
   xmlns:dc="http://purl.org/dc/elements/1.1/">
  <defs
     id="defs3">
    <marker
       style="overflow:visible"
       id="marker18753"
       refX="0"
       refY="0"
       orient="auto">
      <path
         transform="matrix(0.4,0,0,0.4,2.96,0.4)"
         style="fill-rule:evenodd;stroke:#000000;stroke-width:1.00000003pt;marker-start:none;marker-end:none"
         d="m -2.5,-1 c 0,2.76 -2.24,5 -5,5 -2.76,0 -5,-2.24 -5,-5 0,-2.76 2.24,-5 5,-5 2.76,0 5,2.24 5,5 z"
         id="path18755" />
    </marker>
  </defs>
  <metadata
     id="metadata4">
    <rdf:RDF>
      <cc:Work
         rdf:about="">
        <dc:format>image/svg+xml</dc:format>
        <dc:type
           rdf:resource="http://purl.org/dc/dcmitype/StillImage" />
        <dc:title />
      </cc:Work>
    </rdf:RDF>
  </metadata>
  <g
     id="layer1"
     transform="translate(-26.516559,-74.159441)">
    <g
       transform="rotate(90,-36.56469,258.51141)"
       id="g56126">
      <path
         style="fill:none;stroke:#000000;stroke-width:1px;stroke-linecap:butt;stroke-linejoin:miter;stroke-opacity:1"
         d="m 16.734921,-22.541473 38.976378,-3e-6"
         id="path56130" />
      <path
         id="path56134"
         d="m -188.77689,-11.911548 184.2519685,-4e-6"
         style="fill:none;stroke:#000000;stroke-width:1px;stroke-linecap:butt;stroke-linejoin:miter;stroke-opacity:1;marker-start:url(#marker18753)" />
      <path
         style="fill:none;stroke:#000000;stroke-width:1px;stroke-linecap:butt;stroke-linejoin:miter;stroke-opacity:1;marker-start:url(#marker18753)"
         d="m -103.73752,-33.17139 99.2125985,-4e-6"
         id="path11603" />
      <path
         id="path13997"
         d="m -114.36744,-22.541469 109.8425185,-4e-6"
         style="fill:none;stroke:#000000;stroke-width:1px;stroke-linecap:butt;stroke-linejoin:miter;stroke-opacity:1;marker-start:url(#marker18753)" />
      <path
         style="fill:#ffeeaa;fill-opacity:1;stroke:#000000;stroke-width:1px;stroke-linecap:butt;stroke-linejoin:miter;stroke-opacity:1"
         d="m -11.611536,-40.258009 c 7.0866149,10.629922 7.0866149,24.80315 0,35.4330707 7.0866149,4e-7 24.80315,-3.5433067 28.346457,-17.7165347 -3.543307,-14.173229 -21.2598421,-17.716536 -28.346457,-17.716536 z"
         id="path56132" />
    </g>
    <path
       style="fill:none;stroke:#000000;stroke-width:1px;stroke-linecap:butt;stroke-linejoin:miter;stroke-opacity:1"
       d="M 70.866142,138.18897 H 106.29921"
       id="path9016" />
    <path
       id="path9018"
       d="M 70.866142,162.99213 H 106.29921"
       style="fill:none;stroke:#000000;stroke-width:1px;stroke-linecap:butt;stroke-linejoin:miter;stroke-opacity:1" />
    <path
       style="fill:none;stroke:#000000;stroke-width:1px;stroke-linecap:butt;stroke-linejoin:miter;stroke-opacity:1"
       d="M 70.866142,187.79527 H 106.29921"
       id="path9020" />
    <path
       id="path9187"
       d="M 70.866142,212.59842 H 106.29921"
       style="fill:none;stroke:#000000;stroke-width:1px;stroke-linecap:butt;stroke-linejoin:miter;stroke-opacity:1" />
    <g
       transform="translate(-7.3228337,24.598439)"
       id="g12724">
      <g
         aria-label="BA"
         id="text12420"
         style="line-height:0%;font-family:Iwona;-inkscape-font-specification:Iwona;text-align:end;text-anchor:end">
        <path
           d="m 48.76915,114.85384 c 0,-1.32 -0.864,-2.016 -2.124,-2.28 0.924,-0.276 1.536,-0.876 1.536,-1.896 0,-1.464 -1.26,-2.064 -2.88,-2.064 -0.624,0 -1.248,0.036 -1.872,0.12 h -0.96 v 8.4 h 0.96 l 1.872,0.12 c 1.944,0 3.468,-0.66 3.468,-2.4 z m -1.572,-4.176 c 0,1.212 -1.356,1.836 -2.712,1.836 h -1.032 v -3.228 c 0.612,-0.084 1.236,-0.12 1.848,-0.12 0.984,0 1.896,0.6 1.896,1.512 z m 0.396,4.176 c 0,1.104 -1.092,1.848 -2.292,1.848 -0.612,0 -1.236,-0.036 -1.848,-0.12 v -3.648 h 1.548 c 1.32,0 2.592,0.708 2.592,1.92 z"
           style="font-size:12px;line-height:1.25"
           id="path863" />
        <path
           d="m 56.809143,117.13384 -3.048,-8.4 h -1.044 l -3.108,8.4 h 0.588 l 1.092,-2.94 h 3.408 l 1.068,2.94 z m -2.316,-3.492 h -3 l 1.512,-4.104 z"
           style="font-size:12px;line-height:1.25"
           id="path865" />
      </g>
      <g
         transform="rotate(-90,149.03937,354.31495)"
         id="g12716">
        <path
           id="path12722"
           d="m 396.8504,265.74802 h -14.17322 v 10.62992 l 7.08661,7.08661 7.08661,-7.08661 z"
           style="fill:#d5f6ff;fill-opacity:1;stroke:#000000;stroke-width:1px;stroke-linecap:butt;stroke-linejoin:miter;stroke-opacity:1" />
      </g>
    </g>
    <g
       id="g12730"
       transform="translate(-7.3228437,49.401589)">
      <g
         aria-label="BR"
         id="text12732"
         style="line-height:0%;font-family:Iwona;-inkscape-font-specification:Iwona;text-align:end;text-anchor:end">
        <path
           d="m 48.361153,114.85384 c 0,-1.32 -0.864,-2.016 -2.124,-2.28 0.924,-0.276 1.536,-0.876 1.536,-1.896 0,-1.464 -1.26,-2.064 -2.88,-2.064 -0.624,0 -1.248,0.036 -1.872,0.12 h -0.96 v 8.4 h 0.96 l 1.872,0.12 c 1.944,0 3.468,-0.66 3.468,-2.4 z m -1.572,-4.176 c 0,1.212 -1.356,1.836 -2.712,1.836 h -1.032 v -3.228 c 0.612,-0.084 1.236,-0.12 1.848,-0.12 0.984,0 1.896,0.6 1.896,1.512 z m 0.396,4.176 c 0,1.104 -1.092,1.848 -2.292,1.848 -0.612,0 -1.236,-0.036 -1.848,-0.12 v -3.648 h 1.548 c 1.32,0 2.592,0.708 2.592,1.92 z"
           style="font-size:12px;line-height:1.25"
           id="path868" />
        <path
           d="m 56.809146,117.13384 -2.556,-3.804 c 1.308,-0.252 2.208,-0.972 2.208,-2.316 0,-1.692 -1.452,-2.4 -3.336,-2.4 -0.672,0 -1.344,0.036 -2.004,0.12 h -0.96 v 8.4 h 0.984 v -3.9 c 0.648,0.12 1.32,0.192 1.98,0.192 l 2.508,3.708 z m -1.524,-6.12 c 0,1.092 -1.02,1.86 -2.16,1.86 -0.66,0 -1.332,-0.072 -1.98,-0.192 v -3.396 c 0.66,-0.084 1.32,-0.12 1.98,-0.12 1.14,0 2.16,0.768 2.16,1.848 z"
           style="font-size:12px;line-height:1.25"
           id="path870" />
      </g>
      <g
         id="g12736"
         transform="rotate(-90,149.03937,354.31494)">
        <path
           style="fill:#d5f6ff;fill-opacity:1;stroke:#000000;stroke-width:1px;stroke-linecap:butt;stroke-linejoin:miter;stroke-opacity:1"
           d="m 396.8504,265.74802 h -14.17322 v 10.62992 l 7.08661,7.08661 7.08661,-7.08661 z"
           id="path12738" />
      </g>
    </g>
    <g
       transform="translate(-3.7795237,74.204739)"
       id="g12740">
      <g
         aria-label="BG"
         id="text12742"
         style="line-height:0%;font-family:Iwona;-inkscape-font-specification:Iwona;text-align:end;text-anchor:end">
        <path
           d="m 43.929848,114.85384 c 0,-1.32 -0.864,-2.016 -2.124,-2.28 0.924,-0.276 1.536,-0.876 1.536,-1.896 0,-1.464 -1.26,-2.064 -2.88,-2.064 -0.624,0 -1.248,0.036 -1.872,0.12 h -0.96 v 8.4 h 0.96 l 1.872,0.12 c 1.944,0 3.468,-0.66 3.468,-2.4 z m -1.572,-4.176 c 0,1.212 -1.356,1.836 -2.712,1.836 h -1.032 v -3.228 c 0.612,-0.084 1.236,-0.12 1.848,-0.12 0.984,0 1.896,0.6 1.896,1.512 z m 0.396,4.176 c 0,1.104 -1.092,1.848 -2.292,1.848 -0.612,0 -1.236,-0.036 -1.848,-0.12 v -3.648 h 1.548 c 1.32,0 2.592,0.708 2.592,1.92 z"
           style="font-size:12px;line-height:1.25"
           id="path873" />
        <path
           d="m 52.425841,117.13384 v -3.528 h -0.984 v 2.316 c -0.624,0.504 -1.392,0.78 -2.196,0.78 -1.908,0 -2.7,-1.644 -2.7,-3.768 0,-2.124 0.792,-3.768 2.7,-3.768 1.128,0 2.196,0.444 2.988,1.248 v -0.552 c -0.792,-0.804 -1.86,-1.248 -2.988,-1.248 -2.472,0 -3.876,1.752 -3.876,4.32 0,2.568 1.404,4.32 3.876,4.32 0.804,0 1.572,-0.276 2.196,-0.78 v 0.66 z"
           style="font-size:12px;line-height:1.25"
           id="path875" />
      </g>
      <g
         transform="rotate(-90,147.26771,356.0866)"
         id="g12746">
        <path
           id="path12748"
           d="m 396.8504,265.74802 h -14.17322 v 10.62992 l 7.08661,7.08661 7.08661,-7.08661 z"
           style="fill:#d5f6ff;fill-opacity:1;stroke:#000000;stroke-width:1px;stroke-linecap:butt;stroke-linejoin:miter;stroke-opacity:1" />
      </g>
    </g>
    <g
       id="g12750"
       transform="translate(-7.3228437,99.007891)">
      <g
         aria-label="BD"
         id="text12752"
         style="line-height:0%;font-family:Iwona;-inkscape-font-specification:Iwona;text-align:end;text-anchor:end">
        <path
           d="m 47.233158,114.85384 c 0,-1.32 -0.864,-2.016 -2.124,-2.28 0.924,-0.276 1.536,-0.876 1.536,-1.896 0,-1.464 -1.26,-2.064 -2.88,-2.064 -0.624,0 -1.248,0.036 -1.872,0.12 h -0.96 v 8.4 h 0.96 l 1.872,0.12 c 1.944,0 3.468,-0.66 3.468,-2.4 z m -1.572,-4.176 c 0,1.212 -1.356,1.836 -2.712,1.836 h -1.032 v -3.228 c 0.612,-0.084 1.236,-0.12 1.848,-0.12 0.984,0 1.896,0.6 1.896,1.512 z m 0.396,4.176 c 0,1.104 -1.092,1.848 -2.292,1.848 -0.612,0 -1.236,-0.036 -1.848,-0.12 v -3.648 h 1.548 c 1.32,0 2.592,0.708 2.592,1.92 z"
           style="font-size:12px;line-height:1.25"
           id="path878" />
        <path
           d="m 56.209152,112.93384 c 0,-2.568 -1.404,-4.32 -3.876,-4.32 -0.744,0 -1.488,0.036 -2.22,0.12 h -0.96 v 8.4 h 0.96 c 0.732,0.084 1.476,0.12 2.22,0.12 2.472,0 3.876,-1.752 3.876,-4.32 z m -1.176,0 c 0,1.908 -0.972,3.768 -2.7,3.768 -0.732,0 -1.464,-0.036 -2.196,-0.12 v -7.296 c 0.732,-0.084 1.464,-0.12 2.196,-0.12 1.728,0 2.7,1.86 2.7,3.768 z"
           style="font-size:12px;line-height:1.25"
           id="path880" />
      </g>
      <g
         id="g12756"
         transform="rotate(-90,149.03937,354.31494)">
        <path
           style="fill:#d5f6ff;fill-opacity:1;stroke:#000000;stroke-width:1px;stroke-linecap:butt;stroke-linejoin:miter;stroke-opacity:1"
           d="m 396.8504,265.74802 h -14.17322 v 10.62992 l 7.08661,7.08661 7.08661,-7.08661 z"
           id="path12758" />
      </g>
    </g>
    <g
       id="g6686"
       transform="translate(-88.976386,-287.67717)">
      <g
         aria-label="MGA"
         id="text6631"
         style="line-height:0%;font-family:Iwona;-inkscape-font-specification:Iwona;text-align:center;text-anchor:middle">
        <path
           d="m 329.4846,672.29132 -0.48,-8.4 h -0.792 l -3.372,7.092 -3.384,-7.092 h -0.792 l -0.48,8.4 h 0.552 l 0.384,-6.804 3.252,6.804 h 0.444 l 3.288,-6.888 0.396,6.888 z"
           style="font-size:12px;line-height:1.25"
           id="path883" />
        <path
           d="m 337.98058,672.29132 v -3.528 h -0.984 v 2.316 c -0.624,0.504 -1.392,0.78 -2.196,0.78 -1.908,0 -2.7,-1.644 -2.7,-3.768 0,-2.124 0.792,-3.768 2.7,-3.768 1.128,0 2.196,0.444 2.988,1.248 v -0.552 c -0.792,-0.804 -1.86,-1.248 -2.988,-1.248 -2.472,0 -3.876,1.752 -3.876,4.32 0,2.568 1.404,4.32 3.876,4.32 0.804,0 1.572,-0.276 2.196,-0.78 v 0.66 z"
           style="font-size:12px;line-height:1.25"
           id="path885" />
        <path
           d="m 346.26057,672.29132 -3.048,-8.4 h -1.044 l -3.108,8.4 h 0.588 l 1.092,-2.94 h 3.408 l 1.068,2.94 z m -2.316,-3.492 h -3 l 1.512,-4.104 z"
           style="font-size:12px;line-height:1.25"
           id="path887" />
      </g>
      <g
         id="g6635"
         transform="translate(-56.29921,372.71654)">
        <path
           style="fill:#d5f6ff;fill-opacity:1;stroke:#000000;stroke-width:1px;stroke-linecap:butt;stroke-linejoin:miter;stroke-opacity:1"
           d="m 396.8504,265.74802 h -14.17322 v 10.62992 l 7.08661,7.08661 7.08661,-7.08661 z"
           id="path6637" />
      </g>
    </g>
    <g
       id="g6692"
       transform="translate(-99.606293,-287.67716)">
      <g
         aria-label="MGR"
         id="text6641"
         style="line-height:0%;font-family:Iwona;-inkscape-font-specification:Iwona;text-align:center;text-anchor:middle">
        <path
           d="m 382.43019,672.29132 -0.48,-8.4 h -0.792 l -3.372,7.092 -3.384,-7.092 h -0.792 l -0.48,8.4 h 0.552 l 0.384,-6.804 3.252,6.804 h 0.444 l 3.288,-6.888 0.396,6.888 z"
           style="font-size:12px;line-height:1.25"
           id="path890" />
        <path
           d="m 390.92618,672.29132 v -3.528 h -0.984 v 2.316 c -0.624,0.504 -1.392,0.78 -2.196,0.78 -1.908,0 -2.7,-1.644 -2.7,-3.768 0,-2.124 0.792,-3.768 2.7,-3.768 1.128,0 2.196,0.444 2.988,1.248 v -0.552 c -0.792,-0.804 -1.86,-1.248 -2.988,-1.248 -2.472,0 -3.876,1.752 -3.876,4.32 0,2.568 1.404,4.32 3.876,4.32 0.804,0 1.572,-0.276 2.196,-0.78 v 0.66 z"
           style="font-size:12px;line-height:1.25"
           id="path892" />
        <path
           d="m 399.61416,672.29132 -2.556,-3.804 c 1.308,-0.252 2.208,-0.972 2.208,-2.316 0,-1.692 -1.452,-2.4 -3.336,-2.4 -0.672,0 -1.344,0.036 -2.004,0.12 h -0.96 v 8.4 h 0.984 v -3.9 c 0.648,0.12 1.32,0.192 1.98,0.192 l 2.508,3.708 z m -1.524,-6.12 c 0,1.092 -1.02,1.86 -2.16,1.86 -0.66,0 -1.332,-0.072 -1.98,-0.192 v -3.396 c 0.66,-0.084 1.32,-0.12 1.98,-0.12 1.14,0 2.16,0.768 2.16,1.848 z"
           style="font-size:12px;line-height:1.25"
           id="path894" />
      </g>
      <g
         transform="translate(-3.14961,372.71654)"
         id="g6645">
        <path
           id="path6647"
           d="m 396.8504,265.74802 h -14.17322 v 10.62992 l 7.08661,7.08661 7.08661,-7.08661 z"
           style="fill:#d5f6ff;fill-opacity:1;stroke:#000000;stroke-width:1px;stroke-linecap:butt;stroke-linejoin:miter;stroke-opacity:1" />
      </g>
    </g>
    <g
       id="g6698"
       transform="translate(-110.23623,-287.67716)">
      <g
         aria-label="MDA"
         id="text6651"
         style="line-height:0%;font-family:Iwona;-inkscape-font-specification:Iwona;text-align:center;text-anchor:middle">
        <path
           d="m 435.80782,672.29132 -0.48,-8.4 h -0.792 l -3.372,7.092 -3.384,-7.092 h -0.792 l -0.48,8.4 h 0.552 l 0.384,-6.804 3.252,6.804 h 0.444 l 3.288,-6.888 0.396,6.888 z"
           style="font-size:12px;line-height:1.25"
           id="path897" />
        <path
           d="m 444.78381,668.09132 c 0,-2.568 -1.404,-4.32 -3.876,-4.32 -0.744,0 -1.488,0.036 -2.22,0.12 h -0.96 v 8.4 h 0.96 c 0.732,0.084 1.476,0.12 2.22,0.12 2.472,0 3.876,-1.752 3.876,-4.32 z m -1.176,0 c 0,1.908 -0.972,3.768 -2.7,3.768 -0.732,0 -1.464,-0.036 -2.196,-0.12 v -7.296 c 0.732,-0.084 1.464,-0.12 2.196,-0.12 1.728,0 2.7,1.86 2.7,3.768 z"
           style="font-size:12px;line-height:1.25"
           id="path899" />
        <path
           d="m 452.53579,672.29132 -3.048,-8.4 h -1.044 l -3.108,8.4 h 0.588 l 1.092,-2.94 h 3.408 l 1.068,2.94 z m -2.316,-3.492 h -3 l 1.512,-4.104 z"
           style="font-size:12px;line-height:1.25"
           id="path901" />
      </g>
      <path
         id="path6657"
         d="m 446.8504,638.46456 h -14.17322 v 10.62992 l 7.08661,7.08661 7.08661,-7.08661 z"
         style="fill:#d5f6ff;fill-opacity:1;stroke:#000000;stroke-width:1px;stroke-linecap:butt;stroke-linejoin:miter;stroke-opacity:1" />
    </g>
    <g
       id="g6703"
       transform="translate(-120.86613,-287.67716)">
      <g
         aria-label="MDR"
         id="text6661"
         style="line-height:0%;font-family:Iwona;-inkscape-font-specification:Iwona;text-align:center;text-anchor:middle">
        <path
           d="m 488.60942,672.29132 -0.48,-8.4 h -0.792 l -3.372,7.092 -3.384,-7.092 h -0.792 l -0.48,8.4 h 0.552 l 0.384,-6.804 3.252,6.804 h 0.444 l 3.288,-6.888 0.396,6.888 z"
           style="font-size:12px;line-height:1.25"
           id="path904" />
        <path
           d="m 497.5854,668.09132 c 0,-2.568 -1.404,-4.32 -3.876,-4.32 -0.744,0 -1.488,0.036 -2.22,0.12 h -0.96 v 8.4 h 0.96 c 0.732,0.084 1.476,0.12 2.22,0.12 2.472,0 3.876,-1.752 3.876,-4.32 z m -1.176,0 c 0,1.908 -0.972,3.768 -2.7,3.768 -0.732,0 -1.464,-0.036 -2.196,-0.12 v -7.296 c 0.732,-0.084 1.464,-0.12 2.196,-0.12 1.728,0 2.7,1.86 2.7,3.768 z"
           style="font-size:12px;line-height:1.25"
           id="path906" />
        <path
           d="m 506.03339,672.29132 -2.556,-3.804 c 1.308,-0.252 2.208,-0.972 2.208,-2.316 0,-1.692 -1.452,-2.4 -3.336,-2.4 -0.672,0 -1.344,0.036 -2.004,0.12 h -0.96 v 8.4 h 0.984 v -3.9 c 0.648,0.12 1.32,0.192 1.98,0.192 l 2.508,3.708 z m -1.524,-6.12 c 0,1.092 -1.02,1.86 -2.16,1.86 -0.66,0 -1.332,-0.072 -1.98,-0.192 v -3.396 c 0.66,-0.084 1.32,-0.12 1.98,-0.12 1.14,0 2.16,0.768 2.16,1.848 z"
           style="font-size:12px;line-height:1.25"
           id="path908" />
      </g>
      <g
         transform="translate(103.1496,372.71654)"
         id="g6665">
        <path
           id="path6667"
           d="m 396.8504,265.74802 h -14.17322 v 10.62992 l 7.08661,7.08661 7.08661,-7.08661 z"
           style="fill:#d5f6ff;fill-opacity:1;stroke:#000000;stroke-width:1px;stroke-linecap:butt;stroke-linejoin:miter;stroke-opacity:1" />
      </g>
    </g>
    <g
       id="g13999"
       transform="rotate(90,-15.304845,279.77125)">
      <path
         id="path14001"
         d="m 16.734921,-22.541473 38.976378,2e-6"
         style="fill:none;stroke:#000000;stroke-width:1px;stroke-linecap:butt;stroke-linejoin:miter;stroke-opacity:1" />
      <path
         style="fill:none;stroke:#000000;stroke-width:1px;stroke-linecap:butt;stroke-linejoin:miter;stroke-opacity:1;marker-start:url(#marker18753)"
         d="m -178.14697,-11.911543 173.6220485,-9e-6"
         id="path14003" />
      <path
         id="path14005"
         d="m -146.25721,-33.171385 141.7322885,-9e-6"
         style="fill:none;stroke:#000000;stroke-width:1px;stroke-linecap:butt;stroke-linejoin:miter;stroke-opacity:1;marker-start:url(#marker18753)" />
      <path
         style="fill:none;stroke:#000000;stroke-width:1px;stroke-linecap:butt;stroke-linejoin:miter;stroke-opacity:1;marker-start:url(#marker18753)"
         d="m -156.88713,-22.541464 152.3622085,-9e-6"
         id="path14007" />
      <path
         id="path14009"
         d="m -11.611536,-40.258009 c 7.0866149,10.629922 7.0866149,24.80315 0,35.4330707 7.0866149,4e-7 24.80315,-3.5433067 28.346457,-17.7165347 -3.543307,-14.173229 -21.2598421,-17.716536 -28.346457,-17.716536 z"
         style="fill:#ffeeaa;fill-opacity:1;stroke:#000000;stroke-width:1px;stroke-linecap:butt;stroke-linejoin:miter;stroke-opacity:1" />
    </g>
    <g
       transform="rotate(90,5.954995,301.03109)"
       id="g14011">
      <path
         style="fill:none;stroke:#000000;stroke-width:1px;stroke-linecap:butt;stroke-linejoin:miter;stroke-opacity:1"
         d="m 16.734921,-22.541473 38.976378,-3e-6"
         id="path14013" />
      <path
         id="path14015"
         d="m -178.14697,-11.911548 173.6220485,-4e-6"
         style="fill:none;stroke:#000000;stroke-width:1px;stroke-linecap:butt;stroke-linejoin:miter;stroke-opacity:1;marker-start:url(#marker18753)" />
      <path
         style="fill:none;stroke:#000000;stroke-width:1px;stroke-linecap:butt;stroke-linejoin:miter;stroke-opacity:1;marker-start:url(#marker18753)"
         d="m -93.107602,-33.17139 88.5826805,-4e-6"
         id="path14017" />
      <path
         id="path14019"
         d="m -114.36744,-22.541469 109.8425185,-4e-6"
         style="fill:none;stroke:#000000;stroke-width:1px;stroke-linecap:butt;stroke-linejoin:miter;stroke-opacity:1;marker-start:url(#marker18753)" />
      <path
         style="fill:#ffeeaa;fill-opacity:1;stroke:#000000;stroke-width:1px;stroke-linecap:butt;stroke-linejoin:miter;stroke-opacity:1"
         d="m -11.611536,-40.258009 c 7.0866149,10.629922 7.0866149,24.80315 0,35.4330707 7.0866149,4e-7 24.80315,-3.5433067 28.346457,-17.7165347 -3.543307,-14.173229 -21.2598421,-17.716536 -28.346457,-17.716536 z"
         id="path14021" />
    </g>
    <g
       id="g14023"
       transform="rotate(90,27.21484,322.29094)">
      <path
         id="path14025"
         d="m 16.734921,-22.541473 38.976378,2e-6"
         style="fill:none;stroke:#000000;stroke-width:1px;stroke-linecap:butt;stroke-linejoin:miter;stroke-opacity:1" />
      <path
         style="fill:none;stroke:#000000;stroke-width:1px;stroke-linecap:butt;stroke-linejoin:miter;stroke-opacity:1;marker-start:url(#marker18753)"
         d="m -188.77689,-11.911543 184.2519685,-9e-6"
         id="path14027" />
      <path
         id="path14029"
         d="m -135.62729,-33.171385 131.1023685,-9e-6"
         style="fill:none;stroke:#000000;stroke-width:1px;stroke-linecap:butt;stroke-linejoin:miter;stroke-opacity:1;marker-start:url(#marker18753)" />
      <path
         style="fill:none;stroke:#000000;stroke-width:1px;stroke-linecap:butt;stroke-linejoin:miter;stroke-opacity:1;marker-start:url(#marker18753)"
         d="m -156.88713,-22.541464 152.3622085,-9e-6"
         id="path14031" />
      <path
         id="path14033"
         d="m -11.611536,-40.258009 c 7.0866149,10.629922 7.0866149,24.80315 0,35.4330707 7.0866149,4e-7 24.80315,-3.5433067 28.346457,-17.7165347 -3.543307,-14.173229 -21.2598421,-17.716536 -28.346457,-17.716536 z"
         style="fill:#ffeeaa;fill-opacity:1;stroke:#000000;stroke-width:1px;stroke-linecap:butt;stroke-linejoin:miter;stroke-opacity:1" />
    </g>
    <path
       id="rect5109"
       style="opacity:1;fill:#ffeeaa;stroke:#000000;stroke-width:0.5;stroke-linecap:round;stroke-linejoin:bevel;stroke-dasharray:0.5, 0.5"
       d="M 106.29921,81.496056 H 194.8819 V 269.29133 h -88.58269 z" />
    <g
       aria-label="Décodeur"
       id="text5111"
       style="line-height:0%;font-family:Iwona;-inkscape-font-specification:Iwona;text-align:center;letter-spacing:0px;word-spacing:0px;text-anchor:middle;stroke-width:1px">
      <path
         d="m 133.40691,175.39369 c 0,-2.675 -1.4625,-4.5 -4.0375,-4.5 -0.775,0 -1.55,0.0375 -2.3125,0.125 h -1 v 8.75 h 1 c 0.7625,0.0875 1.5375,0.125 2.3125,0.125 2.575,0 4.0375,-1.825 4.0375,-4.5 z m -1.225,0 c 0,1.9875 -1.0125,3.925 -2.8125,3.925 -0.7625,0 -1.525,-0.0375 -2.2875,-0.125 v -7.6 c 0.7625,-0.0875 1.525,-0.125 2.2875,-0.125 1.8,0 2.8125,1.9375 2.8125,3.925 z"
         style="font-size:12.5px;line-height:1.25"
         id="path912" />
      <path
         d="m 139.6819,177.08119 v -0.125 c 0,-1.7625 -0.9625,-2.9375 -2.4125,-2.9375 -1.4625,0 -2.425,1.175 -2.425,2.9375 0,1.7625 0.9625,2.9375 2.425,2.9375 0.625,0 1.2375,-0.2 1.75,-0.5625 v -0.525 c -0.5875,0.375 -1.0625,0.5125 -1.75,0.5125 -1.0625,0 -1.325,-1.0125 -1.325,-2.2375 z m -1.1,-0.525 h -2.6375 c 0,-1 0.425,-2.0125 1.325,-2.0125 0.8875,0 1.3125,1.0125 1.3125,2.0125 z m 0.0375,-5.5375 h -1.125 c 0,0.8375 -0.2625,1.6625 -0.75,2.3375 h 0.525 c 0.6625,-0.6625 1.35,-1.4 1.35,-2.3375 z"
         style="font-size:12.5px;line-height:1.25"
         id="path914" />
      <path
         d="m 145.35688,175.44369 v -0.525 c -0.4,-0.5625 -1.05,-0.9 -1.75,-0.9 -1.5625,0 -2.6125,1.175 -2.6125,2.9375 0,1.7625 1.05,2.9375 2.6125,2.9375 0.65,0 1.2625,-0.325 1.625,-0.8625 v -0.525 c -0.425,0.6375 -0.8625,0.8625 -1.625,0.8625 -0.9,0 -1.5125,-0.9625 -1.5125,-2.4125 0,-1.45 0.6125,-2.4125 1.5125,-2.4125 0.775,0 1.3,0.275 1.75,0.9 z"
         style="font-size:12.5px;line-height:1.25"
         id="path916" />
      <path
         d="m 151.19437,176.95619 c 0,-1.9125 -0.85,-2.9375 -2.4125,-2.9375 -1.575,0 -2.425,1.025 -2.425,2.9375 0,1.9125 0.85,2.9375 2.425,2.9375 1.5625,0 2.4125,-1.025 2.4125,-2.9375 z m -1.1,0 c 0,1.5625 -0.4625,2.4125 -1.3125,2.4125 -0.8625,0 -1.325,-0.85 -1.325,-2.4125 0,-1.5625 0.4625,-2.4125 1.325,-2.4125 0.85,0 1.3125,0.85 1.3125,2.4125 z"
         style="font-size:12.5px;line-height:1.25"
         id="path918" />
      <path
         d="m 157.40687,179.76869 v -8.75 h -0.975 v 3.3375 c -0.4875,-0.2125 -1.0125,-0.3375 -1.5375,-0.3375 -1.5625,0 -2.325,1.25 -2.325,2.9375 0,1.6625 0.625,2.9375 2.1375,2.9375 0.6375,0 1.225,-0.2875 1.725,-0.6875 v 0.5625 z m -0.975,-1.0875 c -0.375,0.375 -0.8375,0.6875 -1.375,0.6875 -1.1375,0 -1.3875,-1.1 -1.3875,-2.4125 0,-1.175 0.3625,-2.4125 1.3875,-2.4125 0.475,0 0.95,0.125 1.375,0.3375 z"
         style="font-size:12.5px;line-height:1.25"
         id="path920" />
      <path
         d="m 163.93186,177.08119 v -0.125 c 0,-1.7625 -0.9625,-2.9375 -2.4125,-2.9375 -1.4625,0 -2.425,1.175 -2.425,2.9375 0,1.7625 0.9625,2.9375 2.425,2.9375 0.625,0 1.2375,-0.2 1.75,-0.5625 v -0.525 c -0.5875,0.375 -1.0625,0.5125 -1.75,0.5125 -1.0625,0 -1.325,-1.0125 -1.325,-2.2375 z m -1.1,-0.525 h -2.6375 c 0,-1 0.425,-2.0125 1.325,-2.0125 0.8875,0 1.3125,1.0125 1.3125,2.0125 z"
         style="font-size:12.5px;line-height:1.25"
         id="path922" />
      <path
         d="m 170.01934,179.76869 v -5.625 h -0.975 v 4.4125 c -0.425,0.425 -0.95,0.7625 -1.5375,0.7625 -0.5875,0 -1.0375,-0.5125 -1.0375,-1.1125 v -4.0625 h -0.975 v 4.0625 c 0,0.9125 0.7,1.6875 1.6,1.6875 0.75,0 1.4125,-0.425 1.95,-0.95 v 0.825 z"
         style="font-size:12.5px;line-height:1.25"
         id="path924" />
      <path
         d="m 175.13182,174.91869 v -0.775 c -0.1375,-0.05 -0.2875,-0.0875 -0.425,-0.0875 -0.7,0 -1.2625,0.4875 -1.7125,1.025 v -0.9375 h -0.975 v 5.625 h 0.975 v -4.1625 c 0.375,-0.4375 0.85,-0.8125 1.425,-0.8125 0.2375,0 0.4875,0.05 0.7125,0.125 z"
         style="font-size:12.5px;line-height:1.25"
         id="path926" />
    </g>
    <g
       aria-label="e3"
       id="text5115"
       style="line-height:0%;font-family:Iwona;-inkscape-font-specification:Iwona;letter-spacing:0px;word-spacing:0px;stroke-width:1px">
      <path
         d="m 115.36752,139.04478 v -0.125 c 0,-1.7625 -0.9625,-2.9375 -2.4125,-2.9375 -1.4625,0 -2.425,1.175 -2.425,2.9375 0,1.7625 0.9625,2.9375 2.425,2.9375 0.625,0 1.2375,-0.2 1.75,-0.5625 v -0.525 c -0.5875,0.375 -1.0625,0.5125 -1.75,0.5125 -1.0625,0 -1.325,-1.0125 -1.325,-2.2375 z m -1.1,-0.525 h -2.6375 c 0,-1 0.425,-2.0125 1.325,-2.0125 0.8875,0 1.3125,1.0125 1.3125,2.0125 z"
         style="font-size:12.5px;line-height:1.25"
         id="path929" />
      <path
         d="m 119.85188,142.68853 c 0,-0.715 -0.50375,-1.3325 -1.2025,-1.54375 0.6175,-0.17875 0.99938,-0.64187 0.99938,-1.25937 0,-0.80438 -0.65,-1.34063 -1.625,-1.34063 -0.52813,0 -1.04,0.17875 -1.45438,0.50375 v 0.34125 c 0.41438,-0.325 0.92625,-0.50375 1.45438,-0.50375 0.59312,0 0.99125,0.39813 0.99125,0.99938 0,0.96687 -0.44688,1.21875 -1.4625,1.21875 v 0.30062 c 1.09687,0 1.58437,0.26 1.58437,1.28375 0,0.70688 -0.455,1.28375 -1.0075,1.28375 -0.6175,0 -1.21875,-0.17875 -1.73062,-0.50375 v 0.34125 c 0.51187,0.325 1.11312,0.50375 1.73062,0.50375 0.9425,0 1.7225,-0.73125 1.7225,-1.625 z"
         style="font-size:65%;baseline-shift:sub"
         id="path931" />
    </g>
    <g
       aria-label="e2"
       id="text5121"
       style="line-height:0%;font-family:Iwona;-inkscape-font-specification:Iwona;letter-spacing:0px;word-spacing:0px;stroke-width:1px">
      <path
         d="m 115.36752,163.84793 v -0.125 c 0,-1.7625 -0.9625,-2.9375 -2.4125,-2.9375 -1.4625,0 -2.425,1.175 -2.425,2.9375 0,1.7625 0.9625,2.9375 2.425,2.9375 0.625,0 1.2375,-0.2 1.75,-0.5625 v -0.525 c -0.5875,0.375 -1.0625,0.5125 -1.75,0.5125 -1.0625,0 -1.325,-1.0125 -1.325,-2.2375 z m -1.1,-0.525 h -2.6375 c 0,-1 0.425,-2.0125 1.325,-2.0125 0.8875,0 1.3125,1.0125 1.3125,2.0125 z"
         style="font-size:12.5px;line-height:1.25"
         id="path934" />
      <path
         d="m 119.85188,169.03543 v -0.50375 h -2.86812 l 1.495,-1.47875 c 0.66625,-0.66625 1.29187,-1.44625 1.29187,-2.38875 0,-0.79625 -0.78812,-1.31625 -1.64125,-1.31625 -0.64187,0 -1.25125,0.2925 -1.64937,0.78813 v 0.34125 c 0.41437,-0.47938 1.01562,-0.75563 1.64937,-0.75563 0.54438,0 1.0075,0.40625 1.0075,0.9425 0,0.80438 -0.37375,1.55188 -0.92625,2.12875 l -1.81187,1.86063 v 0.38187 z"
         style="font-size:65%;baseline-shift:sub"
         id="path936" />
    </g>
    <g
       aria-label="e1"
       id="text5127"
       style="line-height:0%;font-family:Iwona;-inkscape-font-specification:Iwona;letter-spacing:0px;word-spacing:0px;stroke-width:1px">
      <path
         d="m 115.36752,188.65108 v -0.125 c 0,-1.7625 -0.9625,-2.9375 -2.4125,-2.9375 -1.4625,0 -2.425,1.175 -2.425,2.9375 0,1.7625 0.9625,2.9375 2.425,2.9375 0.625,0 1.2375,-0.2 1.75,-0.5625 v -0.525 c -0.5875,0.375 -1.0625,0.5125 -1.75,0.5125 -1.0625,0 -1.325,-1.0125 -1.325,-2.2375 z m -1.1,-0.525 h -2.6375 c 0,-1 0.425,-2.0125 1.325,-2.0125 0.8875,0 1.3125,1.0125 1.3125,2.0125 z"
         style="font-size:12.5px;line-height:1.25"
         id="path939" />
      <path
         d="m 118.67376,193.83858 v -5.60625 h -0.47125 c -0.44688,0.51187 -0.975,0.95062 -1.56,1.29187 v 0.34125 c 0.49562,-0.23562 0.95875,-0.51187 1.3975,-0.845 v 4.81813 z"
         style="font-size:65%;baseline-shift:sub"
         id="path941" />
    </g>
    <g
       aria-label="e0"
       id="text5133"
       style="line-height:0%;font-family:Iwona;-inkscape-font-specification:Iwona;letter-spacing:0px;word-spacing:0px;stroke-width:1px">
      <path
         d="m 115.36752,213.45422 v -0.125 c 0,-1.7625 -0.9625,-2.9375 -2.4125,-2.9375 -1.4625,0 -2.425,1.175 -2.425,2.9375 0,1.7625 0.9625,2.9375 2.425,2.9375 0.625,0 1.2375,-0.2 1.75,-0.5625 v -0.525 c -0.5875,0.375 -1.0625,0.5125 -1.75,0.5125 -1.0625,0 -1.325,-1.0125 -1.325,-2.2375 z m -1.1,-0.525 h -2.6375 c 0,-1 0.425,-2.0125 1.325,-2.0125 0.8875,0 1.3125,1.0125 1.3125,2.0125 z"
         style="font-size:12.5px;line-height:1.25"
         id="path944" />
      <path
         d="m 119.90876,215.8386 c 0,-1.92563 -0.59313,-2.88438 -1.77938,-2.88438 -1.18625,0 -1.77937,0.95875 -1.77937,2.88438 0,1.92562 0.59312,2.88437 1.77937,2.88437 1.18625,0 1.77938,-0.95875 1.77938,-2.88437 z m -0.715,0 c 0,1.69812 -0.3575,2.54312 -1.06438,2.54312 -0.70687,0 -1.06437,-0.845 -1.06437,-2.54312 0,-1.69813 0.3575,-2.54313 1.06437,-2.54313 0.70688,0 1.06438,0.845 1.06438,2.54313 z"
         style="font-size:65%;baseline-shift:sub"
         id="path946" />
    </g>
    <g
       aria-label="s0"
       id="text5139"
       style="line-height:0%;font-family:Iwona;-inkscape-font-specification:Iwona;text-align:end;letter-spacing:0px;word-spacing:0px;text-anchor:end;stroke-width:1px">
      <path
         d="m 186.73254,97.612593 c 0,-0.9875 -1.05,-1.5 -2.075,-1.75 -0.6,-0.15 -1.25,-0.4 -1.25,-0.9875 0,-0.5375 0.55,-0.8875 1.15,-0.8875 0.6625,0 1.325,0.2 1.875,0.5625 v -0.525 c -0.55,-0.3625 -1.2125,-0.5625 -1.875,-0.5625 -1.0875,0 -2.0875,0.6625 -2.0875,1.675 0,0.9125 1.0125,1.3375 1.975,1.575 0.6625,0.1625 1.35,0.5125 1.35,1.15 0,0.5875 -0.6,0.95 -1.2375,0.95 -0.775,0 -1.525,-0.1875 -2.1875,-0.5625 v 0.525 c 0.6625,0.375 1.4125,0.5625 2.1875,0.5625 1.125,0 2.175,-0.675 2.175,-1.725 z"
         style="font-size:12.5px;line-height:1.25"
         id="path949" />
      <path
         d="m 191.21128,98.909468 c 0,-1.925625 -0.59312,-2.884375 -1.77937,-2.884375 -1.18625,0 -1.77938,0.95875 -1.77938,2.884375 0,1.925622 0.59313,2.884372 1.77938,2.884372 1.18625,0 1.77937,-0.95875 1.77937,-2.884372 z m -0.715,0 c 0,1.698122 -0.3575,2.543122 -1.06437,2.543122 -0.70688,0 -1.06438,-0.845 -1.06438,-2.543122 0,-1.698125 0.3575,-2.543125 1.06438,-2.543125 0.70687,0 1.06437,0.845 1.06437,2.543125 z"
         style="font-size:65%;baseline-shift:sub"
         id="path951" />
    </g>
    <g
       aria-label="s1"
       id="text5145"
       style="line-height:0%;font-family:Iwona;-inkscape-font-specification:Iwona;text-align:end;letter-spacing:0px;word-spacing:0px;text-anchor:end;stroke-width:1px">
      <path
         d="m 186.73254,108.24251 c 0,-0.9875 -1.05,-1.5 -2.075,-1.75 -0.6,-0.15 -1.25,-0.4 -1.25,-0.9875 0,-0.5375 0.55,-0.8875 1.15,-0.8875 0.6625,0 1.325,0.2 1.875,0.5625 v -0.525 c -0.55,-0.3625 -1.2125,-0.5625 -1.875,-0.5625 -1.0875,0 -2.0875,0.6625 -2.0875,1.675 0,0.9125 1.0125,1.3375 1.975,1.575 0.6625,0.1625 1.35,0.5125 1.35,1.15 0,0.5875 -0.6,0.95 -1.2375,0.95 -0.775,0 -1.525,-0.1875 -2.1875,-0.5625 v 0.525 c 0.6625,0.375 1.4125,0.5625 2.1875,0.5625 1.125,0 2.175,-0.675 2.175,-1.725 z"
         style="font-size:12.5px;line-height:1.25"
         id="path954" />
      <path
         d="m 189.97628,112.34251 v -5.60625 h -0.47125 c -0.44687,0.51187 -0.975,0.95062 -1.56,1.29187 v 0.34125 c 0.49563,-0.23562 0.95875,-0.51187 1.3975,-0.845 v 4.81813 z"
         style="font-size:65%;baseline-shift:sub"
         id="path956" />
    </g>
    <g
       aria-label="s2"
       id="text5151"
       style="line-height:0%;font-family:Iwona;-inkscape-font-specification:Iwona;text-align:end;letter-spacing:0px;word-spacing:0px;text-anchor:end;stroke-width:1px">
      <path
         d="m 186.73254,118.87243 c 0,-0.9875 -1.05,-1.5 -2.075,-1.75 -0.6,-0.15 -1.25,-0.4 -1.25,-0.9875 0,-0.5375 0.55,-0.8875 1.15,-0.8875 0.6625,0 1.325,0.2 1.875,0.5625 v -0.525 c -0.55,-0.3625 -1.2125,-0.5625 -1.875,-0.5625 -1.0875,0 -2.0875,0.6625 -2.0875,1.675 0,0.9125 1.0125,1.3375 1.975,1.575 0.6625,0.1625 1.35,0.5125 1.35,1.15 0,0.5875 -0.6,0.95 -1.2375,0.95 -0.775,0 -1.525,-0.1875 -2.1875,-0.5625 v 0.525 c 0.6625,0.375 1.4125,0.5625 2.1875,0.5625 1.125,0 2.175,-0.675 2.175,-1.725 z"
         style="font-size:12.5px;line-height:1.25"
         id="path959" />
      <path
         d="m 191.15441,122.97243 v -0.50375 h -2.86813 l 1.495,-1.47875 c 0.66625,-0.66625 1.29188,-1.44625 1.29188,-2.38875 0,-0.79625 -0.78813,-1.31625 -1.64125,-1.31625 -0.64188,0 -1.25125,0.2925 -1.64938,0.78812 v 0.34125 c 0.41438,-0.47937 1.01563,-0.75562 1.64938,-0.75562 0.54437,0 1.0075,0.40625 1.0075,0.9425 0,0.80437 -0.37375,1.55187 -0.92625,2.12875 l -1.81188,1.86062 v 0.38188 z"
         style="font-size:65%;baseline-shift:sub"
         id="path961" />
    </g>
    <g
       aria-label="s3"
       id="text5157"
       style="line-height:0%;font-family:Iwona;-inkscape-font-specification:Iwona;text-align:end;letter-spacing:0px;word-spacing:0px;text-anchor:end;stroke-width:1px">
      <path
         d="m 186.73254,129.50236 c 0,-0.9875 -1.05,-1.5 -2.075,-1.75 -0.6,-0.15 -1.25,-0.4 -1.25,-0.9875 0,-0.5375 0.55,-0.8875 1.15,-0.8875 0.6625,0 1.325,0.2 1.875,0.5625 v -0.525 c -0.55,-0.3625 -1.2125,-0.5625 -1.875,-0.5625 -1.0875,0 -2.0875,0.6625 -2.0875,1.675 0,0.9125 1.0125,1.3375 1.975,1.575 0.6625,0.1625 1.35,0.5125 1.35,1.15 0,0.5875 -0.6,0.95 -1.2375,0.95 -0.775,0 -1.525,-0.1875 -2.1875,-0.5625 v 0.525 c 0.6625,0.375 1.4125,0.5625 2.1875,0.5625 1.125,0 2.175,-0.675 2.175,-1.725 z"
         style="font-size:12.5px;line-height:1.25"
         id="path964" />
      <path
         d="m 191.15441,132.05861 c 0,-0.715 -0.50375,-1.3325 -1.2025,-1.54375 0.6175,-0.17875 0.99937,-0.64188 0.99937,-1.25938 0,-0.80437 -0.65,-1.34062 -1.625,-1.34062 -0.52812,0 -1.04,0.17875 -1.45437,0.50375 v 0.34125 c 0.41437,-0.325 0.92625,-0.50375 1.45437,-0.50375 0.59313,0 0.99125,0.39812 0.99125,0.99937 0,0.96688 -0.44687,1.21875 -1.4625,1.21875 v 0.30063 c 1.09688,0 1.58438,0.26 1.58438,1.28375 0,0.70687 -0.455,1.28375 -1.0075,1.28375 -0.6175,0 -1.21875,-0.17875 -1.73063,-0.50375 v 0.34125 c 0.51188,0.325 1.11313,0.50375 1.73063,0.50375 0.9425,0 1.7225,-0.73125 1.7225,-1.625 z"
         style="font-size:65%;baseline-shift:sub"
         id="path966" />
    </g>
    <g
       aria-label="s4"
       id="text5163"
       style="line-height:0%;font-family:Iwona;-inkscape-font-specification:Iwona;text-align:end;letter-spacing:0px;word-spacing:0px;text-anchor:end;stroke-width:1px">
      <path
         d="m 186.73254,140.13227 c 0,-0.9875 -1.05,-1.5 -2.075,-1.75 -0.6,-0.15 -1.25,-0.4 -1.25,-0.9875 0,-0.5375 0.55,-0.8875 1.15,-0.8875 0.6625,0 1.325,0.2 1.875,0.5625 v -0.525 c -0.55,-0.3625 -1.2125,-0.5625 -1.875,-0.5625 -1.0875,0 -2.0875,0.6625 -2.0875,1.675 0,0.9125 1.0125,1.3375 1.975,1.575 0.6625,0.1625 1.35,0.5125 1.35,1.15 0,0.5875 -0.6,0.95 -1.2375,0.95 -0.775,0 -1.525,-0.1875 -2.1875,-0.5625 v 0.525 c 0.6625,0.375 1.4125,0.5625 2.1875,0.5625 1.125,0 2.175,-0.675 2.175,-1.725 z"
         style="font-size:12.5px;line-height:1.25"
         id="path969" />
      <path
         d="m 191.15441,142.28227 v -0.37375 h -0.60938 v -3.2825 h -0.63375 l -2.21,3.2825 v 0.37375 h 2.21 v 1.95 h 0.63375 v -1.95 z m -1.24313,-0.37375 h -1.79562 l 1.79562,-2.67313 z"
         style="font-size:65%;baseline-shift:sub"
         id="path971" />
    </g>
    <g
       aria-label="s5"
       id="text5169"
       style="line-height:0%;font-family:Iwona;-inkscape-font-specification:Iwona;text-align:end;letter-spacing:0px;word-spacing:0px;text-anchor:end;stroke-width:1px">
      <path
         d="m 186.73254,150.7622 c 0,-0.9875 -1.05,-1.5 -2.075,-1.75 -0.6,-0.15 -1.25,-0.4 -1.25,-0.9875 0,-0.5375 0.55,-0.8875 1.15,-0.8875 0.6625,0 1.325,0.2 1.875,0.5625 v -0.525 c -0.55,-0.3625 -1.2125,-0.5625 -1.875,-0.5625 -1.0875,0 -2.0875,0.6625 -2.0875,1.675 0,0.9125 1.0125,1.3375 1.975,1.575 0.6625,0.1625 1.35,0.5125 1.35,1.15 0,0.5875 -0.6,0.95 -1.2375,0.95 -0.775,0 -1.525,-0.1875 -2.1875,-0.5625 v 0.525 c 0.6625,0.375 1.4125,0.5625 2.1875,0.5625 1.125,0 2.175,-0.675 2.175,-1.725 z"
         style="font-size:12.5px;line-height:1.25"
         id="path974" />
      <path
         d="m 191.15441,153.03407 c 0,-1.14562 -0.69063,-1.90937 -1.7225,-1.90937 -0.47125,0 -0.91,0.17875 -1.25125,0.47937 l 0.0813,-1.84437 h 2.73 v -0.50375 h -3.04688 l -0.12187,2.80312 0.34125,0.0163 c 0.30875,-0.38187 0.77187,-0.60937 1.2675,-0.60937 0.60125,0 1.0075,0.62562 1.0075,1.56812 0,0.9425 -0.40625,1.56813 -1.0075,1.56813 -0.62563,0 -1.235,-0.20313 -1.73063,-0.585 v 0.34125 c 0.49563,0.38187 1.105,0.585 1.73063,0.585 1.03187,0 1.7225,-0.76375 1.7225,-1.90938 z"
         style="font-size:65%;baseline-shift:sub"
         id="path976" />
    </g>
    <g
       aria-label="s6"
       id="text5175"
       style="line-height:0%;font-family:Iwona;-inkscape-font-specification:Iwona;text-align:end;letter-spacing:0px;word-spacing:0px;text-anchor:end;stroke-width:1px">
      <path
         d="m 186.73254,161.39211 c 0,-0.9875 -1.05,-1.5 -2.075,-1.75 -0.6,-0.15 -1.25,-0.4 -1.25,-0.9875 0,-0.5375 0.55,-0.8875 1.15,-0.8875 0.6625,0 1.325,0.2 1.875,0.5625 v -0.525 c -0.55,-0.3625 -1.2125,-0.5625 -1.875,-0.5625 -1.0875,0 -2.0875,0.6625 -2.0875,1.675 0,0.9125 1.0125,1.3375 1.975,1.575 0.6625,0.1625 1.35,0.5125 1.35,1.15 0,0.5875 -0.6,0.95 -1.2375,0.95 -0.775,0 -1.525,-0.1875 -2.1875,-0.5625 v 0.525 c 0.6625,0.375 1.4125,0.5625 2.1875,0.5625 1.125,0 2.175,-0.675 2.175,-1.725 z"
         style="font-size:12.5px;line-height:1.25"
         id="path979" />
      <path
         d="m 191.15441,163.66399 c 0,-1.17 -0.46313,-1.90938 -1.55188,-1.90938 -0.47125,0 -0.91,0.21938 -1.18625,0.59313 0,-1.06438 0.26813,-2.20188 1.18625,-2.20188 0.41438,0 0.82063,0.13813 1.14563,0.39813 v -0.34125 c -0.325,-0.26 -0.73125,-0.39813 -1.14563,-0.39813 -1.27562,0 -1.90125,1.44625 -1.90125,2.88438 0,2.015 0.52,2.88437 1.73063,2.88437 1.03187,0 1.7225,-0.76375 1.7225,-1.90937 z m -0.715,0 c 0,0.9425 -0.40625,1.56812 -1.0075,1.56812 -1.1375,0 -1.01563,-1.22687 -1.01563,-2.54312 0.27625,-0.37375 0.715,-0.59313 1.18625,-0.59313 0.65,0 0.83688,0.8125 0.83688,1.56813 z"
         style="font-size:65%;baseline-shift:sub"
         id="path981" />
    </g>
    <g
       aria-label="s7"
       id="text5181"
       style="line-height:0%;font-family:Iwona;-inkscape-font-specification:Iwona;text-align:end;letter-spacing:0px;word-spacing:0px;text-anchor:end;stroke-width:1px">
      <path
         d="m 186.73254,172.02204 c 0,-0.9875 -1.05,-1.5 -2.075,-1.75 -0.6,-0.15 -1.25,-0.4 -1.25,-0.9875 0,-0.5375 0.55,-0.8875 1.15,-0.8875 0.6625,0 1.325,0.2 1.875,0.5625 v -0.525 c -0.55,-0.3625 -1.2125,-0.5625 -1.875,-0.5625 -1.0875,0 -2.0875,0.6625 -2.0875,1.675 0,0.9125 1.0125,1.3375 1.975,1.575 0.6625,0.1625 1.35,0.5125 1.35,1.15 0,0.5875 -0.6,0.95 -1.2375,0.95 -0.775,0 -1.525,-0.1875 -2.1875,-0.5625 v 0.525 c 0.6625,0.375 1.4125,0.5625 2.1875,0.5625 1.125,0 2.175,-0.675 2.175,-1.725 z"
         style="font-size:12.5px;line-height:1.25"
         id="path984" />
      <path
         d="m 191.15441,170.79204 v -0.27625 h -3.45313 v 0.50375 h 2.64875 l -2.39687,5.1025 h 0.69875 z"
         style="font-size:65%;baseline-shift:sub"
         id="path986" />
    </g>
    <path
       id="path5187"
       d="m 195.10396,95.669286 h 17.49447"
       style="fill:none;stroke:#000000;stroke-width:1px;stroke-linecap:butt;stroke-linejoin:miter;stroke-opacity:1" />
    <path
       style="fill:none;stroke:#000000;stroke-width:1px;stroke-linecap:butt;stroke-linejoin:miter;stroke-opacity:1"
       d="M 195.10396,106.29921 H 396.85039"
       id="path5189" />
    <path
       id="path5191"
       d="M 195.10396,116.92913 H 396.85039"
       style="fill:none;stroke:#000000;stroke-width:1px;stroke-linecap:butt;stroke-linejoin:miter;stroke-opacity:1" />
    <path
       style="fill:none;stroke:#000000;stroke-width:1px;stroke-linecap:butt;stroke-linejoin:miter;stroke-opacity:1"
       d="m 195.10396,127.55905 h 17.49447"
       id="path5193" />
    <path
       id="path5195"
       d="M 195.10396,138.18897 H 396.85039"
       style="fill:none;stroke:#000000;stroke-width:1px;stroke-linecap:butt;stroke-linejoin:miter;stroke-opacity:1" />
    <path
       style="fill:none;stroke:#000000;stroke-width:1px;stroke-linecap:butt;stroke-linejoin:miter;stroke-opacity:1"
       d="M 195.10396,148.81889 H 396.85039"
       id="path5197" />
    <path
       id="path5199"
       d="M 195.10396,159.44881 H 396.85039"
       style="fill:none;stroke:#000000;stroke-width:1px;stroke-linecap:butt;stroke-linejoin:miter;stroke-opacity:1" />
    <path
       style="fill:none;stroke:#000000;stroke-width:1px;stroke-linecap:butt;stroke-linejoin:miter;stroke-opacity:1"
       d="m 195.10396,170.07873 h 17.49447"
       id="path5201" />
    <g
       aria-label="s8"
       id="text5203"
       style="line-height:0%;font-family:Iwona;-inkscape-font-specification:Iwona;text-align:end;letter-spacing:0px;word-spacing:0px;text-anchor:end;stroke-width:1px">
      <path
         d="m 186.73254,182.65197 c 0,-0.9875 -1.05,-1.5 -2.075,-1.75 -0.6,-0.15 -1.25,-0.4 -1.25,-0.9875 0,-0.5375 0.55,-0.8875 1.15,-0.8875 0.6625,0 1.325,0.2 1.875,0.5625 v -0.525 c -0.55,-0.3625 -1.2125,-0.5625 -1.875,-0.5625 -1.0875,0 -2.0875,0.6625 -2.0875,1.675 0,0.9125 1.0125,1.3375 1.975,1.575 0.6625,0.1625 1.35,0.5125 1.35,1.15 0,0.5875 -0.6,0.95 -1.2375,0.95 -0.775,0 -1.525,-0.1875 -2.1875,-0.5625 v 0.525 c 0.6625,0.375 1.4125,0.5625 2.1875,0.5625 1.125,0 2.175,-0.675 2.175,-1.725 z"
         style="font-size:12.5px;line-height:1.25"
         id="path989" />
      <path
         d="m 191.15441,185.18384 c 0,-0.76375 -0.36563,-1.30812 -0.99125,-1.53562 0.52812,-0.195 0.82875,-0.63375 0.82875,-1.22688 0,-0.845 -0.59313,-1.35687 -1.56,-1.35687 -0.975,0 -1.56813,0.51187 -1.56813,1.35687 0,0.59313 0.30063,1.03188 0.82875,1.22688 -0.62562,0.2275 -0.99125,0.77187 -0.99125,1.53562 0,1.02375 0.65813,1.64938 1.73063,1.64938 1.06437,0 1.7225,-0.62563 1.7225,-1.64938 z m -0.79625,-2.7625 c 0,0.62563 -0.3575,1.01563 -0.92625,1.01563 -0.57688,0 -0.93438,-0.39 -0.93438,-1.01563 0,-0.63375 0.3575,-1.01562 0.93438,-1.01562 0.56875,0 0.92625,0.38187 0.92625,1.01562 z m 0.0813,2.7625 c 0,0.8125 -0.38188,1.30813 -1.0075,1.30813 -0.63375,0 -1.01563,-0.49563 -1.01563,-1.30813 0,-0.8125 0.38188,-1.30812 1.01563,-1.30812 0.62562,0 1.0075,0.49562 1.0075,1.30812 z"
         style="font-size:65%;baseline-shift:sub"
         id="path991" />
    </g>
    <g
       aria-label="s9"
       id="text5209"
       style="line-height:0%;font-family:Iwona;-inkscape-font-specification:Iwona;text-align:end;letter-spacing:0px;word-spacing:0px;text-anchor:end;stroke-width:1px">
      <path
         d="m 186.73254,193.28188 c 0,-0.9875 -1.05,-1.5 -2.075,-1.75 -0.6,-0.15 -1.25,-0.4 -1.25,-0.9875 0,-0.5375 0.55,-0.8875 1.15,-0.8875 0.6625,0 1.325,0.2 1.875,0.5625 v -0.525 c -0.55,-0.3625 -1.2125,-0.5625 -1.875,-0.5625 -1.0875,0 -2.0875,0.6625 -2.0875,1.675 0,0.9125 1.0125,1.3375 1.975,1.575 0.6625,0.1625 1.35,0.5125 1.35,1.15 0,0.5875 -0.6,0.95 -1.2375,0.95 -0.775,0 -1.525,-0.1875 -2.1875,-0.5625 v 0.525 c 0.6625,0.375 1.4125,0.5625 2.1875,0.5625 1.125,0 2.175,-0.675 2.175,-1.725 z"
         style="font-size:12.5px;line-height:1.25"
         id="path994" />
      <path
         d="m 191.15441,194.57876 c 0,-2.015 -0.52,-2.88438 -1.7225,-2.88438 -1.04,0 -1.73063,0.76375 -1.73063,1.90938 0,1.17 0.46313,1.90937 1.55188,1.90937 0.47125,0 0.91,-0.21937 1.18625,-0.59312 0,1.06437 -0.26813,2.20187 -1.18625,2.20187 -0.41438,0 -0.82063,-0.13812 -1.14563,-0.39812 v 0.34125 c 0.325,0.26 0.73125,0.39812 1.14563,0.39812 1.27562,0 1.90125,-1.44625 1.90125,-2.88437 z m -0.715,0 c -0.27625,0.37375 -0.715,0.59312 -1.18625,0.59312 -0.65,0 -0.83688,-0.8125 -0.83688,-1.56812 0,-0.9425 0.40625,-1.56813 1.01563,-1.56813 1.12937,0 1.0075,1.22688 1.0075,2.54313 z"
         style="font-size:65%;baseline-shift:sub"
         id="path996" />
    </g>
    <g
       aria-label="s10"
       id="text5215"
       style="line-height:0%;font-family:Iwona;-inkscape-font-specification:Iwona;text-align:end;letter-spacing:0px;word-spacing:0px;text-anchor:end;stroke-width:1px">
      <path
         d="m 182.46692,203.9118 c 0,-0.9875 -1.05,-1.5 -2.075,-1.75 -0.6,-0.15 -1.25,-0.4 -1.25,-0.9875 0,-0.5375 0.55,-0.8875 1.15,-0.8875 0.6625,0 1.325,0.2 1.875,0.5625 v -0.525 c -0.55,-0.3625 -1.2125,-0.5625 -1.875,-0.5625 -1.0875,0 -2.0875,0.6625 -2.0875,1.675 0,0.9125 1.0125,1.3375 1.975,1.575 0.6625,0.1625 1.35,0.5125 1.35,1.15 0,0.5875 -0.6,0.95 -1.2375,0.95 -0.775,0 -1.525,-0.1875 -2.1875,-0.5625 v 0.525 c 0.6625,0.375 1.4125,0.5625 2.1875,0.5625 1.125,0 2.175,-0.675 2.175,-1.725 z"
         style="font-size:12.5px;line-height:1.25"
         id="path999" />
      <path
         d="m 185.71066,208.0118 v -5.60625 h -0.47125 c -0.44688,0.51187 -0.975,0.95062 -1.56,1.29187 v 0.34125 c 0.49562,-0.23562 0.95875,-0.51187 1.3975,-0.845 v 4.81813 z"
         style="font-size:65%;baseline-shift:sub"
         id="path1001" />
      <path
         d="m 191.21128,205.20867 c 0,-1.92562 -0.59312,-2.88437 -1.77937,-2.88437 -1.18625,0 -1.77938,0.95875 -1.77938,2.88437 0,1.92563 0.59313,2.88438 1.77938,2.88438 1.18625,0 1.77937,-0.95875 1.77937,-2.88438 z m -0.715,0 c 0,1.69813 -0.3575,2.54313 -1.06437,2.54313 -0.70688,0 -1.06438,-0.845 -1.06438,-2.54313 0,-1.69812 0.3575,-2.54312 1.06438,-2.54312 0.70687,0 1.06437,0.845 1.06437,2.54312 z"
         style="font-size:65%;baseline-shift:sub"
         id="path1003" />
    </g>
    <g
       aria-label="s11"
       id="text5221"
       style="line-height:0%;font-family:Iwona;-inkscape-font-specification:Iwona;text-align:end;letter-spacing:0px;word-spacing:0px;text-anchor:end;stroke-width:1px">
      <path
         d="m 182.46692,214.54172 c 0,-0.9875 -1.05,-1.5 -2.075,-1.75 -0.6,-0.15 -1.25,-0.4 -1.25,-0.9875 0,-0.5375 0.55,-0.8875 1.15,-0.8875 0.6625,0 1.325,0.2 1.875,0.5625 v -0.525 c -0.55,-0.3625 -1.2125,-0.5625 -1.875,-0.5625 -1.0875,0 -2.0875,0.6625 -2.0875,1.675 0,0.9125 1.0125,1.3375 1.975,1.575 0.6625,0.1625 1.35,0.5125 1.35,1.15 0,0.5875 -0.6,0.95 -1.2375,0.95 -0.775,0 -1.525,-0.1875 -2.1875,-0.5625 v 0.525 c 0.6625,0.375 1.4125,0.5625 2.1875,0.5625 1.125,0 2.175,-0.675 2.175,-1.725 z"
         style="font-size:12.5px;line-height:1.25"
         id="path1006" />
      <path
         d="m 185.71066,218.64172 v -5.60625 h -0.47125 c -0.44688,0.51188 -0.975,0.95063 -1.56,1.29188 v 0.34125 c 0.49562,-0.23563 0.95875,-0.51188 1.3975,-0.845 v 4.81812 z"
         style="font-size:65%;baseline-shift:sub"
         id="path1008" />
      <path
         d="m 189.97628,218.64172 v -5.60625 h -0.47125 c -0.44687,0.51188 -0.975,0.95063 -1.56,1.29188 v 0.34125 c 0.49563,-0.23563 0.95875,-0.51188 1.3975,-0.845 v 4.81812 z"
         style="font-size:65%;baseline-shift:sub"
         id="path1010" />
    </g>
    <g
       aria-label="s12"
       id="text5227"
       style="line-height:0%;font-family:Iwona;-inkscape-font-specification:Iwona;text-align:end;letter-spacing:0px;word-spacing:0px;text-anchor:end;stroke-width:1px">
      <path
         d="m 182.46692,225.17164 c 0,-0.9875 -1.05,-1.5 -2.075,-1.75 -0.6,-0.15 -1.25,-0.4 -1.25,-0.9875 0,-0.5375 0.55,-0.8875 1.15,-0.8875 0.6625,0 1.325,0.2 1.875,0.5625 v -0.525 c -0.55,-0.3625 -1.2125,-0.5625 -1.875,-0.5625 -1.0875,0 -2.0875,0.6625 -2.0875,1.675 0,0.9125 1.0125,1.3375 1.975,1.575 0.6625,0.1625 1.35,0.5125 1.35,1.15 0,0.5875 -0.6,0.95 -1.2375,0.95 -0.775,0 -1.525,-0.1875 -2.1875,-0.5625 v 0.525 c 0.6625,0.375 1.4125,0.5625 2.1875,0.5625 1.125,0 2.175,-0.675 2.175,-1.725 z"
         style="font-size:12.5px;line-height:1.25"
         id="path1013" />
      <path
         d="m 185.71066,229.27164 v -5.60625 h -0.47125 c -0.44688,0.51187 -0.975,0.95062 -1.56,1.29187 v 0.34125 c 0.49562,-0.23562 0.95875,-0.51187 1.3975,-0.845 v 4.81813 z"
         style="font-size:65%;baseline-shift:sub"
         id="path1015" />
      <path
         d="m 191.15441,229.27164 v -0.50375 h -2.86813 l 1.495,-1.47875 c 0.66625,-0.66625 1.29188,-1.44625 1.29188,-2.38875 0,-0.79625 -0.78813,-1.31625 -1.64125,-1.31625 -0.64188,0 -1.25125,0.2925 -1.64938,0.78812 v 0.34125 c 0.41438,-0.47937 1.01563,-0.75562 1.64938,-0.75562 0.54437,0 1.0075,0.40625 1.0075,0.9425 0,0.80437 -0.37375,1.55187 -0.92625,2.12875 l -1.81188,1.86062 v 0.38188 z"
         style="font-size:65%;baseline-shift:sub"
         id="path1017" />
    </g>
    <g
       aria-label="s13"
       id="text5233"
       style="line-height:0%;font-family:Iwona;-inkscape-font-specification:Iwona;text-align:end;letter-spacing:0px;word-spacing:0px;text-anchor:end;stroke-width:1px">
      <path
         d="m 182.46692,235.80157 c 0,-0.9875 -1.05,-1.5 -2.075,-1.75 -0.6,-0.15 -1.25,-0.4 -1.25,-0.9875 0,-0.5375 0.55,-0.8875 1.15,-0.8875 0.6625,0 1.325,0.2 1.875,0.5625 v -0.525 c -0.55,-0.3625 -1.2125,-0.5625 -1.875,-0.5625 -1.0875,0 -2.0875,0.6625 -2.0875,1.675 0,0.9125 1.0125,1.3375 1.975,1.575 0.6625,0.1625 1.35,0.5125 1.35,1.15 0,0.5875 -0.6,0.95 -1.2375,0.95 -0.775,0 -1.525,-0.1875 -2.1875,-0.5625 v 0.525 c 0.6625,0.375 1.4125,0.5625 2.1875,0.5625 1.125,0 2.175,-0.675 2.175,-1.725 z"
         style="font-size:12.5px;line-height:1.25"
         id="path1020" />
      <path
         d="m 185.71066,239.90157 v -5.60625 h -0.47125 c -0.44688,0.51187 -0.975,0.95062 -1.56,1.29187 v 0.34125 c 0.49562,-0.23562 0.95875,-0.51187 1.3975,-0.845 v 4.81813 z"
         style="font-size:65%;baseline-shift:sub"
         id="path1022" />
      <path
         d="m 191.15441,238.35782 c 0,-0.715 -0.50375,-1.3325 -1.2025,-1.54375 0.6175,-0.17875 0.99937,-0.64188 0.99937,-1.25938 0,-0.80437 -0.65,-1.34062 -1.625,-1.34062 -0.52812,0 -1.04,0.17875 -1.45437,0.50375 v 0.34125 c 0.41437,-0.325 0.92625,-0.50375 1.45437,-0.50375 0.59313,0 0.99125,0.39812 0.99125,0.99937 0,0.96688 -0.44687,1.21875 -1.4625,1.21875 v 0.30063 c 1.09688,0 1.58438,0.26 1.58438,1.28375 0,0.70687 -0.455,1.28375 -1.0075,1.28375 -0.6175,0 -1.21875,-0.17875 -1.73063,-0.50375 v 0.34125 c 0.51188,0.325 1.11313,0.50375 1.73063,0.50375 0.9425,0 1.7225,-0.73125 1.7225,-1.625 z"
         style="font-size:65%;baseline-shift:sub"
         id="path1024" />
    </g>
    <g
       aria-label="s14"
       id="text5239"
       style="line-height:0%;font-family:Iwona;-inkscape-font-specification:Iwona;text-align:end;letter-spacing:0px;word-spacing:0px;text-anchor:end;stroke-width:1px">
      <path
         d="m 182.46692,246.43148 c 0,-0.9875 -1.05,-1.5 -2.075,-1.75 -0.6,-0.15 -1.25,-0.4 -1.25,-0.9875 0,-0.5375 0.55,-0.8875 1.15,-0.8875 0.6625,0 1.325,0.2 1.875,0.5625 v -0.525 c -0.55,-0.3625 -1.2125,-0.5625 -1.875,-0.5625 -1.0875,0 -2.0875,0.6625 -2.0875,1.675 0,0.9125 1.0125,1.3375 1.975,1.575 0.6625,0.1625 1.35,0.5125 1.35,1.15 0,0.5875 -0.6,0.95 -1.2375,0.95 -0.775,0 -1.525,-0.1875 -2.1875,-0.5625 v 0.525 c 0.6625,0.375 1.4125,0.5625 2.1875,0.5625 1.125,0 2.175,-0.675 2.175,-1.725 z"
         style="font-size:12.5px;line-height:1.25"
         id="path1027" />
      <path
         d="m 185.71066,250.53148 v -5.60625 h -0.47125 c -0.44688,0.51187 -0.975,0.95062 -1.56,1.29187 v 0.34125 c 0.49562,-0.23562 0.95875,-0.51187 1.3975,-0.845 v 4.81813 z"
         style="font-size:65%;baseline-shift:sub"
         id="path1029" />
      <path
         d="m 191.15441,248.58148 v -0.37375 h -0.60938 v -3.2825 h -0.63375 l -2.21,3.2825 v 0.37375 h 2.21 v 1.95 h 0.63375 v -1.95 z m -1.24313,-0.37375 h -1.79562 l 1.79562,-2.67313 z"
         style="font-size:65%;baseline-shift:sub"
         id="path1031" />
    </g>
    <g
       aria-label="s15"
       id="text5245"
       style="line-height:0%;font-family:Iwona;-inkscape-font-specification:Iwona;text-align:end;letter-spacing:0px;word-spacing:0px;text-anchor:end;stroke-width:1px">
      <path
         d="m 182.46692,257.06141 c 0,-0.9875 -1.05,-1.5 -2.075,-1.75 -0.6,-0.15 -1.25,-0.4 -1.25,-0.9875 0,-0.5375 0.55,-0.8875 1.15,-0.8875 0.6625,0 1.325,0.2 1.875,0.5625 v -0.525 c -0.55,-0.3625 -1.2125,-0.5625 -1.875,-0.5625 -1.0875,0 -2.0875,0.6625 -2.0875,1.675 0,0.9125 1.0125,1.3375 1.975,1.575 0.6625,0.1625 1.35,0.5125 1.35,1.15 0,0.5875 -0.6,0.95 -1.2375,0.95 -0.775,0 -1.525,-0.1875 -2.1875,-0.5625 v 0.525 c 0.6625,0.375 1.4125,0.5625 2.1875,0.5625 1.125,0 2.175,-0.675 2.175,-1.725 z"
         style="font-size:12.5px;line-height:1.25"
         id="path1034" />
      <path
         d="m 185.71066,261.16141 v -5.60625 h -0.47125 c -0.44688,0.51187 -0.975,0.95062 -1.56,1.29187 v 0.34125 c 0.49562,-0.23562 0.95875,-0.51187 1.3975,-0.845 v 4.81813 z"
         style="font-size:65%;baseline-shift:sub"
         id="path1036" />
      <path
         d="m 191.15441,259.33328 c 0,-1.14562 -0.69063,-1.90937 -1.7225,-1.90937 -0.47125,0 -0.91,0.17875 -1.25125,0.47937 l 0.0813,-1.84437 h 2.73 v -0.50375 h -3.04688 l -0.12187,2.80312 0.34125,0.0163 c 0.30875,-0.38187 0.77187,-0.60937 1.2675,-0.60937 0.60125,0 1.0075,0.62562 1.0075,1.56812 0,0.9425 -0.40625,1.56813 -1.0075,1.56813 -0.62563,0 -1.235,-0.20313 -1.73063,-0.585 v 0.34125 c 0.49563,0.38187 1.105,0.585 1.73063,0.585 1.03187,0 1.7225,-0.76375 1.7225,-1.90938 z"
         style="font-size:65%;baseline-shift:sub"
         id="path1038" />
    </g>
    <path
       style="fill:none;stroke:#000000;stroke-width:1px;stroke-linecap:butt;stroke-linejoin:miter;stroke-opacity:1"
       d="M 195.10396,180.70866 H 396.85039"
       id="path5251" />
    <path
       id="path5254"
       d="M 195.10396,191.33858 H 396.85039"
       style="fill:none;stroke:#000000;stroke-width:1px;stroke-linecap:butt;stroke-linejoin:miter;stroke-opacity:1" />
    <path
       style="fill:none;stroke:#000000;stroke-width:1px;stroke-linecap:butt;stroke-linejoin:miter;stroke-opacity:1"
       d="M 195.10396,201.9685 H 396.85039"
       id="path5256" />
    <path
       id="path5258"
       d="m 195.10396,212.59842 h 17.49447"
       style="fill:none;stroke:#000000;stroke-width:1px;stroke-linecap:butt;stroke-linejoin:miter;stroke-opacity:1" />
    <path
       style="fill:none;stroke:#000000;stroke-width:1px;stroke-linecap:butt;stroke-linejoin:miter;stroke-opacity:1"
       d="m 195.10396,223.22834 h 17.49447"
       id="path5260" />
    <path
       id="path5262"
       d="m 195.10396,233.85826 h 17.49447"
       style="fill:none;stroke:#000000;stroke-width:1px;stroke-linecap:butt;stroke-linejoin:miter;stroke-opacity:1" />
    <path
       style="fill:none;stroke:#000000;stroke-width:1px;stroke-linecap:butt;stroke-linejoin:miter;stroke-opacity:1"
       d="m 195.10396,244.48818 h 17.49447"
       id="path5264" />
    <path
       id="path5266"
       d="m 195.10396,255.1181 h 17.49447"
       style="fill:none;stroke:#000000;stroke-width:1px;stroke-linecap:butt;stroke-linejoin:miter;stroke-opacity:1" />
  </g>
</svg>
