<?xml version="1.0" encoding="UTF-8" standalone="no"?>
<!-- Created with Inkscape (http://www.inkscape.org/) -->

<svg
   width="124.40932mm"
   height="132.64018mm"
   id="svg19791"
   version="1.0"
   viewBox="0 0 440.82041 469.98489"
   xmlns="http://www.w3.org/2000/svg"
   xmlns:svg="http://www.w3.org/2000/svg"
   xmlns:rdf="http://www.w3.org/1999/02/22-rdf-syntax-ns#"
   xmlns:cc="http://creativecommons.org/ns#"
   xmlns:dc="http://purl.org/dc/elements/1.1/">
  <defs
     id="defs3">
    <marker
       style="overflow:visible"
       id="marker22529"
       refX="0"
       refY="0"
       orient="auto">
      <path
         transform="matrix(0.4,0,0,0.4,2.96,0.4)"
         style="fill-rule:evenodd;stroke:#000000;stroke-width:1.00000003pt;marker-start:none;marker-end:none"
         d="m -2.5,-1 c 0,2.76 -2.24,5 -5,5 -2.76,0 -5,-2.24 -5,-5 0,-2.76 2.24,-5 5,-5 2.76,0 5,2.24 5,5 z"
         id="path22531" />
    </marker>
    <marker
       style="overflow:visible"
       id="marker18753"
       refX="0"
       refY="0"
       orient="auto">
      <path
         transform="matrix(0.4,0,0,0.4,2.96,0.4)"
         style="fill-rule:evenodd;stroke:#000000;stroke-width:1.00000003pt;marker-start:none;marker-end:none"
         d="m -2.5,-1 c 0,2.76 -2.24,5 -5,5 -2.76,0 -5,-2.24 -5,-5 0,-2.76 2.24,-5 5,-5 2.76,0 5,2.24 5,5 z"
         id="path18755" />
    </marker>
    <marker
       style="overflow:visible"
       id="marker18753-0"
       refX="0"
       refY="0"
       orient="auto">
      <path
         transform="matrix(0.4,0,0,0.4,2.96,0.4)"
         style="fill-rule:evenodd;stroke:#000000;stroke-width:1.00000003pt;marker-start:none;marker-end:none"
         d="m -2.5,-1 c 0,2.76 -2.24,5 -5,5 -2.76,0 -5,-2.24 -5,-5 0,-2.76 2.24,-5 5,-5 2.76,0 5,2.24 5,5 z"
         id="path18755-1" />
    </marker>
  </defs>
  <metadata
     id="metadata4">
    <rdf:RDF>
      <cc:Work
         rdf:about="">
        <dc:format>image/svg+xml</dc:format>
        <dc:type
           rdf:resource="http://purl.org/dc/dcmitype/StillImage" />
        <dc:title />
      </cc:Work>
    </rdf:RDF>
  </metadata>
  <g
     id="layer1"
     transform="translate(-45.326786,-68.59811)">
    <path
       style="fill:none;stroke:#000000;stroke-width:1px;stroke-linecap:butt;stroke-linejoin:miter;stroke-opacity:1"
       d="m 60,106.09448 0.23622,425.40158"
       id="path9016" />
    <path
       id="path9018"
       d="m 113.14961,106.09448 0.23622,425.40158"
       style="fill:none;stroke:#000000;stroke-width:1px;stroke-linecap:butt;stroke-linejoin:miter;stroke-opacity:1" />
    <path
       style="fill:none;stroke:#000000;stroke-width:1px;stroke-linecap:butt;stroke-linejoin:miter;stroke-opacity:1"
       d="m 166.29921,106.09448 0.23622,425.40158"
       id="path9020" />
    <path
       id="path9187"
       d="m 219.44882,106.09448 0.23622,425.40158"
       style="fill:none;stroke:#000000;stroke-width:1px;stroke-linecap:butt;stroke-linejoin:miter;stroke-opacity:1" />
    <g
       transform="rotate(90,-18.193315,125.01798)"
       id="g12436">
      <path
         transform="translate(-44.203438,-91.419854)"
         id="path12438"
         d="M 51.377951,56.360653 V 77.620495 L 70.866142,67.37838 Z"
         style="fill:#ffeeaa;fill-opacity:1;fill-rule:evenodd;stroke:#000000;stroke-width:1px;stroke-linecap:butt;stroke-linejoin:miter;stroke-opacity:1" />
      <path
         id="path12440"
         style="fill:#ffeeaa;stroke:#000000;stroke-width:0.999213"
         transform="translate(-44.203438,-91.419854)"
         d="m 77.952754,67.37838 a 3.5433071,3.5433071 0 0 1 -3.543307,3.543307 3.5433071,3.5433071 0 0 1 -3.543307,-3.543307 3.5433071,3.5433071 0 0 1 3.543307,-3.543307 3.5433071,3.5433071 0 0 1 3.543307,3.543307 z" />
      <path
         transform="translate(-44.203438,-91.419854)"
         id="path12442"
         d="M 24.803153,85.094915 V 67.37838 l 26.574798,-0.387806"
         style="fill:none;stroke:#000000;stroke-width:1px;stroke-linecap:butt;stroke-linejoin:miter;stroke-opacity:1;marker-start:url(#marker22529)" />
      <path
         transform="translate(-44.203438,-91.419854)"
         id="path12444"
         d="M 77.952756,67.37838 432.4882,67.142162"
         style="fill:none;stroke:#000000;stroke-width:1px;stroke-linecap:butt;stroke-linejoin:miter;stroke-opacity:1" />
    </g>
    <g
       id="g12446"
       transform="rotate(90,8.38149,151.59279)">
      <path
         style="fill:#ffeeaa;fill-opacity:1;fill-rule:evenodd;stroke:#000000;stroke-width:1px;stroke-linecap:butt;stroke-linejoin:miter;stroke-opacity:1"
         d="M 51.377951,56.360653 V 77.620495 L 70.866142,67.37838 Z"
         id="path12448"
         transform="translate(-44.203438,-91.419854)" />
      <path
         id="path12450"
         style="fill:#ffeeaa;stroke:#000000;stroke-width:0.999213"
         transform="translate(-44.203438,-91.419854)"
         d="m 77.952754,67.37838 a 3.5433071,3.5433071 0 0 1 -3.543307,3.543307 3.5433071,3.5433071 0 0 1 -3.543307,-3.543307 3.5433071,3.5433071 0 0 1 3.543307,-3.543307 3.5433071,3.5433071 0 0 1 3.543307,3.543307 z" />
      <path
         style="fill:none;stroke:#000000;stroke-width:1px;stroke-linecap:butt;stroke-linejoin:miter;stroke-opacity:1;marker-start:url(#marker22529)"
         d="M 24.803153,85.094915 V 67.37838 l 26.574798,-0.387806"
         id="path12452"
         transform="translate(-44.203438,-91.419854)" />
      <path
         style="fill:none;stroke:#000000;stroke-width:1px;stroke-linecap:butt;stroke-linejoin:miter;stroke-opacity:1"
         d="M 77.952756,67.37838 432.4882,67.142165"
         id="path12454"
         transform="translate(-44.203438,-91.419854)" />
    </g>
    <g
       transform="rotate(90,34.95629,178.16759)"
       id="g12456">
      <path
         transform="translate(-44.203438,-91.419854)"
         id="path12458"
         d="M 51.377951,56.360653 V 77.620495 L 70.866142,67.37838 Z"
         style="fill:#ffeeaa;fill-opacity:1;fill-rule:evenodd;stroke:#000000;stroke-width:1px;stroke-linecap:butt;stroke-linejoin:miter;stroke-opacity:1" />
      <path
         id="path12460"
         style="fill:#ffeeaa;stroke:#000000;stroke-width:0.999213"
         transform="translate(-44.203438,-91.419854)"
         d="m 77.952754,67.37838 a 3.5433071,3.5433071 0 0 1 -3.543307,3.543307 3.5433071,3.5433071 0 0 1 -3.543307,-3.543307 3.5433071,3.5433071 0 0 1 3.543307,-3.543307 3.5433071,3.5433071 0 0 1 3.543307,3.543307 z" />
      <path
         transform="translate(-44.203438,-91.419854)"
         id="path12462"
         d="M 24.803153,85.094915 V 67.37838 l 26.574798,-0.387806"
         style="fill:none;stroke:#000000;stroke-width:1px;stroke-linecap:butt;stroke-linejoin:miter;stroke-opacity:1;marker-start:url(#marker22529)" />
      <path
         transform="translate(-44.203438,-91.419854)"
         id="path12464"
         d="M 77.952756,67.37838 432.4882,67.142159"
         style="fill:none;stroke:#000000;stroke-width:1px;stroke-linecap:butt;stroke-linejoin:miter;stroke-opacity:1" />
    </g>
    <g
       transform="translate(-10.86614,-17.921252)"
       id="g12724">
      <g
         aria-label="BA"
         id="text12420"
         style="line-height:0%;font-family:Iwona;-inkscape-font-specification:Iwona;text-align:center;text-anchor:middle">
        <path
           d="m 69.994167,99.845977 c 0,-1.32 -0.864,-2.016 -2.124,-2.28 0.924,-0.276 1.536,-0.876 1.536,-1.896 0,-1.464 -1.26,-2.064 -2.88,-2.064 -0.624,0 -1.248,0.036 -1.872,0.12 h -0.96 v 8.400003 h 0.96 l 1.872,0.12 c 1.944,0 3.468,-0.66 3.468,-2.400003 z m -1.572,-4.176 c 0,1.212 -1.356,1.836 -2.712,1.836 h -1.032 v -3.228 c 0.612,-0.084 1.236,-0.12 1.848,-0.12 0.984,0 1.896,0.6 1.896,1.512 z m 0.396,4.176 c 0,1.104003 -1.092,1.848003 -2.292,1.848003 -0.612,0 -1.236,-0.036 -1.848,-0.12 v -3.648003 h 1.548 c 1.32,0 2.592,0.708 2.592,1.92 z"
           style="font-size:12px;line-height:1.25"
           id="path852" />
        <path
           d="m 78.034161,102.12598 -3.048,-8.400003 h -1.044 l -3.108,8.400003 h 0.588 l 1.092,-2.940003 h 3.408 l 1.068,2.940003 z m -2.316,-3.492003 h -3 l 1.512,-4.104 z"
           style="font-size:12px;line-height:1.25"
           id="path854" />
      </g>
      <g
         transform="translate(-318.89764,-159.44881)"
         id="g12716">
        <path
           id="path12722"
           d="m 396.8504,265.74802 h -14.17322 v 10.62992 l 7.08661,7.08661 7.08661,-7.08661 z"
           style="fill:#d5f6ff;fill-opacity:1;stroke:#000000;stroke-width:1px;stroke-linecap:butt;stroke-linejoin:miter;stroke-opacity:1" />
      </g>
    </g>
    <g
       id="g12730"
       transform="translate(42.28346,-17.921252)">
      <g
         aria-label="BR"
         id="text12732"
         style="line-height:0%;font-family:Iwona;-inkscape-font-specification:Iwona;text-align:center;text-anchor:middle">
        <path
           d="m 69.790165,99.845977 c 0,-1.32 -0.864,-2.016 -2.124,-2.28 0.924,-0.276 1.536,-0.876 1.536,-1.896 0,-1.464 -1.26,-2.064 -2.88,-2.064 -0.624,0 -1.248,0.036 -1.872,0.12 h -0.96 v 8.400003 h 0.96 l 1.872,0.12 c 1.944,0 3.468,-0.66 3.468,-2.400003 z m -1.572,-4.176 c 0,1.212 -1.356,1.836 -2.712,1.836 h -1.032 v -3.228 c 0.612,-0.084 1.236,-0.12 1.848,-0.12 0.984,0 1.896,0.6 1.896,1.512 z m 0.396,4.176 c 0,1.104003 -1.092,1.848003 -2.292,1.848003 -0.612,0 -1.236,-0.036 -1.848,-0.12 v -3.648003 h 1.548 c 1.32,0 2.592,0.708 2.592,1.92 z"
           style="font-size:12px;line-height:1.25"
           id="path857" />
        <path
           d="m 78.238159,102.12598 -2.556,-3.804003 c 1.308,-0.252 2.208,-0.972 2.208,-2.316 0,-1.692 -1.452,-2.4 -3.336,-2.4 -0.672,0 -1.344,0.036 -2.004,0.12 h -0.96 v 8.400003 h 0.984 v -3.900003 c 0.648,0.12 1.32,0.192 1.98,0.192 l 2.508,3.708003 z m -1.524,-6.120003 c 0,1.092 -1.02,1.86 -2.16,1.86 -0.66,0 -1.332,-0.072 -1.98,-0.192 v -3.396 c 0.66,-0.084 1.32,-0.12 1.98,-0.12 1.14,0 2.16,0.768 2.16,1.848 z"
           style="font-size:12px;line-height:1.25"
           id="path859" />
      </g>
      <g
         id="g12736"
         transform="translate(-318.89764,-159.44881)">
        <path
           style="fill:#d5f6ff;fill-opacity:1;stroke:#000000;stroke-width:1px;stroke-linecap:butt;stroke-linejoin:miter;stroke-opacity:1"
           d="m 396.8504,265.74802 h -14.17322 v 10.62992 l 7.08661,7.08661 7.08661,-7.08661 z"
           id="path12738" />
      </g>
    </g>
    <g
       transform="translate(95.43307,-17.921252)"
       id="g12740">
      <g
         aria-label="BG"
         id="text12742"
         style="line-height:0%;font-family:Iwona;-inkscape-font-specification:Iwona;text-align:center;text-anchor:middle">
        <path
           d="m 69.346169,99.845977 c 0,-1.32 -0.864,-2.016 -2.124,-2.28 0.924,-0.276 1.536,-0.876 1.536,-1.896 0,-1.464 -1.26,-2.064 -2.88,-2.064 -0.624,0 -1.248,0.036 -1.872,0.12 h -0.96 v 8.400003 h 0.96 l 1.872,0.12 c 1.944,0 3.468,-0.66 3.468,-2.400003 z m -1.572,-4.176 c 0,1.212 -1.356,1.836 -2.712,1.836 h -1.032 v -3.228 c 0.612,-0.084 1.236,-0.12 1.848,-0.12 0.984,0 1.896,0.6 1.896,1.512 z m 0.396,4.176 c 0,1.104003 -1.092,1.848003 -2.292,1.848003 -0.612,0 -1.236,-0.036 -1.848,-0.12 v -3.648003 h 1.548 c 1.32,0 2.592,0.708 2.592,1.92 z"
           style="font-size:12px;line-height:1.25"
           id="path862" />
        <path
           d="m 77.842162,102.12598 v -3.528003 h -0.984 v 2.316003 c -0.624,0.504 -1.392,0.78 -2.196,0.78 -1.908,0 -2.7,-1.644 -2.7,-3.768003 0,-2.124 0.792,-3.768 2.7,-3.768 1.128,0 2.196,0.444 2.988,1.248 v -0.552 c -0.792,-0.804 -1.86,-1.248 -2.988,-1.248 -2.472,0 -3.876,1.752 -3.876,4.32 0,2.568003 1.404,4.320003 3.876,4.320003 0.804,0 1.572,-0.276 2.196,-0.78 v 0.66 z"
           style="font-size:12px;line-height:1.25"
           id="path864" />
      </g>
      <g
         transform="translate(-318.89764,-159.44881)"
         id="g12746">
        <path
           id="path12748"
           d="m 396.8504,265.74802 h -14.17322 v 10.62992 l 7.08661,7.08661 7.08661,-7.08661 z"
           style="fill:#d5f6ff;fill-opacity:1;stroke:#000000;stroke-width:1px;stroke-linecap:butt;stroke-linejoin:miter;stroke-opacity:1" />
      </g>
    </g>
    <g
       id="g12750"
       transform="translate(148.58267,-17.921252)">
      <g
         aria-label="BD"
         id="text12752"
         style="line-height:0%;font-family:Iwona;-inkscape-font-specification:Iwona;text-align:center;text-anchor:middle">
        <path
           d="m 69.226166,99.845977 c 0,-1.32 -0.864,-2.016 -2.124,-2.28 0.924,-0.276 1.536,-0.876 1.536,-1.896 0,-1.464 -1.26,-2.064 -2.88,-2.064 -0.624,0 -1.248,0.036 -1.872,0.12 h -0.96 v 8.400003 h 0.96 l 1.872,0.12 c 1.944,0 3.468,-0.66 3.468,-2.400003 z m -1.572,-4.176 c 0,1.212 -1.356,1.836 -2.712,1.836 h -1.032 v -3.228 c 0.612,-0.084 1.236,-0.12 1.848,-0.12 0.984,0 1.896,0.6 1.896,1.512 z m 0.396,4.176 c 0,1.104003 -1.092,1.848003 -2.292,1.848003 -0.612,0 -1.236,-0.036 -1.848,-0.12 v -3.648003 h 1.548 c 1.32,0 2.592,0.708 2.592,1.92 z"
           style="font-size:12px;line-height:1.25"
           id="path867" />
        <path
           d="m 78.202159,97.925977 c 0,-2.568 -1.404,-4.32 -3.876,-4.32 -0.744,0 -1.488,0.036 -2.22,0.12 h -0.96 v 8.400003 h 0.96 c 0.732,0.084 1.476,0.12 2.22,0.12 2.472,0 3.876,-1.752 3.876,-4.320003 z m -1.176,0 c 0,1.908 -0.972,3.768003 -2.7,3.768003 -0.732,0 -1.464,-0.036 -2.196,-0.12 v -7.296003 c 0.732,-0.084 1.464,-0.12 2.196,-0.12 1.728,0 2.7,1.86 2.7,3.768 z"
           style="font-size:12px;line-height:1.25"
           id="path869" />
      </g>
      <g
         id="g12756"
         transform="translate(-318.89764,-159.44881)">
        <path
           style="fill:#d5f6ff;fill-opacity:1;stroke:#000000;stroke-width:1px;stroke-linecap:butt;stroke-linejoin:miter;stroke-opacity:1"
           d="m 396.8504,265.74802 h -14.17322 v 10.62992 l 7.08661,7.08661 7.08661,-7.08661 z"
           id="path12758" />
      </g>
    </g>
    <g
       id="g6686"
       transform="translate(132.4803,-434.72439)">
      <g
         aria-label="MGA"
         id="text6631"
         style="line-height:0%;font-family:Iwona;-inkscape-font-specification:Iwona;text-align:center;text-anchor:middle">
        <path
           d="m 329.4846,636.69287 -0.48,-8.4 h -0.792 l -3.372,7.092 -3.384,-7.092 h -0.792 l -0.48,8.4 h 0.552 l 0.384,-6.804 3.252,6.804 h 0.444 l 3.288,-6.888 0.396,6.888 z"
           style="font-size:12px;line-height:1.25"
           id="path872" />
        <path
           d="m 337.98058,636.69287 v -3.528 h -0.984 v 2.316 c -0.624,0.504 -1.392,0.78 -2.196,0.78 -1.908,0 -2.7,-1.644 -2.7,-3.768 0,-2.124 0.792,-3.768 2.7,-3.768 1.128,0 2.196,0.444 2.988,1.248 v -0.552 c -0.792,-0.804 -1.86,-1.248 -2.988,-1.248 -2.472,0 -3.876,1.752 -3.876,4.32 0,2.568 1.404,4.32 3.876,4.32 0.804,0 1.572,-0.276 2.196,-0.78 v 0.66 z"
           style="font-size:12px;line-height:1.25"
           id="path874" />
        <path
           d="m 346.26057,636.69287 -3.048,-8.4 h -1.044 l -3.108,8.4 h 0.588 l 1.092,-2.94 h 3.408 l 1.068,2.94 z m -2.316,-3.492 h -3 l 1.512,-4.104 z"
           style="font-size:12px;line-height:1.25"
           id="path876" />
      </g>
      <g
         id="g6635"
         transform="rotate(-90,547.97245,489.11415)">
        <path
           style="fill:#d5f6ff;fill-opacity:1;stroke:#000000;stroke-width:1px;stroke-linecap:butt;stroke-linejoin:miter;stroke-opacity:1"
           d="m 396.8504,265.74802 h -14.17322 v 10.62992 l 7.08661,7.08661 7.08661,-7.08661 z"
           id="path6637" />
      </g>
    </g>
    <g
       id="g6692"
       transform="translate(79.330704,-349.68502)">
      <g
         aria-label="MGR"
         id="text6641"
         style="line-height:0%;font-family:Iwona;-inkscape-font-specification:Iwona;text-align:center;text-anchor:middle">
        <path
           d="m 382.43019,636.57288 -0.48,-8.4 h -0.792 l -3.372,7.092 -3.384,-7.092 h -0.792 l -0.48,8.4 h 0.552 l 0.384,-6.804 3.252,6.804 h 0.444 l 3.288,-6.888 0.396,6.888 z"
           style="font-size:12px;line-height:1.25"
           id="path879" />
        <path
           d="m 390.92618,636.57288 v -3.528 h -0.984 v 2.316 c -0.624,0.504 -1.392,0.78 -2.196,0.78 -1.908,0 -2.7,-1.644 -2.7,-3.768 0,-2.124 0.792,-3.768 2.7,-3.768 1.128,0 2.196,0.444 2.988,1.248 v -0.552 c -0.792,-0.804 -1.86,-1.248 -2.988,-1.248 -2.472,0 -3.876,1.752 -3.876,4.32 0,2.568 1.404,4.32 3.876,4.32 0.804,0 1.572,-0.276 2.196,-0.78 v 0.66 z"
           style="font-size:12px;line-height:1.25"
           id="path881" />
        <path
           d="m 399.61416,636.57288 -2.556,-3.804 c 1.308,-0.252 2.208,-0.972 2.208,-2.316 0,-1.692 -1.452,-2.4 -3.336,-2.4 -0.672,0 -1.344,0.036 -2.004,0.12 h -0.96 v 8.4 h 0.984 v -3.9 c 0.648,0.12 1.32,0.192 1.98,0.192 l 2.508,3.708 z m -1.524,-6.12 c 0,1.092 -1.02,1.86 -2.16,1.86 -0.66,0 -1.332,-0.072 -1.98,-0.192 v -3.396 c 0.66,-0.084 1.32,-0.12 1.98,-0.12 1.14,0 2.16,0.768 2.16,1.848 z"
           style="font-size:12px;line-height:1.25"
           id="path883" />
      </g>
      <g
         transform="rotate(-90,574.54725,462.53935)"
         id="g6645">
        <path
           id="path6647"
           d="m 396.8504,265.74802 h -14.17322 v 10.62992 l 7.08661,7.08661 7.08661,-7.08661 z"
           style="fill:#d5f6ff;fill-opacity:1;stroke:#000000;stroke-width:1px;stroke-linecap:butt;stroke-linejoin:miter;stroke-opacity:1" />
      </g>
    </g>
    <g
       id="g6698"
       transform="translate(26.181084,-264.64566)">
      <g
         aria-label="MDA"
         id="text6651"
         style="line-height:0%;font-family:Iwona;-inkscape-font-specification:Iwona;text-align:center;text-anchor:middle">
        <path
           d="m 435.80782,636.69287 -0.48,-8.4 h -0.792 l -3.372,7.092 -3.384,-7.092 h -0.792 l -0.48,8.4 h 0.552 l 0.384,-6.804 3.252,6.804 h 0.444 l 3.288,-6.888 0.396,6.888 z"
           style="font-size:12px;line-height:1.25"
           id="path886" />
        <path
           d="m 444.78381,632.49287 c 0,-2.568 -1.404,-4.32 -3.876,-4.32 -0.744,0 -1.488,0.036 -2.22,0.12 h -0.96 v 8.4 h 0.96 c 0.732,0.084 1.476,0.12 2.22,0.12 2.472,0 3.876,-1.752 3.876,-4.32 z m -1.176,0 c 0,1.908 -0.972,3.768 -2.7,3.768 -0.732,0 -1.464,-0.036 -2.196,-0.12 v -7.296 c 0.732,-0.084 1.464,-0.12 2.196,-0.12 1.728,0 2.7,1.86 2.7,3.768 z"
           style="font-size:12px;line-height:1.25"
           id="path888" />
        <path
           d="m 452.53579,636.69287 -3.048,-8.4 h -1.044 l -3.108,8.4 h 0.588 l 1.092,-2.94 h 3.408 l 1.068,2.94 z m -2.316,-3.492 h -3 l 1.512,-4.104 z"
           style="font-size:12px;line-height:1.25"
           id="path890" />
      </g>
      <path
         id="path6657"
         d="m 430.90553,640.23621 v 14.17323 h 10.62992 l 7.08661,-7.08662 -7.08661,-7.08661 z"
         style="fill:#d5f6ff;fill-opacity:1;stroke:#000000;stroke-width:1px;stroke-linecap:butt;stroke-linejoin:miter;stroke-opacity:1" />
    </g>
    <g
       id="g6703"
       transform="translate(-26.968506,-179.60628)">
      <g
         aria-label="MDR"
         id="text6661"
         style="line-height:0%;font-family:Iwona;-inkscape-font-specification:Iwona;text-align:center;text-anchor:middle">
        <path
           d="m 488.60942,636.69287 -0.48,-8.4 h -0.792 l -3.372,7.092 -3.384,-7.092 h -0.792 l -0.48,8.4 h 0.552 l 0.384,-6.804 3.252,6.804 h 0.444 l 3.288,-6.888 0.396,6.888 z"
           style="font-size:12px;line-height:1.25"
           id="path893" />
        <path
           d="m 497.5854,632.49287 c 0,-2.568 -1.404,-4.32 -3.876,-4.32 -0.744,0 -1.488,0.036 -2.22,0.12 h -0.96 v 8.4 h 0.96 c 0.732,0.084 1.476,0.12 2.22,0.12 2.472,0 3.876,-1.752 3.876,-4.32 z m -1.176,0 c 0,1.908 -0.972,3.768 -2.7,3.768 -0.732,0 -1.464,-0.036 -2.196,-0.12 v -7.296 c 0.732,-0.084 1.464,-0.12 2.196,-0.12 1.728,0 2.7,1.86 2.7,3.768 z"
           style="font-size:12px;line-height:1.25"
           id="path895" />
        <path
           d="m 506.03339,636.69287 -2.556,-3.804 c 1.308,-0.252 2.208,-0.972 2.208,-2.316 0,-1.692 -1.452,-2.4 -3.336,-2.4 -0.672,0 -1.344,0.036 -2.004,0.12 h -0.96 v 8.4 h 0.984 v -3.9 c 0.648,0.12 1.32,0.192 1.98,0.192 l 2.508,3.708 z m -1.524,-6.12 c 0,1.092 -1.02,1.86 -2.16,1.86 -0.66,0 -1.332,-0.072 -1.98,-0.192 v -3.396 c 0.66,-0.084 1.32,-0.12 1.98,-0.12 1.14,0 2.16,0.768 2.16,1.848 z"
           style="font-size:12px;line-height:1.25"
           id="path897" />
      </g>
      <g
         transform="rotate(-90,627.69685,409.38975)"
         id="g6665">
        <path
           id="path6667"
           d="m 396.8504,265.74802 h -14.17322 v 10.62992 l 7.08661,7.08661 7.08661,-7.08661 z"
           style="fill:#d5f6ff;fill-opacity:1;stroke:#000000;stroke-width:1px;stroke-linecap:butt;stroke-linejoin:miter;stroke-opacity:1" />
      </g>
    </g>
    <g
       id="g5268"
       transform="translate(0,77.952752)">
      <g
         id="g56126"
         transform="translate(287.98949,242.22651)">
        <path
           id="path56130"
           d="m 24.789481,-22.541473 9.661974,-3e-6 v 10.629921 h 14.173228"
           style="fill:none;stroke:#000000;stroke-width:1px;stroke-linecap:butt;stroke-linejoin:miter;stroke-opacity:1" />
        <path
           style="fill:none;stroke:#000000;stroke-width:1px;stroke-linecap:butt;stroke-linejoin:miter;stroke-opacity:1;marker-start:url(#marker18753)"
           d="m -68.304451,-11.911551 63.7795295,-1e-6"
           id="path56134" />
        <path
           id="path11603"
           d="M -174.60366,-33.171394 H -4.5249215"
           style="fill:none;stroke:#000000;stroke-width:1px;stroke-linecap:butt;stroke-linejoin:miter;stroke-opacity:1;marker-start:url(#marker18753)" />
        <path
           style="fill:none;stroke:#000000;stroke-width:1px;stroke-linecap:butt;stroke-linejoin:miter;stroke-opacity:1;marker-start:url(#marker18753)"
           d="M -103.73752,-22.541473 H -4.5249215"
           id="path13997" />
        <path
           id="path56132"
           d="m -11.611536,-40.258009 c 7.0866149,10.629922 7.0866149,24.80315 0,35.4330707 7.0866149,4e-7 24.80315,-3.5433067 28.346457,-17.7165347 -3.543307,-14.173229 -21.2598421,-17.716536 -28.346457,-17.716536 z"
           style="fill:#ffeeaa;fill-opacity:1;stroke:#000000;stroke-width:1px;stroke-linecap:butt;stroke-linejoin:miter;stroke-opacity:1" />
        <path
           id="path12440-8"
           style="fill:#ffeeaa;stroke:#000000;stroke-width:0.999213"
           transform="rotate(90)"
           d="m -18.817369,-20.746567 a 3.5433071,3.5433071 0 0 1 -3.543307,3.543307 3.5433071,3.5433071 0 0 1 -3.543307,-3.543307 3.5433071,3.5433071 0 0 1 3.543307,-3.543307 3.5433071,3.5433071 0 0 1 3.543307,3.543307 z" />
      </g>
      <g
         transform="translate(287.98949,284.74619)"
         id="g4314">
        <path
           style="fill:none;stroke:#000000;stroke-width:1px;stroke-linecap:butt;stroke-linejoin:miter;stroke-opacity:1"
           d="m 24.789481,-22.541473 9.661974,2e-6 v -10.629922 h 14.173228"
           id="path4316" />
        <path
           id="path4318"
           d="m -121.45406,-11.911549 116.9291385,-3e-6"
           style="fill:none;stroke:#000000;stroke-width:1px;stroke-linecap:butt;stroke-linejoin:miter;stroke-opacity:1;marker-start:url(#marker18753)" />
        <path
           style="fill:none;stroke:#000000;stroke-width:1px;stroke-linecap:butt;stroke-linejoin:miter;stroke-opacity:1;marker-start:url(#marker18753)"
           d="m -156.88713,-33.171392 152.3622085,-2e-6"
           id="path4320" />
        <path
           style="fill:#ffeeaa;fill-opacity:1;stroke:#000000;stroke-width:1px;stroke-linecap:butt;stroke-linejoin:miter;stroke-opacity:1"
           d="m -11.611536,-40.258009 c 7.0866149,10.629922 7.0866149,24.80315 0,35.4330707 7.0866149,4e-7 24.80315,-3.5433067 28.346457,-17.7165347 -3.543307,-14.173229 -21.2598421,-17.716536 -28.346457,-17.716536 z"
           id="path4324" />
        <path
           id="circle4326"
           style="fill:#ffeeaa;stroke:#000000;stroke-width:0.999213"
           transform="rotate(90)"
           d="m -18.817369,-20.746567 a 3.5433071,3.5433071 0 0 1 -3.543307,3.543307 3.5433071,3.5433071 0 0 1 -3.543307,-3.543307 3.5433071,3.5433071 0 0 1 3.543307,-3.543307 3.5433071,3.5433071 0 0 1 3.543307,3.543307 z" />
      </g>
      <g
         id="g5186"
         transform="translate(344.6824,263.48635)">
        <path
           id="path5188"
           d="m 24.789481,-22.541473 9.661975,-1e-6 v -10.629921 h 14.173228"
           style="fill:none;stroke:#000000;stroke-width:1px;stroke-linecap:butt;stroke-linejoin:miter;stroke-opacity:1" />
        <path
           id="path5194"
           d="m -11.611536,-40.258009 c 7.0866149,10.629922 7.0866149,24.80315 0,35.4330707 7.0866149,4e-7 24.80315,-3.5433067 28.346457,-17.7165347 -3.543307,-14.173229 -21.2598421,-17.716536 -28.346457,-17.716536 z"
           style="fill:#ffeeaa;fill-opacity:1;stroke:#000000;stroke-width:1px;stroke-linecap:butt;stroke-linejoin:miter;stroke-opacity:1" />
        <path
           id="circle5196"
           style="fill:#ffeeaa;stroke:#000000;stroke-width:0.999213"
           transform="rotate(90)"
           d="m -18.817369,-20.746567 a 3.5433071,3.5433071 0 0 1 -3.543307,3.543307 3.5433071,3.5433071 0 0 1 -3.543307,-3.543307 3.5433071,3.5433071 0 0 1 3.543307,-3.543307 3.5433071,3.5433071 0 0 1 3.543307,3.543307 z" />
      </g>
      <g
         transform="translate(401.37532,242.22651)"
         id="g5198">
        <path
           style="fill:none;stroke:#000000;stroke-width:1px;stroke-linecap:butt;stroke-linejoin:miter;stroke-opacity:1"
           d="m 24.789481,-22.541473 30.921818,-3e-6"
           id="path5200" />
        <path
           style="fill:#ffeeaa;fill-opacity:1;stroke:#000000;stroke-width:1px;stroke-linecap:butt;stroke-linejoin:miter;stroke-opacity:1"
           d="m -11.611536,-40.258009 c 7.0866149,10.629922 7.0866149,24.80315 0,35.4330707 7.0866149,4e-7 24.80315,-3.5433067 28.346457,-17.7165347 -3.543307,-14.173229 -21.2598421,-17.716536 -28.346457,-17.716536 z"
           id="path5202" />
        <path
           id="circle5204"
           style="fill:#ffeeaa;stroke:#000000;stroke-width:0.999213"
           transform="rotate(90)"
           d="m -18.817369,-20.746567 a 3.5433071,3.5433071 0 0 1 -3.543307,3.543307 3.5433071,3.5433071 0 0 1 -3.543307,-3.543307 3.5433071,3.5433071 0 0 1 3.543307,-3.543307 3.5433071,3.5433071 0 0 1 3.543307,3.543307 z" />
      </g>
      <path
         id="path11603-9"
         d="m 60.23622,194.88188 h 318.89764 v 14.17323 h 14.17323"
         style="fill:none;stroke:#000000;stroke-width:1px;stroke-linecap:butt;stroke-linejoin:miter;stroke-opacity:1;marker-start:url(#marker18753-0)" />
    </g>
    <g
       id="g5254"
       transform="translate(-4.4724408e-6,77.952753)">
      <g
         transform="translate(401.37532,327.26588)"
         id="g5227">
        <path
           style="fill:none;stroke:#000000;stroke-width:1px;stroke-linecap:butt;stroke-linejoin:miter;stroke-opacity:1"
           d="m 24.789481,-22.541473 30.921813,-3e-6"
           id="path5230" />
        <path
           style="fill:none;stroke:#000000;stroke-width:1px;stroke-linecap:butt;stroke-linejoin:miter;stroke-opacity:1;marker-start:url(#marker18753)"
           d="m -287.98949,-33.171398 283.4645685,4e-6"
           id="path5234" />
        <path
           id="path5236"
           d="m -181.69028,-22.541476 177.1653585,3e-6"
           style="fill:none;stroke:#000000;stroke-width:1px;stroke-linecap:butt;stroke-linejoin:miter;stroke-opacity:1;marker-start:url(#marker18753)" />
        <path
           style="fill:#ffeeaa;fill-opacity:1;stroke:#000000;stroke-width:1px;stroke-linecap:butt;stroke-linejoin:miter;stroke-opacity:1"
           d="m -11.611536,-40.258009 c 7.0866149,10.629922 7.0866149,24.80315 0,35.4330707 7.0866149,4e-7 24.80315,-3.5433067 28.346457,-17.7165347 -3.543307,-14.173229 -21.2598421,-17.716536 -28.346457,-17.716536 z"
           id="path5238" />
        <path
           id="circle5240"
           style="fill:#ffeeaa;stroke:#000000;stroke-width:0.999213"
           transform="rotate(90)"
           d="m -18.817369,-20.746567 a 3.5433071,3.5433071 0 0 1 -3.543307,3.543307 3.5433071,3.5433071 0 0 1 -3.543307,-3.543307 3.5433071,3.5433071 0 0 1 3.543307,-3.543307 3.5433071,3.5433071 0 0 1 3.543307,3.543307 z" />
      </g>
      <g
         id="g5242"
         transform="translate(287.98949,359.15564)">
        <path
           id="path5244"
           d="M 23.821535,-22.541474 H 66.34122 v -21.259842 h 38.97638"
           style="fill:none;stroke:#000000;stroke-width:1px;stroke-linecap:butt;stroke-linejoin:miter;stroke-opacity:1" />
        <path
           style="fill:none;stroke:#000000;stroke-width:1px;stroke-linecap:butt;stroke-linejoin:miter;stroke-opacity:1;marker-start:url(#marker18753)"
           d="m -121.45406,-11.911549 116.9291385,-3e-6"
           id="path5246" />
        <path
           id="path5248"
           d="m -227.75327,-33.171395 223.2283485,10e-7"
           style="fill:none;stroke:#000000;stroke-width:1px;stroke-linecap:butt;stroke-linejoin:miter;stroke-opacity:1;marker-start:url(#marker18753)" />
        <path
           id="path5250"
           d="m -11.611536,-40.258009 c 7.0866149,10.629922 7.0866149,24.80315 0,35.4330707 7.0866149,4e-7 24.80315,-3.5433067 28.346457,-17.7165347 -3.543307,-14.173229 -21.2598421,-17.716536 -28.346457,-17.716536 z"
           style="fill:#ffeeaa;fill-opacity:1;stroke:#000000;stroke-width:1px;stroke-linecap:butt;stroke-linejoin:miter;stroke-opacity:1" />
        <path
           id="circle5252"
           style="fill:#ffeeaa;stroke:#000000;stroke-width:0.999213"
           transform="rotate(90)"
           d="m -18.817369,-20.746567 a 3.5433071,3.5433071 0 0 1 -3.543307,3.543307 3.5433071,3.5433071 0 0 1 -3.543307,-3.543307 3.5433071,3.5433071 0 0 1 3.543307,-3.543307 3.5433071,3.5433071 0 0 1 3.543307,3.543307 z" />
      </g>
    </g>
    <g
       transform="translate(0,-92.125987)"
       id="g5292">
      <g
         id="g5294"
         transform="translate(401.37532,327.26588)">
        <path
           id="path5296"
           d="m 24.789481,-22.541473 30.921813,-3e-6"
           style="fill:none;stroke:#000000;stroke-width:1px;stroke-linecap:butt;stroke-linejoin:miter;stroke-opacity:1" />
        <path
           id="path5298"
           d="m -287.98949,-33.171398 283.4645685,4e-6"
           style="fill:none;stroke:#000000;stroke-width:1px;stroke-linecap:butt;stroke-linejoin:miter;stroke-opacity:1;marker-start:url(#marker18753)" />
        <path
           style="fill:none;stroke:#000000;stroke-width:1px;stroke-linecap:butt;stroke-linejoin:miter;stroke-opacity:1;marker-start:url(#marker18753)"
           d="m -234.83989,-22.541474 230.3149685,1e-6"
           id="path5300" />
        <path
           id="path5302"
           d="m -11.611536,-40.258009 c 7.0866149,10.629922 7.0866149,24.80315 0,35.4330707 7.0866149,4e-7 24.80315,-3.5433067 28.346457,-17.7165347 -3.543307,-14.173229 -21.2598421,-17.716536 -28.346457,-17.716536 z"
           style="fill:#ffeeaa;fill-opacity:1;stroke:#000000;stroke-width:1px;stroke-linecap:butt;stroke-linejoin:miter;stroke-opacity:1" />
        <path
           id="circle5304"
           style="fill:#ffeeaa;stroke:#000000;stroke-width:0.999213"
           transform="rotate(90)"
           d="m -18.817369,-20.746567 a 3.5433071,3.5433071 0 0 1 -3.543307,3.543307 3.5433071,3.5433071 0 0 1 -3.543307,-3.543307 3.5433071,3.5433071 0 0 1 3.543307,-3.543307 3.5433071,3.5433071 0 0 1 3.543307,3.543307 z" />
      </g>
      <g
         transform="translate(287.98949,359.15564)"
         id="g5306">
        <path
           style="fill:none;stroke:#000000;stroke-width:1px;stroke-linecap:butt;stroke-linejoin:miter;stroke-opacity:1"
           d="M 23.821535,-22.541474 H 66.34122 v -21.259842 h 38.97638"
           id="path5308" />
        <path
           id="path5310"
           d="m -68.304451,-11.911549 63.7795295,-3e-6"
           style="fill:none;stroke:#000000;stroke-width:1px;stroke-linecap:butt;stroke-linejoin:miter;stroke-opacity:1;marker-start:url(#marker18753)" />
        <path
           style="fill:none;stroke:#000000;stroke-width:1px;stroke-linecap:butt;stroke-linejoin:miter;stroke-opacity:1;marker-start:url(#marker18753)"
           d="m -227.75327,-33.171395 223.2283485,10e-7"
           id="path5312" />
        <path
           style="fill:#ffeeaa;fill-opacity:1;stroke:#000000;stroke-width:1px;stroke-linecap:butt;stroke-linejoin:miter;stroke-opacity:1"
           d="m -11.611536,-40.258009 c 7.0866149,10.629922 7.0866149,24.80315 0,35.4330707 7.0866149,4e-7 24.80315,-3.5433067 28.346457,-17.7165347 -3.543307,-14.173229 -21.2598421,-17.716536 -28.346457,-17.716536 z"
           id="path5314" />
        <path
           id="circle5316"
           style="fill:#ffeeaa;stroke:#000000;stroke-width:0.999213"
           transform="rotate(90)"
           d="m -18.817369,-20.746567 a 3.5433071,3.5433071 0 0 1 -3.543307,3.543307 3.5433071,3.5433071 0 0 1 -3.543307,-3.543307 3.5433071,3.5433071 0 0 1 3.543307,-3.543307 3.5433071,3.5433071 0 0 1 3.543307,3.543307 z" />
      </g>
    </g>
    <g
       transform="translate(0,248.03149)"
       id="g5318">
      <g
         transform="translate(287.98949,242.22651)"
         id="g5320">
        <path
           style="fill:none;stroke:#000000;stroke-width:1px;stroke-linecap:butt;stroke-linejoin:miter;stroke-opacity:1"
           d="m 24.789481,-22.541473 9.661974,-3e-6 v 10.629921 h 14.173228"
           id="path5322" />
        <path
           id="path5324"
           d="m -50.587915,-11.911549 46.0629935,-3e-6"
           style="fill:none;stroke:#000000;stroke-width:1px;stroke-linecap:butt;stroke-linejoin:miter;stroke-opacity:1;marker-start:url(#marker18753)" />
        <path
           style="fill:none;stroke:#000000;stroke-width:1px;stroke-linecap:butt;stroke-linejoin:miter;stroke-opacity:1;marker-start:url(#marker18753)"
           d="M -174.60366,-33.171394 H -4.5249215"
           id="path5326" />
        <path
           id="path5328"
           d="m -121.45406,-22.54147 116.9291385,-3e-6"
           style="fill:none;stroke:#000000;stroke-width:1px;stroke-linecap:butt;stroke-linejoin:miter;stroke-opacity:1;marker-start:url(#marker18753)" />
        <path
           style="fill:#ffeeaa;fill-opacity:1;stroke:#000000;stroke-width:1px;stroke-linecap:butt;stroke-linejoin:miter;stroke-opacity:1"
           d="m -11.611536,-40.258009 c 7.0866149,10.629922 7.0866149,24.80315 0,35.4330707 7.0866149,4e-7 24.80315,-3.5433067 28.346457,-17.7165347 -3.543307,-14.173229 -21.2598421,-17.716536 -28.346457,-17.716536 z"
           id="path5330" />
        <path
           id="circle5332"
           style="fill:#ffeeaa;stroke:#000000;stroke-width:0.999213"
           transform="rotate(90)"
           d="m -18.817369,-20.746567 a 3.5433071,3.5433071 0 0 1 -3.543307,3.543307 3.5433071,3.5433071 0 0 1 -3.543307,-3.543307 3.5433071,3.5433071 0 0 1 3.543307,-3.543307 3.5433071,3.5433071 0 0 1 3.543307,3.543307 z" />
      </g>
      <g
         id="g5334"
         transform="translate(287.98949,284.74619)">
        <path
           id="path5336"
           d="m 24.789481,-22.541473 9.661974,2e-6 v -10.629922 h 14.173228"
           style="fill:none;stroke:#000000;stroke-width:1px;stroke-linecap:butt;stroke-linejoin:miter;stroke-opacity:1" />
        <path
           style="fill:none;stroke:#000000;stroke-width:1px;stroke-linecap:butt;stroke-linejoin:miter;stroke-opacity:1;marker-start:url(#marker18753)"
           d="m -68.304451,-11.911544 63.7795295,-8e-6"
           id="path5338" />
        <path
           id="path5340"
           d="m -156.88713,-33.171392 152.3622085,-2e-6"
           style="fill:none;stroke:#000000;stroke-width:1px;stroke-linecap:butt;stroke-linejoin:miter;stroke-opacity:1;marker-start:url(#marker18753)" />
        <path
           id="path5342"
           d="m -11.611536,-40.258009 c 7.0866149,10.629922 7.0866149,24.80315 0,35.4330707 7.0866149,4e-7 24.80315,-3.5433067 28.346457,-17.7165347 -3.543307,-14.173229 -21.2598421,-17.716536 -28.346457,-17.716536 z"
           style="fill:#ffeeaa;fill-opacity:1;stroke:#000000;stroke-width:1px;stroke-linecap:butt;stroke-linejoin:miter;stroke-opacity:1" />
        <path
           id="circle5344"
           style="fill:#ffeeaa;stroke:#000000;stroke-width:0.999213"
           transform="rotate(90)"
           d="m -18.817369,-20.746567 a 3.5433071,3.5433071 0 0 1 -3.543307,3.543307 3.5433071,3.5433071 0 0 1 -3.543307,-3.543307 3.5433071,3.5433071 0 0 1 3.543307,-3.543307 3.5433071,3.5433071 0 0 1 3.543307,3.543307 z" />
      </g>
      <g
         transform="translate(344.6824,263.48635)"
         id="g5346">
        <path
           style="fill:none;stroke:#000000;stroke-width:1px;stroke-linecap:butt;stroke-linejoin:miter;stroke-opacity:1"
           d="m 24.789481,-22.541473 9.661975,-1e-6 v -10.629921 h 14.173228"
           id="path5348" />
        <path
           style="fill:#ffeeaa;fill-opacity:1;stroke:#000000;stroke-width:1px;stroke-linecap:butt;stroke-linejoin:miter;stroke-opacity:1"
           d="m -11.611536,-40.258009 c 7.0866149,10.629922 7.0866149,24.80315 0,35.4330707 7.0866149,4e-7 24.80315,-3.5433067 28.346457,-17.7165347 -3.543307,-14.173229 -21.2598421,-17.716536 -28.346457,-17.716536 z"
           id="path5350" />
        <path
           id="circle5352"
           style="fill:#ffeeaa;stroke:#000000;stroke-width:0.999213"
           transform="rotate(90)"
           d="m -18.817369,-20.746567 a 3.5433071,3.5433071 0 0 1 -3.543307,3.543307 3.5433071,3.5433071 0 0 1 -3.543307,-3.543307 3.5433071,3.5433071 0 0 1 3.543307,-3.543307 3.5433071,3.5433071 0 0 1 3.543307,3.543307 z" />
      </g>
      <g
         id="g5354"
         transform="translate(401.37532,242.22651)">
        <path
           id="path5356"
           d="m 24.789481,-22.541473 30.921818,-3e-6"
           style="fill:none;stroke:#000000;stroke-width:1px;stroke-linecap:butt;stroke-linejoin:miter;stroke-opacity:1" />
        <path
           id="path5358"
           d="m -11.611536,-40.258009 c 7.0866149,10.629922 7.0866149,24.80315 0,35.4330707 7.0866149,4e-7 24.80315,-3.5433067 28.346457,-17.7165347 -3.543307,-14.173229 -21.2598421,-17.716536 -28.346457,-17.716536 z"
           style="fill:#ffeeaa;fill-opacity:1;stroke:#000000;stroke-width:1px;stroke-linecap:butt;stroke-linejoin:miter;stroke-opacity:1" />
        <path
           id="circle5360"
           style="fill:#ffeeaa;stroke:#000000;stroke-width:0.999213"
           transform="rotate(90)"
           d="m -18.817369,-20.746567 a 3.5433071,3.5433071 0 0 1 -3.543307,3.543307 3.5433071,3.5433071 0 0 1 -3.543307,-3.543307 3.5433071,3.5433071 0 0 1 3.543307,-3.543307 3.5433071,3.5433071 0 0 1 3.543307,3.543307 z" />
      </g>
      <path
         style="fill:none;stroke:#000000;stroke-width:1px;stroke-linecap:butt;stroke-linejoin:miter;stroke-opacity:1;marker-start:url(#marker18753-0)"
         d="m 60.23622,194.88188 h 318.89764 v 14.17323 h 14.17323"
         id="path5362" />
    </g>
  </g>
</svg>
