<?xml version="1.0" encoding="UTF-8" standalone="no"?>
<!-- Created with Inkscape (http://www.inkscape.org/) -->

<svg
   width="278.43738mm"
   height="31mm"
   viewBox="0 0 986.58918 109.84252"
   id="svg2"
   version="1.1"
   xmlns="http://www.w3.org/2000/svg"
   xmlns:svg="http://www.w3.org/2000/svg"
   xmlns:rdf="http://www.w3.org/1999/02/22-rdf-syntax-ns#"
   xmlns:cc="http://creativecommons.org/ns#"
   xmlns:dc="http://purl.org/dc/elements/1.1/">
  <defs
     id="defs4" />
  <metadata
     id="metadata7">
    <rdf:RDF>
      <cc:Work
         rdf:about="">
        <dc:format>image/svg+xml</dc:format>
        <dc:type
           rdf:resource="http://purl.org/dc/dcmitype/StillImage" />
        <dc:title />
      </cc:Work>
    </rdf:RDF>
  </metadata>
  <g
     id="layer2"
     transform="translate(2.4710175,27.596445)" />
  <g
     id="layer1"
     transform="translate(73.727507,3.5432965)">
    <path
       id="rect114"
       style="opacity:1;fill:#ffbd54;stroke-linecap:round;stroke-linejoin:bevel;stroke-dasharray:2, 4"
       d="m 892.91345,56.692928 h 3.54331 v 42.519684 h -3.54331 z" />
    <path
       id="rect4341"
       style="opacity:1;fill:#ffbd54;stroke-linecap:round;stroke-linejoin:bevel;stroke-dasharray:2, 4"
       d="m 885.82678,3.5433178 h 3.54331 V 99.212614 h -3.54331 z" />
    <g
       aria-label="bit_index_reg"
       id="text7699"
       style="line-height:0%;font-family:Iwona;-inkscape-font-specification:Iwona;text-align:end;letter-spacing:0px;word-spacing:0px;text-anchor:end">
      <path
         d="m -57.933393,26.827282 c 0,-2.9925 -1.125,-5.2875 -3.8475,-5.2875 -1.1475,0 -2.205,0.5175 -3.105,1.2375 v -6.6375 h -1.755 v 15.75 h 1.755 v -0.5175 c 0.855,0.45 1.8,0.7425 2.7675,0.7425 2.8125,0 4.185,-2.25 4.185,-5.2875 z m -1.98,0 c 0,2.115 -0.6525,4.3425 -2.4975,4.3425 -0.8775,0 -1.7325,-0.2925 -2.475,-0.7425 v -6.705 c 0.675,-0.675 1.5075,-1.2375 2.475,-1.2375 2.0475,0 2.4975,1.98 2.4975,4.3425 z"
         style="font-size:22.5px;line-height:1.25"
         id="path97" />
      <path
         d="m -50.778408,31.102282 v -0.675 c -0.4275,0.36 -0.9225,0.6525 -1.485,0.6525 -0.8325,0 -0.99,-1.035 -0.99,-2.0025 v -7.3125 h -1.755 v 7.3125 c 0,1.5075 0.585,3.0375 1.9125,3.0375 0.855,0 1.665,-0.4275 2.3175,-1.0125 z m -2.25,-12.8475 c 0,-0.6075 -0.495,-1.1025 -1.1025,-1.1025 -0.6075,0 -1.1025,0.495 -1.1025,1.1025 0,0.6075 0.495,1.1025 1.1025,1.1025 0.6075,0 1.1025,-0.495 1.1025,-1.1025 z"
         style="font-size:22.5px;line-height:1.25"
         id="path99" />
      <path
         d="m -43.758428,31.102282 v -0.675 c -0.36,0.36 -0.7875,0.6525 -1.305,0.6525 -0.81,0 -0.855,-1.0575 -0.855,-2.0025 v -6.3675 h 2.16 v -0.945 h -2.16 v -3.375 h -1.0575 c 0,1.8 -1.035,3.4875 -2.6775,3.4875 v 0.8325 h 1.98 v 6.3675 c 0,1.485 0.4725,3.0375 1.755,3.0375 0.8325,0 1.5525,-0.45 2.16,-1.0125 z"
         style="font-size:22.5px;line-height:1.25"
         id="path101" />
      <path
         d="m -31.83346,34.477282 v -1.125 h -11.25 v 1.125 z"
         style="font-size:22.5px;line-height:1.25"
         id="path103" />
      <path
         d="m -25.916002,31.102282 v -0.675 c -0.4275,0.36 -0.9225,0.6525 -1.485,0.6525 -0.8325,0 -0.99,-1.035 -0.99,-2.0025 v -7.3125 h -1.755 v 7.3125 c 0,1.5075 0.585,3.0375 1.9125,3.0375 0.855,0 1.665,-0.4275 2.3175,-1.0125 z m -2.25,-12.8475 c 0,-0.6075 -0.495,-1.1025 -1.1025,-1.1025 -0.6075,0 -1.1025,0.495 -1.1025,1.1025 0,0.6075 0.495,1.1025 1.1025,1.1025 0.6075,0 1.1025,-0.495 1.1025,-1.1025 z"
         style="font-size:22.5px;line-height:1.25"
         id="path105" />
      <path
         d="m -15.521024,31.889782 v -7.3125 c 0,-1.6425 -1.26,-3.0375 -2.88,-3.0375 -1.35,0 -2.5425,0.765 -3.51,1.71 v -1.485 h -1.755 v 10.125 h 1.755 v -7.9425 c 0.765,-0.765 1.71,-1.3725 2.7675,-1.3725 1.0575,0 1.8675,0.9225 1.8675,2.0025 v 7.3125 z"
         style="font-size:22.5px;line-height:1.25"
         id="path107" />
      <path
         d="m -3.8885629,31.889782 v -15.75 h -1.755 v 6.0075 c -0.8775,-0.3825 -1.8225,-0.6075 -2.7675,-0.6075 -2.8125001,0 -4.1850001,2.25 -4.1850001,5.2875 0,2.9925 1.125,5.2875 3.8475001,5.2875 1.1475,0 2.205,-0.5175 3.105,-1.2375 v 1.0125 z m -1.755,-1.9575 c -0.675,0.675 -1.5075,1.2375 -2.475,1.2375 -2.0475001,0 -2.4975001,-1.98 -2.4975001,-4.3425 0,-2.115 0.6525001,-4.3425 2.4975001,-4.3425 0.855,0 1.71,0.225 2.475,0.6075 z"
         style="font-size:22.5px;line-height:1.25"
         id="path109" />
      <path
         d="m 7.8564246,27.052282 v -0.225 c 0,-3.1725 -1.7325,-5.2875 -4.3425,-5.2875 -2.63249996,0 -4.36499996,2.115 -4.36499996,5.2875 0,3.1725 1.7325,5.2875 4.36499996,5.2875 1.125,0 2.2275,-0.36 3.15,-1.0125 v -0.945 c -1.0575,0.675 -1.9125,0.9225 -3.15,0.9225 -1.9125,0 -2.385,-1.8225 -2.385,-4.0275 z m -1.98,-0.945 h -4.7475 c 0,-1.8 0.765,-3.6225 2.385,-3.6225 1.5975,0 2.3625,1.8225 2.3625,3.6225 z"
         style="font-size:22.5px;line-height:1.25"
         id="path111" />
      <path
         d="m 17.868867,31.889782 -3.5325,-5.4 3.42,-4.725 h -1.17 l -2.79,3.87 -2.52,-3.87 H 9.3863667 l 3.3525003,5.1525 -3.5775003,4.9725 h 1.1700003 l 2.97,-4.1175 2.6775,4.1175 z"
         style="font-size:22.5px;line-height:1.25"
         id="path113" />
      <path
         d="m 29.568827,34.477282 v -1.125 h -11.25 v 1.125 z"
         style="font-size:22.5px;line-height:1.25"
         id="path115" />
      <path
         d="m 36.971281,23.159782 v -1.395 c -0.2475,-0.09 -0.5175,-0.1575 -0.765,-0.1575 -1.26,0 -2.2725,0.8775 -3.0825,1.845 v -1.6875 h -1.755 v 10.125 h 1.755 v -7.4925 c 0.675,-0.7875 1.53,-1.4625 2.565,-1.4625 0.4275,0 0.8775,0.09 1.2825,0.225 z"
         style="font-size:22.5px;line-height:1.25"
         id="path117" />
      <path
         d="m 47.366259,27.052282 v -0.225 c 0,-3.1725 -1.7325,-5.2875 -4.3425,-5.2875 -2.6325,0 -4.365,2.115 -4.365,5.2875 0,3.1725 1.7325,5.2875 4.365,5.2875 1.125,0 2.2275,-0.36 3.15,-1.0125 v -0.945 c -1.0575,0.675 -1.9125,0.9225 -3.15,0.9225 -1.9125,0 -2.385,-1.8225 -2.385,-4.0275 z m -1.98,-0.945 h -4.7475 c 0,-1.8 0.765,-3.6225 2.385,-3.6225 1.5975,0 2.3625,1.8225 2.3625,3.6225 z"
         style="font-size:22.5px;line-height:1.25"
         id="path119" />
      <path
         d="m 58.436236,33.239782 v -11.475 h -1.755 v 0.3825 c -0.8775,-0.3825 -1.8225,-0.6075 -2.7675,-0.6075 -2.8125,0 -4.185,2.25 -4.185,5.2875 0,2.9925 1.125,5.2875 3.8475,5.2875 1.1475,0 2.205,-0.5175 3.105,-1.2375 v 2.3625 c 0,1.5525 -0.855,3.015 -2.25,3.015 -1.1475,0 -2.295,-0.225 -3.375,-0.6075 v 0.6975 c 1.26,0.585 2.655,0.945 4.05,0.945 1.98,0 3.33,-1.935 3.33,-4.05 z m -1.755,-3.3075 c -0.675,0.675 -1.5075,1.2375 -2.475,1.2375 -2.0475,0 -2.4975,-1.98 -2.4975,-4.3425 0,-2.115 0.6525,-4.3425 2.4975,-4.3425 0.855,0 1.71,0.225 2.475,0.6075 z"
         style="font-size:22.5px;line-height:1.25"
         id="path121" />
    </g>
    <path
       id="path7721"
       style="fill:none;fill-rule:evenodd;stroke:#000000;stroke-width:2;stroke-linecap:butt;stroke-linejoin:miter;stroke-miterlimit:4;stroke-dasharray:none;stroke-opacity:1"
       d="m 70.866142,42.519702 h 21.259853 l 3.5433,-35.4330701 h 21.259845 l 3.54331,35.4330701 h 21.25984 l 3.5433,-35.4330701 h 21.25985 l 3.54331,35.4330701 h 21.25984 l 3.5433,-35.4330701 h 21.25985 l 3.54331,35.4330701 h 21.25984 l 3.5433,-35.4330701 h 21.25985 l 3.54331,35.4330701 h 21.25984 l 3.5433,-35.4330701 h 21.25985 l 3.54331,35.4330701 h 21.25984 l 3.5433,-35.4330701 h 21.25985 l 3.54331,35.4330701 h 21.25984 l 3.5433,-35.4330701 h 21.25985 l 3.54331,35.4330701 h 21.25984 l 3.5433,-35.4330701 h 21.25985 l 3.54331,35.4330701 h 21.25986 l 3.5433,-35.4330701 h 21.25984 l 3.54331,35.4330701 H 538.5827 L 542.126,7.0866319 h 21.25985 l 3.54331,35.4330701 H 588.189 l 3.5433,-35.4330701 h 21.25985 l 3.54331,35.4330701 h 21.25984 l 3.5433,-35.4330701 h 21.25985 l 3.54331,35.4330701 h 21.25984 l 3.5433,-35.4330701 h 21.25985 l 3.54331,35.4330701 h 21.25984 l 3.5433,-35.4330701 h 21.25985 l 3.54331,35.4330701 h 21.25984 l 3.5433,-35.4330701 h 21.25985 l 3.54331,35.4330701 h 21.25984 l 3.5433,-35.4330701 h 21.25985 l 3.5433,35.4330701 h 21.25985 l 3.5433,-35.4330701 h 14.17323" />
    <g
       aria-label="31"
       id="text7803"
       style="line-height:0%;font-family:Iwona;-inkscape-font-specification:Iwona;text-align:center;letter-spacing:0px;word-spacing:0px;text-anchor:middle;stroke-width:1px">
      <path
         d="m 105.42422,28.564782 c 0,-1.54 -1.085,-2.87 -2.59,-3.325 1.33,-0.385 2.1525,-1.3825 2.1525,-2.7125 0,-1.7325 -1.4,-2.8875 -3.5,-2.8875 -1.1375,0 -2.239996,0.385 -3.132496,1.085 v 0.735 c 0.8925,-0.7 1.994996,-1.085 3.132496,-1.085 1.2775,0 2.135,0.8575 2.135,2.1525 0,2.0825 -0.9625,2.625 -3.15,2.625 v 0.6475 c 2.3625,0 3.4125,0.56 3.4125,2.765 0,1.5225 -0.98,2.765 -2.17,2.765 -1.33,0 -2.624996,-0.385 -3.727496,-1.085 v 0.735 c 1.1025,0.7 2.397496,1.085 3.727496,1.085 2.03,0 3.71,-1.575 3.71,-3.5 z"
         style="font-size:17.5px;line-height:1.25"
         id="path124" />
      <path
         d="m 112.07422,31.889782 v -12.075 h -1.015 c -0.9625,1.1025 -2.1,2.0475 -3.36,2.7825 v 0.735 c 1.0675,-0.5075 2.065,-1.1025 3.01,-1.82 v 10.3775 z"
         style="font-size:17.5px;line-height:1.25"
         id="path126" />
    </g>
    <g
       aria-label="30"
       id="text7807"
       style="line-height:0%;font-family:Iwona;-inkscape-font-specification:Iwona;text-align:center;letter-spacing:0px;word-spacing:0px;text-anchor:middle;stroke-width:1px">
      <path
         d="m 130.22738,28.564782 c 0,-1.54 -1.085,-2.87 -2.59,-3.325 1.33,-0.385 2.1525,-1.3825 2.1525,-2.7125 0,-1.7325 -1.4,-2.8875 -3.5,-2.8875 -1.1375,0 -2.24,0.385 -3.1325,1.085 v 0.735 c 0.8925,-0.7 1.995,-1.085 3.1325,-1.085 1.2775,0 2.135,0.8575 2.135,2.1525 0,2.0825 -0.9625,2.625 -3.15,2.625 v 0.6475 c 2.3625,0 3.4125,0.56 3.4125,2.765 0,1.5225 -0.98,2.765 -2.17,2.765 -1.33,0 -2.625,-0.385 -3.7275,-1.085 v 0.735 c 1.1025,0.7 2.3975,1.085 3.7275,1.085 2.03,0 3.71,-1.575 3.71,-3.5 z"
         style="font-size:17.5px;line-height:1.25"
         id="path129" />
      <path
         d="m 139.53737,25.852282 c 0,-4.1475 -1.2775,-6.2125 -3.8325,-6.2125 -2.555,0 -3.8325,2.065 -3.8325,6.2125 0,4.1475 1.2775,6.2125 3.8325,6.2125 2.555,0 3.8325,-2.065 3.8325,-6.2125 z m -1.54,0 c 0,3.6575 -0.77,5.4775 -2.2925,5.4775 -1.5225,0 -2.2925,-1.82 -2.2925,-5.4775 0,-3.6575 0.77,-5.4775 2.2925,-5.4775 1.5225,0 2.2925,1.82 2.2925,5.4775 z"
         style="font-size:17.5px;line-height:1.25"
         id="path131" />
    </g>
    <g
       aria-label="29"
       id="text7811"
       style="line-height:0%;font-family:Iwona;-inkscape-font-specification:Iwona;text-align:center;letter-spacing:0px;word-spacing:0px;text-anchor:middle;stroke-width:1px">
      <path
         d="m 155.03052,31.889782 v -1.085 h -6.1775 l 3.22,-3.185 c 1.435,-1.435 2.7825,-3.115 2.7825,-5.145 0,-1.715 -1.6975,-2.835 -3.535,-2.835 -1.3825,0 -2.695,0.63 -3.5525,1.6975 v 0.735 c 0.8925,-1.0325 2.1875,-1.6275 3.5525,-1.6275 1.1725,0 2.17,0.875 2.17,2.03 0,1.7325 -0.805,3.3425 -1.995,4.585 l -3.9025,4.0075 v 0.8225 z"
         style="font-size:17.5px;line-height:1.25"
         id="path134" />
      <path
         d="m 164.21802,25.852282 c 0,-4.34 -1.12,-6.2125 -3.71,-6.2125 -2.24,0 -3.7275,1.645 -3.7275,4.1125 0,2.52 0.9975,4.1125 3.3425,4.1125 1.015,0 1.96,-0.4725 2.555,-1.2775 0,2.2925 -0.5775,4.7425 -2.555,4.7425 -0.8925,0 -1.7675,-0.2975 -2.4675,-0.8575 v 0.735 c 0.7,0.56 1.575,0.8575 2.4675,0.8575 2.7475,0 4.095,-3.115 4.095,-6.2125 z m -1.54,0 c -0.595,0.805 -1.54,1.2775 -2.555,1.2775 -1.4,0 -1.8025,-1.75 -1.8025,-3.3775 0,-2.03 0.875,-3.3775 2.1875,-3.3775 2.4325,0 2.17,2.6425 2.17,5.4775 z"
         style="font-size:17.5px;line-height:1.25"
         id="path136" />
    </g>
    <g
       aria-label="28"
       id="text7815"
       style="line-height:0%;font-family:Iwona;-inkscape-font-specification:Iwona;text-align:center;letter-spacing:0px;word-spacing:0px;text-anchor:middle;stroke-width:1px">
      <path
         d="m 179.83369,31.889782 v -1.085 h -6.1775 l 3.22,-3.185 c 1.435,-1.435 2.7825,-3.115 2.7825,-5.145 0,-1.715 -1.6975,-2.835 -3.535,-2.835 -1.3825,0 -2.695,0.63 -3.5525,1.6975 v 0.735 c 0.8925,-1.0325 2.1875,-1.6275 3.5525,-1.6275 1.1725,0 2.17,0.875 2.17,2.03 0,1.7325 -0.805,3.3425 -1.995,4.585 l -3.9025,4.0075 v 0.8225 z"
         style="font-size:17.5px;line-height:1.25"
         id="path139" />
      <path
         d="m 189.02118,28.512282 c 0,-1.645 -0.7875,-2.8175 -2.135,-3.3075 1.1375,-0.42 1.785,-1.365 1.785,-2.6425 0,-1.82 -1.2775,-2.9225 -3.36,-2.9225 -2.1,0 -3.3775,1.1025 -3.3775,2.9225 0,1.2775 0.6475,2.2225 1.785,2.6425 -1.3475,0.49 -2.135,1.6625 -2.135,3.3075 0,2.205 1.4175,3.5525 3.7275,3.5525 2.2925,0 3.71,-1.3475 3.71,-3.5525 z m -1.715,-5.95 c 0,1.3475 -0.77,2.1875 -1.995,2.1875 -1.2425,0 -2.0125,-0.84 -2.0125,-2.1875 0,-1.365 0.77,-2.1875 2.0125,-2.1875 1.225,0 1.995,0.8225 1.995,2.1875 z m 0.175,5.95 c 0,1.75 -0.8225,2.8175 -2.17,2.8175 -1.365,0 -2.1875,-1.0675 -2.1875,-2.8175 0,-1.75 0.8225,-2.8175 2.1875,-2.8175 1.3475,0 2.17,1.0675 2.17,2.8175 z"
         style="font-size:17.5px;line-height:1.25"
         id="path141" />
    </g>
    <g
       aria-label="27"
       id="text7819"
       style="line-height:0%;font-family:Iwona;-inkscape-font-specification:Iwona;text-align:center;letter-spacing:0px;word-spacing:0px;text-anchor:middle;stroke-width:1px">
      <path
         d="m 204.63683,31.889782 v -1.085 h -6.1775 l 3.22,-3.185 c 1.435,-1.435 2.7825,-3.115 2.7825,-5.145 0,-1.715 -1.6975,-2.835 -3.535,-2.835 -1.3825,0 -2.695,0.63 -3.5525,1.6975 v 0.735 c 0.8925,-1.0325 2.1875,-1.6275 3.5525,-1.6275 1.1725,0 2.17,0.875 2.17,2.03 0,1.7325 -0.805,3.3425 -1.995,4.585 l -3.9025,4.0075 v 0.8225 z"
         style="font-size:17.5px;line-height:1.25"
         id="path144" />
      <path
         d="m 213.82433,20.409782 v -0.595 h -7.4375 v 1.085 h 5.705 l -5.1625,10.99 h 1.505 z"
         style="font-size:17.5px;line-height:1.25"
         id="path146" />
    </g>
    <g
       aria-label="26"
       id="text7823"
       style="line-height:0%;font-family:Iwona;-inkscape-font-specification:Iwona;text-align:center;letter-spacing:0px;word-spacing:0px;text-anchor:middle;stroke-width:1px">
      <path
         d="m 229.43998,31.889782 v -1.085 h -6.1775 l 3.22,-3.185 c 1.435,-1.435 2.7825,-3.115 2.7825,-5.145 0,-1.715 -1.6975,-2.835 -3.535,-2.835 -1.3825,0 -2.695,0.63 -3.5525,1.6975 v 0.735 c 0.8925,-1.0325 2.1875,-1.6275 3.5525,-1.6275 1.1725,0 2.17,0.875 2.17,2.03 0,1.7325 -0.805,3.3425 -1.995,4.585 l -3.9025,4.0075 v 0.8225 z"
         style="font-size:17.5px;line-height:1.25"
         id="path149" />
      <path
         d="m 238.62747,27.952282 c 0,-2.52 -0.9975,-4.1125 -3.3425,-4.1125 -1.015,0 -1.96,0.4725 -2.555,1.2775 0,-2.2925 0.5775,-4.7425 2.555,-4.7425 0.8925,0 1.7675,0.2975 2.4675,0.8575 v -0.735 c -0.7,-0.56 -1.575,-0.8575 -2.4675,-0.8575 -2.7475,0 -4.095,3.115 -4.095,6.2125 0,4.34 1.12,6.2125 3.7275,6.2125 2.2225,0 3.71,-1.645 3.71,-4.1125 z m -1.54,0 c 0,2.03 -0.875,3.3775 -2.17,3.3775 -2.45,0 -2.1875,-2.6425 -2.1875,-5.4775 0.595,-0.805 1.54,-1.2775 2.555,-1.2775 1.4,0 1.8025,1.75 1.8025,3.3775 z"
         style="font-size:17.5px;line-height:1.25"
         id="path151" />
    </g>
    <g
       aria-label="25"
       id="text7827"
       style="line-height:0%;font-family:Iwona;-inkscape-font-specification:Iwona;text-align:center;letter-spacing:0px;word-spacing:0px;text-anchor:middle;stroke-width:1px">
      <path
         d="m 254.24312,31.889782 v -1.085 h -6.1775 l 3.22,-3.185 c 1.435,-1.435 2.7825,-3.115 2.7825,-5.145 0,-1.715 -1.6975,-2.835 -3.535,-2.835 -1.3825,0 -2.695,0.63 -3.5525,1.6975 v 0.735 c 0.8925,-1.0325 2.1875,-1.6275 3.5525,-1.6275 1.1725,0 2.17,0.875 2.17,2.03 0,1.7325 -0.805,3.3425 -1.995,4.585 l -3.9025,4.0075 v 0.8225 z"
         style="font-size:17.5px;line-height:1.25"
         id="path154" />
      <path
         d="m 263.43062,27.952282 c 0,-2.4675 -1.4875,-4.1125 -3.71,-4.1125 -1.015,0 -1.96,0.385 -2.695,1.0325 l 0.175,-3.9725 h 5.88 v -1.085 h -6.5625 l -0.2625,6.0375 0.735,0.035 c 0.665,-0.8225 1.6625,-1.3125 2.73,-1.3125 1.295,0 2.17,1.3475 2.17,3.3775 0,2.03 -0.875,3.3775 -2.17,3.3775 -1.3475,0 -2.66,-0.4375 -3.7275,-1.26 v 0.735 c 1.0675,0.8225 2.38,1.26 3.7275,1.26 2.2225,0 3.71,-1.645 3.71,-4.1125 z"
         style="font-size:17.5px;line-height:1.25"
         id="path156" />
    </g>
    <g
       aria-label="24"
       id="text7831"
       style="line-height:0%;font-family:Iwona;-inkscape-font-specification:Iwona;text-align:center;letter-spacing:0px;word-spacing:0px;text-anchor:middle;stroke-width:1px">
      <path
         d="m 279.04627,31.889782 v -1.085 h -6.1775 l 3.22,-3.185 c 1.435,-1.435 2.7825,-3.115 2.7825,-5.145 0,-1.715 -1.6975,-2.835 -3.535,-2.835 -1.3825,0 -2.695,0.63 -3.5525,1.6975 v 0.735 c 0.8925,-1.0325 2.1875,-1.6275 3.5525,-1.6275 1.1725,0 2.17,0.875 2.17,2.03 0,1.7325 -0.805,3.3425 -1.995,4.585 l -3.9025,4.0075 v 0.8225 z"
         style="font-size:17.5px;line-height:1.25"
         id="path159" />
      <path
         d="m 288.23376,27.689782 v -0.805 h -1.3125 v -7.07 h -1.365 l -4.76,7.07 v 0.805 h 4.76 v 4.2 h 1.365 v -4.2 z m -2.6775,-0.805 h -3.8675 l 3.8675,-5.7575 z"
         style="font-size:17.5px;line-height:1.25"
         id="path161" />
    </g>
    <g
       aria-label="23"
       id="text7835"
       style="line-height:0%;font-family:Iwona;-inkscape-font-specification:Iwona;text-align:center;letter-spacing:0px;word-spacing:0px;text-anchor:middle;stroke-width:1px">
      <path
         d="m 303.84943,31.889782 v -1.085 h -6.1775 l 3.22,-3.185 c 1.435,-1.435 2.7825,-3.115 2.7825,-5.145 0,-1.715 -1.6975,-2.835 -3.535,-2.835 -1.3825,0 -2.695,0.63 -3.5525,1.6975 v 0.735 c 0.8925,-1.0325 2.1875,-1.6275 3.5525,-1.6275 1.1725,0 2.17,0.875 2.17,2.03 0,1.7325 -0.805,3.3425 -1.995,4.585 l -3.9025,4.0075 v 0.8225 z"
         style="font-size:17.5px;line-height:1.25"
         id="path164" />
      <path
         d="m 313.03693,28.564782 c 0,-1.54 -1.085,-2.87 -2.59,-3.325 1.33,-0.385 2.1525,-1.3825 2.1525,-2.7125 0,-1.7325 -1.4,-2.8875 -3.5,-2.8875 -1.1375,0 -2.24,0.385 -3.1325,1.085 v 0.735 c 0.8925,-0.7 1.995,-1.085 3.1325,-1.085 1.2775,0 2.135,0.8575 2.135,2.1525 0,2.0825 -0.9625,2.625 -3.15,2.625 v 0.6475 c 2.3625,0 3.4125,0.56 3.4125,2.765 0,1.5225 -0.98,2.765 -2.17,2.765 -1.33,0 -2.625,-0.385 -3.7275,-1.085 v 0.735 c 1.1025,0.7 2.3975,1.085 3.7275,1.085 2.03,0 3.71,-1.575 3.71,-3.5 z"
         style="font-size:17.5px;line-height:1.25"
         id="path166" />
    </g>
    <g
       aria-label="22"
       id="text7839"
       style="line-height:0%;font-family:Iwona;-inkscape-font-specification:Iwona;text-align:center;letter-spacing:0px;word-spacing:0px;text-anchor:middle;stroke-width:1px">
      <path
         d="m 328.65256,31.889782 v -1.085 h -6.1775 l 3.22,-3.185 c 1.435,-1.435 2.7825,-3.115 2.7825,-5.145 0,-1.715 -1.6975,-2.835 -3.535,-2.835 -1.3825,0 -2.695,0.63 -3.5525,1.6975 v 0.735 c 0.8925,-1.0325 2.1875,-1.6275 3.5525,-1.6275 1.1725,0 2.17,0.875 2.17,2.03 0,1.7325 -0.805,3.3425 -1.995,4.585 l -3.9025,4.0075 v 0.8225 z"
         style="font-size:17.5px;line-height:1.25"
         id="path169" />
      <path
         d="m 337.84006,31.889782 v -1.085 h -6.1775 l 3.22,-3.185 c 1.435,-1.435 2.7825,-3.115 2.7825,-5.145 0,-1.715 -1.6975,-2.835 -3.535,-2.835 -1.3825,0 -2.695,0.63 -3.5525,1.6975 v 0.735 c 0.8925,-1.0325 2.1875,-1.6275 3.5525,-1.6275 1.1725,0 2.17,0.875 2.17,2.03 0,1.7325 -0.805,3.3425 -1.995,4.585 l -3.9025,4.0075 v 0.8225 z"
         style="font-size:17.5px;line-height:1.25"
         id="path171" />
    </g>
    <g
       aria-label="21"
       id="text7843"
       style="line-height:0%;font-family:Iwona;-inkscape-font-specification:Iwona;text-align:center;letter-spacing:0px;word-spacing:0px;text-anchor:middle;stroke-width:1px">
      <path
         d="m 353.45573,31.889782 v -1.085 h -6.1775 l 3.22,-3.185 c 1.435,-1.435 2.7825,-3.115 2.7825,-5.145 0,-1.715 -1.6975,-2.835 -3.535,-2.835 -1.3825,0 -2.695,0.63 -3.5525,1.6975 v 0.735 c 0.8925,-1.0325 2.1875,-1.6275 3.5525,-1.6275 1.1725,0 2.17,0.875 2.17,2.03 0,1.7325 -0.805,3.3425 -1.995,4.585 l -3.9025,4.0075 v 0.8225 z"
         style="font-size:17.5px;line-height:1.25"
         id="path174" />
      <path
         d="m 360.10572,31.889782 v -12.075 h -1.015 c -0.9625,1.1025 -2.1,2.0475 -3.36,2.7825 v 0.735 c 1.0675,-0.5075 2.065,-1.1025 3.01,-1.82 v 10.3775 z"
         style="font-size:17.5px;line-height:1.25"
         id="path176" />
    </g>
    <g
       aria-label="20"
       id="text7847"
       style="line-height:0%;font-family:Iwona;-inkscape-font-specification:Iwona;text-align:center;letter-spacing:0px;word-spacing:0px;text-anchor:middle;stroke-width:1px">
      <path
         d="m 378.25889,31.889782 v -1.085 h -6.1775 l 3.22,-3.185 c 1.435,-1.435 2.7825,-3.115 2.7825,-5.145 0,-1.715 -1.6975,-2.835 -3.535,-2.835 -1.3825,0 -2.695,0.63 -3.5525,1.6975 v 0.735 c 0.8925,-1.0325 2.1875,-1.6275 3.5525,-1.6275 1.1725,0 2.17,0.875 2.17,2.03 0,1.7325 -0.805,3.3425 -1.995,4.585 l -3.9025,4.0075 v 0.8225 z"
         style="font-size:17.5px;line-height:1.25"
         id="path179" />
      <path
         d="m 387.56888,25.852282 c 0,-4.1475 -1.2775,-6.2125 -3.8325,-6.2125 -2.555,0 -3.8325,2.065 -3.8325,6.2125 0,4.1475 1.2775,6.2125 3.8325,6.2125 2.555,0 3.8325,-2.065 3.8325,-6.2125 z m -1.54,0 c 0,3.6575 -0.77,5.4775 -2.2925,5.4775 -1.5225,0 -2.2925,-1.82 -2.2925,-5.4775 0,-3.6575 0.77,-5.4775 2.2925,-5.4775 1.5225,0 2.2925,1.82 2.2925,5.4775 z"
         style="font-size:17.5px;line-height:1.25"
         id="path181" />
    </g>
    <g
       aria-label="19"
       id="text7851"
       style="line-height:0%;font-family:Iwona;-inkscape-font-specification:Iwona;text-align:center;letter-spacing:0px;word-spacing:0px;text-anchor:middle;stroke-width:1px">
      <path
         d="m 400.52452,31.889782 v -12.075 h -1.015 c -0.9625,1.1025 -2.1,2.0475 -3.36,2.7825 v 0.735 c 1.0675,-0.5075 2.065,-1.1025 3.01,-1.82 v 10.3775 z"
         style="font-size:17.5px;line-height:1.25"
         id="path184" />
      <path
         d="m 412.24951,25.852282 c 0,-4.34 -1.12,-6.2125 -3.71,-6.2125 -2.24,0 -3.7275,1.645 -3.7275,4.1125 0,2.52 0.9975,4.1125 3.3425,4.1125 1.015,0 1.96,-0.4725 2.555,-1.2775 0,2.2925 -0.5775,4.7425 -2.555,4.7425 -0.8925,0 -1.7675,-0.2975 -2.4675,-0.8575 v 0.735 c 0.7,0.56 1.575,0.8575 2.4675,0.8575 2.7475,0 4.095,-3.115 4.095,-6.2125 z m -1.54,0 c -0.595,0.805 -1.54,1.2775 -2.555,1.2775 -1.4,0 -1.8025,-1.75 -1.8025,-3.3775 0,-2.03 0.875,-3.3775 2.1875,-3.3775 2.4325,0 2.17,2.6425 2.17,5.4775 z"
         style="font-size:17.5px;line-height:1.25"
         id="path186" />
    </g>
    <g
       aria-label="18"
       id="text7855"
       style="line-height:0%;font-family:Iwona;-inkscape-font-specification:Iwona;text-align:center;letter-spacing:0px;word-spacing:0px;text-anchor:middle;stroke-width:1px">
      <path
         d="m 425.32768,31.889782 v -12.075 h -1.015 c -0.9625,1.1025 -2.1,2.0475 -3.36,2.7825 v 0.735 c 1.0675,-0.5075 2.065,-1.1025 3.01,-1.82 v 10.3775 z"
         style="font-size:17.5px;line-height:1.25"
         id="path189" />
      <path
         d="m 437.05267,28.512282 c 0,-1.645 -0.7875,-2.8175 -2.135,-3.3075 1.1375,-0.42 1.785,-1.365 1.785,-2.6425 0,-1.82 -1.2775,-2.9225 -3.36,-2.9225 -2.1,0 -3.3775,1.1025 -3.3775,2.9225 0,1.2775 0.6475,2.2225 1.785,2.6425 -1.3475,0.49 -2.135,1.6625 -2.135,3.3075 0,2.205 1.4175,3.5525 3.7275,3.5525 2.2925,0 3.71,-1.3475 3.71,-3.5525 z m -1.715,-5.95 c 0,1.3475 -0.77,2.1875 -1.995,2.1875 -1.2425,0 -2.0125,-0.84 -2.0125,-2.1875 0,-1.365 0.77,-2.1875 2.0125,-2.1875 1.225,0 1.995,0.8225 1.995,2.1875 z m 0.175,5.95 c 0,1.75 -0.8225,2.8175 -2.17,2.8175 -1.365,0 -2.1875,-1.0675 -2.1875,-2.8175 0,-1.75 0.8225,-2.8175 2.1875,-2.8175 1.3475,0 2.17,1.0675 2.17,2.8175 z"
         style="font-size:17.5px;line-height:1.25"
         id="path191" />
    </g>
    <g
       aria-label="17"
       id="text7859"
       style="line-height:0%;font-family:Iwona;-inkscape-font-specification:Iwona;text-align:center;letter-spacing:0px;word-spacing:0px;text-anchor:middle;stroke-width:1px">
      <path
         d="m 450.13081,31.889782 v -12.075 h -1.015 c -0.9625,1.1025 -2.1,2.0475 -3.36,2.7825 v 0.735 c 1.0675,-0.5075 2.065,-1.1025 3.01,-1.82 v 10.3775 z"
         style="font-size:17.5px;line-height:1.25"
         id="path194" />
      <path
         d="m 461.8558,20.409782 v -0.595 h -7.4375 v 1.085 h 5.705 l -5.1625,10.99 h 1.505 z"
         style="font-size:17.5px;line-height:1.25"
         id="path196" />
    </g>
    <g
       aria-label="16"
       id="text7927"
       style="line-height:0%;font-family:Iwona;-inkscape-font-specification:Iwona;text-align:center;letter-spacing:0px;word-spacing:0px;text-anchor:middle;stroke-width:1px">
      <path
         d="m 474.93397,31.889782 v -12.075 h -1.015 c -0.9625,1.1025 -2.1,2.0475 -3.36,2.7825 v 0.735 c 1.0675,-0.5075 2.065,-1.1025 3.01,-1.82 v 10.3775 z"
         style="font-size:17.5px;line-height:1.25"
         id="path199" />
      <path
         d="m 486.65897,27.952282 c 0,-2.52 -0.9975,-4.1125 -3.3425,-4.1125 -1.015,0 -1.96,0.4725 -2.555,1.2775 0,-2.2925 0.5775,-4.7425 2.555,-4.7425 0.8925,0 1.7675,0.2975 2.4675,0.8575 v -0.735 c -0.7,-0.56 -1.575,-0.8575 -2.4675,-0.8575 -2.7475,0 -4.095,3.115 -4.095,6.2125 0,4.34 1.12,6.2125 3.7275,6.2125 2.2225,0 3.71,-1.645 3.71,-4.1125 z m -1.54,0 c 0,2.03 -0.875,3.3775 -2.17,3.3775 -2.45,0 -2.1875,-2.6425 -2.1875,-5.4775 0.595,-0.805 1.54,-1.2775 2.555,-1.2775 1.4,0 1.8025,1.75 1.8025,3.3775 z"
         style="font-size:17.5px;line-height:1.25"
         id="path201" />
    </g>
    <g
       aria-label="15"
       id="text7931"
       style="line-height:0%;font-family:Iwona;-inkscape-font-specification:Iwona;text-align:center;letter-spacing:0px;word-spacing:0px;text-anchor:middle;stroke-width:1px">
      <path
         d="m 499.73713,31.889782 v -12.075 h -1.015 c -0.9625,1.1025 -2.1,2.0475 -3.36,2.7825 v 0.735 c 1.0675,-0.5075 2.065,-1.1025 3.01,-1.82 v 10.3775 z"
         style="font-size:17.5px;line-height:1.25"
         id="path204" />
      <path
         d="m 511.46213,27.952282 c 0,-2.4675 -1.4875,-4.1125 -3.71,-4.1125 -1.015,0 -1.96,0.385 -2.695,1.0325 l 0.175,-3.9725 h 5.88 v -1.085 h -6.5625 l -0.2625,6.0375 0.735,0.035 c 0.665,-0.8225 1.6625,-1.3125 2.73,-1.3125 1.295,0 2.17,1.3475 2.17,3.3775 0,2.03 -0.875,3.3775 -2.17,3.3775 -1.3475,0 -2.66,-0.4375 -3.7275,-1.26 v 0.735 c 1.0675,0.8225 2.38,1.26 3.7275,1.26 2.2225,0 3.71,-1.645 3.71,-4.1125 z"
         style="font-size:17.5px;line-height:1.25"
         id="path206" />
    </g>
    <g
       aria-label="14"
       id="text7935"
       style="line-height:0%;font-family:Iwona;-inkscape-font-specification:Iwona;text-align:center;letter-spacing:0px;word-spacing:0px;text-anchor:middle;stroke-width:1px">
      <path
         d="m 524.54027,31.889782 v -12.075 h -1.015 c -0.9625,1.1025 -2.1,2.0475 -3.36,2.7825 v 0.735 c 1.0675,-0.5075 2.065,-1.1025 3.01,-1.82 v 10.3775 z"
         style="font-size:17.5px;line-height:1.25"
         id="path209" />
      <path
         d="m 536.26526,27.689782 v -0.805 h -1.3125 v -7.07 h -1.365 l -4.76,7.07 v 0.805 h 4.76 v 4.2 h 1.365 v -4.2 z m -2.6775,-0.805 h -3.8675 l 3.8675,-5.7575 z"
         style="font-size:17.5px;line-height:1.25"
         id="path211" />
    </g>
    <g
       aria-label="13"
       id="text7939"
       style="line-height:0%;font-family:Iwona;-inkscape-font-specification:Iwona;text-align:center;letter-spacing:0px;word-spacing:0px;text-anchor:middle;stroke-width:1px">
      <path
         d="m 549.34343,31.889782 v -12.075 h -1.015 c -0.9625,1.1025 -2.1,2.0475 -3.36,2.7825 v 0.735 c 1.0675,-0.5075 2.065,-1.1025 3.01,-1.82 v 10.3775 z"
         style="font-size:17.5px;line-height:1.25"
         id="path214" />
      <path
         d="m 561.06842,28.564782 c 0,-1.54 -1.085,-2.87 -2.59,-3.325 1.33,-0.385 2.1525,-1.3825 2.1525,-2.7125 0,-1.7325 -1.4,-2.8875 -3.5,-2.8875 -1.1375,0 -2.24,0.385 -3.1325,1.085 v 0.735 c 0.8925,-0.7 1.995,-1.085 3.1325,-1.085 1.2775,0 2.135,0.8575 2.135,2.1525 0,2.0825 -0.9625,2.625 -3.15,2.625 v 0.6475 c 2.3625,0 3.4125,0.56 3.4125,2.765 0,1.5225 -0.98,2.765 -2.17,2.765 -1.33,0 -2.625,-0.385 -3.7275,-1.085 v 0.735 c 1.1025,0.7 2.3975,1.085 3.7275,1.085 2.03,0 3.71,-1.575 3.71,-3.5 z"
         style="font-size:17.5px;line-height:1.25"
         id="path216" />
    </g>
    <g
       aria-label="12"
       id="text7943"
       style="line-height:0%;font-family:Iwona;-inkscape-font-specification:Iwona;text-align:center;letter-spacing:0px;word-spacing:0px;text-anchor:middle;stroke-width:1px">
      <path
         d="m 574.14659,31.889782 v -12.075 h -1.015 c -0.9625,1.1025 -2.1,2.0475 -3.36,2.7825 v 0.735 c 1.0675,-0.5075 2.065,-1.1025 3.01,-1.82 v 10.3775 z"
         style="font-size:17.5px;line-height:1.25"
         id="path219" />
      <path
         d="m 585.87158,31.889782 v -1.085 h -6.1775 l 3.22,-3.185 c 1.435,-1.435 2.7825,-3.115 2.7825,-5.145 0,-1.715 -1.6975,-2.835 -3.535,-2.835 -1.3825,0 -2.695,0.63 -3.5525,1.6975 v 0.735 c 0.8925,-1.0325 2.1875,-1.6275 3.5525,-1.6275 1.1725,0 2.17,0.875 2.17,2.03 0,1.7325 -0.805,3.3425 -1.995,4.585 l -3.9025,4.0075 v 0.8225 z"
         style="font-size:17.5px;line-height:1.25"
         id="path221" />
    </g>
    <g
       aria-label="11"
       id="text7947"
       style="line-height:0%;font-family:Iwona;-inkscape-font-specification:Iwona;text-align:center;letter-spacing:0px;word-spacing:0px;text-anchor:middle;stroke-width:1px">
      <path
         d="m 598.94975,31.889782 v -12.075 h -1.015 c -0.9625,1.1025 -2.1,2.0475 -3.36,2.7825 v 0.735 c 1.0675,-0.5075 2.065,-1.1025 3.01,-1.82 v 10.3775 z"
         style="font-size:17.5px;line-height:1.25"
         id="path224" />
      <path
         d="m 608.13724,31.889782 v -12.075 h -1.015 c -0.9625,1.1025 -2.1,2.0475 -3.36,2.7825 v 0.735 c 1.0675,-0.5075 2.065,-1.1025 3.01,-1.82 v 10.3775 z"
         style="font-size:17.5px;line-height:1.25"
         id="path226" />
    </g>
    <g
       aria-label="10"
       id="text7951"
       style="line-height:0%;font-family:Iwona;-inkscape-font-specification:Iwona;text-align:center;letter-spacing:0px;word-spacing:0px;text-anchor:middle;stroke-width:1px">
      <path
         d="m 623.75285,31.889782 v -12.075 h -1.015 c -0.9625,1.1025 -2.1,2.0475 -3.36,2.7825 v 0.735 c 1.0675,-0.5075 2.065,-1.1025 3.01,-1.82 v 10.3775 z"
         style="font-size:17.5px;line-height:1.25"
         id="path229" />
      <path
         d="m 635.60034,25.852282 c 0,-4.1475 -1.2775,-6.2125 -3.8325,-6.2125 -2.555,0 -3.8325,2.065 -3.8325,6.2125 0,4.1475 1.2775,6.2125 3.8325,6.2125 2.555,0 3.8325,-2.065 3.8325,-6.2125 z m -1.54,0 c 0,3.6575 -0.77,5.4775 -2.2925,5.4775 -1.5225,0 -2.2925,-1.82 -2.2925,-5.4775 0,-3.6575 0.77,-5.4775 2.2925,-5.4775 1.5225,0 2.2925,1.82 2.2925,5.4775 z"
         style="font-size:17.5px;line-height:1.25"
         id="path231" />
    </g>
    <g
       aria-label="9"
       id="text7955"
       style="line-height:0%;font-family:Iwona;-inkscape-font-specification:Iwona;text-align:center;letter-spacing:0px;word-spacing:0px;text-anchor:middle;stroke-width:1px">
      <path
         d="m 655.68726,25.852282 c 0,-4.34 -1.12,-6.2125 -3.71,-6.2125 -2.24,0 -3.7275,1.645 -3.7275,4.1125 0,2.52 0.9975,4.1125 3.3425,4.1125 1.015,0 1.96,-0.4725 2.555,-1.2775 0,2.2925 -0.5775,4.7425 -2.555,4.7425 -0.8925,0 -1.7675,-0.2975 -2.4675,-0.8575 v 0.735 c 0.7,0.56 1.575,0.8575 2.4675,0.8575 2.7475,0 4.095,-3.115 4.095,-6.2125 z m -1.54,0 c -0.595,0.805 -1.54,1.2775 -2.555,1.2775 -1.4,0 -1.8025,-1.75 -1.8025,-3.3775 0,-2.03 0.875,-3.3775 2.1875,-3.3775 2.4325,0 2.17,2.6425 2.17,5.4775 z"
         style="font-size:17.5px;line-height:1.25"
         id="path234" />
    </g>
    <g
       aria-label="8"
       id="text7959"
       style="line-height:0%;font-family:Iwona;-inkscape-font-specification:Iwona;text-align:center;letter-spacing:0px;word-spacing:0px;text-anchor:middle;stroke-width:1px">
      <path
         d="m 680.49042,28.512282 c 0,-1.645 -0.7875,-2.8175 -2.135,-3.3075 1.1375,-0.42 1.785,-1.365 1.785,-2.6425 0,-1.82 -1.2775,-2.9225 -3.36,-2.9225 -2.1,0 -3.3775,1.1025 -3.3775,2.9225 0,1.2775 0.6475,2.2225 1.785,2.6425 -1.3475,0.49 -2.135,1.6625 -2.135,3.3075 0,2.205 1.4175,3.5525 3.7275,3.5525 2.2925,0 3.71,-1.3475 3.71,-3.5525 z m -1.715,-5.95 c 0,1.3475 -0.77,2.1875 -1.995,2.1875 -1.2425,0 -2.0125,-0.84 -2.0125,-2.1875 0,-1.365 0.77,-2.1875 2.0125,-2.1875 1.225,0 1.995,0.8225 1.995,2.1875 z m 0.175,5.95 c 0,1.75 -0.8225,2.8175 -2.17,2.8175 -1.365,0 -2.1875,-1.0675 -2.1875,-2.8175 0,-1.75 0.8225,-2.8175 2.1875,-2.8175 1.3475,0 2.17,1.0675 2.17,2.8175 z"
         style="font-size:17.5px;line-height:1.25"
         id="path237" />
    </g>
    <g
       aria-label="7"
       id="text7963"
       style="line-height:0%;font-family:Iwona;-inkscape-font-specification:Iwona;text-align:center;letter-spacing:0px;word-spacing:0px;text-anchor:middle;stroke-width:1px">
      <path
         d="m 705.29358,20.409782 v -0.595 h -7.4375 v 1.085 h 5.705 l -5.1625,10.99 h 1.505 z"
         style="font-size:17.5px;line-height:1.25"
         id="path240" />
    </g>
    <g
       aria-label="6"
       id="text7967"
       style="line-height:0%;font-family:Iwona;-inkscape-font-specification:Iwona;text-align:center;letter-spacing:0px;word-spacing:0px;text-anchor:middle;stroke-width:1px">
      <path
         d="m 730.09668,27.952282 c 0,-2.52 -0.9975,-4.1125 -3.3425,-4.1125 -1.015,0 -1.96,0.4725 -2.555,1.2775 0,-2.2925 0.5775,-4.7425 2.555,-4.7425 0.8925,0 1.7675,0.2975 2.4675,0.8575 v -0.735 c -0.7,-0.56 -1.575,-0.8575 -2.4675,-0.8575 -2.7475,0 -4.095,3.115 -4.095,6.2125 0,4.34 1.12,6.2125 3.7275,6.2125 2.2225,0 3.71,-1.645 3.71,-4.1125 z m -1.54,0 c 0,2.03 -0.875,3.3775 -2.17,3.3775 -2.45,0 -2.1875,-2.6425 -2.1875,-5.4775 0.595,-0.805 1.54,-1.2775 2.555,-1.2775 1.4,0 1.8025,1.75 1.8025,3.3775 z"
         style="font-size:17.5px;line-height:1.25"
         id="path243" />
    </g>
    <g
       aria-label="5"
       id="text7971"
       style="line-height:0%;font-family:Iwona;-inkscape-font-specification:Iwona;text-align:center;letter-spacing:0px;word-spacing:0px;text-anchor:middle;stroke-width:1px">
      <path
         d="m 754.89984,27.952282 c 0,-2.4675 -1.4875,-4.1125 -3.71,-4.1125 -1.015,0 -1.96,0.385 -2.695,1.0325 l 0.175,-3.9725 h 5.88 v -1.085 h -6.5625 l -0.2625,6.0375 0.735,0.035 c 0.665,-0.8225 1.6625,-1.3125 2.73,-1.3125 1.295,0 2.17,1.3475 2.17,3.3775 0,2.03 -0.875,3.3775 -2.17,3.3775 -1.3475,0 -2.66,-0.4375 -3.7275,-1.26 v 0.735 c 1.0675,0.8225 2.38,1.26 3.7275,1.26 2.2225,0 3.71,-1.645 3.71,-4.1125 z"
         style="font-size:17.5px;line-height:1.25"
         id="path246" />
    </g>
    <g
       aria-label="4"
       id="text7975"
       style="line-height:0%;font-family:Iwona;-inkscape-font-specification:Iwona;text-align:center;letter-spacing:0px;word-spacing:0px;text-anchor:middle;stroke-width:1px">
      <path
         d="m 779.70301,27.689782 v -0.805 h -1.3125 v -7.07 h -1.365 l -4.76,7.07 v 0.805 h 4.76 v 4.2 h 1.365 v -4.2 z m -2.6775,-0.805 h -3.8675 l 3.8675,-5.7575 z"
         style="font-size:17.5px;line-height:1.25"
         id="path249" />
    </g>
    <g
       aria-label="3"
       id="text7979"
       style="line-height:0%;font-family:Iwona;-inkscape-font-specification:Iwona;text-align:center;letter-spacing:0px;word-spacing:0px;text-anchor:middle;stroke-width:1px">
      <path
         d="m 804.50617,28.564782 c 0,-1.54 -1.085,-2.87 -2.59,-3.325 1.33,-0.385 2.1525,-1.3825 2.1525,-2.7125 0,-1.7325 -1.4,-2.8875 -3.5,-2.8875 -1.1375,0 -2.24,0.385 -3.1325,1.085 v 0.735 c 0.8925,-0.7 1.995,-1.085 3.1325,-1.085 1.2775,0 2.135,0.8575 2.135,2.1525 0,2.0825 -0.9625,2.625 -3.15,2.625 v 0.6475 c 2.3625,0 3.4125,0.56 3.4125,2.765 0,1.5225 -0.98,2.765 -2.17,2.765 -1.33,0 -2.625,-0.385 -3.7275,-1.085 v 0.735 c 1.1025,0.7 2.3975,1.085 3.7275,1.085 2.03,0 3.71,-1.575 3.71,-3.5 z"
         style="font-size:17.5px;line-height:1.25"
         id="path252" />
    </g>
    <g
       aria-label="2"
       id="text7983"
       style="line-height:0%;font-family:Iwona;-inkscape-font-specification:Iwona;text-align:center;letter-spacing:0px;word-spacing:0px;text-anchor:middle;stroke-width:1px">
      <path
         d="m 829.30933,31.889782 v -1.085 h -6.1775 l 3.22,-3.185 c 1.435,-1.435 2.7825,-3.115 2.7825,-5.145 0,-1.715 -1.6975,-2.835 -3.535,-2.835 -1.3825,0 -2.695,0.63 -3.5525,1.6975 v 0.735 c 0.8925,-1.0325 2.1875,-1.6275 3.5525,-1.6275 1.1725,0 2.17,0.875 2.17,2.03 0,1.7325 -0.805,3.3425 -1.995,4.585 l -3.9025,4.0075 v 0.8225 z"
         style="font-size:17.5px;line-height:1.25"
         id="path255" />
    </g>
    <g
       aria-label="1"
       id="text7987"
       style="line-height:0%;font-family:Iwona;-inkscape-font-specification:Iwona;text-align:center;letter-spacing:0px;word-spacing:0px;text-anchor:middle;stroke-width:1px">
      <path
         d="m 851.57493,31.889782 v -12.075 h -1.015 c -0.9625,1.1025 -2.1,2.0475 -3.36,2.7825 v 0.735 c 1.0675,-0.5075 2.065,-1.1025 3.01,-1.82 v 10.3775 z"
         style="font-size:17.5px;line-height:1.25"
         id="path258" />
    </g>
    <g
       aria-label="0"
       id="text7991"
       style="line-height:0%;font-family:Iwona;-inkscape-font-specification:Iwona;text-align:center;letter-spacing:0px;word-spacing:0px;text-anchor:middle;stroke-width:1px">
      <path
         d="m 879.03809,25.852282 c 0,-4.1475 -1.2775,-6.2125 -3.8325,-6.2125 -2.555,0 -3.8325,2.065 -3.8325,6.2125 0,4.1475 1.2775,6.2125 3.8325,6.2125 2.555,0 3.8325,-2.065 3.8325,-6.2125 z m -1.54,0 c 0,3.6575 -0.77,5.4775 -2.2925,5.4775 -1.5225,0 -2.2925,-1.82 -2.2925,-5.4775 0,-3.6575 0.77,-5.4775 2.2925,-5.4775 1.5225,0 2.2925,1.82 2.2925,5.4775 z"
         style="font-size:17.5px;line-height:1.25"
         id="path261" />
    </g>
    <path
       d="m 70.866142,7.0866219 h 21.259853 l 3.5433,35.4330701 h 21.259845 l 3.54331,-35.4330701 h 21.25984 l 3.5433,35.4330701 h 21.25985 l 3.54331,-35.4330701 h 21.25984 l 3.5433,35.4330701 h 21.25985 l 3.54331,-35.4330701 h 21.25984 l 3.5433,35.4330701 h 21.25985 l 3.54331,-35.4330701 h 21.25984 l 3.5433,35.4330701 h 21.25985 l 3.54331,-35.4330701 h 21.25984 l 3.5433,35.4330701 h 21.25985 l 3.54331,-35.4330701 h 21.25984 l 3.5433,35.4330701 h 21.25985 l 3.54331,-35.4330701 h 21.25984 l 3.5433,35.4330701 h 21.25985 l 3.54331,-35.4330701 h 21.25986 l 3.5433,35.4330701 h 21.25984 l 3.54331,-35.4330701 h 21.25984 l 3.5433,35.4330701 h 21.25985 L 566.92916,7.0866219 H 588.189 l 3.5433,35.4330701 h 21.25985 l 3.54331,-35.4330701 h 21.25984 l 3.5433,35.4330701 h 21.25985 l 3.54331,-35.4330701 h 21.25984 l 3.5433,35.4330701 h 21.25985 l 3.54331,-35.4330701 h 21.25984 l 3.5433,35.4330701 h 21.25985 l 3.54331,-35.4330701 h 21.25984 l 3.5433,35.4330701 h 21.25985 l 3.54331,-35.4330701 h 21.25984 l 3.5433,35.4330701 h 21.25985 l 3.5433,-35.4330701 h 21.25985 l 3.5433,35.4330701 h 14.17323"
       style="fill:none;fill-rule:evenodd;stroke:#000000;stroke-width:2;stroke-linecap:butt;stroke-linejoin:miter;stroke-miterlimit:4;stroke-dasharray:none;stroke-opacity:1"
       id="path8122" />
    <path
       id="path3445"
       d="m 77.952769,95.669307 h 10.629933 l -3e-5,-35.43307 h 3.54333 v 35.43307 l 797.244148,-1e-5 v -35.43307 h 3.54331 v 35.43307 l 10.62986,1e-5"
       style="fill:none;stroke:#000000;stroke-width:2;stroke-linecap:butt;stroke-linejoin:miter;stroke-miterlimit:4;stroke-dasharray:none;stroke-opacity:1" />
    <g
       aria-label="ready_o"
       id="text3447"
       style="line-height:0%;font-family:Iwona;-inkscape-font-specification:Iwona;text-align:end;letter-spacing:0px;word-spacing:0px;text-anchor:end">
      <path
         d="m -8.6135904,76.309375 v -1.395 c -0.2475,-0.09 -0.5175,-0.1575 -0.765,-0.1575 -1.2599996,0 -2.2724996,0.8775 -3.0824996,1.845 v -1.6875 h -1.755 v 10.125 h 1.755 v -7.4925 c 0.675,-0.7875 1.53,-1.4625 2.5649996,-1.4625 0.4275,0 0.8775,0.09 1.2825,0.225 z"
         style="font-size:22.5px;line-height:1.25"
         id="path264" />
      <path
         d="m 1.7813876,80.201875 v -0.225 c 0,-3.1725 -1.73249997,-5.2875 -4.3425,-5.2875 -2.6325,0 -4.365,2.115 -4.365,5.2875 0,3.1725 1.7325,5.2875 4.365,5.2875 1.125,0 2.22750003,-0.36 3.15000003,-1.0125 v -0.945 c -1.0575,0.675 -1.91250003,0.9225 -3.15000003,0.9225 -1.9125,0 -2.385,-1.8225 -2.385,-4.0275 z m -1.97999997,-0.945 H -4.9461124 c 0,-1.8 0.765,-3.6225 2.385,-3.6225 1.59750003,0 2.36250003,1.8225 2.36250003,3.6225 z"
         style="font-size:22.5px;line-height:1.25"
         id="path266" />
      <path
         d="m 12.626357,85.039375 v -6.3 c 0,-2.115 -1.305,-4.05 -3.2625002,-4.05 -1.44,0 -2.79,0.495 -4.005,1.26 v 0.6975 c 1.0125,-0.5625 2.1375,-0.9225 3.3075,-0.9225 1.3950002,0 2.2050002,1.485 2.2050002,3.015 v 0.405 c -0.8775002,-0.3825 -1.8225002,-0.6075 -2.7675002,-0.6075 -2.4075,0 -4.185,1.1025 -4.185,3.375 0,2.16 1.575,3.3525 3.8475,3.3525 1.1475,0 2.205,-0.5175 3.1050002,-1.2375 v 1.0125 z m -1.755,-1.9575 c -0.675,0.675 -1.5075002,1.2375 -2.4750002,1.2375 -1.5075,0 -2.4975,-0.9225 -2.4975,-2.4075 0,-1.3725 1.125,-2.43 2.4975,-2.43 0.855,0 1.7100002,0.225 2.4750002,0.6075 z"
         style="font-size:22.5px;line-height:1.25"
         id="path268" />
      <path
         d="m 24.371338,85.039375 v -15.75 h -1.755 v 6.0075 c -0.8775,-0.3825 -1.8225,-0.6075 -2.7675,-0.6075 -2.8125,0 -4.185,2.25 -4.185,5.2875 0,2.9925 1.125,5.2875 3.8475,5.2875 1.1475,0 2.205,-0.5175 3.105,-1.2375 v 1.0125 z m -1.755,-1.9575 c -0.675,0.675 -1.5075,1.2375 -2.475,1.2375 -2.0475,0 -2.4975,-1.98 -2.4975,-4.3425 0,-2.115 0.6525,-4.3425 2.4975,-4.3425 0.855,0 1.71,0.225 2.475,0.6075 z"
         style="font-size:22.5px;line-height:1.25"
         id="path270" />
      <path
         d="m 36.003826,86.389375 v -11.475 h -1.755 v 7.9425 c -0.765,0.765 -1.71,1.3725 -2.7675,1.3725 -1.0575,0 -1.8675,-0.9225 -1.8675,-2.0025 v -7.3125 h -1.755 v 7.3125 c 0,1.6425 1.26,3.0375 2.88,3.0375 1.35,0 2.5425,-0.765 3.51,-1.71 v 2.835 c 0,1.5075 -0.675,3.015 -2.025,3.015 -1.0575,0 -2.07,-0.225 -3.0375,-0.6075 v 0.6975 c 1.1475,0.585 2.43,0.945 3.735,0.945 1.9125,0 3.0825,-1.98 3.0825,-4.05 z"
         style="font-size:22.5px;line-height:1.25"
         id="path272" />
      <path
         d="m 49.053787,87.626875 v -1.125 h -11.25 v 1.125 z"
         style="font-size:22.5px;line-height:1.25"
         id="path274" />
      <path
         d="m 58.998741,79.976875 c 0,-3.4425 -1.53,-5.2875 -4.3425,-5.2875 -2.835,0 -4.365,1.845 -4.365,5.2875 0,3.4425 1.53,5.2875 4.365,5.2875 2.8125,0 4.3425,-1.845 4.3425,-5.2875 z m -1.98,0 c 0,2.8125 -0.8325,4.3425 -2.3625,4.3425 -1.5525,0 -2.385,-1.53 -2.385,-4.3425 0,-2.8125 0.8325,-4.3425 2.385,-4.3425 1.53,0 2.3625,1.53 2.3625,4.3425 z"
         style="font-size:22.5px;line-height:1.25"
         id="path276" />
    </g>
    <g
       aria-label="0"
       id="text118"
       style="line-height:0%;font-family:Iwona;-inkscape-font-specification:Iwona;text-align:center;letter-spacing:0px;word-spacing:0px;text-anchor:middle;stroke-width:1px">
      <path
         d="m 85.337339,25.852282 c 0,-4.1475 -1.2775,-6.2125 -3.8325,-6.2125 -2.555,0 -3.8325,2.065 -3.8325,6.2125 0,4.1475 1.2775,6.2125 3.8325,6.2125 2.555,0 3.8325,-2.065 3.8325,-6.2125 z m -1.54,0 c 0,3.6575 -0.77,5.4775 -2.2925,5.4775 -1.5225,0 -2.2925,-1.82 -2.2925,-5.4775 0,-3.6575 0.77,-5.4775 2.2925,-5.4775 1.5225,0 2.2925,1.82 2.2925,5.4775 z"
         style="font-size:17.5px;line-height:1.25"
         id="path279" />
    </g>
    <g
       aria-label="31"
       id="text122"
       style="line-height:0%;font-family:Iwona;-inkscape-font-specification:Iwona;text-align:center;letter-spacing:0px;word-spacing:0px;text-anchor:middle;stroke-width:1px">
      <path
         d="m 899.12507,28.564782 c 0,-1.54 -1.085,-2.87 -2.59,-3.325 1.33,-0.385 2.1525,-1.3825 2.1525,-2.7125 0,-1.7325 -1.4,-2.8875 -3.5,-2.8875 -1.1375,0 -2.24,0.385 -3.1325,1.085 v 0.735 c 0.8925,-0.7 1.995,-1.085 3.1325,-1.085 1.2775,0 2.135,0.8575 2.135,2.1525 0,2.0825 -0.9625,2.625 -3.15,2.625 v 0.6475 c 2.3625,0 3.4125,0.56 3.4125,2.765 0,1.5225 -0.98,2.765 -2.17,2.765 -1.33,0 -2.625,-0.385 -3.7275,-1.085 v 0.735 c 1.1025,0.7 2.3975,1.085 3.7275,1.085 2.03,0 3.71,-1.575 3.71,-3.5 z"
         style="font-size:17.5px;line-height:1.25"
         id="path282" />
      <path
         d="m 905.77506,31.889782 v -12.075 h -1.015 c -0.9625,1.1025 -2.1,2.0475 -3.36,2.7825 v 0.735 c 1.0675,-0.5075 2.065,-1.1025 3.01,-1.82 v 10.3775 z"
         style="font-size:17.5px;line-height:1.25"
         id="path284" />
    </g>
  </g>
</svg>
