<?xml version="1.0" encoding="UTF-8" standalone="no"?>
<!-- Created with Inkscape (http://www.inkscape.org/) -->

<svg
   width="165.56929mm"
   height="43.405777mm"
   viewBox="0 0 586.66284 153.8"
   id="svg2"
   version="1.1"
   xmlns="http://www.w3.org/2000/svg"
   xmlns:svg="http://www.w3.org/2000/svg"
   xmlns:rdf="http://www.w3.org/1999/02/22-rdf-syntax-ns#"
   xmlns:cc="http://creativecommons.org/ns#"
   xmlns:dc="http://purl.org/dc/elements/1.1/">
  <defs
     id="defs4">
    <marker
       orient="auto"
       refY="0"
       refX="0"
       id="Arrow1Mend"
       style="overflow:visible">
      <path
         id="path4328"
         d="M 0,0 5,-5 -12.5,0 5,5 Z"
         style="fill:#000000;fill-opacity:1;fill-rule:evenodd;stroke:#000000;stroke-width:1.00000003pt;stroke-opacity:1"
         transform="matrix(-0.4,0,0,-0.4,-4,0)" />
    </marker>
    <marker
       orient="auto"
       refY="0"
       refX="0"
       id="Arrow1Mstart"
       style="overflow:visible">
      <path
         id="path4325"
         d="M 0,0 5,-5 -12.5,0 5,5 Z"
         style="fill:#000000;fill-opacity:1;fill-rule:evenodd;stroke:#000000;stroke-width:1.00000003pt;stroke-opacity:1"
         transform="matrix(0.4,0,0,0.4,4,0)" />
    </marker>
  </defs>
  <metadata
     id="metadata7">
    <rdf:RDF>
      <cc:Work
         rdf:about="">
        <dc:format>image/svg+xml</dc:format>
        <dc:type
           rdf:resource="http://purl.org/dc/dcmitype/StillImage" />
        <dc:title />
      </cc:Work>
    </rdf:RDF>
  </metadata>
  <g
     id="layer1"
     transform="translate(60.993519,3.5669361)">
    <path
       id="rect4295"
       style="opacity:1;fill:#ffbd54;stroke-linecap:round;stroke-linejoin:bevel;stroke-dasharray:2, 4"
       d="m 118.5827,35.433064 h 3.54331 v 95.669296 h -3.54331 z" />
    <g
       aria-label="clk_i"
       id="text3605"
       style="line-height:0%;font-family:Iwona;-inkscape-font-specification:Iwona;text-align:end;letter-spacing:0px;word-spacing:0px;text-anchor:end">
      <path
         d="m 32.560404,54.537834 v -0.945 c -0.72,-1.0125 -1.89,-1.62 -3.15,-1.62 -2.8125,0 -4.7025,2.115 -4.7025,5.2875 0,3.1725 1.89,5.2875 4.7025,5.2875 1.17,0 2.2725,-0.585 2.925,-1.5525 v -0.945 c -0.765,1.1475 -1.5525,1.5525 -2.925,1.5525 -1.62,0 -2.7225,-1.7325 -2.7225,-4.3425 0,-2.61 1.1025,-4.3425 2.7225,-4.3425 1.395,0 2.34,0.495 3.15,1.62 z"
         style="font-size:22.5px;line-height:1.25"
         id="path43" />
      <path
         d="m 39.15288,61.535334 v -0.675 c -0.4275,0.36 -0.9225,0.6525 -1.485,0.6525 -0.8325,0 -0.99,-1.035 -0.99,-2.0025 v -12.9375 h -1.755 v 12.9375 c 0,1.5075 0.585,3.0375 1.9125,3.0375 0.855,0 1.665,-0.4275 2.3175,-1.0125 z"
         style="font-size:22.5px;line-height:1.25"
         id="path45" />
      <path
         d="m 50.110339,62.322834 -5.22,-6.0075 5.04,-4.1175 h -1.395 l -5.3775,4.41 v -10.035 h -1.755 v 15.75 h 1.755 v -5.6025 l 4.86,5.6025 z"
         style="font-size:22.5px;line-height:1.25"
         id="path47" />
      <path
         d="m 61.585323,64.910334 v -1.125 h -11.25 v 1.125 z"
         style="font-size:22.5px;line-height:1.25"
         id="path49" />
      <path
         d="m 67.502779,61.535334 v -0.675 c -0.4275,0.36 -0.9225,0.6525 -1.485,0.6525 -0.8325,0 -0.99,-1.035 -0.99,-2.0025 v -7.3125 h -1.755 v 7.3125 c 0,1.5075 0.585,3.0375 1.9125,3.0375 0.855,0 1.665,-0.4275 2.3175,-1.0125 z m -2.25,-12.8475 c 0,-0.6075 -0.495,-1.1025 -1.1025,-1.1025 -0.6075,0 -1.1025,0.495 -1.1025,1.1025 0,0.6075 0.495,1.1025 1.1025,1.1025 0.6075,0 1.1025,-0.495 1.1025,-1.1025 z"
         style="font-size:22.5px;line-height:1.25"
         id="path51" />
    </g>
    <g
       aria-label="master_clk_o"
       id="text3352"
       style="line-height:0%;font-family:Iwona;-inkscape-font-specification:Iwona;text-align:end;letter-spacing:0px;word-spacing:0px;text-anchor:end">
      <path
         d="m -41.621904,115.47243 v -7.3125 c 0,-1.575 -0.9225,-3.0375 -2.385,-3.0375 -1.26,0 -2.43,0.6525 -3.105,1.71 -0.36,-0.99 -1.125,-1.71 -2.16,-1.71 -1.17,0 -2.115,0.81 -2.88,1.71 v -1.485 h -1.755 v 10.125 h 1.755 v -7.965 c 0.54,-0.6975 1.215,-1.35 2.0925,-1.35 0.9225,0 1.4175,0.99 1.4175,2.0025 v 7.3125 h 1.755 v -7.3125 c 0,-0.27 -0.0225,-0.5175 -0.0675,-0.7875 0.54,-0.6975 1.2825,-1.215 2.16,-1.215 0.9225,0 1.4175,0.99 1.4175,2.0025 v 7.3125 z"
         style="font-size:22.5px;line-height:1.25"
         id="path54" />
      <path
         d="m -30.214443,115.47243 v -6.3 c 0,-2.115 -1.305,-4.05 -3.2625,-4.05 -1.44,0 -2.79,0.495 -4.005,1.26 v 0.6975 c 1.0125,-0.5625 2.1375,-0.9225 3.3075,-0.9225 1.395,0 2.205,1.485 2.205,3.015 v 0.405 c -0.8775,-0.3825 -1.8225,-0.6075 -2.7675,-0.6075 -2.4075,0 -4.185,1.1025 -4.185,3.375 0,2.16 1.575,3.3525 3.8475,3.3525 1.1475,0 2.205,-0.5175 3.105,-1.2375 v 1.0125 z m -1.755,-1.9575 c -0.675,0.675 -1.5075,1.2375 -2.475,1.2375 -1.5075,0 -2.4975,-0.9225 -2.4975,-2.4075 0,-1.3725 1.125,-2.43 2.4975,-2.43 0.855,0 1.71,0.225 2.475,0.6075 z"
         style="font-size:22.5px;line-height:1.25"
         id="path56" />
      <path
         d="m -19.774462,112.59243 c 0,-1.7775 -1.89,-2.7 -3.735,-3.15 -1.08,-0.27 -2.25,-0.72 -2.25,-1.7775 0,-0.9675 0.99,-1.5975 2.07,-1.5975 1.1925,0 2.385,0.36 3.375,1.0125 v -0.945 c -0.99,-0.6525 -2.1825,-1.0125 -3.375,-1.0125 -1.9575,0 -3.7575,1.1925 -3.7575,3.015 0,1.6425 1.8225,2.4075 3.555,2.835 1.1925,0.2925 2.43,0.9225 2.43,2.07 0,1.0575 -1.08,1.71 -2.2275,1.71 -1.395,0 -2.745,-0.3375 -3.9375,-1.0125 v 0.945 c 1.1925,0.675 2.5425,1.0125 3.9375,1.0125 2.025,0 3.915,-1.215 3.915,-3.105 z"
         style="font-size:22.5px;line-height:1.25"
         id="path58" />
      <path
         d="m -12.191985,114.68493 v -0.675 c -0.36,0.36 -0.7875,0.6525 -1.305,0.6525 -0.81,0 -0.855,-1.0575 -0.855,-2.0025 v -6.3675 h 2.16 v -0.945 h -2.16 v -3.375 h -1.0575 c 0,1.8 -1.035,3.4875 -2.6775,3.4875 v 0.8325 h 1.98 v 6.3675 c 0,1.485 0.4725,3.0375 1.755,3.0375 0.8325,0 1.5525,-0.45 2.16,-1.0125 z"
         style="font-size:22.5px;line-height:1.25"
         id="path60" />
      <path
         d="m -1.5720164,110.63493 v -0.225 c 0,-3.1725 -1.7325,-5.2875 -4.3425,-5.2875 -2.6325,0 -4.3649996,2.115 -4.3649996,5.2875 0,3.1725 1.7324996,5.2875 4.3649996,5.2875 1.125,0 2.2275,-0.36 3.15,-1.0125 v -0.945 c -1.0575,0.675 -1.9125,0.9225 -3.15,0.9225 -1.9125,0 -2.385,-1.8225 -2.385,-4.0275 z m -1.98,-0.945 h -4.7475 c 0,-1.8 0.765,-3.6225 2.385,-3.6225 1.5975,0 2.3625,1.8225 2.3625,3.6225 z"
         style="font-size:22.5px;line-height:1.25"
         id="path62" />
      <path
         d="m 6.9554528,106.74243 v -1.395 c -0.2475,-0.09 -0.5175,-0.1575 -0.765,-0.1575 -1.26,0 -2.2725,0.8775 -3.0825,1.845 v -1.6875 h -1.755 v 10.125 h 1.755 v -7.4925 c 0.675,-0.7875 1.53,-1.4625 2.565,-1.4625 0.4275,0 0.8775,0.09 1.2825,0.225 z"
         style="font-size:22.5px;line-height:1.25"
         id="path64" />
      <path
         d="m 18.655431,118.05993 v -1.125 H 7.4054308 v 1.125 z"
         style="font-size:22.5px;line-height:1.25"
         id="path66" />
      <path
         d="m 27.745385,107.68743 v -0.945 c -0.72,-1.0125 -1.89,-1.62 -3.15,-1.62 -2.8125,0 -4.7025,2.115 -4.7025,5.2875 0,3.1725 1.89,5.2875 4.7025,5.2875 1.17,0 2.2725,-0.585 2.925,-1.5525 v -0.945 c -0.765,1.1475 -1.5525,1.5525 -2.925,1.5525 -1.62,0 -2.7225,-1.7325 -2.7225,-4.3425 0,-2.61 1.1025,-4.3425 2.7225,-4.3425 1.395,0 2.34,0.495 3.15,1.62 z"
         style="font-size:22.5px;line-height:1.25"
         id="path68" />
      <path
         d="m 34.337866,114.68493 v -0.675 c -0.4275,0.36 -0.9225,0.6525 -1.485,0.6525 -0.8325,0 -0.99,-1.035 -0.99,-2.0025 V 99.722427 h -1.755 v 12.937503 c 0,1.5075 0.585,3.0375 1.9125,3.0375 0.855,0 1.665,-0.4275 2.3175,-1.0125 z"
         style="font-size:22.5px;line-height:1.25"
         id="path70" />
      <path
         d="m 45.295324,115.47243 -5.22,-6.0075 5.04,-4.1175 h -1.395 l -5.3775,4.41 V 99.722427 h -1.755 v 15.750003 h 1.755 v -5.6025 l 4.86,5.6025 z"
         style="font-size:22.5px;line-height:1.25"
         id="path72" />
      <path
         d="m 56.770307,118.05993 v -1.125 h -11.25 v 1.125 z"
         style="font-size:22.5px;line-height:1.25"
         id="path74" />
      <path
         d="m 66.715268,110.40993 c 0,-3.4425 -1.53,-5.2875 -4.3425,-5.2875 -2.835,0 -4.365,1.845 -4.365,5.2875 0,3.4425 1.53,5.2875 4.365,5.2875 2.8125,0 4.3425,-1.845 4.3425,-5.2875 z m -1.98,0 c 0,2.8125 -0.8325,4.3425 -2.3625,4.3425 -1.5525,0 -2.385,-1.53 -2.385,-4.3425 0,-2.8125 0.8325,-4.3425 2.385,-4.3425 1.53,0 2.3625,1.53 2.3625,4.3425 z"
         style="font-size:22.5px;line-height:1.25"
         id="path76" />
    </g>
    <path
       id="path4453"
       style="fill:none;stroke:#000000;stroke-width:2;stroke-linecap:butt;stroke-linejoin:miter;stroke-miterlimit:4;stroke-dasharray:none;stroke-opacity:1"
       d="m 78.582687,127.51968 h 40.000003 l 3,-34.000001 h 37" />
    <path
       style="fill:none;fill-rule:evenodd;stroke:#000000;stroke-width:1px;stroke-linecap:butt;stroke-linejoin:miter;stroke-opacity:1;marker-start:url(#Arrow1Mstart);marker-end:url(#Arrow1Mend)"
       d="m 211.58269,21.259836 h 177"
       id="path4313" />
    <g
       aria-label="?"
       id="text4627"
       style="line-height:0%;font-family:Iwona;-inkscape-font-specification:Iwona;text-align:center;letter-spacing:0px;word-spacing:0px;text-anchor:middle;stroke-width:1px">
      <path
         d="m 300.79487,16.539678 c 0,-0.54 -0.44,-0.98 -0.98,-0.98 -0.54,0 -0.98,0.44 -0.98,0.98 0,0.54 0.44,0.98 0.98,0.98 0.54,0 0.98,-0.44 0.98,-0.98 z m 3.02,-10.2199999 c 0,-1.74 -1.82,-2.8 -3.74,-2.8 -1.44,0 -2.82,0.64 -3.74,1.74 v 0.84 c 0.92,-1.1 2.3,-1.74 3.74,-1.74 1.16,0 2.18,0.84 2.18,1.96 0,1.24 0.02,1.64 -0.74,2.62 -0.64,0.82 -1.42,1.5399999 -1.82,2.5199999 -0.32,0.82 -0.3,1.72 -0.3,2.6 h 0.84 c 0,-1.96 0.4,-2.46 1.78,-3.88 1.4,-1.3999999 1.8,-1.8999999 1.8,-3.8599999 z"
         style="font-size:20px;line-height:1.25"
         id="path79" />
    </g>
    <path
       style="fill:none;fill-rule:evenodd;stroke:#000000;stroke-width:1.6;stroke-linecap:butt;stroke-linejoin:miter;stroke-miterlimit:4;stroke-dasharray:none;stroke-opacity:1"
       d="m 78.58269,42.519679 h 10 V 77.51968 h 9.999995 V 42.519679 H 108.58269 V 77.51968 h 10 V 42.519679 h 10 V 77.51968 h 10 v -35 h 10 v 35 h 10"
       id="path3356" />
    <path
       style="fill:none;fill-rule:evenodd;stroke:#000000;stroke-width:1;stroke-linecap:butt;stroke-linejoin:miter;stroke-miterlimit:4;stroke-dasharray:1, 1;stroke-dashoffset:0;stroke-opacity:1"
       d="m 158.58269,28.346451 c -3.54331,6.559996 -4.09146,9.839994 0,16.399993 4.09146,6.56 3.54331,26.24 0,32.800007 -3.54331,6.559995 -3.54331,9.839994 0,16.399994 3.54331,6.560005 3.54331,26.240005 0,32.800015 -3.54331,6.56 -3.54331,9.83999 0,16.39999"
       id="path4667" />
    <path
       id="path4052"
       d="m 169.58269,28.346451 c -3.54331,6.559996 -4.09146,9.839994 0,16.399993 4.09146,6.56 3.54331,26.24 0,32.800007 -3.54331,6.559995 -3.54331,9.839994 0,16.399994 3.54331,6.560005 3.54331,26.240005 0,32.800015 -3.54331,6.56 -3.54331,9.83999 0,16.39999"
       style="fill:none;fill-rule:evenodd;stroke:#000000;stroke-width:1;stroke-linecap:butt;stroke-linejoin:miter;stroke-miterlimit:4;stroke-dasharray:1, 1;stroke-dashoffset:0;stroke-opacity:1" />
    <path
       id="rect4912"
       style="opacity:1;fill:#ffbd54;stroke-linecap:round;stroke-linejoin:bevel;stroke-dasharray:2, 4"
       d="m 208.58269,35.433064 h 3.5433 v 95.669296 h -3.5433 z" />
    <path
       id="path4914"
       d="m 168.58269,42.519679 h 10 V 77.51968 h 10 V 42.519679 h 10 V 77.51968 h 10 V 42.519679 h 10 V 77.51968 h 10 v -35 h 10 v 35 h 10"
       style="fill:none;fill-rule:evenodd;stroke:#000000;stroke-width:1.6;stroke-linecap:butt;stroke-linejoin:miter;stroke-miterlimit:4;stroke-dasharray:none;stroke-opacity:1" />
    <path
       id="path4916"
       d="m 248.58269,28.346451 c -3.54331,6.559996 -4.09146,9.839994 0,16.399993 4.09146,6.56 3.54331,26.24 0,32.800007 -3.54331,6.559995 -3.54331,9.839994 0,16.399994 3.54331,6.560005 3.54331,26.240005 0,32.800015 -3.54331,6.56 -3.54331,9.83999 0,16.39999"
       style="fill:none;fill-rule:evenodd;stroke:#000000;stroke-width:1;stroke-linecap:butt;stroke-linejoin:miter;stroke-miterlimit:4;stroke-dasharray:1, 1;stroke-dashoffset:0;stroke-opacity:1" />
    <path
       style="fill:none;fill-rule:evenodd;stroke:#000000;stroke-width:1;stroke-linecap:butt;stroke-linejoin:miter;stroke-miterlimit:4;stroke-dasharray:1, 1;stroke-dashoffset:0;stroke-opacity:1"
       d="m 259.58269,28.346451 c -3.54331,6.559996 -4.09146,9.839994 0,16.399993 4.09146,6.56 3.54331,26.24 0,32.800007 -3.54331,6.559995 -3.54331,9.839994 0,16.399994 3.54331,6.560005 3.54331,26.240005 0,32.800015 -3.54331,6.56 -3.54331,9.83999 0,16.39999"
       id="path4918" />
    <path
       id="rect4920"
       style="opacity:1;fill:#ffbd54;stroke-linecap:round;stroke-linejoin:bevel;stroke-dasharray:2, 4"
       d="m 298.5827,35.433064 h 3.54331 v 95.669296 h -3.54331 z" />
    <path
       style="fill:none;fill-rule:evenodd;stroke:#000000;stroke-width:1.6;stroke-linecap:butt;stroke-linejoin:miter;stroke-miterlimit:4;stroke-dasharray:none;stroke-opacity:1"
       d="m 258.58269,42.519679 h 10 V 77.51968 h 10 V 42.519679 h 10 V 77.51968 h 10 V 42.519679 h 10 V 77.51968 h 10 v -35 h 10 v 35 h 10"
       id="path4922" />
    <path
       style="fill:none;fill-rule:evenodd;stroke:#000000;stroke-width:1;stroke-linecap:butt;stroke-linejoin:miter;stroke-miterlimit:4;stroke-dasharray:1, 1;stroke-dashoffset:0;stroke-opacity:1"
       d="m 338.58269,28.346451 c -3.54331,6.559996 -4.09146,9.839994 0,16.399993 4.09146,6.56 3.54331,26.24 0,32.800007 -3.54331,6.559995 -3.54331,9.839994 0,16.399994 3.54331,6.560005 3.54331,26.240005 0,32.800015 -3.54331,6.56 -3.54331,9.83999 0,16.39999"
       id="path4924" />
    <path
       id="path4926"
       d="m 349.58269,28.346451 c -3.54331,6.559996 -4.09146,9.839994 0,16.399993 4.09146,6.56 3.54331,26.24 0,32.800007 -3.54331,6.559995 -3.54331,9.839994 0,16.399994 3.54331,6.560005 3.54331,26.240005 0,32.800015 -3.54331,6.56 -3.54331,9.83999 0,16.39999"
       style="fill:none;fill-rule:evenodd;stroke:#000000;stroke-width:1;stroke-linecap:butt;stroke-linejoin:miter;stroke-miterlimit:4;stroke-dasharray:1, 1;stroke-dashoffset:0;stroke-opacity:1" />
    <path
       id="rect4928"
       style="opacity:1;fill:#ffbd54;stroke-linecap:round;stroke-linejoin:bevel;stroke-dasharray:2, 4"
       d="m 388.5827,35.433064 h 3.54331 v 95.669296 h -3.54331 z" />
    <path
       id="path4930"
       d="m 348.58269,42.519679 h 10 V 77.51968 h 10 V 42.519679 h 10 V 77.51968 h 10 V 42.519679 h 10 V 77.51968 h 10 v -35 h 10 v 35 h 10"
       style="fill:none;fill-rule:evenodd;stroke:#000000;stroke-width:1.6;stroke-linecap:butt;stroke-linejoin:miter;stroke-miterlimit:4;stroke-dasharray:none;stroke-opacity:1" />
    <path
       id="path4932"
       d="m 428.58269,28.346451 c -3.54331,6.559996 -4.09146,9.839994 0,16.399993 4.09146,6.56 3.54331,26.24 0,32.800007 -3.54331,6.559995 -3.54331,9.839994 0,16.399994 3.54331,6.560005 3.54331,26.240005 0,32.800015 -3.54331,6.56 -3.54331,9.83999 0,16.39999"
       style="fill:none;fill-rule:evenodd;stroke:#000000;stroke-width:1;stroke-linecap:butt;stroke-linejoin:miter;stroke-miterlimit:4;stroke-dasharray:1, 1;stroke-dashoffset:0;stroke-opacity:1" />
    <path
       style="fill:none;fill-rule:evenodd;stroke:#000000;stroke-width:1;stroke-linecap:butt;stroke-linejoin:miter;stroke-miterlimit:4;stroke-dasharray:1, 1;stroke-dashoffset:0;stroke-opacity:1"
       d="m 439.58269,28.346451 c -3.54331,6.559996 -4.09146,9.839994 0,16.399993 4.09146,6.56 3.54331,26.24 0,32.800007 -3.54331,6.559995 -3.54331,9.839994 0,16.399994 3.54331,6.560005 3.54331,26.240005 0,32.800015 -3.54331,6.56 -3.54331,9.83999 0,16.39999"
       id="path4934" />
    <path
       id="rect4936"
       style="opacity:1;fill:#ffbd54;stroke-linecap:round;stroke-linejoin:bevel;stroke-dasharray:2, 4"
       d="m 478.5827,35.433064 h 3.54331 v 95.669296 h -3.54331 z" />
    <path
       style="fill:none;fill-rule:evenodd;stroke:#000000;stroke-width:1.6;stroke-linecap:butt;stroke-linejoin:miter;stroke-miterlimit:4;stroke-dasharray:none;stroke-opacity:1"
       d="m 438.58269,42.519679 h 10 V 77.51968 h 10 V 42.519679 h 10 V 77.51968 h 10 V 42.519679 h 10 V 77.51968 h 10 v -35 h 10 v 35 h 10"
       id="path4938" />
    <path
       d="m 247.58269,127.51968 h -36 l -3,-34.000001 h -39"
       style="fill:none;stroke:#000000;stroke-width:2;stroke-linecap:butt;stroke-linejoin:miter;stroke-miterlimit:4;stroke-dasharray:none;stroke-opacity:1"
       id="path4870" />
    <path
       d="m 258.58269,127.51968 h 40 l 3,-34.000001 h 37"
       style="fill:none;stroke:#000000;stroke-width:2;stroke-linecap:butt;stroke-linejoin:miter;stroke-miterlimit:4;stroke-dasharray:none;stroke-opacity:1"
       id="path4944" />
    <path
       id="path4946"
       style="fill:none;stroke:#000000;stroke-width:2;stroke-linecap:butt;stroke-linejoin:miter;stroke-miterlimit:4;stroke-dasharray:none;stroke-opacity:1"
       d="m 427.58269,127.51968 h -36 l -3,-34.000001 h -39" />
    <path
       id="path4948"
       style="fill:none;stroke:#000000;stroke-width:2;stroke-linecap:butt;stroke-linejoin:miter;stroke-miterlimit:4;stroke-dasharray:none;stroke-opacity:1"
       d="m 438.58269,127.51968 h 40 l 3,-34.000001 h 37" />
  </g>
</svg>
