<?xml version="1.0" encoding="UTF-8" standalone="no"?>
<svg
   width="331.0463mm"
   height="129.22459mm"
   viewBox="0 0 1172.9987 457.88242"
   id="svg2"
   version="1.1"
   xmlns="http://www.w3.org/2000/svg"
   xmlns:svg="http://www.w3.org/2000/svg"
   xmlns:rdf="http://www.w3.org/1999/02/22-rdf-syntax-ns#"
   xmlns:cc="http://creativecommons.org/ns#"
   xmlns:dc="http://purl.org/dc/elements/1.1/">
  <defs
     id="defs4" />
  <metadata
     id="metadata7">
    <rdf:RDF>
      <cc:Work
         rdf:about="">
        <dc:format>image/svg+xml</dc:format>
        <dc:type
           rdf:resource="http://purl.org/dc/dcmitype/StillImage" />
        <dc:title />
      </cc:Work>
    </rdf:RDF>
  </metadata>
  <g
     id="layer1"
     transform="translate(92.289943,145.85068)">
    <path
       style="fill:#ffcc00;fill-opacity:1;fill-rule:evenodd;stroke:none;stroke-width:1px;stroke-linecap:butt;stroke-linejoin:miter;stroke-opacity:1"
       d="m 979.72442,-49.606265 1.77166,-17.716535 h 42.51972 l 1.612,17.652056 -1.612,17.781015 h -42.51972 z"
       id="path959" />
    <path
       id="path961"
       d="m 979.72442,3.5433294 1.77166,-17.7165354 h 42.51972 l 1.612,17.6520564 -1.612,17.7810146 h -42.51972 z"
       style="fill:#55ddff;fill-opacity:1;fill-rule:evenodd;stroke:none;stroke-width:1px;stroke-linecap:butt;stroke-linejoin:miter;stroke-opacity:1" />
    <path
       id="path150"
       d="m 1018.7008,162.99217 1.7717,-17.71654 h 53.1496 v 35.43307 h -53.1496 z"
       style="fill:#ffcc00;fill-opacity:1;fill-rule:evenodd;stroke:none;stroke-width:1px;stroke-linecap:butt;stroke-linejoin:miter;stroke-opacity:1" />
    <path
       style="fill:#55ddff;fill-opacity:1;fill-rule:evenodd;stroke:none;stroke-width:1px;stroke-linecap:butt;stroke-linejoin:miter;stroke-opacity:1"
       d="m 848.62207,162.99216 1.77166,-17.71653 h 53.1496 l 1.77165,17.71654 -1.77165,17.71653 h -53.1496 z"
       id="path4707" />
    <path
       id="path4709"
       d="m 905.31498,162.99216 1.77166,-17.71653 h 53.1496 l 1.77165,17.71654 -1.77165,17.71653 h -53.1496 z"
       style="fill:#55ddff;fill-opacity:1;fill-rule:evenodd;stroke:none;stroke-width:1px;stroke-linecap:butt;stroke-linejoin:miter;stroke-opacity:1" />
    <path
       style="fill:#55ddff;fill-opacity:1;fill-rule:evenodd;stroke:none;stroke-width:1px;stroke-linecap:butt;stroke-linejoin:miter;stroke-opacity:1"
       d="m 962.00789,162.99216 1.77166,-17.71653 h 53.14955 l 1.7717,17.71654 -1.7717,17.71653 h -53.14955 z"
       id="path4711" />
    <path
       id="path4713"
       d="m 848.62207,162.99216 -1.77166,-17.71653 h -53.1496 c 3.54331,7.08662 3.54331,28.34646 0,35.43307 h 53.1496 z"
       style="fill:#55ddff;fill-opacity:1;fill-rule:evenodd;stroke:none;stroke-width:1px;stroke-linecap:butt;stroke-linejoin:miter;stroke-opacity:1" />
    <path
       style="fill:#55ddff;fill-opacity:1;fill-rule:evenodd;stroke:none;stroke-width:1px;stroke-linecap:butt;stroke-linejoin:miter;stroke-opacity:1"
       d="m 600.59057,162.99216 1.77166,-17.71653 h 53.1496 l 1.77165,17.71654 -1.77165,17.71653 h -53.1496 z"
       id="path4701" />
    <path
       id="path4703"
       d="m 657.28348,162.99216 1.77166,-17.71653 h 53.1496 l 1.77165,17.71654 -1.77165,17.71653 h -53.1496 z"
       style="fill:#55ddff;fill-opacity:1;fill-rule:evenodd;stroke:none;stroke-width:1px;stroke-linecap:butt;stroke-linejoin:miter;stroke-opacity:1" />
    <path
       style="fill:#55ddff;fill-opacity:1;fill-rule:evenodd;stroke:none;stroke-width:1px;stroke-linecap:butt;stroke-linejoin:miter;stroke-opacity:1"
       d="m 713.97639,162.99216 1.77166,-17.71653 h 53.1496 c 3.54331,7.08661 3.54331,28.34645 0,35.43307 h -53.1496 z"
       id="path4705" />
    <path
       id="path4695"
       d="m 430.51183,162.99216 1.77166,-17.71653 h 53.1496 l 1.77165,17.71654 -1.77165,17.71653 h -53.1496 z"
       style="fill:#ffcc00;fill-opacity:1;fill-rule:evenodd;stroke:none;stroke-width:1px;stroke-linecap:butt;stroke-linejoin:miter;stroke-opacity:1" />
    <path
       style="fill:#ffcc00;fill-opacity:1;fill-rule:evenodd;stroke:none;stroke-width:1px;stroke-linecap:butt;stroke-linejoin:miter;stroke-opacity:1"
       d="m 487.20474,162.99216 1.77166,-17.71653 h 53.1496 l 1.77165,17.71654 -1.77165,17.71653 h -53.1496 z"
       id="path4697" />
    <path
       id="path4699"
       d="m 543.89765,162.99216 1.77166,-17.71653 h 53.1496 l 1.77165,17.71654 -1.77165,17.71653 h -53.1496 z"
       style="fill:#ffcc00;fill-opacity:1;fill-rule:evenodd;stroke:none;stroke-width:1px;stroke-linecap:butt;stroke-linejoin:miter;stroke-opacity:1" />
    <path
       style="fill:#ffcc00;fill-opacity:1;fill-rule:evenodd;stroke:none;stroke-width:1px;stroke-linecap:butt;stroke-linejoin:miter;stroke-opacity:1"
       d="m 430.51183,162.99216 -1.77166,-17.71653 h -53.1496 c 3.54331,7.08662 3.54331,28.34646 0,35.43307 h 53.1496 z"
       id="path4693" />
    <path
       id="path4691"
       d="m 182.48034,162.99216 1.77166,-17.71653 h 53.1496 l 1.77165,17.71654 -1.77165,17.71653 H 184.252 Z"
       style="fill:#ffcc00;fill-opacity:1;fill-rule:evenodd;stroke:none;stroke-width:1px;stroke-linecap:butt;stroke-linejoin:miter;stroke-opacity:1" />
    <path
       style="fill:#ffcc00;fill-opacity:1;fill-rule:evenodd;stroke:none;stroke-width:1px;stroke-linecap:butt;stroke-linejoin:miter;stroke-opacity:1"
       d="m 239.17325,162.99216 1.77166,-17.71653 h 53.1496 l 1.77165,17.71654 -1.77165,17.71653 h -53.1496 z"
       id="path4689" />
    <path
       id="path4687"
       d="m 295.86616,162.99216 1.77166,-17.71653 h 53.1496 c 3.54331,7.08661 3.54331,28.34645 0,35.43307 h -53.1496 z"
       style="fill:#ffcc00;fill-opacity:1;fill-rule:evenodd;stroke:none;stroke-width:1px;stroke-linecap:butt;stroke-linejoin:miter;stroke-opacity:1" />
    <path
       style="fill:#ffcc00;fill-opacity:1;fill-rule:evenodd;stroke:none;stroke-width:1px;stroke-linecap:butt;stroke-linejoin:miter;stroke-opacity:1"
       d="m 143.50395,-49.606265 1.77166,-17.716535 h 42.51968 l 1.61196,17.652056 -1.61196,17.781015 h -42.51968 z"
       id="path4677" />
    <g
       aria-label="master_clk_o"
       id="text3605"
       style="line-height:0%;font-family:Iwona;-inkscape-font-specification:Iwona;text-align:end;letter-spacing:0px;word-spacing:0px;text-anchor:end">
      <path
         d="m -49.33845,63.779564 v -7.3125 c 0,-1.575 -0.9225,-3.0375 -2.385,-3.0375 -1.26,0 -2.43,0.6525 -3.105,1.71 -0.36,-0.99 -1.125,-1.71 -2.16,-1.71 -1.17,0 -2.115,0.81 -2.88,1.71 v -1.485 h -1.755 v 10.125 h 1.755 v -7.965 c 0.54,-0.6975 1.215,-1.35 2.0925,-1.35 0.9225,0 1.4175,0.99 1.4175,2.0025 v 7.3125 h 1.755 v -7.3125 c 0,-0.27 -0.0225,-0.5175 -0.0675,-0.7875 0.54,-0.6975 1.2825,-1.215 2.16,-1.215 0.9225,0 1.4175,0.99 1.4175,2.0025 v 7.3125 z"
         style="font-size:22.5px;line-height:1.25"
         id="path129" />
      <path
         d="m -37.930988,63.779564 v -6.3 c 0,-2.115 -1.305,-4.05 -3.2625,-4.05 -1.44,0 -2.79,0.495 -4.005,1.26 v 0.6975 c 1.0125,-0.5625 2.1375,-0.9225 3.3075,-0.9225 1.395,0 2.205,1.485 2.205,3.015 v 0.405 c -0.8775,-0.3825 -1.8225,-0.6075 -2.7675,-0.6075 -2.4075,0 -4.185,1.1025 -4.185,3.375 0,2.16 1.575,3.3525 3.8475,3.3525 1.1475,0 2.205,-0.5175 3.105,-1.2375 v 1.0125 z m -1.755,-1.9575 c -0.675,0.675 -1.5075,1.2375 -2.475,1.2375 -1.5075,0 -2.4975,-0.9225 -2.4975,-2.4075 0,-1.3725 1.125,-2.43 2.4975,-2.43 0.855,0 1.71,0.225 2.475,0.6075 z"
         style="font-size:22.5px;line-height:1.25"
         id="path131" />
      <path
         d="m -27.491007,60.899564 c 0,-1.7775 -1.89,-2.7 -3.735,-3.15 -1.08,-0.27 -2.25,-0.72 -2.25,-1.7775 0,-0.9675 0.99,-1.5975 2.07,-1.5975 1.1925,0 2.385,0.36 3.375,1.0125 v -0.945 c -0.99,-0.6525 -2.1825,-1.0125 -3.375,-1.0125 -1.9575,0 -3.7575,1.1925 -3.7575,3.015 0,1.6425 1.8225,2.4075 3.555,2.835 1.1925,0.2925 2.43,0.9225 2.43,2.07 0,1.0575 -1.08,1.71 -2.2275,1.71 -1.395,0 -2.745,-0.3375 -3.9375,-1.0125 v 0.945 c 1.1925,0.675 2.5425,1.0125 3.9375,1.0125 2.025,0 3.915,-1.215 3.915,-3.105 z"
         style="font-size:22.5px;line-height:1.25"
         id="path133" />
      <path
         d="m -19.90853,62.992064 v -0.675 c -0.36,0.36 -0.7875,0.6525 -1.305,0.6525 -0.81,0 -0.855,-1.0575 -0.855,-2.0025 v -6.3675 h 2.16 v -0.945 h -2.16 v -3.375 h -1.0575 c 0,1.8 -1.035,3.4875 -2.6775,3.4875 v 0.8325 h 1.98 v 6.3675 c 0,1.485 0.4725,3.0375 1.755,3.0375 0.8325,0 1.5525,-0.45 2.16,-1.0125 z"
         style="font-size:22.5px;line-height:1.25"
         id="path135" />
      <path
         d="m -9.2885615,58.942064 v -0.225 c 0,-3.1725 -1.7325005,-5.2875 -4.3425005,-5.2875 -2.6325,0 -4.365,2.115 -4.365,5.2875 0,3.1725 1.7325,5.2875 4.365,5.2875 1.125,0 2.2275,-0.36 3.15,-1.0125 v -0.945 c -1.0575,0.675 -1.9125,0.9225 -3.15,0.9225 -1.9125,0 -2.385,-1.8225 -2.385,-4.0275 z m -1.9800005,-0.945 h -4.7475 c 0,-1.8 0.765,-3.6225 2.385,-3.6225 1.5975,0 2.3625,1.8225 2.3625,3.6225 z"
         style="font-size:22.5px;line-height:1.25"
         id="path137" />
      <path
         d="m -0.76109234,55.049564 v -1.395 c -0.24749996,-0.09 -0.51749996,-0.1575 -0.76499996,-0.1575 -1.26,0 -2.2725,0.8775 -3.0825,1.845 v -1.6875 h -1.755 v 10.125 h 1.755 v -7.4925 c 0.675,-0.7875 1.53,-1.4625 2.565,-1.4625 0.4275,0 0.8775,0.09 1.28249996,0.225 z"
         style="font-size:22.5px;line-height:1.25"
         id="path139" />
      <path
         d="m 10.938886,66.367064 v -1.125 H -0.31111431 v 1.125 z"
         style="font-size:22.5px;line-height:1.25"
         id="path141" />
      <path
         d="m 20.02884,55.994564 v -0.945 c -0.72,-1.0125 -1.89,-1.62 -3.15,-1.62 -2.8125,0 -4.7025,2.115 -4.7025,5.2875 0,3.1725 1.89,5.2875 4.7025,5.2875 1.17,0 2.2725,-0.585 2.925,-1.5525 v -0.945 c -0.765,1.1475 -1.5525,1.5525 -2.925,1.5525 -1.62,0 -2.7225,-1.7325 -2.7225,-4.3425 0,-2.61 1.1025,-4.3425 2.7225,-4.3425 1.395,0 2.34,0.495 3.15,1.62 z"
         style="font-size:22.5px;line-height:1.25"
         id="path143" />
      <path
         d="m 26.621321,62.992064 v -0.675 c -0.4275,0.36 -0.9225,0.6525 -1.485,0.6525 -0.8325,0 -0.99,-1.035 -0.99,-2.0025 v -12.9375 h -1.755 v 12.9375 c 0,1.5075 0.585,3.0375 1.9125,3.0375 0.855,0 1.665,-0.4275 2.3175,-1.0125 z"
         style="font-size:22.5px;line-height:1.25"
         id="path145" />
      <path
         d="m 37.578779,63.779564 -5.22,-6.0075 5.04,-4.1175 h -1.395 l -5.3775,4.41 v -10.035 h -1.755 v 15.75 h 1.755 v -5.6025 l 4.86,5.6025 z"
         style="font-size:22.5px;line-height:1.25"
         id="path147" />
      <path
         d="m 49.053761,66.367064 v -1.125 h -11.25 v 1.125 z"
         style="font-size:22.5px;line-height:1.25"
         id="path151" />
      <path
         d="m 58.998723,58.717064 c 0,-3.4425 -1.53,-5.2875 -4.3425,-5.2875 -2.835,0 -4.365,1.845 -4.365,5.2875 0,3.4425 1.53,5.2875 4.365,5.2875 2.8125,0 4.3425,-1.845 4.3425,-5.2875 z m -1.98,0 c 0,2.8125 -0.8325,4.3425 -2.3625,4.3425 -1.5525,0 -2.385,-1.53 -2.385,-4.3425 0,-2.8125 0.8325,-4.3425 2.385,-4.3425 1.53,0 2.3625,1.53 2.3625,4.3425 z"
         style="font-size:22.5px;line-height:1.25"
         id="path153" />
    </g>
    <g
       aria-label="serial_clk_o"
       id="text3352"
       style="line-height:0%;font-family:Iwona;-inkscape-font-specification:Iwona;text-align:end;letter-spacing:0px;word-spacing:0px;text-anchor:end">
      <path
         d="m -44.613457,114.04918 c 0,-1.7775 -1.89,-2.7 -3.735,-3.15 -1.08,-0.27 -2.25,-0.72 -2.25,-1.7775 0,-0.9675 0.99,-1.5975 2.07,-1.5975 1.1925,0 2.385,0.36 3.375,1.0125 v -0.945 c -0.99,-0.6525 -2.1825,-1.0125 -3.375,-1.0125 -1.9575,0 -3.7575,1.1925 -3.7575,3.015 0,1.6425 1.8225,2.4075 3.555,2.835 1.1925,0.2925 2.43,0.9225 2.43,2.07 0,1.0575 -1.08,1.71 -2.2275,1.71 -1.395,0 -2.745,-0.3375 -3.9375,-1.0125 v 0.945 c 1.1925,0.675 2.5425,1.0125 3.9375,1.0125 2.025,0 3.915,-1.215 3.915,-3.105 z"
         style="font-size:22.5px;line-height:1.25"
         id="path156" />
      <path
         d="m -33.655981,112.09168 v -0.225 c 0,-3.1725 -1.7325,-5.2875 -4.3425,-5.2875 -2.6325,0 -4.365,2.115 -4.365,5.2875 0,3.1725 1.7325,5.2875 4.365,5.2875 1.125,0 2.2275,-0.36 3.15,-1.0125 v -0.945 c -1.0575,0.675 -1.9125,0.9225 -3.15,0.9225 -1.9125,0 -2.385,-1.8225 -2.385,-4.0275 z m -1.98,-0.945 h -4.7475 c 0,-1.8 0.765,-3.6225 2.385,-3.6225 1.5975,0 2.3625,1.8225 2.3625,3.6225 z"
         style="font-size:22.5px;line-height:1.25"
         id="path158" />
      <path
         d="m -25.128511,108.19918 v -1.395 c -0.2475,-0.09 -0.5175,-0.1575 -0.765,-0.1575 -1.26,0 -2.2725,0.8775 -3.0825,1.845 v -1.6875 h -1.755 v 10.125 h 1.755 v -7.4925 c 0.675,-0.7875 1.53,-1.4625 2.565,-1.4625 0.4275,0 0.8775,0.09 1.2825,0.225 z"
         style="font-size:22.5px;line-height:1.25"
         id="path160" />
      <path
         d="m -18.761033,116.14168 v -0.675 c -0.4275,0.36 -0.9225,0.6525 -1.485,0.6525 -0.8325,0 -0.99,-1.035 -0.99,-2.0025 v -7.3125 h -1.755 v 7.3125 c 0,1.5075 0.585,3.0375 1.9125,3.0375 0.855,0 1.665,-0.4275 2.3175,-1.0125 z m -2.25,-12.8475 c 0,-0.6075 -0.495,-1.1025 -1.1025,-1.1025 -0.6075,0 -1.1025,0.495 -1.1025,1.1025 0,0.6075 0.495,1.1025 1.1025,1.1025 0.6075,0 1.1025,-0.495 1.1025,-1.1025 z"
         style="font-size:22.5px;line-height:1.25"
         id="path162" />
      <path
         d="m -8.5910552,116.92918 v -6.3 c 0,-2.115 -1.305,-4.05 -3.2624998,-4.05 -1.44,0 -2.79,0.495 -4.005,1.26 v 0.6975 c 1.0125,-0.5625 2.1375,-0.9225 3.3075,-0.9225 1.395,0 2.205,1.485 2.205,3.015 v 0.405 c -0.8775,-0.3825 -1.8225,-0.6075 -2.7675,-0.6075 -2.4075,0 -4.185,1.1025 -4.185,3.375 0,2.16 1.575,3.3525 3.8475,3.3525 1.1475,0 2.205,-0.5175 3.105,-1.2375 v 1.0125 z m -1.7549998,-1.9575 c -0.675,0.675 -1.5075,1.2375 -2.475,1.2375 -1.5075,0 -2.4975,-0.9225 -2.4975,-2.4075 0,-1.3725 1.125,-2.43 2.4975,-2.43 0.855,0 1.71,0.225 2.475,0.6075 z"
         style="font-size:22.5px;line-height:1.25"
         id="path164" />
      <path
         d="m -0.7610738,116.14168 v -0.675 c -0.4275,0.36 -0.9225,0.6525 -1.485,0.6525 -0.8325,0 -0.99,-1.035 -0.99,-2.0025 v -12.9375 h -1.755 v 12.9375 c 0,1.5075 0.585,3.0375 1.9125,3.0375 0.855,0 1.665,-0.4275 2.3175,-1.0125 z"
         style="font-size:22.5px;line-height:1.25"
         id="path166" />
      <path
         d="m 10.938888,119.51668 v -1.125 H -0.3111124 v 1.125 z"
         style="font-size:22.5px;line-height:1.25"
         id="path168" />
      <path
         d="m 20.028842,109.14418 v -0.945 c -0.72,-1.0125 -1.89,-1.62 -3.15,-1.62 -2.8125,0 -4.7025,2.115 -4.7025,5.2875 0,3.1725 1.89,5.2875 4.7025,5.2875 1.17,0 2.2725,-0.585 2.925,-1.5525 v -0.945 c -0.765,1.1475 -1.5525,1.5525 -2.925,1.5525 -1.62,0 -2.7225,-1.7325 -2.7225,-4.3425 0,-2.61 1.1025,-4.3425 2.7225,-4.3425 1.395,0 2.34,0.495 3.15,1.62 z"
         style="font-size:22.5px;line-height:1.25"
         id="path170" />
      <path
         d="m 26.621315,116.14168 v -0.675 c -0.4275,0.36 -0.9225,0.6525 -1.485,0.6525 -0.8325,0 -0.99,-1.035 -0.99,-2.0025 v -12.9375 h -1.755 v 12.9375 c 0,1.5075 0.585,3.0375 1.9125,3.0375 0.855,0 1.665,-0.4275 2.3175,-1.0125 z"
         style="font-size:22.5px;line-height:1.25"
         id="path172" />
      <path
         d="m 37.57878,116.92918 -5.22,-6.0075 5.04,-4.1175 h -1.395 l -5.3775,4.41 v -10.035 h -1.755 v 15.75 h 1.755 v -5.6025 l 4.86,5.6025 z"
         style="font-size:22.5px;line-height:1.25"
         id="path174" />
      <path
         d="m 49.053763,119.51668 v -1.125 h -11.25 v 1.125 z"
         style="font-size:22.5px;line-height:1.25"
         id="path176" />
      <path
         d="m 58.998718,111.86668 c 0,-3.4425 -1.53,-5.2875 -4.3425,-5.2875 -2.835,0 -4.365,1.845 -4.365,5.2875 0,3.4425 1.53,5.2875 4.365,5.2875 2.8125,0 4.3425,-1.845 4.3425,-5.2875 z m -1.98,0 c 0,2.8125 -0.8325,4.3425 -2.3625,4.3425 -1.5525,0 -2.385,-1.53 -2.385,-4.3425 0,-2.8125 0.8325,-4.3425 2.385,-4.3425 1.53,0 2.3625,1.53 2.3625,4.3425 z"
         style="font-size:22.5px;line-height:1.25"
         id="path178" />
    </g>
    <path
       style="fill:none;stroke:#000000;stroke-width:2;stroke-linecap:butt;stroke-linejoin:miter;stroke-miterlimit:4;stroke-dasharray:none;stroke-opacity:1"
       d="m 70.866142,198.42524 h 53.149618 l 3.54329,35.43307 h 223.22836"
       id="path3358" />
    <g
       aria-label="left_right_clk_o"
       id="text3360"
       style="line-height:0%;font-family:Iwona;-inkscape-font-specification:Iwona;text-align:end;letter-spacing:0px;word-spacing:0px;text-anchor:end">
      <path
         d="m -80.973328,222.44086 v -0.675 c -0.4275,0.36 -0.9225,0.6525 -1.485,0.6525 -0.8325,0 -0.99,-1.035 -0.99,-2.0025 v -12.9375 h -1.755 v 12.9375 c 0,1.5075 0.585,3.0375 1.9125,3.0375 0.855,0 1.665,-0.4275 2.3175,-1.0125 z"
         style="font-size:22.5px;line-height:1.25"
         id="path181" />
      <path
         d="m -70.578369,218.39086 v -0.225 c 0,-3.1725 -1.7325,-5.2875 -4.3425,-5.2875 -2.6325,0 -4.365,2.115 -4.365,5.2875 0,3.1725 1.7325,5.2875 4.365,5.2875 1.125,0 2.2275,-0.36 3.15,-1.0125 v -0.945 c -1.0575,0.675 -1.9125,0.9225 -3.15,0.9225 -1.9125,0 -2.385,-1.8225 -2.385,-4.0275 z m -1.98,-0.945 h -4.7475 c 0,-1.8 0.765,-3.6225 2.385,-3.6225 1.5975,0 2.3625,1.8225 2.3625,3.6225 z"
         style="font-size:22.5px;line-height:1.25"
         id="path183" />
      <path
         d="m -63.153398,208.94086 v -0.6975 c -0.675,-0.5625 -1.485,-0.99 -2.3625,-0.99 -1.305,0 -1.9125,1.53 -1.9125,3.0375 v 2.8125 h -1.575 v 0.945 h 1.575 v 9.18 h 1.755 v -9.18 h 1.575 v -0.945 h -1.575 v -2.8125 c 0,-0.9675 0.18,-2.0025 1.0125,-2.0025 0.5625,0 1.08,0.27 1.5075,0.6525 z"
         style="font-size:22.5px;line-height:1.25"
         id="path185" />
      <path
         d="m -57.078413,222.44086 v -0.675 c -0.36,0.36 -0.7875,0.6525 -1.305,0.6525 -0.81,0 -0.855,-1.0575 -0.855,-2.0025 v -6.3675 h 2.16 v -0.945 h -2.16 v -3.375 h -1.0575 c 0,1.8 -1.035,3.4875 -2.6775,3.4875 v 0.8325 h 1.98 v 6.3675 c 0,1.485 0.4725,3.0375 1.755,3.0375 0.8325,0 1.5525,-0.45 2.16,-1.0125 z"
         style="font-size:22.5px;line-height:1.25"
         id="path187" />
      <path
         d="m -45.153444,225.81586 v -1.125 h -11.25 v 1.125 z"
         style="font-size:22.5px;line-height:1.25"
         id="path189" />
      <path
         d="m -37.750986,214.49836 v -1.395 c -0.2475,-0.09 -0.5175,-0.1575 -0.765,-0.1575 -1.26,0 -2.2725,0.8775 -3.0825,1.845 v -1.6875 h -1.755 v 10.125 h 1.755 v -7.4925 c 0.675,-0.7875 1.53,-1.4625 2.565,-1.4625 0.4275,0 0.8775,0.09 1.2825,0.225 z"
         style="font-size:22.5px;line-height:1.25"
         id="path191" />
      <path
         d="m -31.383508,222.44086 v -0.675 c -0.4275,0.36 -0.9225,0.6525 -1.485,0.6525 -0.8325,0 -0.99,-1.035 -0.99,-2.0025 v -7.3125 h -1.755 v 7.3125 c 0,1.5075 0.585,3.0375 1.9125,3.0375 0.855,0 1.665,-0.4275 2.3175,-1.0125 z m -2.25,-12.8475 c 0,-0.6075 -0.495,-1.1025 -1.1025,-1.1025 -0.6075,0 -1.1025,0.495 -1.1025,1.1025 0,0.6075 0.495,1.1025 1.1025,1.1025 0.6075,0 1.1025,-0.495 1.1025,-1.1025 z"
         style="font-size:22.5px;line-height:1.25"
         id="path193" />
      <path
         d="m -20.988531,224.57836 v -11.475 h -1.755 v 0.3825 c -0.8775,-0.3825 -1.8225,-0.6075 -2.7675,-0.6075 -2.8125,0 -4.185,2.25 -4.185,5.2875 0,2.9925 1.125,5.2875 3.8475,5.2875 1.1475,0 2.205,-0.5175 3.105,-1.2375 v 2.3625 c 0,1.5525 -0.855,3.015 -2.25,3.015 -1.1475,0 -2.295,-0.225 -3.375,-0.6075 v 0.6975 c 1.26,0.585 2.655,0.945 4.05,0.945 1.98,0 3.33,-1.935 3.33,-4.05 z m -1.755,-3.3075 c -0.675,0.675 -1.5075,1.2375 -2.475,1.2375 -2.0475,0 -2.4975,-1.98 -2.4975,-4.3425 0,-2.115 0.6525,-4.3425 2.4975,-4.3425 0.855,0 1.71,0.225 2.475,0.6075 z"
         style="font-size:22.5px;line-height:1.25"
         id="path195" />
      <path
         d="m -9.2435471,223.22836 v -7.3125 c 0,-1.6425 -1.2599999,-3.0375 -2.8799999,-3.0375 -1.35,0 -2.5425,0.765 -3.51,1.71 v -7.11 h -1.755 v 15.75 h 1.755 v -7.9425 c 0.765,-0.765 1.71,-1.3725 2.7675,-1.3725 1.0575,0 1.8675,0.9225 1.8675,2.0025 v 7.3125 z"
         style="font-size:22.5px;line-height:1.25"
         id="path197" />
      <path
         d="m -0.98608559,222.44086 v -0.675 c -0.36000001,0.36 -0.78750001,0.6525 -1.30500001,0.6525 -0.81,0 -0.855,-1.0575 -0.855,-2.0025 v -6.3675 h 2.16000001 v -0.945 H -3.1460856 v -3.375 h -1.0575 c 0,1.8 -1.035,3.4875 -2.6775,3.4875 v 0.8325 h 1.98 v 6.3675 c 0,1.485 0.4725,3.0375 1.755,3.0375 0.8325,0 1.5525,-0.45 2.16000001,-1.0125 z"
         style="font-size:22.5px;line-height:1.25"
         id="path199" />
      <path
         d="m 10.938887,225.81586 v -1.125 H -0.31111336 v 1.125 z"
         style="font-size:22.5px;line-height:1.25"
         id="path201" />
      <path
         d="m 20.028841,215.44336 v -0.945 c -0.72,-1.0125 -1.89,-1.62 -3.15,-1.62 -2.8125,0 -4.7025,2.115 -4.7025,5.2875 0,3.1725 1.89,5.2875 4.7025,5.2875 1.17,0 2.2725,-0.585 2.925,-1.5525 v -0.945 c -0.765,1.1475 -1.5525,1.5525 -2.925,1.5525 -1.62,0 -2.7225,-1.7325 -2.7225,-4.3425 0,-2.61 1.1025,-4.3425 2.7225,-4.3425 1.395,0 2.34,0.495 3.15,1.62 z"
         style="font-size:22.5px;line-height:1.25"
         id="path203" />
      <path
         d="m 26.621322,222.44086 v -0.675 c -0.4275,0.36 -0.9225,0.6525 -1.485,0.6525 -0.8325,0 -0.99,-1.035 -0.99,-2.0025 v -12.9375 h -1.755 v 12.9375 c 0,1.5075 0.585,3.0375 1.9125,3.0375 0.855,0 1.665,-0.4275 2.3175,-1.0125 z"
         style="font-size:22.5px;line-height:1.25"
         id="path205" />
      <path
         d="m 37.57878,223.22836 -5.22,-6.0075 5.04,-4.1175 h -1.395 l -5.3775,4.41 v -10.035 h -1.755 v 15.75 h 1.755 v -5.6025 l 4.86,5.6025 z"
         style="font-size:22.5px;line-height:1.25"
         id="path207" />
      <path
         d="m 49.053762,225.81586 v -1.125 h -11.25 v 1.125 z"
         style="font-size:22.5px;line-height:1.25"
         id="path209" />
      <path
         d="m 58.998724,218.16586 c 0,-3.4425 -1.53,-5.2875 -4.3425,-5.2875 -2.835,0 -4.365,1.845 -4.365,5.2875 0,3.4425 1.53,5.2875 4.365,5.2875 2.8125,0 4.3425,-1.845 4.3425,-5.2875 z m -1.98,0 c 0,2.8125 -0.8325,4.3425 -2.3625,4.3425 -1.5525,0 -2.385,-1.53 -2.385,-4.3425 0,-2.8125 0.8325,-4.3425 2.385,-4.3425 1.53,0 2.3625,1.53 2.3625,4.3425 z"
         style="font-size:22.5px;line-height:1.25"
         id="path211" />
    </g>
    <path
       id="path3371"
       d="M 768.89765,198.42524 H 545.6693 l -3.54329,35.43307 H 375.59056"
       style="fill:none;stroke:#000000;stroke-width:2;stroke-linecap:butt;stroke-linejoin:miter;stroke-miterlimit:4;stroke-dasharray:none;stroke-opacity:1" />
    <path
       style="fill:none;stroke:#000000;stroke-width:2;stroke-linecap:butt;stroke-linejoin:miter;stroke-miterlimit:4;stroke-dasharray:none;stroke-opacity:1"
       d="M 1073.622,233.85831 H 963.77952 l -3.54329,-35.43307 H 793.7008"
       id="path3373" />
    <g
       aria-label="serial_data_o"
       id="text4191"
       style="line-height:0%;font-family:Iwona;-inkscape-font-specification:Iwona;text-align:end;letter-spacing:0px;word-spacing:0px;text-anchor:end">
      <path
         d="m -59.778452,167.19877 c 0,-1.7775 -1.89,-2.7 -3.735,-3.15 -1.08,-0.27 -2.25,-0.72 -2.25,-1.7775 0,-0.9675 0.99,-1.5975 2.07,-1.5975 1.1925,0 2.385,0.36 3.375,1.0125 v -0.945 c -0.99,-0.6525 -2.1825,-1.0125 -3.375,-1.0125 -1.9575,0 -3.7575,1.1925 -3.7575,3.015 0,1.6425 1.8225,2.4075 3.555,2.835 1.1925,0.2925 2.43,0.9225 2.43,2.07 0,1.0575 -1.08,1.71 -2.2275,1.71 -1.395,0 -2.745,-0.3375 -3.9375,-1.0125 v 0.945 c 1.1925,0.675 2.5425,1.0125 3.9375,1.0125 2.025,0 3.915,-1.215 3.915,-3.105 z"
         style="font-size:22.5px;line-height:1.25"
         id="path214" />
      <path
         d="m -48.820976,165.24127 v -0.225 c 0,-3.1725 -1.7325,-5.2875 -4.3425,-5.2875 -2.6325,0 -4.365,2.115 -4.365,5.2875 0,3.1725 1.7325,5.2875 4.365,5.2875 1.125,0 2.2275,-0.36 3.15,-1.0125 v -0.945 c -1.0575,0.675 -1.9125,0.9225 -3.15,0.9225 -1.9125,0 -2.385,-1.8225 -2.385,-4.0275 z m -1.98,-0.945 h -4.7475 c 0,-1.8 0.765,-3.6225 2.385,-3.6225 1.5975,0 2.3625,1.8225 2.3625,3.6225 z"
         style="font-size:22.5px;line-height:1.25"
         id="path216" />
      <path
         d="m -40.293506,161.34877 v -1.395 c -0.2475,-0.09 -0.5175,-0.1575 -0.765,-0.1575 -1.26,0 -2.2725,0.8775 -3.0825,1.845 v -1.6875 h -1.755 v 10.125 h 1.755 v -7.4925 c 0.675,-0.7875 1.53,-1.4625 2.565,-1.4625 0.4275,0 0.8775,0.09 1.2825,0.225 z"
         style="font-size:22.5px;line-height:1.25"
         id="path218" />
      <path
         d="m -33.926028,169.29127 v -0.675 c -0.4275,0.36 -0.9225,0.6525 -1.485,0.6525 -0.8325,0 -0.99,-1.035 -0.99,-2.0025 v -7.3125 h -1.755 v 7.3125 c 0,1.5075 0.585,3.0375 1.9125,3.0375 0.855,0 1.665,-0.4275 2.3175,-1.0125 z m -2.25,-12.8475 c 0,-0.6075 -0.495,-1.1025 -1.1025,-1.1025 -0.6075,0 -1.1025,0.495 -1.1025,1.1025 0,0.6075 0.495,1.1025 1.1025,1.1025 0.6075,0 1.1025,-0.495 1.1025,-1.1025 z"
         style="font-size:22.5px;line-height:1.25"
         id="path220" />
      <path
         d="m -23.75605,170.07877 v -6.3 c 0,-2.115 -1.305,-4.05 -3.2625,-4.05 -1.44,0 -2.79,0.495 -4.005,1.26 v 0.6975 c 1.0125,-0.5625 2.1375,-0.9225 3.3075,-0.9225 1.395,0 2.205,1.485 2.205,3.015 v 0.405 c -0.8775,-0.3825 -1.8225,-0.6075 -2.7675,-0.6075 -2.4075,0 -4.185,1.1025 -4.185,3.375 0,2.16 1.575,3.3525 3.8475,3.3525 1.1475,0 2.205,-0.5175 3.105,-1.2375 v 1.0125 z m -1.755,-1.9575 c -0.675,0.675 -1.5075,1.2375 -2.475,1.2375 -1.5075,0 -2.4975,-0.9225 -2.4975,-2.4075 0,-1.3725 1.125,-2.43 2.4975,-2.43 0.855,0 1.71,0.225 2.475,0.6075 z"
         style="font-size:22.5px;line-height:1.25"
         id="path222" />
      <path
         d="m -15.926069,169.29127 v -0.675 c -0.4275,0.36 -0.9225,0.6525 -1.485,0.6525 -0.8325,0 -0.99,-1.035 -0.99,-2.0025 v -12.9375 h -1.755 v 12.9375 c 0,1.5075 0.585,3.0375 1.9125,3.0375 0.855,0 1.665,-0.4275 2.3175,-1.0125 z"
         style="font-size:22.5px;line-height:1.25"
         id="path224" />
      <path
         d="m -4.2261076,172.66627 v -1.125 H -15.476108 v 1.125 z"
         style="font-size:22.5px;line-height:1.25"
         id="path226" />
      <path
         d="m 5.7188466,170.07877 v -15.75 h -1.755 v 6.0075 c -0.8775,-0.3825 -1.8225,-0.6075 -2.7675,-0.6075 -2.8125,0 -4.185,2.25 -4.185,5.2875 0,2.9925 1.125,5.2875 3.84750003,5.2875 1.14749997,0 2.20499997,-0.5175 3.10499997,-1.2375 v 1.0125 z m -1.755,-1.9575 c -0.675,0.675 -1.5075,1.2375 -2.475,1.2375 -2.04749997,0 -2.4975,-1.98 -2.4975,-4.3425 0,-2.115 0.65250003,-4.3425 2.4975,-4.3425 0.855,0 1.71,0.225 2.475,0.6075 z"
         style="font-size:22.5px;line-height:1.25"
         id="path228" />
      <path
         d="m 17.238834,170.07877 v -6.3 c 0,-2.115 -1.305,-4.05 -3.2625,-4.05 -1.44,0 -2.79,0.495 -4.0049999,1.26 v 0.6975 c 1.0124999,-0.5625 2.1374999,-0.9225 3.3074999,-0.9225 1.395,0 2.205,1.485 2.205,3.015 v 0.405 c -0.8775,-0.3825 -1.8225,-0.6075 -2.7675,-0.6075 -2.4075,0 -4.1849999,1.1025 -4.1849999,3.375 0,2.16 1.5749999,3.3525 3.8474999,3.3525 1.1475,0 2.205,-0.5175 3.105,-1.2375 v 1.0125 z m -1.755,-1.9575 c -0.675,0.675 -1.5075,1.2375 -2.475,1.2375 -1.5075,0 -2.4975,-0.9225 -2.4975,-2.4075 0,-1.3725 1.125,-2.43 2.4975,-2.43 0.855,0 1.71,0.225 2.475,0.6075 z"
         style="font-size:22.5px;line-height:1.25"
         id="path230" />
      <path
         d="m 25.608815,169.29127 v -0.675 c -0.36,0.36 -0.7875,0.6525 -1.305,0.6525 -0.81,0 -0.855,-1.0575 -0.855,-2.0025 v -6.3675 h 2.16 v -0.945 h -2.16 v -3.375 h -1.0575 c 0,1.8 -1.035,3.4875 -2.6775,3.4875 v 0.8325 h 1.98 v 6.3675 c 0,1.485 0.4725,3.0375 1.755,3.0375 0.8325,0 1.5525,-0.45 2.16,-1.0125 z"
         style="font-size:22.5px;line-height:1.25"
         id="path232" />
      <path
         d="m 36.00378,170.07877 v -6.3 c 0,-2.115 -1.305,-4.05 -3.2625,-4.05 -1.44,0 -2.79,0.495 -4.005,1.26 v 0.6975 c 1.0125,-0.5625 2.1375,-0.9225 3.3075,-0.9225 1.395,0 2.205,1.485 2.205,3.015 v 0.405 c -0.8775,-0.3825 -1.8225,-0.6075 -2.7675,-0.6075 -2.4075,0 -4.185,1.1025 -4.185,3.375 0,2.16 1.575,3.3525 3.8475,3.3525 1.1475,0 2.205,-0.5175 3.105,-1.2375 v 1.0125 z m -1.755,-1.9575 c -0.675,0.675 -1.5075,1.2375 -2.475,1.2375 -1.5075,0 -2.4975,-0.9225 -2.4975,-2.4075 0,-1.3725 1.125,-2.43 2.4975,-2.43 0.855,0 1.71,0.225 2.475,0.6075 z"
         style="font-size:22.5px;line-height:1.25"
         id="path234" />
      <path
         d="m 49.053761,172.66627 v -1.125 h -11.25 v 1.125 z"
         style="font-size:22.5px;line-height:1.25"
         id="path236" />
      <path
         d="m 58.998716,165.01627 c 0,-3.4425 -1.53,-5.2875 -4.3425,-5.2875 -2.835,0 -4.365,1.845 -4.365,5.2875 0,3.4425 1.53,5.2875 4.365,5.2875 2.8125,0 4.3425,-1.845 4.3425,-5.2875 z m -1.98,0 c 0,2.8125 -0.8325,4.3425 -2.3625,4.3425 -1.5525,0 -2.385,-1.53 -2.385,-4.3425 0,-2.8125 0.8325,-4.3425 2.385,-4.3425 1.53,0 2.3625,1.53 2.3625,4.3425 z"
         style="font-size:22.5px;line-height:1.25"
         id="path238" />
    </g>
    <path
       id="path4453"
       style="fill:none;stroke:#000000;stroke-width:2;stroke-linecap:butt;stroke-linejoin:miter;stroke-miterlimit:4;stroke-dasharray:none;stroke-opacity:1"
       d="m 70.866142,127.5591 h 24.803149 l 3.543312,-35.433077 h 24.803157 l 3.5433,35.433077 h 24.80315 l 3.54331,-35.433077 h 24.80315 l 3.5433,35.433077 h 24.80316 l 3.54331,-35.433075 h 24.80315 l 3.5433,35.433075 h 24.80315 l 3.54331,-35.433075 h 24.80315 l 3.5433,35.433075 h 24.80315 l 3.54332,-35.433077 h 24.80315" />
    <path
       d="m 375.59056,127.5591 h 24.80315 l 3.54331,-35.433076 h 24.80315 l 3.5433,35.433076 h 24.80315 l 3.54331,-35.433074 h 24.80315 l 3.5433,35.433074 h 24.80316 l 3.54331,-35.433074 H 542.126 l 3.5433,35.433074 h 24.80315 l 3.54332,-35.433076 h 24.80315 l 3.5433,35.433076 h 24.80314 l 3.54331,-35.433076 h 24.80315 l 3.5433,35.433076 h 24.80316 l 3.54331,-35.433074 h 24.80315 l 3.5433,35.433074 h 24.80315 l 3.5433,-35.433074 h 24.8032"
       style="fill:none;stroke:#000000;stroke-width:2;stroke-linecap:butt;stroke-linejoin:miter;stroke-miterlimit:4;stroke-dasharray:none;stroke-opacity:1"
       id="path4456" />
    <path
       id="path4470"
       style="fill:none;fill-rule:evenodd;stroke:#000000;stroke-width:2;stroke-linecap:butt;stroke-linejoin:miter;stroke-miterlimit:4;stroke-dasharray:none;stroke-opacity:1"
       d="m 70.866142,180.70871 h 53.149618 l 3.5433,-35.43307 h 53.14961 l 3.5433,35.43307 v 0 h 53.14961 l 3.5433,-35.43307 h 53.14962 l 3.5433,35.43307 h 53.14961" />
    <path
       d="m 70.866142,145.27564 h 53.149618 l 3.5433,35.43307 h 53.14961 l 3.5433,-35.43307 v 0 h 53.14961 l 3.5433,35.43307 h 53.14962 l 3.5433,-35.43307 h 53.14961"
       style="fill:none;fill-rule:evenodd;stroke:#000000;stroke-width:2;stroke-linecap:butt;stroke-linejoin:miter;stroke-miterlimit:4;stroke-dasharray:none;stroke-opacity:1"
       id="path4473" />
    <g
       aria-label="L15"
       id="text4487"
       style="line-height:0%;font-family:Iwona;-inkscape-font-specification:Iwona;text-align:center;letter-spacing:0px;word-spacing:0px;text-anchor:middle;stroke-width:1px">
      <path
         d="m 208.46651,170.07877 v -0.805 h -5.565 v -11.445 h -1.435 v 12.25 z"
         style="font-size:17.5px;line-height:1.25"
         id="path241" />
      <path
         d="m 212.57024,173.57877 v -7.84875 h -0.65975 c -0.62563,0.71662 -1.365,1.33087 -2.184,1.80862 v 0.47775 c 0.69387,-0.32987 1.34225,-0.71662 1.9565,-1.183 v 6.74538 z"
         style="font-size:65%;baseline-shift:sub"
         id="path243" />
      <path
         d="m 220.19148,171.01939 c 0,-1.60387 -0.96687,-2.67312 -2.4115,-2.67312 -0.65975,0 -1.274,0.25025 -1.75175,0.67112 l 0.11375,-2.58212 h 3.822 v -0.70525 h -4.26562 l -0.17063,3.92437 0.47775,0.0228 c 0.43225,-0.53462 1.08063,-0.85312 1.7745,-0.85312 0.84175,0 1.4105,0.87587 1.4105,2.19537 0,1.3195 -0.56875,2.19538 -1.4105,2.19538 -0.87587,0 -1.729,-0.28438 -2.42287,-0.819 v 0.47775 c 0.69387,0.53462 1.547,0.819 2.42287,0.819 1.44463,0 2.4115,-1.06925 2.4115,-2.67313 z"
         style="font-size:65%;baseline-shift:sub"
         id="path245" />
    </g>
    <g
       aria-label="L14"
       id="text4493"
       style="line-height:0%;font-family:Iwona;-inkscape-font-specification:Iwona;text-align:center;letter-spacing:0px;word-spacing:0px;text-anchor:middle;stroke-width:1px">
      <path
         d="m 265.15942,170.07877 v -0.805 h -5.565 v -11.445 h -1.435 v 12.25 z"
         style="font-size:17.5px;line-height:1.25"
         id="path248" />
      <path
         d="m 269.26314,173.57877 v -7.84875 h -0.65975 c -0.62562,0.71662 -1.365,1.33087 -2.184,1.80862 v 0.47775 c 0.69388,-0.32987 1.34225,-0.71662 1.9565,-1.183 v 6.74538 z"
         style="font-size:65%;baseline-shift:sub"
         id="path250" />
      <path
         d="m 276.88439,170.84877 v -0.52325 h -0.85313 v -4.5955 h -0.88725 l -3.094,4.5955 v 0.52325 h 3.094 v 2.73 h 0.88725 v -2.73 z m -1.74038,-0.52325 h -2.51387 l 2.51387,-3.74238 z"
         style="font-size:65%;baseline-shift:sub"
         id="path252" />
    </g>
    <g
       aria-label="L13"
       id="text4499"
       style="line-height:0%;font-family:Iwona;-inkscape-font-specification:Iwona;text-align:center;letter-spacing:0px;word-spacing:0px;text-anchor:middle;stroke-width:1px">
      <path
         d="m 321.85232,170.07877 v -0.805 h -5.565 v -11.445 h -1.435 v 12.25 z"
         style="font-size:17.5px;line-height:1.25"
         id="path255" />
      <path
         d="m 325.95604,173.57877 v -7.84875 h -0.65975 c -0.62562,0.71662 -1.365,1.33087 -2.184,1.80862 v 0.47775 c 0.69388,-0.32987 1.34225,-0.71662 1.9565,-1.183 v 6.74538 z"
         style="font-size:65%;baseline-shift:sub"
         id="path257" />
      <path
         d="m 333.57729,171.41752 c 0,-1.001 -0.70525,-1.8655 -1.6835,-2.16125 0.8645,-0.25025 1.39912,-0.89863 1.39912,-1.76313 0,-1.12612 -0.91,-1.87687 -2.275,-1.87687 -0.73937,0 -1.456,0.25025 -2.03612,0.70525 v 0.47775 c 0.58012,-0.455 1.29675,-0.70525 2.03612,-0.70525 0.83038,0 1.38775,0.55737 1.38775,1.39912 0,1.35363 -0.62562,1.70625 -2.0475,1.70625 v 0.42088 c 1.53563,0 2.21813,0.364 2.21813,1.79725 0,0.98962 -0.637,1.79725 -1.4105,1.79725 -0.8645,0 -1.70625,-0.25025 -2.42288,-0.70525 v 0.47775 c 0.71663,0.455 1.55838,0.70525 2.42288,0.70525 1.3195,0 2.4115,-1.02375 2.4115,-2.275 z"
         style="font-size:65%;baseline-shift:sub"
         id="path259" />
    </g>
    <g
       aria-label="L3"
       id="text4511"
       style="line-height:0%;font-family:Iwona;-inkscape-font-specification:Iwona;text-align:center;letter-spacing:0px;word-spacing:0px;text-anchor:middle;stroke-width:1px">
      <path
         d="m 402.79101,170.07877 v -0.805 h -5.565 v -11.445 h -1.435 v 12.25 z"
         style="font-size:17.5px;line-height:1.25"
         id="path262" />
      <path
         d="m 408.54411,171.41752 c 0,-1.001 -0.70525,-1.8655 -1.6835,-2.16125 0.8645,-0.25025 1.39913,-0.89863 1.39913,-1.76313 0,-1.12612 -0.91,-1.87687 -2.275,-1.87687 -0.73938,0 -1.456,0.25025 -2.03613,0.70525 v 0.47775 c 0.58013,-0.455 1.29675,-0.70525 2.03613,-0.70525 0.83037,0 1.38775,0.55737 1.38775,1.39912 0,1.35363 -0.62563,1.70625 -2.0475,1.70625 v 0.42088 c 1.53562,0 2.21812,0.364 2.21812,1.79725 0,0.98962 -0.637,1.79725 -1.4105,1.79725 -0.8645,0 -1.70625,-0.25025 -2.42287,-0.70525 v 0.47775 c 0.71662,0.455 1.55837,0.70525 2.42287,0.70525 1.3195,0 2.4115,-1.02375 2.4115,-2.275 z"
         style="font-size:65%;baseline-shift:sub"
         id="path264" />
    </g>
    <g
       aria-label="L2"
       id="text4517"
       style="line-height:0%;font-family:Iwona;-inkscape-font-specification:Iwona;text-align:center;letter-spacing:0px;word-spacing:0px;text-anchor:middle;stroke-width:1px">
      <path
         d="m 459.48394,170.07877 v -0.805 h -5.565 v -11.445 h -1.435 v 12.25 z"
         style="font-size:17.5px;line-height:1.25"
         id="path267" />
      <path
         d="m 465.23704,173.57877 v -0.70525 h -4.01537 l 2.093,-2.07025 c 0.93275,-0.93275 1.80862,-2.02475 1.80862,-3.34425 0,-1.11475 -1.10337,-1.84275 -2.29775,-1.84275 -0.89862,0 -1.75175,0.4095 -2.30912,1.10337 v 0.47775 c 0.58012,-0.67112 1.42187,-1.05787 2.30912,-1.05787 0.76213,0 1.4105,0.56875 1.4105,1.3195 0,1.12612 -0.52325,2.17262 -1.29675,2.98025 l -2.53662,2.60487 v 0.53463 z"
         style="font-size:65%;baseline-shift:sub"
         id="path269" />
    </g>
    <g
       aria-label="L1"
       id="text4523"
       style="line-height:0%;font-family:Iwona;-inkscape-font-specification:Iwona;text-align:center;letter-spacing:0px;word-spacing:0px;text-anchor:middle;stroke-width:1px">
      <path
         d="m 517.00155,170.07877 v -0.805 h -5.565 v -11.445 h -1.435 v 12.25 z"
         style="font-size:17.5px;line-height:1.25"
         id="path272" />
      <path
         d="m 521.10528,173.57877 v -7.84875 h -0.65975 c -0.62563,0.71662 -1.365,1.33087 -2.184,1.80862 v 0.47775 c 0.69387,-0.32987 1.34225,-0.71662 1.9565,-1.183 v 6.74538 z"
         style="font-size:65%;baseline-shift:sub"
         id="path274" />
    </g>
    <g
       aria-label="L0"
       id="text4529"
       style="line-height:0%;font-family:Iwona;-inkscape-font-specification:Iwona;text-align:center;letter-spacing:0px;word-spacing:0px;text-anchor:middle;stroke-width:1px">
      <path
         d="m 572.82998,170.07877 v -0.805 h -5.565 v -11.445 h -1.435 v 12.25 z"
         style="font-size:17.5px;line-height:1.25"
         id="path277" />
      <path
         d="m 578.66271,169.65439 c 0,-2.69587 -0.83038,-4.03812 -2.49113,-4.03812 -1.66075,0 -2.49112,1.34225 -2.49112,4.03812 0,2.69588 0.83037,4.03813 2.49112,4.03813 1.66075,0 2.49113,-1.34225 2.49113,-4.03813 z m -1.001,0 c 0,2.37738 -0.5005,3.56038 -1.49013,3.56038 -0.98962,0 -1.49012,-1.183 -1.49012,-3.56038 0,-2.37737 0.5005,-3.56037 1.49012,-3.56037 0.98963,0 1.49013,1.183 1.49013,3.56037 z"
         style="font-size:65%;baseline-shift:sub"
         id="path279" />
    </g>
    <g
       aria-label="R15"
       id="text4535"
       style="line-height:0%;font-family:Iwona;-inkscape-font-specification:Iwona;text-align:center;letter-spacing:0px;word-spacing:0px;text-anchor:middle;stroke-width:1px">
      <path
         d="m 628.01173,170.07877 -3.7275,-5.5475 c 1.9075,-0.3675 3.22,-1.4175 3.22,-3.3775 0,-2.4675 -2.1175,-3.5 -4.865,-3.5 -0.98,0 -1.96,0.0525 -2.9225,0.175 h -1.4 v 12.25 h 1.435 v -5.6875 c 0.945,0.175 1.925,0.28 2.8875,0.28 l 3.6575,5.4075 z m -2.2225,-8.925 c 0,1.5925 -1.4875,2.7125 -3.15,2.7125 -0.9625,0 -1.9425,-0.105 -2.8875,-0.28 v -4.9525 c 0.9625,-0.1225 1.925,-0.175 2.8875,-0.175 1.6625,0 3.15,1.12 3.15,2.695 z"
         style="font-size:17.5px;line-height:1.25"
         id="path282" />
      <path
         d="m 631.94047,173.57877 v -7.84875 h -0.65975 c -0.62563,0.71662 -1.365,1.33087 -2.184,1.80862 v 0.47775 c 0.69387,-0.32987 1.34225,-0.71662 1.9565,-1.183 v 6.74538 z"
         style="font-size:65%;baseline-shift:sub"
         id="path284" />
      <path
         d="m 639.56172,171.01939 c 0,-1.60387 -0.96688,-2.67312 -2.4115,-2.67312 -0.65975,0 -1.274,0.25025 -1.75175,0.67112 l 0.11375,-2.58212 h 3.822 v -0.70525 h -4.26563 l -0.17062,3.92437 0.47775,0.0228 c 0.43225,-0.53462 1.08062,-0.85312 1.7745,-0.85312 0.84175,0 1.4105,0.87587 1.4105,2.19537 0,1.3195 -0.56875,2.19538 -1.4105,2.19538 -0.87588,0 -1.729,-0.28438 -2.42288,-0.819 v 0.47775 c 0.69388,0.53462 1.547,0.819 2.42288,0.819 1.44462,0 2.4115,-1.06925 2.4115,-2.67313 z"
         style="font-size:65%;baseline-shift:sub"
         id="path286" />
    </g>
    <path
       id="path4541"
       style="fill:none;fill-rule:evenodd;stroke:#000000;stroke-width:2;stroke-linecap:butt;stroke-linejoin:miter;stroke-miterlimit:4;stroke-dasharray:none;stroke-opacity:1"
       d="m 375.59056,145.27564 h 53.14961 l 3.5433,35.43307 h 53.14961 l 3.5433,-35.43307 v 0 h 53.14961 l 3.5433,35.43307 h 53.14962 l 3.5433,-35.43307 h 53.14961 l 3.5433,35.43307 h 53.14961 l 3.5433,-35.43307 v 0 h 53.14961" />
    <path
       d="m 375.59056,180.70871 h 53.14961 l 3.5433,-35.43307 h 53.14961 l 3.5433,35.43307 v 0 h 53.14961 l 3.5433,-35.43307 h 53.14962 l 3.5433,35.43307 h 53.14961 l 3.5433,-35.43307 h 53.14961 l 3.5433,35.43307 v 0 h 53.14961"
       style="fill:none;fill-rule:evenodd;stroke:#000000;stroke-width:2;stroke-linecap:butt;stroke-linejoin:miter;stroke-miterlimit:4;stroke-dasharray:none;stroke-opacity:1"
       id="path4544" />
    <g
       aria-label="R14"
       id="text4546"
       style="line-height:0%;font-family:Iwona;-inkscape-font-specification:Iwona;text-align:center;letter-spacing:0px;word-spacing:0px;text-anchor:middle;stroke-width:1px">
      <path
         d="m 684.70466,170.07877 -3.7275,-5.5475 c 1.9075,-0.3675 3.22,-1.4175 3.22,-3.3775 0,-2.4675 -2.1175,-3.5 -4.865,-3.5 -0.98,0 -1.96,0.0525 -2.9225,0.175 h -1.4 v 12.25 h 1.435 v -5.6875 c 0.945,0.175 1.925,0.28 2.8875,0.28 l 3.6575,5.4075 z m -2.2225,-8.925 c 0,1.5925 -1.4875,2.7125 -3.15,2.7125 -0.9625,0 -1.9425,-0.105 -2.8875,-0.28 v -4.9525 c 0.9625,-0.1225 1.925,-0.175 2.8875,-0.175 1.6625,0 3.15,1.12 3.15,2.695 z"
         style="font-size:17.5px;line-height:1.25"
         id="path289" />
      <path
         d="m 688.6334,173.57877 v -7.84875 h -0.65975 c -0.62562,0.71662 -1.365,1.33087 -2.184,1.80862 v 0.47775 c 0.69388,-0.32987 1.34225,-0.71662 1.9565,-1.183 v 6.74538 z"
         style="font-size:65%;baseline-shift:sub"
         id="path291" />
      <path
         d="m 696.25465,170.84877 v -0.52325 h -0.85313 v -4.5955 h -0.88725 l -3.094,4.5955 v 0.52325 h 3.094 v 2.73 h 0.88725 v -2.73 z m -1.74038,-0.52325 h -2.51387 l 2.51387,-3.74238 z"
         style="font-size:65%;baseline-shift:sub"
         id="path293" />
    </g>
    <g
       aria-label="R13"
       id="text4552"
       style="line-height:0%;font-family:Iwona;-inkscape-font-specification:Iwona;text-align:center;letter-spacing:0px;word-spacing:0px;text-anchor:middle;stroke-width:1px">
      <path
         d="m 741.3976,170.07877 -3.7275,-5.5475 c 1.9075,-0.3675 3.22,-1.4175 3.22,-3.3775 0,-2.4675 -2.1175,-3.5 -4.865,-3.5 -0.98,0 -1.96,0.0525 -2.9225,0.175 h -1.4 v 12.25 h 1.435 v -5.6875 c 0.945,0.175 1.925,0.28 2.8875,0.28 l 3.6575,5.4075 z m -2.2225,-8.925 c 0,1.5925 -1.4875,2.7125 -3.15,2.7125 -0.9625,0 -1.9425,-0.105 -2.8875,-0.28 v -4.9525 c 0.9625,-0.1225 1.925,-0.175 2.8875,-0.175 1.6625,0 3.15,1.12 3.15,2.695 z"
         style="font-size:17.5px;line-height:1.25"
         id="path296" />
      <path
         d="m 745.32633,173.57877 v -7.84875 h -0.65975 c -0.62562,0.71662 -1.365,1.33087 -2.184,1.80862 v 0.47775 c 0.69388,-0.32987 1.34225,-0.71662 1.9565,-1.183 v 6.74538 z"
         style="font-size:65%;baseline-shift:sub"
         id="path298" />
      <path
         d="m 752.94758,171.41752 c 0,-1.001 -0.70525,-1.8655 -1.6835,-2.16125 0.8645,-0.25025 1.39912,-0.89863 1.39912,-1.76313 0,-1.12612 -0.91,-1.87687 -2.275,-1.87687 -0.73937,0 -1.456,0.25025 -2.03612,0.70525 v 0.47775 c 0.58012,-0.455 1.29675,-0.70525 2.03612,-0.70525 0.83038,0 1.38775,0.55737 1.38775,1.39912 0,1.35363 -0.62562,1.70625 -2.0475,1.70625 v 0.42088 c 1.53563,0 2.21813,0.364 2.21813,1.79725 0,0.98962 -0.637,1.79725 -1.4105,1.79725 -0.8645,0 -1.70625,-0.25025 -2.42288,-0.70525 v 0.47775 c 0.71663,0.455 1.55838,0.70525 2.42288,0.70525 1.3195,0 2.4115,-1.02375 2.4115,-2.275 z"
         style="font-size:65%;baseline-shift:sub"
         id="path300" />
    </g>
    <path
       id="path4558"
       style="fill:none;stroke:#000000;stroke-width:2;stroke-linecap:butt;stroke-linejoin:miter;stroke-miterlimit:4;stroke-dasharray:none;stroke-opacity:1"
       d="m 793.7008,127.5591 h 24.80315 l 3.54331,-35.433076 h 24.80315 l 3.5433,35.433076 h 24.80315 l 3.54331,-35.433074 h 24.80315 l 3.5433,35.433074 h 24.80316 l 3.54331,-35.433074 h 24.80315 l 3.5433,35.433074 h 24.80314 l 3.5433,-35.433076 h 24.80322 l 3.5433,35.433076 h 24.8031 l 3.5433,-35.433076 h 24.8032" />
    <g
       aria-label="R3"
       id="text4560"
       style="line-height:0%;font-family:Iwona;-inkscape-font-specification:Iwona;text-align:center;letter-spacing:0px;word-spacing:0px;text-anchor:middle;stroke-width:1px">
      <path
         d="m 822.24877,170.07877 -3.7275,-5.5475 c 1.9075,-0.3675 3.22,-1.4175 3.22,-3.3775 0,-2.4675 -2.1175,-3.5 -4.865,-3.5 -0.98,0 -1.96,0.0525 -2.9225,0.175 h -1.4 v 12.25 h 1.435 v -5.6875 c 0.945,0.175 1.925,0.28 2.8875,0.28 l 3.6575,5.4075 z m -2.2225,-8.925 c 0,1.5925 -1.4875,2.7125 -3.15,2.7125 -0.9625,0 -1.9425,-0.105 -2.8875,-0.28 v -4.9525 c 0.9625,-0.1225 1.925,-0.175 2.8875,-0.175 1.6625,0 3.15,1.12 3.15,2.695 z"
         style="font-size:17.5px;line-height:1.25"
         id="path303" />
      <path
         d="m 827.82688,171.41752 c 0,-1.001 -0.70525,-1.8655 -1.6835,-2.16125 0.8645,-0.25025 1.39912,-0.89863 1.39912,-1.76313 0,-1.12612 -0.91,-1.87687 -2.275,-1.87687 -0.73937,0 -1.456,0.25025 -2.03612,0.70525 v 0.47775 c 0.58012,-0.455 1.29675,-0.70525 2.03612,-0.70525 0.83038,0 1.38775,0.55737 1.38775,1.39912 0,1.35363 -0.62562,1.70625 -2.0475,1.70625 v 0.42088 c 1.53563,0 2.21813,0.364 2.21813,1.79725 0,0.98962 -0.637,1.79725 -1.4105,1.79725 -0.8645,0 -1.70625,-0.25025 -2.42288,-0.70525 v 0.47775 c 0.71663,0.455 1.55838,0.70525 2.42288,0.70525 1.3195,0 2.4115,-1.02375 2.4115,-2.275 z"
         style="font-size:65%;baseline-shift:sub"
         id="path305" />
    </g>
    <g
       aria-label="R2"
       id="text4566"
       style="line-height:0%;font-family:Iwona;-inkscape-font-specification:Iwona;text-align:center;letter-spacing:0px;word-spacing:0px;text-anchor:middle;stroke-width:1px">
      <path
         d="m 878.9417,170.07877 -3.7275,-5.5475 c 1.9075,-0.3675 3.22,-1.4175 3.22,-3.3775 0,-2.4675 -2.1175,-3.5 -4.865,-3.5 -0.98,0 -1.96,0.0525 -2.9225,0.175 h -1.4 v 12.25 h 1.435 v -5.6875 c 0.945,0.175 1.925,0.28 2.8875,0.28 l 3.6575,5.4075 z m -2.2225,-8.925 c 0,1.5925 -1.4875,2.7125 -3.15,2.7125 -0.9625,0 -1.9425,-0.105 -2.8875,-0.28 v -4.9525 c 0.9625,-0.1225 1.925,-0.175 2.8875,-0.175 1.6625,0 3.15,1.12 3.15,2.695 z"
         style="font-size:17.5px;line-height:1.25"
         id="path308" />
      <path
         d="m 884.51981,173.57877 v -0.70525 h -4.01537 l 2.093,-2.07025 c 0.93275,-0.93275 1.80862,-2.02475 1.80862,-3.34425 0,-1.11475 -1.10337,-1.84275 -2.29775,-1.84275 -0.89862,0 -1.75175,0.4095 -2.30912,1.10337 v 0.47775 c 0.58012,-0.67112 1.42187,-1.05787 2.30912,-1.05787 0.76213,0 1.4105,0.56875 1.4105,1.3195 0,1.12612 -0.52325,2.17262 -1.29675,2.98025 l -2.53662,2.60487 v 0.53463 z"
         style="font-size:65%;baseline-shift:sub"
         id="path310" />
    </g>
    <g
       aria-label="R1"
       id="text4572"
       style="line-height:0%;font-family:Iwona;-inkscape-font-specification:Iwona;text-align:center;letter-spacing:0px;word-spacing:0px;text-anchor:middle;stroke-width:1px">
      <path
         d="m 936.45928,170.07877 -3.7275,-5.5475 c 1.9075,-0.3675 3.22,-1.4175 3.22,-3.3775 0,-2.4675 -2.1175,-3.5 -4.865,-3.5 -0.98,0 -1.96,0.0525 -2.9225,0.175 h -1.4 v 12.25 h 1.435 v -5.6875 c 0.945,0.175 1.925,0.28 2.8875,0.28 l 3.6575,5.4075 z m -2.2225,-8.925 c 0,1.5925 -1.4875,2.7125 -3.15,2.7125 -0.9625,0 -1.9425,-0.105 -2.8875,-0.28 v -4.9525 c 0.9625,-0.1225 1.925,-0.175 2.8875,-0.175 1.6625,0 3.15,1.12 3.15,2.695 z"
         style="font-size:17.5px;line-height:1.25"
         id="path313" />
      <path
         d="m 940.38801,173.57877 v -7.84875 h -0.65975 c -0.62562,0.71662 -1.365,1.33087 -2.184,1.80862 v 0.47775 c 0.69388,-0.32987 1.34225,-0.71662 1.9565,-1.183 v 6.74538 z"
         style="font-size:65%;baseline-shift:sub"
         id="path315" />
    </g>
    <g
       aria-label="R0"
       id="text4578"
       style="line-height:0%;font-family:Iwona;-inkscape-font-specification:Iwona;text-align:center;letter-spacing:0px;word-spacing:0px;text-anchor:middle;stroke-width:1px">
      <path
         d="m 992.28777,170.07877 -3.7275,-5.5475 c 1.9075,-0.3675 3.22,-1.4175 3.22,-3.3775 0,-2.4675 -2.1175,-3.5 -4.865,-3.5 -0.98,0 -1.96,0.0525 -2.9225,0.175 h -1.4 v 12.25 h 1.435 v -5.6875 c 0.945,0.175 1.925,0.28 2.8875,0.28 l 3.6575,5.4075 z m -2.2225,-8.925 c 0,1.5925 -1.4875,2.7125 -3.15,2.7125 -0.9625,0 -1.9425,-0.105 -2.8875,-0.28 v -4.9525 c 0.9625,-0.1225 1.925,-0.175 2.8875,-0.175 1.6625,0 3.15,1.12 3.15,2.695 z"
         style="font-size:17.5px;line-height:1.25"
         id="path318" />
      <path
         d="m 997.94551,169.65439 c 0,-2.69587 -0.83038,-4.03812 -2.49113,-4.03812 -1.66075,0 -2.49112,1.34225 -2.49112,4.03812 0,2.69588 0.83037,4.03813 2.49112,4.03813 1.66075,0 2.49113,-1.34225 2.49113,-4.03813 z m -1.001,0 c 0,2.37738 -0.5005,3.56038 -1.49013,3.56038 -0.98962,0 -1.49012,-1.183 -1.49012,-3.56038 0,-2.37737 0.5005,-3.56037 1.49012,-3.56037 0.98963,0 1.49013,1.183 1.49013,3.56037 z"
         style="font-size:65%;baseline-shift:sub"
         id="path320" />
    </g>
    <path
       d="m 793.70079,145.27564 h 53.14961 l 3.5433,35.43307 h 53.14961 l 3.5433,-35.43307 v 0 h 53.14961 l 3.5433,35.43307 h 53.14968 l 3.5433,-35.43307 h 53.1496"
       style="fill:none;fill-rule:evenodd;stroke:#000000;stroke-width:2;stroke-linecap:butt;stroke-linejoin:miter;stroke-miterlimit:4;stroke-dasharray:none;stroke-opacity:1"
       id="path4590" />
    <path
       id="path4592"
       style="fill:none;fill-rule:evenodd;stroke:#000000;stroke-width:2;stroke-linecap:butt;stroke-linejoin:miter;stroke-miterlimit:4;stroke-dasharray:none;stroke-opacity:1"
       d="m 793.70079,180.70871 h 53.14961 l 3.5433,-35.43307 h 53.14961 l 3.5433,35.43307 v 0 h 53.14961 l 3.5433,-35.43307 h 53.14968 l 3.5433,35.43307 h 53.1496" />
    <path
       id="path4612"
       style="fill:none;fill-rule:evenodd;stroke:#000000;stroke-width:1.5;stroke-linecap:butt;stroke-linejoin:miter;stroke-miterlimit:4;stroke-dasharray:none;stroke-opacity:1"
       d="m 70.866142,74.409486 h 3.543331 V 38.976415 h 7.086614 v 35.433071 h 7.086614 V 38.976415 h 7.086614 v 35.433071 h 7.086625 V 38.976415 h 7.08662 v 35.433071 h 7.08661 V 38.976415 h 7.08661 v 35.433071 h 7.08661 V 38.976415 h 7.08662 v 35.433071 h 7.08661 V 38.976415 h 7.08661 v 35.433071 h 7.08662 V 38.976415 h 7.08662 v 35.433071 h 7.08661 V 38.976415 h 7.08661 v 35.433071 h 7.08662 V 38.976415 h 7.08661 v 35.433071 h 7.08661 V 38.976415 h 7.08662 v 35.433071 h 7.08661 V 38.976415 h 7.08662 v 35.433071 h 7.08661 V 38.976415 h 7.08661 v 35.433071 h 7.08661 V 38.976415 h 7.08662 v 35.433071 h 7.08661 V 38.976415 h 7.08661 v 35.433071 h 7.08662 V 38.976415 h 7.08662 v 35.433071 h 7.08661 V 38.976415 h 7.08661 v 35.433071 h 7.08661 V 38.976415 h 7.08661 v 35.433071 h 7.08662 V 38.976415 h 7.08661 v 35.433071 h 7.08661 V 38.976415 h 7.08662 v 35.433071 h 7.08661 V 38.976415 h 7.08661" />
    <path
       d="m 375.59056,74.409487 h 3.5433 V 38.976416 h 7.08662 v 35.433071 h 7.08661 V 38.976416 h 7.08661 v 35.433071 h 7.08662 V 38.976416 h 7.08662 v 35.433071 h 7.08661 V 38.976416 h 7.08661 v 35.433071 h 7.08661 V 38.976416 h 7.08662 V 74.409487 H 450 V 38.976416 h 7.08661 v 35.433071 h 7.08662 V 38.976416 h 7.08662 v 35.433071 h 7.08661 V 38.976416 h 7.08661 v 35.433071 h 7.08662 V 38.976416 h 7.08661 v 35.433071 h 7.08661 V 38.976416 h 7.08662 v 35.433071 h 7.08661 V 38.976416 h 7.08662 v 35.433071 h 7.08661 V 38.976416 h 7.08661 v 35.433071 h 7.08661 V 38.976416 h 7.08662 v 35.433071 h 7.08661 V 38.976416 h 7.08661 v 35.433071 h 7.08662 V 38.976416 h 7.08662 v 35.433071 h 7.08661 V 38.976416 h 7.08661 v 35.433071 h 7.08661 V 38.976416 h 7.08661 v 35.433071 h 7.08662 V 38.976416 h 7.08661 v 35.433071 h 7.08661 V 38.976416 h 7.08662 v 35.433071 h 7.08661 V 38.976416 h 7.08661 v 35.433071 h 7.08661 V 38.976416 h 7.08662 v 35.433071 h 7.08661 V 38.976416 h 7.08661 v 35.433071 h 7.08662 V 38.976416 h 7.08662 v 35.433071 h 7.08661 V 38.976416 h 7.08661 v 35.433071 h 7.08662 V 38.976416 h 7.08661 v 35.433071 h 7.08661 V 38.976416 h 7.08662 v 35.433071 h 7.08661 V 38.976416 h 7.08662 V 74.409487 H 761.811 V 38.976416 h 7.08661"
       style="fill:none;fill-rule:evenodd;stroke:#000000;stroke-width:1.5;stroke-linecap:butt;stroke-linejoin:miter;stroke-miterlimit:4;stroke-dasharray:none;stroke-opacity:1"
       id="path4615" />
    <path
       id="path4617"
       style="fill:none;fill-rule:evenodd;stroke:#000000;stroke-width:1.5;stroke-linecap:butt;stroke-linejoin:miter;stroke-miterlimit:4;stroke-dasharray:none;stroke-opacity:1"
       d="m 793.7008,74.409487 h 3.5433 V 38.976416 h 7.08662 v 35.433071 h 7.08661 V 38.976416 h 7.08661 v 35.433071 h 7.08662 V 38.976416 h 7.08662 v 35.433071 h 7.08661 V 38.976416 h 7.08661 v 35.433071 h 7.08661 V 38.976416 h 7.08662 v 35.433071 h 7.08661 V 38.976416 h 7.08661 v 35.433071 h 7.08662 V 38.976416 h 7.08662 v 35.433071 h 7.08661 V 38.976416 h 7.08661 v 35.433071 h 7.08662 V 38.976416 h 7.08661 v 35.433071 h 7.08661 V 38.976416 h 7.08662 v 35.433071 h 7.08661 V 38.976416 h 7.08662 v 35.433071 h 7.0866 V 38.976416 h 7.0866 v 35.433071 h 7.0866 V 38.976416 h 7.0867 v 35.433071 h 7.0866 V 38.976416 h 7.0866 v 35.433071 h 7.0866 V 38.976416 h 7.0866 v 35.433071 h 7.0866 V 38.976416 h 7.0866 v 35.433071 h 7.0866 V 38.976416 h 7.0867 v 35.433071 h 7.0866 V 38.976416 h 7.0866 v 35.433071 h 7.0866 V 38.976416 h 7.0866 v 35.433071 h 7.0866 V 38.976416 h 7.0866" />
    <g
       aria-label="left_data_i"
       id="text4619"
       style="line-height:0%;font-family:Iwona;-inkscape-font-specification:Iwona;text-align:end;letter-spacing:0px;word-spacing:0px;text-anchor:end">
      <path
         d="m -35.230979,-43.30715 v -0.675 c -0.4275,0.36 -0.9225,0.6525 -1.485,0.6525 -0.8325,0 -0.99,-1.035 -0.99,-2.0025 v -12.9375 h -1.755 v 12.9375 c 0,1.5075 0.585,3.0375 1.9125,3.0375 0.855,0 1.665,-0.4275 2.3175,-1.0125 z"
         style="font-size:22.5px;line-height:1.25"
         id="path323" />
      <path
         d="m -24.836019,-47.35715 v -0.225 c 0,-3.1725 -1.7325,-5.2875 -4.3425,-5.2875 -2.6325,0 -4.365,2.115 -4.365,5.2875 0,3.1725 1.7325,5.2875 4.365,5.2875 1.125,0 2.2275,-0.36 3.15,-1.0125 v -0.945 c -1.0575,0.675 -1.9125,0.9225 -3.15,0.9225 -1.9125,0 -2.385,-1.8225 -2.385,-4.0275 z m -1.98,-0.945 h -4.7475 c 0,-1.8 0.765,-3.6225 2.385,-3.6225 1.5975,0 2.3625,1.8225 2.3625,3.6225 z"
         style="font-size:22.5px;line-height:1.25"
         id="path325" />
      <path
         d="m -17.411048,-56.80715 v -0.6975 c -0.675,-0.5625 -1.485,-0.99 -2.3625,-0.99 -1.305,0 -1.9125,1.53 -1.9125,3.0375 v 2.8125 h -1.575 v 0.945 h 1.575 v 9.18 h 1.755 v -9.18 h 1.575 v -0.945 h -1.575 v -2.8125 c 0,-0.9675 0.18,-2.0025 1.0125,-2.0025 0.5625,0 1.08,0.27 1.5075,0.6525 z"
         style="font-size:22.5px;line-height:1.25"
         id="path327" />
      <path
         d="m -11.336063,-43.30715 v -0.675 c -0.36,0.36 -0.7875,0.6525 -1.305,0.6525 -0.81,0 -0.855,-1.0575 -0.855,-2.0025 v -6.3675 h 2.16 v -0.945 h -2.16 v -3.375 h -1.0575 c 0,1.8 -1.035,3.4875 -2.6775,3.4875 v 0.8325 h 1.98 v 6.3675 c 0,1.485 0.4725,3.0375 1.755,3.0375 0.8325,0 1.5525,-0.45 2.16,-1.0125 z"
         style="font-size:22.5px;line-height:1.25"
         id="path329" />
      <path
         d="m 0.58890533,-39.93215 v -1.125 H -10.661095 v 1.125 z"
         style="font-size:22.5px;line-height:1.25"
         id="path331" />
      <path
         d="m 10.533863,-42.51965 v -15.75 H 8.7788634 v 6.0075 c -0.8775,-0.3825 -1.8225,-0.6075 -2.7675,-0.6075 -2.8125,0 -4.185,2.25 -4.185,5.2875 0,2.9925 1.125,5.2875 3.8475,5.2875 1.1475,0 2.205,-0.5175 3.105,-1.2375 v 1.0125 z m -1.7549996,-1.9575 c -0.675,0.675 -1.5075,1.2375 -2.475,1.2375 -2.0475,0 -2.4975,-1.98 -2.4975,-4.3425 0,-2.115 0.6525,-4.3425 2.4975,-4.3425 0.855,0 1.71,0.225 2.475,0.6075 z"
         style="font-size:22.5px;line-height:1.25"
         id="path333" />
      <path
         d="m 22.053847,-42.51965 v -6.3 c 0,-2.115 -1.305,-4.05 -3.2625,-4.05 -1.44,0 -2.79,0.495 -4.005,1.26 v 0.6975 c 1.0125,-0.5625 2.1375,-0.9225 3.3075,-0.9225 1.395,0 2.205,1.485 2.205,3.015 v 0.405 c -0.8775,-0.3825 -1.8225,-0.6075 -2.7675,-0.6075 -2.4075,0 -4.185,1.1025 -4.185,3.375 0,2.16 1.575,3.3525 3.8475,3.3525 1.1475,0 2.205,-0.5175 3.105,-1.2375 v 1.0125 z m -1.755,-1.9575 c -0.675,0.675 -1.5075,1.2375 -2.475,1.2375 -1.5075,0 -2.4975,-0.9225 -2.4975,-2.4075 0,-1.3725 1.125,-2.43 2.4975,-2.43 0.855,0 1.71,0.225 2.475,0.6075 z"
         style="font-size:22.5px;line-height:1.25"
         id="path335" />
      <path
         d="m 30.423828,-43.30715 v -0.675 c -0.36,0.36 -0.7875,0.6525 -1.305,0.6525 -0.81,0 -0.855,-1.0575 -0.855,-2.0025 v -6.3675 h 2.16 v -0.945 h -2.16 v -3.375 h -1.0575 c 0,1.8 -1.035,3.4875 -2.6775,3.4875 v 0.8325 h 1.98 v 6.3675 c 0,1.485 0.4725,3.0375 1.755,3.0375 0.8325,0 1.5525,-0.45 2.16,-1.0125 z"
         style="font-size:22.5px;line-height:1.25"
         id="path337" />
      <path
         d="m 40.818801,-42.51965 v -6.3 c 0,-2.115 -1.305,-4.05 -3.2625,-4.05 -1.44,0 -2.79,0.495 -4.005,1.26 v 0.6975 c 1.0125,-0.5625 2.1375,-0.9225 3.3075,-0.9225 1.395,0 2.205,1.485 2.205,3.015 v 0.405 c -0.8775,-0.3825 -1.8225,-0.6075 -2.7675,-0.6075 -2.4075,0 -4.185,1.1025 -4.185,3.375 0,2.16 1.575,3.3525 3.8475,3.3525 1.1475,0 2.205,-0.5175 3.105,-1.2375 v 1.0125 z m -1.755,-1.9575 c -0.675,0.675 -1.5075,1.2375 -2.475,1.2375 -1.5075,0 -2.4975,-0.9225 -2.4975,-2.4075 0,-1.3725 1.125,-2.43 2.4975,-2.43 0.855,0 1.71,0.225 2.475,0.6075 z"
         style="font-size:22.5px;line-height:1.25"
         id="path339" />
      <path
         d="m 53.868782,-39.93215 v -1.125 h -11.25 v 1.125 z"
         style="font-size:22.5px;line-height:1.25"
         id="path341" />
      <path
         d="m 59.786236,-43.30715 v -0.675 c -0.4275,0.36 -0.9225,0.6525 -1.485,0.6525 -0.8325,0 -0.99,-1.035 -0.99,-2.0025 v -7.3125 h -1.755 v 7.3125 c 0,1.5075 0.585,3.0375 1.9125,3.0375 0.855,0 1.665,-0.4275 2.3175,-1.0125 z m -2.25,-12.8475 c 0,-0.6075 -0.495,-1.1025 -1.1025,-1.1025 -0.6075,0 -1.1025,0.495 -1.1025,1.1025 0,0.6075 0.495,1.1025 1.1025,1.1025 0.6075,0 1.1025,-0.495 1.1025,-1.1025 z"
         style="font-size:22.5px;line-height:1.25"
         id="path343" />
    </g>
    <g
       aria-label="right_data_i"
       id="text4623"
       style="line-height:0%;font-family:Iwona;-inkscape-font-specification:Iwona;text-align:end;letter-spacing:0px;word-spacing:0px;text-anchor:end">
      <path
         d="M -48.100966,1.8999591 V 0.50495911 c -0.2475,-0.09 -0.5175,-0.1575 -0.765,-0.1575 -1.26,0 -2.2725,0.87749999 -3.0825,1.84499999 V 0.50495911 h -1.755 V 10.629959 h 1.755 V 3.1374591 c 0.675,-0.7875 1.53,-1.4625 2.565,-1.4625 0.4275,0 0.8775,0.09 1.2825,0.225 z"
         style="font-size:22.5px;line-height:1.25"
         id="path346" />
      <path
         d="m -41.733488,9.8424591 v -0.675 c -0.4275,0.36 -0.9225,0.6525 -1.485,0.6525 -0.8325,0 -0.99,-1.035 -0.99,-2.0025 V 0.50495911 h -1.755 V 7.8174591 c 0,1.5075 0.585,3.0374999 1.9125,3.0374999 0.855,0 1.665,-0.4275 2.3175,-1.0124999 z m -2.25,-12.8475 c 0,-0.6075 -0.495,-1.1025 -1.1025,-1.1025 -0.6075,0 -1.1025,0.495 -1.1025,1.1025 0,0.6075 0.495,1.1025 1.1025,1.1025 0.6075,0 1.1025,-0.495 1.1025,-1.1025 z"
         style="font-size:22.5px;line-height:1.25"
         id="path348" />
      <path
         d="M -31.338509,11.979959 V 0.50495911 h -1.755 v 0.3825 c -0.8775,-0.3825 -1.8225,-0.6075 -2.7675,-0.6075 -2.8125,0 -4.185,2.24999999 -4.185,5.28749999 0,2.9925 1.125,5.2874999 3.8475,5.2874999 1.1475,0 2.205,-0.5175 3.105,-1.2374999 v 2.3624999 c 0,1.5525 -0.855,3.015 -2.25,3.015 -1.1475,0 -2.295,-0.225 -3.375,-0.6075 v 0.6975 c 1.26,0.585 2.655,0.945 4.05,0.945 1.98,0 3.33,-1.935 3.33,-4.05 z m -1.755,-3.3074999 c -0.675,0.675 -1.5075,1.2375 -2.475,1.2375 -2.0475,0 -2.4975,-1.98 -2.4975,-4.3425 0,-2.115 0.6525,-4.3425 2.4975,-4.3425 0.855,0 1.71,0.225 2.475,0.6075 z"
         style="font-size:22.5px;line-height:1.25"
         id="path350" />
      <path
         d="M -19.593523,10.629959 V 3.3174591 c 0,-1.6425 -1.26,-3.03749999 -2.88,-3.03749999 -1.35,0 -2.5425,0.76499999 -3.51,1.70999999 v -7.11 h -1.755 V 10.629959 h 1.755 V 2.6874591 c 0.765,-0.765 1.71,-1.3725 2.7675,-1.3725 1.0575,0 1.8675,0.9225 1.8675,2.0025 v 7.3124999 z"
         style="font-size:22.5px;line-height:1.25"
         id="path352" />
      <path
         d="m -11.336061,9.8424591 v -0.675 c -0.36,0.36 -0.7875,0.6525 -1.305,0.6525 -0.81,0 -0.855,-1.0575 -0.855,-2.0025 v -6.3675 h 2.16 V 0.50495911 h -2.16 V -2.8700409 h -1.0575 c 0,1.8 -1.035,3.48750001 -2.6775,3.48750001 V 1.4499591 h 1.98 v 6.3675 c 0,1.485 0.4725,3.0374999 1.755,3.0374999 0.8325,0 1.5525,-0.45 2.16,-1.0124999 z"
         style="font-size:22.5px;line-height:1.25"
         id="path354" />
      <path
         d="m 0.58890724,13.217459 v -1.125 H -10.661093 v 1.125 z"
         style="font-size:22.5px;line-height:1.25"
         id="path356" />
      <path
         d="M 10.533865,10.629959 V -5.1200409 H 8.7788653 v 6.00750001 c -0.8775,-0.3825 -1.8225,-0.6075 -2.7675,-0.6075 -2.8125,0 -4.185,2.24999999 -4.185,5.28749999 0,2.9925 1.125,5.2874999 3.8475,5.2874999 1.1475,0 2.205,-0.5175 3.105,-1.2374999 V 10.629959 Z M 8.7788653,8.6724591 c -0.675,0.675 -1.5075,1.2375 -2.475,1.2375 -2.0475,0 -2.4975,-1.98 -2.4975,-4.3425 0,-2.115 0.6525,-4.3425 2.4975,-4.3425 0.855,0 1.71,0.225 2.475,0.6075 z"
         style="font-size:22.5px;line-height:1.25"
         id="path358" />
      <path
         d="M 22.053845,10.629959 V 4.3299591 c 0,-2.115 -1.305,-4.04999999 -3.2625,-4.04999999 -1.44,0 -2.79,0.495 -4.005,1.25999999 v 0.6975 c 1.0125,-0.5625 2.1375,-0.9225 3.3075,-0.9225 1.395,0 2.205,1.485 2.205,3.015 v 0.405 c -0.8775,-0.3825 -1.8225,-0.6075 -2.7675,-0.6075 -2.4075,0 -4.185,1.1025 -4.185,3.375 0,2.16 1.575,3.3524999 3.8475,3.3524999 1.1475,0 2.205,-0.5175 3.105,-1.2374999 v 1.0124999 z m -1.755,-1.9574999 c -0.675,0.675 -1.5075,1.2375 -2.475,1.2375 -1.5075,0 -2.4975,-0.9225 -2.4975,-2.4075 0,-1.3725 1.125,-2.43 2.4975,-2.43 0.855,0 1.71,0.225 2.475,0.6075 z"
         style="font-size:22.5px;line-height:1.25"
         id="path360" />
      <path
         d="m 30.423827,9.8424591 v -0.675 c -0.36,0.36 -0.7875,0.6525 -1.305,0.6525 -0.81,0 -0.855,-1.0575 -0.855,-2.0025 v -6.3675 h 2.16 V 0.50495911 h -2.16 V -2.8700409 h -1.0575 c 0,1.8 -1.035,3.48750001 -2.6775,3.48750001 V 1.4499591 h 1.98 v 6.3675 c 0,1.485 0.4725,3.0374999 1.755,3.0374999 0.8325,0 1.5525,-0.45 2.16,-1.0124999 z"
         style="font-size:22.5px;line-height:1.25"
         id="path362" />
      <path
         d="M 40.818799,10.629959 V 4.3299591 c 0,-2.115 -1.305,-4.04999999 -3.2625,-4.04999999 -1.44,0 -2.79,0.495 -4.005,1.25999999 v 0.6975 c 1.0125,-0.5625 2.1375,-0.9225 3.3075,-0.9225 1.395,0 2.205,1.485 2.205,3.015 v 0.405 c -0.8775,-0.3825 -1.8225,-0.6075 -2.7675,-0.6075 -2.4075,0 -4.185,1.1025 -4.185,3.375 0,2.16 1.575,3.3524999 3.8475,3.3524999 1.1475,0 2.205,-0.5175 3.105,-1.2374999 v 1.0124999 z m -1.755,-1.9574999 c -0.675,0.675 -1.5075,1.2375 -2.475,1.2375 -1.5075,0 -2.4975,-0.9225 -2.4975,-2.4075 0,-1.3725 1.125,-2.43 2.4975,-2.43 0.855,0 1.71,0.225 2.475,0.6075 z"
         style="font-size:22.5px;line-height:1.25"
         id="path364" />
      <path
         d="m 53.86878,13.217459 v -1.125 h -11.25 v 1.125 z"
         style="font-size:22.5px;line-height:1.25"
         id="path366" />
      <path
         d="m 59.786234,9.8424591 v -0.675 c -0.4275,0.36 -0.9225,0.6525 -1.485,0.6525 -0.8325,0 -0.99,-1.035 -0.99,-2.0025 V 0.50495911 h -1.755 V 7.8174591 c 0,1.5075 0.585,3.0374999 1.9125,3.0374999 0.855,0 1.665,-0.4275 2.3175,-1.0124999 z m -2.25,-12.8475 c 0,-0.6075 -0.495,-1.1025 -1.1025,-1.1025 -0.6075,0 -1.1025,0.495 -1.1025,1.1025 0,0.6075 0.495,1.1025 1.1025,1.1025 0.6075,0 1.1025,-0.495 1.1025,-1.1025 z"
         style="font-size:22.5px;line-height:1.25"
         id="path368" />
    </g>
    <path
       style="fill:none;stroke:#000000;stroke-width:2;stroke-linecap:butt;stroke-linejoin:miter;stroke-miterlimit:4;stroke-dasharray:none;stroke-opacity:1"
       d="m 70.866142,-67.322797 h 70.866148 l 3.54329,35.43307 42.51971,-2e-6 3.54331,-35.433071 h 159.44882"
       id="path4631" />
    <path
       id="path4633"
       d="m 70.866142,-31.889727 h 70.866148 l 3.54329,-35.43307 42.51971,-3e-6 3.54331,35.433071 h 159.44882"
       style="fill:none;stroke:#000000;stroke-width:2;stroke-linecap:butt;stroke-linejoin:miter;stroke-miterlimit:4;stroke-dasharray:none;stroke-opacity:1" />
    <g
       aria-label="L15..0"
       id="text4635"
       style="line-height:0%;font-family:Iwona;-inkscape-font-specification:Iwona;letter-spacing:0px;word-spacing:0px;stroke-width:1px">
      <path
         d="m 158.63313,-42.51965 v -0.805 h -5.565 v -11.445 h -1.435 v 12.25 z"
         style="font-size:17.5px;line-height:1.25"
         id="path371" />
      <path
         d="m 162.73686,-39.01965 v -7.84875 h -0.65975 c -0.62563,0.716625 -1.365,1.330875 -2.184,1.808625 v 0.47775 c 0.69387,-0.329875 1.34225,-0.716625 1.9565,-1.183 v 6.745375 z"
         style="font-size:65%;baseline-shift:sub"
         id="path373" />
      <path
         d="m 170.3581,-41.579025 c 0,-1.603875 -0.96687,-2.673125 -2.4115,-2.673125 -0.65975,0 -1.274,0.25025 -1.75175,0.671125 l 0.11375,-2.582125 h 3.822 v -0.70525 h -4.26562 l -0.17063,3.924375 0.47775,0.02275 c 0.43225,-0.534625 1.08063,-0.853125 1.7745,-0.853125 0.84175,0 1.4105,0.875875 1.4105,2.195375 0,1.3195 -0.56875,2.195375 -1.4105,2.195375 -0.87587,0 -1.729,-0.284375 -2.42287,-0.819 v 0.47775 c 0.69387,0.534625 1.547,0.819 2.42287,0.819 1.44463,0 2.4115,-1.06925 2.4115,-2.673125 z"
         style="font-size:65%;baseline-shift:sub"
         id="path375" />
      <path
         d="m 172.70135,-39.577025 c 0,-0.307125 -0.25025,-0.557375 -0.55738,-0.557375 -0.30712,0 -0.55737,0.25025 -0.55737,0.557375 0,0.307125 0.25025,0.557375 0.55737,0.557375 0.30713,0 0.55738,-0.25025 0.55738,-0.557375 z"
         style="font-size:65%;baseline-shift:sub"
         id="path377" />
      <path
         d="m 175.13558,-39.577025 c 0,-0.307125 -0.25025,-0.557375 -0.55737,-0.557375 -0.30713,0 -0.55738,0.25025 -0.55738,0.557375 0,0.307125 0.25025,0.557375 0.55738,0.557375 0.30712,0 0.55737,-0.25025 0.55737,-0.557375 z"
         style="font-size:65%;baseline-shift:sub"
         id="path379" />
      <path
         d="m 181.27807,-42.944025 c 0,-2.695875 -0.83037,-4.038125 -2.49112,-4.038125 -1.66075,0 -2.49113,1.34225 -2.49113,4.038125 0,2.695875 0.83038,4.038125 2.49113,4.038125 1.66075,0 2.49112,-1.34225 2.49112,-4.038125 z m -1.001,0 c 0,2.377375 -0.5005,3.560375 -1.49012,3.560375 -0.98963,0 -1.49013,-1.183 -1.49013,-3.560375 0,-2.377375 0.5005,-3.560375 1.49013,-3.560375 0.98962,0 1.49012,1.183 1.49012,3.560375 z"
         style="font-size:65%;baseline-shift:sub"
         id="path381" />
    </g>
    <path
       id="path4641"
       d="m 1073.6221,-32.04422 h -46.063 l -3.5433,-35.433071 -42.51975,0.154495 -3.54328,35.43307 H 793.70079"
       style="fill:none;stroke:#000000;stroke-width:2;stroke-linecap:butt;stroke-linejoin:miter;stroke-miterlimit:4;stroke-dasharray:none;stroke-opacity:1" />
    <path
       style="fill:none;stroke:#000000;stroke-width:2;stroke-linecap:butt;stroke-linejoin:miter;stroke-miterlimit:4;stroke-dasharray:none;stroke-opacity:1"
       d="m 1073.6221,-67.477291 h -46.063 l -3.5433,35.433071 -42.51975,0.154494 -3.54328,-35.43307 H 793.70079"
       id="path4643" />
    <path
       id="path4649"
       d="M 375.59056,-67.322797 H 768.89765"
       style="fill:none;fill-rule:evenodd;stroke:#000000;stroke-width:2;stroke-linecap:butt;stroke-linejoin:miter;stroke-miterlimit:4;stroke-dasharray:none;stroke-opacity:1" />
    <path
       style="fill:none;fill-rule:evenodd;stroke:#000000;stroke-width:2;stroke-linecap:butt;stroke-linejoin:miter;stroke-miterlimit:4;stroke-dasharray:none;stroke-opacity:1"
       d="M 375.59056,-31.889726 H 768.89765"
       id="path4651" />
    <path
       id="path3445"
       d="M 70.866142,287.00793 H 184.25199 l -3e-5,-35.43307 h 3.54333 v 35.43307 h 162.99213"
       style="fill:none;stroke:#000000;stroke-width:2;stroke-linecap:butt;stroke-linejoin:miter;stroke-miterlimit:4;stroke-dasharray:none;stroke-opacity:1" />
    <g
       aria-label="ready_o"
       id="text3447"
       style="line-height:0%;font-family:Iwona;-inkscape-font-specification:Iwona;text-align:end;letter-spacing:0px;word-spacing:0px;text-anchor:end">
      <path
         d="m -8.6136133,267.64799 v -1.395 c -0.2475,-0.09 -0.5175,-0.1575 -0.765,-0.1575 -1.2599997,0 -2.2724997,0.8775 -3.0824997,1.845 v -1.6875 h -1.755 v 10.125 h 1.755 v -7.4925 c 0.675,-0.7875 1.53,-1.4625 2.5649997,-1.4625 0.4275,0 0.8775,0.09 1.2825,0.225 z"
         style="font-size:22.5px;line-height:1.25"
         id="path384" />
      <path
         d="m 1.7813647,271.54049 v -0.225 c 0,-3.1725 -1.73249995,-5.2875 -4.3425,-5.2875 -2.6325,0 -4.365,2.115 -4.365,5.2875 0,3.1725 1.7325,5.2875 4.365,5.2875 1.125,0 2.22750005,-0.36 3.15000005,-1.0125 v -0.945 c -1.0575,0.675 -1.91250005,0.9225 -3.15000005,0.9225 -1.9125,0 -2.385,-1.8225 -2.385,-4.0275 z m -1.97999995,-0.945 H -4.9461353 c 0,-1.8 0.765,-3.6225 2.385,-3.6225 1.59750005,0 2.36250005,1.8225 2.36250005,3.6225 z"
         style="font-size:22.5px;line-height:1.25"
         id="path386" />
      <path
         d="m 12.626334,276.37799 v -6.3 c 0,-2.115 -1.305,-4.05 -3.2625001,-4.05 -1.44,0 -2.79,0.495 -4.005,1.26 v 0.6975 c 1.0125,-0.5625 2.1375,-0.9225 3.3075,-0.9225 1.3950001,0 2.2050001,1.485 2.2050001,3.015 v 0.405 c -0.8775001,-0.3825 -1.8225001,-0.6075 -2.7675001,-0.6075 -2.4075,0 -4.185,1.1025 -4.185,3.375 0,2.16 1.575,3.3525 3.8475,3.3525 1.1475,0 2.205,-0.5175 3.1050001,-1.2375 v 1.0125 z m -1.755,-1.9575 c -0.675,0.675 -1.5075001,1.2375 -2.4750001,1.2375 -1.5075,0 -2.4975,-0.9225 -2.4975,-2.4075 0,-1.3725 1.125,-2.43 2.4975,-2.43 0.855,0 1.7100001,0.225 2.4750001,0.6075 z"
         style="font-size:22.5px;line-height:1.25"
         id="path388" />
      <path
         d="m 24.371315,276.37799 v -15.75 h -1.755 v 6.0075 c -0.8775,-0.3825 -1.8225,-0.6075 -2.7675,-0.6075 -2.8125,0 -4.185,2.25 -4.185,5.2875 0,2.9925 1.125,5.2875 3.8475,5.2875 1.1475,0 2.205,-0.5175 3.105,-1.2375 v 1.0125 z m -1.755,-1.9575 c -0.675,0.675 -1.5075,1.2375 -2.475,1.2375 -2.0475,0 -2.4975,-1.98 -2.4975,-4.3425 0,-2.115 0.6525,-4.3425 2.4975,-4.3425 0.855,0 1.71,0.225 2.475,0.6075 z"
         style="font-size:22.5px;line-height:1.25"
         id="path390" />
      <path
         d="m 36.003803,277.72799 v -11.475 h -1.755 v 7.9425 c -0.765,0.765 -1.71,1.3725 -2.7675,1.3725 -1.0575,0 -1.8675,-0.9225 -1.8675,-2.0025 v -7.3125 h -1.755 v 7.3125 c 0,1.6425 1.26,3.0375 2.88,3.0375 1.35,0 2.5425,-0.765 3.51,-1.71 v 2.835 c 0,1.5075 -0.675,3.015 -2.025,3.015 -1.0575,0 -2.07,-0.225 -3.0375,-0.6075 v 0.6975 c 1.1475,0.585 2.43,0.945 3.735,0.945 1.9125,0 3.0825,-1.98 3.0825,-4.05 z"
         style="font-size:22.5px;line-height:1.25"
         id="path392" />
      <path
         d="m 49.053764,278.96549 v -1.125 h -11.25 v 1.125 z"
         style="font-size:22.5px;line-height:1.25"
         id="path394" />
      <path
         d="m 58.998719,271.31549 c 0,-3.4425 -1.53,-5.2875 -4.3425,-5.2875 -2.835,0 -4.365,1.845 -4.365,5.2875 0,3.4425 1.53,5.2875 4.365,5.2875 2.8125,0 4.3425,-1.845 4.3425,-5.2875 z m -1.98,0 c 0,2.8125 -0.8325,4.3425 -2.3625,4.3425 -1.5525,0 -2.385,-1.53 -2.385,-4.3425 0,-2.8125 0.8325,-4.3425 2.385,-4.3425 1.53,0 2.3625,1.53 2.3625,4.3425 z"
         style="font-size:22.5px;line-height:1.25"
         id="path396" />
    </g>
    <path
       style="fill:none;stroke:#000000;stroke-width:2;stroke-linecap:butt;stroke-linejoin:miter;stroke-miterlimit:4;stroke-dasharray:none;stroke-opacity:1"
       d="M 375.59057,287.00793 H 768.89766"
       id="path3451" />
    <path
       style="fill:none;stroke:#000000;stroke-width:2;stroke-linecap:butt;stroke-linejoin:miter;stroke-miterlimit:4;stroke-dasharray:none;stroke-opacity:1"
       d="m 793.70081,287.00793 h 226.77169 l -10e-5,-35.43307 h 3.5434 v 35.43307 h 49.6063"
       id="path3455" />
    <path
       id="path130"
       d="m 143.50395,3.5433294 1.77166,-17.7165354 h 42.51968 l 1.61196,17.6520564 -1.61196,17.7810146 h -42.51968 z"
       style="fill:#55ddff;fill-opacity:1;fill-rule:evenodd;stroke:none;stroke-width:1px;stroke-linecap:butt;stroke-linejoin:miter;stroke-opacity:1" />
    <path
       id="path132"
       d="m 70.866142,-14.173203 h 70.866148 l 3.54329,35.43307 42.51971,-2e-6 3.54331,-35.433071 h 159.44882"
       style="fill:none;stroke:#000000;stroke-width:2;stroke-linecap:butt;stroke-linejoin:miter;stroke-miterlimit:4;stroke-dasharray:none;stroke-opacity:1" />
    <path
       style="fill:none;stroke:#000000;stroke-width:2;stroke-linecap:butt;stroke-linejoin:miter;stroke-miterlimit:4;stroke-dasharray:none;stroke-opacity:1"
       d="m 70.866142,21.259867 h 70.866148 l 3.54329,-35.43307 42.51971,-3e-6 3.54331,35.433071 h 159.44882"
       id="path134" />
    <g
       aria-label="R15..0"
       id="text140"
       style="line-height:0%;font-family:Iwona;-inkscape-font-specification:Iwona;letter-spacing:0px;word-spacing:0px;stroke-width:1px">
      <path
         d="m 160.06813,10.629945 -3.7275,-5.5475002 c 1.9075,-0.3675 3.22,-1.4175 3.22,-3.3775 0,-2.4675 -2.1175,-3.5 -4.865,-3.5 -0.98,0 -1.96,0.0525 -2.9225,0.175 h -1.4 V 10.629945 h 1.435 V 4.9424448 c 0.945,0.175 1.925,0.28 2.8875,0.28 l 3.6575,5.4075002 z m -2.2225,-8.9250002 c 0,1.5925 -1.4875,2.7125 -3.15,2.7125 -0.9625,0 -1.9425,-0.105 -2.8875,-0.28 v -4.9525 c 0.9625,-0.1225 1.925,-0.175 2.8875,-0.175 1.6625,0 3.15,1.12 3.15,2.695 z"
         style="font-size:17.5px;line-height:1.25"
         id="path399" />
      <path
         d="M 163.99686,14.129945 V 6.2811948 h -0.65975 c -0.62562,0.716625 -1.365,1.330875 -2.184,1.808625 v 0.47775 c 0.69388,-0.329875 1.34225,-0.716625 1.9565,-1.183 v 6.7453752 z"
         style="font-size:65%;baseline-shift:sub"
         id="path401" />
      <path
         d="m 171.61811,11.57057 c 0,-1.6038752 -0.96688,-2.6731252 -2.4115,-2.6731252 -0.65975,0 -1.274,0.25025 -1.75175,0.671125 l 0.11375,-2.582125 h 3.822 v -0.70525 h -4.26563 l -0.17062,3.9243752 0.47775,0.02275 c 0.43225,-0.5346252 1.08062,-0.8531252 1.7745,-0.8531252 0.84175,0 1.4105,0.8758752 1.4105,2.1953752 0,1.3195 -0.56875,2.195375 -1.4105,2.195375 -0.87588,0 -1.729,-0.284375 -2.42288,-0.819 v 0.47775 c 0.69388,0.534625 1.547,0.819 2.42288,0.819 1.44462,0 2.4115,-1.06925 2.4115,-2.673125 z"
         style="font-size:65%;baseline-shift:sub"
         id="path403" />
      <path
         d="m 173.96136,13.57257 c 0,-0.307125 -0.25025,-0.557375 -0.55738,-0.557375 -0.30712,0 -0.55737,0.25025 -0.55737,0.557375 0,0.307125 0.25025,0.557375 0.55737,0.557375 0.30713,0 0.55738,-0.25025 0.55738,-0.557375 z"
         style="font-size:65%;baseline-shift:sub"
         id="path405" />
      <path
         d="m 176.39559,13.57257 c 0,-0.307125 -0.25025,-0.557375 -0.55737,-0.557375 -0.30713,0 -0.55738,0.25025 -0.55738,0.557375 0,0.307125 0.25025,0.557375 0.55738,0.557375 0.30712,0 0.55737,-0.25025 0.55737,-0.557375 z"
         style="font-size:65%;baseline-shift:sub"
         id="path407" />
      <path
         d="m 182.53808,10.20557 c 0,-2.6958752 -0.83038,-4.0381252 -2.49113,-4.0381252 -1.66075,0 -2.49112,1.34225 -2.49112,4.0381252 0,2.695875 0.83037,4.038125 2.49112,4.038125 1.66075,0 2.49113,-1.34225 2.49113,-4.038125 z m -1.001,0 c 0,2.377375 -0.5005,3.560375 -1.49013,3.560375 -0.98962,0 -1.49012,-1.183 -1.49012,-3.560375 0,-2.3773752 0.5005,-3.5603752 1.49012,-3.5603752 0.98963,0 1.49013,1.183 1.49013,3.5603752 z"
         style="font-size:65%;baseline-shift:sub"
         id="path409" />
    </g>
    <path
       style="fill:none;fill-rule:evenodd;stroke:#000000;stroke-width:2;stroke-linecap:butt;stroke-linejoin:miter;stroke-miterlimit:4;stroke-dasharray:none;stroke-opacity:1"
       d="M 375.59056,-14.173203 H 768.89765"
       id="path146" />
    <path
       id="path149"
       d="M 375.59056,21.259868 H 768.89765"
       style="fill:none;fill-rule:evenodd;stroke:#000000;stroke-width:2;stroke-linecap:butt;stroke-linejoin:miter;stroke-miterlimit:4;stroke-dasharray:none;stroke-opacity:1" />
    <path
       style="fill:none;stroke:#000000;stroke-width:2;stroke-linecap:butt;stroke-linejoin:miter;stroke-miterlimit:4;stroke-dasharray:none;stroke-opacity:1"
       d="M 70.866144,-85.193827 H 141.7323 l 3.54329,-35.433063 42.5197,-1e-5 3.54331,35.433073 h 159.44882"
       id="path947" />
    <g
       aria-label="valid_i"
       id="text951"
       style="line-height:0%;font-family:Iwona;-inkscape-font-specification:Iwona;text-align:end;letter-spacing:0px;word-spacing:0px;text-anchor:end">
      <path
         d="m 6.2813836,-102.40544 h -1.0125 l -3.06,8.414999 -2.96999997,-8.414999 H -2.4261164 l 3.555,10.124999 h 1.4625 z"
         style="font-size:22.5px;line-height:1.25"
         id="path412" />
      <path
         d="m 16.226374,-92.280441 v -6.3 c 0,-2.114999 -1.305,-4.049999 -3.2625,-4.049999 -1.44,0 -2.79,0.495 -4.0049996,1.26 v 0.6975 c 1.0125,-0.5625 2.1374996,-0.9225 3.3074996,-0.9225 1.395,0 2.205,1.485 2.205,3.014999 v 0.405 c -0.8775,-0.3825 -1.8225,-0.6075 -2.7675,-0.6075 -2.4074996,0 -4.1849996,1.1025 -4.1849996,3.375 0,2.16 1.575,3.3525 3.8474996,3.3525 1.1475,0 2.205,-0.5175 3.105,-1.2375 v 1.0125 z m -1.755,-1.9575 c -0.675,0.675 -1.5075,1.2375 -2.475,1.2375 -1.5075,0 -2.4974996,-0.9225 -2.4974996,-2.4075 0,-1.3725 1.1249996,-2.43 2.4974996,-2.43 0.855,0 1.71,0.225 2.475,0.6075 z"
         style="font-size:22.5px;line-height:1.25"
         id="path414" />
      <path
         d="m 24.056355,-93.067941 v -0.675 c -0.4275,0.36 -0.9225,0.6525 -1.485,0.6525 -0.8325,0 -0.99,-1.035 -0.99,-2.0025 v -12.937499 h -1.755 v 12.937499 c 0,1.5075 0.585,3.0375 1.9125,3.0375 0.855,0 1.665,-0.4275 2.3175,-1.0125 z"
         style="font-size:22.5px;line-height:1.25"
         id="path416" />
      <path
         d="m 30.423814,-93.067941 v -0.675 c -0.4275,0.36 -0.9225,0.6525 -1.485,0.6525 -0.8325,0 -0.99,-1.035 -0.99,-2.0025 v -7.312499 h -1.755 v 7.312499 c 0,1.5075 0.585,3.0375 1.9125,3.0375 0.855,0 1.665,-0.4275 2.3175,-1.0125 z m -2.25,-12.847499 c 0,-0.6075 -0.495,-1.1025 -1.1025,-1.1025 -0.6075,0 -1.1025,0.495 -1.1025,1.1025 0,0.6075 0.495,1.1025 1.1025,1.1025 0.6075,0 1.1025,-0.495 1.1025,-1.1025 z"
         style="font-size:22.5px;line-height:1.25"
         id="path418" />
      <path
         d="m 40.818794,-92.280441 v -15.749999 h -1.755 v 6.0075 c -0.8775,-0.3825 -1.8225,-0.6075 -2.7675,-0.6075 -2.8125,0 -4.185,2.25 -4.185,5.287499 0,2.9925 1.125,5.2875 3.8475,5.2875 1.1475,0 2.205,-0.5175 3.105,-1.2375 v 1.0125 z m -1.755,-1.9575 c -0.675,0.675 -1.5075,1.2375 -2.475,1.2375 -2.0475,0 -2.4975,-1.98 -2.4975,-4.3425 0,-2.115 0.6525,-4.342499 2.4975,-4.342499 0.855,0 1.71,0.225 2.475,0.6075 z"
         style="font-size:22.5px;line-height:1.25"
         id="path420" />
      <path
         d="m 53.868777,-89.692941 v -1.125 h -11.25 v 1.125 z"
         style="font-size:22.5px;line-height:1.25"
         id="path422" />
      <path
         d="m 59.786235,-93.067941 v -0.675 c -0.4275,0.36 -0.9225,0.6525 -1.485,0.6525 -0.8325,0 -0.99,-1.035 -0.99,-2.0025 v -7.312499 h -1.755 v 7.312499 c 0,1.5075 0.585,3.0375 1.9125,3.0375 0.855,0 1.665,-0.4275 2.3175,-1.0125 z m -2.25,-12.847499 c 0,-0.6075 -0.495,-1.1025 -1.1025,-1.1025 -0.6075,0 -1.1025,0.495 -1.1025,1.1025 0,0.6075 0.495,1.1025 1.1025,1.1025 0.6075,0 1.1025,-0.495 1.1025,-1.1025 z"
         style="font-size:22.5px;line-height:1.25"
         id="path424" />
    </g>
    <path
       style="fill:none;stroke:#000000;stroke-width:2;stroke-linecap:butt;stroke-linejoin:miter;stroke-miterlimit:4;stroke-dasharray:none;stroke-opacity:1"
       d="m 793.7008,-85.193827 h 184.25197 l 3.54329,-35.433063 42.51974,-1e-5 3.5433,35.433073 h 46.063"
       id="path953" />
    <path
       id="path955"
       d="m 1073.6221,20.950891 h -46.063 l -3.5433,-35.433071 -42.51975,0.154495 -3.54328,35.43307 H 793.70079"
       style="fill:none;stroke:#000000;stroke-width:2;stroke-linecap:butt;stroke-linejoin:miter;stroke-miterlimit:4;stroke-dasharray:none;stroke-opacity:1" />
    <path
       style="fill:none;stroke:#000000;stroke-width:2;stroke-linecap:butt;stroke-linejoin:miter;stroke-miterlimit:4;stroke-dasharray:none;stroke-opacity:1"
       d="m 1073.6221,-14.48218 h -46.063 l -3.5433,35.433071 -42.51975,0.154494 -3.54328,-35.43307 H 793.70079"
       id="path957" />
    <path
       id="path965"
       d="M 375.59056,-85.193827 H 768.89765"
       style="fill:none;fill-rule:evenodd;stroke:#000000;stroke-width:2;stroke-linecap:butt;stroke-linejoin:miter;stroke-miterlimit:4;stroke-dasharray:none;stroke-opacity:1" />
    <path
       style="fill:none;fill-rule:evenodd;stroke:#000000;stroke-width:1;stroke-linecap:butt;stroke-linejoin:miter;stroke-miterlimit:4;stroke-dasharray:1, 1;stroke-dashoffset:0;stroke-opacity:1"
       d="m 350.64081,-138.5605 c -3.39669,7.49391 -3.32479,11.18102 0.14661,18.12383 3.54331,7.08661 3.19375,28.171508 -0.0633,35.320076 0,0 -3.48005,10.707178 0.0633,17.793793 3.54331,7.086615 3.54331,28.346459 0,35.433074 -3.54331,7.086615 -4.09146,10.629918 0,17.716532 4.09146,7.0866147 3.54331,28.346457 0,35.433072 -3.54331,7.086615 -3.54331,10.62992 0,17.71653 3.54331,7.08661 3.54331,28.346461 0,35.43308 -3.54331,7.086619 -3.54331,10.629916 0,17.71653 3.54331,7.086614 3.54331,28.346463 0,35.433083 -3.54331,7.08662 -3.54331,10.62992 0,17.71654 3.54331,7.08662 3.54331,28.34646 0,35.43307 -3.54331,7.08661 -3.54331,10.62992 -0.0472,18.09039 3.49615,7.46048 3.05083,27.70178 -0.0994,34.65193 -3.39669,7.49391 -3.32479,11.18102 0.14661,18.12383 3.54331,7.08661 3.19375,28.17151 -0.12652,35.24282 -3.41678,7.27686 -3.41678,10.82017 0.12652,17.90678"
       id="path967" />
    <path
       style="fill:none;fill-rule:evenodd;stroke:#000000;stroke-width:1;stroke-linecap:butt;stroke-linejoin:miter;stroke-miterlimit:4;stroke-dasharray:1, 1;stroke-dashoffset:0;stroke-opacity:1"
       d="m 375.50726,-138.5605 c -3.39669,7.49391 -3.32479,11.18102 0.14661,18.12383 3.54331,7.08661 3.19375,28.171508 -0.0633,35.320076 0,0 -3.48005,10.707178 0.0633,17.793793 3.54331,7.086615 3.54331,28.346459 0,35.433074 -3.54331,7.086615 -4.09146,10.629918 0,17.716532 4.09146,7.0866147 3.54331,28.346457 0,35.433072 -3.54331,7.086615 -3.54331,10.62992 0,17.71653 3.54331,7.08661 3.54331,28.346461 0,35.43308 -3.54331,7.086619 -3.54331,10.629916 0,17.71653 3.54331,7.086614 3.54331,28.346463 0,35.433083 -3.54331,7.08662 -3.54331,10.62992 0,17.71654 3.54331,7.08662 3.54331,28.34646 0,35.43307 -3.54331,7.08661 -3.54331,10.62992 -0.0472,18.09039 3.49615,7.46048 3.05083,27.70178 -0.0994,34.65193 -3.39669,7.49391 -3.32479,11.18102 0.14661,18.12383 3.54331,7.08661 3.19375,28.17151 -0.12652,35.24282 -3.41678,7.27686 -3.41678,10.82017 0.12652,17.90678"
       id="path969" />
    <path
       style="fill:none;fill-rule:evenodd;stroke:#000000;stroke-width:1;stroke-linecap:butt;stroke-linejoin:miter;stroke-miterlimit:4;stroke-dasharray:1, 1;stroke-dashoffset:0;stroke-opacity:1"
       d="m 768.81435,-138.5605 c -3.39669,7.49391 -3.32479,11.18102 0.14661,18.12383 3.54331,7.08661 3.19375,28.171508 -0.0633,35.320076 0,0 -3.48005,10.707178 0.0633,17.793793 3.54331,7.086615 3.54331,28.346459 0,35.433074 -3.54331,7.086615 -4.09146,10.629918 0,17.716532 4.09146,7.0866147 3.54331,28.346457 0,35.433072 -3.54331,7.086615 -3.54331,10.62992 0,17.71653 3.54331,7.08661 3.54331,28.346461 0,35.43308 -3.54331,7.086619 -3.54331,10.629916 0,17.71653 3.54331,7.086614 3.54331,28.346463 0,35.433083 -3.54331,7.08662 -3.54331,10.62992 0,17.71654 3.54331,7.08662 3.54331,28.34646 0,35.43307 -3.54331,7.08661 -3.54331,10.62992 -0.0472,18.09039 3.49615,7.46048 3.05083,27.70178 -0.0994,34.65193 -3.39669,7.49391 -3.32479,11.18102 0.14661,18.12383 3.54331,7.08661 3.19375,28.17151 -0.12652,35.24282 -3.41678,7.27686 -3.41678,10.82017 0.12652,17.90678"
       id="path971" />
    <path
       style="fill:none;fill-rule:evenodd;stroke:#000000;stroke-width:1;stroke-linecap:butt;stroke-linejoin:miter;stroke-miterlimit:4;stroke-dasharray:1, 1;stroke-dashoffset:0;stroke-opacity:1"
       d="m 793.6808,-138.5605 c -3.39669,7.49391 -3.32479,11.18102 0.14661,18.12383 3.54331,7.08661 3.19375,28.171508 -0.0633,35.320076 0,0 -3.48005,10.707178 0.0633,17.793793 3.54331,7.086615 3.54331,28.346459 0,35.433074 -3.54331,7.086615 -4.09146,10.629918 0,17.716532 4.09146,7.0866147 3.54331,28.346457 0,35.433072 -3.54331,7.086615 -3.54331,10.62992 0,17.71653 3.54331,7.08661 3.54331,28.346461 0,35.43308 -3.54331,7.086619 -3.54331,10.629916 0,17.71653 3.54331,7.086614 3.54331,28.346463 0,35.433083 -3.54331,7.08662 -3.54331,10.62992 0,17.71654 3.54331,7.08662 3.54331,28.34646 0,35.43307 -3.54331,7.08661 -3.54331,10.62992 -0.0472,18.09039 3.49615,7.46048 3.05083,27.70178 -0.0994,34.65193 -3.39669,7.49391 -3.32479,11.18102 0.14661,18.12383 3.54331,7.08661 3.19375,28.17151 -0.12652,35.24282 -3.41678,7.27686 -3.41678,10.82017 0.12652,17.90678"
       id="path973" />
  </g>
</svg>
