<?xml version="1.0" encoding="UTF-8" standalone="no"?>
<!-- Created with Inkscape (http://www.inkscape.org/) -->

<svg
   width="100.61446mm"
   height="42.546806mm"
   viewBox="0 0 356.50795 150.7564"
   id="svg2"
   version="1.1"
   xmlns="http://www.w3.org/2000/svg"
   xmlns:svg="http://www.w3.org/2000/svg"
   xmlns:rdf="http://www.w3.org/1999/02/22-rdf-syntax-ns#"
   xmlns:cc="http://creativecommons.org/ns#"
   xmlns:dc="http://purl.org/dc/elements/1.1/">
  <defs
     id="defs4" />
  <metadata
     id="metadata7">
    <rdf:RDF>
      <cc:Work
         rdf:about="">
        <dc:format>image/svg+xml</dc:format>
        <dc:type
           rdf:resource="http://purl.org/dc/dcmitype/StillImage" />
        <dc:title />
      </cc:Work>
    </rdf:RDF>
  </metadata>
  <g
     id="layer1"
     transform="translate(8.8027951,-144.77558)">
    <g
       aria-label="ready_i"
       id="text3758"
       style="line-height:0%;font-family:Iwona;-inkscape-font-specification:Iwona;letter-spacing:0px;word-spacing:0px;stroke-width:1px">
      <path
         d="m 305.29362,243.18139 v -0.775 c -0.1375,-0.05 -0.2875,-0.0875 -0.425,-0.0875 -0.7,0 -1.2625,0.4875 -1.7125,1.025 v -0.9375 h -0.975 v 5.625 h 0.975 v -4.1625 c 0.375,-0.4375 0.85,-0.8125 1.425,-0.8125 0.2375,0 0.4875,0.05 0.7125,0.125 z"
         style="font-size:12.5px;line-height:1.25"
         id="path41" />
      <path
         d="m 311.06861,245.34389 v -0.125 c 0,-1.7625 -0.9625,-2.9375 -2.4125,-2.9375 -1.4625,0 -2.425,1.175 -2.425,2.9375 0,1.7625 0.9625,2.9375 2.425,2.9375 0.625,0 1.2375,-0.2 1.75,-0.5625 v -0.525 c -0.5875,0.375 -1.0625,0.5125 -1.75,0.5125 -1.0625,0 -1.325,-1.0125 -1.325,-2.2375 z m -1.1,-0.525 h -2.6375 c 0,-1 0.425,-2.0125 1.325,-2.0125 0.8875,0 1.3125,1.0125 1.3125,2.0125 z"
         style="font-size:12.5px;line-height:1.25"
         id="path43" />
      <path
         d="m 317.09359,248.03139 v -3.5 c 0,-1.175 -0.725,-2.25 -1.8125,-2.25 -0.8,0 -1.55,0.275 -2.225,0.7 v 0.3875 c 0.5625,-0.3125 1.1875,-0.5125 1.8375,-0.5125 0.775,0 1.225,0.825 1.225,1.675 v 0.225 c -0.4875,-0.2125 -1.0125,-0.3375 -1.5375,-0.3375 -1.3375,0 -2.325,0.6125 -2.325,1.875 0,1.2 0.875,1.8625 2.1375,1.8625 0.6375,0 1.225,-0.2875 1.725,-0.6875 v 0.5625 z m -0.975,-1.0875 c -0.375,0.375 -0.8375,0.6875 -1.375,0.6875 -0.8375,0 -1.3875,-0.5125 -1.3875,-1.3375 0,-0.7625 0.625,-1.35 1.3875,-1.35 0.475,0 0.95,0.125 1.375,0.3375 z"
         style="font-size:12.5px;line-height:1.25"
         id="path45" />
      <path
         d="m 323.61858,248.03139 v -8.75 h -0.975 v 3.3375 c -0.4875,-0.2125 -1.0125,-0.3375 -1.5375,-0.3375 -1.5625,0 -2.325,1.25 -2.325,2.9375 0,1.6625 0.625,2.9375 2.1375,2.9375 0.6375,0 1.225,-0.2875 1.725,-0.6875 v 0.5625 z m -0.975,-1.0875 c -0.375,0.375 -0.8375,0.6875 -1.375,0.6875 -1.1375,0 -1.3875,-1.1 -1.3875,-2.4125 0,-1.175 0.3625,-2.4125 1.3875,-2.4125 0.475,0 0.95,0.125 1.375,0.3375 z"
         style="font-size:12.5px;line-height:1.25"
         id="path47" />
      <path
         d="m 330.08107,248.78139 v -6.375 h -0.975 v 4.4125 c -0.425,0.425 -0.95,0.7625 -1.5375,0.7625 -0.5875,0 -1.0375,-0.5125 -1.0375,-1.1125 v -4.0625 h -0.975 v 4.0625 c 0,0.9125 0.7,1.6875 1.6,1.6875 0.75,0 1.4125,-0.425 1.95,-0.95 v 1.575 c 0,0.8375 -0.375,1.675 -1.125,1.675 -0.5875,0 -1.15,-0.125 -1.6875,-0.3375 v 0.3875 c 0.6375,0.325 1.35,0.525 2.075,0.525 1.0625,0 1.7125,-1.1 1.7125,-2.25 z"
         style="font-size:12.5px;line-height:1.25"
         id="path49" />
      <path
         d="m 337.33105,249.46889 v -0.625 h -6.25 v 0.625 z"
         style="font-size:12.5px;line-height:1.25"
         id="path51" />
      <path
         d="m 340.61853,247.59389 v -0.375 c -0.2375,0.2 -0.5125,0.3625 -0.825,0.3625 -0.4625,0 -0.55,-0.575 -0.55,-1.1125 v -4.0625 h -0.975 v 4.0625 c 0,0.8375 0.325,1.6875 1.0625,1.6875 0.475,0 0.925,-0.2375 1.2875,-0.5625 z m -1.25,-7.1375 c 0,-0.3375 -0.275,-0.6125 -0.6125,-0.6125 -0.3375,0 -0.6125,0.275 -0.6125,0.6125 0,0.3375 0.275,0.6125 0.6125,0.6125 0.3375,0 0.6125,-0.275 0.6125,-0.6125 z"
         style="font-size:12.5px;line-height:1.25"
         id="path53" />
    </g>
    <g
       aria-label="valid_o"
       id="text3762"
       style="line-height:0%;font-family:Iwona;-inkscape-font-specification:Iwona;letter-spacing:0px;word-spacing:0px;stroke-width:1px">
      <path
         d="m 306.14362,217.60326 h -0.5625 l -1.7,4.675 -1.65,-4.675 h -0.925 l 1.975,5.625 h 0.8125 z"
         style="font-size:12.5px;line-height:1.25"
         id="path56" />
      <path
         d="m 311.66862,223.22826 v -3.5 c 0,-1.175 -0.725,-2.25 -1.8125,-2.25 -0.8,0 -1.55,0.275 -2.225,0.7 v 0.3875 c 0.5625,-0.3125 1.1875,-0.5125 1.8375,-0.5125 0.775,0 1.225,0.825 1.225,1.675 v 0.225 c -0.4875,-0.2125 -1.0125,-0.3375 -1.5375,-0.3375 -1.3375,0 -2.325,0.6125 -2.325,1.875 0,1.2 0.875,1.8625 2.1375,1.8625 0.6375,0 1.225,-0.2875 1.725,-0.6875 v 0.5625 z m -0.975,-1.0875 c -0.375,0.375 -0.8375,0.6875 -1.375,0.6875 -0.8375,0 -1.3875,-0.5125 -1.3875,-1.3375 0,-0.7625 0.625,-1.35 1.3875,-1.35 0.475,0 0.95,0.125 1.375,0.3375 z"
         style="font-size:12.5px;line-height:1.25"
         id="path58" />
      <path
         d="m 316.01861,222.79076 v -0.375 c -0.2375,0.2 -0.5125,0.3625 -0.825,0.3625 -0.4625,0 -0.55,-0.575 -0.55,-1.1125 v -7.1875 h -0.975 v 7.1875 c 0,0.8375 0.325,1.6875 1.0625,1.6875 0.475,0 0.925,-0.2375 1.2875,-0.5625 z"
         style="font-size:12.5px;line-height:1.25"
         id="path60" />
      <path
         d="m 319.55608,222.79076 v -0.375 c -0.2375,0.2 -0.5125,0.3625 -0.825,0.3625 -0.4625,0 -0.55,-0.575 -0.55,-1.1125 v -4.0625 h -0.975 v 4.0625 c 0,0.8375 0.325,1.6875 1.0625,1.6875 0.475,0 0.925,-0.2375 1.2875,-0.5625 z m -1.25,-7.1375 c 0,-0.3375 -0.275,-0.6125 -0.6125,-0.6125 -0.3375,0 -0.6125,0.275 -0.6125,0.6125 0,0.3375 0.275,0.6125 0.6125,0.6125 0.3375,0 0.6125,-0.275 0.6125,-0.6125 z"
         style="font-size:12.5px;line-height:1.25"
         id="path62" />
      <path
         d="m 325.33107,223.22826 v -8.75 h -0.975 v 3.3375 c -0.4875,-0.2125 -1.0125,-0.3375 -1.5375,-0.3375 -1.5625,0 -2.325,1.25 -2.325,2.9375 0,1.6625 0.625,2.9375 2.1375,2.9375 0.6375,0 1.225,-0.2875 1.725,-0.6875 v 0.5625 z m -0.975,-1.0875 c -0.375,0.375 -0.8375,0.6875 -1.375,0.6875 -1.1375,0 -1.3875,-1.1 -1.3875,-2.4125 0,-1.175 0.3625,-2.4125 1.3875,-2.4125 0.475,0 0.95,0.125 1.375,0.3375 z"
         style="font-size:12.5px;line-height:1.25"
         id="path64" />
      <path
         d="m 332.58106,224.66576 v -0.625 h -6.25 v 0.625 z"
         style="font-size:12.5px;line-height:1.25"
         id="path66" />
      <path
         d="m 338.10604,220.41576 c 0,-1.9125 -0.85,-2.9375 -2.4125,-2.9375 -1.575,0 -2.425,1.025 -2.425,2.9375 0,1.9125 0.85,2.9375 2.425,2.9375 1.5625,0 2.4125,-1.025 2.4125,-2.9375 z m -1.1,0 c 0,1.5625 -0.4625,2.4125 -1.3125,2.4125 -0.8625,0 -1.325,-0.85 -1.325,-2.4125 0,-1.5625 0.4625,-2.4125 1.325,-2.4125 0.85,0 1.3125,0.85 1.3125,2.4125 z"
         style="font-size:12.5px;line-height:1.25"
         id="path68" />
    </g>
    <path
       id="rect4180"
       style="opacity:1;fill:#afdde9;stroke:#000000;stroke-linecap:round;stroke-linejoin:bevel"
       d="M 95.669289,152.3622 H 283.46456 V 265.74801 H 95.669289 Z" />
    <path
       style="fill:#afdde9;fill-opacity:1;stroke:#000000;stroke-width:1px;stroke-linecap:butt;stroke-linejoin:miter;stroke-opacity:1"
       d="m 290.55118,237.40149 h -10.62992 l -7.08661,7.0866 7.08661,7.08661 h 10.62992 z"
       id="path4182" />
    <path
       id="path4184"
       d="m 276.37795,212.59833 h 10.62992 l 7.08661,7.0866 -7.08661,7.08661 h -10.62992 z"
       style="fill:#afdde9;fill-opacity:1;stroke:#000000;stroke-width:1px;stroke-linecap:butt;stroke-linejoin:miter;stroke-opacity:1" />
    <path
       style="fill:#afdde9;fill-opacity:1;stroke:#000000;stroke-width:1px;stroke-linecap:butt;stroke-linejoin:miter;stroke-opacity:1"
       d="m 162.99212,272.83463 v -10.62992 l 7.0866,-7.08661 7.08661,7.08661 v 10.62992 z"
       id="path4186" />
    <g
       aria-label="MicrophoneReceiver"
       id="text4290"
       style="line-height:0%;font-family:Iwona;-inkscape-font-specification:Iwona;text-align:center;letter-spacing:0px;word-spacing:0px;text-anchor:middle;stroke-width:1px">
      <path
         d="m 146.06461,173.62204 -0.5,-8.75 h -0.825 l -3.5125,7.3875 -3.525,-7.3875 h -0.825 l -0.5,8.75 h 0.575 l 0.4,-7.0875 3.3875,7.0875 h 0.4625 l 3.425,-7.175 0.4125,7.175 z"
         style="font-size:12.5px;line-height:1.25"
         id="path72" />
      <path
         d="m 150.10209,173.18454 v -0.375 c -0.2375,0.2 -0.5125,0.3625 -0.825,0.3625 -0.4625,0 -0.55,-0.575 -0.55,-1.1125 v -4.0625 h -0.975 v 4.0625 c 0,0.8375 0.325,1.6875 1.0625,1.6875 0.475,0 0.925,-0.2375 1.2875,-0.5625 z m -1.25,-7.1375 c 0,-0.3375 -0.275,-0.6125 -0.6125,-0.6125 -0.3375,0 -0.6125,0.275 -0.6125,0.6125 0,0.3375 0.275,0.6125 0.6125,0.6125 0.3375,0 0.6125,-0.275 0.6125,-0.6125 z"
         style="font-size:12.5px;line-height:1.25"
         id="path74" />
      <path
         d="m 155.40208,169.29704 v -0.525 c -0.4,-0.5625 -1.05,-0.9 -1.75,-0.9 -1.5625,0 -2.6125,1.175 -2.6125,2.9375 0,1.7625 1.05,2.9375 2.6125,2.9375 0.65,0 1.2625,-0.325 1.625,-0.8625 v -0.525 c -0.425,0.6375 -0.8625,0.8625 -1.625,0.8625 -0.9,0 -1.5125,-0.9625 -1.5125,-2.4125 0,-1.45 0.6125,-2.4125 1.5125,-2.4125 0.775,0 1.3,0.275 1.75,0.9 z"
         style="font-size:12.5px;line-height:1.25"
         id="path76" />
      <path
         d="m 159.82707,168.77204 v -0.775 c -0.1375,-0.05 -0.2875,-0.0875 -0.425,-0.0875 -0.7,0 -1.2625,0.4875 -1.7125,1.025 v -0.9375 h -0.975 v 5.625 h 0.975 v -4.1625 c 0.375,-0.4375 0.85,-0.8125 1.425,-0.8125 0.2375,0 0.4875,0.05 0.7125,0.125 z"
         style="font-size:12.5px;line-height:1.25"
         id="path78" />
      <path
         d="m 165.60205,170.80954 c 0,-1.9125 -0.85,-2.9375 -2.4125,-2.9375 -1.575,0 -2.425,1.025 -2.425,2.9375 0,1.9125 0.85,2.9375 2.425,2.9375 1.5625,0 2.4125,-1.025 2.4125,-2.9375 z m -1.1,0 c 0,1.5625 -0.4625,2.4125 -1.3125,2.4125 -0.8625,0 -1.325,-0.85 -1.325,-2.4125 0,-1.5625 0.4625,-2.4125 1.325,-2.4125 0.85,0 1.3125,0.85 1.3125,2.4125 z"
         style="font-size:12.5px;line-height:1.25"
         id="path80" />
      <path
         d="m 172.06455,170.80954 c 0,-1.6625 -0.625,-2.9375 -2.1375,-2.9375 -0.6375,0 -1.225,0.2875 -1.725,0.6875 v -0.5625 h -0.975 v 8.5 h 0.975 v -3.0875 c 0.4875,0.2125 1.0125,0.3375 1.5375,0.3375 1.5625,0 2.325,-1.25 2.325,-2.9375 z m -1.1,0 c 0,1.175 -0.3625,2.4125 -1.3875,2.4125 -0.475,0 -0.95,-0.125 -1.375,-0.3375 v -3.8 c 0.375,-0.375 0.8375,-0.6875 1.375,-0.6875 1.1375,0 1.3875,1.1 1.3875,2.4125 z"
         style="font-size:12.5px;line-height:1.25"
         id="path82" />
      <path
         d="m 178.27703,173.62204 v -4.0625 c 0,-0.9125 -0.7,-1.6875 -1.6,-1.6875 -0.75,0 -1.4125,0.425 -1.95,0.95 v -3.95 h -0.975 v 8.75 h 0.975 v -4.4125 c 0.425,-0.425 0.95,-0.7625 1.5375,-0.7625 0.5875,0 1.0375,0.5125 1.0375,1.1125 v 4.0625 z"
         style="font-size:12.5px;line-height:1.25"
         id="path84" />
      <path
         d="m 184.73951,170.80954 c 0,-1.9125 -0.85,-2.9375 -2.4125,-2.9375 -1.575,0 -2.425,1.025 -2.425,2.9375 0,1.9125 0.85,2.9375 2.425,2.9375 1.5625,0 2.4125,-1.025 2.4125,-2.9375 z m -1.1,0 c 0,1.5625 -0.4625,2.4125 -1.3125,2.4125 -0.8625,0 -1.325,-0.85 -1.325,-2.4125 0,-1.5625 0.4625,-2.4125 1.325,-2.4125 0.85,0 1.3125,0.85 1.3125,2.4125 z"
         style="font-size:12.5px;line-height:1.25"
         id="path86" />
      <path
         d="m 190.95201,173.62204 v -4.0625 c 0,-0.9125 -0.7,-1.6875 -1.6,-1.6875 -0.75,0 -1.4125,0.425 -1.95,0.95 v -0.825 h -0.975 v 5.625 h 0.975 v -4.4125 c 0.425,-0.425 0.95,-0.7625 1.5375,-0.7625 0.5875,0 1.0375,0.5125 1.0375,1.1125 v 4.0625 z"
         style="font-size:12.5px;line-height:1.25"
         id="path88" />
      <path
         d="m 197.41449,170.93454 v -0.125 c 0,-1.7625 -0.9625,-2.9375 -2.4125,-2.9375 -1.4625,0 -2.425,1.175 -2.425,2.9375 0,1.7625 0.9625,2.9375 2.425,2.9375 0.625,0 1.2375,-0.2 1.75,-0.5625 v -0.525 c -0.5875,0.375 -1.0625,0.5125 -1.75,0.5125 -1.0625,0 -1.325,-1.0125 -1.325,-2.2375 z m -1.1,-0.525 h -2.6375 c 0,-1 0.425,-2.0125 1.325,-2.0125 0.8875,0 1.3125,1.0125 1.3125,2.0125 z"
         style="font-size:12.5px;line-height:1.25"
         id="path90" />
      <path
         d="m 206.08947,173.62204 -2.6625,-3.9625 c 1.3625,-0.2625 2.3,-1.0125 2.3,-2.4125 0,-1.7625 -1.5125,-2.5 -3.475,-2.5 -0.7,0 -1.4,0.0375 -2.0875,0.125 h -1 v 8.75 h 1.025 v -4.0625 c 0.675,0.125 1.375,0.2 2.0625,0.2 l 2.6125,3.8625 z m -1.5875,-6.375 c 0,1.1375 -1.0625,1.9375 -2.25,1.9375 -0.6875,0 -1.3875,-0.075 -2.0625,-0.2 v -3.5375 c 0.6875,-0.0875 1.375,-0.125 2.0625,-0.125 1.1875,0 2.25,0.8 2.25,1.925 z"
         style="font-size:12.5px;line-height:1.25"
         id="path92" />
      <path
         d="m 211.73946,170.93454 v -0.125 c 0,-1.7625 -0.9625,-2.9375 -2.4125,-2.9375 -1.4625,0 -2.425,1.175 -2.425,2.9375 0,1.7625 0.9625,2.9375 2.425,2.9375 0.625,0 1.2375,-0.2 1.75,-0.5625 v -0.525 c -0.5875,0.375 -1.0625,0.5125 -1.75,0.5125 -1.0625,0 -1.325,-1.0125 -1.325,-2.2375 z m -1.1,-0.525 h -2.6375 c 0,-1 0.425,-2.0125 1.325,-2.0125 0.8875,0 1.3125,1.0125 1.3125,2.0125 z"
         style="font-size:12.5px;line-height:1.25"
         id="path94" />
      <path
         d="m 217.41445,169.29704 v -0.525 c -0.4,-0.5625 -1.05,-0.9 -1.75,-0.9 -1.5625,0 -2.6125,1.175 -2.6125,2.9375 0,1.7625 1.05,2.9375 2.6125,2.9375 0.65,0 1.2625,-0.325 1.625,-0.8625 v -0.525 c -0.425,0.6375 -0.8625,0.8625 -1.625,0.8625 -0.9,0 -1.5125,-0.9625 -1.5125,-2.4125 0,-1.45 0.6125,-2.4125 1.5125,-2.4125 0.775,0 1.3,0.275 1.75,0.9 z"
         style="font-size:12.5px;line-height:1.25"
         id="path96" />
      <path
         d="m 223.25193,170.93454 v -0.125 c 0,-1.7625 -0.9625,-2.9375 -2.4125,-2.9375 -1.4625,0 -2.425,1.175 -2.425,2.9375 0,1.7625 0.9625,2.9375 2.425,2.9375 0.625,0 1.2375,-0.2 1.75,-0.5625 v -0.525 c -0.5875,0.375 -1.0625,0.5125 -1.75,0.5125 -1.0625,0 -1.325,-1.0125 -1.325,-2.2375 z m -1.1,-0.525 h -2.6375 c 0,-1 0.425,-2.0125 1.325,-2.0125 0.8875,0 1.3125,1.0125 1.3125,2.0125 z"
         style="font-size:12.5px;line-height:1.25"
         id="path98" />
      <path
         d="m 227.16441,173.18454 v -0.375 c -0.2375,0.2 -0.5125,0.3625 -0.825,0.3625 -0.4625,0 -0.55,-0.575 -0.55,-1.1125 v -4.0625 h -0.975 v 4.0625 c 0,0.8375 0.325,1.6875 1.0625,1.6875 0.475,0 0.925,-0.2375 1.2875,-0.5625 z m -1.25,-7.1375 c 0,-0.3375 -0.275,-0.6125 -0.6125,-0.6125 -0.3375,0 -0.6125,0.275 -0.6125,0.6125 0,0.3375 0.275,0.6125 0.6125,0.6125 0.3375,0 0.6125,-0.275 0.6125,-0.6125 z"
         style="font-size:12.5px;line-height:1.25"
         id="path100" />
      <path
         d="m 232.3769,167.99704 h -0.5625 l -1.7,4.675 -1.65,-4.675 h -0.925 l 1.975,5.625 h 0.8125 z"
         style="font-size:12.5px;line-height:1.25"
         id="path102" />
      <path
         d="m 238.0269,170.93454 v -0.125 c 0,-1.7625 -0.9625,-2.9375 -2.4125,-2.9375 -1.4625,0 -2.425,1.175 -2.425,2.9375 0,1.7625 0.9625,2.9375 2.425,2.9375 0.625,0 1.2375,-0.2 1.75,-0.5625 v -0.525 c -0.5875,0.375 -1.0625,0.5125 -1.75,0.5125 -1.0625,0 -1.325,-1.0125 -1.325,-2.2375 z m -1.1,-0.525 h -2.6375 c 0,-1 0.425,-2.0125 1.325,-2.0125 0.8875,0 1.3125,1.0125 1.3125,2.0125 z"
         style="font-size:12.5px;line-height:1.25"
         id="path104" />
      <path
         d="m 242.76438,168.77204 v -0.775 c -0.1375,-0.05 -0.2875,-0.0875 -0.425,-0.0875 -0.7,0 -1.2625,0.4875 -1.7125,1.025 v -0.9375 h -0.975 v 5.625 h 0.975 v -4.1625 c 0.375,-0.4375 0.85,-0.8125 1.425,-0.8125 0.2375,0 0.4875,0.05 0.7125,0.125 z"
         style="font-size:12.5px;line-height:1.25"
         id="path106" />
    </g>
    <path
       id="path4294"
       d="M 102.75591,187.79525 H 92.125972 l -7.086612,7.0866 7.086612,7.08662 h 10.629938 z"
       style="fill:#afdde9;fill-opacity:1;stroke:#000000;stroke-width:1px;stroke-linecap:butt;stroke-linejoin:miter;stroke-opacity:1" />
    <path
       id="path4298"
       d="m 201.9685,272.83463 v -10.62992 l 7.0866,-7.08661 7.08661,7.08661 v 10.62992 z"
       style="fill:#afdde9;fill-opacity:1;stroke:#000000;stroke-width:1px;stroke-linecap:butt;stroke-linejoin:miter;stroke-opacity:1" />
    <g
       aria-label="data_o"
       id="text4433"
       style="line-height:0%;font-family:Iwona;-inkscape-font-specification:Iwona;letter-spacing:0px;word-spacing:0px;stroke-width:1px">
      <path
         d="m 306.70612,198.42513 v -8.75 h -0.975 v 3.3375 c -0.4875,-0.2125 -1.0125,-0.3375 -1.5375,-0.3375 -1.5625,0 -2.325,1.25 -2.325,2.9375 0,1.6625 0.625,2.9375 2.1375,2.9375 0.6375,0 1.225,-0.2875 1.725,-0.6875 v 0.5625 z m -0.975,-1.0875 c -0.375,0.375 -0.8375,0.6875 -1.375,0.6875 -1.1375,0 -1.3875,-1.1 -1.3875,-2.4125 0,-1.175 0.3625,-2.4125 1.3875,-2.4125 0.475,0 0.95,0.125 1.375,0.3375 z"
         style="font-size:12.5px;line-height:1.25"
         id="path109" />
      <path
         d="m 313.10611,198.42513 v -3.5 c 0,-1.175 -0.725,-2.25 -1.8125,-2.25 -0.8,0 -1.55,0.275 -2.225,0.7 v 0.3875 c 0.5625,-0.3125 1.1875,-0.5125 1.8375,-0.5125 0.775,0 1.225,0.825 1.225,1.675 v 0.225 c -0.4875,-0.2125 -1.0125,-0.3375 -1.5375,-0.3375 -1.3375,0 -2.325,0.6125 -2.325,1.875 0,1.2 0.875,1.8625 2.1375,1.8625 0.6375,0 1.225,-0.2875 1.725,-0.6875 v 0.5625 z m -0.975,-1.0875 c -0.375,0.375 -0.8375,0.6875 -1.375,0.6875 -0.8375,0 -1.3875,-0.5125 -1.3875,-1.3375 0,-0.7625 0.625,-1.35 1.3875,-1.35 0.475,0 0.95,0.125 1.375,0.3375 z"
         style="font-size:12.5px;line-height:1.25"
         id="path111" />
      <path
         d="m 317.7561,197.98763 v -0.375 c -0.2,0.2 -0.4375,0.3625 -0.725,0.3625 -0.45,0 -0.475,-0.5875 -0.475,-1.1125 v -3.5375 h 1.2 v -0.525 h -1.2 v -1.875 h -0.5875 c 0,1 -0.575,1.9375 -1.4875,1.9375 v 0.4625 h 1.1 v 3.5375 c 0,0.825 0.2625,1.6875 0.975,1.6875 0.4625,0 0.8625,-0.25 1.2,-0.5625 z"
         style="font-size:12.5px;line-height:1.25"
         id="path113" />
      <path
         d="m 323.53108,198.42513 v -3.5 c 0,-1.175 -0.725,-2.25 -1.8125,-2.25 -0.8,0 -1.55,0.275 -2.225,0.7 v 0.3875 c 0.5625,-0.3125 1.1875,-0.5125 1.8375,-0.5125 0.775,0 1.225,0.825 1.225,1.675 v 0.225 c -0.4875,-0.2125 -1.0125,-0.3375 -1.5375,-0.3375 -1.3375,0 -2.325,0.6125 -2.325,1.875 0,1.2 0.875,1.8625 2.1375,1.8625 0.6375,0 1.225,-0.2875 1.725,-0.6875 v 0.5625 z m -0.975,-1.0875 c -0.375,0.375 -0.8375,0.6875 -1.375,0.6875 -0.8375,0 -1.3875,-0.5125 -1.3875,-1.3375 0,-0.7625 0.625,-1.35 1.3875,-1.35 0.475,0 0.95,0.125 1.375,0.3375 z"
         style="font-size:12.5px;line-height:1.25"
         id="path115" />
      <path
         d="m 330.78107,199.86263 v -0.625 h -6.25 v 0.625 z"
         style="font-size:12.5px;line-height:1.25"
         id="path117" />
      <path
         d="m 336.30605,195.61263 c 0,-1.9125 -0.85,-2.9375 -2.4125,-2.9375 -1.575,0 -2.425,1.025 -2.425,2.9375 0,1.9125 0.85,2.9375 2.425,2.9375 1.5625,0 2.4125,-1.025 2.4125,-2.9375 z m -1.1,0 c 0,1.5625 -0.4625,2.4125 -1.3125,2.4125 -0.8625,0 -1.325,-0.85 -1.325,-2.4125 0,-1.5625 0.4625,-2.4125 1.325,-2.4125 0.85,0 1.3125,0.85 1.3125,2.4125 z"
         style="font-size:12.5px;line-height:1.25"
         id="path119" />
    </g>
    <path
       id="path4437"
       d="m 276.37795,187.79521 h 10.62992 l 7.08661,7.08661 -7.08661,7.08661 h -10.62992 z"
       style="fill:#afdde9;fill-opacity:1;stroke:#000000;stroke-width:1px;stroke-linecap:butt;stroke-linejoin:miter;stroke-opacity:1" />
    <path
       style="fill:#afdde9;fill-opacity:1;stroke:#000000;stroke-width:1px;stroke-linecap:butt;stroke-linejoin:miter;stroke-opacity:1"
       d="m 88.582678,237.40156 h 10.62992 l 7.086612,7.0866 -7.086612,7.08662 h -10.62992 z"
       id="path4445" />
    <g
       aria-label="clk_i"
       id="text4449"
       style="line-height:0%;font-family:Iwona;-inkscape-font-specification:Iwona;text-align:center;letter-spacing:0px;word-spacing:0px;text-anchor:middle;stroke-width:1px">
      <path
         d="m 162.77253,282.68287 v -0.525 c -0.4,-0.5625 -1.05,-0.9 -1.75,-0.9 -1.5625,0 -2.6125,1.175 -2.6125,2.9375 0,1.7625 1.05,2.9375 2.6125,2.9375 0.65,0 1.2625,-0.325 1.625,-0.8625 v -0.525 c -0.425,0.6375 -0.8625,0.8625 -1.625,0.8625 -0.9,0 -1.5125,-0.9625 -1.5125,-2.4125 0,-1.45 0.6125,-2.4125 1.5125,-2.4125 0.775,0 1.3,0.275 1.75,0.9 z"
         style="font-size:12.5px;line-height:1.25"
         id="path122" />
      <path
         d="m 166.43501,286.57037 v -0.375 c -0.2375,0.2 -0.5125,0.3625 -0.825,0.3625 -0.4625,0 -0.55,-0.575 -0.55,-1.1125 v -7.1875 h -0.975 v 7.1875 c 0,0.8375 0.325,1.6875 1.0625,1.6875 0.475,0 0.925,-0.2375 1.2875,-0.5625 z"
         style="font-size:12.5px;line-height:1.25"
         id="path124" />
      <path
         d="m 172.52249,287.00787 -2.9,-3.3375 2.8,-2.2875 h -0.775 l -2.9875,2.45 v -5.575 h -0.975 v 8.75 h 0.975 v -3.1125 l 2.7,3.1125 z"
         style="font-size:12.5px;line-height:1.25"
         id="path126" />
      <path
         d="m 178.89748,288.44537 v -0.625 h -6.25 v 0.625 z"
         style="font-size:12.5px;line-height:1.25"
         id="path128" />
      <path
         d="m 182.18496,286.57037 v -0.375 c -0.2375,0.2 -0.5125,0.3625 -0.825,0.3625 -0.4625,0 -0.55,-0.575 -0.55,-1.1125 v -4.0625 h -0.975 v 4.0625 c 0,0.8375 0.325,1.6875 1.0625,1.6875 0.475,0 0.925,-0.2375 1.2875,-0.5625 z m -1.25,-7.1375 c 0,-0.3375 -0.275,-0.6125 -0.6125,-0.6125 -0.3375,0 -0.6125,0.275 -0.6125,0.6125 0,0.3375 0.275,0.6125 0.6125,0.6125 0.3375,0 0.6125,-0.275 0.6125,-0.6125 z"
         style="font-size:12.5px;line-height:1.25"
         id="path130" />
    </g>
    <g
       aria-label="reset_i"
       id="text4453"
       style="line-height:0%;font-family:Iwona;-inkscape-font-specification:Iwona;text-align:center;letter-spacing:0px;word-spacing:0px;text-anchor:middle;stroke-width:1px">
      <path
         d="m 195.24892,282.15787 v -0.775 c -0.1375,-0.05 -0.2875,-0.0875 -0.425,-0.0875 -0.7,0 -1.2625,0.4875 -1.7125,1.025 v -0.9375 h -0.975 v 5.625 h 0.975 v -4.1625 c 0.375,-0.4375 0.85,-0.8125 1.425,-0.8125 0.2375,0 0.4875,0.05 0.7125,0.125 z"
         style="font-size:12.5px;line-height:1.25"
         id="path133" />
      <path
         d="m 201.02391,284.32037 v -0.125 c 0,-1.7625 -0.9625,-2.9375 -2.4125,-2.9375 -1.4625,0 -2.425,1.175 -2.425,2.9375 0,1.7625 0.9625,2.9375 2.425,2.9375 0.625,0 1.2375,-0.2 1.75,-0.5625 v -0.525 c -0.5875,0.375 -1.0625,0.5125 -1.75,0.5125 -1.0625,0 -1.325,-1.0125 -1.325,-2.2375 z m -1.1,-0.525 h -2.6375 c 0,-1 0.425,-2.0125 1.325,-2.0125 0.8875,0 1.3125,1.0125 1.3125,2.0125 z"
         style="font-size:12.5px;line-height:1.25"
         id="path135" />
      <path
         d="m 206.44889,285.40787 c 0,-0.9875 -1.05,-1.5 -2.075,-1.75 -0.6,-0.15 -1.25,-0.4 -1.25,-0.9875 0,-0.5375 0.55,-0.8875 1.15,-0.8875 0.6625,0 1.325,0.2 1.875,0.5625 v -0.525 c -0.55,-0.3625 -1.2125,-0.5625 -1.875,-0.5625 -1.0875,0 -2.0875,0.6625 -2.0875,1.675 0,0.9125 1.0125,1.3375 1.975,1.575 0.6625,0.1625 1.35,0.5125 1.35,1.15 0,0.5875 -0.6,0.95 -1.2375,0.95 -0.775,0 -1.525,-0.1875 -2.1875,-0.5625 v 0.525 c 0.6625,0.375 1.4125,0.5625 2.1875,0.5625 1.125,0 2.175,-0.675 2.175,-1.725 z"
         style="font-size:12.5px;line-height:1.25"
         id="path137" />
      <path
         d="m 212.53638,284.32037 v -0.125 c 0,-1.7625 -0.9625,-2.9375 -2.4125,-2.9375 -1.4625,0 -2.425,1.175 -2.425,2.9375 0,1.7625 0.9625,2.9375 2.425,2.9375 0.625,0 1.2375,-0.2 1.75,-0.5625 v -0.525 c -0.5875,0.375 -1.0625,0.5125 -1.75,0.5125 -1.0625,0 -1.325,-1.0125 -1.325,-2.2375 z m -1.1,-0.525 h -2.6375 c 0,-1 0.425,-2.0125 1.325,-2.0125 0.8875,0 1.3125,1.0125 1.3125,2.0125 z"
         style="font-size:12.5px;line-height:1.25"
         id="path139" />
      <path
         d="m 216.81136,286.57037 v -0.375 c -0.2,0.2 -0.4375,0.3625 -0.725,0.3625 -0.45,0 -0.475,-0.5875 -0.475,-1.1125 v -3.5375 h 1.2 v -0.525 h -1.2 v -1.875 h -0.5875 c 0,1 -0.575,1.9375 -1.4875,1.9375 v 0.4625 h 1.1 v 3.5375 c 0,0.825 0.2625,1.6875 0.975,1.6875 0.4625,0 0.8625,-0.25 1.2,-0.5625 z"
         style="font-size:12.5px;line-height:1.25"
         id="path141" />
      <path
         d="m 223.43634,288.44537 v -0.625 h -6.25 v 0.625 z"
         style="font-size:12.5px;line-height:1.25"
         id="path143" />
      <path
         d="m 226.72382,286.57037 v -0.375 c -0.2375,0.2 -0.5125,0.3625 -0.825,0.3625 -0.4625,0 -0.55,-0.575 -0.55,-1.1125 v -4.0625 h -0.975 v 4.0625 c 0,0.8375 0.325,1.6875 1.0625,1.6875 0.475,0 0.925,-0.2375 1.2875,-0.5625 z m -1.25,-7.1375 c 0,-0.3375 -0.275,-0.6125 -0.6125,-0.6125 -0.3375,0 -0.6125,0.275 -0.6125,0.6125 0,0.3375 0.275,0.6125 0.6125,0.6125 0.3375,0 0.6125,-0.275 0.6125,-0.6125 z"
         style="font-size:12.5px;line-height:1.25"
         id="path145" />
    </g>
    <g
       aria-label="chip_select_n_o"
       id="text4457"
       style="line-height:0%;font-family:Iwona;-inkscape-font-specification:Iwona;text-align:end;letter-spacing:0px;word-spacing:0px;text-anchor:end;stroke-width:1px">
      <path
         d="m 2.6463192,194.10017 v -0.525 c -0.4,-0.5625 -1.05,-0.9 -1.75,-0.9 -1.5625,0 -2.6125,1.175 -2.6125,2.9375 0,1.7625 1.05,2.9375 2.6125,2.9375 0.65,0 1.2625,-0.325 1.625,-0.8625 v -0.525 c -0.425,0.6375 -0.8625,0.8625 -1.625,0.8625 -0.9,0 -1.5125,-0.9625 -1.5125,-2.4125 0,-1.45 0.6125,-2.4125 1.5125,-2.4125 0.775,0 1.3,0.275 1.75,0.9 z"
         style="font-size:12.5px;line-height:1.25"
         id="path148" />
      <path
         d="m 8.483806,198.42517 v -4.0625 c 0,-0.9125 -0.7,-1.6875 -1.6,-1.6875 -0.75,0 -1.4125,0.425 -1.95,0.95 v -3.95 h -0.975 v 8.75 h 0.975 v -4.4125 c 0.425,-0.425 0.95,-0.7625 1.5375,-0.7625 0.5875,0 1.0375,0.5125 1.0375,1.1125 v 4.0625 z"
         style="font-size:12.5px;line-height:1.25"
         id="path150" />
      <path
         d="m 12.708785,197.98767 v -0.375 c -0.2375,0.2 -0.5125,0.3625 -0.825,0.3625 -0.4625,0 -0.55,-0.575 -0.55,-1.1125 v -4.0625 h -0.975 v 4.0625 c 0,0.8375 0.325,1.6875 1.0625,1.6875 0.475,0 0.925,-0.2375 1.2875,-0.5625 z m -1.25,-7.1375 c 0,-0.3375 -0.275,-0.6125 -0.6125,-0.6125 -0.3375,0 -0.6125,0.275 -0.6125,0.6125 0,0.3375 0.275,0.6125 0.6125,0.6125 0.3375,0 0.6125,-0.275 0.6125,-0.6125 z"
         style="font-size:12.5px;line-height:1.25"
         id="path152" />
      <path
         d="m 18.733773,195.61267 c 0,-1.6625 -0.625,-2.9375 -2.1375,-2.9375 -0.6375,0 -1.225,0.2875 -1.725,0.6875 v -0.5625 h -0.975 v 8.5 h 0.975 v -3.0875 c 0.4875,0.2125 1.0125,0.3375 1.5375,0.3375 1.5625,0 2.325,-1.25 2.325,-2.9375 z m -1.1,0 c 0,1.175 -0.3625,2.4125 -1.3875,2.4125 -0.475,0 -0.95,-0.125 -1.375,-0.3375 v -3.8 c 0.375,-0.375 0.8375,-0.6875 1.375,-0.6875 1.1375,0 1.3875,1.1 1.3875,2.4125 z"
         style="font-size:12.5px;line-height:1.25"
         id="path154" />
      <path
         d="m 25.671251,199.86267 v -0.625 h -6.25 v 0.625 z"
         style="font-size:12.5px;line-height:1.25"
         id="path156" />
      <path
         d="m 30.471228,196.82517 c 0,-0.9875 -1.05,-1.5 -2.075,-1.75 -0.6,-0.15 -1.25,-0.4 -1.25,-0.9875 0,-0.5375 0.55,-0.8875 1.15,-0.8875 0.6625,0 1.325,0.2 1.875,0.5625 v -0.525 c -0.55,-0.3625 -1.2125,-0.5625 -1.875,-0.5625 -1.0875,0 -2.0875,0.6625 -2.0875,1.675 0,0.9125 1.0125,1.3375 1.975,1.575 0.6625,0.1625 1.35,0.5125 1.35,1.15 0,0.5875 -0.6,0.95 -1.2375,0.95 -0.775,0 -1.525,-0.1875 -2.1875,-0.5625 v 0.525 c 0.6625,0.375 1.4125,0.5625 2.1875,0.5625 1.125,0 2.175,-0.675 2.175,-1.725 z"
         style="font-size:12.5px;line-height:1.25"
         id="path158" />
      <path
         d="m 36.558712,195.73767 v -0.125 c 0,-1.7625 -0.9625,-2.9375 -2.4125,-2.9375 -1.4625,0 -2.425,1.175 -2.425,2.9375 0,1.7625 0.9625,2.9375 2.425,2.9375 0.625,0 1.2375,-0.2 1.75,-0.5625 v -0.525 c -0.5875,0.375 -1.0625,0.5125 -1.75,0.5125 -1.0625,0 -1.325,-1.0125 -1.325,-2.2375 z m -1.1,-0.525 h -2.6375 c 0,-1 0.425,-2.0125 1.325,-2.0125 0.8875,0 1.3125,1.0125 1.3125,2.0125 z"
         style="font-size:12.5px;line-height:1.25"
         id="path160" />
      <path
         d="m 40.533699,197.98767 v -0.375 c -0.2375,0.2 -0.5125,0.3625 -0.825,0.3625 -0.4625,0 -0.55,-0.575 -0.55,-1.1125 v -7.1875 h -0.975 v 7.1875 c 0,0.8375 0.325,1.6875 1.0625,1.6875 0.475,0 0.925,-0.2375 1.2875,-0.5625 z"
         style="font-size:12.5px;line-height:1.25"
         id="path162" />
      <path
         d="m 46.308674,195.73767 v -0.125 c 0,-1.7625 -0.9625,-2.9375 -2.4125,-2.9375 -1.4625,0 -2.425,1.175 -2.425,2.9375 0,1.7625 0.9625,2.9375 2.425,2.9375 0.625,0 1.2375,-0.2 1.75,-0.5625 v -0.525 c -0.5875,0.375 -1.0625,0.5125 -1.75,0.5125 -1.0625,0 -1.325,-1.0125 -1.325,-2.2375 z m -1.1,-0.525 h -2.6375 c 0,-1 0.425,-2.0125 1.325,-2.0125 0.8875,0 1.3125,1.0125 1.3125,2.0125 z"
         style="font-size:12.5px;line-height:1.25"
         id="path164" />
      <path
         d="m 51.983661,194.10017 v -0.525 c -0.4,-0.5625 -1.05,-0.9 -1.75,-0.9 -1.5625,0 -2.6125,1.175 -2.6125,2.9375 0,1.7625 1.05,2.9375 2.6125,2.9375 0.65,0 1.2625,-0.325 1.625,-0.8625 v -0.525 c -0.425,0.6375 -0.8625,0.8625 -1.625,0.8625 -0.9,0 -1.5125,-0.9625 -1.5125,-2.4125 0,-1.45 0.6125,-2.4125 1.5125,-2.4125 0.775,0 1.3,0.275 1.75,0.9 z"
         style="font-size:12.5px;line-height:1.25"
         id="path166" />
      <path
         d="m 55.946144,197.98767 v -0.375 c -0.2,0.2 -0.4375,0.3625 -0.725,0.3625 -0.45,0 -0.475,-0.5875 -0.475,-1.1125 v -3.5375 h 1.2 v -0.525 h -1.2 v -1.875 h -0.5875 c 0,1 -0.575,1.9375 -1.4875,1.9375 v 0.4625 h 1.1 v 3.5375 c 0,0.825 0.2625,1.6875 0.975,1.6875 0.4625,0 0.8625,-0.25 1.2,-0.5625 z"
         style="font-size:12.5px;line-height:1.25"
         id="path168" />
      <path
         d="m 62.571127,199.86267 v -0.625 h -6.25 v 0.625 z"
         style="font-size:12.5px;line-height:1.25"
         id="path170" />
      <path
         d="m 68.096104,198.42517 v -4.0625 c 0,-0.9125 -0.7,-1.6875 -1.6,-1.6875 -0.75,0 -1.4125,0.425 -1.95,0.95 v -0.825 h -0.975 v 5.625 h 0.975 v -4.4125 c 0.425,-0.425 0.95,-0.7625 1.5375,-0.7625 0.5875,0 1.0375,0.5125 1.0375,1.1125 v 4.0625 z"
         style="font-size:12.5px;line-height:1.25"
         id="path172" />
      <path
         d="m 75.283583,199.86267 v -0.625 h -6.25 v 0.625 z"
         style="font-size:12.5px;line-height:1.25"
         id="path174" />
      <path
         d="m 80.80856,195.61267 c 0,-1.9125 -0.85,-2.9375 -2.4125,-2.9375 -1.575,0 -2.425,1.025 -2.425,2.9375 0,1.9125 0.85,2.9375 2.425,2.9375 1.5625,0 2.4125,-1.025 2.4125,-2.9375 z m -1.1,0 c 0,1.5625 -0.4625,2.4125 -1.3125,2.4125 -0.8625,0 -1.325,-0.85 -1.325,-2.4125 0,-1.5625 0.4625,-2.4125 1.325,-2.4125 0.85,0 1.3125,0.85 1.3125,2.4125 z"
         style="font-size:12.5px;line-height:1.25"
         id="path176" />
    </g>
    <g
       aria-label="serial_data_o"
       id="text4465"
       style="line-height:0%;font-family:Iwona;-inkscape-font-specification:Iwona;text-align:end;letter-spacing:0px;word-spacing:0px;text-anchor:end;stroke-width:1px">
      <path
         d="m 14.821256,246.43145 c 0,-0.9875 -1.05,-1.5 -2.075,-1.75 -0.6,-0.15 -1.25,-0.4 -1.25,-0.9875 0,-0.5375 0.55,-0.8875 1.15,-0.8875 0.6625,0 1.325,0.2 1.875,0.5625 v -0.525 c -0.55,-0.3625 -1.2125,-0.5625 -1.875,-0.5625 -1.0875,0 -2.0875,0.6625 -2.0875,1.675 0,0.9125 1.0125,1.3375 1.975,1.575 0.6625,0.1625 1.35,0.5125 1.35,1.15 0,0.5875 -0.6,0.95 -1.2375,0.95 -0.775,0 -1.525,-0.1875 -2.1875,-0.5625 v 0.525 c 0.6625,0.375 1.4125,0.5625 2.1875,0.5625 1.125,0 2.175,-0.675 2.175,-1.725 z"
         style="font-size:12.5px;line-height:1.25"
         id="path179" />
      <path
         d="m 20.908743,245.34395 v -0.125 c 0,-1.7625 -0.9625,-2.9375 -2.4125,-2.9375 -1.4625,0 -2.425,1.175 -2.425,2.9375 0,1.7625 0.9625,2.9375 2.425,2.9375 0.625,0 1.2375,-0.2 1.75,-0.5625 v -0.525 c -0.5875,0.375 -1.0625,0.5125 -1.75,0.5125 -1.0625,0 -1.325,-1.0125 -1.325,-2.2375 z m -1.1,-0.525 h -2.6375 c 0,-1 0.425,-2.0125 1.325,-2.0125 0.8875,0 1.3125,1.0125 1.3125,2.0125 z"
         style="font-size:12.5px;line-height:1.25"
         id="path181" />
      <path
         d="m 25.646227,243.18145 v -0.775 c -0.1375,-0.05 -0.2875,-0.0875 -0.425,-0.0875 -0.7,0 -1.2625,0.4875 -1.7125,1.025 v -0.9375 h -0.975 v 5.625 h 0.975 v -4.1625 c 0.375,-0.4375 0.85,-0.8125 1.425,-0.8125 0.2375,0 0.4875,0.05 0.7125,0.125 z"
         style="font-size:12.5px;line-height:1.25"
         id="path183" />
      <path
         d="m 29.183714,247.59395 v -0.375 c -0.2375,0.2 -0.5125,0.3625 -0.825,0.3625 -0.4625,0 -0.55,-0.575 -0.55,-1.1125 v -4.0625 h -0.975 v 4.0625 c 0,0.8375 0.325,1.6875 1.0625,1.6875 0.475,0 0.925,-0.2375 1.2875,-0.5625 z m -1.25,-7.1375 c 0,-0.3375 -0.275,-0.6125 -0.6125,-0.6125 -0.3375,0 -0.6125,0.275 -0.6125,0.6125 0,0.3375 0.275,0.6125 0.6125,0.6125 0.3375,0 0.6125,-0.275 0.6125,-0.6125 z"
         style="font-size:12.5px;line-height:1.25"
         id="path185" />
      <path
         d="m 34.833702,248.03145 v -3.5 c 0,-1.175 -0.725,-2.25 -1.8125,-2.25 -0.8,0 -1.55,0.275 -2.225,0.7 v 0.3875 c 0.5625,-0.3125 1.1875,-0.5125 1.8375,-0.5125 0.775,0 1.225,0.825 1.225,1.675 v 0.225 c -0.4875,-0.2125 -1.0125,-0.3375 -1.5375,-0.3375 -1.3375,0 -2.325,0.6125 -2.325,1.875 0,1.2 0.875,1.8625 2.1375,1.8625 0.6375,0 1.225,-0.2875 1.725,-0.6875 v 0.5625 z m -0.975,-1.0875 c -0.375,0.375 -0.8375,0.6875 -1.375,0.6875 -0.8375,0 -1.3875,-0.5125 -1.3875,-1.3375 0,-0.7625 0.625,-1.35 1.3875,-1.35 0.475,0 0.95,0.125 1.375,0.3375 z"
         style="font-size:12.5px;line-height:1.25"
         id="path187" />
      <path
         d="m 39.183692,247.59395 v -0.375 c -0.2375,0.2 -0.5125,0.3625 -0.825,0.3625 -0.4625,0 -0.55,-0.575 -0.55,-1.1125 v -7.1875 h -0.975 v 7.1875 c 0,0.8375 0.325,1.6875 1.0625,1.6875 0.475,0 0.925,-0.2375 1.2875,-0.5625 z"
         style="font-size:12.5px;line-height:1.25"
         id="path189" />
      <path
         d="m 45.683669,249.46895 v -0.625 h -6.25 v 0.625 z"
         style="font-size:12.5px;line-height:1.25"
         id="path191" />
      <path
         d="m 51.208644,248.03145 v -8.75 h -0.975 v 3.3375 c -0.4875,-0.2125 -1.0125,-0.3375 -1.5375,-0.3375 -1.5625,0 -2.325,1.25 -2.325,2.9375 0,1.6625 0.625,2.9375 2.1375,2.9375 0.6375,0 1.225,-0.2875 1.725,-0.6875 v 0.5625 z m -0.975,-1.0875 c -0.375,0.375 -0.8375,0.6875 -1.375,0.6875 -1.1375,0 -1.3875,-1.1 -1.3875,-2.4125 0,-1.175 0.3625,-2.4125 1.3875,-2.4125 0.475,0 0.95,0.125 1.375,0.3375 z"
         style="font-size:12.5px;line-height:1.25"
         id="path193" />
      <path
         d="m 57.608638,248.03145 v -3.5 c 0,-1.175 -0.725,-2.25 -1.8125,-2.25 -0.8,0 -1.55,0.275 -2.225,0.7 v 0.3875 c 0.5625,-0.3125 1.1875,-0.5125 1.8375,-0.5125 0.775,0 1.225,0.825 1.225,1.675 v 0.225 c -0.4875,-0.2125 -1.0125,-0.3375 -1.5375,-0.3375 -1.3375,0 -2.325,0.6125 -2.325,1.875 0,1.2 0.875,1.8625 2.1375,1.8625 0.6375,0 1.225,-0.2875 1.725,-0.6875 v 0.5625 z m -0.975,-1.0875 c -0.375,0.375 -0.8375,0.6875 -1.375,0.6875 -0.8375,0 -1.3875,-0.5125 -1.3875,-1.3375 0,-0.7625 0.625,-1.35 1.3875,-1.35 0.475,0 0.95,0.125 1.375,0.3375 z"
         style="font-size:12.5px;line-height:1.25"
         id="path195" />
      <path
         d="m 62.258628,247.59395 v -0.375 c -0.2,0.2 -0.4375,0.3625 -0.725,0.3625 -0.45,0 -0.475,-0.5875 -0.475,-1.1125 v -3.5375 h 1.2 v -0.525 h -1.2 v -1.875 h -0.5875 c 0,1 -0.575,1.9375 -1.4875,1.9375 v 0.4625 h 1.1 v 3.5375 c 0,0.825 0.2625,1.6875 0.975,1.6875 0.4625,0 0.8625,-0.25 1.2,-0.5625 z"
         style="font-size:12.5px;line-height:1.25"
         id="path197" />
      <path
         d="m 68.033607,248.03145 v -3.5 c 0,-1.175 -0.725,-2.25 -1.8125,-2.25 -0.8,0 -1.55,0.275 -2.225,0.7 v 0.3875 c 0.5625,-0.3125 1.1875,-0.5125 1.8375,-0.5125 0.775,0 1.225,0.825 1.225,1.675 v 0.225 c -0.4875,-0.2125 -1.0125,-0.3375 -1.5375,-0.3375 -1.3375,0 -2.325,0.6125 -2.325,1.875 0,1.2 0.875,1.8625 2.1375,1.8625 0.6375,0 1.225,-0.2875 1.725,-0.6875 v 0.5625 z m -0.975,-1.0875 c -0.375,0.375 -0.8375,0.6875 -1.375,0.6875 -0.8375,0 -1.3875,-0.5125 -1.3875,-1.3375 0,-0.7625 0.625,-1.35 1.3875,-1.35 0.475,0 0.95,0.125 1.375,0.3375 z"
         style="font-size:12.5px;line-height:1.25"
         id="path199" />
      <path
         d="m 75.283597,249.46895 v -0.625 h -6.25 v 0.625 z"
         style="font-size:12.5px;line-height:1.25"
         id="path201" />
      <path
         d="m 80.80857,245.21895 c 0,-1.9125 -0.85,-2.9375 -2.4125,-2.9375 -1.575,0 -2.425,1.025 -2.425,2.9375 0,1.9125 0.85,2.9375 2.425,2.9375 1.5625,0 2.4125,-1.025 2.4125,-2.9375 z m -1.1,0 c 0,1.5625 -0.4625,2.4125 -1.3125,2.4125 -0.8625,0 -1.325,-0.85 -1.325,-2.4125 0,-1.5625 0.4625,-2.4125 1.325,-2.4125 0.85,0 1.3125,0.85 1.3125,2.4125 z"
         style="font-size:12.5px;line-height:1.25"
         id="path203" />
    </g>
    <g
       id="g3327"
       transform="translate(56.692916,-46.062998)">
      <path
         id="rect4901"
         style="fill:#afdde9;stroke:#000000;stroke-width:0.999212;stroke-linecap:round;stroke-dasharray:0.999213, 1.99843"
         d="M 60.236217,230.31496 H 205.51181 v 63.77952 H 60.236217 Z" />
      <g
         aria-label="CLK_FREQUENCY_HZ
BIT_RATE_HZ
BITS_PER_SAMPLE"
         id="text4903"
         style="line-height:0%;font-family:Iwona;-inkscape-font-specification:Iwona;letter-spacing:0px;word-spacing:0px">
        <path
           d="m 75.777695,242.41107 v -0.675 c -0.675,-0.975 -1.7875,-1.55 -2.9625,-1.55 -2.5375,0 -3.9125,1.85 -3.9125,4.5 0,2.65 1.375,4.5 3.9125,4.5 0.975,0 1.9375,-0.2875 2.7625,-0.825 v -0.575 c -0.825,0.5375 -1.7875,0.825 -2.7625,0.825 -1.9625,0 -2.6875,-1.7375 -2.6875,-3.925 0,-2.1875 0.725,-3.925 2.6875,-3.925 1.2,0 2.325,0.625 2.9625,1.65 z"
           style="font-size:12.5px;line-height:1.25"
           id="path207" />
        <path
           d="m 82.402687,249.06107 v -0.575 h -3.975 v -8.175 h -1.025 v 8.75 z"
           style="font-size:12.5px;line-height:1.25"
           id="path209" />
        <path
           d="m 91.252669,249.06107 -5.5375,-4.95 5.2375,-3.8 h -0.9875 l -5.0375,3.6625 v -3.6625 h -1.025 v 8.75 h 1.025 v -4.275 l 4.7875,4.275 z"
           style="font-size:12.5px;line-height:1.25"
           id="path211" />
        <path
           d="m 97.627668,250.49857 v -0.625 h -6.25 v 0.625 z"
           style="font-size:12.5px;line-height:1.25"
           id="path213" />
        <path
           d="m 104.82764,240.88607 v -0.575 h -5.949996 v 8.75 h 1.025 v -4.0875 h 3.974996 v -0.575 h -3.974996 v -3.5125 z"
           style="font-size:12.5px;line-height:1.25"
           id="path215" />
        <path
           d="m 113.50264,249.06107 -2.6625,-3.9625 c 1.3625,-0.2625 2.3,-1.0125 2.3,-2.4125 0,-1.7625 -1.5125,-2.5 -3.475,-2.5 -0.7,0 -1.4,0.0375 -2.0875,0.125 h -1 v 8.75 h 1.025 v -4.0625 c 0.675,0.125 1.375,0.2 2.0625,0.2 l 2.6125,3.8625 z m -1.5875,-6.375 c 0,1.1375 -1.0625,1.9375 -2.25,1.9375 -0.6875,0 -1.3875,-0.075 -2.0625,-0.2 v -3.5375 c 0.6875,-0.0875 1.375,-0.125 2.0625,-0.125 1.1875,0 2.25,0.8 2.25,1.925 z"
           style="font-size:12.5px;line-height:1.25"
           id="path217" />
        <path
           d="m 121.12763,249.06107 v -0.575 h -5.225 v -3.5125 h 3.975 v -0.575 h -3.975 v -3.5125 h 4.925 v -0.575 h -5.95 v 8.75 z"
           style="font-size:12.5px;line-height:1.25"
           id="path219" />
        <path
           d="m 130.44013,244.68607 c 0,-2.65 -1.375,-4.5 -3.9,-4.5 -2.5375,0 -3.9125,1.85 -3.9125,4.5 0,2.65 1.375,4.5 3.9125,4.5 0.0875,1.0125 0.925,1.7875 1.95,1.7875 0.6375,0 0.8125,-0.0375 1.4,-0.3 v -0.375 c -0.2875,0.1625 -0.6,0.25 -0.9375,0.25 -1.1375,0 -1.5875,-0.4 -1.6,-1.4375 2,-0.35 3.0875,-2.075 3.0875,-4.425 z m -1.225,0 c 0,2.1875 -0.725,3.925 -2.675,3.925 -1.9625,0 -2.6875,-1.7375 -2.6875,-3.925 0,-2.1875 0.725,-3.925 2.6875,-3.925 1.95,0 2.675,1.7375 2.675,3.925 z"
           style="font-size:12.5px;line-height:1.25"
           id="path221" />
        <path
           d="m 138.87761,246.61107 v -6.3 h -0.575 v 6.1 c 0,1.3 -1.15,2.275 -2.475,2.275 -1.3375,0 -2.4875,-0.975 -2.4875,-2.275 v -6.1 h -1.025 v 6.3 c 0,1.5875 1.575,2.65 3.2875,2.65 1.7,0 3.275,-1.0625 3.275,-2.65 z"
           style="font-size:12.5px;line-height:1.25"
           id="path223" />
        <path
           d="m 147.50261,249.06107 v -0.575 h -5.225 v -3.5125 h 3.975 v -0.575 h -3.975 v -3.5125 h 4.925 v -0.575 h -5.95 v 8.75 z"
           style="font-size:12.5px;line-height:1.25"
           id="path225" />
        <path
           d="m 156.85261,249.06107 v -8.75 h -0.575 v 7.35 l -6.025,-7.35 h -0.75 v 8.75 h 0.575 v -7.35 l 6.025,7.35 z"
           style="font-size:12.5px;line-height:1.25"
           id="path227" />
        <path
           d="m 165.72758,242.41107 v -0.675 c -0.675,-0.975 -1.7875,-1.55 -2.9625,-1.55 -2.5375,0 -3.9125,1.85 -3.9125,4.5 0,2.65 1.375,4.5 3.9125,4.5 0.975,0 1.9375,-0.2875 2.7625,-0.825 v -0.575 c -0.825,0.5375 -1.7875,0.825 -2.7625,0.825 -1.9625,0 -2.6875,-1.7375 -2.6875,-3.925 0,-2.1875 0.725,-3.925 2.6875,-3.925 1.2,0 2.325,0.625 2.9625,1.65 z"
           style="font-size:12.5px;line-height:1.25"
           id="path229" />
        <path
           d="m 173.22758,240.31107 h -0.675 l -2.6625,4.425 -2.375,-4.425 h -1.1625 l 2.925,5.25 v 3.5 h 1.025 v -3.8875 z"
           style="font-size:12.5px;line-height:1.25"
           id="path231" />
        <path
           d="m 179.60258,250.49857 v -0.625 h -6.25 v 0.625 z"
           style="font-size:12.5px;line-height:1.25"
           id="path233" />
        <path
           d="m 187.72755,249.06107 v -8.75 h -1.025 v 4.0875 h -4.825 v -4.0875 h -1.025 v 8.75 h 1.025 v -4.0875 h 4.825 v 4.0875 z"
           style="font-size:12.5px;line-height:1.25"
           id="path235" />
        <path
           d="m 195.91503,249.06107 v -0.575 h -5.3 l 5.1,-7.6125 v -0.5625 h -6.1625 v 0.575 h 4.925 l -5.125,7.65 v 0.525 z"
           style="font-size:12.5px;line-height:1.25"
           id="path237" />
        <path
           d="m 75.965195,262.31107 c 0,-1.375 -0.9,-2.1 -2.2125,-2.375 0.9625,-0.2875 1.6,-0.9125 1.6,-1.975 0,-1.525 -1.3125,-2.15 -3,-2.15 -0.65,0 -1.3,0.0375 -1.95,0.125 h -1 v 8.75 h 1 l 1.95,0.125 c 2.025,0 3.6125,-0.6875 3.6125,-2.5 z m -1.6375,-4.35 c 0,1.2625 -1.4125,1.9125 -2.825,1.9125 h -1.075 v -3.3625 c 0.6375,-0.0875 1.2875,-0.125 1.925,-0.125 1.025,0 1.975,0.625 1.975,1.575 z m 0.4125,4.35 c 0,1.15 -1.1375,1.925 -2.3875,1.925 -0.6375,0 -1.2875,-0.0375 -1.925,-0.125 v -3.8 h 1.6125 c 1.375,0 2.7,0.7375 2.7,2 z"
           style="font-size:12.5px;line-height:1.25"
           id="path239" />
        <path
           d="m 78.990188,264.68607 v -8.75 h -1.025 v 8.75 z"
           style="font-size:12.5px;line-height:1.25"
           id="path241" />
        <path
           d="m 87.365183,256.51107 v -0.575 h -6.875 v 0.575 h 2.925 v 8.175 h 1.025 v -8.175 z"
           style="font-size:12.5px;line-height:1.25"
           id="path243" />
        <path
           d="m 93.865162,266.12357 v -0.625 h -6.25 v 0.625 z"
           style="font-size:12.5px;line-height:1.25"
           id="path245" />
        <path
           d="m 101.91514,264.68607 -2.662503,-3.9625 c 1.362503,-0.2625 2.300003,-1.0125 2.300003,-2.4125 0,-1.7625 -1.5125,-2.5 -3.475003,-2.5 -0.7,0 -1.4,0.0375 -2.0875,0.125 h -1 v 8.75 h 1.025 v -4.0625 c 0.675,0.125 1.375,0.2 2.0625,0.2 l 2.612503,3.8625 z m -1.5875,-6.375 c 0,1.1375 -1.062503,1.9375 -2.250003,1.9375 -0.6875,0 -1.3875,-0.075 -2.0625,-0.2 v -3.5375 c 0.6875,-0.0875 1.375,-0.125 2.0625,-0.125 1.1875,0 2.250003,0.8 2.250003,1.925 z"
           style="font-size:12.5px;line-height:1.25"
           id="path247" />
        <path
           d="m 109.66513,264.68607 -3.175,-8.75 h -1.0875 l -3.2375,8.75 h 0.6125 l 1.1375,-3.0625 h 3.55 l 1.1125,3.0625 z m -2.4125,-3.6375 h -3.125 l 1.575,-4.275 z"
           style="font-size:12.5px;line-height:1.25"
           id="path249" />
        <path
           d="m 116.2401,256.51107 v -0.575 h -6.875 v 0.575 h 2.925 v 8.175 h 1.025 v -8.175 z"
           style="font-size:12.5px;line-height:1.25"
           id="path251" />
        <path
           d="m 123.99008,264.68607 v -0.575 h -5.225 v -3.5125 h 3.975 v -0.575 h -3.975 v -3.5125 h 4.925 v -0.575 h -5.95 v 8.75 z"
           style="font-size:12.5px;line-height:1.25"
           id="path253" />
        <path
           d="m 130.99008,266.12357 v -0.625 h -6.25 v 0.625 z"
           style="font-size:12.5px;line-height:1.25"
           id="path255" />
        <path
           d="m 139.11506,264.68607 v -8.75 h -1.025 v 4.0875 h -4.825 v -4.0875 h -1.025 v 8.75 h 1.025 v -4.0875 h 4.825 v 4.0875 z"
           style="font-size:12.5px;line-height:1.25"
           id="path257" />
        <path
           d="m 147.30254,264.68607 v -0.575 h -5.3 l 5.1,-7.6125 v -0.5625 h -6.1625 v 0.575 h 4.925 l -5.125,7.65 v 0.525 z"
           style="font-size:12.5px;line-height:1.25"
           id="path259" />
        <path
           d="m 75.965195,277.93607 c 0,-1.375 -0.9,-2.1 -2.2125,-2.375 0.9625,-0.2875 1.6,-0.9125 1.6,-1.975 0,-1.525 -1.3125,-2.15 -3,-2.15 -0.65,0 -1.3,0.0375 -1.95,0.125 h -1 v 8.75 h 1 l 1.95,0.125 c 2.025,0 3.6125,-0.6875 3.6125,-2.5 z m -1.6375,-4.35 c 0,1.2625 -1.4125,1.9125 -2.825,1.9125 h -1.075 v -3.3625 c 0.6375,-0.0875 1.2875,-0.125 1.925,-0.125 1.025,0 1.975,0.625 1.975,1.575 z m 0.4125,4.35 c 0,1.15 -1.1375,1.925 -2.3875,1.925 -0.6375,0 -1.2875,-0.0375 -1.925,-0.125 v -3.8 h 1.6125 c 1.375,0 2.7,0.7375 2.7,2 z"
           style="font-size:12.5px;line-height:1.25"
           id="path261" />
        <path
           d="m 78.990188,280.31107 v -8.75 h -1.025 v 8.75 z"
           style="font-size:12.5px;line-height:1.25"
           id="path263" />
        <path
           d="m 87.365183,272.13607 v -0.575 h -6.875 v 0.575 h 2.925 v 8.175 h 1.025 v -8.175 z"
           style="font-size:12.5px;line-height:1.25"
           id="path265" />
        <path
           d="m 94.952662,277.77357 c 0,-1.5375 -1.5625,-2.45 -3.175,-2.7875 -1.075,-0.225 -2.2875,-0.5 -2.2875,-1.5 0,-0.9875 1.0625,-1.55 2.1625,-1.55 1.0125,0 2,0.3 2.8,0.925 v -0.5 c -0.8,-0.625 -1.7875,-1 -2.8,-1 -1.625,0 -3.15,0.9125 -3.15,2.3875 0,1.4125 1.525,2.125 3.0125,2.4375 1.1875,0.25 2.45,0.7375 2.45,1.85 0,1.1375 -1.1125,1.9 -2.3125,1.9 -1.1625,0 -2.3125,-0.3 -3.2875,-0.925 v 0.5 c 0.9875,0.625 2.1125,1 3.2875,1 1.725,0 3.3,-1.1125 3.3,-2.7375 z"
           style="font-size:12.5px;line-height:1.25"
           id="path267" />
        <path
           d="m 101.95265,281.74857 v -0.625 h -6.249998 v 0.625 z"
           style="font-size:12.5px;line-height:1.25"
           id="path269" />
        <path
           d="m 109.76513,273.93607 c 0,-1.7625 -1.5125,-2.5 -3.475,-2.5 -0.7,0 -1.4,0.0375 -2.0875,0.125 h -1 v 8.75 h 1.025 v -4.0625 c 0.675,0.125 1.375,0.2 2.0625,0.2 1.9625,0 3.475,-0.7375 3.475,-2.5125 z m -1.225,0 c 0,1.1375 -1.0625,1.9375 -2.25,1.9375 -0.6875,0 -1.3875,-0.075 -2.0625,-0.2 v -3.5375 c 0.6875,-0.0875 1.375,-0.125 2.0625,-0.125 1.1875,0 2.25,0.8 2.25,1.925 z"
           style="font-size:12.5px;line-height:1.25"
           id="path271" />
        <path
           d="m 118.01512,280.31107 v -0.575 h -5.225 v -3.5125 h 3.975 v -0.575 h -3.975 v -3.5125 h 4.925 v -0.575 h -5.95 v 8.75 z"
           style="font-size:12.5px;line-height:1.25"
           id="path273" />
        <path
           d="m 126.81512,280.31107 -2.6625,-3.9625 c 1.3625,-0.2625 2.3,-1.0125 2.3,-2.4125 0,-1.7625 -1.5125,-2.5 -3.475,-2.5 -0.7,0 -1.4,0.0375 -2.0875,0.125 h -1 v 8.75 h 1.025 v -4.0625 c 0.675,0.125 1.375,0.2 2.0625,0.2 l 2.6125,3.8625 z m -1.5875,-6.375 c 0,1.1375 -1.0625,1.9375 -2.25,1.9375 -0.6875,0 -1.3875,-0.075 -2.0625,-0.2 v -3.5375 c 0.6875,-0.0875 1.375,-0.125 2.0625,-0.125 1.1875,0 2.25,0.8 2.25,1.925 z"
           style="font-size:12.5px;line-height:1.25"
           id="path275" />
        <path
           d="m 133.19011,281.74857 v -0.625 h -6.25 v 0.625 z"
           style="font-size:12.5px;line-height:1.25"
           id="path277" />
        <path
           d="m 140.52759,277.77357 c 0,-1.5375 -1.5625,-2.45 -3.175,-2.7875 -1.075,-0.225 -2.2875,-0.5 -2.2875,-1.5 0,-0.9875 1.0625,-1.55 2.1625,-1.55 1.0125,0 2,0.3 2.8,0.925 v -0.5 c -0.8,-0.625 -1.7875,-1 -2.8,-1 -1.625,0 -3.15,0.9125 -3.15,2.3875 0,1.4125 1.525,2.125 3.0125,2.4375 1.1875,0.25 2.45,0.7375 2.45,1.85 0,1.1375 -1.1125,1.9 -2.3125,1.9 -1.1625,0 -2.3125,-0.3 -3.2875,-0.925 v 0.5 c 0.9875,0.625 2.1125,1 3.2875,1 1.725,0 3.3,-1.1125 3.3,-2.7375 z"
           style="font-size:12.5px;line-height:1.25"
           id="path279" />
        <path
           d="m 148.90258,280.31107 -3.175,-8.75 h -1.0875 l -3.2375,8.75 h 0.6125 l 1.1375,-3.0625 h 3.55 l 1.1125,3.0625 z m -2.4125,-3.6375 h -3.125 l 1.575,-4.275 z"
           style="font-size:12.5px;line-height:1.25"
           id="path281" />
        <path
           d="m 159.46507,280.31107 -0.5,-8.75 h -0.825 l -3.5125,7.3875 -3.525,-7.3875 h -0.825 l -0.5,8.75 h 0.575 l 0.4,-7.0875 3.3875,7.0875 h 0.4625 l 3.425,-7.175 0.4125,7.175 z"
           style="font-size:12.5px;line-height:1.25"
           id="path283" />
        <path
           d="m 168.02755,273.93607 c 0,-1.7625 -1.5125,-2.5 -3.475,-2.5 -0.7,0 -1.4,0.0375 -2.0875,0.125 h -1 v 8.75 h 1.025 v -4.0625 c 0.675,0.125 1.375,0.2 2.0625,0.2 1.9625,0 3.475,-0.7375 3.475,-2.5125 z m -1.225,0 c 0,1.1375 -1.0625,1.9375 -2.25,1.9375 -0.6875,0 -1.3875,-0.075 -2.0625,-0.2 v -3.5375 c 0.6875,-0.0875 1.375,-0.125 2.0625,-0.125 1.1875,0 2.25,0.8 2.25,1.925 z"
           style="font-size:12.5px;line-height:1.25"
           id="path285" />
        <path
           d="m 175.02754,280.31107 v -0.575 h -3.975 v -8.175 h -1.025 v 8.75 z"
           style="font-size:12.5px;line-height:1.25"
           id="path287" />
        <path
           d="m 182.77753,280.31107 v -0.575 h -5.225 v -3.5125 h 3.975 v -0.575 h -3.975 v -3.5125 h 4.925 v -0.575 h -5.95 v 8.75 z"
           style="font-size:12.5px;line-height:1.25"
           id="path289" />
      </g>
    </g>
    <path
       style="fill:#afdde9;fill-opacity:1;stroke:#000000;stroke-width:1px;stroke-linecap:butt;stroke-linejoin:miter;stroke-opacity:1"
       d="M 102.75591,212.59841 H 92.125977 l -7.086612,7.0866 7.086612,7.08662 h 10.629933 z"
       id="path3371" />
    <g
       aria-label="serial_clk_o"
       id="text3373"
       style="line-height:0%;font-family:Iwona;-inkscape-font-specification:Iwona;text-align:end;letter-spacing:0px;word-spacing:0px;text-anchor:end;stroke-width:1px">
      <path
         d="m 23.246246,221.62833 c 0,-0.9875 -1.05,-1.5 -2.075,-1.75 -0.6,-0.15 -1.25,-0.4 -1.25,-0.9875 0,-0.5375 0.55,-0.8875 1.15,-0.8875 0.6625,0 1.325,0.2 1.875,0.5625 v -0.525 c -0.55,-0.3625 -1.2125,-0.5625 -1.875,-0.5625 -1.0875,0 -2.0875,0.6625 -2.0875,1.675 0,0.9125 1.0125,1.3375 1.975,1.575 0.6625,0.1625 1.35,0.5125 1.35,1.15 0,0.5875 -0.6,0.95 -1.2375,0.95 -0.775,0 -1.525,-0.1875 -2.1875,-0.5625 v 0.525 c 0.6625,0.375 1.4125,0.5625 2.1875,0.5625 1.125,0 2.175,-0.675 2.175,-1.725 z"
         style="font-size:12.5px;line-height:1.25"
         id="path292" />
      <path
         d="m 29.333733,220.54083 v -0.125 c 0,-1.7625 -0.9625,-2.9375 -2.4125,-2.9375 -1.4625,0 -2.425,1.175 -2.425,2.9375 0,1.7625 0.9625,2.9375 2.425,2.9375 0.625,0 1.2375,-0.2 1.75,-0.5625 v -0.525 c -0.5875,0.375 -1.0625,0.5125 -1.75,0.5125 -1.0625,0 -1.325,-1.0125 -1.325,-2.2375 z m -1.1,-0.525 h -2.6375 c 0,-1 0.425,-2.0125 1.325,-2.0125 0.8875,0 1.3125,1.0125 1.3125,2.0125 z"
         style="font-size:12.5px;line-height:1.25"
         id="path294" />
      <path
         d="m 34.071216,218.37833 v -0.775 c -0.1375,-0.05 -0.2875,-0.0875 -0.425,-0.0875 -0.7,0 -1.2625,0.4875 -1.7125,1.025 v -0.9375 h -0.975 v 5.625 h 0.975 v -4.1625 c 0.375,-0.4375 0.85,-0.8125 1.425,-0.8125 0.2375,0 0.4875,0.05 0.7125,0.125 z"
         style="font-size:12.5px;line-height:1.25"
         id="path296" />
      <path
         d="m 37.608704,222.79083 v -0.375 c -0.2375,0.2 -0.5125,0.3625 -0.825,0.3625 -0.4625,0 -0.55,-0.575 -0.55,-1.1125 v -4.0625 h -0.975 v 4.0625 c 0,0.8375 0.325,1.6875 1.0625,1.6875 0.475,0 0.925,-0.2375 1.2875,-0.5625 z m -1.25,-7.1375 c 0,-0.3375 -0.275,-0.6125 -0.6125,-0.6125 -0.3375,0 -0.6125,0.275 -0.6125,0.6125 0,0.3375 0.275,0.6125 0.6125,0.6125 0.3375,0 0.6125,-0.275 0.6125,-0.6125 z"
         style="font-size:12.5px;line-height:1.25"
         id="path298" />
      <path
         d="m 43.258691,223.22833 v -3.5 c 0,-1.175 -0.725,-2.25 -1.8125,-2.25 -0.8,0 -1.55,0.275 -2.225,0.7 v 0.3875 c 0.5625,-0.3125 1.1875,-0.5125 1.8375,-0.5125 0.775,0 1.225,0.825 1.225,1.675 v 0.225 c -0.4875,-0.2125 -1.0125,-0.3375 -1.5375,-0.3375 -1.3375,0 -2.325,0.6125 -2.325,1.875 0,1.2 0.875,1.8625 2.1375,1.8625 0.6375,0 1.225,-0.2875 1.725,-0.6875 v 0.5625 z m -0.975,-1.0875 c -0.375,0.375 -0.8375,0.6875 -1.375,0.6875 -0.8375,0 -1.3875,-0.5125 -1.3875,-1.3375 0,-0.7625 0.625,-1.35 1.3875,-1.35 0.475,0 0.95,0.125 1.375,0.3375 z"
         style="font-size:12.5px;line-height:1.25"
         id="path300" />
      <path
         d="m 47.608681,222.79083 v -0.375 c -0.2375,0.2 -0.5125,0.3625 -0.825,0.3625 -0.4625,0 -0.55,-0.575 -0.55,-1.1125 v -7.1875 h -0.975 v 7.1875 c 0,0.8375 0.325,1.6875 1.0625,1.6875 0.475,0 0.925,-0.2375 1.2875,-0.5625 z"
         style="font-size:12.5px;line-height:1.25"
         id="path302" />
      <path
         d="m 54.108659,224.66583 v -0.625 h -6.25 v 0.625 z"
         style="font-size:12.5px;line-height:1.25"
         id="path304" />
      <path
         d="m 59.158634,218.90333 v -0.525 c -0.4,-0.5625 -1.05,-0.9 -1.75,-0.9 -1.5625,0 -2.6125,1.175 -2.6125,2.9375 0,1.7625 1.05,2.9375 2.6125,2.9375 0.65,0 1.2625,-0.325 1.625,-0.8625 v -0.525 c -0.425,0.6375 -0.8625,0.8625 -1.625,0.8625 -0.9,0 -1.5125,-0.9625 -1.5125,-2.4125 0,-1.45 0.6125,-2.4125 1.5125,-2.4125 0.775,0 1.3,0.275 1.75,0.9 z"
         style="font-size:12.5px;line-height:1.25"
         id="path306" />
      <path
         d="m 62.821122,222.79083 v -0.375 c -0.2375,0.2 -0.5125,0.3625 -0.825,0.3625 -0.4625,0 -0.55,-0.575 -0.55,-1.1125 v -7.1875 h -0.975 v 7.1875 c 0,0.8375 0.325,1.6875 1.0625,1.6875 0.475,0 0.925,-0.2375 1.2875,-0.5625 z"
         style="font-size:12.5px;line-height:1.25"
         id="path308" />
      <path
         d="m 68.908601,223.22833 -2.9,-3.3375 2.8,-2.2875 h -0.775 l -2.9875,2.45 v -5.575 h -0.975 v 8.75 h 0.975 v -3.1125 l 2.7,3.1125 z"
         style="font-size:12.5px;line-height:1.25"
         id="path310" />
      <path
         d="m 75.283591,224.66583 v -0.625 h -6.25 v 0.625 z"
         style="font-size:12.5px;line-height:1.25"
         id="path312" />
      <path
         d="m 80.808565,220.41583 c 0,-1.9125 -0.85,-2.9375 -2.4125,-2.9375 -1.575,0 -2.425,1.025 -2.425,2.9375 0,1.9125 0.85,2.9375 2.425,2.9375 1.5625,0 2.4125,-1.025 2.4125,-2.9375 z m -1.1,0 c 0,1.5625 -0.4625,2.4125 -1.3125,2.4125 -0.8625,0 -1.325,-0.85 -1.325,-2.4125 0,-1.5625 0.4625,-2.4125 1.325,-2.4125 0.85,0 1.3125,0.85 1.3125,2.4125 z"
         style="font-size:12.5px;line-height:1.25"
         id="path314" />
    </g>
  </g>
</svg>
