<?xml version="1.0" encoding="UTF-8" standalone="no"?>
<!-- Created with Inkscape (http://www.inkscape.org/) -->

<svg
   width="156.2821mm"
   height="49.586109mm"
   viewBox="0 0 553.75549 175.69881"
   id="svg2"
   version="1.1"
   xmlns="http://www.w3.org/2000/svg"
   xmlns:svg="http://www.w3.org/2000/svg"
   xmlns:rdf="http://www.w3.org/1999/02/22-rdf-syntax-ns#"
   xmlns:cc="http://creativecommons.org/ns#"
   xmlns:dc="http://purl.org/dc/elements/1.1/">
  <defs
     id="defs4" />
  <metadata
     id="metadata7">
    <rdf:RDF>
      <cc:Work
         rdf:about="">
        <dc:format>image/svg+xml</dc:format>
        <dc:type
           rdf:resource="http://purl.org/dc/dcmitype/StillImage" />
        <dc:title />
      </cc:Work>
    </rdf:RDF>
  </metadata>
  <g
     id="layer1"
     transform="translate(468.21653,-17.216532)">
    <path
       style="fill:none;fill-rule:evenodd;stroke:#000000;stroke-width:1px;stroke-linecap:butt;stroke-linejoin:miter;stroke-opacity:1"
       d="m -141.73229,148.8189 c 0,7.08661 63.779532,-1e-5 63.779532,7.08661 0,-7.08662 63.77953,0 63.77953,-7.08662"
       id="path4396" />
    <path
       id="rect4316"
       style="opacity:1;fill:#d7eef4;stroke:#000000;stroke-linecap:round;stroke-linejoin:bevel"
       d="m -460.62991,24.803146 h 325.98422 V 145.27559 h -325.98422 z" />
    <g
       transform="translate(7.0866127,-88.582655)"
       id="g3929">
      <path
         style="fill:#d7eef4;fill-opacity:1;stroke:#000000;stroke-width:0.999213;stroke-linecap:round;stroke-linejoin:miter;stroke-miterlimit:4;stroke-dashoffset:0;stroke-opacity:1"
         d="M 70.859025,233.85823 H -31.896882 V 113.3858 H 70.859025"
         id="path5358" />
      <path
         id="path5360"
         d="m -24.803148,148.81887 h -10.62992 l -7.08661,7.0866 7.08661,7.08661 h 10.62992 z"
         style="fill:#afdde9;fill-opacity:1;stroke:#000000;stroke-width:1px;stroke-linecap:butt;stroke-linejoin:miter;stroke-opacity:1" />
      <path
         style="fill:#afdde9;fill-opacity:1;stroke:#000000;stroke-width:1px;stroke-linecap:butt;stroke-linejoin:miter;stroke-opacity:1"
         d="m -24.80315,173.62202 h -10.62992 l -7.08661,7.0866 7.08661,7.08661 h 10.62992 z"
         id="path3724" />
      <path
         id="path3726"
         d="m -38.976375,198.42517 h 10.62992 l 7.08661,7.0866 -7.08661,7.08661 h -10.62992 z"
         style="fill:#afdde9;fill-opacity:1;stroke:#000000;stroke-width:1px;stroke-linecap:butt;stroke-linejoin:miter;stroke-opacity:1" />
      <g
         aria-label="Carte Basys3"
         id="text3732"
         style="line-height:0%;font-family:Iwona;-inkscape-font-specification:Iwona;text-align:center;letter-spacing:0px;word-spacing:0px;text-anchor:middle;stroke-width:1px">
        <path
           d="m -8.894093,120.90903 v -0.675 c -0.675,-0.975 -1.7875,-1.55 -2.9625,-1.55 -2.5375,0 -3.9125,1.85 -3.9125,4.5 0,2.65 1.375,4.5 3.9125,4.5 0.975,0 1.9375,-0.2875 2.7625,-0.825 v -0.575 c -0.825,0.5375 -1.7875,0.825 -2.7625,0.825 -1.9625,0 -2.6875,-1.7375 -2.6875,-3.925 0,-2.1875 0.725,-3.925 2.6875,-3.925 1.2,0 2.325,0.625 2.9625,1.65 z"
           style="font-size:12.5px;line-height:1.25"
           id="path70" />
        <path
           d="m -3.1191007,127.55903 v -3.5 c 0,-1.175 -0.725,-2.25 -1.8125,-2.25 -0.8,0 -1.55,0.275 -2.225,0.7 v 0.3875 c 0.5625,-0.3125 1.1875,-0.5125 1.8375,-0.5125 0.775,0 1.225,0.825 1.225,1.675 v 0.225 c -0.4875,-0.2125 -1.0125,-0.3375 -1.5375,-0.3375 -1.3375,0 -2.325,0.6125 -2.325,1.875 0,1.2 0.875,1.8625 2.1375,1.8625 0.6375,0 1.225,-0.2875 1.725,-0.6875 v 0.5625 z m -0.975,-1.0875 c -0.375,0.375 -0.8375,0.6875 -1.375,0.6875 -0.8375,0 -1.3875,-0.5125 -1.3875,-1.3375 0,-0.7625 0.625,-1.35 1.3875,-1.35 0.475,0 0.95,0.125 1.375,0.3375 z"
           style="font-size:12.5px;line-height:1.25"
           id="path72" />
        <path
           d="m 1.9933885,122.70903 v -0.775 c -0.1375,-0.05 -0.2875,-0.0875 -0.425,-0.0875 -0.70000004,0 -1.26250004,0.4875 -1.71250004,1.025 v -0.9375 H -1.1191115 v 5.625 h 0.97499996 v -4.1625 c 0.375,-0.4375 0.85,-0.8125 1.42500004,-0.8125 0.2375,0 0.4875,0.05 0.7125,0.125 z"
           style="font-size:12.5px;line-height:1.25"
           id="path74" />
        <path
           d="m 5.9683589,127.12153 v -0.375 c -0.2,0.2 -0.4375,0.3625 -0.725,0.3625 -0.45,0 -0.475,-0.5875 -0.475,-1.1125 v -3.5375 h 1.2 v -0.525 h -1.2 v -1.875 h -0.5875 c 0,1 -0.575,1.9375 -1.4875,1.9375 v 0.4625 h 1.1 v 3.5375 c 0,0.825 0.2625,1.6875 0.975,1.6875 0.4625,0 0.8625,-0.25 1.2,-0.5625 z"
           style="font-size:12.5px;line-height:1.25"
           id="path76" />
        <path
           d="m 11.868341,124.87153 v -0.125 c 0,-1.7625 -0.9625,-2.9375 -2.4124996,-2.9375 -1.4625,0 -2.425,1.175 -2.425,2.9375 0,1.7625 0.9625,2.9375 2.425,2.9375 0.6249996,0 1.2374996,-0.2 1.7499996,-0.5625 v -0.525 c -0.5875,0.375 -1.0625,0.5125 -1.7499996,0.5125 -1.0625,0 -1.325,-1.0125 -1.325,-2.2375 z m -1.1,-0.525 H 8.1308414 c 0,-1 0.425,-2.0125 1.325,-2.0125 0.8874996,0 1.3124996,1.0125 1.3124996,2.0125 z"
           style="font-size:12.5px;line-height:1.25"
           id="path78" />
        <path
           d="m 24.468303,125.18403 c 0,-1.375 -0.9,-2.1 -2.2125,-2.375 0.9625,-0.2875 1.6,-0.9125 1.6,-1.975 0,-1.525 -1.3125,-2.15 -3,-2.15 -0.65,0 -1.3,0.0375 -1.95,0.125 h -1 v 8.75 h 1 l 1.95,0.125 c 2.025,0 3.6125,-0.6875 3.6125,-2.5 z m -1.6375,-4.35 c 0,1.2625 -1.4125,1.9125 -2.825,1.9125 h -1.075 v -3.3625 c 0.6375,-0.0875 1.2875,-0.125 1.925,-0.125 1.025,0 1.975,0.625 1.975,1.575 z m 0.4125,4.35 c 0,1.15 -1.1375,1.925 -2.3875,1.925 -0.6375,0 -1.2875,-0.0375 -1.925,-0.125 v -3.8 h 1.6125 c 1.375,0 2.7,0.7375 2.7,2 z"
           style="font-size:12.5px;line-height:1.25"
           id="path80" />
        <path
           d="m 30.618296,127.55903 v -3.5 c 0,-1.175 -0.725,-2.25 -1.8125,-2.25 -0.8,0 -1.55,0.275 -2.225,0.7 v 0.3875 c 0.5625,-0.3125 1.1875,-0.5125 1.8375,-0.5125 0.775,0 1.225,0.825 1.225,1.675 v 0.225 c -0.4875,-0.2125 -1.0125,-0.3375 -1.5375,-0.3375 -1.3375,0 -2.325,0.6125 -2.325,1.875 0,1.2 0.875,1.8625 2.1375,1.8625 0.6375,0 1.225,-0.2875 1.725,-0.6875 v 0.5625 z m -0.975,-1.0875 c -0.375,0.375 -0.8375,0.6875 -1.375,0.6875 -0.8375,0 -1.3875,-0.5125 -1.3875,-1.3375 0,-0.7625 0.625,-1.35 1.3875,-1.35 0.475,0 0.95,0.125 1.375,0.3375 z"
           style="font-size:12.5px;line-height:1.25"
           id="path82" />
        <path
           d="m 36.418286,125.95903 c 0,-0.9875 -1.05,-1.5 -2.075,-1.75 -0.6,-0.15 -1.25,-0.4 -1.25,-0.9875 0,-0.5375 0.55,-0.8875 1.15,-0.8875 0.6625,0 1.325,0.2 1.875,0.5625 v -0.525 c -0.55,-0.3625 -1.2125,-0.5625 -1.875,-0.5625 -1.0875,0 -2.0875,0.6625 -2.0875,1.675 0,0.9125 1.0125,1.3375 1.975,1.575 0.6625,0.1625 1.35,0.5125 1.35,1.15 0,0.5875 -0.6,0.95 -1.2375,0.95 -0.775,0 -1.525,-0.1875 -2.1875,-0.5625 v 0.525 c 0.6625,0.375 1.4125,0.5625 2.1875,0.5625 1.125,0 2.175,-0.675 2.175,-1.725 z"
           style="font-size:12.5px;line-height:1.25"
           id="path84" />
        <path
           d="m 42.443273,128.30903 v -6.375 h -0.975 v 4.4125 c -0.425,0.425 -0.95,0.7625 -1.5375,0.7625 -0.5875,0 -1.0375,-0.5125 -1.0375,-1.1125 v -4.0625 h -0.975 v 4.0625 c 0,0.9125 0.7,1.6875 1.6,1.6875 0.75,0 1.4125,-0.425 1.95,-0.95 v 1.575 c 0,0.8375 -0.375,1.675 -1.125,1.675 -0.5875,0 -1.15,-0.125 -1.6875,-0.3375 v 0.3875 c 0.6375,0.325 1.35,0.525 2.075,0.525 1.0625,0 1.7125,-1.1 1.7125,-2.25 z"
           style="font-size:12.5px;line-height:1.25"
           id="path86" />
        <path
           d="m 48.243252,125.95903 c 0,-0.9875 -1.05,-1.5 -2.075,-1.75 -0.6,-0.15 -1.25,-0.4 -1.25,-0.9875 0,-0.5375 0.55,-0.8875 1.15,-0.8875 0.6625,0 1.325,0.2 1.875,0.5625 v -0.525 c -0.55,-0.3625 -1.2125,-0.5625 -1.875,-0.5625 -1.0875,0 -2.0875,0.6625 -2.0875,1.675 0,0.9125 1.0125,1.3375 1.975,1.575 0.6625,0.1625 1.35,0.5125 1.35,1.15 0,0.5875 -0.6,0.95 -1.2375,0.95 -0.775,0 -1.525,-0.1875 -2.1875,-0.5625 v 0.525 c 0.6625,0.375 1.4125,0.5625 2.1875,0.5625 1.125,0 2.175,-0.675 2.175,-1.725 z"
           style="font-size:12.5px;line-height:1.25"
           id="path88" />
        <path
           d="m 54.743236,125.18403 c 0,-1.1 -0.775,-2.05 -1.85,-2.375 0.95,-0.275 1.5375,-0.9875 1.5375,-1.9375 0,-1.2375 -1,-2.0625 -2.5,-2.0625 -0.8125,0 -1.6,0.275 -2.2375,0.775 v 0.525 c 0.6375,-0.5 1.425,-0.775 2.2375,-0.775 0.9125,0 1.525,0.6125 1.525,1.5375 0,1.4875 -0.6875,1.875 -2.25,1.875 v 0.4625 c 1.6875,0 2.4375,0.4 2.4375,1.975 0,1.0875 -0.7,1.975 -1.55,1.975 -0.95,0 -1.875,-0.275 -2.6625,-0.775 v 0.525 c 0.7875,0.5 1.7125,0.775 2.6625,0.775 1.45,0 2.65,-1.125 2.65,-2.5 z"
           style="font-size:12.5px;line-height:1.25"
           id="path90" />
      </g>
      <path
         id="path3395"
         d="M 70.859026,226.77163 H 3.5361873 V 134.64565 H 70.859026"
         style="fill:#afdde9;fill-opacity:1;stroke:#000000;stroke-width:0.999213;stroke-linecap:round;stroke-linejoin:miter;stroke-miterlimit:4;stroke-dashoffset:0;stroke-opacity:1" />
      <path
         style="fill:#afdde9;fill-opacity:1;stroke:#000000;stroke-width:1px;stroke-linecap:butt;stroke-linejoin:miter;stroke-opacity:1"
         d="M 10.629917,148.81889 H -2.8443315e-6 L -7.0866128,155.90549 -2.8443315e-6,162.9921 H 10.629917 Z"
         id="path3397" />
      <path
         id="path3399"
         d="M 10.629921,173.62202 H 1.3288968e-6 L -7.0866087,180.70862 1.3288968e-6,187.79523 H 10.629921 Z"
         style="fill:#afdde9;fill-opacity:1;stroke:#000000;stroke-width:1px;stroke-linecap:butt;stroke-linejoin:miter;stroke-opacity:1" />
      <path
         style="fill:#afdde9;fill-opacity:1;stroke:#000000;stroke-width:1px;stroke-linecap:butt;stroke-linejoin:miter;stroke-opacity:1"
         d="m -3.5433045,198.42517 h 10.62992 l 7.0866105,7.0866 -7.0866105,7.08661 h -10.62992 z"
         id="path3401" />
      <path
         style="fill:none;fill-rule:evenodd;stroke:#000000;stroke-width:1px;stroke-linecap:butt;stroke-linejoin:miter;stroke-opacity:1"
         d="M -24.803143,155.90549 H -7.0866128"
         id="path3405" />
      <path
         id="path3407"
         d="M -24.803143,180.70864 H -7.0866128"
         style="fill:none;fill-rule:evenodd;stroke:#000000;stroke-width:1px;stroke-linecap:butt;stroke-linejoin:miter;stroke-opacity:1" />
      <path
         style="fill:none;fill-rule:evenodd;stroke:#000000;stroke-width:1px;stroke-linecap:butt;stroke-linejoin:miter;stroke-opacity:1"
         d="m -21.259841,205.51179 h 17.71653"
         id="path3409" />
      <g
         aria-label="FPGA"
         id="text3437"
         style="line-height:0%;font-family:Iwona;-inkscape-font-specification:Iwona;text-align:center;letter-spacing:0px;word-spacing:0px;text-anchor:middle;stroke-width:1px">
        <path
           d="m 33.100959,176.90863 v -0.575 h -5.95 v 8.75 h 1.025 v -4.0875 h 3.975 v -0.575 h -3.975 v -3.5125 z"
           style="font-size:12.5px;line-height:1.25"
           id="path93" />
        <path
           d="m 41.538452,178.70863 c 0,-1.7625 -1.5125,-2.5 -3.475,-2.5 -0.7,0 -1.4,0.0375 -2.0875,0.125 h -1 v 8.75 h 1.025 v -4.0625 c 0.675,0.125 1.375,0.2 2.0625,0.2 1.9625,0 3.475,-0.7375 3.475,-2.5125 z m -1.225,0 c 0,1.1375 -1.0625,1.9375 -2.25,1.9375 -0.6875,0 -1.3875,-0.075 -2.0625,-0.2 v -3.5375 c 0.6875,-0.0875 1.375,-0.125 2.0625,-0.125 1.1875,0 2.25,0.8 2.25,1.925 z"
           style="font-size:12.5px;line-height:1.25"
           id="path95" />
        <path
           d="m 50.388445,185.08363 v -3.675 h -1.025 v 2.4125 c -0.65,0.525 -1.45,0.8125 -2.2875,0.8125 -1.9875,0 -2.8125,-1.7125 -2.8125,-3.925 0,-2.2125 0.825,-3.925 2.8125,-3.925 1.175,0 2.2875,0.4625 3.1125,1.3 v -0.575 c -0.825,-0.8375 -1.9375,-1.3 -3.1125,-1.3 -2.575,0 -4.0375,1.825 -4.0375,4.5 0,2.675 1.4625,4.5 4.0375,4.5 0.8375,0 1.6375,-0.2875 2.2875,-0.8125 v 0.6875 z"
           style="font-size:12.5px;line-height:1.25"
           id="path97" />
        <path
           d="m 59.01343,185.08363 -3.175,-8.75 h -1.0875 l -3.2375,8.75 h 0.6125 l 1.1375,-3.0625 h 3.55 l 1.1125,3.0625 z m -2.4125,-3.6375 h -3.125 l 1.575,-4.275 z"
           style="font-size:12.5px;line-height:1.25"
           id="path99" />
      </g>
    </g>
    <g
       aria-label="PmodMIC3"
       id="text3754"
       style="line-height:0%;font-family:Iwona;-inkscape-font-specification:Iwona;letter-spacing:0px;word-spacing:0px;stroke-width:1px">
      <path
         d="m -243.61734,32.601376 c 0,-1.7625 -1.5125,-2.5 -3.475,-2.5 -0.7,0 -1.4,0.0375 -2.0875,0.125 h -1 v 8.75 h 1.025 v -4.0625 c 0.675,0.125 1.375,0.2 2.0625,0.2 1.9625,0 3.475,-0.7375 3.475,-2.5125 z m -1.225,0 c 0,1.1375 -1.0625,1.9375 -2.25,1.9375 -0.6875,0 -1.3875,-0.075 -2.0625,-0.2 v -3.5375 c 0.6875,-0.0875 1.375,-0.125 2.0625,-0.125 1.1875,0 2.25,0.8 2.25,1.925 z"
         style="font-size:12.5px;line-height:1.25"
         id="path102" />
      <path
         d="m -235.04235,38.976376 v -4.0625 c 0,-0.875 -0.5125,-1.6875 -1.325,-1.6875 -0.7,0 -1.35,0.3625 -1.725,0.95 -0.2,-0.55 -0.625,-0.95 -1.2,-0.95 -0.65,0 -1.175,0.45 -1.6,0.95 v -0.825 h -0.975 v 5.625 h 0.975 v -4.425 c 0.3,-0.3875 0.675,-0.75 1.1625,-0.75 0.5125,0 0.7875,0.55 0.7875,1.1125 v 4.0625 h 0.975 v -4.0625 c 0,-0.15 -0.0125,-0.2875 -0.0375,-0.4375 0.3,-0.3875 0.7125,-0.675 1.2,-0.675 0.5125,0 0.7875,0.55 0.7875,1.1125 v 4.0625 z"
         style="font-size:12.5px;line-height:1.25"
         id="path104" />
      <path
         d="m -228.57987,36.163876 c 0,-1.9125 -0.85,-2.9375 -2.4125,-2.9375 -1.575,0 -2.425,1.025 -2.425,2.9375 0,1.9125 0.85,2.9375 2.425,2.9375 1.5625,0 2.4125,-1.025 2.4125,-2.9375 z m -1.1,0 c 0,1.5625 -0.4625,2.4125 -1.3125,2.4125 -0.8625,0 -1.325,-0.85 -1.325,-2.4125 0,-1.5625 0.4625,-2.4125 1.325,-2.4125 0.85,0 1.3125,0.85 1.3125,2.4125 z"
         style="font-size:12.5px;line-height:1.25"
         id="path106" />
      <path
         d="m -222.36737,38.976376 v -8.75 h -0.975 v 3.3375 c -0.4875,-0.2125 -1.0125,-0.3375 -1.5375,-0.3375 -1.5625,0 -2.325,1.25 -2.325,2.9375 0,1.6625 0.625,2.9375 2.1375,2.9375 0.6375,0 1.225,-0.2875 1.725,-0.6875 v 0.5625 z m -0.975,-1.0875 c -0.375,0.375 -0.8375,0.6875 -1.375,0.6875 -1.1375,0 -1.3875,-1.1 -1.3875,-2.4125 0,-1.175 0.3625,-2.4125 1.3875,-2.4125 0.475,0 0.95,0.125 1.375,0.3375 z"
         style="font-size:12.5px;line-height:1.25"
         id="path108" />
      <path
         d="m -210.92988,38.976376 -0.5,-8.75 h -0.825 l -3.5125,7.3875 -3.525,-7.3875 h -0.825 l -0.5,8.75 h 0.575 l 0.4,-7.0875 3.3875,7.0875 h 0.4625 l 3.425,-7.175 0.4125,7.175 z"
         style="font-size:12.5px;line-height:1.25"
         id="path110" />
      <path
         d="m -207.9049,38.976376 v -8.75 h -1.025 v 8.75 z"
         style="font-size:12.5px;line-height:1.25"
         id="path112" />
      <path
         d="m -199.0299,32.326376 v -0.675 c -0.675,-0.975 -1.7875,-1.55 -2.9625,-1.55 -2.5375,0 -3.9125,1.85 -3.9125,4.5 0,2.65 1.375,4.5 3.9125,4.5 0.975,0 1.9375,-0.2875 2.7625,-0.825 v -0.575 c -0.825,0.5375 -1.7875,0.825 -2.7625,0.825 -1.9625,0 -2.6875,-1.7375 -2.6875,-3.925 0,-2.1875 0.725,-3.925 2.6875,-3.925 1.2,0 2.325,0.625 2.9625,1.65 z"
         style="font-size:12.5px;line-height:1.25"
         id="path114" />
      <path
         d="m -192.71741,36.601376 c 0,-1.1 -0.775,-2.05 -1.85,-2.375 0.95,-0.275 1.5375,-0.9875 1.5375,-1.9375 0,-1.2375 -1,-2.0625 -2.5,-2.0625 -0.8125,0 -1.6,0.275 -2.2375,0.775 v 0.525 c 0.6375,-0.5 1.425,-0.775 2.2375,-0.775 0.9125,0 1.525,0.6125 1.525,1.5375 0,1.4875 -0.6875,1.875 -2.25,1.875 v 0.4625 c 1.6875,0 2.4375,0.4 2.4375,1.975 0,1.0875 -0.7,1.975 -1.55,1.975 -0.95,0 -1.875,-0.275 -2.6625,-0.775 v 0.525 c 0.7875,0.5 1.7125,0.775 2.6625,0.775 1.45,0 2.65,-1.125 2.65,-2.5 z"
         style="font-size:12.5px;line-height:1.25"
         id="path116" />
    </g>
    <g
       aria-label="serial data"
       id="text3758"
       style="line-height:0%;font-family:Iwona;-inkscape-font-specification:Iwona;text-align:center;letter-spacing:0px;word-spacing:0px;text-anchor:middle;stroke-width:1px">
      <path
         d="m -104.879,111.78583 c 0,-0.9875 -1.05,-1.5 -2.075,-1.75 -0.6,-0.15 -1.25,-0.4 -1.25,-0.9875 0,-0.5375 0.55,-0.8875 1.15,-0.8875 0.6625,0 1.325,0.2 1.875,0.5625 v -0.525 c -0.55,-0.3625 -1.2125,-0.5625 -1.875,-0.5625 -1.0875,0 -2.0875,0.6625 -2.0875,1.675 0,0.9125 1.0125,1.3375 1.975,1.575 0.6625,0.1625 1.35,0.5125 1.35,1.15 0,0.5875 -0.6,0.95 -1.2375,0.95 -0.775,0 -1.525,-0.1875 -2.1875,-0.5625 v 0.525 c 0.6625,0.375 1.4125,0.5625 2.1875,0.5625 1.125,0 2.175,-0.675 2.175,-1.725 z"
         style="font-size:12.5px;line-height:1.25"
         id="path119" />
      <path
         d="m -98.791511,110.69833 v -0.125 c 0,-1.7625 -0.9625,-2.9375 -2.412499,-2.9375 -1.4625,0 -2.425,1.175 -2.425,2.9375 0,1.7625 0.9625,2.9375 2.425,2.9375 0.625,0 1.237499,-0.2 1.749999,-0.5625 v -0.525 c -0.587499,0.375 -1.062499,0.5125 -1.749999,0.5125 -1.0625,0 -1.325,-1.0125 -1.325,-2.2375 z m -1.1,-0.525 h -2.637499 c 0,-1 0.425,-2.0125 1.325,-2.0125 0.8875,0 1.312499,1.0125 1.312499,2.0125 z"
         style="font-size:12.5px;line-height:1.25"
         id="path121" />
      <path
         d="m -94.054027,108.53583 v -0.775 c -0.1375,-0.05 -0.2875,-0.0875 -0.425,-0.0875 -0.7,0 -1.2625,0.4875 -1.7125,1.025 v -0.9375 h -0.975 v 5.625 h 0.975 v -4.1625 c 0.375,-0.4375 0.85,-0.8125 1.425,-0.8125 0.2375,0 0.4875,0.05 0.7125,0.125 z"
         style="font-size:12.5px;line-height:1.25"
         id="path123" />
      <path
         d="m -90.516539,112.94833 v -0.375 c -0.2375,0.2 -0.5125,0.3625 -0.825,0.3625 -0.4625,0 -0.55,-0.575 -0.55,-1.1125 v -4.0625 h -0.975 v 4.0625 c 0,0.8375 0.325,1.6875 1.0625,1.6875 0.475,0 0.925,-0.2375 1.2875,-0.5625 z m -1.25,-7.1375 c 0,-0.3375 -0.275,-0.6125 -0.6125,-0.6125 -0.3375,0 -0.6125,0.275 -0.6125,0.6125 0,0.3375 0.275,0.6125 0.6125,0.6125 0.3375,0 0.6125,-0.275 0.6125,-0.6125 z"
         style="font-size:12.5px;line-height:1.25"
         id="path125" />
      <path
         d="m -84.866552,113.38583 v -3.5 c 0,-1.175 -0.725,-2.25 -1.8125,-2.25 -0.8,0 -1.55,0.275 -2.225,0.7 v 0.3875 c 0.5625,-0.3125 1.1875,-0.5125 1.8375,-0.5125 0.775,0 1.225,0.825 1.225,1.675 v 0.225 c -0.4875,-0.2125 -1.0125,-0.3375 -1.5375,-0.3375 -1.3375,0 -2.325,0.6125 -2.325,1.875 0,1.2 0.875,1.8625 2.1375,1.8625 0.6375,0 1.225,-0.2875 1.725,-0.6875 v 0.5625 z m -0.975,-1.0875 c -0.375,0.375 -0.8375,0.6875 -1.375,0.6875 -0.8375,0 -1.3875,-0.5125 -1.3875,-1.3375 0,-0.7625 0.625,-1.35 1.3875,-1.35 0.475,0 0.95,0.125 1.375,0.3375 z"
         style="font-size:12.5px;line-height:1.25"
         id="path127" />
      <path
         d="m -80.516562,112.94833 v -0.375 c -0.2375,0.2 -0.5125,0.3625 -0.825,0.3625 -0.4625,0 -0.55,-0.575 -0.55,-1.1125 v -7.1875 h -0.975 v 7.1875 c 0,0.8375 0.325,1.6875 1.0625,1.6875 0.475,0 0.925,-0.2375 1.2875,-0.5625 z"
         style="font-size:12.5px;line-height:1.25"
         id="path129" />
      <path
         d="m -70.579107,113.38583 v -8.75 h -0.975 v 3.3375 c -0.4875,-0.2125 -1.0125,-0.3375 -1.5375,-0.3375 -1.5625,0 -2.325,1.25 -2.325,2.9375 0,1.6625 0.625,2.9375 2.1375,2.9375 0.6375,0 1.225,-0.2875 1.725,-0.6875 v 0.5625 z m -0.975,-1.0875 c -0.375,0.375 -0.8375,0.6875 -1.375,0.6875 -1.1375,0 -1.3875,-1.1 -1.3875,-2.4125 0,-1.175 0.3625,-2.4125 1.3875,-2.4125 0.475,0 0.95,0.125 1.375,0.3375 z"
         style="font-size:12.5px;line-height:1.25"
         id="path131" />
      <path
         d="m -64.179113,113.38583 v -3.5 c 0,-1.175 -0.725,-2.25 -1.8125,-2.25 -0.8,0 -1.55,0.275 -2.225,0.7 v 0.3875 c 0.5625,-0.3125 1.1875,-0.5125 1.8375,-0.5125 0.775,0 1.225,0.825 1.225,1.675 v 0.225 c -0.4875,-0.2125 -1.0125,-0.3375 -1.5375,-0.3375 -1.3375,0 -2.325,0.6125 -2.325,1.875 0,1.2 0.875,1.8625 2.1375,1.8625 0.6375,0 1.225,-0.2875 1.725,-0.6875 v 0.5625 z m -0.975,-1.0875 c -0.375,0.375 -0.8375,0.6875 -1.375,0.6875 -0.8375,0 -1.3875,-0.5125 -1.3875,-1.3375 0,-0.7625 0.625,-1.35 1.3875,-1.35 0.475,0 0.95,0.125 1.375,0.3375 z"
         style="font-size:12.5px;line-height:1.25"
         id="path133" />
      <path
         d="m -59.529127,112.94833 v -0.375 c -0.2,0.2 -0.4375,0.3625 -0.725,0.3625 -0.45,0 -0.475,-0.5875 -0.475,-1.1125 v -3.5375 h 1.2 v -0.525 h -1.2 v -1.875 h -0.5875 c 0,1 -0.575,1.9375 -1.4875,1.9375 v 0.4625 h 1.1 v 3.5375 c 0,0.825 0.2625,1.6875 0.975,1.6875 0.4625,0 0.8625,-0.25 1.2,-0.5625 z"
         style="font-size:12.5px;line-height:1.25"
         id="path135" />
      <path
         d="m -53.754141,113.38583 v -3.5 c 0,-1.175 -0.725,-2.25 -1.8125,-2.25 -0.8,0 -1.55,0.275 -2.225,0.7 v 0.3875 c 0.5625,-0.3125 1.1875,-0.5125 1.8375,-0.5125 0.775,0 1.225,0.825 1.225,1.675 v 0.225 c -0.4875,-0.2125 -1.0125,-0.3375 -1.5375,-0.3375 -1.3375,0 -2.325,0.6125 -2.325,1.875 0,1.2 0.875,1.8625 2.1375,1.8625 0.6375,0 1.225,-0.2875 1.725,-0.6875 v 0.5625 z m -0.975,-1.0875 c -0.375,0.375 -0.8375,0.6875 -1.375,0.6875 -0.8375,0 -1.3875,-0.5125 -1.3875,-1.3375 0,-0.7625 0.625,-1.35 1.3875,-1.35 0.475,0 0.95,0.125 1.375,0.3375 z"
         style="font-size:12.5px;line-height:1.25"
         id="path137" />
    </g>
    <g
       aria-label="serial clock"
       id="text3762"
       style="line-height:0%;font-family:Iwona;-inkscape-font-specification:Iwona;text-align:center;letter-spacing:0px;word-spacing:0px;text-anchor:middle;stroke-width:1px">
      <path
         d="m -106.89247,86.98268 c 0,-0.9875 -1.05,-1.5 -2.075,-1.75 -0.6,-0.15 -1.25,-0.4 -1.25,-0.9875 0,-0.5375 0.55,-0.8875 1.15,-0.8875 0.6625,0 1.325,0.2 1.875,0.5625 v -0.525 c -0.55,-0.3625 -1.2125,-0.5625 -1.875,-0.5625 -1.0875,0 -2.0875,0.6625 -2.0875,1.675 0,0.9125 1.0125,1.3375 1.975,1.575 0.6625,0.1625 1.35,0.5125 1.35,1.15 0,0.5875 -0.6,0.95 -1.2375,0.95 -0.775,0 -1.525,-0.1875 -2.1875,-0.5625 v 0.525 c 0.6625,0.375 1.4125,0.5625 2.1875,0.5625 1.125,0 2.175,-0.675 2.175,-1.725 z"
         style="font-size:12.5px;line-height:1.25"
         id="path140" />
      <path
         d="m -100.80498,85.89518 v -0.125 c 0,-1.7625 -0.9625,-2.9375 -2.4125,-2.9375 -1.4625,0 -2.425,1.175 -2.425,2.9375 0,1.7625 0.9625,2.9375 2.425,2.9375 0.625,0 1.2375,-0.2 1.75,-0.5625 v -0.525 c -0.5875,0.375 -1.0625,0.5125 -1.75,0.5125 -1.0625,0 -1.325,-1.0125 -1.325,-2.2375 z m -1.1,-0.525 h -2.6375 c 0,-1 0.425,-2.0125 1.325,-2.0125 0.8875,0 1.3125,1.0125 1.3125,2.0125 z"
         style="font-size:12.5px;line-height:1.25"
         id="path142" />
      <path
         d="m -96.067497,83.73268 v -0.775 c -0.1375,-0.05 -0.2875,-0.0875 -0.425,-0.0875 -0.7,0 -1.2625,0.4875 -1.7125,1.025 v -0.9375 h -0.975 v 5.625 h 0.975 v -4.1625 c 0.375,-0.4375 0.85,-0.8125 1.425,-0.8125 0.2375,0 0.4875,0.05 0.7125,0.125 z"
         style="font-size:12.5px;line-height:1.25"
         id="path144" />
      <path
         d="m -92.530009,88.14518 v -0.375 c -0.2375,0.2 -0.5125,0.3625 -0.825,0.3625 -0.4625,0 -0.55,-0.575 -0.55,-1.1125 v -4.0625 h -0.975 v 4.0625 c 0,0.8375 0.325,1.6875 1.0625,1.6875 0.475,0 0.925,-0.2375 1.2875,-0.5625 z m -1.25,-7.1375 c 0,-0.3375 -0.275,-0.6125 -0.6125,-0.6125 -0.3375,0 -0.6125,0.275 -0.6125,0.6125 0,0.3375 0.275,0.6125 0.6125,0.6125 0.3375,0 0.6125,-0.275 0.6125,-0.6125 z"
         style="font-size:12.5px;line-height:1.25"
         id="path146" />
      <path
         d="m -86.880022,88.58268 v -3.5 c 0,-1.175 -0.725,-2.25 -1.8125,-2.25 -0.8,0 -1.55,0.275 -2.225,0.7 v 0.3875 c 0.5625,-0.3125 1.1875,-0.5125 1.8375,-0.5125 0.775,0 1.225,0.825 1.225,1.675 v 0.225 c -0.4875,-0.2125 -1.0125,-0.3375 -1.5375,-0.3375 -1.3375,0 -2.325,0.6125 -2.325,1.875 0,1.2 0.875,1.8625 2.1375,1.8625 0.6375,0 1.225,-0.2875 1.725,-0.6875 v 0.5625 z m -0.975,-1.0875 c -0.375,0.375 -0.8375,0.6875 -1.375,0.6875 -0.8375,0 -1.3875,-0.5125 -1.3875,-1.3375 0,-0.7625 0.625,-1.35 1.3875,-1.35 0.475,0 0.95,0.125 1.375,0.3375 z"
         style="font-size:12.5px;line-height:1.25"
         id="path148" />
      <path
         d="m -82.530032,88.14518 v -0.375 c -0.2375,0.2 -0.5125,0.3625 -0.825,0.3625 -0.4625,0 -0.55,-0.575 -0.55,-1.1125 v -7.1875 h -0.975 v 7.1875 c 0,0.8375 0.325,1.6875 1.0625,1.6875 0.475,0 0.925,-0.2375 1.2875,-0.5625 z"
         style="font-size:12.5px;line-height:1.25"
         id="path150" />
      <path
         d="m -73.067577,84.25768 v -0.525 c -0.4,-0.5625 -1.05,-0.9 -1.75,-0.9 -1.5625,0 -2.6125,1.175 -2.6125,2.9375 0,1.7625 1.05,2.9375 2.6125,2.9375 0.65,0 1.2625,-0.325 1.625,-0.8625 v -0.525 c -0.425,0.6375 -0.8625,0.8625 -1.625,0.8625 -0.9,0 -1.5125,-0.9625 -1.5125,-2.4125 0,-1.45 0.6125,-2.4125 1.5125,-2.4125 0.775,0 1.3,0.275 1.75,0.9 z"
         style="font-size:12.5px;line-height:1.25"
         id="path152" />
      <path
         d="m -69.405089,88.14518 v -0.375 c -0.2375,0.2 -0.5125,0.3625 -0.825,0.3625 -0.4625,0 -0.55,-0.575 -0.55,-1.1125 v -7.1875 h -0.975 v 7.1875 c 0,0.8375 0.325,1.6875 1.0625,1.6875 0.475,0 0.925,-0.2375 1.2875,-0.5625 z"
         style="font-size:12.5px;line-height:1.25"
         id="path154" />
      <path
         d="m -63.630114,85.77018 c 0,-1.9125 -0.85,-2.9375 -2.4125,-2.9375 -1.575,0 -2.425,1.025 -2.425,2.9375 0,1.9125 0.85,2.9375 2.425,2.9375 1.5625,0 2.4125,-1.025 2.4125,-2.9375 z m -1.1,0 c 0,1.5625 -0.4625,2.4125 -1.3125,2.4125 -0.8625,0 -1.325,-0.85 -1.325,-2.4125 0,-1.5625 0.4625,-2.4125 1.325,-2.4125 0.85,0 1.3125,0.85 1.3125,2.4125 z"
         style="font-size:12.5px;line-height:1.25"
         id="path156" />
      <path
         d="m -57.892616,84.25768 v -0.525 c -0.4,-0.5625 -1.05,-0.9 -1.75,-0.9 -1.5625,0 -2.6125,1.175 -2.6125,2.9375 0,1.7625 1.05,2.9375 2.6125,2.9375 0.65,0 1.2625,-0.325 1.625,-0.8625 v -0.525 c -0.425,0.6375 -0.8625,0.8625 -1.625,0.8625 -0.9,0 -1.5125,-0.9625 -1.5125,-2.4125 0,-1.45 0.6125,-2.4125 1.5125,-2.4125 0.775,0 1.3,0.275 1.75,0.9 z"
         style="font-size:12.5px;line-height:1.25"
         id="path158" />
      <path
         d="m -51.742628,88.58268 -2.9,-3.3375 2.8,-2.2875 h -0.775 l -2.9875,2.45 v -5.575 h -0.975 v 8.75 h 0.975 v -3.1125 l 2.7,3.1125 z"
         style="font-size:12.5px;line-height:1.25"
         id="path160" />
    </g>
    <g
       aria-label="chip select"
       id="text3766"
       style="line-height:0%;font-family:Iwona;-inkscape-font-specification:Iwona;text-align:center;letter-spacing:0px;word-spacing:0px;text-anchor:middle;stroke-width:1px">
      <path
         d="m -105.20496,59.454526 v -0.525 c -0.4,-0.5625 -1.05,-0.9 -1.75,-0.9 -1.5625,0 -2.6125,1.175 -2.6125,2.9375 0,1.7625 1.05,2.9375 2.6125,2.9375 0.65,0 1.2625,-0.325 1.625,-0.8625 v -0.525 c -0.425,0.6375 -0.8625,0.8625 -1.625,0.8625 -0.9,0 -1.5125,-0.9625 -1.5125,-2.4125 0,-1.45 0.6125,-2.4125 1.5125,-2.4125 0.775,0 1.3,0.275 1.75,0.9 z"
         style="font-size:12.5px;line-height:1.25"
         id="path163" />
      <path
         d="m -99.367471,63.779526 v -4.0625 c 0,-0.9125 -0.699999,-1.6875 -1.599999,-1.6875 -0.75,0 -1.4125,0.425 -1.95,0.95 v -3.95 h -0.975 v 8.75 h 0.975 v -4.4125 c 0.425,-0.425 0.95,-0.7625 1.5375,-0.7625 0.5875,0 1.0375,0.5125 1.0375,1.1125 v 4.0625 z"
         style="font-size:12.5px;line-height:1.25"
         id="path165" />
      <path
         d="m -95.142492,63.342026 v -0.375 c -0.2375,0.2 -0.5125,0.3625 -0.825,0.3625 -0.4625,0 -0.55,-0.575 -0.55,-1.1125 v -4.0625 h -0.975 v 4.0625 c 0,0.8375 0.325,1.6875 1.0625,1.6875 0.475,0 0.925,-0.2375 1.2875,-0.5625 z m -1.25,-7.1375 c 0,-0.3375 -0.275,-0.6125 -0.6125,-0.6125 -0.3375,0 -0.6125,0.275 -0.6125,0.6125 0,0.3375 0.275,0.6125 0.6125,0.6125 0.3375,0 0.6125,-0.275 0.6125,-0.6125 z"
         style="font-size:12.5px;line-height:1.25"
         id="path167" />
      <path
         d="m -89.117504,60.967026 c 0,-1.6625 -0.625,-2.9375 -2.1375,-2.9375 -0.6375,0 -1.225,0.2875 -1.725,0.6875 v -0.5625 h -0.975 v 8.5 h 0.975 v -3.0875 c 0.4875,0.2125 1.0125,0.3375 1.5375,0.3375 1.5625,0 2.325,-1.25 2.325,-2.9375 z m -1.1,0 c 0,1.175 -0.3625,2.4125 -1.3875,2.4125 -0.475,0 -0.95,-0.125 -1.375,-0.3375 v -3.8 c 0.375,-0.375 0.8375,-0.6875 1.375,-0.6875 1.1375,0 1.3875,1.1 1.3875,2.4125 z"
         style="font-size:12.5px;line-height:1.25"
         id="path169" />
      <path
         d="m -79.467546,62.179526 c 0,-0.9875 -1.05,-1.5 -2.075,-1.75 -0.6,-0.15 -1.25,-0.4 -1.25,-0.9875 0,-0.5375 0.55,-0.8875 1.15,-0.8875 0.6625,0 1.325,0.2 1.875,0.5625 v -0.525 c -0.55,-0.3625 -1.2125,-0.5625 -1.875,-0.5625 -1.0875,0 -2.0875,0.6625 -2.0875,1.675 0,0.9125 1.0125,1.3375 1.975,1.575 0.6625,0.1625 1.35,0.5125 1.35,1.15 0,0.5875 -0.6,0.95 -1.2375,0.95 -0.775,0 -1.525,-0.1875 -2.1875,-0.5625 v 0.525 c 0.6625,0.375 1.4125,0.5625 2.1875,0.5625 1.125,0 2.175,-0.675 2.175,-1.725 z"
         style="font-size:12.5px;line-height:1.25"
         id="path171" />
      <path
         d="m -73.38006,61.092026 v -0.125 c 0,-1.7625 -0.9625,-2.9375 -2.4125,-2.9375 -1.4625,0 -2.425,1.175 -2.425,2.9375 0,1.7625 0.9625,2.9375 2.425,2.9375 0.625,0 1.2375,-0.2 1.75,-0.5625 v -0.525 c -0.5875,0.375 -1.0625,0.5125 -1.75,0.5125 -1.0625,0 -1.325,-1.0125 -1.325,-2.2375 z m -1.1,-0.525 h -2.6375 c 0,-1 0.425,-2.0125 1.325,-2.0125 0.8875,0 1.3125,1.0125 1.3125,2.0125 z"
         style="font-size:12.5px;line-height:1.25"
         id="path173" />
      <path
         d="m -69.405076,63.342026 v -0.375 c -0.2375,0.2 -0.5125,0.3625 -0.825,0.3625 -0.4625,0 -0.55,-0.575 -0.55,-1.1125 v -7.1875 h -0.975 v 7.1875 c 0,0.8375 0.325,1.6875 1.0625,1.6875 0.475,0 0.925,-0.2375 1.2875,-0.5625 z"
         style="font-size:12.5px;line-height:1.25"
         id="path175" />
      <path
         d="m -63.6301,61.092026 v -0.125 c 0,-1.7625 -0.9625,-2.9375 -2.4125,-2.9375 -1.4625,0 -2.425,1.175 -2.425,2.9375 0,1.7625 0.9625,2.9375 2.425,2.9375 0.625,0 1.2375,-0.2 1.75,-0.5625 v -0.525 c -0.5875,0.375 -1.0625,0.5125 -1.75,0.5125 -1.0625,0 -1.325,-1.0125 -1.325,-2.2375 z m -1.1,-0.525 h -2.6375 c 0,-1 0.425,-2.0125 1.325,-2.0125 0.8875,0 1.3125,1.0125 1.3125,2.0125 z"
         style="font-size:12.5px;line-height:1.25"
         id="path177" />
      <path
         d="m -57.955118,59.454526 v -0.525 c -0.4,-0.5625 -1.05,-0.9 -1.75,-0.9 -1.5625,0 -2.6125,1.175 -2.6125,2.9375 0,1.7625 1.05,2.9375 2.6125,2.9375 0.65,0 1.2625,-0.325 1.625,-0.8625 v -0.525 c -0.425,0.6375 -0.8625,0.8625 -1.625,0.8625 -0.9,0 -1.5125,-0.9625 -1.5125,-2.4125 0,-1.45 0.6125,-2.4125 1.5125,-2.4125 0.775,0 1.3,0.275 1.75,0.9 z"
         style="font-size:12.5px;line-height:1.25"
         id="path179" />
      <path
         d="m -53.99263,63.342026 v -0.375 c -0.2,0.2 -0.4375,0.3625 -0.725,0.3625 -0.45,0 -0.475,-0.5875 -0.475,-1.1125 v -3.5375 h 1.2 v -0.525 h -1.2 v -1.875 h -0.5875 c 0,1 -0.575,1.9375 -1.4875,1.9375 v 0.4625 h 1.1 v 3.5375 c 0,0.825 0.2625,1.6875 0.975,1.6875 0.4625,0 0.8625,-0.25 1.2,-0.5625 z"
         style="font-size:12.5px;line-height:1.25"
         id="path181" />
    </g>
    <path
       style="fill:none;fill-rule:evenodd;stroke:#000000;stroke-width:1px;stroke-linecap:butt;stroke-linejoin:miter;stroke-opacity:1"
       d="m -127.55905,67.322833 h 92.125979"
       id="path3770" />
    <path
       id="path3772"
       d="m -127.55905,92.125983 h 92.125979"
       style="fill:none;fill-rule:evenodd;stroke:#000000;stroke-width:1px;stroke-linecap:butt;stroke-linejoin:miter;stroke-opacity:1" />
    <path
       style="fill:none;fill-rule:evenodd;stroke:#000000;stroke-width:1px;stroke-linecap:butt;stroke-linejoin:miter;stroke-opacity:1"
       d="m -124.01574,116.92913 h 92.125976"
       id="path3774" />
    <g
       id="g4178"
       transform="translate(-315.35434,-35.433073)">
      <path
         id="rect4180"
         style="opacity:1;fill:#afdde9;stroke:#000000;stroke-linecap:round;stroke-linejoin:bevel"
         d="M 42.519691,81.496063 H 145.2756 V 173.62204 H 42.519691 Z" />
      <path
         id="path4182"
         d="m 35.433076,120.47244 h 10.62992 l 7.08661,7.0866 -7.08661,7.0866 h -10.62992 z"
         style="fill:#afdde9;fill-opacity:1;stroke:#000000;stroke-width:1px;stroke-linecap:butt;stroke-linejoin:miter;stroke-opacity:1" />
      <g
         aria-label="Convertisseur
A/N
ADCS7476"
         id="text4290"
         style="line-height:0%;font-family:Iwona;-inkscape-font-specification:Iwona;text-align:center;letter-spacing:0px;word-spacing:0px;text-anchor:middle;stroke-width:1px">
        <path
           d="m 65.620317,109.62155 v -0.675 c -0.675,-0.975 -1.7875,-1.55 -2.9625,-1.55 -2.5375,0 -3.9125,1.85 -3.9125,4.5 0,2.65 1.375,4.5 3.9125,4.5 0.975,0 1.9375,-0.2875 2.7625,-0.825 v -0.575 c -0.825,0.5375 -1.7875,0.825 -2.7625,0.825 -1.9625,0 -2.6875,-1.7375 -2.6875,-3.925 0,-2.1875 0.725,-3.925 2.6875,-3.925 1.2,0 2.325,0.625 2.9625,1.65 z"
           style="font-size:12.5px;line-height:1.25"
           id="path185" />
        <path
           d="m 71.370296,113.45905 c 0,-1.9125 -0.85,-2.9375 -2.4125,-2.9375 -1.575,0 -2.425,1.025 -2.425,2.9375 0,1.9125 0.85,2.9375 2.425,2.9375 1.5625,0 2.4125,-1.025 2.4125,-2.9375 z m -1.1,0 c 0,1.5625 -0.4625,2.4125 -1.3125,2.4125 -0.8625,0 -1.325,-0.85 -1.325,-2.4125 0,-1.5625 0.4625,-2.4125 1.325,-2.4125 0.85,0 1.3125,0.85 1.3125,2.4125 z"
           style="font-size:12.5px;line-height:1.25"
           id="path187" />
        <path
           d="m 77.582793,116.27155 v -4.0625 c 0,-0.9125 -0.7,-1.6875 -1.6,-1.6875 -0.75,0 -1.4125,0.425 -1.95,0.95 v -0.825 h -0.975 v 5.625 h 0.975 v -4.4125 c 0.425,-0.425 0.95,-0.7625 1.5375,-0.7625 0.5875,0 1.0375,0.5125 1.0375,1.1125 v 4.0625 z"
           style="font-size:12.5px;line-height:1.25"
           id="path189" />
        <path
           d="m 83.482772,110.64655 h -0.5625 l -1.7,4.675 -1.65,-4.675 h -0.925 l 1.975,5.625 h 0.8125 z"
           style="font-size:12.5px;line-height:1.25"
           id="path191" />
        <path
           d="m 89.132766,113.58405 v -0.125 c 0,-1.7625 -0.9625,-2.9375 -2.4125,-2.9375 -1.4625,0 -2.425,1.175 -2.425,2.9375 0,1.7625 0.9625,2.9375 2.425,2.9375 0.625,0 1.2375,-0.2 1.75,-0.5625 v -0.525 c -0.5875,0.375 -1.0625,0.5125 -1.75,0.5125 -1.0625,0 -1.325,-1.0125 -1.325,-2.2375 z m -1.1,-0.525 h -2.6375 c 0,-1 0.425,-2.0125 1.325,-2.0125 0.8875,0 1.3125,1.0125 1.3125,2.0125 z"
           style="font-size:12.5px;line-height:1.25"
           id="path193" />
        <path
           d="m 93.870249,111.42155 v -0.775 c -0.1375,-0.05 -0.2875,-0.0875 -0.425,-0.0875 -0.7,0 -1.2625,0.4875 -1.7125,1.025 v -0.9375 h -0.975 v 5.625 h 0.975 v -4.1625 c 0.375,-0.4375 0.85,-0.8125 1.425,-0.8125 0.2375,0 0.4875,0.05 0.7125,0.125 z"
           style="font-size:12.5px;line-height:1.25"
           id="path195" />
        <path
           d="m 97.845222,115.83405 v -0.375 c -0.2,0.2 -0.4375,0.3625 -0.725,0.3625 -0.45,0 -0.475,-0.5875 -0.475,-1.1125 v -3.5375 h 1.2 v -0.525 h -1.2 v -1.875 h -0.5875 c 0,1 -0.575,1.9375 -1.4875,1.9375 v 0.4625 h 1.1 v 3.5375 c 0,0.825 0.2625,1.6875 0.975,1.6875 0.4625,0 0.8625,-0.25 1.2,-0.5625 z"
           style="font-size:12.5px;line-height:1.25"
           id="path197" />
        <path
           d="m 101.5077,115.83405 v -0.375 c -0.2375,0.2 -0.5125,0.3625 -0.825,0.3625 -0.4625,0 -0.55,-0.575 -0.55,-1.1125 v -4.0625 h -0.974999 v 4.0625 c 0,0.8375 0.325,1.6875 1.062499,1.6875 0.475,0 0.925,-0.2375 1.2875,-0.5625 z m -1.25,-7.1375 c 0,-0.3375 -0.274999,-0.6125 -0.612499,-0.6125 -0.3375,0 -0.6125,0.275 -0.6125,0.6125 0,0.3375 0.275,0.6125 0.6125,0.6125 0.3375,0 0.612499,-0.275 0.612499,-0.6125 z"
           style="font-size:12.5px;line-height:1.25"
           id="path199" />
        <path
           d="m 106.55769,114.67155 c 0,-0.9875 -1.05,-1.5 -2.075,-1.75 -0.6,-0.15 -1.25,-0.4 -1.25,-0.9875 0,-0.5375 0.55,-0.8875 1.15,-0.8875 0.6625,0 1.325,0.2 1.875,0.5625 v -0.525 c -0.55,-0.3625 -1.2125,-0.5625 -1.875,-0.5625 -1.0875,0 -2.0875,0.6625 -2.0875,1.675 0,0.9125 1.0125,1.3375 1.975,1.575 0.6625,0.1625 1.35,0.5125 1.35,1.15 0,0.5875 -0.6,0.95 -1.2375,0.95 -0.775,0 -1.525,-0.1875 -2.1875,-0.5625 v 0.525 c 0.6625,0.375 1.4125,0.5625 2.1875,0.5625 1.125,0 2.175,-0.675 2.175,-1.725 z"
           style="font-size:12.5px;line-height:1.25"
           id="path201" />
        <path
           d="m 111.77016,114.67155 c 0,-0.9875 -1.05,-1.5 -2.075,-1.75 -0.6,-0.15 -1.25,-0.4 -1.25,-0.9875 0,-0.5375 0.55,-0.8875 1.15,-0.8875 0.6625,0 1.325,0.2 1.875,0.5625 v -0.525 c -0.55,-0.3625 -1.2125,-0.5625 -1.875,-0.5625 -1.0875,0 -2.0875,0.6625 -2.0875,1.675 0,0.9125 1.0125,1.3375 1.975,1.575 0.6625,0.1625 1.35,0.5125 1.35,1.15 0,0.5875 -0.6,0.95 -1.2375,0.95 -0.775,0 -1.525,-0.1875 -2.1875,-0.5625 v 0.525 c 0.6625,0.375 1.4125,0.5625 2.1875,0.5625 1.125,0 2.175,-0.675 2.175,-1.725 z"
           style="font-size:12.5px;line-height:1.25"
           id="path203" />
        <path
           d="m 117.85765,113.58405 v -0.125 c 0,-1.7625 -0.9625,-2.9375 -2.4125,-2.9375 -1.4625,0 -2.425,1.175 -2.425,2.9375 0,1.7625 0.9625,2.9375 2.425,2.9375 0.625,0 1.2375,-0.2 1.75,-0.5625 v -0.525 c -0.5875,0.375 -1.0625,0.5125 -1.75,0.5125 -1.0625,0 -1.325,-1.0125 -1.325,-2.2375 z m -1.1,-0.525 h -2.6375 c 0,-1 0.425,-2.0125 1.325,-2.0125 0.8875,0 1.3125,1.0125 1.3125,2.0125 z"
           style="font-size:12.5px;line-height:1.25"
           id="path205" />
        <path
           d="m 123.94514,116.27155 v -5.625 h -0.975 v 4.4125 c -0.425,0.425 -0.95,0.7625 -1.5375,0.7625 -0.5875,0 -1.0375,-0.5125 -1.0375,-1.1125 v -4.0625 h -0.975 v 4.0625 c 0,0.9125 0.7,1.6875 1.6,1.6875 0.75,0 1.4125,-0.425 1.95,-0.95 v 0.825 z"
           style="font-size:12.5px;line-height:1.25"
           id="path207" />
        <path
           d="m 129.05762,111.42155 v -0.775 c -0.1375,-0.05 -0.2875,-0.0875 -0.425,-0.0875 -0.7,0 -1.2625,0.4875 -1.7125,1.025 v -0.9375 h -0.975 v 5.625 h 0.975 v -4.1625 c 0.375,-0.4375 0.85,-0.8125 1.425,-0.8125 0.2375,0 0.4875,0.05 0.7125,0.125 z"
           style="font-size:12.5px;line-height:1.25"
           id="path209" />
        <path
           d="m 90.401484,131.89655 -3.175,-8.75 h -1.0875 l -3.2375,8.75 h 0.6125 l 1.1375,-3.0625 h 3.55 l 1.1125,3.0625 z m -2.4125,-3.6375 h -3.125 l 1.575,-4.275 z"
           style="font-size:12.5px;line-height:1.25"
           id="path211" />
        <path
           d="m 94.201471,123.14655 h -0.65 l -2.55,10.1875 h 0.65 z"
           style="font-size:12.5px;line-height:1.25"
           id="path213" />
        <path
           d="m 103.27646,131.89655 v -8.75 h -0.575 v 7.35 l -6.025004,-7.35 h -0.75 v 8.75 h 0.575 v -7.35 l 6.025004,7.35 z"
           style="font-size:12.5px;line-height:1.25"
           id="path215" />
        <path
           d="m 71.557738,147.52155 -3.175,-8.75 h -1.0875 l -3.2375,8.75 h 0.6125 l 1.1375,-3.0625 h 3.55 l 1.1125,3.0625 z m -2.4125,-3.6375 h -3.125 l 1.575,-4.275 z"
           style="font-size:12.5px;line-height:1.25"
           id="path217" />
        <path
           d="m 80.282724,143.14655 c 0,-2.675 -1.4625,-4.5 -4.0375,-4.5 -0.775,0 -1.55,0.0375 -2.3125,0.125 h -1 v 8.75 h 1 c 0.7625,0.0875 1.5375,0.125 2.3125,0.125 2.575,0 4.0375,-1.825 4.0375,-4.5 z m -1.225,0 c 0,1.9875 -1.0125,3.925 -2.8125,3.925 -0.7625,0 -1.525,-0.0375 -2.2875,-0.125 v -7.6 c 0.7625,-0.0875 1.525,-0.125 2.2875,-0.125 1.8,0 2.8125,1.9375 2.8125,3.925 z"
           style="font-size:12.5px;line-height:1.25"
           id="path219" />
        <path
           d="m 88.657713,140.87155 v -0.675 c -0.675,-0.975 -1.7875,-1.55 -2.9625,-1.55 -2.5375,0 -3.9125,1.85 -3.9125,4.5 0,2.65 1.375,4.5 3.9125,4.5 0.975,0 1.9375,-0.2875 2.7625,-0.825 v -0.575 c -0.825,0.5375 -1.7875,0.825 -2.7625,0.825 -1.9625,0 -2.6875,-1.7375 -2.6875,-3.925 0,-2.1875 0.725,-3.925 2.6875,-3.925 1.2,0 2.325,0.625 2.9625,1.65 z"
           style="font-size:12.5px;line-height:1.25"
           id="path221" />
        <path
           d="m 96.370206,144.98405 c 0,-1.5375 -1.5625,-2.45 -3.175,-2.7875 -1.075,-0.225 -2.2875,-0.5 -2.2875,-1.5 0,-0.9875 1.0625,-1.55 2.1625,-1.55 1.0125,0 2,0.3 2.8,0.925 v -0.5 c -0.8,-0.625 -1.7875,-1 -2.8,-1 -1.625,0 -3.15,0.9125 -3.15,2.3875 0,1.4125 1.525,2.125 3.0125,2.4375 1.1875,0.25 2.45,0.7375 2.45,1.85 0,1.1375 -1.1125,1.9 -2.3125,1.9 -1.1625,0 -2.3125,-0.3 -3.2875,-0.925 v 0.5 c 0.9875,0.625 2.1125,1 3.2875,1 1.725,0 3.3,-1.1125 3.3,-2.7375 z"
           style="font-size:12.5px;line-height:1.25"
           id="path223" />
        <path
           d="m 103.0577,139.32155 v -0.425 h -5.3125 v 0.775 h 4.075 l -3.6875,7.85 h 1.075 z"
           style="font-size:12.5px;line-height:1.25"
           id="path225" />
        <path
           d="m 109.62019,144.52155 v -0.575 h -0.9375 v -5.05 h -0.975 l -3.4,5.05 v 0.575 h 3.4 v 3 h 0.975 v -3 z m -1.9125,-0.575 h -2.7625 l 2.7625,-4.1125 z"
           style="font-size:12.5px;line-height:1.25"
           id="path227" />
        <path
           d="m 116.18269,139.32155 v -0.425 h -5.3125 v 0.775 h 4.075 l -3.6875,7.85 h 1.075 z"
           style="font-size:12.5px;line-height:1.25"
           id="path229" />
        <path
           d="m 122.74518,144.70905 c 0,-1.8 -0.7125,-2.9375 -2.3875,-2.9375 -0.725,0 -1.4,0.3375 -1.825,0.9125 0,-1.6375 0.4125,-3.3875 1.825,-3.3875 0.6375,0 1.2625,0.2125 1.7625,0.6125 v -0.525 c -0.5,-0.4 -1.125,-0.6125 -1.7625,-0.6125 -1.9625,0 -2.925,2.225 -2.925,4.4375 0,3.1 0.8,4.4375 2.6625,4.4375 1.5875,0 2.65,-1.175 2.65,-2.9375 z m -1.1,0 c 0,1.45 -0.625,2.4125 -1.55,2.4125 -1.75,0 -1.5625,-1.8875 -1.5625,-3.9125 0.425,-0.575 1.1,-0.9125 1.825,-0.9125 1,0 1.2875,1.25 1.2875,2.4125 z"
           style="font-size:12.5px;line-height:1.25"
           id="path231" />
      </g>
      <path
         style="fill:#afdde9;fill-opacity:1;stroke:#000000;stroke-width:1px;stroke-linecap:butt;stroke-linejoin:miter;stroke-opacity:1"
         d="M 152.36222,95.669292 H 141.7323 l -7.08661,7.086598 7.08661,7.08663 h 10.62992 z"
         id="path4294" />
      <path
         id="path4296"
         d="M 152.36222,120.47245 H 141.7323 l -7.08661,7.0866 7.08661,7.08661 h 10.62992 z"
         style="fill:#afdde9;fill-opacity:1;stroke:#000000;stroke-width:1px;stroke-linecap:butt;stroke-linejoin:miter;stroke-opacity:1" />
      <path
         style="fill:#afdde9;fill-opacity:1;stroke:#000000;stroke-width:1px;stroke-linecap:butt;stroke-linejoin:miter;stroke-opacity:1"
         d="m 138.18899,145.2756 h 10.62992 l 7.08661,7.0866 -7.08661,7.08661 h -10.62992 z"
         id="path3427" />
    </g>
    <path
       id="path4350"
       d="m -297.63779,92.125983 h 17.71653"
       style="fill:none;fill-rule:evenodd;stroke:#000000;stroke-width:1px;stroke-linecap:butt;stroke-linejoin:miter;stroke-opacity:1" />
    <path
       id="path4358"
       d="m -127.55905,60.236219 h -10.62992 l -7.08661,7.0866 7.08661,7.08661 h 10.62992 z"
       style="fill:#afdde9;fill-opacity:1;stroke:#000000;stroke-width:1px;stroke-linecap:butt;stroke-linejoin:miter;stroke-opacity:1" />
    <path
       style="fill:#afdde9;fill-opacity:1;stroke:#000000;stroke-width:1px;stroke-linecap:butt;stroke-linejoin:miter;stroke-opacity:1"
       d="m -127.55905,85.039368 h -10.62992 l -7.08661,7.0866 7.08661,7.08661 h 10.62992 z"
       id="path4360" />
    <path
       id="path4362"
       d="m -162.99211,92.125981 h 17.71653"
       style="fill:none;fill-rule:evenodd;stroke:#000000;stroke-width:1px;stroke-linecap:butt;stroke-linejoin:miter;stroke-opacity:1" />
    <path
       style="fill:none;fill-rule:evenodd;stroke:#000000;stroke-width:1px;stroke-linecap:butt;stroke-linejoin:miter;stroke-opacity:1"
       d="m -159.44881,116.92913 h 17.71653"
       id="path4364" />
    <g
       aria-label="Connecteur
Pmod"
       id="text4382"
       style="line-height:0%;font-family:Iwona;-inkscape-font-specification:Iwona;text-align:center;letter-spacing:0px;word-spacing:0px;text-anchor:middle;stroke-width:1px">
      <path
         d="m -100.32387,163.42874 v -0.675 c -0.675,-0.975 -1.7875,-1.55 -2.9625,-1.55 -2.5375,0 -3.9125,1.85 -3.9125,4.5 0,2.65 1.375,4.5 3.9125,4.5 0.975,0 1.9375,-0.2875 2.7625,-0.825 v -0.575 c -0.825,0.5375 -1.7875,0.825 -2.7625,0.825 -1.9625,0 -2.6875,-1.7375 -2.6875,-3.925 0,-2.1875 0.725,-3.925 2.6875,-3.925 1.2,0 2.325,0.625 2.9625,1.65 z"
         style="font-size:12.5px;line-height:1.25"
         id="path234" />
      <path
         d="m -94.57389,167.26624 c 0,-1.9125 -0.85,-2.9375 -2.4125,-2.9375 -1.575,0 -2.425,1.025 -2.425,2.9375 0,1.9125 0.85,2.9375 2.425,2.9375 1.5625,0 2.4125,-1.025 2.4125,-2.9375 z m -1.1,0 c 0,1.5625 -0.4625,2.4125 -1.3125,2.4125 -0.8625,0 -1.325,-0.85 -1.325,-2.4125 0,-1.5625 0.4625,-2.4125 1.325,-2.4125 0.85,0 1.3125,0.85 1.3125,2.4125 z"
         style="font-size:12.5px;line-height:1.25"
         id="path236" />
      <path
         d="m -88.361394,170.07874 v -4.0625 c 0,-0.9125 -0.7,-1.6875 -1.6,-1.6875 -0.75,0 -1.4125,0.425 -1.95,0.95 v -0.825 h -0.975 v 5.625 h 0.975 v -4.4125 c 0.425,-0.425 0.95,-0.7625 1.5375,-0.7625 0.5875,0 1.0375,0.5125 1.0375,1.1125 v 4.0625 z"
         style="font-size:12.5px;line-height:1.25"
         id="path238" />
      <path
         d="m -81.898914,170.07874 v -4.0625 c 0,-0.9125 -0.7,-1.6875 -1.6,-1.6875 -0.75,0 -1.4125,0.425 -1.95,0.95 v -0.825 h -0.975 v 5.625 h 0.975 v -4.4125 c 0.425,-0.425 0.95,-0.7625 1.5375,-0.7625 0.5875,0 1.0375,0.5125 1.0375,1.1125 v 4.0625 z"
         style="font-size:12.5px;line-height:1.25"
         id="path240" />
      <path
         d="m -75.436435,167.39124 v -0.125 c 0,-1.7625 -0.9625,-2.9375 -2.4125,-2.9375 -1.4625,0 -2.425,1.175 -2.425,2.9375 0,1.7625 0.9625,2.9375 2.425,2.9375 0.625,0 1.2375,-0.2 1.75,-0.5625 v -0.525 c -0.5875,0.375 -1.0625,0.5125 -1.75,0.5125 -1.0625,0 -1.325,-1.0125 -1.325,-2.2375 z m -1.1,-0.525 h -2.6375 c 0,-1 0.425,-2.0125 1.325,-2.0125 0.8875,0 1.3125,1.0125 1.3125,2.0125 z"
         style="font-size:12.5px;line-height:1.25"
         id="path242" />
      <path
         d="m -69.761453,165.75374 v -0.525 c -0.4,-0.5625 -1.05,-0.9 -1.75,-0.9 -1.5625,0 -2.6125,1.175 -2.6125,2.9375 0,1.7625 1.05,2.9375 2.6125,2.9375 0.65,0 1.2625,-0.325 1.625,-0.8625 v -0.525 c -0.425,0.6375 -0.8625,0.8625 -1.625,0.8625 -0.9,0 -1.5125,-0.9625 -1.5125,-2.4125 0,-1.45 0.6125,-2.4125 1.5125,-2.4125 0.775,0 1.3,0.275 1.75,0.9 z"
         style="font-size:12.5px;line-height:1.25"
         id="path244" />
      <path
         d="m -65.798965,169.64124 v -0.375 c -0.2,0.2 -0.4375,0.3625 -0.725,0.3625 -0.45,0 -0.475,-0.5875 -0.475,-1.1125 v -3.5375 h 1.2 v -0.525 h -1.2 v -1.875 h -0.5875 c 0,1 -0.575,1.9375 -1.4875,1.9375 v 0.4625 h 1.1 v 3.5375 c 0,0.825 0.2625,1.6875 0.975,1.6875 0.4625,0 0.8625,-0.25 1.2,-0.5625 z"
         style="font-size:12.5px;line-height:1.25"
         id="path246" />
      <path
         d="m -59.898983,167.39124 v -0.125 c 0,-1.7625 -0.9625,-2.9375 -2.4125,-2.9375 -1.4625,0 -2.425,1.175 -2.425,2.9375 0,1.7625 0.9625,2.9375 2.425,2.9375 0.625,0 1.2375,-0.2 1.75,-0.5625 v -0.525 c -0.5875,0.375 -1.0625,0.5125 -1.75,0.5125 -1.0625,0 -1.325,-1.0125 -1.325,-2.2375 z m -1.1,-0.525 h -2.6375 c 0,-1 0.425,-2.0125 1.325,-2.0125 0.8875,0 1.3125,1.0125 1.3125,2.0125 z"
         style="font-size:12.5px;line-height:1.25"
         id="path248" />
      <path
         d="m -53.8115,170.07874 v -5.625 h -0.975 v 4.4125 c -0.425,0.425 -0.95,0.7625 -1.5375,0.7625 -0.5875,0 -1.0375,-0.5125 -1.0375,-1.1125 v -4.0625 h -0.975 v 4.0625 c 0,0.9125 0.7,1.6875 1.6,1.6875 0.75,0 1.4125,-0.425 1.95,-0.95 v 0.825 z"
         style="font-size:12.5px;line-height:1.25"
         id="path250" />
      <path
         d="m -48.699022,165.22874 v -0.775 c -0.1375,-0.05 -0.2875,-0.0875 -0.425,-0.0875 -0.7,0 -1.2625,0.4875 -1.7125,1.025 v -0.9375 h -0.975 v 5.625 h 0.975 v -4.1625 c 0.375,-0.4375 0.85,-0.8125 1.425,-0.8125 0.2375,0 0.4875,0.05 0.7125,0.125 z"
         style="font-size:12.5px;line-height:1.25"
         id="path252" />
      <path
         d="m -85.417682,179.32874 c 0,-1.7625 -1.5125,-2.5 -3.475,-2.5 -0.7,0 -1.4,0.0375 -2.0875,0.125 h -1 v 8.75 h 1.025 v -4.0625 c 0.675,0.125 1.375,0.2 2.0625,0.2 1.9625,0 3.475,-0.7375 3.475,-2.5125 z m -1.225,0 c 0,1.1375 -1.0625,1.9375 -2.25,1.9375 -0.6875,0 -1.3875,-0.075 -2.0625,-0.2 v -3.5375 c 0.6875,-0.0875 1.375,-0.125 2.0625,-0.125 1.1875,0 2.25,0.8 2.25,1.925 z"
         style="font-size:12.5px;line-height:1.25"
         id="path254" />
      <path
         d="m -76.842689,185.70374 v -4.0625 c 0,-0.875 -0.5125,-1.6875 -1.325,-1.6875 -0.7,0 -1.35,0.3625 -1.725,0.95 -0.2,-0.55 -0.625,-0.95 -1.2,-0.95 -0.65,0 -1.175,0.45 -1.6,0.95 v -0.825 h -0.975 v 5.625 h 0.975 v -4.425 c 0.3,-0.3875 0.675,-0.75 1.1625,-0.75 0.5125,0 0.7875,0.55 0.7875,1.1125 v 4.0625 h 0.975 v -4.0625 c 0,-0.15 -0.0125,-0.2875 -0.0375,-0.4375 0.3,-0.3875 0.7125,-0.675 1.2,-0.675 0.5125,0 0.7875,0.55 0.7875,1.1125 v 4.0625 z"
         style="font-size:12.5px;line-height:1.25"
         id="path256" />
      <path
         d="m -70.38021,182.89124 c 0,-1.9125 -0.85,-2.9375 -2.4125,-2.9375 -1.575,0 -2.425,1.025 -2.425,2.9375 0,1.9125 0.85,2.9375 2.425,2.9375 1.5625,0 2.4125,-1.025 2.4125,-2.9375 z m -1.1,0 c 0,1.5625 -0.4625,2.4125 -1.3125,2.4125 -0.8625,0 -1.325,-0.85 -1.325,-2.4125 0,-1.5625 0.4625,-2.4125 1.325,-2.4125 0.85,0 1.3125,0.85 1.3125,2.4125 z"
         style="font-size:12.5px;line-height:1.25"
         id="path258" />
      <path
         d="m -64.167714,185.70374 v -8.75 h -0.975 v 3.3375 c -0.4875,-0.2125 -1.0125,-0.3375 -1.5375,-0.3375 -1.5625,0 -2.325,1.25 -2.325,2.9375 0,1.6625 0.625,2.9375 2.1375,2.9375 0.6375,0 1.225,-0.2875 1.725,-0.6875 v 0.5625 z m -0.975,-1.0875 c -0.375,0.375 -0.8375,0.6875 -1.375,0.6875 -1.1375,0 -1.3875,-1.1 -1.3875,-2.4125 0,-1.175 0.3625,-2.4125 1.3875,-2.4125 0.475,0 0.95,0.125 1.375,0.3375 z"
         style="font-size:12.5px;line-height:1.25"
         id="path260" />
    </g>
    <path
       id="path3425"
       d="m -141.73227,109.84251 h 10.62992 l 7.08661,7.0866 -7.08661,7.08661 h -10.62992 z"
       style="fill:#afdde9;fill-opacity:1;stroke:#000000;stroke-width:1px;stroke-linecap:butt;stroke-linejoin:miter;stroke-opacity:1" />
    <path
       style="fill:none;fill-rule:evenodd;stroke:#000000;stroke-width:1px;stroke-linecap:butt;stroke-linejoin:miter;stroke-opacity:1"
       d="m -162.99211,67.322817 h 17.71653"
       id="path3429" />
    <g
       transform="translate(-455.06879,-35.433073)"
       id="g3431">
      <path
         id="rect3433"
         style="opacity:1;fill:#afdde9;stroke:#000000;stroke-linecap:round;stroke-linejoin:bevel"
         d="M 83.021545,106.29921 H 145.2756 V 148.8189 H 83.021545 Z" />
      <path
         style="fill:#afdde9;fill-opacity:1;stroke:#000000;stroke-width:1px;stroke-linecap:butt;stroke-linejoin:miter;stroke-opacity:1"
         d="m 75.934937,120.47244 h 10.62992 l 7.08661,7.0866 -7.08661,7.0866 h -10.62992 z"
         id="path3435" />
      <g
         aria-label="Ampli"
         id="text3438"
         style="line-height:0%;font-family:Iwona;-inkscape-font-specification:Iwona;text-align:center;letter-spacing:0px;word-spacing:0px;text-anchor:middle;stroke-width:1px">
        <path
           d="m 107.4801,130.49655 -3.175,-8.75 h -1.0875 l -3.237497,8.75 h 0.612497 l 1.1375,-3.0625 h 3.55 l 1.1125,3.0625 z m -2.4125,-3.6375 h -3.125 l 1.575,-4.275 z"
           style="font-size:12.5px;line-height:1.25"
           id="path264" />
        <path
           d="m 115.43009,130.49655 v -4.0625 c 0,-0.875 -0.5125,-1.6875 -1.325,-1.6875 -0.7,0 -1.35,0.3625 -1.725,0.95 -0.2,-0.55 -0.625,-0.95 -1.2,-0.95 -0.65,0 -1.175,0.45 -1.6,0.95 v -0.825 h -0.975 v 5.625 h 0.975 v -4.425 c 0.3,-0.3875 0.675,-0.75 1.1625,-0.75 0.5125,0 0.7875,0.55 0.7875,1.1125 v 4.0625 h 0.975 v -4.0625 c 0,-0.15 -0.0125,-0.2875 -0.0375,-0.4375 0.3,-0.3875 0.7125,-0.675 1.2,-0.675 0.5125,0 0.7875,0.55 0.7875,1.1125 v 4.0625 z"
           style="font-size:12.5px;line-height:1.25"
           id="path266" />
        <path
           d="m 122.14257,127.68405 c 0,-1.6625 -0.625,-2.9375 -2.1375,-2.9375 -0.6375,0 -1.225,0.2875 -1.725,0.6875 v -0.5625 h -0.975 v 8.5 h 0.975 v -3.0875 c 0.4875,0.2125 1.0125,0.3375 1.5375,0.3375 1.5625,0 2.325,-1.25 2.325,-2.9375 z m -1.1,0 c 0,1.175 -0.3625,2.4125 -1.3875,2.4125 -0.475,0 -0.95,-0.125 -1.375,-0.3375 v -3.8 c 0.375,-0.375 0.8375,-0.6875 1.375,-0.6875 1.1375,0 1.3875,1.1 1.3875,2.4125 z"
           style="font-size:12.5px;line-height:1.25"
           id="path268" />
        <path
           d="m 126.18005,130.05905 v -0.375 c -0.2375,0.2 -0.5125,0.3625 -0.825,0.3625 -0.4625,0 -0.55,-0.575 -0.55,-1.1125 v -7.1875 h -0.975 v 7.1875 c 0,0.8375 0.325,1.6875 1.0625,1.6875 0.475,0 0.925,-0.2375 1.2875,-0.5625 z"
           style="font-size:12.5px;line-height:1.25"
           id="path270" />
        <path
           d="m 129.71752,130.05905 v -0.375 c -0.2375,0.2 -0.5125,0.3625 -0.825,0.3625 -0.4625,0 -0.55,-0.575 -0.55,-1.1125 v -4.0625 h -0.975 v 4.0625 c 0,0.8375 0.325,1.6875 1.0625,1.6875 0.475,0 0.925,-0.2375 1.2875,-0.5625 z m -1.25,-7.1375 c 0,-0.3375 -0.275,-0.6125 -0.6125,-0.6125 -0.3375,0 -0.6125,0.275 -0.6125,0.6125 0,0.3375 0.275,0.6125 0.6125,0.6125 0.3375,0 0.6125,-0.275 0.6125,-0.6125 z"
           style="font-size:12.5px;line-height:1.25"
           id="path272" />
      </g>
      <path
         style="fill:#afdde9;fill-opacity:1;stroke:#000000;stroke-width:1px;stroke-linecap:butt;stroke-linejoin:miter;stroke-opacity:1"
         d="m 139.71446,120.47245 h 10.62992 l 7.08661,7.0866 -7.08661,7.08661 h -10.62992 z"
         id="path3448" />
    </g>
    <g
       id="g3457"
       transform="translate(-554.28139,-35.433073)">
      <path
         id="rect3459"
         style="opacity:1;fill:#afdde9;stroke:#000000;stroke-linecap:round;stroke-linejoin:bevel"
         d="M 100.73808,106.29921 H 145.2756 V 148.8189 H 100.73808 Z" />
      <g
         aria-label="Mic."
         id="text3463"
         style="line-height:0%;font-family:Iwona;-inkscape-font-specification:Iwona;text-align:center;letter-spacing:0px;word-spacing:0px;text-anchor:middle;stroke-width:1px">
        <path
           d="m 121.0542,130.49655 -0.5,-8.75 h -0.825 l -3.5125,7.3875 -3.525,-7.3875 h -0.825 l -0.5,8.75 h 0.575 l 0.4,-7.0875 3.3875,7.0875 h 0.4625 l 3.425,-7.175 0.4125,7.175 z"
           style="font-size:12.5px;line-height:1.25"
           id="path276" />
        <path
           d="m 125.09168,130.05905 v -0.375 c -0.2375,0.2 -0.5125,0.3625 -0.825,0.3625 -0.4625,0 -0.55,-0.575 -0.55,-1.1125 v -4.0625 h -0.975 v 4.0625 c 0,0.8375 0.325,1.6875 1.0625,1.6875 0.475,0 0.925,-0.2375 1.2875,-0.5625 z m -1.25,-7.1375 c 0,-0.3375 -0.275,-0.6125 -0.6125,-0.6125 -0.3375,0 -0.6125,0.275 -0.6125,0.6125 0,0.3375 0.275,0.6125 0.6125,0.6125 0.3375,0 0.6125,-0.275 0.6125,-0.6125 z"
           style="font-size:12.5px;line-height:1.25"
           id="path278" />
        <path
           d="m 130.39167,126.17155 v -0.525 c -0.4,-0.5625 -1.05,-0.9 -1.75,-0.9 -1.5625,0 -2.6125,1.175 -2.6125,2.9375 0,1.7625 1.05,2.9375 2.6125,2.9375 0.65,0 1.2625,-0.325 1.625,-0.8625 v -0.525 c -0.425,0.6375 -0.8625,0.8625 -1.625,0.8625 -0.9,0 -1.5125,-0.9625 -1.5125,-2.4125 0,-1.45 0.6125,-2.4125 1.5125,-2.4125 0.775,0 1.3,0.275 1.75,0.9 z"
           style="font-size:12.5px;line-height:1.25"
           id="path280" />
        <path
           d="m 132.65415,129.88405 c 0,-0.3375 -0.275,-0.6125 -0.6125,-0.6125 -0.3375,0 -0.6125,0.275 -0.6125,0.6125 0,0.3375 0.275,0.6125 0.6125,0.6125 0.3375,0 0.6125,-0.275 0.6125,-0.6125 z"
           style="font-size:12.5px;line-height:1.25"
           id="path282" />
      </g>
      <path
         id="path3467"
         d="m 139.71446,120.47245 h 10.62992 l 7.08661,7.0866 -7.08661,7.08661 h -10.62992 z"
         style="fill:#afdde9;fill-opacity:1;stroke:#000000;stroke-width:1px;stroke-linecap:butt;stroke-linejoin:miter;stroke-opacity:1" />
    </g>
    <path
       style="fill:none;fill-rule:evenodd;stroke:#000000;stroke-width:1px;stroke-linecap:butt;stroke-linejoin:miter;stroke-opacity:1"
       d="m -396.85039,92.125983 h 17.71653"
       id="path3469" />
  </g>
</svg>
