<?xml version="1.0" encoding="UTF-8" standalone="no"?>
<!-- Created with Inkscape (http://www.inkscape.org/) -->

<svg
   width="97.799309mm"
   height="42.546806mm"
   viewBox="0 0 346.53299 150.7564"
   id="svg2"
   version="1.1"
   xmlns="http://www.w3.org/2000/svg"
   xmlns:svg="http://www.w3.org/2000/svg"
   xmlns:rdf="http://www.w3.org/1999/02/22-rdf-syntax-ns#"
   xmlns:cc="http://creativecommons.org/ns#"
   xmlns:dc="http://purl.org/dc/elements/1.1/">
  <defs
     id="defs4" />
  <metadata
     id="metadata7">
    <rdf:RDF>
      <cc:Work
         rdf:about="">
        <dc:format>image/svg+xml</dc:format>
        <dc:type
           rdf:resource="http://purl.org/dc/dcmitype/StillImage" />
        <dc:title />
      </cc:Work>
    </rdf:RDF>
  </metadata>
  <g
     id="layer1"
     transform="translate(-1.1721375,-144.77558)">
    <g
       aria-label="ready_i"
       id="text3758"
       style="line-height:0%;font-family:Iwona;-inkscape-font-specification:Iwona;letter-spacing:0px;word-spacing:0px;stroke-width:1px">
      <path
         d="m 305.29362,243.18139 v -0.775 c -0.1375,-0.05 -0.2875,-0.0875 -0.425,-0.0875 -0.7,0 -1.2625,0.4875 -1.7125,1.025 v -0.9375 h -0.975 v 5.625 h 0.975 v -4.1625 c 0.375,-0.4375 0.85,-0.8125 1.425,-0.8125 0.2375,0 0.4875,0.05 0.7125,0.125 z"
         style="font-size:12.5px;line-height:1.25"
         id="path44" />
      <path
         d="m 311.06861,245.34389 v -0.125 c 0,-1.7625 -0.9625,-2.9375 -2.4125,-2.9375 -1.4625,0 -2.425,1.175 -2.425,2.9375 0,1.7625 0.9625,2.9375 2.425,2.9375 0.625,0 1.2375,-0.2 1.75,-0.5625 v -0.525 c -0.5875,0.375 -1.0625,0.5125 -1.75,0.5125 -1.0625,0 -1.325,-1.0125 -1.325,-2.2375 z m -1.1,-0.525 h -2.6375 c 0,-1 0.425,-2.0125 1.325,-2.0125 0.8875,0 1.3125,1.0125 1.3125,2.0125 z"
         style="font-size:12.5px;line-height:1.25"
         id="path46" />
      <path
         d="m 317.09359,248.03139 v -3.5 c 0,-1.175 -0.725,-2.25 -1.8125,-2.25 -0.8,0 -1.55,0.275 -2.225,0.7 v 0.3875 c 0.5625,-0.3125 1.1875,-0.5125 1.8375,-0.5125 0.775,0 1.225,0.825 1.225,1.675 v 0.225 c -0.4875,-0.2125 -1.0125,-0.3375 -1.5375,-0.3375 -1.3375,0 -2.325,0.6125 -2.325,1.875 0,1.2 0.875,1.8625 2.1375,1.8625 0.6375,0 1.225,-0.2875 1.725,-0.6875 v 0.5625 z m -0.975,-1.0875 c -0.375,0.375 -0.8375,0.6875 -1.375,0.6875 -0.8375,0 -1.3875,-0.5125 -1.3875,-1.3375 0,-0.7625 0.625,-1.35 1.3875,-1.35 0.475,0 0.95,0.125 1.375,0.3375 z"
         style="font-size:12.5px;line-height:1.25"
         id="path48" />
      <path
         d="m 323.61858,248.03139 v -8.75 h -0.975 v 3.3375 c -0.4875,-0.2125 -1.0125,-0.3375 -1.5375,-0.3375 -1.5625,0 -2.325,1.25 -2.325,2.9375 0,1.6625 0.625,2.9375 2.1375,2.9375 0.6375,0 1.225,-0.2875 1.725,-0.6875 v 0.5625 z m -0.975,-1.0875 c -0.375,0.375 -0.8375,0.6875 -1.375,0.6875 -1.1375,0 -1.3875,-1.1 -1.3875,-2.4125 0,-1.175 0.3625,-2.4125 1.3875,-2.4125 0.475,0 0.95,0.125 1.375,0.3375 z"
         style="font-size:12.5px;line-height:1.25"
         id="path50" />
      <path
         d="m 330.08107,248.78139 v -6.375 h -0.975 v 4.4125 c -0.425,0.425 -0.95,0.7625 -1.5375,0.7625 -0.5875,0 -1.0375,-0.5125 -1.0375,-1.1125 v -4.0625 h -0.975 v 4.0625 c 0,0.9125 0.7,1.6875 1.6,1.6875 0.75,0 1.4125,-0.425 1.95,-0.95 v 1.575 c 0,0.8375 -0.375,1.675 -1.125,1.675 -0.5875,0 -1.15,-0.125 -1.6875,-0.3375 v 0.3875 c 0.6375,0.325 1.35,0.525 2.075,0.525 1.0625,0 1.7125,-1.1 1.7125,-2.25 z"
         style="font-size:12.5px;line-height:1.25"
         id="path52" />
      <path
         d="m 337.33105,249.46889 v -0.625 h -6.25 v 0.625 z"
         style="font-size:12.5px;line-height:1.25"
         id="path54" />
      <path
         d="m 340.61853,247.59389 v -0.375 c -0.2375,0.2 -0.5125,0.3625 -0.825,0.3625 -0.4625,0 -0.55,-0.575 -0.55,-1.1125 v -4.0625 h -0.975 v 4.0625 c 0,0.8375 0.325,1.6875 1.0625,1.6875 0.475,0 0.925,-0.2375 1.2875,-0.5625 z m -1.25,-7.1375 c 0,-0.3375 -0.275,-0.6125 -0.6125,-0.6125 -0.3375,0 -0.6125,0.275 -0.6125,0.6125 0,0.3375 0.275,0.6125 0.6125,0.6125 0.3375,0 0.6125,-0.275 0.6125,-0.6125 z"
         style="font-size:12.5px;line-height:1.25"
         id="path56" />
    </g>
    <g
       aria-label="valid_o"
       id="text3762"
       style="line-height:0%;font-family:Iwona;-inkscape-font-specification:Iwona;letter-spacing:0px;word-spacing:0px;stroke-width:1px">
      <path
         d="m 306.14362,217.60326 h -0.5625 l -1.7,4.675 -1.65,-4.675 h -0.925 l 1.975,5.625 h 0.8125 z"
         style="font-size:12.5px;line-height:1.25"
         id="path59" />
      <path
         d="m 311.66862,223.22826 v -3.5 c 0,-1.175 -0.725,-2.25 -1.8125,-2.25 -0.8,0 -1.55,0.275 -2.225,0.7 v 0.3875 c 0.5625,-0.3125 1.1875,-0.5125 1.8375,-0.5125 0.775,0 1.225,0.825 1.225,1.675 v 0.225 c -0.4875,-0.2125 -1.0125,-0.3375 -1.5375,-0.3375 -1.3375,0 -2.325,0.6125 -2.325,1.875 0,1.2 0.875,1.8625 2.1375,1.8625 0.6375,0 1.225,-0.2875 1.725,-0.6875 v 0.5625 z m -0.975,-1.0875 c -0.375,0.375 -0.8375,0.6875 -1.375,0.6875 -0.8375,0 -1.3875,-0.5125 -1.3875,-1.3375 0,-0.7625 0.625,-1.35 1.3875,-1.35 0.475,0 0.95,0.125 1.375,0.3375 z"
         style="font-size:12.5px;line-height:1.25"
         id="path61" />
      <path
         d="m 316.01861,222.79076 v -0.375 c -0.2375,0.2 -0.5125,0.3625 -0.825,0.3625 -0.4625,0 -0.55,-0.575 -0.55,-1.1125 v -7.1875 h -0.975 v 7.1875 c 0,0.8375 0.325,1.6875 1.0625,1.6875 0.475,0 0.925,-0.2375 1.2875,-0.5625 z"
         style="font-size:12.5px;line-height:1.25"
         id="path63" />
      <path
         d="m 319.55608,222.79076 v -0.375 c -0.2375,0.2 -0.5125,0.3625 -0.825,0.3625 -0.4625,0 -0.55,-0.575 -0.55,-1.1125 v -4.0625 h -0.975 v 4.0625 c 0,0.8375 0.325,1.6875 1.0625,1.6875 0.475,0 0.925,-0.2375 1.2875,-0.5625 z m -1.25,-7.1375 c 0,-0.3375 -0.275,-0.6125 -0.6125,-0.6125 -0.3375,0 -0.6125,0.275 -0.6125,0.6125 0,0.3375 0.275,0.6125 0.6125,0.6125 0.3375,0 0.6125,-0.275 0.6125,-0.6125 z"
         style="font-size:12.5px;line-height:1.25"
         id="path65" />
      <path
         d="m 325.33107,223.22826 v -8.75 h -0.975 v 3.3375 c -0.4875,-0.2125 -1.0125,-0.3375 -1.5375,-0.3375 -1.5625,0 -2.325,1.25 -2.325,2.9375 0,1.6625 0.625,2.9375 2.1375,2.9375 0.6375,0 1.225,-0.2875 1.725,-0.6875 v 0.5625 z m -0.975,-1.0875 c -0.375,0.375 -0.8375,0.6875 -1.375,0.6875 -1.1375,0 -1.3875,-1.1 -1.3875,-2.4125 0,-1.175 0.3625,-2.4125 1.3875,-2.4125 0.475,0 0.95,0.125 1.375,0.3375 z"
         style="font-size:12.5px;line-height:1.25"
         id="path67" />
      <path
         d="m 332.58106,224.66576 v -0.625 h -6.25 v 0.625 z"
         style="font-size:12.5px;line-height:1.25"
         id="path69" />
      <path
         d="m 338.10604,220.41576 c 0,-1.9125 -0.85,-2.9375 -2.4125,-2.9375 -1.575,0 -2.425,1.025 -2.425,2.9375 0,1.9125 0.85,2.9375 2.425,2.9375 1.5625,0 2.4125,-1.025 2.4125,-2.9375 z m -1.1,0 c 0,1.5625 -0.4625,2.4125 -1.3125,2.4125 -0.8625,0 -1.325,-0.85 -1.325,-2.4125 0,-1.5625 0.4625,-2.4125 1.325,-2.4125 0.85,0 1.3125,0.85 1.3125,2.4125 z"
         style="font-size:12.5px;line-height:1.25"
         id="path71" />
    </g>
    <path
       id="rect4180"
       style="opacity:1;fill:#afdde9;stroke:#000000;stroke-linecap:round;stroke-linejoin:bevel"
       d="M 95.669289,152.3622 H 283.46456 V 265.74801 H 95.669289 Z" />
    <path
       style="fill:#afdde9;fill-opacity:1;stroke:#000000;stroke-width:1px;stroke-linecap:butt;stroke-linejoin:miter;stroke-opacity:1"
       d="m 290.55118,237.40149 h -10.62992 l -7.08661,7.0866 7.08661,7.08661 h 10.62992 z"
       id="path4182" />
    <path
       id="path4184"
       d="m 276.37795,212.59833 h 10.62992 l 7.08661,7.0866 -7.08661,7.08661 h -10.62992 z"
       style="fill:#afdde9;fill-opacity:1;stroke:#000000;stroke-width:1px;stroke-linecap:butt;stroke-linejoin:miter;stroke-opacity:1" />
    <path
       style="fill:#afdde9;fill-opacity:1;stroke:#000000;stroke-width:1px;stroke-linecap:butt;stroke-linejoin:miter;stroke-opacity:1"
       d="m 162.99212,272.83463 v -10.62992 l 7.0866,-7.08661 7.08661,7.08661 v 10.62992 z"
       id="path4186" />
    <g
       aria-label="Mixer"
       id="text4290"
       style="font-size:20px;line-height:0%;font-family:Iwona;-inkscape-font-specification:Iwona;text-align:center;letter-spacing:0px;word-spacing:0px;text-anchor:middle;stroke-width:1px">
      <path
         d="m 181.52699,215.95511 -0.8,-14 h -1.32 l -5.62,11.82 -5.64,-11.82 h -1.32 l -0.8,14 h 0.92 l 0.64,-11.34 5.42,11.34 h 0.74 l 5.48,-11.48 0.66,11.48 z"
         style="line-height:1.25"
         id="path75" />
      <path
         d="m 187.98696,215.25511 v -0.6 c -0.38,0.32 -0.82,0.58 -1.32,0.58 -0.74,0 -0.88,-0.92 -0.88,-1.78 v -6.5 h -1.56 v 6.5 c 0,1.34 0.52,2.7 1.7,2.7 0.76,0 1.48,-0.38 2.06,-0.9 z m -2,-11.42 c 0,-0.54 -0.44,-0.98 -0.98,-0.98 -0.54,0 -0.98,0.44 -0.98,0.98 0,0.54 0.44,0.98 0.98,0.98 0.54,0 0.98,-0.44 0.98,-0.98 z"
         style="line-height:1.25"
         id="path77" />
      <path
         d="m 196.52694,215.95511 -3.14,-4.8 3.04,-4.2 h -1.04 l -2.48,3.44 -2.24,-3.44 h -1.68 l 2.98,4.58 -3.18,4.42 h 1.04 l 2.64,-3.66 2.38,3.66 z"
         style="line-height:1.25"
         id="path79" />
      <path
         d="m 205.52689,211.65511 v -0.2 c 0,-2.82 -1.54,-4.7 -3.86,-4.7 -2.34,0 -3.88,1.88 -3.88,4.7 0,2.82 1.54,4.7 3.88,4.7 1,0 1.98,-0.32 2.8,-0.9 v -0.84 c -0.94,0.6 -1.7,0.82 -2.8,0.82 -1.7,0 -2.12,-1.62 -2.12,-3.58 z m -1.76,-0.84 h -4.22 c 0,-1.6 0.68,-3.22 2.12,-3.22 1.42,0 2.1,1.62 2.1,3.22 z"
         style="line-height:1.25"
         id="path81" />
      <path
         d="m 213.10686,208.19511 v -1.24 c -0.22,-0.08 -0.46,-0.14 -0.68,-0.14 -1.12,0 -2.02,0.78 -2.74,1.64 v -1.5 h -1.56 v 9 h 1.56 v -6.66 c 0.6,-0.7 1.36,-1.3 2.28,-1.3 0.38,0 0.78,0.08 1.14,0.2 z"
         style="line-height:1.25"
         id="path83" />
    </g>
    <g
       id="g182">
      <path
         id="path175"
         d="m 92.125989,175.39364 h 10.629931 l 7.08662,7.0866 -7.08662,7.08662 H 92.125989 Z"
         style="fill:#afdde9;fill-opacity:1;stroke:#000000;stroke-width:1px;stroke-linecap:butt;stroke-linejoin:miter;stroke-opacity:1" />
      <path
         style="fill:#afdde9;fill-opacity:1;stroke:#000000;stroke-width:1px;stroke-linecap:butt;stroke-linejoin:miter;stroke-opacity:1"
         d="m 90.354322,177.16529 h 10.629928 l 7.08662,7.0866 -7.08662,7.08662 H 90.354322 Z"
         id="path177" />
      <path
         style="fill:#afdde9;fill-opacity:1;stroke:#000000;stroke-width:1px;stroke-linecap:butt;stroke-linejoin:miter;stroke-opacity:1"
         d="m 88.582663,178.93694 h 10.629938 l 7.086609,7.0866 -7.086609,7.08662 H 88.582663 Z"
         id="path4294" />
    </g>
    <path
       id="path4298"
       d="m 201.9685,272.83463 v -10.62992 l 7.0866,-7.08661 7.08661,7.08661 v 10.62992 z"
       style="fill:#afdde9;fill-opacity:1;stroke:#000000;stroke-width:1px;stroke-linecap:butt;stroke-linejoin:miter;stroke-opacity:1" />
    <g
       aria-label="data_o"
       id="text4433"
       style="line-height:0%;font-family:Iwona;-inkscape-font-specification:Iwona;letter-spacing:0px;word-spacing:0px;stroke-width:1px">
      <path
         d="m 306.70612,198.42513 v -8.75 h -0.975 v 3.3375 c -0.4875,-0.2125 -1.0125,-0.3375 -1.5375,-0.3375 -1.5625,0 -2.325,1.25 -2.325,2.9375 0,1.6625 0.625,2.9375 2.1375,2.9375 0.6375,0 1.225,-0.2875 1.725,-0.6875 v 0.5625 z m -0.975,-1.0875 c -0.375,0.375 -0.8375,0.6875 -1.375,0.6875 -1.1375,0 -1.3875,-1.1 -1.3875,-2.4125 0,-1.175 0.3625,-2.4125 1.3875,-2.4125 0.475,0 0.95,0.125 1.375,0.3375 z"
         style="font-size:12.5px;line-height:1.25"
         id="path86" />
      <path
         d="m 313.10611,198.42513 v -3.5 c 0,-1.175 -0.725,-2.25 -1.8125,-2.25 -0.8,0 -1.55,0.275 -2.225,0.7 v 0.3875 c 0.5625,-0.3125 1.1875,-0.5125 1.8375,-0.5125 0.775,0 1.225,0.825 1.225,1.675 v 0.225 c -0.4875,-0.2125 -1.0125,-0.3375 -1.5375,-0.3375 -1.3375,0 -2.325,0.6125 -2.325,1.875 0,1.2 0.875,1.8625 2.1375,1.8625 0.6375,0 1.225,-0.2875 1.725,-0.6875 v 0.5625 z m -0.975,-1.0875 c -0.375,0.375 -0.8375,0.6875 -1.375,0.6875 -0.8375,0 -1.3875,-0.5125 -1.3875,-1.3375 0,-0.7625 0.625,-1.35 1.3875,-1.35 0.475,0 0.95,0.125 1.375,0.3375 z"
         style="font-size:12.5px;line-height:1.25"
         id="path88" />
      <path
         d="m 317.7561,197.98763 v -0.375 c -0.2,0.2 -0.4375,0.3625 -0.725,0.3625 -0.45,0 -0.475,-0.5875 -0.475,-1.1125 v -3.5375 h 1.2 v -0.525 h -1.2 v -1.875 h -0.5875 c 0,1 -0.575,1.9375 -1.4875,1.9375 v 0.4625 h 1.1 v 3.5375 c 0,0.825 0.2625,1.6875 0.975,1.6875 0.4625,0 0.8625,-0.25 1.2,-0.5625 z"
         style="font-size:12.5px;line-height:1.25"
         id="path90" />
      <path
         d="m 323.53108,198.42513 v -3.5 c 0,-1.175 -0.725,-2.25 -1.8125,-2.25 -0.8,0 -1.55,0.275 -2.225,0.7 v 0.3875 c 0.5625,-0.3125 1.1875,-0.5125 1.8375,-0.5125 0.775,0 1.225,0.825 1.225,1.675 v 0.225 c -0.4875,-0.2125 -1.0125,-0.3375 -1.5375,-0.3375 -1.3375,0 -2.325,0.6125 -2.325,1.875 0,1.2 0.875,1.8625 2.1375,1.8625 0.6375,0 1.225,-0.2875 1.725,-0.6875 v 0.5625 z m -0.975,-1.0875 c -0.375,0.375 -0.8375,0.6875 -1.375,0.6875 -0.8375,0 -1.3875,-0.5125 -1.3875,-1.3375 0,-0.7625 0.625,-1.35 1.3875,-1.35 0.475,0 0.95,0.125 1.375,0.3375 z"
         style="font-size:12.5px;line-height:1.25"
         id="path92" />
      <path
         d="m 330.78107,199.86263 v -0.625 h -6.25 v 0.625 z"
         style="font-size:12.5px;line-height:1.25"
         id="path94" />
      <path
         d="m 336.30605,195.61263 c 0,-1.9125 -0.85,-2.9375 -2.4125,-2.9375 -1.575,0 -2.425,1.025 -2.425,2.9375 0,1.9125 0.85,2.9375 2.425,2.9375 1.5625,0 2.4125,-1.025 2.4125,-2.9375 z m -1.1,0 c 0,1.5625 -0.4625,2.4125 -1.3125,2.4125 -0.8625,0 -1.325,-0.85 -1.325,-2.4125 0,-1.5625 0.4625,-2.4125 1.325,-2.4125 0.85,0 1.3125,0.85 1.3125,2.4125 z"
         style="font-size:12.5px;line-height:1.25"
         id="path96" />
    </g>
    <path
       id="path4437"
       d="m 276.37795,187.79521 h 10.62992 l 7.08661,7.08661 -7.08661,7.08661 h -10.62992 z"
       style="fill:#afdde9;fill-opacity:1;stroke:#000000;stroke-width:1px;stroke-linecap:butt;stroke-linejoin:miter;stroke-opacity:1" />
    <path
       style="fill:#afdde9;fill-opacity:1;stroke:#000000;stroke-width:1px;stroke-linecap:butt;stroke-linejoin:miter;stroke-opacity:1"
       d="M 102.75589,240.94483 H 92.125972 l -7.086612,7.0866 7.086612,7.08662 h 10.629918 z"
       id="path4445" />
    <g
       aria-label="clk_i"
       id="text4449"
       style="line-height:0%;font-family:Iwona;-inkscape-font-specification:Iwona;text-align:center;letter-spacing:0px;word-spacing:0px;text-anchor:middle;stroke-width:1px">
      <path
         d="m 162.77253,282.68287 v -0.525 c -0.4,-0.5625 -1.05,-0.9 -1.75,-0.9 -1.5625,0 -2.6125,1.175 -2.6125,2.9375 0,1.7625 1.05,2.9375 2.6125,2.9375 0.65,0 1.2625,-0.325 1.625,-0.8625 v -0.525 c -0.425,0.6375 -0.8625,0.8625 -1.625,0.8625 -0.9,0 -1.5125,-0.9625 -1.5125,-2.4125 0,-1.45 0.6125,-2.4125 1.5125,-2.4125 0.775,0 1.3,0.275 1.75,0.9 z"
         style="font-size:12.5px;line-height:1.25"
         id="path99" />
      <path
         d="m 166.43501,286.57037 v -0.375 c -0.2375,0.2 -0.5125,0.3625 -0.825,0.3625 -0.4625,0 -0.55,-0.575 -0.55,-1.1125 v -7.1875 h -0.975 v 7.1875 c 0,0.8375 0.325,1.6875 1.0625,1.6875 0.475,0 0.925,-0.2375 1.2875,-0.5625 z"
         style="font-size:12.5px;line-height:1.25"
         id="path101" />
      <path
         d="m 172.52249,287.00787 -2.9,-3.3375 2.8,-2.2875 h -0.775 l -2.9875,2.45 v -5.575 h -0.975 v 8.75 h 0.975 v -3.1125 l 2.7,3.1125 z"
         style="font-size:12.5px;line-height:1.25"
         id="path103" />
      <path
         d="m 178.89748,288.44537 v -0.625 h -6.25 v 0.625 z"
         style="font-size:12.5px;line-height:1.25"
         id="path105" />
      <path
         d="m 182.18496,286.57037 v -0.375 c -0.2375,0.2 -0.5125,0.3625 -0.825,0.3625 -0.4625,0 -0.55,-0.575 -0.55,-1.1125 v -4.0625 h -0.975 v 4.0625 c 0,0.8375 0.325,1.6875 1.0625,1.6875 0.475,0 0.925,-0.2375 1.2875,-0.5625 z m -1.25,-7.1375 c 0,-0.3375 -0.275,-0.6125 -0.6125,-0.6125 -0.3375,0 -0.6125,0.275 -0.6125,0.6125 0,0.3375 0.275,0.6125 0.6125,0.6125 0.3375,0 0.6125,-0.275 0.6125,-0.6125 z"
         style="font-size:12.5px;line-height:1.25"
         id="path107" />
    </g>
    <g
       aria-label="reset_i"
       id="text4453"
       style="line-height:0%;font-family:Iwona;-inkscape-font-specification:Iwona;text-align:center;letter-spacing:0px;word-spacing:0px;text-anchor:middle;stroke-width:1px">
      <path
         d="m 195.24892,282.15787 v -0.775 c -0.1375,-0.05 -0.2875,-0.0875 -0.425,-0.0875 -0.7,0 -1.2625,0.4875 -1.7125,1.025 v -0.9375 h -0.975 v 5.625 h 0.975 v -4.1625 c 0.375,-0.4375 0.85,-0.8125 1.425,-0.8125 0.2375,0 0.4875,0.05 0.7125,0.125 z"
         style="font-size:12.5px;line-height:1.25"
         id="path110" />
      <path
         d="m 201.02391,284.32037 v -0.125 c 0,-1.7625 -0.9625,-2.9375 -2.4125,-2.9375 -1.4625,0 -2.425,1.175 -2.425,2.9375 0,1.7625 0.9625,2.9375 2.425,2.9375 0.625,0 1.2375,-0.2 1.75,-0.5625 v -0.525 c -0.5875,0.375 -1.0625,0.5125 -1.75,0.5125 -1.0625,0 -1.325,-1.0125 -1.325,-2.2375 z m -1.1,-0.525 h -2.6375 c 0,-1 0.425,-2.0125 1.325,-2.0125 0.8875,0 1.3125,1.0125 1.3125,2.0125 z"
         style="font-size:12.5px;line-height:1.25"
         id="path112" />
      <path
         d="m 206.44889,285.40787 c 0,-0.9875 -1.05,-1.5 -2.075,-1.75 -0.6,-0.15 -1.25,-0.4 -1.25,-0.9875 0,-0.5375 0.55,-0.8875 1.15,-0.8875 0.6625,0 1.325,0.2 1.875,0.5625 v -0.525 c -0.55,-0.3625 -1.2125,-0.5625 -1.875,-0.5625 -1.0875,0 -2.0875,0.6625 -2.0875,1.675 0,0.9125 1.0125,1.3375 1.975,1.575 0.6625,0.1625 1.35,0.5125 1.35,1.15 0,0.5875 -0.6,0.95 -1.2375,0.95 -0.775,0 -1.525,-0.1875 -2.1875,-0.5625 v 0.525 c 0.6625,0.375 1.4125,0.5625 2.1875,0.5625 1.125,0 2.175,-0.675 2.175,-1.725 z"
         style="font-size:12.5px;line-height:1.25"
         id="path114" />
      <path
         d="m 212.53638,284.32037 v -0.125 c 0,-1.7625 -0.9625,-2.9375 -2.4125,-2.9375 -1.4625,0 -2.425,1.175 -2.425,2.9375 0,1.7625 0.9625,2.9375 2.425,2.9375 0.625,0 1.2375,-0.2 1.75,-0.5625 v -0.525 c -0.5875,0.375 -1.0625,0.5125 -1.75,0.5125 -1.0625,0 -1.325,-1.0125 -1.325,-2.2375 z m -1.1,-0.525 h -2.6375 c 0,-1 0.425,-2.0125 1.325,-2.0125 0.8875,0 1.3125,1.0125 1.3125,2.0125 z"
         style="font-size:12.5px;line-height:1.25"
         id="path116" />
      <path
         d="m 216.81136,286.57037 v -0.375 c -0.2,0.2 -0.4375,0.3625 -0.725,0.3625 -0.45,0 -0.475,-0.5875 -0.475,-1.1125 v -3.5375 h 1.2 v -0.525 h -1.2 v -1.875 h -0.5875 c 0,1 -0.575,1.9375 -1.4875,1.9375 v 0.4625 h 1.1 v 3.5375 c 0,0.825 0.2625,1.6875 0.975,1.6875 0.4625,0 0.8625,-0.25 1.2,-0.5625 z"
         style="font-size:12.5px;line-height:1.25"
         id="path118" />
      <path
         d="m 223.43634,288.44537 v -0.625 h -6.25 v 0.625 z"
         style="font-size:12.5px;line-height:1.25"
         id="path120" />
      <path
         d="m 226.72382,286.57037 v -0.375 c -0.2375,0.2 -0.5125,0.3625 -0.825,0.3625 -0.4625,0 -0.55,-0.575 -0.55,-1.1125 v -4.0625 h -0.975 v 4.0625 c 0,0.8375 0.325,1.6875 1.0625,1.6875 0.475,0 0.925,-0.2375 1.2875,-0.5625 z m -1.25,-7.1375 c 0,-0.3375 -0.275,-0.6125 -0.6125,-0.6125 -0.3375,0 -0.6125,0.275 -0.6125,0.6125 0,0.3375 0.275,0.6125 0.6125,0.6125 0.3375,0 0.6125,-0.275 0.6125,-0.6125 z"
         style="font-size:12.5px;line-height:1.25"
         id="path122" />
    </g>
    <g
       aria-label="env_data_i"
       id="text4457"
       style="line-height:0%;font-family:Iwona;-inkscape-font-specification:Iwona;text-align:end;letter-spacing:0px;word-spacing:0px;text-anchor:end;stroke-width:1px">
      <path
         d="m 29.933706,185.10771 v -0.125 c 0,-1.7625 -0.9625,-2.9375 -2.4125,-2.9375 -1.4625,0 -2.425,1.175 -2.425,2.9375 0,1.7625 0.9625,2.9375 2.425,2.9375 0.625,0 1.2375,-0.2 1.75,-0.5625 v -0.525 c -0.5875,0.375 -1.0625,0.5125 -1.75,0.5125 -1.0625,0 -1.325,-1.0125 -1.325,-2.2375 z m -1.1,-0.525 h -2.6375 c 0,-1 0.425,-2.0125 1.325,-2.0125 0.8875,0 1.3125,1.0125 1.3125,2.0125 z"
         style="font-size:12.5px;line-height:1.25"
         id="path125" />
      <path
         d="m 36.083689,187.79521 v -4.0625 c 0,-0.9125 -0.7,-1.6875 -1.6,-1.6875 -0.75,0 -1.4125,0.425 -1.95,0.95 v -0.825 h -0.975 v 5.625 h 0.975 v -4.4125 c 0.425,-0.425 0.95,-0.7625 1.5375,-0.7625 0.5875,0 1.0375,0.5125 1.0375,1.1125 v 4.0625 z"
         style="font-size:12.5px;line-height:1.25"
         id="path127" />
      <path
         d="m 41.983668,182.17021 h -0.5625 l -1.7,4.675 -1.65,-4.675 h -0.925 l 1.975,5.625 h 0.8125 z"
         style="font-size:12.5px;line-height:1.25"
         id="path129" />
      <path
         d="m 48.358663,189.23271 v -0.625 h -6.25 v 0.625 z"
         style="font-size:12.5px;line-height:1.25"
         id="path131" />
      <path
         d="m 53.883638,187.79521 v -8.75 h -0.975 v 3.3375 c -0.4875,-0.2125 -1.0125,-0.3375 -1.5375,-0.3375 -1.5625,0 -2.325,1.25 -2.325,2.9375 0,1.6625 0.625,2.9375 2.1375,2.9375 0.6375,0 1.225,-0.2875 1.725,-0.6875 v 0.5625 z m -0.975,-1.0875 c -0.375,0.375 -0.8375,0.6875 -1.375,0.6875 -1.1375,0 -1.3875,-1.1 -1.3875,-2.4125 0,-1.175 0.3625,-2.4125 1.3875,-2.4125 0.475,0 0.95,0.125 1.375,0.3375 z"
         style="font-size:12.5px;line-height:1.25"
         id="path133" />
      <path
         d="m 60.283632,187.79521 v -3.5 c 0,-1.175 -0.725,-2.25 -1.8125,-2.25 -0.8,0 -1.55,0.275 -2.225,0.7 v 0.3875 c 0.5625,-0.3125 1.1875,-0.5125 1.8375,-0.5125 0.775,0 1.225,0.825 1.225,1.675 v 0.225 c -0.4875,-0.2125 -1.0125,-0.3375 -1.5375,-0.3375 -1.3375,0 -2.325,0.6125 -2.325,1.875 0,1.2 0.875,1.8625 2.1375,1.8625 0.6375,0 1.225,-0.2875 1.725,-0.6875 v 0.5625 z m -0.975,-1.0875 c -0.375,0.375 -0.8375,0.6875 -1.375,0.6875 -0.8375,0 -1.3875,-0.5125 -1.3875,-1.3375 0,-0.7625 0.625,-1.35 1.3875,-1.35 0.475,0 0.95,0.125 1.375,0.3375 z"
         style="font-size:12.5px;line-height:1.25"
         id="path135" />
      <path
         d="m 64.933622,187.35771 v -0.375 c -0.2,0.2 -0.4375,0.3625 -0.725,0.3625 -0.45,0 -0.475,-0.5875 -0.475,-1.1125 v -3.5375 h 1.2 v -0.525 h -1.2 v -1.875 h -0.5875 c 0,1 -0.575,1.9375 -1.4875,1.9375 v 0.4625 h 1.1 v 3.5375 c 0,0.825 0.2625,1.6875 0.975,1.6875 0.4625,0 0.8625,-0.25 1.2,-0.5625 z"
         style="font-size:12.5px;line-height:1.25"
         id="path137" />
      <path
         d="m 70.7086,187.79521 v -3.5 c 0,-1.175 -0.725,-2.25 -1.8125,-2.25 -0.8,0 -1.55,0.275 -2.225,0.7 v 0.3875 c 0.5625,-0.3125 1.1875,-0.5125 1.8375,-0.5125 0.775,0 1.225,0.825 1.225,1.675 v 0.225 c -0.4875,-0.2125 -1.0125,-0.3375 -1.5375,-0.3375 -1.3375,0 -2.325,0.6125 -2.325,1.875 0,1.2 0.875,1.8625 2.1375,1.8625 0.6375,0 1.225,-0.2875 1.725,-0.6875 v 0.5625 z m -0.975,-1.0875 c -0.375,0.375 -0.8375,0.6875 -1.375,0.6875 -0.8375,0 -1.3875,-0.5125 -1.3875,-1.3375 0,-0.7625 0.625,-1.35 1.3875,-1.35 0.475,0 0.95,0.125 1.375,0.3375 z"
         style="font-size:12.5px;line-height:1.25"
         id="path139" />
      <path
         d="m 77.958591,189.23271 v -0.625 h -6.25 v 0.625 z"
         style="font-size:12.5px;line-height:1.25"
         id="path141" />
      <path
         d="m 81.246068,187.35771 v -0.375 c -0.2375,0.2 -0.5125,0.3625 -0.825,0.3625 -0.4625,0 -0.55,-0.575 -0.55,-1.1125 v -4.0625 h -0.975 v 4.0625 c 0,0.8375 0.325,1.6875 1.0625,1.6875 0.475,0 0.925,-0.2375 1.2875,-0.5625 z m -1.25,-7.1375 c 0,-0.3375 -0.275,-0.6125 -0.6125,-0.6125 -0.3375,0 -0.6125,0.275 -0.6125,0.6125 0,0.3375 0.275,0.6125 0.6125,0.6125 0.3375,0 0.6125,-0.275 0.6125,-0.6125 z"
         style="font-size:12.5px;line-height:1.25"
         id="path143" />
    </g>
    <g
       aria-label="ready_o"
       id="text4465"
       style="line-height:0%;font-family:Iwona;-inkscape-font-specification:Iwona;text-align:end;letter-spacing:0px;word-spacing:0px;text-anchor:end;stroke-width:1px">
      <path
         d="m 43.246167,246.72472 v -0.775 c -0.1375,-0.05 -0.2875,-0.0875 -0.425,-0.0875 -0.7,0 -1.2625,0.4875 -1.7125,1.025 v -0.9375 h -0.975 v 5.625 h 0.975 v -4.1625 c 0.375,-0.4375 0.85,-0.8125 1.425,-0.8125 0.2375,0 0.4875,0.05 0.7125,0.125 z"
         style="font-size:12.5px;line-height:1.25"
         id="path146" />
      <path
         d="m 49.021155,248.88722 v -0.125 c 0,-1.7625 -0.9625,-2.9375 -2.4125,-2.9375 -1.4625,0 -2.425,1.175 -2.425,2.9375 0,1.7625 0.9625,2.9375 2.425,2.9375 0.625,0 1.2375,-0.2 1.75,-0.5625 v -0.525 c -0.5875,0.375 -1.0625,0.5125 -1.75,0.5125 -1.0625,0 -1.325,-1.0125 -1.325,-2.2375 z m -1.1,-0.525 h -2.6375 c 0,-1 0.425,-2.0125 1.325,-2.0125 0.8875,0 1.3125,1.0125 1.3125,2.0125 z"
         style="font-size:12.5px;line-height:1.25"
         id="path148" />
      <path
         d="m 55.046138,251.57472 v -3.5 c 0,-1.175 -0.725,-2.25 -1.8125,-2.25 -0.8,0 -1.55,0.275 -2.225,0.7 v 0.3875 c 0.5625,-0.3125 1.1875,-0.5125 1.8375,-0.5125 0.775,0 1.225,0.825 1.225,1.675 v 0.225 c -0.4875,-0.2125 -1.0125,-0.3375 -1.5375,-0.3375 -1.3375,0 -2.325,0.6125 -2.325,1.875 0,1.2 0.875,1.8625 2.1375,1.8625 0.6375,0 1.225,-0.2875 1.725,-0.6875 v 0.5625 z m -0.975,-1.0875 c -0.375,0.375 -0.8375,0.6875 -1.375,0.6875 -0.8375,0 -1.3875,-0.5125 -1.3875,-1.3375 0,-0.7625 0.625,-1.35 1.3875,-1.35 0.475,0 0.95,0.125 1.375,0.3375 z"
         style="font-size:12.5px;line-height:1.25"
         id="path150" />
      <path
         d="m 61.571127,251.57472 v -8.75 h -0.975 v 3.3375 c -0.4875,-0.2125 -1.0125,-0.3375 -1.5375,-0.3375 -1.5625,0 -2.325,1.25 -2.325,2.9375 0,1.6625 0.625,2.9375 2.1375,2.9375 0.6375,0 1.225,-0.2875 1.725,-0.6875 v 0.5625 z m -0.975,-1.0875 c -0.375,0.375 -0.8375,0.6875 -1.375,0.6875 -1.1375,0 -1.3875,-1.1 -1.3875,-2.4125 0,-1.175 0.3625,-2.4125 1.3875,-2.4125 0.475,0 0.95,0.125 1.375,0.3375 z"
         style="font-size:12.5px;line-height:1.25"
         id="path152" />
      <path
         d="m 68.033619,252.32472 v -6.375 h -0.975 v 4.4125 c -0.425,0.425 -0.95,0.7625 -1.5375,0.7625 -0.5875,0 -1.0375,-0.5125 -1.0375,-1.1125 v -4.0625 h -0.975 v 4.0625 c 0,0.9125 0.7,1.6875 1.6,1.6875 0.75,0 1.4125,-0.425 1.95,-0.95 v 1.575 c 0,0.8375 -0.375,1.675 -1.125,1.675 -0.5875,0 -1.15,-0.125 -1.6875,-0.3375 v 0.3875 c 0.6375,0.325 1.35,0.525 2.075,0.525 1.0625,0 1.7125,-1.1 1.7125,-2.25 z"
         style="font-size:12.5px;line-height:1.25"
         id="path154" />
      <path
         d="m 75.283598,253.01222 v -0.625 h -6.25 v 0.625 z"
         style="font-size:12.5px;line-height:1.25"
         id="path156" />
      <path
         d="m 80.808573,248.76222 c 0,-1.9125 -0.85,-2.9375 -2.4125,-2.9375 -1.575,0 -2.425,1.025 -2.425,2.9375 0,1.9125 0.85,2.9375 2.425,2.9375 1.5625,0 2.4125,-1.025 2.4125,-2.9375 z m -1.1,0 c 0,1.5625 -0.4625,2.4125 -1.3125,2.4125 -0.8625,0 -1.325,-0.85 -1.325,-2.4125 0,-1.5625 0.4625,-2.4125 1.325,-2.4125 0.85,0 1.3125,0.85 1.3125,2.4125 z"
         style="font-size:12.5px;line-height:1.25"
         id="path158" />
    </g>
    <path
       style="fill:#afdde9;fill-opacity:1;stroke:#000000;stroke-width:1px;stroke-linecap:butt;stroke-linejoin:miter;stroke-opacity:1"
       d="m 88.58266,219.68499 h 10.629933 l 7.086617,7.0866 -7.086617,7.08662 H 88.58266 Z"
       id="path3371" />
    <g
       aria-label="valid_i"
       id="text3373"
       style="line-height:0%;font-family:Iwona;-inkscape-font-specification:Iwona;text-align:end;letter-spacing:0px;word-spacing:0px;text-anchor:end;stroke-width:1px">
      <path
         d="m 51.521158,224.68991 h -0.5625 l -1.7,4.675 -1.65,-4.675 h -0.925 l 1.975,5.625 h 0.8125 z"
         style="font-size:12.5px;line-height:1.25"
         id="path161" />
      <path
         d="m 57.046152,230.31491 v -3.5 c 0,-1.175 -0.725,-2.25 -1.8125,-2.25 -0.8,0 -1.55,0.275 -2.225,0.7 v 0.3875 c 0.5625,-0.3125 1.1875,-0.5125 1.8375,-0.5125 0.775,0 1.225,0.825 1.225,1.675 v 0.225 c -0.4875,-0.2125 -1.0125,-0.3375 -1.5375,-0.3375 -1.3375,0 -2.325,0.6125 -2.325,1.875 0,1.2 0.875,1.8625 2.1375,1.8625 0.6375,0 1.225,-0.2875 1.725,-0.6875 v 0.5625 z m -0.975,-1.0875 c -0.375,0.375 -0.8375,0.6875 -1.375,0.6875 -0.8375,0 -1.3875,-0.5125 -1.3875,-1.3375 0,-0.7625 0.625,-1.35 1.3875,-1.35 0.475,0 0.95,0.125 1.375,0.3375 z"
         style="font-size:12.5px;line-height:1.25"
         id="path163" />
      <path
         d="m 61.396142,229.87741 v -0.375 c -0.2375,0.2 -0.5125,0.3625 -0.825,0.3625 -0.4625,0 -0.55,-0.575 -0.55,-1.1125 v -7.1875 h -0.975 v 7.1875 c 0,0.8375 0.325,1.6875 1.0625,1.6875 0.475,0 0.925,-0.2375 1.2875,-0.5625 z"
         style="font-size:12.5px;line-height:1.25"
         id="path165" />
      <path
         d="m 64.933619,229.87741 v -0.375 c -0.2375,0.2 -0.5125,0.3625 -0.825,0.3625 -0.4625,0 -0.55,-0.575 -0.55,-1.1125 v -4.0625 h -0.975 v 4.0625 c 0,0.8375 0.325,1.6875 1.0625,1.6875 0.475,0 0.925,-0.2375 1.2875,-0.5625 z m -1.25,-7.1375 c 0,-0.3375 -0.275,-0.6125 -0.6125,-0.6125 -0.3375,0 -0.6125,0.275 -0.6125,0.6125 0,0.3375 0.275,0.6125 0.6125,0.6125 0.3375,0 0.6125,-0.275 0.6125,-0.6125 z"
         style="font-size:12.5px;line-height:1.25"
         id="path167" />
      <path
         d="m 70.708608,230.31491 v -8.75 h -0.975 v 3.3375 c -0.4875,-0.2125 -1.0125,-0.3375 -1.5375,-0.3375 -1.5625,0 -2.325,1.25 -2.325,2.9375 0,1.6625 0.625,2.9375 2.1375,2.9375 0.6375,0 1.225,-0.2875 1.725,-0.6875 v 0.5625 z m -0.975,-1.0875 c -0.375,0.375 -0.8375,0.6875 -1.375,0.6875 -1.1375,0 -1.3875,-1.1 -1.3875,-2.4125 0,-1.175 0.3625,-2.4125 1.3875,-2.4125 0.475,0 0.95,0.125 1.375,0.3375 z"
         style="font-size:12.5px;line-height:1.25"
         id="path169" />
      <path
         d="m 77.958598,231.75241 v -0.625 h -6.25 v 0.625 z"
         style="font-size:12.5px;line-height:1.25"
         id="path171" />
      <path
         d="m 81.246075,229.87741 v -0.375 c -0.2375,0.2 -0.5125,0.3625 -0.825,0.3625 -0.4625,0 -0.55,-0.575 -0.55,-1.1125 v -4.0625 h -0.975 v 4.0625 c 0,0.8375 0.325,1.6875 1.0625,1.6875 0.475,0 0.925,-0.2375 1.2875,-0.5625 z m -1.25,-7.1375 c 0,-0.3375 -0.275,-0.6125 -0.6125,-0.6125 -0.3375,0 -0.6125,0.275 -0.6125,0.6125 0,0.3375 0.275,0.6125 0.6125,0.6125 0.3375,0 0.6125,-0.275 0.6125,-0.6125 z"
         style="font-size:12.5px;line-height:1.25"
         id="path173" />
    </g>
    <g
       aria-label="carrier_data_i"
       id="text173"
       style="line-height:0%;font-family:Iwona;-inkscape-font-specification:Iwona;text-align:end;letter-spacing:0px;word-spacing:0px;text-anchor:end;stroke-width:1px">
      <path
         d="m 12.621252,204.73005 v -0.525 c -0.4,-0.5625 -1.05,-0.9 -1.75,-0.9 -1.5625001,0 -2.6125001,1.175 -2.6125001,2.9375 0,1.7625 1.05,2.9375 2.6125001,2.9375 0.65,0 1.2625,-0.325 1.625,-0.8625 v -0.525 c -0.425,0.6375 -0.8625,0.8625 -1.625,0.8625 -0.9000001,0 -1.5125001,-0.9625 -1.5125001,-2.4125 0,-1.45 0.6125,-2.4125 1.5125001,-2.4125 0.775,0 1.3,0.275 1.75,0.9 z"
         style="font-size:12.5px;line-height:1.25"
         id="path176" />
      <path
         d="m 18.333739,209.05505 v -3.5 c 0,-1.175 -0.725,-2.25 -1.8125,-2.25 -0.8,0 -1.55,0.275 -2.225,0.7 v 0.3875 c 0.5625,-0.3125 1.1875,-0.5125 1.8375,-0.5125 0.775,0 1.225,0.825 1.225,1.675 v 0.225 c -0.4875,-0.2125 -1.0125,-0.3375 -1.5375,-0.3375 -1.3375,0 -2.325,0.6125 -2.325,1.875 0,1.2 0.875,1.8625 2.1375,1.8625 0.6375,0 1.225,-0.2875 1.725,-0.6875 v 0.5625 z m -0.975,-1.0875 c -0.375,0.375 -0.8375,0.6875 -1.375,0.6875 -0.8375,0 -1.3875,-0.5125 -1.3875,-1.3375 0,-0.7625 0.625,-1.35 1.3875,-1.35 0.475,0 0.95,0.125 1.375,0.3375 z"
         style="font-size:12.5px;line-height:1.25"
         id="path178" />
      <path
         d="m 23.446228,204.20505 v -0.775 c -0.1375,-0.05 -0.2875,-0.0875 -0.425,-0.0875 -0.7,0 -1.2625,0.4875 -1.7125,1.025 v -0.9375 h -0.975 v 5.625 h 0.975 v -4.1625 c 0.375,-0.4375 0.85,-0.8125 1.425,-0.8125 0.2375,0 0.4875,0.05 0.7125,0.125 z"
         style="font-size:12.5px;line-height:1.25"
         id="path180" />
      <path
         d="m 27.808716,204.20505 v -0.775 c -0.1375,-0.05 -0.2875,-0.0875 -0.425,-0.0875 -0.7,0 -1.2625,0.4875 -1.7125,1.025 v -0.9375 h -0.975 v 5.625 h 0.975 v -4.1625 c 0.375,-0.4375 0.85,-0.8125 1.425,-0.8125 0.2375,0 0.4875,0.05 0.7125,0.125 z"
         style="font-size:12.5px;line-height:1.25"
         id="path182" />
      <path
         d="m 31.346203,208.61755 v -0.375 c -0.2375,0.2 -0.5125,0.3625 -0.825,0.3625 -0.4625,0 -0.55,-0.575 -0.55,-1.1125 v -4.0625 h -0.975 v 4.0625 c 0,0.8375 0.325,1.6875 1.0625,1.6875 0.475,0 0.925,-0.2375 1.2875,-0.5625 z m -1.25,-7.1375 c 0,-0.3375 -0.275,-0.6125 -0.6125,-0.6125 -0.3375,0 -0.6125,0.275 -0.6125,0.6125 0,0.3375 0.275,0.6125 0.6125,0.6125 0.3375,0 0.6125,-0.275 0.6125,-0.6125 z"
         style="font-size:12.5px;line-height:1.25"
         id="path185" />
      <path
         d="m 37.121192,206.36755 v -0.125 c 0,-1.7625 -0.9625,-2.9375 -2.4125,-2.9375 -1.4625,0 -2.425,1.175 -2.425,2.9375 0,1.7625 0.9625,2.9375 2.425,2.9375 0.625,0 1.2375,-0.2 1.75,-0.5625 v -0.525 c -0.5875,0.375 -1.0625,0.5125 -1.75,0.5125 -1.0625,0 -1.325,-1.0125 -1.325,-2.2375 z m -1.1,-0.525 h -2.6375 c 0,-1 0.425,-2.0125 1.325,-2.0125 0.8875,0 1.3125,1.0125 1.3125,2.0125 z"
         style="font-size:12.5px;line-height:1.25"
         id="path187" />
      <path
         d="m 41.858675,204.20505 v -0.775 c -0.1375,-0.05 -0.2875,-0.0875 -0.425,-0.0875 -0.7,0 -1.2625,0.4875 -1.7125,1.025 v -0.9375 h -0.975 v 5.625 h 0.975 v -4.1625 c 0.375,-0.4375 0.85,-0.8125 1.425,-0.8125 0.2375,0 0.4875,0.05 0.7125,0.125 z"
         style="font-size:12.5px;line-height:1.25"
         id="path189" />
      <path
         d="m 48.358663,210.49255 v -0.625 h -6.25 v 0.625 z"
         style="font-size:12.5px;line-height:1.25"
         id="path191" />
      <path
         d="m 53.88364,209.05505 v -8.75 h -0.975 v 3.3375 c -0.4875,-0.2125 -1.0125,-0.3375 -1.5375,-0.3375 -1.5625,0 -2.325,1.25 -2.325,2.9375 0,1.6625 0.625,2.9375 2.1375,2.9375 0.6375,0 1.225,-0.2875 1.725,-0.6875 v 0.5625 z m -0.975,-1.0875 c -0.375,0.375 -0.8375,0.6875 -1.375,0.6875 -1.1375,0 -1.3875,-1.1 -1.3875,-2.4125 0,-1.175 0.3625,-2.4125 1.3875,-2.4125 0.475,0 0.95,0.125 1.375,0.3375 z"
         style="font-size:12.5px;line-height:1.25"
         id="path193" />
      <path
         d="m 60.28363,209.05505 v -3.5 c 0,-1.175 -0.725,-2.25 -1.8125,-2.25 -0.8,0 -1.55,0.275 -2.225,0.7 v 0.3875 c 0.5625,-0.3125 1.1875,-0.5125 1.8375,-0.5125 0.775,0 1.225,0.825 1.225,1.675 v 0.225 c -0.4875,-0.2125 -1.0125,-0.3375 -1.5375,-0.3375 -1.3375,0 -2.325,0.6125 -2.325,1.875 0,1.2 0.875,1.8625 2.1375,1.8625 0.6375,0 1.225,-0.2875 1.725,-0.6875 v 0.5625 z m -0.975,-1.0875 c -0.375,0.375 -0.8375,0.6875 -1.375,0.6875 -0.8375,0 -1.3875,-0.5125 -1.3875,-1.3375 0,-0.7625 0.625,-1.35 1.3875,-1.35 0.475,0 0.95,0.125 1.375,0.3375 z"
         style="font-size:12.5px;line-height:1.25"
         id="path195" />
      <path
         d="m 64.93362,208.61755 v -0.375 c -0.2,0.2 -0.4375,0.3625 -0.725,0.3625 -0.45,0 -0.475,-0.5875 -0.475,-1.1125 v -3.5375 h 1.2 v -0.525 h -1.2 v -1.875 h -0.5875 c 0,1 -0.575,1.9375 -1.4875,1.9375 v 0.4625 h 1.1 v 3.5375 c 0,0.825 0.2625,1.6875 0.975,1.6875 0.4625,0 0.8625,-0.25 1.2,-0.5625 z"
         style="font-size:12.5px;line-height:1.25"
         id="path197" />
      <path
         d="m 70.708602,209.05505 v -3.5 c 0,-1.175 -0.725,-2.25 -1.8125,-2.25 -0.8,0 -1.55,0.275 -2.225,0.7 v 0.3875 c 0.5625,-0.3125 1.1875,-0.5125 1.8375,-0.5125 0.775,0 1.225,0.825 1.225,1.675 v 0.225 c -0.4875,-0.2125 -1.0125,-0.3375 -1.5375,-0.3375 -1.3375,0 -2.325,0.6125 -2.325,1.875 0,1.2 0.875,1.8625 2.1375,1.8625 0.6375,0 1.225,-0.2875 1.725,-0.6875 v 0.5625 z m -0.975,-1.0875 c -0.375,0.375 -0.8375,0.6875 -1.375,0.6875 -0.8375,0 -1.3875,-0.5125 -1.3875,-1.3375 0,-0.7625 0.625,-1.35 1.3875,-1.35 0.475,0 0.95,0.125 1.375,0.3375 z"
         style="font-size:12.5px;line-height:1.25"
         id="path199" />
      <path
         d="m 77.958589,210.49255 v -0.625 h -6.25 v 0.625 z"
         style="font-size:12.5px;line-height:1.25"
         id="path201" />
      <path
         d="m 81.246066,208.61755 v -0.375 c -0.2375,0.2 -0.5125,0.3625 -0.825,0.3625 -0.4625,0 -0.55,-0.575 -0.55,-1.1125 v -4.0625 h -0.975 v 4.0625 c 0,0.8375 0.325,1.6875 1.0625,1.6875 0.475,0 0.925,-0.2375 1.2875,-0.5625 z m -1.25,-7.1375 c 0,-0.3375 -0.275,-0.6125 -0.6125,-0.6125 -0.3375,0 -0.6125,0.275 -0.6125,0.6125 0,0.3375 0.275,0.6125 0.6125,0.6125 0.3375,0 0.6125,-0.275 0.6125,-0.6125 z"
         style="font-size:12.5px;line-height:1.25"
         id="path203" />
    </g>
    <g
       id="g190"
       transform="translate(0,21.259846)">
      <path
         style="fill:#afdde9;fill-opacity:1;stroke:#000000;stroke-width:1px;stroke-linecap:butt;stroke-linejoin:miter;stroke-opacity:1"
         d="m 92.125989,175.39364 h 10.629931 l 7.08662,7.0866 -7.08662,7.08662 H 92.125989 Z"
         id="path184" />
      <path
         id="path186"
         d="m 90.354322,177.16529 h 10.629928 l 7.08662,7.0866 -7.08662,7.08662 H 90.354322 Z"
         style="fill:#afdde9;fill-opacity:1;stroke:#000000;stroke-width:1px;stroke-linecap:butt;stroke-linejoin:miter;stroke-opacity:1" />
      <path
         id="path188"
         d="m 88.582663,178.93694 h 10.629938 l 7.086609,7.0866 -7.086609,7.08662 H 88.582663 Z"
         style="fill:#afdde9;fill-opacity:1;stroke:#000000;stroke-width:1px;stroke-linecap:butt;stroke-linejoin:miter;stroke-opacity:1" />
    </g>
  </g>
</svg>
