<?xml version="1.0" encoding="UTF-8" standalone="no"?>
<!-- Created with Inkscape (http://www.inkscape.org/) -->

<svg
   width="61.340672mm"
   height="43.279995mm"
   id="svg2"
   version="1.0"
   viewBox="0 0 217.34886 153.35431"
   xmlns="http://www.w3.org/2000/svg"
   xmlns:svg="http://www.w3.org/2000/svg"
   xmlns:rdf="http://www.w3.org/1999/02/22-rdf-syntax-ns#"
   xmlns:cc="http://creativecommons.org/ns#"
   xmlns:dc="http://purl.org/dc/elements/1.1/">
  <defs
     id="defs4" />
  <metadata
     id="metadata7">
    <rdf:RDF>
      <cc:Work
         rdf:about="">
        <dc:format>image/svg+xml</dc:format>
        <dc:type
           rdf:resource="http://purl.org/dc/dcmitype/StillImage" />
        <dc:title />
      </cc:Work>
    </rdf:RDF>
  </metadata>
  <g
     id="layer1"
     transform="translate(-144.77557,57.188997)">
    <path
       id="rect2385"
       style="fill:#afdde9;stroke:#000000;stroke-width:0.992126"
       d="M 159.44882,-49.606319 H 343.70074 V 88.582645 H 159.44882 Z" />
    <path
       style="fill:#afdde9;fill-opacity:1;fill-rule:evenodd;stroke:#000000;stroke-width:1px;stroke-linecap:butt;stroke-linejoin:miter;stroke-opacity:1"
       d="m 152.36221,-17.716557 v 14.1732284 h 10.62992 l 7.08662,-7.0866154 -7.08662,-7.086613 z"
       id="path2387" />
    <path
       id="path2393"
       d="m 336.61415,-17.716565 v 14.1732295 h 10.62992 l 7.08662,-7.0866205 -7.08662,-7.086609 z"
       style="fill:#afdde9;fill-opacity:1;fill-rule:evenodd;stroke:#000000;stroke-width:1px;stroke-linecap:butt;stroke-linejoin:miter;stroke-opacity:1" />
    <g
       aria-label="clk_i"
       id="text2395"
       style="font-style:italic;line-height:0%;font-family:Iwona;-inkscape-font-specification:'Sans Italic'">
      <path
         d="m 178.47004,-11.238637 v -0.504 c -0.384,-0.54 -1.008,-0.864 -1.68,-0.864 -1.5,0 -2.508,1.128 -2.508,2.8200005 0,1.692 1.008,2.82 2.508,2.82 0.624,0 1.212,-0.312 1.56,-0.828 v -0.504 c -0.408,0.612 -0.828,0.828 -1.56,0.828 -0.864,0 -1.452,-0.924 -1.452,-2.316 0,-1.3920005 0.588,-2.3160005 1.452,-2.3160005 0.744,0 1.248,0.264 1.68,0.864 z"
         style="font-style:normal;font-size:12px;line-height:1.25"
         id="path44" />
      <path
         d="m 181.98603,-7.5066365 v -0.36 c -0.228,0.192 -0.492,0.348 -0.792,0.348 -0.444,0 -0.528,-0.552 -0.528,-1.068 v -6.9000005 h -0.936 v 6.9000005 c 0,0.804 0.312,1.62 1.02,1.62 0.456,0 0.888,-0.228 1.236,-0.54 z"
         style="font-style:normal;font-size:12px;line-height:1.25"
         id="path46" />
      <path
         d="m 187.83001,-7.0866365 -2.784,-3.2040005 2.688,-2.196 h -0.744 l -2.868,2.352 v -5.352 h -0.936 v 8.4000005 h 0.936 v -2.9880005 l 2.592,2.9880005 z"
         style="font-style:normal;font-size:12px;line-height:1.25"
         id="path48" />
      <path
         d="m 193.95,-5.7066365 v -0.6 h -6 v 0.6 z"
         style="font-style:normal;font-size:12px;line-height:1.25"
         id="path50" />
      <path
         d="m 197.10597,-7.5066365 v -0.36 c -0.228,0.192 -0.492,0.348 -0.792,0.348 -0.444,0 -0.528,-0.552 -0.528,-1.068 v -3.9000005 h -0.936 v 3.9000005 c 0,0.804 0.312,1.62 1.02,1.62 0.456,0 0.888,-0.228 1.236,-0.54 z m -1.2,-6.8520005 c 0,-0.324 -0.264,-0.588 -0.588,-0.588 -0.324,0 -0.588,0.264 -0.588,0.588 0,0.324 0.264,0.588 0.588,0.588 0.324,0 0.588,-0.264 0.588,-0.588 z"
         style="font-style:normal;font-size:12px;line-height:1.25"
         id="path52" />
    </g>
    <g
       aria-label="Squash"
       id="text2411"
       style="font-style:italic;line-height:0%;font-family:Iwona;-inkscape-font-specification:'Sans Italic';text-align:center;text-anchor:middle">
      <path
         d="m 235.93482,-31.594479 c 0,-1.968 -2,-3.136 -4.064,-3.568 -1.376,-0.288 -2.928,-0.64 -2.928,-1.92 0,-1.264 1.36,-1.984 2.768,-1.984 1.296,0 2.56,0.384 3.584,1.184 v -0.64 c -1.024,-0.8 -2.288,-1.28 -3.584,-1.28 -2.08,0 -4.032,1.168 -4.032,3.056 0,1.808 1.952,2.72 3.856,3.12 1.52,0.32 3.136,0.944 3.136,2.368 0,1.456 -1.424,2.432 -2.96,2.432 -1.488,0 -2.96,-0.384 -4.208,-1.184 v 0.64 c 1.264,0.8 2.704,1.28 4.208,1.28 2.208,0 4.224,-1.424 4.224,-3.504 z"
         style="font-style:normal;font-size:16px;line-height:1.25"
         id="path55" />
      <path
         d="m 243.96681,-24.666479 v -10.88 h -1.248 v 0.272 c -0.624,-0.272 -1.296,-0.432 -1.968,-0.432 -2,0 -2.976,1.6 -2.976,3.76 0,2.128 0.8,3.76 2.736,3.76 0.816,0 1.568,-0.368 2.208,-0.88 v 4.4 z m -1.248,-5.072 c -0.48,0.48 -1.072,0.88 -1.76,0.88 -1.456,0 -1.776,-1.408 -1.776,-3.088 0,-1.504 0.464,-3.088 1.776,-3.088 0.608,0 1.216,0.16 1.76,0.432 z"
         style="font-style:normal;font-size:16px;line-height:1.25"
         id="path57" />
      <path
         d="m 252.2388,-28.346479 v -7.2 h -1.248 v 5.648 c -0.544,0.544 -1.216,0.976 -1.968,0.976 -0.752,0 -1.328,-0.656 -1.328,-1.424 v -5.2 h -1.248 v 5.2 c 0,1.168 0.896,2.16 2.048,2.16 0.96,0 1.808,-0.544 2.496,-1.216 v 1.056 z"
         style="font-style:normal;font-size:16px;line-height:1.25"
         id="path59" />
      <path
         d="m 260.43077,-28.346479 v -4.48 c 0,-1.504 -0.928,-2.88 -2.32,-2.88 -1.024,0 -1.984,0.352 -2.848,0.896 v 0.496 c 0.72,-0.4 1.52,-0.656 2.352,-0.656 0.992,0 1.568,1.056 1.568,2.144 v 0.288 c -0.624,-0.272 -1.296,-0.432 -1.968,-0.432 -1.712,0 -2.976,0.784 -2.976,2.4 0,1.536 1.12,2.384 2.736,2.384 0.816,0 1.568,-0.368 2.208,-0.88 v 0.72 z m -1.248,-1.392 c -0.48,0.48 -1.072,0.88 -1.76,0.88 -1.072,0 -1.776,-0.656 -1.776,-1.712 0,-0.976 0.8,-1.728 1.776,-1.728 0.608,0 1.216,0.16 1.76,0.432 z"
         style="font-style:normal;font-size:16px;line-height:1.25"
         id="path61" />
      <path
         d="m 267.85475,-30.394479 c 0,-1.264 -1.344,-1.92 -2.656,-2.24 -0.768,-0.192 -1.6,-0.512 -1.6,-1.264 0,-0.688 0.704,-1.136 1.472,-1.136 0.848,0 1.696,0.256 2.4,0.72 v -0.672 c -0.704,-0.464 -1.552,-0.72 -2.4,-0.72 -1.392,0 -2.672,0.848 -2.672,2.144 0,1.168 1.296,1.712 2.528,2.016 0.848,0.208 1.728,0.656 1.728,1.472 0,0.752 -0.768,1.216 -1.584,1.216 -0.992,0 -1.952,-0.24 -2.8,-0.72 v 0.672 c 0.848,0.48 1.808,0.72 2.8,0.72 1.44,0 2.784,-0.864 2.784,-2.208 z"
         style="font-style:normal;font-size:16px;line-height:1.25"
         id="path63" />
      <path
         d="m 275.64674,-28.346479 v -5.2 c 0,-1.168 -0.896,-2.16 -2.048,-2.16 -0.96,0 -1.808,0.544 -2.496,1.216 v -5.056 h -1.248 v 11.2 h 1.248 v -5.648 c 0.544,-0.544 1.216,-0.976 1.968,-0.976 0.752,0 1.328,0.656 1.328,1.424 v 5.2 z"
         style="font-style:normal;font-size:16px;line-height:1.25"
         id="path65" />
    </g>
    <g
       aria-label="vga_red_o"
       id="text2419"
       style="font-style:italic;line-height:0%;font-family:Iwona;-inkscape-font-specification:'Sans Italic';text-align:end;text-anchor:end">
      <path
         d="m 286.22294,-12.486643 h -0.54 l -1.632,4.4880003 -1.584,-4.4880003 h -0.888 l 1.896,5.4000003 h 0.78 z"
         style="font-style:normal;font-size:12px;line-height:1.25"
         id="path68" />
      <path
         d="m 291.64693,-6.3666427 v -6.1200003 h -0.936 v 0.204 c -0.468,-0.204 -0.972,-0.324 -1.476,-0.324 -1.5,0 -2.232,1.2 -2.232,2.8200003 0,1.596 0.6,2.82 2.052,2.82 0.612,0 1.176,-0.276 1.656,-0.66 v 1.26 c 0,0.828 -0.456,1.608 -1.2,1.608 -0.612,0 -1.224,-0.12 -1.8,-0.324 v 0.372 c 0.672,0.312 1.416,0.504 2.16,0.504 1.056,0 1.776,-1.032 1.776,-2.16 z m -0.936,-1.764 c -0.36,0.36 -0.804,0.66 -1.32,0.66 -1.092,0 -1.332,-1.056 -1.332,-2.316 0,-1.1280003 0.348,-2.3160003 1.332,-2.3160003 0.456,0 0.912,0.12 1.32,0.324 z"
         style="font-style:normal;font-size:12px;line-height:1.25"
         id="path70" />
      <path
         d="m 297.79093,-7.0866427 v -3.3600003 c 0,-1.128 -0.696,-2.16 -1.74,-2.16 -0.768,0 -1.488,0.264 -2.136,0.672 v 0.372 c 0.54,-0.3 1.14,-0.492 1.764,-0.492 0.744,0 1.176,0.792 1.176,1.608 v 0.216 c -0.468,-0.204 -0.972,-0.324 -1.476,-0.324 -1.284,0 -2.232,0.5880003 -2.232,1.8000003 0,1.152 0.84,1.788 2.052,1.788 0.612,0 1.176,-0.276 1.656,-0.66 v 0.54 z m -0.936,-1.044 c -0.36,0.36 -0.804,0.66 -1.32,0.66 -0.804,0 -1.332,-0.492 -1.332,-1.284 0,-0.732 0.6,-1.2960003 1.332,-1.2960003 0.456,0 0.912,0.1200003 1.32,0.3240003 z"
         style="font-style:normal;font-size:12px;line-height:1.25"
         id="path72" />
      <path
         d="m 304.75092,-5.7066427 v -0.6 h -6 v 0.6 z"
         style="font-style:normal;font-size:12px;line-height:1.25"
         id="path74" />
      <path
         d="m 308.69889,-11.742643 v -0.744 c -0.132,-0.048 -0.276,-0.084 -0.408,-0.084 -0.672,0 -1.212,0.468 -1.644,0.984 v -0.9 h -0.936 v 5.4000003 h 0.936 v -3.9960003 c 0.36,-0.42 0.816,-0.78 1.368,-0.78 0.228,0 0.468,0.048 0.684,0.12 z"
         style="font-style:normal;font-size:12px;line-height:1.25"
         id="path76" />
      <path
         d="m 314.24288,-9.6666427 v -0.12 c 0,-1.6920003 -0.924,-2.8200003 -2.316,-2.8200003 -1.404,0 -2.328,1.128 -2.328,2.8200003 0,1.692 0.924,2.82 2.328,2.82 0.6,0 1.188,-0.192 1.68,-0.54 v -0.504 c -0.564,0.36 -1.02,0.492 -1.68,0.492 -1.02,0 -1.272,-0.972 -1.272,-2.148 z m -1.056,-0.5040003 h -2.532 c 0,-0.96 0.408,-1.932 1.272,-1.932 0.852,0 1.26,0.972 1.26,1.932 z"
         style="font-style:normal;font-size:12px;line-height:1.25"
         id="path78" />
      <path
         d="m 320.14686,-7.0866427 v -8.4000003 h -0.936 v 3.204 c -0.468,-0.204 -0.972,-0.324 -1.476,-0.324 -1.5,0 -2.232,1.2 -2.232,2.8200003 0,1.596 0.6,2.82 2.052,2.82 0.612,0 1.176,-0.276 1.656,-0.66 v 0.54 z m -0.936,-1.044 c -0.36,0.36 -0.804,0.66 -1.32,0.66 -1.092,0 -1.332,-1.056 -1.332,-2.316 0,-1.1280003 0.348,-2.3160003 1.332,-2.3160003 0.456,0 0.912,0.12 1.32,0.324 z"
         style="font-style:normal;font-size:12px;line-height:1.25"
         id="path80" />
      <path
         d="m 327.10686,-5.7066427 v -0.6 h -6 v 0.6 z"
         style="font-style:normal;font-size:12px;line-height:1.25"
         id="path82" />
      <path
         d="m 332.41083,-9.7866427 c 0,-1.8360003 -0.816,-2.8200003 -2.316,-2.8200003 -1.512,0 -2.328,0.984 -2.328,2.8200003 0,1.836 0.816,2.82 2.328,2.82 1.5,0 2.316,-0.984 2.316,-2.82 z m -1.056,0 c 0,1.5 -0.444,2.316 -1.26,2.316 -0.828,0 -1.272,-0.816 -1.272,-2.316 0,-1.5000003 0.444,-2.3160003 1.272,-2.3160003 0.816,0 1.26,0.816 1.26,2.3160003 z"
         style="font-style:normal;font-size:12px;line-height:1.25"
         id="path84" />
    </g>
    <path
       id="path3529"
       d="M 152.36221,3.5432848 V 17.716514 h 10.62992 l 7.08662,-7.086615 -7.08662,-7.0866142 z"
       style="fill:#afdde9;fill-opacity:1;fill-rule:evenodd;stroke:#000000;stroke-width:1px;stroke-linecap:butt;stroke-linejoin:miter;stroke-opacity:1" />
    <g
       aria-label="btn_left_i"
       id="text3531"
       style="font-style:italic;line-height:0%;font-family:Iwona;-inkscape-font-specification:'Sans Italic'">
      <path
         d="m 179.22604,10.7499 c 0,-1.5960003 -0.6,-2.8200003 -2.052,-2.8200003 -0.612,0 -1.176,0.276 -1.656,0.66 v -3.54 h -0.936 V 13.4499 h 0.936 v -0.276 c 0.456,0.24 0.96,0.396 1.476,0.396 1.5,0 2.232,-1.2 2.232,-2.82 z m -1.056,0 c 0,1.128 -0.348,2.316 -1.332,2.316 -0.468,0 -0.924,-0.156 -1.32,-0.396 V 9.0938997 c 0.36,-0.36 0.804,-0.66 1.32,-0.66 1.092,0 1.332,1.056 1.332,2.3160003 z"
         style="font-style:normal;font-size:12px;line-height:1.25"
         id="path87" />
      <path
         d="m 183.39003,13.0299 v -0.36 c -0.192,0.192 -0.42,0.348 -0.696,0.348 -0.432,0 -0.456,-0.564 -0.456,-1.068 V 8.5538997 h 1.152 v -0.504 h -1.152 v -1.8 h -0.564 c 0,0.96 -0.552,1.86 -1.428,1.86 v 0.444 h 1.056 V 11.9499 c 0,0.792 0.252,1.62 0.936,1.62 0.444,0 0.828,-0.24 1.152,-0.54 z"
         style="font-style:normal;font-size:12px;line-height:1.25"
         id="path89" />
      <path
         d="M 189.05402,13.4499 V 9.5498997 c 0,-0.876 -0.672,-1.62 -1.536,-1.62 -0.72,0 -1.356,0.408 -1.872,0.912 v -0.792 h -0.936 V 13.4499 h 0.936 V 9.2138997 c 0.408,-0.408 0.912,-0.732 1.476,-0.732 0.564,0 0.996,0.492 0.996,1.068 V 13.4499 Z"
         style="font-style:normal;font-size:12px;line-height:1.25"
         id="path91" />
      <path
         d="m 195.95399,14.8299 v -0.6 h -6 v 0.6 z"
         style="font-style:normal;font-size:12px;line-height:1.25"
         id="path93" />
      <path
         d="m 199.16997,13.0299 v -0.36 c -0.228,0.192 -0.492,0.348 -0.792,0.348 -0.444,0 -0.528,-0.552 -0.528,-1.068 V 5.0498997 h -0.936 V 11.9499 c 0,0.804 0.312,1.62 1.02,1.62 0.456,0 0.888,-0.228 1.236,-0.54 z"
         style="font-style:normal;font-size:12px;line-height:1.25"
         id="path95" />
      <path
         d="m 204.71395,10.8699 v -0.12 c 0,-1.6920003 -0.924,-2.8200003 -2.316,-2.8200003 -1.404,0 -2.328,1.128 -2.328,2.8200003 0,1.692 0.924,2.82 2.328,2.82 0.6,0 1.188,-0.192 1.68,-0.54 v -0.504 c -0.564,0.36 -1.02,0.492 -1.68,0.492 -1.02,0 -1.272,-0.972 -1.272,-2.148 z m -1.056,-0.504 h -2.532 c 0,-0.9600003 0.408,-1.9320003 1.272,-1.9320003 0.852,0 1.26,0.972 1.26,1.9320003 z"
         style="font-style:normal;font-size:12px;line-height:1.25"
         id="path97" />
      <path
         d="m 208.67393,5.8298997 v -0.372 c -0.36,-0.3 -0.792,-0.528 -1.26,-0.528 -0.696,0 -1.02,0.816 -1.02,1.62 v 1.5 h -0.84 v 0.504 h 0.84 V 13.4499 h 0.936 V 8.5538997 h 0.84 v -0.504 h -0.84 v -1.5 c 0,-0.516 0.096,-1.068 0.54,-1.068 0.3,0 0.576,0.144 0.804,0.348 z"
         style="font-style:normal;font-size:12px;line-height:1.25"
         id="path99" />
      <path
         d="m 211.91393,13.0299 v -0.36 c -0.192,0.192 -0.42,0.348 -0.696,0.348 -0.432,0 -0.456,-0.564 -0.456,-1.068 V 8.5538997 h 1.152 v -0.504 h -1.152 v -1.8 h -0.564 c 0,0.96 -0.552,1.86 -1.428,1.86 v 0.444 h 1.056 V 11.9499 c 0,0.792 0.252,1.62 0.936,1.62 0.444,0 0.828,-0.24 1.152,-0.54 z"
         style="font-style:normal;font-size:12px;line-height:1.25"
         id="path101" />
      <path
         d="m 218.27391,14.8299 v -0.6 h -6 v 0.6 z"
         style="font-style:normal;font-size:12px;line-height:1.25"
         id="path103" />
      <path
         d="m 221.42989,13.0299 v -0.36 c -0.228,0.192 -0.492,0.348 -0.792,0.348 -0.444,0 -0.528,-0.552 -0.528,-1.068 V 8.0498997 h -0.936 V 11.9499 c 0,0.804 0.312,1.62 1.02,1.62 0.456,0 0.888,-0.228 1.236,-0.54 z m -1.2,-6.8520003 c 0,-0.324 -0.264,-0.588 -0.588,-0.588 -0.324,0 -0.588,0.264 -0.588,0.588 0,0.324 0.264,0.588 0.588,0.588 0.324,0 0.588,-0.264 0.588,-0.588 z"
         style="font-style:normal;font-size:12px;line-height:1.25"
         id="path105" />
    </g>
    <path
       id="path3000"
       d="m 152.36219,24.80312 v 14.173229 h 10.62992 l 7.08662,-7.086616 -7.08662,-7.086613 z"
       style="fill:#afdde9;fill-opacity:1;fill-rule:evenodd;stroke:#000000;stroke-width:1px;stroke-linecap:butt;stroke-linejoin:miter;stroke-opacity:1" />
    <g
       aria-label="btn_center_i"
       id="text3002"
       style="font-style:italic;line-height:0%;font-family:Iwona;-inkscape-font-specification:'Sans Italic'">
      <path
         d="m 179.22601,32.733041 c 0,-1.596 -0.6,-2.82 -2.052,-2.82 -0.612,0 -1.176,0.276 -1.656,0.66 v -3.54 h -0.936 v 8.4 h 0.936 v -0.276 c 0.456,0.24 0.96,0.396 1.476,0.396 1.5,0 2.232,-1.2 2.232,-2.82 z m -1.056,0 c 0,1.128 -0.348,2.316 -1.332,2.316 -0.468,0 -0.924,-0.156 -1.32,-0.396 v -3.576 c 0.36,-0.36 0.804,-0.66 1.32,-0.66 1.092,0 1.332,1.056 1.332,2.316 z"
         style="font-style:normal;font-size:12px;line-height:1.25"
         id="path108" />
      <path
         d="m 183.39,35.013041 v -0.36 c -0.192,0.192 -0.42,0.348 -0.696,0.348 -0.432,0 -0.456,-0.564 -0.456,-1.068 v -3.396 h 1.152 v -0.504 h -1.152 v -1.8 h -0.564 c 0,0.96 -0.552,1.86 -1.428,1.86 v 0.444 h 1.056 v 3.396 c 0,0.792 0.252,1.62 0.936,1.62 0.444,0 0.828,-0.24 1.152,-0.54 z"
         style="font-style:normal;font-size:12px;line-height:1.25"
         id="path110" />
      <path
         d="m 189.05398,35.433041 v -3.9 c 0,-0.876 -0.672,-1.62 -1.536,-1.62 -0.72,0 -1.356,0.408 -1.872,0.912 v -0.792 h -0.936 v 5.4 h 0.936 v -4.236 c 0.408,-0.408 0.912,-0.732 1.476,-0.732 0.564,0 0.996,0.492 0.996,1.068 v 3.9 z"
         style="font-style:normal;font-size:12px;line-height:1.25"
         id="path112" />
      <path
         d="m 195.95396,36.813041 v -0.6 h -6 v 0.6 z"
         style="font-style:normal;font-size:12px;line-height:1.25"
         id="path114" />
      <path
         d="m 200.80194,31.281041 v -0.504 c -0.384,-0.54 -1.008,-0.864 -1.68,-0.864 -1.5,0 -2.508,1.128 -2.508,2.82 0,1.692 1.008,2.82 2.508,2.82 0.624,0 1.212,-0.312 1.56,-0.828 v -0.504 c -0.408,0.612 -0.828,0.828 -1.56,0.828 -0.864,0 -1.452,-0.924 -1.452,-2.316 0,-1.392 0.588,-2.316 1.452,-2.316 0.744,0 1.248,0.264 1.68,0.864 z"
         style="font-style:normal;font-size:12px;line-height:1.25"
         id="path116" />
      <path
         d="m 206.40593,32.853041 v -0.12 c 0,-1.692 -0.924,-2.82 -2.316,-2.82 -1.404,0 -2.328,1.128 -2.328,2.82 0,1.692 0.924,2.82 2.328,2.82 0.6,0 1.188,-0.192 1.68,-0.54 v -0.504 c -0.564,0.36 -1.02,0.492 -1.68,0.492 -1.02,0 -1.272,-0.972 -1.272,-2.148 z m -1.056,-0.504 h -2.532 c 0,-0.96 0.408,-1.932 1.272,-1.932 0.852,0 1.26,0.972 1.26,1.932 z"
         style="font-style:normal;font-size:12px;line-height:1.25"
         id="path118" />
      <path
         d="m 212.30991,35.433041 v -3.9 c 0,-0.876 -0.672,-1.62 -1.536,-1.62 -0.72,0 -1.356,0.408 -1.872,0.912 v -0.792 h -0.936 v 5.4 h 0.936 v -4.236 c 0.408,-0.408 0.912,-0.732 1.476,-0.732 0.564,0 0.996,0.492 0.996,1.068 v 3.9 z"
         style="font-style:normal;font-size:12px;line-height:1.25"
         id="path120" />
      <path
         d="m 216.71389,35.013041 v -0.36 c -0.192,0.192 -0.42,0.348 -0.696,0.348 -0.432,0 -0.456,-0.564 -0.456,-1.068 v -3.396 h 1.152 v -0.504 h -1.152 v -1.8 h -0.564 c 0,0.96 -0.552,1.86 -1.428,1.86 v 0.444 h 1.056 v 3.396 c 0,0.792 0.252,1.62 0.936,1.62 0.444,0 0.828,-0.24 1.152,-0.54 z"
         style="font-style:normal;font-size:12px;line-height:1.25"
         id="path122" />
      <path
         d="m 222.37788,32.853041 v -0.12 c 0,-1.692 -0.924,-2.82 -2.316,-2.82 -1.404,0 -2.328,1.128 -2.328,2.82 0,1.692 0.924,2.82 2.328,2.82 0.6,0 1.188,-0.192 1.68,-0.54 v -0.504 c -0.564,0.36 -1.02,0.492 -1.68,0.492 -1.02,0 -1.272,-0.972 -1.272,-2.148 z m -1.056,-0.504 h -2.532 c 0,-0.96 0.408,-1.932 1.272,-1.932 0.852,0 1.26,0.972 1.26,1.932 z"
         style="font-style:normal;font-size:12px;line-height:1.25"
         id="path124" />
      <path
         d="m 226.92586,30.777041 v -0.744 c -0.132,-0.048 -0.276,-0.084 -0.408,-0.084 -0.672,0 -1.212,0.468 -1.644,0.984 v -0.9 h -0.936 v 5.4 h 0.936 v -3.996 c 0.36,-0.42 0.816,-0.78 1.368,-0.78 0.228,0 0.468,0.048 0.684,0.12 z"
         style="font-style:normal;font-size:12px;line-height:1.25"
         id="path126" />
      <path
         d="m 233.16585,36.813041 v -0.6 h -6 v 0.6 z"
         style="font-style:normal;font-size:12px;line-height:1.25"
         id="path128" />
      <path
         d="m 236.32182,35.013041 v -0.36 c -0.228,0.192 -0.492,0.348 -0.792,0.348 -0.444,0 -0.528,-0.552 -0.528,-1.068 v -3.9 h -0.936 v 3.9 c 0,0.804 0.312,1.62 1.02,1.62 0.456,0 0.888,-0.228 1.236,-0.54 z m -1.2,-6.852 c 0,-0.324 -0.264,-0.588 -0.588,-0.588 -0.324,0 -0.588,0.264 -0.588,0.588 0,0.324 0.264,0.588 0.588,0.588 0.324,0 0.588,-0.264 0.588,-0.588 z"
         style="font-style:normal;font-size:12px;line-height:1.25"
         id="path130" />
    </g>
    <path
       style="fill:#afdde9;fill-opacity:1;fill-rule:evenodd;stroke:#000000;stroke-width:1px;stroke-linecap:butt;stroke-linejoin:miter;stroke-opacity:1"
       d="m 152.36219,46.062963 v 14.173229 h 10.62992 l 7.08662,-7.086616 -7.08662,-7.086613 z"
       id="path173" />
    <g
       aria-label="btn_up_i"
       id="text177"
       style="font-style:italic;line-height:0%;font-family:Iwona;-inkscape-font-specification:'Sans Italic'">
      <path
         d="m 179.22601,53.992883 c 0,-1.596 -0.6,-2.82 -2.052,-2.82 -0.612,0 -1.176,0.276 -1.656,0.66 v -3.54 h -0.936 v 8.4 h 0.936 v -0.276 c 0.456,0.24 0.96,0.396 1.476,0.396 1.5,0 2.232,-1.2 2.232,-2.82 z m -1.056,0 c 0,1.128 -0.348,2.316 -1.332,2.316 -0.468,0 -0.924,-0.156 -1.32,-0.396 v -3.576 c 0.36,-0.36 0.804,-0.66 1.32,-0.66 1.092,0 1.332,1.056 1.332,2.316 z"
         style="font-style:normal;font-size:12px;line-height:1.25"
         id="path133" />
      <path
         d="m 183.39,56.272883 v -0.36 c -0.192,0.192 -0.42,0.348 -0.696,0.348 -0.432,0 -0.456,-0.564 -0.456,-1.068 v -3.396 h 1.152 v -0.504 h -1.152 v -1.8 h -0.564 c 0,0.96 -0.552,1.86 -1.428,1.86 v 0.444 h 1.056 v 3.396 c 0,0.792 0.252,1.62 0.936,1.62 0.444,0 0.828,-0.24 1.152,-0.54 z"
         style="font-style:normal;font-size:12px;line-height:1.25"
         id="path135" />
      <path
         d="m 189.05398,56.692883 v -3.9 c 0,-0.876 -0.672,-1.62 -1.536,-1.62 -0.72,0 -1.356,0.408 -1.872,0.912 v -0.792 h -0.936 v 5.4 h 0.936 v -4.236 c 0.408,-0.408 0.912,-0.732 1.476,-0.732 0.564,0 0.996,0.492 0.996,1.068 v 3.9 z"
         style="font-style:normal;font-size:12px;line-height:1.25"
         id="path137" />
      <path
         d="m 195.95396,58.072883 v -0.6 h -6 v 0.6 z"
         style="font-style:normal;font-size:12px;line-height:1.25"
         id="path139" />
      <path
         d="m 201.19794,56.692883 v -5.4 h -0.936 v 4.236 c -0.408,0.408 -0.912,0.732 -1.476,0.732 -0.564,0 -0.996,-0.492 -0.996,-1.068 v -3.9 h -0.936 v 3.9 c 0,0.876 0.672,1.62 1.536,1.62 0.72,0 1.356,-0.408 1.872,-0.912 v 0.792 z"
         style="font-style:normal;font-size:12px;line-height:1.25"
         id="path141" />
      <path
         d="m 207.70192,53.992883 c 0,-1.596 -0.6,-2.82 -2.052,-2.82 -0.612,0 -1.176,0.276 -1.656,0.66 v -0.54 h -0.936 v 8.16 h 0.936 v -2.964 c 0.468,0.204 0.972,0.324 1.476,0.324 1.5,0 2.232,-1.2 2.232,-2.82 z m -1.056,0 c 0,1.128 -0.348,2.316 -1.332,2.316 -0.456,0 -0.912,-0.12 -1.32,-0.324 v -3.648 c 0.36,-0.36 0.804,-0.66 1.32,-0.66 1.092,0 1.332,1.056 1.332,2.316 z"
         style="font-style:normal;font-size:12px;line-height:1.25"
         id="path143" />
      <path
         d="m 214.3619,58.072883 v -0.6 h -6 v 0.6 z"
         style="font-style:normal;font-size:12px;line-height:1.25"
         id="path145" />
      <path
         d="m 217.51788,56.272883 v -0.36 c -0.228,0.192 -0.492,0.348 -0.792,0.348 -0.444,0 -0.528,-0.552 -0.528,-1.068 v -3.9 h -0.936 v 3.9 c 0,0.804 0.312,1.62 1.02,1.62 0.456,0 0.888,-0.228 1.236,-0.54 z m -1.2,-6.852 c 0,-0.324 -0.264,-0.588 -0.588,-0.588 -0.324,0 -0.588,0.264 -0.588,0.588 0,0.324 0.264,0.588 0.588,0.588 0.324,0 0.588,-0.264 0.588,-0.588 z"
         style="font-style:normal;font-size:12px;line-height:1.25"
         id="path147" />
    </g>
    <path
       id="path179"
       d="m 152.36219,67.322805 v 14.173229 h 10.62992 l 7.08662,-7.086616 -7.08662,-7.086613 z"
       style="fill:#afdde9;fill-opacity:1;fill-rule:evenodd;stroke:#000000;stroke-width:1px;stroke-linecap:butt;stroke-linejoin:miter;stroke-opacity:1" />
    <g
       aria-label="btn_down_i"
       id="text183"
       style="font-style:italic;line-height:0%;font-family:Iwona;-inkscape-font-specification:'Sans Italic'">
      <path
         d="m 179.22601,75.252721 c 0,-1.596 -0.6,-2.82 -2.052,-2.82 -0.612,0 -1.176,0.276 -1.656,0.66 v -3.54 h -0.936 v 8.4 h 0.936 v -0.276 c 0.456,0.24 0.96,0.396 1.476,0.396 1.5,0 2.232,-1.2 2.232,-2.82 z m -1.056,0 c 0,1.128 -0.348,2.316 -1.332,2.316 -0.468,0 -0.924,-0.156 -1.32,-0.396 v -3.576 c 0.36,-0.36 0.804,-0.66 1.32,-0.66 1.092,0 1.332,1.056 1.332,2.316 z"
         style="font-style:normal;font-size:12px;line-height:1.25"
         id="path150" />
      <path
         d="m 183.39,77.532721 v -0.36 c -0.192,0.192 -0.42,0.348 -0.696,0.348 -0.432,0 -0.456,-0.564 -0.456,-1.068 v -3.396 h 1.152 v -0.504 h -1.152 v -1.8 h -0.564 c 0,0.96 -0.552,1.86 -1.428,1.86 v 0.444 h 1.056 v 3.396 c 0,0.792 0.252,1.62 0.936,1.62 0.444,0 0.828,-0.24 1.152,-0.54 z"
         style="font-style:normal;font-size:12px;line-height:1.25"
         id="path152" />
      <path
         d="m 189.05398,77.952721 v -3.9 c 0,-0.876 -0.672,-1.62 -1.536,-1.62 -0.72,0 -1.356,0.408 -1.872,0.912 v -0.792 h -0.936 v 5.4 h 0.936 v -4.236 c 0.408,-0.408 0.912,-0.732 1.476,-0.732 0.564,0 0.996,0.492 0.996,1.068 v 3.9 z"
         style="font-style:normal;font-size:12px;line-height:1.25"
         id="path154" />
      <path
         d="m 195.95396,79.332721 v -0.6 h -6 v 0.6 z"
         style="font-style:normal;font-size:12px;line-height:1.25"
         id="path156" />
      <path
         d="m 201.25794,77.952721 v -8.4 h -0.936 v 3.204 c -0.468,-0.204 -0.972,-0.324 -1.476,-0.324 -1.5,0 -2.232,1.2 -2.232,2.82 0,1.596 0.6,2.82 2.052,2.82 0.612,0 1.176,-0.276 1.656,-0.66 v 0.54 z m -0.936,-1.044 c -0.36,0.36 -0.804,0.66 -1.32,0.66 -1.092,0 -1.332,-1.056 -1.332,-2.316 0,-1.128 0.348,-2.316 1.332,-2.316 0.456,0 0.912,0.12 1.32,0.324 z"
         style="font-style:normal;font-size:12px;line-height:1.25"
         id="path158" />
      <path
         d="m 207.52193,75.252721 c 0,-1.836 -0.816,-2.82 -2.316,-2.82 -1.512,0 -2.328,0.984 -2.328,2.82 0,1.836 0.816,2.82 2.328,2.82 1.5,0 2.316,-0.984 2.316,-2.82 z m -1.056,0 c 0,1.5 -0.444,2.316 -1.26,2.316 -0.828,0 -1.272,-0.816 -1.272,-2.316 0,-1.5 0.444,-2.316 1.272,-2.316 0.816,0 1.26,0.816 1.26,2.316 z"
         style="font-style:normal;font-size:12px;line-height:1.25"
         id="path160" />
      <path
         d="m 216.02993,72.552721 h -0.528 l -1.416,4.38 -1.356,-4.38 h -0.648 l -1.416,4.38 -1.368,-4.38 h -0.876 l 1.68,5.4 h 0.756 l 1.356,-4.2 1.308,4.2 h 0.756 z"
         style="font-style:normal;font-size:12px;line-height:1.25"
         id="path162" />
      <path
         d="m 221.57393,77.952721 v -3.9 c 0,-0.876 -0.672,-1.62 -1.536,-1.62 -0.72,0 -1.356,0.408 -1.872,0.912 v -0.792 h -0.936 v 5.4 h 0.936 v -4.236 c 0.408,-0.408 0.912,-0.732 1.476,-0.732 0.564,0 0.996,0.492 0.996,1.068 v 3.9 z"
         style="font-style:normal;font-size:12px;line-height:1.25"
         id="path164" />
      <path
         d="m 228.47391,79.332721 v -0.6 h -6 v 0.6 z"
         style="font-style:normal;font-size:12px;line-height:1.25"
         id="path166" />
      <path
         d="m 231.62988,77.532721 v -0.36 c -0.228,0.192 -0.492,0.348 -0.792,0.348 -0.444,0 -0.528,-0.552 -0.528,-1.068 v -3.9 h -0.936 v 3.9 c 0,0.804 0.312,1.62 1.02,1.62 0.456,0 0.888,-0.228 1.236,-0.54 z m -1.2,-6.852 c 0,-0.324 -0.264,-0.588 -0.588,-0.588 -0.324,0 -0.588,0.264 -0.588,0.588 0,0.324 0.264,0.588 0.588,0.588 0.324,0 0.588,-0.264 0.588,-0.588 z"
         style="font-style:normal;font-size:12px;line-height:1.25"
         id="path168" />
    </g>
    <path
       style="fill:#afdde9;fill-opacity:1;fill-rule:evenodd;stroke:#000000;stroke-width:1px;stroke-linecap:butt;stroke-linejoin:miter;stroke-opacity:1"
       d="M 336.61415,3.5432704 V 17.716499 h 10.62992 l 7.08662,-7.08662 -7.08662,-7.0866086 z"
       id="path185" />
    <g
       aria-label="vga_green_o"
       id="text189"
       style="font-style:italic;line-height:0%;font-family:Iwona;-inkscape-font-specification:'Sans Italic';text-align:end;text-anchor:end">
      <path
         d="m 274.11498,8.7731901 h -0.54 l -1.632,4.4879999 -1.584,-4.4879999 h -0.888 l 1.896,5.3999999 h 0.78 z"
         style="font-style:normal;font-size:12px;line-height:1.25"
         id="path171" />
      <path
         d="M 279.53897,14.89319 V 8.7731901 h -0.936 v 0.204 c -0.468,-0.204 -0.972,-0.324 -1.476,-0.324 -1.5,0 -2.232,1.2 -2.232,2.8199999 0,1.596 0.6,2.82 2.052,2.82 0.612,0 1.176,-0.276 1.656,-0.66 v 1.26 c 0,0.828 -0.456,1.608 -1.2,1.608 -0.612,0 -1.224,-0.12 -1.8,-0.324 v 0.372 c 0.672,0.312 1.416,0.504 2.16,0.504 1.056,0 1.776,-1.032 1.776,-2.16 z m -0.936,-1.764 c -0.36,0.36 -0.804,0.66 -1.32,0.66 -1.092,0 -1.332,-1.056 -1.332,-2.316 0,-1.128 0.348,-2.3159999 1.332,-2.3159999 0.456,0 0.912,0.12 1.32,0.324 z"
         style="font-style:normal;font-size:12px;line-height:1.25"
         id="path174" />
      <path
         d="m 285.68296,14.17319 v -3.36 c 0,-1.1279999 -0.696,-2.1599999 -1.74,-2.1599999 -0.768,0 -1.488,0.264 -2.136,0.672 v 0.372 c 0.54,-0.3 1.14,-0.492 1.764,-0.492 0.744,0 1.176,0.792 1.176,1.6079999 v 0.216 c -0.468,-0.204 -0.972,-0.324 -1.476,-0.324 -1.284,0 -2.232,0.588 -2.232,1.8 0,1.152 0.84,1.788 2.052,1.788 0.612,0 1.176,-0.276 1.656,-0.66 v 0.54 z m -0.936,-1.044 c -0.36,0.36 -0.804,0.66 -1.32,0.66 -0.804,0 -1.332,-0.492 -1.332,-1.284 0,-0.732 0.6,-1.296 1.332,-1.296 0.456,0 0.912,0.12 1.32,0.324 z"
         style="font-style:normal;font-size:12px;line-height:1.25"
         id="path176" />
      <path
         d="m 292.64295,15.55319 v -0.6 h -6 v 0.6 z"
         style="font-style:normal;font-size:12px;line-height:1.25"
         id="path178" />
      <path
         d="M 297.94693,14.89319 V 8.7731901 h -0.936 v 0.204 c -0.468,-0.204 -0.972,-0.324 -1.476,-0.324 -1.5,0 -2.232,1.2 -2.232,2.8199999 0,1.596 0.6,2.82 2.052,2.82 0.612,0 1.176,-0.276 1.656,-0.66 v 1.26 c 0,0.828 -0.456,1.608 -1.2,1.608 -0.612,0 -1.224,-0.12 -1.8,-0.324 v 0.372 c 0.672,0.312 1.416,0.504 2.16,0.504 1.056,0 1.776,-1.032 1.776,-2.16 z m -0.936,-1.764 c -0.36,0.36 -0.804,0.66 -1.32,0.66 -1.092,0 -1.332,-1.056 -1.332,-2.316 0,-1.128 0.348,-2.3159999 1.332,-2.3159999 0.456,0 0.912,0.12 1.32,0.324 z"
         style="font-style:normal;font-size:12px;line-height:1.25"
         id="path180" />
      <path
         d="m 302.85492,9.5171901 v -0.744 c -0.132,-0.048 -0.276,-0.084 -0.408,-0.084 -0.672,0 -1.212,0.468 -1.644,0.984 v -0.9 h -0.936 V 14.17319 h 0.936 v -3.996 c 0.36,-0.4199999 0.816,-0.7799999 1.368,-0.7799999 0.228,0 0.468,0.048 0.684,0.12 z"
         style="font-style:normal;font-size:12px;line-height:1.25"
         id="path182" />
      <path
         d="m 308.39891,11.59319 v -0.12 c 0,-1.6919999 -0.924,-2.8199999 -2.316,-2.8199999 -1.404,0 -2.328,1.128 -2.328,2.8199999 0,1.692 0.924,2.82 2.328,2.82 0.6,0 1.188,-0.192 1.68,-0.54 v -0.504 c -0.564,0.36 -1.02,0.492 -1.68,0.492 -1.02,0 -1.272,-0.972 -1.272,-2.148 z m -1.056,-0.504 h -2.532 c 0,-0.96 0.408,-1.9319999 1.272,-1.9319999 0.852,0 1.26,0.9719999 1.26,1.9319999 z"
         style="font-style:normal;font-size:12px;line-height:1.25"
         id="path184" />
      <path
         d="m 314.30289,11.59319 v -0.12 c 0,-1.6919999 -0.924,-2.8199999 -2.316,-2.8199999 -1.404,0 -2.328,1.128 -2.328,2.8199999 0,1.692 0.924,2.82 2.328,2.82 0.6,0 1.188,-0.192 1.68,-0.54 v -0.504 c -0.564,0.36 -1.02,0.492 -1.68,0.492 -1.02,0 -1.272,-0.972 -1.272,-2.148 z m -1.056,-0.504 h -2.532 c 0,-0.96 0.408,-1.9319999 1.272,-1.9319999 0.852,0 1.26,0.9719999 1.26,1.9319999 z"
         style="font-style:normal;font-size:12px;line-height:1.25"
         id="path186" />
      <path
         d="m 320.20688,14.17319 v -3.9 c 0,-0.8759999 -0.672,-1.6199999 -1.536,-1.6199999 -0.72,0 -1.356,0.408 -1.872,0.912 v -0.792 h -0.936 V 14.17319 h 0.936 V 9.9371901 c 0.408,-0.408 0.912,-0.732 1.476,-0.732 0.564,0 0.996,0.492 0.996,1.0679999 v 3.9 z"
         style="font-style:normal;font-size:12px;line-height:1.25"
         id="path188" />
      <path
         d="m 327.10686,15.55319 v -0.6 h -6 v 0.6 z"
         style="font-style:normal;font-size:12px;line-height:1.25"
         id="path190" />
      <path
         d="m 332.41083,11.47319 c 0,-1.8359999 -0.816,-2.8199999 -2.316,-2.8199999 -1.512,0 -2.328,0.984 -2.328,2.8199999 0,1.836 0.816,2.82 2.328,2.82 1.5,0 2.316,-0.984 2.316,-2.82 z m -1.056,0 c 0,1.5 -0.444,2.316 -1.26,2.316 -0.828,0 -1.272,-0.816 -1.272,-2.316 0,-1.4999999 0.444,-2.3159999 1.272,-2.3159999 0.816,0 1.26,0.816 1.26,2.3159999 z"
         style="font-style:normal;font-size:12px;line-height:1.25"
         id="path192" />
    </g>
    <path
       id="path191"
       d="m 336.61415,24.803112 v 14.173229 h 10.62992 l 7.08662,-7.08662 -7.08662,-7.086609 z"
       style="fill:#afdde9;fill-opacity:1;fill-rule:evenodd;stroke:#000000;stroke-width:1px;stroke-linecap:butt;stroke-linejoin:miter;stroke-opacity:1" />
    <g
       aria-label="vga_blue_o"
       id="text195"
       style="font-style:italic;line-height:0%;font-family:Iwona;-inkscape-font-specification:'Sans Italic';text-align:end;text-anchor:end">
      <path
         d="m 280.75097,30.033033 h -0.54 l -1.632,4.488 -1.584,-4.488 h -0.888 l 1.896,5.4 h 0.78 z"
         style="font-style:normal;font-size:12px;line-height:1.25"
         id="path195" />
      <path
         d="m 286.17496,36.153033 v -6.12 h -0.936 v 0.204 c -0.468,-0.204 -0.972,-0.324 -1.476,-0.324 -1.5,0 -2.232,1.2 -2.232,2.82 0,1.596 0.6,2.82 2.052,2.82 0.612,0 1.176,-0.276 1.656,-0.66 v 1.26 c 0,0.828 -0.456,1.608 -1.2,1.608 -0.612,0 -1.224,-0.12 -1.8,-0.324 v 0.372 c 0.672,0.312 1.416,0.504 2.16,0.504 1.056,0 1.776,-1.032 1.776,-2.16 z m -0.936,-1.764 c -0.36,0.36 -0.804,0.66 -1.32,0.66 -1.092,0 -1.332,-1.056 -1.332,-2.316 0,-1.128 0.348,-2.316 1.332,-2.316 0.456,0 0.912,0.12 1.32,0.324 z"
         style="font-style:normal;font-size:12px;line-height:1.25"
         id="path198" />
      <path
         d="m 292.31896,35.433033 v -3.36 c 0,-1.128 -0.696,-2.16 -1.74,-2.16 -0.768,0 -1.488,0.264 -2.136,0.672 v 0.372 c 0.54,-0.3 1.14,-0.492 1.764,-0.492 0.744,0 1.176,0.792 1.176,1.608 v 0.216 c -0.468,-0.204 -0.972,-0.324 -1.476,-0.324 -1.284,0 -2.232,0.588 -2.232,1.8 0,1.152 0.84,1.788 2.052,1.788 0.612,0 1.176,-0.276 1.656,-0.66 v 0.54 z m -0.936,-1.044 c -0.36,0.36 -0.804,0.66 -1.32,0.66 -0.804,0 -1.332,-0.492 -1.332,-1.284 0,-0.732 0.6,-1.296 1.332,-1.296 0.456,0 0.912,0.12 1.32,0.324 z"
         style="font-style:normal;font-size:12px;line-height:1.25"
         id="path200" />
      <path
         d="m 299.27895,36.813033 v -0.6 h -6 v 0.6 z"
         style="font-style:normal;font-size:12px;line-height:1.25"
         id="path202" />
      <path
         d="m 304.88292,32.733033 c 0,-1.596 -0.6,-2.82 -2.052,-2.82 -0.612,0 -1.176,0.276 -1.656,0.66 v -3.54 h -0.936 v 8.4 h 0.936 v -0.276 c 0.456,0.24 0.96,0.396 1.476,0.396 1.5,0 2.232,-1.2 2.232,-2.82 z m -1.056,0 c 0,1.128 -0.348,2.316 -1.332,2.316 -0.468,0 -0.924,-0.156 -1.32,-0.396 v -3.576 c 0.36,-0.36 0.804,-0.66 1.32,-0.66 1.092,0 1.332,1.056 1.332,2.316 z"
         style="font-style:normal;font-size:12px;line-height:1.25"
         id="path204" />
      <path
         d="m 308.75892,35.013033 v -0.36 c -0.228,0.192 -0.492,0.348 -0.792,0.348 -0.444,0 -0.528,-0.552 -0.528,-1.068 v -6.9 h -0.936 v 6.9 c 0,0.804 0.312,1.62 1.02,1.62 0.456,0 0.888,-0.228 1.236,-0.54 z"
         style="font-style:normal;font-size:12px;line-height:1.25"
         id="path206" />
      <path
         d="m 314.24289,35.433033 v -5.4 h -0.936 v 4.236 c -0.408,0.408 -0.912,0.732 -1.476,0.732 -0.564,0 -0.996,-0.492 -0.996,-1.068 v -3.9 h -0.936 v 3.9 c 0,0.876 0.672,1.62 1.536,1.62 0.72,0 1.356,-0.408 1.872,-0.912 v 0.792 z"
         style="font-style:normal;font-size:12px;line-height:1.25"
         id="path208" />
      <path
         d="m 320.50687,32.853033 v -0.12 c 0,-1.692 -0.924,-2.82 -2.316,-2.82 -1.404,0 -2.328,1.128 -2.328,2.82 0,1.692 0.924,2.82 2.328,2.82 0.6,0 1.188,-0.192 1.68,-0.54 v -0.504 c -0.564,0.36 -1.02,0.492 -1.68,0.492 -1.02,0 -1.272,-0.972 -1.272,-2.148 z m -1.056,-0.504 h -2.532 c 0,-0.96 0.408,-1.932 1.272,-1.932 0.852,0 1.26,0.972 1.26,1.932 z"
         style="font-style:normal;font-size:12px;line-height:1.25"
         id="path210" />
      <path
         d="m 327.10686,36.813033 v -0.6 h -6 v 0.6 z"
         style="font-style:normal;font-size:12px;line-height:1.25"
         id="path212" />
      <path
         d="m 332.41083,32.733033 c 0,-1.836 -0.816,-2.82 -2.316,-2.82 -1.512,0 -2.328,0.984 -2.328,2.82 0,1.836 0.816,2.82 2.328,2.82 1.5,0 2.316,-0.984 2.316,-2.82 z m -1.056,0 c 0,1.5 -0.444,2.316 -1.26,2.316 -0.828,0 -1.272,-0.816 -1.272,-2.316 0,-1.5 0.444,-2.316 1.272,-2.316 0.816,0 1.26,0.816 1.26,2.316 z"
         style="font-style:normal;font-size:12px;line-height:1.25"
         id="path214" />
    </g>
    <path
       id="path197"
       d="m 336.61415,46.062955 v 14.173229 h 10.62992 l 7.08662,-7.08662 -7.08662,-7.086609 z"
       style="fill:#afdde9;fill-opacity:1;fill-rule:evenodd;stroke:#000000;stroke-width:1px;stroke-linecap:butt;stroke-linejoin:miter;stroke-opacity:1" />
    <g
       aria-label="vga_hsync_n_o"
       id="text201"
       style="font-style:italic;line-height:0%;font-family:Iwona;-inkscape-font-specification:'Sans Italic';text-align:end;text-anchor:end">
      <path
         d="m 261.46703,51.292875 h -0.54 l -1.632,4.488 -1.584,-4.488 h -0.888 l 1.896,5.4 h 0.78 z"
         style="font-style:normal;font-size:12px;line-height:1.25"
         id="path217" />
      <path
         d="m 266.89103,57.412875 v -6.12 h -0.936 v 0.204 c -0.468,-0.204 -0.972,-0.324 -1.476,-0.324 -1.5,0 -2.232,1.2 -2.232,2.82 0,1.596 0.6,2.82 2.052,2.82 0.612,0 1.176,-0.276 1.656,-0.66 v 1.26 c 0,0.828 -0.456,1.608 -1.2,1.608 -0.612,0 -1.224,-0.12 -1.8,-0.324 v 0.372 c 0.672,0.312 1.416,0.504 2.16,0.504 1.056,0 1.776,-1.032 1.776,-2.16 z m -0.936,-1.764 c -0.36,0.36 -0.804,0.66 -1.32,0.66 -1.092,0 -1.332,-1.056 -1.332,-2.316 0,-1.128 0.348,-2.316 1.332,-2.316 0.456,0 0.912,0.12 1.32,0.324 z"
         style="font-style:normal;font-size:12px;line-height:1.25"
         id="path219" />
      <path
         d="m 273.03502,56.692875 v -3.36 c 0,-1.128 -0.696,-2.16 -1.74,-2.16 -0.768,0 -1.488,0.264 -2.136,0.672 v 0.372 c 0.54,-0.3 1.14,-0.492 1.764,-0.492 0.744,0 1.176,0.792 1.176,1.608 v 0.216 c -0.468,-0.204 -0.972,-0.324 -1.476,-0.324 -1.284,0 -2.232,0.588 -2.232,1.8 0,1.152 0.84,1.788 2.052,1.788 0.612,0 1.176,-0.276 1.656,-0.66 v 0.54 z m -0.936,-1.044 c -0.36,0.36 -0.804,0.66 -1.32,0.66 -0.804,0 -1.332,-0.492 -1.332,-1.284 0,-0.732 0.6,-1.296 1.332,-1.296 0.456,0 0.912,0.12 1.32,0.324 z"
         style="font-style:normal;font-size:12px;line-height:1.25"
         id="path221" />
      <path
         d="m 279.99501,58.072875 v -0.6 h -6 v 0.6 z"
         style="font-style:normal;font-size:12px;line-height:1.25"
         id="path223" />
      <path
         d="m 285.29899,56.692875 v -3.9 c 0,-0.876 -0.672,-1.62 -1.536,-1.62 -0.72,0 -1.356,0.408 -1.872,0.912 v -3.792 h -0.936 v 8.4 h 0.936 v -4.236 c 0.408,-0.408 0.912,-0.732 1.476,-0.732 0.564,0 0.996,0.492 0.996,1.068 v 3.9 z"
         style="font-style:normal;font-size:12px;line-height:1.25"
         id="path225" />
      <path
         d="m 290.80697,55.156875 c 0,-0.948 -1.008,-1.44 -1.992,-1.68 -0.576,-0.144 -1.2,-0.384 -1.2,-0.948 0,-0.516 0.528,-0.852 1.104,-0.852 0.636,0 1.272,0.192 1.8,0.54 v -0.504 c -0.528,-0.348 -1.164,-0.54 -1.8,-0.54 -1.044,0 -2.004,0.636 -2.004,1.608 0,0.876 0.972,1.284 1.896,1.512 0.636,0.156 1.296,0.492 1.296,1.104 0,0.564 -0.576,0.912 -1.188,0.912 -0.744,0 -1.464,-0.18 -2.1,-0.54 v 0.504 c 0.636,0.36 1.356,0.54 2.1,0.54 1.08,0 2.088,-0.648 2.088,-1.656 z"
         style="font-style:normal;font-size:12px;line-height:1.25"
         id="path227" />
      <path
         d="m 296.59095,57.412875 v -6.12 h -0.936 v 4.236 c -0.408,0.408 -0.912,0.732 -1.476,0.732 -0.564,0 -0.996,-0.492 -0.996,-1.068 v -3.9 h -0.936 v 3.9 c 0,0.876 0.672,1.62 1.536,1.62 0.72,0 1.356,-0.408 1.872,-0.912 v 1.512 c 0,0.804 -0.36,1.608 -1.08,1.608 -0.564,0 -1.104,-0.12 -1.62,-0.324 v 0.372 c 0.612,0.312 1.296,0.504 1.992,0.504 1.02,0 1.644,-1.056 1.644,-2.16 z"
         style="font-style:normal;font-size:12px;line-height:1.25"
         id="path229" />
      <path
         d="m 302.85493,56.692875 v -3.9 c 0,-0.876 -0.672,-1.62 -1.536,-1.62 -0.72,0 -1.356,0.408 -1.872,0.912 v -0.792 h -0.936 v 5.4 h 0.936 v -4.236 c 0.408,-0.408 0.912,-0.732 1.476,-0.732 0.564,0 0.996,0.492 0.996,1.068 v 3.9 z"
         style="font-style:normal;font-size:12px;line-height:1.25"
         id="path231" />
      <path
         d="m 308.60291,52.540875 v -0.504 c -0.384,-0.54 -1.008,-0.864 -1.68,-0.864 -1.5,0 -2.508,1.128 -2.508,2.82 0,1.692 1.008,2.82 2.508,2.82 0.624,0 1.212,-0.312 1.56,-0.828 v -0.504 c -0.408,0.612 -0.828,0.828 -1.56,0.828 -0.864,0 -1.452,-0.924 -1.452,-2.316 0,-1.392 0.588,-2.316 1.452,-2.316 0.744,0 1.248,0.264 1.68,0.864 z"
         style="font-style:normal;font-size:12px;line-height:1.25"
         id="path233" />
      <path
         d="m 314.9029,58.072875 v -0.6 h -6 v 0.6 z"
         style="font-style:normal;font-size:12px;line-height:1.25"
         id="path235" />
      <path
         d="m 320.20688,56.692875 v -3.9 c 0,-0.876 -0.672,-1.62 -1.536,-1.62 -0.72,0 -1.356,0.408 -1.872,0.912 v -0.792 h -0.936 v 5.4 h 0.936 v -4.236 c 0.408,-0.408 0.912,-0.732 1.476,-0.732 0.564,0 0.996,0.492 0.996,1.068 v 3.9 z"
         style="font-style:normal;font-size:12px;line-height:1.25"
         id="path237" />
      <path
         d="m 327.10686,58.072875 v -0.6 h -6 v 0.6 z"
         style="font-style:normal;font-size:12px;line-height:1.25"
         id="path239" />
      <path
         d="m 332.41083,53.992875 c 0,-1.836 -0.816,-2.82 -2.316,-2.82 -1.512,0 -2.328,0.984 -2.328,2.82 0,1.836 0.816,2.82 2.328,2.82 1.5,0 2.316,-0.984 2.316,-2.82 z m -1.056,0 c 0,1.5 -0.444,2.316 -1.26,2.316 -0.828,0 -1.272,-0.816 -1.272,-2.316 0,-1.5 0.444,-2.316 1.272,-2.316 0.816,0 1.26,0.816 1.26,2.316 z"
         style="font-style:normal;font-size:12px;line-height:1.25"
         id="path241" />
    </g>
    <path
       style="fill:#afdde9;fill-opacity:1;fill-rule:evenodd;stroke:#000000;stroke-width:1px;stroke-linecap:butt;stroke-linejoin:miter;stroke-opacity:1"
       d="m 336.61415,67.322797 v 14.173229 h 10.62992 l 7.08662,-7.08662 -7.08662,-7.086609 z"
       id="path203" />
    <g
       aria-label="vga_vsync_n_o"
       id="text207"
       style="font-style:italic;line-height:0%;font-family:Iwona;-inkscape-font-specification:'Sans Italic';text-align:end;text-anchor:end">
      <path
         d="m 262.78702,72.552713 h -0.54 l -1.632,4.488 -1.584,-4.488 h -0.888 l 1.896,5.4 h 0.78 z"
         style="font-style:normal;font-size:12px;line-height:1.25"
         id="path244" />
      <path
         d="m 268.21101,78.672713 v -6.12 h -0.936 v 0.204 c -0.468,-0.204 -0.972,-0.324 -1.476,-0.324 -1.5,0 -2.232,1.2 -2.232,2.82 0,1.596 0.6,2.82 2.052,2.82 0.612,0 1.176,-0.276 1.656,-0.66 v 1.26 c 0,0.828 -0.456,1.608 -1.2,1.608 -0.612,0 -1.224,-0.12 -1.8,-0.324 v 0.372 c 0.672,0.312 1.416,0.504 2.16,0.504 1.056,0 1.776,-1.032 1.776,-2.16 z m -0.936,-1.764 c -0.36,0.36 -0.804,0.66 -1.32,0.66 -1.092,0 -1.332,-1.056 -1.332,-2.316 0,-1.128 0.348,-2.316 1.332,-2.316 0.456,0 0.912,0.12 1.32,0.324 z"
         style="font-style:normal;font-size:12px;line-height:1.25"
         id="path246" />
      <path
         d="m 274.35501,77.952713 v -3.36 c 0,-1.128 -0.696,-2.16 -1.74,-2.16 -0.768,0 -1.488,0.264 -2.136,0.672 v 0.372 c 0.54,-0.3 1.14,-0.492 1.764,-0.492 0.744,0 1.176,0.792 1.176,1.608 v 0.216 c -0.468,-0.204 -0.972,-0.324 -1.476,-0.324 -1.284,0 -2.232,0.588 -2.232,1.8 0,1.152 0.84,1.788 2.052,1.788 0.612,0 1.176,-0.276 1.656,-0.66 v 0.54 z m -0.936,-1.044 c -0.36,0.36 -0.804,0.66 -1.32,0.66 -0.804,0 -1.332,-0.492 -1.332,-1.284 0,-0.732 0.6,-1.296 1.332,-1.296 0.456,0 0.912,0.12 1.32,0.324 z"
         style="font-style:normal;font-size:12px;line-height:1.25"
         id="path248" />
      <path
         d="m 281.31499,79.332713 v -0.6 h -6 v 0.6 z"
         style="font-style:normal;font-size:12px;line-height:1.25"
         id="path250" />
      <path
         d="m 286.07897,72.552713 h -0.54 l -1.632,4.488 -1.584,-4.488 h -0.888 l 1.896,5.4 h 0.78 z"
         style="font-style:normal;font-size:12px;line-height:1.25"
         id="path252" />
      <path
         d="m 290.80697,76.416713 c 0,-0.948 -1.008,-1.44 -1.992,-1.68 -0.576,-0.144 -1.2,-0.384 -1.2,-0.948 0,-0.516 0.528,-0.852 1.104,-0.852 0.636,0 1.272,0.192 1.8,0.54 v -0.504 c -0.528,-0.348 -1.164,-0.54 -1.8,-0.54 -1.044,0 -2.004,0.636 -2.004,1.608 0,0.876 0.972,1.284 1.896,1.512 0.636,0.156 1.296,0.492 1.296,1.104 0,0.564 -0.576,0.912 -1.188,0.912 -0.744,0 -1.464,-0.18 -2.1,-0.54 v 0.504 c 0.636,0.36 1.356,0.54 2.1,0.54 1.08,0 2.088,-0.648 2.088,-1.656 z"
         style="font-style:normal;font-size:12px;line-height:1.25"
         id="path254" />
      <path
         d="m 296.59095,78.672713 v -6.12 h -0.936 v 4.236 c -0.408,0.408 -0.912,0.732 -1.476,0.732 -0.564,0 -0.996,-0.492 -0.996,-1.068 v -3.9 h -0.936 v 3.9 c 0,0.876 0.672,1.62 1.536,1.62 0.72,0 1.356,-0.408 1.872,-0.912 v 1.512 c 0,0.804 -0.36,1.608 -1.08,1.608 -0.564,0 -1.104,-0.12 -1.62,-0.324 v 0.372 c 0.612,0.312 1.296,0.504 1.992,0.504 1.02,0 1.644,-1.056 1.644,-2.16 z"
         style="font-style:normal;font-size:12px;line-height:1.25"
         id="path256" />
      <path
         d="m 302.85493,77.952713 v -3.9 c 0,-0.876 -0.672,-1.62 -1.536,-1.62 -0.72,0 -1.356,0.408 -1.872,0.912 v -0.792 h -0.936 v 5.4 h 0.936 v -4.236 c 0.408,-0.408 0.912,-0.732 1.476,-0.732 0.564,0 0.996,0.492 0.996,1.068 v 3.9 z"
         style="font-style:normal;font-size:12px;line-height:1.25"
         id="path258" />
      <path
         d="m 308.60291,73.800713 v -0.504 c -0.384,-0.54 -1.008,-0.864 -1.68,-0.864 -1.5,0 -2.508,1.128 -2.508,2.82 0,1.692 1.008,2.82 2.508,2.82 0.624,0 1.212,-0.312 1.56,-0.828 v -0.504 c -0.408,0.612 -0.828,0.828 -1.56,0.828 -0.864,0 -1.452,-0.924 -1.452,-2.316 0,-1.392 0.588,-2.316 1.452,-2.316 0.744,0 1.248,0.264 1.68,0.864 z"
         style="font-style:normal;font-size:12px;line-height:1.25"
         id="path260" />
      <path
         d="m 314.9029,79.332713 v -0.6 h -6 v 0.6 z"
         style="font-style:normal;font-size:12px;line-height:1.25"
         id="path262" />
      <path
         d="m 320.20688,77.952713 v -3.9 c 0,-0.876 -0.672,-1.62 -1.536,-1.62 -0.72,0 -1.356,0.408 -1.872,0.912 v -0.792 h -0.936 v 5.4 h 0.936 v -4.236 c 0.408,-0.408 0.912,-0.732 1.476,-0.732 0.564,0 0.996,0.492 0.996,1.068 v 3.9 z"
         style="font-style:normal;font-size:12px;line-height:1.25"
         id="path264" />
      <path
         d="m 327.10686,79.332713 v -0.6 h -6 v 0.6 z"
         style="font-style:normal;font-size:12px;line-height:1.25"
         id="path266" />
      <path
         d="m 332.41083,75.252713 c 0,-1.836 -0.816,-2.82 -2.316,-2.82 -1.512,0 -2.328,0.984 -2.328,2.82 0,1.836 0.816,2.82 2.328,2.82 1.5,0 2.316,-0.984 2.316,-2.82 z m -1.056,0 c 0,1.5 -0.444,2.316 -1.26,2.316 -0.828,0 -1.272,-0.816 -1.272,-2.316 0,-1.5 0.444,-2.316 1.272,-2.316 0.816,0 1.26,0.816 1.26,2.316 z"
         style="font-style:normal;font-size:12px;line-height:1.25"
         id="path268" />
    </g>
  </g>
</svg>
