<?xml version="1.0" encoding="UTF-8" standalone="no"?>
<svg
   width="86.441498mm"
   height="38.496964mm"
   viewBox="0 0 86.441497 38.496964"
   version="1.1"
   id="svg8"
   xmlns="http://www.w3.org/2000/svg"
   xmlns:svg="http://www.w3.org/2000/svg"
   xmlns:rdf="http://www.w3.org/1999/02/22-rdf-syntax-ns#"
   xmlns:cc="http://creativecommons.org/ns#"
   xmlns:dc="http://purl.org/dc/elements/1.1/">
  <defs
     id="defs2">
    <marker
       style="overflow:visible"
       id="marker1979"
       refX="0"
       refY="0"
       orient="auto">
      <path
         transform="matrix(-0.2,0,0,-0.2,-1.2,0)"
         style="fill:#000000;fill-opacity:1;fill-rule:evenodd;stroke:#000000;stroke-width:1pt;stroke-opacity:1"
         d="M 0,0 5,-5 -12.5,0 5,5 Z"
         id="path1977" />
    </marker>
    <marker
       style="overflow:visible"
       id="marker1969"
       refX="0"
       refY="0"
       orient="auto">
      <path
         transform="matrix(0.2,0,0,0.2,1.2,0)"
         style="fill:#000000;fill-opacity:1;fill-rule:evenodd;stroke:#000000;stroke-width:1pt;stroke-opacity:1"
         d="M 0,0 5,-5 -12.5,0 5,5 Z"
         id="path1967" />
    </marker>
    <marker
       style="overflow:visible"
       id="marker1831"
       refX="0"
       refY="0"
       orient="auto">
      <path
         transform="matrix(-0.2,0,0,-0.2,-1.2,0)"
         style="fill:#000000;fill-opacity:1;fill-rule:evenodd;stroke:#000000;stroke-width:1pt;stroke-opacity:1"
         d="M 0,0 5,-5 -12.5,0 5,5 Z"
         id="path1829" />
    </marker>
    <marker
       style="overflow:visible"
       id="marker1821"
       refX="0"
       refY="0"
       orient="auto">
      <path
         transform="matrix(0.2,0,0,0.2,1.2,0)"
         style="fill:#000000;fill-opacity:1;fill-rule:evenodd;stroke:#000000;stroke-width:1pt;stroke-opacity:1"
         d="M 0,0 5,-5 -12.5,0 5,5 Z"
         id="path1819" />
    </marker>
    <marker
       style="overflow:visible"
       id="marker1703"
       refX="0"
       refY="0"
       orient="auto">
      <path
         transform="matrix(-0.2,0,0,-0.2,-1.2,0)"
         style="fill:#000000;fill-opacity:1;fill-rule:evenodd;stroke:#000000;stroke-width:1pt;stroke-opacity:1"
         d="M 0,0 5,-5 -12.5,0 5,5 Z"
         id="path1701" />
    </marker>
    <marker
       style="overflow:visible"
       id="marker1693"
       refX="0"
       refY="0"
       orient="auto">
      <path
         transform="matrix(0.2,0,0,0.2,1.2,0)"
         style="fill:#000000;fill-opacity:1;fill-rule:evenodd;stroke:#000000;stroke-width:1pt;stroke-opacity:1"
         d="M 0,0 5,-5 -12.5,0 5,5 Z"
         id="path1691" />
    </marker>
    <marker
       style="overflow:visible"
       id="Arrow1Mstart"
       refX="0"
       refY="0"
       orient="auto">
      <path
         transform="matrix(0.4,0,0,0.4,4,0)"
         style="fill:#000000;fill-opacity:1;fill-rule:evenodd;stroke:#000000;stroke-width:1pt;stroke-opacity:1"
         d="M 0,0 5,-5 -12.5,0 5,5 Z"
         id="path937" />
    </marker>
    <marker
       style="overflow:visible"
       id="marker1409"
       refX="0"
       refY="0"
       orient="auto">
      <path
         transform="matrix(-0.2,0,0,-0.2,-1.2,0)"
         style="fill:#000000;fill-opacity:1;fill-rule:evenodd;stroke:#000000;stroke-width:1pt;stroke-opacity:1"
         d="M 0,0 5,-5 -12.5,0 5,5 Z"
         id="path1407" />
    </marker>
    <marker
       style="overflow:visible"
       id="Arrow1Sstart"
       refX="0"
       refY="0"
       orient="auto">
      <path
         transform="matrix(0.2,0,0,0.2,1.2,0)"
         style="fill:#000000;fill-opacity:1;fill-rule:evenodd;stroke:#000000;stroke-width:1pt;stroke-opacity:1"
         d="M 0,0 5,-5 -12.5,0 5,5 Z"
         id="path943" />
    </marker>
    <marker
       style="overflow:visible"
       id="Arrow1Mend"
       refX="0"
       refY="0"
       orient="auto">
      <path
         transform="matrix(-0.4,0,0,-0.4,-4,0)"
         style="fill:#000000;fill-opacity:1;fill-rule:evenodd;stroke:#000000;stroke-width:1pt;stroke-opacity:1"
         d="M 0,0 5,-5 -12.5,0 5,5 Z"
         id="path940" />
    </marker>
  </defs>
  <metadata
     id="metadata5">
    <rdf:RDF>
      <cc:Work
         rdf:about="">
        <dc:format>image/svg+xml</dc:format>
        <dc:type
           rdf:resource="http://purl.org/dc/dcmitype/StillImage" />
        <dc:title />
      </cc:Work>
    </rdf:RDF>
  </metadata>
  <g
     id="layer1"
     transform="translate(1.9200855,-19.024446)">
    <path
       id="rect16"
       style="fill:#ffff00;fill-rule:evenodd;stroke:#000000;stroke-width:0.282001;stroke-linecap:round;stroke-linejoin:round"
       d="m 61,45 h 2 v 6.000001 h -2 z" />
    <path
       id="rect1555"
       style="fill:#ffffff;fill-rule:evenodd;stroke:#000000;stroke-width:0.282001;stroke-linecap:round;stroke-linejoin:round"
       d="m 25,34 h 2 v 2 h -2 z" />
    <path
       style="fill:none;stroke:#000000;stroke-width:0.264583px;stroke-linecap:butt;stroke-linejoin:miter;stroke-opacity:1;marker-start:url(#Arrow1Mstart);marker-end:url(#Arrow1Mend)"
       d="M 82,25 H 14.999999 v 30"
       id="path1557" />
    <g
       aria-label="ball_x_i"
       id="text1623"
       style="font-size:2.82222px;line-height:1.25;font-family:Iwona;-inkscape-font-specification:Iwona;text-align:center;letter-spacing:0px;word-spacing:0px;text-anchor:middle;stroke-width:0.264583">
      <path
         d="m 21.633108,22.365 c 0,-0.375355 -0.141111,-0.663221 -0.4826,-0.663221 -0.143933,0 -0.276577,0.06491 -0.389466,0.155222 V 21.024446 H 20.540909 V 23 h 0.220133 v -0.06491 c 0.107244,0.05644 0.225778,0.09313 0.347133,0.09313 0.352778,0 0.524933,-0.282222 0.524933,-0.663222 z m -0.248355,0 c 0,0.265289 -0.08185,0.544689 -0.313267,0.544689 -0.110066,0 -0.217311,-0.03669 -0.310444,-0.09313 v -0.841022 c 0.08467,-0.08467 0.189089,-0.155222 0.310444,-0.155222 0.256822,0 0.313267,0.248355 0.313267,0.544688 z"
         id="path63" />
      <path
         d="m 23.007527,23 v -0.790222 c 0,-0.265288 -0.163688,-0.507999 -0.409221,-0.507999 -0.180623,0 -0.349956,0.06209 -0.502356,0.158044 v 0.08749 c 0.127,-0.07056 0.268111,-0.115711 0.414867,-0.115711 0.174977,0 0.276577,0.186266 0.276577,0.378177 v 0.0508 c -0.110066,-0.04798 -0.2286,-0.0762 -0.347133,-0.0762 -0.301977,0 -0.524933,0.138289 -0.524933,0.423333 0,0.270934 0.197556,0.420511 0.4826,0.420511 0.143933,0 0.276577,-0.06491 0.389466,-0.155222 V 23 Z m -0.220133,-0.245533 c -0.08467,0.08467 -0.189088,0.155222 -0.310444,0.155222 -0.189089,0 -0.313266,-0.115711 -0.313266,-0.301978 0,-0.172155 0.141111,-0.304799 0.313266,-0.304799 0.107244,0 0.214489,0.02822 0.310444,0.0762 z"
         id="path65" />
      <path
         d="m 23.989658,22.901222 v -0.08467 c -0.05362,0.04516 -0.115711,0.08184 -0.186267,0.08184 -0.104422,0 -0.124178,-0.129822 -0.124178,-0.251178 V 21.024446 H 23.45908 v 1.622776 c 0,0.189089 0.07338,0.381 0.239889,0.381 0.107244,0 0.208844,-0.05362 0.290689,-0.127 z"
         id="path67" />
      <path
         d="m 24.802452,22.901222 v -0.08467 c -0.05362,0.04516 -0.115711,0.08184 -0.186267,0.08184 -0.104422,0 -0.124177,-0.129822 -0.124177,-0.251178 v -1.622776 h -0.220134 v 1.622776 c 0,0.189089 0.07338,0.381 0.239889,0.381 0.107245,0 0.208844,-0.05362 0.290689,-0.127 z"
         id="path69" />
      <path
         d="m 26.270001,23.324555 v -0.141111 h -1.41111 v 0.141111 z"
         id="path71" />
      <path
         d="m 27.418639,23 -0.443088,-0.677333 0.428977,-0.592666 h -0.146755 l -0.349956,0.485422 -0.316088,-0.485422 H 26.354662 L 26.775173,22.376289 26.32644,23 h 0.146756 L 26.845729,22.483534 27.181573,23 Z"
         id="path73" />
      <path
         d="m 28.886189,23.324555 v -0.141111 h -1.41111 v 0.141111 z"
         id="path75" />
      <path
         d="m 29.628428,22.901222 v -0.08467 c -0.05362,0.04516 -0.115711,0.08184 -0.186267,0.08184 -0.104422,0 -0.124178,-0.129822 -0.124178,-0.251178 V 21.730001 H 29.09785 v 0.917221 c 0,0.189089 0.07338,0.381 0.239889,0.381 0.107244,0 0.208844,-0.05362 0.290689,-0.127 z m -0.282222,-1.611487 c 0,-0.0762 -0.06209,-0.138289 -0.138289,-0.138289 -0.0762,0 -0.138289,0.06209 -0.138289,0.138289 0,0.0762 0.06209,0.138288 0.138289,0.138288 0.0762,0 0.138289,-0.06209 0.138289,-0.138288 z"
         id="path77" />
    </g>
    <path
       style="fill:none;stroke:#000000;stroke-width:0.264583;stroke-linecap:butt;stroke-linejoin:miter;stroke-miterlimit:4;stroke-dasharray:0.264583, 0.264583;stroke-dashoffset:0;stroke-opacity:1"
       d="M 25,24 V 34"
       id="path1625" />
    <path
       style="fill:none;stroke:#000000;stroke-width:0.264583;stroke-linecap:butt;stroke-linejoin:miter;stroke-miterlimit:4;stroke-dasharray:0.264583, 0.264583;stroke-dashoffset:0;stroke-opacity:1"
       d="M 14,34 H 25"
       id="path1627" />
    <g
       aria-label="ball_y_i"
       id="text1631"
       style="font-size:2.82222px;line-height:1.25;font-family:Iwona;-inkscape-font-specification:Iwona;text-align:end;letter-spacing:0px;word-spacing:0px;text-anchor:end;stroke-width:0.264583">
      <path
         d="m 4.694239,34.365 c 0,-0.375355 -0.141111,-0.663221 -0.4825996,-0.663221 -0.1439332,0 -0.2765776,0.06491 -0.3894664,0.155222 V 33.024446 H 3.6020398 V 35 H 3.822173 v -0.06491 c 0.1072444,0.05644 0.2257776,0.09313 0.3471331,0.09313 0.3527775,0 0.5249329,-0.282222 0.5249329,-0.663222 z m -0.2483554,0 c 0,0.265289 -0.081844,0.544689 -0.3132664,0.544689 -0.1100666,0 -0.2173109,-0.03669 -0.3104442,-0.09313 v -0.841022 c 0.084667,-0.08467 0.1890888,-0.155222 0.3104442,-0.155222 0.256822,0 0.3132664,0.248355 0.3132664,0.544688 z"
         id="path80" />
      <path
         d="m 6.0686584,35 v -0.790222 c 0,-0.265288 -0.1636888,-0.507999 -0.4092219,-0.507999 -0.1806221,0 -0.3499553,0.06209 -0.5023552,0.158044 v 0.08749 c 0.1269999,-0.07056 0.2681109,-0.115711 0.4148664,-0.115711 0.1749776,0 0.2765775,0.186266 0.2765775,0.378177 v 0.0508 c -0.1100665,-0.04798 -0.2285998,-0.0762 -0.347133,-0.0762 -0.3019776,0 -0.524933,0.138289 -0.524933,0.423333 0,0.270934 0.1975554,0.420511 0.4825997,0.420511 0.1439332,0 0.2765775,-0.06491 0.3894663,-0.155222 V 35 Z M 5.8485252,34.754467 c -0.084667,0.08467 -0.1890887,0.155222 -0.3104442,0.155222 -0.1890887,0 -0.3132664,-0.115711 -0.3132664,-0.301978 0,-0.172155 0.141111,-0.304799 0.3132664,-0.304799 0.1072444,0 0.2144888,0.02822 0.3104442,0.0762 z"
         id="path82" />
      <path
         d="m 7.0507886,34.901222 v -0.08467 c -0.053622,0.04516 -0.115711,0.08184 -0.1862665,0.08184 -0.1044221,0 -0.1241777,-0.129822 -0.1241777,-0.251178 V 33.024446 H 6.5202112 v 1.622776 c 0,0.189089 0.073378,0.381 0.2398888,0.381 0.1072443,0 0.2088442,-0.05362 0.2906886,-0.127 z"
         id="path84" />
      <path
         d="m 7.8635828,34.901222 v -0.08467 c -0.053622,0.04516 -0.115711,0.08184 -0.1862665,0.08184 -0.1044221,0 -0.1241777,-0.129822 -0.1241777,-0.251178 V 33.024446 H 7.3330055 v 1.622776 c 0,0.189089 0.073378,0.381 0.2398887,0.381 0.1072443,0 0.2088442,-0.05362 0.2906886,-0.127 z"
         id="path86" />
      <path
         d="m 9.3311321,35.324555 v -0.141111 h -1.41111 v 0.141111 z"
         id="path88" />
      <path
         d="m 10.564437,35.169333 v -1.439332 h -0.220133 v 0.996244 c -0.09596,0.09596 -0.214489,0.172155 -0.3471333,0.172155 -0.1326444,0 -0.2342443,-0.115711 -0.2342443,-0.251178 V 33.730001 H 9.5427932 v 0.917221 c 0,0.206023 0.1580444,0.381 0.3612442,0.381 0.1693336,0 0.3189106,-0.09595 0.4402666,-0.214489 v 0.3556 c 0,0.189089 -0.08467,0.378178 -0.254,0.378178 -0.1326444,0 -0.2596443,-0.02822 -0.3809998,-0.0762 v 0.08749 c 0.1439332,0.07338 0.3047998,0.118533 0.4684888,0.118533 0.239888,0 0.386644,-0.248356 0.386644,-0.508 z"
         id="path90" />
      <path
         d="m 12.20132,35.324555 v -0.141111 h -1.41111 v 0.141111 z"
         id="path92" />
      <path
         d="m 12.943558,34.901222 v -0.08467 c -0.05362,0.04516 -0.115711,0.08184 -0.186266,0.08184 -0.104422,0 -0.124178,-0.129822 -0.124178,-0.251178 v -0.917221 h -0.220133 v 0.917221 c 0,0.189089 0.07338,0.381 0.239889,0.381 0.107244,0 0.208844,-0.05362 0.290688,-0.127 z m -0.282222,-1.611487 c 0,-0.0762 -0.06209,-0.138289 -0.138288,-0.138289 -0.0762,0 -0.138289,0.06209 -0.138289,0.138289 0,0.0762 0.06209,0.138288 0.138289,0.138288 0.0762,0 0.138288,-0.06209 0.138288,-0.138288 z"
         id="path94" />
    </g>
    <path
       style="fill:none;stroke:#000000;stroke-width:0.264583;stroke-linecap:butt;stroke-linejoin:miter;stroke-miterlimit:4;stroke-dasharray:0.264583, 0.264583;stroke-dashoffset:0;stroke-opacity:1"
       d="M 61,24 V 45"
       id="path1633" />
    <g
       aria-label="paddle_x_i"
       id="text1637"
       style="font-size:2.82222px;line-height:1.25;font-family:Iwona;-inkscape-font-specification:Iwona;text-align:center;letter-spacing:0px;word-spacing:0px;text-anchor:middle;stroke-width:0.264583">
      <path
         d="m 55.86499,22.365 c 0,-0.375355 -0.141111,-0.663221 -0.4826,-0.663221 -0.143933,0 -0.276577,0.06491 -0.389466,0.155222 v -0.127 h -0.220133 v 1.91911 h 0.220133 v -0.697089 c 0.110066,0.04798 0.2286,0.0762 0.347133,0.0762 0.352777,0 0.524933,-0.282222 0.524933,-0.663222 z m -0.248356,0 c 0,0.265289 -0.08184,0.544689 -0.313266,0.544689 -0.107244,0 -0.214489,-0.02822 -0.310444,-0.0762 v -0.857955 c 0.08467,-0.08467 0.189089,-0.155222 0.310444,-0.155222 0.256822,0 0.313266,0.248355 0.313266,0.544688 z"
         id="path97" />
      <path
         d="m 57.239406,23 v -0.790222 c 0,-0.265288 -0.163689,-0.507999 -0.409222,-0.507999 -0.180622,0 -0.349955,0.06209 -0.502355,0.158044 v 0.08749 c 0.127,-0.07056 0.268111,-0.115711 0.414866,-0.115711 0.174978,0 0.276578,0.186266 0.276578,0.378177 v 0.0508 c -0.110067,-0.04798 -0.2286,-0.0762 -0.347133,-0.0762 -0.301978,0 -0.524933,0.138289 -0.524933,0.423333 0,0.270934 0.197555,0.420511 0.4826,0.420511 0.143933,0 0.276577,-0.06491 0.389466,-0.155222 V 23 Z m -0.220133,-0.245533 c -0.08467,0.08467 -0.189089,0.155222 -0.310444,0.155222 -0.189089,0 -0.313267,-0.115711 -0.313267,-0.301978 0,-0.172155 0.141111,-0.304799 0.313267,-0.304799 0.107244,0 0.214488,0.02822 0.310444,0.0762 z"
         id="path99" />
      <path
         d="m 58.712602,23 v -1.975554 h -0.220133 v 0.753533 c -0.110066,-0.04798 -0.2286,-0.0762 -0.347133,-0.0762 -0.352777,0 -0.524933,0.282222 -0.524933,0.663221 0,0.375356 0.141111,0.663222 0.4826,0.663222 0.143933,0 0.276577,-0.06491 0.389466,-0.155222 V 23 Z m -0.220133,-0.245533 c -0.08467,0.08467 -0.189089,0.155222 -0.310444,0.155222 -0.256822,0 -0.313266,-0.248355 -0.313266,-0.544689 0,-0.265288 0.08184,-0.544688 0.313266,-0.544688 0.107244,0 0.214489,0.02822 0.310444,0.0762 z"
         id="path101" />
      <path
         d="m 60.1858,23 v -1.975554 h -0.220133 v 0.753533 c -0.110067,-0.04798 -0.2286,-0.0762 -0.347133,-0.0762 -0.352778,0 -0.524933,0.282222 -0.524933,0.663221 0,0.375356 0.141111,0.663222 0.482599,0.663222 0.143934,0 0.276578,-0.06491 0.389467,-0.155222 V 23 Z m -0.220133,-0.245533 c -0.08467,0.08467 -0.189089,0.155222 -0.310445,0.155222 -0.256822,0 -0.313266,-0.248355 -0.313266,-0.544689 0,-0.265288 0.08184,-0.544688 0.313266,-0.544688 0.107245,0 0.214489,0.02822 0.310445,0.0762 z"
         id="path103" />
      <path
         d="m 61.167931,22.901222 v -0.08467 c -0.05362,0.04516 -0.115711,0.08184 -0.186267,0.08184 -0.104422,0 -0.124178,-0.129822 -0.124178,-0.251178 v -1.622776 h -0.220133 v 1.622776 c 0,0.189089 0.07338,0.381 0.239889,0.381 0.107244,0 0.208844,-0.05362 0.290689,-0.127 z"
         id="path105" />
      <path
         d="M 62.471791,22.393223 V 22.365 c 0,-0.397933 -0.217311,-0.663221 -0.544688,-0.663221 -0.3302,0 -0.547511,0.265288 -0.547511,0.663221 0,0.397934 0.217311,0.663222 0.547511,0.663222 0.141111,0 0.279399,-0.04516 0.39511,-0.127 v -0.118533 c -0.132644,0.08467 -0.239888,0.115711 -0.39511,0.115711 -0.239889,0 -0.299156,-0.2286 -0.299156,-0.505177 z m -0.248355,-0.118534 h -0.595489 c 0,-0.225777 0.09596,-0.454377 0.299156,-0.454377 0.200377,0 0.296333,0.2286 0.296333,0.454377 z"
         id="path107" />
      <path
         d="m 64.024008,23.324555 v -0.141111 h -1.41111 v 0.141111 z"
         id="path109" />
      <path
         d="m 65.172647,23 -0.443089,-0.677333 0.428978,-0.592666 H 65.01178 l -0.349955,0.485422 -0.316089,-0.485422 H 64.10867 L 64.529181,22.376289 64.080448,23 h 0.146755 L 64.599736,22.483534 64.93558,23 Z"
         id="path111" />
      <path
         d="m 66.640196,23.324555 v -0.141111 h -1.41111 v 0.141111 z"
         id="path113" />
      <path
         d="m 67.382434,22.901222 v -0.08467 c -0.05362,0.04516 -0.115711,0.08184 -0.186266,0.08184 -0.104422,0 -0.124178,-0.129822 -0.124178,-0.251178 v -0.917221 h -0.220133 v 0.917221 c 0,0.189089 0.07338,0.381 0.239889,0.381 0.107244,0 0.208844,-0.05362 0.290688,-0.127 z m -0.282222,-1.611487 c 0,-0.0762 -0.06209,-0.138289 -0.138289,-0.138289 -0.0762,0 -0.138288,0.06209 -0.138288,0.138289 0,0.0762 0.06209,0.138288 0.138288,0.138288 0.0762,0 0.138289,-0.06209 0.138289,-0.138288 z"
         id="path115" />
    </g>
    <path
       style="fill:none;stroke:#000000;stroke-width:0.264583;stroke-linecap:butt;stroke-linejoin:miter;stroke-miterlimit:4;stroke-dasharray:0.264583, 0.264583;stroke-dashoffset:0;stroke-opacity:1"
       d="M 14,45 H 61"
       id="path1639" />
    <g
       aria-label="paddle_y_i"
       id="text1643"
       style="font-size:2.82222px;line-height:1.25;font-family:Iwona;-inkscape-font-specification:Iwona;text-align:end;letter-spacing:0px;word-spacing:0px;text-anchor:end;stroke-width:0.264583">
      <path
         d="m 1.1721136,45.365 c 0,-0.375355 -0.141111,-0.663221 -0.48259959,-0.663221 -0.14393323,0 -0.27657757,0.06491 -0.38946638,0.155222 v -0.127 H 0.07991447 v 1.91911 h 0.22013316 v -0.697089 c 0.11006659,0.04798 0.22859983,0.0762 0.34713307,0.0762 0.35277752,0 0.5249329,-0.282222 0.5249329,-0.663222 z m -0.24835533,0 c 0,0.265289 -0.0818444,0.544689 -0.31326643,0.544689 -0.10724436,0 -0.21448872,-0.02822 -0.31044421,-0.0762 v -0.857955 c 0.0846666,-0.08467 0.18908875,-0.155222 0.31044421,-0.155222 0.25682203,0 0.31326643,0.248355 0.31326643,0.544688 z"
         id="path118" />
      <path
         d="m 2.54653,46 v -0.790222 c 0,-0.265288 -0.1636888,-0.507999 -0.4092219,-0.507999 -0.1806221,0 -0.3499553,0.06209 -0.5023552,0.158044 v 0.08749 c 0.1269999,-0.07056 0.2681109,-0.115711 0.4148664,-0.115711 0.1749776,0 0.2765775,0.186266 0.2765775,0.378177 v 0.0508 c -0.1100666,-0.04798 -0.2285998,-0.0762 -0.347133,-0.0762 -0.3019776,0 -0.524933,0.138289 -0.524933,0.423333 0,0.270934 0.1975554,0.420511 0.4825997,0.420511 0.1439332,0 0.2765775,-0.06491 0.3894663,-0.155222 V 46 Z M 2.3263968,45.754467 c -0.084667,0.08467 -0.1890887,0.155222 -0.3104442,0.155222 -0.1890887,0 -0.3132664,-0.115711 -0.3132664,-0.301978 0,-0.172155 0.141111,-0.304799 0.3132664,-0.304799 0.1072444,0 0.2144887,0.02822 0.3104442,0.0762 z"
         id="path120" />
      <path
         d="M 4.0197263,46 V 44.024446 H 3.7995931 v 0.753533 c -0.1100666,-0.04798 -0.2285998,-0.0762 -0.3471331,-0.0762 -0.3527775,0 -0.5249329,0.282222 -0.5249329,0.663221 0,0.375356 0.141111,0.663222 0.4825996,0.663222 0.1439333,0 0.2765776,-0.06491 0.3894664,-0.155222 V 46 Z M 3.7995931,45.754467 c -0.084667,0.08467 -0.1890887,0.155222 -0.3104442,0.155222 -0.256822,0 -0.3132664,-0.248355 -0.3132664,-0.544689 0,-0.265288 0.081844,-0.544688 0.3132664,-0.544688 0.1072444,0 0.2144887,0.02822 0.3104442,0.0762 z"
         id="path122" />
      <path
         d="M 5.4929237,46 V 44.024446 H 5.2727906 v 0.753533 c -0.1100666,-0.04798 -0.2285999,-0.0762 -0.3471331,-0.0762 -0.3527775,0 -0.5249329,0.282222 -0.5249329,0.663221 0,0.375356 0.141111,0.663222 0.4825996,0.663222 0.1439332,0 0.2765776,-0.06491 0.3894664,-0.155222 V 46 Z M 5.2727906,45.754467 c -0.084667,0.08467 -0.1890888,0.155222 -0.3104443,0.155222 -0.256822,0 -0.3132664,-0.248355 -0.3132664,-0.544689 0,-0.265288 0.081844,-0.544688 0.3132664,-0.544688 0.1072444,0 0.2144888,0.02822 0.3104443,0.0762 z"
         id="path124" />
      <path
         d="m 6.4750544,45.901222 v -0.08467 c -0.053622,0.04516 -0.115711,0.08184 -0.1862665,0.08184 -0.1044222,0 -0.1241777,-0.129822 -0.1241777,-0.251178 V 44.024446 H 5.944477 v 1.622776 c 0,0.189089 0.073378,0.381 0.2398887,0.381 0.1072444,0 0.2088443,-0.05362 0.2906887,-0.127 z"
         id="path126" />
      <path
         d="M 7.7789149,45.393223 V 45.365 c 0,-0.397933 -0.2173109,-0.663221 -0.5446885,-0.663221 -0.3301997,0 -0.5475107,0.265288 -0.5475107,0.663221 0,0.397934 0.217311,0.663222 0.5475107,0.663222 0.141111,0 0.2793998,-0.04516 0.3951109,-0.127 V 45.782689 C 7.4966929,45.867356 7.3894485,45.8984 7.2342264,45.8984 c -0.2398887,0 -0.2991553,-0.2286 -0.2991553,-0.505177 z M 7.5305595,45.274689 H 6.9350711 c 0,-0.225777 0.095955,-0.454377 0.2991553,-0.454377 0.2003777,0 0.2963331,0.2286 0.2963331,0.454377 z"
         id="path128" />
      <path
         d="m 9.331132,46.324555 v -0.141111 h -1.41111 v 0.141111 z"
         id="path130" />
      <path
         d="m 10.564437,46.169333 v -1.439332 h -0.220133 v 0.996244 c -0.09596,0.09596 -0.214489,0.172155 -0.3471329,0.172155 -0.1326444,0 -0.2342443,-0.115711 -0.2342443,-0.251178 V 44.730001 H 9.5427936 v 0.917221 c 0,0.206023 0.1580444,0.381 0.3612442,0.381 0.1693332,0 0.3189112,-0.09595 0.4402662,-0.214489 v 0.3556 c 0,0.189089 -0.08467,0.378178 -0.254,0.378178 -0.132644,0 -0.2596439,-0.02822 -0.3809994,-0.0762 v 0.08749 c 0.1439333,0.07338 0.3047994,0.118533 0.4684884,0.118533 0.239889,0 0.386644,-0.248356 0.386644,-0.508 z"
         id="path132" />
      <path
         d="m 12.20132,46.324555 v -0.141111 h -1.41111 v 0.141111 z"
         id="path134" />
      <path
         d="m 12.943559,45.901222 v -0.08467 c -0.05362,0.04516 -0.115711,0.08184 -0.186267,0.08184 -0.104422,0 -0.124177,-0.129822 -0.124177,-0.251178 v -0.917221 h -0.220134 v 0.917221 c 0,0.189089 0.07338,0.381 0.239889,0.381 0.107244,0 0.208844,-0.05362 0.290689,-0.127 z m -0.282222,-1.611487 c 0,-0.0762 -0.06209,-0.138289 -0.138289,-0.138289 -0.0762,0 -0.138289,0.06209 -0.138289,0.138289 0,0.0762 0.06209,0.138288 0.138289,0.138288 0.0762,0 0.138289,-0.06209 0.138289,-0.138288 z"
         id="path136" />
    </g>
    <path
       style="fill:none;stroke:#000000;stroke-width:0.264583px;stroke-linecap:butt;stroke-linejoin:miter;stroke-opacity:1;marker-start:url(#Arrow1Sstart);marker-end:url(#marker1409)"
       d="m 25,36.999999 h 1.999998"
       id="path1645" />
    <path
       style="fill:none;stroke:#000000;stroke-width:0.264583px;stroke-linecap:butt;stroke-linejoin:miter;stroke-opacity:1;marker-start:url(#marker1693);marker-end:url(#marker1703)"
       d="M 28,34.000002 V 36"
       id="path1689" />
    <path
       style="fill:none;stroke:#000000;stroke-width:0.264583px;stroke-linecap:butt;stroke-linejoin:miter;stroke-opacity:1;marker-start:url(#marker1821);marker-end:url(#marker1831)"
       d="M 61.000002,52 H 63"
       id="path1817" />
    <path
       style="fill:none;stroke:#000000;stroke-width:0.264583px;stroke-linecap:butt;stroke-linejoin:miter;stroke-opacity:1;marker-start:url(#marker1969);marker-end:url(#marker1979)"
       d="m 64,45 v 6"
       id="path1965" />
    <g
       aria-label="BALL_HEIGHT"
       id="text2123"
       style="font-size:2.11667px;line-height:1.25;font-family:Iwona;-inkscape-font-specification:Iwona;letter-spacing:0px;word-spacing:0px;stroke-width:0.264583">
      <path
         d="m 30.322919,35.227544 c 0,-0.232834 -0.152401,-0.355601 -0.374651,-0.402167 0.162984,-0.04868 0.270934,-0.154517 0.270934,-0.334434 0,-0.258234 -0.22225,-0.364067 -0.508001,-0.364067 -0.110067,0 -0.220134,0.0063 -0.3302,0.02117 h -0.169334 v 1.481669 h 0.169334 l 0.3302,0.02117 c 0.342901,0 0.611718,-0.116417 0.611718,-0.423334 z m -0.277284,-0.736601 c 0,0.213783 -0.239184,0.32385 -0.478367,0.32385 h -0.182034 v -0.569384 c 0.10795,-0.01482 0.218017,-0.02117 0.325967,-0.02117 0.173567,0 0.334434,0.105834 0.334434,0.266701 z m 0.06985,0.736601 c 0,0.194734 -0.192617,0.325967 -0.404284,0.325967 -0.10795,0 -0.218017,-0.0063 -0.325967,-0.02117 v -0.643467 h 0.27305 c 0.232834,0 0.457201,0.124883 0.457201,0.338667 z"
         id="path139" />
      <path
         d="m 31.741086,35.629711 -0.537634,-1.481669 h -0.18415 l -0.548218,1.481669 h 0.103717 l 0.192617,-0.518584 h 0.601135 l 0.188383,0.518584 z M 31.332569,35.01376 h -0.529167 l 0.2667,-0.723901 z"
         id="path141" />
      <path
         d="m 32.820586,35.629711 v -0.09737 h -0.673101 v -1.384302 h -0.173567 v 1.481669 z"
         id="path143" />
      <path
         d="m 33.921251,35.629711 v -0.09737 H 33.24815 v -1.384302 h -0.173567 v 1.481669 z"
         id="path145" />
      <path
         d="m 35.021917,35.873128 v -0.105833 h -1.058335 v 0.105833 z"
         id="path147" />
      <path
         d="m 36.397748,35.629711 v -1.481669 h -0.173567 v 0.692151 H 35.407146 V 34.148042 H 35.23358 v 1.481669 h 0.173566 V 34.93756 h 0.817035 v 0.692151 z"
         id="path149" />
      <path
         d="m 37.879413,35.629711 v -0.09737 H 36.994645 V 34.93756 h 0.673101 v -0.09737 h -0.673101 v -0.594784 h 0.833968 v -0.09737 h -1.007535 v 1.481669 z"
         id="path151" />
      <path
         d="m 38.391646,35.629711 v -1.481669 h -0.173567 v 1.481669 z"
         id="path153" />
      <path
         d="M 39.974915,35.629711 V 35.00741 h -0.173567 v 0.408517 c -0.110067,0.0889 -0.245534,0.137584 -0.387351,0.137584 -0.33655,0 -0.476251,-0.289984 -0.476251,-0.664634 0,-0.374651 0.139701,-0.664635 0.476251,-0.664635 0.198967,0 0.387351,0.07832 0.527051,0.220134 v -0.09737 c -0.1397,-0.141817 -0.328084,-0.220133 -0.527051,-0.220133 -0.436034,0 -0.683684,0.309033 -0.683684,0.762001 0,0.452967 0.24765,0.762001 0.683684,0.762001 0.141817,0 0.277284,-0.04868 0.387351,-0.137584 v 0.116417 z"
         id="path155" />
      <path
         d="m 41.520082,35.629711 v -1.481669 h -0.173567 v 0.692151 H 40.52948 v -0.692151 h -0.173567 v 1.481669 H 40.52948 V 34.93756 h 0.817035 v 0.692151 z"
         id="path157" />
      <path
         d="m 42.938246,34.245409 v -0.09737 h -1.164169 v 0.09737 h 0.495301 v 1.384302 h 0.173567 v -1.384302 z"
         id="path159" />
    </g>
    <g
       aria-label="BALL_WIDTH"
       id="text2127"
       style="font-size:2.11667px;line-height:1.25;font-family:Iwona;-inkscape-font-specification:Iwona;text-align:center;letter-spacing:0px;word-spacing:0px;text-anchor:middle;stroke-width:0.264583">
      <path
         d="m 20.87238,39.597833 c 0,-0.232834 -0.1524,-0.355601 -0.374651,-0.402168 0.162984,-0.04868 0.270934,-0.154516 0.270934,-0.334433 0,-0.258234 -0.22225,-0.364068 -0.508001,-0.364068 -0.110066,0 -0.220133,0.0064 -0.3302,0.02117 H 19.761128 V 40 h 0.169334 l 0.3302,0.02117 c 0.342901,0 0.611718,-0.116417 0.611718,-0.423334 z m -0.277284,-0.736601 c 0,0.213783 -0.239183,0.32385 -0.478367,0.32385 h -0.182034 v -0.569384 c 0.10795,-0.01482 0.218017,-0.02117 0.325967,-0.02117 0.173567,0 0.334434,0.105834 0.334434,0.266701 z m 0.06985,0.736601 c 0,0.194733 -0.192617,0.325967 -0.404284,0.325967 -0.10795,0 -0.218017,-0.0063 -0.325967,-0.02117 v -0.643467 h 0.273051 c 0.232833,0 0.4572,0.124883 0.4572,0.338667 z"
         id="path162" />
      <path
         d="M 22.290548,40 21.752914,38.518331 H 21.568763 L 21.020546,40 h 0.103717 l 0.192617,-0.518584 h 0.601134 L 22.106397,40 Z M 21.88203,39.384049 h -0.529167 l 0.2667,-0.723901 z"
         id="path164" />
      <path
         d="m 23.370047,40 v -0.09737 H 22.696946 V 38.518331 H 22.523379 V 40 Z"
         id="path166" />
      <path
         d="m 24.470713,40 v -0.09737 H 23.797611 V 38.518331 H 23.624045 V 40 Z"
         id="path168" />
      <path
         d="m 25.571378,40.243417 v -0.105833 h -1.058335 v 0.105833 z"
         id="path170" />
      <path
         d="m 27.463677,38.518331 h -0.1016 l -0.366184,1.206502 -0.366184,-1.206502 h -0.1016 l -0.366184,1.206502 -0.366184,-1.206502 H 25.613707 L 26.064558,40 h 0.1143 L 26.538692,38.816782 26.898526,40 h 0.116417 z"
         id="path172" />
      <path
         d="M 27.870076,40 V 38.518331 H 27.696509 V 40 Z"
         id="path174" />
      <path
         d="m 29.538011,39.259166 c 0,-0.452968 -0.24765,-0.762002 -0.683684,-0.762002 -0.131234,0 -0.262467,0.0064 -0.391584,0.02117 H 28.293409 V 40 h 0.169334 c 0.129117,0.01482 0.26035,0.02117 0.391584,0.02117 0.436034,0 0.683684,-0.309034 0.683684,-0.762001 z m -0.207434,0 c 0,0.33655 -0.17145,0.664634 -0.47625,0.664634 -0.129117,0 -0.258234,-0.0063 -0.387351,-0.02117 v -1.286935 c 0.129117,-0.01482 0.258234,-0.02117 0.387351,-0.02117 0.3048,0 0.47625,0.328084 0.47625,0.664635 z"
         id="path176" />
      <path
         d="m 30.820711,38.615698 v -0.09737 h -1.164168 v 0.09737 h 0.4953 V 40 h 0.173567 v -1.384302 z"
         id="path178" />
      <path
         d="m 32.238875,40 v -1.481669 h -0.173567 v 0.692151 H 31.248274 V 38.518331 H 31.074707 V 40 h 0.173567 v -0.692151 h 0.817034 V 40 Z"
         id="path180" />
    </g>
    <g
       aria-label="PADDLE_HEIGHT"
       id="text2155"
       style="font-size:2.11667px;line-height:1.25;font-family:Iwona;-inkscape-font-specification:Iwona;letter-spacing:0px;word-spacing:0px;stroke-width:0.264583">
      <path
         d="m 66.322919,47.55021 c 0,-0.298451 -0.256117,-0.423334 -0.588435,-0.423334 -0.118533,0 -0.237067,0.0063 -0.353483,0.02117 h -0.169334 v 1.481669 h 0.173567 v -0.687918 c 0.1143,0.02117 0.232834,0.03387 0.34925,0.03387 0.332318,0 0.588435,-0.124883 0.588435,-0.42545 z m -0.207434,0 c 0,0.192616 -0.179917,0.328083 -0.381001,0.328083 -0.116416,0 -0.23495,-0.0127 -0.34925,-0.03387 v -0.599018 c 0.116417,-0.01482 0.232834,-0.02117 0.34925,-0.02117 0.201084,0 0.381001,0.135467 0.381001,0.325968 z"
         id="path183" />
      <path
         d="m 67.588685,48.629711 -0.537634,-1.481669 h -0.18415 l -0.548218,1.481669 H 66.4224 l 0.192617,-0.518584 h 0.601134 l 0.188384,0.518584 z M 67.180168,48.01376 H 66.651 l 0.266701,-0.723901 z"
         id="path185" />
      <path
         d="m 69.066118,47.888877 c 0,-0.452968 -0.24765,-0.762001 -0.683684,-0.762001 -0.131234,0 -0.262467,0.0063 -0.391584,0.02117 h -0.169334 v 1.481669 h 0.169334 c 0.129117,0.01482 0.26035,0.02117 0.391584,0.02117 0.436034,0 0.683684,-0.309034 0.683684,-0.762001 z m -0.207433,0 c 0,0.33655 -0.171451,0.664634 -0.476251,0.664634 -0.129117,0 -0.258234,-0.0063 -0.387351,-0.02117 v -1.286935 c 0.129117,-0.01482 0.258234,-0.02117 0.387351,-0.02117 0.3048,0 0.476251,0.328084 0.476251,0.664635 z"
         id="path187" />
      <path
         d="m 70.649386,47.888877 c 0,-0.452968 -0.24765,-0.762001 -0.683684,-0.762001 -0.131234,0 -0.262467,0.0063 -0.391584,0.02117 h -0.169334 v 1.481669 h 0.169334 c 0.129117,0.01482 0.26035,0.02117 0.391584,0.02117 0.436034,0 0.683684,-0.309034 0.683684,-0.762001 z m -0.207434,0 c 0,0.33655 -0.17145,0.664634 -0.47625,0.664634 -0.129117,0 -0.258234,-0.0063 -0.387351,-0.02117 v -1.286935 c 0.129117,-0.01482 0.258234,-0.02117 0.387351,-0.02117 0.3048,0 0.47625,0.328084 0.47625,0.664635 z"
         id="path189" />
      <path
         d="m 71.834719,48.629711 v -0.09737 h -0.673101 v -1.384302 h -0.173567 v 1.481669 z"
         id="path191" />
      <path
         d="m 73.147051,48.629711 v -0.09737 H 72.262283 V 47.93756 h 0.673101 v -0.09737 h -0.673101 v -0.594784 h 0.833968 v -0.09737 h -1.007535 v 1.481669 z"
         id="path193" />
      <path
         d="m 74.332387,48.873128 v -0.105833 h -1.058335 v 0.105833 z"
         id="path195" />
      <path
         d="m 75.708218,48.629711 v -1.481669 h -0.173567 v 0.692151 h -0.817035 v -0.692151 h -0.173567 v 1.481669 h 0.173567 V 47.93756 h 0.817035 v 0.692151 z"
         id="path197" />
      <path
         d="m 77.189883,48.629711 v -0.09737 H 76.305115 V 47.93756 h 0.673101 v -0.09737 h -0.673101 v -0.594784 h 0.833968 v -0.09737 h -1.007535 v 1.481669 z"
         id="path199" />
      <path
         d="M 77.702117,48.629711 V 47.148042 H 77.52855 v 1.481669 z"
         id="path201" />
      <path
         d="M 79.285385,48.629711 V 48.00741 h -0.173567 v 0.408517 c -0.110067,0.0889 -0.245533,0.137584 -0.38735,0.137584 -0.336551,0 -0.476251,-0.289984 -0.476251,-0.664634 0,-0.374651 0.1397,-0.664635 0.476251,-0.664635 0.198967,0 0.38735,0.07832 0.52705,0.220134 v -0.09737 c -0.1397,-0.141817 -0.328083,-0.220133 -0.52705,-0.220133 -0.436034,0 -0.683685,0.309033 -0.683685,0.762001 0,0.452967 0.247651,0.762001 0.683685,0.762001 0.141817,0 0.277283,-0.04868 0.38735,-0.137584 v 0.116417 z"
         id="path203" />
      <path
         d="m 80.830551,48.629711 v -1.481669 h -0.173567 v 0.692151 H 79.83995 v -0.692151 h -0.173567 v 1.481669 H 79.83995 V 47.93756 h 0.817034 v 0.692151 z"
         id="path205" />
      <path
         d="m 82.248715,47.245409 v -0.09737 h -1.164168 v 0.09737 h 0.495301 v 1.384302 h 0.173567 v -1.384302 z"
         id="path207" />
    </g>
    <g
       aria-label="PADDLE_WIDTH"
       id="text2159"
       style="font-size:2.11667px;line-height:1.25;font-family:Iwona;-inkscape-font-specification:Iwona;text-align:center;letter-spacing:0px;word-spacing:0px;text-anchor:middle;stroke-width:0.264583">
      <path
         d="m 55.217145,53.290787 c 0,-0.29845 -0.256117,-0.423334 -0.588434,-0.423334 -0.118534,0 -0.237067,0.0064 -0.353484,0.02117 h -0.169334 v 1.481669 h 0.173567 v -0.687918 c 0.1143,0.02117 0.232834,0.03387 0.349251,0.03387 0.332317,0 0.588434,-0.124884 0.588434,-0.425451 z m -0.207434,0 c 0,0.192617 -0.179917,0.328084 -0.381,0.328084 -0.116417,0 -0.234951,-0.0127 -0.349251,-0.03387 v -0.599017 c 0.116417,-0.01482 0.232834,-0.02117 0.349251,-0.02117 0.201083,0 0.381,0.135467 0.381,0.325967 z"
         id="path210" />
      <path
         d="M 56.482911,54.370289 55.945277,52.88862 h -0.18415 l -0.548217,1.481669 h 0.103716 l 0.192617,-0.518584 h 0.601135 l 0.188383,0.518584 z m -0.408517,-0.615951 h -0.529167 l 0.2667,-0.723901 z"
         id="path212" />
      <path
         d="m 57.960345,53.629454 c 0,-0.452967 -0.247651,-0.762001 -0.683685,-0.762001 -0.131233,0 -0.262467,0.0064 -0.391584,0.02117 h -0.169333 v 1.481669 h 0.169333 c 0.129117,0.01482 0.260351,0.02117 0.391584,0.02117 0.436034,0 0.683685,-0.309034 0.683685,-0.762002 z m -0.207434,0 c 0,0.336551 -0.17145,0.664635 -0.476251,0.664635 -0.129117,0 -0.258233,-0.0063 -0.38735,-0.02117 v -1.286935 c 0.129117,-0.01482 0.258233,-0.02117 0.38735,-0.02117 0.304801,0 0.476251,0.328084 0.476251,0.664634 z"
         id="path214" />
      <path
         d="m 59.543612,53.629454 c 0,-0.452967 -0.24765,-0.762001 -0.683684,-0.762001 -0.131234,0 -0.262467,0.0064 -0.391584,0.02117 H 58.29901 v 1.481669 h 0.169334 c 0.129117,0.01482 0.26035,0.02117 0.391584,0.02117 0.436034,0 0.683684,-0.309034 0.683684,-0.762002 z m -0.207433,0 c 0,0.336551 -0.171451,0.664635 -0.476251,0.664635 -0.129117,0 -0.258234,-0.0063 -0.387351,-0.02117 v -1.286935 c 0.129117,-0.01482 0.258234,-0.02117 0.387351,-0.02117 0.3048,0 0.476251,0.328084 0.476251,0.664634 z"
         id="path216" />
      <path
         d="m 60.728946,54.370289 v -0.09737 H 60.055845 V 52.88862 h -0.173567 v 1.481669 z"
         id="path218" />
      <path
         d="m 62.041278,54.370289 v -0.09737 H 61.15651 v -0.594784 h 0.673101 v -0.09737 H 61.15651 v -0.594784 h 0.833968 v -0.09737 h -1.007535 v 1.481669 z"
         id="path220" />
      <path
         d="m 63.226613,54.613706 v -0.105834 h -1.058335 v 0.105834 z"
         id="path222" />
      <path
         d="m 65.118911,52.88862 h -0.1016 l -0.366184,1.206502 -0.366183,-1.206502 h -0.101601 l -0.366184,1.206502 -0.366183,-1.206502 h -0.182034 l 0.450851,1.481669 h 0.1143 l 0.359834,-1.183219 0.359834,1.183219 h 0.116416 z"
         id="path224" />
      <path
         d="M 65.525311,54.370289 V 52.88862 h -0.173567 v 1.481669 z"
         id="path226" />
      <path
         d="m 67.193246,53.629454 c 0,-0.452967 -0.247651,-0.762001 -0.683685,-0.762001 -0.131233,0 -0.262467,0.0064 -0.391584,0.02117 h -0.169333 v 1.481669 h 0.169333 c 0.129117,0.01482 0.260351,0.02117 0.391584,0.02117 0.436034,0 0.683685,-0.309034 0.683685,-0.762002 z m -0.207434,0 c 0,0.336551 -0.17145,0.664635 -0.476251,0.664635 -0.129116,0 -0.258233,-0.0063 -0.38735,-0.02117 v -1.286935 c 0.129117,-0.01482 0.258234,-0.02117 0.38735,-0.02117 0.304801,0 0.476251,0.328084 0.476251,0.664634 z"
         id="path228" />
      <path
         d="m 68.475946,52.985987 v -0.09737 h -1.164169 v 0.09737 h 0.495301 v 1.384302 h 0.173567 v -1.384302 z"
         id="path230" />
      <path
         d="M 69.894111,54.370289 V 52.88862 h -0.173567 v 0.692151 H 68.903509 V 52.88862 h -0.173566 v 1.481669 h 0.173566 v -0.692151 h 0.817035 v 0.692151 z"
         id="path232" />
    </g>
    <g
       aria-label="x"
       id="text414"
       style="font-size:2.82222px;line-height:1.25;font-family:Iwona;-inkscape-font-specification:Iwona;text-align:center;letter-spacing:0px;word-spacing:0px;text-anchor:middle;stroke-width:0.264583">
      <path
         d="m 81.546102,23 -0.443088,-0.677333 0.428977,-0.592666 H 81.385236 L 81.03528,22.215423 80.719192,21.730001 H 80.482125 L 80.902636,22.376289 80.453903,23 h 0.146755 L 80.973192,22.483534 81.309036,23 Z"
         id="path235" />
    </g>
    <g
       aria-label="y"
       id="text786"
       style="font-size:2.82222px;line-height:1.25;font-family:Iwona;-inkscape-font-specification:Iwona;text-align:end;letter-spacing:0px;word-spacing:0px;text-anchor:end;stroke-width:0.264583">
      <path
         d="m 12.774227,55.169333 v -1.439332 h -0.220133 v 0.996244 c -0.09596,0.09596 -0.214489,0.172155 -0.347133,0.172155 -0.132644,0 -0.234244,-0.115711 -0.234244,-0.251178 v -0.917221 h -0.220133 v 0.917221 c 0,0.206023 0.158044,0.381 0.361244,0.381 0.169333,0 0.318911,-0.09595 0.440266,-0.214489 v 0.3556 c 0,0.189089 -0.08467,0.378178 -0.254,0.378178 -0.132644,0 -0.259644,-0.02822 -0.380999,-0.0762 v 0.08749 c 0.143933,0.07338 0.304799,0.118533 0.468488,0.118533 0.239889,0 0.386644,-0.248356 0.386644,-0.508 z"
         id="path238" />
    </g>
  </g>
</svg>
