<?xml version="1.0" encoding="UTF-8" standalone="no"?>
<svg
   width="111.39566mm"
   height="73.305054mm"
   viewBox="0 0 111.39566 73.305054"
   version="1.1"
   id="svg8"
   xmlns="http://www.w3.org/2000/svg"
   xmlns:svg="http://www.w3.org/2000/svg"
   xmlns:rdf="http://www.w3.org/1999/02/22-rdf-syntax-ns#"
   xmlns:cc="http://creativecommons.org/ns#"
   xmlns:dc="http://purl.org/dc/elements/1.1/">
  <defs
     id="defs2">
    <marker
       style="overflow:visible;"
       id="marker4625"
       refX="0.0"
       refY="0.0"
       orient="auto">
      <path
         transform="scale(0.6) rotate(180) translate(0,0)"
         d="M 8.7185878,4.0337352 L -2.2072895,0.016013256 L 8.7185884,-4.0017078 C 6.9730900,-1.6296469 6.9831476,1.6157441 8.7185878,4.0337352 z "
         style="fill-rule:evenodd;stroke-width:0.625;stroke-linejoin:round;stroke:#ffffff;stroke-opacity:1;fill:#ffffff;fill-opacity:1"
         id="path4623" />
    </marker>
    <marker
       orient="auto"
       refY="0.0"
       refX="0.0"
       id="marker4331"
       style="overflow:visible;">
      <path
         id="path4329"
         style="fill-rule:evenodd;stroke-width:0.625;stroke-linejoin:round;stroke:#ffffff;stroke-opacity:1;fill:#ffffff;fill-opacity:1"
         d="M 8.7185878,4.0337352 L -2.2072895,0.016013256 L 8.7185884,-4.0017078 C 6.9730900,-1.6296469 6.9831476,1.6157441 8.7185878,4.0337352 z "
         transform="scale(0.6) rotate(180) translate(0,0)" />
    </marker>
    <marker
       style="overflow:visible;"
       id="marker4025"
       refX="0.0"
       refY="0.0"
       orient="auto">
      <path
         transform="scale(0.6) rotate(180) translate(0,0)"
         d="M 8.7185878,4.0337352 L -2.2072895,0.016013256 L 8.7185884,-4.0017078 C 6.9730900,-1.6296469 6.9831476,1.6157441 8.7185878,4.0337352 z "
         style="fill-rule:evenodd;stroke-width:0.625;stroke-linejoin:round;stroke:#ffffff;stroke-opacity:1;fill:#ffffff;fill-opacity:1"
         id="path4023" />
    </marker>
    <marker
       orient="auto"
       refY="0.0"
       refX="0.0"
       id="marker2741"
       style="overflow:visible;">
      <path
         id="path2739"
         style="fill-rule:evenodd;stroke-width:0.625;stroke-linejoin:round;stroke:#ffffff;stroke-opacity:1;fill:#ffffff;fill-opacity:1"
         d="M 8.7185878,4.0337352 L -2.2072895,0.016013256 L 8.7185884,-4.0017078 C 6.9730900,-1.6296469 6.9831476,1.6157441 8.7185878,4.0337352 z "
         transform="scale(0.6) rotate(180) translate(0,0)" />
    </marker>
    <marker
       style="overflow:visible;"
       id="marker2519"
       refX="0.0"
       refY="0.0"
       orient="auto">
      <path
         transform="scale(0.6) rotate(180) translate(0,0)"
         d="M 8.7185878,4.0337352 L -2.2072895,0.016013256 L 8.7185884,-4.0017078 C 6.9730900,-1.6296469 6.9831476,1.6157441 8.7185878,4.0337352 z "
         style="fill-rule:evenodd;stroke-width:0.625;stroke-linejoin:round;stroke:#ffffff;stroke-opacity:1;fill:#ffffff;fill-opacity:1"
         id="path2517" />
    </marker>
    <marker
       orient="auto"
       refY="0.0"
       refX="0.0"
       id="marker2249"
       style="overflow:visible;">
      <path
         id="path2247"
         style="fill-rule:evenodd;stroke-width:0.625;stroke-linejoin:round;stroke:#ffffff;stroke-opacity:1;fill:#ffffff;fill-opacity:1"
         d="M 8.7185878,4.0337352 L -2.2072895,0.016013256 L 8.7185884,-4.0017078 C 6.9730900,-1.6296469 6.9831476,1.6157441 8.7185878,4.0337352 z "
         transform="scale(0.6) rotate(180) translate(0,0)" />
    </marker>
    <marker
       style="overflow:visible;"
       id="marker1979"
       refX="0.0"
       refY="0.0"
       orient="auto">
      <path
         transform="scale(0.6) rotate(180) translate(0,0)"
         d="M 8.7185878,4.0337352 L -2.2072895,0.016013256 L 8.7185884,-4.0017078 C 6.9730900,-1.6296469 6.9831476,1.6157441 8.7185878,4.0337352 z "
         style="fill-rule:evenodd;stroke-width:0.625;stroke-linejoin:round;stroke:#ffffff;stroke-opacity:1;fill:#ffffff;fill-opacity:1"
         id="path1977" />
    </marker>
    <marker
       orient="auto"
       refY="0.0"
       refX="0.0"
       id="Arrow2Mend"
       style="overflow:visible;">
      <path
         id="path976"
         style="fill-rule:evenodd;stroke-width:0.625;stroke-linejoin:round;stroke:#ffffff;stroke-opacity:1;fill:#ffffff;fill-opacity:1"
         d="M 8.7185878,4.0337352 L -2.2072895,0.016013256 L 8.7185884,-4.0017078 C 6.9730900,-1.6296469 6.9831476,1.6157441 8.7185878,4.0337352 z "
         transform="scale(0.6) rotate(180) translate(0,0)" />
    </marker>
    <marker
       style="overflow:visible"
       id="marker1409"
       refX="0"
       refY="0"
       orient="auto">
      <path
         transform="matrix(-0.2,0,0,-0.2,-1.2,0)"
         style="fill:#000000;fill-opacity:1;fill-rule:evenodd;stroke:#000000;stroke-width:1pt;stroke-opacity:1"
         d="M 0,0 5,-5 -12.5,0 5,5 Z"
         id="path1407" />
    </marker>
    <marker
       style="overflow:visible"
       id="marker1339"
       refX="0"
       refY="0"
       orient="auto">
      <path
         transform="matrix(-0.2,0,0,-0.2,-1.2,0)"
         style="fill:#ffffff;fill-opacity:1;fill-rule:evenodd;stroke:#ffffff;stroke-width:1pt;stroke-opacity:1"
         d="M 0,0 5,-5 -12.5,0 5,5 Z"
         id="path1337" />
    </marker>
    <marker
       style="overflow:visible"
       id="Arrow1Send"
       refX="0"
       refY="0"
       orient="auto">
      <path
         transform="matrix(-0.2,0,0,-0.2,-1.2,0)"
         style="fill:#000000;fill-opacity:1;fill-rule:evenodd;stroke:#000000;stroke-width:1pt;stroke-opacity:1"
         d="M 0,0 5,-5 -12.5,0 5,5 Z"
         id="path946" />
    </marker>
  </defs>
  <metadata
     id="metadata5">
    <rdf:RDF>
      <cc:Work
         rdf:about="">
        <dc:format>image/svg+xml</dc:format>
        <dc:type
           rdf:resource="http://purl.org/dc/dcmitype/StillImage" />
        <dc:title />
      </cc:Work>
    </rdf:RDF>
  </metadata>
  <g
     id="layer1"
     transform="translate(11.96825,1.2733)">
    <path
       style="fill:none;stroke:#000000;stroke-width:0.264583px;stroke-linecap:butt;stroke-linejoin:miter;stroke-opacity:1;marker-end:url(#Arrow1Send)"
       d="M 72.999999,4.0000002 C 74,4.0000002 75,5.3333336 75,8.0000001"
       id="path929" />
    <path
       id="rect24"
       style="fill-rule:evenodd;stroke-width:0.282001;stroke-linecap:round;stroke-linejoin:round"
       d="M 10,15 H 90 V 67 H 10 Z" />
    <path
       id="rect12"
       style="fill:#b3b3b3;fill-rule:evenodd;stroke-width:0.282001;stroke-linecap:round;stroke-linejoin:round"
       d="M 10,15 H 86 V 65 H 10 Z" />
    <path
       id="rect20"
       style="fill-rule:evenodd;stroke-width:0.282001;stroke-linecap:round;stroke-linejoin:round"
       d="M 10,15.000005 H 75.999969 V 64.000001 H 10 Z" />
    <path
       id="rect14"
       style="fill:#0000ff;fill-rule:evenodd;stroke-width:0.282;stroke-linecap:round;stroke-linejoin:round"
       d="M 10,15 H 74 V 63 H 10 Z" />
    <path
       id="rect16"
       style="fill:#ffff00;fill-rule:evenodd;stroke-width:0.282001;stroke-linecap:round;stroke-linejoin:round"
       d="m 61,45 h 2 v 6.000001 h -2 z" />
    <path
       id="path18"
       style="fill:#ffffff;fill-rule:evenodd;stroke-width:0.282001;stroke-linecap:round;stroke-linejoin:round"
       d="m 24.541361,54.786964 a 1,1 0 0 1 -1,1 1,1 0 0 1 -1,-1 1,1 0 0 1 1,-1 1,1 0 0 1 1,1 z" />
    <path
       style="fill:none;stroke:#ffffff;stroke-width:0.264583px;stroke-linecap:butt;stroke-linejoin:miter;stroke-opacity:1"
       d="M 73.999999,15 V 63 H 10"
       id="path22" />
    <path
       style="fill:none;stroke:#000000;stroke-width:0.264583px;stroke-linecap:butt;stroke-linejoin:miter;stroke-opacity:1"
       d="m 10,10 h 65.999998 v 3 h 10.000001 v -3 h 4"
       id="path26" />
    <path
       style="fill:none;stroke:#000000;stroke-width:0.264583px;stroke-linecap:butt;stroke-linejoin:miter;stroke-opacity:1"
       d="M 5,15 V 64 H 2 v 1 h 3 v 2"
       id="path28" />
    <g
       aria-label="0"
       id="text36"
       style="font-size:3.175px;line-height:1.25;font-family:Iwona;-inkscape-font-specification:Iwona;letter-spacing:0px;word-spacing:0px;stroke-width:0.264583">
      <path
         d="m 92.53035,12.904625 c 0,-0.752475 -0.231775,-1.127125 -0.695325,-1.127125 -0.46355,0 -0.695325,0.37465 -0.695325,1.127125 0,0.752475 0.231775,1.127125 0.695325,1.127125 0.46355,0 0.695325,-0.37465 0.695325,-1.127125 z m -0.2794,0 c 0,0.663575 -0.1397,0.993775 -0.415925,0.993775 -0.276225,0 -0.415925,-0.3302 -0.415925,-0.993775 0,-0.663575 0.1397,-0.993775 0.415925,-0.993775 0.276225,0 0.415925,0.3302 0.415925,0.993775 z"
         id="path91" />
    </g>
    <g
       aria-label="1"
       id="text40"
       style="font-size:3.175px;line-height:1.25;font-family:Iwona;-inkscape-font-specification:Iwona;letter-spacing:0px;word-spacing:0px;stroke-width:0.264583">
      <path
         d="M 92.04775,11 V 8.80925 H 91.8636 c -0.174625,0.200025 -0.381,0.371475 -0.6096,0.504825 v 0.13335 C 91.447675,9.35535 91.62865,9.2474 91.8001,9.117225 V 11 Z"
         id="path94" />
    </g>
    <g
       aria-label="0"
       id="text48"
       style="font-size:3.175px;line-height:1.25;font-family:Iwona;-inkscape-font-specification:Iwona;text-align:center;letter-spacing:0px;word-spacing:0px;text-anchor:middle;stroke-width:0.264583">
      <path
         d="m 2.6969131,68.904625 c 0,-0.752475 -0.231775,-1.127125 -0.695325,-1.127125 -0.46355,0 -0.695325,0.37465 -0.695325,1.127125 0,0.752475 0.231775,1.127125 0.695325,1.127125 0.46355,0 0.695325,-0.37465 0.695325,-1.127125 z m -0.2794,0 c 0,0.663575 -0.1397,0.993775 -0.415925,0.993775 -0.276225,0 -0.415925,-0.3302 -0.415925,-0.993775 0,-0.663575 0.1397,-0.993775 0.415925,-0.993775 0.276225,0 0.415925,0.3302 0.415925,0.993775 z"
         id="path97" />
    </g>
    <g
       aria-label="1"
       id="text52"
       style="font-size:3.175px;line-height:1.25;font-family:Iwona;-inkscape-font-specification:Iwona;text-align:center;letter-spacing:0px;word-spacing:0px;text-anchor:middle;stroke-width:0.264583">
      <path
         d="m 5.2143131,70 v -2.19075 h -0.18415 c -0.174625,0.200025 -0.381,0.371475 -0.6096,0.504825 v 0.13335 c 0.193675,-0.09207 0.37465,-0.200025 0.5461,-0.3302 V 70 Z"
         id="path100" />
    </g>
    <g
       aria-label="hsync_n_o"
       id="text56"
       style="font-size:3.175px;line-height:1.25;font-family:Iwona;-inkscape-font-specification:Iwona;letter-spacing:0px;word-spacing:0px;stroke-width:0.264583">
      <path
         d="m -3.59665,13 v -1.031875 c 0,-0.231775 -0.1778,-0.428625 -0.4064,-0.428625 -0.1905,0 -0.358775,0.10795 -0.4953,0.2413 V 10.7775 H -4.746 V 13 h 0.24765 v -1.120775 c 0.10795,-0.10795 0.2413,-0.193675 0.390525,-0.193675 0.149225,0 0.263525,0.130175 0.263525,0.282575 V 13 Z"
         id="path103" />
      <path
         d="m -2.1393304,12.5936 c 0,-0.250825 -0.2667,-0.381 -0.52705,-0.4445 -0.1524,-0.0381 -0.3175,-0.1016 -0.3175,-0.250825 0,-0.136525 0.1397,-0.225425 0.2921,-0.225425 0.168275,0 0.33655,0.0508 0.47625,0.142875 v -0.13335 c -0.1397,-0.09208 -0.307975,-0.142875 -0.47625,-0.142875 -0.276225,0 -0.530225,0.168275 -0.530225,0.42545 0,0.231775 0.257175,0.339725 0.50165,0.40005 0.168275,0.04128 0.3429,0.130175 0.3429,0.2921 0,0.149225 -0.1524,0.2413 -0.314325,0.2413 -0.19685,0 -0.38735,-0.04763 -0.555625,-0.142875 v 0.13335 c 0.168275,0.09525 0.358775,0.142875 0.555625,0.142875 0.28575,0 0.55245,-0.17145 0.55245,-0.43815 z"
         id="path105" />
      <path
         d="m -0.60898379,13.1905 v -1.61925 h -0.24765 v 1.120775 c -0.10794999,0.10795 -0.24130001,0.193675 -0.39052501,0.193675 -0.149225,0 -0.263525,-0.130175 -0.263525,-0.282575 V 11.57125 h -0.24765 v 1.031875 c 0,0.231775 0.1778,0.428625 0.4064,0.428625 0.1905,0 0.35877502,-0.10795 0.49530001,-0.2413 v 0.40005 c 0,0.212725 -0.09525,0.42545 -0.28575001,0.42545 -0.149225,0 -0.2921,-0.03175 -0.428625,-0.08573 v 0.09843 c 0.161925,0.08255 0.3429,0.13335 0.52705,0.13335 0.26987501,0 0.43497501,-0.2794 0.43497501,-0.5715 z"
         id="path107" />
      <path
         d="m 1.0483609,13 v -1.031875 c 0,-0.231775 -0.17779997,-0.428625 -0.40639997,-0.428625 -0.19049999,0 -0.35877499,0.10795 -0.49529999,0.2413 v -0.20955 h -0.24765 V 13 h 0.24765 v -1.120775 c 0.10795,-0.10795 0.2413,-0.193675 0.39052499,-0.193675 0.149225,0 0.263525,0.130175 0.263525,0.282575 V 13 Z"
         id="path109" />
      <path
         d="M 2.5691804,11.90145 V 11.7681 c -0.1016,-0.142875 -0.2667,-0.2286 -0.4445,-0.2286 -0.396875,0 -0.663575,0.29845 -0.663575,0.746125 0,0.447675 0.2667,0.746125 0.663575,0.746125 0.1651,0 0.320675,-0.08255 0.41275,-0.219075 v -0.13335 c -0.10795,0.161925 -0.219075,0.219075 -0.41275,0.219075 -0.2286,0 -0.384175,-0.244475 -0.384175,-0.612775 0,-0.3683 0.155575,-0.612775 0.384175,-0.612775 0.19685,0 0.3302,0.06985 0.4445,0.2286 z"
         id="path111" />
      <path
         d="m 4.2360519,13.365125 v -0.15875 h -1.5875 v 0.15875 z"
         id="path113" />
      <path
         d="m 5.6393958,13 v -1.031875 c 0,-0.231775 -0.1778,-0.428625 -0.4064,-0.428625 -0.1905,0 -0.358775,0.10795 -0.4953,0.2413 v -0.20955 h -0.24765 V 13 h 0.24765 v -1.120775 c 0.10795,-0.10795 0.2413,-0.193675 0.390525,-0.193675 0.149225,0 0.263525,0.130175 0.263525,0.282575 V 13 Z"
         id="path115" />
      <path
         d="m 7.4650158,13.365125 v -0.15875 h -1.5875 v 0.15875 z"
         id="path117" />
      <path
         d="m 8.8683597,12.285625 c 0,-0.485775 -0.2159,-0.746125 -0.612775,-0.746125 -0.40005,0 -0.61595,0.26035 -0.61595,0.746125 0,0.485775 0.2159,0.746125 0.61595,0.746125 0.396875,0 0.612775,-0.26035 0.612775,-0.746125 z m -0.2794,0 c 0,0.396875 -0.117475,0.612775 -0.333375,0.612775 -0.219075,0 -0.33655,-0.2159 -0.33655,-0.612775 0,-0.396875 0.117475,-0.612775 0.33655,-0.612775 0.2159,0 0.333375,0.2159 0.333375,0.612775 z"
         id="path119" />
    </g>
    <g
       aria-label="vsync_n_o"
       id="text60"
       style="font-size:3.175px;line-height:1.25;font-family:Iwona;-inkscape-font-specification:Iwona;letter-spacing:0px;word-spacing:0px;stroke-width:0.264583">
      <path
         d="M -8.739525,15.57125 H -8.8824 L -9.3142,16.7587 -9.7333,15.57125 H -9.96825 L -9.4666,17 h 0.206375 z"
         id="path122" />
      <path
         d="m -7.4885763,16.5936 c 0,-0.250825 -0.2667,-0.381 -0.52705,-0.4445 -0.1524,-0.0381 -0.3175,-0.1016 -0.3175,-0.250825 0,-0.136525 0.1397,-0.225425 0.2921,-0.225425 0.168275,0 0.33655,0.0508 0.47625,0.142875 v -0.13335 c -0.1397,-0.09208 -0.307975,-0.142875 -0.47625,-0.142875 -0.276225,0 -0.530225,0.168275 -0.530225,0.42545 0,0.231775 0.257175,0.339725 0.50165,0.40005 0.168275,0.04128 0.3429,0.130175 0.3429,0.2921 0,0.149225 -0.1524,0.2413 -0.314325,0.2413 -0.19685,0 -0.38735,-0.04763 -0.555625,-0.142875 v 0.13335 c 0.168275,0.09525 0.358775,0.142875 0.555625,0.142875 0.28575,0 0.55245,-0.17145 0.55245,-0.43815 z"
         id="path124" />
      <path
         d="m -5.9582296,17.1905 v -1.61925 h -0.24765 v 1.120775 c -0.10795,0.10795 -0.2413,0.193675 -0.390525,0.193675 -0.149225,0 -0.263525,-0.130175 -0.263525,-0.282575 V 15.57125 h -0.24765 v 1.031875 c 0,0.231775 0.1778,0.428625 0.4064,0.428625 0.1905,0 0.358775,-0.10795 0.4953,-0.2413 v 0.40005 c 0,0.212725 -0.09525,0.42545 -0.28575,0.42545 -0.149225,0 -0.2921,-0.03175 -0.428625,-0.08573 v 0.09842 c 0.161925,0.08255 0.3429,0.13335 0.52705,0.13335 0.269875,0 0.434975,-0.2794 0.434975,-0.5715 z"
         id="path126" />
      <path
         d="m -4.3008851,17 v -1.031875 c 0,-0.231775 -0.1778,-0.428625 -0.4064,-0.428625 -0.1905,0 -0.358775,0.10795 -0.4953,0.2413 v -0.20955 h -0.24765 V 17 h 0.24765 v -1.120775 c 0.10795,-0.10795 0.2413,-0.193675 0.390525,-0.193675 0.149225,0 0.263525,0.130175 0.263525,0.282575 V 17 Z"
         id="path128" />
      <path
         d="M -2.7800656,15.90145 V 15.7681 c -0.1016,-0.142875 -0.2667,-0.2286 -0.4445,-0.2286 -0.396875,0 -0.663575,0.29845 -0.663575,0.746125 0,0.447675 0.2667,0.746125 0.663575,0.746125 0.1651,0 0.320675,-0.08255 0.41275,-0.219075 v -0.13335 c -0.10795,0.161925 -0.219075,0.219075 -0.41275,0.219075 -0.2286,0 -0.384175,-0.244475 -0.384175,-0.612775 0,-0.3683 0.155575,-0.612775 0.384175,-0.612775 0.19685,0 0.3302,0.06985 0.4445,0.2286 z"
         id="path130" />
      <path
         d="m -1.1131941,17.365125 v -0.15875 h -1.5875 v 0.15875 z"
         id="path132" />
      <path
         d="m 0.29014979,17 v -1.031875 c 0,-0.231775 -0.1778,-0.428625 -0.40639999,-0.428625 -0.1905,0 -0.358775,0.10795 -0.4953,0.2413 V 15.57125 H -0.85920019 V 17 h 0.24764999 v -1.120775 c 0.10795,-0.10795 0.2413,-0.193675 0.390525,-0.193675 0.149225,0 0.26352499,0.130175 0.26352499,0.282575 V 17 Z"
         id="path134" />
      <path
         d="m 2.1157697,17.365125 v -0.15875 H 0.52826977 v 0.15875 z"
         id="path136" />
      <path
         d="m 3.5191136,16.285625 c 0,-0.485775 -0.2159,-0.746125 -0.6127749,-0.746125 -0.40005,0 -0.61595,0.26035 -0.61595,0.746125 0,0.485775 0.2159,0.746125 0.61595,0.746125 0.3968749,0 0.6127749,-0.26035 0.6127749,-0.746125 z m -0.2794,0 c 0,0.396875 -0.117475,0.612775 -0.3333749,0.612775 -0.219075,0 -0.33655,-0.2159 -0.33655,-0.612775 0,-0.396875 0.117475,-0.612775 0.33655,-0.612775 0.2158999,0 0.3333749,0.2159 0.3333749,0.612775 z"
         id="path138" />
    </g>
    <path
       style="fill:none;stroke:#000000;stroke-width:0.265;stroke-linecap:butt;stroke-linejoin:miter;stroke-miterlimit:4;stroke-dasharray:0.265, 0.265;stroke-dashoffset:0;stroke-opacity:1"
       d="M 73.999999,7.9999998 V 14"
       id="path80" />
    <path
       style="fill:none;stroke:#000000;stroke-width:0.265;stroke-linecap:butt;stroke-linejoin:miter;stroke-miterlimit:4;stroke-dasharray:0.265, 0.265;stroke-dashoffset:0;stroke-opacity:1"
       d="M 76,7.9999998 V 14"
       id="path905" />
    <path
       style="fill:none;stroke:#000000;stroke-width:0.265;stroke-linecap:butt;stroke-linejoin:miter;stroke-miterlimit:4;stroke-dasharray:0.265, 0.265;stroke-dashoffset:0;stroke-opacity:1"
       d="M 86,7.9999998 V 14"
       id="path907" />
    <g
       aria-label="Front
porch"
       id="text911"
       style="font-size:3.175px;line-height:1;font-family:Iwona;-inkscape-font-specification:Iwona;text-align:center;letter-spacing:0px;word-spacing:0px;text-anchor:middle;stroke-width:0.264583">
      <path
         d="m 67.207721,0.92355003 v -0.14605 h -1.5113 V 3 h 0.26035 V 1.961775 h 1.00965 v -0.14605 h -1.00965 V 0.92355003 Z"
         id="path141" />
      <path
         d="M 68.315792,1.7681 V 1.57125 c -0.03493,-0.0127 -0.07303,-0.022225 -0.10795,-0.022225 -0.1778,0 -0.320675,0.123825 -0.434975,0.26035 V 1.57125 h -0.24765 V 3 h 0.24765 V 1.942725 c 0.09525,-0.111125 0.2159,-0.206375 0.36195,-0.206375 0.06033,0 0.123825,0.0127 0.180975,0.03175 z"
         id="path143" />
      <path
         d="m 69.78264,2.285625 c 0,-0.485775 -0.2159,-0.746125 -0.612775,-0.746125 -0.40005,0 -0.61595,0.26035 -0.61595,0.746125 0,0.485775 0.2159,0.746125 0.61595,0.746125 0.396875,0 0.612775,-0.26035 0.612775,-0.746125 z m -0.2794,0 c 0,0.396875 -0.117475,0.612775 -0.333375,0.612775 -0.219075,0 -0.33655,-0.2159 -0.33655,-0.612775 0,-0.396875 0.117475,-0.612775 0.33655,-0.612775 0.2159,0 0.333375,0.2159 0.333375,0.612775 z"
         id="path145" />
      <path
         d="M 71.360614,3 V 1.968125 c 0,-0.231775 -0.1778,-0.428625 -0.4064,-0.428625 -0.1905,0 -0.358775,0.10795 -0.4953,0.2413 V 1.57125 h -0.24765 V 3 h 0.24765 V 1.879225 c 0.10795,-0.10795 0.2413,-0.193675 0.390525,-0.193675 0.149225,0 0.263525,0.130175 0.263525,0.282575 V 3 Z"
         id="path147" />
      <path
         d="m 72.525833,2.888875 v -0.09525 c -0.0508,0.0508 -0.111125,0.092075 -0.18415,0.092075 -0.1143,0 -0.12065,-0.149225 -0.12065,-0.282575 V 1.7046 h 0.3048 V 1.57125 h -0.3048 V 1.095 h -0.149225 c 0,0.254 -0.14605,0.492125 -0.377825,0.492125 V 1.7046 h 0.2794 v 0.898525 c 0,0.20955 0.06668,0.428625 0.24765,0.428625 0.117475,0 0.219075,-0.0635 0.3048,-0.142875 z"
         id="path149" />
      <path
         d="m 66.801322,5.460625 c 0,-0.422275 -0.15875,-0.746125 -0.542925,-0.746125 -0.161925,0 -0.31115,0.073025 -0.43815,0.174625 V 4.74625 h -0.24765 v 2.1589999 h 0.24765 V 6.121025 c 0.123825,0.053975 0.257175,0.085725 0.390525,0.085725 0.396875,0 0.59055,-0.3175 0.59055,-0.746125 z m -0.2794,0 c 0,0.29845 -0.09208,0.612775 -0.352425,0.612775 -0.12065,0 -0.2413,-0.03175 -0.34925,-0.085725 v -0.9652 c 0.09525,-0.09525 0.212725,-0.174625 0.34925,-0.174625 0.288925,0 0.352425,0.2794 0.352425,0.612775 z"
         id="path151" />
      <path
         d="m 68.379291,5.460625 c 0,-0.485775 -0.2159,-0.746125 -0.612775,-0.746125 -0.40005,0 -0.61595,0.26035 -0.61595,0.746125 0,0.485775 0.2159,0.746125 0.61595,0.746125 0.396875,0 0.612775,-0.26035 0.612775,-0.746125 z m -0.2794,0 c 0,0.396875 -0.117475,0.612775 -0.333375,0.612775 -0.219075,0 -0.33655,-0.2159 -0.33655,-0.612775 0,-0.396875 0.117475,-0.612775 0.33655,-0.612775 0.2159,0 0.333375,0.2159 0.333375,0.612775 z"
         id="path153" />
      <path
         d="M 69.59849,4.9431 V 4.74625 c -0.03493,-0.0127 -0.07303,-0.022225 -0.10795,-0.022225 -0.1778,0 -0.320675,0.123825 -0.434975,0.26035 V 4.74625 h -0.24765 V 6.175 h 0.24765 V 5.117725 c 0.09525,-0.111125 0.2159,-0.206375 0.36195,-0.206375 0.06033,0 0.123825,0.0127 0.180975,0.03175 z"
         id="path155" />
      <path
         d="M 70.944687,5.07645 V 4.9431 c -0.1016,-0.142875 -0.2667,-0.2286 -0.4445,-0.2286 -0.396875,0 -0.663575,0.29845 -0.663575,0.746125 0,0.447675 0.2667,0.746125 0.663575,0.746125 0.1651,0 0.320675,-0.08255 0.41275,-0.219075 V 5.854325 C 70.804987,6.01625 70.693862,6.0734 70.500187,6.0734 c -0.2286,0 -0.384175,-0.244475 -0.384175,-0.612775 0,-0.3683 0.155575,-0.612775 0.384175,-0.612775 0.19685,0 0.3302,0.06985 0.4445,0.2286 z"
         id="path157" />
      <path
         d="M 72.427409,6.175 V 5.143125 c 0,-0.231775 -0.1778,-0.428625 -0.4064,-0.428625 -0.1905,0 -0.358775,0.10795 -0.4953,0.2413 V 3.9525 h -0.24765 V 6.175 h 0.24765 V 5.054225 c 0.10795,-0.10795 0.2413,-0.193675 0.390525,-0.193675 0.149225,0 0.263525,0.130175 0.263525,0.282575 V 6.175 Z"
         id="path159" />
    </g>
    <g
       aria-label="Sync"
       id="text919"
       style="font-size:3.175px;line-height:1.25;font-family:Iwona;-inkscape-font-specification:Iwona;text-align:center;letter-spacing:0px;word-spacing:0px;text-anchor:middle;stroke-width:0.264583">
      <path
         d="m 79.458543,2.355475 c 0,-0.390525 -0.396875,-0.6223 -0.80645,-0.708025 -0.27305,-0.05715 -0.581025,-0.127 -0.581025,-0.381 0,-0.250825 0.269875,-0.39369997 0.549275,-0.39369997 0.257175,0 0.508,0.0762 0.7112,0.23494997 V 0.98070003 c -0.2032,-0.15875 -0.454025,-0.254 -0.7112,-0.254 -0.41275,0 -0.8001,0.231775 -0.8001,0.60642497 0,0.358775 0.38735,0.53975 0.765175,0.619125 0.301625,0.0635 0.6223,0.187325 0.6223,0.4699 0,0.288925 -0.282575,0.4826 -0.587375,0.4826 -0.295275,0 -0.587375,-0.0762 -0.835025,-0.23495 v 0.127 c 0.250825,0.15875 0.536575,0.254 0.835025,0.254 0.43815,0 0.8382,-0.282575 0.8382,-0.695325 z"
         id="path162" />
      <path
         d="M 81.036516,3.1905 V 1.57125 h -0.24765 v 1.120775 c -0.10795,0.10795 -0.2413,0.193675 -0.390525,0.193675 -0.149225,0 -0.263525,-0.130175 -0.263525,-0.282575 V 1.57125 h -0.24765 v 1.031875 c 0,0.231775 0.1778,0.428625 0.4064,0.428625 0.1905,0 0.358775,-0.10795 0.4953,-0.2413 V 3.1905 c 0,0.212725 -0.09525,0.42545 -0.28575,0.42545 -0.149225,0 -0.2921,-0.03175 -0.428625,-0.085725 V 3.62865 c 0.161925,0.08255 0.3429,0.13335 0.52705,0.13335 0.269875,0 0.434975,-0.2794 0.434975,-0.5715 z"
         id="path164" />
      <path
         d="M 82.693861,3 V 1.968125 c 0,-0.231775 -0.1778,-0.428625 -0.4064,-0.428625 -0.1905,0 -0.358775,0.10795 -0.4953,0.2413 V 1.57125 h -0.24765 V 3 h 0.24765 V 1.879225 c 0.10795,-0.10795 0.2413,-0.193675 0.390525,-0.193675 0.149225,0 0.263525,0.130175 0.263525,0.282575 V 3 Z"
         id="path166" />
      <path
         d="M 84.21468,1.90145 V 1.7681 c -0.1016,-0.142875 -0.2667,-0.2286 -0.4445,-0.2286 -0.396875,0 -0.663575,0.29845 -0.663575,0.746125 0,0.447675 0.2667,0.746125 0.663575,0.746125 0.1651,0 0.320675,-0.08255 0.41275,-0.219075 V 2.679325 C 84.07498,2.84125 83.963855,2.8984 83.77018,2.8984 c -0.2286,0 -0.384175,-0.244475 -0.384175,-0.612775 0,-0.3683 0.155575,-0.612775 0.384175,-0.612775 0.19685,0 0.3302,0.06985 0.4445,0.2286 z"
         id="path168" />
    </g>
    <g
       aria-label="Back
porch"
       id="text927"
       style="font-size:3.175px;line-height:1;font-family:Iwona;-inkscape-font-specification:Iwona;text-align:center;letter-spacing:0px;word-spacing:0px;text-anchor:middle;stroke-width:0.264583">
      <path
         d="m 92.645868,2.39675 c 0,-0.34925 -0.2286,-0.5334 -0.561975,-0.60325 0.244475,-0.073025 0.4064,-0.231775 0.4064,-0.50165 0,-0.38734997 -0.333375,-0.54609997 -0.762,-0.54609997 -0.1651,0 -0.3302,0.009525 -0.4953,0.03175 h -0.254 V 3 h 0.254 l 0.4953,0.03175 c 0.51435,0 0.917575,-0.174625 0.917575,-0.635 z m -0.415925,-1.1049 c 0,0.320675 -0.358775,0.485775 -0.71755,0.485775 h -0.27305 V 0.92355003 c 0.161925,-0.022225 0.327025,-0.03175 0.48895,-0.03175 0.26035,0 0.50165,0.15874997 0.50165,0.40004997 z m 0.104775,1.1049 c 0,0.2921 -0.288925,0.48895 -0.606425,0.48895 -0.161925,0 -0.327025,-0.00953 -0.48895,-0.03175 v -0.9652 h 0.409575 c 0.34925,0 0.6858,0.187325 0.6858,0.508 z"
         id="path171" />
      <path
         d="M 94.207966,3 V 2.111 c 0,-0.29845 -0.18415,-0.5715 -0.460375,-0.5715 -0.2032,0 -0.3937,0.06985 -0.56515,0.1778 V 1.815725 C 93.325316,1.73635 93.484066,1.68555 93.649166,1.68555 c 0.19685,0 0.31115,0.20955 0.31115,0.42545 V 2.16815 C 93.836491,2.114175 93.703141,2.082425 93.569791,2.082425 c -0.339725,0 -0.59055,0.155575 -0.59055,0.47625 0,0.3048 0.22225,0.473075 0.542925,0.473075 0.161925,0 0.31115,-0.073025 0.43815,-0.174625 V 3 Z m -0.24765,-0.276225 c -0.09525,0.09525 -0.212725,0.174625 -0.34925,0.174625 -0.212725,0 -0.352425,-0.130175 -0.352425,-0.339725 0,-0.193675 0.15875,-0.3429 0.352425,-0.3429 0.12065,0 0.2413,0.03175 0.34925,0.085725 z"
         id="path173" />
      <path
         d="M 95.744663,1.90145 V 1.7681 c -0.1016,-0.142875 -0.2667,-0.2286 -0.4445,-0.2286 -0.396875,0 -0.663575,0.29845 -0.663575,0.746125 0,0.447675 0.2667,0.746125 0.663575,0.746125 0.1651,0 0.320675,-0.08255 0.41275,-0.219075 V 2.679325 C 95.604963,2.84125 95.493838,2.8984 95.300163,2.8984 c -0.2286,0 -0.384175,-0.244475 -0.384175,-0.612775 0,-0.3683 0.155575,-0.612775 0.384175,-0.612775 0.19685,0 0.3302,0.06985 0.4445,0.2286 z"
         id="path175" />
      <path
         d="m 97.30676,3 -0.7366,-0.847725 0.7112,-0.581025 h -0.19685 l -0.758825,0.6223 V 0.77750003 h -0.24765 V 3 h 0.24765 V 2.209425 L 97.011485,3 Z"
         id="path177" />
      <path
         d="m 91.801322,5.460625 c 0,-0.422275 -0.15875,-0.746125 -0.542925,-0.746125 -0.161925,0 -0.31115,0.073025 -0.43815,0.174625 V 4.74625 h -0.24765 v 2.1589999 h 0.24765 V 6.121025 c 0.123825,0.053975 0.257175,0.085725 0.390525,0.085725 0.396875,0 0.59055,-0.3175 0.59055,-0.746125 z m -0.2794,0 c 0,0.29845 -0.09208,0.612775 -0.352425,0.612775 -0.12065,0 -0.2413,-0.03175 -0.34925,-0.085725 v -0.9652 c 0.09525,-0.09525 0.212725,-0.174625 0.34925,-0.174625 0.288925,0 0.352425,0.2794 0.352425,0.612775 z"
         id="path179" />
      <path
         d="m 93.379291,5.460625 c 0,-0.485775 -0.2159,-0.746125 -0.612775,-0.746125 -0.40005,0 -0.61595,0.26035 -0.61595,0.746125 0,0.485775 0.2159,0.746125 0.61595,0.746125 0.396875,0 0.612775,-0.26035 0.612775,-0.746125 z m -0.2794,0 c 0,0.396875 -0.117475,0.612775 -0.333375,0.612775 -0.219075,0 -0.33655,-0.2159 -0.33655,-0.612775 0,-0.396875 0.117475,-0.612775 0.33655,-0.612775 0.2159,0 0.333375,0.2159 0.333375,0.612775 z"
         id="path181" />
      <path
         d="M 94.59849,4.9431 V 4.74625 c -0.03493,-0.0127 -0.07303,-0.022225 -0.10795,-0.022225 -0.1778,0 -0.320675,0.123825 -0.434975,0.26035 V 4.74625 h -0.24765 V 6.175 h 0.24765 V 5.117725 c 0.09525,-0.111125 0.2159,-0.206375 0.36195,-0.206375 0.06033,0 0.123825,0.0127 0.180975,0.03175 z"
         id="path183" />
      <path
         d="M 95.944687,5.07645 V 4.9431 c -0.1016,-0.142875 -0.2667,-0.2286 -0.4445,-0.2286 -0.396875,0 -0.663575,0.29845 -0.663575,0.746125 0,0.447675 0.2667,0.746125 0.663575,0.746125 0.1651,0 0.320675,-0.08255 0.41275,-0.219075 V 5.854325 C 95.804987,6.01625 95.693862,6.0734 95.500187,6.0734 c -0.2286,0 -0.384175,-0.244475 -0.384175,-0.612775 0,-0.3683 0.155575,-0.612775 0.384175,-0.612775 0.19685,0 0.3302,0.06985 0.4445,0.2286 z"
         id="path185" />
      <path
         d="M 97.427409,6.175 V 5.143125 c 0,-0.231775 -0.1778,-0.428625 -0.4064,-0.428625 -0.1905,0 -0.358775,0.10795 -0.4953,0.2413 V 3.9525 h -0.24765 V 6.175 h 0.24765 V 5.054225 c 0.10795,-0.10795 0.2413,-0.193675 0.390525,-0.193675 0.149225,0 0.263525,0.130175 0.263525,0.282575 V 6.175 Z"
         id="path187" />
    </g>
    <path
       style="fill:none;stroke:#000000;stroke-width:0.264583px;stroke-linecap:butt;stroke-linejoin:miter;stroke-opacity:1;marker-end:url(#marker1339)"
       d="M 90,4 C 88.999999,4 87.999999,5.3333334 87.999999,7.9999999"
       id="path1335" />
    <path
       style="fill:none;stroke:#000000;stroke-width:0.264583px;stroke-linecap:butt;stroke-linejoin:miter;stroke-opacity:1;marker-end:url(#marker1409)"
       d="M 81,4 V 8"
       id="path1405" />
    <path
       style="fill:none;fill-rule:evenodd;stroke:#ffffff;stroke-width:0.265;stroke-linecap:butt;stroke-linejoin:miter;stroke-miterlimit:4;stroke-dasharray:none;stroke-opacity:1;marker-mid:url(#Arrow2Mend)"
       d="m 11,16.758453 44,1e-6 h 33"
       id="path55" />
    <path
       id="path1975"
       d="m 11,20.758453 44,1e-6 h 33"
       style="fill:none;fill-rule:evenodd;stroke:#ffffff;stroke-width:0.265;stroke-linecap:butt;stroke-linejoin:miter;stroke-miterlimit:4;stroke-dasharray:none;stroke-opacity:1;marker-mid:url(#marker1979)" />
    <path
       style="fill:none;fill-rule:evenodd;stroke:#ffffff;stroke-width:0.265;stroke-linecap:butt;stroke-linejoin:miter;stroke-miterlimit:4;stroke-dasharray:none;stroke-opacity:1;marker-mid:url(#marker2249)"
       d="m 11,24.758454 44,1e-6 h 33"
       id="path2245" />
    <path
       id="path2515"
       d="m 11,28.758454 44,1e-6 h 33"
       style="fill:none;fill-rule:evenodd;stroke:#ffffff;stroke-width:0.265;stroke-linecap:butt;stroke-linejoin:miter;stroke-miterlimit:4;stroke-dasharray:none;stroke-opacity:1;marker-mid:url(#marker2519)" />
    <path
       style="fill:none;fill-rule:evenodd;stroke:#ffffff;stroke-width:0.265;stroke-linecap:butt;stroke-linejoin:miter;stroke-miterlimit:4;stroke-dasharray:0.265, 0.265;stroke-dashoffset:0;stroke-opacity:1;marker-mid:url(#marker2741)"
       d="m 88,16.758454 -39,2 -38,2"
       id="path2737" />
    <path
       id="path4021"
       d="m 88,20.758454 -39,2 -38,2"
       style="fill:none;fill-rule:evenodd;stroke:#ffffff;stroke-width:0.265;stroke-linecap:butt;stroke-linejoin:miter;stroke-miterlimit:4;stroke-dasharray:0.265, 0.265;stroke-dashoffset:0;stroke-opacity:1;marker-mid:url(#marker4025)" />
    <path
       style="fill:none;fill-rule:evenodd;stroke:#ffffff;stroke-width:0.265;stroke-linecap:butt;stroke-linejoin:miter;stroke-miterlimit:4;stroke-dasharray:0.265, 0.265;stroke-dashoffset:0;stroke-opacity:1;marker-mid:url(#marker4331)"
       d="m 88,24.758454 -39,2 -38,2"
       id="path4327" />
    <path
       id="path4621"
       d="m 88,28.758454 -39,2 -38,2"
       style="fill:none;fill-rule:evenodd;stroke:#ffffff;stroke-width:0.265;stroke-linecap:butt;stroke-linejoin:miter;stroke-miterlimit:4;stroke-dasharray:0.265, 0.265;stroke-dashoffset:0;stroke-opacity:1;marker-mid:url(#marker4625)" />
    <g
       aria-label="Balayage"
       id="text4965"
       style="font-size:3.175px;line-height:1.25;font-family:Iwona;-inkscape-font-specification:Iwona;letter-spacing:0px;word-spacing:0px;fill:#ffffff;stroke-width:0.264583">
      <path
         d="m 47.984375,34.155203 c 0,-0.34925 -0.2286,-0.5334 -0.561975,-0.60325 0.244475,-0.07302 0.4064,-0.231775 0.4064,-0.50165 0,-0.38735 -0.333375,-0.5461 -0.762,-0.5461 -0.1651,0 -0.3302,0.0095 -0.4953,0.03175 h -0.254 v 2.2225 h 0.254 l 0.4953,0.03175 c 0.51435,0 0.917575,-0.174625 0.917575,-0.635 z m -0.415925,-1.1049 c 0,0.320675 -0.358775,0.485775 -0.71755,0.485775 h -0.27305 v -0.854075 c 0.161925,-0.02222 0.327025,-0.03175 0.48895,-0.03175 0.26035,0 0.50165,0.15875 0.50165,0.40005 z m 0.104775,1.1049 c 0,0.2921 -0.288925,0.48895 -0.606425,0.48895 -0.161925,0 -0.327025,-0.0095 -0.48895,-0.03175 v -0.9652 h 0.409575 c 0.34925,0 0.6858,0.187325 0.6858,0.508 z"
         id="path190" />
      <path
         d="m 49.546473,34.758453 v -0.889 c 0,-0.29845 -0.18415,-0.5715 -0.460375,-0.5715 -0.2032,0 -0.3937,0.06985 -0.56515,0.1778 v 0.09843 c 0.142875,-0.07938 0.301625,-0.130175 0.466725,-0.130175 0.19685,0 0.31115,0.20955 0.31115,0.42545 v 0.05715 c -0.123825,-0.05398 -0.257175,-0.08573 -0.390525,-0.08573 -0.339725,0 -0.59055,0.155575 -0.59055,0.47625 0,0.3048 0.22225,0.473075 0.542925,0.473075 0.161925,0 0.31115,-0.07303 0.43815,-0.174625 v 0.142875 z m -0.24765,-0.276225 c -0.09525,0.09525 -0.212725,0.174625 -0.34925,0.174625 -0.212725,0 -0.352425,-0.130175 -0.352425,-0.339725 0,-0.193675 0.15875,-0.3429 0.352425,-0.3429 0.12065,0 0.2413,0.03175 0.34925,0.08573 z"
         id="path192" />
      <path
         d="m 50.651371,34.647328 v -0.09525 c -0.06032,0.0508 -0.130175,0.09208 -0.20955,0.09208 -0.117475,0 -0.1397,-0.14605 -0.1397,-0.282575 v -1.825625 h -0.24765 v 1.825625 c 0,0.212725 0.08255,0.428625 0.269875,0.428625 0.12065,0 0.23495,-0.06032 0.327025,-0.142875 z"
         id="path194" />
      <path
         d="m 52.086465,34.758453 v -0.889 c 0,-0.29845 -0.18415,-0.5715 -0.460375,-0.5715 -0.2032,0 -0.3937,0.06985 -0.56515,0.1778 v 0.09843 c 0.142875,-0.07938 0.301625,-0.130175 0.466725,-0.130175 0.19685,0 0.31115,0.20955 0.31115,0.42545 v 0.05715 c -0.123825,-0.05398 -0.257175,-0.08573 -0.390525,-0.08573 -0.339725,0 -0.59055,0.155575 -0.59055,0.47625 0,0.3048 0.22225,0.473075 0.542925,0.473075 0.161925,0 0.31115,-0.07303 0.43815,-0.174625 v 0.142875 z m -0.24765,-0.276225 c -0.09525,0.09525 -0.212725,0.174625 -0.34925,0.174625 -0.212725,0 -0.352425,-0.130175 -0.352425,-0.339725 0,-0.193675 0.15875,-0.3429 0.352425,-0.3429 0.12065,0 0.2413,0.03175 0.34925,0.08573 z"
         id="path196" />
      <path
         d="m 53.727937,34.948953 v -1.61925 h -0.24765 v 1.120775 c -0.10795,0.10795 -0.2413,0.193675 -0.390525,0.193675 -0.149225,0 -0.263525,-0.130175 -0.263525,-0.282575 v -1.031875 h -0.24765 v 1.031875 c 0,0.231775 0.1778,0.428625 0.4064,0.428625 0.1905,0 0.358775,-0.10795 0.4953,-0.2413 v 0.40005 c 0,0.212725 -0.09525,0.42545 -0.28575,0.42545 -0.149225,0 -0.2921,-0.03175 -0.428625,-0.08573 v 0.09843 c 0.161925,0.08255 0.3429,0.13335 0.52705,0.13335 0.269875,0 0.434975,-0.2794 0.434975,-0.5715 z"
         id="path198" />
      <path
         d="m 55.353532,34.758453 v -0.889 c 0,-0.29845 -0.18415,-0.5715 -0.460375,-0.5715 -0.2032,0 -0.3937,0.06985 -0.56515,0.1778 v 0.09843 c 0.142875,-0.07938 0.301625,-0.130175 0.466725,-0.130175 0.19685,0 0.31115,0.20955 0.31115,0.42545 v 0.05715 c -0.123825,-0.05398 -0.257175,-0.08573 -0.390525,-0.08573 -0.339725,0 -0.59055,0.155575 -0.59055,0.47625 0,0.3048 0.22225,0.473075 0.542925,0.473075 0.161925,0 0.31115,-0.07303 0.43815,-0.174625 v 0.142875 z m -0.24765,-0.276225 c -0.09525,0.09525 -0.212725,0.174625 -0.34925,0.174625 -0.212725,0 -0.352425,-0.130175 -0.352425,-0.339725 0,-0.193675 0.15875,-0.3429 0.352425,-0.3429 0.12065,0 0.2413,0.03175 0.34925,0.08573 z"
         id="path200" />
      <path
         d="m 57.010879,34.948953 v -1.61925 h -0.24765 v 0.05398 c -0.123825,-0.05398 -0.257175,-0.08573 -0.390525,-0.08573 -0.396875,0 -0.59055,0.3175 -0.59055,0.746125 0,0.422275 0.15875,0.746125 0.542925,0.746125 0.161925,0 0.31115,-0.07303 0.43815,-0.174625 v 0.333375 c 0,0.219075 -0.12065,0.42545 -0.3175,0.42545 -0.161925,0 -0.32385,-0.03175 -0.47625,-0.08573 v 0.09843 c 0.1778,0.08255 0.37465,0.13335 0.5715,0.13335 0.2794,0 0.4699,-0.27305 0.4699,-0.5715 z m -0.24765,-0.466725 c -0.09525,0.09525 -0.212725,0.174625 -0.34925,0.174625 -0.288925,0 -0.352425,-0.2794 -0.352425,-0.612775 0,-0.29845 0.09208,-0.612775 0.352425,-0.612775 0.12065,0 0.2413,0.03175 0.34925,0.08573 z"
         id="path202" />
      <path
         d="m 58.668227,34.075828 v -0.03175 c 0,-0.447675 -0.244475,-0.746125 -0.612775,-0.746125 -0.371475,0 -0.61595,0.29845 -0.61595,0.746125 0,0.447675 0.244475,0.746125 0.61595,0.746125 0.15875,0 0.314325,-0.0508 0.4445,-0.142875 v -0.13335 c -0.149225,0.09525 -0.269875,0.130175 -0.4445,0.130175 -0.269875,0 -0.33655,-0.257175 -0.33655,-0.568325 z m -0.2794,-0.13335 h -0.669925 c 0,-0.254 0.10795,-0.511175 0.33655,-0.511175 0.225425,0 0.333375,0.257175 0.333375,0.511175 z"
         id="path204" />
    </g>
  </g>
</svg>
