<?xml version="1.0" encoding="UTF-8" standalone="no"?>
<!-- Created with Inkscape (http://www.inkscape.org/) -->

<svg
   width="87.634537mm"
   height="35.282001mm"
   id="svg2"
   version="1.1"
   viewBox="0 0 310.51607 125.01497"
   xmlns="http://www.w3.org/2000/svg"
   xmlns:svg="http://www.w3.org/2000/svg"
   xmlns:rdf="http://www.w3.org/1999/02/22-rdf-syntax-ns#"
   xmlns:cc="http://creativecommons.org/ns#"
   xmlns:dc="http://purl.org/dc/elements/1.1/">
  <defs
     id="defs4" />
  <metadata
     id="metadata7">
    <rdf:RDF>
      <cc:Work
         rdf:about="">
        <dc:format>image/svg+xml</dc:format>
        <dc:type
           rdf:resource="http://purl.org/dc/dcmitype/StillImage" />
        <dc:title />
      </cc:Work>
    </rdf:RDF>
  </metadata>
  <g
     id="layer1"
     transform="translate(-149.19784,-77.453124)">
    <path
       id="rect4876"
       style="fill:#afdde9;stroke:#000000;stroke-width:0.999213;stroke-linecap:round"
       d="M 191.33858,85.039345 H 407.48032 V 194.88187 H 191.33858 Z" />
    <path
       id="path4828"
       d="m 400.3937,106.29919 h 10.62992 l 7.08661,7.0866 -7.08661,7.08661 H 400.3937 Z"
       style="fill:#afdde9;fill-opacity:1;stroke:#000000;stroke-width:1px;stroke-linecap:butt;stroke-linejoin:miter;stroke-opacity:1" />
    <g
       aria-label="valeur"
       id="text4830"
       style="line-height:0%;font-family:Iwona;-inkscape-font-specification:Iwona;letter-spacing:0px;word-spacing:0px">
      <path
         d="m 426.48744,111.44993 h -0.54792 l -1.65594,4.55382 -1.60723,-4.55382 h -0.90103 l 1.92381,5.4792 h 0.79144 z"
         style="font-size:12.176px;line-height:1.25"
         id="path37" />
      <path
         d="m 431.86922,116.92913 v -3.40928 c 0,-1.14454 -0.7062,-2.19168 -1.76552,-2.19168 -0.77926,0 -1.50982,0.26787 -2.16732,0.68186 v 0.37745 c 0.54792,-0.3044 1.15672,-0.49921 1.78987,-0.49921 0.75491,0 1.19325,0.80361 1.19325,1.63158 v 0.21917 c -0.47487,-0.20699 -0.98626,-0.32875 -1.49765,-0.32875 -1.30283,0 -2.26474,0.59662 -2.26474,1.8264 0,1.16889 0.85232,1.81422 2.0821,1.81422 0.62097,0 1.19325,-0.28005 1.68029,-0.66968 v 0.54792 z m -0.94972,-1.05931 c -0.36528,0.36528 -0.8158,0.66968 -1.33936,0.66968 -0.8158,0 -1.35154,-0.49922 -1.35154,-1.30283 0,-0.74274 0.6088,-1.31501 1.35154,-1.31501 0.46268,0 0.92537,0.12176 1.33936,0.32875 z"
         style="font-size:12.176px;line-height:1.25"
         id="path39" />
      <path
         d="m 436.10646,116.50297 v -0.36528 c -0.23134,0.19482 -0.49922,0.3531 -0.80362,0.3531 -0.45051,0 -0.53574,-0.56009 -0.53574,-1.08366 v -7.0012 h -0.94973 v 7.0012 c 0,0.81579 0.31658,1.64376 1.03496,1.64376 0.46269,0 0.90103,-0.23134 1.25413,-0.54792 z"
         style="font-size:12.176px;line-height:1.25"
         id="path41" />
      <path
         d="m 441.73175,114.31129 v -0.12176 c 0,-1.71682 -0.93755,-2.86136 -2.34997,-2.86136 -1.42459,0 -2.36214,1.14454 -2.36214,2.86136 0,1.71682 0.93755,2.86136 2.36214,2.86136 0.6088,0 1.20543,-0.19482 1.70464,-0.54792 v -0.51139 c -0.57227,0.36528 -1.03496,0.49921 -1.70464,0.49921 -1.03496,0 -1.29065,-0.98625 -1.29065,-2.1795 z m -1.07149,-0.51139 h -2.56913 c 0,-0.97408 0.41398,-1.96034 1.29065,-1.96034 0.8645,0 1.27848,0.98626 1.27848,1.96034 z"
         style="font-size:12.176px;line-height:1.25"
         id="path43" />
      <path
         d="m 447.66145,116.92913 v -5.4792 h -0.94973 v 4.29813 c -0.41399,0.41398 -0.92538,0.74273 -1.49765,0.74273 -0.57227,0 -1.01061,-0.49921 -1.01061,-1.08366 v -3.9572 h -0.94973 v 3.9572 c 0,0.88885 0.68186,1.64376 1.55853,1.64376 0.73056,0 1.37589,-0.41398 1.89946,-0.92538 v 0.80362 z"
         style="font-size:12.176px;line-height:1.25"
         id="path45" />
      <path
         d="m 452.64141,112.20484 v -0.75491 c -0.13394,-0.0487 -0.28005,-0.0852 -0.41398,-0.0852 -0.68186,0 -1.22978,0.47486 -1.66812,0.99843 v -0.9132 h -0.94972 v 5.4792 h 0.94972 v -4.05461 c 0.36528,-0.42616 0.82797,-0.79144 1.38807,-0.79144 0.23134,0 0.47486,0.0487 0.69403,0.12176 z"
         style="font-size:12.176px;line-height:1.25"
         id="path47" />
    </g>
    <path
       style="fill:#afdde9;fill-opacity:1;stroke:#000000;stroke-width:1px;stroke-linecap:butt;stroke-linejoin:miter;stroke-opacity:1"
       d="m 400.3937,159.44882 h 10.62992 l 7.08661,7.0866 -7.08661,7.08661 H 400.3937 Z"
       id="path4834" />
    <g
       aria-label="cycle"
       id="text4836"
       style="line-height:0%;font-family:Iwona;-inkscape-font-specification:Iwona;letter-spacing:0px;word-spacing:0px">
      <path
         d="m 426.57267,165.86584 v -0.51139 c -0.38963,-0.54792 -1.02279,-0.87667 -1.70464,-0.87667 -1.522,0 -2.54479,1.14454 -2.54479,2.86136 0,1.71681 1.02279,2.86136 2.54479,2.86136 0.63315,0 1.22977,-0.31658 1.58288,-0.84015 v -0.51139 c -0.41399,0.62098 -0.84015,0.84014 -1.58288,0.84014 -0.87667,0 -1.4733,-0.93755 -1.4733,-2.34996 0,-1.41242 0.59663,-2.34997 1.4733,-2.34997 0.75491,0 1.2663,0.26787 1.70464,0.87667 z"
         style="font-size:12.176px;line-height:1.25"
         id="path50" />
      <path
         d="m 432.19797,170.8093 v -6.20976 h -0.94973 v 4.29812 c -0.41398,0.41399 -0.92538,0.74274 -1.49765,0.74274 -0.57227,0 -1.01061,-0.49922 -1.01061,-1.08366 v -3.9572 h -0.94972 v 3.9572 c 0,0.88884 0.68185,1.64376 1.55852,1.64376 0.73056,0 1.37589,-0.41399 1.89946,-0.92538 v 1.53418 c 0,0.81579 -0.36528,1.63158 -1.09584,1.63158 -0.57227,0 -1.12019,-0.12176 -1.64376,-0.32875 v 0.37745 c 0.62098,0.31658 1.31501,0.5114 2.02122,0.5114 1.03496,0 1.66811,-1.07149 1.66811,-2.19168 z"
         style="font-size:12.176px;line-height:1.25"
         id="path52" />
      <path
         d="m 438.09113,165.86584 v -0.51139 c -0.38963,-0.54792 -1.02278,-0.87667 -1.70464,-0.87667 -1.522,0 -2.54478,1.14454 -2.54478,2.86136 0,1.71681 1.02278,2.86136 2.54478,2.86136 0.63315,0 1.22978,-0.31658 1.58288,-0.84015 v -0.51139 c -0.41398,0.62098 -0.84014,0.84014 -1.58288,0.84014 -0.87667,0 -1.4733,-0.93755 -1.4733,-2.34996 0,-1.41242 0.59663,-2.34997 1.4733,-2.34997 0.75491,0 1.2663,0.26787 1.70464,0.87667 z"
         style="font-size:12.176px;line-height:1.25"
         id="path54" />
      <path
         d="m 441.65869,169.65258 v -0.36528 c -0.23135,0.19481 -0.49922,0.3531 -0.80362,0.3531 -0.45051,0 -0.53574,-0.5601 -0.53574,-1.08366 v -7.0012 h -0.94973 v 7.0012 c 0,0.81579 0.31657,1.64376 1.03496,1.64376 0.46269,0 0.90102,-0.23135 1.25413,-0.54792 z"
         style="font-size:12.176px;line-height:1.25"
         id="path56" />
      <path
         d="m 447.28398,167.4609 v -0.12176 c 0,-1.71682 -0.93756,-2.86136 -2.34997,-2.86136 -1.42459,0 -2.36215,1.14454 -2.36215,2.86136 0,1.71681 0.93756,2.86136 2.36215,2.86136 0.6088,0 1.20542,-0.19482 1.70464,-0.54792 v -0.5114 c -0.57227,0.36528 -1.03496,0.49922 -1.70464,0.49922 -1.03496,0 -1.29066,-0.98626 -1.29066,-2.1795 z m -1.07149,-0.5114 h -2.56914 c 0,-0.97408 0.41399,-1.96033 1.29066,-1.96033 0.86449,0 1.27848,0.98625 1.27848,1.96033 z"
         style="font-size:12.176px;line-height:1.25"
         id="path58" />
    </g>
    <path
       id="path4840"
       d="m 184.25198,95.669286 h 10.62992 l 7.08661,7.086604 -7.08661,7.08661 h -10.62992 z"
       style="fill:#afdde9;fill-opacity:1;stroke:#000000;stroke-width:1px;stroke-linecap:butt;stroke-linejoin:miter;stroke-opacity:1" />
    <path
       style="fill:#afdde9;fill-opacity:1;stroke:#000000;stroke-width:1px;stroke-linecap:butt;stroke-linejoin:miter;stroke-opacity:1"
       d="m 184.25198,116.92911 h 10.62992 l 7.08661,7.0866 -7.08661,7.08661 h -10.62992 z"
       id="path4842" />
    <g
       aria-label="inc"
       id="text4848"
       style="line-height:0%;font-family:Iwona;-inkscape-font-specification:Iwona;text-align:end;letter-spacing:0px;word-spacing:0px;text-anchor:end">
      <path
         d="m 168.94669,105.87303 v -0.36528 c -0.23134,0.19481 -0.49921,0.3531 -0.80361,0.3531 -0.45051,0 -0.53575,-0.5601 -0.53575,-1.08366 v -3.9572 h -0.94972 v 3.9572 c 0,0.81579 0.31657,1.64376 1.03496,1.64376 0.46268,0 0.90102,-0.23135 1.25412,-0.54792 z m -1.2176,-6.952499 c 0,-0.328752 -0.26787,-0.596624 -0.59662,-0.596624 -0.32875,0 -0.59662,0.267872 -0.59662,0.596624 0,0.328752 0.26787,0.596624 0.59662,0.596624 0.32875,0 0.59662,-0.267872 0.59662,-0.596624 z"
         style="font-size:12.176px;line-height:1.25"
         id="path61" />
      <path
         d="m 174.57199,106.29919 v -3.9572 c 0,-0.88885 -0.68185,-1.64376 -1.55852,-1.64376 -0.73056,0 -1.37589,0.41398 -1.89946,0.92537 v -0.80361 h -0.94973 v 5.4792 h 0.94973 v -4.29813 c 0.41398,-0.41399 0.92538,-0.74274 1.49765,-0.74274 0.57227,0 1.01061,0.49922 1.01061,1.08367 v 3.9572 z"
         style="font-size:12.176px;line-height:1.25"
         id="path63" />
      <path
         d="m 180.40428,102.08629 v -0.51139 c -0.38963,-0.54792 -1.02279,-0.87667 -1.70464,-0.87667 -1.522,0 -2.54479,1.14454 -2.54479,2.86136 0,1.71681 1.02279,2.86136 2.54479,2.86136 0.63315,0 1.22977,-0.31658 1.58288,-0.84015 v -0.51139 c -0.41399,0.62098 -0.84015,0.84014 -1.58288,0.84014 -0.87667,0 -1.4733,-0.93755 -1.4733,-2.34996 0,-1.41242 0.59663,-2.34997 1.4733,-2.34997 0.75491,0 1.2663,0.26787 1.70464,0.87667 z"
         style="font-size:12.176px;line-height:1.25"
         id="path65" />
    </g>
    <g
       aria-label="dec"
       id="text4852"
       style="line-height:0%;font-family:Iwona;-inkscape-font-specification:Iwona;text-align:end;letter-spacing:0px;word-spacing:0px;text-anchor:end">
      <path
         d="m 168.52053,127.55905 v -8.5232 h -0.94973 v 3.25099 c -0.47487,-0.20699 -0.98626,-0.32875 -1.49765,-0.32875 -1.522,0 -2.26474,1.2176 -2.26474,2.86136 0,1.61941 0.6088,2.86136 2.0821,2.86136 0.62098,0 1.19325,-0.28005 1.68029,-0.66968 v 0.54792 z m -0.94973,-1.05931 c -0.36528,0.36528 -0.81579,0.66968 -1.33936,0.66968 -1.10802,0 -1.35154,-1.07149 -1.35154,-2.34997 0,-1.14454 0.35311,-2.34997 1.35154,-2.34997 0.46269,0 0.92537,0.12176 1.33936,0.32876 z"
         style="font-size:12.176px;line-height:1.25"
         id="path68" />
      <path
         d="m 174.87639,124.94121 v -0.12176 c 0,-1.71681 -0.93755,-2.86136 -2.34997,-2.86136 -1.42459,0 -2.36214,1.14455 -2.36214,2.86136 0,1.71682 0.93755,2.86136 2.36214,2.86136 0.6088,0 1.20543,-0.19481 1.70464,-0.54792 v -0.51139 c -0.57227,0.36528 -1.03496,0.49922 -1.70464,0.49922 -1.03496,0 -1.29065,-0.98626 -1.29065,-2.17951 z m -1.07149,-0.51139 h -2.56913 c 0,-0.97408 0.41398,-1.96034 1.29065,-1.96034 0.8645,0 1.27848,0.98626 1.27848,1.96034 z"
         style="font-size:12.176px;line-height:1.25"
         id="path70" />
      <path
         d="m 180.40428,123.34616 v -0.5114 c -0.38964,-0.54792 -1.02279,-0.87667 -1.70464,-0.87667 -1.522,0 -2.54479,1.14455 -2.54479,2.86136 0,1.71682 1.02279,2.86136 2.54479,2.86136 0.63315,0 1.22977,-0.31657 1.58288,-0.84014 v -0.51139 c -0.41399,0.62097 -0.84015,0.84014 -1.58288,0.84014 -0.87668,0 -1.4733,-0.93755 -1.4733,-2.34997 0,-1.41241 0.59662,-2.34997 1.4733,-2.34997 0.75491,0 1.2663,0.26788 1.70464,0.87668 z"
         style="font-size:12.176px;line-height:1.25"
         id="path72" />
    </g>
    <path
       id="path4864"
       d="m 184.25197,148.81888 h 10.62992 l 7.08661,7.0866 -7.08661,7.08661 h -10.62992 z"
       style="fill:#afdde9;fill-opacity:1;stroke:#000000;stroke-width:1px;stroke-linecap:butt;stroke-linejoin:miter;stroke-opacity:1" />
    <path
       style="fill:#afdde9;fill-opacity:1;stroke:#000000;stroke-width:1px;stroke-linecap:butt;stroke-linejoin:miter;stroke-opacity:1"
       d="m 184.25197,170.0787 h 10.62992 l 7.08661,7.0866 -7.08661,7.08661 h -10.62992 z"
       id="path4866" />
    <g
       aria-label="clk"
       id="text4868"
       style="line-height:0%;font-family:Iwona;-inkscape-font-specification:Iwona;text-align:end;letter-spacing:0px;word-spacing:0px;text-anchor:end">
      <path
         d="m 171.08967,155.2359 v -0.5114 c -0.38963,-0.54792 -1.02279,-0.87667 -1.70464,-0.87667 -1.522,0 -2.54479,1.14455 -2.54479,2.86136 0,1.71682 1.02279,2.86136 2.54479,2.86136 0.63315,0 1.22977,-0.31657 1.58288,-0.84014 v -0.51139 c -0.41399,0.62097 -0.84015,0.84014 -1.58288,0.84014 -0.87667,0 -1.4733,-0.93755 -1.4733,-2.34997 0,-1.41241 0.59663,-2.34997 1.4733,-2.34997 0.75491,0 1.2663,0.26788 1.70464,0.87668 z"
         style="font-size:12.176px;line-height:1.25"
         id="path75" />
      <path
         d="m 174.65722,159.02263 v -0.36528 c -0.23134,0.19482 -0.49921,0.35311 -0.80361,0.35311 -0.45052,0 -0.53575,-0.5601 -0.53575,-1.08367 v -7.0012 h -0.94972 v 7.0012 c 0,0.81579 0.31657,1.64376 1.03495,1.64376 0.46269,0 0.90103,-0.23134 1.25413,-0.54792 z"
         style="font-size:12.176px;line-height:1.25"
         id="path77" />
      <path
         d="m 180.58691,159.44879 -2.82483,-3.25099 2.72742,-2.22821 h -0.75491 l -2.91006,2.3865 v -5.4305 h -0.94973 v 8.5232 h 0.94973 v -3.03182 l 2.63001,3.03182 z"
         style="font-size:12.176px;line-height:1.25"
         id="path79" />
    </g>
    <g
       aria-label="reset"
       id="text4872"
       style="line-height:0%;font-family:Iwona;-inkscape-font-specification:Iwona;text-align:end;letter-spacing:0px;word-spacing:0px;text-anchor:end">
      <path
         d="m 159.33986,175.98433 v -0.75491 c -0.13394,-0.0487 -0.28005,-0.0852 -0.41399,-0.0852 -0.68185,0 -1.22977,0.47486 -1.66811,0.99843 v -0.9132 h -0.94973 v 5.4792 h 0.94973 v -4.05461 c 0.36528,-0.42616 0.82797,-0.79144 1.38807,-0.79144 0.23134,0 0.47486,0.0487 0.69403,0.12176 z"
         style="font-size:12.176px;line-height:1.25"
         id="path82" />
      <path
         d="m 164.96516,178.09078 v -0.12176 c 0,-1.71682 -0.93755,-2.86136 -2.34997,-2.86136 -1.42459,0 -2.36214,1.14454 -2.36214,2.86136 0,1.71681 0.93755,2.86136 2.36214,2.86136 0.6088,0 1.20542,-0.19482 1.70464,-0.54792 v -0.51139 c -0.57227,0.36528 -1.03496,0.49921 -1.70464,0.49921 -1.03496,0 -1.29066,-0.98625 -1.29066,-2.1795 z m -1.07149,-0.51139 h -2.56914 c 0,-0.97408 0.41399,-1.96034 1.29066,-1.96034 0.8645,0 1.27848,0.98626 1.27848,1.96034 z"
         style="font-size:12.176px;line-height:1.25"
         id="path84" />
      <path
         d="m 170.24953,179.15009 c 0,-0.9619 -1.02279,-1.46112 -2.02122,-1.70464 -0.58445,-0.14611 -1.2176,-0.38963 -1.2176,-0.9619 0,-0.52357 0.53575,-0.8645 1.12019,-0.8645 0.64533,0 1.29066,0.19482 1.8264,0.54792 v -0.51139 c -0.53574,-0.35311 -1.18107,-0.54792 -1.8264,-0.54792 -1.05931,0 -2.03339,0.64533 -2.03339,1.63158 0,0.88885 0.98626,1.30283 1.92381,1.53418 0.64533,0.15829 1.31501,0.49921 1.31501,1.12019 0,0.57227 -0.58445,0.92538 -1.20543,0.92538 -0.75491,0 -1.48547,-0.18264 -2.1308,-0.54792 v 0.51139 c 0.64533,0.36528 1.37589,0.54792 2.1308,0.54792 1.09584,0 2.11863,-0.65751 2.11863,-1.68029 z"
         style="font-size:12.176px;line-height:1.25"
         id="path86" />
      <path
         d="m 176.17923,178.09078 v -0.12176 c 0,-1.71682 -0.93756,-2.86136 -2.34997,-2.86136 -1.42459,0 -2.36215,1.14454 -2.36215,2.86136 0,1.71681 0.93756,2.86136 2.36215,2.86136 0.6088,0 1.20542,-0.19482 1.70464,-0.54792 v -0.51139 c -0.57227,0.36528 -1.03496,0.49921 -1.70464,0.49921 -1.03496,0 -1.29066,-0.98625 -1.29066,-2.1795 z m -1.07149,-0.51139 h -2.56914 c 0,-0.97408 0.41399,-1.96034 1.29066,-1.96034 0.86449,0 1.27848,0.98626 1.27848,1.96034 z"
         style="font-size:12.176px;line-height:1.25"
         id="path88" />
      <path
         d="m 180.3434,180.28246 v -0.36528 c -0.19481,0.19481 -0.42616,0.3531 -0.70621,0.3531 -0.43833,0 -0.46268,-0.57227 -0.46268,-1.08366 v -3.44581 h 1.16889 v -0.51139 h -1.16889 v -1.8264 h -0.57228 c 0,0.97408 -0.56009,1.88728 -1.44894,1.88728 v 0.45051 h 1.07149 v 3.44581 c 0,0.80361 0.25569,1.64376 0.94973,1.64376 0.45051,0 0.84014,-0.24352 1.16889,-0.54792 z"
         style="font-size:12.176px;line-height:1.25"
         id="path90" />
    </g>
    <g
       aria-label="Compteur"
       id="text4878"
       style="line-height:0%;font-family:Iwona;-inkscape-font-specification:Iwona;text-align:center;letter-spacing:0px;word-spacing:0px;text-anchor:middle">
      <path
         d="m 246.61948,111.34125 v -2.00582 c -2.00583,-2.8973 -5.31172,-4.60597 -8.80335,-4.60597 -7.54041,0 -11.62635,5.49745 -11.62635,13.37217 0,7.87471 4.08594,13.37216 11.62635,13.37216 2.89731,0 5.75746,-0.85433 8.20903,-2.45156 v -1.70867 c -2.45157,1.59723 -5.31172,2.45156 -8.20903,2.45156 -5.83174,0 -7.98615,-5.16314 -7.98615,-11.66349 0,-6.50036 2.15441,-11.6635 7.98615,-11.6635 3.56592,0 6.90896,1.85724 8.80335,4.90312 z"
         style="font-size:37.1449px;line-height:1.25"
         id="path93" />
      <path
         d="m 263.70607,122.74474 c 0,-5.68317 -2.52585,-8.72905 -7.16897,-8.72905 -4.68025,0 -7.20611,3.04588 -7.20611,8.72905 0,5.68317 2.52586,8.72905 7.20611,8.72905 4.64312,0 7.16897,-3.04588 7.16897,-8.72905 z m -3.26875,0 c 0,4.64311 -1.37436,7.16896 -3.90022,7.16896 -2.56299,0 -3.93736,-2.52585 -3.93736,-7.16896 0,-4.64311 1.37437,-7.16897 3.93736,-7.16897 2.52586,0 3.90022,2.52586 3.90022,7.16897 z"
         style="font-size:37.1449px;line-height:1.25"
         id="path95" />
      <path
         d="m 289.00174,131.10234 v -12.07209 c 0,-2.60015 -1.52295,-5.01456 -3.93736,-5.01456 -2.08012,0 -4.01165,1.0772 -5.126,2.82301 -0.59432,-1.63438 -1.85725,-2.82301 -3.56591,-2.82301 -1.93154,0 -3.49162,1.33721 -4.75455,2.82301 v -2.45156 h -2.8973 v 16.7152 h 2.8973 v -13.14929 c 0.89148,-1.1515 2.00583,-2.2287 3.45448,-2.2287 1.52294,0 2.34013,1.63438 2.34013,3.3059 v 12.07209 h 2.8973 v -12.07209 c 0,-0.44574 -0.0371,-0.85433 -0.11144,-1.30007 0.89148,-1.1515 2.11726,-2.00583 3.56591,-2.00583 1.52295,0 2.34013,1.63438 2.34013,3.3059 v 12.07209 z"
         style="font-size:37.1449px;line-height:1.25"
         id="path97" />
      <path
         d="m 308.94849,122.74474 c 0,-4.94027 -1.85725,-8.72905 -6.35178,-8.72905 -1.89439,0 -3.6402,0.85433 -5.126,2.04297 v -1.67152 h -2.8973 v 25.25853 h 2.8973 v -9.17479 c 1.44865,0.63146 3.00874,1.00291 4.56882,1.00291 4.64312,0 6.90896,-3.71449 6.90896,-8.72905 z m -3.26876,0 c 0,3.49162 -1.0772,7.16896 -4.12308,7.16896 -1.41151,0 -2.82301,-0.37145 -4.08594,-1.00291 v -11.29205 c 1.11435,-1.11435 2.48871,-2.04297 4.08594,-2.04297 3.38019,0 4.12308,3.26875 4.12308,7.16897 z"
         style="font-size:37.1449px;line-height:1.25"
         id="path99" />
      <path
         d="m 321.8377,129.80227 v -1.11435 c -0.59432,0.59432 -1.30007,1.0772 -2.1544,1.0772 -1.33722,0 -1.41151,-1.74581 -1.41151,-3.30589 v -10.51201 h 3.56591 v -1.56008 h -3.56591 v -5.57174 h -1.74581 c 0,2.97159 -1.70866,5.75746 -4.42024,5.75746 v 1.37436 h 3.26875 v 10.51201 c 0,2.45156 0.78004,5.01456 2.8973,5.01456 1.37436,0 2.563,-0.7429 3.56591,-1.67152 z"
         style="font-size:37.1449px;line-height:1.25"
         id="path101" />
      <path
         d="m 339.37005,123.11619 v -0.37145 c 0,-5.23743 -2.86016,-8.72905 -7.16897,-8.72905 -4.34595,0 -7.20611,3.49162 -7.20611,8.72905 0,5.23743 2.86016,8.72905 7.20611,8.72905 1.85725,0 3.67735,-0.59432 5.20029,-1.67152 v -1.56009 c -1.74581,1.11435 -3.15732,1.52294 -5.20029,1.52294 -3.15732,0 -3.93736,-3.00873 -3.93736,-6.64893 z m -3.26875,-1.56009 h -7.83758 c 0,-2.97159 1.26293,-5.98033 3.93736,-5.98033 2.63729,0 3.90022,3.00874 3.90022,5.98033 z"
         style="font-size:37.1449px;line-height:1.25"
         id="path103" />
      <path
         d="m 357.45956,131.10234 v -16.7152 h -2.8973 v 13.11215 c -1.26293,1.26292 -2.82301,2.26583 -4.56883,2.26583 -1.74581,0 -3.08302,-1.52294 -3.08302,-3.30589 v -12.07209 h -2.8973 v 12.07209 c 0,2.71158 2.08011,5.01456 4.75454,5.01456 2.2287,0 4.19738,-1.26293 5.79461,-2.82301 v 2.45156 z"
         style="font-size:37.1449px;line-height:1.25"
         id="path105" />
      <path
         d="m 372.65176,116.69012 v -2.30298 c -0.40859,-0.14858 -0.85433,-0.26002 -1.26293,-0.26002 -2.08011,0 -3.75163,1.44865 -5.08885,3.04588 v -2.78586 h -2.8973 v 16.7152 h 2.8973 v -12.36925 c 1.11435,-1.30007 2.52586,-2.41442 4.23452,-2.41442 0.70575,0 1.44865,0.14858 2.11726,0.37145 z"
         style="font-size:37.1449px;line-height:1.25"
         id="path107" />
    </g>
    <path
       id="rect4901"
       style="fill:none;stroke:#000000;stroke-width:0.999213;stroke-linecap:round;stroke-dasharray:0.999213, 1.99843"
       d="m 239.17323,159.44881 h 120.47243 v 28.34646 H 239.17323 Z" />
    <g
       aria-label="VALEUR_MAX"
       id="text4903"
       style="line-height:0%;font-family:Iwona;-inkscape-font-specification:Iwona;text-align:center;letter-spacing:0px;word-spacing:0px;text-anchor:middle">
      <path
         d="m 259.66347,167.43522 h -0.75318 l -3.56607,9.13037 -3.5507,-9.13037 h -1.35265 l 4.19629,10.7597 h 0.83003 z"
         style="font-size:15.371px;line-height:1.25"
         id="path111" />
      <path
         d="m 268.73234,178.19492 -3.90423,-10.7597 h -1.33728 l -3.98109,10.7597 h 0.75318 l 1.39876,-3.7659 h 4.36536 l 1.36802,3.7659 z m -2.9666,-4.47297 h -3.84275 l 1.93674,-5.25688 z"
         style="font-size:15.371px;line-height:1.25"
         id="path113" />
      <path
         d="m 276.57153,178.19492 v -0.70707 h -4.88797 v -10.05263 h -1.26043 v 10.7597 z"
         style="font-size:15.371px;line-height:1.25"
         id="path115" />
      <path
         d="m 286.10153,178.19492 v -0.70707 h -6.42507 v -4.31925 h 4.88797 v -0.70707 h -4.88797 v -4.31925 h 6.05617 v -0.70706 h -7.3166 v 10.7597 z"
         style="font-size:15.371px;line-height:1.25"
         id="path117" />
      <path
         d="m 296.47695,175.1822 v -7.74698 h -0.70706 v 7.50104 c 0,1.59859 -1.41413,2.79753 -3.04346,2.79753 -1.6447,0 -3.05883,-1.19894 -3.05883,-2.79753 v -7.50104 h -1.26042 v 7.74698 c 0,1.95212 1.93674,3.25865 4.04257,3.25865 2.09046,0 4.0272,-1.30653 4.0272,-3.25865 z"
         style="font-size:15.371px;line-height:1.25"
         id="path119" />
      <path
         d="m 307.75927,178.19492 -3.27402,-4.87261 c 1.67543,-0.32279 2.82826,-1.24505 2.82826,-2.9666 0,-2.16732 -1.85989,-3.0742 -4.27314,-3.0742 -0.86077,0 -1.72155,0.0461 -2.56696,0.15371 h -1.22968 v 10.7597 h 1.26043 v -4.99558 c 0.83003,0.15371 1.69081,0.24594 2.53621,0.24594 l 3.21254,4.74964 z m -1.95212,-7.83921 c 0,1.39876 -1.30653,2.3825 -2.76678,2.3825 -0.8454,0 -1.70618,-0.0922 -2.53621,-0.24594 v -4.34999 c 0.8454,-0.1076 1.69081,-0.15371 2.53621,-0.15371 1.46025,0 2.76678,0.98375 2.76678,2.36714 z"
         style="font-size:15.371px;line-height:1.25"
         id="path121" />
      <path
         d="m 315.59847,179.96258 v -0.76855 h -7.6855 v 0.76855 z"
         style="font-size:15.371px;line-height:1.25"
         id="path123" />
      <path
         d="m 328.43322,178.19492 -0.61484,-10.7597 h -1.01449 l -4.31925,9.08426 -4.33462,-9.08426 h -1.01449 l -0.61484,10.7597 h 0.70707 l 0.49187,-8.71536 4.16554,8.71536 h 0.56873 l 4.21166,-8.82296 0.50724,8.82296 z"
         style="font-size:15.371px;line-height:1.25"
         id="path125" />
      <path
         d="m 338.73177,178.19492 -3.90423,-10.7597 h -1.33728 l -3.98109,10.7597 h 0.75318 l 1.39876,-3.7659 h 4.36537 l 1.36801,3.7659 z m -2.9666,-4.47297 h -3.84275 l 1.93674,-5.25688 z"
         style="font-size:15.371px;line-height:1.25"
         id="path127" />
      <path
         d="m 348.38475,178.19492 -3.88887,-5.84098 3.51996,-4.91872 h -0.87614 l -3.05883,4.2885 -2.85901,-4.2885 h -1.50636 l 3.51996,5.30299 -3.88886,5.45671 h 0.87614 l 3.44311,-4.8265 3.21254,4.8265 z"
         style="font-size:15.371px;line-height:1.25"
         id="path129" />
    </g>
  </g>
</svg>
