<?xml version="1.0" encoding="UTF-8" standalone="no"?>
<!-- Created with Inkscape (http://www.inkscape.org/) -->

<svg
   width="158.589mm"
   height="67.979469mm"
   id="svg2"
   version="1.1"
   viewBox="0 0 561.92954 240.87213"
   xmlns="http://www.w3.org/2000/svg"
   xmlns:svg="http://www.w3.org/2000/svg"
   xmlns:rdf="http://www.w3.org/1999/02/22-rdf-syntax-ns#"
   xmlns:cc="http://creativecommons.org/ns#"
   xmlns:dc="http://purl.org/dc/elements/1.1/">
  <defs
     id="defs4">
    <marker
       orient="auto"
       refY="0"
       refX="0"
       id="DotM"
       style="overflow:visible">
      <path
         id="path4169"
         d="m -2.5,-1 c 0,2.76 -2.24,5 -5,5 -2.76,0 -5,-2.24 -5,-5 0,-2.76 2.24,-5 5,-5 2.76,0 5,2.24 5,5 z"
         style="fill-rule:evenodd;stroke:#000000;stroke-width:1.00000003pt;marker-start:none;marker-end:none"
         transform="matrix(0.4,0,0,0.4,2.96,0.4)" />
    </marker>
    <marker
       orient="auto"
       refY="0"
       refX="0"
       id="Arrow1Mend"
       style="overflow:visible">
      <path
         id="path4113"
         d="M 0,0 5,-5 -12.5,0 5,5 Z"
         style="fill-rule:evenodd;stroke:#000000;stroke-width:1.00000003pt;marker-start:none"
         transform="matrix(-0.4,0,0,-0.4,-4,0)" />
    </marker>
  </defs>
  <metadata
     id="metadata7">
    <rdf:RDF>
      <cc:Work
         rdf:about="">
        <dc:format>image/svg+xml</dc:format>
        <dc:type
           rdf:resource="http://purl.org/dc/dcmitype/StillImage" />
        <dc:title />
      </cc:Work>
    </rdf:RDF>
  </metadata>
  <g
     id="layer1"
     transform="translate(-129.00788,-646.98866)">
    <path
       id="rect5807"
       style="fill:#faf0f0;stroke:#000000;stroke-linecap:round;stroke-linejoin:round;stroke-dasharray:2, 4"
       d="m 531.49609,659.05511 h 67.32278 c 5.88898,0 10.62994,4.74096 10.62994,10.62994 v 28.34709 c 0,5.88898 -4.74096,10.62994 -10.62994,10.62994 h -67.32278 c -5.88899,0 -10.62994,-4.74096 -10.62994,-10.62994 v -28.34709 c 0,-5.88898 4.74095,-10.62994 10.62994,-10.62994 z" />
    <path
       id="rect3923"
       style="fill:#faf0f0;stroke:#000000;stroke-linecap:round;stroke-linejoin:round"
       d="m 220.93561,694.48816 h 263.24688 c 4.61881,0 8.33719,3.71839 8.33719,8.33719 v 128.60118 c 0,4.6188 -3.71838,8.33719 -8.33719,8.33719 H 220.93561 c -4.6188,0 -8.33719,-3.71839 -8.33719,-8.33719 V 702.82535 c 0,-4.6188 3.71839,-8.33719 8.33719,-8.33719 z" />
    <g
       transform="translate(240.94489,457.08661)"
       id="g9163">
      <path
         id="rect9165"
         style="fill:#f4d7d7;stroke:#000000;stroke-width:0.999213;stroke-linecap:round"
         d="m 187.79527,248.03148 h 46.063 v 81.49606 h -46.063 z" />
      <g
         aria-label="Q"
         id="text9167"
         style="line-height:0%;font-family:Iwona;-inkscape-font-specification:Iwona;text-align:end;letter-spacing:0px;word-spacing:0px;text-anchor:end">
        <path
           d="m 229.58441,265.02972 c 0,-2.58131 -1.33936,-4.38336 -3.79891,-4.38336 -2.47173,0 -3.81109,1.80205 -3.81109,4.38336 0,2.58131 1.33936,4.38336 3.81109,4.38336 0.0852,0.98626 0.90102,1.74117 1.89945,1.74117 0.62098,0 0.79144,-0.0365 1.36372,-0.29223 v -0.36528 c -0.28005,0.15829 -0.58445,0.24352 -0.9132,0.24352 -1.10802,0 -1.54636,-0.38963 -1.55853,-1.40024 1.94816,-0.34092 3.00747,-2.02121 3.00747,-4.3103 z m -1.19325,0 c 0,2.1308 -0.70621,3.82326 -2.60566,3.82326 -1.91163,0 -2.61784,-1.69246 -2.61784,-3.82326 0,-2.1308 0.70621,-3.82326 2.61784,-3.82326 1.89945,0 2.60566,1.69246 2.60566,3.82326 z"
           style="font-size:12.176px;line-height:1.25"
           id="path233" />
      </g>
      <g
         aria-label="D"
         id="text9171"
         style="line-height:0%;font-family:Iwona;-inkscape-font-specification:Iwona;letter-spacing:0px;word-spacing:0px">
        <path
           d="m 199.71567,265.02972 c 0,-2.60566 -1.4246,-4.38336 -3.93285,-4.38336 -0.75491,0 -1.50983,0.0365 -2.25256,0.12176 h -0.97408 v 8.5232 h 0.97408 c 0.74273,0.0852 1.49765,0.12176 2.25256,0.12176 2.50825,0 3.93285,-1.7777 3.93285,-4.38336 z m -1.19325,0 c 0,1.93598 -0.98626,3.82326 -2.7396,3.82326 -0.74274,0 -1.48547,-0.0365 -2.22821,-0.12176 v -7.403 c 0.74274,-0.0852 1.48547,-0.12176 2.22821,-0.12176 1.75334,0 2.7396,1.88728 2.7396,3.82326 z"
           style="font-size:12.176px;line-height:1.25"
           id="path236" />
      </g>
      <g
         aria-label="CLK"
         id="text9175"
         style="line-height:0%;font-family:Iwona;-inkscape-font-specification:Iwona;letter-spacing:0px;word-spacing:0px">
        <path
           d="m 205.85256,298.24676 v -0.6575 c -0.6575,-0.94973 -1.74117,-1.50982 -2.88571,-1.50982 -2.47173,0 -3.81109,1.80204 -3.81109,4.38336 0,2.58131 1.33936,4.38336 3.81109,4.38336 0.94973,0 1.88728,-0.28005 2.6909,-0.80362 v -0.5601 c -0.80362,0.52357 -1.74117,0.80362 -2.6909,0.80362 -1.91163,0 -2.61784,-1.69246 -2.61784,-3.82326 0,-2.1308 0.70621,-3.82327 2.61784,-3.82327 1.1689,0 2.26474,0.6088 2.88571,1.60723 z"
           style="font-size:12.176px;line-height:1.25"
           id="path239" />
        <path
           d="m 212.30583,304.7244 v -0.5601 h -3.87196 v -7.9631 h -0.99844 v 8.5232 z"
           style="font-size:12.176px;line-height:1.25"
           id="path241" />
        <path
           d="m 220.92642,304.7244 -5.39396,-4.8217 5.10174,-3.7015 h -0.9619 l -4.90693,3.56756 v -3.56756 h -0.99843 v 8.5232 h 0.99843 v -4.1642 l 4.66341,4.1642 z"
           style="font-size:12.176px;line-height:1.25"
           id="path243" />
      </g>
      <path
         style="fill:none;stroke:#000000;stroke-width:1px;stroke-linecap:butt;stroke-linejoin:miter;stroke-opacity:1"
         d="m 187.79528,294.09447 7.08661,7.08661 -7.08661,7.08661"
         id="path9179" />
      <g
         aria-label="R"
         id="text9181"
         style="line-height:0%;font-family:Iwona;-inkscape-font-specification:Iwona;text-align:center;letter-spacing:0px;word-spacing:0px;text-anchor:middle">
        <path
           d="m 212.91491,325.98422 -2.59349,-3.85979 c 1.32719,-0.2557 2.24039,-0.98626 2.24039,-2.34997 0,-1.71681 -1.4733,-2.4352 -3.38493,-2.4352 -0.68186,0 -1.36371,0.0365 -2.03339,0.12176 h -0.97408 v 8.5232 h 0.99843 v -3.9572 c 0.6575,0.12176 1.33936,0.19482 2.00904,0.19482 l 2.54478,3.76238 z m -1.54635,-6.20976 c 0,1.10802 -1.03496,1.88728 -2.19168,1.88728 -0.66968,0 -1.35154,-0.0731 -2.00904,-0.19481 v -3.44581 c 0.66968,-0.0852 1.33936,-0.12176 2.00904,-0.12176 1.15672,0 2.19168,0.77926 2.19168,1.8751 z"
           style="font-size:12.176px;line-height:1.25"
           id="path246" />
      </g>
    </g>
    <path
       id="path4828"
       d="m 634.25197,676.77163 h 10.62992 l 7.08661,7.0866 -7.08661,7.08661 h -10.62992 z"
       style="fill:#afdde9;fill-opacity:1;stroke:#000000;stroke-width:1px;stroke-linecap:butt;stroke-linejoin:miter;stroke-opacity:1" />
    <g
       aria-label="appui"
       id="text4830"
       style="line-height:0%;font-family:Iwona;-inkscape-font-specification:Iwona;letter-spacing:0px;word-spacing:0px">
      <path
         d="m 660.77187,687.40161 v -3.40928 c 0,-1.14454 -0.70621,-2.19168 -1.76552,-2.19168 -0.77926,0 -1.50982,0.26787 -2.16733,0.68186 v 0.37745 c 0.54792,-0.3044 1.15672,-0.49921 1.78988,-0.49921 0.75491,0 1.19324,0.80361 1.19324,1.63158 v 0.21917 c -0.47486,-0.20699 -0.98625,-0.32875 -1.49764,-0.32875 -1.30284,0 -2.26474,0.59662 -2.26474,1.8264 0,1.16889 0.85232,1.81422 2.0821,1.81422 0.62097,0 1.19324,-0.28005 1.68028,-0.66968 v 0.54792 z m -0.94973,-1.05931 c -0.36528,0.36528 -0.81579,0.66968 -1.33936,0.66968 -0.81579,0 -1.35153,-0.49922 -1.35153,-1.30283 0,-0.74274 0.6088,-1.31501 1.35153,-1.31501 0.46269,0 0.92538,0.12176 1.33936,0.32875 z"
         style="font-size:12.176px;line-height:1.25"
         id="path249" />
      <path
         d="m 667.37125,684.66201 c 0,-1.61941 -0.6088,-2.86136 -2.08209,-2.86136 -0.62098,0 -1.19325,0.28005 -1.68029,0.66968 v -0.54792 h -0.94973 v 8.27968 h 0.94973 v -3.00747 c 0.47486,0.20699 0.98626,0.32875 1.49765,0.32875 1.522,0 2.26473,-1.2176 2.26473,-2.86136 z m -1.07148,0 c 0,1.14455 -0.35311,2.34997 -1.35154,2.34997 -0.46269,0 -0.92538,-0.12176 -1.33936,-0.32875 v -3.70151 c 0.36528,-0.36528 0.81579,-0.66968 1.33936,-0.66968 1.10802,0 1.35154,1.07149 1.35154,2.34997 z"
         style="font-size:12.176px;line-height:1.25"
         id="path251" />
      <path
         d="m 673.66622,684.66201 c 0,-1.61941 -0.6088,-2.86136 -2.08209,-2.86136 -0.62098,0 -1.19325,0.28005 -1.68029,0.66968 v -0.54792 h -0.94973 v 8.27968 h 0.94973 v -3.00747 c 0.47486,0.20699 0.98626,0.32875 1.49765,0.32875 1.522,0 2.26473,-1.2176 2.26473,-2.86136 z m -1.07148,0 c 0,1.14455 -0.35311,2.34997 -1.35154,2.34997 -0.46269,0 -0.92538,-0.12176 -1.33936,-0.32875 v -3.70151 c 0.36528,-0.36528 0.81579,-0.66968 1.33936,-0.66968 1.10802,0 1.35154,1.07149 1.35154,2.34997 z"
         style="font-size:12.176px;line-height:1.25"
         id="path253" />
      <path
         d="m 679.6568,687.40161 v -5.4792 h -0.94973 v 4.29813 c -0.41399,0.41398 -0.92538,0.74274 -1.49765,0.74274 -0.57227,0 -1.01061,-0.49922 -1.01061,-1.08367 v -3.9572 h -0.94973 v 3.9572 c 0,0.88885 0.68186,1.64376 1.55853,1.64376 0.73056,0 1.37589,-0.41398 1.89946,-0.92537 v 0.80361 z"
         style="font-size:12.176px;line-height:1.25"
         id="path255" />
      <path
         d="m 683.83314,686.97545 v -0.36528 c -0.23134,0.19482 -0.49921,0.35311 -0.80361,0.35311 -0.45051,0 -0.53575,-0.5601 -0.53575,-1.08367 v -3.9572 h -0.94972 v 3.9572 c 0,0.81579 0.31657,1.64376 1.03496,1.64376 0.46268,0 0.90102,-0.23134 1.25412,-0.54792 z m -1.2176,-6.95249 c 0,-0.32876 -0.26787,-0.59663 -0.59662,-0.59663 -0.32875,0 -0.59662,0.26787 -0.59662,0.59663 0,0.32875 0.26787,0.59662 0.59662,0.59662 0.32875,0 0.59662,-0.26787 0.59662,-0.59662 z"
         style="font-size:12.176px;line-height:1.25"
         id="path257" />
    </g>
    <path
       id="path4864"
       d="m 173.62205,797.24409 h 10.62992 l 7.08661,7.0866 -7.08661,7.08661 h -10.62992 z"
       style="fill:#afdde9;fill-opacity:1;stroke:#000000;stroke-width:1px;stroke-linecap:butt;stroke-linejoin:miter;stroke-opacity:1" />
    <path
       style="fill:#afdde9;fill-opacity:1;stroke:#000000;stroke-width:1px;stroke-linecap:butt;stroke-linejoin:miter;stroke-opacity:1"
       d="m 173.62205,822.04724 h 10.62992 l 7.08661,7.0866 -7.08661,7.08661 h -10.62992 z"
       id="path4866" />
    <g
       aria-label="clk"
       id="text4868"
       style="line-height:0%;font-family:Iwona;-inkscape-font-specification:Iwona;text-align:end;letter-spacing:0px;word-spacing:0px;text-anchor:end">
      <path
         d="m 160.45974,803.66107 v -0.5114 c -0.38963,-0.54792 -1.02278,-0.87667 -1.70464,-0.87667 -1.522,0 -2.54478,1.14455 -2.54478,2.86136 0,1.71682 1.02278,2.86136 2.54478,2.86136 0.63315,0 1.22978,-0.31657 1.58288,-0.84014 v -0.51139 c -0.41398,0.62097 -0.84014,0.84014 -1.58288,0.84014 -0.87667,0 -1.4733,-0.93755 -1.4733,-2.34997 0,-1.41241 0.59663,-2.34997 1.4733,-2.34997 0.75491,0 1.2663,0.26788 1.70464,0.87668 z"
         style="font-size:12.176px;line-height:1.25"
         id="path260" />
      <path
         d="m 164.02729,807.4478 v -0.36528 c -0.23134,0.19482 -0.49921,0.35311 -0.80361,0.35311 -0.45051,0 -0.53575,-0.5601 -0.53575,-1.08367 v -7.0012 h -0.94972 v 7.0012 c 0,0.81579 0.31657,1.64376 1.03496,1.64376 0.46268,0 0.90102,-0.23134 1.25412,-0.54792 z"
         style="font-size:12.176px;line-height:1.25"
         id="path262" />
      <path
         d="m 169.95698,807.87396 -2.82483,-3.25099 2.72743,-2.22821 h -0.75492 l -2.91006,2.3865 v -5.4305 h -0.94973 v 8.5232 h 0.94973 v -3.03182 l 2.63002,3.03182 z"
         style="font-size:12.176px;line-height:1.25"
         id="path264" />
    </g>
    <g
       aria-label="reset"
       id="text4872"
       style="line-height:0%;font-family:Iwona;-inkscape-font-specification:Iwona;text-align:end;letter-spacing:0px;word-spacing:0px;text-anchor:end">
      <path
         d="m 148.70993,827.95284 v -0.75492 c -0.13394,-0.0487 -0.28005,-0.0852 -0.41398,-0.0852 -0.68186,0 -1.22978,0.47487 -1.66812,0.99843 v -0.9132 h -0.94972 v 5.4792 h 0.94972 v -4.0546 c 0.36528,-0.42616 0.82797,-0.79144 1.38807,-0.79144 0.23134,0 0.47486,0.0487 0.69403,0.12176 z"
         style="font-size:12.176px;line-height:1.25"
         id="path267" />
      <path
         d="m 154.33523,830.05928 v -0.12176 c 0,-1.71681 -0.93755,-2.86136 -2.34997,-2.86136 -1.42459,0 -2.36214,1.14455 -2.36214,2.86136 0,1.71682 0.93755,2.86136 2.36214,2.86136 0.6088,0 1.20543,-0.19481 1.70464,-0.54792 v -0.51139 c -0.57227,0.36528 -1.03496,0.49922 -1.70464,0.49922 -1.03496,0 -1.29065,-0.98626 -1.29065,-2.17951 z m -1.07149,-0.51139 h -2.56913 c 0,-0.97408 0.41398,-1.96033 1.29065,-1.96033 0.8645,0 1.27848,0.98625 1.27848,1.96033 z"
         style="font-size:12.176px;line-height:1.25"
         id="path269" />
      <path
         d="m 159.6196,831.1186 c 0,-0.96191 -1.02279,-1.46112 -2.02122,-1.70464 -0.58445,-0.14612 -1.2176,-0.38964 -1.2176,-0.96191 0,-0.52357 0.53575,-0.86449 1.12019,-0.86449 0.64533,0 1.29066,0.19481 1.8264,0.54792 v -0.5114 c -0.53574,-0.3531 -1.18107,-0.54792 -1.8264,-0.54792 -1.05931,0 -2.03339,0.64533 -2.03339,1.63159 0,0.88885 0.98626,1.30283 1.92381,1.53417 0.64533,0.15829 1.31501,0.49922 1.31501,1.1202 0,0.57227 -0.58445,0.92537 -1.20543,0.92537 -0.75491,0 -1.48547,-0.18264 -2.1308,-0.54792 v 0.51139 c 0.64533,0.36528 1.37589,0.54792 2.1308,0.54792 1.09584,0 2.11863,-0.6575 2.11863,-1.68028 z"
         style="font-size:12.176px;line-height:1.25"
         id="path271" />
      <path
         d="m 165.5493,830.05928 v -0.12176 c 0,-1.71681 -0.93755,-2.86136 -2.34997,-2.86136 -1.42459,0 -2.36214,1.14455 -2.36214,2.86136 0,1.71682 0.93755,2.86136 2.36214,2.86136 0.6088,0 1.20542,-0.19481 1.70464,-0.54792 v -0.51139 c -0.57227,0.36528 -1.03496,0.49922 -1.70464,0.49922 -1.03496,0 -1.29066,-0.98626 -1.29066,-2.17951 z m -1.07149,-0.51139 h -2.56914 c 0,-0.97408 0.41399,-1.96033 1.29066,-1.96033 0.8645,0 1.27848,0.98625 1.27848,1.96033 z"
         style="font-size:12.176px;line-height:1.25"
         id="path273" />
      <path
         d="m 169.71347,832.25096 v -0.36528 c -0.19481,0.19482 -0.42616,0.35311 -0.7062,0.35311 -0.43834,0 -0.46269,-0.57227 -0.46269,-1.08367 v -3.4458 h 1.16889 v -0.5114 h -1.16889 v -1.8264 h -0.57227 c 0,0.97408 -0.5601,1.88728 -1.44895,1.88728 v 0.45052 h 1.07149 v 3.4458 c 0,0.80362 0.2557,1.64376 0.94973,1.64376 0.45051,0 0.84014,-0.24352 1.16889,-0.54792 z"
         style="font-size:12.176px;line-height:1.25"
         id="path275" />
    </g>
    <g
       aria-label="DetecteurAppui(Comportementale)"
       id="text4878"
       style="line-height:0%;font-family:Iwona;-inkscape-font-specification:Iwona;text-align:center;letter-spacing:0px;word-spacing:0px;text-anchor:middle">
      <path
         d="m 247.55604,866.70955 c 0,-5.18937 -2.83718,-8.72979 -7.83256,-8.72979 -1.50346,0 -3.00692,0.0727 -4.48614,0.2425 h -1.93995 v 16.97458 h 1.93995 c 1.47922,0.16974 2.98268,0.24249 4.48614,0.24249 4.99538,0 7.83256,-3.54041 7.83256,-8.72978 z m -2.37644,0 c 0,3.85565 -1.9642,7.61431 -5.45612,7.61431 -1.47921,0 -2.95843,-0.0727 -4.43764,-0.24249 v -14.74364 c 1.47921,-0.16974 2.95843,-0.24249 4.43764,-0.24249 3.49192,0 5.45612,3.75865 5.45612,7.61431 z"
         style="font-size:24.2494px;line-height:1.25"
         id="path278" />
      <path
         d="m 259.72922,869.98322 v -0.2425 c 0,-3.41916 -1.86721,-5.69861 -4.68014,-5.69861 -2.83718,0 -4.70438,2.27945 -4.70438,5.69861 0,3.41917 1.8672,5.69861 4.70438,5.69861 1.21247,0 2.40069,-0.38799 3.39492,-1.09122 v -1.01848 c -1.13972,0.72749 -2.0612,0.99423 -3.39492,0.99423 -2.0612,0 -2.57043,-1.9642 -2.57043,-4.34064 z m -2.13395,-1.01848 h -5.11662 c 0,-1.93995 0.82448,-3.90415 2.57043,-3.90415 1.72171,0 2.54619,1.9642 2.54619,3.90415 z"
         style="font-size:24.2494px;line-height:1.25"
         id="path280" />
      <path
         d="m 268.02248,874.34811 v -0.72748 c -0.38799,0.38799 -0.84873,0.70323 -1.40647,0.70323 -0.87298,0 -0.92147,-1.13972 -0.92147,-2.1582 v -6.86258 h 2.32794 v -1.01847 h -2.32794 v -3.63741 h -1.13973 c 0,1.93995 -1.11547,3.75866 -2.88567,3.75866 v 0.89722 h 2.13394 v 6.86258 c 0,1.60046 0.50924,3.27367 1.89146,3.27367 0.89722,0 1.6732,-0.48499 2.32794,-1.09122 z"
         style="font-size:24.2494px;line-height:1.25"
         id="path282" />
      <path
         d="m 279.46816,869.98322 v -0.2425 c 0,-3.41916 -1.8672,-5.69861 -4.68013,-5.69861 -2.83718,0 -4.70439,2.27945 -4.70439,5.69861 0,3.41917 1.86721,5.69861 4.70439,5.69861 1.21247,0 2.40069,-0.38799 3.39491,-1.09122 v -1.01848 c -1.13972,0.72749 -2.0612,0.99423 -3.39491,0.99423 -2.0612,0 -2.57044,-1.9642 -2.57044,-4.34064 z m -2.13395,-1.01848 h -5.11662 c 0,-1.93995 0.82448,-3.90415 2.57044,-3.90415 1.7217,0 2.54618,1.9642 2.54618,3.90415 z"
         style="font-size:24.2494px;line-height:1.25"
         id="path284" />
      <path
         d="m 290.47736,866.80655 v -1.01848 c -0.77599,-1.09122 -2.03695,-1.74596 -3.39492,-1.74596 -3.03118,0 -5.06812,2.27945 -5.06812,5.69861 0,3.41917 2.03694,5.69861 5.06812,5.69861 1.26097,0 2.44919,-0.63048 3.15242,-1.67321 v -1.01847 c -0.82448,1.23672 -1.67321,1.67321 -3.15242,1.67321 -1.74596,0 -2.93418,-1.86721 -2.93418,-4.68014 0,-2.81293 1.18822,-4.68013 2.93418,-4.68013 1.50346,0 2.52194,0.53349 3.39492,1.74596 z"
         style="font-size:24.2494px;line-height:1.25"
         id="path286" />
      <path
         d="m 298.16439,874.34811 v -0.72748 c -0.38799,0.38799 -0.84873,0.70323 -1.40647,0.70323 -0.87298,0 -0.92147,-1.13972 -0.92147,-2.1582 v -6.86258 h 2.32794 v -1.01847 h -2.32794 v -3.63741 h -1.13973 c 0,1.93995 -1.11547,3.75866 -2.88567,3.75866 v 0.89722 h 2.13394 v 6.86258 c 0,1.60046 0.50924,3.27367 1.89146,3.27367 0.89722,0 1.6732,-0.48499 2.32794,-1.09122 z"
         style="font-size:24.2494px;line-height:1.25"
         id="path288" />
      <path
         d="m 309.61007,869.98322 v -0.2425 c 0,-3.41916 -1.8672,-5.69861 -4.68013,-5.69861 -2.83718,0 -4.70439,2.27945 -4.70439,5.69861 0,3.41917 1.86721,5.69861 4.70439,5.69861 1.21247,0 2.40069,-0.38799 3.39491,-1.09122 v -1.01848 c -1.13972,0.72749 -2.0612,0.99423 -3.39491,0.99423 -2.0612,0 -2.57044,-1.9642 -2.57044,-4.34064 z m -2.13395,-1.01848 h -5.11662 c 0,-1.93995 0.82448,-3.90415 2.57044,-3.90415 1.7217,0 2.54618,1.9642 2.54618,3.90415 z"
         style="font-size:24.2494px;line-height:1.25"
         id="path290" />
      <path
         d="m 321.4195,875.19684 v -10.91223 h -1.89146 v 8.56004 c -0.82448,0.82448 -1.84295,1.47921 -2.98267,1.47921 -1.13972,0 -2.0127,-0.99423 -2.0127,-2.1582 v -7.88105 h -1.89146 v 7.88105 c 0,1.77021 1.35797,3.27367 3.10393,3.27367 1.45496,0 2.74018,-0.82448 3.7829,-1.84295 v 1.60046 z"
         style="font-size:24.2494px;line-height:1.25"
         id="path292" />
      <path
         d="m 331.33746,865.78807 v -1.50346 c -0.26675,-0.097 -0.55774,-0.16975 -0.82448,-0.16975 -1.35797,0 -2.44919,0.94573 -3.32217,1.98845 v -1.8187 h -1.89145 v 10.91223 h 1.89145 v -8.07505 c 0.72748,-0.84873 1.64896,-1.57621 2.76443,-1.57621 0.46074,0 0.94573,0.097 1.38222,0.24249 z"
         style="font-size:24.2494px;line-height:1.25"
         id="path294" />
      <path
         d="m 346.61456,875.19684 -6.15935,-16.97458 h -2.1097 l -6.28059,16.97458 h 1.18822 l 2.20669,-5.9411 h 6.88683 l 2.1582,5.9411 z m -4.68014,-7.05658 h -6.06235 l 3.05543,-8.29329 z"
         style="font-size:24.2494px;line-height:1.25"
         id="path296" />
      <path
         d="m 358.06025,869.74072 c 0,-3.22517 -1.21247,-5.69861 -4.14665,-5.69861 -1.23672,0 -2.37644,0.55774 -3.34642,1.33372 v -1.09122 h -1.89145 v 16.48959 h 1.89145 v -5.9896 c 0.94573,0.41224 1.9642,0.65473 2.98268,0.65473 3.03117,0 4.51039,-2.42494 4.51039,-5.69861 z m -2.13395,0 c 0,2.27945 -0.70323,4.68014 -2.69168,4.68014 -0.92148,0 -1.84296,-0.2425 -2.66744,-0.65474 v -7.37181 c 0.72748,-0.72749 1.62471,-1.33372 2.66744,-1.33372 2.20669,0 2.69168,2.13395 2.69168,4.68013 z"
         style="font-size:24.2494px;line-height:1.25"
         id="path298" />
      <path
         d="m 370.59714,869.74072 c 0,-3.22517 -1.21247,-5.69861 -4.14664,-5.69861 -1.23672,0 -2.37645,0.55774 -3.34642,1.33372 v -1.09122 h -1.89146 v 16.48959 h 1.89146 v -5.9896 c 0.94572,0.41224 1.9642,0.65473 2.98267,0.65473 3.03118,0 4.51039,-2.42494 4.51039,-5.69861 z m -2.13394,0 c 0,2.27945 -0.70324,4.68014 -2.69169,4.68014 -0.92148,0 -1.84295,-0.2425 -2.66743,-0.65474 v -7.37181 c 0.72748,-0.72749 1.62471,-1.33372 2.66743,-1.33372 2.2067,0 2.69169,2.13395 2.69169,4.68013 z"
         style="font-size:24.2494px;line-height:1.25"
         id="path300" />
      <path
         d="m 382.5278,875.19684 v -10.91223 h -1.89145 v 8.56004 c -0.82448,0.82448 -1.84295,1.47921 -2.98268,1.47921 -1.13972,0 -2.0127,-0.99423 -2.0127,-2.1582 v -7.88105 h -1.89145 v 7.88105 c 0,1.77021 1.35797,3.27367 3.10392,3.27367 1.45497,0 2.74019,-0.82448 3.78291,-1.84295 v 1.60046 z"
         style="font-size:24.2494px;line-height:1.25"
         id="path302" />
      <path
         d="m 390.84532,874.34811 v -0.72748 c -0.46074,0.38799 -0.99423,0.70323 -1.60046,0.70323 -0.89723,0 -1.06698,-1.11547 -1.06698,-2.1582 v -7.88105 h -1.89145 v 7.88105 c 0,1.62471 0.63049,3.27367 2.0612,3.27367 0.92148,0 1.79446,-0.46074 2.49769,-1.09122 z m -2.42494,-13.84641 c 0,-0.65473 -0.53349,-1.18822 -1.18822,-1.18822 -0.65474,0 -1.18822,0.53349 -1.18822,1.18822 0,0.65474 0.53348,1.18822 1.18822,1.18822 0.65473,0 1.18822,-0.53348 1.18822,-1.18822 z"
         style="font-size:24.2494px;line-height:1.25"
         id="path304" />
      <path
         d="m 397.58662,880.7742 c -1.77021,-3.9284 -2.42494,-6.95958 -2.42494,-11.27597 0,-4.31639 0.65473,-7.34757 2.42494,-11.27597 h -1.01847 c -2.40069,3.73441 -3.29792,6.83833 -3.29792,11.27597 0,4.43764 0.89723,7.54156 3.29792,11.27597 z"
         style="font-size:24.2494px;line-height:1.25"
         id="path306" />
      <path
         d="m 413.59119,862.29616 v -1.30947 c -1.30947,-1.89145 -3.46766,-3.00693 -5.74711,-3.00693 -4.92263,0 -7.59006,3.58892 -7.59006,8.72979 0,5.14087 2.66743,8.72978 7.59006,8.72978 1.89146,0 3.75866,-0.55773 5.35912,-1.60046 v -1.11547 c -1.60046,1.04272 -3.46766,1.60046 -5.35912,1.60046 -3.80715,0 -5.21362,-3.37067 -5.21362,-7.61431 0,-4.24365 1.40647,-7.61431 5.21362,-7.61431 2.32794,0 4.51039,1.21247 5.74711,3.20092 z"
         style="font-size:24.2494px;line-height:1.25"
         id="path308" />
      <path
         d="m 424.74587,869.74072 c 0,-3.71015 -1.64896,-5.69861 -4.68014,-5.69861 -3.05542,0 -4.70438,1.98846 -4.70438,5.69861 0,3.71016 1.64896,5.69861 4.70438,5.69861 3.03118,0 4.68014,-1.98845 4.68014,-5.69861 z m -2.13395,0 c 0,3.03118 -0.89723,4.68014 -2.54619,4.68014 -1.67321,0 -2.57043,-1.64896 -2.57043,-4.68014 0,-3.03117 0.89722,-4.68013 2.57043,-4.68013 1.64896,0 2.54619,1.64896 2.54619,4.68013 z"
         style="font-size:24.2494px;line-height:1.25"
         id="path310" />
      <path
         d="m 441.25971,875.19684 v -7.88106 c 0,-1.69745 -0.99422,-3.27367 -2.57043,-3.27367 -1.35797,0 -2.61894,0.70324 -3.34642,1.84296 -0.38799,-1.06697 -1.21247,-1.84296 -2.32794,-1.84296 -1.26097,0 -2.27945,0.87298 -3.10393,1.84296 v -1.60046 h -1.89145 v 10.91223 h 1.89145 v -8.58429 c 0.58199,-0.75173 1.30947,-1.45496 2.2552,-1.45496 0.99422,0 1.52771,1.06697 1.52771,2.15819 v 7.88106 h 1.89145 v -7.88106 c 0,-0.29099 -0.0242,-0.55773 -0.0727,-0.84873 0.58198,-0.75173 1.38221,-1.30946 2.32794,-1.30946 0.99422,0 1.52771,1.06697 1.52771,2.15819 v 7.88106 z"
         style="font-size:24.2494px;line-height:1.25"
         id="path312" />
      <path
         d="m 454.28159,869.74072 c 0,-3.22517 -1.21247,-5.69861 -4.14665,-5.69861 -1.23672,0 -2.37644,0.55774 -3.34641,1.33372 v -1.09122 h -1.89146 v 16.48959 h 1.89146 v -5.9896 c 0.94572,0.41224 1.9642,0.65473 2.98267,0.65473 3.03118,0 4.51039,-2.42494 4.51039,-5.69861 z m -2.13395,0 c 0,2.27945 -0.70323,4.68014 -2.69168,4.68014 -0.92148,0 -1.84295,-0.2425 -2.66743,-0.65474 v -7.37181 c 0.72748,-0.72749 1.62471,-1.33372 2.66743,-1.33372 2.2067,0 2.69168,2.13395 2.69168,4.68013 z"
         style="font-size:24.2494px;line-height:1.25"
         id="path314" />
      <path
         d="m 466.3335,869.74072 c 0,-3.71015 -1.64896,-5.69861 -4.68014,-5.69861 -3.05542,0 -4.70438,1.98846 -4.70438,5.69861 0,3.71016 1.64896,5.69861 4.70438,5.69861 3.03118,0 4.68014,-1.98845 4.68014,-5.69861 z m -2.13395,0 c 0,3.03118 -0.89723,4.68014 -2.54619,4.68014 -1.6732,0 -2.57043,-1.64896 -2.57043,-4.68014 0,-3.03117 0.89723,-4.68013 2.57043,-4.68013 1.64896,0 2.54619,1.64896 2.54619,4.68013 z"
         style="font-size:24.2494px;line-height:1.25"
         id="path316" />
      <path
         d="m 475.64527,865.78807 v -1.50346 c -0.26674,-0.097 -0.55773,-0.16975 -0.82448,-0.16975 -1.35796,0 -2.44919,0.94573 -3.32216,1.98845 v -1.8187 h -1.89146 v 10.91223 h 1.89146 v -8.07505 c 0.72748,-0.84873 1.64895,-1.57621 2.76443,-1.57621 0.46074,0 0.94572,0.097 1.38221,0.24249 z"
         style="font-size:24.2494px;line-height:1.25"
         id="path318" />
      <path
         d="m 483.35652,874.34811 v -0.72748 c -0.38799,0.38799 -0.84873,0.70323 -1.40647,0.70323 -0.87297,0 -0.92147,-1.13972 -0.92147,-2.1582 v -6.86258 h 2.32794 v -1.01847 h -2.32794 v -3.63741 h -1.13972 c 0,1.93995 -1.11548,3.75866 -2.88568,3.75866 v 0.89722 h 2.13394 v 6.86258 c 0,1.60046 0.50924,3.27367 1.89146,3.27367 0.89722,0 1.67321,-0.48499 2.32794,-1.09122 z"
         style="font-size:24.2494px;line-height:1.25"
         id="path320" />
      <path
         d="m 494.8022,869.98322 v -0.2425 c 0,-3.41916 -1.8672,-5.69861 -4.68013,-5.69861 -2.83718,0 -4.70438,2.27945 -4.70438,5.69861 0,3.41917 1.8672,5.69861 4.70438,5.69861 1.21247,0 2.40069,-0.38799 3.39491,-1.09122 v -1.01848 c -1.13972,0.72749 -2.06119,0.99423 -3.39491,0.99423 -2.0612,0 -2.57044,-1.9642 -2.57044,-4.34064 z m -2.13394,-1.01848 h -5.11663 c 0,-1.93995 0.82448,-3.90415 2.57044,-3.90415 1.72171,0 2.54619,1.9642 2.54619,3.90415 z"
         style="font-size:24.2494px;line-height:1.25"
         id="path322" />
      <path
         d="m 511.19476,875.19684 v -7.88106 c 0,-1.69745 -0.99423,-3.27367 -2.57044,-3.27367 -1.35797,0 -2.61894,0.70324 -3.34642,1.84296 -0.38799,-1.06697 -1.21247,-1.84296 -2.32794,-1.84296 -1.26097,0 -2.27944,0.87298 -3.10392,1.84296 v -1.60046 h -1.89146 v 10.91223 h 1.89146 v -8.58429 c 0.58198,-0.75173 1.30946,-1.45496 2.25519,-1.45496 0.99423,0 1.52771,1.06697 1.52771,2.15819 v 7.88106 h 1.89146 v -7.88106 c 0,-0.29099 -0.0242,-0.55773 -0.0727,-0.84873 0.58198,-0.75173 1.38221,-1.30946 2.32794,-1.30946 0.99423,0 1.52771,1.06697 1.52771,2.15819 v 7.88106 z"
         style="font-size:24.2494px;line-height:1.25"
         id="path324" />
      <path
         d="m 523.73165,869.98322 v -0.2425 c 0,-3.41916 -1.86721,-5.69861 -4.68014,-5.69861 -2.83718,0 -4.70438,2.27945 -4.70438,5.69861 0,3.41917 1.8672,5.69861 4.70438,5.69861 1.21247,0 2.40069,-0.38799 3.39492,-1.09122 v -1.01848 c -1.13972,0.72749 -2.0612,0.99423 -3.39492,0.99423 -2.0612,0 -2.57043,-1.9642 -2.57043,-4.34064 z m -2.13395,-1.01848 h -5.11662 c 0,-1.93995 0.82448,-3.90415 2.57043,-3.90415 1.72171,0 2.54619,1.9642 2.54619,3.90415 z"
         style="font-size:24.2494px;line-height:1.25"
         id="path326" />
      <path
         d="m 535.66234,875.19684 v -7.88106 c 0,-1.7702 -1.35797,-3.27367 -3.10392,-3.27367 -1.45497,0 -2.74018,0.82448 -3.78291,1.84296 v -1.60046 h -1.89145 v 10.91223 h 1.89145 v -8.56004 c 0.82448,-0.82448 1.84296,-1.47921 2.98268,-1.47921 1.13972,0 2.0127,0.99422 2.0127,2.15819 v 7.88106 z"
         style="font-size:24.2494px;line-height:1.25"
         id="path328" />
      <path
         d="m 544.56183,874.34811 v -0.72748 c -0.38799,0.38799 -0.84873,0.70323 -1.40647,0.70323 -0.87298,0 -0.92148,-1.13972 -0.92148,-2.1582 v -6.86258 h 2.32795 v -1.01847 h -2.32795 v -3.63741 h -1.13972 c 0,1.93995 -1.11547,3.75866 -2.88568,3.75866 v 0.89722 h 2.13395 v 6.86258 c 0,1.60046 0.50924,3.27367 1.89145,3.27367 0.89723,0 1.67321,-0.48499 2.32795,-1.09122 z"
         style="font-size:24.2494px;line-height:1.25"
         id="path330" />
      <path
         d="m 555.765,875.19684 v -6.78983 c 0,-2.27945 -1.40646,-4.3649 -3.51616,-4.3649 -1.55196,0 -3.00693,0.53349 -4.3164,1.35797 v 0.75173 c 1.09123,-0.60623 2.3037,-0.99422 3.56467,-0.99422 1.50346,0 2.37644,1.60046 2.37644,3.24942 v 0.43649 c -0.94573,-0.41224 -1.9642,-0.65474 -2.98268,-0.65474 -2.59468,0 -4.51039,1.18822 -4.51039,3.63741 0,2.32794 1.69746,3.61316 4.14665,3.61316 1.23672,0 2.37644,-0.55773 3.34642,-1.33371 v 1.09122 z m -1.89145,-2.1097 c -0.72748,0.72748 -1.62471,1.33372 -2.66744,1.33372 -1.62471,0 -2.69168,-0.99423 -2.69168,-2.59469 0,-1.47921 1.21247,-2.61893 2.69168,-2.61893 0.92148,0 1.84296,0.24249 2.66744,0.65473 z"
         style="font-size:24.2494px;line-height:1.25"
         id="path332" />
      <path
         d="m 564.20378,874.34811 v -0.72748 c -0.46074,0.38799 -0.99423,0.70323 -1.60046,0.70323 -0.89723,0 -1.06698,-1.11547 -1.06698,-2.1582 v -13.9434 h -1.89145 v 13.9434 c 0,1.62471 0.63049,3.27367 2.0612,3.27367 0.92148,0 1.79446,-0.46074 2.49769,-1.09122 z"
         style="font-size:24.2494px;line-height:1.25"
         id="path334" />
      <path
         d="m 575.40697,869.98322 v -0.2425 c 0,-3.41916 -1.8672,-5.69861 -4.68013,-5.69861 -2.83718,0 -4.70439,2.27945 -4.70439,5.69861 0,3.41917 1.86721,5.69861 4.70439,5.69861 1.21247,0 2.40069,-0.38799 3.39491,-1.09122 v -1.01848 c -1.13972,0.72749 -2.0612,0.99423 -3.39491,0.99423 -2.0612,0 -2.57044,-1.9642 -2.57044,-4.34064 z m -2.13395,-1.01848 h -5.11662 c 0,-1.93995 0.82448,-3.90415 2.57044,-3.90415 1.7217,0 2.54618,1.9642 2.54618,3.90415 z"
         style="font-size:24.2494px;line-height:1.25"
         id="path336" />
      <path
         d="m 582.14826,869.49823 c 0,-4.43764 -0.89723,-7.54156 -3.29792,-11.27597 h -1.01847 c 1.77021,3.9284 2.42494,6.95958 2.42494,11.27597 0,4.31639 -0.65473,7.34757 -2.42494,11.27597 h 1.01847 c 2.40069,-3.73441 3.29792,-6.83833 3.29792,-11.27597 z"
         style="font-size:24.2494px;line-height:1.25"
         id="path338" />
    </g>
    <path
       style="fill:#afdde9;fill-opacity:1;stroke:#000000;stroke-width:1px;stroke-linecap:butt;stroke-linejoin:miter;stroke-opacity:1"
       d="m 357.87402,666.14174 h 14.17323 v 14.1732 h -14.17323 z"
       id="path5521" />
    <g
       aria-label="bouton_reg(0)"
       id="text5525"
       style="line-height:0%;font-family:Iwona;-inkscape-font-specification:Iwona;text-align:center;letter-spacing:0px;word-spacing:0px;text-anchor:middle">
      <path
         d="m 338.41713,659.85885 c 0,-1.61941 -0.6088,-2.86136 -2.0821,-2.86136 -0.62098,0 -1.19325,0.28005 -1.68029,0.66968 v -3.59192 h -0.94973 v 8.5232 h 0.94973 v -0.28005 c 0.46269,0.24352 0.97408,0.40181 1.49765,0.40181 1.522,0 2.26474,-1.2176 2.26474,-2.86136 z m -1.07149,0 c 0,1.14454 -0.35311,2.34997 -1.35154,2.34997 -0.47486,0 -0.93755,-0.15829 -1.33936,-0.40181 v -3.62845 c 0.36528,-0.36528 0.81579,-0.66968 1.33936,-0.66968 1.10802,0 1.35154,1.07149 1.35154,2.34997 z"
         style="font-size:12.176px;line-height:1.25"
         id="path341" />
      <path
         d="m 344.46859,659.85885 c 0,-1.86293 -0.82797,-2.86136 -2.34997,-2.86136 -1.53417,0 -2.36214,0.99843 -2.36214,2.86136 0,1.86293 0.82797,2.86136 2.36214,2.86136 1.522,0 2.34997,-0.99843 2.34997,-2.86136 z m -1.07149,0 c 0,1.522 -0.45051,2.34997 -1.27848,2.34997 -0.84014,0 -1.29065,-0.82797 -1.29065,-2.34997 0,-1.522 0.45051,-2.34997 1.29065,-2.34997 0.82797,0 1.27848,0.82797 1.27848,2.34997 z"
         style="font-size:12.176px;line-height:1.25"
         id="path343" />
      <path
         d="m 350.45918,662.59845 v -5.4792 h -0.94973 v 4.29813 c -0.41398,0.41398 -0.92537,0.74273 -1.49765,0.74273 -0.57227,0 -1.0106,-0.49921 -1.0106,-1.08366 v -3.9572 h -0.94973 v 3.9572 c 0,0.88885 0.68185,1.64376 1.55853,1.64376 0.73056,0 1.37588,-0.41398 1.89945,-0.92538 v 0.80362 z"
         style="font-size:12.176px;line-height:1.25"
         id="path345" />
      <path
         d="m 354.98863,662.17229 v -0.36528 c -0.19481,0.19482 -0.42616,0.3531 -0.70621,0.3531 -0.43833,0 -0.46268,-0.57227 -0.46268,-1.08366 v -3.44581 h 1.16889 v -0.51139 h -1.16889 v -1.8264 h -0.57228 c 0,0.97408 -0.56009,1.88728 -1.44894,1.88728 v 0.45051 h 1.07149 v 3.44581 c 0,0.80362 0.25569,1.64376 0.94973,1.64376 0.45051,0 0.84014,-0.24352 1.16889,-0.54792 z"
         style="font-size:12.176px;line-height:1.25"
         id="path347" />
      <path
         d="m 360.73569,659.85885 c 0,-1.86293 -0.82797,-2.86136 -2.34997,-2.86136 -1.53418,0 -2.36215,0.99843 -2.36215,2.86136 0,1.86293 0.82797,2.86136 2.36215,2.86136 1.522,0 2.34997,-0.99843 2.34997,-2.86136 z m -1.07149,0 c 0,1.522 -0.45051,2.34997 -1.27848,2.34997 -0.84015,0 -1.29066,-0.82797 -1.29066,-2.34997 0,-1.522 0.45051,-2.34997 1.29066,-2.34997 0.82797,0 1.27848,0.82797 1.27848,2.34997 z"
         style="font-size:12.176px;line-height:1.25"
         id="path349" />
      <path
         d="m 366.78715,662.59845 v -3.9572 c 0,-0.88885 -0.68185,-1.64376 -1.55852,-1.64376 -0.73056,0 -1.37589,0.41398 -1.89946,0.92538 v -0.80362 h -0.94973 v 5.4792 h 0.94973 v -4.29813 c 0.41398,-0.41398 0.92538,-0.74273 1.49765,-0.74273 0.57227,0 1.01061,0.49921 1.01061,1.08366 v 3.9572 z"
         style="font-size:12.176px;line-height:1.25"
         id="path351" />
      <path
         d="m 373.78833,663.99869 v -0.6088 h -6.088 v 0.6088 z"
         style="font-size:12.176px;line-height:1.25"
         id="path353" />
      <path
         d="m 377.79421,657.87416 v -0.75491 c -0.13393,-0.0487 -0.28005,-0.0852 -0.41398,-0.0852 -0.68186,0 -1.22978,0.47486 -1.66811,0.99843 v -0.9132 h -0.94973 v 5.4792 h 0.94973 v -4.05461 c 0.36528,-0.42616 0.82796,-0.79144 1.38806,-0.79144 0.23134,0 0.47486,0.0487 0.69403,0.12176 z"
         style="font-size:12.176px;line-height:1.25"
         id="path355" />
      <path
         d="m 383.41951,659.98061 v -0.12176 c 0,-1.71682 -0.93755,-2.86136 -2.34997,-2.86136 -1.42459,0 -2.36214,1.14454 -2.36214,2.86136 0,1.71682 0.93755,2.86136 2.36214,2.86136 0.6088,0 1.20543,-0.19482 1.70464,-0.54792 v -0.51139 c -0.57227,0.36528 -1.03496,0.49921 -1.70464,0.49921 -1.03496,0 -1.29065,-0.98625 -1.29065,-2.1795 z m -1.07149,-0.51139 h -2.56913 c 0,-0.97408 0.41398,-1.96034 1.29065,-1.96034 0.8645,0 1.27848,0.98626 1.27848,1.96034 z"
         style="font-size:12.176px;line-height:1.25"
         id="path357" />
      <path
         d="m 389.41009,663.32901 v -6.20976 h -0.94973 v 0.20699 c -0.47486,-0.20699 -0.98625,-0.32875 -1.49765,-0.32875 -1.522,0 -2.26473,1.2176 -2.26473,2.86136 0,1.61941 0.6088,2.86136 2.08209,2.86136 0.62098,0 1.19325,-0.28005 1.68029,-0.66968 v 1.27848 c 0,0.84014 -0.46269,1.63158 -1.2176,1.63158 -0.62097,0 -1.24195,-0.12176 -1.8264,-0.32875 v 0.37746 c 0.68186,0.31657 1.43677,0.51139 2.19168,0.51139 1.07149,0 1.80205,-1.04714 1.80205,-2.19168 z m -0.94973,-1.78987 c -0.36528,0.36528 -0.81579,0.66968 -1.33936,0.66968 -1.10801,0 -1.35153,-1.07149 -1.35153,-2.34997 0,-1.14454 0.3531,-2.34997 1.35153,-2.34997 0.46269,0 0.92538,0.12176 1.33936,0.32875 z"
         style="font-size:12.176px;line-height:1.25"
         id="path359" />
      <path
         d="m 393.52557,665.39893 c -0.88885,-1.97251 -1.2176,-3.49451 -1.2176,-5.66184 0,-2.16733 0.32875,-3.68933 1.2176,-5.66184 h -0.51139 c -1.20542,1.8751 -1.65594,3.43363 -1.65594,5.66184 0,2.22821 0.45052,3.78674 1.65594,5.66184 z"
         style="font-size:12.176px;line-height:1.25"
         id="path361" />
      <path
         d="m 400.00319,658.39773 c 0,-2.88571 -0.88885,-4.32248 -2.66655,-4.32248 -1.77769,0 -2.66654,1.43677 -2.66654,4.32248 0,2.88571 0.88885,4.32248 2.66654,4.32248 1.7777,0 2.66655,-1.43677 2.66655,-4.32248 z m -1.07149,0 c 0,2.54478 -0.53575,3.81109 -1.59506,3.81109 -1.05931,0 -1.59505,-1.26631 -1.59505,-3.81109 0,-2.54478 0.53574,-3.81109 1.59505,-3.81109 1.05931,0 1.59506,1.26631 1.59506,3.81109 z"
         style="font-size:12.176px;line-height:1.25"
         id="path363" />
      <path
         d="m 403.30288,659.73709 c 0,-2.22821 -0.45052,-3.78674 -1.65594,-5.66184 h -0.51139 c 0.88885,1.97251 1.2176,3.49451 1.2176,5.66184 0,2.16733 -0.32875,3.68933 -1.2176,5.66184 h 0.51139 c 1.20542,-1.8751 1.65594,-3.43363 1.65594,-5.66184 z"
         style="font-size:12.176px;line-height:1.25"
         id="path365" />
    </g>
    <path
       style="fill:none;stroke:#000000;stroke-width:1px;stroke-linecap:butt;stroke-linejoin:miter;stroke-opacity:1;marker-end:url(#Arrow1Mend)"
       d="m 301.18109,722.8346 31.88978,3e-5 v -49.6063 h 24.80315"
       id="path5529" />
    <g
       id="g6868"
       transform="translate(67.322839,457.08661)">
      <path
         id="rect6852"
         style="fill:#f4d7d7;stroke:#000000;stroke-width:0.999213;stroke-linecap:round"
         d="m 187.79527,248.03148 h 46.063 v 81.49606 h -46.063 z" />
      <g
         aria-label="Q"
         id="text6854"
         style="line-height:0%;font-family:Iwona;-inkscape-font-specification:Iwona;text-align:end;letter-spacing:0px;word-spacing:0px;text-anchor:end">
        <path
           d="m 229.58441,265.02972 c 0,-2.58131 -1.33936,-4.38336 -3.79891,-4.38336 -2.47173,0 -3.81109,1.80205 -3.81109,4.38336 0,2.58131 1.33936,4.38336 3.81109,4.38336 0.0852,0.98626 0.90102,1.74117 1.89945,1.74117 0.62098,0 0.79144,-0.0365 1.36372,-0.29223 v -0.36528 c -0.28005,0.15829 -0.58445,0.24352 -0.9132,0.24352 -1.10802,0 -1.54636,-0.38963 -1.55853,-1.40024 1.94816,-0.34092 3.00747,-2.02121 3.00747,-4.3103 z m -1.19325,0 c 0,2.1308 -0.70621,3.82326 -2.60566,3.82326 -1.91163,0 -2.61784,-1.69246 -2.61784,-3.82326 0,-2.1308 0.70621,-3.82326 2.61784,-3.82326 1.89945,0 2.60566,1.69246 2.60566,3.82326 z"
           style="font-size:12.176px;line-height:1.25"
           id="path369" />
      </g>
      <g
         aria-label="D"
         id="text6858"
         style="line-height:0%;font-family:Iwona;-inkscape-font-specification:Iwona;letter-spacing:0px;word-spacing:0px">
        <path
           d="m 199.71567,265.02972 c 0,-2.60566 -1.4246,-4.38336 -3.93285,-4.38336 -0.75491,0 -1.50983,0.0365 -2.25256,0.12176 h -0.97408 v 8.5232 h 0.97408 c 0.74273,0.0852 1.49765,0.12176 2.25256,0.12176 2.50825,0 3.93285,-1.7777 3.93285,-4.38336 z m -1.19325,0 c 0,1.93598 -0.98626,3.82326 -2.7396,3.82326 -0.74274,0 -1.48547,-0.0365 -2.22821,-0.12176 v -7.403 c 0.74274,-0.0852 1.48547,-0.12176 2.22821,-0.12176 1.75334,0 2.7396,1.88728 2.7396,3.82326 z"
           style="font-size:12.176px;line-height:1.25"
           id="path372" />
      </g>
      <g
         aria-label="CLK"
         id="text6862"
         style="line-height:0%;font-family:Iwona;-inkscape-font-specification:Iwona;letter-spacing:0px;word-spacing:0px">
        <path
           d="m 205.85256,298.24676 v -0.6575 c -0.6575,-0.94973 -1.74117,-1.50982 -2.88571,-1.50982 -2.47173,0 -3.81109,1.80204 -3.81109,4.38336 0,2.58131 1.33936,4.38336 3.81109,4.38336 0.94973,0 1.88728,-0.28005 2.6909,-0.80362 v -0.5601 c -0.80362,0.52357 -1.74117,0.80362 -2.6909,0.80362 -1.91163,0 -2.61784,-1.69246 -2.61784,-3.82326 0,-2.1308 0.70621,-3.82327 2.61784,-3.82327 1.1689,0 2.26474,0.6088 2.88571,1.60723 z"
           style="font-size:12.176px;line-height:1.25"
           id="path375" />
        <path
           d="m 212.30583,304.7244 v -0.5601 h -3.87196 v -7.9631 h -0.99844 v 8.5232 z"
           style="font-size:12.176px;line-height:1.25"
           id="path377" />
        <path
           d="m 220.92642,304.7244 -5.39396,-4.8217 5.10174,-3.7015 h -0.9619 l -4.90693,3.56756 v -3.56756 h -0.99843 v 8.5232 h 0.99843 v -4.1642 l 4.66341,4.1642 z"
           style="font-size:12.176px;line-height:1.25"
           id="path379" />
      </g>
      <path
         id="path6866"
         d="m 187.79528,294.09447 7.08661,7.08661 -7.08661,7.08661"
         style="fill:none;stroke:#000000;stroke-width:1px;stroke-linecap:butt;stroke-linejoin:miter;stroke-opacity:1" />
      <g
         aria-label="R"
         id="text6878"
         style="line-height:0%;font-family:Iwona;-inkscape-font-specification:Iwona;text-align:center;letter-spacing:0px;word-spacing:0px;text-anchor:middle">
        <path
           d="m 212.91491,325.98422 -2.59349,-3.85979 c 1.32719,-0.2557 2.24039,-0.98626 2.24039,-2.34997 0,-1.71681 -1.4733,-2.4352 -3.38493,-2.4352 -0.68186,0 -1.36371,0.0365 -2.03339,0.12176 h -0.97408 v 8.5232 h 0.99843 v -3.9572 c 0.6575,0.12176 1.33936,0.19482 2.00904,0.19482 l 2.54478,3.76238 z m -1.54635,-6.20976 c 0,1.10802 -1.03496,1.88728 -2.19168,1.88728 -0.66968,0 -1.35154,-0.0731 -2.00904,-0.19481 v -3.44581 c 0.66968,-0.0852 1.33936,-0.12176 2.00904,-0.12176 1.15672,0 2.19168,0.77926 2.19168,1.8751 z"
           style="font-size:12.176px;line-height:1.25"
           id="path382" />
      </g>
    </g>
    <path
       id="path6882"
       d="M 219.68504,804.33069 H 407.48031 V 758.2677 h 21.25985"
       style="fill:none;stroke:#000000;stroke-width:1px;stroke-linecap:butt;stroke-linejoin:miter;stroke-opacity:1;marker-end:url(#Arrow1Mend)" />
    <path
       style="fill:none;stroke:#000000;stroke-width:1px;stroke-linecap:butt;stroke-linejoin:miter;stroke-opacity:1;marker-end:url(#Arrow1Mend)"
       d="M 191.33858,829.13384 H 450 v -42.51969"
       id="path6884" />
    <path
       id="path7258"
       d="M 276.37795,829.13384 V 786.61415"
       style="fill:none;stroke:#000000;stroke-width:1px;stroke-linecap:butt;stroke-linejoin:miter;stroke-opacity:1;marker-start:url(#DotM);marker-end:url(#Arrow1Mend)" />
    <path
       id="path7262"
       d="M 230.31496,804.33069 V 758.2677 h 24.80315"
       style="fill:none;stroke:#000000;stroke-width:1px;stroke-linecap:butt;stroke-linejoin:miter;stroke-opacity:1;marker-start:url(#DotM);marker-end:url(#Arrow1Mend)" />
    <g
       id="g3782"
       transform="translate(571.52536,706.89973)">
      <path
         id="path3488"
         d="m -199.47812,-33.671403 184.251963,1.4e-5"
         style="fill:none;stroke:#000000;stroke-width:1px;stroke-linecap:butt;stroke-linejoin:miter;stroke-opacity:1;marker-start:none" />
      <path
         id="path3512"
         d="m -15.226156,-40.758003 v 35.4330703 h 3.543306 c 3.5433077,0 24.266925,1.3e-6 24.266925,-17.7165333 0,-17.716536 -20.7236173,-17.716537 -24.266925,-17.716537 0,0 -3.543306,0 -3.543306,0 z"
         style="fill:#f4d7d7;fill-opacity:1;fill-rule:evenodd;stroke:#000000;stroke-width:1px;stroke-linecap:butt;stroke-linejoin:miter;stroke-opacity:1" />
      <path
         style="fill:none;stroke:#000000;stroke-width:1px;stroke-linecap:butt;stroke-linejoin:miter;stroke-opacity:1;marker-start:none"
         d="m -32.942683,8.8482819 -10e-6,-21.2598279 13.637001,-3e-6"
         id="path3780" />
      <path
         id="path9531"
         style="fill:#f4d7d7;stroke:#000000;stroke-width:0.999213;stroke-linecap:round"
         transform="translate(-571.52537,-713.98633)"
         d="m 556.29923,701.57477 a 3.5433071,3.5433071 0 0 1 -3.54331,3.54331 3.5433071,3.5433071 0 0 1 -3.54331,-3.54331 3.5433071,3.5433071 0 0 1 3.54331,-3.54331 3.5433071,3.5433071 0 0 1 3.54331,3.54331 z" />
    </g>
    <path
       id="path9185"
       d="m 531.49605,715.74804 h 14.17323 v 14.1732 h -14.17323 z"
       style="fill:#afdde9;fill-opacity:1;stroke:#000000;stroke-width:1px;stroke-linecap:butt;stroke-linejoin:miter;stroke-opacity:1" />
    <g
       aria-label="bouton_reg(1)"
       id="text9187"
       style="line-height:0%;font-family:Iwona;-inkscape-font-specification:Iwona;text-align:center;letter-spacing:0px;word-spacing:0px;text-anchor:middle">
      <path
         d="m 508.49577,737.81155 c 0,-1.61941 -0.6088,-2.86136 -2.0821,-2.86136 -0.62097,0 -1.19324,0.28005 -1.68028,0.66968 v -3.59192 h -0.94973 v 8.5232 h 0.94973 v -0.28005 c 0.46268,0.24352 0.97408,0.40181 1.49764,0.40181 1.522,0 2.26474,-1.2176 2.26474,-2.86136 z m -1.07149,0 c 0,1.14454 -0.3531,2.34997 -1.35153,2.34997 -0.47487,0 -0.93756,-0.15829 -1.33936,-0.40181 v -3.62845 c 0.36528,-0.36528 0.81579,-0.66968 1.33936,-0.66968 1.10801,0 1.35153,1.07149 1.35153,2.34997 z"
         style="font-size:12.176px;line-height:1.25"
         id="path386" />
      <path
         d="m 514.54723,737.81155 c 0,-1.86293 -0.82796,-2.86136 -2.34996,-2.86136 -1.53418,0 -2.36215,0.99843 -2.36215,2.86136 0,1.86293 0.82797,2.86136 2.36215,2.86136 1.522,0 2.34996,-0.99843 2.34996,-2.86136 z m -1.07148,0 c 0,1.522 -0.45052,2.34997 -1.27848,2.34997 -0.84015,0 -1.29066,-0.82797 -1.29066,-2.34997 0,-1.522 0.45051,-2.34997 1.29066,-2.34997 0.82796,0 1.27848,0.82797 1.27848,2.34997 z"
         style="font-size:12.176px;line-height:1.25"
         id="path388" />
      <path
         d="m 520.53782,740.55115 v -5.4792 h -0.94972 v 4.29813 c -0.41399,0.41398 -0.92538,0.74273 -1.49765,0.74273 -0.57227,0 -1.01061,-0.49921 -1.01061,-1.08366 v -3.9572 h -0.94973 v 3.9572 c 0,0.88885 0.68186,1.64376 1.55853,1.64376 0.73056,0 1.37589,-0.41399 1.89946,-0.92538 v 0.80362 z"
         style="font-size:12.176px;line-height:1.25"
         id="path390" />
      <path
         d="m 525.06727,740.12499 v -0.36528 c -0.19481,0.19481 -0.42616,0.3531 -0.7062,0.3531 -0.43834,0 -0.46269,-0.57227 -0.46269,-1.08366 v -3.44581 h 1.16889 v -0.51139 h -1.16889 v -1.8264 h -0.57227 c 0,0.97408 -0.5601,1.88728 -1.44895,1.88728 v 0.45051 h 1.07149 v 3.44581 c 0,0.80361 0.2557,1.64376 0.94973,1.64376 0.45051,0 0.84014,-0.24352 1.16889,-0.54792 z"
         style="font-size:12.176px;line-height:1.25"
         id="path392" />
      <path
         d="m 530.81433,737.81155 c 0,-1.86293 -0.82797,-2.86136 -2.34997,-2.86136 -1.53417,0 -2.36214,0.99843 -2.36214,2.86136 0,1.86293 0.82797,2.86136 2.36214,2.86136 1.522,0 2.34997,-0.99843 2.34997,-2.86136 z m -1.07149,0 c 0,1.522 -0.45051,2.34997 -1.27848,2.34997 -0.84014,0 -1.29065,-0.82797 -1.29065,-2.34997 0,-1.522 0.45051,-2.34997 1.29065,-2.34997 0.82797,0 1.27848,0.82797 1.27848,2.34997 z"
         style="font-size:12.176px;line-height:1.25"
         id="path394" />
      <path
         d="m 536.8658,740.55115 v -3.9572 c 0,-0.88885 -0.68186,-1.64376 -1.55853,-1.64376 -0.73056,0 -1.37589,0.41398 -1.89946,0.92537 v -0.80361 h -0.94972 v 5.4792 h 0.94972 v -4.29813 c 0.41399,-0.41398 0.92538,-0.74274 1.49765,-0.74274 0.57227,0 1.01061,0.49922 1.01061,1.08367 v 3.9572 z"
         style="font-size:12.176px;line-height:1.25"
         id="path396" />
      <path
         d="m 543.86698,741.95139 v -0.6088 h -6.088 v 0.6088 z"
         style="font-size:12.176px;line-height:1.25"
         id="path398" />
      <path
         d="m 547.87286,735.82686 v -0.75491 c -0.13394,-0.0487 -0.28005,-0.0852 -0.41399,-0.0852 -0.68185,0 -1.22977,0.47486 -1.66811,0.99843 v -0.9132 h -0.94973 v 5.4792 h 0.94973 v -4.05461 c 0.36528,-0.42616 0.82797,-0.79144 1.38806,-0.79144 0.23135,0 0.47487,0.0487 0.69404,0.12176 z"
         style="font-size:12.176px;line-height:1.25"
         id="path400" />
      <path
         d="m 553.49816,737.93331 v -0.12176 c 0,-1.71682 -0.93756,-2.86136 -2.34997,-2.86136 -1.42459,0 -2.36215,1.14454 -2.36215,2.86136 0,1.71681 0.93756,2.86136 2.36215,2.86136 0.6088,0 1.20542,-0.19482 1.70464,-0.54792 v -0.51139 c -0.57227,0.36528 -1.03496,0.49921 -1.70464,0.49921 -1.03496,0 -1.29066,-0.98625 -1.29066,-2.1795 z m -1.07149,-0.51139 h -2.56914 c 0,-0.97408 0.41399,-1.96034 1.29066,-1.96034 0.86449,0 1.27848,0.98626 1.27848,1.96034 z"
         style="font-size:12.176px;line-height:1.25"
         id="path402" />
      <path
         d="m 559.48873,741.28171 v -6.20976 h -0.94972 v 0.20699 c -0.47487,-0.20699 -0.98626,-0.32875 -1.49765,-0.32875 -1.522,0 -2.26474,1.2176 -2.26474,2.86136 0,1.61941 0.6088,2.86136 2.0821,2.86136 0.62097,0 1.19325,-0.28005 1.68029,-0.66968 v 1.27848 c 0,0.84014 -0.46269,1.63158 -1.2176,1.63158 -0.62098,0 -1.24196,-0.12176 -1.8264,-0.32875 v 0.37746 c 0.68185,0.31657 1.43676,0.51139 2.19168,0.51139 1.07148,0 1.80204,-1.04714 1.80204,-2.19168 z m -0.94972,-1.78987 c -0.36528,0.36528 -0.8158,0.66968 -1.33936,0.66968 -1.10802,0 -1.35154,-1.07149 -1.35154,-2.34997 0,-1.14455 0.3531,-2.34997 1.35154,-2.34997 0.46268,0 0.92537,0.12176 1.33936,0.32875 z"
         style="font-size:12.176px;line-height:1.25"
         id="path404" />
      <path
         d="m 563.60421,743.35163 c -0.88884,-1.97251 -1.2176,-3.49451 -1.2176,-5.66184 0,-2.16733 0.32876,-3.68933 1.2176,-5.66184 h -0.51139 c -1.20542,1.8751 -1.65593,3.43363 -1.65593,5.66184 0,2.22821 0.45051,3.78673 1.65593,5.66184 z"
         style="font-size:12.176px;line-height:1.25"
         id="path406" />
      <path
         d="m 568.23108,740.55115 v -8.40144 h -0.70621 c -0.66968,0.76709 -1.46112,1.42459 -2.33779,1.93598 v 0.51139 c 0.74273,-0.3531 1.43677,-0.76708 2.09427,-1.2663 v 7.22037 z"
         style="font-size:12.176px;line-height:1.25"
         id="path408" />
      <path
         d="m 573.38152,737.68979 c 0,-2.22821 -0.45051,-3.78674 -1.65594,-5.66184 h -0.51139 c 0.88885,1.97251 1.2176,3.49451 1.2176,5.66184 0,2.16733 -0.32875,3.68933 -1.2176,5.66184 h 0.51139 c 1.20543,-1.87511 1.65594,-3.43363 1.65594,-5.66184 z"
         style="font-size:12.176px;line-height:1.25"
         id="path410" />
    </g>
    <path
       id="path9191"
       d="m 474.80313,722.83463 h 56.69293"
       style="fill:none;stroke:#000000;stroke-width:1px;stroke-linecap:butt;stroke-linejoin:miter;stroke-opacity:1;marker-end:url(#Arrow1Mend)" />
    <path
       style="fill:none;stroke:#000000;stroke-width:1px;stroke-linecap:butt;stroke-linejoin:miter;stroke-opacity:1;marker-end:url(#Arrow1Mend)"
       d="m 584.64567,683.85825 h 49.6063"
       id="path9201" />
    <path
       style="fill:#afdde9;fill-opacity:1;stroke:#000000;stroke-width:1px;stroke-linecap:butt;stroke-linejoin:miter;stroke-opacity:1"
       d="m 173.62205,715.74803 h 10.62992 l 7.08661,7.0866 -7.08661,7.08661 h -10.62992 z"
       id="path9533" />
    <path
       id="path9535"
       d="m 191.33858,722.83463 h 63.77953"
       style="fill:none;stroke:#000000;stroke-width:1px;stroke-linecap:butt;stroke-linejoin:miter;stroke-opacity:1;marker-end:url(#Arrow1Mend)" />
    <g
       aria-label="bouton"
       id="text9537"
       style="line-height:0%;font-family:Iwona;-inkscape-font-specification:Iwona;text-align:end;letter-spacing:0px;word-spacing:0px;text-anchor:end">
      <path
         d="m 140.79553,723.63833 c 0,-1.61941 -0.6088,-2.86136 -2.0821,-2.86136 -0.62097,0 -1.19324,0.28005 -1.68028,0.66968 v -3.59192 h -0.94973 v 8.5232 h 0.94973 v -0.28005 c 0.46268,0.24352 0.97408,0.40181 1.49764,0.40181 1.522,0 2.26474,-1.2176 2.26474,-2.86136 z m -1.07149,0 c 0,1.14454 -0.3531,2.34997 -1.35153,2.34997 -0.47487,0 -0.93756,-0.15829 -1.33936,-0.40181 v -3.62845 c 0.36528,-0.36528 0.81579,-0.66968 1.33936,-0.66968 1.10801,0 1.35153,1.07149 1.35153,2.34997 z"
         style="font-size:12.176px;line-height:1.25"
         id="path413" />
      <path
         d="m 146.84699,723.63833 c 0,-1.86293 -0.82796,-2.86136 -2.34996,-2.86136 -1.53418,0 -2.36215,0.99843 -2.36215,2.86136 0,1.86293 0.82797,2.86136 2.36215,2.86136 1.522,0 2.34996,-0.99843 2.34996,-2.86136 z m -1.07148,0 c 0,1.522 -0.45052,2.34997 -1.27848,2.34997 -0.84015,0 -1.29066,-0.82797 -1.29066,-2.34997 0,-1.522 0.45051,-2.34997 1.29066,-2.34997 0.82796,0 1.27848,0.82797 1.27848,2.34997 z"
         style="font-size:12.176px;line-height:1.25"
         id="path415" />
      <path
         d="m 152.83758,726.37793 v -5.4792 h -0.94973 v 4.29813 c -0.41398,0.41398 -0.92537,0.74273 -1.49764,0.74273 -0.57228,0 -1.01061,-0.49921 -1.01061,-1.08366 v -3.9572 h -0.94973 v 3.9572 c 0,0.88885 0.68186,1.64376 1.55853,1.64376 0.73056,0 1.37589,-0.41398 1.89945,-0.92538 v 0.80362 z"
         style="font-size:12.176px;line-height:1.25"
         id="path417" />
      <path
         d="m 157.36703,725.95177 v -0.36528 c -0.19481,0.19482 -0.42616,0.3531 -0.7062,0.3531 -0.43834,0 -0.46269,-0.57227 -0.46269,-1.08366 v -3.44581 h 1.16889 v -0.51139 h -1.16889 v -1.8264 h -0.57227 c 0,0.97408 -0.5601,1.88728 -1.44895,1.88728 v 0.45051 h 1.07149 v 3.44581 c 0,0.80362 0.2557,1.64376 0.94973,1.64376 0.45051,0 0.84014,-0.24352 1.16889,-0.54792 z"
         style="font-size:12.176px;line-height:1.25"
         id="path419" />
      <path
         d="m 163.11409,723.63833 c 0,-1.86293 -0.82797,-2.86136 -2.34997,-2.86136 -1.53418,0 -2.36214,0.99843 -2.36214,2.86136 0,1.86293 0.82796,2.86136 2.36214,2.86136 1.522,0 2.34997,-0.99843 2.34997,-2.86136 z m -1.07149,0 c 0,1.522 -0.45051,2.34997 -1.27848,2.34997 -0.84014,0 -1.29066,-0.82797 -1.29066,-2.34997 0,-1.522 0.45052,-2.34997 1.29066,-2.34997 0.82797,0 1.27848,0.82797 1.27848,2.34997 z"
         style="font-size:12.176px;line-height:1.25"
         id="path421" />
      <path
         d="m 169.16556,726.37793 v -3.9572 c 0,-0.88885 -0.68186,-1.64376 -1.55853,-1.64376 -0.73056,0 -1.37589,0.41398 -1.89946,0.92538 v -0.80362 h -0.94973 v 5.4792 h 0.94973 v -4.29813 c 0.41399,-0.41398 0.92538,-0.74273 1.49765,-0.74273 0.57227,0 1.01061,0.49921 1.01061,1.08366 v 3.9572 z"
         style="font-size:12.176px;line-height:1.25"
         id="path423" />
    </g>
    <path
       style="fill:none;stroke:#000000;stroke-width:1px;stroke-linecap:butt;stroke-linejoin:miter;stroke-opacity:1"
       d="m 212.59843,797.24407 7.08661,7.08662 -7.08661,7.08661"
       id="path7790" />
    <path
       style="fill:none;stroke:#000000;stroke-width:1px;stroke-linecap:butt;stroke-linejoin:miter;stroke-opacity:1;marker-end:url(#Arrow1Mend)"
       d="m 191.33858,804.33069 h 21.25985"
       id="path7792" />
    <g
       aria-label="p_bouton_reg"
       id="text7794"
       style="line-height:0%;font-family:Iwona;-inkscape-font-specification:Iwona;text-align:center;letter-spacing:0px;word-spacing:0px;text-anchor:middle">
      <path
         d="m 325.23283,740.39159 c 0,-2.18882 -0.82287,-3.86747 -2.8142,-3.86747 -0.83932,0 -1.61282,0.37852 -2.27111,0.90516 v -0.74058 h -1.28367 v 11.19096 h 1.28367 v -4.06495 c 0.64184,0.27977 1.33304,0.44435 2.02425,0.44435 2.05716,0 3.06106,-1.64573 3.06106,-3.86747 z m -1.44824,0 c 0,1.54699 -0.47727,3.17626 -1.82676,3.17626 -0.62538,0 -1.25076,-0.16457 -1.81031,-0.44435 v -5.00302 c 0.49372,-0.49372 1.10264,-0.90515 1.81031,-0.90515 1.49761,0 1.82676,1.44824 1.82676,3.17626 z"
         style="font-size:16.4573px;line-height:1.25"
         id="path426" />
      <path
         d="m 334.3666,745.98707 v -0.82286 h -8.22865 v 0.82286 z"
         style="font-size:16.4573px;line-height:1.25"
         id="path428" />
      <path
         d="m 342.05213,740.39159 c 0,-2.18882 -0.82287,-3.86747 -2.8142,-3.86747 -0.83932,0 -1.61281,0.37852 -2.27111,0.90516 v -4.85491 h -1.28367 v 11.52011 h 1.28367 v -0.37852 c 0.62538,0.32915 1.31659,0.5431 2.02425,0.5431 2.05716,0 3.06106,-1.64573 3.06106,-3.86747 z m -1.44824,0 c 0,1.54699 -0.47726,3.17626 -1.82676,3.17626 -0.64184,0 -1.26722,-0.21395 -1.81031,-0.54309 v -4.90428 c 0.49372,-0.49372 1.10264,-0.90515 1.81031,-0.90515 1.49761,0 1.82676,1.44824 1.82676,3.17626 z"
         style="font-size:16.4573px;line-height:1.25"
         id="path430" />
      <path
         d="m 350.2314,740.39159 c 0,-2.51797 -1.1191,-3.86747 -3.17626,-3.86747 -2.07362,0 -3.19272,1.3495 -3.19272,3.86747 0,2.51797 1.1191,3.86747 3.19272,3.86747 2.05716,0 3.17626,-1.3495 3.17626,-3.86747 z m -1.44824,0 c 0,2.05716 -0.60893,3.17626 -1.72802,3.17626 -1.13556,0 -1.74448,-1.1191 -1.74448,-3.17626 0,-2.05716 0.60892,-3.17626 1.74448,-3.17626 1.11909,0 1.72802,1.1191 1.72802,3.17626 z"
         style="font-size:16.4573px;line-height:1.25"
         id="path432" />
      <path
         d="m 358.32838,744.09448 v -7.40578 h -1.28366 v 5.80942 c -0.55955,0.55955 -1.25076,1.0039 -2.02425,1.0039 -0.7735,0 -1.36596,-0.67475 -1.36596,-1.4647 v -5.34862 h -1.28367 v 5.34862 c 0,1.20138 0.92161,2.22174 2.10654,2.22174 0.98743,0 1.85967,-0.55955 2.56734,-1.25076 v 1.08618 z"
         style="font-size:16.4573px;line-height:1.25"
         id="path434" />
      <path
         d="m 364.45047,743.51848 v -0.49372 c -0.26331,0.26331 -0.576,0.47726 -0.95452,0.47726 -0.59246,0 -0.62538,-0.77349 -0.62538,-1.4647 v -4.65742 h 1.5799 v -0.6912 h -1.5799 v -2.4686 h -0.77349 c 0,1.31659 -0.75704,2.55088 -1.95842,2.55088 v 0.60892 h 1.44824 v 4.65742 c 0,1.08618 0.34561,2.22174 1.28367,2.22174 0.60892,0 1.13556,-0.32915 1.5799,-0.74058 z"
         style="font-size:16.4573px;line-height:1.25"
         id="path436" />
      <path
         d="m 372.2183,740.39159 c 0,-2.51797 -1.1191,-3.86747 -3.17626,-3.86747 -2.07362,0 -3.19272,1.3495 -3.19272,3.86747 0,2.51797 1.1191,3.86747 3.19272,3.86747 2.05716,0 3.17626,-1.3495 3.17626,-3.86747 z m -1.44825,0 c 0,2.05716 -0.60892,3.17626 -1.72801,3.17626 -1.13556,0 -1.74448,-1.1191 -1.74448,-3.17626 0,-2.05716 0.60892,-3.17626 1.74448,-3.17626 1.11909,0 1.72801,1.1191 1.72801,3.17626 z"
         style="font-size:16.4573px;line-height:1.25"
         id="path438" />
      <path
         d="m 380.39757,744.09448 v -5.34862 c 0,-1.20138 -0.92161,-2.22174 -2.10654,-2.22174 -0.98743,0 -1.85967,0.55955 -2.56734,1.25076 v -1.08618 h -1.28367 v 7.40578 h 1.28367 v -5.80942 c 0.55955,-0.55955 1.25076,-1.0039 2.02425,-1.0039 0.7735,0 1.36596,0.67475 1.36596,1.4647 v 5.34862 z"
         style="font-size:16.4573px;line-height:1.25"
         id="path440" />
      <path
         d="m 389.86049,745.98707 v -0.82286 h -8.22865 v 0.82286 z"
         style="font-size:16.4573px;line-height:1.25"
         id="path442" />
      <path
         d="m 395.27491,737.70905 v -1.02035 c -0.18103,-0.0658 -0.37852,-0.1152 -0.55955,-0.1152 -0.92161,0 -1.66218,0.64183 -2.25465,1.34949 v -1.23429 h -1.28367 v 7.40578 h 1.28367 v -5.48028 c 0.49372,-0.576 1.1191,-1.06972 1.87614,-1.06972 0.31268,0 0.64183,0.0658 0.93806,0.16457 z"
         style="font-size:16.4573px;line-height:1.25"
         id="path444" />
      <path
         d="m 402.87816,740.55616 v -0.16457 c 0,-2.32048 -1.26721,-3.86747 -3.17626,-3.86747 -1.9255,0 -3.19271,1.54699 -3.19271,3.86747 0,2.32048 1.26721,3.86747 3.19271,3.86747 0.82287,0 1.62928,-0.26332 2.30403,-0.74058 v -0.69121 c -0.7735,0.49372 -1.39888,0.67475 -2.30403,0.67475 -1.39887,0 -1.74447,-1.33304 -1.74447,-2.94586 z m -1.44824,-0.6912 h -3.47249 c 0,-1.31659 0.55955,-2.64963 1.74447,-2.64963 1.16847,0 1.72802,1.33304 1.72802,2.64963 z"
         style="font-size:16.4573px;line-height:1.25"
         id="path446" />
      <path
         d="m 410.97513,745.08192 v -8.39322 h -1.28367 v 0.27977 c -0.64183,-0.27977 -1.33304,-0.44435 -2.02425,-0.44435 -2.05716,0 -3.06105,1.64573 -3.06105,3.86747 0,2.18882 0.82286,3.86747 2.8142,3.86747 0.83932,0 1.61281,-0.37852 2.2711,-0.90516 v 1.72802 c 0,1.13555 -0.62537,2.20528 -1.64573,2.20528 -0.83932,0 -1.67864,-0.16457 -2.46859,-0.44435 v 0.51018 c 0.92161,0.42789 1.94196,0.6912 2.96231,0.6912 1.44824,0 2.43568,-1.41532 2.43568,-2.96231 z m -1.28367,-2.41922 c -0.49372,0.49372 -1.10264,0.90515 -1.8103,0.90515 -1.49761,0 -1.82676,-1.44824 -1.82676,-3.17626 0,-1.54699 0.47726,-3.17626 1.82676,-3.17626 0.62538,0 1.25075,0.16457 1.8103,0.44435 z"
         style="font-size:16.4573px;line-height:1.25"
         id="path448" />
    </g>
    <path
       style="fill:none;stroke:#000000;stroke-width:1px;stroke-linecap:butt;stroke-linejoin:miter;stroke-opacity:1;marker-start:url(#DotM);marker-end:url(#Arrow1Mend)"
       d="m 389.76378,673.22833 v 49.6063 l 38.97638,-10e-6"
       id="path7816" />
  </g>
</svg>
