<?xml version="1.0" encoding="UTF-8" standalone="no"?>
<!-- Created with Inkscape (http://www.inkscape.org/) -->

<svg
   width="145.99086mm"
   height="53.141113mm"
   id="svg2"
   version="1.1"
   viewBox="0 0 517.29044 188.29528"
   xmlns="http://www.w3.org/2000/svg"
   xmlns:svg="http://www.w3.org/2000/svg"
   xmlns:rdf="http://www.w3.org/1999/02/22-rdf-syntax-ns#"
   xmlns:cc="http://creativecommons.org/ns#"
   xmlns:dc="http://purl.org/dc/elements/1.1/">
  <defs
     id="defs4">
    <marker
       orient="auto"
       refY="0"
       refX="0"
       id="Arrow1Mend-87"
       style="overflow:visible">
      <path
         id="path4943"
         d="M 0,0 5,-5 -12.5,0 5,5 Z"
         style="fill:#ff00ff;fill-rule:evenodd;stroke:#ff00ff;stroke-width:1.00000003pt;marker-start:none"
         transform="matrix(-0.4,0,0,-0.4,-4,0)" />
    </marker>
  </defs>
  <metadata
     id="metadata7">
    <rdf:RDF>
      <cc:Work
         rdf:about="">
        <dc:format>image/svg+xml</dc:format>
        <dc:type
           rdf:resource="http://purl.org/dc/dcmitype/StillImage" />
        <dc:title />
      </cc:Work>
    </rdf:RDF>
  </metadata>
  <g
     transform="translate(-106.33161,-400.39368)"
     id="layer1">
    <path
       id="rect5257"
       style="fill:#ffff00"
       d="m 343.70079,485.43304 h 28.34643 c 1e-5,0 1e-5,10e-6 1e-5,2e-5 v 95.66926 c 0,1e-5 0,1e-5 -1e-5,1e-5 h -28.34643 c -10e-6,0 -10e-6,0 -10e-6,-1e-5 v -95.66926 c 0,-1e-5 0,-2e-5 10e-6,-2e-5 z" />
    <path
       id="path4444"
       d="M 549.21259,407.48029 V 549.21258"
       style="fill:none;stroke:#ff00ff;stroke-width:0.999213;stroke-linecap:butt;stroke-linejoin:miter;stroke-miterlimit:4;stroke-dasharray:1.99843, 1.99843;stroke-dashoffset:0;stroke-opacity:1" />
    <path
       style="fill:none;stroke:#ff00ff;stroke-width:0.999213;stroke-linecap:butt;stroke-linejoin:miter;stroke-miterlimit:4;stroke-dasharray:1.99843, 1.99843;stroke-dashoffset:0;stroke-opacity:1"
       d="M 513.77952,407.48029 V 513.7795"
       id="path4446" />
    <path
       style="fill:none;stroke:#ff00ff;stroke-width:0.999213;stroke-linecap:butt;stroke-linejoin:miter;stroke-miterlimit:4;stroke-dasharray:1.99843, 1.99843;stroke-dashoffset:0;stroke-opacity:1"
       d="M 372.04724,407.48029 V 549.21258"
       id="path4442" />
    <path
       id="path3228"
       d="M 336.61417,407.48029 V 513.7795"
       style="fill:none;stroke:#ff00ff;stroke-width:0.999213;stroke-linecap:butt;stroke-linejoin:miter;stroke-miterlimit:4;stroke-dasharray:1.99843, 1.99843;stroke-dashoffset:0;stroke-opacity:1" />
    <g
       aria-label="appui"
       id="text4830"
       style="line-height:0%;font-family:Iwona;-inkscape-font-specification:Iwona;text-align:end;letter-spacing:0px;word-spacing:0px;text-anchor:end;fill:#008080">
      <path
         d="m 180.06054,577.55902 v -4.76 c 0,-1.598 -0.986,-3.06 -2.465,-3.06 -1.088,0 -2.108,0.374 -3.026,0.952 v 0.527 c 0.765,-0.425 1.615,-0.697 2.499,-0.697 1.054,0 1.666,1.122 1.666,2.278 v 0.306 c -0.663,-0.289 -1.377,-0.459 -2.091,-0.459 -1.819,0 -3.162,0.833 -3.162,2.55 0,1.632 1.19,2.533 2.907,2.533 0.867,0 1.666,-0.391 2.346,-0.935 v 0.765 z m -1.326,-1.479 c -0.51,0.51 -1.139,0.935 -1.87,0.935 -1.139,0 -1.887,-0.697 -1.887,-1.819 0,-1.037 0.85,-1.836 1.887,-1.836 0.646,0 1.292,0.17 1.87,0.459 z"
         style="font-size:17px;line-height:1.25"
         id="path199" />
      <path
         d="m 189.27452,573.73402 c 0,-2.261 -0.85,-3.995 -2.907,-3.995 -0.867,0 -1.666,0.391 -2.346,0.935 v -0.765 h -1.326 v 11.56 h 1.326 v -4.199 c 0.663,0.289 1.377,0.459 2.091,0.459 2.125,0 3.162,-1.7 3.162,-3.995 z m -1.496,0 c 0,1.598 -0.493,3.281 -1.887,3.281 -0.646,0 -1.292,-0.17 -1.87,-0.459 v -5.168 c 0.51,-0.51 1.139,-0.935 1.87,-0.935 1.547,0 1.887,1.496 1.887,3.281 z"
         style="font-size:17px;line-height:1.25"
         id="path201" />
      <path
         d="m 198.06349,573.73402 c 0,-2.261 -0.85,-3.995 -2.907,-3.995 -0.867,0 -1.666,0.391 -2.346,0.935 v -0.765 h -1.326 v 11.56 h 1.326 v -4.199 c 0.663,0.289 1.377,0.459 2.091,0.459 2.125,0 3.162,-1.7 3.162,-3.995 z m -1.496,0 c 0,1.598 -0.493,3.281 -1.887,3.281 -0.646,0 -1.292,-0.17 -1.87,-0.459 v -5.168 c 0.51,-0.51 1.139,-0.935 1.87,-0.935 1.547,0 1.887,1.496 1.887,3.281 z"
         style="font-size:17px;line-height:1.25"
         id="path203" />
      <path
         d="m 206.42746,577.55902 v -7.65 h -1.326 v 6.001 c -0.578,0.578 -1.292,1.037 -2.091,1.037 -0.799,0 -1.411,-0.697 -1.411,-1.513 v -5.525 h -1.326 v 5.525 c 0,1.241 0.952,2.295 2.176,2.295 1.02,0 1.921,-0.578 2.652,-1.292 v 1.122 z"
         style="font-size:17px;line-height:1.25"
         id="path205" />
      <path
         d="m 212.25844,576.96402 v -0.51 c -0.323,0.272 -0.697,0.493 -1.122,0.493 -0.629,0 -0.748,-0.782 -0.748,-1.513 v -5.525 h -1.326 v 5.525 c 0,1.139 0.442,2.295 1.445,2.295 0.646,0 1.258,-0.323 1.751,-0.765 z m -1.7,-9.707 c 0,-0.459 -0.374,-0.833 -0.833,-0.833 -0.459,0 -0.833,0.374 -0.833,0.833 0,0.459 0.374,0.833 0.833,0.833 0.459,0 0.833,-0.374 0.833,-0.833 z"
         style="font-size:17px;line-height:1.25"
         id="path207" />
    </g>
    <g
       aria-label="clk"
       id="text4868"
       style="line-height:0%;font-family:Iwona;-inkscape-font-specification:Iwona;text-align:end;letter-spacing:0px;word-spacing:0px;text-anchor:end;fill:#800000">
      <path
         d="m 199.16848,429.94475 v -0.714 c -0.544,-0.765 -1.428,-1.224 -2.38,-1.224 -2.125,0 -3.553,1.598 -3.553,3.995 0,2.397 1.428,3.995 3.553,3.995 0.884,0 1.717,-0.442 2.21,-1.173 v -0.714 c -0.578,0.867 -1.173,1.173 -2.21,1.173 -1.224,0 -2.057,-1.309 -2.057,-3.281 0,-1.972 0.833,-3.281 2.057,-3.281 1.054,0 1.768,0.374 2.38,1.224 z"
         style="font-size:17px;line-height:1.25"
         id="path210" />
      <path
         d="m 204.14946,435.23175 v -0.51 c -0.323,0.272 -0.697,0.493 -1.122,0.493 -0.629,0 -0.748,-0.782 -0.748,-1.513 v -9.775 h -1.326 v 9.775 c 0,1.139 0.442,2.295 1.445,2.295 0.646,0 1.258,-0.323 1.751,-0.765 z"
         style="font-size:17px;line-height:1.25"
         id="path212" />
      <path
         d="m 212.42843,435.82675 -3.944,-4.539 3.808,-3.111 h -1.054 l -4.063,3.332 v -7.582 h -1.326 v 11.9 h 1.326 v -4.233 l 3.672,4.233 z"
         style="font-size:17px;line-height:1.25"
         id="path214" />
    </g>
    <g
       aria-label="bouton_reg(0)"
       id="text5525"
       style="line-height:0%;font-family:Iwona;-inkscape-font-specification:Iwona;text-align:end;letter-spacing:0px;word-spacing:0px;text-anchor:end;fill:#008000">
      <path
         d="m 120.01367,502.86793 c 0,-2.261 -0.85,-3.995 -2.907,-3.995 -0.867,0 -1.666,0.391 -2.346,0.935 v -5.015 h -1.326 v 11.9 h 1.326 v -0.391 c 0.646,0.34 1.36,0.561 2.091,0.561 2.125,0 3.162,-1.7 3.162,-3.995 z m -1.496,0 c 0,1.598 -0.493,3.281 -1.887,3.281 -0.663,0 -1.309,-0.221 -1.87,-0.561 v -5.066 c 0.51,-0.51 1.139,-0.935 1.87,-0.935 1.547,0 1.887,1.496 1.887,3.281 z"
         style="font-size:17px;line-height:1.25"
         id="path217" />
      <path
         d="m 128.46266,502.86793 c 0,-2.601 -1.156,-3.995 -3.281,-3.995 -2.142,0 -3.298,1.394 -3.298,3.995 0,2.601 1.156,3.995 3.298,3.995 2.125,0 3.281,-1.394 3.281,-3.995 z m -1.496,0 c 0,2.125 -0.629,3.281 -1.785,3.281 -1.173,0 -1.802,-1.156 -1.802,-3.281 0,-2.125 0.629,-3.281 1.802,-3.281 1.156,0 1.785,1.156 1.785,3.281 z"
         style="font-size:17px;line-height:1.25"
         id="path219" />
      <path
         d="m 136.82665,506.69293 v -7.65 h -1.326 v 6.001 c -0.578,0.578 -1.292,1.037 -2.091,1.037 -0.799,0 -1.411,-0.697 -1.411,-1.513 v -5.525 h -1.326 v 5.525 c 0,1.241 0.952,2.295 2.176,2.295 1.02,0 1.921,-0.578 2.652,-1.292 v 1.122 z"
         style="font-size:17px;line-height:1.25"
         id="path221" />
      <path
         d="m 143.15062,506.09793 v -0.51 c -0.272,0.272 -0.595,0.493 -0.986,0.493 -0.612,0 -0.646,-0.799 -0.646,-1.513 v -4.811 h 1.632 v -0.714 h -1.632 v -2.55 h -0.799 c 0,1.36 -0.782,2.635 -2.023,2.635 v 0.629 h 1.496 v 4.811 c 0,1.122 0.357,2.295 1.326,2.295 0.629,0 1.173,-0.34 1.632,-0.765 z"
         style="font-size:17px;line-height:1.25"
         id="path223" />
      <path
         d="m 151.1746,502.86793 c 0,-2.601 -1.156,-3.995 -3.281,-3.995 -2.142,0 -3.298,1.394 -3.298,3.995 0,2.601 1.156,3.995 3.298,3.995 2.125,0 3.281,-1.394 3.281,-3.995 z m -1.496,0 c 0,2.125 -0.629,3.281 -1.785,3.281 -1.173,0 -1.802,-1.156 -1.802,-3.281 0,-2.125 0.629,-3.281 1.802,-3.281 1.156,0 1.785,1.156 1.785,3.281 z"
         style="font-size:17px;line-height:1.25"
         id="path225" />
      <path
         d="m 159.62359,506.69293 v -5.525 c 0,-1.241 -0.952,-2.295 -2.176,-2.295 -1.02,0 -1.921,0.578 -2.652,1.292 v -1.122 h -1.326 v 7.65 h 1.326 v -6.001 c 0.578,-0.578 1.292,-1.037 2.091,-1.037 0.799,0 1.411,0.697 1.411,1.513 v 5.525 z"
         style="font-size:17px;line-height:1.25"
         id="path227" />
      <path
         d="m 169.39857,508.64793 v -0.85 h -8.5 v 0.85 z"
         style="font-size:17px;line-height:1.25"
         id="path229" />
      <path
         d="m 174.99153,500.09693 v -1.054 c -0.187,-0.068 -0.391,-0.119 -0.578,-0.119 -0.952,0 -1.717,0.663 -2.329,1.394 v -1.275 h -1.326 v 7.65 h 1.326 v -5.661 c 0.51,-0.595 1.156,-1.105 1.938,-1.105 0.323,0 0.663,0.068 0.969,0.17 z"
         style="font-size:17px;line-height:1.25"
         id="path231" />
      <path
         d="m 182.84552,503.03793 v -0.17 c 0,-2.397 -1.309,-3.995 -3.281,-3.995 -1.989,0 -3.298,1.598 -3.298,3.995 0,2.397 1.309,3.995 3.298,3.995 0.85,0 1.683,-0.272 2.38,-0.765 v -0.714 c -0.799,0.51 -1.445,0.697 -2.38,0.697 -1.445,0 -1.802,-1.377 -1.802,-3.043 z m -1.496,-0.714 h -3.587 c 0,-1.36 0.578,-2.737 1.802,-2.737 1.207,0 1.785,1.377 1.785,2.737 z"
         style="font-size:17px;line-height:1.25"
         id="path233" />
      <path
         d="m 191.20949,507.71293 v -8.67 h -1.326 v 0.289 c -0.663,-0.289 -1.377,-0.459 -2.091,-0.459 -2.125,0 -3.162,1.7 -3.162,3.995 0,2.261 0.85,3.995 2.907,3.995 0.867,0 1.666,-0.391 2.346,-0.935 v 1.785 c 0,1.173 -0.646,2.278 -1.7,2.278 -0.867,0 -1.734,-0.17 -2.55,-0.459 v 0.527 c 0.952,0.442 2.006,0.714 3.06,0.714 1.496,0 2.516,-1.462 2.516,-3.06 z m -1.326,-2.499 c -0.51,0.51 -1.139,0.935 -1.87,0.935 -1.547,0 -1.887,-1.496 -1.887,-3.281 0,-1.598 0.493,-3.281 1.887,-3.281 0.646,0 1.292,0.17 1.87,0.459 z"
         style="font-size:17px;line-height:1.25"
         id="path235" />
      <path
         d="m 196.95548,510.60293 c -1.241,-2.754 -1.7,-4.879 -1.7,-7.905 0,-3.026 0.459,-5.151 1.7,-7.905 h -0.714 c -1.683,2.618 -2.312,4.794 -2.312,7.905 0,3.111 0.629,5.287 2.312,7.905 z"
         style="font-size:17px;line-height:1.25"
         id="path237" />
      <path
         d="m 205.99946,500.82793 c 0,-4.029 -1.241,-6.035 -3.723,-6.035 -2.482,0 -3.723,2.006 -3.723,6.035 0,4.029 1.241,6.035 3.723,6.035 2.482,0 3.723,-2.006 3.723,-6.035 z m -1.496,0 c 0,3.553 -0.748,5.321 -2.227,5.321 -1.479,0 -2.227,-1.768 -2.227,-5.321 0,-3.553 0.748,-5.321 2.227,-5.321 1.479,0 2.227,1.768 2.227,5.321 z"
         style="font-size:17px;line-height:1.25"
         id="path239" />
      <path
         d="m 210.60645,502.69793 c 0,-3.111 -0.629,-5.287 -2.312,-7.905 h -0.714 c 1.241,2.754 1.7,4.879 1.7,7.905 0,3.026 -0.459,5.151 -1.7,7.905 h 0.714 c 1.683,-2.618 2.312,-4.794 2.312,-7.905 z"
         style="font-size:17px;line-height:1.25"
         id="path241" />
    </g>
    <g
       aria-label="bouton_reg(1)"
       id="text9187"
       style="line-height:0%;font-family:Iwona;-inkscape-font-specification:Iwona;text-align:end;letter-spacing:0px;word-spacing:0px;text-anchor:end;fill:#008000">
      <path
         d="m 120.01367,538.30098 c 0,-2.261 -0.85,-3.995 -2.907,-3.995 -0.867,0 -1.666,0.391 -2.346,0.935 v -5.015 h -1.326 v 11.9 h 1.326 v -0.391 c 0.646,0.34 1.36,0.561 2.091,0.561 2.125,0 3.162,-1.7 3.162,-3.995 z m -1.496,0 c 0,1.598 -0.493,3.281 -1.887,3.281 -0.663,0 -1.309,-0.221 -1.87,-0.561 v -5.066 c 0.51,-0.51 1.139,-0.935 1.87,-0.935 1.547,0 1.887,1.496 1.887,3.281 z"
         style="font-size:17px;line-height:1.25"
         id="path244" />
      <path
         d="m 128.46266,538.30098 c 0,-2.601 -1.156,-3.995 -3.281,-3.995 -2.142,0 -3.298,1.394 -3.298,3.995 0,2.601 1.156,3.995 3.298,3.995 2.125,0 3.281,-1.394 3.281,-3.995 z m -1.496,0 c 0,2.125 -0.629,3.281 -1.785,3.281 -1.173,0 -1.802,-1.156 -1.802,-3.281 0,-2.125 0.629,-3.281 1.802,-3.281 1.156,0 1.785,1.156 1.785,3.281 z"
         style="font-size:17px;line-height:1.25"
         id="path246" />
      <path
         d="m 136.82665,542.12598 v -7.65 h -1.326 v 6.001 c -0.578,0.578 -1.292,1.037 -2.091,1.037 -0.799,0 -1.411,-0.697 -1.411,-1.513 v -5.525 h -1.326 v 5.525 c 0,1.241 0.952,2.295 2.176,2.295 1.02,0 1.921,-0.578 2.652,-1.292 v 1.122 z"
         style="font-size:17px;line-height:1.25"
         id="path248" />
      <path
         d="m 143.15062,541.53098 v -0.51 c -0.272,0.272 -0.595,0.493 -0.986,0.493 -0.612,0 -0.646,-0.799 -0.646,-1.513 v -4.811 h 1.632 v -0.714 h -1.632 v -2.55 h -0.799 c 0,1.36 -0.782,2.635 -2.023,2.635 v 0.629 h 1.496 v 4.811 c 0,1.122 0.357,2.295 1.326,2.295 0.629,0 1.173,-0.34 1.632,-0.765 z"
         style="font-size:17px;line-height:1.25"
         id="path250" />
      <path
         d="m 151.1746,538.30098 c 0,-2.601 -1.156,-3.995 -3.281,-3.995 -2.142,0 -3.298,1.394 -3.298,3.995 0,2.601 1.156,3.995 3.298,3.995 2.125,0 3.281,-1.394 3.281,-3.995 z m -1.496,0 c 0,2.125 -0.629,3.281 -1.785,3.281 -1.173,0 -1.802,-1.156 -1.802,-3.281 0,-2.125 0.629,-3.281 1.802,-3.281 1.156,0 1.785,1.156 1.785,3.281 z"
         style="font-size:17px;line-height:1.25"
         id="path252" />
      <path
         d="m 159.62359,542.12598 v -5.525 c 0,-1.241 -0.952,-2.295 -2.176,-2.295 -1.02,0 -1.921,0.578 -2.652,1.292 v -1.122 h -1.326 v 7.65 h 1.326 v -6.001 c 0.578,-0.578 1.292,-1.037 2.091,-1.037 0.799,0 1.411,0.697 1.411,1.513 v 5.525 z"
         style="font-size:17px;line-height:1.25"
         id="path254" />
      <path
         d="m 169.39857,544.08098 v -0.85 h -8.5 v 0.85 z"
         style="font-size:17px;line-height:1.25"
         id="path256" />
      <path
         d="m 174.99153,535.52998 v -1.054 c -0.187,-0.068 -0.391,-0.119 -0.578,-0.119 -0.952,0 -1.717,0.663 -2.329,1.394 v -1.275 h -1.326 v 7.65 h 1.326 v -5.661 c 0.51,-0.595 1.156,-1.105 1.938,-1.105 0.323,0 0.663,0.068 0.969,0.17 z"
         style="font-size:17px;line-height:1.25"
         id="path258" />
      <path
         d="m 182.84552,538.47098 v -0.17 c 0,-2.397 -1.309,-3.995 -3.281,-3.995 -1.989,0 -3.298,1.598 -3.298,3.995 0,2.397 1.309,3.995 3.298,3.995 0.85,0 1.683,-0.272 2.38,-0.765 v -0.714 c -0.799,0.51 -1.445,0.697 -2.38,0.697 -1.445,0 -1.802,-1.377 -1.802,-3.043 z m -1.496,-0.714 h -3.587 c 0,-1.36 0.578,-2.737 1.802,-2.737 1.207,0 1.785,1.377 1.785,2.737 z"
         style="font-size:17px;line-height:1.25"
         id="path260" />
      <path
         d="m 191.20949,543.14598 v -8.67 h -1.326 v 0.289 c -0.663,-0.289 -1.377,-0.459 -2.091,-0.459 -2.125,0 -3.162,1.7 -3.162,3.995 0,2.261 0.85,3.995 2.907,3.995 0.867,0 1.666,-0.391 2.346,-0.935 v 1.785 c 0,1.173 -0.646,2.278 -1.7,2.278 -0.867,0 -1.734,-0.17 -2.55,-0.459 v 0.527 c 0.952,0.442 2.006,0.714 3.06,0.714 1.496,0 2.516,-1.462 2.516,-3.06 z m -1.326,-2.499 c -0.51,0.51 -1.139,0.935 -1.87,0.935 -1.547,0 -1.887,-1.496 -1.887,-3.281 0,-1.598 0.493,-3.281 1.887,-3.281 0.646,0 1.292,0.17 1.87,0.459 z"
         style="font-size:17px;line-height:1.25"
         id="path262" />
      <path
         d="m 196.95548,546.03598 c -1.241,-2.754 -1.7,-4.879 -1.7,-7.905 0,-3.026 0.459,-5.151 1.7,-7.905 h -0.714 c -1.683,2.618 -2.312,4.794 -2.312,7.905 0,3.111 0.629,5.287 2.312,7.905 z"
         style="font-size:17px;line-height:1.25"
         id="path264" />
      <path
         d="m 203.41546,542.12598 v -11.73 h -0.986 c -0.935,1.071 -2.04,1.989 -3.264,2.703 v 0.714 c 1.037,-0.493 2.006,-1.071 2.924,-1.768 v 10.081 z"
         style="font-size:17px;line-height:1.25"
         id="path266" />
      <path
         d="m 210.60645,538.13098 c 0,-3.111 -0.629,-5.287 -2.312,-7.905 h -0.714 c 1.241,2.754 1.7,4.879 1.7,7.905 0,3.026 -0.459,5.151 -1.7,7.905 h 0.714 c 1.683,-2.618 2.312,-4.794 2.312,-7.905 z"
         style="font-size:17px;line-height:1.25"
         id="path268" />
    </g>
    <g
       aria-label="bouton"
       id="text9537"
       style="line-height:0%;font-family:Iwona;-inkscape-font-specification:Iwona;text-align:end;letter-spacing:0px;word-spacing:0px;text-anchor:end;fill:#800000">
      <path
         d="m 171.71352,467.43483 c 0,-2.261 -0.85,-3.995 -2.907,-3.995 -0.867,0 -1.666,0.391 -2.346,0.935 v -5.015 h -1.326 v 11.9 h 1.326 v -0.391 c 0.646,0.34 1.36,0.561 2.091,0.561 2.125,0 3.162,-1.7 3.162,-3.995 z m -1.496,0 c 0,1.598 -0.493,3.281 -1.887,3.281 -0.663,0 -1.309,-0.221 -1.87,-0.561 v -5.066 c 0.51,-0.51 1.139,-0.935 1.87,-0.935 1.547,0 1.887,1.496 1.887,3.281 z"
         style="font-size:17px;line-height:1.25"
         id="path271" />
      <path
         d="m 180.16251,467.43483 c 0,-2.601 -1.156,-3.995 -3.281,-3.995 -2.142,0 -3.298,1.394 -3.298,3.995 0,2.601 1.156,3.995 3.298,3.995 2.125,0 3.281,-1.394 3.281,-3.995 z m -1.496,0 c 0,2.125 -0.629,3.281 -1.785,3.281 -1.173,0 -1.802,-1.156 -1.802,-3.281 0,-2.125 0.629,-3.281 1.802,-3.281 1.156,0 1.785,1.156 1.785,3.281 z"
         style="font-size:17px;line-height:1.25"
         id="path273" />
      <path
         d="m 188.52651,471.25983 v -7.65 h -1.326 v 6.001 c -0.578,0.578 -1.292,1.037 -2.091,1.037 -0.799,0 -1.411,-0.697 -1.411,-1.513 v -5.525 h -1.326 v 5.525 c 0,1.241 0.952,2.295 2.176,2.295 1.02,0 1.921,-0.578 2.652,-1.292 v 1.122 z"
         style="font-size:17px;line-height:1.25"
         id="path275" />
      <path
         d="m 194.85048,470.66483 v -0.51 c -0.272,0.272 -0.595,0.493 -0.986,0.493 -0.612,0 -0.646,-0.799 -0.646,-1.513 v -4.811 h 1.632 v -0.714 h -1.632 v -2.55 h -0.799 c 0,1.36 -0.782,2.635 -2.023,2.635 v 0.629 h 1.496 v 4.811 c 0,1.122 0.357,2.295 1.326,2.295 0.629,0 1.173,-0.34 1.632,-0.765 z"
         style="font-size:17px;line-height:1.25"
         id="path277" />
      <path
         d="m 202.87445,467.43483 c 0,-2.601 -1.156,-3.995 -3.281,-3.995 -2.142,0 -3.298,1.394 -3.298,3.995 0,2.601 1.156,3.995 3.298,3.995 2.125,0 3.281,-1.394 3.281,-3.995 z m -1.496,0 c 0,2.125 -0.629,3.281 -1.785,3.281 -1.173,0 -1.802,-1.156 -1.802,-3.281 0,-2.125 0.629,-3.281 1.802,-3.281 1.156,0 1.785,1.156 1.785,3.281 z"
         style="font-size:17px;line-height:1.25"
         id="path279" />
      <path
         d="m 211.32345,471.25983 v -5.525 c 0,-1.241 -0.952,-2.295 -2.176,-2.295 -1.02,0 -1.921,0.578 -2.652,1.292 v -1.122 h -1.326 v 7.65 h 1.326 v -6.001 c 0.578,-0.578 1.292,-1.037 2.091,-1.037 0.799,0 1.411,0.697 1.411,1.513 v 5.525 z"
         style="font-size:17px;line-height:1.25"
         id="path281" />
    </g>
    <path
       id="path3218"
       d="m 216.14173,439.37005 h 14.17322 v -24.80314 h 17.71654 v 24.80314 h 17.71653 v -24.80314 h 17.71654 v 24.80314 h 17.71653 v -24.80314 h 17.71654 v 24.80314 h 17.71654 v -24.80314 h 17.71653 v 24.80314 h 17.71654 v -24.80314 h 17.71653 v 24.80314 h 17.71654 v -24.80314 h 17.71653 v 24.80314 h 17.71654 v -24.80314 h 17.71653 v 24.80314 h 17.71654 v -24.80314 h 17.71653 v 24.80314 h 17.71654 v -24.80314 h 17.71653 v 24.80314 h 17.71654 v -24.80314 h 17.71654 v 24.80314 h 17.71653 v -24.80314 h 17.71654 v 24.80314 h 14.17323"
       style="fill:none;stroke:#800000;stroke-width:1px;stroke-linecap:butt;stroke-linejoin:miter;stroke-opacity:1" />
    <path
       id="path3220"
       d="m 216.14173,474.80313 h 106.29921 l 7.08661,-24.80315 h 155.90551 l 7.08662,24.80315 h 124.01575"
       style="fill:none;stroke:#800000;stroke-width:1px;stroke-linecap:butt;stroke-linejoin:miter;stroke-opacity:1" />
    <path
       id="path3222"
       d="m 216.14173,510.2362 h 120.47244 l 7.08661,-24.80315 h 170.07874 l 7.08661,24.80315 h 95.6693"
       style="fill:none;stroke:#008000;stroke-width:1px;stroke-linecap:butt;stroke-linejoin:miter;stroke-opacity:1" />
    <path
       style="fill:none;stroke:#008000;stroke-width:1px;stroke-linecap:butt;stroke-linejoin:miter;stroke-opacity:1"
       d="m 216.14172,545.66927 h 155.90552 l 7.08661,-24.80315 h 170.07874 l 7.08661,24.80315 h 60.23623"
       id="path3224" />
    <path
       id="path3226"
       d="m 216.14172,581.10234 h 120.47245 l 7.08661,-24.80315 h 28.34646 l 7.08661,24.80315 h 237.40158"
       style="fill:none;stroke:#008080;stroke-width:1px;stroke-linecap:butt;stroke-linejoin:miter;stroke-opacity:1" />
    <path
       id="path4448"
       style="fill:none;stroke:#ff00ff;stroke-width:0.999213;stroke-linecap:round"
       transform="translate(124.01574,-14.17323)"
       d="m 216.14173,464.17322 a 3.5433071,3.5433071 0 0 1 -3.54331,3.5433 3.5433071,3.5433071 0 0 1 -3.54331,-3.5433 3.5433071,3.5433071 0 0 1 3.54331,-3.54331 3.5433071,3.5433071 0 0 1 3.54331,3.54331 z" />
    <path
       id="path4450"
       d="m 336.61417,453.54328 c 7.08661,7.08662 7.08661,31.88977 7.08661,31.88977"
       style="fill:none;stroke:#ff00ff;stroke-width:1px;stroke-linecap:butt;stroke-linejoin:miter;stroke-opacity:1;marker-end:url(#Arrow1Mend-87)" />
    <path
       id="path5245"
       style="fill:none;stroke:#ff00ff;stroke-width:0.999213;stroke-linecap:round"
       transform="translate(301.1811,10.629908)"
       d="m 216.14173,464.17322 a 3.5433071,3.5433071 0 0 1 -3.54331,3.5433 3.5433071,3.5433071 0 0 1 -3.54331,-3.5433 3.5433071,3.5433071 0 0 1 3.54331,-3.54331 3.5433071,3.5433071 0 0 1 3.54331,3.54331 z" />
    <path
       style="fill:none;stroke:#ff00ff;stroke-width:1px;stroke-linecap:butt;stroke-linejoin:miter;stroke-opacity:1;marker-end:url(#Arrow1Mend-87)"
       d="m 517.32283,474.80313 c 14.17322,10.62992 3.54331,35.43306 3.54331,35.43306"
       id="path5247" />
    <path
       id="path5249"
       style="fill:none;stroke:#ff00ff;stroke-width:0.999213;stroke-linecap:round"
       transform="translate(159.44881,21.259837)"
       d="m 216.14173,464.17322 a 3.5433071,3.5433071 0 0 1 -3.54331,3.5433 3.5433071,3.5433071 0 0 1 -3.54331,-3.5433 3.5433071,3.5433071 0 0 1 3.54331,-3.54331 3.5433071,3.5433071 0 0 1 3.54331,3.54331 z" />
    <path
       id="path5251"
       d="m 372.04724,488.97635 c 7.08661,7.08662 7.08661,31.88977 7.08661,31.88977"
       style="fill:none;stroke:#ff00ff;stroke-width:1px;stroke-linecap:butt;stroke-linejoin:miter;stroke-opacity:1;marker-end:url(#Arrow1Mend-87)" />
    <path
       id="path5253"
       style="fill:none;stroke:#ff00ff;stroke-width:0.999213;stroke-linecap:round"
       transform="translate(336.61416,46.062987)"
       d="m 216.14173,464.17322 a 3.5433071,3.5433071 0 0 1 -3.54331,3.5433 3.5433071,3.5433071 0 0 1 -3.54331,-3.5433 3.5433071,3.5433071 0 0 1 3.54331,-3.54331 3.5433071,3.5433071 0 0 1 3.54331,3.54331 z" />
    <path
       style="fill:none;stroke:#ff00ff;stroke-width:1px;stroke-linecap:butt;stroke-linejoin:miter;stroke-opacity:1;marker-end:url(#Arrow1Mend-87)"
       d="m 552.7559,510.2362 c 14.17323,10.62992 3.5433,35.43307 3.5433,35.43307"
       id="path5255" />
  </g>
</svg>
