<?xml version="1.0" encoding="UTF-8" standalone="no"?>
<!-- Created with Inkscape (http://www.inkscape.org/) -->

<svg
   width="176.282mm"
   height="71.281998mm"
   id="svg2"
   version="1.1"
   viewBox="0 0 624.62125 252.57401"
   xmlns="http://www.w3.org/2000/svg"
   xmlns:svg="http://www.w3.org/2000/svg"
   xmlns:rdf="http://www.w3.org/1999/02/22-rdf-syntax-ns#"
   xmlns:cc="http://creativecommons.org/ns#"
   xmlns:dc="http://purl.org/dc/elements/1.1/">
  <defs
     id="defs4" />
  <metadata
     id="metadata7">
    <rdf:RDF>
      <cc:Work
         rdf:about="">
        <dc:format>image/svg+xml</dc:format>
        <dc:type
           rdf:resource="http://purl.org/dc/dcmitype/StillImage" />
        <dc:title />
      </cc:Work>
    </rdf:RDF>
  </metadata>
  <g
     id="layer1"
     transform="translate(-6.5870068,-13.673602)">
    <path
       id="rect3890"
       style="fill:#aca793;stroke:#484537;stroke-width:0.999213;stroke-linecap:round"
       d="M 24.803148,21.259823 H 612.9921 c 5.88897,0 10.62992,4.740945 10.62992,10.629921 V 248.03148 c 0,5.88898 -4.74095,10.62992 -10.62992,10.62992 H 24.803148 c -5.888976,0 -10.629921,-4.74094 -10.629921,-10.62992 V 31.889744 c 0,-5.888976 4.740945,-10.629921 10.629921,-10.629921 z" />
    <path
       id="rect3049"
       d="M 24.803151,24.803129 H 453.54331 c 3.92599,0 7.08662,3.160631 7.08662,7.086615 V 248.03147 c 0,3.92599 -3.16063,7.08662 -7.08662,7.08662 H 24.803151 c -3.925985,0 -7.086615,-3.16063 -7.086615,-7.08662 V 31.889744 c 0,-3.925984 3.16063,-7.086615 7.086615,-7.086615 z" />
    <path
       style="fill:#005500;stroke:#000000;stroke-width:1px;stroke-linecap:butt;stroke-linejoin:miter;stroke-opacity:1"
       d="m 42.519685,63.779508 7.086614,-7.086614 h 56.692911 l 7.08662,7.086614 -7.08662,7.086614 H 49.606299 Z"
       id="path2987" />
    <path
       id="path2989"
       d="m 42.519685,63.779509 7.086614,7.086614 v 56.692897 l -7.086614,7.08662 -7.086614,-7.08662 V 70.866123 Z"
       style="fill:#005500;stroke:#000000;stroke-width:1px;stroke-linecap:butt;stroke-linejoin:miter;stroke-opacity:1" />
    <path
       style="fill:#55ff55;stroke:#000000;stroke-width:1px;stroke-linecap:butt;stroke-linejoin:miter;stroke-opacity:1"
       d="m 113.38583,63.779526 7.08661,7.086614 v 56.6929 l -7.08661,7.08662 -7.08662,-7.08662 v -56.6929 z"
       id="path2991" />
    <path
       id="path2999"
       d="m 42.519689,134.64565 7.086614,-7.08661 h 56.692907 l 7.08662,7.08661 -7.08662,7.08662 H 49.606303 Z"
       style="fill:#005500;stroke:#000000;stroke-width:1px;stroke-linecap:butt;stroke-linejoin:miter;stroke-opacity:1" />
    <path
       style="fill:#005500;stroke:#000000;stroke-width:1px;stroke-linecap:butt;stroke-linejoin:miter;stroke-opacity:1"
       d="m 42.519689,134.64565 7.086614,7.08662 v 56.69289 l -7.086614,7.08662 -7.086614,-7.08662 v -56.69289 z"
       id="path3001" />
    <path
       id="path3003"
       d="m 113.38583,134.64567 7.08661,7.08661 v 56.6929 l -7.08661,7.08662 -7.08662,-7.08662 v -56.6929 z"
       style="fill:#55ff55;stroke:#000000;stroke-width:1px;stroke-linecap:butt;stroke-linejoin:miter;stroke-opacity:1" />
    <path
       style="fill:#005500;stroke:#000000;stroke-width:1px;stroke-linecap:butt;stroke-linejoin:miter;stroke-opacity:1"
       d="m 42.519693,205.51179 7.086614,-7.08661 h 56.692903 l 7.08662,7.08661 -7.08662,7.08662 H 49.606307 Z"
       id="path3005" />
    <path
       id="path3007"
       d="m 145.27559,63.779508 7.08662,-7.086614 h 56.69291 l 7.08662,7.086614 -7.08662,7.086614 h -56.69291 z"
       style="fill:#55ff55;stroke:#000000;stroke-width:1px;stroke-linecap:butt;stroke-linejoin:miter;stroke-opacity:1" />
    <path
       style="fill:#005500;stroke:#000000;stroke-width:1px;stroke-linecap:butt;stroke-linejoin:miter;stroke-opacity:1"
       d="m 145.27559,63.779509 7.08662,7.086614 v 56.692897 l -7.08662,7.08662 -7.08661,-7.08662 V 70.866123 Z"
       id="path3009" />
    <path
       id="path3011"
       d="m 216.14174,63.779526 7.08661,7.086614 v 56.6929 l -7.08661,7.08662 -7.08662,-7.08662 v -56.6929 z"
       style="fill:#55ff55;stroke:#000000;stroke-width:1px;stroke-linecap:butt;stroke-linejoin:miter;stroke-opacity:1" />
    <path
       style="fill:#55ff55;stroke:#000000;stroke-width:1px;stroke-linecap:butt;stroke-linejoin:miter;stroke-opacity:1"
       d="m 145.2756,134.64565 7.08661,-7.08661 h 56.69291 l 7.08662,7.08661 -7.08662,7.08662 h -56.69291 z"
       id="path3013" />
    <path
       id="path3015"
       d="m 145.2756,134.64565 7.08661,7.08662 v 56.69289 l -7.08661,7.08662 -7.08662,-7.08662 v -56.69289 z"
       style="fill:#55ff55;stroke:#000000;stroke-width:1px;stroke-linecap:butt;stroke-linejoin:miter;stroke-opacity:1" />
    <path
       style="fill:#005500;stroke:#000000;stroke-width:1px;stroke-linecap:butt;stroke-linejoin:miter;stroke-opacity:1"
       d="m 216.14174,134.64567 7.08661,7.08661 v 56.6929 l -7.08661,7.08662 -7.08662,-7.08662 v -56.6929 z"
       id="path3017" />
    <path
       id="path3019"
       d="m 145.2756,205.51179 7.08661,-7.08661 h 56.69291 l 7.08662,7.08661 -7.08662,7.08662 h -56.69291 z"
       style="fill:#55ff55;stroke:#000000;stroke-width:1px;stroke-linecap:butt;stroke-linejoin:miter;stroke-opacity:1" />
    <path
       id="path3021"
       d="m 258.66141,63.779508 7.08661,-7.086614 h 56.69292 l 7.08662,7.086614 -7.08662,7.086614 h -56.69292 z"
       style="fill:#55ff55;stroke:#000000;stroke-width:1px;stroke-linecap:butt;stroke-linejoin:miter;stroke-opacity:1" />
    <path
       style="fill:#005500;stroke:#000000;stroke-width:1px;stroke-linecap:butt;stroke-linejoin:miter;stroke-opacity:1"
       d="m 258.66141,63.779509 7.08661,7.086614 v 56.692897 l -7.08661,7.08662 -7.08661,-7.08662 V 70.866123 Z"
       id="path3023" />
    <path
       id="path3025"
       d="m 329.52756,63.779526 7.08661,7.086614 v 56.6929 l -7.08661,7.08662 -7.08662,-7.08662 v -56.6929 z"
       style="fill:#55ff55;stroke:#000000;stroke-width:1px;stroke-linecap:butt;stroke-linejoin:miter;stroke-opacity:1" />
    <path
       style="fill:#55ff55;stroke:#000000;stroke-width:1px;stroke-linecap:butt;stroke-linejoin:miter;stroke-opacity:1"
       d="m 258.66141,134.64565 7.08662,-7.08661 h 56.69291 l 7.08662,7.08661 -7.08662,7.08662 h -56.69291 z"
       id="path3027" />
    <path
       id="path3029"
       d="m 258.66141,134.64565 7.08662,7.08662 v 56.69289 l -7.08662,7.08662 -7.08661,-7.08662 v -56.69289 z"
       style="fill:#005500;stroke:#000000;stroke-width:1px;stroke-linecap:butt;stroke-linejoin:miter;stroke-opacity:1" />
    <path
       style="fill:#55ff55;stroke:#000000;stroke-width:1px;stroke-linecap:butt;stroke-linejoin:miter;stroke-opacity:1"
       d="m 329.52756,134.64567 7.08661,7.08661 v 56.6929 l -7.08661,7.08662 -7.08662,-7.08662 v -56.6929 z"
       id="path3031" />
    <path
       id="path3033"
       d="m 258.66142,205.51179 7.08661,-7.08661 h 56.69291 l 7.08662,7.08661 -7.08662,7.08662 h -56.69291 z"
       style="fill:#55ff55;stroke:#000000;stroke-width:1px;stroke-linecap:butt;stroke-linejoin:miter;stroke-opacity:1" />
    <path
       style="fill:#005500;stroke:#000000;stroke-width:1px;stroke-linecap:butt;stroke-linejoin:miter;stroke-opacity:1"
       d="m 361.41733,63.779508 7.08662,-7.086614 h 56.69291 l 7.08662,7.086614 -7.08662,7.086614 h -56.69291 z"
       id="path3035" />
    <path
       id="path3037"
       d="m 361.41733,63.779509 7.08662,7.086614 v 56.692897 l -7.08662,7.08662 -7.08661,-7.08662 V 70.866123 Z"
       style="fill:#55ff55;stroke:#000000;stroke-width:1px;stroke-linecap:butt;stroke-linejoin:miter;stroke-opacity:1" />
    <path
       style="fill:#55ff55;stroke:#000000;stroke-width:1px;stroke-linecap:butt;stroke-linejoin:miter;stroke-opacity:1"
       d="m 432.28348,63.779526 7.08661,7.086614 v 56.6929 l -7.08661,7.08662 -7.08662,-7.08662 v -56.6929 z"
       id="path3039" />
    <path
       id="path3041"
       d="m 361.41734,134.64565 7.08661,-7.08661 h 56.69291 l 7.08662,7.08661 -7.08662,7.08662 h -56.69291 z"
       style="fill:#55ff55;stroke:#000000;stroke-width:1px;stroke-linecap:butt;stroke-linejoin:miter;stroke-opacity:1" />
    <path
       style="fill:#005500;stroke:#000000;stroke-width:1px;stroke-linecap:butt;stroke-linejoin:miter;stroke-opacity:1"
       d="m 361.41734,134.64565 7.08661,7.08662 v 56.69289 l -7.08661,7.08662 -7.08662,-7.08662 v -56.69289 z"
       id="path3043" />
    <path
       id="path3045"
       d="m 432.28348,134.64567 7.08661,7.08661 v 56.6929 l -7.08661,7.08662 -7.08662,-7.08662 v -56.6929 z"
       style="fill:#55ff55;stroke:#000000;stroke-width:1px;stroke-linecap:butt;stroke-linejoin:miter;stroke-opacity:1" />
    <path
       style="fill:#005500;stroke:#000000;stroke-width:1px;stroke-linecap:butt;stroke-linejoin:miter;stroke-opacity:1"
       d="m 361.41734,205.51179 7.08661,-7.08661 h 56.69291 l 7.08662,7.08661 -7.08662,7.08662 h -56.69291 z"
       id="path3047" />
    <path
       id="path3070"
       style="fill:#005500"
       transform="translate(-1.4943401e-6,8.8582661)"
       d="m 88.582679,228.54329 a 8.8582678,8.8582678 0 0 1 -8.858268,8.85827 8.8582678,8.8582678 0 0 1 -8.858268,-8.85827 8.8582678,8.8582678 0 0 1 8.858268,-8.85827 8.8582678,8.8582678 0 0 1 8.858268,8.85827 z" />
    <path
       id="path3072"
       style="fill:#55ff55"
       transform="translate(102.7559,8.8582661)"
       d="m 88.582679,228.54329 a 8.8582678,8.8582678 0 0 1 -8.858268,8.85827 8.8582678,8.8582678 0 0 1 -8.858268,-8.85827 8.8582678,8.8582678 0 0 1 8.858268,-8.85827 8.8582678,8.8582678 0 0 1 8.858268,8.85827 z" />
    <path
       id="path3842"
       style="fill:#005500"
       transform="translate(216.14172,8.8582661)"
       d="m 88.582679,228.54329 a 8.8582678,8.8582678 0 0 1 -8.858268,8.85827 8.8582678,8.8582678 0 0 1 -8.858268,-8.85827 8.8582678,8.8582678 0 0 1 8.858268,-8.85827 8.8582678,8.8582678 0 0 1 8.858268,8.85827 z" />
    <path
       id="path3844"
       style="fill:#005500"
       transform="translate(318.89763,8.8582661)"
       d="m 88.582679,228.54329 a 8.8582678,8.8582678 0 0 1 -8.858268,8.85827 8.8582678,8.8582678 0 0 1 -8.858268,-8.85827 8.8582678,8.8582678 0 0 1 8.858268,-8.85827 8.8582678,8.8582678 0 0 1 8.858268,8.85827 z" />
    <g
       id="g3870"
       transform="translate(-7.0866235)">
      <path
         id="rect3846"
         style="fill:#c8c4b7;stroke:#484537"
         d="m 485.43308,42.519665 h 127.55906 c 3.92598,0 7.08661,3.160629 7.08661,7.086612 v 21.259847 c 0,3.925983 -3.16063,7.086612 -7.08661,7.086612 H 485.43308 c -3.92598,0 -7.08661,-3.160629 -7.08661,-7.086612 V 49.606277 c 0,-3.925983 3.16063,-7.086612 7.08661,-7.086612 z" />
      <g
         aria-label="Démarrer / Arrêter"
         id="text3854"
         style="line-height:0%;font-family:Iwona;-inkscape-font-specification:Iwona;letter-spacing:0px;word-spacing:0px">
        <path
           d="m 495.83548,59.396201 c 0,-3.424 -1.872,-5.76 -5.168,-5.76 -0.992,0 -1.984,0.048 -2.96,0.16 h -1.28 v 11.2 h 1.28 c 0.976,0.112 1.968,0.16 2.96,0.16 3.296,0 5.168,-2.336 5.168,-5.76 z m -1.568,0 c 0,2.544 -1.296,5.024 -3.6,5.024 -0.976,0 -1.952,-0.048 -2.928,-0.16 v -9.728 c 0.976,-0.112 1.952,-0.16 2.928,-0.16 2.304,0 3.6,2.48 3.6,5.024 z"
           style="font-size:16px;line-height:1.25"
           id="path71" />
        <path
           d="m 503.86747,61.556201 v -0.16 c 0,-2.256 -1.232,-3.76 -3.088,-3.76 -1.872,0 -3.104,1.504 -3.104,3.76 0,2.256 1.232,3.76 3.104,3.76 0.8,0 1.584,-0.256 2.24,-0.72 v -0.672 c -0.752,0.48 -1.36,0.656 -2.24,0.656 -1.36,0 -1.696,-1.296 -1.696,-2.864 z m -1.408,-0.672 h -3.376 c 0,-1.28 0.544,-2.576 1.696,-2.576 1.136,0 1.68,1.296 1.68,2.576 z m 0.048,-7.088 h -1.44 c 0,1.072 -0.336,2.128 -0.96,2.992 h 0.672 c 0.848,-0.848 1.728,-1.792 1.728,-2.992 z"
           style="font-size:16px;line-height:1.25"
           id="path73" />
        <path
           d="m 514.68345,64.996201 v -5.2 c 0,-1.12 -0.656,-2.16 -1.696,-2.16 -0.896,0 -1.728,0.464 -2.208,1.216 -0.256,-0.704 -0.8,-1.216 -1.536,-1.216 -0.832,0 -1.504,0.576 -2.048,1.216 v -1.056 h -1.248 v 7.2 h 1.248 v -5.664 c 0.384,-0.496 0.864,-0.96 1.488,-0.96 0.656,0 1.008,0.704 1.008,1.424 v 5.2 h 1.248 v -5.2 c 0,-0.192 -0.016,-0.368 -0.048,-0.56 0.384,-0.496 0.912,-0.864 1.536,-0.864 0.656,0 1.008,0.704 1.008,1.424 v 5.2 z"
           style="font-size:16px;line-height:1.25"
           id="path75" />
        <path
           d="m 522.79542,64.996201 v -4.48 c 0,-1.504 -0.928,-2.88 -2.32,-2.88 -1.024,0 -1.984,0.352 -2.848,0.896 v 0.496 c 0.72,-0.4 1.52,-0.656 2.352,-0.656 0.992,0 1.568,1.056 1.568,2.144 v 0.288 c -0.624,-0.272 -1.296,-0.432 -1.968,-0.432 -1.712,0 -2.976,0.784 -2.976,2.4 0,1.536 1.12,2.384 2.736,2.384 0.816,0 1.568,-0.368 2.208,-0.88 v 0.72 z m -1.248,-1.392 c -0.48,0.48 -1.072,0.88 -1.76,0.88 -1.072,0 -1.776,-0.656 -1.776,-1.712 0,-0.976 0.8,-1.728 1.776,-1.728 0.608,0 1.216,0.16 1.76,0.432 z"
           style="font-size:16px;line-height:1.25"
           id="path77" />
        <path
           d="m 529.33941,58.788201 v -0.992 c -0.176,-0.064 -0.368,-0.112 -0.544,-0.112 -0.896,0 -1.616,0.624 -2.192,1.312 v -1.2 h -1.248 v 7.2 h 1.248 v -5.328 c 0.48,-0.56 1.088,-1.04 1.824,-1.04 0.304,0 0.624,0.064 0.912,0.16 z"
           style="font-size:16px;line-height:1.25"
           id="path79" />
        <path
           d="m 534.92339,58.788201 v -0.992 c -0.176,-0.064 -0.368,-0.112 -0.544,-0.112 -0.896,0 -1.616,0.624 -2.192,1.312 v -1.2 h -1.248 v 7.2 h 1.248 v -5.328 c 0.48,-0.56 1.088,-1.04 1.824,-1.04 0.304,0 0.624,0.064 0.912,0.16 z"
           style="font-size:16px;line-height:1.25"
           id="path81" />
        <path
           d="m 542.31538,61.556201 v -0.16 c 0,-2.256 -1.232,-3.76 -3.088,-3.76 -1.872,0 -3.104,1.504 -3.104,3.76 0,2.256 1.232,3.76 3.104,3.76 0.8,0 1.584,-0.256 2.24,-0.72 v -0.672 c -0.752,0.48 -1.36,0.656 -2.24,0.656 -1.36,0 -1.696,-1.296 -1.696,-2.864 z m -1.408,-0.672 h -3.376 c 0,-1.28 0.544,-2.576 1.696,-2.576 1.136,0 1.68,1.296 1.68,2.576 z"
           style="font-size:16px;line-height:1.25"
           id="path83" />
        <path
           d="m 548.37936,58.788201 v -0.992 c -0.176,-0.064 -0.368,-0.112 -0.544,-0.112 -0.896,0 -1.616,0.624 -2.192,1.312 v -1.2 h -1.248 v 7.2 h 1.248 v -5.328 c 0.48,-0.56 1.088,-1.04 1.824,-1.04 0.304,0 0.624,0.064 0.912,0.16 z"
           style="font-size:16px;line-height:1.25"
           id="path85" />
        <path
           d="m 558.73131,53.796201 h -0.832 l -3.264,13.04 h 0.832 z"
           style="font-size:16px;line-height:1.25"
           id="path87" />
        <path
           d="m 574.42727,64.996201 -4.064,-11.2 h -1.392 l -4.144,11.2 h 0.784 l 1.456,-3.92 h 4.544 l 1.424,3.92 z m -3.088,-4.656 h -4 l 2.016,-5.472 z"
           style="font-size:16px;line-height:1.25"
           id="path89" />
        <path
           d="m 579.85125,58.788201 v -0.992 c -0.176,-0.064 -0.368,-0.112 -0.544,-0.112 -0.896,0 -1.616,0.624 -2.192,1.312 v -1.2 h -1.248 v 7.2 h 1.248 v -5.328 c 0.48,-0.56 1.088,-1.04 1.824,-1.04 0.304,0 0.624,0.064 0.912,0.16 z"
           style="font-size:16px;line-height:1.25"
           id="path91" />
        <path
           d="m 585.43523,58.788201 v -0.992 c -0.176,-0.064 -0.368,-0.112 -0.544,-0.112 -0.896,0 -1.616,0.624 -2.192,1.312 v -1.2 h -1.248 v 7.2 h 1.248 v -5.328 c 0.48,-0.56 1.088,-1.04 1.824,-1.04 0.304,0 0.624,0.064 0.912,0.16 z"
           style="font-size:16px;line-height:1.25"
           id="path93" />
        <path
           d="m 592.82722,61.556201 v -0.16 c 0,-2.256 -1.232,-3.76 -3.088,-3.76 -1.872,0 -3.104,1.504 -3.104,3.76 0,2.256 1.232,3.76 3.104,3.76 0.8,0 1.584,-0.256 2.24,-0.72 v -0.672 c -0.752,0.48 -1.36,0.656 -2.24,0.656 -1.36,0 -1.696,-1.296 -1.696,-2.864 z m -1.408,-0.672 h -3.376 c 0,-1.28 0.544,-2.576 1.696,-2.576 1.136,0 1.68,1.296 1.68,2.576 z m 0.72,-4.096 -1.728,-2.992 h -1.344 l -1.728,2.992 h 0.672 l 1.712,-2.16 1.744,2.16 z"
           style="font-size:16px;line-height:1.25"
           id="path95" />
        <path
           d="m 598.2992,64.436201 v -0.48 c -0.256,0.256 -0.56,0.464 -0.928,0.464 -0.576,0 -0.608,-0.752 -0.608,-1.424 v -4.528 h 1.536 v -0.672 h -1.536 v -2.4 h -0.752 c 0,1.28 -0.736,2.48 -1.904,2.48 v 0.592 h 1.408 v 4.528 c 0,1.056 0.336,2.16 1.248,2.16 0.592,0 1.104,-0.32 1.536,-0.72 z"
           style="font-size:16px;line-height:1.25"
           id="path97" />
        <path
           d="m 605.85117,61.556201 v -0.16 c 0,-2.256 -1.232,-3.76 -3.088,-3.76 -1.872,0 -3.104,1.504 -3.104,3.76 0,2.256 1.232,3.76 3.104,3.76 0.8,0 1.584,-0.256 2.24,-0.72 v -0.672 c -0.752,0.48 -1.36,0.656 -2.24,0.656 -1.36,0 -1.696,-1.296 -1.696,-2.864 z m -1.408,-0.672 h -3.376 c 0,-1.28 0.544,-2.576 1.696,-2.576 1.136,0 1.68,1.296 1.68,2.576 z"
           style="font-size:16px;line-height:1.25"
           id="path99" />
        <path
           d="m 611.91515,58.788201 v -0.992 c -0.176,-0.064 -0.368,-0.112 -0.544,-0.112 -0.896,0 -1.616,0.624 -2.192,1.312 v -1.2 h -1.248 v 7.2 h 1.248 v -5.328 c 0.48,-0.56 1.088,-1.04 1.824,-1.04 0.304,0 0.624,0.064 0.912,0.16 z"
           style="font-size:16px;line-height:1.25"
           id="path101" />
      </g>
    </g>
    <g
       id="g3875"
       transform="translate(-7.0866235)">
      <path
         id="rect3848"
         style="fill:#c8c4b7;stroke:#484537"
         d="m 485.43308,95.669273 h 127.55906 c 3.92598,0 7.08661,3.160629 7.08661,7.086617 v 21.25984 c 0,3.92599 -3.16063,7.08661 -7.08661,7.08661 H 485.43308 c -3.92598,0 -7.08661,-3.16062 -7.08661,-7.08661 v -21.25984 c 0,-3.925988 3.16063,-7.086617 7.08661,-7.086617 z" />
      <g
         aria-label="Sélection"
         id="text3858"
         style="line-height:0%;font-family:Iwona;-inkscape-font-specification:Iwona;letter-spacing:0px;word-spacing:0px">
        <path
           d="m 526.99484,115.73781 c 0,-1.968 -2,-3.136 -4.064,-3.568 -1.376,-0.288 -2.928,-0.64 -2.928,-1.92 0,-1.264 1.36,-1.984 2.768,-1.984 1.296,0 2.56,0.384 3.584,1.184 v -0.64 c -1.024,-0.8 -2.288,-1.28 -3.584,-1.28 -2.08,0 -4.032,1.168 -4.032,3.056 0,1.808 1.952,2.72 3.856,3.12 1.52,0.32 3.136,0.944 3.136,2.368 0,1.456 -1.424,2.432 -2.96,2.432 -1.488,0 -2.96,-0.384 -4.208,-1.184 v 0.64 c 1.264,0.8 2.704,1.28 4.208,1.28 2.208,0 4.224,-1.424 4.224,-3.504 z"
           style="font-size:16px;line-height:1.25"
           id="path105" />
        <path
           d="m 535.02683,115.54581 v -0.16 c 0,-2.256 -1.232,-3.76 -3.088,-3.76 -1.872,0 -3.104,1.504 -3.104,3.76 0,2.256 1.232,3.76 3.104,3.76 0.8,0 1.584,-0.256 2.24,-0.72 v -0.672 c -0.752,0.48 -1.36,0.656 -2.24,0.656 -1.36,0 -1.696,-1.296 -1.696,-2.864 z m -1.408,-0.672 h -3.376 c 0,-1.28 0.544,-2.576 1.696,-2.576 1.136,0 1.68,1.296 1.68,2.576 z m 0.048,-7.088 h -1.44 c 0,1.072 -0.336,2.128 -0.96,2.992 h 0.672 c 0.848,-0.848 1.728,-1.792 1.728,-2.992 z"
           style="font-size:16px;line-height:1.25"
           id="path107" />
        <path
           d="m 540.11481,118.42581 v -0.48 c -0.304,0.256 -0.656,0.464 -1.056,0.464 -0.592,0 -0.704,-0.736 -0.704,-1.424 v -9.2 h -1.248 v 9.2 c 0,1.072 0.416,2.16 1.36,2.16 0.608,0 1.184,-0.304 1.648,-0.72 z"
           style="font-size:16px;line-height:1.25"
           id="path109" />
        <path
           d="m 547.50678,115.54581 v -0.16 c 0,-2.256 -1.232,-3.76 -3.088,-3.76 -1.872,0 -3.104,1.504 -3.104,3.76 0,2.256 1.232,3.76 3.104,3.76 0.8,0 1.584,-0.256 2.24,-0.72 v -0.672 c -0.752,0.48 -1.36,0.656 -2.24,0.656 -1.36,0 -1.696,-1.296 -1.696,-2.864 z m -1.408,-0.672 h -3.376 c 0,-1.28 0.544,-2.576 1.696,-2.576 1.136,0 1.68,1.296 1.68,2.576 z"
           style="font-size:16px;line-height:1.25"
           id="path111" />
        <path
           d="m 554.77076,113.44981 v -0.672 c -0.512,-0.72 -1.344,-1.152 -2.24,-1.152 -2,0 -3.344,1.504 -3.344,3.76 0,2.256 1.344,3.76 3.344,3.76 0.832,0 1.616,-0.416 2.08,-1.104 v -0.672 c -0.544,0.816 -1.104,1.104 -2.08,1.104 -1.152,0 -1.936,-1.232 -1.936,-3.088 0,-1.856 0.784,-3.088 1.936,-3.088 0.992,0 1.664,0.352 2.24,1.152 z"
           style="font-size:16px;line-height:1.25"
           id="path113" />
        <path
           d="m 559.84275,118.42581 v -0.48 c -0.256,0.256 -0.56,0.464 -0.928,0.464 -0.576,0 -0.608,-0.752 -0.608,-1.424 v -4.528 h 1.536 v -0.672 h -1.536 v -2.4 h -0.752 c 0,1.28 -0.736,2.48 -1.904,2.48 v 0.592 h 1.408 v 4.528 c 0,1.056 0.336,2.16 1.248,2.16 0.592,0 1.104,-0.32 1.536,-0.72 z"
           style="font-size:16px;line-height:1.25"
           id="path115" />
        <path
           d="m 564.53072,118.42581 v -0.48 c -0.304,0.256 -0.656,0.464 -1.056,0.464 -0.592,0 -0.704,-0.736 -0.704,-1.424 v -5.2 h -1.248 v 5.2 c 0,1.072 0.416,2.16 1.36,2.16 0.608,0 1.184,-0.304 1.648,-0.72 z m -1.6,-9.136 c 0,-0.432 -0.352,-0.784 -0.784,-0.784 -0.432,0 -0.784,0.352 -0.784,0.784 0,0.432 0.352,0.784 0.784,0.784 0.432,0 0.784,-0.352 0.784,-0.784 z"
           style="font-size:16px;line-height:1.25"
           id="path117" />
        <path
           d="m 571.92271,115.38581 c 0,-2.448 -1.088,-3.76 -3.088,-3.76 -2.016,0 -3.104,1.312 -3.104,3.76 0,2.448 1.088,3.76 3.104,3.76 2,0 3.088,-1.312 3.088,-3.76 z m -1.408,0 c 0,2 -0.592,3.088 -1.68,3.088 -1.104,0 -1.696,-1.088 -1.696,-3.088 0,-2 0.592,-3.088 1.696,-3.088 1.088,0 1.68,1.088 1.68,3.088 z"
           style="font-size:16px;line-height:1.25"
           id="path119" />
        <path
           d="m 579.8747,118.98581 v -5.2 c 0,-1.168 -0.896,-2.16 -2.048,-2.16 -0.96,0 -1.808,0.544 -2.496,1.216 v -1.056 h -1.248 v 7.2 h 1.248 v -5.648 c 0.544,-0.544 1.216,-0.976 1.968,-0.976 0.752,0 1.328,0.656 1.328,1.424 v 5.2 z"
           style="font-size:16px;line-height:1.25"
           id="path121" />
      </g>
    </g>
    <g
       id="g3880"
       transform="translate(-7.0866235)">
      <path
         id="rect3850"
         style="fill:#c8c4b7;stroke:#484537"
         d="m 485.43308,148.81888 h 127.55906 c 3.92598,0 7.08661,3.16063 7.08661,7.08661 v 21.25985 c 0,3.92598 -3.16063,7.08661 -7.08661,7.08661 H 485.43308 c -3.92598,0 -7.08661,-3.16063 -7.08661,-7.08661 v -21.25985 c 0,-3.92598 3.16063,-7.08661 7.08661,-7.08661 z" />
      <g
         aria-label="+"
         id="text3862"
         style="line-height:0%;font-family:Iwona;-inkscape-font-specification:Iwona;letter-spacing:0px;word-spacing:0px">
        <path
           d="m 560.6652,167.44723 v -1.82366 h -10.54076 v -10.54075 h -1.82366 v 10.54075 h -10.54075 v 1.82366 h 10.54075 v 10.54076 h 1.82366 v -10.54076 z"
           style="font-size:36.4732px;line-height:1.25"
           id="path125" />
      </g>
    </g>
    <g
       id="g3885"
       transform="translate(-7.0866235)">
      <path
         id="rect3852"
         style="fill:#c8c4b7;stroke:#484537"
         d="m 485.43308,201.96849 h 127.55906 c 3.92598,0 7.08661,3.16063 7.08661,7.08661 v 21.25985 c 0,3.92598 -3.16063,7.08661 -7.08661,7.08661 H 485.43308 c -3.92598,0 -7.08661,-3.16063 -7.08661,-7.08661 V 209.0551 c 0,-3.92598 3.16063,-7.08661 7.08661,-7.08661 z" />
      <g
         aria-label="-"
         id="text3866"
         style="line-height:0%;font-family:Iwona;-inkscape-font-specification:Iwona;letter-spacing:0px;word-spacing:0px">
        <path
           d="m 559.01944,221.15753 v -2.945 h -19.6137 v 2.945 z"
           style="font-size:58.9px;line-height:1.25"
           id="path129" />
      </g>
    </g>
    <g
       aria-label="Minutes"
       id="text3135"
       style="line-height:0%;font-family:Iwona;-inkscape-font-specification:Sans;text-align:center;letter-spacing:0px;word-spacing:0px;text-anchor:middle;fill:#ffffff">
      <path
         d="m 114.93629,42.519665 -0.64,-11.2 h -1.056 l -4.496,9.456 -4.512,-9.456 h -1.056 l -0.64,11.2 h 0.736 l 0.512,-9.072 4.336,9.072 h 0.592 l 4.384,-9.184 0.528,9.184 z"
         style="font-size:16px;line-height:1.25"
         id="path132" />
      <path
         d="m 120.10427,41.959665 v -0.48 c -0.304,0.256 -0.656,0.464 -1.056,0.464 -0.592,0 -0.704,-0.736 -0.704,-1.424 v -5.2 h -1.248 v 5.2 c 0,1.072 0.416,2.16 1.36,2.16 0.608,0 1.184,-0.304 1.648,-0.72 z m -1.6,-9.136 c 0,-0.432 -0.352,-0.784 -0.784,-0.784 -0.432,0 -0.784,0.352 -0.784,0.784 0,0.432 0.352,0.784 0.784,0.784 0.432,0 0.784,-0.352 0.784,-0.784 z"
         style="font-size:16px;line-height:1.25"
         id="path134" />
      <path
         d="m 127.49626,42.519665 v -5.2 c 0,-1.168 -0.896,-2.16 -2.048,-2.16 -0.96,0 -1.808,0.544 -2.496,1.216 v -1.056 h -1.248 v 7.2 h 1.248 v -5.648 c 0.544,-0.544 1.216,-0.976 1.968,-0.976 0.752,0 1.328,0.656 1.328,1.424 v 5.2 z"
         style="font-size:16px;line-height:1.25"
         id="path136" />
      <path
         d="m 135.68823,42.519665 v -7.2 h -1.248 v 5.648 c -0.544,0.544 -1.216,0.976 -1.968,0.976 -0.752,0 -1.328,-0.656 -1.328,-1.424 v -5.2 h -1.248 v 5.2 c 0,1.168 0.896,2.16 2.048,2.16 0.96,0 1.808,-0.544 2.496,-1.216 v 1.056 z"
         style="font-size:16px;line-height:1.25"
         id="path138" />
      <path
         d="m 141.6402,41.959665 v -0.48 c -0.256,0.256 -0.56,0.464 -0.928,0.464 -0.576,0 -0.608,-0.752 -0.608,-1.424 v -4.528 h 1.536 v -0.672 h -1.536 v -2.4 h -0.752 c 0,1.28 -0.736,2.48 -1.904,2.48 v 0.592 h 1.408 v 4.528 c 0,1.056 0.336,2.16 1.248,2.16 0.592,0 1.104,-0.32 1.536,-0.72 z"
         style="font-size:16px;line-height:1.25"
         id="path140" />
      <path
         d="m 149.19218,39.079665 v -0.16 c 0,-2.256 -1.232,-3.76 -3.088,-3.76 -1.872,0 -3.104,1.504 -3.104,3.76 0,2.256 1.232,3.76 3.104,3.76 0.8,0 1.584,-0.256 2.24,-0.72 v -0.672 c -0.752,0.48 -1.36,0.656 -2.24,0.656 -1.36,0 -1.696,-1.296 -1.696,-2.864 z m -1.408,-0.672 h -3.376 c 0,-1.28 0.544,-2.576 1.696,-2.576 1.136,0 1.68,1.296 1.68,2.576 z"
         style="font-size:16px;line-height:1.25"
         id="path142" />
      <path
         d="m 156.13616,40.471665 c 0,-1.264 -1.344,-1.92 -2.656,-2.24 -0.768,-0.192 -1.6,-0.512 -1.6,-1.264 0,-0.688 0.704,-1.136 1.472,-1.136 0.848,0 1.696,0.256 2.4,0.72 v -0.672 c -0.704,-0.464 -1.552,-0.72 -2.4,-0.72 -1.392,0 -2.672,0.848 -2.672,2.144 0,1.168 1.296,1.712 2.528,2.016 0.848,0.208 1.728,0.656 1.728,1.472 0,0.752 -0.768,1.216 -1.584,1.216 -0.992,0 -1.952,-0.24 -2.8,-0.72 v 0.672 c 0.848,0.48 1.808,0.72 2.8,0.72 1.44,0 2.784,-0.864 2.784,-2.208 z"
         style="font-size:16px;line-height:1.25"
         id="path144" />
    </g>
    <g
       aria-label="Secondes"
       id="text3139"
       style="line-height:0%;font-family:Iwona;-inkscape-font-specification:Sans;text-align:center;letter-spacing:0px;word-spacing:0px;text-anchor:middle;fill:#ffffff">
      <path
         d="m 322.55,39.271665 c 0,-1.968 -2,-3.136 -4.064,-3.568 -1.376,-0.288 -2.928,-0.64 -2.928,-1.92 0,-1.264 1.36,-1.984 2.768,-1.984 1.296,0 2.56,0.384 3.584,1.184 v -0.64 c -1.024,-0.8 -2.288,-1.28 -3.584,-1.28 -2.08,0 -4.032,1.168 -4.032,3.056 0,1.808 1.952,2.72 3.856,3.12 1.52,0.32 3.136,0.944 3.136,2.368 0,1.456 -1.424,2.432 -2.96,2.432 -1.488,0 -2.96,-0.384 -4.208,-1.184 v 0.64 c 1.264,0.8 2.704,1.28 4.208,1.28 2.208,0 4.224,-1.424 4.224,-3.504 z"
         style="font-size:16px;line-height:1.25"
         id="path147" />
      <path
         d="m 330.58199,39.079665 v -0.16 c 0,-2.256 -1.232,-3.76 -3.088,-3.76 -1.872,0 -3.104,1.504 -3.104,3.76 0,2.256 1.232,3.76 3.104,3.76 0.8,0 1.584,-0.256 2.24,-0.72 v -0.672 c -0.752,0.48 -1.36,0.656 -2.24,0.656 -1.36,0 -1.696,-1.296 -1.696,-2.864 z m -1.408,-0.672 h -3.376 c 0,-1.28 0.544,-2.576 1.696,-2.576 1.136,0 1.68,1.296 1.68,2.576 z"
         style="font-size:16px;line-height:1.25"
         id="path149" />
      <path
         d="m 337.84597,36.983665 v -0.672 c -0.512,-0.72 -1.344,-1.152 -2.24,-1.152 -2,0 -3.344,1.504 -3.344,3.76 0,2.256 1.344,3.76 3.344,3.76 0.832,0 1.616,-0.416 2.08,-1.104 v -0.672 c -0.544,0.816 -1.104,1.104 -2.08,1.104 -1.152,0 -1.936,-1.232 -1.936,-3.088 0,-1.856 0.784,-3.088 1.936,-3.088 0.992,0 1.664,0.352 2.24,1.152 z"
         style="font-size:16px;line-height:1.25"
         id="path151" />
      <path
         d="m 345.31796,38.919665 c 0,-2.448 -1.088,-3.76 -3.088,-3.76 -2.016,0 -3.104,1.312 -3.104,3.76 0,2.448 1.088,3.76 3.104,3.76 2,0 3.088,-1.312 3.088,-3.76 z m -1.408,0 c 0,2 -0.592,3.088 -1.68,3.088 -1.104,0 -1.696,-1.088 -1.696,-3.088 0,-2 0.592,-3.088 1.696,-3.088 1.088,0 1.68,1.088 1.68,3.088 z"
         style="font-size:16px;line-height:1.25"
         id="path153" />
      <path
         d="m 353.26995,42.519665 v -5.2 c 0,-1.168 -0.896,-2.16 -2.048,-2.16 -0.96,0 -1.808,0.544 -2.496,1.216 v -1.056 h -1.248 v 7.2 h 1.248 v -5.648 c 0.544,-0.544 1.216,-0.976 1.968,-0.976 0.752,0 1.328,0.656 1.328,1.424 v 5.2 z"
         style="font-size:16px;line-height:1.25"
         id="path155" />
      <path
         d="m 361.54192,42.519665 v -11.2 h -1.248 v 4.272 c -0.624,-0.272 -1.296,-0.432 -1.968,-0.432 -2,0 -2.976,1.6 -2.976,3.76 0,2.128 0.8,3.76 2.736,3.76 0.816,0 1.568,-0.368 2.208,-0.88 v 0.72 z m -1.248,-1.392 c -0.48,0.48 -1.072,0.88 -1.76,0.88 -1.456,0 -1.776,-1.408 -1.776,-3.088 0,-1.504 0.464,-3.088 1.776,-3.088 0.608,0 1.216,0.16 1.76,0.432 z"
         style="font-size:16px;line-height:1.25"
         id="path157" />
      <path
         d="m 369.89391,39.079665 v -0.16 c 0,-2.256 -1.232,-3.76 -3.088,-3.76 -1.872,0 -3.104,1.504 -3.104,3.76 0,2.256 1.232,3.76 3.104,3.76 0.8,0 1.584,-0.256 2.24,-0.72 v -0.672 c -0.752,0.48 -1.36,0.656 -2.24,0.656 -1.36,0 -1.696,-1.296 -1.696,-2.864 z m -1.408,-0.672 h -3.376 c 0,-1.28 0.544,-2.576 1.696,-2.576 1.136,0 1.68,1.296 1.68,2.576 z"
         style="font-size:16px;line-height:1.25"
         id="path159" />
      <path
         d="m 376.83789,40.471665 c 0,-1.264 -1.344,-1.92 -2.656,-2.24 -0.768,-0.192 -1.6,-0.512 -1.6,-1.264 0,-0.688 0.704,-1.136 1.472,-1.136 0.848,0 1.696,0.256 2.4,0.72 v -0.672 c -0.704,-0.464 -1.552,-0.72 -2.4,-0.72 -1.392,0 -2.672,0.848 -2.672,2.144 0,1.168 1.296,1.712 2.528,2.016 0.848,0.208 1.728,0.656 1.728,1.472 0,0.752 -0.768,1.216 -1.584,1.216 -0.992,0 -1.952,-0.24 -2.8,-0.72 v 0.672 c 0.848,0.48 1.808,0.72 2.8,0.72 1.44,0 2.784,-0.864 2.784,-2.208 z"
         style="font-size:16px;line-height:1.25"
         id="path161" />
    </g>
    <path
       style="fill:none;stroke:#ffffff;stroke-width:0.999;stroke-linecap:butt;stroke-linejoin:miter;stroke-miterlimit:4;stroke-dasharray:none;stroke-opacity:1"
       d="M 46.062992,46.06297 H 212.59843"
       id="path3143" />
    <path
       id="path3913"
       d="M 262.20472,46.062973 H 428.74016"
       style="fill:none;stroke:#ffffff;stroke-width:0.999;stroke-linecap:butt;stroke-linejoin:miter;stroke-miterlimit:4;stroke-dasharray:none;stroke-opacity:1" />
  </g>
</svg>
