<?xml version="1.0" encoding="UTF-8" standalone="no"?>
<!-- Created with Inkscape (http://www.inkscape.org/) -->

<svg
   width="56.975773mm"
   height="25.005671mm"
   viewBox="0 0 201.88267 88.602773"
   id="svg2"
   version="1.1"
   xmlns="http://www.w3.org/2000/svg"
   xmlns:svg="http://www.w3.org/2000/svg"
   xmlns:rdf="http://www.w3.org/1999/02/22-rdf-syntax-ns#"
   xmlns:cc="http://creativecommons.org/ns#"
   xmlns:dc="http://purl.org/dc/elements/1.1/">
  <defs
     id="defs4">
    <marker
       orient="auto"
       refY="0"
       refX="0"
       id="Arrow1Mend-3"
       style="overflow:visible">
      <path
         id="path17924-5"
         d="M 0,0 5,-5 -12.5,0 5,5 Z"
         style="fill-rule:evenodd;stroke:#000000;stroke-width:1.00000003pt;marker-start:none"
         transform="matrix(-0.4,0,0,-0.4,-4,0)" />
    </marker>
    <marker
       orient="auto"
       refY="0"
       refX="0"
       id="Arrow1Mend-3-58"
       style="overflow:visible">
      <path
         id="path17924-5-5"
         d="M 0,0 5,-5 -12.5,0 5,5 Z"
         style="fill-rule:evenodd;stroke:#000000;stroke-width:1.00000003pt;marker-start:none"
         transform="matrix(-0.4,0,0,-0.4,-4,0)" />
    </marker>
    <marker
       orient="auto"
       refY="0"
       refX="0"
       id="Arrow1Mend-3-52-0"
       style="overflow:visible">
      <path
         id="path17924-5-0-6"
         d="M 0,0 5,-5 -12.5,0 5,5 Z"
         style="fill-rule:evenodd;stroke:#000000;stroke-width:1.00000003pt;marker-start:none"
         transform="matrix(-0.4,0,0,-0.4,-4,0)" />
    </marker>
  </defs>
  <metadata
     id="metadata7">
    <rdf:RDF>
      <cc:Work
         rdf:about="">
        <dc:format>image/svg+xml</dc:format>
        <dc:type
           rdf:resource="http://purl.org/dc/dcmitype/StillImage" />
        <dc:title />
      </cc:Work>
    </rdf:RDF>
  </metadata>
  <g
     id="layer1"
     transform="translate(-42.605514,-124.14569)">
    <g
       id="g3771"
       transform="translate(-102.75593,34.624115)">
      <path
         style="fill:none;stroke:#000000;stroke-width:1px;stroke-linecap:butt;stroke-linejoin:miter;stroke-opacity:1;marker-end:url(#Arrow1Mend-3-58)"
         d="m 216.14246,156.71449 h 10.62922 v -14.17323 h 14.17322"
         id="path3773" />
      <g
         transform="translate(-3171.2598,2587.4232)"
         id="g3775">
        <path
           style="fill:#ffeeaa;fill-rule:evenodd;stroke:#000000;stroke-width:1px;stroke-linecap:butt;stroke-linejoin:miter;stroke-opacity:1"
           d="m 3359.0551,-2441.3386 v 21.2598 l 21.2598,-10.6299 z"
           id="path3777" />
        <path
           id="circle3779"
           style="fill:#ffeeaa;stroke:#000000;stroke-width:0.999211"
           transform="matrix(0,0.99999837,-1.0000051,0,3451.2369,-2505.118)"
           d="m 77.952754,67.37838 a 3.5433071,3.5433071 0 0 1 -3.543307,3.543307 3.5433071,3.5433071 0 0 1 -3.543307,-3.543307 3.5433071,3.5433071 0 0 1 3.543307,-3.543307 3.5433071,3.5433071 0 0 1 3.543307,3.543307 z" />
      </g>
      <path
         id="path4026"
         d="M 162.99296,156.71449 H 187.7953"
         style="fill:none;stroke:#000000;stroke-width:1px;stroke-linecap:butt;stroke-linejoin:miter;stroke-opacity:1;marker-end:url(#Arrow1Mend-3-58)" />
    </g>
    <g
       transform="translate(-102.7559,-11.13004)"
       id="layer1-7">
      <g
         transform="translate(-3.5433568,0.50015174)"
         id="g3342">
        <path
           style="fill:none;stroke:#000000;stroke-width:1px;stroke-linecap:butt;stroke-linejoin:miter;stroke-opacity:1;marker-end:url(#Arrow1Mend-3)"
           d="m 216.14173,159.44882 14.17327,-1e-5 v 14.17323 h 14.17323"
           id="path52636" />
        <path
           style="fill:#ffeeaa;fill-rule:evenodd;stroke:#000000;stroke-width:1px;stroke-linecap:butt;stroke-linejoin:miter;stroke-opacity:1"
           d="m 194.88193,145.27559 v 28.3466 h 3.515 c 7.1149,-1e-4 17.7448,-3.5435 17.7167,-14.1733 -0.028,-10.63 -10.6018,-14.1733 -17.7167,-14.1733 z"
           id="path56366" />
        <path
           id="path6106"
           d="m 166.53541,152.3622 h 28.34647"
           style="fill:none;stroke:#000000;stroke-width:1px;stroke-linecap:butt;stroke-linejoin:miter;stroke-opacity:1;marker-end:url(#Arrow1Mend-3)" />
        <path
           style="fill:none;stroke:#000000;stroke-width:1px;stroke-linecap:butt;stroke-linejoin:miter;stroke-opacity:1;marker-end:url(#Arrow1Mend-3)"
           d="m 166.53541,166.53543 h 28.34647"
           id="path3455" />
      </g>
    </g>
    <g
       id="g3921"
       transform="translate(-56.692913,3.0432945)">
      <path
         id="path3923"
         d="m 191.33858,152.86224 c 7.0866,8.5039 7.0866,19.8426 0,28.3465 7.0866,0 21.2598,0 28.3464,-14.1733 -7.0866,-14.1732 -21.2598,-14.1732 -28.3464,-14.1732 z"
         style="fill:#ffeeaa;fill-rule:evenodd;stroke:#000000;stroke-width:1px;stroke-linecap:butt;stroke-linejoin:miter;stroke-opacity:1" />
      <path
         style="fill:none;stroke:#000000;stroke-width:1px;stroke-linecap:butt;stroke-linejoin:miter;stroke-opacity:1;marker-end:url(#Arrow1Mend-3-52-0)"
         d="m 219.68499,167.03548 21.25984,-1e-5"
         id="path3925" />
    </g>
    <g
       aria-label="a"
       id="text4014"
       style="line-height:0%;font-family:Iwona;-inkscape-font-specification:Iwona;text-align:end;letter-spacing:0px;word-spacing:0px;text-anchor:end;stroke-width:1px">
      <path
         d="m 55.492922,145.27562 v -4.2 c 0,-1.41 -0.87,-2.7 -2.175,-2.7 -0.96,0 -1.86,0.33 -2.67,0.84 v 0.465 c 0.675,-0.375 1.425,-0.615 2.205,-0.615 0.93,0 1.47,0.99 1.47,2.01 v 0.27 c -0.585,-0.255 -1.215,-0.405 -1.845,-0.405 -1.605,0 -2.79,0.735 -2.79,2.25 0,1.44 1.05,2.235 2.565,2.235 0.765,0 1.47,-0.345 2.07,-0.825 v 0.675 z m -1.17,-1.305 c -0.45,0.45 -1.005,0.825 -1.65,0.825 -1.005,0 -1.665,-0.615 -1.665,-1.605 0,-0.915 0.75,-1.62 1.665,-1.62 0.57,0 1.14,0.15 1.65,0.405 z"
         style="font-size:15px;line-height:1.25"
         id="path78" />
    </g>
    <g
       aria-label="c"
       id="text4018"
       style="line-height:0%;font-family:Iwona;-inkscape-font-specification:Iwona;text-align:end;letter-spacing:0px;word-spacing:0px;text-anchor:end;stroke-width:1px">
      <path
         d="m 56.317925,189.69191 v -0.63 c -0.48,-0.675 -1.26,-1.08 -2.1,-1.08 -1.875,0 -3.135,1.41 -3.135,3.525 0,2.115 1.26,3.525 3.135,3.525 0.78,0 1.515,-0.39 1.95,-1.035 v -0.63 c -0.51,0.765 -1.035,1.035 -1.95,1.035 -1.08,0 -1.815,-1.155 -1.815,-2.895 0,-1.74 0.735,-2.895 1.815,-2.895 0.93,0 1.56,0.33 2.1,1.08 z"
         style="font-size:15px;line-height:1.25"
         id="path81" />
    </g>
    <g
       aria-label="b"
       id="text4022"
       style="line-height:0%;font-family:Iwona;-inkscape-font-specification:Iwona;text-align:end;letter-spacing:0px;word-spacing:0px;text-anchor:end;stroke-width:1px">
      <path
         d="m 55.867919,156.07384 c 0,-1.995 -0.75,-3.525 -2.565,-3.525 -0.765,0 -1.47,0.345 -2.07,0.825 v -4.425 h -1.17 v 10.5 h 1.17 v -0.345 c 0.57,0.3 1.2,0.495 1.845,0.495 1.875,0 2.79,-1.5 2.79,-3.525 z m -1.32,0 c 0,1.41 -0.435,2.895 -1.665,2.895 -0.585,0 -1.155,-0.195 -1.65,-0.495 v -4.47 c 0.45,-0.45 1.005,-0.825 1.65,-0.825 1.365,0 1.665,1.32 1.665,2.895 z"
         style="font-size:15px;line-height:1.25"
         id="path84" />
    </g>
    <g
       aria-label="a.b"
       id="text4028"
       style="line-height:0%;font-family:Iwona;-inkscape-font-specification:Iwona;letter-spacing:0px;word-spacing:0px;stroke-width:1px">
      <path
         d="m 124.69075,141.7323 v -4.2 c 0,-1.41 -0.87,-2.7 -2.175,-2.7 -0.96,0 -1.86,0.33 -2.67,0.84 v 0.465 c 0.675,-0.375 1.425,-0.615 2.205,-0.615 0.93,0 1.47,0.99 1.47,2.01 v 0.27 c -0.585,-0.255 -1.215,-0.405 -1.845,-0.405 -1.605,0 -2.79,0.735 -2.79,2.25 0,1.44 1.05,2.235 2.565,2.235 0.765,0 1.47,-0.345 2.07,-0.825 v 0.675 z m -1.17,-1.305 c -0.45,0.45 -1.005,0.825 -1.65,0.825 -1.005,0 -1.665,-0.615 -1.665,-1.605 0,-0.915 0.75,-1.62 1.665,-1.62 0.57,0 1.14,0.15 1.65,0.405 z"
         style="font-size:15px;line-height:1.25"
         id="path87" />
      <path
         d="m 128.23073,140.9973 c 0,-0.405 -0.33,-0.735 -0.735,-0.735 -0.405,0 -0.735,0.33 -0.735,0.735 0,0.405 0.33,0.735 0.735,0.735 0.405,0 0.735,-0.33 0.735,-0.735 z"
         style="font-size:15px;line-height:1.25"
         id="path89" />
      <path
         d="m 136.10572,138.3573 c 0,-1.995 -0.75,-3.525 -2.565,-3.525 -0.765,0 -1.47,0.345 -2.07,0.825 v -4.425 h -1.17 v 10.5 h 1.17 v -0.345 c 0.57,0.3 1.2,0.495 1.845,0.495 1.875,0 2.79,-1.5 2.79,-3.525 z m -1.32,0 c 0,1.41 -0.435,2.895 -1.665,2.895 -0.585,0 -1.155,-0.195 -1.65,-0.495 v -4.47 c 0.45,-0.45 1.005,-0.825 1.65,-0.825 1.365,0 1.665,1.32 1.665,2.895 z"
         style="font-size:15px;line-height:1.25"
         id="path91" />
    </g>
    <g
       id="g4038">
      <g
         aria-label="c"
         id="text4032"
         style="line-height:0%;font-family:Iwona;-inkscape-font-specification:Iwona;text-align:center;letter-spacing:0px;word-spacing:0px;text-anchor:middle;stroke-width:1px">
        <path
           d="m 130.18172,200.32184 v -0.63 c -0.48,-0.675 -1.26,-1.08 -2.1,-1.08 -1.875,0 -3.135,1.41 -3.135,3.525 0,2.115 1.26,3.525 3.135,3.525 0.78,0 1.515,-0.39 1.95,-1.035 v -0.63 c -0.51,0.765 -1.035,1.035 -1.95,1.035 -1.08,0 -1.815,-1.155 -1.815,-2.895 0,-1.74 0.735,-2.895 1.815,-2.895 0.93,0 1.56,0.33 2.1,1.08 z"
           style="font-size:15px;line-height:1.25"
           id="path94" />
      </g>
      <path
         id="path4036"
         d="m 124.01575,194.88192 h 7.08661"
         style="fill:none;fill-rule:evenodd;stroke:#000000;stroke-width:1px;stroke-linecap:butt;stroke-linejoin:miter;stroke-opacity:1" />
    </g>
    <g
       id="g4049">
      <g
         aria-label="a.b + c"
         id="text4043"
         style="line-height:0%;font-family:Iwona;-inkscape-font-specification:Iwona;letter-spacing:0px;word-spacing:0px;stroke-width:1px">
        <path
           d="m 196.30335,173.62207 v -4.2 c 0,-1.41 -0.87,-2.7 -2.175,-2.7 -0.96,0 -1.86,0.33 -2.67,0.84 v 0.465 c 0.675,-0.375 1.425,-0.615 2.205,-0.615 0.93,0 1.47,0.99 1.47,2.01 v 0.27 c -0.585,-0.255 -1.215,-0.405 -1.845,-0.405 -1.605,0 -2.79,0.735 -2.79,2.25 0,1.44 1.05,2.235 2.565,2.235 0.765,0 1.47,-0.345 2.07,-0.825 v 0.675 z m -1.17,-1.305 c -0.45,0.45 -1.005,0.825 -1.65,0.825 -1.005,0 -1.665,-0.615 -1.665,-1.605 0,-0.915 0.75,-1.62 1.665,-1.62 0.57,0 1.14,0.15 1.65,0.405 z"
           style="font-size:15px;line-height:1.25"
           id="path97" />
        <path
           d="m 199.84334,172.88707 c 0,-0.405 -0.33,-0.735 -0.735,-0.735 -0.405,0 -0.735,0.33 -0.735,0.735 0,0.405 0.33,0.735 0.735,0.735 0.405,0 0.735,-0.33 0.735,-0.735 z"
           style="font-size:15px;line-height:1.25"
           id="path99" />
        <path
           d="m 207.71832,170.24707 c 0,-1.995 -0.75,-3.525 -2.565,-3.525 -0.765,0 -1.47,0.345 -2.07,0.825 v -4.425 h -1.17 v 10.5 h 1.17 v -0.345 c 0.57,0.3 1.2,0.495 1.845,0.495 1.875,0 2.79,-1.5 2.79,-3.525 z m -1.32,0 c 0,1.41 -0.435,2.895 -1.665,2.895 -0.585,0 -1.155,-0.195 -1.65,-0.495 v -4.47 c 0.45,-0.45 1.005,-0.825 1.65,-0.825 1.365,0 1.665,1.32 1.665,2.895 z"
           style="font-size:15px;line-height:1.25"
           id="path101" />
        <path
           d="m 224.08328,170.24707 v -0.75 h -4.335 v -4.335 h -0.75 v 4.335 h -4.335 v 0.75 h 4.335 v 4.335 h 0.75 v -4.335 z"
           style="font-size:15px;line-height:1.25"
           id="path103" />
        <path
           d="m 236.26325,168.43207 v -0.63 c -0.48,-0.675 -1.26,-1.08 -2.1,-1.08 -1.875,0 -3.135,1.41 -3.135,3.525 0,2.115 1.26,3.525 3.135,3.525 0.78,0 1.515,-0.39 1.95,-1.035 v -0.63 c -0.51,0.765 -1.035,1.035 -1.95,1.035 -1.08,0 -1.815,-1.155 -1.815,-2.895 0,-1.74 0.735,-2.895 1.815,-2.895 0.93,0 1.56,0.33 2.1,1.08 z"
           style="font-size:15px;line-height:1.25"
           id="path105" />
      </g>
      <path
         id="path4047"
         d="m 230.31496,162.99215 h 7.08661"
         style="fill:none;fill-rule:evenodd;stroke:#000000;stroke-width:1px;stroke-linecap:butt;stroke-linejoin:miter;stroke-opacity:1" />
    </g>
  </g>
</svg>
