<?xml version="1.0" encoding="UTF-8" standalone="no"?>
<!-- Created with Inkscape (http://www.inkscape.org/) -->

<svg
   width="64.897995mm"
   height="26.370672mm"
   id="svg2"
   version="1.1"
   xmlns="http://www.w3.org/2000/svg"
   xmlns:svg="http://www.w3.org/2000/svg"
   xmlns:rdf="http://www.w3.org/1999/02/22-rdf-syntax-ns#"
   xmlns:cc="http://creativecommons.org/ns#"
   xmlns:dc="http://purl.org/dc/elements/1.1/">
  <defs
     id="defs4">
    <marker
       style="overflow:visible"
       id="marker5341"
       refX="0"
       refY="0"
       orient="auto">
      <path
         style="fill:#000000;fill-opacity:1;fill-rule:evenodd;stroke:#000000;stroke-width:0.42666668pt;stroke-opacity:1;marker-start:none"
         d="M -4.2666667,0 -6.4,2.1333333 1.0666667,0 -6.4,-2.1333333 Z"
         id="path5343" />
    </marker>
    <marker
       orient="auto"
       refY="0"
       refX="0"
       id="marker5125"
       style="overflow:visible">
      <path
         id="path5127"
         d="M -4.2666667,0 -6.4,2.1333333 1.0666667,0 -6.4,-2.1333333 Z"
         style="fill:#000000;fill-opacity:1;fill-rule:evenodd;stroke:#000000;stroke-width:0.42666668pt;stroke-opacity:1;marker-start:none" />
    </marker>
    <marker
       style="overflow:visible"
       id="marker4327"
       refX="0"
       refY="0"
       orient="auto">
      <path
         style="fill:#000000;fill-opacity:1;fill-rule:evenodd;stroke:#000000;stroke-width:0.42666668pt;stroke-opacity:1;marker-start:none"
         d="M -4.2666667,0 -6.4,2.1333333 1.0666667,0 -6.4,-2.1333333 Z"
         id="path4329" />
    </marker>
    <marker
       orient="auto"
       refY="0"
       refX="0"
       id="Arrow1Send"
       style="overflow:visible">
      <path
         id="path3781"
         d="M -1.28,0 -2.3466667,1.0666667 1.3866667,0 -2.3466667,-1.0666667 Z"
         style="fill-rule:evenodd;stroke:#000000;stroke-width:0.21333334pt;marker-start:none" />
    </marker>
  </defs>
  <metadata
     id="metadata7">
    <rdf:RDF>
      <cc:Work
         rdf:about="">
        <dc:format>image/svg+xml</dc:format>
        <dc:type
           rdf:resource="http://purl.org/dc/dcmitype/StillImage" />
        <dc:title />
      </cc:Work>
    </rdf:RDF>
  </metadata>
  <g
     id="layer1"
     transform="translate(1.1522784,-32.359485)">
    <path
       id="rect4498"
       style="opacity:1;fill:#ffeeaa;stroke:#000000;stroke-width:1.06667;stroke-linecap:round;stroke-linejoin:bevel"
       d="M 78.036942,52.658089 H 153.62749 V 113.13053 H 78.036942 Z" />
    <path
       style="fill:none;stroke:#000000;stroke-width:3.2;stroke-linecap:butt;stroke-linejoin:miter;stroke-miterlimit:4;stroke-dasharray:none;stroke-opacity:1;marker-end:url(#Arrow1Send)"
       d="M 21.344026,60.217124 H 74.257412"
       id="path2993" />
    <path
       id="path4207"
       d="M 21.344026,105.57146 H 74.257412"
       style="fill:none;stroke:#000000;stroke-width:3.2;stroke-linecap:butt;stroke-linejoin:miter;stroke-miterlimit:4;stroke-dasharray:none;stroke-opacity:1;marker-end:url(#Arrow1Send)" />
    <g
       aria-label="a"
       id="text4401"
       style="font-size:12.8px;line-height:0%;font-family:Iwona;-inkscape-font-specification:Sans;text-align:center;letter-spacing:0px;word-spacing:0px;text-anchor:middle;stroke-width:1.06667">
      <path
         d="m 13.00919,63.996651 v -4.778676 c 0,-1.60427 -0.989868,-3.072006 -2.474671,-3.072006 -1.0922691,0 -2.1162711,0.375467 -3.0378729,0.955735 v 0.529068 c 0.7680015,-0.426668 1.6213365,-0.699735 2.5088049,-0.699735 1.058135,0 1.672537,1.126402 1.672537,2.286938 v 0.3072 c -0.665602,-0.290134 -1.382403,-0.460801 -2.0992045,-0.460801 -1.8261369,0 -3.1744062,0.836269 -3.1744062,2.560005 0,1.638404 1.194669,2.542939 2.9184057,2.542939 0.870402,0 1.672537,-0.392534 2.355205,-0.938669 v 0.768002 z m -1.331202,-1.484803 c -0.512001,0.512001 -1.143469,0.938668 -1.8773374,0.938668 -1.1434689,0 -1.8944037,-0.699734 -1.8944037,-1.826137 0,-1.041068 0.853335,-1.843203 1.8944037,-1.843203 0.6485344,0 1.2970694,0.170667 1.8773374,0.460801 z"
         style="font-size:17.0667px;line-height:1.25"
         id="path47" />
    </g>
    <g
       aria-label="b"
       id="text4405"
       style="font-size:12.8px;line-height:0%;font-family:Iwona;-inkscape-font-specification:Sans;text-align:center;letter-spacing:0px;word-spacing:0px;text-anchor:middle;stroke-width:1.06667">
      <path
         d="m 13.521189,105.51098 c 0,-2.26988 -0.853335,-4.01068 -2.918405,-4.01068 -0.8704022,0 -1.6725371,0.39253 -2.3552051,0.93867 V 97.404293 H 6.9163763 v 11.946687 h 1.3312026 v -0.39253 c 0.6485346,0.34133 1.365336,0.5632 2.0992041,0.5632 2.133338,0 3.174406,-1.70667 3.174406,-4.01067 z m -1.501869,0 c 0,1.60426 -0.494935,3.29387 -1.894404,3.29387 -0.6656014,0 -1.314136,-0.22187 -1.8773371,-0.5632 v -5.08588 c 0.512001,-0.512 1.1434689,-0.93867 1.8773371,-0.93867 1.55307,0 1.894404,1.50187 1.894404,3.29388 z"
         style="font-size:17.0667px;line-height:1.25"
         id="path50" />
    </g>
    <g
       aria-label="a &gt; b"
       id="text4409"
       style="font-size:12.8px;line-height:0%;font-family:Iwona;-inkscape-font-specification:Sans;letter-spacing:0px;word-spacing:0px;stroke-width:1.06667">
      <path
         d="m 202.5751,63.996674 v -4.778676 c 0,-1.60427 -0.98987,-3.072006 -2.47467,-3.072006 -1.09227,0 -2.11627,0.375467 -3.03787,0.955735 v 0.529067 c 0.768,-0.426667 1.62133,-0.699734 2.5088,-0.699734 1.05814,0 1.67254,1.126402 1.67254,2.286938 v 0.3072 c -0.6656,-0.290134 -1.38241,-0.460801 -2.09921,-0.460801 -1.82613,0 -3.1744,0.836269 -3.1744,2.560005 0,1.638403 1.19467,2.542939 2.9184,2.542939 0.8704,0 1.67254,-0.392535 2.35521,-0.938669 v 0.768002 z m -1.3312,-1.484803 c -0.512,0.512001 -1.14347,0.938668 -1.87734,0.938668 -1.14347,0 -1.8944,-0.699735 -1.8944,-1.826137 0,-1.041068 0.85333,-1.843203 1.8944,-1.843203 0.64854,0 1.29707,0.170667 1.87734,0.460801 z"
         style="font-size:17.0667px;line-height:1.25"
         id="path53" />
      <path
         d="m 221.19483,59.388665 -10.05229,-5.01761 v 0.955735 l 8.90882,4.437342 -8.90882,4.403209 v 0.955735 l 10.05229,-4.983477 z"
         style="font-size:17.0667px;line-height:1.25"
         id="path55" />
      <path
         d="m 236.55482,60.156666 c 0,-2.269871 -0.85333,-4.010674 -2.9184,-4.010674 -0.8704,0 -1.67254,0.392534 -2.35521,0.938668 v -5.034676 h -1.3312 v 11.94669 h 1.3312 v -0.392535 c 0.64854,0.341334 1.36534,0.563202 2.09921,0.563202 2.13334,0 3.1744,-1.70667 3.1744,-4.010675 z m -1.50187,0 c 0,1.60427 -0.49493,3.293873 -1.8944,3.293873 -0.6656,0 -1.31414,-0.221867 -1.87734,-0.563201 v -5.085877 c 0.512,-0.512001 1.14347,-0.938668 1.87734,-0.938668 1.55307,0 1.8944,1.50187 1.8944,3.293873 z"
         style="font-size:17.0667px;line-height:1.25"
         id="path57" />
    </g>
    <path
       style="fill:none;stroke:#000000;stroke-width:1.06667px;stroke-linecap:butt;stroke-linejoin:miter;stroke-opacity:1"
       d="M 51.580247,52.658069 40.241664,67.776179"
       id="path4508" />
    <path
       id="path4510"
       d="M 51.580247,98.0124 40.241664,113.13051"
       style="fill:none;stroke:#000000;stroke-width:1.06667px;stroke-linecap:butt;stroke-linejoin:miter;stroke-opacity:1" />
    <g
       aria-label="N"
       id="text4514"
       style="font-size:12.8px;line-height:0%;font-family:Iwona;-inkscape-font-specification:Sans;text-align:center;letter-spacing:0px;word-spacing:0px;text-anchor:middle;stroke-width:1.06667">
      <path
         d="m 51.563928,48.87854 v -8.96 h -0.5888 v 7.5264 l -6.1696,-7.5264 h -0.768 v 8.96 h 0.5888 v -7.5264 l 6.1696,7.5264 z"
         style="line-height:1.25"
         id="path60" />
    </g>
    <g
       aria-label="N"
       id="text4518"
       style="font-size:12.8px;line-height:0%;font-family:Iwona;-inkscape-font-specification:Sans;text-align:center;letter-spacing:0px;word-spacing:0px;text-anchor:middle;stroke-width:1.06667">
      <path
         d="m 51.563928,124.46911 v -8.96 h -0.5888 v 7.5264 l -6.1696,-7.5264 h -0.768 v 8.96 h 0.5888 v -7.5264 l 6.1696,7.5264 z"
         style="line-height:1.25"
         id="path63" />
    </g>
    <path
       style="fill:none;stroke:#000000;stroke-width:1.06667;stroke-linecap:butt;stroke-linejoin:miter;stroke-miterlimit:4;stroke-dasharray:none;stroke-opacity:1;marker-end:url(#marker4327)"
       d="m 153.62749,60.217146 h 37.79527"
       id="path4325" />
    <path
       id="path5123"
       d="m 153.62749,82.894312 h 37.79527"
       style="fill:none;stroke:#000000;stroke-width:1.06667;stroke-linecap:butt;stroke-linejoin:miter;stroke-miterlimit:4;stroke-dasharray:none;stroke-opacity:1;marker-end:url(#marker5125)" />
    <path
       style="fill:none;stroke:#000000;stroke-width:1.06667;stroke-linecap:butt;stroke-linejoin:miter;stroke-miterlimit:4;stroke-dasharray:none;stroke-opacity:1;marker-end:url(#marker5341)"
       d="m 153.62749,105.57148 h 37.79527"
       id="path5339" />
    <g
       aria-label="a = b"
       id="text5657"
       style="font-size:12.8px;line-height:0%;font-family:Iwona;-inkscape-font-specification:Sans;letter-spacing:0px;word-spacing:0px;stroke-width:1.06667">
      <path
         d="M 202.5751,86.673836 V 81.89516 c 0,-1.60427 -0.98987,-3.072006 -2.47467,-3.072006 -1.09227,0 -2.11627,0.375467 -3.03787,0.955735 v 0.529068 c 0.768,-0.426668 1.62133,-0.699735 2.5088,-0.699735 1.05814,0 1.67254,1.126402 1.67254,2.286938 v 0.3072 c -0.6656,-0.290134 -1.38241,-0.460801 -2.09921,-0.460801 -1.82613,0 -3.1744,0.836269 -3.1744,2.560005 0,1.638404 1.19467,2.542939 2.9184,2.542939 0.8704,0 1.67254,-0.392534 2.35521,-0.938669 v 0.768002 z m -1.3312,-1.484803 c -0.512,0.512001 -1.14347,0.938668 -1.87734,0.938668 -1.14347,0 -1.8944,-0.699734 -1.8944,-1.826137 0,-1.041068 0.85333,-1.843203 1.8944,-1.843203 0.64854,0 1.29707,0.170667 1.87734,0.460801 z"
         style="font-size:17.0667px;line-height:1.25"
         id="path66" />
      <path
         d="m 221.62149,81.127158 v -0.853335 h -10.71788 v 0.853335 z m 0,3.41334 v -0.853335 h -10.71788 v 0.853335 z"
         style="font-size:17.0667px;line-height:1.25"
         id="path68" />
      <path
         d="m 236.55482,82.833828 c 0,-2.269871 -0.85333,-4.010674 -2.9184,-4.010674 -0.8704,0 -1.67254,0.392534 -2.35521,0.938668 v -5.034676 h -1.3312 v 11.94669 h 1.3312 v -0.392534 c 0.64854,0.341334 1.36534,0.563201 2.09921,0.563201 2.13334,0 3.1744,-1.70667 3.1744,-4.010675 z m -1.50187,0 c 0,1.60427 -0.49493,3.293873 -1.8944,3.293873 -0.6656,0 -1.31414,-0.221867 -1.87734,-0.563201 v -5.085876 c 0.512,-0.512001 1.14347,-0.938669 1.87734,-0.938669 1.55307,0 1.8944,1.50187 1.8944,3.293873 z"
         style="font-size:17.0667px;line-height:1.25"
         id="path70" />
    </g>
    <g
       aria-label="a &lt; b"
       id="text5661"
       style="font-size:12.8px;line-height:0%;font-family:Iwona;-inkscape-font-specification:Sans;letter-spacing:0px;word-spacing:0px;stroke-width:1.06667">
      <path
         d="m 202.5751,109.35101 v -4.77867 c 0,-1.60427 -0.98987,-3.07201 -2.47467,-3.07201 -1.09227,0 -2.11627,0.37547 -3.03787,0.95574 v 0.52906 c 0.768,-0.42666 1.62133,-0.69973 2.5088,-0.69973 1.05814,0 1.67254,1.1264 1.67254,2.28694 v 0.3072 c -0.6656,-0.29014 -1.38241,-0.4608 -2.09921,-0.4608 -1.82613,0 -3.1744,0.83627 -3.1744,2.56 0,1.63841 1.19467,2.54294 2.9184,2.54294 0.8704,0 1.67254,-0.39253 2.35521,-0.93867 v 0.768 z m -1.3312,-1.4848 c -0.512,0.512 -1.14347,0.93867 -1.87734,0.93867 -1.14347,0 -1.8944,-0.69974 -1.8944,-1.82614 0,-1.04107 0.85333,-1.8432 1.8944,-1.8432 0.64854,0 1.29707,0.17067 1.87734,0.4608 z"
         style="font-size:17.0667px;line-height:1.25"
         id="path73" />
      <path
         d="m 221.19483,110.47742 v -0.95574 l -8.90882,-4.43734 8.90882,-4.40321 v -0.955736 l -10.05229,4.983476 v 0.75094 z"
         style="font-size:17.0667px;line-height:1.25"
         id="path75" />
      <path
         d="m 236.55482,105.51101 c 0,-2.26988 -0.85333,-4.01068 -2.9184,-4.01068 -0.8704,0 -1.67254,0.39254 -2.35521,0.93867 v -5.034677 h -1.3312 v 11.946687 h 1.3312 v -0.39253 c 0.64854,0.34133 1.36534,0.5632 2.09921,0.5632 2.13334,0 3.1744,-1.70667 3.1744,-4.01067 z m -1.50187,0 c 0,1.60427 -0.49493,3.29387 -1.8944,3.29387 -0.6656,0 -1.31414,-0.22187 -1.87734,-0.5632 v -5.08588 c 0.512,-0.512 1.14347,-0.93867 1.87734,-0.93867 1.55307,0 1.8944,1.50187 1.8944,3.29388 z"
         style="font-size:17.0667px;line-height:1.25"
         id="path77" />
    </g>
    <g
       aria-label="Comparateur"
       id="text5707"
       style="font-size:12.8px;line-height:0%;font-family:Iwona;-inkscape-font-specification:Sans;text-align:center;letter-spacing:0px;word-spacing:0px;text-anchor:middle;stroke-width:1.06667">
      <path
         d="m 90.58569,79.710307 v -0.648 c -0.648,-0.936 -1.716,-1.488 -2.844,-1.488 -2.436,0 -3.756,1.776 -3.756,4.32 0,2.544 1.32,4.32 3.756,4.32 0.936,0 1.86,-0.276 2.652,-0.792 v -0.552 c -0.792,0.516 -1.716,0.792 -2.652,0.792 -1.884,0 -2.58,-1.668 -2.58,-3.768 0,-2.1 0.696,-3.768 2.58,-3.768 1.152,0 2.232,0.6 2.844,1.584 z"
         style="font-size:12px;line-height:1.25"
         id="path80" />
      <path
         d="m 96.10567,83.394307 c 0,-1.836 -0.816,-2.82 -2.316,-2.82 -1.512,0 -2.328,0.984 -2.328,2.82 0,1.836 0.816,2.82 2.328,2.82 1.5,0 2.316,-0.984 2.316,-2.82 z m -1.056,0 c 0,1.5 -0.444,2.316 -1.26,2.316 -0.828,0 -1.272,-0.816 -1.272,-2.316 0,-1.5 0.444,-2.316 1.272,-2.316 0.816,0 1.26,0.816 1.26,2.316 z"
         style="font-size:12px;line-height:1.25"
         id="path82" />
      <path
         d="m 104.27767,86.094307 v -3.9 c 0,-0.84 -0.492,-1.62 -1.272,-1.62 -0.672,0 -1.296,0.348 -1.656,0.912 -0.192,-0.528 -0.6,-0.912 -1.152,-0.912 -0.624003,0 -1.128003,0.432 -1.536003,0.912 v -0.792 h -0.936 v 5.4 h 0.936 v -4.248 c 0.288,-0.372 0.648,-0.72 1.116,-0.72 0.492003,0 0.756003,0.528 0.756003,1.068 v 3.9 h 0.936 v -3.9 c 0,-0.144 -0.012,-0.276 -0.036,-0.42 0.288,-0.372 0.684,-0.648 1.152,-0.648 0.492,0 0.756,0.528 0.756,1.068 v 3.9 z"
         style="font-size:12px;line-height:1.25"
         id="path84" />
      <path
         d="m 110.72165,83.394307 c 0,-1.596 -0.6,-2.82 -2.052,-2.82 -0.612,0 -1.176,0.276 -1.656,0.66 v -0.54 h -0.936 v 8.16 h 0.936 v -2.964 c 0.468,0.204 0.972,0.324 1.476,0.324 1.5,0 2.232,-1.2 2.232,-2.82 z m -1.056,0 c 0,1.128 -0.348,2.316 -1.332,2.316 -0.456,0 -0.912,-0.12 -1.32,-0.324 v -3.648 c 0.36,-0.36 0.804,-0.66 1.32,-0.66 1.092,0 1.332,1.056 1.332,2.316 z"
         style="font-size:12px;line-height:1.25"
         id="path86" />
      <path
         d="m 116.56563,86.094307 v -3.36 c 0,-1.128 -0.696,-2.16 -1.74,-2.16 -0.768,0 -1.488,0.264 -2.136,0.672 v 0.372 c 0.54,-0.3 1.14,-0.492 1.764,-0.492 0.744,0 1.176,0.792 1.176,1.608 v 0.216 c -0.468,-0.204 -0.972,-0.324 -1.476,-0.324 -1.284,0 -2.232,0.588 -2.232,1.8 0,1.152 0.84,1.788 2.052,1.788 0.612,0 1.176,-0.276 1.656,-0.66 v 0.54 z m -0.936,-1.044 c -0.36,0.36 -0.804,0.66 -1.32,0.66 -0.804,0 -1.332,-0.492 -1.332,-1.284 0,-0.732 0.6,-1.296 1.332,-1.296 0.456,0 0.912,0.12 1.32,0.324 z"
         style="font-size:12px;line-height:1.25"
         id="path88" />
      <path
         d="m 121.47362,81.438307 v -0.744 c -0.132,-0.048 -0.276,-0.084 -0.408,-0.084 -0.672,0 -1.212,0.468 -1.644,0.984 v -0.9 h -0.936 v 5.4 h 0.936 v -3.996 c 0.36,-0.42 0.816,-0.78 1.368,-0.78 0.228,0 0.468,0.048 0.684,0.12 z"
         style="font-size:12px;line-height:1.25"
         id="path90" />
      <path
         d="m 126.75359,86.094307 v -3.36 c 0,-1.128 -0.696,-2.16 -1.74,-2.16 -0.768,0 -1.488,0.264 -2.136,0.672 v 0.372 c 0.54,-0.3 1.14,-0.492 1.764,-0.492 0.744,0 1.176,0.792 1.176,1.608 v 0.216 c -0.468,-0.204 -0.972,-0.324 -1.476,-0.324 -1.284,0 -2.232,0.588 -2.232,1.8 0,1.152 0.84,1.788 2.052,1.788 0.612,0 1.176,-0.276 1.656,-0.66 v 0.54 z m -0.936,-1.044 c -0.36,0.36 -0.804,0.66 -1.32,0.66 -0.804,0 -1.332,-0.492 -1.332,-1.284 0,-0.732 0.6,-1.296 1.332,-1.296 0.456,0 0.912,0.12 1.32,0.324 z"
         style="font-size:12px;line-height:1.25"
         id="path92" />
      <path
         d="m 131.21758,85.674307 v -0.36 c -0.192,0.192 -0.42,0.348 -0.696,0.348 -0.432,0 -0.456,-0.564 -0.456,-1.068 v -3.396 h 1.152 v -0.504 h -1.152 v -1.8 h -0.564 c 0,0.96 -0.552,1.86 -1.428,1.86 v 0.444 h 1.056 v 3.396 c 0,0.792 0.252,1.62 0.936,1.62 0.444,0 0.828,-0.24 1.152,-0.54 z"
         style="font-size:12px;line-height:1.25"
         id="path94" />
      <path
         d="m 136.88156,83.514307 v -0.12 c 0,-1.692 -0.924,-2.82 -2.316,-2.82 -1.404,0 -2.328,1.128 -2.328,2.82 0,1.692 0.924,2.82 2.328,2.82 0.6,0 1.188,-0.192 1.68,-0.54 v -0.504 c -0.564,0.36 -1.02,0.492 -1.68,0.492 -1.02,0 -1.272,-0.972 -1.272,-2.148 z m -1.056,-0.504 h -2.532 c 0,-0.96 0.408,-1.932 1.272,-1.932 0.852,0 1.26,0.972 1.26,1.932 z"
         style="font-size:12px;line-height:1.25"
         id="path96" />
      <path
         d="m 142.72555,86.094307 v -5.4 h -0.936 v 4.236 c -0.408,0.408 -0.912,0.732 -1.476,0.732 -0.564,0 -0.996,-0.492 -0.996,-1.068 v -3.9 h -0.936 v 3.9 c 0,0.876 0.672,1.62 1.536,1.62 0.72,0 1.356,-0.408 1.872,-0.912 v 0.792 z"
         style="font-size:12px;line-height:1.25"
         id="path98" />
      <path
         d="m 147.63353,81.438307 v -0.744 c -0.132,-0.048 -0.276,-0.084 -0.408,-0.084 -0.672,0 -1.212,0.468 -1.644,0.984 v -0.9 h -0.936 v 5.4 h 0.936 v -3.996 c 0.36,-0.42 0.816,-0.78 1.368,-0.78 0.228,0 0.468,0.048 0.684,0.12 z"
         style="font-size:12px;line-height:1.25"
         id="path100" />
    </g>
  </g>
</svg>
