<?xml version="1.0" encoding="UTF-8" standalone="no"?>
<!-- Created with Inkscape (http://www.inkscape.org/) -->

<svg
   width="85.721672mm"
   height="128.032mm"
   viewBox="0 0 85.721672 128.032"
   version="1.1"
   id="svg8"
   xmlns="http://www.w3.org/2000/svg"
   xmlns:svg="http://www.w3.org/2000/svg"
   xmlns:rdf="http://www.w3.org/1999/02/22-rdf-syntax-ns#"
   xmlns:cc="http://creativecommons.org/ns#"
   xmlns:dc="http://purl.org/dc/elements/1.1/">
  <defs
     id="defs2">
    <marker
       orient="auto"
       refY="0"
       refX="0"
       id="marker25012"
       style="overflow:visible">
      <path
         id="path25010"
         d="M 0,0 5,-5 -12.5,0 5,5 Z"
         style="fill:#000000;fill-opacity:1;fill-rule:evenodd;stroke:#000000;stroke-width:1.00000003pt;stroke-opacity:1"
         transform="matrix(-0.4,0,0,-0.4,-4,0)" />
    </marker>
    <marker
       style="overflow:visible"
       id="marker24807"
       refX="0"
       refY="0"
       orient="auto">
      <path
         transform="matrix(-0.4,0,0,-0.4,-4,0)"
         style="fill:#000000;fill-opacity:1;fill-rule:evenodd;stroke:#000000;stroke-width:1.00000003pt;stroke-opacity:1"
         d="M 0,0 5,-5 -12.5,0 5,5 Z"
         id="path24805" />
    </marker>
    <marker
       orient="auto"
       refY="0"
       refX="0"
       id="marker23052"
       style="overflow:visible">
      <path
         id="path23050"
         d="M 0,0 5,-5 -12.5,0 5,5 Z"
         style="fill:#000000;fill-opacity:1;fill-rule:evenodd;stroke:#000000;stroke-width:1.00000003pt;stroke-opacity:1"
         transform="matrix(-0.4,0,0,-0.4,-4,0)" />
    </marker>
    <marker
       orient="auto"
       refY="0"
       refX="0"
       id="marker22319"
       style="overflow:visible">
      <path
         id="path22317"
         d="M 0,0 5,-5 -12.5,0 5,5 Z"
         style="fill:#000000;fill-opacity:1;fill-rule:evenodd;stroke:#000000;stroke-width:1.00000003pt;stroke-opacity:1"
         transform="matrix(-0.4,0,0,-0.4,-4,0)" />
    </marker>
    <marker
       style="overflow:visible"
       id="marker22150"
       refX="0"
       refY="0"
       orient="auto">
      <path
         transform="matrix(-0.4,0,0,-0.4,-4,0)"
         style="fill:#000000;fill-opacity:1;fill-rule:evenodd;stroke:#000000;stroke-width:1.00000003pt;stroke-opacity:1"
         d="M 0,0 5,-5 -12.5,0 5,5 Z"
         id="path22148" />
    </marker>
    <marker
       style="overflow:visible"
       id="marker14689"
       refX="0"
       refY="0"
       orient="auto">
      <path
         transform="matrix(-0.4,0,0,-0.4,-4,0)"
         style="fill:#000000;fill-opacity:1;fill-rule:evenodd;stroke:#000000;stroke-width:1.00000003pt;stroke-opacity:1"
         d="M 0,0 5,-5 -12.5,0 5,5 Z"
         id="path14687" />
    </marker>
    <marker
       style="overflow:visible"
       id="marker10201"
       refX="0"
       refY="0"
       orient="auto">
      <path
         transform="matrix(-0.4,0,0,-0.4,-4,0)"
         style="fill:#000000;fill-opacity:1;fill-rule:evenodd;stroke:#000000;stroke-width:1.00000003pt;stroke-opacity:1"
         d="M 0,0 5,-5 -12.5,0 5,5 Z"
         id="path10199" />
    </marker>
    <marker
       orient="auto"
       refY="0"
       refX="0"
       id="marker9868"
       style="overflow:visible">
      <path
         id="path9866"
         d="M 0,0 5,-5 -12.5,0 5,5 Z"
         style="fill:#000000;fill-opacity:1;fill-rule:evenodd;stroke:#000000;stroke-width:1.00000003pt;stroke-opacity:1"
         transform="matrix(-0.4,0,0,-0.4,-4,0)" />
    </marker>
    <marker
       style="overflow:visible"
       id="marker9583"
       refX="0"
       refY="0"
       orient="auto">
      <path
         transform="matrix(-0.4,0,0,-0.4,-4,0)"
         style="fill:#000000;fill-opacity:1;fill-rule:evenodd;stroke:#000000;stroke-width:1.00000003pt;stroke-opacity:1"
         d="M 0,0 5,-5 -12.5,0 5,5 Z"
         id="path9581" />
    </marker>
    <marker
       orient="auto"
       refY="0"
       refX="0"
       id="marker9316"
       style="overflow:visible">
      <path
         id="path9314"
         d="M 0,0 5,-5 -12.5,0 5,5 Z"
         style="fill:#000000;fill-opacity:1;fill-rule:evenodd;stroke:#000000;stroke-width:1.00000003pt;stroke-opacity:1"
         transform="matrix(-0.4,0,0,-0.4,-4,0)" />
    </marker>
    <marker
       style="overflow:visible"
       id="marker8851"
       refX="0"
       refY="0"
       orient="auto">
      <path
         transform="matrix(-0.4,0,0,-0.4,-4,0)"
         style="fill:#000000;fill-opacity:1;fill-rule:evenodd;stroke:#000000;stroke-width:1.00000003pt;stroke-opacity:1"
         d="M 0,0 5,-5 -12.5,0 5,5 Z"
         id="path8849" />
    </marker>
    <marker
       orient="auto"
       refY="0"
       refX="0"
       id="marker8470"
       style="overflow:visible">
      <path
         id="path8468"
         d="M 0,0 5,-5 -12.5,0 5,5 Z"
         style="fill:#000000;fill-opacity:1;fill-rule:evenodd;stroke:#000000;stroke-width:1.00000003pt;stroke-opacity:1"
         transform="matrix(-0.4,0,0,-0.4,-4,0)" />
    </marker>
    <marker
       style="overflow:visible"
       id="marker8173"
       refX="0"
       refY="0"
       orient="auto">
      <path
         transform="matrix(-0.4,0,0,-0.4,-4,0)"
         style="fill:#000000;fill-opacity:1;fill-rule:evenodd;stroke:#000000;stroke-width:1.00000003pt;stroke-opacity:1"
         d="M 0,0 5,-5 -12.5,0 5,5 Z"
         id="path8171" />
    </marker>
    <marker
       orient="auto"
       refY="0"
       refX="0"
       id="marker1985"
       style="overflow:visible">
      <path
         id="path1983"
         d="M 0,0 5,-5 -12.5,0 5,5 Z"
         style="fill:#000000;fill-opacity:1;fill-rule:evenodd;stroke:#000000;stroke-width:1.00000003pt;stroke-opacity:1"
         transform="matrix(-0.4,0,0,-0.4,-4,0)" />
    </marker>
    <marker
       orient="auto"
       refY="0"
       refX="0"
       id="marker1935"
       style="overflow:visible">
      <path
         id="path1933"
         d="M 0,0 5,-5 -12.5,0 5,5 Z"
         style="fill:#000000;fill-opacity:1;fill-rule:evenodd;stroke:#000000;stroke-width:1.00000003pt;stroke-opacity:1"
         transform="matrix(-0.4,0,0,-0.4,-4,0)" />
    </marker>
    <marker
       orient="auto"
       refY="0"
       refX="0"
       id="marker1655"
       style="overflow:visible">
      <path
         id="path1653"
         d="M 0,0 5,-5 -12.5,0 5,5 Z"
         style="fill:#000000;fill-opacity:1;fill-rule:evenodd;stroke:#000000;stroke-width:1.00000003pt;stroke-opacity:1"
         transform="matrix(-0.4,0,0,-0.4,-4,0)" />
    </marker>
    <marker
       style="overflow:visible"
       id="marker1329"
       refX="0"
       refY="0"
       orient="auto">
      <path
         transform="matrix(-0.4,0,0,-0.4,-4,0)"
         style="fill:#000000;fill-opacity:1;fill-rule:evenodd;stroke:#000000;stroke-width:1.00000003pt;stroke-opacity:1"
         d="M 0,0 5,-5 -12.5,0 5,5 Z"
         id="path1327" />
    </marker>
    <marker
       style="overflow:visible"
       id="marker1135"
       refX="0"
       refY="0"
       orient="auto">
      <path
         transform="matrix(-0.4,0,0,-0.4,-4,0)"
         style="fill:#000000;fill-opacity:1;fill-rule:evenodd;stroke:#000000;stroke-width:1.00000003pt;stroke-opacity:1"
         d="M 0,0 5,-5 -12.5,0 5,5 Z"
         id="path1133" />
    </marker>
    <marker
       orient="auto"
       refY="0"
       refX="0"
       id="Arrow1Mend"
       style="overflow:visible">
      <path
         id="path852"
         d="M 0,0 5,-5 -12.5,0 5,5 Z"
         style="fill:#000000;fill-opacity:1;fill-rule:evenodd;stroke:#000000;stroke-width:1.00000003pt;stroke-opacity:1"
         transform="matrix(-0.4,0,0,-0.4,-4,0)" />
    </marker>
    <marker
       orient="auto"
       refY="0"
       refX="0"
       id="marker1985-3"
       style="overflow:visible">
      <path
         id="path1983-6"
         d="M 0,0 5,-5 -12.5,0 5,5 Z"
         style="fill:#000000;fill-opacity:1;fill-rule:evenodd;stroke:#000000;stroke-width:1.00000003pt;stroke-opacity:1"
         transform="matrix(-0.4,0,0,-0.4,-4,0)" />
    </marker>
    <marker
       orient="auto"
       refY="0"
       refX="0"
       id="marker30870"
       style="overflow:visible">
      <path
         id="path30868"
         d="M 0,0 5,-5 -12.5,0 5,5 Z"
         style="fill:#000000;fill-opacity:1;fill-rule:evenodd;stroke:#000000;stroke-width:1.00000003pt;stroke-opacity:1"
         transform="matrix(-0.2,0,0,-0.2,-1.2,0)" />
    </marker>
  </defs>
  <metadata
     id="metadata5">
    <rdf:RDF>
      <cc:Work
         rdf:about="">
        <dc:format>image/svg+xml</dc:format>
        <dc:type
           rdf:resource="http://purl.org/dc/dcmitype/StillImage" />
        <dc:title />
      </cc:Work>
    </rdf:RDF>
  </metadata>
  <g
     id="layer1"
     transform="translate(0.28098392,-2.9962222)">
    <path
       id="rect7500"
       style="fill:#fff6d5;stroke-width:0.264583;stroke-dasharray:0.264583, 0.264583"
       d="m 61,8 h 4 v 116 h -4 z" />
    <g
       id="g7498"
       transform="translate(-5.0000003,53)">
      <path
         id="rect31"
         style="fill:#fff6d5;stroke:#000000;stroke-width:0.28231"
         d="M 15,10 H 35 V 29.000002 H 15 Z" />
      <path
         id="path33"
         d="m 10,12 h 5"
         style="fill:none;stroke:#000000;stroke-width:0.265;stroke-linecap:butt;stroke-linejoin:miter;stroke-miterlimit:4;stroke-dasharray:none;stroke-opacity:1;marker-end:url(#Arrow1Mend)" />
      <path
         style="fill:none;stroke:#000000;stroke-width:0.265;stroke-linecap:butt;stroke-linejoin:miter;stroke-miterlimit:4;stroke-dasharray:none;stroke-opacity:1;marker-end:url(#marker1135)"
         d="m 10,15 h 5"
         id="path1131" />
      <path
         style="fill:none;stroke:#000000;stroke-width:0.265;stroke-linecap:butt;stroke-linejoin:miter;stroke-miterlimit:4;stroke-dasharray:none;stroke-opacity:1;marker-end:url(#marker1329)"
         d="m 10,18 h 5"
         id="path1323" />
      <path
         id="path1325"
         d="m 10,21 h 5"
         style="fill:none;stroke:#000000;stroke-width:0.265;stroke-linecap:butt;stroke-linejoin:miter;stroke-miterlimit:4;stroke-dasharray:none;stroke-opacity:1;marker-end:url(#marker1935)" />
      <path
         id="path1649"
         d="m 10,24 h 5"
         style="fill:none;stroke:#000000;stroke-width:0.265;stroke-linecap:butt;stroke-linejoin:miter;stroke-miterlimit:4;stroke-dasharray:none;stroke-opacity:1;marker-end:url(#marker1655)" />
      <path
         style="fill:none;stroke:#000000;stroke-width:0.265;stroke-linecap:butt;stroke-linejoin:miter;stroke-miterlimit:4;stroke-dasharray:none;stroke-opacity:1;marker-end:url(#marker22319)"
         d="m 10,27 h 5"
         id="path1651" />
      <path
         id="path1979"
         d="m 35,18 h 5"
         style="fill:none;stroke:#000000;stroke-width:0.265;stroke-linecap:butt;stroke-linejoin:miter;stroke-miterlimit:4;stroke-dasharray:none;stroke-opacity:1;marker-end:url(#marker1985)" />
      <path
         style="fill:none;stroke:#000000;stroke-width:0.265;stroke-linecap:butt;stroke-linejoin:miter;stroke-miterlimit:4;stroke-dasharray:none;stroke-opacity:1;marker-end:url(#marker22150)"
         d="m 35,21 h 5"
         id="path1981" />
      <g
         aria-label="A1"
         id="text2529"
         style="font-size:2.82222px;line-height:1.25;font-family:Iwona;-inkscape-font-specification:Iwona;letter-spacing:0px;word-spacing:0px;stroke-width:0.264583">
        <path
           d="M 17.721554,13 17.00471,11.024446 H 16.759177 L 16.028222,13 h 0.138289 l 0.256822,-0.691444 h 0.801511 L 17.476021,13 Z m -0.544688,-0.821266 h -0.705555 l 0.355599,-0.965199 z"
           id="path303" />
        <path
           d="m 18.681106,13 v -1.947332 h -0.163689 c -0.155222,0.1778 -0.338666,0.3302 -0.541866,0.448733 v 0.118533 c 0.172155,-0.08184 0.333022,-0.177799 0.485422,-0.293511 V 13 Z"
           id="path305" />
      </g>
      <g
         aria-label="A2"
         id="text2533"
         style="font-size:2.82222px;line-height:1.25;font-family:Iwona;-inkscape-font-specification:Iwona;letter-spacing:0px;word-spacing:0px;stroke-width:0.264583">
        <path
           d="M 17.721554,16 17.00471,14.024446 H 16.759177 L 16.028222,16 h 0.138289 l 0.256822,-0.691444 h 0.801511 L 17.476021,16 Z m -0.544688,-0.821266 h -0.705555 l 0.355599,-0.965199 z"
           id="path308" />
        <path
           d="m 19.090328,16 v -0.174978 h -0.996244 l 0.519289,-0.513644 c 0.231422,-0.231422 0.448733,-0.502355 0.448733,-0.829732 0,-0.276578 -0.273756,-0.4572 -0.570089,-0.4572 -0.222955,0 -0.434622,0.1016 -0.57291,0.273755 v 0.118534 c 0.143933,-0.166511 0.352777,-0.262467 0.57291,-0.262467 0.189089,0 0.349956,0.141111 0.349956,0.327378 0,0.279399 -0.129823,0.539044 -0.321734,0.739421 l -0.629355,0.646289 V 16 Z"
           id="path310" />
      </g>
      <g
         aria-label="A3"
         id="text2537"
         style="font-size:2.82222px;line-height:1.25;font-family:Iwona;-inkscape-font-specification:Iwona;letter-spacing:0px;word-spacing:0px;stroke-width:0.264583">
        <path
           d="M 17.721554,19 17.00471,17.024446 H 16.759177 L 16.028222,19 h 0.138289 l 0.256822,-0.691444 h 0.801511 L 17.476021,19 Z m -0.544688,-0.821266 h -0.705555 l 0.355599,-0.965199 z"
           id="path313" />
        <path
           d="m 19.090328,18.463778 c 0,-0.248355 -0.174978,-0.462844 -0.417689,-0.536222 0.214489,-0.06209 0.347133,-0.222955 0.347133,-0.437444 0,-0.2794 -0.225777,-0.465666 -0.564444,-0.465666 -0.183444,0 -0.361244,0.06209 -0.505177,0.174978 v 0.118533 c 0.143933,-0.112889 0.321733,-0.174978 0.505177,-0.174978 0.206022,0 0.344311,0.138289 0.344311,0.347133 0,0.335844 -0.155222,0.423333 -0.507999,0.423333 v 0.104422 c 0.380999,0 0.550333,0.09031 0.550333,0.445911 0,0.245533 -0.158045,0.445911 -0.349956,0.445911 -0.214488,0 -0.423333,-0.06209 -0.601133,-0.174978 v 0.118534 c 0.1778,0.112888 0.386645,0.174977 0.601133,0.174977 0.327378,0 0.598311,-0.254 0.598311,-0.564444 z"
           id="path315" />
      </g>
      <g
         aria-label="A4"
         id="text2541"
         style="font-size:2.82222px;line-height:1.25;font-family:Iwona;-inkscape-font-specification:Iwona;letter-spacing:0px;word-spacing:0px;stroke-width:0.264583">
        <path
           d="M 17.721554,22 17.00471,20.024446 H 16.759177 L 16.028222,22 h 0.138289 l 0.256822,-0.691444 h 0.801511 L 17.476021,22 Z m -0.544688,-0.821266 h -0.705555 l 0.355599,-0.965199 z"
           id="path318" />
        <path
           d="m 19.090328,21.322667 v -0.129822 h -0.211667 v -1.140177 h -0.220133 l -0.767644,1.140177 v 0.129822 h 0.767644 V 22 h 0.220133 v -0.677333 z m -0.4318,-0.129822 h -0.62371 l 0.62371,-0.92851 z"
           id="path320" />
      </g>
      <g
         aria-label="A5"
         id="text2545"
         style="font-size:2.82222px;line-height:1.25;font-family:Iwona;-inkscape-font-specification:Iwona;letter-spacing:0px;word-spacing:0px;stroke-width:0.264583">
        <path
           d="M 17.721554,25 17.00471,23.024446 H 16.759177 L 16.028222,25 h 0.138289 l 0.256822,-0.691444 h 0.801511 L 17.476021,25 Z m -0.544688,-0.821266 h -0.705555 l 0.355599,-0.965199 z"
           id="path323" />
        <path
           d="m 19.090328,24.365 c 0,-0.397933 -0.239889,-0.663221 -0.598311,-0.663221 -0.163688,0 -0.316088,0.06209 -0.434622,0.166511 l 0.02822,-0.640644 h 0.948266 v -0.174978 h -1.058333 l -0.04233,0.973666 0.118533,0.0056 c 0.107244,-0.132645 0.268111,-0.211667 0.440266,-0.211667 0.208845,0 0.349956,0.217311 0.349956,0.544688 0,0.327378 -0.141111,0.544689 -0.349956,0.544689 -0.217311,0 -0.428977,-0.07056 -0.601133,-0.2032 v 0.118533 c 0.172156,0.132645 0.383822,0.2032 0.601133,0.2032 0.358422,0 0.598311,-0.265288 0.598311,-0.663222 z"
           id="path325" />
      </g>
      <g
         aria-label="A6"
         id="text2549"
         style="font-size:2.82222px;line-height:1.25;font-family:Iwona;-inkscape-font-specification:Iwona;letter-spacing:0px;word-spacing:0px;stroke-width:0.264583">
        <path
           d="M 17.721554,28 17.00471,26.024446 H 16.759177 L 16.028222,28 h 0.138289 l 0.256822,-0.691444 h 0.801511 L 17.476021,28 Z m -0.544688,-0.821266 h -0.705555 l 0.355599,-0.965199 z"
           id="path328" />
        <path
           d="m 19.090328,27.365 c 0,-0.406399 -0.160867,-0.663221 -0.539044,-0.663221 -0.163689,0 -0.316089,0.0762 -0.412044,0.206022 0,-0.369711 0.09313,-0.764822 0.412044,-0.764822 0.143933,0 0.285044,0.04798 0.397933,0.138289 v -0.118533 c -0.112889,-0.09031 -0.254,-0.138289 -0.397933,-0.138289 -0.443089,0 -0.6604,0.502355 -0.6604,1.001888 0,0.699911 0.180622,1.001888 0.601133,1.001888 0.358422,0 0.598311,-0.265288 0.598311,-0.663222 z m -0.248355,0 c 0,0.327378 -0.141111,0.544689 -0.349956,0.544689 -0.395111,0 -0.352777,-0.426155 -0.352777,-0.883355 0.09596,-0.129822 0.248355,-0.206022 0.412044,-0.206022 0.225777,0 0.290689,0.282222 0.290689,0.544688 z"
           id="path330" />
      </g>
      <g
         aria-label="O5"
         id="text2553"
         style="font-size:2.82222px;line-height:1.25;font-family:Iwona;-inkscape-font-specification:Iwona;text-align:end;letter-spacing:0px;word-spacing:0px;text-anchor:end;stroke-width:0.264583">
        <path
           d="m 32.349005,18.012223 c 0,-0.598311 -0.310444,-1.015999 -0.880532,-1.015999 -0.572911,0 -0.883355,0.417688 -0.883355,1.015999 0,0.598311 0.310444,1.015999 0.883355,1.015999 0.570088,0 0.880532,-0.417688 0.880532,-1.015999 z m -0.276577,0 c 0,0.493888 -0.163689,0.886177 -0.603955,0.886177 -0.443089,0 -0.606778,-0.392289 -0.606778,-0.886177 0,-0.493889 0.163689,-0.886177 0.606778,-0.886177 0.440266,0 0.603955,0.392288 0.603955,0.886177 z"
           id="path333" />
        <path
           d="m 33.85889,18.365 c 0,-0.397933 -0.239889,-0.663221 -0.598311,-0.663221 -0.163688,0 -0.316088,0.06209 -0.434621,0.166511 l 0.02822,-0.640644 h 0.948266 v -0.174978 h -1.058333 l -0.04233,0.973666 0.118533,0.0056 c 0.107244,-0.132645 0.268111,-0.211667 0.440266,-0.211667 0.208845,0 0.349956,0.217311 0.349956,0.544688 0,0.327378 -0.141111,0.544689 -0.349956,0.544689 -0.21731,0 -0.428977,-0.07056 -0.601132,-0.2032 v 0.118533 c 0.172155,0.132645 0.383822,0.2032 0.601132,0.2032 0.358422,0 0.598311,-0.265288 0.598311,-0.663222 z"
           id="path335" />
      </g>
      <g
         aria-label="O6"
         id="text2557"
         style="font-size:2.82222px;line-height:1.25;font-family:Iwona;-inkscape-font-specification:Iwona;text-align:end;letter-spacing:0px;word-spacing:0px;text-anchor:end;stroke-width:0.264583">
        <path
           d="m 32.349005,21.012223 c 0,-0.598311 -0.310444,-1.015999 -0.880532,-1.015999 -0.572911,0 -0.883355,0.417688 -0.883355,1.015999 0,0.598311 0.310444,1.015999 0.883355,1.015999 0.570088,0 0.880532,-0.417688 0.880532,-1.015999 z m -0.276577,0 c 0,0.493888 -0.163689,0.886177 -0.603955,0.886177 -0.443089,0 -0.606778,-0.392289 -0.606778,-0.886177 0,-0.493889 0.163689,-0.886177 0.606778,-0.886177 0.440266,0 0.603955,0.392288 0.603955,0.886177 z"
           id="path338" />
        <path
           d="m 33.85889,21.365 c 0,-0.406399 -0.160866,-0.663221 -0.539044,-0.663221 -0.163689,0 -0.316089,0.0762 -0.412044,0.206022 0,-0.369711 0.09313,-0.764822 0.412044,-0.764822 0.143933,0 0.285044,0.04798 0.397933,0.138289 v -0.118533 c -0.112889,-0.09031 -0.254,-0.138289 -0.397933,-0.138289 -0.443088,0 -0.660399,0.502355 -0.660399,1.001888 0,0.699911 0.180622,1.001888 0.601132,1.001888 0.358422,0 0.598311,-0.265288 0.598311,-0.663222 z m -0.248355,0 c 0,0.327378 -0.141111,0.544689 -0.349956,0.544689 -0.39511,0 -0.352777,-0.426155 -0.352777,-0.883355 0.09596,-0.129822 0.248355,-0.206022 0.412044,-0.206022 0.225778,0 0.290689,0.282222 0.290689,0.544688 z"
           id="path340" />
      </g>
      <g
         aria-label="LUT"
         id="text2561"
         style="font-size:2.82222px;line-height:1.25;font-family:Iwona;-inkscape-font-specification:Iwona;text-align:center;letter-spacing:0px;word-spacing:0px;text-anchor:middle;stroke-width:0.264583">
        <path
           d="M 23.866885,14 V 13.870178 H 22.969419 V 12.024446 H 22.737997 V 14 Z"
           id="path343" />
        <path
           d="m 25.625121,13.446845 v -1.422399 h -0.129822 v 1.377243 c 0,0.293511 -0.259645,0.513644 -0.5588,0.513644 -0.301977,0 -0.561622,-0.220133 -0.561622,-0.513644 v -1.377243 h -0.231422 v 1.422399 c 0,0.358422 0.3556,0.598311 0.742244,0.598311 0.383822,0 0.739422,-0.239889 0.739422,-0.598311 z"
           id="path345" />
        <path
           d="m 27.487786,12.154268 v -0.129822 h -1.552221 v 0.129822 h 0.660399 V 14 h 0.231422 v -1.845732 z"
           id="path347" />
      </g>
    </g>
    <path
       id="rect2563"
       style="fill:none;stroke:#000000;stroke-width:0.265"
       d="m 61,8 h 3.999998 v 8 H 61 Z" />
    <path
       style="fill:none;stroke:#000000;stroke-width:0.264583px;stroke-linecap:butt;stroke-linejoin:miter;stroke-opacity:1"
       d="m 61,12 h 3.999999"
       id="path2565" />
    <path
       style="fill:none;stroke:#000000;stroke-width:0.264583;stroke-linecap:butt;stroke-linejoin:miter;stroke-miterlimit:4;stroke-dasharray:0.264583, 0.264583;stroke-dashoffset:0;stroke-opacity:1"
       d="m 61,15.999999 v 3.999999"
       id="path7455" />
    <path
       id="path7457"
       d="m 65,16 v 3.999999"
       style="fill:none;stroke:#000000;stroke-width:0.264583;stroke-linecap:butt;stroke-linejoin:miter;stroke-miterlimit:4;stroke-dasharray:0.264583, 0.264583;stroke-dashoffset:0;stroke-opacity:1" />
    <path
       id="rect7459"
       style="fill:none;stroke:#000000;stroke-width:0.265"
       d="m 61,20 h 4 v 12 h -4 z" />
    <path
       id="path7461"
       d="m 61,32 v 4"
       style="fill:none;stroke:#000000;stroke-width:0.264583;stroke-linecap:butt;stroke-linejoin:miter;stroke-miterlimit:4;stroke-dasharray:0.264583, 0.264583;stroke-dashoffset:0;stroke-opacity:1" />
    <path
       style="fill:none;stroke:#000000;stroke-width:0.264583;stroke-linecap:butt;stroke-linejoin:miter;stroke-miterlimit:4;stroke-dasharray:0.264583, 0.264583;stroke-dashoffset:0;stroke-opacity:1"
       d="m 65,32 v 4"
       id="path7463" />
    <path
       id="path7467"
       d="M 60.999999,24 H 65"
       style="fill:none;stroke:#000000;stroke-width:0.264583px;stroke-linecap:butt;stroke-linejoin:miter;stroke-opacity:1" />
    <path
       style="fill:none;stroke:#000000;stroke-width:0.264583px;stroke-linecap:butt;stroke-linejoin:miter;stroke-opacity:1"
       d="M 60.999999,28 H 65"
       id="path7469" />
    <path
       style="fill:#fff6d5;fill-opacity:1;stroke:none;stroke-width:0.264583px;stroke-linecap:butt;stroke-linejoin:miter;stroke-opacity:1"
       d="M 69.999999,7.9999997 V 124 L 74,122 V 10 Z"
       id="path7502" />
    <path
       id="path1979-7"
       d="m 65,10 h 5"
       style="fill:none;stroke:#000000;stroke-width:0.265;stroke-linecap:butt;stroke-linejoin:miter;stroke-miterlimit:4;stroke-dasharray:none;stroke-opacity:1;marker-end:url(#marker1985-3)" />
    <path
       style="fill:none;stroke:#000000;stroke-width:0.265;stroke-linecap:butt;stroke-linejoin:miter;stroke-miterlimit:4;stroke-dasharray:none;stroke-opacity:1;marker-end:url(#marker8173)"
       d="m 65,14 h 5"
       id="path8169" />
    <path
       id="path8466"
       d="m 65,22 h 5"
       style="fill:none;stroke:#000000;stroke-width:0.265;stroke-linecap:butt;stroke-linejoin:miter;stroke-miterlimit:4;stroke-dasharray:none;stroke-opacity:1;marker-end:url(#marker8470)" />
    <path
       style="fill:none;stroke:#000000;stroke-width:0.265;stroke-linecap:butt;stroke-linejoin:miter;stroke-miterlimit:4;stroke-dasharray:none;stroke-opacity:1;marker-end:url(#marker8851)"
       d="m 65,26 h 5"
       id="path8847" />
    <path
       id="path9312"
       d="m 65,30 h 5"
       style="fill:none;stroke:#000000;stroke-width:0.265;stroke-linecap:butt;stroke-linejoin:miter;stroke-miterlimit:4;stroke-dasharray:none;stroke-opacity:1;marker-end:url(#marker9316)" />
    <path
       style="fill:none;stroke:#000000;stroke-width:0.265;stroke-linecap:butt;stroke-linejoin:miter;stroke-miterlimit:4;stroke-dasharray:none;stroke-opacity:1;marker-end:url(#marker9583)"
       d="m 65,42 h 5"
       id="path9579" />
    <path
       id="path9864"
       d="m 65,38 h 5"
       style="fill:none;stroke:#000000;stroke-width:0.265;stroke-linecap:butt;stroke-linejoin:miter;stroke-miterlimit:4;stroke-dasharray:none;stroke-opacity:1;marker-end:url(#marker9868)" />
    <path
       style="fill:none;stroke:#000000;stroke-width:0.265;stroke-linecap:butt;stroke-linejoin:miter;stroke-miterlimit:4;stroke-dasharray:none;stroke-opacity:1;marker-end:url(#marker10201)"
       d="m 65,46 h 5"
       id="path10197" />
    <path
       style="fill:none;stroke:#000000;stroke-width:0.264583px;stroke-linecap:butt;stroke-linejoin:miter;stroke-opacity:1"
       d="M 69.999999,16 V 7.9999998 L 74,10 l -10e-7,6"
       id="path11928" />
    <path
       id="path11936"
       d="m 70,16 v 3.999999"
       style="fill:none;stroke:#000000;stroke-width:0.264583;stroke-linecap:butt;stroke-linejoin:miter;stroke-miterlimit:4;stroke-dasharray:0.264583, 0.264583;stroke-dashoffset:0;stroke-opacity:1" />
    <path
       style="fill:none;stroke:#000000;stroke-width:0.264583;stroke-linecap:butt;stroke-linejoin:miter;stroke-miterlimit:4;stroke-dasharray:0.264583, 0.264583;stroke-dashoffset:0;stroke-opacity:1"
       d="M 74,16.000001 V 20"
       id="path11938" />
    <path
       style="fill:none;stroke:#000000;stroke-width:0.265;stroke-linecap:butt;stroke-linejoin:miter;stroke-miterlimit:4;stroke-dasharray:none;stroke-opacity:1;marker-end:url(#marker14689)"
       d="m 74,66 h 5"
       id="path14685" />
    <g
       aria-label="A6..1"
       id="text2529-5"
       style="font-size:2.82222px;line-height:1.25;font-family:Iwona;-inkscape-font-specification:Iwona;text-align:end;letter-spacing:0px;word-spacing:0px;text-anchor:end;stroke-width:0.264583">
      <path
         d="m 49.800548,129 -0.716843,-1.97555 H 48.838171 L 48.107216,129 h 0.138289 l 0.256822,-0.69144 h 0.801511 L 49.555015,129 Z m -0.544688,-0.82127 h -0.705555 l 0.3556,-0.9652 z"
         id="path352" />
      <path
         d="m 51.169322,128.365 c 0,-0.4064 -0.160866,-0.66322 -0.539044,-0.66322 -0.163689,0 -0.316089,0.0762 -0.412044,0.20602 0,-0.36971 0.09313,-0.76482 0.412044,-0.76482 0.143933,0 0.285044,0.048 0.397933,0.13829 v -0.11854 c -0.112889,-0.0903 -0.254,-0.13828 -0.397933,-0.13828 -0.443088,0 -0.660399,0.50235 -0.660399,1.00188 0,0.69991 0.180622,1.00189 0.601132,1.00189 0.358422,0 0.598311,-0.26529 0.598311,-0.66322 z m -0.248355,0 c 0,0.32738 -0.141111,0.54469 -0.349956,0.54469 -0.39511,0 -0.352777,-0.42616 -0.352777,-0.88336 0.09595,-0.12982 0.248355,-0.20602 0.412044,-0.20602 0.225778,0 0.290689,0.28222 0.290689,0.54469 z"
         id="path354" />
      <path
         d="m 51.750698,128.86171 c 0,-0.0762 -0.06209,-0.13829 -0.138289,-0.13829 -0.0762,0 -0.138288,0.0621 -0.138288,0.13829 0,0.0762 0.06209,0.13829 0.138288,0.13829 0.0762,0 0.138289,-0.0621 0.138289,-0.13829 z"
         id="path356" />
      <path
         d="m 52.35465,128.86171 c 0,-0.0762 -0.06209,-0.13829 -0.138289,-0.13829 -0.0762,0 -0.138288,0.0621 -0.138288,0.13829 0,0.0762 0.06209,0.13829 0.138288,0.13829 0.0762,0 0.138289,-0.0621 0.138289,-0.13829 z"
         id="path358" />
      <path
         d="m 53.449668,129 v -1.94733 h -0.163689 c -0.155222,0.1778 -0.338666,0.3302 -0.541866,0.44873 v 0.11853 c 0.172155,-0.0818 0.333022,-0.1778 0.485422,-0.29351 V 129 Z"
         id="path360" />
    </g>
    <g
       aria-label="O6"
       id="text21063"
       style="font-size:2.82222px;line-height:1.25;font-family:Iwona;-inkscape-font-specification:Iwona;letter-spacing:0px;word-spacing:0px;stroke-width:0.264583">
      <path
         d="m 81.933221,66.012223 c 0,-0.598311 -0.310444,-1.015999 -0.880533,-1.015999 -0.572911,0 -0.883355,0.417688 -0.883355,1.015999 0,0.598311 0.310444,1.015999 0.883355,1.015999 0.570089,0 0.880533,-0.417688 0.880533,-1.015999 z m -0.276578,0 c 0,0.493888 -0.163689,0.886177 -0.603955,0.886177 -0.443088,0 -0.606777,-0.392289 -0.606777,-0.886177 0,-0.493889 0.163689,-0.886177 0.606777,-0.886177 0.440266,0 0.603955,0.392288 0.603955,0.886177 z"
         id="path363" />
      <path
         d="m 83.443106,66.365 c 0,-0.406399 -0.160867,-0.663221 -0.539045,-0.663221 -0.163688,0 -0.316088,0.0762 -0.412044,0.206022 0,-0.369711 0.09313,-0.764822 0.412044,-0.764822 0.143934,0 0.285045,0.04798 0.397934,0.138289 v -0.118533 c -0.112889,-0.09031 -0.254,-0.138289 -0.397934,-0.138289 -0.443088,0 -0.660399,0.502355 -0.660399,1.001888 0,0.699911 0.180622,1.001888 0.601133,1.001888 0.358422,0 0.598311,-0.265288 0.598311,-0.663222 z m -0.248356,0 c 0,0.327378 -0.141111,0.544689 -0.349955,0.544689 -0.395111,0 -0.352778,-0.426155 -0.352778,-0.883355 0.09596,-0.129822 0.248356,-0.206022 0.412044,-0.206022 0.225778,0 0.290689,0.282222 0.290689,0.544688 z"
         id="path365" />
    </g>
    <g
       aria-label="0"
       id="text21637"
       style="font-size:2.11667px;line-height:1.25;font-family:Iwona;-inkscape-font-specification:Iwona;letter-spacing:0px;word-spacing:0px;stroke-width:0.264583">
      <path
         d="m 71.520235,9.9999992 c 0,-0.5016507 -0.154517,-0.7514178 -0.463551,-0.7514178 -0.309034,0 -0.463551,0.2497671 -0.463551,0.7514178 0,0.5016508 0.154517,0.7514178 0.463551,0.7514178 0.309034,0 0.463551,-0.249767 0.463551,-0.7514178 z m -0.186267,0 c 0,0.4423838 -0.09313,0.6625178 -0.277284,0.6625178 -0.18415,0 -0.277284,-0.220134 -0.277284,-0.6625178 0,-0.442384 0.09313,-0.6625176 0.277284,-0.6625176 0.18415,0 0.277284,0.2201336 0.277284,0.6625176 z"
         id="path368" />
    </g>
    <g
       aria-label="1"
       id="text21641"
       style="font-size:2.11667px;line-height:1.25;font-family:Iwona;-inkscape-font-specification:Iwona;letter-spacing:0px;word-spacing:0px;stroke-width:0.264583">
      <path
         d="m 71.198501,14.73025 v -1.460502 h -0.122767 c -0.116417,0.13335 -0.254,0.247651 -0.4064,0.336551 v 0.0889 c 0.129116,-0.06138 0.249767,-0.13335 0.364067,-0.220134 v 1.255185 z"
         id="path371" />
    </g>
    <g
       aria-label="8"
       id="text21645"
       style="font-size:2.11667px;line-height:1.25;font-family:Iwona;-inkscape-font-specification:Iwona;letter-spacing:0px;word-spacing:0px;stroke-width:0.264583">
      <path
         d="m 71.505418,22.332316 c 0,-0.198967 -0.09525,-0.340784 -0.258234,-0.400051 0.137584,-0.0508 0.215901,-0.1651 0.215901,-0.319617 0,-0.220133 -0.154517,-0.353484 -0.406401,-0.353484 -0.254,0 -0.408517,0.133351 -0.408517,0.353484 0,0.154517 0.07832,0.268817 0.2159,0.319617 -0.162983,0.05927 -0.258234,0.201084 -0.258234,0.400051 0,0.2667 0.171451,0.429684 0.450851,0.429684 0.277284,0 0.448734,-0.162984 0.448734,-0.429684 z m -0.207433,-0.719668 c 0,0.162984 -0.09313,0.264584 -0.241301,0.264584 -0.150283,0 -0.243417,-0.1016 -0.243417,-0.264584 0,-0.1651 0.09313,-0.264584 0.243417,-0.264584 0.148167,0 0.241301,0.09948 0.241301,0.264584 z m 0.02117,0.719668 c 0,0.211667 -0.09948,0.340784 -0.262467,0.340784 -0.1651,0 -0.264584,-0.129117 -0.264584,-0.340784 0,-0.211667 0.09948,-0.340784 0.264584,-0.340784 0.162984,0 0.262467,0.129117 0.262467,0.340784 z"
         id="path374" />
    </g>
    <g
       aria-label="9"
       id="text21649"
       style="font-size:2.11667px;line-height:1.25;font-family:Iwona;-inkscape-font-specification:Iwona;letter-spacing:0px;word-spacing:0px;stroke-width:0.264583">
      <path
         d="m 71.505418,25.999998 c 0,-0.524934 -0.135467,-0.751418 -0.448734,-0.751418 -0.270934,0 -0.450851,0.198967 -0.450851,0.497418 0,0.3048 0.120651,0.497417 0.404284,0.497417 0.122767,0 0.237067,-0.05715 0.309034,-0.154517 0,0.277284 -0.06985,0.573618 -0.309034,0.573618 -0.10795,0 -0.213783,-0.03598 -0.29845,-0.103717 v 0.0889 c 0.08467,0.06773 0.1905,0.103717 0.29845,0.103717 0.332318,0 0.495301,-0.376767 0.495301,-0.751418 z m -0.186267,0 c -0.07197,0.09737 -0.186267,0.154517 -0.309034,0.154517 -0.169333,0 -0.218017,-0.211667 -0.218017,-0.408517 0,-0.245534 0.105834,-0.408517 0.264584,-0.408517 0.294217,0 0.262467,0.319617 0.262467,0.662517 z"
         id="path377" />
    </g>
    <g
       aria-label="RAM"
       id="text21809"
       style="font-size:2.82222px;line-height:1.25;font-family:Iwona;-inkscape-font-specification:Iwona;text-align:center;letter-spacing:0px;word-spacing:0px;text-anchor:middle;stroke-width:0.264583">
      <path
         d="M 61.713821,7 61.112688,6.1053562 c 0.307622,-0.059267 0.519289,-0.2285998 0.519289,-0.5446884 0,-0.3979331 -0.341489,-0.5644441 -0.784577,-0.5644441 -0.158045,0 -0.316089,0.00847 -0.471311,0.028222 H 60.150311 V 7 h 0.231422 V 6.0827785 c 0.1524,0.028222 0.310444,0.045155 0.465667,0.045155 L 61.437244,7 Z M 61.355399,5.5606678 c 0,0.256822 -0.239889,0.4374441 -0.507999,0.4374441 -0.155223,0 -0.313267,-0.016933 -0.465667,-0.045156 V 5.1542681 c 0.155222,-0.019756 0.310444,-0.028222 0.465667,-0.028222 0.26811,0 0.507999,0.180622 0.507999,0.4346219 z"
         id="path380" />
      <path
         d="M 63.463596,7 62.746752,5.0244459 H 62.501219 L 61.770264,7 h 0.138288 l 0.256822,-0.6914439 h 0.801511 L 63.218063,7 Z M 62.918907,6.178734 h -0.705555 l 0.3556,-0.9651993 z"
         id="path382" />
      <path
         d="M 65.848368,7 65.73548,5.0244459 H 65.549213 L 64.756169,6.692378 63.960303,5.0244459 H 63.774037 L 63.661148,7 H 63.79097 L 63.881281,5.3998012 64.646103,7 h 0.104422 L 65.523813,5.3800457 65.616946,7 Z"
         id="path384" />
    </g>
    <g
       aria-label="a2"
       id="text22108"
       style="font-size:2.82222px;line-height:1.25;font-family:Iwona;-inkscape-font-specification:Iwona;text-align:end;letter-spacing:0px;word-spacing:0px;text-anchor:end;stroke-width:0.264583">
      <path
         d="m 2.811143,80.36689 v -0.790222 c 0,-0.265288 -0.1636888,-0.507999 -0.4092219,-0.507999 -0.1806221,0 -0.3499553,0.06209 -0.5023552,0.158044 v 0.08749 c 0.1269999,-0.07056 0.2681109,-0.115711 0.4148664,-0.115711 0.1749776,0 0.2765775,0.186266 0.2765775,0.378177 v 0.0508 c -0.1100666,-0.04798 -0.2285998,-0.0762 -0.3471331,-0.0762 -0.3019775,0 -0.5249329,0.138289 -0.5249329,0.423333 0,0.270933 0.1975554,0.420511 0.4825996,0.420511 0.1439333,0 0.2765776,-0.06491 0.3894664,-0.155222 v 0.127 z M 2.5910098,80.121357 c -0.084667,0.08467 -0.1890887,0.155222 -0.3104442,0.155222 -0.1890887,0 -0.3132664,-0.115711 -0.3132664,-0.301978 0,-0.172155 0.141111,-0.304799 0.3132664,-0.304799 0.1072444,0 0.2144887,0.02822 0.3104442,0.0762 z"
         id="path387" />
      <path
         d="M 3.9082785,80.931334 V 80.817598 H 3.2607201 L 3.5982576,80.48373 c 0.1504244,-0.150424 0.2916765,-0.326531 0.2916765,-0.539326 0,-0.179776 -0.177941,-0.29718 -0.3705575,-0.29718 -0.144921,0 -0.2825042,0.06604 -0.3723919,0.177941 v 0.07705 c 0.093557,-0.108232 0.2293053,-0.170603 0.3723919,-0.170603 0.1229077,0 0.2274709,0.09172 0.2274709,0.212796 0,0.181609 -0.084384,0.350378 -0.2091265,0.480624 l -0.4090808,0.420087 v 0.08622 z"
         style="font-size:65%;baseline-shift:sub"
         id="path389" />
    </g>
    <g
       aria-label="a1"
       id="text22116"
       style="font-size:2.82222px;line-height:1.25;font-family:Iwona;-inkscape-font-specification:Iwona;text-align:end;letter-spacing:0px;word-spacing:0px;text-anchor:end;stroke-width:0.264583">
      <path
         d="m 2.811143,77.36689 v -0.790222 c 0,-0.265288 -0.1636888,-0.507999 -0.4092219,-0.507999 -0.1806221,0 -0.3499553,0.06209 -0.5023552,0.158044 v 0.08749 c 0.1269999,-0.07056 0.2681109,-0.115711 0.4148664,-0.115711 0.1749776,0 0.2765775,0.186266 0.2765775,0.378177 v 0.0508 c -0.1100666,-0.04798 -0.2285998,-0.0762 -0.3471331,-0.0762 -0.3019775,0 -0.5249329,0.138289 -0.5249329,0.423333 0,0.270933 0.1975554,0.420511 0.4825996,0.420511 0.1439333,0 0.2765776,-0.06491 0.3894664,-0.155222 v 0.127 z M 2.5910098,77.121357 c -0.084667,0.08467 -0.1890887,0.155222 -0.3104442,0.155222 -0.1890887,0 -0.3132664,-0.115711 -0.3132664,-0.301978 0,-0.172155 0.141111,-0.304799 0.3132664,-0.304799 0.1072444,0 0.2144887,0.02822 0.3104442,0.0762 z"
         id="path392" />
      <path
         d="M 3.6422843,77.931334 V 76.665568 H 3.5358866 c -0.1008944,0.11557 -0.2201332,0.21463 -0.3522131,0.291677 v 0.07705 c 0.1119011,-0.0532 0.2164643,-0.11557 0.3155242,-0.190782 v 1.087825 z"
         style="font-size:65%;baseline-shift:sub"
         id="path394" />
    </g>
    <g
       aria-label="a0"
       id="text22122"
       style="font-size:2.82222px;line-height:1.25;font-family:Iwona;-inkscape-font-specification:Iwona;text-align:end;letter-spacing:0px;word-spacing:0px;text-anchor:end;stroke-width:0.264583">
      <path
         d="m 2.811143,74.357719 v -0.790221 c 0,-0.265289 -0.1636888,-0.508 -0.4092219,-0.508 -0.1806221,0 -0.3499553,0.06209 -0.5023552,0.158045 v 0.08749 c 0.1269999,-0.07055 0.2681109,-0.115711 0.4148664,-0.115711 0.1749776,0 0.2765775,0.186267 0.2765775,0.378178 v 0.0508 c -0.1100666,-0.04798 -0.2285998,-0.0762 -0.3471331,-0.0762 -0.3019775,0 -0.5249329,0.138289 -0.5249329,0.423333 0,0.270933 0.1975554,0.420511 0.4825996,0.420511 0.1439333,0 0.2765776,-0.06491 0.3894664,-0.155222 v 0.126999 z M 2.5910098,74.112186 c -0.084667,0.08467 -0.1890887,0.155222 -0.3104442,0.155222 -0.1890887,0 -0.3132664,-0.115711 -0.3132664,-0.301977 0,-0.172156 0.141111,-0.3048 0.3132664,-0.3048 0.1072444,0 0.2144887,0.02822 0.3104442,0.0762 z"
         id="path397" />
      <path
         d="m 3.9211196,74.289281 c 0,-0.434763 -0.1339143,-0.651228 -0.401743,-0.651228 -0.2678287,0 -0.401743,0.216465 -0.401743,0.651228 0,0.434763 0.1339143,0.651227 0.401743,0.651227 0.2678287,0 0.401743,-0.216464 0.401743,-0.651227 z m -0.161431,0 c 0,0.383398 -0.080716,0.57418 -0.240312,0.57418 -0.1595965,0 -0.240312,-0.190782 -0.240312,-0.57418 0,-0.383399 0.080716,-0.574181 0.240312,-0.574181 0.1595965,0 0.240312,0.190782 0.240312,0.574181 z"
         style="font-size:65%;baseline-shift:sub"
         id="path399" />
    </g>
    <g
       aria-label="b2"
       id="text22128"
       style="font-size:2.82222px;line-height:1.25;font-family:Iwona;-inkscape-font-specification:Iwona;text-align:end;letter-spacing:0px;word-spacing:0px;text-anchor:end;stroke-width:0.264583">
      <path
         d="m 2.8816978,71.070552 c 0,-0.375356 -0.141111,-0.663222 -0.4825996,-0.663222 -0.1439332,0 -0.2765776,0.06491 -0.3894664,0.155222 V 69.729997 H 1.7894987 v 1.975554 h 0.2201331 v -0.06491 c 0.1072444,0.05644 0.2257776,0.09313 0.3471331,0.09313 0.3527775,0 0.5249329,-0.282222 0.5249329,-0.663221 z m -0.2483553,0 c 0,0.265288 -0.081844,0.544688 -0.3132665,0.544688 -0.1100665,0 -0.2173109,-0.03669 -0.3104442,-0.09313 v -0.841022 c 0.084667,-0.08467 0.1890888,-0.155222 0.3104442,-0.155222 0.2568221,0 0.3132665,0.248356 0.3132665,0.544689 z"
         id="path402" />
      <path
         d="M 3.9082786,72.269995 V 72.15626 H 3.2607202 l 0.3375375,-0.333869 c 0.1504243,-0.150424 0.2916764,-0.326531 0.2916764,-0.539326 0,-0.179776 -0.1779409,-0.29718 -0.3705574,-0.29718 -0.144921,0 -0.2825043,0.06604 -0.372392,0.177941 v 0.07705 c 0.093557,-0.108232 0.2293054,-0.170604 0.372392,-0.170604 0.1229076,0 0.2274709,0.09172 0.2274709,0.212796 0,0.18161 -0.084384,0.350378 -0.2091265,0.480624 l -0.4090808,0.420087 v 0.08622 z"
         style="font-size:65%;baseline-shift:sub"
         id="path404" />
    </g>
    <g
       aria-label="b1"
       id="text22134"
       style="font-size:2.82222px;line-height:1.25;font-family:Iwona;-inkscape-font-specification:Iwona;text-align:end;letter-spacing:0px;word-spacing:0px;text-anchor:end;stroke-width:0.264583">
      <path
         d="m 2.8816978,68.070552 c 0,-0.375356 -0.141111,-0.663222 -0.4825996,-0.663222 -0.1439332,0 -0.2765776,0.06491 -0.3894664,0.155222 V 66.729997 H 1.7894987 v 1.975554 h 0.2201331 v -0.06491 c 0.1072444,0.05644 0.2257776,0.09313 0.3471331,0.09313 0.3527775,0 0.5249329,-0.282222 0.5249329,-0.663221 z m -0.2483553,0 c 0,0.265288 -0.081844,0.544688 -0.3132665,0.544688 -0.1100665,0 -0.2173109,-0.03669 -0.3104442,-0.09313 v -0.841022 c 0.084667,-0.08467 0.1890888,-0.155222 0.3104442,-0.155222 0.2568221,0 0.3132665,0.248356 0.3132665,0.544689 z"
         id="path407" />
      <path
         d="M 3.6422843,69.269995 V 68.00423 H 3.5358867 c -0.1008944,0.115569 -0.2201332,0.214629 -0.3522131,0.291676 v 0.07705 c 0.111901,-0.0532 0.2164643,-0.11557 0.3155242,-0.190783 v 1.087825 z"
         style="font-size:65%;baseline-shift:sub"
         id="path409" />
    </g>
    <g
       aria-label="b0"
       id="text22140"
       style="font-size:2.82222px;line-height:1.25;font-family:Iwona;-inkscape-font-specification:Iwona;text-align:end;letter-spacing:0px;word-spacing:0px;text-anchor:end;stroke-width:0.264583">
      <path
         d="m 2.8816978,65.061381 c 0,-0.375355 -0.141111,-0.663222 -0.4825996,-0.663222 -0.1439332,0 -0.2765776,0.06491 -0.3894664,0.155222 V 63.720827 H 1.7894987 v 1.975554 h 0.2201331 v -0.06491 c 0.1072444,0.05644 0.2257776,0.09313 0.3471331,0.09313 0.3527775,0 0.5249329,-0.282222 0.5249329,-0.663222 z m -0.2483553,0 c 0,0.265289 -0.081844,0.544689 -0.3132665,0.544689 -0.1100665,0 -0.2173109,-0.03669 -0.3104442,-0.09313 v -0.841021 c 0.084667,-0.08467 0.1890888,-0.155222 0.3104442,-0.155222 0.2568221,0 0.3132665,0.248355 0.3132665,0.544688 z"
         id="path412" />
      <path
         d="m 3.9211197,65.627942 c 0,-0.434763 -0.1339144,-0.651227 -0.401743,-0.651227 -0.2678287,0 -0.401743,0.216464 -0.401743,0.651227 0,0.434763 0.1339143,0.651227 0.401743,0.651227 0.2678286,0 0.401743,-0.216464 0.401743,-0.651227 z m -0.161431,0 c 0,0.383398 -0.080715,0.57418 -0.240312,0.57418 -0.1595966,0 -0.2403121,-0.190782 -0.2403121,-0.57418 0,-0.383399 0.080716,-0.574181 0.2403121,-0.574181 0.1595965,0 0.240312,0.190782 0.240312,0.574181 z"
         style="font-size:65%;baseline-shift:sub"
         id="path414" />
    </g>
    <g
       aria-label="e"
       id="text22146"
       style="font-size:2.82222px;line-height:1.25;font-family:Iwona;-inkscape-font-specification:Iwona;letter-spacing:0px;word-spacing:0px;stroke-width:0.264583">
      <path
         d="m 37.247421,74.028225 v -0.02822 c 0,-0.397933 -0.217311,-0.663222 -0.544688,-0.663222 -0.3302,0 -0.547511,0.265289 -0.547511,0.663222 0,0.397933 0.217311,0.663221 0.547511,0.663221 0.141111,0 0.2794,-0.04515 0.395111,-0.127 v -0.118533 c -0.132645,0.08467 -0.239889,0.115711 -0.395111,0.115711 -0.239889,0 -0.299156,-0.2286 -0.299156,-0.505177 z m -0.248355,-0.118533 h -0.595489 c 0,-0.225778 0.09596,-0.454378 0.299156,-0.454378 0.200377,0 0.296333,0.2286 0.296333,0.454378 z"
         id="path417" />
    </g>
    <g
       aria-label="1"
       id="text22524"
       style="font-size:2.82222px;line-height:1.25;font-family:Iwona;-inkscape-font-specification:Iwona;text-align:center;letter-spacing:0px;word-spacing:0px;text-anchor:middle;stroke-width:0.264583">
      <path
         d="M 63.1905,11 V 9.0526681 H 63.026812 C 62.87159,9.230468 62.688145,9.3828679 62.484945,9.5014011 V 9.6199344 C 62.657101,9.53809 62.817967,9.4421345 62.970367,9.3264235 V 11 Z"
         id="path420" />
    </g>
    <g
       aria-label="0"
       id="text22528"
       style="font-size:2.82222px;line-height:1.25;font-family:Iwona;-inkscape-font-specification:Iwona;text-align:center;letter-spacing:0px;word-spacing:0px;text-anchor:middle;stroke-width:0.264583">
      <path
         d="m 63.619478,14.026334 c 0,-0.668866 -0.206022,-1.001888 -0.618066,-1.001888 -0.412044,0 -0.618067,0.333022 -0.618067,1.001888 0,0.668866 0.206023,1.001888 0.618067,1.001888 0.412044,0 0.618066,-0.333022 0.618066,-1.001888 z m -0.248356,0 c 0,0.589844 -0.124177,0.883355 -0.36971,0.883355 -0.245533,0 -0.369711,-0.293511 -0.369711,-0.883355 0,-0.589844 0.124178,-0.883355 0.369711,-0.883355 0.245533,0 0.36971,0.293511 0.36971,0.883355 z"
         id="path423" />
    </g>
    <g
       aria-label="0"
       id="text22544"
       style="font-size:2.82222px;line-height:1.25;font-family:Iwona;-inkscape-font-specification:Iwona;text-align:center;letter-spacing:0px;word-spacing:0px;text-anchor:middle;stroke-width:0.264583">
      <path
         d="m 63.619478,22.026334 c 0,-0.668866 -0.206022,-1.001888 -0.618066,-1.001888 -0.412044,0 -0.618067,0.333022 -0.618067,1.001888 0,0.668866 0.206023,1.001888 0.618067,1.001888 0.412044,0 0.618066,-0.333022 0.618066,-1.001888 z m -0.248356,0 c 0,0.589844 -0.124177,0.883355 -0.36971,0.883355 -0.245533,0 -0.369711,-0.293511 -0.369711,-0.883355 0,-0.589844 0.124178,-0.883355 0.369711,-0.883355 0.245533,0 0.36971,0.293511 0.36971,0.883355 z"
         id="path426" />
    </g>
    <g
       aria-label="1"
       id="text22548"
       style="font-size:2.82222px;line-height:1.25;font-family:Iwona;-inkscape-font-specification:Iwona;text-align:center;letter-spacing:0px;word-spacing:0px;text-anchor:middle;stroke-width:0.264583">
      <path
         d="m 63.1905,27 v -1.947332 h -0.163688 c -0.155222,0.1778 -0.338667,0.3302 -0.541867,0.448733 v 0.118533 c 0.172156,-0.08184 0.333022,-0.177799 0.485422,-0.293511 V 27 Z"
         id="path429" />
    </g>
    <g
       aria-label="0"
       id="text22552"
       style="font-size:2.82222px;line-height:1.25;font-family:Iwona;-inkscape-font-specification:Iwona;text-align:center;letter-spacing:0px;word-spacing:0px;text-anchor:middle;stroke-width:0.264583">
      <path
         d="m 63.619478,30.026334 c 0,-0.668866 -0.206022,-1.001888 -0.618066,-1.001888 -0.412044,0 -0.618067,0.333022 -0.618067,1.001888 0,0.668866 0.206023,1.001888 0.618067,1.001888 0.412044,0 0.618066,-0.333022 0.618066,-1.001888 z m -0.248356,0 c 0,0.589844 -0.124177,0.883355 -0.36971,0.883355 -0.245533,0 -0.369711,-0.293511 -0.369711,-0.883355 0,-0.589844 0.124178,-0.883355 0.369711,-0.883355 0.245533,0 0.36971,0.293511 0.36971,0.883355 z"
         id="path432" />
    </g>
    <path
       id="rect22554"
       style="fill:none;stroke:#000000;stroke-width:0.265"
       d="m 61,36 h 4 v 12 h -4 z" />
    <path
       style="fill:none;stroke:#000000;stroke-width:0.264583px;stroke-linecap:butt;stroke-linejoin:miter;stroke-opacity:1"
       d="M 60.999999,40 H 65"
       id="path22556" />
    <path
       id="path22558"
       d="M 60.999999,44 H 65"
       style="fill:none;stroke:#000000;stroke-width:0.264583px;stroke-linecap:butt;stroke-linejoin:miter;stroke-opacity:1" />
    <g
       aria-label="0"
       id="text22562"
       style="font-size:2.82222px;line-height:1.25;font-family:Iwona;-inkscape-font-specification:Iwona;text-align:center;letter-spacing:0px;word-spacing:0px;text-anchor:middle;stroke-width:0.264583">
      <path
         d="m 63.619478,38.026334 c 0,-0.668866 -0.206022,-1.001888 -0.618066,-1.001888 -0.412044,0 -0.618067,0.333022 -0.618067,1.001888 0,0.668866 0.206023,1.001888 0.618067,1.001888 0.412044,0 0.618066,-0.333022 0.618066,-1.001888 z m -0.248356,0 c 0,0.589844 -0.124177,0.883355 -0.36971,0.883355 -0.245533,0 -0.369711,-0.293511 -0.369711,-0.883355 0,-0.589844 0.124178,-0.883355 0.369711,-0.883355 0.245533,0 0.36971,0.293511 0.36971,0.883355 z"
         id="path436" />
    </g>
    <g
       aria-label="1"
       id="text22566"
       style="font-size:2.82222px;line-height:1.25;font-family:Iwona;-inkscape-font-specification:Iwona;text-align:center;letter-spacing:0px;word-spacing:0px;text-anchor:middle;stroke-width:0.264583">
      <path
         d="m 63.1905,43 v -1.947332 h -0.163688 c -0.155222,0.1778 -0.338667,0.3302 -0.541867,0.448733 v 0.118533 c 0.172156,-0.08184 0.333022,-0.177799 0.485422,-0.293511 V 43 Z"
         id="path439" />
    </g>
    <g
       aria-label="0"
       id="text22570"
       style="font-size:2.82222px;line-height:1.25;font-family:Iwona;-inkscape-font-specification:Iwona;text-align:center;letter-spacing:0px;word-spacing:0px;text-anchor:middle;stroke-width:0.264583">
      <path
         d="m 63.619478,46.026334 c 0,-0.668866 -0.206022,-1.001888 -0.618066,-1.001888 -0.412044,0 -0.618067,0.333022 -0.618067,1.001888 0,0.668866 0.206023,1.001888 0.618067,1.001888 0.412044,0 0.618066,-0.333022 0.618066,-1.001888 z m -0.248356,0 c 0,0.589844 -0.124177,0.883355 -0.36971,0.883355 -0.245533,0 -0.369711,-0.293511 -0.369711,-0.883355 0,-0.589844 0.124178,-0.883355 0.369711,-0.883355 0.245533,0 0.36971,0.293511 0.36971,0.883355 z"
         id="path442" />
    </g>
    <g
       aria-label="10"
       id="text22952"
       style="font-size:2.11667px;line-height:1.25;font-family:Iwona;-inkscape-font-specification:Iwona;letter-spacing:0px;word-spacing:0px;stroke-width:0.264583">
      <path
         d="m 71.198501,30.730249 v -1.460502 h -0.122767 c -0.116417,0.13335 -0.254,0.247651 -0.4064,0.336551 v 0.0889 c 0.129116,-0.06138 0.249767,-0.13335 0.364067,-0.220134 v 1.255185 z"
         id="path445" />
      <path
         d="m 72.631486,29.999998 c 0,-0.50165 -0.154517,-0.751418 -0.463551,-0.751418 -0.309034,0 -0.463551,0.249768 -0.463551,0.751418 0,0.501651 0.154517,0.751418 0.463551,0.751418 0.309034,0 0.463551,-0.249767 0.463551,-0.751418 z m -0.186267,0 c 0,0.442384 -0.09313,0.662518 -0.277284,0.662518 -0.18415,0 -0.277284,-0.220134 -0.277284,-0.662518 0,-0.442384 0.09313,-0.662517 0.277284,-0.662517 0.18415,0 0.277284,0.220133 0.277284,0.662517 z"
         id="path447" />
    </g>
    <g
       aria-label="17"
       id="text22962"
       style="font-size:2.11667px;line-height:1.25;font-family:Iwona;-inkscape-font-specification:Iwona;letter-spacing:0px;word-spacing:0px;stroke-width:0.264583">
      <path
         d="m 71.198501,38.730251 v -1.460502 h -0.122767 c -0.116417,0.13335 -0.254,0.24765 -0.4064,0.336551 v 0.0889 c 0.129116,-0.06138 0.249767,-0.13335 0.364067,-0.220134 v 1.255185 z"
         id="path450" />
      <path
         d="m 72.616669,37.341716 v -0.07197 h -0.899585 v 0.131234 h 0.690035 l -0.624418,1.329268 h 0.182034 z"
         id="path452" />
    </g>
    <g
       aria-label="18"
       id="text22966"
       style="font-size:2.11667px;line-height:1.25;font-family:Iwona;-inkscape-font-specification:Iwona;letter-spacing:0px;word-spacing:0px;stroke-width:0.264583">
      <path
         d="m 71.198501,42.730251 v -1.460502 h -0.122767 c -0.116417,0.13335 -0.254,0.24765 -0.4064,0.336551 v 0.0889 c 0.129116,-0.06138 0.249767,-0.13335 0.364067,-0.220134 v 1.255185 z"
         id="path455" />
      <path
         d="m 72.616669,42.321734 c 0,-0.198967 -0.09525,-0.340784 -0.258234,-0.400051 0.137584,-0.0508 0.215901,-0.1651 0.215901,-0.319617 0,-0.220133 -0.154517,-0.353484 -0.406401,-0.353484 -0.254,0 -0.408517,0.133351 -0.408517,0.353484 0,0.154517 0.07832,0.268817 0.2159,0.319617 -0.162983,0.05927 -0.258234,0.201084 -0.258234,0.400051 0,0.2667 0.171451,0.429684 0.450851,0.429684 0.277284,0 0.448734,-0.162984 0.448734,-0.429684 z m -0.207434,-0.719668 c 0,0.162984 -0.09313,0.264584 -0.2413,0.264584 -0.150284,0 -0.243417,-0.1016 -0.243417,-0.264584 0,-0.1651 0.09313,-0.264583 0.243417,-0.264583 0.148167,0 0.2413,0.09948 0.2413,0.264583 z m 0.02117,0.719668 c 0,0.211667 -0.09948,0.340784 -0.262467,0.340784 -0.1651,0 -0.264584,-0.129117 -0.264584,-0.340784 0,-0.211667 0.09948,-0.340784 0.264584,-0.340784 0.162984,0 0.262467,0.129117 0.262467,0.340784 z"
         id="path457" />
    </g>
    <g
       aria-label="19"
       id="text22970"
       style="font-size:2.11667px;line-height:1.25;font-family:Iwona;-inkscape-font-specification:Iwona;letter-spacing:0px;word-spacing:0px;stroke-width:0.264583">
      <path
         d="m 71.198501,46.730251 v -1.460502 h -0.122767 c -0.116417,0.13335 -0.254,0.24765 -0.4064,0.336551 v 0.0889 c 0.129116,-0.06138 0.249767,-0.13335 0.364067,-0.220134 v 1.255185 z"
         id="path460" />
      <path
         d="m 72.616669,46 c 0,-0.524934 -0.135467,-0.751418 -0.448734,-0.751418 -0.270934,0 -0.450851,0.198967 -0.450851,0.497418 0,0.3048 0.120651,0.497417 0.404284,0.497417 0.122767,0 0.237067,-0.05715 0.309034,-0.154517 0,0.277284 -0.06985,0.573618 -0.309034,0.573618 -0.10795,0 -0.213783,-0.03598 -0.29845,-0.103717 v 0.0889 c 0.08467,0.06773 0.1905,0.103717 0.29845,0.103717 0.332317,0 0.495301,-0.376767 0.495301,-0.751418 z m -0.186267,0 c -0.07197,0.09737 -0.186267,0.154517 -0.309034,0.154517 -0.169333,0 -0.218017,-0.211667 -0.218017,-0.408517 0,-0.245534 0.105834,-0.408517 0.264584,-0.408517 0.294217,0 0.262467,0.319617 0.262467,0.662517 z"
         id="path462" />
    </g>
    <path
       style="fill:none;stroke:#000000;stroke-width:0.264583;stroke-linecap:butt;stroke-linejoin:miter;stroke-miterlimit:4;stroke-dasharray:0.264583, 0.264583;stroke-dashoffset:0;stroke-opacity:1"
       d="m 61,48 v 4"
       id="path22990" />
    <path
       id="path22992"
       d="m 65,48 v 4"
       style="fill:none;stroke:#000000;stroke-width:0.264583;stroke-linecap:butt;stroke-linejoin:miter;stroke-miterlimit:4;stroke-dasharray:0.264583, 0.264583;stroke-dashoffset:0;stroke-opacity:1" />
    <path
       id="rect22994"
       style="fill:none;stroke:#000000;stroke-width:0.265"
       d="m 61,52 h 4 v 12 h -4 z" />
    <path
       id="path22996"
       d="M 60.999999,56 H 65"
       style="fill:none;stroke:#000000;stroke-width:0.264583px;stroke-linecap:butt;stroke-linejoin:miter;stroke-opacity:1" />
    <path
       style="fill:none;stroke:#000000;stroke-width:0.264583px;stroke-linecap:butt;stroke-linejoin:miter;stroke-opacity:1"
       d="M 60.999999,60 H 65"
       id="path22998" />
    <g
       aria-label="0"
       id="text23002"
       style="font-size:2.82222px;line-height:1.25;font-family:Iwona;-inkscape-font-specification:Iwona;text-align:center;letter-spacing:0px;word-spacing:0px;text-anchor:middle;stroke-width:0.264583">
      <path
         d="m 63.619478,54.026334 c 0,-0.668866 -0.206022,-1.001888 -0.618066,-1.001888 -0.412044,0 -0.618067,0.333022 -0.618067,1.001888 0,0.668866 0.206023,1.001888 0.618067,1.001888 0.412044,0 0.618066,-0.333022 0.618066,-1.001888 z m -0.248356,0 c 0,0.589844 -0.124177,0.883355 -0.36971,0.883355 -0.245533,0 -0.369711,-0.293511 -0.369711,-0.883355 0,-0.589844 0.124178,-0.883355 0.369711,-0.883355 0.245533,0 0.36971,0.293511 0.36971,0.883355 z"
         id="path466" />
    </g>
    <g
       aria-label="1"
       id="text23006"
       style="font-size:2.82222px;line-height:1.25;font-family:Iwona;-inkscape-font-specification:Iwona;text-align:center;letter-spacing:0px;word-spacing:0px;text-anchor:middle;stroke-width:0.264583">
      <path
         d="m 63.1905,59 v -1.947332 h -0.163688 c -0.155222,0.1778 -0.338667,0.3302 -0.541867,0.448733 v 0.118533 c 0.172156,-0.08184 0.333022,-0.177799 0.485422,-0.293511 V 59 Z"
         id="path469" />
    </g>
    <g
       aria-label="0"
       id="text23010"
       style="font-size:2.82222px;line-height:1.25;font-family:Iwona;-inkscape-font-specification:Iwona;text-align:center;letter-spacing:0px;word-spacing:0px;text-anchor:middle;stroke-width:0.264583">
      <path
         d="m 63.619478,62.026334 c 0,-0.668866 -0.206022,-1.001888 -0.618066,-1.001888 -0.412044,0 -0.618067,0.333022 -0.618067,1.001888 0,0.668866 0.206023,1.001888 0.618067,1.001888 0.412044,0 0.618066,-0.333022 0.618066,-1.001888 z m -0.248356,0 c 0,0.589844 -0.124177,0.883355 -0.36971,0.883355 -0.245533,0 -0.369711,-0.293511 -0.369711,-0.883355 0,-0.589844 0.124178,-0.883355 0.369711,-0.883355 0.245533,0 0.36971,0.293511 0.36971,0.883355 z"
         id="path472" />
    </g>
    <path
       style="fill:none;stroke:#000000;stroke-width:0.264583px;stroke-linecap:butt;stroke-linejoin:miter;stroke-opacity:1"
       d="M 69.999999,20 V 31.999999"
       id="path23012" />
    <path
       id="path23014"
       d="M 74,20 V 31.999999"
       style="fill:none;stroke:#000000;stroke-width:0.264583px;stroke-linecap:butt;stroke-linejoin:miter;stroke-opacity:1" />
    <path
       style="fill:none;stroke:#000000;stroke-width:0.264583;stroke-linecap:butt;stroke-linejoin:miter;stroke-miterlimit:4;stroke-dasharray:0.264583, 0.264583;stroke-dashoffset:0;stroke-opacity:1"
       d="m 70,32 v 3.999999"
       id="path23016" />
    <path
       id="path23018"
       d="M 74,32.000001 V 36"
       style="fill:none;stroke:#000000;stroke-width:0.264583;stroke-linecap:butt;stroke-linejoin:miter;stroke-miterlimit:4;stroke-dasharray:0.264583, 0.264583;stroke-dashoffset:0;stroke-opacity:1" />
    <path
       id="path23024"
       d="m 70,48 v 3.999999"
       style="fill:none;stroke:#000000;stroke-width:0.264583;stroke-linecap:butt;stroke-linejoin:miter;stroke-miterlimit:4;stroke-dasharray:0.264583, 0.264583;stroke-dashoffset:0;stroke-opacity:1" />
    <path
       style="fill:none;stroke:#000000;stroke-width:0.264583;stroke-linecap:butt;stroke-linejoin:miter;stroke-miterlimit:4;stroke-dasharray:0.264583, 0.264583;stroke-dashoffset:0;stroke-opacity:1"
       d="M 74,48.000001 V 52"
       id="path23026" />
    <path
       id="path23028"
       d="M 69.999999,36 V 47.999999"
       style="fill:none;stroke:#000000;stroke-width:0.264583px;stroke-linecap:butt;stroke-linejoin:miter;stroke-opacity:1" />
    <path
       style="fill:none;stroke:#000000;stroke-width:0.264583px;stroke-linecap:butt;stroke-linejoin:miter;stroke-opacity:1"
       d="M 74,36 V 47.999999"
       id="path23030" />
    <path
       id="path23032"
       d="m 65,58 h 5"
       style="fill:none;stroke:#000000;stroke-width:0.265;stroke-linecap:butt;stroke-linejoin:miter;stroke-miterlimit:4;stroke-dasharray:none;stroke-opacity:1;marker-end:url(#marker23052)" />
    <path
       style="fill:none;stroke:#000000;stroke-width:0.265;stroke-linecap:butt;stroke-linejoin:miter;stroke-miterlimit:4;stroke-dasharray:none;stroke-opacity:1;marker-end:url(#marker9868)"
       d="m 65,54 h 5"
       id="path23034" />
    <path
       id="path23036"
       d="m 65,62 h 5"
       style="fill:none;stroke:#000000;stroke-width:0.265;stroke-linecap:butt;stroke-linejoin:miter;stroke-miterlimit:4;stroke-dasharray:none;stroke-opacity:1;marker-end:url(#marker10201)" />
    <g
       aria-label="26"
       id="text23040"
       style="font-size:2.11667px;line-height:1.25;font-family:Iwona;-inkscape-font-specification:Iwona;letter-spacing:0px;word-spacing:0px;stroke-width:0.264583">
      <path
         d="m 71.505418,54.730251 v -0.131233 h -0.747184 l 0.389467,-0.385234 c 0.173567,-0.173567 0.336551,-0.376767 0.336551,-0.622301 0,-0.207434 -0.205317,-0.342901 -0.427568,-0.342901 -0.167217,0 -0.325967,0.0762 -0.429684,0.205317 v 0.0889 c 0.10795,-0.124884 0.264584,-0.196851 0.429684,-0.196851 0.141817,0 0.262467,0.105834 0.262467,0.245534 0,0.20955 -0.09737,0.404284 -0.2413,0.554567 l -0.472018,0.484718 v 0.09948 z"
         id="path475" />
      <path
         d="m 72.616669,54.254001 c 0,-0.304801 -0.12065,-0.497418 -0.404284,-0.497418 -0.122767,0 -0.237067,0.05715 -0.309034,0.154517 0,-0.277284 0.06985,-0.573617 0.309034,-0.573617 0.10795,0 0.213784,0.03598 0.298451,0.103716 v -0.0889 c -0.08467,-0.06773 -0.190501,-0.103717 -0.298451,-0.103717 -0.332317,0 -0.495301,0.376768 -0.495301,0.751418 0,0.524934 0.135467,0.751418 0.450851,0.751418 0.268817,0 0.448734,-0.198967 0.448734,-0.497417 z m -0.186267,0 c 0,0.245533 -0.105833,0.408517 -0.262467,0.408517 -0.296334,0 -0.264584,-0.319617 -0.264584,-0.662518 0.07197,-0.09737 0.186267,-0.154517 0.309034,-0.154517 0.169334,0 0.218017,0.211667 0.218017,0.408518 z"
         id="path477" />
    </g>
    <g
       aria-label="27"
       id="text23044"
       style="font-size:2.11667px;line-height:1.25;font-family:Iwona;-inkscape-font-specification:Iwona;letter-spacing:0px;word-spacing:0px;stroke-width:0.264583">
      <path
         d="m 71.505418,58.730251 v -0.131233 h -0.747184 l 0.389467,-0.385234 c 0.173567,-0.173567 0.336551,-0.376767 0.336551,-0.622301 0,-0.207434 -0.205317,-0.342901 -0.427568,-0.342901 -0.167217,0 -0.325967,0.0762 -0.429684,0.205317 v 0.0889 c 0.10795,-0.124884 0.264584,-0.196851 0.429684,-0.196851 0.141817,0 0.262467,0.105834 0.262467,0.245534 0,0.20955 -0.09737,0.404284 -0.2413,0.554567 l -0.472018,0.484718 v 0.09948 z"
         id="path480" />
      <path
         d="m 72.616669,57.341716 v -0.07197 h -0.899585 v 0.131234 h 0.690035 l -0.624418,1.329268 h 0.182034 z"
         id="path482" />
    </g>
    <g
       aria-label="28"
       id="text23048"
       style="font-size:2.11667px;line-height:1.25;font-family:Iwona;-inkscape-font-specification:Iwona;letter-spacing:0px;word-spacing:0px;stroke-width:0.264583">
      <path
         d="m 71.505418,62.730251 v -0.131233 h -0.747184 l 0.389467,-0.385234 c 0.173567,-0.173567 0.336551,-0.376767 0.336551,-0.622301 0,-0.207434 -0.205317,-0.342901 -0.427568,-0.342901 -0.167217,0 -0.325967,0.0762 -0.429684,0.205317 v 0.0889 c 0.10795,-0.124884 0.264584,-0.196851 0.429684,-0.196851 0.141817,0 0.262467,0.105834 0.262467,0.245534 0,0.20955 -0.09737,0.404284 -0.2413,0.554567 l -0.472018,0.484718 v 0.09948 z"
         id="path485" />
      <path
         d="m 72.616669,62.321734 c 0,-0.198967 -0.09525,-0.340784 -0.258234,-0.400051 0.137584,-0.0508 0.215901,-0.1651 0.215901,-0.319617 0,-0.220133 -0.154517,-0.353484 -0.406401,-0.353484 -0.254,0 -0.408517,0.133351 -0.408517,0.353484 0,0.154517 0.07832,0.268817 0.2159,0.319617 -0.162983,0.05927 -0.258234,0.201084 -0.258234,0.400051 0,0.2667 0.171451,0.429684 0.450851,0.429684 0.277284,0 0.448734,-0.162984 0.448734,-0.429684 z m -0.207434,-0.719668 c 0,0.162984 -0.09313,0.264584 -0.2413,0.264584 -0.150284,0 -0.243417,-0.1016 -0.243417,-0.264584 0,-0.1651 0.09313,-0.264583 0.243417,-0.264583 0.148167,0 0.2413,0.09948 0.2413,0.264583 z m 0.02117,0.719668 c 0,0.211667 -0.09948,0.340784 -0.262467,0.340784 -0.1651,0 -0.264584,-0.129117 -0.264584,-0.340784 0,-0.211667 0.09948,-0.340784 0.264584,-0.340784 0.162984,0 0.262467,0.129117 0.262467,0.340784 z"
         id="path487" />
    </g>
    <path
       id="path23663"
       d="m 61,64 v 4"
       style="fill:none;stroke:#000000;stroke-width:0.264583;stroke-linecap:butt;stroke-linejoin:miter;stroke-miterlimit:4;stroke-dasharray:0.264583, 0.264583;stroke-dashoffset:0;stroke-opacity:1" />
    <path
       style="fill:none;stroke:#000000;stroke-width:0.264583;stroke-linecap:butt;stroke-linejoin:miter;stroke-miterlimit:4;stroke-dasharray:0.264583, 0.264583;stroke-dashoffset:0;stroke-opacity:1"
       d="m 65,64 v 4"
       id="path23665" />
    <path
       style="fill:none;stroke:#000000;stroke-width:0.264583;stroke-linecap:butt;stroke-linejoin:miter;stroke-miterlimit:4;stroke-dasharray:0.264583, 0.264583;stroke-dashoffset:0;stroke-opacity:1"
       d="M 70,64.000001 V 68"
       id="path24160" />
    <path
       id="path24162"
       d="m 74,64.000002 v 3.999999"
       style="fill:none;stroke:#000000;stroke-width:0.264583;stroke-linecap:butt;stroke-linejoin:miter;stroke-miterlimit:4;stroke-dasharray:0.264583, 0.264583;stroke-dashoffset:0;stroke-opacity:1" />
    <path
       style="fill:none;stroke:#000000;stroke-width:0.264583px;stroke-linecap:butt;stroke-linejoin:miter;stroke-opacity:1"
       d="M 69.999999,52.000001 V 64"
       id="path24164" />
    <path
       id="path24166"
       d="M 74,52.000001 V 64"
       style="fill:none;stroke:#000000;stroke-width:0.264583px;stroke-linecap:butt;stroke-linejoin:miter;stroke-opacity:1" />
    <path
       id="path24170"
       d="m 65,80 v 4"
       style="fill:none;stroke:#000000;stroke-width:0.264583;stroke-linecap:butt;stroke-linejoin:miter;stroke-miterlimit:4;stroke-dasharray:0.264583, 0.264583;stroke-dashoffset:0;stroke-opacity:1" />
    <path
       style="fill:none;stroke:#000000;stroke-width:0.265;stroke-linecap:butt;stroke-linejoin:miter;stroke-miterlimit:4;stroke-dasharray:none;stroke-opacity:1;marker-end:url(#marker8470)"
       d="m 65,70 h 5"
       id="path24178" />
    <path
       id="path24180"
       d="m 65,74 h 5"
       style="fill:none;stroke:#000000;stroke-width:0.265;stroke-linecap:butt;stroke-linejoin:miter;stroke-miterlimit:4;stroke-dasharray:none;stroke-opacity:1;marker-end:url(#marker8851)" />
    <path
       style="fill:none;stroke:#000000;stroke-width:0.265;stroke-linecap:butt;stroke-linejoin:miter;stroke-miterlimit:4;stroke-dasharray:none;stroke-opacity:1;marker-end:url(#marker9316)"
       d="m 65,78 h 5"
       id="path24182" />
    <path
       id="path24184"
       d="m 65,90 h 5"
       style="fill:none;stroke:#000000;stroke-width:0.265;stroke-linecap:butt;stroke-linejoin:miter;stroke-miterlimit:4;stroke-dasharray:none;stroke-opacity:1;marker-end:url(#marker9583)" />
    <path
       style="fill:none;stroke:#000000;stroke-width:0.265;stroke-linecap:butt;stroke-linejoin:miter;stroke-miterlimit:4;stroke-dasharray:none;stroke-opacity:1;marker-end:url(#marker9868)"
       d="m 65,86 h 5"
       id="path24186" />
    <path
       id="path24188"
       d="m 65,94 h 5"
       style="fill:none;stroke:#000000;stroke-width:0.265;stroke-linecap:butt;stroke-linejoin:miter;stroke-miterlimit:4;stroke-dasharray:none;stroke-opacity:1;marker-end:url(#marker10201)" />
    <path
       id="path24192"
       d="m 70,116 v 8 l 4,-2 v -6"
       style="fill:none;stroke:#000000;stroke-width:0.264583px;stroke-linecap:butt;stroke-linejoin:miter;stroke-opacity:1" />
    <g
       aria-label="35"
       id="text24208"
       style="font-size:2.11667px;line-height:1.25;font-family:Iwona;-inkscape-font-specification:Iwona;letter-spacing:0px;word-spacing:0px;stroke-width:0.264583">
      <path
         d="m 71.505418,70.338662 c 0,-0.186267 -0.131233,-0.347134 -0.313267,-0.402167 0.160867,-0.04657 0.26035,-0.167217 0.26035,-0.328084 0,-0.20955 -0.169333,-0.34925 -0.423334,-0.34925 -0.137583,0 -0.270933,0.04657 -0.378883,0.131233 v 0.0889 c 0.10795,-0.08467 0.2413,-0.131233 0.378883,-0.131233 0.154517,0 0.258234,0.103717 0.258234,0.26035 0,0.251884 -0.116417,0.317501 -0.381,0.317501 v 0.07832 c 0.28575,0 0.41275,0.06773 0.41275,0.334434 0,0.18415 -0.118533,0.334434 -0.262467,0.334434 -0.160867,0 -0.3175,-0.04657 -0.450851,-0.131234 v 0.0889 c 0.133351,0.08467 0.289984,0.131233 0.450851,0.131233 0.245534,0 0.448734,-0.1905 0.448734,-0.423334 z"
         id="path490" />
      <path
         d="m 72.616669,70.264579 c 0,-0.298451 -0.179917,-0.497418 -0.448734,-0.497418 -0.122767,0 -0.237067,0.04657 -0.325967,0.124884 l 0.02117,-0.480484 h 0.711201 v -0.131234 h -0.793752 l -0.03175,0.730251 0.0889,0.0042 c 0.08043,-0.09948 0.201083,-0.158751 0.3302,-0.158751 0.156634,0 0.262467,0.162984 0.262467,0.408518 0,0.245533 -0.105833,0.408517 -0.262467,0.408517 -0.162984,0 -0.321734,-0.05292 -0.450851,-0.1524 v 0.0889 c 0.129117,0.09948 0.287867,0.1524 0.450851,0.1524 0.268817,0 0.448734,-0.198967 0.448734,-0.497417 z"
         id="path492" />
    </g>
    <g
       aria-label="36"
       id="text24212"
       style="font-size:2.11667px;line-height:1.25;font-family:Iwona;-inkscape-font-specification:Iwona;letter-spacing:0px;word-spacing:0px;stroke-width:0.264583">
      <path
         d="m 71.505418,74.32808 c 0,-0.186267 -0.131233,-0.347134 -0.313267,-0.402167 0.160867,-0.04657 0.26035,-0.167217 0.26035,-0.328084 0,-0.20955 -0.169333,-0.34925 -0.423334,-0.34925 -0.137583,0 -0.270933,0.04657 -0.378883,0.131233 v 0.0889 c 0.10795,-0.08467 0.2413,-0.131233 0.378883,-0.131233 0.154517,0 0.258234,0.103717 0.258234,0.26035 0,0.251884 -0.116417,0.317501 -0.381,0.317501 v 0.07832 c 0.28575,0 0.41275,0.06773 0.41275,0.334434 0,0.18415 -0.118533,0.334434 -0.262467,0.334434 -0.160867,0 -0.3175,-0.04657 -0.450851,-0.131233 v 0.0889 c 0.133351,0.08467 0.289984,0.131233 0.450851,0.131233 0.245534,0 0.448734,-0.1905 0.448734,-0.423334 z"
         id="path495" />
      <path
         d="m 72.616669,74.253997 c 0,-0.304801 -0.12065,-0.497418 -0.404284,-0.497418 -0.122767,0 -0.237067,0.05715 -0.309034,0.154517 0,-0.277284 0.06985,-0.573617 0.309034,-0.573617 0.10795,0 0.213784,0.03598 0.298451,0.103717 v -0.0889 c -0.08467,-0.06773 -0.190501,-0.103716 -0.298451,-0.103716 -0.332317,0 -0.495301,0.376767 -0.495301,0.751417 0,0.524935 0.135467,0.751418 0.450851,0.751418 0.268817,0 0.448734,-0.198967 0.448734,-0.497417 z m -0.186267,0 c 0,0.245533 -0.105833,0.408517 -0.262467,0.408517 -0.296334,0 -0.264584,-0.319617 -0.264584,-0.662518 0.07197,-0.09737 0.186267,-0.154517 0.309034,-0.154517 0.169334,0 0.218017,0.211667 0.218017,0.408518 z"
         id="path497" />
    </g>
    <g
       aria-label="37"
       id="text24216"
       style="font-size:2.11667px;line-height:1.25;font-family:Iwona;-inkscape-font-specification:Iwona;letter-spacing:0px;word-spacing:0px;stroke-width:0.264583">
      <path
         d="m 71.505418,78.32808 c 0,-0.186267 -0.131233,-0.347134 -0.313267,-0.402167 0.160867,-0.04657 0.26035,-0.167217 0.26035,-0.328084 0,-0.20955 -0.169333,-0.34925 -0.423334,-0.34925 -0.137583,0 -0.270933,0.04657 -0.378883,0.131233 v 0.0889 c 0.10795,-0.08467 0.2413,-0.131233 0.378883,-0.131233 0.154517,0 0.258234,0.103717 0.258234,0.26035 0,0.251884 -0.116417,0.317501 -0.381,0.317501 v 0.07832 c 0.28575,0 0.41275,0.06773 0.41275,0.334434 0,0.18415 -0.118533,0.334434 -0.262467,0.334434 -0.160867,0 -0.3175,-0.04657 -0.450851,-0.131233 v 0.0889 c 0.133351,0.08467 0.289984,0.131233 0.450851,0.131233 0.245534,0 0.448734,-0.1905 0.448734,-0.423334 z"
         id="path500" />
      <path
         d="m 72.616669,77.341712 v -0.07197 h -0.899585 v 0.131234 h 0.690035 l -0.624418,1.329268 h 0.182034 z"
         id="path502" />
    </g>
    <g
       aria-label="44"
       id="text24220"
       style="font-size:2.11667px;line-height:1.25;font-family:Iwona;-inkscape-font-specification:Iwona;letter-spacing:0px;word-spacing:0px;stroke-width:0.264583">
      <path
         d="m 71.505418,86.222247 v -0.09737 h -0.15875 v -0.855135 h -0.1651 l -0.575735,0.855135 v 0.09737 h 0.575735 v 0.508 h 0.1651 v -0.508 z m -0.32385,-0.09737 h -0.467784 l 0.467784,-0.696384 z"
         id="path505" />
      <path
         d="m 72.616669,86.222247 v -0.09737 h -0.15875 v -0.855135 h -0.1651 l -0.575735,0.855135 v 0.09737 h 0.575735 v 0.508 h 0.1651 v -0.508 z m -0.32385,-0.09737 h -0.467784 l 0.467784,-0.696384 z"
         id="path507" />
    </g>
    <g
       aria-label="45"
       id="text24224"
       style="font-size:2.11667px;line-height:1.25;font-family:Iwona;-inkscape-font-specification:Iwona;letter-spacing:0px;word-spacing:0px;stroke-width:0.264583">
      <path
         d="m 71.505418,90.222247 v -0.09737 h -0.15875 v -0.855135 h -0.1651 l -0.575735,0.855135 v 0.09737 h 0.575735 v 0.508 h 0.1651 v -0.508 z m -0.32385,-0.09737 h -0.467784 l 0.467784,-0.696384 z"
         id="path510" />
      <path
         d="m 72.616669,90.253997 c 0,-0.298451 -0.179917,-0.497418 -0.448734,-0.497418 -0.122767,0 -0.237067,0.04657 -0.325967,0.124884 l 0.02117,-0.480484 h 0.711201 v -0.131234 h -0.793752 l -0.03175,0.730251 0.0889,0.0042 c 0.08043,-0.09948 0.201083,-0.158751 0.3302,-0.158751 0.156634,0 0.262467,0.162984 0.262467,0.408518 0,0.245533 -0.105833,0.408517 -0.262467,0.408517 -0.162984,0 -0.321734,-0.05292 -0.450851,-0.1524 v 0.0889 c 0.129117,0.09948 0.287867,0.1524 0.450851,0.1524 0.268817,0 0.448734,-0.198967 0.448734,-0.497417 z"
         id="path512" />
    </g>
    <g
       aria-label="46"
       id="text24228"
       style="font-size:2.11667px;line-height:1.25;font-family:Iwona;-inkscape-font-specification:Iwona;letter-spacing:0px;word-spacing:0px;stroke-width:0.264583">
      <path
         d="m 71.505418,94.222247 v -0.09737 h -0.15875 v -0.855135 h -0.1651 l -0.575735,0.855135 v 0.09737 h 0.575735 v 0.508 h 0.1651 v -0.508 z m -0.32385,-0.09737 h -0.467784 l 0.467784,-0.696384 z"
         id="path515" />
      <path
         d="m 72.616669,94.253997 c 0,-0.304801 -0.12065,-0.497418 -0.404284,-0.497418 -0.122767,0 -0.237067,0.05715 -0.309034,0.154517 0,-0.277284 0.06985,-0.573617 0.309034,-0.573617 0.10795,0 0.213784,0.03598 0.298451,0.103717 v -0.0889 c -0.08467,-0.06773 -0.190501,-0.103716 -0.298451,-0.103716 -0.332317,0 -0.495301,0.376767 -0.495301,0.751417 0,0.524935 0.135467,0.751418 0.450851,0.751418 0.268817,0 0.448734,-0.198967 0.448734,-0.497417 z m -0.186267,0 c 0,0.245533 -0.105833,0.408517 -0.262467,0.408517 -0.296334,0 -0.264584,-0.319617 -0.264584,-0.662518 0.07197,-0.09737 0.186267,-0.154517 0.309034,-0.154517 0.169334,0 0.218017,0.211667 0.218017,0.408518 z"
         id="path517" />
    </g>
    <path
       style="fill:none;stroke:#000000;stroke-width:0.264583;stroke-linecap:butt;stroke-linejoin:miter;stroke-miterlimit:4;stroke-dasharray:0.264583, 0.264583;stroke-dashoffset:0;stroke-opacity:1"
       d="m 65,96 v 4"
       id="path24230" />
    <path
       id="path24232"
       d="M 69.999999,68 V 80"
       style="fill:none;stroke:#000000;stroke-width:0.264583px;stroke-linecap:butt;stroke-linejoin:miter;stroke-opacity:1" />
    <path
       style="fill:none;stroke:#000000;stroke-width:0.264583px;stroke-linecap:butt;stroke-linejoin:miter;stroke-opacity:1"
       d="M 74,68 V 80"
       id="path24234" />
    <path
       id="path24236"
       d="m 70,80 v 4"
       style="fill:none;stroke:#000000;stroke-width:0.264583;stroke-linecap:butt;stroke-linejoin:miter;stroke-miterlimit:4;stroke-dasharray:0.264583, 0.264583;stroke-dashoffset:0;stroke-opacity:1" />
    <path
       style="fill:none;stroke:#000000;stroke-width:0.264583;stroke-linecap:butt;stroke-linejoin:miter;stroke-miterlimit:4;stroke-dasharray:0.264583, 0.264583;stroke-dashoffset:0;stroke-opacity:1"
       d="m 74,80 v 4"
       id="path24238" />
    <path
       style="fill:none;stroke:#000000;stroke-width:0.264583;stroke-linecap:butt;stroke-linejoin:miter;stroke-miterlimit:4;stroke-dasharray:0.264583, 0.264583;stroke-dashoffset:0;stroke-opacity:1"
       d="m 70,96 v 4"
       id="path24240" />
    <path
       id="path24242"
       d="m 74,96 v 4"
       style="fill:none;stroke:#000000;stroke-width:0.264583;stroke-linecap:butt;stroke-linejoin:miter;stroke-miterlimit:4;stroke-dasharray:0.264583, 0.264583;stroke-dashoffset:0;stroke-opacity:1" />
    <path
       style="fill:none;stroke:#000000;stroke-width:0.264583px;stroke-linecap:butt;stroke-linejoin:miter;stroke-opacity:1"
       d="M 69.999999,84 V 96"
       id="path24244" />
    <path
       id="path24246"
       d="M 74,84 V 96"
       style="fill:none;stroke:#000000;stroke-width:0.264583px;stroke-linecap:butt;stroke-linejoin:miter;stroke-opacity:1" />
    <path
       style="fill:none;stroke:#000000;stroke-width:0.265;stroke-linecap:butt;stroke-linejoin:miter;stroke-miterlimit:4;stroke-dasharray:none;stroke-opacity:1;marker-end:url(#marker23052)"
       d="m 65,106 h 5"
       id="path24248" />
    <path
       id="path24250"
       d="m 65,102 h 5"
       style="fill:none;stroke:#000000;stroke-width:0.265;stroke-linecap:butt;stroke-linejoin:miter;stroke-miterlimit:4;stroke-dasharray:none;stroke-opacity:1;marker-end:url(#marker9868)" />
    <path
       style="fill:none;stroke:#000000;stroke-width:0.265;stroke-linecap:butt;stroke-linejoin:miter;stroke-miterlimit:4;stroke-dasharray:none;stroke-opacity:1;marker-end:url(#marker10201)"
       d="m 65,110 h 5"
       id="path24252" />
    <g
       aria-label="53"
       id="text24256"
       style="font-size:2.11667px;line-height:1.25;font-family:Iwona;-inkscape-font-specification:Iwona;letter-spacing:0px;word-spacing:0px;stroke-width:0.264583">
      <path
         d="m 71.505418,102.254 c 0,-0.29845 -0.179917,-0.49742 -0.448734,-0.49742 -0.122767,0 -0.237067,0.0466 -0.325967,0.12488 l 0.02117,-0.48048 h 0.711201 v -0.13123 H 70.669334 L 70.637584,102 l 0.0889,0.004 c 0.08043,-0.0995 0.201083,-0.15875 0.3302,-0.15875 0.156634,0 0.262467,0.16298 0.262467,0.40852 0,0.24553 -0.105833,0.40851 -0.262467,0.40851 -0.162983,0 -0.321734,-0.0529 -0.450851,-0.1524 v 0.0889 c 0.129117,0.0995 0.287868,0.1524 0.450851,0.1524 0.268817,0 0.448734,-0.19896 0.448734,-0.49741 z"
         id="path520" />
      <path
         d="m 72.616669,102.32808 c 0,-0.18627 -0.131233,-0.34713 -0.313267,-0.40217 0.160867,-0.0466 0.26035,-0.16721 0.26035,-0.32808 0,-0.20955 -0.169333,-0.34925 -0.423334,-0.34925 -0.137583,0 -0.270933,0.0466 -0.378884,0.13123 v 0.0889 c 0.107951,-0.0847 0.241301,-0.13123 0.378884,-0.13123 0.154517,0 0.258234,0.10372 0.258234,0.26035 0,0.25188 -0.116417,0.3175 -0.381001,0.3175 v 0.0783 c 0.285751,0 0.412751,0.0677 0.412751,0.33443 0,0.18415 -0.118533,0.33443 -0.262467,0.33443 -0.160867,0 -0.3175,-0.0466 -0.450851,-0.13123 v 0.0889 c 0.133351,0.0847 0.289984,0.13123 0.450851,0.13123 0.245534,0 0.448734,-0.1905 0.448734,-0.42333 z"
         id="path522" />
    </g>
    <g
       aria-label="54"
       id="text24260"
       style="font-size:2.11667px;line-height:1.25;font-family:Iwona;-inkscape-font-specification:Iwona;letter-spacing:0px;word-spacing:0px;stroke-width:0.264583">
      <path
         d="m 71.505418,106.254 c 0,-0.29845 -0.179917,-0.49742 -0.448734,-0.49742 -0.122767,0 -0.237067,0.0466 -0.325967,0.12488 l 0.02117,-0.48048 h 0.711201 v -0.13123 H 70.669334 L 70.637584,106 l 0.0889,0.004 c 0.08043,-0.0995 0.201083,-0.15875 0.3302,-0.15875 0.156634,0 0.262467,0.16298 0.262467,0.40852 0,0.24553 -0.105833,0.40851 -0.262467,0.40851 -0.162983,0 -0.321734,-0.0529 -0.450851,-0.1524 v 0.0889 c 0.129117,0.0995 0.287868,0.1524 0.450851,0.1524 0.268817,0 0.448734,-0.19896 0.448734,-0.49741 z"
         id="path525" />
      <path
         d="m 72.616669,106.22225 v -0.0974 h -0.15875 v -0.85513 h -0.1651 l -0.575735,0.85513 v 0.0974 h 0.575735 v 0.508 h 0.1651 v -0.508 z m -0.32385,-0.0974 h -0.467784 l 0.467784,-0.69638 z"
         id="path527" />
    </g>
    <g
       aria-label="55"
       id="text24264"
       style="font-size:2.11667px;line-height:1.25;font-family:Iwona;-inkscape-font-specification:Iwona;letter-spacing:0px;word-spacing:0px;stroke-width:0.264583">
      <path
         d="m 71.505418,110.254 c 0,-0.29845 -0.179917,-0.49742 -0.448734,-0.49742 -0.122767,0 -0.237067,0.0466 -0.325967,0.12488 l 0.02117,-0.48048 h 0.711201 v -0.13123 H 70.669334 L 70.637584,110 l 0.0889,0.004 c 0.08043,-0.0995 0.201083,-0.15875 0.3302,-0.15875 0.156634,0 0.262467,0.16298 0.262467,0.40852 0,0.24553 -0.105833,0.40851 -0.262467,0.40851 -0.162983,0 -0.321734,-0.0529 -0.450851,-0.1524 v 0.0889 c 0.129117,0.0995 0.287868,0.1524 0.450851,0.1524 0.268817,0 0.448734,-0.19896 0.448734,-0.49741 z"
         id="path530" />
      <path
         d="m 72.616669,110.254 c 0,-0.29845 -0.179917,-0.49742 -0.448734,-0.49742 -0.122767,0 -0.237067,0.0466 -0.325967,0.12488 l 0.02117,-0.48048 h 0.711201 v -0.13123 H 71.780584 L 71.748834,110 l 0.0889,0.004 c 0.08043,-0.0995 0.201083,-0.15875 0.3302,-0.15875 0.156634,0 0.262467,0.16298 0.262467,0.40852 0,0.24553 -0.105833,0.40851 -0.262467,0.40851 -0.162984,0 -0.321734,-0.0529 -0.450851,-0.1524 v 0.0889 c 0.129117,0.0995 0.287867,0.1524 0.450851,0.1524 0.268817,0 0.448734,-0.19896 0.448734,-0.49741 z"
         id="path532" />
    </g>
    <path
       id="path24266"
       d="m 65,112 v 4"
       style="fill:none;stroke:#000000;stroke-width:0.264583;stroke-linecap:butt;stroke-linejoin:miter;stroke-miterlimit:4;stroke-dasharray:0.264583, 0.264583;stroke-dashoffset:0;stroke-opacity:1" />
    <path
       id="path24268"
       d="m 65,118 h 5"
       style="fill:none;stroke:#000000;stroke-width:0.265;stroke-linecap:butt;stroke-linejoin:miter;stroke-miterlimit:4;stroke-dasharray:none;stroke-opacity:1;marker-end:url(#marker24807)" />
    <g
       aria-label="62"
       id="text24272"
       style="font-size:2.11667px;line-height:1.25;font-family:Iwona;-inkscape-font-specification:Iwona;letter-spacing:0px;word-spacing:0px;stroke-width:0.264583">
      <path
         d="m 71.505418,118.25401 c 0,-0.3048 -0.12065,-0.49742 -0.404284,-0.49742 -0.122767,0 -0.237067,0.0571 -0.309034,0.15452 0,-0.27728 0.06985,-0.57362 0.309034,-0.57362 0.10795,0 0.213784,0.036 0.298451,0.10372 v -0.0889 c -0.08467,-0.0677 -0.190501,-0.10372 -0.298451,-0.10372 -0.332317,0 -0.495301,0.37677 -0.495301,0.75142 0,0.52494 0.135467,0.75142 0.450851,0.75142 0.268817,0 0.448734,-0.19897 0.448734,-0.49742 z m -0.186267,0 c 0,0.24554 -0.105833,0.40852 -0.262467,0.40852 -0.296334,0 -0.264584,-0.31962 -0.264584,-0.66252 0.07197,-0.0974 0.186267,-0.15452 0.309034,-0.15452 0.169334,0 0.218017,0.21167 0.218017,0.40852 z"
         id="path535" />
      <path
         d="m 72.616669,118.73026 v -0.13123 h -0.747184 l 0.389467,-0.38523 c 0.173567,-0.17357 0.33655,-0.37677 0.33655,-0.62231 0,-0.20743 -0.205317,-0.3429 -0.427567,-0.3429 -0.167217,0 -0.325967,0.0762 -0.429684,0.20532 v 0.0889 c 0.10795,-0.12488 0.264584,-0.19685 0.429684,-0.19685 0.141817,0 0.262467,0.10583 0.262467,0.24553 0,0.20955 -0.09737,0.40429 -0.2413,0.55457 l -0.472018,0.48472 v 0.0995 z"
         id="path537" />
    </g>
    <path
       id="path24274"
       d="m 70,112 v 4"
       style="fill:none;stroke:#000000;stroke-width:0.264583;stroke-linecap:butt;stroke-linejoin:miter;stroke-miterlimit:4;stroke-dasharray:0.264583, 0.264583;stroke-dashoffset:0;stroke-opacity:1" />
    <path
       style="fill:none;stroke:#000000;stroke-width:0.264583;stroke-linecap:butt;stroke-linejoin:miter;stroke-miterlimit:4;stroke-dasharray:0.264583, 0.264583;stroke-dashoffset:0;stroke-opacity:1"
       d="m 74,112 v 4"
       id="path24276" />
    <path
       id="path24278"
       d="m 69.999999,100 v 12"
       style="fill:none;stroke:#000000;stroke-width:0.264583px;stroke-linecap:butt;stroke-linejoin:miter;stroke-opacity:1" />
    <path
       style="fill:none;stroke:#000000;stroke-width:0.264583px;stroke-linecap:butt;stroke-linejoin:miter;stroke-opacity:1"
       d="m 74,100 v 12"
       id="path24280" />
    <path
       id="rect24729"
       style="fill:none;stroke:#000000;stroke-width:0.265"
       d="m 61,68 h 4 v 12 h -4 z" />
    <path
       style="fill:none;stroke:#000000;stroke-width:0.264583px;stroke-linecap:butt;stroke-linejoin:miter;stroke-opacity:1"
       d="M 60.999999,72 H 65"
       id="path24731" />
    <path
       id="path24733"
       d="M 60.999999,76 H 65"
       style="fill:none;stroke:#000000;stroke-width:0.264583px;stroke-linecap:butt;stroke-linejoin:miter;stroke-opacity:1" />
    <g
       aria-label="0"
       id="text24737"
       style="font-size:2.82222px;line-height:1.25;font-family:Iwona;-inkscape-font-specification:Iwona;text-align:center;letter-spacing:0px;word-spacing:0px;text-anchor:middle;stroke-width:0.264583">
      <path
         d="m 63.619478,70.026334 c 0,-0.668866 -0.206022,-1.001888 -0.618066,-1.001888 -0.412044,0 -0.618067,0.333022 -0.618067,1.001888 0,0.668866 0.206023,1.001888 0.618067,1.001888 0.412044,0 0.618066,-0.333022 0.618066,-1.001888 z m -0.248356,0 c 0,0.589844 -0.124177,0.883355 -0.36971,0.883355 -0.245533,0 -0.369711,-0.293511 -0.369711,-0.883355 0,-0.589844 0.124178,-0.883355 0.369711,-0.883355 0.245533,0 0.36971,0.293511 0.36971,0.883355 z"
         id="path541" />
    </g>
    <g
       aria-label="1"
       id="text24741"
       style="font-size:2.82222px;line-height:1.25;font-family:Iwona;-inkscape-font-specification:Iwona;text-align:center;letter-spacing:0px;word-spacing:0px;text-anchor:middle;stroke-width:0.264583">
      <path
         d="m 63.1905,75 v -1.947332 h -0.163688 c -0.155222,0.1778 -0.338667,0.3302 -0.541867,0.448733 v 0.118533 c 0.172156,-0.08184 0.333022,-0.177799 0.485422,-0.293511 V 75 Z"
         id="path544" />
    </g>
    <g
       aria-label="0"
       id="text24745"
       style="font-size:2.82222px;line-height:1.25;font-family:Iwona;-inkscape-font-specification:Iwona;text-align:center;letter-spacing:0px;word-spacing:0px;text-anchor:middle;stroke-width:0.264583">
      <path
         d="m 63.619478,78.026334 c 0,-0.668866 -0.206022,-1.001888 -0.618066,-1.001888 -0.412044,0 -0.618067,0.333022 -0.618067,1.001888 0,0.668866 0.206023,1.001888 0.618067,1.001888 0.412044,0 0.618066,-0.333022 0.618066,-1.001888 z m -0.248356,0 c 0,0.589844 -0.124177,0.883355 -0.36971,0.883355 -0.245533,0 -0.369711,-0.293511 -0.369711,-0.883355 0,-0.589844 0.124178,-0.883355 0.369711,-0.883355 0.245533,0 0.36971,0.293511 0.36971,0.883355 z"
         id="path547" />
    </g>
    <path
       id="rect24747"
       style="fill:none;stroke:#000000;stroke-width:0.265"
       d="m 61,84 h 4 v 12 h -4 z" />
    <path
       id="path24749"
       d="M 60.999999,88 H 65"
       style="fill:none;stroke:#000000;stroke-width:0.264583px;stroke-linecap:butt;stroke-linejoin:miter;stroke-opacity:1" />
    <path
       style="fill:none;stroke:#000000;stroke-width:0.264583px;stroke-linecap:butt;stroke-linejoin:miter;stroke-opacity:1"
       d="M 60.999999,92 H 65"
       id="path24751" />
    <g
       aria-label="0"
       id="text24755"
       style="font-size:2.82222px;line-height:1.25;font-family:Iwona;-inkscape-font-specification:Iwona;text-align:center;letter-spacing:0px;word-spacing:0px;text-anchor:middle;stroke-width:0.264583">
      <path
         d="m 63.619478,86.026334 c 0,-0.668866 -0.206022,-1.001888 -0.618066,-1.001888 -0.412044,0 -0.618067,0.333022 -0.618067,1.001888 0,0.668866 0.206023,1.001888 0.618067,1.001888 0.412044,0 0.618066,-0.333022 0.618066,-1.001888 z m -0.248356,0 c 0,0.589844 -0.124177,0.883355 -0.36971,0.883355 -0.245533,0 -0.369711,-0.293511 -0.369711,-0.883355 0,-0.589844 0.124178,-0.883355 0.369711,-0.883355 0.245533,0 0.36971,0.293511 0.36971,0.883355 z"
         id="path551" />
    </g>
    <g
       aria-label="1"
       id="text24759"
       style="font-size:2.82222px;line-height:1.25;font-family:Iwona;-inkscape-font-specification:Iwona;text-align:center;letter-spacing:0px;word-spacing:0px;text-anchor:middle;stroke-width:0.264583">
      <path
         d="m 63.1905,91 v -1.947332 h -0.163688 c -0.155222,0.1778 -0.338667,0.3302 -0.541867,0.448733 v 0.118533 c 0.172156,-0.08184 0.333022,-0.177799 0.485422,-0.293511 V 91 Z"
         id="path554" />
    </g>
    <g
       aria-label="0"
       id="text24763"
       style="font-size:2.82222px;line-height:1.25;font-family:Iwona;-inkscape-font-specification:Iwona;text-align:center;letter-spacing:0px;word-spacing:0px;text-anchor:middle;stroke-width:0.264583">
      <path
         d="m 63.619478,94.026334 c 0,-0.668866 -0.206022,-1.001888 -0.618066,-1.001888 -0.412044,0 -0.618067,0.333022 -0.618067,1.001888 0,0.668866 0.206023,1.001888 0.618067,1.001888 0.412044,0 0.618066,-0.333022 0.618066,-1.001888 z m -0.248356,0 c 0,0.589844 -0.124177,0.883355 -0.36971,0.883355 -0.245533,0 -0.369711,-0.293511 -0.369711,-0.883355 0,-0.589844 0.124178,-0.883355 0.369711,-0.883355 0.245533,0 0.36971,0.293511 0.36971,0.883355 z"
         id="path557" />
    </g>
    <path
       style="fill:none;stroke:#000000;stroke-width:0.264583;stroke-linecap:butt;stroke-linejoin:miter;stroke-miterlimit:4;stroke-dasharray:0.264583, 0.264583;stroke-dashoffset:0;stroke-opacity:1"
       d="m 61,80 v 4"
       id="path24765" />
    <path
       id="path24767"
       d="m 61,96 v 4"
       style="fill:none;stroke:#000000;stroke-width:0.264583;stroke-linecap:butt;stroke-linejoin:miter;stroke-miterlimit:4;stroke-dasharray:0.264583, 0.264583;stroke-dashoffset:0;stroke-opacity:1" />
    <path
       id="rect24769"
       style="fill:none;stroke:#000000;stroke-width:0.265"
       d="m 61,100 h 4 v 12 h -4 z" />
    <path
       style="fill:none;stroke:#000000;stroke-width:0.264583px;stroke-linecap:butt;stroke-linejoin:miter;stroke-opacity:1"
       d="M 60.999999,104 H 65"
       id="path24771" />
    <path
       id="path24773"
       d="M 60.999999,108 H 65"
       style="fill:none;stroke:#000000;stroke-width:0.264583px;stroke-linecap:butt;stroke-linejoin:miter;stroke-opacity:1" />
    <g
       aria-label="0"
       id="text24777"
       style="font-size:2.82222px;line-height:1.25;font-family:Iwona;-inkscape-font-specification:Iwona;text-align:center;letter-spacing:0px;word-spacing:0px;text-anchor:middle;stroke-width:0.264583">
      <path
         d="m 63.619478,102.02633 c 0,-0.66886 -0.206022,-1.00188 -0.618066,-1.00188 -0.412044,0 -0.618067,0.33302 -0.618067,1.00188 0,0.66887 0.206023,1.00189 0.618067,1.00189 0.412044,0 0.618066,-0.33302 0.618066,-1.00189 z m -0.248356,0 c 0,0.58985 -0.124177,0.88336 -0.36971,0.88336 -0.245533,0 -0.369711,-0.29351 -0.369711,-0.88336 0,-0.58984 0.124178,-0.88335 0.369711,-0.88335 0.245533,0 0.36971,0.29351 0.36971,0.88335 z"
         id="path561" />
    </g>
    <g
       aria-label="1"
       id="text24781"
       style="font-size:2.82222px;line-height:1.25;font-family:Iwona;-inkscape-font-specification:Iwona;text-align:center;letter-spacing:0px;word-spacing:0px;text-anchor:middle;stroke-width:0.264583">
      <path
         d="m 63.1905,107 v -1.94733 h -0.163688 c -0.155222,0.1778 -0.338667,0.3302 -0.541867,0.44873 v 0.11853 c 0.172156,-0.0818 0.333022,-0.1778 0.485422,-0.29351 V 107 Z"
         id="path564" />
    </g>
    <g
       aria-label="0"
       id="text24785"
       style="font-size:2.82222px;line-height:1.25;font-family:Iwona;-inkscape-font-specification:Iwona;text-align:center;letter-spacing:0px;word-spacing:0px;text-anchor:middle;stroke-width:0.264583">
      <path
         d="m 63.619478,110.02633 c 0,-0.66886 -0.206022,-1.00188 -0.618066,-1.00188 -0.412044,0 -0.618067,0.33302 -0.618067,1.00188 0,0.66887 0.206023,1.00189 0.618067,1.00189 0.412044,0 0.618066,-0.33302 0.618066,-1.00189 z m -0.248356,0 c 0,0.58985 -0.124177,0.88336 -0.36971,0.88336 -0.245533,0 -0.369711,-0.29351 -0.369711,-0.88336 0,-0.58984 0.124178,-0.88335 0.369711,-0.88335 0.245533,0 0.36971,0.29351 0.36971,0.88335 z"
         id="path567" />
    </g>
    <path
       id="rect24787"
       style="fill:none;stroke:#000000;stroke-width:0.265"
       d="m 61,116 h 4 v 8 h -4 z" />
    <path
       id="path24789"
       d="M 60.999999,120 H 65"
       style="fill:none;stroke:#000000;stroke-width:0.264583px;stroke-linecap:butt;stroke-linejoin:miter;stroke-opacity:1" />
    <g
       aria-label="0"
       id="text24795"
       style="font-size:2.82222px;line-height:1.25;font-family:Iwona;-inkscape-font-specification:Iwona;text-align:center;letter-spacing:0px;word-spacing:0px;text-anchor:middle;stroke-width:0.264583">
      <path
         d="m 63.619478,118.02633 c 0,-0.66886 -0.206022,-1.00188 -0.618066,-1.00188 -0.412044,0 -0.618067,0.33302 -0.618067,1.00188 0,0.66887 0.206023,1.00189 0.618067,1.00189 0.412044,0 0.618066,-0.33302 0.618066,-1.00189 z m -0.248356,0 c 0,0.58985 -0.124177,0.88336 -0.36971,0.88336 -0.245533,0 -0.369711,-0.29351 -0.369711,-0.88336 0,-0.58984 0.124178,-0.88335 0.369711,-0.88335 0.245533,0 0.36971,0.29351 0.36971,0.88335 z"
         id="path571" />
    </g>
    <g
       aria-label="1"
       id="text24799"
       style="font-size:2.82222px;line-height:1.25;font-family:Iwona;-inkscape-font-specification:Iwona;text-align:center;letter-spacing:0px;word-spacing:0px;text-anchor:middle;stroke-width:0.264583">
      <path
         d="m 63.1905,123 v -1.94733 h -0.163688 c -0.155222,0.1778 -0.338667,0.3302 -0.541867,0.44873 v 0.11853 c 0.172156,-0.0818 0.333022,-0.1778 0.485422,-0.29351 V 123 Z"
         id="path574" />
    </g>
    <path
       style="fill:none;stroke:#000000;stroke-width:0.265;stroke-linecap:butt;stroke-linejoin:miter;stroke-miterlimit:4;stroke-dasharray:none;stroke-opacity:1;marker-end:url(#marker25012)"
       d="m 65,122 h 5"
       id="path25004" />
    <g
       aria-label="63"
       id="text25008"
       style="font-size:2.11667px;line-height:1.25;font-family:Iwona;-inkscape-font-specification:Iwona;letter-spacing:0px;word-spacing:0px;stroke-width:0.264583">
      <path
         d="m 71.505418,122.25401 c 0,-0.3048 -0.12065,-0.49742 -0.404284,-0.49742 -0.122767,0 -0.237067,0.0571 -0.309034,0.15452 0,-0.27728 0.06985,-0.57362 0.309034,-0.57362 0.10795,0 0.213784,0.036 0.298451,0.10372 v -0.0889 c -0.08467,-0.0677 -0.190501,-0.10372 -0.298451,-0.10372 -0.332317,0 -0.495301,0.37677 -0.495301,0.75142 0,0.52494 0.135467,0.75142 0.450851,0.75142 0.268817,0 0.448734,-0.19897 0.448734,-0.49742 z m -0.186267,0 c 0,0.24554 -0.105833,0.40852 -0.262467,0.40852 -0.296334,0 -0.264584,-0.31962 -0.264584,-0.66252 0.07197,-0.0974 0.186267,-0.15452 0.309034,-0.15452 0.169334,0 0.218017,0.21167 0.218017,0.40852 z"
         id="path577" />
      <path
         d="m 72.616669,122.3281 c 0,-0.18627 -0.131233,-0.34714 -0.313267,-0.40217 0.160867,-0.0466 0.26035,-0.16722 0.26035,-0.32809 0,-0.20955 -0.169333,-0.34925 -0.423334,-0.34925 -0.137583,0 -0.270933,0.0466 -0.378884,0.13124 v 0.0889 c 0.107951,-0.0847 0.241301,-0.13124 0.378884,-0.13124 0.154517,0 0.258234,0.10372 0.258234,0.26035 0,0.25189 -0.116417,0.3175 -0.381001,0.3175 v 0.0783 c 0.285751,0 0.412751,0.0677 0.412751,0.33444 0,0.18415 -0.118533,0.33443 -0.262467,0.33443 -0.160867,0 -0.3175,-0.0466 -0.450851,-0.13123 v 0.0889 c 0.133351,0.0847 0.289984,0.13123 0.450851,0.13123 0.245534,0 0.448734,-0.1905 0.448734,-0.42333 z"
         id="path579" />
    </g>
    <path
       style="fill:none;stroke:#000000;stroke-width:0.264583;stroke-linecap:butt;stroke-linejoin:miter;stroke-miterlimit:4;stroke-dasharray:0.264583, 0.264583;stroke-dashoffset:0;stroke-opacity:1"
       d="m 61,112 v 4"
       id="path25377" />
    <path
       style="fill:none;stroke:#000000;stroke-width:0.79375;stroke-linecap:butt;stroke-linejoin:miter;stroke-miterlimit:4;stroke-dasharray:none;stroke-opacity:1;marker-end:url(#marker30870)"
       d="m 56,128 h 16 v -4"
       id="path29036" />
  </g>
</svg>
