<?xml version="1.0" encoding="UTF-8" standalone="no"?>
<!-- Created with Inkscape (http://www.inkscape.org/) -->

<svg
   width="83.188103mm"
   height="44.777996mm"
   viewBox="0 0 294.76099 158.66219"
   id="svg2"
   version="1.1"
   xmlns="http://www.w3.org/2000/svg"
   xmlns:svg="http://www.w3.org/2000/svg"
   xmlns:rdf="http://www.w3.org/1999/02/22-rdf-syntax-ns#"
   xmlns:cc="http://creativecommons.org/ns#"
   xmlns:dc="http://purl.org/dc/elements/1.1/">
  <defs
     id="defs4" />
  <metadata
     id="metadata7">
    <rdf:RDF>
      <cc:Work
         rdf:about="">
        <dc:format>image/svg+xml</dc:format>
        <dc:type
           rdf:resource="http://purl.org/dc/dcmitype/StillImage" />
        <dc:title />
      </cc:Work>
    </rdf:RDF>
  </metadata>
  <g
     id="layer1"
     transform="translate(-8.3393098,-1.9115973)">
    <g
       id="g5377"
       transform="translate(6.64e-5,-14.17324)">
      <g
         transform="translate(-138.18897,-67.822986)"
         id="g3418">
        <g
           transform="translate(-3.5433568,0.50015174)"
           id="g3420">
          <path
             style="fill:none;stroke:#000000;stroke-width:2;stroke-linecap:butt;stroke-linejoin:miter;stroke-miterlimit:4;stroke-dasharray:none;stroke-opacity:1"
             d="m 216.14173,159.44882 h 28.3465"
             id="path3422" />
          <path
             style="fill:#ffeeaa;fill-rule:evenodd;stroke:#000000;stroke-width:1px;stroke-linecap:butt;stroke-linejoin:miter;stroke-opacity:1"
             d="m 194.88193,145.27559 v 28.3466 h 3.515 c 7.1149,-1e-4 17.7448,-3.5435 17.7167,-14.1733 -0.028,-10.63 -10.6018,-14.1733 -17.7167,-14.1733 z"
             id="path3424" />
          <path
             id="path3426"
             d="m 166.53541,152.3622 h 28.34647"
             style="fill:none;stroke:#000000;stroke-width:2;stroke-linecap:butt;stroke-linejoin:miter;stroke-miterlimit:4;stroke-dasharray:none;stroke-opacity:1" />
          <path
             style="fill:none;stroke:#000000;stroke-width:2;stroke-linecap:butt;stroke-linejoin:miter;stroke-miterlimit:4;stroke-dasharray:none;stroke-opacity:1"
             d="m 166.53541,166.53543 h 28.34647"
             id="path3428" />
        </g>
      </g>
      <g
         aria-label="a"
         id="text3430"
         style="line-height:0%;font-family:Iwona;-inkscape-font-specification:Iwona;text-align:end;letter-spacing:0px;word-spacing:0px;text-anchor:end;stroke-width:1px">
        <path
           d="m 20.259853,88.58268 v -3.5 c 0,-1.175 -0.725,-2.25 -1.8125,-2.25 -0.8,0 -1.55,0.275 -2.225,0.7 v 0.3875 c 0.5625,-0.3125 1.1875,-0.5125 1.8375,-0.5125 0.775,0 1.225,0.825 1.225,1.675 v 0.225 c -0.4875,-0.2125 -1.0125,-0.3375 -1.5375,-0.3375 -1.3375,0 -2.325,0.6125 -2.325,1.875 0,1.2 0.875,1.8625 2.1375,1.8625 0.6375,0 1.225,-0.2875 1.725,-0.6875 v 0.5625 z m -0.975,-1.0875 c -0.375,0.375 -0.8375,0.6875 -1.375,0.6875 -0.8375,0 -1.3875,-0.5125 -1.3875,-1.3375 0,-0.7625 0.625,-1.35 1.3875,-1.35 0.475,0 0.95,0.125 1.375,0.3375 z"
           style="font-size:12.5px;line-height:1.25"
           id="path132" />
      </g>
      <g
         aria-label="b"
         id="text3434"
         style="line-height:0%;font-family:Iwona;-inkscape-font-specification:Iwona;text-align:end;letter-spacing:0px;word-spacing:0px;text-anchor:end;stroke-width:1px">
        <path
           d="m 20.57235,99.943413 c 0,-1.6625 -0.625,-2.9375 -2.1375,-2.9375 -0.6375,0 -1.225,0.2875 -1.725,0.6875 v -3.6875 h -0.975 v 8.749997 h 0.975 v -0.2875 c 0.475,0.25 1,0.4125 1.5375,0.4125 1.5625,0 2.325,-1.25 2.325,-2.937497 z m -1.1,0 c 0,1.174997 -0.3625,2.412497 -1.3875,2.412497 -0.4875,0 -0.9625,-0.1625 -1.375,-0.4125 v -3.724997 c 0.375,-0.375 0.8375,-0.6875 1.375,-0.6875 1.1375,0 1.3875,1.1 1.3875,2.4125 z"
           style="font-size:12.5px;line-height:1.25"
           id="path135" />
      </g>
      <g
         aria-label="y"
         id="text3438"
         style="line-height:0%;font-family:Iwona;-inkscape-font-specification:Iwona;letter-spacing:0px;word-spacing:0px;stroke-width:1px">
        <path
           d="m 111.76171,96.419289 v -6.375 h -0.975 v 4.4125 c -0.425,0.425 -0.95,0.7625 -1.5375,0.7625 -0.5875,0 -1.0375,-0.5125 -1.0375,-1.1125 v -4.0625 h -0.975 v 4.0625 c 0,0.9125 0.7,1.6875 1.6,1.6875 0.75,0 1.4125,-0.425 1.95,-0.95 v 1.575 c 0,0.8375 -0.375,1.675 -1.125,1.675 -0.5875,0 -1.15,-0.125 -1.6875,-0.3375 v 0.3875 c 0.6375,0.325 1.35,0.525 2.075,0.525 1.0625,0 1.7125,-1.1 1.7125,-2.25 z"
           style="font-size:12.5px;line-height:1.25"
           id="path138" />
      </g>
      <path
         id="path3514"
         d="m 31.889764,88.582677 7.086614,-7.086614"
         style="fill:none;fill-rule:evenodd;stroke:#000000;stroke-width:1px;stroke-linecap:butt;stroke-linejoin:miter;stroke-opacity:1" />
      <g
         aria-label="4"
         id="text3516"
         style="line-height:0%;font-family:Iwona;-inkscape-font-specification:Iwona;text-align:center;letter-spacing:0px;word-spacing:0px;text-anchor:middle;stroke-width:1px">
        <path
           d="m 37.026823,79.696063 v -0.345 h -0.5625 v -3.03 h -0.585 l -2.04,3.03 v 0.345 h 2.04 v 1.8 h 0.585 v -1.8 z m -1.1475,-0.345 h -1.6575 l 1.6575,-2.4675 z"
           style="font-size:7.5px;line-height:1.25"
           id="path141" />
      </g>
      <path
         style="fill:none;fill-rule:evenodd;stroke:#000000;stroke-width:1px;stroke-linecap:butt;stroke-linejoin:miter;stroke-opacity:1"
         d="m 31.889764,102.75591 7.086614,-7.086618"
         id="path3520" />
      <g
         aria-label="4"
         id="text3522"
         style="line-height:0%;font-family:Iwona;-inkscape-font-specification:Iwona;text-align:center;letter-spacing:0px;word-spacing:0px;text-anchor:middle;stroke-width:1px">
        <path
           d="m 37.026823,108.04252 v -0.345 h -0.5625 v -3.03 h -0.585 l -2.04,3.03 v 0.345 h 2.04 v 1.8 h 0.585 v -1.8 z m -1.1475,-0.345 h -1.6575 l 1.6575,-2.4675 z"
           style="font-size:7.5px;line-height:1.25"
           id="path144" />
      </g>
      <path
         style="fill:none;fill-rule:evenodd;stroke:#000000;stroke-width:1px;stroke-linecap:butt;stroke-linejoin:miter;stroke-opacity:1"
         d="m 85.03937,95.669291 7.086614,-7.086614"
         id="path3526" />
      <g
         aria-label="4"
         id="text3528"
         style="line-height:0%;font-family:Iwona;-inkscape-font-specification:Iwona;text-align:center;letter-spacing:0px;word-spacing:0px;text-anchor:middle;stroke-width:1px">
        <path
           d="m 90.176424,86.78268 v -0.345 h -0.5625 v -3.03 h -0.585 l -2.04,3.03 v 0.345 h 2.04 v 1.8 h 0.585 v -1.8 z m -1.1475,-0.345 h -1.6575 l 1.6575,-2.4675 z"
           style="font-size:7.5px;line-height:1.25"
           id="path147" />
      </g>
    </g>
    <g
       id="g5303"
       transform="translate(1.2299998e-5,-3.5433241)">
      <g
         id="layer1-0"
         transform="translate(21.259852,-120.97259)">
        <g
           id="g3342"
           transform="translate(-3.5433568,0.50015174)">
          <path
             id="path52636"
             d="m 216.14173,159.44882 h 21.25989 l 3.5433,-3.54331"
             style="fill:none;stroke:#000000;stroke-width:1px;stroke-linecap:butt;stroke-linejoin:miter;stroke-opacity:1" />
          <path
             id="path56366"
             d="m 194.88193,145.27559 v 28.3466 h 3.515 c 7.1149,-1e-4 17.7448,-3.5435 17.7167,-14.1733 -0.028,-10.63 -10.6018,-14.1733 -17.7167,-14.1733 z"
             style="fill:#ffeeaa;fill-rule:evenodd;stroke:#000000;stroke-width:1px;stroke-linecap:butt;stroke-linejoin:miter;stroke-opacity:1" />
          <path
             style="fill:none;stroke:#000000;stroke-width:1px;stroke-linecap:butt;stroke-linejoin:miter;stroke-opacity:1"
             d="m 173.62209,148.81889 3.54331,3.54331 h 17.71648"
             id="path6106" />
          <path
             id="path3455"
             d="m 152.36229,265.74802 3.54331,-3.54331 h 38.97633"
             style="fill:none;stroke:#000000;stroke-width:1px;stroke-linecap:butt;stroke-linejoin:miter;stroke-opacity:1" />
        </g>
      </g>
      <g
         transform="translate(21.259852,-89.08283)"
         id="g3382">
        <g
           transform="translate(-3.5433568,0.50015174)"
           id="g3384">
          <path
             style="fill:none;stroke:#000000;stroke-width:1px;stroke-linecap:butt;stroke-linejoin:miter;stroke-opacity:1"
             d="m 216.14173,159.44882 h 21.25989 l 3.5433,-3.54331"
             id="path3386" />
          <path
             style="fill:#ffeeaa;fill-rule:evenodd;stroke:#000000;stroke-width:1px;stroke-linecap:butt;stroke-linejoin:miter;stroke-opacity:1"
             d="m 194.88193,145.27559 v 28.3466 h 3.515 c 7.1149,-1e-4 17.7448,-3.5435 17.7167,-14.1733 -0.028,-10.63 -10.6018,-14.1733 -17.7167,-14.1733 z"
             id="path3388" />
          <path
             id="path3390"
             d="m 173.62209,148.8189 3.54331,3.54331 17.71648,-1e-5"
             style="fill:none;stroke:#000000;stroke-width:1px;stroke-linecap:butt;stroke-linejoin:miter;stroke-opacity:1" />
          <path
             style="fill:none;stroke:#000000;stroke-width:1px;stroke-linecap:butt;stroke-linejoin:miter;stroke-opacity:1"
             d="m 152.36229,201.96849 3.54331,-3.5433 h 38.97633"
             id="path3392" />
        </g>
      </g>
      <g
         id="g3394"
         transform="translate(21.259852,-57.193067)">
        <g
           id="g3396"
           transform="translate(-3.5433568,0.50015174)">
          <path
             id="path3398"
             d="m 216.14173,159.44882 h 21.25989 l 3.5433,-3.54331"
             style="fill:none;stroke:#000000;stroke-width:1px;stroke-linecap:butt;stroke-linejoin:miter;stroke-opacity:1" />
          <path
             id="path3400"
             d="m 194.88193,145.27559 v 28.3466 h 3.515 c 7.1149,-1e-4 17.7448,-3.5435 17.7167,-14.1733 -0.028,-10.63 -10.6018,-14.1733 -17.7167,-14.1733 z"
             style="fill:#ffeeaa;fill-rule:evenodd;stroke:#000000;stroke-width:1px;stroke-linecap:butt;stroke-linejoin:miter;stroke-opacity:1" />
          <path
             style="fill:none;stroke:#000000;stroke-width:1px;stroke-linecap:butt;stroke-linejoin:miter;stroke-opacity:1"
             d="m 173.62209,148.8189 3.54331,3.54331 17.71648,-1e-5"
             id="path3402" />
          <path
             id="path3404"
             d="m 152.36229,138.18897 3.54331,-3.5433 h 39.32647"
             style="fill:none;stroke:#000000;stroke-width:1px;stroke-linecap:butt;stroke-linejoin:miter;stroke-opacity:1" />
        </g>
      </g>
      <g
         transform="translate(21.259852,-25.303303)"
         id="g3406">
        <g
           transform="translate(-3.5433568,0.50015174)"
           id="g3408">
          <path
             style="fill:none;stroke:#000000;stroke-width:1px;stroke-linecap:butt;stroke-linejoin:miter;stroke-opacity:1"
             d="m 216.14173,159.44882 h 21.25989 l 3.5433,-3.54331"
             id="path3410" />
          <path
             style="fill:#ffeeaa;fill-rule:evenodd;stroke:#000000;stroke-width:1px;stroke-linecap:butt;stroke-linejoin:miter;stroke-opacity:1"
             d="m 194.88193,145.27559 v 28.3466 h 3.515 c 7.1149,-1e-4 17.7448,-3.5435 17.7167,-14.1733 -0.028,-10.63 -10.6018,-14.1733 -17.7167,-14.1733 z"
             id="path3412" />
          <path
             id="path3414"
             d="m 173.62209,148.8189 3.54331,3.54331 17.71648,-1e-5"
             style="fill:none;stroke:#000000;stroke-width:1px;stroke-linecap:butt;stroke-linejoin:miter;stroke-opacity:1" />
          <path
             style="fill:none;stroke:#000000;stroke-width:1px;stroke-linecap:butt;stroke-linejoin:miter;stroke-opacity:1"
             d="m 152.36229,74.409437 3.54331,-3.5433 h 38.97633"
             id="path3416" />
        </g>
      </g>
      <g
         aria-label="a3"
         id="text3442"
         style="line-height:0%;font-family:Iwona;-inkscape-font-specification:Iwona;letter-spacing:0px;word-spacing:0px;stroke-width:1px">
        <path
           d="m 200.2819,28.346451 v -3.5 c 0,-1.175 -0.725,-2.25 -1.8125,-2.25 -0.8,0 -1.55,0.275 -2.225,0.7 v 0.3875 c 0.5625,-0.3125 1.1875,-0.5125 1.8375,-0.5125 0.775,0 1.225,0.825 1.225,1.675 v 0.225 c -0.4875,-0.2125 -1.0125,-0.3375 -1.5375,-0.3375 -1.3375,0 -2.325,0.6125 -2.325,1.875 0,1.2 0.875,1.8625 2.1375,1.8625 0.6375,0 1.225,-0.2875 1.725,-0.6875 v 0.5625 z m -0.975,-1.0875 c -0.375,0.375 -0.8375,0.6875 -1.375,0.6875 -0.8375,0 -1.3875,-0.5125 -1.3875,-1.3375 0,-0.7625 0.625,-1.35 1.3875,-1.35 0.475,0 0.95,0.125 1.375,0.3375 z"
           style="font-size:12.5px;line-height:1.25"
           id="path150" />
        <path
           d="m 205.14126,29.302701 c 0,-0.715 -0.50375,-1.3325 -1.2025,-1.54375 0.6175,-0.17875 0.99938,-0.641875 0.99938,-1.259375 0,-0.804375 -0.65,-1.340625 -1.625,-1.340625 -0.52813,0 -1.04,0.17875 -1.45438,0.50375 v 0.34125 c 0.41438,-0.325 0.92625,-0.50375 1.45438,-0.50375 0.59312,0 0.99125,0.398125 0.99125,0.999375 0,0.966875 -0.44688,1.21875 -1.4625,1.21875 v 0.300625 c 1.09687,0 1.58437,0.26 1.58437,1.28375 0,0.706875 -0.455,1.28375 -1.0075,1.28375 -0.6175,0 -1.21875,-0.17875 -1.73062,-0.50375 v 0.34125 c 0.51187,0.325 1.11312,0.50375 1.73062,0.50375 0.9425,0 1.7225,-0.73125 1.7225,-1.625 z"
           style="font-size:65%;baseline-shift:sub"
           id="path152" />
      </g>
      <g
         aria-label="b3"
         id="text3448"
         style="line-height:0%;font-family:Iwona;-inkscape-font-specification:Iwona;letter-spacing:0px;word-spacing:0px;stroke-width:1px">
        <path
           d="m 179.45954,39.70718 c 0,-1.6625 -0.625,-2.9375 -2.1375,-2.9375 -0.6375,0 -1.225,0.2875 -1.725,0.6875 v -3.6875 h -0.975 v 8.75 h 0.975 v -0.2875 c 0.475,0.25 1,0.4125 1.5375,0.4125 1.5625,0 2.325,-1.25 2.325,-2.9375 z m -1.1,0 c 0,1.175 -0.3625,2.4125 -1.3875,2.4125 -0.4875,0 -0.9625,-0.1625 -1.375,-0.4125 v -3.725 c 0.375,-0.375 0.8375,-0.6875 1.375,-0.6875 1.1375,0 1.3875,1.1 1.3875,2.4125 z"
           style="font-size:12.5px;line-height:1.25"
           id="path155" />
        <path
           d="m 184.00641,43.47593 c 0,-0.715 -0.50375,-1.3325 -1.2025,-1.54375 0.6175,-0.17875 0.99937,-0.641875 0.99937,-1.259375 0,-0.804375 -0.65,-1.340625 -1.625,-1.340625 -0.52812,0 -1.04,0.17875 -1.45437,0.50375 v 0.34125 c 0.41437,-0.325 0.92625,-0.50375 1.45437,-0.50375 0.59313,0 0.99125,0.398125 0.99125,0.999375 0,0.966875 -0.44687,1.21875 -1.4625,1.21875 v 0.300625 c 1.09688,0 1.58438,0.26 1.58438,1.28375 0,0.706875 -0.455,1.28375 -1.0075,1.28375 -0.6175,0 -1.21875,-0.17875 -1.73063,-0.50375 v 0.34125 c 0.51188,0.325 1.11313,0.50375 1.73063,0.50375 0.9425,0 1.7225,-0.73125 1.7225,-1.625 z"
           style="font-size:65%;baseline-shift:sub"
           id="path157" />
      </g>
      <g
         aria-label="a2"
         id="text3454"
         style="line-height:0%;font-family:Iwona;-inkscape-font-specification:Iwona;letter-spacing:0px;word-spacing:0px;stroke-width:1px">
        <path
           d="m 200.2819,60.236214 v -3.5 c 0,-1.175 -0.725,-2.25 -1.8125,-2.25 -0.8,0 -1.55,0.275 -2.225,0.7 v 0.3875 c 0.5625,-0.3125 1.1875,-0.5125 1.8375,-0.5125 0.775,0 1.225,0.825 1.225,1.675 v 0.225 c -0.4875,-0.2125 -1.0125,-0.3375 -1.5375,-0.3375 -1.3375,0 -2.325,0.6125 -2.325,1.875 0,1.2 0.875,1.8625 2.1375,1.8625 0.6375,0 1.225,-0.2875 1.725,-0.6875 v 0.5625 z m -0.975,-1.0875 c -0.375,0.375 -0.8375,0.6875 -1.375,0.6875 -0.8375,0 -1.3875,-0.5125 -1.3875,-1.3375 0,-0.7625 0.625,-1.35 1.3875,-1.35 0.475,0 0.95,0.125 1.375,0.3375 z"
           style="font-size:12.5px;line-height:1.25"
           id="path160" />
        <path
           d="m 205.14126,62.736214 v -0.50375 h -2.86812 l 1.495,-1.47875 c 0.66625,-0.66625 1.29187,-1.44625 1.29187,-2.38875 0,-0.79625 -0.78812,-1.31625 -1.64125,-1.31625 -0.64187,0 -1.25125,0.2925 -1.64937,0.788125 v 0.34125 c 0.41437,-0.479375 1.01562,-0.755625 1.64937,-0.755625 0.54438,0 1.0075,0.40625 1.0075,0.9425 0,0.804375 -0.37375,1.551875 -0.92625,2.12875 l -1.81187,1.860625 v 0.381875 z"
           style="font-size:65%;baseline-shift:sub"
           id="path162" />
      </g>
      <g
         aria-label="b2"
         id="text3460"
         style="line-height:0%;font-family:Iwona;-inkscape-font-specification:Iwona;letter-spacing:0px;word-spacing:0px;stroke-width:1px">
        <path
           d="m 179.45954,71.596947 c 0,-1.6625 -0.625,-2.9375 -2.1375,-2.9375 -0.6375,0 -1.225,0.2875 -1.725,0.6875 v -3.6875 h -0.975 v 8.75 h 0.975 v -0.2875 c 0.475,0.25 1,0.4125 1.5375,0.4125 1.5625,0 2.325,-1.25 2.325,-2.9375 z m -1.1,0 c 0,1.175 -0.3625,2.4125 -1.3875,2.4125 -0.4875,0 -0.9625,-0.1625 -1.375,-0.4125 v -3.725 c 0.375,-0.375 0.8375,-0.6875 1.375,-0.6875 1.1375,0 1.3875,1.1 1.3875,2.4125 z"
           style="font-size:12.5px;line-height:1.25"
           id="path165" />
        <path
           d="m 184.00641,76.909447 v -0.50375 h -2.86813 l 1.495,-1.47875 c 0.66625,-0.66625 1.29188,-1.44625 1.29188,-2.38875 0,-0.79625 -0.78813,-1.31625 -1.64125,-1.31625 -0.64188,0 -1.25125,0.2925 -1.64938,0.788125 v 0.34125 c 0.41438,-0.479375 1.01563,-0.755625 1.64938,-0.755625 0.54437,0 1.0075,0.40625 1.0075,0.9425 0,0.804375 -0.37375,1.551875 -0.92625,2.12875 l -1.81188,1.860625 v 0.381875 z"
           style="font-size:65%;baseline-shift:sub"
           id="path167" />
      </g>
      <g
         aria-label="a1"
         id="text3466"
         style="line-height:0%;font-family:Iwona;-inkscape-font-specification:Iwona;letter-spacing:0px;word-spacing:0px;stroke-width:1px">
        <path
           d="m 201.46003,92.125969 v -3.5 c 0,-1.175 -0.725,-2.25 -1.8125,-2.25 -0.8,0 -1.55,0.275 -2.225,0.7 v 0.3875 c 0.5625,-0.3125 1.1875,-0.5125 1.8375,-0.5125 0.775,0 1.225,0.825 1.225,1.675 v 0.225 c -0.4875,-0.2125 -1.0125,-0.3375 -1.5375,-0.3375 -1.3375,0 -2.325,0.6125 -2.325,1.875 0,1.2 0.875,1.8625 2.1375,1.8625 0.6375,0 1.225,-0.2875 1.725,-0.6875 v 0.5625 z m -0.975,-1.0875 c -0.375,0.375 -0.8375,0.6875 -1.375,0.6875 -0.8375,0 -1.3875,-0.5125 -1.3875,-1.3375 0,-0.7625 0.625,-1.35 1.3875,-1.35 0.475,0 0.95,0.125 1.375,0.3375 z"
           style="font-size:12.5px;line-height:1.25"
           id="path170" />
        <path
           d="m 205.14127,94.625969 v -5.60625 h -0.47125 c -0.44688,0.511875 -0.975,0.950625 -1.56,1.291875 v 0.34125 c 0.49562,-0.235625 0.95875,-0.511875 1.3975,-0.845 v 4.818125 z"
           style="font-size:65%;baseline-shift:sub"
           id="path172" />
      </g>
      <g
         aria-label="b1"
         id="text3472"
         style="line-height:0%;font-family:Iwona;-inkscape-font-specification:Iwona;letter-spacing:0px;word-spacing:0px;stroke-width:1px">
        <path
           d="m 180.63767,103.48671 c 0,-1.6625 -0.625,-2.9375 -2.1375,-2.9375 -0.6375,0 -1.225,0.2875 -1.725,0.6875 v -3.6875 h -0.975 v 8.75 h 0.975 v -0.2875 c 0.475,0.25 1,0.4125 1.5375,0.4125 1.5625,0 2.325,-1.25 2.325,-2.9375 z m -1.1,0 c 0,1.175 -0.3625,2.4125 -1.3875,2.4125 -0.4875,0 -0.9625,-0.1625 -1.375,-0.4125 v -3.725 c 0.375,-0.375 0.8375,-0.6875 1.375,-0.6875 1.1375,0 1.3875,1.1 1.3875,2.4125 z"
           style="font-size:12.5px;line-height:1.25"
           id="path175" />
        <path
           d="m 184.00641,108.79921 v -5.60625 h -0.47125 c -0.44687,0.51187 -0.975,0.95062 -1.56,1.29187 v 0.34125 c 0.49563,-0.23562 0.95875,-0.51187 1.3975,-0.845 v 4.81813 z"
           style="font-size:65%;baseline-shift:sub"
           id="path177" />
      </g>
      <g
         aria-label="a0"
         id="text3478"
         style="line-height:0%;font-family:Iwona;-inkscape-font-specification:Iwona;letter-spacing:0px;word-spacing:0px;stroke-width:1px">
        <path
           d="m 200.22503,124.01572 v -3.5 c 0,-1.175 -0.725,-2.25 -1.8125,-2.25 -0.8,0 -1.55,0.275 -2.225,0.7 v 0.3875 c 0.5625,-0.3125 1.1875,-0.5125 1.8375,-0.5125 0.775,0 1.225,0.825 1.225,1.675 v 0.225 c -0.4875,-0.2125 -1.0125,-0.3375 -1.5375,-0.3375 -1.3375,0 -2.325,0.6125 -2.325,1.875 0,1.2 0.875,1.8625 2.1375,1.8625 0.6375,0 1.225,-0.2875 1.725,-0.6875 v 0.5625 z m -0.975,-1.0875 c -0.375,0.375 -0.8375,0.6875 -1.375,0.6875 -0.8375,0 -1.3875,-0.5125 -1.3875,-1.3375 0,-0.7625 0.625,-1.35 1.3875,-1.35 0.475,0 0.95,0.125 1.375,0.3375 z"
           style="font-size:12.5px;line-height:1.25"
           id="path180" />
        <path
           d="m 205.14127,123.71259 c 0,-1.92562 -0.59313,-2.88437 -1.77938,-2.88437 -1.18625,0 -1.77937,0.95875 -1.77937,2.88437 0,1.92563 0.59312,2.88438 1.77937,2.88438 1.18625,0 1.77938,-0.95875 1.77938,-2.88438 z m -0.715,0 c 0,1.69813 -0.3575,2.54313 -1.06438,2.54313 -0.70687,0 -1.06437,-0.845 -1.06437,-2.54313 0,-1.69812 0.3575,-2.54312 1.06437,-2.54312 0.70688,0 1.06438,0.845 1.06438,2.54312 z"
           style="font-size:65%;baseline-shift:sub"
           id="path182" />
      </g>
      <g
         aria-label="b0"
         id="text3484"
         style="line-height:0%;font-family:Iwona;-inkscape-font-specification:Iwona;letter-spacing:0px;word-spacing:0px;stroke-width:1px">
        <path
           d="m 179.40267,135.37646 c 0,-1.6625 -0.625,-2.9375 -2.1375,-2.9375 -0.6375,0 -1.225,0.2875 -1.725,0.6875 v -3.6875 h -0.975 v 8.75 h 0.975 v -0.2875 c 0.475,0.25 1,0.4125 1.5375,0.4125 1.5625,0 2.325,-1.25 2.325,-2.9375 z m -1.1,0 c 0,1.175 -0.3625,2.4125 -1.3875,2.4125 -0.4875,0 -0.9625,-0.1625 -1.375,-0.4125 v -3.725 c 0.375,-0.375 0.8375,-0.6875 1.375,-0.6875 1.1375,0 1.3875,1.1 1.3875,2.4125 z"
           style="font-size:12.5px;line-height:1.25"
           id="path185" />
        <path
           d="m 184.00641,137.88584 c 0,-1.92563 -0.59312,-2.88438 -1.77937,-2.88438 -1.18625,0 -1.77938,0.95875 -1.77938,2.88438 0,1.92562 0.59313,2.88437 1.77938,2.88437 1.18625,0 1.77937,-0.95875 1.77937,-2.88437 z m -0.715,0 c 0,1.69812 -0.3575,2.54312 -1.06437,2.54312 -0.70688,0 -1.06438,-0.845 -1.06438,-2.54312 0,-1.69813 0.3575,-2.54313 1.06438,-2.54313 0.70687,0 1.06437,0.845 1.06437,2.54313 z"
           style="font-size:65%;baseline-shift:sub"
           id="path187" />
      </g>
      <g
         aria-label="y3"
         id="text3490"
         style="line-height:0%;font-family:Iwona;-inkscape-font-specification:Iwona;text-align:end;letter-spacing:0px;word-spacing:0px;text-anchor:end;stroke-width:1px">
        <path
           d="m 249.8525,32.639757 v -6.375 h -0.975 v 4.4125 c -0.425,0.425 -0.95,0.7625 -1.5375,0.7625 -0.5875,0 -1.0375,-0.5125 -1.0375,-1.1125 v -4.0625 h -0.975 v 4.0625 c 0,0.9125 0.7,1.6875 1.6,1.6875 0.75,0 1.4125,-0.425 1.95,-0.95 v 1.575 c 0,0.8375 -0.375,1.675 -1.125,1.675 -0.5875,0 -1.15,-0.125 -1.6875,-0.3375 v 0.3875 c 0.6375,0.325 1.35,0.525 2.075,0.525 1.0625,0 1.7125,-1.1 1.7125,-2.25 z"
           style="font-size:12.5px;line-height:1.25"
           id="path190" />
        <path
           d="m 254.71186,32.846007 c 0,-0.715 -0.50375,-1.3325 -1.2025,-1.54375 0.6175,-0.17875 0.99937,-0.641875 0.99937,-1.259375 0,-0.804375 -0.65,-1.340625 -1.625,-1.340625 -0.52812,0 -1.04,0.17875 -1.45437,0.50375 v 0.34125 c 0.41437,-0.325 0.92625,-0.50375 1.45437,-0.50375 0.59313,0 0.99125,0.398125 0.99125,0.999375 0,0.966875 -0.44687,1.21875 -1.4625,1.21875 v 0.300625 c 1.09688,0 1.58438,0.26 1.58438,1.28375 0,0.706875 -0.455,1.28375 -1.0075,1.28375 -0.6175,0 -1.21875,-0.17875 -1.73063,-0.50375 v 0.34125 c 0.51188,0.325 1.11313,0.50375 1.73063,0.50375 0.9425,0 1.7225,-0.73125 1.7225,-1.625 z"
           style="font-size:65%;baseline-shift:sub"
           id="path192" />
      </g>
      <g
         aria-label="y2"
         id="text3496"
         style="line-height:0%;font-family:Iwona;-inkscape-font-specification:Iwona;text-align:end;letter-spacing:0px;word-spacing:0px;text-anchor:end;stroke-width:1px">
        <path
           d="m 249.8525,64.529533 v -6.375 h -0.975 v 4.4125 c -0.425,0.425 -0.95,0.7625 -1.5375,0.7625 -0.5875,0 -1.0375,-0.5125 -1.0375,-1.1125 v -4.0625 h -0.975 v 4.0625 c 0,0.9125 0.7,1.6875 1.6,1.6875 0.75,0 1.4125,-0.425 1.95,-0.95 v 1.575 c 0,0.8375 -0.375,1.675 -1.125,1.675 -0.5875,0 -1.15,-0.125 -1.6875,-0.3375 v 0.3875 c 0.6375,0.325 1.35,0.525 2.075,0.525 1.0625,0 1.7125,-1.1 1.7125,-2.25 z"
           style="font-size:12.5px;line-height:1.25"
           id="path195" />
        <path
           d="m 254.71186,66.279533 v -0.50375 h -2.86813 l 1.495,-1.47875 c 0.66625,-0.66625 1.29188,-1.44625 1.29188,-2.38875 0,-0.79625 -0.78813,-1.31625 -1.64125,-1.31625 -0.64188,0 -1.25125,0.2925 -1.64938,0.788125 v 0.34125 c 0.41438,-0.479375 1.01563,-0.755625 1.64938,-0.755625 0.54437,0 1.0075,0.40625 1.0075,0.9425 0,0.804375 -0.37375,1.551875 -0.92625,2.12875 l -1.81188,1.860625 v 0.381875 z"
           style="font-size:65%;baseline-shift:sub"
           id="path197" />
      </g>
      <g
         aria-label="y1"
         id="text3502"
         style="line-height:0%;font-family:Iwona;-inkscape-font-specification:Iwona;text-align:end;letter-spacing:0px;word-spacing:0px;text-anchor:end;stroke-width:1px">
        <path
           d="m 249.8525,96.419296 v -6.375 h -0.975 v 4.4125 c -0.425,0.425 -0.95,0.7625 -1.5375,0.7625 -0.5875,0 -1.0375,-0.5125 -1.0375,-1.1125 v -4.0625 h -0.975 v 4.0625 c 0,0.9125 0.7,1.6875 1.6,1.6875 0.75,0 1.4125,-0.425 1.95,-0.95 v 1.575 c 0,0.8375 -0.375,1.675 -1.125,1.675 -0.5875,0 -1.15,-0.125 -1.6875,-0.3375 v 0.3875 c 0.6375,0.325 1.35,0.525 2.075,0.525 1.0625,0 1.7125,-1.1 1.7125,-2.25 z"
           style="font-size:12.5px;line-height:1.25"
           id="path200" />
        <path
           d="m 253.53373,98.169296 v -5.60625 h -0.47125 c -0.44687,0.511875 -0.975,0.950625 -1.56,1.291875 v 0.34125 c 0.49563,-0.235625 0.95875,-0.511875 1.3975,-0.845 v 4.818125 z"
           style="font-size:65%;baseline-shift:sub"
           id="path202" />
      </g>
      <g
         aria-label="y0"
         id="text3508"
         style="line-height:0%;font-family:Iwona;-inkscape-font-specification:Iwona;text-align:end;letter-spacing:0px;word-spacing:0px;text-anchor:end;stroke-width:1px">
        <path
           d="m 249.8525,128.30904 v -6.375 h -0.975 v 4.4125 c -0.425,0.425 -0.95,0.7625 -1.5375,0.7625 -0.5875,0 -1.0375,-0.5125 -1.0375,-1.1125 v -4.0625 h -0.975 v 4.0625 c 0,0.9125 0.7,1.6875 1.6,1.6875 0.75,0 1.4125,-0.425 1.95,-0.95 v 1.575 c 0,0.8375 -0.375,1.675 -1.125,1.675 -0.5875,0 -1.15,-0.125 -1.6875,-0.3375 v 0.3875 c 0.6375,0.325 1.35,0.525 2.075,0.525 1.0625,0 1.7125,-1.1 1.7125,-2.25 z"
           style="font-size:12.5px;line-height:1.25"
           id="path205" />
        <path
           d="m 254.76873,127.25591 c 0,-1.92562 -0.59312,-2.88437 -1.77937,-2.88437 -1.18625,0 -1.77938,0.95875 -1.77938,2.88437 0,1.92563 0.59313,2.88438 1.77938,2.88438 1.18625,0 1.77937,-0.95875 1.77937,-2.88438 z m -0.715,0 c 0,1.69813 -0.3575,2.54313 -1.06437,2.54313 -0.70688,0 -1.06438,-0.845 -1.06438,-2.54313 0,-1.69812 0.3575,-2.54312 1.06438,-2.54312 0.70687,0 1.06437,0.845 1.06437,2.54312 z"
           style="font-size:65%;baseline-shift:sub"
           id="path207" />
      </g>
      <path
         id="path3426-8"
         d="m 155.9055,21.259843 35.43308,-7e-6 V 134.64566"
         style="fill:none;stroke:#000000;stroke-width:2;stroke-linecap:butt;stroke-linejoin:miter;stroke-miterlimit:4;stroke-dasharray:none;stroke-opacity:1" />
      <path
         id="path3514-0"
         d="m 166.5355,24.803154 7.08661,-7.086614"
         style="fill:none;fill-rule:evenodd;stroke:#000000;stroke-width:1px;stroke-linecap:butt;stroke-linejoin:miter;stroke-opacity:1" />
      <g
         aria-label="4"
         id="text3516-2"
         style="line-height:0%;font-family:Iwona;-inkscape-font-specification:Iwona;text-align:center;letter-spacing:0px;word-spacing:0px;text-anchor:middle;stroke-width:1px">
        <path
           d="m 171.67255,15.916539 v -0.345 h -0.5625 v -3.03 h -0.585 l -2.04,3.03 v 0.345 h 2.04 v 1.8 h 0.585 v -1.8 z m -1.1475,-0.345 h -1.6575 l 1.6575,-2.4675 z"
           style="font-size:7.5px;line-height:1.25"
           id="path210" />
      </g>
      <g
         aria-label="a"
         id="text5287"
         style="line-height:0%;font-family:Iwona;-inkscape-font-specification:Iwona;text-align:end;letter-spacing:0px;word-spacing:0px;text-anchor:end;stroke-width:1px">
        <path
           d="m 151.36227,24.80315 v -3.5 c 0,-1.175 -0.725,-2.25 -1.8125,-2.25 -0.8,0 -1.55,0.275 -2.225,0.7 v 0.3875 c 0.5625,-0.3125 1.1875,-0.5125 1.8375,-0.5125 0.775,0 1.225,0.825 1.225,1.675 v 0.225 c -0.4875,-0.2125 -1.0125,-0.3375 -1.5375,-0.3375 -1.3375,0 -2.325,0.6125 -2.325,1.875 0,1.2 0.875,1.8625 2.1375,1.8625 0.6375,0 1.225,-0.2875 1.725,-0.6875 v 0.5625 z m -0.975,-1.0875 c -0.375,0.375 -0.8375,0.6875 -1.375,0.6875 -0.8375,0 -1.3875,-0.5125 -1.3875,-1.3375 0,-0.7625 0.625,-1.35 1.3875,-1.35 0.475,0 0.95,0.125 1.375,0.3375 z"
           style="font-size:12.5px;line-height:1.25"
           id="path213" />
      </g>
      <path
         style="fill:none;stroke:#000000;stroke-width:2;stroke-linecap:butt;stroke-linejoin:miter;stroke-miterlimit:4;stroke-dasharray:none;stroke-opacity:1"
         d="M 287.00789,21.259843 H 258.66142 V 148.8189"
         id="path5291" />
      <path
         style="fill:none;fill-rule:evenodd;stroke:#000000;stroke-width:1px;stroke-linecap:butt;stroke-linejoin:miter;stroke-opacity:1"
         d="m 269.29134,24.803149 7.08661,-7.086614"
         id="path5293" />
      <g
         aria-label="4"
         id="text5295"
         style="line-height:0%;font-family:Iwona;-inkscape-font-specification:Iwona;text-align:center;letter-spacing:0px;word-spacing:0px;text-anchor:middle;stroke-width:1px">
        <path
           d="m 274.42838,15.916536 v -0.345 h -0.5625 v -3.03 h -0.585 l -2.04,3.03 v 0.345 h 2.04 v 1.8 h 0.585 v -1.8 z m -1.1475,-0.345 h -1.6575 l 1.6575,-2.4675 z"
           style="font-size:7.5px;line-height:1.25"
           id="path216" />
      </g>
      <g
         aria-label="y"
         id="text5299"
         style="line-height:0%;font-family:Iwona;-inkscape-font-specification:Iwona;letter-spacing:0px;word-spacing:0px;stroke-width:1px">
        <path
           d="m 296.01368,25.55315 v -6.375 h -0.975 v 4.4125 c -0.425,0.425 -0.95,0.7625 -1.5375,0.7625 -0.5875,0 -1.0375,-0.5125 -1.0375,-1.1125 v -4.0625 h -0.975 v 4.0625 c 0,0.9125 0.7,1.6875 1.6,1.6875 0.75,0 1.4125,-0.425 1.95,-0.95 v 1.575 c 0,0.8375 -0.375,1.675 -1.125,1.675 -0.5875,0 -1.15,-0.125 -1.6875,-0.3375 v 0.3875 c 0.6375,0.325 1.35,0.525 2.075,0.525 1.0625,0 1.7125,-1.1 1.7125,-2.25 z"
           style="font-size:12.5px;line-height:1.25"
           id="path219" />
      </g>
      <path
         style="fill:none;stroke:#000000;stroke-width:2;stroke-linecap:butt;stroke-linejoin:miter;stroke-miterlimit:4;stroke-dasharray:none;stroke-opacity:1"
         d="m 155.90551,152.3622 h 14.17323 V 38.976372"
         id="path4333" />
      <g
         aria-label="b"
         id="text4335"
         style="line-height:0%;font-family:Iwona;-inkscape-font-specification:Iwona;text-align:end;letter-spacing:0px;word-spacing:0px;text-anchor:end;stroke-width:1px">
        <path
           d="m 151.67471,154.093 c 0,-1.6625 -0.625,-2.9375 -2.1375,-2.9375 -0.6375,0 -1.225,0.2875 -1.725,0.6875 v -3.6875 h -0.975 v 8.75 h 0.975 v -0.2875 c 0.475,0.25 1,0.4125 1.5375,0.4125 1.5625,0 2.325,-1.25 2.325,-2.9375 z m -1.1,0 c 0,1.175 -0.3625,2.4125 -1.3875,2.4125 -0.4875,0 -0.9625,-0.1625 -1.375,-0.4125 v -3.725 c 0.375,-0.375 0.8375,-0.6875 1.375,-0.6875 1.1375,0 1.3875,1.1 1.3875,2.4125 z"
           style="font-size:12.5px;line-height:1.25"
           id="path222" />
      </g>
    </g>
  </g>
</svg>
