<?xml version="1.0" encoding="UTF-8" standalone="no"?>
<!-- Created with Inkscape (http://www.inkscape.org/) -->

<svg
   width="102.02856mm"
   height="97.37883mm"
   viewBox="0 0 361.51859 345.04309"
   id="svg4203"
   version="1.1"
   xmlns="http://www.w3.org/2000/svg"
   xmlns:svg="http://www.w3.org/2000/svg"
   xmlns:rdf="http://www.w3.org/1999/02/22-rdf-syntax-ns#"
   xmlns:cc="http://creativecommons.org/ns#"
   xmlns:dc="http://purl.org/dc/elements/1.1/">
  <defs
     id="defs4205">
    <marker
       style="overflow:visible"
       id="DotM-7"
       refX="0"
       refY="0"
       orient="auto">
      <path
         transform="matrix(0.4,0,0,0.4,2.96,0.4)"
         style="fill-rule:evenodd;stroke:#000000;stroke-width:1.00000003pt;marker-start:none;marker-end:none"
         d="m -2.5,-1 c 0,2.76 -2.24,5 -5,5 -2.76,0 -5,-2.24 -5,-5 0,-2.76 2.24,-5 5,-5 2.76,0 5,2.24 5,5 z"
         id="path4148-8" />
    </marker>
  </defs>
  <metadata
     id="metadata4208">
    <rdf:RDF>
      <cc:Work
         rdf:about="">
        <dc:format>image/svg+xml</dc:format>
        <dc:type
           rdf:resource="http://purl.org/dc/dcmitype/StillImage" />
        <dc:title />
      </cc:Work>
    </rdf:RDF>
  </metadata>
  <g
     id="layer1"
     transform="translate(-156.14184,-62.937096)">
    <g
       style="display:inline"
       id="g38163"
       transform="translate(-1739.7638,1824.8033)">
      <g
         transform="translate(340.15752,-885.8268)"
         id="g8946">
        <g
           transform="translate(549.21257,974.40949)"
           id="g8058">
          <path
             id="path8060"
             d="m 1187.0079,-1700.7876 v -28.3465 h -17.7166 v -35.433 h 17.7166 v -53.1496"
             style="fill:none;stroke:#000000;stroke-width:1px;stroke-linecap:butt;stroke-linejoin:miter;stroke-opacity:1" />
          <path
             id="path8062"
             d="m 1165.7481,-1764.5671 v 35.4331"
             style="fill:none;stroke:#000000;stroke-width:1px;stroke-linecap:butt;stroke-linejoin:miter;stroke-opacity:1" />
          <path
             id="path8064"
             d="m 1080.7087,-1590.9451 v -155.9055 l 77.9528,10e-5"
             style="fill:none;stroke:#000000;stroke-width:1px;stroke-linecap:butt;stroke-linejoin:miter;stroke-opacity:1;marker-start:url(#DotM-7)" />
          <path
             id="path8066"
             style="fill:none;stroke:#000000;stroke-linecap:round;stroke-linejoin:bevel"
             transform="translate(-499.60624,-2898.4251)"
             d="m 1665.3543,1151.5746 a 3.5433071,3.5433071 0 0 1 -3.5433,3.5433 3.5433071,3.5433071 0 0 1 -3.5433,-3.5433 3.5433071,3.5433071 0 0 1 3.5433,-3.5433 3.5433071,3.5433071 0 0 1 3.5433,3.5433 z" />
        </g>
        <g
           id="g8068"
           transform="matrix(-1,0,0,1,2923.2283,1038.189)">
          <path
             style="fill:none;stroke:#000000;stroke-width:1px;stroke-linecap:butt;stroke-linejoin:miter;stroke-opacity:1"
             d="m 1187.0079,-1700.7876 v -28.3465 h -17.7166 v -35.433 h 17.7166"
             id="path8070" />
          <path
             style="fill:none;stroke:#000000;stroke-width:1px;stroke-linecap:butt;stroke-linejoin:miter;stroke-opacity:1"
             d="m 1165.7481,-1764.5671 v 35.4331"
             id="path8072" />
          <path
             style="fill:none;stroke:#000000;stroke-width:1px;stroke-linecap:butt;stroke-linejoin:miter;stroke-opacity:1;marker-start:url(#DotM-7)"
             d="m 1080.7086,-1654.7246 v -92.126 l 77.9529,10e-5"
             id="path8074" />
          <path
             id="path8076"
             style="fill:none;stroke:#000000;stroke-linecap:round;stroke-linejoin:bevel"
             transform="translate(-499.60624,-2898.4251)"
             d="m 1665.3543,1151.5746 a 3.5433071,3.5433071 0 0 1 -3.5433,3.5433 3.5433071,3.5433071 0 0 1 -3.5433,-3.5433 3.5433071,3.5433071 0 0 1 3.5433,-3.5433 3.5433071,3.5433071 0 0 1 3.5433,3.5433 z" />
        </g>
        <g
           id="g8078"
           transform="translate(496.06303,1130.3149)">
          <path
             style="fill:none;stroke:#000000;stroke-width:1px;stroke-linecap:butt;stroke-linejoin:miter;stroke-opacity:1"
             d="m 1240.1574,-1792.9135 h -53.1496 l 10e-5,28.3465 h -17.7166 v 35.433 h 17.7166 v 53.1496"
             id="path8080" />
          <path
             style="fill:none;stroke:#000000;stroke-width:1px;stroke-linecap:butt;stroke-linejoin:miter;stroke-opacity:1"
             d="m 1165.7481,-1764.5671 v 35.4331"
             id="path8082" />
          <path
             style="fill:none;stroke:#000000;stroke-width:1px;stroke-linecap:butt;stroke-linejoin:miter;stroke-opacity:1"
             d="m 1098.4252,-1746.8505 h 67.3229"
             id="path8084" />
        </g>
        <g
           transform="matrix(-1,0,0,1,2976.378,1130.3148)"
           id="g8086">
          <path
             id="path8088"
             d="m 1240.1575,-1792.9134 h -53.1496 v 28.3464 h -17.7166 v 35.433 h 17.7166 v 53.1496"
             style="fill:none;stroke:#000000;stroke-width:1px;stroke-linecap:butt;stroke-linejoin:miter;stroke-opacity:1;marker-start:url(#DotM-7)" />
          <path
             id="path8090"
             d="m 1165.7481,-1764.5671 v 35.4331"
             style="fill:none;stroke:#000000;stroke-width:1px;stroke-linecap:butt;stroke-linejoin:miter;stroke-opacity:1" />
          <path
             id="path8092"
             d="m 1098.4252,-1746.8504 67.3229,-10e-5"
             style="fill:none;stroke:#000000;stroke-width:1px;stroke-linecap:butt;stroke-linejoin:miter;stroke-opacity:1" />
        </g>
        <g
           transform="translate(662.59838,1190.5511)"
           id="g8734">
          <path
             transform="translate(0,-2490.9448)"
             id="path8736"
             d="m 1009.8425,754.72421 h 21.2599"
             style="fill:none;stroke:#000000;stroke-width:1px;stroke-linecap:butt;stroke-linejoin:miter;stroke-opacity:1" />
          <path
             style="fill:none;stroke:#000000;stroke-width:1px;stroke-linecap:butt;stroke-linejoin:miter;stroke-opacity:1"
             d="m 1013.3858,-1732.6773 h 14.1733"
             id="path8738" />
          <path
             id="path8740"
             d="m 1016.9291,-1729.134 h 7.0866"
             style="fill:none;stroke:#000000;stroke-width:1px;stroke-linecap:butt;stroke-linejoin:miter;stroke-opacity:1" />
        </g>
        <g
           id="g8742"
           transform="translate(768.89759,1190.5511)">
          <path
             style="fill:none;stroke:#000000;stroke-width:1px;stroke-linecap:butt;stroke-linejoin:miter;stroke-opacity:1"
             d="m 1009.8425,754.72421 h 21.2599"
             id="path8744"
             transform="translate(0,-2490.9448)" />
          <path
             id="path8746"
             d="m 1013.3858,-1732.6773 h 14.1733"
             style="fill:none;stroke:#000000;stroke-width:1px;stroke-linecap:butt;stroke-linejoin:miter;stroke-opacity:1" />
          <path
             style="fill:none;stroke:#000000;stroke-width:1px;stroke-linecap:butt;stroke-linejoin:miter;stroke-opacity:1"
             d="m 1016.9291,-1729.134 h 7.0866"
             id="path8748" />
        </g>
        <g
           id="g8750"
           transform="translate(49.606339,566.92912)">
          <path
             transform="translate(0,-2490.9448)"
             id="path8752"
             d="m 1675.9843,1080.7085 h 21.2598"
             style="fill:none;stroke:#000000;stroke-width:2;stroke-linecap:butt;stroke-linejoin:miter;stroke-miterlimit:4;stroke-dasharray:none;stroke-opacity:1" />
          <g
             aria-label="VDD"
             id="text8754"
             style="line-height:0%;font-family:Iwona;-inkscape-font-specification:Sans;text-align:center;letter-spacing:0px;word-spacing:0px;text-anchor:middle">
            <path
               d="m 1681.9662,-1435.8819 h -1.176 l -5.568,14.256 -5.544,-14.256 h -2.112 l 6.552,16.8 h 1.296 z"
               style="font-size:24px"
               id="path72" />
            <path
               d="m 1693.2141,-1421.4819 c 0,-3.424 -1.872,-5.76 -5.168,-5.76 -0.992,0 -1.984,0.048 -2.96,0.16 h -1.28 v 11.2 h 1.28 c 0.976,0.112 1.968,0.16 2.96,0.16 3.296,0 5.168,-2.336 5.168,-5.76 z m -1.568,0 c 0,2.544 -1.296,5.024 -3.6,5.024 -0.976,0 -1.952,-0.048 -2.928,-0.16 v -9.728 c 0.976,-0.112 1.952,-0.16 2.928,-0.16 2.304,0 3.6,2.48 3.6,5.024 z"
               style="baseline-shift:sub"
               id="path74" />
            <path
               d="m 1705.1821,-1421.4819 c 0,-3.424 -1.872,-5.76 -5.168,-5.76 -0.992,0 -1.984,0.048 -2.96,0.16 h -1.28 v 11.2 h 1.28 c 0.976,0.112 1.968,0.16 2.96,0.16 3.296,0 5.168,-2.336 5.168,-5.76 z m -1.568,0 c 0,2.544 -1.296,5.024 -3.6,5.024 -0.976,0 -1.952,-0.048 -2.928,-0.16 v -9.728 c 0.976,-0.112 1.952,-0.16 2.928,-0.16 2.304,0 3.6,2.48 3.6,5.024 z"
               style="baseline-shift:sub"
               id="path76" />
          </g>
        </g>
        <g
           aria-label="VA"
           id="text8760"
           style="line-height:0%;font-family:Iwona;-inkscape-font-specification:Sans;text-align:end;letter-spacing:0px;word-spacing:0px;text-anchor:end">
          <path
             d="m 1577.2416,-628.00789 h -1.176 l -5.568,14.256 -5.544,-14.256 h -2.112 l 6.552,16.8 h 1.296 z"
             style="font-size:24px"
             id="path79" />
          <path
             d="m 1587.2416,-608.00789 -4.064,-11.2 h -1.392 l -4.144,11.2 h 0.784 l 1.456,-3.92 h 4.544 l 1.424,3.92 z m -3.088,-4.656 h -4 l 2.016,-5.472 z"
             style="baseline-shift:sub"
             id="path81" />
        </g>
        <g
           aria-label="VB"
           id="text8766"
           style="line-height:0%;font-family:Iwona;-inkscape-font-specification:Sans;letter-spacing:0px;word-spacing:0px">
          <path
             d="m 1899.9194,-628.00789 h -1.176 l -5.568,14.256 -5.544,-14.256 h -2.112 l 6.552,16.8 h 1.296 z"
             style="font-size:24px"
             id="path84" />
          <path
             d="m 1910.1594,-611.04789 c 0,-1.76 -1.152,-2.688 -2.832,-3.04 1.232,-0.368 2.048,-1.168 2.048,-2.528 0,-1.952 -1.68,-2.752 -3.84,-2.752 -0.832,0 -1.664,0.048 -2.496,0.16 h -1.28 v 11.2 h 1.28 l 2.496,0.16 c 2.592,0 4.624,-0.88 4.624,-3.2 z m -2.096,-5.568 c 0,1.616 -1.808,2.448 -3.616,2.448 h -1.376 v -4.304 c 0.816,-0.112 1.648,-0.16 2.464,-0.16 1.312,0 2.528,0.8 2.528,2.016 z m 0.528,5.568 c 0,1.472 -1.456,2.464 -3.056,2.464 -0.816,0 -1.648,-0.048 -2.464,-0.16 v -4.864 h 2.064 c 1.76,0 3.456,0.944 3.456,2.56 z"
             style="baseline-shift:sub"
             id="path86" />
        </g>
        <g
           aria-label="VY"
           id="text8772"
           style="line-height:0%;font-family:Iwona;-inkscape-font-specification:Sans;text-align:center;letter-spacing:0px;word-spacing:0px;text-anchor:middle">
          <path
             d="m 1738.9005,-649.26771 h -1.176 l -5.568,14.256 -5.544,-14.256 h -2.112 l 6.552,16.8 h 1.296 z"
             style="font-size:24px"
             id="path89" />
          <path
             d="m 1748.2604,-640.46771 h -0.864 l -3.408,5.664 -3.04,-5.664 h -1.488 l 3.744,6.72 v 4.48 h 1.312 v -4.976 z"
             style="baseline-shift:sub"
             id="path91" />
        </g>
      </g>
    </g>
  </g>
</svg>
