<?xml version="1.0" encoding="UTF-8" standalone="no"?>
<!-- Created with Inkscape (http://www.inkscape.org/) -->

<svg
   width="132.21439mm"
   height="51.351711mm"
   viewBox="0 0 468.47617 181.95488"
   id="svg9958"
   version="1.1"
   xmlns="http://www.w3.org/2000/svg"
   xmlns:svg="http://www.w3.org/2000/svg"
   xmlns:rdf="http://www.w3.org/1999/02/22-rdf-syntax-ns#"
   xmlns:cc="http://creativecommons.org/ns#"
   xmlns:dc="http://purl.org/dc/elements/1.1/">
  <defs
     id="defs9960">
    <marker
       orient="auto"
       refY="0"
       refX="0"
       id="DotM"
       style="overflow:visible">
      <path
         id="path4613"
         d="m -2.5,-1 c 0,2.76 -2.24,5 -5,5 -2.76,0 -5,-2.24 -5,-5 0,-2.76 2.24,-5 5,-5 2.76,0 5,2.24 5,5 z"
         style="fill:#000000;fill-opacity:1;fill-rule:evenodd;stroke:#000000;stroke-width:1.00000003pt;stroke-opacity:1"
         transform="matrix(0.4,0,0,0.4,2.96,0.4)" />
    </marker>
    <marker
       style="overflow:visible"
       id="marker4433"
       refX="0"
       refY="0"
       orient="auto">
      <path
         transform="matrix(-0.4,0,0,-0.4,-4,0)"
         style="fill:#000000;fill-opacity:1;fill-rule:evenodd;stroke:#000000;stroke-width:1.00000003pt;stroke-opacity:1;marker-start:none"
         d="M 0,0 5,-5 -12.5,0 5,5 Z"
         id="path4435" />
    </marker>
    <marker
       orient="auto"
       refY="0"
       refX="0"
       id="marker9715-4"
       style="overflow:visible">
      <path
         id="path9717-7"
         d="M 0,0 5,-5 -12.5,0 5,5 Z"
         style="fill-rule:evenodd;stroke:#000000;stroke-width:1.00000003pt;marker-start:none"
         transform="matrix(-0.4,0,0,-0.4,-4,0)" />
    </marker>
    <marker
       orient="auto"
       refY="0"
       refX="0"
       id="marker9715-4-5"
       style="overflow:visible">
      <path
         id="path9717-7-7"
         d="M 0,0 5,-5 -12.5,0 5,5 Z"
         style="fill-rule:evenodd;stroke:#000000;stroke-width:1.00000003pt;marker-start:none"
         transform="matrix(-0.4,0,0,-0.4,-4,0)" />
    </marker>
    <marker
       orient="auto"
       refY="0"
       refX="0"
       id="marker102015"
       style="overflow:visible">
      <path
         id="path60030"
         d="M 0,0 5,-5 -12.5,0 5,5 Z"
         style="fill:#ff0000;fill-rule:evenodd;stroke:#ff0000;stroke-width:1.00000003pt;marker-start:none"
         transform="matrix(-0.8,0,0,-0.8,-10,0)" />
    </marker>
    <marker
       orient="auto"
       refY="0"
       refX="0"
       id="marker8710o"
       style="overflow:visible">
      <path
         id="path60027"
         d="m -2.5,-1 c 0,2.76 -2.24,5 -5,5 -2.76,0 -5,-2.24 -5,-5 0,-2.76 2.24,-5 5,-5 2.76,0 5,2.24 5,5 z"
         style="fill:#ff0000;fill-rule:evenodd;stroke:#ff0000;stroke-width:1.00000003pt;marker-start:none;marker-end:none"
         transform="matrix(0.4,0,0,0.4,2.96,0.4)" />
    </marker>
  </defs>
  <metadata
     id="metadata9963">
    <rdf:RDF>
      <cc:Work
         rdf:about="">
        <dc:format>image/svg+xml</dc:format>
        <dc:type
           rdf:resource="http://purl.org/dc/dcmitype/StillImage" />
        <dc:title />
      </cc:Work>
    </rdf:RDF>
  </metadata>
  <g
     id="layer1"
     transform="translate(-156.38107,-495.56337)">
    <g
       style="display:inline"
       transform="translate(-7129.1341,8039.7638)"
       id="g55347">
      <g
         id="g52982-4-3"
         transform="translate(7495.4698,-7535.574)"
         style="display:inline">
        <path
           id="rect52984-8-9"
           style="fill:#ffeeaa;stroke:#000000;stroke-width:0.999213"
           d="m 129.72725,-1.0402068 h 49.60633 V 58.995007 h -49.60633 z" />
        <g
           id="g52986-4-0"
           transform="translate(277.79303,-113.38582)">
          <g
             aria-label="D"
             id="text52988-0-8"
             style="line-height:0%;font-family:Iwona;-inkscape-font-specification:Iwona">
            <path
               d="m -136.09686,129.40545 c 0,-2.568 -1.404,-4.32 -3.876,-4.32 -0.744,0 -1.488,0.036 -2.22,0.12 h -0.96 v 8.4 h 0.96 c 0.732,0.084 1.476,0.12 2.22,0.12 2.472,0 3.876,-1.752 3.876,-4.32 z m -1.176,0 c 0,1.908 -0.972,3.768 -2.7,3.768 -0.732,0 -1.464,-0.036 -2.196,-0.12 v -7.296 c 0.732,-0.084 1.464,-0.12 2.196,-0.12 1.728,0 2.7,1.86 2.7,3.768 z"
               style="font-size:12px;line-height:1.25"
               id="path158" />
          </g>
        </g>
        <g
           id="g52992-6-2"
           transform="translate(283.79303,-81.69706)">
          <g
             aria-label="CLK"
             id="text52994-2-1"
             style="line-height:0%;font-family:Iwona;-inkscape-font-specification:Iwona">
            <path
               d="m -136.52895,127.22145 v -0.648 c -0.648,-0.936 -1.716,-1.488 -2.844,-1.488 -2.436,0 -3.756,1.776 -3.756,4.32 0,2.544 1.32,4.32 3.756,4.32 0.936,0 1.86,-0.276 2.652,-0.792 v -0.552 c -0.792,0.516 -1.716,0.792 -2.652,0.792 -1.884,0 -2.58,-1.668 -2.58,-3.768 0,-2.1 0.696,-3.768 2.58,-3.768 1.152,0 2.232,0.6 2.844,1.584 z"
               style="font-size:12px;line-height:1.25"
               id="path161" />
            <path
               d="m -130.16896,133.60545 v -0.552 h -3.816 v -7.848 h -0.984 v 8.4 z"
               style="font-size:12px;line-height:1.25"
               id="path163" />
            <path
               d="m -121.67298,133.60545 -5.316,-4.752 5.028,-3.648 h -0.948 l -4.836,3.516 v -3.516 h -0.984 v 8.4 h 0.984 v -4.104 l 4.596,4.104 z"
               style="font-size:12px;line-height:1.25"
               id="path165" />
          </g>
        </g>
        <g
           aria-label="Q"
           id="text52998-5-8"
           style="line-height:0%;font-family:Iwona;-inkscape-font-specification:Iwona">
          <path
             d="m 173.38035,16.019629 c 0,-2.544 -1.32,-4.32 -3.744,-4.32 -2.436,0 -3.756,1.776 -3.756,4.32 0,2.544 1.32,4.32 3.756,4.32 0.084,0.972 0.888,1.716 1.872,1.716 0.612,0 0.78,-0.036 1.344,-0.288 v -0.36 c -0.276,0.156 -0.576,0.24 -0.9,0.24 -1.092,0 -1.524,-0.384 -1.536,-1.38 1.92,-0.336 2.964,-1.992 2.964,-4.248 z m -1.176,0 c 0,2.1 -0.696,3.768 -2.568,3.768 -1.884,0 -2.58,-1.668 -2.58,-3.768 0,-2.1 0.696,-3.768 2.58,-3.768 1.872,0 2.568,1.668 2.568,3.768 z"
             style="font-size:12px;line-height:1.25"
             id="path168" />
        </g>
        <path
           style="fill:none;stroke:#000000;stroke-width:1px;stroke-linecap:butt;stroke-linejoin:miter;stroke-opacity:1"
           d="m 129.72724,41.278473 7.08662,7.086614 -7.08662,7.086614"
           id="path53002-1-7" />
      </g>
      <path
         id="path18781-7"
         d="m 7579.134,-7518.8979 h 46.0629"
         style="display:inline;fill:none;stroke:#000000;stroke-width:2;stroke-linecap:butt;stroke-linejoin:miter;stroke-miterlimit:4;stroke-dasharray:none;stroke-opacity:1;marker-end:url(#marker9715-4)" />
      <g
         id="g47743"
         transform="translate(7250.9814,-7432.8181)"
         style="display:inline">
        <path
           id="rect47745"
           style="fill:#ffeeaa;stroke:#000000;stroke-width:0.999213"
           d="m 129.72725,-1.0402068 h 49.60633 V 58.995007 h -49.60633 z" />
        <g
           id="g47747"
           transform="translate(277.79303,-113.38582)">
          <g
             aria-label="D"
             id="text47749"
             style="line-height:0%;font-family:Iwona;-inkscape-font-specification:Iwona">
            <path
               d="m -136.09686,129.40545 c 0,-2.568 -1.404,-4.32 -3.876,-4.32 -0.744,0 -1.488,0.036 -2.22,0.12 h -0.96 v 8.4 h 0.96 c 0.732,0.084 1.476,0.12 2.22,0.12 2.472,0 3.876,-1.752 3.876,-4.32 z m -1.176,0 c 0,1.908 -0.972,3.768 -2.7,3.768 -0.732,0 -1.464,-0.036 -2.196,-0.12 v -7.296 c 0.732,-0.084 1.464,-0.12 2.196,-0.12 1.728,0 2.7,1.86 2.7,3.768 z"
               style="font-size:12px;line-height:1.25"
               id="path172" />
          </g>
        </g>
        <g
           id="g47753"
           transform="translate(283.79303,-81.69706)">
          <g
             aria-label="CLK"
             id="text47755"
             style="line-height:0%;font-family:Iwona;-inkscape-font-specification:Iwona">
            <path
               d="m -136.52895,127.22145 v -0.648 c -0.648,-0.936 -1.716,-1.488 -2.844,-1.488 -2.436,0 -3.756,1.776 -3.756,4.32 0,2.544 1.32,4.32 3.756,4.32 0.936,0 1.86,-0.276 2.652,-0.792 v -0.552 c -0.792,0.516 -1.716,0.792 -2.652,0.792 -1.884,0 -2.58,-1.668 -2.58,-3.768 0,-2.1 0.696,-3.768 2.58,-3.768 1.152,0 2.232,0.6 2.844,1.584 z"
               style="font-size:12px;line-height:1.25"
               id="path175" />
            <path
               d="m -130.16896,133.60545 v -0.552 h -3.816 v -7.848 h -0.984 v 8.4 z"
               style="font-size:12px;line-height:1.25"
               id="path177" />
            <path
               d="m -121.67298,133.60545 -5.316,-4.752 5.028,-3.648 h -0.948 l -4.836,3.516 v -3.516 h -0.984 v 8.4 h 0.984 v -4.104 l 4.596,4.104 z"
               style="font-size:12px;line-height:1.25"
               id="path179" />
          </g>
        </g>
        <g
           aria-label="Q"
           id="text47759"
           style="line-height:0%;font-family:Iwona;-inkscape-font-specification:Iwona">
          <path
             d="m 173.38035,16.019629 c 0,-2.544 -1.32,-4.32 -3.744,-4.32 -2.436,0 -3.756,1.776 -3.756,4.32 0,2.544 1.32,4.32 3.756,4.32 0.084,0.972 0.888,1.716 1.872,1.716 0.612,0 0.78,-0.036 1.344,-0.288 v -0.36 c -0.276,0.156 -0.576,0.24 -0.9,0.24 -1.092,0 -1.524,-0.384 -1.536,-1.38 1.92,-0.336 2.964,-1.992 2.964,-4.248 z m -1.176,0 c 0,2.1 -0.696,3.768 -2.568,3.768 -1.884,0 -2.58,-1.668 -2.58,-3.768 0,-2.1 0.696,-3.768 2.58,-3.768 1.872,0 2.568,1.668 2.568,3.768 z"
             style="font-size:12px;line-height:1.25"
             id="path182" />
        </g>
        <path
           style="fill:none;stroke:#000000;stroke-width:1px;stroke-linecap:butt;stroke-linejoin:miter;stroke-opacity:1"
           d="m 129.72724,41.278473 7.08662,7.086614 -7.08662,7.086614"
           id="path47763" />
      </g>
      <path
         style="display:inline;fill:none;stroke:#000000;stroke-width:1;stroke-linecap:butt;stroke-linejoin:miter;stroke-miterlimit:4;stroke-dasharray:none;stroke-opacity:1;marker-end:url(#marker9715-4)"
         d="m 7579.134,-7416.1417 h 21.2597 v -70.8662 h 24.8032"
         id="path47765" />
      <g
         style="display:inline"
         id="g47767"
         transform="translate(6852.0871,-7716.7821)">
        <path
           id="path47769"
           d="m 642.00756,279.38081 c -10.62992,-17.71654 17.71654,-35.43307 35.43307,-17.71654 17.71654,-17.71653 46.063,0 35.43308,17.71654 21.25984,0 21.25984,42.51968 0,42.51968 10.62992,17.71654 -17.71654,35.43307 -35.43308,17.71654 -17.71653,17.71653 -46.06299,0 -35.43307,-17.71654 -21.25983,-1.4e-4 -21.25983,-42.51982 0,-42.51968 z"
           style="fill:#d5f6ff;fill-rule:evenodd;stroke:#000000;stroke-width:1px;stroke-linecap:butt;stroke-linejoin:miter;stroke-opacity:1" />
        <g
           aria-label="Combi-
natoire"
           id="text47773"
           style="line-height:0%;font-family:Iwona;-inkscape-font-specification:Iwona;text-align:center;text-anchor:middle">
          <path
             d="m 659.36257,284.50066 v -1.08 c -1.08,-1.56 -2.86,-2.48 -4.74,-2.48 -4.06,0 -6.26,2.96 -6.26,7.2 0,4.24 2.2,7.2 6.26,7.2 1.56,0 3.1,-0.46 4.42,-1.32 v -0.92 c -1.32,0.86 -2.86,1.32 -4.42,1.32 -3.14,0 -4.3,-2.78 -4.3,-6.28 0,-3.5 1.16,-6.28 4.3,-6.28 1.92,0 3.72,1 4.74,2.64 z"
             style="font-size:20px;line-height:1.25"
             id="path185" />
          <path
             d="m 668.56253,290.64066 c 0,-3.06 -1.36,-4.7 -3.86,-4.7 -2.52,0 -3.88,1.64 -3.88,4.7 0,3.06 1.36,4.7 3.88,4.7 2.5,0 3.86,-1.64 3.86,-4.7 z m -1.76,0 c 0,2.5 -0.74,3.86 -2.1,3.86 -1.38,0 -2.12,-1.36 -2.12,-3.86 0,-2.5 0.74,-3.86 2.12,-3.86 1.36,0 2.1,1.36 2.1,3.86 z"
             style="font-size:20px;line-height:1.25"
             id="path187" />
          <path
             d="m 682.18253,295.14066 v -6.5 c 0,-1.4 -0.82,-2.7 -2.12,-2.7 -1.12,0 -2.16,0.58 -2.76,1.52 -0.32,-0.88 -1,-1.52 -1.92,-1.52 -1.04,0 -1.88,0.72 -2.56,1.52 v -1.32 h -1.56 v 9 h 1.56 v -7.08 c 0.48,-0.62 1.08,-1.2 1.86,-1.2 0.82,0 1.26,0.88 1.26,1.78 v 6.5 h 1.56 v -6.5 c 0,-0.24 -0.02,-0.46 -0.06,-0.7 0.48,-0.62 1.14,-1.08 1.92,-1.08 0.82,0 1.26,0.88 1.26,1.78 v 6.5 z"
             style="font-size:20px;line-height:1.25"
             id="path189" />
          <path
             d="m 693.0225,290.64066 c 0,-2.66 -1,-4.7 -3.42,-4.7 -1.02,0 -1.96,0.46 -2.76,1.1 v -5.9 h -1.56 v 14 h 1.56 v -0.46 c 0.76,0.4 1.6,0.66 2.46,0.66 2.5,0 3.72,-2 3.72,-4.7 z m -1.76,0 c 0,1.88 -0.58,3.86 -2.22,3.86 -0.78,0 -1.54,-0.26 -2.2,-0.66 v -5.96 c 0.6,-0.6 1.34,-1.1 2.2,-1.1 1.82,0 2.22,1.76 2.22,3.86 z"
             style="font-size:20px;line-height:1.25"
             id="path191" />
          <path
             d="m 699.38248,294.44066 v -0.6 c -0.38,0.32 -0.82,0.58 -1.32,0.58 -0.74,0 -0.88,-0.92 -0.88,-1.78 v -6.5 h -1.56 v 6.5 c 0,1.34 0.52,2.7 1.7,2.7 0.76,0 1.48,-0.38 2.06,-0.9 z m -2,-11.42 c 0,-0.54 -0.44,-0.98 -0.98,-0.98 -0.54,0 -0.98,0.44 -0.98,0.98 0,0.54 0.44,0.98 0.98,0.98 0.54,0 0.98,-0.44 0.98,-0.98 z"
             style="font-size:20px;line-height:1.25"
             id="path193" />
          <path
             d="m 707.20246,291.14066 v -1 h -6.66 v 1 z"
             style="font-size:20px;line-height:1.25"
             id="path195" />
          <path
             d="m 656.68258,320.14066 v -6.5 c 0,-1.46 -1.12,-2.7 -2.56,-2.7 -1.2,0 -2.26,0.68 -3.12,1.52 v -1.32 h -1.56 v 9 h 1.56 v -7.06 c 0.68,-0.68 1.52,-1.22 2.46,-1.22 0.94,0 1.66,0.82 1.66,1.78 v 6.5 z"
             style="font-size:20px;line-height:1.25"
             id="path197" />
          <path
             d="m 666.82254,320.14066 v -5.6 c 0,-1.88 -1.16,-3.6 -2.9,-3.6 -1.28,0 -2.48,0.44 -3.56,1.12 v 0.62 c 0.9,-0.5 1.9,-0.82 2.94,-0.82 1.24,0 1.96,1.32 1.96,2.68 v 0.36 c -0.78,-0.34 -1.62,-0.54 -2.46,-0.54 -2.14,0 -3.72,0.98 -3.72,3 0,1.92 1.4,2.98 3.42,2.98 1.02,0 1.96,-0.46 2.76,-1.1 v 0.9 z m -1.56,-1.74 c -0.6,0.6 -1.34,1.1 -2.2,1.1 -1.34,0 -2.22,-0.82 -2.22,-2.14 0,-1.22 1,-2.16 2.22,-2.16 0.76,0 1.52,0.2 2.2,0.54 z"
             style="font-size:20px;line-height:1.25"
             id="path199" />
          <path
             d="m 674.26252,319.44066 v -0.6 c -0.32,0.32 -0.7,0.58 -1.16,0.58 -0.72,0 -0.76,-0.94 -0.76,-1.78 v -5.66 h 1.92 v -0.84 h -1.92 v -3 h -0.94 c 0,1.6 -0.92,3.1 -2.38,3.1 v 0.74 h 1.76 v 5.66 c 0,1.32 0.42,2.7 1.56,2.7 0.74,0 1.38,-0.4 1.92,-0.9 z"
             style="font-size:20px;line-height:1.25"
             id="path201" />
          <path
             d="m 683.7025,315.64066 c 0,-3.06 -1.36,-4.7 -3.86,-4.7 -2.52,0 -3.88,1.64 -3.88,4.7 0,3.06 1.36,4.7 3.88,4.7 2.5,0 3.86,-1.64 3.86,-4.7 z m -1.76,0 c 0,2.5 -0.74,3.86 -2.1,3.86 -1.38,0 -2.12,-1.36 -2.12,-3.86 0,-2.5 0.74,-3.86 2.12,-3.86 1.36,0 2.1,1.36 2.1,3.86 z"
             style="font-size:20px;line-height:1.25"
             id="path203" />
          <path
             d="m 690.06249,319.44066 v -0.6 c -0.38,0.32 -0.82,0.58 -1.32,0.58 -0.74,0 -0.88,-0.92 -0.88,-1.78 v -6.5 h -1.56 v 6.5 c 0,1.34 0.52,2.7 1.7,2.7 0.76,0 1.48,-0.38 2.06,-0.9 z m -2,-11.42 c 0,-0.54 -0.44,-0.98 -0.98,-0.98 -0.54,0 -0.98,0.44 -0.98,0.98 0,0.54 0.44,0.98 0.98,0.98 0.54,0 0.98,-0.44 0.98,-0.98 z"
             style="font-size:20px;line-height:1.25"
             id="path205" />
          <path
             d="m 697.04247,312.38066 v -1.24 c -0.22,-0.08 -0.46,-0.14 -0.68,-0.14 -1.12,0 -2.02,0.78 -2.74,1.64 v -1.5 h -1.56 v 9 h 1.56 v -6.66 c 0.6,-0.7 1.36,-1.3 2.28,-1.3 0.38,0 0.78,0.08 1.14,0.2 z"
             style="font-size:20px;line-height:1.25"
             id="path207" />
          <path
             d="m 706.28245,315.84066 v -0.2 c 0,-2.82 -1.54,-4.7 -3.86,-4.7 -2.34,0 -3.88,1.88 -3.88,4.7 0,2.82 1.54,4.7 3.88,4.7 1,0 1.98,-0.32 2.8,-0.9 v -0.84 c -0.94,0.6 -1.7,0.82 -2.8,0.82 -1.7,0 -2.12,-1.62 -2.12,-3.58 z m -1.76,-0.84 h -4.22 c 0,-1.6 0.68,-3.22 2.12,-3.22 1.42,0 2.1,1.62 2.1,3.22 z"
             style="font-size:20px;line-height:1.25"
             id="path209" />
        </g>
      </g>
      <path
         id="path47781"
         d="m 7430.315,-7416.1417 h 46.0629"
         style="display:inline;fill:none;stroke:#000000;stroke-width:1;stroke-linecap:butt;stroke-linejoin:miter;stroke-miterlimit:4;stroke-dasharray:none;stroke-opacity:1;marker-end:url(#marker9715-4)" />
      <path
         style="display:inline;fill:none;stroke:#000000;stroke-width:1;stroke-linecap:butt;stroke-linejoin:miter;stroke-miterlimit:4;stroke-dasharray:none;stroke-opacity:1;marker-end:url(#marker9715-4)"
         d="m 7334.6458,-7416.1417 h 46.0629"
         id="path47783" />
      <path
         style="display:inline;fill:none;stroke:#000000;stroke-width:2;stroke-linecap:butt;stroke-linejoin:miter;stroke-miterlimit:4;stroke-dasharray:none;stroke-opacity:1;marker-end:url(#marker9715-4)"
         d="m 7674.8031,-7518.8976 h 46.0629"
         id="path47785" />
      <g
         aria-label="D1"
         id="text54545"
         style="line-height:0%;font-family:Iwona;-inkscape-font-specification:Iwona;text-align:end;letter-spacing:0px;word-spacing:0px;text-anchor:end">
        <path
           d="m 7323.88,-7415.3552 c 0,-3.852 -2.106,-6.48 -5.814,-6.48 -1.116,0 -2.232,0.054 -3.33,0.18 h -1.44 v 12.6 h 1.44 c 1.098,0.126 2.214,0.18 3.33,0.18 3.708,0 5.814,-2.628 5.814,-6.48 z m -1.764,0 c 0,2.862 -1.458,5.652 -4.05,5.652 -1.098,0 -2.196,-0.054 -3.294,-0.18 v -10.944 c 1.098,-0.126 2.196,-0.18 3.294,-0.18 2.592,0 4.05,2.79 4.05,5.652 z"
           style="font-size:18px;line-height:1.25"
           id="path212" />
        <path
           d="m 7328.821,-7405.4552 v -8.0731 h -0.6786 c -0.6435,0.7371 -1.404,1.3689 -2.2464,1.8603 v 0.4914 c 0.7137,-0.3393 1.3806,-0.7371 2.0124,-1.2168 v 6.9382 z"
           style="font-size:65.0009%;baseline-shift:sub"
           id="path214" />
      </g>
      <g
         aria-label="CLK1"
         id="text54583"
         style="line-height:0%;font-family:Iwona;-inkscape-font-specification:Iwona;text-align:end;letter-spacing:0px;word-spacing:0px;text-anchor:end">
        <path
           d="m 7302.496,-7390.2845 v -0.972 c -0.972,-1.404 -2.574,-2.232 -4.266,-2.232 -3.654,0 -5.634,2.664 -5.634,6.48 0,3.816 1.98,6.48 5.634,6.48 1.404,0 2.79,-0.414 3.978,-1.188 v -0.828 c -1.188,0.774 -2.574,1.188 -3.978,1.188 -2.826,0 -3.87,-2.502 -3.87,-5.652 0,-3.15 1.044,-5.652 3.87,-5.652 1.728,0 3.348,0.9 4.266,2.376 z"
           style="font-size:18px;line-height:1.25"
           id="path217" />
        <path
           d="m 7312.036,-7380.7085 v -0.828 h -5.724 v -11.772 h -1.476 v 12.6 z"
           style="font-size:18px;line-height:1.25"
           id="path219" />
        <path
           d="m 7324.78,-7380.7085 -7.974,-7.128 7.542,-5.472 h -1.422 l -7.254,5.274 v -5.274 h -1.476 v 12.6 h 1.476 v -6.156 l 6.894,6.156 z"
           style="font-size:18px;line-height:1.25"
           id="path221" />
        <path
           d="m 7328.821,-7377.1085 v -8.0731 h -0.6786 c -0.6435,0.7371 -1.404,1.3689 -2.2464,1.8603 v 0.4914 c 0.7137,-0.3393 1.3806,-0.7371 2.0124,-1.2168 v 6.9382 z"
           style="font-size:65.0009%;baseline-shift:sub"
           id="path223" />
      </g>
      <g
         aria-label="Q1"
         id="text54589"
         style="line-height:0%;font-family:Iwona;-inkscape-font-specification:Iwona;text-align:center;letter-spacing:0px;word-spacing:0px;text-anchor:middle">
        <path
           d="m 7456.8784,-7429.5285 c 0,-3.816 -1.98,-6.48 -5.616,-6.48 -3.654,0 -5.634,2.664 -5.634,6.48 0,3.816 1.98,6.48 5.634,6.48 0.126,1.458 1.332,2.574 2.808,2.574 0.918,0 1.17,-0.054 2.016,-0.432 v -0.54 c -0.414,0.234 -0.864,0.36 -1.35,0.36 -1.638,0 -2.286,-0.576 -2.304,-2.07 2.88,-0.504 4.446,-2.988 4.446,-6.372 z m -1.764,0 c 0,3.15 -1.044,5.652 -3.852,5.652 -2.826,0 -3.87,-2.502 -3.87,-5.652 0,-3.15 1.044,-5.652 3.87,-5.652 2.808,0 3.852,2.502 3.852,5.652 z"
           style="font-size:18px;line-height:1.25"
           id="path226" />
        <path
           d="m 7461.8195,-7419.6285 v -8.0731 h -0.6786 c -0.6436,0.7371 -1.4041,1.3689 -2.2465,1.8603 v 0.4914 c 0.7137,-0.3393 1.3806,-0.7371 2.0124,-1.2168 v 6.9382 z"
           style="font-size:65.0009%;baseline-shift:sub"
           id="path228" />
      </g>
      <g
         aria-label="D2"
         id="text54595"
         style="line-height:0%;font-family:Iwona;-inkscape-font-specification:Iwona;text-align:end;letter-spacing:0px;word-spacing:0px;text-anchor:end">
        <path
           d="m 7568.3678,-7521.6545 c 0,-3.852 -2.106,-6.48 -5.814,-6.48 -1.116,0 -2.232,0.054 -3.33,0.18 h -1.44 v 12.6 h 1.44 c 1.098,0.126 2.214,0.18 3.33,0.18 3.708,0 5.814,-2.628 5.814,-6.48 z m -1.764,0 c 0,2.862 -1.458,5.652 -4.05,5.652 -1.098,0 -2.196,-0.054 -3.294,-0.18 v -10.944 c 1.098,-0.126 2.196,-0.18 3.294,-0.18 2.592,0 4.05,2.79 4.05,5.652 z"
           style="font-size:18px;line-height:1.25"
           id="path231" />
        <path
           d="m 7575.0053,-7511.7545 v -0.7254 h -4.1301 l 2.1528,-2.1294 c 0.9594,-0.9594 1.8603,-2.0827 1.8603,-3.4399 0,-1.1466 -1.1349,-1.8954 -2.3634,-1.8954 -0.9243,0 -1.8018,0.4212 -2.3751,1.1349 v 0.4914 c 0.5967,-0.6903 1.4625,-1.0881 2.3751,-1.0881 0.7839,0 1.4508,0.585 1.4508,1.3572 0,1.1583 -0.5382,2.2348 -1.3338,3.0655 l -2.6091,2.6793 v 0.5499 z"
           style="font-size:65.0009%;baseline-shift:sub"
           id="path233" />
      </g>
      <g
         aria-label="CLK2"
         id="text54601"
         style="line-height:0%;font-family:Iwona;-inkscape-font-specification:Iwona;text-align:end;letter-spacing:0px;word-spacing:0px;text-anchor:end">
        <path
           d="m 7564.7006,-7489.4974 v -0.972 c -0.972,-1.404 -2.574,-2.232 -4.266,-2.232 -3.654,0 -5.634,2.664 -5.634,6.48 0,3.816 1.98,6.48 5.634,6.48 1.404,0 2.79,-0.414 3.978,-1.188 v -0.828 c -1.188,0.774 -2.574,1.188 -3.978,1.188 -2.826,0 -3.87,-2.502 -3.87,-5.652 0,-3.15 1.044,-5.652 3.87,-5.652 1.728,0 3.348,0.9 4.266,2.376 z"
           style="font-size:18px;line-height:1.25"
           id="path236" />
        <path
           d="m 7574.2406,-7479.9214 v -0.828 h -5.724 v -11.772 h -1.476 v 12.6 z"
           style="font-size:18px;line-height:1.25"
           id="path238" />
        <path
           d="m 7586.9845,-7479.9214 -7.974,-7.128 7.542,-5.472 h -1.422 l -7.254,5.274 v -5.274 h -1.476 v 12.6 h 1.476 v -6.156 l 6.894,6.156 z"
           style="font-size:18px;line-height:1.25"
           id="path240" />
        <path
           d="m 7592.7221,-7476.3214 v -0.7254 h -4.1301 l 2.1528,-2.1294 c 0.9594,-0.9594 1.8603,-2.0827 1.8603,-3.4399 0,-1.1466 -1.1349,-1.8954 -2.3634,-1.8954 -0.9243,0 -1.8018,0.4212 -2.3751,1.1349 v 0.4914 c 0.5967,-0.6903 1.4625,-1.0881 2.3751,-1.0881 0.7839,0 1.4508,0.585 1.4508,1.3572 0,1.1583 -0.5382,2.2348 -1.3338,3.0655 l -2.6091,2.6793 v 0.5499 z"
           style="font-size:65.0009%;baseline-shift:sub"
           id="path242" />
      </g>
      <g
         aria-label="Q2"
         id="text54607"
         style="line-height:0%;font-family:Iwona;-inkscape-font-specification:Iwona;letter-spacing:0px;word-spacing:0px">
        <path
           d="m 7740.2826,-7521.6545 c 0,-3.816 -1.98,-6.48 -5.616,-6.48 -3.654,0 -5.634,2.664 -5.634,6.48 0,3.816 1.98,6.48 5.634,6.48 0.126,1.458 1.332,2.574 2.808,2.574 0.918,0 1.17,-0.054 2.016,-0.432 v -0.54 c -0.414,0.234 -0.864,0.36 -1.35,0.36 -1.638,0 -2.286,-0.576 -2.304,-2.07 2.88,-0.504 4.446,-2.988 4.446,-6.372 z m -1.764,0 c 0,3.15 -1.044,5.652 -3.852,5.652 -2.826,0 -3.87,-2.502 -3.87,-5.652 0,-3.15 1.044,-5.652 3.87,-5.652 2.808,0 3.852,2.502 3.852,5.652 z"
           style="font-size:18px;line-height:1.25"
           id="path245" />
        <path
           d="m 7746.9202,-7511.7545 v -0.7254 h -4.1302 l 2.1529,-2.1294 c 0.9594,-0.9594 1.8603,-2.0827 1.8603,-3.4399 0,-1.1466 -1.1349,-1.8954 -2.3634,-1.8954 -0.9244,0 -1.8019,0.4212 -2.3752,1.1349 v 0.4914 c 0.5967,-0.6903 1.4625,-1.0881 2.3752,-1.0881 0.7839,0 1.4508,0.585 1.4508,1.3572 0,1.1583 -0.5382,2.2348 -1.3338,3.0655 l -2.6092,2.6793 v 0.5499 z"
           style="font-size:65.0009%;baseline-shift:sub"
           id="path247" />
      </g>
      <path
         id="path54643"
         d="m 7334.6458,-7384.252 h 46.0629"
         style="display:inline;fill:none;stroke:#000000;stroke-width:1;stroke-linecap:butt;stroke-linejoin:miter;stroke-miterlimit:4;stroke-dasharray:none;stroke-opacity:1;marker-end:url(#marker9715-4)" />
    </g>
    <g
       style="display:inline"
       transform="translate(-7688.9763,8280.8728)"
       id="g55290">
      <g
         style="display:inline"
         transform="translate(8054.4128,-7528.4874)"
         id="g47787">
        <path
           id="rect47789"
           style="fill:#ffeeaa;stroke:#000000;stroke-width:0.999213"
           d="m 130.62653,-4.5834866 h 49.60632 V 62.739351 h -49.60632 z" />
        <g
           transform="translate(277.79303,-120.4724)"
           id="g47791">
          <g
             aria-label="D"
             id="text47793"
             style="line-height:0%;font-family:Iwona;-inkscape-font-specification:Iwona">
            <path
               d="m -136.09686,129.40545 c 0,-2.568 -1.404,-4.32 -3.876,-4.32 -0.744,0 -1.488,0.036 -2.22,0.12 h -0.96 v 8.4 h 0.96 c 0.732,0.084 1.476,0.12 2.22,0.12 2.472,0 3.876,-1.752 3.876,-4.32 z m -1.176,0 c 0,1.908 -0.972,3.768 -2.7,3.768 -0.732,0 -1.464,-0.036 -2.196,-0.12 v -7.296 c 0.732,-0.084 1.464,-0.12 2.196,-0.12 1.728,0 2.7,1.86 2.7,3.768 z"
               style="font-size:12px;line-height:1.25"
               id="path251" />
          </g>
        </g>
        <g
           transform="translate(285.10539,-77.95272)"
           id="g47797">
          <g
             aria-label="CLK"
             id="text47799"
             style="line-height:0%;font-family:Iwona;-inkscape-font-specification:Iwona">
            <path
               d="m -136.52895,127.22145 v -0.648 c -0.648,-0.936 -1.716,-1.488 -2.844,-1.488 -2.436,0 -3.756,1.776 -3.756,4.32 0,2.544 1.32,4.32 3.756,4.32 0.936,0 1.86,-0.276 2.652,-0.792 v -0.552 c -0.792,0.516 -1.716,0.792 -2.652,0.792 -1.884,0 -2.58,-1.668 -2.58,-3.768 0,-2.1 0.696,-3.768 2.58,-3.768 1.152,0 2.232,0.6 2.844,1.584 z"
               style="font-size:12px;line-height:1.25"
               id="path254" />
            <path
               d="m -130.16896,133.60545 v -0.552 h -3.816 v -7.848 h -0.984 v 8.4 z"
               style="font-size:12px;line-height:1.25"
               id="path256" />
            <path
               d="m -121.67298,133.60545 -5.316,-4.752 5.028,-3.648 h -0.948 l -4.836,3.516 v -3.516 h -0.984 v 8.4 h 0.984 v -4.104 l 4.596,4.104 z"
               style="font-size:12px;line-height:1.25"
               id="path258" />
          </g>
        </g>
        <g
           aria-label="Q"
           id="text47803"
           style="line-height:0%;font-family:Iwona;-inkscape-font-specification:Iwona">
          <path
             d="m 173.38035,8.9330509 c 0,-2.544 -1.32,-4.32 -3.744,-4.32 -2.436,0 -3.756,1.776 -3.756,4.32 0,2.5440001 1.32,4.3200001 3.756,4.3200001 0.084,0.972 0.888,1.716 1.872,1.716 0.612,0 0.78,-0.036 1.344,-0.288 v -0.36 c -0.276,0.156 -0.576,0.24 -0.9,0.24 -1.092,0 -1.524,-0.384 -1.536,-1.38 1.92,-0.336 2.964,-1.992 2.964,-4.2480001 z m -1.176,0 c 0,2.1000001 -0.696,3.7680001 -2.568,3.7680001 -1.884,0 -2.58,-1.668 -2.58,-3.7680001 0,-2.1 0.696,-3.768 2.58,-3.768 1.872,0 2.568,1.668 2.568,3.768 z"
             style="font-size:12px;line-height:1.25"
             id="path261" />
        </g>
        <path
           id="path47807"
           d="m 130.62651,45.022813 7.08662,7.086614 -7.08662,7.086614"
           style="fill:none;stroke:#000000;stroke-width:1px;stroke-linecap:butt;stroke-linejoin:miter;stroke-opacity:1" />
        <g
           id="g47878"
           transform="translate(277.79303,-99.212562)">
          <g
             aria-label="E"
             id="text47880"
             style="line-height:0%;font-family:Iwona;-inkscape-font-specification:Iwona">
            <path
               d="m -137.15286,133.60545 v -0.552 h -5.016 v -3.372 h 3.816 v -0.552 h -3.816 v -3.372 h 4.728 v -0.552 h -5.712 v 8.4 z"
               style="font-size:12px;line-height:1.25"
               id="path264" />
          </g>
        </g>
      </g>
      <path
         style="display:inline;fill:none;stroke:#000000;stroke-width:2;stroke-linecap:butt;stroke-linejoin:miter;stroke-miterlimit:4;stroke-dasharray:none;stroke-opacity:1;marker-end:url(#marker9715-4-5)"
         d="m 8114.1732,-7518.8976 h 67.3229"
         id="path47809" />
      <g
         style="display:inline"
         transform="translate(7796.6507,-7432.8181)"
         id="g47833">
        <path
           id="rect47835"
           style="fill:#ffeeaa;stroke:#000000;stroke-width:0.999213"
           d="m 129.72725,-1.0402068 h 49.60633 V 58.995007 h -49.60633 z" />
        <g
           transform="translate(277.79303,-113.38582)"
           id="g47837">
          <g
             aria-label="D"
             id="text47839"
             style="line-height:0%;font-family:Iwona;-inkscape-font-specification:Iwona">
            <path
               d="m -136.09686,129.40545 c 0,-2.568 -1.404,-4.32 -3.876,-4.32 -0.744,0 -1.488,0.036 -2.22,0.12 h -0.96 v 8.4 h 0.96 c 0.732,0.084 1.476,0.12 2.22,0.12 2.472,0 3.876,-1.752 3.876,-4.32 z m -1.176,0 c 0,1.908 -0.972,3.768 -2.7,3.768 -0.732,0 -1.464,-0.036 -2.196,-0.12 v -7.296 c 0.732,-0.084 1.464,-0.12 2.196,-0.12 1.728,0 2.7,1.86 2.7,3.768 z"
               style="font-size:12px;line-height:1.25"
               id="path268" />
          </g>
        </g>
        <g
           transform="translate(283.79303,-81.69706)"
           id="g47843">
          <g
             aria-label="CLK"
             id="text47845"
             style="line-height:0%;font-family:Iwona;-inkscape-font-specification:Iwona">
            <path
               d="m -136.52895,127.22145 v -0.648 c -0.648,-0.936 -1.716,-1.488 -2.844,-1.488 -2.436,0 -3.756,1.776 -3.756,4.32 0,2.544 1.32,4.32 3.756,4.32 0.936,0 1.86,-0.276 2.652,-0.792 v -0.552 c -0.792,0.516 -1.716,0.792 -2.652,0.792 -1.884,0 -2.58,-1.668 -2.58,-3.768 0,-2.1 0.696,-3.768 2.58,-3.768 1.152,0 2.232,0.6 2.844,1.584 z"
               style="font-size:12px;line-height:1.25"
               id="path271" />
            <path
               d="m -130.16896,133.60545 v -0.552 h -3.816 v -7.848 h -0.984 v 8.4 z"
               style="font-size:12px;line-height:1.25"
               id="path273" />
            <path
               d="m -121.67298,133.60545 -5.316,-4.752 5.028,-3.648 h -0.948 l -4.836,3.516 v -3.516 h -0.984 v 8.4 h 0.984 v -4.104 l 4.596,4.104 z"
               style="font-size:12px;line-height:1.25"
               id="path275" />
          </g>
        </g>
        <g
           aria-label="Q"
           id="text47849"
           style="line-height:0%;font-family:Iwona;-inkscape-font-specification:Iwona">
          <path
             d="m 173.38035,16.019629 c 0,-2.544 -1.32,-4.32 -3.744,-4.32 -2.436,0 -3.756,1.776 -3.756,4.32 0,2.544 1.32,4.32 3.756,4.32 0.084,0.972 0.888,1.716 1.872,1.716 0.612,0 0.78,-0.036 1.344,-0.288 v -0.36 c -0.276,0.156 -0.576,0.24 -0.9,0.24 -1.092,0 -1.524,-0.384 -1.536,-1.38 1.92,-0.336 2.964,-1.992 2.964,-4.248 z m -1.176,0 c 0,2.1 -0.696,3.768 -2.568,3.768 -1.884,0 -2.58,-1.668 -2.58,-3.768 0,-2.1 0.696,-3.768 2.58,-3.768 1.872,0 2.568,1.668 2.568,3.768 z"
             style="font-size:12px;line-height:1.25"
             id="path278" />
        </g>
        <path
           id="path47854"
           d="m 129.72724,41.278473 7.08662,7.086614 -7.08662,7.086614"
           style="fill:none;stroke:#000000;stroke-width:1px;stroke-linecap:butt;stroke-linejoin:miter;stroke-opacity:1" />
      </g>
      <path
         id="path47856"
         d="m 8032.6771,-7497.6378 h 152.3623"
         style="display:inline;fill:none;stroke:#000000;stroke-width:1;stroke-linecap:butt;stroke-linejoin:miter;stroke-miterlimit:4;stroke-dasharray:none;stroke-opacity:1;marker-end:url(#marker9715-4-5)" />
      <path
         style="display:inline;fill:none;stroke:#000000;stroke-width:1;stroke-linecap:butt;stroke-linejoin:miter;stroke-miterlimit:4;stroke-dasharray:none;stroke-opacity:1;marker-end:url(#marker9715-4-5)"
         d="m 7975.9843,-7416.1417 h 35.4331"
         id="path47872" />
      <path
         id="path47874"
         d="m 7883.8582,-7416.1417 h 42.5198"
         style="display:inline;fill:none;stroke:#000000;stroke-width:1;stroke-linecap:butt;stroke-linejoin:miter;stroke-miterlimit:4;stroke-dasharray:none;stroke-opacity:1;marker-end:url(#marker9715-4-5)" />
      <path
         id="path47876"
         d="m 8234.6456,-7518.8976 h 46.0629"
         style="display:inline;fill:none;stroke:#000000;stroke-width:2;stroke-linecap:butt;stroke-linejoin:miter;stroke-miterlimit:4;stroke-dasharray:none;stroke-opacity:1;marker-end:url(#marker9715-4-5)" />
      <path
         id="path47884"
         d="m 7883.8583,-7345.2756 h 276.3779 v -131.1024 h 24.8035"
         style="display:inline;fill:none;stroke:#ff0000;stroke-width:0.999213;stroke-linecap:butt;stroke-linejoin:miter;stroke-miterlimit:4;stroke-dasharray:none;stroke-opacity:1;marker-start:none;marker-end:url(#marker102015)" />
      <path
         style="display:inline;fill:none;stroke:#ff0000;stroke-width:0.999213;stroke-linecap:butt;stroke-linejoin:miter;stroke-miterlimit:4;stroke-dasharray:none;stroke-opacity:1;marker-start:url(#marker8710o);marker-end:url(#marker102015)"
         d="m 7898.0315,-7345.2756 v -38.9764 h 24.8032"
         id="path47831" />
      <g
         transform="translate(7306.9018,-7798.2785)"
         id="g54535"
         style="display:inline">
        <path
           style="fill:#d5f6ff;fill-rule:evenodd;stroke:#000000;stroke-width:1px;stroke-linecap:butt;stroke-linejoin:miter;stroke-opacity:1"
           d="m 642.00756,279.38081 c -10.62992,-17.71654 17.71654,-35.43307 35.43307,-17.71654 17.71654,-17.71653 46.063,0 35.43308,17.71654 21.25984,0 21.25984,42.51968 0,42.51968 10.62992,17.71654 -17.71654,35.43307 -35.43308,17.71654 -17.71653,17.71653 -46.06299,0 -35.43307,-17.71654 -21.25983,-1.4e-4 -21.25983,-42.51982 0,-42.51968 z"
           id="path54537" />
        <g
           aria-label="Combi-
natoire"
           id="text54539"
           style="line-height:0%;font-family:Iwona;-inkscape-font-specification:Iwona;text-align:center;text-anchor:middle">
          <path
             d="m 659.36257,284.50066 v -1.08 c -1.08,-1.56 -2.86,-2.48 -4.74,-2.48 -4.06,0 -6.26,2.96 -6.26,7.2 0,4.24 2.2,7.2 6.26,7.2 1.56,0 3.1,-0.46 4.42,-1.32 v -0.92 c -1.32,0.86 -2.86,1.32 -4.42,1.32 -3.14,0 -4.3,-2.78 -4.3,-6.28 0,-3.5 1.16,-6.28 4.3,-6.28 1.92,0 3.72,1 4.74,2.64 z"
             style="font-size:20px;line-height:1.25"
             id="path281" />
          <path
             d="m 668.56253,290.64066 c 0,-3.06 -1.36,-4.7 -3.86,-4.7 -2.52,0 -3.88,1.64 -3.88,4.7 0,3.06 1.36,4.7 3.88,4.7 2.5,0 3.86,-1.64 3.86,-4.7 z m -1.76,0 c 0,2.5 -0.74,3.86 -2.1,3.86 -1.38,0 -2.12,-1.36 -2.12,-3.86 0,-2.5 0.74,-3.86 2.12,-3.86 1.36,0 2.1,1.36 2.1,3.86 z"
             style="font-size:20px;line-height:1.25"
             id="path283" />
          <path
             d="m 682.18253,295.14066 v -6.5 c 0,-1.4 -0.82,-2.7 -2.12,-2.7 -1.12,0 -2.16,0.58 -2.76,1.52 -0.32,-0.88 -1,-1.52 -1.92,-1.52 -1.04,0 -1.88,0.72 -2.56,1.52 v -1.32 h -1.56 v 9 h 1.56 v -7.08 c 0.48,-0.62 1.08,-1.2 1.86,-1.2 0.82,0 1.26,0.88 1.26,1.78 v 6.5 h 1.56 v -6.5 c 0,-0.24 -0.02,-0.46 -0.06,-0.7 0.48,-0.62 1.14,-1.08 1.92,-1.08 0.82,0 1.26,0.88 1.26,1.78 v 6.5 z"
             style="font-size:20px;line-height:1.25"
             id="path285" />
          <path
             d="m 693.0225,290.64066 c 0,-2.66 -1,-4.7 -3.42,-4.7 -1.02,0 -1.96,0.46 -2.76,1.1 v -5.9 h -1.56 v 14 h 1.56 v -0.46 c 0.76,0.4 1.6,0.66 2.46,0.66 2.5,0 3.72,-2 3.72,-4.7 z m -1.76,0 c 0,1.88 -0.58,3.86 -2.22,3.86 -0.78,0 -1.54,-0.26 -2.2,-0.66 v -5.96 c 0.6,-0.6 1.34,-1.1 2.2,-1.1 1.82,0 2.22,1.76 2.22,3.86 z"
             style="font-size:20px;line-height:1.25"
             id="path287" />
          <path
             d="m 699.38248,294.44066 v -0.6 c -0.38,0.32 -0.82,0.58 -1.32,0.58 -0.74,0 -0.88,-0.92 -0.88,-1.78 v -6.5 h -1.56 v 6.5 c 0,1.34 0.52,2.7 1.7,2.7 0.76,0 1.48,-0.38 2.06,-0.9 z m -2,-11.42 c 0,-0.54 -0.44,-0.98 -0.98,-0.98 -0.54,0 -0.98,0.44 -0.98,0.98 0,0.54 0.44,0.98 0.98,0.98 0.54,0 0.98,-0.44 0.98,-0.98 z"
             style="font-size:20px;line-height:1.25"
             id="path289" />
          <path
             d="m 707.20246,291.14066 v -1 h -6.66 v 1 z"
             style="font-size:20px;line-height:1.25"
             id="path291" />
          <path
             d="m 656.68258,320.14066 v -6.5 c 0,-1.46 -1.12,-2.7 -2.56,-2.7 -1.2,0 -2.26,0.68 -3.12,1.52 v -1.32 h -1.56 v 9 h 1.56 v -7.06 c 0.68,-0.68 1.52,-1.22 2.46,-1.22 0.94,0 1.66,0.82 1.66,1.78 v 6.5 z"
             style="font-size:20px;line-height:1.25"
             id="path293" />
          <path
             d="m 666.82254,320.14066 v -5.6 c 0,-1.88 -1.16,-3.6 -2.9,-3.6 -1.28,0 -2.48,0.44 -3.56,1.12 v 0.62 c 0.9,-0.5 1.9,-0.82 2.94,-0.82 1.24,0 1.96,1.32 1.96,2.68 v 0.36 c -0.78,-0.34 -1.62,-0.54 -2.46,-0.54 -2.14,0 -3.72,0.98 -3.72,3 0,1.92 1.4,2.98 3.42,2.98 1.02,0 1.96,-0.46 2.76,-1.1 v 0.9 z m -1.56,-1.74 c -0.6,0.6 -1.34,1.1 -2.2,1.1 -1.34,0 -2.22,-0.82 -2.22,-2.14 0,-1.22 1,-2.16 2.22,-2.16 0.76,0 1.52,0.2 2.2,0.54 z"
             style="font-size:20px;line-height:1.25"
             id="path295" />
          <path
             d="m 674.26252,319.44066 v -0.6 c -0.32,0.32 -0.7,0.58 -1.16,0.58 -0.72,0 -0.76,-0.94 -0.76,-1.78 v -5.66 h 1.92 v -0.84 h -1.92 v -3 h -0.94 c 0,1.6 -0.92,3.1 -2.38,3.1 v 0.74 h 1.76 v 5.66 c 0,1.32 0.42,2.7 1.56,2.7 0.74,0 1.38,-0.4 1.92,-0.9 z"
             style="font-size:20px;line-height:1.25"
             id="path297" />
          <path
             d="m 683.7025,315.64066 c 0,-3.06 -1.36,-4.7 -3.86,-4.7 -2.52,0 -3.88,1.64 -3.88,4.7 0,3.06 1.36,4.7 3.88,4.7 2.5,0 3.86,-1.64 3.86,-4.7 z m -1.76,0 c 0,2.5 -0.74,3.86 -2.1,3.86 -1.38,0 -2.12,-1.36 -2.12,-3.86 0,-2.5 0.74,-3.86 2.12,-3.86 1.36,0 2.1,1.36 2.1,3.86 z"
             style="font-size:20px;line-height:1.25"
             id="path299" />
          <path
             d="m 690.06249,319.44066 v -0.6 c -0.38,0.32 -0.82,0.58 -1.32,0.58 -0.74,0 -0.88,-0.92 -0.88,-1.78 v -6.5 h -1.56 v 6.5 c 0,1.34 0.52,2.7 1.7,2.7 0.76,0 1.48,-0.38 2.06,-0.9 z m -2,-11.42 c 0,-0.54 -0.44,-0.98 -0.98,-0.98 -0.54,0 -0.98,0.44 -0.98,0.98 0,0.54 0.44,0.98 0.98,0.98 0.54,0 0.98,-0.44 0.98,-0.98 z"
             style="font-size:20px;line-height:1.25"
             id="path301" />
          <path
             d="m 697.04247,312.38066 v -1.24 c -0.22,-0.08 -0.46,-0.14 -0.68,-0.14 -1.12,0 -2.02,0.78 -2.74,1.64 v -1.5 h -1.56 v 9 h 1.56 v -6.66 c 0.6,-0.7 1.36,-1.3 2.28,-1.3 0.38,0 0.78,0.08 1.14,0.2 z"
             style="font-size:20px;line-height:1.25"
             id="path303" />
          <path
             d="m 706.28245,315.84066 v -0.2 c 0,-2.82 -1.54,-4.7 -3.86,-4.7 -2.34,0 -3.88,1.88 -3.88,4.7 0,2.82 1.54,4.7 3.88,4.7 1,0 1.98,-0.32 2.8,-0.9 v -0.84 c -0.94,0.6 -1.7,0.82 -2.8,0.82 -1.7,0 -2.12,-1.62 -2.12,-3.58 z m -1.76,-0.84 h -4.22 c 0,-1.6 0.68,-3.22 2.12,-3.22 1.42,0 2.1,1.62 2.1,3.22 z"
             style="font-size:20px;line-height:1.25"
             id="path305" />
        </g>
      </g>
      <g
         aria-label="D1"
         id="text54613"
         style="line-height:0%;font-family:Iwona;-inkscape-font-specification:Iwona;text-align:end;letter-spacing:0px;word-spacing:0px;text-anchor:end">
        <path
           d="m 7873.0924,-7418.8986 c 0,-3.852 -2.106,-6.48 -5.814,-6.48 -1.116,0 -2.232,0.054 -3.33,0.18 h -1.44 v 12.6 h 1.44 c 1.098,0.126 2.214,0.18 3.33,0.18 3.708,0 5.814,-2.628 5.814,-6.48 z m -1.764,0 c 0,2.862 -1.458,5.652 -4.05,5.652 -1.098,0 -2.196,-0.054 -3.294,-0.18 v -10.944 c 1.098,-0.126 2.196,-0.18 3.294,-0.18 2.592,0 4.05,2.79 4.05,5.652 z"
           style="font-size:18px;line-height:1.25"
           id="path308" />
        <path
           d="m 7878.0334,-7408.9986 v -8.0731 h -0.6786 c -0.6435,0.7371 -1.404,1.3689 -2.2464,1.8603 v 0.4914 c 0.7137,-0.3393 1.3806,-0.7371 2.0124,-1.2168 v 6.9382 z"
           style="font-size:65.0009%;baseline-shift:sub"
           id="path310" />
      </g>
      <g
         aria-label="CLK"
         id="text54619"
         style="line-height:0%;font-family:Iwona;-inkscape-font-specification:Iwona;text-align:end;letter-spacing:0px;word-spacing:0px;text-anchor:end">
        <path
           d="m 7857.851,-7347.765 v -0.972 c -0.972,-1.404 -2.574,-2.232 -4.266,-2.232 -3.654,0 -5.634,2.664 -5.634,6.48 0,3.816 1.98,6.48 5.634,6.48 1.404,0 2.79,-0.414 3.978,-1.188 v -0.828 c -1.188,0.774 -2.574,1.188 -3.978,1.188 -2.826,0 -3.87,-2.502 -3.87,-5.652 0,-3.15 1.044,-5.652 3.87,-5.652 1.728,0 3.348,0.9 4.266,2.376 z"
           style="font-size:18px;line-height:1.25"
           id="path313" />
        <path
           d="m 7867.391,-7338.189 v -0.828 h -5.724 v -11.772 h -1.476 v 12.6 z"
           style="font-size:18px;line-height:1.25"
           id="path315" />
        <path
           d="m 7880.1349,-7338.189 -7.974,-7.128 7.542,-5.472 h -1.422 l -7.254,5.274 v -5.274 h -1.476 v 12.6 h 1.476 v -6.156 l 6.894,6.156 z"
           style="font-size:18px;line-height:1.25"
           id="path317" />
      </g>
      <g
         aria-label="Q1"
         id="text54625"
         style="line-height:0%;font-family:Iwona;-inkscape-font-specification:Iwona;text-align:center;letter-spacing:0px;word-spacing:0px;text-anchor:middle">
        <path
           d="m 8028.7471,-7418.9553 c 0,-3.816 -1.98,-6.48 -5.616,-6.48 -3.654,0 -5.634,2.664 -5.634,6.48 0,3.816 1.98,6.48 5.634,6.48 0.126,1.458 1.332,2.574 2.808,2.574 0.918,0 1.17,-0.054 2.016,-0.432 v -0.54 c -0.414,0.234 -0.864,0.36 -1.35,0.36 -1.638,0 -2.286,-0.576 -2.304,-2.07 2.88,-0.504 4.446,-2.988 4.446,-6.372 z m -1.764,0 c 0,3.15 -1.044,5.652 -3.852,5.652 -2.826,0 -3.87,-2.502 -3.87,-5.652 0,-3.15 1.044,-5.652 3.87,-5.652 2.808,0 3.852,2.502 3.852,5.652 z"
           style="font-size:18px;line-height:1.25"
           id="path320" />
        <path
           d="m 8033.6881,-7409.0553 v -8.0731 h -0.6786 c -0.6435,0.7371 -1.404,1.3689 -2.2464,1.8603 v 0.4914 c 0.7137,-0.3393 1.3806,-0.7371 2.0124,-1.2168 v 6.9382 z"
           style="font-size:65.0009%;baseline-shift:sub"
           id="path322" />
      </g>
      <g
         aria-label="D2"
         id="text54631"
         style="line-height:0%;font-family:Iwona;-inkscape-font-specification:Iwona;text-align:end;letter-spacing:0px;word-spacing:0px;text-anchor:end">
        <path
           d="m 8103.4073,-7521.6545 c 0,-3.852 -2.106,-6.48 -5.814,-6.48 -1.116,0 -2.232,0.054 -3.33,0.18 h -1.44 v 12.6 h 1.44 c 1.098,0.126 2.214,0.18 3.33,0.18 3.708,0 5.814,-2.628 5.814,-6.48 z m -1.764,0 c 0,2.862 -1.458,5.652 -4.05,5.652 -1.098,0 -2.196,-0.054 -3.294,-0.18 v -10.944 c 1.098,-0.126 2.196,-0.18 3.294,-0.18 2.592,0 4.05,2.79 4.05,5.652 z"
           style="font-size:18px;line-height:1.25"
           id="path325" />
        <path
           d="m 8110.0449,-7511.7545 v -0.7254 h -4.1302 l 2.1529,-2.1294 c 0.9594,-0.9594 1.8603,-2.0827 1.8603,-3.4399 0,-1.1466 -1.1349,-1.8954 -2.3635,-1.8954 -0.9243,0 -1.8018,0.4212 -2.3751,1.1349 v 0.4914 c 0.5967,-0.6903 1.4625,-1.0881 2.3751,-1.0881 0.784,0 1.4509,0.585 1.4509,1.3572 0,1.1583 -0.5382,2.2348 -1.3339,3.0655 l -2.6091,2.6793 v 0.5499 z"
           style="font-size:65.0009%;baseline-shift:sub"
           id="path327" />
      </g>
      <g
         aria-label="Q2"
         id="text54637"
         style="line-height:0%;font-family:Iwona;-inkscape-font-specification:Iwona;letter-spacing:0px;word-spacing:0px">
        <path
           d="m 8300.1249,-7521.6545 c 0,-3.816 -1.98,-6.48 -5.616,-6.48 -3.654,0 -5.634,2.664 -5.634,6.48 0,3.816 1.98,6.48 5.634,6.48 0.126,1.458 1.332,2.574 2.808,2.574 0.918,0 1.17,-0.054 2.016,-0.432 v -0.54 c -0.414,0.234 -0.864,0.36 -1.35,0.36 -1.638,0 -2.286,-0.576 -2.304,-2.07 2.88,-0.504 4.446,-2.988 4.446,-6.372 z m -1.764,0 c 0,3.15 -1.044,5.652 -3.852,5.652 -2.826,0 -3.87,-2.502 -3.87,-5.652 0,-3.15 1.044,-5.652 3.87,-5.652 2.808,0 3.852,2.502 3.852,5.652 z"
           style="font-size:18px;line-height:1.25"
           id="path330" />
        <path
           d="m 8306.7625,-7511.7545 v -0.7254 h -4.1302 l 2.1529,-2.1294 c 0.9594,-0.9594 1.8603,-2.0827 1.8603,-3.4399 0,-1.1466 -1.1349,-1.8954 -2.3635,-1.8954 -0.9243,0 -1.8018,0.4212 -2.3751,1.1349 v 0.4914 c 0.5967,-0.6903 1.4625,-1.0881 2.3751,-1.0881 0.784,0 1.4509,0.585 1.4509,1.3572 0,1.1583 -0.5382,2.2348 -1.3339,3.0655 l -2.6091,2.6793 v 0.5499 z"
           style="font-size:65.0009%;baseline-shift:sub"
           id="path332" />
      </g>
      <g
         aria-label="E2"
         id="text55199"
         style="line-height:0%;font-family:Iwona;-inkscape-font-specification:Iwona;text-align:end;letter-spacing:0px;word-spacing:0px;text-anchor:end">
        <path
           d="m 8102.0601,-7479.9629 v -0.828 h -7.524 v -5.058 h 5.724 v -0.828 h -5.724 v -5.058 h 7.092 v -0.828 h -8.568 v 12.6 z"
           style="font-size:18px;line-height:1.25"
           id="path335" />
        <path
           d="m 8108.6977,-7476.3629 v -0.7254 h -4.1301 l 2.1528,-2.1294 c 0.9594,-0.9594 1.8603,-2.0827 1.8603,-3.4399 0,-1.1466 -1.1349,-1.8954 -2.3634,-1.8954 -0.9243,0 -1.8018,0.4212 -2.3752,1.1349 v 0.4914 c 0.5968,-0.6903 1.4626,-1.0881 2.3752,-1.0881 0.7839,0 1.4508,0.585 1.4508,1.3572 0,1.1583 -0.5382,2.2348 -1.3338,3.0655 l -2.6092,2.6793 v 0.5499 z"
           style="font-size:65.0009%;baseline-shift:sub"
           id="path337" />
      </g>
      <path
         style="display:inline;fill:none;stroke:#000000;stroke-width:1;stroke-linecap:butt;stroke-linejoin:miter;stroke-miterlimit:4;stroke-dasharray:none;stroke-opacity:1;marker-start:url(#DotM);marker-end:url(#marker4433)"
         d="m 7901.5747,-7416.1418 v -81.4961 h 31.8898"
         id="path3547" />
    </g>
    <g
       aria-label="Horloge conditionnée"
       id="text1168"
       style="font-size:20px;line-height:1.25;font-family:Iwona;-inkscape-font-specification:Iwona;letter-spacing:0px;word-spacing:0px;fill:#ff0000;stroke-width:0.9375">
      <path
         d="m 198.5,516.96216 v -14 h -1.64 v 6.54 h -7.72 v -6.54 h -1.64 v 14 h 1.64 v -6.54 h 7.72 v 6.54 z"
         id="path340" />
      <path
         d="m 209.33996,512.46216 c 0,-3.06 -1.36,-4.7 -3.86,-4.7 -2.52,0 -3.88,1.64 -3.88,4.7 0,3.06 1.36,4.7 3.88,4.7 2.5,0 3.86,-1.64 3.86,-4.7 z m -1.76,0 c 0,2.5 -0.74,3.86 -2.1,3.86 -1.38,0 -2.12,-1.36 -2.12,-3.86 0,-2.5 0.74,-3.86 2.12,-3.86 1.36,0 2.1,1.36 2.1,3.86 z"
         id="path342" />
      <path
         d="m 217.01996,509.20216 v -1.24 c -0.22,-0.08 -0.46,-0.14 -0.68,-0.14 -1.12,0 -2.02,0.78 -2.74,1.64 v -1.5 h -1.56 v 9 h 1.56 v -6.66 c 0.6,-0.7 1.36,-1.3 2.28,-1.3 0.38,0 0.78,0.08 1.14,0.2 z"
         id="path344" />
      <path
         d="m 222.77994,516.26216 v -0.6 c -0.38,0.32 -0.82,0.58 -1.32,0.58 -0.74,0 -0.88,-0.92 -0.88,-1.78 v -11.5 h -1.56 v 11.5 c 0,1.34 0.52,2.7 1.7,2.7 0.76,0 1.48,-0.38 2.06,-0.9 z"
         id="path346" />
      <path
         d="m 232.0199,512.46216 c 0,-3.06 -1.36,-4.7 -3.86,-4.7 -2.52,0 -3.88,1.64 -3.88,4.7 0,3.06 1.36,4.7 3.88,4.7 2.5,0 3.86,-1.64 3.86,-4.7 z m -1.76,0 c 0,2.5 -0.74,3.86 -2.1,3.86 -1.38,0 -2.12,-1.36 -2.12,-3.86 0,-2.5 0.74,-3.86 2.12,-3.86 1.36,0 2.1,1.36 2.1,3.86 z"
         id="path348" />
      <path
         d="m 241.9599,518.16216 v -10.2 h -1.56 v 0.34 c -0.78,-0.34 -1.62,-0.54 -2.46,-0.54 -2.5,0 -3.72,2 -3.72,4.7 0,2.66 1,4.7 3.42,4.7 1.02,0 1.96,-0.46 2.76,-1.1 v 2.1 c 0,1.38 -0.76,2.68 -2,2.68 -1.02,0 -2.04,-0.2 -3,-0.54 v 0.62 c 1.12,0.52 2.36,0.84 3.6,0.84 1.76,0 2.96,-1.72 2.96,-3.6 z m -1.56,-2.94 c -0.6,0.6 -1.34,1.1 -2.2,1.1 -1.82,0 -2.22,-1.76 -2.22,-3.86 0,-1.88 0.58,-3.86 2.22,-3.86 0.76,0 1.52,0.2 2.2,0.54 z"
         id="path350" />
      <path
         d="m 252.39988,512.66216 v -0.2 c 0,-2.82 -1.54,-4.7 -3.86,-4.7 -2.34,0 -3.88,1.88 -3.88,4.7 0,2.82 1.54,4.7 3.88,4.7 1,0 1.98,-0.32 2.8,-0.9 v -0.84 c -0.94,0.6 -1.7,0.82 -2.8,0.82 -1.7,0 -2.12,-1.62 -2.12,-3.58 z m -1.76,-0.84 h -4.22 c 0,-1.6 0.68,-3.22 2.12,-3.22 1.42,0 2.1,1.62 2.1,3.22 z"
         id="path352" />
      <path
         d="m 268.13982,510.04216 v -0.84 c -0.64,-0.9 -1.68,-1.44 -2.8,-1.44 -2.5,0 -4.18,1.88 -4.18,4.7 0,2.82 1.68,4.7 4.18,4.7 1.04,0 2.02,-0.52 2.6,-1.38 v -0.84 c -0.68,1.02 -1.38,1.38 -2.6,1.38 -1.44,0 -2.42,-1.54 -2.42,-3.86 0,-2.32 0.98,-3.86 2.42,-3.86 1.24,0 2.08,0.44 2.8,1.44 z"
         id="path354" />
      <path
         d="m 277.4798,512.46216 c 0,-3.06 -1.36,-4.7 -3.86,-4.7 -2.52,0 -3.88,1.64 -3.88,4.7 0,3.06 1.36,4.7 3.88,4.7 2.5,0 3.86,-1.64 3.86,-4.7 z m -1.76,0 c 0,2.5 -0.74,3.86 -2.1,3.86 -1.38,0 -2.12,-1.36 -2.12,-3.86 0,-2.5 0.74,-3.86 2.12,-3.86 1.36,0 2.1,1.36 2.1,3.86 z"
         id="path356" />
      <path
         d="m 287.4198,516.96216 v -6.5 c 0,-1.46 -1.12,-2.7 -2.56,-2.7 -1.2,0 -2.26,0.68 -3.12,1.52 v -1.32 h -1.56 v 9 h 1.56 v -7.06 c 0.68,-0.68 1.52,-1.22 2.46,-1.22 0.94,0 1.66,0.82 1.66,1.78 v 6.5 z"
         id="path358" />
      <path
         d="m 297.75976,516.96216 v -14 h -1.56 v 5.34 c -0.78,-0.34 -1.62,-0.54 -2.46,-0.54 -2.5,0 -3.72,2 -3.72,4.7 0,2.66 1,4.7 3.42,4.7 1.02,0 1.96,-0.46 2.76,-1.1 v 0.9 z m -1.56,-1.74 c -0.6,0.6 -1.34,1.1 -2.2,1.1 -1.82,0 -2.22,-1.76 -2.22,-3.86 0,-1.88 0.58,-3.86 2.22,-3.86 0.76,0 1.52,0.2 2.2,0.54 z"
         id="path360" />
      <path
         d="m 304.61975,516.26216 v -0.6 c -0.38,0.32 -0.82,0.58 -1.32,0.58 -0.74,0 -0.88,-0.92 -0.88,-1.78 v -6.5 h -1.56 v 6.5 c 0,1.34 0.52,2.7 1.7,2.7 0.76,0 1.48,-0.38 2.06,-0.9 z m -2,-11.42 c 0,-0.54 -0.44,-0.98 -0.98,-0.98 -0.54,0 -0.98,0.44 -0.98,0.98 0,0.54 0.44,0.98 0.98,0.98 0.54,0 0.98,-0.44 0.98,-0.98 z"
         id="path362" />
      <path
         d="m 310.85973,516.26216 v -0.6 c -0.32,0.32 -0.7,0.58 -1.16,0.58 -0.72,0 -0.76,-0.94 -0.76,-1.78 v -5.66 h 1.92 v -0.84 h -1.92 v -3 h -0.94 c 0,1.6 -0.92,3.1 -2.38,3.1 v 0.74 h 1.76 v 5.66 c 0,1.32 0.42,2.7 1.56,2.7 0.74,0 1.38,-0.4 1.92,-0.9 z"
         id="path364" />
      <path
         d="m 316.7197,516.26216 v -0.6 c -0.38,0.32 -0.82,0.58 -1.32,0.58 -0.74,0 -0.88,-0.92 -0.88,-1.78 v -6.5 h -1.56 v 6.5 c 0,1.34 0.52,2.7 1.7,2.7 0.76,0 1.48,-0.38 2.06,-0.9 z m -2,-11.42 c 0,-0.54 -0.44,-0.98 -0.98,-0.98 -0.54,0 -0.98,0.44 -0.98,0.98 0,0.54 0.44,0.98 0.98,0.98 0.54,0 0.98,-0.44 0.98,-0.98 z"
         id="path366" />
      <path
         d="m 325.95969,512.46216 c 0,-3.06 -1.36,-4.7 -3.86,-4.7 -2.52,0 -3.88,1.64 -3.88,4.7 0,3.06 1.36,4.7 3.88,4.7 2.5,0 3.86,-1.64 3.86,-4.7 z m -1.76,0 c 0,2.5 -0.74,3.86 -2.1,3.86 -1.38,0 -2.12,-1.36 -2.12,-3.86 0,-2.5 0.74,-3.86 2.12,-3.86 1.36,0 2.1,1.36 2.1,3.86 z"
         id="path368" />
      <path
         d="m 335.89968,516.96216 v -6.5 c 0,-1.46 -1.12,-2.7 -2.56,-2.7 -1.2,0 -2.26,0.68 -3.12,1.52 v -1.32 h -1.56 v 9 h 1.56 v -7.06 c 0.68,-0.68 1.52,-1.22 2.46,-1.22 0.94,0 1.66,0.82 1.66,1.78 v 6.5 z"
         id="path370" />
      <path
         d="m 346.23964,516.96216 v -6.5 c 0,-1.46 -1.12,-2.7 -2.56,-2.7 -1.2,0 -2.26,0.68 -3.12,1.52 v -1.32 h -1.56 v 9 h 1.56 v -7.06 c 0.68,-0.68 1.52,-1.22 2.46,-1.22 0.94,0 1.66,0.82 1.66,1.78 v 6.5 z"
         id="path372" />
      <path
         d="m 356.57961,512.66216 v -0.2 c 0,-2.82 -1.54,-4.7 -3.86,-4.7 -2.34,0 -3.88,1.88 -3.88,4.7 0,2.82 1.54,4.7 3.88,4.7 1,0 1.98,-0.32 2.8,-0.9 v -0.84 c -0.94,0.6 -1.7,0.82 -2.8,0.82 -1.7,0 -2.12,-1.62 -2.12,-3.58 z m -1.76,-0.84 h -4.22 c 0,-1.6 0.68,-3.22 2.12,-3.22 1.42,0 2.1,1.62 2.1,3.22 z m 0.06,-8.86 h -1.8 c 0,1.34 -0.42,2.66 -1.2,3.74 h 0.84 c 1.06,-1.06 2.16,-2.24 2.16,-3.74 z"
         id="path374" />
      <path
         d="m 366.41959,512.66216 v -0.2 c 0,-2.82 -1.54,-4.7 -3.86,-4.7 -2.34,0 -3.88,1.88 -3.88,4.7 0,2.82 1.54,4.7 3.88,4.7 1,0 1.98,-0.32 2.8,-0.9 v -0.84 c -0.94,0.6 -1.7,0.82 -2.8,0.82 -1.7,0 -2.12,-1.62 -2.12,-3.58 z m -1.76,-0.84 h -4.22 c 0,-1.6 0.68,-3.22 2.12,-3.22 1.42,0 2.1,1.62 2.1,3.22 z"
         id="path376" />
    </g>
    <g
       transform="translate(-8030.5818,8154.285)"
       id="g1162"
       style="display:inline;stroke:none">
      <path
         id="path1152"
         d="m 8189.6425,-7635.2563 c 0.4023,-1.444 0.9282,-2.8516 1.673,-4.1572 1.7617,-3.2972 4.2349,-6.2043 7.1165,-8.5752 2.9443,-2.262 6.1641,-4.2876 9.7413,-5.3673 0.3384,-0.039 2.0411,-0.6577 1.3859,-0.1885 -0.6135,0.4649 -1.227,0.9299 -1.8405,1.3948 -1.903,0.3802 -3.7437,1.059 -5.4357,2.0091 0.35,-0.2287 1.986,-1.1747 0.9409,-0.5234 -3.7404,2.3732 -6.9037,5.658 -9.1317,9.4861 -0.8575,1.5002 -1.643,3.0677 -2.0118,4.7677 -0.8126,0.3846 -1.6253,0.7693 -2.4379,1.1539 z"
         style="fill:#ff0000;fill-opacity:1;stroke:none;stroke-width:1.00031;stroke-linecap:butt;stroke-linejoin:miter;stroke-miterlimit:4;stroke-dasharray:none;stroke-dashoffset:0;stroke-opacity:1" />
      <path
         id="path1154"
         d="m 8191.741,-7652.5217 c 1.8133,2.7472 4.4024,4.8453 6.7767,7.0833 2.4427,2.1762 4.7951,4.4503 7.1108,6.7596 0.2167,0.2644 -0.5542,0.4415 -0.7702,0.6676 -0.4577,0.2828 -0.9155,0.5657 -1.3732,0.8485 -2.871,-2.9143 -5.7607,-5.814 -8.8408,-8.5101 -1.8654,-1.6944 -3.771,-3.3873 -5.2173,-5.4702 0.7713,-0.4596 1.5427,-0.9191 2.314,-1.3787 z"
         style="fill:#ff0000;fill-opacity:1;stroke:none;stroke-width:1.00031;stroke-linecap:butt;stroke-linejoin:miter;stroke-miterlimit:4;stroke-dasharray:none;stroke-dashoffset:0;stroke-opacity:1" />
    </g>
    <path
       style="display:inline;fill:#00aa00;fill-opacity:1;stroke:none;stroke-width:1.00031;stroke-linecap:butt;stroke-linejoin:miter;stroke-miterlimit:4;stroke-dasharray:none;stroke-dashoffset:0;stroke-opacity:1"
       id="path1164"
       d="m 158.31603,710.05287 c 0.6853,0.2579 1.2808,0.7031 1.8777,1.1186 0.6039,0.4255 1.2179,0.8391 1.7687,1.3333 0.5561,0.5257 1.0534,1.1033 1.5307,1.6998 0.4716,0.6356 0.9694,1.2556 1.3632,1.9439 0.014,0.026 0.1009,0.3273 0.2465,0.2544 0.049,-0.025 0.1504,-0.1526 0.1014,-0.1285 -0.7094,0.3487 -1.3693,0.7985 -2.0963,1.109 -0.1378,0.059 0.1994,-0.224 0.2948,-0.3396 0.114,-0.1382 0.2223,-0.2811 0.3334,-0.4216 1.3595,-1.8085 2.8256,-3.5315 4.3356,-5.2149 2.0344,-2.3619 4.2792,-4.5215 6.5644,-6.6362 1.5771,-1.4241 3.2197,-2.7724 4.819,-4.1711 0,0 2.435,-0.987 2.435,-0.987 v 0 c -1.6585,1.3993 -3.3326,2.7811 -4.959,4.2178 -2.2833,2.1168 -4.5561,4.2492 -6.584,6.6187 -1.4622,1.6516 -2.8879,3.339 -4.1801,5.1285 -1.0041,1.3456 -0.7925,1.0537 -3.1121,2.3426 -0.2285,0.1269 -0.474,-0.3023 -0.5268,-0.4331 -0.3681,-0.6852 -0.8502,-1.2985 -1.3172,-1.9181 -0.4725,-0.5843 -0.981,-1.1344 -1.5282,-1.6501 -0.5415,-0.4832 -1.1411,-0.8957 -1.7316,-1.3159 -0.5879,-0.3967 -1.1752,-0.8334 -1.87,-1.0199 0,0 2.2349,-1.5306 2.2349,-1.5306 z" />
    <g
       aria-label="Mise à jour synchrone"
       id="text1212"
       style="font-size:20px;line-height:1.25;font-family:Iwona;-inkscape-font-specification:Iwona;letter-spacing:0px;word-spacing:0px;fill:#00aa00;stroke-width:0.9375">
      <path
         d="m 202.2,716.92444 -0.8,-14 h -1.32 l -5.62,11.82 -5.64,-11.82 h -1.32 l -0.8,14 h 0.92 l 0.64,-11.34 5.42,11.34 h 0.74 l 5.48,-11.48 0.66,11.48 z"
         id="path379" />
      <path
         d="m 208.65997,716.22444 v -0.6 c -0.38,0.32 -0.82,0.58 -1.32,0.58 -0.74,0 -0.88,-0.92 -0.88,-1.78 v -6.5 h -1.56 v 6.5 c 0,1.34 0.52,2.7 1.7,2.7 0.76,0 1.48,-0.38 2.06,-0.9 z m -2,-11.42 c 0,-0.54 -0.44,-0.98 -0.98,-0.98 -0.54,0 -0.98,0.44 -0.98,0.98 0,0.54 0.44,0.98 0.98,0.98 0.54,0 0.98,-0.44 0.98,-0.98 z"
         id="path381" />
      <path
         d="m 216.73995,714.36444 c 0,-1.58 -1.68,-2.4 -3.32,-2.8 -0.96,-0.24 -2,-0.64 -2,-1.58 0,-0.86 0.88,-1.42 1.84,-1.42 1.06,0 2.12,0.32 3,0.9 v -0.84 c -0.88,-0.58 -1.94,-0.9 -3,-0.9 -1.74,0 -3.34,1.06 -3.34,2.68 0,1.46 1.62,2.14 3.16,2.52 1.06,0.26 2.16,0.82 2.16,1.84 0,0.94 -0.96,1.52 -1.98,1.52 -1.24,0 -2.44,-0.3 -3.5,-0.9 v 0.84 c 1.06,0.6 2.26,0.9 3.5,0.9 1.8,0 3.48,-1.08 3.48,-2.76 z"
         id="path383" />
      <path
         d="m 226.47993,712.62444 v -0.2 c 0,-2.82 -1.54,-4.7 -3.86,-4.7 -2.34,0 -3.88,1.88 -3.88,4.7 0,2.82 1.54,4.7 3.88,4.7 1,0 1.98,-0.32 2.8,-0.9 v -0.84 c -0.94,0.6 -1.7,0.82 -2.8,0.82 -1.7,0 -2.12,-1.62 -2.12,-3.58 z m -1.76,-0.84 h -4.22 c 0,-1.6 0.68,-3.22 2.12,-3.22 1.42,0 2.1,1.62 2.1,3.22 z"
         id="path385" />
      <path
         d="m 242.77987,716.92444 v -5.6 c 0,-1.88 -1.16,-3.6 -2.9,-3.6 -1.28,0 -2.48,0.44 -3.56,1.12 v 0.62 c 0.9,-0.5 1.9,-0.82 2.94,-0.82 1.24,0 1.96,1.32 1.96,2.68 v 0.36 c -0.78,-0.34 -1.62,-0.54 -2.46,-0.54 -2.14,0 -3.72,0.98 -3.72,3 0,1.92 1.4,2.98 3.42,2.98 1.02,0 1.96,-0.46 2.76,-1.1 v 0.9 z m -1.56,-1.74 c -0.6,0.6 -1.34,1.1 -2.2,1.1 -1.34,0 -2.22,-0.82 -2.22,-2.14 0,-1.22 1,-2.16 2.22,-2.16 0.76,0 1.52,0.2 2.2,0.54 z m -1.12,-8.52 c -0.78,-1.08 -1.2,-2.4 -1.2,-3.74 h -1.8 c 0,1.5 1.1,2.68 2.16,3.74 z"
         id="path387" />
      <path
         d="m 254.19982,719.02444 v -11.1 h -1.56 v 11.1 c 0,0.84 -0.08,1.78 -0.8,1.78 -0.44,0 -0.84,-0.24 -1.18,-0.54 v 0.62 c 0.56,0.48 1.22,0.84 1.94,0.84 1.16,0 1.6,-1.38 1.6,-2.7 z m 0.2,-14.22 c 0,-0.54 -0.44,-0.98 -0.98,-0.98 -0.54,0 -0.98,0.44 -0.98,0.98 0,0.54 0.44,0.98 0.98,0.98 0.54,0 0.98,-0.44 0.98,-0.98 z"
         id="path389" />
      <path
         d="m 264.6398,712.42444 c 0,-3.06 -1.36,-4.7 -3.86,-4.7 -2.52,0 -3.88,1.64 -3.88,4.7 0,3.06 1.36,4.7 3.88,4.7 2.5,0 3.86,-1.64 3.86,-4.7 z m -1.76,0 c 0,2.5 -0.74,3.86 -2.1,3.86 -1.38,0 -2.12,-1.36 -2.12,-3.86 0,-2.5 0.74,-3.86 2.12,-3.86 1.36,0 2.1,1.36 2.1,3.86 z"
         id="path391" />
      <path
         d="m 274.47979,716.92444 v -9 h -1.56 v 7.06 c -0.68,0.68 -1.52,1.22 -2.46,1.22 -0.94,0 -1.66,-0.82 -1.66,-1.78 v -6.5 h -1.56 v 6.5 c 0,1.46 1.12,2.7 2.56,2.7 1.2,0 2.26,-0.68 3.12,-1.52 v 1.32 z"
         id="path393" />
      <path
         d="m 282.65976,709.16444 v -1.24 c -0.22,-0.08 -0.46,-0.14 -0.68,-0.14 -1.12,0 -2.02,0.78 -2.74,1.64 v -1.5 h -1.56 v 9 h 1.56 v -6.66 c 0.6,-0.7 1.36,-1.3 2.28,-1.3 0.38,0 0.78,0.08 1.14,0.2 z"
         id="path395" />
      <path
         d="m 297.3997,714.36444 c 0,-1.58 -1.68,-2.4 -3.32,-2.8 -0.96,-0.24 -2,-0.64 -2,-1.58 0,-0.86 0.88,-1.42 1.84,-1.42 1.06,0 2.12,0.32 3,0.9 v -0.84 c -0.88,-0.58 -1.94,-0.9 -3,-0.9 -1.74,0 -3.34,1.06 -3.34,2.68 0,1.46 1.62,2.14 3.16,2.52 1.06,0.26 2.16,0.82 2.16,1.84 0,0.94 -0.96,1.52 -1.98,1.52 -1.24,0 -2.44,-0.3 -3.5,-0.9 v 0.84 c 1.06,0.6 2.26,0.9 3.5,0.9 1.8,0 3.48,-1.08 3.48,-2.76 z"
         id="path397" />
      <path
         d="m 307.03968,718.12444 v -10.2 h -1.56 v 7.06 c -0.68,0.68 -1.52,1.22 -2.46,1.22 -0.94,0 -1.66,-0.82 -1.66,-1.78 v -6.5 h -1.56 v 6.5 c 0,1.46 1.12,2.7 2.56,2.7 1.2,0 2.26,-0.68 3.12,-1.52 v 2.52 c 0,1.34 -0.6,2.68 -1.8,2.68 -0.94,0 -1.84,-0.2 -2.7,-0.54 v 0.62 c 1.02,0.52 2.16,0.84 3.32,0.84 1.7,0 2.74,-1.76 2.74,-3.6 z"
         id="path399" />
      <path
         d="m 317.47965,716.92444 v -6.5 c 0,-1.46 -1.12,-2.7 -2.56,-2.7 -1.2,0 -2.26,0.68 -3.12,1.52 v -1.32 h -1.56 v 9 h 1.56 v -7.06 c 0.68,-0.68 1.52,-1.22 2.46,-1.22 0.94,0 1.66,0.82 1.66,1.78 v 6.5 z"
         id="path401" />
      <path
         d="m 327.05961,710.00444 v -0.84 c -0.64,-0.9 -1.68,-1.44 -2.8,-1.44 -2.5,0 -4.18,1.88 -4.18,4.7 0,2.82 1.68,4.7 4.18,4.7 1.04,0 2.02,-0.52 2.6,-1.38 v -0.84 c -0.68,1.02 -1.38,1.38 -2.6,1.38 -1.44,0 -2.42,-1.54 -2.42,-3.86 0,-2.32 0.98,-3.86 2.42,-3.86 1.24,0 2.08,0.44 2.8,1.44 z"
         id="path403" />
      <path
         d="m 336.3996,716.92444 v -6.5 c 0,-1.46 -1.12,-2.7 -2.56,-2.7 -1.2,0 -2.26,0.68 -3.12,1.52 v -6.32 h -1.56 v 14 h 1.56 v -7.06 c 0.68,-0.68 1.52,-1.22 2.46,-1.22 0.94,0 1.66,0.82 1.66,1.78 v 6.5 z"
         id="path405" />
      <path
         d="m 344.47957,709.16444 v -1.24 c -0.22,-0.08 -0.46,-0.14 -0.68,-0.14 -1.12,0 -2.02,0.78 -2.74,1.64 v -1.5 h -1.56 v 9 h 1.56 v -6.66 c 0.6,-0.7 1.36,-1.3 2.28,-1.3 0.38,0 0.78,0.08 1.14,0.2 z"
         id="path407" />
      <path
         d="m 353.71955,712.42444 c 0,-3.06 -1.36,-4.7 -3.86,-4.7 -2.52,0 -3.88,1.64 -3.88,4.7 0,3.06 1.36,4.7 3.88,4.7 2.5,0 3.86,-1.64 3.86,-4.7 z m -1.76,0 c 0,2.5 -0.74,3.86 -2.1,3.86 -1.38,0 -2.12,-1.36 -2.12,-3.86 0,-2.5 0.74,-3.86 2.12,-3.86 1.36,0 2.1,1.36 2.1,3.86 z"
         id="path409" />
      <path
         d="m 363.65953,716.92444 v -6.5 c 0,-1.46 -1.12,-2.7 -2.56,-2.7 -1.2,0 -2.26,0.68 -3.12,1.52 v -1.32 h -1.56 v 9 h 1.56 v -7.06 c 0.68,-0.68 1.52,-1.22 2.46,-1.22 0.94,0 1.66,0.82 1.66,1.78 v 6.5 z"
         id="path411" />
      <path
         d="m 373.9995,712.62444 v -0.2 c 0,-2.82 -1.54,-4.7 -3.86,-4.7 -2.34,0 -3.88,1.88 -3.88,4.7 0,2.82 1.54,4.7 3.88,4.7 1,0 1.98,-0.32 2.8,-0.9 v -0.84 c -0.94,0.6 -1.7,0.82 -2.8,0.82 -1.7,0 -2.12,-1.62 -2.12,-3.58 z m -1.76,-0.84 h -4.22 c 0,-1.6 0.68,-3.22 2.12,-3.22 1.42,0 2.1,1.62 2.1,3.22 z"
         id="path413" />
    </g>
  </g>
</svg>
