<?xml version="1.0" encoding="UTF-8" standalone="no"?>
<!-- Created with Inkscape (http://www.inkscape.org/) -->

<svg
   width="144.55573mm"
   height="84.699997mm"
   id="svg5965"
   version="1.0"
   viewBox="0 0 512.20535 300.11813"
   xmlns="http://www.w3.org/2000/svg"
   xmlns:svg="http://www.w3.org/2000/svg"
   xmlns:rdf="http://www.w3.org/1999/02/22-rdf-syntax-ns#"
   xmlns:cc="http://creativecommons.org/ns#"
   xmlns:dc="http://purl.org/dc/elements/1.1/">
  <defs
     id="defs3">
    <marker
       orient="auto"
       refY="0"
       refX="0"
       id="Arrow2Send3"
       style="overflow:visible">
      <path
         id="path5010"
         style="font-size:12px;fill:#ff2a2a;fill-rule:evenodd;stroke:#ff2a2a;stroke-width:0.625;stroke-linejoin:round"
         d="M 8.7185878,4.0337352 -2.2072895,0.01601326 8.7185884,-4.0017078 c -1.7454984,2.3720609 -1.7354408,5.6174519 -6e-7,8.035443 z"
         transform="matrix(-0.3,0,0,-0.3,0.69,0)" />
    </marker>
    <marker
       orient="auto"
       refY="0"
       refX="0"
       id="Arrow1MendB"
       style="overflow:visible">
      <path
         id="path6293"
         d="M 0,0 5,-5 -12.5,0 5,5 Z"
         style="fill:#ff2a2a;fill-rule:evenodd;stroke:#ff2a2a;stroke-width:1.00000003pt;marker-start:none"
         transform="matrix(-0.4,0,0,-0.4,-4,0)" />
    </marker>
  </defs>
  <metadata
     id="metadata4">
    <rdf:RDF>
      <cc:Work
         rdf:about="">
        <dc:format>image/svg+xml</dc:format>
        <dc:type
           rdf:resource="http://purl.org/dc/dcmitype/StillImage" />
        <dc:title />
      </cc:Work>
    </rdf:RDF>
  </metadata>
  <g
     id="layer1"
     transform="translate(-98.712985,-35.433052)">
    <path
       style="fill:none;fill-rule:evenodd;stroke:#000000;stroke-width:2.48031;stroke-linecap:butt;stroke-linejoin:miter;stroke-miterlimit:4;stroke-dasharray:none;stroke-opacity:1"
       d="M 141.23267,220.92518 V 327.22439 H 566.42952 V 114.62596"
       id="path5977" />
    <path
       style="fill:none;fill-rule:evenodd;stroke:#000000;stroke-width:2.48031;stroke-linecap:butt;stroke-linejoin:miter;stroke-miterlimit:4;stroke-dasharray:none;stroke-opacity:1"
       d="m 353.8311,150.05904 v 35.43307 H 141.23267 V 43.759824 h 425.19685 v 35.433071"
       id="path6488" />
    <path
       style="fill:none;fill-rule:evenodd;stroke:#000000;stroke-width:2.48031;stroke-linecap:butt;stroke-linejoin:miter;stroke-miterlimit:4;stroke-dasharray:none;stroke-opacity:1"
       d="M 318.39803,185.49211 V 114.62596 H 176.66574 v 35.43308"
       id="path6490" />
    <path
       style="fill:none;fill-rule:evenodd;stroke:#000000;stroke-width:2.48031;stroke-linecap:butt;stroke-linejoin:miter;stroke-miterlimit:4;stroke-dasharray:none;stroke-opacity:1"
       d="m 212.09882,185.49211 v -35.43307 h 70.86614"
       id="path6492" />
    <path
       style="fill:none;fill-rule:evenodd;stroke:#000000;stroke-width:2.48031;stroke-linecap:butt;stroke-linejoin:miter;stroke-miterlimit:4;stroke-dasharray:none;stroke-opacity:1"
       d="M 176.66574,79.192895 H 389.26417 V 185.49211 h 35.43307 v -70.86615 h 70.86614"
       id="path6494" />
    <path
       style="fill:none;fill-rule:evenodd;stroke:#000000;stroke-width:2.48031;stroke-linecap:butt;stroke-linejoin:miter;stroke-miterlimit:4;stroke-dasharray:none;stroke-opacity:1"
       d="m 389.26417,79.192895 h 35.43307"
       id="path6498" />
    <path
       style="fill:none;fill-rule:evenodd;stroke:#000000;stroke-width:2.48031;stroke-linecap:butt;stroke-linejoin:miter;stroke-miterlimit:4;stroke-dasharray:none;stroke-opacity:1"
       d="M 460.13031,114.62596 V 291.79132"
       id="path6500" />
    <path
       style="fill:none;fill-rule:evenodd;stroke:#000000;stroke-width:2.48031;stroke-linecap:butt;stroke-linejoin:miter;stroke-miterlimit:4;stroke-dasharray:none;stroke-opacity:1"
       d="M 460.13031,79.192895 V 114.62596"
       id="path6502" />
    <path
       style="fill:none;fill-rule:evenodd;stroke:#000000;stroke-width:2.48031;stroke-linecap:butt;stroke-linejoin:miter;stroke-miterlimit:4;stroke-dasharray:none;stroke-opacity:1"
       d="m 495.56338,43.759824 v 35.433071 h 35.43307 V 185.49211 h -35.43307 v 35.43307"
       id="path6504" />
    <path
       style="fill:none;fill-rule:evenodd;stroke:#000000;stroke-width:2.48031;stroke-linecap:butt;stroke-linejoin:miter;stroke-miterlimit:4;stroke-dasharray:none;stroke-opacity:1"
       d="m 566.42952,220.92518 h -35.43307 v 70.86614"
       id="path6506" />
    <path
       style="fill:none;fill-rule:evenodd;stroke:#000000;stroke-width:2.48031;stroke-linecap:butt;stroke-linejoin:miter;stroke-miterlimit:4;stroke-dasharray:none;stroke-opacity:1"
       d="M 530.99645,256.35825 H 460.13031"
       id="path6508" />
    <path
       style="fill:none;fill-rule:evenodd;stroke:#000000;stroke-width:2.48031;stroke-linecap:butt;stroke-linejoin:miter;stroke-miterlimit:4;stroke-dasharray:none;stroke-opacity:1"
       d="M 460.13031,256.35825 H 282.96496 v -35.43307 h 106.29921"
       id="path6510" />
    <path
       style="fill:none;fill-rule:evenodd;stroke:#000000;stroke-width:2.48031;stroke-linecap:butt;stroke-linejoin:miter;stroke-miterlimit:4;stroke-dasharray:none;stroke-opacity:1"
       d="m 424.69724,185.49211 v 35.43307"
       id="path6512" />
    <path
       style="fill:none;fill-rule:evenodd;stroke:#000000;stroke-width:2.48031;stroke-linecap:butt;stroke-linejoin:miter;stroke-miterlimit:4;stroke-dasharray:none;stroke-opacity:1"
       d="M 424.69724,327.22439 V 291.79132 H 247.53189 v -70.86614 h -70.86615"
       id="path6514" />
    <path
       style="fill:none;fill-rule:evenodd;stroke:#000000;stroke-width:2.48031;stroke-linecap:butt;stroke-linejoin:miter;stroke-miterlimit:4;stroke-dasharray:none;stroke-opacity:1"
       d="m 247.53189,256.35825 h -35.43307 v 35.43307 h -35.43308"
       id="path6516" />
    <path
       style="fill:none;fill-rule:evenodd;stroke:#000000;stroke-width:2.48031;stroke-linecap:butt;stroke-linejoin:miter;stroke-miterlimit:4;stroke-dasharray:none;stroke-opacity:1"
       d="m 141.23267,256.35825 h 35.43307"
       id="path6518" />
    <path
       style="fill:none;fill-rule:evenodd;stroke:#ff2a2a;stroke-width:0.999213;stroke-linecap:butt;stroke-linejoin:miter;stroke-miterlimit:4;stroke-dasharray:none;stroke-opacity:1;marker-end:url(#Arrow2Send3)"
       d="m 353.8311,192.57872 c 3.5433,0 7.08661,-3.5433 7.08661,-7.08661"
       id="path5067" />
    <path
       id="path5069"
       d="m 360.9177,150.05904 c 0,-3.5433 -3.5433,-7.08661 -7.08661,-7.08661"
       style="fill:none;fill-rule:evenodd;stroke:#ff2a2a;stroke-width:0.999213;stroke-linecap:butt;stroke-linejoin:miter;stroke-miterlimit:4;stroke-dasharray:none;stroke-opacity:1;marker-end:url(#Arrow2Send3)" />
    <path
       style="fill:none;fill-rule:evenodd;stroke:#ff2a2a;stroke-width:0.999213;stroke-linecap:butt;stroke-linejoin:miter;stroke-miterlimit:4;stroke-dasharray:none;stroke-opacity:1;marker-end:url(#Arrow2Send3)"
       d="m 353.83109,142.97243 c -3.5433,0 -7.08661,3.5433 -7.08661,7.08661"
       id="path5071" />
    <path
       id="path5073"
       d="m 346.74448,171.31888 c 0,3.5433 -3.5433,7.08661 -7.08661,7.08661"
       style="fill:none;fill-rule:evenodd;stroke:#ff2a2a;stroke-width:0.999213;stroke-linecap:butt;stroke-linejoin:miter;stroke-miterlimit:4;stroke-dasharray:none;stroke-opacity:1;marker-end:url(#Arrow2Send3)" />
    <path
       style="fill:none;fill-rule:evenodd;stroke:#ff2a2a;stroke-width:0.999213;stroke-linecap:butt;stroke-linejoin:miter;stroke-miterlimit:4;stroke-dasharray:none;stroke-opacity:1;marker-end:url(#Arrow2Send3)"
       d="m 332.57126,178.40549 c -3.5433,0 -7.08661,-3.5433 -7.08661,-7.08661"
       id="path5075" />
    <path
       style="fill:none;fill-rule:evenodd;stroke:#ff2a2a;stroke-width:0.999213;stroke-linecap:butt;stroke-linejoin:miter;stroke-miterlimit:4;stroke-dasharray:none;stroke-opacity:1;marker-end:url(#Arrow2Send3)"
       d="m 290.05157,150.05903 c 0,-3.5433 -3.5433,-7.08661 -7.08661,-7.08661"
       id="path5077" />
    <path
       id="path5079"
       d="m 212.09882,142.97242 c -3.5433,0 -7.08661,3.5433 -7.08661,7.08661"
       style="fill:none;fill-rule:evenodd;stroke:#ff2a2a;stroke-width:0.999213;stroke-linecap:butt;stroke-linejoin:miter;stroke-miterlimit:4;stroke-dasharray:none;stroke-opacity:1;marker-end:url(#Arrow2Send3)" />
    <path
       id="path5081"
       d="m 176.66575,157.14565 c 3.5433,0 7.08661,-3.5433 7.08661,-7.08661"
       style="fill:none;fill-rule:evenodd;stroke:#ff2a2a;stroke-width:0.999213;stroke-linecap:butt;stroke-linejoin:miter;stroke-miterlimit:4;stroke-dasharray:none;stroke-opacity:1;marker-end:url(#Arrow2Send3)" />
    <path
       style="fill:none;fill-rule:evenodd;stroke:#ff2a2a;stroke-width:0.999213;stroke-linecap:butt;stroke-linejoin:miter;stroke-miterlimit:4;stroke-dasharray:none;stroke-opacity:1;marker-end:url(#Arrow2Send3)"
       d="m 169.57913,150.05904 c 0,3.5433 3.5433,7.08661 7.08661,7.08661"
       id="path5083" />
    <path
       id="path5085"
       d="m 183.75236,128.79919 c 0,-3.5433 3.5433,-7.08661 7.08661,-7.08661"
       style="fill:none;fill-rule:evenodd;stroke:#ff2a2a;stroke-width:0.999213;stroke-linecap:butt;stroke-linejoin:miter;stroke-miterlimit:4;stroke-dasharray:none;stroke-opacity:1;marker-end:url(#Arrow2Send3)" />
    <path
       style="fill:none;fill-rule:evenodd;stroke:#ff2a2a;stroke-width:0.999213;stroke-linecap:butt;stroke-linejoin:miter;stroke-miterlimit:4;stroke-dasharray:none;stroke-opacity:1;marker-end:url(#Arrow2Send3)"
       d="m 304.2248,121.71258 c 3.5433,0 7.08661,3.5433 7.08661,7.08661"
       id="path5087" />
    <path
       style="fill:none;fill-rule:evenodd;stroke:#ff2a2a;stroke-width:0.999213;stroke-linecap:butt;stroke-linejoin:miter;stroke-miterlimit:4;stroke-dasharray:none;stroke-opacity:1;marker-end:url(#Arrow2Send3)"
       d="m 205.0122,171.31888 c 0,3.5433 -3.5433,7.08661 -7.08661,7.08661"
       id="path5089" />
    <path
       id="path5091"
       d="m 226.27204,178.40549 c -3.5433,0 -7.08661,-3.5433 -7.08661,-7.08661"
       style="fill:none;fill-rule:evenodd;stroke:#ff2a2a;stroke-width:0.999213;stroke-linecap:butt;stroke-linejoin:miter;stroke-miterlimit:4;stroke-dasharray:none;stroke-opacity:1;marker-end:url(#Arrow2Send3)" />
    <path
       style="fill:none;fill-rule:evenodd;stroke:#ff2a2a;stroke-width:0.999213;stroke-linecap:butt;stroke-linejoin:miter;stroke-miterlimit:4;stroke-dasharray:none;stroke-opacity:1;marker-end:url(#Arrow2Send3)"
       d="m 219.18543,164.23226 c 0,-3.5433 3.5433,-7.08661 7.08661,-7.08661"
       id="path5093" />
    <path
       id="path5095"
       d="m 282.96496,157.14565 c 3.5433,0 7.08661,-3.5433 7.08661,-7.08661"
       style="fill:none;fill-rule:evenodd;stroke:#ff2a2a;stroke-width:0.999213;stroke-linecap:butt;stroke-linejoin:miter;stroke-miterlimit:4;stroke-dasharray:none;stroke-opacity:1;marker-end:url(#Arrow2Send3)" />
    <path
       style="fill:none;fill-rule:evenodd;stroke:#ff2a2a;stroke-width:0.999213;stroke-linecap:butt;stroke-linejoin:miter;stroke-miterlimit:4;stroke-dasharray:none;stroke-opacity:1;marker-end:url(#Arrow2Send3)"
       d="m 282.96496,157.14565 c 3.5433,0 7.08661,-3.5433 7.08661,-7.08661"
       id="path5097" />
    <path
       id="path5099"
       d="m 290.05157,150.05903 c 0,-3.5433 -3.5433,-7.08661 -7.08661,-7.08661"
       style="fill:none;fill-rule:evenodd;stroke:#ff2a2a;stroke-width:0.999213;stroke-linecap:butt;stroke-linejoin:miter;stroke-miterlimit:4;stroke-dasharray:none;stroke-opacity:1;marker-end:url(#Arrow2Send3)" />
    <path
       style="fill:none;fill-rule:evenodd;stroke:#ff2a2a;stroke-width:0.999213;stroke-linecap:butt;stroke-linejoin:miter;stroke-miterlimit:4;stroke-dasharray:none;stroke-opacity:1;marker-end:url(#Arrow2Send3)"
       d="m 212.09882,142.97242 c -3.5433,0 -7.08661,3.5433 -7.08661,7.08661"
       id="path5101" />
    <path
       id="path5105"
       d="m 155.4059,178.40549 c -3.5433,0 -7.08661,-3.5433 -7.08661,-7.08661"
       style="fill:none;fill-rule:evenodd;stroke:#ff2a2a;stroke-width:0.999213;stroke-linecap:butt;stroke-linejoin:miter;stroke-miterlimit:4;stroke-dasharray:none;stroke-opacity:1;marker-end:url(#Arrow2Send3)" />
    <path
       style="fill:none;fill-rule:evenodd;stroke:#ff2a2a;stroke-width:0.999213;stroke-linecap:butt;stroke-linejoin:miter;stroke-miterlimit:4;stroke-dasharray:none;stroke-opacity:1;marker-end:url(#Arrow2Send3)"
       d="m 148.31929,57.933048 c 0,-3.5433 3.5433,-7.08661 7.08661,-7.08661"
       id="path5107" />
    <path
       id="path5109"
       d="m 481.39015,50.846438 c 3.5433,0 7.08661,3.5433 7.08661,7.08661"
       style="fill:none;fill-rule:evenodd;stroke:#ff2a2a;stroke-width:0.999213;stroke-linecap:butt;stroke-linejoin:miter;stroke-miterlimit:4;stroke-dasharray:none;stroke-opacity:1;marker-end:url(#Arrow2Send3)" />
    <path
       id="path5111"
       d="m 488.47677,79.192899 c 0,3.5433 3.5433,7.08661 7.08661,7.08661"
       style="fill:none;fill-rule:evenodd;stroke:#ff2a2a;stroke-width:0.999213;stroke-linecap:butt;stroke-linejoin:miter;stroke-miterlimit:4;stroke-dasharray:none;stroke-opacity:1;marker-end:url(#Arrow2Send3)" />
    <path
       style="fill:none;fill-rule:evenodd;stroke:#ff2a2a;stroke-width:0.999213;stroke-linecap:butt;stroke-linejoin:miter;stroke-miterlimit:4;stroke-dasharray:none;stroke-opacity:1;marker-end:url(#Arrow2Send3)"
       d="m 325.48464,114.62596 c 0,-3.5433 -3.5433,-7.08661 -7.08661,-7.08661"
       id="path5113" />
    <path
       id="path5115"
       d="m 176.66574,107.53935 c -3.5433,0 -7.08661,3.5433 -7.08661,7.08661"
       style="fill:none;fill-rule:evenodd;stroke:#ff2a2a;stroke-width:0.999213;stroke-linecap:butt;stroke-linejoin:miter;stroke-miterlimit:4;stroke-dasharray:none;stroke-opacity:1;marker-end:url(#Arrow2Send3)" />
    <path
       style="fill:none;fill-rule:evenodd;stroke:#ff2a2a;stroke-width:0.999213;stroke-linecap:butt;stroke-linejoin:miter;stroke-miterlimit:4;stroke-dasharray:none;stroke-opacity:1;marker-end:url(#Arrow2Send3)"
       d="m 311.31141,171.31888 c 0,3.5433 -3.5433,7.08661 -7.08661,7.08661"
       id="path5117" />
    <path
       id="path5119"
       d="m 516.82323,86.279513 c 3.5433,0 7.08661,3.5433 7.08661,7.08661"
       style="fill:none;fill-rule:evenodd;stroke:#ff2a2a;stroke-width:0.999213;stroke-linecap:butt;stroke-linejoin:miter;stroke-miterlimit:4;stroke-dasharray:none;stroke-opacity:1;marker-end:url(#Arrow2Send3)" />
    <path
       style="fill:none;fill-rule:evenodd;stroke:#ff2a2a;stroke-width:0.999213;stroke-linecap:butt;stroke-linejoin:miter;stroke-miterlimit:4;stroke-dasharray:none;stroke-opacity:1;marker-end:url(#Arrow2Send3)"
       d="m 523.90984,171.31888 c 0,3.5433 -3.5433,7.08661 -7.08661,7.08661"
       id="path5121" />
    <path
       style="fill:none;fill-rule:evenodd;stroke:#ff2a2a;stroke-width:0.999213;stroke-linecap:butt;stroke-linejoin:miter;stroke-miterlimit:4;stroke-dasharray:none;stroke-opacity:1;marker-end:url(#Arrow2Send3)"
       d="m 495.56338,178.40549 c -3.5433,0 -7.08661,3.5433 -7.08661,7.08661"
       id="path5123" />
    <path
       style="fill:none;fill-rule:evenodd;stroke:#ff2a2a;stroke-width:0.999213;stroke-linecap:butt;stroke-linejoin:miter;stroke-miterlimit:4;stroke-dasharray:none;stroke-opacity:1;marker-end:url(#Arrow2Send3)"
       d="m 495.56339,228.01179 c 3.5433,0 7.08661,-3.5433 7.08661,-7.08661"
       id="path5125" />
    <path
       id="path5127"
       d="m 488.47677,220.92518 c 0,3.5433 3.5433,7.08661 7.08661,7.08661"
       style="fill:none;fill-rule:evenodd;stroke:#ff2a2a;stroke-width:0.999213;stroke-linecap:butt;stroke-linejoin:miter;stroke-miterlimit:4;stroke-dasharray:none;stroke-opacity:1;marker-end:url(#Arrow2Send3)" />
    <path
       style="fill:none;fill-rule:evenodd;stroke:#ff2a2a;stroke-width:0.999213;stroke-linecap:butt;stroke-linejoin:miter;stroke-miterlimit:4;stroke-dasharray:none;stroke-opacity:1;marker-end:url(#Arrow2Send3)"
       d="m 502.65,199.66533 c 0,-3.5433 3.5433,-7.08661 7.08661,-7.08661"
       id="path5129" />
    <path
       id="path5131"
       d="m 530.99645,192.57872 c 3.5433,0 7.08661,-3.5433 7.08661,-7.08661"
       style="fill:none;fill-rule:evenodd;stroke:#ff2a2a;stroke-width:0.999213;stroke-linecap:butt;stroke-linejoin:miter;stroke-miterlimit:4;stroke-dasharray:none;stroke-opacity:1;marker-end:url(#Arrow2Send3)" />
    <path
       id="path5133"
       d="m 538.08307,79.192895 c 0,-3.5433 -3.5433,-7.08661 -7.08661,-7.08661"
       style="fill:none;fill-rule:evenodd;stroke:#ff2a2a;stroke-width:0.999213;stroke-linecap:butt;stroke-linejoin:miter;stroke-miterlimit:4;stroke-dasharray:none;stroke-opacity:1;marker-end:url(#Arrow2Send3)" />
    <path
       id="path5135"
       d="m 509.73661,72.106281 c -3.5433,0 -7.08661,-3.5433 -7.08661,-7.08661"
       style="fill:none;fill-rule:evenodd;stroke:#ff2a2a;stroke-width:0.999213;stroke-linecap:butt;stroke-linejoin:miter;stroke-miterlimit:4;stroke-dasharray:none;stroke-opacity:1;marker-end:url(#Arrow2Send3)" />
    <path
       style="fill:none;fill-rule:evenodd;stroke:#ff2a2a;stroke-width:0.999213;stroke-linecap:butt;stroke-linejoin:miter;stroke-miterlimit:4;stroke-dasharray:none;stroke-opacity:1;marker-end:url(#Arrow2Send3)"
       d="m 502.65,57.933052 c 0,-3.5433 3.5433,-7.08661 7.08661,-7.08661"
       id="path5137" />
    <path
       id="path5139"
       d="m 552.2563,50.846442 c 3.5433,0 7.08661,3.5433 7.08661,7.08661"
       style="fill:none;fill-rule:evenodd;stroke:#ff2a2a;stroke-width:0.999213;stroke-linecap:butt;stroke-linejoin:miter;stroke-miterlimit:4;stroke-dasharray:none;stroke-opacity:1;marker-end:url(#Arrow2Send3)" />
    <path
       id="path5141"
       d="m 559.34291,79.192899 c 0,3.5433 3.5433,7.08661 7.08661,7.08661"
       style="fill:none;fill-rule:evenodd;stroke:#ff2a2a;stroke-width:0.999213;stroke-linecap:butt;stroke-linejoin:miter;stroke-miterlimit:4;stroke-dasharray:none;stroke-opacity:1;marker-end:url(#Arrow2Send3)" />
    <path
       id="path5143"
       d="m 105.7996,192.57872 c 0,0 31.88977,0 31.88977,0"
       style="fill:none;fill-rule:evenodd;stroke:#ff2a2a;stroke-width:0.999213;stroke-linecap:butt;stroke-linejoin:miter;stroke-miterlimit:4;stroke-dasharray:none;stroke-opacity:1;marker-end:url(#Arrow1MendB)" />
    <path
       style="fill:none;fill-rule:evenodd;stroke:#ff2a2a;stroke-width:0.999213;stroke-linecap:butt;stroke-linejoin:miter;stroke-miterlimit:4;stroke-dasharray:none;stroke-opacity:1;marker-end:url(#Arrow2Send3)"
       d="M 141.23267,192.57872 H 350.28779"
       id="path5145" />
    <path
       id="path5147"
       d="m 229.81535,157.14565 c 0,0 49.6063,0 49.6063,0"
       style="fill:none;fill-rule:evenodd;stroke:#ff2a2a;stroke-width:0.999213;stroke-linecap:butt;stroke-linejoin:miter;stroke-miterlimit:4;stroke-dasharray:none;stroke-opacity:1;marker-end:url(#Arrow2Send3)" />
    <path
       style="fill:none;fill-rule:evenodd;stroke:#ff2a2a;stroke-width:0.999213;stroke-linecap:butt;stroke-linejoin:miter;stroke-miterlimit:4;stroke-dasharray:none;stroke-opacity:1;marker-end:url(#Arrow2Send3)"
       d="m 194.38228,121.71258 c 0,0 106.29921,0 106.29921,0"
       id="path5149" />
    <path
       id="path5151"
       d="m 158.94921,50.846438 c 0,0 318.89764,0 318.89764,0"
       style="fill:none;fill-rule:evenodd;stroke:#ff2a2a;stroke-width:0.999213;stroke-linecap:butt;stroke-linejoin:miter;stroke-miterlimit:4;stroke-dasharray:none;stroke-opacity:1;marker-end:url(#Arrow2Send3)" />
    <path
       style="fill:none;fill-rule:evenodd;stroke:#ff2a2a;stroke-width:0.999213;stroke-linecap:butt;stroke-linejoin:miter;stroke-miterlimit:4;stroke-dasharray:none;stroke-opacity:1;marker-end:url(#Arrow2Send3)"
       d="m 513.27992,50.846438 c 0,0 35.43307,0 35.43307,0"
       id="path5153" />
    <path
       id="path5155"
       d="m 513.27992,192.57872 c 0,0 14.17323,0 14.17323,0"
       style="fill:none;fill-rule:evenodd;stroke:#ff2a2a;stroke-width:0.999213;stroke-linecap:butt;stroke-linejoin:miter;stroke-miterlimit:4;stroke-dasharray:none;stroke-opacity:1;marker-end:url(#Arrow2Send3)" />
    <path
       style="fill:none;fill-rule:evenodd;stroke:#ff2a2a;stroke-width:0.999213;stroke-linecap:butt;stroke-linejoin:miter;stroke-miterlimit:4;stroke-dasharray:none;stroke-opacity:1;marker-end:url(#Arrow2Send3)"
       d="m 300.68149,178.40549 c 0,0 -70.86614,0 -70.86614,0"
       id="path5157" />
    <path
       id="path5159"
       d="m 314.85472,107.53935 c 0,0 -134.64567,0 -134.64567,0"
       style="fill:none;fill-rule:evenodd;stroke:#ff2a2a;stroke-width:0.999213;stroke-linecap:butt;stroke-linejoin:miter;stroke-miterlimit:4;stroke-dasharray:none;stroke-opacity:1;marker-end:url(#Arrow2Send3)" />
    <path
       style="fill:none;fill-rule:evenodd;stroke:#ff2a2a;stroke-width:0.999213;stroke-linecap:butt;stroke-linejoin:miter;stroke-miterlimit:4;stroke-dasharray:none;stroke-opacity:1;marker-end:url(#Arrow2Send3)"
       d="m 279.42165,142.97242 c 0,0 -63.77953,0 -63.77953,0"
       id="path5161" />
    <path
       id="path5163"
       d="m 194.38228,178.40549 c 0,0 -35.43307,0 -35.43307,0"
       style="fill:none;fill-rule:evenodd;stroke:#ff2a2a;stroke-width:0.999213;stroke-linecap:butt;stroke-linejoin:miter;stroke-miterlimit:4;stroke-dasharray:none;stroke-opacity:1;marker-end:url(#Arrow2Send3)" />
    <path
       style="fill:none;fill-rule:evenodd;stroke:#ff2a2a;stroke-width:0.999213;stroke-linecap:butt;stroke-linejoin:miter;stroke-miterlimit:4;stroke-dasharray:none;stroke-opacity:1;marker-end:url(#Arrow2Send3)"
       d="m 527.45315,72.106281 c 0,0 -14.17323,0 -14.17323,0"
       id="path5165" />
    <path
       id="path5167"
       d="m 513.27992,178.40549 c 0,0 -14.17323,0 -14.17323,0"
       style="fill:none;fill-rule:evenodd;stroke:#ff2a2a;stroke-width:0.999213;stroke-linecap:butt;stroke-linejoin:miter;stroke-miterlimit:4;stroke-dasharray:none;stroke-opacity:1;marker-end:url(#Arrow2Send3)" />
    <path
       id="path5169"
       d="m 499.10669,86.279509 c 0,0 14.17323,0 14.17323,0"
       style="fill:none;fill-rule:evenodd;stroke:#ff2a2a;stroke-width:0.999213;stroke-linecap:butt;stroke-linejoin:miter;stroke-miterlimit:4;stroke-dasharray:none;stroke-opacity:1;marker-end:url(#Arrow2Send3)" />
    <path
       id="path5173"
       d="m 360.91771,181.9488 c 0,0 0,-28.34646 0,-28.34646"
       style="fill:none;fill-rule:evenodd;stroke:#ff2a2a;stroke-width:0.999213;stroke-linecap:butt;stroke-linejoin:miter;stroke-miterlimit:4;stroke-dasharray:none;stroke-opacity:1;marker-end:url(#Arrow2Send3)" />
    <path
       style="fill:none;fill-rule:evenodd;stroke:#ff2a2a;stroke-width:0.999213;stroke-linecap:butt;stroke-linejoin:miter;stroke-miterlimit:4;stroke-dasharray:none;stroke-opacity:1;marker-end:url(#Arrow2Send3)"
       d="m 325.48464,167.77557 c 0,0 0,-49.6063 0,-49.6063"
       id="path5175" />
    <path
       id="path5177"
       d="m 183.75236,146.51573 c 0,0 0,-14.17323 0,-14.17323"
       style="fill:none;fill-rule:evenodd;stroke:#ff2a2a;stroke-width:0.999213;stroke-linecap:butt;stroke-linejoin:miter;stroke-miterlimit:4;stroke-dasharray:none;stroke-opacity:1;marker-end:url(#Arrow2Send3)" />
    <path
       style="fill:none;fill-rule:evenodd;stroke:#ff2a2a;stroke-width:0.999213;stroke-linecap:butt;stroke-linejoin:miter;stroke-miterlimit:4;stroke-dasharray:none;stroke-opacity:1;marker-end:url(#Arrow2Send3)"
       d="m 148.31929,167.77557 c 0,0 0,-106.299211 0,-106.299211"
       id="path5179" />
    <path
       id="path5181"
       d="m 538.08307,181.9488 c 0,0 0,-99.212598 0,-99.212598"
       style="fill:none;fill-rule:evenodd;stroke:#ff2a2a;stroke-width:0.999213;stroke-linecap:butt;stroke-linejoin:miter;stroke-miterlimit:4;stroke-dasharray:none;stroke-opacity:1;marker-end:url(#Arrow2Send3)" />
    <path
       id="path5183"
       d="m 311.31141,132.3425 c 0,0 0,35.43307 0,35.43307"
       style="fill:none;fill-rule:evenodd;stroke:#ff2a2a;stroke-width:0.999213;stroke-linecap:butt;stroke-linejoin:miter;stroke-miterlimit:4;stroke-dasharray:none;stroke-opacity:1;marker-end:url(#Arrow2Send3)" />
    <path
       style="fill:none;fill-rule:evenodd;stroke:#ff2a2a;stroke-width:0.999213;stroke-linecap:butt;stroke-linejoin:miter;stroke-miterlimit:4;stroke-dasharray:none;stroke-opacity:1;marker-end:url(#Arrow2Send3)"
       d="m 346.74448,153.60234 c 0,0 0,14.17323 0,14.17323"
       id="path5185" />
    <path
       id="path5187"
       d="m 205.0122,153.60234 c 0,0 0,14.17323 0,14.17323"
       style="fill:none;fill-rule:evenodd;stroke:#ff2a2a;stroke-width:0.999213;stroke-linecap:butt;stroke-linejoin:miter;stroke-miterlimit:4;stroke-dasharray:none;stroke-opacity:1;marker-end:url(#Arrow2Send3)" />
    <path
       style="fill:none;fill-rule:evenodd;stroke:#ff2a2a;stroke-width:0.999213;stroke-linecap:butt;stroke-linejoin:miter;stroke-miterlimit:4;stroke-dasharray:none;stroke-opacity:1;marker-end:url(#Arrow2Send3)"
       d="m 169.57913,118.16927 c 0,0 0,28.34646 0,28.34646"
       id="path5189" />
    <path
       id="path5191"
       d="m 488.47677,61.476359 c 0,0 0,14.173229 0,14.173229"
       style="fill:none;fill-rule:evenodd;stroke:#ff2a2a;stroke-width:0.999213;stroke-linecap:butt;stroke-linejoin:miter;stroke-miterlimit:4;stroke-dasharray:none;stroke-opacity:1;marker-end:url(#Arrow2Send3)" />
    <path
       style="fill:none;fill-rule:evenodd;stroke:#ff2a2a;stroke-width:0.999213;stroke-linecap:butt;stroke-linejoin:miter;stroke-miterlimit:4;stroke-dasharray:none;stroke-opacity:1;marker-end:url(#Arrow2Send3)"
       d="m 488.47677,189.03541 c 0,0 0,28.34646 0,28.34646"
       id="path5193" />
    <path
       id="path5195"
       d="m 559.34291,61.476359 c 0,0 0,14.173229 0,14.173229"
       style="fill:none;fill-rule:evenodd;stroke:#ff2a2a;stroke-width:0.999213;stroke-linecap:butt;stroke-linejoin:miter;stroke-miterlimit:4;stroke-dasharray:none;stroke-opacity:1;marker-end:url(#Arrow2Send3)" />
    <path
       style="fill:none;fill-rule:evenodd;stroke:#ff2a2a;stroke-width:0.999213;stroke-linecap:butt;stroke-linejoin:miter;stroke-miterlimit:4;stroke-dasharray:none;stroke-opacity:1;marker-end:url(#Arrow1MendB)"
       d="m 569.97282,86.279509 c 0,0 31.88977,0 31.88977,0"
       id="path6480" />
    <path
       style="fill:none;fill-rule:evenodd;stroke:#ff2a2a;stroke-width:0.999213;stroke-linecap:butt;stroke-linejoin:miter;stroke-miterlimit:4;stroke-dasharray:none;stroke-opacity:1;marker-end:url(#Arrow2Send3)"
       d="m 523.41023,98.149592 c 0,0 0,70.866138 0,70.866138"
       id="path6482" />
    <g
       id="g3438"
       transform="translate(0,-35.433068)">
      <path
         id="path3436"
         style="opacity:1;fill:#0066ff;stroke-linecap:round;stroke-dasharray:2, 2"
         d="m 123.51615,240.41338 a 8.858263,8.858263 0 0 1 -8.85827,8.85826 8.858263,8.858263 0 0 1 -8.85826,-8.85826 8.858263,8.858263 0 0 1 8.85826,-8.85827 8.858263,8.858263 0 0 1 8.85827,8.85827 z" />
      <g
         aria-label="1"
         id="text3432"
         style="line-height:0%;font-family:Iwona;-inkscape-font-specification:Iwona;text-align:center;letter-spacing:0px;word-spacing:0px;text-anchor:middle;fill:#ffffff;stroke-width:1px">
        <path
           d="m 116.53583,245.58838 v -10.35 h -0.87 c -0.825,0.945 -1.8,1.755 -2.88,2.385 v 0.63 c 0.915,-0.435 1.77,-0.945 2.58,-1.56 v 8.895 z"
           style="font-size:15px;line-height:1.25"
           id="path119" />
      </g>
    </g>
    <g
       id="g3443"
       transform="translate(104.52754,-35.433084)">
      <path
         id="circle3445"
         style="opacity:1;fill:#0066ff;stroke-linecap:round;stroke-dasharray:2, 2"
         d="m 124.37866,240.33838 a 8.858263,8.858263 0 0 1 -8.85827,8.85826 8.858263,8.858263 0 0 1 -8.85826,-8.85826 8.858263,8.858263 0 0 1 8.85826,-8.85826 8.858263,8.858263 0 0 1 8.85827,8.85826 z" />
      <g
         aria-label="2"
         id="text3447"
         style="line-height:0%;font-family:Iwona;-inkscape-font-specification:Iwona;text-align:center;letter-spacing:0px;word-spacing:0px;text-anchor:middle;fill:#ffffff;stroke-width:1px">
        <path
           d="m 118.71083,245.58838 v -0.93 h -5.295 l 2.76,-2.73 c 1.23,-1.23 2.385,-2.67 2.385,-4.41 0,-1.47 -1.455,-2.43 -3.03,-2.43 -1.185,0 -2.31,0.54 -3.045,1.455 v 0.63 c 0.765,-0.885 1.875,-1.395 3.045,-1.395 1.005,0 1.86,0.75 1.86,1.74 0,1.485 -0.69,2.865 -1.71,3.93 l -3.345,3.435 v 0.705 z"
           style="font-size:15px;line-height:1.25"
           id="path123" />
      </g>
    </g>
    <g
       transform="translate(255.09718,-35.433084)"
       id="g3451">
      <path
         id="circle3453"
         style="opacity:1;fill:#0066ff;stroke-linecap:round;stroke-dasharray:2, 2"
         d="m 124.37866,240.41338 a 8.858263,8.858263 0 0 1 -8.85827,8.85826 8.858263,8.858263 0 0 1 -8.85826,-8.85826 8.858263,8.858263 0 0 1 8.85826,-8.85827 8.858263,8.858263 0 0 1 8.85827,8.85827 z" />
      <g
         aria-label="3"
         id="text3455"
         style="line-height:0%;font-family:Iwona;-inkscape-font-specification:Iwona;text-align:center;letter-spacing:0px;word-spacing:0px;text-anchor:middle;fill:#ffffff;stroke-width:1px">
        <path
           d="m 118.71083,242.73838 c 0,-1.32 -0.93,-2.46 -2.22,-2.85 1.14,-0.33 1.845,-1.185 1.845,-2.325 0,-1.485 -1.2,-2.475 -3,-2.475 -0.975,0 -1.92,0.33 -2.685,0.93 v 0.63 c 0.765,-0.6 1.71,-0.93 2.685,-0.93 1.095,0 1.83,0.735 1.83,1.845 0,1.785 -0.825,2.25 -2.7,2.25 v 0.555 c 2.025,0 2.925,0.48 2.925,2.37 0,1.305 -0.84,2.37 -1.86,2.37 -1.14,0 -2.25,-0.33 -3.195,-0.93 v 0.63 c 0.945,0.6 2.055,0.93 3.195,0.93 1.74,0 3.18,-1.35 3.18,-3 z"
           style="font-size:15px;line-height:1.25"
           id="path127" />
      </g>
    </g>
    <g
       id="g3459"
       transform="translate(220.59417,-74.409457)">
      <path
         id="circle3461"
         style="opacity:1;fill:#0066ff;stroke-linecap:round;stroke-dasharray:2, 2"
         d="m 124.37866,240.41338 a 8.858263,8.858263 0 0 1 -8.85827,8.85826 8.858263,8.858263 0 0 1 -8.85826,-8.85826 8.858263,8.858263 0 0 1 8.85826,-8.85827 8.858263,8.858263 0 0 1 8.85827,8.85827 z" />
      <g
         aria-label="4"
         id="text3463"
         style="line-height:0%;font-family:Iwona;-inkscape-font-specification:Iwona;text-align:center;letter-spacing:0px;word-spacing:0px;text-anchor:middle;fill:#ffffff;stroke-width:1px">
        <path
           d="m 118.71083,241.98838 v -0.69 h -1.125 v -6.06 h -1.17 l -4.08,6.06 v 0.69 h 4.08 v 3.6 h 1.17 v -3.6 z m -2.295,-0.69 h -3.315 l 3.315,-4.935 z"
           style="font-size:15px;line-height:1.25"
           id="path131" />
      </g>
    </g>
  </g>
</svg>
