<?xml version="1.0" encoding="UTF-8" standalone="no"?>
<!-- Created with Inkscape (http://www.inkscape.org/) -->

<svg
   width="86.710266mm"
   height="57.319588mm"
   viewBox="0 0 307.2411 203.1009"
   id="svg4698"
   version="1.1"
   xmlns="http://www.w3.org/2000/svg"
   xmlns:svg="http://www.w3.org/2000/svg"
   xmlns:rdf="http://www.w3.org/1999/02/22-rdf-syntax-ns#"
   xmlns:cc="http://creativecommons.org/ns#"
   xmlns:dc="http://purl.org/dc/elements/1.1/">
  <defs
     id="defs4700">
    <marker
       style="overflow:visible"
       id="marker12969"
       refX="0"
       refY="0"
       orient="auto">
      <path
         transform="matrix(-0.2,0,0,-0.2,-1.2,0)"
         style="fill:#000000;fill-opacity:1;fill-rule:evenodd;stroke:#000000;stroke-width:1.00000003pt;stroke-opacity:1;marker-start:none"
         d="M 0,0 5,-5 -12.5,0 5,5 Z"
         id="path12971" />
    </marker>
    <marker
       style="overflow:visible"
       id="marker5125"
       refX="0"
       refY="0"
       orient="auto">
      <path
         transform="matrix(-0.4,0,0,-0.4,-4,0)"
         style="fill:#000000;fill-opacity:1;fill-rule:evenodd;stroke:#000000;stroke-width:1.00000003pt;stroke-opacity:1;marker-start:none"
         d="M 0,0 5,-5 -12.5,0 5,5 Z"
         id="path5127" />
    </marker>
    <marker
       style="overflow:visible"
       id="marker7796I"
       refX="0"
       refY="0"
       orient="auto">
      <path
         transform="matrix(-0.2,0,0,-0.2,-1.2,0)"
         style="fill:#ff6600;fill-opacity:1;fill-rule:evenodd;stroke:#ff6600;stroke-width:1.00000003pt;stroke-opacity:1;marker-start:none"
         d="M 0,0 5,-5 -12.5,0 5,5 Z"
         id="path2917" />
    </marker>
    <marker
       orient="auto"
       refY="0"
       refX="0"
       id="marker7796YI"
       style="overflow:visible">
      <path
         id="path3055"
         d="M 0,0 5,-5 -12.5,0 5,5 Z"
         style="fill:#00aad4;fill-opacity:1;fill-rule:evenodd;stroke:#00aad4;stroke-width:1.00000003pt;stroke-opacity:1;marker-start:none"
         transform="matrix(-0.2,0,0,-0.2,-1.2,0)" />
    </marker>
  </defs>
  <metadata
     id="metadata4703">
    <rdf:RDF>
      <cc:Work
         rdf:about="">
        <dc:format>image/svg+xml</dc:format>
        <dc:type
           rdf:resource="http://purl.org/dc/dcmitype/StillImage" />
        <dc:title />
      </cc:Work>
    </rdf:RDF>
  </metadata>
  <g
     id="layer1"
     transform="translate(152.72594,-252.37424)">
    <g
       id="g3143"
       transform="translate(48.337313,432.65857)">
      <path
         style="fill:#ffeeaa;fill-rule:evenodd;stroke:#000000;stroke-width:1px;stroke-linecap:butt;stroke-linejoin:miter;stroke-opacity:1"
         d="m -8.7703827,-34.671396 -2e-7,49.687502 L 11.854617,7.5161055 V -27.171395 Z"
         id="path3133" />
      <g
         aria-label="0"
         id="text3137"
         style="font-weight:bold;line-height:0%;font-family:Iwona;-inkscape-font-specification:'Iwona Bold'">
        <path
           d="m -0.40707558,-23.42142 c 0,-2.37 -0.73000002,-3.55 -2.19000002,-3.55 -1.46,0 -2.19,1.18 -2.19,3.55 0,2.37 0.73,3.55 2.19,3.55 1.46,0 2.19000002,-1.18 2.19000002,-3.55 z m -0.88000002,0 c 0,2.09 -0.44,3.13 -1.31,3.13 -0.87,0 -1.31,-1.04 -1.31,-3.13 0,-2.09 0.44,-3.13 1.31,-3.13 0.87,0 1.31,1.04 1.31,3.13 z"
           style="font-weight:normal;font-size:10px;line-height:1.25;-inkscape-font-specification:Iwona"
           id="path139" />
      </g>
      <g
         aria-label="1"
         id="text3141"
         style="font-weight:bold;line-height:0%;font-family:Iwona;-inkscape-font-specification:'Iwona Bold'">
        <path
           d="M -1.9270756,7.2160802 V 0.31608019 h -0.58 c -0.55,0.63 -1.2,1.17000001 -1.92,1.59000001 v 0.42 c 0.61,-0.29 1.18,-0.63 1.72,-1.04 v 5.93 z"
           style="font-weight:normal;font-size:10px;line-height:1.25;-inkscape-font-specification:Iwona"
           id="path142" />
      </g>
    </g>
    <path
       style="fill:none;stroke:#ff6600;stroke-width:3;stroke-linecap:butt;stroke-linejoin:miter;stroke-miterlimit:4;stroke-dasharray:none;stroke-opacity:1;marker-end:url(#marker7796I)"
       d="m -105.74557,372.67468 v 63.75 l 141.562502,-3e-5"
       id="path3145" />
    <path
       id="path3147"
       d="M 14.557088,429.33803 3.9271661,443.51126"
       style="fill:none;stroke:#000000;stroke-width:1px;stroke-linecap:butt;stroke-linejoin:miter;stroke-opacity:1" />
    <path
       style="fill:none;fill-opacity:1;stroke:#00aad4;stroke-width:3;stroke-linecap:butt;stroke-linejoin:miter;stroke-miterlimit:4;stroke-dasharray:none;stroke-opacity:1;marker-end:url(#marker7796YI)"
       d="m -86.995571,335.17468 v 74.0625 l 122.812501,-3e-5"
       id="path3149" />
    <path
       style="fill:none;stroke:#000000;stroke-width:1px;stroke-linecap:butt;stroke-linejoin:miter;stroke-opacity:1"
       d="M 14.557088,402.15053 3.9271661,416.32376"
       id="path3151" />
    <g
       aria-label="4"
       id="text3155"
       style="line-height:0%;font-family:Iwona;-inkscape-font-specification:Sans;text-align:center;letter-spacing:0px;word-spacing:0px;text-anchor:middle">
      <path
         d="m 13.563778,424.07367 v -0.552 h -0.9 v -4.848 h -0.936 l -3.2639999,4.848 v 0.552 h 3.2639999 v 2.88 h 0.936 v -2.88 z m -1.836,-0.552 H 9.0757781 l 2.6519999,-3.948 z"
         style="font-size:12px;line-height:1.25"
         id="path145" />
    </g>
    <path
       style="fill:none;stroke:#000000;stroke-width:3;stroke-linecap:butt;stroke-linejoin:miter;stroke-miterlimit:4;stroke-dasharray:none;stroke-opacity:1;marker-end:url(#marker12969)"
       d="M 60.826774,422.79035 H 113.97638"
       id="path201" />
    <path
       style="fill:none;stroke:#000000;stroke-width:1px;stroke-linecap:butt;stroke-linejoin:miter;stroke-opacity:1"
       d="M 92.71654,415.70374 82.086617,429.87697"
       id="path203" />
    <g
       aria-label="4"
       id="text207"
       style="line-height:0%;font-family:Iwona;-inkscape-font-specification:Sans;text-align:center;letter-spacing:0px;word-spacing:0px;text-anchor:middle">
      <path
         d="m 91.723243,409.28043 v -0.552 h -0.9 v -4.848 h -0.936 l -3.264,4.848 v 0.552 h 3.264 v 2.88 h 0.936 v -2.88 z m -1.836,-0.552 h -2.652 l 2.652,-3.948 z"
         style="font-size:12px;line-height:1.25"
         id="path148" />
    </g>
    <g
       aria-label="max"
       id="text211"
       style="line-height:0%;font-family:Iwona;-inkscape-font-specification:Sans;letter-spacing:0px;word-spacing:0px">
      <path
         d="m 131.5263,426.33365 v -5.2 c 0,-1.12 -0.656,-2.16 -1.696,-2.16 -0.896,0 -1.728,0.464 -2.208,1.216 -0.256,-0.704 -0.8,-1.216 -1.536,-1.216 -0.832,0 -1.504,0.576 -2.048,1.216 v -1.056 h -1.248 v 7.2 h 1.248 v -5.664 c 0.384,-0.496 0.864,-0.96 1.488,-0.96 0.656,0 1.008,0.704 1.008,1.424 v 5.2 h 1.248 v -5.2 c 0,-0.192 -0.016,-0.368 -0.048,-0.56 0.384,-0.496 0.912,-0.864 1.536,-0.864 0.656,0 1.008,0.704 1.008,1.424 v 5.2 z"
         style="font-size:16px;line-height:1.25"
         id="path151" />
      <path
         d="m 139.63827,426.33365 v -4.48 c 0,-1.504 -0.928,-2.88 -2.32,-2.88 -1.024,0 -1.984,0.352 -2.848,0.896 v 0.496 c 0.72,-0.4 1.52,-0.656 2.352,-0.656 0.992,0 1.568,1.056 1.568,2.144 v 0.288 c -0.624,-0.272 -1.296,-0.432 -1.968,-0.432 -1.712,0 -2.976,0.784 -2.976,2.4 0,1.536 1.12,2.384 2.736,2.384 0.816,0 1.568,-0.368 2.208,-0.88 v 0.72 z m -1.248,-1.392 c -0.48,0.48 -1.072,0.88 -1.76,0.88 -1.072,0 -1.776,-0.656 -1.776,-1.712 0,-0.976 0.8,-1.728 1.776,-1.728 0.608,0 1.216,0.16 1.76,0.432 z"
         style="font-size:16px;line-height:1.25"
         id="path153" />
      <path
         d="m 147.43026,426.33365 -2.512,-3.84 2.432,-3.36 h -0.832 l -1.984,2.752 -1.792,-2.752 h -1.344 l 2.384,3.664 -2.544,3.536 h 0.832 l 2.112,-2.928 1.904,2.928 z"
         style="font-size:16px;line-height:1.25"
         id="path155" />
    </g>
    <g
       transform="translate(48.337313,294.8461)"
       id="layer1-5-0">
      <path
         id="path2504-0"
         d="m -8.7703827,-34.671396 -2e-7,49.687502 L 11.854617,7.5161055 V -27.171395 Z"
         style="fill:#ffeeaa;fill-rule:evenodd;stroke:#000000;stroke-width:1px;stroke-linecap:butt;stroke-linejoin:miter;stroke-opacity:1" />
      <g
         aria-label="0"
         id="text19494"
         style="font-weight:bold;line-height:0%;font-family:Iwona;-inkscape-font-specification:'Iwona Bold'">
        <path
           d="m -0.40707558,-23.42142 c 0,-2.37 -0.73000002,-3.55 -2.19000002,-3.55 -1.46,0 -2.19,1.18 -2.19,3.55 0,2.37 0.73,3.55 2.19,3.55 1.46,0 2.19000002,-1.18 2.19000002,-3.55 z m -0.88000002,0 c 0,2.09 -0.44,3.13 -1.31,3.13 -0.87,0 -1.31,-1.04 -1.31,-3.13 0,-2.09 0.44,-3.13 1.31,-3.13 0.87,0 1.31,1.04 1.31,3.13 z"
           style="font-weight:normal;font-size:10px;line-height:1.25;-inkscape-font-specification:Iwona"
           id="path158" />
      </g>
      <g
         aria-label="1"
         id="text19498"
         style="font-weight:bold;line-height:0%;font-family:Iwona;-inkscape-font-specification:'Iwona Bold'">
        <path
           d="M -1.9270756,7.2160802 V 0.31608019 h -0.58 c -0.55,0.63 -1.2,1.17000001 -1.92,1.59000001 v 0.42 c 0.61,-0.29 1.18,-0.63 1.72,-1.04 v 5.93 z"
           style="font-weight:normal;font-size:10px;line-height:1.25;-inkscape-font-specification:Iwona"
           id="path161" />
      </g>
    </g>
    <path
       id="rect4498"
       style="opacity:1;fill:#ffeeaa;stroke:#000000;stroke-linecap:round;stroke-linejoin:bevel"
       d="m -35.433071,325.98425 h 34.68749986 v 56.69292 H -35.433071 Z" />
    <path
       style="fill:none;stroke:#ff6600;stroke-width:3;stroke-linecap:butt;stroke-linejoin:miter;stroke-miterlimit:4;stroke-dasharray:none;stroke-opacity:1;marker-end:url(#marker7796I)"
       d="m -133.87057,372.67471 h 94.687499"
       id="path4207" />
    <g
       aria-label="a&lt;b"
       id="text4409"
       style="line-height:0%;font-family:Iwona;-inkscape-font-specification:Sans;text-align:end;letter-spacing:0px;word-spacing:0px;text-anchor:end">
      <path
         d="m -17.343282,356.73718 v -2.8 c 0,-0.94 -0.58,-1.8 -1.45,-1.8 -0.64,0 -1.24,0.22 -1.78,0.56 v 0.31 c 0.45,-0.25 0.95,-0.41 1.47,-0.41 0.62,0 0.98,0.66 0.98,1.34 v 0.18 c -0.39,-0.17 -0.81,-0.27 -1.23,-0.27 -1.07,0 -1.86,0.49 -1.86,1.5 0,0.96 0.7,1.49 1.71,1.49 0.51,0 0.98,-0.23 1.38,-0.55 v 0.45 z m -0.78,-0.87 c -0.3,0.3 -0.67,0.55 -1.1,0.55 -0.67,0 -1.11,-0.41 -1.11,-1.07 0,-0.61 0.5,-1.08 1.11,-1.08 0.38,0 0.76,0.1 1.1,0.27 z"
         style="font-size:10px;line-height:1.25"
         id="path165" />
      <path
         d="m -9.7632904,357.39718 v -0.56 l -5.2199996,-2.6 5.2199996,-2.58 v -0.56 l -5.8899996,2.92 v 0.44 z"
         style="font-size:10px;line-height:1.25"
         id="path167" />
      <path
         d="m -4.0932916,354.48718 c 0,-1.33 -0.5,-2.35 -1.71,-2.35 -0.51,0 -0.98,0.23 -1.38,0.55 v -2.95 h -0.78 v 7 h 0.78 v -0.23 c 0.38,0.2 0.8,0.33 1.23,0.33 1.25,0 1.86,-1 1.86,-2.35 z m -0.88,0 c 0,0.94 -0.29,1.93 -1.11,1.93 -0.39,0 -0.77,-0.13 -1.1,-0.33 v -2.98 c 0.3,-0.3 0.67,-0.55 1.1,-0.55 0.91,0 1.11,0.88 1.11,1.93 z"
         style="font-size:10px;line-height:1.25"
         id="path169" />
    </g>
    <path
       id="path4510"
       d="m -60.442912,365.58809 -10.629922,14.17323"
       style="fill:none;stroke:#000000;stroke-width:1px;stroke-linecap:butt;stroke-linejoin:miter;stroke-opacity:1" />
    <g
       aria-label="4"
       id="text4518"
       style="line-height:0%;font-family:Iwona;-inkscape-font-specification:Sans;text-align:center;letter-spacing:0px;word-spacing:0px;text-anchor:middle">
      <path
         d="m -61.436223,387.51127 v -0.552 h -0.9 v -4.848 h -0.936 l -3.264,4.848 v 0.552 h 3.264 v 2.88 h 0.936 v -2.88 z m -1.836,-0.552 h -2.652 l 2.652,-3.948 z"
         style="font-size:12px;line-height:1.25"
         id="path172" />
    </g>
    <path
       id="path5123"
       d="m -0.74557,353.92471 h 49.6875 v -47.28102"
       style="fill:none;stroke:#000000;stroke-width:1;stroke-linecap:butt;stroke-linejoin:miter;stroke-miterlimit:4;stroke-dasharray:none;stroke-opacity:1;marker-end:url(#marker5125)" />
    <g
       aria-label="a"
       id="text7788"
       style="line-height:0%;font-family:Iwona;-inkscape-font-specification:Iwona;letter-spacing:0px;word-spacing:0px;stroke-width:1px">
      <path
         d="m -25.96145,337.98718 v -2.8 c 0,-0.94 -0.58,-1.8 -1.45,-1.8 -0.64,0 -1.24,0.22 -1.78,0.56 v 0.31 c 0.45,-0.25 0.95,-0.41 1.47,-0.41 0.62,0 0.98,0.66 0.98,1.34 v 0.18 c -0.39,-0.17 -0.81,-0.27 -1.23,-0.27 -1.07,0 -1.86,0.49 -1.86,1.5 0,0.96 0.7,1.49 1.71,1.49 0.51,0 0.98,-0.23 1.38,-0.55 v 0.45 z m -0.78,-0.87 c -0.3,0.3 -0.67,0.55 -1.1,0.55 -0.67,0 -1.11,-0.41 -1.11,-1.07 0,-0.61 0.5,-1.08 1.11,-1.08 0.38,0 0.76,0.1 1.1,0.27 z"
         style="font-size:10px;line-height:1.25"
         id="path175" />
    </g>
    <g
       aria-label="b"
       id="text7792"
       style="line-height:0%;font-family:Iwona;-inkscape-font-specification:Iwona;letter-spacing:0px;word-spacing:0px;stroke-width:1px">
      <path
         d="m -27.219765,373.23718 c 0,-1.33 -0.5,-2.35 -1.71,-2.35 -0.51,0 -0.98,0.23 -1.38,0.55 v -2.95 h -0.78 v 7 h 0.78 v -0.23 c 0.38,0.2 0.8,0.33 1.23,0.33 1.25,0 1.86,-1 1.86,-2.35 z m -0.88,0 c 0,0.94 -0.29,1.93 -1.11,1.93 -0.39,0 -0.77,-0.13 -1.1,-0.33 v -2.98 c 0.3,-0.3 0.67,-0.55 1.1,-0.55 0.91,0 1.11,0.88 1.11,1.93 z"
         style="font-size:10px;line-height:1.25"
         id="path178" />
    </g>
    <g
       aria-label="x"
       id="text4401-0"
       style="line-height:0%;font-family:Iwona;-inkscape-font-specification:Sans;text-align:end;letter-spacing:0px;word-spacing:0px;text-anchor:end;fill:#00aad4">
      <path
         d="m -138.87805,338.77472 -2.512,-3.84 2.432,-3.36 h -0.832 l -1.984,2.752 -1.792,-2.752 h -1.344 l 2.384,3.664 -2.544,3.536 h 0.832 l 2.112,-2.928 1.904,2.928 z"
         style="font-size:16px;line-height:1.25"
         id="path181" />
    </g>
    <path
       id="path12967"
       d="M 60.826774,284.97785 H 113.97638"
       style="fill:none;stroke:#000000;stroke-width:3;stroke-linecap:butt;stroke-linejoin:miter;stroke-miterlimit:4;stroke-dasharray:none;stroke-opacity:1;marker-end:url(#marker12969)" />
    <path
       id="path13789"
       d="M 92.71654,277.89124 82.086617,292.06447"
       style="fill:none;stroke:#000000;stroke-width:1px;stroke-linecap:butt;stroke-linejoin:miter;stroke-opacity:1" />
    <g
       aria-label="4"
       id="text13791"
       style="line-height:0%;font-family:Iwona;-inkscape-font-specification:Sans;text-align:center;letter-spacing:0px;word-spacing:0px;text-anchor:middle">
      <path
         d="m 91.723243,271.46793 v -0.552 h -0.9 v -4.848 h -0.936 l -3.264,4.848 v 0.552 h 3.264 v 2.88 h 0.936 v -2.88 z m -1.836,-0.552 h -2.652 l 2.652,-3.948 z"
         style="font-size:12px;line-height:1.25"
         id="path184" />
    </g>
    <g
       aria-label="min"
       id="text13795"
       style="line-height:0%;font-family:Iwona;-inkscape-font-specification:Sans;letter-spacing:0px;word-spacing:0px">
      <path
         d="m 131.5263,288.52115 v -5.2 c 0,-1.12 -0.656,-2.16 -1.696,-2.16 -0.896,0 -1.728,0.464 -2.208,1.216 -0.256,-0.704 -0.8,-1.216 -1.536,-1.216 -0.832,0 -1.504,0.576 -2.048,1.216 v -1.056 h -1.248 v 7.2 h 1.248 v -5.664 c 0.384,-0.496 0.864,-0.96 1.488,-0.96 0.656,0 1.008,0.704 1.008,1.424 v 5.2 h 1.248 v -5.2 c 0,-0.192 -0.016,-0.368 -0.048,-0.56 0.384,-0.496 0.912,-0.864 1.536,-0.864 0.656,0 1.008,0.704 1.008,1.424 v 5.2 z"
         style="font-size:16px;line-height:1.25"
         id="path188" />
      <path
         d="m 136.93427,287.96115 v -0.48 c -0.304,0.256 -0.656,0.464 -1.056,0.464 -0.592,0 -0.704,-0.736 -0.704,-1.424 v -5.2 h -1.248 v 5.2 c 0,1.072 0.416,2.16 1.36,2.16 0.608,0 1.184,-0.304 1.648,-0.72 z m -1.6,-9.136 c 0,-0.432 -0.352,-0.784 -0.784,-0.784 -0.432,0 -0.784,0.352 -0.784,0.784 0,0.432 0.352,0.784 0.784,0.784 0.432,0 0.784,-0.352 0.784,-0.784 z"
         style="font-size:16px;line-height:1.25"
         id="path190" />
      <path
         d="m 144.32626,288.52115 v -5.2 c 0,-1.168 -0.896,-2.16 -2.048,-2.16 -0.96,0 -1.808,0.544 -2.496,1.216 v -1.056 h -1.248 v 7.2 h 1.248 v -5.648 c 0.544,-0.544 1.216,-0.976 1.968,-0.976 0.752,0 1.328,0.656 1.328,1.424 v 5.2 z"
         style="font-size:16px;line-height:1.25"
         id="path192" />
    </g>
    <path
       style="fill:none;stroke:#000000;stroke-width:1;stroke-linecap:butt;stroke-linejoin:miter;stroke-miterlimit:4;stroke-dasharray:none;stroke-opacity:1;marker-end:url(#marker5125)"
       d="m 48.94193,353.92471 v 47.28102"
       id="path187" />
    <path
       style="fill:none;fill-opacity:1;stroke:#00aad4;stroke-width:3;stroke-linecap:butt;stroke-linejoin:miter;stroke-miterlimit:4;stroke-dasharray:none;stroke-opacity:1;marker-end:url(#marker7796YI)"
       d="m -133.87057,335.17471 h 94.687499"
       id="path213" />
    <path
       style="fill:none;stroke:#000000;stroke-width:1px;stroke-linecap:butt;stroke-linejoin:miter;stroke-opacity:1"
       d="m -60.442912,328.08809 -10.629922,14.17323"
       id="path215" />
    <g
       aria-label="4"
       id="text219"
       style="line-height:0%;font-family:Iwona;-inkscape-font-specification:Sans;text-align:center;letter-spacing:0px;word-spacing:0px;text-anchor:middle">
      <path
         d="m -61.436223,350.01127 v -0.552 h -0.9 v -4.848 h -0.936 l -3.264,4.848 v 0.552 h 3.264 v 2.88 h 0.936 v -2.88 z m -1.836,-0.552 h -2.652 l 2.652,-3.948 z"
         style="font-size:12px;line-height:1.25"
         id="path195" />
    </g>
    <path
       id="path3117"
       d="m -105.74557,372.67468 v -101.25 H 35.816932"
       style="fill:none;stroke:#ff6600;stroke-width:3;stroke-linecap:butt;stroke-linejoin:miter;stroke-miterlimit:4;stroke-dasharray:none;stroke-opacity:1;marker-end:url(#marker7796I)" />
    <path
       style="fill:none;stroke:#000000;stroke-width:1px;stroke-linecap:butt;stroke-linejoin:miter;stroke-opacity:1"
       d="M 14.557088,264.33806 3.9271661,278.51129"
       id="path3119" />
    <g
       aria-label="4"
       id="text3123"
       style="line-height:0%;font-family:Iwona;-inkscape-font-specification:Sans;text-align:center;letter-spacing:0px;word-spacing:0px;text-anchor:middle">
      <path
         d="m 13.563778,286.2612 v -0.552 h -0.9 v -4.848 h -0.936 l -3.2639999,4.848 v 0.552 h 3.2639999 v 2.88 h 0.936 v -2.88 z m -1.836,-0.552 H 9.0757781 l 2.6519999,-3.948 z"
         style="font-size:12px;line-height:1.25"
         id="path198" />
    </g>
    <path
       id="path3125"
       d="m -86.995572,335.17468 v -35.625 H 35.81693"
       style="fill:none;fill-opacity:1;stroke:#00aad4;stroke-width:3;stroke-linecap:butt;stroke-linejoin:miter;stroke-miterlimit:4;stroke-dasharray:none;stroke-opacity:1;marker-end:url(#marker7796YI)" />
    <path
       id="path3127"
       d="M 14.557088,292.04968 3.9271661,306.22291"
       style="fill:none;stroke:#000000;stroke-width:1px;stroke-linecap:butt;stroke-linejoin:miter;stroke-opacity:1" />
    <g
       aria-label="4"
       id="text3131"
       style="line-height:0%;font-family:Iwona;-inkscape-font-specification:Sans;text-align:center;letter-spacing:0px;word-spacing:0px;text-anchor:middle">
      <path
         d="m 13.563778,313.97281 v -0.552 h -0.9 v -4.848 h -0.936 l -3.2639999,4.848 v 0.552 h 3.2639999 v 2.88 h 0.936 v -2.88 z m -1.836,-0.552 H 9.0757781 l 2.6519999,-3.948 z"
         style="font-size:12px;line-height:1.25"
         id="path202" />
    </g>
    <g
       aria-label="y"
       id="text3159"
       style="line-height:0%;font-family:Iwona;-inkscape-font-specification:Sans;text-align:end;letter-spacing:0px;word-spacing:0px;text-anchor:end;fill:#ff6600">
      <path
         d="m -139.83805,375.31471 v -8.16 h -1.248 v 5.648 c -0.544,0.544 -1.216,0.976 -1.968,0.976 -0.752,0 -1.328,-0.656 -1.328,-1.424 v -5.2 h -1.248 v 5.2 c 0,1.168 0.896,2.16 2.048,2.16 0.96,0 1.808,-0.544 2.496,-1.216 v 2.016 c 0,1.072 -0.48,2.144 -1.44,2.144 -0.752,0 -1.472,-0.16 -2.16,-0.432 v 0.496 c 0.816,0.416 1.728,0.672 2.656,0.672 1.36,0 2.192,-1.408 2.192,-2.88 z"
         style="font-size:16px;line-height:1.25"
         id="path205" />
    </g>
  </g>
</svg>
