<?xml version="1.0" encoding="UTF-8" standalone="no"?>
<!-- Created with Inkscape (http://www.inkscape.org/) -->

<svg
   width="168.74239mm"
   height="96.47789mm"
   viewBox="0 0 597.90609 341.85079"
   id="svg10331"
   version="1.1"
   xmlns="http://www.w3.org/2000/svg"
   xmlns:svg="http://www.w3.org/2000/svg"
   xmlns:rdf="http://www.w3.org/1999/02/22-rdf-syntax-ns#"
   xmlns:cc="http://creativecommons.org/ns#"
   xmlns:dc="http://purl.org/dc/elements/1.1/">
  <defs
     id="defs10333">
    <marker
       style="overflow:visible"
       id="marker10185-38"
       refX="0"
       refY="0"
       orient="auto">
      <path
         transform="matrix(0.4,0,0,0.4,4,0)"
         style="fill-rule:evenodd;stroke:#000000;stroke-width:1.00000003pt;marker-start:none"
         d="M 0,0 5,-5 -12.5,0 5,5 Z"
         id="path10187-62" />
    </marker>
    <marker
       orient="auto"
       refY="0"
       refX="0"
       id="marker9715"
       style="overflow:visible">
      <path
         id="path9717"
         d="M 0,0 5,-5 -12.5,0 5,5 Z"
         style="fill-rule:evenodd;stroke:#000000;stroke-width:1.00000003pt;marker-start:none"
         transform="matrix(-0.4,0,0,-0.4,-4,0)" />
    </marker>
  </defs>
  <metadata
     id="metadata10336">
    <rdf:RDF>
      <cc:Work
         rdf:about="">
        <dc:format>image/svg+xml</dc:format>
        <dc:type
           rdf:resource="http://purl.org/dc/dcmitype/StillImage" />
        <dc:title />
      </cc:Work>
    </rdf:RDF>
  </metadata>
  <g
     id="layer1"
     transform="translate(-54.062418,-80.30302)">
    <g
       style="display:inline"
       transform="translate(-1984.252,7316.9294)"
       id="g87252">
      <path
         style="fill:#87cdde;fill-opacity:1;stroke:none"
         d="m 2090.5512,-7012.2047 h 492.5197 l 3.5433,-7.0867 3.5433,35.433 -3.5433,-7.0865 h -496.063 z"
         id="path8375" />
      <path
         id="path8373"
         d="m 2335.0394,-7083.0709 h 240.9449 l 3.5433,-7.0865 3.5433,35.433 -3.5433,-7.0866 h -240.9449 l -3.5433,7.0866 -3.5433,-35.433 z"
         style="fill:#87cdde;fill-opacity:1;stroke:none" />
      <path
         id="path8371"
         d="m 2540.5512,-7153.937 h 28.3465 l 3.5433,-7.0866 3.5433,35.433 -3.5433,-7.0866 h -28.3465 l -3.5433,7.0866 -3.5433,-35.433 z"
         style="fill:#87cdde;fill-opacity:1;stroke:none" />
      <path
         style="fill:#87cdde;fill-opacity:1;stroke:none"
         d="m 2292.5197,-7153.937 h 28.3465 l 3.5433,-7.0866 3.5433,35.433 -3.5433,-7.0866 h -28.3465 l -3.5433,7.0866 -3.5433,-35.433 z"
         id="path39521" />
      <path
         style="fill:#aa87de;fill-opacity:1;stroke:none"
         d="m 2629.1339,-7083.0709 h -35.4331 v 53.1496 h 35.4331 z"
         id="path8383" />
      <path
         id="path8381"
         d="m 2629.1339,-7012.2047 h -35.4331 v 63.7795 l 3.5433,-10.63 31.8898,1e-4 z"
         style="fill:#aa87de;fill-opacity:1;stroke:none" />
      <path
         id="path8369"
         d="m 2604.3307,-7207.0866 3.5433,-1e-4 v 28.3465 h 3.5433 l -7.0866,7.0866 -7.0866,-7.0866 h 3.5433 v -7.0354 l 3.5433,-0.051 z"
         style="fill:#cccccc;fill-opacity:1;stroke:none" />
      <path
         style="fill:#cccccc;fill-opacity:1;stroke:none"
         d="m 2356.2993,-7207.0868 3.5433,-1e-4 v 28.3465 h 3.5433 l -7.0866,7.0866 -7.0866,-7.0866 h 3.5433 v -7.0354 l 3.5433,-0.051 z"
         id="path8359" />
      <path
         id="path8361"
         d="m 2391.7324,-7207.0868 3.5433,-1e-4 v 28.3465 h 3.5433 l -7.0866,7.0866 -7.0866,-7.0866 h 3.5433 v -7.0354 l 3.5433,-0.051 z"
         style="fill:#cccccc;fill-opacity:1;stroke:none" />
      <path
         style="fill:#cccccc;fill-opacity:1;stroke:none"
         d="m 2427.1655,-7207.0868 3.5433,-1e-4 v 28.3465 h 3.5433 l -7.0866,7.0866 -7.0866,-7.0866 h 3.5433 v -7.0354 l 3.5433,-0.051 z"
         id="path8363" />
      <path
         id="path8365"
         d="m 2462.5986,-7207.0868 3.5433,-1e-4 v 28.3465 h 3.5433 l -7.0866,7.0866 -7.0866,-7.0866 h 3.5433 v -7.0354 l 3.5433,-0.051 z"
         style="fill:#cccccc;fill-opacity:1;stroke:none" />
      <path
         style="fill:#cccccc;fill-opacity:1;stroke:none"
         d="m 2498.0316,-7207.0868 3.5433,-1e-4 v 28.3465 h 3.5433 l -7.0866,7.0866 -7.0866,-7.0866 h 3.5433 v -7.0354 l 3.5433,-0.051 z"
         id="path8367" />
      <path
         id="path8349"
         d="m 2108.2677,-7207.0868 3.5433,-1e-4 v 28.3465 h 3.5433 l -7.0866,7.0866 -7.0866,-7.0866 h 3.5433 v -7.0354 l 3.5433,-0.051 z"
         style="fill:#cccccc;fill-opacity:1;stroke:none" />
      <path
         style="fill:#cccccc;fill-opacity:1;stroke:none"
         d="m 2143.7008,-7207.0868 3.5433,-1e-4 v 28.3465 h 3.5433 l -7.0866,7.0866 -7.0866,-7.0866 h 3.5433 v -7.0354 l 3.5433,-0.051 z"
         id="path8351" />
      <path
         id="path8353"
         d="m 2179.1339,-7207.0868 3.5433,-1e-4 v 28.3465 h 3.5433 l -7.0866,7.0866 -7.0866,-7.0866 h 3.5433 v -7.0354 l 3.5433,-0.051 z"
         style="fill:#cccccc;fill-opacity:1;stroke:none" />
      <path
         style="fill:#cccccc;fill-opacity:1;stroke:none"
         d="m 2214.567,-7207.0868 3.5433,-1e-4 v 28.3465 h 3.5433 l -7.0866,7.0866 -7.0866,-7.0866 h 3.5433 v -7.0354 l 3.5433,-0.051 z"
         id="path8355" />
      <path
         id="path8357"
         d="m 2250,-7207.0868 3.5433,-1e-4 v 28.3465 h 3.5433 l -7.0866,7.0866 -7.0866,-7.0866 h 3.5433 v -7.0354 l 3.5433,-0.051 z"
         style="fill:#cccccc;fill-opacity:1;stroke:none" />
      <path
         style="fill:#ff9955;fill-opacity:1;stroke:none"
         d="m 2568.8977,-7207.0866 3.5433,-1e-4 v 28.3465 h 3.5433 l -7.0866,7.0866 -7.0866,-7.0866 h 3.5433 v -7.0354 l 3.5433,-0.051 z"
         id="path8345" />
      <path
         id="path8347"
         d="m 2533.4646,-7207.0866 3.5433,-1e-4 v 28.3465 h 3.5433 l -7.0866,7.0866 -7.0866,-7.0866 h 3.5433 v -7.0354 l 3.5433,-0.051 z"
         style="fill:#ff9955;fill-opacity:1;stroke:none" />
      <path
         id="path8343"
         d="m 2320.8662,-7207.0866 3.5433,-1e-4 v 28.3465 h 3.5433 l -7.0866,7.0866 -7.0866,-7.0866 h 3.5433 v -7.0354 l 3.5433,-0.051 z"
         style="fill:#ff9955;fill-opacity:1;stroke:none" />
      <path
         style="fill:#aa87de;fill-opacity:1;stroke:none"
         d="m 2629.1339,-6941.3386 h -31.8898 l -3.5433,-7.0866 3.5433,35.4331 3.5433,-7.0866 h 28.3465 z"
         id="path8271" />
      <path
         id="path39545"
         d="m 2586.6142,-6994.4882 7.0866,21.2598 v 7.0867 h 3.5433 l -7.0866,7.0866 -7.0866,-7.0866 h 3.5433 z"
         style="fill:#ff9955;fill-opacity:1;stroke:none" />
      <path
         style="fill:#ff9955;fill-opacity:1;stroke:none"
         d="m 2579.5276,-7065.3544 7.0866,21.2599 v 7.0866 h 3.5433 l -7.0866,7.0866 -7.0866,-7.0866 h 3.5433 z"
         id="path39513" />
      <path
         id="path39535"
         d="m 2572.441,-7136.2205 7.0866,21.2599 v 7.0866 h 3.5433 l -7.0866,7.0866 -7.0866,-7.0866 h 3.5433 z"
         style="fill:#ff9955;fill-opacity:1;stroke:none" />
      <path
         style="fill:#ff9955;fill-opacity:1;stroke:none"
         d="m 2324.4095,-7136.2205 7.0866,21.2599 v 7.0866 h 3.5433 l -7.0866,7.0866 -7.0866,-7.0866 h 3.5433 z"
         id="path48950" />
      <path
         style="fill:#ff9955;fill-opacity:1;stroke:none"
         d="m 2285.4331,-7207.0866 3.5433,-1e-4 v 28.3465 h 3.5433 l -7.0866,7.0866 -7.0866,-7.0866 h 3.5433 v -7.0354 l 3.5433,-0.051 z"
         id="path39523" />
      <path
         id="path87682"
         d="m 2090.5512,-7044.0945 h 240.9449 l 7.0866,-21.2598 h 240.9449 l 7.0866,21.2598 h 42.5197"
         style="fill:#f5c500;fill-opacity:0.392157;stroke:#000000;stroke-width:1px;stroke-linecap:butt;stroke-linejoin:miter;stroke-opacity:1" />
      <path
         id="path87766"
         d="m 2090.5512,-6959.0551 h 499.6063 l 3.5433,10.6299 -3.5433,10.6299 h -499.6063 l 1e-4,-10.6298 z"
         style="fill:#f5c500;fill-opacity:0.392157;stroke:none" />
      <path
         id="path87744"
         d="m 2090.5512,-6994.4882 h 496.063 l 3.5433,10.6299 3.5433,10.6299 h -503.1496 l 1e-4,-10.6298 z"
         style="fill:#f5c500;fill-opacity:0.392157;stroke:none" />
      <path
         style="fill:#f5c500;fill-opacity:0.392157;stroke:#000000;stroke-width:1px;stroke-linecap:butt;stroke-linejoin:miter;stroke-opacity:1"
         d="m 2090.5512,-7114.9606 h 198.4252 l 7.0866,-21.2598 h 28.3465 l 7.0866,21.2598 c 0,0 205.5118,0 205.5118,0 l 7.0866,-21.2599 h 28.3464 l 7.0867,21.2599 h 49.6063"
         id="path87123" />
      <path
         style="fill:#f5c500;fill-opacity:0.392157;stroke:none"
         d="m 2090.5511,-7100.7874 h 237.4017 l 3.5433,10.6299 -3.5433,10.6299 h -237.4017 l 10e-5,-10.6299 z"
         id="path87246" />
      <path
         id="path87248"
         d="m 2335.0393,-7100.7874 h 240.945 l 3.5433,10.6299 -3.5433,10.6299 h -240.945 l -3.5432,-10.6299 z"
         style="fill:#f5c500;fill-opacity:0.392157;stroke:none" />
      <path
         style="fill:#f5c500;fill-opacity:0.392157;stroke:none"
         d="m 2583.0709,-7100.7874 h 46.063 v 10.6299 10.6299 h -46.063 l -3.5432,-10.6299 z"
         id="path87250" />
      <path
         style="fill:#f5c500;fill-opacity:0.392157;stroke:none"
         d="m 2090.5512,2405.9052 h 17.7165 l 3.5433,10.6299 -3.5433,10.6299 h -17.7165 v -10.6299 z"
         id="path87210"
         transform="translate(0,-9577.5587)" />
      <path
         id="path87212"
         d="m 2115.3543,-7171.6535 h 28.3465 l 3.5433,10.6299 -3.5433,10.6299 h -28.3465 l -3.5433,-10.6299 z"
         style="fill:#f5c500;fill-opacity:0.392157;stroke:none" />
      <path
         style="fill:#f5c500;fill-opacity:0.392157;stroke:none"
         d="m 2150.7874,-7171.6535 h 28.3465 l 3.5433,10.6299 -3.5433,10.6299 h -28.3465 l -3.5433,-10.6299 z"
         id="path87214" />
      <path
         id="path87216"
         d="m 2186.2205,-7171.6535 h 28.3465 l 3.5433,10.6299 -3.5433,10.6299 h -28.3465 l -3.5433,-10.6299 z"
         style="fill:#f5c500;fill-opacity:0.392157;stroke:none" />
      <path
         style="fill:#f5c500;fill-opacity:0.392157;stroke:none"
         d="M 2242.9134,-7171.6535 H 2250 l 3.5433,10.6299 -3.5433,10.6299 h -7.0866 v -10.6299 z"
         id="path87242" />
      <path
         id="path87244"
         d="m 2225.1969,-7171.6535 h -3.5434 l -3.5433,10.6299 3.5433,10.6299 h 3.5434 v -10.6299 z"
         style="fill:#ffeeaa;stroke:none" />
      <path
         style="fill:#f5c500;fill-opacity:0.392157;stroke:none"
         d="m 2257.0866,-7171.6535 h 28.3465 l 3.5433,10.6299 -3.5433,10.6299 h -28.3465 l -3.5433,-10.6299 z"
         id="path87218" />
      <path
         id="path87220"
         d="m 2292.5197,-7171.6535 h 28.3465 l 3.5433,10.6299 -3.5433,10.6299 h -28.3465 l -3.5433,-10.6299 z"
         style="fill:#f5c500;fill-opacity:0.392157;stroke:none" />
      <path
         id="path87222"
         d="m 2327.9528,-7171.6535 h 28.3465 l 3.5433,10.6299 -3.5433,10.6299 h -28.3465 l -3.5433,-10.6299 z"
         style="fill:#f5c500;fill-opacity:0.392157;stroke:none" />
      <path
         style="fill:#f5c500;fill-opacity:0.392157;stroke:none"
         d="m 2363.3859,-7171.6535 h 28.3465 l 3.5433,10.6299 -3.5433,10.6299 h -28.3465 l -3.5433,-10.6299 z"
         id="path87224" />
      <path
         style="fill:#f5c500;fill-opacity:0.392157;stroke:none"
         d="m 2398.8189,-7171.6535 h 28.3465 l 3.5433,10.6299 -3.5433,10.6299 h -28.3465 l -3.5433,-10.6299 z"
         id="path87226" />
      <path
         id="path87228"
         d="m 2434.252,-7171.6535 h 28.3465 l 3.5433,10.6299 -3.5433,10.6299 h -28.3465 l -3.5433,-10.6299 z"
         style="fill:#f5c500;fill-opacity:0.392157;stroke:none" />
      <path
         style="fill:#f5c500;fill-opacity:0.392157;stroke:none"
         d="m 2490.9449,-7171.6535 h 7.0866 l 3.5433,10.6299 -3.5433,10.6299 h -7.0866 v -10.6299 z"
         id="path87238" />
      <path
         id="path87240"
         d="m 2473.2283,-7171.6535 h -3.5432 l -3.5433,10.6299 3.5433,10.6299 h 3.5432 v -10.6299 z"
         style="fill:#f5c500;fill-opacity:0.392157;stroke:none" />
      <path
         id="path87230"
         d="m 2505.1181,-7171.6535 h 28.3465 l 3.5433,10.6299 -3.5433,10.6299 h -28.3465 l -3.5433,-10.6299 z"
         style="fill:#f5c500;fill-opacity:0.392157;stroke:none" />
      <path
         style="fill:#f5c500;fill-opacity:0.392157;stroke:none"
         d="m 2540.5512,-7171.6535 h 28.3465 l 3.5433,10.6299 -3.5433,10.6299 h -28.3465 l -3.5433,-10.6299 z"
         id="path87232" />
      <path
         style="fill:#f5c500;fill-opacity:0.392157;stroke:none"
         d="m 2575.9842,-7171.6535 h 28.3465 l 3.5433,10.6299 -3.5433,10.6299 h -28.3465 l -3.5433,-10.6299 z"
         id="path87234" />
      <path
         id="path87236"
         d="m 2611.4173,-7171.6535 h 17.7166 l -10e-5,10.6298 10e-5,10.63 h -17.7166 l -3.5433,-10.6299 z"
         style="fill:#f5c500;fill-opacity:0.392157;stroke:none" />
      <path
         d="m 2090.5512,-7185.8268 h 17.7165 v -21.2598 h 17.7165 v 21.2598 h 17.7166 v -21.2598 h 17.7165 v 21.2598 h 17.7165 v -21.2598 h 17.7165 v 21.2598 h 17.7166 v -21.2598 h 10.63 m 17.7165,21.2598 H 2250 v -21.2598 h 17.7165 v 21.2598 h 17.7166 v -21.2598 h 17.7165 v 21.2598 h 17.7165 v -21.2598 h 17.7165 v 21.2598 h 17.7166 v -21.2598 h 17.7165 l 1e-4,21.2598 h 17.7165 v -21.2598 h 17.7165 v 21.2598 h 17.7166 v -21.2598 h 17.7165 v 21.2598 h 17.7165 v -21.2598 h 10.6299 m 17.7166,21.2598 h 7.0866 v -21.2598 h 17.7165 l 10e-5,21.2598 h 17.7165 v -21.2598 h 17.7165 v 21.2598 h 17.7166 v -21.2598 h 17.7165 v 21.2598 h 17.7165 v -21.2598 h 17.7165 v 21.2598 h 7.0867"
         style="fill:none;stroke:#000000;stroke-width:1px;stroke-linecap:butt;stroke-linejoin:miter;stroke-opacity:1"
         id="path70748" />
      <g
         aria-label="clkms"
         id="text70764"
         style="line-height:0%;font-family:Iwona;-inkscape-font-specification:Iwona;text-align:end;letter-spacing:0px;word-spacing:0px;text-anchor:end">
        <path
           d="m 2056.0235,-7198.2431 v -0.756 c -0.576,-0.81 -1.512,-1.296 -2.52,-1.296 -2.25,0 -3.762,1.692 -3.762,4.23 0,2.538 1.512,4.23 3.762,4.23 0.936,0 1.818,-0.468 2.34,-1.242 v -0.756 c -0.612,0.918 -1.242,1.242 -2.34,1.242 -1.296,0 -2.178,-1.386 -2.178,-3.474 0,-2.088 0.882,-3.474 2.178,-3.474 1.116,0 1.872,0.396 2.52,1.296 z"
           style="font-size:18px;line-height:1.25"
           id="path142" />
        <path
           d="m 2061.2975,-7192.6451 v -0.54 c -0.342,0.288 -0.738,0.522 -1.188,0.522 -0.666,0 -0.792,-0.828 -0.792,-1.602 v -10.35 h -1.404 v 10.35 c 0,1.206 0.468,2.43 1.53,2.43 0.684,0 1.332,-0.342 1.854,-0.81 z"
           style="font-size:18px;line-height:1.25"
           id="path144" />
        <path
           d="m 2070.0635,-7192.0151 -4.176,-4.806 4.032,-3.294 h -1.116 l -4.302,3.528 v -8.028 h -1.404 v 12.6 h 1.404 v -4.482 l 3.888,4.482 z"
           style="font-size:18px;line-height:1.25"
           id="path146" />
        <path
           d="m 2077.5678,-7188.4151 v -3.8026 c 0,-0.819 -0.4798,-1.5795 -1.2403,-1.5795 -0.6552,0 -1.2636,0.3393 -1.6146,0.8892 -0.1872,-0.5148 -0.585,-0.8892 -1.1232,-0.8892 -0.6084,0 -1.0998,0.4212 -1.4976,0.8892 v -0.7722 h -0.9126 v 5.2651 h 0.9126 v -4.1419 c 0.2808,-0.3627 0.6318,-0.702 1.0881,-0.702 0.4797,0 0.7371,0.5148 0.7371,1.0413 v 3.8026 h 0.9126 v -3.8026 c 0,-0.1404 -0.012,-0.2691 -0.035,-0.4095 0.2808,-0.3627 0.6669,-0.6318 1.1232,-0.6318 0.4797,0 0.7371,0.5148 0.7371,1.0413 v 3.8026 z"
           style="font-size:65.0009%;baseline-shift:sub"
           id="path148" />
        <path
           d="m 2082.9381,-7189.9128 c 0,-0.9243 -0.9828,-1.404 -1.9422,-1.638 -0.5616,-0.1404 -1.17,-0.3744 -1.17,-0.9243 0,-0.5031 0.5148,-0.8307 1.0764,-0.8307 0.6201,0 1.2402,0.1872 1.755,0.5265 v -0.4914 c -0.5148,-0.3393 -1.1349,-0.5265 -1.755,-0.5265 -1.0179,0 -1.954,0.6201 -1.954,1.5678 0,0.8541 0.9478,1.2519 1.8487,1.4742 0.6201,0.1521 1.2636,0.4797 1.2636,1.0764 0,0.55 -0.5616,0.8893 -1.1583,0.8893 -0.7254,0 -1.4274,-0.1755 -2.0476,-0.5265 v 0.4914 c 0.6202,0.351 1.3222,0.5265 2.0476,0.5265 1.053,0 2.0358,-0.6318 2.0358,-1.6147 z"
           style="font-size:65.0009%;baseline-shift:sub"
           id="path150" />
      </g>
      <g
         aria-label="ms"
         id="text70772"
         style="line-height:0%;font-family:Iwona;-inkscape-font-specification:Iwona;text-align:end;letter-spacing:0px;word-spacing:0px;text-anchor:end">
        <path
           d="m 2074.3926,-7156.9736 v -5.85 c 0,-1.26 -0.738,-2.43 -1.908,-2.43 -1.008,0 -1.944,0.522 -2.484,1.368 -0.288,-0.792 -0.9,-1.368 -1.728,-1.368 -0.936,0 -1.692,0.648 -2.304,1.368 v -1.188 h -1.404 v 8.1 h 1.404 v -6.372 c 0.432,-0.558 0.972,-1.08 1.674,-1.08 0.738,0 1.134,0.792 1.134,1.602 v 5.85 h 1.404 v -5.85 c 0,-0.216 -0.018,-0.414 -0.054,-0.63 0.432,-0.558 1.026,-0.972 1.728,-0.972 0.738,0 1.134,0.792 1.134,1.602 v 5.85 z"
           style="font-size:18px;line-height:1.25"
           id="path153" />
        <path
           d="m 2082.6546,-7159.2776 c 0,-1.422 -1.512,-2.16 -2.988,-2.52 -0.864,-0.216 -1.8,-0.576 -1.8,-1.422 0,-0.774 0.792,-1.278 1.656,-1.278 0.954,0 1.908,0.288 2.7,0.81 v -0.756 c -0.792,-0.522 -1.746,-0.81 -2.7,-0.81 -1.566,0 -3.006,0.954 -3.006,2.412 0,1.314 1.458,1.926 2.844,2.268 0.954,0.234 1.944,0.738 1.944,1.656 0,0.846 -0.864,1.368 -1.782,1.368 -1.116,0 -2.196,-0.27 -3.15,-0.81 v 0.756 c 0.954,0.54 2.034,0.81 3.15,0.81 1.62,0 3.132,-0.972 3.132,-2.484 z"
           style="font-size:18px;line-height:1.25"
           id="path155" />
      </g>
      <g
         aria-label="0"
         id="text70778"
         style="line-height:0%;font-family:Iwona;-inkscape-font-specification:Iwona;letter-spacing:0px;word-spacing:0px">
        <path
           d="m 2100.8425,-7161.0238 c 0,-3.318 -1.022,-4.97 -3.066,-4.97 -2.044,0 -3.066,1.652 -3.066,4.97 0,3.318 1.022,4.97 3.066,4.97 2.044,0 3.066,-1.652 3.066,-4.97 z m -1.232,0 c 0,2.926 -0.616,4.382 -1.834,4.382 -1.218,0 -1.834,-1.456 -1.834,-4.382 0,-2.926 0.616,-4.382 1.834,-4.382 1.218,0 1.834,1.456 1.834,4.382 z"
           style="font-size:14px;line-height:1.25"
           id="path158" />
      </g>
      <g
         aria-label="1"
         id="text70782"
         style="line-height:0%;font-family:Iwona;-inkscape-font-specification:Iwona;letter-spacing:0px;word-spacing:0px">
        <path
           d="m 2123.5177,-7156.1938 v -9.66 h -0.812 c -0.77,0.882 -1.68,1.638 -2.688,2.226 v 0.588 c 0.854,-0.406 1.652,-0.882 2.408,-1.456 v 8.302 z"
           style="font-size:14px;line-height:1.25"
           id="path161" />
      </g>
      <g
         aria-label="3"
         id="text70786"
         style="line-height:0%;font-family:Iwona;-inkscape-font-specification:Iwona;letter-spacing:0px;word-spacing:0px">
        <path
           d="m 2196.4137,-7158.8538 c 0,-1.232 -0.868,-2.296 -2.072,-2.66 1.064,-0.308 1.722,-1.106 1.722,-2.17 0,-1.386 -1.12,-2.31 -2.8,-2.31 -0.91,0 -1.792,0.308 -2.506,0.868 v 0.588 c 0.714,-0.56 1.596,-0.868 2.506,-0.868 1.022,0 1.708,0.686 1.708,1.722 0,1.666 -0.77,2.1 -2.52,2.1 v 0.518 c 1.89,0 2.73,0.448 2.73,2.212 0,1.218 -0.784,2.212 -1.736,2.212 -1.064,0 -2.1,-0.308 -2.982,-0.868 v 0.588 c 0.882,0.56 1.918,0.868 2.982,0.868 1.624,0 2.968,-1.26 2.968,-2.8 z"
           style="font-size:14px;line-height:1.25"
           id="path164" />
      </g>
      <g
         aria-label="2"
         id="text70790"
         style="line-height:0%;font-family:Iwona;-inkscape-font-specification:Iwona;letter-spacing:0px;word-spacing:0px">
        <path
           d="m 2160.9808,-7156.1235 v -0.868 h -4.942 l 2.576,-2.548 c 1.148,-1.148 2.226,-2.492 2.226,-4.116 0,-1.372 -1.358,-2.268 -2.828,-2.268 -1.106,0 -2.156,0.504 -2.842,1.358 v 0.588 c 0.714,-0.826 1.75,-1.302 2.842,-1.302 0.938,0 1.736,0.7 1.736,1.624 0,1.386 -0.644,2.674 -1.596,3.668 l -3.122,3.206 v 0.658 z"
           style="font-size:14px;line-height:1.25"
           id="path167" />
      </g>
      <g
         aria-label="998"
         id="text70798"
         style="line-height:0%;font-family:Iwona;-inkscape-font-specification:Iwona;letter-spacing:0px;word-spacing:0px">
        <path
           d="m 2267.2799,-7161.0238 c 0,-3.472 -0.896,-4.97 -2.968,-4.97 -1.792,0 -2.982,1.316 -2.982,3.29 0,2.016 0.798,3.29 2.674,3.29 0.812,0 1.568,-0.378 2.044,-1.022 0,1.834 -0.462,3.794 -2.044,3.794 -0.714,0 -1.414,-0.238 -1.974,-0.686 v 0.588 c 0.56,0.448 1.26,0.686 1.974,0.686 2.198,0 3.276,-2.492 3.276,-4.97 z m -1.232,0 c -0.476,0.644 -1.232,1.022 -2.044,1.022 -1.12,0 -1.442,-1.4 -1.442,-2.702 0,-1.624 0.7,-2.702 1.75,-2.702 1.946,0 1.736,2.114 1.736,4.382 z"
           style="font-size:14px;line-height:1.25"
           id="path170" />
        <path
           d="m 2274.6299,-7161.0238 c 0,-3.472 -0.896,-4.97 -2.968,-4.97 -1.792,0 -2.982,1.316 -2.982,3.29 0,2.016 0.798,3.29 2.674,3.29 0.812,0 1.568,-0.378 2.044,-1.022 0,1.834 -0.462,3.794 -2.044,3.794 -0.714,0 -1.414,-0.238 -1.974,-0.686 v 0.588 c 0.56,0.448 1.26,0.686 1.974,0.686 2.198,0 3.276,-2.492 3.276,-4.97 z m -1.232,0 c -0.476,0.644 -1.232,1.022 -2.044,1.022 -1.12,0 -1.442,-1.4 -1.442,-2.702 0,-1.624 0.7,-2.702 1.75,-2.702 1.946,0 1.736,2.114 1.736,4.382 z"
           style="font-size:14px;line-height:1.25"
           id="path172" />
        <path
           d="m 2281.9799,-7158.8958 c 0,-1.316 -0.63,-2.254 -1.708,-2.646 0.91,-0.336 1.428,-1.092 1.428,-2.114 0,-1.456 -1.022,-2.338 -2.688,-2.338 -1.68,0 -2.702,0.882 -2.702,2.338 0,1.022 0.518,1.778 1.428,2.114 -1.078,0.392 -1.708,1.33 -1.708,2.646 0,1.764 1.134,2.842 2.982,2.842 1.834,0 2.968,-1.078 2.968,-2.842 z m -1.372,-4.76 c 0,1.078 -0.616,1.75 -1.596,1.75 -0.994,0 -1.61,-0.672 -1.61,-1.75 0,-1.092 0.616,-1.75 1.61,-1.75 0.98,0 1.596,0.658 1.596,1.75 z m 0.14,4.76 c 0,1.4 -0.658,2.254 -1.736,2.254 -1.092,0 -1.75,-0.854 -1.75,-2.254 0,-1.4 0.658,-2.254 1.75,-2.254 1.078,0 1.736,0.854 1.736,2.254 z"
           style="font-size:14px;line-height:1.25"
           id="path174" />
      </g>
      <g
         aria-label="999"
         id="text70806"
         style="line-height:0%;font-family:Iwona;-inkscape-font-specification:Iwona;letter-spacing:0px;word-spacing:0px">
        <path
           d="m 2302.7132,-7161.0238 c 0,-3.472 -0.896,-4.97 -2.968,-4.97 -1.792,0 -2.982,1.316 -2.982,3.29 0,2.016 0.798,3.29 2.674,3.29 0.812,0 1.568,-0.378 2.044,-1.022 0,1.834 -0.462,3.794 -2.044,3.794 -0.714,0 -1.414,-0.238 -1.974,-0.686 v 0.588 c 0.56,0.448 1.26,0.686 1.974,0.686 2.198,0 3.276,-2.492 3.276,-4.97 z m -1.232,0 c -0.476,0.644 -1.232,1.022 -2.044,1.022 -1.12,0 -1.442,-1.4 -1.442,-2.702 0,-1.624 0.7,-2.702 1.75,-2.702 1.946,0 1.736,2.114 1.736,4.382 z"
           style="font-size:14px;line-height:1.25"
           id="path177" />
        <path
           d="m 2310.0632,-7161.0238 c 0,-3.472 -0.896,-4.97 -2.968,-4.97 -1.792,0 -2.982,1.316 -2.982,3.29 0,2.016 0.798,3.29 2.674,3.29 0.812,0 1.568,-0.378 2.044,-1.022 0,1.834 -0.462,3.794 -2.044,3.794 -0.714,0 -1.414,-0.238 -1.974,-0.686 v 0.588 c 0.56,0.448 1.26,0.686 1.974,0.686 2.198,0 3.276,-2.492 3.276,-4.97 z m -1.232,0 c -0.476,0.644 -1.232,1.022 -2.044,1.022 -1.12,0 -1.442,-1.4 -1.442,-2.702 0,-1.624 0.7,-2.702 1.75,-2.702 1.946,0 1.736,2.114 1.736,4.382 z"
           style="font-size:14px;line-height:1.25"
           id="path179" />
        <path
           d="m 2317.4132,-7161.0238 c 0,-3.472 -0.896,-4.97 -2.968,-4.97 -1.792,0 -2.982,1.316 -2.982,3.29 0,2.016 0.798,3.29 2.674,3.29 0.812,0 1.568,-0.378 2.044,-1.022 0,1.834 -0.462,3.794 -2.044,3.794 -0.714,0 -1.414,-0.238 -1.974,-0.686 v 0.588 c 0.56,0.448 1.26,0.686 1.974,0.686 2.198,0 3.276,-2.492 3.276,-4.97 z m -1.232,0 c -0.476,0.644 -1.232,1.022 -2.044,1.022 -1.12,0 -1.442,-1.4 -1.442,-2.702 0,-1.624 0.7,-2.702 1.75,-2.702 1.946,0 1.736,2.114 1.736,4.382 z"
           style="font-size:14px;line-height:1.25"
           id="path181" />
      </g>
      <g
         aria-label="1"
         id="text70810"
         style="line-height:0%;font-family:Iwona;-inkscape-font-specification:Iwona;letter-spacing:0px;word-spacing:0px">
        <path
           d="m 2371.5492,-7156.1938 v -9.66 h -0.812 c -0.77,0.882 -1.68,1.638 -2.688,2.226 v 0.588 c 0.854,-0.406 1.652,-0.882 2.408,-1.456 v 8.302 z"
           style="font-size:14px;line-height:1.25"
           id="path184" />
      </g>
      <g
         aria-label="0"
         id="text70814"
         style="line-height:0%;font-family:Iwona;-inkscape-font-specification:Iwona;letter-spacing:0px;word-spacing:0px">
        <path
           d="m 2352.4172,-7161.0238 c 0,-3.318 -1.022,-4.97 -3.066,-4.97 -2.044,0 -3.066,1.652 -3.066,4.97 0,3.318 1.022,4.97 3.066,4.97 2.044,0 3.066,-1.652 3.066,-4.97 z m -1.232,0 c 0,2.926 -0.616,4.382 -1.834,4.382 -1.218,0 -1.834,-1.456 -1.834,-4.382 0,-2.926 0.616,-4.382 1.834,-4.382 1.218,0 1.834,1.456 1.834,4.382 z"
           style="font-size:14px;line-height:1.25"
           id="path187" />
      </g>
      <g
         aria-label="2"
         id="text70818"
         style="line-height:0%;font-family:Iwona;-inkscape-font-specification:Iwona;letter-spacing:0px;word-spacing:0px">
        <path
           d="m 2409.0125,-7156.1235 v -0.868 h -4.942 l 2.576,-2.548 c 1.148,-1.148 2.226,-2.492 2.226,-4.116 0,-1.372 -1.358,-2.268 -2.828,-2.268 -1.106,0 -2.156,0.504 -2.842,1.358 v 0.588 c 0.714,-0.826 1.75,-1.302 2.842,-1.302 0.938,0 1.736,0.7 1.736,1.624 0,1.386 -0.644,2.674 -1.596,3.668 l -3.122,3.206 v 0.658 z"
           style="font-size:14px;line-height:1.25"
           id="path190" />
      </g>
      <g
         aria-label="3"
         id="text70826"
         style="line-height:0%;font-family:Iwona;-inkscape-font-specification:Iwona;letter-spacing:0px;word-spacing:0px">
        <path
           d="m 2444.4457,-7158.8538 c 0,-1.232 -0.868,-2.296 -2.072,-2.66 1.064,-0.308 1.722,-1.106 1.722,-2.17 0,-1.386 -1.12,-2.31 -2.8,-2.31 -0.91,0 -1.792,0.308 -2.506,0.868 v 0.588 c 0.714,-0.56 1.596,-0.868 2.506,-0.868 1.022,0 1.708,0.686 1.708,1.722 0,1.666 -0.77,2.1 -2.52,2.1 v 0.518 c 1.89,0 2.73,0.448 2.73,2.212 0,1.218 -0.784,2.212 -1.736,2.212 -1.064,0 -2.1,-0.308 -2.982,-0.868 v 0.588 c 0.882,0.56 1.918,0.868 2.982,0.868 1.624,0 2.968,-1.26 2.968,-2.8 z"
           style="font-size:14px;line-height:1.25"
           id="path193" />
      </g>
      <g
         aria-label="998"
         id="text70830"
         style="line-height:0%;font-family:Iwona;-inkscape-font-specification:Iwona;letter-spacing:0px;word-spacing:0px">
        <path
           d="m 2515.3116,-7161.0238 c 0,-3.472 -0.896,-4.97 -2.968,-4.97 -1.792,0 -2.982,1.316 -2.982,3.29 0,2.016 0.798,3.29 2.674,3.29 0.812,0 1.568,-0.378 2.044,-1.022 0,1.834 -0.462,3.794 -2.044,3.794 -0.714,0 -1.414,-0.238 -1.974,-0.686 v 0.588 c 0.56,0.448 1.26,0.686 1.974,0.686 2.198,0 3.276,-2.492 3.276,-4.97 z m -1.232,0 c -0.476,0.644 -1.232,1.022 -2.044,1.022 -1.12,0 -1.442,-1.4 -1.442,-2.702 0,-1.624 0.7,-2.702 1.75,-2.702 1.946,0 1.736,2.114 1.736,4.382 z"
           style="font-size:14px;line-height:1.25"
           id="path196" />
        <path
           d="m 2522.6616,-7161.0238 c 0,-3.472 -0.896,-4.97 -2.968,-4.97 -1.792,0 -2.982,1.316 -2.982,3.29 0,2.016 0.798,3.29 2.674,3.29 0.812,0 1.568,-0.378 2.044,-1.022 0,1.834 -0.462,3.794 -2.044,3.794 -0.714,0 -1.414,-0.238 -1.974,-0.686 v 0.588 c 0.56,0.448 1.26,0.686 1.974,0.686 2.198,0 3.276,-2.492 3.276,-4.97 z m -1.232,0 c -0.476,0.644 -1.232,1.022 -2.044,1.022 -1.12,0 -1.442,-1.4 -1.442,-2.702 0,-1.624 0.7,-2.702 1.75,-2.702 1.946,0 1.736,2.114 1.736,4.382 z"
           style="font-size:14px;line-height:1.25"
           id="path198" />
        <path
           d="m 2530.0116,-7158.8958 c 0,-1.316 -0.63,-2.254 -1.708,-2.646 0.91,-0.336 1.428,-1.092 1.428,-2.114 0,-1.456 -1.022,-2.338 -2.688,-2.338 -1.68,0 -2.702,0.882 -2.702,2.338 0,1.022 0.518,1.778 1.428,2.114 -1.078,0.392 -1.708,1.33 -1.708,2.646 0,1.764 1.134,2.842 2.982,2.842 1.834,0 2.968,-1.078 2.968,-2.842 z m -1.372,-4.76 c 0,1.078 -0.616,1.75 -1.596,1.75 -0.994,0 -1.61,-0.672 -1.61,-1.75 0,-1.092 0.616,-1.75 1.61,-1.75 0.98,0 1.596,0.658 1.596,1.75 z m 0.14,4.76 c 0,1.4 -0.658,2.254 -1.736,2.254 -1.092,0 -1.75,-0.854 -1.75,-2.254 0,-1.4 0.658,-2.254 1.75,-2.254 1.078,0 1.736,0.854 1.736,2.254 z"
           style="font-size:14px;line-height:1.25"
           id="path200" />
      </g>
      <g
         aria-label="0"
         id="text70834"
         style="line-height:0%;font-family:Iwona;-inkscape-font-specification:Iwona;letter-spacing:0px;word-spacing:0px">
        <path
           d="m 2586.2756,-7161.0238 c 0,-3.318 -1.022,-4.97 -3.066,-4.97 -2.044,0 -3.066,1.652 -3.066,4.97 0,3.318 1.022,4.97 3.066,4.97 2.044,0 3.066,-1.652 3.066,-4.97 z m -1.232,0 c 0,2.926 -0.616,4.382 -1.834,4.382 -1.218,0 -1.834,-1.456 -1.834,-4.382 0,-2.926 0.616,-4.382 1.834,-4.382 1.218,0 1.834,1.456 1.834,4.382 z"
           style="font-size:14px;line-height:1.25"
           id="path203" />
      </g>
      <g
         aria-label="999"
         id="text70838"
         style="line-height:0%;font-family:Iwona;-inkscape-font-specification:Iwona;letter-spacing:0px;word-spacing:0px">
        <path
           d="m 2550.7447,-7161.0238 c 0,-3.472 -0.896,-4.97 -2.968,-4.97 -1.792,0 -2.982,1.316 -2.982,3.29 0,2.016 0.798,3.29 2.674,3.29 0.812,0 1.568,-0.378 2.044,-1.022 0,1.834 -0.462,3.794 -2.044,3.794 -0.714,0 -1.414,-0.238 -1.974,-0.686 v 0.588 c 0.56,0.448 1.26,0.686 1.974,0.686 2.198,0 3.276,-2.492 3.276,-4.97 z m -1.232,0 c -0.476,0.644 -1.232,1.022 -2.044,1.022 -1.12,0 -1.442,-1.4 -1.442,-2.702 0,-1.624 0.7,-2.702 1.75,-2.702 1.946,0 1.736,2.114 1.736,4.382 z"
           style="font-size:14px;line-height:1.25"
           id="path206" />
        <path
           d="m 2558.0947,-7161.0238 c 0,-3.472 -0.896,-4.97 -2.968,-4.97 -1.792,0 -2.982,1.316 -2.982,3.29 0,2.016 0.798,3.29 2.674,3.29 0.812,0 1.568,-0.378 2.044,-1.022 0,1.834 -0.462,3.794 -2.044,3.794 -0.714,0 -1.414,-0.238 -1.974,-0.686 v 0.588 c 0.56,0.448 1.26,0.686 1.974,0.686 2.198,0 3.276,-2.492 3.276,-4.97 z m -1.232,0 c -0.476,0.644 -1.232,1.022 -2.044,1.022 -1.12,0 -1.442,-1.4 -1.442,-2.702 0,-1.624 0.7,-2.702 1.75,-2.702 1.946,0 1.736,2.114 1.736,4.382 z"
           style="font-size:14px;line-height:1.25"
           id="path208" />
        <path
           d="m 2565.4447,-7161.0238 c 0,-3.472 -0.896,-4.97 -2.968,-4.97 -1.792,0 -2.982,1.316 -2.982,3.29 0,2.016 0.798,3.29 2.674,3.29 0.812,0 1.568,-0.378 2.044,-1.022 0,1.834 -0.462,3.794 -2.044,3.794 -0.714,0 -1.414,-0.238 -1.974,-0.686 v 0.588 c 0.56,0.448 1.26,0.686 1.974,0.686 2.198,0 3.276,-2.492 3.276,-4.97 z m -1.232,0 c -0.476,0.644 -1.232,1.022 -2.044,1.022 -1.12,0 -1.442,-1.4 -1.442,-2.702 0,-1.624 0.7,-2.702 1.75,-2.702 1.946,0 1.736,2.114 1.736,4.382 z"
           style="font-size:14px;line-height:1.25"
           id="path210" />
      </g>
      <g
         aria-label="1"
         id="text70842"
         style="line-height:0%;font-family:Iwona;-inkscape-font-specification:Iwona;letter-spacing:0px;word-spacing:0px">
        <path
           d="m 2619.5807,-7156.1938 v -9.66 h -0.812 c -0.77,0.882 -1.68,1.638 -2.688,2.226 v 0.588 c 0.854,-0.406 1.652,-0.882 2.408,-1.456 v 8.302 z"
           style="font-size:14px;line-height:1.25"
           id="path213" />
      </g>
      <path
         id="path70846"
         style="fill:none;stroke:#000000;stroke-width:1px;stroke-linecap:butt;stroke-linejoin:miter;stroke-opacity:1"
         d="m 2090.5512,-7171.6535 h 17.7165 l 7.0866,21.2598 h 28.3465 l 7.0866,-21.2598 h 28.3465 l 7.0866,21.2598 h 28.3465 l 7.0866,-21.2598 h 3.5433 m 17.7165,0 H 2250 l 7.0866,21.2598 h 28.3465 l 7.0866,-21.2598 h 28.3465 l 7.0866,21.2598 h 28.3465 l 7.0866,-21.2598 h 28.3464 l 7.0866,21.2598 h 28.3465 l 7.0866,-21.2598 h 28.3465 l 7.0866,21.2598 h 3.5432 m 17.7166,0 h 7.0867 l 7.0866,-21.2598 h 28.3464 l 7.0866,21.2598 h 28.3465 l 7.0866,-21.2598 h 28.3465 l 7.0866,21.2598 h 17.7165 m -538.5827,0 h 17.7165 l 7.0866,-21.2598 h 28.3465 l 7.0866,21.2598 h 28.3465 l 7.0866,-21.2598 h 28.3465 l 7.0866,21.2598 h 3.5433 m 17.7165,0 H 2250 l 7.0866,-21.2598 h 28.3465 l 7.0866,21.2598 h 28.3465 l 7.0866,-21.2598 h 28.3465 l 7.0866,21.2598 h 28.3464 l 7.0866,-21.2598 h 28.3465 l 7.0866,21.2598 h 28.3465 l 7.0866,-21.2598 h 3.5432 m 17.7166,0 h 7.0867 l 7.0866,21.2598 h 28.3464 l 7.0866,-21.2598 h 28.3465 l 7.0866,21.2598 h 28.3465 l 7.0866,-21.2598 h 17.7165" />
      <g
         aria-label="clksec"
         id="text87125"
         style="line-height:0%;font-family:Iwona;-inkscape-font-specification:Iwona;text-align:end;letter-spacing:0px;word-spacing:0px;text-anchor:end">
        <path
           d="m 2053.4495,-7127.3769 v -0.756 c -0.576,-0.81 -1.512,-1.296 -2.52,-1.296 -2.25,0 -3.762,1.692 -3.762,4.23 0,2.538 1.512,4.23 3.762,4.23 0.936,0 1.818,-0.468 2.34,-1.242 v -0.756 c -0.612,0.918 -1.242,1.242 -2.34,1.242 -1.296,0 -2.178,-1.386 -2.178,-3.474 0,-2.088 0.882,-3.474 2.178,-3.474 1.116,0 1.872,0.396 2.52,1.296 z"
           style="font-size:18px;line-height:1.25"
           id="path216" />
        <path
           d="m 2058.7235,-7121.7789 v -0.54 c -0.342,0.288 -0.738,0.522 -1.188,0.522 -0.666,0 -0.792,-0.828 -0.792,-1.602 v -10.35 h -1.404 v 10.35 c 0,1.206 0.468,2.43 1.53,2.43 0.684,0 1.332,-0.342 1.854,-0.81 z"
           style="font-size:18px;line-height:1.25"
           id="path218" />
        <path
           d="m 2067.4894,-7121.1489 -4.176,-4.806 4.032,-3.294 h -1.116 l -4.302,3.528 v -8.028 h -1.404 v 12.6 h 1.404 v -4.482 l 3.888,4.482 z"
           style="font-size:18px;line-height:1.25"
           id="path220" />
        <path
           d="m 2072.1623,-7119.0465 c 0,-0.9244 -0.9828,-1.4041 -1.9422,-1.6381 -0.5617,-0.1404 -1.1701,-0.3744 -1.1701,-0.9243 0,-0.5031 0.5148,-0.8307 1.0765,-0.8307 0.6201,0 1.2402,0.1872 1.755,0.5265 v -0.4914 c -0.5148,-0.3393 -1.1349,-0.5265 -1.755,-0.5265 -1.018,0 -1.954,0.6201 -1.954,1.5678 0,0.8541 0.9477,1.2519 1.8487,1.4742 0.6201,0.1521 1.2636,0.4797 1.2636,1.0765 0,0.5499 -0.5616,0.8892 -1.1583,0.8892 -0.7255,0 -1.4275,-0.1755 -2.0476,-0.5265 v 0.4914 c 0.6201,0.351 1.3221,0.5265 2.0476,0.5265 1.053,0 2.0358,-0.6318 2.0358,-1.6146 z"
           style="font-size:65.0009%;baseline-shift:sub"
           id="path222" />
        <path
           d="m 2077.8603,-7120.0645 v -0.117 c 0,-1.6497 -0.901,-2.7495 -2.2582,-2.7495 -1.3689,0 -2.2698,1.0998 -2.2698,2.7495 0,1.6498 0.9009,2.7496 2.2698,2.7496 0.585,0 1.1583,-0.1872 1.638,-0.5265 v -0.4914 c -0.5499,0.351 -0.9945,0.4797 -1.638,0.4797 -0.9945,0 -1.2402,-0.9477 -1.2402,-2.0944 z m -1.0297,-0.4914 h -2.4687 c 0,-0.936 0.3978,-1.8837 1.2402,-1.8837 0.8307,0 1.2285,0.9477 1.2285,1.8837 z"
           style="font-size:65.0009%;baseline-shift:sub"
           id="path224" />
        <path
           d="m 2083.1721,-7121.5972 v -0.4914 c -0.3744,-0.5265 -0.9828,-0.8424 -1.638,-0.8424 -1.4625,0 -2.4453,1.0998 -2.4453,2.7495 0,1.6498 0.9828,2.7496 2.4453,2.7496 0.6084,0 1.1817,-0.3042 1.521,-0.8073 v -0.4914 c -0.3978,0.5967 -0.8073,0.8073 -1.521,0.8073 -0.8424,0 -1.4157,-0.9009 -1.4157,-2.2582 0,-1.3572 0.5733,-2.2581 1.4157,-2.2581 0.7254,0 1.2168,0.2574 1.638,0.8424 z"
           style="font-size:65.0009%;baseline-shift:sub"
           id="path226" />
      </g>
      <g
         aria-label="1 ms"
         id="text66093-9"
         style="line-height:0%;font-family:Iwona;-inkscape-font-specification:Sans;text-align:center;letter-spacing:0px;word-spacing:0px;text-anchor:middle;display:inline">
        <path
           d="m 2153.4493,-7221.2598 v -8.28 h -0.696 c -0.66,0.756 -1.44,1.404 -2.304,1.908 v 0.504 c 0.732,-0.348 1.416,-0.756 2.064,-1.248 v 7.116 z"
           style="font-size:12px;line-height:1.25"
           id="path229" />
        <path
           d="m 2167.2972,-7221.2598 v -3.9 c 0,-0.84 -0.492,-1.62 -1.272,-1.62 -0.672,0 -1.296,0.348 -1.656,0.912 -0.192,-0.528 -0.6,-0.912 -1.152,-0.912 -0.624,0 -1.128,0.432 -1.536,0.912 v -0.792 h -0.936 v 5.4 h 0.936 v -4.248 c 0.288,-0.372 0.648,-0.72 1.116,-0.72 0.492,0 0.756,0.528 0.756,1.068 v 3.9 h 0.936 v -3.9 c 0,-0.144 -0.012,-0.276 -0.036,-0.42 0.288,-0.372 0.684,-0.648 1.152,-0.648 0.492,0 0.756,0.528 0.756,1.068 v 3.9 z"
           style="font-size:12px;line-height:1.25"
           id="path231" />
        <path
           d="m 2172.8052,-7222.7958 c 0,-0.948 -1.008,-1.44 -1.992,-1.68 -0.576,-0.144 -1.2,-0.384 -1.2,-0.948 0,-0.516 0.528,-0.852 1.104,-0.852 0.636,0 1.272,0.192 1.8,0.54 v -0.504 c -0.528,-0.348 -1.164,-0.54 -1.8,-0.54 -1.044,0 -2.004,0.636 -2.004,1.608 0,0.876 0.972,1.284 1.896,1.512 0.636,0.156 1.296,0.492 1.296,1.104 0,0.564 -0.576,0.912 -1.188,0.912 -0.744,0 -1.464,-0.18 -2.1,-0.54 v 0.504 c 0.636,0.36 1.356,0.54 2.1,0.54 1.08,0 2.088,-0.648 2.088,-1.656 z"
           style="font-size:12px;line-height:1.25"
           id="path233" />
      </g>
      <path
         id="path25504-9"
         d="m 2143.9761,-7214.1732 h 35.4331"
         style="display:inline;fill:none;stroke:#000000;stroke-width:0.999213;stroke-linecap:butt;stroke-linejoin:miter;stroke-miterlimit:4;stroke-dasharray:none;stroke-opacity:1;marker-start:url(#marker10185-38);marker-end:url(#marker9715)" />
      <g
         aria-label="sec"
         id="text87181"
         style="line-height:0%;font-family:Iwona;-inkscape-font-specification:Iwona;text-align:end;letter-spacing:0px;word-spacing:0px;text-anchor:end">
        <path
           d="m 2066.0767,-7088.4114 c 0,-1.422 -1.512,-2.16 -2.988,-2.52 -0.864,-0.216 -1.8,-0.576 -1.8,-1.422 0,-0.774 0.792,-1.278 1.656,-1.278 0.954,0 1.908,0.288 2.7,0.81 v -0.756 c -0.792,-0.522 -1.746,-0.81 -2.7,-0.81 -1.566,0 -3.006,0.954 -3.006,2.412 0,1.314 1.458,1.926 2.844,2.268 0.954,0.234 1.944,0.738 1.944,1.656 0,0.846 -0.864,1.368 -1.782,1.368 -1.116,0 -2.196,-0.27 -3.15,-0.81 v 0.756 c 0.954,0.54 2.034,0.81 3.15,0.81 1.62,0 3.132,-0.972 3.132,-2.484 z"
           style="font-size:18px;line-height:1.25"
           id="path236" />
        <path
           d="m 2074.8426,-7089.9774 v -0.18 c 0,-2.538 -1.386,-4.23 -3.474,-4.23 -2.106,0 -3.492,1.692 -3.492,4.23 0,2.538 1.386,4.23 3.492,4.23 0.9,0 1.782,-0.288 2.52,-0.81 v -0.756 c -0.846,0.54 -1.53,0.738 -2.52,0.738 -1.53,0 -1.908,-1.458 -1.908,-3.222 z m -1.584,-0.756 h -3.798 c 0,-1.44 0.612,-2.898 1.908,-2.898 1.278,0 1.89,1.458 1.89,2.898 z"
           style="font-size:18px;line-height:1.25"
           id="path238" />
        <path
           d="m 2083.0146,-7092.3354 v -0.756 c -0.576,-0.81 -1.512,-1.296 -2.52,-1.296 -2.25,0 -3.762,1.692 -3.762,4.23 0,2.538 1.512,4.23 3.762,4.23 0.936,0 1.818,-0.468 2.34,-1.242 v -0.756 c -0.612,0.918 -1.242,1.242 -2.34,1.242 -1.296,0 -2.178,-1.386 -2.178,-3.474 0,-2.088 0.882,-3.474 2.178,-3.474 1.116,0 1.872,0.396 2.52,1.296 z"
           style="font-size:18px;line-height:1.25"
           id="path240" />
      </g>
      <path
         id="path87187"
         style="fill:none;stroke:#000000;stroke-width:1px;stroke-linecap:butt;stroke-linejoin:miter;stroke-opacity:1"
         d="m 2090.5512,-7100.7874 h 237.4016 l 7.0866,21.2598 h 240.9449 l 7.0866,-21.2598 h 46.063 m -538.5827,21.2598 h 237.4016 l 7.0866,-21.2598 h 240.9449 l 7.0866,21.2598 h 46.063" />
      <g
         aria-label="58"
         id="text87189"
         style="line-height:0%;font-family:Iwona;-inkscape-font-specification:Iwona;letter-spacing:0px;word-spacing:0px">
        <path
           d="m 2295.6263,-7088.4776 c 0,-1.974 -1.19,-3.29 -2.968,-3.29 -0.812,0 -1.568,0.308 -2.156,0.826 l 0.14,-3.178 h 4.704 v -0.868 h -5.25 l -0.21,4.83 0.588,0.028 c 0.532,-0.658 1.33,-1.05 2.184,-1.05 1.036,0 1.736,1.078 1.736,2.702 0,1.624 -0.7,2.702 -1.736,2.702 -1.078,0 -2.128,-0.35 -2.982,-1.008 v 0.588 c 0.854,0.658 1.904,1.008 2.982,1.008 1.778,0 2.968,-1.316 2.968,-3.29 z"
           style="font-size:14px;line-height:1.25"
           id="path243" />
        <path
           d="m 2302.9763,-7088.0296 c 0,-1.316 -0.63,-2.254 -1.708,-2.646 0.91,-0.336 1.428,-1.092 1.428,-2.114 0,-1.456 -1.022,-2.338 -2.688,-2.338 -1.68,0 -2.702,0.882 -2.702,2.338 0,1.022 0.518,1.778 1.428,2.114 -1.078,0.392 -1.708,1.33 -1.708,2.646 0,1.764 1.134,2.842 2.982,2.842 1.834,0 2.968,-1.078 2.968,-2.842 z m -1.372,-4.76 c 0,1.078 -0.616,1.75 -1.596,1.75 -0.994,0 -1.61,-0.672 -1.61,-1.75 0,-1.092 0.616,-1.75 1.61,-1.75 0.98,0 1.596,0.658 1.596,1.75 z m 0.14,4.76 c 0,1.4 -0.658,2.254 -1.736,2.254 -1.092,0 -1.75,-0.854 -1.75,-2.254 0,-1.4 0.658,-2.254 1.75,-2.254 1.078,0 1.736,0.854 1.736,2.254 z"
           style="font-size:14px;line-height:1.25"
           id="path245" />
      </g>
      <g
         aria-label="59"
         id="text87193"
         style="line-height:0%;font-family:Iwona;-inkscape-font-specification:Iwona;letter-spacing:0px;word-spacing:0px">
        <path
           d="m 2345.2328,-7088.4776 c 0,-1.974 -1.19,-3.29 -2.968,-3.29 -0.812,0 -1.568,0.308 -2.156,0.826 l 0.14,-3.178 h 4.704 v -0.868 h -5.25 l -0.21,4.83 0.588,0.028 c 0.532,-0.658 1.33,-1.05 2.184,-1.05 1.036,0 1.736,1.078 1.736,2.702 0,1.624 -0.7,2.702 -1.736,2.702 -1.078,0 -2.128,-0.35 -2.982,-1.008 v 0.588 c 0.854,0.658 1.904,1.008 2.982,1.008 1.778,0 2.968,-1.316 2.968,-3.29 z"
           style="font-size:14px;line-height:1.25"
           id="path248" />
        <path
           d="m 2352.5828,-7090.1576 c 0,-3.472 -0.896,-4.97 -2.968,-4.97 -1.792,0 -2.982,1.316 -2.982,3.29 0,2.016 0.798,3.29 2.674,3.29 0.812,0 1.568,-0.378 2.044,-1.022 0,1.834 -0.462,3.794 -2.044,3.794 -0.714,0 -1.414,-0.238 -1.974,-0.686 v 0.588 c 0.56,0.448 1.26,0.686 1.974,0.686 2.198,0 3.276,-2.492 3.276,-4.97 z m -1.232,0 c -0.476,0.644 -1.232,1.022 -2.044,1.022 -1.12,0 -1.442,-1.4 -1.442,-2.702 0,-1.624 0.7,-2.702 1.75,-2.702 1.946,0 1.736,2.114 1.736,4.382 z"
           style="font-size:14px;line-height:1.25"
           id="path250" />
      </g>
      <g
         aria-label="0"
         id="text87197"
         style="line-height:0%;font-family:Iwona;-inkscape-font-specification:Iwona;letter-spacing:0px;word-spacing:0px">
        <path
           d="m 2593.3623,-7090.1576 c 0,-3.318 -1.022,-4.97 -3.066,-4.97 -2.044,0 -3.066,1.652 -3.066,4.97 0,3.318 1.022,4.97 3.066,4.97 2.044,0 3.066,-1.652 3.066,-4.97 z m -1.232,0 c 0,2.926 -0.616,4.382 -1.834,4.382 -1.218,0 -1.834,-1.456 -1.834,-4.382 0,-2.926 0.616,-4.382 1.834,-4.382 1.218,0 1.834,1.456 1.834,4.382 z"
           style="font-size:14px;line-height:1.25"
           id="path253" />
      </g>
      <g
         aria-label="clkmin"
         id="text87696"
         style="line-height:0%;font-family:Iwona;-inkscape-font-specification:Iwona;text-align:end;letter-spacing:0px;word-spacing:0px;text-anchor:end">
        <path
           d="m 2051.6828,-7057.4092 v -0.756 c -0.576,-0.81 -1.512,-1.296 -2.52,-1.296 -2.25,0 -3.762,1.692 -3.762,4.23 0,2.538 1.512,4.23 3.762,4.23 0.936,0 1.818,-0.468 2.34,-1.242 v -0.756 c -0.612,0.918 -1.242,1.242 -2.34,1.242 -1.296,0 -2.178,-1.386 -2.178,-3.474 0,-2.088 0.882,-3.474 2.178,-3.474 1.116,0 1.872,0.396 2.52,1.296 z"
           style="font-size:18px;line-height:1.25"
           id="path256" />
        <path
           d="m 2056.9568,-7051.8112 v -0.54 c -0.342,0.288 -0.738,0.522 -1.188,0.522 -0.666,0 -0.792,-0.828 -0.792,-1.602 v -10.35 h -1.404 v 10.35 c 0,1.206 0.468,2.43 1.53,2.43 0.684,0 1.332,-0.342 1.854,-0.81 z"
           style="font-size:18px;line-height:1.25"
           id="path258" />
        <path
           d="m 2065.7227,-7051.1812 -4.176,-4.806 4.032,-3.294 h -1.116 l -4.302,3.528 v -8.028 h -1.404 v 12.6 h 1.404 v -4.482 l 3.888,4.482 z"
           style="font-size:18px;line-height:1.25"
           id="path260" />
        <path
           d="m 2073.227,-7047.5812 v -3.8025 c 0,-0.819 -0.4797,-1.5795 -1.2402,-1.5795 -0.6552,0 -1.2636,0.3393 -1.6146,0.8892 -0.1872,-0.5148 -0.585,-0.8892 -1.1232,-0.8892 -0.6085,0 -1.0999,0.4212 -1.4977,0.8892 v -0.7722 h -0.9126 v 5.265 h 0.9126 v -4.1418 c 0.2808,-0.3627 0.6318,-0.702 1.0881,-0.702 0.4798,0 0.7372,0.5148 0.7372,1.0413 v 3.8025 h 0.9126 v -3.8025 c 0,-0.1404 -0.012,-0.2691 -0.035,-0.4095 0.2808,-0.3627 0.6669,-0.6318 1.1232,-0.6318 0.4797,0 0.7371,0.5148 0.7371,1.0413 v 3.8025 z"
           style="font-size:65.0009%;baseline-shift:sub"
           id="path262" />
        <path
           d="m 2077.1816,-7047.9907 v -0.351 c -0.2223,0.1872 -0.4797,0.3393 -0.7722,0.3393 -0.4329,0 -0.5148,-0.5382 -0.5148,-1.0413 v -3.8025 h -0.9126 v 3.8025 c 0,0.7839 0.3042,1.5795 0.9945,1.5795 0.4446,0 0.8658,-0.2223 1.2051,-0.5265 z m -1.17,-6.6808 c 0,-0.3159 -0.2574,-0.5733 -0.5733,-0.5733 -0.3159,0 -0.5733,0.2574 -0.5733,0.5733 0,0.316 0.2574,0.5734 0.5733,0.5734 0.3159,0 0.5733,-0.2574 0.5733,-0.5734 z"
           style="font-size:65.0009%;baseline-shift:sub"
           id="path264" />
        <path
           d="m 2082.5871,-7047.5812 v -3.8025 c 0,-0.8541 -0.6552,-1.5795 -1.4976,-1.5795 -0.702,0 -1.3221,0.3978 -1.8252,0.8892 v -0.7722 h -0.9127 v 5.265 h 0.9127 v -4.1301 c 0.3978,-0.3978 0.8892,-0.7137 1.4391,-0.7137 0.5499,0 0.9711,0.4797 0.9711,1.0413 v 3.8025 z"
           style="font-size:65.0009%;baseline-shift:sub"
           id="path266" />
      </g>
      <path
         style="fill:#f5c500;fill-opacity:0.392157;stroke:none"
         d="m 2090.5512,-7029.9213 h 492.5197 l 3.5433,10.6299 -3.5433,10.6299 h -492.5197 l 1e-4,-10.6298 z"
         id="path87706" />
      <path
         id="path87708"
         d="m 2590.1575,-7029.9213 h 38.9764 v 10.6299 10.6299 h -38.9764 l -3.5432,-10.6299 z"
         style="fill:#f5c500;fill-opacity:0.392157;stroke:none" />
      <g
         aria-label="min"
         id="text87710"
         style="line-height:0%;font-family:Iwona;-inkscape-font-specification:Iwona;text-align:end;letter-spacing:0px;word-spacing:0px;text-anchor:end">
        <path
           d="m 2067.7147,-7015.2412 v -5.85 c 0,-1.26 -0.738,-2.43 -1.908,-2.43 -1.008,0 -1.944,0.522 -2.484,1.368 -0.288,-0.792 -0.9,-1.368 -1.728,-1.368 -0.936,0 -1.692,0.648 -2.304,1.368 v -1.188 h -1.404 v 8.1 h 1.404 v -6.372 c 0.432,-0.558 0.972,-1.08 1.674,-1.08 0.738,0 1.134,0.792 1.134,1.602 v 5.85 h 1.404 v -5.85 c 0,-0.216 -0.018,-0.414 -0.054,-0.63 0.432,-0.558 1.026,-0.972 1.728,-0.972 0.738,0 1.134,0.792 1.134,1.602 v 5.85 z"
           style="font-size:18px;line-height:1.25"
           id="path269" />
        <path
           d="m 2073.7986,-7015.8712 v -0.54 c -0.342,0.288 -0.738,0.522 -1.188,0.522 -0.666,0 -0.792,-0.828 -0.792,-1.602 v -5.85 h -1.404 v 5.85 c 0,1.206 0.468,2.43 1.53,2.43 0.684,0 1.332,-0.342 1.854,-0.81 z m -1.8,-10.278 c 0,-0.486 -0.396,-0.882 -0.882,-0.882 -0.486,0 -0.882,0.396 -0.882,0.882 0,0.486 0.396,0.882 0.882,0.882 0.486,0 0.882,-0.396 0.882,-0.882 z"
           style="font-size:18px;line-height:1.25"
           id="path271" />
        <path
           d="m 2082.1146,-7015.2412 v -5.85 c 0,-1.314 -1.008,-2.43 -2.304,-2.43 -1.08,0 -2.034,0.612 -2.808,1.368 v -1.188 h -1.404 v 8.1 h 1.404 v -6.354 c 0.612,-0.612 1.368,-1.098 2.214,-1.098 0.846,0 1.494,0.738 1.494,1.602 v 5.85 z"
           style="font-size:18px;line-height:1.25"
           id="path273" />
      </g>
      <path
         d="m 2090.5512,-7008.6615 h 492.5197 l 7.0866,-21.2598 h 38.9764 m -538.5827,0 h 492.5197 l 7.0866,21.2598 38.9764,1e-4"
         style="fill:none;stroke:#000000;stroke-width:1px;stroke-linecap:butt;stroke-linejoin:miter;stroke-opacity:1"
         id="path87714" />
      <g
         aria-label="59"
         id="text87716"
         style="line-height:0%;font-family:Iwona;-inkscape-font-specification:Iwona;letter-spacing:0px;word-spacing:0px">
        <path
           d="m 2295.6263,-7017.6114 c 0,-1.974 -1.19,-3.29 -2.968,-3.29 -0.812,0 -1.568,0.308 -2.156,0.826 l 0.14,-3.178 h 4.704 v -0.868 h -5.25 l -0.21,4.83 0.588,0.028 c 0.532,-0.658 1.33,-1.05 2.184,-1.05 1.036,0 1.736,1.078 1.736,2.702 0,1.624 -0.7,2.702 -1.736,2.702 -1.078,0 -2.128,-0.35 -2.982,-1.008 v 0.588 c 0.854,0.658 1.904,1.008 2.982,1.008 1.778,0 2.968,-1.316 2.968,-3.29 z"
           style="font-size:14px;line-height:1.25"
           id="path276" />
        <path
           d="m 2302.9763,-7019.2914 c 0,-3.472 -0.896,-4.97 -2.968,-4.97 -1.792,0 -2.982,1.316 -2.982,3.29 0,2.016 0.798,3.29 2.674,3.29 0.812,0 1.568,-0.378 2.044,-1.022 0,1.834 -0.462,3.794 -2.044,3.794 -0.714,0 -1.414,-0.238 -1.974,-0.686 v 0.588 c 0.56,0.448 1.26,0.686 1.974,0.686 2.198,0 3.276,-2.492 3.276,-4.97 z m -1.232,0 c -0.476,0.644 -1.232,1.022 -2.044,1.022 -1.12,0 -1.442,-1.4 -1.442,-2.702 0,-1.624 0.7,-2.702 1.75,-2.702 1.946,0 1.736,2.114 1.736,4.382 z"
           style="font-size:14px;line-height:1.25"
           id="path278" />
      </g>
      <g
         aria-label="0"
         id="text87724"
         style="line-height:0%;font-family:Iwona;-inkscape-font-specification:Iwona;letter-spacing:0px;word-spacing:0px">
        <path
           d="m 2600.4489,-7019.2914 c 0,-3.318 -1.022,-4.97 -3.066,-4.97 -2.044,0 -3.066,1.652 -3.066,4.97 0,3.318 1.022,4.97 3.066,4.97 2.044,0 3.066,-1.652 3.066,-4.97 z m -1.232,0 c 0,2.926 -0.616,4.382 -1.834,4.382 -1.218,0 -1.834,-1.456 -1.834,-4.382 0,-2.926 0.616,-4.382 1.834,-4.382 1.218,0 1.834,1.456 1.834,4.382 z"
           style="font-size:14px;line-height:1.25"
           id="path281" />
      </g>
      <path
         style="fill:none;stroke:#000000;stroke-width:1px;stroke-linecap:butt;stroke-linejoin:miter;stroke-opacity:1"
         d="m 2090.5512,-6994.4882 h 496.063 l 7.0866,21.2598 h 35.4331"
         id="path87728" />
      <g
         aria-label="clkhr"
         id="text87734"
         style="line-height:0%;font-family:Iwona;-inkscape-font-specification:Iwona;text-align:end;letter-spacing:0px;word-spacing:0px;text-anchor:end">
        <path
           d="m 2059.1124,-6986.5429 v -0.756 c -0.576,-0.81 -1.512,-1.296 -2.52,-1.296 -2.25,0 -3.762,1.692 -3.762,4.23 0,2.538 1.512,4.23 3.762,4.23 0.936,0 1.818,-0.468 2.34,-1.242 v -0.756 c -0.612,0.918 -1.242,1.242 -2.34,1.242 -1.296,0 -2.178,-1.386 -2.178,-3.474 0,-2.088 0.882,-3.474 2.178,-3.474 1.116,0 1.872,0.396 2.52,1.296 z"
           style="font-size:18px;line-height:1.25"
           id="path284" />
        <path
           d="m 2064.3863,-6980.9449 v -0.54 c -0.342,0.288 -0.738,0.522 -1.188,0.522 -0.666,0 -0.792,-0.828 -0.792,-1.602 v -10.35 h -1.404 v 10.35 c 0,1.206 0.468,2.43 1.53,2.43 0.684,0 1.332,-0.342 1.854,-0.81 z"
           style="font-size:18px;line-height:1.25"
           id="path286" />
        <path
           d="m 2073.1523,-6980.3149 -4.176,-4.806 4.032,-3.294 h -1.116 l -4.302,3.528 v -8.028 h -1.404 v 12.6 h 1.404 v -4.482 l 3.888,4.482 z"
           style="font-size:18px;line-height:1.25"
           id="path288" />
        <path
           d="m 2078.5038,-6976.7149 v -3.8026 c 0,-0.8541 -0.6552,-1.5795 -1.4977,-1.5795 -0.702,0 -1.3221,0.3978 -1.8252,0.8892 v -3.6973 h -0.9126 v 8.1902 h 0.9126 v -4.1302 c 0.3978,-0.3978 0.8892,-0.7137 1.4391,-0.7137 0.5499,0 0.9711,0.4797 0.9711,1.0413 v 3.8026 z"
           style="font-size:65.0009%;baseline-shift:sub"
           id="path290" />
        <path
           d="m 2083.2306,-6981.2546 v -0.7254 c -0.1287,-0.047 -0.2691,-0.082 -0.3978,-0.082 -0.6552,0 -1.1817,0.4563 -1.6029,0.9594 v -0.8775 h -0.9126 v 5.2651 h 0.9126 v -3.8962 c 0.351,-0.4095 0.7956,-0.7605 1.3338,-0.7605 0.2223,0 0.4563,0.047 0.6669,0.117 z"
           style="font-size:65.0009%;baseline-shift:sub"
           id="path292" />
      </g>
      <path
         style="fill:#f5c500;fill-opacity:0.392157;stroke:none"
         d="m 2597.244,-6959.0551 h 31.8899 v 10.6299 10.6299 h -31.8899 l -3.5432,-10.6299 z"
         id="path87746" />
      <g
         aria-label="hr"
         id="text87748"
         style="line-height:0%;font-family:Iwona;-inkscape-font-specification:Iwona;text-align:end;letter-spacing:0px;word-spacing:0px;text-anchor:end">
        <path
           d="m 2075.8326,-6944.375 v -5.85 c 0,-1.314 -1.008,-2.43 -2.304,-2.43 -1.08,0 -2.034,0.612 -2.808,1.368 v -5.688 h -1.404 v 12.6 h 1.404 v -6.354 c 0.612,-0.612 1.368,-1.098 2.214,-1.098 0.846,0 1.494,0.738 1.494,1.602 v 5.85 z"
           style="font-size:18px;line-height:1.25"
           id="path295" />
        <path
           d="m 2083.1046,-6951.359 v -1.116 c -0.198,-0.072 -0.414,-0.126 -0.612,-0.126 -1.008,0 -1.818,0.702 -2.466,1.476 v -1.35 h -1.404 v 8.1 h 1.404 v -5.994 c 0.54,-0.63 1.224,-1.17 2.052,-1.17 0.342,0 0.702,0.072 1.026,0.18 z"
           style="font-size:18px;line-height:1.25"
           id="path297" />
      </g>
      <path
         id="path87752"
         style="fill:none;stroke:#000000;stroke-width:1px;stroke-linecap:butt;stroke-linejoin:miter;stroke-opacity:1"
         d="m 2090.5512,-6937.7953 h 499.6063 l 7.0866,-21.2598 h 31.8898 m -538.5827,0 h 499.6063 l 7.0866,21.2598 h 31.8898" />
      <g
         aria-label="6"
         id="text87754"
         style="line-height:0%;font-family:Iwona;-inkscape-font-specification:Iwona;letter-spacing:0px;word-spacing:0px">
        <path
           d="m 2295.6263,-6946.7452 c 0,-2.016 -0.798,-3.29 -2.674,-3.29 -0.812,0 -1.568,0.378 -2.044,1.022 0,-1.834 0.462,-3.794 2.044,-3.794 0.714,0 1.414,0.238 1.974,0.686 v -0.588 c -0.56,-0.448 -1.26,-0.686 -1.974,-0.686 -2.198,0 -3.276,2.492 -3.276,4.97 0,3.472 0.896,4.97 2.982,4.97 1.778,0 2.968,-1.316 2.968,-3.29 z m -1.232,0 c 0,1.624 -0.7,2.702 -1.736,2.702 -1.96,0 -1.75,-2.114 -1.75,-4.382 0.476,-0.644 1.232,-1.022 2.044,-1.022 1.12,0 1.442,1.4 1.442,2.702 z"
           style="font-size:14px;line-height:1.25"
           id="path300" />
      </g>
      <g
         aria-label="7"
         id="text87758"
         style="line-height:0%;font-family:Iwona;-inkscape-font-specification:Iwona;letter-spacing:0px;word-spacing:0px">
        <path
           d="m 2607.4374,-6952.7792 v -0.476 h -5.95 v 0.868 h 4.564 l -4.13,8.792 h 1.204 z"
           style="font-size:14px;line-height:1.25"
           id="path303" />
      </g>
      <path
         style="fill:#f5c500;fill-opacity:0.392157;stroke:none"
         d="m 2600.7874,-6923.6221 h 28.3465 v 10.63 10.6299 h -35.4331 l 3.5433,-10.6299 z"
         id="path87768" />
      <path
         id="path87770"
         d="m 2090.5512,-6902.3622 h 503.1496 l 7.0866,-21.2598 28.3465,-10e-5"
         style="fill:none;stroke:#000000;stroke-width:1px;stroke-linecap:butt;stroke-linejoin:miter;stroke-opacity:1" />
      <g
         aria-label="buzz"
         id="text87772"
         style="line-height:0%;font-family:Iwona;-inkscape-font-specification:Iwona;text-align:end;letter-spacing:0px;word-spacing:0px;text-anchor:end">
        <path
           d="m 2057.9767,-6913.4987 c 0,-2.394 -0.9,-4.23 -3.078,-4.23 -0.918,0 -1.764,0.414 -2.484,0.99 v -5.31 h -1.404 v 12.6 h 1.404 v -0.414 c 0.684,0.36 1.44,0.594 2.214,0.594 2.25,0 3.348,-1.8 3.348,-4.23 z m -1.584,0 c 0,1.692 -0.522,3.474 -1.998,3.474 -0.702,0 -1.386,-0.234 -1.98,-0.594 v -5.364 c 0.54,-0.54 1.206,-0.99 1.98,-0.99 1.638,0 1.998,1.584 1.998,3.474 z"
           style="font-size:18px;line-height:1.25"
           id="path306" />
        <path
           d="m 2066.8327,-6909.4487 v -8.1 h -1.404 v 6.354 c -0.612,0.612 -1.368,1.098 -2.214,1.098 -0.846,0 -1.494,-0.738 -1.494,-1.602 v -5.85 h -1.404 v 5.85 c 0,1.314 1.008,2.43 2.304,2.43 1.08,0 2.034,-0.612 2.808,-1.368 v 1.188 z"
           style="font-size:18px;line-height:1.25"
           id="path308" />
        <path
           d="m 2075.3286,-6909.4487 v -0.756 h -4.896 l 4.896,-6.66 v -0.684 h -6.336 v 0.756 h 4.716 l -4.896,6.66 v 0.684 z"
           style="font-size:18px;line-height:1.25"
           id="path310" />
        <path
           d="m 2082.9246,-6909.4487 v -0.756 h -4.896 l 4.896,-6.66 v -0.684 h -6.336 v 0.756 h 4.716 l -4.896,6.66 v 0.684 z"
           style="font-size:18px;line-height:1.25"
           id="path312" />
      </g>
    </g>
  </g>
</svg>
