<?xml version="1.0" encoding="UTF-8" standalone="no"?>
<!-- Created with Inkscape (http://www.inkscape.org/) -->

<svg
   width="435.07404mm"
   height="164.28201mm"
   viewBox="0 0 1541.601 582.10162"
   id="svg13997"
   version="1.1"
   xmlns="http://www.w3.org/2000/svg"
   xmlns:svg="http://www.w3.org/2000/svg"
   xmlns:rdf="http://www.w3.org/1999/02/22-rdf-syntax-ns#"
   xmlns:cc="http://creativecommons.org/ns#"
   xmlns:dc="http://purl.org/dc/elements/1.1/">
  <defs
     id="defs13999">
    <marker
       orient="auto"
       refY="0"
       refX="0"
       id="marker10177"
       style="overflow:visible">
      <path
         id="path10179"
         d="M 0,0 5,-5 -12.5,0 5,5 Z"
         style="fill-rule:evenodd;stroke:#000000;stroke-width:1.00000003pt;marker-start:none"
         transform="matrix(-0.2,0,0,-0.2,-1.2,0)" />
    </marker>
    <marker
       style="overflow:visible"
       id="marker9707"
       refX="0"
       refY="0"
       orient="auto">
      <path
         transform="matrix(-0.2,0,0,-0.2,-1.2,0)"
         style="fill-rule:evenodd;stroke:#000000;stroke-width:1.00000003pt;marker-start:none"
         d="M 0,0 5,-5 -12.5,0 5,5 Z"
         id="path9709" />
    </marker>
    <marker
       orient="auto"
       refY="0"
       refX="0"
       id="marker8710"
       style="overflow:visible">
      <path
         id="path8712"
         d="m -2.5,-1 c 0,2.76 -2.24,5 -5,5 -2.76,0 -5,-2.24 -5,-5 0,-2.76 2.24,-5 5,-5 2.76,0 5,2.24 5,5 z"
         style="fill-rule:evenodd;stroke:#000000;stroke-width:1.00000003pt;marker-start:none;marker-end:none"
         transform="matrix(0.4,0,0,0.4,2.96,0.4)" />
    </marker>
    <marker
       orient="auto"
       refY="0"
       refX="0"
       id="marker10201"
       style="overflow:visible">
      <path
         id="path10203"
         d="M 0,0 5,-5 -12.5,0 5,5 Z"
         style="fill-rule:evenodd;stroke:#000000;stroke-width:1.00000003pt;marker-start:none"
         transform="matrix(-0.8,0,0,-0.8,-10,0)" />
    </marker>
    <marker
       orient="auto"
       refY="0"
       refX="0"
       id="marker10197C"
       style="overflow:visible">
      <path
         id="path12941"
         d="M 0,0 5,-5 -12.5,0 5,5 Z"
         style="fill:#ff0000;fill-rule:evenodd;stroke:#ff0000;stroke-width:1.00000003pt;marker-start:none"
         transform="matrix(-0.4,0,0,-0.4,-4,0)" />
    </marker>
    <marker
       orient="auto"
       refY="0"
       refX="0"
       id="marker10197I"
       style="overflow:visible">
      <path
         id="path12935"
         d="M 0,0 5,-5 -12.5,0 5,5 Z"
         style="fill:#ff0000;fill-rule:evenodd;stroke:#ff0000;stroke-width:1.00000003pt;marker-start:none"
         transform="matrix(-0.4,0,0,-0.4,-4,0)" />
    </marker>
    <marker
       orient="auto"
       refY="0"
       refX="0"
       id="marker10197E"
       style="overflow:visible">
      <path
         id="path12938"
         d="M 0,0 5,-5 -12.5,0 5,5 Z"
         style="fill:#ff0000;fill-rule:evenodd;stroke:#ff0000;stroke-width:1.00000003pt;marker-start:none"
         transform="matrix(-0.4,0,0,-0.4,-4,0)" />
    </marker>
    <marker
       style="overflow:visible"
       id="marker10185-38"
       refX="0"
       refY="0"
       orient="auto">
      <path
         transform="matrix(0.4,0,0,0.4,4,0)"
         style="fill-rule:evenodd;stroke:#000000;stroke-width:1.00000003pt;marker-start:none"
         d="M 0,0 5,-5 -12.5,0 5,5 Z"
         id="path10187-62" />
    </marker>
    <marker
       orient="auto"
       refY="0"
       refX="0"
       id="marker9715"
       style="overflow:visible">
      <path
         id="path9717"
         d="M 0,0 5,-5 -12.5,0 5,5 Z"
         style="fill-rule:evenodd;stroke:#000000;stroke-width:1.00000003pt;marker-start:none"
         transform="matrix(-0.4,0,0,-0.4,-4,0)" />
    </marker>
    <marker
       orient="auto"
       refY="0"
       refX="0"
       id="marker8710m"
       style="overflow:visible">
      <path
         id="path60015"
         d="m -2.5,-1 c 0,2.76 -2.24,5 -5,5 -2.76,0 -5,-2.24 -5,-5 0,-2.76 2.24,-5 5,-5 2.76,0 5,2.24 5,5 z"
         style="fill:#ff0000;fill-rule:evenodd;stroke:#ff0000;stroke-width:1.00000003pt;marker-start:none;marker-end:none"
         transform="matrix(0.4,0,0,0.4,2.96,0.4)" />
    </marker>
    <marker
       orient="auto"
       refY="0"
       refX="0"
       id="marker10201J"
       style="overflow:visible">
      <path
         id="path60018"
         d="M 0,0 5,-5 -12.5,0 5,5 Z"
         style="fill:#ff0000;fill-rule:evenodd;stroke:#ff0000;stroke-width:1.00000003pt;marker-start:none"
         transform="matrix(-0.8,0,0,-0.8,-10,0)" />
    </marker>
    <marker
       orient="auto"
       refY="0"
       refX="0"
       id="marker8710o"
       style="overflow:visible">
      <path
         id="path60027"
         d="m -2.5,-1 c 0,2.76 -2.24,5 -5,5 -2.76,0 -5,-2.24 -5,-5 0,-2.76 2.24,-5 5,-5 2.76,0 5,2.24 5,5 z"
         style="fill:#ff0000;fill-rule:evenodd;stroke:#ff0000;stroke-width:1.00000003pt;marker-start:none;marker-end:none"
         transform="matrix(0.4,0,0,0.4,2.96,0.4)" />
    </marker>
    <marker
       orient="auto"
       refY="0"
       refX="0"
       id="marker102015"
       style="overflow:visible">
      <path
         id="path60030"
         d="M 0,0 5,-5 -12.5,0 5,5 Z"
         style="fill:#ff0000;fill-rule:evenodd;stroke:#ff0000;stroke-width:1.00000003pt;marker-start:none"
         transform="matrix(-0.8,0,0,-0.8,-10,0)" />
    </marker>
    <marker
       orient="auto"
       refY="0"
       refX="0"
       id="marker8710f"
       style="overflow:visible">
      <path
         id="path60021"
         d="m -2.5,-1 c 0,2.76 -2.24,5 -5,5 -2.76,0 -5,-2.24 -5,-5 0,-2.76 2.24,-5 5,-5 2.76,0 5,2.24 5,5 z"
         style="fill:#ff0000;fill-rule:evenodd;stroke:#ff0000;stroke-width:1.00000003pt;marker-start:none;marker-end:none"
         transform="matrix(0.4,0,0,0.4,2.96,0.4)" />
    </marker>
    <marker
       orient="auto"
       refY="0"
       refX="0"
       id="marker10201d"
       style="overflow:visible">
      <path
         id="path60024"
         d="M 0,0 5,-5 -12.5,0 5,5 Z"
         style="fill:#ff0000;fill-rule:evenodd;stroke:#ff0000;stroke-width:1.00000003pt;marker-start:none"
         transform="matrix(-0.8,0,0,-0.8,-10,0)" />
    </marker>
    <marker
       orient="auto"
       refY="0"
       refX="0"
       id="marker10201a"
       style="overflow:visible">
      <path
         id="path60012"
         d="M 0,0 5,-5 -12.5,0 5,5 Z"
         style="fill:#ff0000;fill-rule:evenodd;stroke:#ff0000;stroke-width:1.00000003pt;marker-start:none"
         transform="matrix(-0.8,0,0,-0.8,-10,0)" />
    </marker>
  </defs>
  <metadata
     id="metadata14002">
    <rdf:RDF>
      <cc:Work
         rdf:about="">
        <dc:format>image/svg+xml</dc:format>
        <dc:type
           rdf:resource="http://purl.org/dc/dcmitype/StillImage" />
        <dc:title />
      </cc:Work>
    </rdf:RDF>
  </metadata>
  <g
     id="layer1"
     transform="translate(72.731951,-123.33108)">
    <g
       style="display:inline"
       id="g70477"
       transform="translate(-4354.5547,1771.4683)">
      <g
         aria-label="ensec"
         id="text69335"
         style="line-height:0%;font-family:Iwona;-inkscape-font-specification:Iwona;letter-spacing:0px;word-spacing:0px">
        <path
           d="m 4654.1154,-1428.5242 v -0.2 c 0,-2.82 -1.54,-4.7 -3.86,-4.7 -2.34,0 -3.88,1.88 -3.88,4.7 0,2.82 1.54,4.7 3.88,4.7 1,0 1.98,-0.32 2.8,-0.9 v -0.84 c -0.94,0.6 -1.7,0.82 -2.8,0.82 -1.7,0 -2.12,-1.62 -2.12,-3.58 z m -1.76,-0.84 h -4.22 c 0,-1.6 0.68,-3.22 2.12,-3.22 1.42,0 2.1,1.62 2.1,3.22 z"
           style="font-size:20px;line-height:1.25"
           id="path378" />
        <path
           d="m 4663.9554,-1424.2242 v -6.5 c 0,-1.46 -1.12,-2.7 -2.56,-2.7 -1.2,0 -2.26,0.68 -3.12,1.52 v -1.32 h -1.56 v 9 h 1.56 v -7.06 c 0.68,-0.68 1.52,-1.22 2.46,-1.22 0.94,0 1.66,0.82 1.66,1.78 v 6.5 z"
           style="font-size:20px;line-height:1.25"
           id="path380" />
        <path
           d="m 4670.4474,-1421.8883 c 0,-1.027 -1.092,-1.56 -2.158,-1.82 -0.624,-0.156 -1.3,-0.416 -1.3,-1.027 0,-0.559 0.572,-0.923 1.196,-0.923 0.689,0 1.378,0.208 1.95,0.585 v -0.546 c -0.572,-0.377 -1.261,-0.585 -1.95,-0.585 -1.131,0 -2.1711,0.689 -2.1711,1.742 0,0.949 1.0531,1.391 2.0541,1.638 0.689,0.169 1.404,0.533 1.404,1.196 0,0.611 -0.624,0.9881 -1.287,0.9881 -0.806,0 -1.5861,-0.1951 -2.2751,-0.5851 v 0.5461 c 0.689,0.39 1.4691,0.585 2.2751,0.585 1.17,0 2.262,-0.7021 2.262,-1.7941 z"
           style="font-size:65.0009%;baseline-shift:sub"
           id="path382" />
        <path
           d="m 4676.7785,-1423.0193 v -0.13 c 0,-1.833 -1.001,-3.055 -2.5091,-3.055 -1.521,0 -2.522,1.222 -2.522,3.055 0,1.833 1.001,3.0551 2.522,3.0551 0.65,0 1.2871,-0.208 1.8201,-0.585 v -0.5461 c -0.611,0.39 -1.1051,0.5331 -1.8201,0.5331 -1.105,0 -1.378,-1.0531 -1.378,-2.3271 z m -1.144,-0.546 h -2.7431 c 0,-1.04 0.442,-2.093 1.378,-2.093 0.923,0 1.3651,1.053 1.3651,2.093 z"
           style="font-size:65.0009%;baseline-shift:sub"
           id="path384" />
        <path
           d="m 4682.6805,-1424.7223 v -0.546 c -0.416,-0.585 -1.092,-0.936 -1.82,-0.936 -1.625,0 -2.717,1.222 -2.717,3.055 0,1.833 1.092,3.0551 2.717,3.0551 0.676,0 1.313,-0.338 1.69,-0.8971 v -0.546 c -0.442,0.663 -0.897,0.8971 -1.69,0.8971 -0.936,0 -1.573,-1.0011 -1.573,-2.5091 0,-1.508 0.637,-2.509 1.573,-2.509 0.806,0 1.352,0.286 1.82,0.936 z"
           style="font-size:65.0009%;baseline-shift:sub"
           id="path386" />
      </g>
      <g
         transform="translate(4449.2153,-1899.1994)"
         id="g69341">
        <path
           id="rect69343"
           style="fill:#ffeeaa;stroke:#000000;stroke-linecap:round;stroke-linejoin:bevel"
           d="m 330.70605,276.54999 h 63.77952 v 49.6063 h -63.77952 z" />
        <g
           aria-label="+ 1"
           id="text69345"
           style="line-height:0%;font-family:Iwona;-inkscape-font-specification:Iwona;text-align:center;text-anchor:middle">
          <path
             d="m 361.06131,303.81713 v -1.4 h -8.092 v -8.092 h -1.4 v 8.092 h -8.092 v 1.4 h 8.092 v 8.092 h 1.4 v -8.092 z"
             style="font-size:28px;line-height:1.25"
             id="path390" />
          <path
             d="m 381.72526,310.11713 v -19.32 h -1.624 c -1.54,1.764 -3.36,3.276 -5.376,4.452 v 1.176 c 1.708,-0.812 3.304,-1.764 4.816,-2.912 v 16.604 z"
             style="font-size:28px;line-height:1.25"
             id="path392" />
        </g>
      </g>
      <path
         id="path69371"
         d="m 4889.7637,-1505.7203 v -92.126 l -35.4329,-0.185"
         style="fill:none;stroke:#000000;stroke-width:7.08661;stroke-linecap:butt;stroke-linejoin:miter;stroke-miterlimit:4;stroke-dasharray:none;stroke-opacity:1;marker-start:none;marker-end:url(#marker10177)" />
      <g
         aria-label="sec"
         id="text69377"
         style="line-height:0%;font-family:Iwona;-inkscape-font-specification:Iwona;text-align:center;letter-spacing:0px;word-spacing:0px;text-anchor:middle">
        <path
           d="m 4908.7464,-1525.9968 c 0,-1.58 -1.68,-2.4 -3.32,-2.8 -0.96,-0.24 -2,-0.64 -2,-1.58 0,-0.86 0.88,-1.42 1.84,-1.42 1.06,0 2.12,0.32 3,0.9 v -0.84 c -0.88,-0.58 -1.94,-0.9 -3,-0.9 -1.74,0 -3.34,1.06 -3.34,2.68 0,1.46 1.62,2.14 3.16,2.52 1.06,0.26 2.16,0.82 2.16,1.84 0,0.94 -0.96,1.52 -1.98,1.52 -1.24,0 -2.44,-0.3 -3.5,-0.9 v 0.84 c 1.06,0.6 2.26,0.9 3.5,0.9 1.8,0 3.48,-1.08 3.48,-2.76 z"
           style="font-size:20px;line-height:1.25"
           id="path395" />
        <path
           d="m 4918.4864,-1527.7368 v -0.2 c 0,-2.82 -1.54,-4.7 -3.86,-4.7 -2.34,0 -3.88,1.88 -3.88,4.7 0,2.82 1.54,4.7 3.88,4.7 1,0 1.98,-0.32 2.8,-0.9 v -0.84 c -0.94,0.6 -1.7,0.82 -2.8,0.82 -1.7,0 -2.12,-1.62 -2.12,-3.58 z m -1.76,-0.84 h -4.22 c 0,-1.6 0.68,-3.22 2.12,-3.22 1.42,0 2.1,1.62 2.1,3.22 z"
           style="font-size:20px;line-height:1.25"
           id="path397" />
        <path
           d="m 4927.5664,-1530.3568 v -0.84 c -0.64,-0.9 -1.68,-1.44 -2.8,-1.44 -2.5,0 -4.18,1.88 -4.18,4.7 0,2.82 1.68,4.7 4.18,4.7 1.04,0 2.02,-0.52 2.6,-1.38 v -0.84 c -0.68,1.02 -1.38,1.38 -2.6,1.38 -1.44,0 -2.42,-1.54 -2.42,-3.86 0,-2.32 0.98,-3.86 2.42,-3.86 1.24,0 2.08,0.44 2.8,1.44 z"
           style="font-size:20px;line-height:1.25"
           id="path399" />
      </g>
      <g
         id="g69381"
         transform="translate(4607.1656,-1804.0731)">
        <path
           id="rect69383"
           style="fill:#ffeeaa;stroke:#000000;stroke-linecap:round;stroke-linejoin:bevel"
           d="m 328.66107,273.54971 h 63.77954 v 53.1496 h -63.77954 z" />
        <g
           aria-label="= 59
?"
           id="text69385"
           style="line-height:0%;font-family:Iwona;-inkscape-font-specification:Iwona;text-align:center;text-anchor:middle">
          <path
             d="m 353.50977,288.77451 v -0.9 h -11.304 v 0.9 z m 0,3.6 v -0.9 h -11.304 v 0.9 z"
             style="font-size:18px;line-height:1.25"
             id="path403" />
          <path
             d="m 369.40374,290.57451 c 0,-2.538 -1.53,-4.23 -3.816,-4.23 -1.044,0 -2.016,0.396 -2.772,1.062 l 0.18,-4.086 h 6.048 v -1.116 h -6.75 l -0.27,6.21 0.756,0.036 c 0.684,-0.846 1.71,-1.35 2.808,-1.35 1.332,0 2.232,1.386 2.232,3.474 0,2.088 -0.9,3.474 -2.232,3.474 -1.386,0 -2.736,-0.45 -3.834,-1.296 v 0.756 c 1.098,0.846 2.448,1.296 3.834,1.296 2.286,0 3.816,-1.692 3.816,-4.23 z"
             style="font-size:18px;line-height:1.25"
             id="path405" />
          <path
             d="m 378.85373,288.41451 c 0,-4.464 -1.152,-6.39 -3.816,-6.39 -2.304,0 -3.834,1.692 -3.834,4.23 0,2.592 1.026,4.23 3.438,4.23 1.044,0 2.016,-0.486 2.628,-1.314 0,2.358 -0.594,4.878 -2.628,4.878 -0.918,0 -1.818,-0.306 -2.538,-0.882 v 0.756 c 0.72,0.576 1.62,0.882 2.538,0.882 2.826,0 4.212,-3.204 4.212,-6.39 z m -1.584,0 c -0.612,0.828 -1.584,1.314 -2.628,1.314 -1.44,0 -1.854,-1.8 -1.854,-3.474 0,-2.088 0.9,-3.474 2.25,-3.474 2.502,0 2.232,2.718 2.232,5.634 z"
             style="font-size:18px;line-height:1.25"
             id="path407" />
          <path
             d="m 360.95276,316.24251 c 0,-0.486 -0.396,-0.882 -0.882,-0.882 -0.486,0 -0.882,0.396 -0.882,0.882 0,0.486 0.396,0.882 0.882,0.882 0.486,0 0.882,-0.396 0.882,-0.882 z m 2.718,-9.198 c 0,-1.566 -1.638,-2.52 -3.366,-2.52 -1.296,0 -2.538,0.576 -3.366,1.566 v 0.756 c 0.828,-0.99 2.07,-1.566 3.366,-1.566 1.044,0 1.962,0.756 1.962,1.764 0,1.116 0.018,1.476 -0.666,2.358 -0.576,0.738 -1.278,1.386 -1.638,2.268 -0.288,0.738 -0.27,1.548 -0.27,2.34 h 0.756 c 0,-1.764 0.36,-2.214 1.602,-3.492 1.26,-1.26 1.62,-1.71 1.62,-3.474 z"
             style="font-size:18px;line-height:1.25"
             id="path409" />
        </g>
      </g>
      <path
         style="fill:none;stroke:#000000;stroke-width:7.08661;stroke-linecap:butt;stroke-linejoin:miter;stroke-miterlimit:4;stroke-dasharray:none;stroke-opacity:1;marker-end:url(#marker9707)"
         d="m 4779.9213,-1597.8463 h -95.6693 v 77.7678 h 28.3465"
         id="path69391" />
      <path
         style="fill:none;stroke:#000000;stroke-width:7.08661;stroke-linecap:butt;stroke-linejoin:miter;stroke-miterlimit:4;stroke-dasharray:none;stroke-opacity:1;marker-end:url(#marker10177)"
         d="m 4864.9605,-1505.7203 60.2362,0.201"
         id="path69393" />
      <path
         id="path69407"
         d="m 4740.945,-1505.9053 63.7794,0.185"
         style="fill:none;stroke:#000000;stroke-width:7.08661;stroke-linecap:butt;stroke-linejoin:miter;stroke-miterlimit:4;stroke-dasharray:none;stroke-opacity:1;marker-end:url(#marker10177)" />
      <path
         style="fill:none;stroke:#000000;stroke-width:7.08661;stroke-linecap:butt;stroke-linejoin:miter;stroke-miterlimit:4;stroke-dasharray:none;stroke-opacity:1;marker-end:url(#marker10177)"
         d="m 4687.7953,-1491.732 h 24.8032"
         id="path69409" />
      <g
         aria-label="0"
         id="text69411"
         style="line-height:0%;font-family:Iwona;-inkscape-font-specification:Iwona;text-align:end;letter-spacing:0px;word-spacing:0px;text-anchor:end">
        <path
           d="m 4683.2205,-1492.9255 c 0,-5.688 -1.752,-8.52 -5.256,-8.52 -3.504,0 -5.256,2.832 -5.256,8.52 0,5.688 1.752,8.52 5.256,8.52 3.504,0 5.256,-2.832 5.256,-8.52 z m -2.112,0 c 0,5.016 -1.056,7.512 -3.144,7.512 -2.088,0 -3.144,-2.496 -3.144,-7.512 0,-5.016 1.056,-7.512 3.144,-7.512 2.088,0 3.144,2.496 3.144,7.512 z"
           style="font-size:24px;line-height:1.25"
           id="path412" />
      </g>
      <path
         id="path69415"
         d="m 5017.0766,-1505.9053 0.1697,-134.6457 H 4730.315 l 0.2463,109.8425"
         style="fill:none;stroke:#000000;stroke-width:0.999213;stroke-linecap:butt;stroke-linejoin:miter;stroke-miterlimit:4;stroke-dasharray:none;stroke-opacity:1;marker-start:url(#marker8710);marker-end:url(#marker10201)" />
      <g
         aria-label="enmin"
         id="text69417"
         style="line-height:0%;font-family:Iwona;-inkscape-font-specification:Iwona;letter-spacing:0px;word-spacing:0px">
        <path
           d="m 5097.029,-1417.8944 v -0.2 c 0,-2.82 -1.54,-4.7 -3.86,-4.7 -2.34,0 -3.88,1.88 -3.88,4.7 0,2.82 1.54,4.7 3.88,4.7 1,0 1.98,-0.32 2.8,-0.9 v -0.84 c -0.94,0.6 -1.7,0.82 -2.8,0.82 -1.7,0 -2.12,-1.62 -2.12,-3.58 z m -1.76,-0.84 h -4.22 c 0,-1.6 0.68,-3.22 2.12,-3.22 1.42,0 2.1,1.62 2.1,3.22 z"
           style="font-size:20px;line-height:1.25"
           id="path415" />
        <path
           d="m 5106.8689,-1413.5944 v -6.5 c 0,-1.46 -1.12,-2.7 -2.56,-2.7 -1.2,0 -2.26,0.68 -3.12,1.52 v -1.32 h -1.56 v 9 h 1.56 v -7.06 c 0.68,-0.68 1.52,-1.22 2.46,-1.22 0.94,0 1.66,0.82 1.66,1.78 v 6.5 z"
           style="font-size:20px;line-height:1.25"
           id="path417" />
        <path
           d="m 5116.507,-1409.5944 v -4.225 c 0,-0.91 -0.533,-1.755 -1.378,-1.755 -0.728,0 -1.404,0.377 -1.794,0.988 -0.208,-0.572 -0.65,-0.988 -1.248,-0.988 -0.6761,0 -1.2221,0.468 -1.6641,0.988 v -0.858 h -1.014 v 5.85 h 1.014 v -4.602 c 0.312,-0.403 0.702,-0.78 1.209,-0.78 0.5331,0 0.8191,0.572 0.8191,1.157 v 4.225 h 1.014 v -4.225 c 0,-0.156 -0.013,-0.299 -0.039,-0.455 0.312,-0.403 0.741,-0.702 1.248,-0.702 0.533,0 0.819,0.572 0.819,1.157 v 4.225 z"
           style="font-size:65.0009%;baseline-shift:sub"
           id="path419" />
        <path
           d="m 5120.9011,-1410.0494 v -0.39 c -0.247,0.208 -0.5331,0.377 -0.8581,0.377 -0.481,0 -0.572,-0.598 -0.572,-1.157 v -4.225 h -1.014 v 4.225 c 0,0.871 0.338,1.755 1.105,1.755 0.494,0 0.962,-0.247 1.3391,-0.585 z m -1.3001,-7.4231 c 0,-0.351 -0.286,-0.637 -0.637,-0.637 -0.351,0 -0.637,0.286 -0.637,0.637 0,0.351 0.286,0.637 0.637,0.637 0.351,0 0.637,-0.286 0.637,-0.637 z"
           style="font-size:65.0009%;baseline-shift:sub"
           id="path421" />
        <path
           d="m 5126.9071,-1409.5944 v -4.225 c 0,-0.949 -0.728,-1.755 -1.664,-1.755 -0.78,0 -1.469,0.442 -2.028,0.988 v -0.858 h -1.014 v 5.85 h 1.014 v -4.589 c 0.442,-0.442 0.988,-0.793 1.599,-0.793 0.611,0 1.079,0.533 1.079,1.157 v 4.225 z"
           style="font-size:65.0009%;baseline-shift:sub"
           id="path423" />
      </g>
      <g
         id="g69423"
         transform="translate(4341.4176,-1882.4119)">
        <path
           style="fill:#ffeeaa;fill-opacity:1;fill-rule:evenodd;stroke:#000000;stroke-width:1px;stroke-linecap:butt;stroke-linejoin:miter;stroke-opacity:1"
           d="m 381.81075,348.16017 v 56.69291 l 17.71654,-10.62992 v -35.43307 z"
           id="path69425" />
        <g
           aria-label="1"
           id="text69427"
           style="line-height:0%;font-family:Iwona;-inkscape-font-specification:Iwona">
          <path
             d="m 389.9741,394.22318 v -9.66 h -0.812 c -0.77,0.882 -1.68,1.638 -2.688,2.226 v 0.588 c 0.854,-0.406 1.652,-0.882 2.408,-1.456 v 8.302 z"
             style="font-size:14px;line-height:1.25"
             id="path426" />
        </g>
        <g
           aria-label="0"
           id="text69431"
           style="line-height:0%;font-family:Iwona;-inkscape-font-specification:Iwona">
          <path
             d="m 392.1021,364.59001 c 0,-3.318 -1.022,-4.97 -3.066,-4.97 -2.044,0 -3.066,1.652 -3.066,4.97 0,3.318 1.022,4.97 3.066,4.97 2.044,0 3.066,-1.652 3.066,-4.97 z m -1.232,0 c 0,2.926 -0.616,4.382 -1.834,4.382 -1.218,0 -1.834,-1.456 -1.834,-4.382 0,-2.926 0.616,-4.382 1.834,-4.382 1.218,0 1.834,1.456 1.834,4.382 z"
             style="font-size:14px;line-height:1.25"
             id="path429" />
        </g>
      </g>
      <g
         id="g69441"
         transform="translate(4052.3647,-1899.1994)">
        <path
           id="rect69443"
           style="fill:#ffeeaa;stroke:#000000;stroke-linecap:round;stroke-linejoin:bevel"
           d="m 330.70605,276.54999 h 63.77952 v 49.6063 h -63.77952 z" />
        <g
           aria-label="+ 1"
           id="text69445"
           style="line-height:0%;font-family:Iwona;-inkscape-font-specification:Iwona;text-align:center;text-anchor:middle">
          <path
             d="m 361.06131,303.81713 v -1.4 h -8.092 v -8.092 h -1.4 v 8.092 h -8.092 v 1.4 h 8.092 v 8.092 h 1.4 v -8.092 z"
             style="font-size:28px;line-height:1.25"
             id="path433" />
          <path
             d="m 381.72526,310.11713 v -19.32 h -1.624 c -1.54,1.764 -3.36,3.276 -5.376,4.452 v 1.176 c 1.708,-0.812 3.304,-1.764 4.816,-2.912 v 16.604 z"
             style="font-size:28px;line-height:1.25"
             id="path435" />
        </g>
      </g>
      <g
         transform="translate(4295.6936,-1522.1956)"
         id="g69449">
        <path
           id="rect69451"
           style="fill:#ffeeaa;stroke:#000000;stroke-width:0.999213"
           d="m 129.72725,-1.0402068 h 49.60633 V 58.995007 h -49.60633 z" />
        <g
           transform="translate(277.79303,-113.38582)"
           id="g69453">
          <g
             aria-label="D"
             id="text69455"
             style="line-height:0%;font-family:Iwona;-inkscape-font-specification:Iwona">
            <path
               d="m -136.09686,129.40545 c 0,-2.568 -1.404,-4.32 -3.876,-4.32 -0.744,0 -1.488,0.036 -2.22,0.12 h -0.96 v 8.4 h 0.96 c 0.732,0.084 1.476,0.12 2.22,0.12 2.472,0 3.876,-1.752 3.876,-4.32 z m -1.176,0 c 0,1.908 -0.972,3.768 -2.7,3.768 -0.732,0 -1.464,-0.036 -2.196,-0.12 v -7.296 c 0.732,-0.084 1.464,-0.12 2.196,-0.12 1.728,0 2.7,1.86 2.7,3.768 z"
               style="font-size:12px;line-height:1.25"
               id="path439" />
          </g>
        </g>
        <g
           transform="translate(283.79303,-81.69706)"
           id="g69459">
          <g
             aria-label="CLK"
             id="text69461"
             style="line-height:0%;font-family:Iwona;-inkscape-font-specification:Iwona">
            <path
               d="m -136.52895,127.22145 v -0.648 c -0.648,-0.936 -1.716,-1.488 -2.844,-1.488 -2.436,0 -3.756,1.776 -3.756,4.32 0,2.544 1.32,4.32 3.756,4.32 0.936,0 1.86,-0.276 2.652,-0.792 v -0.552 c -0.792,0.516 -1.716,0.792 -2.652,0.792 -1.884,0 -2.58,-1.668 -2.58,-3.768 0,-2.1 0.696,-3.768 2.58,-3.768 1.152,0 2.232,0.6 2.844,1.584 z"
               style="font-size:12px;line-height:1.25"
               id="path442" />
            <path
               d="m -130.16896,133.60545 v -0.552 h -3.816 v -7.848 h -0.984 v 8.4 z"
               style="font-size:12px;line-height:1.25"
               id="path444" />
            <path
               d="m -121.67298,133.60545 -5.316,-4.752 5.028,-3.648 h -0.948 l -4.836,3.516 v -3.516 h -0.984 v 8.4 h 0.984 v -4.104 l 4.596,4.104 z"
               style="font-size:12px;line-height:1.25"
               id="path446" />
          </g>
        </g>
        <g
           aria-label="Q"
           id="text69465"
           style="line-height:0%;font-family:Iwona;-inkscape-font-specification:Iwona">
          <path
             d="m 173.38035,16.019629 c 0,-2.544 -1.32,-4.32 -3.744,-4.32 -2.436,0 -3.756,1.776 -3.756,4.32 0,2.544 1.32,4.32 3.756,4.32 0.084,0.972 0.888,1.716 1.872,1.716 0.612,0 0.78,-0.036 1.344,-0.288 v -0.36 c -0.276,0.156 -0.576,0.24 -0.9,0.24 -1.092,0 -1.524,-0.384 -1.536,-1.38 1.92,-0.336 2.964,-1.992 2.964,-4.248 z m -1.176,0 c 0,2.1 -0.696,3.768 -2.568,3.768 -1.884,0 -2.58,-1.668 -2.58,-3.768 0,-2.1 0.696,-3.768 2.58,-3.768 1.872,0 2.568,1.668 2.568,3.768 z"
             style="font-size:12px;line-height:1.25"
             id="path449" />
        </g>
        <path
           id="path69469"
           d="m 129.72724,41.278473 7.08662,7.086614 -7.08662,7.086614"
           style="fill:none;stroke:#000000;stroke-width:1px;stroke-linecap:butt;stroke-linejoin:miter;stroke-opacity:1" />
      </g>
      <path
         style="fill:none;stroke:#000000;stroke-width:7.08661;stroke-linecap:butt;stroke-linejoin:miter;stroke-miterlimit:4;stroke-dasharray:none;stroke-opacity:1;marker-start:none;marker-end:url(#marker10177)"
         d="m 4499.9999,-1505.7203 v -92.126 h -42.5197"
         id="path69471" />
      <g
         transform="translate(4081.2208,-1806.3608)"
         id="g69475">
        <path
           style="fill:none;stroke:#000000;stroke-width:1px;stroke-linecap:butt;stroke-linejoin:miter;stroke-opacity:1"
           d="m 63.779528,361.4173 h 7.086614 v -17.71653 h 17.716535 v 17.71653 h 17.716533 v -17.71653 h 17.71654 v 17.71653 h 17.71653 v -17.71653 h 7.08662"
           id="path69477"
           transform="translate(192.00756,88.042072)" />
        <path
           style="fill:none;stroke:#ff0000;stroke-width:1px;stroke-linecap:butt;stroke-linejoin:miter;stroke-opacity:1;marker-end:url(#marker10197C)"
           d="m 70.866142,357.87399 v -7.08661"
           id="path69479"
           transform="translate(192.00756,88.042072)" />
        <path
           id="path69481"
           d="m 298.30677,445.91606 v -7.08661"
           style="fill:none;stroke:#ff0000;stroke-width:1px;stroke-linecap:butt;stroke-linejoin:miter;stroke-opacity:1;marker-end:url(#marker10197I)" />
        <path
           style="fill:none;stroke:#ff0000;stroke-width:1px;stroke-linecap:butt;stroke-linejoin:miter;stroke-opacity:1;marker-end:url(#marker10197E)"
           d="m 333.73984,445.91607 v -7.08661"
           id="path69483" />
      </g>
      <g
         aria-label="ms*"
         id="text69485"
         style="line-height:0%;font-family:Iwona;-inkscape-font-specification:Iwona;text-align:center;letter-spacing:0px;word-spacing:0px;text-anchor:middle">
        <path
           d="m 4398.1272,-1523.4368 v -6.5 c 0,-1.4 -0.82,-2.7 -2.12,-2.7 -1.12,0 -2.16,0.58 -2.76,1.52 -0.32,-0.88 -1,-1.52 -1.92,-1.52 -1.04,0 -1.88,0.72 -2.56,1.52 v -1.32 h -1.56 v 9 h 1.56 v -7.08 c 0.48,-0.62 1.08,-1.2 1.86,-1.2 0.82,0 1.26,0.88 1.26,1.78 v 6.5 h 1.56 v -6.5 c 0,-0.24 -0.02,-0.46 -0.06,-0.7 0.48,-0.62 1.14,-1.08 1.92,-1.08 0.82,0 1.26,0.88 1.26,1.78 v 6.5 z"
           style="font-size:20px;line-height:1.25"
           id="path452" />
        <path
           d="m 4407.3071,-1525.9968 c 0,-1.58 -1.68,-2.4 -3.32,-2.8 -0.96,-0.24 -2,-0.64 -2,-1.58 0,-0.86 0.88,-1.42 1.84,-1.42 1.06,0 2.12,0.32 3,0.9 v -0.84 c -0.88,-0.58 -1.94,-0.9 -3,-0.9 -1.74,0 -3.34,1.06 -3.34,2.68 0,1.46 1.62,2.14 3.16,2.52 1.06,0.26 2.16,0.82 2.16,1.84 0,0.94 -0.96,1.52 -1.98,1.52 -1.24,0 -2.44,-0.3 -3.5,-0.9 v 0.84 c 1.06,0.6 2.26,0.9 3.5,0.9 1.8,0 3.48,-1.08 3.48,-2.76 z"
           style="font-size:20px;line-height:1.25"
           id="path454" />
        <path
           d="m 4412.5471,-1538.0968 -1.36,0.78 c 0.28,0.62 0.4,1.3 0.34,1.98 l 0.48,-0.28 c 0.22,-0.82 0.4,-1.64 0.54,-2.48 z m -1.08,3.44 v -0.56 c -0.6,-0.6 -1.22,-1.16 -1.88,-1.7 v 1.56 c 0.68,0.08 1.32,0.32 1.88,0.7 z m 0.54,0.4 -0.48,-0.28 c -0.8,0.22 -1.62,0.48 -2.4,0.78 l 1.36,0.78 c 0.38,-0.54 0.92,-0.98 1.52,-1.28 z m 0.98,1.7 c -0.28,-0.62 -0.4,-1.3 -0.34,-1.98 l -0.48,0.28 c -0.22,0.82 -0.4,1.64 -0.54,2.48 z m 1.6,-0.42 v -1.56 c -0.68,-0.06 -1.32,-0.3 -1.86,-0.68 v 0.56 c 0.58,0.6 1.2,1.16 1.86,1.68 z m 0.46,-3.14 -1.36,-0.78 c -0.38,0.54 -0.92,0.98 -1.52,1.28 l 0.48,0.28 c 0.8,-0.22 1.62,-0.48 2.4,-0.78 z"
           style="font-size:20px;line-height:1.25"
           id="path456" />
      </g>
      <g
         aria-label="ms"
         id="text69489"
         style="line-height:0%;font-family:Iwona;-inkscape-font-specification:Iwona;text-align:center;letter-spacing:0px;word-spacing:0px;text-anchor:middle">
        <path
           d="m 4526.0233,-1523.4368 v -6.5 c 0,-1.4 -0.82,-2.7 -2.12,-2.7 -1.12,0 -2.16,0.58 -2.76,1.52 -0.32,-0.88 -1,-1.52 -1.92,-1.52 -1.04,0 -1.88,0.72 -2.56,1.52 v -1.32 h -1.56 v 9 h 1.56 v -7.08 c 0.48,-0.62 1.08,-1.2 1.86,-1.2 0.82,0 1.26,0.88 1.26,1.78 v 6.5 h 1.56 v -6.5 c 0,-0.24 -0.02,-0.46 -0.06,-0.7 0.48,-0.62 1.14,-1.08 1.92,-1.08 0.82,0 1.26,0.88 1.26,1.78 v 6.5 z"
           style="font-size:20px;line-height:1.25"
           id="path459" />
        <path
           d="m 4535.2032,-1525.9968 c 0,-1.58 -1.68,-2.4 -3.32,-2.8 -0.96,-0.24 -2,-0.64 -2,-1.58 0,-0.86 0.88,-1.42 1.84,-1.42 1.06,0 2.12,0.32 3,0.9 v -0.84 c -0.88,-0.58 -1.94,-0.9 -3,-0.9 -1.74,0 -3.34,1.06 -3.34,2.68 0,1.46 1.62,2.14 3.16,2.52 1.06,0.26 2.16,0.82 2.16,1.84 0,0.94 -0.96,1.52 -1.98,1.52 -1.24,0 -2.44,-0.3 -3.5,-0.9 v 0.84 c 1.06,0.6 2.26,0.9 3.5,0.9 1.8,0 3.48,-1.08 3.48,-2.76 z"
           style="font-size:20px;line-height:1.25"
           id="path461" />
      </g>
      <g
         transform="translate(4217.4018,-1804.0731)"
         id="g69493">
        <path
           id="rect69495"
           style="fill:#ffeeaa;stroke:#000000;stroke-linecap:round;stroke-linejoin:bevel"
           d="m 328.66107,273.54971 h 63.77954 v 53.1496 h -63.77954 z" />
        <g
           aria-label="= 999
?"
           id="text69497"
           style="line-height:0%;font-family:Iwona;-inkscape-font-specification:Iwona;text-align:center;text-anchor:middle">
          <path
             d="m 348.78478,288.77451 v -0.9 h -11.304 v 0.9 z m 0,3.6 v -0.9 h -11.304 v 0.9 z"
             style="font-size:18px;line-height:1.25"
             id="path465" />
          <path
             d="m 364.67874,288.41451 c 0,-4.464 -1.152,-6.39 -3.816,-6.39 -2.304,0 -3.834,1.692 -3.834,4.23 0,2.592 1.026,4.23 3.438,4.23 1.044,0 2.016,-0.486 2.628,-1.314 0,2.358 -0.594,4.878 -2.628,4.878 -0.918,0 -1.818,-0.306 -2.538,-0.882 v 0.756 c 0.72,0.576 1.62,0.882 2.538,0.882 2.826,0 4.212,-3.204 4.212,-6.39 z m -1.584,0 c -0.612,0.828 -1.584,1.314 -2.628,1.314 -1.44,0 -1.854,-1.8 -1.854,-3.474 0,-2.088 0.9,-3.474 2.25,-3.474 2.502,0 2.232,2.718 2.232,5.634 z"
             style="font-size:18px;line-height:1.25"
             id="path467" />
          <path
             d="m 374.12874,288.41451 c 0,-4.464 -1.152,-6.39 -3.816,-6.39 -2.304,0 -3.834,1.692 -3.834,4.23 0,2.592 1.026,4.23 3.438,4.23 1.044,0 2.016,-0.486 2.628,-1.314 0,2.358 -0.594,4.878 -2.628,4.878 -0.918,0 -1.818,-0.306 -2.538,-0.882 v 0.756 c 0.72,0.576 1.62,0.882 2.538,0.882 2.826,0 4.212,-3.204 4.212,-6.39 z m -1.584,0 c -0.612,0.828 -1.584,1.314 -2.628,1.314 -1.44,0 -1.854,-1.8 -1.854,-3.474 0,-2.088 0.9,-3.474 2.25,-3.474 2.502,0 2.232,2.718 2.232,5.634 z"
             style="font-size:18px;line-height:1.25"
             id="path469" />
          <path
             d="m 383.57873,288.41451 c 0,-4.464 -1.152,-6.39 -3.816,-6.39 -2.304,0 -3.834,1.692 -3.834,4.23 0,2.592 1.026,4.23 3.438,4.23 1.044,0 2.016,-0.486 2.628,-1.314 0,2.358 -0.594,4.878 -2.628,4.878 -0.918,0 -1.818,-0.306 -2.538,-0.882 v 0.756 c 0.72,0.576 1.62,0.882 2.538,0.882 2.826,0 4.212,-3.204 4.212,-6.39 z m -1.584,0 c -0.612,0.828 -1.584,1.314 -2.628,1.314 -1.44,0 -1.854,-1.8 -1.854,-3.474 0,-2.088 0.9,-3.474 2.25,-3.474 2.502,0 2.232,2.718 2.232,5.634 z"
             style="font-size:18px;line-height:1.25"
             id="path471" />
          <path
             d="m 360.95276,316.24251 c 0,-0.486 -0.396,-0.882 -0.882,-0.882 -0.486,0 -0.882,0.396 -0.882,0.882 0,0.486 0.396,0.882 0.882,0.882 0.486,0 0.882,-0.396 0.882,-0.882 z m 2.718,-9.198 c 0,-1.566 -1.638,-2.52 -3.366,-2.52 -1.296,0 -2.538,0.576 -3.366,1.566 v 0.756 c 0.828,-0.99 2.07,-1.566 3.366,-1.566 1.044,0 1.962,0.756 1.962,1.764 0,1.116 0.018,1.476 -0.666,2.358 -0.576,0.738 -1.278,1.386 -1.638,2.268 -0.288,0.738 -0.27,1.548 -0.27,2.34 h 0.756 c 0,-1.764 0.36,-2.214 1.602,-3.492 1.26,-1.26 1.62,-1.71 1.62,-3.474 z"
             style="font-size:18px;line-height:1.25"
             id="path473" />
        </g>
      </g>
      <path
         id="path69503"
         d="m 4383.0707,-1597.8463 h -60.2361 v 77.9528 h 28.3465"
         style="fill:none;stroke:#000000;stroke-width:7.08661;stroke-linecap:butt;stroke-linejoin:miter;stroke-miterlimit:4;stroke-dasharray:none;stroke-opacity:1;marker-end:url(#marker9707)" />
      <g
         aria-label="1 ms"
         id="text69505"
         style="line-height:0%;font-family:Iwona;-inkscape-font-specification:Sans;text-align:center;letter-spacing:0px;word-spacing:0px;text-anchor:middle">
        <path
           d="m 4353.5682,-1339.1849 v -8.28 h -0.696 c -0.66,0.756 -1.44,1.404 -2.304,1.908 v 0.504 c 0.732,-0.348 1.416,-0.756 2.064,-1.248 v 7.116 z"
           style="font-size:12px;line-height:1.25"
           id="path476" />
        <path
           d="m 4367.4161,-1339.1849 v -3.9 c 0,-0.84 -0.492,-1.62 -1.272,-1.62 -0.672,0 -1.296,0.348 -1.656,0.912 -0.192,-0.528 -0.6,-0.912 -1.152,-0.912 -0.624,0 -1.128,0.432 -1.536,0.912 v -0.792 h -0.936 v 5.4 h 0.936 v -4.248 c 0.288,-0.372 0.648,-0.72 1.116,-0.72 0.492,0 0.756,0.528 0.756,1.068 v 3.9 h 0.936 v -3.9 c 0,-0.144 -0.012,-0.276 -0.036,-0.42 0.288,-0.372 0.684,-0.648 1.152,-0.648 0.492,0 0.756,0.528 0.756,1.068 v 3.9 z"
           style="font-size:12px;line-height:1.25"
           id="path478" />
        <path
           d="m 4372.9241,-1340.7209 c 0,-0.948 -1.008,-1.44 -1.992,-1.68 -0.576,-0.144 -1.2,-0.384 -1.2,-0.948 0,-0.516 0.528,-0.852 1.104,-0.852 0.636,0 1.272,0.192 1.8,0.54 v -0.504 c -0.528,-0.348 -1.164,-0.54 -1.8,-0.54 -1.044,0 -2.004,0.636 -2.004,1.608 0,0.876 0.972,1.284 1.896,1.512 0.636,0.156 1.296,0.492 1.296,1.104 0,0.564 -0.576,0.912 -1.188,0.912 -0.744,0 -1.464,-0.18 -2.1,-0.54 v 0.504 c 0.636,0.36 1.356,0.54 2.1,0.54 1.08,0 2.088,-0.648 2.088,-1.656 z"
           style="font-size:12px;line-height:1.25"
           id="path480" />
      </g>
      <path
         id="path69509"
         d="m 4475.1967,-1505.7203 60.2362,0.2011"
         style="fill:none;stroke:#000000;stroke-width:7.08661;stroke-linecap:butt;stroke-linejoin:miter;stroke-miterlimit:4;stroke-dasharray:none;stroke-opacity:1;marker-end:url(#marker10177)" />
      <g
         aria-label="clkms"
         id="text69511"
         style="line-height:0%;font-family:Iwona;-inkscape-font-specification:Iwona;text-align:end;letter-spacing:0px;word-spacing:0px;text-anchor:end">
        <path
           d="m 4295.8878,-1367.3647 v -0.84 c -0.64,-0.9 -1.68,-1.44 -2.8,-1.44 -2.5,0 -4.18,1.88 -4.18,4.7 0,2.82 1.68,4.7 4.18,4.7 1.04,0 2.02,-0.52 2.6,-1.38 v -0.84 c -0.68,1.02 -1.38,1.38 -2.6,1.38 -1.44,0 -2.42,-1.54 -2.42,-3.86 0,-2.32 0.98,-3.86 2.42,-3.86 1.24,0 2.08,0.44 2.8,1.44 z"
           style="font-size:20px;line-height:1.25"
           id="path483" />
        <path
           d="m 4301.7478,-1361.1447 v -0.6 c -0.38,0.32 -0.82,0.58 -1.32,0.58 -0.74,0 -0.88,-0.92 -0.88,-1.78 v -11.5 h -1.56 v 11.5 c 0,1.34 0.52,2.7 1.7,2.7 0.76,0 1.48,-0.38 2.06,-0.9 z"
           style="font-size:20px;line-height:1.25"
           id="path485" />
        <path
           d="m 4311.4878,-1360.4447 -4.64,-5.34 4.48,-3.66 h -1.24 l -4.78,3.92 v -8.92 h -1.56 v 14 h 1.56 v -4.98 l 4.32,4.98 z"
           style="font-size:20px;line-height:1.25"
           id="path487" />
        <path
           d="m 4319.8259,-1356.4447 v -4.2251 c 0,-0.91 -0.533,-1.755 -1.378,-1.755 -0.7281,0 -1.4041,0.377 -1.7941,0.988 -0.208,-0.572 -0.65,-0.988 -1.248,-0.988 -0.676,0 -1.222,0.468 -1.664,0.988 v -0.858 h -1.014 v 5.8501 h 1.014 v -4.6021 c 0.312,-0.403 0.702,-0.78 1.209,-0.78 0.533,0 0.819,0.572 0.819,1.157 v 4.2251 h 1.014 v -4.2251 c 0,-0.156 -0.013,-0.299 -0.039,-0.455 0.312,-0.403 0.741,-0.702 1.248,-0.702 0.5331,0 0.8191,0.572 0.8191,1.157 v 4.2251 z"
           style="font-size:65.0009%;baseline-shift:sub"
           id="path489" />
        <path
           d="m 4325.7929,-1358.1087 c 0,-1.027 -1.092,-1.56 -2.158,-1.8201 -0.624,-0.156 -1.3,-0.416 -1.3,-1.027 0,-0.559 0.572,-0.923 1.196,-0.923 0.689,0 1.378,0.208 1.95,0.585 v -0.546 c -0.572,-0.377 -1.261,-0.585 -1.95,-0.585 -1.131,0 -2.171,0.689 -2.171,1.742 0,0.9491 1.053,1.3911 2.054,1.6381 0.689,0.169 1.404,0.533 1.404,1.196 0,0.611 -0.624,0.988 -1.287,0.988 -0.806,0 -1.586,-0.195 -2.275,-0.585 v 0.546 c 0.689,0.39 1.469,0.585 2.275,0.585 1.17,0 2.262,-0.702 2.262,-1.794 z"
           style="font-size:65.0009%;baseline-shift:sub"
           id="path491" />
      </g>
      <path
         style="fill:none;stroke:#000000;stroke-width:0.999213;stroke-linecap:butt;stroke-linejoin:miter;stroke-miterlimit:4;stroke-dasharray:none;stroke-opacity:1;marker-start:url(#marker10185-38);marker-end:url(#marker9715)"
         d="m 4344.0945,-1353.3581 h 35.4331"
         id="path69517" />
      <g
         id="g69519"
         transform="translate(3980.0002,-1882.2269)">
        <path
           style="fill:#ffeeaa;fill-opacity:1;fill-rule:evenodd;stroke:#000000;stroke-width:1px;stroke-linecap:butt;stroke-linejoin:miter;stroke-opacity:1"
           d="m 381.81075,348.16017 v 56.69291 l 17.71654,-10.62992 v -35.43307 z"
           id="path69521" />
        <g
           aria-label="1"
           id="text69523"
           style="line-height:0%;font-family:Iwona;-inkscape-font-specification:Iwona">
          <path
             d="m 389.9741,394.22318 v -9.66 h -0.812 c -0.77,0.882 -1.68,1.638 -2.688,2.226 v 0.588 c 0.854,-0.406 1.652,-0.882 2.408,-1.456 v 8.302 z"
             style="font-size:14px;line-height:1.25"
             id="path494" />
        </g>
        <g
           aria-label="0"
           id="text69527"
           style="line-height:0%;font-family:Iwona;-inkscape-font-specification:Iwona">
          <path
             d="m 392.1021,364.59001 c 0,-3.318 -1.022,-4.97 -3.066,-4.97 -2.044,0 -3.066,1.652 -3.066,4.97 0,3.318 1.022,4.97 3.066,4.97 2.044,0 3.066,-1.652 3.066,-4.97 z m -1.232,0 c 0,2.926 -0.616,4.382 -1.834,4.382 -1.218,0 -1.834,-1.456 -1.834,-4.382 0,-2.926 0.616,-4.382 1.834,-4.382 1.218,0 1.834,1.456 1.834,4.382 z"
             style="font-size:14px;line-height:1.25"
             id="path497" />
        </g>
      </g>
      <path
         style="fill:none;stroke:#000000;stroke-width:7.08661;stroke-linecap:butt;stroke-linejoin:miter;stroke-miterlimit:4;stroke-dasharray:none;stroke-opacity:1;marker-end:url(#marker10177)"
         d="m 4379.5274,-1505.7203 h 35.4332"
         id="path69531" />
      <path
         id="path69533"
         d="m 4326.3778,-1491.547 h 24.8032"
         style="fill:none;stroke:#000000;stroke-width:7.08661;stroke-linecap:butt;stroke-linejoin:miter;stroke-miterlimit:4;stroke-dasharray:none;stroke-opacity:1;marker-end:url(#marker10177)" />
      <g
         aria-label="0"
         id="text69535"
         style="line-height:0%;font-family:Iwona;-inkscape-font-specification:Iwona;text-align:end;letter-spacing:0px;word-spacing:0px;text-anchor:end">
        <path
           d="m 4321.8025,-1492.7404 c 0,-5.688 -1.752,-8.52 -5.256,-8.52 -3.504,0 -5.256,2.832 -5.256,8.52 0,5.688 1.752,8.52 5.256,8.52 3.504,0 5.256,-2.832 5.256,-8.52 z m -2.112,0 c 0,5.016 -1.056,7.512 -3.144,7.512 -2.088,0 -3.144,-2.496 -3.144,-7.512 0,-5.016 1.056,-7.512 3.144,-7.512 2.088,0 3.144,2.496 3.144,7.512 z"
           style="font-size:24px;line-height:1.25"
           id="path500" />
      </g>
      <path
         style="fill:none;stroke:#000000;stroke-width:0.999213;stroke-linecap:butt;stroke-linejoin:miter;stroke-miterlimit:4;stroke-dasharray:none;stroke-opacity:1;marker-start:url(#marker8710);marker-end:url(#marker10201)"
         d="m 4627.559,-1505.7203 v -134.6457 h -258.6614 v 109.8426"
         id="path69539" />
      <g
         id="g69541"
         transform="translate(4839.1487,-1899.1994)">
        <path
           id="rect69543"
           style="fill:#ffeeaa;stroke:#000000;stroke-linecap:round;stroke-linejoin:bevel"
           d="m 330.70605,276.54999 h 63.77952 v 49.6063 h -63.77952 z" />
        <g
           aria-label="+ 1"
           id="text69545"
           style="line-height:0%;font-family:Iwona;-inkscape-font-specification:Iwona;text-align:center;text-anchor:middle">
          <path
             d="m 361.06131,303.81713 v -1.4 h -8.092 v -8.092 h -1.4 v 8.092 h -8.092 v 1.4 h 8.092 v 8.092 h 1.4 v -8.092 z"
             style="font-size:28px;line-height:1.25"
             id="path504" />
          <path
             d="m 381.72526,310.11713 v -19.32 h -1.624 c -1.54,1.764 -3.36,3.276 -5.376,4.452 v 1.176 c 1.708,-0.812 3.304,-1.764 4.816,-2.912 v 16.604 z"
             style="font-size:28px;line-height:1.25"
             id="path506" />
        </g>
      </g>
      <path
         style="fill:none;stroke:#000000;stroke-width:7.08661;stroke-linecap:butt;stroke-linejoin:miter;stroke-miterlimit:4;stroke-dasharray:none;stroke-opacity:1;marker-start:none;marker-end:url(#marker10177)"
         d="m 5279.6971,-1505.7203 v -92.126 l -35.6026,-0.185"
         id="path69571" />
      <g
         aria-label="min"
         id="text69577"
         style="line-height:0%;font-family:Iwona;-inkscape-font-specification:Iwona;text-align:center;letter-spacing:0px;word-spacing:0px;text-anchor:middle">
        <path
           d="m 5302.01,-1523.4368 v -6.5 c 0,-1.4 -0.82,-2.7 -2.12,-2.7 -1.12,0 -2.16,0.58 -2.76,1.52 -0.32,-0.88 -1,-1.52 -1.92,-1.52 -1.04,0 -1.88,0.72 -2.56,1.52 v -1.32 h -1.56 v 9 h 1.56 v -7.08 c 0.48,-0.62 1.08,-1.2 1.86,-1.2 0.82,0 1.26,0.88 1.26,1.78 v 6.5 h 1.56 v -6.5 c 0,-0.24 -0.02,-0.46 -0.06,-0.7 0.48,-0.62 1.14,-1.08 1.92,-1.08 0.82,0 1.26,0.88 1.26,1.78 v 6.5 z"
           style="font-size:20px;line-height:1.25"
           id="path509" />
        <path
           d="m 5308.77,-1524.1368 v -0.6 c -0.38,0.32 -0.82,0.58 -1.32,0.58 -0.74,0 -0.88,-0.92 -0.88,-1.78 v -6.5 h -1.56 v 6.5 c 0,1.34 0.52,2.7 1.7,2.7 0.76,0 1.48,-0.38 2.06,-0.9 z m -2,-11.42 c 0,-0.54 -0.44,-0.98 -0.98,-0.98 -0.54,0 -0.98,0.44 -0.98,0.98 0,0.54 0.44,0.98 0.98,0.98 0.54,0 0.98,-0.44 0.98,-0.98 z"
           style="font-size:20px;line-height:1.25"
           id="path511" />
        <path
           d="m 5318.01,-1523.4368 v -6.5 c 0,-1.46 -1.12,-2.7 -2.56,-2.7 -1.2,0 -2.26,0.68 -3.12,1.52 v -1.32 h -1.56 v 9 h 1.56 v -7.06 c 0.68,-0.68 1.52,-1.22 2.46,-1.22 0.94,0 1.66,0.82 1.66,1.78 v 6.5 z"
           style="font-size:20px;line-height:1.25"
           id="path513" />
      </g>
      <g
         transform="translate(4997.099,-1804.0731)"
         id="g69581">
        <path
           id="rect69583"
           style="fill:#ffeeaa;stroke:#000000;stroke-linecap:round;stroke-linejoin:bevel"
           d="m 328.66107,273.54971 h 63.77954 v 53.1496 h -63.77954 z" />
        <g
           aria-label="= 59
?"
           id="text69585"
           style="line-height:0%;font-family:Iwona;-inkscape-font-specification:Iwona;text-align:center;text-anchor:middle">
          <path
             d="m 353.50977,288.77451 v -0.9 h -11.304 v 0.9 z m 0,3.6 v -0.9 h -11.304 v 0.9 z"
             style="font-size:18px;line-height:1.25"
             id="path517" />
          <path
             d="m 369.40374,290.57451 c 0,-2.538 -1.53,-4.23 -3.816,-4.23 -1.044,0 -2.016,0.396 -2.772,1.062 l 0.18,-4.086 h 6.048 v -1.116 h -6.75 l -0.27,6.21 0.756,0.036 c 0.684,-0.846 1.71,-1.35 2.808,-1.35 1.332,0 2.232,1.386 2.232,3.474 0,2.088 -0.9,3.474 -2.232,3.474 -1.386,0 -2.736,-0.45 -3.834,-1.296 v 0.756 c 1.098,0.846 2.448,1.296 3.834,1.296 2.286,0 3.816,-1.692 3.816,-4.23 z"
             style="font-size:18px;line-height:1.25"
             id="path519" />
          <path
             d="m 378.85373,288.41451 c 0,-4.464 -1.152,-6.39 -3.816,-6.39 -2.304,0 -3.834,1.692 -3.834,4.23 0,2.592 1.026,4.23 3.438,4.23 1.044,0 2.016,-0.486 2.628,-1.314 0,2.358 -0.594,4.878 -2.628,4.878 -0.918,0 -1.818,-0.306 -2.538,-0.882 v 0.756 c 0.72,0.576 1.62,0.882 2.538,0.882 2.826,0 4.212,-3.204 4.212,-6.39 z m -1.584,0 c -0.612,0.828 -1.584,1.314 -2.628,1.314 -1.44,0 -1.854,-1.8 -1.854,-3.474 0,-2.088 0.9,-3.474 2.25,-3.474 2.502,0 2.232,2.718 2.232,5.634 z"
             style="font-size:18px;line-height:1.25"
             id="path521" />
          <path
             d="m 360.95276,316.24251 c 0,-0.486 -0.396,-0.882 -0.882,-0.882 -0.486,0 -0.882,0.396 -0.882,0.882 0,0.486 0.396,0.882 0.882,0.882 0.486,0 0.882,-0.396 0.882,-0.882 z m 2.718,-9.198 c 0,-1.566 -1.638,-2.52 -3.366,-2.52 -1.296,0 -2.538,0.576 -3.366,1.566 v 0.756 c 0.828,-0.99 2.07,-1.566 3.366,-1.566 1.044,0 1.962,0.756 1.962,1.764 0,1.116 0.018,1.476 -0.666,2.358 -0.576,0.738 -1.278,1.386 -1.638,2.268 -0.288,0.738 -0.27,1.548 -0.27,2.34 h 0.756 c 0,-1.764 0.36,-2.214 1.602,-3.492 1.26,-1.26 1.62,-1.71 1.62,-3.474 z"
             style="font-size:18px;line-height:1.25"
             id="path523" />
        </g>
      </g>
      <path
         id="path69591"
         d="m 5169.685,-1597.8463 h -95.6693 v 77.7678 h 28.3465"
         style="fill:none;stroke:#000000;stroke-width:7.08661;stroke-linecap:butt;stroke-linejoin:miter;stroke-miterlimit:4;stroke-dasharray:none;stroke-opacity:1;marker-end:url(#marker9707)" />
      <path
         id="path69593"
         d="m 5254.8939,-1505.7203 60.2362,0.201"
         style="fill:none;stroke:#000000;stroke-width:7.08661;stroke-linecap:butt;stroke-linejoin:miter;stroke-miterlimit:4;stroke-dasharray:none;stroke-opacity:1;marker-end:url(#marker10177)" />
      <path
         style="fill:none;stroke:#000000;stroke-width:7.08661;stroke-linecap:butt;stroke-linejoin:miter;stroke-miterlimit:4;stroke-dasharray:none;stroke-opacity:1;marker-end:url(#marker10177)"
         d="m 5130.7087,-1505.9053 63.9491,0.185"
         id="path69607" />
      <path
         id="path69609"
         d="m 5077.559,-1491.732 h 24.8032"
         style="fill:none;stroke:#000000;stroke-width:7.08661;stroke-linecap:butt;stroke-linejoin:miter;stroke-miterlimit:4;stroke-dasharray:none;stroke-opacity:1;marker-end:url(#marker10177)" />
      <g
         aria-label="0"
         id="text69611"
         style="line-height:0%;font-family:Iwona;-inkscape-font-specification:Iwona;text-align:end;letter-spacing:0px;word-spacing:0px;text-anchor:end">
        <path
           d="m 5072.9841,-1492.9255 c 0,-5.688 -1.752,-8.52 -5.256,-8.52 -3.504,0 -5.256,2.832 -5.256,8.52 0,5.688 1.752,8.52 5.256,8.52 3.504,0 5.256,-2.832 5.256,-8.52 z m -2.112,0 c 0,5.016 -1.056,7.512 -3.144,7.512 -2.088,0 -3.144,-2.496 -3.144,-7.512 0,-5.016 1.056,-7.512 3.144,-7.512 2.088,0 3.144,2.496 3.144,7.512 z"
           style="font-size:24px;line-height:1.25"
           id="path526" />
      </g>
      <path
         style="fill:none;stroke:#000000;stroke-width:0.999213;stroke-linecap:butt;stroke-linejoin:miter;stroke-miterlimit:4;stroke-dasharray:none;stroke-opacity:1;marker-start:url(#marker8710);marker-end:url(#marker10201)"
         d="m 5407.01,-1505.9053 0.1697,-134.6457 h -287.101 l 0.077,109.8425"
         id="path69615" />
      <g
         transform="translate(4731.1813,-1882.4119)"
         id="g69617">
        <path
           id="path69619"
           d="m 381.81075,348.16017 v 56.69291 l 17.71654,-10.62992 v -35.43307 z"
           style="fill:#ffeeaa;fill-opacity:1;fill-rule:evenodd;stroke:#000000;stroke-width:1px;stroke-linecap:butt;stroke-linejoin:miter;stroke-opacity:1" />
        <g
           aria-label="1"
           id="text69621"
           style="line-height:0%;font-family:Iwona;-inkscape-font-specification:Iwona">
          <path
             d="m 389.9741,394.22318 v -9.66 h -0.812 c -0.77,0.882 -1.68,1.638 -2.688,2.226 v 0.588 c 0.854,-0.406 1.652,-0.882 2.408,-1.456 v 8.302 z"
             style="font-size:14px;line-height:1.25"
             id="path529" />
        </g>
        <g
           aria-label="0"
           id="text69625"
           style="line-height:0%;font-family:Iwona;-inkscape-font-specification:Iwona">
          <path
             d="m 392.1021,364.59001 c 0,-3.318 -1.022,-4.97 -3.066,-4.97 -2.044,0 -3.066,1.652 -3.066,4.97 0,3.318 1.022,4.97 3.066,4.97 2.044,0 3.066,-1.652 3.066,-4.97 z m -1.232,0 c 0,2.926 -0.616,4.382 -1.834,4.382 -1.218,0 -1.834,-1.456 -1.834,-4.382 0,-2.926 0.616,-4.382 1.834,-4.382 1.218,0 1.834,1.456 1.834,4.382 z"
             style="font-size:14px;line-height:1.25"
             id="path532" />
        </g>
      </g>
      <path
         id="path69633"
         d="m 5035.0394,-1455.4254 v 48.9177 h 4.5145 c 4.5145,0 30.9186,0 30.9186,-24.4588 0,-24.4589 -26.4041,-24.4589 -30.9186,-24.4589 0,0 -4.5145,0 -4.5145,0 z"
         style="display:inline;fill:#ffeeaa;fill-opacity:1;stroke:#000000;stroke-width:1.35883px;stroke-linecap:butt;stroke-linejoin:miter;stroke-opacity:1" />
      <path
         id="path69635"
         d="m 4758.6614,-1417.1376 h 276.378"
         style="fill:none;stroke:#000000;stroke-width:0.999213;stroke-linecap:butt;stroke-linejoin:miter;stroke-miterlimit:4;stroke-dasharray:none;stroke-opacity:1;marker-start:url(#marker8710);marker-end:url(#marker10201)" />
      <path
         style="fill:none;stroke:#000000;stroke-width:0.999213;stroke-linecap:butt;stroke-linejoin:miter;stroke-miterlimit:4;stroke-dasharray:none;stroke-opacity:1;marker-start:none;marker-end:url(#marker10201)"
         d="m 4999.6062,-1505.7203 h 17.7166 v 60.2362 h 17.7166"
         id="path69637" />
      <g
         aria-label="enhr"
         id="text69641"
         style="line-height:0%;font-family:Iwona;-inkscape-font-specification:Iwona;letter-spacing:0px;word-spacing:0px">
        <path
           d="m 5486.7926,-1432.0676 v -0.2 c 0,-2.82 -1.54,-4.7 -3.86,-4.7 -2.34,0 -3.88,1.88 -3.88,4.7 0,2.82 1.54,4.7 3.88,4.7 1,0 1.98,-0.32 2.8,-0.9 v -0.84 c -0.94,0.6 -1.7,0.82 -2.8,0.82 -1.7,0 -2.12,-1.62 -2.12,-3.58 z m -1.76,-0.84 h -4.22 c 0,-1.6 0.68,-3.22 2.12,-3.22 1.42,0 2.1,1.62 2.1,3.22 z"
           style="font-size:20px;line-height:1.25"
           id="path535" />
        <path
           d="m 5496.6326,-1427.7676 v -6.5 c 0,-1.46 -1.12,-2.7 -2.56,-2.7 -1.2,0 -2.26,0.68 -3.12,1.52 v -1.32 h -1.56 v 9 h 1.56 v -7.06 c 0.68,-0.68 1.52,-1.22 2.46,-1.22 0.94,0 1.66,0.82 1.66,1.78 v 6.5 z"
           style="font-size:20px;line-height:1.25"
           id="path537" />
        <path
           d="m 5503.8787,-1423.7676 v -4.225 c 0,-0.949 -0.7281,-1.7551 -1.6641,-1.7551 -0.78,0 -1.469,0.442 -2.028,0.9881 v -4.1081 h -1.014 v 9.1001 h 1.014 v -4.589 c 0.442,-0.442 0.988,-0.7931 1.599,-0.7931 0.611,0 1.079,0.5331 1.079,1.1571 v 4.225 z"
           style="font-size:65.0009%;baseline-shift:sub"
           id="path539" />
        <path
           d="m 5509.1307,-1428.8116 v -0.8061 c -0.143,-0.052 -0.299,-0.091 -0.442,-0.091 -0.728,0 -1.313,0.507 -1.781,1.0661 v -0.9751 h -1.014 v 5.8501 h 1.014 v -4.329 c 0.39,-0.455 0.884,-0.845 1.482,-0.845 0.247,0 0.507,0.052 0.741,0.13 z"
           style="font-size:65.0009%;baseline-shift:sub"
           id="path541" />
      </g>
      <g
         transform="translate(5228.9124,-1899.1994)"
         id="g69647">
        <path
           id="rect69649"
           style="fill:#ffeeaa;stroke:#000000;stroke-linecap:round;stroke-linejoin:bevel"
           d="m 330.70605,276.54999 h 63.77952 v 49.6063 h -63.77952 z" />
        <g
           aria-label="+ 1"
           id="text69651"
           style="line-height:0%;font-family:Iwona;-inkscape-font-specification:Iwona;text-align:center;text-anchor:middle">
          <path
             d="m 361.06131,303.81713 v -1.4 h -8.092 v -8.092 h -1.4 v 8.092 h -8.092 v 1.4 h 8.092 v 8.092 h 1.4 v -8.092 z"
             style="font-size:28px;line-height:1.25"
             id="path545" />
          <path
             d="m 381.72526,310.11713 v -19.32 h -1.624 c -1.54,1.764 -3.36,3.276 -5.376,4.452 v 1.176 c 1.708,-0.812 3.304,-1.764 4.816,-2.912 v 16.604 z"
             style="font-size:28px;line-height:1.25"
             id="path547" />
        </g>
      </g>
      <path
         id="path69677"
         d="m 5669.4608,-1505.7203 v -92.126 l -35.6026,-0.185"
         style="fill:none;stroke:#000000;stroke-width:7.08661;stroke-linecap:butt;stroke-linejoin:miter;stroke-miterlimit:4;stroke-dasharray:none;stroke-opacity:1;marker-start:none;marker-end:url(#marker10177)" />
      <g
         aria-label="hr"
         id="text69683"
         style="line-height:0%;font-family:Iwona;-inkscape-font-specification:Iwona;text-align:center;letter-spacing:0px;word-spacing:0px;text-anchor:middle">
        <path
           d="m 5694.4442,-1523.4368 v -6.5 c 0,-1.46 -1.12,-2.7 -2.56,-2.7 -1.2,0 -2.26,0.68 -3.12,1.52 v -6.32 h -1.56 v 14 h 1.56 v -7.06 c 0.68,-0.68 1.52,-1.22 2.46,-1.22 0.94,0 1.66,0.82 1.66,1.78 v 6.5 z"
           style="font-size:20px;line-height:1.25"
           id="path550" />
        <path
           d="m 5702.5242,-1531.1968 v -1.24 c -0.22,-0.08 -0.46,-0.14 -0.68,-0.14 -1.12,0 -2.02,0.78 -2.74,1.64 v -1.5 h -1.56 v 9 h 1.56 v -6.66 c 0.6,-0.7 1.36,-1.3 2.28,-1.3 0.38,0 0.78,0.08 1.14,0.2 z"
           style="font-size:20px;line-height:1.25"
           id="path552" />
      </g>
      <g
         id="g69687"
         transform="translate(5386.8627,-1804.0731)">
        <path
           id="rect69689"
           style="fill:#ffeeaa;stroke:#000000;stroke-linecap:round;stroke-linejoin:bevel"
           d="m 328.66107,273.54971 h 63.77954 v 53.1496 h -63.77954 z" />
        <g
           aria-label="= 23
?"
           id="text69691"
           style="line-height:0%;font-family:Iwona;-inkscape-font-specification:Iwona;text-align:center;text-anchor:middle">
          <path
             d="m 353.50977,288.77451 v -0.9 h -11.304 v 0.9 z m 0,3.6 v -0.9 h -11.304 v 0.9 z"
             style="font-size:18px;line-height:1.25"
             id="path556" />
          <path
             d="m 369.40374,294.62451 v -1.116 h -6.354 l 3.312,-3.276 c 1.476,-1.476 2.862,-3.204 2.862,-5.292 0,-1.764 -1.746,-2.916 -3.636,-2.916 -1.422,0 -2.772,0.648 -3.654,1.746 v 0.756 c 0.918,-1.062 2.25,-1.674 3.654,-1.674 1.206,0 2.232,0.9 2.232,2.088 0,1.782 -0.828,3.438 -2.052,4.716 l -4.014,4.122 v 0.846 z"
             style="font-size:18px;line-height:1.25"
             id="path558" />
          <path
             d="m 378.85373,291.20451 c 0,-1.584 -1.116,-2.952 -2.664,-3.42 1.368,-0.396 2.214,-1.422 2.214,-2.79 0,-1.782 -1.44,-2.97 -3.6,-2.97 -1.17,0 -2.304,0.396 -3.222,1.116 v 0.756 c 0.918,-0.72 2.052,-1.116 3.222,-1.116 1.314,0 2.196,0.882 2.196,2.214 0,2.142 -0.99,2.7 -3.24,2.7 v 0.666 c 2.43,0 3.51,0.576 3.51,2.844 0,1.566 -1.008,2.844 -2.232,2.844 -1.368,0 -2.7,-0.396 -3.834,-1.116 v 0.756 c 1.134,0.72 2.466,1.116 3.834,1.116 2.088,0 3.816,-1.62 3.816,-3.6 z"
             style="font-size:18px;line-height:1.25"
             id="path560" />
          <path
             d="m 360.95276,316.24251 c 0,-0.486 -0.396,-0.882 -0.882,-0.882 -0.486,0 -0.882,0.396 -0.882,0.882 0,0.486 0.396,0.882 0.882,0.882 0.486,0 0.882,-0.396 0.882,-0.882 z m 2.718,-9.198 c 0,-1.566 -1.638,-2.52 -3.366,-2.52 -1.296,0 -2.538,0.576 -3.366,1.566 v 0.756 c 0.828,-0.99 2.07,-1.566 3.366,-1.566 1.044,0 1.962,0.756 1.962,1.764 0,1.116 0.018,1.476 -0.666,2.358 -0.576,0.738 -1.278,1.386 -1.638,2.268 -0.288,0.738 -0.27,1.548 -0.27,2.34 h 0.756 c 0,-1.764 0.36,-2.214 1.602,-3.492 1.26,-1.26 1.62,-1.71 1.62,-3.474 z"
             style="font-size:18px;line-height:1.25"
             id="path562" />
        </g>
      </g>
      <path
         style="fill:none;stroke:#000000;stroke-width:7.08661;stroke-linecap:butt;stroke-linejoin:miter;stroke-miterlimit:4;stroke-dasharray:none;stroke-opacity:1;marker-end:url(#marker9707)"
         d="m 5559.4488,-1597.8463 h -95.6693 v 77.7678 h 28.3465"
         id="path69697" />
      <path
         style="fill:none;stroke:#000000;stroke-width:7.08661;stroke-linecap:butt;stroke-linejoin:miter;stroke-miterlimit:4;stroke-dasharray:none;stroke-opacity:1;marker-end:url(#marker10177)"
         d="m 5644.6576,-1505.7203 60.2362,0.201"
         id="path69699" />
      <path
         id="path69713"
         d="m 5520.4724,-1505.9053 63.9491,0.185"
         style="fill:none;stroke:#000000;stroke-width:7.08661;stroke-linecap:butt;stroke-linejoin:miter;stroke-miterlimit:4;stroke-dasharray:none;stroke-opacity:1;marker-end:url(#marker10177)" />
      <path
         style="fill:none;stroke:#000000;stroke-width:7.08661;stroke-linecap:butt;stroke-linejoin:miter;stroke-miterlimit:4;stroke-dasharray:none;stroke-opacity:1;marker-end:url(#marker10177)"
         d="m 5467.3228,-1491.732 h 24.8032"
         id="path69715" />
      <g
         aria-label="0"
         id="text69717"
         style="line-height:0%;font-family:Iwona;-inkscape-font-specification:Iwona;text-align:end;letter-spacing:0px;word-spacing:0px;text-anchor:end">
        <path
           d="m 5462.7483,-1492.9255 c 0,-5.688 -1.752,-8.52 -5.256,-8.52 -3.504,0 -5.256,2.832 -5.256,8.52 0,5.688 1.752,8.52 5.256,8.52 3.504,0 5.256,-2.832 5.256,-8.52 z m -2.112,0 c 0,5.016 -1.056,7.512 -3.144,7.512 -2.088,0 -3.144,-2.496 -3.144,-7.512 0,-5.016 1.056,-7.512 3.144,-7.512 2.088,0 3.144,2.496 3.144,7.512 z"
           style="font-size:24px;line-height:1.25"
           id="path565" />
      </g>
      <path
         id="path69721"
         d="m 5779.1337,-1505.7203 h 17.7166 l 0.093,-134.8307 h -287.1008 l 0.077,109.8425"
         style="fill:none;stroke:#000000;stroke-width:0.999213;stroke-linecap:butt;stroke-linejoin:miter;stroke-miterlimit:4;stroke-dasharray:none;stroke-opacity:1;marker-start:none;marker-end:url(#marker10201)" />
      <g
         id="g69723"
         transform="translate(5120.9451,-1882.4119)">
        <path
           style="fill:#ffeeaa;fill-opacity:1;fill-rule:evenodd;stroke:#000000;stroke-width:1px;stroke-linecap:butt;stroke-linejoin:miter;stroke-opacity:1"
           d="m 381.81075,348.16017 v 56.69291 l 17.71654,-10.62992 v -35.43307 z"
           id="path69725" />
        <g
           aria-label="1"
           id="text69727"
           style="line-height:0%;font-family:Iwona;-inkscape-font-specification:Iwona">
          <path
             d="m 389.9741,394.22318 v -9.66 h -0.812 c -0.77,0.882 -1.68,1.638 -2.688,2.226 v 0.588 c 0.854,-0.406 1.652,-0.882 2.408,-1.456 v 8.302 z"
             style="font-size:14px;line-height:1.25"
             id="path568" />
        </g>
        <g
           aria-label="0"
           id="text69731"
           style="line-height:0%;font-family:Iwona;-inkscape-font-specification:Iwona">
          <path
             d="m 392.1021,364.59001 c 0,-3.318 -1.022,-4.97 -3.066,-4.97 -2.044,0 -3.066,1.652 -3.066,4.97 0,3.318 1.022,4.97 3.066,4.97 2.044,0 3.066,-1.652 3.066,-4.97 z m -1.232,0 c 0,2.926 -0.616,4.382 -1.834,4.382 -1.218,0 -1.834,-1.456 -1.834,-4.382 0,-2.926 0.616,-4.382 1.834,-4.382 1.218,0 1.834,1.456 1.834,4.382 z"
             style="font-size:14px;line-height:1.25"
             id="path571" />
        </g>
      </g>
      <path
         style="display:inline;fill:#ffeeaa;fill-opacity:1;stroke:#000000;stroke-width:1.35883px;stroke-linecap:butt;stroke-linejoin:miter;stroke-opacity:1"
         d="m 5424.8031,-1469.5986 v 48.9177 h 4.5145 c 4.5145,0 30.9186,0 30.9186,-24.4588 0,-24.4589 -26.4041,-24.4589 -30.9186,-24.4589 0,0 -4.5145,0 -4.5145,0 z"
         id="path69739" />
      <path
         id="path69741"
         d="m 5389.3699,-1505.7203 h 17.7166 v 46.063 h 17.7166"
         style="fill:none;stroke:#000000;stroke-width:0.999213;stroke-linecap:butt;stroke-linejoin:miter;stroke-miterlimit:4;stroke-dasharray:none;stroke-opacity:1;marker-start:none;marker-end:url(#marker10201)" />
      <path
         style="fill:none;stroke:#000000;stroke-width:0.999213;stroke-linecap:butt;stroke-linejoin:miter;stroke-miterlimit:4;stroke-dasharray:none;stroke-opacity:1;marker-start:url(#marker8710);marker-end:url(#marker10201)"
         d="m 5148.4252,-1431.4959 276.3779,0.1851"
         id="path69745" />
      <g
         transform="translate(5308.7405,-1630.2661)"
         id="g69757">
        <path
           id="rect69759"
           style="fill:#ffeeaa;stroke:#000000;stroke-linecap:round;stroke-linejoin:bevel"
           d="m 328.66107,273.54971 h 63.77954 v 53.1496 h -63.77954 z" />
        <g
           aria-label="= 6
?"
           id="text69761"
           style="line-height:0%;font-family:Iwona;-inkscape-font-specification:Iwona;text-align:center;text-anchor:middle">
          <path
             d="m 358.23477,288.77451 v -0.9 h -11.304 v 0.9 z m 0,3.6 v -0.9 h -11.304 v 0.9 z"
             style="font-size:18px;line-height:1.25"
             id="path575" />
          <path
             d="m 374.12874,290.57451 c 0,-2.592 -1.026,-4.23 -3.438,-4.23 -1.044,0 -2.016,0.486 -2.628,1.314 0,-2.358 0.594,-4.878 2.628,-4.878 0.918,0 1.818,0.306 2.538,0.882 v -0.756 c -0.72,-0.576 -1.62,-0.882 -2.538,-0.882 -2.826,0 -4.212,3.204 -4.212,6.39 0,4.464 1.152,6.39 3.834,6.39 2.286,0 3.816,-1.692 3.816,-4.23 z m -1.584,0 c 0,2.088 -0.9,3.474 -2.232,3.474 -2.52,0 -2.25,-2.718 -2.25,-5.634 0.612,-0.828 1.584,-1.314 2.628,-1.314 1.44,0 1.854,1.8 1.854,3.474 z"
             style="font-size:18px;line-height:1.25"
             id="path577" />
          <path
             d="m 360.95276,316.24251 c 0,-0.486 -0.396,-0.882 -0.882,-0.882 -0.486,0 -0.882,0.396 -0.882,0.882 0,0.486 0.396,0.882 0.882,0.882 0.486,0 0.882,-0.396 0.882,-0.882 z m 2.718,-9.198 c 0,-1.566 -1.638,-2.52 -3.366,-2.52 -1.296,0 -2.538,0.576 -3.366,1.566 v 0.756 c 0.828,-0.99 2.07,-1.566 3.366,-1.566 1.044,0 1.962,0.756 1.962,1.764 0,1.116 0.018,1.476 -0.666,2.358 -0.576,0.738 -1.278,1.386 -1.638,2.268 -0.288,0.738 -0.27,1.548 -0.27,2.34 h 0.756 c 0,-1.764 0.36,-2.214 1.602,-3.492 1.26,-1.26 1.62,-1.71 1.62,-3.474 z"
             style="font-size:18px;line-height:1.25"
             id="path579" />
        </g>
      </g>
      <path
         id="path69769"
         d="m 5669.2912,-1505.7203 v 138.189"
         style="fill:none;stroke:#000000;stroke-width:7.08661;stroke-linecap:butt;stroke-linejoin:miter;stroke-miterlimit:4;stroke-dasharray:none;stroke-opacity:1;marker-end:url(#marker10177)" />
      <path
         style="fill:none;stroke:#ff0000;stroke-width:0.999213;stroke-linecap:butt;stroke-linejoin:miter;stroke-miterlimit:4;stroke-dasharray:none;stroke-opacity:1;marker-start:url(#marker8710m);marker-end:url(#marker10201J)"
         d="m 4407.8739,-1392.3345 v -81.496 h 17.7166"
         id="path69771" />
      <path
         style="display:inline;fill:#ffeeaa;fill-opacity:1;stroke:#000000;stroke-width:1.35883px;stroke-linecap:butt;stroke-linejoin:miter;stroke-opacity:1"
         d="m 5527.3894,-1232.8857 h 49.6063 v 4.5145 c 0,4.5145 0,30.9185 -24.8031,30.9185 -24.8032,0 -24.8032,-26.404 -24.8032,-30.9185 0,0 0,-4.5145 0,-4.5145 z"
         id="path69777" />
      <path
         id="path69781"
         d="m 5669.2913,-1303.9368 v 17.7165 h -102.9256 v 53.1496"
         style="fill:none;stroke:#000000;stroke-width:0.999213;stroke-linecap:butt;stroke-linejoin:miter;stroke-miterlimit:4;stroke-dasharray:none;stroke-opacity:1;marker-start:none;marker-end:url(#marker10201)" />
      <g
         aria-label="bp"
         id="text69783"
         style="line-height:0%;font-family:Iwona;-inkscape-font-specification:Iwona;text-align:center;letter-spacing:0px;word-spacing:0px;text-anchor:middle">
        <path
           d="m 5625.5521,-1209.0392 c 0,-2.66 -1,-4.7 -3.42,-4.7 -1.02,0 -1.96,0.46 -2.76,1.1 v -5.9 h -1.56 v 14 h 1.56 v -0.46 c 0.76,0.4 1.6,0.66 2.46,0.66 2.5,0 3.72,-2 3.72,-4.7 z m -1.76,0 c 0,1.88 -0.58,3.86 -2.22,3.86 -0.78,0 -1.54,-0.26 -2.2,-0.66 v -5.96 c 0.6,-0.6 1.34,-1.1 2.2,-1.1 1.82,0 2.22,1.76 2.22,3.86 z"
           style="font-size:20px;line-height:1.25"
           id="path582" />
        <path
           d="m 5635.8921,-1209.0392 c 0,-2.66 -1,-4.7 -3.42,-4.7 -1.02,0 -1.96,0.46 -2.76,1.1 v -0.9 h -1.56 v 13.6 h 1.56 v -4.94 c 0.78,0.34 1.62,0.54 2.46,0.54 2.5,0 3.72,-2 3.72,-4.7 z m -1.76,0 c 0,1.88 -0.58,3.86 -2.22,3.86 -0.76,0 -1.52,-0.2 -2.2,-0.54 v -6.08 c 0.6,-0.6 1.34,-1.1 2.2,-1.1 1.82,0 2.22,1.76 2.22,3.86 z"
           style="font-size:20px;line-height:1.25"
           id="path584" />
      </g>
      <g
         aria-label="buzz"
         id="text69787"
         style="line-height:0%;font-family:Iwona;-inkscape-font-specification:Iwona;letter-spacing:0px;word-spacing:0px">
        <path
           d="m 5788.3044,-1166.5195 c 0,-2.66 -1,-4.7 -3.42,-4.7 -1.02,0 -1.96,0.46 -2.76,1.1 v -5.9 h -1.56 v 14 h 1.56 v -0.46 c 0.76,0.4 1.6,0.66 2.46,0.66 2.5,0 3.72,-2 3.72,-4.7 z m -1.76,0 c 0,1.88 -0.58,3.86 -2.22,3.86 -0.78,0 -1.54,-0.26 -2.2,-0.66 v -5.96 c 0.6,-0.6 1.34,-1.1 2.2,-1.1 1.82,0 2.22,1.76 2.22,3.86 z"
           style="font-size:20px;line-height:1.25"
           id="path587" />
        <path
           d="m 5798.1443,-1162.0195 v -9 h -1.56 v 7.06 c -0.68,0.68 -1.52,1.22 -2.46,1.22 -0.94,0 -1.66,-0.82 -1.66,-1.78 v -6.5 h -1.56 v 6.5 c 0,1.46 1.12,2.7 2.56,2.7 1.2,0 2.26,-0.68 3.12,-1.52 v 1.32 z"
           style="font-size:20px;line-height:1.25"
           id="path589" />
        <path
           d="m 5807.5843,-1162.0195 v -0.84 h -5.44 l 5.44,-7.4 v -0.76 h -7.04 v 0.84 h 5.24 l -5.44,7.4 v 0.76 z"
           style="font-size:20px;line-height:1.25"
           id="path591" />
        <path
           d="m 5816.0243,-1162.0195 v -0.84 h -5.44 l 5.44,-7.4 v -0.76 h -7.04 v 0.84 h 5.24 l -5.44,7.4 v 0.76 z"
           style="font-size:20px;line-height:1.25"
           id="path593" />
      </g>
      <path
         style="fill:none;stroke:#000000;stroke-width:0.999213;stroke-linecap:butt;stroke-linejoin:miter;stroke-miterlimit:4;stroke-dasharray:none;stroke-opacity:1;marker-start:none;marker-end:url(#marker10201)"
         d="m 5626.602,-1197.4527 v 24.8032"
         id="path69791" />
      <path
         id="path69793"
         d="m 5761.2477,-1151.3897 v 60.2362 h -240.9449 v -28.3464 h 24.8031"
         style="fill:none;stroke:#000000;stroke-width:0.999213;stroke-linecap:butt;stroke-linejoin:miter;stroke-miterlimit:4;stroke-dasharray:none;stroke-opacity:1;marker-start:url(#marker8710);marker-end:url(#marker10201)" />
      <g
         transform="translate(5556.9414,-1168.066)"
         id="g69795">
        <path
           id="rect69797"
           style="fill:#ffeeaa;stroke:#000000;stroke-width:0.999213"
           d="m 129.72725,-1.0402068 h 49.60633 V 58.995007 h -49.60633 z" />
        <g
           transform="translate(277.79303,-113.38582)"
           id="g69799">
          <g
             aria-label="D"
             id="text69801"
             style="line-height:0%;font-family:Iwona;-inkscape-font-specification:Iwona">
            <path
               d="m -136.09686,129.40545 c 0,-2.568 -1.404,-4.32 -3.876,-4.32 -0.744,0 -1.488,0.036 -2.22,0.12 h -0.96 v 8.4 h 0.96 c 0.732,0.084 1.476,0.12 2.22,0.12 2.472,0 3.876,-1.752 3.876,-4.32 z m -1.176,0 c 0,1.908 -0.972,3.768 -2.7,3.768 -0.732,0 -1.464,-0.036 -2.196,-0.12 v -7.296 c 0.732,-0.084 1.464,-0.12 2.196,-0.12 1.728,0 2.7,1.86 2.7,3.768 z"
               style="font-size:12px;line-height:1.25"
               id="path597" />
          </g>
        </g>
        <g
           transform="translate(283.79303,-81.69706)"
           id="g69805">
          <g
             aria-label="CLK"
             id="text69807"
             style="line-height:0%;font-family:Iwona;-inkscape-font-specification:Iwona">
            <path
               d="m -136.52895,127.22145 v -0.648 c -0.648,-0.936 -1.716,-1.488 -2.844,-1.488 -2.436,0 -3.756,1.776 -3.756,4.32 0,2.544 1.32,4.32 3.756,4.32 0.936,0 1.86,-0.276 2.652,-0.792 v -0.552 c -0.792,0.516 -1.716,0.792 -2.652,0.792 -1.884,0 -2.58,-1.668 -2.58,-3.768 0,-2.1 0.696,-3.768 2.58,-3.768 1.152,0 2.232,0.6 2.844,1.584 z"
               style="font-size:12px;line-height:1.25"
               id="path600" />
            <path
               d="m -130.16896,133.60545 v -0.552 h -3.816 v -7.848 h -0.984 v 8.4 z"
               style="font-size:12px;line-height:1.25"
               id="path602" />
            <path
               d="m -121.67298,133.60545 -5.316,-4.752 5.028,-3.648 h -0.948 l -4.836,3.516 v -3.516 h -0.984 v 8.4 h 0.984 v -4.104 l 4.596,4.104 z"
               style="font-size:12px;line-height:1.25"
               id="path604" />
          </g>
        </g>
        <g
           aria-label="Q"
           id="text69811"
           style="line-height:0%;font-family:Iwona;-inkscape-font-specification:Iwona">
          <path
             d="m 173.38035,16.019629 c 0,-2.544 -1.32,-4.32 -3.744,-4.32 -2.436,0 -3.756,1.776 -3.756,4.32 0,2.544 1.32,4.32 3.756,4.32 0.084,0.972 0.888,1.716 1.872,1.716 0.612,0 0.78,-0.036 1.344,-0.288 v -0.36 c -0.276,0.156 -0.576,0.24 -0.9,0.24 -1.092,0 -1.524,-0.384 -1.536,-1.38 1.92,-0.336 2.964,-1.992 2.964,-4.248 z m -1.176,0 c 0,2.1 -0.696,3.768 -2.568,3.768 -1.884,0 -2.58,-1.668 -2.58,-3.768 0,-2.1 0.696,-3.768 2.58,-3.768 1.872,0 2.568,1.668 2.568,3.768 z"
             style="font-size:12px;line-height:1.25"
             id="path607" />
        </g>
        <path
           id="path69815"
           d="m 129.72724,41.278473 7.08662,7.086614 -7.08662,7.086614"
           style="fill:none;stroke:#000000;stroke-width:1px;stroke-linecap:butt;stroke-linejoin:miter;stroke-opacity:1" />
      </g>
      <g
         aria-label="buzz*"
         id="text69823"
         style="line-height:0%;font-family:Iwona;-inkscape-font-specification:Iwona;text-align:center;letter-spacing:0px;word-spacing:0px;text-anchor:middle">
        <path
           d="m 5648.6652,-1166.5195 c 0,-2.66 -1,-4.7 -3.42,-4.7 -1.02,0 -1.96,0.46 -2.76,1.1 v -5.9 h -1.56 v 14 h 1.56 v -0.46 c 0.76,0.4 1.6,0.66 2.46,0.66 2.5,0 3.72,-2 3.72,-4.7 z m -1.76,0 c 0,1.88 -0.58,3.86 -2.22,3.86 -0.78,0 -1.54,-0.26 -2.2,-0.66 v -5.96 c 0.6,-0.6 1.34,-1.1 2.2,-1.1 1.82,0 2.22,1.76 2.22,3.86 z"
           style="font-size:20px;line-height:1.25"
           id="path610" />
        <path
           d="m 5658.5052,-1162.0195 v -9 h -1.56 v 7.06 c -0.68,0.68 -1.52,1.22 -2.46,1.22 -0.94,0 -1.66,-0.82 -1.66,-1.78 v -6.5 h -1.56 v 6.5 c 0,1.46 1.12,2.7 2.56,2.7 1.2,0 2.26,-0.68 3.12,-1.52 v 1.32 z"
           style="font-size:20px;line-height:1.25"
           id="path612" />
        <path
           d="m 5667.9452,-1162.0195 v -0.84 h -5.44 l 5.44,-7.4 v -0.76 h -7.04 v 0.84 h 5.24 l -5.44,7.4 v 0.76 z"
           style="font-size:20px;line-height:1.25"
           id="path614" />
        <path
           d="m 5676.3851,-1162.0195 v -0.84 h -5.44 l 5.44,-7.4 v -0.76 h -7.04 v 0.84 h 5.24 l -5.44,7.4 v 0.76 z"
           style="font-size:20px;line-height:1.25"
           id="path616" />
        <path
           d="m 5681.3251,-1176.6795 -1.36,0.78 c 0.28,0.62 0.4,1.3 0.34,1.98 l 0.48,-0.28 c 0.22,-0.82 0.4,-1.64 0.54,-2.48 z m -1.08,3.44 v -0.56 c -0.6,-0.6 -1.22,-1.16 -1.88,-1.7 v 1.56 c 0.68,0.08 1.32,0.32 1.88,0.7 z m 0.54,0.4 -0.48,-0.28 c -0.8,0.22 -1.62,0.48 -2.4,0.78 l 1.36,0.78 c 0.38,-0.54 0.92,-0.98 1.52,-1.28 z m 0.98,1.7 c -0.28,-0.62 -0.4,-1.3 -0.34,-1.98 l -0.48,0.28 c -0.22,0.82 -0.4,1.64 -0.54,2.48 z m 1.6,-0.42 v -1.56 c -0.68,-0.06 -1.32,-0.3 -1.86,-0.68 v 0.56 c 0.58,0.6 1.2,1.16 1.86,1.68 z m 0.46,-3.14 -1.36,-0.78 c -0.38,0.54 -0.92,0.98 -1.52,1.28 l 0.48,0.28 c 0.8,-0.22 1.62,-0.48 2.4,-0.78 z"
           style="font-size:20px;line-height:1.25"
           id="path618" />
      </g>
      <path
         id="path69827"
         d="m 5123.6221,-1392.5195 v 318.8977 h 534.8696 v -46.063 h 28.3465"
         style="fill:none;stroke:#ff0000;stroke-width:0.999213;stroke-linecap:butt;stroke-linejoin:miter;stroke-miterlimit:4;stroke-dasharray:none;stroke-opacity:1;marker-start:url(#marker8710o);marker-end:url(#marker102015)" />
      <g
         id="g69829"
         transform="translate(5234.1613,-1527.8963)">
        <path
           style="fill:#ffeeaa;fill-opacity:1;fill-rule:evenodd;stroke:#000000;stroke-width:1px;stroke-linecap:butt;stroke-linejoin:miter;stroke-opacity:1"
           d="m 381.81075,348.16017 v 56.69291 l 17.71654,-10.62992 v -35.43307 z"
           id="path69831" />
        <g
           aria-label="0"
           id="text69833"
           style="line-height:0%;font-family:Iwona;-inkscape-font-specification:Iwona">
          <path
             d="m 392.1021,389.39318 c 0,-3.318 -1.022,-4.97 -3.066,-4.97 -2.044,0 -3.066,1.652 -3.066,4.97 0,3.318 1.022,4.97 3.066,4.97 2.044,0 3.066,-1.652 3.066,-4.97 z m -1.232,0 c 0,2.926 -0.616,4.382 -1.834,4.382 -1.218,0 -1.834,-1.456 -1.834,-4.382 0,-2.926 0.616,-4.382 1.834,-4.382 1.218,0 1.834,1.456 1.834,4.382 z"
             style="font-size:14px;line-height:1.25"
             id="path621" />
        </g>
        <g
           aria-label="1"
           id="text69837"
           style="line-height:0%;font-family:Iwona;-inkscape-font-specification:Iwona">
          <path
             d="m 389.9741,369.42001 v -9.66 h -0.812 c -0.77,0.882 -1.68,1.638 -2.688,2.226 v 0.588 c 0.854,-0.406 1.652,-0.882 2.408,-1.456 v 8.302 z"
             style="font-size:14px;line-height:1.25"
             id="path624" />
        </g>
      </g>
      <g
         transform="translate(5163.2952,-1513.7231)"
         id="g69841">
        <path
           id="path69843"
           d="m 381.81075,348.16017 v 56.69291 l 17.71654,-10.62992 v -35.43307 z"
           style="fill:#ffeeaa;fill-opacity:1;fill-rule:evenodd;stroke:#000000;stroke-width:1px;stroke-linecap:butt;stroke-linejoin:miter;stroke-opacity:1" />
        <g
           aria-label="0"
           id="text69845"
           style="line-height:0%;font-family:Iwona;-inkscape-font-specification:Iwona">
          <path
             d="m 392.1021,389.39318 c 0,-3.318 -1.022,-4.97 -3.066,-4.97 -2.044,0 -3.066,1.652 -3.066,4.97 0,3.318 1.022,4.97 3.066,4.97 2.044,0 3.066,-1.652 3.066,-4.97 z m -1.232,0 c 0,2.926 -0.616,4.382 -1.834,4.382 -1.218,0 -1.834,-1.456 -1.834,-4.382 0,-2.926 0.616,-4.382 1.834,-4.382 1.218,0 1.834,1.456 1.834,4.382 z"
             style="font-size:14px;line-height:1.25"
             id="path627" />
        </g>
        <g
           aria-label="1"
           id="text69849"
           style="line-height:0%;font-family:Iwona;-inkscape-font-specification:Iwona">
          <path
             d="m 389.9741,369.42001 v -9.66 h -0.812 c -0.77,0.882 -1.68,1.638 -2.688,2.226 v 0.588 c 0.854,-0.406 1.652,-0.882 2.408,-1.456 v 8.302 z"
             style="font-size:14px;line-height:1.25"
             id="path630" />
        </g>
      </g>
      <path
         style="fill:none;stroke:#000000;stroke-width:0.999213;stroke-linecap:butt;stroke-linejoin:miter;stroke-miterlimit:4;stroke-dasharray:none;stroke-opacity:1;marker-start:none;marker-end:url(#marker10201)"
         d="m 5562.8223,-1137.2164 h 53.1496"
         id="path69853" />
      <path
         id="path69855"
         d="m 5587.6256,-1162.0196 h 28.3465"
         style="fill:none;stroke:#000000;stroke-width:0.999213;stroke-linecap:butt;stroke-linejoin:miter;stroke-miterlimit:4;stroke-dasharray:none;stroke-opacity:1;marker-start:none;marker-end:url(#marker10201)" />
      <g
         aria-label="0"
         id="text69857"
         style="line-height:0%;font-family:Iwona;-inkscape-font-specification:Iwona;text-align:end;letter-spacing:0px;word-spacing:0px;text-anchor:end">
        <path
           d="m 5583.222,-1161.8329 c 0,-4.74 -1.46,-7.1 -4.38,-7.1 -2.92,0 -4.38,2.36 -4.38,7.1 0,4.74 1.46,7.1 4.38,7.1 2.92,0 4.38,-2.36 4.38,-7.1 z m -1.76,0 c 0,4.18 -0.88,6.26 -2.62,6.26 -1.74,0 -2.62,-2.08 -2.62,-6.26 0,-4.18 0.88,-6.26 2.62,-6.26 1.74,0 2.62,2.08 2.62,6.26 z"
           style="font-size:20px;line-height:1.25"
           id="path633" />
      </g>
      <path
         style="fill:none;stroke:#000000;stroke-width:0.999213;stroke-linecap:butt;stroke-linejoin:miter;stroke-miterlimit:4;stroke-dasharray:none;stroke-opacity:1;marker-start:none;marker-end:url(#marker10201)"
         d="m 5513.2161,-1147.8464 h 31.8898"
         id="path69861" />
      <g
         aria-label="1"
         id="text69863"
         style="line-height:0%;font-family:Iwona;-inkscape-font-specification:Iwona;text-align:end;letter-spacing:0px;word-spacing:0px;text-anchor:end">
        <path
           d="m 5505.7729,-1140.7596 v -13.8 h -1.16 c -1.1,1.26 -2.4,2.34 -3.84,3.18 v 0.84 c 1.22,-0.58 2.36,-1.26 3.44,-2.08 v 11.86 z"
           style="font-size:20px;line-height:1.25"
           id="path636" />
      </g>
      <path
         style="fill:none;stroke:#000000;stroke-width:0.999213;stroke-linecap:butt;stroke-linejoin:miter;stroke-miterlimit:4;stroke-dasharray:none;stroke-opacity:1;marker-start:none;marker-end:url(#marker10201)"
         d="m 5633.6886,-1151.3897 h 53.1496"
         id="path69867" />
      <path
         id="path69869"
         d="m 5736.4445,-1151.3897 h 77.9528"
         style="fill:none;stroke:#000000;stroke-width:0.999213;stroke-linecap:butt;stroke-linejoin:miter;stroke-miterlimit:4;stroke-dasharray:none;stroke-opacity:1;marker-start:none;marker-end:url(#marker10201)" />
      <path
         id="path69871"
         d="m 5552.1926,-1197.4527 v 35.4331"
         style="fill:none;stroke:#000000;stroke-width:0.999213;stroke-linecap:butt;stroke-linejoin:miter;stroke-miterlimit:4;stroke-dasharray:none;stroke-opacity:1;marker-start:none;marker-end:url(#marker10201)" />
      <g
         id="g70391"
         transform="translate(4685.6272,-1511.7507)">
        <path
           id="rect70393"
           style="fill:#ffeeaa;stroke:#000000;stroke-width:0.999213"
           d="m 129.72725,-8.3278303 h 49.60631 V 58.995008 h -49.60631 z" />
        <g
           id="g70395"
           transform="translate(277.79303,-124.21675)">
          <g
             aria-label="D"
             id="text70397"
             style="line-height:0%;font-family:Iwona;-inkscape-font-specification:Iwona">
            <path
               d="m -136.09686,129.40545 c 0,-2.568 -1.404,-4.32 -3.876,-4.32 -0.744,0 -1.488,0.036 -2.22,0.12 h -0.96 v 8.4 h 0.96 c 0.732,0.084 1.476,0.12 2.22,0.12 2.472,0 3.876,-1.752 3.876,-4.32 z m -1.176,0 c 0,1.908 -0.972,3.768 -2.7,3.768 -0.732,0 -1.464,-0.036 -2.196,-0.12 v -7.296 c 0.732,-0.084 1.464,-0.12 2.196,-0.12 1.728,0 2.7,1.86 2.7,3.768 z"
               style="font-size:12px;line-height:1.25"
               id="path640" />
          </g>
        </g>
        <g
           id="g70401"
           transform="translate(283.79303,-81.69706)">
          <g
             aria-label="CLK"
             id="text70403"
             style="line-height:0%;font-family:Iwona;-inkscape-font-specification:Iwona">
            <path
               d="m -136.52895,127.22145 v -0.648 c -0.648,-0.936 -1.716,-1.488 -2.844,-1.488 -2.436,0 -3.756,1.776 -3.756,4.32 0,2.544 1.32,4.32 3.756,4.32 0.936,0 1.86,-0.276 2.652,-0.792 v -0.552 c -0.792,0.516 -1.716,0.792 -2.652,0.792 -1.884,0 -2.58,-1.668 -2.58,-3.768 0,-2.1 0.696,-3.768 2.58,-3.768 1.152,0 2.232,0.6 2.844,1.584 z"
               style="font-size:12px;line-height:1.25"
               id="path643" />
            <path
               d="m -130.16896,133.60545 v -0.552 h -3.816 v -7.848 h -0.984 v 8.4 z"
               style="font-size:12px;line-height:1.25"
               id="path645" />
            <path
               d="m -121.67298,133.60545 -5.316,-4.752 5.028,-3.648 h -0.948 l -4.836,3.516 v -3.516 h -0.984 v 8.4 h 0.984 v -4.104 l 4.596,4.104 z"
               style="font-size:12px;line-height:1.25"
               id="path647" />
          </g>
        </g>
        <g
           aria-label="Q"
           id="text70407"
           style="line-height:0%;font-family:Iwona;-inkscape-font-specification:Iwona">
          <path
             d="m 173.38035,5.1886986 c 0,-2.544 -1.32,-4.32000002 -3.744,-4.32000002 -2.436,0 -3.756,1.77600002 -3.756,4.32000002 0,2.544 1.32,4.32 3.756,4.32 0.084,0.9720004 0.888,1.7160004 1.872,1.7160004 0.612,0 0.78,-0.036 1.344,-0.288 v -0.36 c -0.276,0.156 -0.576,0.24 -0.9,0.24 -1.092,0 -1.524,-0.384 -1.536,-1.3800004 1.92,-0.336 2.964,-1.992 2.964,-4.248 z m -1.176,0 c 0,2.1 -0.696,3.768 -2.568,3.768 -1.884,0 -2.58,-1.668 -2.58,-3.768 0,-2.1 0.696,-3.768 2.58,-3.768 1.872,0 2.568,1.668 2.568,3.768 z"
             style="font-size:12px;line-height:1.25"
             id="path650" />
        </g>
        <path
           style="fill:none;stroke:#000000;stroke-width:1px;stroke-linecap:butt;stroke-linejoin:miter;stroke-opacity:1"
           d="m 129.72724,41.278473 7.08662,7.086614 -7.08662,7.086614"
           id="path70411" />
        <g
           transform="translate(277.79303,-102.95691)"
           id="g70413">
          <g
             aria-label="E"
             id="text70415"
             style="line-height:0%;font-family:Iwona;-inkscape-font-specification:Iwona">
            <path
               d="m -137.15286,133.60545 v -0.552 h -5.016 v -3.372 h 3.816 v -0.552 h -3.816 v -3.372 h 4.728 v -0.552 h -5.712 v 8.4 z"
               style="font-size:12px;line-height:1.25"
               id="path653" />
          </g>
        </g>
      </g>
      <path
         style="fill:none;stroke:#000000;stroke-width:0.999213;stroke-linecap:butt;stroke-linejoin:miter;stroke-miterlimit:4;stroke-dasharray:none;stroke-opacity:1;marker-start:none;marker-end:url(#marker10201)"
         d="m 4609.8425,-1505.7203 h 17.7165 l -1e-4,88.5827 h 131.1023 l 2e-4,-67.5079 h 56.6929"
         id="path69439" />
      <path
         id="path69773"
         d="m 4797.6378,-1392.3345 v -71.0511 h 17.7166"
         style="fill:none;stroke:#ff0000;stroke-width:0.999213;stroke-linecap:butt;stroke-linejoin:miter;stroke-miterlimit:4;stroke-dasharray:none;stroke-opacity:1;marker-start:url(#marker8710f);marker-end:url(#marker10201d)" />
      <g
         transform="translate(5075.3908,-1511.7507)"
         id="g70419">
        <path
           id="rect70421"
           style="fill:#ffeeaa;stroke:#000000;stroke-width:0.999213"
           d="m 129.72725,-8.3278303 h 49.60631 V 58.995008 h -49.60631 z" />
        <g
           transform="translate(277.79303,-124.21675)"
           id="g70423">
          <g
             aria-label="D"
             id="text70425"
             style="line-height:0%;font-family:Iwona;-inkscape-font-specification:Iwona">
            <path
               d="m -136.09686,129.40545 c 0,-2.568 -1.404,-4.32 -3.876,-4.32 -0.744,0 -1.488,0.036 -2.22,0.12 h -0.96 v 8.4 h 0.96 c 0.732,0.084 1.476,0.12 2.22,0.12 2.472,0 3.876,-1.752 3.876,-4.32 z m -1.176,0 c 0,1.908 -0.972,3.768 -2.7,3.768 -0.732,0 -1.464,-0.036 -2.196,-0.12 v -7.296 c 0.732,-0.084 1.464,-0.12 2.196,-0.12 1.728,0 2.7,1.86 2.7,3.768 z"
               style="font-size:12px;line-height:1.25"
               id="path657" />
          </g>
        </g>
        <g
           transform="translate(283.79303,-81.69706)"
           id="g70429">
          <g
             aria-label="CLK"
             id="text70431"
             style="line-height:0%;font-family:Iwona;-inkscape-font-specification:Iwona">
            <path
               d="m -136.52895,127.22145 v -0.648 c -0.648,-0.936 -1.716,-1.488 -2.844,-1.488 -2.436,0 -3.756,1.776 -3.756,4.32 0,2.544 1.32,4.32 3.756,4.32 0.936,0 1.86,-0.276 2.652,-0.792 v -0.552 c -0.792,0.516 -1.716,0.792 -2.652,0.792 -1.884,0 -2.58,-1.668 -2.58,-3.768 0,-2.1 0.696,-3.768 2.58,-3.768 1.152,0 2.232,0.6 2.844,1.584 z"
               style="font-size:12px;line-height:1.25"
               id="path660" />
            <path
               d="m -130.16896,133.60545 v -0.552 h -3.816 v -7.848 h -0.984 v 8.4 z"
               style="font-size:12px;line-height:1.25"
               id="path662" />
            <path
               d="m -121.67298,133.60545 -5.316,-4.752 5.028,-3.648 h -0.948 l -4.836,3.516 v -3.516 h -0.984 v 8.4 h 0.984 v -4.104 l 4.596,4.104 z"
               style="font-size:12px;line-height:1.25"
               id="path664" />
          </g>
        </g>
        <g
           aria-label="Q"
           id="text70435"
           style="line-height:0%;font-family:Iwona;-inkscape-font-specification:Iwona">
          <path
             d="m 173.38035,5.1886986 c 0,-2.544 -1.32,-4.32000002 -3.744,-4.32000002 -2.436,0 -3.756,1.77600002 -3.756,4.32000002 0,2.544 1.32,4.32 3.756,4.32 0.084,0.9720004 0.888,1.7160004 1.872,1.7160004 0.612,0 0.78,-0.036 1.344,-0.288 v -0.36 c -0.276,0.156 -0.576,0.24 -0.9,0.24 -1.092,0 -1.524,-0.384 -1.536,-1.3800004 1.92,-0.336 2.964,-1.992 2.964,-4.248 z m -1.176,0 c 0,2.1 -0.696,3.768 -2.568,3.768 -1.884,0 -2.58,-1.668 -2.58,-3.768 0,-2.1 0.696,-3.768 2.58,-3.768 1.872,0 2.568,1.668 2.568,3.768 z"
             style="font-size:12px;line-height:1.25"
             id="path667" />
        </g>
        <path
           id="path70439"
           d="m 129.72724,41.278473 7.08662,7.086614 -7.08662,7.086614"
           style="fill:none;stroke:#000000;stroke-width:1px;stroke-linecap:butt;stroke-linejoin:miter;stroke-opacity:1" />
        <g
           id="g70441"
           transform="translate(277.79303,-102.95691)">
          <g
             aria-label="E"
             id="text70443"
             style="line-height:0%;font-family:Iwona;-inkscape-font-specification:Iwona">
            <path
               d="m -137.15286,133.60545 v -0.552 h -5.016 v -3.372 h 3.816 v -0.552 h -3.816 v -3.372 h 4.728 v -0.552 h -5.712 v 8.4 z"
               style="font-size:12px;line-height:1.25"
               id="path670" />
          </g>
        </g>
      </g>
      <g
         id="g70447"
         transform="translate(5465.1545,-1511.7507)">
        <path
           id="rect70449"
           style="fill:#ffeeaa;stroke:#000000;stroke-width:0.999213"
           d="m 129.72725,-8.3278303 h 49.60631 V 58.995008 h -49.60631 z" />
        <g
           id="g70451"
           transform="translate(277.79303,-124.21675)">
          <g
             aria-label="D"
             id="text70453"
             style="line-height:0%;font-family:Iwona;-inkscape-font-specification:Iwona">
            <path
               d="m -136.09686,129.40545 c 0,-2.568 -1.404,-4.32 -3.876,-4.32 -0.744,0 -1.488,0.036 -2.22,0.12 h -0.96 v 8.4 h 0.96 c 0.732,0.084 1.476,0.12 2.22,0.12 2.472,0 3.876,-1.752 3.876,-4.32 z m -1.176,0 c 0,1.908 -0.972,3.768 -2.7,3.768 -0.732,0 -1.464,-0.036 -2.196,-0.12 v -7.296 c 0.732,-0.084 1.464,-0.12 2.196,-0.12 1.728,0 2.7,1.86 2.7,3.768 z"
               style="font-size:12px;line-height:1.25"
               id="path674" />
          </g>
        </g>
        <g
           id="g70457"
           transform="translate(283.79303,-81.69706)">
          <g
             aria-label="CLK"
             id="text70459"
             style="line-height:0%;font-family:Iwona;-inkscape-font-specification:Iwona">
            <path
               d="m -136.52895,127.22145 v -0.648 c -0.648,-0.936 -1.716,-1.488 -2.844,-1.488 -2.436,0 -3.756,1.776 -3.756,4.32 0,2.544 1.32,4.32 3.756,4.32 0.936,0 1.86,-0.276 2.652,-0.792 v -0.552 c -0.792,0.516 -1.716,0.792 -2.652,0.792 -1.884,0 -2.58,-1.668 -2.58,-3.768 0,-2.1 0.696,-3.768 2.58,-3.768 1.152,0 2.232,0.6 2.844,1.584 z"
               style="font-size:12px;line-height:1.25"
               id="path677" />
            <path
               d="m -130.16896,133.60545 v -0.552 h -3.816 v -7.848 h -0.984 v 8.4 z"
               style="font-size:12px;line-height:1.25"
               id="path679" />
            <path
               d="m -121.67298,133.60545 -5.316,-4.752 5.028,-3.648 h -0.948 l -4.836,3.516 v -3.516 h -0.984 v 8.4 h 0.984 v -4.104 l 4.596,4.104 z"
               style="font-size:12px;line-height:1.25"
               id="path681" />
          </g>
        </g>
        <g
           aria-label="Q"
           id="text70463"
           style="line-height:0%;font-family:Iwona;-inkscape-font-specification:Iwona">
          <path
             d="m 173.38035,5.1886986 c 0,-2.544 -1.32,-4.32000002 -3.744,-4.32000002 -2.436,0 -3.756,1.77600002 -3.756,4.32000002 0,2.544 1.32,4.32 3.756,4.32 0.084,0.9720004 0.888,1.7160004 1.872,1.7160004 0.612,0 0.78,-0.036 1.344,-0.288 v -0.36 c -0.276,0.156 -0.576,0.24 -0.9,0.24 -1.092,0 -1.524,-0.384 -1.536,-1.3800004 1.92,-0.336 2.964,-1.992 2.964,-4.248 z m -1.176,0 c 0,2.1 -0.696,3.768 -2.568,3.768 -1.884,0 -2.58,-1.668 -2.58,-3.768 0,-2.1 0.696,-3.768 2.58,-3.768 1.872,0 2.568,1.668 2.568,3.768 z"
             style="font-size:12px;line-height:1.25"
             id="path684" />
        </g>
        <path
           style="fill:none;stroke:#000000;stroke-width:1px;stroke-linecap:butt;stroke-linejoin:miter;stroke-opacity:1"
           d="m 129.72724,41.278473 7.08662,7.086614 -7.08662,7.086614"
           id="path70467" />
        <g
           transform="translate(277.79303,-102.95691)"
           id="g70469">
          <g
             aria-label="E"
             id="text70471"
             style="line-height:0%;font-family:Iwona;-inkscape-font-specification:Iwona">
            <path
               d="m -137.15286,133.60545 v -0.552 h -5.016 v -3.372 h 3.816 v -0.552 h -3.816 v -3.372 h 4.728 v -0.552 h -5.712 v 8.4 z"
               style="font-size:12px;line-height:1.25"
               id="path687" />
          </g>
        </g>
      </g>
      <path
         id="path69639"
         d="m 5070.4724,-1431.4959 h 77.9528 v -53.1496 h 56.6929"
         style="fill:none;stroke:#000000;stroke-width:0.999213;stroke-linecap:butt;stroke-linejoin:miter;stroke-miterlimit:4;stroke-dasharray:none;stroke-opacity:1;marker-start:none;marker-end:url(#marker10201)" />
      <path
         style="fill:none;stroke:#ff0000;stroke-width:0.999213;stroke-linecap:butt;stroke-linejoin:miter;stroke-miterlimit:4;stroke-dasharray:none;stroke-opacity:1;marker-start:url(#marker8710o);marker-end:url(#marker102015)"
         d="m 5187.4015,-1392.3345 v -71.0511 h 17.7166"
         id="path69775" />
      <path
         id="path69473"
         d="m 4379.5275,-1392.3345 h 1187.008 l -1e-4,-71.0511 h 28.3465"
         style="fill:none;stroke:#ff0000;stroke-width:0.999213;stroke-linecap:butt;stroke-linejoin:miter;stroke-miterlimit:4;stroke-dasharray:none;stroke-opacity:1;marker-start:none;marker-end:url(#marker10201a)" />
      <path
         style="fill:none;stroke:#000000;stroke-width:0.999213;stroke-linecap:butt;stroke-linejoin:miter;stroke-miterlimit:4;stroke-dasharray:none;stroke-opacity:1;marker-start:none;marker-end:url(#marker10201)"
         d="m 5460.2362,-1445.6691 77.9526,0.185 1e-4,-39.1614 h 56.6929"
         id="path69743" />
      <path
         id="path391"
         d="m 5538.0193,-1445.4841 -0.1851,212.5984"
         style="fill:none;stroke:#000000;stroke-width:0.999213;stroke-linecap:butt;stroke-linejoin:miter;stroke-miterlimit:4;stroke-dasharray:none;stroke-opacity:1;marker-start:url(#marker8710);marker-end:url(#marker10201)" />
    </g>
  </g>
</svg>
