<?xml version="1.0" encoding="UTF-8" standalone="no"?>
<!-- Created with Inkscape (http://www.inkscape.org/) -->

<svg
   width="167.15829mm"
   height="50.282215mm"
   viewBox="0 0 592.29317 178.16533"
   id="svg9968"
   version="1.1"
   xmlns="http://www.w3.org/2000/svg"
   xmlns:svg="http://www.w3.org/2000/svg"
   xmlns:rdf="http://www.w3.org/1999/02/22-rdf-syntax-ns#"
   xmlns:cc="http://creativecommons.org/ns#"
   xmlns:dc="http://purl.org/dc/elements/1.1/">
  <defs
     id="defs9970" />
  <metadata
     id="metadata9973">
    <rdf:RDF>
      <cc:Work
         rdf:about="">
        <dc:format>image/svg+xml</dc:format>
        <dc:type
           rdf:resource="http://purl.org/dc/dcmitype/StillImage" />
        <dc:title />
      </cc:Work>
    </rdf:RDF>
  </metadata>
  <g
     id="layer1"
     transform="translate(-77.39186,-261.70479)">
    <g
       style="display:inline"
       id="g9094"
       transform="translate(-1966.5355,7440.9449)">
      <path
         style="fill:#f5c500;fill-opacity:0.392157;stroke:none"
         d="m 2090.5512,-7065.3543 h 478.3464 l 3.5433,10.6299 -3.5433,10.6299 h -478.3464 l 1e-4,-10.6298 z"
         id="path9150" />
      <path
         id="path9156"
         d="m 2090.5511,-7136.2205 h 230.315 l 3.5433,10.6299 -3.5433,10.6299 h -230.315 l 10e-5,-10.6299 z"
         style="fill:#f5c500;fill-opacity:0.392157;stroke:none" />
      <path
         style="fill:#f5c500;fill-opacity:0.392157;stroke:none"
         d="m 2327.9526,-7136.2205 h 240.945 l 3.5433,10.6299 -3.5433,10.6299 h -240.945 l -3.5432,-10.6299 z"
         id="path9158" />
      <path
         id="path9160"
         d="m 2575.9842,-7136.2205 h 53.1497 v 10.6299 10.6299 h -53.1497 l -3.5432,-10.6299 z"
         style="fill:#f5c500;fill-opacity:0.392157;stroke:none" />
      <path
         transform="translate(0,-9577.5587)"
         id="path9162"
         d="m 2090.5512,2405.9052 h 17.7165 l 3.5433,10.6299 -3.5433,10.6299 h -17.7165 v -10.6299 z"
         style="fill:#f5c500;fill-opacity:0.392157;stroke:none" />
      <path
         style="fill:#f5c500;fill-opacity:0.392157;stroke:none"
         d="m 2115.3543,-7171.6535 h 28.3465 l 3.5433,10.6299 -3.5433,10.6299 h -28.3465 l -3.5433,-10.6299 z"
         id="path9164" />
      <path
         id="path9166"
         d="m 2150.7874,-7171.6535 h 28.3465 l 3.5433,10.6299 -3.5433,10.6299 h -28.3465 l -3.5433,-10.6299 z"
         style="fill:#f5c500;fill-opacity:0.392157;stroke:none" />
      <path
         style="fill:#f5c500;fill-opacity:0.392157;stroke:none"
         d="m 2186.2205,-7171.6535 h 28.3465 l 3.5433,10.6299 -3.5433,10.6299 h -28.3465 l -3.5433,-10.6299 z"
         id="path9168" />
      <path
         id="path9170"
         d="M 2242.9134,-7171.6535 H 2250 l 3.5433,10.6299 -3.5433,10.6299 h -7.0866 v -10.6299 z"
         style="fill:#f5c500;fill-opacity:0.392157;stroke:none" />
      <path
         style="fill:#ffeeaa;stroke:none"
         d="m 2225.1969,-7171.6535 h -3.5434 l -3.5433,10.6299 3.5433,10.6299 h 3.5434 v -10.6299 z"
         id="path9172" />
      <path
         id="path9174"
         d="m 2257.0866,-7171.6535 h 28.3465 l 3.5433,10.6299 -3.5433,10.6299 h -28.3465 l -3.5433,-10.6299 z"
         style="fill:#f5c500;fill-opacity:0.392157;stroke:none" />
      <path
         style="fill:#f5c500;fill-opacity:0.392157;stroke:none"
         d="m 2292.5197,-7171.6535 h 28.3465 l 3.5433,10.6299 -3.5433,10.6299 h -28.3465 l -3.5433,-10.6299 z"
         id="path9176" />
      <path
         style="fill:#f5c500;fill-opacity:0.392157;stroke:none"
         d="m 2327.9528,-7171.6535 h 28.3465 l 3.5433,10.6299 -3.5433,10.6299 h -28.3465 l -3.5433,-10.6299 z"
         id="path9178" />
      <path
         id="path9180"
         d="m 2363.3859,-7171.6535 h 28.3465 l 3.5433,10.6299 -3.5433,10.6299 h -28.3465 l -3.5433,-10.6299 z"
         style="fill:#f5c500;fill-opacity:0.392157;stroke:none" />
      <path
         id="path9182"
         d="m 2398.8189,-7171.6535 h 28.3465 l 3.5433,10.6299 -3.5433,10.6299 h -28.3465 l -3.5433,-10.6299 z"
         style="fill:#f5c500;fill-opacity:0.392157;stroke:none" />
      <path
         style="fill:#f5c500;fill-opacity:0.392157;stroke:none"
         d="m 2434.252,-7171.6535 h 28.3465 l 3.5433,10.6299 -3.5433,10.6299 h -28.3465 l -3.5433,-10.6299 z"
         id="path9184" />
      <path
         id="path9186"
         d="m 2490.9449,-7171.6535 h 7.0866 l 3.5433,10.6299 -3.5433,10.6299 h -7.0866 v -10.6299 z"
         style="fill:#f5c500;fill-opacity:0.392157;stroke:none" />
      <path
         style="fill:#f5c500;fill-opacity:0.392157;stroke:none"
         d="m 2473.2283,-7171.6535 h -3.5432 l -3.5433,10.6299 3.5433,10.6299 h 3.5432 v -10.6299 z"
         id="path9188" />
      <path
         style="fill:#f5c500;fill-opacity:0.392157;stroke:none"
         d="m 2505.1181,-7171.6535 h 28.3465 l 3.5433,10.6299 -3.5433,10.6299 h -28.3465 l -3.5433,-10.6299 z"
         id="path9190" />
      <path
         id="path9192"
         d="m 2540.5512,-7171.6535 h 28.3465 l 3.5433,10.6299 -3.5433,10.6299 h -28.3465 l -3.5433,-10.6299 z"
         style="fill:#f5c500;fill-opacity:0.392157;stroke:none" />
      <path
         id="path9194"
         d="m 2575.9842,-7171.6535 h 28.3465 l 3.5433,10.6299 -3.5433,10.6299 h -28.3465 l -3.5433,-10.6299 z"
         style="fill:#f5c500;fill-opacity:0.392157;stroke:none" />
      <path
         style="fill:#f5c500;fill-opacity:0.392157;stroke:none"
         d="m 2611.4173,-7171.6535 h 17.7166 l -10e-5,10.6298 10e-5,10.63 h -17.7166 l -3.5433,-10.6299 z"
         id="path9196" />
      <g
         aria-label="ms"
         id="text9206"
         style="line-height:0%;font-family:Iwona;-inkscape-font-specification:Iwona;text-align:end;letter-spacing:0px;word-spacing:0px;text-anchor:end">
        <path
           d="m 2074.3926,-7156.9736 v -5.85 c 0,-1.26 -0.738,-2.43 -1.908,-2.43 -1.008,0 -1.944,0.522 -2.484,1.368 -0.288,-0.792 -0.9,-1.368 -1.728,-1.368 -0.936,0 -1.692,0.648 -2.304,1.368 v -1.188 h -1.404 v 8.1 h 1.404 v -6.372 c 0.432,-0.558 0.972,-1.08 1.674,-1.08 0.738,0 1.134,0.792 1.134,1.602 v 5.85 h 1.404 v -5.85 c 0,-0.216 -0.018,-0.414 -0.054,-0.63 0.432,-0.558 1.026,-0.972 1.728,-0.972 0.738,0 1.134,0.792 1.134,1.602 v 5.85 z"
           style="font-size:18px;line-height:1.25"
           id="path92" />
        <path
           d="m 2082.6546,-7159.2776 c 0,-1.422 -1.512,-2.16 -2.988,-2.52 -0.864,-0.216 -1.8,-0.576 -1.8,-1.422 0,-0.774 0.792,-1.278 1.656,-1.278 0.954,0 1.908,0.288 2.7,0.81 v -0.756 c -0.792,-0.522 -1.746,-0.81 -2.7,-0.81 -1.566,0 -3.006,0.954 -3.006,2.412 0,1.314 1.458,1.926 2.844,2.268 0.954,0.234 1.944,0.738 1.944,1.656 0,0.846 -0.864,1.368 -1.782,1.368 -1.116,0 -2.196,-0.27 -3.15,-0.81 v 0.756 c 0.954,0.54 2.034,0.81 3.15,0.81 1.62,0 3.132,-0.972 3.132,-2.484 z"
           style="font-size:18px;line-height:1.25"
           id="path94" />
      </g>
      <g
         aria-label="0"
         id="text9210"
         style="line-height:0%;font-family:Iwona;-inkscape-font-specification:Iwona;letter-spacing:0px;word-spacing:0px">
        <path
           d="m 2100.8425,-7161.0238 c 0,-3.318 -1.022,-4.97 -3.066,-4.97 -2.044,0 -3.066,1.652 -3.066,4.97 0,3.318 1.022,4.97 3.066,4.97 2.044,0 3.066,-1.652 3.066,-4.97 z m -1.232,0 c 0,2.926 -0.616,4.382 -1.834,4.382 -1.218,0 -1.834,-1.456 -1.834,-4.382 0,-2.926 0.616,-4.382 1.834,-4.382 1.218,0 1.834,1.456 1.834,4.382 z"
           style="font-size:14px;line-height:1.25"
           id="path97" />
      </g>
      <g
         aria-label="1"
         id="text9214"
         style="line-height:0%;font-family:Iwona;-inkscape-font-specification:Iwona;letter-spacing:0px;word-spacing:0px">
        <path
           d="m 2123.5177,-7156.1938 v -9.66 h -0.812 c -0.77,0.882 -1.68,1.638 -2.688,2.226 v 0.588 c 0.854,-0.406 1.652,-0.882 2.408,-1.456 v 8.302 z"
           style="font-size:14px;line-height:1.25"
           id="path100" />
      </g>
      <g
         aria-label="3"
         id="text9218"
         style="line-height:0%;font-family:Iwona;-inkscape-font-specification:Iwona;letter-spacing:0px;word-spacing:0px">
        <path
           d="m 2196.4137,-7158.8538 c 0,-1.232 -0.868,-2.296 -2.072,-2.66 1.064,-0.308 1.722,-1.106 1.722,-2.17 0,-1.386 -1.12,-2.31 -2.8,-2.31 -0.91,0 -1.792,0.308 -2.506,0.868 v 0.588 c 0.714,-0.56 1.596,-0.868 2.506,-0.868 1.022,0 1.708,0.686 1.708,1.722 0,1.666 -0.77,2.1 -2.52,2.1 v 0.518 c 1.89,0 2.73,0.448 2.73,2.212 0,1.218 -0.784,2.212 -1.736,2.212 -1.064,0 -2.1,-0.308 -2.982,-0.868 v 0.588 c 0.882,0.56 1.918,0.868 2.982,0.868 1.624,0 2.968,-1.26 2.968,-2.8 z"
           style="font-size:14px;line-height:1.25"
           id="path103" />
      </g>
      <g
         aria-label="2"
         id="text9222"
         style="line-height:0%;font-family:Iwona;-inkscape-font-specification:Iwona;letter-spacing:0px;word-spacing:0px">
        <path
           d="m 2160.9808,-7156.1235 v -0.868 h -4.942 l 2.576,-2.548 c 1.148,-1.148 2.226,-2.492 2.226,-4.116 0,-1.372 -1.358,-2.268 -2.828,-2.268 -1.106,0 -2.156,0.504 -2.842,1.358 v 0.588 c 0.714,-0.826 1.75,-1.302 2.842,-1.302 0.938,0 1.736,0.7 1.736,1.624 0,1.386 -0.644,2.674 -1.596,3.668 l -3.122,3.206 v 0.658 z"
           style="font-size:14px;line-height:1.25"
           id="path106" />
      </g>
      <g
         aria-label="998"
         id="text9226"
         style="line-height:0%;font-family:Iwona;-inkscape-font-specification:Iwona;letter-spacing:0px;word-spacing:0px">
        <path
           d="m 2267.2799,-7161.0238 c 0,-3.472 -0.896,-4.97 -2.968,-4.97 -1.792,0 -2.982,1.316 -2.982,3.29 0,2.016 0.798,3.29 2.674,3.29 0.812,0 1.568,-0.378 2.044,-1.022 0,1.834 -0.462,3.794 -2.044,3.794 -0.714,0 -1.414,-0.238 -1.974,-0.686 v 0.588 c 0.56,0.448 1.26,0.686 1.974,0.686 2.198,0 3.276,-2.492 3.276,-4.97 z m -1.232,0 c -0.476,0.644 -1.232,1.022 -2.044,1.022 -1.12,0 -1.442,-1.4 -1.442,-2.702 0,-1.624 0.7,-2.702 1.75,-2.702 1.946,0 1.736,2.114 1.736,4.382 z"
           style="font-size:14px;line-height:1.25"
           id="path109" />
        <path
           d="m 2274.6299,-7161.0238 c 0,-3.472 -0.896,-4.97 -2.968,-4.97 -1.792,0 -2.982,1.316 -2.982,3.29 0,2.016 0.798,3.29 2.674,3.29 0.812,0 1.568,-0.378 2.044,-1.022 0,1.834 -0.462,3.794 -2.044,3.794 -0.714,0 -1.414,-0.238 -1.974,-0.686 v 0.588 c 0.56,0.448 1.26,0.686 1.974,0.686 2.198,0 3.276,-2.492 3.276,-4.97 z m -1.232,0 c -0.476,0.644 -1.232,1.022 -2.044,1.022 -1.12,0 -1.442,-1.4 -1.442,-2.702 0,-1.624 0.7,-2.702 1.75,-2.702 1.946,0 1.736,2.114 1.736,4.382 z"
           style="font-size:14px;line-height:1.25"
           id="path111" />
        <path
           d="m 2281.9799,-7158.8958 c 0,-1.316 -0.63,-2.254 -1.708,-2.646 0.91,-0.336 1.428,-1.092 1.428,-2.114 0,-1.456 -1.022,-2.338 -2.688,-2.338 -1.68,0 -2.702,0.882 -2.702,2.338 0,1.022 0.518,1.778 1.428,2.114 -1.078,0.392 -1.708,1.33 -1.708,2.646 0,1.764 1.134,2.842 2.982,2.842 1.834,0 2.968,-1.078 2.968,-2.842 z m -1.372,-4.76 c 0,1.078 -0.616,1.75 -1.596,1.75 -0.994,0 -1.61,-0.672 -1.61,-1.75 0,-1.092 0.616,-1.75 1.61,-1.75 0.98,0 1.596,0.658 1.596,1.75 z m 0.14,4.76 c 0,1.4 -0.658,2.254 -1.736,2.254 -1.092,0 -1.75,-0.854 -1.75,-2.254 0,-1.4 0.658,-2.254 1.75,-2.254 1.078,0 1.736,0.854 1.736,2.254 z"
           style="font-size:14px;line-height:1.25"
           id="path113" />
      </g>
      <g
         aria-label="999"
         id="text9230"
         style="line-height:0%;font-family:Iwona;-inkscape-font-specification:Iwona;letter-spacing:0px;word-spacing:0px">
        <path
           d="m 2302.7132,-7161.0238 c 0,-3.472 -0.896,-4.97 -2.968,-4.97 -1.792,0 -2.982,1.316 -2.982,3.29 0,2.016 0.798,3.29 2.674,3.29 0.812,0 1.568,-0.378 2.044,-1.022 0,1.834 -0.462,3.794 -2.044,3.794 -0.714,0 -1.414,-0.238 -1.974,-0.686 v 0.588 c 0.56,0.448 1.26,0.686 1.974,0.686 2.198,0 3.276,-2.492 3.276,-4.97 z m -1.232,0 c -0.476,0.644 -1.232,1.022 -2.044,1.022 -1.12,0 -1.442,-1.4 -1.442,-2.702 0,-1.624 0.7,-2.702 1.75,-2.702 1.946,0 1.736,2.114 1.736,4.382 z"
           style="font-size:14px;line-height:1.25"
           id="path116" />
        <path
           d="m 2310.0632,-7161.0238 c 0,-3.472 -0.896,-4.97 -2.968,-4.97 -1.792,0 -2.982,1.316 -2.982,3.29 0,2.016 0.798,3.29 2.674,3.29 0.812,0 1.568,-0.378 2.044,-1.022 0,1.834 -0.462,3.794 -2.044,3.794 -0.714,0 -1.414,-0.238 -1.974,-0.686 v 0.588 c 0.56,0.448 1.26,0.686 1.974,0.686 2.198,0 3.276,-2.492 3.276,-4.97 z m -1.232,0 c -0.476,0.644 -1.232,1.022 -2.044,1.022 -1.12,0 -1.442,-1.4 -1.442,-2.702 0,-1.624 0.7,-2.702 1.75,-2.702 1.946,0 1.736,2.114 1.736,4.382 z"
           style="font-size:14px;line-height:1.25"
           id="path118" />
        <path
           d="m 2317.4132,-7161.0238 c 0,-3.472 -0.896,-4.97 -2.968,-4.97 -1.792,0 -2.982,1.316 -2.982,3.29 0,2.016 0.798,3.29 2.674,3.29 0.812,0 1.568,-0.378 2.044,-1.022 0,1.834 -0.462,3.794 -2.044,3.794 -0.714,0 -1.414,-0.238 -1.974,-0.686 v 0.588 c 0.56,0.448 1.26,0.686 1.974,0.686 2.198,0 3.276,-2.492 3.276,-4.97 z m -1.232,0 c -0.476,0.644 -1.232,1.022 -2.044,1.022 -1.12,0 -1.442,-1.4 -1.442,-2.702 0,-1.624 0.7,-2.702 1.75,-2.702 1.946,0 1.736,2.114 1.736,4.382 z"
           style="font-size:14px;line-height:1.25"
           id="path120" />
      </g>
      <g
         aria-label="1"
         id="text9234"
         style="line-height:0%;font-family:Iwona;-inkscape-font-specification:Iwona;letter-spacing:0px;word-spacing:0px">
        <path
           d="m 2371.5492,-7156.1938 v -9.66 h -0.812 c -0.77,0.882 -1.68,1.638 -2.688,2.226 v 0.588 c 0.854,-0.406 1.652,-0.882 2.408,-1.456 v 8.302 z"
           style="font-size:14px;line-height:1.25"
           id="path123" />
      </g>
      <g
         aria-label="0"
         id="text9238"
         style="line-height:0%;font-family:Iwona;-inkscape-font-specification:Iwona;letter-spacing:0px;word-spacing:0px">
        <path
           d="m 2338.2443,-7161.0238 c 0,-3.318 -1.022,-4.97 -3.066,-4.97 -2.044,0 -3.066,1.652 -3.066,4.97 0,3.318 1.022,4.97 3.066,4.97 2.044,0 3.066,-1.652 3.066,-4.97 z m -1.232,0 c 0,2.926 -0.616,4.382 -1.834,4.382 -1.218,0 -1.834,-1.456 -1.834,-4.382 0,-2.926 0.616,-4.382 1.834,-4.382 1.218,0 1.834,1.456 1.834,4.382 z"
           style="font-size:14px;line-height:1.25"
           id="path126" />
      </g>
      <g
         aria-label="2"
         id="text9242"
         style="line-height:0%;font-family:Iwona;-inkscape-font-specification:Iwona;letter-spacing:0px;word-spacing:0px">
        <path
           d="m 2409.0125,-7156.1235 v -0.868 h -4.942 l 2.576,-2.548 c 1.148,-1.148 2.226,-2.492 2.226,-4.116 0,-1.372 -1.358,-2.268 -2.828,-2.268 -1.106,0 -2.156,0.504 -2.842,1.358 v 0.588 c 0.714,-0.826 1.75,-1.302 2.842,-1.302 0.938,0 1.736,0.7 1.736,1.624 0,1.386 -0.644,2.674 -1.596,3.668 l -3.122,3.206 v 0.658 z"
           style="font-size:14px;line-height:1.25"
           id="path129" />
      </g>
      <g
         aria-label="3"
         id="text9246"
         style="line-height:0%;font-family:Iwona;-inkscape-font-specification:Iwona;letter-spacing:0px;word-spacing:0px">
        <path
           d="m 2444.4457,-7158.8538 c 0,-1.232 -0.868,-2.296 -2.072,-2.66 1.064,-0.308 1.722,-1.106 1.722,-2.17 0,-1.386 -1.12,-2.31 -2.8,-2.31 -0.91,0 -1.792,0.308 -2.506,0.868 v 0.588 c 0.714,-0.56 1.596,-0.868 2.506,-0.868 1.022,0 1.708,0.686 1.708,1.722 0,1.666 -0.77,2.1 -2.52,2.1 v 0.518 c 1.89,0 2.73,0.448 2.73,2.212 0,1.218 -0.784,2.212 -1.736,2.212 -1.064,0 -2.1,-0.308 -2.982,-0.868 v 0.588 c 0.882,0.56 1.918,0.868 2.982,0.868 1.624,0 2.968,-1.26 2.968,-2.8 z"
           style="font-size:14px;line-height:1.25"
           id="path132" />
      </g>
      <g
         aria-label="998"
         id="text9250"
         style="line-height:0%;font-family:Iwona;-inkscape-font-specification:Iwona;letter-spacing:0px;word-spacing:0px">
        <path
           d="m 2515.3116,-7161.0238 c 0,-3.472 -0.896,-4.97 -2.968,-4.97 -1.792,0 -2.982,1.316 -2.982,3.29 0,2.016 0.798,3.29 2.674,3.29 0.812,0 1.568,-0.378 2.044,-1.022 0,1.834 -0.462,3.794 -2.044,3.794 -0.714,0 -1.414,-0.238 -1.974,-0.686 v 0.588 c 0.56,0.448 1.26,0.686 1.974,0.686 2.198,0 3.276,-2.492 3.276,-4.97 z m -1.232,0 c -0.476,0.644 -1.232,1.022 -2.044,1.022 -1.12,0 -1.442,-1.4 -1.442,-2.702 0,-1.624 0.7,-2.702 1.75,-2.702 1.946,0 1.736,2.114 1.736,4.382 z"
           style="font-size:14px;line-height:1.25"
           id="path135" />
        <path
           d="m 2522.6616,-7161.0238 c 0,-3.472 -0.896,-4.97 -2.968,-4.97 -1.792,0 -2.982,1.316 -2.982,3.29 0,2.016 0.798,3.29 2.674,3.29 0.812,0 1.568,-0.378 2.044,-1.022 0,1.834 -0.462,3.794 -2.044,3.794 -0.714,0 -1.414,-0.238 -1.974,-0.686 v 0.588 c 0.56,0.448 1.26,0.686 1.974,0.686 2.198,0 3.276,-2.492 3.276,-4.97 z m -1.232,0 c -0.476,0.644 -1.232,1.022 -2.044,1.022 -1.12,0 -1.442,-1.4 -1.442,-2.702 0,-1.624 0.7,-2.702 1.75,-2.702 1.946,0 1.736,2.114 1.736,4.382 z"
           style="font-size:14px;line-height:1.25"
           id="path137" />
        <path
           d="m 2530.0116,-7158.8958 c 0,-1.316 -0.63,-2.254 -1.708,-2.646 0.91,-0.336 1.428,-1.092 1.428,-2.114 0,-1.456 -1.022,-2.338 -2.688,-2.338 -1.68,0 -2.702,0.882 -2.702,2.338 0,1.022 0.518,1.778 1.428,2.114 -1.078,0.392 -1.708,1.33 -1.708,2.646 0,1.764 1.134,2.842 2.982,2.842 1.834,0 2.968,-1.078 2.968,-2.842 z m -1.372,-4.76 c 0,1.078 -0.616,1.75 -1.596,1.75 -0.994,0 -1.61,-0.672 -1.61,-1.75 0,-1.092 0.616,-1.75 1.61,-1.75 0.98,0 1.596,0.658 1.596,1.75 z m 0.14,4.76 c 0,1.4 -0.658,2.254 -1.736,2.254 -1.092,0 -1.75,-0.854 -1.75,-2.254 0,-1.4 0.658,-2.254 1.75,-2.254 1.078,0 1.736,0.854 1.736,2.254 z"
           style="font-size:14px;line-height:1.25"
           id="path139" />
      </g>
      <g
         aria-label="0"
         id="text9254"
         style="line-height:0%;font-family:Iwona;-inkscape-font-specification:Iwona;letter-spacing:0px;word-spacing:0px">
        <path
           d="m 2586.2756,-7161.0238 c 0,-3.318 -1.022,-4.97 -3.066,-4.97 -2.044,0 -3.066,1.652 -3.066,4.97 0,3.318 1.022,4.97 3.066,4.97 2.044,0 3.066,-1.652 3.066,-4.97 z m -1.232,0 c 0,2.926 -0.616,4.382 -1.834,4.382 -1.218,0 -1.834,-1.456 -1.834,-4.382 0,-2.926 0.616,-4.382 1.834,-4.382 1.218,0 1.834,1.456 1.834,4.382 z"
           style="font-size:14px;line-height:1.25"
           id="path142" />
      </g>
      <g
         aria-label="999"
         id="text9258"
         style="line-height:0%;font-family:Iwona;-inkscape-font-specification:Iwona;letter-spacing:0px;word-spacing:0px">
        <path
           d="m 2550.7447,-7161.0238 c 0,-3.472 -0.896,-4.97 -2.968,-4.97 -1.792,0 -2.982,1.316 -2.982,3.29 0,2.016 0.798,3.29 2.674,3.29 0.812,0 1.568,-0.378 2.044,-1.022 0,1.834 -0.462,3.794 -2.044,3.794 -0.714,0 -1.414,-0.238 -1.974,-0.686 v 0.588 c 0.56,0.448 1.26,0.686 1.974,0.686 2.198,0 3.276,-2.492 3.276,-4.97 z m -1.232,0 c -0.476,0.644 -1.232,1.022 -2.044,1.022 -1.12,0 -1.442,-1.4 -1.442,-2.702 0,-1.624 0.7,-2.702 1.75,-2.702 1.946,0 1.736,2.114 1.736,4.382 z"
           style="font-size:14px;line-height:1.25"
           id="path145" />
        <path
           d="m 2558.0947,-7161.0238 c 0,-3.472 -0.896,-4.97 -2.968,-4.97 -1.792,0 -2.982,1.316 -2.982,3.29 0,2.016 0.798,3.29 2.674,3.29 0.812,0 1.568,-0.378 2.044,-1.022 0,1.834 -0.462,3.794 -2.044,3.794 -0.714,0 -1.414,-0.238 -1.974,-0.686 v 0.588 c 0.56,0.448 1.26,0.686 1.974,0.686 2.198,0 3.276,-2.492 3.276,-4.97 z m -1.232,0 c -0.476,0.644 -1.232,1.022 -2.044,1.022 -1.12,0 -1.442,-1.4 -1.442,-2.702 0,-1.624 0.7,-2.702 1.75,-2.702 1.946,0 1.736,2.114 1.736,4.382 z"
           style="font-size:14px;line-height:1.25"
           id="path147" />
        <path
           d="m 2565.4447,-7161.0238 c 0,-3.472 -0.896,-4.97 -2.968,-4.97 -1.792,0 -2.982,1.316 -2.982,3.29 0,2.016 0.798,3.29 2.674,3.29 0.812,0 1.568,-0.378 2.044,-1.022 0,1.834 -0.462,3.794 -2.044,3.794 -0.714,0 -1.414,-0.238 -1.974,-0.686 v 0.588 c 0.56,0.448 1.26,0.686 1.974,0.686 2.198,0 3.276,-2.492 3.276,-4.97 z m -1.232,0 c -0.476,0.644 -1.232,1.022 -2.044,1.022 -1.12,0 -1.442,-1.4 -1.442,-2.702 0,-1.624 0.7,-2.702 1.75,-2.702 1.946,0 1.736,2.114 1.736,4.382 z"
           style="font-size:14px;line-height:1.25"
           id="path149" />
      </g>
      <g
         aria-label="1"
         id="text9262"
         style="line-height:0%;font-family:Iwona;-inkscape-font-specification:Iwona;letter-spacing:0px;word-spacing:0px">
        <path
           d="m 2619.5807,-7156.1938 v -9.66 h -0.812 c -0.77,0.882 -1.68,1.638 -2.688,2.226 v 0.588 c 0.854,-0.406 1.652,-0.882 2.408,-1.456 v 8.302 z"
           style="font-size:14px;line-height:1.25"
           id="path152" />
      </g>
      <path
         d="m 2090.5512,-7171.6535 h 17.7165 l 7.0866,21.2598 h 28.3465 l 7.0866,-21.2598 h 28.3465 l 7.0866,21.2598 h 28.3465 l 7.0866,-21.2598 h 3.5433 m 17.7165,0 H 2250 l 7.0866,21.2598 h 28.3465 l 7.0866,-21.2598 h 28.3465 l 7.0866,21.2598 h 28.3465 l 7.0866,-21.2598 h 28.3464 l 7.0866,21.2598 h 28.3465 l 7.0866,-21.2598 h 28.3465 l 7.0866,21.2598 h 3.5432 m 17.7166,0 h 7.0867 l 7.0866,-21.2598 h 28.3464 l 7.0866,21.2598 h 28.3465 l 7.0866,-21.2598 h 28.3465 l 7.0866,21.2598 h 17.7165 m -538.5827,0 h 17.7165 l 7.0866,-21.2598 h 28.3465 l 7.0866,21.2598 h 28.3465 l 7.0866,-21.2598 h 28.3465 l 7.0866,21.2598 h 3.5433 m 17.7165,0 H 2250 l 7.0866,-21.2598 h 28.3465 l 7.0866,21.2598 h 28.3465 l 7.0866,-21.2598 h 28.3465 l 7.0866,21.2598 h 28.3464 l 7.0866,-21.2598 h 28.3465 l 7.0866,21.2598 h 28.3465 l 7.0866,-21.2598 h 3.5432 m 17.7166,0 h 7.0867 l 7.0866,21.2598 h 28.3464 l 7.0866,-21.2598 h 28.3465 l 7.0866,21.2598 h 28.3465 l 7.0866,-21.2598 h 17.7165"
         style="fill:none;stroke:#000000;stroke-width:1px;stroke-linecap:butt;stroke-linejoin:miter;stroke-opacity:1"
         id="path9266" />
      <g
         aria-label="sec"
         id="text9280"
         style="line-height:0%;font-family:Iwona;-inkscape-font-specification:Iwona;text-align:end;letter-spacing:0px;word-spacing:0px;text-anchor:end">
        <path
           d="m 2066.0767,-7123.8445 c 0,-1.422 -1.512,-2.16 -2.988,-2.52 -0.864,-0.216 -1.8,-0.576 -1.8,-1.422 0,-0.774 0.792,-1.278 1.656,-1.278 0.954,0 1.908,0.288 2.7,0.81 v -0.756 c -0.792,-0.522 -1.746,-0.81 -2.7,-0.81 -1.566,0 -3.006,0.954 -3.006,2.412 0,1.314 1.458,1.926 2.844,2.268 0.954,0.234 1.944,0.738 1.944,1.656 0,0.846 -0.864,1.368 -1.782,1.368 -1.116,0 -2.196,-0.27 -3.15,-0.81 v 0.756 c 0.954,0.54 2.034,0.81 3.15,0.81 1.62,0 3.132,-0.972 3.132,-2.484 z"
           style="font-size:18px;line-height:1.25"
           id="path155" />
        <path
           d="m 2074.8426,-7125.4105 v -0.18 c 0,-2.538 -1.386,-4.23 -3.474,-4.23 -2.106,0 -3.492,1.692 -3.492,4.23 0,2.538 1.386,4.23 3.492,4.23 0.9,0 1.782,-0.288 2.52,-0.81 v -0.756 c -0.846,0.54 -1.53,0.738 -2.52,0.738 -1.53,0 -1.908,-1.458 -1.908,-3.222 z m -1.584,-0.756 h -3.798 c 0,-1.44 0.612,-2.898 1.908,-2.898 1.278,0 1.89,1.458 1.89,2.898 z"
           style="font-size:18px;line-height:1.25"
           id="path157" />
        <path
           d="m 2083.0146,-7127.7685 v -0.756 c -0.576,-0.81 -1.512,-1.296 -2.52,-1.296 -2.25,0 -3.762,1.692 -3.762,4.23 0,2.538 1.512,4.23 3.762,4.23 0.936,0 1.818,-0.468 2.34,-1.242 v -0.756 c -0.612,0.918 -1.242,1.242 -2.34,1.242 -1.296,0 -2.178,-1.386 -2.178,-3.474 0,-2.088 0.882,-3.474 2.178,-3.474 1.116,0 1.872,0.396 2.52,1.296 z"
           style="font-size:18px;line-height:1.25"
           id="path159" />
      </g>
      <path
         d="m 2090.5512,-7136.2205 h 230.3149 l 7.0866,21.2598 h 240.9449 l 7.0866,-21.2598 h 53.1497 m -538.5827,21.2598 h 230.3149 l 7.0866,-21.2598 h 240.9449 l 7.0866,21.2598 h 53.1497"
         style="fill:none;stroke:#000000;stroke-width:1px;stroke-linecap:butt;stroke-linejoin:miter;stroke-opacity:1"
         id="path9284" />
      <g
         aria-label="58"
         id="text9286"
         style="line-height:0%;font-family:Iwona;-inkscape-font-specification:Iwona;letter-spacing:0px;word-spacing:0px">
        <path
           d="m 2100.7445,-7123.9107 c 0,-1.974 -1.19,-3.29 -2.968,-3.29 -0.812,0 -1.568,0.308 -2.156,0.826 l 0.14,-3.178 h 4.704 v -0.868 h -5.25 l -0.21,4.83 0.588,0.028 c 0.532,-0.658 1.33,-1.05 2.184,-1.05 1.036,0 1.736,1.078 1.736,2.702 0,1.624 -0.7,2.702 -1.736,2.702 -1.078,0 -2.128,-0.35 -2.982,-1.008 v 0.588 c 0.854,0.658 1.904,1.008 2.982,1.008 1.778,0 2.968,-1.316 2.968,-3.29 z"
           style="font-size:14px;line-height:1.25"
           id="path162" />
        <path
           d="m 2108.0945,-7123.4627 c 0,-1.316 -0.63,-2.254 -1.708,-2.646 0.91,-0.336 1.428,-1.092 1.428,-2.114 0,-1.456 -1.022,-2.338 -2.688,-2.338 -1.68,0 -2.702,0.882 -2.702,2.338 0,1.022 0.518,1.778 1.428,2.114 -1.078,0.392 -1.708,1.33 -1.708,2.646 0,1.764 1.134,2.842 2.982,2.842 1.834,0 2.968,-1.078 2.968,-2.842 z m -1.372,-4.76 c 0,1.078 -0.616,1.75 -1.596,1.75 -0.994,0 -1.61,-0.672 -1.61,-1.75 0,-1.092 0.616,-1.75 1.61,-1.75 0.98,0 1.596,0.658 1.596,1.75 z m 0.14,4.76 c 0,1.4 -0.658,2.254 -1.736,2.254 -1.092,0 -1.75,-0.854 -1.75,-2.254 0,-1.4 0.658,-2.254 1.75,-2.254 1.078,0 1.736,0.854 1.736,2.254 z"
           style="font-size:14px;line-height:1.25"
           id="path164" />
      </g>
      <g
         aria-label="59"
         id="text9290"
         style="line-height:0%;font-family:Iwona;-inkscape-font-specification:Iwona;letter-spacing:0px;word-spacing:0px">
        <path
           d="m 2345.2328,-7123.9107 c 0,-1.974 -1.19,-3.29 -2.968,-3.29 -0.812,0 -1.568,0.308 -2.156,0.826 l 0.14,-3.178 h 4.704 v -0.868 h -5.25 l -0.21,4.83 0.588,0.028 c 0.532,-0.658 1.33,-1.05 2.184,-1.05 1.036,0 1.736,1.078 1.736,2.702 0,1.624 -0.7,2.702 -1.736,2.702 -1.078,0 -2.128,-0.35 -2.982,-1.008 v 0.588 c 0.854,0.658 1.904,1.008 2.982,1.008 1.778,0 2.968,-1.316 2.968,-3.29 z"
           style="font-size:14px;line-height:1.25"
           id="path167" />
        <path
           d="m 2352.5828,-7125.5907 c 0,-3.472 -0.896,-4.97 -2.968,-4.97 -1.792,0 -2.982,1.316 -2.982,3.29 0,2.016 0.798,3.29 2.674,3.29 0.812,0 1.568,-0.378 2.044,-1.022 0,1.834 -0.462,3.794 -2.044,3.794 -0.714,0 -1.414,-0.238 -1.974,-0.686 v 0.588 c 0.56,0.448 1.26,0.686 1.974,0.686 2.198,0 3.276,-2.492 3.276,-4.97 z m -1.232,0 c -0.476,0.644 -1.232,1.022 -2.044,1.022 -1.12,0 -1.442,-1.4 -1.442,-2.702 0,-1.624 0.7,-2.702 1.75,-2.702 1.946,0 1.736,2.114 1.736,4.382 z"
           style="font-size:14px;line-height:1.25"
           id="path169" />
      </g>
      <g
         aria-label="0"
         id="text9294"
         style="line-height:0%;font-family:Iwona;-inkscape-font-specification:Iwona;letter-spacing:0px;word-spacing:0px">
        <path
           d="m 2593.3623,-7125.5907 c 0,-3.318 -1.022,-4.97 -3.066,-4.97 -2.044,0 -3.066,1.652 -3.066,4.97 0,3.318 1.022,4.97 3.066,4.97 2.044,0 3.066,-1.652 3.066,-4.97 z m -1.232,0 c 0,2.926 -0.616,4.382 -1.834,4.382 -1.218,0 -1.834,-1.456 -1.834,-4.382 0,-2.926 0.616,-4.382 1.834,-4.382 1.218,0 1.834,1.456 1.834,4.382 z"
           style="font-size:14px;line-height:1.25"
           id="path172" />
      </g>
      <path
         id="path9304"
         d="m 2090.5512,-7100.7874 h 478.3464 l 3.5433,10.6299 -3.5433,10.6299 h -478.3464 l 1e-4,-10.6298 z"
         style="fill:#f5c500;fill-opacity:0.392157;stroke:none" />
      <path
         style="fill:#f5c500;fill-opacity:0.392157;stroke:none"
         d="m 2575.9842,-7100.7874 h 53.1497 v 10.6299 10.6299 h -53.1497 l -3.5432,-10.6299 z"
         id="path9306" />
      <g
         aria-label="min"
         id="text9308"
         style="line-height:0%;font-family:Iwona;-inkscape-font-specification:Iwona;text-align:end;letter-spacing:0px;word-spacing:0px;text-anchor:end">
        <path
           d="m 2067.7147,-7086.1084 v -5.85 c 0,-1.26 -0.738,-2.43 -1.908,-2.43 -1.008,0 -1.944,0.522 -2.484,1.368 -0.288,-0.792 -0.9,-1.368 -1.728,-1.368 -0.936,0 -1.692,0.648 -2.304,1.368 v -1.188 h -1.404 v 8.1 h 1.404 v -6.372 c 0.432,-0.558 0.972,-1.08 1.674,-1.08 0.738,0 1.134,0.792 1.134,1.602 v 5.85 h 1.404 v -5.85 c 0,-0.216 -0.018,-0.414 -0.054,-0.63 0.432,-0.558 1.026,-0.972 1.728,-0.972 0.738,0 1.134,0.792 1.134,1.602 v 5.85 z"
           style="font-size:18px;line-height:1.25"
           id="path175" />
        <path
           d="m 2073.7986,-7086.7384 v -0.54 c -0.342,0.288 -0.738,0.522 -1.188,0.522 -0.666,0 -0.792,-0.828 -0.792,-1.602 v -5.85 h -1.404 v 5.85 c 0,1.206 0.468,2.43 1.53,2.43 0.684,0 1.332,-0.342 1.854,-0.81 z m -1.8,-10.278 c 0,-0.486 -0.396,-0.882 -0.882,-0.882 -0.486,0 -0.882,0.396 -0.882,0.882 0,0.486 0.396,0.882 0.882,0.882 0.486,0 0.882,-0.396 0.882,-0.882 z"
           style="font-size:18px;line-height:1.25"
           id="path177" />
        <path
           d="m 2082.1146,-7086.1084 v -5.85 c 0,-1.314 -1.008,-2.43 -2.304,-2.43 -1.08,0 -2.034,0.612 -2.808,1.368 v -1.188 h -1.404 v 8.1 h 1.404 v -6.354 c 0.612,-0.612 1.368,-1.098 2.214,-1.098 0.846,0 1.494,0.738 1.494,1.602 v 5.85 z"
           style="font-size:18px;line-height:1.25"
           id="path179" />
      </g>
      <path
         id="path9312"
         style="fill:none;stroke:#000000;stroke-width:1px;stroke-linecap:butt;stroke-linejoin:miter;stroke-opacity:1"
         d="m 2090.5512,-7079.5276 h 478.3464 l 7.0866,-21.2598 h 53.1497 m -538.5827,0 h 478.3464 l 7.0866,21.2598 53.1497,1e-4" />
      <g
         aria-label="59"
         id="text9314"
         style="line-height:0%;font-family:Iwona;-inkscape-font-specification:Iwona;letter-spacing:0px;word-spacing:0px">
        <path
           d="m 2100.7445,-7088.4786 c 0,-1.974 -1.19,-3.29 -2.968,-3.29 -0.812,0 -1.568,0.308 -2.156,0.826 l 0.14,-3.178 h 4.704 v -0.868 h -5.25 l -0.21,4.83 0.588,0.028 c 0.532,-0.658 1.33,-1.05 2.184,-1.05 1.036,0 1.736,1.078 1.736,2.702 0,1.624 -0.7,2.702 -1.736,2.702 -1.078,0 -2.128,-0.35 -2.982,-1.008 v 0.588 c 0.854,0.658 1.904,1.008 2.982,1.008 1.778,0 2.968,-1.316 2.968,-3.29 z"
           style="font-size:14px;line-height:1.25"
           id="path182" />
        <path
           d="m 2108.0945,-7090.1586 c 0,-3.472 -0.896,-4.97 -2.968,-4.97 -1.792,0 -2.982,1.316 -2.982,3.29 0,2.016 0.798,3.29 2.674,3.29 0.812,0 1.568,-0.378 2.044,-1.022 0,1.834 -0.462,3.794 -2.044,3.794 -0.714,0 -1.414,-0.238 -1.974,-0.686 v 0.588 c 0.56,0.448 1.26,0.686 1.974,0.686 2.198,0 3.276,-2.492 3.276,-4.97 z m -1.232,0 c -0.476,0.644 -1.232,1.022 -2.044,1.022 -1.12,0 -1.442,-1.4 -1.442,-2.702 0,-1.624 0.7,-2.702 1.75,-2.702 1.946,0 1.736,2.114 1.736,4.382 z"
           style="font-size:14px;line-height:1.25"
           id="path184" />
      </g>
      <g
         aria-label="0"
         id="text9318"
         style="line-height:0%;font-family:Iwona;-inkscape-font-specification:Iwona;letter-spacing:0px;word-spacing:0px">
        <path
           d="m 2600.4489,-7090.1586 c 0,-3.318 -1.022,-4.97 -3.066,-4.97 -2.044,0 -3.066,1.652 -3.066,4.97 0,3.318 1.022,4.97 3.066,4.97 2.044,0 3.066,-1.652 3.066,-4.97 z m -1.232,0 c 0,2.926 -0.616,4.382 -1.834,4.382 -1.218,0 -1.834,-1.456 -1.834,-4.382 0,-2.926 0.616,-4.382 1.834,-4.382 1.218,0 1.834,1.456 1.834,4.382 z"
           style="font-size:14px;line-height:1.25"
           id="path187" />
      </g>
      <path
         id="path9330"
         d="m 2575.9841,-7065.3543 h 53.1498 v 10.6299 10.6299 h -53.1498 l -3.5432,-10.6299 z"
         style="fill:#f5c500;fill-opacity:0.392157;stroke:none" />
      <g
         aria-label="hr"
         id="text9332"
         style="line-height:0%;font-family:Iwona;-inkscape-font-specification:Iwona;text-align:end;letter-spacing:0px;word-spacing:0px;text-anchor:end">
        <path
           d="m 2075.8326,-7050.6743 v -5.85 c 0,-1.314 -1.008,-2.43 -2.304,-2.43 -1.08,0 -2.034,0.612 -2.808,1.368 v -5.688 h -1.404 v 12.6 h 1.404 v -6.354 c 0.612,-0.612 1.368,-1.098 2.214,-1.098 0.846,0 1.494,0.738 1.494,1.602 v 5.85 z"
           style="font-size:18px;line-height:1.25"
           id="path190" />
        <path
           d="m 2083.1046,-7057.6583 v -1.116 c -0.198,-0.072 -0.414,-0.126 -0.612,-0.126 -1.008,0 -1.818,0.702 -2.466,1.476 v -1.35 h -1.404 v 8.1 h 1.404 v -5.994 c 0.54,-0.63 1.224,-1.17 2.052,-1.17 0.342,0 0.702,0.072 1.026,0.18 z"
           style="font-size:18px;line-height:1.25"
           id="path192" />
      </g>
      <path
         d="m 2090.5512,-7044.0945 h 478.3464 l 7.0866,-21.2598 h 53.1497 m -538.5827,0 h 478.3464 l 7.0866,21.2598 h 53.1497"
         style="fill:none;stroke:#000000;stroke-width:1px;stroke-linecap:butt;stroke-linejoin:miter;stroke-opacity:1"
         id="path9336" />
      <g
         aria-label="6"
         id="text9338"
         style="line-height:0%;font-family:Iwona;-inkscape-font-specification:Iwona;letter-spacing:0px;word-spacing:0px">
        <path
           d="m 2100.7445,-7053.0445 c 0,-2.016 -0.798,-3.29 -2.674,-3.29 -0.812,0 -1.568,0.378 -2.044,1.022 0,-1.834 0.462,-3.794 2.044,-3.794 0.714,0 1.414,0.238 1.974,0.686 v -0.588 c -0.56,-0.448 -1.26,-0.686 -1.974,-0.686 -2.198,0 -3.276,2.492 -3.276,4.97 0,3.472 0.896,4.97 2.982,4.97 1.778,0 2.968,-1.316 2.968,-3.29 z m -1.232,0 c 0,1.624 -0.7,2.702 -1.736,2.702 -1.96,0 -1.75,-2.114 -1.75,-4.382 0.476,-0.644 1.232,-1.022 2.044,-1.022 1.12,0 1.442,1.4 1.442,2.702 z"
           style="font-size:14px;line-height:1.25"
           id="path195" />
      </g>
      <g
         aria-label="7"
         id="text9342"
         style="line-height:0%;font-family:Iwona;-inkscape-font-specification:Iwona;letter-spacing:0px;word-spacing:0px">
        <path
           d="m 2607.4374,-7059.0785 v -0.476 h -5.95 v 0.868 h 4.564 l -4.13,8.792 h 1.204 z"
           style="font-size:14px;line-height:1.25"
           id="path198" />
      </g>
      <path
         id="path9346"
         d="m 2575.9842,-7029.9213 h 53.1497 v 10.63 10.6299 h -60.2363 l 3.5433,-10.6299 z"
         style="fill:#f5c500;fill-opacity:0.392157;stroke:none" />
      <path
         style="fill:none;stroke:#000000;stroke-width:1px;stroke-linecap:butt;stroke-linejoin:miter;stroke-opacity:1"
         d="m 2090.5512,-7008.6614 h 478.3464 l 7.0866,-21.2598 53.1497,-1e-4"
         id="path9348" />
      <g
         aria-label="buzz"
         id="text9350"
         style="line-height:0%;font-family:Iwona;-inkscape-font-specification:Iwona;text-align:end;letter-spacing:0px;word-spacing:0px;text-anchor:end">
        <path
           d="m 2057.9767,-7019.798 c 0,-2.394 -0.9,-4.23 -3.078,-4.23 -0.918,0 -1.764,0.414 -2.484,0.99 v -5.31 h -1.404 v 12.6 h 1.404 v -0.414 c 0.684,0.36 1.44,0.594 2.214,0.594 2.25,0 3.348,-1.8 3.348,-4.23 z m -1.584,0 c 0,1.692 -0.522,3.474 -1.998,3.474 -0.702,0 -1.386,-0.234 -1.98,-0.594 v -5.364 c 0.54,-0.54 1.206,-0.99 1.98,-0.99 1.638,0 1.998,1.584 1.998,3.474 z"
           style="font-size:18px;line-height:1.25"
           id="path201" />
        <path
           d="m 2066.8327,-7015.748 v -8.1 h -1.404 v 6.354 c -0.612,0.612 -1.368,1.098 -2.214,1.098 -0.846,0 -1.494,-0.738 -1.494,-1.602 v -5.85 h -1.404 v 5.85 c 0,1.314 1.008,2.43 2.304,2.43 1.08,0 2.034,-0.612 2.808,-1.368 v 1.188 z"
           style="font-size:18px;line-height:1.25"
           id="path203" />
        <path
           d="m 2075.3286,-7015.748 v -0.756 h -4.896 l 4.896,-6.66 v -0.684 h -6.336 v 0.756 h 4.716 l -4.896,6.66 v 0.684 z"
           style="font-size:18px;line-height:1.25"
           id="path205" />
        <path
           d="m 2082.9246,-7015.748 v -0.756 h -4.896 l 4.896,-6.66 v -0.684 h -6.336 v 0.756 h 4.716 l -4.896,6.66 v 0.684 z"
           style="font-size:18px;line-height:1.25"
           id="path207" />
      </g>
    </g>
  </g>
</svg>
