<?xml version="1.0" encoding="UTF-8" standalone="no"?>
<!-- Created with Inkscape (http://www.inkscape.org/) -->

<svg
   width="622.38885"
   height="613.22949"
   id="svg2"
   version="1.0"
   viewBox="0 0 583.48956 574.90265"
   xmlns="http://www.w3.org/2000/svg"
   xmlns:svg="http://www.w3.org/2000/svg"
   xmlns:rdf="http://www.w3.org/1999/02/22-rdf-syntax-ns#"
   xmlns:cc="http://creativecommons.org/ns#"
   xmlns:dc="http://purl.org/dc/elements/1.1/">
  <defs
     id="defs4">
    <marker
       orient="auto"
       refY="0"
       refX="0"
       id="DotL"
       style="overflow:visible">
      <path
         id="path3955"
         d="m -2.5,-1 c 0,2.76 -2.24,5 -5,5 -2.76,0 -5,-2.24 -5,-5 0,-2.76 2.24,-5 5,-5 2.76,0 5,2.24 5,5 z"
         style="fill-rule:evenodd;stroke:#000000;stroke-width:1.00000003pt"
         transform="matrix(0.8,0,0,0.8,5.92,0.8)" />
    </marker>
    <marker
       orient="auto"
       refY="0"
       refX="0"
       id="Arrow1Lstart"
       style="overflow:visible">
      <path
         id="path5644"
         d="M 0,0 5,-5 -12.5,0 5,5 Z"
         style="fill-rule:evenodd;stroke:#000000;stroke-width:1.00000003pt;marker-start:none"
         transform="matrix(0.8,0,0,0.8,10,0)" />
    </marker>
    <marker
       orient="auto"
       refY="0"
       refX="0"
       id="Arrow1Lend"
       style="overflow:visible">
      <path
         id="path5647"
         d="M 0,0 5,-5 -12.5,0 5,5 Z"
         style="fill-rule:evenodd;stroke:#000000;stroke-width:1.00000003pt;marker-start:none"
         transform="matrix(-0.8,0,0,-0.8,-10,0)" />
    </marker>
  </defs>
  <metadata
     id="metadata7">
    <rdf:RDF>
      <cc:Work
         rdf:about="">
        <dc:format>image/svg+xml</dc:format>
        <dc:type
           rdf:resource="http://purl.org/dc/dcmitype/StillImage" />
        <dc:title />
      </cc:Work>
    </rdf:RDF>
  </metadata>
  <g
     id="layer1"
     transform="translate(-421.83071,-157.03543)">
    <path
       id="path3588"
       d="m 888.15552,669.68503 c -23.3666,21.70159 -11.31252,40.82263 8.71779,41.56264 20.03031,0.74 35.60804,-13.72773 13.90644,-37.09433"
       style="fill:none;stroke:#000000;stroke-width:1px;stroke-linecap:butt;stroke-linejoin:miter;stroke-opacity:1;marker-end:url(#Arrow1Lend)" />
    <path
       style="fill:none;stroke:#000000;stroke-width:1px;stroke-linecap:butt;stroke-linejoin:miter;stroke-opacity:1;marker-end:url(#Arrow1Lend)"
       d="m 488.97638,669.68503 c -23.3666,21.70159 -11.31252,40.82263 8.71779,41.56264 20.03031,0.74 35.60804,-13.72773 13.90644,-37.09433"
       id="path3582" />
    <path
       style="fill:none;stroke:#000000;stroke-width:1px;stroke-linecap:butt;stroke-linejoin:miter;stroke-opacity:1;marker-start:url(#DotL);marker-end:url(#Arrow1Lend)"
       d="m 605.90551,166.53543 c 21.25984,0 38.97638,10.62992 49.6063,46.06299"
       id="path13117" />
    <g
       aria-label=" "
       id="text4251"
       style="line-height:0%;font-family:Iwona;-inkscape-font-specification:Iwona;text-align:center;text-anchor:middle;stroke-width:1px" />
    <path
       id="path12890"
       d="m 814.89764,480.85037 c 17.71653,25.15748 43.2126,60.05514 53.2126,125.05514"
       style="fill:none;stroke:#000000;stroke-width:1px;stroke-linecap:butt;stroke-linejoin:miter;stroke-opacity:1;marker-end:url(#Arrow1Lend)" />
    <path
       style="fill:none;stroke:#000000;stroke-width:1px;stroke-linecap:butt;stroke-linejoin:miter;stroke-opacity:1;marker-start:none;marker-end:url(#Arrow1Lend)"
       d="m 648.4252,272.83464 c -63.77953,99.2126 -93.38583,195.21373 -113.38583,333.07087"
       id="path12894" />
    <path
       style="fill:none;stroke:#000000;stroke-width:1px;stroke-linecap:butt;stroke-linejoin:miter;stroke-opacity:1;marker-end:url(#Arrow1Lend)"
       d="m 722.83465,276.37795 c 38.97637,35.43307 67.32283,77.95275 74.40944,141.73228"
       id="path12898" />
    <g
       aria-label=" "
       id="text12900"
       style="line-height:0%;font-family:Iwona;-inkscape-font-specification:Iwona;text-align:center;text-anchor:middle;stroke-width:1px" />
    <g
       aria-label="FR"
       id="text12904"
       style="line-height:0%;font-family:Iwona;-inkscape-font-specification:Iwona;text-align:center;text-anchor:middle">
      <path
         d="m 442.0814,522.99403 v -0.598 h -6.188 v 9.1 h 1.066 v -4.251 h 4.134 v -0.598 h -4.134 v -3.653 z"
         style="font-size:13px;line-height:1.25"
         id="path122" />
      <path
         d="m 451.10339,531.49603 -2.769,-4.121 c 1.417,-0.273 2.392,-1.053 2.392,-2.509 0,-1.833 -1.573,-2.6 -3.614,-2.6 -0.728,0 -1.456,0.039 -2.171,0.13 h -1.04 v 9.1 h 1.066 v -4.225 c 0.702,0.13 1.43,0.208 2.145,0.208 l 2.717,4.017 z m -1.651,-6.63 c 0,1.183 -1.105,2.015 -2.34,2.015 -0.715,0 -1.443,-0.078 -2.145,-0.208 v -3.679 c 0.715,-0.091 1.43,-0.13 2.145,-0.13 1.235,0 2.34,0.832 2.34,2.002 z"
         style="font-size:13px;line-height:1.25"
         id="path124" />
    </g>
    <g
       aria-label="CA"
       id="text12946"
       style="line-height:0%;font-family:Iwona;-inkscape-font-specification:Iwona;text-align:center;text-anchor:middle">
      <path
         d="m 648.16518,301.3517 v -0.702 c -0.702,-1.014 -1.859,-1.612 -3.081,-1.612 -2.639,0 -4.069,1.924 -4.069,4.68 0,2.756 1.43,4.68 4.069,4.68 1.014,0 2.015,-0.299 2.873,-0.858 v -0.598 c -0.858,0.559 -1.859,0.858 -2.873,0.858 -2.041,0 -2.795,-1.807 -2.795,-4.082 0,-2.275 0.754,-4.082 2.795,-4.082 1.248,0 2.418,0.65 3.081,1.716 z"
         style="font-size:13px;line-height:1.25"
         id="path127" />
      <path
         d="m 656.48517,308.2677 -3.302,-9.1 h -1.131 l -3.367,9.1 h 0.637 l 1.183,-3.185 h 3.692 l 1.157,3.185 z m -2.509,-3.783 h -3.25 l 1.638,-4.446 z"
         style="font-size:13px;line-height:1.25"
         id="path129" />
    </g>
    <path
       id="path12952"
       d="M 620.07874,248.03149 C 504.85039,285.84251 460.62992,425.19684 476,606.09448"
       style="fill:none;stroke:#000000;stroke-width:1px;stroke-linecap:butt;stroke-linejoin:miter;stroke-opacity:1;marker-start:url(#Arrow1Lstart);marker-end:none" />
    <path
       id="path12992"
       d="M 765.35433,248.03149 C 974.44432,288.04723 1000,454.09448 948.15411,614.09448"
       style="fill:none;stroke:#000000;stroke-width:1px;stroke-linecap:butt;stroke-linejoin:miter;stroke-opacity:1;marker-start:url(#Arrow1Lstart);marker-end:none" />
    <g
       aria-label="FR"
       id="text12994"
       style="line-height:0%;font-family:Iwona;-inkscape-font-specification:Iwona;text-align:center;text-anchor:middle">
      <path
         d="m 991.29398,522.99403 v -0.598 h -6.188 v 9.1 h 1.066 v -4.251 h 4.134 v -0.598 h -4.134 v -3.653 z"
         style="font-size:13px;line-height:1.25"
         id="path132" />
      <path
         d="m 1000.316,531.49603 -2.76902,-4.121 c 1.417,-0.273 2.392,-1.053 2.392,-2.509 0,-1.833 -1.573,-2.6 -3.614,-2.6 -0.728,0 -1.456,0.039 -2.171,0.13 h -1.04 v 9.1 h 1.066 v -4.225 c 0.702,0.13 1.43,0.208 2.145,0.208 l 2.717,4.017 z m -1.65102,-6.63 c 0,1.183 -1.105,2.015 -2.34,2.015 -0.715,0 -1.443,-0.078 -2.145,-0.208 v -3.679 c 0.715,-0.091 1.43,-0.13 2.145,-0.13 1.235,0 2.34,0.832 2.34,2.002 z"
         style="font-size:13px;line-height:1.25"
         id="path134" />
    </g>
    <g
       transform="translate(295.86615,215.51742)"
       id="g2621">
      <path
         id="path2623"
         style="fill:#ffeeaa;stroke:#000000;stroke-width:1.06299"
         transform="translate(-118.70078,142.35661)"
         d="m 683.85825,95.669266 a 72.637794,35.433075 0 0 1 -72.63779,35.433074 72.637794,35.433075 0 0 1 -72.6378,-35.433074 72.637794,35.433075 0 0 1 72.6378,-35.433075 72.637794,35.433075 0 0 1 72.63779,35.433075 z" />
      <path
         id="path2625"
         d="M 423.42519,227.39596 H 561.61417"
         style="fill:none;fill-rule:evenodd;stroke:#000000;stroke-width:1px;stroke-linecap:butt;stroke-linejoin:miter;stroke-opacity:1" />
      <g
         aria-label="Suivi d'un mur"
         id="text2627"
         style="line-height:0%;font-family:Iwona;-inkscape-font-specification:Iwona;text-align:center;text-anchor:middle;stroke-width:1px">
        <path
           d="m 460.5407,217.9594 c 0,-1.599 -1.625,-2.548 -3.302,-2.899 -1.118,-0.234 -2.379,-0.52 -2.379,-1.56 0,-1.027 1.105,-1.612 2.249,-1.612 1.053,0 2.08,0.312 2.912,0.962 v -0.52 c -0.832,-0.65 -1.859,-1.04 -2.912,-1.04 -1.69,0 -3.276,0.949 -3.276,2.483 0,1.469 1.586,2.21 3.133,2.535 1.235,0.26 2.548,0.767 2.548,1.924 0,1.183 -1.157,1.976 -2.405,1.976 -1.209,0 -2.405,-0.312 -3.419,-0.962 v 0.52 c 1.027,0.65 2.197,1.04 3.419,1.04 1.794,0 3.432,-1.157 3.432,-2.847 z"
           style="font-size:13px;line-height:1.25"
           id="path138" />
        <path
           d="m 467.00169,220.5984 v -5.85 h -1.014 v 4.589 c -0.442,0.442 -0.988,0.793 -1.599,0.793 -0.611,0 -1.079,-0.533 -1.079,-1.157 v -4.225 h -1.014 v 4.225 c 0,0.949 0.728,1.755 1.664,1.755 0.78,0 1.469,-0.442 2.028,-0.988 v 0.858 z"
           style="font-size:13px;line-height:1.25"
           id="path140" />
        <path
           d="m 471.46067,220.1434 v -0.39 c -0.247,0.208 -0.533,0.377 -0.858,0.377 -0.481,0 -0.572,-0.598 -0.572,-1.157 v -4.225 h -1.014 v 4.225 c 0,0.871 0.338,1.755 1.105,1.755 0.494,0 0.962,-0.247 1.339,-0.585 z m -1.3,-7.423 c 0,-0.351 -0.286,-0.637 -0.637,-0.637 -0.351,0 -0.637,0.286 -0.637,0.637 0,0.351 0.286,0.637 0.637,0.637 0.351,0 0.637,-0.286 0.637,-0.637 z"
           style="font-size:13px;line-height:1.25"
           id="path142" />
        <path
           d="m 476.88165,214.7484 h -0.585 l -1.768,4.862 -1.716,-4.862 h -0.962 l 2.054,5.85 h 0.845 z"
           style="font-size:13px;line-height:1.25"
           id="path144" />
        <path
           d="m 480.43065,220.1434 v -0.39 c -0.247,0.208 -0.533,0.377 -0.858,0.377 -0.481,0 -0.572,-0.598 -0.572,-1.157 v -4.225 h -1.014 v 4.225 c 0,0.871 0.338,1.755 1.105,1.755 0.494,0 0.962,-0.247 1.339,-0.585 z m -1.3,-7.423 c 0,-0.351 -0.286,-0.637 -0.637,-0.637 -0.351,0 -0.637,0.286 -0.637,0.637 0,0.351 0.286,0.637 0.637,0.637 0.351,0 0.637,-0.286 0.637,-0.637 z"
           style="font-size:13px;line-height:1.25"
           id="path146" />
        <path
           d="m 490.76561,220.5984 v -9.1 h -1.014 v 3.471 c -0.507,-0.221 -1.053,-0.351 -1.599,-0.351 -1.625,0 -2.418,1.3 -2.418,3.055 0,1.729 0.65,3.055 2.223,3.055 0.663,0 1.274,-0.299 1.794,-0.715 v 0.585 z m -1.014,-1.131 c -0.39,0.39 -0.871,0.715 -1.43,0.715 -1.183,0 -1.443,-1.144 -1.443,-2.509 0,-1.222 0.377,-2.509 1.443,-2.509 0.494,0 0.988,0.13 1.43,0.351 z"
           style="font-size:13px;line-height:1.25"
           id="path148" />
        <path
           d="m 492.89761,214.5404 v -3.042 h -0.598 v 3.042 z"
           style="font-size:13px;line-height:1.25"
           id="path150" />
        <path
           d="m 499.0726,220.5984 v -5.85 h -1.014 v 4.589 c -0.442,0.442 -0.988,0.793 -1.599,0.793 -0.611,0 -1.079,-0.533 -1.079,-1.157 v -4.225 h -1.014 v 4.225 c 0,0.949 0.728,1.755 1.664,1.755 0.78,0 1.469,-0.442 2.028,-0.988 v 0.858 z"
           style="font-size:13px;line-height:1.25"
           id="path152" />
        <path
           d="m 505.85858,220.5984 v -4.225 c 0,-0.949 -0.728,-1.755 -1.664,-1.755 -0.78,0 -1.469,0.442 -2.028,0.988 v -0.858 h -1.014 v 5.85 h 1.014 v -4.589 c 0.442,-0.442 0.988,-0.793 1.599,-0.793 0.611,0 1.079,0.533 1.079,1.157 v 4.225 z"
           style="font-size:13px;line-height:1.25"
           id="path154" />
        <path
           d="m 519.30054,220.5984 v -4.225 c 0,-0.91 -0.533,-1.755 -1.378,-1.755 -0.728,0 -1.404,0.377 -1.794,0.988 -0.208,-0.572 -0.65,-0.988 -1.248,-0.988 -0.676,0 -1.222,0.468 -1.664,0.988 v -0.858 h -1.014 v 5.85 h 1.014 v -4.602 c 0.312,-0.403 0.702,-0.78 1.209,-0.78 0.533,0 0.819,0.572 0.819,1.157 v 4.225 h 1.014 v -4.225 c 0,-0.156 -0.013,-0.299 -0.039,-0.455 0.312,-0.403 0.741,-0.702 1.248,-0.702 0.533,0 0.819,0.572 0.819,1.157 v 4.225 z"
           style="font-size:13px;line-height:1.25"
           id="path156" />
        <path
           d="m 525.95651,220.5984 v -5.85 h -1.014 v 4.589 c -0.442,0.442 -0.988,0.793 -1.599,0.793 -0.611,0 -1.079,-0.533 -1.079,-1.157 v -4.225 h -1.014 v 4.225 c 0,0.949 0.728,1.755 1.664,1.755 0.78,0 1.469,-0.442 2.028,-0.988 v 0.858 z"
           style="font-size:13px;line-height:1.25"
           id="path158" />
        <path
           d="m 531.27349,215.5544 v -0.806 c -0.143,-0.052 -0.299,-0.091 -0.442,-0.091 -0.728,0 -1.313,0.507 -1.781,1.066 v -0.975 h -1.014 v 5.85 h 1.014 v -4.329 c 0.39,-0.455 0.884,-0.845 1.482,-0.845 0.247,0 0.507,0.052 0.741,0.13 z"
           style="font-size:13px;line-height:1.25"
           id="path160" />
      </g>
      <g
         aria-label="MGA
MDA"
         id="text2631"
         style="line-height:0%;font-family:Iwona;-inkscape-font-specification:Iwona;text-align:center;text-anchor:middle;stroke-width:1px">
        <path
           d="m 488.46461,245.1125 -0.52,-9.1 h -0.858 l -3.653,7.683 -3.666,-7.683 h -0.858 l -0.52,9.1 h 0.598 l 0.416,-7.371 3.523,7.371 h 0.481 l 3.562,-7.462 0.429,7.462 z"
           style="font-size:13px;line-height:1.25"
           id="path163" />
        <path
           d="m 497.66859,245.1125 v -3.822 h -1.066 v 2.509 c -0.676,0.546 -1.508,0.845 -2.379,0.845 -2.067,0 -2.925,-1.781 -2.925,-4.082 0,-2.301 0.858,-4.082 2.925,-4.082 1.222,0 2.379,0.481 3.237,1.352 v -0.598 c -0.858,-0.871 -2.015,-1.352 -3.237,-1.352 -2.678,0 -4.199,1.898 -4.199,4.68 0,2.782 1.521,4.68 4.199,4.68 0.871,0 1.703,-0.299 2.379,-0.845 v 0.715 z"
           style="font-size:13px;line-height:1.25"
           id="path165" />
        <path
           d="m 506.63858,245.1125 -3.302,-9.1 h -1.131 l -3.367,9.1 h 0.637 l 1.183,-3.185 h 3.692 l 1.157,3.185 z m -2.509,-3.783 h -3.25 l 1.638,-4.446 z"
           style="font-size:13px;line-height:1.25"
           id="path167" />
        <path
           d="m 488.49061,261.3625 -0.52,-9.1 h -0.858 l -3.653,7.683 -3.666,-7.683 h -0.858 l -0.52,9.1 h 0.598 l 0.416,-7.371 3.523,7.371 h 0.481 l 3.562,-7.462 0.429,7.462 z"
           style="font-size:13px;line-height:1.25"
           id="path169" />
        <path
           d="m 498.21459,256.8125 c 0,-2.782 -1.521,-4.68 -4.199,-4.68 -0.806,0 -1.612,0.039 -2.405,0.13 h -1.04 v 9.1 h 1.04 c 0.793,0.091 1.599,0.13 2.405,0.13 2.678,0 4.199,-1.898 4.199,-4.68 z m -1.274,0 c 0,2.067 -1.053,4.082 -2.925,4.082 -0.793,0 -1.586,-0.039 -2.379,-0.13 v -7.904 c 0.793,-0.091 1.586,-0.13 2.379,-0.13 1.872,0 2.925,2.015 2.925,4.082 z"
           style="font-size:13px;line-height:1.25"
           id="path171" />
        <path
           d="m 506.61258,261.3625 -3.302,-9.1 h -1.131 l -3.367,9.1 h 0.637 l 1.183,-3.185 h 3.692 l 1.157,3.185 z m -2.509,-3.783 h -3.25 l 1.638,-4.446 z"
           style="font-size:13px;line-height:1.25"
           id="path173" />
      </g>
    </g>
    <g
       transform="translate(200.19686,6.4623075)"
       id="g2637">
      <path
         id="path2639"
         style="fill:#ffeeaa;stroke:#000000;stroke-width:1.06299"
         transform="translate(-118.70078,142.35661)"
         d="m 683.85825,95.669266 a 72.637794,35.433075 0 0 1 -72.63779,35.433074 72.637794,35.433075 0 0 1 -72.6378,-35.433074 72.637794,35.433075 0 0 1 72.6378,-35.433075 72.637794,35.433075 0 0 1 72.63779,35.433075 z" />
      <path
         id="path2641"
         d="M 423.42519,227.39596 H 561.61417"
         style="fill:none;stroke:#000000;stroke-width:1px;stroke-linecap:butt;stroke-linejoin:miter;stroke-opacity:1" />
      <g
         aria-label="Recherche d'un mur"
         transform="scale(0.9541662,1.0480354)"
         id="text2643"
         style="line-height:0%;font-family:Iwona;-inkscape-font-specification:Iwona;text-align:center;text-anchor:middle">
        <path
           d="m 471.58212,212.39587 -2.769,-4.121 c 1.417,-0.273 2.392,-1.053 2.392,-2.509 0,-1.833 -1.573,-2.6 -3.614,-2.6 -0.728,0 -1.456,0.039 -2.171,0.13 h -1.04 v 9.1 h 1.066 v -4.225 c 0.702,0.13 1.43,0.208 2.145,0.208 l 2.717,4.017 z m -1.651,-6.63 c 0,1.183 -1.105,2.015 -2.34,2.015 -0.715,0 -1.443,-0.078 -2.145,-0.208 v -3.679 c 0.715,-0.091 1.43,-0.13 2.145,-0.13 1.235,0 2.34,0.832 2.34,2.002 z"
           style="font-size:13px;line-height:1.25"
           id="path177" />
        <path
           d="m 477.45811,209.60087 v -0.13 c 0,-1.833 -1.001,-3.055 -2.509,-3.055 -1.521,0 -2.522,1.222 -2.522,3.055 0,1.833 1.001,3.055 2.522,3.055 0.65,0 1.287,-0.208 1.82,-0.585 v -0.546 c -0.611,0.39 -1.105,0.533 -1.82,0.533 -1.105,0 -1.378,-1.053 -1.378,-2.327 z m -1.144,-0.546 h -2.743 c 0,-1.04 0.442,-2.093 1.378,-2.093 0.923,0 1.365,1.053 1.365,2.093 z"
           style="font-size:13px;line-height:1.25"
           id="path179" />
        <path
           d="m 483.36009,207.89787 v -0.546 c -0.416,-0.585 -1.092,-0.936 -1.82,-0.936 -1.625,0 -2.717,1.222 -2.717,3.055 0,1.833 1.092,3.055 2.717,3.055 0.676,0 1.313,-0.338 1.69,-0.897 v -0.546 c -0.442,0.663 -0.897,0.897 -1.69,0.897 -0.936,0 -1.573,-1.001 -1.573,-2.509 0,-1.508 0.637,-2.509 1.573,-2.509 0.806,0 1.352,0.286 1.82,0.936 z"
           style="font-size:13px;line-height:1.25"
           id="path181" />
        <path
           d="m 489.43108,212.39587 v -4.225 c 0,-0.949 -0.728,-1.755 -1.664,-1.755 -0.78,0 -1.469,0.442 -2.028,0.988 v -4.108 h -1.014 v 9.1 h 1.014 v -4.589 c 0.442,-0.442 0.988,-0.793 1.599,-0.793 0.611,0 1.079,0.533 1.079,1.157 v 4.225 z"
           style="font-size:13px;line-height:1.25"
           id="path183" />
        <path
           d="m 496.15206,209.60087 v -0.13 c 0,-1.833 -1.001,-3.055 -2.509,-3.055 -1.521,0 -2.522,1.222 -2.522,3.055 0,1.833 1.001,3.055 2.522,3.055 0.65,0 1.287,-0.208 1.82,-0.585 v -0.546 c -0.611,0.39 -1.105,0.533 -1.82,0.533 -1.105,0 -1.378,-1.053 -1.378,-2.327 z m -1.144,-0.546 h -2.743 c 0,-1.04 0.442,-2.093 1.378,-2.093 0.923,0 1.365,1.053 1.365,2.093 z"
           style="font-size:13px;line-height:1.25"
           id="path185" />
        <path
           d="m 501.07904,207.35187 v -0.806 c -0.143,-0.052 -0.299,-0.091 -0.442,-0.091 -0.728,0 -1.313,0.507 -1.781,1.066 v -0.975 h -1.014 v 5.85 h 1.014 v -4.329 c 0.39,-0.455 0.884,-0.845 1.482,-0.845 0.247,0 0.507,0.052 0.741,0.13 z"
           style="font-size:13px;line-height:1.25"
           id="path187" />
        <path
           d="m 506.59103,207.89787 v -0.546 c -0.416,-0.585 -1.092,-0.936 -1.82,-0.936 -1.625,0 -2.717,1.222 -2.717,3.055 0,1.833 1.092,3.055 2.717,3.055 0.676,0 1.313,-0.338 1.69,-0.897 v -0.546 c -0.442,0.663 -0.897,0.897 -1.69,0.897 -0.936,0 -1.573,-1.001 -1.573,-2.509 0,-1.508 0.637,-2.509 1.573,-2.509 0.806,0 1.352,0.286 1.82,0.936 z"
           style="font-size:13px;line-height:1.25"
           id="path189" />
        <path
           d="m 512.66201,212.39587 v -4.225 c 0,-0.949 -0.728,-1.755 -1.664,-1.755 -0.78,0 -1.469,0.442 -2.028,0.988 v -4.108 h -1.014 v 9.1 h 1.014 v -4.589 c 0.442,-0.442 0.988,-0.793 1.599,-0.793 0.611,0 1.079,0.533 1.079,1.157 v 4.225 z"
           style="font-size:13px;line-height:1.25"
           id="path191" />
        <path
           d="m 519.38299,209.60087 v -0.13 c 0,-1.833 -1.001,-3.055 -2.509,-3.055 -1.521,0 -2.522,1.222 -2.522,3.055 0,1.833 1.001,3.055 2.522,3.055 0.65,0 1.287,-0.208 1.82,-0.585 v -0.546 c -0.611,0.39 -1.105,0.533 -1.82,0.533 -1.105,0 -1.378,-1.053 -1.378,-2.327 z m -1.144,-0.546 h -2.743 c 0,-1.04 0.442,-2.093 1.378,-2.093 0.923,0 1.365,1.053 1.365,2.093 z"
           style="font-size:13px;line-height:1.25"
           id="path193" />
        <path
           d="m 530.10795,212.39587 v -9.1 h -1.014 v 3.471 c -0.507,-0.221 -1.053,-0.351 -1.599,-0.351 -1.625,0 -2.418,1.3 -2.418,3.055 0,1.729 0.65,3.055 2.223,3.055 0.663,0 1.274,-0.299 1.794,-0.715 v 0.585 z m -1.014,-1.131 c -0.39,0.39 -0.871,0.715 -1.43,0.715 -1.183,0 -1.443,-1.144 -1.443,-2.509 0,-1.222 0.377,-2.509 1.443,-2.509 0.494,0 0.988,0.13 1.43,0.351 z"
           style="font-size:13px;line-height:1.25"
           id="path195" />
        <path
           d="m 532.23994,206.33787 v -3.042 h -0.598 v 3.042 z"
           style="font-size:13px;line-height:1.25"
           id="path197" />
        <path
           d="m 538.41494,212.39587 v -5.85 h -1.014 v 4.589 c -0.442,0.442 -0.988,0.793 -1.599,0.793 -0.611,0 -1.079,-0.533 -1.079,-1.157 v -4.225 h -1.014 v 4.225 c 0,0.949 0.728,1.755 1.664,1.755 0.78,0 1.469,-0.442 2.028,-0.988 v 0.858 z"
           style="font-size:13px;line-height:1.25"
           id="path199" />
        <path
           d="m 545.20092,212.39587 v -4.225 c 0,-0.949 -0.728,-1.755 -1.664,-1.755 -0.78,0 -1.469,0.442 -2.028,0.988 v -0.858 h -1.014 v 5.85 h 1.014 v -4.589 c 0.442,-0.442 0.988,-0.793 1.599,-0.793 0.611,0 1.079,0.533 1.079,1.157 v 4.225 z"
           style="font-size:13px;line-height:1.25"
           id="path201" />
        <path
           d="m 558.64287,212.39587 v -4.225 c 0,-0.91 -0.533,-1.755 -1.378,-1.755 -0.728,0 -1.404,0.377 -1.794,0.988 -0.208,-0.572 -0.65,-0.988 -1.248,-0.988 -0.676,0 -1.222,0.468 -1.664,0.988 v -0.858 h -1.014 v 5.85 h 1.014 v -4.602 c 0.312,-0.403 0.702,-0.78 1.209,-0.78 0.533,0 0.819,0.572 0.819,1.157 v 4.225 h 1.014 v -4.225 c 0,-0.156 -0.013,-0.299 -0.039,-0.455 0.312,-0.403 0.741,-0.702 1.248,-0.702 0.533,0 0.819,0.572 0.819,1.157 v 4.225 z"
           style="font-size:13px;line-height:1.25"
           id="path203" />
        <path
           d="m 565.29885,212.39587 v -5.85 h -1.014 v 4.589 c -0.442,0.442 -0.988,0.793 -1.599,0.793 -0.611,0 -1.079,-0.533 -1.079,-1.157 v -4.225 h -1.014 v 4.225 c 0,0.949 0.728,1.755 1.664,1.755 0.78,0 1.469,-0.442 2.028,-0.988 v 0.858 z"
           style="font-size:13px;line-height:1.25"
           id="path205" />
        <path
           d="m 570.61583,207.35187 v -0.806 c -0.143,-0.052 -0.299,-0.091 -0.442,-0.091 -0.728,0 -1.313,0.507 -1.781,1.066 v -0.975 h -1.014 v 5.85 h 1.014 v -4.329 c 0.39,-0.455 0.884,-0.845 1.482,-0.845 0.247,0 0.507,0.052 0.741,0.13 z"
           style="font-size:13px;line-height:1.25"
           id="path207" />
      </g>
      <g
         aria-label="MGA
MDA"
         id="text2647"
         style="line-height:0%;font-family:Iwona;-inkscape-font-specification:Iwona;text-align:center;text-anchor:middle">
        <path
           d="m 488.46461,245.11249 -0.52,-9.1 h -0.858 l -3.653,7.683 -3.666,-7.683 h -0.858 l -0.52,9.1 h 0.598 l 0.416,-7.371 3.523,7.371 h 0.481 l 3.562,-7.462 0.429,7.462 z"
           style="font-size:13px;line-height:1.25"
           id="path210" />
        <path
           d="m 497.66859,245.11249 v -3.822 h -1.066 v 2.509 c -0.676,0.546 -1.508,0.845 -2.379,0.845 -2.067,0 -2.925,-1.781 -2.925,-4.082 0,-2.301 0.858,-4.082 2.925,-4.082 1.222,0 2.379,0.481 3.237,1.352 v -0.598 c -0.858,-0.871 -2.015,-1.352 -3.237,-1.352 -2.678,0 -4.199,1.898 -4.199,4.68 0,2.782 1.521,4.68 4.199,4.68 0.871,0 1.703,-0.299 2.379,-0.845 v 0.715 z"
           style="font-size:13px;line-height:1.25"
           id="path212" />
        <path
           d="m 506.63858,245.11249 -3.302,-9.1 h -1.131 l -3.367,9.1 h 0.637 l 1.183,-3.185 h 3.692 l 1.157,3.185 z m -2.509,-3.783 h -3.25 l 1.638,-4.446 z"
           style="font-size:13px;line-height:1.25"
           id="path214" />
        <path
           d="m 488.49061,261.36249 -0.52,-9.1 h -0.858 l -3.653,7.683 -3.666,-7.683 h -0.858 l -0.52,9.1 h 0.598 l 0.416,-7.371 3.523,7.371 h 0.481 l 3.562,-7.462 0.429,7.462 z"
           style="font-size:13px;line-height:1.25"
           id="path216" />
        <path
           d="m 498.21459,256.81249 c 0,-2.782 -1.521,-4.68 -4.199,-4.68 -0.806,0 -1.612,0.039 -2.405,0.13 h -1.04 v 9.1 h 1.04 c 0.793,0.091 1.599,0.13 2.405,0.13 2.678,0 4.199,-1.898 4.199,-4.68 z m -1.274,0 c 0,2.067 -1.053,4.082 -2.925,4.082 -0.793,0 -1.586,-0.039 -2.379,-0.13 v -7.904 c 0.793,-0.091 1.586,-0.13 2.379,-0.13 1.872,0 2.925,2.015 2.925,4.082 z"
           style="font-size:13px;line-height:1.25"
           id="path218" />
        <path
           d="m 506.61258,261.36249 -3.302,-9.1 h -1.131 l -3.367,9.1 h 0.637 l 1.183,-3.185 h 3.692 l 1.157,3.185 z m -2.509,-3.783 h -3.25 l 1.638,-4.446 z"
           style="font-size:13px;line-height:1.25"
           id="path220" />
      </g>
    </g>
    <g
       id="g2653"
       transform="translate(7.480321,399.48033)">
      <path
         id="path2655"
         style="fill:#ffeeaa;stroke:#000000;stroke-width:1.06299"
         transform="translate(-118.70078,142.35661)"
         d="m 683.85825,95.669266 a 72.637794,35.433075 0 0 1 -72.63779,35.433074 72.637794,35.433075 0 0 1 -72.6378,-35.433074 72.637794,35.433075 0 0 1 72.6378,-35.433075 72.637794,35.433075 0 0 1 72.63779,35.433075 z" />
      <path
         style="fill:none;stroke:#000000;stroke-width:1px;stroke-linecap:butt;stroke-linejoin:miter;stroke-opacity:1"
         d="M 423.42519,227.39596 H 561.61417"
         id="path2657" />
      <g
         aria-label="Rotation à droite"
         id="text2659"
         style="line-height:0%;font-family:Iwona;-inkscape-font-specification:Iwona;text-align:center;text-anchor:middle">
        <path
           d="m 453.4882,220.5984 -2.769,-4.121 c 1.417,-0.273 2.392,-1.053 2.392,-2.509 0,-1.833 -1.573,-2.6 -3.614,-2.6 -0.728,0 -1.456,0.039 -2.171,0.13 h -1.04 v 9.1 h 1.066 v -4.225 c 0.702,0.13 1.43,0.208 2.145,0.208 l 2.717,4.017 z m -1.651,-6.63 c 0,1.183 -1.105,2.015 -2.34,2.015 -0.715,0 -1.443,-0.078 -2.145,-0.208 v -3.679 c 0.715,-0.091 1.43,-0.13 2.145,-0.13 1.235,0 2.34,0.832 2.34,2.002 z"
           style="font-size:13px;line-height:1.25"
           id="path224" />
        <path
           d="m 459.36419,217.6734 c 0,-1.989 -0.884,-3.055 -2.509,-3.055 -1.638,0 -2.522,1.066 -2.522,3.055 0,1.989 0.884,3.055 2.522,3.055 1.625,0 2.509,-1.066 2.509,-3.055 z m -1.144,0 c 0,1.625 -0.481,2.509 -1.365,2.509 -0.897,0 -1.378,-0.884 -1.378,-2.509 0,-1.625 0.481,-2.509 1.378,-2.509 0.884,0 1.365,0.884 1.365,2.509 z"
           style="font-size:13px;line-height:1.25"
           id="path226" />
        <path
           d="m 463.87519,220.1434 v -0.39 c -0.208,0.208 -0.455,0.377 -0.754,0.377 -0.468,0 -0.494,-0.611 -0.494,-1.157 v -3.679 h 1.248 v -0.546 h -1.248 v -1.95 h -0.611 c 0,1.04 -0.598,2.015 -1.547,2.015 v 0.481 h 1.144 v 3.679 c 0,0.858 0.273,1.755 1.014,1.755 0.481,0 0.897,-0.26 1.248,-0.585 z"
           style="font-size:13px;line-height:1.25"
           id="path228" />
        <path
           d="m 469.88117,220.5984 v -3.64 c 0,-1.222 -0.754,-2.34 -1.885,-2.34 -0.832,0 -1.612,0.286 -2.314,0.728 v 0.403 c 0.585,-0.325 1.235,-0.533 1.911,-0.533 0.806,0 1.274,0.858 1.274,1.742 v 0.234 c -0.507,-0.221 -1.053,-0.351 -1.599,-0.351 -1.391,0 -2.418,0.637 -2.418,1.95 0,1.248 0.91,1.937 2.223,1.937 0.663,0 1.274,-0.299 1.794,-0.715 v 0.585 z m -1.014,-1.131 c -0.39,0.39 -0.871,0.715 -1.43,0.715 -0.871,0 -1.443,-0.533 -1.443,-1.391 0,-0.793 0.65,-1.404 1.443,-1.404 0.494,0 0.988,0.13 1.43,0.351 z"
           style="font-size:13px;line-height:1.25"
           id="path230" />
        <path
           d="m 474.71716,220.1434 v -0.39 c -0.208,0.208 -0.455,0.377 -0.754,0.377 -0.468,0 -0.494,-0.611 -0.494,-1.157 v -3.679 h 1.248 v -0.546 h -1.248 v -1.95 h -0.611 c 0,1.04 -0.598,2.015 -1.547,2.015 v 0.481 h 1.144 v 3.679 c 0,0.858 0.273,1.755 1.014,1.755 0.481,0 0.897,-0.26 1.248,-0.585 z"
           style="font-size:13px;line-height:1.25"
           id="path232" />
        <path
           d="m 478.52614,220.1434 v -0.39 c -0.247,0.208 -0.533,0.377 -0.858,0.377 -0.481,0 -0.572,-0.598 -0.572,-1.157 v -4.225 h -1.014 v 4.225 c 0,0.871 0.338,1.755 1.105,1.755 0.494,0 0.962,-0.247 1.339,-0.585 z m -1.3,-7.423 c 0,-0.351 -0.286,-0.637 -0.637,-0.637 -0.351,0 -0.637,0.286 -0.637,0.637 0,0.351 0.286,0.637 0.637,0.637 0.351,0 0.637,-0.286 0.637,-0.637 z"
           style="font-size:13px;line-height:1.25"
           id="path234" />
        <path
           d="m 484.53213,217.6734 c 0,-1.989 -0.884,-3.055 -2.509,-3.055 -1.638,0 -2.522,1.066 -2.522,3.055 0,1.989 0.884,3.055 2.522,3.055 1.625,0 2.509,-1.066 2.509,-3.055 z m -1.144,0 c 0,1.625 -0.481,2.509 -1.365,2.509 -0.897,0 -1.378,-0.884 -1.378,-2.509 0,-1.625 0.481,-2.509 1.378,-2.509 0.884,0 1.365,0.884 1.365,2.509 z"
           style="font-size:13px;line-height:1.25"
           id="path236" />
        <path
           d="m 490.99313,220.5984 v -4.225 c 0,-0.949 -0.728,-1.755 -1.664,-1.755 -0.78,0 -1.469,0.442 -2.028,0.988 v -0.858 h -1.014 v 5.85 h 1.014 v -4.589 c 0.442,-0.442 0.988,-0.793 1.599,-0.793 0.611,0 1.079,0.533 1.079,1.157 v 4.225 z"
           style="font-size:13px;line-height:1.25"
           id="path238" />
        <path
           d="m 501.91308,220.5984 v -3.64 c 0,-1.222 -0.754,-2.34 -1.885,-2.34 -0.832,0 -1.612,0.286 -2.314,0.728 v 0.403 c 0.585,-0.325 1.235,-0.533 1.911,-0.533 0.806,0 1.274,0.858 1.274,1.742 v 0.234 c -0.507,-0.221 -1.053,-0.351 -1.599,-0.351 -1.391,0 -2.418,0.637 -2.418,1.95 0,1.248 0.91,1.937 2.223,1.937 0.663,0 1.274,-0.299 1.794,-0.715 v 0.585 z m -1.014,-1.131 c -0.39,0.39 -0.871,0.715 -1.43,0.715 -0.871,0 -1.443,-0.533 -1.443,-1.391 0,-0.793 0.65,-1.404 1.443,-1.404 0.494,0 0.988,0.13 1.43,0.351 z m -0.728,-5.538 c -0.507,-0.702 -0.78,-1.56 -0.78,-2.431 h -1.17 c 0,0.975 0.715,1.742 1.404,2.431 z"
           style="font-size:13px;line-height:1.25"
           id="path240" />
        <path
           d="m 513.02805,220.5984 v -9.1 h -1.014 v 3.471 c -0.507,-0.221 -1.053,-0.351 -1.599,-0.351 -1.625,0 -2.418,1.3 -2.418,3.055 0,1.729 0.65,3.055 2.223,3.055 0.663,0 1.274,-0.299 1.794,-0.715 v 0.585 z m -1.014,-1.131 c -0.39,0.39 -0.871,0.715 -1.43,0.715 -1.183,0 -1.443,-1.144 -1.443,-2.509 0,-1.222 0.377,-2.509 1.443,-2.509 0.494,0 0.988,0.13 1.43,0.351 z"
           style="font-size:13px;line-height:1.25"
           id="path242" />
        <path
           d="m 518.34504,215.5544 v -0.806 c -0.143,-0.052 -0.299,-0.091 -0.442,-0.091 -0.728,0 -1.313,0.507 -1.781,1.066 v -0.975 h -1.014 v 5.85 h 1.014 v -4.329 c 0.39,-0.455 0.884,-0.845 1.482,-0.845 0.247,0 0.507,0.052 0.741,0.13 z"
           style="font-size:13px;line-height:1.25"
           id="path244" />
        <path
           d="m 524.35102,217.6734 c 0,-1.989 -0.884,-3.055 -2.509,-3.055 -1.638,0 -2.522,1.066 -2.522,3.055 0,1.989 0.884,3.055 2.522,3.055 1.625,0 2.509,-1.066 2.509,-3.055 z m -1.144,0 c 0,1.625 -0.481,2.509 -1.365,2.509 -0.897,0 -1.378,-0.884 -1.378,-2.509 0,-1.625 0.481,-2.509 1.378,-2.509 0.884,0 1.365,0.884 1.365,2.509 z"
           style="font-size:13px;line-height:1.25"
           id="path246" />
        <path
           d="m 528.48502,220.1434 v -0.39 c -0.247,0.208 -0.533,0.377 -0.858,0.377 -0.481,0 -0.572,-0.598 -0.572,-1.157 v -4.225 h -1.014 v 4.225 c 0,0.871 0.338,1.755 1.105,1.755 0.494,0 0.962,-0.247 1.339,-0.585 z m -1.3,-7.423 c 0,-0.351 -0.286,-0.637 -0.637,-0.637 -0.351,0 -0.637,0.286 -0.637,0.637 0,0.351 0.286,0.637 0.637,0.637 0.351,0 0.637,-0.286 0.637,-0.637 z"
           style="font-size:13px;line-height:1.25"
           id="path248" />
        <path
           d="m 532.54101,220.1434 v -0.39 c -0.208,0.208 -0.455,0.377 -0.754,0.377 -0.468,0 -0.494,-0.611 -0.494,-1.157 v -3.679 h 1.248 v -0.546 h -1.248 v -1.95 h -0.611 c 0,1.04 -0.598,2.015 -1.547,2.015 v 0.481 h 1.144 v 3.679 c 0,0.858 0.273,1.755 1.014,1.755 0.481,0 0.897,-0.26 1.248,-0.585 z"
           style="font-size:13px;line-height:1.25"
           id="path250" />
        <path
           d="m 538.67699,217.8034 v -0.13 c 0,-1.833 -1.001,-3.055 -2.509,-3.055 -1.521,0 -2.522,1.222 -2.522,3.055 0,1.833 1.001,3.055 2.522,3.055 0.65,0 1.287,-0.208 1.82,-0.585 v -0.546 c -0.611,0.39 -1.105,0.533 -1.82,0.533 -1.105,0 -1.378,-1.053 -1.378,-2.327 z m -1.144,-0.546 h -2.743 c 0,-1.04 0.442,-2.093 1.378,-2.093 0.923,0 1.365,1.053 1.365,2.093 z"
           style="font-size:13px;line-height:1.25"
           id="path252" />
      </g>
      <g
         aria-label="MGA
MDR"
         id="text2663"
         style="line-height:0%;font-family:Iwona;-inkscape-font-specification:Iwona;text-align:center;text-anchor:middle">
        <path
           d="m 488.47212,245.40155 -0.52,-9.1 h -0.858 l -3.653,7.683 -3.666,-7.683 h -0.858 l -0.52,9.1 h 0.598 l 0.416,-7.371 3.523,7.371 h 0.481 l 3.562,-7.462 0.429,7.462 z"
           style="font-size:13px;line-height:1.25"
           id="path255" />
        <path
           d="m 497.6761,245.40155 v -3.822 h -1.066 v 2.509 c -0.676,0.546 -1.508,0.845 -2.379,0.845 -2.067,0 -2.925,-1.781 -2.925,-4.082 0,-2.301 0.858,-4.082 2.925,-4.082 1.222,0 2.379,0.481 3.237,1.352 v -0.598 c -0.858,-0.871 -2.015,-1.352 -3.237,-1.352 -2.678,0 -4.199,1.898 -4.199,4.68 0,2.782 1.521,4.68 4.199,4.68 0.871,0 1.703,-0.299 2.379,-0.845 v 0.715 z"
           style="font-size:13px;line-height:1.25"
           id="path257" />
        <path
           d="m 506.64608,245.40155 -3.302,-9.1 h -1.131 l -3.367,9.1 h 0.637 l 1.183,-3.185 h 3.692 l 1.157,3.185 z m -2.509,-3.783 h -3.25 l 1.638,-4.446 z"
           style="font-size:13px;line-height:1.25"
           id="path259" />
        <path
           d="m 488.12111,261.65155 -0.52,-9.1 h -0.858 l -3.653,7.683 -3.666,-7.683 h -0.858 l -0.52,9.1 h 0.598 l 0.416,-7.371 3.523,7.371 h 0.481 l 3.562,-7.462 0.429,7.462 z"
           style="font-size:13px;line-height:1.25"
           id="path261" />
        <path
           d="m 497.84509,257.10155 c 0,-2.782 -1.521,-4.68 -4.199,-4.68 -0.806,0 -1.612,0.039 -2.405,0.13 h -1.04 v 9.1 h 1.04 c 0.793,0.091 1.599,0.13 2.405,0.13 2.678,0 4.199,-1.898 4.199,-4.68 z m -1.274,0 c 0,2.067 -1.053,4.082 -2.925,4.082 -0.793,0 -1.586,-0.039 -2.379,-0.13 v -7.904 c 0.793,-0.091 1.586,-0.13 2.379,-0.13 1.872,0 2.925,2.015 2.925,4.082 z"
           style="font-size:13px;line-height:1.25"
           id="path263" />
        <path
           d="m 506.99708,261.65155 -2.769,-4.121 c 1.417,-0.273 2.392,-1.053 2.392,-2.509 0,-1.833 -1.573,-2.6 -3.614,-2.6 -0.728,0 -1.456,0.039 -2.171,0.13 h -1.04 v 9.1 h 1.066 v -4.225 c 0.702,0.13 1.43,0.208 2.145,0.208 l 2.717,4.017 z m -1.651,-6.63 c 0,1.183 -1.105,2.015 -2.34,2.015 -0.715,0 -1.443,-0.078 -2.145,-0.208 v -3.679 c 0.715,-0.091 1.43,-0.13 2.145,-0.13 1.235,0 2.34,0.832 2.34,2.002 z"
           style="font-size:13px;line-height:1.25"
           id="path265" />
      </g>
    </g>
    <g
       transform="translate(407.48032,399.76939)"
       id="g2669">
      <path
         id="path2671"
         style="fill:#ffeeaa;stroke:#000000;stroke-width:1.06299"
         transform="translate(-118.70078,142.35661)"
         d="m 683.85825,95.669266 a 72.637794,35.433075 0 0 1 -72.63779,35.433074 72.637794,35.433075 0 0 1 -72.6378,-35.433074 72.637794,35.433075 0 0 1 72.6378,-35.433075 72.637794,35.433075 0 0 1 72.63779,35.433075 z" />
      <path
         id="path2673"
         d="M 423.42519,227.39596 H 561.61417"
         style="fill:none;stroke:#000000;stroke-width:1px;stroke-linecap:butt;stroke-linejoin:miter;stroke-opacity:1" />
      <g
         aria-label="Rotation à gauche"
         id="text2675"
         style="line-height:0%;font-family:Iwona;-inkscape-font-specification:Iwona;text-align:center;text-anchor:middle">
        <path
           d="m 450.08221,220.5984 -2.769,-4.121 c 1.417,-0.273 2.392,-1.053 2.392,-2.509 0,-1.833 -1.573,-2.6 -3.614,-2.6 -0.728,0 -1.456,0.039 -2.171,0.13 h -1.04 v 9.1 h 1.066 v -4.225 c 0.702,0.13 1.43,0.208 2.145,0.208 l 2.717,4.017 z m -1.651,-6.63 c 0,1.183 -1.105,2.015 -2.34,2.015 -0.715,0 -1.443,-0.078 -2.145,-0.208 v -3.679 c 0.715,-0.091 1.43,-0.13 2.145,-0.13 1.235,0 2.34,0.832 2.34,2.002 z"
           style="font-size:13px;line-height:1.25"
           id="path269" />
        <path
           d="m 455.9582,217.6734 c 0,-1.989 -0.884,-3.055 -2.509,-3.055 -1.638,0 -2.522,1.066 -2.522,3.055 0,1.989 0.884,3.055 2.522,3.055 1.625,0 2.509,-1.066 2.509,-3.055 z m -1.144,0 c 0,1.625 -0.481,2.509 -1.365,2.509 -0.897,0 -1.378,-0.884 -1.378,-2.509 0,-1.625 0.481,-2.509 1.378,-2.509 0.884,0 1.365,0.884 1.365,2.509 z"
           style="font-size:13px;line-height:1.25"
           id="path271" />
        <path
           d="m 460.4692,220.1434 v -0.39 c -0.208,0.208 -0.455,0.377 -0.754,0.377 -0.468,0 -0.494,-0.611 -0.494,-1.157 v -3.679 h 1.248 v -0.546 h -1.248 v -1.95 h -0.611 c 0,1.04 -0.598,2.015 -1.547,2.015 v 0.481 h 1.144 v 3.679 c 0,0.858 0.273,1.755 1.014,1.755 0.481,0 0.897,-0.26 1.248,-0.585 z"
           style="font-size:13px;line-height:1.25"
           id="path273" />
        <path
           d="m 466.47518,220.5984 v -3.64 c 0,-1.222 -0.754,-2.34 -1.885,-2.34 -0.832,0 -1.612,0.286 -2.314,0.728 v 0.403 c 0.585,-0.325 1.235,-0.533 1.911,-0.533 0.806,0 1.274,0.858 1.274,1.742 v 0.234 c -0.507,-0.221 -1.053,-0.351 -1.599,-0.351 -1.391,0 -2.418,0.637 -2.418,1.95 0,1.248 0.91,1.937 2.223,1.937 0.663,0 1.274,-0.299 1.794,-0.715 v 0.585 z m -1.014,-1.131 c -0.39,0.39 -0.871,0.715 -1.43,0.715 -0.871,0 -1.443,-0.533 -1.443,-1.391 0,-0.793 0.65,-1.404 1.443,-1.404 0.494,0 0.988,0.13 1.43,0.351 z"
           style="font-size:13px;line-height:1.25"
           id="path275" />
        <path
           d="m 471.31117,220.1434 v -0.39 c -0.208,0.208 -0.455,0.377 -0.754,0.377 -0.468,0 -0.494,-0.611 -0.494,-1.157 v -3.679 h 1.248 v -0.546 h -1.248 v -1.95 h -0.611 c 0,1.04 -0.598,2.015 -1.547,2.015 v 0.481 h 1.144 v 3.679 c 0,0.858 0.273,1.755 1.014,1.755 0.481,0 0.897,-0.26 1.248,-0.585 z"
           style="font-size:13px;line-height:1.25"
           id="path277" />
        <path
           d="m 475.12015,220.1434 v -0.39 c -0.247,0.208 -0.533,0.377 -0.858,0.377 -0.481,0 -0.572,-0.598 -0.572,-1.157 v -4.225 h -1.014 v 4.225 c 0,0.871 0.338,1.755 1.105,1.755 0.494,0 0.962,-0.247 1.339,-0.585 z m -1.3,-7.423 c 0,-0.351 -0.286,-0.637 -0.637,-0.637 -0.351,0 -0.637,0.286 -0.637,0.637 0,0.351 0.286,0.637 0.637,0.637 0.351,0 0.637,-0.286 0.637,-0.637 z"
           style="font-size:13px;line-height:1.25"
           id="path279" />
        <path
           d="m 481.12614,217.6734 c 0,-1.989 -0.884,-3.055 -2.509,-3.055 -1.638,0 -2.522,1.066 -2.522,3.055 0,1.989 0.884,3.055 2.522,3.055 1.625,0 2.509,-1.066 2.509,-3.055 z m -1.144,0 c 0,1.625 -0.481,2.509 -1.365,2.509 -0.897,0 -1.378,-0.884 -1.378,-2.509 0,-1.625 0.481,-2.509 1.378,-2.509 0.884,0 1.365,0.884 1.365,2.509 z"
           style="font-size:13px;line-height:1.25"
           id="path281" />
        <path
           d="m 487.58714,220.5984 v -4.225 c 0,-0.949 -0.728,-1.755 -1.664,-1.755 -0.78,0 -1.469,0.442 -2.028,0.988 v -0.858 h -1.014 v 5.85 h 1.014 v -4.589 c 0.442,-0.442 0.988,-0.793 1.599,-0.793 0.611,0 1.079,0.533 1.079,1.157 v 4.225 z"
           style="font-size:13px;line-height:1.25"
           id="path283" />
        <path
           d="m 498.50709,220.5984 v -3.64 c 0,-1.222 -0.754,-2.34 -1.885,-2.34 -0.832,0 -1.612,0.286 -2.314,0.728 v 0.403 c 0.585,-0.325 1.235,-0.533 1.911,-0.533 0.806,0 1.274,0.858 1.274,1.742 v 0.234 c -0.507,-0.221 -1.053,-0.351 -1.599,-0.351 -1.391,0 -2.418,0.637 -2.418,1.95 0,1.248 0.91,1.937 2.223,1.937 0.663,0 1.274,-0.299 1.794,-0.715 v 0.585 z m -1.014,-1.131 c -0.39,0.39 -0.871,0.715 -1.43,0.715 -0.871,0 -1.443,-0.533 -1.443,-1.391 0,-0.793 0.65,-1.404 1.443,-1.404 0.494,0 0.988,0.13 1.43,0.351 z m -0.728,-5.538 c -0.507,-0.702 -0.78,-1.56 -0.78,-2.431 h -1.17 c 0,0.975 0.715,1.742 1.404,2.431 z"
           style="font-size:13px;line-height:1.25"
           id="path285" />
        <path
           d="m 509.62206,221.3784 v -6.63 h -1.014 v 0.221 c -0.507,-0.221 -1.053,-0.351 -1.599,-0.351 -1.625,0 -2.418,1.3 -2.418,3.055 0,1.729 0.65,3.055 2.223,3.055 0.663,0 1.274,-0.299 1.794,-0.715 v 1.365 c 0,0.897 -0.494,1.742 -1.3,1.742 -0.663,0 -1.326,-0.13 -1.95,-0.351 v 0.403 c 0.728,0.338 1.534,0.546 2.34,0.546 1.144,0 1.924,-1.118 1.924,-2.34 z m -1.014,-1.911 c -0.39,0.39 -0.871,0.715 -1.43,0.715 -1.183,0 -1.443,-1.144 -1.443,-2.509 0,-1.222 0.377,-2.509 1.443,-2.509 0.494,0 0.988,0.13 1.43,0.351 z"
           style="font-size:13px;line-height:1.25"
           id="path287" />
        <path
           d="m 516.27805,220.5984 v -3.64 c 0,-1.222 -0.754,-2.34 -1.885,-2.34 -0.832,0 -1.612,0.286 -2.314,0.728 v 0.403 c 0.585,-0.325 1.235,-0.533 1.911,-0.533 0.806,0 1.274,0.858 1.274,1.742 v 0.234 c -0.507,-0.221 -1.053,-0.351 -1.599,-0.351 -1.391,0 -2.418,0.637 -2.418,1.95 0,1.248 0.91,1.937 2.223,1.937 0.663,0 1.274,-0.299 1.794,-0.715 v 0.585 z m -1.014,-1.131 c -0.39,0.39 -0.871,0.715 -1.43,0.715 -0.871,0 -1.443,-0.533 -1.443,-1.391 0,-0.793 0.65,-1.404 1.443,-1.404 0.494,0 0.988,0.13 1.43,0.351 z"
           style="font-size:13px;line-height:1.25"
           id="path289" />
        <path
           d="m 522.99904,220.5984 v -5.85 h -1.014 v 4.589 c -0.442,0.442 -0.988,0.793 -1.599,0.793 -0.611,0 -1.079,-0.533 -1.079,-1.157 v -4.225 h -1.014 v 4.225 c 0,0.949 0.728,1.755 1.664,1.755 0.78,0 1.469,-0.442 2.028,-0.988 v 0.858 z"
           style="font-size:13px;line-height:1.25"
           id="path291" />
        <path
           d="m 529.29102,216.1004 v -0.546 c -0.416,-0.585 -1.092,-0.936 -1.82,-0.936 -1.625,0 -2.717,1.222 -2.717,3.055 0,1.833 1.092,3.055 2.717,3.055 0.676,0 1.313,-0.338 1.69,-0.897 v -0.546 c -0.442,0.663 -0.897,0.897 -1.69,0.897 -0.936,0 -1.573,-1.001 -1.573,-2.509 0,-1.508 0.637,-2.509 1.573,-2.509 0.806,0 1.352,0.286 1.82,0.936 z"
           style="font-size:13px;line-height:1.25"
           id="path293" />
        <path
           d="m 535.362,220.5984 v -4.225 c 0,-0.949 -0.728,-1.755 -1.664,-1.755 -0.78,0 -1.469,0.442 -2.028,0.988 v -4.108 h -1.014 v 9.1 h 1.014 v -4.589 c 0.442,-0.442 0.988,-0.793 1.599,-0.793 0.611,0 1.079,0.533 1.079,1.157 v 4.225 z"
           style="font-size:13px;line-height:1.25"
           id="path295" />
        <path
           d="m 542.08298,217.8034 v -0.13 c 0,-1.833 -1.001,-3.055 -2.509,-3.055 -1.521,0 -2.522,1.222 -2.522,3.055 0,1.833 1.001,3.055 2.522,3.055 0.65,0 1.287,-0.208 1.82,-0.585 v -0.546 c -0.611,0.39 -1.105,0.533 -1.82,0.533 -1.105,0 -1.378,-1.053 -1.378,-2.327 z m -1.144,-0.546 h -2.743 c 0,-1.04 0.442,-2.093 1.378,-2.093 0.923,0 1.365,1.053 1.365,2.093 z"
           style="font-size:13px;line-height:1.25"
           id="path297" />
      </g>
      <g
         aria-label="MGR
MDA"
         id="text2679"
         style="line-height:0%;font-family:Iwona;-inkscape-font-specification:Iwona;text-align:center;text-anchor:middle">
        <path
           d="m 488.25112,245.11249 -0.52,-9.1 h -0.858 l -3.653,7.683 -3.666,-7.683 h -0.858 l -0.52,9.1 h 0.598 l 0.416,-7.371 3.523,7.371 h 0.481 l 3.562,-7.462 0.429,7.462 z"
           style="font-size:13px;line-height:1.25"
           id="path300" />
        <path
           d="m 497.4551,245.11249 v -3.822 h -1.066 v 2.509 c -0.676,0.546 -1.508,0.845 -2.379,0.845 -2.067,0 -2.925,-1.781 -2.925,-4.082 0,-2.301 0.858,-4.082 2.925,-4.082 1.222,0 2.379,0.481 3.237,1.352 v -0.598 c -0.858,-0.871 -2.015,-1.352 -3.237,-1.352 -2.678,0 -4.199,1.898 -4.199,4.68 0,2.782 1.521,4.68 4.199,4.68 0.871,0 1.703,-0.299 2.379,-0.845 v 0.715 z"
           style="font-size:13px;line-height:1.25"
           id="path302" />
        <path
           d="m 506.86708,245.11249 -2.769,-4.121 c 1.417,-0.273 2.392,-1.053 2.392,-2.509 0,-1.833 -1.573,-2.6 -3.614,-2.6 -0.728,0 -1.456,0.039 -2.171,0.13 h -1.04 v 9.1 h 1.066 v -4.225 c 0.702,0.13 1.43,0.208 2.145,0.208 l 2.717,4.017 z m -1.651,-6.63 c 0,1.183 -1.105,2.015 -2.34,2.015 -0.715,0 -1.443,-0.078 -2.145,-0.208 v -3.679 c 0.715,-0.091 1.43,-0.13 2.145,-0.13 1.235,0 2.34,0.832 2.34,2.002 z"
           style="font-size:13px;line-height:1.25"
           id="path304" />
        <path
           d="m 488.49812,261.36249 -0.52,-9.1 h -0.858 l -3.653,7.683 -3.666,-7.683 h -0.858 l -0.52,9.1 h 0.598 l 0.416,-7.371 3.523,7.371 h 0.481 l 3.562,-7.462 0.429,7.462 z"
           style="font-size:13px;line-height:1.25"
           id="path306" />
        <path
           d="m 498.2221,256.81249 c 0,-2.782 -1.521,-4.68 -4.199,-4.68 -0.806,0 -1.612,0.039 -2.405,0.13 h -1.04 v 9.1 h 1.04 c 0.793,0.091 1.599,0.13 2.405,0.13 2.678,0 4.199,-1.898 4.199,-4.68 z m -1.274,0 c 0,2.067 -1.053,4.082 -2.925,4.082 -0.793,0 -1.586,-0.039 -2.379,-0.13 v -7.904 c 0.793,-0.091 1.586,-0.13 2.379,-0.13 1.872,0 2.925,2.015 2.925,4.082 z"
           style="font-size:13px;line-height:1.25"
           id="path308" />
        <path
           d="m 506.62009,261.36249 -3.302,-9.1 h -1.131 l -3.367,9.1 h 0.637 l 1.183,-3.185 h 3.692 l 1.157,3.185 z m -2.509,-3.783 h -3.25 l 1.638,-4.446 z"
           style="font-size:13px;line-height:1.25"
           id="path310" />
      </g>
    </g>
    <g
       id="g3456"
       transform="translate(-332.51058,680.8751)">
      <g
         aria-label="FR"
         id="text3458"
         style="line-height:0%;font-family:Iwona;-inkscape-font-specification:Iwona;text-align:center;text-anchor:middle">
        <path
           d="m 831.84519,37.560984 v -0.598 h -6.188 v 9.1 h 1.066 v -4.251 h 4.134 v -0.598 h -4.134 v -3.653 z"
           style="font-size:13px;line-height:1.25"
           id="path313" />
        <path
           d="m 840.86719,46.062984 -2.769,-4.121 c 1.417,-0.273 2.392,-1.053 2.392,-2.509 0,-1.833 -1.573,-2.6 -3.614,-2.6 -0.728,0 -1.456,0.039 -2.171,0.13 h -1.04 v 9.1 h 1.066 v -4.225 c 0.702,0.13 1.43,0.208 2.145,0.208 l 2.717,4.017 z m -1.651,-6.63 c 0,1.183 -1.105,2.015 -2.34,2.015 -0.715,0 -1.443,-0.078 -2.145,-0.208 v -3.679 c 0.715,-0.091 1.43,-0.13 2.145,-0.13 1.235,0 2.34,0.832 2.34,2.002 z"
           style="font-size:13px;line-height:1.25"
           id="path315" />
      </g>
      <path
         style="fill:none;fill-rule:evenodd;stroke:#000000;stroke-width:1px;stroke-linecap:butt;stroke-linejoin:miter;stroke-opacity:1"
         d="m 825.59055,35.433065 h 14.17323"
         id="path3462" />
    </g>
    <g
       id="g3484"
       transform="translate(-10.629918,74.409449)">
      <g
         transform="translate(-53.149629,60.236222)"
         id="g3464">
        <g
           aria-label="CA"
           id="text3466"
           style="line-height:0%;font-family:Iwona;-inkscape-font-specification:Iwona;text-align:center;text-anchor:middle">
          <path
             d="m 832.4172,39.146984 v -0.702 c -0.702,-1.014 -1.859,-1.612 -3.081,-1.612 -2.639,0 -4.069,1.924 -4.069,4.68 0,2.756 1.43,4.68 4.069,4.68 1.014,0 2.015,-0.299 2.873,-0.858 v -0.598 c -0.858,0.559 -1.859,0.858 -2.873,0.858 -2.041,0 -2.795,-1.807 -2.795,-4.082 0,-2.275 0.754,-4.082 2.795,-4.082 1.248,0 2.418,0.65 3.081,1.716 z"
             style="font-size:13px;line-height:1.25"
             id="path318" />
          <path
             d="m 840.73719,46.062984 -3.302,-9.1 h -1.131 l -3.367,9.1 h 0.637 l 1.183,-3.185 h 3.692 l 1.157,3.185 z m -2.509,-3.783 h -3.25 l 1.638,-4.446 z"
             style="font-size:13px;line-height:1.25"
             id="path320" />
        </g>
        <path
           id="path3470"
           d="m 825.59055,35.433065 h 14.17323"
           style="fill:none;fill-rule:evenodd;stroke:#000000;stroke-width:1px;stroke-linecap:butt;stroke-linejoin:miter;stroke-opacity:1" />
      </g>
      <g
         id="g3472"
         transform="translate(-24.803193,60.236222)">
        <g
           aria-label="CG"
           id="text3474"
           style="line-height:0%;font-family:Iwona;-inkscape-font-specification:Iwona;text-align:center;text-anchor:middle">
          <path
             d="m 831.7152,39.146984 v -0.702 c -0.702,-1.014 -1.859,-1.612 -3.081,-1.612 -2.639,0 -4.069,1.924 -4.069,4.68 0,2.756 1.43,4.68 4.069,4.68 1.014,0 2.015,-0.299 2.873,-0.858 v -0.598 c -0.858,0.559 -1.859,0.858 -2.873,0.858 -2.041,0 -2.795,-1.807 -2.795,-4.082 0,-2.275 0.754,-4.082 2.795,-4.082 1.248,0 2.418,0.65 3.081,1.716 z"
             style="font-size:13px;line-height:1.25"
             id="path323" />
          <path
             d="m 840.52919,46.062984 v -3.822 h -1.066 v 2.509 c -0.676,0.546 -1.508,0.845 -2.379,0.845 -2.067,0 -2.925,-1.781 -2.925,-4.082 0,-2.301 0.858,-4.082 2.925,-4.082 1.222,0 2.379,0.481 3.237,1.352 v -0.598 c -0.858,-0.871 -2.015,-1.352 -3.237,-1.352 -2.678,0 -4.199,1.898 -4.199,4.68 0,2.782 1.521,4.68 4.199,4.68 0.871,0 1.703,-0.299 2.379,-0.845 v 0.715 z"
             style="font-size:13px;line-height:1.25"
             id="path325" />
        </g>
        <path
           style="fill:none;fill-rule:evenodd;stroke:#000000;stroke-width:1px;stroke-linecap:butt;stroke-linejoin:miter;stroke-opacity:1"
           d="m 825.59055,35.433065 h 14.17323"
           id="path3478" />
      </g>
      <g
         aria-label="⋅"
         id="text3480"
         style="line-height:0%;font-family:Iwona;-inkscape-font-specification:Iwona;text-align:center;text-anchor:middle">
        <path
           d="m 793.0094,100.97987 h 1.33935 v 1.61231 h -1.33935 z"
           style="font-size:13px;line-height:1.25"
           id="path328" />
      </g>
    </g>
    <g
       transform="translate(-3.5433041,201.9685)"
       id="g3496">
      <g
         id="g3498"
         transform="translate(-53.149629,60.236222)">
        <g
           aria-label="CA"
           id="text3500"
           style="line-height:0%;font-family:Iwona;-inkscape-font-specification:Iwona;text-align:center;text-anchor:middle">
          <path
             d="m 832.4172,39.146984 v -0.702 c -0.702,-1.014 -1.859,-1.612 -3.081,-1.612 -2.639,0 -4.069,1.924 -4.069,4.68 0,2.756 1.43,4.68 4.069,4.68 1.014,0 2.015,-0.299 2.873,-0.858 v -0.598 c -0.858,0.559 -1.859,0.858 -2.873,0.858 -2.041,0 -2.795,-1.807 -2.795,-4.082 0,-2.275 0.754,-4.082 2.795,-4.082 1.248,0 2.418,0.65 3.081,1.716 z"
             style="font-size:13px;line-height:1.25"
             id="path331" />
          <path
             d="m 840.73719,46.062984 -3.302,-9.1 h -1.131 l -3.367,9.1 h 0.637 l 1.183,-3.185 h 3.692 l 1.157,3.185 z m -2.509,-3.783 h -3.25 l 1.638,-4.446 z"
             style="font-size:13px;line-height:1.25"
             id="path333" />
        </g>
        <path
           style="fill:none;fill-rule:evenodd;stroke:#000000;stroke-width:1px;stroke-linecap:butt;stroke-linejoin:miter;stroke-opacity:1"
           d="m 825.59055,35.433065 h 14.17323"
           id="path3504" />
      </g>
      <g
         aria-label="CG"
         id="text3508"
         style="line-height:0%;font-family:Iwona;-inkscape-font-specification:Iwona;text-align:center;text-anchor:middle">
        <path
           d="m 806.91197,99.38321 v -0.702 c -0.702,-1.014 -1.859,-1.612 -3.081,-1.612 -2.639,0 -4.069,1.924 -4.069,4.68 0,2.756 1.43,4.68 4.069,4.68 1.014,0 2.015,-0.299 2.873,-0.858 v -0.598 c -0.858,0.559 -1.859,0.858 -2.873,0.858 -2.041,0 -2.795,-1.807 -2.795,-4.082 0,-2.275 0.754,-4.082 2.795,-4.082 1.248,0 2.418,0.65 3.081,1.716 z"
           style="font-size:13px;line-height:1.25"
           id="path336" />
        <path
           d="m 815.72597,106.29921 v -3.822 h -1.066 v 2.509 c -0.676,0.546 -1.508,0.845 -2.379,0.845 -2.067,0 -2.925,-1.781 -2.925,-4.082 0,-2.301 0.858,-4.082 2.925,-4.082 1.222,0 2.379,0.481 3.237,1.352 v -0.598 c -0.858,-0.871 -2.015,-1.352 -3.237,-1.352 -2.678,0 -4.199,1.898 -4.199,4.68 0,2.782 1.521,4.68 4.199,4.68 0.871,0 1.703,-0.299 2.379,-0.845 v 0.715 z"
           style="font-size:13px;line-height:1.25"
           id="path338" />
      </g>
      <g
         aria-label="⋅"
         id="text3514"
         style="line-height:0%;font-family:Iwona;-inkscape-font-specification:Iwona;text-align:center;text-anchor:middle">
        <path
           d="m 793.0094,100.97987 h 1.33935 v 1.61231 h -1.33935 z"
           style="font-size:13px;line-height:1.25"
           id="path341" />
      </g>
    </g>
    <g
       id="g3521"
       transform="translate(-88.582624,297.63779)">
      <g
         transform="translate(-53.149629,60.236222)"
         id="g3523">
        <g
           aria-label="CA"
           id="text3525"
           style="line-height:0%;font-family:Iwona;-inkscape-font-specification:Iwona;text-align:center;text-anchor:middle">
          <path
             d="m 832.4172,39.146984 v -0.702 c -0.702,-1.014 -1.859,-1.612 -3.081,-1.612 -2.639,0 -4.069,1.924 -4.069,4.68 0,2.756 1.43,4.68 4.069,4.68 1.014,0 2.015,-0.299 2.873,-0.858 v -0.598 c -0.858,0.559 -1.859,0.858 -2.873,0.858 -2.041,0 -2.795,-1.807 -2.795,-4.082 0,-2.275 0.754,-4.082 2.795,-4.082 1.248,0 2.418,0.65 3.081,1.716 z"
             style="font-size:13px;line-height:1.25"
             id="path344" />
          <path
             d="m 840.73719,46.062984 -3.302,-9.1 h -1.131 l -3.367,9.1 h 0.637 l 1.183,-3.185 h 3.692 l 1.157,3.185 z m -2.509,-3.783 h -3.25 l 1.638,-4.446 z"
             style="font-size:13px;line-height:1.25"
             id="path346" />
        </g>
        <path
           id="path3529"
           d="m 825.59055,35.433065 h 14.17323"
           style="fill:none;fill-rule:evenodd;stroke:#000000;stroke-width:1px;stroke-linecap:butt;stroke-linejoin:miter;stroke-opacity:1" />
      </g>
      <g
         aria-label="CG"
         id="text3531"
         style="line-height:0%;font-family:Iwona;-inkscape-font-specification:Iwona;text-align:center;text-anchor:middle">
        <path
           d="m 806.91197,99.38321 v -0.702 c -0.702,-1.014 -1.859,-1.612 -3.081,-1.612 -2.639,0 -4.069,1.924 -4.069,4.68 0,2.756 1.43,4.68 4.069,4.68 1.014,0 2.015,-0.299 2.873,-0.858 v -0.598 c -0.858,0.559 -1.859,0.858 -2.873,0.858 -2.041,0 -2.795,-1.807 -2.795,-4.082 0,-2.275 0.754,-4.082 2.795,-4.082 1.248,0 2.418,0.65 3.081,1.716 z"
           style="font-size:13px;line-height:1.25"
           id="path349" />
        <path
           d="m 815.72597,106.29921 v -3.822 h -1.066 v 2.509 c -0.676,0.546 -1.508,0.845 -2.379,0.845 -2.067,0 -2.925,-1.781 -2.925,-4.082 0,-2.301 0.858,-4.082 2.925,-4.082 1.222,0 2.379,0.481 3.237,1.352 v -0.598 c -0.858,-0.871 -2.015,-1.352 -3.237,-1.352 -2.678,0 -4.199,1.898 -4.199,4.68 0,2.782 1.521,4.68 4.199,4.68 0.871,0 1.703,-0.299 2.379,-0.845 v 0.715 z"
           style="font-size:13px;line-height:1.25"
           id="path351" />
      </g>
      <g
         aria-label="⋅"
         id="text3535"
         style="line-height:0%;font-family:Iwona;-inkscape-font-specification:Iwona;text-align:center;text-anchor:middle">
        <path
           d="m 793.0094,100.97987 h 1.33935 v 1.61231 h -1.33935 z"
           style="font-size:13px;line-height:1.25"
           id="path354" />
      </g>
    </g>
    <g
       transform="translate(-131.10236,455.45207)"
       id="g3539">
      <g
         aria-label="CA"
         id="text3543"
         style="line-height:0%;font-family:Iwona;-inkscape-font-specification:Iwona;text-align:center;text-anchor:middle">
        <path
           d="m 779.26754,99.38321 v -0.702 c -0.702,-1.014 -1.859,-1.612 -3.081,-1.612 -2.639,0 -4.069,1.924 -4.069,4.68 0,2.756 1.43,4.68 4.069,4.68 1.014,0 2.015,-0.299 2.873,-0.858 v -0.598 c -0.858,0.559 -1.859,0.858 -2.873,0.858 -2.041,0 -2.795,-1.807 -2.795,-4.082 0,-2.275 0.754,-4.082 2.795,-4.082 1.248,0 2.418,0.65 3.081,1.716 z"
           style="font-size:13px;line-height:1.25"
           id="path357" />
        <path
           d="m 787.58753,106.29921 -3.302,-9.1 h -1.131 l -3.367,9.1 h 0.637 l 1.183,-3.185 h 3.692 l 1.157,3.185 z m -2.509,-3.783 h -3.25 l 1.638,-4.446 z"
           style="font-size:13px;line-height:1.25"
           id="path359" />
      </g>
      <g
         aria-label="CG"
         id="text3549"
         style="line-height:0%;font-family:Iwona;-inkscape-font-specification:Iwona;text-align:center;text-anchor:middle">
        <path
           d="m 806.91197,99.38321 v -0.702 c -0.702,-1.014 -1.859,-1.612 -3.081,-1.612 -2.639,0 -4.069,1.924 -4.069,4.68 0,2.756 1.43,4.68 4.069,4.68 1.014,0 2.015,-0.299 2.873,-0.858 v -0.598 c -0.858,0.559 -1.859,0.858 -2.873,0.858 -2.041,0 -2.795,-1.807 -2.795,-4.082 0,-2.275 0.754,-4.082 2.795,-4.082 1.248,0 2.418,0.65 3.081,1.716 z"
           style="font-size:13px;line-height:1.25"
           id="path362" />
        <path
           d="m 815.72597,106.29921 v -3.822 h -1.066 v 2.509 c -0.676,0.546 -1.508,0.845 -2.379,0.845 -2.067,0 -2.925,-1.781 -2.925,-4.082 0,-2.301 0.858,-4.082 2.925,-4.082 1.222,0 2.379,0.481 3.237,1.352 v -0.598 c -0.858,-0.871 -2.015,-1.352 -3.237,-1.352 -2.678,0 -4.199,1.898 -4.199,4.68 0,2.782 1.521,4.68 4.199,4.68 0.871,0 1.703,-0.299 2.379,-0.845 v 0.715 z"
           style="font-size:13px;line-height:1.25"
           id="path364" />
      </g>
      <g
         aria-label="⋅"
         id="text3553"
         style="line-height:0%;font-family:Iwona;-inkscape-font-specification:Iwona;text-align:center;text-anchor:middle">
        <path
           d="m 793.0094,100.97987 h 1.33935 v 1.61231 h -1.33935 z"
           style="font-size:13px;line-height:1.25"
           id="path367" />
      </g>
    </g>
    <g
       transform="translate(-1.9752311,517.32284)"
       id="g3562">
      <g
         aria-label="CG"
         id="text3564"
         style="line-height:0%;font-family:Iwona;-inkscape-font-specification:Iwona;text-align:center;text-anchor:middle">
        <path
           d="m 831.7152,39.146984 v -0.702 c -0.702,-1.014 -1.859,-1.612 -3.081,-1.612 -2.639,0 -4.069,1.924 -4.069,4.68 0,2.756 1.43,4.68 4.069,4.68 1.014,0 2.015,-0.299 2.873,-0.858 v -0.598 c -0.858,0.559 -1.859,0.858 -2.873,0.858 -2.041,0 -2.795,-1.807 -2.795,-4.082 0,-2.275 0.754,-4.082 2.795,-4.082 1.248,0 2.418,0.65 3.081,1.716 z"
           style="font-size:13px;line-height:1.25"
           id="path370" />
        <path
           d="m 840.52919,46.062984 v -3.822 h -1.066 v 2.509 c -0.676,0.546 -1.508,0.845 -2.379,0.845 -2.067,0 -2.925,-1.781 -2.925,-4.082 0,-2.301 0.858,-4.082 2.925,-4.082 1.222,0 2.379,0.481 3.237,1.352 v -0.598 c -0.858,-0.871 -2.015,-1.352 -3.237,-1.352 -2.678,0 -4.199,1.898 -4.199,4.68 0,2.782 1.521,4.68 4.199,4.68 0.871,0 1.703,-0.299 2.379,-0.845 v 0.715 z"
           style="font-size:13px;line-height:1.25"
           id="path372" />
      </g>
      <path
         id="path3568"
         d="m 825.59055,35.433065 h 14.17323"
         style="fill:none;fill-rule:evenodd;stroke:#000000;stroke-width:1px;stroke-linecap:butt;stroke-linejoin:miter;stroke-opacity:1" />
    </g>
    <g
       transform="translate(66.769001,680.8751)"
       id="g3574">
      <g
         aria-label="FR"
         id="text3576"
         style="line-height:0%;font-family:Iwona;-inkscape-font-specification:Iwona;text-align:center;text-anchor:middle">
        <path
           d="m 831.84519,37.560984 v -0.598 h -6.188 v 9.1 h 1.066 v -4.251 h 4.134 v -0.598 h -4.134 v -3.653 z"
           style="font-size:13px;line-height:1.25"
           id="path375" />
        <path
           d="m 840.86719,46.062984 -2.769,-4.121 c 1.417,-0.273 2.392,-1.053 2.392,-2.509 0,-1.833 -1.573,-2.6 -3.614,-2.6 -0.728,0 -1.456,0.039 -2.171,0.13 h -1.04 v 9.1 h 1.066 v -4.225 c 0.702,0.13 1.43,0.208 2.145,0.208 l 2.717,4.017 z m -1.651,-6.63 c 0,1.183 -1.105,2.015 -2.34,2.015 -0.715,0 -1.443,-0.078 -2.145,-0.208 v -3.679 c 0.715,-0.091 1.43,-0.13 2.145,-0.13 1.235,0 2.34,0.832 2.34,2.002 z"
           style="font-size:13px;line-height:1.25"
           id="path377" />
      </g>
      <path
         id="path3580"
         d="m 825.59055,35.433065 h 14.17323"
         style="fill:none;fill-rule:evenodd;stroke:#000000;stroke-width:1px;stroke-linecap:butt;stroke-linejoin:miter;stroke-opacity:1" />
    </g>
    <path
       id="path3584"
       d="m 744.09449,219.68503 c 28.21794,-14.85613 18.31385,-33.66809 -0.83018,-39.60667 -19.14404,-5.93859 -37.956,3.9655 -23.09986,32.18345"
       style="fill:none;stroke:#000000;stroke-width:1px;stroke-linecap:butt;stroke-linejoin:miter;stroke-opacity:1;marker-end:url(#Arrow1Lend)" />
    <path
       id="path3586"
       d="m 715.552,452.80846 c -31.40483,5.54017 -35.09828,-15.39638 -23.60288,-31.81638 11.49541,-16.42001 32.43196,-20.11346 37.97214,11.29138"
       style="fill:none;stroke:#000000;stroke-width:1px;stroke-linecap:butt;stroke-linejoin:miter;stroke-opacity:1;marker-end:url(#Arrow1Lend)" />
    <path
       style="fill:none;stroke:#000000;stroke-width:1px;stroke-linecap:butt;stroke-linejoin:miter;stroke-opacity:1;marker-end:url(#Arrow1Lend)"
       d="M 758.26772,485.43307 C 749.32621,532.36673 650,634.09448 572.38013,639.09448"
       id="path12892" />
  </g>
</svg>
