<?xml version="1.0" encoding="UTF-8" standalone="no"?>
<!-- Created with Inkscape (http://www.inkscape.org/) -->

<svg
   width="116.34989mm"
   height="141.45561mm"
   id="svg2"
   version="1.1"
   viewBox="0 0 412.2634 501.22067"
   xmlns="http://www.w3.org/2000/svg"
   xmlns:svg="http://www.w3.org/2000/svg"
   xmlns:rdf="http://www.w3.org/1999/02/22-rdf-syntax-ns#"
   xmlns:cc="http://creativecommons.org/ns#"
   xmlns:dc="http://purl.org/dc/elements/1.1/">
  <defs
     id="defs4">
    <marker
       style="overflow:visible"
       id="Arrow1Mendc"
       refX="0"
       refY="0"
       orient="auto">
      <path
         transform="matrix(-0.4,0,0,-0.4,-4,0)"
         style="fill:#0000ff;fill-rule:evenodd;stroke:#0000ff;stroke-width:1.00000003pt;marker-start:none"
         d="M 0,0 5,-5 -12.5,0 5,5 Z"
         id="path4476" />
    </marker>
  </defs>
  <metadata
     id="metadata7">
    <rdf:RDF>
      <cc:Work
         rdf:about="">
        <dc:format>image/svg+xml</dc:format>
        <dc:type
           rdf:resource="http://purl.org/dc/dcmitype/StillImage" />
        <dc:title />
      </cc:Work>
    </rdf:RDF>
  </metadata>
  <g
     id="layer1"
     transform="translate(-44.961464,-52.707126)">
    <g
       id="g3411"
       transform="translate(-170.68065,-150.95502)">
      <path
         style="fill:none;stroke:#0000ff;stroke-width:1.70787;stroke-linecap:butt;stroke-linejoin:miter;stroke-miterlimit:4;stroke-dasharray:none;stroke-opacity:1;marker-end:url(#Arrow1Mendc)"
         d="M 350.7874,435.82675 V 411.0236"
         id="path3165" />
      <g
         id="g3259"
         transform="translate(262.20472,318.89764)">
        <path
           id="path3261"
           d="m 109.84252,131.10234 c -3.54331,0 -3.54331,0 -3.54331,0"
           style="fill:none;stroke:#000000;stroke-width:2.48031;stroke-linecap:butt;stroke-linejoin:miter;stroke-miterlimit:4;stroke-dasharray:none;stroke-opacity:1" />
        <path
           style="fill:none;stroke:#000000;stroke-width:2.48031;stroke-linecap:butt;stroke-linejoin:miter;stroke-miterlimit:4;stroke-dasharray:none;stroke-opacity:1"
           d="m 53.149606,237.40155 c -3.543307,0 -3.543307,0 -3.543307,0"
           id="path3263"
           transform="translate(17.716535,-106.29921)" />
        <path
           id="rect3265"
           style="fill:#0000ff;stroke:#000000;stroke-width:0.885827"
           d="m 70.866142,113.3858 h 35.433068 v 35.43307 H 70.866142 Z" />
        <path
           id="rect3267"
           style="stroke:#000000;stroke-width:0.999213"
           transform="translate(17.716535,-106.29921)"
           d="m 42.519684,226.77164 h 7.086614 v 21.25984 h -7.086614 z" />
        <path
           id="rect3269"
           style="stroke:#000000;stroke-width:0.999213"
           d="m 109.84252,120.47242 h 7.08662 v 21.25984 h -7.08662 z" />
      </g>
    </g>
    <g
       id="g3343"
       transform="translate(17.114621,55.120228)">
      <path
         id="path3337"
         d="m 124.45967,379.13384 c 18.41157,-10.62992 67.50907,-38.97638 67.50907,-38.97638"
         style="fill:none;stroke:#4d4d4d;stroke-width:1;stroke-linecap:butt;stroke-linejoin:miter;stroke-miterlimit:4;stroke-dasharray:1, 1;stroke-dashoffset:0;stroke-opacity:1" />
      <path
         style="fill:none;stroke:#4d4d4d;stroke-width:1;stroke-linecap:butt;stroke-linejoin:miter;stroke-miterlimit:4;stroke-dasharray:1, 1;stroke-dashoffset:0;stroke-opacity:1"
         d="m 124.01575,372.04722 c 21.25984,0 77.95275,0 77.95275,0"
         id="path3335" />
      <g
         transform="rotate(-30,550.246,116.35361)"
         id="g3271">
        <path
           style="fill:none;stroke:#000000;stroke-width:2.48031;stroke-linecap:butt;stroke-linejoin:miter;stroke-miterlimit:4;stroke-dasharray:none;stroke-opacity:1"
           d="m 109.84252,131.10234 c -3.54331,0 -3.54331,0 -3.54331,0"
           id="path3273" />
        <path
           transform="translate(17.716535,-106.29921)"
           id="path3275"
           d="m 53.149606,237.40155 c -3.543307,0 -3.543307,0 -3.543307,0"
           style="fill:none;stroke:#000000;stroke-width:2.48031;stroke-linecap:butt;stroke-linejoin:miter;stroke-miterlimit:4;stroke-dasharray:none;stroke-opacity:1" />
        <path
           id="rect3277"
           style="fill:#0000ff;stroke:#000000;stroke-width:0.885827"
           d="m 70.866142,113.3858 h 35.433068 v 35.43307 H 70.866142 Z" />
        <path
           id="rect3279"
           style="stroke:#000000;stroke-width:0.999213"
           transform="translate(17.716535,-106.29921)"
           d="m 42.519684,226.77164 h 7.086614 v 21.25984 h -7.086614 z" />
        <path
           id="rect3281"
           style="stroke:#000000;stroke-width:0.999213"
           d="m 109.84252,120.47242 h 7.08662 v 21.25984 h -7.08662 z" />
      </g>
      <path
         style="fill:none;stroke:#0000ff;stroke-width:1.70787;stroke-linecap:butt;stroke-linejoin:miter;stroke-miterlimit:4;stroke-dasharray:none;stroke-opacity:1;marker-end:url(#Arrow1Mendc)"
         d="m 168.65843,329.14492 c -5.31496,-9.20578 -13.2238,-8.73107 -24.20123,-6.48471"
         id="path3301" />
    </g>
    <g
       id="g3354"
       transform="translate(138.16974,55.150958)">
      <path
         style="fill:none;stroke:#4d4d4d;stroke-width:1;stroke-linecap:butt;stroke-linejoin:miter;stroke-miterlimit:4;stroke-dasharray:1, 1;stroke-dashoffset:0;stroke-opacity:1"
         d="M 311.52458,379.13384 C 293.11301,368.50392 244.01551,340.15746 244.01551,340.15746"
         id="path3339" />
      <path
         id="path3341"
         d="m 311.9685,372.04722 c -21.25984,0 -77.95275,0 -77.95275,0"
         style="fill:none;stroke:#4d4d4d;stroke-width:1;stroke-linecap:butt;stroke-linejoin:miter;stroke-miterlimit:4;stroke-dasharray:1, 1;stroke-dashoffset:0;stroke-opacity:1" />
      <g
         id="g3283"
         transform="rotate(30,-243.74993,599.02238)">
        <path
           id="path3285"
           d="m 109.84252,131.10234 c -3.54331,0 -3.54331,0 -3.54331,0"
           style="fill:none;stroke:#000000;stroke-width:2.48031;stroke-linecap:butt;stroke-linejoin:miter;stroke-miterlimit:4;stroke-dasharray:none;stroke-opacity:1" />
        <path
           style="fill:none;stroke:#000000;stroke-width:2.48031;stroke-linecap:butt;stroke-linejoin:miter;stroke-miterlimit:4;stroke-dasharray:none;stroke-opacity:1"
           d="m 53.149606,237.40155 c -3.543307,0 -3.543307,0 -3.543307,0"
           id="path3287"
           transform="translate(17.716535,-106.29921)" />
        <path
           id="rect3289"
           style="fill:#0000ff;stroke:#000000;stroke-width:0.885827"
           d="m 70.866142,113.3858 h 35.433068 v 35.43307 H 70.866142 Z" />
        <path
           id="rect3291"
           style="stroke:#000000;stroke-width:0.999213"
           transform="translate(17.716535,-106.29921)"
           d="m 42.519684,226.77164 h 7.086614 v 21.25984 h -7.086614 z" />
        <path
           id="rect3293"
           style="stroke:#000000;stroke-width:0.999213"
           d="m 109.84252,120.47242 h 7.08662 v 21.25984 h -7.08662 z" />
      </g>
      <path
         id="path3303"
         d="m 267.16834,329.14491 c 5.31496,-9.20578 13.2238,-8.73107 24.20123,-6.4847"
         style="fill:none;stroke:#0000ff;stroke-width:1.70787;stroke-linecap:butt;stroke-linejoin:miter;stroke-miterlimit:4;stroke-dasharray:none;stroke-opacity:1;marker-end:url(#Arrow1Mendc)" />
    </g>
    <g
       id="g3324"
       transform="translate(166.67368,-44.267669)">
      <path
         id="path3367"
         d="m 210.73365,217.91336 c 18.41157,10.62992 67.50907,38.97638 67.50907,38.97638"
         style="fill:none;stroke:#4d4d4d;stroke-width:1;stroke-linecap:butt;stroke-linejoin:miter;stroke-miterlimit:4;stroke-dasharray:1, 1;stroke-dashoffset:0;stroke-opacity:1" />
      <path
         style="fill:none;stroke:#4d4d4d;stroke-width:1;stroke-linecap:butt;stroke-linejoin:miter;stroke-miterlimit:4;stroke-dasharray:1, 1;stroke-dashoffset:0;stroke-opacity:1"
         d="m 205.51181,237.40155 c 21.25984,0 77.95275,0 77.95275,0"
         id="path3311" />
      <g
         transform="rotate(30,-31.821589,475.17559)"
         id="g3247">
        <path
           style="fill:none;stroke:#000000;stroke-width:2.48031;stroke-linecap:butt;stroke-linejoin:miter;stroke-miterlimit:4;stroke-dasharray:none;stroke-opacity:1"
           d="m 109.84252,131.10234 c -3.54331,0 -3.54331,0 -3.54331,0"
           id="path3249" />
        <path
           transform="translate(17.716535,-106.29921)"
           id="path3251"
           d="m 53.149606,237.40155 c -3.543307,0 -3.543307,0 -3.543307,0"
           style="fill:none;stroke:#000000;stroke-width:2.48031;stroke-linecap:butt;stroke-linejoin:miter;stroke-miterlimit:4;stroke-dasharray:none;stroke-opacity:1" />
        <path
           id="rect3253"
           style="fill:#0000ff;stroke:#000000;stroke-width:0.885827"
           d="m 70.866142,113.3858 h 35.433068 v 35.43307 H 70.866142 Z" />
        <path
           id="rect3255"
           style="stroke:#000000;stroke-width:0.999213"
           transform="translate(17.716535,-106.29921)"
           d="m 42.519684,226.77164 h 7.086614 v 21.25984 h -7.086614 z" />
        <path
           id="rect3257"
           style="stroke:#000000;stroke-width:0.999213"
           d="m 109.84252,120.47242 h 7.08662 v 21.25984 h -7.08662 z" />
      </g>
      <path
         style="fill:none;stroke:#0000ff;stroke-width:1.70787;stroke-linecap:butt;stroke-linejoin:miter;stroke-miterlimit:4;stroke-dasharray:none;stroke-opacity:1;marker-end:url(#Arrow1Mendc)"
         d="m 233.63795,206.58841 c 5.31496,-9.20578 13.2238,-8.73107 24.20124,-6.4847"
         id="path3299" />
      <path
         style="fill:none;stroke:#0000ff;stroke-width:1.70787;stroke-linecap:butt;stroke-linejoin:miter;stroke-miterlimit:4;stroke-dasharray:none;stroke-opacity:1;marker-end:url(#Arrow1Mendc)"
         d="m 255.33842,268.21468 c -5.31496,9.20578 -13.2238,8.73108 -24.20124,6.48471"
         id="path3305" />
    </g>
    <g
       id="g3313"
       transform="translate(27.744541,-43.121623)">
      <path
         style="fill:none;stroke:#4d4d4d;stroke-width:1;stroke-linecap:butt;stroke-linejoin:miter;stroke-miterlimit:4;stroke-dasharray:1, 1;stroke-dashoffset:0;stroke-opacity:1"
         d="m 118.60767,256.88974 c 18.41157,-10.62992 67.50907,-38.97638 67.50907,-38.97638"
         id="path3365" />
      <path
         id="path3309"
         d="m 113.38583,237.40155 c 21.25984,0 77.95275,0 77.95275,0"
         style="fill:none;stroke:#4d4d4d;stroke-width:1;stroke-linecap:butt;stroke-linejoin:miter;stroke-miterlimit:4;stroke-dasharray:1, 1;stroke-dashoffset:0;stroke-opacity:1" />
      <g
         id="g3235"
         transform="rotate(-30,318.82946,65.237724)">
        <path
           id="path3237"
           d="m 109.84252,131.10234 c -3.54331,0 -3.54331,0 -3.54331,0"
           style="fill:none;stroke:#000000;stroke-width:2.48031;stroke-linecap:butt;stroke-linejoin:miter;stroke-miterlimit:4;stroke-dasharray:none;stroke-opacity:1" />
        <path
           style="fill:none;stroke:#000000;stroke-width:2.48031;stroke-linecap:butt;stroke-linejoin:miter;stroke-miterlimit:4;stroke-dasharray:none;stroke-opacity:1"
           d="m 53.149606,237.40155 c -3.543307,0 -3.543307,0 -3.543307,0"
           id="path3239"
           transform="translate(17.716535,-106.29921)" />
        <path
           id="rect3241"
           style="fill:#0000ff;stroke:#000000;stroke-width:0.885827"
           d="m 70.866142,113.3858 h 35.433068 v 35.43307 H 70.866142 Z" />
        <path
           id="rect3243"
           style="stroke:#000000;stroke-width:0.999213"
           transform="translate(17.716535,-106.29921)"
           d="m 42.519684,226.77164 h 7.086614 v 21.25984 h -7.086614 z" />
        <path
           id="rect3245"
           style="stroke:#000000;stroke-width:0.999213"
           d="m 109.84252,120.47242 h 7.08662 v 21.25984 h -7.08662 z" />
      </g>
      <path
         id="path3297"
         d="m 163.21244,206.58842 c -5.31496,-9.20578 -13.2238,-8.73108 -24.20124,-6.48471"
         style="fill:none;stroke:#0000ff;stroke-width:1.70787;stroke-linecap:butt;stroke-linejoin:miter;stroke-miterlimit:4;stroke-dasharray:none;stroke-opacity:1;marker-end:url(#Arrow1Mendc)" />
      <path
         id="path3307"
         d="m 141.51197,268.21469 c 5.31496,9.20578 13.2238,8.73107 24.20124,6.4847"
         style="fill:none;stroke:#0000ff;stroke-width:1.70787;stroke-linecap:butt;stroke-linejoin:miter;stroke-miterlimit:4;stroke-dasharray:none;stroke-opacity:1;marker-end:url(#Arrow1Mendc)" />
    </g>
    <g
       id="g4525"
       transform="translate(321.83903,-45.903348)">
      <path
         id="path3233"
         d="m 109.84252,131.10234 c -3.54331,0 -3.54331,0 -3.54331,0"
         style="fill:none;stroke:#000000;stroke-width:2.48031;stroke-linecap:butt;stroke-linejoin:miter;stroke-miterlimit:4;stroke-dasharray:none;stroke-opacity:1" />
      <path
         style="fill:none;stroke:#000000;stroke-width:2.48031;stroke-linecap:butt;stroke-linejoin:miter;stroke-miterlimit:4;stroke-dasharray:none;stroke-opacity:1"
         d="m 53.149606,237.40155 c -3.543307,0 -3.543307,0 -3.543307,0"
         id="path2443"
         transform="translate(17.716535,-106.29921)" />
      <path
         id="rect3157"
         style="fill:#0000ff;stroke:#000000;stroke-width:0.885827"
         d="m 70.866142,113.3858 h 35.433068 v 35.43307 H 70.866142 Z" />
      <path
         id="rect2439"
         style="stroke:#000000;stroke-width:0.999213"
         transform="translate(17.716535,-106.29921)"
         d="m 42.519684,226.77164 h 7.086614 v 21.25984 h -7.086614 z" />
      <path
         id="rect2441"
         style="stroke:#000000;stroke-width:0.999213"
         d="m 109.84252,120.47242 h 7.08662 v 21.25984 h -7.08662 z" />
    </g>
    <g
       id="g3400"
       transform="translate(44.373881,-34.107922)">
      <g
         id="g3379"
         transform="translate(26.764624,-18.984536)">
        <path
           id="path3377"
           style="fill:#ffffff;stroke:#000000;stroke-width:0.999213"
           d="m 70.866141,122.24407 a 8.8582678,8.8582678 0 0 1 -8.858267,8.85827 8.8582678,8.8582678 0 0 1 -8.858268,-8.85827 8.8582678,8.8582678 0 0 1 8.858268,-8.85827 8.8582678,8.8582678 0 0 1 8.858267,8.85827 z" />
        <g
           aria-label="A"
           id="text3373"
           style="line-height:0%;font-family:Iwona;-inkscape-font-specification:Iwona;text-align:center;text-anchor:middle">
          <path
             d="m 65.60788,126.6181 -3.048,-8.4 h -1.044 l -3.108,8.4 h 0.588 l 1.092,-2.94 h 3.408 l 1.068,2.94 z m -2.316,-3.492 h -3 l 1.512,-4.104 z"
             style="font-size:12px;line-height:1.25"
             id="path306" />
        </g>
      </g>
      <g
         transform="translate(9.4268955,-1.0629918)"
         id="g3384">
        <path
           id="path3386"
           style="fill:#ffffff;stroke:#000000;stroke-width:0.999213"
           d="m 70.866141,122.24407 a 8.8582678,8.8582678 0 0 1 -8.858267,8.85827 8.8582678,8.8582678 0 0 1 -8.858268,-8.85827 8.8582678,8.8582678 0 0 1 8.858268,-8.85827 8.8582678,8.8582678 0 0 1 8.858267,8.85827 z" />
        <g
           aria-label="G"
           id="text3388"
           style="line-height:0%;font-family:Iwona;-inkscape-font-specification:Iwona;text-align:center;text-anchor:middle">
          <path
             d="m 65.415881,126.6181 v -3.528 h -0.984 v 2.316 c -0.624,0.504 -1.392,0.78 -2.196,0.78 -1.908,0 -2.7,-1.644 -2.7,-3.768 0,-2.124 0.792,-3.768 2.7,-3.768 1.128,0 2.196,0.444 2.988,1.248 v -0.552 c -0.792,-0.804 -1.86,-1.248 -2.988,-1.248 -2.472,0 -3.876,1.752 -3.876,4.32 0,2.568 1.404,4.32 3.876,4.32 0.804,0 1.572,-0.276 2.196,-0.78 v 0.66 z"
             style="font-size:12px;line-height:1.25"
             id="path310" />
        </g>
      </g>
      <g
         id="g3392"
         transform="translate(44.859966,-1.0629918)">
        <path
           id="path3394"
           style="fill:#ffffff;stroke:#000000;stroke-width:0.999213"
           d="m 70.866141,122.24407 a 8.8582678,8.8582678 0 0 1 -8.858267,8.85827 8.8582678,8.8582678 0 0 1 -8.858268,-8.85827 8.8582678,8.8582678 0 0 1 8.858268,-8.85827 8.8582678,8.8582678 0 0 1 8.858267,8.85827 z" />
        <g
           aria-label="D"
           id="text3396"
           style="line-height:0%;font-family:Iwona;-inkscape-font-specification:Iwona;text-align:center;text-anchor:middle">
          <path
             d="m 65.775878,122.4181 c 0,-2.568 -1.404,-4.32 -3.876,-4.32 -0.744,0 -1.488,0.036 -2.22,0.12 h -0.96 v 8.4 h 0.96 c 0.732,0.084 1.476,0.12 2.22,0.12 2.472,0 3.876,-1.752 3.876,-4.32 z m -1.176,0 c 0,1.908 -0.972,3.768 -2.7,3.768 -0.732,0 -1.464,-0.036 -2.196,-0.12 v -7.296 c 0.732,-0.084 1.464,-0.12 2.196,-0.12 1.728,0 2.7,1.86 2.7,3.768 z"
             style="font-size:12px;line-height:1.25"
             id="path314" />
        </g>
      </g>
      <g
         transform="translate(27.017162,16.653544)"
         id="g3154">
        <path
           id="path3156"
           style="fill:#ffffff;stroke:#000000;stroke-width:0.999213"
           d="m 70.866141,122.24407 a 8.8582678,8.8582678 0 0 1 -8.858267,8.85827 8.8582678,8.8582678 0 0 1 -8.858268,-8.85827 8.8582678,8.8582678 0 0 1 8.858268,-8.85827 8.8582678,8.8582678 0 0 1 8.858267,8.85827 z" />
        <g
           aria-label="R"
           id="text3158"
           style="line-height:0%;font-family:Iwona;-inkscape-font-specification:Iwona;text-align:center;text-anchor:middle">
          <path
             d="m 65.811878,126.6181 -2.556,-3.804 c 1.308,-0.252 2.208,-0.972 2.208,-2.316 0,-1.692 -1.452,-2.4 -3.336,-2.4 -0.672,0 -1.344,0.036 -2.004,0.12 h -0.96 v 8.4 h 0.984 v -3.9 c 0.648,0.12 1.32,0.192 1.98,0.192 l 2.508,3.708 z m -1.524,-6.12 c 0,1.092 -1.02,1.86 -2.16,1.86 -0.66,0 -1.332,-0.072 -1.98,-0.192 v -3.396 c 0.66,-0.084 1.32,-0.12 1.98,-0.12 1.14,0 2.16,0.768 2.16,1.848 z"
             style="font-size:12px;line-height:1.25"
             id="path318" />
        </g>
      </g>
    </g>
    <g
       transform="translate(132.95656,-34.257956)"
       id="g3162">
      <g
         transform="translate(27.143431,-18.47946)"
         id="g3164">
        <path
           id="path3166"
           style="fill:#ff0000;stroke:#000000;stroke-width:0.999213"
           d="m 70.866141,122.24407 a 8.8582678,8.8582678 0 0 1 -8.858267,8.85827 8.8582678,8.8582678 0 0 1 -8.858268,-8.85827 8.8582678,8.8582678 0 0 1 8.858268,-8.85827 8.8582678,8.8582678 0 0 1 8.858267,8.85827 z" />
        <g
           aria-label="A"
           id="text3168"
           style="line-height:0%;font-family:Iwona;-inkscape-font-specification:Iwona;text-align:center;text-anchor:middle">
          <path
             d="m 65.60788,126.6181 -3.048,-8.4 h -1.044 l -3.108,8.4 h 0.588 l 1.092,-2.94 h 3.408 l 1.068,2.94 z m -2.316,-3.492 h -3 l 1.512,-4.104 z"
             style="font-size:12px;line-height:1.25"
             id="path322" />
        </g>
      </g>
      <g
         id="g3172"
         transform="translate(8.9218192,-1.2680001)">
        <path
           id="path3174"
           style="fill:#999999;stroke:#000000;stroke-width:0.999213"
           d="m 70.866141,122.24407 a 8.8582678,8.8582678 0 0 1 -8.858267,8.85827 8.8582678,8.8582678 0 0 1 -8.858268,-8.85827 8.8582678,8.8582678 0 0 1 8.858268,-8.85827 8.8582678,8.8582678 0 0 1 8.858267,8.85827 z" />
        <g
           aria-label="G"
           id="text3176"
           style="line-height:0%;font-family:Iwona;-inkscape-font-specification:Iwona;text-align:center;text-anchor:middle">
          <path
             d="m 65.415881,126.6181 v -3.528 h -0.984 v 2.316 c -0.624,0.504 -1.392,0.78 -2.196,0.78 -1.908,0 -2.7,-1.644 -2.7,-3.768 0,-2.124 0.792,-3.768 2.7,-3.768 1.128,0 2.196,0.444 2.988,1.248 v -0.552 c -0.792,-0.804 -1.86,-1.248 -2.988,-1.248 -2.472,0 -3.876,1.752 -3.876,4.32 0,2.568 1.404,4.32 3.876,4.32 0.804,0 1.572,-0.276 2.196,-0.78 v 0.66 z"
             style="font-size:12px;line-height:1.25"
             id="path326" />
        </g>
      </g>
      <g
         transform="translate(44.859966,-1.0629918)"
         id="g3180">
        <path
           id="path3182"
           style="fill:#999999;stroke:#000000;stroke-width:0.999213"
           d="m 70.866141,122.24407 a 8.8582678,8.8582678 0 0 1 -8.858267,8.85827 8.8582678,8.8582678 0 0 1 -8.858268,-8.85827 8.8582678,8.8582678 0 0 1 8.858268,-8.85827 8.8582678,8.8582678 0 0 1 8.858267,8.85827 z" />
        <g
           aria-label="D"
           id="text3184"
           style="line-height:0%;font-family:Iwona;-inkscape-font-specification:Iwona;text-align:center;text-anchor:middle">
          <path
             d="m 65.775878,122.4181 c 0,-2.568 -1.404,-4.32 -3.876,-4.32 -0.744,0 -1.488,0.036 -2.22,0.12 h -0.96 v 8.4 h 0.96 c 0.732,0.084 1.476,0.12 2.22,0.12 2.472,0 3.876,-1.752 3.876,-4.32 z m -1.176,0 c 0,1.908 -0.972,3.768 -2.7,3.768 -0.732,0 -1.464,-0.036 -2.196,-0.12 v -7.296 c 0.732,-0.084 1.464,-0.12 2.196,-0.12 1.728,0 2.7,1.86 2.7,3.768 z"
             style="font-size:12px;line-height:1.25"
             id="path330" />
        </g>
      </g>
      <g
         id="g3188"
         transform="translate(27.017162,16.448535)">
        <path
           id="path3190"
           style="fill:#ff0000;stroke:#000000;stroke-width:0.999213"
           d="m 70.866141,122.24407 a 8.8582678,8.8582678 0 0 1 -8.858267,8.85827 8.8582678,8.8582678 0 0 1 -8.858268,-8.85827 8.8582678,8.8582678 0 0 1 8.858268,-8.85827 8.8582678,8.8582678 0 0 1 8.858267,8.85827 z" />
        <g
           aria-label="R"
           id="text3192"
           style="line-height:0%;font-family:Iwona;-inkscape-font-specification:Iwona;text-align:center;text-anchor:middle">
          <path
             d="m 65.811878,126.6181 -2.556,-3.804 c 1.308,-0.252 2.208,-0.972 2.208,-2.316 0,-1.692 -1.452,-2.4 -3.336,-2.4 -0.672,0 -1.344,0.036 -2.004,0.12 h -0.96 v 8.4 h 0.984 v -3.9 c 0.648,0.12 1.32,0.192 1.98,0.192 l 2.508,3.708 z m -1.524,-6.12 c 0,1.092 -1.02,1.86 -2.16,1.86 -0.66,0 -1.332,-0.072 -1.98,-0.192 v -3.396 c 0.66,-0.084 1.32,-0.12 1.98,-0.12 1.14,0 2.16,0.768 2.16,1.848 z"
             style="font-size:12px;line-height:1.25"
             id="path334" />
        </g>
      </g>
    </g>
    <g
       id="g3298"
       transform="translate(70.973368,-17.556883)">
      <g
         id="g3450"
         transform="translate(159.44882,-17.599937)">
        <path
           id="path3452"
           style="fill:#ff0000;stroke:#000000;stroke-width:0.999213"
           d="m 70.866141,122.24407 a 8.8582678,8.8582678 0 0 1 -8.858267,8.85827 8.8582678,8.8582678 0 0 1 -8.858268,-8.85827 8.8582678,8.8582678 0 0 1 8.858268,-8.85827 8.8582678,8.8582678 0 0 1 8.858267,8.85827 z" />
        <g
           aria-label="G"
           id="text3454"
           style="line-height:0%;font-family:Iwona;-inkscape-font-specification:Iwona;text-align:center;text-anchor:middle">
          <path
             d="m 65.415881,126.6181 v -3.528 h -0.984 v 2.316 c -0.624,0.504 -1.392,0.78 -2.196,0.78 -1.908,0 -2.7,-1.644 -2.7,-3.768 0,-2.124 0.792,-3.768 2.7,-3.768 1.128,0 2.196,0.444 2.988,1.248 v -0.552 c -0.792,-0.804 -1.86,-1.248 -2.988,-1.248 -2.472,0 -3.876,1.752 -3.876,4.32 0,2.568 1.404,4.32 3.876,4.32 0.804,0 1.572,-0.276 2.196,-0.78 v 0.66 z"
             style="font-size:12px;line-height:1.25"
             id="path338" />
        </g>
      </g>
      <g
         id="g3484"
         transform="translate(194.72047,-17.716535)">
        <path
           id="path3486"
           style="fill:#ff0000;stroke:#000000;stroke-width:0.999213"
           d="m 70.866141,122.24407 a 8.8582678,8.8582678 0 0 1 -8.858267,8.85827 8.8582678,8.8582678 0 0 1 -8.858268,-8.85827 8.8582678,8.8582678 0 0 1 8.858268,-8.85827 8.8582678,8.8582678 0 0 1 8.858267,8.85827 z" />
        <g
           aria-label="D"
           id="text3488"
           style="line-height:0%;font-family:Iwona;-inkscape-font-specification:Iwona;text-align:center;text-anchor:middle">
          <path
             d="m 65.775878,122.4181 c 0,-2.568 -1.404,-4.32 -3.876,-4.32 -0.744,0 -1.488,0.036 -2.22,0.12 h -0.96 v 8.4 h 0.96 c 0.732,0.084 1.476,0.12 2.22,0.12 2.472,0 3.876,-1.752 3.876,-4.32 z m -1.176,0 c 0,1.908 -0.972,3.768 -2.7,3.768 -0.732,0 -1.464,-0.036 -2.196,-0.12 v -7.296 c 0.732,-0.084 1.464,-0.12 2.196,-0.12 1.728,0 2.7,1.86 2.7,3.768 z"
             style="font-size:12px;line-height:1.25"
             id="path342" />
        </g>
      </g>
      <g
         transform="translate(176.15529,-35.433071)"
         id="g3258">
        <path
           id="path3260"
           style="fill:#999999;stroke:#000000;stroke-width:0.999213"
           d="m 70.866141,122.24407 a 8.8582678,8.8582678 0 0 1 -8.858267,8.85827 8.8582678,8.8582678 0 0 1 -8.858268,-8.85827 8.8582678,8.8582678 0 0 1 8.858268,-8.85827 8.8582678,8.8582678 0 0 1 8.858267,8.85827 z" />
        <g
           aria-label="A"
           id="text3262"
           style="line-height:0%;font-family:Iwona;-inkscape-font-specification:Iwona;text-align:center;text-anchor:middle">
          <path
             d="m 65.60788,126.6181 -3.048,-8.4 h -1.044 l -3.108,8.4 h 0.588 l 1.092,-2.94 h 3.408 l 1.068,2.94 z m -2.316,-3.492 h -3 l 1.512,-4.104 z"
             style="font-size:12px;line-height:1.25"
             id="path346" />
        </g>
      </g>
      <g
         id="g3266"
         transform="translate(176.23303)">
        <path
           id="path3268"
           style="fill:#999999;stroke:#000000;stroke-width:0.999213"
           d="m 70.866141,122.24407 a 8.8582678,8.8582678 0 0 1 -8.858267,8.85827 8.8582678,8.8582678 0 0 1 -8.858268,-8.85827 8.8582678,8.8582678 0 0 1 8.858268,-8.85827 8.8582678,8.8582678 0 0 1 8.858267,8.85827 z" />
        <g
           aria-label="R"
           id="text3270"
           style="line-height:0%;font-family:Iwona;-inkscape-font-specification:Iwona;text-align:center;text-anchor:middle">
          <path
             d="m 65.811878,126.6181 -2.556,-3.804 c 1.308,-0.252 2.208,-0.972 2.208,-2.316 0,-1.692 -1.452,-2.4 -3.336,-2.4 -0.672,0 -1.344,0.036 -2.004,0.12 h -0.96 v 8.4 h 0.984 v -3.9 c 0.648,0.12 1.32,0.192 1.98,0.192 l 2.508,3.708 z m -1.524,-6.12 c 0,1.092 -1.02,1.86 -2.16,1.86 -0.66,0 -1.332,-0.072 -1.98,-0.192 v -3.396 c 0.66,-0.084 1.32,-0.12 1.98,-0.12 1.14,0 2.16,0.768 2.16,1.848 z"
             style="font-size:12px;line-height:1.25"
             id="path350" />
        </g>
      </g>
    </g>
    <g
       id="g3325"
       transform="translate(141.59658,-0.11231796)">
      <g
         transform="translate(106.29921,53.421577)"
         id="g3442">
        <path
           id="path3444"
           style="fill:#ffffff;stroke:#000000;stroke-width:0.999213"
           d="m 70.866141,122.24407 a 8.8582678,8.8582678 0 0 1 -8.858267,8.85827 8.8582678,8.8582678 0 0 1 -8.858268,-8.85827 8.8582678,8.8582678 0 0 1 8.858268,-8.85827 8.8582678,8.8582678 0 0 1 8.858267,8.85827 z" />
        <g
           aria-label="A"
           id="text3446"
           style="line-height:0%;font-family:Iwona;-inkscape-font-specification:Iwona;text-align:center;text-anchor:middle">
          <path
             d="m 65.60788,126.6181 -3.048,-8.4 h -1.044 l -3.108,8.4 h 0.588 l 1.092,-2.94 h 3.408 l 1.068,2.94 z m -2.316,-3.492 h -3 l 1.512,-4.104 z"
             style="font-size:12px;line-height:1.25"
             id="path354" />
        </g>
      </g>
      <g
         transform="translate(88.582678,70.710678)"
         id="g3476">
        <path
           id="path3478"
           style="fill:#ffffff;stroke:#000000;stroke-width:0.999213"
           d="m 70.866141,122.24407 a 8.8582678,8.8582678 0 0 1 -8.858267,8.85827 8.8582678,8.8582678 0 0 1 -8.858268,-8.85827 8.8582678,8.8582678 0 0 1 8.858268,-8.85827 8.8582678,8.8582678 0 0 1 8.858267,8.85827 z" />
        <g
           aria-label="G"
           id="text3480"
           style="line-height:0%;font-family:Iwona;-inkscape-font-specification:Iwona;text-align:center;text-anchor:middle">
          <path
             d="m 65.415881,126.6181 v -3.528 h -0.984 v 2.316 c -0.624,0.504 -1.392,0.78 -2.196,0.78 -1.908,0 -2.7,-1.644 -2.7,-3.768 0,-2.124 0.792,-3.768 2.7,-3.768 1.128,0 2.196,0.444 2.988,1.248 v -0.552 c -0.792,-0.804 -1.86,-1.248 -2.988,-1.248 -2.472,0 -3.876,1.752 -3.876,4.32 0,2.568 1.404,4.32 3.876,4.32 0.804,0 1.572,-0.276 2.196,-0.78 v 0.66 z"
             style="font-size:12px;line-height:1.25"
             id="path358" />
        </g>
      </g>
      <g
         id="g3240"
         transform="translate(106.49372,88.582678)">
        <path
           id="path3242"
           style="fill:#ffffff;stroke:#000000;stroke-width:0.999213"
           d="m 70.866141,122.24407 a 8.8582678,8.8582678 0 0 1 -8.858267,8.85827 8.8582678,8.8582678 0 0 1 -8.858268,-8.85827 8.8582678,8.8582678 0 0 1 8.858268,-8.85827 8.8582678,8.8582678 0 0 1 8.858267,8.85827 z" />
        <g
           aria-label="R"
           id="text3244"
           style="line-height:0%;font-family:Iwona;-inkscape-font-specification:Iwona;text-align:center;text-anchor:middle">
          <path
             d="m 65.811878,126.6181 -2.556,-3.804 c 1.308,-0.252 2.208,-0.972 2.208,-2.316 0,-1.692 -1.452,-2.4 -3.336,-2.4 -0.672,0 -1.344,0.036 -2.004,0.12 h -0.96 v 8.4 h 0.984 v -3.9 c 0.648,0.12 1.32,0.192 1.98,0.192 l 2.508,3.708 z m -1.524,-6.12 c 0,1.092 -1.02,1.86 -2.16,1.86 -0.66,0 -1.332,-0.072 -1.98,-0.192 v -3.396 c 0.66,-0.084 1.32,-0.12 1.98,-0.12 1.14,0 2.16,0.768 2.16,1.848 z"
             style="font-size:12px;line-height:1.25"
             id="path362" />
        </g>
      </g>
      <g
         id="g3316"
         transform="translate(124.01575,70.594171)">
        <path
           id="path3318"
           style="fill:#ff0000;stroke:#000000;stroke-width:0.999213"
           d="m 70.866141,122.24407 a 8.8582678,8.8582678 0 0 1 -8.858267,8.85827 8.8582678,8.8582678 0 0 1 -8.858268,-8.85827 8.8582678,8.8582678 0 0 1 8.858268,-8.85827 8.8582678,8.8582678 0 0 1 8.858267,8.85827 z" />
        <g
           aria-label="D"
           id="text3320"
           style="line-height:0%;font-family:Iwona;-inkscape-font-specification:Iwona;text-align:center;text-anchor:middle">
          <path
             d="m 65.775878,122.4181 c 0,-2.568 -1.404,-4.32 -3.876,-4.32 -0.744,0 -1.488,0.036 -2.22,0.12 h -0.96 v 8.4 h 0.96 c 0.732,0.084 1.476,0.12 2.22,0.12 2.472,0 3.876,-1.752 3.876,-4.32 z m -1.176,0 c 0,1.908 -0.972,3.768 -2.7,3.768 -0.732,0 -1.464,-0.036 -2.196,-0.12 v -7.296 c 0.732,-0.084 1.464,-0.12 2.196,-0.12 1.728,0 2.7,1.86 2.7,3.768 z"
             style="font-size:12px;line-height:1.25"
             id="path366" />
        </g>
      </g>
    </g>
    <g
       id="g3385"
       transform="translate(-89.184595,-88.151055)">
      <g
         transform="translate(106.29921,142.50924)"
         id="g3458">
        <path
           id="path3460"
           style="fill:#ffffff;stroke:#000000;stroke-width:0.999213"
           d="m 70.866141,122.24407 a 8.8582678,8.8582678 0 0 1 -8.858267,8.85827 8.8582678,8.8582678 0 0 1 -8.858268,-8.85827 8.8582678,8.8582678 0 0 1 8.858268,-8.85827 8.8582678,8.8582678 0 0 1 8.858267,8.85827 z" />
        <g
           aria-label="A"
           id="text3462"
           style="line-height:0%;font-family:Iwona;-inkscape-font-specification:Iwona;text-align:center;text-anchor:middle">
          <path
             d="m 65.60788,126.6181 -3.048,-8.4 h -1.044 l -3.108,8.4 h 0.588 l 1.092,-2.94 h 3.408 l 1.068,2.94 z m -2.316,-3.492 h -3 l 1.512,-4.104 z"
             style="font-size:12px;line-height:1.25"
             id="path370" />
        </g>
      </g>
      <g
         id="g3352"
         transform="translate(124.97052,159.44882)">
        <path
           id="path3354"
           style="fill:#ffffff;stroke:#000000;stroke-width:0.999213"
           d="m 70.866141,122.24407 a 8.8582678,8.8582678 0 0 1 -8.858267,8.85827 8.8582678,8.8582678 0 0 1 -8.858268,-8.85827 8.8582678,8.8582678 0 0 1 8.858268,-8.85827 8.8582678,8.8582678 0 0 1 8.858267,8.85827 z" />
        <g
           aria-label="D"
           id="text3356"
           style="line-height:0%;font-family:Iwona;-inkscape-font-specification:Iwona;text-align:center;text-anchor:middle">
          <path
             d="m 65.775878,122.4181 c 0,-2.568 -1.404,-4.32 -3.876,-4.32 -0.744,0 -1.488,0.036 -2.22,0.12 h -0.96 v 8.4 h 0.96 c 0.732,0.084 1.476,0.12 2.22,0.12 2.472,0 3.876,-1.752 3.876,-4.32 z m -1.176,0 c 0,1.908 -0.972,3.768 -2.7,3.768 -0.732,0 -1.464,-0.036 -2.196,-0.12 v -7.296 c 0.732,-0.084 1.464,-0.12 2.196,-0.12 1.728,0 2.7,1.86 2.7,3.768 z"
             style="font-size:12px;line-height:1.25"
             id="path374" />
        </g>
      </g>
      <g
         transform="translate(88.582678,159.30964)"
         id="g3360">
        <path
           id="path3362"
           style="fill:#ff0000;stroke:#000000;stroke-width:0.999213"
           d="m 70.866141,122.24407 a 8.8582678,8.8582678 0 0 1 -8.858267,8.85827 8.8582678,8.8582678 0 0 1 -8.858268,-8.85827 8.8582678,8.8582678 0 0 1 8.858268,-8.85827 8.8582678,8.8582678 0 0 1 8.858267,8.85827 z" />
        <g
           aria-label="G"
           id="text3364"
           style="line-height:0%;font-family:Iwona;-inkscape-font-specification:Iwona;text-align:center;text-anchor:middle">
          <path
             d="m 65.415881,126.6181 v -3.528 h -0.984 v 2.316 c -0.624,0.504 -1.392,0.78 -2.196,0.78 -1.908,0 -2.7,-1.644 -2.7,-3.768 0,-2.124 0.792,-3.768 2.7,-3.768 1.128,0 2.196,0.444 2.988,1.248 v -0.552 c -0.792,-0.804 -1.86,-1.248 -2.988,-1.248 -2.472,0 -3.876,1.752 -3.876,4.32 0,2.568 1.404,4.32 3.876,4.32 0.804,0 1.572,-0.276 2.196,-0.78 v 0.66 z"
             style="font-size:12px;line-height:1.25"
             id="path378" />
        </g>
      </g>
      <g
         id="g3376"
         transform="translate(106.29921,177.86458)">
        <path
           id="path3378"
           style="fill:#ffffff;stroke:#000000;stroke-width:0.999213"
           d="m 70.866141,122.24407 a 8.8582678,8.8582678 0 0 1 -8.858267,8.85827 8.8582678,8.8582678 0 0 1 -8.858268,-8.85827 8.8582678,8.8582678 0 0 1 8.858268,-8.85827 8.8582678,8.8582678 0 0 1 8.858267,8.85827 z" />
        <g
           aria-label="R"
           id="text3380"
           style="line-height:0%;font-family:Iwona;-inkscape-font-specification:Iwona;text-align:center;text-anchor:middle">
          <path
             d="m 65.811878,126.6181 -2.556,-3.804 c 1.308,-0.252 2.208,-0.972 2.208,-2.316 0,-1.692 -1.452,-2.4 -3.336,-2.4 -0.672,0 -1.344,0.036 -2.004,0.12 h -0.96 v 8.4 h 0.984 v -3.9 c 0.648,0.12 1.32,0.192 1.98,0.192 l 2.508,3.708 z m -1.524,-6.12 c 0,1.092 -1.02,1.86 -2.16,1.86 -0.66,0 -1.332,-0.072 -1.98,-0.192 v -3.396 c 0.66,-0.084 1.32,-0.12 1.98,-0.12 1.14,0 2.16,0.768 2.16,1.848 z"
             style="font-size:12px;line-height:1.25"
             id="path382" />
        </g>
      </g>
    </g>
    <g
       id="g3445"
       transform="translate(-0.60192125,0.15965225)">
      <g
         id="g3344"
         transform="translate(17.663963,159.44882)">
        <path
           id="path3346"
           style="fill:#ff0000;stroke:#000000;stroke-width:0.999213"
           d="m 70.866141,122.24407 a 8.8582678,8.8582678 0 0 1 -8.858267,8.85827 8.8582678,8.8582678 0 0 1 -8.858268,-8.85827 8.8582678,8.8582678 0 0 1 8.858268,-8.85827 8.8582678,8.8582678 0 0 1 8.858267,8.85827 z" />
        <g
           aria-label="A"
           id="text3348"
           style="line-height:0%;font-family:Iwona;-inkscape-font-specification:Iwona;text-align:center;text-anchor:middle">
          <path
             d="m 65.60788,126.6181 -3.048,-8.4 h -1.044 l -3.108,8.4 h 0.588 l 1.092,-2.94 h 3.408 l 1.068,2.94 z m -2.316,-3.492 h -3 l 1.512,-4.104 z"
             style="font-size:12px;line-height:1.25"
             id="path386" />
        </g>
      </g>
      <g
         id="g3421"
         transform="translate(4.1300856e-7,177.46254)">
        <path
           id="path3423"
           style="fill:#ffffff;stroke:#000000;stroke-width:0.999213"
           d="m 70.866141,122.24407 a 8.8582678,8.8582678 0 0 1 -8.858267,8.85827 8.8582678,8.8582678 0 0 1 -8.858268,-8.85827 8.8582678,8.8582678 0 0 1 8.858268,-8.85827 8.8582678,8.8582678 0 0 1 8.858267,8.85827 z" />
        <g
           aria-label="G"
           id="text3425"
           style="line-height:0%;font-family:Iwona;-inkscape-font-specification:Iwona;text-align:center;text-anchor:middle">
          <path
             d="m 65.415881,126.6181 v -3.528 h -0.984 v 2.316 c -0.624,0.504 -1.392,0.78 -2.196,0.78 -1.908,0 -2.7,-1.644 -2.7,-3.768 0,-2.124 0.792,-3.768 2.7,-3.768 1.128,0 2.196,0.444 2.988,1.248 v -0.552 c -0.792,-0.804 -1.86,-1.248 -2.988,-1.248 -2.472,0 -3.876,1.752 -3.876,4.32 0,2.568 1.404,4.32 3.876,4.32 0.804,0 1.572,-0.276 2.196,-0.78 v 0.66 z"
             style="font-size:12px;line-height:1.25"
             id="path390" />
        </g>
      </g>
      <g
         transform="translate(17.716536,194.88189)"
         id="g3429">
        <path
           id="path3431"
           style="fill:#ffffff;stroke:#000000;stroke-width:0.999213"
           d="m 70.866141,122.24407 a 8.8582678,8.8582678 0 0 1 -8.858267,8.85827 8.8582678,8.8582678 0 0 1 -8.858268,-8.85827 8.8582678,8.8582678 0 0 1 8.858268,-8.85827 8.8582678,8.8582678 0 0 1 8.858267,8.85827 z" />
        <g
           aria-label="R"
           id="text3433"
           style="line-height:0%;font-family:Iwona;-inkscape-font-specification:Iwona;text-align:center;text-anchor:middle">
          <path
             d="m 65.811878,126.6181 -2.556,-3.804 c 1.308,-0.252 2.208,-0.972 2.208,-2.316 0,-1.692 -1.452,-2.4 -3.336,-2.4 -0.672,0 -1.344,0.036 -2.004,0.12 h -0.96 v 8.4 h 0.984 v -3.9 c 0.648,0.12 1.32,0.192 1.98,0.192 l 2.508,3.708 z m -1.524,-6.12 c 0,1.092 -1.02,1.86 -2.16,1.86 -0.66,0 -1.332,-0.072 -1.98,-0.192 v -3.396 c 0.66,-0.084 1.32,-0.12 1.98,-0.12 1.14,0 2.16,0.768 2.16,1.848 z"
             style="font-size:12px;line-height:1.25"
             id="path394" />
        </g>
      </g>
      <g
         id="g3437"
         transform="translate(35.433071,177.16535)">
        <path
           id="path3439"
           style="fill:#ffffff;stroke:#000000;stroke-width:0.999213"
           d="m 70.866141,122.24407 a 8.8582678,8.8582678 0 0 1 -8.858267,8.85827 8.8582678,8.8582678 0 0 1 -8.858268,-8.85827 8.8582678,8.8582678 0 0 1 8.858268,-8.85827 8.8582678,8.8582678 0 0 1 8.858267,8.85827 z" />
        <g
           aria-label="D"
           id="text3441"
           style="line-height:0%;font-family:Iwona;-inkscape-font-specification:Iwona;text-align:center;text-anchor:middle">
          <path
             d="m 65.775878,122.4181 c 0,-2.568 -1.404,-4.32 -3.876,-4.32 -0.744,0 -1.488,0.036 -2.22,0.12 h -0.96 v 8.4 h 0.96 c 0.732,0.084 1.476,0.12 2.22,0.12 2.472,0 3.876,-1.752 3.876,-4.32 z m -1.176,0 c 0,1.908 -0.972,3.768 -2.7,3.768 -0.732,0 -1.464,-0.036 -2.196,-0.12 v -7.296 c 0.732,-0.084 1.464,-0.12 2.196,-0.12 1.728,0 2.7,1.86 2.7,3.768 z"
             style="font-size:12px;line-height:1.25"
             id="path398" />
        </g>
      </g>
    </g>
    <g
       transform="translate(60.374464,-151.67844)"
       id="g3463">
      <path
         id="path3465"
         d="m 350.78739,467.71652 v 24.80315"
         style="fill:none;stroke:#0000ff;stroke-width:1.70787;stroke-linecap:butt;stroke-linejoin:miter;stroke-miterlimit:4;stroke-dasharray:none;stroke-opacity:1;marker-end:url(#Arrow1Mendc)" />
      <g
         transform="translate(262.20472,318.89764)"
         id="g3467">
        <path
           style="fill:none;stroke:#000000;stroke-width:2.48031;stroke-linecap:butt;stroke-linejoin:miter;stroke-miterlimit:4;stroke-dasharray:none;stroke-opacity:1"
           d="m 109.84252,131.10234 c -3.54331,0 -3.54331,0 -3.54331,0"
           id="path3469" />
        <path
           transform="translate(17.716535,-106.29921)"
           id="path3471"
           d="m 53.149606,237.40155 c -3.543307,0 -3.543307,0 -3.543307,0"
           style="fill:none;stroke:#000000;stroke-width:2.48031;stroke-linecap:butt;stroke-linejoin:miter;stroke-miterlimit:4;stroke-dasharray:none;stroke-opacity:1" />
        <path
           id="rect3473"
           style="fill:#0000ff;stroke:#000000;stroke-width:0.885827"
           d="m 70.866142,113.3858 h 35.433068 v 35.43307 H 70.866142 Z" />
        <path
           id="rect3475"
           style="stroke:#000000;stroke-width:0.999213"
           transform="translate(17.716535,-106.29921)"
           d="m 42.519684,226.77164 h 7.086614 v 21.25984 h -7.086614 z" />
        <path
           id="rect3477"
           style="stroke:#000000;stroke-width:0.999213"
           d="m 109.84252,120.47242 h 7.08662 v 21.25984 h -7.08662 z" />
      </g>
    </g>
    <g
       id="g3513"
       transform="translate(-0.60192125,0.15965225)">
      <g
         id="g3481"
         transform="translate(248.53658,194.88189)">
        <path
           id="path3483"
           style="fill:#ff0000;stroke:#000000;stroke-width:0.999213"
           d="m 70.866141,122.24407 a 8.8582678,8.8582678 0 0 1 -8.858267,8.85827 8.8582678,8.8582678 0 0 1 -8.858268,-8.85827 8.8582678,8.8582678 0 0 1 8.858268,-8.85827 8.8582678,8.8582678 0 0 1 8.858267,8.85827 z" />
        <g
           aria-label="R"
           id="text3485"
           style="line-height:0%;font-family:Iwona;-inkscape-font-specification:Iwona;text-align:center;text-anchor:middle">
          <path
             d="m 65.811878,126.6181 -2.556,-3.804 c 1.308,-0.252 2.208,-0.972 2.208,-2.316 0,-1.692 -1.452,-2.4 -3.336,-2.4 -0.672,0 -1.344,0.036 -2.004,0.12 h -0.96 v 8.4 h 0.984 v -3.9 c 0.648,0.12 1.32,0.192 1.98,0.192 l 2.508,3.708 z m -1.524,-6.12 c 0,1.092 -1.02,1.86 -2.16,1.86 -0.66,0 -1.332,-0.072 -1.98,-0.192 v -3.396 c 0.66,-0.084 1.32,-0.12 1.98,-0.12 1.14,0 2.16,0.768 2.16,1.848 z"
             style="font-size:12px;line-height:1.25"
             id="path405" />
        </g>
      </g>
      <g
         id="g3489"
         transform="translate(230.82004,177.16535)">
        <path
           id="path3491"
           style="fill:#ffffff;stroke:#000000;stroke-width:0.999213"
           d="m 70.866141,122.24407 a 8.8582678,8.8582678 0 0 1 -8.858267,8.85827 8.8582678,8.8582678 0 0 1 -8.858268,-8.85827 8.8582678,8.8582678 0 0 1 8.858268,-8.85827 8.8582678,8.8582678 0 0 1 8.858267,8.85827 z" />
        <g
           aria-label="G"
           id="text3493"
           style="line-height:0%;font-family:Iwona;-inkscape-font-specification:Iwona;text-align:center;text-anchor:middle">
          <path
             d="m 65.415881,126.6181 v -3.528 h -0.984 v 2.316 c -0.624,0.504 -1.392,0.78 -2.196,0.78 -1.908,0 -2.7,-1.644 -2.7,-3.768 0,-2.124 0.792,-3.768 2.7,-3.768 1.128,0 2.196,0.444 2.988,1.248 v -0.552 c -0.792,-0.804 -1.86,-1.248 -2.988,-1.248 -2.472,0 -3.876,1.752 -3.876,4.32 0,2.568 1.404,4.32 3.876,4.32 0.804,0 1.572,-0.276 2.196,-0.78 v 0.66 z"
             style="font-size:12px;line-height:1.25"
             id="path409" />
        </g>
      </g>
      <g
         transform="translate(265.74803,177.16535)"
         id="g3497">
        <path
           id="path3499"
           style="fill:#ffffff;stroke:#000000;stroke-width:0.999213"
           d="m 70.866141,122.24407 a 8.8582678,8.8582678 0 0 1 -8.858267,8.85827 8.8582678,8.8582678 0 0 1 -8.858268,-8.85827 8.8582678,8.8582678 0 0 1 8.858268,-8.85827 8.8582678,8.8582678 0 0 1 8.858267,8.85827 z" />
        <g
           aria-label="D"
           id="text3501"
           style="line-height:0%;font-family:Iwona;-inkscape-font-specification:Iwona;text-align:center;text-anchor:middle">
          <path
             d="m 65.775878,122.4181 c 0,-2.568 -1.404,-4.32 -3.876,-4.32 -0.744,0 -1.488,0.036 -2.22,0.12 h -0.96 v 8.4 h 0.96 c 0.732,0.084 1.476,0.12 2.22,0.12 2.472,0 3.876,-1.752 3.876,-4.32 z m -1.176,0 c 0,1.908 -0.972,3.768 -2.7,3.768 -0.732,0 -1.464,-0.036 -2.196,-0.12 v -7.296 c 0.732,-0.084 1.464,-0.12 2.196,-0.12 1.728,0 2.7,1.86 2.7,3.768 z"
             style="font-size:12px;line-height:1.25"
             id="path413" />
        </g>
      </g>
      <g
         id="g3505"
         transform="translate(247.87623,159.44882)">
        <path
           id="path3507"
           style="fill:#ffffff;stroke:#000000;stroke-width:0.999213"
           d="m 70.866141,122.24407 a 8.8582678,8.8582678 0 0 1 -8.858267,8.85827 8.8582678,8.8582678 0 0 1 -8.858268,-8.85827 8.8582678,8.8582678 0 0 1 8.858268,-8.85827 8.8582678,8.8582678 0 0 1 8.858267,8.85827 z" />
        <g
           aria-label="A"
           id="text3509"
           style="line-height:0%;font-family:Iwona;-inkscape-font-specification:Iwona;text-align:center;text-anchor:middle">
          <path
             d="m 65.60788,126.6181 -3.048,-8.4 h -1.044 l -3.108,8.4 h 0.588 l 1.092,-2.94 h 3.408 l 1.068,2.94 z m -2.316,-3.492 h -3 l 1.512,-4.104 z"
             style="font-size:12px;line-height:1.25"
             id="path417" />
        </g>
      </g>
    </g>
    <g
       id="g3571"
       transform="translate(-0.60192125,0.15965225)">
      <g
         id="g3531"
         transform="translate(35.433071,283.27033)">
        <path
           id="path3533"
           style="fill:#ffffff;stroke:#000000;stroke-width:0.999213"
           d="m 70.866141,122.24407 a 8.8582678,8.8582678 0 0 1 -8.858267,8.85827 8.8582678,8.8582678 0 0 1 -8.858268,-8.85827 8.8582678,8.8582678 0 0 1 8.858268,-8.85827 8.8582678,8.8582678 0 0 1 8.858267,8.85827 z" />
        <g
           aria-label="D"
           id="text3535"
           style="line-height:0%;font-family:Iwona;-inkscape-font-specification:Iwona;text-align:center;text-anchor:middle">
          <path
             d="m 65.775878,122.4181 c 0,-2.568 -1.404,-4.32 -3.876,-4.32 -0.744,0 -1.488,0.036 -2.22,0.12 h -0.96 v 8.4 h 0.96 c 0.732,0.084 1.476,0.12 2.22,0.12 2.472,0 3.876,-1.752 3.876,-4.32 z m -1.176,0 c 0,1.908 -0.972,3.768 -2.7,3.768 -0.732,0 -1.464,-0.036 -2.196,-0.12 v -7.296 c 0.732,-0.084 1.464,-0.12 2.196,-0.12 1.728,0 2.7,1.86 2.7,3.768 z"
             style="font-size:12px;line-height:1.25"
             id="path421" />
        </g>
      </g>
      <g
         transform="translate(17.716536,301.11965)"
         id="g3539">
        <path
           id="path3541"
           style="fill:#ffffff;stroke:#000000;stroke-width:0.999213"
           d="m 70.866141,122.24407 a 8.8582678,8.8582678 0 0 1 -8.858267,8.85827 8.8582678,8.8582678 0 0 1 -8.858268,-8.85827 8.8582678,8.8582678 0 0 1 8.858268,-8.85827 8.8582678,8.8582678 0 0 1 8.858267,8.85827 z" />
        <g
           aria-label="R"
           id="text3543"
           style="line-height:0%;font-family:Iwona;-inkscape-font-specification:Iwona;text-align:center;text-anchor:middle">
          <path
             d="m 65.811878,126.6181 -2.556,-3.804 c 1.308,-0.252 2.208,-0.972 2.208,-2.316 0,-1.692 -1.452,-2.4 -3.336,-2.4 -0.672,0 -1.344,0.036 -2.004,0.12 h -0.96 v 8.4 h 0.984 v -3.9 c 0.648,0.12 1.32,0.192 1.98,0.192 l 2.508,3.708 z m -1.524,-6.12 c 0,1.092 -1.02,1.86 -2.16,1.86 -0.66,0 -1.332,-0.072 -1.98,-0.192 v -3.396 c 0.66,-0.084 1.32,-0.12 1.98,-0.12 1.14,0 2.16,0.768 2.16,1.848 z"
             style="font-size:12px;line-height:1.25"
             id="path425" />
        </g>
      </g>
      <g
         id="g3555"
         transform="translate(0.50507668,283.46457)">
        <path
           id="path3557"
           style="fill:#ff0000;stroke:#000000;stroke-width:0.999213"
           d="m 70.866141,122.24407 a 8.8582678,8.8582678 0 0 1 -8.858267,8.85827 8.8582678,8.8582678 0 0 1 -8.858268,-8.85827 8.8582678,8.8582678 0 0 1 8.858268,-8.85827 8.8582678,8.8582678 0 0 1 8.858267,8.85827 z" />
        <g
           aria-label="G"
           id="text3559"
           style="line-height:0%;font-family:Iwona;-inkscape-font-specification:Iwona;text-align:center;text-anchor:middle">
          <path
             d="m 65.415881,126.6181 v -3.528 h -0.984 v 2.316 c -0.624,0.504 -1.392,0.78 -2.196,0.78 -1.908,0 -2.7,-1.644 -2.7,-3.768 0,-2.124 0.792,-3.768 2.7,-3.768 1.128,0 2.196,0.444 2.988,1.248 v -0.552 c -0.792,-0.804 -1.86,-1.248 -2.988,-1.248 -2.472,0 -3.876,1.752 -3.876,4.32 0,2.568 1.404,4.32 3.876,4.32 0.804,0 1.572,-0.276 2.196,-0.78 v 0.66 z"
             style="font-size:12px;line-height:1.25"
             id="path429" />
        </g>
      </g>
      <g
         transform="translate(17.505517,265.74803)"
         id="g3563">
        <path
           id="path3565"
           style="fill:#ff0000;stroke:#000000;stroke-width:0.999213"
           d="m 70.866141,122.24407 a 8.8582678,8.8582678 0 0 1 -8.858267,8.85827 8.8582678,8.8582678 0 0 1 -8.858268,-8.85827 8.8582678,8.8582678 0 0 1 8.858268,-8.85827 8.8582678,8.8582678 0 0 1 8.858267,8.85827 z" />
        <g
           aria-label="A"
           id="text3567"
           style="line-height:0%;font-family:Iwona;-inkscape-font-specification:Iwona;text-align:center;text-anchor:middle">
          <path
             d="m 65.60788,126.6181 -3.048,-8.4 h -1.044 l -3.108,8.4 h 0.588 l 1.092,-2.94 h 3.408 l 1.068,2.94 z m -2.316,-3.492 h -3 l 1.512,-4.104 z"
             style="font-size:12px;line-height:1.25"
             id="path433" />
        </g>
      </g>
    </g>
    <g
       id="g3687"
       transform="translate(-0.60192125,0.15965225)">
      <g
         id="g3589"
         transform="translate(248.0315,265.74803)">
        <path
           id="path3591"
           style="fill:#ff0000;stroke:#000000;stroke-width:0.999213"
           d="m 70.866141,122.24407 a 8.8582678,8.8582678 0 0 1 -8.858267,8.85827 8.8582678,8.8582678 0 0 1 -8.858268,-8.85827 8.8582678,8.8582678 0 0 1 8.858268,-8.85827 8.8582678,8.8582678 0 0 1 8.858267,8.85827 z" />
        <g
           aria-label="A"
           id="text3593"
           style="line-height:0%;font-family:Iwona;-inkscape-font-specification:Iwona;text-align:center;text-anchor:middle">
          <path
             d="m 65.60788,126.6181 -3.048,-8.4 h -1.044 l -3.108,8.4 h 0.588 l 1.092,-2.94 h 3.408 l 1.068,2.94 z m -2.316,-3.492 h -3 l 1.512,-4.104 z"
             style="font-size:12px;line-height:1.25"
             id="path437" />
        </g>
      </g>
      <g
         id="g3597"
         transform="translate(231.36635,283.46457)">
        <path
           id="path3599"
           style="fill:#ffffff;stroke:#000000;stroke-width:0.999213"
           d="m 70.866141,122.24407 a 8.8582678,8.8582678 0 0 1 -8.858267,8.85827 8.8582678,8.8582678 0 0 1 -8.858268,-8.85827 8.8582678,8.8582678 0 0 1 8.858268,-8.85827 8.8582678,8.8582678 0 0 1 8.858267,8.85827 z" />
        <g
           aria-label="G"
           id="text3601"
           style="line-height:0%;font-family:Iwona;-inkscape-font-specification:Iwona;text-align:center;text-anchor:middle">
          <path
             d="m 65.415881,126.6181 v -3.528 h -0.984 v 2.316 c -0.624,0.504 -1.392,0.78 -2.196,0.78 -1.908,0 -2.7,-1.644 -2.7,-3.768 0,-2.124 0.792,-3.768 2.7,-3.768 1.128,0 2.196,0.444 2.988,1.248 v -0.552 c -0.792,-0.804 -1.86,-1.248 -2.988,-1.248 -2.472,0 -3.876,1.752 -3.876,4.32 0,2.568 1.404,4.32 3.876,4.32 0.804,0 1.572,-0.276 2.196,-0.78 v 0.66 z"
             style="font-size:12px;line-height:1.25"
             id="path441" />
        </g>
      </g>
      <g
         transform="translate(265.74803,283.46457)"
         id="g3605">
        <path
           id="path3607"
           style="fill:#ff0000;stroke:#000000;stroke-width:0.999213"
           d="m 70.866141,122.24407 a 8.8582678,8.8582678 0 0 1 -8.858267,8.85827 8.8582678,8.8582678 0 0 1 -8.858268,-8.85827 8.8582678,8.8582678 0 0 1 8.858268,-8.85827 8.8582678,8.8582678 0 0 1 8.858267,8.85827 z" />
        <g
           aria-label="D"
           id="text3609"
           style="line-height:0%;font-family:Iwona;-inkscape-font-specification:Iwona;text-align:center;text-anchor:middle">
          <path
             d="m 65.775878,122.4181 c 0,-2.568 -1.404,-4.32 -3.876,-4.32 -0.744,0 -1.488,0.036 -2.22,0.12 h -0.96 v 8.4 h 0.96 c 0.732,0.084 1.476,0.12 2.22,0.12 2.472,0 3.876,-1.752 3.876,-4.32 z m -1.176,0 c 0,1.908 -0.972,3.768 -2.7,3.768 -0.732,0 -1.464,-0.036 -2.196,-0.12 v -7.296 c 0.732,-0.084 1.464,-0.12 2.196,-0.12 1.728,0 2.7,1.86 2.7,3.768 z"
             style="font-size:12px;line-height:1.25"
             id="path445" />
        </g>
      </g>
      <g
         transform="translate(248.0315,301.1811)"
         id="g3613">
        <path
           id="path3615"
           style="fill:#ffffff;stroke:#000000;stroke-width:0.999213"
           d="m 70.866141,122.24407 a 8.8582678,8.8582678 0 0 1 -8.858267,8.85827 8.8582678,8.8582678 0 0 1 -8.858268,-8.85827 8.8582678,8.8582678 0 0 1 8.858268,-8.85827 8.8582678,8.8582678 0 0 1 8.858267,8.85827 z" />
        <g
           aria-label="R"
           id="text3617"
           style="line-height:0%;font-family:Iwona;-inkscape-font-specification:Iwona;text-align:center;text-anchor:middle">
          <path
             d="m 65.811878,126.6181 -2.556,-3.804 c 1.308,-0.252 2.208,-0.972 2.208,-2.316 0,-1.692 -1.452,-2.4 -3.336,-2.4 -0.672,0 -1.344,0.036 -2.004,0.12 h -0.96 v 8.4 h 0.984 v -3.9 c 0.648,0.12 1.32,0.192 1.98,0.192 l 2.508,3.708 z m -1.524,-6.12 c 0,1.092 -1.02,1.86 -2.16,1.86 -0.66,0 -1.332,-0.072 -1.98,-0.192 v -3.396 c 0.66,-0.084 1.32,-0.12 1.98,-0.12 1.14,0 2.16,0.768 2.16,1.848 z"
             style="font-size:12px;line-height:1.25"
             id="path449" />
        </g>
      </g>
    </g>
    <g
       id="g3669"
       transform="translate(-0.60192125,0.15965225)">
      <g
         id="g3621"
         transform="translate(17.483422,407.48032)">
        <path
           id="path3623"
           style="fill:#ff0000;stroke:#000000;stroke-width:0.999213"
           d="m 70.866141,122.24407 a 8.8582678,8.8582678 0 0 1 -8.858267,8.85827 8.8582678,8.8582678 0 0 1 -8.858268,-8.85827 8.8582678,8.8582678 0 0 1 8.858268,-8.85827 8.8582678,8.8582678 0 0 1 8.858267,8.85827 z" />
        <g
           aria-label="R"
           id="text3625"
           style="line-height:0%;font-family:Iwona;-inkscape-font-specification:Iwona;text-align:center;text-anchor:middle">
          <path
             d="m 65.811878,126.6181 -2.556,-3.804 c 1.308,-0.252 2.208,-0.972 2.208,-2.316 0,-1.692 -1.452,-2.4 -3.336,-2.4 -0.672,0 -1.344,0.036 -2.004,0.12 h -0.96 v 8.4 h 0.984 v -3.9 c 0.648,0.12 1.32,0.192 1.98,0.192 l 2.508,3.708 z m -1.524,-6.12 c 0,1.092 -1.02,1.86 -2.16,1.86 -0.66,0 -1.332,-0.072 -1.98,-0.192 v -3.396 c 0.66,-0.084 1.32,-0.12 1.98,-0.12 1.14,0 2.16,0.768 2.16,1.848 z"
             style="font-size:12px;line-height:1.25"
             id="path453" />
        </g>
      </g>
      <g
         id="g3629"
         transform="translate(18.448487,372.04724)">
        <path
           id="path3631"
           style="fill:#ffffff;stroke:#000000;stroke-width:0.999213"
           d="m 70.866141,122.24407 a 8.8582678,8.8582678 0 0 1 -8.858267,8.85827 8.8582678,8.8582678 0 0 1 -8.858268,-8.85827 8.8582678,8.8582678 0 0 1 8.858268,-8.85827 8.8582678,8.8582678 0 0 1 8.858267,8.85827 z" />
        <g
           aria-label="A"
           id="text3633"
           style="line-height:0%;font-family:Iwona;-inkscape-font-specification:Iwona;text-align:center;text-anchor:middle">
          <path
             d="m 65.60788,126.6181 -3.048,-8.4 h -1.044 l -3.108,8.4 h 0.588 l 1.092,-2.94 h 3.408 l 1.068,2.94 z m -2.316,-3.492 h -3 l 1.512,-4.104 z"
             style="font-size:12px;line-height:1.25"
             id="path457" />
        </g>
      </g>
      <g
         transform="translate(5.4817501e-7,389.86411)"
         id="g3637">
        <path
           id="path3639"
           style="fill:#ff0000;stroke:#000000;stroke-width:0.999213"
           d="m 70.866141,122.24407 a 8.8582678,8.8582678 0 0 1 -8.858267,8.85827 8.8582678,8.8582678 0 0 1 -8.858268,-8.85827 8.8582678,8.8582678 0 0 1 8.858268,-8.85827 8.8582678,8.8582678 0 0 1 8.858267,8.85827 z" />
        <g
           aria-label="G"
           id="text3641"
           style="line-height:0%;font-family:Iwona;-inkscape-font-specification:Iwona;text-align:center;text-anchor:middle">
          <path
             d="m 65.415881,126.6181 v -3.528 h -0.984 v 2.316 c -0.624,0.504 -1.392,0.78 -2.196,0.78 -1.908,0 -2.7,-1.644 -2.7,-3.768 0,-2.124 0.792,-3.768 2.7,-3.768 1.128,0 2.196,0.444 2.988,1.248 v -0.552 c -0.792,-0.804 -1.86,-1.248 -2.988,-1.248 -2.472,0 -3.876,1.752 -3.876,4.32 0,2.568 1.404,4.32 3.876,4.32 0.804,0 1.572,-0.276 2.196,-0.78 v 0.66 z"
             style="font-size:12px;line-height:1.25"
             id="path461" />
        </g>
      </g>
      <g
         transform="translate(35.433071,389.80265)"
         id="g3645">
        <path
           id="path3647"
           style="fill:#ffffff;stroke:#000000;stroke-width:0.999213"
           d="m 70.866141,122.24407 a 8.8582678,8.8582678 0 0 1 -8.858267,8.85827 8.8582678,8.8582678 0 0 1 -8.858268,-8.85827 8.8582678,8.8582678 0 0 1 8.858268,-8.85827 8.8582678,8.8582678 0 0 1 8.858267,8.85827 z" />
        <g
           aria-label="D"
           id="text3649"
           style="line-height:0%;font-family:Iwona;-inkscape-font-specification:Iwona;text-align:center;text-anchor:middle">
          <path
             d="m 65.775878,122.4181 c 0,-2.568 -1.404,-4.32 -3.876,-4.32 -0.744,0 -1.488,0.036 -2.22,0.12 h -0.96 v 8.4 h 0.96 c 0.732,0.084 1.476,0.12 2.22,0.12 2.472,0 3.876,-1.752 3.876,-4.32 z m -1.176,0 c 0,1.908 -0.972,3.768 -2.7,3.768 -0.732,0 -1.464,-0.036 -2.196,-0.12 v -7.296 c 0.732,-0.084 1.464,-0.12 2.196,-0.12 1.728,0 2.7,1.86 2.7,3.768 z"
             style="font-size:12px;line-height:1.25"
             id="path465" />
        </g>
      </g>
    </g>
    <g
       id="g3705"
       transform="translate(-0.60192125,0.15965225)">
      <g
         transform="translate(265.74803,389.72492)"
         id="g3416">
        <path
           id="path3418"
           style="fill:#ff0000;stroke:#000000;stroke-width:0.999213"
           d="m 70.866141,122.24407 a 8.8582678,8.8582678 0 0 1 -8.858267,8.85827 8.8582678,8.8582678 0 0 1 -8.858268,-8.85827 8.8582678,8.8582678 0 0 1 8.858268,-8.85827 8.8582678,8.8582678 0 0 1 8.858267,8.85827 z" />
        <g
           aria-label="D"
           id="text3420"
           style="line-height:0%;font-family:Iwona;-inkscape-font-specification:Iwona;text-align:center;text-anchor:middle">
          <path
             d="m 65.775878,122.4181 c 0,-2.568 -1.404,-4.32 -3.876,-4.32 -0.744,0 -1.488,0.036 -2.22,0.12 h -0.96 v 8.4 h 0.96 c 0.732,0.084 1.476,0.12 2.22,0.12 2.472,0 3.876,-1.752 3.876,-4.32 z m -1.176,0 c 0,1.908 -0.972,3.768 -2.7,3.768 -0.732,0 -1.464,-0.036 -2.196,-0.12 v -7.296 c 0.732,-0.084 1.464,-0.12 2.196,-0.12 1.728,0 2.7,1.86 2.7,3.768 z"
             style="font-size:12px;line-height:1.25"
             id="path469" />
        </g>
      </g>
      <g
         transform="translate(248.0315,371.98579)"
         id="g3368">
        <path
           id="path3370"
           style="fill:#ffffff;stroke:#000000;stroke-width:0.999213"
           d="m 70.866141,122.24407 a 8.8582678,8.8582678 0 0 1 -8.858267,8.85827 8.8582678,8.8582678 0 0 1 -8.858268,-8.85827 8.8582678,8.8582678 0 0 1 8.858268,-8.85827 8.8582678,8.8582678 0 0 1 8.858267,8.85827 z" />
        <g
           aria-label="A"
           id="text3372"
           style="line-height:0%;font-family:Iwona;-inkscape-font-specification:Iwona;text-align:center;text-anchor:middle">
          <path
             d="m 65.60788,126.6181 -3.048,-8.4 h -1.044 l -3.108,8.4 h 0.588 l 1.092,-2.94 h 3.408 l 1.068,2.94 z m -2.316,-3.492 h -3 l 1.512,-4.104 z"
             style="font-size:12px;line-height:1.25"
             id="path473" />
        </g>
      </g>
      <g
         id="g3653"
         transform="translate(248.0315,407.54178)">
        <path
           id="path3655"
           style="fill:#ff0000;stroke:#000000;stroke-width:0.999213"
           d="m 70.866141,122.24407 a 8.8582678,8.8582678 0 0 1 -8.858267,8.85827 8.8582678,8.8582678 0 0 1 -8.858268,-8.85827 8.8582678,8.8582678 0 0 1 8.858268,-8.85827 8.8582678,8.8582678 0 0 1 8.858267,8.85827 z" />
        <g
           aria-label="R"
           id="text3657"
           style="line-height:0%;font-family:Iwona;-inkscape-font-specification:Iwona;text-align:center;text-anchor:middle">
          <path
             d="m 65.811878,126.6181 -2.556,-3.804 c 1.308,-0.252 2.208,-0.972 2.208,-2.316 0,-1.692 -1.452,-2.4 -3.336,-2.4 -0.672,0 -1.344,0.036 -2.004,0.12 h -0.96 v 8.4 h 0.984 v -3.9 c 0.648,0.12 1.32,0.192 1.98,0.192 l 2.508,3.708 z m -1.524,-6.12 c 0,1.092 -1.02,1.86 -2.16,1.86 -0.66,0 -1.332,-0.072 -1.98,-0.192 v -3.396 c 0.66,-0.084 1.32,-0.12 1.98,-0.12 1.14,0 2.16,0.768 2.16,1.848 z"
             style="font-size:12px;line-height:1.25"
             id="path477" />
        </g>
      </g>
      <g
         id="g3661"
         transform="translate(231.09201,389.76378)">
        <path
           id="path3663"
           style="fill:#ffffff;stroke:#000000;stroke-width:0.999213"
           d="m 70.866141,122.24407 a 8.8582678,8.8582678 0 0 1 -8.858267,8.85827 8.8582678,8.8582678 0 0 1 -8.858268,-8.85827 8.8582678,8.8582678 0 0 1 8.858268,-8.85827 8.8582678,8.8582678 0 0 1 8.858267,8.85827 z" />
        <g
           aria-label="G"
           id="text3665"
           style="line-height:0%;font-family:Iwona;-inkscape-font-specification:Iwona;text-align:center;text-anchor:middle">
          <path
             d="m 65.415881,126.6181 v -3.528 h -0.984 v 2.316 c -0.624,0.504 -1.392,0.78 -2.196,0.78 -1.908,0 -2.7,-1.644 -2.7,-3.768 0,-2.124 0.792,-3.768 2.7,-3.768 1.128,0 2.196,0.444 2.988,1.248 v -0.552 c -0.792,-0.804 -1.86,-1.248 -2.988,-1.248 -2.472,0 -3.876,1.752 -3.876,4.32 0,2.568 1.404,4.32 3.876,4.32 0.804,0 1.572,-0.276 2.196,-0.78 v 0.66 z"
             style="font-size:12px;line-height:1.25"
             id="path481" />
        </g>
      </g>
    </g>
    <g
       transform="matrix(1,0,0,-1,17.114621,862.88484)"
       id="g3723">
      <path
         style="fill:none;stroke:#4d4d4d;stroke-width:1;stroke-linecap:butt;stroke-linejoin:miter;stroke-miterlimit:4;stroke-dasharray:1, 1;stroke-dashoffset:0;stroke-opacity:1"
         d="m 124.45967,379.13384 c 18.41157,-10.62992 67.50907,-38.97638 67.50907,-38.97638"
         id="path3725" />
      <path
         id="path3727"
         d="m 124.01575,372.04722 c 21.25984,0 77.95275,0 77.95275,0"
         style="fill:none;stroke:#4d4d4d;stroke-width:1;stroke-linecap:butt;stroke-linejoin:miter;stroke-miterlimit:4;stroke-dasharray:1, 1;stroke-dashoffset:0;stroke-opacity:1" />
      <g
         id="g3729"
         transform="rotate(-30,550.246,116.35361)">
        <path
           id="path3731"
           d="m 109.84252,131.10234 c -3.54331,0 -3.54331,0 -3.54331,0"
           style="fill:none;stroke:#000000;stroke-width:2.48031;stroke-linecap:butt;stroke-linejoin:miter;stroke-miterlimit:4;stroke-dasharray:none;stroke-opacity:1" />
        <path
           style="fill:none;stroke:#000000;stroke-width:2.48031;stroke-linecap:butt;stroke-linejoin:miter;stroke-miterlimit:4;stroke-dasharray:none;stroke-opacity:1"
           d="m 53.149606,237.40155 c -3.543307,0 -3.543307,0 -3.543307,0"
           id="path3733"
           transform="translate(17.716535,-106.29921)" />
        <path
           id="rect3735"
           style="fill:#0000ff;stroke:#000000;stroke-width:0.885827"
           d="m 70.866142,113.3858 h 35.433068 v 35.43307 H 70.866142 Z" />
        <path
           id="rect3737"
           style="stroke:#000000;stroke-width:0.999213"
           transform="translate(17.716535,-106.29921)"
           d="m 42.519684,226.77164 h 7.086614 v 21.25984 h -7.086614 z" />
        <path
           id="rect3739"
           style="stroke:#000000;stroke-width:0.999213"
           d="m 109.84252,120.47242 h 7.08662 v 21.25984 h -7.08662 z" />
      </g>
      <path
         id="path3741"
         d="m 168.65843,329.14492 c -5.31496,-9.20578 -13.2238,-8.73107 -24.20123,-6.48471"
         style="fill:none;stroke:#0000ff;stroke-width:1.70787;stroke-linecap:butt;stroke-linejoin:miter;stroke-miterlimit:4;stroke-dasharray:none;stroke-opacity:1;marker-end:url(#Arrow1Mendc)" />
    </g>
    <g
       transform="matrix(1,0,0,-1,138.16974,862.88484)"
       id="g3743">
      <path
         id="path3745"
         d="M 311.52458,379.13384 C 293.11301,368.50392 244.01551,340.15746 244.01551,340.15746"
         style="fill:none;stroke:#4d4d4d;stroke-width:1;stroke-linecap:butt;stroke-linejoin:miter;stroke-miterlimit:4;stroke-dasharray:1, 1;stroke-dashoffset:0;stroke-opacity:1" />
      <path
         style="fill:none;stroke:#4d4d4d;stroke-width:1;stroke-linecap:butt;stroke-linejoin:miter;stroke-miterlimit:4;stroke-dasharray:1, 1;stroke-dashoffset:0;stroke-opacity:1"
         d="m 311.9685,372.04722 c -21.25984,0 -77.95275,0 -77.95275,0"
         id="path3747" />
      <g
         transform="rotate(30,-243.74993,599.02238)"
         id="g3749">
        <path
           style="fill:none;stroke:#000000;stroke-width:2.48031;stroke-linecap:butt;stroke-linejoin:miter;stroke-miterlimit:4;stroke-dasharray:none;stroke-opacity:1"
           d="m 109.84252,131.10234 c -3.54331,0 -3.54331,0 -3.54331,0"
           id="path3751" />
        <path
           transform="translate(17.716535,-106.29921)"
           id="path3753"
           d="m 53.149606,237.40155 c -3.543307,0 -3.543307,0 -3.543307,0"
           style="fill:none;stroke:#000000;stroke-width:2.48031;stroke-linecap:butt;stroke-linejoin:miter;stroke-miterlimit:4;stroke-dasharray:none;stroke-opacity:1" />
        <path
           id="rect3755"
           style="fill:#0000ff;stroke:#000000;stroke-width:0.885827"
           d="m 70.866142,113.3858 h 35.433068 v 35.43307 H 70.866142 Z" />
        <path
           id="rect3757"
           style="stroke:#000000;stroke-width:0.999213"
           transform="translate(17.716535,-106.29921)"
           d="m 42.519684,226.77164 h 7.086614 v 21.25984 h -7.086614 z" />
        <path
           id="rect3759"
           style="stroke:#000000;stroke-width:0.999213"
           d="m 109.84252,120.47242 h 7.08662 v 21.25984 h -7.08662 z" />
      </g>
      <path
         style="fill:none;stroke:#0000ff;stroke-width:1.70787;stroke-linecap:butt;stroke-linejoin:miter;stroke-miterlimit:4;stroke-dasharray:none;stroke-opacity:1;marker-end:url(#Arrow1Mendc)"
         d="m 267.16834,329.14491 c 5.31496,-9.20578 13.2238,-8.73107 24.20123,-6.4847"
         id="path3761" />
    </g>
  </g>
  <g
     id="layer2"
     transform="translate(-44.961464,-52.707126)" />
</svg>
