<?xml version="1.0" encoding="UTF-8" standalone="no"?>
<!-- Created with Inkscape (http://www.inkscape.org/) -->

<svg
   width="171.29695mm"
   height="163.72446mm"
   id="svg2"
   version="1.0"
   viewBox="0 0 606.9577 580.12598"
   xmlns="http://www.w3.org/2000/svg"
   xmlns:svg="http://www.w3.org/2000/svg"
   xmlns:rdf="http://www.w3.org/1999/02/22-rdf-syntax-ns#"
   xmlns:cc="http://creativecommons.org/ns#"
   xmlns:dc="http://purl.org/dc/elements/1.1/">
  <defs
     id="defs4">
    <marker
       orient="auto"
       refY="0"
       refX="0"
       id="DotL"
       style="overflow:visible">
      <path
         id="path3955"
         d="m -2.5,-1 c 0,2.76 -2.24,5 -5,5 -2.76,0 -5,-2.24 -5,-5 0,-2.76 2.24,-5 5,-5 2.76,0 5,2.24 5,5 z"
         style="fill-rule:evenodd;stroke:#000000;stroke-width:1.00000003pt"
         transform="matrix(0.8,0,0,0.8,5.92,0.8)" />
    </marker>
    <marker
       orient="auto"
       refY="0"
       refX="0"
       id="Arrow1Lstart"
       style="overflow:visible">
      <path
         id="path5644"
         d="M 0,0 5,-5 -12.5,0 5,5 Z"
         style="fill-rule:evenodd;stroke:#000000;stroke-width:1.00000003pt;marker-start:none"
         transform="matrix(0.8,0,0,0.8,10,0)" />
    </marker>
    <marker
       orient="auto"
       refY="0"
       refX="0"
       id="Arrow1Lend"
       style="overflow:visible">
      <path
         id="path5647"
         d="M 0,0 5,-5 -12.5,0 5,5 Z"
         style="fill-rule:evenodd;stroke:#000000;stroke-width:1.00000003pt;marker-start:none"
         transform="matrix(-0.8,0,0,-0.8,-10,0)" />
    </marker>
    <marker
       orient="auto"
       refY="0"
       refX="0"
       id="Arrow1Lend-1"
       style="overflow:visible">
      <path
         id="path5647-2"
         d="M 0,0 5,-5 -12.5,0 5,5 Z"
         style="fill-rule:evenodd;stroke:#000000;stroke-width:1.00000003pt;marker-start:none"
         transform="matrix(-0.8,0,0,-0.8,-10,0)" />
    </marker>
    <marker
       orient="auto"
       refY="0"
       refX="0"
       id="Arrow1Lend-7"
       style="overflow:visible">
      <path
         id="path5647-8"
         d="M 0,0 5,-5 -12.5,0 5,5 Z"
         style="fill-rule:evenodd;stroke:#000000;stroke-width:1.00000003pt;marker-start:none"
         transform="matrix(-0.8,0,0,-0.8,-10,0)" />
    </marker>
    <marker
       orient="auto"
       refY="0"
       refX="0"
       id="Arrow1Lend-9"
       style="overflow:visible">
      <path
         id="path5647-6"
         d="M 0,0 5,-5 -12.5,0 5,5 Z"
         style="fill-rule:evenodd;stroke:#000000;stroke-width:1.00000003pt;marker-start:none"
         transform="matrix(-0.8,0,0,-0.8,-10,0)" />
    </marker>
  </defs>
  <metadata
     id="metadata7">
    <rdf:RDF>
      <cc:Work
         rdf:about="">
        <dc:format>image/svg+xml</dc:format>
        <dc:type
           rdf:resource="http://purl.org/dc/dcmitype/StillImage" />
        <dc:title />
      </cc:Work>
    </rdf:RDF>
  </metadata>
  <g
     id="layer1"
     transform="translate(-394.74354,-154.91548)">
    <path
       id="path3600"
       d="m 889.53349,669.68503 c -23.3666,21.70159 -11.31252,40.82263 8.71779,41.56264 20.03031,0.74 35.60804,-13.72773 13.90644,-37.09433"
       style="fill:none;stroke:#000000;stroke-width:1px;stroke-linecap:butt;stroke-linejoin:miter;stroke-opacity:1;marker-end:url(#Arrow1Lend-1)" />
    <path
       style="fill:none;stroke:#000000;stroke-width:1px;stroke-linecap:butt;stroke-linejoin:miter;stroke-opacity:1;marker-end:url(#Arrow1Lend-1)"
       d="m 489.53349,669.68503 c -23.3666,21.70159 -11.31252,40.82263 8.71779,41.56264 20.03031,0.74 35.60804,-13.72773 13.90644,-37.09433"
       id="path3582" />
    <path
       style="fill:none;stroke:#000000;stroke-width:1px;stroke-linecap:butt;stroke-linejoin:miter;stroke-opacity:1;marker-start:url(#DotL);marker-end:url(#Arrow1Lend)"
       d="m 607.28348,166.53543 c 21.25984,0 38.97638,10.62992 49.6063,46.06299"
       id="path13117" />
    <path
       id="path12890"
       d="m 851.77167,488.97637 c 0,35.43307 17.71654,74.40945 53.14961,113.38583"
       style="fill:none;stroke:#000000;stroke-width:1px;stroke-linecap:butt;stroke-linejoin:miter;stroke-opacity:1;marker-end:url(#Arrow1Lend)" />
    <path
       style="fill:none;stroke:#000000;stroke-width:1px;stroke-linecap:butt;stroke-linejoin:miter;stroke-opacity:1;marker-end:url(#Arrow1Lend)"
       d="m 812.79529,485.43307 c -35.43307,77.95275 -159.7817,147.3622 -237.40157,152.3622"
       id="path12892" />
    <path
       style="fill:none;stroke:#000000;stroke-width:1px;stroke-linecap:butt;stroke-linejoin:miter;stroke-opacity:1;marker-start:none;marker-end:url(#Arrow1Lend)"
       d="M 649.80317,272.83464 C 571.85041,304.7244 444.29136,405.54625 504.52758,602.3622"
       id="path12894" />
    <path
       style="fill:none;stroke:#000000;stroke-width:1px;stroke-linecap:butt;stroke-linejoin:miter;stroke-opacity:1;marker-end:url(#Arrow1Lend)"
       d="m 724.21262,276.37795 c 56.69291,24.80315 109.84252,77.95275 116.92913,141.73228"
       id="path12898" />
    <g
       aria-label="FR"
       id="text12904"
       style="line-height:0%;font-family:Iwona;-inkscape-font-specification:Iwona;text-align:center;text-anchor:middle">
      <path
         d="m 408.02628,558.42714 v -0.598 h -6.188 v 9.1 h 1.066 v -4.251 h 4.134 v -0.598 h -4.134 v -3.653 z"
         style="font-size:13px;line-height:1.25"
         id="path125" />
      <path
         d="m 417.04828,566.92914 -2.769,-4.121 c 1.417,-0.273 2.392,-1.053 2.392,-2.509 0,-1.833 -1.573,-2.6 -3.614,-2.6 -0.728,0 -1.456,0.039 -2.171,0.13 h -1.04 v 9.1 h 1.066 v -4.225 c 0.702,0.13 1.43,0.208 2.145,0.208 l 2.717,4.017 z m -1.651,-6.63 c 0,1.183 -1.105,2.015 -2.34,2.015 -0.715,0 -1.443,-0.078 -2.145,-0.208 v -3.679 c 0.715,-0.091 1.43,-0.13 2.145,-0.13 1.235,0 2.34,0.832 2.34,2.002 z"
         style="font-size:13px;line-height:1.25"
         id="path127" />
    </g>
    <g
       aria-label="CA"
       id="text12946"
       style="line-height:0%;font-family:Iwona;-inkscape-font-specification:Iwona;text-align:center;text-anchor:middle">
      <path
         d="m 591.48134,329.69817 v -0.702 c -0.702,-1.014 -1.859,-1.612 -3.081,-1.612 -2.639,0 -4.069,1.924 -4.069,4.68 0,2.756 1.43,4.68 4.069,4.68 1.014,0 2.015,-0.299 2.873,-0.858 v -0.598 c -0.858,0.559 -1.859,0.858 -2.873,0.858 -2.041,0 -2.795,-1.807 -2.795,-4.082 0,-2.275 0.754,-4.082 2.795,-4.082 1.248,0 2.418,0.65 3.081,1.716 z"
         style="font-size:13px;line-height:1.25"
         id="path130" />
      <path
         d="m 599.80134,336.61417 -3.302,-9.1 h -1.131 l -3.367,9.1 h 0.637 l 1.183,-3.185 h 3.692 l 1.157,3.185 z m -2.509,-3.783 h -3.25 l 1.638,-4.446 z"
         style="font-size:13px;line-height:1.25"
         id="path132" />
    </g>
    <path
       id="path12952"
       d="M 621.45671,248.03149 C 506.22836,285.84251 367.45239,412.23509 451.37797,612.99212"
       style="fill:none;stroke:#000000;stroke-width:1px;stroke-linecap:butt;stroke-linejoin:miter;stroke-opacity:1;marker-start:url(#Arrow1Lstart);marker-end:none" />
    <path
       id="path12992"
       d="m 766.7323,248.03149 c 209.08999,40.01574 234.6457,206.06299 182.79978,366.06299"
       style="fill:none;stroke:#000000;stroke-width:1px;stroke-linecap:butt;stroke-linejoin:miter;stroke-opacity:1;marker-start:url(#Arrow1Lstart);marker-end:none" />
    <g
       aria-label="FR"
       id="text12994"
       style="line-height:0%;font-family:Iwona;-inkscape-font-specification:Iwona;text-align:center;text-anchor:middle">
      <path
         d="m 985.58836,558.42714 v -0.598 h -6.188 v 9.1 h 1.066 v -4.251 h 4.134 v -0.598 h -4.134 v -3.653 z"
         style="font-size:13px;line-height:1.25"
         id="path135" />
      <path
         d="m 994.61035,566.92914 -2.769,-4.121 c 1.417,-0.273 2.392,-1.053 2.392,-2.509 0,-1.833 -1.573,-2.6 -3.614,-2.6 -0.728,0 -1.456,0.039 -2.171,0.13 h -1.04 v 9.1 h 1.066 v -4.225 c 0.702,0.13 1.43,0.208 2.145,0.208 l 2.717,4.017 z m -1.651,-6.63 c 0,1.183 -1.105,2.015 -2.34,2.015 -0.715,0 -1.443,-0.078 -2.145,-0.208 v -3.679 c 0.715,-0.091 1.43,-0.13 2.145,-0.13 1.235,0 2.34,0.832 2.34,2.002 z"
         style="font-size:13px;line-height:1.25"
         id="path137" />
    </g>
    <g
       transform="translate(347.24412,215.51742)"
       id="g2621">
      <path
         id="path2623"
         style="fill:#ffeeaa;stroke:#000000;stroke-width:1.06299"
         transform="translate(-118.70078,142.35661)"
         d="m 683.85825,95.669266 a 72.637794,35.433075 0 0 1 -72.63779,35.433074 72.637794,35.433075 0 0 1 -72.6378,-35.433074 72.637794,35.433075 0 0 1 72.6378,-35.433075 72.637794,35.433075 0 0 1 72.63779,35.433075 z" />
      <path
         id="path2625"
         d="M 423.42519,227.39596 H 561.61417"
         style="fill:none;stroke:#000000;stroke-width:1px;stroke-linecap:butt;stroke-linejoin:miter;stroke-opacity:1" />
      <g
         aria-label="Suivi d'un mur"
         id="text2627"
         style="line-height:0%;font-family:Iwona;-inkscape-font-specification:Iwona;text-align:center;text-anchor:middle">
        <path
           d="m 460.5407,217.9594 c 0,-1.599 -1.625,-2.548 -3.302,-2.899 -1.118,-0.234 -2.379,-0.52 -2.379,-1.56 0,-1.027 1.105,-1.612 2.249,-1.612 1.053,0 2.08,0.312 2.912,0.962 v -0.52 c -0.832,-0.65 -1.859,-1.04 -2.912,-1.04 -1.69,0 -3.276,0.949 -3.276,2.483 0,1.469 1.586,2.21 3.133,2.535 1.235,0.26 2.548,0.767 2.548,1.924 0,1.183 -1.157,1.976 -2.405,1.976 -1.209,0 -2.405,-0.312 -3.419,-0.962 v 0.52 c 1.027,0.65 2.197,1.04 3.419,1.04 1.794,0 3.432,-1.157 3.432,-2.847 z"
           style="font-size:13px;line-height:1.25"
           id="path141" />
        <path
           d="m 467.00169,220.5984 v -5.85 h -1.014 v 4.589 c -0.442,0.442 -0.988,0.793 -1.599,0.793 -0.611,0 -1.079,-0.533 -1.079,-1.157 v -4.225 h -1.014 v 4.225 c 0,0.949 0.728,1.755 1.664,1.755 0.78,0 1.469,-0.442 2.028,-0.988 v 0.858 z"
           style="font-size:13px;line-height:1.25"
           id="path143" />
        <path
           d="m 471.46067,220.1434 v -0.39 c -0.247,0.208 -0.533,0.377 -0.858,0.377 -0.481,0 -0.572,-0.598 -0.572,-1.157 v -4.225 h -1.014 v 4.225 c 0,0.871 0.338,1.755 1.105,1.755 0.494,0 0.962,-0.247 1.339,-0.585 z m -1.3,-7.423 c 0,-0.351 -0.286,-0.637 -0.637,-0.637 -0.351,0 -0.637,0.286 -0.637,0.637 0,0.351 0.286,0.637 0.637,0.637 0.351,0 0.637,-0.286 0.637,-0.637 z"
           style="font-size:13px;line-height:1.25"
           id="path145" />
        <path
           d="m 476.88165,214.7484 h -0.585 l -1.768,4.862 -1.716,-4.862 h -0.962 l 2.054,5.85 h 0.845 z"
           style="font-size:13px;line-height:1.25"
           id="path147" />
        <path
           d="m 480.43065,220.1434 v -0.39 c -0.247,0.208 -0.533,0.377 -0.858,0.377 -0.481,0 -0.572,-0.598 -0.572,-1.157 v -4.225 h -1.014 v 4.225 c 0,0.871 0.338,1.755 1.105,1.755 0.494,0 0.962,-0.247 1.339,-0.585 z m -1.3,-7.423 c 0,-0.351 -0.286,-0.637 -0.637,-0.637 -0.351,0 -0.637,0.286 -0.637,0.637 0,0.351 0.286,0.637 0.637,0.637 0.351,0 0.637,-0.286 0.637,-0.637 z"
           style="font-size:13px;line-height:1.25"
           id="path149" />
        <path
           d="m 490.76561,220.5984 v -9.1 h -1.014 v 3.471 c -0.507,-0.221 -1.053,-0.351 -1.599,-0.351 -1.625,0 -2.418,1.3 -2.418,3.055 0,1.729 0.65,3.055 2.223,3.055 0.663,0 1.274,-0.299 1.794,-0.715 v 0.585 z m -1.014,-1.131 c -0.39,0.39 -0.871,0.715 -1.43,0.715 -1.183,0 -1.443,-1.144 -1.443,-2.509 0,-1.222 0.377,-2.509 1.443,-2.509 0.494,0 0.988,0.13 1.43,0.351 z"
           style="font-size:13px;line-height:1.25"
           id="path151" />
        <path
           d="m 492.89761,214.5404 v -3.042 h -0.598 v 3.042 z"
           style="font-size:13px;line-height:1.25"
           id="path153" />
        <path
           d="m 499.0726,220.5984 v -5.85 h -1.014 v 4.589 c -0.442,0.442 -0.988,0.793 -1.599,0.793 -0.611,0 -1.079,-0.533 -1.079,-1.157 v -4.225 h -1.014 v 4.225 c 0,0.949 0.728,1.755 1.664,1.755 0.78,0 1.469,-0.442 2.028,-0.988 v 0.858 z"
           style="font-size:13px;line-height:1.25"
           id="path155" />
        <path
           d="m 505.85858,220.5984 v -4.225 c 0,-0.949 -0.728,-1.755 -1.664,-1.755 -0.78,0 -1.469,0.442 -2.028,0.988 v -0.858 h -1.014 v 5.85 h 1.014 v -4.589 c 0.442,-0.442 0.988,-0.793 1.599,-0.793 0.611,0 1.079,0.533 1.079,1.157 v 4.225 z"
           style="font-size:13px;line-height:1.25"
           id="path157" />
        <path
           d="m 519.30054,220.5984 v -4.225 c 0,-0.91 -0.533,-1.755 -1.378,-1.755 -0.728,0 -1.404,0.377 -1.794,0.988 -0.208,-0.572 -0.65,-0.988 -1.248,-0.988 -0.676,0 -1.222,0.468 -1.664,0.988 v -0.858 h -1.014 v 5.85 h 1.014 v -4.602 c 0.312,-0.403 0.702,-0.78 1.209,-0.78 0.533,0 0.819,0.572 0.819,1.157 v 4.225 h 1.014 v -4.225 c 0,-0.156 -0.013,-0.299 -0.039,-0.455 0.312,-0.403 0.741,-0.702 1.248,-0.702 0.533,0 0.819,0.572 0.819,1.157 v 4.225 z"
           style="font-size:13px;line-height:1.25"
           id="path159" />
        <path
           d="m 525.95651,220.5984 v -5.85 h -1.014 v 4.589 c -0.442,0.442 -0.988,0.793 -1.599,0.793 -0.611,0 -1.079,-0.533 -1.079,-1.157 v -4.225 h -1.014 v 4.225 c 0,0.949 0.728,1.755 1.664,1.755 0.78,0 1.469,-0.442 2.028,-0.988 v 0.858 z"
           style="font-size:13px;line-height:1.25"
           id="path161" />
        <path
           d="m 531.27349,215.5544 v -0.806 c -0.143,-0.052 -0.299,-0.091 -0.442,-0.091 -0.728,0 -1.313,0.507 -1.781,1.066 v -0.975 h -1.014 v 5.85 h 1.014 v -4.329 c 0.39,-0.455 0.884,-0.845 1.482,-0.845 0.247,0 0.507,0.052 0.741,0.13 z"
           style="font-size:13px;line-height:1.25"
           id="path163" />
      </g>
    </g>
    <g
       transform="translate(201.57483,6.4623086)"
       id="g2637">
      <path
         id="path2639"
         style="fill:#ffeeaa;stroke:#000000;stroke-width:1.06299"
         transform="translate(-118.70078,142.35661)"
         d="m 683.85825,95.669266 a 72.637794,35.433075 0 0 1 -72.63779,35.433074 72.637794,35.433075 0 0 1 -72.6378,-35.433074 72.637794,35.433075 0 0 1 72.6378,-35.433075 72.637794,35.433075 0 0 1 72.63779,35.433075 z" />
      <path
         id="path2641"
         d="M 423.42519,227.39596 H 561.61417"
         style="fill:none;stroke:#000000;stroke-width:1px;stroke-linecap:butt;stroke-linejoin:miter;stroke-opacity:1" />
      <g
         aria-label="Recherche d'un mur"
         transform="scale(0.9541662,1.0480354)"
         id="text2643"
         style="line-height:0%;font-family:Iwona;-inkscape-font-specification:Iwona;text-align:center;text-anchor:middle">
        <path
           d="m 471.58212,212.39587 -2.769,-4.121 c 1.417,-0.273 2.392,-1.053 2.392,-2.509 0,-1.833 -1.573,-2.6 -3.614,-2.6 -0.728,0 -1.456,0.039 -2.171,0.13 h -1.04 v 9.1 h 1.066 v -4.225 c 0.702,0.13 1.43,0.208 2.145,0.208 l 2.717,4.017 z m -1.651,-6.63 c 0,1.183 -1.105,2.015 -2.34,2.015 -0.715,0 -1.443,-0.078 -2.145,-0.208 v -3.679 c 0.715,-0.091 1.43,-0.13 2.145,-0.13 1.235,0 2.34,0.832 2.34,2.002 z"
           style="font-size:13px;line-height:1.25"
           id="path167" />
        <path
           d="m 477.45811,209.60087 v -0.13 c 0,-1.833 -1.001,-3.055 -2.509,-3.055 -1.521,0 -2.522,1.222 -2.522,3.055 0,1.833 1.001,3.055 2.522,3.055 0.65,0 1.287,-0.208 1.82,-0.585 v -0.546 c -0.611,0.39 -1.105,0.533 -1.82,0.533 -1.105,0 -1.378,-1.053 -1.378,-2.327 z m -1.144,-0.546 h -2.743 c 0,-1.04 0.442,-2.093 1.378,-2.093 0.923,0 1.365,1.053 1.365,2.093 z"
           style="font-size:13px;line-height:1.25"
           id="path169" />
        <path
           d="m 483.36009,207.89787 v -0.546 c -0.416,-0.585 -1.092,-0.936 -1.82,-0.936 -1.625,0 -2.717,1.222 -2.717,3.055 0,1.833 1.092,3.055 2.717,3.055 0.676,0 1.313,-0.338 1.69,-0.897 v -0.546 c -0.442,0.663 -0.897,0.897 -1.69,0.897 -0.936,0 -1.573,-1.001 -1.573,-2.509 0,-1.508 0.637,-2.509 1.573,-2.509 0.806,0 1.352,0.286 1.82,0.936 z"
           style="font-size:13px;line-height:1.25"
           id="path171" />
        <path
           d="m 489.43108,212.39587 v -4.225 c 0,-0.949 -0.728,-1.755 -1.664,-1.755 -0.78,0 -1.469,0.442 -2.028,0.988 v -4.108 h -1.014 v 9.1 h 1.014 v -4.589 c 0.442,-0.442 0.988,-0.793 1.599,-0.793 0.611,0 1.079,0.533 1.079,1.157 v 4.225 z"
           style="font-size:13px;line-height:1.25"
           id="path173" />
        <path
           d="m 496.15206,209.60087 v -0.13 c 0,-1.833 -1.001,-3.055 -2.509,-3.055 -1.521,0 -2.522,1.222 -2.522,3.055 0,1.833 1.001,3.055 2.522,3.055 0.65,0 1.287,-0.208 1.82,-0.585 v -0.546 c -0.611,0.39 -1.105,0.533 -1.82,0.533 -1.105,0 -1.378,-1.053 -1.378,-2.327 z m -1.144,-0.546 h -2.743 c 0,-1.04 0.442,-2.093 1.378,-2.093 0.923,0 1.365,1.053 1.365,2.093 z"
           style="font-size:13px;line-height:1.25"
           id="path175" />
        <path
           d="m 501.07904,207.35187 v -0.806 c -0.143,-0.052 -0.299,-0.091 -0.442,-0.091 -0.728,0 -1.313,0.507 -1.781,1.066 v -0.975 h -1.014 v 5.85 h 1.014 v -4.329 c 0.39,-0.455 0.884,-0.845 1.482,-0.845 0.247,0 0.507,0.052 0.741,0.13 z"
           style="font-size:13px;line-height:1.25"
           id="path177" />
        <path
           d="m 506.59103,207.89787 v -0.546 c -0.416,-0.585 -1.092,-0.936 -1.82,-0.936 -1.625,0 -2.717,1.222 -2.717,3.055 0,1.833 1.092,3.055 2.717,3.055 0.676,0 1.313,-0.338 1.69,-0.897 v -0.546 c -0.442,0.663 -0.897,0.897 -1.69,0.897 -0.936,0 -1.573,-1.001 -1.573,-2.509 0,-1.508 0.637,-2.509 1.573,-2.509 0.806,0 1.352,0.286 1.82,0.936 z"
           style="font-size:13px;line-height:1.25"
           id="path179" />
        <path
           d="m 512.66201,212.39587 v -4.225 c 0,-0.949 -0.728,-1.755 -1.664,-1.755 -0.78,0 -1.469,0.442 -2.028,0.988 v -4.108 h -1.014 v 9.1 h 1.014 v -4.589 c 0.442,-0.442 0.988,-0.793 1.599,-0.793 0.611,0 1.079,0.533 1.079,1.157 v 4.225 z"
           style="font-size:13px;line-height:1.25"
           id="path181" />
        <path
           d="m 519.38299,209.60087 v -0.13 c 0,-1.833 -1.001,-3.055 -2.509,-3.055 -1.521,0 -2.522,1.222 -2.522,3.055 0,1.833 1.001,3.055 2.522,3.055 0.65,0 1.287,-0.208 1.82,-0.585 v -0.546 c -0.611,0.39 -1.105,0.533 -1.82,0.533 -1.105,0 -1.378,-1.053 -1.378,-2.327 z m -1.144,-0.546 h -2.743 c 0,-1.04 0.442,-2.093 1.378,-2.093 0.923,0 1.365,1.053 1.365,2.093 z"
           style="font-size:13px;line-height:1.25"
           id="path183" />
        <path
           d="m 530.10795,212.39587 v -9.1 h -1.014 v 3.471 c -0.507,-0.221 -1.053,-0.351 -1.599,-0.351 -1.625,0 -2.418,1.3 -2.418,3.055 0,1.729 0.65,3.055 2.223,3.055 0.663,0 1.274,-0.299 1.794,-0.715 v 0.585 z m -1.014,-1.131 c -0.39,0.39 -0.871,0.715 -1.43,0.715 -1.183,0 -1.443,-1.144 -1.443,-2.509 0,-1.222 0.377,-2.509 1.443,-2.509 0.494,0 0.988,0.13 1.43,0.351 z"
           style="font-size:13px;line-height:1.25"
           id="path185" />
        <path
           d="m 532.23994,206.33787 v -3.042 h -0.598 v 3.042 z"
           style="font-size:13px;line-height:1.25"
           id="path187" />
        <path
           d="m 538.41494,212.39587 v -5.85 h -1.014 v 4.589 c -0.442,0.442 -0.988,0.793 -1.599,0.793 -0.611,0 -1.079,-0.533 -1.079,-1.157 v -4.225 h -1.014 v 4.225 c 0,0.949 0.728,1.755 1.664,1.755 0.78,0 1.469,-0.442 2.028,-0.988 v 0.858 z"
           style="font-size:13px;line-height:1.25"
           id="path189" />
        <path
           d="m 545.20092,212.39587 v -4.225 c 0,-0.949 -0.728,-1.755 -1.664,-1.755 -0.78,0 -1.469,0.442 -2.028,0.988 v -0.858 h -1.014 v 5.85 h 1.014 v -4.589 c 0.442,-0.442 0.988,-0.793 1.599,-0.793 0.611,0 1.079,0.533 1.079,1.157 v 4.225 z"
           style="font-size:13px;line-height:1.25"
           id="path191" />
        <path
           d="m 558.64287,212.39587 v -4.225 c 0,-0.91 -0.533,-1.755 -1.378,-1.755 -0.728,0 -1.404,0.377 -1.794,0.988 -0.208,-0.572 -0.65,-0.988 -1.248,-0.988 -0.676,0 -1.222,0.468 -1.664,0.988 v -0.858 h -1.014 v 5.85 h 1.014 v -4.602 c 0.312,-0.403 0.702,-0.78 1.209,-0.78 0.533,0 0.819,0.572 0.819,1.157 v 4.225 h 1.014 v -4.225 c 0,-0.156 -0.013,-0.299 -0.039,-0.455 0.312,-0.403 0.741,-0.702 1.248,-0.702 0.533,0 0.819,0.572 0.819,1.157 v 4.225 z"
           style="font-size:13px;line-height:1.25"
           id="path193" />
        <path
           d="m 565.29885,212.39587 v -5.85 h -1.014 v 4.589 c -0.442,0.442 -0.988,0.793 -1.599,0.793 -0.611,0 -1.079,-0.533 -1.079,-1.157 v -4.225 h -1.014 v 4.225 c 0,0.949 0.728,1.755 1.664,1.755 0.78,0 1.469,-0.442 2.028,-0.988 v 0.858 z"
           style="font-size:13px;line-height:1.25"
           id="path195" />
        <path
           d="m 570.61583,207.35187 v -0.806 c -0.143,-0.052 -0.299,-0.091 -0.442,-0.091 -0.728,0 -1.313,0.507 -1.781,1.066 v -0.975 h -1.014 v 5.85 h 1.014 v -4.329 c 0.39,-0.455 0.884,-0.845 1.482,-0.845 0.247,0 0.507,0.052 0.741,0.13 z"
           style="font-size:13px;line-height:1.25"
           id="path197" />
      </g>
    </g>
    <g
       id="g2653"
       transform="translate(8.8582867,399.76939)">
      <path
         id="path2655"
         style="fill:#ffeeaa;stroke:#000000;stroke-width:1.06299"
         transform="translate(-118.70078,142.35661)"
         d="m 683.85825,95.669266 a 72.637794,35.433075 0 0 1 -72.63779,35.433074 72.637794,35.433075 0 0 1 -72.6378,-35.433074 72.637794,35.433075 0 0 1 72.6378,-35.433075 72.637794,35.433075 0 0 1 72.63779,35.433075 z" />
      <path
         style="fill:none;stroke:#000000;stroke-width:1px;stroke-linecap:butt;stroke-linejoin:miter;stroke-opacity:1"
         d="M 423.42519,227.39596 H 561.61417"
         id="path2657" />
      <g
         aria-label="Rotation à droite"
         id="text2659"
         style="line-height:0%;font-family:Iwona;-inkscape-font-specification:Iwona;text-align:center;text-anchor:middle">
        <path
           d="m 453.4882,220.5984 -2.769,-4.121 c 1.417,-0.273 2.392,-1.053 2.392,-2.509 0,-1.833 -1.573,-2.6 -3.614,-2.6 -0.728,0 -1.456,0.039 -2.171,0.13 h -1.04 v 9.1 h 1.066 v -4.225 c 0.702,0.13 1.43,0.208 2.145,0.208 l 2.717,4.017 z m -1.651,-6.63 c 0,1.183 -1.105,2.015 -2.34,2.015 -0.715,0 -1.443,-0.078 -2.145,-0.208 v -3.679 c 0.715,-0.091 1.43,-0.13 2.145,-0.13 1.235,0 2.34,0.832 2.34,2.002 z"
           style="font-size:13px;line-height:1.25"
           id="path201" />
        <path
           d="m 459.36419,217.6734 c 0,-1.989 -0.884,-3.055 -2.509,-3.055 -1.638,0 -2.522,1.066 -2.522,3.055 0,1.989 0.884,3.055 2.522,3.055 1.625,0 2.509,-1.066 2.509,-3.055 z m -1.144,0 c 0,1.625 -0.481,2.509 -1.365,2.509 -0.897,0 -1.378,-0.884 -1.378,-2.509 0,-1.625 0.481,-2.509 1.378,-2.509 0.884,0 1.365,0.884 1.365,2.509 z"
           style="font-size:13px;line-height:1.25"
           id="path203" />
        <path
           d="m 463.87519,220.1434 v -0.39 c -0.208,0.208 -0.455,0.377 -0.754,0.377 -0.468,0 -0.494,-0.611 -0.494,-1.157 v -3.679 h 1.248 v -0.546 h -1.248 v -1.95 h -0.611 c 0,1.04 -0.598,2.015 -1.547,2.015 v 0.481 h 1.144 v 3.679 c 0,0.858 0.273,1.755 1.014,1.755 0.481,0 0.897,-0.26 1.248,-0.585 z"
           style="font-size:13px;line-height:1.25"
           id="path205" />
        <path
           d="m 469.88117,220.5984 v -3.64 c 0,-1.222 -0.754,-2.34 -1.885,-2.34 -0.832,0 -1.612,0.286 -2.314,0.728 v 0.403 c 0.585,-0.325 1.235,-0.533 1.911,-0.533 0.806,0 1.274,0.858 1.274,1.742 v 0.234 c -0.507,-0.221 -1.053,-0.351 -1.599,-0.351 -1.391,0 -2.418,0.637 -2.418,1.95 0,1.248 0.91,1.937 2.223,1.937 0.663,0 1.274,-0.299 1.794,-0.715 v 0.585 z m -1.014,-1.131 c -0.39,0.39 -0.871,0.715 -1.43,0.715 -0.871,0 -1.443,-0.533 -1.443,-1.391 0,-0.793 0.65,-1.404 1.443,-1.404 0.494,0 0.988,0.13 1.43,0.351 z"
           style="font-size:13px;line-height:1.25"
           id="path207" />
        <path
           d="m 474.71716,220.1434 v -0.39 c -0.208,0.208 -0.455,0.377 -0.754,0.377 -0.468,0 -0.494,-0.611 -0.494,-1.157 v -3.679 h 1.248 v -0.546 h -1.248 v -1.95 h -0.611 c 0,1.04 -0.598,2.015 -1.547,2.015 v 0.481 h 1.144 v 3.679 c 0,0.858 0.273,1.755 1.014,1.755 0.481,0 0.897,-0.26 1.248,-0.585 z"
           style="font-size:13px;line-height:1.25"
           id="path209" />
        <path
           d="m 478.52614,220.1434 v -0.39 c -0.247,0.208 -0.533,0.377 -0.858,0.377 -0.481,0 -0.572,-0.598 -0.572,-1.157 v -4.225 h -1.014 v 4.225 c 0,0.871 0.338,1.755 1.105,1.755 0.494,0 0.962,-0.247 1.339,-0.585 z m -1.3,-7.423 c 0,-0.351 -0.286,-0.637 -0.637,-0.637 -0.351,0 -0.637,0.286 -0.637,0.637 0,0.351 0.286,0.637 0.637,0.637 0.351,0 0.637,-0.286 0.637,-0.637 z"
           style="font-size:13px;line-height:1.25"
           id="path211" />
        <path
           d="m 484.53213,217.6734 c 0,-1.989 -0.884,-3.055 -2.509,-3.055 -1.638,0 -2.522,1.066 -2.522,3.055 0,1.989 0.884,3.055 2.522,3.055 1.625,0 2.509,-1.066 2.509,-3.055 z m -1.144,0 c 0,1.625 -0.481,2.509 -1.365,2.509 -0.897,0 -1.378,-0.884 -1.378,-2.509 0,-1.625 0.481,-2.509 1.378,-2.509 0.884,0 1.365,0.884 1.365,2.509 z"
           style="font-size:13px;line-height:1.25"
           id="path213" />
        <path
           d="m 490.99313,220.5984 v -4.225 c 0,-0.949 -0.728,-1.755 -1.664,-1.755 -0.78,0 -1.469,0.442 -2.028,0.988 v -0.858 h -1.014 v 5.85 h 1.014 v -4.589 c 0.442,-0.442 0.988,-0.793 1.599,-0.793 0.611,0 1.079,0.533 1.079,1.157 v 4.225 z"
           style="font-size:13px;line-height:1.25"
           id="path215" />
        <path
           d="m 501.91308,220.5984 v -3.64 c 0,-1.222 -0.754,-2.34 -1.885,-2.34 -0.832,0 -1.612,0.286 -2.314,0.728 v 0.403 c 0.585,-0.325 1.235,-0.533 1.911,-0.533 0.806,0 1.274,0.858 1.274,1.742 v 0.234 c -0.507,-0.221 -1.053,-0.351 -1.599,-0.351 -1.391,0 -2.418,0.637 -2.418,1.95 0,1.248 0.91,1.937 2.223,1.937 0.663,0 1.274,-0.299 1.794,-0.715 v 0.585 z m -1.014,-1.131 c -0.39,0.39 -0.871,0.715 -1.43,0.715 -0.871,0 -1.443,-0.533 -1.443,-1.391 0,-0.793 0.65,-1.404 1.443,-1.404 0.494,0 0.988,0.13 1.43,0.351 z m -0.728,-5.538 c -0.507,-0.702 -0.78,-1.56 -0.78,-2.431 h -1.17 c 0,0.975 0.715,1.742 1.404,2.431 z"
           style="font-size:13px;line-height:1.25"
           id="path217" />
        <path
           d="m 513.02805,220.5984 v -9.1 h -1.014 v 3.471 c -0.507,-0.221 -1.053,-0.351 -1.599,-0.351 -1.625,0 -2.418,1.3 -2.418,3.055 0,1.729 0.65,3.055 2.223,3.055 0.663,0 1.274,-0.299 1.794,-0.715 v 0.585 z m -1.014,-1.131 c -0.39,0.39 -0.871,0.715 -1.43,0.715 -1.183,0 -1.443,-1.144 -1.443,-2.509 0,-1.222 0.377,-2.509 1.443,-2.509 0.494,0 0.988,0.13 1.43,0.351 z"
           style="font-size:13px;line-height:1.25"
           id="path219" />
        <path
           d="m 518.34504,215.5544 v -0.806 c -0.143,-0.052 -0.299,-0.091 -0.442,-0.091 -0.728,0 -1.313,0.507 -1.781,1.066 v -0.975 h -1.014 v 5.85 h 1.014 v -4.329 c 0.39,-0.455 0.884,-0.845 1.482,-0.845 0.247,0 0.507,0.052 0.741,0.13 z"
           style="font-size:13px;line-height:1.25"
           id="path221" />
        <path
           d="m 524.35102,217.6734 c 0,-1.989 -0.884,-3.055 -2.509,-3.055 -1.638,0 -2.522,1.066 -2.522,3.055 0,1.989 0.884,3.055 2.522,3.055 1.625,0 2.509,-1.066 2.509,-3.055 z m -1.144,0 c 0,1.625 -0.481,2.509 -1.365,2.509 -0.897,0 -1.378,-0.884 -1.378,-2.509 0,-1.625 0.481,-2.509 1.378,-2.509 0.884,0 1.365,0.884 1.365,2.509 z"
           style="font-size:13px;line-height:1.25"
           id="path223" />
        <path
           d="m 528.48502,220.1434 v -0.39 c -0.247,0.208 -0.533,0.377 -0.858,0.377 -0.481,0 -0.572,-0.598 -0.572,-1.157 v -4.225 h -1.014 v 4.225 c 0,0.871 0.338,1.755 1.105,1.755 0.494,0 0.962,-0.247 1.339,-0.585 z m -1.3,-7.423 c 0,-0.351 -0.286,-0.637 -0.637,-0.637 -0.351,0 -0.637,0.286 -0.637,0.637 0,0.351 0.286,0.637 0.637,0.637 0.351,0 0.637,-0.286 0.637,-0.637 z"
           style="font-size:13px;line-height:1.25"
           id="path225" />
        <path
           d="m 532.54101,220.1434 v -0.39 c -0.208,0.208 -0.455,0.377 -0.754,0.377 -0.468,0 -0.494,-0.611 -0.494,-1.157 v -3.679 h 1.248 v -0.546 h -1.248 v -1.95 h -0.611 c 0,1.04 -0.598,2.015 -1.547,2.015 v 0.481 h 1.144 v 3.679 c 0,0.858 0.273,1.755 1.014,1.755 0.481,0 0.897,-0.26 1.248,-0.585 z"
           style="font-size:13px;line-height:1.25"
           id="path227" />
        <path
           d="m 538.67699,217.8034 v -0.13 c 0,-1.833 -1.001,-3.055 -2.509,-3.055 -1.521,0 -2.522,1.222 -2.522,3.055 0,1.833 1.001,3.055 2.522,3.055 0.65,0 1.287,-0.208 1.82,-0.585 v -0.546 c -0.611,0.39 -1.105,0.533 -1.82,0.533 -1.105,0 -1.378,-1.053 -1.378,-2.327 z m -1.144,-0.546 h -2.743 c 0,-1.04 0.442,-2.093 1.378,-2.093 0.923,0 1.365,1.053 1.365,2.093 z"
           style="font-size:13px;line-height:1.25"
           id="path229" />
      </g>
    </g>
    <g
       transform="translate(408.85829,399.76939)"
       id="g2669">
      <path
         id="path2671"
         style="fill:#ffeeaa;stroke:#000000;stroke-width:1.06299"
         transform="translate(-118.70078,142.35661)"
         d="m 683.85825,95.669266 a 72.637794,35.433075 0 0 1 -72.63779,35.433074 72.637794,35.433075 0 0 1 -72.6378,-35.433074 72.637794,35.433075 0 0 1 72.6378,-35.433075 72.637794,35.433075 0 0 1 72.63779,35.433075 z" />
      <path
         id="path2673"
         d="M 423.42519,227.39596 H 561.61417"
         style="fill:none;stroke:#000000;stroke-width:1px;stroke-linecap:butt;stroke-linejoin:miter;stroke-opacity:1" />
      <g
         aria-label="Rotation à gauche"
         id="text2675"
         style="line-height:0%;font-family:Iwona;-inkscape-font-specification:Iwona;text-align:center;text-anchor:middle">
        <path
           d="m 450.08221,220.5984 -2.769,-4.121 c 1.417,-0.273 2.392,-1.053 2.392,-2.509 0,-1.833 -1.573,-2.6 -3.614,-2.6 -0.728,0 -1.456,0.039 -2.171,0.13 h -1.04 v 9.1 h 1.066 v -4.225 c 0.702,0.13 1.43,0.208 2.145,0.208 l 2.717,4.017 z m -1.651,-6.63 c 0,1.183 -1.105,2.015 -2.34,2.015 -0.715,0 -1.443,-0.078 -2.145,-0.208 v -3.679 c 0.715,-0.091 1.43,-0.13 2.145,-0.13 1.235,0 2.34,0.832 2.34,2.002 z"
           style="font-size:13px;line-height:1.25"
           id="path233" />
        <path
           d="m 455.9582,217.6734 c 0,-1.989 -0.884,-3.055 -2.509,-3.055 -1.638,0 -2.522,1.066 -2.522,3.055 0,1.989 0.884,3.055 2.522,3.055 1.625,0 2.509,-1.066 2.509,-3.055 z m -1.144,0 c 0,1.625 -0.481,2.509 -1.365,2.509 -0.897,0 -1.378,-0.884 -1.378,-2.509 0,-1.625 0.481,-2.509 1.378,-2.509 0.884,0 1.365,0.884 1.365,2.509 z"
           style="font-size:13px;line-height:1.25"
           id="path235" />
        <path
           d="m 460.4692,220.1434 v -0.39 c -0.208,0.208 -0.455,0.377 -0.754,0.377 -0.468,0 -0.494,-0.611 -0.494,-1.157 v -3.679 h 1.248 v -0.546 h -1.248 v -1.95 h -0.611 c 0,1.04 -0.598,2.015 -1.547,2.015 v 0.481 h 1.144 v 3.679 c 0,0.858 0.273,1.755 1.014,1.755 0.481,0 0.897,-0.26 1.248,-0.585 z"
           style="font-size:13px;line-height:1.25"
           id="path237" />
        <path
           d="m 466.47518,220.5984 v -3.64 c 0,-1.222 -0.754,-2.34 -1.885,-2.34 -0.832,0 -1.612,0.286 -2.314,0.728 v 0.403 c 0.585,-0.325 1.235,-0.533 1.911,-0.533 0.806,0 1.274,0.858 1.274,1.742 v 0.234 c -0.507,-0.221 -1.053,-0.351 -1.599,-0.351 -1.391,0 -2.418,0.637 -2.418,1.95 0,1.248 0.91,1.937 2.223,1.937 0.663,0 1.274,-0.299 1.794,-0.715 v 0.585 z m -1.014,-1.131 c -0.39,0.39 -0.871,0.715 -1.43,0.715 -0.871,0 -1.443,-0.533 -1.443,-1.391 0,-0.793 0.65,-1.404 1.443,-1.404 0.494,0 0.988,0.13 1.43,0.351 z"
           style="font-size:13px;line-height:1.25"
           id="path239" />
        <path
           d="m 471.31117,220.1434 v -0.39 c -0.208,0.208 -0.455,0.377 -0.754,0.377 -0.468,0 -0.494,-0.611 -0.494,-1.157 v -3.679 h 1.248 v -0.546 h -1.248 v -1.95 h -0.611 c 0,1.04 -0.598,2.015 -1.547,2.015 v 0.481 h 1.144 v 3.679 c 0,0.858 0.273,1.755 1.014,1.755 0.481,0 0.897,-0.26 1.248,-0.585 z"
           style="font-size:13px;line-height:1.25"
           id="path241" />
        <path
           d="m 475.12015,220.1434 v -0.39 c -0.247,0.208 -0.533,0.377 -0.858,0.377 -0.481,0 -0.572,-0.598 -0.572,-1.157 v -4.225 h -1.014 v 4.225 c 0,0.871 0.338,1.755 1.105,1.755 0.494,0 0.962,-0.247 1.339,-0.585 z m -1.3,-7.423 c 0,-0.351 -0.286,-0.637 -0.637,-0.637 -0.351,0 -0.637,0.286 -0.637,0.637 0,0.351 0.286,0.637 0.637,0.637 0.351,0 0.637,-0.286 0.637,-0.637 z"
           style="font-size:13px;line-height:1.25"
           id="path243" />
        <path
           d="m 481.12614,217.6734 c 0,-1.989 -0.884,-3.055 -2.509,-3.055 -1.638,0 -2.522,1.066 -2.522,3.055 0,1.989 0.884,3.055 2.522,3.055 1.625,0 2.509,-1.066 2.509,-3.055 z m -1.144,0 c 0,1.625 -0.481,2.509 -1.365,2.509 -0.897,0 -1.378,-0.884 -1.378,-2.509 0,-1.625 0.481,-2.509 1.378,-2.509 0.884,0 1.365,0.884 1.365,2.509 z"
           style="font-size:13px;line-height:1.25"
           id="path245" />
        <path
           d="m 487.58714,220.5984 v -4.225 c 0,-0.949 -0.728,-1.755 -1.664,-1.755 -0.78,0 -1.469,0.442 -2.028,0.988 v -0.858 h -1.014 v 5.85 h 1.014 v -4.589 c 0.442,-0.442 0.988,-0.793 1.599,-0.793 0.611,0 1.079,0.533 1.079,1.157 v 4.225 z"
           style="font-size:13px;line-height:1.25"
           id="path247" />
        <path
           d="m 498.50709,220.5984 v -3.64 c 0,-1.222 -0.754,-2.34 -1.885,-2.34 -0.832,0 -1.612,0.286 -2.314,0.728 v 0.403 c 0.585,-0.325 1.235,-0.533 1.911,-0.533 0.806,0 1.274,0.858 1.274,1.742 v 0.234 c -0.507,-0.221 -1.053,-0.351 -1.599,-0.351 -1.391,0 -2.418,0.637 -2.418,1.95 0,1.248 0.91,1.937 2.223,1.937 0.663,0 1.274,-0.299 1.794,-0.715 v 0.585 z m -1.014,-1.131 c -0.39,0.39 -0.871,0.715 -1.43,0.715 -0.871,0 -1.443,-0.533 -1.443,-1.391 0,-0.793 0.65,-1.404 1.443,-1.404 0.494,0 0.988,0.13 1.43,0.351 z m -0.728,-5.538 c -0.507,-0.702 -0.78,-1.56 -0.78,-2.431 h -1.17 c 0,0.975 0.715,1.742 1.404,2.431 z"
           style="font-size:13px;line-height:1.25"
           id="path249" />
        <path
           d="m 509.62206,221.3784 v -6.63 h -1.014 v 0.221 c -0.507,-0.221 -1.053,-0.351 -1.599,-0.351 -1.625,0 -2.418,1.3 -2.418,3.055 0,1.729 0.65,3.055 2.223,3.055 0.663,0 1.274,-0.299 1.794,-0.715 v 1.365 c 0,0.897 -0.494,1.742 -1.3,1.742 -0.663,0 -1.326,-0.13 -1.95,-0.351 v 0.403 c 0.728,0.338 1.534,0.546 2.34,0.546 1.144,0 1.924,-1.118 1.924,-2.34 z m -1.014,-1.911 c -0.39,0.39 -0.871,0.715 -1.43,0.715 -1.183,0 -1.443,-1.144 -1.443,-2.509 0,-1.222 0.377,-2.509 1.443,-2.509 0.494,0 0.988,0.13 1.43,0.351 z"
           style="font-size:13px;line-height:1.25"
           id="path251" />
        <path
           d="m 516.27805,220.5984 v -3.64 c 0,-1.222 -0.754,-2.34 -1.885,-2.34 -0.832,0 -1.612,0.286 -2.314,0.728 v 0.403 c 0.585,-0.325 1.235,-0.533 1.911,-0.533 0.806,0 1.274,0.858 1.274,1.742 v 0.234 c -0.507,-0.221 -1.053,-0.351 -1.599,-0.351 -1.391,0 -2.418,0.637 -2.418,1.95 0,1.248 0.91,1.937 2.223,1.937 0.663,0 1.274,-0.299 1.794,-0.715 v 0.585 z m -1.014,-1.131 c -0.39,0.39 -0.871,0.715 -1.43,0.715 -0.871,0 -1.443,-0.533 -1.443,-1.391 0,-0.793 0.65,-1.404 1.443,-1.404 0.494,0 0.988,0.13 1.43,0.351 z"
           style="font-size:13px;line-height:1.25"
           id="path253" />
        <path
           d="m 522.99904,220.5984 v -5.85 h -1.014 v 4.589 c -0.442,0.442 -0.988,0.793 -1.599,0.793 -0.611,0 -1.079,-0.533 -1.079,-1.157 v -4.225 h -1.014 v 4.225 c 0,0.949 0.728,1.755 1.664,1.755 0.78,0 1.469,-0.442 2.028,-0.988 v 0.858 z"
           style="font-size:13px;line-height:1.25"
           id="path255" />
        <path
           d="m 529.29102,216.1004 v -0.546 c -0.416,-0.585 -1.092,-0.936 -1.82,-0.936 -1.625,0 -2.717,1.222 -2.717,3.055 0,1.833 1.092,3.055 2.717,3.055 0.676,0 1.313,-0.338 1.69,-0.897 v -0.546 c -0.442,0.663 -0.897,0.897 -1.69,0.897 -0.936,0 -1.573,-1.001 -1.573,-2.509 0,-1.508 0.637,-2.509 1.573,-2.509 0.806,0 1.352,0.286 1.82,0.936 z"
           style="font-size:13px;line-height:1.25"
           id="path257" />
        <path
           d="m 535.362,220.5984 v -4.225 c 0,-0.949 -0.728,-1.755 -1.664,-1.755 -0.78,0 -1.469,0.442 -2.028,0.988 v -4.108 h -1.014 v 9.1 h 1.014 v -4.589 c 0.442,-0.442 0.988,-0.793 1.599,-0.793 0.611,0 1.079,0.533 1.079,1.157 v 4.225 z"
           style="font-size:13px;line-height:1.25"
           id="path259" />
        <path
           d="m 542.08298,217.8034 v -0.13 c 0,-1.833 -1.001,-3.055 -2.509,-3.055 -1.521,0 -2.522,1.222 -2.522,3.055 0,1.833 1.001,3.055 2.522,3.055 0.65,0 1.287,-0.208 1.82,-0.585 v -0.546 c -0.611,0.39 -1.105,0.533 -1.82,0.533 -1.105,0 -1.378,-1.053 -1.378,-2.327 z m -1.144,-0.546 h -2.743 c 0,-1.04 0.442,-2.093 1.378,-2.093 0.923,0 1.365,1.053 1.365,2.093 z"
           style="font-size:13px;line-height:1.25"
           id="path261" />
      </g>
    </g>
    <g
       id="g3454"
       transform="translate(54.527552,31.889764)">
      <g
         aria-label="/ MGA, MDA"
         id="text12976"
         style="line-height:0%;font-family:Iwona;-inkscape-font-specification:Iwona;text-align:center;text-anchor:middle">
        <path
           d="m 764.05516,150.34881 h -0.676 l -2.652,10.595 h 0.676 z"
           style="font-size:13px;line-height:1.25;fill:#ff0000"
           id="path264" />
        <path
           d="m 779.73313,159.44881 -0.52,-9.1 h -0.858 l -3.653,7.683 -3.666,-7.683 h -0.858 l -0.52,9.1 h 0.598 l 0.416,-7.371 3.523,7.371 h 0.481 l 3.562,-7.462 0.429,7.462 z"
           style="font-size:13px;line-height:1.25;fill:#ff0000"
           id="path266" />
        <path
           d="m 788.93711,159.44881 v -3.822 h -1.066 v 2.509 c -0.676,0.546 -1.508,0.845 -2.379,0.845 -2.067,0 -2.925,-1.781 -2.925,-4.082 0,-2.301 0.858,-4.082 2.925,-4.082 1.222,0 2.379,0.481 3.237,1.352 v -0.598 c -0.858,-0.871 -2.015,-1.352 -3.237,-1.352 -2.678,0 -4.199,1.898 -4.199,4.68 0,2.782 1.521,4.68 4.199,4.68 0.871,0 1.703,-0.299 2.379,-0.845 v 0.715 z"
           style="font-size:13px;line-height:1.25;fill:#ff0000"
           id="path268" />
        <path
           d="m 797.90709,159.44881 -3.302,-9.1 h -1.131 l -3.367,9.1 h 0.637 l 1.183,-3.185 h 3.692 l 1.157,3.185 z m -2.509,-3.783 h -3.25 l 1.638,-4.446 z"
           style="font-size:13px;line-height:1.25;fill:#ff0000"
           id="path270" />
        <path
           d="m 800.06508,158.17481 h -1.014 c 0,0.936 -0.156,1.872 -0.455,2.769 h 0.546 c 0.598,-0.793 0.923,-1.768 0.923,-2.769 z"
           style="font-size:13px;line-height:1.25;fill:#ff0000"
           id="path272" />
        <path
           d="m 816.00304,159.44881 -0.52,-9.1 h -0.858 l -3.653,7.683 -3.666,-7.683 h -0.858 l -0.52,9.1 h 0.598 l 0.416,-7.371 3.523,7.371 h 0.481 l 3.562,-7.462 0.429,7.462 z"
           style="font-size:13px;line-height:1.25;fill:#ff0000"
           id="path274" />
        <path
           d="m 825.72702,154.89881 c 0,-2.782 -1.521,-4.68 -4.199,-4.68 -0.806,0 -1.612,0.039 -2.405,0.13 h -1.04 v 9.1 h 1.04 c 0.793,0.091 1.599,0.13 2.405,0.13 2.678,0 4.199,-1.898 4.199,-4.68 z m -1.274,0 c 0,2.067 -1.053,4.082 -2.925,4.082 -0.793,0 -1.586,-0.039 -2.379,-0.13 v -7.904 c 0.793,-0.091 1.586,-0.13 2.379,-0.13 1.872,0 2.925,2.015 2.925,4.082 z"
           style="font-size:13px;line-height:1.25;fill:#ff0000"
           id="path276" />
        <path
           d="m 834.12501,159.44881 -3.302,-9.1 h -1.131 l -3.367,9.1 h 0.637 l 1.183,-3.185 h 3.692 l 1.157,3.185 z m -2.509,-3.783 h -3.25 l 1.638,-4.446 z"
           style="font-size:13px;line-height:1.25;fill:#ff0000"
           id="path278" />
      </g>
      <g
         transform="translate(-63.779504,53.149607)"
         id="g3484">
        <g
           id="g3464"
           transform="translate(-53.149629,60.236222)">
          <g
             aria-label="CA"
             id="text3466"
             style="line-height:0%;font-family:Iwona;-inkscape-font-specification:Iwona;text-align:center;text-anchor:middle">
            <path
               d="m 832.4172,39.146984 v -0.702 c -0.702,-1.014 -1.859,-1.612 -3.081,-1.612 -2.639,0 -4.069,1.924 -4.069,4.68 0,2.756 1.43,4.68 4.069,4.68 1.014,0 2.015,-0.299 2.873,-0.858 v -0.598 c -0.858,0.559 -1.859,0.858 -2.873,0.858 -2.041,0 -2.795,-1.807 -2.795,-4.082 0,-2.275 0.754,-4.082 2.795,-4.082 1.248,0 2.418,0.65 3.081,1.716 z"
               style="font-size:13px;line-height:1.25"
               id="path281" />
            <path
               d="m 840.73719,46.062984 -3.302,-9.1 h -1.131 l -3.367,9.1 h 0.637 l 1.183,-3.185 h 3.692 l 1.157,3.185 z m -2.509,-3.783 h -3.25 l 1.638,-4.446 z"
               style="font-size:13px;line-height:1.25"
               id="path283" />
          </g>
          <path
             style="fill:none;fill-rule:evenodd;stroke:#000000;stroke-width:1px;stroke-linecap:butt;stroke-linejoin:miter;stroke-opacity:1"
             d="m 825.59055,35.433065 h 14.17323"
             id="path3470" />
        </g>
        <g
           transform="translate(-24.803193,60.236222)"
           id="g3472">
          <g
             aria-label="CG"
             id="text3474"
             style="line-height:0%;font-family:Iwona;-inkscape-font-specification:Iwona;text-align:center;text-anchor:middle">
            <path
               d="m 831.7152,39.146984 v -0.702 c -0.702,-1.014 -1.859,-1.612 -3.081,-1.612 -2.639,0 -4.069,1.924 -4.069,4.68 0,2.756 1.43,4.68 4.069,4.68 1.014,0 2.015,-0.299 2.873,-0.858 v -0.598 c -0.858,0.559 -1.859,0.858 -2.873,0.858 -2.041,0 -2.795,-1.807 -2.795,-4.082 0,-2.275 0.754,-4.082 2.795,-4.082 1.248,0 2.418,0.65 3.081,1.716 z"
               style="font-size:13px;line-height:1.25"
               id="path286" />
            <path
               d="m 840.52919,46.062984 v -3.822 h -1.066 v 2.509 c -0.676,0.546 -1.508,0.845 -2.379,0.845 -2.067,0 -2.925,-1.781 -2.925,-4.082 0,-2.301 0.858,-4.082 2.925,-4.082 1.222,0 2.379,0.481 3.237,1.352 v -0.598 c -0.858,-0.871 -2.015,-1.352 -3.237,-1.352 -2.678,0 -4.199,1.898 -4.199,4.68 0,2.782 1.521,4.68 4.199,4.68 0.871,0 1.703,-0.299 2.379,-0.845 v 0.715 z"
               style="font-size:13px;line-height:1.25"
               id="path288" />
          </g>
          <path
             id="path3478"
             d="m 825.59055,35.433065 h 14.17323"
             style="fill:none;fill-rule:evenodd;stroke:#000000;stroke-width:1px;stroke-linecap:butt;stroke-linejoin:miter;stroke-opacity:1" />
        </g>
        <g
           aria-label="⋅"
           id="text3480"
           style="line-height:0%;font-family:Iwona;-inkscape-font-specification:Iwona;text-align:center;text-anchor:middle">
          <path
             d="m 793.0094,100.97987 h 1.33935 v 1.61231 h -1.33935 z"
             style="font-size:13px;line-height:1.25"
             id="path291" />
        </g>
      </g>
    </g>
    <g
       id="g3497"
       transform="translate(-0.39519448,17.716524)">
      <g
         aria-label="/ MGA, MDA"
         id="text4660"
         style="line-height:0%;font-family:Iwona;-inkscape-font-specification:Iwona;text-align:center;text-anchor:middle">
        <path
           d="m 771.14177,309.79764 h -0.676 l -2.652,10.595 h 0.676 z"
           style="font-size:13px;line-height:1.25;fill:#ff0000"
           id="path294" />
        <path
           d="m 786.81974,318.89764 -0.52,-9.1 h -0.858 l -3.653,7.683 -3.666,-7.683 h -0.858 l -0.52,9.1 h 0.598 l 0.416,-7.371 3.523,7.371 h 0.481 l 3.562,-7.462 0.429,7.462 z"
           style="font-size:13px;line-height:1.25;fill:#ff0000"
           id="path296" />
        <path
           d="m 796.02372,318.89764 v -3.822 h -1.066 v 2.509 c -0.676,0.546 -1.508,0.845 -2.379,0.845 -2.067,0 -2.925,-1.781 -2.925,-4.082 0,-2.301 0.858,-4.082 2.925,-4.082 1.222,0 2.379,0.481 3.237,1.352 v -0.598 c -0.858,-0.871 -2.015,-1.352 -3.237,-1.352 -2.678,0 -4.199,1.898 -4.199,4.68 0,2.782 1.521,4.68 4.199,4.68 0.871,0 1.703,-0.299 2.379,-0.845 v 0.715 z"
           style="font-size:13px;line-height:1.25;fill:#ff0000"
           id="path298" />
        <path
           d="m 804.9937,318.89764 -3.302,-9.1 h -1.131 l -3.367,9.1 h 0.637 l 1.183,-3.185 h 3.692 l 1.157,3.185 z m -2.509,-3.783 h -3.25 l 1.638,-4.446 z"
           style="font-size:13px;line-height:1.25;fill:#ff0000"
           id="path300" />
        <path
           d="m 807.15169,317.62364 h -1.014 c 0,0.936 -0.156,1.872 -0.455,2.769 h 0.546 c 0.598,-0.793 0.923,-1.768 0.923,-2.769 z"
           style="font-size:13px;line-height:1.25;fill:#ff0000"
           id="path302" />
        <path
           d="m 823.08965,318.89764 -0.52,-9.1 h -0.858 l -3.653,7.683 -3.666,-7.683 h -0.858 l -0.52,9.1 h 0.598 l 0.416,-7.371 3.523,7.371 h 0.481 l 3.562,-7.462 0.429,7.462 z"
           style="font-size:13px;line-height:1.25;fill:#ff0000"
           id="path304" />
        <path
           d="m 832.81363,314.34764 c 0,-2.782 -1.521,-4.68 -4.199,-4.68 -0.806,0 -1.612,0.039 -2.405,0.13 h -1.04 v 9.1 h 1.04 c 0.793,0.091 1.599,0.13 2.405,0.13 2.678,0 4.199,-1.898 4.199,-4.68 z m -1.274,0 c 0,2.067 -1.053,4.082 -2.925,4.082 -0.793,0 -1.586,-0.039 -2.379,-0.13 v -7.904 c 0.793,-0.091 1.586,-0.13 2.379,-0.13 1.872,0 2.925,2.015 2.925,4.082 z"
           style="font-size:13px;line-height:1.25;fill:#ff0000"
           id="path306" />
        <path
           d="m 841.21162,318.89764 -3.302,-9.1 h -1.131 l -3.367,9.1 h 0.637 l 1.183,-3.185 h 3.692 l 1.157,3.185 z m -2.509,-3.783 h -3.25 l 1.638,-4.446 z"
           style="font-size:13px;line-height:1.25;fill:#ff0000"
           id="path308" />
      </g>
      <g
         id="g3496"
         transform="translate(-56.69286,212.59842)">
        <g
           transform="translate(-53.149629,60.236222)"
           id="g3498">
          <g
             aria-label="CA"
             id="text3500"
             style="line-height:0%;font-family:Iwona;-inkscape-font-specification:Iwona;text-align:center;text-anchor:middle">
            <path
               d="m 832.4172,39.146984 v -0.702 c -0.702,-1.014 -1.859,-1.612 -3.081,-1.612 -2.639,0 -4.069,1.924 -4.069,4.68 0,2.756 1.43,4.68 4.069,4.68 1.014,0 2.015,-0.299 2.873,-0.858 v -0.598 c -0.858,0.559 -1.859,0.858 -2.873,0.858 -2.041,0 -2.795,-1.807 -2.795,-4.082 0,-2.275 0.754,-4.082 2.795,-4.082 1.248,0 2.418,0.65 3.081,1.716 z"
               style="font-size:13px;line-height:1.25"
               id="path311" />
            <path
               d="m 840.73719,46.062984 -3.302,-9.1 h -1.131 l -3.367,9.1 h 0.637 l 1.183,-3.185 h 3.692 l 1.157,3.185 z m -2.509,-3.783 h -3.25 l 1.638,-4.446 z"
               style="font-size:13px;line-height:1.25"
               id="path313" />
          </g>
          <path
             id="path3504"
             d="m 825.59055,35.433065 h 14.17323"
             style="fill:none;fill-rule:evenodd;stroke:#000000;stroke-width:1px;stroke-linecap:butt;stroke-linejoin:miter;stroke-opacity:1" />
        </g>
        <g
           aria-label="CG"
           id="text3508"
           style="line-height:0%;font-family:Iwona;-inkscape-font-specification:Iwona;text-align:center;text-anchor:middle">
          <path
             d="m 806.91197,99.38321 v -0.702 c -0.702,-1.014 -1.859,-1.612 -3.081,-1.612 -2.639,0 -4.069,1.924 -4.069,4.68 0,2.756 1.43,4.68 4.069,4.68 1.014,0 2.015,-0.299 2.873,-0.858 v -0.598 c -0.858,0.559 -1.859,0.858 -2.873,0.858 -2.041,0 -2.795,-1.807 -2.795,-4.082 0,-2.275 0.754,-4.082 2.795,-4.082 1.248,0 2.418,0.65 3.081,1.716 z"
             style="font-size:13px;line-height:1.25"
             id="path316" />
          <path
             d="m 815.72597,106.29921 v -3.822 h -1.066 v 2.509 c -0.676,0.546 -1.508,0.845 -2.379,0.845 -2.067,0 -2.925,-1.781 -2.925,-4.082 0,-2.301 0.858,-4.082 2.925,-4.082 1.222,0 2.379,0.481 3.237,1.352 v -0.598 c -0.858,-0.871 -2.015,-1.352 -3.237,-1.352 -2.678,0 -4.199,1.898 -4.199,4.68 0,2.782 1.521,4.68 4.199,4.68 0.871,0 1.703,-0.299 2.379,-0.845 v 0.715 z"
             style="font-size:13px;line-height:1.25"
             id="path318" />
        </g>
        <g
           aria-label="⋅"
           id="text3514"
           style="line-height:0%;font-family:Iwona;-inkscape-font-specification:Iwona;text-align:center;text-anchor:middle">
          <path
             d="m 793.0094,100.97987 h 1.33935 v 1.61231 h -1.33935 z"
             style="font-size:13px;line-height:1.25"
             id="path321" />
        </g>
      </g>
    </g>
    <g
       transform="translate(-101.37792,102.75589)"
       id="g3510">
      <g
         aria-label="/ MGA, MDA"
         id="text3512"
         style="line-height:0%;font-family:Iwona;-inkscape-font-specification:Iwona;text-align:center;text-anchor:middle">
        <path
           d="m 771.14177,309.79764 h -0.676 l -2.652,10.595 h 0.676 z"
           style="font-size:13px;line-height:1.25;fill:#ff0000"
           id="path324" />
        <path
           d="m 786.81974,318.89764 -0.52,-9.1 h -0.858 l -3.653,7.683 -3.666,-7.683 h -0.858 l -0.52,9.1 h 0.598 l 0.416,-7.371 3.523,7.371 h 0.481 l 3.562,-7.462 0.429,7.462 z"
           style="font-size:13px;line-height:1.25;fill:#ff0000"
           id="path326" />
        <path
           d="m 796.02372,318.89764 v -3.822 h -1.066 v 2.509 c -0.676,0.546 -1.508,0.845 -2.379,0.845 -2.067,0 -2.925,-1.781 -2.925,-4.082 0,-2.301 0.858,-4.082 2.925,-4.082 1.222,0 2.379,0.481 3.237,1.352 v -0.598 c -0.858,-0.871 -2.015,-1.352 -3.237,-1.352 -2.678,0 -4.199,1.898 -4.199,4.68 0,2.782 1.521,4.68 4.199,4.68 0.871,0 1.703,-0.299 2.379,-0.845 v 0.715 z"
           style="font-size:13px;line-height:1.25;fill:#ff0000"
           id="path328" />
        <path
           d="m 804.9937,318.89764 -3.302,-9.1 h -1.131 l -3.367,9.1 h 0.637 l 1.183,-3.185 h 3.692 l 1.157,3.185 z m -2.509,-3.783 h -3.25 l 1.638,-4.446 z"
           style="font-size:13px;line-height:1.25;fill:#ff0000"
           id="path330" />
        <path
           d="m 807.15169,317.62364 h -1.014 c 0,0.936 -0.156,1.872 -0.455,2.769 h 0.546 c 0.598,-0.793 0.923,-1.768 0.923,-2.769 z"
           style="font-size:13px;line-height:1.25;fill:#ff0000"
           id="path332" />
        <path
           d="m 823.08965,318.89764 -0.52,-9.1 h -0.858 l -3.653,7.683 -3.666,-7.683 h -0.858 l -0.52,9.1 h 0.598 l 0.416,-7.371 3.523,7.371 h 0.481 l 3.562,-7.462 0.429,7.462 z"
           style="font-size:13px;line-height:1.25;fill:#ff0000"
           id="path334" />
        <path
           d="m 832.81363,314.34764 c 0,-2.782 -1.521,-4.68 -4.199,-4.68 -0.806,0 -1.612,0.039 -2.405,0.13 h -1.04 v 9.1 h 1.04 c 0.793,0.091 1.599,0.13 2.405,0.13 2.678,0 4.199,-1.898 4.199,-4.68 z m -1.274,0 c 0,2.067 -1.053,4.082 -2.925,4.082 -0.793,0 -1.586,-0.039 -2.379,-0.13 v -7.904 c 0.793,-0.091 1.586,-0.13 2.379,-0.13 1.872,0 2.925,2.015 2.925,4.082 z"
           style="font-size:13px;line-height:1.25;fill:#ff0000"
           id="path336" />
        <path
           d="m 841.21162,318.89764 -3.302,-9.1 h -1.131 l -3.367,9.1 h 0.637 l 1.183,-3.185 h 3.692 l 1.157,3.185 z m -2.509,-3.783 h -3.25 l 1.638,-4.446 z"
           style="font-size:13px;line-height:1.25;fill:#ff0000"
           id="path338" />
      </g>
      <g
         transform="translate(-56.69286,212.59842)"
         id="g3516">
        <g
           id="g3518"
           transform="translate(-53.149629,60.236222)">
          <g
             aria-label="CA"
             id="text3520"
             style="line-height:0%;font-family:Iwona;-inkscape-font-specification:Iwona;text-align:center;text-anchor:middle">
            <path
               d="m 832.4172,39.146984 v -0.702 c -0.702,-1.014 -1.859,-1.612 -3.081,-1.612 -2.639,0 -4.069,1.924 -4.069,4.68 0,2.756 1.43,4.68 4.069,4.68 1.014,0 2.015,-0.299 2.873,-0.858 v -0.598 c -0.858,0.559 -1.859,0.858 -2.873,0.858 -2.041,0 -2.795,-1.807 -2.795,-4.082 0,-2.275 0.754,-4.082 2.795,-4.082 1.248,0 2.418,0.65 3.081,1.716 z"
               style="font-size:13px;line-height:1.25"
               id="path341" />
            <path
               d="m 840.73719,46.062984 -3.302,-9.1 h -1.131 l -3.367,9.1 h 0.637 l 1.183,-3.185 h 3.692 l 1.157,3.185 z m -2.509,-3.783 h -3.25 l 1.638,-4.446 z"
               style="font-size:13px;line-height:1.25"
               id="path343" />
          </g>
          <path
             style="fill:none;fill-rule:evenodd;stroke:#000000;stroke-width:1px;stroke-linecap:butt;stroke-linejoin:miter;stroke-opacity:1"
             d="m 825.59055,35.433065 h 14.17323"
             id="path3524" />
        </g>
        <g
           aria-label="CG"
           id="text3526"
           style="line-height:0%;font-family:Iwona;-inkscape-font-specification:Iwona;text-align:center;text-anchor:middle">
          <path
             d="m 806.91197,99.38321 v -0.702 c -0.702,-1.014 -1.859,-1.612 -3.081,-1.612 -2.639,0 -4.069,1.924 -4.069,4.68 0,2.756 1.43,4.68 4.069,4.68 1.014,0 2.015,-0.299 2.873,-0.858 v -0.598 c -0.858,0.559 -1.859,0.858 -2.873,0.858 -2.041,0 -2.795,-1.807 -2.795,-4.082 0,-2.275 0.754,-4.082 2.795,-4.082 1.248,0 2.418,0.65 3.081,1.716 z"
             style="font-size:13px;line-height:1.25"
             id="path346" />
          <path
             d="m 815.72597,106.29921 v -3.822 h -1.066 v 2.509 c -0.676,0.546 -1.508,0.845 -2.379,0.845 -2.067,0 -2.925,-1.781 -2.925,-4.082 0,-2.301 0.858,-4.082 2.925,-4.082 1.222,0 2.379,0.481 3.237,1.352 v -0.598 c -0.858,-0.871 -2.015,-1.352 -3.237,-1.352 -2.678,0 -4.199,1.898 -4.199,4.68 0,2.782 1.521,4.68 4.199,4.68 0.871,0 1.703,-0.299 2.379,-0.845 v 0.715 z"
             style="font-size:13px;line-height:1.25"
             id="path348" />
        </g>
        <g
           aria-label="⋅"
           id="text3530"
           style="line-height:0%;font-family:Iwona;-inkscape-font-specification:Iwona;text-align:center;text-anchor:middle">
          <path
             d="m 793.0094,100.97987 h 1.33935 v 1.61231 h -1.33935 z"
             style="font-size:13px;line-height:1.25"
             id="path351" />
        </g>
      </g>
    </g>
    <g
       transform="translate(12.007868,496.06299)"
       id="g3562">
      <g
         aria-label="CG"
         id="text3564"
         style="line-height:0%;font-family:Iwona;-inkscape-font-specification:Iwona;text-align:center;text-anchor:middle">
        <path
           d="m 831.7152,39.146984 v -0.702 c -0.702,-1.014 -1.859,-1.612 -3.081,-1.612 -2.639,0 -4.069,1.924 -4.069,4.68 0,2.756 1.43,4.68 4.069,4.68 1.014,0 2.015,-0.299 2.873,-0.858 v -0.598 c -0.858,0.559 -1.859,0.858 -2.873,0.858 -2.041,0 -2.795,-1.807 -2.795,-4.082 0,-2.275 0.754,-4.082 2.795,-4.082 1.248,0 2.418,0.65 3.081,1.716 z"
           style="font-size:13px;line-height:1.25"
           id="path354" />
        <path
           d="m 840.52919,46.062984 v -3.822 h -1.066 v 2.509 c -0.676,0.546 -1.508,0.845 -2.379,0.845 -2.067,0 -2.925,-1.781 -2.925,-4.082 0,-2.301 0.858,-4.082 2.925,-4.082 1.222,0 2.379,0.481 3.237,1.352 v -0.598 c -0.858,-0.871 -2.015,-1.352 -3.237,-1.352 -2.678,0 -4.199,1.898 -4.199,4.68 0,2.782 1.521,4.68 4.199,4.68 0.871,0 1.703,-0.299 2.379,-0.845 v 0.715 z"
           style="font-size:13px;line-height:1.25"
           id="path356" />
      </g>
      <path
         id="path3568"
         d="m 825.59055,35.433065 h 14.17323"
         style="fill:none;fill-rule:evenodd;stroke:#000000;stroke-width:1px;stroke-linecap:butt;stroke-linejoin:miter;stroke-opacity:1" />
    </g>
    <g
       transform="translate(-58.858201,435.82677)"
       id="g3539">
      <g
         aria-label="CA"
         id="text3543"
         style="line-height:0%;font-family:Iwona;-inkscape-font-specification:Iwona;text-align:center;text-anchor:middle">
        <path
           d="m 779.26754,99.38321 v -0.702 c -0.702,-1.014 -1.859,-1.612 -3.081,-1.612 -2.639,0 -4.069,1.924 -4.069,4.68 0,2.756 1.43,4.68 4.069,4.68 1.014,0 2.015,-0.299 2.873,-0.858 v -0.598 c -0.858,0.559 -1.859,0.858 -2.873,0.858 -2.041,0 -2.795,-1.807 -2.795,-4.082 0,-2.275 0.754,-4.082 2.795,-4.082 1.248,0 2.418,0.65 3.081,1.716 z"
           style="font-size:13px;line-height:1.25"
           id="path359" />
        <path
           d="m 787.58753,106.29921 -3.302,-9.1 h -1.131 l -3.367,9.1 h 0.637 l 1.183,-3.185 h 3.692 l 1.157,3.185 z m -2.509,-3.783 h -3.25 l 1.638,-4.446 z"
           style="font-size:13px;line-height:1.25"
           id="path361" />
      </g>
      <g
         aria-label="CG"
         id="text3549"
         style="line-height:0%;font-family:Iwona;-inkscape-font-specification:Iwona;text-align:center;text-anchor:middle">
        <path
           d="m 806.91197,99.38321 v -0.702 c -0.702,-1.014 -1.859,-1.612 -3.081,-1.612 -2.639,0 -4.069,1.924 -4.069,4.68 0,2.756 1.43,4.68 4.069,4.68 1.014,0 2.015,-0.299 2.873,-0.858 v -0.598 c -0.858,0.559 -1.859,0.858 -2.873,0.858 -2.041,0 -2.795,-1.807 -2.795,-4.082 0,-2.275 0.754,-4.082 2.795,-4.082 1.248,0 2.418,0.65 3.081,1.716 z"
           style="font-size:13px;line-height:1.25"
           id="path364" />
        <path
           d="m 815.72597,106.29921 v -3.822 h -1.066 v 2.509 c -0.676,0.546 -1.508,0.845 -2.379,0.845 -2.067,0 -2.925,-1.781 -2.925,-4.082 0,-2.301 0.858,-4.082 2.925,-4.082 1.222,0 2.379,0.481 3.237,1.352 v -0.598 c -0.858,-0.871 -2.015,-1.352 -3.237,-1.352 -2.678,0 -4.199,1.898 -4.199,4.68 0,2.782 1.521,4.68 4.199,4.68 0.871,0 1.703,-0.299 2.379,-0.845 v 0.715 z"
           style="font-size:13px;line-height:1.25"
           id="path366" />
      </g>
      <g
         aria-label="⋅"
         id="text3553"
         style="line-height:0%;font-family:Iwona;-inkscape-font-specification:Iwona;text-align:center;text-anchor:middle">
        <path
           d="m 793.0094,100.97987 h 1.33935 v 1.61231 h -1.33935 z"
           style="font-size:13px;line-height:1.25"
           id="path369" />
      </g>
    </g>
    <g
       id="g3592"
       transform="translate(-39.625754)">
      <g
         aria-label="/ MGA, MDR"
         id="text4700"
         style="line-height:0%;font-family:Iwona;-inkscape-font-specification:Iwona;text-align:center;text-anchor:middle">
        <path
           d="m 518.09503,717.3599 h -0.676 l -2.652,10.595 h 0.676 z"
           style="font-size:13px;line-height:1.25;fill:#ff0000"
           id="path372" />
        <path
           d="m 533.77299,726.4599 -0.52,-9.1 h -0.858 l -3.653,7.683 -3.666,-7.683 h -0.858 l -0.52,9.1 h 0.598 l 0.416,-7.371 3.523,7.371 h 0.481 l 3.562,-7.462 0.429,7.462 z"
           style="font-size:13px;line-height:1.25;fill:#ff0000"
           id="path374" />
        <path
           d="m 542.97697,726.4599 v -3.822 h -1.066 v 2.509 c -0.676,0.546 -1.508,0.845 -2.379,0.845 -2.067,0 -2.925,-1.781 -2.925,-4.082 0,-2.301 0.858,-4.082 2.925,-4.082 1.222,0 2.379,0.481 3.237,1.352 v -0.598 c -0.858,-0.871 -2.015,-1.352 -3.237,-1.352 -2.678,0 -4.199,1.898 -4.199,4.68 0,2.782 1.521,4.68 4.199,4.68 0.871,0 1.703,-0.299 2.379,-0.845 v 0.715 z"
           style="font-size:13px;line-height:1.25;fill:#ff0000"
           id="path376" />
        <path
           d="m 551.94696,726.4599 -3.302,-9.1 h -1.131 l -3.367,9.1 h 0.637 l 1.183,-3.185 h 3.692 l 1.157,3.185 z m -2.509,-3.783 h -3.25 l 1.638,-4.446 z"
           style="font-size:13px;line-height:1.25;fill:#ff0000"
           id="path378" />
        <path
           d="m 554.10494,725.1859 h -1.014 c 0,0.936 -0.156,1.872 -0.455,2.769 h 0.546 c 0.598,-0.793 0.923,-1.768 0.923,-2.769 z"
           style="font-size:13px;line-height:1.25;fill:#ff0000"
           id="path380" />
        <path
           d="m 570.04291,726.4599 -0.52,-9.1 h -0.858 l -3.653,7.683 -3.666,-7.683 h -0.858 l -0.52,9.1 h 0.598 l 0.416,-7.371 3.523,7.371 h 0.481 l 3.562,-7.462 0.429,7.462 z"
           style="font-size:13px;line-height:1.25;fill:#ff0000"
           id="path382" />
        <path
           d="m 579.76689,721.9099 c 0,-2.782 -1.521,-4.68 -4.199,-4.68 -0.806,0 -1.612,0.039 -2.405,0.13 h -1.04 v 9.1 h 1.04 c 0.793,0.091 1.599,0.13 2.405,0.13 2.678,0 4.199,-1.898 4.199,-4.68 z m -1.274,0 c 0,2.067 -1.053,4.082 -2.925,4.082 -0.793,0 -1.586,-0.039 -2.379,-0.13 v -7.904 c 0.793,-0.091 1.586,-0.13 2.379,-0.13 1.872,0 2.925,2.015 2.925,4.082 z"
           style="font-size:13px;line-height:1.25;fill:#ff0000"
           id="path384" />
        <path
           d="m 588.91888,726.4599 -2.769,-4.121 c 1.417,-0.273 2.392,-1.053 2.392,-2.509 0,-1.833 -1.573,-2.6 -3.614,-2.6 -0.728,0 -1.456,0.039 -2.171,0.13 h -1.04 v 9.1 h 1.066 v -4.225 c 0.702,0.13 1.43,0.208 2.145,0.208 l 2.717,4.017 z m -1.651,-6.63 c 0,1.183 -1.105,2.015 -2.34,2.015 -0.715,0 -1.443,-0.078 -2.145,-0.208 v -3.679 c 0.715,-0.091 1.43,-0.13 2.145,-0.13 1.235,0 2.34,0.832 2.34,2.002 z"
           style="font-size:13px;line-height:1.25;fill:#ff0000"
           id="path386" />
      </g>
      <g
         transform="translate(-332.51059,680.8751)"
         id="g3456">
        <g
           aria-label="FR"
           id="text3458"
           style="line-height:0%;font-family:Iwona;-inkscape-font-specification:Iwona;text-align:center;text-anchor:middle">
          <path
             d="m 831.84519,37.560984 v -0.598 h -6.188 v 9.1 h 1.066 v -4.251 h 4.134 v -0.598 h -4.134 v -3.653 z"
             style="font-size:13px;line-height:1.25"
             id="path389" />
          <path
             d="m 840.86719,46.062984 -2.769,-4.121 c 1.417,-0.273 2.392,-1.053 2.392,-2.509 0,-1.833 -1.573,-2.6 -3.614,-2.6 -0.728,0 -1.456,0.039 -2.171,0.13 h -1.04 v 9.1 h 1.066 v -4.225 c 0.702,0.13 1.43,0.208 2.145,0.208 l 2.717,4.017 z m -1.651,-6.63 c 0,1.183 -1.105,2.015 -2.34,2.015 -0.715,0 -1.443,-0.078 -2.145,-0.208 v -3.679 c 0.715,-0.091 1.43,-0.13 2.145,-0.13 1.235,0 2.34,0.832 2.34,2.002 z"
             style="font-size:13px;line-height:1.25"
             id="path391" />
        </g>
        <path
           id="path3462"
           d="m 825.59055,35.433065 h 14.17323"
           style="fill:none;fill-rule:evenodd;stroke:#000000;stroke-width:1px;stroke-linecap:butt;stroke-linejoin:miter;stroke-opacity:1" />
      </g>
    </g>
    <g
       transform="translate(360.37425)"
       id="g3602">
      <g
         aria-label="/ MGR, MDA"
         id="text3604"
         style="line-height:0%;font-family:Iwona;-inkscape-font-specification:Iwona;text-align:center;text-anchor:middle">
        <path
           d="m 518.25103,717.3599 h -0.676 l -2.652,10.595 h 0.676 z"
           style="font-size:13px;line-height:1.25;fill:#ff0000"
           id="path394" />
        <path
           d="m 533.92899,726.4599 -0.52,-9.1 h -0.858 l -3.653,7.683 -3.666,-7.683 h -0.858 l -0.52,9.1 h 0.598 l 0.416,-7.371 3.523,7.371 h 0.481 l 3.562,-7.462 0.429,7.462 z"
           style="font-size:13px;line-height:1.25;fill:#ff0000"
           id="path396" />
        <path
           d="m 543.13298,726.4599 v -3.822 h -1.066 v 2.509 c -0.676,0.546 -1.508,0.845 -2.379,0.845 -2.067,0 -2.925,-1.781 -2.925,-4.082 0,-2.301 0.858,-4.082 2.925,-4.082 1.222,0 2.379,0.481 3.237,1.352 v -0.598 c -0.858,-0.871 -2.015,-1.352 -3.237,-1.352 -2.678,0 -4.199,1.898 -4.199,4.68 0,2.782 1.521,4.68 4.199,4.68 0.871,0 1.703,-0.299 2.379,-0.845 v 0.715 z"
           style="font-size:13px;line-height:1.25;fill:#ff0000"
           id="path398" />
        <path
           d="m 552.54496,726.4599 -2.769,-4.121 c 1.417,-0.273 2.392,-1.053 2.392,-2.509 0,-1.833 -1.573,-2.6 -3.614,-2.6 -0.728,0 -1.456,0.039 -2.171,0.13 h -1.04 v 9.1 h 1.066 v -4.225 c 0.702,0.13 1.43,0.208 2.145,0.208 l 2.717,4.017 z m -1.651,-6.63 c 0,1.183 -1.105,2.015 -2.34,2.015 -0.715,0 -1.443,-0.078 -2.145,-0.208 v -3.679 c 0.715,-0.091 1.43,-0.13 2.145,-0.13 1.235,0 2.34,0.832 2.34,2.002 z"
           style="font-size:13px;line-height:1.25;fill:#ff0000"
           id="path400" />
        <path
           d="m 554.70295,725.1859 h -1.014 c 0,0.936 -0.156,1.872 -0.455,2.769 h 0.546 c 0.598,-0.793 0.923,-1.768 0.923,-2.769 z"
           style="font-size:13px;line-height:1.25;fill:#ff0000"
           id="path402" />
        <path
           d="m 570.64091,726.4599 -0.52,-9.1 h -0.858 l -3.653,7.683 -3.666,-7.683 h -0.858 l -0.52,9.1 h 0.598 l 0.416,-7.371 3.523,7.371 h 0.481 l 3.562,-7.462 0.429,7.462 z"
           style="font-size:13px;line-height:1.25;fill:#ff0000"
           id="path404" />
        <path
           d="m 580.36489,721.9099 c 0,-2.782 -1.521,-4.68 -4.199,-4.68 -0.806,0 -1.612,0.039 -2.405,0.13 h -1.04 v 9.1 h 1.04 c 0.793,0.091 1.599,0.13 2.405,0.13 2.678,0 4.199,-1.898 4.199,-4.68 z m -1.274,0 c 0,2.067 -1.053,4.082 -2.925,4.082 -0.793,0 -1.586,-0.039 -2.379,-0.13 v -7.904 c 0.793,-0.091 1.586,-0.13 2.379,-0.13 1.872,0 2.925,2.015 2.925,4.082 z"
           style="font-size:13px;line-height:1.25;fill:#ff0000"
           id="path406" />
        <path
           d="m 588.76288,726.4599 -3.302,-9.1 h -1.131 l -3.367,9.1 h 0.637 l 1.183,-3.185 h 3.692 l 1.157,3.185 z m -2.509,-3.783 h -3.25 l 1.638,-4.446 z"
           style="font-size:13px;line-height:1.25;fill:#ff0000"
           id="path408" />
      </g>
      <g
         id="g3608"
         transform="translate(-332.51059,680.8751)">
        <g
           aria-label="FR"
           id="text3610"
           style="line-height:0%;font-family:Iwona;-inkscape-font-specification:Iwona;text-align:center;text-anchor:middle">
          <path
             d="m 831.84519,37.560984 v -0.598 h -6.188 v 9.1 h 1.066 v -4.251 h 4.134 v -0.598 h -4.134 v -3.653 z"
             style="font-size:13px;line-height:1.25"
             id="path411" />
          <path
             d="m 840.86719,46.062984 -2.769,-4.121 c 1.417,-0.273 2.392,-1.053 2.392,-2.509 0,-1.833 -1.573,-2.6 -3.614,-2.6 -0.728,0 -1.456,0.039 -2.171,0.13 h -1.04 v 9.1 h 1.066 v -4.225 c 0.702,0.13 1.43,0.208 2.145,0.208 l 2.717,4.017 z m -1.651,-6.63 c 0,1.183 -1.105,2.015 -2.34,2.015 -0.715,0 -1.443,-0.078 -2.145,-0.208 v -3.679 c 0.715,-0.091 1.43,-0.13 2.145,-0.13 1.235,0 2.34,0.832 2.34,2.002 z"
             style="font-size:13px;line-height:1.25"
             id="path413" />
        </g>
        <path
           style="fill:none;fill-rule:evenodd;stroke:#000000;stroke-width:1px;stroke-linecap:butt;stroke-linejoin:miter;stroke-opacity:1"
           d="m 825.59055,35.433065 h 14.17323"
           id="path3614" />
      </g>
    </g>
    <path
       id="path3586"
       d="m 767.126,453.5433 c -31.40483,5.54017 -35.09828,-15.39638 -23.60288,-31.81638 11.49541,-16.42001 32.43196,-20.11346 37.97214,11.29138"
       style="fill:none;stroke:#000000;stroke-width:1px;stroke-linecap:butt;stroke-linejoin:miter;stroke-opacity:1;marker-end:url(#Arrow1Lend-7)" />
    <path
       id="path3584"
       d="m 738.38584,216.14173 c 28.21794,-14.85613 18.31385,-33.66809 -0.83018,-39.60667 -19.14404,-5.93859 -37.956,3.9655 -23.09986,32.18345"
       style="fill:none;stroke:#000000;stroke-width:1px;stroke-linecap:butt;stroke-linejoin:miter;stroke-opacity:1;marker-end:url(#Arrow1Lend-9)" />
  </g>
</svg>
