<?xml version="1.0" encoding="UTF-8" standalone="no"?>
<!-- Created with Inkscape (http://www.inkscape.org/) -->

<svg
   width="141mm"
   height="37.281998mm"
   id="svg2"
   version="1.0"
   viewBox="0 0 499.6063 132.10157"
   xmlns="http://www.w3.org/2000/svg"
   xmlns:svg="http://www.w3.org/2000/svg"
   xmlns:rdf="http://www.w3.org/1999/02/22-rdf-syntax-ns#"
   xmlns:cc="http://creativecommons.org/ns#"
   xmlns:dc="http://purl.org/dc/elements/1.1/">
  <defs
     id="defs4">
    <marker
       style="overflow:visible"
       id="marker5778"
       refX="0"
       refY="0"
       orient="auto">
      <path
         transform="scale(-0.6)"
         d="M 8.7185878,4.0337352 -2.2072895,0.01601326 8.7185884,-4.0017078 c -1.7454984,2.3720609 -1.7354408,5.6174519 -6e-7,8.035443 z"
         style="fill:#000000;fill-opacity:1;fill-rule:evenodd;stroke:#000000;stroke-width:0.625;stroke-linejoin:round;stroke-opacity:1"
         id="path5780" />
    </marker>
    <marker
       style="overflow:visible"
       id="marker5160"
       refX="0"
       refY="0"
       orient="auto">
      <path
         transform="scale(-0.6)"
         d="M 8.7185878,4.0337352 -2.2072895,0.01601326 8.7185884,-4.0017078 c -1.7454984,2.3720609 -1.7354408,5.6174519 -6e-7,8.035443 z"
         style="fill:#000000;fill-opacity:1;fill-rule:evenodd;stroke:#000000;stroke-width:0.625;stroke-linejoin:round;stroke-opacity:1"
         id="path5162" />
    </marker>
    <marker
       orient="auto"
       refY="0"
       refX="0"
       id="marker4854"
       style="overflow:visible">
      <path
         id="path4856"
         style="fill:#000000;fill-opacity:1;fill-rule:evenodd;stroke:#000000;stroke-width:0.625;stroke-linejoin:round;stroke-opacity:1"
         d="M 8.7185878,4.0337352 -2.2072895,0.01601326 8.7185884,-4.0017078 c -1.7454984,2.3720609 -1.7354408,5.6174519 -6e-7,8.035443 z"
         transform="scale(-0.6)" />
    </marker>
    <marker
       style="overflow:visible"
       id="marker4482"
       refX="0"
       refY="0"
       orient="auto">
      <path
         transform="scale(-0.6)"
         d="M 8.7185878,4.0337352 -2.2072895,0.01601326 8.7185884,-4.0017078 c -1.7454984,2.3720609 -1.7354408,5.6174519 -6e-7,8.035443 z"
         style="fill:#000000;fill-opacity:1;fill-rule:evenodd;stroke:#000000;stroke-width:0.625;stroke-linejoin:round;stroke-opacity:1"
         id="path4484" />
    </marker>
    <marker
       orient="auto"
       refY="0"
       refX="0"
       id="Arrow2Mend"
       style="overflow:visible">
      <path
         id="path4231"
         style="fill:#000000;fill-opacity:1;fill-rule:evenodd;stroke:#000000;stroke-width:0.625;stroke-linejoin:round;stroke-opacity:1"
         d="M 8.7185878,4.0337352 -2.2072895,0.01601326 8.7185884,-4.0017078 c -1.7454984,2.3720609 -1.7354408,5.6174519 -6e-7,8.035443 z"
         transform="scale(-0.6)" />
    </marker>
  </defs>
  <metadata
     id="metadata7">
    <rdf:RDF>
      <cc:Work
         rdf:about="">
        <dc:format>image/svg+xml</dc:format>
        <dc:type
           rdf:resource="http://purl.org/dc/dcmitype/StillImage" />
        <dc:title />
      </cc:Work>
    </rdf:RDF>
  </metadata>
  <g
     id="layer1"
     transform="translate(7.0866141,57.19255)">
    <path
       id="path4196"
       d="M 485.43307,-49.60633 H 364.96063 V 67.322799 h 120.47244"
       style="fill:#d8eff4;fill-opacity:1;fill-rule:evenodd;stroke:#000000;stroke-width:0.999213;stroke-linecap:butt;stroke-linejoin:miter;stroke-miterlimit:4;stroke-dasharray:2.99764, 2.99764;stroke-dashoffset:0;stroke-opacity:1" />
    <path
       id="rect2385"
       style="fill:#afdde9;stroke:#000000;stroke-width:0.992126"
       d="M 159.44882,-49.606323 H 333.07088 V 67.023628 H 159.44882 Z" />
    <path
       style="fill:#afdde9;fill-opacity:1;fill-rule:evenodd;stroke:#000000;stroke-width:1px;stroke-linecap:butt;stroke-linejoin:miter;stroke-opacity:1"
       d="m 152.3622,-17.716566 v 14.1732287 h 10.62992 l 7.08662,-7.0866157 -7.08662,-7.086613 z"
       id="path2387" />
    <path
       id="path2393"
       d="m 325.98425,-17.716567 v 14.1732292 h 10.62992 l 7.08662,-7.0866202 -7.08662,-7.086609 z"
       style="fill:#afdde9;fill-opacity:1;fill-rule:evenodd;stroke:#000000;stroke-width:1px;stroke-linecap:butt;stroke-linejoin:miter;stroke-opacity:1" />
    <g
       aria-label="BA"
       id="text2395"
       style="font-style:italic;line-height:0%;font-family:Iwona;-inkscape-font-specification:'Sans Italic'">
      <path
         d="m 181.12204,-9.3666451 c 0,-1.3199999 -0.864,-2.0159999 -2.124,-2.2799999 0.924,-0.276 1.536,-0.876 1.536,-1.896 0,-1.464 -1.26,-2.064 -2.88,-2.064 -0.624,0 -1.248,0.036 -1.872,0.12 h -0.96 v 8.3999999 h 0.96 l 1.872,0.12 c 1.944,0 3.468,-0.66 3.468,-2.4 z m -1.572,-4.1759999 c 0,1.212 -1.356,1.836 -2.712,1.836 h -1.032 v -3.228 c 0.612,-0.084 1.236,-0.12 1.848,-0.12 0.984,0 1.896,0.6 1.896,1.512 z m 0.396,4.1759999 c 0,1.104 -1.092,1.848 -2.292,1.848 -0.612,0 -1.236,-0.036 -1.848,-0.12 v -3.6479999 h 1.548 c 1.32,0 2.592,0.708 2.592,1.9199999 z"
         style="font-style:normal;font-size:12px;line-height:1.25"
         id="path67" />
      <path
         d="m 189.16203,-7.0866451 -3.048,-8.3999999 h -1.044 l -3.108,8.3999999 h 0.588 l 1.092,-2.9399999 h 3.408 l 1.068,2.9399999 z m -2.316,-3.4919999 h -3 l 1.512,-4.104 z"
         style="font-style:normal;font-size:12px;line-height:1.25"
         id="path69" />
    </g>
    <g
       aria-label="Partie commande
du robot"
       id="text2411"
       style="font-style:italic;line-height:0%;font-family:Iwona;-inkscape-font-specification:'Sans Italic';text-align:center;text-anchor:middle">
      <path
         d="m 197.3735,-36.506489 c 0,-2.256 -1.936,-3.2 -4.448,-3.2 -0.896,0 -1.792,0.048 -2.672,0.16 h -1.28 v 11.2 h 1.312 v -5.2 c 0.864,0.16 1.76,0.256 2.64,0.256 2.512,0 4.448,-0.944 4.448,-3.216 z m -1.568,0 c 0,1.456 -1.36,2.48 -2.88,2.48 -0.88,0 -1.776,-0.096 -2.64,-0.256 v -4.528 c 0.88,-0.112 1.76,-0.16 2.64,-0.16 1.52,0 2.88,1.024 2.88,2.464 z"
         style="font-style:normal;font-size:16px;line-height:1.25"
         id="path72" />
      <path
         d="m 204.57347,-28.346489 v -4.48 c 0,-1.504 -0.928,-2.88 -2.32,-2.88 -1.024,0 -1.984,0.352 -2.848,0.896 v 0.496 c 0.72,-0.4 1.52,-0.656 2.352,-0.656 0.992,0 1.568,1.056 1.568,2.144 v 0.288 c -0.624,-0.272 -1.296,-0.432 -1.968,-0.432 -1.712,0 -2.976,0.784 -2.976,2.4 0,1.536 1.12,2.384 2.736,2.384 0.816,0 1.568,-0.368 2.208,-0.88 v 0.72 z m -1.248,-1.392 c -0.48,0.48 -1.072,0.88 -1.76,0.88 -1.072,0 -1.776,-0.656 -1.776,-1.712 0,-0.976 0.8,-1.728 1.776,-1.728 0.608,0 1.216,0.16 1.76,0.432 z"
         style="font-style:normal;font-size:16px;line-height:1.25"
         id="path74" />
      <path
         d="m 211.11745,-34.554489 v -0.992 c -0.176,-0.064 -0.368,-0.112 -0.544,-0.112 -0.896,0 -1.616,0.624 -2.192,1.312 v -1.2 h -1.248 v 7.2 h 1.248 v -5.328 c 0.48,-0.56 1.088,-1.04 1.824,-1.04 0.304,0 0.624,0.064 0.912,0.16 z"
         style="font-style:normal;font-size:16px;line-height:1.25"
         id="path76" />
      <path
         d="m 216.20542,-28.906489 v -0.48 c -0.256,0.256 -0.56,0.464 -0.928,0.464 -0.576,0 -0.608,-0.752 -0.608,-1.424 v -4.528 h 1.536 v -0.672 h -1.536 v -2.4 h -0.752 c 0,1.28 -0.736,2.48 -1.904,2.48 v 0.592 h 1.408 v 4.528 c 0,1.056 0.336,2.16 1.248,2.16 0.592,0 1.104,-0.32 1.536,-0.72 z"
         style="font-style:normal;font-size:16px;line-height:1.25"
         id="path78" />
      <path
         d="m 220.89339,-28.906489 v -0.48 c -0.304,0.256 -0.656,0.464 -1.056,0.464 -0.592,0 -0.704,-0.736 -0.704,-1.424 v -5.2 h -1.248 v 5.2 c 0,1.072 0.416,2.16 1.36,2.16 0.608,0 1.184,-0.304 1.648,-0.72 z m -1.6,-9.136 c 0,-0.432 -0.352,-0.784 -0.784,-0.784 -0.432,0 -0.784,0.352 -0.784,0.784 0,0.432 0.352,0.784 0.784,0.784 0.432,0 0.784,-0.352 0.784,-0.784 z"
         style="font-style:normal;font-size:16px;line-height:1.25"
         id="path80" />
      <path
         d="m 228.28538,-31.786489 v -0.16 c 0,-2.256 -1.232,-3.76 -3.088,-3.76 -1.872,0 -3.104,1.504 -3.104,3.76 0,2.256 1.232,3.76 3.104,3.76 0.8,0 1.584,-0.256 2.24,-0.72 v -0.672 c -0.752,0.48 -1.36,0.656 -2.24,0.656 -1.36,0 -1.696,-1.296 -1.696,-2.864 z m -1.408,-0.672 h -3.376 c 0,-1.28 0.544,-2.576 1.696,-2.576 1.136,0 1.68,1.296 1.68,2.576 z"
         style="font-style:normal;font-size:16px;line-height:1.25"
         id="path82" />
      <path
         d="m 240.87733,-33.882489 v -0.672 c -0.512,-0.72 -1.344,-1.152 -2.24,-1.152 -2,0 -3.344,1.504 -3.344,3.76 0,2.256 1.344,3.76 3.344,3.76 0.832,0 1.616,-0.416 2.08,-1.104 v -0.672 c -0.544,0.816 -1.104,1.104 -2.08,1.104 -1.152,0 -1.936,-1.232 -1.936,-3.088 0,-1.856 0.784,-3.088 1.936,-3.088 0.992,0 1.664,0.352 2.24,1.152 z"
         style="font-style:normal;font-size:16px;line-height:1.25"
         id="path84" />
      <path
         d="m 248.34931,-31.946489 c 0,-2.448 -1.088,-3.76 -3.088,-3.76 -2.016,0 -3.104,1.312 -3.104,3.76 0,2.448 1.088,3.76 3.104,3.76 2,0 3.088,-1.312 3.088,-3.76 z m -1.408,0 c 0,2 -0.592,3.088 -1.68,3.088 -1.104,0 -1.696,-1.088 -1.696,-3.088 0,-2 0.592,-3.088 1.696,-3.088 1.088,0 1.68,1.088 1.68,3.088 z"
         style="font-style:normal;font-size:16px;line-height:1.25"
         id="path86" />
      <path
         d="m 259.24531,-28.346489 v -5.2 c 0,-1.12 -0.656,-2.16 -1.696,-2.16 -0.896,0 -1.728,0.464 -2.208,1.216 -0.256,-0.704 -0.8,-1.216 -1.536,-1.216 -0.832,0 -1.504,0.576 -2.048,1.216 v -1.056 h -1.248 v 7.2 h 1.248 v -5.664 c 0.384,-0.496 0.864,-0.96 1.488,-0.96 0.656,0 1.008,0.704 1.008,1.424 v 5.2 h 1.248 v -5.2 c 0,-0.192 -0.016,-0.368 -0.048,-0.56 0.384,-0.496 0.912,-0.864 1.536,-0.864 0.656,0 1.008,0.704 1.008,1.424 v 5.2 z"
         style="font-style:normal;font-size:16px;line-height:1.25"
         id="path88" />
      <path
         d="m 270.46128,-28.346489 v -5.2 c 0,-1.12 -0.656,-2.16 -1.696,-2.16 -0.896,0 -1.728,0.464 -2.208,1.216 -0.256,-0.704 -0.8,-1.216 -1.536,-1.216 -0.832,0 -1.504,0.576 -2.048,1.216 v -1.056 h -1.248 v 7.2 h 1.248 v -5.664 c 0.384,-0.496 0.864,-0.96 1.488,-0.96 0.656,0 1.008,0.704 1.008,1.424 v 5.2 h 1.248 v -5.2 c 0,-0.192 -0.016,-0.368 -0.048,-0.56 0.384,-0.496 0.912,-0.864 1.536,-0.864 0.656,0 1.008,0.704 1.008,1.424 v 5.2 z"
         style="font-style:normal;font-size:16px;line-height:1.25"
         id="path90" />
      <path
         d="m 278.57325,-28.346489 v -4.48 c 0,-1.504 -0.928,-2.88 -2.32,-2.88 -1.024,0 -1.984,0.352 -2.848,0.896 v 0.496 c 0.72,-0.4 1.52,-0.656 2.352,-0.656 0.992,0 1.568,1.056 1.568,2.144 v 0.288 c -0.624,-0.272 -1.296,-0.432 -1.968,-0.432 -1.712,0 -2.976,0.784 -2.976,2.4 0,1.536 1.12,2.384 2.736,2.384 0.816,0 1.568,-0.368 2.208,-0.88 v 0.72 z m -1.248,-1.392 c -0.48,0.48 -1.072,0.88 -1.76,0.88 -1.072,0 -1.776,-0.656 -1.776,-1.712 0,-0.976 0.8,-1.728 1.776,-1.728 0.608,0 1.216,0.16 1.76,0.432 z"
         style="font-style:normal;font-size:16px;line-height:1.25"
         id="path92" />
      <path
         d="m 286.92524,-28.346489 v -5.2 c 0,-1.168 -0.896,-2.16 -2.048,-2.16 -0.96,0 -1.808,0.544 -2.496,1.216 v -1.056 h -1.248 v 7.2 h 1.248 v -5.648 c 0.544,-0.544 1.216,-0.976 1.968,-0.976 0.752,0 1.328,0.656 1.328,1.424 v 5.2 z"
         style="font-style:normal;font-size:16px;line-height:1.25"
         id="path94" />
      <path
         d="m 295.19721,-28.346489 v -11.2 h -1.248 v 4.272 c -0.624,-0.272 -1.296,-0.432 -1.968,-0.432 -2,0 -2.976,1.6 -2.976,3.76 0,2.128 0.8,3.76 2.736,3.76 0.816,0 1.568,-0.368 2.208,-0.88 v 0.72 z m -1.248,-1.392 c -0.48,0.48 -1.072,0.88 -1.76,0.88 -1.456,0 -1.776,-1.408 -1.776,-3.088 0,-1.504 0.464,-3.088 1.776,-3.088 0.608,0 1.216,0.16 1.76,0.432 z"
         style="font-style:normal;font-size:16px;line-height:1.25"
         id="path96" />
      <path
         d="m 303.5492,-31.786489 v -0.16 c 0,-2.256 -1.232,-3.76 -3.088,-3.76 -1.872,0 -3.104,1.504 -3.104,3.76 0,2.256 1.232,3.76 3.104,3.76 0.8,0 1.584,-0.256 2.24,-0.72 v -0.672 c -0.752,0.48 -1.36,0.656 -2.24,0.656 -1.36,0 -1.696,-1.296 -1.696,-2.864 z m -1.408,-0.672 h -3.376 c 0,-1.28 0.544,-2.576 1.696,-2.576 1.136,0 1.68,1.296 1.68,2.576 z"
         style="font-style:normal;font-size:16px;line-height:1.25"
         id="path98" />
      <path
         d="m 224.4614,-8.346489 v -11.2 h -1.248 v 4.272 c -0.624,-0.272 -1.296,-0.432 -1.968,-0.432 -2,0 -2.976,1.6 -2.976,3.76 0,2.128 0.8,3.76 2.736,3.76 0.816,0 1.568,-0.368 2.208,-0.88 v 0.72 z m -1.248,-1.392 c -0.48,0.48 -1.072,0.88 -1.76,0.88 -1.456,0 -1.776,-1.408 -1.776,-3.088 0,-1.504 0.464,-3.088 1.776,-3.088 0.608,0 1.216,0.16 1.76,0.432 z"
         style="font-style:normal;font-size:16px;line-height:1.25"
         id="path100" />
      <path
         d="m 232.73339,-8.346489 v -7.2 h -1.248 v 5.648 c -0.544,0.544 -1.216,0.976 -1.968,0.976 -0.752,0 -1.328,-0.656 -1.328,-1.424 v -5.2 h -1.248 v 5.2 c 0,1.168 0.896,2.16 2.048,2.16 0.96,0 1.808,-0.544 2.496,-1.216 v 1.056 z"
         style="font-style:normal;font-size:16px;line-height:1.25"
         id="path102" />
      <path
         d="m 244.60534,-14.554489 v -0.992 c -0.176,-0.064 -0.368,-0.112 -0.544,-0.112 -0.896,0 -1.616,0.624 -2.192,1.312 v -1.2 h -1.248 v 7.2 h 1.248 v -5.328 c 0.48,-0.56 1.088,-1.04 1.824,-1.04 0.304,0 0.624,0.064 0.912,0.16 z"
         style="font-style:normal;font-size:16px;line-height:1.25"
         id="path104" />
      <path
         d="m 251.99732,-11.946489 c 0,-2.448 -1.088,-3.76 -3.088,-3.76 -2.016,0 -3.104,1.312 -3.104,3.76 0,2.448 1.088,3.76 3.104,3.76 2,0 3.088,-1.312 3.088,-3.76 z m -1.408,0 c 0,2 -0.592,3.088 -1.68,3.088 -1.104,0 -1.696,-1.088 -1.696,-3.088 0,-2 0.592,-3.088 1.696,-3.088 1.088,0 1.68,1.088 1.68,3.088 z"
         style="font-style:normal;font-size:16px;line-height:1.25"
         id="path106" />
      <path
         d="m 260.34932,-11.946489 c 0,-2.128 -0.8,-3.76 -2.736,-3.76 -0.816,0 -1.568,0.368 -2.208,0.88 v -4.72 h -1.248 v 11.2 h 1.248 v -0.368 c 0.608,0.32 1.28,0.528 1.968,0.528 2,0 2.976,-1.6 2.976,-3.76 z m -1.408,0 c 0,1.504 -0.464,3.088 -1.776,3.088 -0.624,0 -1.232,-0.208 -1.76,-0.528 v -4.768 c 0.48,-0.48 1.072,-0.88 1.76,-0.88 1.456,0 1.776,1.408 1.776,3.088 z"
         style="font-style:normal;font-size:16px;line-height:1.25"
         id="path108" />
      <path
         d="m 268.30131,-11.946489 c 0,-2.448 -1.088,-3.76 -3.088,-3.76 -2.016,0 -3.104,1.312 -3.104,3.76 0,2.448 1.088,3.76 3.104,3.76 2,0 3.088,-1.312 3.088,-3.76 z m -1.408,0 c 0,2 -0.592,3.088 -1.68,3.088 -1.104,0 -1.696,-1.088 -1.696,-3.088 0,-2 0.592,-3.088 1.696,-3.088 1.088,0 1.68,1.088 1.68,3.088 z"
         style="font-style:normal;font-size:16px;line-height:1.25"
         id="path110" />
      <path
         d="m 273.8533,-8.906489 v -0.48 c -0.256,0.256 -0.56,0.464 -0.928,0.464 -0.576,0 -0.608,-0.752 -0.608,-1.424 v -4.528 h 1.536 v -0.672 h -1.536 v -2.4 h -0.752 c 0,1.28 -0.736,2.48 -1.904,2.48 v 0.592 h 1.408 v 4.528 c 0,1.056 0.336,2.16 1.248,2.16 0.592,0 1.104,-0.32 1.536,-0.72 z"
         style="font-style:normal;font-size:16px;line-height:1.25"
         id="path112" />
    </g>
    <g
       aria-label="MGA"
       id="text2419"
       style="font-style:italic;line-height:0%;font-family:Iwona;-inkscape-font-specification:'Sans Italic';text-align:end;text-anchor:end">
      <path
         d="m 305.54499,-7.0866451 -0.48,-8.3999999 h -0.792 l -3.372,7.0919999 -3.384,-7.0919999 h -0.792 l -0.48,8.3999999 h 0.552 l 0.384,-6.8039999 3.252,6.8039999 h 0.444 l 3.288,-6.8879999 0.396,6.8879999 z"
         style="font-style:normal;font-size:12px;line-height:1.25"
         id="path115" />
      <path
         d="m 314.04098,-7.0866451 v -3.5279999 h -0.984 v 2.3159999 c -0.624,0.504 -1.392,0.78 -2.196,0.78 -1.908,0 -2.7,-1.644 -2.7,-3.7679999 0,-2.124 0.792,-3.768 2.7,-3.768 1.128,0 2.196,0.444 2.988,1.248 v -0.552 c -0.792,-0.804 -1.86,-1.248 -2.988,-1.248 -2.472,0 -3.876,1.752 -3.876,4.32 0,2.5679999 1.404,4.3199999 3.876,4.3199999 0.804,0 1.572,-0.276 2.196,-0.78 v 0.66 z"
         style="font-style:normal;font-size:12px;line-height:1.25"
         id="path117" />
      <path
         d="m 322.32096,-7.0866451 -3.048,-8.3999999 h -1.044 l -3.108,8.3999999 h 0.588 l 1.092,-2.9399999 h 3.408 l 1.068,2.9399999 z m -2.316,-3.4919999 h -3 l 1.512,-4.104 z"
         style="font-style:normal;font-size:12px;line-height:1.25"
         id="path119" />
    </g>
    <path
       id="path3529"
       d="M 152.3622,3.5432761 V 17.716505 h 10.62992 l 7.08662,-7.086615 -7.08662,-7.0866139 z"
       style="fill:#afdde9;fill-opacity:1;fill-rule:evenodd;stroke:#000000;stroke-width:1px;stroke-linecap:butt;stroke-linejoin:miter;stroke-opacity:1" />
    <g
       aria-label="BR"
       id="text3531"
       style="font-style:italic;line-height:0%;font-family:Iwona;-inkscape-font-specification:'Sans Italic'">
      <path
         d="m 181.12204,11.169891 c 0,-1.3199999 -0.864,-2.0159999 -2.124,-2.2799999 0.924,-0.276 1.536,-0.876 1.536,-1.896 0,-1.464 -1.26,-2.064 -2.88,-2.064 -0.624,0 -1.248,0.036 -1.872,0.12 h -0.96 v 8.3999999 h 0.96 l 1.872,0.12 c 1.944,0 3.468,-0.66 3.468,-2.4 z m -1.572,-4.1759999 c 0,1.212 -1.356,1.836 -2.712,1.836 h -1.032 v -3.228 c 0.612,-0.084 1.236,-0.12 1.848,-0.12 0.984,0 1.896,0.6 1.896,1.512 z m 0.396,4.1759999 c 0,1.104 -1.092,1.848 -2.292,1.848 -0.612,0 -1.236,-0.036 -1.848,-0.12 V 9.2498911 h 1.548 c 1.32,0 2.592,0.708 2.592,1.9199999 z"
         style="font-style:normal;font-size:12px;line-height:1.25"
         id="path122" />
      <path
         d="m 189.57003,13.449891 -2.556,-3.8039999 c 1.308,-0.252 2.208,-0.972 2.208,-2.316 0,-1.692 -1.452,-2.4 -3.336,-2.4 -0.672,0 -1.344,0.036 -2.004,0.12 h -0.96 v 8.3999999 h 0.984 V 9.5498911 c 0.648,0.12 1.32,0.192 1.98,0.192 l 2.508,3.7079999 z m -1.524,-6.1199999 c 0,1.092 -1.02,1.86 -2.16,1.86 -0.66,0 -1.332,-0.072 -1.98,-0.192 v -3.396 c 0.66,-0.084 1.32,-0.12 1.98,-0.12 1.14,0 2.16,0.768 2.16,1.848 z"
         style="font-style:normal;font-size:12px;line-height:1.25"
         id="path124" />
    </g>
    <path
       id="path3000"
       d="m 152.3622,25.451909 v 14.173229 h 10.62992 l 7.08662,-7.086616 -7.08662,-7.086613 z"
       style="fill:#afdde9;fill-opacity:1;fill-rule:evenodd;stroke:#000000;stroke-width:1px;stroke-linecap:butt;stroke-linejoin:miter;stroke-opacity:1" />
    <g
       aria-label="BG"
       id="text3002"
       style="font-style:italic;line-height:0%;font-family:Iwona;-inkscape-font-specification:'Sans Italic'">
      <path
         d="m 181.12204,33.801829 c 0,-1.32 -0.864,-2.016 -2.124,-2.28 0.924,-0.276 1.536,-0.876 1.536,-1.896 0,-1.464 -1.26,-2.064 -2.88,-2.064 -0.624,0 -1.248,0.036 -1.872,0.12 h -0.96 v 8.4 h 0.96 l 1.872,0.12 c 1.944,0 3.468,-0.66 3.468,-2.4 z m -1.572,-4.176 c 0,1.212 -1.356,1.836 -2.712,1.836 h -1.032 v -3.228 c 0.612,-0.084 1.236,-0.12 1.848,-0.12 0.984,0 1.896,0.6 1.896,1.512 z m 0.396,4.176 c 0,1.104 -1.092,1.848 -2.292,1.848 -0.612,0 -1.236,-0.036 -1.848,-0.12 v -3.648 h 1.548 c 1.32,0 2.592,0.708 2.592,1.92 z"
         style="font-style:normal;font-size:12px;line-height:1.25"
         id="path127" />
      <path
         d="m 189.61803,36.081829 v -3.528 h -0.984 v 2.316 c -0.624,0.504 -1.392,0.78 -2.196,0.78 -1.908,0 -2.7,-1.644 -2.7,-3.768 0,-2.124 0.792,-3.768 2.7,-3.768 1.128,0 2.196,0.444 2.988,1.248 v -0.552 c -0.792,-0.804 -1.86,-1.248 -2.988,-1.248 -2.472,0 -3.876,1.752 -3.876,4.32 0,2.568 1.404,4.32 3.876,4.32 0.804,0 1.572,-0.276 2.196,-0.78 v 0.66 z"
         style="font-style:normal;font-size:12px;line-height:1.25"
         id="path129" />
    </g>
    <path
       style="fill:#afdde9;fill-opacity:1;fill-rule:evenodd;stroke:#000000;stroke-width:1px;stroke-linecap:butt;stroke-linejoin:miter;stroke-opacity:1"
       d="M 152.36219,46.062961 V 60.23619 h 10.62992 l 7.08662,-7.086616 -7.08662,-7.086613 z"
       id="path23584" />
    <g
       aria-label="BD"
       id="text23586"
       style="font-style:italic;line-height:0%;font-family:Iwona;-inkscape-font-specification:'Sans Italic'">
      <path
         d="m 181.12204,54.412879 c 0,-1.32 -0.864,-2.016 -2.124,-2.28 0.924,-0.276 1.536,-0.876 1.536,-1.896 0,-1.464 -1.26,-2.064 -2.88,-2.064 -0.624,0 -1.248,0.036 -1.872,0.12 h -0.96 v 8.4 h 0.96 l 1.872,0.12 c 1.944,0 3.468,-0.66 3.468,-2.4 z m -1.572,-4.176 c 0,1.212 -1.356,1.836 -2.712,1.836 h -1.032 v -3.228 c 0.612,-0.084 1.236,-0.12 1.848,-0.12 0.984,0 1.896,0.6 1.896,1.512 z m 0.396,4.176 c 0,1.104 -1.092,1.848 -2.292,1.848 -0.612,0 -1.236,-0.036 -1.848,-0.12 v -3.648 h 1.548 c 1.32,0 2.592,0.708 2.592,1.92 z"
         style="font-style:normal;font-size:12px;line-height:1.25"
         id="path132" />
      <path
         d="m 190.09803,52.492879 c 0,-2.568 -1.404,-4.32 -3.876,-4.32 -0.744,0 -1.488,0.036 -2.22,0.12 h -0.96 v 8.4 h 0.96 c 0.732,0.084 1.476,0.12 2.22,0.12 2.472,0 3.876,-1.752 3.876,-4.32 z m -1.176,0 c 0,1.908 -0.972,3.768 -2.7,3.768 -0.732,0 -1.464,-0.036 -2.196,-0.12 v -7.296 c 0.732,-0.084 1.464,-0.12 2.196,-0.12 1.728,0 2.7,1.86 2.7,3.768 z"
         style="font-style:normal;font-size:12px;line-height:1.25"
         id="path134" />
    </g>
    <path
       style="fill:#afdde9;fill-opacity:1;fill-rule:evenodd;stroke:#000000;stroke-width:1px;stroke-linecap:butt;stroke-linejoin:miter;stroke-opacity:1"
       d="M 325.98425,3.5432764 V 17.716505 h 10.62992 l 7.08662,-7.08662 -7.08662,-7.0866086 z"
       id="path23590" />
    <g
       aria-label="MGR"
       id="text23592"
       style="font-style:italic;line-height:0%;font-family:Iwona;-inkscape-font-specification:'Sans Italic';text-align:end;text-anchor:end">
      <path
         d="m 305.13699,14.173198 -0.48,-8.4000003 h -0.792 l -3.372,7.0920003 -3.384,-7.0920003 h -0.792 l -0.48,8.4000003 h 0.552 l 0.384,-6.8040003 3.252,6.8040003 h 0.444 l 3.288,-6.8880003 0.396,6.8880003 z"
         style="font-style:normal;font-size:12px;line-height:1.25"
         id="path137" />
      <path
         d="m 313.63297,14.173198 v -3.528 h -0.984 v 2.316 c -0.624,0.504 -1.392,0.78 -2.196,0.78 -1.908,0 -2.7,-1.644 -2.7,-3.7680003 0,-2.124 0.792,-3.768 2.7,-3.768 1.128,0 2.196,0.444 2.988,1.248 v -0.552 c -0.792,-0.804 -1.86,-1.248 -2.988,-1.248 -2.472,0 -3.876,1.752 -3.876,4.32 0,2.5680003 1.404,4.3200003 3.876,4.3200003 0.804,0 1.572,-0.276 2.196,-0.78 v 0.66 z"
         style="font-style:normal;font-size:12px;line-height:1.25"
         id="path139" />
      <path
         d="m 322.32096,14.173198 -2.556,-3.804 c 1.308,-0.252 2.208,-0.9720003 2.208,-2.3160003 0,-1.692 -1.452,-2.4 -3.336,-2.4 -0.672,0 -1.344,0.036 -2.004,0.12 h -0.96 v 8.4000003 h 0.984 v -3.9 c 0.648,0.12 1.32,0.192 1.98,0.192 l 2.508,3.708 z m -1.524,-6.1200003 c 0,1.092 -1.02,1.86 -2.16,1.86 -0.66,0 -1.332,-0.072 -1.98,-0.192 v -3.396 c 0.66,-0.084 1.32,-0.12 1.98,-0.12 1.14,0 2.16,0.768 2.16,1.848 z"
         style="font-style:normal;font-size:12px;line-height:1.25"
         id="path141" />
    </g>
    <path
       id="path23596"
       d="m 325.98425,24.803119 v 14.173228 h 10.62992 l 7.08662,-7.08662 -7.08662,-7.086608 z"
       style="fill:#afdde9;fill-opacity:1;fill-rule:evenodd;stroke:#000000;stroke-width:1px;stroke-linecap:butt;stroke-linejoin:miter;stroke-opacity:1" />
    <g
       aria-label="MDA"
       id="text23598"
       style="font-style:italic;line-height:0%;font-family:Iwona;-inkscape-font-specification:'Sans Italic';text-align:end;text-anchor:end">
      <path
         d="m 305.59299,35.433041 -0.48,-8.4 h -0.792 l -3.372,7.092 -3.384,-7.092 h -0.792 l -0.48,8.4 h 0.552 l 0.384,-6.804 3.252,6.804 h 0.444 l 3.288,-6.888 0.396,6.888 z"
         style="font-style:normal;font-size:12px;line-height:1.25"
         id="path144" />
      <path
         d="m 314.56897,31.233041 c 0,-2.568 -1.404,-4.32 -3.876,-4.32 -0.744,0 -1.488,0.036 -2.22,0.12 h -0.96 v 8.4 h 0.96 c 0.732,0.084 1.476,0.12 2.22,0.12 2.472,0 3.876,-1.752 3.876,-4.32 z m -1.176,0 c 0,1.908 -0.972,3.768 -2.7,3.768 -0.732,0 -1.464,-0.036 -2.196,-0.12 v -7.296 c 0.732,-0.084 1.464,-0.12 2.196,-0.12 1.728,0 2.7,1.86 2.7,3.768 z"
         style="font-style:normal;font-size:12px;line-height:1.25"
         id="path146" />
      <path
         d="m 322.32096,35.433041 -3.048,-8.4 h -1.044 l -3.108,8.4 h 0.588 l 1.092,-2.94 h 3.408 l 1.068,2.94 z m -2.316,-3.492 h -3 l 1.512,-4.104 z"
         style="font-style:normal;font-size:12px;line-height:1.25"
         id="path148" />
    </g>
    <path
       style="fill:#afdde9;fill-opacity:1;fill-rule:evenodd;stroke:#000000;stroke-width:1px;stroke-linecap:butt;stroke-linejoin:miter;stroke-opacity:1"
       d="m 325.98425,46.062961 v 14.173228 h 10.62992 l 7.08662,-7.08662 -7.08662,-7.086608 z"
       id="path23602" />
    <g
       aria-label="MDR"
       id="text23604"
       style="font-style:italic;line-height:0%;font-family:Iwona;-inkscape-font-specification:'Sans Italic';text-align:end;text-anchor:end">
      <path
         d="m 304.89698,56.692883 -0.48,-8.4 h -0.792 l -3.372,7.092 -3.384,-7.092 h -0.792 l -0.48,8.4 h 0.552 l 0.384,-6.804 3.252,6.804 h 0.444 l 3.288,-6.888 0.396,6.888 z"
         style="font-style:normal;font-size:12px;line-height:1.25"
         id="path151" />
      <path
         d="m 313.87297,52.492883 c 0,-2.568 -1.404,-4.32 -3.876,-4.32 -0.744,0 -1.488,0.036 -2.22,0.12 h -0.96 v 8.4 h 0.96 c 0.732,0.084 1.476,0.12 2.22,0.12 2.472,0 3.876,-1.752 3.876,-4.32 z m -1.176,0 c 0,1.908 -0.972,3.768 -2.7,3.768 -0.732,0 -1.464,-0.036 -2.196,-0.12 v -7.296 c 0.732,-0.084 1.464,-0.12 2.196,-0.12 1.728,0 2.7,1.86 2.7,3.768 z"
         style="font-style:normal;font-size:12px;line-height:1.25"
         id="path153" />
      <path
         d="m 322.32096,56.692883 -2.556,-3.804 c 1.308,-0.252 2.208,-0.972 2.208,-2.316 0,-1.692 -1.452,-2.4 -3.336,-2.4 -0.672,0 -1.344,0.036 -2.004,0.12 h -0.96 v 8.4 h 0.984 v -3.9 c 0.648,0.12 1.32,0.192 1.98,0.192 l 2.508,3.708 z m -1.524,-6.12 c 0,1.092 -1.02,1.86 -2.16,1.86 -0.66,0 -1.332,-0.072 -1.98,-0.192 v -3.396 c 0.66,-0.084 1.32,-0.12 1.98,-0.12 1.14,0 2.16,0.768 2.16,1.848 z"
         style="font-style:normal;font-size:12px;line-height:1.25"
         id="path155" />
    </g>
    <g
       aria-label="Électronique de
puissance qui pilote
les moteurs."
       id="text3380"
       style="line-height:0%;font-family:Iwona;-inkscape-font-specification:Iwona;text-align:center;letter-spacing:0px;word-spacing:0px;text-anchor:middle;stroke-width:1px">
      <path
         d="m 390.8604,-1.3292652 v -0.575 h -5.225 v -3.5125 h 3.975 v -0.575 h -3.975 v -3.5125 h 4.925 v -0.5749998 h -5.95 v 8.7499998 z m -1.3625,-10.9999998 h -1.125 c -0.3,0.675 -0.75,1.2625 -1.3125,1.7375 h 0.525 c 0.7125,-0.5 1.35,-1.075 1.9125,-1.7375 z"
         style="font-size:12.5px;line-height:1.25"
         id="path158" />
      <path
         d="m 394.96039,-1.7667652 v -0.375 c -0.2375,0.2 -0.5125,0.3625 -0.825,0.3625 -0.4625,0 -0.55,-0.575 -0.55,-1.1125 v -7.1874998 h -0.975 v 7.1874998 c 0,0.8375 0.325,1.6875 1.0625,1.6875 0.475,0 0.925,-0.2375 1.2875,-0.5625 z"
         style="font-size:12.5px;line-height:1.25"
         id="path160" />
      <path
         d="m 400.73537,-4.0167652 v -0.125 c 0,-1.7625 -0.9625,-2.9375 -2.4125,-2.9375 -1.4625,0 -2.425,1.175 -2.425,2.9375 0,1.7625 0.9625,2.9375 2.425,2.9375 0.625,0 1.2375,-0.2 1.75,-0.5625 v -0.525 c -0.5875,0.375 -1.0625,0.5125 -1.75,0.5125 -1.0625,0 -1.325,-1.0125 -1.325,-2.2375 z m -1.1,-0.525 h -2.6375 c 0,-1 0.425,-2.0125 1.325,-2.0125 0.8875,0 1.3125,1.0125 1.3125,2.0125 z"
         style="font-size:12.5px;line-height:1.25"
         id="path162" />
      <path
         d="m 406.41035,-5.6542652 v -0.525 c -0.4,-0.5625 -1.05,-0.9 -1.75,-0.9 -1.5625,0 -2.6125,1.175 -2.6125,2.9375 0,1.7625 1.05,2.9375 2.6125,2.9375 0.65,0 1.2625,-0.325 1.625,-0.8625 v -0.525 c -0.425,0.6375 -0.8625,0.8625 -1.625,0.8625 -0.9,0 -1.5125,-0.9625 -1.5125,-2.4125 0,-1.45 0.6125,-2.4125 1.5125,-2.4125 0.775,0 1.3,0.275 1.75,0.9 z"
         style="font-size:12.5px;line-height:1.25"
         id="path164" />
      <path
         d="m 410.37284,-1.7667652 v -0.375 c -0.2,0.2 -0.4375,0.3625 -0.725,0.3625 -0.45,0 -0.475,-0.5875 -0.475,-1.1125 v -3.5375 h 1.2 v -0.525 h -1.2 v -1.875 h -0.5875 c 0,1 -0.575,1.9375 -1.4875,1.9375 v 0.4625 h 1.1 v 3.5375 c 0,0.825 0.2625,1.6875 0.975,1.6875 0.4625,0 0.8625,-0.25 1.2,-0.5625 z"
         style="font-size:12.5px;line-height:1.25"
         id="path166" />
      <path
         d="m 414.86033,-6.1792652 v -0.775 c -0.1375,-0.05 -0.2875,-0.0875 -0.425,-0.0875 -0.7,0 -1.2625,0.4875 -1.7125,1.025 v -0.9375 h -0.975 v 5.625 h 0.975 v -4.1625 c 0.375,-0.4375 0.85,-0.8125 1.425,-0.8125 0.2375,0 0.4875,0.05 0.7125,0.125 z"
         style="font-size:12.5px;line-height:1.25"
         id="path168" />
      <path
         d="m 420.63531,-4.1417652 c 0,-1.9125 -0.85,-2.9375 -2.4125,-2.9375 -1.575,0 -2.425,1.025 -2.425,2.9375 0,1.9125 0.85,2.9375 2.425,2.9375 1.5625,0 2.4125,-1.025 2.4125,-2.9375 z m -1.1,0 c 0,1.5625 -0.4625,2.4125 -1.3125,2.4125 -0.8625,0 -1.325,-0.85 -1.325,-2.4125 0,-1.5625 0.4625,-2.4125 1.325,-2.4125 0.85,0 1.3125,0.85 1.3125,2.4125 z"
         style="font-size:12.5px;line-height:1.25"
         id="path170" />
      <path
         d="m 426.84781,-1.3292652 v -4.0625 c 0,-0.9125 -0.7,-1.6875 -1.6,-1.6875 -0.75,0 -1.4125,0.425 -1.95,0.95 v -0.825 h -0.975 v 5.625 h 0.975 v -4.4125 c 0.425,-0.425 0.95,-0.7625 1.5375,-0.7625 0.5875,0 1.0375,0.5125 1.0375,1.1125 v 4.0625 z"
         style="font-size:12.5px;line-height:1.25"
         id="path172" />
      <path
         d="m 431.07279,-1.7667652 v -0.375 c -0.2375,0.2 -0.5125,0.3625 -0.825,0.3625 -0.4625,0 -0.55,-0.575 -0.55,-1.1125 v -4.0625 h -0.975 v 4.0625 c 0,0.8375 0.325,1.6875 1.0625,1.6875 0.475,0 0.925,-0.2375 1.2875,-0.5625 z m -1.25,-7.1375 c 0,-0.3375 -0.275,-0.6125 -0.6125,-0.6125 -0.3375,0 -0.6125,0.275 -0.6125,0.6125 0,0.3375 0.275,0.6125 0.6125,0.6125 0.3375,0 0.6125,-0.275 0.6125,-0.6125 z"
         style="font-size:12.5px;line-height:1.25"
         id="path174" />
      <path
         d="m 436.84778,1.5457348 v -8.5 h -0.975 v 0.2125 c -0.4875,-0.2125 -1.0125,-0.3375 -1.5375,-0.3375 -1.5625,0 -2.325,1.25 -2.325,2.9375 0,1.6625 0.625,2.9375 2.1375,2.9375 0.6375,0 1.225,-0.2875 1.725,-0.6875 v 3.4375 z m -0.975,-3.9625 c -0.375,0.375 -0.8375,0.6875 -1.375,0.6875 -1.1375,0 -1.3875,-1.1 -1.3875,-2.4125 0,-1.175 0.3625,-2.4125 1.3875,-2.4125 0.475,0 0.95,0.125 1.375,0.3375 z"
         style="font-size:12.5px;line-height:1.25"
         id="path176" />
      <path
         d="m 443.31027,-1.3292652 v -5.625 h -0.975 v 4.4125 c -0.425,0.425 -0.95,0.7625 -1.5375,0.7625 -0.5875,0 -1.0375,-0.5125 -1.0375,-1.1125 v -4.0625 h -0.975 v 4.0625 c 0,0.9125 0.7,1.6875 1.6,1.6875 0.75,0 1.4125,-0.425 1.95,-0.95 v 0.825 z"
         style="font-size:12.5px;line-height:1.25"
         id="path178" />
      <path
         d="m 449.83525,-4.0167652 v -0.125 c 0,-1.7625 -0.9625,-2.9375 -2.4125,-2.9375 -1.4625,0 -2.425,1.175 -2.425,2.9375 0,1.7625 0.9625,2.9375 2.425,2.9375 0.625,0 1.2375,-0.2 1.75,-0.5625 v -0.525 c -0.5875,0.375 -1.0625,0.5125 -1.75,0.5125 -1.0625,0 -1.325,-1.0125 -1.325,-2.2375 z m -1.1,-0.525 h -2.6375 c 0,-1 0.425,-2.0125 1.325,-2.0125 0.8875,0 1.3125,1.0125 1.3125,2.0125 z"
         style="font-size:12.5px;line-height:1.25"
         id="path180" />
      <path
         d="m 460.14771,-1.3292652 v -8.7499998 h -0.975 v 3.3374998 c -0.4875,-0.2125 -1.0125,-0.3375 -1.5375,-0.3375 -1.5625,0 -2.325,1.25 -2.325,2.9375 0,1.6625 0.625,2.9375 2.1375,2.9375 0.6375,0 1.225,-0.2875 1.725,-0.6875 v 0.5625 z m -0.975,-1.0875 c -0.375,0.375 -0.8375,0.6875 -1.375,0.6875 -1.1375,0 -1.3875,-1.1 -1.3875,-2.4125 0,-1.175 0.3625,-2.4125 1.3875,-2.4125 0.475,0 0.95,0.125 1.375,0.3375 z"
         style="font-size:12.5px;line-height:1.25"
         id="path182" />
      <path
         d="m 466.6727,-4.0167652 v -0.125 c 0,-1.7625 -0.9625,-2.9375 -2.4125,-2.9375 -1.4625,0 -2.425,1.175 -2.425,2.9375 0,1.7625 0.9625,2.9375 2.425,2.9375 0.625,0 1.2375,-0.2 1.75,-0.5625 v -0.525 c -0.5875,0.375 -1.0625,0.5125 -1.75,0.5125 -1.0625,0 -1.325,-1.0125 -1.325,-2.2375 z m -1.1,-0.525 h -2.6375 c 0,-1 0.425,-2.0125 1.325,-2.0125 0.8875,0 1.3125,1.0125 1.3125,2.0125 z"
         style="font-size:12.5px;line-height:1.25"
         id="path184" />
      <path
         d="m 377.97921,11.483235 c 0,-1.6625002 -0.625,-2.9375002 -2.1375,-2.9375002 -0.6375,0 -1.225,0.2875 -1.725,0.6875 v -0.5625 h -0.975 v 8.5000002 h 0.975 v -3.0875 c 0.4875,0.2125 1.0125,0.3375 1.5375,0.3375 1.5625,0 2.325,-1.25 2.325,-2.9375 z m -1.1,0 c 0,1.175 -0.3625,2.4125 -1.3875,2.4125 -0.475,0 -0.95,-0.125 -1.375,-0.3375 V 9.7582348 c 0.375,-0.375 0.8375,-0.6875 1.375,-0.6875 1.1375,0 1.3875,1.1000002 1.3875,2.4125002 z"
         style="font-size:12.5px;line-height:1.25"
         id="path186" />
      <path
         d="M 384.12919,14.295735 V 8.6707348 h -0.975 v 4.4125002 c -0.425,0.425 -0.95,0.7625 -1.5375,0.7625 -0.5875,0 -1.0375,-0.5125 -1.0375,-1.1125 V 8.6707348 h -0.975 v 4.0625002 c 0,0.9125 0.7,1.6875 1.6,1.6875 0.75,0 1.4125,-0.425 1.95,-0.95 v 0.825 z"
         style="font-size:12.5px;line-height:1.25"
         id="path188" />
      <path
         d="m 388.41666,13.858235 v -0.375 c -0.2375,0.2 -0.5125,0.3625 -0.825,0.3625 -0.4625,0 -0.55,-0.575 -0.55,-1.1125 V 8.6707348 h -0.975 v 4.0625002 c 0,0.8375 0.325,1.6875 1.0625,1.6875 0.475,0 0.925,-0.2375 1.2875,-0.5625 z m -1.25,-7.1375002 c 0,-0.3375 -0.275,-0.6125 -0.6125,-0.6125 -0.3375,0 -0.6125,0.275 -0.6125,0.6125 0,0.3375 0.275,0.6125 0.6125,0.6125 0.3375,0 0.6125,-0.275 0.6125,-0.6125 z"
         style="font-size:12.5px;line-height:1.25"
         id="path190" />
      <path
         d="m 393.46665,12.695735 c 0,-0.9875 -1.05,-1.5 -2.075,-1.75 -0.6,-0.15 -1.25,-0.4 -1.25,-0.9875002 0,-0.5375 0.55,-0.8875 1.15,-0.8875 0.6625,0 1.325,0.2 1.875,0.5625 v -0.525 c -0.55,-0.3625 -1.2125,-0.5625 -1.875,-0.5625 -1.0875,0 -2.0875,0.6625 -2.0875,1.6750002 0,0.9125 1.0125,1.3375 1.975,1.575 0.6625,0.1625 1.35,0.5125 1.35,1.15 0,0.5875 -0.6,0.95 -1.2375,0.95 -0.775,0 -1.525,-0.1875 -2.1875,-0.5625 v 0.525 c 0.6625,0.375 1.4125,0.5625 2.1875,0.5625 1.125,0 2.175,-0.675 2.175,-1.725 z"
         style="font-size:12.5px;line-height:1.25"
         id="path192" />
      <path
         d="m 398.67913,12.695735 c 0,-0.9875 -1.05,-1.5 -2.075,-1.75 -0.6,-0.15 -1.25,-0.4 -1.25,-0.9875002 0,-0.5375 0.55,-0.8875 1.15,-0.8875 0.6625,0 1.325,0.2 1.875,0.5625 v -0.525 c -0.55,-0.3625 -1.2125,-0.5625 -1.875,-0.5625 -1.0875,0 -2.0875,0.6625 -2.0875,1.6750002 0,0.9125 1.0125,1.3375 1.975,1.575 0.6625,0.1625 1.35,0.5125 1.35,1.15 0,0.5875 -0.6,0.95 -1.2375,0.95 -0.775,0 -1.525,-0.1875 -2.1875,-0.5625 v 0.525 c 0.6625,0.375 1.4125,0.5625 2.1875,0.5625 1.125,0 2.175,-0.675 2.175,-1.725 z"
         style="font-size:12.5px;line-height:1.25"
         id="path194" />
      <path
         d="m 404.64161,14.295735 v -3.5 c 0,-1.1750002 -0.725,-2.2500002 -1.8125,-2.2500002 -0.8,0 -1.55,0.275 -2.225,0.7 v 0.3875 c 0.5625,-0.3125 1.1875,-0.5125 1.8375,-0.5125 0.775,0 1.225,0.825 1.225,1.6750002 v 0.225 c -0.4875,-0.2125 -1.0125,-0.3375 -1.5375,-0.3375 -1.3375,0 -2.325,0.6125 -2.325,1.875 0,1.2 0.875,1.8625 2.1375,1.8625 0.6375,0 1.225,-0.2875 1.725,-0.6875 v 0.5625 z m -0.975,-1.0875 c -0.375,0.375 -0.8375,0.6875 -1.375,0.6875 -0.8375,0 -1.3875,-0.5125 -1.3875,-1.3375 0,-0.7625 0.625,-1.35 1.3875,-1.35 0.475,0 0.95,0.125 1.375,0.3375 z"
         style="font-size:12.5px;line-height:1.25"
         id="path196" />
      <path
         d="m 411.1666,14.295735 v -4.0625 c 0,-0.9125002 -0.7,-1.6875002 -1.6,-1.6875002 -0.75,0 -1.4125,0.425 -1.95,0.95 v -0.825 h -0.975 v 5.6250002 h 0.975 V 9.8832348 c 0.425,-0.425 0.95,-0.7625 1.5375,-0.7625 0.5875,0 1.0375,0.5125 1.0375,1.1125002 v 4.0625 z"
         style="font-size:12.5px;line-height:1.25"
         id="path198" />
      <path
         d="m 417.15408,9.9707348 v -0.525 c -0.4,-0.5625 -1.05,-0.9 -1.75,-0.9 -1.5625,0 -2.6125,1.175 -2.6125,2.9375002 0,1.7625 1.05,2.9375 2.6125,2.9375 0.65,0 1.2625,-0.325 1.625,-0.8625 v -0.525 c -0.425,0.6375 -0.8625,0.8625 -1.625,0.8625 -0.9,0 -1.5125,-0.9625 -1.5125,-2.4125 0,-1.45 0.6125,-2.4125002 1.5125,-2.4125002 0.775,0 1.3,0.275 1.75,0.9 z"
         style="font-size:12.5px;line-height:1.25"
         id="path200" />
      <path
         d="m 422.99157,11.608235 v -0.125 c 0,-1.7625002 -0.9625,-2.9375002 -2.4125,-2.9375002 -1.4625,0 -2.425,1.175 -2.425,2.9375002 0,1.7625 0.9625,2.9375 2.425,2.9375 0.625,0 1.2375,-0.2 1.75,-0.5625 v -0.525 c -0.5875,0.375 -1.0625,0.5125 -1.75,0.5125 -1.0625,0 -1.325,-1.0125 -1.325,-2.2375 z m -1.1,-0.525 h -2.6375 c 0,-1 0.425,-2.0125002 1.325,-2.0125002 0.8875,0 1.3125,1.0125002 1.3125,2.0125002 z"
         style="font-size:12.5px;line-height:1.25"
         id="path202" />
      <path
         d="M 433.30403,17.170735 V 8.6707348 h -0.975 v 0.2125 c -0.4875,-0.2125 -1.0125,-0.3375 -1.5375,-0.3375 -1.5625,0 -2.325,1.25 -2.325,2.9375002 0,1.6625 0.625,2.9375 2.1375,2.9375 0.6375,0 1.225,-0.2875 1.725,-0.6875 v 3.4375 z m -0.975,-3.9625 c -0.375,0.375 -0.8375,0.6875 -1.375,0.6875 -1.1375,0 -1.3875,-1.1 -1.3875,-2.4125 0,-1.175 0.3625,-2.4125002 1.3875,-2.4125002 0.475,0 0.95,0.125 1.375,0.3375 z"
         style="font-size:12.5px;line-height:1.25"
         id="path204" />
      <path
         d="M 439.76652,14.295735 V 8.6707348 h -0.975 v 4.4125002 c -0.425,0.425 -0.95,0.7625 -1.5375,0.7625 -0.5875,0 -1.0375,-0.5125 -1.0375,-1.1125 V 8.6707348 h -0.975 v 4.0625002 c 0,0.9125 0.7,1.6875 1.6,1.6875 0.75,0 1.4125,-0.425 1.95,-0.95 v 0.825 z"
         style="font-size:12.5px;line-height:1.25"
         id="path206" />
      <path
         d="m 444.054,13.858235 v -0.375 c -0.2375,0.2 -0.5125,0.3625 -0.825,0.3625 -0.4625,0 -0.55,-0.575 -0.55,-1.1125 V 8.6707348 h -0.975 v 4.0625002 c 0,0.8375 0.325,1.6875 1.0625,1.6875 0.475,0 0.925,-0.2375 1.2875,-0.5625 z m -1.25,-7.1375002 c 0,-0.3375 -0.275,-0.6125 -0.6125,-0.6125 -0.3375,0 -0.6125,0.275 -0.6125,0.6125 0,0.3375 0.275,0.6125 0.6125,0.6125 0.3375,0 0.6125,-0.275 0.6125,-0.6125 z"
         style="font-size:12.5px;line-height:1.25"
         id="path208" />
      <path
         d="m 454.24147,11.483235 c 0,-1.6625002 -0.625,-2.9375002 -2.1375,-2.9375002 -0.6375,0 -1.225,0.2875 -1.725,0.6875 v -0.5625 h -0.975 v 8.5000002 h 0.975 v -3.0875 c 0.4875,0.2125 1.0125,0.3375 1.5375,0.3375 1.5625,0 2.325,-1.25 2.325,-2.9375 z m -1.1,0 c 0,1.175 -0.3625,2.4125 -1.3875,2.4125 -0.475,0 -0.95,-0.125 -1.375,-0.3375 V 9.7582348 c 0.375,-0.375 0.8375,-0.6875 1.375,-0.6875 1.1375,0 1.3875,1.1000002 1.3875,2.4125002 z"
         style="font-size:12.5px;line-height:1.25"
         id="path210" />
      <path
         d="m 458.21645,13.858235 v -0.375 c -0.2375,0.2 -0.5125,0.3625 -0.825,0.3625 -0.4625,0 -0.55,-0.575 -0.55,-1.1125 V 8.6707348 h -0.975 v 4.0625002 c 0,0.8375 0.325,1.6875 1.0625,1.6875 0.475,0 0.925,-0.2375 1.2875,-0.5625 z m -1.25,-7.1375002 c 0,-0.3375 -0.275,-0.6125 -0.6125,-0.6125 -0.3375,0 -0.6125,0.275 -0.6125,0.6125 0,0.3375 0.275,0.6125 0.6125,0.6125 0.3375,0 0.6125,-0.275 0.6125,-0.6125 z"
         style="font-size:12.5px;line-height:1.25"
         id="path212" />
      <path
         d="m 461.81643,13.858235 v -0.375 c -0.2375,0.2 -0.5125,0.3625 -0.825,0.3625 -0.4625,0 -0.55,-0.575 -0.55,-1.1125 V 5.5457348 h -0.975 v 7.1875002 c 0,0.8375 0.325,1.6875 1.0625,1.6875 0.475,0 0.925,-0.2375 1.2875,-0.5625 z"
         style="font-size:12.5px;line-height:1.25"
         id="path214" />
      <path
         d="m 467.59141,11.483235 c 0,-1.9125002 -0.85,-2.9375002 -2.4125,-2.9375002 -1.575,0 -2.425,1.025 -2.425,2.9375002 0,1.9125 0.85,2.9375 2.425,2.9375 1.5625,0 2.4125,-1.025 2.4125,-2.9375 z m -1.1,0 c 0,1.5625 -0.4625,2.4125 -1.3125,2.4125 -0.8625,0 -1.325,-0.85 -1.325,-2.4125 0,-1.5625002 0.4625,-2.4125002 1.325,-2.4125002 0.85,0 1.3125,0.85 1.3125,2.4125002 z"
         style="font-size:12.5px;line-height:1.25"
         id="path216" />
      <path
         d="m 471.92891,13.858235 v -0.375 c -0.2,0.2 -0.4375,0.3625 -0.725,0.3625 -0.45,0 -0.475,-0.5875 -0.475,-1.1125 V 9.1957348 h 1.2 v -0.525 h -1.2 v -1.875 h -0.5875 c 0,1 -0.575,1.9375 -1.4875,1.9375 v 0.4625 h 1.1 v 3.5375002 c 0,0.825 0.2625,1.6875 0.975,1.6875 0.4625,0 0.8625,-0.25 1.2,-0.5625 z"
         style="font-size:12.5px;line-height:1.25"
         id="path218" />
      <path
         d="m 477.82889,11.608235 v -0.125 c 0,-1.7625002 -0.9625,-2.9375002 -2.4125,-2.9375002 -1.4625,0 -2.425,1.175 -2.425,2.9375002 0,1.7625 0.9625,2.9375 2.425,2.9375 0.625,0 1.2375,-0.2 1.75,-0.5625 v -0.525 c -0.5875,0.375 -1.0625,0.5125 -1.75,0.5125 -1.0625,0 -1.325,-1.0125 -1.325,-2.2375 z m -1.1,-0.525 h -2.6375 c 0,-1 0.425,-2.0125002 1.325,-2.0125002 0.8875,0 1.3125,1.0125002 1.3125,2.0125002 z"
         style="font-size:12.5px;line-height:1.25"
         id="path220" />
      <path
         d="m 397.03539,29.483235 v -0.375 c -0.2375,0.2 -0.5125,0.3625 -0.825,0.3625 -0.4625,0 -0.55,-0.575 -0.55,-1.1125 v -7.1875 h -0.975 v 7.1875 c 0,0.8375 0.325,1.6875 1.0625,1.6875 0.475,0 0.925,-0.2375 1.2875,-0.5625 z"
         style="font-size:12.5px;line-height:1.25"
         id="path222" />
      <path
         d="m 402.81037,27.233235 v -0.125 c 0,-1.7625 -0.9625,-2.9375 -2.4125,-2.9375 -1.4625,0 -2.425,1.175 -2.425,2.9375 0,1.7625 0.9625,2.9375 2.425,2.9375 0.625,0 1.2375,-0.2 1.75,-0.5625 v -0.525 c -0.5875,0.375 -1.0625,0.5125 -1.75,0.5125 -1.0625,0 -1.325,-1.0125 -1.325,-2.2375 z m -1.1,-0.525 h -2.6375 c 0,-1 0.425,-2.0125 1.325,-2.0125 0.8875,0 1.3125,1.0125 1.3125,2.0125 z"
         style="font-size:12.5px;line-height:1.25"
         id="path224" />
      <path
         d="m 408.23535,28.320735 c 0,-0.9875 -1.05,-1.5 -2.075,-1.75 -0.6,-0.15 -1.25,-0.4 -1.25,-0.9875 0,-0.5375 0.55,-0.8875 1.15,-0.8875 0.6625,0 1.325,0.2 1.875,0.5625 v -0.525 c -0.55,-0.3625 -1.2125,-0.5625 -1.875,-0.5625 -1.0875,0 -2.0875,0.6625 -2.0875,1.675 0,0.9125 1.0125,1.3375 1.975,1.575 0.6625,0.1625 1.35,0.5125 1.35,1.15 0,0.5875 -0.6,0.95 -1.2375,0.95 -0.775,0 -1.525,-0.1875 -2.1875,-0.5625 v 0.525 c 0.6625,0.375 1.4125,0.5625 2.1875,0.5625 1.125,0 2.175,-0.675 2.175,-1.725 z"
         style="font-size:12.5px;line-height:1.25"
         id="path226" />
      <path
         d="m 420.78531,29.920735 v -4.0625 c 0,-0.875 -0.5125,-1.6875 -1.325,-1.6875 -0.7,0 -1.35,0.3625 -1.725,0.95 -0.2,-0.55 -0.625,-0.95 -1.2,-0.95 -0.65,0 -1.175,0.45 -1.6,0.95 v -0.825 h -0.975 v 5.625 h 0.975 v -4.425 c 0.3,-0.3875 0.675,-0.75 1.1625,-0.75 0.5125,0 0.7875,0.55 0.7875,1.1125 v 4.0625 h 0.975 v -4.0625 c 0,-0.15 -0.0125,-0.2875 -0.0375,-0.4375 0.3,-0.3875 0.7125,-0.675 1.2,-0.675 0.5125,0 0.7875,0.55 0.7875,1.1125 v 4.0625 z"
         style="font-size:12.5px;line-height:1.25"
         id="path228" />
      <path
         d="m 427.24779,27.108235 c 0,-1.9125 -0.85,-2.9375 -2.4125,-2.9375 -1.575,0 -2.425,1.025 -2.425,2.9375 0,1.9125 0.85,2.9375 2.425,2.9375 1.5625,0 2.4125,-1.025 2.4125,-2.9375 z m -1.1,0 c 0,1.5625 -0.4625,2.4125 -1.3125,2.4125 -0.8625,0 -1.325,-0.85 -1.325,-2.4125 0,-1.5625 0.4625,-2.4125 1.325,-2.4125 0.85,0 1.3125,0.85 1.3125,2.4125 z"
         style="font-size:12.5px;line-height:1.25"
         id="path230" />
      <path
         d="m 431.58529,29.483235 v -0.375 c -0.2,0.2 -0.4375,0.3625 -0.725,0.3625 -0.45,0 -0.475,-0.5875 -0.475,-1.1125 v -3.5375 h 1.2 v -0.525 h -1.2 v -1.875 h -0.5875 c 0,1 -0.575,1.9375 -1.4875,1.9375 v 0.4625 h 1.1 v 3.5375 c 0,0.825 0.2625,1.6875 0.975,1.6875 0.4625,0 0.8625,-0.25 1.2,-0.5625 z"
         style="font-size:12.5px;line-height:1.25"
         id="path232" />
      <path
         d="m 437.48527,27.233235 v -0.125 c 0,-1.7625 -0.9625,-2.9375 -2.4125,-2.9375 -1.4625,0 -2.425,1.175 -2.425,2.9375 0,1.7625 0.9625,2.9375 2.425,2.9375 0.625,0 1.2375,-0.2 1.75,-0.5625 v -0.525 c -0.5875,0.375 -1.0625,0.5125 -1.75,0.5125 -1.0625,0 -1.325,-1.0125 -1.325,-2.2375 z m -1.1,-0.525 h -2.6375 c 0,-1 0.425,-2.0125 1.325,-2.0125 0.8875,0 1.3125,1.0125 1.3125,2.0125 z"
         style="font-size:12.5px;line-height:1.25"
         id="path234" />
      <path
         d="m 443.57275,29.920735 v -5.625 h -0.975 v 4.4125 c -0.425,0.425 -0.95,0.7625 -1.5375,0.7625 -0.5875,0 -1.0375,-0.5125 -1.0375,-1.1125 v -4.0625 h -0.975 v 4.0625 c 0,0.9125 0.7,1.6875 1.6,1.6875 0.75,0 1.4125,-0.425 1.95,-0.95 v 0.825 z"
         style="font-size:12.5px;line-height:1.25"
         id="path236" />
      <path
         d="m 448.68523,25.070735 v -0.775 c -0.1375,-0.05 -0.2875,-0.0875 -0.425,-0.0875 -0.7,0 -1.2625,0.4875 -1.7125,1.025 v -0.9375 h -0.975 v 5.625 h 0.975 v -4.1625 c 0.375,-0.4375 0.85,-0.8125 1.425,-0.8125 0.2375,0 0.4875,0.05 0.7125,0.125 z"
         style="font-size:12.5px;line-height:1.25"
         id="path238" />
      <path
         d="m 453.73522,28.320735 c 0,-0.9875 -1.05,-1.5 -2.075,-1.75 -0.6,-0.15 -1.25,-0.4 -1.25,-0.9875 0,-0.5375 0.55,-0.8875 1.15,-0.8875 0.6625,0 1.325,0.2 1.875,0.5625 v -0.525 c -0.55,-0.3625 -1.2125,-0.5625 -1.875,-0.5625 -1.0875,0 -2.0875,0.6625 -2.0875,1.675 0,0.9125 1.0125,1.3375 1.975,1.575 0.6625,0.1625 1.35,0.5125 1.35,1.15 0,0.5875 -0.6,0.95 -1.2375,0.95 -0.775,0 -1.525,-0.1875 -2.1875,-0.5625 v 0.525 c 0.6625,0.375 1.4125,0.5625 2.1875,0.5625 1.125,0 2.175,-0.675 2.175,-1.725 z"
         style="font-size:12.5px;line-height:1.25"
         id="path240" />
      <path
         d="m 456.24771,29.308235 c 0,-0.3375 -0.275,-0.6125 -0.6125,-0.6125 -0.3375,0 -0.6125,0.275 -0.6125,0.6125 0,0.3375 0.275,0.6125 0.6125,0.6125 0.3375,0 0.6125,-0.275 0.6125,-0.6125 z"
         style="font-size:12.5px;line-height:1.25"
         id="path242" />
    </g>
    <path
       style="fill:#d8eff4;fill-opacity:1;fill-rule:evenodd;stroke:#000000;stroke-width:0.999213;stroke-linecap:butt;stroke-linejoin:miter;stroke-miterlimit:4;stroke-dasharray:2.99764, 2.99764;stroke-dashoffset:0;stroke-opacity:1"
       d="M 1.3515695e-7,-49.60633 H 127.55905 V 67.322799 H 1.3515695e-7"
       id="path3394" />
    <g
       aria-label="Électronique de
réception des signaux
de la télécommande."
       id="text3364"
       style="line-height:0%;font-family:Iwona;-inkscape-font-specification:Iwona;text-align:center;letter-spacing:0px;word-spacing:0px;text-anchor:middle;stroke-width:1px">
      <path
         d="m 29.310886,-1.3292652 v -0.575 h -5.225 v -3.5125 h 3.975 v -0.575 h -3.975 v -3.5125 h 4.925 v -0.5749998 h -5.95 v 8.7499998 z m -1.3625,-10.9999998 h -1.125 c -0.3,0.675 -0.75,1.2625 -1.3125,1.7375 h 0.525 c 0.7125,-0.5 1.35,-1.075 1.9125,-1.7375 z"
         style="font-size:12.5px;line-height:1.25"
         id="path245" />
      <path
         d="m 33.410884,-1.7667652 v -0.375 c -0.2375,0.2 -0.5125,0.3625 -0.825,0.3625 -0.4625,0 -0.55,-0.575 -0.55,-1.1125 v -7.1874998 h -0.975 v 7.1874998 c 0,0.8375 0.325,1.6875 1.0625,1.6875 0.475,0 0.925,-0.2375 1.2875,-0.5625 z"
         style="font-size:12.5px;line-height:1.25"
         id="path247" />
      <path
         d="m 39.185861,-4.0167652 v -0.125 c 0,-1.7625 -0.9625,-2.9375 -2.4125,-2.9375 -1.4625,0 -2.425,1.175 -2.425,2.9375 0,1.7625 0.9625,2.9375 2.425,2.9375 0.625,0 1.2375,-0.2 1.75,-0.5625 v -0.525 c -0.5875,0.375 -1.0625,0.5125 -1.75,0.5125 -1.0625,0 -1.325,-1.0125 -1.325,-2.2375 z m -1.1,-0.525 h -2.6375 c 0,-1 0.425,-2.0125 1.325,-2.0125 0.8875,0 1.3125,1.0125 1.3125,2.0125 z"
         style="font-size:12.5px;line-height:1.25"
         id="path249" />
      <path
         d="m 44.860844,-5.6542652 v -0.525 c -0.4,-0.5625 -1.05,-0.9 -1.75,-0.9 -1.5625,0 -2.6125,1.175 -2.6125,2.9375 0,1.7625 1.05,2.9375 2.6125,2.9375 0.65,0 1.2625,-0.325 1.625,-0.8625 v -0.525 c -0.425,0.6375 -0.8625,0.8625 -1.625,0.8625 -0.9,0 -1.5125,-0.9625 -1.5125,-2.4125 0,-1.45 0.6125,-2.4125 1.5125,-2.4125 0.775,0 1.3,0.275 1.75,0.9 z"
         style="font-size:12.5px;line-height:1.25"
         id="path251" />
      <path
         d="m 48.823332,-1.7667652 v -0.375 c -0.2,0.2 -0.4375,0.3625 -0.725,0.3625 -0.45,0 -0.475,-0.5875 -0.475,-1.1125 v -3.5375 h 1.2 v -0.525 h -1.2 v -1.875 h -0.5875 c 0,1 -0.575,1.9375 -1.4875,1.9375 v 0.4625 h 1.1 v 3.5375 c 0,0.825 0.2625,1.6875 0.975,1.6875 0.4625,0 0.8625,-0.25 1.2,-0.5625 z"
         style="font-size:12.5px;line-height:1.25"
         id="path253" />
      <path
         d="m 53.310814,-6.1792652 v -0.775 c -0.1375,-0.05 -0.2875,-0.0875 -0.425,-0.0875 -0.7,0 -1.2625,0.4875 -1.7125,1.025 v -0.9375 h -0.975 v 5.625 h 0.975 v -4.1625 c 0.375,-0.4375 0.85,-0.8125 1.425,-0.8125 0.2375,0 0.4875,0.05 0.7125,0.125 z"
         style="font-size:12.5px;line-height:1.25"
         id="path255" />
      <path
         d="m 59.085802,-4.1417652 c 0,-1.9125 -0.85,-2.9375 -2.4125,-2.9375 -1.575,0 -2.425,1.025 -2.425,2.9375 0,1.9125 0.85,2.9375 2.425,2.9375 1.5625,0 2.4125,-1.025 2.4125,-2.9375 z m -1.1,0 c 0,1.5625 -0.4625,2.4125 -1.3125,2.4125 -0.8625,0 -1.325,-0.85 -1.325,-2.4125 0,-1.5625 0.4625,-2.4125 1.325,-2.4125 0.85,0 1.3125,0.85 1.3125,2.4125 z"
         style="font-size:12.5px;line-height:1.25"
         id="path257" />
      <path
         d="m 65.2983,-1.3292652 v -4.0625 c 0,-0.9125 -0.7,-1.6875 -1.6,-1.6875 -0.75,0 -1.4125,0.425 -1.95,0.95 v -0.825 h -0.975 v 5.625 h 0.975 v -4.4125 c 0.425,-0.425 0.95,-0.7625 1.5375,-0.7625 0.5875,0 1.0375,0.5125 1.0375,1.1125 v 4.0625 z"
         style="font-size:12.5px;line-height:1.25"
         id="path259" />
      <path
         d="m 69.523278,-1.7667652 v -0.375 c -0.2375,0.2 -0.5125,0.3625 -0.825,0.3625 -0.4625,0 -0.55,-0.575 -0.55,-1.1125 v -4.0625 h -0.975 v 4.0625 c 0,0.8375 0.325,1.6875 1.0625,1.6875 0.475,0 0.925,-0.2375 1.2875,-0.5625 z m -1.25,-7.1375 c 0,-0.3375 -0.275,-0.6125 -0.6125,-0.6125 -0.3375,0 -0.6125,0.275 -0.6125,0.6125 0,0.3375 0.275,0.6125 0.6125,0.6125 0.3375,0 0.6125,-0.275 0.6125,-0.6125 z"
         style="font-size:12.5px;line-height:1.25"
         id="path261" />
      <path
         d="m 75.298265,1.5457348 v -8.5 h -0.975 v 0.2125 c -0.4875,-0.2125 -1.0125,-0.3375 -1.5375,-0.3375 -1.5625,0 -2.325,1.25 -2.325,2.9375 0,1.6625 0.625,2.9375 2.1375,2.9375 0.6375,0 1.225,-0.2875 1.725,-0.6875 v 3.4375 z m -0.975,-3.9625 c -0.375,0.375 -0.8375,0.6875 -1.375,0.6875 -1.1375,0 -1.3875,-1.1 -1.3875,-2.4125 0,-1.175 0.3625,-2.4125 1.3875,-2.4125 0.475,0 0.95,0.125 1.375,0.3375 z"
         style="font-size:12.5px;line-height:1.25"
         id="path263" />
      <path
         d="m 81.760759,-1.3292652 v -5.625 h -0.975 v 4.4125 c -0.425,0.425 -0.95,0.7625 -1.5375,0.7625 -0.5875,0 -1.0375,-0.5125 -1.0375,-1.1125 v -4.0625 h -0.975 v 4.0625 c 0,0.9125 0.7,1.6875 1.6,1.6875 0.75,0 1.4125,-0.425 1.95,-0.95 v 0.825 z"
         style="font-size:12.5px;line-height:1.25"
         id="path265" />
      <path
         d="m 88.285738,-4.0167652 v -0.125 c 0,-1.7625 -0.9625,-2.9375 -2.4125,-2.9375 -1.4625,0 -2.425,1.175 -2.425,2.9375 0,1.7625 0.9625,2.9375 2.425,2.9375 0.625,0 1.2375,-0.2 1.75,-0.5625 v -0.525 c -0.5875,0.375 -1.0625,0.5125 -1.75,0.5125 -1.0625,0 -1.325,-1.0125 -1.325,-2.2375 z m -1.1,-0.525 h -2.6375 c 0,-1 0.425,-2.0125 1.325,-2.0125 0.8875,0 1.3125,1.0125 1.3125,2.0125 z"
         style="font-size:12.5px;line-height:1.25"
         id="path267" />
      <path
         d="m 98.5982,-1.3292652 v -8.7499998 h -0.975 v 3.3374998 c -0.4875,-0.2125 -1.0125,-0.3375 -1.5375,-0.3375 -1.5625,0 -2.325,1.25 -2.325,2.9375 0,1.6625 0.625,2.9375 2.1375,2.9375 0.6375,0 1.225,-0.2875 1.725,-0.6875 v 0.5625 z m -0.975,-1.0875 c -0.375,0.375 -0.8375,0.6875 -1.375,0.6875 -1.1375,0 -1.3875,-1.1 -1.3875,-2.4125 0,-1.175 0.3625,-2.4125 1.3875,-2.4125 0.475,0 0.95,0.125 1.375,0.3375 z"
         style="font-size:12.5px;line-height:1.25"
         id="path269" />
      <path
         d="m 105.12319,-4.0167652 v -0.125 c 0,-1.7625 -0.9625,-2.9375 -2.4125,-2.9375 -1.4625,0 -2.425,1.175 -2.425,2.9375 0,1.7625 0.9625,2.9375 2.425,2.9375 0.625,0 1.2375,-0.2 1.75,-0.5625 v -0.525 c -0.5875,0.375 -1.0625,0.5125 -1.75,0.5125 -1.0625,0 -1.325,-1.0125 -1.325,-2.2375 z m -1.1,-0.525 h -2.6375 c 0,-1 0.425,-2.0125 1.325,-2.0125 0.8875,0 1.3125,1.0125 1.3125,2.0125 z"
         style="font-size:12.5px;line-height:1.25"
         id="path271" />
      <path
         d="m 10.304692,9.4457348 v -0.775 c -0.1375,-0.05 -0.2875,-0.0875 -0.4249999,-0.0875 -0.7,0 -1.2625,0.4875 -1.7125,1.025 v -0.9375 h -0.975 v 5.6250002 h 0.975 v -4.1625 c 0.375,-0.4375002 0.85,-0.8125002 1.425,-0.8125002 0.2375,0 0.4874999,0.05 0.7124999,0.125 z"
         style="font-size:12.5px;line-height:1.25"
         id="path273" />
      <path
         d="m 16.07968,11.608235 v -0.125 c 0,-1.7625002 -0.9625,-2.9375002 -2.4125,-2.9375002 -1.4625,0 -2.425,1.175 -2.425,2.9375002 0,1.7625 0.9625,2.9375 2.425,2.9375 0.625,0 1.2375,-0.2 1.75,-0.5625 v -0.525 c -0.5875,0.375 -1.0625,0.5125 -1.75,0.5125 -1.0625,0 -1.325,-1.0125 -1.325,-2.2375 z m -1.1,-0.525 h -2.6375 c 0,-1 0.425,-2.0125002 1.325,-2.0125002 0.8875,0 1.3125,1.0125002 1.3125,2.0125002 z m 0.0375,-5.5375002 h -1.125 c 0,0.8375 -0.2625,1.6625 -0.75,2.3375 h 0.525 c 0.6625,-0.6625 1.35,-1.4 1.35,-2.3375 z"
         style="font-size:12.5px;line-height:1.25"
         id="path275" />
      <path
         d="m 21.754663,9.9707348 v -0.525 c -0.4,-0.5625 -1.05,-0.9 -1.75,-0.9 -1.5625,0 -2.6125,1.175 -2.6125,2.9375002 0,1.7625 1.05,2.9375 2.6125,2.9375 0.65,0 1.2625,-0.325 1.625,-0.8625 v -0.525 c -0.425,0.6375 -0.8625,0.8625 -1.625,0.8625 -0.9,0 -1.5125,-0.9625 -1.5125,-2.4125 0,-1.45 0.6125,-2.4125002 1.5125,-2.4125002 0.775,0 1.3,0.275 1.75,0.9 z"
         style="font-size:12.5px;line-height:1.25"
         id="path277" />
      <path
         d="m 27.59215,11.608235 v -0.125 c 0,-1.7625002 -0.9625,-2.9375002 -2.4125,-2.9375002 -1.4625,0 -2.425,1.175 -2.425,2.9375002 0,1.7625 0.9625,2.9375 2.425,2.9375 0.625,0 1.2375,-0.2 1.75,-0.5625 v -0.525 c -0.5875,0.375 -1.0625,0.5125 -1.75,0.5125 -1.0625,0 -1.325,-1.0125 -1.325,-2.2375 z m -1.1,-0.525 h -2.6375 c 0,-1 0.425,-2.0125002 1.325,-2.0125002 0.8875,0 1.3125,1.0125002 1.3125,2.0125002 z"
         style="font-size:12.5px;line-height:1.25"
         id="path279" />
      <path
         d="m 33.992133,11.483235 c 0,-1.6625002 -0.625,-2.9375002 -2.1375,-2.9375002 -0.6375,0 -1.225,0.2875 -1.725,0.6875 v -0.5625 h -0.975 v 8.5000002 h 0.975 v -3.0875 c 0.4875,0.2125 1.0125,0.3375 1.5375,0.3375 1.5625,0 2.325,-1.25 2.325,-2.9375 z m -1.1,0 c 0,1.175 -0.3625,2.4125 -1.3875,2.4125 -0.475,0 -0.95,-0.125 -1.375,-0.3375 V 9.7582348 c 0.375,-0.375 0.8375,-0.6875 1.375,-0.6875 1.1375,0 1.3875,1.1000002 1.3875,2.4125002 z"
         style="font-size:12.5px;line-height:1.25"
         id="path281" />
      <path
         d="m 38.329611,13.858235 v -0.375 c -0.2,0.2 -0.4375,0.3625 -0.725,0.3625 -0.45,0 -0.475,-0.5875 -0.475,-1.1125 V 9.1957348 h 1.2 v -0.525 h -1.2 v -1.875 h -0.5875 c 0,1 -0.575,1.9375 -1.4875,1.9375 v 0.4625 h 1.1 v 3.5375002 c 0,0.825 0.2625,1.6875 0.975,1.6875 0.4625,0 0.8625,-0.25 1.2,-0.5625 z"
         style="font-size:12.5px;line-height:1.25"
         id="path283" />
      <path
         d="m 41.992094,13.858235 v -0.375 c -0.2375,0.2 -0.5125,0.3625 -0.825,0.3625 -0.4625,0 -0.55,-0.575 -0.55,-1.1125 V 8.6707348 h -0.975 v 4.0625002 c 0,0.8375 0.325,1.6875 1.0625,1.6875 0.475,0 0.925,-0.2375 1.2875,-0.5625 z m -1.25,-7.1375002 c 0,-0.3375 -0.275,-0.6125 -0.6125,-0.6125 -0.3375,0 -0.6125,0.275 -0.6125,0.6125 0,0.3375 0.275,0.6125 0.6125,0.6125 0.3375,0 0.6125,-0.275 0.6125,-0.6125 z"
         style="font-size:12.5px;line-height:1.25"
         id="path285" />
      <path
         d="m 47.767081,11.483235 c 0,-1.9125002 -0.85,-2.9375002 -2.4125,-2.9375002 -1.575,0 -2.425,1.025 -2.425,2.9375002 0,1.9125 0.85,2.9375 2.425,2.9375 1.5625,0 2.4125,-1.025 2.4125,-2.9375 z m -1.1,0 c 0,1.5625 -0.4625,2.4125 -1.3125,2.4125 -0.8625,0 -1.325,-0.85 -1.325,-2.4125 0,-1.5625002 0.4625,-2.4125002 1.325,-2.4125002 0.85,0 1.3125,0.85 1.3125,2.4125002 z"
         style="font-size:12.5px;line-height:1.25"
         id="path287" />
      <path
         d="m 53.979578,14.295735 v -4.0625 c 0,-0.9125002 -0.7,-1.6875002 -1.6,-1.6875002 -0.75,0 -1.4125,0.425 -1.95,0.95 v -0.825 h -0.975 v 5.6250002 h 0.975 V 9.8832348 c 0.425,-0.425 0.95,-0.7625 1.5375,-0.7625 0.5875,0 1.0375,0.5125 1.0375,1.1125002 v 4.0625 z"
         style="font-size:12.5px;line-height:1.25"
         id="path289" />
      <path
         d="M 64.604536,14.295735 V 5.5457348 h -0.975 v 3.3375 c -0.4875,-0.2125 -1.0125,-0.3375 -1.5375,-0.3375 -1.5625,0 -2.325,1.25 -2.325,2.9375002 0,1.6625 0.625,2.9375 2.1375,2.9375 0.6375,0 1.225,-0.2875 1.725,-0.6875 v 0.5625 z m -0.975,-1.0875 c -0.375,0.375 -0.8375,0.6875 -1.375,0.6875 -1.1375,0 -1.3875,-1.1 -1.3875,-2.4125 0,-1.175 0.3625,-2.4125002 1.3875,-2.4125002 0.475,0 0.95,0.125 1.375,0.3375 z"
         style="font-size:12.5px;line-height:1.25"
         id="path291" />
      <path
         d="m 71.12953,11.608235 v -0.125 c 0,-1.7625002 -0.9625,-2.9375002 -2.4125,-2.9375002 -1.4625,0 -2.425,1.175 -2.425,2.9375002 0,1.7625 0.9625,2.9375 2.425,2.9375 0.625,0 1.2375,-0.2 1.75,-0.5625 v -0.525 c -0.5875,0.375 -1.0625,0.5125 -1.75,0.5125 -1.0625,0 -1.325,-1.0125 -1.325,-2.2375 z m -1.1,-0.525 h -2.6375 c 0,-1 0.425,-2.0125002 1.325,-2.0125002 0.8875,0 1.3125,1.0125002 1.3125,2.0125002 z"
         style="font-size:12.5px;line-height:1.25"
         id="path293" />
      <path
         d="m 76.554509,12.695735 c 0,-0.9875 -1.05,-1.5 -2.075,-1.75 -0.6,-0.15 -1.25,-0.4 -1.25,-0.9875002 0,-0.5375 0.55,-0.8875 1.15,-0.8875 0.6625,0 1.325,0.2 1.875,0.5625 v -0.525 c -0.55,-0.3625 -1.2125,-0.5625 -1.875,-0.5625 -1.0875,0 -2.0875,0.6625 -2.0875,1.6750002 0,0.9125 1.0125,1.3375 1.975,1.575 0.6625,0.1625 1.35,0.5125 1.35,1.15 0,0.5875 -0.6,0.95 -1.2375,0.95 -0.775,0 -1.525,-0.1875 -2.1875,-0.5625 v 0.525 c 0.6625,0.375 1.4125,0.5625 2.1875,0.5625 1.125,0 2.175,-0.675 2.175,-1.725 z"
         style="font-size:12.5px;line-height:1.25"
         id="path295" />
      <path
         d="m 86.07948,12.695735 c 0,-0.9875 -1.05,-1.5 -2.075,-1.75 -0.6,-0.15 -1.25,-0.4 -1.25,-0.9875002 0,-0.5375 0.55,-0.8875 1.15,-0.8875 0.6625,0 1.325,0.2 1.875,0.5625 v -0.525 c -0.55,-0.3625 -1.2125,-0.5625 -1.875,-0.5625 -1.0875,0 -2.0875,0.6625 -2.0875,1.6750002 0,0.9125 1.0125,1.3375 1.975,1.575 0.6625,0.1625 1.35,0.5125 1.35,1.15 0,0.5875 -0.6,0.95 -1.2375,0.95 -0.775,0 -1.525,-0.1875 -2.1875,-0.5625 v 0.525 c 0.6625,0.375 1.4125,0.5625 2.1875,0.5625 1.125,0 2.175,-0.675 2.175,-1.725 z"
         style="font-size:12.5px;line-height:1.25"
         id="path297" />
      <path
         d="m 89.92946,13.858235 v -0.375 c -0.2375,0.2 -0.5125,0.3625 -0.825,0.3625 -0.4625,0 -0.55,-0.575 -0.55,-1.1125 V 8.6707348 h -0.975 v 4.0625002 c 0,0.8375 0.325,1.6875 1.0625,1.6875 0.475,0 0.925,-0.2375 1.2875,-0.5625 z m -1.25,-7.1375002 c 0,-0.3375 -0.275,-0.6125 -0.6125,-0.6125 -0.3375,0 -0.6125,0.275 -0.6125,0.6125 0,0.3375 0.275,0.6125 0.6125,0.6125 0.3375,0 0.6125,-0.275 0.6125,-0.6125 z"
         style="font-size:12.5px;line-height:1.25"
         id="path299" />
      <path
         d="M 95.704451,15.045735 V 8.6707348 h -0.975 v 0.2125 c -0.4875,-0.2125 -1.0125,-0.3375 -1.5375,-0.3375 -1.5625,0 -2.325,1.25 -2.325,2.9375002 0,1.6625 0.625,2.9375 2.1375,2.9375 0.6375,0 1.225,-0.2875 1.725,-0.6875 v 1.3125 c 0,0.8625 -0.475,1.675 -1.25,1.675 -0.6375,0 -1.275,-0.125 -1.875,-0.3375 v 0.3875 c 0.7,0.325 1.475,0.525 2.25,0.525 1.1,0 1.85,-1.075 1.85,-2.25 z m -0.975,-1.8375 c -0.375,0.375 -0.8375,0.6875 -1.375,0.6875 -1.1375,0 -1.3875,-1.1 -1.3875,-2.4125 0,-1.175 0.3625,-2.4125002 1.3875,-2.4125002 0.475,0 0.95,0.125 1.375,0.3375 z"
         style="font-size:12.5px;line-height:1.25"
         id="path301" />
      <path
         d="m 102.22944,14.295735 v -4.0625 c 0,-0.9125002 -0.7,-1.6875002 -1.6,-1.6875002 -0.749995,0 -1.412495,0.425 -1.949995,0.95 v -0.825 h -0.975 v 5.6250002 h 0.975 V 9.8832348 c 0.425,-0.425 0.95,-0.7625 1.537495,-0.7625 0.5875,0 1.0375,0.5125 1.0375,1.1125002 v 4.0625 z"
         style="font-size:12.5px;line-height:1.25"
         id="path303" />
      <path
         d="m 108.56692,14.295735 v -3.5 c 0,-1.1750002 -0.725,-2.2500002 -1.8125,-2.2500002 -0.8,0 -1.55,0.275 -2.225,0.7 v 0.3875 c 0.5625,-0.3125 1.1875,-0.5125 1.8375,-0.5125 0.775,0 1.225,0.825 1.225,1.6750002 v 0.225 c -0.4875,-0.2125 -1.0125,-0.3375 -1.5375,-0.3375 -1.3375,0 -2.325,0.6125 -2.325,1.875 0,1.2 0.875,1.8625 2.1375,1.8625 0.6375,0 1.225,-0.2875 1.725,-0.6875 v 0.5625 z m -0.975,-1.0875 c -0.375,0.375 -0.8375,0.6875 -1.375,0.6875 -0.8375,0 -1.3875,-0.5125 -1.3875,-1.3375 0,-0.7625 0.625,-1.35 1.3875,-1.35 0.475,0 0.95,0.125 1.375,0.3375 z"
         style="font-size:12.5px;line-height:1.25"
         id="path305" />
      <path
         d="M 115.02941,14.295735 V 8.6707348 h -0.975 v 4.4125002 c -0.425,0.425 -0.95,0.7625 -1.5375,0.7625 -0.5875,0 -1.0375,-0.5125 -1.0375,-1.1125 V 8.6707348 h -0.975 v 4.0625002 c 0,0.9125 0.7,1.6875 1.6,1.6875 0.75,0 1.4125,-0.425 1.95,-0.95 v 0.825 z"
         style="font-size:12.5px;line-height:1.25"
         id="path307" />
      <path
         d="m 121.11689,14.295735 -1.9625,-3 1.9,-2.6250002 h -0.65 l -1.55,2.1500002 -1.4,-2.1500002 h -1.05 l 1.8625,2.8625002 -1.9875,2.7625 h 0.65 l 1.65,-2.2875 1.4875,2.2875 z"
         style="font-size:12.5px;line-height:1.25"
         id="path309" />
      <path
         d="m 15.185932,29.920735 v -8.75 h -0.975 v 3.3375 c -0.4875,-0.2125 -1.0125,-0.3375 -1.5375,-0.3375 -1.5625,0 -2.325,1.25 -2.325,2.9375 0,1.6625 0.625,2.9375 2.1375,2.9375 0.6375,0 1.225,-0.2875 1.725,-0.6875 v 0.5625 z m -0.975,-1.0875 c -0.375,0.375 -0.8375,0.6875 -1.375,0.6875 -1.1375,0 -1.3875,-1.1 -1.3875,-2.4125 0,-1.175 0.3625,-2.4125 1.3875,-2.4125 0.475,0 0.95,0.125 1.375,0.3375 z"
         style="font-size:12.5px;line-height:1.25"
         id="path311" />
      <path
         d="m 21.710924,27.233235 v -0.125 c 0,-1.7625 -0.9625,-2.9375 -2.4125,-2.9375 -1.4625,0 -2.425,1.175 -2.425,2.9375 0,1.7625 0.9625,2.9375 2.425,2.9375 0.625,0 1.2375,-0.2 1.75,-0.5625 v -0.525 c -0.5875,0.375 -1.0625,0.5125 -1.75,0.5125 -1.0625,0 -1.325,-1.0125 -1.325,-2.2375 z m -1.1,-0.525 h -2.6375 c 0,-1 0.425,-2.0125 1.325,-2.0125 0.8875,0 1.3125,1.0125 1.3125,2.0125 z"
         style="font-size:12.5px;line-height:1.25"
         id="path313" />
      <path
         d="m 29.848386,29.483235 v -0.375 c -0.2375,0.2 -0.5125,0.3625 -0.825,0.3625 -0.4625,0 -0.55,-0.575 -0.55,-1.1125 v -7.1875 h -0.975 v 7.1875 c 0,0.8375 0.325,1.6875 1.0625,1.6875 0.475,0 0.925,-0.2375 1.2875,-0.5625 z"
         style="font-size:12.5px;line-height:1.25"
         id="path315" />
      <path
         d="m 35.498363,29.920735 v -3.5 c 0,-1.175 -0.725,-2.25 -1.8125,-2.25 -0.8,0 -1.55,0.275 -2.225,0.7 v 0.3875 c 0.5625,-0.3125 1.1875,-0.5125 1.8375,-0.5125 0.775,0 1.225,0.825 1.225,1.675 v 0.225 c -0.4875,-0.2125 -1.0125,-0.3375 -1.5375,-0.3375 -1.3375,0 -2.325,0.6125 -2.325,1.875 0,1.2 0.875,1.8625 2.1375,1.8625 0.6375,0 1.225,-0.2875 1.725,-0.6875 v 0.5625 z m -0.975,-1.0875 c -0.375,0.375 -0.8375,0.6875 -1.375,0.6875 -0.8375,0 -1.3875,-0.5125 -1.3875,-1.3375 0,-0.7625 0.625,-1.35 1.3875,-1.35 0.475,0 0.95,0.125 1.375,0.3375 z"
         style="font-size:12.5px;line-height:1.25"
         id="path317" />
      <path
         d="m 44.310831,29.483235 v -0.375 c -0.2,0.2 -0.4375,0.3625 -0.725,0.3625 -0.45,0 -0.475,-0.5875 -0.475,-1.1125 v -3.5375 h 1.2 v -0.525 h -1.2 v -1.875 h -0.5875 c 0,1 -0.575,1.9375 -1.4875,1.9375 v 0.4625 h 1.1 v 3.5375 c 0,0.825 0.2625,1.6875 0.975,1.6875 0.4625,0 0.8625,-0.25 1.2,-0.5625 z"
         style="font-size:12.5px;line-height:1.25"
         id="path319" />
      <path
         d="m 50.210812,27.233235 v -0.125 c 0,-1.7625 -0.9625,-2.9375 -2.4125,-2.9375 -1.4625,0 -2.425,1.175 -2.425,2.9375 0,1.7625 0.9625,2.9375 2.425,2.9375 0.625,0 1.2375,-0.2 1.75,-0.5625 v -0.525 c -0.5875,0.375 -1.0625,0.5125 -1.75,0.5125 -1.0625,0 -1.325,-1.0125 -1.325,-2.2375 z m -1.1,-0.525 h -2.6375 c 0,-1 0.425,-2.0125 1.325,-2.0125 0.8875,0 1.3125,1.0125 1.3125,2.0125 z m 0.0375,-5.5375 h -1.125 c 0,0.8375 -0.2625,1.6625 -0.75,2.3375 h 0.525 c 0.6625,-0.6625 1.35,-1.4 1.35,-2.3375 z"
         style="font-size:12.5px;line-height:1.25"
         id="path321" />
      <path
         d="m 54.185798,29.483235 v -0.375 c -0.2375,0.2 -0.5125,0.3625 -0.825,0.3625 -0.4625,0 -0.55,-0.575 -0.55,-1.1125 v -7.1875 h -0.975 v 7.1875 c 0,0.8375 0.325,1.6875 1.0625,1.6875 0.475,0 0.925,-0.2375 1.2875,-0.5625 z"
         style="font-size:12.5px;line-height:1.25"
         id="path323" />
      <path
         d="m 59.960773,27.233235 v -0.125 c 0,-1.7625 -0.9625,-2.9375 -2.4125,-2.9375 -1.4625,0 -2.425,1.175 -2.425,2.9375 0,1.7625 0.9625,2.9375 2.425,2.9375 0.625,0 1.2375,-0.2 1.75,-0.5625 v -0.525 c -0.5875,0.375 -1.0625,0.5125 -1.75,0.5125 -1.0625,0 -1.325,-1.0125 -1.325,-2.2375 z m -1.1,-0.525 h -2.6375 c 0,-1 0.425,-2.0125 1.325,-2.0125 0.8875,0 1.3125,1.0125 1.3125,2.0125 z m 0.0375,-5.5375 h -1.125 c 0,0.8375 -0.2625,1.6625 -0.75,2.3375 h 0.525 c 0.6625,-0.6625 1.35,-1.4 1.35,-2.3375 z"
         style="font-size:12.5px;line-height:1.25"
         id="path325" />
      <path
         d="m 65.63576,25.595735 v -0.525 c -0.4,-0.5625 -1.05,-0.9 -1.75,-0.9 -1.5625,0 -2.6125,1.175 -2.6125,2.9375 0,1.7625 1.05,2.9375 2.6125,2.9375 0.65,0 1.2625,-0.325 1.625,-0.8625 v -0.525 c -0.425,0.6375 -0.8625,0.8625 -1.625,0.8625 -0.9,0 -1.5125,-0.9625 -1.5125,-2.4125 0,-1.45 0.6125,-2.4125 1.5125,-2.4125 0.775,0 1.3,0.275 1.75,0.9 z"
         style="font-size:12.5px;line-height:1.25"
         id="path327" />
      <path
         d="m 71.473244,27.108235 c 0,-1.9125 -0.85,-2.9375 -2.4125,-2.9375 -1.575,0 -2.425,1.025 -2.425,2.9375 0,1.9125 0.85,2.9375 2.425,2.9375 1.5625,0 2.4125,-1.025 2.4125,-2.9375 z m -1.1,0 c 0,1.5625 -0.4625,2.4125 -1.3125,2.4125 -0.8625,0 -1.325,-0.85 -1.325,-2.4125 0,-1.5625 0.4625,-2.4125 1.325,-2.4125 0.85,0 1.3125,0.85 1.3125,2.4125 z"
         style="font-size:12.5px;line-height:1.25"
         id="path329" />
      <path
         d="m 79.985741,29.920735 v -4.0625 c 0,-0.875 -0.5125,-1.6875 -1.325,-1.6875 -0.7,0 -1.35,0.3625 -1.725,0.95 -0.2,-0.55 -0.625,-0.95 -1.2,-0.95 -0.65,0 -1.175,0.45 -1.6,0.95 v -0.825 h -0.975 v 5.625 h 0.975 v -4.425 c 0.3,-0.3875 0.675,-0.75 1.1625,-0.75 0.5125,0 0.7875,0.55 0.7875,1.1125 v 4.0625 h 0.975 v -4.0625 c 0,-0.15 -0.0125,-0.2875 -0.0375,-0.4375 0.3,-0.3875 0.7125,-0.675 1.2,-0.675 0.5125,0 0.7875,0.55 0.7875,1.1125 v 4.0625 z"
         style="font-size:12.5px;line-height:1.25"
         id="path331" />
      <path
         d="m 88.748223,29.920735 v -4.0625 c 0,-0.875 -0.5125,-1.6875 -1.325,-1.6875 -0.7,0 -1.35,0.3625 -1.725,0.95 -0.2,-0.55 -0.625,-0.95 -1.2,-0.95 -0.65,0 -1.175,0.45 -1.6,0.95 v -0.825 h -0.975 v 5.625 h 0.975 v -4.425 c 0.3,-0.3875 0.675,-0.75 1.1625,-0.75 0.5125,0 0.7875,0.55 0.7875,1.1125 v 4.0625 h 0.975 v -4.0625 c 0,-0.15 -0.0125,-0.2875 -0.0375,-0.4375 0.3,-0.3875 0.7125,-0.675 1.2,-0.675 0.5125,0 0.7875,0.55 0.7875,1.1125 v 4.0625 z"
         style="font-size:12.5px;line-height:1.25"
         id="path333" />
      <path
         d="m 95.085697,29.920735 v -3.5 c 0,-1.175 -0.725,-2.25 -1.8125,-2.25 -0.8,0 -1.55,0.275 -2.225,0.7 v 0.3875 c 0.5625,-0.3125 1.1875,-0.5125 1.8375,-0.5125 0.775,0 1.225,0.825 1.225,1.675 v 0.225 c -0.4875,-0.2125 -1.0125,-0.3375 -1.5375,-0.3375 -1.3375,0 -2.325,0.6125 -2.325,1.875 0,1.2 0.875,1.8625 2.1375,1.8625 0.6375,0 1.225,-0.2875 1.725,-0.6875 v 0.5625 z m -0.975,-1.0875 c -0.375,0.375 -0.8375,0.6875 -1.375,0.6875 -0.8375,0 -1.3875,-0.5125 -1.3875,-1.3375 0,-0.7625 0.625,-1.35 1.3875,-1.35 0.475,0 0.95,0.125 1.375,0.3375 z"
         style="font-size:12.5px;line-height:1.25"
         id="path335" />
      <path
         d="m 101.61069,29.920735 v -4.0625 c 0,-0.9125 -0.7,-1.6875 -1.6,-1.6875 -0.749999,0 -1.412499,0.425 -1.949999,0.95 v -0.825 h -0.975 v 5.625 h 0.975 v -4.4125 c 0.425,-0.425 0.95,-0.7625 1.5375,-0.7625 0.587499,0 1.037499,0.5125 1.037499,1.1125 v 4.0625 z"
         style="font-size:12.5px;line-height:1.25"
         id="path337" />
      <path
         d="m 108.07317,29.920735 v -8.75 h -0.975 v 3.3375 c -0.4875,-0.2125 -1.0125,-0.3375 -1.5375,-0.3375 -1.5625,0 -2.325,1.25 -2.325,2.9375 0,1.6625 0.625,2.9375 2.1375,2.9375 0.6375,0 1.225,-0.2875 1.725,-0.6875 v 0.5625 z m -0.975,-1.0875 c -0.375,0.375 -0.8375,0.6875 -1.375,0.6875 -1.1375,0 -1.3875,-1.1 -1.3875,-2.4125 0,-1.175 0.3625,-2.4125 1.3875,-2.4125 0.475,0 0.95,0.125 1.375,0.3375 z"
         style="font-size:12.5px;line-height:1.25"
         id="path339" />
      <path
         d="m 114.59816,27.233235 v -0.125 c 0,-1.7625 -0.9625,-2.9375 -2.4125,-2.9375 -1.4625,0 -2.425,1.175 -2.425,2.9375 0,1.7625 0.9625,2.9375 2.425,2.9375 0.625,0 1.2375,-0.2 1.75,-0.5625 v -0.525 c -0.5875,0.375 -1.0625,0.5125 -1.75,0.5125 -1.0625,0 -1.325,-1.0125 -1.325,-2.2375 z m -1.1,-0.525 h -2.6375 c 0,-1 0.425,-2.0125 1.325,-2.0125 0.8875,0 1.3125,1.0125 1.3125,2.0125 z"
         style="font-size:12.5px;line-height:1.25"
         id="path341" />
      <path
         d="m 117.17314,29.308235 c 0,-0.3375 -0.275,-0.6125 -0.6125,-0.6125 -0.3375,0 -0.6125,0.275 -0.6125,0.6125 0,0.3375 0.275,0.6125 0.6125,0.6125 0.3375,0 0.6125,-0.275 0.6125,-0.6125 z"
         style="font-size:12.5px;line-height:1.25"
         id="path343" />
    </g>
    <path
       style="fill:none;fill-rule:evenodd;stroke:#000000;stroke-width:1px;stroke-linecap:butt;stroke-linejoin:miter;stroke-opacity:1;marker-end:url(#Arrow2Mend)"
       d="M 127.55905,-10.629952 H 152.3622"
       id="path4198" />
    <path
       id="path4480"
       d="M 127.55905,11.043276 H 152.3622"
       style="fill:none;fill-rule:evenodd;stroke:#000000;stroke-width:1px;stroke-linecap:butt;stroke-linejoin:miter;stroke-opacity:1;marker-end:url(#marker4482)" />
    <path
       style="fill:none;fill-rule:evenodd;stroke:#000000;stroke-width:1px;stroke-linecap:butt;stroke-linejoin:miter;stroke-opacity:1;marker-end:url(#marker4854)"
       d="M 127.55905,31.889733 H 152.3622"
       id="path4852" />
    <path
       id="path5158"
       d="M 127.55905,53.149575 H 152.3622"
       style="fill:none;fill-rule:evenodd;stroke:#000000;stroke-width:1px;stroke-linecap:butt;stroke-linejoin:miter;stroke-opacity:1;marker-end:url(#marker5160)" />
    <path
       id="path5770"
       d="m 343.70078,-10.629952 h 21.25985"
       style="fill:none;fill-rule:evenodd;stroke:#000000;stroke-width:1px;stroke-linecap:butt;stroke-linejoin:miter;stroke-opacity:1;marker-end:url(#marker5778)" />
    <path
       style="fill:none;fill-rule:evenodd;stroke:#000000;stroke-width:1px;stroke-linecap:butt;stroke-linejoin:miter;stroke-opacity:1;marker-end:url(#marker4482)"
       d="m 343.70078,11.043276 h 21.25985"
       id="path5772" />
    <path
       id="path5774"
       d="m 343.70078,31.889733 h 21.25985"
       style="fill:none;fill-rule:evenodd;stroke:#000000;stroke-width:1px;stroke-linecap:butt;stroke-linejoin:miter;stroke-opacity:1;marker-end:url(#marker4854)" />
    <path
       style="fill:none;fill-rule:evenodd;stroke:#000000;stroke-width:1px;stroke-linecap:butt;stroke-linejoin:miter;stroke-opacity:1;marker-end:url(#marker5160)"
       d="m 343.70078,53.149575 h 21.25985"
       id="path5776" />
  </g>
</svg>
