<?xml version="1.0" encoding="UTF-8" standalone="no"?>
<!-- Created with Inkscape (http://www.inkscape.org/) -->

<svg
   width="144.02454mm"
   height="50.24485mm"
   viewBox="0 0 510.32314 178.03294"
   id="svg6078"
   version="1.1"
   xmlns="http://www.w3.org/2000/svg"
   xmlns:svg="http://www.w3.org/2000/svg"
   xmlns:rdf="http://www.w3.org/1999/02/22-rdf-syntax-ns#"
   xmlns:cc="http://creativecommons.org/ns#"
   xmlns:dc="http://purl.org/dc/elements/1.1/">
  <defs
     id="defs6080">
    <marker
       style="overflow:visible"
       id="marker11394"
       refX="0"
       refY="0"
       orient="auto">
      <path
         transform="matrix(0.4,0,0,0.4,2.96,0.4)"
         style="fill:#000000;fill-opacity:1;fill-rule:evenodd;stroke:#000000;stroke-width:1.00000003pt;stroke-opacity:1;marker-start:none;marker-end:none"
         d="m -2.5,-1 c 0,2.76 -2.24,5 -5,5 -2.76,0 -5,-2.24 -5,-5 0,-2.76 2.24,-5 5,-5 2.76,0 5,2.24 5,5 z"
         id="path11396" />
    </marker>
    <marker
       style="overflow:visible"
       id="marker11162"
       refX="0"
       refY="0"
       orient="auto">
      <path
         transform="matrix(0.4,0,0,0.4,2.96,0.4)"
         style="fill:#000000;fill-opacity:1;fill-rule:evenodd;stroke:#000000;stroke-width:1.00000003pt;stroke-opacity:1;marker-start:none;marker-end:none"
         d="m -2.5,-1 c 0,2.76 -2.24,5 -5,5 -2.76,0 -5,-2.24 -5,-5 0,-2.76 2.24,-5 5,-5 2.76,0 5,2.24 5,5 z"
         id="path11164" />
    </marker>
    <marker
       orient="auto"
       refY="0"
       refX="0"
       id="marker9880"
       style="overflow:visible">
      <path
         id="path9882"
         d="M 0,0 5,-5 -12.5,0 5,5 Z"
         style="fill:#000000;fill-opacity:1;fill-rule:evenodd;stroke:#000000;stroke-width:1.00000003pt;stroke-opacity:1;marker-start:none"
         transform="matrix(-0.4,0,0,-0.4,-4,0)" />
    </marker>
    <marker
       orient="auto"
       refY="0"
       refX="0"
       id="marker9480"
       style="overflow:visible">
      <path
         id="path9482"
         d="M 0,0 5,-5 -12.5,0 5,5 Z"
         style="fill:#000000;fill-opacity:1;fill-rule:evenodd;stroke:#000000;stroke-width:1.00000003pt;stroke-opacity:1;marker-start:none"
         transform="matrix(-0.4,0,0,-0.4,-4,0)" />
    </marker>
    <marker
       orient="auto"
       refY="0"
       refX="0"
       id="marker8260"
       style="overflow:visible">
      <path
         id="path8262"
         d="m -2.5,-1 c 0,2.76 -2.24,5 -5,5 -2.76,0 -5,-2.24 -5,-5 0,-2.76 2.24,-5 5,-5 2.76,0 5,2.24 5,5 z"
         style="fill:#000000;fill-opacity:1;fill-rule:evenodd;stroke:#000000;stroke-width:1.00000003pt;stroke-opacity:1;marker-start:none;marker-end:none"
         transform="matrix(0.4,0,0,0.4,2.96,0.4)" />
    </marker>
    <marker
       style="overflow:visible"
       id="marker7270"
       refX="0"
       refY="0"
       orient="auto">
      <path
         transform="matrix(-0.4,0,0,-0.4,-4,0)"
         style="fill:#000000;fill-opacity:1;fill-rule:evenodd;stroke:#000000;stroke-width:1.00000003pt;stroke-opacity:1;marker-start:none"
         d="M 0,0 5,-5 -12.5,0 5,5 Z"
         id="path7272" />
    </marker>
    <marker
       style="overflow:visible"
       id="marker6828"
       refX="0"
       refY="0"
       orient="auto">
      <path
         transform="matrix(-0.4,0,0,-0.4,-4,0)"
         style="fill:#000000;fill-opacity:1;fill-rule:evenodd;stroke:#000000;stroke-width:1.00000003pt;stroke-opacity:1;marker-start:none"
         d="M 0,0 5,-5 -12.5,0 5,5 Z"
         id="path6830" />
    </marker>
    <marker
       style="overflow:visible"
       id="marker6044"
       refX="0"
       refY="0"
       orient="auto">
      <path
         transform="matrix(-0.4,0,0,-0.4,-4,0)"
         style="fill:#000000;fill-opacity:1;fill-rule:evenodd;stroke:#000000;stroke-width:1.00000003pt;stroke-opacity:1;marker-start:none"
         d="M 0,0 5,-5 -12.5,0 5,5 Z"
         id="path6046" />
    </marker>
    <marker
       style="overflow:visible"
       id="marker5320"
       refX="0"
       refY="0"
       orient="auto">
      <path
         transform="matrix(-0.4,0,0,-0.4,-4,0)"
         style="fill:#000000;fill-opacity:1;fill-rule:evenodd;stroke:#000000;stroke-width:1.00000003pt;stroke-opacity:1;marker-start:none"
         d="M 0,0 5,-5 -12.5,0 5,5 Z"
         id="path5322" />
    </marker>
    <marker
       style="overflow:visible"
       id="marker5090"
       refX="0"
       refY="0"
       orient="auto">
      <path
         transform="matrix(-0.4,0,0,-0.4,-4,0)"
         style="fill:#000000;fill-opacity:1;fill-rule:evenodd;stroke:#000000;stroke-width:1.00000003pt;stroke-opacity:1;marker-start:none"
         d="M 0,0 5,-5 -12.5,0 5,5 Z"
         id="path5092" />
    </marker>
    <marker
       style="overflow:visible"
       id="marker4954"
       refX="0"
       refY="0"
       orient="auto">
      <path
         transform="matrix(-0.4,0,0,-0.4,-4,0)"
         style="fill:#000000;fill-opacity:1;fill-rule:evenodd;stroke:#000000;stroke-width:1.00000003pt;stroke-opacity:1;marker-start:none"
         d="M 0,0 5,-5 -12.5,0 5,5 Z"
         id="path4956" />
    </marker>
    <marker
       style="overflow:visible"
       id="marker4824"
       refX="0"
       refY="0"
       orient="auto">
      <path
         transform="matrix(-0.4,0,0,-0.4,-4,0)"
         style="fill:#000000;fill-opacity:1;fill-rule:evenodd;stroke:#000000;stroke-width:1.00000003pt;stroke-opacity:1;marker-start:none"
         d="M 0,0 5,-5 -12.5,0 5,5 Z"
         id="path4826" />
    </marker>
    <marker
       orient="auto"
       refY="0"
       refX="0"
       id="marker4629"
       style="overflow:visible">
      <path
         id="path4631"
         d="M 0,0 5,-5 -12.5,0 5,5 Z"
         style="fill:#000000;fill-opacity:1;fill-rule:evenodd;stroke:#000000;stroke-width:1.00000003pt;stroke-opacity:1;marker-start:none"
         transform="matrix(-0.4,0,0,-0.4,-4,0)" />
    </marker>
    <marker
       orient="auto"
       refY="0"
       refX="0"
       id="marker4399"
       style="overflow:visible">
      <path
         id="path4401"
         d="M 0,0 5,-5 -12.5,0 5,5 Z"
         style="fill:#000000;fill-opacity:1;fill-rule:evenodd;stroke:#000000;stroke-width:1.00000003pt;stroke-opacity:1;marker-start:none"
         transform="matrix(-0.4,0,0,-0.4,-4,0)" />
    </marker>
    <marker
       style="overflow:visible"
       id="DotM"
       refX="0"
       refY="0"
       orient="auto">
      <path
         transform="matrix(0.4,0,0,0.4,2.96,0.4)"
         style="fill:#000000;fill-opacity:1;fill-rule:evenodd;stroke:#000000;stroke-width:1.00000003pt;stroke-opacity:1;marker-start:none;marker-end:none"
         d="m -2.5,-1 c 0,2.76 -2.24,5 -5,5 -2.76,0 -5,-2.24 -5,-5 0,-2.76 2.24,-5 5,-5 2.76,0 5,2.24 5,5 z"
         id="path4148" />
    </marker>
    <marker
       style="overflow:visible"
       id="Arrow1Mend-3"
       refX="0"
       refY="0"
       orient="auto">
      <path
         transform="matrix(-0.4,0,0,-0.4,-4,0)"
         style="fill:#000000;fill-opacity:1;fill-rule:evenodd;stroke:#000000;stroke-width:1.00000003pt;stroke-opacity:1;marker-start:none"
         d="M 0,0 5,-5 -12.5,0 5,5 Z"
         id="path17924-5" />
    </marker>
  </defs>
  <metadata
     id="metadata6083">
    <rdf:RDF>
      <cc:Work
         rdf:about="">
        <dc:format>image/svg+xml</dc:format>
        <dc:type
           rdf:resource="http://purl.org/dc/dcmitype/StillImage" />
        <dc:title />
      </cc:Work>
    </rdf:RDF>
  </metadata>
  <g
     id="layer1"
     transform="translate(-221.56876,227.50177)">
    <path
       id="path55582"
       d="m 283.46456,-60.236258 v -35.433071 l 17.71668,1.29e-4"
       style="fill:none;stroke:#000000;stroke-width:1px;stroke-linecap:butt;stroke-linejoin:miter;stroke-opacity:1;marker-start:url(#marker8260);marker-end:url(#marker4399)" />
    <g
       id="g5290"
       transform="translate(17.716498,-102.75594)">
      <path
         id="rect55560"
         style="fill:#ffeeaa;stroke:#000000;stroke-linecap:round;stroke-linejoin:bevel;stroke-opacity:0.784314"
         d="m 283.46462,-63.77953 h 67.32279 c 2e-5,0 3e-5,1e-6 3e-5,2e-6 v 88.582677 c 0,10e-7 -1e-5,10e-7 -3e-5,10e-7 h -67.32279 c -1e-5,0 -2e-5,0 -2e-5,-10e-7 v -88.582677 c 0,-10e-7 10e-6,-2e-6 2e-5,-2e-6 z" />
      <g
         aria-label="D"
         id="text55562"
         style="line-height:0%;font-family:Iwona;-inkscape-font-specification:Sans;letter-spacing:0px;word-spacing:0px">
        <path
           d="m 299.38871,-44.576307 c 0,-3.424 -1.872,-5.76 -5.168,-5.76 -0.992,0 -1.984,0.048 -2.96,0.16 h -1.28 v 11.2 h 1.28 c 0.976,0.112 1.968,0.16 2.96,0.16 3.296,0 5.168,-2.336 5.168,-5.76 z m -1.568,0 c 0,2.544 -1.296,5.024 -3.6,5.024 -0.976,0 -1.952,-0.048 -2.928,-0.16 v -9.728 c 0.976,-0.112 1.952,-0.16 2.928,-0.16 2.304,0 3.6,2.48 3.6,5.024 z"
           style="font-size:16px;line-height:1.25"
           id="path161" />
      </g>
      <g
         aria-label="CLK"
         id="text55566"
         style="line-height:0%;font-family:Iwona;-inkscape-font-specification:Sans;letter-spacing:0px;word-spacing:0px">
        <path
           d="m 302.48198,3.31488 v -0.7425 c -0.7425,-1.0725 -1.96625,-1.70500005 -3.25875,-1.70500005 -2.79125,0 -4.30375,2.03500005 -4.30375,4.95000005 0,2.915 1.5125,4.95 4.30375,4.95 1.0725,0 2.13125,-0.31625 3.03875,-0.9075 v -0.6325 c -0.9075,0.59125 -1.96625,0.9075 -3.03875,0.9075 -2.15875,0 -2.95625,-1.91125 -2.95625,-4.3175 0,-2.40625 0.7975,-4.3175 2.95625,-4.3175 1.32,0 2.5575,0.6875 3.25875,1.815 z"
           style="font-size:13.75px;line-height:1.25"
           id="path164" />
        <path
           d="m 309.76947,10.62988 v -0.6325 h -4.3725 v -8.9925 h -1.1275 v 9.625 z"
           style="font-size:13.75px;line-height:1.25"
           id="path166" />
        <path
           d="m 319.50445,10.62988 -6.09125,-5.445 5.76125,-4.18 h -1.08625 l -5.54125,4.02875 V 1.00488 h -1.1275 v 9.625 h 1.1275 v -4.7025 l 5.26625,4.7025 z"
           style="font-size:13.75px;line-height:1.25"
           id="path168" />
      </g>
      <g
         aria-label="Q"
         id="text55570"
         style="line-height:0%;font-family:Iwona;-inkscape-font-specification:Sans;text-align:center;letter-spacing:0px;word-spacing:0px;text-anchor:middle">
        <path
           d="m 345.15748,-44.576307 c 0,-3.392 -1.76,-5.76 -4.992,-5.76 -3.248,0 -5.008,2.368 -5.008,5.76 0,3.392 1.76,5.76 5.008,5.76 0.112,1.296 1.184,2.288 2.496,2.288 0.816,0 1.04,-0.048 1.792,-0.384 v -0.48 c -0.368,0.208 -0.768,0.32 -1.2,0.32 -1.456,0 -2.032,-0.512 -2.048,-1.84 2.56,-0.448 3.952,-2.656 3.952,-5.664 z m -1.568,0 c 0,2.8 -0.928,5.024 -3.424,5.024 -2.512,0 -3.44,-2.224 -3.44,-5.024 0,-2.8 0.928,-5.024 3.44,-5.024 2.496,0 3.424,2.224 3.424,5.024 z"
           style="font-size:16px;line-height:1.25"
           id="path171" />
      </g>
      <path
         id="path3405"
         d="m 283.46456,-4.1e-5 7.08661,7.086614 -7.08661,7.086614"
         style="fill:none;fill-rule:evenodd;stroke:#000000;stroke-width:1px;stroke-linecap:butt;stroke-linejoin:miter;stroke-opacity:1" />
    </g>
    <path
       style="fill:none;stroke:#000000;stroke-width:1px;stroke-linecap:butt;stroke-linejoin:miter;stroke-opacity:1;marker-start:url(#DotM);marker-end:url(#marker7270)"
       d="m 442.91328,-60.236258 v -35.433071 l 17.71664,1.29e-4"
       id="path3440" />
    <g
       id="g5300"
       transform="translate(53.1496,-102.75594)">
      <path
         id="rect3426"
         style="fill:#ffeeaa;stroke:#000000;stroke-linecap:round;stroke-linejoin:bevel;stroke-opacity:0.784314"
         d="m 407.48034,-63.77953 h 67.32279 c 10e-6,0 2e-5,1e-6 2e-5,2e-6 v 88.582677 c 0,10e-7 -1e-5,10e-7 -2e-5,10e-7 h -67.32279 c -1e-5,0 -2e-5,0 -2e-5,-10e-7 v -88.582677 c 0,-10e-7 10e-6,-2e-6 2e-5,-2e-6 z" />
      <g
         aria-label="D"
         id="text3428"
         style="line-height:0%;font-family:Iwona;-inkscape-font-specification:Sans;letter-spacing:0px;word-spacing:0px">
        <path
           d="m 423.40442,-44.576307 c 0,-3.424 -1.872,-5.76 -5.168,-5.76 -0.992,0 -1.984,0.048 -2.96,0.16 h -1.28 v 11.2 h 1.28 c 0.976,0.112 1.968,0.16 2.96,0.16 3.296,0 5.168,-2.336 5.168,-5.76 z m -1.568,0 c 0,2.544 -1.296,5.024 -3.6,5.024 -0.976,0 -1.952,-0.048 -2.928,-0.16 v -9.728 c 0.976,-0.112 1.952,-0.16 2.928,-0.16 2.304,0 3.6,2.48 3.6,5.024 z"
           style="font-size:16px;line-height:1.25"
           id="path175" />
      </g>
      <g
         aria-label="CLK"
         id="text3432"
         style="line-height:0%;font-family:Iwona;-inkscape-font-specification:Sans;letter-spacing:0px;word-spacing:0px">
        <path
           d="m 426.4977,3.31488 v -0.7425 c -0.7425,-1.0725 -1.96625,-1.70500005 -3.25875,-1.70500005 -2.79125,0 -4.30375,2.03500005 -4.30375,4.95000005 0,2.915 1.5125,4.95 4.30375,4.95 1.0725,0 2.13125,-0.31625 3.03875,-0.9075 v -0.6325 c -0.9075,0.59125 -1.96625,0.9075 -3.03875,0.9075 -2.15875,0 -2.95625,-1.91125 -2.95625,-4.3175 0,-2.40625 0.7975,-4.3175 2.95625,-4.3175 1.32,0 2.5575,0.6875 3.25875,1.815 z"
           style="font-size:13.75px;line-height:1.25"
           id="path178" />
        <path
           d="m 433.78519,10.62988 v -0.6325 h -4.3725 v -8.9925 h -1.1275 v 9.625 z"
           style="font-size:13.75px;line-height:1.25"
           id="path180" />
        <path
           d="m 443.52017,10.62988 -6.09125,-5.445 5.76125,-4.18 h -1.08625 l -5.54125,4.02875 V 1.00488 h -1.1275 v 9.625 h 1.1275 v -4.7025 l 5.26625,4.7025 z"
           style="font-size:13.75px;line-height:1.25"
           id="path182" />
      </g>
      <g
         aria-label="Q"
         id="text3436"
         style="line-height:0%;font-family:Iwona;-inkscape-font-specification:Sans;text-align:center;letter-spacing:0px;word-spacing:0px;text-anchor:middle">
        <path
           d="m 469.1732,-44.576307 c 0,-3.392 -1.76,-5.76 -4.992,-5.76 -3.248,0 -5.008,2.368 -5.008,5.76 0,3.392 1.76,5.76 5.008,5.76 0.112,1.296 1.184,2.288 2.496,2.288 0.816,0 1.04,-0.048 1.792,-0.384 v -0.48 c -0.368,0.208 -0.768,0.32 -1.2,0.32 -1.456,0 -2.032,-0.512 -2.048,-1.84 2.56,-0.448 3.952,-2.656 3.952,-5.664 z m -1.568,0 c 0,2.8 -0.928,5.024 -3.424,5.024 -2.512,0 -3.44,-2.224 -3.44,-5.024 0,-2.8 0.928,-5.024 3.44,-5.024 2.496,0 3.424,2.224 3.424,5.024 z"
           style="font-size:16px;line-height:1.25"
           id="path185" />
      </g>
      <path
         style="fill:none;fill-rule:evenodd;stroke:#000000;stroke-width:1px;stroke-linecap:butt;stroke-linejoin:miter;stroke-opacity:1"
         d="m 407.48027,-4.1e-5 7.08661,7.086614 -7.08661,7.086614"
         id="path3444" />
    </g>
    <path
       id="path3460"
       d="M 265.74803,-60.236258 H 602.3622 v -35.433071 l 17.71663,1.29e-4"
       style="fill:none;stroke:#000000;stroke-width:1px;stroke-linecap:butt;stroke-linejoin:miter;stroke-opacity:1;marker-end:url(#marker6828)" />
    <path
       id="path3462"
       d="m 687.40174,-145.27563 h 35.4329"
       style="fill:none;stroke:#000000;stroke-width:1px;stroke-linecap:butt;stroke-linejoin:miter;stroke-opacity:1;marker-end:url(#Arrow1Mend-3)" />
    <g
       id="g5310"
       transform="translate(88.582707,-102.75594)">
      <path
         id="rect3446"
         style="fill:#ffeeaa;stroke:#000000;stroke-linecap:round;stroke-linejoin:bevel;stroke-opacity:0.784314"
         d="m 531.49606,-63.77953 h 67.32279 c 10e-6,0 2e-5,1e-6 2e-5,2e-6 v 88.582677 c 0,10e-7 -10e-6,10e-7 -2e-5,10e-7 h -67.32279 c -2e-5,0 -3e-5,0 -3e-5,-10e-7 v -88.582677 c 0,-10e-7 10e-6,-2e-6 3e-5,-2e-6 z" />
      <g
         aria-label="D"
         id="text3448"
         style="line-height:0%;font-family:Iwona;-inkscape-font-specification:Sans;letter-spacing:0px;word-spacing:0px">
        <path
           d="m 547.42017,-44.576307 c 0,-3.424 -1.872,-5.76 -5.168,-5.76 -0.992,0 -1.984,0.048 -2.96,0.16 h -1.28 v 11.2 h 1.28 c 0.976,0.112 1.968,0.16 2.96,0.16 3.296,0 5.168,-2.336 5.168,-5.76 z m -1.568,0 c 0,2.544 -1.296,5.024 -3.6,5.024 -0.976,0 -1.952,-0.048 -2.928,-0.16 v -9.728 c 0.976,-0.112 1.952,-0.16 2.928,-0.16 2.304,0 3.6,2.48 3.6,5.024 z"
           style="font-size:16px;line-height:1.25"
           id="path189" />
      </g>
      <g
         aria-label="CLK"
         id="text3452"
         style="line-height:0%;font-family:Iwona;-inkscape-font-specification:Sans;letter-spacing:0px;word-spacing:0px">
        <path
           d="m 550.51342,3.31488 v -0.7425 c -0.7425,-1.0725 -1.96625,-1.70500005 -3.25875,-1.70500005 -2.79125,0 -4.30375,2.03500005 -4.30375,4.95000005 0,2.915 1.5125,4.95 4.30375,4.95 1.0725,0 2.13125,-0.31625 3.03875,-0.9075 v -0.6325 c -0.9075,0.59125 -1.96625,0.9075 -3.03875,0.9075 -2.15875,0 -2.95625,-1.91125 -2.95625,-4.3175 0,-2.40625 0.7975,-4.3175 2.95625,-4.3175 1.32,0 2.5575,0.6875 3.25875,1.815 z"
           style="font-size:13.75px;line-height:1.25"
           id="path192" />
        <path
           d="m 557.80091,10.62988 v -0.6325 h -4.3725 v -8.9925 h -1.1275 v 9.625 z"
           style="font-size:13.75px;line-height:1.25"
           id="path194" />
        <path
           d="m 567.53589,10.62988 -6.09125,-5.445 5.76125,-4.18 h -1.08625 l -5.54125,4.02875 V 1.00488 h -1.1275 v 9.625 h 1.1275 v -4.7025 l 5.26625,4.7025 z"
           style="font-size:13.75px;line-height:1.25"
           id="path196" />
      </g>
      <g
         aria-label="Q"
         id="text3456"
         style="line-height:0%;font-family:Iwona;-inkscape-font-specification:Sans;text-align:center;letter-spacing:0px;word-spacing:0px;text-anchor:middle">
        <path
           d="m 593.18891,-44.576307 c 0,-3.392 -1.76,-5.76 -4.992,-5.76 -3.248,0 -5.008,2.368 -5.008,5.76 0,3.392 1.76,5.76 5.008,5.76 0.112,1.296 1.184,2.288 2.496,2.288 0.816,0 1.04,-0.048 1.792,-0.384 v -0.48 c -0.368,0.208 -0.768,0.32 -1.2,0.32 -1.456,0 -2.032,-0.512 -2.048,-1.84 2.56,-0.448 3.952,-2.656 3.952,-5.664 z m -1.568,0 c 0,2.8 -0.928,5.024 -3.424,5.024 -2.512,0 -3.44,-2.224 -3.44,-5.024 0,-2.8 0.928,-5.024 3.44,-5.024 2.496,0 3.424,2.224 3.424,5.024 z"
           style="font-size:16px;line-height:1.25"
           id="path199" />
      </g>
      <path
         id="path3464"
         d="m 531.49601,-4.1e-5 7.08661,7.086614 -7.08661,7.086614"
         style="fill:none;fill-rule:evenodd;stroke:#000000;stroke-width:1px;stroke-linecap:butt;stroke-linejoin:miter;stroke-opacity:1" />
    </g>
    <g
       aria-label="D0"
       id="text3466"
       style="line-height:0%;font-family:Iwona;-inkscape-font-specification:Sans;text-align:end;letter-spacing:0px;word-spacing:0px;text-anchor:end">
      <path
         d="m 238.06821,-161.50555 c 0,-3.424 -1.872,-5.76 -5.168,-5.76 -0.992,0 -1.984,0.048 -2.96,0.16 h -1.28 v 11.2 h 1.28 c 0.976,0.112 1.968,0.16 2.96,0.16 3.296,0 5.168,-2.336 5.168,-5.76 z m -1.568,0 c 0,2.544 -1.296,5.024 -3.6,5.024 -0.976,0 -1.952,-0.048 -2.928,-0.16 v -9.728 c 0.976,-0.112 1.952,-0.16 2.928,-0.16 2.304,0 3.6,2.48 3.6,5.024 z"
         style="font-size:16px;line-height:1.25"
         id="path202" />
      <path
         d="m 244.04099,-156.29355 c 0,-2.4648 -0.7592,-3.692 -2.2776,-3.692 -1.5184,0 -2.2776,1.2272 -2.2776,3.692 0,2.4648 0.7592,3.692 2.2776,3.692 1.5184,0 2.2776,-1.2272 2.2776,-3.692 z m -0.9152,0 c 0,2.1736 -0.4576,3.2552 -1.3624,3.2552 -0.9048,0 -1.3624,-1.0816 -1.3624,-3.2552 0,-2.1736 0.4576,-3.2552 1.3624,-3.2552 0.9048,0 1.3624,1.0816 1.3624,3.2552 z"
         style="font-size:65%;baseline-shift:sub"
         id="path204" />
    </g>
    <g
       aria-label="D1"
       id="text3470"
       style="line-height:0%;font-family:Iwona;-inkscape-font-specification:Sans;text-align:end;letter-spacing:0px;word-spacing:0px;text-anchor:end">
      <path
         d="m 397.51703,-161.50555 c 0,-3.424 -1.872,-5.76 -5.168,-5.76 -0.992,0 -1.984,0.048 -2.96,0.16 h -1.28 v 11.2 h 1.28 c 0.976,0.112 1.968,0.16 2.96,0.16 3.296,0 5.168,-2.336 5.168,-5.76 z m -1.568,0 c 0,2.544 -1.296,5.024 -3.6,5.024 -0.976,0 -1.952,-0.048 -2.928,-0.16 v -9.728 c 0.976,-0.112 1.952,-0.16 2.928,-0.16 2.304,0 3.6,2.48 3.6,5.024 z"
         style="font-size:16px;line-height:1.25"
         id="path207" />
      <path
         d="m 401.90902,-152.70555 v -7.176 h -0.6032 c -0.572,0.6552 -1.248,1.2168 -1.9968,1.6536 v 0.4368 c 0.6344,-0.3016 1.2272,-0.6552 1.7888,-1.0816 v 6.1672 z"
         style="font-size:65%;baseline-shift:sub"
         id="path209" />
    </g>
    <g
       aria-label="D2"
       id="text3474"
       style="line-height:0%;font-family:Iwona;-inkscape-font-specification:Sans;text-align:end;letter-spacing:0px;word-spacing:0px;text-anchor:end">
      <path
         d="m 556.96582,-161.50555 c 0,-3.424 -1.872,-5.76 -5.168,-5.76 -0.992,0 -1.984,0.048 -2.96,0.16 h -1.28 v 11.2 h 1.28 c 0.976,0.112 1.968,0.16 2.96,0.16 3.296,0 5.168,-2.336 5.168,-5.76 z m -1.568,0 c 0,2.544 -1.296,5.024 -3.6,5.024 -0.976,0 -1.952,-0.048 -2.928,-0.16 v -9.728 c 0.976,-0.112 1.952,-0.16 2.928,-0.16 2.304,0 3.6,2.48 3.6,5.024 z"
         style="font-size:16px;line-height:1.25"
         id="path212" />
      <path
         d="m 562.86581,-152.70555 v -0.6448 h -3.6712 l 1.9136,-1.8928 c 0.8528,-0.8528 1.6536,-1.8512 1.6536,-3.0576 0,-1.0192 -1.0088,-1.6848 -2.1008,-1.6848 -0.8216,0 -1.6016,0.3744 -2.1112,1.0088 v 0.4368 c 0.5304,-0.6136 1.3,-0.9672 2.1112,-0.9672 0.6968,0 1.2896,0.52 1.2896,1.2064 0,1.0296 -0.4784,1.9864 -1.1856,2.7248 l -2.3192,2.3816 v 0.4888 z"
         style="font-size:65%;baseline-shift:sub"
         id="path214" />
    </g>
    <g
       aria-label="Q2"
       id="text3486"
       style="line-height:0%;font-family:Iwona;-inkscape-font-specification:Sans;letter-spacing:0px;word-spacing:0px">
      <path
         d="m 705.44816,-157.96237 c 0,-3.392 -1.76,-5.76 -4.992,-5.76 -3.248,0 -5.008,2.368 -5.008,5.76 0,3.392 1.76,5.76 5.008,5.76 0.112,1.296 1.184,2.288 2.496,2.288 0.816,0 1.04,-0.048 1.792,-0.384 v -0.48 c -0.368,0.208 -0.768,0.32 -1.2,0.32 -1.456,0 -2.032,-0.512 -2.048,-1.84 2.56,-0.448 3.952,-2.656 3.952,-5.664 z m -1.568,0 c 0,2.8 -0.928,5.024 -3.424,5.024 -2.512,0 -3.44,-2.224 -3.44,-5.024 0,-2.8 0.928,-5.024 3.44,-5.024 2.496,0 3.424,2.224 3.424,5.024 z"
         style="font-size:16px;line-height:1.25"
         id="path217" />
      <path
         d="m 711.34814,-149.16237 v -0.6448 h -3.6712 l 1.9136,-1.8928 c 0.8528,-0.8528 1.6536,-1.8512 1.6536,-3.0576 0,-1.0192 -1.0088,-1.6848 -2.1008,-1.6848 -0.8216,0 -1.6016,0.3744 -2.1112,1.0088 v 0.4368 c 0.5304,-0.6136 1.3,-0.9672 2.1112,-0.9672 0.6968,0 1.2896,0.52 1.2896,1.2064 0,1.0296 -0.4784,1.9864 -1.1856,2.7248 l -2.3192,2.3816 v 0.4888 z"
         style="font-size:65%;baseline-shift:sub"
         id="path219" />
    </g>
    <g
       aria-label="CLK"
       id="text3502"
       style="line-height:0%;font-family:Iwona;-inkscape-font-specification:Sans;text-align:end;letter-spacing:0px;word-spacing:0px;text-anchor:end">
      <path
         d="m 245.04474,-64.007951 v -0.7425 c -0.7425,-1.0725 -1.96625,-1.705 -3.25875,-1.705 -2.79125,0 -4.30375,2.035 -4.30375,4.95 0,2.915 1.5125,4.95 4.30375,4.95 1.0725,0 2.13125,-0.31625 3.03875,-0.9075 v -0.6325 c -0.9075,0.59125 -1.96625,0.9075 -3.03875,0.9075 -2.15875,0 -2.95625,-1.91125 -2.95625,-4.3175 0,-2.40625 0.7975,-4.3175 2.95625,-4.3175 1.32,0 2.5575,0.6875 3.25875,1.815 z"
         style="font-size:13.75px;line-height:1.25"
         id="path222" />
      <path
         d="m 252.33223,-56.692951 v -0.6325 h -4.3725 v -8.9925 h -1.1275 v 9.625 z"
         style="font-size:13.75px;line-height:1.25"
         id="path224" />
      <path
         d="m 262.06721,-56.692951 -6.09125,-5.445 5.76125,-4.18 h -1.08625 l -5.54125,4.02875 v -4.02875 h -1.1275 v 9.625 h 1.1275 v -4.7025 l 5.26625,4.7025 z"
         style="font-size:13.75px;line-height:1.25"
         id="path226" />
    </g>
    <g
       transform="translate(274.51841,-135.40738)"
       id="layer1-5-0">
      <path
         id="path2504-0"
         d="M -8.7703827,-34.671396 V 14.934903 L 12.48946,7.8482892 V -27.584782 Z"
         style="fill:#ffeeaa;fill-rule:evenodd;stroke:#000000;stroke-width:1px;stroke-linecap:butt;stroke-linejoin:miter;stroke-opacity:1" />
      <path
         transform="translate(-44.203438,-91.419854)"
         id="path3488-8-5"
         d="M 17.716535,67.37838 H 35.433071"
         style="fill:none;stroke:#000000;stroke-width:1px;stroke-linecap:butt;stroke-linejoin:miter;stroke-opacity:1;marker-end:url(#marker4824)" />
      <path
         id="path3490-88-3"
         d="M 12.48946,-9.8682462 H 26.662688"
         style="fill:none;stroke:#000000;stroke-width:1px;stroke-linecap:butt;stroke-linejoin:miter;stroke-opacity:1;marker-end:url(#marker5090)" />
      <path
         style="fill:none;stroke:#000000;stroke-width:1px;stroke-linecap:butt;stroke-linejoin:miter;stroke-opacity:1;marker-end:url(#marker4629)"
         d="M -26.486903,4.3049821 H -8.770367"
         id="path19492" />
      <g
         aria-label="1"
         id="text19494"
         style="font-weight:bold;line-height:0%;font-family:Iwona;-inkscape-font-specification:'Iwona Bold'">
        <path
           d="m -1.9270756,-20.498167 v -6.9 h -0.58 c -0.55,0.63 -1.2,1.17 -1.92,1.59 v 0.42 c 0.61,-0.29 1.18,-0.63 1.72,-1.04 v 5.93 z"
           style="font-weight:normal;font-size:10px;line-height:1.25;-inkscape-font-specification:Iwona"
           id="path229" />
      </g>
      <g
         aria-label="0"
         id="text19498"
         style="font-weight:bold;line-height:0%;font-family:Iwona;-inkscape-font-specification:'Iwona Bold'">
        <path
           d="m -0.40707558,4.398289 c 0,-2.37 -0.73000002,-3.54999999 -2.19000002,-3.54999999 -1.46,0 -2.19,1.17999999 -2.19,3.54999999 0,2.37 0.73,3.55 2.19,3.55 1.46,0 2.19000002,-1.18 2.19000002,-3.55 z m -0.88000002,0 c 0,2.09 -0.44,3.13 -1.31,3.13 -0.87,0 -1.31,-1.04 -1.31,-3.13 0,-2.09 0.44,-3.13 1.31,-3.13 0.87,0 1.31,1.04 1.31,3.13 z"
           style="font-weight:normal;font-size:10px;line-height:1.25;-inkscape-font-specification:Iwona"
           id="path232" />
      </g>
      <path
         id="path19502"
         d="m 1.8595375,-70.104469 v 37.066378"
         style="fill:none;stroke:#000000;stroke-width:1px;stroke-linecap:butt;stroke-linejoin:miter;stroke-opacity:1;marker-end:url(#marker9480)" />
    </g>
    <g
       id="g5250"
       transform="translate(433.96723,-135.40738)">
      <path
         style="fill:#ffeeaa;fill-rule:evenodd;stroke:#000000;stroke-width:1px;stroke-linecap:butt;stroke-linejoin:miter;stroke-opacity:1"
         d="M -8.7703827,-34.671396 V 14.934903 L 12.48946,7.8482892 V -27.584782 Z"
         id="path5252" />
      <path
         style="fill:none;stroke:#000000;stroke-width:1px;stroke-linecap:butt;stroke-linejoin:miter;stroke-opacity:1;marker-end:url(#marker4824)"
         d="M 17.716535,67.37838 H 35.433071"
         id="path5254"
         transform="translate(-44.203438,-91.419854)" />
      <path
         style="fill:none;stroke:#000000;stroke-width:1px;stroke-linecap:butt;stroke-linejoin:miter;stroke-opacity:1;marker-end:url(#marker5090)"
         d="M 12.48946,-9.8682462 H 26.662688"
         id="path5256" />
      <path
         id="path5258"
         d="m -65.463298,-9.8682481 h 21.259842 V 4.3049802 l 35.433089,1.9e-6"
         style="fill:none;stroke:#000000;stroke-width:1px;stroke-linecap:butt;stroke-linejoin:miter;stroke-opacity:1;marker-end:url(#marker5320)" />
      <g
         aria-label="1"
         id="text5260"
         style="font-weight:bold;line-height:0%;font-family:Iwona;-inkscape-font-specification:'Iwona Bold'">
        <path
           d="m -1.9270756,-20.498167 v -6.9 h -0.58 c -0.55,0.63 -1.2,1.17 -1.92,1.59 v 0.42 c 0.61,-0.29 1.18,-0.63 1.72,-1.04 v 5.93 z"
           style="font-weight:normal;font-size:10px;line-height:1.25;-inkscape-font-specification:Iwona"
           id="path235" />
      </g>
      <g
         aria-label="0"
         id="text5264"
         style="font-weight:bold;line-height:0%;font-family:Iwona;-inkscape-font-specification:'Iwona Bold'">
        <path
           d="m -0.40707558,4.398289 c 0,-2.37 -0.73000002,-3.54999999 -2.19000002,-3.54999999 -1.46,0 -2.19,1.17999999 -2.19,3.54999999 0,2.37 0.73,3.55 2.19,3.55 1.46,0 2.19000002,-1.18 2.19000002,-3.55 z m -0.88000002,0 c 0,2.09 -0.44,3.13 -1.31,3.13 -0.87,0 -1.31,-1.04 -1.31,-3.13 0,-2.09 0.44,-3.13 1.31,-3.13 0.87,0 1.31,1.04 1.31,3.13 z"
           style="font-weight:normal;font-size:10px;line-height:1.25;-inkscape-font-specification:Iwona"
           id="path238" />
      </g>
      <path
         style="fill:none;stroke:#000000;stroke-width:1px;stroke-linecap:butt;stroke-linejoin:miter;stroke-opacity:1;marker-start:url(#marker11162);marker-end:url(#marker9880)"
         d="m 1.8595364,-52.387933 1.1e-6,19.349842"
         id="path5268" />
    </g>
    <g
       transform="translate(593.41605,-135.40738)"
       id="g5270">
      <path
         id="path5272"
         d="M -8.7703827,-34.671396 V 14.934903 L 12.48946,7.8482892 V -27.584782 Z"
         style="fill:#ffeeaa;fill-rule:evenodd;stroke:#000000;stroke-width:1px;stroke-linecap:butt;stroke-linejoin:miter;stroke-opacity:1" />
      <path
         transform="translate(-44.203438,-91.419854)"
         id="path5274"
         d="M 17.716535,67.37838 H 35.433071"
         style="fill:none;stroke:#000000;stroke-width:1px;stroke-linecap:butt;stroke-linejoin:miter;stroke-opacity:1;marker-end:url(#marker4824)" />
      <path
         id="path5276"
         d="M 12.48946,-9.8682462 H 26.662688"
         style="fill:none;stroke:#000000;stroke-width:1px;stroke-linecap:butt;stroke-linejoin:miter;stroke-opacity:1;marker-end:url(#marker5090)" />
      <path
         style="fill:none;stroke:#000000;stroke-width:1px;stroke-linecap:butt;stroke-linejoin:miter;stroke-opacity:1;marker-end:url(#marker6044)"
         d="m -65.463299,-9.8682481 h 21.259842 V 4.3049802 l 35.43309,1.9e-6"
         id="path5278" />
      <g
         aria-label="1"
         id="text5280"
         style="font-weight:bold;line-height:0%;font-family:Iwona;-inkscape-font-specification:'Iwona Bold'">
        <path
           d="m -1.9270756,-20.498167 v -6.9 h -0.58 c -0.55,0.63 -1.2,1.17 -1.92,1.59 v 0.42 c 0.61,-0.29 1.18,-0.63 1.72,-1.04 v 5.93 z"
           style="font-weight:normal;font-size:10px;line-height:1.25;-inkscape-font-specification:Iwona"
           id="path241" />
      </g>
      <g
         aria-label="0"
         id="text5284"
         style="font-weight:bold;line-height:0%;font-family:Iwona;-inkscape-font-specification:'Iwona Bold'">
        <path
           d="m -0.40707558,4.398289 c 0,-2.37 -0.73000002,-3.54999999 -2.19000002,-3.54999999 -1.46,0 -2.19,1.17999999 -2.19,3.54999999 0,2.37 0.73,3.55 2.19,3.55 1.46,0 2.19000002,-1.18 2.19000002,-3.55 z m -0.88000002,0 c 0,2.09 -0.44,3.13 -1.31,3.13 -0.87,0 -1.31,-1.04 -1.31,-3.13 0,-2.09 0.44,-3.13 1.31,-3.13 0.87,0 1.31,1.04 1.31,3.13 z"
           style="font-weight:normal;font-size:10px;line-height:1.25;-inkscape-font-specification:Iwona"
           id="path244" />
      </g>
      <path
         id="path5288"
         d="M -317.0381,-52.387933 H 1.8595353 l 2.2e-6,19.349842"
         style="fill:none;stroke:#000000;stroke-width:1px;stroke-linecap:butt;stroke-linejoin:miter;stroke-opacity:1;marker-start:url(#marker11394);marker-end:url(#marker4954)" />
    </g>
    <g
       aria-label="0"
       id="text6822"
       style="line-height:0%;font-family:Iwona;-inkscape-font-specification:Sans;text-align:end;letter-spacing:0px;word-spacing:0px;text-anchor:end">
      <path
         d="m 243.8002,-133.07909 c 0,-3.792 -1.168,-5.68 -3.504,-5.68 -2.336,0 -3.504,1.888 -3.504,5.68 0,3.792 1.168,5.68 3.504,5.68 2.336,0 3.504,-1.888 3.504,-5.68 z m -1.408,0 c 0,3.344 -0.704,5.008 -2.096,5.008 -1.392,0 -2.096,-1.664 -2.096,-5.008 0,-3.344 0.704,-5.008 2.096,-5.008 1.392,0 2.096,1.664 2.096,5.008 z"
         style="font-size:16px;line-height:1.25"
         id="path247" />
    </g>
    <g
       aria-label="LOAD"
       id="text11620"
       style="line-height:0%;font-family:Iwona;-inkscape-font-specification:Sans;text-align:center;letter-spacing:0px;word-spacing:0px;text-anchor:middle">
      <path
         d="m 263.698,-209.05516 v -0.736 h -5.088 v -10.464 h -1.312 v 11.2 z"
         style="font-size:16px;line-height:1.25"
         id="path250" />
      <path
         d="m 274.59397,-214.65516 c 0,-3.392 -1.76,-5.76 -4.992,-5.76 -3.248,0 -5.008,2.368 -5.008,5.76 0,3.392 1.76,5.76 5.008,5.76 3.232,0 4.992,-2.368 4.992,-5.76 z m -1.568,0 c 0,2.8 -0.928,5.024 -3.424,5.024 -2.512,0 -3.44,-2.224 -3.44,-5.024 0,-2.8 0.928,-5.024 3.44,-5.024 2.496,0 3.424,2.224 3.424,5.024 z"
         style="font-size:16px;line-height:1.25"
         id="path252" />
      <path
         d="m 284.92995,-209.05516 -4.064,-11.2 h -1.392 l -4.144,11.2 h 0.784 l 1.456,-3.92 h 4.544 l 1.424,3.92 z m -3.088,-4.656 h -4 l 2.016,-5.472 z"
         style="font-size:16px;line-height:1.25"
         id="path254" />
      <path
         d="m 296.09794,-214.65516 c 0,-3.424 -1.872,-5.76 -5.168,-5.76 -0.992,0 -1.984,0.048 -2.96,0.16 h -1.28 v 11.2 h 1.28 c 0.976,0.112 1.968,0.16 2.96,0.16 3.296,0 5.168,-2.336 5.168,-5.76 z m -1.568,0 c 0,2.544 -1.296,5.024 -3.6,5.024 -0.976,0 -1.952,-0.048 -2.928,-0.16 v -9.728 c 0.976,-0.112 1.952,-0.16 2.928,-0.16 2.304,0 3.6,2.48 3.6,5.024 z"
         style="font-size:16px;line-height:1.25"
         id="path256" />
    </g>
    <g
       aria-label="Q1"
       id="text11626"
       style="line-height:0%;font-family:Iwona;-inkscape-font-specification:Sans;text-align:center;letter-spacing:0px;word-spacing:0px;text-anchor:middle">
      <path
         d="m 551.4826,-118.98591 c 0,-3.392 -1.76,-5.76 -4.992,-5.76 -3.248,0 -5.008,2.368 -5.008,5.76 0,3.392 1.76,5.76 5.008,5.76 0.112,1.296 1.184,2.288 2.496,2.288 0.816,0 1.04,-0.048 1.792,-0.384 v -0.48 c -0.368,0.208 -0.768,0.32 -1.2,0.32 -1.456,0 -2.032,-0.512 -2.048,-1.84 2.56,-0.448 3.952,-2.656 3.952,-5.664 z m -1.568,0 c 0,2.8 -0.928,5.024 -3.424,5.024 -2.512,0 -3.44,-2.224 -3.44,-5.024 0,-2.8 0.928,-5.024 3.44,-5.024 2.496,0 3.424,2.224 3.424,5.024 z"
         style="font-size:16px;line-height:1.25"
         id="path259" />
      <path
         d="m 555.87458,-110.18591 v -7.176 h -0.6032 c -0.572,0.6552 -1.248,1.2168 -1.9968,1.6536 v 0.4368 c 0.6344,-0.3016 1.2272,-0.6552 1.7888,-1.0816 v 6.1672 z"
         style="font-size:65%;baseline-shift:sub"
         id="path261" />
    </g>
    <g
       aria-label="Q0"
       id="text11632"
       style="line-height:0%;font-family:Iwona;-inkscape-font-specification:Sans;text-align:center;letter-spacing:0px;word-spacing:0px;text-anchor:middle">
      <path
         d="m 392.03377,-118.98591 c 0,-3.392 -1.76,-5.76 -4.992,-5.76 -3.248,0 -5.008,2.368 -5.008,5.76 0,3.392 1.76,5.76 5.008,5.76 0.112,1.296 1.184,2.288 2.496,2.288 0.816,0 1.04,-0.048 1.792,-0.384 v -0.48 c -0.368,0.208 -0.768,0.32 -1.2,0.32 -1.456,0 -2.032,-0.512 -2.048,-1.84 2.56,-0.448 3.952,-2.656 3.952,-5.664 z m -1.568,0 c 0,2.8 -0.928,5.024 -3.424,5.024 -2.512,0 -3.44,-2.224 -3.44,-5.024 0,-2.8 0.928,-5.024 3.44,-5.024 2.496,0 3.424,2.224 3.424,5.024 z"
         style="font-size:16px;line-height:1.25"
         id="path264" />
      <path
         d="m 398.00656,-113.77391 c 0,-2.4648 -0.7592,-3.692 -2.2776,-3.692 -1.5184,0 -2.2776,1.2272 -2.2776,3.692 0,2.4648 0.7592,3.692 2.2776,3.692 1.5184,0 2.2776,-1.2272 2.2776,-3.692 z m -0.9152,0 c 0,2.1736 -0.4576,3.2552 -1.3624,3.2552 -0.9048,0 -1.3624,-1.0816 -1.3624,-3.2552 0,-2.1736 0.4576,-3.2552 1.3624,-3.2552 0.9048,0 1.3624,1.0816 1.3624,3.2552 z"
         style="font-size:65%;baseline-shift:sub"
         id="path266" />
    </g>
  </g>
</svg>
