<?xml version="1.0" encoding="UTF-8" standalone="no"?>
<!-- Created with Inkscape (http://www.inkscape.org/) -->

<svg
   width="121.53117mm"
   height="35.179905mm"
   viewBox="0 0 430.62222 124.65321"
   id="svg6078"
   version="1.1"
   xmlns="http://www.w3.org/2000/svg"
   xmlns:svg="http://www.w3.org/2000/svg"
   xmlns:rdf="http://www.w3.org/1999/02/22-rdf-syntax-ns#"
   xmlns:cc="http://creativecommons.org/ns#"
   xmlns:dc="http://purl.org/dc/elements/1.1/">
  <defs
     id="defs6080">
    <marker
       orient="auto"
       refY="0"
       refX="0"
       id="marker9018"
       style="overflow:visible">
      <path
         id="path9020"
         d="m -2.5,-1 c 0,2.76 -2.24,5 -5,5 -2.76,0 -5,-2.24 -5,-5 0,-2.76 2.24,-5 5,-5 2.76,0 5,2.24 5,5 z"
         style="fill:#000000;fill-opacity:1;fill-rule:evenodd;stroke:#000000;stroke-width:1.00000003pt;stroke-opacity:1;marker-start:none;marker-end:none"
         transform="matrix(0.4,0,0,0.4,2.96,0.4)" />
    </marker>
    <marker
       style="overflow:visible"
       id="marker8864"
       refX="0"
       refY="0"
       orient="auto">
      <path
         transform="matrix(-0.4,0,0,-0.4,-4,0)"
         style="fill:#000000;fill-opacity:1;fill-rule:evenodd;stroke:#000000;stroke-width:1.00000003pt;stroke-opacity:1;marker-start:none"
         d="M 0,0 5,-5 -12.5,0 5,5 Z"
         id="path8866" />
    </marker>
    <marker
       style="overflow:visible"
       id="marker8728"
       refX="0"
       refY="0"
       orient="auto">
      <path
         transform="matrix(-0.4,0,0,-0.4,-4,0)"
         style="fill:#000000;fill-opacity:1;fill-rule:evenodd;stroke:#000000;stroke-width:1.00000003pt;stroke-opacity:1;marker-start:none"
         d="M 0,0 5,-5 -12.5,0 5,5 Z"
         id="path8730" />
    </marker>
    <marker
       orient="auto"
       refY="0"
       refX="0"
       id="marker4511"
       style="overflow:visible">
      <path
         id="path4513"
         d="M 0,0 5,-5 -12.5,0 5,5 Z"
         style="fill:#000000;fill-opacity:1;fill-rule:evenodd;stroke:#000000;stroke-width:1.00000003pt;stroke-opacity:1;marker-start:none"
         transform="matrix(-0.4,0,0,-0.4,-4,0)" />
    </marker>
    <marker
       orient="auto"
       refY="0"
       refX="0"
       id="marker4399"
       style="overflow:visible">
      <path
         id="path4401"
         d="M 0,0 5,-5 -12.5,0 5,5 Z"
         style="fill:#000000;fill-opacity:1;fill-rule:evenodd;stroke:#000000;stroke-width:1.00000003pt;stroke-opacity:1;marker-start:none"
         transform="matrix(-0.4,0,0,-0.4,-4,0)" />
    </marker>
    <marker
       style="overflow:visible"
       id="Arrow1Mend-3"
       refX="0"
       refY="0"
       orient="auto">
      <path
         transform="matrix(-0.4,0,0,-0.4,-4,0)"
         style="fill:#000000;fill-opacity:1;fill-rule:evenodd;stroke:#000000;stroke-width:1.00000003pt;stroke-opacity:1;marker-start:none"
         d="M 0,0 5,-5 -12.5,0 5,5 Z"
         id="path17924-5" />
    </marker>
    <marker
       style="overflow:visible"
       id="DotM-5"
       refX="0"
       refY="0"
       orient="auto">
      <path
         transform="matrix(0.4,0,0,0.4,2.96,0.4)"
         style="fill:#000000;fill-opacity:1;fill-rule:evenodd;stroke:#000000;stroke-width:1.00000003pt;stroke-opacity:1;marker-start:none;marker-end:none"
         d="m -2.5,-1 c 0,2.76 -2.24,5 -5,5 -2.76,0 -5,-2.24 -5,-5 0,-2.76 2.24,-5 5,-5 2.76,0 5,2.24 5,5 z"
         id="path4148-7" />
    </marker>
  </defs>
  <metadata
     id="metadata6083">
    <rdf:RDF>
      <cc:Work
         rdf:about="">
        <dc:format>image/svg+xml</dc:format>
        <dc:type
           rdf:resource="http://purl.org/dc/dcmitype/StillImage" />
        <dc:title />
      </cc:Work>
    </rdf:RDF>
  </metadata>
  <g
     id="layer1"
     transform="translate(-212.68701,71.366144)">
    <path
       id="rect55560"
       style="fill:#ffeeaa;stroke:#000000;stroke-linecap:round;stroke-linejoin:bevel;stroke-opacity:0.784314"
       d="m 283.46462,-63.77953 h 67.32279 c 2e-5,0 3e-5,1e-6 3e-5,2e-6 v 88.582677 c 0,10e-7 -1e-5,10e-7 -3e-5,10e-7 h -67.32279 c -1e-5,0 -2e-5,0 -2e-5,-10e-7 v -88.582677 c 0,-10e-7 10e-6,-2e-6 2e-5,-2e-6 z" />
    <g
       aria-label="D"
       id="text55562"
       style="line-height:0%;font-family:Iwona;-inkscape-font-specification:Sans;letter-spacing:0px;word-spacing:0px">
      <path
         d="m 299.38871,-44.576307 c 0,-3.424 -1.872,-5.76 -5.168,-5.76 -0.992,0 -1.984,0.048 -2.96,0.16 h -1.28 v 11.2 h 1.28 c 0.976,0.112 1.968,0.16 2.96,0.16 3.296,0 5.168,-2.336 5.168,-5.76 z m -1.568,0 c 0,2.544 -1.296,5.024 -3.6,5.024 -0.976,0 -1.952,-0.048 -2.928,-0.16 v -9.728 c 0.976,-0.112 1.952,-0.16 2.928,-0.16 2.304,0 3.6,2.48 3.6,5.024 z"
         style="font-size:16px;line-height:1.25"
         id="path104" />
    </g>
    <g
       aria-label="CLK"
       id="text55566"
       style="line-height:0%;font-family:Iwona;-inkscape-font-specification:Sans;letter-spacing:0px;word-spacing:0px">
      <path
         d="m 302.48198,3.31488 v -0.7425 c -0.7425,-1.0725 -1.96625,-1.70500005 -3.25875,-1.70500005 -2.79125,0 -4.30375,2.03500005 -4.30375,4.95000005 0,2.915 1.5125,4.95 4.30375,4.95 1.0725,0 2.13125,-0.31625 3.03875,-0.9075 v -0.6325 c -0.9075,0.59125 -1.96625,0.9075 -3.03875,0.9075 -2.15875,0 -2.95625,-1.91125 -2.95625,-4.3175 0,-2.40625 0.7975,-4.3175 2.95625,-4.3175 1.32,0 2.5575,0.6875 3.25875,1.815 z"
         style="font-size:13.75px;line-height:1.25"
         id="path107" />
      <path
         d="m 309.76947,10.62988 v -0.6325 h -4.3725 v -8.9925 h -1.1275 v 9.625 z"
         style="font-size:13.75px;line-height:1.25"
         id="path109" />
      <path
         d="m 319.50445,10.62988 -6.09125,-5.445 5.76125,-4.18 h -1.08625 l -5.54125,4.02875 V 1.00488 h -1.1275 v 9.625 h 1.1275 v -4.7025 l 5.26625,4.7025 z"
         style="font-size:13.75px;line-height:1.25"
         id="path111" />
    </g>
    <g
       aria-label="Q"
       id="text55570"
       style="line-height:0%;font-family:Iwona;-inkscape-font-specification:Sans;text-align:center;letter-spacing:0px;word-spacing:0px;text-anchor:middle">
      <path
         d="m 345.15748,-44.576307 c 0,-3.392 -1.76,-5.76 -4.992,-5.76 -3.248,0 -5.008,2.368 -5.008,5.76 0,3.392 1.76,5.76 5.008,5.76 0.112,1.296 1.184,2.288 2.496,2.288 0.816,0 1.04,-0.048 1.792,-0.384 v -0.48 c -0.368,0.208 -0.768,0.32 -1.2,0.32 -1.456,0 -2.032,-0.512 -2.048,-1.84 2.56,-0.448 3.952,-2.656 3.952,-5.664 z m -1.568,0 c 0,2.8 -0.928,5.024 -3.424,5.024 -2.512,0 -3.44,-2.224 -3.44,-5.024 0,-2.8 0.928,-5.024 3.44,-5.024 2.496,0 3.424,2.224 3.424,5.024 z"
         style="font-size:16px;line-height:1.25"
         id="path114" />
    </g>
    <path
       style="fill:none;stroke:#000000;stroke-width:1px;stroke-linecap:butt;stroke-linejoin:miter;stroke-opacity:1;marker-end:url(#marker4511)"
       d="M 248.03149,-42.5195 H 283.4647"
       id="path55580" />
    <path
       id="path55582"
       d="M 265.74802,42.519642 V 7.0865707 L 283.4647,7.0867"
       style="fill:none;stroke:#000000;stroke-width:1px;stroke-linecap:butt;stroke-linejoin:miter;stroke-opacity:1;marker-start:url(#DotM-5);marker-end:url(#marker8728)" />
    <path
       id="path55584"
       d="m 350.78758,-42.5196 h 56.69271"
       style="fill:none;stroke:#000000;stroke-width:1px;stroke-linecap:butt;stroke-linejoin:miter;stroke-opacity:1;marker-end:url(#Arrow1Mend-3)" />
    <path
       style="fill:none;fill-rule:evenodd;stroke:#000000;stroke-width:1px;stroke-linecap:butt;stroke-linejoin:miter;stroke-opacity:1"
       d="m 283.46456,-4.1e-5 7.08661,7.086614 -7.08661,7.086614"
       id="path3405" />
    <path
       id="rect3426"
       style="fill:#ffeeaa;stroke:#000000;stroke-linecap:round;stroke-linejoin:bevel;stroke-opacity:0.784314"
       d="m 407.48034,-63.77953 h 67.32279 c 10e-6,0 2e-5,1e-6 2e-5,2e-6 v 88.582677 c 0,10e-7 -1e-5,10e-7 -2e-5,10e-7 h -67.32279 c -1e-5,0 -2e-5,0 -2e-5,-10e-7 v -88.582677 c 0,-10e-7 10e-6,-2e-6 2e-5,-2e-6 z" />
    <g
       aria-label="D"
       id="text3428"
       style="line-height:0%;font-family:Iwona;-inkscape-font-specification:Sans;letter-spacing:0px;word-spacing:0px">
      <path
         d="m 423.40442,-44.576307 c 0,-3.424 -1.872,-5.76 -5.168,-5.76 -0.992,0 -1.984,0.048 -2.96,0.16 h -1.28 v 11.2 h 1.28 c 0.976,0.112 1.968,0.16 2.96,0.16 3.296,0 5.168,-2.336 5.168,-5.76 z m -1.568,0 c 0,2.544 -1.296,5.024 -3.6,5.024 -0.976,0 -1.952,-0.048 -2.928,-0.16 v -9.728 c 0.976,-0.112 1.952,-0.16 2.928,-0.16 2.304,0 3.6,2.48 3.6,5.024 z"
         style="font-size:16px;line-height:1.25"
         id="path118" />
    </g>
    <g
       aria-label="CLK"
       id="text3432"
       style="line-height:0%;font-family:Iwona;-inkscape-font-specification:Sans;letter-spacing:0px;word-spacing:0px">
      <path
         d="m 426.4977,3.31488 v -0.7425 c -0.7425,-1.0725 -1.96625,-1.70500005 -3.25875,-1.70500005 -2.79125,0 -4.30375,2.03500005 -4.30375,4.95000005 0,2.915 1.5125,4.95 4.30375,4.95 1.0725,0 2.13125,-0.31625 3.03875,-0.9075 v -0.6325 c -0.9075,0.59125 -1.96625,0.9075 -3.03875,0.9075 -2.15875,0 -2.95625,-1.91125 -2.95625,-4.3175 0,-2.40625 0.7975,-4.3175 2.95625,-4.3175 1.32,0 2.5575,0.6875 3.25875,1.815 z"
         style="font-size:13.75px;line-height:1.25"
         id="path121" />
      <path
         d="m 433.78519,10.62988 v -0.6325 h -4.3725 v -8.9925 h -1.1275 v 9.625 z"
         style="font-size:13.75px;line-height:1.25"
         id="path123" />
      <path
         d="m 443.52017,10.62988 -6.09125,-5.445 5.76125,-4.18 h -1.08625 l -5.54125,4.02875 V 1.00488 h -1.1275 v 9.625 h 1.1275 v -4.7025 l 5.26625,4.7025 z"
         style="font-size:13.75px;line-height:1.25"
         id="path125" />
    </g>
    <g
       aria-label="Q"
       id="text3436"
       style="line-height:0%;font-family:Iwona;-inkscape-font-specification:Sans;text-align:center;letter-spacing:0px;word-spacing:0px;text-anchor:middle">
      <path
         d="m 469.1732,-44.576307 c 0,-3.392 -1.76,-5.76 -4.992,-5.76 -3.248,0 -5.008,2.368 -5.008,5.76 0,3.392 1.76,5.76 5.008,5.76 0.112,1.296 1.184,2.288 2.496,2.288 0.816,0 1.04,-0.048 1.792,-0.384 v -0.48 c -0.368,0.208 -0.768,0.32 -1.2,0.32 -1.456,0 -2.032,-0.512 -2.048,-1.84 2.56,-0.448 3.952,-2.656 3.952,-5.664 z m -1.568,0 c 0,2.8 -0.928,5.024 -3.424,5.024 -2.512,0 -3.44,-2.224 -3.44,-5.024 0,-2.8 0.928,-5.024 3.44,-5.024 2.496,0 3.424,2.224 3.424,5.024 z"
         style="font-size:16px;line-height:1.25"
         id="path128" />
    </g>
    <path
       style="fill:none;stroke:#000000;stroke-width:1px;stroke-linecap:butt;stroke-linejoin:miter;stroke-opacity:1;marker-start:url(#marker9018);marker-end:url(#marker8864)"
       d="M 389.76377,42.519642 V 7.0865707 L 407.48041,7.0867"
       id="path3440" />
    <path
       style="fill:none;stroke:#000000;stroke-width:1px;stroke-linecap:butt;stroke-linejoin:miter;stroke-opacity:1;marker-end:url(#Arrow1Mend-3)"
       d="m 474.8033,-42.5196 h 56.69275"
       id="path3442" />
    <path
       id="path3444"
       d="m 407.48027,-4.1e-5 7.08661,7.086614 -7.08661,7.086614"
       style="fill:none;fill-rule:evenodd;stroke:#000000;stroke-width:1px;stroke-linecap:butt;stroke-linejoin:miter;stroke-opacity:1" />
    <path
       id="rect3446"
       style="fill:#ffeeaa;stroke:#000000;stroke-linecap:round;stroke-linejoin:bevel;stroke-opacity:0.784314"
       d="m 531.49606,-63.77953 h 67.32279 c 10e-6,0 2e-5,1e-6 2e-5,2e-6 v 88.582677 c 0,10e-7 -10e-6,10e-7 -2e-5,10e-7 h -67.32279 c -2e-5,0 -3e-5,0 -3e-5,-10e-7 v -88.582677 c 0,-10e-7 10e-6,-2e-6 3e-5,-2e-6 z" />
    <g
       aria-label="D"
       id="text3448"
       style="line-height:0%;font-family:Iwona;-inkscape-font-specification:Sans;letter-spacing:0px;word-spacing:0px">
      <path
         d="m 547.42017,-44.576307 c 0,-3.424 -1.872,-5.76 -5.168,-5.76 -0.992,0 -1.984,0.048 -2.96,0.16 h -1.28 v 11.2 h 1.28 c 0.976,0.112 1.968,0.16 2.96,0.16 3.296,0 5.168,-2.336 5.168,-5.76 z m -1.568,0 c 0,2.544 -1.296,5.024 -3.6,5.024 -0.976,0 -1.952,-0.048 -2.928,-0.16 v -9.728 c 0.976,-0.112 1.952,-0.16 2.928,-0.16 2.304,0 3.6,2.48 3.6,5.024 z"
         style="font-size:16px;line-height:1.25"
         id="path132" />
    </g>
    <g
       aria-label="CLK"
       id="text3452"
       style="line-height:0%;font-family:Iwona;-inkscape-font-specification:Sans;letter-spacing:0px;word-spacing:0px">
      <path
         d="m 550.51342,3.31488 v -0.7425 c -0.7425,-1.0725 -1.96625,-1.70500005 -3.25875,-1.70500005 -2.79125,0 -4.30375,2.03500005 -4.30375,4.95000005 0,2.915 1.5125,4.95 4.30375,4.95 1.0725,0 2.13125,-0.31625 3.03875,-0.9075 v -0.6325 c -0.9075,0.59125 -1.96625,0.9075 -3.03875,0.9075 -2.15875,0 -2.95625,-1.91125 -2.95625,-4.3175 0,-2.40625 0.7975,-4.3175 2.95625,-4.3175 1.32,0 2.5575,0.6875 3.25875,1.815 z"
         style="font-size:13.75px;line-height:1.25"
         id="path135" />
      <path
         d="m 557.80091,10.62988 v -0.6325 h -4.3725 v -8.9925 h -1.1275 v 9.625 z"
         style="font-size:13.75px;line-height:1.25"
         id="path137" />
      <path
         d="m 567.53589,10.62988 -6.09125,-5.445 5.76125,-4.18 h -1.08625 l -5.54125,4.02875 V 1.00488 h -1.1275 v 9.625 h 1.1275 v -4.7025 l 5.26625,4.7025 z"
         style="font-size:13.75px;line-height:1.25"
         id="path139" />
    </g>
    <g
       aria-label="Q"
       id="text3456"
       style="line-height:0%;font-family:Iwona;-inkscape-font-specification:Sans;text-align:center;letter-spacing:0px;word-spacing:0px;text-anchor:middle">
      <path
         d="m 593.18891,-44.576307 c 0,-3.392 -1.76,-5.76 -4.992,-5.76 -3.248,0 -5.008,2.368 -5.008,5.76 0,3.392 1.76,5.76 5.008,5.76 0.112,1.296 1.184,2.288 2.496,2.288 0.816,0 1.04,-0.048 1.792,-0.384 v -0.48 c -0.368,0.208 -0.768,0.32 -1.2,0.32 -1.456,0 -2.032,-0.512 -2.048,-1.84 2.56,-0.448 3.952,-2.656 3.952,-5.664 z m -1.568,0 c 0,2.8 -0.928,5.024 -3.424,5.024 -2.512,0 -3.44,-2.224 -3.44,-5.024 0,-2.8 0.928,-5.024 3.44,-5.024 2.496,0 3.424,2.224 3.424,5.024 z"
         style="font-size:16px;line-height:1.25"
         id="path142" />
    </g>
    <path
       id="path3460"
       d="M 248.03149,42.519642 H 513.77952 V 7.0865707 L 531.49615,7.0867"
       style="fill:none;stroke:#000000;stroke-width:1px;stroke-linecap:butt;stroke-linejoin:miter;stroke-opacity:1;marker-end:url(#marker4399)" />
    <path
       id="path3462"
       d="m 598.81905,-42.5196 h 35.4329"
       style="fill:none;stroke:#000000;stroke-width:1px;stroke-linecap:butt;stroke-linejoin:miter;stroke-opacity:1;marker-end:url(#Arrow1Mend-3)" />
    <path
       style="fill:none;fill-rule:evenodd;stroke:#000000;stroke-width:1px;stroke-linecap:butt;stroke-linejoin:miter;stroke-opacity:1"
       d="m 531.49601,-4.1e-5 7.08661,7.086614 -7.08661,7.086614"
       id="path3464" />
    <g
       aria-label="D0"
       id="text3466"
       style="line-height:0%;font-family:Iwona;-inkscape-font-specification:Sans;text-align:end;letter-spacing:0px;word-spacing:0px;text-anchor:end">
      <path
         d="m 269.95795,-55.206342 c 0,-3.424 -1.872,-5.76 -5.168,-5.76 -0.992,0 -1.984,0.048 -2.96,0.16 h -1.28 v 11.2 h 1.28 c 0.976,0.112 1.968,0.16 2.96,0.16 3.296,0 5.168,-2.336 5.168,-5.76 z m -1.568,0 c 0,2.544 -1.296,5.024 -3.6,5.024 -0.976,0 -1.952,-0.048 -2.928,-0.16 v -9.728 c 0.976,-0.112 1.952,-0.16 2.928,-0.16 2.304,0 3.6,2.48 3.6,5.024 z"
         style="font-size:16px;line-height:1.25"
         id="path145" />
      <path
         d="m 275.93073,-49.994342 c 0,-2.4648 -0.7592,-3.692 -2.2776,-3.692 -1.5184,0 -2.2776,1.2272 -2.2776,3.692 0,2.4648 0.7592,3.692 2.2776,3.692 1.5184,0 2.2776,-1.2272 2.2776,-3.692 z m -0.9152,0 c 0,2.1736 -0.4576,3.2552 -1.3624,3.2552 -0.9048,0 -1.3624,-1.0816 -1.3624,-3.2552 0,-2.1736 0.4576,-3.2552 1.3624,-3.2552 0.9048,0 1.3624,1.0816 1.3624,3.2552 z"
         style="font-size:65%;baseline-shift:sub"
         id="path147" />
    </g>
    <g
       aria-label="D1"
       id="text3470"
       style="line-height:0%;font-family:Iwona;-inkscape-font-specification:Sans;text-align:end;letter-spacing:0px;word-spacing:0px;text-anchor:end">
      <path
         d="m 393.97366,-55.206342 c 0,-3.424 -1.872,-5.76 -5.168,-5.76 -0.992,0 -1.984,0.048 -2.96,0.16 h -1.28 v 11.2 h 1.28 c 0.976,0.112 1.968,0.16 2.96,0.16 3.296,0 5.168,-2.336 5.168,-5.76 z m -1.568,0 c 0,2.544 -1.296,5.024 -3.6,5.024 -0.976,0 -1.952,-0.048 -2.928,-0.16 v -9.728 c 0.976,-0.112 1.952,-0.16 2.928,-0.16 2.304,0 3.6,2.48 3.6,5.024 z"
         style="font-size:16px;line-height:1.25"
         id="path150" />
      <path
         d="m 398.36565,-46.406342 v -7.176 h -0.6032 c -0.572,0.6552 -1.248,1.2168 -1.9968,1.6536 v 0.4368 c 0.6344,-0.3016 1.2272,-0.6552 1.7888,-1.0816 v 6.1672 z"
         style="font-size:65%;baseline-shift:sub"
         id="path152" />
    </g>
    <g
       aria-label="D2"
       id="text3474"
       style="line-height:0%;font-family:Iwona;-inkscape-font-specification:Sans;text-align:end;letter-spacing:0px;word-spacing:0px;text-anchor:end">
      <path
         d="m 517.98944,-55.206342 c 0,-3.424 -1.872,-5.76 -5.168,-5.76 -0.992,0 -1.984,0.048 -2.96,0.16 h -1.28 v 11.2 h 1.28 c 0.976,0.112 1.968,0.16 2.96,0.16 3.296,0 5.168,-2.336 5.168,-5.76 z m -1.568,0 c 0,2.544 -1.296,5.024 -3.6,5.024 -0.976,0 -1.952,-0.048 -2.928,-0.16 v -9.728 c 0.976,-0.112 1.952,-0.16 2.928,-0.16 2.304,0 3.6,2.48 3.6,5.024 z"
         style="font-size:16px;line-height:1.25"
         id="path155" />
      <path
         d="m 523.88943,-46.406342 v -0.6448 h -3.6712 l 1.9136,-1.8928 c 0.8528,-0.8528 1.6536,-1.8512 1.6536,-3.0576 0,-1.0192 -1.0088,-1.6848 -2.1008,-1.6848 -0.8216,0 -1.6016,0.3744 -2.1112,1.0088 v 0.4368 c 0.5304,-0.6136 1.3,-0.9672 2.1112,-0.9672 0.6968,0 1.2896,0.52 1.2896,1.2064 0,1.0296 -0.4784,1.9864 -1.1856,2.7248 l -2.3192,2.3816 v 0.4888 z"
         style="font-size:65%;baseline-shift:sub"
         id="path157" />
    </g>
    <g
       aria-label="Q0"
       id="text3478"
       style="line-height:0%;font-family:Iwona;-inkscape-font-specification:Sans;letter-spacing:0px;word-spacing:0px">
      <path
         d="m 368.83399,-55.206342 c 0,-3.392 -1.76,-5.76 -4.992,-5.76 -3.248,0 -5.008,2.368 -5.008,5.76 0,3.392 1.76,5.76 5.008,5.76 0.112,1.296 1.184,2.288 2.496,2.288 0.816,0 1.04,-0.048 1.792,-0.384 v -0.48 c -0.368,0.208 -0.768,0.32 -1.2,0.32 -1.456,0 -2.032,-0.512 -2.048,-1.84 2.56,-0.448 3.952,-2.656 3.952,-5.664 z m -1.568,0 c 0,2.8 -0.928,5.024 -3.424,5.024 -2.512,0 -3.44,-2.224 -3.44,-5.024 0,-2.8 0.928,-5.024 3.44,-5.024 2.496,0 3.424,2.224 3.424,5.024 z"
         style="font-size:16px;line-height:1.25"
         id="path160" />
      <path
         d="m 374.80678,-49.994342 c 0,-2.4648 -0.7592,-3.692 -2.2776,-3.692 -1.5184,0 -2.2776,1.2272 -2.2776,3.692 0,2.4648 0.7592,3.692 2.2776,3.692 1.5184,0 2.2776,-1.2272 2.2776,-3.692 z m -0.9152,0 c 0,2.1736 -0.4576,3.2552 -1.3624,3.2552 -0.9048,0 -1.3624,-1.0816 -1.3624,-3.2552 0,-2.1736 0.4576,-3.2552 1.3624,-3.2552 0.9048,0 1.3624,1.0816 1.3624,3.2552 z"
         style="font-size:65%;baseline-shift:sub"
         id="path162" />
    </g>
    <g
       aria-label="Q1"
       id="text3482"
       style="line-height:0%;font-family:Iwona;-inkscape-font-specification:Sans;letter-spacing:0px;word-spacing:0px">
      <path
         d="m 492.84971,-55.206342 c 0,-3.392 -1.76,-5.76 -4.992,-5.76 -3.248,0 -5.008,2.368 -5.008,5.76 0,3.392 1.76,5.76 5.008,5.76 0.112,1.296 1.184,2.288 2.496,2.288 0.816,0 1.04,-0.048 1.792,-0.384 v -0.48 c -0.368,0.208 -0.768,0.32 -1.2,0.32 -1.456,0 -2.032,-0.512 -2.048,-1.84 2.56,-0.448 3.952,-2.656 3.952,-5.664 z m -1.568,0 c 0,2.8 -0.928,5.024 -3.424,5.024 -2.512,0 -3.44,-2.224 -3.44,-5.024 0,-2.8 0.928,-5.024 3.44,-5.024 2.496,0 3.424,2.224 3.424,5.024 z"
         style="font-size:16px;line-height:1.25"
         id="path165" />
      <path
         d="m 497.24169,-46.406342 v -7.176 h -0.6032 c -0.572,0.6552 -1.248,1.2168 -1.9968,1.6536 v 0.4368 c 0.6344,-0.3016 1.2272,-0.6552 1.7888,-1.0816 v 6.1672 z"
         style="font-size:65%;baseline-shift:sub"
         id="path167" />
    </g>
    <g
       aria-label="Q2"
       id="text3486"
       style="line-height:0%;font-family:Iwona;-inkscape-font-specification:Sans;letter-spacing:0px;word-spacing:0px">
      <path
         d="m 616.86546,-55.206342 c 0,-3.392 -1.76,-5.76 -4.992,-5.76 -3.248,0 -5.008,2.368 -5.008,5.76 0,3.392 1.76,5.76 5.008,5.76 0.112,1.296 1.184,2.288 2.496,2.288 0.816,0 1.04,-0.048 1.792,-0.384 v -0.48 c -0.368,0.208 -0.768,0.32 -1.2,0.32 -1.456,0 -2.032,-0.512 -2.048,-1.84 2.56,-0.448 3.952,-2.656 3.952,-5.664 z m -1.568,0 c 0,2.8 -0.928,5.024 -3.424,5.024 -2.512,0 -3.44,-2.224 -3.44,-5.024 0,-2.8 0.928,-5.024 3.44,-5.024 2.496,0 3.424,2.224 3.424,5.024 z"
         style="font-size:16px;line-height:1.25"
         id="path170" />
      <path
         d="m 622.76544,-46.406342 v -0.6448 h -3.6712 l 1.9136,-1.8928 c 0.8528,-0.8528 1.6536,-1.8512 1.6536,-3.0576 0,-1.0192 -1.0088,-1.6848 -2.1008,-1.6848 -0.8216,0 -1.6016,0.3744 -2.1112,1.0088 v 0.4368 c 0.5304,-0.6136 1.3,-0.9672 2.1112,-0.9672 0.6968,0 1.2896,0.52 1.2896,1.2064 0,1.0296 -0.4784,1.9864 -1.1856,2.7248 l -2.3192,2.3816 v 0.4888 z"
         style="font-size:65%;baseline-shift:sub"
         id="path172" />
    </g>
    <g
       aria-label="CLK"
       id="text3502"
       style="line-height:0%;font-family:Iwona;-inkscape-font-specification:Sans;text-align:end;letter-spacing:0px;word-spacing:0px;text-anchor:end">
      <path
         d="m 227.3282,38.74795 v -0.7425 c -0.7425,-1.0725 -1.96625,-1.705 -3.25875,-1.705 -2.79125,0 -4.30375,2.035 -4.30375,4.95 0,2.915 1.5125,4.95 4.30375,4.95 1.0725,0 2.13125,-0.31625 3.03875,-0.9075 v -0.6325 c -0.9075,0.59125 -1.96625,0.9075 -3.03875,0.9075 -2.15875,0 -2.95625,-1.91125 -2.95625,-4.3175 0,-2.40625 0.7975,-4.3175 2.95625,-4.3175 1.32,0 2.5575,0.6875 3.25875,1.815 z"
         style="font-size:13.75px;line-height:1.25"
         id="path175" />
      <path
         d="m 234.61569,46.06295 v -0.6325 h -4.3725 v -8.9925 h -1.1275 v 9.625 z"
         style="font-size:13.75px;line-height:1.25"
         id="path177" />
      <path
         d="m 244.35068,46.06295 -6.09125,-5.445 5.76125,-4.18 h -1.08625 l -5.54125,4.02875 v -4.02875 h -1.1275 v 9.625 h 1.1275 v -4.7025 l 5.26625,4.7025 z"
         style="font-size:13.75px;line-height:1.25"
         id="path179" />
    </g>
  </g>
</svg>
