<?xml version="1.0" encoding="UTF-8" standalone="no"?>
<!-- Created with Inkscape (http://www.inkscape.org/) -->

<svg
   width="182.28223mm"
   height="96.282112mm"
   id="svg2"
   version="1.0"
   viewBox="0 0 645.8819 341.15709"
   xmlns="http://www.w3.org/2000/svg"
   xmlns:svg="http://www.w3.org/2000/svg"
   xmlns:rdf="http://www.w3.org/1999/02/22-rdf-syntax-ns#"
   xmlns:cc="http://creativecommons.org/ns#"
   xmlns:dc="http://purl.org/dc/elements/1.1/">
  <defs
     id="defs4">
    <marker
       orient="auto"
       refY="0"
       refX="0"
       id="marker10201"
       style="overflow:visible">
      <path
         id="path10203"
         d="M 0,0 5,-5 -12.5,0 5,5 Z"
         style="fill-rule:evenodd;stroke:#000000;stroke-width:1.00000003pt;marker-start:none"
         transform="matrix(-0.8,0,0,-0.8,-10,0)" />
    </marker>
    <marker
       orient="auto"
       refY="0"
       refX="0"
       id="marker10177"
       style="overflow:visible">
      <path
         id="path10179"
         d="M 0,0 5,-5 -12.5,0 5,5 Z"
         style="fill-rule:evenodd;stroke:#000000;stroke-width:1.00000003pt;marker-start:none"
         transform="matrix(-0.2,0,0,-0.2,-1.2,0)" />
    </marker>
    <marker
       orient="auto"
       refY="0"
       refX="0"
       id="marker10173"
       style="overflow:visible">
      <path
         id="path10175"
         d="m -2.5,-1 c 0,2.76 -2.24,5 -5,5 -2.76,0 -5,-2.24 -5,-5 0,-2.76 2.24,-5 5,-5 2.76,0 5,2.24 5,5 z"
         style="fill-rule:evenodd;stroke:#000000;stroke-width:1.00000003pt;marker-start:none;marker-end:none"
         transform="matrix(0.4,0,0,0.4,2.96,0.4)" />
    </marker>
    <marker
       orient="auto"
       refY="0"
       refX="0"
       id="marker10197I"
       style="overflow:visible">
      <path
         id="path12935"
         d="M 0,0 5,-5 -12.5,0 5,5 Z"
         style="fill:#ff0000;fill-rule:evenodd;stroke:#ff0000;stroke-width:1.00000003pt;marker-start:none"
         transform="matrix(-0.4,0,0,-0.4,-4,0)" />
    </marker>
    <marker
       orient="auto"
       refY="0"
       refX="0"
       id="marker10197E"
       style="overflow:visible">
      <path
         id="path12938"
         d="M 0,0 5,-5 -12.5,0 5,5 Z"
         style="fill:#ff0000;fill-rule:evenodd;stroke:#ff0000;stroke-width:1.00000003pt;marker-start:none"
         transform="matrix(-0.4,0,0,-0.4,-4,0)" />
    </marker>
    <marker
       orient="auto"
       refY="0"
       refX="0"
       id="marker10197C"
       style="overflow:visible">
      <path
         id="path12941"
         d="M 0,0 5,-5 -12.5,0 5,5 Z"
         style="fill:#ff0000;fill-rule:evenodd;stroke:#ff0000;stroke-width:1.00000003pt;marker-start:none"
         transform="matrix(-0.4,0,0,-0.4,-4,0)" />
    </marker>
  </defs>
  <metadata
     id="metadata7">
    <rdf:RDF>
      <cc:Work
         rdf:about="">
        <dc:format>image/svg+xml</dc:format>
        <dc:type
           rdf:resource="http://purl.org/dc/dcmitype/StillImage" />
        <dc:title />
      </cc:Work>
    </rdf:RDF>
  </metadata>
  <g
     transform="translate(-202.13748,-137.14874)"
     id="layer1">
    <path
       style="fill:none;fill-rule:evenodd;stroke:#000000;stroke-width:0.999213;stroke-linecap:butt;stroke-linejoin:miter;stroke-miterlimit:4;stroke-dasharray:none;stroke-opacity:1;marker-end:url(#marker10201)"
       d="m 751.85008,268.75071 h 74.40945"
       id="path9322" />
    <path
       id="path9324"
       d="m 755.39339,282.92394 h 70.86614"
       style="fill:none;fill-rule:evenodd;stroke:#000000;stroke-width:0.999213;stroke-linecap:butt;stroke-linejoin:miter;stroke-miterlimit:4;stroke-dasharray:none;stroke-opacity:1;marker-end:url(#marker10201)" />
    <path
       style="fill:none;fill-rule:evenodd;stroke:#000000;stroke-width:0.999213;stroke-linecap:butt;stroke-linejoin:miter;stroke-miterlimit:4;stroke-dasharray:none;stroke-opacity:1;marker-end:url(#marker10201)"
       d="m 751.85008,297.09716 h 74.40945"
       id="path9326" />
    <path
       style="fill:none;fill-rule:evenodd;stroke:#000000;stroke-width:7.08661;stroke-linecap:butt;stroke-linejoin:miter;stroke-miterlimit:4;stroke-dasharray:none;stroke-opacity:1;marker-end:url(#marker10177)"
       d="M 447.12567,282.92394 H 510.9052"
       id="path7744" />
    <g
       transform="translate(391.80788,266.7043)"
       id="g10880">
      <path
         id="rect9030"
         style="opacity:1;fill:#ffeeaa;stroke:#000000;stroke-width:0.999213"
         d="m 129.72725,-1.0402068 h 60.23622 V 87.542473 h -60.23622 z" />
      <g
         transform="translate(277.79303,-113.38582)"
         id="g10852">
        <g
           aria-label="D"
           id="text10854"
           style="line-height:0%;font-family:Iwona;-inkscape-font-specification:Iwona;stroke-width:1px">
          <path
             d="m -136.09686,129.40545 c 0,-2.568 -1.404,-4.32 -3.876,-4.32 -0.744,0 -1.488,0.036 -2.22,0.12 h -0.96 v 8.4 h 0.96 c 0.732,0.084 1.476,0.12 2.22,0.12 2.472,0 3.876,-1.752 3.876,-4.32 z m -1.176,0 c 0,1.908 -0.972,3.768 -2.7,3.768 -0.732,0 -1.464,-0.036 -2.196,-0.12 v -7.296 c 0.732,-0.084 1.464,-0.12 2.196,-0.12 1.728,0 2.7,1.86 2.7,3.768 z"
             style="font-size:12px;line-height:1.25"
             id="path470" />
        </g>
      </g>
      <g
         transform="translate(283.79303,-60.692907)"
         id="g10860">
        <g
           aria-label="CLK"
           id="text10862"
           style="line-height:0%;font-family:Iwona;-inkscape-font-specification:Iwona;stroke-width:1px">
          <path
             d="m -136.52895,127.22145 v -0.648 c -0.648,-0.936 -1.716,-1.488 -2.844,-1.488 -2.436,0 -3.756,1.776 -3.756,4.32 0,2.544 1.32,4.32 3.756,4.32 0.936,0 1.86,-0.276 2.652,-0.792 v -0.552 c -0.792,0.516 -1.716,0.792 -2.652,0.792 -1.884,0 -2.58,-1.668 -2.58,-3.768 0,-2.1 0.696,-3.768 2.58,-3.768 1.152,0 2.232,0.6 2.844,1.584 z"
             style="font-size:12px;line-height:1.25"
             id="path473" />
          <path
             d="m -130.16896,133.60545 v -0.552 h -3.816 v -7.848 h -0.984 v 8.4 z"
             style="font-size:12px;line-height:1.25"
             id="path475" />
          <path
             d="m -121.67298,133.60545 -5.316,-4.752 5.028,-3.648 h -0.948 l -4.836,3.516 v -3.516 h -0.984 v 8.4 h 0.984 v -4.104 l 4.596,4.104 z"
             style="font-size:12px;line-height:1.25"
             id="path477" />
        </g>
      </g>
      <g
         aria-label="Q"
         id="text10868"
         style="line-height:0%;font-family:Iwona;-inkscape-font-specification:Iwona;stroke-width:1px">
        <path
           d="m 184.12739,16.019629 c 0,-2.544 -1.32,-4.32 -3.744,-4.32 -2.436,0 -3.756,1.776 -3.756,4.32 0,2.544 1.32,4.32 3.756,4.32 0.084,0.972 0.888,1.716 1.872,1.716 0.612,0 0.78,-0.036 1.344,-0.288 v -0.36 c -0.276,0.156 -0.576,0.24 -0.9,0.24 -1.092,0 -1.524,-0.384 -1.536,-1.38 1.92,-0.336 2.964,-1.992 2.964,-4.248 z m -1.176,0 c 0,2.1 -0.696,3.768 -2.568,3.768 -1.884,0 -2.58,-1.668 -2.58,-3.768 0,-2.1 0.696,-3.768 2.58,-3.768 1.872,0 2.568,1.668 2.568,3.768 z"
           style="font-size:12px;line-height:1.25"
           id="path480" />
      </g>
      <path
         id="path14967"
         d="m 129.72724,62.282626 7.08662,7.086614 -7.08662,7.086614"
         style="fill:none;fill-rule:evenodd;stroke:#000000;stroke-width:1px;stroke-linecap:butt;stroke-linejoin:miter;stroke-opacity:1" />
    </g>
    <path
       id="path2798"
       d="m 273.50362,272.29401 h 74.40946"
       style="fill:none;fill-rule:evenodd;stroke:#000000;stroke-width:0.999213;stroke-linecap:butt;stroke-linejoin:miter;stroke-miterlimit:4;stroke-dasharray:none;stroke-opacity:1;marker-end:url(#marker10201)" />
    <path
       style="fill:none;fill-rule:evenodd;stroke:#000000;stroke-width:0.999213;stroke-linecap:butt;stroke-linejoin:miter;stroke-miterlimit:4;stroke-dasharray:none;stroke-opacity:1;marker-end:url(#marker10201)"
       d="m 273.50362,290.01055 h 74.40946"
       id="path7738" />
    <path
       id="path7740"
       d="M 273.50362,307.72708 H 362.0863"
       style="fill:none;fill-rule:evenodd;stroke:#000000;stroke-width:0.999213;stroke-linecap:butt;stroke-linejoin:miter;stroke-miterlimit:4;stroke-dasharray:none;stroke-opacity:1;marker-end:url(#marker10201)" />
    <path
       style="fill:none;fill-rule:evenodd;stroke:#000000;stroke-width:0.999213;stroke-linecap:butt;stroke-linejoin:miter;stroke-miterlimit:4;stroke-dasharray:none;stroke-opacity:1;marker-end:url(#marker10201)"
       d="m 273.50363,254.57748 h 88.58268"
       id="path7742" />
    <path
       style="fill:none;fill-rule:evenodd;stroke:#000000;stroke-width:7.08661;stroke-linecap:butt;stroke-linejoin:miter;stroke-miterlimit:4;stroke-dasharray:none;stroke-opacity:1;marker-start:none;marker-end:url(#marker10177)"
       d="M 610.1178,282.92394 V 190.79796 H 415.23591 v 35.43307"
       id="path7748" />
    <path
       id="path9328"
       d="M 326.65323,254.57748 V 165.9948 h 361.41733 l 0.65622,70.86614"
       style="fill:none;fill-rule:evenodd;stroke:#000000;stroke-width:0.999213;stroke-linecap:butt;stroke-linejoin:miter;stroke-miterlimit:4;stroke-dasharray:0.999213, 0.999213;stroke-dashoffset:0;stroke-opacity:1;marker-start:url(#marker10173);marker-end:url(#marker10201)" />
    <path
       style="fill:none;fill-rule:evenodd;stroke:#000000;stroke-width:0.999213;stroke-linecap:butt;stroke-linejoin:miter;stroke-miterlimit:4;stroke-dasharray:0.999213, 0.999213;stroke-dashoffset:0;stroke-opacity:1;marker-start:url(#marker10173);marker-end:url(#marker10201)"
       d="m 319.56662,272.29401 -10e-6,-113.38582 h 379.13387 v 81.49606"
       id="path9330" />
    <path
       id="path9332"
       d="M 312.48001,290.01054 312.48,151.82157 h 396.8504 v 88.58268"
       style="fill:none;fill-rule:evenodd;stroke:#000000;stroke-width:0.999213;stroke-linecap:butt;stroke-linejoin:miter;stroke-miterlimit:4;stroke-dasharray:0.999213, 0.999213;stroke-dashoffset:0;stroke-opacity:1;marker-start:url(#marker10173);marker-end:url(#marker10201)" />
    <path
       style="fill:none;fill-rule:evenodd;stroke:#000000;stroke-width:0.999213;stroke-linecap:butt;stroke-linejoin:miter;stroke-miterlimit:4;stroke-dasharray:0.999213, 0.999213;stroke-dashoffset:0;stroke-opacity:1;marker-start:url(#marker10173);marker-end:url(#marker10201)"
       d="m 305.3934,307.72708 -10e-6,-162.99212 h 414.56693 v 92.12598"
       id="path9334" />
    <path
       id="path9336"
       d="m 273.50363,414.0263 h 212.59842 v -77.95276 h 35.43307"
       style="fill:none;fill-rule:evenodd;stroke:#000000;stroke-width:0.999213;stroke-linecap:butt;stroke-linejoin:miter;stroke-miterlimit:4;stroke-dasharray:none;stroke-opacity:1;marker-start:none;marker-end:url(#marker10201)" />
    <g
       id="g10907"
       transform="translate(28.346455,-17.716538)">
      <path
         style="fill:#d5f6ff;fill-rule:evenodd;stroke:#000000;stroke-width:1px;stroke-linecap:butt;stroke-linejoin:miter;stroke-opacity:1"
         d="m 333.73984,278.92034 c -10.62992,-17.71654 17.71654,-35.43307 35.43307,-17.71654 17.71654,-17.71653 46.063,0 35.43308,17.71654 21.25984,0 21.25984,42.51968 0,42.51968 10.62992,17.71654 -17.71654,35.43307 -35.43308,17.71654 -17.71653,17.71653 -46.06299,0 -35.43307,-17.71654 -21.25984,0 -21.25984,-42.51968 0,-42.51968 z"
         id="path2794" />
      <g
         id="g10897"
         transform="translate(507.23948,165.96097)">
        <g
           aria-label="f"
           id="text10899"
           style="line-height:0%;font-family:Iwona;-inkscape-font-specification:Iwona;stroke-width:1px">
          <path
             d="m -137.50672,117.89484 0.224,-0.992 c -0.8,-0.8 -1.792,-1.408 -3.04,-1.408 -1.888,0 -3.2,2.176 -3.648,4.32 l -0.864,4 h -2.24 l -0.288,1.344 h 2.24 l -2.784,13.056 h 2.56 l 2.784,-13.056 h 2.336 l 0.288,-1.344 h -2.336 l 0.832,-4 c 0.32,-1.376 0.864,-2.848 2.016,-2.848 0.8,0 1.44,0.384 1.92,0.928 z"
             style="font-style:italic;font-size:32px;line-height:1.25"
             id="path483" />
        </g>
        <g
           aria-label="T"
           id="text10903"
           style="line-height:0%;font-family:Iwona;-inkscape-font-specification:Iwona;stroke-width:1px">
          <path
             d="m -128.13871,135.37795 v -0.92 h -11 v 0.92 h 4.68 v 13.08 h 1.64 v -13.08 z"
             style="font-size:20px;line-height:1.25"
             id="path486" />
        </g>
      </g>
    </g>
    <g
       id="g10925"
       transform="translate(28.346455,-17.716538)">
      <path
         id="path2796"
         d="m 642.00756,279.38063 c -10.62992,-17.71654 17.71654,-35.43307 35.43307,-17.71654 17.71654,-17.71653 46.063,0 35.43308,17.71654 21.25984,0 21.25984,42.51968 0,42.51968 10.62992,17.71654 -17.71654,35.43307 -35.43308,17.71654 -17.71653,17.71653 -46.06299,0 -35.43307,-17.71654 -21.25984,0 -21.25984,-42.51968 0,-42.51968 z"
         style="fill:#d5f6ff;fill-rule:evenodd;stroke:#000000;stroke-width:1px;stroke-linecap:butt;stroke-linejoin:miter;stroke-opacity:1" />
      <g
         id="g10915"
         transform="translate(814.33533,165.1322)">
        <g
           aria-label="f"
           id="text10917"
           style="line-height:0%;font-family:Iwona;-inkscape-font-specification:Iwona;stroke-width:1px">
          <path
             d="m -137.50672,117.89484 0.224,-0.992 c -0.8,-0.8 -1.792,-1.408 -3.04,-1.408 -1.888,0 -3.2,2.176 -3.648,4.32 l -0.864,4 h -2.24 l -0.288,1.344 h 2.24 l -2.784,13.056 h 2.56 l 2.784,-13.056 h 2.336 l 0.288,-1.344 h -2.336 l 0.832,-4 c 0.32,-1.376 0.864,-2.848 2.016,-2.848 0.8,0 1.44,0.384 1.92,0.928 z"
             style="font-style:italic;font-size:32px;line-height:1.25"
             id="path489" />
        </g>
        <g
           aria-label="Q"
           id="text10921"
           style="line-height:0%;font-family:Iwona;-inkscape-font-specification:Iwona;stroke-width:1px">
          <path
             d="m -125.83871,141.45795 c 0,-4.24 -2.2,-7.2 -6.24,-7.2 -4.06,0 -6.26,2.96 -6.26,7.2 0,4.24 2.2,7.2 6.26,7.2 0.14,1.62 1.48,2.86 3.12,2.86 1.02,0 1.3,-0.06 2.24,-0.48 v -0.6 c -0.46,0.26 -0.96,0.4 -1.5,0.4 -1.82,0 -2.54,-0.64 -2.56,-2.3 3.2,-0.56 4.94,-3.32 4.94,-7.08 z m -1.96,0 c 0,3.5 -1.16,6.28 -4.28,6.28 -3.14,0 -4.3,-2.78 -4.3,-6.28 0,-3.5 1.16,-6.28 4.3,-6.28 3.12,0 4.28,2.78 4.28,6.28 z"
             style="font-size:20px;line-height:1.25"
             id="path492" />
        </g>
      </g>
    </g>
    <g
       transform="translate(17.716531,-7.0866214)"
       id="g12500">
      <path
         style="fill:none;fill-rule:evenodd;stroke:#000000;stroke-width:1px;stroke-linecap:butt;stroke-linejoin:miter;stroke-opacity:1"
         d="m 63.779528,361.4173 h 7.086614 v -17.71653 h 17.716535 v 17.71653 h 17.716533 v -17.71653 h 17.71654 v 17.71653 h 17.71653 v -17.71653 h 7.08662"
         id="path10933"
         transform="translate(192.00756,88.042072)" />
      <path
         style="fill:none;fill-rule:evenodd;stroke:#ff0000;stroke-width:1px;stroke-linecap:butt;stroke-linejoin:miter;stroke-opacity:1;marker-end:url(#marker10197C)"
         d="m 70.866142,357.87399 v -7.08661"
         id="path10935"
         transform="translate(192.00756,88.042072)" />
      <path
         id="path12496"
         d="m 298.30677,445.91606 v -7.08661"
         style="fill:none;fill-rule:evenodd;stroke:#ff0000;stroke-width:1px;stroke-linecap:butt;stroke-linejoin:miter;stroke-opacity:1;marker-end:url(#marker10197I)" />
      <path
         style="fill:none;fill-rule:evenodd;stroke:#ff0000;stroke-width:1px;stroke-linecap:butt;stroke-linejoin:miter;stroke-opacity:1;marker-end:url(#marker10197E)"
         d="m 333.73984,445.91607 v -7.08661"
         id="path12498" />
    </g>
    <g
       id="g12522"
       transform="translate(28.346455,-17.716538)">
      <path
         style="fill:#ffd5f6;fill-rule:evenodd;stroke:#000000;stroke-width:1px;stroke-linecap:butt;stroke-linejoin:miter;stroke-opacity:1"
         d="m 581.77134,307.72709 17.71653,70.86614 h -14.17322 c -3.54331,0 -3.54331,3.54331 -3.54331,3.54331 v 28.34645 c 0,0 0,3.54331 3.44334,3.54331 h 88.68264 c 3.54331,0 3.54331,-3.54331 3.54331,-3.54331 v -28.34645 c 0,0 0,-3.54331 -3.54331,-3.54331 h -67.32283 z"
         id="path12514" />
      <g
         id="g12516"
         transform="translate(730.83119,266.24762)">
        <g
           aria-label="L'état courant"
           id="text12518"
           style="line-height:0%;font-family:Iwona;-inkscape-font-specification:Iwona;stroke-width:1px">
          <path
             d="m -136.84895,133.60545 v -0.644 h -4.452 v -9.156 h -1.148 v 9.8 z"
             style="font-size:14px;line-height:1.25"
             id="path495" />
          <path
             d="m -135.39297,127.08145 v -3.276 h -0.644 v 3.276 z"
             style="font-size:14px;line-height:1.25"
             id="path497" />
          <path
             d="m -128.67298,130.59545 v -0.14 c 0,-1.974 -1.078,-3.29 -2.702,-3.29 -1.638,0 -2.716,1.316 -2.716,3.29 0,1.974 1.078,3.29 2.716,3.29 0.7,0 1.386,-0.224 1.96,-0.63 v -0.588 c -0.658,0.42 -1.19,0.574 -1.96,0.574 -1.19,0 -1.484,-1.134 -1.484,-2.506 z m -1.232,-0.588 h -2.954 c 0,-1.12 0.476,-2.254 1.484,-2.254 0.994,0 1.47,1.134 1.47,2.254 z m 0.042,-6.202 h -1.26 c 0,0.938 -0.294,1.862 -0.84,2.618 h 0.588 c 0.742,-0.742 1.512,-1.568 1.512,-2.618 z"
             style="font-size:14px;line-height:1.25"
             id="path499" />
          <path
             d="m -123.885,133.11545 v -0.42 c -0.224,0.224 -0.49,0.406 -0.812,0.406 -0.504,0 -0.532,-0.658 -0.532,-1.246 v -3.962 h 1.344 v -0.588 h -1.344 v -2.1 h -0.658 c 0,1.12 -0.644,2.17 -1.666,2.17 v 0.518 h 1.232 v 3.962 c 0,0.924 0.294,1.89 1.092,1.89 0.518,0 0.966,-0.28 1.344,-0.63 z"
             style="font-size:14px;line-height:1.25"
             id="path501" />
          <path
             d="m -117.41702,133.60545 v -3.92 c 0,-1.316 -0.812,-2.52 -2.03,-2.52 -0.896,0 -1.736,0.308 -2.492,0.784 v 0.434 c 0.63,-0.35 1.33,-0.574 2.058,-0.574 0.868,0 1.372,0.924 1.372,1.876 v 0.252 c -0.546,-0.238 -1.134,-0.378 -1.722,-0.378 -1.498,0 -2.604,0.686 -2.604,2.1 0,1.344 0.98,2.086 2.394,2.086 0.714,0 1.372,-0.322 1.932,-0.77 v 0.63 z m -1.092,-1.218 c -0.42,0.42 -0.938,0.77 -1.54,0.77 -0.938,0 -1.554,-0.574 -1.554,-1.498 0,-0.854 0.7,-1.512 1.554,-1.512 0.532,0 1.064,0.14 1.54,0.378 z"
             style="font-size:14px;line-height:1.25"
             id="path503" />
          <path
             d="m -112.20903,133.11545 v -0.42 c -0.224,0.224 -0.49,0.406 -0.812,0.406 -0.504,0 -0.532,-0.658 -0.532,-1.246 v -3.962 h 1.344 v -0.588 h -1.344 v -2.1 h -0.658 c 0,1.12 -0.644,2.17 -1.666,2.17 v 0.518 h 1.232 v 3.962 c 0,0.924 0.294,1.89 1.092,1.89 0.518,0 0.966,-0.28 1.344,-0.63 z"
             style="font-size:14px;line-height:1.25"
             id="path505" />
          <path
             d="m -101.47107,128.76145 v -0.588 c -0.448,-0.63 -1.176,-1.008 -1.96,-1.008 -1.75,0 -2.926,1.316 -2.926,3.29 0,1.974 1.176,3.29 2.926,3.29 0.728,0 1.414,-0.364 1.82,-0.966 v -0.588 c -0.476,0.714 -0.966,0.966 -1.82,0.966 -1.008,0 -1.694,-1.078 -1.694,-2.702 0,-1.624 0.686,-2.702 1.694,-2.702 0.868,0 1.456,0.308 1.96,1.008 z"
             style="font-size:14px;line-height:1.25"
             id="path507" />
          <path
             d="m -94.933086,130.45545 c 0,-2.142 -0.952,-3.29 -2.702,-3.29 -1.764,0 -2.716004,1.148 -2.716004,3.29 0,2.142 0.952004,3.29 2.716004,3.29 1.75,0 2.702,-1.148 2.702,-3.29 z m -1.232,0 c 0,1.75 -0.518,2.702 -1.47,2.702 -0.966,0 -1.484,-0.952 -1.484,-2.702 0,-1.75 0.518,-2.702 1.484,-2.702 0.952,0 1.47,0.952 1.47,2.702 z"
             style="font-size:14px;line-height:1.25"
             id="path509" />
          <path
             d="m -88.04509,133.60545 v -6.3 h -1.092 v 4.942 c -0.476,0.476 -1.064,0.854 -1.722,0.854 -0.658,0 -1.162,-0.574 -1.162,-1.246 v -4.55 h -1.092 v 4.55 c 0,1.022 0.784,1.89 1.792,1.89 0.84,0 1.582,-0.476 2.184,-1.064 v 0.924 z"
             style="font-size:14px;line-height:1.25"
             id="path511" />
          <path
             d="m -82.319114,128.17345 v -0.868 c -0.154,-0.056 -0.322,-0.098 -0.476,-0.098 -0.784,0 -1.414,0.546 -1.918,1.148 v -1.05 h -1.092 v 6.3 h 1.092 v -4.662 c 0.42,-0.49 0.952,-0.91 1.596,-0.91 0.266,0 0.546,0.056 0.798,0.14 z"
             style="font-size:14px;line-height:1.25"
             id="path513" />
          <path
             d="m -76.159142,133.60545 v -3.92 c 0,-1.316 -0.812,-2.52 -2.03,-2.52 -0.896,0 -1.736,0.308 -2.492,0.784 v 0.434 c 0.63,-0.35 1.33,-0.574 2.058,-0.574 0.868,0 1.372,0.924 1.372,1.876 v 0.252 c -0.546,-0.238 -1.134,-0.378 -1.722,-0.378 -1.498,0 -2.604,0.686 -2.604,2.1 0,1.344 0.98,2.086 2.394,2.086 0.714,0 1.372,-0.322 1.932,-0.77 v 0.63 z m -1.092,-1.218 c -0.42,0.42 -0.938,0.77 -1.54,0.77 -0.938,0 -1.554,-0.574 -1.554,-1.498 0,-0.854 0.7,-1.512 1.554,-1.512 0.532,0 1.064,0.14 1.54,0.378 z"
             style="font-size:14px;line-height:1.25"
             id="path515" />
          <path
             d="m -68.851154,133.60545 v -4.55 c 0,-1.022 -0.784,-1.89 -1.792,-1.89 -0.84,0 -1.582,0.476 -2.184,1.064 v -0.924 h -1.092 v 6.3 h 1.092 v -4.942 c 0.476,-0.476 1.064,-0.854 1.722,-0.854 0.658,0 1.162,0.574 1.162,1.246 v 4.55 z"
             style="font-size:14px;line-height:1.25"
             id="path517" />
          <path
             d="m -63.713178,133.11545 v -0.42 c -0.224,0.224 -0.49,0.406 -0.812,0.406 -0.504,0 -0.532,-0.658 -0.532,-1.246 v -3.962 h 1.344 v -0.588 h -1.344 v -2.1 h -0.658 c 0,1.12 -0.644,2.17 -1.666,2.17 v 0.518 h 1.232 v 3.962 c 0,0.924 0.294,1.89 1.092,1.89 0.518,0 0.966,-0.28 1.344,-0.63 z"
             style="font-size:14px;line-height:1.25"
             id="path519" />
        </g>
      </g>
    </g>
    <g
       transform="translate(-216.14173,-28.346458)"
       id="g12528">
      <path
         id="path12530"
         d="m 680.98394,318.35701 -31.88976,60.23623 -63.77953,-10e-6 c -3.54331,0 -3.54331,3.54331 -3.54331,3.54331 v 28.34645 c 0,0 0,3.54331 3.44334,3.54331 h 88.68264 c 3.54331,0 3.54331,-3.54331 3.54331,-3.54331 v -28.34645 c 0,0 0,-3.54331 -3.54331,-3.54331 l -17.71653,10e-6 z"
         style="fill:#ffd5f6;fill-rule:evenodd;stroke:#000000;stroke-width:1px;stroke-linecap:butt;stroke-linejoin:miter;stroke-opacity:1" />
      <g
         transform="translate(730.83119,266.24762)"
         id="g12532">
        <g
           aria-label="L'état suivant"
           id="text12534"
           style="line-height:0%;font-family:Iwona;-inkscape-font-specification:Iwona;stroke-width:1px">
          <path
             d="m -136.84895,133.60545 v -0.644 h -4.452 v -9.156 h -1.148 v 9.8 z"
             style="font-size:14px;line-height:1.25"
             id="path522" />
          <path
             d="m -135.39297,127.08145 v -3.276 h -0.644 v 3.276 z"
             style="font-size:14px;line-height:1.25"
             id="path524" />
          <path
             d="m -128.67298,130.59545 v -0.14 c 0,-1.974 -1.078,-3.29 -2.702,-3.29 -1.638,0 -2.716,1.316 -2.716,3.29 0,1.974 1.078,3.29 2.716,3.29 0.7,0 1.386,-0.224 1.96,-0.63 v -0.588 c -0.658,0.42 -1.19,0.574 -1.96,0.574 -1.19,0 -1.484,-1.134 -1.484,-2.506 z m -1.232,-0.588 h -2.954 c 0,-1.12 0.476,-2.254 1.484,-2.254 0.994,0 1.47,1.134 1.47,2.254 z m 0.042,-6.202 h -1.26 c 0,0.938 -0.294,1.862 -0.84,2.618 h 0.588 c 0.742,-0.742 1.512,-1.568 1.512,-2.618 z"
             style="font-size:14px;line-height:1.25"
             id="path526" />
          <path
             d="m -123.885,133.11545 v -0.42 c -0.224,0.224 -0.49,0.406 -0.812,0.406 -0.504,0 -0.532,-0.658 -0.532,-1.246 v -3.962 h 1.344 v -0.588 h -1.344 v -2.1 h -0.658 c 0,1.12 -0.644,2.17 -1.666,2.17 v 0.518 h 1.232 v 3.962 c 0,0.924 0.294,1.89 1.092,1.89 0.518,0 0.966,-0.28 1.344,-0.63 z"
             style="font-size:14px;line-height:1.25"
             id="path528" />
          <path
             d="m -117.41702,133.60545 v -3.92 c 0,-1.316 -0.812,-2.52 -2.03,-2.52 -0.896,0 -1.736,0.308 -2.492,0.784 v 0.434 c 0.63,-0.35 1.33,-0.574 2.058,-0.574 0.868,0 1.372,0.924 1.372,1.876 v 0.252 c -0.546,-0.238 -1.134,-0.378 -1.722,-0.378 -1.498,0 -2.604,0.686 -2.604,2.1 0,1.344 0.98,2.086 2.394,2.086 0.714,0 1.372,-0.322 1.932,-0.77 v 0.63 z m -1.092,-1.218 c -0.42,0.42 -0.938,0.77 -1.54,0.77 -0.938,0 -1.554,-0.574 -1.554,-1.498 0,-0.854 0.7,-1.512 1.554,-1.512 0.532,0 1.064,0.14 1.54,0.378 z"
             style="font-size:14px;line-height:1.25"
             id="path530" />
          <path
             d="m -112.20903,133.11545 v -0.42 c -0.224,0.224 -0.49,0.406 -0.812,0.406 -0.504,0 -0.532,-0.658 -0.532,-1.246 v -3.962 h 1.344 v -0.588 h -1.344 v -2.1 h -0.658 c 0,1.12 -0.644,2.17 -1.666,2.17 v 0.518 h 1.232 v 3.962 c 0,0.924 0.294,1.89 1.092,1.89 0.518,0 0.966,-0.28 1.344,-0.63 z"
             style="font-size:14px;line-height:1.25"
             id="path532" />
          <path
             d="m -101.75107,131.81345 c 0,-1.106 -1.176,-1.68 -2.324,-1.96 -0.672,-0.168 -1.4,-0.448 -1.4,-1.106 0,-0.602 0.616,-0.994 1.288,-0.994 0.742,0 1.484,0.224 2.1,0.63 v -0.588 c -0.616,-0.406 -1.358,-0.63 -2.1,-0.63 -1.218,0 -2.338,0.742 -2.338,1.876 0,1.022 1.134,1.498 2.212,1.764 0.742,0.182 1.512,0.574 1.512,1.288 0,0.658 -0.672,1.064 -1.386,1.064 -0.868,0 -1.708,-0.21 -2.45,-0.63 v 0.588 c 0.742,0.42 1.582,0.63 2.45,0.63 1.26,0 2.436,-0.756 2.436,-1.932 z"
             style="font-size:14px;line-height:1.25"
             id="path534" />
          <path
             d="m -95.003086,133.60545 v -6.3 h -1.092 v 4.942 c -0.476,0.476 -1.064,0.854 -1.722,0.854 -0.658,0 -1.162,-0.574 -1.162,-1.246 v -4.55 h -1.092004 v 4.55 c 0,1.022 0.784004,1.89 1.792004,1.89 0.84,0 1.582,-0.476 2.184,-1.064 v 0.924 z"
             style="font-size:14px;line-height:1.25"
             id="path536" />
          <path
             d="m -90.20111,133.11545 v -0.42 c -0.266,0.224 -0.574,0.406 -0.924,0.406 -0.518,0 -0.616,-0.644 -0.616,-1.246 v -4.55 h -1.092 v 4.55 c 0,0.938 0.364,1.89 1.19,1.89 0.532,0 1.036,-0.266 1.442,-0.63 z m -1.4,-7.994 c 0,-0.378 -0.308,-0.686 -0.686,-0.686 -0.378,0 -0.686,0.308 -0.686,0.686 0,0.378 0.308,0.686 0.686,0.686 0.378,0 0.686,-0.308 0.686,-0.686 z"
             style="font-size:14px;line-height:1.25"
             id="path538" />
          <path
             d="m -84.363124,127.30545 h -0.63 l -1.904,5.236 -1.848,-5.236 h -1.036 l 2.212,6.3 h 0.91 z"
             style="font-size:14px;line-height:1.25"
             id="path540" />
          <path
             d="m -78.175129,133.60545 v -3.92 c 0,-1.316 -0.812,-2.52 -2.03,-2.52 -0.896,0 -1.736,0.308 -2.492,0.784 v 0.434 c 0.63,-0.35 1.33,-0.574 2.058,-0.574 0.868,0 1.372,0.924 1.372,1.876 v 0.252 c -0.546,-0.238 -1.134,-0.378 -1.722,-0.378 -1.498,0 -2.604,0.686 -2.604,2.1 0,1.344 0.98,2.086 2.394,2.086 0.714,0 1.372,-0.322 1.932,-0.77 v 0.63 z m -1.092,-1.218 c -0.42,0.42 -0.938,0.77 -1.54,0.77 -0.938,0 -1.554,-0.574 -1.554,-1.498 0,-0.854 0.7,-1.512 1.554,-1.512 0.532,0 1.064,0.14 1.54,0.378 z"
             style="font-size:14px;line-height:1.25"
             id="path542" />
          <path
             d="m -70.867145,133.60545 v -4.55 c 0,-1.022 -0.784,-1.89 -1.792,-1.89 -0.84,0 -1.582,0.476 -2.184,1.064 v -0.924 h -1.092 v 6.3 h 1.092 v -4.942 c 0.476,-0.476 1.064,-0.854 1.722,-0.854 0.658,0 1.162,0.574 1.162,1.246 v 4.55 z"
             style="font-size:14px;line-height:1.25"
             id="path544" />
          <path
             d="m -65.729169,133.11545 v -0.42 c -0.224,0.224 -0.49,0.406 -0.812,0.406 -0.504,0 -0.532,-0.658 -0.532,-1.246 v -3.962 h 1.344 v -0.588 h -1.344 v -2.1 h -0.658 c 0,1.12 -0.644,2.17 -1.666,2.17 v 0.518 h 1.232 v 3.962 c 0,0.924 0.294,1.89 1.092,1.89 0.518,0 0.966,-0.28 1.344,-0.63 z"
             style="font-size:14px;line-height:1.25"
             id="path546" />
        </g>
      </g>
    </g>
    <g
       id="g12538"
       transform="translate(-136.31326,53.149604)">
      <path
         style="fill:#ffd5f6;fill-rule:evenodd;stroke:#000000;stroke-width:1px;stroke-linecap:butt;stroke-linejoin:miter;stroke-opacity:1"
         d="m 625.95862,318.35701 23.13556,60.23623 -65.65525,-10e-6 c -3.54331,0 -3.54331,3.54331 -3.54331,3.54331 l -0.0181,31.88976 c 0,0 0,3.54331 3.44334,3.54331 h 194.98186 c 3.54331,0 3.54331,-3.54331 3.54331,-3.54331 l 0.0181,-31.88976 c 0,0 0,-3.54331 -3.54331,-3.54331 l -122.14003,10e-6 z"
         id="path12540" />
      <g
         id="g12542"
         transform="translate(729.92582,259.16101)">
        <g
           aria-label="Les changements d'état se font
au rythme d'un signal d'horloge."
           id="text12544"
           style="line-height:0%;font-family:Iwona;-inkscape-font-specification:Iwona">
          <path
             d="m -136.84895,133.60545 v -0.644 h -4.452 v -9.156 h -1.148 v 9.8 z"
             style="font-size:14px;line-height:1.25"
             id="path549" />
          <path
             d="m -130.633,130.59545 v -0.14 c 0,-1.974 -1.078,-3.29 -2.702,-3.29 -1.638,0 -2.716,1.316 -2.716,3.29 0,1.974 1.078,3.29 2.716,3.29 0.7,0 1.386,-0.224 1.96,-0.63 v -0.588 c -0.658,0.42 -1.19,0.574 -1.96,0.574 -1.19,0 -1.484,-1.134 -1.484,-2.506 z m -1.232,-0.588 h -2.954 c 0,-1.12 0.476,-2.254 1.484,-2.254 0.994,0 1.47,1.134 1.47,2.254 z"
             style="font-size:14px;line-height:1.25"
             id="path551" />
          <path
             d="m -124.55701,131.81345 c 0,-1.106 -1.176,-1.68 -2.324,-1.96 -0.672,-0.168 -1.4,-0.448 -1.4,-1.106 0,-0.602 0.616,-0.994 1.288,-0.994 0.742,0 1.484,0.224 2.1,0.63 v -0.588 c -0.616,-0.406 -1.358,-0.63 -2.1,-0.63 -1.218,0 -2.338,0.742 -2.338,1.876 0,1.022 1.134,1.498 2.212,1.764 0.742,0.182 1.512,0.574 1.512,1.288 0,0.658 -0.672,1.064 -1.386,1.064 -0.868,0 -1.708,-0.21 -2.45,-0.63 v 0.588 c 0.742,0.42 1.582,0.63 2.45,0.63 1.26,0 2.436,-0.756 2.436,-1.932 z"
             style="font-size:14px;line-height:1.25"
             id="path553" />
          <path
             d="m -113.60905,128.76145 v -0.588 c -0.448,-0.63 -1.176,-1.008 -1.96,-1.008 -1.75,0 -2.926,1.316 -2.926,3.29 0,1.974 1.176,3.29 2.926,3.29 0.728,0 1.414,-0.364 1.82,-0.966 v -0.588 c -0.476,0.714 -0.966,0.966 -1.82,0.966 -1.008,0 -1.694,-1.078 -1.694,-2.702 0,-1.624 0.686,-2.702 1.694,-2.702 0.868,0 1.456,0.308 1.96,1.008 z"
             style="font-size:14px;line-height:1.25"
             id="path555" />
          <path
             d="m -107.07107,133.60545 v -4.55 c 0,-1.022 -0.784,-1.89 -1.792,-1.89 -0.84,0 -1.582,0.476 -2.184,1.064 v -4.424 h -1.092 v 9.8 h 1.092 v -4.942 c 0.476,-0.476 1.064,-0.854 1.722,-0.854 0.658,0 1.162,0.574 1.162,1.246 v 4.55 z"
             style="font-size:14px;line-height:1.25"
             id="path557" />
          <path
             d="m -99.973091,133.60545 v -3.92 c 0,-1.316 -0.811999,-2.52 -2.029999,-2.52 -0.896,0 -1.736,0.308 -2.492,0.784 v 0.434 c 0.63,-0.35 1.33,-0.574 2.058,-0.574 0.868,0 1.372,0.924 1.372,1.876 v 0.252 c -0.546,-0.238 -1.134,-0.378 -1.722,-0.378 -1.498,0 -2.604,0.686 -2.604,2.1 0,1.344 0.98,2.086 2.394,2.086 0.714,0 1.372,-0.322 1.932,-0.77 v 0.63 z m -1.091999,-1.218 c -0.42,0.42 -0.938,0.77 -1.54,0.77 -0.938,0 -1.554,-0.574 -1.554,-1.498 0,-0.854 0.7,-1.512 1.554,-1.512 0.532,0 1.064,0.14 1.54,0.378 z"
             style="font-size:14px;line-height:1.25"
             id="path559" />
          <path
             d="m -92.665104,133.60545 v -4.55 c 0,-1.022 -0.784,-1.89 -1.792,-1.89 -0.84,0 -1.582,0.476 -2.184,1.064 v -0.924 h -1.092 v 6.3 h 1.092 v -4.942 c 0.476,-0.476 1.064,-0.854 1.722,-0.854 0.658,0 1.162,0.574 1.162,1.246 v 4.55 z"
             style="font-size:14px;line-height:1.25"
             id="path561" />
          <path
             d="m -85.427128,134.44545 v -7.14 h -1.092 v 0.238 c -0.546,-0.238 -1.134,-0.378 -1.722,-0.378 -1.75,0 -2.604,1.4 -2.604,3.29 0,1.862 0.7,3.29 2.394,3.29 0.714,0 1.372,-0.322 1.932,-0.77 v 1.47 c 0,0.966 -0.532,1.876 -1.4,1.876 -0.714,0 -1.428,-0.14 -2.1,-0.378 v 0.434 c 0.784,0.364 1.652,0.588 2.52,0.588 1.232,0 2.072,-1.204 2.072,-2.52 z m -1.092,-2.058 c -0.42,0.42 -0.938,0.77 -1.54,0.77 -1.274,0 -1.554,-1.232 -1.554,-2.702 0,-1.316 0.406,-2.702 1.554,-2.702 0.532,0 1.064,0.14 1.54,0.378 z"
             style="font-size:14px;line-height:1.25"
             id="path563" />
          <path
             d="m -78.119137,130.59545 v -0.14 c 0,-1.974 -1.078,-3.29 -2.702,-3.29 -1.638,0 -2.716,1.316 -2.716,3.29 0,1.974 1.078,3.29 2.716,3.29 0.7,0 1.386,-0.224 1.96,-0.63 v -0.588 c -0.658,0.42 -1.19,0.574 -1.96,0.574 -1.19,0 -1.484,-1.134 -1.484,-2.506 z m -1.232,-0.588 h -2.954 c 0,-1.12 0.476,-2.254 1.484,-2.254 0.994,0 1.47,1.134 1.47,2.254 z"
             style="font-size:14px;line-height:1.25"
             id="path565" />
          <path
             d="m -68.655159,133.60545 v -4.55 c 0,-0.98 -0.574,-1.89 -1.484,-1.89 -0.784,0 -1.512,0.406 -1.932,1.064 -0.224,-0.616 -0.7,-1.064 -1.344,-1.064 -0.728,0 -1.316,0.504 -1.792,1.064 v -0.924 h -1.092 v 6.3 h 1.092 v -4.956 c 0.336,-0.434 0.756,-0.84 1.302,-0.84 0.574,0 0.882,0.616 0.882,1.246 v 4.55 h 1.092 v -4.55 c 0,-0.168 -0.014,-0.322 -0.042,-0.49 0.336,-0.434 0.798,-0.756 1.344,-0.756 0.574,0 0.882,0.616 0.882,1.246 v 4.55 z"
             style="font-size:14px;line-height:1.25"
             id="path567" />
          <path
             d="m -61.417179,130.59545 v -0.14 c 0,-1.974 -1.078,-3.29 -2.702,-3.29 -1.638,0 -2.716,1.316 -2.716,3.29 0,1.974 1.078,3.29 2.716,3.29 0.7,0 1.386,-0.224 1.96,-0.63 v -0.588 c -0.658,0.42 -1.19,0.574 -1.96,0.574 -1.19,0 -1.484,-1.134 -1.484,-2.506 z m -1.232,-0.588 h -2.954 c 0,-1.12 0.476,-2.254 1.484,-2.254 0.994,0 1.47,1.134 1.47,2.254 z"
             style="font-size:14px;line-height:1.25"
             id="path569" />
          <path
             d="m -54.529194,133.60545 v -4.55 c 0,-1.022 -0.784,-1.89 -1.792,-1.89 -0.84,0 -1.582,0.476 -2.184,1.064 v -0.924 h -1.092 v 6.3 h 1.092 v -4.942 c 0.476,-0.476 1.064,-0.854 1.722,-0.854 0.658,0 1.162,0.574 1.162,1.246 v 4.55 z"
             style="font-size:14px;line-height:1.25"
             id="path571" />
          <path
             d="m -49.391218,133.11545 v -0.42 c -0.224,0.224 -0.49,0.406 -0.812,0.406 -0.504,0 -0.532,-0.658 -0.532,-1.246 v -3.962 h 1.344 v -0.588 h -1.344 v -2.1 h -0.658 c 0,1.12 -0.644,2.17 -1.666,2.17 v 0.518 h 1.232 v 3.962 c 0,0.924 0.294,1.89 1.092,1.89 0.518,0 0.966,-0.28 1.344,-0.63 z"
             style="font-size:14px;line-height:1.25"
             id="path573" />
          <path
             d="m -43.595237,131.81345 c 0,-1.106 -1.176,-1.68 -2.324,-1.96 -0.672,-0.168 -1.4,-0.448 -1.4,-1.106 0,-0.602 0.616,-0.994 1.288,-0.994 0.742,0 1.484,0.224 2.1,0.63 v -0.588 c -0.616,-0.406 -1.358,-0.63 -2.1,-0.63 -1.218,0 -2.338,0.742 -2.338,1.876 0,1.022 1.134,1.498 2.212,1.764 0.742,0.182 1.512,0.574 1.512,1.288 0,0.658 -0.672,1.064 -1.386,1.064 -0.868,0 -1.708,-0.21 -2.45,-0.63 v 0.588 c 0.742,0.42 1.582,0.63 2.45,0.63 1.26,0 2.436,-0.756 2.436,-1.932 z"
             style="font-size:14px;line-height:1.25"
             id="path575" />
          <path
             d="m -32.115284,133.60545 v -9.8 h -1.092 v 3.738 c -0.546,-0.238 -1.134,-0.378 -1.722,-0.378 -1.75,0 -2.604,1.4 -2.604,3.29 0,1.862 0.7,3.29 2.394,3.29 0.714,0 1.372,-0.322 1.932,-0.77 v 0.63 z m -1.092,-1.218 c -0.42,0.42 -0.938,0.77 -1.54,0.77 -1.274,0 -1.554,-1.232 -1.554,-2.702 0,-1.316 0.406,-2.702 1.554,-2.702 0.532,0 1.064,0.14 1.54,0.378 z"
             style="font-size:14px;line-height:1.25"
             id="path577" />
          <path
             d="m -29.819285,127.08145 v -3.276 h -0.644 v 3.276 z"
             style="font-size:14px;line-height:1.25"
             id="path579" />
          <path
             d="m -23.099292,130.59545 v -0.14 c 0,-1.974 -1.078,-3.29 -2.702,-3.29 -1.638,0 -2.716,1.316 -2.716,3.29 0,1.974 1.078,3.29 2.716,3.29 0.7,0 1.386,-0.224 1.96,-0.63 v -0.588 c -0.658,0.42 -1.19,0.574 -1.96,0.574 -1.19,0 -1.484,-1.134 -1.484,-2.506 z m -1.232,-0.588 h -2.954 c 0,-1.12 0.476,-2.254 1.484,-2.254 0.994,0 1.47,1.134 1.47,2.254 z m 0.042,-6.202 h -1.26 c 0,0.938 -0.294,1.862 -0.84,2.618 h 0.588 c 0.742,-0.742 1.512,-1.568 1.512,-2.618 z"
             style="font-size:14px;line-height:1.25"
             id="path581" />
          <path
             d="m -18.311307,133.11545 v -0.42 c -0.224,0.224 -0.49,0.406 -0.812,0.406 -0.504,0 -0.532,-0.658 -0.532,-1.246 v -3.962 h 1.344 v -0.588 h -1.344 v -2.1 h -0.658 c 0,1.12 -0.644,2.17 -1.666,2.17 v 0.518 h 1.232 v 3.962 c 0,0.924 0.294,1.89 1.092,1.89 0.518,0 0.966,-0.28 1.344,-0.63 z"
             style="font-size:14px;line-height:1.25"
             id="path583" />
          <path
             d="m -11.843327,133.60545 v -3.92 c 0,-1.316 -0.812,-2.52 -2.03,-2.52 -0.896,0 -1.736,0.308 -2.492,0.784 v 0.434 c 0.63,-0.35 1.33,-0.574 2.058,-0.574 0.868,0 1.372,0.924 1.372,1.876 v 0.252 c -0.546,-0.238 -1.134,-0.378 -1.722,-0.378 -1.498,0 -2.604,0.686 -2.604,2.1 0,1.344 0.98,2.086 2.394,2.086 0.714,0 1.372,-0.322 1.932,-0.77 v 0.63 z m -1.092,-1.218 c -0.42,0.42 -0.938,0.77 -1.54,0.77 -0.938,0 -1.554,-0.574 -1.554,-1.498 0,-0.854 0.7,-1.512 1.554,-1.512 0.532,0 1.064,0.14 1.54,0.378 z"
             style="font-size:14px;line-height:1.25"
             id="path585" />
          <path
             d="m -6.6353429,133.11545 v -0.42 c -0.224,0.224 -0.49,0.406 -0.812,0.406 -0.504,0 -0.532,-0.658 -0.532,-1.246 v -3.962 h 1.344 v -0.588 h -1.344 v -2.1 h -0.658 c 0,1.12 -0.644,2.17 -1.6660001,2.17 v 0.518 h 1.2320001 v 3.962 c 0,0.924 0.294,1.89 1.092,1.89 0.518,0 0.966,-0.28 1.344,-0.63 z"
             style="font-size:14px;line-height:1.25"
             id="path587" />
          <path
             d="m 3.8226095,131.81345 c 0,-1.106 -1.176,-1.68 -2.324,-1.96 -0.672,-0.168 -1.4,-0.448 -1.4,-1.106 0,-0.602 0.616,-0.994 1.288,-0.994 0.742,0 1.484,0.224 2.1,0.63 v -0.588 c -0.616,-0.406 -1.358,-0.63 -2.1,-0.63 -1.218,0 -2.338,0.742 -2.338,1.876 0,1.022 1.134,1.498 2.212,1.764 0.742,0.182 1.512,0.574 1.512,1.288 0,0.658 -0.672,1.064 -1.386,1.064 -0.868,0 -1.708,-0.21 -2.45,-0.63 v 0.588 c 0.742,0.42 1.582,0.63 2.45,0.63 1.26,0 2.436,-0.756 2.436,-1.932 z"
             style="font-size:14px;line-height:1.25"
             id="path589" />
          <path
             d="m 10.640591,130.59545 v -0.14 c 0,-1.974 -1.0780001,-3.29 -2.7020001,-3.29 -1.638,0 -2.716,1.316 -2.716,3.29 0,1.974 1.078,3.29 2.716,3.29 0.7,0 1.386,-0.224 1.96,-0.63 v -0.588 c -0.658,0.42 -1.19,0.574 -1.96,0.574 -1.19,0 -1.484,-1.134 -1.484,-2.506 z m -1.2320001,-0.588 h -2.954 c 0,-1.12 0.476,-2.254 1.484,-2.254 0.994,0 1.47,1.134 1.47,2.254 z"
             style="font-size:14px;line-height:1.25"
             id="path591" />
          <path
             d="m 19.922548,124.71545 v -0.434 c -0.42,-0.35 -0.924,-0.616 -1.47,-0.616 -0.812,0 -1.19,0.952 -1.19,1.89 v 1.75 h -0.98 v 0.588 h 0.98 v 5.712 h 1.092 v -5.712 h 0.98 v -0.588 h -0.98 v -1.75 c 0,-0.602 0.112,-1.246 0.63,-1.246 0.35,0 0.672,0.168 0.938,0.406 z"
             style="font-size:14px;line-height:1.25"
             id="path593" />
          <path
             d="m 25.802548,130.45545 c 0,-2.142 -0.952,-3.29 -2.702,-3.29 -1.764,0 -2.716,1.148 -2.716,3.29 0,2.142 0.952,3.29 2.716,3.29 1.75,0 2.702,-1.148 2.702,-3.29 z m -1.232,0 c 0,1.75 -0.518,2.702 -1.47,2.702 -0.966,0 -1.484,-0.952 -1.484,-2.702 0,-1.75 0.518,-2.702 1.484,-2.702 0.952,0 1.47,0.952 1.47,2.702 z"
             style="font-size:14px;line-height:1.25"
             id="path595" />
          <path
             d="m 32.76054,133.60545 v -4.55 c 0,-1.022 -0.784,-1.89 -1.792,-1.89 -0.84,0 -1.582,0.476 -2.184,1.064 v -0.924 h -1.092 v 6.3 h 1.092 v -4.942 c 0.476,-0.476 1.064,-0.854 1.722,-0.854 0.658,0 1.162,0.574 1.162,1.246 v 4.55 z"
             style="font-size:14px;line-height:1.25"
             id="path597" />
          <path
             d="m 37.898516,133.11545 v -0.42 c -0.224,0.224 -0.49,0.406 -0.812,0.406 -0.504,0 -0.532,-0.658 -0.532,-1.246 v -3.962 h 1.344 v -0.588 h -1.344 v -2.1 h -0.658 c 0,1.12 -0.644,2.17 -1.666,2.17 v 0.518 h 1.232 v 3.962 c 0,0.924 0.294,1.89 1.092,1.89 0.518,0 0.966,-0.28 1.344,-0.63 z"
             style="font-size:14px;line-height:1.25"
             id="path599" />
          <path
             d="m -137.80095,151.10545 v -3.92 c 0,-1.316 -0.812,-2.52 -2.03,-2.52 -0.896,0 -1.736,0.308 -2.492,0.784 v 0.434 c 0.63,-0.35 1.33,-0.574 2.058,-0.574 0.868,0 1.372,0.924 1.372,1.876 v 0.252 c -0.546,-0.238 -1.134,-0.378 -1.722,-0.378 -1.498,0 -2.604,0.686 -2.604,2.1 0,1.344 0.98,2.086 2.394,2.086 0.714,0 1.372,-0.322 1.932,-0.77 v 0.63 z m -1.092,-1.218 c -0.42,0.42 -0.938,0.77 -1.54,0.77 -0.938,0 -1.554,-0.574 -1.554,-1.498 0,-0.854 0.7,-1.512 1.554,-1.512 0.532,0 1.064,0.14 1.54,0.378 z"
             style="font-size:14px;line-height:1.25"
             id="path601" />
          <path
             d="m -130.56297,151.10545 v -6.3 h -1.092 v 4.942 c -0.476,0.476 -1.064,0.854 -1.722,0.854 -0.658,0 -1.162,-0.574 -1.162,-1.246 v -4.55 h -1.092 v 4.55 c 0,1.022 0.784,1.89 1.792,1.89 0.84,0 1.582,-0.476 2.184,-1.064 v 0.924 z"
             style="font-size:14px;line-height:1.25"
             id="path603" />
          <path
             d="m -120.17501,145.67345 v -0.868 c -0.154,-0.056 -0.322,-0.098 -0.476,-0.098 -0.784,0 -1.414,0.546 -1.918,1.148 v -1.05 h -1.092 v 6.3 h 1.092 v -4.662 c 0.42,-0.49 0.952,-0.91 1.596,-0.91 0.266,0 0.546,0.056 0.798,0.14 z"
             style="font-size:14px;line-height:1.25"
             id="path605" />
          <path
             d="m -113.77703,151.94545 v -7.14 h -1.092 v 4.942 c -0.476,0.476 -1.064,0.854 -1.722,0.854 -0.658,0 -1.162,-0.574 -1.162,-1.246 v -4.55 h -1.092 v 4.55 c 0,1.022 0.784,1.89 1.792,1.89 0.84,0 1.582,-0.476 2.184,-1.064 v 1.764 c 0,0.938 -0.42,1.876 -1.26,1.876 -0.658,0 -1.288,-0.14 -1.89,-0.378 v 0.434 c 0.714,0.364 1.512,0.588 2.324,0.588 1.19,0 1.918,-1.232 1.918,-2.52 z"
             style="font-size:14px;line-height:1.25"
             id="path607" />
          <path
             d="m -108.56905,150.61545 v -0.42 c -0.224,0.224 -0.49,0.406 -0.812,0.406 -0.504,0 -0.532,-0.658 -0.532,-1.246 v -3.962 h 1.344 v -0.588 h -1.344 v -2.1 h -0.658 c 0,1.12 -0.644,2.17 -1.666,2.17 v 0.518 h 1.232 v 3.962 c 0,0.924 0.294,1.89 1.092,1.89 0.518,0 0.966,-0.28 1.344,-0.63 z"
             style="font-size:14px;line-height:1.25"
             id="path609" />
          <path
             d="m -101.96107,151.10545 v -4.55 c 0,-1.022 -0.784,-1.89 -1.792,-1.89 -0.84,0 -1.582,0.476 -2.184,1.064 v -4.424 h -1.092 v 9.8 h 1.092 v -4.942 c 0.476,-0.476 1.064,-0.854 1.722,-0.854 0.658,0 1.162,0.574 1.162,1.246 v 4.55 z"
             style="font-size:14px;line-height:1.25"
             id="path611" />
          <path
             d="m -92.147095,151.10545 v -4.55 c 0,-0.98 -0.574,-1.89 -1.484,-1.89 -0.784,0 -1.512,0.406 -1.932,1.064 -0.224,-0.616 -0.7,-1.064 -1.344,-1.064 -0.728,0 -1.316,0.504 -1.792,1.064 v -0.924 h -1.092 v 6.3 h 1.092 v -4.956 c 0.336,-0.434 0.756,-0.84 1.302,-0.84 0.574,0 0.882,0.616 0.882,1.246 v 4.55 h 1.092 v -4.55 c 0,-0.168 -0.014,-0.322 -0.042,-0.49 0.336,-0.434 0.798,-0.756 1.344,-0.756 0.574,0 0.882,0.616 0.882,1.246 v 4.55 z"
             style="font-size:14px;line-height:1.25"
             id="path613" />
          <path
             d="m -84.909118,148.09545 v -0.14 c 0,-1.974 -1.078,-3.29 -2.702,-3.29 -1.638,0 -2.716,1.316 -2.716,3.29 0,1.974 1.078,3.29 2.716,3.29 0.7,0 1.386,-0.224 1.96,-0.63 v -0.588 c -0.658,0.42 -1.19,0.574 -1.96,0.574 -1.19,0 -1.484,-1.134 -1.484,-2.506 z m -1.232,-0.588 h -2.954 c 0,-1.12 0.476,-2.254 1.484,-2.254 0.994,0 1.47,1.134 1.47,2.254 z"
             style="font-size:14px;line-height:1.25"
             id="path615" />
          <path
             d="m -73.359165,151.10545 v -9.8 h -1.092 v 3.738 c -0.546,-0.238 -1.134,-0.378 -1.722,-0.378 -1.75,0 -2.604,1.4 -2.604,3.29 0,1.862 0.7,3.29 2.394,3.29 0.714,0 1.372,-0.322 1.932,-0.77 v 0.63 z m -1.092,-1.218 c -0.42,0.42 -0.938,0.77 -1.54,0.77 -1.274,0 -1.554,-1.232 -1.554,-2.702 0,-1.316 0.406,-2.702 1.554,-2.702 0.532,0 1.064,0.14 1.54,0.378 z"
             style="font-size:14px;line-height:1.25"
             id="path617" />
          <path
             d="m -71.063166,144.58145 v -3.276 h -0.644 v 3.276 z"
             style="font-size:14px;line-height:1.25"
             id="path619" />
          <path
             d="m -64.413174,151.10545 v -6.3 h -1.092 v 4.942 c -0.476,0.476 -1.064,0.854 -1.722,0.854 -0.658,0 -1.162,-0.574 -1.162,-1.246 v -4.55 h -1.092 v 4.55 c 0,1.022 0.784,1.89 1.792,1.89 0.84,0 1.582,-0.476 2.184,-1.064 v 0.924 z"
             style="font-size:14px;line-height:1.25"
             id="path621" />
          <path
             d="m -57.105198,151.10545 v -4.55 c 0,-1.022 -0.784,-1.89 -1.792,-1.89 -0.84,0 -1.582,0.476 -2.184,1.064 v -0.924 h -1.092 v 6.3 h 1.092 v -4.942 c 0.476,-0.476 1.064,-0.854 1.722,-0.854 0.658,0 1.162,0.574 1.162,1.246 v 4.55 z"
             style="font-size:14px;line-height:1.25"
             id="path623" />
          <path
             d="m -46.01725,149.31345 c 0,-1.106 -1.176,-1.68 -2.324,-1.96 -0.672,-0.168 -1.4,-0.448 -1.4,-1.106 0,-0.602 0.616,-0.994 1.288,-0.994 0.742,0 1.484,0.224 2.1,0.63 v -0.588 c -0.616,-0.406 -1.358,-0.63 -2.1,-0.63 -1.218,0 -2.338,0.742 -2.338,1.876 0,1.022 1.134,1.498 2.212,1.764 0.742,0.182 1.512,0.574 1.512,1.288 0,0.658 -0.672,1.064 -1.386,1.064 -0.868,0 -1.708,-0.21 -2.45,-0.63 v 0.588 c 0.742,0.42 1.582,0.63 2.45,0.63 1.26,0 2.436,-0.756 2.436,-1.932 z"
             style="font-size:14px;line-height:1.25"
             id="path625" />
          <path
             d="m -41.70526,150.61545 v -0.42 c -0.266,0.224 -0.574,0.406 -0.924,0.406 -0.518,0 -0.616,-0.644 -0.616,-1.246 v -4.55 h -1.092 v 4.55 c 0,0.938 0.364,1.89 1.19,1.89 0.532,0 1.036,-0.266 1.442,-0.63 z m -1.4,-7.994 c 0,-0.378 -0.308,-0.686 -0.686,-0.686 -0.378,0 -0.686,0.308 -0.686,0.686 0,0.378 0.308,0.686 0.686,0.686 0.378,0 0.686,-0.308 0.686,-0.686 z"
             style="font-size:14px;line-height:1.25"
             id="path627" />
          <path
             d="m -35.237278,151.94545 v -7.14 h -1.092 v 0.238 c -0.546,-0.238 -1.134,-0.378 -1.722,-0.378 -1.75,0 -2.604,1.4 -2.604,3.29 0,1.862 0.7,3.29 2.394,3.29 0.714,0 1.372,-0.322 1.932,-0.77 v 1.47 c 0,0.966 -0.532,1.876 -1.4,1.876 -0.714,0 -1.428,-0.14 -2.1,-0.378 v 0.434 c 0.784,0.364 1.652,0.588 2.52,0.588 1.232,0 2.072,-1.204 2.072,-2.52 z m -1.092,-2.058 c -0.42,0.42 -0.938,0.77 -1.54,0.77 -1.274,0 -1.554,-1.232 -1.554,-2.702 0,-1.316 0.406,-2.702 1.554,-2.702 0.532,0 1.064,0.14 1.54,0.378 z"
             style="font-size:14px;line-height:1.25"
             id="path629" />
          <path
             d="m -27.929279,151.10545 v -4.55 c 0,-1.022 -0.784,-1.89 -1.792,-1.89 -0.84,0 -1.582,0.476 -2.184,1.064 v -0.924 h -1.092 v 6.3 h 1.092 v -4.942 c 0.476,-0.476 1.064,-0.854 1.722,-0.854 0.658,0 1.162,0.574 1.162,1.246 v 4.55 z"
             style="font-size:14px;line-height:1.25"
             id="path631" />
          <path
             d="m -20.831303,151.10545 v -3.92 c 0,-1.316 -0.812,-2.52 -2.03,-2.52 -0.896,0 -1.736,0.308 -2.492,0.784 v 0.434 c 0.63,-0.35 1.33,-0.574 2.058,-0.574 0.868,0 1.372,0.924 1.372,1.876 v 0.252 c -0.546,-0.238 -1.134,-0.378 -1.722,-0.378 -1.498,0 -2.604,0.686 -2.604,2.1 0,1.344 0.98,2.086 2.394,2.086 0.714,0 1.372,-0.322 1.932,-0.77 v 0.63 z m -1.092,-1.218 c -0.42,0.42 -0.938,0.77 -1.54,0.77 -0.938,0 -1.554,-0.574 -1.554,-1.498 0,-0.854 0.7,-1.512 1.554,-1.512 0.532,0 1.064,0.14 1.54,0.378 z"
             style="font-size:14px;line-height:1.25"
             id="path633" />
          <path
             d="m -15.959319,150.61545 v -0.42 c -0.266,0.224 -0.574,0.406 -0.924,0.406 -0.518,0 -0.616,-0.644 -0.616,-1.246 v -8.05 h -1.092 v 8.05 c 0,0.938 0.364,1.89 1.19,1.89 0.532,0 1.036,-0.266 1.442,-0.63 z"
             style="font-size:14px;line-height:1.25"
             id="path635" />
          <path
             d="m -4.8293645,151.10545 v -9.8 h -1.092 v 3.738 c -0.546,-0.238 -1.134,-0.378 -1.722,-0.378 -1.75,0 -2.6040005,1.4 -2.6040005,3.29 0,1.862 0.7000005,3.29 2.3940005,3.29 0.714,0 1.372,-0.322 1.932,-0.77 v 0.63 z m -1.092,-1.218 c -0.42,0.42 -0.938,0.77 -1.54,0.77 -1.274,0 -1.554,-1.232 -1.554,-2.702 0,-1.316 0.406,-2.702 1.554,-2.702 0.532,0 1.064,0.14 1.54,0.378 z"
             style="font-size:14px;line-height:1.25"
             id="path637" />
          <path
             d="m -2.5333811,144.58145 v -3.276 h -0.644 v 3.276 z"
             style="font-size:14px;line-height:1.25"
             id="path639" />
          <path
             d="m 4.1866115,151.10545 v -4.55 c 0,-1.022 -0.784,-1.89 -1.792,-1.89 -0.84,0 -1.58200005,0.476 -2.18400005,1.064 v -4.424 h -1.092 v 9.8 h 1.092 v -4.942 c 0.476,-0.476 1.06400005,-0.854 1.72200005,-0.854 0.658,0 1.162,0.574 1.162,1.246 v 4.55 z"
             style="font-size:14px;line-height:1.25"
             id="path641" />
          <path
             d="m 11.424588,147.95545 c 0,-2.142 -0.952,-3.29 -2.7020005,-3.29 -1.764,0 -2.716,1.148 -2.716,3.29 0,2.142 0.952,3.29 2.716,3.29 1.7500005,0 2.7020005,-1.148 2.7020005,-3.29 z m -1.232,0 c 0,1.75 -0.5180005,2.702 -1.4700005,2.702 -0.966,0 -1.484,-0.952 -1.484,-2.702 0,-1.75 0.518,-2.702 1.484,-2.702 0.952,0 1.4700005,0.952 1.4700005,2.702 z"
             style="font-size:14px;line-height:1.25"
             id="path643" />
          <path
             d="m 16.800595,145.67345 v -0.868 c -0.154,-0.056 -0.322,-0.098 -0.476,-0.098 -0.784,0 -1.414,0.546 -1.918,1.148 v -1.05 h -1.092 v 6.3 h 1.092 v -4.662 c 0.42,-0.49 0.952,-0.91 1.596,-0.91 0.266,0 0.546,0.056 0.798,0.14 z"
             style="font-size:14px;line-height:1.25"
             id="path645" />
          <path
             d="m 20.832582,150.61545 v -0.42 c -0.266,0.224 -0.574,0.406 -0.924,0.406 -0.518,0 -0.616,-0.644 -0.616,-1.246 v -8.05 h -1.092 v 8.05 c 0,0.938 0.364,1.89 1.19,1.89 0.532,0 1.036,-0.266 1.442,-0.63 z"
             style="font-size:14px;line-height:1.25"
             id="path647" />
          <path
             d="m 27.300549,147.95545 c 0,-2.142 -0.952,-3.29 -2.702,-3.29 -1.764,0 -2.716,1.148 -2.716,3.29 0,2.142 0.952,3.29 2.716,3.29 1.75,0 2.702,-1.148 2.702,-3.29 z m -1.232,0 c 0,1.75 -0.518,2.702 -1.47,2.702 -0.966,0 -1.484,-0.952 -1.484,-2.702 0,-1.75 0.518,-2.702 1.484,-2.702 0.952,0 1.47,0.952 1.47,2.702 z"
             style="font-size:14px;line-height:1.25"
             id="path649" />
          <path
             d="m 34.258541,151.94545 v -7.14 h -1.092 v 0.238 c -0.546,-0.238 -1.134,-0.378 -1.722,-0.378 -1.75,0 -2.604,1.4 -2.604,3.29 0,1.862 0.7,3.29 2.394,3.29 0.714,0 1.372,-0.322 1.932,-0.77 v 1.47 c 0,0.966 -0.532,1.876 -1.4,1.876 -0.714,0 -1.428,-0.14 -2.1,-0.378 v 0.434 c 0.784,0.364 1.652,0.588 2.52,0.588 1.232,0 2.072,-1.204 2.072,-2.52 z m -1.092,-2.058 c -0.42,0.42 -0.938,0.77 -1.54,0.77 -1.274,0 -1.554,-1.232 -1.554,-2.702 0,-1.316 0.406,-2.702 1.554,-2.702 0.532,0 1.064,0.14 1.54,0.378 z"
             style="font-size:14px;line-height:1.25"
             id="path651" />
          <path
             d="m 41.56654,148.09545 v -0.14 c 0,-1.974 -1.078,-3.29 -2.702,-3.29 -1.638,0 -2.716,1.316 -2.716,3.29 0,1.974 1.078,3.29 2.716,3.29 0.7,0 1.386,-0.224 1.96,-0.63 v -0.588 c -0.658,0.42 -1.19,0.574 -1.96,0.574 -1.19,0 -1.484,-1.134 -1.484,-2.506 z m -1.232,-0.588 h -2.954 c 0,-1.12 0.476,-2.254 1.484,-2.254 0.994,0 1.47,1.134 1.47,2.254 z"
             style="font-size:14px;line-height:1.25"
             id="path653" />
          <path
             d="m 44.450525,150.41945 c 0,-0.378 -0.308,-0.686 -0.686,-0.686 -0.378,0 -0.686,0.308 -0.686,0.686 0,0.378 0.308,0.686 0.686,0.686 0.378,0 0.686,-0.308 0.686,-0.686 z"
             style="font-size:14px;line-height:1.25"
             id="path655" />
        </g>
      </g>
    </g>
    <g
       id="g13461"
       transform="translate(184.35194,-194.88189)">
      <path
         id="path13463"
         d="m 592.30129,460.08929 7.08661,-46.063 h -14.17322 c -3.54331,0 -3.54331,-3.54331 -3.54331,-3.54331 v -28.34645 c 0,0 0,-3.54331 3.44334,-3.54331 h 67.4228 c 3.54331,0 3.54331,3.54331 3.54331,3.54331 v 28.34645 c 0,0 0,3.54331 -3.54331,3.54331 h -46.06299 z"
         style="fill:#ffd5f6;fill-rule:evenodd;stroke:#000000;stroke-width:1px;stroke-linecap:butt;stroke-linejoin:miter;stroke-opacity:1" />
      <g
         transform="translate(730.83119,266.24762)"
         id="g13465">
        <g
           aria-label="Les sorties"
           id="text13467"
           style="line-height:0%;font-family:Iwona;-inkscape-font-specification:Iwona;stroke-width:1px">
          <path
             d="m -136.84895,133.60545 v -0.644 h -4.452 v -9.156 h -1.148 v 9.8 z"
             style="font-size:14px;line-height:1.25"
             id="path658" />
          <path
             d="m -130.633,130.59545 v -0.14 c 0,-1.974 -1.078,-3.29 -2.702,-3.29 -1.638,0 -2.716,1.316 -2.716,3.29 0,1.974 1.078,3.29 2.716,3.29 0.7,0 1.386,-0.224 1.96,-0.63 v -0.588 c -0.658,0.42 -1.19,0.574 -1.96,0.574 -1.19,0 -1.484,-1.134 -1.484,-2.506 z m -1.232,-0.588 h -2.954 c 0,-1.12 0.476,-2.254 1.484,-2.254 0.994,0 1.47,1.134 1.47,2.254 z"
             style="font-size:14px;line-height:1.25"
             id="path660" />
          <path
             d="m -124.55701,131.81345 c 0,-1.106 -1.176,-1.68 -2.324,-1.96 -0.672,-0.168 -1.4,-0.448 -1.4,-1.106 0,-0.602 0.616,-0.994 1.288,-0.994 0.742,0 1.484,0.224 2.1,0.63 v -0.588 c -0.616,-0.406 -1.358,-0.63 -2.1,-0.63 -1.218,0 -2.338,0.742 -2.338,1.876 0,1.022 1.134,1.498 2.212,1.764 0.742,0.182 1.512,0.574 1.512,1.288 0,0.658 -0.672,1.064 -1.386,1.064 -0.868,0 -1.708,-0.21 -2.45,-0.63 v 0.588 c 0.742,0.42 1.582,0.63 2.45,0.63 1.26,0 2.436,-0.756 2.436,-1.932 z"
             style="font-size:14px;line-height:1.25"
             id="path662" />
          <path
             d="m -113.88905,131.81345 c 0,-1.106 -1.176,-1.68 -2.324,-1.96 -0.672,-0.168 -1.4,-0.448 -1.4,-1.106 0,-0.602 0.616,-0.994 1.288,-0.994 0.742,0 1.484,0.224 2.1,0.63 v -0.588 c -0.616,-0.406 -1.358,-0.63 -2.1,-0.63 -1.218,0 -2.338,0.742 -2.338,1.876 0,1.022 1.134,1.498 2.212,1.764 0.742,0.182 1.512,0.574 1.512,1.288 0,0.658 -0.672,1.064 -1.386,1.064 -0.868,0 -1.708,-0.21 -2.45,-0.63 v 0.588 c 0.742,0.42 1.582,0.63 2.45,0.63 1.26,0 2.436,-0.756 2.436,-1.932 z"
             style="font-size:14px;line-height:1.25"
             id="path664" />
          <path
             d="m -107.07107,130.45545 c 0,-2.142 -0.952,-3.29 -2.702,-3.29 -1.764,0 -2.716,1.148 -2.716,3.29 0,2.142 0.952,3.29 2.716,3.29 1.75,0 2.702,-1.148 2.702,-3.29 z m -1.232,0 c 0,1.75 -0.518,2.702 -1.47,2.702 -0.966,0 -1.484,-0.952 -1.484,-2.702 0,-1.75 0.518,-2.702 1.484,-2.702 0.952,0 1.47,0.952 1.47,2.702 z"
             style="font-size:14px;line-height:1.25"
             id="path666" />
          <path
             d="m -101.69507,128.17345 v -0.868 c -0.154,-0.056 -0.322,-0.098 -0.476,-0.098 -0.784,0 -1.414,0.546 -1.918,1.148 v -1.05 h -1.092 v 6.3 h 1.092 v -4.662 c 0.42,-0.49 0.952,-0.91 1.596,-0.91 0.266,0 0.546,0.056 0.798,0.14 z"
             style="font-size:14px;line-height:1.25"
             id="path668" />
          <path
             d="m -97.243104,133.11545 v -0.42 c -0.224,0.224 -0.49,0.406 -0.812,0.406 -0.504,0 -0.532,-0.658 -0.532,-1.246 v -3.962 h 1.344 v -0.588 h -1.344 v -2.1 h -0.658 c 0,1.12 -0.644,2.17 -1.665996,2.17 v 0.518 h 1.231996 v 3.962 c 0,0.924 0.294,1.89 1.092,1.89 0.518,0 0.966,-0.28 1.344,-0.63 z"
             style="font-size:14px;line-height:1.25"
             id="path670" />
          <path
             d="m -93.141124,133.11545 v -0.42 c -0.266,0.224 -0.574,0.406 -0.924,0.406 -0.518,0 -0.616,-0.644 -0.616,-1.246 v -4.55 h -1.092 v 4.55 c 0,0.938 0.364,1.89 1.19,1.89 0.532,0 1.036,-0.266 1.442,-0.63 z m -1.4,-7.994 c 0,-0.378 -0.308,-0.686 -0.686,-0.686 -0.378,0 -0.686,0.308 -0.686,0.686 0,0.378 0.308,0.686 0.686,0.686 0.378,0 0.686,-0.308 0.686,-0.686 z"
             style="font-size:14px;line-height:1.25"
             id="path672" />
          <path
             d="m -86.673137,130.59545 v -0.14 c 0,-1.974 -1.078,-3.29 -2.702,-3.29 -1.638,0 -2.716,1.316 -2.716,3.29 0,1.974 1.078,3.29 2.716,3.29 0.7,0 1.386,-0.224 1.96,-0.63 v -0.588 c -0.658,0.42 -1.19,0.574 -1.96,0.574 -1.19,0 -1.484,-1.134 -1.484,-2.506 z m -1.232,-0.588 h -2.954 c 0,-1.12 0.476,-2.254 1.484,-2.254 0.994,0 1.47,1.134 1.47,2.254 z"
             style="font-size:14px;line-height:1.25"
             id="path674" />
          <path
             d="m -80.597156,131.81345 c 0,-1.106 -1.176,-1.68 -2.324,-1.96 -0.672,-0.168 -1.4,-0.448 -1.4,-1.106 0,-0.602 0.616,-0.994 1.288,-0.994 0.742,0 1.484,0.224 2.1,0.63 v -0.588 c -0.616,-0.406 -1.358,-0.63 -2.1,-0.63 -1.218,0 -2.338,0.742 -2.338,1.876 0,1.022 1.134,1.498 2.212,1.764 0.742,0.182 1.512,0.574 1.512,1.288 0,0.658 -0.672,1.064 -1.386,1.064 -0.868,0 -1.708,-0.21 -2.45,-0.63 v 0.588 c 0.742,0.42 1.582,0.63 2.45,0.63 1.26,0 2.436,-0.756 2.436,-1.932 z"
             style="font-size:14px;line-height:1.25"
             id="path676" />
        </g>
      </g>
    </g>
    <g
       transform="translate(-371.94727,-194.88188)"
       id="g13471">
      <path
         style="fill:#ffd5f6;fill-rule:evenodd;stroke:#000000;stroke-width:1px;stroke-linecap:butt;stroke-linejoin:miter;stroke-opacity:1"
         d="m 648.99419,445.91605 -21.25984,-31.88976 h -42.51967 c -3.54331,0 -3.54331,-3.54331 -3.54331,-3.54331 v -28.34645 c 0,0 0,-3.54331 3.44334,-3.54331 l 74.5094,-10e-6 c 3.54331,0 3.54331,3.54331 3.54331,3.54331 v 28.34645 c 0,0 0,3.54331 -3.54331,3.54331 l -24.80314,1e-5 z"
         id="path13473" />
      <g
         id="g13475"
         transform="translate(730.83119,266.24762)">
        <g
           aria-label="Les entrées"
           id="text13477"
           style="line-height:0%;font-family:Iwona;-inkscape-font-specification:Iwona;stroke-width:1px">
          <path
             d="m -136.84895,133.60545 v -0.644 h -4.452 v -9.156 h -1.148 v 9.8 z"
             style="font-size:14px;line-height:1.25"
             id="path679" />
          <path
             d="m -130.633,130.59545 v -0.14 c 0,-1.974 -1.078,-3.29 -2.702,-3.29 -1.638,0 -2.716,1.316 -2.716,3.29 0,1.974 1.078,3.29 2.716,3.29 0.7,0 1.386,-0.224 1.96,-0.63 v -0.588 c -0.658,0.42 -1.19,0.574 -1.96,0.574 -1.19,0 -1.484,-1.134 -1.484,-2.506 z m -1.232,-0.588 h -2.954 c 0,-1.12 0.476,-2.254 1.484,-2.254 0.994,0 1.47,1.134 1.47,2.254 z"
             style="font-size:14px;line-height:1.25"
             id="path681" />
          <path
             d="m -124.55701,131.81345 c 0,-1.106 -1.176,-1.68 -2.324,-1.96 -0.672,-0.168 -1.4,-0.448 -1.4,-1.106 0,-0.602 0.616,-0.994 1.288,-0.994 0.742,0 1.484,0.224 2.1,0.63 v -0.588 c -0.616,-0.406 -1.358,-0.63 -2.1,-0.63 -1.218,0 -2.338,0.742 -2.338,1.876 0,1.022 1.134,1.498 2.212,1.764 0.742,0.182 1.512,0.574 1.512,1.288 0,0.658 -0.672,1.064 -1.386,1.064 -0.868,0 -1.708,-0.21 -2.45,-0.63 v 0.588 c 0.742,0.42 1.582,0.63 2.45,0.63 1.26,0 2.436,-0.756 2.436,-1.932 z"
             style="font-size:14px;line-height:1.25"
             id="path683" />
          <path
             d="m -113.07705,130.59545 v -0.14 c 0,-1.974 -1.078,-3.29 -2.702,-3.29 -1.638,0 -2.716,1.316 -2.716,3.29 0,1.974 1.078,3.29 2.716,3.29 0.7,0 1.386,-0.224 1.96,-0.63 v -0.588 c -0.658,0.42 -1.19,0.574 -1.96,0.574 -1.19,0 -1.484,-1.134 -1.484,-2.506 z m -1.232,-0.588 h -2.954 c 0,-1.12 0.476,-2.254 1.484,-2.254 0.994,0 1.47,1.134 1.47,2.254 z"
             style="font-size:14px;line-height:1.25"
             id="path685" />
          <path
             d="m -106.18907,133.60545 v -4.55 c 0,-1.022 -0.784,-1.89 -1.792,-1.89 -0.84,0 -1.582,0.476 -2.184,1.064 v -0.924 h -1.092 v 6.3 h 1.092 v -4.942 c 0.476,-0.476 1.064,-0.854 1.722,-0.854 0.658,0 1.162,0.574 1.162,1.246 v 4.55 z"
             style="font-size:14px;line-height:1.25"
             id="path687" />
          <path
             d="m -101.0511,133.11545 v -0.42 c -0.224,0.224 -0.49,0.406 -0.812,0.406 -0.504,0 -0.532,-0.658 -0.532,-1.246 v -3.962 h 1.344 v -0.588 h -1.344 v -2.1 h -0.658 c 0,1.12 -0.644,2.17 -1.666,2.17 v 0.518 h 1.232 v 3.962 c 0,0.924 0.294,1.89 1.092,1.89 0.518,0 0.966,-0.28 1.344,-0.63 z"
             style="font-size:14px;line-height:1.25"
             id="path689" />
          <path
             d="m -96.025115,128.17345 v -0.868 c -0.154,-0.056 -0.322,-0.098 -0.476,-0.098 -0.784,0 -1.414,0.546 -1.918,1.148 v -1.05 h -1.092 v 6.3 h 1.092 v -4.662 c 0.42,-0.49 0.952,-0.91 1.596,-0.91 0.266,0 0.546,0.056 0.798,0.14 z"
             style="font-size:14px;line-height:1.25"
             id="path691" />
          <path
             d="m -89.557129,130.59545 v -0.14 c 0,-1.974 -1.078,-3.29 -2.702,-3.29 -1.638,0 -2.716,1.316 -2.716,3.29 0,1.974 1.078,3.29 2.716,3.29 0.7,0 1.386,-0.224 1.96,-0.63 v -0.588 c -0.658,0.42 -1.19,0.574 -1.96,0.574 -1.19,0 -1.484,-1.134 -1.484,-2.506 z m -1.232,-0.588 h -2.954 c 0,-1.12 0.476,-2.254 1.484,-2.254 0.994,0 1.47,1.134 1.47,2.254 z m 0.042,-6.202 h -1.26 c 0,0.938 -0.294,1.862 -0.84,2.618 h 0.588 c 0.742,-0.742 1.512,-1.568 1.512,-2.618 z"
             style="font-size:14px;line-height:1.25"
             id="path693" />
          <path
             d="m -82.669147,130.59545 v -0.14 c 0,-1.974 -1.078,-3.29 -2.702,-3.29 -1.638,0 -2.716,1.316 -2.716,3.29 0,1.974 1.078,3.29 2.716,3.29 0.7,0 1.386,-0.224 1.96,-0.63 v -0.588 c -0.658,0.42 -1.19,0.574 -1.96,0.574 -1.19,0 -1.484,-1.134 -1.484,-2.506 z m -1.232,-0.588 h -2.954 c 0,-1.12 0.476,-2.254 1.484,-2.254 0.994,0 1.47,1.134 1.47,2.254 z"
             style="font-size:14px;line-height:1.25"
             id="path695" />
          <path
             d="m -76.593166,131.81345 c 0,-1.106 -1.176,-1.68 -2.324,-1.96 -0.672,-0.168 -1.4,-0.448 -1.4,-1.106 0,-0.602 0.616,-0.994 1.288,-0.994 0.742,0 1.484,0.224 2.1,0.63 v -0.588 c -0.616,-0.406 -1.358,-0.63 -2.1,-0.63 -1.218,0 -2.338,0.742 -2.338,1.876 0,1.022 1.134,1.498 2.212,1.764 0.742,0.182 1.512,0.574 1.512,1.288 0,0.658 -0.672,1.064 -1.386,1.064 -0.868,0 -1.708,-0.21 -2.45,-0.63 v 0.588 c 0.742,0.42 1.582,0.63 2.45,0.63 1.26,0 2.436,-0.756 2.436,-1.932 z"
             style="font-size:14px;line-height:1.25"
             id="path697" />
        </g>
      </g>
    </g>
    <path
       id="path16635"
       d="m 581.77134,282.92394 h 63.77953"
       style="fill:none;fill-rule:evenodd;stroke:#000000;stroke-width:7.08661;stroke-linecap:butt;stroke-linejoin:miter;stroke-miterlimit:4;stroke-dasharray:none;stroke-opacity:1;marker-end:url(#marker10177)" />
    <g
       aria-label="s*"
       id="text3441"
       style="line-height:0%;font-family:Purisa;-inkscape-font-specification:Purisa;letter-spacing:0px;word-spacing:0px">
      <path
         d="m 477.6015,304.65508 c 0,-1.896 -2.016,-2.88 -3.984,-3.36 -1.152,-0.288 -2.4,-0.768 -2.4,-1.896 0,-1.032 1.056,-1.704 2.208,-1.704 1.272,0 2.544,0.384 3.6,1.08 v -1.008 c -1.056,-0.696 -2.328,-1.08 -3.6,-1.08 -2.088,0 -4.008,1.272 -4.008,3.216 0,1.752 1.944,2.568 3.792,3.024 1.272,0.312 2.592,0.984 2.592,2.208 0,1.128 -1.152,1.824 -2.376,1.824 -1.488,0 -2.928,-0.36 -4.2,-1.08 v 1.008 c 1.272,0.72 2.712,1.08 4.2,1.08 2.16,0 4.176,-1.296 4.176,-3.312 z"
         style="font-size:24px;line-height:1.25;font-family:Iwona;-inkscape-font-specification:Iwona"
         id="path700" />
      <path
         d="m 483.88947,290.13508 -1.632,0.936 c 0.336,0.744 0.48,1.56 0.408,2.376 l 0.576,-0.336 c 0.264,-0.984 0.48,-1.968 0.648,-2.976 z m -1.296,4.128 v -0.672 c -0.72,-0.72 -1.464,-1.392 -2.256,-2.04 v 1.872 c 0.816,0.096 1.584,0.384 2.256,0.84 z m 0.648,0.48 -0.576,-0.336 c -0.96,0.264 -1.944,0.576 -2.88,0.936 l 1.632,0.936 c 0.456,-0.648 1.104,-1.176 1.824,-1.536 z m 1.176,2.04 c -0.336,-0.744 -0.48,-1.56 -0.408,-2.376 l -0.576,0.336 c -0.264,0.984 -0.48,1.968 -0.648,2.976 z m 1.92,-0.504 v -1.872 c -0.816,-0.072 -1.584,-0.36 -2.232,-0.816 v 0.672 c 0.696,0.72 1.44,1.392 2.232,2.016 z m 0.552,-3.768 -1.632,-0.936 c -0.456,0.648 -1.104,1.176 -1.824,1.536 l 0.576,0.336 c 0.96,-0.264 1.944,-0.576 2.88,-0.936 z"
         style="font-size:24px;line-height:1.25;font-family:Iwona;-inkscape-font-specification:Iwona"
         id="path702" />
    </g>
    <g
       aria-label="s"
       id="text3445"
       style="line-height:0%;font-family:Purisa;-inkscape-font-specification:Purisa;letter-spacing:0px;word-spacing:0px">
      <path
         d="m 605.16058,304.65508 c 0,-1.896 -2.016,-2.88 -3.984,-3.36 -1.152,-0.288 -2.4,-0.768 -2.4,-1.896 0,-1.032 1.056,-1.704 2.208,-1.704 1.272,0 2.544,0.384 3.6,1.08 v -1.008 c -1.056,-0.696 -2.328,-1.08 -3.6,-1.08 -2.088,0 -4.008,1.272 -4.008,3.216 0,1.752 1.944,2.568 3.792,3.024 1.272,0.312 2.592,0.984 2.592,2.208 0,1.128 -1.152,1.824 -2.376,1.824 -1.488,0 -2.928,-0.36 -4.2,-1.08 v 1.008 c 1.272,0.72 2.712,1.08 4.2,1.08 2.16,0 4.176,-1.296 4.176,-3.312 z"
         style="font-size:24px;line-height:1.25;font-family:Iwona;-inkscape-font-specification:Iwona"
         id="path705" />
    </g>
  </g>
</svg>
