<?xml version="1.0" encoding="UTF-8" standalone="no"?>
<!-- Created with Inkscape (http://www.inkscape.org/) -->

<svg
   width="149.93829mm"
   height="108.27148mm"
   viewBox="0 0 531.27742 383.63908"
   id="svg7133"
   version="1.1"
   xmlns="http://www.w3.org/2000/svg"
   xmlns:svg="http://www.w3.org/2000/svg"
   xmlns:rdf="http://www.w3.org/1999/02/22-rdf-syntax-ns#"
   xmlns:cc="http://creativecommons.org/ns#"
   xmlns:dc="http://purl.org/dc/elements/1.1/">
  <defs
     id="defs7135">
    <marker
       orient="auto"
       refY="0"
       refX="0"
       id="StopMa3"
       style="overflow:visible">
      <path
         id="path5119"
         d="M 0,5.65 V -5.65"
         style="fill:none;stroke:#a02c2c;stroke-width:1.00000003pt"
         transform="scale(0.4)" />
    </marker>
    <marker
       orient="auto"
       refY="0"
       refX="0"
       id="Arrow1Mendrq"
       style="overflow:visible">
      <path
         id="path5122"
         d="M 0,0 5,-5 -12.5,0 5,5 Z"
         style="fill:#a02c2c;fill-rule:evenodd;stroke:#a02c2c;stroke-width:1.00000003pt;marker-start:none"
         transform="matrix(-0.4,0,0,-0.4,-4,0)" />
    </marker>
  </defs>
  <metadata
     id="metadata7138">
    <rdf:RDF>
      <cc:Work
         rdf:about="">
        <dc:format>image/svg+xml</dc:format>
        <dc:type
           rdf:resource="http://purl.org/dc/dcmitype/StillImage" />
        <dc:title />
      </cc:Work>
    </rdf:RDF>
  </metadata>
  <g
     id="layer1"
     transform="translate(-97.458499,-318.0725)">
    <path
       id="rect128033"
       d="m 152.3622,361.41732 h 88.58269 l 7.0866,10.6299 8.4321,-10.6299 h 55.3474 c 5.889,0 10.63,4.741 10.63,10.6299 v 109.84251 c 0,5.889 -4.741,10.63 -10.63,10.63 l -42.5197,1e-4 c 0,10.6299 -14.1732,10.6299 -14.1732,0 h -14.1732 l -7.0866,10.6299 -7.0867,-10.6299 -74.40939,-1e-4 c -5.889,0 -10.6299,-4.741 -10.6299,-10.63 v -28.3464 h -10.63 v -14.1732 h 10.63 v -17.71661 l 10.6299,-7.0866 -10.6299,-7.0866 v -35.4331 c 0,-5.8889 4.7409,-10.6299 10.6299,-10.6299 z"
       style="fill:#ffd823;fill-opacity:1;stroke:#c8a500;stroke-opacity:1" />
    <path
       id="rect128031"
       d="m 152.3622,513.77973 h 74.62009 l -0.2107,10.6298 h 14.1733 l -0.2126,-10.6298 h 14.4643 c -0.079,10.6298 14.0947,10.6298 13.9285,0 h 42.6859 c 5.889,0 10.63,4.741 10.63,10.6299 v 109.84246 c 0,5.8889 -4.741,10.6299 -10.63,10.6299 h -56.6929 v 10.6299 h -14.1732 v -10.6299 H 152.3622 c -5.889,0 -10.6299,-4.741 -10.6299,-10.6299 v -31.88976 h -10.63 v -14.1732 h 10.63 v -14.1733 l 10.6299,-7.0867 -10.6299,-7.0866 v -35.4329 c 0,-5.8889 4.7409,-10.6299 10.6299,-10.6299 z"
       style="fill:#f7ff69;fill-opacity:1;stroke:#ffd823;stroke-opacity:1" />
    <path
       id="rect128029"
       d="m 411.02375,616.53559 h 14.1731 v 10.6299 h 14.1732 v -10.6299 h 14.1734 c 5.8889,0 10.6299,4.7409 10.6299,10.6299 v 49.6064 c 0,5.889 -4.741,10.63 -10.6299,10.63 h -42.5197 c -5.889,0 -10.62986,-4.741 -10.62986,-10.63 v -49.6064 c 0,-5.889 4.74086,-10.6299 10.62986,-10.6299 z"
       style="fill:#91c5ff;fill-opacity:1;stroke:#2d90ff;stroke-opacity:1" />
    <path
       id="rect128027"
       d="m 410.87125,333.07092 h 42.5197 c 5.889,0 10.6299,4.7409 10.6299,10.6299 v 31.8898 c 0,5.889 -4.7409,10.63 -10.6299,10.63 h -14.0209 l -7.0866,10.6299 -7.0866,-10.6299 h -14.3256 c -5.8889,0 -10.62986,-4.741 -10.62986,-10.63 v -31.8898 c 0,-5.889 4.74096,-10.6299 10.62986,-10.6299 z"
       style="fill:#ff9191;fill-opacity:1;stroke:#ff2d2d;stroke-opacity:1" />
    <g
       id="g5895"
       transform="translate(-938.97645,2327.9536)">
      <path
         id="path5827"
         d="m 1187.0079,-1792.9135 v 28.3465 h -17.7166 v 35.433 h 17.7166 v 28.3465"
         style="fill:none;stroke:#000000;stroke-width:1px;stroke-linecap:butt;stroke-linejoin:miter;stroke-opacity:1" />
      <path
         id="path5829"
         d="m 1165.7481,-1764.5671 v 35.4331"
         style="fill:none;stroke:#000000;stroke-width:1px;stroke-linecap:butt;stroke-linejoin:miter;stroke-opacity:1" />
      <path
         id="path5837"
         d="m 1144.4882,-1746.8505 h 21.2599"
         style="fill:none;stroke:#000000;stroke-width:1px;stroke-linecap:butt;stroke-linejoin:miter;stroke-opacity:1" />
      <g
         aria-label="Drain"
         id="text5841"
         style="line-height:0%;font-family:Iwona;-inkscape-font-specification:Sans;letter-spacing:0px;word-spacing:0px">
        <path
           d="m 1215.6661,-1794.9707 c 0,-3.424 -1.872,-5.76 -5.168,-5.76 -0.992,0 -1.984,0.048 -2.96,0.16 h -1.28 v 11.2 h 1.28 c 0.976,0.112 1.968,0.16 2.96,0.16 3.296,0 5.168,-2.336 5.168,-5.76 z m -1.568,0 c 0,2.544 -1.296,5.024 -3.6,5.024 -0.976,0 -1.952,-0.048 -2.928,-0.16 v -9.728 c 0.976,-0.112 1.952,-0.16 2.928,-0.16 2.304,0 3.6,2.48 3.6,5.024 z"
           style="font-size:16px;line-height:1.25"
           id="path67" />
        <path
           d="m 1221.8901,-1795.5787 v -0.992 c -0.176,-0.064 -0.368,-0.112 -0.544,-0.112 -0.896,0 -1.616,0.624 -2.192,1.312 v -1.2 h -1.248 v 7.2 h 1.248 v -5.328 c 0.48,-0.56 1.088,-1.04 1.824,-1.04 0.304,0 0.624,0.064 0.912,0.16 z"
           style="font-size:16px;line-height:1.25"
           id="path69" />
        <path
           d="m 1228.93,-1789.3707 v -4.48 c 0,-1.504 -0.928,-2.88 -2.32,-2.88 -1.024,0 -1.984,0.352 -2.848,0.896 v 0.496 c 0.72,-0.4 1.52,-0.656 2.352,-0.656 0.992,0 1.568,1.056 1.568,2.144 v 0.288 c -0.624,-0.272 -1.296,-0.432 -1.968,-0.432 -1.712,0 -2.976,0.784 -2.976,2.4 0,1.536 1.12,2.384 2.736,2.384 0.816,0 1.568,-0.368 2.208,-0.88 v 0.72 z m -1.248,-1.392 c -0.48,0.48 -1.072,0.88 -1.76,0.88 -1.072,0 -1.776,-0.656 -1.776,-1.712 0,-0.976 0.8,-1.728 1.776,-1.728 0.608,0 1.216,0.16 1.76,0.432 z"
           style="font-size:16px;line-height:1.25"
           id="path71" />
        <path
           d="m 1234.418,-1789.9307 v -0.48 c -0.304,0.256 -0.656,0.464 -1.056,0.464 -0.592,0 -0.704,-0.736 -0.704,-1.424 v -5.2 h -1.248 v 5.2 c 0,1.072 0.416,2.16 1.36,2.16 0.608,0 1.184,-0.304 1.648,-0.72 z m -1.6,-9.136 c 0,-0.432 -0.352,-0.784 -0.784,-0.784 -0.432,0 -0.784,0.352 -0.784,0.784 0,0.432 0.352,0.784 0.784,0.784 0.432,0 0.784,-0.352 0.784,-0.784 z"
           style="font-size:16px;line-height:1.25"
           id="path73" />
        <path
           d="m 1241.81,-1789.3707 v -5.2 c 0,-1.168 -0.896,-2.16 -2.048,-2.16 -0.96,0 -1.808,0.544 -2.496,1.216 v -1.056 h -1.248 v 7.2 h 1.248 v -5.648 c 0.544,-0.544 1.216,-0.976 1.968,-0.976 0.752,0 1.328,0.656 1.328,1.424 v 5.2 z"
           style="font-size:16px;line-height:1.25"
           id="path75" />
      </g>
      <g
         aria-label="Source"
         id="text5845"
         style="line-height:0%;font-family:Iwona;-inkscape-font-specification:Sans;letter-spacing:0px;word-spacing:0px">
        <path
           d="m 1212.8046,-1696.9488 c 0,-1.968 -2,-3.136 -4.064,-3.568 -1.376,-0.288 -2.928,-0.64 -2.928,-1.92 0,-1.264 1.36,-1.984 2.768,-1.984 1.296,0 2.56,0.384 3.584,1.184 v -0.64 c -1.024,-0.8 -2.288,-1.28 -3.584,-1.28 -2.08,0 -4.032,1.168 -4.032,3.056 0,1.808 1.952,2.72 3.856,3.12 1.52,0.32 3.136,0.944 3.136,2.368 0,1.456 -1.424,2.432 -2.96,2.432 -1.488,0 -2.96,-0.384 -4.208,-1.184 v 0.64 c 1.264,0.8 2.704,1.28 4.208,1.28 2.208,0 4.224,-1.424 4.224,-3.504 z"
           style="font-size:16px;line-height:1.25"
           id="path78" />
        <path
           d="m 1220.8366,-1697.3008 c 0,-2.448 -1.088,-3.76 -3.088,-3.76 -2.016,0 -3.104,1.312 -3.104,3.76 0,2.448 1.088,3.76 3.104,3.76 2,0 3.088,-1.312 3.088,-3.76 z m -1.408,0 c 0,2 -0.592,3.088 -1.68,3.088 -1.104,0 -1.696,-1.088 -1.696,-3.088 0,-2 0.592,-3.088 1.696,-3.088 1.088,0 1.68,1.088 1.68,3.088 z"
           style="font-size:16px;line-height:1.25"
           id="path80" />
        <path
           d="m 1228.7086,-1693.7008 v -7.2 h -1.248 v 5.648 c -0.544,0.544 -1.216,0.976 -1.968,0.976 -0.752,0 -1.328,-0.656 -1.328,-1.424 v -5.2 h -1.248 v 5.2 c 0,1.168 0.896,2.16 2.048,2.16 0.96,0 1.808,-0.544 2.496,-1.216 v 1.056 z"
           style="font-size:16px;line-height:1.25"
           id="path82" />
        <path
           d="m 1235.2526,-1699.9088 v -0.992 c -0.176,-0.064 -0.368,-0.112 -0.544,-0.112 -0.896,0 -1.616,0.624 -2.192,1.312 v -1.2 h -1.248 v 7.2 h 1.248 v -5.328 c 0.48,-0.56 1.088,-1.04 1.824,-1.04 0.304,0 0.624,0.064 0.912,0.16 z"
           style="font-size:16px;line-height:1.25"
           id="path84" />
        <path
           d="m 1242.0365,-1699.2368 v -0.672 c -0.512,-0.72 -1.344,-1.152 -2.24,-1.152 -2,0 -3.344,1.504 -3.344,3.76 0,2.256 1.344,3.76 3.344,3.76 0.832,0 1.616,-0.416 2.08,-1.104 v -0.672 c -0.544,0.816 -1.104,1.104 -2.08,1.104 -1.152,0 -1.936,-1.232 -1.936,-3.088 0,-1.856 0.784,-3.088 1.936,-3.088 0.992,0 1.664,0.352 2.24,1.152 z"
           style="font-size:16px;line-height:1.25"
           id="path86" />
        <path
           d="m 1249.5085,-1697.1408 v -0.16 c 0,-2.256 -1.232,-3.76 -3.088,-3.76 -1.872,0 -3.104,1.504 -3.104,3.76 0,2.256 1.232,3.76 3.104,3.76 0.8,0 1.584,-0.256 2.24,-0.72 v -0.672 c -0.752,0.48 -1.36,0.656 -2.24,0.656 -1.36,0 -1.696,-1.296 -1.696,-2.864 z m -1.408,-0.672 h -3.376 c 0,-1.28 0.544,-2.576 1.696,-2.576 1.136,0 1.68,1.296 1.68,2.576 z"
           style="font-size:16px;line-height:1.25"
           id="path88" />
      </g>
      <g
         aria-label="Grille"
         id="text5849"
         style="line-height:0%;font-family:Iwona;-inkscape-font-specification:Sans;text-align:end;letter-spacing:0px;word-spacing:0px;text-anchor:end">
        <path
           d="m 1101.8351,-1743.3071 v -4.704 h -1.312 v 3.088 c -0.832,0.672 -1.856,1.04 -2.928,1.04 -2.544,0 -3.6,-2.192 -3.6,-5.024 0,-2.832 1.056,-5.024 3.6,-5.024 1.504,0 2.928,0.592 3.984,1.664 v -0.736 c -1.056,-1.072 -2.48,-1.664 -3.984,-1.664 -3.296,0 -5.168,2.336 -5.168,5.76 0,3.424 1.872,5.76 5.168,5.76 1.072,0 2.096,-0.368 2.928,-1.04 v 0.88 z"
           style="font-size:16px;line-height:1.25"
           id="path91" />
        <path
           d="m 1108.3791,-1749.5151 v -0.992 c -0.176,-0.064 -0.368,-0.112 -0.544,-0.112 -0.896,0 -1.616,0.624 -2.192,1.312 v -1.2 h -1.248 v 7.2 h 1.248 v -5.328 c 0.48,-0.56 1.088,-1.04 1.824,-1.04 0.304,0 0.624,0.064 0.912,0.16 z"
           style="font-size:16px;line-height:1.25"
           id="path93" />
        <path
           d="m 1112.907,-1743.8671 v -0.48 c -0.304,0.256 -0.656,0.464 -1.056,0.464 -0.592,0 -0.704,-0.736 -0.704,-1.424 v -5.2 h -1.248 v 5.2 c 0,1.072 0.416,2.16 1.36,2.16 0.608,0 1.184,-0.304 1.648,-0.72 z m -1.6,-9.136 c 0,-0.432 -0.352,-0.784 -0.784,-0.784 -0.432,0 -0.784,0.352 -0.784,0.784 0,0.432 0.352,0.784 0.784,0.784 0.432,0 0.784,-0.352 0.784,-0.784 z"
           style="font-size:16px;line-height:1.25"
           id="path95" />
        <path
           d="m 1117.515,-1743.8671 v -0.48 c -0.304,0.256 -0.656,0.464 -1.056,0.464 -0.592,0 -0.704,-0.736 -0.704,-1.424 v -9.2 h -1.248 v 9.2 c 0,1.072 0.416,2.16 1.36,2.16 0.608,0 1.184,-0.304 1.648,-0.72 z"
           style="font-size:16px;line-height:1.25"
           id="path97" />
        <path
           d="m 1122.123,-1743.8671 v -0.48 c -0.304,0.256 -0.656,0.464 -1.056,0.464 -0.592,0 -0.704,-0.736 -0.704,-1.424 v -9.2 h -1.248 v 9.2 c 0,1.072 0.416,2.16 1.36,2.16 0.608,0 1.184,-0.304 1.648,-0.72 z"
           style="font-size:16px;line-height:1.25"
           id="path99" />
        <path
           d="m 1129.515,-1746.7471 v -0.16 c 0,-2.256 -1.232,-3.76 -3.088,-3.76 -1.872,0 -3.104,1.504 -3.104,3.76 0,2.256 1.232,3.76 3.104,3.76 0.8,0 1.584,-0.256 2.24,-0.72 v -0.672 c -0.752,0.48 -1.36,0.656 -2.24,0.656 -1.36,0 -1.696,-1.296 -1.696,-2.864 z m -1.408,-0.672 h -3.376 c 0,-1.28 0.544,-2.576 1.696,-2.576 1.136,0 1.68,1.296 1.68,2.576 z"
           style="font-size:16px;line-height:1.25"
           id="path101" />
      </g>
    </g>
    <g
       id="g5906"
       transform="translate(-1133.8584,2175.5914)">
      <path
         style="fill:none;stroke:#000000;stroke-width:1px;stroke-linecap:butt;stroke-linejoin:miter;stroke-opacity:1"
         d="m 1381.8898,-1792.9135 v 28.3465 h -17.7166 v 35.433 h 17.7166 v 28.3465"
         id="path5831" />
      <path
         style="fill:none;stroke:#000000;stroke-width:1px;stroke-linecap:butt;stroke-linejoin:miter;stroke-opacity:1"
         d="m 1360.63,-1764.567 v 35.433"
         id="path5833" />
      <path
         id="path5835"
         style="fill:none;stroke:#000000;stroke-linecap:round;stroke-linejoin:bevel"
         transform="translate(14.173215,-2395.2755)"
         d="m 1346.4566,648.42499 a 3.5433071,3.5433071 0 0 1 -3.5433,3.5433 3.5433071,3.5433071 0 0 1 -3.5433,-3.5433 3.5433071,3.5433071 0 0 1 3.5433,-3.54331 3.5433071,3.5433071 0 0 1 3.5433,3.54331 z" />
      <path
         style="fill:none;stroke:#000000;stroke-width:1px;stroke-linecap:butt;stroke-linejoin:miter;stroke-opacity:1"
         d="m 1339.37,-1746.8505 h 14.1733"
         id="path5839" />
      <g
         aria-label="Drain"
         id="text5857"
         style="line-height:0%;font-family:Iwona;-inkscape-font-specification:Sans;letter-spacing:0px;word-spacing:0px">
        <path
           d="m 1402.0257,-1699.3014 c 0,-3.424 -1.872,-5.76 -5.168,-5.76 -0.992,0 -1.984,0.048 -2.96,0.16 h -1.28 v 11.2 h 1.28 c 0.976,0.112 1.968,0.16 2.96,0.16 3.296,0 5.168,-2.336 5.168,-5.76 z m -1.568,0 c 0,2.544 -1.296,5.024 -3.6,5.024 -0.976,0 -1.952,-0.048 -2.928,-0.16 v -9.728 c 0.976,-0.112 1.952,-0.16 2.928,-0.16 2.304,0 3.6,2.48 3.6,5.024 z"
           style="font-size:16px;line-height:1.25"
           id="path105" />
        <path
           d="m 1408.2497,-1699.9094 v -0.992 c -0.176,-0.064 -0.368,-0.112 -0.544,-0.112 -0.896,0 -1.616,0.624 -2.192,1.312 v -1.2 h -1.248 v 7.2 h 1.248 v -5.328 c 0.48,-0.56 1.088,-1.04 1.824,-1.04 0.304,0 0.624,0.064 0.912,0.16 z"
           style="font-size:16px;line-height:1.25"
           id="path107" />
        <path
           d="m 1415.2897,-1693.7014 v -4.48 c 0,-1.504 -0.928,-2.88 -2.32,-2.88 -1.024,0 -1.984,0.352 -2.848,0.896 v 0.496 c 0.72,-0.4 1.52,-0.656 2.352,-0.656 0.992,0 1.568,1.056 1.568,2.144 v 0.288 c -0.624,-0.272 -1.296,-0.432 -1.968,-0.432 -1.712,0 -2.976,0.784 -2.976,2.4 0,1.536 1.12,2.384 2.736,2.384 0.816,0 1.568,-0.368 2.208,-0.88 v 0.72 z m -1.248,-1.392 c -0.48,0.48 -1.072,0.88 -1.76,0.88 -1.072,0 -1.776,-0.656 -1.776,-1.712 0,-0.976 0.8,-1.728 1.776,-1.728 0.608,0 1.216,0.16 1.76,0.432 z"
           style="font-size:16px;line-height:1.25"
           id="path109" />
        <path
           d="m 1420.7776,-1694.2614 v -0.48 c -0.304,0.256 -0.656,0.464 -1.056,0.464 -0.592,0 -0.704,-0.736 -0.704,-1.424 v -5.2 h -1.248 v 5.2 c 0,1.072 0.416,2.16 1.36,2.16 0.608,0 1.184,-0.304 1.648,-0.72 z m -1.6,-9.136 c 0,-0.432 -0.352,-0.784 -0.784,-0.784 -0.432,0 -0.784,0.352 -0.784,0.784 0,0.432 0.352,0.784 0.784,0.784 0.432,0 0.784,-0.352 0.784,-0.784 z"
           style="font-size:16px;line-height:1.25"
           id="path111" />
        <path
           d="m 1428.1696,-1693.7014 v -5.2 c 0,-1.168 -0.896,-2.16 -2.048,-2.16 -0.96,0 -1.808,0.544 -2.496,1.216 v -1.056 h -1.248 v 7.2 h 1.248 v -5.648 c 0.544,-0.544 1.216,-0.976 1.968,-0.976 0.752,0 1.328,0.656 1.328,1.424 v 5.2 z"
           style="font-size:16px;line-height:1.25"
           id="path113" />
      </g>
      <g
         aria-label="Source"
         id="text5861"
         style="line-height:0%;font-family:Iwona;-inkscape-font-specification:Sans;letter-spacing:0px;word-spacing:0px">
        <path
           d="m 1400.4097,-1792.6187 c 0,-1.968 -2,-3.136 -4.064,-3.568 -1.376,-0.288 -2.928,-0.64 -2.928,-1.92 0,-1.264 1.36,-1.984 2.768,-1.984 1.296,0 2.56,0.384 3.584,1.184 v -0.64 c -1.024,-0.8 -2.288,-1.28 -3.584,-1.28 -2.08,0 -4.032,1.168 -4.032,3.056 0,1.808 1.952,2.72 3.856,3.12 1.52,0.32 3.136,0.944 3.136,2.368 0,1.456 -1.424,2.432 -2.96,2.432 -1.488,0 -2.96,-0.384 -4.208,-1.184 v 0.64 c 1.264,0.8 2.704,1.28 4.208,1.28 2.208,0 4.224,-1.424 4.224,-3.504 z"
           style="font-size:16px;line-height:1.25"
           id="path116" />
        <path
           d="m 1408.4417,-1792.9707 c 0,-2.448 -1.088,-3.76 -3.088,-3.76 -2.016,0 -3.104,1.312 -3.104,3.76 0,2.448 1.088,3.76 3.104,3.76 2,0 3.088,-1.312 3.088,-3.76 z m -1.408,0 c 0,2 -0.592,3.088 -1.68,3.088 -1.104,0 -1.696,-1.088 -1.696,-3.088 0,-2 0.592,-3.088 1.696,-3.088 1.088,0 1.68,1.088 1.68,3.088 z"
           style="font-size:16px;line-height:1.25"
           id="path118" />
        <path
           d="m 1416.3137,-1789.3707 v -7.2 h -1.248 v 5.648 c -0.544,0.544 -1.216,0.976 -1.968,0.976 -0.752,0 -1.328,-0.656 -1.328,-1.424 v -5.2 h -1.248 v 5.2 c 0,1.168 0.896,2.16 2.048,2.16 0.96,0 1.808,-0.544 2.496,-1.216 v 1.056 z"
           style="font-size:16px;line-height:1.25"
           id="path120" />
        <path
           d="m 1422.8577,-1795.5787 v -0.992 c -0.176,-0.064 -0.368,-0.112 -0.544,-0.112 -0.896,0 -1.616,0.624 -2.192,1.312 v -1.2 h -1.248 v 7.2 h 1.248 v -5.328 c 0.48,-0.56 1.088,-1.04 1.824,-1.04 0.304,0 0.624,0.064 0.912,0.16 z"
           style="font-size:16px;line-height:1.25"
           id="path122" />
        <path
           d="m 1429.6416,-1794.9067 v -0.672 c -0.512,-0.72 -1.344,-1.152 -2.24,-1.152 -2,0 -3.344,1.504 -3.344,3.76 0,2.256 1.344,3.76 3.344,3.76 0.832,0 1.616,-0.416 2.08,-1.104 v -0.672 c -0.544,0.816 -1.104,1.104 -2.08,1.104 -1.152,0 -1.936,-1.232 -1.936,-3.088 0,-1.856 0.784,-3.088 1.936,-3.088 0.992,0 1.664,0.352 2.24,1.152 z"
           style="font-size:16px;line-height:1.25"
           id="path124" />
        <path
           d="m 1437.1136,-1792.8107 v -0.16 c 0,-2.256 -1.232,-3.76 -3.088,-3.76 -1.872,0 -3.104,1.504 -3.104,3.76 0,2.256 1.232,3.76 3.104,3.76 0.8,0 1.584,-0.256 2.24,-0.72 v -0.672 c -0.752,0.48 -1.36,0.656 -2.24,0.656 -1.36,0 -1.696,-1.296 -1.696,-2.864 z m -1.408,-0.672 h -3.376 c 0,-1.28 0.544,-2.576 1.696,-2.576 1.136,0 1.68,1.296 1.68,2.576 z"
           style="font-size:16px;line-height:1.25"
           id="path126" />
      </g>
      <g
         aria-label="Grille"
         id="text5865"
         style="line-height:0%;font-family:Iwona;-inkscape-font-specification:Sans;text-align:end;letter-spacing:0px;word-spacing:0px;text-anchor:end">
        <path
           d="m 1305.845,-1743.3073 v -4.704 h -1.312 v 3.088 c -0.832,0.672 -1.856,1.04 -2.928,1.04 -2.544,0 -3.6,-2.192 -3.6,-5.024 0,-2.832 1.056,-5.024 3.6,-5.024 1.504,0 2.928,0.592 3.984,1.664 v -0.736 c -1.056,-1.072 -2.48,-1.664 -3.984,-1.664 -3.296,0 -5.168,2.336 -5.168,5.76 0,3.424 1.872,5.76 5.168,5.76 1.072,0 2.096,-0.368 2.928,-1.04 v 0.88 z"
           style="font-size:16px;line-height:1.25"
           id="path129" />
        <path
           d="m 1312.3889,-1749.5153 v -0.992 c -0.176,-0.064 -0.368,-0.112 -0.544,-0.112 -0.896,0 -1.616,0.624 -2.192,1.312 v -1.2 h -1.248 v 7.2 h 1.248 v -5.328 c 0.48,-0.56 1.088,-1.04 1.824,-1.04 0.304,0 0.624,0.064 0.912,0.16 z"
           style="font-size:16px;line-height:1.25"
           id="path131" />
        <path
           d="m 1316.9169,-1743.8673 v -0.48 c -0.304,0.256 -0.656,0.464 -1.056,0.464 -0.592,0 -0.704,-0.736 -0.704,-1.424 v -5.2 h -1.248 v 5.2 c 0,1.072 0.416,2.16 1.36,2.16 0.608,0 1.184,-0.304 1.648,-0.72 z m -1.6,-9.136 c 0,-0.432 -0.352,-0.784 -0.784,-0.784 -0.432,0 -0.784,0.352 -0.784,0.784 0,0.432 0.352,0.784 0.784,0.784 0.432,0 0.784,-0.352 0.784,-0.784 z"
           style="font-size:16px;line-height:1.25"
           id="path133" />
        <path
           d="m 1321.5249,-1743.8673 v -0.48 c -0.304,0.256 -0.656,0.464 -1.056,0.464 -0.592,0 -0.704,-0.736 -0.704,-1.424 v -9.2 h -1.248 v 9.2 c 0,1.072 0.416,2.16 1.36,2.16 0.608,0 1.184,-0.304 1.648,-0.72 z"
           style="font-size:16px;line-height:1.25"
           id="path135" />
        <path
           d="m 1326.1329,-1743.8673 v -0.48 c -0.304,0.256 -0.656,0.464 -1.056,0.464 -0.592,0 -0.704,-0.736 -0.704,-1.424 v -9.2 h -1.248 v 9.2 c 0,1.072 0.416,2.16 1.36,2.16 0.608,0 1.184,-0.304 1.648,-0.72 z"
           style="font-size:16px;line-height:1.25"
           id="path137" />
        <path
           d="m 1333.5249,-1746.7473 v -0.16 c 0,-2.256 -1.232,-3.76 -3.088,-3.76 -1.872,0 -3.104,1.504 -3.104,3.76 0,2.256 1.232,3.76 3.104,3.76 0.8,0 1.584,-0.256 2.24,-0.72 v -0.672 c -0.752,0.48 -1.36,0.656 -2.24,0.656 -1.36,0 -1.696,-1.296 -1.696,-2.864 z m -1.408,-0.672 h -3.376 c 0,-1.28 0.544,-2.576 1.696,-2.576 1.136,0 1.68,1.296 1.68,2.576 z"
           style="font-size:16px;line-height:1.25"
           id="path139" />
      </g>
    </g>
    <g
       aria-label="Transistor MOS à canal P (PMOS)"
       id="text5883"
       style="line-height:0%;font-family:Iwona;-inkscape-font-specification:Sans;text-align:center;letter-spacing:0px;word-spacing:0px;text-anchor:middle">
      <path
         d="m 115.01667,326.15111 v -0.736 h -8.8 v 0.736 h 3.744 v 10.464 h 1.312 v -10.464 z"
         style="font-size:16px;line-height:1.25"
         id="path142" />
      <path
         d="m 119.16064,330.40711 v -0.992 c -0.176,-0.064 -0.368,-0.112 -0.544,-0.112 -0.896,0 -1.616,0.624 -2.192,1.312 v -1.2 h -1.248 v 7.2 h 1.248 v -5.328 c 0.48,-0.56 1.088,-1.04 1.824,-1.04 0.304,0 0.624,0.064 0.912,0.16 z"
         style="font-size:16px;line-height:1.25"
         id="path144" />
      <path
         d="m 126.2006,336.61511 v -4.48 c 0,-1.504 -0.928,-2.88 -2.32,-2.88 -1.024,0 -1.984,0.352 -2.848,0.896 v 0.496 c 0.72,-0.4 1.52,-0.656 2.352,-0.656 0.992,0 1.568,1.056 1.568,2.144 v 0.288 c -0.624,-0.272 -1.296,-0.432 -1.968,-0.432 -1.712,0 -2.976,0.784 -2.976,2.4 0,1.536 1.12,2.384 2.736,2.384 0.816,0 1.568,-0.368 2.208,-0.88 v 0.72 z m -1.248,-1.392 c -0.48,0.48 -1.072,0.88 -1.76,0.88 -1.072,0 -1.776,-0.656 -1.776,-1.712 0,-0.976 0.8,-1.728 1.776,-1.728 0.608,0 1.216,0.16 1.76,0.432 z"
         style="font-size:16px;line-height:1.25"
         id="path146" />
      <path
         d="m 134.55259,336.61511 v -5.2 c 0,-1.168 -0.896,-2.16 -2.048,-2.16 -0.96,0 -1.808,0.544 -2.496,1.216 v -1.056 h -1.248 v 7.2 h 1.248 v -5.648 c 0.544,-0.544 1.216,-0.976 1.968,-0.976 0.752,0 1.328,0.656 1.328,1.424 v 5.2 z"
         style="font-size:16px;line-height:1.25"
         id="path148" />
      <path
         d="m 141.89656,334.56711 c 0,-1.264 -1.344,-1.92 -2.656,-2.24 -0.768,-0.192 -1.6,-0.512 -1.6,-1.264 0,-0.688 0.704,-1.136 1.472,-1.136 0.848,0 1.696,0.256 2.4,0.72 v -0.672 c -0.704,-0.464 -1.552,-0.72 -2.4,-0.72 -1.392,0 -2.672,0.848 -2.672,2.144 0,1.168 1.296,1.712 2.528,2.016 0.848,0.208 1.728,0.656 1.728,1.472 0,0.752 -0.768,1.216 -1.584,1.216 -0.992,0 -1.952,-0.24 -2.8,-0.72 v 0.672 c 0.848,0.48 1.808,0.72 2.8,0.72 1.44,0 2.784,-0.864 2.784,-2.208 z"
         style="font-size:16px;line-height:1.25"
         id="path150" />
      <path
         d="m 146.82455,336.05511 v -0.48 c -0.304,0.256 -0.656,0.464 -1.056,0.464 -0.592,0 -0.704,-0.736 -0.704,-1.424 v -5.2 h -1.248 v 5.2 c 0,1.072 0.416,2.16 1.36,2.16 0.608,0 1.184,-0.304 1.648,-0.72 z m -1.6,-9.136 c 0,-0.432 -0.352,-0.784 -0.784,-0.784 -0.432,0 -0.784,0.352 -0.784,0.784 0,0.432 0.352,0.784 0.784,0.784 0.432,0 0.784,-0.352 0.784,-0.784 z"
         style="font-size:16px;line-height:1.25"
         id="path152" />
      <path
         d="m 153.28853,334.56711 c 0,-1.264 -1.344,-1.92 -2.656,-2.24 -0.768,-0.192 -1.6,-0.512 -1.6,-1.264 0,-0.688 0.704,-1.136 1.472,-1.136 0.848,0 1.696,0.256 2.4,0.72 v -0.672 c -0.704,-0.464 -1.552,-0.72 -2.4,-0.72 -1.392,0 -2.672,0.848 -2.672,2.144 0,1.168 1.296,1.712 2.528,2.016 0.848,0.208 1.728,0.656 1.728,1.472 0,0.752 -0.768,1.216 -1.584,1.216 -0.992,0 -1.952,-0.24 -2.8,-0.72 v 0.672 c 0.848,0.48 1.808,0.72 2.8,0.72 1.44,0 2.784,-0.864 2.784,-2.208 z"
         style="font-size:16px;line-height:1.25"
         id="path154" />
      <path
         d="m 158.68051,336.05511 v -0.48 c -0.256,0.256 -0.56,0.464 -0.928,0.464 -0.576,0 -0.608,-0.752 -0.608,-1.424 v -4.528 h 1.536 v -0.672 h -1.536 v -2.4 h -0.752 c 0,1.28 -0.736,2.48 -1.904,2.48 v 0.592 h 1.408 v 4.528 c 0,1.056 0.336,2.16 1.248,2.16 0.592,0 1.104,-0.32 1.536,-0.72 z"
         style="font-size:16px;line-height:1.25"
         id="path156" />
      <path
         d="m 166.23249,333.01511 c 0,-2.448 -1.088,-3.76 -3.088,-3.76 -2.016,0 -3.104,1.312 -3.104,3.76 0,2.448 1.088,3.76 3.104,3.76 2,0 3.088,-1.312 3.088,-3.76 z m -1.408,0 c 0,2 -0.592,3.088 -1.68,3.088 -1.104,0 -1.696,-1.088 -1.696,-3.088 0,-2 0.592,-3.088 1.696,-3.088 1.088,0 1.68,1.088 1.68,3.088 z"
         style="font-size:16px;line-height:1.25"
         id="path158" />
      <path
         d="m 172.37649,330.40711 v -0.992 c -0.176,-0.064 -0.368,-0.112 -0.544,-0.112 -0.896,0 -1.616,0.624 -2.192,1.312 v -1.2 h -1.248 v 7.2 h 1.248 v -5.328 c 0.48,-0.56 1.088,-1.04 1.824,-1.04 0.304,0 0.624,0.064 0.912,0.16 z"
         style="font-size:16px;line-height:1.25"
         id="path160" />
      <path
         d="m 191.38444,336.61511 -0.64,-11.2 h -1.056 l -4.496,9.456 -4.512,-9.456 h -1.056 l -0.64,11.2 h 0.736 l 0.512,-9.072 4.336,9.072 h 0.592 l 4.384,-9.184 0.528,9.184 z"
         style="font-size:16px;line-height:1.25"
         id="path162" />
      <path
         d="m 203.30442,331.01511 c 0,-3.392 -1.76,-5.76 -4.992,-5.76 -3.248,0 -5.008,2.368 -5.008,5.76 0,3.392 1.76,5.76 5.008,5.76 3.232,0 4.992,-2.368 4.992,-5.76 z m -1.568,0 c 0,2.8 -0.928,5.024 -3.424,5.024 -2.512,0 -3.44,-2.224 -3.44,-5.024 0,-2.8 0.928,-5.024 3.44,-5.024 2.496,0 3.424,2.224 3.424,5.024 z"
         style="font-size:16px;line-height:1.25"
         id="path164" />
      <path
         d="m 213.6564,333.36711 c 0,-1.968 -2,-3.136 -4.064,-3.568 -1.376,-0.288 -2.928,-0.64 -2.928,-1.92 0,-1.264 1.36,-1.984 2.768,-1.984 1.296,0 2.56,0.384 3.584,1.184 v -0.64 c -1.024,-0.8 -2.288,-1.28 -3.584,-1.28 -2.08,0 -4.032,1.168 -4.032,3.056 0,1.808 1.952,2.72 3.856,3.12 1.52,0.32 3.136,0.944 3.136,2.368 0,1.456 -1.424,2.432 -2.96,2.432 -1.488,0 -2.96,-0.384 -4.208,-1.184 v 0.64 c 1.264,0.8 2.704,1.28 4.208,1.28 2.208,0 4.224,-1.424 4.224,-3.504 z"
         style="font-size:16px;line-height:1.25"
         id="path166" />
      <path
         d="m 226.85637,336.61511 v -4.48 c 0,-1.504 -0.928,-2.88 -2.32,-2.88 -1.024,0 -1.984,0.352 -2.848,0.896 v 0.496 c 0.72,-0.4 1.52,-0.656 2.352,-0.656 0.992,0 1.568,1.056 1.568,2.144 v 0.288 c -0.624,-0.272 -1.296,-0.432 -1.968,-0.432 -1.712,0 -2.976,0.784 -2.976,2.4 0,1.536 1.12,2.384 2.736,2.384 0.816,0 1.568,-0.368 2.208,-0.88 v 0.72 z m -1.248,-1.392 c -0.48,0.48 -1.072,0.88 -1.76,0.88 -1.072,0 -1.776,-0.656 -1.776,-1.712 0,-0.976 0.8,-1.728 1.776,-1.728 0.608,0 1.216,0.16 1.76,0.432 z m -0.896,-6.816 c -0.624,-0.864 -0.96,-1.92 -0.96,-2.992 h -1.44 c 0,1.2 0.88,2.144 1.728,2.992 z"
         style="font-size:16px;line-height:1.25"
         id="path168" />
      <path
         d="m 239.92832,331.07911 v -0.672 c -0.512,-0.72 -1.344,-1.152 -2.24,-1.152 -2,0 -3.344,1.504 -3.344,3.76 0,2.256 1.344,3.76 3.344,3.76 0.832,0 1.616,-0.416 2.08,-1.104 v -0.672 c -0.544,0.816 -1.104,1.104 -2.08,1.104 -1.152,0 -1.936,-1.232 -1.936,-3.088 0,-1.856 0.784,-3.088 1.936,-3.088 0.992,0 1.664,0.352 2.24,1.152 z"
         style="font-size:16px;line-height:1.25"
         id="path170" />
      <path
         d="m 247.24031,336.61511 v -4.48 c 0,-1.504 -0.928,-2.88 -2.32,-2.88 -1.024,0 -1.984,0.352 -2.848,0.896 v 0.496 c 0.72,-0.4 1.52,-0.656 2.352,-0.656 0.992,0 1.568,1.056 1.568,2.144 v 0.288 c -0.624,-0.272 -1.296,-0.432 -1.968,-0.432 -1.712,0 -2.976,0.784 -2.976,2.4 0,1.536 1.12,2.384 2.736,2.384 0.816,0 1.568,-0.368 2.208,-0.88 v 0.72 z m -1.248,-1.392 c -0.48,0.48 -1.072,0.88 -1.76,0.88 -1.072,0 -1.776,-0.656 -1.776,-1.712 0,-0.976 0.8,-1.728 1.776,-1.728 0.608,0 1.216,0.16 1.76,0.432 z"
         style="font-size:16px;line-height:1.25"
         id="path172" />
      <path
         d="m 255.59229,336.61511 v -5.2 c 0,-1.168 -0.896,-2.16 -2.048,-2.16 -0.96,0 -1.808,0.544 -2.496,1.216 v -1.056 h -1.248 v 7.2 h 1.248 v -5.648 c 0.544,-0.544 1.216,-0.976 1.968,-0.976 0.752,0 1.328,0.656 1.328,1.424 v 5.2 z"
         style="font-size:16px;line-height:1.25"
         id="path174" />
      <path
         d="m 263.70427,336.61511 v -4.48 c 0,-1.504 -0.928,-2.88 -2.32,-2.88 -1.024,0 -1.984,0.352 -2.848,0.896 v 0.496 c 0.72,-0.4 1.52,-0.656 2.352,-0.656 0.992,0 1.568,1.056 1.568,2.144 v 0.288 c -0.624,-0.272 -1.296,-0.432 -1.968,-0.432 -1.712,0 -2.976,0.784 -2.976,2.4 0,1.536 1.12,2.384 2.736,2.384 0.816,0 1.568,-0.368 2.208,-0.88 v 0.72 z m -1.248,-1.392 c -0.48,0.48 -1.072,0.88 -1.76,0.88 -1.072,0 -1.776,-0.656 -1.776,-1.712 0,-0.976 0.8,-1.728 1.776,-1.728 0.608,0 1.216,0.16 1.76,0.432 z"
         style="font-size:16px;line-height:1.25"
         id="path176" />
      <path
         d="m 269.27225,336.05511 v -0.48 c -0.304,0.256 -0.656,0.464 -1.056,0.464 -0.592,0 -0.704,-0.736 -0.704,-1.424 v -9.2 h -1.248 v 9.2 c 0,1.072 0.416,2.16 1.36,2.16 0.608,0 1.184,-0.304 1.648,-0.72 z"
         style="font-size:16px;line-height:1.25"
         id="path178" />
      <path
         d="m 284.9202,328.45511 c 0,-2.256 -1.936,-3.2 -4.448,-3.2 -0.896,0 -1.792,0.048 -2.672,0.16 h -1.28 v 11.2 h 1.312 v -5.2 c 0.864,0.16 1.76,0.256 2.64,0.256 2.512,0 4.448,-0.944 4.448,-3.216 z m -1.568,0 c 0,1.456 -1.36,2.48 -2.88,2.48 -0.88,0 -1.776,-0.096 -2.64,-0.256 v -4.528 c 0.88,-0.112 1.76,-0.16 2.64,-0.16 1.52,0 2.88,1.024 2.88,2.464 z"
         style="font-size:16px;line-height:1.25"
         id="path180" />
      <path
         d="m 295.33616,340.29511 c -1.168,-2.592 -1.6,-4.592 -1.6,-7.44 0,-2.848 0.432,-4.848 1.6,-7.44 h -0.672 c -1.584,2.464 -2.176,4.512 -2.176,7.44 0,2.928 0.592,4.976 2.176,7.44 z"
         style="font-size:16px;line-height:1.25"
         id="path182" />
      <path
         d="m 306.13614,328.45511 c 0,-2.256 -1.936,-3.2 -4.448,-3.2 -0.896,0 -1.792,0.048 -2.672,0.16 h -1.28 v 11.2 h 1.312 v -5.2 c 0.864,0.16 1.76,0.256 2.64,0.256 2.512,0 4.448,-0.944 4.448,-3.216 z m -1.568,0 c 0,1.456 -1.36,2.48 -2.88,2.48 -0.88,0 -1.776,-0.096 -2.64,-0.256 v -4.528 c 0.88,-0.112 1.76,-0.16 2.64,-0.16 1.52,0 2.88,1.024 2.88,2.464 z"
         style="fill:#006680"
         id="path184" />
      <path
         d="m 320.45613,336.61511 -0.64,-11.2 h -1.056 l -4.496,9.456 -4.512,-9.456 h -1.056 l -0.64,11.2 h 0.736 l 0.512,-9.072 4.336,9.072 h 0.592 l 4.384,-9.184 0.528,9.184 z"
         style="fill:#006680"
         id="path186" />
      <path
         d="m 332.37611,331.01511 c 0,-3.392 -1.76,-5.76 -4.992,-5.76 -3.248,0 -5.008,2.368 -5.008,5.76 0,3.392 1.76,5.76 5.008,5.76 3.232,0 4.992,-2.368 4.992,-5.76 z m -1.568,0 c 0,2.8 -0.928,5.024 -3.424,5.024 -2.512,0 -3.44,-2.224 -3.44,-5.024 0,-2.8 0.928,-5.024 3.44,-5.024 2.496,0 3.424,2.224 3.424,5.024 z"
         style="fill:#006680"
         id="path188" />
      <path
         d="m 342.72809,333.36711 c 0,-1.968 -2,-3.136 -4.064,-3.568 -1.376,-0.288 -2.928,-0.64 -2.928,-1.92 0,-1.264 1.36,-1.984 2.768,-1.984 1.296,0 2.56,0.384 3.584,1.184 v -0.64 c -1.024,-0.8 -2.288,-1.28 -3.584,-1.28 -2.08,0 -4.032,1.168 -4.032,3.056 0,1.808 1.952,2.72 3.856,3.12 1.52,0.32 3.136,0.944 3.136,2.368 0,1.456 -1.424,2.432 -2.96,2.432 -1.488,0 -2.96,-0.384 -4.208,-1.184 v 0.64 c 1.264,0.8 2.704,1.28 4.208,1.28 2.208,0 4.224,-1.424 4.224,-3.504 z"
         style="fill:#006680"
         id="path190" />
      <path
         d="m 347.33608,332.85511 c 0,-2.928 -0.592,-4.976 -2.176,-7.44 h -0.672 c 1.168,2.592 1.6,4.592 1.6,7.44 0,2.848 -0.432,4.848 -1.6,7.44 h 0.672 c 1.584,-2.464 2.176,-4.512 2.176,-7.44 z"
         style="font-size:16px;line-height:1.25"
         id="path192" />
    </g>
    <g
       aria-label="Transistor MOS à canal N (NMOS)"
       id="text5889"
       style="line-height:0%;font-family:Iwona;-inkscape-font-specification:Sans;text-align:center;letter-spacing:0px;word-spacing:0px;text-anchor:middle">
      <path
         d="m 113.36869,680.48095 v -0.736 h -8.8 v 0.736 h 3.744 v 10.464 h 1.312 v -10.464 z"
         style="font-size:16px;line-height:1.25"
         id="path195" />
      <path
         d="m 117.51266,684.73695 v -0.992 c -0.176,-0.064 -0.368,-0.112 -0.544,-0.112 -0.896,0 -1.616,0.624 -2.192,1.312 v -1.2 h -1.248 v 7.2 h 1.248 v -5.328 c 0.48,-0.56 1.088,-1.04 1.824,-1.04 0.304,0 0.624,0.064 0.912,0.16 z"
         style="font-size:16px;line-height:1.25"
         id="path197" />
      <path
         d="m 124.55263,690.94495 v -4.48 c 0,-1.504 -0.92801,-2.88 -2.32,-2.88 -1.02401,0 -1.984,0.352 -2.848,0.896 v 0.496 c 0.72,-0.4 1.51999,-0.656 2.352,-0.656 0.99199,0 1.568,1.056 1.568,2.144 v 0.288 c -0.624,-0.272 -1.29601,-0.432 -1.96801,-0.432 -1.712,0 -2.97599,0.784 -2.97599,2.4 0,1.536 1.12,2.384 2.736,2.384 0.816,0 1.568,-0.368 2.208,-0.88 v 0.72 z m -1.248,-1.392 c -0.48001,0.48 -1.072,0.88 -1.76001,0.88 -1.072,0 -1.77599,-0.656 -1.77599,-1.712 0,-0.976 0.79999,-1.728 1.77599,-1.728 0.60801,0 1.21601,0.16 1.76001,0.432 z"
         style="font-size:16px;line-height:1.25"
         id="path199" />
      <path
         d="m 132.90461,690.94495 v -5.2 c 0,-1.168 -0.896,-2.16 -2.048,-2.16 -0.96,0 -1.808,0.544 -2.496,1.216 v -1.056 h -1.248 v 7.2 h 1.248 v -5.648 c 0.544,-0.544 1.216,-0.976 1.968,-0.976 0.752,0 1.328,0.656 1.328,1.424 v 5.2 z"
         style="font-size:16px;line-height:1.25"
         id="path201" />
      <path
         d="m 140.24858,688.89695 c 0,-1.264 -1.344,-1.92 -2.656,-2.24 -0.768,-0.192 -1.6,-0.512 -1.6,-1.264 0,-0.688 0.704,-1.136 1.472,-1.136 0.848,0 1.696,0.256 2.4,0.72 v -0.672 c -0.704,-0.464 -1.552,-0.72 -2.4,-0.72 -1.392,0 -2.672,0.848 -2.672,2.144 0,1.168 1.296,1.712 2.528,2.016 0.848,0.208 1.728,0.656 1.728,1.472 0,0.752 -0.768,1.216 -1.584,1.216 -0.992,0 -1.952,-0.24 -2.8,-0.72 v 0.672 c 0.848,0.48 1.808,0.72 2.8,0.72 1.44,0 2.784,-0.864 2.784,-2.208 z"
         style="font-size:16px;line-height:1.25"
         id="path203" />
      <path
         d="m 145.17657,690.38495 v -0.48 c -0.304,0.256 -0.656,0.464 -1.056,0.464 -0.592,0 -0.704,-0.736 -0.704,-1.424 v -5.2 h -1.248 v 5.2 c 0,1.072 0.416,2.16 1.36,2.16 0.608,0 1.184,-0.304 1.648,-0.72 z m -1.6,-9.136 c 0,-0.432 -0.352,-0.784 -0.784,-0.784 -0.432,0 -0.784,0.352 -0.784,0.784 0,0.432 0.352,0.784 0.784,0.784 0.432,0 0.784,-0.352 0.784,-0.784 z"
         style="font-size:16px;line-height:1.25"
         id="path205" />
      <path
         d="m 151.64055,688.89695 c 0,-1.264 -1.344,-1.92 -2.656,-2.24 -0.768,-0.192 -1.6,-0.512 -1.6,-1.264 0,-0.688 0.704,-1.136 1.472,-1.136 0.848,0 1.696,0.256 2.4,0.72 v -0.672 c -0.704,-0.464 -1.552,-0.72 -2.4,-0.72 -1.392,0 -2.672,0.848 -2.672,2.144 0,1.168 1.296,1.712 2.528,2.016 0.848,0.208 1.728,0.656 1.728,1.472 0,0.752 -0.768,1.216 -1.584,1.216 -0.992,0 -1.952,-0.24 -2.8,-0.72 v 0.672 c 0.848,0.48 1.808,0.72 2.8,0.72 1.44,0 2.784,-0.864 2.784,-2.208 z"
         style="font-size:16px;line-height:1.25"
         id="path207" />
      <path
         d="m 157.03253,690.38495 v -0.48 c -0.256,0.256 -0.56,0.464 -0.928,0.464 -0.576,0 -0.608,-0.752 -0.608,-1.424 v -4.528 h 1.536 v -0.672 h -1.536 v -2.4 h -0.752 c 0,1.28 -0.736,2.48 -1.904,2.48 v 0.592 h 1.408 v 4.528 c 0,1.056 0.336,2.16 1.248,2.16 0.592,0 1.104,-0.32 1.536,-0.72 z"
         style="font-size:16px;line-height:1.25"
         id="path209" />
      <path
         d="m 164.58451,687.34495 c 0,-2.448 -1.088,-3.76 -3.088,-3.76 -2.016,0 -3.104,1.312 -3.104,3.76 0,2.448 1.088,3.76 3.104,3.76 2,0 3.088,-1.312 3.088,-3.76 z m -1.408,0 c 0,2 -0.592,3.088 -1.68,3.088 -1.104,0 -1.696,-1.088 -1.696,-3.088 0,-2 0.592,-3.088 1.696,-3.088 1.088,0 1.68,1.088 1.68,3.088 z"
         style="font-size:16px;line-height:1.25"
         id="path211" />
      <path
         d="m 170.72851,684.73695 v -0.992 c -0.176,-0.064 -0.368,-0.112 -0.544,-0.112 -0.896,0 -1.616,0.624 -2.192,1.312 v -1.2 h -1.248 v 7.2 h 1.248 v -5.328 c 0.48,-0.56 1.088,-1.04 1.824,-1.04 0.304,0 0.624,0.064 0.912,0.16 z"
         style="font-size:16px;line-height:1.25"
         id="path213" />
      <path
         d="m 189.73646,690.94495 -0.64,-11.2 h -1.056 l -4.496,9.456 -4.512,-9.456 h -1.056 l -0.64,11.2 h 0.736 l 0.512,-9.072 4.336,9.072 h 0.592 l 4.384,-9.184 0.528,9.184 z"
         style="font-size:16px;line-height:1.25"
         id="path215" />
      <path
         d="m 201.65644,685.34495 c 0,-3.392 -1.76,-5.76 -4.992,-5.76 -3.248,0 -5.008,2.368 -5.008,5.76 0,3.392 1.76,5.76 5.008,5.76 3.232,0 4.992,-2.368 4.992,-5.76 z m -1.568,0 c 0,2.8 -0.928,5.024 -3.424,5.024 -2.512,0 -3.44,-2.224 -3.44,-5.024 0,-2.8 0.928,-5.024 3.44,-5.024 2.496,0 3.424,2.224 3.424,5.024 z"
         style="font-size:16px;line-height:1.25"
         id="path217" />
      <path
         d="m 212.00842,687.69695 c 0,-1.968 -2,-3.136 -4.064,-3.568 -1.376,-0.288 -2.928,-0.64 -2.928,-1.92 0,-1.264 1.36,-1.984 2.768,-1.984 1.296,0 2.56,0.384 3.584,1.184 v -0.64 c -1.024,-0.8 -2.288,-1.28 -3.584,-1.28 -2.08,0 -4.032,1.168 -4.032,3.056 0,1.808 1.952,2.72 3.856,3.12 1.52,0.32 3.136,0.944 3.136,2.368 0,1.456 -1.424,2.432 -2.96,2.432 -1.488,0 -2.96,-0.384 -4.208,-1.184 v 0.64 c 1.264,0.8 2.704,1.28 4.208,1.28 2.208,0 4.224,-1.424 4.224,-3.504 z"
         style="font-size:16px;line-height:1.25"
         id="path219" />
      <path
         d="m 225.20839,690.94495 v -4.48 c 0,-1.504 -0.928,-2.88 -2.32,-2.88 -1.024,0 -1.984,0.352 -2.848,0.896 v 0.496 c 0.72,-0.4 1.52,-0.656 2.352,-0.656 0.992,0 1.568,1.056 1.568,2.144 v 0.288 c -0.624,-0.272 -1.296,-0.432 -1.968,-0.432 -1.712,0 -2.976,0.784 -2.976,2.4 0,1.536 1.12,2.384 2.736,2.384 0.816,0 1.568,-0.368 2.208,-0.88 v 0.72 z m -1.248,-1.392 c -0.48,0.48 -1.072,0.88 -1.76,0.88 -1.072,0 -1.776,-0.656 -1.776,-1.712 0,-0.976 0.8,-1.728 1.776,-1.728 0.608,0 1.216,0.16 1.76,0.432 z m -0.896,-6.816 c -0.624,-0.864 -0.96,-1.92 -0.96,-2.992 h -1.44 c 0,1.2 0.88,2.144 1.728,2.992 z"
         style="font-size:16px;line-height:1.25"
         id="path221" />
      <path
         d="m 238.28035,685.40895 v -0.672 c -0.512,-0.72 -1.344,-1.152 -2.24,-1.152 -2,0 -3.344,1.504 -3.344,3.76 0,2.256 1.344,3.76 3.344,3.76 0.832,0 1.616,-0.416 2.08,-1.104 v -0.672 c -0.544,0.816 -1.104,1.104 -2.08,1.104 -1.152,0 -1.936,-1.232 -1.936,-3.088 0,-1.856 0.784,-3.088 1.936,-3.088 0.992,0 1.664,0.352 2.24,1.152 z"
         style="font-size:16px;line-height:1.25"
         id="path223" />
      <path
         d="m 245.59233,690.94495 v -4.48 c 0,-1.504 -0.928,-2.88 -2.32,-2.88 -1.024,0 -1.984,0.352 -2.848,0.896 v 0.496 c 0.72,-0.4 1.52,-0.656 2.352,-0.656 0.992,0 1.568,1.056 1.568,2.144 v 0.288 c -0.624,-0.272 -1.296,-0.432 -1.968,-0.432 -1.712,0 -2.976,0.784 -2.976,2.4 0,1.536 1.12,2.384 2.736,2.384 0.816,0 1.568,-0.368 2.208,-0.88 v 0.72 z m -1.248,-1.392 c -0.48,0.48 -1.072,0.88 -1.76,0.88 -1.072,0 -1.776,-0.656 -1.776,-1.712 0,-0.976 0.8,-1.728 1.776,-1.728 0.608,0 1.216,0.16 1.76,0.432 z"
         style="font-size:16px;line-height:1.25"
         id="path225" />
      <path
         d="m 253.94431,690.94495 v -5.2 c 0,-1.168 -0.896,-2.16 -2.048,-2.16 -0.96,0 -1.808,0.544 -2.496,1.216 v -1.056 h -1.248 v 7.2 h 1.248 v -5.648 c 0.544,-0.544 1.216,-0.976 1.968,-0.976 0.752,0 1.328,0.656 1.328,1.424 v 5.2 z"
         style="font-size:16px;line-height:1.25"
         id="path227" />
      <path
         d="m 262.05629,690.94495 v -4.48 c 0,-1.504 -0.928,-2.88 -2.32,-2.88 -1.024,0 -1.984,0.352 -2.848,0.896 v 0.496 c 0.72,-0.4 1.52,-0.656 2.352,-0.656 0.992,0 1.568,1.056 1.568,2.144 v 0.288 c -0.624,-0.272 -1.296,-0.432 -1.968,-0.432 -1.712,0 -2.976,0.784 -2.976,2.4 0,1.536 1.12,2.384 2.736,2.384 0.816,0 1.568,-0.368 2.208,-0.88 v 0.72 z m -1.248,-1.392 c -0.48,0.48 -1.072,0.88 -1.76,0.88 -1.072,0 -1.776,-0.656 -1.776,-1.712 0,-0.976 0.8,-1.728 1.776,-1.728 0.608,0 1.216,0.16 1.76,0.432 z"
         style="font-size:16px;line-height:1.25"
         id="path229" />
      <path
         d="m 267.62427,690.38495 v -0.48 c -0.304,0.256 -0.656,0.464 -1.056,0.464 -0.592,0 -0.704,-0.736 -0.704,-1.424 v -9.2 h -1.248 v 9.2 c 0,1.072 0.416,2.16 1.36,2.16 0.608,0 1.184,-0.304 1.648,-0.72 z"
         style="font-size:16px;line-height:1.25"
         id="path231" />
      <path
         d="m 284.28022,690.94495 v -11.2 h -0.736 v 9.408 l -7.712,-9.408 h -0.96 v 11.2 h 0.736 v -9.408 l 7.712,9.408 z"
         style="font-size:16px;line-height:1.25"
         id="path233" />
      <path
         d="m 295.33616,694.62495 c -1.168,-2.592 -1.6,-4.592 -1.6,-7.44 0,-2.848 0.432,-4.848 1.6,-7.44 h -0.672 c -1.584,2.464 -2.176,4.512 -2.176,7.44 0,2.928 0.592,4.976 2.176,7.44 z"
         style="font-size:16px;line-height:1.25"
         id="path235" />
      <path
         d="m 307.14414,690.94495 v -11.2 h -0.736 v 9.408 l -7.712,-9.408 h -0.96 v 11.2 h 0.736 v -9.408 l 7.712,9.408 z"
         style="fill:#006680"
         id="path237" />
      <path
         d="m 322.10411,690.94495 -0.64,-11.2 h -1.056 l -4.496,9.456 -4.512,-9.456 h -1.056 l -0.64,11.2 h 0.736 l 0.512,-9.072 4.336,9.072 h 0.592 l 4.384,-9.184 0.528,9.184 z"
         style="fill:#006680"
         id="path239" />
      <path
         d="m 334.02409,685.34495 c 0,-3.392 -1.76,-5.76 -4.992,-5.76 -3.248,0 -5.008,2.368 -5.008,5.76 0,3.392 1.76,5.76 5.008,5.76 3.232,0 4.992,-2.368 4.992,-5.76 z m -1.568,0 c 0,2.8 -0.928,5.024 -3.424,5.024 -2.512,0 -3.44,-2.224 -3.44,-5.024 0,-2.8 0.928,-5.024 3.44,-5.024 2.496,0 3.424,2.224 3.424,5.024 z"
         style="fill:#006680"
         id="path241" />
      <path
         d="m 344.37607,687.69695 c 0,-1.968 -2,-3.136 -4.064,-3.568 -1.376,-0.288 -2.928,-0.64 -2.928,-1.92 0,-1.264 1.36,-1.984 2.768,-1.984 1.296,0 2.56,0.384 3.584,1.184 v -0.64 c -1.024,-0.8 -2.288,-1.28 -3.584,-1.28 -2.08,0 -4.032,1.168 -4.032,3.056 0,1.808 1.952,2.72 3.856,3.12 1.52,0.32 3.136,0.944 3.136,2.368 0,1.456 -1.424,2.432 -2.96,2.432 -1.488,0 -2.96,-0.384 -4.208,-1.184 v 0.64 c 1.264,0.8 2.704,1.28 4.208,1.28 2.208,0 4.224,-1.424 4.224,-3.504 z"
         style="fill:#006680"
         id="path243" />
      <path
         d="m 348.98406,687.18495 c 0,-2.928 -0.592,-4.976 -2.176,-7.44 h -0.672 c 1.168,2.592 1.6,4.592 1.6,7.44 0,2.848 -0.432,4.848 -1.6,7.44 h 0.672 c 1.584,-2.464 2.176,-4.512 2.176,-7.44 z"
         style="font-size:16px;line-height:1.25"
         id="path245" />
    </g>
    <g
       id="g35110"
       transform="translate(-1254.3308,1771.6546)">
      <path
         transform="translate(0,-2490.9448)"
         id="path35112"
         d="m 1675.9843,1080.7085 h 21.2598"
         style="fill:none;stroke:#000000;stroke-width:2;stroke-linecap:butt;stroke-linejoin:miter;stroke-miterlimit:4;stroke-dasharray:none;stroke-opacity:1" />
      <g
         aria-label="VDD"
         id="text35114"
         style="line-height:0%;font-family:Iwona;-inkscape-font-specification:Sans;text-align:center;letter-spacing:0px;word-spacing:0px;text-anchor:middle">
        <path
           d="m 1683.7148,-1428.523 h -0.784 l -3.712,9.504 -3.696,-9.504 h -1.408 l 4.368,11.2 h 0.864 z"
           style="font-size:16px;line-height:1.25"
           id="path248" />
        <path
           d="m 1691.0301,-1417.763 c 0,-2.2257 -1.2168,-3.7441 -3.3592,-3.7441 -0.6448,0 -1.2896,0.031 -1.924,0.104 h -0.8321 v 7.2801 h 0.8321 c 0.6344,0.073 1.2792,0.104 1.924,0.104 2.1424,0 3.3592,-1.5184 3.3592,-3.744 z m -1.0192,0 c 0,1.6536 -0.8424,3.2656 -2.34,3.2656 -0.6344,0 -1.2688,-0.031 -1.9032,-0.104 v -6.3233 c 0.6344,-0.073 1.2688,-0.104 1.9032,-0.104 1.4976,0 2.34,1.612 2.34,3.2657 z"
           style="font-size:65.0009%;baseline-shift:sub"
           id="path250" />
        <path
           d="m 1698.8094,-1417.763 c 0,-2.2257 -1.2168,-3.7441 -3.3592,-3.7441 -0.6448,0 -1.2896,0.031 -1.924,0.104 h -0.8321 v 7.2801 h 0.8321 c 0.6344,0.073 1.2792,0.104 1.924,0.104 2.1424,0 3.3592,-1.5184 3.3592,-3.744 z m -1.0192,0 c 0,1.6536 -0.8424,3.2656 -2.34,3.2656 -0.6344,0 -1.2688,-0.031 -1.9032,-0.104 v -6.3233 c 0.6344,-0.073 1.2688,-0.104 1.9032,-0.104 1.4976,0 2.34,1.612 2.34,3.2657 z"
           style="font-size:65.0009%;baseline-shift:sub"
           id="path252" />
      </g>
      <path
         style="fill:none;stroke:#000000;stroke-width:1px;stroke-linecap:butt;stroke-linejoin:miter;stroke-opacity:1"
         d="m 1566.1417,708.66122 v 17.71653"
         id="path35118"
         transform="translate(120.4724,-2118.8976)" />
    </g>
    <g
       transform="translate(-588.03951,2388.19)"
       id="g35122">
      <path
         transform="translate(0,-2490.9448)"
         id="path35124"
         d="m 1009.8425,754.72421 h 21.2599"
         style="fill:none;stroke:#000000;stroke-width:1px;stroke-linecap:butt;stroke-linejoin:miter;stroke-opacity:1" />
      <path
         style="fill:none;stroke:#000000;stroke-width:1px;stroke-linecap:butt;stroke-linejoin:miter;stroke-opacity:1"
         d="m 1013.3858,-1732.6773 h 14.1733"
         id="path35126" />
      <path
         id="path35128"
         d="m 1016.9291,-1729.134 h 7.0866"
         style="fill:none;stroke:#000000;stroke-width:1px;stroke-linecap:butt;stroke-linejoin:miter;stroke-opacity:1" />
      <path
         style="fill:none;stroke:#000000;stroke-width:1px;stroke-linecap:butt;stroke-linejoin:miter;stroke-opacity:1"
         d="m 1566.1417,754.72421 v 17.71653"
         id="path35130"
         transform="translate(-545.66934,-2508.6614)" />
      <g
         aria-label="VSS"
         id="text35114-6"
         style="line-height:0%;font-family:Iwona;-inkscape-font-specification:Sans;text-align:center;letter-spacing:0px;word-spacing:0px;text-anchor:middle">
        <path
           d="m 1018.6235,-1722.6175 h -0.784 l -3.712,9.504 -3.696,-9.504 h -1.408 l 4.368,11.2 h 0.864 z"
           style="font-size:16px;line-height:1.25"
           id="path255" />
        <path
           d="m 1024.8884,-1710.3287 c 0,-1.2792 -1.3,-2.0384 -2.6416,-2.3192 -0.8944,-0.1872 -1.9033,-0.416 -1.9033,-1.2481 0,-0.8216 0.8841,-1.2896 1.7993,-1.2896 0.8424,0 1.664,0.2496 2.3296,0.7696 v -0.416 c -0.6656,-0.52 -1.4872,-0.832 -2.3296,-0.832 -1.3521,0 -2.6209,0.7592 -2.6209,1.9864 0,1.1753 1.2688,1.7681 2.5065,2.0281 0.988,0.208 2.0384,0.6136 2.0384,1.5392 0,0.9464 -0.9256,1.5808 -1.924,1.5808 -0.9672,0 -1.9241,-0.2496 -2.7353,-0.7696 v 0.416 c 0.8216,0.52 1.7577,0.832 2.7353,0.832 1.4352,0 2.7456,-0.9256 2.7456,-2.2776 z"
           style="font-size:65.0009%;baseline-shift:sub"
           id="path257" />
        <path
           d="m 1031.6173,-1710.3287 c 0,-1.2792 -1.3,-2.0384 -2.6416,-2.3192 -0.8945,-0.1872 -1.9033,-0.416 -1.9033,-1.2481 0,-0.8216 0.884,-1.2896 1.7993,-1.2896 0.8424,0 1.664,0.2496 2.3296,0.7696 v -0.416 c -0.6656,-0.52 -1.4872,-0.832 -2.3296,-0.832 -1.3521,0 -2.6209,0.7592 -2.6209,1.9864 0,1.1753 1.2688,1.7681 2.5064,2.0281 0.9881,0.208 2.0385,0.6136 2.0385,1.5392 0,0.9464 -0.9256,1.5808 -1.924,1.5808 -0.9673,0 -1.9241,-0.2496 -2.7353,-0.7696 v 0.416 c 0.8216,0.52 1.7576,0.832 2.7353,0.832 1.4352,0 2.7456,-0.9256 2.7456,-2.2776 z"
           style="font-size:65.0009%;baseline-shift:sub"
           id="path259" />
      </g>
    </g>
    <g
       aria-label="Tension de référence
pour un 1 logique"
       id="text35488"
       style="line-height:0%;font-family:Iwona;-inkscape-font-specification:Sans;letter-spacing:0px;word-spacing:0px">
      <path
         d="m 491.00977,342.94188 v -0.736 h -8.8 v 0.736 h 3.744 v 10.464 h 1.312 v -10.464 z"
         style="font-size:16px;line-height:1.25"
         id="path262" />
      <path
         d="m 496.86573,349.96588 v -0.16 c 0,-2.256 -1.232,-3.76 -3.088,-3.76 -1.872,0 -3.104,1.504 -3.104,3.76 0,2.256 1.232,3.76 3.104,3.76 0.8,0 1.584,-0.256 2.24,-0.72 v -0.672 c -0.752,0.48 -1.36,0.656 -2.24,0.656 -1.36,0 -1.696,-1.296 -1.696,-2.864 z m -1.408,-0.672 h -3.376 c 0,-1.28 0.544,-2.576 1.696,-2.576 1.136,0 1.68,1.296 1.68,2.576 z"
         style="font-size:16px;line-height:1.25"
         id="path264" />
      <path
         d="m 504.73771,353.40588 v -5.2 c 0,-1.168 -0.896,-2.16 -2.048,-2.16 -0.96,0 -1.808,0.544 -2.496,1.216 v -1.056 h -1.248 v 7.2 h 1.248 v -5.648 c 0.544,-0.544 1.216,-0.976 1.968,-0.976 0.752,0 1.328,0.656 1.328,1.424 v 5.2 z"
         style="font-size:16px;line-height:1.25"
         id="path266" />
      <path
         d="m 512.08168,351.35788 c 0,-1.264 -1.344,-1.92 -2.656,-2.24 -0.768,-0.192 -1.6,-0.512 -1.6,-1.264 0,-0.688 0.704,-1.136 1.472,-1.136 0.848,0 1.696,0.256 2.4,0.72 v -0.672 c -0.704,-0.464 -1.552,-0.72 -2.4,-0.72 -1.392,0 -2.672,0.848 -2.672,2.144 0,1.168 1.296,1.712 2.528,2.016 0.848,0.208 1.728,0.656 1.728,1.472 0,0.752 -0.768,1.216 -1.584,1.216 -0.992,0 -1.952,-0.24 -2.8,-0.72 v 0.672 c 0.848,0.48 1.808,0.72 2.8,0.72 1.44,0 2.784,-0.864 2.784,-2.208 z"
         style="font-size:16px;line-height:1.25"
         id="path268" />
      <path
         d="m 517.00967,352.84588 v -0.48 c -0.304,0.256 -0.656,0.464 -1.056,0.464 -0.592,0 -0.704,-0.736 -0.704,-1.424 v -5.2 h -1.248 v 5.2 c 0,1.072 0.416,2.16 1.36,2.16 0.608,0 1.184,-0.304 1.648,-0.72 z m -1.6,-9.136 c 0,-0.432 -0.352,-0.784 -0.784,-0.784 -0.432,0 -0.784,0.352 -0.784,0.784 0,0.432 0.352,0.784 0.784,0.784 0.432,0 0.784,-0.352 0.784,-0.784 z"
         style="font-size:16px;line-height:1.25"
         id="path270" />
      <path
         d="m 524.40165,349.80588 c 0,-2.448 -1.088,-3.76 -3.088,-3.76 -2.016,0 -3.104,1.312 -3.104,3.76 0,2.448 1.088,3.76 3.104,3.76 2,0 3.088,-1.312 3.088,-3.76 z m -1.408,0 c 0,2 -0.592,3.088 -1.68,3.088 -1.104,0 -1.696,-1.088 -1.696,-3.088 0,-2 0.592,-3.088 1.696,-3.088 1.088,0 1.68,1.088 1.68,3.088 z"
         style="font-size:16px;line-height:1.25"
         id="path272" />
      <path
         d="m 532.35365,353.40588 v -5.2 c 0,-1.168 -0.896,-2.16 -2.048,-2.16 -0.96,0 -1.808,0.544 -2.496,1.216 v -1.056 h -1.248 v 7.2 h 1.248 v -5.648 c 0.544,-0.544 1.216,-0.976 1.968,-0.976 0.752,0 1.328,0.656 1.328,1.424 v 5.2 z"
         style="font-size:16px;line-height:1.25"
         id="path274" />
      <path
         d="m 545.95359,353.40588 v -11.2 h -1.248 v 4.272 c -0.624,-0.272 -1.296,-0.432 -1.968,-0.432 -2,0 -2.976,1.6 -2.976,3.76 0,2.128 0.8,3.76 2.736,3.76 0.816,0 1.568,-0.368 2.208,-0.88 v 0.72 z m -1.248,-1.392 c -0.48,0.48 -1.072,0.88 -1.76,0.88 -1.456,0 -1.776,-1.408 -1.776,-3.088 0,-1.504 0.464,-3.088 1.776,-3.088 0.608,0 1.216,0.16 1.76,0.432 z"
         style="font-size:16px;line-height:1.25"
         id="path276" />
      <path
         d="m 554.30558,349.96588 v -0.16 c 0,-2.256 -1.232,-3.76 -3.088,-3.76 -1.872,0 -3.104,1.504 -3.104,3.76 0,2.256 1.232,3.76 3.104,3.76 0.8,0 1.584,-0.256 2.24,-0.72 v -0.672 c -0.752,0.48 -1.36,0.656 -2.24,0.656 -1.36,0 -1.696,-1.296 -1.696,-2.864 z m -1.408,-0.672 h -3.376 c 0,-1.28 0.544,-2.576 1.696,-2.576 1.136,0 1.68,1.296 1.68,2.576 z"
         style="font-size:16px;line-height:1.25"
         id="path278" />
      <path
         d="m 565.69753,347.19788 v -0.992 c -0.176,-0.064 -0.368,-0.112 -0.544,-0.112 -0.896,0 -1.616,0.624 -2.192,1.312 v -1.2 h -1.248 v 7.2 h 1.248 v -5.328 c 0.48,-0.56 1.088,-1.04 1.824,-1.04 0.304,0 0.624,0.064 0.912,0.16 z"
         style="font-size:16px;line-height:1.25"
         id="path280" />
      <path
         d="m 573.08952,349.96588 v -0.16 c 0,-2.256 -1.232,-3.76 -3.088,-3.76 -1.872,0 -3.104,1.504 -3.104,3.76 0,2.256 1.232,3.76 3.104,3.76 0.8,0 1.584,-0.256 2.24,-0.72 v -0.672 c -0.752,0.48 -1.36,0.656 -2.24,0.656 -1.36,0 -1.696,-1.296 -1.696,-2.864 z m -1.408,-0.672 h -3.376 c 0,-1.28 0.544,-2.576 1.696,-2.576 1.136,0 1.68,1.296 1.68,2.576 z m 0.048,-7.088 h -1.44 c 0,1.072 -0.336,2.128 -0.96,2.992 h 0.672 c 0.848,-0.848 1.728,-1.792 1.728,-2.992 z"
         style="font-size:16px;line-height:1.25"
         id="path282" />
      <path
         d="m 578.3695,343.24588 v -0.496 c -0.48,-0.4 -1.056,-0.704 -1.68,-0.704 -0.928,0 -1.36,1.088 -1.36,2.16 v 2 h -1.12 v 0.672 h 1.12 v 6.528 h 1.248 v -6.528 h 1.12 v -0.672 h -1.12 v -2 c 0,-0.688 0.128,-1.424 0.72,-1.424 0.4,0 0.768,0.192 1.072,0.464 z"
         style="font-size:16px;line-height:1.25"
         id="path284" />
      <path
         d="m 585.08949,349.96588 v -0.16 c 0,-2.256 -1.232,-3.76 -3.088,-3.76 -1.872,0 -3.104,1.504 -3.104,3.76 0,2.256 1.232,3.76 3.104,3.76 0.8,0 1.584,-0.256 2.24,-0.72 v -0.672 c -0.752,0.48 -1.36,0.656 -2.24,0.656 -1.36,0 -1.696,-1.296 -1.696,-2.864 z m -1.408,-0.672 h -3.376 c 0,-1.28 0.544,-2.576 1.696,-2.576 1.136,0 1.68,1.296 1.68,2.576 z m 0.048,-7.088 h -1.44 c 0,1.072 -0.336,2.128 -0.96,2.992 h 0.672 c 0.848,-0.848 1.728,-1.792 1.728,-2.992 z"
         style="font-size:16px;line-height:1.25"
         id="path286" />
      <path
         d="m 591.15347,347.19788 v -0.992 c -0.176,-0.064 -0.368,-0.112 -0.544,-0.112 -0.896,0 -1.616,0.624 -2.192,1.312 v -1.2 h -1.248 v 7.2 h 1.248 v -5.328 c 0.48,-0.56 1.088,-1.04 1.824,-1.04 0.304,0 0.624,0.064 0.912,0.16 z"
         style="font-size:16px;line-height:1.25"
         id="path288" />
      <path
         d="m 598.54545,349.96588 v -0.16 c 0,-2.256 -1.232,-3.76 -3.088,-3.76 -1.872,0 -3.104,1.504 -3.104,3.76 0,2.256 1.232,3.76 3.104,3.76 0.8,0 1.584,-0.256 2.24,-0.72 v -0.672 c -0.752,0.48 -1.36,0.656 -2.24,0.656 -1.36,0 -1.696,-1.296 -1.696,-2.864 z m -1.408,-0.672 h -3.376 c 0,-1.28 0.544,-2.576 1.696,-2.576 1.136,0 1.68,1.296 1.68,2.576 z"
         style="font-size:16px;line-height:1.25"
         id="path290" />
      <path
         d="m 606.41743,353.40588 v -5.2 c 0,-1.168 -0.896,-2.16 -2.048,-2.16 -0.96,0 -1.808,0.544 -2.496,1.216 v -1.056 h -1.248 v 7.2 h 1.248 v -5.648 c 0.544,-0.544 1.216,-0.976 1.968,-0.976 0.752,0 1.328,0.656 1.328,1.424 v 5.2 z"
         style="font-size:16px;line-height:1.25"
         id="path292" />
      <path
         d="m 614.0814,347.86988 v -0.672 c -0.512,-0.72 -1.344,-1.152 -2.24,-1.152 -2,0 -3.344,1.504 -3.344,3.76 0,2.256 1.344,3.76 3.344,3.76 0.832,0 1.616,-0.416 2.08,-1.104 v -0.672 c -0.544,0.816 -1.104,1.104 -2.08,1.104 -1.152,0 -1.936,-1.232 -1.936,-3.088 0,-1.856 0.784,-3.088 1.936,-3.088 0.992,0 1.664,0.352 2.24,1.152 z"
         style="font-size:16px;line-height:1.25"
         id="path294" />
      <path
         d="m 621.55338,349.96588 v -0.16 c 0,-2.256 -1.232,-3.76 -3.088,-3.76 -1.872,0 -3.104,1.504 -3.104,3.76 0,2.256 1.232,3.76 3.104,3.76 0.8,0 1.584,-0.256 2.24,-0.72 v -0.672 c -0.752,0.48 -1.36,0.656 -2.24,0.656 -1.36,0 -1.696,-1.296 -1.696,-2.864 z m -1.408,-0.672 h -3.376 c 0,-1.28 0.544,-2.576 1.696,-2.576 1.136,0 1.68,1.296 1.68,2.576 z"
         style="font-size:16px;line-height:1.25"
         id="path296" />
      <path
         d="m 489.28177,369.80588 c 0,-2.128 -0.8,-3.76 -2.736,-3.76 -0.816,0 -1.568,0.368 -2.208,0.88 v -0.72 h -1.248 v 10.88 h 1.248 v -3.952 c 0.624,0.272 1.296,0.432 1.968,0.432 2,0 2.976,-1.6 2.976,-3.76 z m -1.408,0 c 0,1.504 -0.464,3.088 -1.776,3.088 -0.608,0 -1.216,-0.16 -1.76,-0.432 v -4.864 c 0.48,-0.48 1.072,-0.88 1.76,-0.88 1.456,0 1.776,1.408 1.776,3.088 z"
         style="font-size:16px;line-height:1.25"
         id="path298" />
      <path
         d="m 497.23374,369.80588 c 0,-2.448 -1.088,-3.76 -3.088,-3.76 -2.016,0 -3.104,1.312 -3.104,3.76 0,2.448 1.088,3.76 3.104,3.76 2,0 3.088,-1.312 3.088,-3.76 z m -1.408,0 c 0,2 -0.592,3.088 -1.68,3.088 -1.104,0 -1.696,-1.088 -1.696,-3.088 0,-2 0.592,-3.088 1.696,-3.088 1.088,0 1.68,1.088 1.68,3.088 z"
         style="font-size:16px;line-height:1.25"
         id="path300" />
      <path
         d="m 505.10574,373.40588 v -7.2 h -1.248 v 5.648 c -0.544,0.544 -1.216,0.976 -1.968,0.976 -0.752,0 -1.328,-0.656 -1.328,-1.424 v -5.2 h -1.248 v 5.2 c 0,1.168 0.896,2.16 2.048,2.16 0.96,0 1.808,-0.544 2.496,-1.216 v 1.056 z"
         style="font-size:16px;line-height:1.25"
         id="path302" />
      <path
         d="m 511.64971,367.19788 v -0.992 c -0.176,-0.064 -0.368,-0.112 -0.544,-0.112 -0.896,0 -1.616,0.624 -2.192,1.312 v -1.2 h -1.248 v 7.2 h 1.248 v -5.328 c 0.48,-0.56 1.088,-1.04 1.824,-1.04 0.304,0 0.624,0.064 0.912,0.16 z"
         style="font-size:16px;line-height:1.25"
         id="path304" />
      <path
         d="m 524.28967,373.40588 v -7.2 h -1.248 v 5.648 c -0.544,0.544 -1.216,0.976 -1.968,0.976 -0.752,0 -1.328,-0.656 -1.328,-1.424 v -5.2 h -1.248 v 5.2 c 0,1.168 0.896,2.16 2.048,2.16 0.96,0 1.808,-0.544 2.496,-1.216 v 1.056 z"
         style="font-size:16px;line-height:1.25"
         id="path306" />
      <path
         d="m 532.64164,373.40588 v -5.2 c 0,-1.168 -0.896,-2.16 -2.048,-2.16 -0.96,0 -1.808,0.544 -2.496,1.216 v -1.056 h -1.248 v 7.2 h 1.248 v -5.648 c 0.544,-0.544 1.216,-0.976 1.968,-0.976 0.752,0 1.328,0.656 1.328,1.424 v 5.2 z"
         style="font-size:16px;line-height:1.25"
         id="path308" />
      <path
         d="m 544.44959,373.40588 v -11.04 h -0.928 c -0.88,1.008 -1.92,1.872 -3.072,2.544 v 0.672 c 0.976,-0.464 1.888,-1.008 2.752,-1.664 v 9.488 z"
         style="font-size:16px;line-height:1.25"
         id="path310" />
      <path
         d="m 557.18555,372.84588 v -0.48 c -0.304,0.256 -0.656,0.464 -1.056,0.464 -0.592,0 -0.704,-0.736 -0.704,-1.424 v -9.2 h -1.248 v 9.2 c 0,1.072 0.416,2.16 1.36,2.16 0.608,0 1.184,-0.304 1.648,-0.72 z"
         style="font-size:16px;line-height:1.25"
         id="path312" />
      <path
         d="m 564.57752,369.80588 c 0,-2.448 -1.088,-3.76 -3.088,-3.76 -2.016,0 -3.104,1.312 -3.104,3.76 0,2.448 1.088,3.76 3.104,3.76 2,0 3.088,-1.312 3.088,-3.76 z m -1.408,0 c 0,2 -0.592,3.088 -1.68,3.088 -1.104,0 -1.696,-1.088 -1.696,-3.088 0,-2 0.592,-3.088 1.696,-3.088 1.088,0 1.68,1.088 1.68,3.088 z"
         style="font-size:16px;line-height:1.25"
         id="path314" />
      <path
         d="m 572.52952,374.36588 v -8.16 h -1.248 v 0.272 c -0.624,-0.272 -1.296,-0.432 -1.968,-0.432 -2,0 -2.976,1.6 -2.976,3.76 0,2.128 0.8,3.76 2.736,3.76 0.816,0 1.568,-0.368 2.208,-0.88 v 1.68 c 0,1.104 -0.608,2.144 -1.6,2.144 -0.816,0 -1.632,-0.16 -2.4,-0.432 v 0.496 c 0.896,0.416 1.888,0.672 2.88,0.672 1.408,0 2.368,-1.376 2.368,-2.88 z m -1.248,-2.352 c -0.48,0.48 -1.072,0.88 -1.76,0.88 -1.456,0 -1.776,-1.408 -1.776,-3.088 0,-1.504 0.464,-3.088 1.776,-3.088 0.608,0 1.216,0.16 1.76,0.432 z"
         style="font-size:16px;line-height:1.25"
         id="path316" />
      <path
         d="m 578.01751,372.84588 v -0.48 c -0.304,0.256 -0.656,0.464 -1.056,0.464 -0.592,0 -0.704,-0.736 -0.704,-1.424 v -5.2 h -1.248 v 5.2 c 0,1.072 0.416,2.16 1.36,2.16 0.608,0 1.184,-0.304 1.648,-0.72 z m -1.6,-9.136 c 0,-0.432 -0.352,-0.784 -0.784,-0.784 -0.432,0 -0.784,0.352 -0.784,0.784 0,0.432 0.352,0.784 0.784,0.784 0.432,0 0.784,-0.352 0.784,-0.784 z"
         style="font-size:16px;line-height:1.25"
         id="path318" />
      <path
         d="m 585.40949,377.08588 v -10.88 h -1.248 v 0.272 c -0.624,-0.272 -1.296,-0.432 -1.968,-0.432 -2,0 -2.976,1.6 -2.976,3.76 0,2.128 0.8,3.76 2.736,3.76 0.816,0 1.568,-0.368 2.208,-0.88 v 4.4 z m -1.248,-5.072 c -0.48,0.48 -1.072,0.88 -1.76,0.88 -1.456,0 -1.776,-1.408 -1.776,-3.088 0,-1.504 0.464,-3.088 1.776,-3.088 0.608,0 1.216,0.16 1.76,0.432 z"
         style="font-size:16px;line-height:1.25"
         id="path320" />
      <path
         d="m 593.68148,373.40588 v -7.2 h -1.248 v 5.648 c -0.544,0.544 -1.216,0.976 -1.968,0.976 -0.752,0 -1.328,-0.656 -1.328,-1.424 v -5.2 h -1.248 v 5.2 c 0,1.168 0.896,2.16 2.048,2.16 0.96,0 1.808,-0.544 2.496,-1.216 v 1.056 z"
         style="font-size:16px;line-height:1.25"
         id="path322" />
      <path
         d="m 602.03346,369.96588 v -0.16 c 0,-2.256 -1.232,-3.76 -3.088,-3.76 -1.872,0 -3.104,1.504 -3.104,3.76 0,2.256 1.232,3.76 3.104,3.76 0.8,0 1.584,-0.256 2.24,-0.72 v -0.672 c -0.752,0.48 -1.36,0.656 -2.24,0.656 -1.36,0 -1.696,-1.296 -1.696,-2.864 z m -1.408,-0.672 h -3.376 c 0,-1.28 0.544,-2.576 1.696,-2.576 1.136,0 1.68,1.296 1.68,2.576 z"
         style="font-size:16px;line-height:1.25"
         id="path324" />
    </g>
    <g
       aria-label="Tension de référence
pour un 0 logique"
       id="text35498"
       style="line-height:0%;font-family:Iwona;-inkscape-font-specification:Sans;letter-spacing:0px;word-spacing:0px">
      <path
         d="m 491.00977,640.5797 v -0.736 h -8.8 v 0.736 h 3.744 v 10.464 h 1.312 v -10.464 z"
         style="font-size:16px;line-height:1.25"
         id="path327" />
      <path
         d="m 496.86573,647.6037 v -0.16 c 0,-2.256 -1.232,-3.76 -3.088,-3.76 -1.872,0 -3.104,1.504 -3.104,3.76 0,2.256 1.232,3.76 3.104,3.76 0.8,0 1.584,-0.256 2.24,-0.72 v -0.672 c -0.752,0.48 -1.36,0.656 -2.24,0.656 -1.36,0 -1.696,-1.296 -1.696,-2.864 z m -1.408,-0.672 h -3.376 c 0,-1.28 0.544,-2.576 1.696,-2.576 1.136,0 1.68,1.296 1.68,2.576 z"
         style="font-size:16px;line-height:1.25"
         id="path329" />
      <path
         d="m 504.73771,651.0437 v -5.2 c 0,-1.168 -0.896,-2.16 -2.048,-2.16 -0.96,0 -1.808,0.544 -2.496,1.216 v -1.056 h -1.248 v 7.2 h 1.248 v -5.648 c 0.544,-0.544 1.216,-0.976 1.968,-0.976 0.752,0 1.328,0.656 1.328,1.424 v 5.2 z"
         style="font-size:16px;line-height:1.25"
         id="path331" />
      <path
         d="m 512.08168,648.9957 c 0,-1.264 -1.344,-1.92 -2.656,-2.24 -0.768,-0.192 -1.6,-0.512 -1.6,-1.264 0,-0.688 0.704,-1.136 1.472,-1.136 0.848,0 1.696,0.256 2.4,0.72 v -0.672 c -0.704,-0.464 -1.552,-0.72 -2.4,-0.72 -1.392,0 -2.672,0.848 -2.672,2.144 0,1.168 1.296,1.712 2.528,2.016 0.848,0.208 1.728,0.656 1.728,1.472 0,0.752 -0.768,1.216 -1.584,1.216 -0.992,0 -1.952,-0.24 -2.8,-0.72 v 0.672 c 0.848,0.48 1.808,0.72 2.8,0.72 1.44,0 2.784,-0.864 2.784,-2.208 z"
         style="font-size:16px;line-height:1.25"
         id="path333" />
      <path
         d="m 517.00967,650.4837 v -0.48 c -0.304,0.256 -0.656,0.464 -1.056,0.464 -0.592,0 -0.704,-0.736 -0.704,-1.424 v -5.2 h -1.248 v 5.2 c 0,1.072 0.416,2.16 1.36,2.16 0.608,0 1.184,-0.304 1.648,-0.72 z m -1.6,-9.136 c 0,-0.432 -0.352,-0.784 -0.784,-0.784 -0.432,0 -0.784,0.352 -0.784,0.784 0,0.432 0.352,0.784 0.784,0.784 0.432,0 0.784,-0.352 0.784,-0.784 z"
         style="font-size:16px;line-height:1.25"
         id="path335" />
      <path
         d="m 524.40165,647.4437 c 0,-2.448 -1.088,-3.76 -3.088,-3.76 -2.016,0 -3.104,1.312 -3.104,3.76 0,2.448 1.088,3.76 3.104,3.76 2,0 3.088,-1.312 3.088,-3.76 z m -1.408,0 c 0,2 -0.592,3.088 -1.68,3.088 -1.104,0 -1.696,-1.088 -1.696,-3.088 0,-2 0.592,-3.088 1.696,-3.088 1.088,0 1.68,1.088 1.68,3.088 z"
         style="font-size:16px;line-height:1.25"
         id="path337" />
      <path
         d="m 532.35365,651.0437 v -5.2 c 0,-1.168 -0.896,-2.16 -2.048,-2.16 -0.96,0 -1.808,0.544 -2.496,1.216 v -1.056 h -1.248 v 7.2 h 1.248 v -5.648 c 0.544,-0.544 1.216,-0.976 1.968,-0.976 0.752,0 1.328,0.656 1.328,1.424 v 5.2 z"
         style="font-size:16px;line-height:1.25"
         id="path339" />
      <path
         d="m 545.95359,651.0437 v -11.2 h -1.248 v 4.272 c -0.624,-0.272 -1.296,-0.432 -1.968,-0.432 -2,0 -2.976,1.6 -2.976,3.76 0,2.128 0.8,3.76 2.736,3.76 0.816,0 1.568,-0.368 2.208,-0.88 v 0.72 z m -1.248,-1.392 c -0.48,0.48 -1.072,0.88 -1.76,0.88 -1.456,0 -1.776,-1.408 -1.776,-3.088 0,-1.504 0.464,-3.088 1.776,-3.088 0.608,0 1.216,0.16 1.76,0.432 z"
         style="font-size:16px;line-height:1.25"
         id="path341" />
      <path
         d="m 554.30558,647.6037 v -0.16 c 0,-2.256 -1.232,-3.76 -3.088,-3.76 -1.872,0 -3.104,1.504 -3.104,3.76 0,2.256 1.232,3.76 3.104,3.76 0.8,0 1.584,-0.256 2.24,-0.72 v -0.672 c -0.752,0.48 -1.36,0.656 -2.24,0.656 -1.36,0 -1.696,-1.296 -1.696,-2.864 z m -1.408,-0.672 h -3.376 c 0,-1.28 0.544,-2.576 1.696,-2.576 1.136,0 1.68,1.296 1.68,2.576 z"
         style="font-size:16px;line-height:1.25"
         id="path343" />
      <path
         d="m 565.69753,644.8357 v -0.992 c -0.176,-0.064 -0.368,-0.112 -0.544,-0.112 -0.896,0 -1.616,0.624 -2.192,1.312 v -1.2 h -1.248 v 7.2 h 1.248 v -5.328 c 0.48,-0.56 1.088,-1.04 1.824,-1.04 0.304,0 0.624,0.064 0.912,0.16 z"
         style="font-size:16px;line-height:1.25"
         id="path345" />
      <path
         d="m 573.08952,647.6037 v -0.16 c 0,-2.256 -1.232,-3.76 -3.088,-3.76 -1.872,0 -3.104,1.504 -3.104,3.76 0,2.256 1.232,3.76 3.104,3.76 0.8,0 1.584,-0.256 2.24,-0.72 v -0.672 c -0.752,0.48 -1.36,0.656 -2.24,0.656 -1.36,0 -1.696,-1.296 -1.696,-2.864 z m -1.408,-0.672 h -3.376 c 0,-1.28 0.544,-2.576 1.696,-2.576 1.136,0 1.68,1.296 1.68,2.576 z m 0.048,-7.088 h -1.44 c 0,1.072 -0.336,2.128 -0.96,2.992 h 0.672 c 0.848,-0.848 1.728,-1.792 1.728,-2.992 z"
         style="font-size:16px;line-height:1.25"
         id="path347" />
      <path
         d="m 578.3695,640.8837 v -0.496 c -0.48,-0.4 -1.056,-0.704 -1.68,-0.704 -0.928,0 -1.36,1.088 -1.36,2.16 v 2 h -1.12 v 0.672 h 1.12 v 6.528 h 1.248 v -6.528 h 1.12 v -0.672 h -1.12 v -2 c 0,-0.688 0.128,-1.424 0.72,-1.424 0.4,0 0.768,0.192 1.072,0.464 z"
         style="font-size:16px;line-height:1.25"
         id="path349" />
      <path
         d="m 585.08949,647.6037 v -0.16 c 0,-2.256 -1.232,-3.76 -3.088,-3.76 -1.872,0 -3.104,1.504 -3.104,3.76 0,2.256 1.232,3.76 3.104,3.76 0.8,0 1.584,-0.256 2.24,-0.72 v -0.672 c -0.752,0.48 -1.36,0.656 -2.24,0.656 -1.36,0 -1.696,-1.296 -1.696,-2.864 z m -1.408,-0.672 h -3.376 c 0,-1.28 0.544,-2.576 1.696,-2.576 1.136,0 1.68,1.296 1.68,2.576 z m 0.048,-7.088 h -1.44 c 0,1.072 -0.336,2.128 -0.96,2.992 h 0.672 c 0.848,-0.848 1.728,-1.792 1.728,-2.992 z"
         style="font-size:16px;line-height:1.25"
         id="path351" />
      <path
         d="m 591.15347,644.8357 v -0.992 c -0.176,-0.064 -0.368,-0.112 -0.544,-0.112 -0.896,0 -1.616,0.624 -2.192,1.312 v -1.2 h -1.248 v 7.2 h 1.248 v -5.328 c 0.48,-0.56 1.088,-1.04 1.824,-1.04 0.304,0 0.624,0.064 0.912,0.16 z"
         style="font-size:16px;line-height:1.25"
         id="path353" />
      <path
         d="m 598.54545,647.6037 v -0.16 c 0,-2.256 -1.232,-3.76 -3.088,-3.76 -1.872,0 -3.104,1.504 -3.104,3.76 0,2.256 1.232,3.76 3.104,3.76 0.8,0 1.584,-0.256 2.24,-0.72 v -0.672 c -0.752,0.48 -1.36,0.656 -2.24,0.656 -1.36,0 -1.696,-1.296 -1.696,-2.864 z m -1.408,-0.672 h -3.376 c 0,-1.28 0.544,-2.576 1.696,-2.576 1.136,0 1.68,1.296 1.68,2.576 z"
         style="font-size:16px;line-height:1.25"
         id="path355" />
      <path
         d="m 606.41743,651.0437 v -5.2 c 0,-1.168 -0.896,-2.16 -2.048,-2.16 -0.96,0 -1.808,0.544 -2.496,1.216 v -1.056 h -1.248 v 7.2 h 1.248 v -5.648 c 0.544,-0.544 1.216,-0.976 1.968,-0.976 0.752,0 1.328,0.656 1.328,1.424 v 5.2 z"
         style="font-size:16px;line-height:1.25"
         id="path357" />
      <path
         d="m 614.0814,645.5077 v -0.672 c -0.512,-0.72 -1.344,-1.152 -2.24,-1.152 -2,0 -3.344,1.504 -3.344,3.76 0,2.256 1.344,3.76 3.344,3.76 0.832,0 1.616,-0.416 2.08,-1.104 v -0.672 c -0.544,0.816 -1.104,1.104 -2.08,1.104 -1.152,0 -1.936,-1.232 -1.936,-3.088 0,-1.856 0.784,-3.088 1.936,-3.088 0.992,0 1.664,0.352 2.24,1.152 z"
         style="font-size:16px;line-height:1.25"
         id="path359" />
      <path
         d="m 621.55338,647.6037 v -0.16 c 0,-2.256 -1.232,-3.76 -3.088,-3.76 -1.872,0 -3.104,1.504 -3.104,3.76 0,2.256 1.232,3.76 3.104,3.76 0.8,0 1.584,-0.256 2.24,-0.72 v -0.672 c -0.752,0.48 -1.36,0.656 -2.24,0.656 -1.36,0 -1.696,-1.296 -1.696,-2.864 z m -1.408,-0.672 h -3.376 c 0,-1.28 0.544,-2.576 1.696,-2.576 1.136,0 1.68,1.296 1.68,2.576 z"
         style="font-size:16px;line-height:1.25"
         id="path361" />
      <path
         d="m 489.28177,667.4437 c 0,-2.128 -0.8,-3.76 -2.736,-3.76 -0.816,0 -1.568,0.368 -2.208,0.88 v -0.72 h -1.248 v 10.88 h 1.248 v -3.952 c 0.624,0.272 1.296,0.432 1.968,0.432 2,0 2.976,-1.6 2.976,-3.76 z m -1.408,0 c 0,1.504 -0.464,3.088 -1.776,3.088 -0.608,0 -1.216,-0.16 -1.76,-0.432 v -4.864 c 0.48,-0.48 1.072,-0.88 1.76,-0.88 1.456,0 1.776,1.408 1.776,3.088 z"
         style="font-size:16px;line-height:1.25"
         id="path363" />
      <path
         d="m 497.23374,667.4437 c 0,-2.448 -1.088,-3.76 -3.088,-3.76 -2.016,0 -3.104,1.312 -3.104,3.76 0,2.448 1.088,3.76 3.104,3.76 2,0 3.088,-1.312 3.088,-3.76 z m -1.408,0 c 0,2 -0.592,3.088 -1.68,3.088 -1.104,0 -1.696,-1.088 -1.696,-3.088 0,-2 0.592,-3.088 1.696,-3.088 1.088,0 1.68,1.088 1.68,3.088 z"
         style="font-size:16px;line-height:1.25"
         id="path365" />
      <path
         d="m 505.10574,671.0437 v -7.2 h -1.248 v 5.648 c -0.544,0.544 -1.216,0.976 -1.968,0.976 -0.752,0 -1.328,-0.656 -1.328,-1.424 v -5.2 h -1.248 v 5.2 c 0,1.168 0.896,2.16 2.048,2.16 0.96,0 1.808,-0.544 2.496,-1.216 v 1.056 z"
         style="font-size:16px;line-height:1.25"
         id="path367" />
      <path
         d="m 511.64971,664.8357 v -0.992 c -0.176,-0.064 -0.368,-0.112 -0.544,-0.112 -0.896,0 -1.616,0.624 -2.192,1.312 v -1.2 h -1.248 v 7.2 h 1.248 v -5.328 c 0.48,-0.56 1.088,-1.04 1.824,-1.04 0.304,0 0.624,0.064 0.912,0.16 z"
         style="font-size:16px;line-height:1.25"
         id="path369" />
      <path
         d="m 524.28967,671.0437 v -7.2 h -1.248 v 5.648 c -0.544,0.544 -1.216,0.976 -1.968,0.976 -0.752,0 -1.328,-0.656 -1.328,-1.424 v -5.2 h -1.248 v 5.2 c 0,1.168 0.896,2.16 2.048,2.16 0.96,0 1.808,-0.544 2.496,-1.216 v 1.056 z"
         style="font-size:16px;line-height:1.25"
         id="path371" />
      <path
         d="m 532.64164,671.0437 v -5.2 c 0,-1.168 -0.896,-2.16 -2.048,-2.16 -0.96,0 -1.808,0.544 -2.496,1.216 v -1.056 h -1.248 v 7.2 h 1.248 v -5.648 c 0.544,-0.544 1.216,-0.976 1.968,-0.976 0.752,0 1.328,0.656 1.328,1.424 v 5.2 z"
         style="font-size:16px;line-height:1.25"
         id="path373" />
      <path
         d="m 546.88159,665.5237 c 0,-3.792 -1.168,-5.68 -3.504,-5.68 -2.336,0 -3.504,1.888 -3.504,5.68 0,3.792 1.168,5.68 3.504,5.68 2.336,0 3.504,-1.888 3.504,-5.68 z m -1.408,0 c 0,3.344 -0.704,5.008 -2.096,5.008 -1.392,0 -2.096,-1.664 -2.096,-5.008 0,-3.344 0.704,-5.008 2.096,-5.008 1.392,0 2.096,1.664 2.096,5.008 z"
         style="font-size:16px;line-height:1.25"
         id="path375" />
      <path
         d="m 557.18555,670.4837 v -0.48 c -0.304,0.256 -0.656,0.464 -1.056,0.464 -0.592,0 -0.704,-0.736 -0.704,-1.424 v -9.2 h -1.248 v 9.2 c 0,1.072 0.416,2.16 1.36,2.16 0.608,0 1.184,-0.304 1.648,-0.72 z"
         style="font-size:16px;line-height:1.25"
         id="path377" />
      <path
         d="m 564.57752,667.4437 c 0,-2.448 -1.088,-3.76 -3.088,-3.76 -2.016,0 -3.104,1.312 -3.104,3.76 0,2.448 1.088,3.76 3.104,3.76 2,0 3.088,-1.312 3.088,-3.76 z m -1.408,0 c 0,2 -0.592,3.088 -1.68,3.088 -1.104,0 -1.696,-1.088 -1.696,-3.088 0,-2 0.592,-3.088 1.696,-3.088 1.088,0 1.68,1.088 1.68,3.088 z"
         style="font-size:16px;line-height:1.25"
         id="path379" />
      <path
         d="m 572.52952,672.0037 v -8.16 h -1.248 v 0.272 c -0.624,-0.272 -1.296,-0.432 -1.968,-0.432 -2,0 -2.976,1.6 -2.976,3.76 0,2.128 0.8,3.76 2.736,3.76 0.816,0 1.568,-0.368 2.208,-0.88 v 1.68 c 0,1.104 -0.608,2.144 -1.6,2.144 -0.816,0 -1.632,-0.16 -2.4,-0.432 v 0.496 c 0.896,0.416 1.888,0.672 2.88,0.672 1.408,0 2.368,-1.376 2.368,-2.88 z m -1.248,-2.352 c -0.48,0.48 -1.072,0.88 -1.76,0.88 -1.456,0 -1.776,-1.408 -1.776,-3.088 0,-1.504 0.464,-3.088 1.776,-3.088 0.608,0 1.216,0.16 1.76,0.432 z"
         style="font-size:16px;line-height:1.25"
         id="path381" />
      <path
         d="m 578.01751,670.4837 v -0.48 c -0.304,0.256 -0.656,0.464 -1.056,0.464 -0.592,0 -0.704,-0.736 -0.704,-1.424 v -5.2 h -1.248 v 5.2 c 0,1.072 0.416,2.16 1.36,2.16 0.608,0 1.184,-0.304 1.648,-0.72 z m -1.6,-9.136 c 0,-0.432 -0.352,-0.784 -0.784,-0.784 -0.432,0 -0.784,0.352 -0.784,0.784 0,0.432 0.352,0.784 0.784,0.784 0.432,0 0.784,-0.352 0.784,-0.784 z"
         style="font-size:16px;line-height:1.25"
         id="path383" />
      <path
         d="m 585.40949,674.7237 v -10.88 h -1.248 v 0.272 c -0.624,-0.272 -1.296,-0.432 -1.968,-0.432 -2,0 -2.976,1.6 -2.976,3.76 0,2.128 0.8,3.76 2.736,3.76 0.816,0 1.568,-0.368 2.208,-0.88 v 4.4 z m -1.248,-5.072 c -0.48,0.48 -1.072,0.88 -1.76,0.88 -1.456,0 -1.776,-1.408 -1.776,-3.088 0,-1.504 0.464,-3.088 1.776,-3.088 0.608,0 1.216,0.16 1.76,0.432 z"
         style="font-size:16px;line-height:1.25"
         id="path385" />
      <path
         d="m 593.68148,671.0437 v -7.2 h -1.248 v 5.648 c -0.544,0.544 -1.216,0.976 -1.968,0.976 -0.752,0 -1.328,-0.656 -1.328,-1.424 v -5.2 h -1.248 v 5.2 c 0,1.168 0.896,2.16 2.048,2.16 0.96,0 1.808,-0.544 2.496,-1.216 v 1.056 z"
         style="font-size:16px;line-height:1.25"
         id="path387" />
      <path
         d="m 602.03346,667.6037 v -0.16 c 0,-2.256 -1.232,-3.76 -3.088,-3.76 -1.872,0 -3.104,1.504 -3.104,3.76 0,2.256 1.232,3.76 3.104,3.76 0.8,0 1.584,-0.256 2.24,-0.72 v -0.672 c -0.752,0.48 -1.36,0.656 -2.24,0.656 -1.36,0 -1.696,-1.296 -1.696,-2.864 z m -1.408,-0.672 h -3.376 c 0,-1.28 0.544,-2.576 1.696,-2.576 1.136,0 1.68,1.296 1.68,2.576 z"
         style="font-size:16px;line-height:1.25"
         id="path389" />
    </g>
    <g
       aria-label="3,3 V ou 5 V,
par exemple"
       id="text35504"
       style="line-height:0%;font-family:Iwona;-inkscape-font-specification:Sans;letter-spacing:0px;word-spacing:0px;fill:#a02c2c">
      <path
         d="m 454.05679,497.038 c 0,-1.408 -0.992,-2.624 -2.368,-3.04 1.216,-0.352 1.968,-1.264 1.968,-2.48 0,-1.584 -1.28,-2.64 -3.2,-2.64 -1.04,0 -2.048,0.352 -2.864,0.992 v 0.672 c 0.816,-0.64 1.824,-0.992 2.864,-0.992 1.168,0 1.952,0.784 1.952,1.968 0,1.904 -0.88,2.4 -2.88,2.4 v 0.592 c 2.16,0 3.12,0.512 3.12,2.528 0,1.392 -0.896,2.528 -1.984,2.528 -1.216,0 -2.4,-0.352 -3.408,-0.992 v 0.672 c 1.008,0.64 2.192,0.992 3.408,0.992 1.856,0 3.392,-1.44 3.392,-3.2 z"
         style="font-size:16px;line-height:1.25"
         id="path392" />
      <path
         d="m 457.35278,498.51 h -1.248 c 0,1.152 -0.192,2.304 -0.56,3.408 h 0.672 c 0.736,-0.976 1.136,-2.176 1.136,-3.408 z"
         style="font-size:16px;line-height:1.25"
         id="path394" />
      <path
         d="m 465.88076,497.038 c 0,-1.408 -0.992,-2.624 -2.368,-3.04 1.216,-0.352 1.968,-1.264 1.968,-2.48 0,-1.584 -1.28,-2.64 -3.2,-2.64 -1.04,0 -2.048,0.352 -2.864,0.992 v 0.672 c 0.816,-0.64 1.824,-0.992 2.864,-0.992 1.168,0 1.952,0.784 1.952,1.968 0,1.904 -0.88,2.4 -2.88,2.4 v 0.592 c 2.16,0 3.12,0.512 3.12,2.528 0,1.392 -0.896,2.528 -1.984,2.528 -1.216,0 -2.4,-0.352 -3.408,-0.992 v 0.672 c 1.008,0.64 2.192,0.992 3.408,0.992 1.856,0 3.392,-1.44 3.392,-3.2 z"
         style="font-size:16px;line-height:1.25"
         id="path396" />
      <path
         d="m 481.92873,488.878 h -0.784 l -3.712,9.504 -3.696,-9.504 h -1.408 l 4.368,11.2 h 0.864 z"
         style="font-size:16px;line-height:1.25"
         id="path398" />
      <path
         d="m 494.48869,496.478 c 0,-2.448 -1.088,-3.76 -3.088,-3.76 -2.016,0 -3.104,1.312 -3.104,3.76 0,2.448 1.088,3.76 3.104,3.76 2,0 3.088,-1.312 3.088,-3.76 z m -1.408,0 c 0,2 -0.592,3.088 -1.68,3.088 -1.104,0 -1.696,-1.088 -1.696,-3.088 0,-2 0.592,-3.088 1.696,-3.088 1.088,0 1.68,1.088 1.68,3.088 z"
         style="font-size:16px;line-height:1.25"
         id="path400" />
      <path
         d="m 502.36068,500.078 v -7.2 h -1.248 v 5.648 c -0.544,0.544 -1.216,0.976 -1.968,0.976 -0.752,0 -1.328,-0.656 -1.328,-1.424 v -5.2 h -1.248 v 5.2 c 0,1.168 0.896,2.16 2.048,2.16 0.96,0 1.808,-0.544 2.496,-1.216 v 1.056 z"
         style="font-size:16px;line-height:1.25"
         id="path402" />
      <path
         d="m 516.56863,496.478 c 0,-2.256 -1.36,-3.76 -3.392,-3.76 -0.928,0 -1.792,0.352 -2.464,0.944 l 0.16,-3.632 h 5.376 v -0.992 h -6 l -0.24,5.52 0.672,0.032 c 0.608,-0.752 1.52,-1.2 2.496,-1.2 1.184,0 1.984,1.232 1.984,3.088 0,1.856 -0.8,3.088 -1.984,3.088 -1.232,0 -2.432,-0.4 -3.408,-1.152 v 0.672 c 0.976,0.752 2.176,1.152 3.408,1.152 2.032,0 3.392,-1.504 3.392,-3.76 z"
         style="font-size:16px;line-height:1.25"
         id="path404" />
      <path
         d="m 532.61659,488.878 h -0.784 l -3.712,9.504 -3.696,-9.504 h -1.408 l 4.368,11.2 h 0.864 z"
         style="font-size:16px;line-height:1.25"
         id="path406" />
      <path
         d="m 533.83258,498.51 h -1.248 c 0,1.152 -0.192,2.304 -0.56,3.408 h 0.672 c 0.736,-0.976 1.136,-2.176 1.136,-3.408 z"
         style="font-size:16px;line-height:1.25"
         id="path408" />
      <path
         d="m 453.84879,516.478 c 0,-2.128 -0.8,-3.76 -2.736,-3.76 -0.816,0 -1.568,0.368 -2.208,0.88 v -0.72 h -1.248 v 10.88 h 1.248 v -3.952 c 0.624,0.272 1.296,0.432 1.968,0.432 2,0 2.976,-1.6 2.976,-3.76 z m -1.408,0 c 0,1.504 -0.464,3.088 -1.776,3.088 -0.608,0 -1.216,-0.16 -1.76,-0.432 v -4.864 c 0.48,-0.48 1.072,-0.88 1.76,-0.88 1.456,0 1.776,1.408 1.776,3.088 z"
         style="font-size:16px;line-height:1.25"
         id="path410" />
      <path
         d="m 461.64076,520.078 v -4.48 c 0,-1.504 -0.928,-2.88 -2.32,-2.88 -1.024,0 -1.984,0.352 -2.848,0.896 v 0.496 c 0.72,-0.4 1.52,-0.656 2.352,-0.656 0.992,0 1.568,1.056 1.568,2.144 v 0.288 c -0.624,-0.272 -1.296,-0.432 -1.968,-0.432 -1.712,0 -2.976,0.784 -2.976,2.4 0,1.536 1.12,2.384 2.736,2.384 0.816,0 1.568,-0.368 2.208,-0.88 v 0.72 z m -1.248,-1.392 c -0.48,0.48 -1.072,0.88 -1.76,0.88 -1.072,0 -1.776,-0.656 -1.776,-1.712 0,-0.976 0.8,-1.728 1.776,-1.728 0.608,0 1.216,0.16 1.76,0.432 z"
         style="font-size:16px;line-height:1.25"
         id="path412" />
      <path
         d="m 468.18475,513.87 v -0.992 c -0.176,-0.064 -0.368,-0.112 -0.544,-0.112 -0.896,0 -1.616,0.624 -2.192,1.312 v -1.2 h -1.248 v 7.2 h 1.248 v -5.328 c 0.48,-0.56 1.088,-1.04 1.824,-1.04 0.304,0 0.624,0.064 0.912,0.16 z"
         style="font-size:16px;line-height:1.25"
         id="path414" />
      <path
         d="m 480.9047,516.638 v -0.16 c 0,-2.256 -1.232,-3.76 -3.088,-3.76 -1.872,0 -3.104,1.504 -3.104,3.76 0,2.256 1.232,3.76 3.104,3.76 0.8,0 1.584,-0.256 2.24,-0.72 v -0.672 c -0.752,0.48 -1.36,0.656 -2.24,0.656 -1.36,0 -1.696,-1.296 -1.696,-2.864 z m -1.408,-0.672 h -3.376 c 0,-1.28 0.544,-2.576 1.696,-2.576 1.136,0 1.68,1.296 1.68,2.576 z"
         style="font-size:16px;line-height:1.25"
         id="path416" />
      <path
         d="m 488.02466,520.078 -2.512,-3.84 2.432,-3.36 h -0.832 l -1.984,2.752 -1.792,-2.752 h -1.344 l 2.384,3.664 -2.544,3.536 h 0.832 l 2.112,-2.928 1.904,2.928 z"
         style="font-size:16px;line-height:1.25"
         id="path418" />
      <path
         d="m 495.22462,516.638 v -0.16 c 0,-2.256 -1.232,-3.76 -3.088,-3.76 -1.872,0 -3.104,1.504 -3.104,3.76 0,2.256 1.232,3.76 3.104,3.76 0.8,0 1.584,-0.256 2.24,-0.72 v -0.672 c -0.752,0.48 -1.36,0.656 -2.24,0.656 -1.36,0 -1.696,-1.296 -1.696,-2.864 z m -1.408,-0.672 h -3.376 c 0,-1.28 0.544,-2.576 1.696,-2.576 1.136,0 1.68,1.296 1.68,2.576 z"
         style="font-size:16px;line-height:1.25"
         id="path420" />
      <path
         d="m 506.0406,520.078 v -5.2 c 0,-1.12 -0.656,-2.16 -1.696,-2.16 -0.896,0 -1.728,0.464 -2.208,1.216 -0.256,-0.704 -0.8,-1.216 -1.536,-1.216 -0.832,0 -1.504,0.576 -2.048,1.216 v -1.056 h -1.248 v 7.2 h 1.248 v -5.664 c 0.384,-0.496 0.864,-0.96 1.488,-0.96 0.656,0 1.008,0.704 1.008,1.424 v 5.2 h 1.248 v -5.2 c 0,-0.192 -0.016,-0.368 -0.048,-0.56 0.384,-0.496 0.912,-0.864 1.536,-0.864 0.656,0 1.008,0.704 1.008,1.424 v 5.2 z"
         style="font-size:16px;line-height:1.25"
         id="path422" />
      <path
         d="m 514.63257,516.478 c 0,-2.128 -0.8,-3.76 -2.736,-3.76 -0.816,0 -1.568,0.368 -2.208,0.88 v -0.72 h -1.248 v 10.88 h 1.248 v -3.952 c 0.624,0.272 1.296,0.432 1.968,0.432 2,0 2.976,-1.6 2.976,-3.76 z m -1.408,0 c 0,1.504 -0.464,3.088 -1.776,3.088 -0.608,0 -1.216,-0.16 -1.76,-0.432 v -4.864 c 0.48,-0.48 1.072,-0.88 1.76,-0.88 1.456,0 1.776,1.408 1.776,3.088 z"
         style="font-size:16px;line-height:1.25"
         id="path424" />
      <path
         d="m 519.80054,519.518 v -0.48 c -0.304,0.256 -0.656,0.464 -1.056,0.464 -0.592,0 -0.704,-0.736 -0.704,-1.424 v -9.2 h -1.248 v 9.2 c 0,1.072 0.416,2.16 1.36,2.16 0.608,0 1.184,-0.304 1.648,-0.72 z"
         style="font-size:16px;line-height:1.25"
         id="path426" />
      <path
         d="m 527.19251,516.638 v -0.16 c 0,-2.256 -1.232,-3.76 -3.088,-3.76 -1.872,0 -3.104,1.504 -3.104,3.76 0,2.256 1.232,3.76 3.104,3.76 0.8,0 1.584,-0.256 2.24,-0.72 v -0.672 c -0.752,0.48 -1.36,0.656 -2.24,0.656 -1.36,0 -1.696,-1.296 -1.696,-2.864 z m -1.408,-0.672 h -3.376 c 0,-1.28 0.544,-2.576 1.696,-2.576 1.136,0 1.68,1.296 1.68,2.576 z"
         style="font-size:16px;line-height:1.25"
         id="path428" />
    </g>
    <path
       id="path35516"
       d="m 432.28355,623.62219 -10e-5,-219.68507"
       style="fill:none;stroke:#a02c2c;stroke-width:1px;stroke-linecap:butt;stroke-linejoin:miter;stroke-opacity:1;marker-start:url(#StopMa3);marker-end:url(#Arrow1Mendrq)" />
  </g>
</svg>
