<?xml version="1.0" encoding="UTF-8" standalone="no"?>
<!-- Created with Inkscape (http://www.inkscape.org/) -->

<svg
   width="40.55418mm"
   height="25.456631mm"
   viewBox="0 0 143.69592 90.200658"
   id="svg6078"
   version="1.1"
   xmlns="http://www.w3.org/2000/svg"
   xmlns:svg="http://www.w3.org/2000/svg"
   xmlns:rdf="http://www.w3.org/1999/02/22-rdf-syntax-ns#"
   xmlns:cc="http://creativecommons.org/ns#"
   xmlns:dc="http://purl.org/dc/elements/1.1/">
  <defs
     id="defs6080">
    <marker
       style="overflow:visible"
       id="DotM"
       refX="0"
       refY="0"
       orient="auto">
      <path
         transform="matrix(0.4,0,0,0.4,2.96,0.4)"
         style="fill-rule:evenodd;stroke:#000000;stroke-width:1.00000003pt;marker-start:none;marker-end:none"
         d="m -2.5,-1 c 0,2.76 -2.24,5 -5,5 -2.76,0 -5,-2.24 -5,-5 0,-2.76 2.24,-5 5,-5 2.76,0 5,2.24 5,5 z"
         id="path4148" />
    </marker>
    <marker
       style="overflow:visible"
       id="Arrow1Mend-3"
       refX="0"
       refY="0"
       orient="auto">
      <path
         transform="matrix(-0.4,0,0,-0.4,-4,0)"
         style="fill-rule:evenodd;stroke:#000000;stroke-width:1.00000003pt;marker-start:none"
         d="M 0,0 5,-5 -12.5,0 5,5 Z"
         id="path17924-5" />
    </marker>
  </defs>
  <metadata
     id="metadata6083">
    <rdf:RDF>
      <cc:Work
         rdf:about="">
        <dc:format>image/svg+xml</dc:format>
        <dc:type
           rdf:resource="http://purl.org/dc/dcmitype/StillImage" />
        <dc:title />
      </cc:Work>
    </rdf:RDF>
  </metadata>
  <g
     id="layer1"
     transform="translate(-137.68889,-52.340579)">
    <g
       id="g55004"
       transform="translate(-2754.9145,2317.3222)">
      <path
         style="fill:none;stroke:#000000;stroke-width:1px;stroke-linecap:butt;stroke-linejoin:miter;stroke-opacity:1;marker-start:none"
         d="M 2924.9932,-2193.3072 H 2900.19 v -53.1488 h 31.8898"
         id="path55006" />
      <path
         style="fill:none;stroke:#000000;stroke-width:1px;stroke-linecap:butt;stroke-linejoin:miter;stroke-opacity:1;marker-start:none;marker-end:url(#DotM)"
         d="m 2953.3396,-2193.3066 h 31.8898 v -53.1503"
         id="path55008" />
      <path
         style="fill:none;stroke:#000000;stroke-width:1px;stroke-linecap:butt;stroke-linejoin:miter;stroke-opacity:1;marker-end:url(#Arrow1Mend-3)"
         d="m 2960.4263,-2246.4568 h 53.1495"
         id="path55012" />
      <g
         aria-label="Q"
         id="text55014"
         style="line-height:0%;font-family:Iwona;-inkscape-font-specification:Sans;text-align:center;letter-spacing:0px;word-spacing:0px;text-anchor:middle">
        <path
           d="m 3029.2058,-2248.5136 c 0,-3.392 -1.76,-5.76 -4.992,-5.76 -3.248,0 -5.008,2.368 -5.008,5.76 0,3.392 1.76,5.76 5.008,5.76 0.112,1.296 1.184,2.288 2.496,2.288 0.816,0 1.04,-0.048 1.792,-0.384 v -0.48 c -0.368,0.208 -0.768,0.32 -1.2,0.32 -1.456,0 -2.032,-0.512 -2.048,-1.84 2.56,-0.448 3.952,-2.656 3.952,-5.664 z m -1.568,0 c 0,2.8 -0.928,5.024 -3.424,5.024 -2.512,0 -3.44,-2.224 -3.44,-5.024 0,-2.8 0.928,-5.024 3.44,-5.024 2.496,0 3.424,2.224 3.424,5.024 z"
           style="font-size:16px;line-height:1.25"
           id="path24" />
      </g>
      <g
         transform="translate(-426.97522,184.25261)"
         id="g55022">
        <path
           style="fill:#ffeeaa;fill-rule:evenodd;stroke:#000000;stroke-width:1px;stroke-linecap:butt;stroke-linejoin:miter;stroke-opacity:1"
           d="m 3359.0551,-2441.3386 v 21.2598 l 21.2598,-10.6299 z"
           id="path55024" />
        <path
           id="path55026"
           style="fill:#ffeeaa;stroke:#000000;stroke-width:0.999211"
           transform="matrix(0,0.99999837,-1.0000051,0,3451.2369,-2505.118)"
           d="m 77.952754,67.37838 a 3.5433071,3.5433071 0 0 1 -3.543307,3.543307 3.5433071,3.5433071 0 0 1 -3.543307,-3.543307 3.5433071,3.5433071 0 0 1 3.543307,-3.543307 3.5433071,3.5433071 0 0 1 3.543307,3.543307 z" />
      </g>
      <g
         id="g55028"
         transform="matrix(-1,0,0,1,6312.3946,237.40221)">
        <path
           id="path55030"
           d="m 3359.0551,-2441.3386 v 21.2598 l 21.2598,-10.6299 z"
           style="fill:#ffeeaa;fill-rule:evenodd;stroke:#000000;stroke-width:1px;stroke-linecap:butt;stroke-linejoin:miter;stroke-opacity:1" />
        <path
           id="path55032"
           style="fill:#ffeeaa;stroke:#000000;stroke-width:0.999211"
           transform="matrix(0,0.99999837,-1.0000051,0,3451.2369,-2505.118)"
           d="m 77.952754,67.37838 a 3.5433071,3.5433071 0 0 1 -3.543307,3.543307 3.5433071,3.5433071 0 0 1 -3.543307,-3.543307 3.5433071,3.5433071 0 0 1 3.543307,-3.543307 3.5433071,3.5433071 0 0 1 3.543307,3.543307 z" />
      </g>
    </g>
  </g>
</svg>
