<?xml version="1.0" encoding="UTF-8" standalone="no"?>
<!-- Created with Inkscape (http://www.inkscape.org/) -->

<svg
   width="112.15562mm"
   height="32.000015mm"
   viewBox="0 0 397.40182 113.38588"
   id="svg10086"
   version="1.1"
   xmlns="http://www.w3.org/2000/svg"
   xmlns:svg="http://www.w3.org/2000/svg"
   xmlns:rdf="http://www.w3.org/1999/02/22-rdf-syntax-ns#"
   xmlns:cc="http://creativecommons.org/ns#"
   xmlns:dc="http://purl.org/dc/elements/1.1/">
  <defs
     id="defs10088" />
  <metadata
     id="metadata10091">
    <rdf:RDF>
      <cc:Work
         rdf:about="">
        <dc:format>image/svg+xml</dc:format>
        <dc:type
           rdf:resource="http://purl.org/dc/dcmitype/StillImage" />
        <dc:title />
      </cc:Work>
    </rdf:RDF>
  </metadata>
  <g
     id="layer1"
     transform="translate(-119.92101,-138.18897)">
    <path
       id="rect3444"
       style="fill:#ffb380"
       d="m 407.48032,145.27559 h 53.14967 v 99.21265 h -53.14967 z" />
    <path
       id="rect3442"
       style="fill:#ffb380"
       d="m 301.18109,145.27559 h 53.14968 v 99.21265 h -53.14968 z" />
    <path
       id="rect265683-0"
       style="fill:#ffb380"
       d="m 194.88187,145.27559 h 53.14967 v 99.21265 h -53.14967 z" />
    <path
       id="path235054"
       d="m 141.49717,170.0787 50.07649,4e-5 7.08661,-21.25984 h 45.82792 l 7.08661,21.25984 h 46.29807 l 7.08661,-21.25984 h 45.82792 l 7.08662,21.25984 h 46.06299 l 7.08661,-21.25984 h 46.06299 l 7.08662,21.25984 h 46.06299"
       style="fill:none;stroke:#000000;stroke-width:1.5;stroke-linecap:butt;stroke-linejoin:miter;stroke-miterlimit:4;stroke-dasharray:none;stroke-opacity:1" />
    <path
       id="path235058"
       d="m 141.49717,184.2519 h 17.95165 l 7.0866,21.2599 h 38.97639 l 7.0866,-21.2599 17.71655,1e-4 7.0867,21.2598 h 17.71646 l 7.0866,-21.2598 h 10.62993 l 7.08661,21.25981 h 7.08661 l 7.08662,-21.25984 h 35.43307 l 7.08661,21.25984 h 42.51969 l 7.08661,-21.25984 h 38.97638 l 7.08661,21.25984 h 14.17323 l 7.08662,-21.25984 h 28.34645 l 7.08662,21.25984 h 21.25984"
       style="fill:none;stroke:#000000;stroke-width:1.5;stroke-linecap:butt;stroke-linejoin:miter;stroke-miterlimit:4;stroke-dasharray:none;stroke-opacity:1" />
    <path
       id="path235060"
       d="m 141.49717,219.6851 49.84141,-1e-4 7.0866,21.2599 h 7.08665 l 7.0866,-21.2599 17.71653,1e-4 7.0867,21.2598 60.23614,-2e-5 7.08661,-21.25984 h 24.80315 l 7.08661,21.25984 h 67.32284 l 7.08661,-21.25984 h 13.83225 l 7.42759,21.25984 h 14.17323 l 7.08662,-21.25984 h 56.69291"
       style="fill:none;stroke:#000000;stroke-width:1.5;stroke-linecap:butt;stroke-linejoin:miter;stroke-miterlimit:4;stroke-dasharray:none;stroke-opacity:1" />
    <g
       aria-label="E"
       id="text235084"
       style="line-height:0%;font-family:Iwona;-inkscape-font-specification:Sans;text-align:end;letter-spacing:0px;word-spacing:0px;text-anchor:end">
      <path
         d="m 136.99388,166.53545 v -0.736 h -6.688 v -4.496 h 5.088 v -0.736 h -5.088 v -4.496 h 6.304 v -0.736 h -7.616 v 11.2 z"
         style="font-size:16px;line-height:1.25"
         id="path23" />
    </g>
    <g
       aria-label="D"
       id="text235088"
       style="line-height:0%;font-family:Iwona;-inkscape-font-specification:Sans;text-align:end;letter-spacing:0px;word-spacing:0px;text-anchor:end">
      <path
         d="m 136.99389,196.36843 c 0,-3.424 -1.872,-5.76 -5.168,-5.76 -0.992,0 -1.984,0.048 -2.96,0.16 h -1.28 v 11.2 h 1.28 c 0.976,0.112 1.968,0.16 2.96,0.16 3.296,0 5.168,-2.336 5.168,-5.76 z m -1.568,0 c 0,2.544 -1.296,5.024 -3.6,5.024 -0.976,0 -1.952,-0.048 -2.928,-0.16 v -9.728 c 0.976,-0.112 1.952,-0.16 2.928,-0.16 2.304,0 3.6,2.48 3.6,5.024 z"
         style="font-size:16px;line-height:1.25"
         id="path26" />
    </g>
    <g
       aria-label="Q"
       id="text235092"
       style="line-height:0%;font-family:Iwona;-inkscape-font-specification:Sans;text-align:end;letter-spacing:0px;word-spacing:0px;text-anchor:end">
      <path
         d="m 136.99389,231.80154 c 0,-3.392 -1.76,-5.76 -4.992,-5.76 -3.248,0 -5.008,2.368 -5.008,5.76 0,3.392 1.76,5.76 5.008,5.76 0.112,1.296 1.184,2.288 2.496,2.288 0.816,0 1.04,-0.048 1.792,-0.384 v -0.48 c -0.368,0.208 -0.768,0.32 -1.2,0.32 -1.456,0 -2.032,-0.512 -2.048,-1.84 2.56,-0.448 3.952,-2.656 3.952,-5.664 z m -1.568,0 c 0,2.8 -0.928,5.024 -3.424,5.024 -2.512,0 -3.44,-2.224 -3.44,-5.024 0,-2.8 0.928,-5.024 3.44,-5.024 2.496,0 3.424,2.224 3.424,5.024 z"
         style="font-size:16px;line-height:1.25"
         id="path29" />
    </g>
  </g>
</svg>
