<?xml version="1.0" encoding="UTF-8" standalone="no"?>
<!-- Created with Inkscape (http://www.inkscape.org/) -->

<svg
   width="149.28223mm"
   height="47.712372mm"
   id="svg4482"
   version="1.1"
   viewBox="0 0 528.95277 169.05959"
   xmlns="http://www.w3.org/2000/svg"
   xmlns:svg="http://www.w3.org/2000/svg"
   xmlns:rdf="http://www.w3.org/1999/02/22-rdf-syntax-ns#"
   xmlns:cc="http://creativecommons.org/ns#"
   xmlns:dc="http://purl.org/dc/elements/1.1/">
  <defs
     id="defs4484">
    <marker
       style="overflow:visible"
       id="Arrow1Mend"
       refX="0"
       refY="0"
       orient="auto">
      <path
         transform="matrix(-0.4,0,0,-0.4,-4,0)"
         style="fill-rule:evenodd;stroke:#000000;stroke-width:1.00000003pt"
         d="M 0,0 5,-5 -12.5,0 5,5 Z"
         id="path5066" />
    </marker>
    <marker
       style="overflow:visible"
       id="Arrow1MendU"
       refX="0"
       refY="0"
       orient="auto">
      <path
         transform="matrix(-0.4,0,0,-0.4,-4,0)"
         style="fill:#7f2aff;fill-rule:evenodd;stroke:#7f2aff;stroke-width:1.00000003pt"
         d="M 0,0 5,-5 -12.5,0 5,5 Z"
         id="path5776" />
    </marker>
    <marker
       style="overflow:visible"
       id="Arrow1Mendw"
       refX="0"
       refY="0"
       orient="auto">
      <path
         transform="matrix(-0.4,0,0,-0.4,-4,0)"
         style="fill:#7f2aff;fill-rule:evenodd;stroke:#7f2aff;stroke-width:1.00000003pt"
         d="M 0,0 5,-5 -12.5,0 5,5 Z"
         id="path5779" />
    </marker>
    <marker
       style="overflow:visible"
       id="Arrow1Mend9"
       refX="0"
       refY="0"
       orient="auto">
      <path
         transform="matrix(-0.4,0,0,-0.4,-4,0)"
         style="fill:#7f2aff;fill-rule:evenodd;stroke:#7f2aff;stroke-width:1.00000003pt"
         d="M 0,0 5,-5 -12.5,0 5,5 Z"
         id="path5782" />
    </marker>
    <marker
       style="overflow:visible"
       id="Arrow1MendT"
       refX="0"
       refY="0"
       orient="auto">
      <path
         transform="matrix(-0.4,0,0,-0.4,-4,0)"
         style="fill:#7f2aff;fill-rule:evenodd;stroke:#7f2aff;stroke-width:1.00000003pt"
         d="M 0,0 5,-5 -12.5,0 5,5 Z"
         id="path5785" />
    </marker>
    <marker
       style="overflow:visible"
       id="Arrow1Mendw1"
       refX="0"
       refY="0"
       orient="auto">
      <path
         transform="matrix(-0.4,0,0,-0.4,-4,0)"
         style="fill:#7f2aff;fill-rule:evenodd;stroke:#7f2aff;stroke-width:1.00000003pt"
         d="M 0,0 5,-5 -12.5,0 5,5 Z"
         id="path5788" />
    </marker>
    <marker
       style="overflow:visible"
       id="Arrow1Mend7"
       refX="0"
       refY="0"
       orient="auto">
      <path
         transform="matrix(-0.4,0,0,-0.4,-4,0)"
         style="fill:#7f2aff;fill-rule:evenodd;stroke:#7f2aff;stroke-width:1.00000003pt"
         d="M 0,0 5,-5 -12.5,0 5,5 Z"
         id="path5791" />
    </marker>
    <marker
       style="overflow:visible"
       id="Arrow1MendO"
       refX="0"
       refY="0"
       orient="auto">
      <path
         transform="matrix(-0.4,0,0,-0.4,-4,0)"
         style="fill:#7f2aff;fill-rule:evenodd;stroke:#7f2aff;stroke-width:1.00000003pt"
         d="M 0,0 5,-5 -12.5,0 5,5 Z"
         id="path5794" />
    </marker>
  </defs>
  <metadata
     id="metadata4488">
    <rdf:RDF>
      <cc:Work
         rdf:about="">
        <dc:format>image/svg+xml</dc:format>
        <dc:type
           rdf:resource="http://purl.org/dc/dcmitype/StillImage" />
        <dc:title />
      </cc:Work>
    </rdf:RDF>
  </metadata>
  <g
     id="layer1"
     transform="translate(-151.86221,-69.360753)">
    <path
       id="rect3262"
       style="fill:#fff6d5;stroke:#000000;stroke-linecap:round;stroke-linejoin:bevel"
       d="M 460.62991,81.496056 H 673.22835 V 230.31495 H 460.62991 Z" />
    <path
       id="rect4493"
       style="fill:#fff6d5;stroke:#000000;stroke-linecap:round;stroke-linejoin:bevel"
       d="M 159.44882,81.496056 H 372.04724 V 230.31493 H 159.44882 Z" />
    <g
       id="g5497"
       transform="translate(-17.716529)">
      <path
         id="rect4495"
         style="fill:#ffe680;stroke:#000000;stroke-linecap:round;stroke-linejoin:bevel"
         d="M 212.59842,141.73228 H 354.3307 v 35.43308 H 212.59842 Z" />
      <path
         style="fill:none;stroke:#000000;stroke-width:1px;stroke-linecap:butt;stroke-linejoin:miter;stroke-opacity:1"
         d="m 230.31496,141.73228 v 35.43307"
         id="path5005" />
      <path
         id="path5007"
         d="m 248.0315,141.73228 v 35.43307"
         style="fill:none;stroke:#000000;stroke-width:1px;stroke-linecap:butt;stroke-linejoin:miter;stroke-opacity:1" />
      <path
         id="path5009"
         d="m 265.74803,141.73228 v 35.43307"
         style="fill:none;stroke:#000000;stroke-width:1px;stroke-linecap:butt;stroke-linejoin:miter;stroke-opacity:1" />
      <path
         style="fill:none;stroke:#000000;stroke-width:1px;stroke-linecap:butt;stroke-linejoin:miter;stroke-opacity:1"
         d="m 283.46457,141.73228 v 35.43307"
         id="path5011" />
      <path
         style="fill:none;stroke:#000000;stroke-width:1px;stroke-linecap:butt;stroke-linejoin:miter;stroke-opacity:1"
         d="m 301.1811,141.73228 v 35.43307"
         id="path5013" />
      <path
         id="path5015"
         d="m 318.89764,141.73228 v 35.43307"
         style="fill:none;stroke:#000000;stroke-width:1px;stroke-linecap:butt;stroke-linejoin:miter;stroke-opacity:1" />
      <path
         style="fill:none;stroke:#000000;stroke-width:1px;stroke-linecap:butt;stroke-linejoin:miter;stroke-opacity:1"
         d="m 336.61417,141.73228 v 35.43307"
         id="path5017" />
      <g
         aria-label="7"
         id="text5019"
         style="line-height:0%;font-family:Iwona;-inkscape-font-specification:Iwona;text-align:center;letter-spacing:0px;word-spacing:0px;text-anchor:middle">
        <path
           d="m 222.66005,129.00496 v -0.476 h -5.95 v 0.868 h 4.564 l -4.13,8.792 h 1.204 z"
           style="font-size:14px;line-height:1.25"
           id="path119" />
      </g>
      <g
         aria-label="6"
         id="text5023"
         style="line-height:0%;font-family:Iwona;-inkscape-font-specification:Iwona;text-align:center;letter-spacing:0px;word-spacing:0px;text-anchor:middle">
        <path
           d="m 240.37658,135.03896 c 0,-2.016 -0.798,-3.29 -2.674,-3.29 -0.812,0 -1.568,0.378 -2.044,1.022 0,-1.834 0.462,-3.794 2.044,-3.794 0.714,0 1.414,0.238 1.974,0.686 v -0.588 c -0.56,-0.448 -1.26,-0.686 -1.974,-0.686 -2.198,0 -3.276,2.492 -3.276,4.97 0,3.472 0.896,4.97 2.982,4.97 1.778,0 2.968,-1.316 2.968,-3.29 z m -1.232,0 c 0,1.624 -0.7,2.702 -1.736,2.702 -1.96,0 -1.75,-2.114 -1.75,-4.382 0.476,-0.644 1.232,-1.022 2.044,-1.022 1.12,0 1.442,1.4 1.442,2.702 z"
           style="font-size:14px;line-height:1.25"
           id="path122" />
      </g>
      <g
         aria-label="5"
         id="text5027"
         style="line-height:0%;font-family:Iwona;-inkscape-font-specification:Iwona;text-align:center;letter-spacing:0px;word-spacing:0px;text-anchor:middle">
        <path
           d="m 258.09311,135.03896 c 0,-1.974 -1.19,-3.29 -2.968,-3.29 -0.812,0 -1.568,0.308 -2.156,0.826 l 0.14,-3.178 h 4.704 v -0.868 h -5.25 l -0.21,4.83 0.588,0.028 c 0.532,-0.658 1.33,-1.05 2.184,-1.05 1.036,0 1.736,1.078 1.736,2.702 0,1.624 -0.7,2.702 -1.736,2.702 -1.078,0 -2.128,-0.35 -2.982,-1.008 v 0.588 c 0.854,0.658 1.904,1.008 2.982,1.008 1.778,0 2.968,-1.316 2.968,-3.29 z"
           style="font-size:14px;line-height:1.25"
           id="path125" />
      </g>
      <g
         aria-label="4"
         id="text5031"
         style="line-height:0%;font-family:Iwona;-inkscape-font-specification:Iwona;text-align:center;letter-spacing:0px;word-spacing:0px;text-anchor:middle">
        <path
           d="m 275.80966,134.82896 v -0.644 h -1.05 v -5.656 h -1.092 l -3.808,5.656 v 0.644 h 3.808 v 3.36 h 1.092 v -3.36 z m -2.142,-0.644 h -3.094 l 3.094,-4.606 z"
           style="font-size:14px;line-height:1.25"
           id="path128" />
      </g>
      <g
         aria-label="3"
         id="text5035"
         style="line-height:0%;font-family:Iwona;-inkscape-font-specification:Iwona;text-align:center;letter-spacing:0px;word-spacing:0px;text-anchor:middle">
        <path
           d="m 293.52618,135.52896 c 0,-1.232 -0.868,-2.296 -2.072,-2.66 1.064,-0.308 1.722,-1.106 1.722,-2.17 0,-1.386 -1.12,-2.31 -2.8,-2.31 -0.91,0 -1.792,0.308 -2.506,0.868 v 0.588 c 0.714,-0.56 1.596,-0.868 2.506,-0.868 1.022,0 1.708,0.686 1.708,1.722 0,1.666 -0.77,2.1 -2.52,2.1 v 0.518 c 1.89,0 2.73,0.448 2.73,2.212 0,1.218 -0.784,2.212 -1.736,2.212 -1.064,0 -2.1,-0.308 -2.982,-0.868 v 0.588 c 0.882,0.56 1.918,0.868 2.982,0.868 1.624,0 2.968,-1.26 2.968,-2.8 z"
           style="font-size:14px;line-height:1.25"
           id="path131" />
      </g>
      <g
         aria-label="2"
         id="text5039"
         style="line-height:0%;font-family:Iwona;-inkscape-font-specification:Iwona;text-align:center;letter-spacing:0px;word-spacing:0px;text-anchor:middle">
        <path
           d="m 311.24273,138.18896 v -0.868 h -4.942 l 2.576,-2.548 c 1.148,-1.148 2.226,-2.492 2.226,-4.116 0,-1.372 -1.358,-2.268 -2.828,-2.268 -1.106,0 -2.156,0.504 -2.842,1.358 v 0.588 c 0.714,-0.826 1.75,-1.302 2.842,-1.302 0.938,0 1.736,0.7 1.736,1.624 0,1.386 -0.644,2.674 -1.596,3.668 l -3.122,3.206 v 0.658 z"
           style="font-size:14px;line-height:1.25"
           id="path134" />
      </g>
      <g
         aria-label="1"
         id="text5043"
         style="line-height:0%;font-family:Iwona;-inkscape-font-specification:Iwona;text-align:center;letter-spacing:0px;word-spacing:0px;text-anchor:middle">
        <path
           d="m 326.92926,138.18896 v -9.66 h -0.812 c -0.77,0.882 -1.68,1.638 -2.688,2.226 v 0.588 c 0.854,-0.406 1.652,-0.882 2.408,-1.456 v 8.302 z"
           style="font-size:14px;line-height:1.25"
           id="path137" />
      </g>
      <g
         aria-label="0"
         id="text5047"
         style="line-height:0%;font-family:Iwona;-inkscape-font-specification:Iwona;text-align:center;letter-spacing:0px;word-spacing:0px;text-anchor:middle">
        <path
           d="m 346.77378,133.35896 c 0,-3.318 -1.022,-4.97 -3.066,-4.97 -2.044,0 -3.066,1.652 -3.066,4.97 0,3.318 1.022,4.97 3.066,4.97 2.044,0 3.066,-1.652 3.066,-4.97 z m -1.232,0 c 0,2.926 -0.616,4.382 -1.834,4.382 -1.218,0 -1.834,-1.456 -1.834,-4.382 0,-2.926 0.616,-4.382 1.834,-4.382 1.218,0 1.834,1.456 1.834,4.382 z"
           style="font-size:14px;line-height:1.25"
           id="path140" />
      </g>
    </g>
    <path
       id="path5051"
       d="M 471.25984,201.9685 H 655.51181 V 159.44881 H 637.79527"
       style="fill:none;stroke:#000000;stroke-width:1px;stroke-linecap:butt;stroke-linejoin:miter;stroke-opacity:1;marker-end:url(#Arrow1Mend)" />
    <g
       transform="translate(283.46457)"
       id="g5523">
      <path
         id="rect5525"
         style="fill:#ffe680;stroke:#000000;stroke-linecap:round;stroke-linejoin:bevel"
         d="M 212.59842,141.73228 H 354.3307 v 35.43308 H 212.59842 Z" />
      <path
         id="path5527"
         d="m 230.31496,141.73228 v 35.43307"
         style="fill:none;stroke:#000000;stroke-width:1px;stroke-linecap:butt;stroke-linejoin:miter;stroke-opacity:1" />
      <path
         style="fill:none;stroke:#000000;stroke-width:1px;stroke-linecap:butt;stroke-linejoin:miter;stroke-opacity:1"
         d="m 248.0315,141.73228 v 35.43307"
         id="path5529" />
      <path
         style="fill:none;stroke:#000000;stroke-width:1px;stroke-linecap:butt;stroke-linejoin:miter;stroke-opacity:1"
         d="m 265.74803,141.73228 v 35.43307"
         id="path5531" />
      <path
         id="path5533"
         d="m 283.46457,141.73228 v 35.43307"
         style="fill:none;stroke:#000000;stroke-width:1px;stroke-linecap:butt;stroke-linejoin:miter;stroke-opacity:1" />
      <path
         id="path5535"
         d="m 301.1811,141.73228 v 35.43307"
         style="fill:none;stroke:#000000;stroke-width:1px;stroke-linecap:butt;stroke-linejoin:miter;stroke-opacity:1" />
      <path
         style="fill:none;stroke:#000000;stroke-width:1px;stroke-linecap:butt;stroke-linejoin:miter;stroke-opacity:1"
         d="m 318.89764,141.73228 v 35.43307"
         id="path5537" />
      <path
         id="path5539"
         d="m 336.61417,141.73228 v 35.43307"
         style="fill:none;stroke:#000000;stroke-width:1px;stroke-linecap:butt;stroke-linejoin:miter;stroke-opacity:1" />
      <g
         aria-label="7"
         id="text5541"
         style="line-height:0%;font-family:Iwona;-inkscape-font-specification:Iwona;text-align:center;letter-spacing:0px;word-spacing:0px;text-anchor:middle">
        <path
           d="m 222.66005,129.00496 v -0.476 h -5.95 v 0.868 h 4.564 l -4.13,8.792 h 1.204 z"
           style="font-size:14px;line-height:1.25"
           id="path144" />
      </g>
      <g
         aria-label="6"
         id="text5545"
         style="line-height:0%;font-family:Iwona;-inkscape-font-specification:Iwona;text-align:center;letter-spacing:0px;word-spacing:0px;text-anchor:middle">
        <path
           d="m 240.37658,135.03896 c 0,-2.016 -0.798,-3.29 -2.674,-3.29 -0.812,0 -1.568,0.378 -2.044,1.022 0,-1.834 0.462,-3.794 2.044,-3.794 0.714,0 1.414,0.238 1.974,0.686 v -0.588 c -0.56,-0.448 -1.26,-0.686 -1.974,-0.686 -2.198,0 -3.276,2.492 -3.276,4.97 0,3.472 0.896,4.97 2.982,4.97 1.778,0 2.968,-1.316 2.968,-3.29 z m -1.232,0 c 0,1.624 -0.7,2.702 -1.736,2.702 -1.96,0 -1.75,-2.114 -1.75,-4.382 0.476,-0.644 1.232,-1.022 2.044,-1.022 1.12,0 1.442,1.4 1.442,2.702 z"
           style="font-size:14px;line-height:1.25"
           id="path147" />
      </g>
      <g
         aria-label="5"
         id="text5549"
         style="line-height:0%;font-family:Iwona;-inkscape-font-specification:Iwona;text-align:center;letter-spacing:0px;word-spacing:0px;text-anchor:middle">
        <path
           d="m 258.09311,135.03896 c 0,-1.974 -1.19,-3.29 -2.968,-3.29 -0.812,0 -1.568,0.308 -2.156,0.826 l 0.14,-3.178 h 4.704 v -0.868 h -5.25 l -0.21,4.83 0.588,0.028 c 0.532,-0.658 1.33,-1.05 2.184,-1.05 1.036,0 1.736,1.078 1.736,2.702 0,1.624 -0.7,2.702 -1.736,2.702 -1.078,0 -2.128,-0.35 -2.982,-1.008 v 0.588 c 0.854,0.658 1.904,1.008 2.982,1.008 1.778,0 2.968,-1.316 2.968,-3.29 z"
           style="font-size:14px;line-height:1.25"
           id="path150" />
      </g>
      <g
         aria-label="4"
         id="text5553"
         style="line-height:0%;font-family:Iwona;-inkscape-font-specification:Iwona;text-align:center;letter-spacing:0px;word-spacing:0px;text-anchor:middle">
        <path
           d="m 275.80966,134.82896 v -0.644 h -1.05 v -5.656 h -1.092 l -3.808,5.656 v 0.644 h 3.808 v 3.36 h 1.092 v -3.36 z m -2.142,-0.644 h -3.094 l 3.094,-4.606 z"
           style="font-size:14px;line-height:1.25"
           id="path153" />
      </g>
      <g
         aria-label="3"
         id="text5557"
         style="line-height:0%;font-family:Iwona;-inkscape-font-specification:Iwona;text-align:center;letter-spacing:0px;word-spacing:0px;text-anchor:middle">
        <path
           d="m 293.52618,135.52896 c 0,-1.232 -0.868,-2.296 -2.072,-2.66 1.064,-0.308 1.722,-1.106 1.722,-2.17 0,-1.386 -1.12,-2.31 -2.8,-2.31 -0.91,0 -1.792,0.308 -2.506,0.868 v 0.588 c 0.714,-0.56 1.596,-0.868 2.506,-0.868 1.022,0 1.708,0.686 1.708,1.722 0,1.666 -0.77,2.1 -2.52,2.1 v 0.518 c 1.89,0 2.73,0.448 2.73,2.212 0,1.218 -0.784,2.212 -1.736,2.212 -1.064,0 -2.1,-0.308 -2.982,-0.868 v 0.588 c 0.882,0.56 1.918,0.868 2.982,0.868 1.624,0 2.968,-1.26 2.968,-2.8 z"
           style="font-size:14px;line-height:1.25"
           id="path156" />
      </g>
      <g
         aria-label="2"
         id="text5561"
         style="line-height:0%;font-family:Iwona;-inkscape-font-specification:Iwona;text-align:center;letter-spacing:0px;word-spacing:0px;text-anchor:middle">
        <path
           d="m 311.24273,138.18896 v -0.868 h -4.942 l 2.576,-2.548 c 1.148,-1.148 2.226,-2.492 2.226,-4.116 0,-1.372 -1.358,-2.268 -2.828,-2.268 -1.106,0 -2.156,0.504 -2.842,1.358 v 0.588 c 0.714,-0.826 1.75,-1.302 2.842,-1.302 0.938,0 1.736,0.7 1.736,1.624 0,1.386 -0.644,2.674 -1.596,3.668 l -3.122,3.206 v 0.658 z"
           style="font-size:14px;line-height:1.25"
           id="path159" />
      </g>
      <g
         aria-label="1"
         id="text5565"
         style="line-height:0%;font-family:Iwona;-inkscape-font-specification:Iwona;text-align:center;letter-spacing:0px;word-spacing:0px;text-anchor:middle">
        <path
           d="m 326.92926,138.18896 v -9.66 h -0.812 c -0.77,0.882 -1.68,1.638 -2.688,2.226 v 0.588 c 0.854,-0.406 1.652,-0.882 2.408,-1.456 v 8.302 z"
           style="font-size:14px;line-height:1.25"
           id="path162" />
      </g>
      <g
         aria-label="0"
         id="text5569"
         style="line-height:0%;font-family:Iwona;-inkscape-font-specification:Iwona;text-align:center;letter-spacing:0px;word-spacing:0px;text-anchor:middle">
        <path
           d="m 346.77378,133.35896 c 0,-3.318 -1.022,-4.97 -3.066,-4.97 -2.044,0 -3.066,1.652 -3.066,4.97 0,3.318 1.022,4.97 3.066,4.97 2.044,0 3.066,-1.652 3.066,-4.97 z m -1.232,0 c 0,2.926 -0.616,4.382 -1.834,4.382 -1.218,0 -1.834,-1.456 -1.834,-4.382 0,-2.926 0.616,-4.382 1.834,-4.382 1.218,0 1.834,1.456 1.834,4.382 z"
           style="font-size:14px;line-height:1.25"
           id="path165" />
      </g>
    </g>
    <path
       id="path5573"
       d="M 450,159.44881 H 379.13386"
       style="fill:none;stroke:#000000;stroke-width:1px;stroke-linecap:butt;stroke-linejoin:miter;stroke-opacity:1;marker-end:url(#Arrow1Mend)" />
    <path
       style="fill:none;stroke:#7f2aff;stroke-width:1px;stroke-linecap:butt;stroke-linejoin:miter;stroke-opacity:1;marker-end:url(#Arrow1Mendw)"
       d="m 325.98426,159.44881 c -7.08662,-17.71653 -14.17323,0 -14.17323,0"
       id="path5757" />
    <path
       id="path5759"
       d="m 308.26772,159.44881 c -7.08662,-17.71653 -14.17323,0 -14.17323,0"
       style="fill:none;stroke:#7f2aff;stroke-width:1px;stroke-linecap:butt;stroke-linejoin:miter;stroke-opacity:1;marker-end:url(#Arrow1MendU)" />
    <path
       id="path5761"
       d="m 290.55119,159.44881 c -7.08662,-17.71653 -14.17323,0 -14.17323,0"
       style="fill:none;stroke:#7f2aff;stroke-width:1px;stroke-linecap:butt;stroke-linejoin:miter;stroke-opacity:1;marker-end:url(#Arrow1Mend7)" />
    <path
       style="fill:none;stroke:#7f2aff;stroke-width:1px;stroke-linecap:butt;stroke-linejoin:miter;stroke-opacity:1;marker-end:url(#Arrow1Mendw1)"
       d="m 272.83465,159.44881 c -7.08662,-17.71653 -14.17323,0 -14.17323,0"
       id="path5763" />
    <path
       style="fill:none;stroke:#7f2aff;stroke-width:1px;stroke-linecap:butt;stroke-linejoin:miter;stroke-opacity:1;marker-end:url(#Arrow1MendT)"
       d="m 255.11812,159.44881 c -7.08662,-17.71653 -14.17323,0 -14.17323,0"
       id="path5765" />
    <path
       id="path5767"
       d="m 237.40158,159.44881 c -7.08662,-17.71653 -14.17323,0 -14.17323,0"
       style="fill:none;stroke:#7f2aff;stroke-width:1px;stroke-linecap:butt;stroke-linejoin:miter;stroke-opacity:1;marker-end:url(#Arrow1Mend9)" />
    <path
       style="fill:none;stroke:#7f2aff;stroke-width:1px;stroke-linecap:butt;stroke-linejoin:miter;stroke-opacity:1;marker-end:url(#Arrow1MendO)"
       d="m 219.68505,159.44881 c -7.08662,-17.71653 -14.17323,0 -14.17323,0"
       id="path5769" />
    <path
       id="path3248"
       d="m 627.16535,159.44881 c -7.08662,-17.71653 -14.17323,0 -14.17323,0"
       style="fill:none;stroke:#7f2aff;stroke-width:1px;stroke-linecap:butt;stroke-linejoin:miter;stroke-opacity:1;marker-end:url(#Arrow1Mendw)" />
    <path
       style="fill:none;stroke:#7f2aff;stroke-width:1px;stroke-linecap:butt;stroke-linejoin:miter;stroke-opacity:1;marker-end:url(#Arrow1MendU)"
       d="m 609.44881,159.44881 c -7.08662,-17.71653 -14.17323,0 -14.17323,0"
       id="path3250" />
    <path
       style="fill:none;stroke:#7f2aff;stroke-width:1px;stroke-linecap:butt;stroke-linejoin:miter;stroke-opacity:1;marker-end:url(#Arrow1Mend7)"
       d="m 591.73228,159.44881 c -7.08662,-17.71653 -14.17323,0 -14.17323,0"
       id="path3252" />
    <path
       id="path3254"
       d="m 574.01574,159.44881 c -7.08662,-17.71653 -14.17323,0 -14.17323,0"
       style="fill:none;stroke:#7f2aff;stroke-width:1px;stroke-linecap:butt;stroke-linejoin:miter;stroke-opacity:1;marker-end:url(#Arrow1Mendw1)" />
    <path
       id="path3256"
       d="m 556.29921,159.44881 c -7.08662,-17.71653 -14.17323,0 -14.17323,0"
       style="fill:none;stroke:#7f2aff;stroke-width:1px;stroke-linecap:butt;stroke-linejoin:miter;stroke-opacity:1;marker-end:url(#Arrow1MendT)" />
    <path
       style="fill:none;stroke:#7f2aff;stroke-width:1px;stroke-linecap:butt;stroke-linejoin:miter;stroke-opacity:1;marker-end:url(#Arrow1Mend9)"
       d="m 538.58267,159.44881 c -7.08662,-17.71653 -14.17323,0 -14.17323,0"
       id="path3258" />
    <path
       id="path3260"
       d="m 520.86614,159.44881 c -7.08662,-17.71653 -14.17323,0 -14.17323,0"
       style="fill:none;stroke:#7f2aff;stroke-width:1px;stroke-linecap:butt;stroke-linejoin:miter;stroke-opacity:1;marker-end:url(#Arrow1MendO)" />
    <path
       style="fill:none;stroke:#000000;stroke-width:1px;stroke-linecap:butt;stroke-linejoin:miter;stroke-opacity:1;marker-end:url(#Arrow1Mend)"
       d="m 382.67717,106.29921 h 70.86614"
       id="path3264" />
    <path
       style="fill:none;stroke:#000000;stroke-width:1px;stroke-linecap:butt;stroke-linejoin:miter;stroke-opacity:1"
       d="m 400.7687,99.212593 h 3.5433 v -7.086615 h 7.08662 v 7.086615 h 7.08661 v -7.086615 h 7.08661 v 7.086615 h 7.08662 v -7.086615 h 3.54331"
       id="path3266" />
    <g
       aria-label="Maître"
       id="text3268"
       style="line-height:0%;font-family:Iwona;-inkscape-font-specification:Iwona;text-align:center;letter-spacing:0px;word-spacing:0px;text-anchor:middle">
      <path
         d="m 265.06386,106.29921 -0.64,-11.2 h -1.056 l -4.496,9.456 -4.512,-9.456 h -1.056 l -0.64,11.2 h 0.736 l 0.512,-9.072 4.336,9.072 h 0.592 l 4.384,-9.184 0.528,9.184 z"
         style="font-size:16px;line-height:1.25"
         id="path168" />
      <path
         d="m 272.93583,106.29921 v -4.48 c 0,-1.504 -0.928,-2.88 -2.32,-2.88 -1.024,0 -1.984,0.352 -2.848,0.896 v 0.496 c 0.72,-0.4 1.52,-0.656 2.352,-0.656 0.992,0 1.568,1.056 1.568,2.144 v 0.288 c -0.624,-0.272 -1.296,-0.432 -1.968,-0.432 -1.712,0 -2.976,0.784 -2.976,2.4 0,1.536 1.12,2.384 2.736,2.384 0.816,0 1.568,-0.368 2.208,-0.88 v 0.72 z m -1.248,-1.392 c -0.48,0.48 -1.072,0.88 -1.76,0.88 -1.072,0 -1.776,-0.656 -1.776,-1.712 0,-0.976 0.8,-1.728 1.776,-1.728 0.608,0 1.216,0.16 1.76,0.432 z"
         style="font-size:16px;line-height:1.25"
         id="path170" />
      <path
         d="m 278.42382,105.73921 v -0.48 c -0.304,0.256 -0.656,0.464 -1.056,0.464 -0.592,0 -0.704,-0.736 -0.704,-1.424 v -5.2 h -1.248 v 5.2 c 0,1.072 0.416,2.16 1.36,2.16 0.608,0 1.184,-0.304 1.648,-0.72 z m 0.032,-7.648 -1.728,-2.992 h -1.344 l -1.728,2.992 h 0.672 l 1.712,-2.16 1.744,2.16 z"
         style="font-size:16px;line-height:1.25"
         id="path172" />
      <path
         d="m 283.4158,105.73921 v -0.48 c -0.256,0.256 -0.56,0.464 -0.928,0.464 -0.576,0 -0.608,-0.752 -0.608,-1.424 v -4.528 h 1.536 v -0.672 h -1.536 v -2.4 h -0.752 c 0,1.28 -0.736,2.48 -1.904,2.48 v 0.592 h 1.408 v 4.528 c 0,1.056 0.336,2.16 1.248,2.16 0.592,0 1.104,-0.32 1.536,-0.72 z"
         style="font-size:16px;line-height:1.25"
         id="path174" />
      <path
         d="m 289.15978,100.09121 v -0.992 c -0.176,-0.064 -0.368,-0.112 -0.544,-0.112 -0.896,0 -1.616,0.624 -2.192,1.312 v -1.2 h -1.248 v 7.2 h 1.248 v -5.328 c 0.48,-0.56 1.088,-1.04 1.824,-1.04 0.304,0 0.624,0.064 0.912,0.16 z"
         style="font-size:16px;line-height:1.25"
         id="path176" />
      <path
         d="m 296.55177,102.85921 v -0.16 c 0,-2.256 -1.232,-3.76 -3.088,-3.76 -1.872,0 -3.104,1.504 -3.104,3.76 0,2.256 1.232,3.76 3.104,3.76 0.8,0 1.584,-0.256 2.24,-0.72 v -0.672 c -0.752,0.48 -1.36,0.656 -2.24,0.656 -1.36,0 -1.696,-1.296 -1.696,-2.864 z m -1.408,-0.672 h -3.376 c 0,-1.28 0.544,-2.576 1.696,-2.576 1.136,0 1.68,1.296 1.68,2.576 z"
         style="font-size:16px;line-height:1.25"
         id="path178" />
    </g>
    <g
       aria-label="Esclave"
       id="text3272"
       style="line-height:0%;font-family:Iwona;-inkscape-font-specification:Iwona;text-align:center;letter-spacing:0px;word-spacing:0px;text-anchor:middle">
      <path
         d="m 559.25297,106.29921 v -0.736 h -6.688 v -4.496 h 5.088 v -0.736 h -5.088 v -4.496 h 6.304 v -0.736 h -7.616 v 11.2 z"
         style="font-size:16px;line-height:1.25"
         id="path181" />
      <path
         d="m 566.35697,104.25121 c 0,-1.264 -1.344,-1.92 -2.656,-2.24 -0.768,-0.192 -1.6,-0.512 -1.6,-1.264 0,-0.688 0.704,-1.136 1.472,-1.136 0.848,0 1.696,0.256 2.4,0.72 v -0.672 c -0.704,-0.464 -1.552,-0.72 -2.4,-0.72 -1.392,0 -2.672,0.848 -2.672,2.144 0,1.168 1.296,1.712 2.528,2.016 0.848,0.208 1.728,0.656 1.728,1.472 0,0.752 -0.768,1.216 -1.584,1.216 -0.992,0 -1.952,-0.24 -2.8,-0.72 v 0.672 c 0.848,0.48 1.808,0.72 2.8,0.72 1.44,0 2.784,-0.864 2.784,-2.208 z"
         style="font-size:16px;line-height:1.25"
         id="path183" />
      <path
         d="m 573.54095,100.76321 v -0.672 c -0.512,-0.72 -1.344,-1.152 -2.24,-1.152 -2,0 -3.344,1.504 -3.344,3.76 0,2.256 1.344,3.76 3.344,3.76 0.832,0 1.616,-0.416 2.08,-1.104 v -0.672 c -0.544,0.816 -1.104,1.104 -2.08,1.104 -1.152,0 -1.936,-1.232 -1.936,-3.088 0,-1.856 0.784,-3.088 1.936,-3.088 0.992,0 1.664,0.352 2.24,1.152 z"
         style="font-size:16px;line-height:1.25"
         id="path185" />
      <path
         d="m 578.22893,105.73921 v -0.48 c -0.304,0.256 -0.656,0.464 -1.056,0.464 -0.592,0 -0.704,-0.736 -0.704,-1.424 v -9.2 h -1.248 v 9.2 c 0,1.072 0.416,2.16 1.36,2.16 0.608,0 1.184,-0.304 1.648,-0.72 z"
         style="font-size:16px;line-height:1.25"
         id="path187" />
      <path
         d="m 585.4609,106.29921 v -4.48 c 0,-1.504 -0.928,-2.88 -2.32,-2.88 -1.024,0 -1.984,0.352 -2.848,0.896 v 0.496 c 0.72,-0.4 1.52,-0.656 2.352,-0.656 0.992,0 1.568,1.056 1.568,2.144 v 0.288 c -0.624,-0.272 -1.296,-0.432 -1.968,-0.432 -1.712,0 -2.976,0.784 -2.976,2.4 0,1.536 1.12,2.384 2.736,2.384 0.816,0 1.568,-0.368 2.208,-0.88 v 0.72 z m -1.248,-1.392 c -0.48,0.48 -1.072,0.88 -1.76,0.88 -1.072,0 -1.776,-0.656 -1.776,-1.712 0,-0.976 0.8,-1.728 1.776,-1.728 0.608,0 1.216,0.16 1.76,0.432 z"
         style="font-size:16px;line-height:1.25"
         id="path189" />
      <path
         d="m 593.09289,99.09921 h -0.72 l -2.176,5.984 -2.112,-5.984 h -1.184 l 2.528,7.2 h 1.04 z"
         style="font-size:16px;line-height:1.25"
         id="path191" />
      <path
         d="m 600.32488,102.85921 v -0.16 c 0,-2.256 -1.232,-3.76 -3.088,-3.76 -1.872,0 -3.104,1.504 -3.104,3.76 0,2.256 1.232,3.76 3.104,3.76 0.8,0 1.584,-0.256 2.24,-0.72 v -0.672 c -0.752,0.48 -1.36,0.656 -2.24,0.656 -1.36,0 -1.696,-1.296 -1.696,-2.864 z m -1.408,-0.672 h -3.376 c 0,-1.28 0.544,-2.576 1.696,-2.576 1.136,0 1.68,1.296 1.68,2.576 z"
         style="font-size:16px;line-height:1.25"
         id="path193" />
    </g>
    <g
       aria-label="Master In
Slave Out"
       id="text3276"
       style="line-height:0%;font-family:Iwona;-inkscape-font-specification:Iwona;text-align:center;letter-spacing:0px;word-spacing:0px;text-anchor:middle">
      <path
         d="m 403.54089,138.18896 -0.48,-8.4 h -0.792 l -3.372,7.092 -3.384,-7.092 h -0.792 l -0.48,8.4 h 0.552 l 0.384,-6.804 3.252,6.804 h 0.444 l 3.288,-6.888 0.396,6.888 z"
         style="font-size:12px;line-height:1.25"
         id="path196" />
      <path
         d="m 409.44487,138.18896 v -3.36 c 0,-1.128 -0.696,-2.16 -1.74,-2.16 -0.768,0 -1.488,0.264 -2.136,0.672 v 0.372 c 0.54,-0.3 1.14,-0.492 1.764,-0.492 0.744,0 1.176,0.792 1.176,1.608 v 0.216 c -0.468,-0.204 -0.972,-0.324 -1.476,-0.324 -1.284,0 -2.232,0.588 -2.232,1.8 0,1.152 0.84,1.788 2.052,1.788 0.612,0 1.176,-0.276 1.656,-0.66 v 0.54 z m -0.936,-1.044 c -0.36,0.36 -0.804,0.66 -1.32,0.66 -0.804,0 -1.332,-0.492 -1.332,-1.284 0,-0.732 0.6,-1.296 1.332,-1.296 0.456,0 0.912,0.12 1.32,0.324 z"
         style="font-size:12px;line-height:1.25"
         id="path198" />
      <path
         d="m 415.01286,136.65296 c 0,-0.948 -1.008,-1.44 -1.992,-1.68 -0.576,-0.144 -1.2,-0.384 -1.2,-0.948 0,-0.516 0.528,-0.852 1.104,-0.852 0.636,0 1.272,0.192 1.8,0.54 v -0.504 c -0.528,-0.348 -1.164,-0.54 -1.8,-0.54 -1.044,0 -2.004,0.636 -2.004,1.608 0,0.876 0.972,1.284 1.896,1.512 0.636,0.156 1.296,0.492 1.296,1.104 0,0.564 -0.576,0.912 -1.188,0.912 -0.744,0 -1.464,-0.18 -2.1,-0.54 v 0.504 c 0.636,0.36 1.356,0.54 2.1,0.54 1.08,0 2.088,-0.648 2.088,-1.656 z"
         style="font-size:12px;line-height:1.25"
         id="path200" />
      <path
         d="m 419.05685,137.76896 v -0.36 c -0.192,0.192 -0.42,0.348 -0.696,0.348 -0.432,0 -0.456,-0.564 -0.456,-1.068 v -3.396 h 1.152 v -0.504 h -1.152 v -1.8 h -0.564 c 0,0.96 -0.552,1.86 -1.428,1.86 v 0.444 h 1.056 v 3.396 c 0,0.792 0.252,1.62 0.936,1.62 0.444,0 0.828,-0.24 1.152,-0.54 z"
         style="font-size:12px;line-height:1.25"
         id="path202" />
      <path
         d="m 424.72083,135.60896 v -0.12 c 0,-1.692 -0.924,-2.82 -2.316,-2.82 -1.404,0 -2.328,1.128 -2.328,2.82 0,1.692 0.924,2.82 2.328,2.82 0.6,0 1.188,-0.192 1.68,-0.54 v -0.504 c -0.564,0.36 -1.02,0.492 -1.68,0.492 -1.02,0 -1.272,-0.972 -1.272,-2.148 z m -1.056,-0.504 h -2.532 c 0,-0.96 0.408,-1.932 1.272,-1.932 0.852,0 1.26,0.972 1.26,1.932 z"
         style="font-size:12px;line-height:1.25"
         id="path204" />
      <path
         d="m 429.26882,133.53296 v -0.744 c -0.132,-0.048 -0.276,-0.084 -0.408,-0.084 -0.672,0 -1.212,0.468 -1.644,0.984 v -0.9 h -0.936 v 5.4 h 0.936 v -3.996 c 0.36,-0.42 0.816,-0.78 1.368,-0.78 0.228,0 0.468,0.048 0.684,0.12 z"
         style="font-size:12px;line-height:1.25"
         id="path206" />
      <path
         d="m 435.68878,138.18896 v -8.4 h -0.984 v 8.4 z"
         style="font-size:12px;line-height:1.25"
         id="path208" />
      <path
         d="m 442.19278,138.18896 v -3.9 c 0,-0.876 -0.672,-1.62 -1.536,-1.62 -0.72,0 -1.356,0.408 -1.872,0.912 v -0.792 h -0.936 v 5.4 h 0.936 v -4.236 c 0.408,-0.408 0.912,-0.732 1.476,-0.732 0.564,0 0.996,0.492 0.996,1.068 v 3.9 z"
         style="font-size:12px;line-height:1.25"
         id="path210" />
      <path
         d="m 399.77289,150.75296 c 0,-1.476 -1.5,-2.352 -3.048,-2.676 -1.032,-0.216 -2.196,-0.48 -2.196,-1.44 0,-0.948 1.02,-1.488 2.076,-1.488 0.972,0 1.92,0.288 2.688,0.888 v -0.48 c -0.768,-0.6 -1.716,-0.96 -2.688,-0.96 -1.56,0 -3.024,0.876 -3.024,2.292 0,1.356 1.464,2.04 2.892,2.34 1.14,0.24 2.352,0.708 2.352,1.776 0,1.092 -1.068,1.824 -2.22,1.824 -1.116,0 -2.22,-0.288 -3.156,-0.888 v 0.48 c 0.948,0.6 2.028,0.96 3.156,0.96 1.656,0 3.168,-1.068 3.168,-2.628 z"
         style="font-size:12px;line-height:1.25"
         id="path212" />
      <path
         d="m 403.70888,152.76896 v -0.36 c -0.228,0.192 -0.492,0.348 -0.792,0.348 -0.444,0 -0.528,-0.552 -0.528,-1.068 v -6.9 h -0.936 v 6.9 c 0,0.804 0.312,1.62 1.02,1.62 0.456,0 0.888,-0.228 1.236,-0.54 z"
         style="font-size:12px;line-height:1.25"
         id="path214" />
      <path
         d="m 409.13286,153.18896 v -3.36 c 0,-1.128 -0.696,-2.16 -1.74,-2.16 -0.768,0 -1.488,0.264 -2.136,0.672 v 0.372 c 0.54,-0.3 1.14,-0.492 1.764,-0.492 0.744,0 1.176,0.792 1.176,1.608 v 0.216 c -0.468,-0.204 -0.972,-0.324 -1.476,-0.324 -1.284,0 -2.232,0.588 -2.232,1.8 0,1.152 0.84,1.788 2.052,1.788 0.612,0 1.176,-0.276 1.656,-0.66 v 0.54 z m -0.936,-1.044 c -0.36,0.36 -0.804,0.66 -1.32,0.66 -0.804,0 -1.332,-0.492 -1.332,-1.284 0,-0.732 0.6,-1.296 1.332,-1.296 0.456,0 0.912,0.12 1.32,0.324 z"
         style="font-size:12px;line-height:1.25"
         id="path216" />
      <path
         d="m 414.85685,147.78896 h -0.54 l -1.632,4.488 -1.584,-4.488 h -0.888 l 1.896,5.4 h 0.78 z"
         style="font-size:12px;line-height:1.25"
         id="path218" />
      <path
         d="m 420.28084,150.60896 v -0.12 c 0,-1.692 -0.924,-2.82 -2.316,-2.82 -1.404,0 -2.328,1.128 -2.328,2.82 0,1.692 0.924,2.82 2.328,2.82 0.6,0 1.188,-0.192 1.68,-0.54 v -0.504 c -0.564,0.36 -1.02,0.492 -1.68,0.492 -1.02,0 -1.272,-0.972 -1.272,-2.148 z m -1.056,-0.504 h -2.532 c 0,-0.96 0.408,-1.932 1.272,-1.932 0.852,0 1.26,0.972 1.26,1.932 z"
         style="font-size:12px;line-height:1.25"
         id="path220" />
      <path
         d="m 433.09681,148.98896 c 0,-2.544 -1.32,-4.32 -3.744,-4.32 -2.436,0 -3.756,1.776 -3.756,4.32 0,2.544 1.32,4.32 3.756,4.32 2.424,0 3.744,-1.776 3.744,-4.32 z m -1.176,0 c 0,2.1 -0.696,3.768 -2.568,3.768 -1.884,0 -2.58,-1.668 -2.58,-3.768 0,-2.1 0.696,-3.768 2.58,-3.768 1.872,0 2.568,1.668 2.568,3.768 z"
         style="font-size:12px;line-height:1.25"
         id="path222" />
      <path
         d="m 439.0608,153.18896 v -5.4 h -0.936 v 4.236 c -0.408,0.408 -0.912,0.732 -1.476,0.732 -0.564,0 -0.996,-0.492 -0.996,-1.068 v -3.9 h -0.936 v 3.9 c 0,0.876 0.672,1.62 1.536,1.62 0.72,0 1.356,-0.408 1.872,-0.912 v 0.792 z"
         style="font-size:12px;line-height:1.25"
         id="path224" />
      <path
         d="m 443.52477,152.76896 v -0.36 c -0.192,0.192 -0.42,0.348 -0.696,0.348 -0.432,0 -0.456,-0.564 -0.456,-1.068 v -3.396 h 1.152 v -0.504 h -1.152 v -1.8 h -0.564 c 0,0.96 -0.552,1.86 -1.428,1.86 v 0.444 h 1.056 v 3.396 c 0,0.792 0.252,1.62 0.936,1.62 0.444,0 0.828,-0.24 1.152,-0.54 z"
         style="font-size:12px;line-height:1.25"
         id="path226" />
    </g>
    <g
       aria-label="Master Out
Slave In"
       id="text3282"
       style="line-height:0%;font-family:Iwona;-inkscape-font-specification:Iwona;text-align:center;letter-spacing:0px;word-spacing:0px;text-anchor:middle">
      <path
         d="m 398.8309,216.14172 -0.48,-8.4 h -0.792 l -3.372,7.092 -3.384,-7.092 h -0.792 l -0.48,8.4 h 0.552 l 0.384,-6.804 3.252,6.804 h 0.444 l 3.288,-6.888 0.396,6.888 z"
         style="font-size:12px;line-height:1.25"
         id="path229" />
      <path
         d="m 404.73488,216.14172 v -3.36 c 0,-1.128 -0.696,-2.16 -1.74,-2.16 -0.768,0 -1.488,0.264 -2.136,0.672 v 0.372 c 0.54,-0.3 1.14,-0.492 1.764,-0.492 0.744,0 1.176,0.792 1.176,1.608 v 0.216 c -0.468,-0.204 -0.972,-0.324 -1.476,-0.324 -1.284,0 -2.232,0.588 -2.232,1.8 0,1.152 0.84,1.788 2.052,1.788 0.612,0 1.176,-0.276 1.656,-0.66 v 0.54 z m -0.936,-1.044 c -0.36,0.36 -0.804,0.66 -1.32,0.66 -0.804,0 -1.332,-0.492 -1.332,-1.284 0,-0.732 0.6,-1.296 1.332,-1.296 0.456,0 0.912,0.12 1.32,0.324 z"
         style="font-size:12px;line-height:1.25"
         id="path231" />
      <path
         d="m 410.30287,214.60572 c 0,-0.948 -1.008,-1.44 -1.992,-1.68 -0.576,-0.144 -1.2,-0.384 -1.2,-0.948 0,-0.516 0.528,-0.852 1.104,-0.852 0.636,0 1.272,0.192 1.8,0.54 v -0.504 c -0.528,-0.348 -1.164,-0.54 -1.8,-0.54 -1.044,0 -2.004,0.636 -2.004,1.608 0,0.876 0.972,1.284 1.896,1.512 0.636,0.156 1.296,0.492 1.296,1.104 0,0.564 -0.576,0.912 -1.188,0.912 -0.744,0 -1.464,-0.18 -2.1,-0.54 v 0.504 c 0.636,0.36 1.356,0.54 2.1,0.54 1.08,0 2.088,-0.648 2.088,-1.656 z"
         style="font-size:12px;line-height:1.25"
         id="path233" />
      <path
         d="m 414.34686,215.72172 v -0.36 c -0.192,0.192 -0.42,0.348 -0.696,0.348 -0.432,0 -0.456,-0.564 -0.456,-1.068 v -3.396 h 1.152 v -0.504 h -1.152 v -1.8 h -0.564 c 0,0.96 -0.552,1.86 -1.428,1.86 v 0.444 h 1.056 v 3.396 c 0,0.792 0.252,1.62 0.936,1.62 0.444,0 0.828,-0.24 1.152,-0.54 z"
         style="font-size:12px;line-height:1.25"
         id="path235" />
      <path
         d="m 420.01084,213.56172 v -0.12 c 0,-1.692 -0.924,-2.82 -2.316,-2.82 -1.404,0 -2.328,1.128 -2.328,2.82 0,1.692 0.924,2.82 2.328,2.82 0.6,0 1.188,-0.192 1.68,-0.54 v -0.504 c -0.564,0.36 -1.02,0.492 -1.68,0.492 -1.02,0 -1.272,-0.972 -1.272,-2.148 z m -1.056,-0.504 h -2.532 c 0,-0.96 0.408,-1.932 1.272,-1.932 0.852,0 1.26,0.972 1.26,1.932 z"
         style="font-size:12px;line-height:1.25"
         id="path237" />
      <path
         d="m 424.55883,211.48572 v -0.744 c -0.132,-0.048 -0.276,-0.084 -0.408,-0.084 -0.672,0 -1.212,0.468 -1.644,0.984 v -0.9 h -0.936 v 5.4 h 0.936 v -3.996 c 0.36,-0.42 0.816,-0.78 1.368,-0.78 0.228,0 0.468,0.048 0.684,0.12 z"
         style="font-size:12px;line-height:1.25"
         id="path239" />
      <path
         d="m 437.0148,211.94172 c 0,-2.544 -1.32,-4.32 -3.744,-4.32 -2.436,0 -3.756,1.776 -3.756,4.32 0,2.544 1.32,4.32 3.756,4.32 2.424,0 3.744,-1.776 3.744,-4.32 z m -1.176,0 c 0,2.1 -0.696,3.768 -2.568,3.768 -1.884,0 -2.58,-1.668 -2.58,-3.768 0,-2.1 0.696,-3.768 2.58,-3.768 1.872,0 2.568,1.668 2.568,3.768 z"
         style="font-size:12px;line-height:1.25"
         id="path241" />
      <path
         d="m 442.97878,216.14172 v -5.4 h -0.936 v 4.236 c -0.408,0.408 -0.912,0.732 -1.476,0.732 -0.564,0 -0.996,-0.492 -0.996,-1.068 v -3.9 h -0.936 v 3.9 c 0,0.876 0.672,1.62 1.536,1.62 0.72,0 1.356,-0.408 1.872,-0.912 v 0.792 z"
         style="font-size:12px;line-height:1.25"
         id="path243" />
      <path
         d="m 447.44276,215.72172 v -0.36 c -0.192,0.192 -0.42,0.348 -0.696,0.348 -0.432,0 -0.456,-0.564 -0.456,-1.068 v -3.396 h 1.152 v -0.504 h -1.152 v -1.8 h -0.564 c 0,0.96 -0.552,1.86 -1.428,1.86 v 0.444 h 1.056 v 3.396 c 0,0.792 0.252,1.62 0.936,1.62 0.444,0 0.828,-0.24 1.152,-0.54 z"
         style="font-size:12px;line-height:1.25"
         id="path245" />
      <path
         d="m 404.48288,228.70572 c 0,-1.476 -1.5,-2.352 -3.048,-2.676 -1.032,-0.216 -2.196,-0.48 -2.196,-1.44 0,-0.948 1.02,-1.488 2.076,-1.488 0.972,0 1.92,0.288 2.688,0.888 v -0.48 c -0.768,-0.6 -1.716,-0.96 -2.688,-0.96 -1.56,0 -3.024,0.876 -3.024,2.292 0,1.356 1.464,2.04 2.892,2.34 1.14,0.24 2.352,0.708 2.352,1.776 0,1.092 -1.068,1.824 -2.22,1.824 -1.116,0 -2.22,-0.288 -3.156,-0.888 v 0.48 c 0.948,0.6 2.028,0.96 3.156,0.96 1.656,0 3.168,-1.068 3.168,-2.628 z"
         style="font-size:12px;line-height:1.25"
         id="path247" />
      <path
         d="m 408.41887,230.72172 v -0.36 c -0.228,0.192 -0.492,0.348 -0.792,0.348 -0.444,0 -0.528,-0.552 -0.528,-1.068 v -6.9 h -0.936 v 6.9 c 0,0.804 0.312,1.62 1.02,1.62 0.456,0 0.888,-0.228 1.236,-0.54 z"
         style="font-size:12px;line-height:1.25"
         id="path249" />
      <path
         d="m 413.84285,231.14172 v -3.36 c 0,-1.128 -0.696,-2.16 -1.74,-2.16 -0.768,0 -1.488,0.264 -2.136,0.672 v 0.372 c 0.54,-0.3 1.14,-0.492 1.764,-0.492 0.744,0 1.176,0.792 1.176,1.608 v 0.216 c -0.468,-0.204 -0.972,-0.324 -1.476,-0.324 -1.284,0 -2.232,0.588 -2.232,1.8 0,1.152 0.84,1.788 2.052,1.788 0.612,0 1.176,-0.276 1.656,-0.66 v 0.54 z m -0.936,-1.044 c -0.36,0.36 -0.804,0.66 -1.32,0.66 -0.804,0 -1.332,-0.492 -1.332,-1.284 0,-0.732 0.6,-1.296 1.332,-1.296 0.456,0 0.912,0.12 1.32,0.324 z"
         style="font-size:12px;line-height:1.25"
         id="path251" />
      <path
         d="m 419.56684,225.74172 h -0.54 l -1.632,4.488 -1.584,-4.488 h -0.888 l 1.896,5.4 h 0.78 z"
         style="font-size:12px;line-height:1.25"
         id="path253" />
      <path
         d="m 424.99083,228.56172 v -0.12 c 0,-1.692 -0.924,-2.82 -2.316,-2.82 -1.404,0 -2.328,1.128 -2.328,2.82 0,1.692 0.924,2.82 2.328,2.82 0.6,0 1.188,-0.192 1.68,-0.54 v -0.504 c -0.564,0.36 -1.02,0.492 -1.68,0.492 -1.02,0 -1.272,-0.972 -1.272,-2.148 z m -1.056,-0.504 h -2.532 c 0,-0.96 0.408,-1.932 1.272,-1.932 0.852,0 1.26,0.972 1.26,1.932 z"
         style="font-size:12px;line-height:1.25"
         id="path255" />
      <path
         d="m 431.7708,231.14172 v -8.4 h -0.984 v 8.4 z"
         style="font-size:12px;line-height:1.25"
         id="path257" />
      <path
         d="m 438.27479,231.14172 v -3.9 c 0,-0.876 -0.672,-1.62 -1.536,-1.62 -0.72,0 -1.356,0.408 -1.872,0.912 v -0.792 h -0.936 v 5.4 h 0.936 v -4.236 c 0.408,-0.408 0.912,-0.732 1.476,-0.732 0.564,0 0.996,0.492 0.996,1.068 v 3.9 z"
         style="font-size:12px;line-height:1.25"
         id="path259" />
    </g>
    <path
       style="fill:#d5e5ff;fill-opacity:1;stroke:#000000;stroke-width:1px;stroke-linecap:butt;stroke-linejoin:miter;stroke-opacity:1"
       d="m 368.50394,152.3622 -7.08661,7.08661 7.08661,7.08662 h 10.62992 V 152.3622 Z"
       id="path3288" />
    <path
       id="path3290"
       d="M 457.08661,152.3622 450,159.44881 l 7.08661,7.08662 h 10.62992 V 152.3622 Z"
       style="fill:#d5e5ff;fill-opacity:1;stroke:#000000;stroke-width:1px;stroke-linecap:butt;stroke-linejoin:miter;stroke-opacity:1" />
    <path
       id="path3292"
       d="m 464.17322,194.88188 7.08661,7.08661 -7.08661,7.08662 H 453.5433 v -14.17323 z"
       style="fill:#d5e5ff;fill-opacity:1;stroke:#000000;stroke-width:1px;stroke-linecap:butt;stroke-linejoin:miter;stroke-opacity:1" />
    <path
       style="fill:#d5e5ff;fill-opacity:1;stroke:#000000;stroke-width:1px;stroke-linecap:butt;stroke-linejoin:miter;stroke-opacity:1"
       d="m 375.59055,194.88188 7.08661,7.08661 -7.08661,7.08662 h -10.62992 v -14.17323 z"
       id="path3294" />
    <path
       style="fill:none;stroke:#000000;stroke-width:1px;stroke-linecap:butt;stroke-linejoin:miter;stroke-opacity:1;marker-end:url(#Arrow1Mend)"
       d="m 382.67717,201.9685 h 70.86614"
       id="path3296" />
    <path
       style="fill:#d5e5ff;fill-opacity:1;stroke:#000000;stroke-width:1px;stroke-linecap:butt;stroke-linejoin:miter;stroke-opacity:1"
       d="m 464.17322,99.212593 7.08661,7.086607 -7.08661,7.08662 H 453.5433 V 99.212593 Z"
       id="path3298" />
    <path
       id="path3300"
       d="m 375.59055,99.212593 7.08661,7.086607 -7.08661,7.08662 H 364.96063 V 99.212593 Z"
       style="fill:#d5e5ff;fill-opacity:1;stroke:#000000;stroke-width:1px;stroke-linecap:butt;stroke-linejoin:miter;stroke-opacity:1" />
    <path
       style="fill:none;stroke:#000000;stroke-width:1px;stroke-linecap:butt;stroke-linejoin:miter;stroke-opacity:1;marker-end:url(#Arrow1Mend)"
       d="M 194.88189,159.44881 H 177.16535 V 201.9685 H 364.96063"
       id="path3302" />
    <path
       style="fill:none;stroke:#000000;stroke-width:1px;stroke-linecap:butt;stroke-linejoin:miter;stroke-opacity:1;marker-end:url(#Arrow1Mend)"
       d="M 361.41732,159.44881 H 336.61417"
       id="path3304" />
    <path
       id="path3306"
       d="M 496.06297,159.44881 H 467.71652"
       style="fill:none;stroke:#000000;stroke-width:1px;stroke-linecap:butt;stroke-linejoin:miter;stroke-opacity:1;marker-end:url(#Arrow1Mend)" />
    <g
       aria-label="Serial Clock"
       id="text3089"
       style="line-height:0%;font-family:Iwona;-inkscape-font-specification:Iwona;text-align:center;letter-spacing:0px;word-spacing:0px;text-anchor:middle">
      <path
         d="m 393.9409,82.603368 c 0,-1.476 -1.5,-2.352 -3.048,-2.676 -1.032,-0.216 -2.196,-0.48 -2.196,-1.44 0,-0.948 1.02,-1.488 2.076,-1.488 0.972,0 1.92,0.288 2.688,0.888 v -0.48 c -0.768,-0.6 -1.716,-0.96 -2.688,-0.96 -1.56,0 -3.024,0.876 -3.024,2.292 0,1.356 1.464,2.04 2.892,2.34 1.14,0.24 2.352,0.708 2.352,1.776 0,1.092 -1.068,1.824 -2.22,1.824 -1.116,0 -2.22,-0.288 -3.156,-0.888 v 0.48 c 0.948,0.6 2.028,0.96 3.156,0.96 1.656,0 3.168,-1.068 3.168,-2.628 z"
         style="font-size:12px;line-height:1.25"
         id="path262" />
      <path
         d="m 399.96489,82.459368 v -0.12 c 0,-1.692 -0.924,-2.82 -2.316,-2.82 -1.404,0 -2.328,1.128 -2.328,2.82 0,1.692 0.924,2.82 2.328,2.82 0.6,0 1.188,-0.192 1.68,-0.54 v -0.504 c -0.564,0.36 -1.02,0.492 -1.68,0.492 -1.02,0 -1.272,-0.972 -1.272,-2.148 z m -1.056,-0.504 h -2.532 c 0,-0.96 0.408,-1.932 1.272,-1.932 0.852,0 1.26,0.972 1.26,1.932 z"
         style="font-size:12px;line-height:1.25"
         id="path264" />
      <path
         d="m 404.51288,80.383368 v -0.744 c -0.132,-0.048 -0.276,-0.084 -0.408,-0.084 -0.672,0 -1.212,0.468 -1.644,0.984 v -0.9 h -0.936 v 5.4 h 0.936 v -3.996 c 0.36,-0.42 0.816,-0.78 1.368,-0.78 0.228,0 0.468,0.048 0.684,0.12 z"
         style="font-size:12px;line-height:1.25"
         id="path266" />
      <path
         d="m 407.90886,84.619368 v -0.36 c -0.228,0.192 -0.492,0.348 -0.792,0.348 -0.444,0 -0.528,-0.552 -0.528,-1.068 v -3.9 h -0.936 v 3.9 c 0,0.804 0.312,1.62 1.02,1.62 0.456,0 0.888,-0.228 1.236,-0.54 z m -1.2,-6.852 c 0,-0.324 -0.264,-0.588 -0.588,-0.588 -0.324,0 -0.588,0.264 -0.588,0.588 0,0.324 0.264,0.588 0.588,0.588 0.324,0 0.588,-0.264 0.588,-0.588 z"
         style="font-size:12px;line-height:1.25"
         id="path268" />
      <path
         d="m 413.33285,85.039368 v -3.36 c 0,-1.128 -0.696,-2.16 -1.74,-2.16 -0.768,0 -1.488,0.264 -2.136,0.672 v 0.372 c 0.54,-0.3 1.14,-0.492 1.764,-0.492 0.744,0 1.176,0.792 1.176,1.608 v 0.216 c -0.468,-0.204 -0.972,-0.324 -1.476,-0.324 -1.284,0 -2.232,0.588 -2.232,1.8 0,1.152 0.84,1.788 2.052,1.788 0.612,0 1.176,-0.276 1.656,-0.66 v 0.54 z m -0.936,-1.044 c -0.36,0.36 -0.804,0.66 -1.32,0.66 -0.804,0 -1.332,-0.492 -1.332,-1.284 0,-0.732 0.6,-1.296 1.332,-1.296 0.456,0 0.912,0.12 1.32,0.324 z"
         style="font-size:12px;line-height:1.25"
         id="path270" />
      <path
         d="m 417.50884,84.619368 v -0.36 c -0.228,0.192 -0.492,0.348 -0.792,0.348 -0.444,0 -0.528,-0.552 -0.528,-1.068 v -6.9 h -0.936 v 6.9 c 0,0.804 0.312,1.62 1.02,1.62 0.456,0 0.888,-0.228 1.236,-0.54 z"
         style="font-size:12px;line-height:1.25"
         id="path272" />
      <path
         d="m 429.0648,78.655368 v -0.648 c -0.648,-0.936 -1.716,-1.488 -2.844,-1.488 -2.436,0 -3.756,1.776 -3.756,4.32 0,2.544 1.32,4.32 3.756,4.32 0.936,0 1.86,-0.276 2.652,-0.792 v -0.552 c -0.792,0.516 -1.716,0.792 -2.652,0.792 -1.884,0 -2.58,-1.668 -2.58,-3.768 0,-2.1 0.696,-3.768 2.58,-3.768 1.152,0 2.232,0.6 2.844,1.584 z"
         style="font-size:12px;line-height:1.25"
         id="path274" />
      <path
         d="m 432.64079,84.619368 v -0.36 c -0.228,0.192 -0.492,0.348 -0.792,0.348 -0.444,0 -0.528,-0.552 -0.528,-1.068 v -6.9 h -0.936 v 6.9 c 0,0.804 0.312,1.62 1.02,1.62 0.456,0 0.888,-0.228 1.236,-0.54 z"
         style="font-size:12px;line-height:1.25"
         id="path276" />
      <path
         d="m 438.18477,82.339368 c 0,-1.836 -0.816,-2.82 -2.316,-2.82 -1.512,0 -2.328,0.984 -2.328,2.82 0,1.836 0.816,2.82 2.328,2.82 1.5,0 2.316,-0.984 2.316,-2.82 z m -1.056,0 c 0,1.5 -0.444,2.316 -1.26,2.316 -0.828,0 -1.272,-0.816 -1.272,-2.316 0,-1.5 0.444,-2.316 1.272,-2.316 0.816,0 1.26,0.816 1.26,2.316 z"
         style="font-size:12px;line-height:1.25"
         id="path278" />
      <path
         d="m 443.69277,80.887368 v -0.504 c -0.384,-0.54 -1.008,-0.864 -1.68,-0.864 -1.5,0 -2.508,1.128 -2.508,2.82 0,1.692 1.008,2.82 2.508,2.82 0.624,0 1.212,-0.312 1.56,-0.828 v -0.504 c -0.408,0.612 -0.828,0.828 -1.56,0.828 -0.864,0 -1.452,-0.924 -1.452,-2.316 0,-1.392 0.588,-2.316 1.452,-2.316 0.744,0 1.248,0.264 1.68,0.864 z"
         style="font-size:12px;line-height:1.25"
         id="path280" />
      <path
         d="m 449.59676,85.039368 -2.784,-3.204 2.688,-2.196 h -0.744 l -2.868,2.352 v -5.352 h -0.936 v 8.4 h 0.936 v -2.988 l 2.592,2.988 z"
         style="font-size:12px;line-height:1.25"
         id="path282" />
    </g>
  </g>
</svg>
