<?xml version="1.0" encoding="UTF-8" standalone="no"?>
<!-- Created with Inkscape (http://www.inkscape.org/) -->

<svg
   width="13.489728mm"
   height="24.281511mm"
   id="svg5234"
   version="1.1"
   viewBox="0 0 47.798249 86.036851"
   xmlns="http://www.w3.org/2000/svg"
   xmlns:svg="http://www.w3.org/2000/svg"
   xmlns:rdf="http://www.w3.org/1999/02/22-rdf-syntax-ns#"
   xmlns:cc="http://creativecommons.org/ns#"
   xmlns:dc="http://purl.org/dc/elements/1.1/">
  <defs
     id="defs5236" />
  <metadata
     id="metadata5239">
    <rdf:RDF>
      <cc:Work
         rdf:about="">
        <dc:format>image/svg+xml</dc:format>
        <dc:type
           rdf:resource="http://purl.org/dc/dcmitype/StillImage" />
        <dc:title />
      </cc:Work>
    </rdf:RDF>
  </metadata>
  <g
     id="layer1"
     transform="translate(-346.356,-259.4014)">
    <path
       style="fill:#ff0000;fill-opacity:1;stroke:none"
       d="m 358.30555,259.4014 -4.77981,4.77982 4.77981,4.77983 h 23.89914 l 4.77982,-4.77983 -4.77982,-4.77982 z"
       id="path4891-7" />
    <path
       id="path5013-7"
       d="m 358.30555,297.64 -4.77981,4.77983 4.77981,4.77982 h 23.89914 l 4.77982,-4.77982 -4.77982,-4.77983 z"
       style="fill:#ff0000;fill-opacity:1;stroke:none" />
    <path
       style="fill:#b3b3b3;fill-opacity:1;stroke:none"
       d="m 358.30555,335.8786 -4.77981,4.77983 4.77981,4.77982 h 23.89914 l 4.77982,-4.77982 -4.77982,-4.77983 z"
       id="path5015-3" />
    <path
       id="path5017-9"
       d="m 394.15425,273.65571 -4.77982,-4.77983 -4.77982,4.77983 v 19.1193 l 4.77982,4.77981 4.77982,-4.77981 z"
       style="fill:#b3b3b3;fill-opacity:1;stroke:none" />
    <path
       style="fill:#b3b3b3;fill-opacity:1;stroke:none"
       d="m 394.15425,311.89431 -4.77982,-4.77983 -4.77982,4.77983 v 19.1193 l 4.77982,4.77982 4.77982,-4.77982 z"
       id="path5019-1" />
    <path
       style="fill:#ff0000;fill-opacity:1;stroke:none"
       d="m 355.91563,273.65571 -4.77981,-4.77983 -4.77982,4.77983 v 19.1193 l 4.77982,4.77981 4.77981,-4.77981 z"
       id="path5021-7" />
    <path
       id="path5023-8"
       d="m 355.91563,311.89431 -4.77981,-4.77983 -4.77982,4.77983 v 19.1193 l 4.77982,4.77982 4.77981,-4.77982 z"
       style="fill:#ff0000;fill-opacity:1;stroke:none" />
  </g>
</svg>
