<?xml version="1.0" encoding="UTF-8" standalone="no"?>
<!-- Created with Inkscape (http://www.inkscape.org/) -->

<svg
   width="135.69482mm"
   height="62.999996mm"
   viewBox="0 0 480.80843 223.22833"
   id="svg7930"
   version="1.1"
   xmlns="http://www.w3.org/2000/svg"
   xmlns:svg="http://www.w3.org/2000/svg"
   xmlns:rdf="http://www.w3.org/1999/02/22-rdf-syntax-ns#"
   xmlns:cc="http://creativecommons.org/ns#"
   xmlns:dc="http://purl.org/dc/elements/1.1/">
  <defs
     id="defs7932">
    <marker
       orient="auto"
       refY="0"
       refX="0"
       id="Arrow1Mendr-1"
       style="overflow:visible">
      <path
         id="path91234-1"
         d="M 0,0 5,-5 -12.5,0 5,5 Z"
         style="fill:#0000ff;fill-rule:evenodd;stroke:#0000ff;stroke-width:1.00000003pt;marker-start:none"
         transform="matrix(-0.4,0,0,-0.4,-4,0)" />
    </marker>
  </defs>
  <metadata
     id="metadata7935">
    <rdf:RDF>
      <cc:Work
         rdf:about="">
        <dc:format>image/svg+xml</dc:format>
        <dc:type
           rdf:resource="http://purl.org/dc/dcmitype/StillImage" />
        <dc:title />
      </cc:Work>
    </rdf:RDF>
  </metadata>
  <g
     id="layer1"
     transform="translate(-75.990817,-460.62989)">
    <g
       id="g91856"
       transform="translate(-361.41733,9265.7603)">
      <path
         id="path91858"
         d="m 467.71654,-8656.3115 h 49.6063 l 7.08661,-21.2599 h 53.14961 l 7.08662,21.2599 h 166.53543"
         style="fill:none;stroke:#800080;stroke-width:1.5;stroke-linecap:butt;stroke-linejoin:miter;stroke-miterlimit:4;stroke-dasharray:none;stroke-opacity:1" />
      <path
         style="fill:none;stroke:#800080;stroke-width:1.5;stroke-linecap:butt;stroke-linejoin:miter;stroke-miterlimit:4;stroke-dasharray:none;stroke-opacity:1"
         d="m 467.71654,-8709.4611 h 35.43307 l 7.08661,-21.2599 h 88.58269 l 7.08661,21.2599 h 63.77952 l 7.55062,-21.2599 73.94545,10e-5"
         id="path91860" />
      <g
         aria-label="e"
         id="text91862"
         style="line-height:0%;font-family:Iwona;-inkscape-font-specification:Iwona;text-align:end;text-anchor:end">
        <path
           d="m 462.97757,-8716.6561 v -0.1698 c 0,-2.3945 -1.30763,-3.9908 -3.27756,-3.9908 -1.98692,0 -3.29455,1.5963 -3.29455,3.9908 0,2.3945 1.30763,3.9908 3.29455,3.9908 0.84911,0 1.68124,-0.2717 2.37751,-0.7642 v -0.7132 c -0.79817,0.5095 -1.44349,0.6963 -2.37751,0.6963 -1.44349,0 -1.80012,-1.3756 -1.80012,-3.0399 z m -1.49443,-0.7132 h -3.58325 c 0,-1.3586 0.5774,-2.7341 1.80012,-2.7341 1.20573,0 1.78313,1.3755 1.78313,2.7341 z"
           style="font-size:16.9822px;line-height:1.25"
           id="path80" />
      </g>
      <g
         aria-label="x"
         id="text91866"
         style="line-height:0%;font-family:Iwona;-inkscape-font-specification:Iwona;text-align:end;text-anchor:end">
        <path
           d="m 462.36391,-8659.8545 -2.66621,-4.0757 2.5813,-3.5663 h -0.88308 l -2.10579,2.921 -1.90201,-2.921 h -1.4265 l 2.53035,3.8889 -2.70017,3.7531 h 0.88307 l 2.24165,-3.1077 2.02088,3.1077 z"
           style="font-size:16.9822px;line-height:1.25"
           id="path83" />
      </g>
      <path
         style="fill:none;stroke:#784421;stroke-width:1.5;stroke-linecap:butt;stroke-linejoin:miter;stroke-miterlimit:4;stroke-dasharray:none;stroke-opacity:1"
         d="m 467.71654,-8603.1619 h 92.12599 l 7.08661,-21.2599 h 134.64567 l 7.08662,21.2599 h 42.51968"
         id="path91870" />
      <g
         aria-label="y"
         id="text91872"
         style="line-height:0%;font-family:Iwona;-inkscape-font-specification:Iwona;text-align:end;text-anchor:end">
        <path
           d="m 461.34497,-8605.6861 v -8.661 h -1.32461 v 5.9947 c -0.57739,0.5774 -1.29064,1.036 -2.08881,1.036 -0.79816,0 -1.40952,-0.6963 -1.40952,-1.5115 v -5.5192 h -1.32461 v 5.5192 c 0,1.2397 0.951,2.2926 2.17372,2.2926 1.01893,0 1.91899,-0.5774 2.64922,-1.2906 v 2.1398 c 0,1.1378 -0.50946,2.2756 -1.5284,2.2756 -0.79816,0 -1.56236,-0.1699 -2.29259,-0.4586 v 0.5265 c 0.86609,0.4415 1.83408,0.7133 2.81904,0.7133 1.44349,0 2.32656,-1.4945 2.32656,-3.0568 z"
           style="font-size:16.9822px;line-height:1.25"
           id="path86" />
      </g>
      <path
         id="path91876"
         d="m 488.97638,-8798.0438 v 209.0551"
         style="fill:none;stroke:#636363;stroke-width:1.5;stroke-linecap:butt;stroke-linejoin:miter;stroke-miterlimit:4;stroke-dasharray:1.5, 1.5;stroke-dashoffset:0;stroke-opacity:1" />
      <path
         style="fill:none;stroke:#636363;stroke-width:1.5;stroke-linecap:butt;stroke-linejoin:miter;stroke-miterlimit:4;stroke-dasharray:1.5, 1.5;stroke-dashoffset:0;stroke-opacity:1"
         d="m 630.70867,-8798.0438 -10e-6,209.0551"
         id="path91878" />
      <path
         id="path91880"
         d="m 559.84252,-8798.0438 v 209.0551"
         style="fill:none;stroke:#636363;stroke-width:1.5;stroke-linecap:butt;stroke-linejoin:miter;stroke-miterlimit:4;stroke-dasharray:1.5, 1.5;stroke-dashoffset:0;stroke-opacity:1" />
      <path
         id="path91884"
         style="fill:none;stroke:#0000ff;stroke-linecap:round"
         d="m 563.38584,-8677.5713 a 3.5433071,3.5433071 0 0 1 -3.54331,3.5433 3.5433071,3.5433071 0 0 1 -3.54331,-3.5433 3.5433071,3.5433071 0 0 1 3.54331,-3.5433 3.5433071,3.5433071 0 0 1 3.54331,3.5433 z" />
      <path
         id="path91886"
         style="fill:none;stroke:#0000ff;stroke-linecap:round"
         d="m 705.11814,-8656.3115 a 3.5433071,3.5433071 0 0 1 -3.54331,3.5433 3.5433071,3.5433071 0 0 1 -3.54331,-3.5433 3.5433071,3.5433071 0 0 1 3.54331,-3.5433 3.5433071,3.5433071 0 0 1 3.54331,3.5433 z" />
      <path
         style="fill:none;stroke:#0000ff;stroke-width:1px;stroke-linecap:butt;stroke-linejoin:miter;stroke-opacity:1;marker-end:url(#Arrow1Mendr-1)"
         d="m 559.84253,-8674.0281 c 7.08661,10.63 7.08661,46.0631 7.08661,46.0631"
         id="path91890" />
      <path
         id="path91892"
         d="m 701.57481,-8652.7682 c 7.08661,10.63 7.08661,46.063 7.08661,46.063"
         style="fill:none;stroke:#0000ff;stroke-width:1px;stroke-linecap:butt;stroke-linejoin:miter;stroke-opacity:1;marker-end:url(#Arrow1Mendr-1)" />
      <path
         id="path91894"
         d="m 467.71655,-8762.6106 h 14.17323 l 7.08661,-21.2599 h 28.34646 l 7.08661,21.2599 h 28.34646 l 7.08662,-21.2599 H 588.189 l 7.08661,21.2599 h 27.88245 l 7.55062,-21.2599 h 28.34645 l 7.08662,21.2599 28.34644,-10e-5 7.12317,-21.2599 c -0.13217,0 28.21428,0 28.21428,0 l 6.80541,21.2598 14.55006,1e-4"
         style="fill:none;stroke:#800080;stroke-width:1.5;stroke-linecap:butt;stroke-linejoin:miter;stroke-miterlimit:4;stroke-dasharray:none;stroke-opacity:1" />
      <g
         aria-label="clk"
         id="text91896"
         style="line-height:0%;font-family:Iwona;-inkscape-font-specification:Iwona;text-align:end;text-anchor:end">
        <path
           d="m 450.41078,-8772.0301 v -0.7133 c -0.54343,-0.7642 -1.4265,-1.2227 -2.37751,-1.2227 -2.12277,0 -3.54928,1.5963 -3.54928,3.9908 0,2.3945 1.42651,3.9908 3.54928,3.9908 0.88308,0 1.71521,-0.4415 2.20769,-1.1717 v -0.7133 c -0.57739,0.8661 -1.17177,1.1718 -2.20769,1.1718 -1.22271,0 -2.05484,-1.3077 -2.05484,-3.2776 0,-1.9699 0.83213,-3.2776 2.05484,-3.2776 1.0529,0 1.76615,0.3737 2.37751,1.2228 z"
           style="font-size:16.9822px;line-height:1.25"
           id="path91" />
        <path
           d="m 455.38655,-8766.7487 v -0.5094 c -0.32266,0.2717 -0.69627,0.4924 -1.12083,0.4924 -0.62834,0 -0.74721,-0.7811 -0.74721,-1.5114 v -9.7647 h -1.32461 v 9.7647 c 0,1.1378 0.44153,2.2926 1.44348,2.2926 0.64533,0 1.25669,-0.3226 1.74917,-0.7642 z"
           style="font-size:16.9822px;line-height:1.25"
           id="path93" />
        <path
           d="m 463.65685,-8766.1543 -3.93987,-4.5342 3.80401,-3.1078 h -1.05289 l -4.05875,3.3285 v -7.574 h -1.32461 v 11.8875 h 1.32461 v -4.2286 l 3.66816,4.2286 z"
           style="font-size:16.9822px;line-height:1.25"
           id="path95" />
      </g>
      <path
         id="path91902"
         d="m 701.5748,-8798.0438 -10e-6,209.0551"
         style="fill:none;stroke:#636363;stroke-width:1.5;stroke-linecap:butt;stroke-linejoin:miter;stroke-miterlimit:4;stroke-dasharray:1.5, 1.5;stroke-dashoffset:0;stroke-opacity:1" />
    </g>
    <g
       id="g9286"
       transform="translate(-56.692901,21.259854)">
      <g
         aria-label="y"
         id="text90299-7-5"
         style="line-height:0%;font-family:Iwona;-inkscape-font-specification:Iwona;text-align:center;text-anchor:middle;fill:#502d16">
        <path
           d="m 601.89761,507.71186 v -8.66092 H 600.573 v 5.99472 c -0.5774,0.57739 -1.29065,1.03591 -2.08881,1.03591 -0.79817,0 -1.40953,-0.69627 -1.40953,-1.51141 v -5.51922 h -1.32461 v 5.51922 c 0,1.2397 0.95101,2.29259 2.17372,2.29259 1.01894,0 1.91899,-0.57739 2.64923,-1.29064 v 2.13975 c 0,1.13781 -0.50947,2.27562 -1.5284,2.27562 -0.79816,0 -1.56236,-0.16982 -2.2926,-0.45852 v 0.52645 c 0.86609,0.44154 1.83408,0.71325 2.81905,0.71325 1.44348,0 2.32656,-1.49443 2.32656,-3.0568 z"
           style="font-size:16.9822px;line-height:1.25"
           id="path98" />
      </g>
      <path
         id="path8455-8"
         d="m 591.73228,513.77952 v 14.17323 h 14.17324 v -14.17323 z"
         style="fill:#afdde9;fill-opacity:1;fill-rule:evenodd;stroke:#000000;stroke-width:1px;stroke-linecap:butt;stroke-linejoin:miter;stroke-opacity:1" />
      <g
         transform="translate(286.33889,1353.0847)"
         id="layer1-5">
        <g
           transform="translate(97.713382,-848.8949)"
           id="g10880">
          <path
             id="rect9030"
             style="fill:#fff6d5;stroke:#000000;stroke-width:0.999213"
             d="m 129.72725,-1.0402113 h 60.23622 V 87.542468 h -60.23622 z" />
          <g
             transform="translate(277.79303,-113.38582)"
             id="g10852">
            <g
               aria-label="D"
               id="text10854"
               style="font-style:italic;line-height:0%;font-family:'Bitstream Vera Sans';-inkscape-font-specification:'Sans Italic'">
              <path
                 d="m -141.99153,125.83006 v 6.80274 h 1.42969 q 1.81054,0 2.64843,-0.82032 0.84375,-0.82031 0.84375,-2.58984 0,-1.75781 -0.84375,-2.57226 -0.83789,-0.82032 -2.64843,-0.82032 z m -1.1836,-0.97265 h 2.43165 q 2.54296,0 3.73242,1.06054 1.18945,1.05469 1.18945,3.30469 0,2.26172 -1.19531,3.32227 -1.19531,1.06054 -3.72656,1.06054 h -2.43165 z"
                 style="font-style:normal;font-size:12px;line-height:1.25"
                 id="path102" />
            </g>
          </g>
          <g
             transform="translate(283.79303,-56.692897)"
             id="g10860">
            <g
               aria-label="CLK"
               id="text10862"
               style="font-style:italic;line-height:0%;font-family:'Bitstream Vera Sans';-inkscape-font-specification:'Sans Italic'">
              <path
                 d="m -136.12044,125.53123 v 1.24805 q -0.59765,-0.55664 -1.27734,-0.83203 -0.67383,-0.27539 -1.43555,-0.27539 -1.5,0 -2.29687,0.91992 -0.79688,0.91406 -0.79688,2.64844 0,1.72851 0.79688,2.64844 0.79687,0.91406 2.29687,0.91406 0.76172,0 1.43555,-0.27539 0.67969,-0.27539 1.27734,-0.83203 v 1.23633 q -0.62109,0.42187 -1.31836,0.63281 -0.6914,0.21094 -1.46484,0.21094 -1.98633,0 -3.12891,-1.2129 -1.14258,-1.21875 -1.14258,-3.32226 0,-2.10938 1.14258,-3.32227 1.14258,-1.21875 3.12891,-1.21875 0.78516,0 1.47656,0.21094 0.69727,0.20508 1.30664,0.62109 z"
                 style="font-style:normal;font-size:12px;line-height:1.25"
                 id="path105" />
              <path
                 d="m -134.29231,124.85741 h 1.18359 v 7.75195 h 4.25977 v 0.99609 h -5.44336 z"
                 style="font-style:normal;font-size:12px;line-height:1.25"
                 id="path107" />
              <path
                 d="m -127.60677,124.85741 h 1.1836 v 3.69726 l 3.92578,-3.69726 h 1.52344 l -4.3418,4.07812 4.65234,4.66992 h -1.55859 l -4.20117,-4.21289 v 4.21289 h -1.1836 z"
                 style="font-style:normal;font-size:12px;line-height:1.25"
                 id="path109" />
            </g>
          </g>
          <g
             aria-label="Q"
             id="text10868"
             style="font-style:italic;line-height:0%;font-family:'Bitstream Vera Sans';-inkscape-font-specification:'Sans Italic'">
            <path
               d="m 180.63591,12.274317 q -1.28906,0 -2.05078,0.960937 -0.75586,0.960938 -0.75586,2.619141 0,1.652344 0.75586,2.613281 0.76172,0.960938 2.05078,0.960938 1.28906,0 2.03906,-0.960938 0.75586,-0.960937 0.75586,-2.613281 0,-1.658203 -0.75586,-2.619141 -0.75,-0.960937 -2.03906,-0.960937 z m 1.6582,7.787109 1.5586,1.705078 h -1.42969 l -1.29492,-1.40039 q -0.19336,0.01172 -0.29883,0.01758 -0.0996,0.0059 -0.19336,0.0059 -1.8457,0 -2.95312,-1.230469 -1.10157,-1.236328 -1.10157,-3.304687 0,-2.074219 1.10157,-3.304688 1.10742,-1.236328 2.95312,-1.236328 1.83984,0 2.94141,1.236328 1.10156,1.230469 1.10156,3.304688 0,1.523437 -0.61524,2.607422 -0.60937,1.083984 -1.76953,1.599609 z"
               style="font-style:normal;font-size:12px;line-height:1.25"
               id="path112" />
          </g>
          <path
             id="path14967"
             d="m 129.72724,66.282636 7.08662,7.086614 -7.08662,7.086614"
             style="fill:none;stroke:#000000;stroke-width:1px;stroke-linecap:butt;stroke-linejoin:miter;stroke-opacity:1" />
          <g
             id="g3238"
             transform="translate(280.66282,-81.496046)">
            <g
               aria-label="E"
               id="text3240"
               style="font-style:italic;line-height:0%;font-family:'Bitstream Vera Sans';-inkscape-font-specification:'Sans Italic'">
              <path
                 d="m -146.04492,124.85741 h 5.53125 v 0.99609 h -4.34766 v 2.58984 h 4.16602 v 0.9961 h -4.16602 v 3.16992 h 4.45313 v 0.99609 h -5.63672 z"
                 style="font-style:normal;font-size:12px;line-height:1.25"
                 id="path115" />
            </g>
          </g>
        </g>
        <path
           id="path3458"
           d="m 209.311,-832.67527 h 17.71654"
           style="fill:none;stroke:#000000;stroke-width:1px;stroke-linecap:butt;stroke-linejoin:miter;stroke-opacity:1" />
        <path
           style="fill:none;stroke:#000000;stroke-width:1px;stroke-linecap:butt;stroke-linejoin:miter;stroke-opacity:1"
           d="M 287.26376,-832.67527 H 304.9803"
           id="path3460" />
        <path
           style="fill:none;stroke:#000000;stroke-width:1px;stroke-linecap:butt;stroke-linejoin:miter;stroke-opacity:1"
           d="m 209.311,-775.52565 h 17.71654"
           id="path3464" />
        <path
           style="fill:none;stroke:#000000;stroke-width:1px;stroke-linecap:butt;stroke-linejoin:miter;stroke-opacity:1"
           d="m 209.72409,-800.3288 h 17.71654"
           id="path3244" />
      </g>
      <g
         aria-label="clk"
         id="text90289-0-4"
         style="line-height:0%;font-family:Iwona;-inkscape-font-specification:Iwona;text-align:center;text-anchor:middle">
        <path
           d="m 485.31301,593.39973 v -0.71325 c -0.54343,-0.7642 -1.4265,-1.22272 -2.37751,-1.22272 -2.12277,0 -3.54928,1.59633 -3.54928,3.99082 0,2.39449 1.42651,3.99082 3.54928,3.99082 0.88308,0 1.71521,-0.44154 2.20769,-1.17178 v -0.71325 c -0.5774,0.86609 -1.17177,1.17177 -2.20769,1.17177 -1.22272,0 -2.05484,-1.30763 -2.05484,-3.27756 0,-1.96994 0.83212,-3.27757 2.05484,-3.27757 1.0529,0 1.76615,0.37361 2.37751,1.22272 z"
           style="font-size:16.9822px;line-height:1.25"
           id="path118" />
        <path
           d="m 490.28878,598.6812 v -0.50947 c -0.32266,0.27172 -0.69627,0.49248 -1.12083,0.49248 -0.62834,0 -0.74721,-0.78118 -0.74721,-1.51141 v -9.76477 h -1.32462 v 9.76477 c 0,1.13781 0.44154,2.2926 1.44349,2.2926 0.64532,0 1.25668,-0.32267 1.74917,-0.7642 z"
           style="font-size:16.9822px;line-height:1.25"
           id="path120" />
        <path
           d="m 498.55908,599.27557 -3.93987,-4.53424 3.80401,-3.10775 h -1.05289 l -4.05875,3.32851 v -7.57406 h -1.32461 v 11.88754 h 1.32461 v -4.22856 l 3.66815,4.22856 z"
           style="font-size:16.9822px;line-height:1.25"
           id="path122" />
      </g>
      <g
         aria-label="x"
         id="text90293-9-9"
         style="line-height:0%;font-family:Iwona;-inkscape-font-specification:Iwona;text-align:center;text-anchor:middle">
        <path
           d="m 492.26865,506.69293 -2.66621,-4.07573 2.5813,-3.56626 h -0.88308 l -2.10579,2.92094 -1.90201,-2.92094 h -1.4265 l 2.53034,3.88893 -2.70017,3.75306 h 0.88308 l 2.24165,-3.10774 2.02088,3.10774 z"
           style="font-size:16.9822px;line-height:1.25"
           id="path125" />
      </g>
      <path
         style="fill:#afdde9;fill-opacity:1;fill-rule:evenodd;stroke:#000000;stroke-width:1px;stroke-linecap:butt;stroke-linejoin:miter;stroke-opacity:1"
         d="m 481.88975,513.77952 v 14.17323 h 14.17324 v -14.17323 z"
         id="path5193-8" />
      <path
         id="path8453-7"
         d="m 481.88975,570.92913 v 14.17323 h 14.17324 v -14.17323 z"
         style="fill:#afdde9;fill-opacity:1;fill-rule:evenodd;stroke:#000000;stroke-width:1px;stroke-linecap:butt;stroke-linejoin:miter;stroke-opacity:1" />
      <g
         aria-label="e"
         id="text9246"
         style="line-height:0%;font-family:Iwona;-inkscape-font-specification:Iwona;text-align:center;text-anchor:middle">
        <path
           d="m 492.3111,538.4748 v -0.16982 c 0,-2.39449 -1.30763,-3.99082 -3.27757,-3.99082 -1.98692,0 -3.29454,1.59633 -3.29454,3.99082 0,2.39449 1.30762,3.99082 3.29454,3.99082 0.84911,0 1.68124,-0.27172 2.37751,-0.7642 v -0.71325 c -0.79816,0.50946 -1.44349,0.69627 -2.37751,0.69627 -1.44348,0 -1.80011,-1.37556 -1.80011,-3.03982 z m -1.49444,-0.71325 h -3.58324 c 0,-1.35858 0.57739,-2.73413 1.80011,-2.73413 1.20574,0 1.78313,1.37555 1.78313,2.73413 z"
           style="font-size:16.9822px;line-height:1.25"
           id="path128" />
      </g>
      <path
         id="path9250"
         d="m 481.88975,545.6693 v 14.17323 h 14.17324 V 545.6693 Z"
         style="fill:#afdde9;fill-opacity:1;fill-rule:evenodd;stroke:#000000;stroke-width:1px;stroke-linecap:butt;stroke-linejoin:miter;stroke-opacity:1" />
    </g>
  </g>
</svg>
