<?xml version="1.0" encoding="UTF-8" standalone="no"?>
<!-- Created with Inkscape (http://www.inkscape.org/) -->

<svg
   width="52.340672mm"
   height="31.279999mm"
   id="svg2"
   version="1.0"
   viewBox="0 0 185.45907 110.83464"
   xmlns="http://www.w3.org/2000/svg"
   xmlns:svg="http://www.w3.org/2000/svg"
   xmlns:rdf="http://www.w3.org/1999/02/22-rdf-syntax-ns#"
   xmlns:cc="http://creativecommons.org/ns#"
   xmlns:dc="http://purl.org/dc/elements/1.1/">
  <defs
     id="defs4" />
  <metadata
     id="metadata7">
    <rdf:RDF>
      <cc:Work
         rdf:about="">
        <dc:format>image/svg+xml</dc:format>
        <dc:type
           rdf:resource="http://purl.org/dc/dcmitype/StillImage" />
        <dc:title />
      </cc:Work>
    </rdf:RDF>
  </metadata>
  <g
     id="layer1"
     transform="translate(-144.7756,57.188993)">
    <path
       id="rect2385"
       style="fill:#afdde9;stroke:#000000;stroke-width:0.992126"
       d="m 159.44882,-49.606316 h 152.3622 v 95.669289 h -152.3622 z" />
    <path
       style="fill:#afdde9;fill-opacity:1;fill-rule:evenodd;stroke:#000000;stroke-width:1px;stroke-linecap:butt;stroke-linejoin:miter;stroke-opacity:1"
       d="M 152.36221,-10.629943 V 3.5432848 h 10.62992 l 7.08662,-7.0866154 -7.08662,-7.0866124 z"
       id="path2387" />
    <g
       aria-label="clk_i"
       id="text2395"
       style="font-style:italic;line-height:0%;font-family:Iwona;-inkscape-font-specification:'Sans Italic'">
      <path
         d="m 178.47004,-4.1520231 v -0.504 c -0.384,-0.54 -1.008,-0.864 -1.68,-0.864 -1.5,0 -2.508,1.128 -2.508,2.82 0,1.692 1.008,2.81999999 2.508,2.81999999 0.624,0 1.212,-0.312 1.56,-0.828 V -1.2120231 c -0.408,0.61199999 -0.828,0.82799999 -1.56,0.82799999 -0.864,0 -1.452,-0.92399999 -1.452,-2.31599999 0,-1.392 0.588,-2.316 1.452,-2.316 0.744,0 1.248,0.264 1.68,0.864 z"
         style="font-style:normal;font-size:12px;line-height:1.25"
         id="path23" />
      <path
         d="m 181.98603,-0.42002311 v -0.36 c -0.228,0.192 -0.492,0.348 -0.792,0.348 -0.444,0 -0.528,-0.552 -0.528,-1.06799999 v -6.9 h -0.936 v 6.9 c 0,0.80399999 0.312,1.61999999 1.02,1.61999999 0.456,0 0.888,-0.228 1.236,-0.54 z"
         style="font-style:normal;font-size:12px;line-height:1.25"
         id="path25" />
      <path
         d="m 187.83001,-2.3106115e-5 -2.784,-3.203999993885 2.688,-2.196 h -0.744 l -2.868,2.352 v -5.352 h -0.936 V -2.3106115e-5 h 0.936 V -2.9880231 l 2.592,2.987999993885 z"
         style="font-style:normal;font-size:12px;line-height:1.25"
         id="path27" />
      <path
         d="M 193.95,1.3799769 V 0.77997689 h -6 V 1.3799769 Z"
         style="font-style:normal;font-size:12px;line-height:1.25"
         id="path29" />
      <path
         d="m 197.10597,-0.42002311 v -0.36 c -0.228,0.192 -0.492,0.348 -0.792,0.348 -0.444,0 -0.528,-0.552 -0.528,-1.06799999 v -3.9 h -0.936 v 3.9 c 0,0.80399999 0.312,1.61999999 1.02,1.61999999 0.456,0 0.888,-0.228 1.236,-0.54 z m -1.2,-6.85199999 c 0,-0.324 -0.264,-0.588 -0.588,-0.588 -0.324,0 -0.588,0.264 -0.588,0.588 0,0.324 0.264,0.588 0.588,0.588 0.324,0 0.588,-0.264 0.588,-0.588 z"
         style="font-style:normal;font-size:12px;line-height:1.25"
         id="path31" />
    </g>
    <g
       aria-label="CounterDemo"
       id="text2411"
       style="font-style:italic;line-height:0%;font-family:Iwona;-inkscape-font-specification:'Sans Italic';text-align:center;text-anchor:middle">
      <path
         d="m 198.7914,-36.858479 v -0.864 c -0.864,-1.248 -2.288,-1.984 -3.792,-1.984 -3.248,0 -5.008,2.368 -5.008,5.76 0,3.392 1.76,5.76 5.008,5.76 1.248,0 2.48,-0.368 3.536,-1.056 v -0.736 c -1.056,0.688 -2.288,1.056 -3.536,1.056 -2.512,0 -3.44,-2.224 -3.44,-5.024 0,-2.8 0.928,-5.024 3.44,-5.024 1.536,0 2.976,0.8 3.792,2.112 z"
         style="font-style:normal;font-size:16px;line-height:1.25"
         id="path34" />
      <path
         d="m 206.15138,-31.946479 c 0,-2.448 -1.088,-3.76 -3.088,-3.76 -2.016,0 -3.104,1.312 -3.104,3.76 0,2.448 1.088,3.76 3.104,3.76 2,0 3.088,-1.312 3.088,-3.76 z m -1.408,0 c 0,2 -0.592,3.088 -1.68,3.088 -1.104,0 -1.696,-1.088 -1.696,-3.088 0,-2 0.592,-3.088 1.696,-3.088 1.088,0 1.68,1.088 1.68,3.088 z"
         style="font-style:normal;font-size:16px;line-height:1.25"
         id="path36" />
      <path
         d="m 214.02337,-28.346479 v -7.2 h -1.248 v 5.648 c -0.544,0.544 -1.216,0.976 -1.968,0.976 -0.752,0 -1.328,-0.656 -1.328,-1.424 v -5.2 h -1.248 v 5.2 c 0,1.168 0.896,2.16 2.048,2.16 0.96,0 1.808,-0.544 2.496,-1.216 v 1.056 z"
         style="font-style:normal;font-size:16px;line-height:1.25"
         id="path38" />
      <path
         d="m 222.37534,-28.346479 v -5.2 c 0,-1.168 -0.896,-2.16 -2.048,-2.16 -0.96,0 -1.808,0.544 -2.496,1.216 v -1.056 h -1.248 v 7.2 h 1.248 v -5.648 c 0.544,-0.544 1.216,-0.976 1.968,-0.976 0.752,0 1.328,0.656 1.328,1.424 v 5.2 z"
         style="font-style:normal;font-size:16px;line-height:1.25"
         id="path40" />
      <path
         d="m 228.24732,-28.906479 v -0.48 c -0.256,0.256 -0.56,0.464 -0.928,0.464 -0.576,0 -0.608,-0.752 -0.608,-1.424 v -4.528 h 1.536 v -0.672 h -1.536 v -2.4 h -0.752 c 0,1.28 -0.736,2.48 -1.904,2.48 v 0.592 h 1.408 v 4.528 c 0,1.056 0.336,2.16 1.248,2.16 0.592,0 1.104,-0.32 1.536,-0.72 z"
         style="font-style:normal;font-size:16px;line-height:1.25"
         id="path42" />
      <path
         d="m 235.79929,-31.786479 v -0.16 c 0,-2.256 -1.232,-3.76 -3.088,-3.76 -1.872,0 -3.104,1.504 -3.104,3.76 0,2.256 1.232,3.76 3.104,3.76 0.8,0 1.584,-0.256 2.24,-0.72 v -0.672 c -0.752,0.48 -1.36,0.656 -2.24,0.656 -1.36,0 -1.696,-1.296 -1.696,-2.864 z m -1.408,-0.672 h -3.376 c 0,-1.28 0.544,-2.576 1.696,-2.576 1.136,0 1.68,1.296 1.68,2.576 z"
         style="font-style:normal;font-size:16px;line-height:1.25"
         id="path44" />
      <path
         d="m 241.86327,-34.554479 v -0.992 c -0.176,-0.064 -0.368,-0.112 -0.544,-0.112 -0.896,0 -1.616,0.624 -2.192,1.312 v -1.2 h -1.248 v 7.2 h 1.248 v -5.328 c 0.48,-0.56 1.088,-1.04 1.824,-1.04 0.304,0 0.624,0.064 0.912,0.16 z"
         style="font-style:normal;font-size:16px;line-height:1.25"
         id="path46" />
      <path
         d="m 253.19126,-33.946479 c 0,-3.424 -1.872,-5.76 -5.168,-5.76 -0.992,0 -1.984,0.048 -2.96,0.16 h -1.28 v 11.2 h 1.28 c 0.976,0.112 1.968,0.16 2.96,0.16 3.296,0 5.168,-2.336 5.168,-5.76 z m -1.568,0 c 0,2.544 -1.296,5.024 -3.6,5.024 -0.976,0 -1.952,-0.048 -2.928,-0.16 v -9.728 c 0.976,-0.112 1.952,-0.16 2.928,-0.16 2.304,0 3.6,2.48 3.6,5.024 z"
         style="font-style:normal;font-size:16px;line-height:1.25"
         id="path48" />
      <path
         d="m 261.22325,-31.786479 v -0.16 c 0,-2.256 -1.232,-3.76 -3.088,-3.76 -1.872,0 -3.104,1.504 -3.104,3.76 0,2.256 1.232,3.76 3.104,3.76 0.8,0 1.584,-0.256 2.24,-0.72 v -0.672 c -0.752,0.48 -1.36,0.656 -2.24,0.656 -1.36,0 -1.696,-1.296 -1.696,-2.864 z m -1.408,-0.672 h -3.376 c 0,-1.28 0.544,-2.576 1.696,-2.576 1.136,0 1.68,1.296 1.68,2.576 z"
         style="font-style:normal;font-size:16px;line-height:1.25"
         id="path50" />
      <path
         d="m 272.03922,-28.346479 v -5.2 c 0,-1.12 -0.656,-2.16 -1.696,-2.16 -0.896,0 -1.728,0.464 -2.208,1.216 -0.256,-0.704 -0.8,-1.216 -1.536,-1.216 -0.832,0 -1.504,0.576 -2.048,1.216 v -1.056 h -1.248 v 7.2 h 1.248 v -5.664 c 0.384,-0.496 0.864,-0.96 1.488,-0.96 0.656,0 1.008,0.704 1.008,1.424 v 5.2 h 1.248 v -5.2 c 0,-0.192 -0.016,-0.368 -0.048,-0.56 0.384,-0.496 0.912,-0.864 1.536,-0.864 0.656,0 1.008,0.704 1.008,1.424 v 5.2 z"
         style="font-style:normal;font-size:16px;line-height:1.25"
         id="path52" />
      <path
         d="m 280.3112,-31.946479 c 0,-2.448 -1.088,-3.76 -3.088,-3.76 -2.016,0 -3.104,1.312 -3.104,3.76 0,2.448 1.088,3.76 3.104,3.76 2,0 3.088,-1.312 3.088,-3.76 z m -1.408,0 c 0,2 -0.592,3.088 -1.68,3.088 -1.104,0 -1.696,-1.088 -1.696,-3.088 0,-2 0.592,-3.088 1.696,-3.088 1.088,0 1.68,1.088 1.68,3.088 z"
         style="font-style:normal;font-size:16px;line-height:1.25"
         id="path54" />
    </g>
    <path
       id="path3529"
       d="m 152.36221,17.716513 v 14.17323 h 10.62992 l 7.08662,-7.086615 -7.08662,-7.086615 z"
       style="fill:#afdde9;fill-opacity:1;fill-rule:evenodd;stroke:#000000;stroke-width:1px;stroke-linecap:butt;stroke-linejoin:miter;stroke-opacity:1" />
    <g
       aria-label="reset_i"
       id="text3531"
       style="font-style:italic;line-height:0%;font-family:Iwona;-inkscape-font-specification:'Sans Italic'">
      <path
         d="m 177.57004,22.967129 v -0.744 c -0.132,-0.048 -0.276,-0.084 -0.408,-0.084 -0.672,0 -1.212,0.468 -1.644,0.984 v -0.9 h -0.936 v 5.4 h 0.936 v -3.996 c 0.36,-0.42 0.816,-0.78 1.368,-0.78 0.228,0 0.468,0.048 0.684,0.12 z"
         style="font-style:normal;font-size:12px;line-height:1.25"
         id="path57" />
      <path
         d="m 183.11403,25.043129 v -0.12 c 0,-1.692 -0.924,-2.82 -2.316,-2.82 -1.404,0 -2.328,1.128 -2.328,2.82 0,1.692 0.924,2.82 2.328,2.82 0.6,0 1.188,-0.192 1.68,-0.54 v -0.504 c -0.564,0.36 -1.02,0.492 -1.68,0.492 -1.02,0 -1.272,-0.972 -1.272,-2.148 z m -1.056,-0.504 h -2.532 c 0,-0.96 0.408,-1.932 1.272,-1.932 0.852,0 1.26,0.972 1.26,1.932 z"
         style="font-style:normal;font-size:12px;line-height:1.25"
         id="path59" />
      <path
         d="m 188.32201,26.087129 c 0,-0.948 -1.008,-1.44 -1.992,-1.68 -0.576,-0.144 -1.2,-0.384 -1.2,-0.948 0,-0.516 0.528,-0.852 1.104,-0.852 0.636,0 1.272,0.192 1.8,0.54 v -0.504 c -0.528,-0.348 -1.164,-0.54 -1.8,-0.54 -1.044,0 -2.004,0.636 -2.004,1.608 0,0.876 0.972,1.284 1.896,1.512 0.636,0.156 1.296,0.492 1.296,1.104 0,0.564 -0.576,0.912 -1.188,0.912 -0.744,0 -1.464,-0.18 -2.1,-0.54 v 0.504 c 0.636,0.36 1.356,0.54 2.1,0.54 1.08,0 2.088,-0.648 2.088,-1.656 z"
         style="font-style:normal;font-size:12px;line-height:1.25"
         id="path61" />
      <path
         d="m 194.166,25.043129 v -0.12 c 0,-1.692 -0.924,-2.82 -2.316,-2.82 -1.404,0 -2.328,1.128 -2.328,2.82 0,1.692 0.924,2.82 2.328,2.82 0.6,0 1.188,-0.192 1.68,-0.54 v -0.504 c -0.564,0.36 -1.02,0.492 -1.68,0.492 -1.02,0 -1.272,-0.972 -1.272,-2.148 z m -1.056,-0.504 h -2.532 c 0,-0.96 0.408,-1.932 1.272,-1.932 0.852,0 1.26,0.972 1.26,1.932 z"
         style="font-style:normal;font-size:12px;line-height:1.25"
         id="path63" />
      <path
         d="m 198.26998,27.203129 v -0.36 c -0.192,0.192 -0.42,0.348 -0.696,0.348 -0.432,0 -0.456,-0.564 -0.456,-1.068 v -3.396 h 1.152 v -0.504 h -1.152 v -1.8 h -0.564 c 0,0.96 -0.552,1.86 -1.428,1.86 v 0.444 h 1.056 v 3.396 c 0,0.792 0.252,1.62 0.936,1.62 0.444,0 0.828,-0.24 1.152,-0.54 z"
         style="font-style:normal;font-size:12px;line-height:1.25"
         id="path65" />
      <path
         d="m 204.62997,29.003129 v -0.6 h -6 v 0.6 z"
         style="font-style:normal;font-size:12px;line-height:1.25"
         id="path67" />
      <path
         d="m 207.78594,27.203129 v -0.36 c -0.228,0.192 -0.492,0.348 -0.792,0.348 -0.444,0 -0.528,-0.552 -0.528,-1.068 v -3.9 h -0.936 v 3.9 c 0,0.804 0.312,1.62 1.02,1.62 0.456,0 0.888,-0.228 1.236,-0.54 z m -1.2,-6.852 c 0,-0.324 -0.264,-0.588 -0.588,-0.588 -0.324,0 -0.588,0.264 -0.588,0.588 0,0.324 0.264,0.588 0.588,0.588 0.324,0 0.588,-0.264 0.588,-0.588 z"
         style="font-style:normal;font-size:12px;line-height:1.25"
         id="path69" />
    </g>
    <path
       style="fill:#afdde9;fill-opacity:1;fill-rule:evenodd;stroke:#000000;stroke-width:1px;stroke-linecap:butt;stroke-linejoin:miter;stroke-opacity:1"
       d="M 304.72441,3.5432845 V 17.716514 h 10.62992 l 7.08662,-7.08662 -7.08662,-7.0866095 z"
       id="path3535" />
    <g
       aria-label="segments_o"
       id="text3537"
       style="font-style:italic;line-height:0%;font-family:Iwona;-inkscape-font-specification:'Sans Italic';text-align:end;text-anchor:end">
      <path
         d="m 246.97724,12.637203 c 0,-0.948 -1.008,-1.44 -1.992,-1.68 -0.576,-0.144 -1.2,-0.384 -1.2,-0.948 0,-0.5159995 0.528,-0.8519995 1.104,-0.8519995 0.636,0 1.272,0.192 1.8,0.54 v -0.504 c -0.528,-0.348 -1.164,-0.54 -1.8,-0.54 -1.044,0 -2.004,0.636 -2.004,1.6079995 0,0.876 0.972,1.284 1.896,1.512 0.636,0.156 1.296,0.492 1.296,1.104 0,0.564 -0.576,0.912 -1.188,0.912 -0.744,0 -1.464,-0.18 -2.1,-0.54 v 0.504 c 0.636,0.36 1.356,0.54 2.1,0.54 1.08,0 2.088,-0.648 2.088,-1.656 z"
         style="font-style:normal;font-size:12px;line-height:1.25"
         id="path72" />
      <path
         d="m 252.82123,11.593203 v -0.12 c 0,-1.6919995 -0.924,-2.8199995 -2.316,-2.8199995 -1.404,0 -2.328,1.128 -2.328,2.8199995 0,1.692 0.924,2.82 2.328,2.82 0.6,0 1.188,-0.192 1.68,-0.54 v -0.504 c -0.564,0.36 -1.02,0.492 -1.68,0.492 -1.02,0 -1.272,-0.972 -1.272,-2.148 z m -1.056,-0.504 h -2.532 c 0,-0.96 0.408,-1.9319995 1.272,-1.9319995 0.852,0 1.26,0.9719995 1.26,1.9319995 z"
         style="font-style:normal;font-size:12px;line-height:1.25"
         id="path74" />
      <path
         d="M 258.72521,14.893203 V 8.7732035 h -0.936 v 0.204 c -0.468,-0.204 -0.972,-0.324 -1.476,-0.324 -1.5,0 -2.232,1.2 -2.232,2.8199995 0,1.596 0.6,2.82 2.052,2.82 0.612,0 1.176,-0.276 1.656,-0.66 v 1.26 c 0,0.828 -0.456,1.608 -1.2,1.608 -0.612,0 -1.224,-0.12 -1.8,-0.324 v 0.372 c 0.672,0.312 1.416,0.504 2.16,0.504 1.056,0 1.776,-1.032 1.776,-2.16 z m -0.936,-1.764 c -0.36,0.36 -0.804,0.66 -1.32,0.66 -1.092,0 -1.332,-1.056 -1.332,-2.316 0,-1.128 0.348,-2.3159995 1.332,-2.3159995 0.456,0 0.912,0.12 1.32,0.324 z"
         style="font-style:normal;font-size:12px;line-height:1.25"
         id="path76" />
      <path
         d="m 267.1972,14.173203 v -3.9 c 0,-0.8399995 -0.492,-1.6199995 -1.272,-1.6199995 -0.672,0 -1.296,0.348 -1.656,0.912 -0.192,-0.528 -0.6,-0.912 -1.152,-0.912 -0.624,0 -1.128,0.432 -1.536,0.912 v -0.792 h -0.936 v 5.3999995 h 0.936 V 9.9252035 c 0.288,-0.372 0.648,-0.72 1.116,-0.72 0.492,0 0.756,0.528 0.756,1.0679995 v 3.9 h 0.936 v -3.9 c 0,-0.144 -0.012,-0.2759995 -0.036,-0.4199995 0.288,-0.372 0.684,-0.648 1.152,-0.648 0.492,0 0.756,0.528 0.756,1.0679995 v 3.9 z"
         style="font-style:normal;font-size:12px;line-height:1.25"
         id="path78" />
      <path
         d="m 273.40118,11.593203 v -0.12 c 0,-1.6919995 -0.924,-2.8199995 -2.316,-2.8199995 -1.404,0 -2.328,1.128 -2.328,2.8199995 0,1.692 0.924,2.82 2.328,2.82 0.6,0 1.188,-0.192 1.68,-0.54 v -0.504 c -0.564,0.36 -1.02,0.492 -1.68,0.492 -1.02,0 -1.272,-0.972 -1.272,-2.148 z m -1.056,-0.504 h -2.532 c 0,-0.96 0.408,-1.9319995 1.272,-1.9319995 0.852,0 1.26,0.9719995 1.26,1.9319995 z"
         style="font-style:normal;font-size:12px;line-height:1.25"
         id="path80" />
      <path
         d="m 279.30517,14.173203 v -3.9 c 0,-0.8759995 -0.672,-1.6199995 -1.536,-1.6199995 -0.72,0 -1.356,0.408 -1.872,0.912 v -0.792 h -0.936 v 5.3999995 h 0.936 V 9.9372035 c 0.408,-0.408 0.912,-0.732 1.476,-0.732 0.564,0 0.996,0.492 0.996,1.0679995 v 3.9 z"
         style="font-style:normal;font-size:12px;line-height:1.25"
         id="path82" />
      <path
         d="m 283.70915,13.753203 v -0.36 c -0.192,0.192 -0.42,0.348 -0.696,0.348 -0.432,0 -0.456,-0.564 -0.456,-1.068 V 9.2772035 h 1.152 v -0.504 h -1.152 v -1.8 h -0.564 c 0,0.96 -0.552,1.86 -1.428,1.86 v 0.444 h 1.056 v 3.3959995 c 0,0.792 0.252,1.62 0.936,1.62 0.444,0 0.828,-0.24 1.152,-0.54 z"
         style="font-style:normal;font-size:12px;line-height:1.25"
         id="path84" />
      <path
         d="m 288.67713,12.637203 c 0,-0.948 -1.008,-1.44 -1.992,-1.68 -0.576,-0.144 -1.2,-0.384 -1.2,-0.948 0,-0.5159995 0.528,-0.8519995 1.104,-0.8519995 0.636,0 1.272,0.192 1.8,0.54 v -0.504 c -0.528,-0.348 -1.164,-0.54 -1.8,-0.54 -1.044,0 -2.004,0.636 -2.004,1.6079995 0,0.876 0.972,1.284 1.896,1.512 0.636,0.156 1.296,0.492 1.296,1.104 0,0.564 -0.576,0.912 -1.188,0.912 -0.744,0 -1.464,-0.18 -2.1,-0.54 v 0.504 c 0.636,0.36 1.356,0.54 2.1,0.54 1.08,0 2.088,-0.648 2.088,-1.656 z"
         style="font-style:normal;font-size:12px;line-height:1.25"
         id="path86" />
      <path
         d="m 295.21712,15.553203 v -0.6 h -6 v 0.6 z"
         style="font-style:normal;font-size:12px;line-height:1.25"
         id="path88" />
      <path
         d="m 300.52109,11.473203 c 0,-1.8359995 -0.816,-2.8199995 -2.316,-2.8199995 -1.512,0 -2.328,0.984 -2.328,2.8199995 0,1.836 0.816,2.82 2.328,2.82 1.5,0 2.316,-0.984 2.316,-2.82 z m -1.056,0 c 0,1.5 -0.444,2.316 -1.26,2.316 -0.828,0 -1.272,-0.816 -1.272,-2.316 0,-1.4999995 0.444,-2.3159995 1.272,-2.3159995 0.816,0 1.26,0.816 1.26,2.3159995 z"
         style="font-style:normal;font-size:12px;line-height:1.25"
         id="path90" />
    </g>
  </g>
</svg>
