<?xml version="1.0" encoding="UTF-8" standalone="no"?>
<!-- Created with Inkscape (http://www.inkscape.org/) -->

<svg
   width="197.43939mm"
   height="172.53696mm"
   id="svg2"
   version="1.0"
   xmlns="http://www.w3.org/2000/svg"
   xmlns:svg="http://www.w3.org/2000/svg"
   xmlns:rdf="http://www.w3.org/1999/02/22-rdf-syntax-ns#"
   xmlns:cc="http://creativecommons.org/ns#"
   xmlns:dc="http://purl.org/dc/elements/1.1/">
  <defs
     id="defs4">
    <marker
       orient="auto"
       refY="0"
       refX="0"
       id="Arrow1Lstart"
       style="overflow:visible">
      <path
         id="path5644"
         d="M 10.666667,0 14.933333,-4.2666667 0,0 14.933333,4.2666667 Z"
         style="fill-rule:evenodd;stroke:#000000;stroke-width:0.85333335pt;marker-start:none" />
    </marker>
    <marker
       orient="auto"
       refY="0"
       refX="0"
       id="Arrow1Lend"
       style="overflow:visible">
      <path
         id="path5647"
         d="M -10.666667,0 -14.933333,4.2666667 0,0 -14.933333,-4.2666667 Z"
         style="fill-rule:evenodd;stroke:#000000;stroke-width:0.85333335pt;marker-start:none" />
    </marker>
    <marker
       orient="auto"
       refY="0"
       refX="0"
       id="DotL-7"
       style="overflow:visible">
      <path
         id="path3955"
         d="m -2.5,-1 c 0,2.76 -2.24,5 -5,5 -2.76,0 -5,-2.24 -5,-5 0,-2.76 2.24,-5 5,-5 2.76,0 5,2.24 5,5 z"
         style="fill-rule:evenodd;stroke:#000000;stroke-width:1.00000003pt"
         transform="matrix(0.8,0,0,0.8,5.92,0.8)" />
    </marker>
    <marker
       orient="auto"
       refY="0"
       refX="0"
       id="Arrow1Lend-5"
       style="overflow:visible">
      <path
         id="path5647-3"
         d="M 0,0 5,-5 -12.5,0 5,5 Z"
         style="fill-rule:evenodd;stroke:#000000;stroke-width:1.00000003pt;marker-start:none"
         transform="matrix(-0.8,0,0,-0.8,-10,0)" />
    </marker>
  </defs>
  <metadata
     id="metadata7">
    <rdf:RDF>
      <cc:Work
         rdf:about="">
        <dc:format>image/svg+xml</dc:format>
        <dc:type
           rdf:resource="http://purl.org/dc/dcmitype/StillImage" />
        <dc:title />
      </cc:Work>
    </rdf:RDF>
  </metadata>
  <g
     id="layer1"
     transform="translate(-1070.8962,-14.845547)">
    <path
       id="path3101"
       d="m 1521.2268,110.79623 c 49.1339,15.11811 120.945,52.91339 173.8584,147.40158"
       style="fill:none;stroke:#000000;stroke-width:1.06667px;stroke-linecap:butt;stroke-linejoin:miter;stroke-opacity:1;marker-start:none;marker-end:url(#Arrow1Lend)" />
    <g
       aria-label="src_i"
       id="text3103"
       style="font-style:italic;font-size:12.8px;line-height:0%;font-family:Iwona;-inkscape-font-specification:'Sans Italic';stroke-width:1.06667">
      <path
         d="m 1534.9299,108.74828 c 0,-1.264 -1.344,-1.92 -2.656,-2.24 -0.768,-0.192 -1.6,-0.512 -1.6,-1.264 0,-0.688 0.704,-1.136 1.472,-1.136 0.848,0 1.696,0.256 2.4,0.72 v -0.672 c -0.704,-0.464 -1.552,-0.72 -2.4,-0.72 -1.392,0 -2.672,0.848 -2.672,2.144 0,1.168 1.296,1.712 2.528,2.016 0.848,0.208 1.728,0.656 1.728,1.472 0,0.752 -0.768,1.216 -1.584,1.216 -0.992,0 -1.952,-0.24 -2.8,-0.72 v 0.672 c 0.848,0.48 1.808,0.72 2.8,0.72 1.44,0 2.784,-0.864 2.784,-2.208 z"
         style="font-style:normal;font-size:16px;line-height:1.25"
         id="path80" />
      <path
         d="m 1540.9139,104.58828 v -0.992 c -0.176,-0.064 -0.368,-0.112 -0.544,-0.112 -0.896,0 -1.616,0.624 -2.192,1.312 v -1.2 h -1.248 v 7.2 h 1.248 v -5.328 c 0.48,-0.56 1.088,-1.04 1.824,-1.04 0.304,0 0.624,0.064 0.912,0.16 z"
         style="font-style:normal;font-size:16px;line-height:1.25"
         id="path82" />
      <path
         d="m 1547.6979,105.26028 v -0.672 c -0.512,-0.72 -1.344,-1.152 -2.24,-1.152 -2,0 -3.344,1.504 -3.344,3.76 0,2.256 1.344,3.76 3.344,3.76 0.832,0 1.616,-0.416 2.08,-1.104 v -0.672 c -0.544,0.816 -1.104,1.104 -2.08,1.104 -1.152,0 -1.936,-1.232 -1.936,-3.088 0,-1.856 0.784,-3.088 1.936,-3.088 0.992,0 1.664,0.352 2.24,1.152 z"
         style="font-style:normal;font-size:16px;line-height:1.25"
         id="path84" />
      <path
         d="m 1556.0978,112.63628 v -0.8 h -8 v 0.8 z"
         style="font-style:normal;font-size:16px;line-height:1.25"
         id="path86" />
      <path
         d="m 1560.3058,110.23628 v -0.48 c -0.304,0.256 -0.656,0.464 -1.056,0.464 -0.592,0 -0.704,-0.736 -0.704,-1.424 v -5.2 h -1.248 v 5.2 c 0,1.072 0.416,2.16 1.36,2.16 0.608,0 1.184,-0.304 1.648,-0.72 z m -1.6,-9.136 c 0,-0.432 -0.352,-0.784 -0.784,-0.784 -0.432,0 -0.784,0.352 -0.784,0.784 0,0.432 0.352,0.784 0.784,0.784 0.432,0 0.784,-0.352 0.784,-0.784 z"
         style="font-style:normal;font-size:16px;line-height:1.25"
         id="path88" />
    </g>
    <g
       id="g3491"
       transform="translate(919.23438,-143.09799)">
      <path
         id="ellipse3493"
         style="fill:#ffeeaa;stroke:#000000;stroke-width:1.13386"
         d="m 601.99243,253.89427 a 90.708649,37.79528 0 0 1 -90.70865,37.79528 90.708649,37.79528 0 0 1 -90.70865,-37.79528 90.708649,37.79528 0 0 1 90.70865,-37.79528 90.708649,37.79528 0 0 1 90.70865,37.79528 z" />
      <path
         style="fill:none;stroke:#000000;stroke-width:1.06667px;stroke-linecap:butt;stroke-linejoin:miter;stroke-opacity:1"
         d="m 420.57512,253.89426 h 181.4173"
         id="path3495" />
      <g
         aria-label="OFF_STABLE"
         id="text3497"
         style="font-style:italic;font-size:12.8px;line-height:0%;font-family:Iwona;-inkscape-font-specification:'Sans Italic';text-align:center;text-anchor:middle;stroke-width:1.06667">
        <path
           d="m 470.94808,236.58233 c 0,-3.61814 -1.87733,-6.14401 -5.32481,-6.14401 -3.46454,0 -5.34188,2.52587 -5.34188,6.14401 0,3.61814 1.87734,6.14402 5.34188,6.14402 3.44748,0 5.32481,-2.52588 5.32481,-6.14402 z m -1.67253,0 c 0,2.98668 -0.98987,5.35895 -3.65228,5.35895 -2.67947,0 -3.66934,-2.37227 -3.66934,-5.35895 0,-2.98667 0.98987,-5.35894 3.66934,-5.35894 2.66241,0 3.65228,2.37227 3.65228,5.35894 z"
           style="font-style:normal;font-size:17.0667px;line-height:1.25"
           id="path92" />
        <path
           d="m 481.80248,231.39406 v -0.78507 h -8.12374 v 11.94669 h 1.39947 v -5.58081 h 5.42721 v -0.78507 h -5.42721 v -4.79574 z"
           style="font-style:normal;font-size:17.0667px;line-height:1.25"
           id="path94" />
        <path
           d="m 492.48623,231.39406 v -0.78507 h -8.12375 v 11.94669 h 1.39947 v -5.58081 h 5.42721 v -0.78507 h -5.42721 v -4.79574 z"
           style="font-style:normal;font-size:17.0667px;line-height:1.25"
           id="path96" />
        <path
           d="m 501.8729,244.51835 v -0.85334 h -8.53335 v 0.85334 z"
           style="font-style:normal;font-size:17.0667px;line-height:1.25"
           id="path98" />
        <path
           d="m 511.89102,239.09114 c 0,-2.0992 -2.13333,-3.34507 -4.33494,-3.80587 -1.46773,-0.30721 -3.1232,-0.68267 -3.1232,-2.04801 0,-1.34827 1.45067,-2.11627 2.95254,-2.11627 1.3824,0 2.73067,0.4096 3.82294,1.26294 v -0.68267 c -1.09227,-0.85334 -2.44054,-1.36534 -3.82294,-1.36534 -2.21868,0 -4.30081,1.24587 -4.30081,3.25974 0,1.92854 2.08213,2.90134 4.11307,3.32801 1.62134,0.34133 3.34507,1.00693 3.34507,2.52587 0,1.55307 -1.51893,2.59414 -3.15733,2.59414 -1.58721,0 -3.15734,-0.4096 -4.48855,-1.26294 v 0.68267 c 1.34827,0.85334 2.88428,1.36534 4.48855,1.36534 2.3552,0 4.5056,-1.51894 4.5056,-3.73761 z"
           style="font-style:normal;font-size:17.0667px;line-height:1.25"
           id="path100" />
        <path
           d="m 522.33581,231.39406 v -0.78507 h -9.38669 v 0.78507 h 3.99361 v 11.16162 h 1.39947 v -11.16162 z"
           style="font-style:normal;font-size:17.0667px;line-height:1.25"
           id="path102" />
        <path
           d="m 532.16618,242.55568 -4.33494,-11.94669 h -1.4848 l -4.42028,11.94669 h 0.83627 l 1.55307,-4.18134 h 4.84694 l 1.51894,4.18134 z m -3.29387,-4.96641 h -4.26667 l 2.1504,-5.83681 z"
           style="font-style:normal;font-size:17.0667px;line-height:1.25"
           id="path104" />
        <path
           d="m 543.00352,239.31301 c 0,-1.87734 -1.2288,-2.86721 -3.02081,-3.24268 1.31414,-0.39253 2.18454,-1.24587 2.18454,-2.69654 0,-2.08213 -1.792,-2.93547 -4.09601,-2.93547 -0.88747,0 -1.77494,0.0512 -2.6624,0.17067 h -1.36534 v 11.94669 h 1.36534 l 2.6624,0.17067 c 2.76481,0 4.93228,-0.93867 4.93228,-3.41334 z m -2.23574,-5.93922 c 0,1.72374 -1.92854,2.61121 -3.85707,2.61121 h -1.46774 v -4.59094 c 0.8704,-0.11947 1.75787,-0.17067 2.62827,-0.17067 1.39947,0 2.69654,0.85334 2.69654,2.1504 z m 0.5632,5.93922 c 0,1.57013 -1.55307,2.62827 -3.25974,2.62827 -0.8704,0 -1.75787,-0.0512 -2.62827,-0.17067 v -5.18828 h 2.2016 c 1.87734,0 3.68641,1.00694 3.68641,2.73068 z"
           style="font-style:normal;font-size:17.0667px;line-height:1.25"
           id="path106" />
        <path
           d="m 552.56086,242.55568 v -0.78507 h -5.42721 v -11.16162 h -1.39947 v 11.94669 z"
           style="font-style:normal;font-size:17.0667px;line-height:1.25"
           id="path108" />
        <path
           d="m 563.14219,242.55568 v -0.78507 h -7.13388 v -4.79574 h 5.42721 v -0.78507 h -5.42721 v -4.79574 h 6.72428 v -0.78507 h -8.12375 v 11.94669 z"
           style="font-style:normal;font-size:17.0667px;line-height:1.25"
           id="path110" />
      </g>
    </g>
    <path
       style="fill:none;stroke:#000000;stroke-width:1.05449;stroke-linecap:butt;stroke-linejoin:miter;stroke-miterlimit:4;stroke-dasharray:none;stroke-opacity:1;marker-start:url(#Arrow1Lstart)"
       d="m 1340.762,110.79627 c -48.0658,15.11811 -119.2681,52.91339 -171.0312,147.40158"
       id="path3575" />
    <g
       aria-label="src_i and on_timer_reg = DURATION"
       id="text4415"
       style="font-style:italic;font-size:12.8px;line-height:0%;font-family:Iwona;-inkscape-font-specification:'Sans Italic';stroke-width:1.06667">
      <path
         d="m 1556.2633,537.94742 c 0,-1.264 -1.344,-1.92 -2.656,-2.24 -0.768,-0.192 -1.6,-0.512 -1.6,-1.264 0,-0.688 0.704,-1.136 1.472,-1.136 0.848,0 1.696,0.256 2.4,0.72 v -0.672 c -0.704,-0.464 -1.552,-0.72 -2.4,-0.72 -1.392,0 -2.672,0.848 -2.672,2.144 0,1.168 1.296,1.712 2.528,2.016 0.848,0.208 1.728,0.656 1.728,1.472 0,0.752 -0.768,1.216 -1.584,1.216 -0.992,0 -1.952,-0.24 -2.8,-0.72 v 0.672 c 0.848,0.48 1.808,0.72 2.8,0.72 1.44,0 2.784,-0.864 2.784,-2.208 z"
         style="font-style:normal;font-size:16px;line-height:1.25"
         id="path113" />
      <path
         d="m 1562.2472,533.78742 v -0.992 c -0.176,-0.064 -0.368,-0.112 -0.544,-0.112 -0.896,0 -1.616,0.624 -2.192,1.312 v -1.2 h -1.248 v 7.2 h 1.248 v -5.328 c 0.48,-0.56 1.088,-1.04 1.824,-1.04 0.304,0 0.624,0.064 0.912,0.16 z"
         style="font-style:normal;font-size:16px;line-height:1.25"
         id="path115" />
      <path
         d="m 1569.0312,534.45942 v -0.672 c -0.512,-0.72 -1.344,-1.152 -2.24,-1.152 -2,0 -3.344,1.504 -3.344,3.76 0,2.256 1.344,3.76 3.344,3.76 0.832,0 1.616,-0.416 2.08,-1.104 v -0.672 c -0.544,0.816 -1.104,1.104 -2.08,1.104 -1.152,0 -1.936,-1.232 -1.936,-3.088 0,-1.856 0.784,-3.088 1.936,-3.088 0.992,0 1.664,0.352 2.24,1.152 z"
         style="font-style:normal;font-size:16px;line-height:1.25"
         id="path117" />
      <path
         d="m 1577.4312,541.83542 v -0.8 h -8 v 0.8 z"
         style="font-style:normal;font-size:16px;line-height:1.25"
         id="path119" />
      <path
         d="m 1581.6392,539.43542 v -0.48 c -0.304,0.256 -0.656,0.464 -1.056,0.464 -0.592,0 -0.704,-0.736 -0.704,-1.424 v -5.2 h -1.248 v 5.2 c 0,1.072 0.416,2.16 1.36,2.16 0.608,0 1.184,-0.304 1.648,-0.72 z m -1.6,-9.136 c 0,-0.432 -0.352,-0.784 -0.784,-0.784 -0.432,0 -0.784,0.352 -0.784,0.784 0,0.432 0.352,0.784 0.784,0.784 0.432,0 0.784,-0.352 0.784,-0.784 z"
         style="font-style:normal;font-size:16px;line-height:1.25"
         id="path121" />
      <path
         d="m 1594.6631,539.99542 v -4.48 c 0,-1.536 -1.088,-2.88 -2.56,-2.88 -1.104,0 -2.176,0.352 -3.136,0.896 v 0.704 c 0.736,-0.336 1.552,-0.544 2.368,-0.544 0.912,0 1.568,0.864 1.568,1.824 v 0.288 c -0.624,-0.272 -1.296,-0.432 -1.968,-0.432 -1.728,0 -2.992,0.784 -2.992,2.4 0,1.536 1.12,2.384 2.736,2.384 0.816,0 1.584,-0.368 2.224,-0.88 v 0.72 z m -1.76,-3.424 v 1.936 c -0.432,0.384 -0.944,0.688 -1.504,0.688 -0.832,0 -1.536,-0.624 -1.536,-1.424 0,-0.816 0.704,-1.44 1.536,-1.44 0.512,0 1.008,0.08 1.504,0.24 z"
         style="font-weight:bold"
         id="path124" />
      <path
         d="m 1603.2551,539.99542 v -5.2 c 0,-1.168 -0.896,-2.16 -2.048,-2.16 -0.976,0 -1.808,0.624 -2.48,1.36 v -1.2 h -1.76 v 7.2 h 1.76 v -5.296 c 0.432,-0.528 0.976,-1.008 1.648,-1.008 0.624,0 1.12,0.496 1.12,1.104 v 5.2 z"
         style="font-weight:bold"
         id="path126" />
      <path
         d="m 1611.8631,539.99542 v -11.2 h -1.76 v 4.272 c -0.624,-0.272 -1.296,-0.432 -1.968,-0.432 -2.016,0 -2.992,1.6 -2.992,3.76 0,2.128 0.816,3.76 2.736,3.76 0.816,0 1.584,-0.368 2.224,-0.88 v 0.72 z m -1.76,-6.16 v 4.672 c -0.432,0.384 -0.944,0.688 -1.504,0.688 -1.184,0 -1.536,-1.44 -1.536,-2.8 0,-1.36 0.352,-2.8 1.536,-2.8 0.512,0 1.008,0.08 1.504,0.24 z"
         style="font-weight:bold"
         id="path128" />
      <path
         d="m 1625.4151,536.39542 c 0,-2.448 -1.088,-3.76 -3.088,-3.76 -2.016,0 -3.104,1.312 -3.104,3.76 0,2.448 1.088,3.76 3.104,3.76 2,0 3.088,-1.312 3.088,-3.76 z m -1.408,0 c 0,2 -0.592,3.088 -1.68,3.088 -1.104,0 -1.696,-1.088 -1.696,-3.088 0,-2 0.592,-3.088 1.696,-3.088 1.088,0 1.68,1.088 1.68,3.088 z"
         style="font-style:normal;font-size:16px;line-height:1.25"
         id="path130" />
      <path
         d="m 1633.3671,539.99542 v -5.2 c 0,-1.168 -0.896,-2.16 -2.048,-2.16 -0.96,0 -1.808,0.544 -2.496,1.216 v -1.056 h -1.248 v 7.2 h 1.248 v -5.648 c 0.544,-0.544 1.216,-0.976 1.968,-0.976 0.752,0 1.328,0.656 1.328,1.424 v 5.2 z"
         style="font-style:normal;font-size:16px;line-height:1.25"
         id="path132" />
      <path
         d="m 1642.567,541.83542 v -0.8 h -8 v 0.8 z"
         style="font-style:normal;font-size:16px;line-height:1.25"
         id="path134" />
      <path
         d="m 1647.239,539.43542 v -0.48 c -0.256,0.256 -0.56,0.464 -0.928,0.464 -0.576,0 -0.608,-0.752 -0.608,-1.424 v -4.528 h 1.536 v -0.672 h -1.536 v -2.4 h -0.752 c 0,1.28 -0.736,2.48 -1.904,2.48 v 0.592 h 1.408 v 4.528 c 0,1.056 0.336,2.16 1.248,2.16 0.592,0 1.104,-0.32 1.536,-0.72 z"
         style="font-style:normal;font-size:16px;line-height:1.25"
         id="path136" />
      <path
         d="m 1651.927,539.43542 v -0.48 c -0.304,0.256 -0.656,0.464 -1.056,0.464 -0.592,0 -0.704,-0.736 -0.704,-1.424 v -5.2 h -1.248 v 5.2 c 0,1.072 0.416,2.16 1.36,2.16 0.608,0 1.184,-0.304 1.648,-0.72 z m -1.6,-9.136 c 0,-0.432 -0.352,-0.784 -0.784,-0.784 -0.432,0 -0.784,0.352 -0.784,0.784 0,0.432 0.352,0.784 0.784,0.784 0.432,0 0.784,-0.352 0.784,-0.784 z"
         style="font-style:normal;font-size:16px;line-height:1.25"
         id="path138" />
      <path
         d="m 1662.263,539.99542 v -5.2 c 0,-1.12 -0.656,-2.16 -1.696,-2.16 -0.896,0 -1.728,0.464 -2.208,1.216 -0.256,-0.704 -0.8,-1.216 -1.536,-1.216 -0.832,0 -1.504,0.576 -2.048,1.216 v -1.056 h -1.248 v 7.2 h 1.248 v -5.664 c 0.384,-0.496 0.864,-0.96 1.488,-0.96 0.656,0 1.008,0.704 1.008,1.424 v 5.2 h 1.248 v -5.2 c 0,-0.192 -0.016,-0.368 -0.048,-0.56 0.384,-0.496 0.912,-0.864 1.536,-0.864 0.656,0 1.008,0.704 1.008,1.424 v 5.2 z"
         style="font-style:normal;font-size:16px;line-height:1.25"
         id="path140" />
      <path
         d="m 1670.535,536.55542 v -0.16 c 0,-2.256 -1.232,-3.76 -3.088,-3.76 -1.872,0 -3.104,1.504 -3.104,3.76 0,2.256 1.232,3.76 3.104,3.76 0.8,0 1.584,-0.256 2.24,-0.72 v -0.672 c -0.752,0.48 -1.36,0.656 -2.24,0.656 -1.36,0 -1.696,-1.296 -1.696,-2.864 z m -1.408,-0.672 h -3.376 c 0,-1.28 0.544,-2.576 1.696,-2.576 1.136,0 1.68,1.296 1.68,2.576 z"
         style="font-style:normal;font-size:16px;line-height:1.25"
         id="path142" />
      <path
         d="m 1676.5989,533.78742 v -0.992 c -0.176,-0.064 -0.368,-0.112 -0.544,-0.112 -0.896,0 -1.616,0.624 -2.192,1.312 v -1.2 h -1.248 v 7.2 h 1.248 v -5.328 c 0.48,-0.56 1.088,-1.04 1.824,-1.04 0.304,0 0.624,0.064 0.912,0.16 z"
         style="font-style:normal;font-size:16px;line-height:1.25"
         id="path144" />
      <path
         d="m 1684.9189,541.83542 v -0.8 h -8 v 0.8 z"
         style="font-style:normal;font-size:16px;line-height:1.25"
         id="path146" />
      <path
         d="m 1690.1829,533.78742 v -0.992 c -0.176,-0.064 -0.368,-0.112 -0.544,-0.112 -0.896,0 -1.616,0.624 -2.192,1.312 v -1.2 h -1.248 v 7.2 h 1.248 v -5.328 c 0.48,-0.56 1.088,-1.04 1.824,-1.04 0.304,0 0.624,0.064 0.912,0.16 z"
         style="font-style:normal;font-size:16px;line-height:1.25"
         id="path148" />
      <path
         d="m 1697.5749,536.55542 v -0.16 c 0,-2.256 -1.232,-3.76 -3.088,-3.76 -1.872,0 -3.104,1.504 -3.104,3.76 0,2.256 1.232,3.76 3.104,3.76 0.8,0 1.584,-0.256 2.24,-0.72 v -0.672 c -0.752,0.48 -1.36,0.656 -2.24,0.656 -1.36,0 -1.696,-1.296 -1.696,-2.864 z m -1.408,-0.672 h -3.376 c 0,-1.28 0.544,-2.576 1.696,-2.576 1.136,0 1.68,1.296 1.68,2.576 z"
         style="font-style:normal;font-size:16px;line-height:1.25"
         id="path150" />
      <path
         d="m 1705.4468,540.95542 v -8.16 h -1.248 v 0.272 c -0.624,-0.272 -1.296,-0.432 -1.968,-0.432 -2,0 -2.976,1.6 -2.976,3.76 0,2.128 0.8,3.76 2.736,3.76 0.816,0 1.568,-0.368 2.208,-0.88 v 1.68 c 0,1.104 -0.608,2.144 -1.6,2.144 -0.816,0 -1.632,-0.16 -2.4,-0.432 v 0.496 c 0.896,0.416 1.888,0.672 2.88,0.672 1.408,0 2.368,-1.376 2.368,-2.88 z m -1.248,-2.352 c -0.48,0.48 -1.072,0.88 -1.76,0.88 -1.456,0 -1.776,-1.408 -1.776,-3.088 0,-1.504 0.464,-3.088 1.776,-3.088 0.608,0 1.216,0.16 1.76,0.432 z"
         style="font-style:normal;font-size:16px;line-height:1.25"
         id="path152" />
      <path
         d="m 1723.3028,534.79542 v -0.8 h -10.048 v 0.8 z m 0,3.2 v -0.8 h -10.048 v 0.8 z"
         style="font-style:normal;font-size:16px;line-height:1.25"
         id="path154" />
      <path
         d="m 1740.8388,534.39542 c 0,-3.424 -1.872,-5.76 -5.168,-5.76 -0.992,0 -1.984,0.048 -2.96,0.16 h -1.28 v 11.2 h 1.28 c 0.976,0.112 1.968,0.16 2.96,0.16 3.296,0 5.168,-2.336 5.168,-5.76 z m -1.568,0 c 0,2.544 -1.296,5.024 -3.6,5.024 -0.976,0 -1.952,-0.048 -2.928,-0.16 v -9.728 c 0.976,-0.112 1.952,-0.16 2.928,-0.16 2.304,0 3.6,2.48 3.6,5.024 z"
         style="font-style:normal;font-size:16px;line-height:1.25"
         id="path156" />
      <path
         d="m 1751.6388,536.85942 v -8.064 h -0.736 v 7.808 c 0,1.664 -1.472,2.912 -3.168,2.912 -1.712,0 -3.184,-1.248 -3.184,-2.912 v -7.808 h -1.312 v 8.064 c 0,2.032 2.016,3.392 4.208,3.392 2.176,0 4.192,-1.36 4.192,-3.392 z"
         style="font-style:normal;font-size:16px;line-height:1.25"
         id="path158" />
      <path
         d="m 1763.3828,539.99542 -3.408,-5.072 c 1.744,-0.336 2.944,-1.296 2.944,-3.088 0,-2.256 -1.936,-3.2 -4.448,-3.2 -0.896,0 -1.792,0.048 -2.672,0.16 h -1.28 v 11.2 h 1.312 v -5.2 c 0.864,0.16 1.76,0.256 2.64,0.256 l 3.344,4.944 z m -2.032,-8.16 c 0,1.456 -1.36,2.48 -2.88,2.48 -0.88,0 -1.776,-0.096 -2.64,-0.256 v -4.528 c 0.88,-0.112 1.76,-0.16 2.64,-0.16 1.52,0 2.88,1.024 2.88,2.464 z"
         style="font-style:normal;font-size:16px;line-height:1.25"
         id="path160" />
      <path
         d="m 1773.3028,539.99542 -4.064,-11.2 h -1.392 l -4.144,11.2 h 0.784 l 1.456,-3.92 h 4.544 l 1.424,3.92 z m -3.088,-4.656 h -4 l 2.016,-5.472 z"
         style="font-style:normal;font-size:16px;line-height:1.25"
         id="path162" />
      <path
         d="m 1781.7187,529.53142 v -0.736 h -8.8 v 0.736 h 3.744 v 10.464 h 1.312 v -10.464 z"
         style="font-style:normal;font-size:16px;line-height:1.25"
         id="path164" />
      <path
         d="m 1784.9507,539.99542 v -11.2 h -1.312 v 11.2 z"
         style="font-style:normal;font-size:16px;line-height:1.25"
         id="path166" />
      <path
         d="m 1797.5107,534.39542 c 0,-3.392 -1.76,-5.76 -4.992,-5.76 -3.248,0 -5.008,2.368 -5.008,5.76 0,3.392 1.76,5.76 5.008,5.76 3.232,0 4.992,-2.368 4.992,-5.76 z m -1.568,0 c 0,2.8 -0.928,5.024 -3.424,5.024 -2.512,0 -3.44,-2.224 -3.44,-5.024 0,-2.8 0.928,-5.024 3.44,-5.024 2.496,0 3.424,2.224 3.424,5.024 z"
         style="font-style:normal;font-size:16px;line-height:1.25"
         id="path168" />
      <path
         d="m 1809.4787,539.99542 v -11.2 h -0.736 v 9.408 l -7.712,-9.408 h -0.96 v 11.2 h 0.736 v -9.408 l 7.712,9.408 z"
         style="font-style:normal;font-size:16px;line-height:1.25"
         id="path170" />
    </g>
    <g
       aria-label="not src_i"
       id="text4423"
       style="font-style:italic;font-size:12.8px;line-height:0%;font-family:Iwona;-inkscape-font-specification:'Sans Italic';stroke-width:1.06667">
      <path
         d="m 1291.1203,577.79071 v -5.2 c 0,-1.168 -0.896,-2.16 -2.048,-2.16 -0.976,0 -1.808,0.624 -2.48,1.36 v -1.2 h -1.76 v 7.2 h 1.76 v -5.296 c 0.432,-0.528 0.976,-1.008 1.648,-1.008 0.624,0 1.12,0.496 1.12,1.104 v 5.2 z"
         style="font-weight:bold"
         id="path173" />
      <path
         d="m 1299.7283,574.19071 c 0,-2.448 -1.184,-3.76 -3.36,-3.76 -2.176,0 -3.36,1.312 -3.36,3.76 0,2.448 1.184,3.76 3.36,3.76 2.176,0 3.36,-1.312 3.36,-3.76 z m -1.92,0 c 0,1.824 -0.512,2.8 -1.44,2.8 -0.928,0 -1.44,-0.976 -1.44,-2.8 0,-1.824 0.512,-2.8 1.44,-2.8 0.928,0 1.44,0.976 1.44,2.8 z"
         style="font-weight:bold"
         id="path175" />
      <path
         d="m 1304.7203,577.23071 v -0.704 c -0.208,0.208 -0.48,0.368 -0.768,0.368 -0.448,0 -0.512,-0.576 -0.512,-1.104 v -4.24 h 1.28 v -0.96 h -1.28 v -2.4 h -1.056 c 0,1.216 -0.384,2.48 -1.44,2.48 v 0.88 h 0.736 v 4.24 c 0,1.072 0.432,2.16 1.36,2.16 0.64,0 1.2,-0.304 1.68,-0.72 z"
         style="font-weight:bold"
         id="path177" />
      <path
         d="m 1316.6242,575.74271 c 0,-1.264 -1.344,-1.92 -2.656,-2.24 -0.768,-0.192 -1.6,-0.512 -1.6,-1.264 0,-0.688 0.704,-1.136 1.472,-1.136 0.848,0 1.696,0.256 2.4,0.72 v -0.672 c -0.704,-0.464 -1.552,-0.72 -2.4,-0.72 -1.392,0 -2.672,0.848 -2.672,2.144 0,1.168 1.296,1.712 2.528,2.016 0.848,0.208 1.728,0.656 1.728,1.472 0,0.752 -0.768,1.216 -1.584,1.216 -0.992,0 -1.952,-0.24 -2.8,-0.72 v 0.672 c 0.848,0.48 1.808,0.72 2.8,0.72 1.44,0 2.784,-0.864 2.784,-2.208 z"
         style="font-style:normal;font-size:16px;line-height:1.25"
         id="path179" />
      <path
         d="m 1322.6082,571.58271 v -0.992 c -0.176,-0.064 -0.368,-0.112 -0.544,-0.112 -0.896,0 -1.616,0.624 -2.192,1.312 v -1.2 h -1.248 v 7.2 h 1.248 v -5.328 c 0.48,-0.56 1.088,-1.04 1.824,-1.04 0.304,0 0.624,0.064 0.912,0.16 z"
         style="font-style:normal;font-size:16px;line-height:1.25"
         id="path181" />
      <path
         d="m 1329.3922,572.25471 v -0.672 c -0.512,-0.72 -1.344,-1.152 -2.24,-1.152 -2,0 -3.344,1.504 -3.344,3.76 0,2.256 1.344,3.76 3.344,3.76 0.832,0 1.616,-0.416 2.08,-1.104 v -0.672 c -0.544,0.816 -1.104,1.104 -2.08,1.104 -1.152,0 -1.936,-1.232 -1.936,-3.088 0,-1.856 0.784,-3.088 1.936,-3.088 0.992,0 1.664,0.352 2.24,1.152 z"
         style="font-style:normal;font-size:16px;line-height:1.25"
         id="path183" />
      <path
         d="m 1337.7922,579.63071 v -0.8 h -8 v 0.8 z"
         style="font-style:normal;font-size:16px;line-height:1.25"
         id="path185" />
      <path
         d="m 1342.0001,577.23071 v -0.48 c -0.304,0.256 -0.656,0.464 -1.056,0.464 -0.592,0 -0.704,-0.736 -0.704,-1.424 v -5.2 h -1.248 v 5.2 c 0,1.072 0.416,2.16 1.36,2.16 0.608,0 1.184,-0.304 1.648,-0.72 z m -1.6,-9.136 c 0,-0.432 -0.352,-0.784 -0.784,-0.784 -0.432,0 -0.784,0.352 -0.784,0.784 0,0.432 0.352,0.784 0.784,0.784 0.432,0 0.784,-0.352 0.784,-0.784 z"
         style="font-style:normal;font-size:16px;line-height:1.25"
         id="path187" />
    </g>
    <g
       aria-label="not src_i and off_timer_reg = DURATION"
       id="text4429"
       style="font-style:italic;font-size:12.8px;line-height:0%;font-family:Iwona;-inkscape-font-specification:'Sans Italic';stroke-width:1.06667">
      <path
         d="m 1109.1392,199.92116 v -5.2 c 0,-1.168 -0.896,-2.16 -2.048,-2.16 -0.976,0 -1.808,0.624 -2.48,1.36 v -1.2 h -1.76 v 7.2 h 1.76 v -5.296 c 0.432,-0.528 0.976,-1.008 1.648,-1.008 0.624,0 1.12,0.496 1.12,1.104 v 5.2 z"
         style="font-weight:bold"
         id="path190" />
      <path
         d="m 1117.7472,196.32116 c 0,-2.448 -1.184,-3.76 -3.36,-3.76 -2.176,0 -3.36,1.312 -3.36,3.76 0,2.448 1.184,3.76 3.36,3.76 2.176,0 3.36,-1.312 3.36,-3.76 z m -1.92,0 c 0,1.824 -0.512,2.8 -1.44,2.8 -0.928,0 -1.44,-0.976 -1.44,-2.8 0,-1.824 0.512,-2.8 1.44,-2.8 0.928,0 1.44,0.976 1.44,2.8 z"
         style="font-weight:bold"
         id="path192" />
      <path
         d="m 1122.7392,199.36116 v -0.704 c -0.208,0.208 -0.48,0.368 -0.768,0.368 -0.448,0 -0.512,-0.576 -0.512,-1.104 v -4.24 h 1.28 v -0.96 h -1.28 v -2.4 h -1.056 c 0,1.216 -0.384,2.48 -1.44,2.48 v 0.88 h 0.736 v 4.24 c 0,1.072 0.432,2.16 1.36,2.16 0.64,0 1.2,-0.304 1.68,-0.72 z"
         style="font-weight:bold"
         id="path194" />
      <path
         d="m 1134.6431,197.87316 c 0,-1.264 -1.344,-1.92 -2.656,-2.24 -0.768,-0.192 -1.6,-0.512 -1.6,-1.264 0,-0.688 0.704,-1.136 1.472,-1.136 0.848,0 1.696,0.256 2.4,0.72 v -0.672 c -0.704,-0.464 -1.552,-0.72 -2.4,-0.72 -1.392,0 -2.672,0.848 -2.672,2.144 0,1.168 1.296,1.712 2.528,2.016 0.848,0.208 1.728,0.656 1.728,1.472 0,0.752 -0.768,1.216 -1.584,1.216 -0.992,0 -1.952,-0.24 -2.8,-0.72 v 0.672 c 0.848,0.48 1.808,0.72 2.8,0.72 1.44,0 2.784,-0.864 2.784,-2.208 z"
         style="font-style:normal;font-size:16px;line-height:1.25"
         id="path196" />
      <path
         d="m 1140.6271,193.71316 v -0.992 c -0.176,-0.064 -0.368,-0.112 -0.544,-0.112 -0.896,0 -1.616,0.624 -2.192,1.312 v -1.2 h -1.248 v 7.2 h 1.248 v -5.328 c 0.48,-0.56 1.088,-1.04 1.824,-1.04 0.304,0 0.624,0.064 0.912,0.16 z"
         style="font-style:normal;font-size:16px;line-height:1.25"
         id="path198" />
      <path
         d="m 1147.4111,194.38516 v -0.672 c -0.512,-0.72 -1.344,-1.152 -2.24,-1.152 -2,0 -3.344,1.504 -3.344,3.76 0,2.256 1.344,3.76 3.344,3.76 0.832,0 1.616,-0.416 2.08,-1.104 v -0.672 c -0.544,0.816 -1.104,1.104 -2.08,1.104 -1.152,0 -1.936,-1.232 -1.936,-3.088 0,-1.856 0.784,-3.088 1.936,-3.088 0.992,0 1.664,0.352 2.24,1.152 z"
         style="font-style:normal;font-size:16px;line-height:1.25"
         id="path200" />
      <path
         d="m 1155.8111,201.76116 v -0.8 h -8 v 0.8 z"
         style="font-style:normal;font-size:16px;line-height:1.25"
         id="path202" />
      <path
         d="m 1160.0191,199.36116 v -0.48 c -0.304,0.256 -0.656,0.464 -1.056,0.464 -0.592,0 -0.704,-0.736 -0.704,-1.424 v -5.2 h -1.248 v 5.2 c 0,1.072 0.416,2.16 1.36,2.16 0.608,0 1.184,-0.304 1.648,-0.72 z m -1.6,-9.136 c 0,-0.432 -0.352,-0.784 -0.784,-0.784 -0.432,0 -0.784,0.352 -0.784,0.784 0,0.432 0.352,0.784 0.784,0.784 0.432,0 0.784,-0.352 0.784,-0.784 z"
         style="font-style:normal;font-size:16px;line-height:1.25"
         id="path204" />
      <path
         d="m 1173.043,199.92116 v -4.48 c 0,-1.536 -1.088,-2.88 -2.56,-2.88 -1.104,0 -2.176,0.352 -3.136,0.896 v 0.704 c 0.736,-0.336 1.552,-0.544 2.368,-0.544 0.912,0 1.568,0.864 1.568,1.824 v 0.288 c -0.624,-0.272 -1.296,-0.432 -1.968,-0.432 -1.728,0 -2.992,0.784 -2.992,2.4 0,1.536 1.12,2.384 2.736,2.384 0.816,0 1.584,-0.368 2.224,-0.88 v 0.72 z m -1.76,-3.424 v 1.936 c -0.432,0.384 -0.944,0.688 -1.504,0.688 -0.832,0 -1.536,-0.624 -1.536,-1.424 0,-0.816 0.704,-1.44 1.536,-1.44 0.512,0 1.008,0.08 1.504,0.24 z"
         style="font-weight:bold"
         id="path206" />
      <path
         d="m 1181.635,199.92116 v -5.2 c 0,-1.168 -0.896,-2.16 -2.048,-2.16 -0.976,0 -1.808,0.624 -2.48,1.36 v -1.2 h -1.76 v 7.2 h 1.76 v -5.296 c 0.432,-0.528 0.976,-1.008 1.648,-1.008 0.624,0 1.12,0.496 1.12,1.104 v 5.2 z"
         style="font-weight:bold"
         id="path208" />
      <path
         d="m 1190.243,199.92116 v -11.2 h -1.76 v 4.272 c -0.624,-0.272 -1.296,-0.432 -1.968,-0.432 -2.016,0 -2.992,1.6 -2.992,3.76 0,2.128 0.816,3.76 2.736,3.76 0.816,0 1.584,-0.368 2.224,-0.88 v 0.72 z m -1.76,-6.16 v 4.672 c -0.432,0.384 -0.944,0.688 -1.504,0.688 -1.184,0 -1.536,-1.44 -1.536,-2.8 0,-1.36 0.352,-2.8 1.536,-2.8 0.512,0 1.008,0.08 1.504,0.24 z"
         style="font-weight:bold"
         id="path210" />
      <path
         d="m 1203.795,196.32116 c 0,-2.448 -1.088,-3.76 -3.088,-3.76 -2.016,0 -3.104,1.312 -3.104,3.76 0,2.448 1.088,3.76 3.104,3.76 2,0 3.088,-1.312 3.088,-3.76 z m -1.408,0 c 0,2 -0.592,3.088 -1.68,3.088 -1.104,0 -1.696,-1.088 -1.696,-3.088 0,-2 0.592,-3.088 1.696,-3.088 1.088,0 1.68,1.088 1.68,3.088 z"
         style="font-style:normal;font-size:16px;line-height:1.25"
         id="path212" />
      <path
         d="m 1212.899,189.76116 v -0.496 c -0.48,-0.4 -1.056,-0.704 -1.68,-0.704 -0.928,0 -1.36,1.088 -1.36,2.16 v 2 h -2.656 v -2 c 0,-0.688 0.128,-1.424 0.72,-1.424 0.4,0 0.768,0.192 1.072,0.464 v -0.496 c -0.48,-0.4 -1.056,-0.704 -1.68,-0.704 -0.928,0 -1.36,1.088 -1.36,2.16 v 2 h -1.12 v 0.672 h 1.12 v 6.528 h 1.248 v -6.528 h 2.656 v 6.528 h 1.248 v -6.528 h 1.12 v -0.672 h -1.12 v -2 c 0,-0.688 0.128,-1.424 0.72,-1.424 0.4,0 0.768,0.192 1.072,0.464 z"
         style="font-style:normal;font-size:16px;line-height:1.25"
         id="path214" />
      <path
         d="m 1220.3869,201.76116 v -0.8 h -8 v 0.8 z"
         style="font-style:normal;font-size:16px;line-height:1.25"
         id="path216" />
      <path
         d="m 1225.0589,199.36116 v -0.48 c -0.256,0.256 -0.56,0.464 -0.928,0.464 -0.576,0 -0.608,-0.752 -0.608,-1.424 v -4.528 h 1.536 v -0.672 h -1.536 v -2.4 h -0.752 c 0,1.28 -0.736,2.48 -1.904,2.48 v 0.592 h 1.408 v 4.528 c 0,1.056 0.336,2.16 1.248,2.16 0.592,0 1.104,-0.32 1.536,-0.72 z"
         style="font-style:normal;font-size:16px;line-height:1.25"
         id="path218" />
      <path
         d="m 1229.7469,199.36116 v -0.48 c -0.304,0.256 -0.656,0.464 -1.056,0.464 -0.592,0 -0.704,-0.736 -0.704,-1.424 v -5.2 h -1.248 v 5.2 c 0,1.072 0.416,2.16 1.36,2.16 0.608,0 1.184,-0.304 1.648,-0.72 z m -1.6,-9.136 c 0,-0.432 -0.352,-0.784 -0.784,-0.784 -0.432,0 -0.784,0.352 -0.784,0.784 0,0.432 0.352,0.784 0.784,0.784 0.432,0 0.784,-0.352 0.784,-0.784 z"
         style="font-style:normal;font-size:16px;line-height:1.25"
         id="path220" />
      <path
         d="m 1240.0829,199.92116 v -5.2 c 0,-1.12 -0.656,-2.16 -1.696,-2.16 -0.896,0 -1.728,0.464 -2.208,1.216 -0.256,-0.704 -0.8,-1.216 -1.536,-1.216 -0.832,0 -1.504,0.576 -2.048,1.216 v -1.056 h -1.248 v 7.2 h 1.248 v -5.664 c 0.384,-0.496 0.864,-0.96 1.488,-0.96 0.656,0 1.008,0.704 1.008,1.424 v 5.2 h 1.248 v -5.2 c 0,-0.192 -0.016,-0.368 -0.048,-0.56 0.384,-0.496 0.912,-0.864 1.536,-0.864 0.656,0 1.008,0.704 1.008,1.424 v 5.2 z"
         style="font-style:normal;font-size:16px;line-height:1.25"
         id="path222" />
      <path
         d="m 1248.3548,196.48116 v -0.16 c 0,-2.256 -1.232,-3.76 -3.088,-3.76 -1.872,0 -3.104,1.504 -3.104,3.76 0,2.256 1.232,3.76 3.104,3.76 0.8,0 1.584,-0.256 2.24,-0.72 v -0.672 c -0.752,0.48 -1.36,0.656 -2.24,0.656 -1.36,0 -1.696,-1.296 -1.696,-2.864 z m -1.408,-0.672 h -3.376 c 0,-1.28 0.544,-2.576 1.696,-2.576 1.136,0 1.68,1.296 1.68,2.576 z"
         style="font-style:normal;font-size:16px;line-height:1.25"
         id="path224" />
      <path
         d="m 1254.4188,193.71316 v -0.992 c -0.176,-0.064 -0.368,-0.112 -0.544,-0.112 -0.896,0 -1.616,0.624 -2.192,1.312 v -1.2 h -1.248 v 7.2 h 1.248 v -5.328 c 0.48,-0.56 1.088,-1.04 1.824,-1.04 0.304,0 0.624,0.064 0.912,0.16 z"
         style="font-style:normal;font-size:16px;line-height:1.25"
         id="path226" />
      <path
         d="m 1262.7388,201.76116 v -0.8 h -8 v 0.8 z"
         style="font-style:normal;font-size:16px;line-height:1.25"
         id="path228" />
      <path
         d="m 1268.0028,193.71316 v -0.992 c -0.176,-0.064 -0.368,-0.112 -0.544,-0.112 -0.896,0 -1.616,0.624 -2.192,1.312 v -1.2 h -1.248 v 7.2 h 1.248 v -5.328 c 0.48,-0.56 1.088,-1.04 1.824,-1.04 0.304,0 0.624,0.064 0.912,0.16 z"
         style="font-style:normal;font-size:16px;line-height:1.25"
         id="path230" />
      <path
         d="m 1275.3948,196.48116 v -0.16 c 0,-2.256 -1.232,-3.76 -3.088,-3.76 -1.872,0 -3.104,1.504 -3.104,3.76 0,2.256 1.232,3.76 3.104,3.76 0.8,0 1.584,-0.256 2.24,-0.72 v -0.672 c -0.752,0.48 -1.36,0.656 -2.24,0.656 -1.36,0 -1.696,-1.296 -1.696,-2.864 z m -1.408,-0.672 h -3.376 c 0,-1.28 0.544,-2.576 1.696,-2.576 1.136,0 1.68,1.296 1.68,2.576 z"
         style="font-style:normal;font-size:16px;line-height:1.25"
         id="path232" />
      <path
         d="m 1283.2667,200.88116 v -8.16 h -1.248 v 0.272 c -0.624,-0.272 -1.296,-0.432 -1.968,-0.432 -2,0 -2.976,1.6 -2.976,3.76 0,2.128 0.8,3.76 2.736,3.76 0.816,0 1.568,-0.368 2.208,-0.88 v 1.68 c 0,1.104 -0.608,2.144 -1.6,2.144 -0.816,0 -1.632,-0.16 -2.4,-0.432 v 0.496 c 0.896,0.416 1.888,0.672 2.88,0.672 1.408,0 2.368,-1.376 2.368,-2.88 z m -1.248,-2.352 c -0.48,0.48 -1.072,0.88 -1.76,0.88 -1.456,0 -1.776,-1.408 -1.776,-3.088 0,-1.504 0.464,-3.088 1.776,-3.088 0.608,0 1.216,0.16 1.76,0.432 z"
         style="font-style:normal;font-size:16px;line-height:1.25"
         id="path234" />
      <path
         d="m 1301.1227,194.72116 v -0.8 h -10.048 v 0.8 z m 0,3.2 v -0.8 h -10.048 v 0.8 z"
         style="font-style:normal;font-size:16px;line-height:1.25"
         id="path236" />
      <path
         d="m 1318.6587,194.32116 c 0,-3.424 -1.872,-5.76 -5.168,-5.76 -0.992,0 -1.984,0.048 -2.96,0.16 h -1.28 v 11.2 h 1.28 c 0.976,0.112 1.968,0.16 2.96,0.16 3.296,0 5.168,-2.336 5.168,-5.76 z m -1.568,0 c 0,2.544 -1.296,5.024 -3.6,5.024 -0.976,0 -1.952,-0.048 -2.928,-0.16 v -9.728 c 0.976,-0.112 1.952,-0.16 2.928,-0.16 2.304,0 3.6,2.48 3.6,5.024 z"
         style="font-style:normal;font-size:16px;line-height:1.25"
         id="path238" />
      <path
         d="m 1329.4587,196.78516 v -8.064 h -0.736 v 7.808 c 0,1.664 -1.472,2.912 -3.168,2.912 -1.712,0 -3.184,-1.248 -3.184,-2.912 v -7.808 h -1.312 v 8.064 c 0,2.032 2.016,3.392 4.208,3.392 2.176,0 4.192,-1.36 4.192,-3.392 z"
         style="font-style:normal;font-size:16px;line-height:1.25"
         id="path240" />
      <path
         d="m 1341.2027,199.92116 -3.408,-5.072 c 1.744,-0.336 2.944,-1.296 2.944,-3.088 0,-2.256 -1.936,-3.2 -4.448,-3.2 -0.896,0 -1.792,0.048 -2.672,0.16 h -1.28 v 11.2 h 1.312 v -5.2 c 0.864,0.16 1.76,0.256 2.64,0.256 l 3.344,4.944 z m -2.032,-8.16 c 0,1.456 -1.36,2.48 -2.88,2.48 -0.88,0 -1.776,-0.096 -2.64,-0.256 v -4.528 c 0.88,-0.112 1.76,-0.16 2.64,-0.16 1.52,0 2.88,1.024 2.88,2.464 z"
         style="font-style:normal;font-size:16px;line-height:1.25"
         id="path242" />
      <path
         d="m 1351.1226,199.92116 -4.064,-11.2 h -1.392 l -4.144,11.2 h 0.784 l 1.456,-3.92 h 4.544 l 1.424,3.92 z m -3.088,-4.656 h -4 l 2.016,-5.472 z"
         style="font-style:normal;font-size:16px;line-height:1.25"
         id="path244" />
      <path
         d="m 1359.5386,189.45716 v -0.736 h -8.8 v 0.736 h 3.744 v 10.464 h 1.312 v -10.464 z"
         style="font-style:normal;font-size:16px;line-height:1.25"
         id="path246" />
      <path
         d="m 1362.7706,199.92116 v -11.2 h -1.312 v 11.2 z"
         style="font-style:normal;font-size:16px;line-height:1.25"
         id="path248" />
      <path
         d="m 1375.3306,194.32116 c 0,-3.392 -1.76,-5.76 -4.992,-5.76 -3.248,0 -5.008,2.368 -5.008,5.76 0,3.392 1.76,5.76 5.008,5.76 3.232,0 4.992,-2.368 4.992,-5.76 z m -1.568,0 c 0,2.8 -0.928,5.024 -3.424,5.024 -2.512,0 -3.44,-2.224 -3.44,-5.024 0,-2.8 0.928,-5.024 3.44,-5.024 2.496,0 3.424,2.224 3.424,5.024 z"
         style="font-style:normal;font-size:16px;line-height:1.25"
         id="path250" />
      <path
         d="m 1387.2986,199.92116 v -11.2 h -0.736 v 9.408 l -7.712,-9.408 h -0.96 v 11.2 h 0.736 v -9.408 l 7.712,9.408 z"
         style="font-style:normal;font-size:16px;line-height:1.25"
         id="path252" />
    </g>
    <g
       transform="translate(919.36167,367.1382)"
       id="g101">
      <path
         id="ellipse93"
         style="fill:#ffeeaa;stroke:#000000;stroke-width:1.13386"
         d="m 601.86514,253.89427 a 90.708649,37.79528 0 0 1 -90.70865,37.79528 90.708649,37.79528 0 0 1 -90.70864,-37.79528 90.708649,37.79528 0 0 1 90.70864,-37.79528 90.708649,37.79528 0 0 1 90.70865,37.79528 z" />
      <path
         id="path95"
         d="m 420.44784,253.89426 h 181.4173"
         style="fill:none;stroke:#000000;stroke-width:1.06667px;stroke-linecap:butt;stroke-linejoin:miter;stroke-opacity:1" />
      <g
         aria-label="ON_STABLE"
         id="text99"
         style="font-style:italic;font-size:12.8px;line-height:0%;font-family:Iwona;-inkscape-font-specification:'Sans Italic';text-align:center;text-anchor:middle;stroke-width:1.06667">
        <path
           d="m 474.35361,236.58233 c 0,-3.61814 -1.87734,-6.14401 -5.32481,-6.14401 -3.46454,0 -5.34188,2.52587 -5.34188,6.14401 0,3.61814 1.87734,6.14402 5.34188,6.14402 3.44747,0 5.32481,-2.52588 5.32481,-6.14402 z m -1.67254,0 c 0,2.98668 -0.98987,5.35895 -3.65227,5.35895 -2.67947,0 -3.66934,-2.37227 -3.66934,-5.35895 0,-2.98667 0.98987,-5.35894 3.66934,-5.35894 2.6624,0 3.65227,2.37227 3.65227,5.35894 z"
           style="font-style:normal;font-size:17.0667px;line-height:1.25"
           id="path256" />
        <path
           d="m 487.11948,242.55568 v -11.94669 h -0.78507 v 10.03522 l -8.22615,-10.03522 h -1.024 v 11.94669 h 0.78507 v -10.03522 l 8.22615,10.03522 z"
           style="font-style:normal;font-size:17.0667px;line-height:1.25"
           id="path258" />
        <path
           d="m 497.35947,244.51835 v -0.85334 h -8.53335 v 0.85334 z"
           style="font-style:normal;font-size:17.0667px;line-height:1.25"
           id="path260" />
        <path
           d="m 507.37759,239.09114 c 0,-2.0992 -2.13334,-3.34507 -4.33494,-3.80587 -1.46774,-0.30721 -3.12321,-0.68267 -3.12321,-2.04801 0,-1.34827 1.45067,-2.11627 2.95254,-2.11627 1.3824,0 2.73067,0.4096 3.82294,1.26294 v -0.68267 c -1.09227,-0.85334 -2.44054,-1.36534 -3.82294,-1.36534 -2.21867,0 -4.30081,1.24587 -4.30081,3.25974 0,1.92854 2.08214,2.90134 4.11308,3.32801 1.62133,0.34133 3.34507,1.00693 3.34507,2.52587 0,1.55307 -1.51894,2.59414 -3.15734,2.59414 -1.5872,0 -3.15734,-0.4096 -4.48854,-1.26294 v 0.68267 c 1.34827,0.85334 2.88427,1.36534 4.48854,1.36534 2.3552,0 4.50561,-1.51894 4.50561,-3.73761 z"
           style="font-style:normal;font-size:17.0667px;line-height:1.25"
           id="path262" />
        <path
           d="m 517.82237,231.39406 v -0.78507 h -9.38668 v 0.78507 h 3.9936 v 11.16162 h 1.39947 v -11.16162 z"
           style="font-style:normal;font-size:17.0667px;line-height:1.25"
           id="path264" />
        <path
           d="m 527.65275,242.55568 -4.33494,-11.94669 H 521.833 l -4.42027,11.94669 h 0.83627 l 1.55307,-4.18134 h 4.84694 l 1.51894,4.18134 z m -3.29387,-4.96641 h -4.26668 l 2.1504,-5.83681 z"
           style="font-style:normal;font-size:17.0667px;line-height:1.25"
           id="path266" />
        <path
           d="m 538.49008,239.31301 c 0,-1.87734 -1.2288,-2.86721 -3.0208,-3.24268 1.31413,-0.39253 2.18453,-1.24587 2.18453,-2.69654 0,-2.08213 -1.792,-2.93547 -4.096,-2.93547 -0.88747,0 -1.77494,0.0512 -2.66241,0.17067 h -1.36534 v 11.94669 h 1.36534 l 2.66241,0.17067 c 2.7648,0 4.93227,-0.93867 4.93227,-3.41334 z m -2.23574,-5.93922 c 0,1.72374 -1.92853,2.61121 -3.85707,2.61121 h -1.46774 v -4.59094 c 0.87041,-0.11947 1.75787,-0.17067 2.62828,-0.17067 1.39947,0 2.69653,0.85334 2.69653,2.1504 z m 0.56321,5.93922 c 0,1.57013 -1.55307,2.62827 -3.25974,2.62827 -0.87041,0 -1.75787,-0.0512 -2.62828,-0.17067 v -5.18828 h 2.20161 c 1.87734,0 3.68641,1.00694 3.68641,2.73068 z"
           style="font-style:normal;font-size:17.0667px;line-height:1.25"
           id="path268" />
        <path
           d="m 548.04743,242.55568 v -0.78507 h -5.42721 v -11.16162 h -1.39947 v 11.94669 z"
           style="font-style:normal;font-size:17.0667px;line-height:1.25"
           id="path270" />
        <path
           d="m 558.62876,242.55568 v -0.78507 h -7.13388 v -4.79574 h 5.42721 v -0.78507 h -5.42721 v -4.79574 h 6.72428 v -0.78507 h -8.12375 v 11.94669 z"
           style="font-style:normal;font-size:17.0667px;line-height:1.25"
           id="path272" />
      </g>
      <g
         aria-label="status_o"
         id="text105"
         style="font-style:italic;font-size:13.3333px;line-height:0%;font-family:Iwona;-inkscape-font-specification:'Sans Italic';text-align:center;text-anchor:middle;stroke-width:1.06667">
        <path
           d="m 492.88389,274.86478 c 0,-1.05333 -1.11999,-1.6 -2.21332,-1.86666 -0.64,-0.16 -1.33333,-0.42667 -1.33333,-1.05333 0,-0.57334 0.58666,-0.94667 1.22666,-0.94667 0.70666,0 1.41333,0.21334 1.99999,0.6 v -0.56 c -0.58666,-0.38666 -1.29333,-0.6 -1.99999,-0.6 -1.16,0 -2.22666,0.70667 -2.22666,1.78667 0,0.97333 1.08,1.42666 2.10666,1.67999 0.70666,0.17333 1.44,0.54667 1.44,1.22667 0,0.62666 -0.64,1.01333 -1.32,1.01333 -0.82666,0 -1.62666,-0.2 -2.33333,-0.6 v 0.56 c 0.70667,0.4 1.50667,0.59999 2.33333,0.59999 1.2,0 2.31999,-0.71999 2.31999,-1.83999 z"
           style="font-style:normal;line-height:1.25"
           id="path275" />
        <path
           d="m 497.3772,276.10478 v -0.4 c -0.21333,0.21333 -0.46666,0.38666 -0.77333,0.38666 -0.48,0 -0.50666,-0.62666 -0.50666,-1.18666 v -3.77332 h 1.27999 v -0.56 h -1.27999 v -2 h -0.62667 c 0,1.06667 -0.61333,2.06666 -1.58666,2.06666 v 0.49334 h 1.17333 v 3.77332 c 0,0.88 0.28,1.79999 1.04,1.79999 0.49333,0 0.91999,-0.26666 1.27999,-0.59999 z"
           style="font-style:normal;line-height:1.25"
           id="path277" />
        <path
           d="m 503.53717,276.57144 v -3.73332 c 0,-1.25333 -0.77333,-2.4 -1.93333,-2.4 -0.85333,0 -1.65333,0.29334 -2.37333,0.74667 v 0.41333 c 0.6,-0.33333 1.26667,-0.54666 1.96,-0.54666 0.82666,0 1.30666,0.87999 1.30666,1.78666 v 0.24 c -0.52,-0.22667 -1.08,-0.36 -1.64,-0.36 -1.42666,0 -2.47999,0.65333 -2.47999,1.99999 0,1.28 0.93333,1.98666 2.27999,1.98666 0.68,0 1.30667,-0.30666 1.84,-0.73333 v 0.6 z m -1.04,-1.16 c -0.4,0.4 -0.89333,0.73334 -1.46666,0.73334 -0.89333,0 -1.48,-0.54667 -1.48,-1.42667 0,-0.81333 0.66667,-1.43999 1.48,-1.43999 0.50666,0 1.01333,0.13333 1.46666,0.36 z"
           style="font-style:normal;line-height:1.25"
           id="path279" />
        <path
           d="m 508.49714,276.10478 v -0.4 c -0.21333,0.21333 -0.46666,0.38666 -0.77333,0.38666 -0.48,0 -0.50666,-0.62666 -0.50666,-1.18666 v -3.77332 h 1.27999 v -0.56 h -1.27999 v -2 h -0.62667 c 0,1.06667 -0.61333,2.06666 -1.58666,2.06666 v 0.49334 h 1.17333 v 3.77332 c 0,0.88 0.28,1.79999 1.04,1.79999 0.49333,0 0.91999,-0.26666 1.27999,-0.59999 z"
           style="font-style:normal;line-height:1.25"
           id="path281" />
        <path
           d="m 514.72378,276.57144 v -5.99998 h -1.04 v 4.70665 c -0.45333,0.45333 -1.01333,0.81333 -1.64,0.81333 -0.62666,0 -1.10666,-0.54666 -1.10666,-1.18666 v -4.33332 h -1.04 v 4.33332 c 0,0.97333 0.74667,1.79999 1.70666,1.79999 0.8,0 1.50667,-0.45333 2.08,-1.01333 v 0.88 z"
           style="font-style:normal;line-height:1.25"
           id="path283" />
        <path
           d="m 520.9104,274.86478 c 0,-1.05333 -1.11999,-1.6 -2.21332,-1.86666 -0.64,-0.16 -1.33333,-0.42667 -1.33333,-1.05333 0,-0.57334 0.58666,-0.94667 1.22666,-0.94667 0.70666,0 1.41333,0.21334 1.99999,0.6 v -0.56 c -0.58666,-0.38666 -1.29333,-0.6 -1.99999,-0.6 -1.16,0 -2.22666,0.70667 -2.22666,1.78667 0,0.97333 1.08,1.42666 2.10666,1.67999 0.70667,0.17333 1.44,0.54667 1.44,1.22667 0,0.62666 -0.64,1.01333 -1.32,1.01333 -0.82666,0 -1.62666,-0.2 -2.33333,-0.6 v 0.56 c 0.70667,0.4 1.50667,0.59999 2.33333,0.59999 1.2,0 2.31999,-0.71999 2.31999,-1.83999 z"
           style="font-style:normal;line-height:1.25"
           id="path285" />
        <path
           d="m 528.17704,278.10477 v -0.66666 h -6.66665 v 0.66666 z"
           style="font-style:normal;line-height:1.25"
           id="path287" />
        <path
           d="m 534.07033,273.57145 c 0,-2.04 -0.90666,-3.13333 -2.57333,-3.13333 -1.67999,0 -2.58666,1.09333 -2.58666,3.13333 0,2.03999 0.90667,3.13332 2.58666,3.13332 1.66667,0 2.57333,-1.09333 2.57333,-3.13332 z m -1.17333,0 c 0,1.66666 -0.49333,2.57333 -1.4,2.57333 -0.91999,0 -1.41333,-0.90667 -1.41333,-2.57333 0,-1.66666 0.49334,-2.57333 1.41333,-2.57333 0.90667,0 1.4,0.90667 1.4,2.57333 z"
           style="font-style:normal;line-height:1.25"
           id="path289" />
      </g>
    </g>
    <g
       id="g119"
       transform="translate(1183.9287,181.94134)">
      <path
         id="ellipse107"
         style="fill:#ffeeaa;stroke:#000000;stroke-width:1.13386"
         d="m 601.86514,253.89427 a 90.708649,37.79528 0 0 1 -90.70865,37.79528 90.708649,37.79528 0 0 1 -90.70864,-37.79528 90.708649,37.79528 0 0 1 90.70864,-37.79528 90.708649,37.79528 0 0 1 90.70865,37.79528 z" />
      <path
         style="fill:none;stroke:#000000;stroke-width:1.06667px;stroke-linecap:butt;stroke-linejoin:miter;stroke-opacity:1"
         d="m 420.44784,253.89426 h 181.4173"
         id="path109" />
      <g
         aria-label="ON_UNSTABLE"
         id="text113"
         style="font-style:italic;font-size:12.8px;line-height:0%;font-family:Iwona;-inkscape-font-specification:'Sans Italic';text-align:center;text-anchor:middle;stroke-width:1.06667">
        <path
           d="m 461.61333,236.58233 c 0,-3.61814 -1.87734,-6.14401 -5.32481,-6.14401 -3.46454,0 -5.34188,2.52587 -5.34188,6.14401 0,3.61814 1.87734,6.14402 5.34188,6.14402 3.44747,0 5.32481,-2.52588 5.32481,-6.14402 z m -1.67253,0 c 0,2.98668 -0.98987,5.35895 -3.65228,5.35895 -2.67947,0 -3.66934,-2.37227 -3.66934,-5.35895 0,-2.98667 0.98987,-5.35894 3.66934,-5.35894 2.66241,0 3.65228,2.37227 3.65228,5.35894 z"
           style="font-style:normal;font-size:17.0667px;line-height:1.25"
           id="path293" />
        <path
           d="m 474.37921,242.55568 v -11.94669 h -0.78507 v 10.03522 l -8.22615,-10.03522 h -1.024 v 11.94669 h 0.78506 v -10.03522 l 8.22615,10.03522 z"
           style="font-style:normal;font-size:17.0667px;line-height:1.25"
           id="path295" />
        <path
           d="m 484.61919,244.51835 v -0.85334 h -8.53335 v 0.85334 z"
           style="font-style:normal;font-size:17.0667px;line-height:1.25"
           id="path297" />
        <path
           d="m 495.11518,239.21061 v -8.60162 h -0.78507 v 8.32855 c 0,1.77494 -1.57013,3.10614 -3.3792,3.10614 -1.82614,0 -3.39628,-1.3312 -3.39628,-3.10614 v -8.32855 h -1.39947 v 8.60162 c 0,2.16747 2.15041,3.61814 4.48855,3.61814 2.32107,0 4.47147,-1.45067 4.47147,-3.61814 z"
           style="font-style:normal;font-size:17.0667px;line-height:1.25"
           id="path299" />
        <path
           d="m 508.39307,242.55568 v -11.94669 h -0.78506 v 10.03522 l -8.22615,-10.03522 h -1.02401 v 11.94669 h 0.78507 v -10.03522 l 8.22615,10.03522 z"
           style="font-style:normal;font-size:17.0667px;line-height:1.25"
           id="path301" />
        <path
           d="m 520.11787,239.09114 c 0,-2.0992 -2.13334,-3.34507 -4.33495,-3.80587 -1.46773,-0.30721 -3.1232,-0.68267 -3.1232,-2.04801 0,-1.34827 1.45067,-2.11627 2.95254,-2.11627 1.3824,0 2.73067,0.4096 3.82294,1.26294 v -0.68267 c -1.09227,-0.85334 -2.44054,-1.36534 -3.82294,-1.36534 -2.21867,0 -4.30081,1.24587 -4.30081,3.25974 0,1.92854 2.08214,2.90134 4.11307,3.32801 1.62134,0.34133 3.34508,1.00693 3.34508,2.52587 0,1.55307 -1.51894,2.59414 -3.15734,2.59414 -1.58721,0 -3.15734,-0.4096 -4.48854,-1.26294 v 0.68267 c 1.34826,0.85334 2.88427,1.36534 4.48854,1.36534 2.3552,0 4.50561,-1.51894 4.50561,-3.73761 z"
           style="font-style:normal;font-size:17.0667px;line-height:1.25"
           id="path303" />
        <path
           d="m 530.56265,231.39406 v -0.78507 h -9.38669 v 0.78507 h 3.99361 v 11.16162 h 1.39947 v -11.16162 z"
           style="font-style:normal;font-size:17.0667px;line-height:1.25"
           id="path305" />
        <path
           d="m 540.39302,242.55568 -4.33494,-11.94669 h -1.4848 l -4.42028,11.94669 h 0.83627 l 1.55307,-4.18134 h 4.84694 l 1.51894,4.18134 z m -3.29387,-4.96641 h -4.26668 l 2.15041,-5.83681 z"
           style="font-style:normal;font-size:17.0667px;line-height:1.25"
           id="path307" />
        <path
           d="m 551.23036,239.31301 c 0,-1.87734 -1.2288,-2.86721 -3.02081,-3.24268 1.31414,-0.39253 2.18454,-1.24587 2.18454,-2.69654 0,-2.08213 -1.792,-2.93547 -4.09601,-2.93547 -0.88747,0 -1.77493,0.0512 -2.6624,0.17067 h -1.36534 v 11.94669 h 1.36534 l 2.6624,0.17067 c 2.76481,0 4.93228,-0.93867 4.93228,-3.41334 z m -2.23574,-5.93922 c 0,1.72374 -1.92854,2.61121 -3.85707,2.61121 h -1.46774 v -4.59094 c 0.8704,-0.11947 1.75787,-0.17067 2.62827,-0.17067 1.39947,0 2.69654,0.85334 2.69654,2.1504 z m 0.5632,5.93922 c 0,1.57013 -1.55307,2.62827 -3.25974,2.62827 -0.8704,0 -1.75787,-0.0512 -2.62827,-0.17067 v -5.18828 h 2.20161 c 1.87733,0 3.6864,1.00694 3.6864,2.73068 z"
           style="font-style:normal;font-size:17.0667px;line-height:1.25"
           id="path309" />
        <path
           d="m 560.7877,242.55568 v -0.78507 h -5.42721 v -11.16162 h -1.39947 v 11.94669 z"
           style="font-style:normal;font-size:17.0667px;line-height:1.25"
           id="path311" />
        <path
           d="m 571.36904,242.55568 v -0.78507 h -7.13388 v -4.79574 h 5.42721 v -0.78507 h -5.42721 v -4.79574 h 6.72428 v -0.78507 h -8.12375 v 11.94669 z"
           style="font-style:normal;font-size:17.0667px;line-height:1.25"
           id="path313" />
      </g>
      <g
         aria-label="status_o"
         id="text117"
         style="font-style:italic;font-size:13.3333px;line-height:0%;font-family:Iwona;-inkscape-font-specification:'Sans Italic';text-align:center;text-anchor:middle;stroke-width:1.06667">
        <path
           d="m 492.88389,274.86478 c 0,-1.05333 -1.11999,-1.6 -2.21332,-1.86666 -0.64,-0.16 -1.33333,-0.42667 -1.33333,-1.05333 0,-0.57334 0.58666,-0.94667 1.22666,-0.94667 0.70666,0 1.41333,0.21334 1.99999,0.6 v -0.56 c -0.58666,-0.38666 -1.29333,-0.6 -1.99999,-0.6 -1.16,0 -2.22666,0.70667 -2.22666,1.78667 0,0.97333 1.08,1.42666 2.10666,1.67999 0.70666,0.17333 1.44,0.54667 1.44,1.22667 0,0.62666 -0.64,1.01333 -1.32,1.01333 -0.82666,0 -1.62666,-0.2 -2.33333,-0.6 v 0.56 c 0.70667,0.4 1.50667,0.59999 2.33333,0.59999 1.2,0 2.31999,-0.71999 2.31999,-1.83999 z"
           style="font-style:normal;line-height:1.25"
           id="path316" />
        <path
           d="m 497.3772,276.10478 v -0.4 c -0.21333,0.21333 -0.46666,0.38666 -0.77333,0.38666 -0.48,0 -0.50666,-0.62666 -0.50666,-1.18666 v -3.77332 h 1.27999 v -0.56 h -1.27999 v -2 h -0.62667 c 0,1.06667 -0.61333,2.06666 -1.58666,2.06666 v 0.49334 h 1.17333 v 3.77332 c 0,0.88 0.28,1.79999 1.04,1.79999 0.49333,0 0.91999,-0.26666 1.27999,-0.59999 z"
           style="font-style:normal;line-height:1.25"
           id="path318" />
        <path
           d="m 503.53717,276.57144 v -3.73332 c 0,-1.25333 -0.77333,-2.4 -1.93333,-2.4 -0.85333,0 -1.65333,0.29334 -2.37333,0.74667 v 0.41333 c 0.6,-0.33333 1.26667,-0.54666 1.96,-0.54666 0.82666,0 1.30666,0.87999 1.30666,1.78666 v 0.24 c -0.52,-0.22667 -1.08,-0.36 -1.64,-0.36 -1.42666,0 -2.47999,0.65333 -2.47999,1.99999 0,1.28 0.93333,1.98666 2.27999,1.98666 0.68,0 1.30667,-0.30666 1.84,-0.73333 v 0.6 z m -1.04,-1.16 c -0.4,0.4 -0.89333,0.73334 -1.46666,0.73334 -0.89333,0 -1.48,-0.54667 -1.48,-1.42667 0,-0.81333 0.66667,-1.43999 1.48,-1.43999 0.50666,0 1.01333,0.13333 1.46666,0.36 z"
           style="font-style:normal;line-height:1.25"
           id="path320" />
        <path
           d="m 508.49714,276.10478 v -0.4 c -0.21333,0.21333 -0.46666,0.38666 -0.77333,0.38666 -0.48,0 -0.50666,-0.62666 -0.50666,-1.18666 v -3.77332 h 1.27999 v -0.56 h -1.27999 v -2 h -0.62667 c 0,1.06667 -0.61333,2.06666 -1.58666,2.06666 v 0.49334 h 1.17333 v 3.77332 c 0,0.88 0.28,1.79999 1.04,1.79999 0.49333,0 0.91999,-0.26666 1.27999,-0.59999 z"
           style="font-style:normal;line-height:1.25"
           id="path322" />
        <path
           d="m 514.72378,276.57144 v -5.99998 h -1.04 v 4.70665 c -0.45333,0.45333 -1.01333,0.81333 -1.64,0.81333 -0.62666,0 -1.10666,-0.54666 -1.10666,-1.18666 v -4.33332 h -1.04 v 4.33332 c 0,0.97333 0.74667,1.79999 1.70666,1.79999 0.8,0 1.50667,-0.45333 2.08,-1.01333 v 0.88 z"
           style="font-style:normal;line-height:1.25"
           id="path324" />
        <path
           d="m 520.9104,274.86478 c 0,-1.05333 -1.11999,-1.6 -2.21332,-1.86666 -0.64,-0.16 -1.33333,-0.42667 -1.33333,-1.05333 0,-0.57334 0.58666,-0.94667 1.22666,-0.94667 0.70666,0 1.41333,0.21334 1.99999,0.6 v -0.56 c -0.58666,-0.38666 -1.29333,-0.6 -1.99999,-0.6 -1.16,0 -2.22666,0.70667 -2.22666,1.78667 0,0.97333 1.08,1.42666 2.10666,1.67999 0.70667,0.17333 1.44,0.54667 1.44,1.22667 0,0.62666 -0.64,1.01333 -1.32,1.01333 -0.82666,0 -1.62666,-0.2 -2.33333,-0.6 v 0.56 c 0.70667,0.4 1.50667,0.59999 2.33333,0.59999 1.2,0 2.31999,-0.71999 2.31999,-1.83999 z"
           style="font-style:normal;line-height:1.25"
           id="path326" />
        <path
           d="m 528.17704,278.10477 v -0.66666 h -6.66665 v 0.66666 z"
           style="font-style:normal;line-height:1.25"
           id="path328" />
        <path
           d="m 534.07033,273.57145 c 0,-2.04 -0.90666,-3.13333 -2.57333,-3.13333 -1.67999,0 -2.58666,1.09333 -2.58666,3.13333 0,2.03999 0.90667,3.13332 2.58666,3.13332 1.66667,0 2.57333,-1.09333 2.57333,-3.13332 z m -1.17333,0 c 0,1.66666 -0.49333,2.57333 -1.4,2.57333 -0.91999,0 -1.41333,-0.90667 -1.41333,-2.57333 0,-1.66666 0.49334,-2.57333 1.41333,-2.57333 0.90667,0 1.4,0.90667 1.4,2.57333 z"
           style="font-style:normal;line-height:1.25"
           id="path330" />
      </g>
    </g>
    <g
       transform="translate(1183.9287,42.098819)"
       id="g133">
      <path
         id="ellipse121"
         style="fill:#ffeeaa;stroke:#000000;stroke-width:1.13386"
         d="m 601.86514,253.89427 a 90.708649,37.79528 0 0 1 -90.70865,37.79528 90.708649,37.79528 0 0 1 -90.70864,-37.79528 90.708649,37.79528 0 0 1 90.70864,-37.79528 90.708649,37.79528 0 0 1 90.70865,37.79528 z" />
      <path
         id="path123"
         d="m 420.44784,253.89426 h 181.4173"
         style="fill:none;stroke:#000000;stroke-width:1.06667px;stroke-linecap:butt;stroke-linejoin:miter;stroke-opacity:1" />
      <g
         aria-label="ON_EVENT"
         id="text127"
         style="font-style:italic;font-size:12.8px;line-height:0%;font-family:Iwona;-inkscape-font-specification:'Sans Italic';text-align:center;text-anchor:middle;stroke-width:1.06667">
        <path
           d="m 477.10132,236.58233 c 0,-3.61814 -1.87734,-6.14401 -5.32481,-6.14401 -3.46454,0 -5.34188,2.52587 -5.34188,6.14401 0,3.61814 1.87734,6.14402 5.34188,6.14402 3.44747,0 5.32481,-2.52588 5.32481,-6.14402 z m -1.67254,0 c 0,2.98668 -0.98987,5.35895 -3.65227,5.35895 -2.67947,0 -3.66934,-2.37227 -3.66934,-5.35895 0,-2.98667 0.98987,-5.35894 3.66934,-5.35894 2.6624,0 3.65227,2.37227 3.65227,5.35894 z"
           style="font-style:normal;font-size:17.0667px;line-height:1.25"
           id="path334" />
        <path
           d="m 489.86719,242.55568 v -11.94669 h -0.78507 v 10.03522 l -8.22615,-10.03522 h -1.024 v 11.94669 h 0.78507 v -10.03522 l 8.22615,10.03522 z"
           style="font-style:normal;font-size:17.0667px;line-height:1.25"
           id="path336" />
        <path
           d="m 500.10718,244.51835 v -0.85334 h -8.53335 v 0.85334 z"
           style="font-style:normal;font-size:17.0667px;line-height:1.25"
           id="path338" />
        <path
           d="m 510.34717,242.55568 v -0.78507 h -7.13388 v -4.79574 h 5.42721 v -0.78507 h -5.42721 v -4.79574 h 6.72428 v -0.78507 h -8.12375 v 11.94669 z"
           style="font-style:normal;font-size:17.0667px;line-height:1.25"
           id="path340" />
        <path
           d="m 521.95252,230.60899 h -0.83627 l -3.95947,10.13762 -3.94241,-10.13762 h -1.50187 l 4.65921,11.94669 h 0.9216 z"
           style="font-style:normal;font-size:17.0667px;line-height:1.25"
           id="path342" />
        <path
           d="m 532.3632,242.55568 v -0.78507 h -7.13388 v -4.79574 h 5.42721 v -0.78507 h -5.42721 v -4.79574 h 6.72427 v -0.78507 h -8.12374 v 11.94669 z"
           style="font-style:normal;font-size:17.0667px;line-height:1.25"
           id="path344" />
        <path
           d="m 545.12908,242.55568 v -11.94669 h -0.78507 v 10.03522 l -8.22615,-10.03522 h -1.024 v 11.94669 h 0.78507 v -10.03522 l 8.22615,10.03522 z"
           style="font-style:normal;font-size:17.0667px;line-height:1.25"
           id="path346" />
        <path
           d="m 556.56374,231.39406 v -0.78507 h -9.38668 v 0.78507 h 3.9936 v 11.16162 h 1.39947 v -11.16162 z"
           style="font-style:normal;font-size:17.0667px;line-height:1.25"
           id="path348" />
      </g>
      <g
         aria-label="on_evt_o, status_o"
         id="text131"
         style="font-style:italic;font-size:13.3333px;line-height:0%;font-family:Iwona;-inkscape-font-specification:'Sans Italic';text-align:center;text-anchor:middle;stroke-width:1.06667">
        <path
           d="m 465.21072,273.57145 c 0,-2.04 -0.90667,-3.13333 -2.57333,-3.13333 -1.67999,0 -2.58666,1.09333 -2.58666,3.13333 0,2.03999 0.90667,3.13332 2.58666,3.13332 1.66666,0 2.57333,-1.09333 2.57333,-3.13332 z m -1.17333,0 c 0,1.66666 -0.49333,2.57333 -1.4,2.57333 -0.92,0 -1.41333,-0.90667 -1.41333,-2.57333 0,-1.66666 0.49333,-2.57333 1.41333,-2.57333 0.90667,0 1.4,0.90667 1.4,2.57333 z"
           style="font-style:normal;line-height:1.25"
           id="path351" />
        <path
           d="m 471.83736,276.57144 v -4.33332 c 0,-0.97333 -0.74666,-1.8 -1.70666,-1.8 -0.8,0 -1.50666,0.45334 -2.07999,1.01333 v -0.87999 h -1.04 v 5.99998 h 1.04 v -4.70665 c 0.45333,-0.45334 1.01333,-0.81333 1.63999,-0.81333 0.62667,0 1.10667,0.54666 1.10667,1.18666 v 4.33332 z"
           style="font-style:normal;line-height:1.25"
           id="path353" />
        <path
           d="m 479.50399,278.10477 v -0.66666 h -6.66665 v 0.66666 z"
           style="font-style:normal;line-height:1.25"
           id="path355" />
        <path
           d="m 485.39728,273.70478 v -0.13333 c 0,-1.88 -1.02666,-3.13333 -2.57333,-3.13333 -1.55999,0 -2.58666,1.25333 -2.58666,3.13333 0,1.87999 1.02667,3.13332 2.58666,3.13332 0.66667,0 1.32,-0.21333 1.86667,-0.59999 v -0.56 c -0.62667,0.4 -1.13333,0.54666 -1.86667,0.54666 -1.13333,0 -1.41332,-1.07999 -1.41332,-2.38666 z m -1.17333,-0.56 h -2.81332 c 0,-1.06666 0.45333,-2.14666 1.41332,-2.14666 0.94667,0 1.4,1.08 1.4,2.14666 z"
           style="font-style:normal;line-height:1.25"
           id="path357" />
        <path
           d="m 491.35725,270.57146 h -0.6 l -1.81333,4.98665 -1.75999,-4.98665 h -0.98667 l 2.10666,5.99998 h 0.86667 z"
           style="font-style:normal;line-height:1.25"
           id="path359" />
        <path
           d="m 495.3839,276.10478 v -0.4 c -0.21333,0.21333 -0.46667,0.38666 -0.77333,0.38666 -0.48,0 -0.50667,-0.62666 -0.50667,-1.18666 v -3.77332 h 1.28 v -0.56 h -1.28 v -2 h -0.62666 c 0,1.06667 -0.61333,2.06666 -1.58667,2.06666 v 0.49334 h 1.17333 v 3.77332 c 0,0.88 0.28,1.79999 1.04,1.79999 0.49333,0 0.92,-0.26666 1.28,-0.59999 z"
           style="font-style:normal;line-height:1.25"
           id="path361" />
        <path
           d="m 502.45053,278.10477 v -0.66666 h -6.66665 v 0.66666 z"
           style="font-style:normal;line-height:1.25"
           id="path363" />
        <path
           d="m 508.34382,273.57145 c 0,-2.04 -0.90666,-3.13333 -2.57332,-3.13333 -1.68,0 -2.58666,1.09333 -2.58666,3.13333 0,2.03999 0.90666,3.13332 2.58666,3.13332 1.66666,0 2.57332,-1.09333 2.57332,-3.13332 z m -1.17333,0 c 0,1.66666 -0.49333,2.57333 -1.39999,2.57333 -0.92,0 -1.41333,-0.90667 -1.41333,-2.57333 0,-1.66666 0.49333,-2.57333 1.41333,-2.57333 0.90666,0 1.39999,0.90667 1.39999,2.57333 z"
           style="font-style:normal;line-height:1.25"
           id="path365" />
        <path
           d="m 510.99713,275.26478 h -1.03999 c 0,0.96 -0.16,1.91999 -0.46667,2.83999 h 0.56 c 0.61333,-0.81333 0.94666,-1.81333 0.94666,-2.83999 z"
           style="font-style:normal;line-height:1.25"
           id="path367" />
        <path
           d="m 521.3304,274.86478 c 0,-1.05333 -1.12,-1.6 -2.21333,-1.86666 -0.64,-0.16 -1.33333,-0.42667 -1.33333,-1.05333 0,-0.57334 0.58667,-0.94667 1.22667,-0.94667 0.70666,0 1.41333,0.21334 1.99999,0.6 v -0.56 c -0.58666,-0.38666 -1.29333,-0.6 -1.99999,-0.6 -1.16,0 -2.22667,0.70667 -2.22667,1.78667 0,0.97333 1.08,1.42666 2.10667,1.67999 0.70666,0.17333 1.43999,0.54667 1.43999,1.22667 0,0.62666 -0.64,1.01333 -1.31999,1.01333 -0.82667,0 -1.62667,-0.2 -2.33333,-0.6 v 0.56 c 0.70666,0.4 1.50666,0.59999 2.33333,0.59999 1.19999,0 2.31999,-0.71999 2.31999,-1.83999 z"
           style="font-style:normal;line-height:1.25"
           id="path369" />
        <path
           d="m 525.82371,276.10478 v -0.4 c -0.21333,0.21333 -0.46666,0.38666 -0.77333,0.38666 -0.48,0 -0.50667,-0.62666 -0.50667,-1.18666 v -3.77332 h 1.28 v -0.56 h -1.28 v -2 h -0.62666 c 0,1.06667 -0.61333,2.06666 -1.58666,2.06666 v 0.49334 h 1.17333 v 3.77332 c 0,0.88 0.28,1.79999 1.03999,1.79999 0.49334,0 0.92,-0.26666 1.28,-0.59999 z"
           style="font-style:normal;line-height:1.25"
           id="path371" />
        <path
           d="m 531.98367,276.57144 v -3.73332 c 0,-1.25333 -0.77333,-2.4 -1.93333,-2.4 -0.85333,0 -1.65332,0.29334 -2.37332,0.74667 v 0.41333 c 0.6,-0.33333 1.26666,-0.54666 1.95999,-0.54666 0.82667,0 1.30667,0.87999 1.30667,1.78666 v 0.24 c -0.52,-0.22667 -1.08,-0.36 -1.64,-0.36 -1.42666,0 -2.47999,0.65333 -2.47999,1.99999 0,1.28 0.93333,1.98666 2.27999,1.98666 0.68,0 1.30666,-0.30666 1.84,-0.73333 v 0.6 z m -1.03999,-1.16 c -0.4,0.4 -0.89334,0.73334 -1.46667,0.73334 -0.89333,0 -1.47999,-0.54667 -1.47999,-1.42667 0,-0.81333 0.66666,-1.43999 1.47999,-1.43999 0.50667,0 1.01333,0.13333 1.46667,0.36 z"
           style="font-style:normal;line-height:1.25"
           id="path373" />
        <path
           d="m 536.94365,276.10478 v -0.4 c -0.21333,0.21333 -0.46667,0.38666 -0.77333,0.38666 -0.48,0 -0.50667,-0.62666 -0.50667,-1.18666 v -3.77332 h 1.28 v -0.56 h -1.28 v -2 h -0.62666 c 0,1.06667 -0.61334,2.06666 -1.58667,2.06666 v 0.49334 h 1.17333 v 3.77332 c 0,0.88 0.28,1.79999 1.04,1.79999 0.49333,0 0.92,-0.26666 1.28,-0.59999 z"
           style="font-style:normal;line-height:1.25"
           id="path375" />
        <path
           d="m 543.17028,276.57144 v -5.99998 h -1.04 v 4.70665 c -0.45333,0.45333 -1.01333,0.81333 -1.63999,0.81333 -0.62667,0 -1.10667,-0.54666 -1.10667,-1.18666 v -4.33332 h -1.03999 v 4.33332 c 0,0.97333 0.74666,1.79999 1.70666,1.79999 0.8,0 1.50666,-0.45333 2.07999,-1.01333 v 0.88 z"
           style="font-style:normal;line-height:1.25"
           id="path377" />
        <path
           d="m 549.35691,274.86478 c 0,-1.05333 -1.12,-1.6 -2.21333,-1.86666 -0.63999,-0.16 -1.33333,-0.42667 -1.33333,-1.05333 0,-0.57334 0.58667,-0.94667 1.22667,-0.94667 0.70666,0 1.41333,0.21334 1.99999,0.6 v -0.56 c -0.58666,-0.38666 -1.29333,-0.6 -1.99999,-0.6 -1.16,0 -2.22666,0.70667 -2.22666,1.78667 0,0.97333 1.07999,1.42666 2.10666,1.67999 0.70666,0.17333 1.43999,0.54667 1.43999,1.22667 0,0.62666 -0.63999,1.01333 -1.31999,1.01333 -0.82667,0 -1.62666,-0.2 -2.33333,-0.6 v 0.56 c 0.70667,0.4 1.50666,0.59999 2.33333,0.59999 1.19999,0 2.31999,-0.71999 2.31999,-1.83999 z"
           style="font-style:normal;line-height:1.25"
           id="path379" />
        <path
           d="m 556.62355,278.10477 v -0.66666 h -6.66665 v 0.66666 z"
           style="font-style:normal;line-height:1.25"
           id="path381" />
        <path
           d="m 562.51684,273.57145 c 0,-2.04 -0.90666,-3.13333 -2.57333,-3.13333 -1.67999,0 -2.58666,1.09333 -2.58666,3.13333 0,2.03999 0.90667,3.13332 2.58666,3.13332 1.66667,0 2.57333,-1.09333 2.57333,-3.13332 z m -1.17333,0 c 0,1.66666 -0.49333,2.57333 -1.4,2.57333 -0.91999,0 -1.41333,-0.90667 -1.41333,-2.57333 0,-1.66666 0.49334,-2.57333 1.41333,-2.57333 0.90667,0 1.4,0.90667 1.4,2.57333 z"
           style="font-style:normal;line-height:1.25"
           id="path383" />
      </g>
    </g>
    <g
       id="g147"
       transform="translate(658.57431,181.94134)">
      <path
         id="ellipse135"
         style="fill:#ffeeaa;stroke:#000000;stroke-width:1.13386"
         d="m 601.86514,253.89427 a 90.708649,37.79528 0 0 1 -90.70865,37.79528 90.708649,37.79528 0 0 1 -90.70864,-37.79528 90.708649,37.79528 0 0 1 90.70864,-37.79528 90.708649,37.79528 0 0 1 90.70865,37.79528 z" />
      <path
         style="fill:none;stroke:#000000;stroke-width:1.06667px;stroke-linecap:butt;stroke-linejoin:miter;stroke-opacity:1"
         d="m 420.44784,253.89426 h 181.4173"
         id="path137" />
      <g
         aria-label="OFF_EVENT"
         id="text141"
         style="font-style:italic;font-size:12.8px;line-height:0%;font-family:Iwona;-inkscape-font-specification:'Sans Italic';text-align:center;text-anchor:middle;stroke-width:1.06667">
        <path
           d="m 473.14184,236.58233 c 0,-3.61814 -1.87734,-6.14401 -5.32481,-6.14401 -3.46454,0 -5.34188,2.52587 -5.34188,6.14401 0,3.61814 1.87734,6.14402 5.34188,6.14402 3.44747,0 5.32481,-2.52588 5.32481,-6.14402 z m -1.67254,0 c 0,2.98668 -0.98987,5.35895 -3.65227,5.35895 -2.67947,0 -3.66934,-2.37227 -3.66934,-5.35895 0,-2.98667 0.98987,-5.35894 3.66934,-5.35894 2.6624,0 3.65227,2.37227 3.65227,5.35894 z"
           style="font-style:normal;font-size:17.0667px;line-height:1.25"
           id="path387" />
        <path
           d="m 483.99624,231.39406 v -0.78507 h -8.12375 v 11.94669 h 1.39947 v -5.58081 h 5.42721 v -0.78507 h -5.42721 v -4.79574 z"
           style="font-style:normal;font-size:17.0667px;line-height:1.25"
           id="path389" />
        <path
           d="m 494.67999,231.39406 v -0.78507 h -8.12375 v 11.94669 h 1.39947 v -5.58081 h 5.42721 v -0.78507 h -5.42721 v -4.79574 z"
           style="font-style:normal;font-size:17.0667px;line-height:1.25"
           id="path391" />
        <path
           d="m 504.06666,244.51835 v -0.85334 h -8.53335 v 0.85334 z"
           style="font-style:normal;font-size:17.0667px;line-height:1.25"
           id="path393" />
        <path
           d="m 514.30665,242.55568 v -0.78507 h -7.13388 v -4.79574 h 5.42721 v -0.78507 h -5.42721 v -4.79574 h 6.72428 v -0.78507 h -8.12375 v 11.94669 z"
           style="font-style:normal;font-size:17.0667px;line-height:1.25"
           id="path395" />
        <path
           d="m 525.912,230.60899 h -0.83627 l -3.95947,10.13762 -3.94241,-10.13762 h -1.50187 l 4.65921,11.94669 h 0.9216 z"
           style="font-style:normal;font-size:17.0667px;line-height:1.25"
           id="path397" />
        <path
           d="m 536.32268,242.55568 v -0.78507 h -7.13388 v -4.79574 h 5.42721 v -0.78507 h -5.42721 v -4.79574 h 6.72428 v -0.78507 h -8.12375 v 11.94669 z"
           style="font-style:normal;font-size:17.0667px;line-height:1.25"
           id="path399" />
        <path
           d="m 549.08856,242.55568 v -11.94669 h -0.78507 v 10.03522 l -8.22615,-10.03522 h -1.024 v 11.94669 h 0.78507 v -10.03522 l 8.22615,10.03522 z"
           style="font-style:normal;font-size:17.0667px;line-height:1.25"
           id="path401" />
        <path
           d="m 560.52322,231.39406 v -0.78507 h -9.38668 v 0.78507 h 3.99361 v 11.16162 h 1.39946 v -11.16162 z"
           style="font-style:normal;font-size:17.0667px;line-height:1.25"
           id="path403" />
      </g>
      <g
         aria-label="off_evt_o"
         id="text145"
         style="font-style:italic;font-size:13.3333px;line-height:0%;font-family:Iwona;-inkscape-font-specification:'Sans Italic';text-align:center;text-anchor:middle;stroke-width:1.06667">
        <path
           d="m 492.53056,273.57145 c 0,-2.04 -0.90667,-3.13333 -2.57333,-3.13333 -1.68,0 -2.58666,1.09333 -2.58666,3.13333 0,2.03999 0.90666,3.13332 2.58666,3.13332 1.66666,0 2.57333,-1.09333 2.57333,-3.13332 z m -1.17333,0 c 0,1.66666 -0.49334,2.57333 -1.4,2.57333 -0.92,0 -1.41333,-0.90667 -1.41333,-2.57333 0,-1.66666 0.49333,-2.57333 1.41333,-2.57333 0.90666,0 1.4,0.90667 1.4,2.57333 z"
           style="font-style:normal;line-height:1.25"
           id="path406" />
        <path
           d="m 500.1172,268.1048 v -0.41334 c -0.4,-0.33333 -0.88,-0.58666 -1.4,-0.58666 -0.77333,0 -1.13333,0.90666 -1.13333,1.79999 v 1.66667 h -2.21332 v -1.66667 c 0,-0.57333 0.10666,-1.18666 0.6,-1.18666 0.33333,0 0.63999,0.16 0.89333,0.38667 v -0.41334 c -0.4,-0.33333 -0.88,-0.58666 -1.4,-0.58666 -0.77333,0 -1.13333,0.90666 -1.13333,1.79999 v 1.66667 h -0.93333 v 0.56 h 0.93333 v 5.43998 h 1.04 v -5.43998 h 2.21332 v 5.43998 h 1.04 v -5.43998 h 0.93333 v -0.56 h -0.93333 v -1.66667 c 0,-0.57333 0.10667,-1.18666 0.6,-1.18666 0.33333,0 0.64,0.16 0.89333,0.38667 z"
           style="font-style:normal;line-height:1.25"
           id="path408" />
        <path
           d="m 506.35716,278.10477 v -0.66666 h -6.66665 v 0.66666 z"
           style="font-style:normal;line-height:1.25"
           id="path410" />
        <path
           d="m 512.25046,273.70478 v -0.13333 c 0,-1.88 -1.02667,-3.13333 -2.57333,-3.13333 -1.56,0 -2.58666,1.25333 -2.58666,3.13333 0,1.87999 1.02666,3.13332 2.58666,3.13332 0.66667,0 1.32,-0.21333 1.86666,-0.59999 v -0.56 c -0.62666,0.4 -1.13333,0.54666 -1.86666,0.54666 -1.13333,0 -1.41333,-1.07999 -1.41333,-2.38666 z m -1.17333,-0.56 h -2.81333 c 0,-1.06666 0.45333,-2.14666 1.41333,-2.14666 0.94666,0 1.4,1.08 1.4,2.14666 z"
           style="font-style:normal;line-height:1.25"
           id="path412" />
        <path
           d="m 518.21042,270.57146 h -0.59999 l -1.81333,4.98665 -1.76,-4.98665 h -0.98666 l 2.10666,5.99998 h 0.86666 z"
           style="font-style:normal;line-height:1.25"
           id="path414" />
        <path
           d="m 522.23708,276.10478 v -0.4 c -0.21334,0.21333 -0.46667,0.38666 -0.77333,0.38666 -0.48,0 -0.50667,-0.62666 -0.50667,-1.18666 v -3.77332 h 1.28 v -0.56 h -1.28 v -2 h -0.62667 c 0,1.06667 -0.61333,2.06666 -1.58666,2.06666 v 0.49334 h 1.17333 v 3.77332 c 0,0.88 0.28,1.79999 1.04,1.79999 0.49333,0 0.92,-0.26666 1.28,-0.59999 z"
           style="font-style:normal;line-height:1.25"
           id="path416" />
        <path
           d="m 529.30371,278.10477 v -0.66666 h -6.66665 v 0.66666 z"
           style="font-style:normal;line-height:1.25"
           id="path418" />
        <path
           d="m 535.197,273.57145 c 0,-2.04 -0.90666,-3.13333 -2.57333,-3.13333 -1.67999,0 -2.58666,1.09333 -2.58666,3.13333 0,2.03999 0.90667,3.13332 2.58666,3.13332 1.66667,0 2.57333,-1.09333 2.57333,-3.13332 z m -1.17333,0 c 0,1.66666 -0.49333,2.57333 -1.4,2.57333 -0.91999,0 -1.41333,-0.90667 -1.41333,-2.57333 0,-1.66666 0.49334,-2.57333 1.41333,-2.57333 0.90667,0 1.4,0.90667 1.4,2.57333 z"
           style="font-style:normal;line-height:1.25"
           id="path420" />
      </g>
    </g>
    <g
       transform="translate(658.57431,42.098819)"
       id="g161">
      <path
         id="ellipse149"
         style="fill:#ffeeaa;stroke:#000000;stroke-width:1.13386"
         d="m 601.86514,253.89427 a 90.708649,37.79528 0 0 1 -90.70865,37.79528 90.708649,37.79528 0 0 1 -90.70864,-37.79528 90.708649,37.79528 0 0 1 90.70864,-37.79528 90.708649,37.79528 0 0 1 90.70865,37.79528 z" />
      <path
         id="path151"
         d="m 420.44784,253.89426 h 181.4173"
         style="fill:none;stroke:#000000;stroke-width:1.06667px;stroke-linecap:butt;stroke-linejoin:miter;stroke-opacity:1" />
      <g
         aria-label="OFF_UNSTABLE"
         id="text155"
         style="font-style:italic;font-size:12.8px;line-height:0%;font-family:Iwona;-inkscape-font-specification:'Sans Italic';text-align:center;text-anchor:middle;stroke-width:1.06667">
        <path
           d="m 457.65385,236.58233 c 0,-3.61814 -1.87734,-6.14401 -5.32481,-6.14401 -3.46454,0 -5.34188,2.52587 -5.34188,6.14401 0,3.61814 1.87734,6.14402 5.34188,6.14402 3.44747,0 5.32481,-2.52588 5.32481,-6.14402 z m -1.67253,0 c 0,2.98668 -0.98987,5.35895 -3.65228,5.35895 -2.67947,0 -3.66934,-2.37227 -3.66934,-5.35895 0,-2.98667 0.98987,-5.35894 3.66934,-5.35894 2.66241,0 3.65228,2.37227 3.65228,5.35894 z"
           style="font-style:normal;font-size:17.0667px;line-height:1.25"
           id="path424" />
        <path
           d="m 468.50825,231.39406 v -0.78507 h -8.12374 v 11.94669 h 1.39946 v -5.58081 h 5.42722 v -0.78507 h -5.42722 v -4.79574 z"
           style="font-style:normal;font-size:17.0667px;line-height:1.25"
           id="path426" />
        <path
           d="m 479.192,231.39406 v -0.78507 h -8.12375 v 11.94669 h 1.39947 v -5.58081 h 5.42721 v -0.78507 h -5.42721 v -4.79574 z"
           style="font-style:normal;font-size:17.0667px;line-height:1.25"
           id="path428" />
        <path
           d="m 488.57867,244.51835 v -0.85334 h -8.53335 v 0.85334 z"
           style="font-style:normal;font-size:17.0667px;line-height:1.25"
           id="path430" />
        <path
           d="m 499.07466,239.21061 v -8.60162 h -0.78507 v 8.32855 c 0,1.77494 -1.57013,3.10614 -3.3792,3.10614 -1.82614,0 -3.39628,-1.3312 -3.39628,-3.10614 v -8.32855 h -1.39947 v 8.60162 c 0,2.16747 2.15041,3.61814 4.48855,3.61814 2.32107,0 4.47147,-1.45067 4.47147,-3.61814 z"
           style="font-style:normal;font-size:17.0667px;line-height:1.25"
           id="path432" />
        <path
           d="m 512.35255,242.55568 v -11.94669 h -0.78506 v 10.03522 l -8.22615,-10.03522 h -1.024 v 11.94669 h 0.78506 v -10.03522 l 8.22615,10.03522 z"
           style="font-style:normal;font-size:17.0667px;line-height:1.25"
           id="path434" />
        <path
           d="m 524.07735,239.09114 c 0,-2.0992 -2.13334,-3.34507 -4.33495,-3.80587 -1.46773,-0.30721 -3.1232,-0.68267 -3.1232,-2.04801 0,-1.34827 1.45067,-2.11627 2.95254,-2.11627 1.3824,0 2.73067,0.4096 3.82294,1.26294 v -0.68267 c -1.09227,-0.85334 -2.44054,-1.36534 -3.82294,-1.36534 -2.21867,0 -4.30081,1.24587 -4.30081,3.25974 0,1.92854 2.08214,2.90134 4.11307,3.32801 1.62134,0.34133 3.34508,1.00693 3.34508,2.52587 0,1.55307 -1.51894,2.59414 -3.15734,2.59414 -1.58721,0 -3.15734,-0.4096 -4.48854,-1.26294 v 0.68267 c 1.34826,0.85334 2.88427,1.36534 4.48854,1.36534 2.3552,0 4.50561,-1.51894 4.50561,-3.73761 z"
           style="font-style:normal;font-size:17.0667px;line-height:1.25"
           id="path436" />
        <path
           d="m 534.52213,231.39406 v -0.78507 h -9.38669 v 0.78507 h 3.99361 v 11.16162 h 1.39947 v -11.16162 z"
           style="font-style:normal;font-size:17.0667px;line-height:1.25"
           id="path438" />
        <path
           d="m 544.3525,242.55568 -4.33494,-11.94669 h -1.4848 l -4.42028,11.94669 h 0.83627 l 1.55307,-4.18134 h 4.84694 l 1.51894,4.18134 z m -3.29387,-4.96641 h -4.26668 l 2.15041,-5.83681 z"
           style="font-style:normal;font-size:17.0667px;line-height:1.25"
           id="path440" />
        <path
           d="m 555.18984,239.31301 c 0,-1.87734 -1.2288,-2.86721 -3.02081,-3.24268 1.31414,-0.39253 2.18454,-1.24587 2.18454,-2.69654 0,-2.08213 -1.792,-2.93547 -4.09601,-2.93547 -0.88747,0 -1.77493,0.0512 -2.6624,0.17067 h -1.36534 v 11.94669 h 1.36534 l 2.6624,0.17067 c 2.76481,0 4.93228,-0.93867 4.93228,-3.41334 z m -2.23574,-5.93922 c 0,1.72374 -1.92854,2.61121 -3.85707,2.61121 h -1.46774 v -4.59094 c 0.8704,-0.11947 1.75787,-0.17067 2.62827,-0.17067 1.39947,0 2.69654,0.85334 2.69654,2.1504 z m 0.5632,5.93922 c 0,1.57013 -1.55307,2.62827 -3.25974,2.62827 -0.8704,0 -1.75787,-0.0512 -2.62827,-0.17067 v -5.18828 h 2.20161 c 1.87733,0 3.6864,1.00694 3.6864,2.73068 z"
           style="font-style:normal;font-size:17.0667px;line-height:1.25"
           id="path442" />
        <path
           d="m 564.74718,242.55568 v -0.78507 h -5.42721 v -11.16162 h -1.39947 v 11.94669 z"
           style="font-style:normal;font-size:17.0667px;line-height:1.25"
           id="path444" />
        <path
           d="m 575.32851,242.55568 v -0.78507 h -7.13388 v -4.79574 h 5.42721 v -0.78507 h -5.42721 v -4.79574 h 6.72428 v -0.78507 h -8.12375 v 11.94669 z"
           style="font-style:normal;font-size:17.0667px;line-height:1.25"
           id="path446" />
      </g>
    </g>
    <path
       style="fill:none;stroke:#000000;stroke-width:0.614255px;stroke-linecap:butt;stroke-linejoin:miter;stroke-opacity:1;marker-start:none;marker-end:url(#Arrow1Lend)"
       d="m 1695.0852,333.78837 c 2.6131,13.05897 3.7825,26.11793 0.4367,64.25196"
       id="path4407" />
    <path
       id="path4413"
       d="m 1169.7308,398.04033 c -4.5379,-13.05895 -6.5685,-26.11795 -0.7583,-64.25196"
       style="fill:none;stroke:#000000;stroke-width:0.809448px;stroke-linecap:butt;stroke-linejoin:miter;stroke-opacity:1;marker-start:none;marker-end:url(#Arrow1Lend)" />
    <path
       id="path4411"
       d="m 1170.7409,473.63091 c 25.0229,47.41958 70.7636,113.72628 169.5726,145.87776"
       style="fill:none;stroke:#000000;stroke-width:1.06667px;stroke-linecap:butt;stroke-linejoin:miter;stroke-opacity:1;marker-start:url(#Arrow1Lstart)" />
    <path
       style="fill:none;stroke:#000000;stroke-width:1.06667px;stroke-linecap:butt;stroke-linejoin:miter;stroke-opacity:1;marker-start:none;marker-end:url(#Arrow1Lend)"
       d="m 1695.0851,473.63088 c -25.6552,47.41958 -72.5519,113.72628 -173.8583,145.87776"
       id="path4409" />
    <path
       id="path13117"
       d="m 1377.1323,26.937935 c 21.2599,0 38.9764,10.62992 49.6063,46.062994"
       style="fill:none;stroke:#000000;stroke-width:1px;stroke-linecap:butt;stroke-linejoin:miter;stroke-opacity:1;marker-start:url(#DotL-7);marker-end:url(#Arrow1Lend-5)" />
  </g>
</svg>
