<?xml version="1.0" encoding="UTF-8" standalone="no"?>
<!-- Created with Inkscape (http://www.inkscape.org/) -->

<svg
   width="197.28471mm"
   height="49.773083mm"
   viewBox="0 0 699.04031 176.36131"
   id="svg19691"
   version="1.1"
   xmlns="http://www.w3.org/2000/svg"
   xmlns:svg="http://www.w3.org/2000/svg"
   xmlns:rdf="http://www.w3.org/1999/02/22-rdf-syntax-ns#"
   xmlns:cc="http://creativecommons.org/ns#"
   xmlns:dc="http://purl.org/dc/elements/1.1/">
  <defs
     id="defs19693">
    <marker
       style="overflow:visible"
       id="marker4693"
       refX="0"
       refY="0"
       orient="auto">
      <path
         transform="matrix(-0.4,0,0,-0.4,-4,0)"
         style="fill:#6600ff;fill-opacity:1;fill-rule:evenodd;stroke:#6600ff;stroke-width:1.00000003pt;stroke-opacity:1"
         d="M 0,0 5,-5 -12.5,0 5,5 Z"
         id="path4691" />
    </marker>
    <marker
       orient="auto"
       refY="0"
       refX="0"
       id="marker4329"
       style="overflow:visible">
      <path
         id="path4327"
         d="M 0,0 5,-5 -12.5,0 5,5 Z"
         style="fill:#6600ff;fill-opacity:1;fill-rule:evenodd;stroke:#6600ff;stroke-width:1.00000003pt;stroke-opacity:1"
         transform="matrix(-0.4,0,0,-0.4,-4,0)" />
    </marker>
    <marker
       style="overflow:visible"
       id="marker3869"
       refX="0"
       refY="0"
       orient="auto">
      <path
         transform="matrix(-0.4,0,0,-0.4,-4,0)"
         style="fill:#6600ff;fill-opacity:1;fill-rule:evenodd;stroke:#6600ff;stroke-width:1.00000003pt;stroke-opacity:1"
         d="M 0,0 5,-5 -12.5,0 5,5 Z"
         id="path3867" />
    </marker>
    <marker
       orient="auto"
       refY="0"
       refX="0"
       id="marker3391"
       style="overflow:visible">
      <path
         id="path3389"
         d="M 0,0 5,-5 -12.5,0 5,5 Z"
         style="fill:#6600ff;fill-opacity:1;fill-rule:evenodd;stroke:#6600ff;stroke-width:1.00000003pt;stroke-opacity:1"
         transform="matrix(-0.4,0,0,-0.4,-4,0)" />
    </marker>
    <marker
       style="overflow:visible"
       id="marker2943"
       refX="0"
       refY="0"
       orient="auto">
      <path
         transform="matrix(-0.4,0,0,-0.4,-4,0)"
         style="fill:#6600ff;fill-opacity:1;fill-rule:evenodd;stroke:#6600ff;stroke-width:1.00000003pt;stroke-opacity:1"
         d="M 0,0 5,-5 -12.5,0 5,5 Z"
         id="path2941" />
    </marker>
    <marker
       orient="auto"
       refY="0"
       refX="0"
       id="marker2557"
       style="overflow:visible">
      <path
         id="path2555"
         d="M 0,0 5,-5 -12.5,0 5,5 Z"
         style="fill:#6600ff;fill-opacity:1;fill-rule:evenodd;stroke:#6600ff;stroke-width:1.00000003pt;stroke-opacity:1"
         transform="matrix(-0.4,0,0,-0.4,-4,0)" />
    </marker>
    <marker
       style="overflow:visible"
       id="marker2509"
       refX="0"
       refY="0"
       orient="auto">
      <path
         transform="matrix(-0.4,0,0,-0.4,-4,0)"
         style="fill:#ff6600;fill-opacity:1;fill-rule:evenodd;stroke:#ff6600;stroke-width:1.00000003pt;stroke-opacity:1"
         d="M 0,0 5,-5 -12.5,0 5,5 Z"
         id="path2507" />
    </marker>
    <marker
       orient="auto"
       refY="0"
       refX="0"
       id="marker2463"
       style="overflow:visible">
      <path
         id="path2461"
         d="M 0,0 5,-5 -12.5,0 5,5 Z"
         style="fill:#ff6600;fill-opacity:1;fill-rule:evenodd;stroke:#ff6600;stroke-width:1.00000003pt;stroke-opacity:1"
         transform="matrix(-0.4,0,0,-0.4,-4,0)" />
    </marker>
    <marker
       style="overflow:visible"
       id="marker2315"
       refX="0"
       refY="0"
       orient="auto">
      <path
         transform="matrix(-0.4,0,0,-0.4,-4,0)"
         style="fill:#ff6600;fill-opacity:1;fill-rule:evenodd;stroke:#ff6600;stroke-width:1.00000003pt;stroke-opacity:1"
         d="M 0,0 5,-5 -12.5,0 5,5 Z"
         id="path2313" />
    </marker>
    <marker
       orient="auto"
       refY="0"
       refX="0"
       id="Arrow1Mend"
       style="overflow:visible">
      <path
         id="path1780"
         d="M 0,0 5,-5 -12.5,0 5,5 Z"
         style="fill:#ff6600;fill-opacity:1;fill-rule:evenodd;stroke:#ff6600;stroke-width:1.00000003pt;stroke-opacity:1"
         transform="matrix(-0.4,0,0,-0.4,-4,0)" />
    </marker>
  </defs>
  <metadata
     id="metadata19696">
    <rdf:RDF>
      <cc:Work
         rdf:about="">
        <dc:format>image/svg+xml</dc:format>
        <dc:type
           rdf:resource="http://purl.org/dc/dcmitype/StillImage" />
        <dc:title />
      </cc:Work>
    </rdf:RDF>
  </metadata>
  <g
     id="layer1"
     transform="translate(8.0954048,-27.846443)">
    <path
       id="path772"
       d="m 92.125984,99.21259 v 28.34645 h -3.54331 l 7.08661,7.08662 7.086616,-7.08662 H 99.212593 V 99.21259 Z"
       style="fill:#80e5ff;fill-rule:evenodd;stroke:none;stroke-width:1px;stroke-linecap:butt;stroke-linejoin:miter;stroke-opacity:1" />
    <path
       style="fill:#80e5ff;fill-rule:evenodd;stroke:none;stroke-width:1px;stroke-linecap:butt;stroke-linejoin:miter;stroke-opacity:1"
       d="m 574.01575,99.21259 v 28.34645 h -3.54331 l 7.08661,7.08662 7.08662,-7.08662 h -3.54331 V 99.21259 Z"
       id="path32318" />
    <path
       id="path32320"
       d="m 602.3622,99.212588 v 28.346452 h -3.54331 l 7.08661,7.08662 7.08662,-7.08662 h -3.54331 V 99.212588 Z"
       style="fill:#80e5ff;fill-rule:evenodd;stroke:none;stroke-width:1px;stroke-linecap:butt;stroke-linejoin:miter;stroke-opacity:1" />
    <path
       style="fill:#80e5ff;fill-rule:evenodd;stroke:none;stroke-width:1px;stroke-linecap:butt;stroke-linejoin:miter;stroke-opacity:1"
       d="m 403.93701,99.21259 v 28.34645 h -3.54331 l 7.08661,7.08662 7.08662,-7.08662 h -3.54331 V 99.21259 Z"
       id="path32290" />
    <path
       id="path32292"
       d="m 432.28346,99.21259 v 7.08661 h -3.54331 l 7.08661,7.08662 7.08662,-7.08662 h -3.54331 v -7.08661 z"
       style="fill:#80e5ff;fill-rule:evenodd;stroke:none;stroke-width:1px;stroke-linecap:butt;stroke-linejoin:miter;stroke-opacity:1" />
    <path
       style="fill:#80e5ff;fill-rule:evenodd;stroke:none;stroke-width:1px;stroke-linecap:butt;stroke-linejoin:miter;stroke-opacity:1"
       d="m 460.62992,99.21259 v 28.34645 h -3.54331 l 7.08661,7.08662 7.08662,-7.08662 h -3.54331 V 99.21259 Z"
       id="path32294" />
    <path
       id="path32296"
       d="m 488.97638,99.21259 v 28.34645 h -3.54331 l 7.08661,7.08662 7.08662,-7.08662 h -3.54331 V 99.21259 Z"
       style="fill:#80e5ff;fill-rule:evenodd;stroke:none;stroke-width:1px;stroke-linecap:butt;stroke-linejoin:miter;stroke-opacity:1" />
    <path
       id="path32298"
       d="m 517.32283,99.212588 v 7.086612 h -3.54331 l 7.08661,7.08662 7.08662,-7.08662 h -3.54331 v -7.086612 z"
       style="fill:#80e5ff;fill-rule:evenodd;stroke:none;stroke-width:1px;stroke-linecap:butt;stroke-linejoin:miter;stroke-opacity:1" />
    <path
       style="fill:#80e5ff;fill-rule:evenodd;stroke:none;stroke-width:1px;stroke-linecap:butt;stroke-linejoin:miter;stroke-opacity:1"
       d="m 545.66929,99.212588 v 28.346452 h -3.54331 l 7.08661,7.08662 7.08662,-7.08662 H 552.7559 V 99.212588 Z"
       id="path32300" />
    <path
       id="path32302"
       d="m 347.24409,99.212588 v 7.086612 h -3.54331 l 7.08661,7.08662 7.08662,-7.08662 h -3.54331 v -7.086612 z"
       style="fill:#80e5ff;fill-rule:evenodd;stroke:none;stroke-width:1px;stroke-linecap:butt;stroke-linejoin:miter;stroke-opacity:1" />
    <path
       style="fill:#80e5ff;fill-rule:evenodd;stroke:none;stroke-width:1px;stroke-linecap:butt;stroke-linejoin:miter;stroke-opacity:1"
       d="m 375.59055,99.21259 v 28.34645 h -3.54331 l 7.08661,7.08662 7.08662,-7.08662 h -3.54331 V 99.21259 Z"
       id="path32304" />
    <path
       id="path32278"
       d="m 177.16536,99.212588 v 7.086612 h -3.54331 l 7.08661,7.08662 7.08662,-7.08662 h -3.54331 v -7.086612 z"
       style="fill:#80e5ff;fill-rule:evenodd;stroke:none;stroke-width:1px;stroke-linecap:butt;stroke-linejoin:miter;stroke-opacity:1" />
    <path
       style="fill:#80e5ff;fill-rule:evenodd;stroke:none;stroke-width:1px;stroke-linecap:butt;stroke-linejoin:miter;stroke-opacity:1"
       d="m 205.51181,99.21259 v 28.34645 h -3.54331 l 7.08661,7.08662 7.08662,-7.08662 h -3.54331 V 99.21259 Z"
       id="path32280" />
    <path
       id="path32282"
       d="m 233.85827,99.212588 v 28.346452 h -3.54331 l 7.08661,7.08662 7.08662,-7.08662 h -3.54331 V 99.212588 Z"
       style="fill:#80e5ff;fill-rule:evenodd;stroke:none;stroke-width:1px;stroke-linecap:butt;stroke-linejoin:miter;stroke-opacity:1" />
    <path
       style="fill:#80e5ff;fill-rule:evenodd;stroke:none;stroke-width:1px;stroke-linecap:butt;stroke-linejoin:miter;stroke-opacity:1"
       d="m 262.20473,99.21259 v 7.08661 h -3.54331 l 7.08661,7.08662 7.08662,-7.08662 h -3.54331 v -7.08661 z"
       id="path32284" />
    <path
       style="fill:#80e5ff;fill-rule:evenodd;stroke:none;stroke-width:1px;stroke-linecap:butt;stroke-linejoin:miter;stroke-opacity:1"
       d="m 290.55118,99.21259 v 28.34645 h -3.54331 l 7.08661,7.08662 7.08662,-7.08662 h -3.54331 V 99.21259 Z"
       id="path32286" />
    <path
       id="path32288"
       d="m 318.89764,99.21259 v 28.34645 h -3.54331 l 7.08661,7.08662 7.08662,-7.08662 h -3.54331 V 99.21259 Z"
       style="fill:#80e5ff;fill-rule:evenodd;stroke:none;stroke-width:1px;stroke-linecap:butt;stroke-linejoin:miter;stroke-opacity:1" />
    <path
       style="fill:#80e5ff;fill-rule:evenodd;stroke:none;stroke-width:1px;stroke-linecap:butt;stroke-linejoin:miter;stroke-opacity:1"
       d="m 120.47244,99.21259 v 28.34645 h -3.54331 l 7.08661,7.08662 7.08662,-7.08662 h -3.54331 V 99.21259 Z"
       id="path32274" />
    <path
       id="path32276"
       d="m 148.8189,99.212588 v 28.346452 h -3.54331 l 7.08661,7.08662 7.08662,-7.08662 h -3.54331 V 99.212588 Z"
       style="fill:#80e5ff;fill-rule:evenodd;stroke:none;stroke-width:1px;stroke-linecap:butt;stroke-linejoin:miter;stroke-opacity:1" />
    <path
       id="path32306"
       d="m 630.70866,99.212588 v 7.086612 h -3.54331 l 7.08661,7.08662 7.08662,-7.08662 h -3.54331 v -7.086612 z"
       style="fill:#80e5ff;fill-rule:evenodd;stroke:none;stroke-width:1px;stroke-linecap:butt;stroke-linejoin:miter;stroke-opacity:1" />
    <path
       style="fill:#80e5ff;fill-rule:evenodd;stroke:none;stroke-width:1px;stroke-linecap:butt;stroke-linejoin:miter;stroke-opacity:1"
       d="m 659.05512,99.212588 v 28.346452 h -3.54331 l 7.08661,7.08662 7.08662,-7.08662 h -3.54331 V 99.212588 Z"
       id="path32308" />
    <g
       aria-label="cycle"
       id="text24487"
       style="line-height:0%;font-family:Iwona;-inkscape-font-specification:Iwona;text-align:end;letter-spacing:0px;word-spacing:0px;text-anchor:end;stroke-width:1px">
      <path
         d="m 52.891092,43.551285 v -0.735 c -0.56,-0.7875 -1.47,-1.26 -2.45,-1.26 -2.1875,0 -3.6575,1.645 -3.6575,4.1125 0,2.4675 1.47,4.1125 3.6575,4.1125 0.91,0 1.7675,-0.455 2.275,-1.2075 v -0.735 c -0.595,0.8925 -1.2075,1.2075 -2.275,1.2075 -1.26,0 -2.1175,-1.3475 -2.1175,-3.3775 0,-2.03 0.8575,-3.3775 2.1175,-3.3775 1.085,0 1.82,0.385 2.45,1.26 z"
         style="font-size:17.5px;line-height:10"
         id="path167" />
      <path
         d="m 60.976073,50.656285 v -8.925 h -1.365 v 6.1775 c -0.595,0.595 -1.33,1.0675 -2.1525,1.0675 -0.8225,0 -1.4525,-0.7175 -1.4525,-1.5575 v -5.6875 h -1.365 v 5.6875 c 0,1.2775 0.98,2.3625 2.24,2.3625 1.05,0 1.9775,-0.595 2.73,-1.33 v 2.205 c 0,1.1725 -0.525,2.345 -1.575,2.345 -0.8225,0 -1.61,-0.175 -2.3625,-0.4725 v 0.5425 c 0.8925,0.455 1.89,0.735 2.905,0.735 1.4875,0 2.3975,-1.54 2.3975,-3.15 z"
         style="font-size:17.5px;line-height:10"
         id="path169" />
      <path
         d="m 69.446042,43.551285 v -0.735 c -0.56,-0.7875 -1.47,-1.26 -2.45,-1.26 -2.1875,0 -3.6575,1.645 -3.6575,4.1125 0,2.4675 1.47,4.1125 3.6575,4.1125 0.91,0 1.7675,-0.455 2.275,-1.2075 v -0.735 c -0.595,0.8925 -1.2075,1.2075 -2.275,1.2075 -1.26,0 -2.1175,-1.3475 -2.1175,-3.3775 0,-2.03 0.8575,-3.3775 2.1175,-3.3775 1.085,0 1.82,0.385 2.45,1.26 z"
         style="font-size:17.5px;line-height:10"
         id="path171" />
      <path
         d="m 74.573525,48.993785 v -0.525 c -0.3325,0.28 -0.7175,0.5075 -1.155,0.5075 -0.6475,0 -0.77,-0.805 -0.77,-1.5575 v -10.0625 h -1.365 v 10.0625 c 0,1.1725 0.455,2.3625 1.4875,2.3625 0.665,0 1.295,-0.3325 1.8025,-0.7875 z"
         style="font-size:17.5px;line-height:10"
         id="path173" />
      <path
         d="m 82.658493,45.843785 v -0.175 c 0,-2.4675 -1.3475,-4.1125 -3.3775,-4.1125 -2.0475,0 -3.395,1.645 -3.395,4.1125 0,2.4675 1.3475,4.1125 3.395,4.1125 0.875,0 1.7325,-0.28 2.45,-0.7875 v -0.735 c -0.8225,0.525 -1.4875,0.7175 -2.45,0.7175 -1.4875,0 -1.855,-1.4175 -1.855,-3.1325 z m -1.54,-0.735 h -3.6925 c 0,-1.4 0.595,-2.8175 1.855,-2.8175 1.2425,0 1.8375,1.4175 1.8375,2.8175 z"
         style="font-size:17.5px;line-height:10"
         id="path175" />
    </g>
    <g
       aria-label="epsilon_reg"
       id="text24491"
       style="line-height:0%;font-family:Iwona;-inkscape-font-specification:Iwona;text-align:end;letter-spacing:0px;word-spacing:0px;text-anchor:end;stroke-width:1px">
      <path
         d="m 5.7637094,88.363477 v -0.175 c 0,-2.4675 -1.3475,-4.1125 -3.3775,-4.1125 -2.04749999,0 -3.395,1.645 -3.395,4.1125 0,2.4675 1.34750001,4.1125 3.395,4.1125 0.875,0 1.7325,-0.28 2.45,-0.7875 v -0.735 c -0.8225,0.525 -1.4875,0.7175 -2.45,0.7175 -1.48749999,0 -1.85499999,-1.4175 -1.85499999,-3.1325 z m -1.54,-0.735 H 0.53120941 c 0,-1.4 0.59499999,-2.8175 1.85499999,-2.8175 1.2425,0 1.8375,1.4175 1.8375,2.8175 z"
         style="font-size:17.5px;line-height:10"
         id="path178" />
      <path
         d="m 14.723686,88.188477 c 0,-2.3275 -0.875,-4.1125 -2.9925,-4.1125 -0.8925,0 -1.715,0.4025 -2.4149998,0.9625 v -0.7875 h -1.365 v 11.9 h 1.365 v -4.3225 c 0.6825,0.2975 1.4174998,0.4725 2.1524998,0.4725 2.1875,0 3.255,-1.75 3.255,-4.1125 z m -1.54,0 c 0,1.645 -0.5075,3.3775 -1.9425,3.3775 -0.665,0 -1.3299998,-0.175 -1.9249998,-0.4725 v -5.32 c 0.525,-0.525 1.1724998,-0.9625 1.9249998,-0.9625 1.5925,0 1.9425,1.54 1.9425,3.3775 z"
         style="font-size:17.5px;line-height:10"
         id="path180" />
      <path
         d="m 22.406157,89.885977 c 0,-1.3825 -1.47,-2.1 -2.905,-2.45 -0.84,-0.21 -1.75,-0.56 -1.75,-1.3825 0,-0.7525 0.77,-1.2425 1.61,-1.2425 0.9275,0 1.855,0.28 2.625,0.7875 v -0.735 c -0.77,-0.5075 -1.6975,-0.7875 -2.625,-0.7875 -1.5225,0 -2.9225,0.9275 -2.9225,2.345 0,1.2775 1.4175,1.8725 2.765,2.205 0.9275,0.2275 1.89,0.7175 1.89,1.61 0,0.8225 -0.84,1.33 -1.7325,1.33 -1.085,0 -2.135,-0.2625 -3.0625,-0.7875 v 0.735 c 0.9275,0.525 1.9775,0.7875 3.0625,0.7875 1.575,0 3.045,-0.945 3.045,-2.415 z"
         style="font-size:17.5px;line-height:10"
         id="path182" />
      <path
         d="m 27.796138,91.513477 v -0.525 c -0.3325,0.28 -0.7175,0.5075 -1.155,0.5075 -0.6475,0 -0.77,-0.805 -0.77,-1.5575 v -5.6875 h -1.365 v 5.6875 c 0,1.1725 0.455,2.3625 1.4875,2.3625 0.665,0 1.295,-0.3325 1.8025,-0.7875 z m -1.75,-9.9925 c 0,-0.4725 -0.385,-0.8575 -0.8575,-0.8575 -0.4725,0 -0.8575,0.385 -0.8575,0.8575 0,0.4725 0.385,0.8575 0.8575,0.8575 0.4725,0 0.8575,-0.385 0.8575,-0.8575 z"
         style="font-size:17.5px;line-height:10"
         id="path184" />
      <path
         d="m 32.836122,91.513477 v -0.525 c -0.3325,0.28 -0.7175,0.5075 -1.155,0.5075 -0.6475,0 -0.77,-0.805 -0.77,-1.5575 v -10.0625 h -1.365 v 10.0625 c 0,1.1725 0.455,2.3625 1.4875,2.3625 0.665,0 1.295,-0.3325 1.8025,-0.7875 z"
         style="font-size:17.5px;line-height:10"
         id="path186" />
      <path
         d="m 40.921089,88.188477 c 0,-2.6775 -1.19,-4.1125 -3.3775,-4.1125 -2.205,0 -3.395,1.435 -3.395,4.1125 0,2.6775 1.19,4.1125 3.395,4.1125 2.1875,0 3.3775,-1.435 3.3775,-4.1125 z m -1.54,0 c 0,2.1875 -0.6475,3.3775 -1.8375,3.3775 -1.2075,0 -1.855,-1.19 -1.855,-3.3775 0,-2.1875 0.6475,-3.3775 1.855,-3.3775 1.19,0 1.8375,1.19 1.8375,3.3775 z"
         style="font-size:17.5px;line-height:10"
         id="path188" />
      <path
         d="m 49.618583,92.125977 v -5.6875 c 0,-1.2775 -0.98,-2.3625 -2.24,-2.3625 -1.05,0 -1.9775,0.595 -2.73,1.33 v -1.155 h -1.365 v 7.875 h 1.365 v -6.1775 c 0.595,-0.595 1.33,-1.0675 2.1525,-1.0675 0.8225,0 1.4525,0.7175 1.4525,1.5575 v 5.6875 z"
         style="font-size:17.5px;line-height:10"
         id="path190" />
      <path
         d="m 59.681053,94.138477 v -0.875 h -8.75 v 0.875 z"
         style="font-size:17.5px;line-height:10"
         id="path192" />
      <path
         d="m 65.438523,85.335977 v -1.085 c -0.1925,-0.07 -0.4025,-0.1225 -0.595,-0.1225 -0.98,0 -1.7675,0.6825 -2.3975,1.435 v -1.3125 h -1.365 v 7.875 h 1.365 v -5.8275 c 0.525,-0.6125 1.19,-1.1375 1.995,-1.1375 0.3325,0 0.6825,0.07 0.9975,0.175 z"
         style="font-size:17.5px;line-height:10"
         id="path194" />
      <path
         d="m 73.523506,88.363477 v -0.175 c 0,-2.4675 -1.3475,-4.1125 -3.3775,-4.1125 -2.0475,0 -3.395,1.645 -3.395,4.1125 0,2.4675 1.3475,4.1125 3.395,4.1125 0.875,0 1.7325,-0.28 2.45,-0.7875 v -0.735 c -0.8225,0.525 -1.4875,0.7175 -2.45,0.7175 -1.4875,0 -1.855,-1.4175 -1.855,-3.1325 z m -1.54,-0.735 h -3.6925 c 0,-1.4 0.595,-2.8175 1.855,-2.8175 1.2425,0 1.8375,1.4175 1.8375,2.8175 z"
         style="font-size:17.5px;line-height:10"
         id="path196" />
      <path
         d="m 82.133483,93.175977 v -8.925 h -1.365 v 0.2975 c -0.6825,-0.2975 -1.4175,-0.4725 -2.1525,-0.4725 -2.1875,0 -3.255,1.75 -3.255,4.1125 0,2.3275 0.875,4.1125 2.9925,4.1125 0.8925,0 1.715,-0.4025 2.415,-0.9625 v 1.8375 c 0,1.2075 -0.665,2.345 -1.75,2.345 -0.8925,0 -1.785,-0.175 -2.625,-0.4725 v 0.5425 c 0.98,0.455 2.065,0.735 3.15,0.735 1.54,0 2.59,-1.505 2.59,-3.15 z m -1.365,-2.5725 c -0.525,0.525 -1.1725,0.9625 -1.925,0.9625 -1.5925,0 -1.9425,-1.54 -1.9425,-3.3775 0,-1.645 0.5075,-3.3775 1.9425,-3.3775 0.665,0 1.33,0.175 1.925,0.4725 z"
         style="font-size:17.5px;line-height:10"
         id="path198" />
    </g>
    <path
       style="fill:none;fill-rule:evenodd;stroke:#000000;stroke-width:1px;stroke-linecap:butt;stroke-linejoin:miter;stroke-opacity:1"
       d="M 88.582676,56.6929 H 113.38583 V 35.433057 h 7.08661 V 56.6929 h 21.25985 V 35.433057 h 7.08661 V 56.6929 h 21.25984 V 35.433057 h 7.08661 V 56.6929 H 198.4252 V 35.433057 h 7.08661 V 56.6929 h 21.25985 V 35.433057 h 7.08661 V 56.6929 h 21.25984 V 35.433057 h 7.08661 V 56.6929 h 21.25985 V 35.433057 h 7.08661 V 56.6929 h 21.25984 V 35.433057 h 7.08661 l 1e-5,21.259843 h 21.25984 V 35.433057 h 7.08661 V 56.6929 h 21.25985 V 35.433057 h 7.08661 V 56.6929 H 396.8504 V 35.433057 h 7.08661 V 56.6929 h 21.25985 V 35.433057 h 7.08661 V 56.6929 h 21.25984 V 35.433057 h 7.08661 V 56.6929 h 21.25985 V 35.433057 h 7.08661 V 56.6929 h 21.25984 V 35.433057 h 7.08661 V 56.6929 h 21.25984 V 35.433057 h 7.08661 l 1e-5,21.259843 h 21.25985 V 35.433057 h 7.08661 V 56.6929 h 21.25984 V 35.433057 h 7.08661 V 56.6929 h 21.25985 V 35.433057 h 7.08661 V 56.6929 H 651.9685 V 35.433057 h 7.08661 V 56.6929 h 24.80316"
       id="path29163" />
    <path
       id="path29175"
       d="m 88.582684,99.212588 h 28.346466 l 3.54328,-21.259843 h 24.80316 l 3.54328,21.259843 h 24.80318 l 3.54328,-21.259843 h 24.80316 l 3.54328,21.259843 h 24.8032 l 3.54328,-21.259843 h 24.80317 l 3.54328,21.259843 h 24.80318 l 3.54328,-21.259843 h 24.80316 l 3.54328,21.259843 h 24.8032 l 3.54328,-21.259843 h 24.80316 l 3.54328,21.259843 h 24.80318 l 3.54328,-21.259843 h 24.80316 l 3.54328,21.259843 h 24.8032 l 3.54328,-21.259843 h 24.80317 l 3.54328,21.259843 h 24.80318 l 3.54328,-21.259843 h 24.80316 l 3.54328,21.259843 h 24.80322 l 3.54328,-21.259843 h 24.80316 l 3.54328,21.259843 h 24.80318 l 3.54328,-21.259843 h 24.80316 l 3.54328,21.259843 h 24.80321"
       style="fill:none;fill-rule:evenodd;stroke:#000000;stroke-width:1px;stroke-linecap:butt;stroke-linejoin:miter;stroke-opacity:1" />
    <path
       style="fill:none;fill-rule:evenodd;stroke:#000000;stroke-width:1px;stroke-linecap:butt;stroke-linejoin:miter;stroke-opacity:1"
       d="m 88.582684,77.952745 h 28.346466 l 3.54328,21.259843 h 24.80316 l 3.54328,-21.259843 h 24.80318 l 3.54328,21.259843 h 24.80316 l 3.54328,-21.259843 h 24.8032 l 3.54328,21.259843 h 24.80317 l 3.54328,-21.259843 h 24.80318 l 3.54328,21.259843 h 24.80316 l 3.54328,-21.259843 h 24.8032 l 3.54328,21.259843 h 24.80316 l 3.54328,-21.259843 h 24.80318 l 3.54328,21.259843 h 24.80316 l 3.54328,-21.259843 h 24.8032 l 3.54328,21.259843 h 24.80317 l 3.54328,-21.259843 h 24.80318 l 3.54328,21.259843 h 24.80316 l 3.54328,-21.259843 h 24.80322 l 3.54328,21.259843 h 24.80316 l 3.54328,-21.259843 h 24.80318 l 3.54328,21.259843 h 24.80316 l 3.54328,-21.259843 h 24.80321"
       id="path29177" />
    <g
       aria-label="16"
       id="text29183"
       style="font-size:16.25px;line-height:0%;font-family:Iwona;-inkscape-font-specification:Iwona;letter-spacing:0px;word-spacing:0px;stroke-width:1px">
      <path
         d="m 97.488484,94.188919 v -11.2125 h -0.9425 c -0.89375,1.02375 -1.95,1.90125 -3.12,2.58375 v 0.6825 c 0.99125,-0.47125 1.9175,-1.02375 2.795,-1.69 v 9.63625 z"
         style="line-height:10"
         id="path201" />
      <path
         d="m 108.37598,90.532669 c 0,-2.34 -0.92625,-3.81875 -3.10375,-3.81875 -0.9425,0 -1.82,0.43875 -2.3725,1.18625 0,-2.12875 0.53625,-4.40375 2.3725,-4.40375 0.82875,0 1.64125,0.27625 2.29125,0.79625 v -0.6825 c -0.65,-0.52 -1.4625,-0.79625 -2.29125,-0.79625 -2.55125,0 -3.8025,2.8925 -3.8025,5.76875 0,4.03 1.04,5.76875 3.46125,5.76875 2.06375,0 3.445,-1.5275 3.445,-3.81875 z m -1.43,0 c 0,1.885 -0.8125,3.13625 -2.015,3.13625 -2.275,0 -2.03125,-2.45375 -2.03125,-5.08625 0.5525,-0.7475 1.43,-1.18625 2.3725,-1.18625 1.3,0 1.67375,1.625 1.67375,3.13625 z"
         style="line-height:10"
         id="path203" />
    </g>
    <g
       aria-label="11"
       id="text29187"
       style="font-size:16.25px;line-height:0%;font-family:Iwona;-inkscape-font-specification:Iwona;letter-spacing:0px;word-spacing:0px;stroke-width:1px">
      <path
         d="m 129.37825,94.188919 v -11.2125 h -0.9425 c -0.89375,1.02375 -1.95,1.90125 -3.12,2.58375 v 0.6825 c 0.99125,-0.47125 1.9175,-1.02375 2.795,-1.69 v 9.63625 z"
         style="line-height:10"
         id="path206" />
      <path
         d="m 137.90949,94.188919 v -11.2125 h -0.9425 c -0.89375,1.02375 -1.95,1.90125 -3.12,2.58375 v 0.6825 c 0.99125,-0.47125 1.9175,-1.02375 2.795,-1.69 v 9.63625 z"
         style="line-height:10"
         id="path208" />
    </g>
    <g
       aria-label="6"
       id="text29191"
       style="font-size:16.25px;line-height:0%;font-family:Iwona;-inkscape-font-specification:Iwona;letter-spacing:0px;word-spacing:0px;stroke-width:1px">
      <path
         d="m 160.08095,90.532669 c 0,-2.34 -0.92625,-3.81875 -3.10375,-3.81875 -0.9425,0 -1.82,0.43875 -2.3725,1.18625 0,-2.12875 0.53625,-4.40375 2.3725,-4.40375 0.82875,0 1.64125,0.27625 2.29125,0.79625 v -0.6825 c -0.65,-0.52 -1.4625,-0.79625 -2.29125,-0.79625 -2.55125,0 -3.8025,2.8925 -3.8025,5.76875 0,4.03 1.04,5.76875 3.46125,5.76875 2.06375,0 3.445,-1.5275 3.445,-3.81875 z m -1.43,0 c 0,1.885 -0.8125,3.13625 -2.015,3.13625 -2.275,0 -2.03125,-2.45375 -2.03125,-5.08625 0.5525,-0.7475 1.43,-1.18625 2.3725,-1.18625 1.3,0 1.67375,1.625 1.67375,3.13625 z"
         style="line-height:10"
         id="path211" />
    </g>
    <g
       aria-label="1"
       id="text29195"
       style="font-size:16.25px;line-height:0%;font-family:Iwona;-inkscape-font-specification:Iwona;letter-spacing:0px;word-spacing:0px;stroke-width:1px">
      <path
         d="m 186.07116,94.188919 v -11.2125 h -0.9425 c -0.89375,1.02375 -1.95,1.90125 -3.12,2.58375 v 0.6825 c 0.99125,-0.47125 1.9175,-1.02375 2.795,-1.69 v 9.63625 z"
         style="line-height:10"
         id="path214" />
    </g>
    <g
       aria-label="12"
       id="text29199"
       style="font-size:16.25px;line-height:0%;font-family:Iwona;-inkscape-font-specification:Iwona;letter-spacing:0px;word-spacing:0px;stroke-width:1px">
      <path
         d="m 214.41761,94.270164 v -11.2125 h -0.9425 c -0.89375,1.02375 -1.95,1.90125 -3.12,2.58375 v 0.6825 c 0.99125,-0.47125 1.9175,-1.02375 2.795,-1.69 v 9.63625 z"
         style="line-height:10"
         id="path217" />
      <path
         d="m 225.30511,94.270164 v -1.0075 h -5.73625 l 2.99,-2.9575 c 1.3325,-1.3325 2.58375,-2.8925 2.58375,-4.7775 0,-1.5925 -1.57625,-2.6325 -3.2825,-2.6325 -1.28375,0 -2.5025,0.585 -3.29875,1.57625 v 0.6825 c 0.82875,-0.95875 2.03125,-1.51125 3.29875,-1.51125 1.08875,0 2.015,0.8125 2.015,1.885 0,1.60875 -0.7475,3.10375 -1.8525,4.2575 l -3.62375,3.72125 v 0.76375 z"
         style="line-height:10"
         id="path219" />
    </g>
    <g
       aria-label="7"
       id="text29203"
       style="font-size:16.25px;line-height:0%;font-family:Iwona;-inkscape-font-specification:Iwona;letter-spacing:0px;word-spacing:0px;stroke-width:1px">
      <path
         d="m 245.12033,83.528919 v -0.5525 h -6.90625 v 1.0075 h 5.2975 l -4.79375,10.205 h 1.3975 z"
         style="line-height:10"
         id="path222" />
    </g>
    <g
       aria-label="2"
       id="text29207"
       style="font-size:16.25px;line-height:0%;font-family:Iwona;-inkscape-font-specification:Iwona;letter-spacing:0px;word-spacing:0px;stroke-width:1px">
      <path
         d="m 273.46677,94.270164 v -1.0075 h -5.73625 l 2.99,-2.9575 c 1.3325,-1.3325 2.58375,-2.8925 2.58375,-4.7775 0,-1.5925 -1.57625,-2.6325 -3.2825,-2.6325 -1.28375,0 -2.5025,0.585 -3.29875,1.57625 v 0.6825 c 0.82875,-0.95875 2.03125,-1.51125 3.29875,-1.51125 1.08875,0 2.015,0.8125 2.015,1.885 0,1.60875 -0.7475,3.10375 -1.8525,4.2575 l -3.62375,3.72125 v 0.76375 z"
         style="line-height:10"
         id="path225" />
    </g>
    <g
       aria-label="13"
       id="text29211"
       style="font-size:16.25px;line-height:0%;font-family:Iwona;-inkscape-font-specification:Iwona;letter-spacing:0px;word-spacing:0px;stroke-width:1px">
      <path
         d="m 299.45698,94.188919 v -11.2125 h -0.9425 c -0.89375,1.02375 -1.95,1.90125 -3.12,2.58375 v 0.6825 c 0.99125,-0.47125 1.9175,-1.02375 2.795,-1.69 v 9.63625 z"
         style="line-height:10"
         id="path228" />
      <path
         d="m 310.34448,91.101419 c 0,-1.43 -1.0075,-2.665 -2.405,-3.0875 1.235,-0.3575 1.99875,-1.28375 1.99875,-2.51875 0,-1.60875 -1.3,-2.68125 -3.25,-2.68125 -1.05625,0 -2.08,0.3575 -2.90875,1.0075 v 0.6825 c 0.82875,-0.65 1.8525,-1.0075 2.90875,-1.0075 1.18625,0 1.9825,0.79625 1.9825,1.99875 0,1.93375 -0.89375,2.4375 -2.925,2.4375 v 0.60125 c 2.19375,0 3.16875,0.52 3.16875,2.5675 0,1.41375 -0.91,2.5675 -2.015,2.5675 -1.235,0 -2.4375,-0.3575 -3.46125,-1.0075 v 0.6825 c 1.02375,0.65 2.22625,1.0075 3.46125,1.0075 1.885,0 3.445,-1.4625 3.445,-3.25 z"
         style="line-height:10"
         id="path230" />
    </g>
    <g
       aria-label="8"
       id="text29215"
       style="font-size:16.25px;line-height:0%;font-family:Iwona;-inkscape-font-specification:Iwona;letter-spacing:0px;word-spacing:0px;stroke-width:1px">
      <path
         d="m 330.1597,91.052669 c 0,-1.5275 -0.73125,-2.61625 -1.9825,-3.07125 1.05625,-0.39 1.6575,-1.2675 1.6575,-2.45375 0,-1.69 -1.18625,-2.71375 -3.12,-2.71375 -1.95,0 -3.13625,1.02375 -3.13625,2.71375 0,1.18625 0.60125,2.06375 1.6575,2.45375 -1.25125,0.455 -1.9825,1.54375 -1.9825,3.07125 0,2.0475 1.31625,3.29875 3.46125,3.29875 2.12875,0 3.445,-1.25125 3.445,-3.29875 z m -1.5925,-5.525 c 0,1.25125 -0.715,2.03125 -1.8525,2.03125 -1.15375,0 -1.86875,-0.78 -1.86875,-2.03125 0,-1.2675 0.715,-2.03125 1.86875,-2.03125 1.1375,0 1.8525,0.76375 1.8525,2.03125 z m 0.1625,5.525 c 0,1.625 -0.76375,2.61625 -2.015,2.61625 -1.2675,0 -2.03125,-0.99125 -2.03125,-2.61625 0,-1.625 0.76375,-2.61625 2.03125,-2.61625 1.25125,0 2.015,0.99125 2.015,2.61625 z"
         style="line-height:10"
         id="path233" />
    </g>
    <g
       aria-label="3"
       id="text29219"
       style="font-size:16.25px;line-height:0%;font-family:Iwona;-inkscape-font-specification:Iwona;letter-spacing:0px;word-spacing:0px;stroke-width:1px">
      <path
         d="m 358.50616,91.101419 c 0,-1.43 -1.0075,-2.665 -2.405,-3.0875 1.235,-0.3575 1.99875,-1.28375 1.99875,-2.51875 0,-1.60875 -1.3,-2.68125 -3.25,-2.68125 -1.05625,0 -2.08,0.3575 -2.90875,1.0075 v 0.6825 c 0.82875,-0.65 1.8525,-1.0075 2.90875,-1.0075 1.18625,0 1.9825,0.79625 1.9825,1.99875 0,1.93375 -0.89375,2.4375 -2.925,2.4375 v 0.60125 c 2.19375,0 3.16875,0.52 3.16875,2.5675 0,1.41375 -0.91,2.5675 -2.015,2.5675 -1.235,0 -2.4375,-0.3575 -3.46125,-1.0075 v 0.6825 c 1.02375,0.65 2.22625,1.0075 3.46125,1.0075 1.885,0 3.445,-1.4625 3.445,-3.25 z"
         style="line-height:10"
         id="path236" />
    </g>
    <g
       aria-label="leds_o(i)"
       id="text31530"
       style="line-height:0%;font-family:Iwona;-inkscape-font-specification:Iwona;text-align:end;letter-spacing:0px;word-spacing:0px;text-anchor:end;stroke-width:1px">
      <path
         d="m 24.751156,126.94654 v -0.525 c -0.3325,0.28 -0.7175,0.5075 -1.155,0.5075 -0.6475,0 -0.77,-0.805 -0.77,-1.5575 v -10.0625 h -1.365 v 10.0625 c 0,1.1725 0.455,2.3625 1.4875,2.3625 0.665,0 1.295,-0.3325 1.8025,-0.7875 z"
         style="font-size:17.5px;line-height:10"
         id="path239" />
      <path
         d="m 32.836125,123.79654 v -0.175 c 0,-2.4675 -1.3475,-4.1125 -3.3775,-4.1125 -2.0475,0 -3.395,1.645 -3.395,4.1125 0,2.4675 1.3475,4.1125 3.395,4.1125 0.875,0 1.7325,-0.28 2.45,-0.7875 v -0.735 c -0.8225,0.525 -1.4875,0.7175 -2.45,0.7175 -1.4875,0 -1.855,-1.4175 -1.855,-3.1325 z m -1.54,-0.735 h -3.6925 c 0,-1.4 0.595,-2.8175 1.855,-2.8175 1.2425,0 1.8375,1.4175 1.8375,2.8175 z"
         style="font-size:17.5px;line-height:10"
         id="path241" />
      <path
         d="m 41.446102,127.55904 v -12.25 h -1.365 v 4.6725 c -0.6825,-0.2975 -1.4175,-0.4725 -2.1525,-0.4725 -2.1875,0 -3.255,1.75 -3.255,4.1125 0,2.3275 0.875,4.1125 2.9925,4.1125 0.8925,0 1.715,-0.4025 2.415,-0.9625 v 0.7875 z m -1.365,-1.5225 c -0.525,0.525 -1.1725,0.9625 -1.925,0.9625 -1.5925,0 -1.9425,-1.54 -1.9425,-3.3775 0,-1.645 0.5075,-3.3775 1.9425,-3.3775 0.665,0 1.33,0.175 1.925,0.4725 z"
         style="font-size:17.5px;line-height:10"
         id="path243" />
      <path
         d="m 49.566091,125.31904 c 0,-1.3825 -1.47,-2.1 -2.905,-2.45 -0.84,-0.21 -1.75,-0.56 -1.75,-1.3825 0,-0.7525 0.77,-1.2425 1.61,-1.2425 0.9275,0 1.855,0.28 2.625,0.7875 v -0.735 c -0.77,-0.5075 -1.6975,-0.7875 -2.625,-0.7875 -1.5225,0 -2.9225,0.9275 -2.9225,2.345 0,1.2775 1.4175,1.8725 2.765,2.205 0.9275,0.2275 1.89,0.7175 1.89,1.61 0,0.8225 -0.84,1.33 -1.7325,1.33 -1.085,0 -2.135,-0.2625 -3.0625,-0.7875 v 0.735 c 0.9275,0.525 1.9775,0.7875 3.0625,0.7875 1.575,0 3.045,-0.945 3.045,-2.415 z"
         style="font-size:17.5px;line-height:10"
         id="path245" />
      <path
         d="m 59.103572,129.57154 v -0.875 h -8.75 v 0.875 z"
         style="font-size:17.5px;line-height:10"
         id="path247" />
      <path
         d="m 66.838538,123.62154 c 0,-2.6775 -1.19,-4.1125 -3.3775,-4.1125 -2.205,0 -3.395,1.435 -3.395,4.1125 0,2.6775 1.19,4.1125 3.395,4.1125 2.1875,0 3.3775,-1.435 3.3775,-4.1125 z m -1.54,0 c 0,2.1875 -0.6475,3.3775 -1.8375,3.3775 -1.2075,0 -1.855,-1.19 -1.855,-3.3775 0,-2.1875 0.6475,-3.3775 1.855,-3.3775 1.19,0 1.8375,1.19 1.8375,3.3775 z"
         style="font-size:17.5px;line-height:10"
         id="path249" />
      <path
         d="m 72.316032,131.58404 c -1.2775,-2.835 -1.75,-5.0225 -1.75,-8.1375 0,-3.115 0.4725,-5.3025 1.75,-8.1375 h -0.735 c -1.7325,2.695 -2.38,4.935 -2.38,8.1375 0,3.2025 0.6475,5.4425 2.38,8.1375 z"
         style="font-size:17.5px;line-height:10"
         id="path251" />
      <path
         d="m 77.793509,126.94654 v -0.525 c -0.3325,0.28 -0.7175,0.5075 -1.155,0.5075 -0.6475,0 -0.77,-0.805 -0.77,-1.5575 v -5.6875 h -1.365 v 5.6875 c 0,1.1725 0.455,2.3625 1.4875,2.3625 0.665,0 1.295,-0.3325 1.8025,-0.7875 z m -1.75,-9.9925 c 0,-0.4725 -0.385,-0.8575 -0.8575,-0.8575 -0.4725,0 -0.8575,0.385 -0.8575,0.8575 0,0.4725 0.385,0.8575 0.8575,0.8575 0.4725,0 0.8575,-0.385 0.8575,-0.8575 z"
         style="font-size:17.5px;line-height:10"
         id="path253" />
      <path
         d="m 82.133493,123.44654 c 0,-3.2025 -0.6475,-5.4425 -2.38,-8.1375 h -0.735 c 1.2775,2.835 1.75,5.0225 1.75,8.1375 0,3.115 -0.4725,5.3025 -1.75,8.1375 h 0.735 c 1.7325,-2.695 2.38,-4.935 2.38,-8.1375 z"
         style="font-size:17.5px;line-height:10"
         id="path255" />
    </g>
    <path
       style="fill:none;fill-rule:evenodd;stroke:#000000;stroke-width:1px;stroke-linecap:butt;stroke-linejoin:miter;stroke-opacity:1"
       d="m 88.582676,134.64566 h 88.582714 l 3.54328,-21.25984 h 24.80316 l 3.54328,21.25984 h 53.14961 l 3.54328,-21.25984 h 24.80317 l 3.54328,21.25984 h 53.14964 l 3.54328,-21.25984 h 24.80316 l 3.54328,21.25984 h 53.14966 l 3.54328,-21.25984 h 24.80316 l 3.54328,21.25984 h 53.14965 l 3.54328,-21.25984 h 24.80316 l 3.54328,21.25984 h 81.4961 l 3.54328,-21.25984 h 24.80317 l 3.54328,21.25984 h 21.25988"
       id="path31534" />
    <g
       aria-label="14"
       id="text217"
       style="font-size:16.25px;line-height:0%;font-family:Iwona;-inkscape-font-specification:Iwona;letter-spacing:0px;word-spacing:0px;stroke-width:1px">
      <path
         d="m 384.49635,94.188919 v -11.2125 h -0.9425 c -0.89375,1.02375 -1.95,1.90125 -3.12,2.58375 v 0.6825 c 0.99125,-0.47125 1.9175,-1.02375 2.795,-1.69 v 9.63625 z"
         style="line-height:10"
         id="path258" />
      <path
         d="m 395.38384,90.288919 v -0.7475 h -1.21875 v -6.565 h -1.2675 l -4.42,6.565 v 0.7475 h 4.42 v 3.9 h 1.2675 v -3.9 z m -2.48625,-0.7475 h -3.59125 l 3.59125,-5.34625 z"
         style="line-height:10"
         id="path260" />
    </g>
    <g
       aria-label="9"
       id="text221"
       style="font-size:16.25px;line-height:0%;font-family:Iwona;-inkscape-font-specification:Iwona;letter-spacing:0px;word-spacing:0px;stroke-width:1px">
      <path
         d="m 415.19907,88.582669 c 0,-4.03 -1.04,-5.76875 -3.445,-5.76875 -2.08,0 -3.46125,1.5275 -3.46125,3.81875 0,2.34 0.92625,3.81875 3.10375,3.81875 0.9425,0 1.82,-0.43875 2.3725,-1.18625 0,2.12875 -0.53625,4.40375 -2.3725,4.40375 -0.82875,0 -1.64125,-0.27625 -2.29125,-0.79625 v 0.6825 c 0.65,0.52 1.4625,0.79625 2.29125,0.79625 2.55125,0 3.8025,-2.8925 3.8025,-5.76875 z m -1.43,0 c -0.5525,0.7475 -1.43,1.18625 -2.3725,1.18625 -1.3,0 -1.67375,-1.625 -1.67375,-3.13625 0,-1.885 0.8125,-3.13625 2.03125,-3.13625 2.25875,0 2.015,2.45375 2.015,5.08625 z"
         style="line-height:10"
         id="path263" />
    </g>
    <g
       aria-label="4"
       id="text225"
       style="font-size:16.25px;line-height:0%;font-family:Iwona;-inkscape-font-specification:Iwona;letter-spacing:0px;word-spacing:0px;stroke-width:1px">
      <path
         d="m 443.54553,90.288919 v -0.7475 h -1.21875 v -6.565 h -1.2675 l -4.42,6.565 v 0.7475 h 4.42 v 3.9 h 1.2675 v -3.9 z m -2.48625,-0.7475 h -3.59125 l 3.59125,-5.34625 z"
         style="line-height:10"
         id="path266" />
    </g>
    <g
       aria-label="15"
       id="text229"
       style="font-size:16.25px;line-height:0%;font-family:Iwona;-inkscape-font-specification:Iwona;letter-spacing:0px;word-spacing:0px;stroke-width:1px">
      <path
         d="m 469.53572,94.107666 v -11.2125 h -0.9425 c -0.89375,1.02375 -1.95,1.90125 -3.12,2.58375 v 0.6825 c 0.99125,-0.47125 1.9175,-1.02375 2.795,-1.69 v 9.63625 z"
         style="line-height:10"
         id="path269" />
      <path
         d="m 480.42321,90.451416 c 0,-2.29125 -1.38125,-3.81875 -3.445,-3.81875 -0.9425,0 -1.82,0.3575 -2.5025,0.95875 l 0.1625,-3.68875 h 5.46 v -1.0075 h -6.09375 l -0.24375,5.60625 0.6825,0.0325 c 0.6175,-0.76375 1.54375,-1.21875 2.535,-1.21875 1.2025,0 2.015,1.25125 2.015,3.13625 0,1.885 -0.8125,3.13625 -2.015,3.13625 -1.25125,0 -2.47,-0.40625 -3.46125,-1.17 v 0.6825 c 0.99125,0.76375 2.21,1.17 3.46125,1.17 2.06375,0 3.445,-1.5275 3.445,-3.81875 z"
         style="line-height:10"
         id="path271" />
    </g>
    <g
       aria-label="10"
       id="text233"
       style="font-size:16.25px;line-height:0%;font-family:Iwona;-inkscape-font-specification:Iwona;letter-spacing:0px;word-spacing:0px;stroke-width:1px">
      <path
         d="m 497.88218,94.188919 v -11.2125 h -0.9425 c -0.89375,1.02375 -1.95,1.90125 -3.12,2.58375 v 0.6825 c 0.99125,-0.47125 1.9175,-1.02375 2.795,-1.69 v 9.63625 z"
         style="line-height:10"
         id="path274" />
      <path
         d="m 508.88343,88.582669 c 0,-3.85125 -1.18625,-5.76875 -3.55875,-5.76875 -2.3725,0 -3.55875,1.9175 -3.55875,5.76875 0,3.85125 1.18625,5.76875 3.55875,5.76875 2.3725,0 3.55875,-1.9175 3.55875,-5.76875 z m -1.43,0 c 0,3.39625 -0.715,5.08625 -2.12875,5.08625 -1.41375,0 -2.12875,-1.69 -2.12875,-5.08625 0,-3.39625 0.715,-5.08625 2.12875,-5.08625 1.41375,0 2.12875,1.69 2.12875,5.08625 z"
         style="line-height:10"
         id="path276" />
    </g>
    <g
       aria-label="5"
       id="text237"
       style="font-size:16.25px;line-height:0%;font-family:Iwona;-inkscape-font-specification:Iwona;letter-spacing:0px;word-spacing:0px;stroke-width:1px">
      <path
         d="m 528.5849,90.451416 c 0,-2.29125 -1.38125,-3.81875 -3.445,-3.81875 -0.9425,0 -1.82,0.3575 -2.5025,0.95875 l 0.1625,-3.68875 h 5.46 v -1.0075 h -6.09375 l -0.24375,5.60625 0.6825,0.0325 c 0.6175,-0.76375 1.54375,-1.21875 2.535,-1.21875 1.2025,0 2.015,1.25125 2.015,3.13625 0,1.885 -0.8125,3.13625 -2.015,3.13625 -1.25125,0 -2.47,-0.40625 -3.46125,-1.17 v 0.6825 c 0.99125,0.76375 2.21,1.17 3.46125,1.17 2.06375,0 3.445,-1.5275 3.445,-3.81875 z"
         style="line-height:10"
         id="path279" />
    </g>
    <g
       aria-label="16"
       id="text241"
       style="font-size:16.25px;line-height:0%;font-family:Iwona;-inkscape-font-specification:Iwona;letter-spacing:0px;word-spacing:0px;stroke-width:1px">
      <path
         d="m 554.57509,94.188919 v -11.2125 h -0.9425 c -0.89375,1.02375 -1.95,1.90125 -3.12,2.58375 v 0.6825 c 0.99125,-0.47125 1.9175,-1.02375 2.795,-1.69 v 9.63625 z"
         style="line-height:10"
         id="path282" />
      <path
         d="m 565.46258,90.532669 c 0,-2.34 -0.92625,-3.81875 -3.10375,-3.81875 -0.9425,0 -1.82,0.43875 -2.3725,1.18625 0,-2.12875 0.53625,-4.40375 2.3725,-4.40375 0.82875,0 1.64125,0.27625 2.29125,0.79625 v -0.6825 c -0.65,-0.52 -1.4625,-0.79625 -2.29125,-0.79625 -2.55125,0 -3.8025,2.8925 -3.8025,5.76875 0,4.03 1.04,5.76875 3.46125,5.76875 2.06375,0 3.445,-1.5275 3.445,-3.81875 z m -1.43,0 c 0,1.885 -0.8125,3.13625 -2.015,3.13625 -2.275,0 -2.03125,-2.45375 -2.03125,-5.08625 0.5525,-0.7475 1.43,-1.18625 2.3725,-1.18625 1.3,0 1.67375,1.625 1.67375,3.13625 z"
         style="line-height:10"
         id="path284" />
    </g>
    <g
       aria-label="11"
       id="text245"
       style="font-size:16.25px;line-height:0%;font-family:Iwona;-inkscape-font-specification:Iwona;letter-spacing:0px;word-spacing:0px;stroke-width:1px">
      <path
         d="m 582.92158,94.188919 v -11.2125 h -0.9425 c -0.89375,1.02375 -1.95,1.90125 -3.12,2.58375 v 0.6825 c 0.99125,-0.47125 1.9175,-1.02375 2.795,-1.69 v 9.63625 z"
         style="line-height:10"
         id="path287" />
      <path
         d="m 591.45283,94.188919 v -11.2125 h -0.9425 c -0.89375,1.02375 -1.95,1.90125 -3.12,2.58375 v 0.6825 c 0.99125,-0.47125 1.9175,-1.02375 2.795,-1.69 v 9.63625 z"
         style="line-height:10"
         id="path289" />
    </g>
    <g
       aria-label="6"
       id="text249"
       style="font-size:16.25px;line-height:0%;font-family:Iwona;-inkscape-font-specification:Iwona;letter-spacing:0px;word-spacing:0px;stroke-width:1px">
      <path
         d="m 613.62427,90.532669 c 0,-2.34 -0.92625,-3.81875 -3.10375,-3.81875 -0.9425,0 -1.82,0.43875 -2.3725,1.18625 0,-2.12875 0.53625,-4.40375 2.3725,-4.40375 0.82875,0 1.64125,0.27625 2.29125,0.79625 v -0.6825 c -0.65,-0.52 -1.4625,-0.79625 -2.29125,-0.79625 -2.55125,0 -3.8025,2.8925 -3.8025,5.76875 0,4.03 1.04,5.76875 3.46125,5.76875 2.06375,0 3.445,-1.5275 3.445,-3.81875 z m -1.43,0 c 0,1.885 -0.8125,3.13625 -2.015,3.13625 -2.275,0 -2.03125,-2.45375 -2.03125,-5.08625 0.5525,-0.7475 1.43,-1.18625 2.3725,-1.18625 1.3,0 1.67375,1.625 1.67375,3.13625 z"
         style="line-height:10"
         id="path292" />
    </g>
    <g
       aria-label="1"
       id="text253"
       style="font-size:16.25px;line-height:0%;font-family:Iwona;-inkscape-font-specification:Iwona;letter-spacing:0px;word-spacing:0px;stroke-width:1px">
      <path
         d="m 639.61445,94.188919 v -11.2125 h -0.9425 c -0.89375,1.02375 -1.95,1.90125 -3.12,2.58375 v 0.6825 c 0.99125,-0.47125 1.9175,-1.02375 2.795,-1.69 v 9.63625 z"
         style="line-height:10"
         id="path295" />
    </g>
    <g
       aria-label="12"
       id="text337"
       style="font-size:16.25px;line-height:0%;font-family:Iwona;-inkscape-font-specification:Iwona;letter-spacing:0px;word-spacing:0px;stroke-width:1px">
      <path
         d="m 667.96095,94.270164 v -11.2125 h -0.9425 c -0.89375,1.02375 -1.95,1.90125 -3.12,2.58375 v 0.6825 c 0.99125,-0.47125 1.9175,-1.02375 2.795,-1.69 v 9.63625 z"
         style="line-height:10"
         id="path298" />
      <path
         d="m 678.84844,94.270164 v -1.0075 h -5.73625 l 2.99,-2.9575 c 1.3325,-1.3325 2.58375,-2.8925 2.58375,-4.7775 0,-1.5925 -1.57625,-2.6325 -3.2825,-2.6325 -1.28375,0 -2.5025,0.585 -3.29875,1.57625 v 0.6825 c 0.82875,-0.95875 2.03125,-1.51125 3.29875,-1.51125 1.08875,0 2.015,0.8125 2.015,1.885 0,1.60875 -0.7475,3.10375 -1.8525,4.2575 l -3.62375,3.72125 v 0.76375 z"
         style="line-height:10"
         id="path300" />
    </g>
    <path
       style="fill:none;fill-rule:evenodd;stroke:#ff6600;stroke-width:1.21875;stroke-linecap:butt;stroke-linejoin:miter;stroke-miterlimit:4;stroke-dasharray:none;stroke-opacity:1"
       d="m 88.582677,141.73227 c -10e-7,24.80315 230.314963,0 230.314963,21.25984 0,-21.25984 230.31496,3.54331 230.31496,-21.25984"
       id="path950" />
    <g
       aria-label="16 millisecondes
5 millisecondes à '1'"
       id="text1759"
       style="font-size:16.25px;line-height:1;font-family:Iwona;-inkscape-font-specification:Iwona;text-align:center;letter-spacing:0px;word-spacing:0px;text-anchor:middle;stroke-width:1px">
      <path
         d="m 267.11717,180.70865 v -11.2125 h -0.9425 c -0.89375,1.02375 -1.95,1.90125 -3.12,2.58375 v 0.6825 c 0.99125,-0.47125 1.9175,-1.02375 2.795,-1.69 v 9.63625 z"
         id="path303" />
      <path
         d="m 278.00466,177.0524 c 0,-2.34 -0.92625,-3.81875 -3.10375,-3.81875 -0.9425,0 -1.82,0.43875 -2.3725,1.18625 0,-2.12875 0.53625,-4.40375 2.3725,-4.40375 0.82875,0 1.64125,0.27625 2.29125,0.79625 v -0.6825 c -0.65,-0.52 -1.4625,-0.79625 -2.29125,-0.79625 -2.55125,0 -3.8025,2.8925 -3.8025,5.76875 0,4.03 1.04,5.76875 3.46125,5.76875 2.06375,0 3.445,-1.5275 3.445,-3.81875 z m -1.43,0 c 0,1.885 -0.8125,3.13625 -2.015,3.13625 -2.275,0 -2.03125,-2.45375 -2.03125,-5.08625 0.5525,-0.7475 1.43,-1.18625 2.3725,-1.18625 1.3,0 1.67375,1.625 1.67375,3.13625 z"
         id="path305" />
      <path
         d="m 294.40088,180.70865 v -5.28125 c 0,-1.1375 -0.66625,-2.19375 -1.7225,-2.19375 -0.91,0 -1.755,0.47125 -2.2425,1.235 -0.26,-0.715 -0.8125,-1.235 -1.56,-1.235 -0.845,0 -1.5275,0.585 -2.08,1.235 v -1.0725 h -1.2675 v 7.3125 h 1.2675 v -5.7525 c 0.39,-0.50375 0.8775,-0.975 1.51125,-0.975 0.66625,0 1.02375,0.715 1.02375,1.44625 v 5.28125 h 1.2675 v -5.28125 c 0,-0.195 -0.0163,-0.37375 -0.0488,-0.56875 0.39,-0.50375 0.92625,-0.8775 1.56,-0.8775 0.66625,0 1.02375,0.715 1.02375,1.44625 v 5.28125 z"
         id="path307" />
      <path
         d="m 299.89335,180.1399 v -0.4875 c -0.30875,0.26 -0.66625,0.47125 -1.0725,0.47125 -0.60125,0 -0.715,-0.7475 -0.715,-1.44625 v -5.28125 h -1.2675 v 5.28125 c 0,1.08875 0.4225,2.19375 1.38125,2.19375 0.6175,0 1.2025,-0.30875 1.67375,-0.73125 z m -1.625,-9.27875 c 0,-0.43875 -0.3575,-0.79625 -0.79625,-0.79625 -0.43875,0 -0.79625,0.3575 -0.79625,0.79625 0,0.43875 0.3575,0.79625 0.79625,0.79625 0.43875,0 0.79625,-0.3575 0.79625,-0.79625 z"
         id="path309" />
      <path
         d="m 304.57334,180.1399 v -0.4875 c -0.30875,0.26 -0.66625,0.47125 -1.0725,0.47125 -0.60125,0 -0.715,-0.7475 -0.715,-1.44625 v -9.34375 h -1.2675 v 9.34375 c 0,1.08875 0.4225,2.19375 1.38125,2.19375 0.6175,0 1.2025,-0.30875 1.67375,-0.73125 z"
         id="path311" />
      <path
         d="m 309.2533,180.1399 v -0.4875 c -0.30875,0.26 -0.66625,0.47125 -1.0725,0.47125 -0.60125,0 -0.715,-0.7475 -0.715,-1.44625 v -9.34375 h -1.2675 v 9.34375 c 0,1.08875 0.4225,2.19375 1.38125,2.19375 0.6175,0 1.2025,-0.30875 1.67375,-0.73125 z"
         id="path313" />
      <path
         d="m 313.85202,180.1399 v -0.4875 c -0.30875,0.26 -0.66625,0.47125 -1.0725,0.47125 -0.60125,0 -0.715,-0.7475 -0.715,-1.44625 v -5.28125 h -1.2675 v 5.28125 c 0,1.08875 0.4225,2.19375 1.38125,2.19375 0.6175,0 1.2025,-0.30875 1.67375,-0.73125 z m -1.625,-9.27875 c 0,-0.43875 -0.3575,-0.79625 -0.79625,-0.79625 -0.43875,0 -0.79625,0.3575 -0.79625,0.79625 0,0.43875 0.3575,0.79625 0.79625,0.79625 0.43875,0 0.79625,-0.3575 0.79625,-0.79625 z"
         id="path315" />
      <path
         d="m 320.41701,178.62865 c 0,-1.28375 -1.365,-1.95 -2.6975,-2.275 -0.78,-0.195 -1.625,-0.52 -1.625,-1.28375 0,-0.69875 0.715,-1.15375 1.495,-1.15375 0.86125,0 1.7225,0.26 2.4375,0.73125 v -0.6825 c -0.715,-0.47125 -1.57625,-0.73125 -2.4375,-0.73125 -1.41375,0 -2.71375,0.86125 -2.71375,2.1775 0,1.18625 1.31625,1.73875 2.5675,2.0475 0.86125,0.21125 1.755,0.66625 1.755,1.495 0,0.76375 -0.78,1.235 -1.60875,1.235 -1.0075,0 -1.9825,-0.24375 -2.84375,-0.73125 v 0.6825 c 0.86125,0.4875 1.83625,0.73125 2.84375,0.73125 1.4625,0 2.8275,-0.8775 2.8275,-2.2425 z"
         id="path317" />
      <path
         d="m 328.33074,177.2149 v -0.1625 c 0,-2.29125 -1.25125,-3.81875 -3.13625,-3.81875 -1.90125,0 -3.1525,1.5275 -3.1525,3.81875 0,2.29125 1.25125,3.81875 3.1525,3.81875 0.8125,0 1.60875,-0.26 2.275,-0.73125 v -0.6825 c -0.76375,0.4875 -1.38125,0.66625 -2.275,0.66625 -1.38125,0 -1.7225,-1.31625 -1.7225,-2.90875 z m -1.43,-0.6825 h -3.42875 c 0,-1.3 0.5525,-2.61625 1.7225,-2.61625 1.15375,0 1.70625,1.31625 1.70625,2.61625 z"
         id="path319" />
      <path
         d="m 335.70822,175.08615 v -0.6825 c -0.52,-0.73125 -1.365,-1.17 -2.275,-1.17 -2.03125,0 -3.39625,1.5275 -3.39625,3.81875 0,2.29125 1.365,3.81875 3.39625,3.81875 0.845,0 1.64125,-0.4225 2.1125,-1.12125 v -0.6825 c -0.5525,0.82875 -1.12125,1.12125 -2.1125,1.12125 -1.17,0 -1.96625,-1.25125 -1.96625,-3.13625 0,-1.885 0.79625,-3.13625 1.96625,-3.13625 1.0075,0 1.69,0.3575 2.275,1.17 z"
         id="path321" />
      <path
         d="m 343.29695,177.0524 c 0,-2.48625 -1.105,-3.81875 -3.13625,-3.81875 -2.0475,0 -3.1525,1.3325 -3.1525,3.81875 0,2.48625 1.105,3.81875 3.1525,3.81875 2.03125,0 3.13625,-1.3325 3.13625,-3.81875 z m -1.43,0 c 0,2.03125 -0.60125,3.13625 -1.70625,3.13625 -1.12125,0 -1.7225,-1.105 -1.7225,-3.13625 0,-2.03125 0.60125,-3.13625 1.7225,-3.13625 1.105,0 1.70625,1.105 1.70625,3.13625 z"
         id="path323" />
      <path
         d="m 351.3732,180.70865 v -5.28125 c 0,-1.18625 -0.91,-2.19375 -2.08,-2.19375 -0.975,0 -1.83625,0.5525 -2.535,1.235 v -1.0725 h -1.2675 v 7.3125 h 1.2675 v -5.73625 c 0.5525,-0.5525 1.235,-0.99125 1.99875,-0.99125 0.76375,0 1.34875,0.66625 1.34875,1.44625 v 5.28125 z"
         id="path325" />
      <path
         d="m 359.77442,180.70865 v -11.375 h -1.2675 v 4.33875 c -0.63375,-0.27625 -1.31625,-0.43875 -1.99875,-0.43875 -2.03125,0 -3.0225,1.625 -3.0225,3.81875 0,2.16125 0.8125,3.81875 2.77875,3.81875 0.82875,0 1.5925,-0.37375 2.2425,-0.89375 v 0.73125 z m -1.2675,-1.41375 c -0.4875,0.4875 -1.08875,0.89375 -1.7875,0.89375 -1.47875,0 -1.80375,-1.43 -1.80375,-3.13625 0,-1.5275 0.47125,-3.13625 1.80375,-3.13625 0.6175,0 1.235,0.1625 1.7875,0.43875 z"
         id="path327" />
      <path
         d="m 368.25691,177.2149 v -0.1625 c 0,-2.29125 -1.25125,-3.81875 -3.13625,-3.81875 -1.90125,0 -3.1525,1.5275 -3.1525,3.81875 0,2.29125 1.25125,3.81875 3.1525,3.81875 0.8125,0 1.60875,-0.26 2.275,-0.73125 v -0.6825 c -0.76375,0.4875 -1.38125,0.66625 -2.275,0.66625 -1.38125,0 -1.7225,-1.31625 -1.7225,-2.90875 z m -1.43,-0.6825 h -3.42875 c 0,-1.3 0.5525,-2.61625 1.7225,-2.61625 1.15375,0 1.70625,1.31625 1.70625,2.61625 z"
         id="path329" />
      <path
         d="m 375.30939,178.62865 c 0,-1.28375 -1.365,-1.95 -2.6975,-2.275 -0.78,-0.195 -1.625,-0.52 -1.625,-1.28375 0,-0.69875 0.715,-1.15375 1.495,-1.15375 0.86125,0 1.7225,0.26 2.4375,0.73125 v -0.6825 c -0.715,-0.47125 -1.57625,-0.73125 -2.4375,-0.73125 -1.41375,0 -2.71375,0.86125 -2.71375,2.1775 0,1.18625 1.31625,1.73875 2.5675,2.0475 0.86125,0.21125 1.755,0.66625 1.755,1.495 0,0.76375 -0.78,1.235 -1.60875,1.235 -1.0075,0 -1.9825,-0.24375 -2.84375,-0.73125 v 0.6825 c 0.86125,0.4875 1.83625,0.73125 2.84375,0.73125 1.4625,0 2.8275,-0.8775 2.8275,-2.2425 z"
         id="path331" />
      <path
         d="m 257.91971,193.3024 c 0,-2.29125 -1.38125,-3.81875 -3.445,-3.81875 -0.9425,0 -1.82,0.3575 -2.5025,0.95875 l 0.1625,-3.68875 h 5.46 v -1.0075 h -6.09375 l -0.24375,5.60625 0.6825,0.0325 c 0.6175,-0.76375 1.54375,-1.21875 2.535,-1.21875 1.2025,0 2.015,1.25125 2.015,3.13625 0,1.885 -0.8125,3.13625 -2.015,3.13625 -1.25125,0 -2.47,-0.40625 -3.46125,-1.17 v 0.6825 c 0.99125,0.76375 2.21,1.17 3.46125,1.17 2.06375,0 3.445,-1.5275 3.445,-3.81875 z"
         id="path333" />
      <path
         d="m 274.31592,196.95865 v -5.28125 c 0,-1.1375 -0.66625,-2.19375 -1.7225,-2.19375 -0.91,0 -1.755,0.47125 -2.2425,1.235 -0.26,-0.715 -0.8125,-1.235 -1.56,-1.235 -0.845,0 -1.5275,0.585 -2.08,1.235 v -1.0725 h -1.2675 v 7.3125 h 1.2675 v -5.7525 c 0.39,-0.50375 0.8775,-0.975 1.51125,-0.975 0.66625,0 1.02375,0.715 1.02375,1.44625 v 5.28125 h 1.2675 v -5.28125 c 0,-0.195 -0.0163,-0.37375 -0.0487,-0.56875 0.39,-0.50375 0.92625,-0.8775 1.56,-0.8775 0.66625,0 1.02375,0.715 1.02375,1.44625 v 5.28125 z"
         id="path335" />
      <path
         d="m 279.80839,196.3899 v -0.4875 c -0.30875,0.26 -0.66625,0.47125 -1.0725,0.47125 -0.60125,0 -0.715,-0.7475 -0.715,-1.44625 v -5.28125 h -1.2675 v 5.28125 c 0,1.08875 0.4225,2.19375 1.38125,2.19375 0.6175,0 1.2025,-0.30875 1.67375,-0.73125 z m -1.625,-9.27875 c 0,-0.43875 -0.3575,-0.79625 -0.79625,-0.79625 -0.43875,0 -0.79625,0.3575 -0.79625,0.79625 0,0.43875 0.3575,0.79625 0.79625,0.79625 0.43875,0 0.79625,-0.3575 0.79625,-0.79625 z"
         id="path337" />
      <path
         d="m 284.48838,196.3899 v -0.4875 c -0.30875,0.26 -0.66625,0.47125 -1.0725,0.47125 -0.60125,0 -0.715,-0.7475 -0.715,-1.44625 v -9.34375 h -1.2675 v 9.34375 c 0,1.08875 0.4225,2.19375 1.38125,2.19375 0.6175,0 1.2025,-0.30875 1.67375,-0.73125 z"
         id="path339" />
      <path
         d="m 289.16835,196.3899 v -0.4875 c -0.30875,0.26 -0.66625,0.47125 -1.0725,0.47125 -0.60125,0 -0.715,-0.7475 -0.715,-1.44625 v -9.34375 h -1.2675 v 9.34375 c 0,1.08875 0.4225,2.19375 1.38125,2.19375 0.6175,0 1.2025,-0.30875 1.67375,-0.73125 z"
         id="path341" />
      <path
         d="m 293.76707,196.3899 v -0.4875 c -0.30875,0.26 -0.66625,0.47125 -1.0725,0.47125 -0.60125,0 -0.715,-0.7475 -0.715,-1.44625 v -5.28125 h -1.2675 v 5.28125 c 0,1.08875 0.4225,2.19375 1.38125,2.19375 0.6175,0 1.2025,-0.30875 1.67375,-0.73125 z m -1.625,-9.27875 c 0,-0.43875 -0.3575,-0.79625 -0.79625,-0.79625 -0.43875,0 -0.79625,0.3575 -0.79625,0.79625 0,0.43875 0.3575,0.79625 0.79625,0.79625 0.43875,0 0.79625,-0.3575 0.79625,-0.79625 z"
         id="path343" />
      <path
         d="m 300.33205,194.87865 c 0,-1.28375 -1.365,-1.95 -2.6975,-2.275 -0.78,-0.195 -1.625,-0.52 -1.625,-1.28375 0,-0.69875 0.715,-1.15375 1.495,-1.15375 0.86125,0 1.7225,0.26 2.4375,0.73125 v -0.6825 c -0.715,-0.47125 -1.57625,-0.73125 -2.4375,-0.73125 -1.41375,0 -2.71375,0.86125 -2.71375,2.1775 0,1.18625 1.31625,1.73875 2.5675,2.0475 0.86125,0.21125 1.755,0.66625 1.755,1.495 0,0.76375 -0.78,1.235 -1.60875,1.235 -1.0075,0 -1.9825,-0.24375 -2.84375,-0.73125 v 0.6825 c 0.86125,0.4875 1.83625,0.73125 2.84375,0.73125 1.4625,0 2.8275,-0.8775 2.8275,-2.2425 z"
         id="path345" />
      <path
         d="m 308.24579,193.4649 v -0.1625 c 0,-2.29125 -1.25125,-3.81875 -3.13625,-3.81875 -1.90125,0 -3.1525,1.5275 -3.1525,3.81875 0,2.29125 1.25125,3.81875 3.1525,3.81875 0.8125,0 1.60875,-0.26 2.275,-0.73125 v -0.6825 c -0.76375,0.4875 -1.38125,0.66625 -2.275,0.66625 -1.38125,0 -1.7225,-1.31625 -1.7225,-2.90875 z m -1.43,-0.6825 h -3.42875 c 0,-1.3 0.5525,-2.61625 1.7225,-2.61625 1.15375,0 1.70625,1.31625 1.70625,2.61625 z"
         id="path347" />
      <path
         d="m 315.62327,191.33615 v -0.6825 c -0.52,-0.73125 -1.365,-1.17 -2.275,-1.17 -2.03125,0 -3.39625,1.5275 -3.39625,3.81875 0,2.29125 1.365,3.81875 3.39625,3.81875 0.845,0 1.64125,-0.4225 2.1125,-1.12125 v -0.6825 c -0.5525,0.82875 -1.12125,1.12125 -2.1125,1.12125 -1.17,0 -1.96625,-1.25125 -1.96625,-3.13625 0,-1.885 0.79625,-3.13625 1.96625,-3.13625 1.0075,0 1.69,0.3575 2.275,1.17 z"
         id="path349" />
      <path
         d="m 323.212,193.3024 c 0,-2.48625 -1.105,-3.81875 -3.13625,-3.81875 -2.0475,0 -3.1525,1.3325 -3.1525,3.81875 0,2.48625 1.105,3.81875 3.1525,3.81875 2.03125,0 3.13625,-1.3325 3.13625,-3.81875 z m -1.43,0 c 0,2.03125 -0.60125,3.13625 -1.70625,3.13625 -1.12125,0 -1.7225,-1.105 -1.7225,-3.13625 0,-2.03125 0.60125,-3.13625 1.7225,-3.13625 1.105,0 1.70625,1.105 1.70625,3.13625 z"
         id="path351" />
      <path
         d="m 331.28824,196.95865 v -5.28125 c 0,-1.18625 -0.91,-2.19375 -2.08,-2.19375 -0.975,0 -1.83625,0.5525 -2.535,1.235 v -1.0725 h -1.2675 v 7.3125 h 1.2675 v -5.73625 c 0.5525,-0.5525 1.235,-0.99125 1.99875,-0.99125 0.76375,0 1.34875,0.66625 1.34875,1.44625 v 5.28125 z"
         id="path353" />
      <path
         d="m 339.68947,196.95865 v -11.375 h -1.2675 v 4.33875 c -0.63375,-0.27625 -1.31625,-0.43875 -1.99875,-0.43875 -2.03125,0 -3.0225,1.625 -3.0225,3.81875 0,2.16125 0.8125,3.81875 2.77875,3.81875 0.82875,0 1.5925,-0.37375 2.2425,-0.89375 v 0.73125 z m -1.2675,-1.41375 c -0.4875,0.4875 -1.08875,0.89375 -1.7875,0.89375 -1.47875,0 -1.80375,-1.43 -1.80375,-3.13625 0,-1.5275 0.47125,-3.13625 1.80375,-3.13625 0.6175,0 1.235,0.1625 1.7875,0.43875 z"
         id="path355" />
      <path
         d="m 348.17195,193.4649 v -0.1625 c 0,-2.29125 -1.25125,-3.81875 -3.13625,-3.81875 -1.90125,0 -3.1525,1.5275 -3.1525,3.81875 0,2.29125 1.25125,3.81875 3.1525,3.81875 0.8125,0 1.60875,-0.26 2.275,-0.73125 v -0.6825 c -0.76375,0.4875 -1.38125,0.66625 -2.275,0.66625 -1.38125,0 -1.7225,-1.31625 -1.7225,-2.90875 z m -1.43,-0.6825 h -3.42875 c 0,-1.3 0.5525,-2.61625 1.7225,-2.61625 1.15375,0 1.70625,1.31625 1.70625,2.61625 z"
         id="path357" />
      <path
         d="m 355.22443,194.87865 c 0,-1.28375 -1.365,-1.95 -2.6975,-2.275 -0.78,-0.195 -1.625,-0.52 -1.625,-1.28375 0,-0.69875 0.715,-1.15375 1.495,-1.15375 0.86125,0 1.7225,0.26 2.4375,0.73125 v -0.6825 c -0.715,-0.47125 -1.57625,-0.73125 -2.4375,-0.73125 -1.41375,0 -2.71375,0.86125 -2.71375,2.1775 0,1.18625 1.31625,1.73875 2.5675,2.0475 0.86125,0.21125 1.755,0.66625 1.755,1.495 0,0.76375 -0.78,1.235 -1.60875,1.235 -1.0075,0 -1.9825,-0.24375 -2.84375,-0.73125 v 0.6825 c 0.86125,0.4875 1.83625,0.73125 2.84375,0.73125 1.4625,0 2.8275,-0.8775 2.8275,-2.2425 z"
         id="path359" />
      <path
         d="m 368.38689,196.95865 v -4.55 c 0,-1.5275 -0.9425,-2.925 -2.35625,-2.925 -1.04,0 -2.015,0.3575 -2.8925,0.91 v 0.50375 c 0.73125,-0.40625 1.54375,-0.66625 2.38875,-0.66625 1.0075,0 1.5925,1.0725 1.5925,2.1775 v 0.2925 c -0.63375,-0.27625 -1.31625,-0.43875 -1.99875,-0.43875 -1.73875,0 -3.0225,0.79625 -3.0225,2.4375 0,1.56 1.1375,2.42125 2.77875,2.42125 0.82875,0 1.5925,-0.37375 2.2425,-0.89375 v 0.73125 z m -1.2675,-1.41375 c -0.4875,0.4875 -1.08875,0.89375 -1.7875,0.89375 -1.08875,0 -1.80375,-0.66625 -1.80375,-1.73875 0,-0.99125 0.8125,-1.755 1.80375,-1.755 0.6175,0 1.235,0.1625 1.7875,0.43875 z m -0.91,-6.9225 c -0.63375,-0.8775 -0.975,-1.95 -0.975,-3.03875 h -1.4625 c 0,1.21875 0.89375,2.1775 1.755,3.03875 z"
         id="path361" />
      <path
         d="m 376.4631,189.38615 v -3.8025 h -0.7475 v 3.8025 z"
         id="path363" />
      <path
         d="m 382.44309,196.95865 v -11.2125 h -0.9425 c -0.89375,1.02375 -1.95,1.90125 -3.12,2.58375 v 0.6825 c 0.99125,-0.47125 1.9175,-1.02375 2.795,-1.69 v 9.63625 z"
         id="path365" />
      <path
         d="m 386.97684,189.38615 v -3.8025 h -0.7475 v 3.8025 z"
         id="path367" />
    </g>
    <g
       aria-label="-5"
       id="text1767"
       style="font-size:11.25px;line-height:0%;font-family:Iwona;-inkscape-font-specification:Iwona;text-align:center;letter-spacing:0px;word-spacing:0px;text-anchor:middle;fill:#ff6600;stroke-width:1px">
      <path
         d="m 118.14648,68.616127 v -0.5625 h -3.74625 v 0.5625 z"
         style="line-height:10"
         id="path370" />
      <path
         d="m 123.91771,68.334877 c 0,-1.58625 -0.95625,-2.64375 -2.385,-2.64375 -0.6525,0 -1.26,0.2475 -1.7325,0.66375 l 0.1125,-2.55375 h 3.78 v -0.6975 h -4.21875 l -0.16875,3.88125 0.4725,0.0225 c 0.4275,-0.52875 1.06875,-0.84375 1.755,-0.84375 0.8325,0 1.395,0.86625 1.395,2.17125 0,1.305 -0.5625,2.17125 -1.395,2.17125 -0.86625,0 -1.71,-0.28125 -2.39625,-0.81 v 0.4725 c 0.68625,0.52875 1.53,0.81 2.39625,0.81 1.42875,0 2.385,-1.0575 2.385,-2.64375 z"
         style="line-height:10"
         id="path372" />
    </g>
    <path
       style="fill:none;fill-rule:evenodd;stroke:#ff6600;stroke-width:0.9375px;stroke-linecap:butt;stroke-linejoin:miter;stroke-opacity:1;marker-end:url(#Arrow1Mend)"
       d="m 109.84252,77.952743 c 0,0 7.08662,-10.629922 17.71653,0"
       id="path1769" />
    <g
       aria-label="-5"
       id="text2303"
       style="font-size:11.25px;line-height:0%;font-family:Iwona;-inkscape-font-specification:Iwona;text-align:center;letter-spacing:0px;word-spacing:0px;text-anchor:middle;fill:#ff6600;stroke-width:1px">
      <path
         d="m 146.49293,68.616127 v -0.5625 h -3.74625 v 0.5625 z"
         style="line-height:10"
         id="path375" />
      <path
         d="m 152.26417,68.334877 c 0,-1.58625 -0.95625,-2.64375 -2.385,-2.64375 -0.6525,0 -1.26,0.2475 -1.7325,0.66375 l 0.1125,-2.55375 h 3.78 v -0.6975 h -4.21875 l -0.16875,3.88125 0.4725,0.0225 c 0.4275,-0.52875 1.06875,-0.84375 1.755,-0.84375 0.8325,0 1.395,0.86625 1.395,2.17125 0,1.305 -0.5625,2.17125 -1.395,2.17125 -0.86625,0 -1.71,-0.28125 -2.39625,-0.81 v 0.4725 c 0.68625,0.52875 1.53,0.81 2.39625,0.81 1.42875,0 2.385,-1.0575 2.385,-2.64375 z"
         style="line-height:10"
         id="path377" />
    </g>
    <path
       id="path2305"
       d="m 138.18898,77.952743 c 0,0 7.08662,-10.629922 17.71653,0"
       style="fill:none;fill-rule:evenodd;stroke:#ff6600;stroke-width:0.9375px;stroke-linecap:butt;stroke-linejoin:miter;stroke-opacity:1;marker-end:url(#marker2315)" />
    <g
       aria-label="-5"
       id="text2309"
       style="font-size:11.25px;line-height:0%;font-family:Iwona;-inkscape-font-specification:Iwona;text-align:center;letter-spacing:0px;word-spacing:0px;text-anchor:middle;fill:#ff6600;stroke-width:1px">
      <path
         d="m 174.8394,68.616127 v -0.5625 h -3.74625 v 0.5625 z"
         style="line-height:10"
         id="path380" />
      <path
         d="m 180.61063,68.334877 c 0,-1.58625 -0.95625,-2.64375 -2.385,-2.64375 -0.6525,0 -1.26,0.2475 -1.7325,0.66375 l 0.1125,-2.55375 h 3.78 v -0.6975 h -4.21875 l -0.16875,3.88125 0.4725,0.0225 c 0.4275,-0.52875 1.06875,-0.84375 1.755,-0.84375 0.8325,0 1.395,0.86625 1.395,2.17125 0,1.305 -0.5625,2.17125 -1.395,2.17125 -0.86625,0 -1.71,-0.28125 -2.39625,-0.81 v 0.4725 c 0.68625,0.52875 1.53,0.81 2.39625,0.81 1.42875,0 2.385,-1.0575 2.385,-2.64375 z"
         style="line-height:10"
         id="path382" />
    </g>
    <path
       style="fill:none;fill-rule:evenodd;stroke:#ff6600;stroke-width:0.9375px;stroke-linecap:butt;stroke-linejoin:miter;stroke-opacity:1;marker-end:url(#marker2509)"
       d="m 166.53543,77.952743 c 0,0 7.08662,-10.629922 17.71653,0"
       id="path2311" />
    <g
       aria-label="-5"
       id="text2403"
       style="font-size:11.25px;line-height:0%;font-family:Iwona;-inkscape-font-specification:Iwona;text-align:center;letter-spacing:0px;word-spacing:0px;text-anchor:middle;fill:#ff6600;stroke-width:1px">
      <path
         d="m 231.5323,68.616127 v -0.5625 h -3.74625 v 0.5625 z"
         style="line-height:10"
         id="path385" />
      <path
         d="m 237.30353,68.334877 c 0,-1.58625 -0.95625,-2.64375 -2.385,-2.64375 -0.6525,0 -1.26,0.2475 -1.7325,0.66375 l 0.1125,-2.55375 h 3.78 v -0.6975 h -4.21875 l -0.16875,3.88125 0.4725,0.0225 c 0.4275,-0.52875 1.06875,-0.84375 1.755,-0.84375 0.8325,0 1.395,0.86625 1.395,2.17125 0,1.305 -0.5625,2.17125 -1.395,2.17125 -0.86625,0 -1.71,-0.28125 -2.39625,-0.81 v 0.4725 c 0.68625,0.52875 1.53,0.81 2.39625,0.81 1.42875,0 2.385,-1.0575 2.385,-2.64375 z"
         style="line-height:10"
         id="path387" />
    </g>
    <path
       id="path2405"
       d="m 223.22835,77.952743 c 0,0 7.08662,-10.629922 17.71653,0"
       style="fill:none;fill-rule:evenodd;stroke:#ff6600;stroke-width:0.9375px;stroke-linecap:butt;stroke-linejoin:miter;stroke-opacity:1;marker-end:url(#Arrow1Mend)" />
    <g
       aria-label="-5"
       id="text2409"
       style="font-size:11.25px;line-height:0%;font-family:Iwona;-inkscape-font-specification:Iwona;text-align:center;letter-spacing:0px;word-spacing:0px;text-anchor:middle;fill:#ff6600;stroke-width:1px">
      <path
         d="m 259.87875,68.616127 v -0.5625 h -3.74625 v 0.5625 z"
         style="line-height:10"
         id="path390" />
      <path
         d="m 265.64998,68.334877 c 0,-1.58625 -0.95625,-2.64375 -2.385,-2.64375 -0.6525,0 -1.26,0.2475 -1.7325,0.66375 l 0.1125,-2.55375 h 3.78 v -0.6975 h -4.21875 l -0.16875,3.88125 0.4725,0.0225 c 0.4275,-0.52875 1.06875,-0.84375 1.755,-0.84375 0.8325,0 1.395,0.86625 1.395,2.17125 0,1.305 -0.5625,2.17125 -1.395,2.17125 -0.86625,0 -1.71,-0.28125 -2.39625,-0.81 v 0.4725 c 0.68625,0.52875 1.53,0.81 2.39625,0.81 1.42875,0 2.385,-1.0575 2.385,-2.64375 z"
         style="line-height:10"
         id="path392" />
    </g>
    <path
       style="fill:none;fill-rule:evenodd;stroke:#ff6600;stroke-width:0.9375px;stroke-linecap:butt;stroke-linejoin:miter;stroke-opacity:1;marker-end:url(#marker2315)"
       d="m 251.57481,77.952743 c 0,0 7.08662,-10.629922 17.71653,0"
       id="path2411" />
    <g
       aria-label="-5"
       id="text2415"
       style="font-size:11.25px;line-height:0%;font-family:Iwona;-inkscape-font-specification:Iwona;text-align:center;letter-spacing:0px;word-spacing:0px;text-anchor:middle;fill:#ff6600;stroke-width:1px">
      <path
         d="m 316.57168,68.616127 v -0.5625 h -3.74625 v 0.5625 z"
         style="line-height:10"
         id="path395" />
      <path
         d="m 322.34292,68.334877 c 0,-1.58625 -0.95625,-2.64375 -2.385,-2.64375 -0.6525,0 -1.26,0.2475 -1.7325,0.66375 l 0.1125,-2.55375 h 3.78 v -0.6975 h -4.21875 l -0.16875,3.88125 0.4725,0.0225 c 0.4275,-0.52875 1.06875,-0.84375 1.755,-0.84375 0.8325,0 1.395,0.86625 1.395,2.17125 0,1.305 -0.5625,2.17125 -1.395,2.17125 -0.86625,0 -1.71,-0.28125 -2.39625,-0.81 v 0.4725 c 0.68625,0.52875 1.53,0.81 2.39625,0.81 1.42875,0 2.385,-1.0575 2.385,-2.64375 z"
         style="line-height:10"
         id="path397" />
    </g>
    <path
       style="fill:none;fill-rule:evenodd;stroke:#ff6600;stroke-width:0.9375px;stroke-linecap:butt;stroke-linejoin:miter;stroke-opacity:1;marker-end:url(#Arrow1Mend)"
       d="m 308.26772,77.952743 c 0,0 7.08662,-10.629922 17.71653,0"
       id="path2417" />
    <g
       aria-label="-5"
       id="text2421"
       style="font-size:11.25px;line-height:0%;font-family:Iwona;-inkscape-font-specification:Iwona;text-align:center;letter-spacing:0px;word-spacing:0px;text-anchor:middle;fill:#ff6600;stroke-width:1px">
      <path
         d="m 344.91812,68.616127 v -0.5625 h -3.74625 v 0.5625 z"
         style="line-height:10"
         id="path400" />
      <path
         d="m 350.68935,68.334877 c 0,-1.58625 -0.95625,-2.64375 -2.385,-2.64375 -0.6525,0 -1.26,0.2475 -1.7325,0.66375 l 0.1125,-2.55375 h 3.78 v -0.6975 h -4.21875 l -0.16875,3.88125 0.4725,0.0225 c 0.4275,-0.52875 1.06875,-0.84375 1.755,-0.84375 0.8325,0 1.395,0.86625 1.395,2.17125 0,1.305 -0.5625,2.17125 -1.395,2.17125 -0.86625,0 -1.71,-0.28125 -2.39625,-0.81 v 0.4725 c 0.68625,0.52875 1.53,0.81 2.39625,0.81 1.42875,0 2.385,-1.0575 2.385,-2.64375 z"
         style="line-height:10"
         id="path402" />
    </g>
    <path
       id="path2423"
       d="m 336.61418,77.952743 c 0,0 7.08662,-10.629922 17.71653,0"
       style="fill:none;fill-rule:evenodd;stroke:#ff6600;stroke-width:0.9375px;stroke-linecap:butt;stroke-linejoin:miter;stroke-opacity:1;marker-end:url(#marker2315)" />
    <g
       aria-label="-5"
       id="text2427"
       style="font-size:11.25px;line-height:0%;font-family:Iwona;-inkscape-font-specification:Iwona;text-align:center;letter-spacing:0px;word-spacing:0px;text-anchor:middle;fill:#ff6600;stroke-width:1px">
      <path
         d="m 401.61105,68.616127 v -0.5625 h -3.74625 v 0.5625 z"
         style="line-height:10"
         id="path405" />
      <path
         d="m 407.38228,68.334877 c 0,-1.58625 -0.95625,-2.64375 -2.385,-2.64375 -0.6525,0 -1.26,0.2475 -1.7325,0.66375 l 0.1125,-2.55375 h 3.78 v -0.6975 h -4.21875 l -0.16875,3.88125 0.4725,0.0225 c 0.4275,-0.52875 1.06875,-0.84375 1.755,-0.84375 0.8325,0 1.395,0.86625 1.395,2.17125 0,1.305 -0.5625,2.17125 -1.395,2.17125 -0.86625,0 -1.71,-0.28125 -2.39625,-0.81 v 0.4725 c 0.68625,0.52875 1.53,0.81 2.39625,0.81 1.42875,0 2.385,-1.0575 2.385,-2.64375 z"
         style="line-height:10"
         id="path407" />
    </g>
    <path
       id="path2429"
       d="m 393.30709,77.952743 c 0,0 7.08662,-10.629922 17.71653,0"
       style="fill:none;fill-rule:evenodd;stroke:#ff6600;stroke-width:0.9375px;stroke-linecap:butt;stroke-linejoin:miter;stroke-opacity:1;marker-end:url(#Arrow1Mend)" />
    <g
       aria-label="-5"
       id="text2433"
       style="font-size:11.25px;line-height:0%;font-family:Iwona;-inkscape-font-specification:Iwona;text-align:center;letter-spacing:0px;word-spacing:0px;text-anchor:middle;fill:#ff6600;stroke-width:1px">
      <path
         d="m 429.95749,68.616127 v -0.5625 h -3.74625 v 0.5625 z"
         style="line-height:10"
         id="path410" />
      <path
         d="m 435.72872,68.334877 c 0,-1.58625 -0.95625,-2.64375 -2.385,-2.64375 -0.6525,0 -1.26,0.2475 -1.7325,0.66375 l 0.1125,-2.55375 h 3.78 v -0.6975 h -4.21875 l -0.16875,3.88125 0.4725,0.0225 c 0.4275,-0.52875 1.06875,-0.84375 1.755,-0.84375 0.8325,0 1.395,0.86625 1.395,2.17125 0,1.305 -0.5625,2.17125 -1.395,2.17125 -0.86625,0 -1.71,-0.28125 -2.39625,-0.81 v 0.4725 c 0.68625,0.52875 1.53,0.81 2.39625,0.81 1.42875,0 2.385,-1.0575 2.385,-2.64375 z"
         style="line-height:10"
         id="path412" />
    </g>
    <path
       style="fill:none;fill-rule:evenodd;stroke:#ff6600;stroke-width:0.9375px;stroke-linecap:butt;stroke-linejoin:miter;stroke-opacity:1;marker-end:url(#marker2315)"
       d="m 421.65355,77.952743 c 0,0 7.08662,-10.629922 17.71653,0"
       id="path2435" />
    <g
       aria-label="-5"
       id="text2439"
       style="font-size:11.25px;line-height:0%;font-family:Iwona;-inkscape-font-specification:Iwona;text-align:center;letter-spacing:0px;word-spacing:0px;text-anchor:middle;fill:#ff6600;stroke-width:1px">
      <path
         d="m 486.65042,68.616127 v -0.5625 h -3.74625 v 0.5625 z"
         style="line-height:10"
         id="path415" />
      <path
         d="m 492.42165,68.334877 c 0,-1.58625 -0.95625,-2.64375 -2.385,-2.64375 -0.6525,0 -1.26,0.2475 -1.7325,0.66375 l 0.1125,-2.55375 h 3.78 v -0.6975 h -4.21875 l -0.16875,3.88125 0.4725,0.0225 c 0.4275,-0.52875 1.06875,-0.84375 1.755,-0.84375 0.8325,0 1.395,0.86625 1.395,2.17125 0,1.305 -0.5625,2.17125 -1.395,2.17125 -0.86625,0 -1.71,-0.28125 -2.39625,-0.81 v 0.4725 c 0.68625,0.52875 1.53,0.81 2.39625,0.81 1.42875,0 2.385,-1.0575 2.385,-2.64375 z"
         style="line-height:10"
         id="path417" />
    </g>
    <path
       style="fill:none;fill-rule:evenodd;stroke:#ff6600;stroke-width:0.9375px;stroke-linecap:butt;stroke-linejoin:miter;stroke-opacity:1;marker-end:url(#Arrow1Mend)"
       d="m 478.34646,77.952743 c 0,0 7.08662,-10.629922 17.71653,0"
       id="path2441" />
    <g
       aria-label="-5"
       id="text2445"
       style="font-size:11.25px;line-height:0%;font-family:Iwona;-inkscape-font-specification:Iwona;text-align:center;letter-spacing:0px;word-spacing:0px;text-anchor:middle;fill:#ff6600;stroke-width:1px">
      <path
         d="m 514.99685,68.616127 v -0.5625 h -3.74625 v 0.5625 z"
         style="line-height:10"
         id="path420" />
      <path
         d="m 520.76809,68.334877 c 0,-1.58625 -0.95625,-2.64375 -2.385,-2.64375 -0.6525,0 -1.26,0.2475 -1.7325,0.66375 l 0.1125,-2.55375 h 3.78 v -0.6975 h -4.21875 l -0.16875,3.88125 0.4725,0.0225 c 0.4275,-0.52875 1.06875,-0.84375 1.755,-0.84375 0.8325,0 1.395,0.86625 1.395,2.17125 0,1.305 -0.5625,2.17125 -1.395,2.17125 -0.86625,0 -1.71,-0.28125 -2.39625,-0.81 v 0.4725 c 0.68625,0.52875 1.53,0.81 2.39625,0.81 1.42875,0 2.385,-1.0575 2.385,-2.64375 z"
         style="line-height:10"
         id="path422" />
    </g>
    <path
       id="path2447"
       d="m 506.69292,77.952743 c 0,0 7.08662,-10.629922 17.71653,0"
       style="fill:none;fill-rule:evenodd;stroke:#ff6600;stroke-width:0.9375px;stroke-linecap:butt;stroke-linejoin:miter;stroke-opacity:1;marker-end:url(#marker2315)" />
    <g
       aria-label="-5"
       id="text2451"
       style="font-size:11.25px;line-height:0%;font-family:Iwona;-inkscape-font-specification:Iwona;text-align:center;letter-spacing:0px;word-spacing:0px;text-anchor:middle;fill:#ff6600;stroke-width:1px">
      <path
         d="m 571.68979,68.616127 v -0.5625 h -3.74625 v 0.5625 z"
         style="line-height:10"
         id="path425" />
      <path
         d="m 577.46102,68.334877 c 0,-1.58625 -0.95625,-2.64375 -2.385,-2.64375 -0.6525,0 -1.26,0.2475 -1.7325,0.66375 l 0.1125,-2.55375 h 3.78 v -0.6975 h -4.21875 l -0.16875,3.88125 0.4725,0.0225 c 0.4275,-0.52875 1.06875,-0.84375 1.755,-0.84375 0.8325,0 1.395,0.86625 1.395,2.17125 0,1.305 -0.5625,2.17125 -1.395,2.17125 -0.86625,0 -1.71,-0.28125 -2.39625,-0.81 v 0.4725 c 0.68625,0.52875 1.53,0.81 2.39625,0.81 1.42875,0 2.385,-1.0575 2.385,-2.64375 z"
         style="line-height:10"
         id="path427" />
    </g>
    <path
       id="path2453"
       d="m 563.38583,77.952743 c 0,0 7.08662,-10.629922 17.71653,0"
       style="fill:none;fill-rule:evenodd;stroke:#ff6600;stroke-width:0.9375px;stroke-linecap:butt;stroke-linejoin:miter;stroke-opacity:1;marker-end:url(#Arrow1Mend)" />
    <g
       aria-label="-5"
       id="text2457"
       style="font-size:11.25px;line-height:0%;font-family:Iwona;-inkscape-font-specification:Iwona;text-align:center;letter-spacing:0px;word-spacing:0px;text-anchor:middle;fill:#ff6600;stroke-width:1px">
      <path
         d="m 600.03622,68.616127 v -0.5625 h -3.74625 v 0.5625 z"
         style="line-height:10"
         id="path430" />
      <path
         d="m 605.80745,68.334877 c 0,-1.58625 -0.95625,-2.64375 -2.385,-2.64375 -0.6525,0 -1.26,0.2475 -1.7325,0.66375 l 0.1125,-2.55375 h 3.78 v -0.6975 h -4.21875 l -0.16875,3.88125 0.4725,0.0225 c 0.4275,-0.52875 1.06875,-0.84375 1.755,-0.84375 0.8325,0 1.395,0.86625 1.395,2.17125 0,1.305 -0.5625,2.17125 -1.395,2.17125 -0.86625,0 -1.71,-0.28125 -2.39625,-0.81 v 0.4725 c 0.68625,0.52875 1.53,0.81 2.39625,0.81 1.42875,0 2.385,-1.0575 2.385,-2.64375 z"
         style="line-height:10"
         id="path432" />
    </g>
    <path
       style="fill:none;fill-rule:evenodd;stroke:#ff6600;stroke-width:0.9375px;stroke-linecap:butt;stroke-linejoin:miter;stroke-opacity:1;marker-end:url(#marker2463)"
       d="m 591.73229,77.952743 c 0,0 7.08662,-10.629922 17.71653,0"
       id="path2459" />
    <g
       aria-label="-5"
       id="text2503"
       style="font-size:11.25px;line-height:0%;font-family:Iwona;-inkscape-font-specification:Iwona;text-align:center;letter-spacing:0px;word-spacing:0px;text-anchor:middle;fill:#ff6600;stroke-width:1px">
      <path
         d="m 628.38266,68.616127 v -0.5625 h -3.74625 v 0.5625 z"
         style="line-height:10"
         id="path435" />
      <path
         d="m 634.15389,68.334877 c 0,-1.58625 -0.95625,-2.64375 -2.385,-2.64375 -0.6525,0 -1.26,0.2475 -1.7325,0.66375 l 0.1125,-2.55375 h 3.78 v -0.6975 h -4.21875 l -0.16875,3.88125 0.4725,0.0225 c 0.4275,-0.52875 1.06875,-0.84375 1.755,-0.84375 0.8325,0 1.395,0.86625 1.395,2.17125 0,1.305 -0.5625,2.17125 -1.395,2.17125 -0.86625,0 -1.71,-0.28125 -2.39625,-0.81 v 0.4725 c 0.68625,0.52875 1.53,0.81 2.39625,0.81 1.42875,0 2.385,-1.0575 2.385,-2.64375 z"
         style="line-height:10"
         id="path437" />
    </g>
    <path
       id="path2505"
       d="m 620.07874,77.952743 c 0,0 7.08662,-10.629922 17.71653,0"
       style="fill:none;fill-rule:evenodd;stroke:#ff6600;stroke-width:0.9375px;stroke-linecap:butt;stroke-linejoin:miter;stroke-opacity:1;marker-end:url(#marker2463)" />
    <path
       id="path2553"
       d="m 194.88189,77.952743 c 0,0 7.08662,-10.629922 17.71653,0"
       style="fill:none;fill-rule:evenodd;stroke:#6600ff;stroke-width:0.9375px;stroke-linecap:butt;stroke-linejoin:miter;stroke-opacity:1;marker-end:url(#marker2557)" />
    <g
       aria-label="+16-5"
       id="text2891"
       style="font-size:11.25px;line-height:0%;font-family:Iwona;-inkscape-font-specification:Iwona;text-align:center;letter-spacing:0px;word-spacing:0px;text-anchor:middle;fill:#6600ff;stroke-width:1px">
      <path
         d="m 196.63835,68.334877 v -0.5625 h -3.25125 v -3.25125 h -0.5625 v 3.25125 h -3.25125 v 0.5625 h 3.25125 v 3.25125 h 0.5625 v -3.25125 z"
         style="line-height:10"
         id="path440" />
      <path
         d="m 201.1946,70.866127 v -7.7625 h -0.6525 c -0.61875,0.70875 -1.35,1.31625 -2.16,1.78875 v 0.4725 c 0.68625,-0.32625 1.3275,-0.70875 1.935,-1.17 v 6.67125 z"
         style="line-height:10"
         id="path442" />
      <path
         d="m 208.7321,68.334877 c 0,-1.62 -0.64125,-2.64375 -2.14875,-2.64375 -0.6525,0 -1.26,0.30375 -1.6425,0.82125 0,-1.47375 0.37125,-3.04875 1.6425,-3.04875 0.57375,0 1.13625,0.19125 1.58625,0.55125 v -0.4725 c -0.45,-0.36 -1.0125,-0.55125 -1.58625,-0.55125 -1.76625,0 -2.6325,2.0025 -2.6325,3.99375 0,2.79 0.72,3.99375 2.39625,3.99375 1.42875,0 2.385,-1.0575 2.385,-2.64375 z m -0.99,0 c 0,1.305 -0.5625,2.17125 -1.395,2.17125 -1.575,0 -1.40625,-1.69875 -1.40625,-3.52125 0.3825,-0.5175 0.99,-0.82125 1.6425,-0.82125 0.9,0 1.15875,1.125 1.15875,2.17125 z"
         style="line-height:10"
         id="path444" />
      <path
         d="m 213.46835,68.616127 v -0.5625 h -3.74625 v 0.5625 z"
         style="line-height:10"
         id="path446" />
      <path
         d="m 219.23958,68.334877 c 0,-1.58625 -0.95625,-2.64375 -2.385,-2.64375 -0.6525,0 -1.26,0.2475 -1.7325,0.66375 l 0.1125,-2.55375 h 3.78 v -0.6975 h -4.21875 l -0.16875,3.88125 0.4725,0.0225 c 0.4275,-0.52875 1.06875,-0.84375 1.755,-0.84375 0.8325,0 1.395,0.86625 1.395,2.17125 0,1.305 -0.5625,2.17125 -1.395,2.17125 -0.86625,0 -1.71,-0.28125 -2.39625,-0.81 v 0.4725 c 0.68625,0.52875 1.53,0.81 2.39625,0.81 1.42875,0 2.385,-1.0575 2.385,-2.64375 z"
         style="line-height:10"
         id="path448" />
    </g>
    <path
       style="fill:none;fill-rule:evenodd;stroke:#6600ff;stroke-width:0.9375px;stroke-linecap:butt;stroke-linejoin:miter;stroke-opacity:1;marker-end:url(#marker2943)"
       d="m 279.92126,77.952743 c 0,0 7.08662,-10.629922 17.71653,0"
       id="path2935" />
    <g
       aria-label="+16-5"
       id="text2939"
       style="font-size:11.25px;line-height:0%;font-family:Iwona;-inkscape-font-specification:Iwona;text-align:center;letter-spacing:0px;word-spacing:0px;text-anchor:middle;fill:#6600ff;stroke-width:1px">
      <path
         d="m 281.67772,68.334877 v -0.5625 h -3.25125 v -3.25125 h -0.5625 v 3.25125 h -3.25125 v 0.5625 h 3.25125 v 3.25125 h 0.5625 v -3.25125 z"
         style="line-height:10"
         id="path451" />
      <path
         d="m 286.23397,70.866127 v -7.7625 h -0.6525 c -0.61875,0.70875 -1.35,1.31625 -2.16,1.78875 v 0.4725 c 0.68625,-0.32625 1.3275,-0.70875 1.935,-1.17 v 6.67125 z"
         style="line-height:10"
         id="path453" />
      <path
         d="m 293.77147,68.334877 c 0,-1.62 -0.64125,-2.64375 -2.14875,-2.64375 -0.6525,0 -1.26,0.30375 -1.6425,0.82125 0,-1.47375 0.37125,-3.04875 1.6425,-3.04875 0.57375,0 1.13625,0.19125 1.58625,0.55125 v -0.4725 c -0.45,-0.36 -1.0125,-0.55125 -1.58625,-0.55125 -1.76625,0 -2.6325,2.0025 -2.6325,3.99375 0,2.79 0.72,3.99375 2.39625,3.99375 1.42875,0 2.385,-1.0575 2.385,-2.64375 z m -0.99,0 c 0,1.305 -0.5625,2.17125 -1.395,2.17125 -1.575,0 -1.40625,-1.69875 -1.40625,-3.52125 0.3825,-0.5175 0.99,-0.82125 1.6425,-0.82125 0.9,0 1.15875,1.125 1.15875,2.17125 z"
         style="line-height:10"
         id="path455" />
      <path
         d="m 298.50771,68.616127 v -0.5625 h -3.74625 v 0.5625 z"
         style="line-height:10"
         id="path457" />
      <path
         d="m 304.27895,68.334877 c 0,-1.58625 -0.95625,-2.64375 -2.385,-2.64375 -0.6525,0 -1.26,0.2475 -1.7325,0.66375 l 0.1125,-2.55375 h 3.78 v -0.6975 h -4.21875 l -0.16875,3.88125 0.4725,0.0225 c 0.4275,-0.52875 1.06875,-0.84375 1.755,-0.84375 0.8325,0 1.395,0.86625 1.395,2.17125 0,1.305 -0.5625,2.17125 -1.395,2.17125 -0.86625,0 -1.71,-0.28125 -2.39625,-0.81 v 0.4725 c 0.68625,0.52875 1.53,0.81 2.39625,0.81 1.42875,0 2.385,-1.0575 2.385,-2.64375 z"
         style="line-height:10"
         id="path459" />
    </g>
    <path
       id="path3383"
       d="m 364.96063,77.952743 c 0,0 7.08662,-10.629922 17.71653,0"
       style="fill:none;fill-rule:evenodd;stroke:#6600ff;stroke-width:0.9375px;stroke-linecap:butt;stroke-linejoin:miter;stroke-opacity:1;marker-end:url(#marker3391)" />
    <g
       aria-label="+16-5"
       id="text3387"
       style="font-size:11.25px;line-height:0%;font-family:Iwona;-inkscape-font-specification:Iwona;text-align:center;letter-spacing:0px;word-spacing:0px;text-anchor:middle;fill:#6600ff;stroke-width:1px">
      <path
         d="m 366.71709,68.334877 v -0.5625 h -3.25125 v -3.25125 h -0.5625 v 3.25125 h -3.25125 v 0.5625 h 3.25125 v 3.25125 h 0.5625 v -3.25125 z"
         style="line-height:10"
         id="path462" />
      <path
         d="m 371.27334,70.866127 v -7.7625 h -0.6525 c -0.61875,0.70875 -1.35,1.31625 -2.16,1.78875 v 0.4725 c 0.68625,-0.32625 1.3275,-0.70875 1.935,-1.17 v 6.67125 z"
         style="line-height:10"
         id="path464" />
      <path
         d="m 378.81083,68.334877 c 0,-1.62 -0.64125,-2.64375 -2.14875,-2.64375 -0.6525,0 -1.26,0.30375 -1.6425,0.82125 0,-1.47375 0.37125,-3.04875 1.6425,-3.04875 0.57375,0 1.13625,0.19125 1.58625,0.55125 v -0.4725 c -0.45,-0.36 -1.0125,-0.55125 -1.58625,-0.55125 -1.76625,0 -2.6325,2.0025 -2.6325,3.99375 0,2.79 0.72,3.99375 2.39625,3.99375 1.42875,0 2.385,-1.0575 2.385,-2.64375 z m -0.99,0 c 0,1.305 -0.5625,2.17125 -1.395,2.17125 -1.575,0 -1.40625,-1.69875 -1.40625,-3.52125 0.3825,-0.5175 0.99,-0.82125 1.6425,-0.82125 0.9,0 1.15875,1.125 1.15875,2.17125 z"
         style="line-height:10"
         id="path466" />
      <path
         d="m 383.54708,68.616127 v -0.5625 h -3.74625 v 0.5625 z"
         style="line-height:10"
         id="path468" />
      <path
         d="m 389.31831,68.334877 c 0,-1.58625 -0.95625,-2.64375 -2.385,-2.64375 -0.6525,0 -1.26,0.2475 -1.7325,0.66375 l 0.1125,-2.55375 h 3.78 v -0.6975 h -4.21875 l -0.16875,3.88125 0.4725,0.0225 c 0.4275,-0.52875 1.06875,-0.84375 1.755,-0.84375 0.8325,0 1.395,0.86625 1.395,2.17125 0,1.305 -0.5625,2.17125 -1.395,2.17125 -0.86625,0 -1.71,-0.28125 -2.39625,-0.81 v 0.4725 c 0.68625,0.52875 1.53,0.81 2.39625,0.81 1.42875,0 2.385,-1.0575 2.385,-2.64375 z"
         style="line-height:10"
         id="path470" />
    </g>
    <path
       style="fill:none;fill-rule:evenodd;stroke:#6600ff;stroke-width:0.9375px;stroke-linecap:butt;stroke-linejoin:miter;stroke-opacity:1;marker-end:url(#marker3869)"
       d="m 450,77.952743 c 0,0 7.08662,-10.629922 17.71653,0"
       id="path3861" />
    <g
       aria-label="+16-5"
       id="text3865"
       style="font-size:11.25px;line-height:0%;font-family:Iwona;-inkscape-font-specification:Iwona;text-align:center;letter-spacing:0px;word-spacing:0px;text-anchor:middle;fill:#6600ff;stroke-width:1px">
      <path
         d="m 451.75646,68.334877 v -0.5625 h -3.25125 v -3.25125 h -0.5625 v 3.25125 h -3.25125 v 0.5625 h 3.25125 v 3.25125 h 0.5625 v -3.25125 z"
         style="line-height:10"
         id="path473" />
      <path
         d="m 456.31271,70.866127 v -7.7625 h -0.6525 c -0.61875,0.70875 -1.35,1.31625 -2.16,1.78875 v 0.4725 c 0.68625,-0.32625 1.3275,-0.70875 1.935,-1.17 v 6.67125 z"
         style="line-height:10"
         id="path475" />
      <path
         d="m 463.8502,68.334877 c 0,-1.62 -0.64125,-2.64375 -2.14875,-2.64375 -0.6525,0 -1.26,0.30375 -1.6425,0.82125 0,-1.47375 0.37125,-3.04875 1.6425,-3.04875 0.57375,0 1.13625,0.19125 1.58625,0.55125 v -0.4725 c -0.45,-0.36 -1.0125,-0.55125 -1.58625,-0.55125 -1.76625,0 -2.6325,2.0025 -2.6325,3.99375 0,2.79 0.72,3.99375 2.39625,3.99375 1.42875,0 2.385,-1.0575 2.385,-2.64375 z m -0.99,0 c 0,1.305 -0.5625,2.17125 -1.395,2.17125 -1.575,0 -1.40625,-1.69875 -1.40625,-3.52125 0.3825,-0.5175 0.99,-0.82125 1.6425,-0.82125 0.9,0 1.15875,1.125 1.15875,2.17125 z"
         style="line-height:10"
         id="path477" />
      <path
         d="m 468.58645,68.616127 v -0.5625 h -3.74625 v 0.5625 z"
         style="line-height:10"
         id="path479" />
      <path
         d="m 474.35768,68.334877 c 0,-1.58625 -0.95625,-2.64375 -2.385,-2.64375 -0.6525,0 -1.26,0.2475 -1.7325,0.66375 l 0.1125,-2.55375 h 3.78 v -0.6975 h -4.21875 l -0.16875,3.88125 0.4725,0.0225 c 0.4275,-0.52875 1.06875,-0.84375 1.755,-0.84375 0.8325,0 1.395,0.86625 1.395,2.17125 0,1.305 -0.5625,2.17125 -1.395,2.17125 -0.86625,0 -1.71,-0.28125 -2.39625,-0.81 v 0.4725 c 0.68625,0.52875 1.53,0.81 2.39625,0.81 1.42875,0 2.385,-1.0575 2.385,-2.64375 z"
         style="line-height:10"
         id="path481" />
    </g>
    <path
       id="path4321"
       d="m 535.03937,77.952743 c 0,0 7.08662,-10.629922 17.71653,0"
       style="fill:none;fill-rule:evenodd;stroke:#6600ff;stroke-width:0.9375px;stroke-linecap:butt;stroke-linejoin:miter;stroke-opacity:1;marker-end:url(#marker4329)" />
    <g
       aria-label="+16-5"
       id="text4325"
       style="font-size:11.25px;line-height:0%;font-family:Iwona;-inkscape-font-specification:Iwona;text-align:center;letter-spacing:0px;word-spacing:0px;text-anchor:middle;fill:#6600ff;stroke-width:1px">
      <path
         d="m 536.79586,68.334877 v -0.5625 h -3.25125 v -3.25125 h -0.5625 v 3.25125 h -3.25125 v 0.5625 h 3.25125 v 3.25125 h 0.5625 v -3.25125 z"
         style="line-height:10"
         id="path484" />
      <path
         d="m 541.3521,70.866127 v -7.7625 h -0.6525 c -0.61875,0.70875 -1.35,1.31625 -2.16,1.78875 v 0.4725 c 0.68625,-0.32625 1.3275,-0.70875 1.935,-1.17 v 6.67125 z"
         style="line-height:10"
         id="path486" />
      <path
         d="m 548.8896,68.334877 c 0,-1.62 -0.64125,-2.64375 -2.14875,-2.64375 -0.6525,0 -1.26,0.30375 -1.6425,0.82125 0,-1.47375 0.37125,-3.04875 1.6425,-3.04875 0.57375,0 1.13625,0.19125 1.58625,0.55125 v -0.4725 c -0.45,-0.36 -1.0125,-0.55125 -1.58625,-0.55125 -1.76625,0 -2.6325,2.0025 -2.6325,3.99375 0,2.79 0.72,3.99375 2.39625,3.99375 1.42875,0 2.385,-1.0575 2.385,-2.64375 z m -0.99,0 c 0,1.305 -0.5625,2.17125 -1.395,2.17125 -1.575,0 -1.40625,-1.69875 -1.40625,-3.52125 0.3825,-0.5175 0.99,-0.82125 1.6425,-0.82125 0.9,0 1.15875,1.125 1.15875,2.17125 z"
         style="line-height:10"
         id="path488" />
      <path
         d="m 553.62585,68.616127 v -0.5625 h -3.74625 v 0.5625 z"
         style="line-height:10"
         id="path490" />
      <path
         d="m 559.39708,68.334877 c 0,-1.58625 -0.95625,-2.64375 -2.385,-2.64375 -0.6525,0 -1.26,0.2475 -1.7325,0.66375 l 0.1125,-2.55375 h 3.78 v -0.6975 h -4.21875 l -0.16875,3.88125 0.4725,0.0225 c 0.4275,-0.52875 1.06875,-0.84375 1.755,-0.84375 0.8325,0 1.395,0.86625 1.395,2.17125 0,1.305 -0.5625,2.17125 -1.395,2.17125 -0.86625,0 -1.71,-0.28125 -2.39625,-0.81 v 0.4725 c 0.68625,0.52875 1.53,0.81 2.39625,0.81 1.42875,0 2.385,-1.0575 2.385,-2.64375 z"
         style="line-height:10"
         id="path492" />
    </g>
    <path
       style="fill:none;fill-rule:evenodd;stroke:#6600ff;stroke-width:0.9375px;stroke-linecap:butt;stroke-linejoin:miter;stroke-opacity:1;marker-end:url(#marker4693)"
       d="m 648.4252,77.952743 c 0,0 7.08662,-10.629922 17.71653,0"
       id="path4685" />
    <g
       aria-label="+16-5"
       id="text4689"
       style="font-size:11.25px;line-height:0%;font-family:Iwona;-inkscape-font-specification:Iwona;text-align:center;letter-spacing:0px;word-spacing:0px;text-anchor:middle;fill:#6600ff;stroke-width:1px">
      <path
         d="m 650.18166,68.334877 v -0.5625 h -3.25125 v -3.25125 h -0.5625 v 3.25125 h -3.25125 v 0.5625 h 3.25125 v 3.25125 h 0.5625 v -3.25125 z"
         style="line-height:10"
         id="path495" />
      <path
         d="m 654.73791,70.866127 v -7.7625 h -0.6525 c -0.61875,0.70875 -1.35,1.31625 -2.16,1.78875 v 0.4725 c 0.68625,-0.32625 1.3275,-0.70875 1.935,-1.17 v 6.67125 z"
         style="line-height:10"
         id="path497" />
      <path
         d="m 662.2754,68.334877 c 0,-1.62 -0.64125,-2.64375 -2.14875,-2.64375 -0.6525,0 -1.26,0.30375 -1.6425,0.82125 0,-1.47375 0.37125,-3.04875 1.6425,-3.04875 0.57375,0 1.13625,0.19125 1.58625,0.55125 v -0.4725 c -0.45,-0.36 -1.0125,-0.55125 -1.58625,-0.55125 -1.76625,0 -2.6325,2.0025 -2.6325,3.99375 0,2.79 0.72,3.99375 2.39625,3.99375 1.42875,0 2.385,-1.0575 2.385,-2.64375 z m -0.99,0 c 0,1.305 -0.5625,2.17125 -1.395,2.17125 -1.575,0 -1.40625,-1.69875 -1.40625,-3.52125 0.3825,-0.5175 0.99,-0.82125 1.6425,-0.82125 0.9,0 1.15875,1.125 1.15875,2.17125 z"
         style="line-height:10"
         id="path499" />
      <path
         d="m 667.01165,68.616127 v -0.5625 h -3.74625 v 0.5625 z"
         style="line-height:10"
         id="path501" />
      <path
         d="m 672.78288,68.334877 c 0,-1.58625 -0.95625,-2.64375 -2.385,-2.64375 -0.6525,0 -1.26,0.2475 -1.7325,0.66375 l 0.1125,-2.55375 h 3.78 v -0.6975 h -4.21875 l -0.16875,3.88125 0.4725,0.0225 c 0.4275,-0.52875 1.06875,-0.84375 1.755,-0.84375 0.8325,0 1.395,0.86625 1.395,2.17125 0,1.305 -0.5625,2.17125 -1.395,2.17125 -0.86625,0 -1.71,-0.28125 -2.39625,-0.81 v 0.4725 c 0.68625,0.52875 1.53,0.81 2.39625,0.81 1.42875,0 2.385,-1.0575 2.385,-2.64375 z"
         style="line-height:10"
         id="path503" />
    </g>
  </g>
</svg>
