<?xml version="1.0" encoding="UTF-8" standalone="no"?>
<!-- Created with Inkscape (http://www.inkscape.org/) -->

<svg
   width="178.58525mm"
   height="50.282223mm"
   viewBox="0 0 632.78238 178.16536"
   id="svg19691"
   version="1.1"
   xmlns="http://www.w3.org/2000/svg"
   xmlns:svg="http://www.w3.org/2000/svg"
   xmlns:rdf="http://www.w3.org/1999/02/22-rdf-syntax-ns#"
   xmlns:cc="http://creativecommons.org/ns#"
   xmlns:dc="http://purl.org/dc/elements/1.1/">
  <defs
     id="defs19693" />
  <metadata
     id="metadata19696">
    <rdf:RDF>
      <cc:Work
         rdf:about="">
        <dc:format>image/svg+xml</dc:format>
        <dc:type
           rdf:resource="http://purl.org/dc/dcmitype/StillImage" />
        <dc:title />
      </cc:Work>
    </rdf:RDF>
  </metadata>
  <g
     id="layer1"
     transform="translate(-12.099517,-34.93306)">
    <g
       aria-label="clk_i"
       id="text24487"
       style="line-height:0%;font-family:Iwona;-inkscape-font-specification:Iwona;text-align:end;letter-spacing:0px;word-spacing:0px;text-anchor:end;stroke-width:1px">
      <path
         d="m 56.006083,54.18121 v -0.735 c -0.56,-0.7875 -1.47,-1.26 -2.45,-1.26 -2.1875,0 -3.6575,1.645 -3.6575,4.1125 0,2.4675 1.47,4.1125 3.6575,4.1125 0.91,0 1.7675,-0.455 2.275,-1.2075 v -0.735 c -0.595,0.8925 -1.2075,1.2075 -2.275,1.2075 -1.26,0 -2.1175,-1.3475 -2.1175,-3.3775 0,-2.03 0.8575,-3.3775 2.1175,-3.3775 1.085,0 1.82,0.385 2.45,1.26 z"
         style="font-size:17.5px;line-height:10"
         id="path23" />
      <path
         d="m 61.133564,59.62371 v -0.525 c -0.3325,0.28 -0.7175,0.5075 -1.155,0.5075 -0.6475,0 -0.77,-0.805 -0.77,-1.5575 v -10.0625 h -1.365 v 10.0625 c 0,1.1725 0.455,2.3625 1.4875,2.3625 0.665,0 1.295,-0.3325 1.8025,-0.7875 z"
         style="font-size:17.5px;line-height:10"
         id="path25" />
      <path
         d="m 69.656033,60.23621 -4.06,-4.6725 3.92,-3.2025 h -1.085 l -4.1825,3.43 v -7.805 h -1.365 v 12.25 h 1.365 v -4.3575 l 3.78,4.3575 z"
         style="font-size:17.5px;line-height:10"
         id="path27" />
      <path
         d="m 78.58102,62.24871 v -0.875 h -8.75 v 0.875 z"
         style="font-size:17.5px;line-height:10"
         id="path29" />
      <path
         d="m 83.183488,59.62371 v -0.525 c -0.3325,0.28 -0.7175,0.5075 -1.155,0.5075 -0.6475,0 -0.77,-0.805 -0.77,-1.5575 v -5.6875 h -1.365 v 5.6875 c 0,1.1725 0.455,2.3625 1.4875,2.3625 0.665,0 1.295,-0.3325 1.8025,-0.7875 z m -1.75,-9.9925 c 0,-0.4725 -0.385,-0.8575 -0.8575,-0.8575 -0.4725,0 -0.8575,0.385 -0.8575,0.8575 0,0.4725 0.385,0.8575 0.8575,0.8575 0.4725,0 0.8575,-0.385 0.8575,-0.8575 z"
         style="font-size:17.5px;line-height:10"
         id="path31" />
    </g>
    <g
       aria-label="src_i"
       id="text24495"
       style="line-height:0%;font-family:Iwona;-inkscape-font-specification:Iwona;text-align:end;letter-spacing:0px;word-spacing:0px;text-anchor:end;stroke-width:1px">
      <path
         d="m 55.428574,93.429281 c 0,-1.3825 -1.47,-2.1 -2.905,-2.45 -0.84,-0.21 -1.75,-0.56 -1.75,-1.3825 0,-0.7525 0.77,-1.2425 1.61,-1.2425 0.9275,0 1.855,0.28 2.625,0.7875 v -0.735 c -0.77,-0.5075 -1.6975,-0.7875 -2.625,-0.7875 -1.5225,0 -2.9225,0.9275 -2.9225,2.345 0,1.2775 1.4175,1.8725 2.765,2.205 0.9275,0.2275 1.89,0.7175 1.89,1.61 0,0.8225 -0.84,1.33 -1.7325,1.33 -1.085,0 -2.135,-0.2625 -3.0625,-0.7875 v 0.735 c 0.9275,0.525 1.9775,0.7875 3.0625,0.7875 1.575,0 3.045,-0.945 3.045,-2.415 z"
         style="font-size:17.5px;line-height:10"
         id="path34" />
      <path
         d="m 61.973556,88.879281 v -1.085 c -0.1925,-0.07 -0.4025,-0.1225 -0.595,-0.1225 -0.98,0 -1.7675,0.6825 -2.3975,1.435 v -1.3125 h -1.365 v 7.875 h 1.365 v -5.8275 c 0.525,-0.6125 1.19,-1.1375 1.995,-1.1375 0.3325,0 0.6825,0.07 0.9975,0.175 z"
         style="font-size:17.5px;line-height:10"
         id="path36" />
      <path
         d="m 69.393539,89.614281 v -0.735 c -0.56,-0.7875 -1.47,-1.26 -2.45,-1.26 -2.1875,0 -3.6575,1.645 -3.6575,4.1125 0,2.4675 1.47,4.1125 3.6575,4.1125 0.91,0 1.7675,-0.455 2.275,-1.2075 v -0.735 c -0.595,0.8925 -1.2075,1.2075 -2.275,1.2075 -1.26,0 -2.1175,-1.3475 -2.1175,-3.3775 0,-2.03 0.8575,-3.3775 2.1175,-3.3775 1.085,0 1.82,0.385 2.45,1.26 z"
         style="font-size:17.5px;line-height:10"
         id="path38" />
      <path
         d="m 78.58102,97.681781 v -0.875 h -8.75 v 0.875 z"
         style="font-size:17.5px;line-height:10"
         id="path40" />
      <path
         d="m 83.183488,95.056781 v -0.525 c -0.3325,0.28 -0.7175,0.5075 -1.155,0.5075 -0.6475,0 -0.77,-0.805 -0.77,-1.5575 v -5.6875 h -1.365 v 5.6875 c 0,1.1725 0.455,2.3625 1.4875,2.3625 0.665,0 1.295,-0.3325 1.8025,-0.7875 z m -1.75,-9.9925 c 0,-0.4725 -0.385,-0.8575 -0.8575,-0.8575 -0.4725,0 -0.8575,0.385 -0.8575,0.8575 0,0.4725 0.385,0.8575 0.8575,0.8575 0.4725,0 0.8575,-0.385 0.8575,-0.8575 z"
         style="font-size:17.5px;line-height:10"
         id="path42" />
    </g>
    <g
       aria-label="on_evt_o"
       id="text24499"
       style="line-height:0%;font-family:Iwona;-inkscape-font-specification:Iwona;text-align:end;letter-spacing:0px;word-spacing:0px;text-anchor:end;stroke-width:1px">
      <path
         d="m 25.958631,127.16486 c 0,-2.6775 -1.19,-4.1125 -3.3775,-4.1125 -2.205,0 -3.395,1.435 -3.395,4.1125 0,2.6775 1.19,4.1125 3.395,4.1125 2.1875,0 3.3775,-1.435 3.3775,-4.1125 z m -1.54,0 c 0,2.1875 -0.6475,3.3775 -1.8375,3.3775 -1.2075,0 -1.855,-1.19 -1.855,-3.3775 0,-2.1875 0.6475,-3.3775 1.855,-3.3775 1.19,0 1.8375,1.19 1.8375,3.3775 z"
         style="font-size:17.5px;line-height:10"
         id="path45" />
      <path
         d="m 34.656126,131.10236 v -5.6875 c 0,-1.2775 -0.98,-2.3625 -2.24,-2.3625 -1.05,0 -1.9775,0.595 -2.73,1.33 v -1.155 h -1.365 v 7.875 h 1.365 v -6.1775 c 0.595,-0.595 1.33,-1.0675 2.1525,-1.0675 0.8225,0 1.4525,0.7175 1.4525,1.5575 v 5.6875 z"
         style="font-size:17.5px;line-height:10"
         id="path47" />
      <path
         d="m 44.718596,133.11486 v -0.875 h -8.75 v 0.875 z"
         style="font-size:17.5px;line-height:10"
         id="path49" />
      <path
         d="m 52.453563,127.33986 v -0.175 c 0,-2.4675 -1.3475,-4.1125 -3.3775,-4.1125 -2.0475,0 -3.395,1.645 -3.395,4.1125 0,2.4675 1.3475,4.1125 3.395,4.1125 0.875,0 1.7325,-0.28 2.45,-0.7875 v -0.735 c -0.8225,0.525 -1.4875,0.7175 -2.45,0.7175 -1.4875,0 -1.855,-1.4175 -1.855,-3.1325 z m -1.54,-0.735 h -3.6925 c 0,-1.4 0.595,-2.8175 1.855,-2.8175 1.2425,0 1.8375,1.4175 1.8375,2.8175 z"
         style="font-size:17.5px;line-height:10"
         id="path51" />
      <path
         d="m 60.276039,123.22736 h -0.7875 l -2.38,6.545 -2.31,-6.545 h -1.295 l 2.765,7.875 h 1.1375 z"
         style="font-size:17.5px;line-height:10"
         id="path53" />
      <path
         d="m 65.561033,130.48986 v -0.525 c -0.28,0.28 -0.6125,0.5075 -1.015,0.5075 -0.63,0 -0.665,-0.8225 -0.665,-1.5575 v -4.9525 h 1.68 v -0.735 h -1.68 v -2.625 h -0.8225 c 0,1.4 -0.805,2.7125 -2.0825,2.7125 v 0.6475 h 1.54 v 4.9525 c 0,1.155 0.3675,2.3625 1.365,2.3625 0.6475,0 1.2075,-0.35 1.68,-0.7875 z"
         style="font-size:17.5px;line-height:10"
         id="path55" />
      <path
         d="m 74.836008,133.11486 v -0.875 h -8.75 v 0.875 z"
         style="font-size:17.5px;line-height:10"
         id="path57" />
      <path
         d="m 82.570974,127.16486 c 0,-2.6775 -1.19,-4.1125 -3.3775,-4.1125 -2.205,0 -3.395,1.435 -3.395,4.1125 0,2.6775 1.19,4.1125 3.395,4.1125 2.1875,0 3.3775,-1.435 3.3775,-4.1125 z m -1.54,0 c 0,2.1875 -0.6475,3.3775 -1.8375,3.3775 -1.2075,0 -1.855,-1.19 -1.855,-3.3775 0,-2.1875 0.6475,-3.3775 1.855,-3.3775 1.19,0 1.8375,1.19 1.8375,3.3775 z"
         style="font-size:17.5px;line-height:10"
         id="path59" />
    </g>
    <g
       aria-label="off_evt_o"
       id="text24503"
       style="line-height:0%;font-family:Iwona;-inkscape-font-specification:Iwona;text-align:end;letter-spacing:0px;word-spacing:0px;text-anchor:end;stroke-width:1px">
      <path
         d="m 26.571128,162.59792 c 0,-2.6775 -1.19,-4.1125 -3.3775,-4.1125 -2.205,0 -3.395,1.435 -3.395,4.1125 0,2.6775 1.19,4.1125 3.395,4.1125 2.1875,0 3.3775,-1.435 3.3775,-4.1125 z m -1.54,0 c 0,2.1875 -0.6475,3.3775 -1.8375,3.3775 -1.2075,0 -1.855,-1.19 -1.855,-3.3775 0,-2.1875 0.6475,-3.3775 1.855,-3.3775 1.19,0 1.8375,1.19 1.8375,3.3775 z"
         style="font-size:17.5px;line-height:10"
         id="path62" />
      <path
         d="m 36.528624,155.42292 v -0.5425 c -0.525,-0.4375 -1.155,-0.77 -1.8375,-0.77 -1.015,0 -1.4875,1.19 -1.4875,2.3625 v 2.1875 h -2.905 v -2.1875 c 0,-0.7525 0.14,-1.5575 0.7875,-1.5575 0.4375,0 0.84,0.21 1.1725,0.5075 v -0.5425 c -0.525,-0.4375 -1.155,-0.77 -1.8375,-0.77 -1.015,0 -1.4875,1.19 -1.4875,2.3625 v 2.1875 h -1.225 v 0.735 h 1.225 v 7.14 h 1.365 v -7.14 h 2.905 v 7.14 h 1.365 v -7.14 h 1.225 v -0.735 h -1.225 v -2.1875 c 0,-0.7525 0.14,-1.5575 0.7875,-1.5575 0.4375,0 0.84,0.21 1.1725,0.5075 z"
         style="font-size:17.5px;line-height:10"
         id="path64" />
      <path
         d="m 44.718597,168.54792 v -0.875 h -8.75 v 0.875 z"
         style="font-size:17.5px;line-height:10"
         id="path66" />
      <path
         d="m 52.453563,162.77292 v -0.175 c 0,-2.4675 -1.3475,-4.1125 -3.3775,-4.1125 -2.0475,0 -3.395,1.645 -3.395,4.1125 0,2.4675 1.3475,4.1125 3.395,4.1125 0.875,0 1.7325,-0.28 2.45,-0.7875 v -0.735 c -0.8225,0.525 -1.4875,0.7175 -2.45,0.7175 -1.4875,0 -1.855,-1.4175 -1.855,-3.1325 z m -1.54,-0.735 h -3.6925 c 0,-1.4 0.595,-2.8175 1.855,-2.8175 1.2425,0 1.8375,1.4175 1.8375,2.8175 z"
         style="font-size:17.5px;line-height:10"
         id="path68" />
      <path
         d="m 60.276041,158.66042 h -0.7875 l -2.38,6.545 -2.31,-6.545 h -1.295 l 2.765,7.875 h 1.1375 z"
         style="font-size:17.5px;line-height:10"
         id="path70" />
      <path
         d="m 65.561035,165.92292 v -0.525 c -0.28,0.28 -0.6125,0.5075 -1.015,0.5075 -0.63,0 -0.665,-0.8225 -0.665,-1.5575 v -4.9525 h 1.68 v -0.735 h -1.68 v -2.625 h -0.8225 c 0,1.4 -0.805,2.7125 -2.0825,2.7125 v 0.6475 h 1.54 v 4.9525 c 0,1.155 0.3675,2.3625 1.365,2.3625 0.6475,0 1.2075,-0.35 1.68,-0.7875 z"
         style="font-size:17.5px;line-height:10"
         id="path72" />
      <path
         d="m 74.836006,168.54792 v -0.875 h -8.75 v 0.875 z"
         style="font-size:17.5px;line-height:10"
         id="path74" />
      <path
         d="m 82.570976,162.59792 c 0,-2.6775 -1.19,-4.1125 -3.3775,-4.1125 -2.205,0 -3.395,1.435 -3.395,4.1125 0,2.6775 1.19,4.1125 3.395,4.1125 2.1875,0 3.3775,-1.435 3.3775,-4.1125 z m -1.54,0 c 0,2.1875 -0.6475,3.3775 -1.8375,3.3775 -1.2075,0 -1.855,-1.19 -1.855,-3.3775 0,-2.1875 0.6475,-3.3775 1.855,-3.3775 1.19,0 1.8375,1.19 1.8375,3.3775 z"
         style="font-size:17.5px;line-height:10"
         id="path76" />
    </g>
    <path
       style="fill:none;fill-rule:evenodd;stroke:#000000;stroke-width:1px;stroke-linecap:butt;stroke-linejoin:miter;stroke-opacity:1"
       d="m 88.582677,42.519674 h 14.173233 v 21.259843 h 14.17322 V 42.519674 h 14.17323 v 21.259843 h 14.17322 V 42.519674 h 14.17324 v 21.259843 h 14.17322 V 42.519674 h 14.17323 v 21.259843 h 14.17322 V 42.519674 h 14.17324 v 21.259843 h 14.17322 V 42.519674 h 14.17323 V 63.779517 H 258.6614 V 42.519674 h 14.17324 v 21.259843 h 14.17322 V 42.519674 h 14.17323 v 21.259843 h 14.17322 V 42.519674 h 14.17325 v 21.259843 h 14.17322 V 42.519674 h 14.17323 v 21.259843 h 14.17322 V 42.519674 h 14.17324 v 21.259843 h 14.17322 V 42.519674 h 14.17323 v 21.259843 h 14.17322 V 42.519674 h 14.17324 V 63.779517 H 457.0866 V 42.519674 h 14.17323 v 21.259843 h 14.17322 V 42.519674 h 14.17324 v 21.259843 h 14.17322 V 42.519674 h 14.17323 v 21.259843 h 14.17322 l 1e-5,-21.259843 h 14.17324 v 21.259843 h 14.17322 V 42.519674 h 14.17323 v 21.259843 h 14.17322 V 42.519674 h 14.17324 v 21.259843 h 14.17322 V 42.519674 h 10.62993"
       id="path29163" />
    <path
       style="fill:none;fill-rule:evenodd;stroke:#000000;stroke-width:1px;stroke-linecap:butt;stroke-linejoin:miter;stroke-opacity:1"
       d="m 88.582684,99.212585 h 95.669286 l 3.54328,-21.25984 h 343.70081 l 3.54328,21.25984 h 102.75593"
       id="path29311" />
    <path
       id="path29317"
       d="M 88.582684,134.64566 H 201.9685 l 3.54328,-21.25984 h 24.80318 l 3.54328,21.25984 h 403.93703"
       style="fill:none;fill-rule:evenodd;stroke:#000000;stroke-width:1px;stroke-linecap:butt;stroke-linejoin:miter;stroke-opacity:1" />
    <path
       style="fill:none;fill-rule:evenodd;stroke:#000000;stroke-width:1px;stroke-linecap:butt;stroke-linejoin:miter;stroke-opacity:1"
       d="M 88.582684,170.07873 H 542.12598 l 3.54328,-21.25984 h 24.80318 l 3.54328,21.25984 h 63.77955"
       id="path29319" />
    <g
       aria-label="status_o"
       id="text22"
       style="line-height:0%;font-family:Iwona;-inkscape-font-specification:Iwona;text-align:end;letter-spacing:0px;word-spacing:0px;text-anchor:end;stroke-width:1px">
      <path
         d="m 28.513639,199.72851 c 0,-1.3825 -1.47,-2.1 -2.905,-2.45 -0.84,-0.21 -1.75,-0.56 -1.75,-1.3825 0,-0.7525 0.77,-1.2425 1.61,-1.2425 0.9275,0 1.855,0.28 2.625,0.7875 v -0.735 c -0.77,-0.5075 -1.6975,-0.7875 -2.625,-0.7875 -1.5225,0 -2.9225,0.9275 -2.9225,2.345 0,1.2775 1.4175,1.8725 2.765,2.205 0.9275,0.2275 1.89,0.7175 1.89,1.61 0,0.8225 -0.84,1.33 -1.7325,1.33 -1.085,0 -2.135,-0.2625 -3.0625,-0.7875 v 0.735 c 0.9275,0.525 1.9775,0.7875 3.0625,0.7875 1.575,0 3.045,-0.945 3.045,-2.415 z"
         style="font-size:17.5px;line-height:10"
         id="path79" />
      <path
         d="m 34.411121,201.35601 v -0.525 c -0.28,0.28 -0.6125,0.5075 -1.015,0.5075 -0.63,0 -0.665,-0.8225 -0.665,-1.5575 v -4.9525 h 1.68 v -0.735 h -1.68 v -2.625 h -0.8225 c 0,1.4 -0.805,2.7125 -2.0825,2.7125 v 0.6475 h 1.54 v 4.9525 c 0,1.155 0.3675,2.3625 1.365,2.3625 0.6475,0 1.2075,-0.35 1.68,-0.7875 z"
         style="font-size:17.5px;line-height:10"
         id="path81" />
      <path
         d="m 42.496096,201.96851 v -4.9 c 0,-1.645 -1.015,-3.15 -2.5375,-3.15 -1.12,0 -2.17,0.385 -3.115,0.98 v 0.5425 c 0.7875,-0.4375 1.6625,-0.7175 2.5725,-0.7175 1.085,0 1.715,1.155 1.715,2.345 v 0.315 c -0.6825,-0.2975 -1.4175,-0.4725 -2.1525,-0.4725 -1.8725,0 -3.255,0.8575 -3.255,2.625 0,1.68 1.225,2.6075 2.9925,2.6075 0.8925,0 1.715,-0.4025 2.415,-0.9625 v 0.7875 z m -1.365,-1.5225 c -0.525,0.525 -1.1725,0.9625 -1.925,0.9625 -1.1725,0 -1.9425,-0.7175 -1.9425,-1.8725 0,-1.0675 0.875,-1.89 1.9425,-1.89 0.665,0 1.33,0.175 1.925,0.4725 z"
         style="font-size:17.5px;line-height:10"
         id="path83" />
      <path
         d="m 49.006081,201.35601 v -0.525 c -0.28,0.28 -0.6125,0.5075 -1.015,0.5075 -0.63,0 -0.665,-0.8225 -0.665,-1.5575 v -4.9525 h 1.68 v -0.735 h -1.68 v -2.625 h -0.8225 c 0,1.4 -0.805,2.7125 -2.0825,2.7125 v 0.6475 h 1.54 v 4.9525 c 0,1.155 0.3675,2.3625 1.365,2.3625 0.6475,0 1.2075,-0.35 1.68,-0.7875 z"
         style="font-size:17.5px;line-height:10"
         id="path85" />
      <path
         d="m 57.178556,201.96851 v -7.875 h -1.365 v 6.1775 c -0.595,0.595 -1.33,1.0675 -2.1525,1.0675 -0.8225,0 -1.4525,-0.7175 -1.4525,-1.5575 v -5.6875 h -1.365 v 5.6875 c 0,1.2775 0.98,2.3625 2.24,2.3625 1.05,0 1.9775,-0.595 2.73,-1.33 v 1.155 z"
         style="font-size:17.5px;line-height:10"
         id="path87" />
      <path
         d="m 65.298528,199.72851 c 0,-1.3825 -1.47,-2.1 -2.905,-2.45 -0.84,-0.21 -1.75,-0.56 -1.75,-1.3825 0,-0.7525 0.77,-1.2425 1.61,-1.2425 0.9275,0 1.855,0.28 2.625,0.7875 v -0.735 c -0.77,-0.5075 -1.6975,-0.7875 -2.625,-0.7875 -1.5225,0 -2.9225,0.9275 -2.9225,2.345 0,1.2775 1.4175,1.8725 2.765,2.205 0.9275,0.2275 1.89,0.7175 1.89,1.61 0,0.8225 -0.84,1.33 -1.7325,1.33 -1.085,0 -2.135,-0.2625 -3.0625,-0.7875 v 0.735 c 0.9275,0.525 1.9775,0.7875 3.0625,0.7875 1.575,0 3.045,-0.945 3.045,-2.415 z"
         style="font-size:17.5px;line-height:10"
         id="path89" />
      <path
         d="m 74.836009,203.98101 v -0.875 h -8.75 v 0.875 z"
         style="font-size:17.5px;line-height:10"
         id="path91" />
      <path
         d="m 82.570975,198.03101 c 0,-2.6775 -1.19,-4.1125 -3.3775,-4.1125 -2.205,0 -3.395,1.435 -3.395,4.1125 0,2.6775 1.19,4.1125 3.395,4.1125 2.1875,0 3.3775,-1.435 3.3775,-4.1125 z m -1.54,0 c 0,2.1875 -0.6475,3.3775 -1.8375,3.3775 -1.2075,0 -1.855,-1.19 -1.855,-3.3775 0,-2.1875 0.6475,-3.3775 1.855,-3.3775 1.19,0 1.8375,1.19 1.8375,3.3775 z"
         style="font-size:17.5px;line-height:10"
         id="path93" />
    </g>
    <path
       id="path24"
       d="M 88.582684,205.5118 H 201.9685 l 3.54328,-21.25984 h 336.61421 l 3.54328,21.25984 h 92.126"
       style="fill:none;fill-rule:evenodd;stroke:#000000;stroke-width:1px;stroke-linecap:butt;stroke-linejoin:miter;stroke-opacity:1" />
  </g>
</svg>
