<?xml version="1.0" encoding="UTF-8" standalone="no"?>
<!-- Created with Inkscape (http://www.inkscape.org/) -->

<svg
   width="181.04974mm"
   height="71.141129mm"
   viewBox="0 0 641.51483 252.07487"
   id="svg19691"
   version="1.1"
   xmlns="http://www.w3.org/2000/svg"
   xmlns:svg="http://www.w3.org/2000/svg"
   xmlns:rdf="http://www.w3.org/1999/02/22-rdf-syntax-ns#"
   xmlns:cc="http://creativecommons.org/ns#"
   xmlns:dc="http://purl.org/dc/elements/1.1/">
  <defs
     id="defs19693" />
  <metadata
     id="metadata19696">
    <rdf:RDF>
      <cc:Work
         rdf:about="">
        <dc:format>image/svg+xml</dc:format>
        <dc:type
           rdf:resource="http://purl.org/dc/dcmitype/StillImage" />
        <dc:title />
      </cc:Work>
    </rdf:RDF>
  </metadata>
  <g
     id="layer1"
     transform="translate(-56.516653,-31.889754)">
    <path
       id="rect8358"
       style="opacity:1;fill:#ffbd54;stroke-linecap:round;stroke-linejoin:bevel;stroke-dasharray:2, 4"
       d="m 255.11812,38.976368 h 3.54331 v 99.212592 h -3.54331 z" />
    <path
       id="rect3472"
       style="opacity:1;fill:#ffbd54;stroke-linecap:round;stroke-linejoin:bevel;stroke-dasharray:2, 4"
       d="m 283.46457,38.976368 h 3.54331 V 173.62203 h -3.54331 z" />
    <path
       id="rect3474"
       style="opacity:1;fill:#ffbd54;stroke-linecap:round;stroke-linejoin:bevel;stroke-dasharray:2, 4"
       d="m 595.27557,38.976368 h 3.54331 v 99.212592 h -3.54331 z" />
    <path
       id="rect3476"
       style="opacity:1;fill:#ffbd54;stroke-linecap:round;stroke-linejoin:bevel;stroke-dasharray:2, 4"
       d="m 623.62201,38.976368 h 3.54331 V 173.62203 h -3.54331 z" />
    <g
       aria-label="clk_i"
       id="text24487"
       style="line-height:0%;font-family:Iwona;-inkscape-font-specification:Iwona;text-align:end;letter-spacing:0px;word-spacing:0px;text-anchor:end;stroke-width:1px">
      <path
         d="m 109.15569,54.18121 v -0.735 c -0.56,-0.7875 -1.47,-1.26 -2.45,-1.26 -2.1875,0 -3.6575,1.645 -3.6575,4.1125 0,2.4675 1.47,4.1125 3.6575,4.1125 0.91,0 1.7675,-0.455 2.275,-1.2075 v -0.735 c -0.595,0.8925 -1.2075,1.2075 -2.275,1.2075 -1.26,0 -2.1175,-1.3475 -2.1175,-3.3775 0,-2.03 0.8575,-3.3775 2.1175,-3.3775 1.085,0 1.82,0.385 2.45,1.26 z"
         style="font-size:17.5px;line-height:10"
         id="path37" />
      <path
         d="m 114.28317,59.62371 v -0.525 c -0.3325,0.28 -0.7175,0.5075 -1.155,0.5075 -0.6475,0 -0.77,-0.805 -0.77,-1.5575 v -10.0625 h -1.365 v 10.0625 c 0,1.1725 0.455,2.3625 1.4875,2.3625 0.665,0 1.295,-0.3325 1.8025,-0.7875 z"
         style="font-size:17.5px;line-height:10"
         id="path39" />
      <path
         d="m 122.80564,60.23621 -4.06,-4.6725 3.92,-3.2025 h -1.085 l -4.1825,3.43 v -7.805 h -1.365 v 12.25 h 1.365 v -4.3575 l 3.78,4.3575 z"
         style="font-size:17.5px;line-height:10"
         id="path41" />
      <path
         d="m 131.73063,62.24871 v -0.875 h -8.75 v 0.875 z"
         style="font-size:17.5px;line-height:10"
         id="path43" />
      <path
         d="m 136.33309,59.62371 v -0.525 c -0.3325,0.28 -0.7175,0.5075 -1.155,0.5075 -0.6475,0 -0.77,-0.805 -0.77,-1.5575 v -5.6875 h -1.365 v 5.6875 c 0,1.1725 0.455,2.3625 1.4875,2.3625 0.665,0 1.295,-0.3325 1.8025,-0.7875 z m -1.75,-9.9925 c 0,-0.4725 -0.385,-0.8575 -0.8575,-0.8575 -0.4725,0 -0.8575,0.385 -0.8575,0.8575 0,0.4725 0.385,0.8575 0.8575,0.8575 0.4725,0 0.8575,-0.385 0.8575,-0.8575 z"
         style="font-size:17.5px;line-height:10"
         id="path45" />
    </g>
    <g
       aria-label="src_i"
       id="text24495"
       style="line-height:0%;font-family:Iwona;-inkscape-font-specification:Iwona;text-align:end;letter-spacing:0px;word-spacing:0px;text-anchor:end;stroke-width:1px">
      <path
         d="m 108.57818,93.429281 c 0,-1.3825 -1.47,-2.1 -2.905,-2.45 -0.84,-0.21 -1.75,-0.56 -1.75,-1.3825 0,-0.7525 0.77,-1.2425 1.61,-1.2425 0.9275,0 1.855,0.28 2.625,0.7875 v -0.735 c -0.77,-0.5075 -1.6975,-0.7875 -2.625,-0.7875 -1.5225,0 -2.9225,0.9275 -2.9225,2.345 0,1.2775 1.4175,1.8725 2.765,2.205 0.9275,0.2275 1.89,0.7175 1.89,1.61 0,0.8225 -0.84,1.33 -1.7325,1.33 -1.085,0 -2.135,-0.2625 -3.0625,-0.7875 v 0.735 c 0.9275,0.525 1.9775,0.7875 3.0625,0.7875 1.575,0 3.045,-0.945 3.045,-2.415 z"
         style="font-size:17.5px;line-height:10"
         id="path48" />
      <path
         d="m 115.12316,88.879281 v -1.085 c -0.1925,-0.07 -0.4025,-0.1225 -0.595,-0.1225 -0.98,0 -1.7675,0.6825 -2.3975,1.435 v -1.3125 h -1.365 v 7.875 h 1.365 v -5.8275 c 0.525,-0.6125 1.19,-1.1375 1.995,-1.1375 0.3325,0 0.6825,0.07 0.9975,0.175 z"
         style="font-size:17.5px;line-height:10"
         id="path50" />
      <path
         d="m 122.54314,89.614281 v -0.735 c -0.56,-0.7875 -1.47,-1.26 -2.45,-1.26 -2.1875,0 -3.6575,1.645 -3.6575,4.1125 0,2.4675 1.47,4.1125 3.6575,4.1125 0.91,0 1.7675,-0.455 2.275,-1.2075 v -0.735 c -0.595,0.8925 -1.2075,1.2075 -2.275,1.2075 -1.26,0 -2.1175,-1.3475 -2.1175,-3.3775 0,-2.03 0.8575,-3.3775 2.1175,-3.3775 1.085,0 1.82,0.385 2.45,1.26 z"
         style="font-size:17.5px;line-height:10"
         id="path52" />
      <path
         d="m 131.73063,97.681781 v -0.875 h -8.75 v 0.875 z"
         style="font-size:17.5px;line-height:10"
         id="path54" />
      <path
         d="m 136.33309,95.056781 v -0.525 c -0.3325,0.28 -0.7175,0.5075 -1.155,0.5075 -0.6475,0 -0.77,-0.805 -0.77,-1.5575 v -5.6875 h -1.365 v 5.6875 c 0,1.1725 0.455,2.3625 1.4875,2.3625 0.665,0 1.295,-0.3325 1.8025,-0.7875 z m -1.75,-9.9925 c 0,-0.4725 -0.385,-0.8575 -0.8575,-0.8575 -0.4725,0 -0.8575,0.385 -0.8575,0.8575 0,0.4725 0.385,0.8575 0.8575,0.8575 0.4725,0 0.8575,-0.385 0.8575,-0.8575 z"
         style="font-size:17.5px;line-height:10"
         id="path56" />
    </g>
    <g
       aria-label="on_evt_o"
       id="text24499"
       style="line-height:0%;font-family:Iwona;-inkscape-font-specification:Iwona;text-align:end;letter-spacing:0px;word-spacing:0px;text-anchor:end;stroke-width:1px">
      <path
         d="m 79.108236,198.03099 c 0,-2.6775 -1.19,-4.1125 -3.3775,-4.1125 -2.205,0 -3.395,1.435 -3.395,4.1125 0,2.6775 1.19,4.1125 3.395,4.1125 2.1875,0 3.3775,-1.435 3.3775,-4.1125 z m -1.54,0 c 0,2.1875 -0.6475,3.3775 -1.8375,3.3775 -1.2075,0 -1.855,-1.19 -1.855,-3.3775 0,-2.1875 0.6475,-3.3775 1.855,-3.3775 1.19,0 1.8375,1.19 1.8375,3.3775 z"
         style="font-size:17.5px;line-height:10"
         id="path59" />
      <path
         d="m 87.805731,201.96849 v -5.6875 c 0,-1.2775 -0.98,-2.3625 -2.24,-2.3625 -1.05,0 -1.9775,0.595 -2.73,1.33 v -1.155 h -1.365 v 7.875 h 1.365 v -6.1775 c 0.595,-0.595 1.33,-1.0675 2.1525,-1.0675 0.8225,0 1.4525,0.7175 1.4525,1.5575 v 5.6875 z"
         style="font-size:17.5px;line-height:10"
         id="path61" />
      <path
         d="m 97.8682,203.98099 v -0.875 h -8.75 v 0.875 z"
         style="font-size:17.5px;line-height:10"
         id="path63" />
      <path
         d="m 105.60317,198.20599 v -0.175 c 0,-2.4675 -1.3475,-4.1125 -3.3775,-4.1125 -2.0475,0 -3.395002,1.645 -3.395002,4.1125 0,2.4675 1.347502,4.1125 3.395002,4.1125 0.875,0 1.7325,-0.28 2.45,-0.7875 v -0.735 c -0.8225,0.525 -1.4875,0.7175 -2.45,0.7175 -1.4875,0 -1.855,-1.4175 -1.855,-3.1325 z m -1.54,-0.735 h -3.6925 c 0,-1.4 0.595,-2.8175 1.855,-2.8175 1.2425,0 1.8375,1.4175 1.8375,2.8175 z"
         style="font-size:17.5px;line-height:10"
         id="path65" />
      <path
         d="m 113.42564,194.09349 h -0.7875 l -2.38,6.545 -2.31,-6.545 h -1.295 l 2.765,7.875 h 1.1375 z"
         style="font-size:17.5px;line-height:10"
         id="path67" />
      <path
         d="m 118.71064,201.35599 v -0.525 c -0.28,0.28 -0.6125,0.5075 -1.015,0.5075 -0.63,0 -0.665,-0.8225 -0.665,-1.5575 v -4.9525 h 1.68 v -0.735 h -1.68 v -2.625 h -0.8225 c 0,1.4 -0.805,2.7125 -2.0825,2.7125 v 0.6475 h 1.54 v 4.9525 c 0,1.155 0.3675,2.3625 1.365,2.3625 0.6475,0 1.2075,-0.35 1.68,-0.7875 z"
         style="font-size:17.5px;line-height:10"
         id="path69" />
      <path
         d="m 127.98561,203.98099 v -0.875 h -8.75 v 0.875 z"
         style="font-size:17.5px;line-height:10"
         id="path71" />
      <path
         d="m 135.72058,198.03099 c 0,-2.6775 -1.19,-4.1125 -3.3775,-4.1125 -2.205,0 -3.395,1.435 -3.395,4.1125 0,2.6775 1.19,4.1125 3.395,4.1125 2.1875,0 3.3775,-1.435 3.3775,-4.1125 z m -1.54,0 c 0,2.1875 -0.6475,3.3775 -1.8375,3.3775 -1.2075,0 -1.855,-1.19 -1.855,-3.3775 0,-2.1875 0.6475,-3.3775 1.855,-3.3775 1.19,0 1.8375,1.19 1.8375,3.3775 z"
         style="font-size:17.5px;line-height:10"
         id="path73" />
    </g>
    <g
       aria-label="off_evt_o"
       id="text24503"
       style="line-height:0%;font-family:Iwona;-inkscape-font-specification:Iwona;text-align:end;letter-spacing:0px;word-spacing:0px;text-anchor:end;stroke-width:1px">
      <path
         d="m 79.720733,233.46405 c 0,-2.6775 -1.19,-4.1125 -3.3775,-4.1125 -2.205,0 -3.395,1.435 -3.395,4.1125 0,2.6775 1.19,4.1125 3.395,4.1125 2.1875,0 3.3775,-1.435 3.3775,-4.1125 z m -1.54,0 c 0,2.1875 -0.6475,3.3775 -1.8375,3.3775 -1.2075,0 -1.855,-1.19 -1.855,-3.3775 0,-2.1875 0.6475,-3.3775 1.855,-3.3775 1.19,0 1.8375,1.19 1.8375,3.3775 z"
         style="font-size:17.5px;line-height:10"
         id="path76" />
      <path
         d="m 89.678228,226.28905 v -0.5425 c -0.525,-0.4375 -1.155,-0.77 -1.8375,-0.77 -1.015,0 -1.4875,1.19 -1.4875,2.3625 v 2.1875 h -2.905 v -2.1875 c 0,-0.7525 0.14,-1.5575 0.7875,-1.5575 0.4375,0 0.84,0.21 1.1725,0.5075 v -0.5425 c -0.525,-0.4375 -1.155,-0.77 -1.8375,-0.77 -1.015,0 -1.4875,1.19 -1.4875,2.3625 v 2.1875 h -1.225 v 0.735 h 1.225 v 7.14 h 1.365 v -7.14 h 2.905 v 7.14 h 1.365 v -7.14 h 1.225 v -0.735 h -1.225 v -2.1875 c 0,-0.7525 0.14,-1.5575 0.7875,-1.5575 0.4375,0 0.84,0.21 1.1725,0.5075 z"
         style="font-size:17.5px;line-height:10"
         id="path78" />
      <path
         d="m 97.868202,239.41405 v -0.875 h -8.75 v 0.875 z"
         style="font-size:17.5px;line-height:10"
         id="path80" />
      <path
         d="m 105.60317,233.63905 v -0.175 c 0,-2.4675 -1.3475,-4.1125 -3.3775,-4.1125 -2.0475,0 -3.395002,1.645 -3.395002,4.1125 0,2.4675 1.347502,4.1125 3.395002,4.1125 0.875,0 1.7325,-0.28 2.45,-0.7875 v -0.735 c -0.8225,0.525 -1.4875,0.7175 -2.45,0.7175 -1.4875,0 -1.855,-1.4175 -1.855,-3.1325 z m -1.54,-0.735 h -3.6925 c 0,-1.4 0.595,-2.8175 1.855,-2.8175 1.2425,0 1.8375,1.4175 1.8375,2.8175 z"
         style="font-size:17.5px;line-height:10"
         id="path82" />
      <path
         d="m 113.42565,229.52655 h -0.7875 l -2.38,6.545 -2.31,-6.545 h -1.295 l 2.765,7.875 h 1.1375 z"
         style="font-size:17.5px;line-height:10"
         id="path84" />
      <path
         d="m 118.71064,236.78905 v -0.525 c -0.28,0.28 -0.6125,0.5075 -1.015,0.5075 -0.63,0 -0.665,-0.8225 -0.665,-1.5575 v -4.9525 h 1.68 v -0.735 h -1.68 v -2.625 h -0.8225 c 0,1.4 -0.805,2.7125 -2.0825,2.7125 v 0.6475 h 1.54 v 4.9525 c 0,1.155 0.3675,2.3625 1.365,2.3625 0.6475,0 1.2075,-0.35 1.68,-0.7875 z"
         style="font-size:17.5px;line-height:10"
         id="path86" />
      <path
         d="m 127.98561,239.41405 v -0.875 h -8.75 v 0.875 z"
         style="font-size:17.5px;line-height:10"
         id="path88" />
      <path
         d="m 135.72058,233.46405 c 0,-2.6775 -1.19,-4.1125 -3.3775,-4.1125 -2.205,0 -3.395,1.435 -3.395,4.1125 0,2.6775 1.19,4.1125 3.395,4.1125 2.1875,0 3.3775,-1.435 3.3775,-4.1125 z m -1.54,0 c 0,2.1875 -0.6475,3.3775 -1.8375,3.3775 -1.2075,0 -1.855,-1.19 -1.855,-3.3775 0,-2.1875 0.6475,-3.3775 1.855,-3.3775 1.19,0 1.8375,1.19 1.8375,3.3775 z"
         style="font-size:17.5px;line-height:10"
         id="path90" />
    </g>
    <path
       style="fill:none;fill-rule:evenodd;stroke:#000000;stroke-width:1px;stroke-linecap:butt;stroke-linejoin:miter;stroke-opacity:1"
       d="m 141.73228,42.519674 h 14.17324 v 21.259843 h 14.17322 V 42.519674 h 14.17323 v 21.259843 h 14.17322 V 42.519674 h 14.17324 v 21.259843 h 14.17322 V 42.519674 h 14.17323 V 63.779517 H 255.1181 V 42.519674 h 14.17324 v 21.259843 h 14.17322 V 42.519674 h 14.17323 v 21.259843 h 14.17322 V 42.519674 h 14.17324 v 21.259843 h 14.17322 V 42.519674 h 14.17323 v 21.259843 h 14.17322 V 42.519674 h 14.17325 v 21.259843 h 14.17322 V 42.519674 h 14.17323 v 21.259843 h 14.17322 V 42.519674 h 14.17324 V 63.779517 H 453.5433 V 42.519674 h 14.17323 v 21.259843 h 14.17322 V 42.519674 h 14.17324 v 21.259843 h 14.17322 V 42.519674 h 14.17323 v 21.259843 h 14.17322 V 42.519674 h 14.17324 v 21.259843 h 14.17322 V 42.519674 h 14.17323 v 21.259843 h 14.17322 l 10e-6,-21.259843 h 14.17324 v 21.259843 h 14.17322 V 42.519674 h 14.17323 v 21.259843 h 14.17322 V 42.519674 h 14.17324 v 21.259843 h 14.17322 V 42.519674 h 10.62993"
       id="path29163" />
    <path
       style="fill:none;fill-rule:evenodd;stroke:#000000;stroke-width:1px;stroke-linecap:butt;stroke-linejoin:miter;stroke-opacity:1"
       d="m 141.73229,99.212585 h 95.66929 l 3.54328,-21.25984 h 343.70081 l 3.54328,21.25984 h 102.75593"
       id="path29311" />
    <path
       id="path29317"
       d="m 141.73229,205.5118 h 113.38582 l 3.54328,-21.25984 h 24.80318 l 3.54328,21.25984 h 403.93703"
       style="fill:none;fill-rule:evenodd;stroke:#000000;stroke-width:1px;stroke-linecap:butt;stroke-linejoin:miter;stroke-opacity:1" />
    <path
       style="fill:none;fill-rule:evenodd;stroke:#000000;stroke-width:1px;stroke-linecap:butt;stroke-linejoin:miter;stroke-opacity:1"
       d="m 141.73229,240.94487 h 453.5433 l 3.54328,-21.25984 h 24.80318 l 3.54328,21.25984 h 63.77955"
       id="path29319" />
    <g
       aria-label="src_reg(0)"
       id="text3454"
       style="line-height:0%;font-family:Iwona;-inkscape-font-specification:Iwona;text-align:end;letter-spacing:0px;word-spacing:0px;text-anchor:end;stroke-width:1px">
      <path
         d="m 69.710767,128.86236 c 0,-1.3825 -1.47,-2.1 -2.905,-2.45 -0.84,-0.21 -1.75,-0.56 -1.75,-1.3825 0,-0.7525 0.77,-1.2425 1.61,-1.2425 0.9275,0 1.855,0.28 2.625,0.7875 v -0.735 c -0.77,-0.5075 -1.6975,-0.7875 -2.625,-0.7875 -1.5225,0 -2.9225,0.9275 -2.9225,2.345 0,1.2775 1.4175,1.8725 2.765,2.205 0.9275,0.2275 1.89,0.7175 1.89,1.61 0,0.8225 -0.84,1.33 -1.7325,1.33 -1.085,0 -2.135,-0.2625 -3.0625,-0.7875 v 0.735 c 0.9275,0.525 1.9775,0.7875 3.0625,0.7875 1.575,0 3.045,-0.945 3.045,-2.415 z"
         style="font-size:17.5px;line-height:10"
         id="path93" />
      <path
         d="m 76.255749,124.31236 v -1.085 c -0.1925,-0.07 -0.4025,-0.1225 -0.595,-0.1225 -0.98,0 -1.7675,0.6825 -2.3975,1.435 v -1.3125 h -1.365 v 7.875 h 1.365 v -5.8275 c 0.525,-0.6125 1.19,-1.1375 1.995,-1.1375 0.3325,0 0.6825,0.07 0.9975,0.175 z"
         style="font-size:17.5px;line-height:10"
         id="path95" />
      <path
         d="m 83.675732,125.04736 v -0.735 c -0.56,-0.7875 -1.47,-1.26 -2.45,-1.26 -2.1875,0 -3.6575,1.645 -3.6575,4.1125 0,2.4675 1.47,4.1125 3.6575,4.1125 0.91,0 1.7675,-0.455 2.275,-1.2075 v -0.735 c -0.595,0.8925 -1.2075,1.2075 -2.275,1.2075 -1.26,0 -2.1175,-1.3475 -2.1175,-3.3775 0,-2.03 0.8575,-3.3775 2.1175,-3.3775 1.085,0 1.82,0.385 2.45,1.26 z"
         style="font-size:17.5px;line-height:10"
         id="path97" />
      <path
         d="m 92.863214,133.11486 v -0.875 h -8.75 v 0.875 z"
         style="font-size:17.5px;line-height:10"
         id="path99" />
      <path
         d="m 98.620681,124.31236 v -1.085 c -0.1925,-0.07 -0.4025,-0.1225 -0.595,-0.1225 -0.98,0 -1.7675,0.6825 -2.3975,1.435 v -1.3125 h -1.365 v 7.875 h 1.365 v -5.8275 c 0.525,-0.6125 1.19,-1.1375 1.995,-1.1375 0.3325,0 0.6825,0.07 0.9975,0.175 z"
         style="font-size:17.5px;line-height:10"
         id="path101" />
      <path
         d="m 106.70566,127.33986 v -0.175 c 0,-2.4675 -1.3475,-4.1125 -3.3775,-4.1125 -2.0475,0 -3.394996,1.645 -3.394996,4.1125 0,2.4675 1.347496,4.1125 3.394996,4.1125 0.875,0 1.7325,-0.28 2.45,-0.7875 v -0.735 c -0.8225,0.525 -1.4875,0.7175 -2.45,0.7175 -1.4875,0 -1.855,-1.4175 -1.855,-3.1325 z m -1.54,-0.735 h -3.6925 c 0,-1.4 0.595,-2.8175 1.855,-2.8175 1.2425,0 1.8375,1.4175 1.8375,2.8175 z"
         style="font-size:17.5px;line-height:10"
         id="path103" />
      <path
         d="m 115.31564,132.15236 v -8.925 h -1.365 v 0.2975 c -0.6825,-0.2975 -1.4175,-0.4725 -2.1525,-0.4725 -2.1875,0 -3.255,1.75 -3.255,4.1125 0,2.3275 0.875,4.1125 2.9925,4.1125 0.8925,0 1.715,-0.4025 2.415,-0.9625 v 1.8375 c 0,1.2075 -0.665,2.345 -1.75,2.345 -0.8925,0 -1.785,-0.175 -2.625,-0.4725 v 0.5425 c 0.98,0.455 2.065,0.735 3.15,0.735 1.54,0 2.59,-1.505 2.59,-3.15 z m -1.365,-2.5725 c -0.525,0.525 -1.1725,0.9625 -1.925,0.9625 -1.5925,0 -1.9425,-1.54 -1.9425,-3.3775 0,-1.645 0.5075,-3.3775 1.9425,-3.3775 0.665,0 1.33,0.175 1.925,0.4725 z"
         style="font-size:17.5px;line-height:10"
         id="path105" />
      <path
         d="m 121.23063,135.12736 c -1.2775,-2.835 -1.75,-5.0225 -1.75,-8.1375 0,-3.115 0.4725,-5.3025 1.75,-8.1375 h -0.735 c -1.7325,2.695 -2.38,4.935 -2.38,8.1375 0,3.2025 0.6475,5.4425 2.38,8.1375 z"
         style="font-size:17.5px;line-height:10"
         id="path107" />
      <path
         d="m 130.54061,125.06486 c 0,-4.1475 -1.2775,-6.2125 -3.8325,-6.2125 -2.555,0 -3.8325,2.065 -3.8325,6.2125 0,4.1475 1.2775,6.2125 3.8325,6.2125 2.555,0 3.8325,-2.065 3.8325,-6.2125 z m -1.54,0 c 0,3.6575 -0.77,5.4775 -2.2925,5.4775 -1.5225,0 -2.2925,-1.82 -2.2925,-5.4775 0,-3.6575 0.77,-5.4775 2.2925,-5.4775 1.5225,0 2.2925,1.82 2.2925,5.4775 z"
         style="font-size:17.5px;line-height:10"
         id="path109" />
      <path
         d="m 135.2831,126.98986 c 0,-3.2025 -0.6475,-5.4425 -2.38,-8.1375 h -0.735 c 1.2775,2.835 1.75,5.0225 1.75,8.1375 0,3.115 -0.4725,5.3025 -1.75,8.1375 h 0.735 c 1.7325,-2.695 2.38,-4.935 2.38,-8.1375 z"
         style="font-size:17.5px;line-height:10"
         id="path111" />
    </g>
    <path
       id="path3458"
       d="m 141.73229,134.64566 h 113.38582 l 3.54328,-21.25984 h 336.6142 l 3.54328,21.25984 h 92.12601"
       style="fill:none;fill-rule:evenodd;stroke:#000000;stroke-width:1px;stroke-linecap:butt;stroke-linejoin:miter;stroke-opacity:1" />
    <g
       aria-label="src_reg(1)"
       id="text3460"
       style="line-height:0%;font-family:Iwona;-inkscape-font-specification:Iwona;text-align:end;letter-spacing:0px;word-spacing:0px;text-anchor:end;stroke-width:1px">
      <path
         d="m 69.710767,164.29543 c 0,-1.3825 -1.47,-2.1 -2.905,-2.45 -0.84,-0.21 -1.75,-0.56 -1.75,-1.3825 0,-0.7525 0.77,-1.2425 1.61,-1.2425 0.9275,0 1.855,0.28 2.625,0.7875 v -0.735 c -0.77,-0.5075 -1.6975,-0.7875 -2.625,-0.7875 -1.5225,0 -2.9225,0.9275 -2.9225,2.345 0,1.2775 1.4175,1.8725 2.765,2.205 0.9275,0.2275 1.89,0.7175 1.89,1.61 0,0.8225 -0.84,1.33 -1.7325,1.33 -1.085,0 -2.135,-0.2625 -3.0625,-0.7875 v 0.735 c 0.9275,0.525 1.9775,0.7875 3.0625,0.7875 1.575,0 3.045,-0.945 3.045,-2.415 z"
         style="font-size:17.5px;line-height:10"
         id="path114" />
      <path
         d="m 76.255749,159.74543 v -1.085 c -0.1925,-0.07 -0.4025,-0.1225 -0.595,-0.1225 -0.98,0 -1.7675,0.6825 -2.3975,1.435 v -1.3125 h -1.365 v 7.875 h 1.365 v -5.8275 c 0.525,-0.6125 1.19,-1.1375 1.995,-1.1375 0.3325,0 0.6825,0.07 0.9975,0.175 z"
         style="font-size:17.5px;line-height:10"
         id="path116" />
      <path
         d="m 83.675732,160.48043 v -0.735 c -0.56,-0.7875 -1.47,-1.26 -2.45,-1.26 -2.1875,0 -3.6575,1.645 -3.6575,4.1125 0,2.4675 1.47,4.1125 3.6575,4.1125 0.91,0 1.7675,-0.455 2.275,-1.2075 v -0.735 c -0.595,0.8925 -1.2075,1.2075 -2.275,1.2075 -1.26,0 -2.1175,-1.3475 -2.1175,-3.3775 0,-2.03 0.8575,-3.3775 2.1175,-3.3775 1.085,0 1.82,0.385 2.45,1.26 z"
         style="font-size:17.5px;line-height:10"
         id="path118" />
      <path
         d="m 92.863214,168.54793 v -0.875 h -8.75 v 0.875 z"
         style="font-size:17.5px;line-height:10"
         id="path120" />
      <path
         d="m 98.620681,159.74543 v -1.085 c -0.1925,-0.07 -0.4025,-0.1225 -0.595,-0.1225 -0.98,0 -1.7675,0.6825 -2.3975,1.435 v -1.3125 h -1.365 v 7.875 h 1.365 v -5.8275 c 0.525,-0.6125 1.19,-1.1375 1.995,-1.1375 0.3325,0 0.6825,0.07 0.9975,0.175 z"
         style="font-size:17.5px;line-height:10"
         id="path122" />
      <path
         d="m 106.70566,162.77293 v -0.175 c 0,-2.4675 -1.3475,-4.1125 -3.3775,-4.1125 -2.0475,0 -3.394996,1.645 -3.394996,4.1125 0,2.4675 1.347496,4.1125 3.394996,4.1125 0.875,0 1.7325,-0.28 2.45,-0.7875 v -0.735 c -0.8225,0.525 -1.4875,0.7175 -2.45,0.7175 -1.4875,0 -1.855,-1.4175 -1.855,-3.1325 z m -1.54,-0.735 h -3.6925 c 0,-1.4 0.595,-2.8175 1.855,-2.8175 1.2425,0 1.8375,1.4175 1.8375,2.8175 z"
         style="font-size:17.5px;line-height:10"
         id="path124" />
      <path
         d="m 115.31564,167.58543 v -8.925 h -1.365 v 0.2975 c -0.6825,-0.2975 -1.4175,-0.4725 -2.1525,-0.4725 -2.1875,0 -3.255,1.75 -3.255,4.1125 0,2.3275 0.875,4.1125 2.9925,4.1125 0.8925,0 1.715,-0.4025 2.415,-0.9625 v 1.8375 c 0,1.2075 -0.665,2.345 -1.75,2.345 -0.8925,0 -1.785,-0.175 -2.625,-0.4725 v 0.5425 c 0.98,0.455 2.065,0.735 3.15,0.735 1.54,0 2.59,-1.505 2.59,-3.15 z m -1.365,-2.5725 c -0.525,0.525 -1.1725,0.9625 -1.925,0.9625 -1.5925,0 -1.9425,-1.54 -1.9425,-3.3775 0,-1.645 0.5075,-3.3775 1.9425,-3.3775 0.665,0 1.33,0.175 1.925,0.4725 z"
         style="font-size:17.5px;line-height:10"
         id="path126" />
      <path
         d="m 121.23063,170.56043 c -1.2775,-2.835 -1.75,-5.0225 -1.75,-8.1375 0,-3.115 0.4725,-5.3025 1.75,-8.1375 h -0.735 c -1.7325,2.695 -2.38,4.935 -2.38,8.1375 0,3.2025 0.6475,5.4425 2.38,8.1375 z"
         style="font-size:17.5px;line-height:10"
         id="path128" />
      <path
         d="m 127.88061,166.53543 v -12.075 h -1.015 c -0.9625,1.1025 -2.1,2.0475 -3.36,2.7825 v 0.735 c 1.0675,-0.5075 2.065,-1.1025 3.01,-1.82 v 10.3775 z"
         style="font-size:17.5px;line-height:10"
         id="path130" />
      <path
         d="m 135.2831,162.42293 c 0,-3.2025 -0.6475,-5.4425 -2.38,-8.1375 h -0.735 c 1.2775,2.835 1.75,5.0225 1.75,8.1375 0,3.115 -0.4725,5.3025 -1.75,8.1375 h 0.735 c 1.7325,-2.695 2.38,-4.935 2.38,-8.1375 z"
         style="font-size:17.5px;line-height:10"
         id="path132" />
    </g>
    <path
       style="fill:none;fill-rule:evenodd;stroke:#000000;stroke-width:1px;stroke-linecap:butt;stroke-linejoin:miter;stroke-opacity:1"
       d="m 141.73229,170.07873 h 141.73228 l 3.54328,-21.25984 h 336.6142 l 3.54328,21.25984 h 63.77955"
       id="path3464" />
    <g
       aria-label="status_o"
       id="text32"
       style="line-height:0%;font-family:Iwona;-inkscape-font-specification:Iwona;text-align:end;letter-spacing:0px;word-spacing:0px;text-anchor:end;stroke-width:1px">
      <path
         d="m 81.663244,270.59472 c 0,-1.3825 -1.47,-2.1 -2.905,-2.45 -0.84,-0.21 -1.75,-0.56 -1.75,-1.3825 0,-0.7525 0.77,-1.2425 1.61,-1.2425 0.9275,0 1.855,0.28 2.625,0.7875 v -0.735 c -0.77,-0.5075 -1.6975,-0.7875 -2.625,-0.7875 -1.5225,0 -2.9225,0.9275 -2.9225,2.345 0,1.2775 1.4175,1.8725 2.765,2.205 0.9275,0.2275 1.89,0.7175 1.89,1.61 0,0.8225 -0.84,1.33 -1.7325,1.33 -1.085,0 -2.135,-0.2625 -3.0625,-0.7875 v 0.735 c 0.9275,0.525 1.9775,0.7875 3.0625,0.7875 1.575,0 3.045,-0.945 3.045,-2.415 z"
         style="font-size:17.5px;line-height:10"
         id="path135" />
      <path
         d="m 87.560726,272.22222 v -0.525 c -0.28,0.28 -0.6125,0.5075 -1.015,0.5075 -0.63,0 -0.665,-0.8225 -0.665,-1.5575 v -4.9525 h 1.68 v -0.735 h -1.68 v -2.625 h -0.8225 c 0,1.4 -0.805,2.7125 -2.0825,2.7125 v 0.6475 h 1.54 v 4.9525 c 0,1.155 0.3675,2.3625 1.365,2.3625 0.6475,0 1.2075,-0.35 1.68,-0.7875 z"
         style="font-size:17.5px;line-height:10"
         id="path137" />
      <path
         d="m 95.645701,272.83472 v -4.9 c 0,-1.645 -1.015,-3.15 -2.5375,-3.15 -1.12,0 -2.17,0.385 -3.115,0.98 v 0.5425 c 0.7875,-0.4375 1.6625,-0.7175 2.5725,-0.7175 1.085,0 1.715,1.155 1.715,2.345 v 0.315 c -0.6825,-0.2975 -1.4175,-0.4725 -2.1525,-0.4725 -1.8725,0 -3.255,0.8575 -3.255,2.625 0,1.68 1.225,2.6075 2.9925,2.6075 0.8925,0 1.715,-0.4025 2.415,-0.9625 v 0.7875 z m -1.365,-1.5225 c -0.525,0.525 -1.1725,0.9625 -1.925,0.9625 -1.1725,0 -1.9425,-0.7175 -1.9425,-1.8725 0,-1.0675 0.875,-1.89 1.9425,-1.89 0.665,0 1.33,0.175 1.925,0.4725 z"
         style="font-size:17.5px;line-height:10"
         id="path139" />
      <path
         d="m 102.15569,272.22222 v -0.525 c -0.28,0.28 -0.6125,0.5075 -1.015,0.5075 -0.63,0 -0.665,-0.8225 -0.665,-1.5575 v -4.9525 h 1.68 v -0.735 h -1.68 v -2.625 h -0.822504 c 0,1.4 -0.805,2.7125 -2.0825,2.7125 v 0.6475 h 1.54 v 4.9525 c 0,1.155 0.3675,2.3625 1.365004,2.3625 0.6475,0 1.2075,-0.35 1.68,-0.7875 z"
         style="font-size:17.5px;line-height:10"
         id="path141" />
      <path
         d="m 110.32816,272.83472 v -7.875 h -1.365 v 6.1775 c -0.595,0.595 -1.33,1.0675 -2.1525,1.0675 -0.8225,0 -1.4525,-0.7175 -1.4525,-1.5575 v -5.6875 h -1.365 v 5.6875 c 0,1.2775 0.98,2.3625 2.24,2.3625 1.05,0 1.9775,-0.595 2.73,-1.33 v 1.155 z"
         style="font-size:17.5px;line-height:10"
         id="path143" />
      <path
         d="m 118.44813,270.59472 c 0,-1.3825 -1.47,-2.1 -2.905,-2.45 -0.84,-0.21 -1.75,-0.56 -1.75,-1.3825 0,-0.7525 0.77,-1.2425 1.61,-1.2425 0.9275,0 1.855,0.28 2.625,0.7875 v -0.735 c -0.77,-0.5075 -1.6975,-0.7875 -2.625,-0.7875 -1.5225,0 -2.9225,0.9275 -2.9225,2.345 0,1.2775 1.4175,1.8725 2.765,2.205 0.9275,0.2275 1.89,0.7175 1.89,1.61 0,0.8225 -0.84,1.33 -1.7325,1.33 -1.085,0 -2.135,-0.2625 -3.0625,-0.7875 v 0.735 c 0.9275,0.525 1.9775,0.7875 3.0625,0.7875 1.575,0 3.045,-0.945 3.045,-2.415 z"
         style="font-size:17.5px;line-height:10"
         id="path145" />
      <path
         d="m 127.98561,274.84722 v -0.875 h -8.75 v 0.875 z"
         style="font-size:17.5px;line-height:10"
         id="path147" />
      <path
         d="m 135.72058,268.89722 c 0,-2.6775 -1.19,-4.1125 -3.3775,-4.1125 -2.205,0 -3.395,1.435 -3.395,4.1125 0,2.6775 1.19,4.1125 3.395,4.1125 2.1875,0 3.3775,-1.435 3.3775,-4.1125 z m -1.54,0 c 0,2.1875 -0.6475,3.3775 -1.8375,3.3775 -1.2075,0 -1.855,-1.19 -1.855,-3.3775 0,-2.1875 0.6475,-3.3775 1.855,-3.3775 1.19,0 1.8375,1.19 1.8375,3.3775 z"
         style="font-size:17.5px;line-height:10"
         id="path149" />
    </g>
    <path
       style="fill:none;fill-rule:evenodd;stroke:#000000;stroke-width:1px;stroke-linecap:butt;stroke-linejoin:miter;stroke-opacity:1"
       d="m 141.73229,276.37801 h 113.38582 l 3.54328,-21.25984 h 336.6142 l 3.54328,21.25984 h 92.12601"
       id="path34" />
  </g>
</svg>
