<?xml version="1.0" encoding="UTF-8" standalone="no"?>
<!-- Created with Inkscape (http://www.inkscape.org/) -->

<svg
   width="91.247437mm"
   height="36.28223mm"
   viewBox="0 0 323.31772 128.55909"
   id="svg2"
   version="1.1"
   xmlns="http://www.w3.org/2000/svg"
   xmlns:svg="http://www.w3.org/2000/svg"
   xmlns:rdf="http://www.w3.org/1999/02/22-rdf-syntax-ns#"
   xmlns:cc="http://creativecommons.org/ns#"
   xmlns:dc="http://purl.org/dc/elements/1.1/">
  <defs
     id="defs4">
    <marker
       orient="auto"
       refY="0"
       refX="0"
       id="marker8962"
       style="overflow:visible">
      <path
         id="path8964"
         d="m -2.5,-1 c 0,2.76 -2.24,5 -5,5 -2.76,0 -5,-2.24 -5,-5 0,-2.76 2.24,-5 5,-5 2.76,0 5,2.24 5,5 z"
         style="fill:#000000;fill-opacity:1;fill-rule:evenodd;stroke:#000000;stroke-width:1.00000003pt;stroke-opacity:1"
         transform="matrix(0.4,0,0,0.4,2.96,0.4)" />
    </marker>
    <marker
       orient="auto"
       refY="0"
       refX="0"
       id="Arrow1Mend-3"
       style="overflow:visible">
      <path
         id="path17924-5"
         d="M 0,0 5,-5 -12.5,0 5,5 Z"
         style="fill-rule:evenodd;stroke:#000000;stroke-width:1.00000003pt;marker-start:none"
         transform="matrix(-0.4,0,0,-0.4,-4,0)" />
    </marker>
    <marker
       orient="auto"
       refY="0"
       refX="0"
       id="Arrow1Mend-3-52-0"
       style="overflow:visible">
      <path
         id="path17924-5-0-6"
         d="M 0,0 5,-5 -12.5,0 5,5 Z"
         style="fill-rule:evenodd;stroke:#000000;stroke-width:1.00000003pt;marker-start:none"
         transform="matrix(-0.4,0,0,-0.4,-4,0)" />
    </marker>
    <marker
       orient="auto"
       refY="0"
       refX="0"
       id="Arrow1Mend-3-52-0-8"
       style="overflow:visible">
      <path
         id="path17924-5-0-6-4"
         d="M 0,0 5,-5 -12.5,0 5,5 Z"
         style="fill-rule:evenodd;stroke:#000000;stroke-width:1.00000003pt;marker-start:none"
         transform="matrix(-0.4,0,0,-0.4,-4,0)" />
    </marker>
    <marker
       orient="auto"
       refY="0"
       refX="0"
       id="marker8962-7"
       style="overflow:visible">
      <path
         id="path8964-3"
         d="m -2.5,-1 c 0,2.76 -2.24,5 -5,5 -2.76,0 -5,-2.24 -5,-5 0,-2.76 2.24,-5 5,-5 2.76,0 5,2.24 5,5 z"
         style="fill:#000000;fill-opacity:1;fill-rule:evenodd;stroke:#000000;stroke-width:1.00000003pt;stroke-opacity:1"
         transform="matrix(0.4,0,0,0.4,2.96,0.4)" />
    </marker>
    <marker
       orient="auto"
       refY="0"
       refX="0"
       id="Arrow1Mend-3-1"
       style="overflow:visible">
      <path
         id="path17924-5-5"
         d="M 0,0 5,-5 -12.5,0 5,5 Z"
         style="fill-rule:evenodd;stroke:#000000;stroke-width:1.00000003pt;marker-start:none"
         transform="matrix(-0.4,0,0,-0.4,-4,0)" />
    </marker>
  </defs>
  <metadata
     id="metadata7">
    <rdf:RDF>
      <cc:Work
         rdf:about="">
        <dc:format>image/svg+xml</dc:format>
        <dc:type
           rdf:resource="http://purl.org/dc/dcmitype/StillImage" />
        <dc:title />
      </cc:Work>
    </rdf:RDF>
  </metadata>
  <g
     id="layer1"
     transform="translate(-13.140928,-158.94885)">
    <g
       id="g3921"
       transform="translate(-70.866078,98.712581)">
      <path
         id="path3923"
         d="m 191.33858,152.86224 c 7.0866,8.5039 7.0866,19.8426 0,28.3465 7.0866,0 21.2598,0 28.3464,-14.1733 -7.0866,-14.1732 -21.2598,-14.1732 -28.3464,-14.1732 z"
         style="fill:#ffeeaa;fill-rule:evenodd;stroke:#000000;stroke-width:1px;stroke-linecap:butt;stroke-linejoin:miter;stroke-opacity:1" />
      <path
         style="fill:none;stroke:#000000;stroke-width:1px;stroke-linecap:butt;stroke-linejoin:miter;stroke-opacity:1;marker-end:url(#Arrow1Mend-3-52-0)"
         d="m 219.68499,167.03548 21.25984,-1e-5"
         id="path3925" />
    </g>
    <g
       id="g7748"
       transform="translate(-3.5433051,-10.629919)">
      <g
         aria-label="a_i"
         id="text4014"
         style="line-height:0%;font-family:Iwona;-inkscape-font-specification:Iwona;text-align:end;letter-spacing:0px;word-spacing:0px;text-anchor:end;stroke-width:1px">
        <path
           d="m 29.574732,187.7953 v -4.2 c 0,-1.41 -0.87,-2.7 -2.175,-2.7 -0.96,0 -1.86,0.33 -2.67,0.84 v 0.465 c 0.675,-0.375 1.425,-0.615 2.205,-0.615 0.93,0 1.47,0.99 1.47,2.01 v 0.27 c -0.585,-0.255 -1.215,-0.405 -1.845,-0.405 -1.605,0 -2.79,0.735 -2.79,2.25 0,1.44 1.05,2.235 2.565,2.235 0.765,0 1.47,-0.345 2.07,-0.825 v 0.675 z m -1.17,-1.305 c -0.45,0.45 -1.005,0.825 -1.65,0.825 -1.005,0 -1.665,-0.615 -1.665,-1.605 0,-0.915 0.75,-1.62 1.665,-1.62 0.57,0 1.14,0.15 1.65,0.405 z"
           style="font-size:15px;line-height:1.25"
           id="path67" />
        <path
           d="m 38.274719,189.5203 v -0.75 h -7.5 v 0.75 z"
           style="font-size:15px;line-height:1.25"
           id="path69" />
        <path
           d="m 42.219691,187.2703 v -0.45 c -0.285,0.24 -0.615,0.435 -0.99,0.435 -0.555,0 -0.66,-0.69 -0.66,-1.335 v -4.875 h -1.17 v 4.875 c 0,1.005 0.39,2.025 1.275,2.025 0.57,0 1.11,-0.285 1.545,-0.675 z m -1.5,-8.565 c 0,-0.405 -0.33,-0.735 -0.735,-0.735 -0.405,0 -0.735,0.33 -0.735,0.735 0,0.405 0.33,0.735 0.735,0.735 0.405,0 0.735,-0.33 0.735,-0.735 z"
           style="font-size:15px;line-height:1.25"
           id="path71" />
      </g>
      <path
         id="path3179"
         d="m 46.062983,177.16538 v 14.17324 h 10.62992 l 7.08662,-7.08663 -7.08662,-7.08661 z"
         style="fill:#afdde9;fill-opacity:1;fill-rule:evenodd;stroke:#000000;stroke-width:1px;stroke-linecap:butt;stroke-linejoin:miter;stroke-opacity:1" />
    </g>
    <g
       id="g7753"
       transform="translate(-3.5433051,7.0865408)">
      <g
         aria-label="b_i"
         id="text4022"
         style="line-height:0%;font-family:Iwona;-inkscape-font-specification:Iwona;text-align:end;letter-spacing:0px;word-spacing:0px;text-anchor:end;stroke-width:1px">
        <path
           d="m 29.949729,209.22345 c 0,-1.995 -0.75,-3.525 -2.565,-3.525 -0.765,0 -1.47,0.345 -2.07,0.825 v -4.425 h -1.17 v 10.5 h 1.17 v -0.345 c 0.57,0.3 1.2,0.495 1.845,0.495 1.875,0 2.79,-1.5 2.79,-3.525 z m -1.32,0 c 0,1.41 -0.435,2.895 -1.665,2.895 -0.585,0 -1.155,-0.195 -1.65,-0.495 v -4.47 c 0.45,-0.45 1.005,-0.825 1.65,-0.825 1.365,0 1.665,1.32 1.665,2.895 z"
           style="font-size:15px;line-height:1.25"
           id="path74" />
        <path
           d="m 38.274719,214.32345 v -0.75 h -7.5 v 0.75 z"
           style="font-size:15px;line-height:1.25"
           id="path76" />
        <path
           d="m 42.219691,212.07345 v -0.45 c -0.285,0.24 -0.615,0.435 -0.99,0.435 -0.555,0 -0.66,-0.69 -0.66,-1.335 v -4.875 h -1.17 v 4.875 c 0,1.005 0.39,2.025 1.275,2.025 0.57,0 1.11,-0.285 1.545,-0.675 z m -1.5,-8.565 c 0,-0.405 -0.33,-0.735 -0.735,-0.735 -0.405,0 -0.735,0.33 -0.735,0.735 0,0.405 0.33,0.735 0.735,0.735 0.405,0 0.735,-0.33 0.735,-0.735 z"
           style="font-size:15px;line-height:1.25"
           id="path78" />
      </g>
      <path
         style="fill:#afdde9;fill-opacity:1;fill-rule:evenodd;stroke:#000000;stroke-width:1px;stroke-linecap:butt;stroke-linejoin:miter;stroke-opacity:1"
         d="m 46.062983,201.96853 v 14.17324 h 10.62992 l 7.08662,-7.08663 -7.08662,-7.08661 z"
         id="path7716" />
    </g>
    <g
       id="g7758"
       transform="translate(-3.5433069,38.976307)">
      <path
         id="path7718"
         d="m 46.062983,226.77168 v 14.17324 h 10.62992 l 7.08662,-7.08663 -7.08662,-7.08661 z"
         style="fill:#afdde9;fill-opacity:1;fill-rule:evenodd;stroke:#000000;stroke-width:1px;stroke-linecap:butt;stroke-linejoin:miter;stroke-opacity:1" />
      <g
         aria-label="c_i"
         id="text7720"
         style="line-height:0%;font-family:Iwona;-inkscape-font-specification:Iwona;text-align:end;letter-spacing:0px;word-spacing:0px;text-anchor:end;stroke-width:1px">
        <path
           d="m 30.399735,232.21161 v -0.63 c -0.48,-0.675 -1.26,-1.08 -2.1,-1.08 -1.875,0 -3.135,1.41 -3.135,3.525 0,2.115 1.26,3.525 3.135,3.525 0.78,0 1.515,-0.39 1.95,-1.035 v -0.63 c -0.51,0.765 -1.035,1.035 -1.95,1.035 -1.08,0 -1.815,-1.155 -1.815,-2.895 0,-1.74 0.735,-2.895 1.815,-2.895 0.93,0 1.56,0.33 2.1,1.08 z"
           style="font-size:15px;line-height:1.25"
           id="path81" />
        <path
           d="m 38.274719,239.12661 v -0.75 h -7.5 v 0.75 z"
           style="font-size:15px;line-height:1.25"
           id="path83" />
        <path
           d="m 42.219691,236.87661 v -0.45 c -0.285,0.24 -0.615,0.435 -0.99,0.435 -0.555,0 -0.66,-0.69 -0.66,-1.335 v -4.875 h -1.17 v 4.875 c 0,1.005 0.39,2.025 1.275,2.025 0.57,0 1.11,-0.285 1.545,-0.675 z m -1.5,-8.565 c 0,-0.405 -0.33,-0.735 -0.735,-0.735 -0.405,0 -0.735,0.33 -0.735,0.735 0,0.405 0.33,0.735 0.735,0.735 0.405,0 0.735,-0.33 0.735,-0.735 z"
           style="font-size:15px;line-height:1.25"
           id="path85" />
      </g>
    </g>
    <g
       id="g7736"
       transform="translate(-67.32278,63.279333)">
      <g
         id="g7738"
         transform="translate(-3.5433568,0.50015174)">
        <path
           id="path7740"
           d="m 216.14173,159.44882 24.80314,-1e-5"
           style="fill:none;stroke:#000000;stroke-width:1px;stroke-linecap:butt;stroke-linejoin:miter;stroke-opacity:1;marker-end:url(#Arrow1Mend-3)" />
        <path
           id="path7742"
           d="m 194.88193,145.27559 v 28.3466 h 3.515 c 7.1149,-1e-4 17.7448,-3.5435 17.7167,-14.1733 -0.028,-10.63 -10.6018,-14.1733 -17.7167,-14.1733 z"
           style="fill:#ffeeaa;fill-rule:evenodd;stroke:#000000;stroke-width:1px;stroke-linecap:butt;stroke-linejoin:miter;stroke-opacity:1" />
        <path
           style="fill:none;stroke:#000000;stroke-width:1px;stroke-linecap:butt;stroke-linejoin:miter;stroke-opacity:1;marker-end:url(#Arrow1Mend-3)"
           d="m 131.10235,152.3622 h 63.77953"
           id="path7744" />
        <path
           id="path7746"
           d="m 166.53543,209.05512 v -42.51969 h 28.34645"
           style="fill:none;stroke:#000000;stroke-width:1px;stroke-linecap:butt;stroke-linejoin:miter;stroke-opacity:1;marker-start:url(#marker8962);marker-end:url(#Arrow1Mend-3)" />
        <path
           id="path10796"
           d="m 131.10235,209.05515 h 63.77953"
           style="fill:none;stroke:#000000;stroke-width:1px;stroke-linecap:butt;stroke-linejoin:miter;stroke-opacity:1;marker-end:url(#Arrow1Mend-3)" />
      </g>
      <path
         id="path7746-0"
         d="m 145.27554,152.86238 v 42.51969 h 46.06298"
         style="fill:none;stroke:#000000;stroke-width:1px;stroke-linecap:butt;stroke-linejoin:miter;stroke-opacity:1;marker-start:url(#marker8962-7);marker-end:url(#Arrow1Mend-3-1)" />
    </g>
    <g
       id="g11023"
       transform="translate(14.173249,21.259869)">
      <g
         aria-label="m_o"
         id="text4018"
         style="line-height:0%;font-family:Iwona;-inkscape-font-specification:Iwona;letter-spacing:0px;word-spacing:0px;stroke-width:1px">
        <path
           d="m 299.94118,226.77161 v -4.875 c 0,-1.05 -0.615,-2.025 -1.59,-2.025 -0.84,0 -1.62,0.435 -2.07,1.14 -0.24,-0.66 -0.75,-1.14 -1.44,-1.14 -0.78,0 -1.41,0.54 -1.92,1.14 v -0.99 h -1.17 v 6.75 h 1.17 v -5.31 c 0.36,-0.465 0.81,-0.9 1.395,-0.9 0.615,0 0.945,0.66 0.945,1.335 v 4.875 h 1.17 v -4.875 c 0,-0.18 -0.015,-0.345 -0.045,-0.525 0.36,-0.465 0.855,-0.81 1.44,-0.81 0.615,0 0.945,0.66 0.945,1.335 v 4.875 z"
           style="font-size:15px;line-height:1.25"
           id="path88" />
        <path
           d="m 308.56615,228.49661 v -0.75 h -7.5 v 0.75 z"
           style="font-size:15px;line-height:1.25"
           id="path90" />
        <path
           d="m 315.19612,223.39661 c 0,-2.295 -1.02,-3.525 -2.895,-3.525 -1.89,0 -2.91,1.23 -2.91,3.525 0,2.295 1.02,3.525 2.91,3.525 1.875,0 2.895,-1.23 2.895,-3.525 z m -1.32,0 c 0,1.875 -0.555,2.895 -1.575,2.895 -1.035,0 -1.59,-1.02 -1.59,-2.895 0,-1.875 0.555,-2.895 1.59,-2.895 1.02,0 1.575,1.02 1.575,2.895 z"
           style="font-size:15px;line-height:1.25"
           id="path92" />
      </g>
      <path
         id="path3179-8"
         d="m 269.29133,216.14169 v 14.17324 h 10.62993 l 7.08662,-7.08663 -7.08662,-7.08661 z"
         style="fill:#afdde9;fill-opacity:1;fill-rule:evenodd;stroke:#000000;stroke-width:1px;stroke-linecap:butt;stroke-linejoin:miter;stroke-opacity:1" />
    </g>
    <path
       style="fill:#afdde9;fill-opacity:1;fill-rule:evenodd;stroke:#000000;stroke-width:1px;stroke-linecap:butt;stroke-linejoin:miter;stroke-opacity:1"
       d="m 170.07874,216.14169 v 14.17323 h 14.17324 v -14.17323 z"
       id="path8950" />
    <path
       id="path8952"
       d="m 170.07873,258.66137 v 14.17323 h 14.17324 v -14.17323 z"
       style="fill:#afdde9;fill-opacity:1;fill-rule:evenodd;stroke:#000000;stroke-width:1px;stroke-linecap:butt;stroke-linejoin:miter;stroke-opacity:1" />
    <g
       aria-label="bnc"
       id="text8954"
       style="line-height:0%;font-family:Iwona;-inkscape-font-specification:Iwona;text-align:center;letter-spacing:0px;word-spacing:0px;text-anchor:middle;stroke-width:1px">
      <path
         d="m 173.16039,209.22339 c 0,-1.995 -0.75,-3.525 -2.565,-3.525 -0.765,0 -1.47,0.345 -2.07,0.825 v -4.425 h -1.17 v 10.5 h 1.17 v -0.345 c 0.57,0.3 1.2,0.495 1.845,0.495 1.875,0 2.79,-1.5 2.79,-3.525 z m -1.32,0 c 0,1.41 -0.435,2.895 -1.665,2.895 -0.585,0 -1.155,-0.195 -1.65,-0.495 v -4.47 c 0.45,-0.45 1.005,-0.825 1.65,-0.825 1.365,0 1.665,1.32 1.665,2.895 z"
         style="font-size:15px;line-height:1.25"
         id="path95" />
      <path
         d="m 180.61538,212.59839 v -4.875 c 0,-1.095 -0.84,-2.025 -1.92,-2.025 -0.9,0 -1.695,0.51 -2.34,1.14 v -0.99 h -1.17 v 6.75 h 1.17 v -5.295 c 0.51,-0.51 1.14,-0.915 1.845,-0.915 0.705,0 1.245,0.615 1.245,1.335 v 4.875 z"
         style="font-size:15px;line-height:1.25"
         id="path97" />
      <path
         d="m 187.80035,207.40839 v -0.63 c -0.48,-0.675 -1.26,-1.08 -2.1,-1.08 -1.875,0 -3.135,1.41 -3.135,3.525 0,2.115 1.26,3.525 3.135,3.525 0.78,0 1.515,-0.39 1.95,-1.035 v -0.63 c -0.51,0.765 -1.035,1.035 -1.95,1.035 -1.08,0 -1.815,-1.155 -1.815,-2.895 0,-1.74 0.735,-2.895 1.815,-2.895 0.93,0 1.56,0.33 2.1,1.08 z"
         style="font-size:15px;line-height:1.25"
         id="path99" />
    </g>
    <g
       aria-label="brc"
       id="text8958"
       style="line-height:0%;font-family:Iwona;-inkscape-font-specification:Iwona;text-align:center;letter-spacing:0px;word-spacing:0px;text-anchor:middle;stroke-width:1px">
      <path
         d="m 174.42038,251.74306 c 0,-1.995 -0.75,-3.525 -2.565,-3.525 -0.765,0 -1.47,0.345 -2.07,0.825 v -4.425 h -1.17 v 10.5 h 1.17 v -0.345 c 0.57,0.3 1.2,0.495 1.845,0.495 1.875,0 2.79,-1.5 2.79,-3.525 z m -1.32,0 c 0,1.41 -0.435,2.895 -1.665,2.895 -0.585,0 -1.155,-0.195 -1.65,-0.495 v -4.47 c 0.45,-0.45 1.005,-0.825 1.65,-0.825 1.365,0 1.665,1.32 1.665,2.895 z"
         style="font-size:15px;line-height:1.25"
         id="path102" />
      <path
         d="m 180.18037,249.29806 v -0.93 c -0.165,-0.06 -0.345,-0.105 -0.51,-0.105 -0.84,0 -1.515,0.585 -2.055,1.23 v -1.125 h -1.17 v 6.75 h 1.17 v -4.995 c 0.45,-0.525 1.02,-0.975 1.71,-0.975 0.285,0 0.585,0.06 0.855,0.15 z"
         style="font-size:15px;line-height:1.25"
         id="path104" />
      <path
         d="m 186.54036,249.92806 v -0.63 c -0.48,-0.675 -1.26,-1.08 -2.1,-1.08 -1.875,0 -3.135,1.41 -3.135,3.525 0,2.115 1.26,3.525 3.135,3.525 0.78,0 1.515,-0.39 1.95,-1.035 v -0.63 c -0.51,0.765 -1.035,1.035 -1.95,1.035 -1.08,0 -1.815,-1.155 -1.815,-2.895 0,-1.74 0.735,-2.895 1.815,-2.895 0.93,0 1.56,0.33 2.1,1.08 z"
         style="font-size:15px;line-height:1.25"
         id="path106" />
    </g>
    <g
       id="g5016"
       transform="rotate(-90,17.531813,382.40046)">
      <path
         id="path5018"
         d="m 191.33859,588.18895 h -70.86615 l 14.17324,21.25984 h 42.51968 z"
         style="fill:#ffeeaa;fill-opacity:1;fill-rule:evenodd;stroke:#000000;stroke-width:1px;stroke-linecap:butt;stroke-linejoin:miter;stroke-opacity:1" />
      <g
         aria-label="0"
         transform="rotate(90)"
         id="text5020"
         style="font-style:italic;line-height:0%;font-family:Iwona;-inkscape-font-specification:'Sans Italic'">
        <path
           d="m 597.3786,-176.61061 c 0,-2.37 -0.73,-3.55 -2.19,-3.55 -1.46,0 -2.19,1.18 -2.19,3.55 0,2.37 0.73,3.55 2.19,3.55 1.46,0 2.19,-1.18 2.19,-3.55 z m -0.88,0 c 0,2.09 -0.44,3.13 -1.31,3.13 -0.87,0 -1.31,-1.04 -1.31,-3.13 0,-2.09 0.44,-3.13 1.31,-3.13 0.87,0 1.31,1.04 1.31,3.13 z"
           style="font-style:normal;font-size:10px;line-height:1.25;text-align:center;text-anchor:middle"
           id="path109" />
      </g>
      <g
         aria-label="1"
         transform="rotate(90)"
         id="text5024"
         style="font-style:italic;line-height:0%;font-family:Iwona;-inkscape-font-specification:'Sans Italic'">
        <path
           d="m 595.76338,-130.64093 v -6.9 h -0.58 c -0.55,0.63 -1.2,1.17 -1.92,1.59 v 0.42 c 0.61,-0.29 1.18,-0.63 1.72,-1.04 v 5.93 z"
           style="font-style:normal;font-size:10px;line-height:1.25;text-align:center;text-anchor:middle"
           id="path112" />
      </g>
    </g>
    <path
       style="fill:none;stroke:#000000;stroke-width:1px;stroke-linecap:butt;stroke-linejoin:miter;stroke-opacity:1;marker-end:url(#Arrow1Mend-3-52-0-8)"
       d="m 244.4882,244.48818 38.97638,-1e-5"
       id="path11021" />
    <path
       style="fill:none;stroke:#000000;stroke-width:1px;stroke-linecap:butt;stroke-linejoin:miter;stroke-opacity:1;marker-end:url(#Arrow1Mend-3-52-0-8)"
       d="m 60.23622,173.62203 173.62206,-1e-5 v 42.51969"
       id="path11028" />
    <path
       id="path9117"
       d="m 184.25196,223.22824 38.97638,-1e-5"
       style="fill:none;stroke:#000000;stroke-width:1px;stroke-linecap:butt;stroke-linejoin:miter;stroke-opacity:1;marker-end:url(#Arrow1Mend-3-52-0-8)" />
    <path
       id="path9119"
       d="m 184.25196,265.74791 38.9764,1.1e-4"
       style="fill:none;stroke:#000000;stroke-width:1px;stroke-linecap:butt;stroke-linejoin:miter;stroke-opacity:1;marker-end:url(#Arrow1Mend-3-52-0-8)" />
  </g>
</svg>
