<?xml version="1.0" encoding="UTF-8" standalone="no"?>
<!-- Created with Inkscape (http://www.inkscape.org/) -->

<svg
   width="191.14569mm"
   height="49.773083mm"
   viewBox="0 0 677.28787 176.36131"
   id="svg19691"
   version="1.1"
   xmlns="http://www.w3.org/2000/svg"
   xmlns:svg="http://www.w3.org/2000/svg"
   xmlns:rdf="http://www.w3.org/1999/02/22-rdf-syntax-ns#"
   xmlns:cc="http://creativecommons.org/ns#"
   xmlns:dc="http://purl.org/dc/elements/1.1/">
  <defs
     id="defs19693" />
  <metadata
     id="metadata19696">
    <rdf:RDF>
      <cc:Work
         rdf:about="">
        <dc:format>image/svg+xml</dc:format>
        <dc:type
           rdf:resource="http://purl.org/dc/dcmitype/StillImage" />
      </cc:Work>
    </rdf:RDF>
  </metadata>
  <g
     id="layer1"
     transform="translate(-13.657037,-26.042464)">
    <path
       id="path772"
       d="m 92.125984,97.408611 v 7.086609 h -3.54331 l 7.08661,7.08662 7.086616,-7.08662 h -3.543307 v -7.086609 z"
       style="fill:#80e5ff;fill-rule:evenodd;stroke:none;stroke-width:1px;stroke-linecap:butt;stroke-linejoin:miter;stroke-opacity:1" />
    <path
       style="fill:#80e5ff;fill-rule:evenodd;stroke:none;stroke-width:1px;stroke-linecap:butt;stroke-linejoin:miter;stroke-opacity:1"
       d="m 574.01575,97.408611 v 7.086609 h -3.54331 l 7.08661,7.08662 7.08662,-7.08662 h -3.54331 v -7.086609 z"
       id="path32318" />
    <path
       id="path32320"
       d="m 602.3622,97.408609 v 7.086611 h -3.54331 l 7.08661,7.08662 7.08662,-7.08662 h -3.54331 v -7.086611 z"
       style="fill:#80e5ff;fill-rule:evenodd;stroke:none;stroke-width:1px;stroke-linecap:butt;stroke-linejoin:miter;stroke-opacity:1" />
    <path
       style="fill:#80e5ff;fill-rule:evenodd;stroke:none;stroke-width:1px;stroke-linecap:butt;stroke-linejoin:miter;stroke-opacity:1"
       d="m 403.93701,97.408611 v 28.346449 h -3.54331 l 7.08661,7.08662 7.08662,-7.08662 h -3.54331 V 97.408611 Z"
       id="path32290" />
    <path
       id="path32292"
       d="m 432.28346,97.408611 v 28.346379 h -3.54331 l 7.08661,7.08662 7.08662,-7.08662 h -3.54331 V 97.408611 Z"
       style="fill:#80e5ff;fill-rule:evenodd;stroke:none;stroke-width:1px;stroke-linecap:butt;stroke-linejoin:miter;stroke-opacity:1" />
    <path
       style="fill:#80e5ff;fill-rule:evenodd;stroke:none;stroke-width:1px;stroke-linecap:butt;stroke-linejoin:miter;stroke-opacity:1"
       d="m 460.62992,97.408611 v 28.346449 h -3.54331 l 7.08661,7.08662 7.08662,-7.08662 h -3.54331 V 97.408611 Z"
       id="path32294" />
    <path
       id="path32296"
       d="m 488.97638,97.408611 v 28.346449 h -3.54331 l 7.08661,7.08662 7.08662,-7.08662 h -3.54331 V 97.408611 Z"
       style="fill:#80e5ff;fill-rule:evenodd;stroke:none;stroke-width:1px;stroke-linecap:butt;stroke-linejoin:miter;stroke-opacity:1" />
    <path
       id="path32298"
       d="m 517.32283,97.408609 v 28.346451 h -3.54331 l 7.08661,7.08662 7.08662,-7.08662 h -3.54331 V 97.408609 Z"
       style="fill:#80e5ff;fill-rule:evenodd;stroke:none;stroke-width:1px;stroke-linecap:butt;stroke-linejoin:miter;stroke-opacity:1" />
    <path
       style="fill:#80e5ff;fill-rule:evenodd;stroke:none;stroke-width:1px;stroke-linecap:butt;stroke-linejoin:miter;stroke-opacity:1"
       d="m 545.66929,97.408609 v 7.086611 h -3.54331 l 7.08661,7.08662 7.08662,-7.08662 h -3.54331 v -7.086611 z"
       id="path32300" />
    <path
       id="path32302"
       d="m 347.24409,97.408609 v 28.346381 h -3.54331 l 7.08661,7.08662 7.08662,-7.08662 H 354.3307 V 97.408609 Z"
       style="fill:#80e5ff;fill-rule:evenodd;stroke:none;stroke-width:1px;stroke-linecap:butt;stroke-linejoin:miter;stroke-opacity:1" />
    <path
       style="fill:#80e5ff;fill-rule:evenodd;stroke:none;stroke-width:1px;stroke-linecap:butt;stroke-linejoin:miter;stroke-opacity:1"
       d="m 375.59055,97.408611 v 28.346449 h -3.54331 l 7.08661,7.08662 7.08662,-7.08662 h -3.54331 V 97.408611 Z"
       id="path32304" />
    <path
       id="path32278"
       d="m 177.16536,97.408609 v 7.086611 h -3.54331 l 7.08661,7.08662 7.08662,-7.08662 h -3.54331 v -7.086611 z"
       style="fill:#80e5ff;fill-rule:evenodd;stroke:none;stroke-width:1px;stroke-linecap:butt;stroke-linejoin:miter;stroke-opacity:1" />
    <path
       style="fill:#80e5ff;fill-rule:evenodd;stroke:none;stroke-width:1px;stroke-linecap:butt;stroke-linejoin:miter;stroke-opacity:1"
       d="m 205.51181,97.408611 v 28.346449 h -3.54331 l 7.08661,7.08662 7.08662,-7.08662 h -3.54331 V 97.408611 Z"
       id="path32280" />
    <path
       id="path32282"
       d="m 233.85827,97.408609 v 28.346451 h -3.54331 l 7.08661,7.08662 7.08662,-7.08662 h -3.54331 V 97.408609 Z"
       style="fill:#80e5ff;fill-rule:evenodd;stroke:none;stroke-width:1px;stroke-linecap:butt;stroke-linejoin:miter;stroke-opacity:1" />
    <path
       style="fill:#80e5ff;fill-rule:evenodd;stroke:none;stroke-width:1px;stroke-linecap:butt;stroke-linejoin:miter;stroke-opacity:1"
       d="m 262.20473,97.408611 v 28.346379 h -3.54331 l 7.08661,7.08662 7.08662,-7.08662 h -3.54331 V 97.408611 Z"
       id="path32284" />
    <path
       style="fill:#80e5ff;fill-rule:evenodd;stroke:none;stroke-width:1px;stroke-linecap:butt;stroke-linejoin:miter;stroke-opacity:1"
       d="m 290.55118,97.408611 v 28.346449 h -3.54331 l 7.08661,7.08662 7.08662,-7.08662 h -3.54331 V 97.408611 Z"
       id="path32286" />
    <path
       id="path32288"
       d="m 318.89764,97.408611 v 28.346449 h -3.54331 l 7.08661,7.08662 7.08662,-7.08662 h -3.54331 V 97.408611 Z"
       style="fill:#80e5ff;fill-rule:evenodd;stroke:none;stroke-width:1px;stroke-linecap:butt;stroke-linejoin:miter;stroke-opacity:1" />
    <path
       style="fill:#80e5ff;fill-rule:evenodd;stroke:none;stroke-width:1px;stroke-linecap:butt;stroke-linejoin:miter;stroke-opacity:1"
       d="m 120.47244,97.408611 v 7.086609 h -3.54331 l 7.08661,7.08662 7.08662,-7.08662 h -3.54331 v -7.086609 z"
       id="path32274" />
    <path
       id="path32276"
       d="m 148.8189,97.408609 v 7.086611 h -3.54331 l 7.08661,7.08662 7.08662,-7.08662 h -3.54331 v -7.086611 z"
       style="fill:#80e5ff;fill-rule:evenodd;stroke:none;stroke-width:1px;stroke-linecap:butt;stroke-linejoin:miter;stroke-opacity:1" />
    <path
       id="path32306"
       d="m 630.70866,97.408609 v 7.086611 h -3.54331 l 7.08661,7.08662 7.08662,-7.08662 h -3.54331 v -7.086611 z"
       style="fill:#80e5ff;fill-rule:evenodd;stroke:none;stroke-width:1px;stroke-linecap:butt;stroke-linejoin:miter;stroke-opacity:1" />
    <path
       style="fill:#80e5ff;fill-rule:evenodd;stroke:none;stroke-width:1px;stroke-linecap:butt;stroke-linejoin:miter;stroke-opacity:1"
       d="m 659.05512,97.408609 v 28.346451 h -3.54331 l 7.08661,7.08662 7.08662,-7.08662 h -3.54331 V 97.408609 Z"
       id="path32308" />
    <g
       aria-label="cycle"
       id="text24487"
       style="line-height:0%;font-family:Iwona;-inkscape-font-specification:Iwona;text-align:end;letter-spacing:0px;word-spacing:0px;text-anchor:end;stroke-width:1px">
      <path
         d="m 52.891092,41.747307 v -0.735 c -0.56,-0.7875 -1.47,-1.26 -2.45,-1.26 -2.1875,0 -3.6575,1.645 -3.6575,4.1125 0,2.4675 1.47,4.1125 3.6575,4.1125 0.91,0 1.7675,-0.455 2.275,-1.2075 v -0.735 c -0.595,0.8925 -1.2075,1.2075 -2.275,1.2075 -1.26,0 -2.1175,-1.3475 -2.1175,-3.3775 0,-2.03 0.8575,-3.3775 2.1175,-3.3775 1.085,0 1.82,0.385 2.45,1.26 z"
         style="font-size:17.5px;line-height:10"
         id="path91" />
      <path
         d="m 60.976073,48.852307 v -8.925 h -1.365 v 6.1775 c -0.595,0.595 -1.33,1.0675 -2.1525,1.0675 -0.8225,0 -1.4525,-0.7175 -1.4525,-1.5575 v -5.6875 h -1.365 v 5.6875 c 0,1.2775 0.98,2.3625 2.24,2.3625 1.05,0 1.9775,-0.595 2.73,-1.33 v 2.205 c 0,1.1725 -0.525,2.345 -1.575,2.345 -0.8225,0 -1.61,-0.175 -2.3625,-0.4725 v 0.5425 c 0.8925,0.455 1.89,0.735 2.905,0.735 1.4875,0 2.3975,-1.54 2.3975,-3.15 z"
         style="font-size:17.5px;line-height:10"
         id="path93" />
      <path
         d="m 69.446042,41.747307 v -0.735 c -0.56,-0.7875 -1.47,-1.26 -2.45,-1.26 -2.1875,0 -3.6575,1.645 -3.6575,4.1125 0,2.4675 1.47,4.1125 3.6575,4.1125 0.91,0 1.7675,-0.455 2.275,-1.2075 v -0.735 c -0.595,0.8925 -1.2075,1.2075 -2.275,1.2075 -1.26,0 -2.1175,-1.3475 -2.1175,-3.3775 0,-2.03 0.8575,-3.3775 2.1175,-3.3775 1.085,0 1.82,0.385 2.45,1.26 z"
         style="font-size:17.5px;line-height:10"
         id="path95" />
      <path
         d="m 74.573525,47.189807 v -0.525 c -0.3325,0.28 -0.7175,0.5075 -1.155,0.5075 -0.6475,0 -0.77,-0.805 -0.77,-1.5575 v -10.0625 h -1.365 v 10.0625 c 0,1.1725 0.455,2.3625 1.4875,2.3625 0.665,0 1.295,-0.3325 1.8025,-0.7875 z"
         style="font-size:17.5px;line-height:10"
         id="path97" />
      <path
         d="m 82.658493,44.039807 v -0.175 c 0,-2.4675 -1.3475,-4.1125 -3.3775,-4.1125 -2.0475,0 -3.395,1.645 -3.395,4.1125 0,2.4675 1.3475,4.1125 3.395,4.1125 0.875,0 1.7325,-0.28 2.45,-0.7875 v -0.735 c -0.8225,0.525 -1.4875,0.7175 -2.45,0.7175 -1.4875,0 -1.855,-1.4175 -1.855,-3.1325 z m -1.54,-0.735 h -3.6925 c 0,-1.4 0.595,-2.8175 1.855,-2.8175 1.2425,0 1.8375,1.4175 1.8375,2.8175 z"
         style="font-size:17.5px;line-height:10"
         id="path99" />
    </g>
    <g
       aria-label="step_reg"
       id="text24491"
       style="line-height:0%;font-family:Iwona;-inkscape-font-specification:Iwona;text-align:end;letter-spacing:0px;word-spacing:0px;text-anchor:end;stroke-width:1px">
      <path
         d="m 26.851151,88.081999 c 0,-1.3825 -1.47,-2.1 -2.905,-2.45 -0.84,-0.21 -1.75,-0.56 -1.75,-1.3825 0,-0.7525 0.77,-1.2425 1.61,-1.2425 0.9275,0 1.855,0.28 2.625,0.7875 v -0.735 c -0.77,-0.5075 -1.6975,-0.7875 -2.625,-0.7875 -1.5225,0 -2.9225,0.9275 -2.9225,2.345 0,1.2775 1.4175,1.8725 2.765,2.205 0.9275,0.2275 1.89,0.7175 1.89,1.61 0,0.8225 -0.84,1.33 -1.7325,1.33 -1.085,0 -2.135,-0.2625 -3.0625,-0.7875 v 0.735 c 0.9275,0.525 1.9775,0.7875 3.0625,0.7875 1.575,0 3.045,-0.945 3.045,-2.415 z"
         style="font-size:17.5px;line-height:10"
         id="path102" />
      <path
         d="m 32.748633,89.709499 v -0.525 c -0.28,0.28 -0.6125,0.5075 -1.015,0.5075 -0.63,0 -0.665,-0.8225 -0.665,-1.5575 v -4.9525 h 1.68 v -0.735 h -1.68 v -2.625 h -0.8225 c 0,1.4 -0.805,2.7125 -2.0825,2.7125 v 0.6475 h 1.54 v 4.9525 c 0,1.155 0.3675,2.3625 1.365,2.3625 0.6475,0 1.2075,-0.35 1.68,-0.7875 z"
         style="font-size:17.5px;line-height:10"
         id="path104" />
      <path
         d="m 41.008608,86.559499 v -0.175 c 0,-2.4675 -1.3475,-4.1125 -3.3775,-4.1125 -2.0475,0 -3.395,1.645 -3.395,4.1125 0,2.4675 1.3475,4.1125 3.395,4.1125 0.875,0 1.7325,-0.28 2.45,-0.7875 v -0.735 c -0.8225,0.525 -1.4875,0.7175 -2.45,0.7175 -1.4875,0 -1.855,-1.4175 -1.855,-3.1325 z m -1.54,-0.735 h -3.6925 c 0,-1.4 0.595,-2.8175 1.855,-2.8175 1.2425,0 1.8375,1.4175 1.8375,2.8175 z"
         style="font-size:17.5px;line-height:10"
         id="path106" />
      <path
         d="m 49.968585,86.384499 c 0,-2.3275 -0.875,-4.1125 -2.9925,-4.1125 -0.8925,0 -1.715,0.4025 -2.415,0.9625 v -0.7875 h -1.365 v 11.9 h 1.365 v -4.3225 c 0.6825,0.2975 1.4175,0.4725 2.1525,0.4725 2.1875,0 3.255,-1.75 3.255,-4.1125 z m -1.54,0 c 0,1.645 -0.5075,3.3775 -1.9425,3.3775 -0.665,0 -1.33,-0.175 -1.925,-0.4725 v -5.32 c 0.525,-0.525 1.1725,-0.9625 1.925,-0.9625 1.5925,0 1.9425,1.54 1.9425,3.3775 z"
         style="font-size:17.5px;line-height:10"
         id="path108" />
      <path
         d="m 59.681055,92.334499 v -0.875 h -8.75 v 0.875 z"
         style="font-size:17.5px;line-height:10"
         id="path110" />
      <path
         d="m 65.438521,83.531999 v -1.085 c -0.1925,-0.07 -0.4025,-0.1225 -0.595,-0.1225 -0.98,0 -1.7675,0.6825 -2.3975,1.435 v -1.3125 h -1.365 v 7.875 h 1.365 v -5.8275 c 0.525,-0.6125 1.19,-1.1375 1.995,-1.1375 0.3325,0 0.6825,0.07 0.9975,0.175 z"
         style="font-size:17.5px;line-height:10"
         id="path112" />
      <path
         d="m 73.523504,86.559499 v -0.175 c 0,-2.4675 -1.3475,-4.1125 -3.3775,-4.1125 -2.0475,0 -3.395,1.645 -3.395,4.1125 0,2.4675 1.3475,4.1125 3.395,4.1125 0.875,0 1.7325,-0.28 2.45,-0.7875 v -0.735 c -0.8225,0.525 -1.4875,0.7175 -2.45,0.7175 -1.4875,0 -1.855,-1.4175 -1.855,-3.1325 z m -1.54,-0.735 h -3.6925 c 0,-1.4 0.595,-2.8175 1.855,-2.8175 1.2425,0 1.8375,1.4175 1.8375,2.8175 z"
         style="font-size:17.5px;line-height:10"
         id="path114" />
      <path
         d="m 82.133481,91.371999 v -8.925 h -1.365 v 0.2975 c -0.6825,-0.2975 -1.4175,-0.4725 -2.1525,-0.4725 -2.1875,0 -3.255,1.75 -3.255,4.1125 0,2.3275 0.875,4.1125 2.9925,4.1125 0.8925,0 1.715,-0.4025 2.415,-0.9625 v 1.8375 c 0,1.2075 -0.665,2.345 -1.75,2.345 -0.8925,0 -1.785,-0.175 -2.625,-0.4725 v 0.5425 c 0.98,0.455 2.065,0.735 3.15,0.735 1.54,0 2.59,-1.505 2.59,-3.15 z m -1.365,-2.5725 c -0.525,0.525 -1.1725,0.9625 -1.925,0.9625 -1.5925,0 -1.9425,-1.54 -1.9425,-3.3775 0,-1.645 0.5075,-3.3775 1.9425,-3.3775 0.665,0 1.33,0.175 1.925,0.4725 z"
         style="font-size:17.5px;line-height:10"
         id="path116" />
    </g>
    <path
       style="fill:none;fill-rule:evenodd;stroke:#000000;stroke-width:1px;stroke-linecap:butt;stroke-linejoin:miter;stroke-opacity:1"
       d="M 88.582676,54.888921 H 113.38583 V 33.629078 h 7.08661 v 21.259843 h 21.25985 V 33.629078 h 7.08661 v 21.259843 h 21.25984 V 33.629078 h 7.08661 V 54.888921 H 198.4252 V 33.629078 h 7.08661 v 21.259843 h 21.25985 V 33.629078 h 7.08661 v 21.259843 h 21.25984 V 33.629078 h 7.08661 v 21.259843 h 21.25985 V 33.629078 h 7.08661 v 21.259843 h 21.25984 V 33.629078 h 7.08661 l 1e-5,21.259843 h 21.25984 V 33.629078 h 7.08661 v 21.259843 h 21.25985 V 33.629078 h 7.08661 V 54.888921 H 396.8504 V 33.629078 h 7.08661 v 21.259843 h 21.25985 V 33.629078 h 7.08661 v 21.259843 h 21.25984 V 33.629078 h 7.08661 v 21.259843 h 21.25985 V 33.629078 h 7.08661 v 21.259843 h 21.25984 V 33.629078 h 7.08661 v 21.259843 h 21.25984 V 33.629078 h 7.08661 l 1e-5,21.259843 h 21.25985 V 33.629078 h 7.08661 v 21.259843 h 21.25984 V 33.629078 h 7.08661 v 21.259843 h 21.25985 V 33.629078 h 7.08661 V 54.888921 H 651.9685 V 33.629078 h 7.08661 v 21.259843 h 24.80316"
       id="path29163" />
    <path
       id="path29175"
       d="m 88.582684,97.408609 h 28.346466 l 3.54328,-21.259843 h 24.80316 l 3.54328,21.259843 h 24.80318 l 3.54328,-21.259843 h 24.80316 l 3.54328,21.259843 h 24.8032 l 3.54328,-21.259843 h 24.80317 l 3.54328,21.259843 h 24.80318 l 3.54328,-21.259843 h 24.80316 l 3.54328,21.259843 h 24.8032 l 3.54328,-21.259843 h 24.80316 l 3.54328,21.259843 h 24.80318 l 3.54328,-21.259843 h 24.80316 l 3.54328,21.259843 h 24.8032 l 3.54328,-21.259843 h 24.80317 l 3.54328,21.259843 h 24.80318 l 3.54328,-21.259843 h 24.80316 l 3.54328,21.259843 h 24.80322 l 3.54328,-21.259843 h 24.80316 l 3.54328,21.259843 h 24.80318 l 3.54328,-21.259843 h 24.80316 l 3.54328,21.259843 h 24.80321"
       style="fill:none;fill-rule:evenodd;stroke:#000000;stroke-width:1px;stroke-linecap:butt;stroke-linejoin:miter;stroke-opacity:1" />
    <path
       style="fill:none;fill-rule:evenodd;stroke:#000000;stroke-width:1px;stroke-linecap:butt;stroke-linejoin:miter;stroke-opacity:1"
       d="m 88.582684,76.148766 h 28.346466 l 3.54328,21.259843 h 24.80316 l 3.54328,-21.259843 h 24.80318 l 3.54328,21.259843 h 24.80316 l 3.54328,-21.259843 h 24.8032 l 3.54328,21.259843 h 24.80317 l 3.54328,-21.259843 h 24.80318 l 3.54328,21.259843 h 24.80316 l 3.54328,-21.259843 h 24.8032 l 3.54328,21.259843 h 24.80316 l 3.54328,-21.259843 h 24.80318 l 3.54328,21.259843 h 24.80316 l 3.54328,-21.259843 h 24.8032 l 3.54328,21.259843 h 24.80317 l 3.54328,-21.259843 h 24.80318 l 3.54328,21.259843 h 24.80316 l 3.54328,-21.259843 h 24.80322 l 3.54328,21.259843 h 24.80316 l 3.54328,-21.259843 h 24.80318 l 3.54328,21.259843 h 24.80316 l 3.54328,-21.259843 h 24.80321"
       id="path29177" />
    <g
       aria-label="0"
       id="text29183"
       style="font-size:16.25px;line-height:0%;font-family:Iwona;-inkscape-font-specification:Iwona;letter-spacing:0px;word-spacing:0px;stroke-width:1px">
      <path
         d="m 99.958484,86.778691 c 0,-3.85125 -1.18625,-5.76875 -3.55875,-5.76875 -2.3725,0 -3.55875,1.9175 -3.55875,5.76875 0,3.85125 1.18625,5.76875 3.55875,5.76875 2.3725,0 3.55875,-1.9175 3.55875,-5.76875 z m -1.43,0 c 0,3.39625 -0.715,5.08625 -2.12875,5.08625 -1.41375,0 -2.12875,-1.69 -2.12875,-5.08625 0,-3.39625 0.715,-5.08625 2.12875,-5.08625 1.41375,0 2.12875,1.69 2.12875,5.08625 z"
         style="line-height:10"
         id="path119" />
    </g>
    <g
       aria-label="1"
       id="text29187"
       style="font-size:16.25px;line-height:0%;font-family:Iwona;-inkscape-font-specification:Iwona;letter-spacing:0px;word-spacing:0px;stroke-width:1px">
      <path
         d="m 129.37825,92.384941 v -11.2125 h -0.9425 c -0.89375,1.02375 -1.95,1.90125 -3.12,2.58375 v 0.6825 c 0.99125,-0.47125 1.9175,-1.02375 2.795,-1.69 v 9.63625 z"
         style="line-height:10"
         id="path122" />
    </g>
    <g
       aria-label="3"
       id="text29191"
       style="font-size:16.25px;line-height:0%;font-family:Iwona;-inkscape-font-specification:Iwona;letter-spacing:0px;word-spacing:0px;stroke-width:1px">
      <path
         d="m 160.08095,89.297441 c 0,-1.43 -1.0075,-2.665 -2.405,-3.0875 1.235,-0.3575 1.99875,-1.28375 1.99875,-2.51875 0,-1.60875 -1.3,-2.68125 -3.25,-2.68125 -1.05625,0 -2.08,0.3575 -2.90875,1.0075 v 0.6825 c 0.82875,-0.65 1.8525,-1.0075 2.90875,-1.0075 1.18625,0 1.9825,0.79625 1.9825,1.99875 0,1.93375 -0.89375,2.4375 -2.925,2.4375 v 0.60125 c 2.19375,0 3.16875,0.52 3.16875,2.5675 0,1.41375 -0.91,2.5675 -2.015,2.5675 -1.235,0 -2.4375,-0.3575 -3.46125,-1.0075 v 0.6825 c 1.02375,0.65 2.22625,1.0075 3.46125,1.0075 1.885,0 3.445,-1.4625 3.445,-3.25 z"
         style="line-height:10"
         id="path125" />
    </g>
    <g
       aria-label="3"
       id="text29195"
       style="font-size:16.25px;line-height:0%;font-family:Iwona;-inkscape-font-specification:Iwona;letter-spacing:0px;word-spacing:0px;stroke-width:1px">
      <path
         d="m 188.42741,89.297441 c 0,-1.43 -1.0075,-2.665 -2.405,-3.0875 1.235,-0.3575 1.99875,-1.28375 1.99875,-2.51875 0,-1.60875 -1.3,-2.68125 -3.25,-2.68125 -1.05625,0 -2.08,0.3575 -2.90875,1.0075 v 0.6825 c 0.82875,-0.65 1.8525,-1.0075 2.90875,-1.0075 1.18625,0 1.9825,0.79625 1.9825,1.99875 0,1.93375 -0.89375,2.4375 -2.925,2.4375 v 0.60125 c 2.19375,0 3.16875,0.52 3.16875,2.5675 0,1.41375 -0.91,2.5675 -2.015,2.5675 -1.235,0 -2.4375,-0.3575 -3.46125,-1.0075 v 0.6825 c 1.02375,0.65 2.22625,1.0075 3.46125,1.0075 1.885,0 3.445,-1.4625 3.445,-3.25 z"
         style="line-height:10"
         id="path128" />
    </g>
    <g
       aria-label="4"
       id="text29199"
       style="font-size:16.25px;line-height:0%;font-family:Iwona;-inkscape-font-specification:Iwona;letter-spacing:0px;word-spacing:0px;stroke-width:1px">
      <path
         d="m 216.77386,88.566187 v -0.7475 h -1.21875 v -6.565 h -1.2675 l -4.42,6.565 v 0.7475 h 4.42 v 3.9 h 1.2675 v -3.9 z m -2.48625,-0.7475 h -3.59125 l 3.59125,-5.34625 z"
         style="line-height:10"
         id="path131" />
    </g>
    <g
       aria-label="5"
       id="text29203"
       style="font-size:16.25px;line-height:0%;font-family:Iwona;-inkscape-font-specification:Iwona;letter-spacing:0px;word-spacing:0px;stroke-width:1px">
      <path
         d="m 245.12033,88.728691 c 0,-2.29125 -1.38125,-3.81875 -3.445,-3.81875 -0.9425,0 -1.82,0.3575 -2.5025,0.95875 l 0.1625,-3.68875 h 5.46 v -1.0075 h -6.09375 l -0.24375,5.60625 0.6825,0.0325 c 0.6175,-0.76375 1.54375,-1.21875 2.535,-1.21875 1.2025,0 2.015,1.25125 2.015,3.13625 0,1.885 -0.8125,3.13625 -2.015,3.13625 -1.25125,0 -2.47,-0.40625 -3.46125,-1.17 v 0.6825 c 0.99125,0.76375 2.21,1.17 3.46125,1.17 2.06375,0 3.445,-1.5275 3.445,-3.81875 z"
         style="line-height:10"
         id="path134" />
    </g>
    <g
       aria-label="6"
       id="text29207"
       style="font-size:16.25px;line-height:0%;font-family:Iwona;-inkscape-font-specification:Iwona;letter-spacing:0px;word-spacing:0px;stroke-width:1px">
      <path
         d="m 273.46677,88.809937 c 0,-2.34 -0.92625,-3.81875 -3.10375,-3.81875 -0.9425,0 -1.82,0.43875 -2.3725,1.18625 0,-2.12875 0.53625,-4.40375 2.3725,-4.40375 0.82875,0 1.64125,0.27625 2.29125,0.79625 v -0.6825 c -0.65,-0.52 -1.4625,-0.79625 -2.29125,-0.79625 -2.55125,0 -3.8025,2.8925 -3.8025,5.76875 0,4.03 1.04,5.76875 3.46125,5.76875 2.06375,0 3.445,-1.5275 3.445,-3.81875 z m -1.43,0 c 0,1.885 -0.8125,3.13625 -2.015,3.13625 -2.275,0 -2.03125,-2.45375 -2.03125,-5.08625 0.5525,-0.7475 1.43,-1.18625 2.3725,-1.18625 1.3,0 1.67375,1.625 1.67375,3.13625 z"
         style="line-height:10"
         id="path137" />
    </g>
    <g
       aria-label="7"
       id="text29211"
       style="font-size:16.25px;line-height:0%;font-family:Iwona;-inkscape-font-specification:Iwona;letter-spacing:0px;word-spacing:0px;stroke-width:1px">
      <path
         d="m 301.81323,81.724941 v -0.5525 h -6.90625 v 1.0075 h 5.2975 l -4.79375,10.205 h 1.3975 z"
         style="line-height:10"
         id="path140" />
    </g>
    <g
       aria-label="8"
       id="text29215"
       style="font-size:16.25px;line-height:0%;font-family:Iwona;-inkscape-font-specification:Iwona;letter-spacing:0px;word-spacing:0px;stroke-width:1px">
      <path
         d="m 330.1597,89.248691 c 0,-1.5275 -0.73125,-2.61625 -1.9825,-3.07125 1.05625,-0.39 1.6575,-1.2675 1.6575,-2.45375 0,-1.69 -1.18625,-2.71375 -3.12,-2.71375 -1.95,0 -3.13625,1.02375 -3.13625,2.71375 0,1.18625 0.60125,2.06375 1.6575,2.45375 -1.25125,0.455 -1.9825,1.54375 -1.9825,3.07125 0,2.0475 1.31625,3.29875 3.46125,3.29875 2.12875,0 3.445,-1.25125 3.445,-3.29875 z m -1.5925,-5.525 c 0,1.25125 -0.715,2.03125 -1.8525,2.03125 -1.15375,0 -1.86875,-0.78 -1.86875,-2.03125 0,-1.2675 0.715,-2.03125 1.86875,-2.03125 1.1375,0 1.8525,0.76375 1.8525,2.03125 z m 0.1625,5.525 c 0,1.625 -0.76375,2.61625 -2.015,2.61625 -1.2675,0 -2.03125,-0.99125 -2.03125,-2.61625 0,-1.625 0.76375,-2.61625 2.03125,-2.61625 1.25125,0 2.015,0.99125 2.015,2.61625 z"
         style="line-height:10"
         id="path143" />
    </g>
    <g
       aria-label="9"
       id="text29219"
       style="font-size:16.25px;line-height:0%;font-family:Iwona;-inkscape-font-specification:Iwona;letter-spacing:0px;word-spacing:0px;stroke-width:1px">
      <path
         d="m 358.50616,86.778691 c 0,-4.03 -1.04,-5.76875 -3.445,-5.76875 -2.08,0 -3.46125,1.5275 -3.46125,3.81875 0,2.34 0.92625,3.81875 3.10375,3.81875 0.9425,0 1.82,-0.43875 2.3725,-1.18625 0,2.12875 -0.53625,4.40375 -2.3725,4.40375 -0.82875,0 -1.64125,-0.27625 -2.29125,-0.79625 v 0.6825 c 0.65,0.52 1.4625,0.79625 2.29125,0.79625 2.55125,0 3.8025,-2.8925 3.8025,-5.76875 z m -1.43,0 c -0.5525,0.7475 -1.43,1.18625 -2.3725,1.18625 -1.3,0 -1.67375,-1.625 -1.67375,-3.13625 0,-1.885 0.8125,-3.13625 2.03125,-3.13625 2.25875,0 2.015,2.45375 2.015,5.08625 z"
         style="line-height:10"
         id="path146" />
    </g>
    <g
       aria-label="leds_o(i)"
       id="text31530"
       style="line-height:0%;font-family:Iwona;-inkscape-font-specification:Iwona;text-align:end;letter-spacing:0px;word-spacing:0px;text-anchor:end;stroke-width:1px">
      <path
         d="m 24.751156,125.14256 v -0.525 c -0.3325,0.28 -0.7175,0.5075 -1.155,0.5075 -0.6475,0 -0.77,-0.805 -0.77,-1.5575 v -10.0625 h -1.365 v 10.0625 c 0,1.1725 0.455,2.3625 1.4875,2.3625 0.665,0 1.295,-0.3325 1.8025,-0.7875 z"
         style="font-size:17.5px;line-height:10"
         id="path149" />
      <path
         d="m 32.836125,121.99256 v -0.175 c 0,-2.4675 -1.3475,-4.1125 -3.3775,-4.1125 -2.0475,0 -3.395,1.645 -3.395,4.1125 0,2.4675 1.3475,4.1125 3.395,4.1125 0.875,0 1.7325,-0.28 2.45,-0.7875 v -0.735 c -0.8225,0.525 -1.4875,0.7175 -2.45,0.7175 -1.4875,0 -1.855,-1.4175 -1.855,-3.1325 z m -1.54,-0.735 h -3.6925 c 0,-1.4 0.595,-2.8175 1.855,-2.8175 1.2425,0 1.8375,1.4175 1.8375,2.8175 z"
         style="font-size:17.5px;line-height:10"
         id="path151" />
      <path
         d="m 41.446102,125.75506 v -12.25 h -1.365 v 4.6725 c -0.6825,-0.2975 -1.4175,-0.4725 -2.1525,-0.4725 -2.1875,0 -3.255,1.75 -3.255,4.1125 0,2.3275 0.875,4.1125 2.9925,4.1125 0.8925,0 1.715,-0.4025 2.415,-0.9625 v 0.7875 z m -1.365,-1.5225 c -0.525,0.525 -1.1725,0.9625 -1.925,0.9625 -1.5925,0 -1.9425,-1.54 -1.9425,-3.3775 0,-1.645 0.5075,-3.3775 1.9425,-3.3775 0.665,0 1.33,0.175 1.925,0.4725 z"
         style="font-size:17.5px;line-height:10"
         id="path153" />
      <path
         d="m 49.566091,123.51506 c 0,-1.3825 -1.47,-2.1 -2.905,-2.45 -0.84,-0.21 -1.75,-0.56 -1.75,-1.3825 0,-0.7525 0.77,-1.2425 1.61,-1.2425 0.9275,0 1.855,0.28 2.625,0.7875 v -0.735 c -0.77,-0.5075 -1.6975,-0.7875 -2.625,-0.7875 -1.5225,0 -2.9225,0.9275 -2.9225,2.345 0,1.2775 1.4175,1.8725 2.765,2.205 0.9275,0.2275 1.89,0.7175 1.89,1.61 0,0.8225 -0.84,1.33 -1.7325,1.33 -1.085,0 -2.135,-0.2625 -3.0625,-0.7875 v 0.735 c 0.9275,0.525 1.9775,0.7875 3.0625,0.7875 1.575,0 3.045,-0.945 3.045,-2.415 z"
         style="font-size:17.5px;line-height:10"
         id="path155" />
      <path
         d="m 59.103572,127.76756 v -0.875 h -8.75 v 0.875 z"
         style="font-size:17.5px;line-height:10"
         id="path157" />
      <path
         d="m 66.838538,121.81756 c 0,-2.6775 -1.19,-4.1125 -3.3775,-4.1125 -2.205,0 -3.395,1.435 -3.395,4.1125 0,2.6775 1.19,4.1125 3.395,4.1125 2.1875,0 3.3775,-1.435 3.3775,-4.1125 z m -1.54,0 c 0,2.1875 -0.6475,3.3775 -1.8375,3.3775 -1.2075,0 -1.855,-1.19 -1.855,-3.3775 0,-2.1875 0.6475,-3.3775 1.855,-3.3775 1.19,0 1.8375,1.19 1.8375,3.3775 z"
         style="font-size:17.5px;line-height:10"
         id="path159" />
      <path
         d="m 72.316032,129.78006 c -1.2775,-2.835 -1.75,-5.0225 -1.75,-8.1375 0,-3.115 0.4725,-5.3025 1.75,-8.1375 h -0.735 c -1.7325,2.695 -2.38,4.935 -2.38,8.1375 0,3.2025 0.6475,5.4425 2.38,8.1375 z"
         style="font-size:17.5px;line-height:10"
         id="path161" />
      <path
         d="m 77.793509,125.14256 v -0.525 c -0.3325,0.28 -0.7175,0.5075 -1.155,0.5075 -0.6475,0 -0.77,-0.805 -0.77,-1.5575 v -5.6875 h -1.365 v 5.6875 c 0,1.1725 0.455,2.3625 1.4875,2.3625 0.665,0 1.295,-0.3325 1.8025,-0.7875 z m -1.75,-9.9925 c 0,-0.4725 -0.385,-0.8575 -0.8575,-0.8575 -0.4725,0 -0.8575,0.385 -0.8575,0.8575 0,0.4725 0.385,0.8575 0.8575,0.8575 0.4725,0 0.8575,-0.385 0.8575,-0.8575 z"
         style="font-size:17.5px;line-height:10"
         id="path163" />
      <path
         d="m 82.133493,121.64256 c 0,-3.2025 -0.6475,-5.4425 -2.38,-8.1375 h -0.735 c 1.2775,2.835 1.75,5.0225 1.75,8.1375 0,3.115 -0.4725,5.3025 -1.75,8.1375 h 0.735 c 1.7325,-2.695 2.38,-4.935 2.38,-8.1375 z"
         style="font-size:17.5px;line-height:10"
         id="path165" />
    </g>
    <path
       style="fill:none;fill-rule:evenodd;stroke:#000000;stroke-width:1px;stroke-linecap:butt;stroke-linejoin:miter;stroke-opacity:1"
       d="M 88.582676,111.58184 H 201.9685 l 3.54328,21.25984 h 336.61421 l 3.54328,-21.25984 h 109.84254 l 3.54328,21.25984 h 24.80317"
       id="path31534" />
    <g
       aria-label="10"
       id="text217"
       style="font-size:16.25px;line-height:0%;font-family:Iwona;-inkscape-font-specification:Iwona;letter-spacing:0px;word-spacing:0px;stroke-width:1px">
      <path
         d="m 384.49635,92.384941 v -11.2125 h -0.9425 c -0.89375,1.02375 -1.95,1.90125 -3.12,2.58375 v 0.6825 c 0.99125,-0.47125 1.9175,-1.02375 2.795,-1.69 v 9.63625 z"
         style="line-height:10"
         id="path168" />
      <path
         d="m 395.49759,86.778691 c 0,-3.85125 -1.18625,-5.76875 -3.55875,-5.76875 -2.3725,0 -3.55875,1.9175 -3.55875,5.76875 0,3.85125 1.18625,5.76875 3.55875,5.76875 2.3725,0 3.55875,-1.9175 3.55875,-5.76875 z m -1.43,0 c 0,3.39625 -0.715,5.08625 -2.12875,5.08625 -1.41375,0 -2.12875,-1.69 -2.12875,-5.08625 0,-3.39625 0.715,-5.08625 2.12875,-5.08625 1.41375,0 2.12875,1.69 2.12875,5.08625 z"
         style="line-height:10"
         id="path170" />
    </g>
    <g
       aria-label="11"
       id="text221"
       style="font-size:16.25px;line-height:0%;font-family:Iwona;-inkscape-font-specification:Iwona;letter-spacing:0px;word-spacing:0px;stroke-width:1px">
      <path
         d="m 412.84282,92.384941 v -11.2125 h -0.9425 c -0.89375,1.02375 -1.95,1.90125 -3.12,2.58375 v 0.6825 c 0.99125,-0.47125 1.9175,-1.02375 2.795,-1.69 v 9.63625 z"
         style="line-height:10"
         id="path173" />
      <path
         d="m 421.37406,92.384941 v -11.2125 h -0.9425 c -0.89375,1.02375 -1.95,1.90125 -3.12,2.58375 v 0.6825 c 0.99125,-0.47125 1.9175,-1.02375 2.795,-1.69 v 9.63625 z"
         style="line-height:10"
         id="path175" />
    </g>
    <g
       aria-label="12"
       id="text225"
       style="font-size:16.25px;line-height:0%;font-family:Iwona;-inkscape-font-specification:Iwona;letter-spacing:0px;word-spacing:0px;stroke-width:1px">
      <path
         d="m 441.18928,92.384941 v -11.2125 h -0.9425 c -0.89375,1.02375 -1.95,1.90125 -3.12,2.58375 v 0.6825 c 0.99125,-0.47125 1.9175,-1.02375 2.795,-1.69 v 9.63625 z"
         style="line-height:10"
         id="path178" />
      <path
         d="m 452.07678,92.384941 v -1.0075 h -5.73625 l 2.99,-2.9575 c 1.3325,-1.3325 2.58375,-2.8925 2.58375,-4.7775 0,-1.5925 -1.57625,-2.6325 -3.2825,-2.6325 -1.28375,0 -2.5025,0.585 -3.29875,1.57625 v 0.6825 c 0.82875,-0.95875 2.03125,-1.51125 3.29875,-1.51125 1.08875,0 2.015,0.8125 2.015,1.885 0,1.60875 -0.7475,3.10375 -1.8525,4.2575 l -3.62375,3.72125 v 0.76375 z"
         style="line-height:10"
         id="path180" />
    </g>
    <g
       aria-label="13"
       id="text229"
       style="font-size:16.25px;line-height:0%;font-family:Iwona;-inkscape-font-specification:Iwona;letter-spacing:0px;word-spacing:0px;stroke-width:1px">
      <path
         d="m 469.53572,92.303688 v -11.2125 h -0.9425 c -0.89375,1.02375 -1.95,1.90125 -3.12,2.58375 v 0.6825 c 0.99125,-0.47125 1.9175,-1.02375 2.795,-1.69 v 9.63625 z"
         style="line-height:10"
         id="path183" />
      <path
         d="m 480.42321,89.216188 c 0,-1.43 -1.0075,-2.665 -2.405,-3.0875 1.235,-0.3575 1.99875,-1.28375 1.99875,-2.51875 0,-1.60875 -1.3,-2.68125 -3.25,-2.68125 -1.05625,0 -2.08,0.3575 -2.90875,1.0075 v 0.6825 c 0.82875,-0.65 1.8525,-1.0075 2.90875,-1.0075 1.18625,0 1.9825,0.79625 1.9825,1.99875 0,1.93375 -0.89375,2.4375 -2.925,2.4375 v 0.60125 c 2.19375,0 3.16875,0.52 3.16875,2.5675 0,1.41375 -0.91,2.5675 -2.015,2.5675 -1.235,0 -2.4375,-0.3575 -3.46125,-1.0075 v 0.6825 c 1.02375,0.65 2.22625,1.0075 3.46125,1.0075 1.885,0 3.445,-1.4625 3.445,-3.25 z"
         style="line-height:10"
         id="path185" />
    </g>
    <g
       aria-label="14"
       id="text233"
       style="font-size:16.25px;line-height:0%;font-family:Iwona;-inkscape-font-specification:Iwona;letter-spacing:0px;word-spacing:0px;stroke-width:1px">
      <path
         d="m 497.88218,92.384941 v -11.2125 h -0.9425 c -0.89375,1.02375 -1.95,1.90125 -3.12,2.58375 v 0.6825 c 0.99125,-0.47125 1.9175,-1.02375 2.795,-1.69 v 9.63625 z"
         style="line-height:10"
         id="path188" />
      <path
         d="m 508.76968,88.484941 v -0.7475 h -1.21875 v -6.565 h -1.2675 l -4.42,6.565 v 0.7475 h 4.42 v 3.9 h 1.2675 v -3.9 z m -2.48625,-0.7475 h -3.59125 l 3.59125,-5.34625 z"
         style="line-height:10"
         id="path190" />
    </g>
    <g
       aria-label="15"
       id="text237"
       style="font-size:16.25px;line-height:0%;font-family:Iwona;-inkscape-font-specification:Iwona;letter-spacing:0px;word-spacing:0px;stroke-width:1px">
      <path
         d="m 526.22865,92.303688 v -11.2125 h -0.9425 c -0.89375,1.02375 -1.95,1.90125 -3.12,2.58375 v 0.6825 c 0.99125,-0.47125 1.9175,-1.02375 2.795,-1.69 v 9.63625 z"
         style="line-height:10"
         id="path193" />
      <path
         d="m 537.11614,88.647438 c 0,-2.29125 -1.38125,-3.81875 -3.445,-3.81875 -0.9425,0 -1.82,0.3575 -2.5025,0.95875 l 0.1625,-3.68875 h 5.46 v -1.0075 h -6.09375 l -0.24375,5.60625 0.6825,0.0325 c 0.6175,-0.76375 1.54375,-1.21875 2.535,-1.21875 1.2025,0 2.015,1.25125 2.015,3.13625 0,1.885 -0.8125,3.13625 -2.015,3.13625 -1.25125,0 -2.47,-0.40625 -3.46125,-1.17 v 0.6825 c 0.99125,0.76375 2.21,1.17 3.46125,1.17 2.06375,0 3.445,-1.5275 3.445,-3.81875 z"
         style="line-height:10"
         id="path195" />
    </g>
    <g
       aria-label="0"
       id="text241"
       style="font-size:16.25px;line-height:0%;font-family:Iwona;-inkscape-font-specification:Iwona;letter-spacing:0px;word-spacing:0px;stroke-width:1px">
      <path
         d="m 557.04509,86.778691 c 0,-3.85125 -1.18625,-5.76875 -3.55875,-5.76875 -2.3725,0 -3.55875,1.9175 -3.55875,5.76875 0,3.85125 1.18625,5.76875 3.55875,5.76875 2.3725,0 3.55875,-1.9175 3.55875,-5.76875 z m -1.43,0 c 0,3.39625 -0.715,5.08625 -2.12875,5.08625 -1.41375,0 -2.12875,-1.69 -2.12875,-5.08625 0,-3.39625 0.715,-5.08625 2.12875,-5.08625 1.41375,0 2.12875,1.69 2.12875,5.08625 z"
         style="line-height:10"
         id="path198" />
    </g>
    <g
       aria-label="1"
       id="text245"
       style="font-size:16.25px;line-height:0%;font-family:Iwona;-inkscape-font-specification:Iwona;letter-spacing:0px;word-spacing:0px;stroke-width:1px">
      <path
         d="m 582.92158,92.384941 v -11.2125 h -0.9425 c -0.89375,1.02375 -1.95,1.90125 -3.12,2.58375 v 0.6825 c 0.99125,-0.47125 1.9175,-1.02375 2.795,-1.69 v 9.63625 z"
         style="line-height:10"
         id="path201" />
    </g>
    <g
       aria-label="2"
       id="text249"
       style="font-size:16.25px;line-height:0%;font-family:Iwona;-inkscape-font-specification:Iwona;letter-spacing:0px;word-spacing:0px;stroke-width:1px">
      <path
         d="m 613.62427,92.384941 v -1.0075 h -5.73625 l 2.99,-2.9575 c 1.3325,-1.3325 2.58375,-2.8925 2.58375,-4.7775 0,-1.5925 -1.57625,-2.6325 -3.2825,-2.6325 -1.28375,0 -2.5025,0.585 -3.29875,1.57625 v 0.6825 c 0.82875,-0.95875 2.03125,-1.51125 3.29875,-1.51125 1.08875,0 2.015,0.8125 2.015,1.885 0,1.60875 -0.7475,3.10375 -1.8525,4.2575 l -3.62375,3.72125 v 0.76375 z"
         style="line-height:10"
         id="path204" />
    </g>
    <g
       aria-label="3"
       id="text253"
       style="font-size:16.25px;line-height:0%;font-family:Iwona;-inkscape-font-specification:Iwona;letter-spacing:0px;word-spacing:0px;stroke-width:1px">
      <path
         d="m 641.9707,89.297441 c 0,-1.43 -1.0075,-2.665 -2.405,-3.0875 1.235,-0.3575 1.99875,-1.28375 1.99875,-2.51875 0,-1.60875 -1.3,-2.68125 -3.25,-2.68125 -1.05625,0 -2.08,0.3575 -2.90875,1.0075 v 0.6825 c 0.82875,-0.65 1.8525,-1.0075 2.90875,-1.0075 1.18625,0 1.9825,0.79625 1.9825,1.99875 0,1.93375 -0.89375,2.4375 -2.925,2.4375 v 0.60125 c 2.19375,0 3.16875,0.52 3.16875,2.5675 0,1.41375 -0.91,2.5675 -2.015,2.5675 -1.235,0 -2.4375,-0.3575 -3.46125,-1.0075 v 0.6825 c 1.02375,0.65 2.22625,1.0075 3.46125,1.0075 1.885,0 3.445,-1.4625 3.445,-3.25 z"
         style="line-height:10"
         id="path207" />
    </g>
    <g
       aria-label="4"
       id="text337"
       style="font-size:16.25px;line-height:0%;font-family:Iwona;-inkscape-font-specification:Iwona;letter-spacing:0px;word-spacing:0px;stroke-width:1px">
      <path
         d="m 670.3172,88.566187 v -0.7475 h -1.21875 v -6.565 h -1.2675 l -4.42,6.565 v 0.7475 h 4.42 v 3.9 h 1.2675 v -3.9 z m -2.48625,-0.7475 h -3.59125 l 3.59125,-5.34625 z"
         style="line-height:10"
         id="path210" />
    </g>
    <path
       style="fill:none;fill-rule:evenodd;stroke:#ff6600;stroke-width:1.21875;stroke-linecap:butt;stroke-linejoin:miter;stroke-miterlimit:4;stroke-dasharray:none;stroke-opacity:1"
       d="m 88.582677,139.92829 c -10e-7,24.80315 230.314963,0 230.314963,21.25984 0,-21.25984 230.31496,3.54331 230.31496,-21.25984"
       id="path950" />
    <g
       aria-label="16 millisecondes
4 millisecondes à '1'"
       id="text1759"
       style="font-size:16.25px;line-height:1;font-family:Iwona;-inkscape-font-specification:Iwona;text-align:center;letter-spacing:0px;word-spacing:0px;text-anchor:middle;stroke-width:1px">
      <path
         d="m 267.11717,178.90466 v -11.2125 h -0.9425 c -0.89375,1.02375 -1.95,1.90125 -3.12,2.58375 v 0.6825 c 0.99125,-0.47125 1.9175,-1.02375 2.795,-1.69 v 9.63625 z"
         id="path213" />
      <path
         d="m 278.00466,175.24841 c 0,-2.34 -0.92625,-3.81875 -3.10375,-3.81875 -0.9425,0 -1.82,0.43875 -2.3725,1.18625 0,-2.12875 0.53625,-4.40375 2.3725,-4.40375 0.82875,0 1.64125,0.27625 2.29125,0.79625 v -0.6825 c -0.65,-0.52 -1.4625,-0.79625 -2.29125,-0.79625 -2.55125,0 -3.8025,2.8925 -3.8025,5.76875 0,4.03 1.04,5.76875 3.46125,5.76875 2.06375,0 3.445,-1.5275 3.445,-3.81875 z m -1.43,0 c 0,1.885 -0.8125,3.13625 -2.015,3.13625 -2.275,0 -2.03125,-2.45375 -2.03125,-5.08625 0.5525,-0.7475 1.43,-1.18625 2.3725,-1.18625 1.3,0 1.67375,1.625 1.67375,3.13625 z"
         id="path215" />
      <path
         d="m 294.40088,178.90466 v -5.28125 c 0,-1.1375 -0.66625,-2.19375 -1.7225,-2.19375 -0.91,0 -1.755,0.47125 -2.2425,1.235 -0.26,-0.715 -0.8125,-1.235 -1.56,-1.235 -0.845,0 -1.5275,0.585 -2.08,1.235 v -1.0725 h -1.2675 v 7.3125 h 1.2675 v -5.7525 c 0.39,-0.50375 0.8775,-0.975 1.51125,-0.975 0.66625,0 1.02375,0.715 1.02375,1.44625 v 5.28125 h 1.2675 v -5.28125 c 0,-0.195 -0.0163,-0.37375 -0.0488,-0.56875 0.39,-0.50375 0.92625,-0.8775 1.56,-0.8775 0.66625,0 1.02375,0.715 1.02375,1.44625 v 5.28125 z"
         id="path217" />
      <path
         d="m 299.89335,178.33591 v -0.4875 c -0.30875,0.26 -0.66625,0.47125 -1.0725,0.47125 -0.60125,0 -0.715,-0.7475 -0.715,-1.44625 v -5.28125 h -1.2675 v 5.28125 c 0,1.08875 0.4225,2.19375 1.38125,2.19375 0.6175,0 1.2025,-0.30875 1.67375,-0.73125 z m -1.625,-9.27875 c 0,-0.43875 -0.3575,-0.79625 -0.79625,-0.79625 -0.43875,0 -0.79625,0.3575 -0.79625,0.79625 0,0.43875 0.3575,0.79625 0.79625,0.79625 0.43875,0 0.79625,-0.3575 0.79625,-0.79625 z"
         id="path219" />
      <path
         d="m 304.57334,178.33591 v -0.4875 c -0.30875,0.26 -0.66625,0.47125 -1.0725,0.47125 -0.60125,0 -0.715,-0.7475 -0.715,-1.44625 v -9.34375 h -1.2675 v 9.34375 c 0,1.08875 0.4225,2.19375 1.38125,2.19375 0.6175,0 1.2025,-0.30875 1.67375,-0.73125 z"
         id="path221" />
      <path
         d="m 309.2533,178.33591 v -0.4875 c -0.30875,0.26 -0.66625,0.47125 -1.0725,0.47125 -0.60125,0 -0.715,-0.7475 -0.715,-1.44625 v -9.34375 h -1.2675 v 9.34375 c 0,1.08875 0.4225,2.19375 1.38125,2.19375 0.6175,0 1.2025,-0.30875 1.67375,-0.73125 z"
         id="path223" />
      <path
         d="m 313.85202,178.33591 v -0.4875 c -0.30875,0.26 -0.66625,0.47125 -1.0725,0.47125 -0.60125,0 -0.715,-0.7475 -0.715,-1.44625 v -5.28125 h -1.2675 v 5.28125 c 0,1.08875 0.4225,2.19375 1.38125,2.19375 0.6175,0 1.2025,-0.30875 1.67375,-0.73125 z m -1.625,-9.27875 c 0,-0.43875 -0.3575,-0.79625 -0.79625,-0.79625 -0.43875,0 -0.79625,0.3575 -0.79625,0.79625 0,0.43875 0.3575,0.79625 0.79625,0.79625 0.43875,0 0.79625,-0.3575 0.79625,-0.79625 z"
         id="path225" />
      <path
         d="m 320.41701,176.82466 c 0,-1.28375 -1.365,-1.95 -2.6975,-2.275 -0.78,-0.195 -1.625,-0.52 -1.625,-1.28375 0,-0.69875 0.715,-1.15375 1.495,-1.15375 0.86125,0 1.7225,0.26 2.4375,0.73125 v -0.6825 c -0.715,-0.47125 -1.57625,-0.73125 -2.4375,-0.73125 -1.41375,0 -2.71375,0.86125 -2.71375,2.1775 0,1.18625 1.31625,1.73875 2.5675,2.0475 0.86125,0.21125 1.755,0.66625 1.755,1.495 0,0.76375 -0.78,1.235 -1.60875,1.235 -1.0075,0 -1.9825,-0.24375 -2.84375,-0.73125 v 0.6825 c 0.86125,0.4875 1.83625,0.73125 2.84375,0.73125 1.4625,0 2.8275,-0.8775 2.8275,-2.2425 z"
         id="path227" />
      <path
         d="m 328.33074,175.41091 v -0.1625 c 0,-2.29125 -1.25125,-3.81875 -3.13625,-3.81875 -1.90125,0 -3.1525,1.5275 -3.1525,3.81875 0,2.29125 1.25125,3.81875 3.1525,3.81875 0.8125,0 1.60875,-0.26 2.275,-0.73125 v -0.6825 c -0.76375,0.4875 -1.38125,0.66625 -2.275,0.66625 -1.38125,0 -1.7225,-1.31625 -1.7225,-2.90875 z m -1.43,-0.6825 h -3.42875 c 0,-1.3 0.5525,-2.61625 1.7225,-2.61625 1.15375,0 1.70625,1.31625 1.70625,2.61625 z"
         id="path229" />
      <path
         d="m 335.70822,173.28216 v -0.6825 c -0.52,-0.73125 -1.365,-1.17 -2.275,-1.17 -2.03125,0 -3.39625,1.5275 -3.39625,3.81875 0,2.29125 1.365,3.81875 3.39625,3.81875 0.845,0 1.64125,-0.4225 2.1125,-1.12125 v -0.6825 c -0.5525,0.82875 -1.12125,1.12125 -2.1125,1.12125 -1.17,0 -1.96625,-1.25125 -1.96625,-3.13625 0,-1.885 0.79625,-3.13625 1.96625,-3.13625 1.0075,0 1.69,0.3575 2.275,1.17 z"
         id="path231" />
      <path
         d="m 343.29695,175.24841 c 0,-2.48625 -1.105,-3.81875 -3.13625,-3.81875 -2.0475,0 -3.1525,1.3325 -3.1525,3.81875 0,2.48625 1.105,3.81875 3.1525,3.81875 2.03125,0 3.13625,-1.3325 3.13625,-3.81875 z m -1.43,0 c 0,2.03125 -0.60125,3.13625 -1.70625,3.13625 -1.12125,0 -1.7225,-1.105 -1.7225,-3.13625 0,-2.03125 0.60125,-3.13625 1.7225,-3.13625 1.105,0 1.70625,1.105 1.70625,3.13625 z"
         id="path233" />
      <path
         d="m 351.3732,178.90466 v -5.28125 c 0,-1.18625 -0.91,-2.19375 -2.08,-2.19375 -0.975,0 -1.83625,0.5525 -2.535,1.235 v -1.0725 h -1.2675 v 7.3125 h 1.2675 v -5.73625 c 0.5525,-0.5525 1.235,-0.99125 1.99875,-0.99125 0.76375,0 1.34875,0.66625 1.34875,1.44625 v 5.28125 z"
         id="path235" />
      <path
         d="m 359.77442,178.90466 v -11.375 h -1.2675 v 4.33875 c -0.63375,-0.27625 -1.31625,-0.43875 -1.99875,-0.43875 -2.03125,0 -3.0225,1.625 -3.0225,3.81875 0,2.16125 0.8125,3.81875 2.77875,3.81875 0.82875,0 1.5925,-0.37375 2.2425,-0.89375 v 0.73125 z m -1.2675,-1.41375 c -0.4875,0.4875 -1.08875,0.89375 -1.7875,0.89375 -1.47875,0 -1.80375,-1.43 -1.80375,-3.13625 0,-1.5275 0.47125,-3.13625 1.80375,-3.13625 0.6175,0 1.235,0.1625 1.7875,0.43875 z"
         id="path237" />
      <path
         d="m 368.25691,175.41091 v -0.1625 c 0,-2.29125 -1.25125,-3.81875 -3.13625,-3.81875 -1.90125,0 -3.1525,1.5275 -3.1525,3.81875 0,2.29125 1.25125,3.81875 3.1525,3.81875 0.8125,0 1.60875,-0.26 2.275,-0.73125 v -0.6825 c -0.76375,0.4875 -1.38125,0.66625 -2.275,0.66625 -1.38125,0 -1.7225,-1.31625 -1.7225,-2.90875 z m -1.43,-0.6825 h -3.42875 c 0,-1.3 0.5525,-2.61625 1.7225,-2.61625 1.15375,0 1.70625,1.31625 1.70625,2.61625 z"
         id="path239" />
      <path
         d="m 375.30939,176.82466 c 0,-1.28375 -1.365,-1.95 -2.6975,-2.275 -0.78,-0.195 -1.625,-0.52 -1.625,-1.28375 0,-0.69875 0.715,-1.15375 1.495,-1.15375 0.86125,0 1.7225,0.26 2.4375,0.73125 v -0.6825 c -0.715,-0.47125 -1.57625,-0.73125 -2.4375,-0.73125 -1.41375,0 -2.71375,0.86125 -2.71375,2.1775 0,1.18625 1.31625,1.73875 2.5675,2.0475 0.86125,0.21125 1.755,0.66625 1.755,1.495 0,0.76375 -0.78,1.235 -1.60875,1.235 -1.0075,0 -1.9825,-0.24375 -2.84375,-0.73125 v 0.6825 c 0.86125,0.4875 1.83625,0.73125 2.84375,0.73125 1.4625,0 2.8275,-0.8775 2.8275,-2.2425 z"
         id="path241" />
      <path
         d="m 257.91971,191.25466 v -0.7475 h -1.21875 v -6.565 h -1.2675 l -4.42,6.565 v 0.7475 h 4.42 v 3.9 h 1.2675 v -3.9 z m -2.48625,-0.7475 h -3.59125 l 3.59125,-5.34625 z"
         id="path243" />
      <path
         d="m 274.31592,195.15466 v -5.28125 c 0,-1.1375 -0.66625,-2.19375 -1.7225,-2.19375 -0.91,0 -1.755,0.47125 -2.2425,1.235 -0.26,-0.715 -0.8125,-1.235 -1.56,-1.235 -0.845,0 -1.5275,0.585 -2.08,1.235 v -1.0725 h -1.2675 v 7.3125 h 1.2675 v -5.7525 c 0.39,-0.50375 0.8775,-0.975 1.51125,-0.975 0.66625,0 1.02375,0.715 1.02375,1.44625 v 5.28125 h 1.2675 v -5.28125 c 0,-0.195 -0.0163,-0.37375 -0.0487,-0.56875 0.39,-0.50375 0.92625,-0.8775 1.56,-0.8775 0.66625,0 1.02375,0.715 1.02375,1.44625 v 5.28125 z"
         id="path245" />
      <path
         d="m 279.80839,194.58591 v -0.4875 c -0.30875,0.26 -0.66625,0.47125 -1.0725,0.47125 -0.60125,0 -0.715,-0.7475 -0.715,-1.44625 v -5.28125 h -1.2675 v 5.28125 c 0,1.08875 0.4225,2.19375 1.38125,2.19375 0.6175,0 1.2025,-0.30875 1.67375,-0.73125 z m -1.625,-9.27875 c 0,-0.43875 -0.3575,-0.79625 -0.79625,-0.79625 -0.43875,0 -0.79625,0.3575 -0.79625,0.79625 0,0.43875 0.3575,0.79625 0.79625,0.79625 0.43875,0 0.79625,-0.3575 0.79625,-0.79625 z"
         id="path247" />
      <path
         d="m 284.48838,194.58591 v -0.4875 c -0.30875,0.26 -0.66625,0.47125 -1.0725,0.47125 -0.60125,0 -0.715,-0.7475 -0.715,-1.44625 v -9.34375 h -1.2675 v 9.34375 c 0,1.08875 0.4225,2.19375 1.38125,2.19375 0.6175,0 1.2025,-0.30875 1.67375,-0.73125 z"
         id="path249" />
      <path
         d="m 289.16835,194.58591 v -0.4875 c -0.30875,0.26 -0.66625,0.47125 -1.0725,0.47125 -0.60125,0 -0.715,-0.7475 -0.715,-1.44625 v -9.34375 h -1.2675 v 9.34375 c 0,1.08875 0.4225,2.19375 1.38125,2.19375 0.6175,0 1.2025,-0.30875 1.67375,-0.73125 z"
         id="path251" />
      <path
         d="m 293.76707,194.58591 v -0.4875 c -0.30875,0.26 -0.66625,0.47125 -1.0725,0.47125 -0.60125,0 -0.715,-0.7475 -0.715,-1.44625 v -5.28125 h -1.2675 v 5.28125 c 0,1.08875 0.4225,2.19375 1.38125,2.19375 0.6175,0 1.2025,-0.30875 1.67375,-0.73125 z m -1.625,-9.27875 c 0,-0.43875 -0.3575,-0.79625 -0.79625,-0.79625 -0.43875,0 -0.79625,0.3575 -0.79625,0.79625 0,0.43875 0.3575,0.79625 0.79625,0.79625 0.43875,0 0.79625,-0.3575 0.79625,-0.79625 z"
         id="path253" />
      <path
         d="m 300.33205,193.07466 c 0,-1.28375 -1.365,-1.95 -2.6975,-2.275 -0.78,-0.195 -1.625,-0.52 -1.625,-1.28375 0,-0.69875 0.715,-1.15375 1.495,-1.15375 0.86125,0 1.7225,0.26 2.4375,0.73125 v -0.6825 c -0.715,-0.47125 -1.57625,-0.73125 -2.4375,-0.73125 -1.41375,0 -2.71375,0.86125 -2.71375,2.1775 0,1.18625 1.31625,1.73875 2.5675,2.0475 0.86125,0.21125 1.755,0.66625 1.755,1.495 0,0.76375 -0.78,1.235 -1.60875,1.235 -1.0075,0 -1.9825,-0.24375 -2.84375,-0.73125 v 0.6825 c 0.86125,0.4875 1.83625,0.73125 2.84375,0.73125 1.4625,0 2.8275,-0.8775 2.8275,-2.2425 z"
         id="path255" />
      <path
         d="m 308.24579,191.66091 v -0.1625 c 0,-2.29125 -1.25125,-3.81875 -3.13625,-3.81875 -1.90125,0 -3.1525,1.5275 -3.1525,3.81875 0,2.29125 1.25125,3.81875 3.1525,3.81875 0.8125,0 1.60875,-0.26 2.275,-0.73125 v -0.6825 c -0.76375,0.4875 -1.38125,0.66625 -2.275,0.66625 -1.38125,0 -1.7225,-1.31625 -1.7225,-2.90875 z m -1.43,-0.6825 h -3.42875 c 0,-1.3 0.5525,-2.61625 1.7225,-2.61625 1.15375,0 1.70625,1.31625 1.70625,2.61625 z"
         id="path257" />
      <path
         d="m 315.62327,189.53216 v -0.6825 c -0.52,-0.73125 -1.365,-1.17 -2.275,-1.17 -2.03125,0 -3.39625,1.5275 -3.39625,3.81875 0,2.29125 1.365,3.81875 3.39625,3.81875 0.845,0 1.64125,-0.4225 2.1125,-1.12125 v -0.6825 c -0.5525,0.82875 -1.12125,1.12125 -2.1125,1.12125 -1.17,0 -1.96625,-1.25125 -1.96625,-3.13625 0,-1.885 0.79625,-3.13625 1.96625,-3.13625 1.0075,0 1.69,0.3575 2.275,1.17 z"
         id="path259" />
      <path
         d="m 323.212,191.49841 c 0,-2.48625 -1.105,-3.81875 -3.13625,-3.81875 -2.0475,0 -3.1525,1.3325 -3.1525,3.81875 0,2.48625 1.105,3.81875 3.1525,3.81875 2.03125,0 3.13625,-1.3325 3.13625,-3.81875 z m -1.43,0 c 0,2.03125 -0.60125,3.13625 -1.70625,3.13625 -1.12125,0 -1.7225,-1.105 -1.7225,-3.13625 0,-2.03125 0.60125,-3.13625 1.7225,-3.13625 1.105,0 1.70625,1.105 1.70625,3.13625 z"
         id="path261" />
      <path
         d="m 331.28824,195.15466 v -5.28125 c 0,-1.18625 -0.91,-2.19375 -2.08,-2.19375 -0.975,0 -1.83625,0.5525 -2.535,1.235 v -1.0725 h -1.2675 v 7.3125 h 1.2675 v -5.73625 c 0.5525,-0.5525 1.235,-0.99125 1.99875,-0.99125 0.76375,0 1.34875,0.66625 1.34875,1.44625 v 5.28125 z"
         id="path263" />
      <path
         d="m 339.68947,195.15466 v -11.375 h -1.2675 v 4.33875 c -0.63375,-0.27625 -1.31625,-0.43875 -1.99875,-0.43875 -2.03125,0 -3.0225,1.625 -3.0225,3.81875 0,2.16125 0.8125,3.81875 2.77875,3.81875 0.82875,0 1.5925,-0.37375 2.2425,-0.89375 v 0.73125 z m -1.2675,-1.41375 c -0.4875,0.4875 -1.08875,0.89375 -1.7875,0.89375 -1.47875,0 -1.80375,-1.43 -1.80375,-3.13625 0,-1.5275 0.47125,-3.13625 1.80375,-3.13625 0.6175,0 1.235,0.1625 1.7875,0.43875 z"
         id="path265" />
      <path
         d="m 348.17195,191.66091 v -0.1625 c 0,-2.29125 -1.25125,-3.81875 -3.13625,-3.81875 -1.90125,0 -3.1525,1.5275 -3.1525,3.81875 0,2.29125 1.25125,3.81875 3.1525,3.81875 0.8125,0 1.60875,-0.26 2.275,-0.73125 v -0.6825 c -0.76375,0.4875 -1.38125,0.66625 -2.275,0.66625 -1.38125,0 -1.7225,-1.31625 -1.7225,-2.90875 z m -1.43,-0.6825 h -3.42875 c 0,-1.3 0.5525,-2.61625 1.7225,-2.61625 1.15375,0 1.70625,1.31625 1.70625,2.61625 z"
         id="path267" />
      <path
         d="m 355.22443,193.07466 c 0,-1.28375 -1.365,-1.95 -2.6975,-2.275 -0.78,-0.195 -1.625,-0.52 -1.625,-1.28375 0,-0.69875 0.715,-1.15375 1.495,-1.15375 0.86125,0 1.7225,0.26 2.4375,0.73125 v -0.6825 c -0.715,-0.47125 -1.57625,-0.73125 -2.4375,-0.73125 -1.41375,0 -2.71375,0.86125 -2.71375,2.1775 0,1.18625 1.31625,1.73875 2.5675,2.0475 0.86125,0.21125 1.755,0.66625 1.755,1.495 0,0.76375 -0.78,1.235 -1.60875,1.235 -1.0075,0 -1.9825,-0.24375 -2.84375,-0.73125 v 0.6825 c 0.86125,0.4875 1.83625,0.73125 2.84375,0.73125 1.4625,0 2.8275,-0.8775 2.8275,-2.2425 z"
         id="path269" />
      <path
         d="m 368.38689,195.15466 v -4.55 c 0,-1.5275 -0.9425,-2.925 -2.35625,-2.925 -1.04,0 -2.015,0.3575 -2.8925,0.91 v 0.50375 c 0.73125,-0.40625 1.54375,-0.66625 2.38875,-0.66625 1.0075,0 1.5925,1.0725 1.5925,2.1775 v 0.2925 c -0.63375,-0.27625 -1.31625,-0.43875 -1.99875,-0.43875 -1.73875,0 -3.0225,0.79625 -3.0225,2.4375 0,1.56 1.1375,2.42125 2.77875,2.42125 0.82875,0 1.5925,-0.37375 2.2425,-0.89375 v 0.73125 z m -1.2675,-1.41375 c -0.4875,0.4875 -1.08875,0.89375 -1.7875,0.89375 -1.08875,0 -1.80375,-0.66625 -1.80375,-1.73875 0,-0.99125 0.8125,-1.755 1.80375,-1.755 0.6175,0 1.235,0.1625 1.7875,0.43875 z m -0.91,-6.9225 c -0.63375,-0.8775 -0.975,-1.95 -0.975,-3.03875 h -1.4625 c 0,1.21875 0.89375,2.1775 1.755,3.03875 z"
         id="path271" />
      <path
         d="m 376.4631,187.58216 v -3.8025 h -0.7475 v 3.8025 z"
         id="path273" />
      <path
         d="m 382.44309,195.15466 v -11.2125 h -0.9425 c -0.89375,1.02375 -1.95,1.90125 -3.12,2.58375 v 0.6825 c 0.99125,-0.47125 1.9175,-1.02375 2.795,-1.69 v 9.63625 z"
         id="path275" />
      <path
         d="m 386.97684,187.58216 v -3.8025 h -0.7475 v 3.8025 z"
         id="path277" />
    </g>
  </g>
</svg>
