<?xml version="1.0" encoding="UTF-8" standalone="no"?>
<!-- Created with Inkscape (http://www.inkscape.org/) -->

<svg
   width="78.93338mm"
   height="86.369774mm"
   viewBox="0 0 279.68523 306.03465"
   id="svg2"
   version="1.1"
   xmlns="http://www.w3.org/2000/svg"
   xmlns:svg="http://www.w3.org/2000/svg"
   xmlns:rdf="http://www.w3.org/1999/02/22-rdf-syntax-ns#"
   xmlns:cc="http://creativecommons.org/ns#"
   xmlns:dc="http://purl.org/dc/elements/1.1/">
  <defs
     id="defs4">
    <marker
       orient="auto"
       refY="0"
       refX="0"
       id="Arrow1Mend-3-52-0-8"
       style="overflow:visible">
      <path
         id="path17924-5-0-6-4"
         d="M 0,0 5,-5 -12.5,0 5,5 Z"
         style="fill-rule:evenodd;stroke:#000000;stroke-width:1.00000003pt;marker-start:none"
         transform="matrix(-0.4,0,0,-0.4,-4,0)" />
    </marker>
  </defs>
  <metadata
     id="metadata7">
    <rdf:RDF>
      <cc:Work
         rdf:about="">
        <dc:format>image/svg+xml</dc:format>
        <dc:type
           rdf:resource="http://purl.org/dc/dcmitype/StillImage" />
        <dc:title />
      </cc:Work>
    </rdf:RDF>
  </metadata>
  <g
     id="layer1"
     transform="translate(-48.156649,-261.70474)">
    <g
       id="g7748"
       transform="translate(77.952764,92.12597)">
      <g
         aria-label="digit_i"
         id="text4014"
         style="line-height:0%;font-family:Iwona;-inkscape-font-specification:Iwona;text-align:end;letter-spacing:0px;word-spacing:0px;text-anchor:end;stroke-width:1px">
        <path
           d="m 8.4247884,187.7953 v -10.5 h -1.17 v 4.005 c -0.585,-0.255 -1.215,-0.405 -1.845,-0.405 -1.875,0 -2.79,1.5 -2.79,3.525 0,1.995 0.75,3.525 2.565,3.525 0.765,0 1.47,-0.345 2.07,-0.825 v 0.675 z m -1.17,-1.305 c -0.45,0.45 -1.005,0.825 -1.65,0.825 -1.365,0 -1.665,-1.32 -1.665,-2.895 0,-1.41 0.435,-2.895 1.665,-2.895 0.57,0 1.14,0.15 1.65,0.405 z"
           style="font-size:15px;line-height:1.25"
           id="path122" />
        <path
           d="m 13.569779,187.2703 v -0.45 c -0.285,0.24 -0.615,0.435 -0.99,0.435 -0.555,0 -0.66,-0.69 -0.66,-1.335 v -4.875 h -1.17 v 4.875 c 0,1.005 0.39,2.025 1.275,2.025 0.57,0 1.11,-0.285 1.545,-0.675 z m -1.5,-8.565 c 0,-0.405 -0.33,-0.735 -0.735,-0.735 -0.405,0 -0.735,0.33 -0.735,0.735 0,0.405 0.33,0.735 0.735,0.735 0.405,0 0.735,-0.33 0.735,-0.735 z"
           style="font-size:15px;line-height:1.25"
           id="path124" />
        <path
           d="m 20.499764,188.6953 v -7.65 h -1.17 v 0.255 c -0.585,-0.255 -1.215,-0.405 -1.845,-0.405 -1.875,0 -2.79,1.5 -2.79,3.525 0,1.995 0.75,3.525 2.565,3.525 0.765,0 1.47,-0.345 2.07,-0.825 v 1.575 c 0,1.035 -0.57,2.01 -1.5,2.01 -0.765,0 -1.53,-0.15 -2.25,-0.405 v 0.465 c 0.84,0.39 1.77,0.63 2.7,0.63 1.32,0 2.22,-1.29 2.22,-2.7 z m -1.17,-2.205 c -0.45,0.45 -1.005,0.825 -1.65,0.825 -1.365,0 -1.665,-1.32 -1.665,-2.895 0,-1.41 0.435,-2.895 1.665,-2.895 0.57,0 1.14,0.15 1.65,0.405 z"
           style="font-size:15px;line-height:1.25"
           id="path126" />
        <path
           d="m 25.644755,187.2703 v -0.45 c -0.285,0.24 -0.615,0.435 -0.99,0.435 -0.555,0 -0.66,-0.69 -0.66,-1.335 v -4.875 h -1.17 v 4.875 c 0,1.005 0.39,2.025 1.275,2.025 0.57,0 1.11,-0.285 1.545,-0.675 z m -1.5,-8.565 c 0,-0.405 -0.33,-0.735 -0.735,-0.735 -0.405,0 -0.735,0.33 -0.735,0.735 0,0.405 0.33,0.735 0.735,0.735 0.405,0 0.735,-0.33 0.735,-0.735 z"
           style="font-size:15px;line-height:1.25"
           id="path128" />
        <path
           d="m 30.32474,187.2703 v -0.45 c -0.24,0.24 -0.525,0.435 -0.87,0.435 -0.54,0 -0.57,-0.705 -0.57,-1.335 v -4.245 h 1.44 v -0.63 h -1.44 v -2.25 h -0.705 c 0,1.2 -0.69,2.325 -1.785,2.325 v 0.555 h 1.32 v 4.245 c 0,0.99 0.315,2.025 1.17,2.025 0.555,0 1.035,-0.3 1.44,-0.675 z"
           style="font-size:15px;line-height:1.25"
           id="path130" />
        <path
           d="m 38.274719,189.5203 v -0.75 h -7.5 v 0.75 z"
           style="font-size:15px;line-height:1.25"
           id="path132" />
        <path
           d="m 42.219693,187.2703 v -0.45 c -0.285,0.24 -0.615,0.435 -0.99,0.435 -0.555,0 -0.66,-0.69 -0.66,-1.335 v -4.875 h -1.17 v 4.875 c 0,1.005 0.39,2.025 1.275,2.025 0.57,0 1.11,-0.285 1.545,-0.675 z m -1.5,-8.565 c 0,-0.405 -0.33,-0.735 -0.735,-0.735 -0.405,0 -0.735,0.33 -0.735,0.735 0,0.405 0.33,0.735 0.735,0.735 0.405,0 0.735,-0.33 0.735,-0.735 z"
           style="font-size:15px;line-height:1.25"
           id="path134" />
      </g>
      <path
         id="path3179"
         d="m 46.062983,177.16538 v 14.17324 h 10.62992 l 7.08662,-7.08663 -7.08662,-7.08661 z"
         style="fill:#afdde9;fill-opacity:1;fill-rule:evenodd;stroke:#000000;stroke-width:1px;stroke-linecap:butt;stroke-linejoin:miter;stroke-opacity:1" />
    </g>
    <g
       id="g11023"
       transform="translate(-42.519675,212.59851)">
      <g
         aria-label="segments_o"
         id="text4018"
         style="line-height:0%;font-family:Iwona;-inkscape-font-specification:Iwona;letter-spacing:0px;word-spacing:0px;stroke-width:1px">
        <path
           d="m 296.31118,224.85161 c 0,-1.185 -1.26,-1.8 -2.49,-2.1 -0.72,-0.18 -1.5,-0.48 -1.5,-1.185 0,-0.645 0.66,-1.065 1.38,-1.065 0.795,0 1.59,0.24 2.25,0.675 v -0.63 c -0.66,-0.435 -1.455,-0.675 -2.25,-0.675 -1.305,0 -2.505,0.795 -2.505,2.01 0,1.095 1.215,1.605 2.37,1.89 0.795,0.195 1.62,0.615 1.62,1.38 0,0.705 -0.72,1.14 -1.485,1.14 -0.93,0 -1.83,-0.225 -2.625,-0.675 v 0.63 c 0.795,0.45 1.695,0.675 2.625,0.675 1.35,0 2.61,-0.81 2.61,-2.07 z"
           style="font-size:15px;line-height:1.25"
           id="path137" />
        <path
           d="m 303.61616,223.54661 v -0.15 c 0,-2.115 -1.155,-3.525 -2.895,-3.525 -1.755,0 -2.91,1.41 -2.91,3.525 0,2.115 1.155,3.525 2.91,3.525 0.75,0 1.485,-0.24 2.1,-0.675 v -0.63 c -0.705,0.45 -1.275,0.615 -2.1,0.615 -1.275,0 -1.59,-1.215 -1.59,-2.685 z m -1.32,-0.63 h -3.165 c 0,-1.2 0.51,-2.415 1.59,-2.415 1.065,0 1.575,1.215 1.575,2.415 z"
           style="font-size:15px;line-height:1.25"
           id="path139" />
        <path
           d="m 310.99614,227.67161 v -7.65 h -1.17 v 0.255 c -0.585,-0.255 -1.215,-0.405 -1.845,-0.405 -1.875,0 -2.79,1.5 -2.79,3.525 0,1.995 0.75,3.525 2.565,3.525 0.765,0 1.47,-0.345 2.07,-0.825 v 1.575 c 0,1.035 -0.57,2.01 -1.5,2.01 -0.765,0 -1.53,-0.15 -2.25,-0.405 v 0.465 c 0.84,0.39 1.77,0.63 2.7,0.63 1.32,0 2.22,-1.29 2.22,-2.7 z m -1.17,-2.205 c -0.45,0.45 -1.005,0.825 -1.65,0.825 -1.365,0 -1.665,-1.32 -1.665,-2.895 0,-1.41 0.435,-2.895 1.665,-2.895 0.57,0 1.14,0.15 1.65,0.405 z"
           style="font-size:15px;line-height:1.25"
           id="path141" />
        <path
           d="m 321.58613,226.77161 v -4.875 c 0,-1.05 -0.615,-2.025 -1.59,-2.025 -0.84,0 -1.62,0.435 -2.07,1.14 -0.24,-0.66 -0.75,-1.14 -1.44,-1.14 -0.78,0 -1.41,0.54 -1.92,1.14 v -0.99 h -1.17 v 6.75 h 1.17 v -5.31 c 0.36,-0.465 0.81,-0.9 1.395,-0.9 0.615,0 0.945,0.66 0.945,1.335 v 4.875 h 1.17 v -4.875 c 0,-0.18 -0.015,-0.345 -0.045,-0.525 0.36,-0.465 0.855,-0.81 1.44,-0.81 0.615,0 0.945,0.66 0.945,1.335 v 4.875 z"
           style="font-size:15px;line-height:1.25"
           id="path143" />
        <path
           d="m 329.34111,223.54661 v -0.15 c 0,-2.115 -1.155,-3.525 -2.895,-3.525 -1.755,0 -2.91,1.41 -2.91,3.525 0,2.115 1.155,3.525 2.91,3.525 0.75,0 1.485,-0.24 2.1,-0.675 v -0.63 c -0.705,0.45 -1.275,0.615 -2.1,0.615 -1.275,0 -1.59,-1.215 -1.59,-2.685 z m -1.32,-0.63 h -3.165 c 0,-1.2 0.51,-2.415 1.59,-2.415 1.065,0 1.575,1.215 1.575,2.415 z"
           style="font-size:15px;line-height:1.25"
           id="path145" />
        <path
           d="m 336.72109,226.77161 v -4.875 c 0,-1.095 -0.84,-2.025 -1.92,-2.025 -0.9,0 -1.695,0.51 -2.34,1.14 v -0.99 h -1.17 v 6.75 h 1.17 v -5.295 c 0.51,-0.51 1.14,-0.915 1.845,-0.915 0.705,0 1.245,0.615 1.245,1.335 v 4.875 z"
           style="font-size:15px;line-height:1.25"
           id="path147" />
        <path
           d="m 342.22606,226.24661 v -0.45 c -0.24,0.24 -0.525,0.435 -0.87,0.435 -0.54,0 -0.57,-0.705 -0.57,-1.335 v -4.245 h 1.44 v -0.63 h -1.44 v -2.25 h -0.705 c 0,1.2 -0.69,2.325 -1.785,2.325 v 0.555 h 1.32 v 4.245 c 0,0.99 0.315,2.025 1.17,2.025 0.555,0 1.035,-0.3 1.44,-0.675 z"
           style="font-size:15px;line-height:1.25"
           id="path149" />
        <path
           d="m 348.43604,224.85161 c 0,-1.185 -1.26,-1.8 -2.49,-2.1 -0.72,-0.18 -1.5,-0.48 -1.5,-1.185 0,-0.645 0.66,-1.065 1.38,-1.065 0.795,0 1.59,0.24 2.25,0.675 v -0.63 c -0.66,-0.435 -1.455,-0.675 -2.25,-0.675 -1.305,0 -2.505,0.795 -2.505,2.01 0,1.095 1.215,1.605 2.37,1.89 0.795,0.195 1.62,0.615 1.62,1.38 0,0.705 -0.72,1.14 -1.485,1.14 -0.93,0 -1.83,-0.225 -2.625,-0.675 v 0.63 c 0.795,0.45 1.695,0.675 2.625,0.675 1.35,0 2.61,-0.81 2.61,-2.07 z"
           style="font-size:15px;line-height:1.25"
           id="path151" />
        <path
           d="m 356.61102,228.49661 v -0.75 h -7.5 v 0.75 z"
           style="font-size:15px;line-height:1.25"
           id="path153" />
        <path
           d="m 363.24099,223.39661 c 0,-2.295 -1.02,-3.525 -2.895,-3.525 -1.89,0 -2.91,1.23 -2.91,3.525 0,2.295 1.02,3.525 2.91,3.525 1.875,0 2.895,-1.23 2.895,-3.525 z m -1.32,0 c 0,1.875 -0.555,2.895 -1.575,2.895 -1.035,0 -1.59,-1.02 -1.59,-2.895 0,-1.875 0.555,-2.895 1.59,-2.895 1.02,0 1.575,1.02 1.575,2.895 z"
           style="font-size:15px;line-height:1.25"
           id="path155" />
      </g>
      <path
         id="path3179-8"
         d="m 269.29133,216.14169 v 14.17324 h 10.62993 l 7.08662,-7.08663 -7.08662,-7.08661 z"
         style="fill:#afdde9;fill-opacity:1;fill-rule:evenodd;stroke:#000000;stroke-width:1px;stroke-linecap:butt;stroke-linejoin:miter;stroke-opacity:1" />
    </g>
    <g
       id="g5016"
       transform="rotate(-90,38.791676,467.43985)">
      <path
         id="path5018"
         d="M 194.42046,588.18895 H -53.611044 l 14.17324,28.25448 H 180.24723 Z"
         style="fill:#ffeeaa;fill-opacity:1;fill-rule:evenodd;stroke:#000000;stroke-width:1px;stroke-linecap:butt;stroke-linejoin:miter;stroke-opacity:1" />
      <g
         aria-label="0"
         transform="rotate(90)"
         id="text5020"
         style="font-style:italic;line-height:0%;font-family:Iwona;-inkscape-font-specification:'Sans Italic'">
        <path
           d="m 596.46026,-176.61061 c 0,-2.37 -0.73,-3.55 -2.19,-3.55 -1.46,0 -2.19,1.18 -2.19,3.55 0,2.37 0.73,3.55 2.19,3.55 1.46,0 2.19,-1.18 2.19,-3.55 z m -0.88,0 c 0,2.09 -0.44,3.13 -1.31,3.13 -0.87,0 -1.31,-1.04 -1.31,-3.13 0,-2.09 0.44,-3.13 1.31,-3.13 0.87,0 1.31,1.04 1.31,3.13 z"
           style="font-style:normal;font-size:10px;line-height:1.25"
           id="path158" />
      </g>
      <g
         aria-label="1"
         transform="rotate(90)"
         id="text5024"
         style="font-style:italic;line-height:0%;font-family:Iwona;-inkscape-font-specification:'Sans Italic'">
        <path
           d="m 594.94026,-158.98738 v -6.9 h -0.58 c -0.55,0.63 -1.2,1.17 -1.92,1.59 v 0.42 c 0.61,-0.29 1.18,-0.63 1.72,-1.04 v 5.93 z"
           style="font-style:normal;font-size:10px;line-height:1.25"
           id="path161" />
      </g>
      <g
         aria-label="2"
         transform="rotate(90)"
         id="text11344"
         style="font-style:italic;line-height:0%;font-family:Iwona;-inkscape-font-specification:'Sans Italic'">
        <path
           d="m 596.39026,-144.81416 v -0.62 h -3.53 l 1.84,-1.82 c 0.82,-0.82 1.59,-1.78 1.59,-2.94 0,-0.98 -0.97,-1.62 -2.02,-1.62 -0.79,0 -1.54,0.36 -2.03,0.97 v 0.42 c 0.51,-0.59 1.25,-0.93 2.03,-0.93 0.67,0 1.24,0.5 1.24,1.16 0,0.99 -0.46,1.91 -1.14,2.62 l -2.23,2.29 v 0.47 z"
           style="font-style:normal;font-size:10px;line-height:1.25"
           id="path164" />
      </g>
      <g
         aria-label="3"
         transform="rotate(90)"
         id="text11348"
         style="font-style:italic;line-height:0%;font-family:Iwona;-inkscape-font-specification:'Sans Italic'">
        <path
           d="m 596.39026,-132.54093 c 0,-0.88 -0.62,-1.64 -1.48,-1.9 0.76,-0.22 1.23,-0.79 1.23,-1.55 0,-0.99 -0.8,-1.65 -2,-1.65 -0.65,0 -1.28,0.22 -1.79,0.62 v 0.42 c 0.51,-0.4 1.14,-0.62 1.79,-0.62 0.73,0 1.22,0.49 1.22,1.23 0,1.19 -0.55,1.5 -1.8,1.5 v 0.37 c 1.35,0 1.95,0.32 1.95,1.58 0,0.87 -0.56,1.58 -1.24,1.58 -0.76,0 -1.5,-0.22 -2.13,-0.62 v 0.42 c 0.63,0.4 1.37,0.62 2.13,0.62 1.16,0 2.12,-0.9 2.12,-2 z"
           style="font-style:normal;font-size:10px;line-height:1.25"
           id="path167" />
      </g>
      <g
         aria-label="4"
         transform="rotate(90)"
         id="text11352"
         style="font-style:italic;line-height:0%;font-family:Iwona;-inkscape-font-specification:'Sans Italic'">
        <path
           d="m 596.39026,-118.8677 v -0.46 h -0.75 v -4.04 h -0.78 l -2.72,4.04 v 0.46 h 2.72 v 2.4 h 0.78 v -2.4 z m -1.53,-0.46 h -2.21 l 2.21,-3.29 z"
           style="font-style:normal;font-size:10px;line-height:1.25"
           id="path170" />
      </g>
      <g
         aria-label="5"
         transform="rotate(90)"
         id="text11356"
         style="font-style:italic;line-height:0%;font-family:Iwona;-inkscape-font-specification:'Sans Italic'">
        <path
           d="m 596.39026,-104.54447 c 0,-1.41 -0.85,-2.35 -2.12,-2.35 -0.58,0 -1.12,0.22 -1.54,0.59 l 0.1,-2.27 h 3.36 v -0.62 h -3.75 l -0.15,3.45 0.42,0.02 c 0.38,-0.47 0.95,-0.75 1.56,-0.75 0.74,0 1.24,0.77 1.24,1.93 0,1.16 -0.5,1.93 -1.24,1.93 -0.77,0 -1.52,-0.25 -2.13,-0.72 v 0.42 c 0.61,0.47 1.36,0.72 2.13,0.72 1.27,0 2.12,-0.94 2.12,-2.35 z"
           style="font-style:normal;font-size:10px;line-height:1.25"
           id="path173" />
      </g>
      <g
         aria-label="6"
         transform="rotate(90)"
         id="text11360"
         style="font-style:italic;line-height:0%;font-family:Iwona;-inkscape-font-specification:'Sans Italic'">
        <path
           d="m 596.39026,-90.371254 c 0,-1.44 -0.57,-2.35 -1.91,-2.35 -0.58,0 -1.12,0.27 -1.46,0.73 0,-1.31 0.33,-2.71 1.46,-2.71 0.51,0 1.01,0.17 1.41,0.49 v -0.42 c -0.4,-0.32 -0.9,-0.49 -1.41,-0.49 -1.57,0 -2.34,1.78 -2.34,3.55 0,2.48 0.64,3.55 2.13,3.55 1.27,0 2.12,-0.94 2.12,-2.35 z m -0.88,0 c 0,1.16 -0.5,1.93 -1.24,1.93 -1.4,0 -1.25,-1.51 -1.25,-3.13 0.34,-0.46 0.88,-0.73 1.46,-0.73 0.8,0 1.03,1 1.03,1.93 z"
           style="font-style:normal;font-size:10px;line-height:1.25"
           id="path176" />
      </g>
      <g
         aria-label="7"
         transform="rotate(90)"
         id="text11364"
         style="font-style:italic;line-height:0%;font-family:Iwona;-inkscape-font-specification:'Sans Italic'">
        <path
           d="m 596.39026,-80.508021 v -0.34 h -4.25 v 0.62 h 3.26 l -2.95,6.28 h 0.86 z"
           style="font-style:normal;font-size:10px;line-height:1.25"
           id="path179" />
      </g>
      <g
         aria-label="8"
         transform="rotate(90)"
         id="text11368"
         style="font-style:italic;line-height:0%;font-family:Iwona;-inkscape-font-specification:'Sans Italic'">
        <path
           d="m 596.39026,-61.704788 c 0,-0.94 -0.45,-1.61 -1.22,-1.89 0.65,-0.24 1.02,-0.78 1.02,-1.51 0,-1.04 -0.73,-1.67 -1.92,-1.67 -1.2,0 -1.93,0.63 -1.93,1.67 0,0.73 0.37,1.27 1.02,1.51 -0.77,0.28 -1.22,0.95 -1.22,1.89 0,1.26 0.81,2.03 2.13,2.03 1.31,0 2.12,-0.77 2.12,-2.03 z m -0.98,-3.4 c 0,0.77 -0.44,1.25 -1.14,1.25 -0.71,0 -1.15,-0.48 -1.15,-1.25 0,-0.78 0.44,-1.25 1.15,-1.25 0.7,0 1.14,0.47 1.14,1.25 z m 0.1,3.4 c 0,1 -0.47,1.61 -1.24,1.61 -0.78,0 -1.25,-0.61 -1.25,-1.61 0,-1 0.47,-1.61 1.25,-1.61 0.77,0 1.24,0.61 1.24,1.61 z"
           style="font-style:normal;font-size:10px;line-height:1.25"
           id="path182" />
      </g>
      <g
         aria-label="9"
         transform="rotate(90)"
         id="text11372"
         style="font-style:italic;line-height:0%;font-family:Iwona;-inkscape-font-specification:'Sans Italic'">
        <path
           d="m 596.39026,-49.051555 c 0,-2.48 -0.64,-3.55 -2.12,-3.55 -1.28,0 -2.13,0.94 -2.13,2.35 0,1.44 0.57,2.35 1.91,2.35 0.58,0 1.12,-0.27 1.46,-0.73 0,1.31 -0.33,2.71 -1.46,2.71 -0.51,0 -1.01,-0.17 -1.41,-0.49 v 0.42 c 0.4,0.32 0.9,0.49 1.41,0.49 1.57,0 2.34,-1.78 2.34,-3.55 z m -0.88,0 c -0.34,0.46 -0.88,0.73 -1.46,0.73 -0.8,0 -1.03,-1 -1.03,-1.93 0,-1.16 0.5,-1.93 1.25,-1.93 1.39,0 1.24,1.51 1.24,3.13 z"
           style="font-style:normal;font-size:10px;line-height:1.25"
           id="path185" />
      </g>
      <g
         aria-label="10"
         transform="rotate(90)"
         id="text11376"
         style="font-style:italic;line-height:0%;font-family:Iwona;-inkscape-font-specification:'Sans Italic'">
        <path
           d="m 594.94026,-31.428335 v -6.9 h -0.58 c -0.55,0.63 -1.2,1.17 -1.92,1.59 v 0.42 c 0.61,-0.29 1.18,-0.63 1.72,-1.04 v 5.93 z"
           style="font-style:normal;font-size:10px;line-height:1.25"
           id="path188" />
        <path
           d="m 601.71025,-34.878335 c 0,-2.37 -0.73,-3.55 -2.19,-3.55 -1.46,0 -2.19,1.18 -2.19,3.55 0,2.37 0.73,3.55 2.19,3.55 1.46,0 2.19,-1.18 2.19,-3.55 z m -0.88,0 c 0,2.09 -0.44,3.13 -1.31,3.13 -0.87,0 -1.31,-1.04 -1.31,-3.13 0,-2.09 0.44,-3.13 1.31,-3.13 0.87,0 1.31,1.04 1.31,3.13 z"
           style="font-style:normal;font-size:10px;line-height:1.25"
           id="path190" />
      </g>
      <g
         aria-label="11"
         transform="rotate(90)"
         id="text11380"
         style="font-style:italic;line-height:0%;font-family:Iwona;-inkscape-font-specification:'Sans Italic'">
        <path
           d="m 594.94026,-17.255102 v -6.9 h -0.58 c -0.55,0.63 -1.2,1.17 -1.92,1.59 v 0.42 c 0.61,-0.29 1.18,-0.63 1.72,-1.04 v 5.93 z"
           style="font-style:normal;font-size:10px;line-height:1.25"
           id="path193" />
        <path
           d="m 600.19025,-17.255102 v -6.9 h -0.58 c -0.55,0.63 -1.2,1.17 -1.92,1.59 v 0.42 c 0.61,-0.29 1.18,-0.63 1.72,-1.04 v 5.93 z"
           style="font-style:normal;font-size:10px;line-height:1.25"
           id="path195" />
      </g>
      <g
         aria-label="12"
         transform="rotate(90)"
         id="text11384"
         style="font-style:italic;line-height:0%;font-family:Iwona;-inkscape-font-specification:'Sans Italic'">
        <path
           d="m 594.94026,-3.0818696 v -6.9 h -0.58 c -0.55,0.63 -1.2,1.17 -1.92,1.59 v 0.42 c 0.61,-0.29 1.18,-0.63 1.72,-1.04 v 5.93 z"
           style="font-style:normal;font-size:10px;line-height:1.25"
           id="path198" />
        <path
           d="m 601.64025,-3.0818696 v -0.62 h -3.53 l 1.84,-1.82 c 0.82,-0.82 1.59,-1.78 1.59,-2.94 0,-0.98 -0.97,-1.6200004 -2.02,-1.6200004 -0.79,0 -1.54,0.3600004 -2.03,0.9700004 v 0.42 c 0.51,-0.59 1.25,-0.93 2.03,-0.93 0.67,0 1.24,0.5 1.24,1.16 0,0.99 -0.46,1.91 -1.14,2.62 l -2.23,2.29 v 0.47 z"
           style="font-style:normal;font-size:10px;line-height:1.25"
           id="path200" />
      </g>
      <g
         aria-label="13"
         transform="rotate(90)"
         id="text11388"
         style="font-style:italic;line-height:0%;font-family:Iwona;-inkscape-font-specification:'Sans Italic'">
        <path
           d="M 594.94026,11.091356 V 4.1913563 h -0.58 c -0.55,0.63 -1.2,1.17 -1.92,1.59 v 0.42 c 0.61,-0.29 1.18,-0.63 1.72,-1.04 v 5.9299997 z"
           style="font-style:normal;font-size:10px;line-height:1.25"
           id="path203" />
        <path
           d="m 601.64025,9.1913563 c 0,-0.88 -0.62,-1.64 -1.48,-1.9 0.76,-0.22 1.23,-0.79 1.23,-1.55 0,-0.99 -0.8,-1.65 -2,-1.65 -0.65,0 -1.28,0.22 -1.79,0.62 v 0.42 c 0.51,-0.4 1.14,-0.62 1.79,-0.62 0.73,0 1.22,0.49 1.22,1.23 0,1.19 -0.55,1.5 -1.8,1.5 v 0.37 c 1.35,0 1.95,0.32 1.95,1.58 0,0.8699997 -0.56,1.5799997 -1.24,1.5799997 -0.76,0 -1.5,-0.22 -2.13,-0.62 v 0.42 c 0.63,0.4 1.37,0.62 2.13,0.62 1.16,0 2.12,-0.9 2.12,-1.9999997 z"
           style="font-style:normal;font-size:10px;line-height:1.25"
           id="path205" />
      </g>
      <g
         aria-label="14"
         transform="rotate(90)"
         id="text11392"
         style="font-style:italic;line-height:0%;font-family:Iwona;-inkscape-font-specification:'Sans Italic'">
        <path
           d="m 594.94026,25.264574 v -6.9 h -0.58 c -0.55,0.63 -1.2,1.17 -1.92,1.59 v 0.42 c 0.61,-0.29 1.18,-0.63 1.72,-1.04 v 5.93 z"
           style="font-style:normal;font-size:10px;line-height:1.25"
           id="path208" />
        <path
           d="m 601.64025,22.864574 v -0.46 h -0.75 v -4.04 h -0.78 l -2.72,4.04 v 0.46 h 2.72 v 2.4 h 0.78 v -2.4 z m -1.53,-0.46 h -2.21 l 2.21,-3.29 z"
           style="font-style:normal;font-size:10px;line-height:1.25"
           id="path210" />
      </g>
      <g
         aria-label="15"
         transform="rotate(90)"
         id="text11396"
         style="font-style:italic;line-height:0%;font-family:Iwona;-inkscape-font-specification:'Sans Italic'">
        <path
           d="m 594.94026,39.437805 v -6.9 h -0.58 c -0.55,0.63 -1.2,1.17 -1.92,1.59 v 0.42 c 0.61,-0.29 1.18,-0.63 1.72,-1.04 v 5.93 z"
           style="font-style:normal;font-size:10px;line-height:1.25"
           id="path213" />
        <path
           d="m 601.64025,37.187805 c 0,-1.41 -0.85,-2.35 -2.12,-2.35 -0.58,0 -1.12,0.22 -1.54,0.59 l 0.1,-2.27 h 3.36 v -0.62 h -3.75 l -0.15,3.45 0.42,0.02 c 0.38,-0.47 0.95,-0.75 1.56,-0.75 0.74,0 1.24,0.77 1.24,1.93 0,1.16 -0.5,1.93 -1.24,1.93 -0.77,0 -1.52,-0.25 -2.13,-0.72 v 0.42 c 0.61,0.47 1.36,0.72 2.13,0.72 1.27,0 2.12,-0.94 2.12,-2.35 z"
           style="font-style:normal;font-size:10px;line-height:1.25"
           id="path215" />
      </g>
    </g>
    <path
       style="fill:none;stroke:#000000;stroke-width:1px;stroke-linecap:butt;stroke-linejoin:miter;stroke-opacity:1;marker-end:url(#Arrow1Mend-3-52-0-8)"
       d="m 187.79527,435.82682 38.97638,-10e-6"
       id="path11021" />
    <path
       style="fill:none;stroke:#000000;stroke-width:1px;stroke-linecap:butt;stroke-linejoin:miter;stroke-opacity:1;marker-end:url(#Arrow1Mend-3-52-0-8)"
       d="m 141.73228,276.37797 h 31.88977 v 42.51969"
       id="path11028" />
    <g
       aria-label="&quot;1111110&quot;"
       id="text11248"
       style="line-height:0%;font-family:Iwona;-inkscape-font-specification:Iwona;text-align:end;letter-spacing:0px;word-spacing:0px;text-anchor:end;stroke-width:1px">
      <path
         d="m 55.954185,326.08089 v -3.51 h -0.69 v 3.51 z m 1.725,0 v -3.51 h -0.69 v 3.51 z"
         style="font-size:15px;line-height:10"
         id="path218" />
      <path
         d="m 63.199178,333.07089 v -10.35 h -0.87 c -0.825,0.945 -1.8,1.755 -2.88,2.385 v 0.63 c 0.915,-0.435 1.77,-0.945 2.58,-1.56 v 8.895 z"
         style="font-size:15px;line-height:10"
         id="path220" />
      <path
         d="m 71.074172,333.07089 v -10.35 h -0.87 c -0.825,0.945 -1.8,1.755 -2.88,2.385 v 0.63 c 0.915,-0.435 1.77,-0.945 2.58,-1.56 v 8.895 z"
         style="font-size:15px;line-height:10"
         id="path222" />
      <path
         d="m 78.949166,333.07089 v -10.35 h -0.87 c -0.825,0.945 -1.8,1.755 -2.88,2.385 v 0.63 c 0.915,-0.435 1.77,-0.945 2.58,-1.56 v 8.895 z"
         style="font-size:15px;line-height:10"
         id="path224" />
      <path
         d="m 86.824161,333.07089 v -10.35 h -0.87 c -0.825,0.945 -1.8,1.755 -2.88,2.385 v 0.63 c 0.915,-0.435 1.77,-0.945 2.58,-1.56 v 8.895 z"
         style="font-size:15px;line-height:10"
         id="path226" />
      <path
         d="m 94.699155,333.07089 v -10.35 h -0.87 c -0.825,0.945 -1.8,1.755 -2.88,2.385 v 0.63 c 0.915,-0.435 1.77,-0.945 2.58,-1.56 v 8.895 z"
         style="font-size:15px;line-height:10"
         id="path228" />
      <path
         d="m 102.57415,333.07089 v -10.35 h -0.87 c -0.825,0.945 -1.800003,1.755 -2.880003,2.385 v 0.63 c 0.915,-0.435 1.770003,-0.945 2.580003,-1.56 v 8.895 z"
         style="font-size:15px;line-height:10"
         id="path230" />
      <path
         d="m 112.72914,327.89589 c 0,-3.555 -1.095,-5.325 -3.285,-5.325 -2.19,0 -3.285,1.77 -3.285,5.325 0,3.555 1.095,5.325 3.285,5.325 2.19,0 3.285,-1.77 3.285,-5.325 z m -1.32,0 c 0,3.135 -0.66,4.695 -1.965,4.695 -1.305,0 -1.965,-1.56 -1.965,-4.695 0,-3.135 0.66,-4.695 1.965,-4.695 1.305,0 1.965,1.56 1.965,4.695 z"
         style="font-size:15px;line-height:10"
         id="path232" />
      <path
         d="m 114.63414,326.08089 v -3.51 h -0.69 v 3.51 z m 1.725,0 v -3.51 h -0.69 v 3.51 z"
         style="font-size:15px;line-height:10"
         id="path234" />
    </g>
    <g
       aria-label="&quot;0110000&quot;"
       id="text11252"
       style="line-height:0%;font-family:Iwona;-inkscape-font-specification:Iwona;text-align:end;letter-spacing:0px;word-spacing:0px;text-anchor:end;stroke-width:1px">
      <path
         d="m 55.954185,340.25414 v -3.51 h -0.69 v 3.51 z m 1.725,0 v -3.51 h -0.69 v 3.51 z"
         style="font-size:15px;line-height:10"
         id="path237" />
      <path
         d="m 65.479178,342.06914 c 0,-3.555 -1.095,-5.325 -3.285,-5.325 -2.19,0 -3.285,1.77 -3.285,5.325 0,3.555 1.095,5.325 3.285,5.325 2.19,0 3.285,-1.77 3.285,-5.325 z m -1.32,0 c 0,3.135 -0.66,4.695 -1.965,4.695 -1.305,0 -1.965,-1.56 -1.965,-4.695 0,-3.135 0.66,-4.695 1.965,-4.695 1.305,0 1.965,1.56 1.965,4.695 z"
         style="font-size:15px;line-height:10"
         id="path239" />
      <path
         d="m 71.074172,347.24414 v -10.35 h -0.87 c -0.825,0.945 -1.8,1.755 -2.88,2.385 v 0.63 c 0.915,-0.435 1.77,-0.945 2.58,-1.56 v 8.895 z"
         style="font-size:15px;line-height:10"
         id="path241" />
      <path
         d="m 78.949166,347.24414 v -10.35 h -0.87 c -0.825,0.945 -1.8,1.755 -2.88,2.385 v 0.63 c 0.915,-0.435 1.77,-0.945 2.58,-1.56 v 8.895 z"
         style="font-size:15px;line-height:10"
         id="path243" />
      <path
         d="m 89.104161,342.06914 c 0,-3.555 -1.095,-5.325 -3.285,-5.325 -2.19,0 -3.285,1.77 -3.285,5.325 0,3.555 1.095,5.325 3.285,5.325 2.19,0 3.285,-1.77 3.285,-5.325 z m -1.32,0 c 0,3.135 -0.66,4.695 -1.965,4.695 -1.305,0 -1.965,-1.56 -1.965,-4.695 0,-3.135 0.66,-4.695 1.965,-4.695 1.305,0 1.965,1.56 1.965,4.695 z"
         style="font-size:15px;line-height:10"
         id="path245" />
      <path
         d="m 96.979155,342.06914 c 0,-3.555 -1.095,-5.325 -3.285,-5.325 -2.19,0 -3.285,1.77 -3.285,5.325 0,3.555 1.095,5.325 3.285,5.325 2.19,0 3.285,-1.77 3.285,-5.325 z m -1.32,0 c 0,3.135 -0.66,4.695 -1.965,4.695 -1.305,0 -1.965,-1.56 -1.965,-4.695 0,-3.135 0.66,-4.695 1.965,-4.695 1.305,0 1.965,1.56 1.965,4.695 z"
         style="font-size:15px;line-height:10"
         id="path247" />
      <path
         d="m 104.85415,342.06914 c 0,-3.555 -1.095,-5.325 -3.285,-5.325 -2.190003,0 -3.285003,1.77 -3.285003,5.325 0,3.555 1.095,5.325 3.285003,5.325 2.19,0 3.285,-1.77 3.285,-5.325 z m -1.32,0 c 0,3.135 -0.66,4.695 -1.965,4.695 -1.305,0 -1.965003,-1.56 -1.965003,-4.695 0,-3.135 0.660003,-4.695 1.965003,-4.695 1.305,0 1.965,1.56 1.965,4.695 z"
         style="font-size:15px;line-height:10"
         id="path249" />
      <path
         d="m 112.72914,342.06914 c 0,-3.555 -1.095,-5.325 -3.285,-5.325 -2.19,0 -3.285,1.77 -3.285,5.325 0,3.555 1.095,5.325 3.285,5.325 2.19,0 3.285,-1.77 3.285,-5.325 z m -1.32,0 c 0,3.135 -0.66,4.695 -1.965,4.695 -1.305,0 -1.965,-1.56 -1.965,-4.695 0,-3.135 0.66,-4.695 1.965,-4.695 1.305,0 1.965,1.56 1.965,4.695 z"
         style="font-size:15px;line-height:10"
         id="path251" />
      <path
         d="m 114.63414,340.25414 v -3.51 h -0.69 v 3.51 z m 1.725,0 v -3.51 h -0.69 v 3.51 z"
         style="font-size:15px;line-height:10"
         id="path253" />
    </g>
    <g
       aria-label="&quot;1101101&quot;"
       id="text11256"
       style="line-height:0%;font-family:Iwona;-inkscape-font-specification:Iwona;text-align:end;letter-spacing:0px;word-spacing:0px;text-anchor:end;stroke-width:1px">
      <path
         d="m 55.954185,354.42736 v -3.51 h -0.69 v 3.51 z m 1.725,0 v -3.51 h -0.69 v 3.51 z"
         style="font-size:15px;line-height:10"
         id="path256" />
      <path
         d="m 63.199178,361.41736 v -10.35 h -0.87 c -0.825,0.945 -1.8,1.755 -2.88,2.385 v 0.63 c 0.915,-0.435 1.77,-0.945 2.58,-1.56 v 8.895 z"
         style="font-size:15px;line-height:10"
         id="path258" />
      <path
         d="m 71.074172,361.41736 v -10.35 h -0.87 c -0.825,0.945 -1.8,1.755 -2.88,2.385 v 0.63 c 0.915,-0.435 1.77,-0.945 2.58,-1.56 v 8.895 z"
         style="font-size:15px;line-height:10"
         id="path260" />
      <path
         d="m 81.229166,356.24236 c 0,-3.555 -1.095,-5.325 -3.285,-5.325 -2.19,0 -3.285,1.77 -3.285,5.325 0,3.555 1.095,5.325 3.285,5.325 2.19,0 3.285,-1.77 3.285,-5.325 z m -1.32,0 c 0,3.135 -0.66,4.695 -1.965,4.695 -1.305,0 -1.965,-1.56 -1.965,-4.695 0,-3.135 0.66,-4.695 1.965,-4.695 1.305,0 1.965,1.56 1.965,4.695 z"
         style="font-size:15px;line-height:10"
         id="path262" />
      <path
         d="m 86.824161,361.41736 v -10.35 h -0.87 c -0.825,0.945 -1.8,1.755 -2.88,2.385 v 0.63 c 0.915,-0.435 1.77,-0.945 2.58,-1.56 v 8.895 z"
         style="font-size:15px;line-height:10"
         id="path264" />
      <path
         d="m 94.699155,361.41736 v -10.35 h -0.87 c -0.825,0.945 -1.8,1.755 -2.88,2.385 v 0.63 c 0.915,-0.435 1.77,-0.945 2.58,-1.56 v 8.895 z"
         style="font-size:15px;line-height:10"
         id="path266" />
      <path
         d="m 104.85415,356.24236 c 0,-3.555 -1.095,-5.325 -3.285,-5.325 -2.190003,0 -3.285003,1.77 -3.285003,5.325 0,3.555 1.095,5.325 3.285003,5.325 2.19,0 3.285,-1.77 3.285,-5.325 z m -1.32,0 c 0,3.135 -0.66,4.695 -1.965,4.695 -1.305,0 -1.965003,-1.56 -1.965003,-4.695 0,-3.135 0.660003,-4.695 1.965003,-4.695 1.305,0 1.965,1.56 1.965,4.695 z"
         style="font-size:15px;line-height:10"
         id="path268" />
      <path
         d="m 110.44914,361.41736 v -10.35 h -0.87 c -0.825,0.945 -1.8,1.755 -2.88,2.385 v 0.63 c 0.915,-0.435 1.77,-0.945 2.58,-1.56 v 8.895 z"
         style="font-size:15px;line-height:10"
         id="path270" />
      <path
         d="m 114.63414,354.42736 v -3.51 h -0.69 v 3.51 z m 1.725,0 v -3.51 h -0.69 v 3.51 z"
         style="font-size:15px;line-height:10"
         id="path272" />
    </g>
    <g
       aria-label="&quot;1111001&quot;"
       id="text11260"
       style="line-height:0%;font-family:Iwona;-inkscape-font-specification:Iwona;text-align:end;letter-spacing:0px;word-spacing:0px;text-anchor:end;stroke-width:1px">
      <path
         d="m 55.954185,368.60058 v -3.51 h -0.69 v 3.51 z m 1.725,0 v -3.51 h -0.69 v 3.51 z"
         style="font-size:15px;line-height:10"
         id="path275" />
      <path
         d="m 63.199178,375.59058 v -10.35 h -0.87 c -0.825,0.945 -1.8,1.755 -2.88,2.385 v 0.63 c 0.915,-0.435 1.77,-0.945 2.58,-1.56 v 8.895 z"
         style="font-size:15px;line-height:10"
         id="path277" />
      <path
         d="m 71.074172,375.59058 v -10.35 h -0.87 c -0.825,0.945 -1.8,1.755 -2.88,2.385 v 0.63 c 0.915,-0.435 1.77,-0.945 2.58,-1.56 v 8.895 z"
         style="font-size:15px;line-height:10"
         id="path279" />
      <path
         d="m 78.949166,375.59058 v -10.35 h -0.87 c -0.825,0.945 -1.8,1.755 -2.88,2.385 v 0.63 c 0.915,-0.435 1.77,-0.945 2.58,-1.56 v 8.895 z"
         style="font-size:15px;line-height:10"
         id="path281" />
      <path
         d="m 86.824161,375.59058 v -10.35 h -0.87 c -0.825,0.945 -1.8,1.755 -2.88,2.385 v 0.63 c 0.915,-0.435 1.77,-0.945 2.58,-1.56 v 8.895 z"
         style="font-size:15px;line-height:10"
         id="path283" />
      <path
         d="m 96.979155,370.41558 c 0,-3.555 -1.095,-5.325 -3.285,-5.325 -2.19,0 -3.285,1.77 -3.285,5.325 0,3.555 1.095,5.325 3.285,5.325 2.19,0 3.285,-1.77 3.285,-5.325 z m -1.32,0 c 0,3.135 -0.66,4.695 -1.965,4.695 -1.305,0 -1.965,-1.56 -1.965,-4.695 0,-3.135 0.66,-4.695 1.965,-4.695 1.305,0 1.965,1.56 1.965,4.695 z"
         style="font-size:15px;line-height:10"
         id="path285" />
      <path
         d="m 104.85415,370.41558 c 0,-3.555 -1.095,-5.325 -3.285,-5.325 -2.190003,0 -3.285003,1.77 -3.285003,5.325 0,3.555 1.095,5.325 3.285003,5.325 2.19,0 3.285,-1.77 3.285,-5.325 z m -1.32,0 c 0,3.135 -0.66,4.695 -1.965,4.695 -1.305,0 -1.965003,-1.56 -1.965003,-4.695 0,-3.135 0.660003,-4.695 1.965003,-4.695 1.305,0 1.965,1.56 1.965,4.695 z"
         style="font-size:15px;line-height:10"
         id="path287" />
      <path
         d="m 110.44914,375.59058 v -10.35 h -0.87 c -0.825,0.945 -1.8,1.755 -2.88,2.385 v 0.63 c 0.915,-0.435 1.77,-0.945 2.58,-1.56 v 8.895 z"
         style="font-size:15px;line-height:10"
         id="path289" />
      <path
         d="m 114.63414,368.60058 v -3.51 h -0.69 v 3.51 z m 1.725,0 v -3.51 h -0.69 v 3.51 z"
         style="font-size:15px;line-height:10"
         id="path291" />
    </g>
    <g
       aria-label="&quot;0110011&quot;"
       id="text11264"
       style="line-height:0%;font-family:Iwona;-inkscape-font-specification:Iwona;text-align:end;letter-spacing:0px;word-spacing:0px;text-anchor:end;stroke-width:1px">
      <path
         d="m 55.954185,382.77382 v -3.51 h -0.69 v 3.51 z m 1.725,0 v -3.51 h -0.69 v 3.51 z"
         style="font-size:15px;line-height:10"
         id="path294" />
      <path
         d="m 65.479178,384.58882 c 0,-3.555 -1.095,-5.325 -3.285,-5.325 -2.19,0 -3.285,1.77 -3.285,5.325 0,3.555 1.095,5.325 3.285,5.325 2.19,0 3.285,-1.77 3.285,-5.325 z m -1.32,0 c 0,3.135 -0.66,4.695 -1.965,4.695 -1.305,0 -1.965,-1.56 -1.965,-4.695 0,-3.135 0.66,-4.695 1.965,-4.695 1.305,0 1.965,1.56 1.965,4.695 z"
         style="font-size:15px;line-height:10"
         id="path296" />
      <path
         d="m 71.074172,389.76382 v -10.35 h -0.87 c -0.825,0.945 -1.8,1.755 -2.88,2.385 v 0.63 c 0.915,-0.435 1.77,-0.945 2.58,-1.56 v 8.895 z"
         style="font-size:15px;line-height:10"
         id="path298" />
      <path
         d="m 78.949166,389.76382 v -10.35 h -0.87 c -0.825,0.945 -1.8,1.755 -2.88,2.385 v 0.63 c 0.915,-0.435 1.77,-0.945 2.58,-1.56 v 8.895 z"
         style="font-size:15px;line-height:10"
         id="path300" />
      <path
         d="m 89.104161,384.58882 c 0,-3.555 -1.095,-5.325 -3.285,-5.325 -2.19,0 -3.285,1.77 -3.285,5.325 0,3.555 1.095,5.325 3.285,5.325 2.19,0 3.285,-1.77 3.285,-5.325 z m -1.32,0 c 0,3.135 -0.66,4.695 -1.965,4.695 -1.305,0 -1.965,-1.56 -1.965,-4.695 0,-3.135 0.66,-4.695 1.965,-4.695 1.305,0 1.965,1.56 1.965,4.695 z"
         style="font-size:15px;line-height:10"
         id="path302" />
      <path
         d="m 96.979155,384.58882 c 0,-3.555 -1.095,-5.325 -3.285,-5.325 -2.19,0 -3.285,1.77 -3.285,5.325 0,3.555 1.095,5.325 3.285,5.325 2.19,0 3.285,-1.77 3.285,-5.325 z m -1.32,0 c 0,3.135 -0.66,4.695 -1.965,4.695 -1.305,0 -1.965,-1.56 -1.965,-4.695 0,-3.135 0.66,-4.695 1.965,-4.695 1.305,0 1.965,1.56 1.965,4.695 z"
         style="font-size:15px;line-height:10"
         id="path304" />
      <path
         d="m 102.57415,389.76382 v -10.35 h -0.87 c -0.825,0.945 -1.800003,1.755 -2.880003,2.385 v 0.63 c 0.915,-0.435 1.770003,-0.945 2.580003,-1.56 v 8.895 z"
         style="font-size:15px;line-height:10"
         id="path306" />
      <path
         d="m 110.44914,389.76382 v -10.35 h -0.87 c -0.825,0.945 -1.8,1.755 -2.88,2.385 v 0.63 c 0.915,-0.435 1.77,-0.945 2.58,-1.56 v 8.895 z"
         style="font-size:15px;line-height:10"
         id="path308" />
      <path
         d="m 114.63414,382.77382 v -3.51 h -0.69 v 3.51 z m 1.725,0 v -3.51 h -0.69 v 3.51 z"
         style="font-size:15px;line-height:10"
         id="path310" />
    </g>
    <g
       aria-label="&quot;1011011&quot;"
       id="text11268"
       style="line-height:0%;font-family:Iwona;-inkscape-font-specification:Iwona;text-align:end;letter-spacing:0px;word-spacing:0px;text-anchor:end;stroke-width:1px">
      <path
         d="m 55.954185,396.94707 v -3.51 h -0.69 v 3.51 z m 1.725,0 v -3.51 h -0.69 v 3.51 z"
         style="font-size:15px;line-height:10"
         id="path313" />
      <path
         d="m 63.199178,403.93707 v -10.35 h -0.87 c -0.825,0.945 -1.8,1.755 -2.88,2.385 v 0.63 c 0.915,-0.435 1.77,-0.945 2.58,-1.56 v 8.895 z"
         style="font-size:15px;line-height:10"
         id="path315" />
      <path
         d="m 73.354172,398.76207 c 0,-3.555 -1.095,-5.325 -3.285,-5.325 -2.19,0 -3.285,1.77 -3.285,5.325 0,3.555 1.095,5.325 3.285,5.325 2.19,0 3.285,-1.77 3.285,-5.325 z m -1.32,0 c 0,3.135 -0.66,4.695 -1.965,4.695 -1.305,0 -1.965,-1.56 -1.965,-4.695 0,-3.135 0.66,-4.695 1.965,-4.695 1.305,0 1.965,1.56 1.965,4.695 z"
         style="font-size:15px;line-height:10"
         id="path317" />
      <path
         d="m 78.949166,403.93707 v -10.35 h -0.87 c -0.825,0.945 -1.8,1.755 -2.88,2.385 v 0.63 c 0.915,-0.435 1.77,-0.945 2.58,-1.56 v 8.895 z"
         style="font-size:15px;line-height:10"
         id="path319" />
      <path
         d="m 86.824161,403.93707 v -10.35 h -0.87 c -0.825,0.945 -1.8,1.755 -2.88,2.385 v 0.63 c 0.915,-0.435 1.77,-0.945 2.58,-1.56 v 8.895 z"
         style="font-size:15px;line-height:10"
         id="path321" />
      <path
         d="m 96.979155,398.76207 c 0,-3.555 -1.095,-5.325 -3.285,-5.325 -2.19,0 -3.285,1.77 -3.285,5.325 0,3.555 1.095,5.325 3.285,5.325 2.19,0 3.285,-1.77 3.285,-5.325 z m -1.32,0 c 0,3.135 -0.66,4.695 -1.965,4.695 -1.305,0 -1.965,-1.56 -1.965,-4.695 0,-3.135 0.66,-4.695 1.965,-4.695 1.305,0 1.965,1.56 1.965,4.695 z"
         style="font-size:15px;line-height:10"
         id="path323" />
      <path
         d="m 102.57415,403.93707 v -10.35 h -0.87 c -0.825,0.945 -1.800003,1.755 -2.880003,2.385 v 0.63 c 0.915,-0.435 1.770003,-0.945 2.580003,-1.56 v 8.895 z"
         style="font-size:15px;line-height:10"
         id="path325" />
      <path
         d="m 110.44914,403.93707 v -10.35 h -0.87 c -0.825,0.945 -1.8,1.755 -2.88,2.385 v 0.63 c 0.915,-0.435 1.77,-0.945 2.58,-1.56 v 8.895 z"
         style="font-size:15px;line-height:10"
         id="path327" />
      <path
         d="m 114.63414,396.94707 v -3.51 h -0.69 v 3.51 z m 1.725,0 v -3.51 h -0.69 v 3.51 z"
         style="font-size:15px;line-height:10"
         id="path329" />
    </g>
    <g
       aria-label="&quot;1011111&quot;"
       id="text11272"
       style="line-height:0%;font-family:Iwona;-inkscape-font-specification:Iwona;text-align:end;letter-spacing:0px;word-spacing:0px;text-anchor:end;stroke-width:1px">
      <path
         d="m 55.954185,411.12029 v -3.51 h -0.69 v 3.51 z m 1.725,0 v -3.51 h -0.69 v 3.51 z"
         style="font-size:15px;line-height:10"
         id="path332" />
      <path
         d="m 63.199178,418.11029 v -10.35 h -0.87 c -0.825,0.945 -1.8,1.755 -2.88,2.385 v 0.63 c 0.915,-0.435 1.77,-0.945 2.58,-1.56 v 8.895 z"
         style="font-size:15px;line-height:10"
         id="path334" />
      <path
         d="m 73.354172,412.93529 c 0,-3.555 -1.095,-5.325 -3.285,-5.325 -2.19,0 -3.285,1.77 -3.285,5.325 0,3.555 1.095,5.325 3.285,5.325 2.19,0 3.285,-1.77 3.285,-5.325 z m -1.32,0 c 0,3.135 -0.66,4.695 -1.965,4.695 -1.305,0 -1.965,-1.56 -1.965,-4.695 0,-3.135 0.66,-4.695 1.965,-4.695 1.305,0 1.965,1.56 1.965,4.695 z"
         style="font-size:15px;line-height:10"
         id="path336" />
      <path
         d="m 78.949166,418.11029 v -10.35 h -0.87 c -0.825,0.945 -1.8,1.755 -2.88,2.385 v 0.63 c 0.915,-0.435 1.77,-0.945 2.58,-1.56 v 8.895 z"
         style="font-size:15px;line-height:10"
         id="path338" />
      <path
         d="m 86.824161,418.11029 v -10.35 h -0.87 c -0.825,0.945 -1.8,1.755 -2.88,2.385 v 0.63 c 0.915,-0.435 1.77,-0.945 2.58,-1.56 v 8.895 z"
         style="font-size:15px;line-height:10"
         id="path340" />
      <path
         d="m 94.699155,418.11029 v -10.35 h -0.87 c -0.825,0.945 -1.8,1.755 -2.88,2.385 v 0.63 c 0.915,-0.435 1.77,-0.945 2.58,-1.56 v 8.895 z"
         style="font-size:15px;line-height:10"
         id="path342" />
      <path
         d="m 102.57415,418.11029 v -10.35 h -0.87 c -0.825,0.945 -1.800003,1.755 -2.880003,2.385 v 0.63 c 0.915,-0.435 1.770003,-0.945 2.580003,-1.56 v 8.895 z"
         style="font-size:15px;line-height:10"
         id="path344" />
      <path
         d="m 110.44914,418.11029 v -10.35 h -0.87 c -0.825,0.945 -1.8,1.755 -2.88,2.385 v 0.63 c 0.915,-0.435 1.77,-0.945 2.58,-1.56 v 8.895 z"
         style="font-size:15px;line-height:10"
         id="path346" />
      <path
         d="m 114.63414,411.12029 v -3.51 h -0.69 v 3.51 z m 1.725,0 v -3.51 h -0.69 v 3.51 z"
         style="font-size:15px;line-height:10"
         id="path348" />
    </g>
    <g
       aria-label="&quot;1110000&quot;"
       id="text11276"
       style="line-height:0%;font-family:Iwona;-inkscape-font-specification:Iwona;text-align:end;letter-spacing:0px;word-spacing:0px;text-anchor:end;stroke-width:1px">
      <path
         d="m 55.954185,425.29351 v -3.51 h -0.69 v 3.51 z m 1.725,0 v -3.51 h -0.69 v 3.51 z"
         style="font-size:15px;line-height:10"
         id="path351" />
      <path
         d="m 63.199178,432.28351 v -10.35 h -0.87 c -0.825,0.945 -1.8,1.755 -2.88,2.385 v 0.63 c 0.915,-0.435 1.77,-0.945 2.58,-1.56 v 8.895 z"
         style="font-size:15px;line-height:10"
         id="path353" />
      <path
         d="m 71.074172,432.28351 v -10.35 h -0.87 c -0.825,0.945 -1.8,1.755 -2.88,2.385 v 0.63 c 0.915,-0.435 1.77,-0.945 2.58,-1.56 v 8.895 z"
         style="font-size:15px;line-height:10"
         id="path355" />
      <path
         d="m 78.949166,432.28351 v -10.35 h -0.87 c -0.825,0.945 -1.8,1.755 -2.88,2.385 v 0.63 c 0.915,-0.435 1.77,-0.945 2.58,-1.56 v 8.895 z"
         style="font-size:15px;line-height:10"
         id="path357" />
      <path
         d="m 89.104161,427.10851 c 0,-3.555 -1.095,-5.325 -3.285,-5.325 -2.19,0 -3.285,1.77 -3.285,5.325 0,3.555 1.095,5.325 3.285,5.325 2.19,0 3.285,-1.77 3.285,-5.325 z m -1.32,0 c 0,3.135 -0.66,4.695 -1.965,4.695 -1.305,0 -1.965,-1.56 -1.965,-4.695 0,-3.135 0.66,-4.695 1.965,-4.695 1.305,0 1.965,1.56 1.965,4.695 z"
         style="font-size:15px;line-height:10"
         id="path359" />
      <path
         d="m 96.979155,427.10851 c 0,-3.555 -1.095,-5.325 -3.285,-5.325 -2.19,0 -3.285,1.77 -3.285,5.325 0,3.555 1.095,5.325 3.285,5.325 2.19,0 3.285,-1.77 3.285,-5.325 z m -1.32,0 c 0,3.135 -0.66,4.695 -1.965,4.695 -1.305,0 -1.965,-1.56 -1.965,-4.695 0,-3.135 0.66,-4.695 1.965,-4.695 1.305,0 1.965,1.56 1.965,4.695 z"
         style="font-size:15px;line-height:10"
         id="path361" />
      <path
         d="m 104.85415,427.10851 c 0,-3.555 -1.095,-5.325 -3.285,-5.325 -2.190003,0 -3.285003,1.77 -3.285003,5.325 0,3.555 1.095,5.325 3.285003,5.325 2.19,0 3.285,-1.77 3.285,-5.325 z m -1.32,0 c 0,3.135 -0.66,4.695 -1.965,4.695 -1.305,0 -1.965003,-1.56 -1.965003,-4.695 0,-3.135 0.660003,-4.695 1.965003,-4.695 1.305,0 1.965,1.56 1.965,4.695 z"
         style="font-size:15px;line-height:10"
         id="path363" />
      <path
         d="m 112.72914,427.10851 c 0,-3.555 -1.095,-5.325 -3.285,-5.325 -2.19,0 -3.285,1.77 -3.285,5.325 0,3.555 1.095,5.325 3.285,5.325 2.19,0 3.285,-1.77 3.285,-5.325 z m -1.32,0 c 0,3.135 -0.66,4.695 -1.965,4.695 -1.305,0 -1.965,-1.56 -1.965,-4.695 0,-3.135 0.66,-4.695 1.965,-4.695 1.305,0 1.965,1.56 1.965,4.695 z"
         style="font-size:15px;line-height:10"
         id="path365" />
      <path
         d="m 114.63414,425.29351 v -3.51 h -0.69 v 3.51 z m 1.725,0 v -3.51 h -0.69 v 3.51 z"
         style="font-size:15px;line-height:10"
         id="path367" />
    </g>
    <g
       aria-label="&quot;1111111&quot;"
       id="text11280"
       style="line-height:0%;font-family:Iwona;-inkscape-font-specification:Iwona;text-align:end;letter-spacing:0px;word-spacing:0px;text-anchor:end;stroke-width:1px">
      <path
         d="m 55.954185,439.46673 v -3.51 h -0.69 v 3.51 z m 1.725,0 v -3.51 h -0.69 v 3.51 z"
         style="font-size:15px;line-height:10"
         id="path370" />
      <path
         d="m 63.199178,446.45673 v -10.35 h -0.87 c -0.825,0.945 -1.8,1.755 -2.88,2.385 v 0.63 c 0.915,-0.435 1.77,-0.945 2.58,-1.56 v 8.895 z"
         style="font-size:15px;line-height:10"
         id="path372" />
      <path
         d="m 71.074172,446.45673 v -10.35 h -0.87 c -0.825,0.945 -1.8,1.755 -2.88,2.385 v 0.63 c 0.915,-0.435 1.77,-0.945 2.58,-1.56 v 8.895 z"
         style="font-size:15px;line-height:10"
         id="path374" />
      <path
         d="m 78.949166,446.45673 v -10.35 h -0.87 c -0.825,0.945 -1.8,1.755 -2.88,2.385 v 0.63 c 0.915,-0.435 1.77,-0.945 2.58,-1.56 v 8.895 z"
         style="font-size:15px;line-height:10"
         id="path376" />
      <path
         d="m 86.824161,446.45673 v -10.35 h -0.87 c -0.825,0.945 -1.8,1.755 -2.88,2.385 v 0.63 c 0.915,-0.435 1.77,-0.945 2.58,-1.56 v 8.895 z"
         style="font-size:15px;line-height:10"
         id="path378" />
      <path
         d="m 94.699155,446.45673 v -10.35 h -0.87 c -0.825,0.945 -1.8,1.755 -2.88,2.385 v 0.63 c 0.915,-0.435 1.77,-0.945 2.58,-1.56 v 8.895 z"
         style="font-size:15px;line-height:10"
         id="path380" />
      <path
         d="m 102.57415,446.45673 v -10.35 h -0.87 c -0.825,0.945 -1.800003,1.755 -2.880003,2.385 v 0.63 c 0.915,-0.435 1.770003,-0.945 2.580003,-1.56 v 8.895 z"
         style="font-size:15px;line-height:10"
         id="path382" />
      <path
         d="m 110.44914,446.45673 v -10.35 h -0.87 c -0.825,0.945 -1.8,1.755 -2.88,2.385 v 0.63 c 0.915,-0.435 1.77,-0.945 2.58,-1.56 v 8.895 z"
         style="font-size:15px;line-height:10"
         id="path384" />
      <path
         d="m 114.63414,439.46673 v -3.51 h -0.69 v 3.51 z m 1.725,0 v -3.51 h -0.69 v 3.51 z"
         style="font-size:15px;line-height:10"
         id="path386" />
    </g>
    <g
       aria-label="&quot;1111011&quot;"
       id="text11284"
       style="line-height:0%;font-family:Iwona;-inkscape-font-specification:Iwona;text-align:end;letter-spacing:0px;word-spacing:0px;text-anchor:end;stroke-width:1px">
      <path
         d="m 55.954185,453.63997 v -3.51 h -0.69 v 3.51 z m 1.725,0 v -3.51 h -0.69 v 3.51 z"
         style="font-size:15px;line-height:10"
         id="path389" />
      <path
         d="m 63.199178,460.62997 v -10.35 h -0.87 c -0.825,0.945 -1.8,1.755 -2.88,2.385 v 0.63 c 0.915,-0.435 1.77,-0.945 2.58,-1.56 v 8.895 z"
         style="font-size:15px;line-height:10"
         id="path391" />
      <path
         d="m 71.074172,460.62997 v -10.35 h -0.87 c -0.825,0.945 -1.8,1.755 -2.88,2.385 v 0.63 c 0.915,-0.435 1.77,-0.945 2.58,-1.56 v 8.895 z"
         style="font-size:15px;line-height:10"
         id="path393" />
      <path
         d="m 78.949166,460.62997 v -10.35 h -0.87 c -0.825,0.945 -1.8,1.755 -2.88,2.385 v 0.63 c 0.915,-0.435 1.77,-0.945 2.58,-1.56 v 8.895 z"
         style="font-size:15px;line-height:10"
         id="path395" />
      <path
         d="m 86.824161,460.62997 v -10.35 h -0.87 c -0.825,0.945 -1.8,1.755 -2.88,2.385 v 0.63 c 0.915,-0.435 1.77,-0.945 2.58,-1.56 v 8.895 z"
         style="font-size:15px;line-height:10"
         id="path397" />
      <path
         d="m 96.979155,455.45497 c 0,-3.555 -1.095,-5.325 -3.285,-5.325 -2.19,0 -3.285,1.77 -3.285,5.325 0,3.555 1.095,5.325 3.285,5.325 2.19,0 3.285,-1.77 3.285,-5.325 z m -1.32,0 c 0,3.135 -0.66,4.695 -1.965,4.695 -1.305,0 -1.965,-1.56 -1.965,-4.695 0,-3.135 0.66,-4.695 1.965,-4.695 1.305,0 1.965,1.56 1.965,4.695 z"
         style="font-size:15px;line-height:10"
         id="path399" />
      <path
         d="m 102.57415,460.62997 v -10.35 h -0.87 c -0.825,0.945 -1.800003,1.755 -2.880003,2.385 v 0.63 c 0.915,-0.435 1.770003,-0.945 2.580003,-1.56 v 8.895 z"
         style="font-size:15px;line-height:10"
         id="path401" />
      <path
         d="m 110.44914,460.62997 v -10.35 h -0.87 c -0.825,0.945 -1.8,1.755 -2.88,2.385 v 0.63 c 0.915,-0.435 1.77,-0.945 2.58,-1.56 v 8.895 z"
         style="font-size:15px;line-height:10"
         id="path403" />
      <path
         d="m 114.63414,453.63997 v -3.51 h -0.69 v 3.51 z m 1.725,0 v -3.51 h -0.69 v 3.51 z"
         style="font-size:15px;line-height:10"
         id="path405" />
    </g>
    <g
       aria-label="&quot;1110111&quot;"
       id="text11288"
       style="line-height:0%;font-family:Iwona;-inkscape-font-specification:Iwona;text-align:end;letter-spacing:0px;word-spacing:0px;text-anchor:end;stroke-width:1px">
      <path
         d="m 55.954185,467.81319 v -3.51 h -0.69 v 3.51 z m 1.725,0 v -3.51 h -0.69 v 3.51 z"
         style="font-size:15px;line-height:10"
         id="path408" />
      <path
         d="m 63.199178,474.80319 v -10.35 h -0.87 c -0.825,0.945 -1.8,1.755 -2.88,2.385 v 0.63 c 0.915,-0.435 1.77,-0.945 2.58,-1.56 v 8.895 z"
         style="font-size:15px;line-height:10"
         id="path410" />
      <path
         d="m 71.074172,474.80319 v -10.35 h -0.87 c -0.825,0.945 -1.8,1.755 -2.88,2.385 v 0.63 c 0.915,-0.435 1.77,-0.945 2.58,-1.56 v 8.895 z"
         style="font-size:15px;line-height:10"
         id="path412" />
      <path
         d="m 78.949166,474.80319 v -10.35 h -0.87 c -0.825,0.945 -1.8,1.755 -2.88,2.385 v 0.63 c 0.915,-0.435 1.77,-0.945 2.58,-1.56 v 8.895 z"
         style="font-size:15px;line-height:10"
         id="path414" />
      <path
         d="m 89.104161,469.62819 c 0,-3.555 -1.095,-5.325 -3.285,-5.325 -2.19,0 -3.285,1.77 -3.285,5.325 0,3.555 1.095,5.325 3.285,5.325 2.19,0 3.285,-1.77 3.285,-5.325 z m -1.32,0 c 0,3.135 -0.66,4.695 -1.965,4.695 -1.305,0 -1.965,-1.56 -1.965,-4.695 0,-3.135 0.66,-4.695 1.965,-4.695 1.305,0 1.965,1.56 1.965,4.695 z"
         style="font-size:15px;line-height:10"
         id="path416" />
      <path
         d="m 94.699155,474.80319 v -10.35 h -0.87 c -0.825,0.945 -1.8,1.755 -2.88,2.385 v 0.63 c 0.915,-0.435 1.77,-0.945 2.58,-1.56 v 8.895 z"
         style="font-size:15px;line-height:10"
         id="path418" />
      <path
         d="m 102.57415,474.80319 v -10.35 h -0.87 c -0.825,0.945 -1.800003,1.755 -2.880003,2.385 v 0.63 c 0.915,-0.435 1.770003,-0.945 2.580003,-1.56 v 8.895 z"
         style="font-size:15px;line-height:10"
         id="path420" />
      <path
         d="m 110.44914,474.80319 v -10.35 h -0.87 c -0.825,0.945 -1.8,1.755 -2.88,2.385 v 0.63 c 0.915,-0.435 1.77,-0.945 2.58,-1.56 v 8.895 z"
         style="font-size:15px;line-height:10"
         id="path422" />
      <path
         d="m 114.63414,467.81319 v -3.51 h -0.69 v 3.51 z m 1.725,0 v -3.51 h -0.69 v 3.51 z"
         style="font-size:15px;line-height:10"
         id="path424" />
    </g>
    <g
       aria-label="&quot;0011111&quot;"
       id="text11292"
       style="line-height:0%;font-family:Iwona;-inkscape-font-specification:Iwona;text-align:end;letter-spacing:0px;word-spacing:0px;text-anchor:end;stroke-width:1px">
      <path
         d="m 55.954185,481.98641 v -3.51 h -0.69 v 3.51 z m 1.725,0 v -3.51 h -0.69 v 3.51 z"
         style="font-size:15px;line-height:10"
         id="path427" />
      <path
         d="m 65.479178,483.80141 c 0,-3.555 -1.095,-5.325 -3.285,-5.325 -2.19,0 -3.285,1.77 -3.285,5.325 0,3.555 1.095,5.325 3.285,5.325 2.19,0 3.285,-1.77 3.285,-5.325 z m -1.32,0 c 0,3.135 -0.66,4.695 -1.965,4.695 -1.305,0 -1.965,-1.56 -1.965,-4.695 0,-3.135 0.66,-4.695 1.965,-4.695 1.305,0 1.965,1.56 1.965,4.695 z"
         style="font-size:15px;line-height:10"
         id="path429" />
      <path
         d="m 73.354172,483.80141 c 0,-3.555 -1.095,-5.325 -3.285,-5.325 -2.19,0 -3.285,1.77 -3.285,5.325 0,3.555 1.095,5.325 3.285,5.325 2.19,0 3.285,-1.77 3.285,-5.325 z m -1.32,0 c 0,3.135 -0.66,4.695 -1.965,4.695 -1.305,0 -1.965,-1.56 -1.965,-4.695 0,-3.135 0.66,-4.695 1.965,-4.695 1.305,0 1.965,1.56 1.965,4.695 z"
         style="font-size:15px;line-height:10"
         id="path431" />
      <path
         d="m 78.949166,488.97641 v -10.35 h -0.87 c -0.825,0.945 -1.8,1.755 -2.88,2.385 v 0.63 c 0.915,-0.435 1.77,-0.945 2.58,-1.56 v 8.895 z"
         style="font-size:15px;line-height:10"
         id="path433" />
      <path
         d="m 86.824161,488.97641 v -10.35 h -0.87 c -0.825,0.945 -1.8,1.755 -2.88,2.385 v 0.63 c 0.915,-0.435 1.77,-0.945 2.58,-1.56 v 8.895 z"
         style="font-size:15px;line-height:10"
         id="path435" />
      <path
         d="m 94.699155,488.97641 v -10.35 h -0.87 c -0.825,0.945 -1.8,1.755 -2.88,2.385 v 0.63 c 0.915,-0.435 1.77,-0.945 2.58,-1.56 v 8.895 z"
         style="font-size:15px;line-height:10"
         id="path437" />
      <path
         d="m 102.57415,488.97641 v -10.35 h -0.87 c -0.825,0.945 -1.800003,1.755 -2.880003,2.385 v 0.63 c 0.915,-0.435 1.770003,-0.945 2.580003,-1.56 v 8.895 z"
         style="font-size:15px;line-height:10"
         id="path439" />
      <path
         d="m 110.44914,488.97641 v -10.35 h -0.87 c -0.825,0.945 -1.8,1.755 -2.88,2.385 v 0.63 c 0.915,-0.435 1.77,-0.945 2.58,-1.56 v 8.895 z"
         style="font-size:15px;line-height:10"
         id="path441" />
      <path
         d="m 114.63414,481.98641 v -3.51 h -0.69 v 3.51 z m 1.725,0 v -3.51 h -0.69 v 3.51 z"
         style="font-size:15px;line-height:10"
         id="path443" />
    </g>
    <g
       aria-label="&quot;1001110&quot;"
       id="text11296"
       style="line-height:0%;font-family:Iwona;-inkscape-font-specification:Iwona;text-align:end;letter-spacing:0px;word-spacing:0px;text-anchor:end;stroke-width:1px">
      <path
         d="m 55.954185,496.15966 v -3.51 h -0.69 v 3.51 z m 1.725,0 v -3.51 h -0.69 v 3.51 z"
         style="font-size:15px;line-height:10"
         id="path446" />
      <path
         d="m 63.199178,503.14966 v -10.35 h -0.87 c -0.825,0.945 -1.8,1.755 -2.88,2.385 v 0.63 c 0.915,-0.435 1.77,-0.945 2.58,-1.56 v 8.895 z"
         style="font-size:15px;line-height:10"
         id="path448" />
      <path
         d="m 73.354172,497.97466 c 0,-3.555 -1.095,-5.325 -3.285,-5.325 -2.19,0 -3.285,1.77 -3.285,5.325 0,3.555 1.095,5.325 3.285,5.325 2.19,0 3.285,-1.77 3.285,-5.325 z m -1.32,0 c 0,3.135 -0.66,4.695 -1.965,4.695 -1.305,0 -1.965,-1.56 -1.965,-4.695 0,-3.135 0.66,-4.695 1.965,-4.695 1.305,0 1.965,1.56 1.965,4.695 z"
         style="font-size:15px;line-height:10"
         id="path450" />
      <path
         d="m 81.229166,497.97466 c 0,-3.555 -1.095,-5.325 -3.285,-5.325 -2.19,0 -3.285,1.77 -3.285,5.325 0,3.555 1.095,5.325 3.285,5.325 2.19,0 3.285,-1.77 3.285,-5.325 z m -1.32,0 c 0,3.135 -0.66,4.695 -1.965,4.695 -1.305,0 -1.965,-1.56 -1.965,-4.695 0,-3.135 0.66,-4.695 1.965,-4.695 1.305,0 1.965,1.56 1.965,4.695 z"
         style="font-size:15px;line-height:10"
         id="path452" />
      <path
         d="m 86.824161,503.14966 v -10.35 h -0.87 c -0.825,0.945 -1.8,1.755 -2.88,2.385 v 0.63 c 0.915,-0.435 1.77,-0.945 2.58,-1.56 v 8.895 z"
         style="font-size:15px;line-height:10"
         id="path454" />
      <path
         d="m 94.699155,503.14966 v -10.35 h -0.87 c -0.825,0.945 -1.8,1.755 -2.88,2.385 v 0.63 c 0.915,-0.435 1.77,-0.945 2.58,-1.56 v 8.895 z"
         style="font-size:15px;line-height:10"
         id="path456" />
      <path
         d="m 102.57415,503.14966 v -10.35 h -0.87 c -0.825,0.945 -1.800003,1.755 -2.880003,2.385 v 0.63 c 0.915,-0.435 1.770003,-0.945 2.580003,-1.56 v 8.895 z"
         style="font-size:15px;line-height:10"
         id="path458" />
      <path
         d="m 112.72914,497.97466 c 0,-3.555 -1.095,-5.325 -3.285,-5.325 -2.19,0 -3.285,1.77 -3.285,5.325 0,3.555 1.095,5.325 3.285,5.325 2.19,0 3.285,-1.77 3.285,-5.325 z m -1.32,0 c 0,3.135 -0.66,4.695 -1.965,4.695 -1.305,0 -1.965,-1.56 -1.965,-4.695 0,-3.135 0.66,-4.695 1.965,-4.695 1.305,0 1.965,1.56 1.965,4.695 z"
         style="font-size:15px;line-height:10"
         id="path460" />
      <path
         d="m 114.63414,496.15966 v -3.51 h -0.69 v 3.51 z m 1.725,0 v -3.51 h -0.69 v 3.51 z"
         style="font-size:15px;line-height:10"
         id="path462" />
    </g>
    <g
       aria-label="&quot;0111101&quot;"
       id="text11300"
       style="line-height:0%;font-family:Iwona;-inkscape-font-specification:Iwona;text-align:end;letter-spacing:0px;word-spacing:0px;text-anchor:end;stroke-width:1px">
      <path
         d="m 55.954185,510.33294 v -3.51 h -0.69 v 3.51 z m 1.725,0 v -3.51 h -0.69 v 3.51 z"
         style="font-size:15px;line-height:10"
         id="path465" />
      <path
         d="m 65.479178,512.14794 c 0,-3.555 -1.095,-5.325 -3.285,-5.325 -2.19,0 -3.285,1.77 -3.285,5.325 0,3.555 1.095,5.325 3.285,5.325 2.19,0 3.285,-1.77 3.285,-5.325 z m -1.32,0 c 0,3.135 -0.66,4.695 -1.965,4.695 -1.305,0 -1.965,-1.56 -1.965,-4.695 0,-3.135 0.66,-4.695 1.965,-4.695 1.305,0 1.965,1.56 1.965,4.695 z"
         style="font-size:15px;line-height:10"
         id="path467" />
      <path
         d="m 71.074172,517.32294 v -10.35 h -0.87 c -0.825,0.945 -1.8,1.755 -2.88,2.385 v 0.63 c 0.915,-0.435 1.77,-0.945 2.58,-1.56 v 8.895 z"
         style="font-size:15px;line-height:10"
         id="path469" />
      <path
         d="m 78.949166,517.32294 v -10.35 h -0.87 c -0.825,0.945 -1.8,1.755 -2.88,2.385 v 0.63 c 0.915,-0.435 1.77,-0.945 2.58,-1.56 v 8.895 z"
         style="font-size:15px;line-height:10"
         id="path471" />
      <path
         d="m 86.824161,517.32294 v -10.35 h -0.87 c -0.825,0.945 -1.8,1.755 -2.88,2.385 v 0.63 c 0.915,-0.435 1.77,-0.945 2.58,-1.56 v 8.895 z"
         style="font-size:15px;line-height:10"
         id="path473" />
      <path
         d="m 94.699155,517.32294 v -10.35 h -0.87 c -0.825,0.945 -1.8,1.755 -2.88,2.385 v 0.63 c 0.915,-0.435 1.77,-0.945 2.58,-1.56 v 8.895 z"
         style="font-size:15px;line-height:10"
         id="path475" />
      <path
         d="m 104.85415,512.14794 c 0,-3.555 -1.095,-5.325 -3.285,-5.325 -2.190003,0 -3.285003,1.77 -3.285003,5.325 0,3.555 1.095,5.325 3.285003,5.325 2.19,0 3.285,-1.77 3.285,-5.325 z m -1.32,0 c 0,3.135 -0.66,4.695 -1.965,4.695 -1.305,0 -1.965003,-1.56 -1.965003,-4.695 0,-3.135 0.660003,-4.695 1.965003,-4.695 1.305,0 1.965,1.56 1.965,4.695 z"
         style="font-size:15px;line-height:10"
         id="path477" />
      <path
         d="m 110.44914,517.32294 v -10.35 h -0.87 c -0.825,0.945 -1.8,1.755 -2.88,2.385 v 0.63 c 0.915,-0.435 1.77,-0.945 2.58,-1.56 v 8.895 z"
         style="font-size:15px;line-height:10"
         id="path479" />
      <path
         d="m 114.63414,510.33294 v -3.51 h -0.69 v 3.51 z m 1.725,0 v -3.51 h -0.69 v 3.51 z"
         style="font-size:15px;line-height:10"
         id="path481" />
    </g>
    <g
       aria-label="&quot;1001111&quot;"
       id="text11304"
       style="line-height:0%;font-family:Iwona;-inkscape-font-specification:Iwona;text-align:end;letter-spacing:0px;word-spacing:0px;text-anchor:end;stroke-width:1px">
      <path
         d="m 55.954185,524.50615 v -3.51 h -0.69 v 3.51 z m 1.725,0 v -3.51 h -0.69 v 3.51 z"
         style="font-size:15px;line-height:10"
         id="path484" />
      <path
         d="m 63.199178,531.49615 v -10.35 h -0.87 c -0.825,0.945 -1.8,1.755 -2.88,2.385 v 0.63 c 0.915,-0.435 1.77,-0.945 2.58,-1.56 v 8.895 z"
         style="font-size:15px;line-height:10"
         id="path486" />
      <path
         d="m 73.354172,526.32115 c 0,-3.555 -1.095,-5.325 -3.285,-5.325 -2.19,0 -3.285,1.77 -3.285,5.325 0,3.555 1.095,5.325 3.285,5.325 2.19,0 3.285,-1.77 3.285,-5.325 z m -1.32,0 c 0,3.135 -0.66,4.695 -1.965,4.695 -1.305,0 -1.965,-1.56 -1.965,-4.695 0,-3.135 0.66,-4.695 1.965,-4.695 1.305,0 1.965,1.56 1.965,4.695 z"
         style="font-size:15px;line-height:10"
         id="path488" />
      <path
         d="m 81.229166,526.32115 c 0,-3.555 -1.095,-5.325 -3.285,-5.325 -2.19,0 -3.285,1.77 -3.285,5.325 0,3.555 1.095,5.325 3.285,5.325 2.19,0 3.285,-1.77 3.285,-5.325 z m -1.32,0 c 0,3.135 -0.66,4.695 -1.965,4.695 -1.305,0 -1.965,-1.56 -1.965,-4.695 0,-3.135 0.66,-4.695 1.965,-4.695 1.305,0 1.965,1.56 1.965,4.695 z"
         style="font-size:15px;line-height:10"
         id="path490" />
      <path
         d="m 86.824161,531.49615 v -10.35 h -0.87 c -0.825,0.945 -1.8,1.755 -2.88,2.385 v 0.63 c 0.915,-0.435 1.77,-0.945 2.58,-1.56 v 8.895 z"
         style="font-size:15px;line-height:10"
         id="path492" />
      <path
         d="m 94.699155,531.49615 v -10.35 h -0.87 c -0.825,0.945 -1.8,1.755 -2.88,2.385 v 0.63 c 0.915,-0.435 1.77,-0.945 2.58,-1.56 v 8.895 z"
         style="font-size:15px;line-height:10"
         id="path494" />
      <path
         d="m 102.57415,531.49615 v -10.35 h -0.87 c -0.825,0.945 -1.800003,1.755 -2.880003,2.385 v 0.63 c 0.915,-0.435 1.770003,-0.945 2.580003,-1.56 v 8.895 z"
         style="font-size:15px;line-height:10"
         id="path496" />
      <path
         d="m 110.44914,531.49615 v -10.35 h -0.87 c -0.825,0.945 -1.8,1.755 -2.88,2.385 v 0.63 c 0.915,-0.435 1.77,-0.945 2.58,-1.56 v 8.895 z"
         style="font-size:15px;line-height:10"
         id="path498" />
      <path
         d="m 114.63414,524.50615 v -3.51 h -0.69 v 3.51 z m 1.725,0 v -3.51 h -0.69 v 3.51 z"
         style="font-size:15px;line-height:10"
         id="path500" />
    </g>
    <g
       aria-label="&quot;1000111&quot;"
       id="text11308"
       style="line-height:0%;font-family:Iwona;-inkscape-font-specification:Iwona;text-align:end;letter-spacing:0px;word-spacing:0px;text-anchor:end;stroke-width:1px">
      <path
         d="m 55.954185,538.67937 v -3.51 h -0.69 v 3.51 z m 1.725,0 v -3.51 h -0.69 v 3.51 z"
         style="font-size:15px;line-height:10"
         id="path503" />
      <path
         d="m 63.199178,545.66937 v -10.35 h -0.87 c -0.825,0.945 -1.8,1.755 -2.88,2.385 v 0.63 c 0.915,-0.435 1.77,-0.945 2.58,-1.56 v 8.895 z"
         style="font-size:15px;line-height:10"
         id="path505" />
      <path
         d="m 73.354172,540.49437 c 0,-3.555 -1.095,-5.325 -3.285,-5.325 -2.19,0 -3.285,1.77 -3.285,5.325 0,3.555 1.095,5.325 3.285,5.325 2.19,0 3.285,-1.77 3.285,-5.325 z m -1.32,0 c 0,3.135 -0.66,4.695 -1.965,4.695 -1.305,0 -1.965,-1.56 -1.965,-4.695 0,-3.135 0.66,-4.695 1.965,-4.695 1.305,0 1.965,1.56 1.965,4.695 z"
         style="font-size:15px;line-height:10"
         id="path507" />
      <path
         d="m 81.229166,540.49437 c 0,-3.555 -1.095,-5.325 -3.285,-5.325 -2.19,0 -3.285,1.77 -3.285,5.325 0,3.555 1.095,5.325 3.285,5.325 2.19,0 3.285,-1.77 3.285,-5.325 z m -1.32,0 c 0,3.135 -0.66,4.695 -1.965,4.695 -1.305,0 -1.965,-1.56 -1.965,-4.695 0,-3.135 0.66,-4.695 1.965,-4.695 1.305,0 1.965,1.56 1.965,4.695 z"
         style="font-size:15px;line-height:10"
         id="path509" />
      <path
         d="m 89.104161,540.49437 c 0,-3.555 -1.095,-5.325 -3.285,-5.325 -2.19,0 -3.285,1.77 -3.285,5.325 0,3.555 1.095,5.325 3.285,5.325 2.19,0 3.285,-1.77 3.285,-5.325 z m -1.32,0 c 0,3.135 -0.66,4.695 -1.965,4.695 -1.305,0 -1.965,-1.56 -1.965,-4.695 0,-3.135 0.66,-4.695 1.965,-4.695 1.305,0 1.965,1.56 1.965,4.695 z"
         style="font-size:15px;line-height:10"
         id="path511" />
      <path
         d="m 94.699155,545.66937 v -10.35 h -0.87 c -0.825,0.945 -1.8,1.755 -2.88,2.385 v 0.63 c 0.915,-0.435 1.77,-0.945 2.58,-1.56 v 8.895 z"
         style="font-size:15px;line-height:10"
         id="path513" />
      <path
         d="m 102.57415,545.66937 v -10.35 h -0.87 c -0.825,0.945 -1.800003,1.755 -2.880003,2.385 v 0.63 c 0.915,-0.435 1.770003,-0.945 2.580003,-1.56 v 8.895 z"
         style="font-size:15px;line-height:10"
         id="path515" />
      <path
         d="m 110.44914,545.66937 v -10.35 h -0.87 c -0.825,0.945 -1.8,1.755 -2.88,2.385 v 0.63 c 0.915,-0.435 1.77,-0.945 2.58,-1.56 v 8.895 z"
         style="font-size:15px;line-height:10"
         id="path517" />
      <path
         d="m 114.63414,538.67937 v -3.51 h -0.69 v 3.51 z m 1.725,0 v -3.51 h -0.69 v 3.51 z"
         style="font-size:15px;line-height:10"
         id="path519" />
    </g>
    <path
       id="path11312"
       d="m 120.47244,329.5276 38.97638,-1e-5"
       style="fill:none;stroke:#000000;stroke-width:1px;stroke-linecap:butt;stroke-linejoin:miter;stroke-opacity:1;marker-end:url(#Arrow1Mend-3-52-0-8)" />
    <path
       style="fill:none;stroke:#000000;stroke-width:1px;stroke-linecap:butt;stroke-linejoin:miter;stroke-opacity:1;marker-end:url(#Arrow1Mend-3-52-0-8)"
       d="m 120.47244,343.70083 38.97638,-10e-6"
       id="path11314" />
    <path
       style="fill:none;stroke:#000000;stroke-width:1px;stroke-linecap:butt;stroke-linejoin:miter;stroke-opacity:1;marker-end:url(#Arrow1Mend-3-52-0-8)"
       d="m 120.47244,357.87406 38.97638,-10e-6"
       id="path11316" />
    <path
       id="path11318"
       d="m 120.47244,372.04729 38.97638,-10e-6"
       style="fill:none;stroke:#000000;stroke-width:1px;stroke-linecap:butt;stroke-linejoin:miter;stroke-opacity:1;marker-end:url(#Arrow1Mend-3-52-0-8)" />
    <path
       style="fill:none;stroke:#000000;stroke-width:1px;stroke-linecap:butt;stroke-linejoin:miter;stroke-opacity:1;marker-end:url(#Arrow1Mend-3-52-0-8)"
       d="m 120.47244,386.22052 38.97638,-1e-5"
       id="path11320" />
    <path
       id="path11322"
       d="m 120.47244,400.39375 38.97638,-1e-5"
       style="fill:none;stroke:#000000;stroke-width:1px;stroke-linecap:butt;stroke-linejoin:miter;stroke-opacity:1;marker-end:url(#Arrow1Mend-3-52-0-8)" />
    <path
       id="path11324"
       d="m 120.47244,414.56698 38.97638,-10e-6"
       style="fill:none;stroke:#000000;stroke-width:1px;stroke-linecap:butt;stroke-linejoin:miter;stroke-opacity:1;marker-end:url(#Arrow1Mend-3-52-0-8)" />
    <path
       style="fill:none;stroke:#000000;stroke-width:1px;stroke-linecap:butt;stroke-linejoin:miter;stroke-opacity:1;marker-end:url(#Arrow1Mend-3-52-0-8)"
       d="m 120.47244,428.74021 38.97638,-10e-6"
       id="path11326" />
    <path
       style="fill:none;stroke:#000000;stroke-width:1px;stroke-linecap:butt;stroke-linejoin:miter;stroke-opacity:1;marker-end:url(#Arrow1Mend-3-52-0-8)"
       d="m 120.47244,442.91344 38.97638,-10e-6"
       id="path11328" />
    <path
       id="path11330"
       d="m 120.47244,457.08667 38.97638,-1e-5"
       style="fill:none;stroke:#000000;stroke-width:1px;stroke-linecap:butt;stroke-linejoin:miter;stroke-opacity:1;marker-end:url(#Arrow1Mend-3-52-0-8)" />
    <path
       id="path11332"
       d="m 120.47244,471.2599 38.97638,-1e-5"
       style="fill:none;stroke:#000000;stroke-width:1px;stroke-linecap:butt;stroke-linejoin:miter;stroke-opacity:1;marker-end:url(#Arrow1Mend-3-52-0-8)" />
    <path
       style="fill:none;stroke:#000000;stroke-width:1px;stroke-linecap:butt;stroke-linejoin:miter;stroke-opacity:1;marker-end:url(#Arrow1Mend-3-52-0-8)"
       d="m 120.47244,485.43313 38.97638,-1e-5"
       id="path11334" />
    <path
       id="path11336"
       d="m 120.47244,499.60636 38.97638,-10e-6"
       style="fill:none;stroke:#000000;stroke-width:1px;stroke-linecap:butt;stroke-linejoin:miter;stroke-opacity:1;marker-end:url(#Arrow1Mend-3-52-0-8)" />
    <path
       style="fill:none;stroke:#000000;stroke-width:1px;stroke-linecap:butt;stroke-linejoin:miter;stroke-opacity:1;marker-end:url(#Arrow1Mend-3-52-0-8)"
       d="m 120.47244,513.77959 38.97638,-10e-6"
       id="path11338" />
    <path
       style="fill:none;stroke:#000000;stroke-width:1px;stroke-linecap:butt;stroke-linejoin:miter;stroke-opacity:1;marker-end:url(#Arrow1Mend-3-52-0-8)"
       d="m 120.47244,527.95282 38.97638,-10e-6"
       id="path11340" />
    <path
       id="path11342"
       d="m 120.47244,542.12605 38.97638,-10e-6"
       style="fill:none;stroke:#000000;stroke-width:1px;stroke-linecap:butt;stroke-linejoin:miter;stroke-opacity:1;marker-end:url(#Arrow1Mend-3-52-0-8)" />
    <path
       style="fill:none;fill-rule:evenodd;stroke:#000000;stroke-width:1px;stroke-linecap:butt;stroke-linejoin:miter;stroke-opacity:1"
       d="m 141.73228,325.98428 -7.08662,7.08661"
       id="path11400" />
    <g
       aria-label="7"
       id="text11402"
       style="line-height:0%;font-family:Iwona;-inkscape-font-specification:Iwona;letter-spacing:0px;word-spacing:0px;stroke-width:1px">
      <path
         d="m 139.39568,319.42428 v -0.34 h -4.25 v 0.62 h 3.26 l -2.95,6.28 h 0.86 z"
         style="font-size:10px;line-height:10"
         id="path522" />
    </g>
    <path
       id="path11406"
       d="m 209.05512,432.28351 -7.08662,7.08661"
       style="fill:none;fill-rule:evenodd;stroke:#000000;stroke-width:1px;stroke-linecap:butt;stroke-linejoin:miter;stroke-opacity:1" />
    <g
       aria-label="7"
       id="text11408"
       style="line-height:0%;font-family:Iwona;-inkscape-font-specification:Iwona;letter-spacing:0px;word-spacing:0px;stroke-width:1px">
      <path
         d="m 206.71852,425.72351 v -0.34 h -4.25 v 0.62 h 3.26 l -2.95,6.28 h 0.86 z"
         style="font-size:10px;line-height:10"
         id="path525" />
    </g>
  </g>
</svg>
