<?xml version="1.0" encoding="UTF-8" standalone="no"?>
<!-- Created with Inkscape (http://www.inkscape.org/) -->

<svg
   width="100.28mm"
   height="34.279999mm"
   viewBox="0 0 100.28 34.279999"
   version="1.1"
   id="svg5"
   xmlns="http://www.w3.org/2000/svg"
   xmlns:svg="http://www.w3.org/2000/svg">
  <defs
     id="defs2">
    <marker
       style="overflow:visible"
       id="Arrow1Sstart_Fnone_S#000000"
       refX="0"
       refY="0"
       orient="auto">
      <path
         transform="matrix(0.2,0,0,0.2,1.2,0)"
         style="fill:#000000;fill-rule:evenodd;stroke:#000000;stroke-width:1pt"
         d="M 0,0 5,-5 -12.5,0 5,5 Z"
         id="path8381" />
    </marker>
    <marker
       style="overflow:visible"
       id="Arrow1Send_Fnone_S#000000"
       refX="0"
       refY="0"
       orient="auto">
      <path
         transform="matrix(-0.2,0,0,-0.2,-1.2,0)"
         style="fill:#000000;fill-rule:evenodd;stroke:#000000;stroke-width:1pt"
         d="M 0,0 5,-5 -12.5,0 5,5 Z"
         id="path8384" />
    </marker>
  </defs>
  <g
     id="layer1"
     transform="translate(-12.860001,-32.86)">
    <g
       id="g5579">
      <path
         id="rect1088"
         style="fill:#afdde9;stroke:#000000;stroke-width:0.28"
         d="m 15.000001,35 h 38 v 29.999998 h -38 z" />
      <g
         aria-label="Processeur"
         id="text1102"
         style="font-style:italic;font-size:7.05556px;line-height:0%;font-family:Iwona;-inkscape-font-specification:'Sans Italic';text-align:center;text-anchor:middle;stroke-width:0.282222">
        <path
           d="m 21.786866,48.871109 c 0,-0.994834 -0.853723,-1.411112 -1.961446,-1.411112 -0.395111,0 -0.790223,0.02117 -1.178279,0.07055 h -0.564444 v 4.938892 h 0.578555 v -2.293057 c 0.381001,0.07056 0.776112,0.112889 1.164168,0.112889 1.107723,0 1.961446,-0.416278 1.961446,-1.418167 z m -0.691445,0 c 0,0.642056 -0.599723,1.093611 -1.270001,1.093611 -0.388056,0 -0.783167,-0.04233 -1.164168,-0.112889 v -1.996723 c 0.388056,-0.04939 0.776112,-0.07056 1.164168,-0.07056 0.670278,0 1.270001,0.451556 1.270001,1.086557 z"
           style="font-style:normal;line-height:1.25"
           id="path27" />
        <path
           d="m 24.36214,49.731887 v -0.437445 c -0.07761,-0.02822 -0.162278,-0.04939 -0.239889,-0.04939 -0.395111,0 -0.712612,0.275167 -0.966612,0.578556 v -0.529167 h -0.550334 v 3.175002 h 0.550334 v -2.349501 c 0.211667,-0.246945 0.479778,-0.458612 0.804334,-0.458612 0.134056,0 0.275167,0.02822 0.402167,0.07056 z"
           style="font-style:normal;line-height:1.25"
           id="path29" />
        <path
           d="m 27.621801,50.881943 c 0,-1.0795 -0.479778,-1.658056 -1.361723,-1.658056 -0.889,0 -1.368778,0.578556 -1.368778,1.658056 0,1.079501 0.479778,1.658057 1.368778,1.658057 0.881945,0 1.361723,-0.578556 1.361723,-1.658057 z m -0.620889,0 c 0,0.881945 -0.261056,1.361723 -0.740834,1.361723 -0.486833,0 -0.747889,-0.479778 -0.747889,-1.361723 0,-0.881945 0.261056,-1.361723 0.747889,-1.361723 0.479778,0 0.740834,0.479778 0.740834,1.361723 z"
           style="font-style:normal;line-height:1.25"
           id="path31" />
        <path
           d="m 30.860302,50.02822 v -0.296333 c -0.225778,-0.3175 -0.592667,-0.508 -0.987778,-0.508 -0.881945,0 -1.474612,0.663222 -1.474612,1.658056 0,0.994834 0.592667,1.658057 1.474612,1.658057 0.366889,0 0.712611,-0.183445 0.917222,-0.486834 v -0.296333 c -0.239889,0.359833 -0.486833,0.486833 -0.917222,0.486833 -0.508001,0 -0.853723,-0.543278 -0.853723,-1.361723 0,-0.818445 0.345722,-1.361723 0.853723,-1.361723 0.437444,0 0.733778,0.155222 0.987778,0.508 z"
           style="font-style:normal;line-height:1.25"
           id="path33" />
        <path
           d="m 34.155241,50.952499 v -0.07056 c 0,-0.994834 -0.543278,-1.658056 -1.361723,-1.658056 -0.825501,0 -1.368779,0.663222 -1.368779,1.658056 0,0.994834 0.543278,1.658057 1.368779,1.658057 0.352778,0 0.6985,-0.112889 0.987778,-0.3175 v -0.296334 c -0.331611,0.211667 -0.599722,0.289278 -0.987778,0.289278 -0.599723,0 -0.747889,-0.5715 -0.747889,-1.262945 z m -0.620889,-0.296334 h -1.488723 c 0,-0.564444 0.239889,-1.135945 0.747889,-1.135945 0.500945,0 0.740834,0.571501 0.740834,1.135945 z"
           style="font-style:normal;line-height:1.25"
           id="path35" />
        <path
           d="m 37.217345,51.566333 c 0,-0.55739 -0.592668,-0.846668 -1.171223,-0.987779 -0.338667,-0.08467 -0.705556,-0.225778 -0.705556,-0.557389 0,-0.303389 0.310444,-0.500945 0.649111,-0.500945 0.373945,0 0.747889,0.112889 1.058334,0.3175 v -0.296333 c -0.310445,-0.204611 -0.684389,-0.3175 -1.058334,-0.3175 -0.613834,0 -1.178278,0.373944 -1.178278,0.945445 0,0.515056 0.5715,0.754945 1.114778,0.889 0.373945,0.09172 0.762,0.289278 0.762,0.649112 0,0.331611 -0.338666,0.536222 -0.6985,0.536222 -0.437445,0 -0.860778,-0.105833 -1.234723,-0.3175 V 52.2225 c 0.373945,0.211666 0.797278,0.3175 1.234723,0.3175 0.635,0 1.227668,-0.381 1.227668,-0.973667 z"
           style="font-style:normal;line-height:1.25"
           id="path37" />
        <path
           d="m 40.159498,51.566333 c 0,-0.55739 -0.592667,-0.846668 -1.171223,-0.987779 -0.338666,-0.08467 -0.705556,-0.225778 -0.705556,-0.557389 0,-0.303389 0.310445,-0.500945 0.649112,-0.500945 0.373945,0 0.747889,0.112889 1.058334,0.3175 v -0.296333 c -0.310445,-0.204611 -0.684389,-0.3175 -1.058334,-0.3175 -0.613834,0 -1.178279,0.373944 -1.178279,0.945445 0,0.515056 0.571501,0.754945 1.114779,0.889 0.373945,0.09172 0.762,0.289278 0.762,0.649112 0,0.331611 -0.338666,0.536222 -0.6985,0.536222 -0.437445,0 -0.860778,-0.105833 -1.234723,-0.3175 V 52.2225 c 0.373945,0.211666 0.797278,0.3175 1.234723,0.3175 0.635,0 1.227667,-0.381 1.227667,-0.973667 z"
           style="font-style:normal;line-height:1.25"
           id="path39" />
        <path
           d="m 43.59555,50.952499 v -0.07056 c 0,-0.994834 -0.543278,-1.658056 -1.361723,-1.658056 -0.825501,0 -1.368779,0.663222 -1.368779,1.658056 0,0.994834 0.543278,1.658057 1.368779,1.658057 0.352778,0 0.6985,-0.112889 0.987778,-0.3175 v -0.296334 c -0.331611,0.211667 -0.599723,0.289278 -0.987778,0.289278 -0.599723,0 -0.74789,-0.5715 -0.74789,-1.262945 z m -0.62089,-0.296334 h -1.488723 c 0,-0.564444 0.239889,-1.135945 0.74789,-1.135945 0.500944,0 0.740833,0.571501 0.740833,1.135945 z"
           style="font-style:normal;line-height:1.25"
           id="path41" />
        <path
           d="m 47.031597,52.469444 v -3.175002 h -0.550334 v 2.490613 c -0.239889,0.239889 -0.536222,0.430389 -0.867834,0.430389 -0.331611,0 -0.585611,-0.289278 -0.585611,-0.627945 v -2.293057 h -0.550334 v 2.293057 c 0,0.515056 0.395111,0.952501 0.903112,0.952501 0.423333,0 0.797278,-0.239889 1.100667,-0.536223 v 0.465667 z"
           style="font-style:normal;line-height:1.25"
           id="path43" />
        <path
           d="m 49.917309,49.731887 v -0.437445 c -0.07761,-0.02822 -0.162278,-0.04939 -0.239889,-0.04939 -0.395111,0 -0.712612,0.275167 -0.966612,0.578556 v -0.529167 h -0.550333 v 3.175002 h 0.550333 v -2.349501 c 0.211667,-0.246945 0.479778,-0.458612 0.804334,-0.458612 0.134056,0 0.275167,0.02822 0.402167,0.07056 z"
           style="font-style:normal;line-height:1.25"
           id="path45" />
      </g>
    </g>
    <g
       id="g5587"
       transform="translate(57.999999)">
      <path
         id="rect5581"
         style="fill:#afdde9;stroke:#000000;stroke-width:0.28"
         d="m 15.000001,35 h 38 v 29.999998 h -38 z" />
      <g
         aria-label="Mémoire"
         id="text5585"
         style="font-style:italic;font-size:7.05556px;line-height:0%;font-family:Iwona;-inkscape-font-specification:'Sans Italic';text-align:center;text-anchor:middle;stroke-width:0.282222">
        <path
           d="M 26.524662,52.469444 26.24244,47.530552 h -0.465667 l -1.982613,4.169836 -1.989668,-4.169836 h -0.465667 l -0.282222,4.938892 h 0.324556 l 0.225778,-4.000502 1.912056,4.000502 h 0.261056 l 1.933224,-4.049891 0.232833,4.049891 z"
           style="font-style:normal;line-height:1.25"
           id="path49" />
        <path
           d="m 30.066543,50.952499 v -0.07056 c 0,-0.994834 -0.543278,-1.658056 -1.361723,-1.658056 -0.825501,0 -1.368779,0.663222 -1.368779,1.658056 0,0.994834 0.543278,1.658057 1.368779,1.658057 0.352778,0 0.6985,-0.112889 0.987778,-0.3175 v -0.296334 c -0.331611,0.211667 -0.599723,0.289278 -0.987778,0.289278 -0.599723,0 -0.74789,-0.5715 -0.74789,-1.262945 z m -0.62089,-0.296334 H 27.95693 c 0,-0.564444 0.239889,-1.135945 0.74789,-1.135945 0.500944,0 0.740833,0.571501 0.740833,1.135945 z m 0.02117,-3.125613 h -0.635 c 0,0.472723 -0.148167,0.93839 -0.423334,1.31939 h 0.296334 c 0.373944,-0.373945 0.762,-0.790223 0.762,-1.31939 z"
           style="font-style:normal;line-height:1.25"
           id="path51" />
        <path
           d="m 34.836092,52.469444 v -2.293057 c 0,-0.493889 -0.289278,-0.9525 -0.747889,-0.9525 -0.395112,0 -0.762001,0.204611 -0.973668,0.536222 -0.112889,-0.310444 -0.352778,-0.536222 -0.677333,-0.536222 -0.366889,0 -0.663223,0.254 -0.903112,0.536222 v -0.465667 h -0.550334 v 3.175002 h 0.550334 v -2.497668 c 0.169333,-0.218722 0.381,-0.423334 0.656167,-0.423334 0.289278,0 0.4445,0.310445 0.4445,0.627945 v 2.293057 h 0.550334 v -2.293057 c 0,-0.08467 -0.0071,-0.162278 -0.02117,-0.246944 0.169334,-0.218723 0.402167,-0.381001 0.677334,-0.381001 0.289278,0 0.4445,0.310445 0.4445,0.627945 v 2.293057 z"
           style="font-style:normal;line-height:1.25"
           id="path53" />
        <path
           d="m 38.483804,50.881943 c 0,-1.0795 -0.479778,-1.658056 -1.361723,-1.658056 -0.889,0 -1.368778,0.578556 -1.368778,1.658056 0,1.079501 0.479778,1.658057 1.368778,1.658057 0.881945,0 1.361723,-0.578556 1.361723,-1.658057 z m -0.620889,0 c 0,0.881945 -0.261056,1.361723 -0.740834,1.361723 -0.486833,0 -0.747889,-0.479778 -0.747889,-1.361723 0,-0.881945 0.261056,-1.361723 0.747889,-1.361723 0.479778,0 0.740834,0.479778 0.740834,1.361723 z"
           style="font-style:normal;line-height:1.25"
           id="path55" />
        <path
           d="m 40.727472,52.2225 v -0.211667 c -0.134056,0.112889 -0.289278,0.204611 -0.465667,0.204611 -0.261056,0 -0.310445,-0.324556 -0.310445,-0.627945 v -2.293057 h -0.550334 v 2.293057 c 0,0.472723 0.183445,0.952501 0.599723,0.952501 0.268111,0 0.522112,-0.134056 0.726723,-0.3175 z m -0.705556,-4.028725 c 0,-0.1905 -0.155223,-0.345723 -0.345723,-0.345723 -0.1905,0 -0.345722,0.155223 -0.345722,0.345723 0,0.1905 0.155222,0.345722 0.345722,0.345722 0.1905,0 0.345723,-0.155222 0.345723,-0.345722 z"
           style="font-style:normal;line-height:1.25"
           id="path57" />
        <path
           d="m 43.189854,49.731887 v -0.437445 c -0.07761,-0.02822 -0.162278,-0.04939 -0.239889,-0.04939 -0.395111,0 -0.712611,0.275167 -0.966611,0.578556 V 49.294442 H 41.43302 v 3.175002 h 0.550334 v -2.349501 c 0.211666,-0.246945 0.479778,-0.458612 0.804333,-0.458612 0.134056,0 0.275167,0.02822 0.402167,0.07056 z"
           style="font-style:normal;line-height:1.25"
           id="path59" />
        <path
           d="m 46.449516,50.952499 v -0.07056 c 0,-0.994834 -0.543278,-1.658056 -1.361723,-1.658056 -0.825501,0 -1.368779,0.663222 -1.368779,1.658056 0,0.994834 0.543278,1.658057 1.368779,1.658057 0.352778,0 0.6985,-0.112889 0.987778,-0.3175 v -0.296334 c -0.331611,0.211667 -0.599722,0.289278 -0.987778,0.289278 -0.599723,0 -0.74789,-0.5715 -0.74789,-1.262945 z m -0.620889,-0.296334 h -1.488724 c 0,-0.564444 0.239889,-1.135945 0.74789,-1.135945 0.500945,0 0.740834,0.571501 0.740834,1.135945 z"
           style="font-style:normal;line-height:1.25"
           id="path61" />
      </g>
    </g>
    <path
       style="fill:none;stroke:#000000;stroke-width:1;stroke-linecap:butt;stroke-linejoin:miter;stroke-miterlimit:4;stroke-dasharray:none;stroke-opacity:1;marker-start:url(#Arrow1Sstart_Fnone_S#000000);marker-end:url(#Arrow1Send_Fnone_S#000000)"
       d="M 54,50 H 72"
       id="path6870" />
  </g>
</svg>
