<?xml version="1.0" encoding="UTF-8" standalone="no"?>
<!-- Created with Inkscape (http://www.inkscape.org/) -->

<svg
   width="100.26458mm"
   height="47.26458mm"
   viewBox="0 0 100.26458 47.26458"
   version="1.1"
   id="svg5"
   xmlns="http://www.w3.org/2000/svg"
   xmlns:svg="http://www.w3.org/2000/svg">
  <defs
     id="defs2">
    <marker
       style="overflow:visible"
       id="Arrow1Sstart_Fnone_S#000000"
       refX="0"
       refY="0"
       orient="auto">
      <path
         transform="matrix(0.2,0,0,0.2,1.2,0)"
         style="fill:#000000;fill-rule:evenodd;stroke:#000000;stroke-width:1pt"
         d="M 0,0 5,-5 -12.5,0 5,5 Z"
         id="path71365" />
    </marker>
    <marker
       style="overflow:visible"
       id="Arrow1Send_Fnone_S#000000"
       refX="0"
       refY="0"
       orient="auto">
      <path
         transform="matrix(-0.2,0,0,-0.2,-1.2,0)"
         style="fill:#000000;fill-rule:evenodd;stroke:#000000;stroke-width:1pt"
         d="M 0,0 5,-5 -12.5,0 5,5 Z"
         id="path71368" />
    </marker>
  </defs>
  <g
     id="layer1"
     transform="translate(-12.867709,-26.867708)">
    <g
       id="g5579">
      <path
         id="rect1088"
         style="fill:#afdde9;stroke:#000000;stroke-width:0.264583"
         d="m 19.999998,35 h 33 v 29.999998 h -33 z" />
      <g
         aria-label="Processeur"
         id="text1102"
         style="font-style:italic;font-size:5.64444px;line-height:0%;font-family:Iwona;-inkscape-font-specification:'Sans Italic';text-align:center;text-anchor:middle;stroke-width:0.282222">
        <path
           d="m 26.7295,49.59078 c 0,-0.795866 -0.682978,-1.128888 -1.569155,-1.128888 -0.316088,0 -0.632177,0.01693 -0.942621,0.05644 h -0.451555 v 3.951108 h 0.462844 v -1.834443 c 0.3048,0.05644 0.620888,0.09031 0.931332,0.09031 0.886177,0 1.569155,-0.333022 1.569155,-1.134532 z m -0.553155,0 c 0,0.513644 -0.479778,0.874888 -1.016,0.874888 -0.310444,0 -0.626532,-0.03387 -0.931332,-0.09031 V 48.77798 c 0.310444,-0.03951 0.620888,-0.05644 0.931332,-0.05644 0.536222,0 1.016,0.361244 1.016,0.869244 z"
           style="font-style:normal;line-height:1.25"
           id="path121" />
        <path
           d="m 28.789717,50.279401 v -0.349955 c -0.06209,-0.02258 -0.129823,-0.03951 -0.191911,-0.03951 -0.316089,0 -0.570089,0.220133 -0.773289,0.462844 v -0.423333 h -0.440266 v 2.539998 h 0.440266 v -1.879598 c 0.169333,-0.197556 0.383822,-0.366889 0.643466,-0.366889 0.107245,0 0.220134,0.02258 0.321734,0.05644 z"
           style="font-style:normal;line-height:1.25"
           id="path123" />
        <path
           d="m 31.397442,51.199445 c 0,-0.863599 -0.383821,-1.326443 -1.089376,-1.326443 -0.7112,0 -1.095022,0.462844 -1.095022,1.326443 0,0.8636 0.383822,1.326444 1.095022,1.326444 0.705555,0 1.089376,-0.462844 1.089376,-1.326444 z m -0.49671,0 c 0,0.705555 -0.208845,1.089377 -0.592666,1.089377 -0.389467,0 -0.598311,-0.383822 -0.598311,-1.089377 0,-0.705555 0.208844,-1.089377 0.598311,-1.089377 0.383821,0 0.592666,0.383822 0.592666,1.089377 z"
           style="font-style:normal;line-height:1.25"
           id="path125" />
        <path
           d="m 33.988239,50.516468 v -0.237067 c -0.180622,-0.253999 -0.474133,-0.406399 -0.790221,-0.406399 -0.705555,0 -1.179688,0.530577 -1.179688,1.326443 0,0.795866 0.474133,1.326444 1.179688,1.326444 0.29351,0 0.570088,-0.146756 0.733777,-0.389467 v -0.237066 c -0.191911,0.287866 -0.389467,0.389466 -0.733777,0.389466 -0.4064,0 -0.682978,-0.434622 -0.682978,-1.089377 0,-0.654755 0.276578,-1.089377 0.682978,-1.089377 0.349955,0 0.587021,0.124178 0.790221,0.4064 z"
           style="font-style:normal;line-height:1.25"
           id="path127" />
        <path
           d="m 36.624186,51.25589 v -0.05645 c 0,-0.795866 -0.434622,-1.326443 -1.089377,-1.326443 -0.660399,0 -1.095021,0.530577 -1.095021,1.326443 0,0.795866 0.434622,1.326444 1.095021,1.326444 0.282222,0 0.5588,-0.09031 0.790222,-0.254 v -0.237067 c -0.265289,0.169334 -0.479778,0.231422 -0.790222,0.231422 -0.479777,0 -0.59831,-0.457199 -0.59831,-1.010354 z m -0.496711,-0.237067 h -1.190976 c 0,-0.451555 0.191911,-0.908755 0.59831,-0.908755 0.400755,0 0.592666,0.4572 0.592666,0.908755 z"
           style="font-style:normal;line-height:1.25"
           id="path129" />
        <path
           d="m 39.073866,51.746956 c 0,-0.445911 -0.474133,-0.677333 -0.936977,-0.790222 -0.270933,-0.06773 -0.564444,-0.180622 -0.564444,-0.44591 0,-0.242711 0.248356,-0.400756 0.519289,-0.400756 0.299155,0 0.59831,0.09031 0.846666,0.254 v -0.237066 c -0.248356,-0.163689 -0.547511,-0.254 -0.846666,-0.254 -0.491067,0 -0.942622,0.299155 -0.942622,0.756355 0,0.412044 0.4572,0.603955 0.891822,0.711199 0.299155,0.07338 0.609599,0.231422 0.609599,0.519289 0,0.265288 -0.270933,0.428977 -0.558799,0.428977 -0.349956,0 -0.688622,-0.08467 -0.987777,-0.254 v 0.237067 c 0.299155,0.169333 0.637821,0.254 0.987777,0.254 0.507999,0 0.982132,-0.3048 0.982132,-0.778933 z"
           style="font-style:normal;line-height:1.25"
           id="path131" />
        <path
           d="m 41.427585,51.746956 c 0,-0.445911 -0.474133,-0.677333 -0.936977,-0.790222 -0.270933,-0.06773 -0.564444,-0.180622 -0.564444,-0.44591 0,-0.242711 0.248355,-0.400756 0.519288,-0.400756 0.299156,0 0.598311,0.09031 0.846666,0.254 v -0.237066 c -0.248355,-0.163689 -0.54751,-0.254 -0.846666,-0.254 -0.491066,0 -0.942621,0.299155 -0.942621,0.756355 0,0.412044 0.4572,0.603955 0.891821,0.711199 0.299156,0.07338 0.6096,0.231422 0.6096,0.519289 0,0.265288 -0.270933,0.428977 -0.5588,0.428977 -0.349955,0 -0.688621,-0.08467 -0.987777,-0.254 v 0.237067 c 0.299156,0.169333 0.637822,0.254 0.987777,0.254 0.508,0 0.982133,-0.3048 0.982133,-0.778933 z"
           style="font-style:normal;line-height:1.25"
           id="path133" />
        <path
           d="m 44.176422,51.25589 v -0.05645 c 0,-0.795866 -0.434622,-1.326443 -1.089377,-1.326443 -0.6604,0 -1.095022,0.530577 -1.095022,1.326443 0,0.795866 0.434622,1.326444 1.095022,1.326444 0.282222,0 0.558799,-0.09031 0.790221,-0.254 v -0.237067 c -0.265288,0.169334 -0.479777,0.231422 -0.790221,0.231422 -0.479778,0 -0.598311,-0.457199 -0.598311,-1.010354 z m -0.496711,-0.237067 h -1.190977 c 0,-0.451555 0.191911,-0.908755 0.598311,-0.908755 0.400755,0 0.592666,0.4572 0.592666,0.908755 z"
           style="font-style:normal;line-height:1.25"
           id="path135" />
        <path
           d="m 46.925257,52.469444 v -2.539998 h -0.440266 v 1.992488 c -0.191911,0.191911 -0.428978,0.34431 -0.694266,0.34431 -0.265289,0 -0.468489,-0.231422 -0.468489,-0.502355 V 49.929446 H 44.88197 v 1.834443 c 0,0.412044 0.316089,0.762 0.722488,0.762 0.338667,0 0.637822,-0.191911 0.880533,-0.428978 v 0.372533 z"
           style="font-style:normal;line-height:1.25"
           id="path137" />
        <path
           d="m 49.233823,50.279401 v -0.349955 c -0.06209,-0.02258 -0.129822,-0.03951 -0.191911,-0.03951 -0.316089,0 -0.570089,0.220133 -0.773288,0.462844 v -0.423333 h -0.440267 v 2.539998 h 0.440267 v -1.879598 c 0.169333,-0.197556 0.383822,-0.366889 0.643466,-0.366889 0.107244,0 0.220133,0.02258 0.321733,0.05644 z"
           style="font-style:normal;line-height:1.25"
           id="path139" />
      </g>
    </g>
    <g
       id="g5587"
       transform="translate(57.999999,-6)">
      <path
         id="rect5581"
         style="fill:#afdde9;stroke:#000000;stroke-width:0.264584"
         d="m 15.000001,35 h 38 v 42.999996 h -38 z" />
      <path
         id="rect18710"
         style="fill:#ffffff;fill-rule:evenodd;stroke:#000000;stroke-width:0.264583;stroke-linecap:round"
         d="m 26,44.999996 h 16.000002 v 22.999998 c -5.000001,0 -11.000001,1 -16.000001,1 z" />
      <path
         id="rect240028"
         style="fill:#ffeeaa;fill-rule:evenodd;stroke:#000000;stroke-width:0.264583;stroke-linecap:round"
         d="m 26,57 h 16 v 4 H 26 Z" />
      <g
         aria-label="Mémoire"
         id="text5585"
         style="font-style:italic;font-size:5.64444px;line-height:0%;font-family:Iwona;-inkscape-font-specification:'Sans Italic';text-align:center;text-anchor:middle;stroke-width:0.282222">
        <path
           d="m 27.963293,40.999996 -0.225778,-3.951108 h -0.372533 l -1.586087,3.335864 -1.591732,-3.335864 H 23.81463 l -0.225778,3.951108 h 0.259644 l 0.180622,-3.200397 1.529644,3.200397 h 0.208844 l 1.546576,-3.239908 0.186267,3.239908 z"
           style="font-style:normal;line-height:1.25"
           id="path144" />
        <path
           d="m 30.796794,39.786442 v -0.05645 c 0,-0.795866 -0.434622,-1.326443 -1.089377,-1.326443 -0.660399,0 -1.095021,0.530577 -1.095021,1.326443 0,0.795866 0.434622,1.326444 1.095021,1.326444 0.282222,0 0.5588,-0.09031 0.790222,-0.254 v -0.237067 c -0.265289,0.169333 -0.479778,0.231422 -0.790222,0.231422 -0.479777,0 -0.598311,-0.457199 -0.598311,-1.010354 z m -0.496711,-0.237067 h -1.190977 c 0,-0.451555 0.191911,-0.908755 0.598311,-0.908755 0.400755,0 0.592666,0.4572 0.592666,0.908755 z m 0.01693,-2.500487 h -0.508 c 0,0.378178 -0.118533,0.750711 -0.338666,1.05551 h 0.237066 c 0.299155,-0.299155 0.6096,-0.632177 0.6096,-1.05551 z"
           style="font-style:normal;line-height:1.25"
           id="path146" />
        <path
           d="m 34.612428,40.999996 v -1.834443 c 0,-0.395111 -0.231422,-0.761999 -0.598311,-0.761999 -0.316088,0 -0.609599,0.163688 -0.778932,0.428977 -0.09031,-0.248355 -0.282222,-0.428977 -0.541867,-0.428977 -0.29351,0 -0.530577,0.2032 -0.722488,0.428977 v -0.372533 h -0.440266 v 2.539998 h 0.440266 v -1.998132 c 0.135467,-0.174977 0.3048,-0.338666 0.524933,-0.338666 0.231422,0 0.3556,0.248355 0.3556,0.502355 v 1.834443 h 0.440266 v -1.834443 c 0,-0.06773 -0.0056,-0.129822 -0.01693,-0.197555 0.135466,-0.174978 0.321733,-0.3048 0.541866,-0.3048 0.231422,0 0.3556,0.248355 0.3556,0.502355 v 1.834443 z"
           style="font-style:normal;line-height:1.25"
           id="path148" />
        <path
           d="m 37.530594,39.729997 c 0,-0.863599 -0.383822,-1.326443 -1.089377,-1.326443 -0.711199,0 -1.095021,0.462844 -1.095021,1.326443 0,0.863599 0.383822,1.326444 1.095021,1.326444 0.705555,0 1.089377,-0.462845 1.089377,-1.326444 z m -0.49671,0 c 0,0.705555 -0.208845,1.089377 -0.592667,1.089377 -0.389466,0 -0.59831,-0.383822 -0.59831,-1.089377 0,-0.705555 0.208844,-1.089377 0.59831,-1.089377 0.383822,0 0.592667,0.383822 0.592667,1.089377 z"
           style="font-style:normal;line-height:1.25"
           id="path150" />
        <path
           d="m 39.325524,40.802441 v -0.169333 c -0.107244,0.09031 -0.231422,0.163688 -0.372533,0.163688 -0.208844,0 -0.248355,-0.259644 -0.248355,-0.502355 v -1.834443 h -0.440267 v 1.834443 c 0,0.378178 0.146756,0.762 0.479778,0.762 0.214488,0 0.417688,-0.107245 0.581377,-0.254 z M 38.76108,37.579465 c 0,-0.152399 -0.124178,-0.276577 -0.276577,-0.276577 -0.1524,0 -0.276578,0.124178 -0.276578,0.276577 0,0.1524 0.124178,0.276578 0.276578,0.276578 0.152399,0 0.276577,-0.124178 0.276577,-0.276578 z"
           style="font-style:normal;line-height:1.25"
           id="path152" />
        <path
           d="m 41.295429,38.809953 v -0.349955 c -0.06209,-0.02258 -0.129822,-0.03951 -0.191911,-0.03951 -0.316088,0 -0.570088,0.220133 -0.773288,0.462844 v -0.423333 h -0.440266 v 2.539998 h 0.440266 v -1.879598 c 0.169333,-0.197556 0.383822,-0.366889 0.643466,-0.366889 0.107244,0 0.220133,0.02258 0.321733,0.05644 z"
           style="font-style:normal;line-height:1.25"
           id="path154" />
        <path
           d="m 43.903155,39.786442 v -0.05645 c 0,-0.795866 -0.434622,-1.326443 -1.089377,-1.326443 -0.6604,0 -1.095021,0.530577 -1.095021,1.326443 0,0.795866 0.434621,1.326444 1.095021,1.326444 0.282222,0 0.5588,-0.09031 0.790222,-0.254 v -0.237067 c -0.265289,0.169333 -0.479778,0.231422 -0.790222,0.231422 -0.479777,0 -0.598311,-0.457199 -0.598311,-1.010354 z m -0.496711,-0.237067 h -1.190977 c 0,-0.451555 0.191911,-0.908755 0.598311,-0.908755 0.400755,0 0.592666,0.4572 0.592666,0.908755 z"
           style="font-style:normal;line-height:1.25"
           id="path156" />
      </g>
      <path
         id="rect18979"
         style="fill:#ffffff;fill-rule:evenodd;stroke:#000000;stroke-width:0.264583;stroke-linecap:round"
         d="m 26.000002,72.999998 c 5.000001,-2e-6 11,-1 16.000001,-0.999998 v 2.999994 H 26.000001 Z" />
      <path
         style="fill:none;stroke:#000000;stroke-width:0.264583px;stroke-linecap:butt;stroke-linejoin:miter;stroke-opacity:1"
         d="m 26.000001,48.999998 h 16"
         id="path19014" />
      <path
         style="fill:none;stroke:#000000;stroke-width:0.264583;stroke-linecap:butt;stroke-linejoin:miter;stroke-miterlimit:4;stroke-dasharray:0.529166, 0.529166;stroke-dashoffset:0;stroke-opacity:1"
         d="m 26.000001,68.999994 v 4"
         id="path19137" />
      <path
         style="fill:none;stroke:#000000;stroke-width:0.264583;stroke-linecap:butt;stroke-linejoin:miter;stroke-miterlimit:4;stroke-dasharray:0.529166, 0.529166;stroke-dashoffset:0;stroke-opacity:1"
         d="m 42.000001,67.999994 v 4"
         id="path19219" />
      <path
         style="fill:none;stroke:#000000;stroke-width:0.264582px;stroke-linecap:butt;stroke-linejoin:miter;stroke-opacity:1"
         d="m 28,47.999998 v 1"
         id="path19961" />
      <path
         style="fill:none;stroke:#000000;stroke-width:0.264582px;stroke-linecap:butt;stroke-linejoin:miter;stroke-opacity:1"
         d="m 30.000001,47.999998 v 1"
         id="path19963" />
      <path
         style="fill:none;stroke:#000000;stroke-width:0.264582px;stroke-linecap:butt;stroke-linejoin:miter;stroke-opacity:1"
         d="m 32.000001,47.999998 v 1"
         id="path19965" />
      <path
         style="fill:none;stroke:#000000;stroke-width:0.264582px;stroke-linecap:butt;stroke-linejoin:miter;stroke-opacity:1"
         d="m 34.000002,47.999998 v 1"
         id="path19967" />
      <path
         style="fill:none;stroke:#000000;stroke-width:0.264582px;stroke-linecap:butt;stroke-linejoin:miter;stroke-opacity:1"
         d="m 36,47.999998 v 1"
         id="path19969" />
      <path
         style="fill:none;stroke:#000000;stroke-width:0.264582px;stroke-linecap:butt;stroke-linejoin:miter;stroke-opacity:1"
         d="m 38.000001,47.999998 v 1"
         id="path19971" />
      <path
         style="fill:none;stroke:#000000;stroke-width:0.264582px;stroke-linecap:butt;stroke-linejoin:miter;stroke-opacity:1"
         d="m 40.000001,47.999998 v 1"
         id="path19973" />
      <path
         style="fill:none;stroke:#000000;stroke-width:0.264583px;stroke-linecap:butt;stroke-linejoin:miter;stroke-opacity:1"
         d="m 26.000001,52.999998 h 16"
         id="path20404" />
      <path
         style="fill:none;stroke:#000000;stroke-width:0.264582px;stroke-linecap:butt;stroke-linejoin:miter;stroke-opacity:1"
         d="m 28,51.999998 v 1"
         id="path20406" />
      <path
         style="fill:none;stroke:#000000;stroke-width:0.264582px;stroke-linecap:butt;stroke-linejoin:miter;stroke-opacity:1"
         d="m 30.000001,51.999998 v 1"
         id="path20408" />
      <path
         style="fill:none;stroke:#000000;stroke-width:0.264582px;stroke-linecap:butt;stroke-linejoin:miter;stroke-opacity:1"
         d="m 32.000001,51.999998 v 1"
         id="path20410" />
      <path
         style="fill:none;stroke:#000000;stroke-width:0.264582px;stroke-linecap:butt;stroke-linejoin:miter;stroke-opacity:1"
         d="m 34.000002,51.999998 v 1"
         id="path20412" />
      <path
         style="fill:none;stroke:#000000;stroke-width:0.264582px;stroke-linecap:butt;stroke-linejoin:miter;stroke-opacity:1"
         d="m 36,51.999998 v 1"
         id="path20414" />
      <path
         style="fill:none;stroke:#000000;stroke-width:0.264582px;stroke-linecap:butt;stroke-linejoin:miter;stroke-opacity:1"
         d="m 38.000001,51.999998 v 1"
         id="path20416" />
      <path
         style="fill:none;stroke:#000000;stroke-width:0.264582px;stroke-linecap:butt;stroke-linejoin:miter;stroke-opacity:1"
         d="m 40.000001,51.999998 v 1"
         id="path20418" />
      <path
         style="fill:none;stroke:#000000;stroke-width:0.264583px;stroke-linecap:butt;stroke-linejoin:miter;stroke-opacity:1"
         d="m 26.000001,56.999998 h 16"
         id="path20420" />
      <path
         style="fill:none;stroke:#000000;stroke-width:0.264582px;stroke-linecap:butt;stroke-linejoin:miter;stroke-opacity:1"
         d="m 28,67.999994 v 1"
         id="path20422" />
      <path
         style="fill:none;stroke:#000000;stroke-width:0.264582px;stroke-linecap:butt;stroke-linejoin:miter;stroke-opacity:1"
         d="m 30.000001,67.999994 v 0.908602"
         id="path20424" />
      <path
         style="fill:none;stroke:#000000;stroke-width:0.264582px;stroke-linecap:butt;stroke-linejoin:miter;stroke-opacity:1"
         d="m 32.000001,67.999993 v 0.75963"
         id="path20426" />
      <path
         style="fill:none;stroke:#000000;stroke-width:0.264582px;stroke-linecap:butt;stroke-linejoin:miter;stroke-opacity:1"
         d="M 34.000002,67.999995 V 68.58592"
         id="path20428" />
      <path
         style="fill:none;stroke:#000000;stroke-width:0.264582px;stroke-linecap:butt;stroke-linejoin:miter;stroke-opacity:1"
         d="M 36,67.999994 V 68.35105"
         id="path20430" />
      <path
         style="fill:none;stroke:#000000;stroke-width:0.264583px;stroke-linecap:butt;stroke-linejoin:miter;stroke-opacity:1"
         d="m 26.000002,60.999998 h 16"
         id="path20516" />
      <path
         style="fill:none;stroke:#000000;stroke-width:0.264582px;stroke-linecap:butt;stroke-linejoin:miter;stroke-opacity:1"
         d="m 28.000001,59.999998 v 1"
         id="path20518" />
      <path
         style="fill:none;stroke:#000000;stroke-width:0.264582px;stroke-linecap:butt;stroke-linejoin:miter;stroke-opacity:1"
         d="m 30.000002,59.999998 v 1"
         id="path20520" />
      <path
         style="fill:none;stroke:#000000;stroke-width:0.264582px;stroke-linecap:butt;stroke-linejoin:miter;stroke-opacity:1"
         d="m 32.000002,59.999998 v 1"
         id="path20522" />
      <path
         style="fill:none;stroke:#000000;stroke-width:0.264582px;stroke-linecap:butt;stroke-linejoin:miter;stroke-opacity:1"
         d="m 34.000003,59.999998 v 1"
         id="path20524" />
      <path
         style="fill:none;stroke:#000000;stroke-width:0.264582px;stroke-linecap:butt;stroke-linejoin:miter;stroke-opacity:1"
         d="m 36.000001,59.999998 v 1"
         id="path20526" />
      <path
         style="fill:none;stroke:#000000;stroke-width:0.264582px;stroke-linecap:butt;stroke-linejoin:miter;stroke-opacity:1"
         d="m 38.000002,59.999998 v 1"
         id="path20528" />
      <path
         style="fill:none;stroke:#000000;stroke-width:0.264582px;stroke-linecap:butt;stroke-linejoin:miter;stroke-opacity:1"
         d="m 40.000002,59.999998 v 1"
         id="path20530" />
      <path
         style="fill:none;stroke:#000000;stroke-width:0.264583px;stroke-linecap:butt;stroke-linejoin:miter;stroke-opacity:1"
         d="m 26.000002,64.999998 h 16"
         id="path20532" />
      <path
         style="fill:none;stroke:#000000;stroke-width:0.264582px;stroke-linecap:butt;stroke-linejoin:miter;stroke-opacity:1"
         d="m 28.000001,63.999998 v 1"
         id="path20534" />
      <path
         style="fill:none;stroke:#000000;stroke-width:0.264582px;stroke-linecap:butt;stroke-linejoin:miter;stroke-opacity:1"
         d="m 30.000002,63.999998 v 1"
         id="path20536" />
      <path
         style="fill:none;stroke:#000000;stroke-width:0.264582px;stroke-linecap:butt;stroke-linejoin:miter;stroke-opacity:1"
         d="m 32.000002,63.999998 v 1"
         id="path20538" />
      <path
         style="fill:none;stroke:#000000;stroke-width:0.264582px;stroke-linecap:butt;stroke-linejoin:miter;stroke-opacity:1"
         d="m 34.000003,63.999998 v 1"
         id="path20540" />
      <path
         style="fill:none;stroke:#000000;stroke-width:0.264582px;stroke-linecap:butt;stroke-linejoin:miter;stroke-opacity:1"
         d="m 36.000001,63.999998 v 1"
         id="path20542" />
      <path
         style="fill:none;stroke:#000000;stroke-width:0.264582px;stroke-linecap:butt;stroke-linejoin:miter;stroke-opacity:1"
         d="m 38.000002,63.999998 v 1"
         id="path20544" />
      <path
         style="fill:none;stroke:#000000;stroke-width:0.264582px;stroke-linecap:butt;stroke-linejoin:miter;stroke-opacity:1"
         d="m 40.000002,63.999998 v 1"
         id="path20546" />
      <path
         style="fill:none;stroke:#000000;stroke-width:0.264582px;stroke-linecap:butt;stroke-linejoin:miter;stroke-opacity:1"
         d="m 28.000001,73.999998 v 1"
         id="path20550" />
      <path
         style="fill:none;stroke:#000000;stroke-width:0.264582px;stroke-linecap:butt;stroke-linejoin:miter;stroke-opacity:1"
         d="m 30.000002,73.999998 v 1"
         id="path20552" />
      <path
         style="fill:none;stroke:#000000;stroke-width:0.264582px;stroke-linecap:butt;stroke-linejoin:miter;stroke-opacity:1"
         d="m 32.000002,73.999998 v 1"
         id="path20554" />
      <path
         style="fill:none;stroke:#000000;stroke-width:0.264582px;stroke-linecap:butt;stroke-linejoin:miter;stroke-opacity:1"
         d="m 34.000003,73.999998 v 1"
         id="path20556" />
      <path
         style="fill:none;stroke:#000000;stroke-width:0.264582px;stroke-linecap:butt;stroke-linejoin:miter;stroke-opacity:1"
         d="m 36.000001,73.999998 v 1"
         id="path20558" />
      <path
         style="fill:none;stroke:#000000;stroke-width:0.264582px;stroke-linecap:butt;stroke-linejoin:miter;stroke-opacity:1"
         d="m 38.000002,73.999998 v 1"
         id="path20560" />
      <path
         style="fill:none;stroke:#000000;stroke-width:0.264582px;stroke-linecap:butt;stroke-linejoin:miter;stroke-opacity:1"
         d="m 40.000002,73.999998 v 1"
         id="path20562" />
      <g
         aria-label="0"
         id="text20886"
         style="font-style:italic;font-size:2.82222px;line-height:0%;font-family:Iwona;-inkscape-font-specification:'Sans Italic';text-align:end;text-anchor:end;stroke-width:0.282222">
        <path
           d="m 24.878648,47.02633 c 0,-0.668866 -0.206023,-1.001888 -0.618067,-1.001888 -0.412044,0 -0.618066,0.333022 -0.618066,1.001888 0,0.668866 0.206022,1.001888 0.618066,1.001888 0.412044,0 0.618067,-0.333022 0.618067,-1.001888 z m -0.248356,0 c 0,0.589844 -0.124178,0.883355 -0.369711,0.883355 -0.245533,0 -0.369711,-0.293511 -0.369711,-0.883355 0,-0.589844 0.124178,-0.883355 0.369711,-0.883355 0.245533,0 0.369711,0.293511 0.369711,0.883355 z"
           style="font-style:normal;line-height:1.25"
           id="path159" />
      </g>
      <g
         aria-label="1"
         id="text26856"
         style="font-style:italic;font-size:2.82222px;line-height:0%;font-family:Iwona;-inkscape-font-specification:'Sans Italic';text-align:end;text-anchor:end;stroke-width:0.282222">
        <path
           d="m 24.44967,51.999996 v -1.947332 h -0.163689 c -0.155222,0.1778 -0.338666,0.3302 -0.541866,0.448733 v 0.118534 c 0.172155,-0.08185 0.333022,-0.1778 0.485422,-0.293511 v 1.673576 z"
           style="font-style:normal;line-height:1.25"
           id="path162" />
      </g>
      <g
         aria-label="2"
         id="text26860"
         style="font-style:italic;font-size:2.82222px;line-height:0%;font-family:Iwona;-inkscape-font-specification:'Sans Italic';text-align:end;text-anchor:end;stroke-width:0.282222">
        <path
           d="m 24.858892,55.999996 v -0.174977 h -0.996244 l 0.519289,-0.513645 c 0.231422,-0.231422 0.448733,-0.502355 0.448733,-0.829732 0,-0.276578 -0.273756,-0.4572 -0.570089,-0.4572 -0.222955,0 -0.434622,0.1016 -0.57291,0.273755 v 0.118534 c 0.143933,-0.166511 0.352777,-0.262467 0.57291,-0.262467 0.189089,0 0.349956,0.141111 0.349956,0.327378 0,0.2794 -0.129823,0.539044 -0.321733,0.739421 l -0.629356,0.646289 v 0.132644 z"
           style="font-style:normal;line-height:1.25"
           id="path165" />
      </g>
      <g
         aria-label="3"
         id="text26864"
         style="font-style:italic;font-size:2.82222px;line-height:0%;font-family:Iwona;-inkscape-font-specification:'Sans Italic';text-align:end;text-anchor:end;stroke-width:0.282222">
        <path
           d="m 24.858892,59.463774 c 0,-0.248355 -0.174978,-0.462844 -0.417689,-0.536221 0.214489,-0.06209 0.347133,-0.222956 0.347133,-0.437445 0,-0.279399 -0.225777,-0.465666 -0.564444,-0.465666 -0.183444,0 -0.361244,0.06209 -0.505177,0.174978 v 0.118533 c 0.143933,-0.112889 0.321733,-0.174978 0.505177,-0.174978 0.206023,0 0.344311,0.138289 0.344311,0.347133 0,0.335845 -0.155222,0.423333 -0.507999,0.423333 v 0.104423 c 0.380999,0 0.550333,0.09031 0.550333,0.44591 0,0.245534 -0.158045,0.445911 -0.349956,0.445911 -0.214488,0 -0.423333,-0.06209 -0.601133,-0.174978 v 0.118534 c 0.1778,0.112889 0.386645,0.174977 0.601133,0.174977 0.327378,0 0.598311,-0.253999 0.598311,-0.564444 z"
           style="font-style:normal;line-height:1.25"
           id="path168" />
      </g>
      <path
         style="fill:none;stroke:#000000;stroke-width:0.264582px;stroke-linecap:butt;stroke-linejoin:miter;stroke-opacity:1"
         d="m 28,55.999998 v 1"
         id="path33634" />
      <path
         style="fill:none;stroke:#000000;stroke-width:0.264582px;stroke-linecap:butt;stroke-linejoin:miter;stroke-opacity:1"
         d="m 30.000001,55.999998 v 1"
         id="path33636" />
      <path
         style="fill:none;stroke:#000000;stroke-width:0.264582px;stroke-linecap:butt;stroke-linejoin:miter;stroke-opacity:1"
         d="m 32.000001,55.999998 v 1"
         id="path33638" />
      <path
         style="fill:none;stroke:#000000;stroke-width:0.264582px;stroke-linecap:butt;stroke-linejoin:miter;stroke-opacity:1"
         d="m 34.000002,55.999998 v 1"
         id="path33640" />
      <path
         style="fill:none;stroke:#000000;stroke-width:0.264582px;stroke-linecap:butt;stroke-linejoin:miter;stroke-opacity:1"
         d="m 36,55.999998 v 1"
         id="path33642" />
      <path
         style="fill:none;stroke:#000000;stroke-width:0.264582px;stroke-linecap:butt;stroke-linejoin:miter;stroke-opacity:1"
         d="m 38.000001,55.999998 v 1"
         id="path33644" />
      <path
         style="fill:none;stroke:#000000;stroke-width:0.264582px;stroke-linecap:butt;stroke-linejoin:miter;stroke-opacity:1"
         d="m 40.000001,55.999998 v 1"
         id="path33646" />
      <g
         aria-label="4"
         id="text39445"
         style="font-style:italic;font-size:2.82222px;line-height:0%;font-family:Iwona;-inkscape-font-specification:'Sans Italic';text-align:end;text-anchor:end;stroke-width:0.282222">
        <path
           d="m 24.858892,63.322663 v -0.129822 h -0.211667 v -1.140177 h -0.220133 l -0.767644,1.140177 v 0.129822 h 0.767644 v 0.677333 h 0.220133 v -0.677333 z m -0.4318,-0.129822 h -0.62371 l 0.62371,-0.92851 z"
           style="font-style:normal;line-height:1.25"
           id="path171" />
      </g>
      <g
         aria-label="5"
         id="text39840"
         style="font-style:italic;font-size:2.82222px;line-height:0%;font-family:Iwona;-inkscape-font-specification:'Sans Italic';text-align:end;text-anchor:end;stroke-width:0.282222">
        <path
           d="m 24.858892,67.365 c 0,-0.397933 -0.239889,-0.663221 -0.598311,-0.663221 -0.163688,0 -0.316088,0.06209 -0.434622,0.166511 l 0.02822,-0.640644 h 0.948266 v -0.174978 h -1.058333 l -0.04233,0.973666 0.118533,0.0056 c 0.107244,-0.132645 0.268111,-0.211667 0.440266,-0.211667 0.208845,0 0.349956,0.217311 0.349956,0.544688 0,0.327378 -0.141111,0.544689 -0.349956,0.544689 -0.217311,0 -0.428977,-0.07056 -0.601133,-0.2032 v 0.118533 c 0.172156,0.132645 0.383822,0.2032 0.601133,0.2032 0.358422,0 0.598311,-0.265288 0.598311,-0.663222 z"
           style="font-style:normal;line-height:1.25"
           id="path174" />
      </g>
      <g
         aria-label="0"
         id="text58244"
         style="font-style:italic;font-size:2.82222px;line-height:0%;font-family:Iwona;-inkscape-font-specification:'Sans Italic';text-align:center;text-anchor:middle;stroke-width:0.282222">
        <path
           d="m 27.61948,59.02633 c 0,-0.668866 -0.206022,-1.001888 -0.618066,-1.001888 -0.412045,0 -0.618067,0.333022 -0.618067,1.001888 0,0.668866 0.206022,1.001888 0.618067,1.001888 0.412044,0 0.618066,-0.333022 0.618066,-1.001888 z m -0.248356,0 c 0,0.589844 -0.124177,0.883355 -0.36971,0.883355 -0.245534,0 -0.369711,-0.293511 -0.369711,-0.883355 0,-0.589844 0.124177,-0.883355 0.369711,-0.883355 0.245533,0 0.36971,0.293511 0.36971,0.883355 z"
           style="font-style:normal;line-height:1.25"
           id="path177" />
      </g>
      <g
         aria-label="1"
         id="text61618"
         style="font-style:italic;font-size:2.82222px;line-height:0%;font-family:Iwona;-inkscape-font-specification:'Sans Italic';text-align:center;text-anchor:middle;stroke-width:0.282222">
        <path
           d="m 29.190502,59.999996 v -1.947332 h -0.163688 c -0.155223,0.1778 -0.338667,0.3302 -0.541867,0.448733 v 0.118534 c 0.172156,-0.08185 0.333022,-0.1778 0.485422,-0.293511 v 1.673576 z"
           style="font-style:normal;line-height:1.25"
           id="path180" />
      </g>
      <g
         aria-label="1"
         id="text61622"
         style="font-style:italic;font-size:2.82222px;line-height:0%;font-family:Iwona;-inkscape-font-specification:'Sans Italic';text-align:center;text-anchor:middle;stroke-width:0.282222">
        <path
           d="m 31.190502,59.999996 v -1.947332 h -0.163688 c -0.155223,0.1778 -0.338667,0.3302 -0.541867,0.448733 v 0.118534 c 0.172156,-0.08185 0.333022,-0.1778 0.485422,-0.293511 v 1.673576 z"
           style="font-style:normal;line-height:1.25"
           id="path183" />
      </g>
      <g
         aria-label="0"
         id="text61626"
         style="font-style:italic;font-size:2.82222px;line-height:0%;font-family:Iwona;-inkscape-font-specification:'Sans Italic';text-align:center;text-anchor:middle;stroke-width:0.282222">
        <path
           d="m 33.619478,59.02633 c 0,-0.668866 -0.206022,-1.001888 -0.618066,-1.001888 -0.412044,0 -0.618067,0.333022 -0.618067,1.001888 0,0.668866 0.206023,1.001888 0.618067,1.001888 0.412044,0 0.618066,-0.333022 0.618066,-1.001888 z m -0.248356,0 c 0,0.589844 -0.124177,0.883355 -0.36971,0.883355 -0.245533,0 -0.369711,-0.293511 -0.369711,-0.883355 0,-0.589844 0.124178,-0.883355 0.369711,-0.883355 0.245533,0 0.36971,0.293511 0.36971,0.883355 z"
           style="font-style:normal;line-height:1.25"
           id="path186" />
      </g>
      <g
         aria-label="0"
         id="text61630"
         style="font-style:italic;font-size:2.82222px;line-height:0%;font-family:Iwona;-inkscape-font-specification:'Sans Italic';text-align:center;text-anchor:middle;stroke-width:0.282222">
        <path
           d="m 35.619478,59.02633 c 0,-0.668866 -0.206022,-1.001888 -0.618066,-1.001888 -0.412044,0 -0.618067,0.333022 -0.618067,1.001888 0,0.668866 0.206023,1.001888 0.618067,1.001888 0.412044,0 0.618066,-0.333022 0.618066,-1.001888 z m -0.248356,0 c 0,0.589844 -0.124177,0.883355 -0.36971,0.883355 -0.245533,0 -0.369711,-0.293511 -0.369711,-0.883355 0,-0.589844 0.124178,-0.883355 0.369711,-0.883355 0.245533,0 0.36971,0.293511 0.36971,0.883355 z"
           style="font-style:normal;line-height:1.25"
           id="path189" />
      </g>
      <g
         aria-label="1"
         id="text61634"
         style="font-style:italic;font-size:2.82222px;line-height:0%;font-family:Iwona;-inkscape-font-specification:'Sans Italic';text-align:center;text-anchor:middle;stroke-width:0.282222">
        <path
           d="m 37.1905,59.999996 v -1.947332 h -0.163688 c -0.155222,0.1778 -0.338667,0.3302 -0.541867,0.448733 v 0.118534 c 0.172156,-0.08185 0.333022,-0.1778 0.485422,-0.293511 v 1.673576 z"
           style="font-style:normal;line-height:1.25"
           id="path192" />
      </g>
      <g
         aria-label="0"
         id="text61638"
         style="font-style:italic;font-size:2.82222px;line-height:0%;font-family:Iwona;-inkscape-font-specification:'Sans Italic';text-align:center;text-anchor:middle;stroke-width:0.282222">
        <path
           d="m 39.619478,59.02633 c 0,-0.668866 -0.206022,-1.001888 -0.618066,-1.001888 -0.412044,0 -0.618067,0.333022 -0.618067,1.001888 0,0.668866 0.206023,1.001888 0.618067,1.001888 0.412044,0 0.618066,-0.333022 0.618066,-1.001888 z m -0.248356,0 c 0,0.589844 -0.124177,0.883355 -0.36971,0.883355 -0.245533,0 -0.369711,-0.293511 -0.369711,-0.883355 0,-0.589844 0.124178,-0.883355 0.369711,-0.883355 0.245533,0 0.36971,0.293511 0.36971,0.883355 z"
           style="font-style:normal;line-height:1.25"
           id="path195" />
      </g>
      <g
         aria-label="0"
         id="text61642"
         style="font-style:italic;font-size:2.82222px;line-height:0%;font-family:Iwona;-inkscape-font-specification:'Sans Italic';text-align:center;text-anchor:middle;stroke-width:0.282222">
        <path
           d="m 41.619478,59.02633 c 0,-0.668866 -0.206022,-1.001888 -0.618066,-1.001888 -0.412044,0 -0.618067,0.333022 -0.618067,1.001888 0,0.668866 0.206023,1.001888 0.618067,1.001888 0.412044,0 0.618066,-0.333022 0.618066,-1.001888 z m -0.248356,0 c 0,0.589844 -0.124177,0.883355 -0.36971,0.883355 -0.245533,0 -0.369711,-0.293511 -0.369711,-0.883355 0,-0.589844 0.124178,-0.883355 0.369711,-0.883355 0.245533,0 0.36971,0.293511 0.36971,0.883355 z"
           style="font-style:normal;line-height:1.25"
           id="path198" />
      </g>
    </g>
    <path
       style="fill:none;stroke:#000000;stroke-width:1;stroke-linecap:butt;stroke-linejoin:miter;stroke-miterlimit:4;stroke-dasharray:none;stroke-opacity:1;marker-start:url(#Arrow1Sstart_Fnone_S#000000);marker-end:url(#Arrow1Send_Fnone_S#000000)"
       d="M 54,58 H 72"
       id="path6870" />
    <path
       style="fill:none;stroke:#000000;stroke-width:1;stroke-linecap:butt;stroke-linejoin:miter;stroke-miterlimit:4;stroke-dasharray:none;stroke-opacity:1;marker-end:url(#Arrow1Send_Fnone_S#000000)"
       d="M 53,41.999998 H 72"
       id="path8429" />
    <g
       aria-label="Adresse"
       id="text5585-3"
       style="font-style:italic;font-size:4.23333px;line-height:0%;font-family:Iwona;-inkscape-font-specification:'Sans Italic';text-align:center;text-anchor:middle;stroke-width:0.282222">
      <path
         d="M 58.552905,39.999996 57.477639,37.036665 H 57.10934 l -1.096433,2.963331 h 0.207433 l 0.385233,-1.037166 h 1.202266 l 0.376766,1.037166 z M 57.735872,38.768097 H 56.67754 l 0.533399,-1.447799 z"
         style="font-style:normal;line-height:1.25"
         id="path201" />
      <path
         d="m 60.466366,39.999996 v -2.963331 h -0.3302 v 1.130299 c -0.1651,-0.07197 -0.3429,-0.1143 -0.5207,-0.1143 -0.529166,0 -0.787399,0.423333 -0.787399,0.994833 0,0.563033 0.211667,0.994832 0.723899,0.994832 0.2159,0 0.414867,-0.09737 0.5842,-0.232833 v 0.1905 z m -0.3302,-0.3683 c -0.127,0.127 -0.283633,0.232834 -0.465666,0.232834 -0.385233,0 -0.4699,-0.372533 -0.4699,-0.817033 0,-0.397933 0.122767,-0.817033 0.4699,-0.817033 0.160866,0 0.321733,0.04233 0.465666,0.1143 z"
         style="font-style:normal;line-height:1.25"
         id="path203" />
      <path
         d="m 62.197795,38.357464 v -0.262466 c -0.04657,-0.01693 -0.09737,-0.02963 -0.143933,-0.02963 -0.237067,0 -0.427567,0.1651 -0.579967,0.347134 v -0.3175 h -0.330199 v 1.904998 h 0.330199 v -1.409699 c 0.127,-0.148166 0.287867,-0.275166 0.4826,-0.275166 0.08043,0 0.1651,0.01693 0.2413,0.04233 z"
         style="font-style:normal;line-height:1.25"
         id="path205" />
      <path
         d="m 64.153589,39.08983 v -0.04233 c 0,-0.5969 -0.325966,-0.994833 -0.817033,-0.994833 -0.495299,0 -0.821266,0.397933 -0.821266,0.994833 0,0.596899 0.325967,0.994832 0.821266,0.994832 0.211667,0 0.4191,-0.06773 0.592667,-0.190499 v -0.1778 c -0.198967,0.127 -0.359833,0.173566 -0.592667,0.173566 -0.359833,0 -0.448733,-0.342899 -0.448733,-0.757766 z m -0.372533,-0.1778 h -0.893233 c 0,-0.338666 0.143934,-0.681566 0.448733,-0.681566 0.300567,0 0.4445,0.3429 0.4445,0.681566 z"
         style="font-style:normal;line-height:1.25"
         id="path207" />
      <path
         d="m 65.990849,39.45813 c 0,-0.334433 -0.3556,-0.508 -0.702733,-0.592666 -0.2032,-0.0508 -0.423333,-0.135467 -0.423333,-0.334433 0,-0.182033 0.186267,-0.300567 0.389466,-0.300567 0.224367,0 0.448733,0.06773 0.635,0.1905 v -0.1778 c -0.186267,-0.122766 -0.410633,-0.1905 -0.635,-0.1905 -0.368299,0 -0.706966,0.224367 -0.706966,0.567267 0,0.309033 0.3429,0.452966 0.668866,0.533399 0.224367,0.05503 0.4572,0.173567 0.4572,0.389467 0,0.198966 -0.2032,0.321733 -0.4191,0.321733 -0.262466,0 -0.516466,-0.0635 -0.740832,-0.1905 v 0.1778 c 0.224366,0.127 0.478366,0.190499 0.740832,0.190499 0.381,0 0.7366,-0.228599 0.7366,-0.584199 z"
         style="font-style:normal;line-height:1.25"
         id="path209" />
      <path
         d="m 67.756138,39.45813 c 0,-0.334433 -0.3556,-0.508 -0.702733,-0.592666 -0.2032,-0.0508 -0.423333,-0.135467 -0.423333,-0.334433 0,-0.182033 0.186267,-0.300567 0.389467,-0.300567 0.224366,0 0.448733,0.06773 0.634999,0.1905 v -0.1778 c -0.186266,-0.122766 -0.410633,-0.1905 -0.634999,-0.1905 -0.3683,0 -0.706966,0.224367 -0.706966,0.567267 0,0.309033 0.342899,0.452966 0.668866,0.533399 0.224366,0.05503 0.457199,0.173567 0.457199,0.389467 0,0.198966 -0.2032,0.321733 -0.419099,0.321733 -0.262467,0 -0.516467,-0.0635 -0.740833,-0.1905 v 0.1778 c 0.224366,0.127 0.478366,0.190499 0.740833,0.190499 0.380999,0 0.736599,-0.228599 0.736599,-0.584199 z"
         style="font-style:normal;line-height:1.25"
         id="path211" />
      <path
         d="m 69.817766,39.08983 v -0.04233 c 0,-0.5969 -0.325967,-0.994833 -0.817033,-0.994833 -0.4953,0 -0.821266,0.397933 -0.821266,0.994833 0,0.596899 0.325966,0.994832 0.821266,0.994832 0.211666,0 0.4191,-0.06773 0.592666,-0.190499 v -0.1778 c -0.198966,0.127 -0.359833,0.173566 -0.592666,0.173566 -0.359833,0 -0.448733,-0.342899 -0.448733,-0.757766 z m -0.372533,-0.1778 H 68.552 c 0,-0.338666 0.143933,-0.681566 0.448733,-0.681566 0.300566,0 0.4445,0.3429 0.4445,0.681566 z"
         style="font-style:normal;line-height:1.25"
         id="path213" />
    </g>
    <g
       aria-label="Donnée"
       id="text14046"
       style="font-style:italic;font-size:4.23333px;line-height:0%;font-family:Iwona;-inkscape-font-specification:'Sans Italic';text-align:center;text-anchor:middle;stroke-width:0.282222">
      <path
         d="m 59.005868,54.518331 c 0,-0.905933 -0.495299,-1.523999 -1.367365,-1.523999 -0.262466,0 -0.524933,0.0127 -0.783166,0.04233 h -0.338666 v 2.963331 h 0.338666 c 0.258233,0.02963 0.5207,0.04233 0.783166,0.04233 0.872066,0 1.367365,-0.618066 1.367365,-1.523998 z m -0.414866,0 c 0,0.673099 -0.3429,1.329265 -0.952499,1.329265 -0.258233,0 -0.516466,-0.0127 -0.774699,-0.04233 v -2.573864 c 0.258233,-0.02963 0.516466,-0.04233 0.774699,-0.04233 0.609599,0 0.952499,0.656166 0.952499,1.329266 z"
         style="font-style:normal;line-height:1.25"
         id="path216" />
      <path
         d="m 61.130997,55.047497 c 0,-0.647699 -0.287867,-0.994833 -0.817033,-0.994833 -0.5334,0 -0.821266,0.347134 -0.821266,0.994833 0,0.647699 0.287866,0.994832 0.821266,0.994832 0.529166,0 0.817033,-0.347133 0.817033,-0.994832 z m -0.372533,0 c 0,0.529166 -0.156634,0.817033 -0.4445,0.817033 -0.2921,0 -0.448733,-0.287867 -0.448733,-0.817033 0,-0.529166 0.156633,-0.817033 0.448733,-0.817033 0.287866,0 0.4445,0.287867 0.4445,0.817033 z"
         style="font-style:normal;line-height:1.25"
         id="path218" />
      <path
         d="m 63.23496,55.999996 v -1.375832 c 0,-0.309033 -0.237066,-0.5715 -0.541866,-0.5715 -0.254,0 -0.478366,0.143934 -0.660399,0.321734 v -0.2794 h -0.3302 v 1.904998 h 0.3302 v -1.494365 c 0.143933,-0.143933 0.321733,-0.258233 0.520699,-0.258233 0.198967,0 0.351367,0.173566 0.351367,0.376766 v 1.375832 z"
         style="font-style:normal;line-height:1.25"
         id="path220" />
      <path
         d="m 65.423584,55.999996 v -1.375832 c 0,-0.309033 -0.237066,-0.5715 -0.541866,-0.5715 -0.254,0 -0.478366,0.143934 -0.660399,0.321734 v -0.2794 h -0.3302 v 1.904998 h 0.3302 v -1.494365 c 0.143933,-0.143933 0.321733,-0.258233 0.520699,-0.258233 0.198967,0 0.351367,0.173566 0.351367,0.376766 v 1.375832 z"
         style="font-style:normal;line-height:1.25"
         id="path222" />
      <path
         d="m 67.612209,55.08983 v -0.04233 c 0,-0.5969 -0.325967,-0.994833 -0.817033,-0.994833 -0.495299,0 -0.821266,0.397933 -0.821266,0.994833 0,0.596899 0.325967,0.994832 0.821266,0.994832 0.211667,0 0.4191,-0.06773 0.592666,-0.190499 v -0.1778 c -0.198966,0.127 -0.359833,0.173566 -0.592666,0.173566 -0.359833,0 -0.448733,-0.342899 -0.448733,-0.757766 z m -0.372533,-0.1778 h -0.893233 c 0,-0.338666 0.143933,-0.681566 0.448733,-0.681566 0.300567,0 0.4445,0.3429 0.4445,0.681566 z m 0.0127,-1.875365 h -0.381 c 0,0.283633 -0.0889,0.563033 -0.254,0.791633 h 0.1778 c 0.224367,-0.224366 0.4572,-0.474133 0.4572,-0.791633 z"
         style="font-style:normal;line-height:1.25"
         id="path224" />
      <path
         d="m 69.695001,55.08983 v -0.04233 c 0,-0.5969 -0.325966,-0.994833 -0.817033,-0.994833 -0.495299,0 -0.821266,0.397933 -0.821266,0.994833 0,0.596899 0.325967,0.994832 0.821266,0.994832 0.211667,0 0.4191,-0.06773 0.592667,-0.190499 v -0.1778 c -0.198967,0.127 -0.359833,0.173566 -0.592667,0.173566 -0.359833,0 -0.448733,-0.342899 -0.448733,-0.757766 z m -0.372533,-0.1778 h -0.893233 c 0,-0.338666 0.143934,-0.681566 0.448733,-0.681566 0.300567,0 0.4445,0.3429 0.4445,0.681566 z"
         style="font-style:normal;line-height:1.25"
         id="path226" />
    </g>
    <g
       aria-label="3"
       id="text33650"
       style="font-style:italic;font-size:3.88056px;line-height:0%;font-family:Iwona;-inkscape-font-specification:'Sans Italic';text-align:center;text-anchor:middle;stroke-width:0.282222">
      <path
         d="m 63.82462,46.26269 c 0,-0.341489 -0.240595,-0.636412 -0.574323,-0.737307 0.294922,-0.08537 0.477309,-0.306564 0.477309,-0.601486 0,-0.384176 -0.310445,-0.640293 -0.776112,-0.640293 -0.252237,0 -0.496712,0.08537 -0.69462,0.240595 v 0.162983 c 0.197908,-0.155222 0.442383,-0.240594 0.69462,-0.240594 0.283281,0 0.473428,0.190147 0.473428,0.477309 0,0.461786 -0.213431,0.582084 -0.698501,0.582084 v 0.14358 c 0.523876,0 0.756709,0.124178 0.756709,0.613129 0,0.337609 -0.217311,0.613128 -0.481189,0.613128 -0.294923,0 -0.582084,-0.08537 -0.826559,-0.240594 v 0.162983 c 0.244475,0.155222 0.531636,0.240595 0.826559,0.240595 0.450145,0 0.822679,-0.349251 0.822679,-0.776112 z"
         style="font-style:normal;line-height:1.25"
         id="path229" />
    </g>
    <g
       aria-label="01100100"
       id="text40450"
       style="font-style:italic;font-size:3.88056px;line-height:0%;font-family:Iwona;-inkscape-font-specification:'Sans Italic';text-align:center;text-anchor:middle;stroke-width:0.282222">
      <path
         d="m 56.72126,61.661203 c 0,-0.919693 -0.283281,-1.377599 -0.849843,-1.377599 -0.566561,0 -0.849842,0.457906 -0.849842,1.377599 0,0.919693 0.283281,1.377599 0.849842,1.377599 0.566562,0 0.849843,-0.457906 0.849843,-1.377599 z m -0.341489,0 c 0,0.811037 -0.170745,1.214615 -0.508354,1.214615 -0.337608,0 -0.508353,-0.403578 -0.508353,-1.214615 0,-0.811037 0.170745,-1.214615 0.508353,-1.214615 0.337609,0 0.508354,0.403578 0.508354,1.214615 z"
         style="font-style:normal;line-height:1.25"
         id="path232" />
      <path
         d="M 58.168707,62.999996 V 60.32241 h -0.225072 c -0.213431,0.244475 -0.465667,0.454025 -0.745068,0.617009 v 0.162983 c 0.236715,-0.112536 0.457906,-0.244475 0.667457,-0.403578 v 2.301172 z"
         style="font-style:normal;line-height:1.25"
         id="path234" />
      <path
         d="M 60.206,62.999996 V 60.32241 h -0.225073 c -0.21343,0.244475 -0.465667,0.454025 -0.745067,0.617009 v 0.162983 c 0.236714,-0.112536 0.457906,-0.244475 0.667456,-0.403578 v 2.301172 z"
         style="font-style:normal;line-height:1.25"
         id="path236" />
      <path
         d="m 62.833137,61.661203 c 0,-0.919693 -0.28328,-1.377599 -0.849842,-1.377599 -0.566562,0 -0.849843,0.457906 -0.849843,1.377599 0,0.919693 0.283281,1.377599 0.849843,1.377599 0.566562,0 0.849842,-0.457906 0.849842,-1.377599 z m -0.341489,0 c 0,0.811037 -0.170744,1.214615 -0.508353,1.214615 -0.337609,0 -0.508354,-0.403578 -0.508354,-1.214615 0,-0.811037 0.170745,-1.214615 0.508354,-1.214615 0.337609,0 0.508353,0.403578 0.508353,1.214615 z"
         style="font-style:normal;line-height:1.25"
         id="path238" />
      <path
         d="m 64.87043,61.661203 c 0,-0.919693 -0.283281,-1.377599 -0.849843,-1.377599 -0.566561,0 -0.849842,0.457906 -0.849842,1.377599 0,0.919693 0.283281,1.377599 0.849842,1.377599 0.566562,0 0.849843,-0.457906 0.849843,-1.377599 z m -0.341489,0 c 0,0.811037 -0.170745,1.214615 -0.508354,1.214615 -0.337608,0 -0.508353,-0.403578 -0.508353,-1.214615 0,-0.811037 0.170745,-1.214615 0.508353,-1.214615 0.337609,0 0.508354,0.403578 0.508354,1.214615 z"
         style="font-style:normal;line-height:1.25"
         id="path240" />
      <path
         d="M 66.317877,62.999996 V 60.32241 h -0.225072 c -0.213431,0.244475 -0.465667,0.454025 -0.745068,0.617009 v 0.162983 c 0.236714,-0.112536 0.457906,-0.244475 0.667457,-0.403578 v 2.301172 z"
         style="font-style:normal;line-height:1.25"
         id="path242" />
      <path
         d="m 68.945015,61.661203 c 0,-0.919693 -0.283281,-1.377599 -0.849843,-1.377599 -0.566562,0 -0.849842,0.457906 -0.849842,1.377599 0,0.919693 0.28328,1.377599 0.849842,1.377599 0.566562,0 0.849843,-0.457906 0.849843,-1.377599 z m -0.341489,0 c 0,0.811037 -0.170745,1.214615 -0.508354,1.214615 -0.337608,0 -0.508353,-0.403578 -0.508353,-1.214615 0,-0.811037 0.170745,-1.214615 0.508353,-1.214615 0.337609,0 0.508354,0.403578 0.508354,1.214615 z"
         style="font-style:normal;line-height:1.25"
         id="path244" />
      <path
         d="m 70.982307,61.661203 c 0,-0.919693 -0.283281,-1.377599 -0.849842,-1.377599 -0.566562,0 -0.849843,0.457906 -0.849843,1.377599 0,0.919693 0.283281,1.377599 0.849843,1.377599 0.566561,0 0.849842,-0.457906 0.849842,-1.377599 z m -0.341489,0 c 0,0.811037 -0.170745,1.214615 -0.508353,1.214615 -0.337609,0 -0.508354,-0.403578 -0.508354,-1.214615 0,-0.811037 0.170745,-1.214615 0.508354,-1.214615 0.337608,0 0.508353,0.403578 0.508353,1.214615 z"
         style="font-style:normal;line-height:1.25"
         id="path246" />
    </g>
  </g>
</svg>
