<?xml version="1.0" encoding="UTF-8" standalone="no"?>
<!-- Created with Inkscape (http://www.inkscape.org/) -->

<svg
   width="242.74803mm"
   height="104.54681mm"
   id="svg4482"
   version="1.1"
   viewBox="0 0 860.13087 370.44145"
   xmlns="http://www.w3.org/2000/svg"
   xmlns:svg="http://www.w3.org/2000/svg"
   xmlns:rdf="http://www.w3.org/1999/02/22-rdf-syntax-ns#"
   xmlns:cc="http://creativecommons.org/ns#"
   xmlns:dc="http://purl.org/dc/elements/1.1/">
  <defs
     id="defs4484" />
  <metadata
     id="metadata4488">
    <rdf:RDF>
      <cc:Work
         rdf:about="">
        <dc:format>image/svg+xml</dc:format>
        <dc:type
           rdf:resource="http://purl.org/dc/dcmitype/StillImage" />
        <dc:title />
      </cc:Work>
    </rdf:RDF>
  </metadata>
  <g
     id="layer1"
     transform="translate(-131.99515,25.740656)">
    <path
       id="rect4840"
       style="fill:#ffcc00;stroke-width:5.669"
       d="m 903.54334,-17.716507 h 3.5433 c 0,0 0,1e-6 0,2e-6 V 124.01578 c 0,0 0,0 0,0 h -3.5433 c 0,0 -10e-6,0 -10e-6,0 V -17.716505 c 0,-10e-7 10e-6,-2e-6 10e-6,-2e-6 z" />
    <path
       id="rect4842"
       style="fill:#ffcc00;stroke-width:5.669"
       d="m 974.40949,-17.716507 h 3.5433 c 0,0 0,1e-6 0,2e-6 V 124.01578 c 0,0 0,0 0,0 h -3.5433 c 0,0 -10e-6,0 -10e-6,0 V -17.716505 c 0,-10e-7 10e-6,-2e-6 10e-6,-2e-6 z" />
    <path
       id="rect4844"
       style="fill:#ffcc00;stroke-width:5.669"
       d="m 956.69293,-17.716507 h 3.5433 c 0,0 0,1e-6 0,2e-6 V 124.01578 c 0,0 0,0 0,0 h -3.5433 c 0,0 0,0 0,0 V -17.716505 c 0,-10e-7 0,-2e-6 0,-2e-6 z" />
    <path
       id="rect4846"
       style="fill:#ffcc00;stroke-width:5.669"
       d="m 938.97638,-17.716507 h 3.5433 c 0,0 0,1e-6 0,2e-6 V 124.01578 c 0,0 0,0 0,0 h -3.5433 c 0,0 0,0 0,0 V -17.716505 c 0,-10e-7 0,-2e-6 0,-2e-6 z" />
    <path
       id="rect4830"
       style="fill:#ffcc00;stroke-width:5.669"
       d="m 744.09454,-17.716507 h 3.5433 c 0,0 10e-6,1e-6 10e-6,2e-6 V 124.01578 c 0,0 -10e-6,0 -10e-6,0 h -3.5433 c 0,0 0,0 0,0 V -17.716505 c 0,-10e-7 0,-2e-6 0,-2e-6 z" />
    <path
       id="rect4832"
       style="fill:#ffcc00;stroke-width:5.669"
       d="m 850.39374,-17.716507 h 3.5433 c 0,0 0,1e-6 0,2e-6 V 124.01578 c 0,0 0,0 0,0 h -3.5433 c 0,0 0,0 0,0 V -17.716505 c 0,-10e-7 0,-2e-6 0,-2e-6 z" />
    <path
       id="rect4834"
       style="fill:#ffcc00;stroke-width:5.669"
       d="m 814.96069,-17.716507 h 3.5433 c 0,0 10e-6,1e-6 10e-6,2e-6 V 124.01578 c 0,0 -10e-6,0 -10e-6,0 h -3.5433 c 0,0 0,0 0,0 V -17.716505 c 0,-10e-7 0,-2e-6 0,-2e-6 z" />
    <path
       id="rect4836"
       style="fill:#ffcc00;stroke-width:5.669"
       d="m 797.24414,-17.716507 h 3.5433 c 0,0 0,1e-6 0,2e-6 V 124.01578 c 0,0 0,0 0,0 h -3.5433 c 0,0 0,0 0,0 V -17.716505 c 0,-10e-7 0,-2e-6 0,-2e-6 z" />
    <path
       id="rect4838"
       style="fill:#ffcc00;stroke-width:5.669"
       d="m 779.52759,-17.716507 h 3.5433 c 0,0 0,1e-6 0,2e-6 V 124.01578 c 0,0 0,0 0,0 h -3.5433 c 0,0 0,0 0,0 V -17.716505 c 0,-10e-7 0,-2e-6 0,-2e-6 z" />
    <path
       id="rect4828"
       style="fill:#ffcc00;stroke-width:5.669"
       d="m 425.19687,-17.716507 h 3.5433 c 0,0 0,1e-6 0,2e-6 V 124.01578 c 0,0 0,0 0,0 h -3.5433 c 0,0 0,0 0,0 V -17.716505 c 0,-10e-7 0,-2e-6 0,-2e-6 z" />
    <path
       id="rect4826"
       style="fill:#ffcc00;stroke-width:5.669"
       d="m 584.64569,-17.716507 h 3.5433 c 0,0 0,1e-6 0,2e-6 V 124.01578 c 0,0 0,0 0,0 h -3.5433 c 0,0 0,0 0,0 V -17.716505 c 0,-10e-7 0,-2e-6 0,-2e-6 z" />
    <path
       id="rect4816"
       style="fill:#ffcc00;stroke-width:5.669"
       d="m 690.94489,-17.716507 h 3.5433 c 0,0 0,1e-6 0,2e-6 V 124.01578 c 0,0 0,0 0,0 h -3.5433 c 0,0 0,0 0,0 V -17.716505 c 0,-10e-7 0,-2e-6 0,-2e-6 z" />
    <path
       id="rect4818"
       style="fill:#ffcc00;stroke-width:5.669"
       d="m 655.51184,-17.716507 h 3.5433 c 0,0 0,1e-6 0,2e-6 V 124.01578 c 0,0 0,0 0,0 h -3.5433 c 0,0 0,0 0,0 V -17.716505 c 0,-10e-7 0,-2e-6 0,-2e-6 z" />
    <path
       id="rect4820"
       style="fill:#ffcc00;stroke-width:5.669"
       d="m 637.79529,-17.716507 h 3.5433 c 0,0 0,1e-6 0,2e-6 V 124.01578 c 0,0 0,0 0,0 h -3.5433 c 0,0 0,0 0,0 V -17.716505 c 0,-10e-7 0,-2e-6 0,-2e-6 z" />
    <path
       id="rect4822"
       style="fill:#ffcc00;stroke-width:5.669"
       d="m 620.07874,-17.716507 h 3.5433 c 0,0 0,1e-6 0,2e-6 V 124.01578 c 0,0 0,0 0,0 h -3.5433 c 0,0 0,0 0,0 V -17.716505 c 0,-10e-7 0,-2e-6 0,-2e-6 z" />
    <path
       id="rect4814"
       style="fill:#ffcc00;stroke-width:5.669"
       d="m 531.4961,-17.716507 h 3.54329 c 0,0 10e-6,1e-6 10e-6,2e-6 V 124.01578 c 0,0 -10e-6,0 -10e-6,0 h -3.54329 c -10e-6,0 -10e-6,0 -10e-6,0 V -17.716505 c 0,-10e-7 0,-2e-6 10e-6,-2e-6 z" />
    <path
       id="rect4808"
       style="fill:#ffcc00;stroke-width:5.669"
       d="m 496.06302,-17.716507 h 3.5433 c 0,0 0,1e-6 0,2e-6 V 124.01578 c 0,0 0,0 0,0 h -3.5433 c 0,0 0,0 0,0 V -17.716505 c 0,-10e-7 0,-2e-6 0,-2e-6 z" />
    <path
       id="rect4810"
       style="fill:#ffcc00;stroke-width:5.669"
       d="m 478.34647,-17.716507 h 3.5433 c 0,0 0,1e-6 0,2e-6 V 124.01578 c 0,0 0,0 0,0 h -3.5433 c 0,0 0,0 0,0 V -17.716505 c 0,-10e-7 0,-2e-6 0,-2e-6 z" />
    <path
       id="rect4812"
       style="fill:#ffcc00;stroke-width:5.669"
       d="m 460.62995,-17.716507 h 3.54329 c 0,0 10e-6,1e-6 10e-6,2e-6 V 124.01578 c 0,0 -10e-6,0 -10e-6,0 h -3.54329 c -1e-5,0 -1e-5,0 -1e-5,0 V -17.716505 c 0,-10e-7 0,-2e-6 1e-5,-2e-6 z" />
    <path
       style="fill:#80e5ff;fill-rule:evenodd;stroke:none;stroke-width:1px;stroke-linecap:butt;stroke-linejoin:miter;stroke-opacity:1"
       d="m 853.93703,124.01577 v 10.62991 h -3.54331 l 7.08661,7.08662 7.08662,-7.08662 h -3.54331 v -10.62991 z"
       id="path4804" />
    <path
       id="path4806"
       d="m 907.08664,124.01578 v 63.7795 h -3.54331 l 7.08661,7.08662 7.08663,-7.08662 h -3.54331 v -63.7795 z"
       style="fill:#80e5ff;fill-rule:evenodd;stroke:none;stroke-width:1px;stroke-linecap:butt;stroke-linejoin:miter;stroke-opacity:1" />
    <path
       id="path4746"
       d="m 694.48821,124.01577 v 10.62991 h -3.54331 l 7.08661,7.08662 7.08662,-7.08662 h -3.54331 v -10.62991 z"
       style="fill:#80e5ff;fill-rule:evenodd;stroke:none;stroke-width:1px;stroke-linecap:butt;stroke-linejoin:miter;stroke-opacity:1" />
    <path
       style="fill:#80e5ff;fill-rule:evenodd;stroke:none;stroke-width:1px;stroke-linecap:butt;stroke-linejoin:miter;stroke-opacity:1"
       d="m 747.63782,124.01578 v 63.7795 h -3.54331 l 7.08661,7.08662 7.08663,-7.08662 h -3.54331 v -63.7795 z"
       id="path4748" />
    <path
       style="fill:#80e5ff;fill-rule:evenodd;stroke:none;stroke-width:1px;stroke-linecap:butt;stroke-linejoin:miter;stroke-opacity:1"
       d="m 535.03938,124.01577 v 10.62991 h -3.54331 l 7.08661,7.08662 7.08662,-7.08662 h -3.54331 v -10.62991 z"
       id="path4742" />
    <path
       id="path4744"
       d="m 588.18899,124.01578 v 63.7795 h -3.54331 l 7.08661,7.08662 7.08663,-7.08662 h -3.54331 v -63.7795 z"
       style="fill:#80e5ff;fill-rule:evenodd;stroke:none;stroke-width:1px;stroke-linecap:butt;stroke-linejoin:miter;stroke-opacity:1" />
    <path
       id="path32278"
       d="m 375.59054,124.01577 v 10.62991 h -3.54331 l 7.08661,7.08662 7.08662,-7.08662 h -3.54331 v -10.62991 z"
       style="fill:#80e5ff;fill-rule:evenodd;stroke:none;stroke-width:1px;stroke-linecap:butt;stroke-linejoin:miter;stroke-opacity:1" />
    <path
       style="fill:#80e5ff;fill-rule:evenodd;stroke:none;stroke-width:1px;stroke-linecap:butt;stroke-linejoin:miter;stroke-opacity:1"
       d="m 428.74015,124.01578 v 63.7795 h -3.54331 l 7.08661,7.08662 7.08663,-7.08662 h -3.54331 v -63.7795 z"
       id="path32286" />
    <path
       id="rect3362"
       style="fill:#aaccff"
       d="m 248.03149,276.37796 h 141.7323 v 7.08661 h -141.7323 z" />
    <path
       id="rect1869"
       style="fill:#ffcc00;stroke-width:5.669"
       d="m 549.21265,-17.716505 h 3.5433 c 0,0 0,1e-6 0,1e-6 V 336.61418 c 0,0 0,0 0,0 h -3.5433 c 0,0 0,0 0,0 V -17.716504 c 0,0 0,-1e-6 0,-1e-6 z" />
    <path
       id="rect1881"
       style="fill:#ffcc00;stroke-width:5.669"
       d="m 442.91342,-17.716505 h 3.5433 c 0,0 0,1e-6 0,1e-6 V 336.61418 c 0,0 0,0 0,0 h -3.5433 c 0,0 0,0 0,0 V -17.716504 c 0,0 0,-1e-6 0,-1e-6 z" />
    <path
       id="rect1923"
       style="fill:#ffcc00;stroke-width:5.669"
       d="m 921.25989,-17.716505 h 3.5433 c 0,0 0,1e-6 0,1e-6 V 336.61415 c 0,0 0,0 0,0 h -3.5433 c 0,0 0,0 0,0 V -17.716504 c 0,0 0,-1e-6 0,-1e-6 z" />
    <path
       id="rect1929"
       style="fill:#ffcc00;stroke-width:5.669"
       d="m 868.11029,-17.716505 h 3.5433 c 0,0 0,1e-6 0,1e-6 V 336.61415 c 0,0 0,0 0,0 h -3.5433 c 0,0 0,0 0,0 V -17.716504 c 0,0 0,-1e-6 0,-1e-6 z" />
    <path
       id="rect1909"
       style="fill:#ffcc00;stroke-width:5.669"
       d="m 761.8111,-17.716505 h 3.5433 c 0,0 0,1e-6 0,1e-6 V 336.61415 c 0,0 0,0 0,0 h -3.5433 c 0,0 0,0 0,0 V -17.716504 c 0,0 0,-1e-6 0,-1e-6 z" />
    <path
       id="rect1915"
       style="fill:#ffcc00;stroke-width:5.669"
       d="m 708.66144,-17.716505 h 3.5433 c 0,0 0,1e-6 0,1e-6 V 336.61415 c 0,0 0,0 0,0 h -3.5433 c 0,0 0,0 0,0 V -17.716504 c 0,0 0,-1e-6 0,-1e-6 z" />
    <path
       id="rect1895"
       style="fill:#ffcc00;stroke-width:5.669"
       d="m 602.36225,-17.716505 h 3.54329 c 0,0 10e-6,1e-6 10e-6,1e-6 V 336.61415 c 0,0 -10e-6,0 -10e-6,0 h -3.54329 c -10e-6,0 -10e-6,0 -10e-6,0 V -17.716504 c 0,0 0,-1e-6 10e-6,-1e-6 z" />
    <path
       id="rect1825"
       style="fill:#ffcc00;stroke-width:5.669"
       d="m 389.7638,-17.716505 h 3.54329 c 10e-6,0 10e-6,1e-6 10e-6,1e-6 V 336.61418 c 0,0 0,0 -10e-6,0 h -3.54329 c -1e-5,0 -1e-5,0 -1e-5,0 V -17.716504 c 0,0 0,-1e-6 1e-5,-1e-6 z" />
    <path
       id="rect1827"
       style="fill:#ffcc00;stroke-width:5.669"
       d="m 372.04727,-17.716507 h 3.5433 c 0,0 0,1e-6 0,2e-6 V 124.01578 c 0,0 0,0 0,0 h -3.5433 c 0,0 0,0 0,0 V -17.716505 c 0,-10e-7 0,-2e-6 0,-2e-6 z" />
    <path
       id="rect1817"
       style="fill:#ffcc00;stroke-width:5.669"
       d="m 336.6142,-17.716507 h 3.5433 c 0,0 0,1e-6 0,2e-6 V 124.01578 c 0,0 0,0 0,0 h -3.5433 c 0,0 0,0 0,0 V -17.716505 c 0,-10e-7 0,-2e-6 0,-2e-6 z" />
    <path
       id="rect1819"
       style="fill:#ffcc00;stroke-width:5.669"
       d="m 318.89765,-17.716507 h 3.54329 c 10e-6,0 10e-6,1e-6 10e-6,2e-6 V 124.01578 c 0,0 0,0 -10e-6,0 h -3.54329 c -10e-6,0 -10e-6,0 -10e-6,0 V -17.716505 c 0,-10e-7 0,-2e-6 10e-6,-2e-6 z" />
    <path
       id="rect1807"
       style="fill:#ffcc00;stroke-width:5.669"
       d="m 301.18112,-17.716507 h 3.5433 c 0,0 0,1e-6 0,2e-6 V 124.01578 c 0,0 0,0 0,0 h -3.5433 c 0,0 0,0 0,0 V -17.716505 c 0,-10e-7 0,-2e-6 0,-2e-6 z" />
    <path
       style="fill:none;stroke:#000000;stroke-width:2;stroke-linecap:butt;stroke-linejoin:miter;stroke-miterlimit:4;stroke-dasharray:none;stroke-opacity:1"
       d="m 248.0315,177.16537 h 127.55904 l 3.54331,-35.43308 h 14.17323 l 3.54331,35.43308 h 138.18898 l 3.54331,-35.43308 h 14.17322 l 3.54331,35.43308 h 138.18898 l 3.5433,-35.43308 h 14.17323 l 3.54331,35.43308 h 138.18899 l 3.5433,-35.43308 h 14.17324 l 3.5433,35.43308 h 109.84252"
       id="path3346" />
    <g
       aria-label="timer_reg"
       id="text108"
       style="line-height:0%;font-family:Iwona;-inkscape-font-specification:Iwona;text-align:end;letter-spacing:0px;word-spacing:0px;text-anchor:end">
      <path
         d="m 151.71315,117.52585 v -0.72 c -0.384,0.384 -0.84,0.696 -1.392,0.696 -0.864,0 -0.912,-1.128 -0.912,-2.136 v -6.792 h 2.304 v -1.008 h -2.304 v -3.6 h -1.128 c 0,1.92 -1.104,3.72 -2.856,3.72 v 0.888 h 2.112 v 6.792 c 0,1.584 0.504,3.24 1.872,3.24 0.888,0 1.656,-0.48 2.304,-1.08 z"
         style="font-size:24px;line-height:1.25"
         id="path203" />
      <path
         d="m 158.74512,117.52585 v -0.72 c -0.456,0.384 -0.984,0.696 -1.584,0.696 -0.888,0 -1.056,-1.104 -1.056,-2.136 v -7.8 h -1.872 v 7.8 c 0,1.608 0.624,3.24 2.04,3.24 0.912,0 1.776,-0.456 2.472,-1.08 z m -2.4,-13.704 c 0,-0.648 -0.528,-1.176 -1.176,-1.176 -0.648,0 -1.176,0.528 -1.176,1.176 0,0.648 0.528,1.176 1.176,1.176 0.648,0 1.176,-0.528 1.176,-1.176 z"
         style="font-size:24px;line-height:1.25"
         id="path205" />
      <path
         d="m 174.2491,118.36585 v -7.8 c 0,-1.68 -0.984,-3.24 -2.544,-3.24 -1.344,0 -2.592,0.696 -3.312,1.824 -0.384,-1.056 -1.2,-1.824 -2.304,-1.824 -1.248,0 -2.256,0.864 -3.072,1.824 v -1.584 h -1.872 v 10.8 h 1.872 v -8.496 c 0.576,-0.744 1.296,-1.44 2.232,-1.44 0.984,0 1.512,1.056 1.512,2.136 v 7.8 h 1.872 v -7.8 c 0,-0.288 -0.024,-0.552 -0.072,-0.84 0.576,-0.744 1.368,-1.296 2.304,-1.296 0.984,0 1.512,1.056 1.512,2.136 v 7.8 z"
         style="font-size:24px;line-height:1.25"
         id="path207" />
      <path
         d="m 186.65706,113.20585 v -0.24 c 0,-3.384 -1.848,-5.64 -4.632,-5.64 -2.808,0 -4.656,2.256 -4.656,5.64 0,3.384 1.848,5.64 4.656,5.64 1.2,0 2.376,-0.384 3.36,-1.08 v -1.008 c -1.128,0.72 -2.04,0.984 -3.36,0.984 -2.04,0 -2.544,-1.944 -2.544,-4.296 z m -2.112,-1.008 h -5.064 c 0,-1.92 0.816,-3.864 2.544,-3.864 1.704,0 2.52,1.944 2.52,3.864 z"
         style="font-size:24px;line-height:1.25"
         id="path209" />
      <path
         d="m 195.75303,109.05385 v -1.488 c -0.264,-0.096 -0.552,-0.168 -0.816,-0.168 -1.344,0 -2.424,0.936 -3.288,1.968 v -1.8 h -1.872 v 10.8 h 1.872 v -7.992 c 0.72,-0.84 1.632,-1.56 2.736,-1.56 0.456,0 0.936,0.096 1.368,0.24 z"
         style="font-size:24px;line-height:1.25"
         id="path211" />
      <path
         d="m 208.233,121.12585 v -1.2 h -12 v 1.2 z"
         style="font-size:24px;line-height:1.25"
         id="path213" />
      <path
         d="m 216.12896,109.05385 v -1.488 c -0.264,-0.096 -0.552,-0.168 -0.816,-0.168 -1.344,0 -2.424,0.936 -3.288,1.968 v -1.8 h -1.872 v 10.8 h 1.872 v -7.992 c 0.72,-0.84 1.632,-1.56 2.736,-1.56 0.456,0 0.936,0.096 1.368,0.24 z"
         style="font-size:24px;line-height:1.25"
         id="path215" />
      <path
         d="m 227.21693,113.20585 v -0.24 c 0,-3.384 -1.848,-5.64 -4.632,-5.64 -2.808,0 -4.656,2.256 -4.656,5.64 0,3.384 1.848,5.64 4.656,5.64 1.2,0 2.376,-0.384 3.36,-1.08 v -1.008 c -1.128,0.72 -2.04,0.984 -3.36,0.984 -2.04,0 -2.544,-1.944 -2.544,-4.296 z m -2.112,-1.008 h -5.064 c 0,-1.92 0.816,-3.864 2.544,-3.864 1.704,0 2.52,1.944 2.52,3.864 z"
         style="font-size:24px;line-height:1.25"
         id="path217" />
      <path
         d="m 239.0249,119.80585 v -12.24 h -1.872 v 0.408 c -0.936,-0.408 -1.944,-0.648 -2.952,-0.648 -3,0 -4.464,2.4 -4.464,5.64 0,3.192 1.2,5.64 4.104,5.64 1.224,0 2.352,-0.552 3.312,-1.32 v 2.52 c 0,1.656 -0.912,3.216 -2.4,3.216 -1.224,0 -2.448,-0.24 -3.6,-0.648 v 0.744 c 1.344,0.624 2.832,1.008 4.32,1.008 2.112,0 3.552,-2.064 3.552,-4.32 z m -1.872,-3.528 c -0.72,0.72 -1.608,1.32 -2.64,1.32 -2.184,0 -2.664,-2.112 -2.664,-4.632 0,-2.256 0.696,-4.632 2.664,-4.632 0.912,0 1.824,0.24 2.64,0.648 z"
         style="font-size:24px;line-height:1.25"
         id="path219" />
    </g>
    <path
       id="path110"
       d="m 248.0315,88.582689 h 53.14962 l 3.54331,35.433071 h 14.17322 l 3.54331,-35.433071 h 14.17323 l 3.54331,35.433071 h 7.08661"
       style="fill:none;stroke:#000000;stroke-width:2;stroke-linecap:butt;stroke-linejoin:miter;stroke-miterlimit:4;stroke-dasharray:none;stroke-opacity:1" />
    <g
       aria-label="0"
       id="text979"
       style="font-size:15px;line-height:0%;font-family:Iwona;-inkscape-font-specification:Iwona;text-align:center;letter-spacing:0px;word-spacing:0px;text-anchor:middle">
      <path
         d="m 293.84368,106.29921 c 0,-3.555 -1.095,-5.325 -3.285,-5.325 -2.19,0 -3.285,1.77 -3.285,5.325 0,3.555 1.095,5.325 3.285,5.325 2.19,0 3.285,-1.77 3.285,-5.325 z m -1.32,0 c 0,3.135 -0.66,4.695 -1.965,4.695 -1.305,0 -1.965,-1.56 -1.965,-4.695 0,-3.135 0.66,-4.695 1.965,-4.695 1.305,0 1.965,1.56 1.965,4.695 z"
         style="line-height:1.25"
         id="path222" />
    </g>
    <g
       aria-label="1"
       id="text989"
       style="font-size:15px;line-height:0%;font-family:Iwona;-inkscape-font-specification:Iwona;text-align:center;letter-spacing:0px;word-spacing:0px;text-anchor:middle">
      <path
         d="m 312.82354,111.47421 v -10.35 h -0.87 c -0.825,0.945 -1.8,1.755 -2.88,2.385 v 0.63 c 0.915,-0.435 1.77,-0.945 2.58,-1.56 v 8.895 z"
         style="line-height:1.25"
         id="path225" />
    </g>
    <g
       aria-label="2"
       id="text993"
       style="font-size:15px;line-height:0%;font-family:Iwona;-inkscape-font-specification:Iwona;text-align:center;letter-spacing:0px;word-spacing:0px;text-anchor:middle">
      <path
         d="m 332.71509,111.54922 v -0.93 h -5.295 l 2.76,-2.73 c 1.23,-1.23 2.385,-2.67 2.385,-4.41 0,-1.47 -1.455,-2.43 -3.03,-2.43 -1.185,0 -2.31,0.54 -3.045,1.455 v 0.63 c 0.765,-0.885 1.875,-1.395 3.045,-1.395 1.005,0 1.86,0.75 1.86,1.74 0,1.485 -0.69,2.865 -1.71,3.93 l -3.345,3.435 v 0.705 z"
         style="line-height:1.25"
         id="path228" />
    </g>
    <path
       style="fill:none;stroke:#000000;stroke-width:2;stroke-linecap:butt;stroke-linejoin:miter;stroke-miterlimit:4;stroke-dasharray:none;stroke-opacity:1"
       d="m 248.0315,124.01576 h 53.14962 l 3.54331,-35.433071 h 14.17322 l 3.54331,35.433071 h 14.17323 l 3.54331,-35.433071 h 7.08661"
       id="path1021" />
    <path
       id="path985"
       d="m 364.96065,124.01576 h 7.08661 l 3.54331,-35.433071 h 14.17323 l 3.54331,35.433071 h 7.08658"
       style="fill:none;stroke:#000000;stroke-width:2;stroke-linecap:butt;stroke-linejoin:miter;stroke-miterlimit:4;stroke-dasharray:none;stroke-opacity:1" />
    <g
       aria-label="TIMER_HALF"
       transform="rotate(-77.505844)"
       id="text1001"
       style="font-size:4.99626px;line-height:0%;font-family:Iwona;-inkscape-font-specification:Iwona;text-align:center;letter-spacing:0px;word-spacing:0px;text-anchor:middle">
      <path
         d="m -33.314521,395.02404 v -0.22983 h -2.747943 v 0.22983 h 1.169125 v 3.26756 h 0.409693 v -3.26756 z"
         style="line-height:1.25"
         id="path231" />
      <path
         d="m -32.305285,398.2916 v -3.49739 h -0.409693 v 3.49739 z"
         style="line-height:1.25"
         id="path233" />
      <path
         d="m -27.633784,398.2916 -0.19985,-3.49739 h -0.329753 l -1.403949,2.95279 -1.408946,-2.95279 h -0.329753 l -0.19985,3.49739 h 0.229828 l 0.15988,-2.83288 1.353986,2.83288 h 0.184862 l 1.368975,-2.86786 0.164877,2.86786 z"
         style="line-height:1.25"
         id="path235" />
      <path
         d="m -24.336259,398.2916 v -0.22983 h -2.088437 v -1.40395 h 1.588811 v -0.22983 h -1.588811 v -1.40395 h 1.968527 v -0.22983 h -2.37822 v 3.49739 z"
         style="line-height:1.25"
         id="path237" />
      <path
         d="m -20.818893,398.2916 -1.064203,-1.58382 c 0.544592,-0.10492 0.919312,-0.4047 0.919312,-0.96428 0,-0.70447 -0.604548,-0.99925 -1.38896,-0.99925 -0.279791,0 -0.559582,0.015 -0.834376,0.05 h -0.399701 v 3.49739 h 0.409694 v -1.62379 c 0.269798,0.05 0.549588,0.0799 0.824383,0.0799 l 1.044218,1.54385 z m -0.634525,-2.5481 c 0,0.45466 -0.424682,0.77442 -0.899326,0.77442 -0.274795,0 -0.554585,-0.03 -0.824383,-0.0799 v -1.41394 c 0.274794,-0.035 0.549588,-0.05 0.824383,-0.05 0.474644,0 0.899326,0.31976 0.899326,0.76942 z"
         style="line-height:1.25"
         id="path239" />
      <path
         d="m -18.270804,398.86617 v -0.24982 h -2.49813 v 0.24982 z"
         style="line-height:1.25"
         id="path241" />
      <path
         d="m -15.023243,398.2916 v -3.49739 h -0.409694 v 1.63378 h -1.928556 v -1.63378 h -0.409693 v 3.49739 h 0.409693 v -1.63378 h 1.928556 v 1.63378 z"
         style="line-height:1.25"
         id="path243" />
      <path
         d="m -11.475909,398.2916 -1.26905,-3.49739 h -0.434675 l -1.294031,3.49739 h 0.244817 l 0.454659,-1.22409 h 1.418938 l 0.444667,1.22409 z m -0.964278,-1.45392 h -1.249065 l 0.629529,-1.70872 z"
         style="line-height:1.25"
         id="path245" />
      <path
         d="m -8.9278222,398.2916 v -0.22983 h -1.5888108 v -3.26756 h -0.409693 v 3.49739 z"
         style="line-height:1.25"
         id="path247" />
      <path
         d="m -5.9500573,395.02404 v -0.22983 h -2.3782198 v 3.49739 h 0.4096933 v -1.63378 h 1.5888108 v -0.22983 h -1.5888108 v -1.40395 z"
         style="line-height:1.25"
         id="path249" />
    </g>
    <path
       style="fill:none;stroke:#000000;stroke-width:1.99969;stroke-linecap:butt;stroke-linejoin:miter;stroke-miterlimit:4;stroke-dasharray:1.99969, 1.99969;stroke-dashoffset:0;stroke-opacity:1"
       d="m 347.24411,124.01576 h 14.17323"
       id="path1017" />
    <path
       style="fill:none;stroke:#000000;stroke-width:2;stroke-linecap:butt;stroke-linejoin:miter;stroke-miterlimit:4;stroke-dasharray:none;stroke-opacity:1"
       d="m 364.96065,88.582689 h 7.08661 l 3.54331,35.433071 h 14.17323 l 3.54331,-35.433071 h 7.08658"
       id="path1019" />
    <path
       id="path1023"
       d="m 347.24411,88.582688 h 14.17323"
       style="fill:none;stroke:#000000;stroke-width:1.99969;stroke-linecap:butt;stroke-linejoin:miter;stroke-miterlimit:4;stroke-dasharray:1.99969, 1.99969;stroke-dashoffset:0;stroke-opacity:1" />
    <path
       style="fill:none;stroke:#000000;stroke-width:2;stroke-linecap:butt;stroke-linejoin:miter;stroke-miterlimit:4;stroke-dasharray:none;stroke-opacity:1"
       d="m 418.11023,124.01576 h 7.08661 l 3.54331,-35.433071 h 14.17323 l 3.54331,35.433071 h 14.17322 l 3.54331,-35.433071 h 14.17323 l 3.54331,35.433071 h 14.17323 l 3.54331,-35.433071 h 7.08661"
       id="path1039" />
    <g
       aria-label="TIMER_MAX"
       transform="rotate(-77.505844)"
       id="text1043"
       style="font-size:5.73557px;line-height:0%;font-family:Iwona;-inkscape-font-specification:Iwona;text-align:center;letter-spacing:0px;word-spacing:0px;text-anchor:middle">
      <path
         d="m -22.616701,446.99201 v -0.26384 h -3.154563 v 0.26384 h 1.342123 v 3.75106 h 0.470317 v -3.75106 z"
         style="line-height:1.25"
         id="path252" />
      <path
         d="m -21.458125,450.74307 v -4.0149 h -0.470317 v 4.0149 z"
         style="line-height:1.25"
         id="path254" />
      <path
         d="m -16.09537,450.74307 -0.229423,-4.0149 h -0.378547 l -1.611695,3.38973 -1.617431,-3.38973 h -0.378548 l -0.229422,4.0149 h 0.263836 l 0.183538,-3.25207 1.554339,3.25207 h 0.212217 l 1.571546,-3.29221 0.189273,3.29221 z"
         style="line-height:1.25"
         id="path256" />
      <path
         d="m -12.309902,450.74307 v -0.26383 h -2.397468 v -1.6117 h 1.823911 v -0.26384 h -1.823911 v -1.61169 h 2.259814 v -0.26384 h -2.730131 v 4.0149 z"
         style="line-height:1.25"
         id="path258" />
      <path
         d="m -8.2720614,450.74307 -1.2216764,-1.81817 c 0.6251771,-0.12045 1.0553449,-0.46458 1.0553449,-1.10697 0,-0.80871 -0.694004,-1.14711 -1.5944881,-1.14711 -0.321192,0 -0.642384,0.0172 -0.957841,0.0573 h -0.458845 v 4.0149 h 0.470317 v -1.86406 c 0.30972,0.0574 0.630912,0.0918 0.946369,0.0918 l 1.1987338,1.77229 z m -0.7284174,-2.92514 c 0,0.52194 -0.4875234,0.88902 -1.0324022,0.88902 -0.315457,0 -0.636649,-0.0344 -0.946369,-0.0918 v -1.62317 c 0.315456,-0.0401 0.630912,-0.0574 0.946369,-0.0574 0.5448788,0 1.0324022,0.36708 1.0324022,0.88328 z"
         style="line-height:1.25"
         id="path260" />
      <path
         d="m -5.3469239,451.40266 v -0.28678 h -2.867785 v 0.28678 z"
         style="line-height:1.25"
         id="path262" />
      <path
         d="m -0.55773493,450.74307 -0.2294228,-4.0149 H -1.1657053 l -1.6116952,3.38973 -1.6174307,-3.38973 h -0.3785476 l -0.2294228,4.0149 h 0.2638362 l 0.1835382,-3.25207 1.5543395,3.25207 h 0.2122161 l 1.5715461,-3.29221 0.1892738,3.29221 z"
         style="line-height:1.25"
         id="path264" />
      <path
         d="m 3.2850893,450.74307 -1.4568348,-4.0149 H 1.32926 l -1.48551266,4.0149 h 0.28104293 l 0.52193687,-1.40521 H 2.275629 l 0.5104657,1.40521 z m -1.106965,-1.66905 H 0.74423183 l 0.72268177,-1.96156 z"
         style="line-height:1.25"
         id="path266" />
      <path
         d="m 6.8870213,450.74307 -1.4510992,-2.17951 1.3134455,-1.83539 H 6.4224402 l -1.1413785,1.60023 -1.066816,-1.60023 H 3.6521599 l 1.3134455,1.97878 -1.4510992,2.03612 h 0.3269275 l 1.2847676,-1.80097 1.1987342,1.80097 z"
         style="line-height:1.25"
         id="path268" />
    </g>
    <g
       aria-label="0"
       id="text1047"
       style="font-size:15px;line-height:0%;font-family:Iwona;-inkscape-font-specification:Iwona;text-align:center;letter-spacing:0px;word-spacing:0px;text-anchor:middle">
      <path
         d="m 457.54745,106.29921 c 0,-3.555 -1.095,-5.325 -3.285,-5.325 -2.19,0 -3.285,1.77 -3.285,5.325 0,3.555 1.095,5.325 3.285,5.325 2.19,0 3.285,-1.77 3.285,-5.325 z m -1.32,0 c 0,3.135 -0.66,4.695 -1.965,4.695 -1.305,0 -1.965,-1.56 -1.965,-4.695 0,-3.135 0.66,-4.695 1.965,-4.695 1.305,0 1.965,1.56 1.965,4.695 z"
         style="line-height:1.25"
         id="path271" />
    </g>
    <g
       aria-label="1"
       id="text1051"
       style="font-size:15px;line-height:0%;font-family:Iwona;-inkscape-font-specification:Iwona;text-align:center;letter-spacing:0px;word-spacing:0px;text-anchor:middle">
      <path
         d="m 472.98397,111.47421 v -10.35 h -0.87 c -0.825,0.945 -1.8,1.755 -2.88,2.385 v 0.63 c 0.915,-0.435 1.77,-0.945 2.58,-1.56 v 8.895 z"
         style="line-height:1.25"
         id="path274" />
    </g>
    <g
       aria-label="2"
       id="text1055"
       style="font-size:15px;line-height:0%;font-family:Iwona;-inkscape-font-specification:Iwona;text-align:center;letter-spacing:0px;word-spacing:0px;text-anchor:middle">
      <path
         d="m 492.16388,111.54922 v -0.93 h -5.295 l 2.76,-2.73 c 1.23,-1.23 2.385,-2.67 2.385,-4.41 0,-1.47 -1.455,-2.43 -3.03,-2.43 -1.185,0 -2.31,0.54 -3.045,1.455 v 0.63 c 0.765,-0.885 1.875,-1.395 3.045,-1.395 1.005,0 1.86,0.75 1.86,1.74 0,1.485 -0.69,2.865 -1.71,3.93 l -3.345,3.435 v 0.705 z"
         style="line-height:1.25"
         id="path277" />
    </g>
    <path
       id="path1057"
       d="m 400.39369,124.01576 h 14.17323"
       style="fill:none;stroke:#000000;stroke-width:1.99969;stroke-linecap:butt;stroke-linejoin:miter;stroke-miterlimit:4;stroke-dasharray:1.99969, 1.99969;stroke-dashoffset:0;stroke-opacity:1" />
    <path
       id="path1059"
       d="m 418.11023,88.582689 h 7.08661 l 3.54331,35.433071 h 14.17323 l 3.54331,-35.433071 h 14.17322 l 3.54331,35.433071 h 14.17323 l 3.54331,-35.433071 h 14.17323 l 3.54331,35.433071 h 7.08661"
       style="fill:none;stroke:#000000;stroke-width:2;stroke-linecap:butt;stroke-linejoin:miter;stroke-miterlimit:4;stroke-dasharray:none;stroke-opacity:1" />
    <path
       style="fill:none;stroke:#000000;stroke-width:1.99969;stroke-linecap:butt;stroke-linejoin:miter;stroke-miterlimit:4;stroke-dasharray:1.99969, 1.99969;stroke-dashoffset:0;stroke-opacity:1"
       d="m 400.39369,88.582688 h 14.17323"
       id="path1061" />
    <g
       aria-label="sclk_o"
       id="text1223"
       style="line-height:0%;font-family:Iwona;-inkscape-font-specification:Iwona;text-align:end;letter-spacing:0px;word-spacing:0px;text-anchor:end">
      <path
         d="m 187.28105,273.30599 c 0,-1.896 -2.016,-2.88 -3.984,-3.36 -1.152,-0.288 -2.4,-0.768 -2.4,-1.896 0,-1.032 1.056,-1.704 2.208,-1.704 1.272,0 2.544,0.384 3.6,1.08 v -1.008 c -1.056,-0.696 -2.328,-1.08 -3.6,-1.08 -2.088,0 -4.008,1.272 -4.008,3.216 0,1.752 1.944,2.568 3.792,3.024 1.272,0.312 2.592,0.984 2.592,2.208 0,1.128 -1.152,1.824 -2.376,1.824 -1.488,0 -2.928,-0.36 -4.2,-1.08 v 1.008 c 1.272,0.72 2.712,1.08 4.2,1.08 2.16,0 4.176,-1.296 4.176,-3.312 z"
         style="font-size:24px;line-height:1.25"
         id="path280" />
      <path
         d="m 198.05702,268.07399 v -1.008 c -0.768,-1.08 -2.016,-1.728 -3.36,-1.728 -3,0 -5.016,2.256 -5.016,5.64 0,3.384 2.016,5.64 5.016,5.64 1.248,0 2.424,-0.624 3.12,-1.656 v -1.008 c -0.816,1.224 -1.656,1.656 -3.12,1.656 -1.728,0 -2.904,-1.848 -2.904,-4.632 0,-2.784 1.176,-4.632 2.904,-4.632 1.488,0 2.496,0.528 3.36,1.728 z"
         style="font-size:24px;line-height:1.25"
         id="path282" />
      <path
         d="m 205.089,275.53799 v -0.72 c -0.456,0.384 -0.984,0.696 -1.584,0.696 -0.888,0 -1.056,-1.104 -1.056,-2.136 v -13.8 h -1.872 v 13.8 c 0,1.608 0.624,3.24 2.04,3.24 0.912,0 1.776,-0.456 2.472,-1.08 z"
         style="font-size:24px;line-height:1.25"
         id="path284" />
      <path
         d="m 216.77695,276.37799 -5.568,-6.408 5.376,-4.392 h -1.488 l -5.736,4.704 v -10.704 h -1.872 v 16.8 h 1.872 v -5.976 l 5.184,5.976 z"
         style="font-size:24px;line-height:1.25"
         id="path286" />
      <path
         d="m 229.01694,279.13799 v -1.2 h -12 v 1.2 z"
         style="font-size:24px;line-height:1.25"
         id="path288" />
      <path
         d="m 239.62489,270.97799 c 0,-3.672 -1.632,-5.64 -4.632,-5.64 -3.024,0 -4.656,1.968 -4.656,5.64 0,3.672 1.632,5.64 4.656,5.64 3,0 4.632,-1.968 4.632,-5.64 z m -2.112,0 c 0,3 -0.888,4.632 -2.52,4.632 -1.656,0 -2.544,-1.632 -2.544,-4.632 0,-3 0.888,-4.632 2.544,-4.632 1.632,0 2.52,1.632 2.52,4.632 z"
         style="font-size:24px;line-height:1.25"
         id="path290" />
    </g>
    <path
       id="path1261"
       d="m 248.0315,283.46459 h 141.73229 l 3.54331,-35.43307 h 49.60628 l 3.54331,35.43307 H 549.2126 l 3.54331,-35.43307 h 49.60629 l 3.54331,35.43307 h 102.75591 l 3.5433,-35.43307 h 49.60631 l 3.54331,35.43307 h 102.7559 l 3.5433,-35.43307 h 49.60632 l 3.5433,35.43307 60.23622,-10e-6"
       style="fill:none;stroke:#000000;stroke-width:2;stroke-linecap:butt;stroke-linejoin:miter;stroke-miterlimit:4;stroke-dasharray:none;stroke-opacity:1" />
    <g
       aria-label="clk_i"
       id="text1793"
       style="line-height:0%;font-family:Iwona;-inkscape-font-specification:Iwona;text-align:end;letter-spacing:0px;word-spacing:0px;text-anchor:end">
      <path
         d="m 203.19304,2.3259505 v -1.008 c -0.768,-1.07999998 -2.016,-1.72799998 -3.36,-1.72799998 -3,0 -5.016,2.25599998 -5.016,5.63999998 0,3.384 2.016,5.6400005 5.016,5.6400005 1.248,0 2.424,-0.624 3.12,-1.6560005 v -1.008 c -0.816,1.224 -1.656,1.656 -3.12,1.656 -1.728,0 -2.904,-1.848 -2.904,-4.632 0,-2.784 1.176,-4.63199998 2.904,-4.63199998 1.488,0 2.496,0.52799998 3.36,1.72799998 z"
         style="font-size:24px;line-height:1.25"
         id="path293" />
      <path
         d="m 210.22501,9.7899505 v -0.72 c -0.456,0.384 -0.984,0.696 -1.584,0.696 -0.888,0 -1.056,-1.104 -1.056,-2.136 v -13.8 h -1.872 v 13.8 c 0,1.608 0.624,3.2400005 2.04,3.2400005 0.912,0 1.776,-0.456 2.472,-1.0800005 z"
         style="font-size:24px;line-height:1.25"
         id="path295" />
      <path
         d="m 221.91297,10.629951 -5.568,-6.4080005 5.376,-4.39199998 h -1.488 l -5.736,4.70399998 v -10.704 h -1.872 V 10.629951 h 1.872 V 4.6539505 l 5.184,5.9760005 z"
         style="font-size:24px;line-height:1.25"
         id="path297" />
      <path
         d="m 234.15295,13.389951 v -1.2 h -12 v 1.2 z"
         style="font-size:24px;line-height:1.25"
         id="path299" />
      <path
         d="m 240.46491,9.7899505 v -0.72 c -0.456,0.384 -0.984,0.696 -1.584,0.696 -0.888,0 -1.056,-1.104 -1.056,-2.136 v -7.79999998 h -1.872 V 7.6299505 c 0,1.608 0.624,3.2400005 2.04,3.2400005 0.912,0 1.776,-0.456 2.472,-1.0800005 z m -2.4,-13.704 c 0,-0.648 -0.528,-1.176 -1.176,-1.176 -0.648,0 -1.176,0.528 -1.176,1.176 0,0.648 0.528,1.176 1.176,1.176 0.648,0 1.176,-0.528 1.176,-1.176 z"
         style="font-size:24px;line-height:1.25"
         id="path301" />
    </g>
    <path
       style="fill:none;stroke:#000000;stroke-width:1.875;stroke-linecap:butt;stroke-linejoin:miter;stroke-miterlimit:4;stroke-dasharray:none;stroke-opacity:1"
       d="m 248.03151,-17.716542 h 8.8582 v 35.43307 h 8.8583 v -35.43307 h 8.8582 l 4e-5,35.433079 8.85831,9e-6 v -35.43307 h 8.85827 v 35.43307 h 8.85826 v -35.43307 h 8.85827 v 35.43307 h 8.85827 v -35.43307 h 8.85827 v 35.43307 h 8.85826 v -35.43307 h 8.85827 v 35.43307 h 8.85827 v -35.43307 h 8.85827 v 35.43307 h 8.85826 v -35.43307 h 8.85827 v 35.43307 h 8.85827 v -35.43307 h 8.85827 v 35.43307 h 8.85826 v -35.43307 h 8.85827 v 35.43307 h 8.85827 v -35.43307 h 8.85827 v 35.43307 h 8.85826 v -35.43307 h 8.85827 v 35.43307 h 8.85827 v -35.43307 h 8.85827 v 35.43307 h 8.85826 v -35.43307 h 8.85827 v 35.43307 h 8.85827 v -35.43307 h 8.85827 v 35.43307 h 8.85826 v -35.43307 h 8.85827 v 35.43307 h 8.85827 v -35.43307 h 8.85827 v 35.43307 h 8.85826 v -35.43307 h 8.85827 l -10e-6,35.43307 h 8.85829 v -35.43307 h 8.8582 v 35.43307 h 8.8583 v -35.43307 h 8.8583 v 35.43307 h 8.8582 v -35.43307 h 8.8583 v 35.43307 h 8.8583 v -35.43307 h 8.8582 v 35.43307 h 8.8583 v -35.43307 h 8.85829 v 35.43307 h 8.85821 v -35.43307 h 8.8583 v 35.43307 h 8.8583 v -35.43307 h 8.8582 v 35.43307 h 8.8583 v -35.43307 h 8.8583 v 35.43307 h 8.8582 v -35.43307 h 8.8583 v 35.43307 h 8.8583 v -35.43307 h 8.8582 v 35.43307 h 8.8583 v -35.43307 h 8.8583 v 35.43307 h 8.8582 v -35.43307 h 8.8583 v 35.43307 h 8.8583 v -35.43307 h 8.8583 v 35.43307 h 8.8582 v -35.43307 h 8.85832 v 35.43307 h 8.8583 v -35.43307 h 8.85819 v 35.43307 h 8.85831 v -35.43307 h 8.8583 l -3e-5,35.43307 h 8.85825 v -35.43307 h 8.85827 v 35.43307 h 8.8583 v -35.43307 h 8.8582 v 35.43307 h 8.8583 v -35.43307 h 8.8583 v 35.43307 h 8.8582 v -35.43307 h 8.8583 v 35.43307 h 8.8583 v -35.43307 h 8.8582 v 35.43307 h 8.8583 v -35.43307 h 8.8583 v 35.43307 h 8.8582 v -35.43307 h 8.85829 v 35.43307 h 8.85831 v -35.43307 h 8.8582"
       id="path3032" />
    <path
       style="fill:none;stroke:#000000;stroke-width:2;stroke-linecap:butt;stroke-linejoin:miter;stroke-miterlimit:4;stroke-dasharray:none;stroke-opacity:1"
       d="m 524.40945,124.01576 h 7.08661 l 3.54331,-35.433071 h 14.17323 l 3.54331,35.433071 h 7.08658"
       id="path3159" />
    <g
       aria-label="TIMER_HALF"
       transform="rotate(-77.505844)"
       id="text3163"
       style="font-size:4.99626px;line-height:0%;font-family:Iwona;-inkscape-font-specification:Iwona;text-align:center;letter-spacing:0px;word-spacing:0px;text-anchor:middle">
      <path
         d="m 1.1806383,550.69674 v -0.22983 h -2.7479431 v 0.22983 h 1.16912492 v 3.26755 h 0.40969333 v -3.26755 z"
         style="line-height:1.25"
         id="path304" />
      <path
         d="m 2.189874,553.96429 v -3.49738 H 1.7801807 v 3.49738 z"
         style="line-height:1.25"
         id="path306" />
      <path
         d="M 6.8613753,553.96429 6.6615249,550.46691 H 6.3317718 L 4.9278227,553.4197 3.5188773,550.46691 H 3.1891241 l -0.1998504,3.49738 h 0.229828 l 0.1598803,-2.83288 1.3539865,2.83288 h 0.1848616 l 1.3689753,-2.86785 0.1648766,2.86785 z"
         style="line-height:1.25"
         id="path308" />
      <path
         d="m 10.1589,553.96429 v -0.22982 H 8.0704633 v -1.40395 H 9.659274 v -0.22983 H 8.0704633 v -1.40395 H 10.03899 v -0.22983 H 7.66077 v 3.49738 z"
         style="line-height:1.25"
         id="path310" />
      <path
         d="m 13.676267,553.96429 -1.064204,-1.58381 c 0.544593,-0.10492 0.919312,-0.4047 0.919312,-0.96428 0,-0.70447 -0.604547,-0.99925 -1.38896,-0.99925 -0.279791,0 -0.559581,0.015 -0.834376,0.05 h -0.399701 v 3.49738 h 0.409694 v -1.62378 c 0.269798,0.05 0.549588,0.0799 0.824383,0.0799 l 1.044218,1.54384 z m -0.634525,-2.54809 c 0,0.45466 -0.424683,0.77442 -0.899327,0.77442 -0.274795,0 -0.554585,-0.03 -0.824383,-0.0799 v -1.41394 c 0.274794,-0.035 0.549588,-0.05 0.824383,-0.05 0.474644,0 0.899327,0.31976 0.899327,0.76942 z"
         style="line-height:1.25"
         id="path312" />
      <path
         d="m 16.224356,554.53886 v -0.24981 h -2.49813 v 0.24981 z"
         style="line-height:1.25"
         id="path314" />
      <path
         d="m 19.471916,553.96429 v -3.49738 h -0.409693 v 1.63378 h -1.928557 v -1.63378 h -0.409693 v 3.49738 h 0.409693 v -1.63377 h 1.928557 v 1.63377 z"
         style="line-height:1.25"
         id="path316" />
      <path
         d="m 23.01925,553.96429 -1.26905,-3.49738 h -0.434674 l -1.294032,3.49738 h 0.244817 l 0.45466,-1.22408 h 1.418937 l 0.444668,1.22408 z m -0.964278,-1.45391 h -1.249065 l 0.629529,-1.70872 z"
         style="line-height:1.25"
         id="path318" />
      <path
         d="m 25.567337,553.96429 v -0.22982 h -1.588811 v -3.26756 h -0.409693 v 3.49738 z"
         style="line-height:1.25"
         id="path320" />
      <path
         d="m 28.545102,550.69674 v -0.22983 h -2.37822 v 3.49738 h 0.409693 v -1.63377 h 1.588811 v -0.22983 h -1.588811 v -1.40395 z"
         style="line-height:1.25"
         id="path322" />
    </g>
    <path
       id="path3165"
       d="m 506.69291,124.01576 h 14.17323"
       style="fill:none;stroke:#000000;stroke-width:1.99969;stroke-linecap:butt;stroke-linejoin:miter;stroke-miterlimit:4;stroke-dasharray:1.99969, 1.99969;stroke-dashoffset:0;stroke-opacity:1" />
    <path
       id="path3167"
       d="m 524.40945,88.582689 h 7.08661 l 3.54331,35.433071 h 14.17323 l 3.54331,-35.433071 h 7.08658"
       style="fill:none;stroke:#000000;stroke-width:2;stroke-linecap:butt;stroke-linejoin:miter;stroke-miterlimit:4;stroke-dasharray:none;stroke-opacity:1" />
    <path
       style="fill:none;stroke:#000000;stroke-width:1.99969;stroke-linecap:butt;stroke-linejoin:miter;stroke-miterlimit:4;stroke-dasharray:1.99969, 1.99969;stroke-dashoffset:0;stroke-opacity:1"
       d="m 506.69291,88.582688 h 14.17323"
       id="path3169" />
    <path
       id="path3171"
       d="m 577.55903,124.01576 h 7.08661 l 3.54331,-35.433071 h 14.17323 l 3.54331,35.433071 h 14.17322 l 3.54331,-35.433071 h 14.17323 l 3.54331,35.433071 h 14.17323 l 3.54331,-35.433071 h 7.08661"
       style="fill:none;stroke:#000000;stroke-width:2;stroke-linecap:butt;stroke-linejoin:miter;stroke-miterlimit:4;stroke-dasharray:none;stroke-opacity:1" />
    <g
       aria-label="TIMER_MAX"
       transform="rotate(-77.505844)"
       id="text3175"
       style="font-size:5.73557px;line-height:0%;font-family:Iwona;-inkscape-font-specification:Iwona;text-align:center;letter-spacing:0px;word-spacing:0px;text-anchor:middle">
      <path
         d="m 11.878454,602.66471 v -0.26384 H 8.7238903 v 0.26384 h 1.3421237 v 3.75106 h 0.470316 v -3.75106 z"
         style="line-height:1.25"
         id="path325" />
      <path
         d="m 13.037029,606.41577 v -4.0149 h -0.470317 v 4.0149 z"
         style="line-height:1.25"
         id="path327" />
      <path
         d="m 18.399785,606.41577 -0.229423,-4.0149 h -0.378548 l -1.611695,3.38972 -1.617431,-3.38972 h -0.378547 l -0.229423,4.0149 h 0.263836 l 0.183538,-3.25207 1.55434,3.25207 h 0.212216 l 1.571546,-3.29222 0.189274,3.29222 z"
         style="line-height:1.25"
         id="path329" />
      <path
         d="m 22.185252,606.41577 v -0.26383 h -2.397468 v -1.6117 h 1.823911 v -0.26384 h -1.823911 v -1.61169 h 2.259815 v -0.26384 h -2.730132 v 4.0149 z"
         style="line-height:1.25"
         id="path331" />
      <path
         d="m 26.223093,606.41577 -1.221676,-1.81817 c 0.625177,-0.12045 1.055344,-0.46459 1.055344,-1.10697 0,-0.80871 -0.694003,-1.14711 -1.594488,-1.14711 -0.321192,0 -0.642384,0.0172 -0.95784,0.0574 h -0.458846 v 4.0149 h 0.470317 v -1.86406 c 0.309721,0.0574 0.630913,0.0918 0.946369,0.0918 l 1.198734,1.77229 z m -0.728417,-2.92514 c 0,0.52194 -0.487524,0.88901 -1.032403,0.88901 -0.315456,0 -0.636648,-0.0344 -0.946369,-0.0918 v -1.62317 c 0.315456,-0.0402 0.630913,-0.0574 0.946369,-0.0574 0.544879,0 1.032403,0.36708 1.032403,0.88328 z"
         style="line-height:1.25"
         id="path333" />
      <path
         d="m 29.14823,607.07536 v -0.28678 h -2.867785 v 0.28678 z"
         style="line-height:1.25"
         id="path335" />
      <path
         d="m 33.937419,606.41577 -0.229422,-4.0149 h -0.378548 l -1.611695,3.38972 -1.617431,-3.38972 h -0.378547 l -0.229423,4.0149 h 0.263836 l 0.183538,-3.25207 1.55434,3.25207 h 0.212216 l 1.571546,-3.29222 0.189274,3.29222 z"
         style="line-height:1.25"
         id="path337" />
      <path
         d="m 37.780244,606.41577 -1.456835,-4.0149 h -0.498995 l -1.485512,4.0149 h 0.281043 l 0.521937,-1.40521 h 1.628901 l 0.510466,1.40521 z m -1.106965,-1.66905 h -1.433893 l 0.722682,-1.96156 z"
         style="line-height:1.25"
         id="path339" />
      <path
         d="m 41.382176,606.41577 -1.4511,-2.17952 1.313446,-1.83538 h -0.326927 l -1.141379,1.60023 -1.066816,-1.60023 h -0.562086 l 1.313446,1.97877 -1.451099,2.03613 h 0.326927 l 1.284768,-1.80097 1.198734,1.80097 z"
         style="line-height:1.25"
         id="path341" />
    </g>
    <g
       aria-label="0"
       id="text3179"
       style="font-size:15px;line-height:0%;font-family:Iwona;-inkscape-font-specification:Iwona;text-align:center;letter-spacing:0px;word-spacing:0px;text-anchor:middle">
      <path
         d="m 616.99624,106.29921 c 0,-3.555 -1.095,-5.325 -3.285,-5.325 -2.19,0 -3.285,1.77 -3.285,5.325 0,3.555 1.095,5.325 3.285,5.325 2.19,0 3.285,-1.77 3.285,-5.325 z m -1.32,0 c 0,3.135 -0.66,4.695 -1.965,4.695 -1.305,0 -1.965,-1.56 -1.965,-4.695 0,-3.135 0.66,-4.695 1.965,-4.695 1.305,0 1.965,1.56 1.965,4.695 z"
         style="line-height:1.25"
         id="path344" />
    </g>
    <g
       aria-label="1"
       id="text3183"
       style="font-size:15px;line-height:0%;font-family:Iwona;-inkscape-font-specification:Iwona;text-align:center;letter-spacing:0px;word-spacing:0px;text-anchor:middle">
      <path
         d="m 632.43273,111.47421 v -10.35 h -0.87 c -0.825,0.945 -1.8,1.755 -2.88,2.385 v 0.63 c 0.915,-0.435 1.77,-0.945 2.58,-1.56 v 8.895 z"
         style="line-height:1.25"
         id="path347" />
    </g>
    <g
       aria-label="2"
       id="text3187"
       style="font-size:15px;line-height:0%;font-family:Iwona;-inkscape-font-specification:Iwona;text-align:center;letter-spacing:0px;word-spacing:0px;text-anchor:middle">
      <path
         d="m 651.61267,111.54922 v -0.93 h -5.295 l 2.76,-2.73 c 1.23,-1.23 2.385,-2.67 2.385,-4.41 0,-1.47 -1.455,-2.43 -3.03,-2.43 -1.185,0 -2.31,0.54 -3.045,1.455 v 0.63 c 0.765,-0.885 1.875,-1.395 3.045,-1.395 1.005,0 1.86,0.75 1.86,1.74 0,1.485 -0.69,2.865 -1.71,3.93 l -3.345,3.435 v 0.705 z"
         style="line-height:1.25"
         id="path350" />
    </g>
    <path
       style="fill:none;stroke:#000000;stroke-width:1.99969;stroke-linecap:butt;stroke-linejoin:miter;stroke-miterlimit:4;stroke-dasharray:1.99969, 1.99969;stroke-dashoffset:0;stroke-opacity:1"
       d="m 559.84249,124.01576 h 14.17323"
       id="path3189" />
    <path
       style="fill:none;stroke:#000000;stroke-width:2;stroke-linecap:butt;stroke-linejoin:miter;stroke-miterlimit:4;stroke-dasharray:none;stroke-opacity:1"
       d="m 577.55903,88.582689 h 7.08661 l 3.54331,35.433071 h 14.17323 l 3.54331,-35.433071 h 14.17322 l 3.54331,35.433071 h 14.17323 l 3.54331,-35.433071 h 14.17323 l 3.54331,35.433071 h 7.08661"
       id="path3191" />
    <path
       id="path3193"
       d="m 559.84249,88.582688 h 14.17323"
       style="fill:none;stroke:#000000;stroke-width:1.99969;stroke-linecap:butt;stroke-linejoin:miter;stroke-miterlimit:4;stroke-dasharray:1.99969, 1.99969;stroke-dashoffset:0;stroke-opacity:1" />
    <path
       id="path3195"
       d="m 683.85827,124.01576 h 7.08661 l 3.54331,-35.433071 h 14.17323 l 3.54331,35.433071 h 7.08658"
       style="fill:none;stroke:#000000;stroke-width:2;stroke-linecap:butt;stroke-linejoin:miter;stroke-miterlimit:4;stroke-dasharray:none;stroke-opacity:1" />
    <g
       aria-label="TIMER_HALF"
       transform="rotate(-77.505844)"
       id="text3199"
       style="font-size:4.99626px;line-height:0%;font-family:Iwona;-inkscape-font-specification:Iwona;text-align:center;letter-spacing:0px;word-spacing:0px;text-anchor:middle">
      <path
         d="M 35.675803,706.36953 V 706.1397 H 32.92786 v 0.22983 h 1.169125 v 3.26755 h 0.409693 v -3.26755 z"
         style="line-height:1.25"
         id="path353" />
      <path
         d="m 36.685039,709.63708 v -3.49738 h -0.409693 v 3.49738 z"
         style="line-height:1.25"
         id="path355" />
      <path
         d="m 41.35654,709.63708 -0.19985,-3.49738 h -0.329753 l -1.403949,2.95279 -1.408946,-2.95279 h -0.329753 l -0.19985,3.49738 h 0.229828 l 0.15988,-2.83287 1.353986,2.83287 h 0.184862 l 1.368975,-2.86785 0.164877,2.86785 z"
         style="line-height:1.25"
         id="path357" />
      <path
         d="m 44.654065,709.63708 v -0.22982 h -2.088437 v -1.40395 h 1.588811 v -0.22983 h -1.588811 v -1.40395 h 1.968527 v -0.22983 h -2.37822 v 3.49738 z"
         style="line-height:1.25"
         id="path359" />
      <path
         d="m 48.171431,709.63708 -1.064203,-1.58381 c 0.544592,-0.10492 0.919312,-0.4047 0.919312,-0.96428 0,-0.70447 -0.604548,-0.99925 -1.38896,-0.99925 -0.279791,0 -0.559582,0.015 -0.834376,0.05 h -0.399701 v 3.49738 h 0.409694 v -1.62378 c 0.269798,0.05 0.549588,0.0799 0.824383,0.0799 l 1.044218,1.54384 z m -0.634525,-2.54809 c 0,0.45466 -0.424682,0.77442 -0.899326,0.77442 -0.274795,0 -0.554585,-0.03 -0.824383,-0.0799 v -1.41394 c 0.274794,-0.035 0.549588,-0.05 0.824383,-0.05 0.474644,0 0.899326,0.31976 0.899326,0.76942 z"
         style="line-height:1.25"
         id="path361" />
      <path
         d="m 50.71952,710.21165 v -0.24981 h -2.49813 v 0.24981 z"
         style="line-height:1.25"
         id="path363" />
      <path
         d="m 53.967081,709.63708 v -3.49738 h -0.409694 v 1.63378 h -1.928556 v -1.63378 h -0.409693 v 3.49738 h 0.409693 v -1.63377 h 1.928556 v 1.63377 z"
         style="line-height:1.25"
         id="path365" />
      <path
         d="m 57.514415,709.63708 -1.26905,-3.49738 H 55.81069 l -1.294031,3.49738 h 0.244817 l 0.454659,-1.22408 h 1.418938 l 0.444667,1.22408 z m -0.964278,-1.45391 h -1.249065 l 0.629529,-1.70872 z"
         style="line-height:1.25"
         id="path367" />
      <path
         d="m 60.062502,709.63708 v -0.22982 h -1.588811 v -3.26756 h -0.409693 v 3.49738 z"
         style="line-height:1.25"
         id="path369" />
      <path
         d="m 63.040267,706.36953 v -0.22983 h -2.37822 v 3.49738 h 0.409693 v -1.63377 h 1.588811 v -0.22983 H 61.07174 v -1.40395 z"
         style="line-height:1.25"
         id="path371" />
    </g>
    <path
       style="fill:none;stroke:#000000;stroke-width:1.99969;stroke-linecap:butt;stroke-linejoin:miter;stroke-miterlimit:4;stroke-dasharray:1.99969, 1.99969;stroke-dashoffset:0;stroke-opacity:1"
       d="m 666.14173,124.01576 h 14.17323"
       id="path3201" />
    <path
       style="fill:none;stroke:#000000;stroke-width:2;stroke-linecap:butt;stroke-linejoin:miter;stroke-miterlimit:4;stroke-dasharray:none;stroke-opacity:1"
       d="m 683.85827,88.582689 h 7.08661 l 3.54331,35.433071 h 14.17323 l 3.54331,-35.433071 h 7.08658"
       id="path3203" />
    <path
       id="path3205"
       d="m 666.14173,88.582688 h 14.17323"
       style="fill:none;stroke:#000000;stroke-width:1.99969;stroke-linecap:butt;stroke-linejoin:miter;stroke-miterlimit:4;stroke-dasharray:1.99969, 1.99969;stroke-dashoffset:0;stroke-opacity:1" />
    <path
       style="fill:none;stroke:#000000;stroke-width:2;stroke-linecap:butt;stroke-linejoin:miter;stroke-miterlimit:4;stroke-dasharray:none;stroke-opacity:1"
       d="m 737.00785,124.01576 h 7.08661 l 3.54331,-35.433071 H 761.811 l 3.54331,35.433071 h 14.17322 l 3.54331,-35.433071 h 14.17323 l 3.54331,35.433071 h 14.17323 l 3.54331,-35.433071 h 7.08661"
       id="path3207" />
    <g
       aria-label="TIMER_MAX"
       transform="rotate(-77.505844)"
       id="text3211"
       style="font-size:5.73557px;line-height:0%;font-family:Iwona;-inkscape-font-specification:Iwona;text-align:center;letter-spacing:0px;word-spacing:0px;text-anchor:middle">
      <path
         d="m 46.373621,758.3375 v -0.26384 h -3.154564 v 0.26384 h 1.342123 v 3.75106 h 0.470317 v -3.75106 z"
         style="line-height:1.25"
         id="path374" />
      <path
         d="m 47.532196,762.08856 v -4.0149 h -0.470317 v 4.0149 z"
         style="line-height:1.25"
         id="path376" />
      <path
         d="m 52.894951,762.08856 -0.229422,-4.0149 h -0.378548 l -1.611695,3.38972 -1.617431,-3.38972 h -0.378548 l -0.229422,4.0149 h 0.263836 l 0.183538,-3.25207 1.55434,3.25207 h 0.212216 l 1.571546,-3.29222 0.189274,3.29222 z"
         style="line-height:1.25"
         id="path378" />
      <path
         d="m 56.680419,762.08856 v -0.26383 h -2.397468 v -1.6117 h 1.823911 v -0.26384 h -1.823911 v -1.61169 h 2.259814 v -0.26384 h -2.730131 v 4.0149 z"
         style="line-height:1.25"
         id="path380" />
      <path
         d="m 60.71826,762.08856 -1.221677,-1.81817 c 0.625178,-0.12045 1.055345,-0.46458 1.055345,-1.10697 0,-0.80871 -0.694004,-1.14711 -1.594488,-1.14711 -0.321192,0 -0.642384,0.0172 -0.95784,0.0574 h -0.458846 v 4.0149 h 0.470317 v -1.86406 c 0.309721,0.0574 0.630912,0.0918 0.946369,0.0918 l 1.198734,1.77229 z m -0.728418,-2.92514 c 0,0.52194 -0.487523,0.88901 -1.032402,0.88901 -0.315457,0 -0.636648,-0.0344 -0.946369,-0.0918 v -1.62317 c 0.315456,-0.0401 0.630912,-0.0574 0.946369,-0.0574 0.544879,0 1.032402,0.36708 1.032402,0.88328 z"
         style="line-height:1.25"
         id="path382" />
      <path
         d="m 63.643397,762.74815 v -0.28678 h -2.867785 v 0.28678 z"
         style="line-height:1.25"
         id="path384" />
      <path
         d="m 68.432586,762.08856 -0.229423,-4.0149 h -0.378547 l -1.611695,3.38972 -1.617431,-3.38972 h -0.378548 l -0.229422,4.0149 h 0.263836 l 0.183538,-3.25207 1.554339,3.25207 h 0.212217 l 1.571546,-3.29222 0.189273,3.29222 z"
         style="line-height:1.25"
         id="path386" />
      <path
         d="m 72.27541,762.08856 -1.456834,-4.0149 h -0.498995 l -1.485512,4.0149 h 0.281042 l 0.521937,-1.40521 h 1.628902 l 0.510466,1.40521 z m -1.106965,-1.66905 h -1.433892 l 0.722682,-1.96156 z"
         style="line-height:1.25"
         id="path388" />
      <path
         d="m 75.877342,762.08856 -1.451099,-2.17951 1.313446,-1.83539 h -0.326928 l -1.141378,1.60023 -1.066816,-1.60023 h -0.562086 l 1.313446,1.97877 -1.4511,2.03613 h 0.326928 l 1.284767,-1.80097 1.198735,1.80097 z"
         style="line-height:1.25"
         id="path390" />
    </g>
    <g
       aria-label="0"
       id="text3215"
       style="font-size:15px;line-height:0%;font-family:Iwona;-inkscape-font-specification:Iwona;text-align:center;letter-spacing:0px;word-spacing:0px;text-anchor:middle">
      <path
         d="m 776.44509,106.29921 c 0,-3.555 -1.095,-5.325 -3.285,-5.325 -2.19,0 -3.285,1.77 -3.285,5.325 0,3.555 1.095,5.325 3.285,5.325 2.19,0 3.285,-1.77 3.285,-5.325 z m -1.32,0 c 0,3.135 -0.66,4.695 -1.965,4.695 -1.305,0 -1.965,-1.56 -1.965,-4.695 0,-3.135 0.66,-4.695 1.965,-4.695 1.305,0 1.965,1.56 1.965,4.695 z"
         style="line-height:1.25"
         id="path393" />
    </g>
    <g
       aria-label="1"
       id="text3219"
       style="font-size:15px;line-height:0%;font-family:Iwona;-inkscape-font-specification:Iwona;text-align:center;letter-spacing:0px;word-spacing:0px;text-anchor:middle">
      <path
         d="m 791.88158,111.47421 v -10.35 h -0.87 c -0.825,0.945 -1.8,1.755 -2.88,2.385 v 0.63 c 0.915,-0.435 1.77,-0.945 2.58,-1.56 v 8.895 z"
         style="line-height:1.25"
         id="path396" />
    </g>
    <g
       aria-label="2"
       id="text3223"
       style="font-size:15px;line-height:0%;font-family:Iwona;-inkscape-font-specification:Iwona;text-align:center;letter-spacing:0px;word-spacing:0px;text-anchor:middle">
      <path
         d="m 811.06153,111.54922 v -0.93 h -5.295 l 2.76,-2.73 c 1.23,-1.23 2.385,-2.67 2.385,-4.41 0,-1.47 -1.455,-2.43 -3.03,-2.43 -1.185,0 -2.31,0.54 -3.045,1.455 v 0.63 c 0.765,-0.885 1.875,-1.395 3.045,-1.395 1.005,0 1.86,0.75 1.86,1.74 0,1.485 -0.69,2.865 -1.71,3.93 l -3.345,3.435 v 0.705 z"
         style="line-height:1.25"
         id="path399" />
    </g>
    <path
       id="path3225"
       d="m 719.29131,124.01576 h 14.17323"
       style="fill:none;stroke:#000000;stroke-width:1.99969;stroke-linecap:butt;stroke-linejoin:miter;stroke-miterlimit:4;stroke-dasharray:1.99969, 1.99969;stroke-dashoffset:0;stroke-opacity:1" />
    <path
       id="path3227"
       d="m 737.00785,88.582689 h 7.08661 l 3.54331,35.433071 H 761.811 l 3.54331,-35.433071 h 14.17322 l 3.54331,35.433071 h 14.17323 l 3.54331,-35.433071 h 14.17323 l 3.54331,35.433071 h 7.08661"
       style="fill:none;stroke:#000000;stroke-width:2;stroke-linecap:butt;stroke-linejoin:miter;stroke-miterlimit:4;stroke-dasharray:none;stroke-opacity:1" />
    <path
       style="fill:none;stroke:#000000;stroke-width:1.99969;stroke-linecap:butt;stroke-linejoin:miter;stroke-miterlimit:4;stroke-dasharray:1.99969, 1.99969;stroke-dashoffset:0;stroke-opacity:1"
       d="m 719.29131,88.582688 h 14.17323"
       id="path3229" />
    <path
       style="fill:none;stroke:#000000;stroke-width:2;stroke-linecap:butt;stroke-linejoin:miter;stroke-miterlimit:4;stroke-dasharray:none;stroke-opacity:1"
       d="m 843.3071,124.01576 h 7.08661 l 3.54331,-35.433071 h 14.17323 l 3.54331,35.433071 h 7.08658"
       id="path3231" />
    <g
       aria-label="TIMER_HALF"
       transform="rotate(-77.505844)"
       id="text3235"
       style="font-size:4.99626px;line-height:0%;font-family:Iwona;-inkscape-font-specification:Iwona;text-align:center;letter-spacing:0px;word-spacing:0px;text-anchor:middle">
      <path
         d="m 70.170966,862.04232 v -0.22983 h -2.747943 v 0.22983 h 1.169125 v 3.26756 h 0.409693 v -3.26756 z"
         style="line-height:1.25"
         id="path402" />
      <path
         d="m 71.180202,865.30988 v -3.49739 h -0.409693 v 3.49739 z"
         style="line-height:1.25"
         id="path404" />
      <path
         d="m 75.851703,865.30988 -0.19985,-3.49739 H 75.3221 l -1.40395,2.95279 -1.408945,-2.95279 h -0.329753 l -0.19985,3.49739 h 0.229828 l 0.15988,-2.83288 1.353986,2.83288 h 0.184862 l 1.368975,-2.86786 0.164877,2.86786 z"
         style="line-height:1.25"
         id="path406" />
      <path
         d="m 79.149228,865.30988 v -0.22983 h -2.088437 v -1.40395 h 1.588811 v -0.22983 h -1.588811 v -1.40395 h 1.968527 v -0.22983 h -2.37822 v 3.49739 z"
         style="line-height:1.25"
         id="path408" />
      <path
         d="m 82.666594,865.30988 -1.064203,-1.58382 c 0.544592,-0.10492 0.919312,-0.4047 0.919312,-0.96428 0,-0.70447 -0.604548,-0.99925 -1.38896,-0.99925 -0.279791,0 -0.559582,0.015 -0.834376,0.05 h -0.399701 v 3.49739 h 0.409694 v -1.62379 c 0.269798,0.05 0.549588,0.0799 0.824383,0.0799 l 1.044218,1.54385 z m -0.634525,-2.5481 c 0,0.45466 -0.424682,0.77442 -0.899326,0.77442 -0.274795,0 -0.554585,-0.03 -0.824383,-0.0799 v -1.41394 c 0.274794,-0.035 0.549588,-0.05 0.824383,-0.05 0.474644,0 0.899326,0.31976 0.899326,0.76942 z"
         style="line-height:1.25"
         id="path410" />
      <path
         d="m 85.214683,865.88445 v -0.24982 h -2.49813 v 0.24982 z"
         style="line-height:1.25"
         id="path412" />
      <path
         d="m 88.462244,865.30988 v -3.49739 H 88.05255 v 1.63378 h -1.928556 v -1.63378 h -0.409693 v 3.49739 h 0.409693 v -1.63378 h 1.928556 v 1.63378 z"
         style="line-height:1.25"
         id="path414" />
      <path
         d="m 92.009578,865.30988 -1.26905,-3.49739 h -0.434675 l -1.294031,3.49739 h 0.244817 l 0.454659,-1.22409 h 1.418938 l 0.444667,1.22409 z M 91.0453,863.85596 h -1.249065 l 0.629529,-1.70872 z"
         style="line-height:1.25"
         id="path416" />
      <path
         d="m 94.557665,865.30988 v -0.22983 h -1.588811 v -3.26756 h -0.409693 v 3.49739 z"
         style="line-height:1.25"
         id="path418" />
      <path
         d="m 97.53543,862.04232 v -0.22983 h -2.37822 v 3.49739 h 0.409693 v -1.63378 h 1.588811 v -0.22983 h -1.588811 v -1.40395 z"
         style="line-height:1.25"
         id="path420" />
    </g>
    <path
       id="path3237"
       d="m 825.59056,124.01576 h 14.17323"
       style="fill:none;stroke:#000000;stroke-width:1.99969;stroke-linecap:butt;stroke-linejoin:miter;stroke-miterlimit:4;stroke-dasharray:1.99969, 1.99969;stroke-dashoffset:0;stroke-opacity:1" />
    <path
       id="path3239"
       d="m 843.3071,88.582689 h 7.08661 l 3.54331,35.433071 h 14.17323 l 3.54331,-35.433071 h 7.08658"
       style="fill:none;stroke:#000000;stroke-width:2;stroke-linecap:butt;stroke-linejoin:miter;stroke-miterlimit:4;stroke-dasharray:none;stroke-opacity:1" />
    <path
       style="fill:none;stroke:#000000;stroke-width:1.99969;stroke-linecap:butt;stroke-linejoin:miter;stroke-miterlimit:4;stroke-dasharray:1.99969, 1.99969;stroke-dashoffset:0;stroke-opacity:1"
       d="m 825.59056,88.582688 h 14.17323"
       id="path3241" />
    <path
       id="path3243"
       d="m 896.45668,124.01576 h 7.08661 l 3.54331,-35.433071 h 14.17323 l 3.54331,35.433071 h 14.17322 l 3.54331,-35.433071 h 14.17323 l 3.54331,35.433071 h 14.17323 l 3.54331,-35.433071 h 7.08661"
       style="fill:none;stroke:#000000;stroke-width:2;stroke-linecap:butt;stroke-linejoin:miter;stroke-miterlimit:4;stroke-dasharray:none;stroke-opacity:1" />
    <g
       aria-label="TIMER_MAX"
       transform="rotate(-77.505844)"
       id="text3247"
       style="font-size:5.73557px;line-height:0%;font-family:Iwona;-inkscape-font-specification:Iwona;text-align:center;letter-spacing:0px;word-spacing:0px;text-anchor:middle">
      <path
         d="m 80.868784,914.01029 v -0.26384 H 77.71422 v 0.26384 h 1.342123 v 3.75106 h 0.470317 v -3.75106 z"
         style="line-height:1.25"
         id="path423" />
      <path
         d="m 82.027359,917.76135 v -4.0149 h -0.470317 v 4.0149 z"
         style="line-height:1.25"
         id="path425" />
      <path
         d="m 87.390114,917.76135 -0.229422,-4.0149 h -0.378548 l -1.611695,3.38973 -1.617431,-3.38973 H 83.17447 l -0.229422,4.0149 h 0.263836 l 0.183538,-3.25207 1.55434,3.25207 h 0.212216 l 1.571546,-3.29221 0.189274,3.29221 z"
         style="line-height:1.25"
         id="path427" />
      <path
         d="m 91.175582,917.76135 v -0.26383 h -2.397468 v -1.6117 h 1.823911 v -0.26384 h -1.823911 v -1.61169 h 2.259814 v -0.26384 h -2.730131 v 4.0149 z"
         style="line-height:1.25"
         id="path429" />
      <path
         d="m 95.213423,917.76135 -1.221677,-1.81817 c 0.625177,-0.12045 1.055345,-0.46458 1.055345,-1.10697 0,-0.80871 -0.694004,-1.14711 -1.594488,-1.14711 -0.321192,0 -0.642384,0.0172 -0.95784,0.0573 h -0.458846 v 4.0149 h 0.470317 v -1.86406 c 0.309721,0.0574 0.630912,0.0918 0.946369,0.0918 l 1.198734,1.77229 z m -0.728418,-2.92514 c 0,0.52194 -0.487523,0.88902 -1.032402,0.88902 -0.315457,0 -0.636648,-0.0344 -0.946369,-0.0918 v -1.62317 c 0.315456,-0.0402 0.630912,-0.0574 0.946369,-0.0574 0.544879,0 1.032402,0.36708 1.032402,0.88328 z"
         style="line-height:1.25"
         id="path431" />
      <path
         d="m 98.13856,918.42094 v -0.28678 h -2.867785 v 0.28678 z"
         style="line-height:1.25"
         id="path433" />
      <path
         d="m 102.92775,917.76135 -0.22942,-4.0149 h -0.37855 l -1.6117,3.38973 -1.617427,-3.38973 h -0.378548 l -0.229423,4.0149 h 0.263837 l 0.183538,-3.25207 1.554343,3.25207 h 0.21221 l 1.57155,-3.29221 0.18927,3.29221 z"
         style="line-height:1.25"
         id="path435" />
      <path
         d="m 106.77057,917.76135 -1.45683,-4.0149 h -0.499 l -1.48551,4.0149 h 0.28104 l 0.52194,-1.40521 h 1.6289 l 0.51047,1.40521 z m -1.10696,-1.66905 h -1.43389 l 0.72268,-1.96156 z"
         style="line-height:1.25"
         id="path437" />
      <path
         d="m 110.37251,917.76135 -1.4511,-2.17951 1.31344,-1.83539 h -0.32693 l -1.14137,1.60023 -1.06682,-1.60023 h -0.56209 l 1.31345,1.97878 -1.4511,2.03612 h 0.32693 l 1.28477,-1.80097 1.19873,1.80097 z"
         style="line-height:1.25"
         id="path439" />
    </g>
    <g
       aria-label="0"
       id="text3251"
       style="font-size:15px;line-height:0%;font-family:Iwona;-inkscape-font-specification:Iwona;text-align:center;letter-spacing:0px;word-spacing:0px;text-anchor:middle">
      <path
         d="m 935.89394,106.29921 c 0,-3.555 -1.095,-5.325 -3.285,-5.325 -2.19,0 -3.285,1.77 -3.285,5.325 0,3.555 1.095,5.325 3.285,5.325 2.19,0 3.285,-1.77 3.285,-5.325 z m -1.32,0 c 0,3.135 -0.66,4.695 -1.965,4.695 -1.305,0 -1.965,-1.56 -1.965,-4.695 0,-3.135 0.66,-4.695 1.965,-4.695 1.305,0 1.965,1.56 1.965,4.695 z"
         style="line-height:1.25"
         id="path442" />
    </g>
    <g
       aria-label="1"
       id="text3255"
       style="font-size:15px;line-height:0%;font-family:Iwona;-inkscape-font-specification:Iwona;text-align:center;letter-spacing:0px;word-spacing:0px;text-anchor:middle">
      <path
         d="m 951.33043,111.47421 v -10.35 h -0.87 c -0.825,0.945 -1.8,1.755 -2.88,2.385 v 0.63 c 0.915,-0.435 1.77,-0.945 2.58,-1.56 v 8.895 z"
         style="line-height:1.25"
         id="path445" />
    </g>
    <g
       aria-label="2"
       id="text3259"
       style="font-size:15px;line-height:0%;font-family:Iwona;-inkscape-font-specification:Iwona;text-align:center;letter-spacing:0px;word-spacing:0px;text-anchor:middle">
      <path
         d="m 970.51038,111.54922 v -0.93 h -5.295 l 2.76,-2.73 c 1.23,-1.23 2.385,-2.67 2.385,-4.41 0,-1.47 -1.455,-2.43 -3.03,-2.43 -1.185,0 -2.31,0.54 -3.045,1.455 v 0.63 c 0.765,-0.885 1.875,-1.395 3.045,-1.395 1.005,0 1.86,0.75 1.86,1.74 0,1.485 -0.69,2.865 -1.71,3.93 l -3.345,3.435 v 0.705 z"
         style="line-height:1.25"
         id="path448" />
    </g>
    <path
       style="fill:none;stroke:#000000;stroke-width:1.99969;stroke-linecap:butt;stroke-linejoin:miter;stroke-miterlimit:4;stroke-dasharray:1.99969, 1.99969;stroke-dashoffset:0;stroke-opacity:1"
       d="m 878.74014,124.01576 h 14.17323"
       id="path3261" />
    <path
       style="fill:none;stroke:#000000;stroke-width:2;stroke-linecap:butt;stroke-linejoin:miter;stroke-miterlimit:4;stroke-dasharray:none;stroke-opacity:1"
       d="m 896.45668,88.582689 h 7.08661 l 3.54331,35.433071 h 14.17323 l 3.54331,-35.433071 h 14.17322 l 3.54331,35.433071 h 14.17323 l 3.54331,-35.433071 h 14.17323 l 3.54331,35.433071 h 7.08661"
       id="path3263" />
    <path
       id="path3265"
       d="m 878.74014,88.582688 h 14.17323"
       style="fill:none;stroke:#000000;stroke-width:1.99969;stroke-linecap:butt;stroke-linejoin:miter;stroke-miterlimit:4;stroke-dasharray:1.99969, 1.99969;stroke-dashoffset:0;stroke-opacity:1" />
    <g
       aria-label="sclk_half"
       id="text3269"
       style="line-height:0%;font-family:Iwona;-inkscape-font-specification:Iwona;text-align:end;letter-spacing:0px;word-spacing:0px;text-anchor:end">
      <path
         d="m 161.40916,167.00675 c 0,-1.896 -2.016,-2.88 -3.984,-3.36 -1.152,-0.288 -2.4,-0.768 -2.4,-1.896 0,-1.032 1.056,-1.704 2.208,-1.704 1.272,0 2.544,0.384 3.6,1.08 v -1.008 c -1.056,-0.696 -2.328,-1.08 -3.6,-1.08 -2.088,0 -4.008,1.272 -4.008,3.216 0,1.752 1.944,2.568 3.792,3.024 1.272,0.312 2.592,0.984 2.592,2.208 0,1.128 -1.152,1.824 -2.376,1.824 -1.488,0 -2.928,-0.36 -4.2,-1.08 v 1.008 c 1.272,0.72 2.712,1.08 4.2,1.08 2.16,0 4.176,-1.296 4.176,-3.312 z"
         style="font-size:24px;line-height:1.25"
         id="path451" />
      <path
         d="m 172.18514,161.77475 v -1.008 c -0.768,-1.08 -2.016,-1.728 -3.36,-1.728 -3,0 -5.016,2.256 -5.016,5.64 0,3.384 2.016,5.64 5.016,5.64 1.248,0 2.424,-0.624 3.12,-1.656 v -1.008 c -0.816,1.224 -1.656,1.656 -3.12,1.656 -1.728,0 -2.904,-1.848 -2.904,-4.632 0,-2.784 1.176,-4.632 2.904,-4.632 1.488,0 2.496,0.528 3.36,1.728 z"
         style="font-size:24px;line-height:1.25"
         id="path453" />
      <path
         d="m 179.21711,169.23875 v -0.72 c -0.456,0.384 -0.984,0.696 -1.584,0.696 -0.888,0 -1.056,-1.104 -1.056,-2.136 v -13.8 h -1.872 v 13.8 c 0,1.608 0.624,3.24 2.04,3.24 0.912,0 1.776,-0.456 2.472,-1.08 z"
         style="font-size:24px;line-height:1.25"
         id="path455" />
      <path
         d="m 190.90507,170.07875 -5.568,-6.408 5.376,-4.392 h -1.488 l -5.736,4.704 v -10.704 h -1.872 v 16.8 h 1.872 v -5.976 l 5.184,5.976 z"
         style="font-size:24px;line-height:1.25"
         id="path457" />
      <path
         d="m 203.14505,172.83875 v -1.2 h -12 v 1.2 z"
         style="font-size:24px;line-height:1.25"
         id="path459" />
      <path
         d="m 213.753,170.07875 v -7.8 c 0,-1.752 -1.344,-3.24 -3.072,-3.24 -1.44,0 -2.712,0.816 -3.744,1.824 v -7.584 h -1.872 v 16.8 h 1.872 v -8.472 c 0.816,-0.816 1.824,-1.464 2.952,-1.464 1.128,0 1.992,0.984 1.992,2.136 v 7.8 z"
         style="font-size:24px;line-height:1.25"
         id="path461" />
      <path
         d="m 225.92096,170.07875 v -6.72 c 0,-2.256 -1.392,-4.32 -3.48,-4.32 -1.536,0 -2.976,0.528 -4.272,1.344 v 0.744 c 1.08,-0.6 2.28,-0.984 3.528,-0.984 1.488,0 2.352,1.584 2.352,3.216 v 0.432 c -0.936,-0.408 -1.944,-0.648 -2.952,-0.648 -2.568,0 -4.464,1.176 -4.464,3.6 0,2.304 1.68,3.576 4.104,3.576 1.224,0 2.352,-0.552 3.312,-1.32 v 1.08 z m -1.872,-2.088 c -0.72,0.72 -1.608,1.32 -2.64,1.32 -1.608,0 -2.664,-0.984 -2.664,-2.568 0,-1.464 1.2,-2.592 2.664,-2.592 0.912,0 1.824,0.24 2.64,0.648 z"
         style="font-size:24px;line-height:1.25"
         id="path463" />
      <path
         d="m 234.27294,169.23875 v -0.72 c -0.456,0.384 -0.984,0.696 -1.584,0.696 -0.888,0 -1.056,-1.104 -1.056,-2.136 v -13.8 h -1.872 v 13.8 c 0,1.608 0.624,3.24 2.04,3.24 0.912,0 1.776,-0.456 2.472,-1.08 z"
         style="font-size:24px;line-height:1.25"
         id="path465" />
      <path
         d="m 241.4729,154.83875 v -0.744 c -0.72,-0.6 -1.584,-1.056 -2.52,-1.056 -1.392,0 -2.04,1.632 -2.04,3.24 v 3 h -1.68 v 1.008 h 1.68 v 9.792 h 1.872 v -9.792 h 1.68 v -1.008 h -1.68 v -3 c 0,-1.032 0.192,-2.136 1.08,-2.136 0.6,0 1.152,0.288 1.608,0.696 z"
         style="font-size:24px;line-height:1.25"
         id="path467" />
    </g>
    <g
       aria-label="sclk_cycle"
       id="text3273"
       style="line-height:0%;font-family:Iwona;-inkscape-font-specification:Iwona;text-align:end;letter-spacing:0px;word-spacing:0px;text-anchor:end">
      <path
         d="m 147.48921,220.15636 c 0,-1.896 -2.016,-2.88 -3.984,-3.36 -1.152,-0.288 -2.4,-0.768 -2.4,-1.896 0,-1.032 1.056,-1.704 2.208,-1.704 1.272,0 2.544,0.384 3.6,1.08 v -1.008 c -1.056,-0.696 -2.328,-1.08 -3.6,-1.08 -2.088,0 -4.008,1.272 -4.008,3.216 0,1.752 1.944,2.568 3.792,3.024 1.272,0.312 2.592,0.984 2.592,2.208 0,1.128 -1.152,1.824 -2.376,1.824 -1.488,0 -2.928,-0.36 -4.2,-1.08 v 1.008 c 1.272,0.72 2.712,1.08 4.2,1.08 2.16,0 4.176,-1.296 4.176,-3.312 z"
         style="font-size:24px;line-height:1.25"
         id="path470" />
      <path
         d="m 158.26518,214.92436 v -1.008 c -0.768,-1.08 -2.016,-1.728 -3.36,-1.728 -3,0 -5.016,2.256 -5.016,5.64 0,3.384 2.016,5.64 5.016,5.64 1.248,0 2.424,-0.624 3.12,-1.656 v -1.008 c -0.816,1.224 -1.656,1.656 -3.12,1.656 -1.728,0 -2.904,-1.848 -2.904,-4.632 0,-2.784 1.176,-4.632 2.904,-4.632 1.488,0 2.496,0.528 3.36,1.728 z"
         style="font-size:24px;line-height:1.25"
         id="path472" />
      <path
         d="m 165.29716,222.38836 v -0.72 c -0.456,0.384 -0.984,0.696 -1.584,0.696 -0.888,0 -1.056,-1.104 -1.056,-2.136 v -13.8 h -1.872 v 13.8 c 0,1.608 0.624,3.24 2.04,3.24 0.912,0 1.776,-0.456 2.472,-1.08 z"
         style="font-size:24px;line-height:1.25"
         id="path474" />
      <path
         d="m 176.98511,223.22836 -5.568,-6.408 5.376,-4.392 h -1.488 l -5.736,4.704 v -10.704 h -1.872 v 16.8 h 1.872 v -5.976 l 5.184,5.976 z"
         style="font-size:24px;line-height:1.25"
         id="path476" />
      <path
         d="m 189.2251,225.98836 v -1.2 h -12 v 1.2 z"
         style="font-size:24px;line-height:1.25"
         id="path478" />
      <path
         d="m 198.92105,214.92436 v -1.008 c -0.768,-1.08 -2.016,-1.728 -3.36,-1.728 -3,0 -5.016,2.256 -5.016,5.64 0,3.384 2.016,5.64 5.016,5.64 1.248,0 2.424,-0.624 3.12,-1.656 v -1.008 c -0.816,1.224 -1.656,1.656 -3.12,1.656 -1.728,0 -2.904,-1.848 -2.904,-4.632 0,-2.784 1.176,-4.632 2.904,-4.632 1.488,0 2.496,0.528 3.36,1.728 z"
         style="font-size:24px;line-height:1.25"
         id="path480" />
      <path
         d="m 210.00903,224.66836 v -12.24 h -1.872 v 8.472 c -0.816,0.816 -1.824,1.464 -2.952,1.464 -1.128,0 -1.992,-0.984 -1.992,-2.136 v -7.8 h -1.872 v 7.8 c 0,1.752 1.344,3.24 3.072,3.24 1.44,0 2.712,-0.816 3.744,-1.824 v 3.024 c 0,1.608 -0.72,3.216 -2.16,3.216 -1.128,0 -2.208,-0.24 -3.24,-0.648 v 0.744 c 1.224,0.624 2.592,1.008 3.984,1.008 2.04,0 3.288,-2.112 3.288,-4.32 z"
         style="font-size:24px;line-height:1.25"
         id="path482" />
      <path
         d="m 221.62499,214.92436 v -1.008 c -0.768,-1.08 -2.016,-1.728 -3.36,-1.728 -3,0 -5.016,2.256 -5.016,5.64 0,3.384 2.016,5.64 5.016,5.64 1.248,0 2.424,-0.624 3.12,-1.656 v -1.008 c -0.816,1.224 -1.656,1.656 -3.12,1.656 -1.728,0 -2.904,-1.848 -2.904,-4.632 0,-2.784 1.176,-4.632 2.904,-4.632 1.488,0 2.496,0.528 3.36,1.728 z"
         style="font-size:24px;line-height:1.25"
         id="path484" />
      <path
         d="m 228.65696,222.38836 v -0.72 c -0.456,0.384 -0.984,0.696 -1.584,0.696 -0.888,0 -1.056,-1.104 -1.056,-2.136 v -13.8 h -1.872 v 13.8 c 0,1.608 0.624,3.24 2.04,3.24 0.912,0 1.776,-0.456 2.472,-1.08 z"
         style="font-size:24px;line-height:1.25"
         id="path486" />
      <path
         d="m 239.74492,218.06836 v -0.24 c 0,-3.384 -1.848,-5.64 -4.632,-5.64 -2.808,0 -4.656,2.256 -4.656,5.64 0,3.384 1.848,5.64 4.656,5.64 1.2,0 2.376,-0.384 3.36,-1.08 v -1.008 c -1.128,0.72 -2.04,0.984 -3.36,0.984 -2.04,0 -2.544,-1.944 -2.544,-4.296 z m -2.112,-1.008 h -5.064 c 0,-1.92 0.816,-3.864 2.544,-3.864 1.704,0 2.52,1.944 2.52,3.864 z"
         style="font-size:24px;line-height:1.25"
         id="path488" />
    </g>
    <path
       id="path3284"
       d="m 248.03148,230.31497 h 180.70865 l 3.54331,-35.43308 h 14.17323 l 3.54331,35.43308 h 138.18898 l 3.54331,-35.43308 h 14.17322 l 3.54331,35.43308 h 138.18898 l 3.5433,-35.43308 h 14.17323 l 3.54331,35.43308 h 138.18899 l 3.5433,-35.43308 h 14.17324 l 3.5433,35.43308 h 56.69293"
       style="fill:none;stroke:#000000;stroke-width:2;stroke-linecap:butt;stroke-linejoin:miter;stroke-miterlimit:4;stroke-dasharray:none;stroke-opacity:1" />
    <g
       aria-label="POLARITY = '0'"
       id="text3350"
       style="font-size:17.5px;line-height:0%;font-family:Iwona;-inkscape-font-specification:Iwona;letter-spacing:0px;word-spacing:0px;fill:#0088aa">
      <path
         d="m 266.0556,260.36635 c 0,-2.4675 -2.1175,-3.5 -4.865,-3.5 -0.98,0 -1.96,0.0525 -2.9225,0.175 h -1.4 v 12.25 h 1.435 v -5.6875 c 0.945,0.175 1.925,0.28 2.8875,0.28 2.7475,0 4.865,-1.0325 4.865,-3.5175 z m -1.715,0 c 0,1.5925 -1.4875,2.7125 -3.15,2.7125 -0.9625,0 -1.9425,-0.105 -2.8875,-0.28 v -4.9525 c 0.9625,-0.1225 1.925,-0.175 2.8875,-0.175 1.6625,0 3.15,1.12 3.15,2.695 z"
         style="line-height:1.25"
         id="path491" />
      <path
         d="m 279.09309,263.16635 c 0,-3.71 -1.925,-6.3 -5.46,-6.3 -3.5525,0 -5.4775,2.59 -5.4775,6.3 0,3.71 1.925,6.3 5.4775,6.3 3.535,0 5.46,-2.59 5.46,-6.3 z m -1.715,0 c 0,3.0625 -1.015,5.495 -3.745,5.495 -2.7475,0 -3.7625,-2.4325 -3.7625,-5.495 0,-3.0625 1.015,-5.495 3.7625,-5.495 2.73,0 3.745,2.4325 3.745,5.495 z"
         style="line-height:1.25"
         id="path493" />
      <path
         d="m 288.89307,269.29135 v -0.805 h -5.565 v -11.445 h -1.435 v 12.25 z"
         style="line-height:1.25"
         id="path495" />
      <path
         d="m 299.91805,269.29135 -4.445,-12.25 h -1.5225 l -4.5325,12.25 h 0.8575 l 1.5925,-4.2875 h 4.97 l 1.5575,4.2875 z m -3.3775,-5.0925 h -4.375 l 2.205,-5.985 z"
         style="line-height:1.25"
         id="path497" />
      <path
         d="m 311.36303,269.29135 -3.7275,-5.5475 c 1.9075,-0.3675 3.22,-1.4175 3.22,-3.3775 0,-2.4675 -2.1175,-3.5 -4.865,-3.5 -0.98,0 -1.96,0.0525 -2.9225,0.175 h -1.4 v 12.25 h 1.435 v -5.6875 c 0.945,0.175 1.925,0.28 2.8875,0.28 l 3.6575,5.4075 z m -2.2225,-8.925 c 0,1.5925 -1.4875,2.7125 -3.15,2.7125 -0.9625,0 -1.9425,-0.105 -2.8875,-0.28 v -4.9525 c 0.9625,-0.1225 1.925,-0.175 2.8875,-0.175 1.6625,0 3.15,1.12 3.15,2.695 z"
         style="line-height:1.25"
         id="path499" />
      <path
         d="m 314.72302,269.29135 v -12.25 h -1.435 v 12.25 z"
         style="line-height:1.25"
         id="path501" />
      <path
         d="m 326.44801,257.84635 v -0.805 h -9.625 v 0.805 h 4.095 v 11.445 h 1.435 v -11.445 z"
         style="line-height:1.25"
         id="path503" />
      <path
         d="m 336.56297,257.04135 h -0.945 l -3.7275,6.195 -3.325,-6.195 h -1.6275 l 4.095,7.35 v 4.9 h 1.435 v -5.4425 z"
         style="line-height:1.25"
         id="path505" />
      <path
         d="m 354.86793,263.60385 v -0.875 h -10.99 v 0.875 z m 0,3.5 v -0.875 h -10.99 v 0.875 z"
         style="line-height:1.25"
         id="path507" />
      <path
         d="m 363.4779,261.13635 v -4.095 h -0.805 v 4.095 z"
         style="line-height:1.25"
         id="path509" />
      <path
         d="m 372.5779,263.25385 c 0,-4.1475 -1.2775,-6.2125 -3.8325,-6.2125 -2.555,0 -3.8325,2.065 -3.8325,6.2125 0,4.1475 1.2775,6.2125 3.8325,6.2125 2.555,0 3.8325,-2.065 3.8325,-6.2125 z m -1.54,0 c 0,3.6575 -0.77,5.4775 -2.2925,5.4775 -1.5225,0 -2.2925,-1.82 -2.2925,-5.4775 0,-3.6575 0.77,-5.4775 2.2925,-5.4775 1.5225,0 2.2925,1.82 2.2925,5.4775 z"
         style="line-height:1.25"
         id="path511" />
      <path
         d="m 374.80039,261.13635 v -4.095 h -0.805 v 4.095 z"
         style="line-height:1.25"
         id="path513" />
    </g>
    <path
       style="fill:none;stroke:#000000;stroke-width:2;stroke-linecap:butt;stroke-linejoin:miter;stroke-miterlimit:4;stroke-dasharray:none;stroke-opacity:1"
       d="m 248.0315,301.18111 h 141.73229 l 3.54331,35.43307 h 49.60628 l 3.54331,-35.43307 H 549.2126 l 3.54331,35.43307 h 49.60629 l 3.54331,-35.43307 h 102.75591 l 3.5433,35.43307 h 49.60631 l 3.54331,-35.43307 h 102.7559 l 3.5433,35.43307 h 49.60632 l 3.5433,-35.43307 60.23622,1e-5"
       id="path4613" />
    <path
       id="rect3358"
       style="fill:#ffaaaa"
       d="m 248.03149,301.18112 h 141.7323 v 7.08662 h -141.7323 z" />
    <g
       aria-label="POLARITY = '1'"
       id="text3354"
       style="font-size:17.5px;line-height:0%;font-family:Iwona;-inkscape-font-specification:Iwona;letter-spacing:0px;word-spacing:0px;fill:#ff0000">
      <path
         d="m 266.0556,317.05928 c 0,-2.4675 -2.1175,-3.5 -4.865,-3.5 -0.98,0 -1.96,0.0525 -2.9225,0.175 h -1.4 v 12.25 h 1.435 v -5.6875 c 0.945,0.175 1.925,0.28 2.8875,0.28 2.7475,0 4.865,-1.0325 4.865,-3.5175 z m -1.715,0 c 0,1.5925 -1.4875,2.7125 -3.15,2.7125 -0.9625,0 -1.9425,-0.105 -2.8875,-0.28 v -4.9525 c 0.9625,-0.1225 1.925,-0.175 2.8875,-0.175 1.6625,0 3.15,1.12 3.15,2.695 z"
         style="line-height:1.25"
         id="path517" />
      <path
         d="m 279.09309,319.85928 c 0,-3.71 -1.925,-6.3 -5.46,-6.3 -3.5525,0 -5.4775,2.59 -5.4775,6.3 0,3.71 1.925,6.3 5.4775,6.3 3.535,0 5.46,-2.59 5.46,-6.3 z m -1.715,0 c 0,3.0625 -1.015,5.495 -3.745,5.495 -2.7475,0 -3.7625,-2.4325 -3.7625,-5.495 0,-3.0625 1.015,-5.495 3.7625,-5.495 2.73,0 3.745,2.4325 3.745,5.495 z"
         style="line-height:1.25"
         id="path519" />
      <path
         d="m 288.89307,325.98428 v -0.805 h -5.565 v -11.445 h -1.435 v 12.25 z"
         style="line-height:1.25"
         id="path521" />
      <path
         d="m 299.91805,325.98428 -4.445,-12.25 h -1.5225 l -4.5325,12.25 h 0.8575 l 1.5925,-4.2875 h 4.97 l 1.5575,4.2875 z m -3.3775,-5.0925 h -4.375 l 2.205,-5.985 z"
         style="line-height:1.25"
         id="path523" />
      <path
         d="m 311.36303,325.98428 -3.7275,-5.5475 c 1.9075,-0.3675 3.22,-1.4175 3.22,-3.3775 0,-2.4675 -2.1175,-3.5 -4.865,-3.5 -0.98,0 -1.96,0.0525 -2.9225,0.175 h -1.4 v 12.25 h 1.435 v -5.6875 c 0.945,0.175 1.925,0.28 2.8875,0.28 l 3.6575,5.4075 z m -2.2225,-8.925 c 0,1.5925 -1.4875,2.7125 -3.15,2.7125 -0.9625,0 -1.9425,-0.105 -2.8875,-0.28 v -4.9525 c 0.9625,-0.1225 1.925,-0.175 2.8875,-0.175 1.6625,0 3.15,1.12 3.15,2.695 z"
         style="line-height:1.25"
         id="path525" />
      <path
         d="m 314.72302,325.98428 v -12.25 h -1.435 v 12.25 z"
         style="line-height:1.25"
         id="path527" />
      <path
         d="m 326.44801,314.53928 v -0.805 h -9.625 v 0.805 h 4.095 v 11.445 h 1.435 v -11.445 z"
         style="line-height:1.25"
         id="path529" />
      <path
         d="m 336.56297,313.73428 h -0.945 l -3.7275,6.195 -3.325,-6.195 h -1.6275 l 4.095,7.35 v 4.9 h 1.435 v -5.4425 z"
         style="line-height:1.25"
         id="path531" />
      <path
         d="m 354.86793,320.29678 v -0.875 h -10.99 v 0.875 z m 0,3.5 v -0.875 h -10.99 v 0.875 z"
         style="line-height:1.25"
         id="path533" />
      <path
         d="m 363.4779,317.82928 v -4.095 h -0.805 v 4.095 z"
         style="line-height:1.25"
         id="path535" />
      <path
         d="m 369.9179,325.98428 v -12.075 h -1.015 c -0.9625,1.1025 -2.1,2.0475 -3.36,2.7825 v 0.735 c 1.0675,-0.5075 2.065,-1.1025 3.01,-1.82 v 10.3775 z"
         style="line-height:1.25"
         id="path537" />
      <path
         d="m 374.80039,317.82928 v -4.095 h -0.805 v 4.095 z"
         style="line-height:1.25"
         id="path539" />
    </g>
    <g
       aria-label="sclk_o"
       id="text4740"
       style="line-height:0%;font-family:Iwona;-inkscape-font-specification:Iwona;text-align:end;letter-spacing:0px;word-spacing:0px;text-anchor:end">
      <path
         d="m 187.28105,326.45559 c 0,-1.896 -2.016,-2.88 -3.984,-3.36 -1.152,-0.288 -2.4,-0.768 -2.4,-1.896 0,-1.032 1.056,-1.704 2.208,-1.704 1.272,0 2.544,0.384 3.6,1.08 v -1.008 c -1.056,-0.696 -2.328,-1.08 -3.6,-1.08 -2.088,0 -4.008,1.272 -4.008,3.216 0,1.752 1.944,2.568 3.792,3.024 1.272,0.312 2.592,0.984 2.592,2.208 0,1.128 -1.152,1.824 -2.376,1.824 -1.488,0 -2.928,-0.36 -4.2,-1.08 v 1.008 c 1.272,0.72 2.712,1.08 4.2,1.08 2.16,0 4.176,-1.296 4.176,-3.312 z"
         style="font-size:24px;line-height:1.25"
         id="path542" />
      <path
         d="m 198.05702,321.22359 v -1.008 c -0.768,-1.08 -2.016,-1.728 -3.36,-1.728 -3,0 -5.016,2.256 -5.016,5.64 0,3.384 2.016,5.64 5.016,5.64 1.248,0 2.424,-0.624 3.12,-1.656 v -1.008 c -0.816,1.224 -1.656,1.656 -3.12,1.656 -1.728,0 -2.904,-1.848 -2.904,-4.632 0,-2.784 1.176,-4.632 2.904,-4.632 1.488,0 2.496,0.528 3.36,1.728 z"
         style="font-size:24px;line-height:1.25"
         id="path544" />
      <path
         d="m 205.089,328.68759 v -0.72 c -0.456,0.384 -0.984,0.696 -1.584,0.696 -0.888,0 -1.056,-1.104 -1.056,-2.136 v -13.8 h -1.872 v 13.8 c 0,1.608 0.624,3.24 2.04,3.24 0.912,0 1.776,-0.456 2.472,-1.08 z"
         style="font-size:24px;line-height:1.25"
         id="path546" />
      <path
         d="m 216.77695,329.52759 -5.568,-6.408 5.376,-4.392 h -1.488 l -5.736,4.704 v -10.704 h -1.872 v 16.8 h 1.872 v -5.976 l 5.184,5.976 z"
         style="font-size:24px;line-height:1.25"
         id="path548" />
      <path
         d="m 229.01694,332.28759 v -1.2 h -12 v 1.2 z"
         style="font-size:24px;line-height:1.25"
         id="path550" />
      <path
         d="m 239.62489,324.12759 c 0,-3.672 -1.632,-5.64 -4.632,-5.64 -3.024,0 -4.656,1.968 -4.656,5.64 0,3.672 1.632,5.64 4.656,5.64 3,0 4.632,-1.968 4.632,-5.64 z m -2.112,0 c 0,3 -0.888,4.632 -2.52,4.632 -1.656,0 -2.544,-1.632 -2.544,-4.632 0,-3 0.888,-4.632 2.544,-4.632 1.632,0 2.52,1.632 2.52,4.632 z"
         style="font-size:24px;line-height:1.25"
         id="path552" />
    </g>
    <path
       id="path3104"
       d="m 248.03149,70.86616 h 28.34646 l 3.5433,-35.43307 h 10.62992 l 3.5433,35.43307 h 690.94492"
       style="fill:none;stroke:#000000;stroke-width:2;stroke-linecap:butt;stroke-linejoin:miter;stroke-miterlimit:4;stroke-dasharray:none;stroke-opacity:1" />
    <g
       aria-label="start_i"
       id="text3106"
       style="font-size:12px;line-height:0%;font-family:Iwona;-inkscape-font-specification:Iwona;text-align:end;letter-spacing:0px;word-spacing:0px;text-anchor:end">
      <path
         d="m 184.80912,60.707537 c 0,-1.896 -2.016,-2.88 -3.984,-3.36 -1.152,-0.288 -2.4,-0.768 -2.4,-1.896 0,-1.032 1.056,-1.704 2.208,-1.704 1.272,0 2.544,0.384 3.6,1.08 v -1.008 c -1.056,-0.696 -2.328,-1.08 -3.6,-1.08 -2.088,0 -4.008,1.272 -4.008,3.216 0,1.752 1.944,2.568 3.792,3.024 1.272,0.312 2.592,0.984 2.592,2.208 0,1.128 -1.152,1.824 -2.376,1.824 -1.488,0 -2.928,-0.36 -4.2,-1.08 v 1.008 c 1.272,0.72 2.712,1.08 4.2,1.08 2.16,0 4.176,-1.296 4.176,-3.312 z"
         style="font-size:24px;line-height:1.25"
         id="path555" />
      <path
         d="m 192.8971,62.939537 v -0.72 c -0.384,0.384 -0.84,0.696 -1.392,0.696 -0.864,0 -0.912,-1.128 -0.912,-2.136 v -6.792 h 2.304 v -1.008 h -2.304 v -3.6 h -1.128 c 0,1.92 -1.104,3.72 -2.856,3.72 v 0.888 h 2.112 v 6.792 c 0,1.584 0.504,3.24 1.872,3.24 0.888,0 1.656,-0.48 2.304,-1.08 z"
         style="font-size:24px;line-height:1.25"
         id="path557" />
      <path
         d="m 203.98507,63.779537 v -6.72 c 0,-2.256 -1.392,-4.32 -3.48,-4.32 -1.536,0 -2.976,0.528 -4.272,1.344 v 0.744 c 1.08,-0.6 2.28,-0.984 3.528,-0.984 1.488,0 2.352,1.584 2.352,3.216 v 0.432 c -0.936,-0.408 -1.944,-0.648 -2.952,-0.648 -2.568,0 -4.464,1.176 -4.464,3.6 0,2.304 1.68,3.576 4.104,3.576 1.224,0 2.352,-0.552 3.312,-1.32 v 1.08 z m -1.872,-2.088 c -0.72,0.72 -1.608,1.32 -2.64,1.32 -1.608,0 -2.664,-0.984 -2.664,-2.568 0,-1.464 1.2,-2.592 2.664,-2.592 0.912,0 1.824,0.24 2.64,0.648 z"
         style="font-size:24px;line-height:1.25"
         id="path559" />
      <path
         d="m 213.80104,54.467537 v -1.488 c -0.264,-0.096 -0.552,-0.168 -0.816,-0.168 -1.344,0 -2.424,0.936 -3.288,1.968 v -1.8 h -1.872 v 10.8 h 1.872 v -7.992 c 0.72,-0.84 1.632,-1.56 2.736,-1.56 0.456,0 0.936,0.096 1.368,0.24 z"
         style="font-size:24px;line-height:1.25"
         id="path561" />
      <path
         d="m 221.43299,62.939537 v -0.72 c -0.384,0.384 -0.84,0.696 -1.392,0.696 -0.864,0 -0.912,-1.128 -0.912,-2.136 v -6.792 h 2.304 v -1.008 h -2.304 v -3.6 h -1.128 c 0,1.92 -1.104,3.72 -2.856,3.72 v 0.888 h 2.112 v 6.792 c 0,1.584 0.504,3.24 1.872,3.24 0.888,0 1.656,-0.48 2.304,-1.08 z"
         style="font-size:24px;line-height:1.25"
         id="path563" />
      <path
         d="m 234.15295,66.539537 v -1.2 h -12 v 1.2 z"
         style="font-size:24px;line-height:1.25"
         id="path565" />
      <path
         d="m 240.46491,62.939537 v -0.72 c -0.456,0.384 -0.984,0.696 -1.584,0.696 -0.888,0 -1.056,-1.104 -1.056,-2.136 v -7.8 h -1.872 v 7.8 c 0,1.608 0.624,3.24 2.04,3.24 0.912,0 1.776,-0.456 2.472,-1.08 z m -2.4,-13.704 c 0,-0.648 -0.528,-1.176 -1.176,-1.176 -0.648,0 -1.176,0.528 -1.176,1.176 0,0.648 0.528,1.176 1.176,1.176 0.648,0 1.176,-0.528 1.176,-1.176 z"
         style="font-size:24px;line-height:1.25"
         id="path567" />
    </g>
  </g>
</svg>
