<?xml version="1.0" encoding="UTF-8" standalone="no"?>
<!-- Created with Inkscape (http://www.inkscape.org/) -->

<svg
   width="142.048mm"
   height="55.596436mm"
   id="svg2"
   version="1.1"
   viewBox="0 0 503.3197 196.99524"
   xmlns="http://www.w3.org/2000/svg"
   xmlns:svg="http://www.w3.org/2000/svg"
   xmlns:rdf="http://www.w3.org/1999/02/22-rdf-syntax-ns#"
   xmlns:cc="http://creativecommons.org/ns#"
   xmlns:dc="http://purl.org/dc/elements/1.1/">
  <defs
     id="defs4">
    <marker
       style="overflow:visible"
       id="InfiniteLineEnd"
       refX="0"
       refY="0"
       orient="auto">
      <g
         id="g4631"
         style="fill:#000000">
        <circle
           id="circle4633"
           r="0.80000001"
           cy="0"
           cx="3" />
        <circle
           id="circle4635"
           r="0.80000001"
           cy="0"
           cx="6.5" />
        <circle
           id="circle4637"
           r="0.80000001"
           cy="0"
           cx="10" />
      </g>
    </marker>
    <marker
       style="overflow:visible"
       id="InfiniteLineStart"
       refX="0"
       refY="0"
       orient="auto">
      <g
         id="g4640"
         style="fill:#000000"
         transform="translate(-13)">
        <circle
           id="circle4642"
           r="0.80000001"
           cy="0"
           cx="3" />
        <circle
           id="circle4644"
           r="0.80000001"
           cy="0"
           cx="6.5" />
        <circle
           id="circle4646"
           r="0.80000001"
           cy="0"
           cx="10" />
      </g>
    </marker>
    <marker
       orient="auto"
       refY="0"
       refX="0"
       id="StopM"
       style="overflow:visible">
      <path
         id="path3933"
         d="M 0,5.65 V -5.65"
         style="fill:none;fill-opacity:0.75;fill-rule:evenodd;stroke:#000000;stroke-width:1.00000003pt"
         transform="scale(0.4)" />
    </marker>
    <marker
       orient="auto"
       refY="0"
       refX="0"
       id="Arrow1Mend"
       style="overflow:visible">
      <path
         id="path3770"
         d="M 0,0 5,-5 -12.5,0 5,5 Z"
         style="fill-rule:evenodd;stroke:#000000;stroke-width:1.00000003pt"
         transform="matrix(-0.4,0,0,-0.4,-4,0)" />
    </marker>
  </defs>
  <metadata
     id="metadata7">
    <rdf:RDF>
      <cc:Work
         rdf:about="">
        <dc:format>image/svg+xml</dc:format>
        <dc:type
           rdf:resource="http://purl.org/dc/dcmitype/StillImage" />
        <dc:title />
      </cc:Work>
    </rdf:RDF>
  </metadata>
  <g
     id="layer1"
     transform="translate(-99.212596,-9.3165132)">
    <path
       style="fill:#afdde9;fill-opacity:1;stroke:#000000;stroke-width:1px;stroke-linecap:butt;stroke-linejoin:miter;stroke-opacity:1;marker-start:url(#InfiniteLineStart);marker-end:url(#InfiniteLineEnd)"
       d="m 584.64565,24.803091 -216.14169,3.6e-5 V 198.42517 l 216.14169,-3e-5"
       id="path3552" />
    <g
       id="g3547">
      <path
         id="path3103"
         d="m 279.92126,177.16533 3.54331,-10.62992 h 53.14961 l 0.0384,10.62992 -0.0384,10.62992 h -53.14961 z"
         style="fill:#c6afe9;stroke:none" />
      <g
         aria-label="Octet reçu"
         id="text3105"
         style="font-size:10px;line-height:0%;font-family:Iwona;-inkscape-font-specification:Iwona;text-align:center;letter-spacing:0px;word-spacing:0px;text-anchor:middle">
        <path
           d="m 293.0693,176.46533 c 0,-2.12 -1.1,-3.6 -3.12,-3.6 -2.03,0 -3.13,1.48 -3.13,3.6 0,2.12 1.1,3.6 3.13,3.6 2.02,0 3.12,-1.48 3.12,-3.6 z m -0.98,0 c 0,1.75 -0.58,3.14 -2.14,3.14 -1.57,0 -2.15,-1.39 -2.15,-3.14 0,-1.75 0.58,-3.14 2.15,-3.14 1.56,0 2.14,1.39 2.14,3.14 z"
           style="line-height:1.25"
           id="path81" />
        <path
           d="m 297.70929,176.50533 v -0.42 c -0.32,-0.45 -0.84,-0.72 -1.4,-0.72 -1.25,0 -2.09,0.94 -2.09,2.35 0,1.41 0.84,2.35 2.09,2.35 0.52,0 1.01,-0.26 1.3,-0.69 v -0.42 c -0.34,0.51 -0.69,0.69 -1.3,0.69 -0.72,0 -1.21,-0.77 -1.21,-1.93 0,-1.16 0.49,-1.93 1.21,-1.93 0.62,0 1.04,0.22 1.4,0.72 z"
           style="line-height:1.25"
           id="path83" />
        <path
           d="m 300.87928,179.61533 v -0.3 c -0.16,0.16 -0.35,0.29 -0.58,0.29 -0.36,0 -0.38,-0.47 -0.38,-0.89 v -2.83 h 0.96 v -0.42 h -0.96 v -1.5 h -0.47 c 0,0.8 -0.46,1.55 -1.19,1.55 v 0.37 h 0.88 v 2.83 c 0,0.66 0.21,1.35 0.78,1.35 0.37,0 0.69,-0.2 0.96,-0.45 z"
           style="line-height:1.25"
           id="path85" />
        <path
           d="m 305.59926,177.81533 v -0.1 c 0,-1.41 -0.77,-2.35 -1.93,-2.35 -1.17,0 -1.94,0.94 -1.94,2.35 0,1.41 0.77,2.35 1.94,2.35 0.5,0 0.99,-0.16 1.4,-0.45 v -0.42 c -0.47,0.3 -0.85,0.41 -1.4,0.41 -0.85,0 -1.06,-0.81 -1.06,-1.79 z m -0.88,-0.42 h -2.11 c 0,-0.8 0.34,-1.61 1.06,-1.61 0.71,0 1.05,0.81 1.05,1.61 z"
           style="line-height:1.25"
           id="path87" />
        <path
           d="m 309.01925,179.61533 v -0.3 c -0.16,0.16 -0.35,0.29 -0.58,0.29 -0.36,0 -0.38,-0.47 -0.38,-0.89 v -2.83 h 0.96 v -0.42 h -0.96 v -1.5 h -0.47 c 0,0.8 -0.46,1.55 -1.19,1.55 v 0.37 h 0.88 v 2.83 c 0,0.66 0.21,1.35 0.78,1.35 0.37,0 0.69,-0.2 0.96,-0.45 z"
           style="line-height:1.25"
           id="path89" />
        <path
           d="m 315.93922,176.08533 v -0.62 c -0.11,-0.04 -0.23,-0.07 -0.34,-0.07 -0.56,0 -1.01,0.39 -1.37,0.82 v -0.75 h -0.78 v 4.5 h 0.78 v -3.33 c 0.3,-0.35 0.68,-0.65 1.14,-0.65 0.19,0 0.39,0.04 0.57,0.1 z"
           style="line-height:1.25"
           id="path91" />
        <path
           d="m 320.55921,177.81533 v -0.1 c 0,-1.41 -0.77,-2.35 -1.93,-2.35 -1.17,0 -1.94,0.94 -1.94,2.35 0,1.41 0.77,2.35 1.94,2.35 0.5,0 0.99,-0.16 1.4,-0.45 v -0.42 c -0.47,0.3 -0.85,0.41 -1.4,0.41 -0.85,0 -1.06,-0.81 -1.06,-1.79 z m -0.88,-0.42 h -2.11 c 0,-0.8 0.34,-1.61 1.06,-1.61 0.71,0 1.05,0.81 1.05,1.61 z"
           style="line-height:1.25"
           id="path93" />
        <path
           d="m 325.09919,176.50533 v -0.42 c -0.32,-0.45 -0.84,-0.72 -1.4,-0.72 -1.25,0 -2.09,0.94 -2.09,2.35 0,1.38 0.8,2.31 2.01,2.35 0.23,0.29 0.36,0.65 0.36,1.02 0,0.38 -0.14,0.76 -0.46,0.76 -0.17,0 -0.32,-0.03 -0.47,-0.1 v 0.28 c 0.23,0.16 0.51,0.24 0.79,0.24 0.46,0 0.79,-0.44 0.79,-0.92 0,-0.52 -0.24,-1 -0.64,-1.31 0.41,-0.07 0.77,-0.31 1.01,-0.66 v -0.42 c -0.34,0.51 -0.69,0.69 -1.3,0.69 -0.72,0 -1.21,-0.77 -1.21,-1.93 0,-1.16 0.49,-1.93 1.21,-1.93 0.62,0 1.04,0.22 1.4,0.72 z"
           style="line-height:1.25"
           id="path95" />
        <path
           d="m 329.71918,179.96533 v -4.5 h -0.78 v 3.53 c -0.34,0.34 -0.76,0.61 -1.23,0.61 -0.47,0 -0.83,-0.41 -0.83,-0.89 v -3.25 h -0.78 v 3.25 c 0,0.73 0.56,1.35 1.28,1.35 0.6,0 1.13,-0.34 1.56,-0.76 v 0.66 z"
           style="line-height:1.25"
           id="path97" />
      </g>
    </g>
    <g
       aria-label="SPIMaster"
       id="text3157"
       style="font-size:25px;line-height:0%;font-family:Iwona;-inkscape-font-specification:Iwona">
      <path
         d="m 468.2183,116.33912 c 0,-3.075 -3.125,-4.9 -6.35,-5.575 -2.15,-0.45 -4.575,-1 -4.575,-3 0,-1.975 2.125,-3.1 4.325,-3.1 2.025,0 4,0.6 5.6,1.85 v -1 c -1.6,-1.25 -3.575,-2 -5.6,-2 -3.25,0 -6.3,1.825 -6.3,4.775 0,2.825 3.05,4.25 6.025,4.875 2.375,0.5 4.9,1.475 4.9,3.7 0,2.275 -2.225,3.8 -4.625,3.8 -2.325,0 -4.625,-0.6 -6.575,-1.85 v 1 c 1.975,1.25 4.225,2 6.575,2 3.45,0 6.6,-2.225 6.6,-5.475 z"
         style="line-height:1.25"
         id="path100" />
      <path
         d="m 485.34329,108.66412 c 0,-3.525 -3.025,-5 -6.95,-5 -1.4,0 -2.8,0.075 -4.175,0.25 h -2 v 17.5 h 2.05 v -8.125 c 1.35,0.25 2.75,0.4 4.125,0.4 3.925,0 6.95,-1.475 6.95,-5.025 z m -2.45,0 c 0,2.275 -2.125,3.875 -4.5,3.875 -1.375,0 -2.775,-0.15 -4.125,-0.4 v -7.075 c 1.375,-0.175 2.75,-0.25 4.125,-0.25 2.375,0 4.5,1.6 4.5,3.85 z"
         style="line-height:1.25"
         id="path102" />
      <path
         d="m 491.39328,121.41412 v -17.5 h -2.05 v 17.5 z"
         style="line-height:1.25"
         id="path104" />
      <path
         d="m 514.76826,121.41412 -1,-17.5 h -1.65 l -7.025,14.775 -7.05,-14.775 h -1.65 l -1,17.5 h 1.15 l 0.8,-14.175 6.775,14.175 h 0.925 l 6.85,-14.35 0.825,14.35 z"
         style="line-height:1.25"
         id="path106" />
      <path
         d="m 527.06823,121.41412 v -7 c 0,-2.35 -1.45,-4.5 -3.625,-4.5 -1.6,0 -3.1,0.55 -4.45,1.4 v 0.775 c 1.125,-0.625 2.375,-1.025 3.675,-1.025 1.55,0 2.45,1.65 2.45,3.35 v 0.45 c -0.975,-0.425 -2.025,-0.675 -3.075,-0.675 -2.675,0 -4.65,1.225 -4.65,3.75 0,2.4 1.75,3.725 4.275,3.725 1.275,0 2.45,-0.575 3.45,-1.375 v 1.125 z m -1.95,-2.175 c -0.75,0.75 -1.675,1.375 -2.75,1.375 -1.675,0 -2.775,-1.025 -2.775,-2.675 0,-1.525 1.25,-2.7 2.775,-2.7 0.95,0 1.9,0.25 2.75,0.675 z"
         style="line-height:1.25"
         id="path108" />
      <path
         d="m 538.66821,118.21412 c 0,-1.975 -2.1,-3 -4.15,-3.5 -1.2,-0.3 -2.5,-0.8 -2.5,-1.975 0,-1.075 1.1,-1.775 2.3,-1.775 1.325,0 2.65,0.4 3.75,1.125 v -1.05 c -1.1,-0.725 -2.425,-1.125 -3.75,-1.125 -2.175,0 -4.175,1.325 -4.175,3.35 0,1.825 2.025,2.675 3.95,3.15 1.325,0.325 2.7,1.025 2.7,2.3 0,1.175 -1.2,1.9 -2.475,1.9 -1.55,0 -3.05,-0.375 -4.375,-1.125 v 1.05 c 1.325,0.75 2.825,1.125 4.375,1.125 2.25,0 4.35,-1.35 4.35,-3.45 z"
         style="line-height:1.25"
         id="path110" />
      <path
         d="m 547.09318,120.53912 v -0.75 c -0.4,0.4 -0.875,0.725 -1.45,0.725 -0.9,0 -0.95,-1.175 -0.95,-2.225 v -7.075 h 2.4 v -1.05 h -2.4 v -3.75 h -1.175 c 0,2 -1.15,3.875 -2.975,3.875 v 0.925 h 2.2 v 7.075 c 0,1.65 0.525,3.375 1.95,3.375 0.925,0 1.725,-0.5 2.4,-1.125 z"
         style="line-height:1.25"
         id="path112" />
      <path
         d="m 558.89315,116.03912 v -0.25 c 0,-3.525 -1.925,-5.875 -4.825,-5.875 -2.925,0 -4.85,2.35 -4.85,5.875 0,3.525 1.925,5.875 4.85,5.875 1.25,0 2.475,-0.4 3.5,-1.125 v -1.05 c -1.175,0.75 -2.125,1.025 -3.5,1.025 -2.125,0 -2.65,-2.025 -2.65,-4.475 z m -2.2,-1.05 h -5.275 c 0,-2 0.85,-4.025 2.65,-4.025 1.775,0 2.625,2.025 2.625,4.025 z"
         style="line-height:1.25"
         id="path114" />
      <path
         d="m 568.36811,111.71412 v -1.55 c -0.275,-0.1 -0.575,-0.175 -0.85,-0.175 -1.4,0 -2.525,0.975 -3.425,2.05 v -1.875 h -1.95 v 11.25 h 1.95 v -8.325 c 0.75,-0.875 1.7,-1.625 2.85,-1.625 0.475,0 0.975,0.1 1.425,0.25 z"
         style="line-height:1.25"
         id="path116" />
    </g>
    <path
       style="fill:#afdde9;fill-opacity:1;fill-rule:evenodd;stroke:#000000;stroke-width:1px;stroke-linecap:butt;stroke-linejoin:miter;stroke-opacity:1"
       d="m 361.41735,77.952727 v 21.259849 h 17.71652 L 389.7638,88.582657 379.13387,77.952727 Z"
       id="path4655" />
    <path
       id="path4661"
       d="m 382.67716,127.55903 v 21.25985 h -17.71652 l -10.62993,-10.62992 10.62993,-10.62993 z"
       style="fill:#afdde9;fill-opacity:1;fill-rule:evenodd;stroke:#000000;stroke-width:1px;stroke-linecap:butt;stroke-linejoin:miter;stroke-opacity:1" />
    <path
       id="path4667"
       d="m 361.41734,38.976356 v 21.259848 h 17.71652 l 10.62993,-10.62992 -10.62993,-10.629928 z"
       style="fill:#afdde9;fill-opacity:1;fill-rule:evenodd;stroke:#000000;stroke-width:1px;stroke-linecap:butt;stroke-linejoin:miter;stroke-opacity:1" />
    <path
       style="fill:#afdde9;fill-opacity:1;fill-rule:evenodd;stroke:#000000;stroke-width:1px;stroke-linecap:butt;stroke-linejoin:miter;stroke-opacity:1"
       d="m 382.67716,166.53541 v 21.25986 h -17.71652 l -10.62993,-10.62992 10.62993,-10.62994 z"
       id="path4673" />
    <g
       id="g5936"
       transform="translate(-35.394639)"
       style="stroke:none">
      <path
         style="fill:#c6afe9;stroke:none"
         d="m 180.70866,88.582655 3.54331,-10.629921 h 152.32377 l 3.5433,10.629921 -3.5433,10.629921 H 184.25197 Z"
         id="path5938" />
      <g
         aria-label="Octet à envoyer"
         id="text5940"
         style="font-size:10px;line-height:0%;font-family:Iwona;-inkscape-font-specification:Iwona;text-align:center;letter-spacing:0px;word-spacing:0px;text-anchor:middle">
        <path
           d="m 233.31138,87.882652 c 0,-2.12 -1.1,-3.6 -3.12,-3.6 -2.03,0 -3.13,1.48 -3.13,3.6 0,2.12 1.1,3.6 3.13,3.6 2.02,0 3.12,-1.48 3.12,-3.6 z m -0.98,0 c 0,1.75 -0.58,3.14 -2.14,3.14 -1.57,0 -2.15,-1.39 -2.15,-3.14 0,-1.75 0.58,-3.14 2.15,-3.14 1.56,0 2.14,1.39 2.14,3.14 z"
           style="line-height:1.25"
           id="path119" />
        <path
           d="m 237.95137,87.922652 v -0.42 c -0.32,-0.45 -0.84,-0.72 -1.4,-0.72 -1.25,0 -2.09,0.94 -2.09,2.35 0,1.41 0.84,2.35 2.09,2.35 0.52,0 1.01,-0.26 1.3,-0.69 v -0.42 c -0.34,0.51 -0.69,0.69 -1.3,0.69 -0.72,0 -1.21,-0.77 -1.21,-1.93 0,-1.16 0.49,-1.93 1.21,-1.93 0.62,0 1.04,0.22 1.4,0.72 z"
           style="line-height:1.25"
           id="path121" />
        <path
           d="m 241.12136,91.032652 v -0.3 c -0.16,0.16 -0.35,0.29 -0.58,0.29 -0.36,0 -0.38,-0.47 -0.38,-0.89 v -2.83 h 0.96 v -0.42 h -0.96 v -1.5 h -0.47 c 0,0.8 -0.46,1.55 -1.19,1.55 v 0.37 h 0.88 v 2.83 c 0,0.66 0.21,1.35 0.78,1.35 0.37,0 0.69,-0.2 0.96,-0.45 z"
           style="line-height:1.25"
           id="path123" />
        <path
           d="m 245.84134,89.232652 v -0.1 c 0,-1.41 -0.77,-2.35 -1.93,-2.35 -1.17,0 -1.94,0.94 -1.94,2.35 0,1.41 0.77,2.35 1.94,2.35 0.5,0 0.99,-0.16 1.4,-0.45 v -0.42 c -0.47,0.3 -0.85,0.41 -1.4,0.41 -0.85,0 -1.06,-0.81 -1.06,-1.79 z m -0.88,-0.42 h -2.11 c 0,-0.8 0.34,-1.61 1.06,-1.61 0.71,0 1.05,0.81 1.05,1.61 z"
           style="line-height:1.25"
           id="path125" />
        <path
           d="m 249.26133,91.032652 v -0.3 c -0.16,0.16 -0.35,0.29 -0.58,0.29 -0.36,0 -0.38,-0.47 -0.38,-0.89 v -2.83 h 0.96 v -0.42 h -0.96 v -1.5 h -0.47 c 0,0.8 -0.46,1.55 -1.19,1.55 v 0.37 h 0.88 v 2.83 c 0,0.66 0.21,1.35 0.78,1.35 0.37,0 0.69,-0.2 0.96,-0.45 z"
           style="line-height:1.25"
           id="path127" />
        <path
           d="m 257.2113,91.382652 v -2.8 c 0,-0.94 -0.58,-1.8 -1.45,-1.8 -0.64,0 -1.24,0.22 -1.78,0.56 v 0.31 c 0.45,-0.25 0.95,-0.41 1.47,-0.41 0.62,0 0.98,0.66 0.98,1.34 v 0.18 c -0.39,-0.17 -0.81,-0.27 -1.23,-0.27 -1.07,0 -1.86,0.49 -1.86,1.5 0,0.96 0.7,1.49 1.71,1.49 0.51,0 0.98,-0.23 1.38,-0.55 v 0.45 z m -0.78,-0.87 c -0.3,0.3 -0.67,0.55 -1.1,0.55 -0.67,0 -1.11,-0.41 -1.11,-1.07 0,-0.61 0.5,-1.08 1.11,-1.08 0.38,0 0.76,0.1 1.1,0.27 z m -0.56,-4.26 c -0.39,-0.54 -0.6,-1.2 -0.6,-1.87 h -0.9 c 0,0.75 0.55,1.34 1.08,1.87 z"
           style="line-height:1.25"
           id="path129" />
        <path
           d="m 265.76127,89.232652 v -0.1 c 0,-1.41 -0.77,-2.35 -1.93,-2.35 -1.17,0 -1.94,0.94 -1.94,2.35 0,1.41 0.77,2.35 1.94,2.35 0.5,0 0.99,-0.16 1.4,-0.45 v -0.42 c -0.47,0.3 -0.85,0.41 -1.4,0.41 -0.85,0 -1.06,-0.81 -1.06,-1.79 z m -0.88,-0.42 h -2.11 c 0,-0.8 0.34,-1.61 1.06,-1.61 0.71,0 1.05,0.81 1.05,1.61 z"
           style="line-height:1.25"
           id="path131" />
        <path
           d="m 270.68126,91.382652 v -3.25 c 0,-0.73 -0.56,-1.35 -1.28,-1.35 -0.6,0 -1.13,0.34 -1.56,0.76 v -0.66 h -0.78 v 4.5 h 0.78 v -3.53 c 0.34,-0.34 0.76,-0.61 1.23,-0.61 0.47,0 0.83,0.41 0.83,0.89 v 3.25 z"
           style="line-height:1.25"
           id="path133" />
        <path
           d="m 275.40124,86.882652 h -0.45 l -1.36,3.74 -1.32,-3.74 h -0.74 l 1.58,4.5 h 0.65 z"
           style="line-height:1.25"
           id="path135" />
        <path
           d="m 279.92124,89.132652 c 0,-1.53 -0.68,-2.35 -1.93,-2.35 -1.26,0 -1.94,0.82 -1.94,2.35 0,1.53 0.68,2.35 1.94,2.35 1.25,0 1.93,-0.82 1.93,-2.35 z m -0.88,0 c 0,1.25 -0.37,1.93 -1.05,1.93 -0.69,0 -1.06,-0.68 -1.06,-1.93 0,-1.25 0.37,-1.93 1.06,-1.93 0.68,0 1.05,0.68 1.05,1.93 z"
           style="line-height:1.25"
           id="path137" />
        <path
           d="m 284.84124,91.982652 v -5.1 h -0.78 v 3.53 c -0.34,0.34 -0.76,0.61 -1.23,0.61 -0.47,0 -0.83,-0.41 -0.83,-0.89 v -3.25 h -0.78 v 3.25 c 0,0.73 0.56,1.35 1.28,1.35 0.6,0 1.13,-0.34 1.56,-0.76 v 1.26 c 0,0.67 -0.3,1.34 -0.9,1.34 -0.47,0 -0.92,-0.1 -1.35,-0.27 v 0.31 c 0.51,0.26 1.08,0.42 1.66,0.42 0.85,0 1.37,-0.88 1.37,-1.8 z"
           style="line-height:1.25"
           id="path139" />
        <path
           d="m 290.06122,89.232652 v -0.1 c 0,-1.41 -0.77,-2.35 -1.93,-2.35 -1.17,0 -1.94,0.94 -1.94,2.35 0,1.41 0.77,2.35 1.94,2.35 0.5,0 0.99,-0.16 1.4,-0.45 v -0.42 c -0.47,0.3 -0.85,0.41 -1.4,0.41 -0.85,0 -1.06,-0.81 -1.06,-1.79 z m -0.88,-0.42 h -2.11 c 0,-0.8 0.34,-1.61 1.06,-1.61 0.71,0 1.05,0.81 1.05,1.61 z"
           style="line-height:1.25"
           id="path141" />
        <path
           d="m 293.8512,87.502652 v -0.62 c -0.11,-0.04 -0.23,-0.07 -0.34,-0.07 -0.56,0 -1.01,0.39 -1.37,0.82 v -0.75 h -0.78 v 4.5 h 0.78 v -3.33 c 0.3,-0.35 0.68,-0.65 1.14,-0.65 0.19,0 0.39,0.04 0.57,0.1 z"
           style="line-height:1.25"
           id="path143" />
      </g>
    </g>
    <path
       style="fill:none;stroke:#000000;stroke-width:1px;stroke-linecap:butt;stroke-linejoin:miter;stroke-opacity:1"
       d="m 106.29921,60.236199 h 35.43307 l 7.08662,-20.930821 c 105.11811,0 -94.488191,0 10.62992,0 l 7.08662,20.930821 h 170.07873"
       id="path5435" />
    <path
       style="fill:none;stroke:#999999;stroke-width:1px;stroke-linecap:butt;stroke-linejoin:miter;stroke-opacity:1"
       d="m 145.27559,28.346435 v 35.43307 0 0"
       id="path5992" />
    <path
       id="path6200"
       style="fill:none;stroke:#000000;stroke-width:1px;stroke-linecap:butt;stroke-linejoin:miter;stroke-opacity:1"
       d="m 106.29921,99.212575 35.43307,-1e-5 7.08662,-21.259831 h 152.3622 l 7.08661,21.259831 h 28.34645" />
    <path
       id="path5371"
       d="m 145.27559,31.889742 h 14.17323"
       style="fill:none;stroke:#000000;stroke-width:1px;stroke-linecap:butt;stroke-linejoin:miter;stroke-opacity:1;marker-start:url(#StopM);marker-end:url(#Arrow1Mend)" />
    <g
       aria-label="start_i"
       id="text6422"
       style="font-size:15px;line-height:0%;font-family:Iwona;-inkscape-font-specification:Iwona;letter-spacing:0px;word-spacing:0px">
      <path
         d="m 399.06707,51.229548 c 0,-1.185 -1.26,-1.8 -2.49,-2.1 -0.72,-0.18 -1.5,-0.48 -1.5,-1.185 0,-0.645 0.66,-1.065 1.38,-1.065 0.795,0 1.59,0.24 2.25,0.675 v -0.63 c -0.66,-0.435 -1.455,-0.675 -2.25,-0.675 -1.305,0 -2.505,0.795 -2.505,2.01 0,1.095 1.215,1.605 2.37,1.89 0.795,0.195 1.62,0.615 1.62,1.38 0,0.705 -0.72,1.14 -1.485,1.14 -0.93,0 -1.83,-0.225 -2.625,-0.675 v 0.63 c 0.795,0.45 1.695,0.675 2.625,0.675 1.35,0 2.61,-0.81 2.61,-2.07 z"
         style="line-height:1.25"
         id="path146" />
      <path
         d="m 404.12205,52.624548 v -0.45 c -0.24,0.24 -0.525,0.435 -0.87,0.435 -0.54,0 -0.57,-0.705 -0.57,-1.335 v -4.245 h 1.44 v -0.63 h -1.44 v -2.25 h -0.705 c 0,1.2 -0.69,2.325 -1.785,2.325 v 0.555 h 1.32 v 4.245 c 0,0.99 0.315,2.025 1.17,2.025 0.555,0 1.035,-0.3 1.44,-0.675 z"
         style="line-height:1.25"
         id="path148" />
      <path
         d="m 411.05203,53.149548 v -4.2 c 0,-1.41 -0.87,-2.7 -2.175,-2.7 -0.96,0 -1.86,0.33 -2.67,0.84 v 0.465 c 0.675,-0.375 1.425,-0.615 2.205,-0.615 0.93,0 1.47,0.99 1.47,2.01 v 0.27 c -0.585,-0.255 -1.215,-0.405 -1.845,-0.405 -1.605,0 -2.79,0.735 -2.79,2.25 0,1.44 1.05,2.235 2.565,2.235 0.765,0 1.47,-0.345 2.07,-0.825 v 0.675 z m -1.17,-1.305 c -0.45,0.45 -1.005,0.825 -1.65,0.825 -1.005,0 -1.665,-0.615 -1.665,-1.605 0,-0.915 0.75,-1.62 1.665,-1.62 0.57,0 1.14,0.15 1.65,0.405 z"
         style="line-height:1.25"
         id="path150" />
      <path
         d="m 417.18702,47.329548 v -0.93 c -0.165,-0.06 -0.345,-0.105 -0.51,-0.105 -0.84,0 -1.515,0.585 -2.055,1.23 v -1.125 h -1.17 v 6.75 h 1.17 v -4.995 c 0.45,-0.525 1.02,-0.975 1.71,-0.975 0.285,0 0.585,0.06 0.855,0.15 z"
         style="line-height:1.25"
         id="path152" />
      <path
         d="m 421.95698,52.624548 v -0.45 c -0.24,0.24 -0.525,0.435 -0.87,0.435 -0.54,0 -0.57,-0.705 -0.57,-1.335 v -4.245 h 1.44 v -0.63 h -1.44 v -2.25 h -0.705 c 0,1.2 -0.69,2.325 -1.785,2.325 v 0.555 h 1.32 v 4.245 c 0,0.99 0.315,2.025 1.17,2.025 0.555,0 1.035,-0.3 1.44,-0.675 z"
         style="line-height:1.25"
         id="path154" />
      <path
         d="m 429.90696,54.874548 v -0.75 h -7.5 v 0.75 z"
         style="line-height:1.25"
         id="path156" />
      <path
         d="m 433.85193,52.624548 v -0.45 c -0.285,0.24 -0.615,0.435 -0.99,0.435 -0.555,0 -0.66,-0.69 -0.66,-1.335 v -4.875 h -1.17 v 4.875 c 0,1.005 0.39,2.025 1.275,2.025 0.57,0 1.11,-0.285 1.545,-0.675 z m -1.5,-8.565 c 0,-0.405 -0.33,-0.735 -0.735,-0.735 -0.405,0 -0.735,0.33 -0.735,0.735 0,0.405 0.33,0.735 0.735,0.735 0.405,0 0.735,-0.33 0.735,-0.735 z"
         style="line-height:1.25"
         id="path158" />
    </g>
    <g
       aria-label="pdata_i"
       id="text6426"
       style="font-size:15px;line-height:0%;font-family:Iwona;-inkscape-font-specification:Iwona;letter-spacing:0px;word-spacing:0px">
      <path
         d="m 400.23707,88.750923 c 0,-1.995 -0.75,-3.525 -2.565,-3.525 -0.765,0 -1.47,0.345 -2.07,0.825 v -0.675 h -1.17 v 10.2 h 1.17 v -3.705 c 0.585,0.255 1.215,0.405 1.845,0.405 1.875,0 2.79,-1.5 2.79,-3.525 z m -1.32,0 c 0,1.41 -0.435,2.895 -1.665,2.895 -0.57,0 -1.14,-0.15 -1.65,-0.405 v -4.56 c 0.45,-0.45 1.005,-0.825 1.65,-0.825 1.365,0 1.665,1.32 1.665,2.895 z"
         style="line-height:1.25"
         id="path161" />
      <path
         d="m 407.69204,92.125923 v -10.5 h -1.17 v 4.005 c -0.585,-0.255 -1.215,-0.405 -1.845,-0.405 -1.875,0 -2.79,1.5 -2.79,3.525 0,1.995 0.75,3.525 2.565,3.525 0.765,0 1.47,-0.345 2.07,-0.825 v 0.675 z m -1.17,-1.305 c -0.45,0.45 -1.005,0.825 -1.65,0.825 -1.365,0 -1.665,-1.32 -1.665,-2.895 0,-1.41 0.435,-2.895 1.665,-2.895 0.57,0 1.14,0.15 1.65,0.405 z"
         style="line-height:1.25"
         id="path163" />
      <path
         d="m 415.37203,92.125923 v -4.2 c 0,-1.41 -0.87,-2.7 -2.175,-2.7 -0.96,0 -1.86,0.33 -2.67,0.84 v 0.465 c 0.675,-0.375 1.425,-0.615 2.205,-0.615 0.93,0 1.47,0.99 1.47,2.01 v 0.27 c -0.585,-0.255 -1.215,-0.405 -1.845,-0.405 -1.605,0 -2.79,0.735 -2.79,2.25 0,1.44 1.05,2.235 2.565,2.235 0.765,0 1.47,-0.345 2.07,-0.825 v 0.675 z m -1.17,-1.305 c -0.45,0.45 -1.005,0.825 -1.65,0.825 -1.005,0 -1.665,-0.615 -1.665,-1.605 0,-0.915 0.75,-1.62 1.665,-1.62 0.57,0 1.14,0.15 1.65,0.405 z"
         style="line-height:1.25"
         id="path165" />
      <path
         d="m 420.95202,91.600923 v -0.45 c -0.24,0.24 -0.525,0.435 -0.87,0.435 -0.54,0 -0.57,-0.705 -0.57,-1.335 v -4.245 h 1.44 v -0.63 h -1.44 v -2.25 h -0.705 c 0,1.2 -0.69,2.325 -1.785,2.325 v 0.555 h 1.32 v 4.245 c 0,0.99 0.315,2.025 1.17,2.025 0.555,0 1.035,-0.3 1.44,-0.675 z"
         style="line-height:1.25"
         id="path167" />
      <path
         d="m 427.882,92.125923 v -4.2 c 0,-1.41 -0.87,-2.7 -2.175,-2.7 -0.96,0 -1.86,0.33 -2.67,0.84 v 0.465 c 0.675,-0.375 1.425,-0.615 2.205,-0.615 0.93,0 1.47,0.99 1.47,2.01 v 0.27 c -0.585,-0.255 -1.215,-0.405 -1.845,-0.405 -1.605,0 -2.79,0.735 -2.79,2.25 0,1.44 1.05,2.235 2.565,2.235 0.765,0 1.47,-0.345 2.07,-0.825 v 0.675 z m -1.17,-1.305 c -0.45,0.45 -1.005,0.825 -1.65,0.825 -1.005,0 -1.665,-0.615 -1.665,-1.605 0,-0.915 0.75,-1.62 1.665,-1.62 0.57,0 1.14,0.15 1.65,0.405 z"
         style="line-height:1.25"
         id="path169" />
      <path
         d="m 436.58199,93.850923 v -0.75 h -7.5 v 0.75 z"
         style="line-height:1.25"
         id="path171" />
      <path
         d="m 440.52695,91.600923 v -0.45 c -0.285,0.24 -0.615,0.435 -0.99,0.435 -0.555,0 -0.66,-0.69 -0.66,-1.335 v -4.875 h -1.17 v 4.875 c 0,1.005 0.39,2.025 1.275,2.025 0.57,0 1.11,-0.285 1.545,-0.675 z m -1.5,-8.565 c 0,-0.405 -0.33,-0.735 -0.735,-0.735 -0.405,0 -0.735,0.33 -0.735,0.735 0,0.405 0.33,0.735 0.735,0.735 0.405,0 0.735,-0.33 0.735,-0.735 z"
         style="line-height:1.25"
         id="path173" />
    </g>
    <path
       d="m 106.29921,77.952734 h 35.43307 l 7.08662,21.259831 h 152.3622 l 7.08661,-21.259831 h 28.34645"
       style="fill:none;stroke:#000000;stroke-width:1px;stroke-linecap:butt;stroke-linejoin:miter;stroke-opacity:1"
       id="path6449" />
    <g
       aria-label="Tclk"
       id="text5988"
       style="line-height:0%;font-family:Iwona;-inkscape-font-specification:Iwona;letter-spacing:0px;word-spacing:0px">
      <path
         d="m 152.11559,16.955127 v -0.552 h -6.6 v 0.552 h 2.808 v 7.848 h 0.984 v -7.848 z"
         style="font-size:12px;line-height:1.25"
         id="path176" />
      <path
         d="m 155.50681,24.50429 v -0.327605 c -0.2496,-0.351004 -0.65521,-0.561607 -1.09201,-0.561607 -0.97502,0 -1.63023,0.73321 -1.63023,1.833025 0,1.099815 0.65521,1.833025 1.63023,1.833025 0.4056,0 0.78781,-0.202802 1.01401,-0.538207 v -0.327605 c -0.2652,0.397806 -0.53821,0.538208 -1.01401,0.538208 -0.56161,0 -0.94382,-0.600608 -0.94382,-1.505421 0,-0.904812 0.38221,-1.505421 0.94382,-1.505421 0.4836,0 0.81121,0.171603 1.09201,0.561608 z"
         style="font-size:65.0009%;baseline-shift:sub"
         id="path178" />
      <path
         d="M 157.79224,26.930124 V 26.69612 c -0.14821,0.124802 -0.31981,0.226203 -0.51481,0.226203 -0.28861,0 -0.34321,-0.358804 -0.34321,-0.694209 v -4.485062 h -0.60841 v 4.485062 c 0,0.522607 0.20281,1.053014 0.66301,1.053014 0.29641,0 0.57721,-0.148202 0.80342,-0.351004 z"
         style="font-size:65.0009%;baseline-shift:sub"
         id="path180" />
      <path
         d="m 161.59087,27.203127 -1.80962,-2.082628 1.74722,-1.42742 h -0.4836 l -1.86423,1.528821 v -3.478848 h -0.60841 v 5.460075 h 0.60841 v -1.942226 l 1.68482,1.942226 z"
         style="font-size:65.0009%;baseline-shift:sub"
         id="path182" />
    </g>
    <path
       id="path3075"
       d="m 162.99213,28.346435 v 35.43307 0 0"
       style="fill:none;stroke:#999999;stroke-width:1px;stroke-linecap:butt;stroke-linejoin:miter;stroke-opacity:1" />
    <g
       aria-label="pdata_o"
       id="text3079"
       style="font-size:15px;line-height:0%;font-family:Iwona;-inkscape-font-specification:Iwona;letter-spacing:0px;word-spacing:0px">
      <path
         d="m 400.23707,177.3336 c 0,-1.995 -0.75,-3.525 -2.565,-3.525 -0.765,0 -1.47,0.345 -2.07,0.825 v -0.675 h -1.17 v 10.2 h 1.17 v -3.705 c 0.585,0.255 1.215,0.405 1.845,0.405 1.875,0 2.79,-1.5 2.79,-3.525 z m -1.32,0 c 0,1.41 -0.435,2.895 -1.665,2.895 -0.57,0 -1.14,-0.15 -1.65,-0.405 v -4.56 c 0.45,-0.45 1.005,-0.825 1.65,-0.825 1.365,0 1.665,1.32 1.665,2.895 z"
         style="line-height:1.25"
         id="path185" />
      <path
         d="m 407.69204,180.7086 v -10.5 h -1.17 v 4.005 c -0.585,-0.255 -1.215,-0.405 -1.845,-0.405 -1.875,0 -2.79,1.5 -2.79,3.525 0,1.995 0.75,3.525 2.565,3.525 0.765,0 1.47,-0.345 2.07,-0.825 v 0.675 z m -1.17,-1.305 c -0.45,0.45 -1.005,0.825 -1.65,0.825 -1.365,0 -1.665,-1.32 -1.665,-2.895 0,-1.41 0.435,-2.895 1.665,-2.895 0.57,0 1.14,0.15 1.65,0.405 z"
         style="line-height:1.25"
         id="path187" />
      <path
         d="m 415.37203,180.7086 v -4.2 c 0,-1.41 -0.87,-2.7 -2.175,-2.7 -0.96,0 -1.86,0.33 -2.67,0.84 v 0.465 c 0.675,-0.375 1.425,-0.615 2.205,-0.615 0.93,0 1.47,0.99 1.47,2.01 v 0.27 c -0.585,-0.255 -1.215,-0.405 -1.845,-0.405 -1.605,0 -2.79,0.735 -2.79,2.25 0,1.44 1.05,2.235 2.565,2.235 0.765,0 1.47,-0.345 2.07,-0.825 v 0.675 z m -1.17,-1.305 c -0.45,0.45 -1.005,0.825 -1.65,0.825 -1.005,0 -1.665,-0.615 -1.665,-1.605 0,-0.915 0.75,-1.62 1.665,-1.62 0.57,0 1.14,0.15 1.65,0.405 z"
         style="line-height:1.25"
         id="path189" />
      <path
         d="m 420.95202,180.1836 v -0.45 c -0.24,0.24 -0.525,0.435 -0.87,0.435 -0.54,0 -0.57,-0.705 -0.57,-1.335 v -4.245 h 1.44 v -0.63 h -1.44 v -2.25 h -0.705 c 0,1.2 -0.69,2.325 -1.785,2.325 v 0.555 h 1.32 v 4.245 c 0,0.99 0.315,2.025 1.17,2.025 0.555,0 1.035,-0.3 1.44,-0.675 z"
         style="line-height:1.25"
         id="path191" />
      <path
         d="m 427.882,180.7086 v -4.2 c 0,-1.41 -0.87,-2.7 -2.175,-2.7 -0.96,0 -1.86,0.33 -2.67,0.84 v 0.465 c 0.675,-0.375 1.425,-0.615 2.205,-0.615 0.93,0 1.47,0.99 1.47,2.01 v 0.27 c -0.585,-0.255 -1.215,-0.405 -1.845,-0.405 -1.605,0 -2.79,0.735 -2.79,2.25 0,1.44 1.05,2.235 2.565,2.235 0.765,0 1.47,-0.345 2.07,-0.825 v 0.675 z m -1.17,-1.305 c -0.45,0.45 -1.005,0.825 -1.65,0.825 -1.005,0 -1.665,-0.615 -1.665,-1.605 0,-0.915 0.75,-1.62 1.665,-1.62 0.57,0 1.14,0.15 1.65,0.405 z"
         style="line-height:1.25"
         id="path193" />
      <path
         d="m 436.58199,182.4336 v -0.75 h -7.5 v 0.75 z"
         style="line-height:1.25"
         id="path195" />
      <path
         d="m 443.21195,177.3336 c 0,-2.295 -1.02,-3.525 -2.895,-3.525 -1.89,0 -2.91,1.23 -2.91,3.525 0,2.295 1.02,3.525 2.91,3.525 1.875,0 2.895,-1.23 2.895,-3.525 z m -1.32,0 c 0,1.875 -0.555,2.895 -1.575,2.895 -1.035,0 -1.59,-1.02 -1.59,-2.895 0,-1.875 0.555,-2.895 1.59,-2.895 1.02,0 1.575,1.02 1.575,2.895 z"
         style="line-height:1.25"
         id="path197" />
    </g>
    <path
       d="m 106.29921,166.53541 h 170.07874 l 7.08661,21.25984 h 53.14961"
       style="fill:none;stroke:#000000;stroke-width:1px;stroke-linecap:butt;stroke-linejoin:miter;stroke-opacity:1"
       id="path3083" />
    <path
       id="path3085"
       style="fill:none;stroke:#000000;stroke-width:1px;stroke-linecap:butt;stroke-linejoin:miter;stroke-opacity:1"
       d="m 106.29921,187.79525 h 170.07874 l 7.08661,-21.25984 h 53.14961" />
    <path
       id="path3087"
       d="M 336.61417,148.81888 H 301.1811 l -7.08662,-20.93083 c -105.11811,0 94.48819,0 -10.62992,0 l -7.08662,20.93083 H 106.29921"
       style="fill:none;stroke:#000000;stroke-width:1px;stroke-linecap:butt;stroke-linejoin:miter;stroke-opacity:1" />
    <path
       id="path3089"
       d="m 279.92126,116.92912 v 35.43307 0 0"
       style="fill:none;stroke:#999999;stroke-width:1px;stroke-linecap:butt;stroke-linejoin:miter;stroke-opacity:1" />
    <path
       style="fill:none;stroke:#000000;stroke-width:1px;stroke-linecap:butt;stroke-linejoin:miter;stroke-opacity:1;marker-start:url(#StopM);marker-end:url(#Arrow1Mend)"
       d="m 279.92126,120.47243 h 14.17323"
       id="path3091" />
    <g
       aria-label="Tclk"
       id="text3093"
       style="line-height:0%;font-family:Iwona;-inkscape-font-specification:Iwona;letter-spacing:0px;word-spacing:0px">
      <path
         d="m 286.76126,105.53781 v -0.552 h -6.6 v 0.552 h 2.808 v 7.848 h 0.984 v -7.848 z"
         style="font-size:12px;line-height:1.25"
         id="path200" />
      <path
         d="m 290.15249,113.08697 v -0.3276 c -0.24961,-0.35101 -0.65521,-0.56161 -1.09202,-0.56161 -0.97501,0 -1.63022,0.73321 -1.63022,1.83303 0,1.09981 0.65521,1.83302 1.63022,1.83302 0.40561,0 0.78781,-0.2028 1.01402,-0.53821 v -0.3276 c -0.26521,0.39781 -0.53821,0.53821 -1.01402,0.53821 -0.56161,0 -0.94381,-0.60061 -0.94381,-1.50542 0,-0.90482 0.3822,-1.50542 0.94381,-1.50542 0.48361,0 0.81121,0.1716 1.09202,0.5616 z"
         style="font-size:65.0009%;baseline-shift:sub"
         id="path202" />
      <path
         d="m 292.43791,115.51281 v -0.23401 c -0.1482,0.12481 -0.3198,0.22621 -0.51481,0.22621 -0.2886,0 -0.3432,-0.35881 -0.3432,-0.69421 v -4.48506 h -0.60841 v 4.48506 c 0,0.5226 0.2028,1.05301 0.66301,1.05301 0.2964,0 0.57721,-0.1482 0.80341,-0.351 z"
         style="font-size:65.0009%;baseline-shift:sub"
         id="path204" />
      <path
         d="m 296.23655,115.78581 -1.80963,-2.08263 1.74723,-1.42742 h -0.48361 l -1.86422,1.52882 v -3.47884 h -0.60841 v 5.46007 h 0.60841 v -1.94223 l 1.68482,1.94223 z"
         style="font-size:65.0009%;baseline-shift:sub"
         id="path206" />
    </g>
    <path
       style="fill:none;stroke:#999999;stroke-width:1px;stroke-linecap:butt;stroke-linejoin:miter;stroke-opacity:1"
       d="m 297.6378,116.92912 v 35.43307 0 0"
       id="path3099" />
    <g
       aria-label="done_o"
       id="text3554"
       style="font-size:15px;line-height:0%;font-family:Iwona;-inkscape-font-specification:Iwona;letter-spacing:0px;word-spacing:0px">
      <path
         d="m 399.93707,141.73222 v -10.5 h -1.17 v 4.005 c -0.585,-0.255 -1.215,-0.405 -1.845,-0.405 -1.875,0 -2.79,1.5 -2.79,3.525 0,1.995 0.75,3.525 2.565,3.525 0.765,0 1.47,-0.345 2.07,-0.825 v 0.675 z m -1.17,-1.305 c -0.45,0.45 -1.005,0.825 -1.65,0.825 -1.365,0 -1.665,-1.32 -1.665,-2.895 0,-1.41 0.435,-2.895 1.665,-2.895 0.57,0 1.14,0.15 1.65,0.405 z"
         style="line-height:1.25"
         id="path209" />
      <path
         d="m 407.76706,138.35722 c 0,-2.295 -1.02,-3.525 -2.895,-3.525 -1.89,0 -2.91,1.23 -2.91,3.525 0,2.295 1.02,3.525 2.91,3.525 1.875,0 2.895,-1.23 2.895,-3.525 z m -1.32,0 c 0,1.875 -0.555,2.895 -1.575,2.895 -1.035,0 -1.59,-1.02 -1.59,-2.895 0,-1.875 0.555,-2.895 1.59,-2.895 1.02,0 1.575,1.02 1.575,2.895 z"
         style="line-height:1.25"
         id="path211" />
      <path
         d="m 415.22205,141.73222 v -4.875 c 0,-1.095 -0.84,-2.025 -1.92,-2.025 -0.9,0 -1.695,0.51 -2.34,1.14 v -0.99 h -1.17 v 6.75 h 1.17 v -5.295 c 0.51,-0.51 1.14,-0.915 1.845,-0.915 0.705,0 1.245,0.615 1.245,1.335 v 4.875 z"
         style="line-height:1.25"
         id="path213" />
      <path
         d="m 422.97703,138.50722 v -0.15 c 0,-2.115 -1.155,-3.525 -2.895,-3.525 -1.755,0 -2.91,1.41 -2.91,3.525 0,2.115 1.155,3.525 2.91,3.525 0.75,0 1.485,-0.24 2.1,-0.675 v -0.63 c -0.705,0.45 -1.275,0.615 -2.1,0.615 -1.275,0 -1.59,-1.215 -1.59,-2.685 z m -1.32,-0.63 h -3.165 c 0,-1.2 0.51,-2.415 1.59,-2.415 1.065,0 1.575,1.215 1.575,2.415 z"
         style="line-height:1.25"
         id="path215" />
      <path
         d="m 431.22701,143.45722 v -0.75 h -7.5 v 0.75 z"
         style="line-height:1.25"
         id="path217" />
      <path
         d="m 437.85698,138.35722 c 0,-2.295 -1.02,-3.525 -2.895,-3.525 -1.89,0 -2.91,1.23 -2.91,3.525 0,2.295 1.02,3.525 2.91,3.525 1.875,0 2.895,-1.23 2.895,-3.525 z m -1.32,0 c 0,1.875 -0.555,2.895 -1.575,2.895 -1.035,0 -1.59,-1.02 -1.59,-2.895 0,-1.875 0.555,-2.895 1.59,-2.895 1.02,0 1.575,1.02 1.575,2.895 z"
         style="line-height:1.25"
         id="path219" />
    </g>
  </g>
</svg>
