<?xml version="1.0" encoding="UTF-8" standalone="no"?>
<!-- Created with Inkscape (http://www.inkscape.org/) -->

<svg
   width="544.25092"
   height="224.15747"
   id="svg2"
   version="1.1"
   viewBox="0 0 510.23525 210.14763"
   xmlns="http://www.w3.org/2000/svg"
   xmlns:svg="http://www.w3.org/2000/svg"
   xmlns:rdf="http://www.w3.org/1999/02/22-rdf-syntax-ns#"
   xmlns:cc="http://creativecommons.org/ns#"
   xmlns:dc="http://purl.org/dc/elements/1.1/">
  <defs
     id="defs4" />
  <metadata
     id="metadata7">
    <rdf:RDF>
      <cc:Work
         rdf:about="">
        <dc:format>image/svg+xml</dc:format>
        <dc:type
           rdf:resource="http://purl.org/dc/dcmitype/StillImage" />
        <dc:title />
      </cc:Work>
    </rdf:RDF>
  </metadata>
  <g
     id="layer1"
     transform="translate(-339.48813,-412.24901)">
    <path
       id="rect3112"
       style="fill:#afdde9;stroke:#000000;stroke-width:0.885827"
       d="M 425.19687,414.56693 H 761.81104 V 620.07874 H 425.19687 Z" />
    <g
       aria-label="SPIMaster"
       id="text3157"
       style="line-height:0%;font-family:Iwona;-inkscape-font-specification:Iwona;text-align:center;text-anchor:middle">
      <path
         d="m 524.64388,452.50994 c 0,-4.92 -5,-7.84 -10.16,-8.92 -3.44,-0.72 -7.32,-1.6 -7.32,-4.8 0,-3.16 3.4,-4.96 6.92,-4.96 3.24,0 6.4,0.96 8.96,2.96 v -1.6 c -2.56,-2 -5.72,-3.2 -8.96,-3.2 -5.2,0 -10.08,2.92 -10.08,7.64 0,4.52 4.88,6.8 9.64,7.8 3.8,0.8 7.84,2.36 7.84,5.92 0,3.64 -3.56,6.08 -7.4,6.08 -3.72,0 -7.4,-0.96 -10.52,-2.96 v 1.6 c 3.16,2 6.76,3.2 10.52,3.2 5.52,0 10.56,-3.56 10.56,-8.76 z"
         style="font-size:40px;line-height:1.25"
         id="path60" />
      <path
         d="m 552.04385,440.22994 c 0,-5.64 -4.84,-8 -11.12,-8 -2.24,0 -4.48,0.12 -6.68,0.4 h -3.2 v 28 h 3.28 v -13 c 2.16,0.4 4.4,0.64 6.6,0.64 6.28,0 11.12,-2.36 11.12,-8.04 z m -3.92,0 c 0,3.64 -3.4,6.2 -7.2,6.2 -2.2,0 -4.44,-0.24 -6.6,-0.64 v -11.32 c 2.2,-0.28 4.4,-0.4 6.6,-0.4 3.8,0 7.2,2.56 7.2,6.16 z"
         style="font-size:40px;line-height:1.25"
         id="path62" />
      <path
         d="m 561.72383,460.62994 v -28 h -3.28 v 28 z"
         style="font-size:40px;line-height:1.25"
         id="path64" />
      <path
         d="m 599.12382,460.62994 -1.6,-28 h -2.64 l -11.24,23.64 -11.28,-23.64 h -2.64 l -1.6,28 h 1.84 l 1.28,-22.68 10.84,22.68 h 1.48 l 10.96,-22.96 1.32,22.96 z"
         style="font-size:40px;line-height:1.25"
         id="path66" />
      <path
         d="m 618.80376,460.62994 v -11.2 c 0,-3.76 -2.32,-7.2 -5.8,-7.2 -2.56,0 -4.96,0.88 -7.12,2.24 v 1.24 c 1.8,-1 3.8,-1.64 5.88,-1.64 2.48,0 3.92,2.64 3.92,5.36 v 0.72 c -1.56,-0.68 -3.24,-1.08 -4.92,-1.08 -4.28,0 -7.44,1.96 -7.44,6 0,3.84 2.8,5.96 6.84,5.96 2.04,0 3.92,-0.92 5.52,-2.2 v 1.8 z m -3.12,-3.48 c -1.2,1.2 -2.68,2.2 -4.4,2.2 -2.68,0 -4.44,-1.64 -4.44,-4.28 0,-2.44 2,-4.32 4.44,-4.32 1.52,0 3.04,0.4 4.4,1.08 z"
         style="font-size:40px;line-height:1.25"
         id="path68" />
      <path
         d="m 637.36372,455.50994 c 0,-3.16 -3.36,-4.8 -6.64,-5.6 -1.92,-0.48 -4,-1.28 -4,-3.16 0,-1.72 1.76,-2.84 3.68,-2.84 2.12,0 4.24,0.64 6,1.8 v -1.68 c -1.76,-1.16 -3.88,-1.8 -6,-1.8 -3.48,0 -6.68,2.12 -6.68,5.36 0,2.92 3.24,4.28 6.32,5.04 2.12,0.52 4.32,1.64 4.32,3.68 0,1.88 -1.92,3.04 -3.96,3.04 -2.48,0 -4.88,-0.6 -7,-1.8 v 1.68 c 2.12,1.2 4.52,1.8 7,1.8 3.6,0 6.96,-2.16 6.96,-5.52 z"
         style="font-size:40px;line-height:1.25"
         id="path70" />
      <path
         d="m 650.84368,459.22994 v -1.2 c -0.64,0.64 -1.4,1.16 -2.32,1.16 -1.44,0 -1.52,-1.88 -1.52,-3.56 v -11.32 h 3.84 v -1.68 h -3.84 v -6 h -1.88 c 0,3.2 -1.84,6.2 -4.76,6.2 v 1.48 h 3.52 v 11.32 c 0,2.64 0.84,5.4 3.12,5.4 1.48,0 2.76,-0.8 3.84,-1.8 z"
         style="font-size:40px;line-height:1.25"
         id="path72" />
      <path
         d="m 669.72362,452.02994 v -0.4 c 0,-5.64 -3.08,-9.4 -7.72,-9.4 -4.68,0 -7.76,3.76 -7.76,9.4 0,5.64 3.08,9.4 7.76,9.4 2,0 3.96,-0.64 5.6,-1.8 v -1.68 c -1.88,1.2 -3.4,1.64 -5.6,1.64 -3.4,0 -4.24,-3.24 -4.24,-7.16 z m -3.52,-1.68 h -8.44 c 0,-3.2 1.36,-6.44 4.24,-6.44 2.84,0 4.2,3.24 4.2,6.44 z"
         style="font-size:40px;line-height:1.25"
         id="path74" />
      <path
         d="m 684.88357,445.10994 v -2.48 c -0.44,-0.16 -0.92,-0.28 -1.36,-0.28 -2.24,0 -4.04,1.56 -5.48,3.28 v -3 h -3.12 v 18 h 3.12 v -13.32 c 1.2,-1.4 2.72,-2.6 4.56,-2.6 0.76,0 1.56,0.16 2.28,0.4 z"
         style="font-size:40px;line-height:1.25"
         id="path76" />
    </g>
    <path
       style="fill:#afdde9;fill-opacity:1;fill-rule:evenodd;stroke:#000000;stroke-width:1px;stroke-linecap:butt;stroke-linejoin:miter;stroke-opacity:1"
       d="m 747.6378,439.37005 v 21.25985 h 17.7165 l 10.63,-10.62992 -10.63,-10.62993 z"
       id="path11157" />
    <g
       aria-label="sclk_o"
       id="text11159"
       style="line-height:0%;font-family:Iwona;-inkscape-font-specification:Iwona">
      <path
         d="m 790.75056,454.08243 c 0,-1.58 -1.68,-2.4 -3.32,-2.8 -0.96,-0.24 -2,-0.64 -2,-1.58 0,-0.86 0.88,-1.42 1.84,-1.42 1.06,0 2.12,0.32 3,0.9 v -0.84 c -0.88,-0.58 -1.94,-0.9 -3,-0.9 -1.74,0 -3.34,1.06 -3.34,2.68 0,1.46 1.62,2.14 3.16,2.52 1.06,0.26 2.16,0.82 2.16,1.84 0,0.94 -0.96,1.52 -1.98,1.52 -1.24,0 -2.44,-0.3 -3.5,-0.9 v 0.84 c 1.06,0.6 2.26,0.9 3.5,0.9 1.8,0 3.48,-1.08 3.48,-2.76 z"
         style="font-size:20px;line-height:1.25"
         id="path79" />
      <path
         d="m 799.73054,449.72243 v -0.84 c -0.64,-0.9 -1.68,-1.44 -2.8,-1.44 -2.5,0 -4.18,1.88 -4.18,4.7 0,2.82 1.68,4.7 4.18,4.7 1.04,0 2.02,-0.52 2.6,-1.38 v -0.84 c -0.68,1.02 -1.38,1.38 -2.6,1.38 -1.44,0 -2.42,-1.54 -2.42,-3.86 0,-2.32 0.98,-3.86 2.42,-3.86 1.24,0 2.08,0.44 2.8,1.44 z"
         style="font-size:20px;line-height:1.25"
         id="path81" />
      <path
         d="m 805.59051,455.94243 v -0.6 c -0.38,0.32 -0.82,0.58 -1.32,0.58 -0.74,0 -0.88,-0.92 -0.88,-1.78 v -11.5 h -1.56 v 11.5 c 0,1.34 0.52,2.7 1.7,2.7 0.76,0 1.48,-0.38 2.06,-0.9 z"
         style="font-size:20px;line-height:1.25"
         id="path83" />
      <path
         d="m 815.33048,456.64243 -4.64,-5.34 4.48,-3.66 h -1.24 l -4.78,3.92 v -8.92 h -1.56 v 14 h 1.56 v -4.98 l 4.32,4.98 z"
         style="font-size:20px;line-height:1.25"
         id="path85" />
      <path
         d="m 825.53046,458.94243 v -1 h -10 v 1 z"
         style="font-size:20px;line-height:1.25"
         id="path87" />
      <path
         d="m 834.37043,452.14243 c 0,-3.06 -1.36,-4.7 -3.86,-4.7 -2.52,0 -3.88,1.64 -3.88,4.7 0,3.06 1.36,4.7 3.88,4.7 2.5,0 3.86,-1.64 3.86,-4.7 z m -1.76,0 c 0,2.5 -0.74,3.86 -2.1,3.86 -1.38,0 -2.12,-1.36 -2.12,-3.86 0,-2.5 0.74,-3.86 2.12,-3.86 1.36,0 2.1,1.36 2.1,3.86 z"
         style="font-size:20px;line-height:1.25"
         id="path89" />
    </g>
    <path
       id="path3150"
       d="m 418.11024,425.19683 v 21.25985 h 17.71652 l 10.62993,-10.62992 -10.62993,-10.62993 z"
       style="fill:#afdde9;fill-opacity:1;fill-rule:evenodd;stroke:#000000;stroke-width:1px;stroke-linecap:butt;stroke-linejoin:miter;stroke-opacity:1" />
    <g
       aria-label="clk_i"
       id="text3152"
       style="line-height:0%;font-family:Iwona;-inkscape-font-specification:Iwona;text-align:end;text-anchor:end">
      <path
         d="m 376.02044,435.54924 v -0.84 c -0.64,-0.9 -1.68,-1.44 -2.8,-1.44 -2.5,0 -4.18,1.88 -4.18,4.7 0,2.82 1.68,4.7 4.18,4.7 1.04,0 2.02,-0.52 2.6,-1.38 v -0.84 c -0.68,1.02 -1.38,1.38 -2.6,1.38 -1.44,0 -2.42,-1.54 -2.42,-3.86 0,-2.32 0.98,-3.86 2.42,-3.86 1.24,0 2.08,0.44 2.8,1.44 z"
         style="font-size:20px;line-height:1.25"
         id="path92" />
      <path
         d="m 381.88042,441.76924 v -0.6 c -0.38,0.32 -0.82,0.58 -1.32,0.58 -0.74,0 -0.88,-0.92 -0.88,-1.78 v -11.5 h -1.56 v 11.5 c 0,1.34 0.52,2.7 1.7,2.7 0.76,0 1.48,-0.38 2.06,-0.9 z"
         style="font-size:20px;line-height:1.25"
         id="path94" />
      <path
         d="m 391.62039,442.46924 -4.64,-5.34 4.48,-3.66 h -1.24 l -4.78,3.92 v -8.92 h -1.56 v 14 h 1.56 v -4.98 l 4.32,4.98 z"
         style="font-size:20px;line-height:1.25"
         id="path96" />
      <path
         d="m 401.82037,444.76924 v -1 h -10 v 1 z"
         style="font-size:20px;line-height:1.25"
         id="path98" />
      <path
         d="m 407.08034,441.76924 v -0.6 c -0.38,0.32 -0.82,0.58 -1.32,0.58 -0.74,0 -0.88,-0.92 -0.88,-1.78 v -6.5 h -1.56 v 6.5 c 0,1.34 0.52,2.7 1.7,2.7 0.76,0 1.48,-0.38 2.06,-0.9 z m -2,-11.42 c 0,-0.54 -0.44,-0.98 -0.98,-0.98 -0.54,0 -0.98,0.44 -0.98,0.98 0,0.54 0.44,0.98 0.98,0.98 0.54,0 0.98,-0.44 0.98,-0.98 z"
         style="font-size:20px;line-height:1.25"
         id="path100" />
    </g>
    <path
       id="path3174"
       d="m 768.89764,577.55904 v 21.25984 h -17.7165 l -10.63,-10.62991 10.63,-10.62993 z"
       style="fill:#afdde9;fill-opacity:1;fill-rule:evenodd;stroke:#000000;stroke-width:1px;stroke-linecap:butt;stroke-linejoin:miter;stroke-opacity:1" />
    <g
       aria-label="sdata_i"
       id="text3176"
       style="line-height:0%;font-family:Iwona;-inkscape-font-specification:Iwona">
      <path
         d="m 790.75056,592.27136 c 0,-1.58 -1.68,-2.4 -3.32,-2.8 -0.96,-0.24 -2,-0.64 -2,-1.58 0,-0.86 0.88,-1.42 1.84,-1.42 1.06,0 2.12,0.32 3,0.9 v -0.84 c -0.88,-0.58 -1.94,-0.9 -3,-0.9 -1.74,0 -3.34,1.06 -3.34,2.68 0,1.46 1.62,2.14 3.16,2.52 1.06,0.26 2.16,0.82 2.16,1.84 0,0.94 -0.96,1.52 -1.98,1.52 -1.24,0 -2.44,-0.3 -3.5,-0.9 v 0.84 c 1.06,0.6 2.26,0.9 3.5,0.9 1.8,0 3.48,-1.08 3.48,-2.76 z"
         style="font-size:20px;line-height:1.25"
         id="path103" />
      <path
         d="m 800.49054,594.83136 v -14 h -1.56 v 5.34 c -0.78,-0.34 -1.62,-0.54 -2.46,-0.54 -2.5,0 -3.72,2 -3.72,4.7 0,2.66 1,4.7 3.42,4.7 1.02,0 1.96,-0.46 2.76,-1.1 v 0.9 z m -1.56,-1.74 c -0.6,0.6 -1.34,1.1 -2.2,1.1 -1.82,0 -2.22,-1.76 -2.22,-3.86 0,-1.88 0.58,-3.86 2.22,-3.86 0.76,0 1.52,0.2 2.2,0.54 z"
         style="font-size:20px;line-height:1.25"
         id="path105" />
      <path
         d="m 810.73052,594.83136 v -5.6 c 0,-1.88 -1.16,-3.6 -2.9,-3.6 -1.28,0 -2.48,0.44 -3.56,1.12 v 0.62 c 0.9,-0.5 1.9,-0.82 2.94,-0.82 1.24,0 1.96,1.32 1.96,2.68 v 0.36 c -0.78,-0.34 -1.62,-0.54 -2.46,-0.54 -2.14,0 -3.72,0.98 -3.72,3 0,1.92 1.4,2.98 3.42,2.98 1.02,0 1.96,-0.46 2.76,-1.1 v 0.9 z m -1.56,-1.74 c -0.6,0.6 -1.34,1.1 -2.2,1.1 -1.34,0 -2.22,-0.82 -2.22,-2.14 0,-1.22 1,-2.16 2.22,-2.16 0.76,0 1.52,0.2 2.2,0.54 z"
         style="font-size:20px;line-height:1.25"
         id="path107" />
      <path
         d="m 818.17051,594.13136 v -0.6 c -0.32,0.32 -0.7,0.58 -1.16,0.58 -0.72,0 -0.76,-0.94 -0.76,-1.78 v -5.66 h 1.92 v -0.84 h -1.92 v -3 h -0.94 c 0,1.6 -0.92,3.1 -2.38,3.1 v 0.74 h 1.76 v 5.66 c 0,1.32 0.42,2.7 1.56,2.7 0.74,0 1.38,-0.4 1.92,-0.9 z"
         style="font-size:20px;line-height:1.25"
         id="path109" />
      <path
         d="m 827.41048,594.83136 v -5.6 c 0,-1.88 -1.16,-3.6 -2.9,-3.6 -1.28,0 -2.48,0.44 -3.56,1.12 v 0.62 c 0.9,-0.5 1.9,-0.82 2.94,-0.82 1.24,0 1.96,1.32 1.96,2.68 v 0.36 c -0.78,-0.34 -1.62,-0.54 -2.46,-0.54 -2.14,0 -3.72,0.98 -3.72,3 0,1.92 1.4,2.98 3.42,2.98 1.02,0 1.96,-0.46 2.76,-1.1 v 0.9 z m -1.56,-1.74 c -0.6,0.6 -1.34,1.1 -2.2,1.1 -1.34,0 -2.22,-0.82 -2.22,-2.14 0,-1.22 1,-2.16 2.22,-2.16 0.76,0 1.52,0.2 2.2,0.54 z"
         style="font-size:20px;line-height:1.25"
         id="path111" />
      <path
         d="m 839.01046,597.13136 v -1 h -10 v 1 z"
         style="font-size:20px;line-height:1.25"
         id="path113" />
      <path
         d="m 844.27042,594.13136 v -0.6 c -0.38,0.32 -0.82,0.58 -1.32,0.58 -0.74,0 -0.88,-0.92 -0.88,-1.78 v -6.5 h -1.56 v 6.5 c 0,1.34 0.52,2.7 1.7,2.7 0.76,0 1.48,-0.38 2.06,-0.9 z m -2,-11.42 c 0,-0.54 -0.44,-0.98 -0.98,-0.98 -0.54,0 -0.98,0.44 -0.98,0.98 0,0.54 0.44,0.98 0.98,0.98 0.54,0 0.98,-0.44 0.98,-0.98 z"
         style="font-size:20px;line-height:1.25"
         id="path115" />
    </g>
    <path
       style="fill:#afdde9;fill-opacity:1;fill-rule:evenodd;stroke:#000000;stroke-width:1px;stroke-linecap:butt;stroke-linejoin:miter;stroke-opacity:1"
       d="m 747.63776,510.2362 v 21.25984 h 17.7165 l 10.63,-10.62991 -10.63,-10.62993 z"
       id="path5931" />
    <g
       aria-label="sdata_o"
       id="text5933"
       style="line-height:0%;font-family:Iwona;-inkscape-font-specification:Iwona">
      <path
         d="m 790.75086,525.3927 c 0,-1.58 -1.68,-2.4 -3.32,-2.8 -0.96,-0.24 -2,-0.64 -2,-1.58 0,-0.86 0.88,-1.42 1.84,-1.42 1.06,0 2.12,0.32 3,0.9 v -0.84 c -0.88,-0.58 -1.94,-0.9 -3,-0.9 -1.74,0 -3.34,1.06 -3.34,2.68 0,1.46 1.62,2.14 3.16,2.52 1.06,0.26 2.16,0.82 2.16,1.84 0,0.94 -0.96,1.52 -1.98,1.52 -1.24,0 -2.44,-0.3 -3.5,-0.9 v 0.84 c 1.06,0.6 2.26,0.9 3.5,0.9 1.8,0 3.48,-1.08 3.48,-2.76 z"
         style="font-size:20px;line-height:1.25"
         id="path118" />
      <path
         d="m 800.49084,527.9527 v -14 h -1.56 v 5.34 c -0.78,-0.34 -1.62,-0.54 -2.46,-0.54 -2.5,0 -3.72,2 -3.72,4.7 0,2.66 1,4.7 3.42,4.7 1.02,0 1.96,-0.46 2.76,-1.1 v 0.9 z m -1.56,-1.74 c -0.6,0.6 -1.34,1.1 -2.2,1.1 -1.82,0 -2.22,-1.76 -2.22,-3.86 0,-1.88 0.58,-3.86 2.22,-3.86 0.76,0 1.52,0.2 2.2,0.54 z"
         style="font-size:20px;line-height:1.25"
         id="path120" />
      <path
         d="m 810.73083,527.9527 v -5.6 c 0,-1.88 -1.16,-3.6 -2.9,-3.6 -1.28,0 -2.48,0.44 -3.56,1.12 v 0.62 c 0.9,-0.5 1.9,-0.82 2.94,-0.82 1.24,0 1.96,1.32 1.96,2.68 v 0.36 c -0.78,-0.34 -1.62,-0.54 -2.46,-0.54 -2.14,0 -3.72,0.98 -3.72,3 0,1.92 1.4,2.98 3.42,2.98 1.02,0 1.96,-0.46 2.76,-1.1 v 0.9 z m -1.56,-1.74 c -0.6,0.6 -1.34,1.1 -2.2,1.1 -1.34,0 -2.22,-0.82 -2.22,-2.14 0,-1.22 1,-2.16 2.22,-2.16 0.76,0 1.52,0.2 2.2,0.54 z"
         style="font-size:20px;line-height:1.25"
         id="path122" />
      <path
         d="m 818.17081,527.2527 v -0.6 c -0.32,0.32 -0.7,0.58 -1.16,0.58 -0.72,0 -0.76,-0.94 -0.76,-1.78 v -5.66 h 1.92 v -0.84 h -1.92 v -3 h -0.94 c 0,1.6 -0.92,3.1 -2.38,3.1 v 0.74 h 1.76 v 5.66 c 0,1.32 0.42,2.7 1.56,2.7 0.74,0 1.38,-0.4 1.92,-0.9 z"
         style="font-size:20px;line-height:1.25"
         id="path124" />
      <path
         d="m 827.41078,527.9527 v -5.6 c 0,-1.88 -1.16,-3.6 -2.9,-3.6 -1.28,0 -2.48,0.44 -3.56,1.12 v 0.62 c 0.9,-0.5 1.9,-0.82 2.94,-0.82 1.24,0 1.96,1.32 1.96,2.68 v 0.36 c -0.78,-0.34 -1.62,-0.54 -2.46,-0.54 -2.14,0 -3.72,0.98 -3.72,3 0,1.92 1.4,2.98 3.42,2.98 1.02,0 1.96,-0.46 2.76,-1.1 v 0.9 z m -1.56,-1.74 c -0.6,0.6 -1.34,1.1 -2.2,1.1 -1.34,0 -2.22,-0.82 -2.22,-2.14 0,-1.22 1,-2.16 2.22,-2.16 0.76,0 1.52,0.2 2.2,0.54 z"
         style="font-size:20px;line-height:1.25"
         id="path126" />
      <path
         d="m 839.01077,530.2527 v -1 h -10 v 1 z"
         style="font-size:20px;line-height:1.25"
         id="path128" />
      <path
         d="m 847.85073,523.4527 c 0,-3.06 -1.36,-4.7 -3.86,-4.7 -2.52,0 -3.88,1.64 -3.88,4.7 0,3.06 1.36,4.7 3.88,4.7 2.5,0 3.86,-1.64 3.86,-4.7 z m -1.76,0 c 0,2.5 -0.74,3.86 -2.1,3.86 -1.38,0 -2.12,-1.36 -2.12,-3.86 0,-2.5 0.74,-3.86 2.12,-3.86 1.36,0 2.1,1.36 2.1,3.86 z"
         style="font-size:20px;line-height:1.25"
         id="path130" />
    </g>
    <path
       style="fill:#afdde9;fill-opacity:1;fill-rule:evenodd;stroke:#000000;stroke-width:1px;stroke-linecap:butt;stroke-linejoin:miter;stroke-opacity:1"
       d="m 418.11024,453.54329 v 21.25985 h 17.71652 l 10.62993,-10.62992 -10.62993,-10.62993 z"
       id="path6153" />
    <g
       aria-label="reset_i"
       id="text6155"
       style="line-height:0%;font-family:Iwona;-inkscape-font-specification:Iwona;text-align:end;text-anchor:end">
      <path
         d="m 356.7205,463.05567 v -1.24 c -0.22,-0.08 -0.46,-0.14 -0.68,-0.14 -1.12,0 -2.02,0.78 -2.74,1.64 v -1.5 h -1.56 v 9 h 1.56 v -6.66 c 0.6,-0.7 1.36,-1.3 2.28,-1.3 0.38,0 0.78,0.08 1.14,0.2 z"
         style="font-size:20px;line-height:1.25"
         id="path133" />
      <path
         d="m 365.96048,466.51567 v -0.2 c 0,-2.82 -1.54,-4.7 -3.86,-4.7 -2.34,0 -3.88,1.88 -3.88,4.7 0,2.82 1.54,4.7 3.88,4.7 1,0 1.98,-0.32 2.8,-0.9 v -0.84 c -0.94,0.6 -1.7,0.82 -2.8,0.82 -1.7,0 -2.12,-1.62 -2.12,-3.58 z m -1.76,-0.84 h -4.22 c 0,-1.6 0.68,-3.22 2.12,-3.22 1.42,0 2.1,1.62 2.1,3.22 z"
         style="font-size:20px;line-height:1.25"
         id="path135" />
      <path
         d="m 374.64045,468.25567 c 0,-1.58 -1.68,-2.4 -3.32,-2.8 -0.96,-0.24 -2,-0.64 -2,-1.58 0,-0.86 0.88,-1.42 1.84,-1.42 1.06,0 2.12,0.32 3,0.9 v -0.84 c -0.88,-0.58 -1.94,-0.9 -3,-0.9 -1.74,0 -3.34,1.06 -3.34,2.68 0,1.46 1.62,2.14 3.16,2.52 1.06,0.26 2.16,0.82 2.16,1.84 0,0.94 -0.96,1.52 -1.98,1.52 -1.24,0 -2.44,-0.3 -3.5,-0.9 v 0.84 c 1.06,0.6 2.26,0.9 3.5,0.9 1.8,0 3.48,-1.08 3.48,-2.76 z"
         style="font-size:20px;line-height:1.25"
         id="path137" />
      <path
         d="m 384.38043,466.51567 v -0.2 c 0,-2.82 -1.54,-4.7 -3.86,-4.7 -2.34,0 -3.88,1.88 -3.88,4.7 0,2.82 1.54,4.7 3.88,4.7 1,0 1.98,-0.32 2.8,-0.9 v -0.84 c -0.94,0.6 -1.7,0.82 -2.8,0.82 -1.7,0 -2.12,-1.62 -2.12,-3.58 z m -1.76,-0.84 h -4.22 c 0,-1.6 0.68,-3.22 2.12,-3.22 1.42,0 2.1,1.62 2.1,3.22 z"
         style="font-size:20px;line-height:1.25"
         id="path139" />
      <path
         d="m 391.2204,470.11567 v -0.6 c -0.32,0.32 -0.7,0.58 -1.16,0.58 -0.72,0 -0.76,-0.94 -0.76,-1.78 v -5.66 h 1.92 v -0.84 h -1.92 v -3 h -0.94 c 0,1.6 -0.92,3.1 -2.38,3.1 v 0.74 h 1.76 v 5.66 c 0,1.32 0.42,2.7 1.56,2.7 0.74,0 1.38,-0.4 1.92,-0.9 z"
         style="font-size:20px;line-height:1.25"
         id="path141" />
      <path
         d="m 401.82037,473.11567 v -1 h -10 v 1 z"
         style="font-size:20px;line-height:1.25"
         id="path143" />
      <path
         d="m 407.08034,470.11567 v -0.6 c -0.38,0.32 -0.82,0.58 -1.32,0.58 -0.74,0 -0.88,-0.92 -0.88,-1.78 v -6.5 h -1.56 v 6.5 c 0,1.34 0.52,2.7 1.7,2.7 0.76,0 1.48,-0.38 2.06,-0.9 z m -2,-11.42 c 0,-0.54 -0.44,-0.98 -0.98,-0.98 -0.54,0 -0.98,0.44 -0.98,0.98 0,0.54 0.44,0.98 0.98,0.98 0.54,0 0.98,-0.44 0.98,-0.98 z"
         style="font-size:20px;line-height:1.25"
         id="path145" />
    </g>
    <g
       aria-label="CLK_FREQUENCY_HZ
BIT_RATE_HZ


DATA_WIDTH
POLARITY
PHASE"
       id="text3017"
       style="line-height:0%;font-family:Iwona;-inkscape-font-specification:Iwona">
      <path
         d="m 502.89379,495.65938 v -1.08 c -1.08,-1.56 -2.86,-2.48 -4.74,-2.48 -4.06,0 -6.26,2.96 -6.26,7.2 0,4.24 2.2,7.2 6.26,7.2 1.56,0 3.1,-0.46 4.42,-1.32 v -0.92 c -1.32,0.86 -2.86,1.32 -4.42,1.32 -3.14,0 -4.3,-2.78 -4.3,-6.28 0,-3.5 1.16,-6.28 4.3,-6.28 1.92,0 3.72,1 4.74,2.64 z"
         style="font-size:20px;line-height:1.25"
         id="path148" />
      <path
         d="m 513.49377,506.29938 v -0.92 h -6.36 v -13.08 h -1.64 v 14 z"
         style="font-size:20px;line-height:1.25"
         id="path150" />
      <path
         d="m 527.65375,506.29938 -8.86,-7.92 8.38,-6.08 h -1.58 l -8.06,5.86 v -5.86 h -1.64 v 14 h 1.64 v -6.84 l 7.66,6.84 z"
         style="font-size:20px;line-height:1.25"
         id="path152" />
      <path
         d="m 537.85374,508.59938 v -1 h -10 v 1 z"
         style="font-size:20px;line-height:1.25"
         id="path154" />
      <path
         d="m 549.37371,493.21938 v -0.92 h -9.52 v 14 h 1.64 v -6.54 h 6.36 v -0.92 h -6.36 v -5.62 z"
         style="font-size:20px;line-height:1.25"
         id="path156" />
      <path
         d="m 563.2537,506.29938 -4.26,-6.34 c 2.18,-0.42 3.68,-1.62 3.68,-3.86 0,-2.82 -2.42,-4 -5.56,-4 -1.12,0 -2.24,0.06 -3.34,0.2 h -1.6 v 14 h 1.64 v -6.5 c 1.08,0.2 2.2,0.32 3.3,0.32 l 4.18,6.18 z m -2.54,-10.2 c 0,1.82 -1.7,3.1 -3.6,3.1 -1.1,0 -2.22,-0.12 -3.3,-0.32 v -5.66 c 1.1,-0.14 2.2,-0.2 3.3,-0.2 1.9,0 3.6,1.28 3.6,3.08 z"
         style="font-size:20px;line-height:1.25"
         id="path158" />
      <path
         d="m 575.45368,506.29938 v -0.92 h -8.36 v -5.62 h 6.36 v -0.92 h -6.36 v -5.62 h 7.88 v -0.92 h -9.52 v 14 z"
         style="font-size:20px;line-height:1.25"
         id="path160" />
      <path
         d="m 590.35368,499.29938 c 0,-4.24 -2.2,-7.2 -6.24,-7.2 -4.06,0 -6.26,2.96 -6.26,7.2 0,4.24 2.2,7.2 6.26,7.2 0.14,1.62 1.48,2.86 3.12,2.86 1.02,0 1.3,-0.06 2.24,-0.48 v -0.6 c -0.46,0.26 -0.96,0.4 -1.5,0.4 -1.82,0 -2.54,-0.64 -2.56,-2.3 3.2,-0.56 4.94,-3.32 4.94,-7.08 z m -1.96,0 c 0,3.5 -1.16,6.28 -4.28,6.28 -3.14,0 -4.3,-2.78 -4.3,-6.28 0,-3.5 1.16,-6.28 4.3,-6.28 3.12,0 4.28,2.78 4.28,6.28 z"
         style="font-size:20px;line-height:1.25"
         id="path162" />
      <path
         d="m 603.85366,502.37938 v -10.08 h -0.92 v 9.76 c 0,2.08 -1.84,3.64 -3.96,3.64 -2.14,0 -3.98,-1.56 -3.98,-3.64 v -9.76 h -1.64 v 10.08 c 0,2.54 2.52,4.24 5.26,4.24 2.72,0 5.24,-1.7 5.24,-4.24 z"
         style="font-size:20px;line-height:1.25"
         id="path164" />
      <path
         d="m 617.65366,506.29938 v -0.92 h -8.36 v -5.62 h 6.36 v -0.92 h -6.36 v -5.62 h 7.88 v -0.92 h -9.52 v 14 z"
         style="font-size:20px;line-height:1.25"
         id="path166" />
      <path
         d="m 632.61365,506.29938 v -14 h -0.92 v 11.76 l -9.64,-11.76 h -1.2 v 14 h 0.92 v -11.76 l 9.64,11.76 z"
         style="font-size:20px;line-height:1.25"
         id="path168" />
      <path
         d="m 646.81362,495.65938 v -1.08 c -1.08,-1.56 -2.86,-2.48 -4.74,-2.48 -4.06,0 -6.26,2.96 -6.26,7.2 0,4.24 2.2,7.2 6.26,7.2 1.56,0 3.1,-0.46 4.42,-1.32 v -0.92 c -1.32,0.86 -2.86,1.32 -4.42,1.32 -3.14,0 -4.3,-2.78 -4.3,-6.28 0,-3.5 1.16,-6.28 4.3,-6.28 1.92,0 3.72,1 4.74,2.64 z"
         style="font-size:20px;line-height:1.25"
         id="path170" />
      <path
         d="m 658.8136,492.29938 h -1.08 l -4.26,7.08 -3.8,-7.08 h -1.86 l 4.68,8.4 v 5.6 h 1.64 v -6.22 z"
         style="font-size:20px;line-height:1.25"
         id="path172" />
      <path
         d="m 669.01361,508.59938 v -1 h -10 v 1 z"
         style="font-size:20px;line-height:1.25"
         id="path174" />
      <path
         d="m 682.01357,506.29938 v -14 h -1.64 v 6.54 h -7.72 v -6.54 h -1.64 v 14 h 1.64 v -6.54 h 7.72 v 6.54 z"
         style="font-size:20px;line-height:1.25"
         id="path176" />
      <path
         d="m 695.11352,506.29938 v -0.92 h -8.48 l 8.16,-12.18 v -0.9 h -9.86 v 0.92 h 7.88 l -8.2,12.24 v 0.84 z"
         style="font-size:20px;line-height:1.25"
         id="path178" />
      <path
         d="m 503.19379,527.49938 c 0,-2.2 -1.44,-3.36 -3.54,-3.8 1.54,-0.46 2.56,-1.46 2.56,-3.16 0,-2.44 -2.1,-3.44 -4.8,-3.44 -1.04,0 -2.08,0.06 -3.12,0.2 h -1.6 v 14 h 1.6 l 3.12,0.2 c 3.24,0 5.78,-1.1 5.78,-4 z m -2.62,-6.96 c 0,2.02 -2.26,3.06 -4.52,3.06 h -1.72 v -5.38 c 1.02,-0.14 2.06,-0.2 3.08,-0.2 1.64,0 3.16,1 3.16,2.52 z m 0.66,6.96 c 0,1.84 -1.82,3.08 -3.82,3.08 -1.02,0 -2.06,-0.06 -3.08,-0.2 v -6.08 h 2.58 c 2.2,0 4.32,1.18 4.32,3.2 z"
         style="font-size:20px;line-height:1.25"
         id="path180" />
      <path
         d="m 508.03378,531.29938 v -14 h -1.64 v 14 z"
         style="font-size:20px;line-height:1.25"
         id="path182" />
      <path
         d="m 521.43377,518.21938 v -0.92 h -11 v 0.92 h 4.68 v 13.08 h 1.64 v -13.08 z"
         style="font-size:20px;line-height:1.25"
         id="path184" />
      <path
         d="m 531.83373,533.59938 v -1 h -10 v 1 z"
         style="font-size:20px;line-height:1.25"
         id="path186" />
      <path
         d="m 544.71369,531.29938 -4.26,-6.34 c 2.18,-0.42 3.68,-1.62 3.68,-3.86 0,-2.82 -2.42,-4 -5.56,-4 -1.12,0 -2.24,0.06 -3.34,0.2 h -1.6 v 14 h 1.64 v -6.5 c 1.08,0.2 2.2,0.32 3.3,0.32 l 4.18,6.18 z m -2.54,-10.2 c 0,1.82 -1.7,3.1 -3.6,3.1 -1.1,0 -2.22,-0.12 -3.3,-0.32 v -5.66 c 1.1,-0.14 2.2,-0.2 3.3,-0.2 1.9,0 3.6,1.28 3.6,3.08 z"
         style="font-size:20px;line-height:1.25"
         id="path188" />
      <path
         d="m 557.11368,531.29938 -5.08,-14 h -1.74 l -5.18,14 h 0.98 l 1.82,-4.9 h 5.68 l 1.78,4.9 z m -3.86,-5.82 h -5 l 2.52,-6.84 z"
         style="font-size:20px;line-height:1.25"
         id="path190" />
      <path
         d="m 567.63364,518.21938 v -0.92 h -11 v 0.92 h 4.68 v 13.08 h 1.64 v -13.08 z"
         style="font-size:20px;line-height:1.25"
         id="path192" />
      <path
         d="m 580.03361,531.29938 v -0.92 h -8.36 v -5.62 h 6.36 v -0.92 h -6.36 v -5.62 h 7.88 v -0.92 h -9.52 v 14 z"
         style="font-size:20px;line-height:1.25"
         id="path194" />
      <path
         d="m 591.2336,533.59938 v -1 h -10 v 1 z"
         style="font-size:20px;line-height:1.25"
         id="path196" />
      <path
         d="m 604.23357,531.29938 v -14 h -1.64 v 6.54 h -7.72 v -6.54 h -1.64 v 14 h 1.64 v -6.54 h 7.72 v 6.54 z"
         style="font-size:20px;line-height:1.25"
         id="path198" />
      <path
         d="m 617.33353,531.29938 v -0.92 h -8.48 l 8.16,-12.18 v -0.9 h -9.86 v 0.92 h 7.88 l -8.2,12.24 v 0.84 z"
         style="font-size:20px;line-height:1.25"
         id="path200" />
      <path
         d="m 504.45379,549.29938 c 0,-4.28 -2.34,-7.2 -6.46,-7.2 -1.24,0 -2.48,0.06 -3.7,0.2 h -1.6 v 14 h 1.6 c 1.22,0.14 2.46,0.2 3.7,0.2 4.12,0 6.46,-2.92 6.46,-7.2 z m -1.96,0 c 0,3.18 -1.62,6.28 -4.5,6.28 -1.22,0 -2.44,-0.06 -3.66,-0.2 v -12.16 c 1.22,-0.14 2.44,-0.2 3.66,-0.2 2.88,0 4.5,3.1 4.5,6.28 z"
         style="font-size:20px;line-height:1.25"
         id="path202" />
      <path
         d="m 517.37377,556.29938 -5.08,-14 h -1.74 l -5.18,14 h 0.98 l 1.82,-4.9 h 5.68 l 1.78,4.9 z m -3.86,-5.82 h -5 l 2.52,-6.84 z"
         style="font-size:20px;line-height:1.25"
         id="path204" />
      <path
         d="m 527.89373,543.21938 v -0.92 h -11 v 0.92 h 4.68 v 13.08 h 1.64 v -13.08 z"
         style="font-size:20px;line-height:1.25"
         id="path206" />
      <path
         d="m 539.41368,556.29938 -5.08,-14 h -1.74 l -5.18,14 h 0.98 l 1.82,-4.9 h 5.68 l 1.78,4.9 z m -3.86,-5.82 h -5 l 2.52,-6.84 z"
         style="font-size:20px;line-height:1.25"
         id="path208" />
      <path
         d="m 549.61366,558.59938 v -1 h -10 v 1 z"
         style="font-size:20px;line-height:1.25"
         id="path210" />
      <path
         d="m 567.49362,542.29938 h -0.96 l -3.46,11.4 -3.46,-11.4 h -0.96 l -3.46,11.4 -3.46,-11.4 h -1.72 l 4.26,14 h 1.08 l 3.4,-11.18 3.4,11.18 h 1.1 z"
         style="font-size:20px;line-height:1.25"
         id="path212" />
      <path
         d="m 571.3336,556.29938 v -14 h -1.64 v 14 z"
         style="font-size:20px;line-height:1.25"
         id="path214" />
      <path
         d="m 587.0936,549.29938 c 0,-4.28 -2.34,-7.2 -6.46,-7.2 -1.24,0 -2.48,0.06 -3.7,0.2 h -1.6 v 14 h 1.6 c 1.22,0.14 2.46,0.2 3.7,0.2 4.12,0 6.46,-2.92 6.46,-7.2 z m -1.96,0 c 0,3.18 -1.62,6.28 -4.5,6.28 -1.22,0 -2.44,-0.06 -3.66,-0.2 v -12.16 c 1.22,-0.14 2.44,-0.2 3.66,-0.2 2.88,0 4.5,3.1 4.5,6.28 z"
         style="font-size:20px;line-height:1.25"
         id="path216" />
      <path
         d="m 599.21358,543.21938 v -0.92 h -11 v 0.92 h 4.68 v 13.08 h 1.64 v -13.08 z"
         style="font-size:20px;line-height:1.25"
         id="path218" />
      <path
         d="m 612.61354,556.29938 v -14 h -1.64 v 6.54 h -7.72 v -6.54 h -1.64 v 14 h 1.64 v -6.54 h 7.72 v 6.54 z"
         style="font-size:20px;line-height:1.25"
         id="path220" />
      <path
         d="m 503.19379,571.09938 c 0,-2.82 -2.42,-4 -5.56,-4 -1.12,0 -2.24,0.06 -3.34,0.2 h -1.6 v 14 h 1.64 v -6.5 c 1.08,0.2 2.2,0.32 3.3,0.32 3.14,0 5.56,-1.18 5.56,-4.02 z m -1.96,0 c 0,1.82 -1.7,3.1 -3.6,3.1 -1.1,0 -2.22,-0.12 -3.3,-0.32 v -5.66 c 1.1,-0.14 2.2,-0.2 3.3,-0.2 1.9,0 3.6,1.28 3.6,3.08 z"
         style="font-size:20px;line-height:1.25"
         id="path222" />
      <path
         d="m 518.09378,574.29938 c 0,-4.24 -2.2,-7.2 -6.24,-7.2 -4.06,0 -6.26,2.96 -6.26,7.2 0,4.24 2.2,7.2 6.26,7.2 4.04,0 6.24,-2.96 6.24,-7.2 z m -1.96,0 c 0,3.5 -1.16,6.28 -4.28,6.28 -3.14,0 -4.3,-2.78 -4.3,-6.28 0,-3.5 1.16,-6.28 4.3,-6.28 3.12,0 4.28,2.78 4.28,6.28 z"
         style="font-size:20px;line-height:1.25"
         id="path224" />
      <path
         d="m 529.29375,581.29938 v -0.92 h -6.36 v -13.08 h -1.64 v 14 z"
         style="font-size:20px;line-height:1.25"
         id="path226" />
      <path
         d="m 541.89373,581.29938 -5.08,-14 h -1.74 l -5.18,14 h 0.98 l 1.82,-4.9 h 5.68 l 1.78,4.9 z m -3.86,-5.82 h -5 l 2.52,-6.84 z"
         style="font-size:20px;line-height:1.25"
         id="path228" />
      <path
         d="m 554.9737,581.29938 -4.26,-6.34 c 2.18,-0.42 3.68,-1.62 3.68,-3.86 0,-2.82 -2.42,-4 -5.56,-4 -1.12,0 -2.24,0.06 -3.34,0.2 h -1.6 v 14 h 1.64 v -6.5 c 1.08,0.2 2.2,0.32 3.3,0.32 l 4.18,6.18 z m -2.54,-10.2 c 0,1.82 -1.7,3.1 -3.6,3.1 -1.1,0 -2.22,-0.12 -3.3,-0.32 v -5.66 c 1.1,-0.14 2.2,-0.2 3.3,-0.2 1.9,0 3.6,1.28 3.6,3.08 z"
         style="font-size:20px;line-height:1.25"
         id="path230" />
      <path
         d="m 558.81369,581.29938 v -14 h -1.64 v 14 z"
         style="font-size:20px;line-height:1.25"
         id="path232" />
      <path
         d="m 572.21368,568.21938 v -0.92 h -11 v 0.92 h 4.68 v 13.08 h 1.64 v -13.08 z"
         style="font-size:20px;line-height:1.25"
         id="path234" />
      <path
         d="m 583.77363,567.29938 h -1.08 l -4.26,7.08 -3.8,-7.08 h -1.86 l 4.68,8.4 v 5.6 h 1.64 v -6.22 z"
         style="font-size:20px;line-height:1.25"
         id="path236" />
      <path
         d="m 503.19379,596.09938 c 0,-2.82 -2.42,-4 -5.56,-4 -1.12,0 -2.24,0.06 -3.34,0.2 h -1.6 v 14 h 1.64 v -6.5 c 1.08,0.2 2.2,0.32 3.3,0.32 3.14,0 5.56,-1.18 5.56,-4.02 z m -1.96,0 c 0,1.82 -1.7,3.1 -3.6,3.1 -1.1,0 -2.22,-0.12 -3.3,-0.32 v -5.66 c 1.1,-0.14 2.2,-0.2 3.3,-0.2 1.9,0 3.6,1.28 3.6,3.08 z"
         style="font-size:20px;line-height:1.25"
         id="path238" />
      <path
         d="m 517.39378,606.29938 v -14 h -1.64 v 6.54 h -7.72 v -6.54 h -1.64 v 14 h 1.64 v -6.54 h 7.72 v 6.54 z"
         style="font-size:20px;line-height:1.25"
         id="path240" />
      <path
         d="m 531.59374,606.29938 -5.08,-14 h -1.74 l -5.18,14 h 0.98 l 1.82,-4.9 h 5.68 l 1.78,4.9 z m -3.86,-5.82 h -5 l 2.52,-6.84 z"
         style="font-size:20px;line-height:1.25"
         id="path242" />
      <path
         d="m 543.53372,602.23938 c 0,-2.46 -2.5,-3.92 -5.08,-4.46 -1.72,-0.36 -3.66,-0.8 -3.66,-2.4 0,-1.58 1.7,-2.48 3.46,-2.48 1.62,0 3.2,0.48 4.48,1.48 v -0.8 c -1.28,-1 -2.86,-1.6 -4.48,-1.6 -2.6,0 -5.04,1.46 -5.04,3.82 0,2.26 2.44,3.4 4.82,3.9 1.9,0.4 3.92,1.18 3.92,2.96 0,1.82 -1.78,3.04 -3.7,3.04 -1.86,0 -3.7,-0.48 -5.26,-1.48 v 0.8 c 1.58,1 3.38,1.6 5.26,1.6 2.76,0 5.28,-1.78 5.28,-4.38 z"
         style="font-size:20px;line-height:1.25"
         id="path244" />
      <path
         d="m 556.7337,606.29938 v -0.92 h -8.36 v -5.62 h 6.36 v -0.92 h -6.36 v -5.62 h 7.88 v -0.92 h -9.52 v 14 z"
         style="font-size:20px;line-height:1.25"
         id="path246" />
    </g>
    <path
       id="rect3023"
       style="fill:none;stroke:#000000;stroke-linecap:round;stroke-linejoin:bevel;stroke-dasharray:2, 2"
       d="M 478.34647,485.43307 H 708.66141 V 612.99209 H 478.34647 Z" />
    <path
       id="path4655"
       d="m 418.11024,492.51966 v 21.25985 h 17.71652 l 10.62993,-10.62992 -10.62993,-10.62993 z"
       style="fill:#afdde9;fill-opacity:1;fill-rule:evenodd;stroke:#000000;stroke-width:1px;stroke-linecap:butt;stroke-linejoin:miter;stroke-opacity:1" />
    <g
       aria-label="start_i"
       id="text4657"
       style="line-height:0%;font-family:Iwona;-inkscape-font-specification:Iwona;text-align:end;text-anchor:end">
      <path
         d="m 360.70052,507.23202 c 0,-1.58 -1.68,-2.4 -3.32,-2.8 -0.96,-0.24 -2,-0.64 -2,-1.58 0,-0.86 0.88,-1.42 1.84,-1.42 1.06,0 2.12,0.32 3,0.9 v -0.84 c -0.88,-0.58 -1.94,-0.9 -3,-0.9 -1.74,0 -3.34,1.06 -3.34,2.68 0,1.46 1.62,2.14 3.16,2.52 1.06,0.26 2.16,0.82 2.16,1.84 0,0.94 -0.96,1.52 -1.98,1.52 -1.24,0 -2.44,-0.3 -3.5,-0.9 v 0.84 c 1.06,0.6 2.26,0.9 3.5,0.9 1.8,0 3.48,-1.08 3.48,-2.76 z"
         style="font-size:20px;line-height:1.25"
         id="path250" />
      <path
         d="m 367.44049,509.09202 v -0.6 c -0.32,0.32 -0.7,0.58 -1.16,0.58 -0.72,0 -0.76,-0.94 -0.76,-1.78 v -5.66 h 1.92 v -0.84 h -1.92 v -3 h -0.94 c 0,1.6 -0.92,3.1 -2.38,3.1 v 0.74 h 1.76 v 5.66 c 0,1.32 0.42,2.7 1.56,2.7 0.74,0 1.38,-0.4 1.92,-0.9 z"
         style="font-size:20px;line-height:1.25"
         id="path252" />
      <path
         d="m 376.68047,509.79202 v -5.6 c 0,-1.88 -1.16,-3.6 -2.9,-3.6 -1.28,0 -2.48,0.44 -3.56,1.12 v 0.62 c 0.9,-0.5 1.9,-0.82 2.94,-0.82 1.24,0 1.96,1.32 1.96,2.68 v 0.36 c -0.78,-0.34 -1.62,-0.54 -2.46,-0.54 -2.14,0 -3.72,0.98 -3.72,3 0,1.92 1.4,2.98 3.42,2.98 1.02,0 1.96,-0.46 2.76,-1.1 v 0.9 z m -1.56,-1.74 c -0.6,0.6 -1.34,1.1 -2.2,1.1 -1.34,0 -2.22,-0.82 -2.22,-2.14 0,-1.22 1,-2.16 2.22,-2.16 0.76,0 1.52,0.2 2.2,0.54 z"
         style="font-size:20px;line-height:1.25"
         id="path254" />
      <path
         d="m 384.86045,502.03202 v -1.24 c -0.22,-0.08 -0.46,-0.14 -0.68,-0.14 -1.12,0 -2.02,0.78 -2.74,1.64 v -1.5 h -1.56 v 9 h 1.56 v -6.66 c 0.6,-0.7 1.36,-1.3 2.28,-1.3 0.38,0 0.78,0.08 1.14,0.2 z"
         style="font-size:20px;line-height:1.25"
         id="path256" />
      <path
         d="m 391.2204,509.09202 v -0.6 c -0.32,0.32 -0.7,0.58 -1.16,0.58 -0.72,0 -0.76,-0.94 -0.76,-1.78 v -5.66 h 1.92 v -0.84 h -1.92 v -3 h -0.94 c 0,1.6 -0.92,3.1 -2.38,3.1 v 0.74 h 1.76 v 5.66 c 0,1.32 0.42,2.7 1.56,2.7 0.74,0 1.38,-0.4 1.92,-0.9 z"
         style="font-size:20px;line-height:1.25"
         id="path258" />
      <path
         d="m 401.82037,512.09202 v -1 h -10 v 1 z"
         style="font-size:20px;line-height:1.25"
         id="path260" />
      <path
         d="m 407.08034,509.09202 v -0.6 c -0.38,0.32 -0.82,0.58 -1.32,0.58 -0.74,0 -0.88,-0.92 -0.88,-1.78 v -6.5 h -1.56 v 6.5 c 0,1.34 0.52,2.7 1.7,2.7 0.76,0 1.48,-0.38 2.06,-0.9 z m -2,-11.42 c 0,-0.54 -0.44,-0.98 -0.98,-0.98 -0.54,0 -0.98,0.44 -0.98,0.98 0,0.54 0.44,0.98 0.98,0.98 0.54,0 0.98,-0.44 0.98,-0.98 z"
         style="font-size:20px;line-height:1.25"
         id="path262" />
    </g>
    <path
       style="fill:#afdde9;fill-opacity:1;fill-rule:evenodd;stroke:#000000;stroke-width:1px;stroke-linecap:butt;stroke-linejoin:miter;stroke-opacity:1"
       d="m 439.37006,559.8425 v 21.25985 h -17.71652 l -10.62993,-10.62992 10.62993,-10.62993 z"
       id="path4661" />
    <g
       aria-label="done_o"
       id="text4663"
       style="line-height:0%;font-family:Iwona;-inkscape-font-specification:Iwona;text-align:end;text-anchor:end">
      <path
         d="m 355.82044,574.01562 v -14 h -1.56 v 5.34001 c -0.78,-0.34001 -1.62,-0.54001 -2.46,-0.54001 -2.5,0 -3.72,2 -3.72,4.7 0,2.66 1,4.70001 3.42,4.70001 1.02,0 1.96,-0.46001 2.76,-1.1 v 0.89999 z m -1.56,-1.74 c -0.6,0.60001 -1.34,1.10001 -2.2,1.10001 -1.82,0 -2.22,-1.76 -2.22,-3.86001 0,-1.88 0.58,-3.86 2.22,-3.86 0.76,0 1.52,0.20001 2.2,0.54 z"
         style="font-size:20px;line-height:1.25"
         id="path265" />
      <path
         d="m 366.26043,569.51562 c 0,-3.05999 -1.36,-4.7 -3.86,-4.7 -2.52,0 -3.88,1.64001 -3.88,4.7 0,3.06 1.36,4.70001 3.88,4.70001 2.5,0 3.86,-1.64001 3.86,-4.70001 z m -1.76,0 c 0,2.5 -0.74,3.86001 -2.1,3.86001 -1.38,0 -2.12,-1.36001 -2.12,-3.86001 0,-2.5 0.74,-3.86 2.12,-3.86 1.36,0 2.1,1.36 2.1,3.86 z"
         style="font-size:20px;line-height:1.25"
         id="path267" />
      <path
         d="m 376.20042,574.01562 v -6.5 c 0,-1.46 -1.12,-2.7 -2.56,-2.7 -1.2,0 -2.26,0.68001 -3.12,1.52001 v -1.32001 h -1.56 v 9 h 1.56 v -7.05999 c 0.68,-0.68001 1.52,-1.22 2.46,-1.22 0.94,0 1.66,0.81999 1.66,1.77999 v 6.5 z"
         style="font-size:20px;line-height:1.25"
         id="path269" />
      <path
         d="m 386.54039,569.71563 v -0.20001 c 0,-2.82 -1.54,-4.7 -3.86,-4.7 -2.34,0 -3.88,1.88 -3.88,4.7 0,2.82001 1.54,4.70001 3.88,4.70001 1,0 1.98,-0.32001 2.8,-0.90001 v -0.83999 c -0.94,0.59999 -1.7,0.81999 -2.8,0.81999 -1.7,0 -2.12,-1.62 -2.12,-3.57999 z m -1.76,-0.84 h -4.22 c 0,-1.60001 0.68,-3.22001 2.12,-3.22001 1.42,0 2.1,1.62 2.1,3.22001 z"
         style="font-size:20px;line-height:1.25"
         id="path271" />
      <path
         d="m 397.54036,576.31562 v -1 h -10 v 1 z"
         style="font-size:20px;line-height:1.25"
         id="path273" />
      <path
         d="m 406.38032,569.51562 c 0,-3.05999 -1.36,-4.7 -3.86,-4.7 -2.52,0 -3.88,1.64001 -3.88,4.7 0,3.06 1.36,4.70001 3.88,4.70001 2.5,0 3.86,-1.64001 3.86,-4.70001 z m -1.76,0 c 0,2.5 -0.74,3.86001 -2.1,3.86001 -1.38,0 -2.12,-1.36001 -2.12,-3.86001 0,-2.5 0.74,-3.86 2.12,-3.86 1.36,0 2.1,1.36 2.1,3.86 z"
         style="font-size:20px;line-height:1.25"
         id="path275" />
    </g>
    <path
       style="fill:#afdde9;fill-opacity:1;fill-rule:evenodd;stroke:#000000;stroke-width:1px;stroke-linecap:butt;stroke-linejoin:miter;stroke-opacity:1"
       d="m 418.11024,520.86612 v 21.25985 h 17.71652 l 10.62993,-10.62992 -10.62993,-10.62993 z"
       id="path4667" />
    <g
       aria-label="pdata_i"
       id="text4669"
       style="line-height:0%;font-family:Iwona;-inkscape-font-specification:Iwona;text-align:end;text-anchor:end">
      <path
         d="m 353.36048,533.63849 c 0,-2.66 -1,-4.7 -3.42,-4.7 -1.02,0 -1.96,0.46 -2.76,1.1 v -0.9 h -1.56 v 13.6 h 1.56 v -4.94 c 0.78,0.34 1.62,0.54 2.46,0.54 2.5,0 3.72,-2 3.72,-4.7 z m -1.76,0 c 0,1.88 -0.58,3.86 -2.22,3.86 -0.76,0 -1.52,-0.2 -2.2,-0.54 v -6.08 c 0.6,-0.6 1.34,-1.1 2.2,-1.1 1.82,0 2.22,1.76 2.22,3.86 z"
         style="font-size:20px;line-height:1.25"
         id="path278" />
      <path
         d="m 363.30045,538.13849 v -14 h -1.56 v 5.34 c -0.78,-0.34 -1.62,-0.54 -2.46,-0.54 -2.5,0 -3.72,2 -3.72,4.7 0,2.66 1,4.7 3.42,4.7 1.02,0 1.96,-0.46 2.76,-1.1 v 0.9 z m -1.56,-1.74 c -0.6,0.6 -1.34,1.1 -2.2,1.1 -1.82,0 -2.22,-1.76 -2.22,-3.86 0,-1.88 0.58,-3.86 2.22,-3.86 0.76,0 1.52,0.2 2.2,0.54 z"
         style="font-size:20px;line-height:1.25"
         id="path280" />
      <path
         d="m 373.54044,538.13849 v -5.6 c 0,-1.88 -1.16,-3.6 -2.9,-3.6 -1.28,0 -2.48,0.44 -3.56,1.12 v 0.62 c 0.9,-0.5 1.9,-0.82 2.94,-0.82 1.24,0 1.96,1.32 1.96,2.68 v 0.36 c -0.78,-0.34 -1.62,-0.54 -2.46,-0.54 -2.14,0 -3.72,0.98 -3.72,3 0,1.92 1.4,2.98 3.42,2.98 1.02,0 1.96,-0.46 2.76,-1.1 v 0.9 z m -1.56,-1.74 c -0.6,0.6 -1.34,1.1 -2.2,1.1 -1.34,0 -2.22,-0.82 -2.22,-2.14 0,-1.22 1,-2.16 2.22,-2.16 0.76,0 1.52,0.2 2.2,0.54 z"
         style="font-size:20px;line-height:1.25"
         id="path282" />
      <path
         d="m 380.98042,537.43849 v -0.6 c -0.32,0.32 -0.7,0.58 -1.16,0.58 -0.72,0 -0.76,-0.94 -0.76,-1.78 v -5.66 h 1.92 v -0.84 h -1.92 v -3 h -0.94 c 0,1.6 -0.92,3.1 -2.38,3.1 v 0.74 h 1.76 v 5.66 c 0,1.32 0.42,2.7 1.56,2.7 0.74,0 1.38,-0.4 1.92,-0.9 z"
         style="font-size:20px;line-height:1.25"
         id="path284" />
      <path
         d="m 390.22039,538.13849 v -5.6 c 0,-1.88 -1.16,-3.6 -2.9,-3.6 -1.28,0 -2.48,0.44 -3.56,1.12 v 0.62 c 0.9,-0.5 1.9,-0.82 2.94,-0.82 1.24,0 1.96,1.32 1.96,2.68 v 0.36 c -0.78,-0.34 -1.62,-0.54 -2.46,-0.54 -2.14,0 -3.72,0.98 -3.72,3 0,1.92 1.4,2.98 3.42,2.98 1.02,0 1.96,-0.46 2.76,-1.1 v 0.9 z m -1.56,-1.74 c -0.6,0.6 -1.34,1.1 -2.2,1.1 -1.34,0 -2.22,-0.82 -2.22,-2.14 0,-1.22 1,-2.16 2.22,-2.16 0.76,0 1.52,0.2 2.2,0.54 z"
         style="font-size:20px;line-height:1.25"
         id="path286" />
      <path
         d="m 401.82037,540.43849 v -1 h -10 v 1 z"
         style="font-size:20px;line-height:1.25"
         id="path288" />
      <path
         d="m 407.08034,537.43849 v -0.6 c -0.38,0.32 -0.82,0.58 -1.32,0.58 -0.74,0 -0.88,-0.92 -0.88,-1.78 v -6.5 h -1.56 v 6.5 c 0,1.34 0.52,2.7 1.7,2.7 0.76,0 1.48,-0.38 2.06,-0.9 z m -2,-11.42 c 0,-0.54 -0.44,-0.98 -0.98,-0.98 -0.54,0 -0.98,0.44 -0.98,0.98 0,0.54 0.44,0.98 0.98,0.98 0.54,0 0.98,-0.44 0.98,-0.98 z"
         style="font-size:20px;line-height:1.25"
         id="path290" />
    </g>
    <path
       id="path4673"
       d="m 439.37006,588.18895 v 21.25985 h -17.71652 l -10.62993,-10.62992 10.62993,-10.62993 z"
       style="fill:#afdde9;fill-opacity:1;fill-rule:evenodd;stroke:#000000;stroke-width:1px;stroke-linecap:butt;stroke-linejoin:miter;stroke-opacity:1" />
    <g
       aria-label="pdata_o"
       id="text4675"
       style="line-height:0%;font-family:Iwona;-inkscape-font-specification:Iwona;text-align:end;text-anchor:end">
      <path
         d="m 349.08047,597.86212 c 0,-2.66 -1,-4.7 -3.42,-4.7 -1.02,0 -1.96,0.46 -2.76,1.1 v -0.9 h -1.56 v 13.6 h 1.56 v -4.94 c 0.78,0.34 1.62,0.54 2.46,0.54 2.5,0 3.72,-2 3.72,-4.7 z m -1.76,0 c 0,1.88 -0.58,3.86 -2.22,3.86 -0.76,0 -1.52,-0.2 -2.2,-0.54 v -6.08 c 0.6,-0.6 1.34,-1.1 2.2,-1.1 1.82,0 2.22,1.76 2.22,3.86 z"
         style="font-size:20px;line-height:1.25"
         id="path293" />
      <path
         d="m 359.02044,602.36212 v -14 h -1.56 v 5.34 c -0.78,-0.34 -1.62,-0.54 -2.46,-0.54 -2.5,0 -3.72,2 -3.72,4.7 0,2.66 1,4.7 3.42,4.7 1.02,0 1.96,-0.46 2.76,-1.1 v 0.9 z m -1.56,-1.74 c -0.6,0.6 -1.34,1.1 -2.2,1.1 -1.82,0 -2.22,-1.76 -2.22,-3.86 0,-1.88 0.58,-3.86 2.22,-3.86 0.76,0 1.52,0.2 2.2,0.54 z"
         style="font-size:20px;line-height:1.25"
         id="path295" />
      <path
         d="m 369.26042,602.36212 v -5.6 c 0,-1.88 -1.16,-3.6 -2.9,-3.6 -1.28,0 -2.48,0.44 -3.56,1.12 v 0.62 c 0.9,-0.5 1.9,-0.82 2.94,-0.82 1.24,0 1.96,1.32 1.96,2.68 v 0.36 c -0.78,-0.34 -1.62,-0.54 -2.46,-0.54 -2.14,0 -3.72,0.98 -3.72,3 0,1.92 1.4,2.98 3.42,2.98 1.02,0 1.96,-0.46 2.76,-1.1 v 0.9 z m -1.56,-1.74 c -0.6,0.6 -1.34,1.1 -2.2,1.1 -1.34,0 -2.22,-0.82 -2.22,-2.14 0,-1.22 1,-2.16 2.22,-2.16 0.76,0 1.52,0.2 2.2,0.54 z"
         style="font-size:20px;line-height:1.25"
         id="path297" />
      <path
         d="m 376.7004,601.66212 v -0.6 c -0.32,0.32 -0.7,0.58 -1.16,0.58 -0.72,0 -0.76,-0.94 -0.76,-1.78 v -5.66 h 1.92 v -0.84 h -1.92 v -3 h -0.94 c 0,1.6 -0.92,3.1 -2.38,3.1 v 0.74 h 1.76 v 5.66 c 0,1.32 0.42,2.7 1.56,2.7 0.74,0 1.38,-0.4 1.92,-0.9 z"
         style="font-size:20px;line-height:1.25"
         id="path299" />
      <path
         d="m 385.94038,602.36212 v -5.6 c 0,-1.88 -1.16,-3.6 -2.9,-3.6 -1.28,0 -2.48,0.44 -3.56,1.12 v 0.62 c 0.9,-0.5 1.9,-0.82 2.94,-0.82 1.24,0 1.96,1.32 1.96,2.68 v 0.36 c -0.78,-0.34 -1.62,-0.54 -2.46,-0.54 -2.14,0 -3.72,0.98 -3.72,3 0,1.92 1.4,2.98 3.42,2.98 1.02,0 1.96,-0.46 2.76,-1.1 v 0.9 z m -1.56,-1.74 c -0.6,0.6 -1.34,1.1 -2.2,1.1 -1.34,0 -2.22,-0.82 -2.22,-2.14 0,-1.22 1,-2.16 2.22,-2.16 0.76,0 1.52,0.2 2.2,0.54 z"
         style="font-size:20px;line-height:1.25"
         id="path301" />
      <path
         d="m 397.54036,604.66212 v -1 h -10 v 1 z"
         style="font-size:20px;line-height:1.25"
         id="path303" />
      <path
         d="m 406.38032,597.86212 c 0,-3.06 -1.36,-4.7 -3.86,-4.7 -2.52,0 -3.88,1.64 -3.88,4.7 0,3.06 1.36,4.7 3.88,4.7 2.5,0 3.86,-1.64 3.86,-4.7 z m -1.76,0 c 0,2.5 -0.74,3.86 -2.1,3.86 -1.38,0 -2.12,-1.36 -2.12,-3.86 0,-2.5 0.74,-3.86 2.12,-3.86 1.36,0 2.1,1.36 2.1,3.86 z"
         style="font-size:20px;line-height:1.25"
         id="path305" />
    </g>
  </g>
</svg>
