<?xml version="1.0" encoding="UTF-8" standalone="no"?>
<!-- Created with Inkscape (http://www.inkscape.org/) -->

<svg
   width="262.65842mm"
   height="94.598312mm"
   id="svg2"
   version="1.1"
   viewBox="0 0 930.6795 335.19086"
   xmlns="http://www.w3.org/2000/svg"
   xmlns:svg="http://www.w3.org/2000/svg"
   xmlns:rdf="http://www.w3.org/1999/02/22-rdf-syntax-ns#"
   xmlns:cc="http://creativecommons.org/ns#"
   xmlns:dc="http://purl.org/dc/elements/1.1/">
  <defs
     id="defs4">
    <marker
       style="overflow:visible"
       id="marker294295_Fnone_S#000000"
       refX="0"
       refY="0"
       orient="auto">
      <path
         transform="matrix(0.2,0,0,0.2,1.48,0.2)"
         style="fill:#000000;fill-rule:evenodd;stroke:#000000;stroke-width:1pt"
         d="m -2.5,-1 c 0,2.76 -2.24,5 -5,5 -2.76,0 -5,-2.24 -5,-5 0,-2.76 2.24,-5 5,-5 2.76,0 5,2.24 5,5 z"
         id="path303305" />
    </marker>
    <marker
       style="overflow:visible"
       id="DotS_Fnone_S#000000"
       refX="0"
       refY="0"
       orient="auto">
      <path
         transform="matrix(0.2,0,0,0.2,1.48,0.2)"
         style="fill:#000000;fill-rule:evenodd;stroke:#000000;stroke-width:1pt"
         d="m -2.5,-1 c 0,2.76 -2.24,5 -5,5 -2.76,0 -5,-2.24 -5,-5 0,-2.76 2.24,-5 5,-5 2.76,0 5,2.24 5,5 z"
         id="path303308" />
    </marker>
  </defs>
  <metadata
     id="metadata7">
    <rdf:RDF>
      <cc:Work
         rdf:about="">
        <dc:format>image/svg+xml</dc:format>
        <dc:type
           rdf:resource="http://purl.org/dc/dcmitype/StillImage" />
      </cc:Work>
    </rdf:RDF>
  </metadata>
  <g
     id="layer1"
     transform="translate(47.953143,-402.31701)">
    <g
       id="g292753"
       transform="translate(77.952763,-10.629887)">
      <path
         id="rect3112"
         style="fill:#afdde9;stroke:#000000;stroke-width:0.885827"
         d="M 496.06296,421.20941 H 797.24405 V 623.17792 H 496.06296 Z" />
      <g
         aria-label="VMemory"
         id="text3157"
         style="line-height:0%;font-family:Iwona;-inkscape-font-specification:Iwona;text-align:center;text-anchor:middle">
        <path
           d="m 644.75493,510.5827 h -1.96 l -9.28,23.76 -9.24,-23.76 h -3.52 l 10.92,28 h 2.16 z"
           style="font-size:40px;line-height:1.25"
           id="path127" />
        <path
           d="m 678.5549,538.5827 -1.6,-28 h -2.64 l -11.24,23.64 -11.28,-23.64 h -2.64 l -1.6,28 h 1.84 l 1.28,-22.68 10.84,22.68 h 1.48 l 10.96,-22.96 1.32,22.96 z"
           style="font-size:40px;line-height:1.25"
           id="path129" />
        <path
           d="m 698.63484,529.9827 v -0.4 c 0,-5.64 -3.08,-9.4 -7.72,-9.4 -4.68,0 -7.76,3.76 -7.76,9.4 0,5.64 3.08,9.4 7.76,9.4 2,0 3.96,-0.64 5.6,-1.8 v -1.68 c -1.88,1.2 -3.4,1.64 -5.6,1.64 -3.4,0 -4.24,-3.24 -4.24,-7.16 z m -3.52,-1.68 h -8.44 c 0,-3.2 1.36,-6.44 4.24,-6.44 2.84,0 4.2,3.24 4.2,6.44 z"
           style="font-size:40px;line-height:1.25"
           id="path131" />
        <path
           d="m 725.67479,538.5827 v -13 c 0,-2.8 -1.64,-5.4 -4.24,-5.4 -2.24,0 -4.32,1.16 -5.52,3.04 -0.64,-1.76 -2,-3.04 -3.84,-3.04 -2.08,0 -3.76,1.44 -5.12,3.04 v -2.64 h -3.12 v 18 h 3.12 v -14.16 c 0.96,-1.24 2.16,-2.4 3.72,-2.4 1.64,0 2.52,1.76 2.52,3.56 v 13 h 3.12 v -13 c 0,-0.48 -0.04,-0.92 -0.12,-1.4 0.96,-1.24 2.28,-2.16 3.84,-2.16 1.64,0 2.52,1.76 2.52,3.56 v 13 z"
           style="font-size:40px;line-height:1.25"
           id="path133" />
        <path
           d="m 746.35472,529.5827 c 0,-6.12 -2.72,-9.4 -7.72,-9.4 -5.04,0 -7.76,3.28 -7.76,9.4 0,6.12 2.72,9.4 7.76,9.4 5,0 7.72,-3.28 7.72,-9.4 z m -3.52,0 c 0,5 -1.48,7.72 -4.2,7.72 -2.76,0 -4.24,-2.72 -4.24,-7.72 0,-5 1.48,-7.72 4.24,-7.72 2.72,0 4.2,2.72 4.2,7.72 z"
           style="font-size:40px;line-height:1.25"
           id="path135" />
        <path
           d="m 761.71471,523.0627 v -2.48 c -0.44,-0.16 -0.92,-0.28 -1.36,-0.28 -2.24,0 -4.04,1.56 -5.48,3.28 v -3 h -3.12 v 18 h 3.12 v -13.32 c 1.2,-1.4 2.72,-2.6 4.56,-2.6 0.76,0 1.56,0.16 2.28,0.4 z"
           style="font-size:40px;line-height:1.25"
           id="path137" />
        <path
           d="m 779.99467,540.9827 v -20.4 h -3.12 v 14.12 c -1.36,1.36 -3.04,2.44 -4.92,2.44 -1.88,0 -3.32,-1.64 -3.32,-3.56 v -13 h -3.12 v 13 c 0,2.92 2.24,5.4 5.12,5.4 2.4,0 4.52,-1.36 6.24,-3.04 v 5.04 c 0,2.68 -1.2,5.36 -3.6,5.36 -1.88,0 -3.68,-0.4 -5.4,-1.08 v 1.24 c 2.04,1.04 4.32,1.68 6.64,1.68 3.4,0 5.48,-3.52 5.48,-7.2 z"
           style="font-size:40px;line-height:1.25"
           id="path139" />
      </g>
      <path
         style="fill:#afdde9;fill-opacity:1;fill-rule:evenodd;stroke:#000000;stroke-width:1px;stroke-linecap:butt;stroke-linejoin:miter;stroke-opacity:1"
         d="m 488.97629,431.83928 v 21.25985 h 17.7165 l 10.63,-10.62992 -10.63,-10.62993 z"
         id="path11157" />
      <g
         aria-label="valid_i"
         id="text11159"
         style="line-height:0%;font-family:Iwona;-inkscape-font-specification:Iwona">
        <path
           d="m 528.80603,440.11166 h -0.9 l -2.72,7.48 -2.64,-7.48 h -1.48 l 3.16,9 h 1.3 z"
           style="font-size:20px;line-height:1.25"
           id="path142" />
        <path
           d="m 537.64602,449.11166 v -5.6 c 0,-1.88 -1.16,-3.6 -2.9,-3.6 -1.28,0 -2.48,0.44 -3.56,1.12 v 0.62 c 0.9,-0.5 1.9,-0.82 2.94,-0.82 1.24,0 1.96,1.32 1.96,2.68 v 0.36 c -0.78,-0.34 -1.62,-0.54 -2.46,-0.54 -2.14,0 -3.72,0.98 -3.72,3 0,1.92 1.4,2.98 3.42,2.98 1.02,0 1.96,-0.46 2.76,-1.1 v 0.9 z m -1.56,-1.74 c -0.6,0.6 -1.34,1.1 -2.2,1.1 -1.34,0 -2.22,-0.82 -2.22,-2.14 0,-1.22 1,-2.16 2.22,-2.16 0.76,0 1.52,0.2 2.2,0.54 z"
           style="font-size:20px;line-height:1.25"
           id="path144" />
        <path
           d="m 544.606,448.41166 v -0.6 c -0.38,0.32 -0.82,0.58 -1.32,0.58 -0.74,0 -0.88,-0.92 -0.88,-1.78 v -11.5 h -1.56 v 11.5 c 0,1.34 0.52,2.7 1.7,2.7 0.76,0 1.48,-0.38 2.06,-0.9 z"
           style="font-size:20px;line-height:1.25"
           id="path146" />
        <path
           d="m 550.26597,448.41166 v -0.6 c -0.38,0.32 -0.82,0.58 -1.32,0.58 -0.74,0 -0.88,-0.92 -0.88,-1.78 v -6.5 h -1.56 v 6.5 c 0,1.34 0.52,2.7 1.7,2.7 0.76,0 1.48,-0.38 2.06,-0.9 z m -2,-11.42 c 0,-0.54 -0.44,-0.98 -0.98,-0.98 -0.54,0 -0.98,0.44 -0.98,0.98 0,0.54 0.44,0.98 0.98,0.98 0.54,0 0.98,-0.44 0.98,-0.98 z"
           style="font-size:20px;line-height:1.25"
           id="path148" />
        <path
           d="m 559.50595,449.11166 v -14 h -1.56 v 5.34 c -0.78,-0.34 -1.62,-0.54 -2.46,-0.54 -2.5,0 -3.72,2 -3.72,4.7 0,2.66 1,4.7 3.42,4.7 1.02,0 1.96,-0.46 2.76,-1.1 v 0.9 z m -1.56,-1.74 c -0.6,0.6 -1.34,1.1 -2.2,1.1 -1.82,0 -2.22,-1.76 -2.22,-3.86 0,-1.88 0.58,-3.86 2.22,-3.86 0.76,0 1.52,0.2 2.2,0.54 z"
           style="font-size:20px;line-height:1.25"
           id="path150" />
        <path
           d="m 571.10593,451.41166 v -1 h -10 v 1 z"
           style="font-size:20px;line-height:1.25"
           id="path152" />
        <path
           d="m 576.3659,448.41166 v -0.6 c -0.38,0.32 -0.82,0.58 -1.32,0.58 -0.74,0 -0.88,-0.92 -0.88,-1.78 v -6.5 h -1.56 v 6.5 c 0,1.34 0.52,2.7 1.7,2.7 0.76,0 1.48,-0.38 2.06,-0.9 z m -2,-11.42 c 0,-0.54 -0.44,-0.98 -0.98,-0.98 -0.54,0 -0.98,0.44 -0.98,0.98 0,0.54 0.44,0.98 0.98,0.98 0.54,0 0.98,-0.44 0.98,-0.98 z"
           style="font-size:20px;line-height:1.25"
           id="path154" />
      </g>
      <path
         id="path3150"
         d="m 662.59837,630.26448 h 21.25985 v -17.71652 l -10.62992,-10.62993 -10.62993,10.62993 z"
         style="fill:#afdde9;fill-opacity:1;fill-rule:evenodd;stroke:#000000;stroke-width:1px;stroke-linecap:butt;stroke-linejoin:miter;stroke-opacity:1" />
      <g
         aria-label="clk_i"
         id="text3152"
         style="line-height:0%;font-family:Iwona;-inkscape-font-specification:Iwona;text-align:center;text-anchor:middle">
        <path
           d="m 661.53834,591.45482 v -0.84 c -0.64,-0.9 -1.68,-1.44 -2.8,-1.44 -2.5,0 -4.18,1.88 -4.18,4.7 0,2.82 1.68,4.7 4.18,4.7 1.04,0 2.02,-0.52 2.6,-1.38 v -0.84 c -0.68,1.02 -1.38,1.38 -2.6,1.38 -1.44,0 -2.42,-1.54 -2.42,-3.86 0,-2.32 0.98,-3.86 2.42,-3.86 1.24,0 2.08,0.44 2.8,1.44 z"
           style="font-size:20px;line-height:1.25"
           id="path157" />
        <path
           d="m 667.39831,597.67482 v -0.6 c -0.38,0.32 -0.82,0.58 -1.32,0.58 -0.74,0 -0.88,-0.92 -0.88,-1.78 v -11.5 h -1.56 v 11.5 c 0,1.34 0.52,2.7 1.7,2.7 0.76,0 1.48,-0.38 2.06,-0.9 z"
           style="font-size:20px;line-height:1.25"
           id="path159" />
        <path
           d="m 677.13828,598.37482 -4.64,-5.34 4.48,-3.66 h -1.24 l -4.78,3.92 v -8.92 h -1.56 v 14 h 1.56 v -4.98 l 4.32,4.98 z"
           style="font-size:20px;line-height:1.25"
           id="path161" />
        <path
           d="m 687.33826,600.67482 v -1 h -10 v 1 z"
           style="font-size:20px;line-height:1.25"
           id="path163" />
        <path
           d="m 692.59823,597.67482 v -0.6 c -0.38,0.32 -0.82,0.58 -1.32,0.58 -0.74,0 -0.88,-0.92 -0.88,-1.78 v -6.5 h -1.56 v 6.5 c 0,1.34 0.52,2.7 1.7,2.7 0.76,0 1.48,-0.38 2.06,-0.9 z m -2,-11.42 c 0,-0.54 -0.44,-0.98 -0.98,-0.98 -0.54,0 -0.98,0.44 -0.98,0.98 0,0.54 0.44,0.98 0.98,0.98 0.54,0 0.98,-0.44 0.98,-0.98 z"
           style="font-size:20px;line-height:1.25"
           id="path165" />
      </g>
      <path
         id="path3174"
         d="m 510.23613,463.72905 v 21.25984 h -17.7165 l -10.63,-10.62991 10.63,-10.62993 z"
         style="fill:#afdde9;fill-opacity:1;fill-rule:evenodd;stroke:#000000;stroke-width:1px;stroke-linecap:butt;stroke-linejoin:miter;stroke-opacity:1" />
      <g
         aria-label="ready_o"
         id="text3176"
         style="line-height:0%;font-family:Iwona;-inkscape-font-specification:Iwona">
        <path
           d="m 527.44603,473.2414 v -1.24 c -0.22,-0.08 -0.46,-0.14 -0.68,-0.14 -1.12,0 -2.02,0.78 -2.74,1.64 v -1.5 h -1.56 v 9 h 1.56 v -6.66 c 0.6,-0.7 1.36,-1.3 2.28,-1.3 0.38,0 0.78,0.08 1.14,0.2 z"
           style="font-size:20px;line-height:1.25"
           id="path168" />
        <path
           d="m 536.68601,476.7014 v -0.2 c 0,-2.82 -1.54,-4.7 -3.86,-4.7 -2.34,0 -3.88,1.88 -3.88,4.7 0,2.82 1.54,4.7 3.88,4.7 1,0 1.98,-0.32 2.8,-0.9 v -0.84 c -0.94,0.6 -1.7,0.82 -2.8,0.82 -1.7,0 -2.12,-1.62 -2.12,-3.58 z m -1.76,-0.84 h -4.22 c 0,-1.6 0.68,-3.22 2.12,-3.22 1.42,0 2.1,1.62 2.1,3.22 z"
           style="font-size:20px;line-height:1.25"
           id="path170" />
        <path
           d="m 546.32598,481.0014 v -5.6 c 0,-1.88 -1.16,-3.6 -2.9,-3.6 -1.28,0 -2.48,0.44 -3.56,1.12 v 0.62 c 0.9,-0.5 1.9,-0.82 2.94,-0.82 1.24,0 1.96,1.32 1.96,2.68 v 0.36 c -0.78,-0.34 -1.62,-0.54 -2.46,-0.54 -2.14,0 -3.72,0.98 -3.72,3 0,1.92 1.4,2.98 3.42,2.98 1.02,0 1.96,-0.46 2.76,-1.1 v 0.9 z m -1.56,-1.74 c -0.6,0.6 -1.34,1.1 -2.2,1.1 -1.34,0 -2.22,-0.82 -2.22,-2.14 0,-1.22 1,-2.16 2.22,-2.16 0.76,0 1.52,0.2 2.2,0.54 z"
           style="font-size:20px;line-height:1.25"
           id="path172" />
        <path
           d="m 556.76596,481.0014 v -14 h -1.56 v 5.34 c -0.78,-0.34 -1.62,-0.54 -2.46,-0.54 -2.5,0 -3.72,2 -3.72,4.7 0,2.66 1,4.7 3.42,4.7 1.02,0 1.96,-0.46 2.76,-1.1 v 0.9 z m -1.56,-1.74 c -0.6,0.6 -1.34,1.1 -2.2,1.1 -1.82,0 -2.22,-1.76 -2.22,-3.86 0,-1.88 0.58,-3.86 2.22,-3.86 0.76,0 1.52,0.2 2.2,0.54 z"
           style="font-size:20px;line-height:1.25"
           id="path174" />
        <path
           d="m 567.10595,482.2014 v -10.2 h -1.56 v 7.06 c -0.68,0.68 -1.52,1.22 -2.46,1.22 -0.94,0 -1.66,-0.82 -1.66,-1.78 v -6.5 h -1.56 v 6.5 c 0,1.46 1.12,2.7 2.56,2.7 1.2,0 2.26,-0.68 3.12,-1.52 v 2.52 c 0,1.34 -0.6,2.68 -1.8,2.68 -0.94,0 -1.84,-0.2 -2.7,-0.54 v 0.62 c 1.02,0.52 2.16,0.84 3.32,0.84 1.7,0 2.74,-1.76 2.74,-3.6 z"
           style="font-size:20px;line-height:1.25"
           id="path176" />
        <path
           d="m 578.70592,483.3014 v -1 h -10 v 1 z"
           style="font-size:20px;line-height:1.25"
           id="path178" />
        <path
           d="m 587.54588,476.5014 c 0,-3.06 -1.36,-4.7 -3.86,-4.7 -2.52,0 -3.88,1.64 -3.88,4.7 0,3.06 1.36,4.7 3.88,4.7 2.5,0 3.86,-1.64 3.86,-4.7 z m -1.76,0 c 0,2.5 -0.74,3.86 -2.1,3.86 -1.38,0 -2.12,-1.36 -2.12,-3.86 0,-2.5 0.74,-3.86 2.12,-3.86 1.36,0 2.1,1.36 2.1,3.86 z"
           style="font-size:20px;line-height:1.25"
           id="path180" />
      </g>
      <path
         style="fill:#afdde9;fill-opacity:1;fill-rule:evenodd;stroke:#000000;stroke-width:1px;stroke-linecap:butt;stroke-linejoin:miter;stroke-opacity:1"
         d="m 488.97625,495.61881 v 21.25984 h 17.7165 l 10.63,-10.62991 -10.63,-10.62993 z"
         id="path5931" />
      <g
         aria-label="address_i"
         id="text5933"
         style="line-height:0%;font-family:Iwona;-inkscape-font-specification:Iwona">
        <path
           d="m 529.50603,513.33533 v -5.6 c 0,-1.88 -1.16,-3.6 -2.9,-3.6 -1.28,0 -2.48,0.44 -3.56,1.12 v 0.62 c 0.9,-0.5 1.9,-0.82 2.94,-0.82 1.24,0 1.96,1.32 1.96,2.68 v 0.36 c -0.78,-0.34 -1.62,-0.54 -2.46,-0.54 -2.14,0 -3.72,0.98 -3.72,3 0,1.92 1.4,2.98 3.42,2.98 1.02,0 1.96,-0.46 2.76,-1.1 v 0.9 z m -1.56,-1.74 c -0.6,0.6 -1.34,1.1 -2.2,1.1 -1.34,0 -2.22,-0.82 -2.22,-2.14 0,-1.22 1,-2.16 2.22,-2.16 0.76,0 1.52,0.2 2.2,0.54 z"
           style="font-size:20px;line-height:1.25"
           id="path183" />
        <path
           d="m 539.94601,513.33533 v -14 h -1.56 v 5.34 c -0.78,-0.34 -1.62,-0.54 -2.46,-0.54 -2.5,0 -3.72,2 -3.72,4.7 0,2.66 1,4.7 3.42,4.7 1.02,0 1.96,-0.46 2.76,-1.1 v 0.9 z m -1.56,-1.74 c -0.6,0.6 -1.34,1.1 -2.2,1.1 -1.82,0 -2.22,-1.76 -2.22,-3.86 0,-1.88 0.58,-3.86 2.22,-3.86 0.76,0 1.52,0.2 2.2,0.54 z"
           style="font-size:20px;line-height:1.25"
           id="path185" />
        <path
           d="m 550.386,513.33533 v -14 h -1.56 v 5.34 c -0.78,-0.34 -1.62,-0.54 -2.46,-0.54 -2.5,0 -3.72,2 -3.72,4.7 0,2.66 1,4.7 3.42,4.7 1.02,0 1.96,-0.46 2.76,-1.1 v 0.9 z m -1.56,-1.74 c -0.6,0.6 -1.34,1.1 -2.2,1.1 -1.82,0 -2.22,-1.76 -2.22,-3.86 0,-1.88 0.58,-3.86 2.22,-3.86 0.76,0 1.52,0.2 2.2,0.54 z"
           style="font-size:20px;line-height:1.25"
           id="path187" />
        <path
           d="m 558.56598,505.57533 v -1.24 c -0.22,-0.08 -0.46,-0.14 -0.68,-0.14 -1.12,0 -2.02,0.78 -2.74,1.64 v -1.5 h -1.56 v 9 h 1.56 v -6.66 c 0.6,-0.7 1.36,-1.3 2.28,-1.3 0.38,0 0.78,0.08 1.14,0.2 z"
           style="font-size:20px;line-height:1.25"
           id="path189" />
        <path
           d="m 567.80597,509.03533 v -0.2 c 0,-2.82 -1.54,-4.7 -3.86,-4.7 -2.34,0 -3.88,1.88 -3.88,4.7 0,2.82 1.54,4.7 3.88,4.7 1,0 1.98,-0.32 2.8,-0.9 v -0.84 c -0.94,0.6 -1.7,0.82 -2.8,0.82 -1.7,0 -2.12,-1.62 -2.12,-3.58 z m -1.76,-0.84 h -4.22 c 0,-1.6 0.68,-3.22 2.12,-3.22 1.42,0 2.1,1.62 2.1,3.22 z"
           style="font-size:20px;line-height:1.25"
           id="path191" />
        <path
           d="m 576.48594,510.77533 c 0,-1.58 -1.68,-2.4 -3.32,-2.8 -0.96,-0.24 -2,-0.64 -2,-1.58 0,-0.86 0.88,-1.42 1.84,-1.42 1.06,0 2.12,0.32 3,0.9 v -0.84 c -0.88,-0.58 -1.94,-0.9 -3,-0.9 -1.74,0 -3.34,1.06 -3.34,2.68 0,1.46 1.62,2.14 3.16,2.52 1.06,0.26 2.16,0.82 2.16,1.84 0,0.94 -0.96,1.52 -1.98,1.52 -1.24,0 -2.44,-0.3 -3.5,-0.9 v 0.84 c 1.06,0.6 2.26,0.9 3.5,0.9 1.8,0 3.48,-1.08 3.48,-2.76 z"
           style="font-size:20px;line-height:1.25"
           id="path193" />
        <path
           d="m 584.8259,510.77533 c 0,-1.58 -1.68,-2.4 -3.32,-2.8 -0.96,-0.24 -2,-0.64 -2,-1.58 0,-0.86 0.88,-1.42 1.84,-1.42 1.06,0 2.12,0.32 3,0.9 v -0.84 c -0.88,-0.58 -1.94,-0.9 -3,-0.9 -1.74,0 -3.34,1.06 -3.34,2.68 0,1.46 1.62,2.14 3.16,2.52 1.06,0.26 2.16,0.82 2.16,1.84 0,0.94 -0.96,1.52 -1.98,1.52 -1.24,0 -2.44,-0.3 -3.5,-0.9 v 0.84 c 1.06,0.6 2.26,0.9 3.5,0.9 1.8,0 3.48,-1.08 3.48,-2.76 z"
           style="font-size:20px;line-height:1.25"
           id="path195" />
        <path
           d="m 595.72588,515.63533 v -1 h -10 v 1 z"
           style="font-size:20px;line-height:1.25"
           id="path197" />
        <path
           d="m 600.98584,512.63533 v -0.6 c -0.38,0.32 -0.82,0.58 -1.32,0.58 -0.74,0 -0.88,-0.92 -0.88,-1.78 v -6.5 h -1.56 v 6.5 c 0,1.34 0.52,2.7 1.7,2.7 0.76,0 1.48,-0.38 2.06,-0.9 z m -2,-11.42 c 0,-0.54 -0.44,-0.98 -0.98,-0.98 -0.54,0 -0.98,0.44 -0.98,0.98 0,0.54 0.44,0.98 0.98,0.98 0.54,0 0.98,-0.44 0.98,-0.98 z"
           style="font-size:20px;line-height:1.25"
           id="path199" />
      </g>
      <path
         style="fill:#afdde9;fill-opacity:1;fill-rule:evenodd;stroke:#000000;stroke-width:1px;stroke-linecap:butt;stroke-linejoin:miter;stroke-opacity:1"
         d="m 733.4645,630.26448 h 21.25985 v -17.71652 l -10.62992,-10.62993 -10.62993,10.62993 z"
         id="path6153" />
      <g
         aria-label="reset_i"
         id="text6155"
         style="line-height:0%;font-family:Iwona;-inkscape-font-specification:Iwona;text-align:center;text-anchor:middle">
        <path
           d="m 722.00451,590.61482 v -1.24 c -0.22,-0.08 -0.46,-0.14 -0.68,-0.14 -1.12,0 -2.02,0.78 -2.74,1.64 v -1.5 h -1.56 v 9 h 1.56 v -6.66 c 0.6,-0.7 1.36,-1.3 2.28,-1.3 0.38,0 0.78,0.08 1.14,0.2 z"
           style="font-size:20px;line-height:1.25"
           id="path202" />
        <path
           d="m 731.24449,594.07482 v -0.2 c 0,-2.82 -1.54,-4.7 -3.86,-4.7 -2.34,0 -3.88,1.88 -3.88,4.7 0,2.82 1.54,4.7 3.88,4.7 1,0 1.98,-0.32 2.8,-0.9 v -0.84 c -0.94,0.6 -1.7,0.82 -2.8,0.82 -1.7,0 -2.12,-1.62 -2.12,-3.58 z m -1.76,-0.84 h -4.22 c 0,-1.6 0.68,-3.22 2.12,-3.22 1.42,0 2.1,1.62 2.1,3.22 z"
           style="font-size:20px;line-height:1.25"
           id="path204" />
        <path
           d="m 739.92446,595.81482 c 0,-1.58 -1.68,-2.4 -3.32,-2.8 -0.96,-0.24 -2,-0.64 -2,-1.58 0,-0.86 0.88,-1.42 1.84,-1.42 1.06,0 2.12,0.32 3,0.9 v -0.84 c -0.88,-0.58 -1.94,-0.9 -3,-0.9 -1.74,0 -3.34,1.06 -3.34,2.68 0,1.46 1.62,2.14 3.16,2.52 1.06,0.26 2.16,0.82 2.16,1.84 0,0.94 -0.96,1.52 -1.98,1.52 -1.24,0 -2.44,-0.3 -3.5,-0.9 v 0.84 c 1.06,0.6 2.26,0.9 3.5,0.9 1.8,0 3.48,-1.08 3.48,-2.76 z"
           style="font-size:20px;line-height:1.25"
           id="path206" />
        <path
           d="m 749.66444,594.07482 v -0.2 c 0,-2.82 -1.54,-4.7 -3.86,-4.7 -2.34,0 -3.88,1.88 -3.88,4.7 0,2.82 1.54,4.7 3.88,4.7 1,0 1.98,-0.32 2.8,-0.9 v -0.84 c -0.94,0.6 -1.7,0.82 -2.8,0.82 -1.7,0 -2.12,-1.62 -2.12,-3.58 z m -1.76,-0.84 h -4.22 c 0,-1.6 0.68,-3.22 2.12,-3.22 1.42,0 2.1,1.62 2.1,3.22 z"
           style="font-size:20px;line-height:1.25"
           id="path208" />
        <path
           d="m 756.50442,597.67482 v -0.6 c -0.32,0.32 -0.7,0.58 -1.16,0.58 -0.72,0 -0.76,-0.94 -0.76,-1.78 v -5.66 h 1.92 v -0.84 h -1.92 v -3 h -0.94 c 0,1.6 -0.92,3.1 -2.38,3.1 v 0.74 h 1.76 v 5.66 c 0,1.32 0.42,2.7 1.56,2.7 0.74,0 1.38,-0.4 1.92,-0.9 z"
           style="font-size:20px;line-height:1.25"
           id="path210" />
        <path
           d="m 767.10439,600.67482 v -1 h -10 v 1 z"
           style="font-size:20px;line-height:1.25"
           id="path212" />
        <path
           d="m 772.36435,597.67482 v -0.6 c -0.38,0.32 -0.82,0.58 -1.32,0.58 -0.74,0 -0.88,-0.92 -0.88,-1.78 v -6.5 h -1.56 v 6.5 c 0,1.34 0.52,2.7 1.7,2.7 0.76,0 1.48,-0.38 2.06,-0.9 z m -2,-11.42 c 0,-0.54 -0.44,-0.98 -0.98,-0.98 -0.54,0 -0.98,0.44 -0.98,0.98 0,0.54 0.44,0.98 0.98,0.98 0.54,0 0.98,-0.44 0.98,-0.98 z"
           style="font-size:20px;line-height:1.25"
           id="path214" />
      </g>
      <path
         style="fill:#afdde9;fill-opacity:1;fill-rule:evenodd;stroke:#000000;stroke-width:1px;stroke-linecap:butt;stroke-linejoin:miter;stroke-opacity:1"
         d="m 488.97625,527.50858 v 21.25984 h 17.7165 l 10.63,-10.62991 -10.63,-10.62992 z"
         id="path252043" />
      <g
         aria-label="write_i"
         id="text252047"
         style="line-height:0%;font-family:Iwona;-inkscape-font-specification:Iwona">
        <path
           d="m 533.94603,536.2251 h -0.88 l -2.36,7.3 -2.26,-7.3 h -1.08 l -2.36,7.3 -2.28,-7.3 h -1.46 l 2.8,9 h 1.26 l 2.26,-7 2.18,7 h 1.26 z"
           style="font-size:20px;line-height:1.25"
           id="path217" />
        <path
           d="m 540.92602,537.4651 v -1.24 c -0.22,-0.08 -0.46,-0.14 -0.68,-0.14 -1.12,0 -2.02,0.78 -2.74,1.64 v -1.5 h -1.56 v 9 h 1.56 v -6.66 c 0.6,-0.7 1.36,-1.3 2.28,-1.3 0.38,0 0.78,0.08 1.14,0.2 z"
           style="font-size:20px;line-height:1.25"
           id="path219" />
        <path
           d="m 546.586,544.5251 v -0.6 c -0.38,0.32 -0.82,0.58 -1.32,0.58 -0.74,0 -0.88,-0.92 -0.88,-1.78 v -6.5 h -1.56 v 6.5 c 0,1.34 0.52,2.7 1.7,2.7 0.76,0 1.48,-0.38 2.06,-0.9 z m -2,-11.42 c 0,-0.54 -0.44,-0.98 -0.98,-0.98 -0.54,0 -0.98,0.44 -0.98,0.98 0,0.54 0.44,0.98 0.98,0.98 0.54,0 0.98,-0.44 0.98,-0.98 z"
           style="font-size:20px;line-height:1.25"
           id="path221" />
        <path
           d="m 552.82598,544.5251 v -0.6 c -0.32,0.32 -0.7,0.58 -1.16,0.58 -0.72,0 -0.76,-0.94 -0.76,-1.78 v -5.66 h 1.92 v -0.84 h -1.92 v -3 h -0.94 c 0,1.6 -0.92,3.1 -2.38,3.1 v 0.74 h 1.76 v 5.66 c 0,1.32 0.42,2.7 1.56,2.7 0.74,0 1.38,-0.4 1.92,-0.9 z"
           style="font-size:20px;line-height:1.25"
           id="path223" />
        <path
           d="m 562.26596,540.9251 v -0.2 c 0,-2.82 -1.54,-4.7 -3.86,-4.7 -2.34,0 -3.88,1.88 -3.88,4.7 0,2.82 1.54,4.7 3.88,4.7 1,0 1.98,-0.32 2.8,-0.9 v -0.84 c -0.94,0.6 -1.7,0.82 -2.8,0.82 -1.7,0 -2.12,-1.62 -2.12,-3.58 z m -1.76,-0.84 h -4.22 c 0,-1.6 0.68,-3.22 2.12,-3.22 1.42,0 2.1,1.62 2.1,3.22 z"
           style="font-size:20px;line-height:1.25"
           id="path225" />
        <path
           d="m 573.26593,547.5251 v -1 h -10 v 1 z"
           style="font-size:20px;line-height:1.25"
           id="path227" />
        <path
           d="m 578.52589,544.5251 v -0.6 c -0.38,0.32 -0.82,0.58 -1.32,0.58 -0.74,0 -0.88,-0.92 -0.88,-1.78 v -6.5 h -1.56 v 6.5 c 0,1.34 0.52,2.7 1.7,2.7 0.76,0 1.48,-0.38 2.06,-0.9 z m -2,-11.42 c 0,-0.54 -0.44,-0.98 -0.98,-0.98 -0.54,0 -0.98,0.44 -0.98,0.98 0,0.54 0.44,0.98 0.98,0.98 0.54,0 0.98,-0.44 0.98,-0.98 z"
           style="font-size:20px;line-height:1.25"
           id="path229" />
      </g>
      <path
         style="fill:#afdde9;fill-opacity:1;fill-rule:evenodd;stroke:#000000;stroke-width:1px;stroke-linecap:butt;stroke-linejoin:miter;stroke-opacity:1"
         d="m 488.97625,559.39834 v 21.25984 h 17.7165 l 10.63,-10.62991 -10.63,-10.62993 z"
         id="path252049" />
      <g
         aria-label="wdata_i"
         id="text252053"
         style="line-height:0%;font-family:Iwona;-inkscape-font-specification:Iwona">
        <path
           d="m 533.94603,568.11481 h -0.88 l -2.36,7.3 -2.26,-7.3 h -1.08 l -2.36,7.3 -2.28,-7.3 h -1.46 l 2.8,9 h 1.26 l 2.26,-7 2.18,7 h 1.26 z"
           style="font-size:20px;line-height:1.25"
           id="path232" />
        <path
           d="m 543.18602,577.11481 v -14 h -1.56 v 5.34 c -0.78,-0.34 -1.62,-0.54 -2.46,-0.54 -2.5,0 -3.72,2 -3.72,4.7 0,2.66 1,4.7 3.42,4.7 1.02,0 1.96,-0.46 2.76,-1.1 v 0.9 z m -1.56,-1.74 c -0.6,0.6 -1.34,1.1 -2.2,1.1 -1.82,0 -2.22,-1.76 -2.22,-3.86 0,-1.88 0.58,-3.86 2.22,-3.86 0.76,0 1.52,0.2 2.2,0.54 z"
           style="font-size:20px;line-height:1.25"
           id="path234" />
        <path
           d="m 553.42601,577.11481 v -5.6 c 0,-1.88 -1.16,-3.6 -2.9,-3.6 -1.28,0 -2.48,0.44 -3.56,1.12 v 0.62 c 0.9,-0.5 1.9,-0.82 2.94,-0.82 1.24,0 1.96,1.32 1.96,2.68 v 0.36 c -0.78,-0.34 -1.62,-0.54 -2.46,-0.54 -2.14,0 -3.72,0.98 -3.72,3 0,1.92 1.4,2.98 3.42,2.98 1.02,0 1.96,-0.46 2.76,-1.1 v 0.9 z m -1.56,-1.74 c -0.6,0.6 -1.34,1.1 -2.2,1.1 -1.34,0 -2.22,-0.82 -2.22,-2.14 0,-1.22 1,-2.16 2.22,-2.16 0.76,0 1.52,0.2 2.2,0.54 z"
           style="font-size:20px;line-height:1.25"
           id="path236" />
        <path
           d="m 560.86599,576.41481 v -0.6 c -0.32,0.32 -0.7,0.58 -1.16,0.58 -0.72,0 -0.76,-0.94 -0.76,-1.78 v -5.66 h 1.92 v -0.84 h -1.92 v -3 h -0.94 c 0,1.6 -0.92,3.1 -2.38,3.1 v 0.74 h 1.76 v 5.66 c 0,1.32 0.42,2.7 1.56,2.7 0.74,0 1.38,-0.4 1.92,-0.9 z"
           style="font-size:20px;line-height:1.25"
           id="path238" />
        <path
           d="m 570.10597,577.11481 v -5.6 c 0,-1.88 -1.16,-3.6 -2.9,-3.6 -1.28,0 -2.48,0.44 -3.56,1.12 v 0.62 c 0.9,-0.5 1.9,-0.82 2.94,-0.82 1.24,0 1.96,1.32 1.96,2.68 v 0.36 c -0.78,-0.34 -1.62,-0.54 -2.46,-0.54 -2.14,0 -3.72,0.98 -3.72,3 0,1.92 1.4,2.98 3.42,2.98 1.02,0 1.96,-0.46 2.76,-1.1 v 0.9 z m -1.56,-1.74 c -0.6,0.6 -1.34,1.1 -2.2,1.1 -1.34,0 -2.22,-0.82 -2.22,-2.14 0,-1.22 1,-2.16 2.22,-2.16 0.76,0 1.52,0.2 2.2,0.54 z"
           style="font-size:20px;line-height:1.25"
           id="path240" />
        <path
           d="m 581.70595,579.41481 v -1 h -10 v 1 z"
           style="font-size:20px;line-height:1.25"
           id="path242" />
        <path
           d="m 586.96591,576.41481 v -0.6 c -0.38,0.32 -0.82,0.58 -1.32,0.58 -0.74,0 -0.88,-0.92 -0.88,-1.78 v -6.5 h -1.56 v 6.5 c 0,1.34 0.52,2.7 1.7,2.7 0.76,0 1.48,-0.38 2.06,-0.9 z m -2,-11.42 c 0,-0.54 -0.44,-0.98 -0.98,-0.98 -0.54,0 -0.98,0.44 -0.98,0.98 0,0.54 0.44,0.98 0.98,0.98 0.54,0 0.98,-0.44 0.98,-0.98 z"
           style="font-size:20px;line-height:1.25"
           id="path244" />
      </g>
      <path
         id="path252055"
         d="m 510.23613,591.73229 v 21.25984 h -17.7165 l -10.63,-10.62991 10.63,-10.62992 z"
         style="fill:#afdde9;fill-opacity:1;fill-rule:evenodd;stroke:#000000;stroke-width:1px;stroke-linecap:butt;stroke-linejoin:miter;stroke-opacity:1" />
      <g
         aria-label="rdata_o"
         id="text252059"
         style="line-height:0%;font-family:Iwona;-inkscape-font-specification:Iwona">
        <path
           d="m 527.44603,601.24464 v -1.24 c -0.22,-0.08 -0.46,-0.14 -0.68,-0.14 -1.12,0 -2.02,0.78 -2.74,1.64 v -1.5 h -1.56 v 9 h 1.56 v -6.66 c 0.6,-0.7 1.36,-1.3 2.28,-1.3 0.38,0 0.78,0.08 1.14,0.2 z"
           style="font-size:20px;line-height:1.25"
           id="path247" />
        <path
           d="m 536.68601,609.00464 v -14 h -1.56 v 5.34 c -0.78,-0.34 -1.62,-0.54 -2.46,-0.54 -2.5,0 -3.72,2 -3.72,4.7 0,2.66 1,4.7 3.42,4.7 1.02,0 1.96,-0.46 2.76,-1.1 v 0.9 z m -1.56,-1.74 c -0.6,0.6 -1.34,1.1 -2.2,1.1 -1.82,0 -2.22,-1.76 -2.22,-3.86 0,-1.88 0.58,-3.86 2.22,-3.86 0.76,0 1.52,0.2 2.2,0.54 z"
           style="font-size:20px;line-height:1.25"
           id="path249" />
        <path
           d="m 546.926,609.00464 v -5.6 c 0,-1.88 -1.16,-3.6 -2.9,-3.6 -1.28,0 -2.48,0.44 -3.56,1.12 v 0.62 c 0.9,-0.5 1.9,-0.82 2.94,-0.82 1.24,0 1.96,1.32 1.96,2.68 v 0.36 c -0.78,-0.34 -1.62,-0.54 -2.46,-0.54 -2.14,0 -3.72,0.98 -3.72,3 0,1.92 1.4,2.98 3.42,2.98 1.02,0 1.96,-0.46 2.76,-1.1 v 0.9 z m -1.56,-1.74 c -0.6,0.6 -1.34,1.1 -2.2,1.1 -1.34,0 -2.22,-0.82 -2.22,-2.14 0,-1.22 1,-2.16 2.22,-2.16 0.76,0 1.52,0.2 2.2,0.54 z"
           style="font-size:20px;line-height:1.25"
           id="path251" />
        <path
           d="m 554.36598,608.30464 v -0.6 c -0.32,0.32 -0.7,0.58 -1.16,0.58 -0.72,0 -0.76,-0.94 -0.76,-1.78 v -5.66 h 1.92 v -0.84 h -1.92 v -3 h -0.94 c 0,1.6 -0.92,3.1 -2.38,3.1 v 0.74 h 1.76 v 5.66 c 0,1.32 0.42,2.7 1.56,2.7 0.74,0 1.38,-0.4 1.92,-0.9 z"
           style="font-size:20px;line-height:1.25"
           id="path253" />
        <path
           d="m 563.60595,609.00464 v -5.6 c 0,-1.88 -1.16,-3.6 -2.9,-3.6 -1.28,0 -2.48,0.44 -3.56,1.12 v 0.62 c 0.9,-0.5 1.9,-0.82 2.94,-0.82 1.24,0 1.96,1.32 1.96,2.68 v 0.36 c -0.78,-0.34 -1.62,-0.54 -2.46,-0.54 -2.14,0 -3.72,0.98 -3.72,3 0,1.92 1.4,2.98 3.42,2.98 1.02,0 1.96,-0.46 2.76,-1.1 v 0.9 z m -1.56,-1.74 c -0.6,0.6 -1.34,1.1 -2.2,1.1 -1.34,0 -2.22,-0.82 -2.22,-2.14 0,-1.22 1,-2.16 2.22,-2.16 0.76,0 1.52,0.2 2.2,0.54 z"
           style="font-size:20px;line-height:1.25"
           id="path255" />
        <path
           d="m 575.20593,611.30464 v -1 h -10 v 1 z"
           style="font-size:20px;line-height:1.25"
           id="path257" />
        <path
           d="m 584.04589,604.50464 c 0,-3.06 -1.36,-4.7 -3.86,-4.7 -2.52,0 -3.88,1.64 -3.88,4.7 0,3.06 1.36,4.7 3.88,4.7 2.5,0 3.86,-1.64 3.86,-4.7 z m -1.76,0 c 0,2.5 -0.74,3.86 -2.1,3.86 -1.38,0 -2.12,-1.36 -2.12,-3.86 0,-2.5 0.74,-3.86 2.12,-3.86 1.36,0 2.1,1.36 2.1,3.86 z"
           style="font-size:20px;line-height:1.25"
           id="path259" />
      </g>
    </g>
    <g
       id="g292724"
       transform="translate(474.80323,-361.41727)">
      <path
         id="rect3112-3"
         style="fill:#afdde9;stroke:#000000;stroke-width:0.885827"
         d="M -382.67725,772.44092 H -99.212677 V 1006.2992 H -382.67725 Z" />
      <g
         aria-label="Virgule"
         id="text3157-5"
         style="line-height:0%;font-family:Iwona;-inkscape-font-specification:Iwona;text-align:center;text-anchor:middle">
        <path
           d="m -334.09768,864.91339 h -1.96 l -9.28,23.76 -9.24,-23.76 h -3.52 l 10.92,28 h 2.16 z"
           style="font-size:40px;line-height:1.25"
           id="path263" />
        <path
           d="m -323.89778,891.51339 v -1.2 c -0.76,0.64 -1.64,1.16 -2.64,1.16 -1.48,0 -1.76,-1.84 -1.76,-3.56 v -13 h -3.12 v 13 c 0,2.68 1.04,5.4 3.4,5.4 1.52,0 2.96,-0.76 4.12,-1.8 z m -4,-22.84 c 0,-1.08 -0.88,-1.96 -1.96,-1.96 -1.08,0 -1.96,0.88 -1.96,1.96 0,1.08 0.88,1.96 1.96,1.96 1.08,0 1.96,-0.88 1.96,-1.96 z"
           style="font-size:40px;line-height:1.25"
           id="path265" />
        <path
           d="m -309.93782,877.39339 v -2.48 c -0.44,-0.16 -0.92,-0.28 -1.36,-0.28 -2.24,0 -4.04,1.56 -5.48,3.28 v -3 h -3.12 v 18 h 3.12 v -13.32 c 1.2,-1.4 2.72,-2.6 4.56,-2.6 0.76,0 1.56,0.16 2.28,0.4 z"
           style="font-size:40px;line-height:1.25"
           id="path267" />
        <path
           d="m -291.45786,895.31339 v -20.4 h -3.12 v 0.68 c -1.56,-0.68 -3.24,-1.08 -4.92,-1.08 -5,0 -7.44,4 -7.44,9.4 0,5.32 2,9.4 6.84,9.4 2.04,0 3.92,-0.92 5.52,-2.2 v 4.2 c 0,2.76 -1.52,5.36 -4,5.36 -2.04,0 -4.08,-0.4 -6,-1.08 v 1.24 c 2.24,1.04 4.72,1.68 7.2,1.68 3.52,0 5.92,-3.44 5.92,-7.2 z m -3.12,-5.88 c -1.2,1.2 -2.68,2.2 -4.4,2.2 -3.64,0 -4.44,-3.52 -4.44,-7.72 0,-3.76 1.16,-7.72 4.44,-7.72 1.52,0 3.04,0.4 4.4,1.08 z"
           style="font-size:40px;line-height:1.25"
           id="path269" />
        <path
           d="m -270.77788,892.91339 v -18 h -3.12 v 14.12 c -1.36,1.36 -3.04,2.44 -4.92,2.44 -1.88,0 -3.32,-1.64 -3.32,-3.56 v -13 h -3.12 v 13 c 0,2.92 2.24,5.4 5.12,5.4 2.4,0 4.52,-1.36 6.24,-3.04 v 2.64 z"
           style="font-size:40px;line-height:1.25"
           id="path271" />
        <path
           d="m -256.85795,891.51339 v -1.2 c -0.76,0.64 -1.64,1.16 -2.64,1.16 -1.48,0 -1.76,-1.84 -1.76,-3.56 v -23 h -3.12 v 23 c 0,2.68 1.04,5.4 3.4,5.4 1.52,0 2.96,-0.76 4.12,-1.8 z"
           style="font-size:40px;line-height:1.25"
           id="path273" />
        <path
           d="m -238.37802,884.31339 v -0.4 c 0,-5.64 -3.08,-9.4 -7.72,-9.4 -4.68,0 -7.76,3.76 -7.76,9.4 0,5.64 3.08,9.4 7.76,9.4 2,0 3.96,-0.64 5.6,-1.8 v -1.68 c -1.88,1.2 -3.4,1.64 -5.6,1.64 -3.4,0 -4.24,-3.24 -4.24,-7.16 z m -3.52,-1.68 h -8.44 c 0,-3.2 1.36,-6.44 4.24,-6.44 2.84,0 4.2,3.24 4.2,6.44 z"
           style="font-size:40px;line-height:1.25"
           id="path275" />
      </g>
      <path
         style="fill:#afdde9;fill-opacity:1;fill-rule:evenodd;stroke:#000000;stroke-width:1px;stroke-linecap:butt;stroke-linejoin:miter;stroke-opacity:1"
         d="m -113.38593,783.07086 v 21.25985 h 17.716501 l 10.63,-10.62992 -10.63,-10.62993 z"
         id="path11157-2" />
      <g
         aria-label="valid_o"
         id="text11159-9"
         style="line-height:0%;font-family:Iwona;-inkscape-font-specification:Iwona;text-align:end;text-anchor:end">
        <path
           d="m -175.55567,791.34326 h -0.9 l -2.72,7.48 -2.64,-7.48 h -1.48 l 3.16,9 h 1.3 z"
           style="font-size:20px;line-height:1.25"
           id="path278" />
        <path
           d="m -166.71567,800.34326 v -5.6 c 0,-1.88 -1.16,-3.6 -2.9,-3.6 -1.28,0 -2.48,0.44 -3.56,1.12 v 0.62 c 0.9,-0.5 1.9,-0.82 2.94,-0.82 1.24,0 1.96,1.32 1.96,2.68 v 0.36 c -0.78,-0.34 -1.62,-0.54 -2.46,-0.54 -2.14,0 -3.72,0.98 -3.72,3 0,1.92 1.4,2.98 3.42,2.98 1.02,0 1.96,-0.46 2.76,-1.1 v 0.9 z m -1.56,-1.74 c -0.6,0.6 -1.34,1.1 -2.2,1.1 -1.34,0 -2.22,-0.82 -2.22,-2.14 0,-1.22 1,-2.16 2.22,-2.16 0.76,0 1.52,0.2 2.2,0.54 z"
           style="font-size:20px;line-height:1.25"
           id="path280" />
        <path
           d="m -159.75569,799.64326 v -0.6 c -0.38,0.32 -0.82,0.58 -1.32,0.58 -0.74,0 -0.88,-0.92 -0.88,-1.78 v -11.5 h -1.56 v 11.5 c 0,1.34 0.52,2.7 1.7,2.7 0.76,0 1.48,-0.38 2.06,-0.9 z"
           style="font-size:20px;line-height:1.25"
           id="path282" />
        <path
           d="m -154.09573,799.64326 v -0.6 c -0.38,0.32 -0.82,0.58 -1.32,0.58 -0.74,0 -0.88,-0.92 -0.88,-1.78 v -6.5 h -1.56 v 6.5 c 0,1.34 0.52,2.7 1.7,2.7 0.76,0 1.48,-0.38 2.06,-0.9 z m -2,-11.42 c 0,-0.54 -0.44,-0.98 -0.98,-0.98 -0.54,0 -0.98,0.44 -0.98,0.98 0,0.54 0.44,0.98 0.98,0.98 0.54,0 0.98,-0.44 0.98,-0.98 z"
           style="font-size:20px;line-height:1.25"
           id="path284" />
        <path
           d="m -144.85575,800.34326 v -14 h -1.56 v 5.34 c -0.78,-0.34 -1.62,-0.54 -2.46,-0.54 -2.5,0 -3.72,2 -3.72,4.7 0,2.66 1,4.7 3.42,4.7 1.02,0 1.96,-0.46 2.76,-1.1 v 0.9 z m -1.56,-1.74 c -0.6,0.6 -1.34,1.1 -2.2,1.1 -1.82,0 -2.22,-1.76 -2.22,-3.86 0,-1.88 0.58,-3.86 2.22,-3.86 0.76,0 1.52,0.2 2.2,0.54 z"
           style="font-size:20px;line-height:1.25"
           id="path286" />
        <path
           d="m -133.25576,802.64326 v -1 h -10 v 1 z"
           style="font-size:20px;line-height:1.25"
           id="path288" />
        <path
           d="m -124.4158,795.84326 c 0,-3.06 -1.36,-4.7 -3.86,-4.7 -2.52,0 -3.88,1.64 -3.88,4.7 0,3.06 1.36,4.7 3.88,4.7 2.5,0 3.86,-1.64 3.86,-4.7 z m -1.76,0 c 0,2.5 -0.74,3.86 -2.1,3.86 -1.38,0 -2.12,-1.36 -2.12,-3.86 0,-2.5 0.74,-3.86 2.12,-3.86 1.36,0 2.1,1.36 2.1,3.86 z"
           style="font-size:20px;line-height:1.25"
           id="path290" />
      </g>
      <path
         id="path3150-2"
         d="m -347.24416,1013.3858 h 21.25985 v -17.71651 l -10.62992,-10.62993 -10.62993,10.62993 z"
         style="fill:#afdde9;fill-opacity:1;fill-rule:evenodd;stroke:#000000;stroke-width:1px;stroke-linecap:butt;stroke-linejoin:miter;stroke-opacity:1" />
      <g
         aria-label="clk_i"
         id="text3152-7"
         style="line-height:0%;font-family:Iwona;-inkscape-font-specification:Iwona;text-align:center;text-anchor:middle">
        <path
           d="m -348.30422,974.57609 v -0.84 c -0.64,-0.9 -1.68,-1.44 -2.8,-1.44 -2.5,0 -4.18,1.88 -4.18,4.7 0,2.82 1.68,4.7 4.18,4.7 1.04,0 2.02,-0.52 2.6,-1.38 v -0.84 c -0.68,1.02 -1.38,1.38 -2.6,1.38 -1.44,0 -2.42,-1.54 -2.42,-3.86 0,-2.32 0.98,-3.86 2.42,-3.86 1.24,0 2.08,0.44 2.8,1.44 z"
           style="font-size:20px;line-height:1.25"
           id="path293" />
        <path
           d="m -342.44424,980.79609 v -0.6 c -0.38,0.32 -0.82,0.58 -1.32,0.58 -0.74,0 -0.88,-0.92 -0.88,-1.78 v -11.5 h -1.56 v 11.5 c 0,1.34 0.52,2.7 1.7,2.7 0.76,0 1.48,-0.38 2.06,-0.9 z"
           style="font-size:20px;line-height:1.25"
           id="path295" />
        <path
           d="m -332.70428,981.49609 -4.64,-5.34 4.48,-3.66 h -1.24 l -4.78,3.92 v -8.92 h -1.56 v 14 h 1.56 v -4.98 l 4.32,4.98 z"
           style="font-size:20px;line-height:1.25"
           id="path297" />
        <path
           d="m -322.5043,983.79609 v -1 h -10 v 1 z"
           style="font-size:20px;line-height:1.25"
           id="path299" />
        <path
           d="m -317.24433,980.79609 v -0.6 c -0.38,0.32 -0.82,0.58 -1.32,0.58 -0.74,0 -0.88,-0.92 -0.88,-1.78 v -6.5 h -1.56 v 6.5 c 0,1.34 0.52,2.7 1.7,2.7 0.76,0 1.48,-0.38 2.06,-0.9 z m -2,-11.42 c 0,-0.54 -0.44,-0.98 -0.98,-0.98 -0.54,0 -0.98,0.44 -0.98,0.98 0,0.54 0.44,0.98 0.98,0.98 0.54,0 0.98,-0.44 0.98,-0.98 z"
           style="font-size:20px;line-height:1.25"
           id="path301" />
      </g>
      <path
         id="path3174-9"
         d="m -92.126089,814.96063 v 21.25984 h -17.716501 l -10.63,-10.62991 10.63,-10.62993 z"
         style="fill:#afdde9;fill-opacity:1;fill-rule:evenodd;stroke:#000000;stroke-width:1px;stroke-linecap:butt;stroke-linejoin:miter;stroke-opacity:1" />
      <g
         aria-label="ready_i"
         id="text3176-3"
         style="line-height:0%;font-family:Iwona;-inkscape-font-specification:Iwona;text-align:end;text-anchor:end">
        <path
           d="m -180.93566,824.47297 v -1.24 c -0.22,-0.08 -0.46,-0.14 -0.68,-0.14 -1.12,0 -2.02,0.78 -2.74,1.64 v -1.5 h -1.56 v 9 h 1.56 v -6.66 c 0.6,-0.7 1.36,-1.3 2.28,-1.3 0.38,0 0.78,0.08 1.14,0.2 z"
           style="font-size:20px;line-height:1.25"
           id="path304" />
        <path
           d="m -171.69568,827.93297 v -0.2 c 0,-2.82 -1.54,-4.7 -3.86,-4.7 -2.34,0 -3.88,1.88 -3.88,4.7 0,2.82 1.54,4.7 3.88,4.7 1,0 1.98,-0.32 2.8,-0.9 v -0.84 c -0.94,0.6 -1.7,0.82 -2.8,0.82 -1.7,0 -2.12,-1.62 -2.12,-3.58 z m -1.76,-0.84 h -4.22 c 0,-1.6 0.68,-3.22 2.12,-3.22 1.42,0 2.1,1.62 2.1,3.22 z"
           style="font-size:20px;line-height:1.25"
           id="path306" />
        <path
           d="m -162.0557,832.23297 v -5.6 c 0,-1.88 -1.16,-3.6 -2.9,-3.6 -1.28,0 -2.48,0.44 -3.56,1.12 v 0.62 c 0.9,-0.5 1.9,-0.82 2.94,-0.82 1.24,0 1.96,1.32 1.96,2.68 v 0.36 c -0.78,-0.34 -1.62,-0.54 -2.46,-0.54 -2.14,0 -3.72,0.98 -3.72,3 0,1.92 1.4,2.98 3.42,2.98 1.02,0 1.96,-0.46 2.76,-1.1 v 0.9 z m -1.56,-1.74 c -0.6,0.6 -1.34,1.1 -2.2,1.1 -1.34,0 -2.22,-0.82 -2.22,-2.14 0,-1.22 1,-2.16 2.22,-2.16 0.76,0 1.52,0.2 2.2,0.54 z"
           style="font-size:20px;line-height:1.25"
           id="path308" />
        <path
           d="m -151.61572,832.23297 v -14 h -1.56 v 5.34 c -0.78,-0.34 -1.62,-0.54 -2.46,-0.54 -2.5,0 -3.72,2 -3.72,4.7 0,2.66 1,4.7 3.42,4.7 1.02,0 1.96,-0.46 2.76,-1.1 v 0.9 z m -1.56,-1.74 c -0.6,0.6 -1.34,1.1 -2.2,1.1 -1.82,0 -2.22,-1.76 -2.22,-3.86 0,-1.88 0.58,-3.86 2.22,-3.86 0.76,0 1.52,0.2 2.2,0.54 z"
           style="font-size:20px;line-height:1.25"
           id="path310" />
        <path
           d="m -141.27573,833.43297 v -10.2 h -1.56 v 7.06 c -0.68,0.68 -1.52,1.22 -2.46,1.22 -0.94,0 -1.66,-0.82 -1.66,-1.78 v -6.5 h -1.56 v 6.5 c 0,1.46 1.12,2.7 2.56,2.7 1.2,0 2.26,-0.68 3.12,-1.52 v 2.52 c 0,1.34 -0.6,2.68 -1.8,2.68 -0.94,0 -1.84,-0.2 -2.7,-0.54 v 0.62 c 1.02,0.52 2.16,0.84 3.32,0.84 1.7,0 2.74,-1.76 2.74,-3.6 z"
           style="font-size:20px;line-height:1.25"
           id="path312" />
        <path
           d="m -129.67577,834.53297 v -1 h -10 v 1 z"
           style="font-size:20px;line-height:1.25"
           id="path314" />
        <path
           d="m -124.4158,831.53297 v -0.6 c -0.38,0.32 -0.82,0.58 -1.32,0.58 -0.74,0 -0.88,-0.92 -0.88,-1.78 v -6.5 h -1.56 v 6.5 c 0,1.34 0.52,2.7 1.7,2.7 0.76,0 1.48,-0.38 2.06,-0.9 z m -2,-11.42 c 0,-0.54 -0.44,-0.98 -0.98,-0.98 -0.54,0 -0.98,0.44 -0.98,0.98 0,0.54 0.44,0.98 0.98,0.98 0.54,0 0.98,-0.44 0.98,-0.98 z"
           style="font-size:20px;line-height:1.25"
           id="path316" />
      </g>
      <path
         style="fill:#afdde9;fill-opacity:1;fill-rule:evenodd;stroke:#000000;stroke-width:1px;stroke-linecap:butt;stroke-linejoin:miter;stroke-opacity:1"
         d="m -113.38597,846.8504 v 21.25984 h 17.716501 l 10.63,-10.62991 -10.63,-10.62993 z"
         id="path5931-0" />
      <g
         aria-label="address_o"
         id="text5933-6"
         style="line-height:0%;font-family:Iwona;-inkscape-font-specification:Iwona;text-align:end;text-anchor:end">
        <path
           d="m -199.47561,864.56696 v -5.6 c 0,-1.88 -1.16,-3.6 -2.9,-3.6 -1.28,0 -2.48,0.44 -3.56,1.12 v 0.62 c 0.9,-0.5 1.9,-0.82 2.94,-0.82 1.24,0 1.96,1.32 1.96,2.68 v 0.36 c -0.78,-0.34 -1.62,-0.54 -2.46,-0.54 -2.14,0 -3.72,0.98 -3.72,3 0,1.92 1.4,2.98 3.42,2.98 1.02,0 1.96,-0.46 2.76,-1.1 v 0.9 z m -1.56,-1.74 c -0.6,0.6 -1.34,1.1 -2.2,1.1 -1.34,0 -2.22,-0.82 -2.22,-2.14 0,-1.22 1,-2.16 2.22,-2.16 0.76,0 1.52,0.2 2.2,0.54 z"
           style="font-size:20px;line-height:1.25"
           id="path319" />
        <path
           d="m -189.03563,864.56696 v -14 h -1.56 v 5.34 c -0.78,-0.34 -1.62,-0.54 -2.46,-0.54 -2.5,0 -3.72,2 -3.72,4.7 0,2.66 1,4.7 3.42,4.7 1.02,0 1.96,-0.46 2.76,-1.1 v 0.9 z m -1.56,-1.74 c -0.6,0.6 -1.34,1.1 -2.2,1.1 -1.82,0 -2.22,-1.76 -2.22,-3.86 0,-1.88 0.58,-3.86 2.22,-3.86 0.76,0 1.52,0.2 2.2,0.54 z"
           style="font-size:20px;line-height:1.25"
           id="path321" />
        <path
           d="m -178.59564,864.56696 v -14 h -1.56 v 5.34 c -0.78,-0.34 -1.62,-0.54 -2.46,-0.54 -2.5,0 -3.72,2 -3.72,4.7 0,2.66 1,4.7 3.42,4.7 1.02,0 1.96,-0.46 2.76,-1.1 v 0.9 z m -1.56,-1.74 c -0.6,0.6 -1.34,1.1 -2.2,1.1 -1.82,0 -2.22,-1.76 -2.22,-3.86 0,-1.88 0.58,-3.86 2.22,-3.86 0.76,0 1.52,0.2 2.2,0.54 z"
           style="font-size:20px;line-height:1.25"
           id="path323" />
        <path
           d="m -170.41565,856.80696 v -1.24 c -0.22,-0.08 -0.46,-0.14 -0.68,-0.14 -1.12,0 -2.02,0.78 -2.74,1.64 v -1.5 h -1.56 v 9 h 1.56 v -6.66 c 0.6,-0.7 1.36,-1.3 2.28,-1.3 0.38,0 0.78,0.08 1.14,0.2 z"
           style="font-size:20px;line-height:1.25"
           id="path325" />
        <path
           d="m -161.17567,860.26696 v -0.2 c 0,-2.82 -1.54,-4.7 -3.86,-4.7 -2.34,0 -3.88,1.88 -3.88,4.7 0,2.82 1.54,4.7 3.88,4.7 1,0 1.98,-0.32 2.8,-0.9 v -0.84 c -0.94,0.6 -1.7,0.82 -2.8,0.82 -1.7,0 -2.12,-1.62 -2.12,-3.58 z m -1.76,-0.84 h -4.22 c 0,-1.6 0.68,-3.22 2.12,-3.22 1.42,0 2.1,1.62 2.1,3.22 z"
           style="font-size:20px;line-height:1.25"
           id="path327" />
        <path
           d="m -152.4957,862.00696 c 0,-1.58 -1.68,-2.4 -3.32,-2.8 -0.96,-0.24 -2,-0.64 -2,-1.58 0,-0.86 0.88,-1.42 1.84,-1.42 1.06,0 2.12,0.32 3,0.9 v -0.84 c -0.88,-0.58 -1.94,-0.9 -3,-0.9 -1.74,0 -3.34,1.06 -3.34,2.68 0,1.46 1.62,2.14 3.16,2.52 1.06,0.26 2.16,0.82 2.16,1.84 0,0.94 -0.96,1.52 -1.98,1.52 -1.24,0 -2.44,-0.3 -3.5,-0.9 v 0.84 c 1.06,0.6 2.26,0.9 3.5,0.9 1.8,0 3.48,-1.08 3.48,-2.76 z"
           style="font-size:20px;line-height:1.25"
           id="path329" />
        <path
           d="m -144.15574,862.00696 c 0,-1.58 -1.68,-2.4 -3.32,-2.8 -0.96,-0.24 -2,-0.64 -2,-1.58 0,-0.86 0.88,-1.42 1.84,-1.42 1.06,0 2.12,0.32 3,0.9 v -0.84 c -0.88,-0.58 -1.94,-0.9 -3,-0.9 -1.74,0 -3.34,1.06 -3.34,2.68 0,1.46 1.62,2.14 3.16,2.52 1.06,0.26 2.16,0.82 2.16,1.84 0,0.94 -0.96,1.52 -1.98,1.52 -1.24,0 -2.44,-0.3 -3.5,-0.9 v 0.84 c 1.06,0.6 2.26,0.9 3.5,0.9 1.8,0 3.48,-1.08 3.48,-2.76 z"
           style="font-size:20px;line-height:1.25"
           id="path331" />
        <path
           d="m -133.25576,866.86696 v -1 h -10 v 1 z"
           style="font-size:20px;line-height:1.25"
           id="path333" />
        <path
           d="m -124.4158,860.06696 c 0,-3.06 -1.36,-4.7 -3.86,-4.7 -2.52,0 -3.88,1.64 -3.88,4.7 0,3.06 1.36,4.7 3.88,4.7 2.5,0 3.86,-1.64 3.86,-4.7 z m -1.76,0 c 0,2.5 -0.74,3.86 -2.1,3.86 -1.38,0 -2.12,-1.36 -2.12,-3.86 0,-2.5 0.74,-3.86 2.12,-3.86 1.36,0 2.1,1.36 2.1,3.86 z"
           style="font-size:20px;line-height:1.25"
           id="path335" />
      </g>
      <path
         style="fill:#afdde9;fill-opacity:1;fill-rule:evenodd;stroke:#000000;stroke-width:1px;stroke-linecap:butt;stroke-linejoin:miter;stroke-opacity:1"
         d="m -276.37803,1013.3858 h 21.25985 v -17.71651 l -10.62992,-10.62993 -10.62993,10.62993 z"
         id="path6153-6" />
      <g
         aria-label="reset_i"
         id="text6155-1"
         style="line-height:0%;font-family:Iwona;-inkscape-font-specification:Iwona;text-align:center;text-anchor:middle">
        <path
           d="m -287.83805,973.73609 v -1.24 c -0.22,-0.08 -0.46,-0.14 -0.68,-0.14 -1.12,0 -2.02,0.78 -2.74,1.64 v -1.5 h -1.56 v 9 h 1.56 v -6.66 c 0.6,-0.7 1.36,-1.3 2.28,-1.3 0.38,0 0.78,0.08 1.14,0.2 z"
           style="font-size:20px;line-height:1.25"
           id="path338" />
        <path
           d="m -278.59807,977.19609 v -0.2 c 0,-2.82 -1.54,-4.7 -3.86,-4.7 -2.34,0 -3.88,1.88 -3.88,4.7 0,2.82 1.54,4.7 3.88,4.7 1,0 1.98,-0.32 2.8,-0.9 v -0.84 c -0.94,0.6 -1.7,0.82 -2.8,0.82 -1.7,0 -2.12,-1.62 -2.12,-3.58 z m -1.76,-0.84 h -4.22 c 0,-1.6 0.68,-3.22 2.12,-3.22 1.42,0 2.1,1.62 2.1,3.22 z"
           style="font-size:20px;line-height:1.25"
           id="path340" />
        <path
           d="m -269.91809,978.93609 c 0,-1.58 -1.68,-2.4 -3.32,-2.8 -0.96,-0.24 -2,-0.64 -2,-1.58 0,-0.86 0.88,-1.42 1.84,-1.42 1.06,0 2.12,0.32 3,0.9 v -0.84 c -0.88,-0.58 -1.94,-0.9 -3,-0.9 -1.74,0 -3.34,1.06 -3.34,2.68 0,1.46 1.62,2.14 3.16,2.52 1.06,0.26 2.16,0.82 2.16,1.84 0,0.94 -0.96,1.52 -1.98,1.52 -1.24,0 -2.44,-0.3 -3.5,-0.9 v 0.84 c 1.06,0.6 2.26,0.9 3.5,0.9 1.8,0 3.48,-1.08 3.48,-2.76 z"
           style="font-size:20px;line-height:1.25"
           id="path342" />
        <path
           d="m -260.17812,977.19609 v -0.2 c 0,-2.82 -1.54,-4.7 -3.86,-4.7 -2.34,0 -3.88,1.88 -3.88,4.7 0,2.82 1.54,4.7 3.88,4.7 1,0 1.98,-0.32 2.8,-0.9 v -0.84 c -0.94,0.6 -1.7,0.82 -2.8,0.82 -1.7,0 -2.12,-1.62 -2.12,-3.58 z m -1.76,-0.84 h -4.22 c 0,-1.6 0.68,-3.22 2.12,-3.22 1.42,0 2.1,1.62 2.1,3.22 z"
           style="font-size:20px;line-height:1.25"
           id="path344" />
        <path
           d="m -253.33814,980.79609 v -0.6 c -0.32,0.32 -0.7,0.58 -1.16,0.58 -0.72,0 -0.76,-0.94 -0.76,-1.78 v -5.66 h 1.92 v -0.84 h -1.92 v -3 h -0.94 c 0,1.6 -0.92,3.1 -2.38,3.1 v 0.74 h 1.76 v 5.66 c 0,1.32 0.42,2.7 1.56,2.7 0.74,0 1.38,-0.4 1.92,-0.9 z"
           style="font-size:20px;line-height:1.25"
           id="path346" />
        <path
           d="m -242.73817,983.79609 v -1 h -10 v 1 z"
           style="font-size:20px;line-height:1.25"
           id="path348" />
        <path
           d="m -237.47821,980.79609 v -0.6 c -0.38,0.32 -0.82,0.58 -1.32,0.58 -0.74,0 -0.88,-0.92 -0.88,-1.78 v -6.5 h -1.56 v 6.5 c 0,1.34 0.52,2.7 1.7,2.7 0.76,0 1.48,-0.38 2.06,-0.9 z m -2,-11.42 c 0,-0.54 -0.44,-0.98 -0.98,-0.98 -0.54,0 -0.98,0.44 -0.98,0.98 0,0.54 0.44,0.98 0.98,0.98 0.54,0 0.98,-0.44 0.98,-0.98 z"
           style="font-size:20px;line-height:1.25"
           id="path350" />
      </g>
      <path
         style="fill:#afdde9;fill-opacity:1;fill-rule:evenodd;stroke:#000000;stroke-width:1px;stroke-linecap:butt;stroke-linejoin:miter;stroke-opacity:1"
         d="M -113.38597,878.74015 V 900 h 17.716501 l 10.63,-10.62991 -10.63,-10.62992 z"
         id="path252043-7" />
      <g
         aria-label="write_o"
         id="text252047-9"
         style="line-height:0%;font-family:Iwona;-inkscape-font-specification:Iwona;text-align:end;text-anchor:end">
        <path
           d="m -172.57566,887.45667 h -0.88 l -2.36,7.3 -2.26,-7.3 h -1.08 l -2.36,7.3 -2.28,-7.3 h -1.46 l 2.8,9 h 1.26 l 2.26,-7 2.18,7 h 1.26 z"
           style="font-size:20px;line-height:1.25"
           id="path353" />
        <path
           d="m -165.59567,888.69667 v -1.24 c -0.22,-0.08 -0.46,-0.14 -0.68,-0.14 -1.12,0 -2.02,0.78 -2.74,1.64 v -1.5 h -1.56 v 9 h 1.56 v -6.66 c 0.6,-0.7 1.36,-1.3 2.28,-1.3 0.38,0 0.78,0.08 1.14,0.2 z"
           style="font-size:20px;line-height:1.25"
           id="path355" />
        <path
           d="m -159.93569,895.75667 v -0.6 c -0.38,0.32 -0.82,0.58 -1.32,0.58 -0.74,0 -0.88,-0.92 -0.88,-1.78 v -6.5 h -1.56 v 6.5 c 0,1.34 0.52,2.7 1.7,2.7 0.76,0 1.48,-0.38 2.06,-0.9 z m -2,-11.42 c 0,-0.54 -0.44,-0.98 -0.98,-0.98 -0.54,0 -0.98,0.44 -0.98,0.98 0,0.54 0.44,0.98 0.98,0.98 0.54,0 0.98,-0.44 0.98,-0.98 z"
           style="font-size:20px;line-height:1.25"
           id="path357" />
        <path
           d="m -153.69571,895.75667 v -0.6 c -0.32,0.32 -0.7,0.58 -1.16,0.58 -0.72,0 -0.76,-0.94 -0.76,-1.78 v -5.66 h 1.92 v -0.84 h -1.92 v -3 h -0.94 c 0,1.6 -0.92,3.1 -2.38,3.1 v 0.74 h 1.76 v 5.66 c 0,1.32 0.42,2.7 1.56,2.7 0.74,0 1.38,-0.4 1.92,-0.9 z"
           style="font-size:20px;line-height:1.25"
           id="path359" />
        <path
           d="m -144.25573,892.15667 v -0.2 c 0,-2.82 -1.54,-4.7 -3.86,-4.7 -2.34,0 -3.88,1.88 -3.88,4.7 0,2.82 1.54,4.7 3.88,4.7 1,0 1.98,-0.32 2.8,-0.9 v -0.84 c -0.94,0.6 -1.7,0.82 -2.8,0.82 -1.7,0 -2.12,-1.62 -2.12,-3.58 z m -1.76,-0.84 h -4.22 c 0,-1.6 0.68,-3.22 2.12,-3.22 1.42,0 2.1,1.62 2.1,3.22 z"
           style="font-size:20px;line-height:1.25"
           id="path361" />
        <path
           d="m -133.25576,898.75667 v -1 h -10 v 1 z"
           style="font-size:20px;line-height:1.25"
           id="path363" />
        <path
           d="m -124.4158,891.95667 c 0,-3.06 -1.36,-4.7 -3.86,-4.7 -2.52,0 -3.88,1.64 -3.88,4.7 0,3.06 1.36,4.7 3.88,4.7 2.5,0 3.86,-1.64 3.86,-4.7 z m -1.76,0 c 0,2.5 -0.74,3.86 -2.1,3.86 -1.38,0 -2.12,-1.36 -2.12,-3.86 0,-2.5 0.74,-3.86 2.12,-3.86 1.36,0 2.1,1.36 2.1,3.86 z"
           style="font-size:20px;line-height:1.25"
           id="path365" />
      </g>
      <path
         style="fill:#afdde9;fill-opacity:1;fill-rule:evenodd;stroke:#000000;stroke-width:1px;stroke-linecap:butt;stroke-linejoin:miter;stroke-opacity:1"
         d="m -113.38597,910.62991 v 21.25985 h 17.716501 l 10.63,-10.62991 -10.63,-10.62993 z"
         id="path252049-0" />
      <g
         aria-label="wdata_o"
         id="text252053-2"
         style="line-height:0%;font-family:Iwona;-inkscape-font-specification:Iwona;text-align:end;text-anchor:end">
        <path
           d="m -181.01568,919.34637 h -0.88 l -2.36,7.3 -2.26,-7.3 h -1.08 l -2.36,7.3 -2.28,-7.3 h -1.46 l 2.8,9 h 1.26 l 2.26,-7 2.18,7 h 1.26 z"
           style="font-size:20px;line-height:1.25"
           id="path368" />
        <path
           d="m -171.77568,928.34637 v -14 h -1.56 v 5.34 c -0.78,-0.34 -1.62,-0.54 -2.46,-0.54 -2.5,0 -3.72,2 -3.72,4.7 0,2.66 1,4.7 3.42,4.7 1.02,0 1.96,-0.46 2.76,-1.1 v 0.9 z m -1.56,-1.74 c -0.6,0.6 -1.34,1.1 -2.2,1.1 -1.82,0 -2.22,-1.76 -2.22,-3.86 0,-1.88 0.58,-3.86 2.22,-3.86 0.76,0 1.52,0.2 2.2,0.54 z"
           style="font-size:20px;line-height:1.25"
           id="path370" />
        <path
           d="m -161.5357,928.34637 v -5.6 c 0,-1.88 -1.16,-3.6 -2.9,-3.6 -1.28,0 -2.48,0.44 -3.56,1.12 v 0.62 c 0.9,-0.5 1.9,-0.82 2.94,-0.82 1.24,0 1.96,1.32 1.96,2.68 v 0.36 c -0.78,-0.34 -1.62,-0.54 -2.46,-0.54 -2.14,0 -3.72,0.98 -3.72,3 0,1.92 1.4,2.98 3.42,2.98 1.02,0 1.96,-0.46 2.76,-1.1 v 0.9 z m -1.56,-1.74 c -0.6,0.6 -1.34,1.1 -2.2,1.1 -1.34,0 -2.22,-0.82 -2.22,-2.14 0,-1.22 1,-2.16 2.22,-2.16 0.76,0 1.52,0.2 2.2,0.54 z"
           style="font-size:20px;line-height:1.25"
           id="path372" />
        <path
           d="m -154.09571,927.64637 v -0.6 c -0.32,0.32 -0.7,0.58 -1.16,0.58 -0.72,0 -0.76,-0.94 -0.76,-1.78 v -5.66 h 1.92 v -0.84 h -1.92 v -3 h -0.94 c 0,1.6 -0.92,3.1 -2.38,3.1 v 0.74 h 1.76 v 5.66 c 0,1.32 0.42,2.7 1.56,2.7 0.74,0 1.38,-0.4 1.92,-0.9 z"
           style="font-size:20px;line-height:1.25"
           id="path374" />
        <path
           d="m -144.85574,928.34637 v -5.6 c 0,-1.88 -1.16,-3.6 -2.9,-3.6 -1.28,0 -2.48,0.44 -3.56,1.12 v 0.62 c 0.9,-0.5 1.9,-0.82 2.94,-0.82 1.24,0 1.96,1.32 1.96,2.68 v 0.36 c -0.78,-0.34 -1.62,-0.54 -2.46,-0.54 -2.14,0 -3.72,0.98 -3.72,3 0,1.92 1.4,2.98 3.42,2.98 1.02,0 1.96,-0.46 2.76,-1.1 v 0.9 z m -1.56,-1.74 c -0.6,0.6 -1.34,1.1 -2.2,1.1 -1.34,0 -2.22,-0.82 -2.22,-2.14 0,-1.22 1,-2.16 2.22,-2.16 0.76,0 1.52,0.2 2.2,0.54 z"
           style="font-size:20px;line-height:1.25"
           id="path376" />
        <path
           d="m -133.25576,930.64637 v -1 h -10 v 1 z"
           style="font-size:20px;line-height:1.25"
           id="path378" />
        <path
           d="m -124.4158,923.84637 c 0,-3.06 -1.36,-4.7 -3.86,-4.7 -2.52,0 -3.88,1.64 -3.88,4.7 0,3.06 1.36,4.7 3.88,4.7 2.5,0 3.86,-1.64 3.86,-4.7 z m -1.76,0 c 0,2.5 -0.74,3.86 -2.1,3.86 -1.38,0 -2.12,-1.36 -2.12,-3.86 0,-2.5 0.74,-3.86 2.12,-3.86 1.36,0 2.1,1.36 2.1,3.86 z"
           style="font-size:20px;line-height:1.25"
           id="path380" />
      </g>
      <path
         id="path252055-7"
         d="m -92.126089,942.51968 v 21.25985 h -17.716501 l -10.63,-10.62991 10.63,-10.62992 z"
         style="fill:#afdde9;fill-opacity:1;fill-rule:evenodd;stroke:#000000;stroke-width:1px;stroke-linecap:butt;stroke-linejoin:miter;stroke-opacity:1" />
      <g
         aria-label="rdata_i"
         id="text252059-5"
         style="line-height:0%;font-family:Iwona;-inkscape-font-specification:Iwona;text-align:end;text-anchor:end">
        <path
           d="m -177.43567,952.03205 v -1.24 c -0.22,-0.08 -0.46,-0.14 -0.68,-0.14 -1.12,0 -2.02,0.78 -2.74,1.64 v -1.5 h -1.56 v 9 h 1.56 v -6.66 c 0.6,-0.7 1.36,-1.3 2.28,-1.3 0.38,0 0.78,0.08 1.14,0.2 z"
           style="font-size:20px;line-height:1.25"
           id="path383" />
        <path
           d="m -168.19569,959.79205 v -14 h -1.56 v 5.34 c -0.78,-0.34 -1.62,-0.54 -2.46,-0.54 -2.5,0 -3.72,2 -3.72,4.7 0,2.66 1,4.7 3.42,4.7 1.02,0 1.96,-0.46 2.76,-1.1 v 0.9 z m -1.56,-1.74 c -0.6,0.6 -1.34,1.1 -2.2,1.1 -1.82,0 -2.22,-1.76 -2.22,-3.86 0,-1.88 0.58,-3.86 2.22,-3.86 0.76,0 1.52,0.2 2.2,0.54 z"
           style="font-size:20px;line-height:1.25"
           id="path385" />
        <path
           d="m -157.9557,959.79205 v -5.6 c 0,-1.88 -1.16,-3.6 -2.9,-3.6 -1.28,0 -2.48,0.44 -3.56,1.12 v 0.62 c 0.9,-0.5 1.9,-0.82 2.94,-0.82 1.24,0 1.96,1.32 1.96,2.68 v 0.36 c -0.78,-0.34 -1.62,-0.54 -2.46,-0.54 -2.14,0 -3.72,0.98 -3.72,3 0,1.92 1.4,2.98 3.42,2.98 1.02,0 1.96,-0.46 2.76,-1.1 v 0.9 z m -1.56,-1.74 c -0.6,0.6 -1.34,1.1 -2.2,1.1 -1.34,0 -2.22,-0.82 -2.22,-2.14 0,-1.22 1,-2.16 2.22,-2.16 0.76,0 1.52,0.2 2.2,0.54 z"
           style="font-size:20px;line-height:1.25"
           id="path387" />
        <path
           d="m -150.51572,959.09205 v -0.6 c -0.32,0.32 -0.7,0.58 -1.16,0.58 -0.72,0 -0.76,-0.94 -0.76,-1.78 v -5.66 h 1.92 v -0.84 h -1.92 v -3 h -0.94 c 0,1.6 -0.92,3.1 -2.38,3.1 v 0.74 h 1.76 v 5.66 c 0,1.32 0.42,2.7 1.56,2.7 0.74,0 1.38,-0.4 1.92,-0.9 z"
           style="font-size:20px;line-height:1.25"
           id="path389" />
        <path
           d="m -141.27575,959.79205 v -5.6 c 0,-1.88 -1.16,-3.6 -2.9,-3.6 -1.28,0 -2.48,0.44 -3.56,1.12 v 0.62 c 0.9,-0.5 1.9,-0.82 2.94,-0.82 1.24,0 1.96,1.32 1.96,2.68 v 0.36 c -0.78,-0.34 -1.62,-0.54 -2.46,-0.54 -2.14,0 -3.72,0.98 -3.72,3 0,1.92 1.4,2.98 3.42,2.98 1.02,0 1.96,-0.46 2.76,-1.1 v 0.9 z m -1.56,-1.74 c -0.6,0.6 -1.34,1.1 -2.2,1.1 -1.34,0 -2.22,-0.82 -2.22,-2.14 0,-1.22 1,-2.16 2.22,-2.16 0.76,0 1.52,0.2 2.2,0.54 z"
           style="font-size:20px;line-height:1.25"
           id="path391" />
        <path
           d="m -129.67577,962.09205 v -1 h -10 v 1 z"
           style="font-size:20px;line-height:1.25"
           id="path393" />
        <path
           d="m -124.4158,959.09205 v -0.6 c -0.38,0.32 -0.82,0.58 -1.32,0.58 -0.74,0 -0.88,-0.92 -0.88,-1.78 v -6.5 h -1.56 v 6.5 c 0,1.34 0.52,2.7 1.7,2.7 0.76,0 1.48,-0.38 2.06,-0.9 z m -2,-11.42 c 0,-0.54 -0.44,-0.98 -0.98,-0.98 -0.54,0 -0.98,0.44 -0.98,0.98 0,0.54 0.44,0.98 0.98,0.98 0.54,0 0.98,-0.44 0.98,-0.98 z"
           style="font-size:20px;line-height:1.25"
           id="path395" />
      </g>
      <path
         id="path252061"
         d="m -92.126089,974.40943 v 21.25984 h -17.716501 l -10.63,-10.62991 10.63,-10.62993 z"
         style="fill:#afdde9;fill-opacity:1;fill-rule:evenodd;stroke:#000000;stroke-width:1px;stroke-linecap:butt;stroke-linejoin:miter;stroke-opacity:1" />
      <g
         aria-label="irq_i"
         id="text252065"
         style="line-height:0%;font-family:Iwona;-inkscape-font-specification:Iwona;text-align:end;text-anchor:end">
        <path
           d="m -157.49571,990.98176 v -0.6 c -0.38,0.32 -0.82,0.58 -1.32,0.58 -0.74,0 -0.88,-0.92 -0.88,-1.78 v -6.5 h -1.56 v 6.5 c 0,1.34 0.52,2.7 1.7,2.7 0.76,0 1.48,-0.38 2.06,-0.9 z m -2,-11.42 c 0,-0.54 -0.44,-0.98 -0.98,-0.98 -0.54,0 -0.98,0.44 -0.98,0.98 0,0.54 0.44,0.98 0.98,0.98 0.54,0 0.98,-0.44 0.98,-0.98 z"
           style="font-size:20px;line-height:1.25"
           id="path398" />
        <path
           d="m -150.51573,983.92176 v -1.24 c -0.22,-0.08 -0.46,-0.14 -0.68,-0.14 -1.12,0 -2.02,0.78 -2.74,1.64 v -1.5 h -1.56 v 9 h 1.56 v -6.66 c 0.6,-0.7 1.36,-1.3 2.28,-1.3 0.38,0 0.78,0.08 1.14,0.2 z"
           style="font-size:20px;line-height:1.25"
           id="path400" />
        <path
           d="m -141.27575,996.28176 v -13.6 h -1.56 v 0.34 c -0.78,-0.34 -1.62,-0.54 -2.46,-0.54 -2.5,0 -3.72,2 -3.72,4.7 0,2.66 1,4.7 3.42,4.7 1.02,0 1.96,-0.46 2.76,-1.1 v 5.5 z m -1.56,-6.34 c -0.6,0.6 -1.34,1.1 -2.2,1.1 -1.82,0 -2.22,-1.76 -2.22,-3.86 0,-1.88 0.58,-3.86 2.22,-3.86 0.76,0 1.52,0.2 2.2,0.54 z"
           style="font-size:20px;line-height:1.25"
           id="path402" />
        <path
           d="m -129.67577,993.98176 v -1 h -10 v 1 z"
           style="font-size:20px;line-height:1.25"
           id="path404" />
        <path
           d="m -124.4158,990.98176 v -0.6 c -0.38,0.32 -0.82,0.58 -1.32,0.58 -0.74,0 -0.88,-0.92 -0.88,-1.78 v -6.5 h -1.56 v 6.5 c 0,1.34 0.52,2.7 1.7,2.7 0.76,0 1.48,-0.38 2.06,-0.9 z m -2,-11.42 c 0,-0.54 -0.44,-0.98 -0.98,-0.98 -0.54,0 -0.98,0.44 -0.98,0.98 0,0.54 0.44,0.98 0.98,0.98 0.54,0 0.98,-0.44 0.98,-0.98 z"
           style="font-size:20px;line-height:1.25"
           id="path406" />
      </g>
    </g>
    <path
       style="fill:#afdde9;fill-opacity:1;fill-rule:evenodd;stroke:#000000;stroke-width:1px;stroke-linecap:butt;stroke-linejoin:miter;stroke-opacity:1"
       d="m 24.803116,680.31498 v 21.2598 h 17.7165 l 10.63,-10.62989 -10.63,-10.6299 z"
       id="path288464" />
    <g
       aria-label="clk_i"
       id="text288468"
       style="line-height:0%;font-family:Iwona;-inkscape-font-specification:Iwona;text-align:end;text-anchor:end">
      <path
         d="m -16.586579,691.11149 v -0.84 c -0.64,-0.9 -1.68,-1.44 -2.8,-1.44 -2.5,0 -4.18,1.88 -4.18,4.7 0,2.82 1.68,4.7 4.18,4.7 1.04,0 2.02,-0.52 2.6,-1.38 v -0.84 c -0.68,1.02 -1.38,1.38 -2.6,1.38 -1.44,0 -2.42,-1.54 -2.42,-3.86 0,-2.32 0.98,-3.86 2.42,-3.86 1.24,0 2.08,0.44 2.8,1.44 z"
         style="font-size:20px;line-height:1.25"
         id="path409" />
      <path
         d="m -10.7266,697.33149 v -0.6 c -0.38,0.32 -0.82,0.58 -1.32,0.58 -0.74,0 -0.88,-0.92 -0.88,-1.78 v -11.5 h -1.56 v 11.5 c 0,1.34 0.52,2.7 1.7,2.7 0.76,0 1.48,-0.38 2.06,-0.9 z"
         style="font-size:20px;line-height:1.25"
         id="path411" />
      <path
         d="m -0.98663631,698.03149 -4.63999999,-5.34 4.48,-3.66 h -1.24 l -4.78,3.92 v -8.92 h -1.56 v 14 h 1.56 v -4.98 l 4.32,4.98 z"
         style="font-size:20px;line-height:1.25"
         id="path413" />
      <path
         d="m 9.2133493,700.33149 v -1 h -9.99999996 v 1 z"
         style="font-size:20px;line-height:1.25"
         id="path415" />
      <path
         d="m 14.473311,697.33149 v -0.6 c -0.38,0.32 -0.82,0.58 -1.32,0.58 -0.74,0 -0.88,-0.92 -0.88,-1.78 v -6.5 h -1.56 v 6.5 c 0,1.34 0.52,2.7 1.7,2.7 0.76,0 1.48,-0.38 2.06,-0.9 z m -2,-11.42 c 0,-0.54 -0.44,-0.98 -0.98,-0.98 -0.54,0 -0.98,0.44 -0.98,0.98 0,0.54 0.44,0.98 0.98,0.98 0.54,0 0.98,-0.44 0.98,-0.98 z"
         style="font-size:20px;line-height:1.25"
         id="path417" />
    </g>
    <path
       style="fill:#afdde9;fill-opacity:1;fill-rule:evenodd;stroke:#000000;stroke-width:1px;stroke-linecap:butt;stroke-linejoin:miter;stroke-opacity:1"
       d="m 24.803116,708.66138 v 21.2599 h 17.7165 l 10.63,-10.6299 -10.63,-10.63 z"
       id="path288470" />
    <g
       aria-label="reset_i"
       id="text288474"
       style="line-height:0%;font-family:Iwona;-inkscape-font-specification:Iwona;text-align:end;text-anchor:end">
      <path
         d="m -35.886529,718.61793 v -1.24 c -0.22,-0.08 -0.46,-0.14 -0.68,-0.14 -1.12,0 -2.02,0.78 -2.74,1.64 v -1.5 h -1.56 v 9 h 1.56 v -6.66 c 0.6,-0.7 1.36,-1.3 2.28,-1.3 0.38,0 0.78,0.08 1.14,0.2 z"
         style="font-size:20px;line-height:1.25"
         id="path420" />
      <path
         d="m -26.646548,722.07793 v -0.2 c 0,-2.82 -1.54,-4.7 -3.86,-4.7 -2.34,0 -3.88,1.88 -3.88,4.7 0,2.82 1.54,4.7 3.88,4.7 1,0 1.98,-0.32 2.8,-0.9 v -0.84 c -0.94,0.6 -1.7,0.82 -2.8,0.82 -1.7,0 -2.12,-1.62 -2.12,-3.58 z m -1.76,-0.84 h -4.22 c 0,-1.6 0.68,-3.22 2.12,-3.22 1.42,0 2.1,1.62 2.1,3.22 z"
         style="font-size:20px;line-height:1.25"
         id="path422" />
      <path
         d="m -17.966575,723.81793 c 0,-1.58 -1.68,-2.4 -3.32,-2.8 -0.96,-0.24 -2,-0.64 -2,-1.58 0,-0.86 0.88,-1.42 1.84,-1.42 1.06,0 2.12,0.32 3,0.9 v -0.84 c -0.88,-0.58 -1.94,-0.9 -3,-0.9 -1.74,0 -3.34,1.06 -3.34,2.68 0,1.46 1.62,2.14 3.16,2.52 1.06,0.26 2.16,0.82 2.16,1.84 0,0.94 -0.96,1.52 -1.98,1.52 -1.24,0 -2.44,-0.3 -3.5,-0.9 v 0.84 c 1.06,0.6 2.26,0.9 3.5,0.9 1.8,0 3.48,-1.08 3.48,-2.76 z"
         style="font-size:20px;line-height:1.25"
         id="path424" />
      <path
         d="m -8.226596,722.07793 v -0.2 c 0,-2.82 -1.54,-4.7 -3.86,-4.7 -2.34,0 -3.88,1.88 -3.88,4.7 0,2.82 1.54,4.7 3.88,4.7 1,0 1.98,-0.32 2.8,-0.9 v -0.84 c -0.94,0.6 -1.7,0.82 -2.8,0.82 -1.7,0 -2.12,-1.62 -2.12,-3.58 z m -1.76,-0.84 h -4.22 c 0,-1.6 0.68,-3.22 2.12,-3.22 1.42,0 2.1,1.62 2.1,3.22 z"
         style="font-size:20px;line-height:1.25"
         id="path426" />
      <path
         d="m -1.3866226,725.67793 v -0.6 c -0.32,0.32 -0.7,0.58 -1.16,0.58 -0.72,0 -0.76,-0.94 -0.76,-1.78 v -5.66 h 1.92 v -0.84 h -1.92 v -3 h -0.94 c 0,1.6 -0.92,3.1 -2.38,3.1 v 0.74 h 1.76 v 5.66 c 0,1.32 0.42,2.7 1.56,2.7 0.74,0 1.38,-0.4 1.92,-0.9 z"
         style="font-size:20px;line-height:1.25"
         id="path428" />
      <path
         d="m 9.2133493,728.67793 v -1 h -9.99999996 v 1 z"
         style="font-size:20px;line-height:1.25"
         id="path430" />
      <path
         d="m 14.473311,725.67793 v -0.6 c -0.38,0.32 -0.82,0.58 -1.32,0.58 -0.74,0 -0.88,-0.92 -0.88,-1.78 v -6.5 h -1.56 v 6.5 c 0,1.34 0.52,2.7 1.7,2.7 0.76,0 1.48,-0.38 2.06,-0.9 z m -2,-11.42 c 0,-0.54 -0.44,-0.98 -0.98,-0.98 -0.54,0 -0.98,0.44 -0.98,0.98 0,0.54 0.44,0.98 0.98,0.98 0.54,0 0.98,-0.44 0.98,-0.98 z"
         style="font-size:20px;line-height:1.25"
         id="path432" />
    </g>
    <path
       style="fill:none;stroke:#000000;stroke-width:0.9375px;stroke-linecap:butt;stroke-linejoin:miter;stroke-opacity:1"
       d="M 389.76372,432.28352 H 566.92909"
       id="path292788" />
    <path
       style="fill:none;stroke:#000000;stroke-width:0.9375px;stroke-linecap:butt;stroke-linejoin:miter;stroke-opacity:1"
       d="M 382.67711,464.17327 H 559.84248"
       id="path292870" />
    <path
       style="fill:none;stroke:#000000;stroke-width:0.9375px;stroke-linecap:butt;stroke-linejoin:miter;stroke-opacity:1"
       d="M 389.76372,496.06302 H 566.92909"
       id="path292872" />
    <path
       style="fill:none;stroke:#000000;stroke-width:0.9375px;stroke-linecap:butt;stroke-linejoin:miter;stroke-opacity:1"
       d="M 389.76372,527.95281 H 566.92909"
       id="path292874" />
    <path
       style="fill:none;stroke:#000000;stroke-width:0.9375px;stroke-linecap:butt;stroke-linejoin:miter;stroke-opacity:1"
       d="M 389.76372,559.84257 H 566.92909"
       id="path292876" />
    <path
       style="fill:none;stroke:#000000;stroke-width:0.9375px;stroke-linecap:butt;stroke-linejoin:miter;stroke-opacity:1"
       d="M 382.67711,591.73232 H 559.84248"
       id="path292878" />
    <path
       style="fill:none;stroke:#000000;stroke-width:0.9375px;stroke-linecap:butt;stroke-linejoin:miter;stroke-opacity:1"
       d="m 382.67711,623.62208 h 24.80315"
       id="path292880" />
    <path
       style="fill:none;stroke:#000000;stroke-width:0.9375px;stroke-linecap:butt;stroke-linejoin:miter;stroke-opacity:1"
       d="M 53.149542,690.94493 H 138.18892 V 651.96855"
       id="path293245" />
    <path
       style="fill:none;stroke:#000000;stroke-width:0.9375px;stroke-linecap:butt;stroke-linejoin:miter;stroke-opacity:1"
       d="M 53.149542,719.29133 H 209.05507 v -67.32278 0"
       id="path293247" />
    <path
       style="fill:none;stroke:#000000;stroke-width:0.9375px;stroke-linecap:butt;stroke-linejoin:miter;stroke-opacity:1;marker-start:url(#marker294295_Fnone_S#000000)"
       d="M 138.18891,690.94493 H 751.18106 V 620.07879"
       id="path293880" />
    <path
       style="fill:none;stroke:#000000;stroke-width:0.9375px;stroke-linecap:butt;stroke-linejoin:miter;stroke-opacity:1;marker-start:url(#DotS_Fnone_S#000000)"
       d="M 209.05506,719.29139 H 822.0472 l 10e-6,-99.2126 v 0"
       id="path293882" />
    <path
       style="fill:#afdde9;fill-opacity:1;fill-rule:evenodd;stroke:#000000;stroke-width:0.999999px;stroke-linecap:butt;stroke-linejoin:miter;stroke-opacity:1"
       d="m 425.1968,425.19692 v 14.17323 h 14.17326 v -14.17323 z"
       id="path621" />
    <path
       style="fill:#afdde9;fill-opacity:1;fill-rule:evenodd;stroke:#000000;stroke-width:0.999999px;stroke-linecap:butt;stroke-linejoin:miter;stroke-opacity:1"
       d="m 425.1968,457.08667 v 14.17323 h 14.17326 v -14.17323 z"
       id="path56496" />
    <path
       style="fill:#afdde9;fill-opacity:1;fill-rule:evenodd;stroke:#000000;stroke-width:0.999999px;stroke-linecap:butt;stroke-linejoin:miter;stroke-opacity:1"
       d="m 425.1968,488.97643 v 14.17323 h 14.17326 v -14.17323 z"
       id="path56498" />
    <path
       style="fill:#afdde9;fill-opacity:1;fill-rule:evenodd;stroke:#000000;stroke-width:0.999999px;stroke-linecap:butt;stroke-linejoin:miter;stroke-opacity:1"
       d="m 425.1968,520.86621 v 14.17323 h 14.17326 v -14.17323 z"
       id="path56500" />
    <path
       style="fill:#afdde9;fill-opacity:1;fill-rule:evenodd;stroke:#000000;stroke-width:0.999999px;stroke-linecap:butt;stroke-linejoin:miter;stroke-opacity:1"
       d="m 425.1968,552.75597 v 14.17323 h 14.17326 v -14.17323 z"
       id="path56502" />
    <path
       style="fill:#afdde9;fill-opacity:1;fill-rule:evenodd;stroke:#000000;stroke-width:0.999999px;stroke-linecap:butt;stroke-linejoin:miter;stroke-opacity:1"
       d="m 425.1968,584.64572 v 14.17323 h 14.17326 v -14.17323 z"
       id="path56504" />
    <g
       aria-label="valid"
       id="text11159-9-3"
       style="font-size:17.5px;line-height:0%;font-family:Iwona;-inkscape-font-specification:Iwona;text-align:center;text-anchor:middle">
      <path
         d="m 421.62596,413.77863 h -0.7875 l -2.38,6.545 -2.31,-6.545 h -1.295 l 2.765,7.875 h 1.1375 z"
         style="line-height:1.25"
         id="path435" />
      <path
         d="m 429.36095,421.65363 v -4.9 c 0,-1.645 -1.015,-3.15 -2.5375,-3.15 -1.12,0 -2.17,0.385 -3.115,0.98 v 0.5425 c 0.7875,-0.4375 1.6625,-0.7175 2.5725,-0.7175 1.085,0 1.715,1.155 1.715,2.345 v 0.315 c -0.6825,-0.2975 -1.4175,-0.4725 -2.1525,-0.4725 -1.8725,0 -3.255,0.8575 -3.255,2.625 0,1.68 1.225,2.6075 2.9925,2.6075 0.8925,0 1.715,-0.4025 2.415,-0.9625 v 0.7875 z m -1.365,-1.5225 c -0.525,0.525 -1.1725,0.9625 -1.925,0.9625 -1.1725,0 -1.9425,-0.7175 -1.9425,-1.8725 0,-1.0675 0.875,-1.89 1.9425,-1.89 0.665,0 1.33,0.175 1.925,0.4725 z"
         style="line-height:1.25"
         id="path437" />
      <path
         d="m 435.45094,421.04113 v -0.525 c -0.3325,0.28 -0.7175,0.5075 -1.155,0.5075 -0.6475,0 -0.77,-0.805 -0.77,-1.5575 v -10.0625 h -1.365 v 10.0625 c 0,1.1725 0.455,2.3625 1.4875,2.3625 0.665,0 1.295,-0.3325 1.8025,-0.7875 z"
         style="line-height:1.25"
         id="path439" />
      <path
         d="m 440.4034,421.04113 v -0.525 c -0.3325,0.28 -0.7175,0.5075 -1.155,0.5075 -0.6475,0 -0.77,-0.805 -0.77,-1.5575 v -5.6875 h -1.365 v 5.6875 c 0,1.1725 0.455,2.3625 1.4875,2.3625 0.665,0 1.295,-0.3325 1.8025,-0.7875 z m -1.75,-9.9925 c 0,-0.4725 -0.385,-0.8575 -0.8575,-0.8575 -0.4725,0 -0.8575,0.385 -0.8575,0.8575 0,0.4725 0.385,0.8575 0.8575,0.8575 0.4725,0 0.8575,-0.385 0.8575,-0.8575 z"
         style="line-height:1.25"
         id="path441" />
      <path
         d="m 448.48839,421.65363 v -12.25 h -1.365 v 4.6725 c -0.6825,-0.2975 -1.4175,-0.4725 -2.1525,-0.4725 -2.1875,0 -3.255,1.75 -3.255,4.1125 0,2.3275 0.875,4.1125 2.9925,4.1125 0.8925,0 1.715,-0.4025 2.415,-0.9625 v 0.7875 z m -1.365,-1.5225 c -0.525,0.525 -1.1725,0.9625 -1.925,0.9625 -1.5925,0 -1.9425,-1.54 -1.9425,-3.3775 0,-1.645 0.5075,-3.3775 1.9425,-3.3775 0.665,0 1.33,0.175 1.925,0.4725 z"
         style="line-height:1.25"
         id="path443" />
    </g>
    <g
       aria-label="ready"
       id="text64299"
       style="font-size:17.5px;line-height:0%;font-family:Iwona;-inkscape-font-specification:Iwona;text-align:center;text-anchor:middle">
      <path
         d="m 417.11097,446.75337 v -1.085 c -0.1925,-0.07 -0.4025,-0.1225 -0.595,-0.1225 -0.98,0 -1.7675,0.6825 -2.3975,1.435 v -1.3125 h -1.365 v 7.875 h 1.365 v -5.8275 c 0.525,-0.6125 1.19,-1.1375 1.995,-1.1375 0.3325,0 0.6825,0.07 0.9975,0.175 z"
         style="line-height:1.25"
         id="path446" />
      <path
         d="m 425.19595,449.78087 v -0.175 c 0,-2.4675 -1.3475,-4.1125 -3.3775,-4.1125 -2.0475,0 -3.395,1.645 -3.395,4.1125 0,2.4675 1.3475,4.1125 3.395,4.1125 0.875,0 1.7325,-0.28 2.45,-0.7875 v -0.735 c -0.8225,0.525 -1.4875,0.7175 -2.45,0.7175 -1.4875,0 -1.855,-1.4175 -1.855,-3.1325 z m -1.54,-0.735 h -3.6925 c 0,-1.4 0.595,-2.8175 1.855,-2.8175 1.2425,0 1.8375,1.4175 1.8375,2.8175 z"
         style="line-height:1.25"
         id="path448" />
      <path
         d="m 433.63092,453.54337 v -4.9 c 0,-1.645 -1.015,-3.15 -2.5375,-3.15 -1.12,0 -2.17,0.385 -3.115,0.98 v 0.5425 c 0.7875,-0.4375 1.6625,-0.7175 2.5725,-0.7175 1.085,0 1.715,1.155 1.715,2.345 v 0.315 c -0.6825,-0.2975 -1.4175,-0.4725 -2.1525,-0.4725 -1.8725,0 -3.255,0.8575 -3.255,2.625 0,1.68 1.225,2.6075 2.9925,2.6075 0.8925,0 1.715,-0.4025 2.415,-0.9625 v 0.7875 z m -1.365,-1.5225 c -0.525,0.525 -1.1725,0.9625 -1.925,0.9625 -1.1725,0 -1.9425,-0.7175 -1.9425,-1.8725 0,-1.0675 0.875,-1.89 1.9425,-1.89 0.665,0 1.33,0.175 1.925,0.4725 z"
         style="line-height:1.25"
         id="path450" />
      <path
         d="m 442.76591,453.54337 v -12.25 h -1.365 v 4.6725 c -0.6825,-0.2975 -1.4175,-0.4725 -2.1525,-0.4725 -2.1875,0 -3.255,1.75 -3.255,4.1125 0,2.3275 0.875,4.1125 2.9925,4.1125 0.8925,0 1.715,-0.4025 2.415,-0.9625 v 0.7875 z m -1.365,-1.5225 c -0.525,0.525 -1.1725,0.9625 -1.925,0.9625 -1.5925,0 -1.9425,-1.54 -1.9425,-3.3775 0,-1.645 0.5075,-3.3775 1.9425,-3.3775 0.665,0 1.33,0.175 1.925,0.4725 z"
         style="line-height:1.25"
         id="path452" />
      <path
         d="m 451.8134,454.59337 v -8.925 h -1.365 v 6.1775 c -0.595,0.595 -1.33,1.0675 -2.1525,1.0675 -0.8225,0 -1.4525,-0.7175 -1.4525,-1.5575 v -5.6875 h -1.365 v 5.6875 c 0,1.2775 0.98,2.3625 2.24,2.3625 1.05,0 1.9775,-0.595 2.73,-1.33 v 2.205 c 0,1.1725 -0.525,2.345 -1.575,2.345 -0.8225,0 -1.61,-0.175 -2.3625,-0.4725 v 0.5425 c 0.8925,0.455 1.89,0.735 2.905,0.735 1.4875,0 2.3975,-1.54 2.3975,-3.15 z"
         style="line-height:1.25"
         id="path454" />
    </g>
    <g
       aria-label="address"
       id="text64405"
       style="font-size:17.5px;line-height:0%;font-family:Iwona;-inkscape-font-specification:Iwona;text-align:center;text-anchor:middle">
      <path
         d="m 411.46723,485.43314 v -4.9 c 0,-1.645 -1.015,-3.15 -2.5375,-3.15 -1.12,0 -2.17,0.385 -3.115,0.98 v 0.5425 c 0.7875,-0.4375 1.6625,-0.7175 2.5725,-0.7175 1.085,0 1.715,1.155 1.715,2.345 v 0.315 c -0.6825,-0.2975 -1.4175,-0.4725 -2.1525,-0.4725 -1.8725,0 -3.255,0.8575 -3.255,2.625 0,1.68 1.225,2.6075 2.9925,2.6075 0.8925,0 1.715,-0.4025 2.415,-0.9625 v 0.7875 z m -1.365,-1.5225 c -0.525,0.525 -1.1725,0.9625 -1.925,0.9625 -1.1725,0 -1.9425,-0.7175 -1.9425,-1.8725 0,-1.0675 0.875,-1.89 1.9425,-1.89 0.665,0 1.33,0.175 1.925,0.4725 z"
         style="line-height:1.25"
         id="path457" />
      <path
         d="m 420.60222,485.43314 v -12.25 h -1.365 v 4.6725 c -0.6825,-0.2975 -1.4175,-0.4725 -2.1525,-0.4725 -2.1875,0 -3.255,1.75 -3.255,4.1125 0,2.3275 0.875,4.1125 2.9925,4.1125 0.8925,0 1.715,-0.4025 2.415,-0.9625 v 0.7875 z m -1.365,-1.5225 c -0.525,0.525 -1.1725,0.9625 -1.925,0.9625 -1.5925,0 -1.9425,-1.54 -1.9425,-3.3775 0,-1.645 0.5075,-3.3775 1.9425,-3.3775 0.665,0 1.33,0.175 1.925,0.4725 z"
         style="line-height:1.25"
         id="path459" />
      <path
         d="m 429.73721,485.43314 v -12.25 h -1.365 v 4.6725 c -0.6825,-0.2975 -1.4175,-0.4725 -2.1525,-0.4725 -2.1875,0 -3.255,1.75 -3.255,4.1125 0,2.3275 0.875,4.1125 2.9925,4.1125 0.8925,0 1.715,-0.4025 2.415,-0.9625 v 0.7875 z m -1.365,-1.5225 c -0.525,0.525 -1.1725,0.9625 -1.925,0.9625 -1.5925,0 -1.9425,-1.54 -1.9425,-3.3775 0,-1.645 0.5075,-3.3775 1.9425,-3.3775 0.665,0 1.33,0.175 1.925,0.4725 z"
         style="line-height:1.25"
         id="path461" />
      <path
         d="m 436.89469,478.64314 v -1.085 c -0.1925,-0.07 -0.4025,-0.1225 -0.595,-0.1225 -0.98,0 -1.7675,0.6825 -2.3975,1.435 v -1.3125 h -1.365 v 7.875 h 1.365 v -5.8275 c 0.525,-0.6125 1.19,-1.1375 1.995,-1.1375 0.3325,0 0.6825,0.07 0.9975,0.175 z"
         style="line-height:1.25"
         id="path463" />
      <path
         d="m 444.97968,481.67064 v -0.175 c 0,-2.4675 -1.3475,-4.1125 -3.3775,-4.1125 -2.0475,0 -3.395,1.645 -3.395,4.1125 0,2.4675 1.3475,4.1125 3.395,4.1125 0.875,0 1.7325,-0.28 2.45,-0.7875 v -0.735 c -0.8225,0.525 -1.4875,0.7175 -2.45,0.7175 -1.4875,0 -1.855,-1.4175 -1.855,-3.1325 z m -1.54,-0.735 h -3.6925 c 0,-1.4 0.595,-2.8175 1.855,-2.8175 1.2425,0 1.8375,1.4175 1.8375,2.8175 z"
         style="line-height:1.25"
         id="path465" />
      <path
         d="m 452.57466,483.19314 c 0,-1.3825 -1.47,-2.1 -2.905,-2.45 -0.84,-0.21 -1.75,-0.56 -1.75,-1.3825 0,-0.7525 0.77,-1.2425 1.61,-1.2425 0.9275,0 1.855,0.28 2.625,0.7875 v -0.735 c -0.77,-0.5075 -1.6975,-0.7875 -2.625,-0.7875 -1.5225,0 -2.9225,0.9275 -2.9225,2.345 0,1.2775 1.4175,1.8725 2.765,2.205 0.9275,0.2275 1.89,0.7175 1.89,1.61 0,0.8225 -0.84,1.33 -1.7325,1.33 -1.085,0 -2.135,-0.2625 -3.0625,-0.7875 v 0.735 c 0.9275,0.525 1.9775,0.7875 3.0625,0.7875 1.575,0 3.045,-0.945 3.045,-2.415 z"
         style="line-height:1.25"
         id="path467" />
      <path
         d="m 459.87212,483.19314 c 0,-1.3825 -1.47,-2.1 -2.905,-2.45 -0.84,-0.21 -1.75,-0.56 -1.75,-1.3825 0,-0.7525 0.77,-1.2425 1.61,-1.2425 0.9275,0 1.855,0.28 2.625,0.7875 v -0.735 c -0.77,-0.5075 -1.6975,-0.7875 -2.625,-0.7875 -1.5225,0 -2.9225,0.9275 -2.9225,2.345 0,1.2775 1.4175,1.8725 2.765,2.205 0.9275,0.2275 1.89,0.7175 1.89,1.61 0,0.8225 -0.84,1.33 -1.7325,1.33 -1.085,0 -2.135,-0.2625 -3.0625,-0.7875 v 0.735 c 0.9275,0.525 1.9775,0.7875 3.0625,0.7875 1.575,0 3.045,-0.945 3.045,-2.415 z"
         style="line-height:1.25"
         id="path469" />
    </g>
    <g
       aria-label="write"
       id="text64565"
       style="font-size:17.5px;line-height:0%;font-family:Iwona;-inkscape-font-specification:Iwona;text-align:center;text-anchor:middle">
      <path
         d="m 425.17846,509.44794 h -0.77 l -2.065,6.3875 -1.9775,-6.3875 h -0.945 l -2.065,6.3875 -1.995,-6.3875 h -1.2775 l 2.45,7.875 h 1.1025 l 1.9775,-6.125 1.9075,6.125 h 1.1025 z"
         style="line-height:1.25"
         id="path472" />
      <path
         d="m 431.28596,510.53294 v -1.085 c -0.1925,-0.07 -0.4025,-0.1225 -0.595,-0.1225 -0.98,0 -1.7675,0.6825 -2.3975,1.435 v -1.3125 h -1.365 v 7.875 h 1.365 v -5.8275 c 0.525,-0.6125 1.19,-1.1375 1.995,-1.1375 0.3325,0 0.6825,0.07 0.9975,0.175 z"
         style="line-height:1.25"
         id="path474" />
      <path
         d="m 436.23844,516.71044 v -0.525 c -0.3325,0.28 -0.7175,0.5075 -1.155,0.5075 -0.6475,0 -0.77,-0.805 -0.77,-1.5575 v -5.6875 h -1.365 v 5.6875 c 0,1.1725 0.455,2.3625 1.4875,2.3625 0.665,0 1.295,-0.3325 1.8025,-0.7875 z m -1.75,-9.9925 c 0,-0.4725 -0.385,-0.8575 -0.8575,-0.8575 -0.4725,0 -0.8575,0.385 -0.8575,0.8575 0,0.4725 0.385,0.8575 0.8575,0.8575 0.4725,0 0.8575,-0.385 0.8575,-0.8575 z"
         style="line-height:1.25"
         id="path476" />
      <path
         d="m 441.69842,516.71044 v -0.525 c -0.28,0.28 -0.6125,0.5075 -1.015,0.5075 -0.63,0 -0.665,-0.8225 -0.665,-1.5575 v -4.9525 h 1.68 v -0.735 h -1.68 v -2.625 h -0.8225 c 0,1.4 -0.805,2.7125 -2.0825,2.7125 v 0.6475 h 1.54 v 4.9525 c 0,1.155 0.3675,2.3625 1.365,2.3625 0.6475,0 1.2075,-0.35 1.68,-0.7875 z"
         style="line-height:1.25"
         id="path478" />
      <path
         d="m 449.9584,513.56044 v -0.175 c 0,-2.4675 -1.3475,-4.1125 -3.3775,-4.1125 -2.0475,0 -3.395,1.645 -3.395,4.1125 0,2.4675 1.3475,4.1125 3.395,4.1125 0.875,0 1.7325,-0.28 2.45,-0.7875 v -0.735 c -0.8225,0.525 -1.4875,0.7175 -2.45,0.7175 -1.4875,0 -1.855,-1.4175 -1.855,-3.1325 z m -1.54,-0.735 h -3.6925 c 0,-1.4 0.595,-2.8175 1.855,-2.8175 1.2425,0 1.8375,1.4175 1.8375,2.8175 z"
         style="line-height:1.25"
         id="path480" />
    </g>
    <g
       aria-label="wdata"
       id="text64671"
       style="font-size:17.5px;line-height:0%;font-family:Iwona;-inkscape-font-specification:Iwona;text-align:center;text-anchor:middle">
      <path
         d="m 421.48595,541.33765 h -0.77 l -2.065,6.3875 -1.9775,-6.3875 h -0.945 l -2.065,6.3875 -1.995,-6.3875 h -1.2775 l 2.45,7.875 h 1.1025 l 1.9775,-6.125 1.9075,6.125 h 1.1025 z"
         style="line-height:1.25"
         id="path483" />
      <path
         d="m 429.57095,549.21265 v -12.25 h -1.365 v 4.6725 c -0.6825,-0.2975 -1.4175,-0.4725 -2.1525,-0.4725 -2.1875,0 -3.255,1.75 -3.255,4.1125 0,2.3275 0.875,4.1125 2.9925,4.1125 0.8925,0 1.715,-0.4025 2.415,-0.9625 v 0.7875 z m -1.365,-1.5225 c -0.525,0.525 -1.1725,0.9625 -1.925,0.9625 -1.5925,0 -1.9425,-1.54 -1.9425,-3.3775 0,-1.645 0.5075,-3.3775 1.9425,-3.3775 0.665,0 1.33,0.175 1.925,0.4725 z"
         style="line-height:1.25"
         id="path485" />
      <path
         d="m 438.53094,549.21265 v -4.9 c 0,-1.645 -1.015,-3.15 -2.5375,-3.15 -1.12,0 -2.17,0.385 -3.115,0.98 v 0.5425 c 0.7875,-0.4375 1.6625,-0.7175 2.5725,-0.7175 1.085,0 1.715,1.155 1.715,2.345 v 0.315 c -0.6825,-0.2975 -1.4175,-0.4725 -2.1525,-0.4725 -1.8725,0 -3.255,0.8575 -3.255,2.625 0,1.68 1.225,2.6075 2.9925,2.6075 0.8925,0 1.715,-0.4025 2.415,-0.9625 v 0.7875 z m -1.365,-1.5225 c -0.525,0.525 -1.1725,0.9625 -1.925,0.9625 -1.1725,0 -1.9425,-0.7175 -1.9425,-1.8725 0,-1.0675 0.875,-1.89 1.9425,-1.89 0.665,0 1.33,0.175 1.925,0.4725 z"
         style="line-height:1.25"
         id="path487" />
      <path
         d="m 445.04092,548.60015 v -0.525 c -0.28,0.28 -0.6125,0.5075 -1.015,0.5075 -0.63,0 -0.665,-0.8225 -0.665,-1.5575 v -4.9525 h 1.68 v -0.735 h -1.68 v -2.625 h -0.8225 c 0,1.4 -0.805,2.7125 -2.0825,2.7125 v 0.6475 h 1.54 v 4.9525 c 0,1.155 0.3675,2.3625 1.365,2.3625 0.6475,0 1.2075,-0.35 1.68,-0.7875 z"
         style="line-height:1.25"
         id="path489" />
      <path
         d="m 453.1259,549.21265 v -4.9 c 0,-1.645 -1.015,-3.15 -2.5375,-3.15 -1.12,0 -2.17,0.385 -3.115,0.98 v 0.5425 c 0.7875,-0.4375 1.6625,-0.7175 2.5725,-0.7175 1.085,0 1.715,1.155 1.715,2.345 v 0.315 c -0.6825,-0.2975 -1.4175,-0.4725 -2.1525,-0.4725 -1.8725,0 -3.255,0.8575 -3.255,2.625 0,1.68 1.225,2.6075 2.9925,2.6075 0.8925,0 1.715,-0.4025 2.415,-0.9625 v 0.7875 z m -1.365,-1.5225 c -0.525,0.525 -1.1725,0.9625 -1.925,0.9625 -1.1725,0 -1.9425,-0.7175 -1.9425,-1.8725 0,-1.0675 0.875,-1.89 1.9425,-1.89 0.665,0 1.33,0.175 1.925,0.4725 z"
         style="line-height:1.25"
         id="path491" />
    </g>
    <g
       aria-label="rdata"
       id="text64777"
       style="font-size:17.5px;line-height:0%;font-family:Iwona;-inkscape-font-specification:Iwona;text-align:center;text-anchor:middle">
      <path
         d="m 418.64221,574.31242 v -1.085 c -0.1925,-0.07 -0.4025,-0.1225 -0.595,-0.1225 -0.98,0 -1.7675,0.6825 -2.3975,1.435 v -1.3125 h -1.365 v 7.875 h 1.365 v -5.8275 c 0.525,-0.6125 1.19,-1.1375 1.995,-1.1375 0.3325,0 0.6825,0.07 0.9975,0.175 z"
         style="line-height:1.25"
         id="path494" />
      <path
         d="m 426.72719,581.10242 v -12.25 h -1.365 v 4.6725 c -0.6825,-0.2975 -1.4175,-0.4725 -2.1525,-0.4725 -2.1875,0 -3.255,1.75 -3.255,4.1125 0,2.3275 0.875,4.1125 2.9925,4.1125 0.8925,0 1.715,-0.4025 2.415,-0.9625 v 0.7875 z m -1.365,-1.5225 c -0.525,0.525 -1.1725,0.9625 -1.925,0.9625 -1.5925,0 -1.9425,-1.54 -1.9425,-3.3775 0,-1.645 0.5075,-3.3775 1.9425,-3.3775 0.665,0 1.33,0.175 1.925,0.4725 z"
         style="line-height:1.25"
         id="path496" />
      <path
         d="m 435.68718,581.10242 v -4.9 c 0,-1.645 -1.015,-3.15 -2.5375,-3.15 -1.12,0 -2.17,0.385 -3.115,0.98 v 0.5425 c 0.7875,-0.4375 1.6625,-0.7175 2.5725,-0.7175 1.085,0 1.715,1.155 1.715,2.345 v 0.315 c -0.6825,-0.2975 -1.4175,-0.4725 -2.1525,-0.4725 -1.8725,0 -3.255,0.8575 -3.255,2.625 0,1.68 1.225,2.6075 2.9925,2.6075 0.8925,0 1.715,-0.4025 2.415,-0.9625 v 0.7875 z m -1.365,-1.5225 c -0.525,0.525 -1.1725,0.9625 -1.925,0.9625 -1.1725,0 -1.9425,-0.7175 -1.9425,-1.8725 0,-1.0675 0.875,-1.89 1.9425,-1.89 0.665,0 1.33,0.175 1.925,0.4725 z"
         style="line-height:1.25"
         id="path498" />
      <path
         d="m 442.19717,580.48992 v -0.525 c -0.28,0.28 -0.6125,0.5075 -1.015,0.5075 -0.63,0 -0.665,-0.8225 -0.665,-1.5575 v -4.9525 h 1.68 v -0.735 h -1.68 v -2.625 h -0.8225 c 0,1.4 -0.805,2.7125 -2.0825,2.7125 v 0.6475 h 1.54 v 4.9525 c 0,1.155 0.3675,2.3625 1.365,2.3625 0.6475,0 1.2075,-0.35 1.68,-0.7875 z"
         style="line-height:1.25"
         id="path500" />
      <path
         d="m 450.28214,581.10242 v -4.9 c 0,-1.645 -1.015,-3.15 -2.5375,-3.15 -1.12,0 -2.17,0.385 -3.115,0.98 v 0.5425 c 0.7875,-0.4375 1.6625,-0.7175 2.5725,-0.7175 1.085,0 1.715,1.155 1.715,2.345 v 0.315 c -0.6825,-0.2975 -1.4175,-0.4725 -2.1525,-0.4725 -1.8725,0 -3.255,0.8575 -3.255,2.625 0,1.68 1.225,2.6075 2.9925,2.6075 0.8925,0 1.715,-0.4025 2.415,-0.9625 v 0.7875 z m -1.365,-1.5225 c -0.525,0.525 -1.1725,0.9625 -1.925,0.9625 -1.1725,0 -1.9425,-0.7175 -1.9425,-1.8725 0,-1.0675 0.875,-1.89 1.9425,-1.89 0.665,0 1.33,0.175 1.925,0.4725 z"
         style="line-height:1.25"
         id="path502" />
    </g>
    <g
       aria-label="address(31..2)"
       id="text65244"
       style="font-size:15px;line-height:0%;font-family:Iwona;-inkscape-font-specification:Iwona;text-align:center;text-anchor:middle">
      <path
         d="m 479.83792,492.51974 v -4.2 c 0,-1.41 -0.87,-2.7 -2.175,-2.7 -0.96,0 -1.86,0.33 -2.67,0.84 v 0.465 c 0.675,-0.375 1.425,-0.615 2.205,-0.615 0.93,0 1.47,0.99 1.47,2.01 v 0.27 c -0.585,-0.255 -1.215,-0.405 -1.845,-0.405 -1.605,0 -2.79,0.735 -2.79,2.25 0,1.44 1.05,2.235 2.565,2.235 0.765,0 1.47,-0.345 2.07,-0.825 v 0.675 z m -1.17,-1.305 c -0.45,0.45 -1.005,0.825 -1.65,0.825 -1.005,0 -1.665,-0.615 -1.665,-1.605 0,-0.915 0.75,-1.62 1.665,-1.62 0.57,0 1.14,0.15 1.65,0.405 z"
         style="line-height:1.25"
         id="path505" />
      <path
         d="m 487.66791,492.51974 v -10.5 h -1.17 v 4.005 c -0.585,-0.255 -1.215,-0.405 -1.845,-0.405 -1.875,0 -2.79,1.5 -2.79,3.525 0,1.995 0.75,3.525 2.565,3.525 0.765,0 1.47,-0.345 2.07,-0.825 v 0.675 z m -1.17,-1.305 c -0.45,0.45 -1.005,0.825 -1.65,0.825 -1.365,0 -1.665,-1.32 -1.665,-2.895 0,-1.41 0.435,-2.895 1.665,-2.895 0.57,0 1.14,0.15 1.65,0.405 z"
         style="line-height:1.25"
         id="path507" />
      <path
         d="m 495.4979,492.51974 v -10.5 h -1.17 v 4.005 c -0.585,-0.255 -1.215,-0.405 -1.845,-0.405 -1.875,0 -2.79,1.5 -2.79,3.525 0,1.995 0.75,3.525 2.565,3.525 0.765,0 1.47,-0.345 2.07,-0.825 v 0.675 z m -1.17,-1.305 c -0.45,0.45 -1.005,0.825 -1.65,0.825 -1.365,0 -1.665,-1.32 -1.665,-2.895 0,-1.41 0.435,-2.895 1.665,-2.895 0.57,0 1.14,0.15 1.65,0.405 z"
         style="line-height:1.25"
         id="path509" />
      <path
         d="m 501.63289,486.69974 v -0.93 c -0.165,-0.06 -0.345,-0.105 -0.51,-0.105 -0.84,0 -1.515,0.585 -2.055,1.23 v -1.125 h -1.17 v 6.75 h 1.17 v -4.995 c 0.45,-0.525 1.02,-0.975 1.71,-0.975 0.285,0 0.585,0.06 0.855,0.15 z"
         style="line-height:1.25"
         id="path511" />
      <path
         d="m 508.56287,489.29474 v -0.15 c 0,-2.115 -1.155,-3.525 -2.895,-3.525 -1.755,0 -2.91,1.41 -2.91,3.525 0,2.115 1.155,3.525 2.91,3.525 0.75,0 1.485,-0.24 2.1,-0.675 v -0.63 c -0.705,0.45 -1.275,0.615 -2.1,0.615 -1.275,0 -1.59,-1.215 -1.59,-2.685 z m -1.32,-0.63 h -3.165 c 0,-1.2 0.51,-2.415 1.59,-2.415 1.065,0 1.575,1.215 1.575,2.415 z"
         style="line-height:1.25"
         id="path513" />
      <path
         d="m 515.07285,490.59974 c 0,-1.185 -1.26,-1.8 -2.49,-2.1 -0.72,-0.18 -1.5,-0.48 -1.5,-1.185 0,-0.645 0.66,-1.065 1.38,-1.065 0.795,0 1.59,0.24 2.25,0.675 v -0.63 c -0.66,-0.435 -1.455,-0.675 -2.25,-0.675 -1.305,0 -2.505,0.795 -2.505,2.01 0,1.095 1.215,1.605 2.37,1.89 0.795,0.195 1.62,0.615 1.62,1.38 0,0.705 -0.72,1.14 -1.485,1.14 -0.93,0 -1.83,-0.225 -2.625,-0.675 v 0.63 c 0.795,0.45 1.695,0.675 2.625,0.675 1.35,0 2.61,-0.81 2.61,-2.07 z"
         style="line-height:1.25"
         id="path515" />
      <path
         d="m 521.32782,490.59974 c 0,-1.185 -1.26,-1.8 -2.49,-2.1 -0.72,-0.18 -1.5,-0.48 -1.5,-1.185 0,-0.645 0.66,-1.065 1.38,-1.065 0.795,0 1.59,0.24 2.25,0.675 v -0.63 c -0.66,-0.435 -1.455,-0.675 -2.25,-0.675 -1.305,0 -2.505,0.795 -2.505,2.01 0,1.095 1.215,1.605 2.37,1.89 0.795,0.195 1.62,0.615 1.62,1.38 0,0.705 -0.72,1.14 -1.485,1.14 -0.93,0 -1.83,-0.225 -2.625,-0.675 v 0.63 c 0.795,0.45 1.695,0.675 2.625,0.675 1.35,0 2.61,-0.81 2.61,-2.07 z"
         style="line-height:1.25"
         id="path517" />
      <path
         d="m 525.8728,495.96974 c -1.095,-2.43 -1.5,-4.305 -1.5,-6.975 0,-2.67 0.405,-4.545 1.5,-6.975 h -0.63 c -1.485,2.31 -2.04,4.23 -2.04,6.975 0,2.745 0.555,4.665 2.04,6.975 z"
         style="line-height:1.25"
         id="path519" />
      <path
         d="m 533.74778,489.66974 c 0,-1.32 -0.93,-2.46 -2.22,-2.85 1.14,-0.33 1.845,-1.185 1.845,-2.325 0,-1.485 -1.2,-2.475 -3,-2.475 -0.975,0 -1.92,0.33 -2.685,0.93 v 0.63 c 0.765,-0.6 1.71,-0.93 2.685,-0.93 1.095,0 1.83,0.735 1.83,1.845 0,1.785 -0.825,2.25 -2.7,2.25 v 0.555 c 2.025,0 2.925,0.48 2.925,2.37 0,1.305 -0.84,2.37 -1.86,2.37 -1.14,0 -2.25,-0.33 -3.195,-0.93 v 0.63 c 0.945,0.6 2.055,0.93 3.195,0.93 1.74,0 3.18,-1.35 3.18,-3 z"
         style="line-height:1.25"
         id="path521" />
      <path
         d="m 539.44778,492.51974 v -10.35 h -0.87 c -0.825,0.945 -1.8,1.755 -2.88,2.385 v 0.63 c 0.915,-0.435 1.77,-0.945 2.58,-1.56 v 8.895 z"
         style="line-height:1.25"
         id="path523" />
      <path
         d="m 544.71277,491.78474 c 0,-0.405 -0.33,-0.735 -0.735,-0.735 -0.405,0 -0.735,0.33 -0.735,0.735 0,0.405 0.33,0.735 0.735,0.735 0.405,0 0.735,-0.33 0.735,-0.735 z"
         style="line-height:1.25"
         id="path525" />
      <path
         d="m 547.92276,491.78474 c 0,-0.405 -0.33,-0.735 -0.735,-0.735 -0.405,0 -0.735,0.33 -0.735,0.735 0,0.405 0.33,0.735 0.735,0.735 0.405,0 0.735,-0.33 0.735,-0.735 z"
         style="line-height:1.25"
         id="path527" />
      <path
         d="m 555.91773,492.51974 v -0.93 h -5.295 l 2.76,-2.73 c 1.23,-1.23 2.385,-2.67 2.385,-4.41 0,-1.47 -1.455,-2.43 -3.03,-2.43 -1.185,0 -2.31,0.54 -3.045,1.455 v 0.63 c 0.765,-0.885 1.875,-1.395 3.045,-1.395 1.005,0 1.86,0.75 1.86,1.74 0,1.485 -0.69,2.865 -1.71,3.93 l -3.345,3.435 v 0.705 z"
         style="line-height:1.25"
         id="path529" />
      <path
         d="m 560.08773,488.99474 c 0,-2.745 -0.555,-4.665 -2.04,-6.975 h -0.63 c 1.095,2.43 1.5,4.305 1.5,6.975 0,2.67 -0.405,4.545 -1.5,6.975 h 0.63 c 1.485,-2.31 2.04,-4.23 2.04,-6.975 z"
         style="line-height:1.25"
         id="path531" />
    </g>
    <g
       aria-label="'0'"
       id="text288"
       style="font-size:17.5px;line-height:0%;font-family:Iwona;-inkscape-font-specification:Iwona">
      <path
         d="m 412.49356,619.01041 v -4.095 h -0.805 v 4.095 z"
         style="line-height:1.25"
         id="path534" />
      <path
         d="m 421.59356,621.12791 c 0,-4.1475 -1.2775,-6.2125 -3.8325,-6.2125 -2.555,0 -3.8325,2.065 -3.8325,6.2125 0,4.1475 1.2775,6.2125 3.8325,6.2125 2.555,0 3.8325,-2.065 3.8325,-6.2125 z m -1.54,0 c 0,3.6575 -0.77,5.4775 -2.2925,5.4775 -1.5225,0 -2.2925,-1.82 -2.2925,-5.4775 0,-3.6575 0.77,-5.4775 2.2925,-5.4775 1.5225,0 2.2925,1.82 2.2925,5.4775 z"
         style="line-height:1.25"
         id="path536" />
      <path
         d="m 423.81605,619.01041 v -4.095 h -0.805 v 4.095 z"
         style="line-height:1.25"
         id="path538" />
    </g>
  </g>
</svg>
