<?xml version="1.0" encoding="UTF-8" standalone="no"?>
<!-- Created with Inkscape (http://www.inkscape.org/) -->

<svg
   width="108.74694mm"
   height="69.774109mm"
   id="svg2"
   version="1.1"
   viewBox="0 0 385.32384 247.23109"
   xmlns="http://www.w3.org/2000/svg"
   xmlns:svg="http://www.w3.org/2000/svg"
   xmlns:rdf="http://www.w3.org/1999/02/22-rdf-syntax-ns#"
   xmlns:cc="http://creativecommons.org/ns#"
   xmlns:dc="http://purl.org/dc/elements/1.1/">
  <defs
     id="defs4" />
  <metadata
     id="metadata7">
    <rdf:RDF>
      <cc:Work
         rdf:about="">
        <dc:format>image/svg+xml</dc:format>
        <dc:type
           rdf:resource="http://purl.org/dc/dcmitype/StillImage" />
      </cc:Work>
    </rdf:RDF>
  </metadata>
  <g
     id="layer1"
     transform="translate(-488.53346,-407.0374)">
    <path
       id="rect3112"
       style="fill:#afdde9;stroke:#000000;stroke-width:0.885827"
       d="M 496.06299,414.56693 H 761.81104 V 620.07874 H 496.06299 Z" />
    <g
       aria-label="Virgule"
       id="text3157"
       style="line-height:0%;font-family:Iwona;-inkscape-font-specification:Iwona;text-align:center;text-anchor:middle">
      <path
         d="m 593.07718,498.52283 h -1.96 l -9.28,23.76 -9.24,-23.76 h -3.52 l 10.92,28 h 2.16 z"
         style="font-size:40px;line-height:1.25"
         id="path51" />
      <path
         d="m 603.27709,525.12283 v -1.2 c -0.76,0.64 -1.64,1.16 -2.64,1.16 -1.48,0 -1.76,-1.84 -1.76,-3.56 v -13 h -3.12 v 13 c 0,2.68 1.04,5.4 3.4,5.4 1.52,0 2.96,-0.76 4.12,-1.8 z m -4,-22.84 c 0,-1.08 -0.88,-1.96 -1.96,-1.96 -1.08,0 -1.96,0.88 -1.96,1.96 0,1.08 0.88,1.96 1.96,1.96 1.08,0 1.96,-0.88 1.96,-1.96 z"
         style="font-size:40px;line-height:1.25"
         id="path53" />
      <path
         d="m 617.23705,511.00283 v -2.48 c -0.44,-0.16 -0.92,-0.28 -1.36,-0.28 -2.24,0 -4.04,1.56 -5.48,3.28 v -3 h -3.12 v 18 h 3.12 v -13.32 c 1.2,-1.4 2.72,-2.6 4.56,-2.6 0.76,0 1.56,0.16 2.28,0.4 z"
         style="font-size:40px;line-height:1.25"
         id="path55" />
      <path
         d="m 635.71701,528.92283 v -20.4 h -3.12 v 0.68 c -1.56,-0.68 -3.24,-1.08 -4.92,-1.08 -5,0 -7.44,4 -7.44,9.4 0,5.32 2,9.4 6.84,9.4 2.04,0 3.92,-0.92 5.52,-2.2 v 4.2 c 0,2.76 -1.52,5.36 -4,5.36 -2.04,0 -4.08,-0.4 -6,-1.08 v 1.24 c 2.24,1.04 4.72,1.68 7.2,1.68 3.52,0 5.92,-3.44 5.92,-7.2 z m -3.12,-5.88 c -1.2,1.2 -2.68,2.2 -4.4,2.2 -3.64,0 -4.44,-3.52 -4.44,-7.72 0,-3.76 1.16,-7.72 4.44,-7.72 1.52,0 3.04,0.4 4.4,1.08 z"
         style="font-size:40px;line-height:1.25"
         id="path57" />
      <path
         d="m 656.39698,526.52283 v -18 h -3.12 v 14.12 c -1.36,1.36 -3.04,2.44 -4.92,2.44 -1.88,0 -3.32,-1.64 -3.32,-3.56 v -13 h -3.12 v 13 c 0,2.92 2.24,5.4 5.12,5.4 2.4,0 4.52,-1.36 6.24,-3.04 v 2.64 z"
         style="font-size:40px;line-height:1.25"
         id="path59" />
      <path
         d="m 670.31692,525.12283 v -1.2 c -0.76,0.64 -1.64,1.16 -2.64,1.16 -1.48,0 -1.76,-1.84 -1.76,-3.56 v -23 h -3.12 v 23 c 0,2.68 1.04,5.4 3.4,5.4 1.52,0 2.96,-0.76 4.12,-1.8 z"
         style="font-size:40px;line-height:1.25"
         id="path61" />
      <path
         d="m 688.79684,517.92283 v -0.4 c 0,-5.64 -3.08,-9.4 -7.72,-9.4 -4.68,0 -7.76,3.76 -7.76,9.4 0,5.64 3.08,9.4 7.76,9.4 2,0 3.96,-0.64 5.6,-1.8 v -1.68 c -1.88,1.2 -3.4,1.64 -5.6,1.64 -3.4,0 -4.24,-3.24 -4.24,-7.16 z m -3.52,-1.68 h -8.44 c 0,-3.2 1.36,-6.44 4.24,-6.44 2.84,0 4.2,3.24 4.2,6.44 z"
         style="font-size:40px;line-height:1.25"
         id="path63" />
    </g>
    <path
       style="fill:#afdde9;fill-opacity:1;fill-rule:evenodd;stroke:#000000;stroke-width:1px;stroke-linecap:butt;stroke-linejoin:miter;stroke-opacity:1"
       d="m 747.6378,421.65353 v 21.25985 h 17.7165 l 10.63,-10.62992 -10.63,-10.62993 z"
       id="path11157" />
    <g
       aria-label="valid_o"
       id="text11159"
       style="line-height:0%;font-family:Iwona;-inkscape-font-specification:Iwona">
      <path
         d="m 791.01056,429.9259 h -0.9 l -2.72,7.48 -2.64,-7.48 h -1.48 l 3.16,9 h 1.3 z"
         style="font-size:20px;line-height:1.25"
         id="path66" />
      <path
         d="m 799.85055,438.9259 v -5.6 c 0,-1.88 -1.16,-3.6 -2.9,-3.6 -1.28,0 -2.48,0.44 -3.56,1.12 v 0.62 c 0.9,-0.5 1.9,-0.82 2.94,-0.82 1.24,0 1.96,1.32 1.96,2.68 v 0.36 c -0.78,-0.34 -1.62,-0.54 -2.46,-0.54 -2.14,0 -3.72,0.98 -3.72,3 0,1.92 1.4,2.98 3.42,2.98 1.02,0 1.96,-0.46 2.76,-1.1 v 0.9 z m -1.56,-1.74 c -0.6,0.6 -1.34,1.1 -2.2,1.1 -1.34,0 -2.22,-0.82 -2.22,-2.14 0,-1.22 1,-2.16 2.22,-2.16 0.76,0 1.52,0.2 2.2,0.54 z"
         style="font-size:20px;line-height:1.25"
         id="path68" />
      <path
         d="m 806.81053,438.2259 v -0.6 c -0.38,0.32 -0.82,0.58 -1.32,0.58 -0.74,0 -0.88,-0.92 -0.88,-1.78 v -11.5 h -1.56 v 11.5 c 0,1.34 0.52,2.7 1.7,2.7 0.76,0 1.48,-0.38 2.06,-0.9 z"
         style="font-size:20px;line-height:1.25"
         id="path70" />
      <path
         d="m 812.47049,438.2259 v -0.6 c -0.38,0.32 -0.82,0.58 -1.32,0.58 -0.74,0 -0.88,-0.92 -0.88,-1.78 v -6.5 h -1.56 v 6.5 c 0,1.34 0.52,2.7 1.7,2.7 0.76,0 1.48,-0.38 2.06,-0.9 z m -2,-11.42 c 0,-0.54 -0.44,-0.98 -0.98,-0.98 -0.54,0 -0.98,0.44 -0.98,0.98 0,0.54 0.44,0.98 0.98,0.98 0.54,0 0.98,-0.44 0.98,-0.98 z"
         style="font-size:20px;line-height:1.25"
         id="path72" />
      <path
         d="m 821.71048,438.9259 v -14 h -1.56 v 5.34 c -0.78,-0.34 -1.62,-0.54 -2.46,-0.54 -2.5,0 -3.72,2 -3.72,4.7 0,2.66 1,4.7 3.42,4.7 1.02,0 1.96,-0.46 2.76,-1.1 v 0.9 z m -1.56,-1.74 c -0.6,0.6 -1.34,1.1 -2.2,1.1 -1.82,0 -2.22,-1.76 -2.22,-3.86 0,-1.88 0.58,-3.86 2.22,-3.86 0.76,0 1.52,0.2 2.2,0.54 z"
         style="font-size:20px;line-height:1.25"
         id="path74" />
      <path
         d="m 833.31046,441.2259 v -1 h -10 v 1 z"
         style="font-size:20px;line-height:1.25"
         id="path76" />
      <path
         d="m 842.15042,434.4259 c 0,-3.06 -1.36,-4.7 -3.86,-4.7 -2.52,0 -3.88,1.64 -3.88,4.7 0,3.06 1.36,4.7 3.88,4.7 2.5,0 3.86,-1.64 3.86,-4.7 z m -1.76,0 c 0,2.5 -0.74,3.86 -2.1,3.86 -1.38,0 -2.12,-1.36 -2.12,-3.86 0,-2.5 0.74,-3.86 2.12,-3.86 1.36,0 2.1,1.36 2.1,3.86 z"
         style="font-size:20px;line-height:1.25"
         id="path78" />
    </g>
    <path
       id="path3150"
       d="M 574.01575,627.16532 H 595.2756 V 609.4488 l -10.62992,-10.62993 -10.62993,10.62993 z"
       style="fill:#afdde9;fill-opacity:1;fill-rule:evenodd;stroke:#000000;stroke-width:1px;stroke-linecap:butt;stroke-linejoin:miter;stroke-opacity:1" />
    <g
       aria-label="clk_i"
       id="text3152"
       style="line-height:0%;font-family:Iwona;-inkscape-font-specification:Iwona;text-align:center;text-anchor:middle">
      <path
         d="m 572.95569,637.9619 v -0.84 c -0.64,-0.9 -1.68,-1.44 -2.8,-1.44 -2.5,0 -4.18,1.88 -4.18,4.7 0,2.82 1.68,4.7 4.18,4.7 1.04,0 2.02,-0.52 2.6,-1.38 v -0.84 c -0.68,1.02 -1.38,1.38 -2.6,1.38 -1.44,0 -2.42,-1.54 -2.42,-3.86 0,-2.32 0.98,-3.86 2.42,-3.86 1.24,0 2.08,0.44 2.8,1.44 z"
         style="font-size:20px;line-height:1.25"
         id="path81" />
      <path
         d="m 578.81567,644.1819 v -0.6 c -0.38,0.32 -0.82,0.58 -1.32,0.58 -0.74,0 -0.88,-0.92 -0.88,-1.78 v -11.5 h -1.56 v 11.5 c 0,1.34 0.52,2.7 1.7,2.7 0.76,0 1.48,-0.38 2.06,-0.9 z"
         style="font-size:20px;line-height:1.25"
         id="path83" />
      <path
         d="m 588.55564,644.8819 -4.64,-5.34 4.48,-3.66 h -1.24 l -4.78,3.92 v -8.92 h -1.56 v 14 h 1.56 v -4.98 l 4.32,4.98 z"
         style="font-size:20px;line-height:1.25"
         id="path85" />
      <path
         d="m 598.75562,647.1819 v -1 h -10 v 1 z"
         style="font-size:20px;line-height:1.25"
         id="path87" />
      <path
         d="m 604.01558,644.1819 v -0.6 c -0.38,0.32 -0.82,0.58 -1.32,0.58 -0.74,0 -0.88,-0.92 -0.88,-1.78 v -6.5 h -1.56 v 6.5 c 0,1.34 0.52,2.7 1.7,2.7 0.76,0 1.48,-0.38 2.06,-0.9 z m -2,-11.42 c 0,-0.54 -0.44,-0.98 -0.98,-0.98 -0.54,0 -0.98,0.44 -0.98,0.98 0,0.54 0.44,0.98 0.98,0.98 0.54,0 0.98,-0.44 0.98,-0.98 z"
         style="font-size:20px;line-height:1.25"
         id="path89" />
    </g>
    <path
       id="path3174"
       d="m 768.89764,450 v 21.25984 h -17.7165 l -10.63,-10.62991 10.63,-10.62993 z"
       style="fill:#afdde9;fill-opacity:1;fill-rule:evenodd;stroke:#000000;stroke-width:1px;stroke-linecap:butt;stroke-linejoin:miter;stroke-opacity:1" />
    <g
       aria-label="ready_i"
       id="text3176"
       style="line-height:0%;font-family:Iwona;-inkscape-font-specification:Iwona">
      <path
         d="m 789.65056,459.51234 v -1.24 c -0.22,-0.08 -0.46,-0.14 -0.68,-0.14 -1.12,0 -2.02,0.78 -2.74,1.64 v -1.5 h -1.56 v 9 h 1.56 v -6.66 c 0.6,-0.7 1.36,-1.3 2.28,-1.3 0.38,0 0.78,0.08 1.14,0.2 z"
         style="font-size:20px;line-height:1.25"
         id="path92" />
      <path
         d="m 798.89054,462.97234 v -0.2 c 0,-2.82 -1.54,-4.7 -3.86,-4.7 -2.34,0 -3.88,1.88 -3.88,4.7 0,2.82 1.54,4.7 3.88,4.7 1,0 1.98,-0.32 2.8,-0.9 v -0.84 c -0.94,0.6 -1.7,0.82 -2.8,0.82 -1.7,0 -2.12,-1.62 -2.12,-3.58 z m -1.76,-0.84 h -4.22 c 0,-1.6 0.68,-3.22 2.12,-3.22 1.42,0 2.1,1.62 2.1,3.22 z"
         style="font-size:20px;line-height:1.25"
         id="path94" />
      <path
         d="m 808.53051,467.27234 v -5.6 c 0,-1.88 -1.16,-3.6 -2.9,-3.6 -1.28,0 -2.48,0.44 -3.56,1.12 v 0.62 c 0.9,-0.5 1.9,-0.82 2.94,-0.82 1.24,0 1.96,1.32 1.96,2.68 v 0.36 c -0.78,-0.34 -1.62,-0.54 -2.46,-0.54 -2.14,0 -3.72,0.98 -3.72,3 0,1.92 1.4,2.98 3.42,2.98 1.02,0 1.96,-0.46 2.76,-1.1 v 0.9 z m -1.56,-1.74 c -0.6,0.6 -1.34,1.1 -2.2,1.1 -1.34,0 -2.22,-0.82 -2.22,-2.14 0,-1.22 1,-2.16 2.22,-2.16 0.76,0 1.52,0.2 2.2,0.54 z"
         style="font-size:20px;line-height:1.25"
         id="path96" />
      <path
         d="m 818.97049,467.27234 v -14 h -1.56 v 5.34 c -0.78,-0.34 -1.62,-0.54 -2.46,-0.54 -2.5,0 -3.72,2 -3.72,4.7 0,2.66 1,4.7 3.42,4.7 1.02,0 1.96,-0.46 2.76,-1.1 v 0.9 z m -1.56,-1.74 c -0.6,0.6 -1.34,1.1 -2.2,1.1 -1.82,0 -2.22,-1.76 -2.22,-3.86 0,-1.88 0.58,-3.86 2.22,-3.86 0.76,0 1.52,0.2 2.2,0.54 z"
         style="font-size:20px;line-height:1.25"
         id="path98" />
      <path
         d="m 829.31048,468.47234 v -10.2 h -1.56 v 7.06 c -0.68,0.68 -1.52,1.22 -2.46,1.22 -0.94,0 -1.66,-0.82 -1.66,-1.78 v -6.5 h -1.56 v 6.5 c 0,1.46 1.12,2.7 2.56,2.7 1.2,0 2.26,-0.68 3.12,-1.52 v 2.52 c 0,1.34 -0.6,2.68 -1.8,2.68 -0.94,0 -1.84,-0.2 -2.7,-0.54 v 0.62 c 1.02,0.52 2.16,0.84 3.32,0.84 1.7,0 2.74,-1.76 2.74,-3.6 z"
         style="font-size:20px;line-height:1.25"
         id="path100" />
      <path
         d="m 840.91045,469.57234 v -1 h -10 v 1 z"
         style="font-size:20px;line-height:1.25"
         id="path102" />
      <path
         d="m 846.17041,466.57234 v -0.6 c -0.38,0.32 -0.82,0.58 -1.32,0.58 -0.74,0 -0.88,-0.92 -0.88,-1.78 v -6.5 h -1.56 v 6.5 c 0,1.34 0.52,2.7 1.7,2.7 0.76,0 1.48,-0.38 2.06,-0.9 z m -2,-11.42 c 0,-0.54 -0.44,-0.98 -0.98,-0.98 -0.54,0 -0.98,0.44 -0.98,0.98 0,0.54 0.44,0.98 0.98,0.98 0.54,0 0.98,-0.44 0.98,-0.98 z"
         style="font-size:20px;line-height:1.25"
         id="path104" />
    </g>
    <path
       style="fill:#afdde9;fill-opacity:1;fill-rule:evenodd;stroke:#000000;stroke-width:1px;stroke-linecap:butt;stroke-linejoin:miter;stroke-opacity:1"
       d="m 747.63776,478.34645 v 21.25984 h 17.7165 l 10.63,-10.62991 -10.63,-10.62993 z"
       id="path5931" />
    <g
       aria-label="address_o"
       id="text5933"
       style="line-height:0%;font-family:Iwona;-inkscape-font-specification:Iwona">
      <path
         d="m 791.71086,496.06296 v -5.6 c 0,-1.88 -1.16,-3.6 -2.9,-3.6 -1.28,0 -2.48,0.44 -3.56,1.12 v 0.62 c 0.9,-0.5 1.9,-0.82 2.94,-0.82 1.24,0 1.96,1.32 1.96,2.68 v 0.36 c -0.78,-0.34 -1.62,-0.54 -2.46,-0.54 -2.14,0 -3.72,0.98 -3.72,3 0,1.92 1.4,2.98 3.42,2.98 1.02,0 1.96,-0.46 2.76,-1.1 v 0.9 z m -1.56,-1.74 c -0.6,0.6 -1.34,1.1 -2.2,1.1 -1.34,0 -2.22,-0.82 -2.22,-2.14 0,-1.22 1,-2.16 2.22,-2.16 0.76,0 1.52,0.2 2.2,0.54 z"
         style="font-size:20px;line-height:1.25"
         id="path107" />
      <path
         d="m 802.15084,496.06296 v -14 h -1.56 v 5.34 c -0.78,-0.34 -1.62,-0.54 -2.46,-0.54 -2.5,0 -3.72,2 -3.72,4.7 0,2.66 1,4.7 3.42,4.7 1.02,0 1.96,-0.46 2.76,-1.1 v 0.9 z m -1.56,-1.74 c -0.6,0.6 -1.34,1.1 -2.2,1.1 -1.82,0 -2.22,-1.76 -2.22,-3.86 0,-1.88 0.58,-3.86 2.22,-3.86 0.76,0 1.52,0.2 2.2,0.54 z"
         style="font-size:20px;line-height:1.25"
         id="path109" />
      <path
         d="m 812.59083,496.06296 v -14 h -1.56 v 5.34 c -0.78,-0.34 -1.62,-0.54 -2.46,-0.54 -2.5,0 -3.72,2 -3.72,4.7 0,2.66 1,4.7 3.42,4.7 1.02,0 1.96,-0.46 2.76,-1.1 v 0.9 z m -1.56,-1.74 c -0.6,0.6 -1.34,1.1 -2.2,1.1 -1.82,0 -2.22,-1.76 -2.22,-3.86 0,-1.88 0.58,-3.86 2.22,-3.86 0.76,0 1.52,0.2 2.2,0.54 z"
         style="font-size:20px;line-height:1.25"
         id="path111" />
      <path
         d="m 820.77082,488.30296 v -1.24 c -0.22,-0.08 -0.46,-0.14 -0.68,-0.14 -1.12,0 -2.02,0.78 -2.74,1.64 v -1.5 h -1.56 v 9 h 1.56 v -6.66 c 0.6,-0.7 1.36,-1.3 2.28,-1.3 0.38,0 0.78,0.08 1.14,0.2 z"
         style="font-size:20px;line-height:1.25"
         id="path113" />
      <path
         d="m 830.0108,491.76296 v -0.2 c 0,-2.82 -1.54,-4.7 -3.86,-4.7 -2.34,0 -3.88,1.88 -3.88,4.7 0,2.82 1.54,4.7 3.88,4.7 1,0 1.98,-0.32 2.8,-0.9 v -0.84 c -0.94,0.6 -1.7,0.82 -2.8,0.82 -1.7,0 -2.12,-1.62 -2.12,-3.58 z m -1.76,-0.84 h -4.22 c 0,-1.6 0.68,-3.22 2.12,-3.22 1.42,0 2.1,1.62 2.1,3.22 z"
         style="font-size:20px;line-height:1.25"
         id="path115" />
      <path
         d="m 838.69077,493.50296 c 0,-1.58 -1.68,-2.4 -3.32,-2.8 -0.96,-0.24 -2,-0.64 -2,-1.58 0,-0.86 0.88,-1.42 1.84,-1.42 1.06,0 2.12,0.32 3,0.9 v -0.84 c -0.88,-0.58 -1.94,-0.9 -3,-0.9 -1.74,0 -3.34,1.06 -3.34,2.68 0,1.46 1.62,2.14 3.16,2.52 1.06,0.26 2.16,0.82 2.16,1.84 0,0.94 -0.96,1.52 -1.98,1.52 -1.24,0 -2.44,-0.3 -3.5,-0.9 v 0.84 c 1.06,0.6 2.26,0.9 3.5,0.9 1.8,0 3.48,-1.08 3.48,-2.76 z"
         style="font-size:20px;line-height:1.25"
         id="path117" />
      <path
         d="m 847.03073,493.50296 c 0,-1.58 -1.68,-2.4 -3.32,-2.8 -0.96,-0.24 -2,-0.64 -2,-1.58 0,-0.86 0.88,-1.42 1.84,-1.42 1.06,0 2.12,0.32 3,0.9 v -0.84 c -0.88,-0.58 -1.94,-0.9 -3,-0.9 -1.74,0 -3.34,1.06 -3.34,2.68 0,1.46 1.62,2.14 3.16,2.52 1.06,0.26 2.16,0.82 2.16,1.84 0,0.94 -0.96,1.52 -1.98,1.52 -1.24,0 -2.44,-0.3 -3.5,-0.9 v 0.84 c 1.06,0.6 2.26,0.9 3.5,0.9 1.8,0 3.48,-1.08 3.48,-2.76 z"
         style="font-size:20px;line-height:1.25"
         id="path119" />
      <path
         d="m 857.93071,498.36296 v -1 h -10 v 1 z"
         style="font-size:20px;line-height:1.25"
         id="path121" />
      <path
         d="m 866.77067,491.56296 c 0,-3.06 -1.36,-4.7 -3.86,-4.7 -2.52,0 -3.88,1.64 -3.88,4.7 0,3.06 1.36,4.7 3.88,4.7 2.5,0 3.86,-1.64 3.86,-4.7 z m -1.76,0 c 0,2.5 -0.74,3.86 -2.1,3.86 -1.38,0 -2.12,-1.36 -2.12,-3.86 0,-2.5 0.74,-3.86 2.12,-3.86 1.36,0 2.1,1.36 2.1,3.86 z"
         style="font-size:20px;line-height:1.25"
         id="path123" />
    </g>
    <path
       style="fill:#afdde9;fill-opacity:1;fill-rule:evenodd;stroke:#000000;stroke-width:1px;stroke-linecap:butt;stroke-linejoin:miter;stroke-opacity:1"
       d="m 644.88188,627.16532 h 21.25985 V 609.4488 l -10.62992,-10.62993 -10.62993,10.62993 z"
       id="path6153" />
    <g
       aria-label="reset_i"
       id="text6155"
       style="line-height:0%;font-family:Iwona;-inkscape-font-specification:Iwona;text-align:center;text-anchor:middle">
      <path
         d="m 633.42187,637.1219 v -1.24 c -0.22,-0.08 -0.46,-0.14 -0.68,-0.14 -1.12,0 -2.02,0.78 -2.74,1.64 v -1.5 h -1.56 v 9 h 1.56 v -6.66 c 0.6,-0.7 1.36,-1.3 2.28,-1.3 0.38,0 0.78,0.08 1.14,0.2 z"
         style="font-size:20px;line-height:1.25"
         id="path126" />
      <path
         d="m 642.66185,640.5819 v -0.2 c 0,-2.82 -1.54,-4.7 -3.86,-4.7 -2.34,0 -3.88,1.88 -3.88,4.7 0,2.82 1.54,4.7 3.88,4.7 1,0 1.98,-0.32 2.8,-0.9 v -0.84 c -0.94,0.6 -1.7,0.82 -2.8,0.82 -1.7,0 -2.12,-1.62 -2.12,-3.58 z m -1.76,-0.84 h -4.22 c 0,-1.6 0.68,-3.22 2.12,-3.22 1.42,0 2.1,1.62 2.1,3.22 z"
         style="font-size:20px;line-height:1.25"
         id="path128" />
      <path
         d="m 651.34182,642.3219 c 0,-1.58 -1.68,-2.4 -3.32,-2.8 -0.96,-0.24 -2,-0.64 -2,-1.58 0,-0.86 0.88,-1.42 1.84,-1.42 1.06,0 2.12,0.32 3,0.9 v -0.84 c -0.88,-0.58 -1.94,-0.9 -3,-0.9 -1.74,0 -3.34,1.06 -3.34,2.68 0,1.46 1.62,2.14 3.16,2.52 1.06,0.26 2.16,0.82 2.16,1.84 0,0.94 -0.96,1.52 -1.98,1.52 -1.24,0 -2.44,-0.3 -3.5,-0.9 v 0.84 c 1.06,0.6 2.26,0.9 3.5,0.9 1.8,0 3.48,-1.08 3.48,-2.76 z"
         style="font-size:20px;line-height:1.25"
         id="path130" />
      <path
         d="m 661.0818,640.5819 v -0.2 c 0,-2.82 -1.54,-4.7 -3.86,-4.7 -2.34,0 -3.88,1.88 -3.88,4.7 0,2.82 1.54,4.7 3.88,4.7 1,0 1.98,-0.32 2.8,-0.9 v -0.84 c -0.94,0.6 -1.7,0.82 -2.8,0.82 -1.7,0 -2.12,-1.62 -2.12,-3.58 z m -1.76,-0.84 h -4.22 c 0,-1.6 0.68,-3.22 2.12,-3.22 1.42,0 2.1,1.62 2.1,3.22 z"
         style="font-size:20px;line-height:1.25"
         id="path132" />
      <path
         d="m 667.92178,644.1819 v -0.6 c -0.32,0.32 -0.7,0.58 -1.16,0.58 -0.72,0 -0.76,-0.94 -0.76,-1.78 v -5.66 h 1.92 v -0.84 h -1.92 v -3 h -0.94 c 0,1.6 -0.92,3.1 -2.38,3.1 v 0.74 h 1.76 v 5.66 c 0,1.32 0.42,2.7 1.56,2.7 0.74,0 1.38,-0.4 1.92,-0.9 z"
         style="font-size:20px;line-height:1.25"
         id="path134" />
      <path
         d="m 678.52175,647.1819 v -1 h -10 v 1 z"
         style="font-size:20px;line-height:1.25"
         id="path136" />
      <path
         d="m 683.78171,644.1819 v -0.6 c -0.38,0.32 -0.82,0.58 -1.32,0.58 -0.74,0 -0.88,-0.92 -0.88,-1.78 v -6.5 h -1.56 v 6.5 c 0,1.34 0.52,2.7 1.7,2.7 0.76,0 1.48,-0.38 2.06,-0.9 z m -2,-11.42 c 0,-0.54 -0.44,-0.98 -0.98,-0.98 -0.54,0 -0.98,0.44 -0.98,0.98 0,0.54 0.44,0.98 0.98,0.98 0.54,0 0.98,-0.44 0.98,-0.98 z"
         style="font-size:20px;line-height:1.25"
         id="path138" />
    </g>
    <path
       style="fill:#afdde9;fill-opacity:1;fill-rule:evenodd;stroke:#000000;stroke-width:1px;stroke-linecap:butt;stroke-linejoin:miter;stroke-opacity:1"
       d="m 747.63776,506.69291 v 21.25984 h 17.7165 l 10.63,-10.62991 -10.63,-10.62992 z"
       id="path252043" />
    <g
       aria-label="write_o"
       id="text252047"
       style="line-height:0%;font-family:Iwona;-inkscape-font-specification:Iwona">
      <path
         d="m 796.15086,515.40942 h -0.88 l -2.36,7.3 -2.26,-7.3 h -1.08 l -2.36,7.3 -2.28,-7.3 h -1.46 l 2.8,9 h 1.26 l 2.26,-7 2.18,7 h 1.26 z"
         style="font-size:20px;line-height:1.25"
         id="path141" />
      <path
         d="m 803.13086,516.64942 v -1.24 c -0.22,-0.08 -0.46,-0.14 -0.68,-0.14 -1.12,0 -2.02,0.78 -2.74,1.64 v -1.5 h -1.56 v 9 h 1.56 v -6.66 c 0.6,-0.7 1.36,-1.3 2.28,-1.3 0.38,0 0.78,0.08 1.14,0.2 z"
         style="font-size:20px;line-height:1.25"
         id="path143" />
      <path
         d="m 808.79084,523.70942 v -0.6 c -0.38,0.32 -0.82,0.58 -1.32,0.58 -0.74,0 -0.88,-0.92 -0.88,-1.78 v -6.5 h -1.56 v 6.5 c 0,1.34 0.52,2.7 1.7,2.7 0.76,0 1.48,-0.38 2.06,-0.9 z m -2,-11.42 c 0,-0.54 -0.44,-0.98 -0.98,-0.98 -0.54,0 -0.98,0.44 -0.98,0.98 0,0.54 0.44,0.98 0.98,0.98 0.54,0 0.98,-0.44 0.98,-0.98 z"
         style="font-size:20px;line-height:1.25"
         id="path145" />
      <path
         d="m 815.03082,523.70942 v -0.6 c -0.32,0.32 -0.7,0.58 -1.16,0.58 -0.72,0 -0.76,-0.94 -0.76,-1.78 v -5.66 h 1.92 v -0.84 h -1.92 v -3 h -0.94 c 0,1.6 -0.92,3.1 -2.38,3.1 v 0.74 h 1.76 v 5.66 c 0,1.32 0.42,2.7 1.56,2.7 0.74,0 1.38,-0.4 1.92,-0.9 z"
         style="font-size:20px;line-height:1.25"
         id="path147" />
      <path
         d="m 824.47079,520.10942 v -0.2 c 0,-2.82 -1.54,-4.7 -3.86,-4.7 -2.34,0 -3.88,1.88 -3.88,4.7 0,2.82 1.54,4.7 3.88,4.7 1,0 1.98,-0.32 2.8,-0.9 v -0.84 c -0.94,0.6 -1.7,0.82 -2.8,0.82 -1.7,0 -2.12,-1.62 -2.12,-3.58 z m -1.76,-0.84 h -4.22 c 0,-1.6 0.68,-3.22 2.12,-3.22 1.42,0 2.1,1.62 2.1,3.22 z"
         style="font-size:20px;line-height:1.25"
         id="path149" />
      <path
         d="m 835.47076,526.70942 v -1 h -10 v 1 z"
         style="font-size:20px;line-height:1.25"
         id="path151" />
      <path
         d="m 844.31073,519.90942 c 0,-3.06 -1.36,-4.7 -3.86,-4.7 -2.52,0 -3.88,1.64 -3.88,4.7 0,3.06 1.36,4.7 3.88,4.7 2.5,0 3.86,-1.64 3.86,-4.7 z m -1.76,0 c 0,2.5 -0.74,3.86 -2.1,3.86 -1.38,0 -2.12,-1.36 -2.12,-3.86 0,-2.5 0.74,-3.86 2.12,-3.86 1.36,0 2.1,1.36 2.1,3.86 z"
         style="font-size:20px;line-height:1.25"
         id="path153" />
    </g>
    <path
       style="fill:#afdde9;fill-opacity:1;fill-rule:evenodd;stroke:#000000;stroke-width:1px;stroke-linecap:butt;stroke-linejoin:miter;stroke-opacity:1"
       d="m 747.63776,535.03937 v 21.25984 h 17.7165 l 10.63,-10.62991 -10.63,-10.62993 z"
       id="path252049" />
    <g
       aria-label="wdata_o"
       id="text252053"
       style="line-height:0%;font-family:Iwona;-inkscape-font-specification:Iwona">
      <path
         d="m 796.15086,543.75586 h -0.88 l -2.36,7.3 -2.26,-7.3 h -1.08 l -2.36,7.3 -2.28,-7.3 h -1.46 l 2.8,9 h 1.26 l 2.26,-7 2.18,7 h 1.26 z"
         style="font-size:20px;line-height:1.25"
         id="path156" />
      <path
         d="m 805.39086,552.75586 v -14 h -1.56 v 5.34 c -0.78,-0.34 -1.62,-0.54 -2.46,-0.54 -2.5,0 -3.72,2 -3.72,4.7 0,2.66 1,4.7 3.42,4.7 1.02,0 1.96,-0.46 2.76,-1.1 v 0.9 z m -1.56,-1.74 c -0.6,0.6 -1.34,1.1 -2.2,1.1 -1.82,0 -2.22,-1.76 -2.22,-3.86 0,-1.88 0.58,-3.86 2.22,-3.86 0.76,0 1.52,0.2 2.2,0.54 z"
         style="font-size:20px;line-height:1.25"
         id="path158" />
      <path
         d="m 815.63084,552.75586 v -5.6 c 0,-1.88 -1.16,-3.6 -2.9,-3.6 -1.28,0 -2.48,0.44 -3.56,1.12 v 0.62 c 0.9,-0.5 1.9,-0.82 2.94,-0.82 1.24,0 1.96,1.32 1.96,2.68 v 0.36 c -0.78,-0.34 -1.62,-0.54 -2.46,-0.54 -2.14,0 -3.72,0.98 -3.72,3 0,1.92 1.4,2.98 3.42,2.98 1.02,0 1.96,-0.46 2.76,-1.1 v 0.9 z m -1.56,-1.74 c -0.6,0.6 -1.34,1.1 -2.2,1.1 -1.34,0 -2.22,-0.82 -2.22,-2.14 0,-1.22 1,-2.16 2.22,-2.16 0.76,0 1.52,0.2 2.2,0.54 z"
         style="font-size:20px;line-height:1.25"
         id="path160" />
      <path
         d="m 823.07083,552.05586 v -0.6 c -0.32,0.32 -0.7,0.58 -1.16,0.58 -0.72,0 -0.76,-0.94 -0.76,-1.78 v -5.66 h 1.92 v -0.84 h -1.92 v -3 h -0.94 c 0,1.6 -0.92,3.1 -2.38,3.1 v 0.74 h 1.76 v 5.66 c 0,1.32 0.42,2.7 1.56,2.7 0.74,0 1.38,-0.4 1.92,-0.9 z"
         style="font-size:20px;line-height:1.25"
         id="path162" />
      <path
         d="m 832.3108,552.75586 v -5.6 c 0,-1.88 -1.16,-3.6 -2.9,-3.6 -1.28,0 -2.48,0.44 -3.56,1.12 v 0.62 c 0.9,-0.5 1.9,-0.82 2.94,-0.82 1.24,0 1.96,1.32 1.96,2.68 v 0.36 c -0.78,-0.34 -1.62,-0.54 -2.46,-0.54 -2.14,0 -3.72,0.98 -3.72,3 0,1.92 1.4,2.98 3.42,2.98 1.02,0 1.96,-0.46 2.76,-1.1 v 0.9 z m -1.56,-1.74 c -0.6,0.6 -1.34,1.1 -2.2,1.1 -1.34,0 -2.22,-0.82 -2.22,-2.14 0,-1.22 1,-2.16 2.22,-2.16 0.76,0 1.52,0.2 2.2,0.54 z"
         style="font-size:20px;line-height:1.25"
         id="path164" />
      <path
         d="m 843.91078,555.05586 v -1 h -10 v 1 z"
         style="font-size:20px;line-height:1.25"
         id="path166" />
      <path
         d="m 852.75074,548.25586 c 0,-3.06 -1.36,-4.7 -3.86,-4.7 -2.52,0 -3.88,1.64 -3.88,4.7 0,3.06 1.36,4.7 3.88,4.7 2.5,0 3.86,-1.64 3.86,-4.7 z m -1.76,0 c 0,2.5 -0.74,3.86 -2.1,3.86 -1.38,0 -2.12,-1.36 -2.12,-3.86 0,-2.5 0.74,-3.86 2.12,-3.86 1.36,0 2.1,1.36 2.1,3.86 z"
         style="font-size:20px;line-height:1.25"
         id="path168" />
    </g>
    <path
       id="path252055"
       d="m 768.89764,563.38582 v 21.25984 h -17.7165 l -10.63,-10.62991 10.63,-10.62992 z"
       style="fill:#afdde9;fill-opacity:1;fill-rule:evenodd;stroke:#000000;stroke-width:1px;stroke-linecap:butt;stroke-linejoin:miter;stroke-opacity:1" />
    <g
       aria-label="rdata_i"
       id="text252059"
       style="line-height:0%;font-family:Iwona;-inkscape-font-specification:Iwona">
      <path
         d="m 789.65056,572.8982 v -1.24 c -0.22,-0.08 -0.46,-0.14 -0.68,-0.14 -1.12,0 -2.02,0.78 -2.74,1.64 v -1.5 h -1.56 v 9 h 1.56 v -6.66 c 0.6,-0.7 1.36,-1.3 2.28,-1.3 0.38,0 0.78,0.08 1.14,0.2 z"
         style="font-size:20px;line-height:1.25"
         id="path171" />
      <path
         d="m 798.89054,580.6582 v -14 h -1.56 v 5.34 c -0.78,-0.34 -1.62,-0.54 -2.46,-0.54 -2.5,0 -3.72,2 -3.72,4.7 0,2.66 1,4.7 3.42,4.7 1.02,0 1.96,-0.46 2.76,-1.1 v 0.9 z m -1.56,-1.74 c -0.6,0.6 -1.34,1.1 -2.2,1.1 -1.82,0 -2.22,-1.76 -2.22,-3.86 0,-1.88 0.58,-3.86 2.22,-3.86 0.76,0 1.52,0.2 2.2,0.54 z"
         style="font-size:20px;line-height:1.25"
         id="path173" />
      <path
         d="m 809.13052,580.6582 v -5.6 c 0,-1.88 -1.16,-3.6 -2.9,-3.6 -1.28,0 -2.48,0.44 -3.56,1.12 v 0.62 c 0.9,-0.5 1.9,-0.82 2.94,-0.82 1.24,0 1.96,1.32 1.96,2.68 v 0.36 c -0.78,-0.34 -1.62,-0.54 -2.46,-0.54 -2.14,0 -3.72,0.98 -3.72,3 0,1.92 1.4,2.98 3.42,2.98 1.02,0 1.96,-0.46 2.76,-1.1 v 0.9 z m -1.56,-1.74 c -0.6,0.6 -1.34,1.1 -2.2,1.1 -1.34,0 -2.22,-0.82 -2.22,-2.14 0,-1.22 1,-2.16 2.22,-2.16 0.76,0 1.52,0.2 2.2,0.54 z"
         style="font-size:20px;line-height:1.25"
         id="path175" />
      <path
         d="m 816.57051,579.9582 v -0.6 c -0.32,0.32 -0.7,0.58 -1.16,0.58 -0.72,0 -0.76,-0.94 -0.76,-1.78 v -5.66 h 1.92 v -0.84 h -1.92 v -3 h -0.94 c 0,1.6 -0.92,3.1 -2.38,3.1 v 0.74 h 1.76 v 5.66 c 0,1.32 0.42,2.7 1.56,2.7 0.74,0 1.38,-0.4 1.92,-0.9 z"
         style="font-size:20px;line-height:1.25"
         id="path177" />
      <path
         d="m 825.81048,580.6582 v -5.6 c 0,-1.88 -1.16,-3.6 -2.9,-3.6 -1.28,0 -2.48,0.44 -3.56,1.12 v 0.62 c 0.9,-0.5 1.9,-0.82 2.94,-0.82 1.24,0 1.96,1.32 1.96,2.68 v 0.36 c -0.78,-0.34 -1.62,-0.54 -2.46,-0.54 -2.14,0 -3.72,0.98 -3.72,3 0,1.92 1.4,2.98 3.42,2.98 1.02,0 1.96,-0.46 2.76,-1.1 v 0.9 z m -1.56,-1.74 c -0.6,0.6 -1.34,1.1 -2.2,1.1 -1.34,0 -2.22,-0.82 -2.22,-2.14 0,-1.22 1,-2.16 2.22,-2.16 0.76,0 1.52,0.2 2.2,0.54 z"
         style="font-size:20px;line-height:1.25"
         id="path179" />
      <path
         d="m 837.41046,582.9582 v -1 h -10 v 1 z"
         style="font-size:20px;line-height:1.25"
         id="path181" />
      <path
         d="m 842.67042,579.9582 v -0.6 c -0.38,0.32 -0.82,0.58 -1.32,0.58 -0.74,0 -0.88,-0.92 -0.88,-1.78 v -6.5 h -1.56 v 6.5 c 0,1.34 0.52,2.7 1.7,2.7 0.76,0 1.48,-0.38 2.06,-0.9 z m -2,-11.42 c 0,-0.54 -0.44,-0.98 -0.98,-0.98 -0.54,0 -0.98,0.44 -0.98,0.98 0,0.54 0.44,0.98 0.98,0.98 0.54,0 0.98,-0.44 0.98,-0.98 z"
         style="font-size:20px;line-height:1.25"
         id="path183" />
    </g>
    <path
       id="path252061"
       d="m 768.89764,591.73228 v 21.25984 h -17.7165 l -10.63,-10.62991 10.63,-10.62993 z"
       style="fill:#afdde9;fill-opacity:1;fill-rule:evenodd;stroke:#000000;stroke-width:1px;stroke-linecap:butt;stroke-linejoin:miter;stroke-opacity:1" />
    <g
       aria-label="irq_i"
       id="text252065"
       style="line-height:0%;font-family:Iwona;-inkscape-font-specification:Iwona">
      <path
         d="m 788.33056,608.30464 v -0.6 c -0.38,0.32 -0.82,0.58 -1.32,0.58 -0.74,0 -0.88,-0.92 -0.88,-1.78 v -6.5 h -1.56 v 6.5 c 0,1.34 0.52,2.7 1.7,2.7 0.76,0 1.48,-0.38 2.06,-0.9 z m -2,-11.42 c 0,-0.54 -0.44,-0.98 -0.98,-0.98 -0.54,0 -0.98,0.44 -0.98,0.98 0,0.54 0.44,0.98 0.98,0.98 0.54,0 0.98,-0.44 0.98,-0.98 z"
         style="font-size:20px;line-height:1.25"
         id="path186" />
      <path
         d="m 795.31054,601.24464 v -1.24 c -0.22,-0.08 -0.46,-0.14 -0.68,-0.14 -1.12,0 -2.02,0.78 -2.74,1.64 v -1.5 h -1.56 v 9 h 1.56 v -6.66 c 0.6,-0.7 1.36,-1.3 2.28,-1.3 0.38,0 0.78,0.08 1.14,0.2 z"
         style="font-size:20px;line-height:1.25"
         id="path188" />
      <path
         d="m 804.55052,613.60464 v -13.6 h -1.56 v 0.34 c -0.78,-0.34 -1.62,-0.54 -2.46,-0.54 -2.5,0 -3.72,2 -3.72,4.7 0,2.66 1,4.7 3.42,4.7 1.02,0 1.96,-0.46 2.76,-1.1 v 5.5 z m -1.56,-6.34 c -0.6,0.6 -1.34,1.1 -2.2,1.1 -1.82,0 -2.22,-1.76 -2.22,-3.86 0,-1.88 0.58,-3.86 2.22,-3.86 0.76,0 1.52,0.2 2.2,0.54 z"
         style="font-size:20px;line-height:1.25"
         id="path190" />
      <path
         d="m 816.15051,611.30464 v -1 h -10 v 1 z"
         style="font-size:20px;line-height:1.25"
         id="path192" />
      <path
         d="m 821.41047,608.30464 v -0.6 c -0.38,0.32 -0.82,0.58 -1.32,0.58 -0.74,0 -0.88,-0.92 -0.88,-1.78 v -6.5 h -1.56 v 6.5 c 0,1.34 0.52,2.7 1.7,2.7 0.76,0 1.48,-0.38 2.06,-0.9 z m -2,-11.42 c 0,-0.54 -0.44,-0.98 -0.98,-0.98 -0.54,0 -0.98,0.44 -0.98,0.98 0,0.54 0.44,0.98 0.98,0.98 0.54,0 0.98,-0.44 0.98,-0.98 z"
         style="font-size:20px;line-height:1.25"
         id="path194" />
    </g>
  </g>
</svg>
