<?xml version="1.0" encoding="UTF-8" standalone="no"?>
<!-- Created with Inkscape (http://www.inkscape.org/) -->

<svg
   width="223.57668mm"
   height="94.849709mm"
   id="svg4482"
   version="1.1"
   viewBox="0 0 792.20081 336.08165"
   xmlns="http://www.w3.org/2000/svg"
   xmlns:svg="http://www.w3.org/2000/svg"
   xmlns:rdf="http://www.w3.org/1999/02/22-rdf-syntax-ns#"
   xmlns:cc="http://creativecommons.org/ns#"
   xmlns:dc="http://purl.org/dc/elements/1.1/">
  <defs
     id="defs4484" />
  <metadata
     id="metadata4488">
    <rdf:RDF>
      <cc:Work
         rdf:about="">
        <dc:format>image/svg+xml</dc:format>
        <dc:type
           rdf:resource="http://purl.org/dc/dcmitype/StillImage" />
        <dc:title />
      </cc:Work>
    </rdf:RDF>
  </metadata>
  <g
     id="layer1"
     transform="translate(-207.01181,-7.6191449)">
    <path
       id="rect3515"
       style="fill:#ffcc00"
       d="m 460.62994,46.062988 h 7.08662 V 336.61417 h -7.08662 z" />
    <path
       id="rect3517"
       style="fill:#c6afe9"
       d="m 425.19687,46.062988 h 7.08661 V 336.61417 h -7.08661 z" />
    <path
       id="rect3519"
       style="fill:#ffcc00"
       d="m 531.49609,46.062988 h 7.08662 V 336.61417 h -7.08662 z" />
    <path
       id="rect3521"
       style="fill:#c6afe9"
       d="m 496.06299,46.062988 h 7.08661 V 336.61417 h -7.08661 z" />
    <path
       id="rect3523"
       style="fill:#ffcc00"
       d="m 602.36224,46.062988 h 7.08662 V 336.61417 h -7.08662 z" />
    <path
       id="rect3525"
       style="fill:#c6afe9"
       d="m 566.92914,46.062988 h 7.08661 V 336.61417 h -7.08661 z" />
    <path
       id="rect3527"
       style="fill:#ffcc00"
       d="m 673.22839,46.062988 h 7.08662 V 336.61417 h -7.08662 z" />
    <path
       id="rect3529"
       style="fill:#c6afe9"
       d="m 637.79529,46.062988 h 7.08661 V 336.61417 h -7.08661 z" />
    <path
       id="rect3531"
       style="fill:#ffcc00"
       d="m 744.09454,46.062988 h 7.08662 V 336.61417 h -7.08662 z" />
    <path
       id="rect3533"
       style="fill:#c6afe9"
       d="m 708.66144,46.062988 h 7.08661 V 336.61417 h -7.08661 z" />
    <path
       id="rect3535"
       style="fill:#ffcc00"
       d="m 814.96069,46.062988 h 7.08662 V 336.61417 h -7.08662 z" />
    <path
       id="rect3537"
       style="fill:#c6afe9"
       d="m 779.52759,46.062988 h 7.08661 V 336.61417 h -7.08661 z" />
    <path
       id="rect3539"
       style="fill:#ffcc00"
       d="m 885.82678,46.062988 h 7.08662 V 336.61417 h -7.08662 z" />
    <path
       id="rect3541"
       style="fill:#c6afe9"
       d="m 850.39368,46.062988 h 7.08661 V 336.61417 h -7.08661 z" />
    <path
       id="rect3397"
       style="fill:#ffcc00"
       d="m 389.76379,46.062988 h 7.08662 V 336.61417 h -7.08662 z" />
    <path
       id="rect3395"
       style="fill:#c6afe9"
       d="m 354.33072,46.062988 h 7.08661 V 336.61417 h -7.08661 z" />
    <path
       id="rect3364"
       style="fill:#aaccff"
       d="M 892.91339,77.952759 H 992.126 v 7.086611 h -99.21261 z" />
    <path
       id="rect3362"
       style="fill:#aaccff"
       d="M 248.03149,77.952759 H 354.3307 V 85.03937 H 248.03149 Z" />
    <path
       style="fill:none;stroke:#000000;stroke-width:2;stroke-linecap:butt;stroke-linejoin:miter;stroke-miterlimit:4;stroke-dasharray:none;stroke-opacity:1"
       d="m 248.0315,85.03937 h 106.29921 l 7.08661,-35.433071 h 28.34646 l 7.08661,35.433071 h 28.34646 l 7.08661,-35.433071 h 28.34646 l 7.08662,35.433071 h 28.34645 l 7.08662,-35.433071 h 28.34645 l 7.08662,35.433071 h 28.34645 l 7.08662,-35.433071 h 28.34645 l 7.08662,35.433071 h 28.34646 l 7.08661,-35.433071 h 28.34646 l 7.08661,35.433071 h 28.34646 l 7.08661,-35.433071 h 28.34646 l 7.08661,35.433071 h 28.34646 l 7.08661,-35.433071 h 28.34646 l 7.08661,35.433071 h 28.34646 l 7.08661,-35.433071 h 28.34646 l 7.08662,35.433071 h 99.21259"
       id="path3346" />
    <g
       aria-label="polarité = 0"
       id="text3350"
       style="line-height:0%;font-family:Iwona;-inkscape-font-specification:Iwona;letter-spacing:0px;word-spacing:0px;fill:#0088aa">
      <path
         d="m 221.83842,62.82283 c 0,-2.66 -1,-4.7 -3.42,-4.7 -1.02,0 -1.96,0.46 -2.76,1.1 v -0.9 h -1.56 v 13.6 h 1.56 v -4.94 c 0.78,0.34 1.62,0.54 2.46,0.54 2.5,0 3.72,-2 3.72,-4.7 z m -1.76,0 c 0,1.88 -0.58,3.86 -2.22,3.86 -0.76,0 -1.52,-0.2 -2.2,-0.54 v -6.08 c 0.6,-0.6 1.34,-1.1 2.2,-1.1 1.82,0 2.22,1.76 2.22,3.86 z"
         style="font-size:20px;line-height:1.25"
         id="path128" />
      <path
         d="m 231.77839,62.82283 c 0,-3.06 -1.36,-4.7 -3.86,-4.7 -2.52,0 -3.88,1.64 -3.88,4.7 0,3.06 1.36,4.7 3.88,4.7 2.5,0 3.86,-1.64 3.86,-4.7 z m -1.76,0 c 0,2.5 -0.74,3.86 -2.1,3.86 -1.38,0 -2.12,-1.36 -2.12,-3.86 0,-2.5 0.74,-3.86 2.12,-3.86 1.36,0 2.1,1.36 2.1,3.86 z"
         style="font-size:20px;line-height:1.25"
         id="path130" />
      <path
         d="m 238.23838,66.62283 v -0.6 c -0.38,0.32 -0.82,0.58 -1.32,0.58 -0.74,0 -0.88,-0.92 -0.88,-1.78 v -11.5 h -1.56 v 11.5 c 0,1.34 0.52,2.7 1.7,2.7 0.76,0 1.48,-0.38 2.06,-0.9 z"
         style="font-size:20px;line-height:1.25"
         id="path132" />
      <path
         d="m 247.27834,67.32283 v -5.6 c 0,-1.88 -1.16,-3.6 -2.9,-3.6 -1.28,0 -2.48,0.44 -3.56,1.12 v 0.62 c 0.9,-0.5 1.9,-0.82 2.94,-0.82 1.24,0 1.96,1.32 1.96,2.68 v 0.36 c -0.78,-0.34 -1.62,-0.54 -2.46,-0.54 -2.14,0 -3.72,0.98 -3.72,3 0,1.92 1.4,2.98 3.42,2.98 1.02,0 1.96,-0.46 2.76,-1.1 v 0.9 z m -1.56,-1.74 c -0.6,0.6 -1.34,1.1 -2.2,1.1 -1.34,0 -2.22,-0.82 -2.22,-2.14 0,-1.22 1,-2.16 2.22,-2.16 0.76,0 1.52,0.2 2.2,0.54 z"
         style="font-size:20px;line-height:1.25"
         id="path134" />
      <path
         d="m 255.45833,59.56283 v -1.24 c -0.22,-0.08 -0.46,-0.14 -0.68,-0.14 -1.12,0 -2.02,0.78 -2.74,1.64 v -1.5 h -1.56 v 9 h 1.56 v -6.66 c 0.6,-0.7 1.36,-1.3 2.28,-1.3 0.38,0 0.78,0.08 1.14,0.2 z"
         style="font-size:20px;line-height:1.25"
         id="path136" />
      <path
         d="m 261.11831,66.62283 v -0.6 c -0.38,0.32 -0.82,0.58 -1.32,0.58 -0.74,0 -0.88,-0.92 -0.88,-1.78 v -6.5 h -1.56 v 6.5 c 0,1.34 0.52,2.7 1.7,2.7 0.76,0 1.48,-0.38 2.06,-0.9 z m -2,-11.42 c 0,-0.54 -0.44,-0.98 -0.98,-0.98 -0.54,0 -0.98,0.44 -0.98,0.98 0,0.54 0.44,0.98 0.98,0.98 0.54,0 0.98,-0.44 0.98,-0.98 z"
         style="font-size:20px;line-height:1.25"
         id="path138" />
      <path
         d="m 267.35829,66.62283 v -0.6 c -0.32,0.32 -0.7,0.58 -1.16,0.58 -0.72,0 -0.76,-0.94 -0.76,-1.78 v -5.66 h 1.92 v -0.84 h -1.92 v -3 h -0.94 c 0,1.6 -0.92,3.1 -2.38,3.1 v 0.74 h 1.76 v 5.66 c 0,1.32 0.42,2.7 1.56,2.7 0.74,0 1.38,-0.4 1.92,-0.9 z"
         style="font-size:20px;line-height:1.25"
         id="path140" />
      <path
         d="m 276.79826,63.02283 v -0.2 c 0,-2.82 -1.54,-4.7 -3.86,-4.7 -2.34,0 -3.88,1.88 -3.88,4.7 0,2.82 1.54,4.7 3.88,4.7 1,0 1.98,-0.32 2.8,-0.9 v -0.84 c -0.94,0.6 -1.7,0.82 -2.8,0.82 -1.7,0 -2.12,-1.62 -2.12,-3.58 z m -1.76,-0.84 h -4.22 c 0,-1.6 0.68,-3.22 2.12,-3.22 1.42,0 2.1,1.62 2.1,3.22 z m 0.06,-8.86 h -1.8 c 0,1.34 -0.42,2.66 -1.2,3.74 h 0.84 c 1.06,-1.06 2.16,-2.24 2.16,-3.74 z"
         style="font-size:20px;line-height:1.25"
         id="path142" />
      <path
         d="m 298.5182,60.82283 v -1 h -12.56 v 1 z m 0,4 v -1 h -12.56 v 1 z"
         style="font-size:20px;line-height:1.25"
         id="path144" />
      <path
         d="m 316.31816,60.42283 c 0,-4.74 -1.46,-7.1 -4.38,-7.1 -2.92,0 -4.38,2.36 -4.38,7.1 0,4.74 1.46,7.1 4.38,7.1 2.92,0 4.38,-2.36 4.38,-7.1 z m -1.76,0 c 0,4.18 -0.88,6.26 -2.62,6.26 -1.74,0 -2.62,-2.08 -2.62,-6.26 0,-4.18 0.88,-6.26 2.62,-6.26 1.74,0 2.62,2.08 2.62,6.26 z"
         style="font-size:20px;line-height:1.25"
         id="path146" />
    </g>
    <path
       id="path3385"
       d="m 248.0315,226.77165 h 70.86614 l 7.08661,35.43307 h 63.77953 l 7.08661,-35.43307 h 63.77953 l 7.08661,35.43307 h 63.77953 l 7.08662,-35.43307 h 63.77953 l 7.08662,35.43307 h 63.77952 l 7.08662,-35.43307 h 63.77952 l 7.08662,35.43307 h 63.77952 l 7.08662,-35.43307 h 63.77952 l 7.08661,35.43307 h 99.2126"
       style="fill:none;stroke:#000000;stroke-width:2;stroke-linecap:butt;stroke-linejoin:miter;stroke-miterlimit:4;stroke-dasharray:none;stroke-opacity:1" />
    <path
       style="fill:none;stroke:#000000;stroke-width:2;stroke-linecap:butt;stroke-linejoin:miter;stroke-miterlimit:4;stroke-dasharray:none;stroke-opacity:1"
       d="m 248.0315,262.20472 h 70.86614 l 7.08661,-35.43307 h 63.77953 l 7.08661,35.43307 h 63.77953 l 7.08661,-35.43307 h 63.77953 l 7.08662,35.43307 h 63.77953 l 7.08662,-35.43307 h 63.77952 l 7.08662,35.43307 h 63.77952 l 7.08662,-35.43307 h 63.77952 l 7.08662,35.43307 h 63.77952 l 7.08661,-35.43307 h 99.2126"
       id="path3393" />
    <g
       aria-label="d7"
       id="text3411"
       style="line-height:0%;font-family:Iwona;-inkscape-font-specification:Iwona;letter-spacing:0px;word-spacing:0px">
      <path
         d="m 336.59956,248.03149 v -11.2 h -1.248 v 4.272 c -0.624,-0.272 -1.296,-0.432 -1.968,-0.432 -2,0 -2.976,1.6 -2.976,3.76 0,2.128 0.8,3.76 2.736,3.76 0.816,0 1.568,-0.368 2.208,-0.88 v 0.72 z m -1.248,-1.392 c -0.48,0.48 -1.072,0.88 -1.76,0.88 -1.456,0 -1.776,-1.408 -1.776,-3.088 0,-1.504 0.464,-3.088 1.776,-3.088 0.608,0 1.216,0.16 1.76,0.432 z"
         style="font-size:16px;line-height:1.25"
         id="path149" />
      <path
         d="m 342.81962,244.409 v -0.3536 h -4.42007 v 0.6448 H 341.79 l -3.06804,6.53129 h 0.89441 z"
         style="font-size:65.0009%;baseline-shift:sub"
         id="path151" />
    </g>
    <g
       aria-label="d6"
       id="text3417"
       style="line-height:0%;font-family:Iwona;-inkscape-font-specification:Iwona;letter-spacing:0px;word-spacing:0px">
      <path
         d="m 407.46571,248.03149 v -11.2 h -1.248 v 4.272 c -0.624,-0.272 -1.296,-0.432 -1.968,-0.432 -2,0 -2.976,1.6 -2.976,3.76 0,2.128 0.8,3.76 2.736,3.76 0.816,0 1.568,-0.368 2.208,-0.88 v 0.72 z m -1.248,-1.392 c -0.48,0.48 -1.072,0.88 -1.76,0.88 -1.456,0 -1.776,-1.408 -1.776,-3.088 0,-1.504 0.464,-3.088 1.776,-3.088 0.608,0 1.216,0.16 1.76,0.432 z"
         style="font-size:16px;line-height:1.25"
         id="path154" />
      <path
         d="m 413.68577,248.89146 c 0,-1.49762 -0.59281,-2.44403 -1.98643,-2.44403 -0.60321,0 -1.16482,0.2808 -1.51842,0.75921 0,-1.36242 0.3432,-2.81844 1.51842,-2.81844 0.53041,0 1.05041,0.1768 1.46642,0.50961 V 244.461 c -0.41601,-0.3328 -0.93601,-0.50961 -1.46642,-0.50961 -1.63282,0 -2.43364,1.85123 -2.43364,3.69205 0,2.57924 0.66561,3.69206 2.21523,3.69206 1.32082,0 2.20484,-0.97762 2.20484,-2.44404 z m -0.91522,0 c 0,1.20642 -0.52,2.00723 -1.28962,2.00723 -1.45602,0 -1.30001,-1.57042 -1.30001,-3.25525 0.3536,-0.4784 0.91521,-0.75921 1.51842,-0.75921 0.83201,0 1.07121,1.04002 1.07121,2.00723 z"
         style="font-size:65.0009%;baseline-shift:sub"
         id="path156" />
    </g>
    <g
       aria-label="d5"
       id="text3423"
       style="line-height:0%;font-family:Iwona;-inkscape-font-specification:Iwona;letter-spacing:0px;word-spacing:0px">
      <path
         d="m 478.33186,248.03149 v -11.2 h -1.248 v 4.272 c -0.624,-0.272 -1.296,-0.432 -1.968,-0.432 -2,0 -2.976,1.6 -2.976,3.76 0,2.128 0.8,3.76 2.736,3.76 0.816,0 1.568,-0.368 2.208,-0.88 v 0.72 z m -1.248,-1.392 c -0.48,0.48 -1.072,0.88 -1.76,0.88 -1.456,0 -1.776,-1.408 -1.776,-3.088 0,-1.504 0.464,-3.088 1.776,-3.088 0.608,0 1.216,0.16 1.76,0.432 z"
         style="font-size:16px;line-height:1.25"
         id="path159" />
      <path
         d="m 484.55192,248.89146 c 0,-1.46642 -0.88402,-2.44403 -2.20484,-2.44403 -0.6032,0 -1.16481,0.2288 -1.60162,0.61361 l 0.104,-2.36084 h 3.49445 v -0.6448 h -3.90005 l -0.156,3.58804 0.4368,0.0208 c 0.39521,-0.4888 0.98802,-0.78001 1.62242,-0.78001 0.76962,0 1.28962,0.80082 1.28962,2.00723 0,1.20642 -0.52,2.00723 -1.28962,2.00723 -0.80081,0 -1.58082,-0.26 -2.21523,-0.74881 v 0.43681 c 0.63441,0.4888 1.41442,0.74881 2.21523,0.74881 1.32082,0 2.20484,-0.97762 2.20484,-2.44404 z"
         style="font-size:65.0009%;baseline-shift:sub"
         id="path161" />
    </g>
    <g
       aria-label="d4"
       id="text3429"
       style="line-height:0%;font-family:Iwona;-inkscape-font-specification:Iwona;letter-spacing:0px;word-spacing:0px">
      <path
         d="m 549.19798,248.03149 v -11.2 h -1.248 v 4.272 c -0.624,-0.272 -1.296,-0.432 -1.968,-0.432 -2,0 -2.976,1.6 -2.976,3.76 0,2.128 0.8,3.76 2.736,3.76 0.816,0 1.568,-0.368 2.208,-0.88 v 0.72 z m -1.248,-1.392 c -0.48,0.48 -1.072,0.88 -1.76,0.88 -1.456,0 -1.776,-1.408 -1.776,-3.088 0,-1.504 0.464,-3.088 1.776,-3.088 0.608,0 1.216,0.16 1.76,0.432 z"
         style="font-size:16px;line-height:1.25"
         id="path164" />
      <path
         d="m 555.41803,248.73546 v -0.47841 h -0.78001 v -4.20165 h -0.81121 l -2.82884,4.20165 v 0.47841 h 2.82884 v 2.49603 h 0.81121 v -2.49603 z m -1.59122,-0.47841 h -2.29843 l 2.29843,-3.42164 z"
         style="font-size:65.0009%;baseline-shift:sub"
         id="path166" />
    </g>
    <g
       aria-label="d3"
       id="text3435"
       style="line-height:0%;font-family:Iwona;-inkscape-font-specification:Iwona;letter-spacing:0px;word-spacing:0px">
      <path
         d="m 620.06413,248.03149 v -11.2 h -1.248 v 4.272 c -0.624,-0.272 -1.296,-0.432 -1.968,-0.432 -2,0 -2.976,1.6 -2.976,3.76 0,2.128 0.8,3.76 2.736,3.76 0.816,0 1.568,-0.368 2.208,-0.88 v 0.72 z m -1.248,-1.392 c -0.48,0.48 -1.072,0.88 -1.76,0.88 -1.456,0 -1.776,-1.408 -1.776,-3.088 0,-1.504 0.464,-3.088 1.776,-3.088 0.608,0 1.216,0.16 1.76,0.432 z"
         style="font-size:16px;line-height:1.25"
         id="path169" />
      <path
         d="m 626.28418,249.25547 c 0,-0.91522 -0.6448,-1.70563 -1.53922,-1.97603 0.79041,-0.2288 1.27922,-0.82161 1.27922,-1.61202 0,-1.02962 -0.83201,-1.71603 -2.08003,-1.71603 -0.67601,0 -1.33122,0.22881 -1.86162,0.64481 v 0.43681 c 0.5304,-0.41601 1.18561,-0.64481 1.86162,-0.64481 0.75921,0 1.26882,0.50961 1.26882,1.27922 0,1.23761 -0.57201,1.56002 -1.87203,1.56002 v 0.3848 c 1.40402,0 2.02803,0.33281 2.02803,1.64323 0,0.90481 -0.58241,1.64322 -1.28962,1.64322 -0.79041,0 -1.56002,-0.2288 -2.21523,-0.64481 v 0.43681 c 0.65521,0.416 1.42482,0.64481 2.21523,0.64481 1.20642,0 2.20483,-0.93602 2.20483,-2.08003 z"
         style="font-size:65.0009%;baseline-shift:sub"
         id="path171" />
    </g>
    <g
       aria-label="d2"
       id="text3441"
       style="line-height:0%;font-family:Iwona;-inkscape-font-specification:Iwona;letter-spacing:0px;word-spacing:0px">
      <path
         d="m 690.93028,248.03149 v -11.2 h -1.248 v 4.272 c -0.624,-0.272 -1.296,-0.432 -1.968,-0.432 -2,0 -2.976,1.6 -2.976,3.76 0,2.128 0.8,3.76 2.736,3.76 0.816,0 1.568,-0.368 2.208,-0.88 v 0.72 z m -1.248,-1.392 c -0.48,0.48 -1.072,0.88 -1.76,0.88 -1.456,0 -1.776,-1.408 -1.776,-3.088 0,-1.504 0.464,-3.088 1.776,-3.088 0.608,0 1.216,0.16 1.76,0.432 z"
         style="font-size:16px;line-height:1.25"
         id="path174" />
      <path
         d="m 697.15033,251.23149 v -0.6448 h -3.67125 l 1.91363,-1.89283 c 0.85281,-0.85281 1.65362,-1.85123 1.65362,-3.05764 0,-1.01922 -1.00881,-1.68483 -2.10083,-1.68483 -0.82161,0 -1.60162,0.37441 -2.11123,1.00882 v 0.4368 c 0.53041,-0.6136 1.30002,-0.96721 2.11123,-0.96721 0.69681,0 1.28962,0.52001 1.28962,1.20642 0,1.02961 -0.4784,1.98642 -1.18561,2.72483 l -2.31924,2.38164 v 0.4888 z"
         style="font-size:65.0009%;baseline-shift:sub"
         id="path176" />
    </g>
    <g
       aria-label="d1"
       id="text3447"
       style="line-height:0%;font-family:Iwona;-inkscape-font-specification:Iwona;letter-spacing:0px;word-spacing:0px">
      <path
         d="m 761.79643,248.03149 v -11.2 h -1.248 v 4.272 c -0.624,-0.272 -1.296,-0.432 -1.968,-0.432 -2,0 -2.976,1.6 -2.976,3.76 0,2.128 0.8,3.76 2.736,3.76 0.816,0 1.568,-0.368 2.208,-0.88 v 0.72 z m -1.248,-1.392 c -0.48,0.48 -1.072,0.88 -1.76,0.88 -1.456,0 -1.776,-1.408 -1.776,-3.088 0,-1.504 0.464,-3.088 1.776,-3.088 0.608,0 1.216,0.16 1.76,0.432 z"
         style="font-size:16px;line-height:1.25"
         id="path179" />
      <path
         d="m 766.50846,251.23149 v -7.17609 h -0.6032 c -0.57201,0.6552 -1.24802,1.21681 -1.99683,1.65362 v 0.4368 c 0.63441,-0.3016 1.22721,-0.65521 1.78882,-1.08161 v 6.16728 z"
         style="font-size:65.0009%;baseline-shift:sub"
         id="path181" />
    </g>
    <g
       aria-label="d0"
       id="text3453"
       style="line-height:0%;font-family:Iwona;-inkscape-font-specification:Iwona;letter-spacing:0px;word-spacing:0px">
      <path
         d="m 832.66258,248.03149 v -11.2 h -1.248 v 4.272 c -0.624,-0.272 -1.296,-0.432 -1.968,-0.432 -2,0 -2.976,1.6 -2.976,3.76 0,2.128 0.8,3.76 2.736,3.76 0.816,0 1.568,-0.368 2.208,-0.88 v 0.72 z m -1.248,-1.392 c -0.48,0.48 -1.072,0.88 -1.76,0.88 -1.456,0 -1.776,-1.408 -1.776,-3.088 0,-1.504 0.464,-3.088 1.776,-3.088 0.608,0 1.216,0.16 1.76,0.432 z"
         style="font-size:16px;line-height:1.25"
         id="path184" />
      <path
         d="m 838.95544,247.64344 c 0,-2.46483 -0.75922,-3.69205 -2.27764,-3.69205 -1.51842,0 -2.27763,1.22722 -2.27763,3.69205 0,2.46484 0.75921,3.69206 2.27763,3.69206 1.51842,0 2.27764,-1.22722 2.27764,-3.69206 z m -0.91522,0 c 0,2.17363 -0.4576,3.25525 -1.36242,3.25525 -0.90481,0 -1.36242,-1.08162 -1.36242,-3.25525 0,-2.17363 0.45761,-3.25524 1.36242,-3.25524 0.90482,0 1.36242,1.08161 1.36242,3.25524 z"
         style="font-size:65.0009%;baseline-shift:sub"
         id="path186" />
    </g>
    <path
       style="fill:none;stroke:#000000;stroke-width:2;stroke-linecap:butt;stroke-linejoin:miter;stroke-miterlimit:4;stroke-dasharray:none;stroke-opacity:1"
       d="m 248.0315,297.6378 h 106.29921 l 7.08661,35.43307 h 63.77953 l 7.08661,-35.43307 h 63.77953 l 7.08661,35.43307 h 63.77953 l 7.08662,-35.43307 h 63.77953 l 7.08662,35.43307 h 63.77952 l 7.08662,-35.43307 h 63.77952 l 7.08662,35.43307 h 63.77952 l 7.08662,-35.43307 h 63.77952 l 7.08661,35.43307 h 63.77953"
       id="path3459" />
    <g
       aria-label="phase = 1"
       id="text3461"
       style="line-height:0%;font-family:Iwona;-inkscape-font-specification:Iwona;letter-spacing:0px;word-spacing:0px;fill:#806600">
      <path
         d="m 221.83842,317.94095 c 0,-2.66 -1,-4.7 -3.42,-4.7 -1.02,0 -1.96,0.46 -2.76,1.1 v -0.9 h -1.56 v 13.6 h 1.56 v -4.94 c 0.78,0.34 1.62,0.54 2.46,0.54 2.5,0 3.72,-2 3.72,-4.7 z m -1.76,0 c 0,1.88 -0.58,3.86 -2.22,3.86 -0.76,0 -1.52,-0.2 -2.2,-0.54 v -6.08 c 0.6,-0.6 1.34,-1.1 2.2,-1.1 1.82,0 2.22,1.76 2.22,3.86 z"
         style="font-size:20px;line-height:1.25"
         id="path189" />
      <path
         d="m 231.77839,322.44095 v -6.5 c 0,-1.46 -1.12,-2.7 -2.56,-2.7 -1.2,0 -2.26,0.68 -3.12,1.52 v -6.32 h -1.56 v 14 h 1.56 v -7.06 c 0.68,-0.68 1.52,-1.22 2.46,-1.22 0.94,0 1.66,0.82 1.66,1.78 v 6.5 z"
         style="font-size:20px;line-height:1.25"
         id="path191" />
      <path
         d="m 241.91835,322.44095 v -5.6 c 0,-1.88 -1.16,-3.6 -2.9,-3.6 -1.28,0 -2.48,0.44 -3.56,1.12 v 0.62 c 0.9,-0.5 1.9,-0.82 2.94,-0.82 1.24,0 1.96,1.32 1.96,2.68 v 0.36 c -0.78,-0.34 -1.62,-0.54 -2.46,-0.54 -2.14,0 -3.72,0.98 -3.72,3 0,1.92 1.4,2.98 3.42,2.98 1.02,0 1.96,-0.46 2.76,-1.1 v 0.9 z m -1.56,-1.74 c -0.6,0.6 -1.34,1.1 -2.2,1.1 -1.34,0 -2.22,-0.82 -2.22,-2.14 0,-1.22 1,-2.16 2.22,-2.16 0.76,0 1.52,0.2 2.2,0.54 z"
         style="font-size:20px;line-height:1.25"
         id="path193" />
      <path
         d="m 251.19833,319.88095 c 0,-1.58 -1.68,-2.4 -3.32,-2.8 -0.96,-0.24 -2,-0.64 -2,-1.58 0,-0.86 0.88,-1.42 1.84,-1.42 1.06,0 2.12,0.32 3,0.9 v -0.84 c -0.88,-0.58 -1.94,-0.9 -3,-0.9 -1.74,0 -3.34,1.06 -3.34,2.68 0,1.46 1.62,2.14 3.16,2.52 1.06,0.26 2.16,0.82 2.16,1.84 0,0.94 -0.96,1.52 -1.98,1.52 -1.24,0 -2.44,-0.3 -3.5,-0.9 v 0.84 c 1.06,0.6 2.26,0.9 3.5,0.9 1.8,0 3.48,-1.08 3.48,-2.76 z"
         style="font-size:20px;line-height:1.25"
         id="path195" />
      <path
         d="m 260.93831,318.14095 v -0.2 c 0,-2.82 -1.54,-4.7 -3.86,-4.7 -2.34,0 -3.88,1.88 -3.88,4.7 0,2.82 1.54,4.7 3.88,4.7 1,0 1.98,-0.32 2.8,-0.9 v -0.84 c -0.94,0.6 -1.7,0.82 -2.8,0.82 -1.7,0 -2.12,-1.62 -2.12,-3.58 z m -1.76,-0.84 h -4.22 c 0,-1.6 0.68,-3.22 2.12,-3.22 1.42,0 2.1,1.62 2.1,3.22 z"
         style="font-size:20px;line-height:1.25"
         id="path197" />
      <path
         d="m 282.65825,315.94095 v -1 h -12.56 v 1 z m 0,4 v -1 h -12.56 v 1 z"
         style="font-size:20px;line-height:1.25"
         id="path199" />
      <path
         d="m 297.41821,322.44095 v -13.8 h -1.16 c -1.1,1.26 -2.4,2.34 -3.84,3.18 v 0.84 c 1.22,-0.58 2.36,-1.26 3.44,-2.08 v 11.86 z"
         style="font-size:20px;line-height:1.25"
         id="path201" />
    </g>
    <path
       id="path3465"
       d="m 248.0315,333.07087 h 106.29921 l 7.08661,-35.43307 h 63.77953 l 7.08661,35.43307 h 63.77953 l 7.08661,-35.43307 h 63.77953 l 7.08662,35.43307 h 63.77953 l 7.08662,-35.43307 h 63.77952 l 7.08662,35.43307 h 63.77952 l 7.08662,-35.43307 h 63.77952 l 7.08662,35.43307 h 63.77952 l 7.08661,-35.43307 h 63.77953"
       style="fill:none;stroke:#000000;stroke-width:2;stroke-linecap:butt;stroke-linejoin:miter;stroke-miterlimit:4;stroke-dasharray:none;stroke-opacity:1" />
    <g
       aria-label="d7"
       id="text3467"
       style="line-height:0%;font-family:Iwona;-inkscape-font-specification:Iwona;letter-spacing:0px;word-spacing:0px">
      <path
         d="m 372.03263,318.89764 v -11.2 h -1.248 v 4.272 c -0.624,-0.272 -1.296,-0.432 -1.968,-0.432 -2,0 -2.976,1.6 -2.976,3.76 0,2.128 0.8,3.76 2.736,3.76 0.816,0 1.568,-0.368 2.208,-0.88 v 0.72 z m -1.248,-1.392 c -0.48,0.48 -1.072,0.88 -1.76,0.88 -1.456,0 -1.776,-1.408 -1.776,-3.088 0,-1.504 0.464,-3.088 1.776,-3.088 0.608,0 1.216,0.16 1.76,0.432 z"
         style="font-size:16px;line-height:1.25"
         id="path204" />
      <path
         d="m 378.25269,315.27515 v -0.35361 h -4.42006 v 0.64481 h 3.39045 l -3.06805,6.53129 h 0.89442 z"
         style="font-size:65.0009%;baseline-shift:sub"
         id="path206" />
    </g>
    <g
       aria-label="d6"
       id="text3473"
       style="line-height:0%;font-family:Iwona;-inkscape-font-specification:Iwona;letter-spacing:0px;word-spacing:0px">
      <path
         d="m 442.89878,318.89764 v -11.2 h -1.248 v 4.272 c -0.624,-0.272 -1.296,-0.432 -1.968,-0.432 -2,0 -2.976,1.6 -2.976,3.76 0,2.128 0.8,3.76 2.736,3.76 0.816,0 1.568,-0.368 2.208,-0.88 v 0.72 z m -1.248,-1.392 c -0.48,0.48 -1.072,0.88 -1.76,0.88 -1.456,0 -1.776,-1.408 -1.776,-3.088 0,-1.504 0.464,-3.088 1.776,-3.088 0.608,0 1.216,0.16 1.76,0.432 z"
         style="font-size:16px;line-height:1.25"
         id="path209" />
      <path
         d="m 449.11884,319.75761 c 0,-1.49762 -0.59281,-2.44403 -1.98643,-2.44403 -0.60321,0 -1.16481,0.2808 -1.51842,0.75921 0,-1.36242 0.34321,-2.81844 1.51842,-2.81844 0.53041,0 1.05042,0.1768 1.46642,0.50961 v -0.43681 c -0.416,-0.3328 -0.93601,-0.50961 -1.46642,-0.50961 -1.63282,0 -2.43363,1.85123 -2.43363,3.69205 0,2.57924 0.66561,3.69206 2.21523,3.69206 1.32082,0 2.20483,-0.97762 2.20483,-2.44404 z m -0.91521,0 c 0,1.20642 -0.52001,2.00723 -1.28962,2.00723 -1.45602,0 -1.30002,-1.57042 -1.30002,-3.25525 0.35361,-0.4784 0.91521,-0.75921 1.51842,-0.75921 0.83201,0 1.07122,1.04002 1.07122,2.00723 z"
         style="font-size:65.0009%;baseline-shift:sub"
         id="path211" />
    </g>
    <g
       aria-label="d5"
       id="text3479"
       style="line-height:0%;font-family:Iwona;-inkscape-font-specification:Iwona;letter-spacing:0px;word-spacing:0px">
      <path
         d="m 513.76493,318.89764 v -11.2 h -1.248 v 4.272 c -0.624,-0.272 -1.296,-0.432 -1.968,-0.432 -2,0 -2.976,1.6 -2.976,3.76 0,2.128 0.8,3.76 2.736,3.76 0.816,0 1.568,-0.368 2.208,-0.88 v 0.72 z m -1.248,-1.392 c -0.48,0.48 -1.072,0.88 -1.76,0.88 -1.456,0 -1.776,-1.408 -1.776,-3.088 0,-1.504 0.464,-3.088 1.776,-3.088 0.608,0 1.216,0.16 1.76,0.432 z"
         style="font-size:16px;line-height:1.25"
         id="path214" />
      <path
         d="m 519.98499,319.75761 c 0,-1.46642 -0.88401,-2.44403 -2.20483,-2.44403 -0.60321,0 -1.16482,0.2288 -1.60162,0.61361 l 0.104,-2.36084 h 3.49445 v -0.64481 h -3.90006 l -0.156,3.58805 0.43681,0.0208 c 0.3952,-0.4888 0.98801,-0.78001 1.62242,-0.78001 0.76961,0 1.28962,0.80082 1.28962,2.00723 0,1.20642 -0.52001,2.00723 -1.28962,2.00723 -0.80081,0 -1.58082,-0.26 -2.21523,-0.74881 v 0.43681 c 0.63441,0.4888 1.41442,0.74881 2.21523,0.74881 1.32082,0 2.20483,-0.97762 2.20483,-2.44404 z"
         style="font-size:65.0009%;baseline-shift:sub"
         id="path216" />
    </g>
    <g
       aria-label="d4"
       id="text3485"
       style="line-height:0%;font-family:Iwona;-inkscape-font-specification:Iwona;letter-spacing:0px;word-spacing:0px">
      <path
         d="m 584.63102,318.89764 v -11.2 h -1.248 v 4.272 c -0.624,-0.272 -1.296,-0.432 -1.968,-0.432 -2,0 -2.976,1.6 -2.976,3.76 0,2.128 0.8,3.76 2.736,3.76 0.816,0 1.568,-0.368 2.208,-0.88 v 0.72 z m -1.248,-1.392 c -0.48,0.48 -1.072,0.88 -1.76,0.88 -1.456,0 -1.776,-1.408 -1.776,-3.088 0,-1.504 0.464,-3.088 1.776,-3.088 0.608,0 1.216,0.16 1.76,0.432 z"
         style="font-size:16px;line-height:1.25"
         id="path219" />
      <path
         d="m 590.85108,319.60161 v -0.47841 h -0.78001 v -4.20166 h -0.81121 l -2.82884,4.20166 v 0.47841 h 2.82884 v 2.49603 h 0.81121 v -2.49603 z m -1.59122,-0.47841 h -2.29843 l 2.29843,-3.42164 z"
         style="font-size:65.0009%;baseline-shift:sub"
         id="path221" />
    </g>
    <g
       aria-label="d3"
       id="text3491"
       style="line-height:0%;font-family:Iwona;-inkscape-font-specification:Iwona;letter-spacing:0px;word-spacing:0px">
      <path
         d="m 655.49717,318.89764 v -11.2 h -1.248 v 4.272 c -0.624,-0.272 -1.296,-0.432 -1.968,-0.432 -2,0 -2.976,1.6 -2.976,3.76 0,2.128 0.8,3.76 2.736,3.76 0.816,0 1.568,-0.368 2.208,-0.88 v 0.72 z m -1.248,-1.392 c -0.48,0.48 -1.072,0.88 -1.76,0.88 -1.456,0 -1.776,-1.408 -1.776,-3.088 0,-1.504 0.464,-3.088 1.776,-3.088 0.608,0 1.216,0.16 1.76,0.432 z"
         style="font-size:16px;line-height:1.25"
         id="path224" />
      <path
         d="m 661.71723,320.12162 c 0,-0.91522 -0.64481,-1.70563 -1.53922,-1.97603 0.79041,-0.2288 1.27922,-0.82161 1.27922,-1.61202 0,-1.02962 -0.83202,-1.71603 -2.08003,-1.71603 -0.67601,0 -1.33122,0.22881 -1.86163,0.64481 v 0.43681 c 0.53041,-0.41601 1.18562,-0.64481 1.86163,-0.64481 0.75921,0 1.26881,0.50961 1.26881,1.27922 0,1.23761 -0.572,1.56002 -1.87202,1.56002 v 0.3848 c 1.40402,0 2.02803,0.33281 2.02803,1.64323 0,0.90481 -0.58241,1.64322 -1.28962,1.64322 -0.79041,0 -1.56002,-0.2288 -2.21523,-0.64481 v 0.43681 c 0.65521,0.416 1.42482,0.64481 2.21523,0.64481 1.20642,0 2.20483,-0.93602 2.20483,-2.08003 z"
         style="font-size:65.0009%;baseline-shift:sub"
         id="path226" />
    </g>
    <g
       aria-label="d2"
       id="text3497"
       style="line-height:0%;font-family:Iwona;-inkscape-font-specification:Iwona;letter-spacing:0px;word-spacing:0px">
      <path
         d="m 726.36332,318.89764 v -11.2 h -1.248 v 4.272 c -0.624,-0.272 -1.296,-0.432 -1.968,-0.432 -2,0 -2.976,1.6 -2.976,3.76 0,2.128 0.8,3.76 2.736,3.76 0.816,0 1.568,-0.368 2.208,-0.88 v 0.72 z m -1.248,-1.392 c -0.48,0.48 -1.072,0.88 -1.76,0.88 -1.456,0 -1.776,-1.408 -1.776,-3.088 0,-1.504 0.464,-3.088 1.776,-3.088 0.608,0 1.216,0.16 1.76,0.432 z"
         style="font-size:16px;line-height:1.25"
         id="path229" />
      <path
         d="m 732.58338,322.09764 v -0.6448 h -3.67125 l 1.91362,-1.89283 c 0.85282,-0.85281 1.65363,-1.85123 1.65363,-3.05764 0,-1.01922 -1.00882,-1.68483 -2.10083,-1.68483 -0.82161,0 -1.60162,0.37441 -2.11123,1.00882 v 0.4368 c 0.53041,-0.6136 1.30002,-0.96721 2.11123,-0.96721 0.69681,0 1.28962,0.52001 1.28962,1.20642 0,1.02961 -0.47841,1.98642 -1.18562,2.72483 l -2.31923,2.38164 v 0.4888 z"
         style="font-size:65.0009%;baseline-shift:sub"
         id="path231" />
    </g>
    <g
       aria-label="d1"
       id="text3503"
       style="line-height:0%;font-family:Iwona;-inkscape-font-specification:Iwona;letter-spacing:0px;word-spacing:0px">
      <path
         d="m 797.22947,318.89764 v -11.2 h -1.248 v 4.272 c -0.624,-0.272 -1.296,-0.432 -1.968,-0.432 -2,0 -2.976,1.6 -2.976,3.76 0,2.128 0.8,3.76 2.736,3.76 0.816,0 1.568,-0.368 2.208,-0.88 v 0.72 z m -1.248,-1.392 c -0.48,0.48 -1.072,0.88 -1.76,0.88 -1.456,0 -1.776,-1.408 -1.776,-3.088 0,-1.504 0.464,-3.088 1.776,-3.088 0.608,0 1.216,0.16 1.76,0.432 z"
         style="font-size:16px;line-height:1.25"
         id="path234" />
      <path
         d="m 801.94151,322.09764 v -7.1761 h -0.60321 c -0.57201,0.65521 -1.24802,1.21682 -1.99683,1.65363 v 0.4368 c 0.63441,-0.3016 1.22722,-0.65521 1.78883,-1.08161 v 6.16728 z"
         style="font-size:65.0009%;baseline-shift:sub"
         id="path236" />
    </g>
    <g
       aria-label="d0"
       id="text3509"
       style="line-height:0%;font-family:Iwona;-inkscape-font-specification:Iwona;letter-spacing:0px;word-spacing:0px">
      <path
         d="m 868.09562,318.89764 v -11.2 h -1.248 v 4.272 c -0.624,-0.272 -1.296,-0.432 -1.968,-0.432 -2,0 -2.976,1.6 -2.976,3.76 0,2.128 0.8,3.76 2.736,3.76 0.816,0 1.568,-0.368 2.208,-0.88 v 0.72 z m -1.248,-1.392 c -0.48,0.48 -1.072,0.88 -1.76,0.88 -1.456,0 -1.776,-1.408 -1.776,-3.088 0,-1.504 0.464,-3.088 1.776,-3.088 0.608,0 1.216,0.16 1.76,0.432 z"
         style="font-size:16px;line-height:1.25"
         id="path239" />
      <path
         d="m 874.38848,318.50959 c 0,-2.46483 -0.75921,-3.69205 -2.27763,-3.69205 -1.51842,0 -2.27763,1.22722 -2.27763,3.69205 0,2.46484 0.75921,3.69206 2.27763,3.69206 1.51842,0 2.27763,-1.22722 2.27763,-3.69206 z m -0.91521,0 c 0,2.17363 -0.45761,3.25525 -1.36242,3.25525 -0.90481,0 -1.36242,-1.08162 -1.36242,-3.25525 0,-2.17363 0.45761,-3.25524 1.36242,-3.25524 0.90481,0 1.36242,1.08161 1.36242,3.25524 z"
         style="font-size:65.0009%;baseline-shift:sub"
         id="path241" />
    </g>
    <g
       aria-label="phase = 0"
       id="text3389"
       style="line-height:0%;font-family:Iwona;-inkscape-font-specification:Iwona;letter-spacing:0px;word-spacing:0px;fill:#5a2ca0">
      <path
         d="m 221.83842,247.0748 c 0,-2.66 -1,-4.7 -3.42,-4.7 -1.02,0 -1.96,0.46 -2.76,1.1 v -0.9 h -1.56 v 13.6 h 1.56 v -4.94 c 0.78,0.34 1.62,0.54 2.46,0.54 2.5,0 3.72,-2 3.72,-4.7 z m -1.76,0 c 0,1.88 -0.58,3.86 -2.22,3.86 -0.76,0 -1.52,-0.2 -2.2,-0.54 v -6.08 c 0.6,-0.6 1.34,-1.1 2.2,-1.1 1.82,0 2.22,1.76 2.22,3.86 z"
         style="font-size:20px;line-height:1.25"
         id="path244" />
      <path
         d="m 231.77839,251.5748 v -6.5 c 0,-1.46 -1.12,-2.7 -2.56,-2.7 -1.2,0 -2.26,0.68 -3.12,1.52 v -6.32 h -1.56 v 14 h 1.56 v -7.06 c 0.68,-0.68 1.52,-1.22 2.46,-1.22 0.94,0 1.66,0.82 1.66,1.78 v 6.5 z"
         style="font-size:20px;line-height:1.25"
         id="path246" />
      <path
         d="m 241.91835,251.5748 v -5.6 c 0,-1.88 -1.16,-3.6 -2.9,-3.6 -1.28,0 -2.48,0.44 -3.56,1.12 v 0.62 c 0.9,-0.5 1.9,-0.82 2.94,-0.82 1.24,0 1.96,1.32 1.96,2.68 v 0.36 c -0.78,-0.34 -1.62,-0.54 -2.46,-0.54 -2.14,0 -3.72,0.98 -3.72,3 0,1.92 1.4,2.98 3.42,2.98 1.02,0 1.96,-0.46 2.76,-1.1 v 0.9 z m -1.56,-1.74 c -0.6,0.6 -1.34,1.1 -2.2,1.1 -1.34,0 -2.22,-0.82 -2.22,-2.14 0,-1.22 1,-2.16 2.22,-2.16 0.76,0 1.52,0.2 2.2,0.54 z"
         style="font-size:20px;line-height:1.25"
         id="path248" />
      <path
         d="m 251.19833,249.0148 c 0,-1.58 -1.68,-2.4 -3.32,-2.8 -0.96,-0.24 -2,-0.64 -2,-1.58 0,-0.86 0.88,-1.42 1.84,-1.42 1.06,0 2.12,0.32 3,0.9 v -0.84 c -0.88,-0.58 -1.94,-0.9 -3,-0.9 -1.74,0 -3.34,1.06 -3.34,2.68 0,1.46 1.62,2.14 3.16,2.52 1.06,0.26 2.16,0.82 2.16,1.84 0,0.94 -0.96,1.52 -1.98,1.52 -1.24,0 -2.44,-0.3 -3.5,-0.9 v 0.84 c 1.06,0.6 2.26,0.9 3.5,0.9 1.8,0 3.48,-1.08 3.48,-2.76 z"
         style="font-size:20px;line-height:1.25"
         id="path250" />
      <path
         d="m 260.93831,247.2748 v -0.2 c 0,-2.82 -1.54,-4.7 -3.86,-4.7 -2.34,0 -3.88,1.88 -3.88,4.7 0,2.82 1.54,4.7 3.88,4.7 1,0 1.98,-0.32 2.8,-0.9 v -0.84 c -0.94,0.6 -1.7,0.82 -2.8,0.82 -1.7,0 -2.12,-1.62 -2.12,-3.58 z m -1.76,-0.84 h -4.22 c 0,-1.6 0.68,-3.22 2.12,-3.22 1.42,0 2.1,1.62 2.1,3.22 z"
         style="font-size:20px;line-height:1.25"
         id="path252" />
      <path
         d="m 282.65825,245.0748 v -1 h -12.56 v 1 z m 0,4 v -1 h -12.56 v 1 z"
         style="font-size:20px;line-height:1.25"
         id="path254" />
      <path
         d="m 300.45821,244.6748 c 0,-4.74 -1.46,-7.1 -4.38,-7.1 -2.92,0 -4.38,2.36 -4.38,7.1 0,4.74 1.46,7.1 4.38,7.1 2.92,0 4.38,-2.36 4.38,-7.1 z m -1.76,0 c 0,4.18 -0.88,6.26 -2.62,6.26 -1.74,0 -2.62,-2.08 -2.62,-6.26 0,-4.18 0.88,-6.26 2.62,-6.26 1.74,0 2.62,2.08 2.62,6.26 z"
         style="font-size:20px;line-height:1.25"
         id="path256" />
    </g>
    <path
       id="rect3360"
       style="fill:#ffaaaa"
       d="m 892.91333,120.47245 h 99.21261 v 7.08661 h -99.21261 z" />
    <path
       id="rect3358"
       style="fill:#ffaaaa"
       d="m 248.03151,120.47244 h 106.29921 v 7.08662 H 248.03151 Z" />
    <path
       id="path3348"
       d="m 248.03151,120.47244 h 106.29921 l 7.08661,35.43307 h 28.34646 l 7.08661,-35.43307 h 28.34646 l 7.08661,35.43307 h 28.34646 l 7.08662,-35.43307 H 496.063 l 7.08662,35.43307 h 28.34645 l 7.08662,-35.43307 h 28.34645 l 7.08662,35.43307 h 28.34645 l 7.08662,-35.43307 h 28.34646 l 7.08661,35.43307 h 28.34646 l 7.08661,-35.43307 h 28.34646 l 7.08661,35.43307 h 28.34646 l 7.08661,-35.43307 h 28.34646 l 7.08661,35.43307 h 28.34646 l 7.08661,-35.43307 h 28.34646 l 7.08661,35.43307 h 28.34646 l 7.08662,-35.43307 h 99.21257"
       style="fill:none;stroke:#000000;stroke-width:2;stroke-linecap:butt;stroke-linejoin:miter;stroke-miterlimit:4;stroke-dasharray:none;stroke-opacity:1" />
    <g
       aria-label="polarité = 1"
       id="text3354"
       style="line-height:0%;font-family:Iwona;-inkscape-font-specification:Iwona;letter-spacing:0px;word-spacing:0px;fill:#ff0000">
      <path
         d="m 221.83842,147.8622 c 0,-2.66 -1,-4.7 -3.42,-4.7 -1.02,0 -1.96,0.46 -2.76,1.1 v -0.9 h -1.56 v 13.6 h 1.56 v -4.94 c 0.78,0.34 1.62,0.54 2.46,0.54 2.5,0 3.72,-2 3.72,-4.7 z m -1.76,0 c 0,1.88 -0.58,3.86 -2.22,3.86 -0.76,0 -1.52,-0.2 -2.2,-0.54 v -6.08 c 0.6,-0.6 1.34,-1.1 2.2,-1.1 1.82,0 2.22,1.76 2.22,3.86 z"
         style="font-size:20px;line-height:1.25"
         id="path261" />
      <path
         d="m 231.77839,147.8622 c 0,-3.06 -1.36,-4.7 -3.86,-4.7 -2.52,0 -3.88,1.64 -3.88,4.7 0,3.06 1.36,4.7 3.88,4.7 2.5,0 3.86,-1.64 3.86,-4.7 z m -1.76,0 c 0,2.5 -0.74,3.86 -2.1,3.86 -1.38,0 -2.12,-1.36 -2.12,-3.86 0,-2.5 0.74,-3.86 2.12,-3.86 1.36,0 2.1,1.36 2.1,3.86 z"
         style="font-size:20px;line-height:1.25"
         id="path263" />
      <path
         d="m 238.23838,151.6622 v -0.6 c -0.38,0.32 -0.82,0.58 -1.32,0.58 -0.74,0 -0.88,-0.92 -0.88,-1.78 v -11.5 h -1.56 v 11.5 c 0,1.34 0.52,2.7 1.7,2.7 0.76,0 1.48,-0.38 2.06,-0.9 z"
         style="font-size:20px;line-height:1.25"
         id="path265" />
      <path
         d="m 247.27834,152.3622 v -5.6 c 0,-1.88 -1.16,-3.6 -2.9,-3.6 -1.28,0 -2.48,0.44 -3.56,1.12 v 0.62 c 0.9,-0.5 1.9,-0.82 2.94,-0.82 1.24,0 1.96,1.32 1.96,2.68 v 0.36 c -0.78,-0.34 -1.62,-0.54 -2.46,-0.54 -2.14,0 -3.72,0.98 -3.72,3 0,1.92 1.4,2.98 3.42,2.98 1.02,0 1.96,-0.46 2.76,-1.1 v 0.9 z m -1.56,-1.74 c -0.6,0.6 -1.34,1.1 -2.2,1.1 -1.34,0 -2.22,-0.82 -2.22,-2.14 0,-1.22 1,-2.16 2.22,-2.16 0.76,0 1.52,0.2 2.2,0.54 z"
         style="font-size:20px;line-height:1.25"
         id="path267" />
      <path
         d="m 255.45833,144.6022 v -1.24 c -0.22,-0.08 -0.46,-0.14 -0.68,-0.14 -1.12,0 -2.02,0.78 -2.74,1.64 v -1.5 h -1.56 v 9 h 1.56 v -6.66 c 0.6,-0.7 1.36,-1.3 2.28,-1.3 0.38,0 0.78,0.08 1.14,0.2 z"
         style="font-size:20px;line-height:1.25"
         id="path269" />
      <path
         d="m 261.11831,151.6622 v -0.6 c -0.38,0.32 -0.82,0.58 -1.32,0.58 -0.74,0 -0.88,-0.92 -0.88,-1.78 v -6.5 h -1.56 v 6.5 c 0,1.34 0.52,2.7 1.7,2.7 0.76,0 1.48,-0.38 2.06,-0.9 z m -2,-11.42 c 0,-0.54 -0.44,-0.98 -0.98,-0.98 -0.54,0 -0.98,0.44 -0.98,0.98 0,0.54 0.44,0.98 0.98,0.98 0.54,0 0.98,-0.44 0.98,-0.98 z"
         style="font-size:20px;line-height:1.25"
         id="path271" />
      <path
         d="m 267.35829,151.6622 v -0.6 c -0.32,0.32 -0.7,0.58 -1.16,0.58 -0.72,0 -0.76,-0.94 -0.76,-1.78 v -5.66 h 1.92 v -0.84 h -1.92 v -3 h -0.94 c 0,1.6 -0.92,3.1 -2.38,3.1 v 0.74 h 1.76 v 5.66 c 0,1.32 0.42,2.7 1.56,2.7 0.74,0 1.38,-0.4 1.92,-0.9 z"
         style="font-size:20px;line-height:1.25"
         id="path273" />
      <path
         d="m 276.79826,148.0622 v -0.2 c 0,-2.82 -1.54,-4.7 -3.86,-4.7 -2.34,0 -3.88,1.88 -3.88,4.7 0,2.82 1.54,4.7 3.88,4.7 1,0 1.98,-0.32 2.8,-0.9 v -0.84 c -0.94,0.6 -1.7,0.82 -2.8,0.82 -1.7,0 -2.12,-1.62 -2.12,-3.58 z m -1.76,-0.84 h -4.22 c 0,-1.6 0.68,-3.22 2.12,-3.22 1.42,0 2.1,1.62 2.1,3.22 z m 0.06,-8.86 h -1.8 c 0,1.34 -0.42,2.66 -1.2,3.74 h 0.84 c 1.06,-1.06 2.16,-2.24 2.16,-3.74 z"
         style="font-size:20px;line-height:1.25"
         id="path275" />
      <path
         d="m 298.5182,145.8622 v -1 h -12.56 v 1 z m 0,4 v -1 h -12.56 v 1 z"
         style="font-size:20px;line-height:1.25"
         id="path277" />
      <path
         d="m 313.27816,152.3622 v -13.8 h -1.16 c -1.1,1.26 -2.4,2.34 -3.84,3.18 v 0.84 c 1.22,-0.58 2.36,-1.26 3.44,-2.08 v 11.86 z"
         style="font-size:20px;line-height:1.25"
         id="path279" />
    </g>
    <g
       aria-label="Horloge  (Serial Clock)"
       id="text3605"
       style="line-height:0%;font-family:Iwona;-inkscape-font-specification:Iwona;text-align:center;letter-spacing:0px;word-spacing:0px;text-anchor:middle">
      <path
         d="m 514.93732,31.889759 v -16.8 h -1.968 v 7.848 h -9.264 v -7.848 h -1.968 v 16.8 h 1.968 v -7.848 h 9.264 v 7.848 z"
         style="font-size:24px;line-height:1.25"
         id="path282" />
      <path
         d="m 527.94527,26.489759 c 0,-3.672 -1.632,-5.64 -4.632,-5.64 -3.024,0 -4.656,1.968 -4.656,5.64 0,3.672 1.632,5.64 4.656,5.64 3,0 4.632,-1.968 4.632,-5.64 z m -2.112,0 c 0,3 -0.888,4.632 -2.52,4.632 -1.656,0 -2.544,-1.632 -2.544,-4.632 0,-3 0.888,-4.632 2.544,-4.632 1.632,0 2.52,1.632 2.52,4.632 z"
         style="font-size:24px;line-height:1.25"
         id="path284" />
      <path
         d="m 537.16127,22.577759 v -1.488 c -0.264,-0.096 -0.552,-0.168 -0.816,-0.168 -1.344,0 -2.424,0.936 -3.288,1.968 v -1.8 h -1.872 v 10.8 h 1.872 v -7.992 c 0.72,-0.84 1.632,-1.56 2.736,-1.56 0.456,0 0.936,0.096 1.368,0.24 z"
         style="font-size:24px;line-height:1.25"
         id="path286" />
      <path
         d="m 544.07324,31.049759 v -0.72 c -0.456,0.384 -0.984,0.696 -1.584,0.696 -0.888,0 -1.056,-1.104 -1.056,-2.136 v -13.8 h -1.872 v 13.8 c 0,1.608 0.624,3.24 2.04,3.24 0.912,0 1.776,-0.456 2.472,-1.08 z"
         style="font-size:24px;line-height:1.25"
         id="path288" />
      <path
         d="m 555.1612,26.489759 c 0,-3.672 -1.632,-5.64 -4.632,-5.64 -3.024,0 -4.656,1.968 -4.656,5.64 0,3.672 1.632,5.64 4.656,5.64 3,0 4.632,-1.968 4.632,-5.64 z m -2.112,0 c 0,3 -0.888,4.632 -2.52,4.632 -1.656,0 -2.544,-1.632 -2.544,-4.632 0,-3 0.888,-4.632 2.544,-4.632 1.632,0 2.52,1.632 2.52,4.632 z"
         style="font-size:24px;line-height:1.25"
         id="path290" />
      <path
         d="m 567.08919,33.329759 v -12.24 h -1.872 v 0.408 c -0.936,-0.408 -1.944,-0.648 -2.952,-0.648 -3,0 -4.464,2.4 -4.464,5.64 0,3.192 1.2,5.64 4.104,5.64 1.224,0 2.352,-0.552 3.312,-1.32 v 2.52 c 0,1.656 -0.912,3.216 -2.4,3.216 -1.224,0 -2.448,-0.24 -3.6,-0.648 v 0.744 c 1.344,0.624 2.832,1.008 4.32,1.008 2.112,0 3.552,-2.064 3.552,-4.32 z m -1.872,-3.528 c -0.72,0.72 -1.608,1.32 -2.64,1.32 -2.184,0 -2.664,-2.112 -2.664,-4.632 0,-2.256 0.696,-4.632 2.664,-4.632 0.912,0 1.824,0.24 2.64,0.648 z"
         style="font-size:24px;line-height:1.25"
         id="path292" />
      <path
         d="m 579.61718,26.729759 v -0.24 c 0,-3.384 -1.848,-5.64 -4.632,-5.64 -2.808,0 -4.656,2.256 -4.656,5.64 0,3.384 1.848,5.64 4.656,5.64 1.2,0 2.376,-0.384 3.36,-1.08 v -1.008 c -1.128,0.72 -2.04,0.984 -3.36,0.984 -2.04,0 -2.544,-1.944 -2.544,-4.296 z m -2.112,-1.008 h -5.064 c 0,-1.92 0.816,-3.864 2.544,-3.864 1.704,0 2.52,1.944 2.52,3.864 z"
         style="font-size:24px;line-height:1.25"
         id="path294" />
      <path
         d="m 602.99306,37.409759 c -1.752,-3.888 -2.4,-6.888 -2.4,-11.16 0,-4.272 0.648,-7.272 2.4,-11.16 h -1.008 c -2.376,3.696 -3.264,6.768 -3.264,11.16 0,4.392 0.888,7.464 3.264,11.16 z"
         style="font-size:24px;line-height:1.25"
         id="path296" />
      <path
         d="m 618.28103,27.017759 c 0,-2.952 -3,-4.704 -6.096,-5.352 -2.064,-0.432 -4.392,-0.96 -4.392,-2.88 0,-1.896 2.04,-2.976 4.152,-2.976 1.944,0 3.84,0.576 5.376,1.776 v -0.96 c -1.536,-1.2 -3.432,-1.92 -5.376,-1.92 -3.12,0 -6.048,1.752 -6.048,4.584 0,2.712 2.928,4.08 5.784,4.68 2.28,0.48 4.704,1.416 4.704,3.552 0,2.184 -2.136,3.648 -4.44,3.648 -2.232,0 -4.44,-0.576 -6.312,-1.776 v 0.96 c 1.896,1.2 4.056,1.92 6.312,1.92 3.312,0 6.336,-2.136 6.336,-5.256 z"
         style="font-size:24px;line-height:1.25"
         id="path298" />
      <path
         d="m 630.32902,26.729759 v -0.24 c 0,-3.384 -1.848,-5.64 -4.632,-5.64 -2.808,0 -4.656,2.256 -4.656,5.64 0,3.384 1.848,5.64 4.656,5.64 1.2,0 2.376,-0.384 3.36,-1.08 v -1.008 c -1.128,0.72 -2.04,0.984 -3.36,0.984 -2.04,0 -2.544,-1.944 -2.544,-4.296 z m -2.112,-1.008 h -5.064 c 0,-1.92 0.816,-3.864 2.544,-3.864 1.704,0 2.52,1.944 2.52,3.864 z"
         style="font-size:24px;line-height:1.25"
         id="path300" />
      <path
         d="m 639.42498,22.577759 v -1.488 c -0.264,-0.096 -0.552,-0.168 -0.816,-0.168 -1.344,0 -2.424,0.936 -3.288,1.968 v -1.8 h -1.872 v 10.8 h 1.872 v -7.992 c 0.72,-0.84 1.632,-1.56 2.736,-1.56 0.456,0 0.936,0.096 1.368,0.24 z"
         style="font-size:24px;line-height:1.25"
         id="path302" />
      <path
         d="m 646.21696,31.049759 v -0.72 c -0.456,0.384 -0.984,0.696 -1.584,0.696 -0.888,0 -1.056,-1.104 -1.056,-2.136 v -7.8 h -1.872 v 7.8 c 0,1.608 0.624,3.24 2.04,3.24 0.912,0 1.776,-0.456 2.472,-1.08 z m -2.4,-13.704 c 0,-0.648 -0.528,-1.176 -1.176,-1.176 -0.648,0 -1.176,0.528 -1.176,1.176 0,0.648 0.528,1.176 1.176,1.176 0.648,0 1.176,-0.528 1.176,-1.176 z"
         style="font-size:24px;line-height:1.25"
         id="path304" />
      <path
         d="m 657.06494,31.889759 v -6.72 c 0,-2.256 -1.392,-4.32 -3.48,-4.32 -1.536,0 -2.976,0.528 -4.272,1.344 v 0.744 c 1.08,-0.6 2.28,-0.984 3.528,-0.984 1.488,0 2.352,1.584 2.352,3.216 v 0.432 c -0.936,-0.408 -1.944,-0.648 -2.952,-0.648 -2.568,0 -4.464,1.176 -4.464,3.6 0,2.304 1.68,3.576 4.104,3.576 1.224,0 2.352,-0.552 3.312,-1.32 v 1.08 z m -1.872,-2.088 c -0.72,0.72 -1.608,1.32 -2.64,1.32 -1.608,0 -2.664,-0.984 -2.664,-2.568 0,-1.464 1.2,-2.592 2.664,-2.592 0.912,0 1.824,0.24 2.64,0.648 z"
         style="font-size:24px;line-height:1.25"
         id="path306" />
      <path
         d="m 665.41692,31.049759 v -0.72 c -0.456,0.384 -0.984,0.696 -1.584,0.696 -0.888,0 -1.056,-1.104 -1.056,-2.136 v -13.8 h -1.872 v 13.8 c 0,1.608 0.624,3.24 2.04,3.24 0.912,0 1.776,-0.456 2.472,-1.08 z"
         style="font-size:24px;line-height:1.25"
         id="path308" />
      <path
         d="m 688.52883,19.121759 v -1.296 c -1.296,-1.872 -3.432,-2.976 -5.688,-2.976 -4.872,0 -7.512,3.552 -7.512,8.64 0,5.088 2.64,8.64 7.512,8.64 1.872,0 3.72,-0.552 5.304,-1.584 v -1.104 c -1.584,1.032 -3.432,1.584 -5.304,1.584 -3.768,0 -5.16,-3.336 -5.16,-7.536 0,-4.2 1.392,-7.536 5.16,-7.536 2.304,0 4.464,1.2 5.688,3.168 z"
         style="font-size:24px;line-height:1.25"
         id="path310" />
      <path
         d="m 695.68082,31.049759 v -0.72 c -0.456,0.384 -0.984,0.696 -1.584,0.696 -0.888,0 -1.056,-1.104 -1.056,-2.136 v -13.8 h -1.872 v 13.8 c 0,1.608 0.624,3.24 2.04,3.24 0.912,0 1.776,-0.456 2.472,-1.08 z"
         style="font-size:24px;line-height:1.25"
         id="path312" />
      <path
         d="m 706.76877,26.489759 c 0,-3.672 -1.632,-5.64 -4.632,-5.64 -3.024,0 -4.656,1.968 -4.656,5.64 0,3.672 1.632,5.64 4.656,5.64 3,0 4.632,-1.968 4.632,-5.64 z m -2.112,0 c 0,3 -0.888,4.632 -2.52,4.632 -1.656,0 -2.544,-1.632 -2.544,-4.632 0,-3 0.888,-4.632 2.544,-4.632 1.632,0 2.52,1.632 2.52,4.632 z"
         style="font-size:24px;line-height:1.25"
         id="path314" />
      <path
         d="m 717.78477,23.585759 v -1.008 c -0.768,-1.08 -2.016,-1.728 -3.36,-1.728 -3,0 -5.016,2.256 -5.016,5.64 0,3.384 2.016,5.64 5.016,5.64 1.248,0 2.424,-0.624 3.12,-1.656 v -1.008 c -0.816,1.224 -1.656,1.656 -3.12,1.656 -1.728,0 -2.904,-1.848 -2.904,-4.632 0,-2.784 1.176,-4.632 2.904,-4.632 1.488,0 2.496,0.528 3.36,1.728 z"
         style="font-size:24px;line-height:1.25"
         id="path316" />
      <path
         d="m 729.59274,31.889759 -5.568,-6.408 5.376,-4.392 h -1.488 l -5.736,4.704 v -10.704 h -1.872 v 16.8 h 1.872 v -5.976 l 5.184,5.976 z"
         style="font-size:24px;line-height:1.25"
         id="path318" />
      <path
         d="m 735.30473,26.249759 c 0,-4.392 -0.888,-7.464 -3.264,-11.16 h -1.008 c 1.752,3.888 2.4,6.888 2.4,11.16 0,4.272 -0.648,7.272 -2.4,11.16 h 1.008 c 2.376,-3.696 3.264,-6.768 3.264,-11.16 z"
         style="font-size:24px;line-height:1.25"
         id="path320" />
    </g>
    <g
       aria-label="Données (Master In Slave Out / Master Out Slave In)"
       id="text3609"
       style="line-height:0%;font-family:Iwona;-inkscape-font-specification:Iwona;text-align:center;letter-spacing:0px;word-spacing:0px;text-anchor:middle">
      <path
         d="m 357.07555,200.65511 c 0,-5.136 -2.808,-8.64 -7.752,-8.64 -1.488,0 -2.976,0.072 -4.44,0.24 h -1.92 v 16.8 h 1.92 c 1.464,0.168 2.952,0.24 4.44,0.24 4.944,0 7.752,-3.504 7.752,-8.64 z m -2.352,0 c 0,3.816 -1.944,7.536 -5.4,7.536 -1.464,0 -2.928,-0.072 -4.392,-0.24 v -14.592 c 1.464,-0.168 2.928,-0.24 4.392,-0.24 3.456,0 5.4,3.72 5.4,7.536 z"
         style="font-size:24px;line-height:1.25"
         id="path323" />
      <path
         d="m 369.12353,203.65511 c 0,-3.672 -1.632,-5.64 -4.632,-5.64 -3.024,0 -4.656,1.968 -4.656,5.64 0,3.672 1.632,5.64 4.656,5.64 3,0 4.632,-1.968 4.632,-5.64 z m -2.112,0 c 0,3 -0.888,4.632 -2.52,4.632 -1.656,0 -2.544,-1.632 -2.544,-4.632 0,-3 0.888,-4.632 2.544,-4.632 1.632,0 2.52,1.632 2.52,4.632 z"
         style="font-size:24px;line-height:1.25"
         id="path325" />
      <path
         d="m 381.05152,209.05511 v -7.8 c 0,-1.752 -1.344,-3.24 -3.072,-3.24 -1.44,0 -2.712,0.816 -3.744,1.824 v -1.584 h -1.872 v 10.8 h 1.872 v -8.472 c 0.816,-0.816 1.824,-1.464 2.952,-1.464 1.128,0 1.992,0.984 1.992,2.136 v 7.8 z"
         style="font-size:24px;line-height:1.25"
         id="path327" />
      <path
         d="m 393.45948,209.05511 v -7.8 c 0,-1.752 -1.344,-3.24 -3.072,-3.24 -1.44,0 -2.712,0.816 -3.744,1.824 v -1.584 h -1.872 v 10.8 h 1.872 v -8.472 c 0.816,-0.816 1.824,-1.464 2.952,-1.464 1.128,0 1.992,0.984 1.992,2.136 v 7.8 z"
         style="font-size:24px;line-height:1.25"
         id="path329" />
      <path
         d="m 405.86744,203.89511 v -0.24 c 0,-3.384 -1.848,-5.64 -4.632,-5.64 -2.808,0 -4.656,2.256 -4.656,5.64 0,3.384 1.848,5.64 4.656,5.64 1.2,0 2.376,-0.384 3.36,-1.08 v -1.008 c -1.128,0.72 -2.04,0.984 -3.36,0.984 -2.04,0 -2.544,-1.944 -2.544,-4.296 z m -2.112,-1.008 h -5.064 c 0,-1.92 0.816,-3.864 2.544,-3.864 1.704,0 2.52,1.944 2.52,3.864 z m 0.072,-10.632 h -2.16 c 0,1.608 -0.504,3.192 -1.44,4.488 h 1.008 c 1.272,-1.272 2.592,-2.688 2.592,-4.488 z"
         style="font-size:24px;line-height:1.25"
         id="path331" />
      <path
         d="m 417.67541,203.89511 v -0.24 c 0,-3.384 -1.848,-5.64 -4.632,-5.64 -2.808,0 -4.656,2.256 -4.656,5.64 0,3.384 1.848,5.64 4.656,5.64 1.2,0 2.376,-0.384 3.36,-1.08 v -1.008 c -1.128,0.72 -2.04,0.984 -3.36,0.984 -2.04,0 -2.544,-1.944 -2.544,-4.296 z m -2.112,-1.008 h -5.064 c 0,-1.92 0.816,-3.864 2.544,-3.864 1.704,0 2.52,1.944 2.52,3.864 z"
         style="font-size:24px;line-height:1.25"
         id="path333" />
      <path
         d="m 428.09137,205.98311 c 0,-1.896 -2.016,-2.88 -3.984,-3.36 -1.152,-0.288 -2.4,-0.768 -2.4,-1.896 0,-1.032 1.056,-1.704 2.208,-1.704 1.272,0 2.544,0.384 3.6,1.08 v -1.008 c -1.056,-0.696 -2.328,-1.08 -3.6,-1.08 -2.088,0 -4.008,1.272 -4.008,3.216 0,1.752 1.944,2.568 3.792,3.024 1.272,0.312 2.592,0.984 2.592,2.208 0,1.128 -1.152,1.824 -2.376,1.824 -1.488,0 -2.928,-0.36 -4.2,-1.08 v 1.008 c 1.272,0.72 2.712,1.08 4.2,1.08 2.16,0 4.176,-1.296 4.176,-3.312 z"
         style="font-size:24px;line-height:1.25"
         id="path335" />
      <path
         d="m 443.35531,214.57511 c -1.752,-3.888 -2.4,-6.888 -2.4,-11.16 0,-4.272 0.648,-7.272 2.4,-11.16 h -1.008 c -2.376,3.696 -3.264,6.768 -3.264,11.16 0,4.392 0.888,7.464 3.264,11.16 z"
         style="font-size:24px;line-height:1.25"
         id="path337" />
      <path
         d="m 464.59527,209.05511 -0.96,-16.8 h -1.584 l -6.744,14.184 -6.768,-14.184 h -1.584 l -0.96,16.8 h 1.104 l 0.768,-13.608 6.504,13.608 h 0.888 l 6.576,-13.776 0.792,13.776 z"
         style="font-size:24px;line-height:1.25"
         id="path339" />
      <path
         d="m 476.40324,209.05511 v -6.72 c 0,-2.256 -1.392,-4.32 -3.48,-4.32 -1.536,0 -2.976,0.528 -4.272,1.344 v 0.744 c 1.08,-0.6 2.28,-0.984 3.528,-0.984 1.488,0 2.352,1.584 2.352,3.216 v 0.432 c -0.936,-0.408 -1.944,-0.648 -2.952,-0.648 -2.568,0 -4.464,1.176 -4.464,3.6 0,2.304 1.68,3.576 4.104,3.576 1.224,0 2.352,-0.552 3.312,-1.32 v 1.08 z m -1.872,-2.088 c -0.72,0.72 -1.608,1.32 -2.64,1.32 -1.608,0 -2.664,-0.984 -2.664,-2.568 0,-1.464 1.2,-2.592 2.664,-2.592 0.912,0 1.824,0.24 2.64,0.648 z"
         style="font-size:24px;line-height:1.25"
         id="path341" />
      <path
         d="m 487.53922,205.98311 c 0,-1.896 -2.016,-2.88 -3.984,-3.36 -1.152,-0.288 -2.4,-0.768 -2.4,-1.896 0,-1.032 1.056,-1.704 2.208,-1.704 1.272,0 2.544,0.384 3.6,1.08 v -1.008 c -1.056,-0.696 -2.328,-1.08 -3.6,-1.08 -2.088,0 -4.008,1.272 -4.008,3.216 0,1.752 1.944,2.568 3.792,3.024 1.272,0.312 2.592,0.984 2.592,2.208 0,1.128 -1.152,1.824 -2.376,1.824 -1.488,0 -2.928,-0.36 -4.2,-1.08 v 1.008 c 1.272,0.72 2.712,1.08 4.2,1.08 2.16,0 4.176,-1.296 4.176,-3.312 z"
         style="font-size:24px;line-height:1.25"
         id="path343" />
      <path
         d="m 495.62719,208.21511 v -0.72 c -0.384,0.384 -0.84,0.696 -1.392,0.696 -0.864,0 -0.912,-1.128 -0.912,-2.136 v -6.792 h 2.304 v -1.008 h -2.304 v -3.6 h -1.128 c 0,1.92 -1.104,3.72 -2.856,3.72 v 0.888 h 2.112 v 6.792 c 0,1.584 0.504,3.24 1.872,3.24 0.888,0 1.656,-0.48 2.304,-1.08 z"
         style="font-size:24px;line-height:1.25"
         id="path345" />
      <path
         d="m 506.95516,203.89511 v -0.24 c 0,-3.384 -1.848,-5.64 -4.632,-5.64 -2.808,0 -4.656,2.256 -4.656,5.64 0,3.384 1.848,5.64 4.656,5.64 1.2,0 2.376,-0.384 3.36,-1.08 v -1.008 c -1.128,0.72 -2.04,0.984 -3.36,0.984 -2.04,0 -2.544,-1.944 -2.544,-4.296 z m -2.112,-1.008 h -5.064 c 0,-1.92 0.816,-3.864 2.544,-3.864 1.704,0 2.52,1.944 2.52,3.864 z"
         style="font-size:24px;line-height:1.25"
         id="path347" />
      <path
         d="m 516.05113,199.74311 v -1.488 c -0.264,-0.096 -0.552,-0.168 -0.816,-0.168 -1.344,0 -2.424,0.936 -3.288,1.968 v -1.8 h -1.872 v 10.8 h 1.872 v -7.992 c 0.72,-0.84 1.632,-1.56 2.736,-1.56 0.456,0 0.936,0.096 1.368,0.24 z"
         style="font-size:24px;line-height:1.25"
         id="path349" />
      <path
         d="m 528.89106,209.05511 v -16.8 h -1.968 v 16.8 z"
         style="font-size:24px;line-height:1.25"
         id="path351" />
      <path
         d="m 541.89905,209.05511 v -7.8 c 0,-1.752 -1.344,-3.24 -3.072,-3.24 -1.44,0 -2.712,0.816 -3.744,1.824 v -1.584 h -1.872 v 10.8 h 1.872 v -8.472 c 0.816,-0.816 1.824,-1.464 2.952,-1.464 1.128,0 1.992,0.984 1.992,2.136 v 7.8 z"
         style="font-size:24px;line-height:1.25"
         id="path353" />
      <path
         d="m 565.77897,204.18311 c 0,-2.952 -3,-4.704 -6.096,-5.352 -2.064,-0.432 -4.392,-0.96 -4.392,-2.88 0,-1.896 2.04,-2.976 4.152,-2.976 1.944,0 3.84,0.576 5.376,1.776 v -0.96 c -1.536,-1.2 -3.432,-1.92 -5.376,-1.92 -3.12,0 -6.048,1.752 -6.048,4.584 0,2.712 2.928,4.08 5.784,4.68 2.28,0.48 4.704,1.416 4.704,3.552 0,2.184 -2.136,3.648 -4.44,3.648 -2.232,0 -4.44,-0.576 -6.312,-1.776 v 0.96 c 1.896,1.2 4.056,1.92 6.312,1.92 3.312,0 6.336,-2.136 6.336,-5.256 z"
         style="font-size:24px;line-height:1.25"
         id="path355" />
      <path
         d="m 573.65096,208.21511 v -0.72 c -0.456,0.384 -0.984,0.696 -1.584,0.696 -0.888,0 -1.056,-1.104 -1.056,-2.136 v -13.8 h -1.872 v 13.8 c 0,1.608 0.624,3.24 2.04,3.24 0.912,0 1.776,-0.456 2.472,-1.08 z"
         style="font-size:24px;line-height:1.25"
         id="path357" />
      <path
         d="m 584.49891,209.05511 v -6.72 c 0,-2.256 -1.392,-4.32 -3.48,-4.32 -1.536,0 -2.976,0.528 -4.272,1.344 v 0.744 c 1.08,-0.6 2.28,-0.984 3.528,-0.984 1.488,0 2.352,1.584 2.352,3.216 v 0.432 c -0.936,-0.408 -1.944,-0.648 -2.952,-0.648 -2.568,0 -4.464,1.176 -4.464,3.6 0,2.304 1.68,3.576 4.104,3.576 1.224,0 2.352,-0.552 3.312,-1.32 v 1.08 z m -1.872,-2.088 c -0.72,0.72 -1.608,1.32 -2.64,1.32 -1.608,0 -2.664,-0.984 -2.664,-2.568 0,-1.464 1.2,-2.592 2.664,-2.592 0.912,0 1.824,0.24 2.64,0.648 z"
         style="font-size:24px;line-height:1.25"
         id="path359" />
      <path
         d="m 595.94689,198.25511 h -1.08 l -3.264,8.976 -3.168,-8.976 h -1.776 l 3.792,10.8 h 1.56 z"
         style="font-size:24px;line-height:1.25"
         id="path361" />
      <path
         d="m 606.79488,203.89511 v -0.24 c 0,-3.384 -1.848,-5.64 -4.632,-5.64 -2.808,0 -4.656,2.256 -4.656,5.64 0,3.384 1.848,5.64 4.656,5.64 1.2,0 2.376,-0.384 3.36,-1.08 v -1.008 c -1.128,0.72 -2.04,0.984 -3.36,0.984 -2.04,0 -2.544,-1.944 -2.544,-4.296 z m -2.112,-1.008 h -5.064 c 0,-1.92 0.816,-3.864 2.544,-3.864 1.704,0 2.52,1.944 2.52,3.864 z"
         style="font-size:24px;line-height:1.25"
         id="path363" />
      <path
         d="m 632.42682,200.65511 c 0,-5.088 -2.64,-8.64 -7.488,-8.64 -4.872,0 -7.512,3.552 -7.512,8.64 0,5.088 2.64,8.64 7.512,8.64 4.848,0 7.488,-3.552 7.488,-8.64 z m -2.352,0 c 0,4.2 -1.392,7.536 -5.136,7.536 -3.768,0 -5.16,-3.336 -5.16,-7.536 0,-4.2 1.392,-7.536 5.16,-7.536 3.744,0 5.136,3.336 5.136,7.536 z"
         style="font-size:24px;line-height:1.25"
         id="path365" />
      <path
         d="m 644.35477,209.05511 v -10.8 h -1.872 v 8.472 c -0.816,0.816 -1.824,1.464 -2.952,1.464 -1.128,0 -1.992,-0.984 -1.992,-2.136 v -7.8 h -1.872 v 7.8 c 0,1.752 1.344,3.24 3.072,3.24 1.44,0 2.712,-0.816 3.744,-1.824 v 1.584 z"
         style="font-size:24px;line-height:1.25"
         id="path367" />
      <path
         d="m 653.28273,208.21511 v -0.72 c -0.384,0.384 -0.84,0.696 -1.392,0.696 -0.864,0 -0.912,-1.128 -0.912,-2.136 v -6.792 h 2.304 v -1.008 h -2.304 v -3.6 h -1.128 c 0,1.92 -1.104,3.72 -2.856,3.72 v 0.888 h 2.112 v 6.792 c 0,1.584 0.504,3.24 1.872,3.24 0.888,0 1.656,-0.48 2.304,-1.08 z"
         style="font-size:24px;line-height:1.25"
         id="path369" />
      <path
         d="m 669.05067,192.25511 h -1.248 l -4.896,19.56 h 1.248 z"
         style="font-size:24px;line-height:1.25"
         id="path371" />
      <path
         d="m 697.9946,209.05511 -0.96,-16.8 h -1.584 l -6.744,14.184 -6.768,-14.184 h -1.584 l -0.96,16.8 h 1.104 l 0.768,-13.608 6.504,13.608 h 0.888 l 6.576,-13.776 0.792,13.776 z"
         style="font-size:24px;line-height:1.25"
         id="path373" />
      <path
         d="m 709.80258,209.05511 v -6.72 c 0,-2.256 -1.392,-4.32 -3.48,-4.32 -1.536,0 -2.976,0.528 -4.272,1.344 v 0.744 c 1.08,-0.6 2.28,-0.984 3.528,-0.984 1.488,0 2.352,1.584 2.352,3.216 v 0.432 c -0.936,-0.408 -1.944,-0.648 -2.952,-0.648 -2.568,0 -4.464,1.176 -4.464,3.6 0,2.304 1.68,3.576 4.104,3.576 1.224,0 2.352,-0.552 3.312,-1.32 v 1.08 z m -1.872,-2.088 c -0.72,0.72 -1.608,1.32 -2.64,1.32 -1.608,0 -2.664,-0.984 -2.664,-2.568 0,-1.464 1.2,-2.592 2.664,-2.592 0.912,0 1.824,0.24 2.64,0.648 z"
         style="font-size:24px;line-height:1.25"
         id="path375" />
      <path
         d="m 720.93854,205.98311 c 0,-1.896 -2.016,-2.88 -3.984,-3.36 -1.152,-0.288 -2.4,-0.768 -2.4,-1.896 0,-1.032 1.056,-1.704 2.208,-1.704 1.272,0 2.544,0.384 3.6,1.08 v -1.008 c -1.056,-0.696 -2.328,-1.08 -3.6,-1.08 -2.088,0 -4.008,1.272 -4.008,3.216 0,1.752 1.944,2.568 3.792,3.024 1.272,0.312 2.592,0.984 2.592,2.208 0,1.128 -1.152,1.824 -2.376,1.824 -1.488,0 -2.928,-0.36 -4.2,-1.08 v 1.008 c 1.272,0.72 2.712,1.08 4.2,1.08 2.16,0 4.176,-1.296 4.176,-3.312 z"
         style="font-size:24px;line-height:1.25"
         id="path377" />
      <path
         d="m 729.0265,208.21511 v -0.72 c -0.384,0.384 -0.84,0.696 -1.392,0.696 -0.864,0 -0.912,-1.128 -0.912,-2.136 v -6.792 h 2.304 v -1.008 h -2.304 v -3.6 h -1.128 c 0,1.92 -1.104,3.72 -2.856,3.72 v 0.888 h 2.112 v 6.792 c 0,1.584 0.504,3.24 1.872,3.24 0.888,0 1.656,-0.48 2.304,-1.08 z"
         style="font-size:24px;line-height:1.25"
         id="path379" />
      <path
         d="m 740.35447,203.89511 v -0.24 c 0,-3.384 -1.848,-5.64 -4.632,-5.64 -2.808,0 -4.656,2.256 -4.656,5.64 0,3.384 1.848,5.64 4.656,5.64 1.2,0 2.376,-0.384 3.36,-1.08 v -1.008 c -1.128,0.72 -2.04,0.984 -3.36,0.984 -2.04,0 -2.544,-1.944 -2.544,-4.296 z m -2.112,-1.008 h -5.064 c 0,-1.92 0.816,-3.864 2.544,-3.864 1.704,0 2.52,1.944 2.52,3.864 z"
         style="font-size:24px;line-height:1.25"
         id="path381" />
      <path
         d="m 749.45045,199.74311 v -1.488 c -0.264,-0.096 -0.552,-0.168 -0.816,-0.168 -1.344,0 -2.424,0.936 -3.288,1.968 v -1.8 h -1.872 v 10.8 h 1.872 v -7.992 c 0.72,-0.84 1.632,-1.56 2.736,-1.56 0.456,0 0.936,0.096 1.368,0.24 z"
         style="font-size:24px;line-height:1.25"
         id="path383" />
      <path
         d="m 774.36237,200.65511 c 0,-5.088 -2.64,-8.64 -7.488,-8.64 -4.872,0 -7.512,3.552 -7.512,8.64 0,5.088 2.64,8.64 7.512,8.64 4.848,0 7.488,-3.552 7.488,-8.64 z m -2.352,0 c 0,4.2 -1.392,7.536 -5.136,7.536 -3.768,0 -5.16,-3.336 -5.16,-7.536 0,-4.2 1.392,-7.536 5.16,-7.536 3.744,0 5.136,3.336 5.136,7.536 z"
         style="font-size:24px;line-height:1.25"
         id="path385" />
      <path
         d="m 786.29038,209.05511 v -10.8 h -1.872 v 8.472 c -0.816,0.816 -1.824,1.464 -2.952,1.464 -1.128,0 -1.992,-0.984 -1.992,-2.136 v -7.8 h -1.872 v 7.8 c 0,1.752 1.344,3.24 3.072,3.24 1.44,0 2.712,-0.816 3.744,-1.824 v 1.584 z"
         style="font-size:24px;line-height:1.25"
         id="path387" />
      <path
         d="m 795.21833,208.21511 v -0.72 c -0.384,0.384 -0.84,0.696 -1.392,0.696 -0.864,0 -0.912,-1.128 -0.912,-2.136 v -6.792 h 2.304 v -1.008 h -2.304 v -3.6 h -1.128 c 0,1.92 -1.104,3.72 -2.856,3.72 v 0.888 h 2.112 v 6.792 c 0,1.584 0.504,3.24 1.872,3.24 0.888,0 1.656,-0.48 2.304,-1.08 z"
         style="font-size:24px;line-height:1.25"
         id="path389" />
      <path
         d="m 818.01824,204.18311 c 0,-2.952 -3,-4.704 -6.096,-5.352 -2.064,-0.432 -4.392,-0.96 -4.392,-2.88 0,-1.896 2.04,-2.976 4.152,-2.976 1.944,0 3.84,0.576 5.376,1.776 v -0.96 c -1.536,-1.2 -3.432,-1.92 -5.376,-1.92 -3.12,0 -6.048,1.752 -6.048,4.584 0,2.712 2.928,4.08 5.784,4.68 2.28,0.48 4.704,1.416 4.704,3.552 0,2.184 -2.136,3.648 -4.44,3.648 -2.232,0 -4.44,-0.576 -6.312,-1.776 v 0.96 c 1.896,1.2 4.056,1.92 6.312,1.92 3.312,0 6.336,-2.136 6.336,-5.256 z"
         style="font-size:24px;line-height:1.25"
         id="path391" />
      <path
         d="m 825.89023,208.21511 v -0.72 c -0.456,0.384 -0.984,0.696 -1.584,0.696 -0.888,0 -1.056,-1.104 -1.056,-2.136 v -13.8 h -1.872 v 13.8 c 0,1.608 0.624,3.24 2.04,3.24 0.912,0 1.776,-0.456 2.472,-1.08 z"
         style="font-size:24px;line-height:1.25"
         id="path393" />
      <path
         d="m 836.73819,209.05511 v -6.72 c 0,-2.256 -1.392,-4.32 -3.48,-4.32 -1.536,0 -2.976,0.528 -4.272,1.344 v 0.744 c 1.08,-0.6 2.28,-0.984 3.528,-0.984 1.488,0 2.352,1.584 2.352,3.216 v 0.432 c -0.936,-0.408 -1.944,-0.648 -2.952,-0.648 -2.568,0 -4.464,1.176 -4.464,3.6 0,2.304 1.68,3.576 4.104,3.576 1.224,0 2.352,-0.552 3.312,-1.32 v 1.08 z m -1.872,-2.088 c -0.72,0.72 -1.608,1.32 -2.64,1.32 -1.608,0 -2.664,-0.984 -2.664,-2.568 0,-1.464 1.2,-2.592 2.664,-2.592 0.912,0 1.824,0.24 2.64,0.648 z"
         style="font-size:24px;line-height:1.25"
         id="path395" />
      <path
         d="m 848.18615,198.25511 h -1.08 l -3.264,8.976 -3.168,-8.976 h -1.776 l 3.792,10.8 h 1.56 z"
         style="font-size:24px;line-height:1.25"
         id="path397" />
      <path
         d="m 859.03416,203.89511 v -0.24 c 0,-3.384 -1.848,-5.64 -4.632,-5.64 -2.808,0 -4.656,2.256 -4.656,5.64 0,3.384 1.848,5.64 4.656,5.64 1.2,0 2.376,-0.384 3.36,-1.08 v -1.008 c -1.128,0.72 -2.04,0.984 -3.36,0.984 -2.04,0 -2.544,-1.944 -2.544,-4.296 z m -2.112,-1.008 h -5.064 c 0,-1.92 0.816,-3.864 2.544,-3.864 1.704,0 2.52,1.944 2.52,3.864 z"
         style="font-size:24px;line-height:1.25"
         id="path399" />
      <path
         d="m 872.59408,209.05511 v -16.8 h -1.968 v 16.8 z"
         style="font-size:24px;line-height:1.25"
         id="path401" />
      <path
         d="m 885.60209,209.05511 v -7.8 c 0,-1.752 -1.344,-3.24 -3.072,-3.24 -1.44,0 -2.712,0.816 -3.744,1.824 v -1.584 h -1.872 v 10.8 h 1.872 v -8.472 c 0.816,-0.816 1.824,-1.464 2.952,-1.464 1.128,0 1.992,0.984 1.992,2.136 v 7.8 z"
         style="font-size:24px;line-height:1.25"
         id="path403" />
      <path
         d="m 892.87405,203.41511 c 0,-4.392 -0.888,-7.464 -3.264,-11.16 h -1.008 c 1.752,3.888 2.4,6.888 2.4,11.16 0,4.272 -0.648,7.272 -2.4,11.16 h 1.008 c 2.376,-3.696 3.264,-6.768 3.264,-11.16 z"
         style="font-size:24px;line-height:1.25"
         id="path405" />
    </g>
  </g>
</svg>
